<?xml version="1.0" encoding="utf-8" standalone="no"?>
<!DOCTYPE svg PUBLIC "-//W3C//DTD SVG 1.1//EN"
  "http://www.w3.org/Graphics/SVG/1.1/DTD/svg11.dtd">
<svg xmlns:xlink="http://www.w3.org/1999/xlink" width="409.97125pt" height="322.627875pt" viewBox="0 0 409.97125 322.627875" xmlns="http://www.w3.org/2000/svg" version="1.1">
 <metadata>
  <rdf:RDF xmlns:dc="http://purl.org/dc/elements/1.1/" xmlns:cc="http://creativecommons.org/ns#" xmlns:rdf="http://www.w3.org/1999/02/22-rdf-syntax-ns#">
   <cc:Work>
    <dc:type rdf:resource="http://purl.org/dc/dcmitype/StillImage"/>
    <dc:date>2023-12-02T07:05:09.741449</dc:date>
    <dc:format>image/svg+xml</dc:format>
    <dc:creator>
     <cc:Agent>
      <dc:title>Matplotlib v3.8.0, https://matplotlib.org/</dc:title>
     </cc:Agent>
    </dc:creator>
   </cc:Work>
  </rdf:RDF>
 </metadata>
 <defs>
  <style type="text/css">*{stroke-linejoin: round; stroke-linecap: butt}</style>
 </defs>
 <g id="figure_1">
  <g id="patch_1">
   <path d="M 0 322.627875 
L 409.97125 322.627875 
L 409.97125 0 
L 0 0 
z
" style="fill: #ffffff"/>
  </g>
  <g id="axes_1">
   <g id="patch_2">
    <path d="M 45.65125 286.3005 
L 402.77125 286.3005 
L 402.77125 20.1885 
L 45.65125 20.1885 
z
" style="fill: #ffffff"/>
   </g>
   <g id="matplotlib.axis_1">
    <g id="xtick_1">
     <g id="line2d_1">
      <defs>
       <path id="m8eac9ea5de" d="M 0 0 
L 0 4.8 
" style="stroke: #262626"/>
      </defs>
      <g>
       <use xlink:href="#m8eac9ea5de" x="61.883977" y="286.3005" style="fill: #262626; stroke: #262626"/>
      </g>
     </g>
     <g id="text_1">
      <!-- 0 -->
      <g style="fill: #262626" transform="translate(59.437165 300.899375) scale(0.088 -0.088)">
       <defs>
        <path id="ArialMT-30" d="M 266 2259 
Q 266 3072 433 3567 
Q 600 4063 929 4331 
Q 1259 4600 1759 4600 
Q 2128 4600 2406 4451 
Q 2684 4303 2865 4023 
Q 3047 3744 3150 3342 
Q 3253 2941 3253 2259 
Q 3253 1453 3087 958 
Q 2922 463 2592 192 
Q 2263 -78 1759 -78 
Q 1097 -78 719 397 
Q 266 969 266 2259 
z
M 844 2259 
Q 844 1131 1108 757 
Q 1372 384 1759 384 
Q 2147 384 2411 759 
Q 2675 1134 2675 2259 
Q 2675 3391 2411 3762 
Q 2147 4134 1753 4134 
Q 1366 4134 1134 3806 
Q 844 3388 844 2259 
z
" transform="scale(0.015625)"/>
       </defs>
       <use xlink:href="#ArialMT-30"/>
      </g>
     </g>
    </g>
    <g id="xtick_2">
     <g id="line2d_2">
      <g>
       <use xlink:href="#m8eac9ea5de" x="126.827875" y="286.3005" style="fill: #262626; stroke: #262626"/>
      </g>
     </g>
     <g id="text_2">
      <!-- 1000 -->
      <g style="fill: #262626" transform="translate(117.040625 300.899375) scale(0.088 -0.088)">
       <defs>
        <path id="ArialMT-31" d="M 2384 0 
L 1822 0 
L 1822 3584 
Q 1619 3391 1289 3197 
Q 959 3003 697 2906 
L 697 3450 
Q 1169 3672 1522 3987 
Q 1875 4303 2022 4600 
L 2384 4600 
L 2384 0 
z
" transform="scale(0.015625)"/>
       </defs>
       <use xlink:href="#ArialMT-31"/>
       <use xlink:href="#ArialMT-30" x="55.615234"/>
       <use xlink:href="#ArialMT-30" x="111.230469"/>
       <use xlink:href="#ArialMT-30" x="166.845703"/>
      </g>
     </g>
    </g>
    <g id="xtick_3">
     <g id="line2d_3">
      <g>
       <use xlink:href="#m8eac9ea5de" x="191.771773" y="286.3005" style="fill: #262626; stroke: #262626"/>
      </g>
     </g>
     <g id="text_3">
      <!-- 2000 -->
      <g style="fill: #262626" transform="translate(181.984523 300.899375) scale(0.088 -0.088)">
       <defs>
        <path id="ArialMT-32" d="M 3222 541 
L 3222 0 
L 194 0 
Q 188 203 259 391 
Q 375 700 629 1000 
Q 884 1300 1366 1694 
Q 2113 2306 2375 2664 
Q 2638 3022 2638 3341 
Q 2638 3675 2398 3904 
Q 2159 4134 1775 4134 
Q 1369 4134 1125 3890 
Q 881 3647 878 3216 
L 300 3275 
Q 359 3922 746 4261 
Q 1134 4600 1788 4600 
Q 2447 4600 2831 4234 
Q 3216 3869 3216 3328 
Q 3216 3053 3103 2787 
Q 2991 2522 2730 2228 
Q 2469 1934 1863 1422 
Q 1356 997 1212 845 
Q 1069 694 975 541 
L 3222 541 
z
" transform="scale(0.015625)"/>
       </defs>
       <use xlink:href="#ArialMT-32"/>
       <use xlink:href="#ArialMT-30" x="55.615234"/>
       <use xlink:href="#ArialMT-30" x="111.230469"/>
       <use xlink:href="#ArialMT-30" x="166.845703"/>
      </g>
     </g>
    </g>
    <g id="xtick_4">
     <g id="line2d_4">
      <g>
       <use xlink:href="#m8eac9ea5de" x="256.715671" y="286.3005" style="fill: #262626; stroke: #262626"/>
      </g>
     </g>
     <g id="text_4">
      <!-- 3000 -->
      <g style="fill: #262626" transform="translate(246.928421 300.899375) scale(0.088 -0.088)">
       <defs>
        <path id="ArialMT-33" d="M 269 1209 
L 831 1284 
Q 928 806 1161 595 
Q 1394 384 1728 384 
Q 2125 384 2398 659 
Q 2672 934 2672 1341 
Q 2672 1728 2419 1979 
Q 2166 2231 1775 2231 
Q 1616 2231 1378 2169 
L 1441 2663 
Q 1497 2656 1531 2656 
Q 1891 2656 2178 2843 
Q 2466 3031 2466 3422 
Q 2466 3731 2256 3934 
Q 2047 4138 1716 4138 
Q 1388 4138 1169 3931 
Q 950 3725 888 3313 
L 325 3413 
Q 428 3978 793 4289 
Q 1159 4600 1703 4600 
Q 2078 4600 2393 4439 
Q 2709 4278 2876 4000 
Q 3044 3722 3044 3409 
Q 3044 3113 2884 2869 
Q 2725 2625 2413 2481 
Q 2819 2388 3044 2092 
Q 3269 1797 3269 1353 
Q 3269 753 2831 336 
Q 2394 -81 1725 -81 
Q 1122 -81 723 278 
Q 325 638 269 1209 
z
" transform="scale(0.015625)"/>
       </defs>
       <use xlink:href="#ArialMT-33"/>
       <use xlink:href="#ArialMT-30" x="55.615234"/>
       <use xlink:href="#ArialMT-30" x="111.230469"/>
       <use xlink:href="#ArialMT-30" x="166.845703"/>
      </g>
     </g>
    </g>
    <g id="xtick_5">
     <g id="line2d_5">
      <g>
       <use xlink:href="#m8eac9ea5de" x="321.659569" y="286.3005" style="fill: #262626; stroke: #262626"/>
      </g>
     </g>
     <g id="text_5">
      <!-- 4000 -->
      <g style="fill: #262626" transform="translate(311.872319 300.899375) scale(0.088 -0.088)">
       <defs>
        <path id="ArialMT-34" d="M 2069 0 
L 2069 1097 
L 81 1097 
L 81 1613 
L 2172 4581 
L 2631 4581 
L 2631 1613 
L 3250 1613 
L 3250 1097 
L 2631 1097 
L 2631 0 
L 2069 0 
z
M 2069 1613 
L 2069 3678 
L 634 1613 
L 2069 1613 
z
" transform="scale(0.015625)"/>
       </defs>
       <use xlink:href="#ArialMT-34"/>
       <use xlink:href="#ArialMT-30" x="55.615234"/>
       <use xlink:href="#ArialMT-30" x="111.230469"/>
       <use xlink:href="#ArialMT-30" x="166.845703"/>
      </g>
     </g>
    </g>
    <g id="xtick_6">
     <g id="line2d_6">
      <g>
       <use xlink:href="#m8eac9ea5de" x="386.603467" y="286.3005" style="fill: #262626; stroke: #262626"/>
      </g>
     </g>
     <g id="text_6">
      <!-- 5000 -->
      <g style="fill: #262626" transform="translate(376.816217 300.899375) scale(0.088 -0.088)">
       <defs>
        <path id="ArialMT-35" d="M 266 1200 
L 856 1250 
Q 922 819 1161 601 
Q 1400 384 1738 384 
Q 2144 384 2425 690 
Q 2706 997 2706 1503 
Q 2706 1984 2436 2262 
Q 2166 2541 1728 2541 
Q 1456 2541 1237 2417 
Q 1019 2294 894 2097 
L 366 2166 
L 809 4519 
L 3088 4519 
L 3088 3981 
L 1259 3981 
L 1013 2750 
Q 1425 3038 1878 3038 
Q 2478 3038 2890 2622 
Q 3303 2206 3303 1553 
Q 3303 931 2941 478 
Q 2500 -78 1738 -78 
Q 1113 -78 717 272 
Q 322 622 266 1200 
z
" transform="scale(0.015625)"/>
       </defs>
       <use xlink:href="#ArialMT-35"/>
       <use xlink:href="#ArialMT-30" x="55.615234"/>
       <use xlink:href="#ArialMT-30" x="111.230469"/>
       <use xlink:href="#ArialMT-30" x="166.845703"/>
      </g>
     </g>
    </g>
    <g id="text_7">
     <!-- Iteration $\times$ 100 -->
     <g style="fill: #262626" transform="translate(192.14725 313.519875) scale(0.096 -0.096)">
      <defs>
       <path id="ArialMT-49" d="M 597 0 
L 597 4581 
L 1203 4581 
L 1203 0 
L 597 0 
z
" transform="scale(0.015625)"/>
       <path id="ArialMT-74" d="M 1650 503 
L 1731 6 
Q 1494 -44 1306 -44 
Q 1000 -44 831 53 
Q 663 150 594 308 
Q 525 466 525 972 
L 525 2881 
L 113 2881 
L 113 3319 
L 525 3319 
L 525 4141 
L 1084 4478 
L 1084 3319 
L 1650 3319 
L 1650 2881 
L 1084 2881 
L 1084 941 
Q 1084 700 1114 631 
Q 1144 563 1211 522 
Q 1278 481 1403 481 
Q 1497 481 1650 503 
z
" transform="scale(0.015625)"/>
       <path id="ArialMT-65" d="M 2694 1069 
L 3275 997 
Q 3138 488 2766 206 
Q 2394 -75 1816 -75 
Q 1088 -75 661 373 
Q 234 822 234 1631 
Q 234 2469 665 2931 
Q 1097 3394 1784 3394 
Q 2450 3394 2872 2941 
Q 3294 2488 3294 1666 
Q 3294 1616 3291 1516 
L 816 1516 
Q 847 969 1125 678 
Q 1403 388 1819 388 
Q 2128 388 2347 550 
Q 2566 713 2694 1069 
z
M 847 1978 
L 2700 1978 
Q 2663 2397 2488 2606 
Q 2219 2931 1791 2931 
Q 1403 2931 1139 2672 
Q 875 2413 847 1978 
z
" transform="scale(0.015625)"/>
       <path id="ArialMT-72" d="M 416 0 
L 416 3319 
L 922 3319 
L 922 2816 
Q 1116 3169 1280 3281 
Q 1444 3394 1641 3394 
Q 1925 3394 2219 3213 
L 2025 2691 
Q 1819 2813 1613 2813 
Q 1428 2813 1281 2702 
Q 1134 2591 1072 2394 
Q 978 2094 978 1738 
L 978 0 
L 416 0 
z
" transform="scale(0.015625)"/>
       <path id="ArialMT-61" d="M 2588 409 
Q 2275 144 1986 34 
Q 1697 -75 1366 -75 
Q 819 -75 525 192 
Q 231 459 231 875 
Q 231 1119 342 1320 
Q 453 1522 633 1644 
Q 813 1766 1038 1828 
Q 1203 1872 1538 1913 
Q 2219 1994 2541 2106 
Q 2544 2222 2544 2253 
Q 2544 2597 2384 2738 
Q 2169 2928 1744 2928 
Q 1347 2928 1158 2789 
Q 969 2650 878 2297 
L 328 2372 
Q 403 2725 575 2942 
Q 747 3159 1072 3276 
Q 1397 3394 1825 3394 
Q 2250 3394 2515 3294 
Q 2781 3194 2906 3042 
Q 3031 2891 3081 2659 
Q 3109 2516 3109 2141 
L 3109 1391 
Q 3109 606 3145 398 
Q 3181 191 3288 0 
L 2700 0 
Q 2613 175 2588 409 
z
M 2541 1666 
Q 2234 1541 1622 1453 
Q 1275 1403 1131 1340 
Q 988 1278 909 1158 
Q 831 1038 831 891 
Q 831 666 1001 516 
Q 1172 366 1500 366 
Q 1825 366 2078 508 
Q 2331 650 2450 897 
Q 2541 1088 2541 1459 
L 2541 1666 
z
" transform="scale(0.015625)"/>
       <path id="ArialMT-69" d="M 425 3934 
L 425 4581 
L 988 4581 
L 988 3934 
L 425 3934 
z
M 425 0 
L 425 3319 
L 988 3319 
L 988 0 
L 425 0 
z
" transform="scale(0.015625)"/>
       <path id="ArialMT-6f" d="M 213 1659 
Q 213 2581 725 3025 
Q 1153 3394 1769 3394 
Q 2453 3394 2887 2945 
Q 3322 2497 3322 1706 
Q 3322 1066 3130 698 
Q 2938 331 2570 128 
Q 2203 -75 1769 -75 
Q 1072 -75 642 372 
Q 213 819 213 1659 
z
M 791 1659 
Q 791 1022 1069 705 
Q 1347 388 1769 388 
Q 2188 388 2466 706 
Q 2744 1025 2744 1678 
Q 2744 2294 2464 2611 
Q 2184 2928 1769 2928 
Q 1347 2928 1069 2612 
Q 791 2297 791 1659 
z
" transform="scale(0.015625)"/>
       <path id="ArialMT-6e" d="M 422 0 
L 422 3319 
L 928 3319 
L 928 2847 
Q 1294 3394 1984 3394 
Q 2284 3394 2536 3286 
Q 2788 3178 2913 3003 
Q 3038 2828 3088 2588 
Q 3119 2431 3119 2041 
L 3119 0 
L 2556 0 
L 2556 2019 
Q 2556 2363 2490 2533 
Q 2425 2703 2258 2804 
Q 2091 2906 1866 2906 
Q 1506 2906 1245 2678 
Q 984 2450 984 1813 
L 984 0 
L 422 0 
z
" transform="scale(0.015625)"/>
       <path id="ArialMT-20" transform="scale(0.015625)"/>
       <path id="DejaVuSans-d7" d="M 4488 3438 
L 3059 2003 
L 4488 575 
L 4116 197 
L 2681 1631 
L 1247 197 
L 878 575 
L 2303 2003 
L 878 3438 
L 1247 3816 
L 2681 2381 
L 4116 3816 
L 4488 3438 
z
" transform="scale(0.015625)"/>
      </defs>
      <use xlink:href="#ArialMT-49" transform="translate(0 0.125)"/>
      <use xlink:href="#ArialMT-74" transform="translate(27.783203 0.125)"/>
      <use xlink:href="#ArialMT-65" transform="translate(55.566406 0.125)"/>
      <use xlink:href="#ArialMT-72" transform="translate(111.181641 0.125)"/>
      <use xlink:href="#ArialMT-61" transform="translate(144.482422 0.125)"/>
      <use xlink:href="#ArialMT-74" transform="translate(200.097656 0.125)"/>
      <use xlink:href="#ArialMT-69" transform="translate(227.880859 0.125)"/>
      <use xlink:href="#ArialMT-6f" transform="translate(250.097656 0.125)"/>
      <use xlink:href="#ArialMT-6e" transform="translate(305.712891 0.125)"/>
      <use xlink:href="#ArialMT-20" transform="translate(361.328125 0.125)"/>
      <use xlink:href="#DejaVuSans-d7" transform="translate(389.111328 0.125)"/>
      <use xlink:href="#ArialMT-20" transform="translate(472.900391 0.125)"/>
      <use xlink:href="#ArialMT-31" transform="translate(500.683594 0.125)"/>
      <use xlink:href="#ArialMT-30" transform="translate(556.298828 0.125)"/>
      <use xlink:href="#ArialMT-30" transform="translate(611.914062 0.125)"/>
     </g>
    </g>
   </g>
   <g id="matplotlib.axis_2">
    <g id="ytick_1">
     <g id="line2d_7">
      <defs>
       <path id="maeeb81b91b" d="M 0 0 
L -4.8 0 
" style="stroke: #262626"/>
      </defs>
      <g>
       <use xlink:href="#maeeb81b91b" x="45.65125" y="274.2045" style="fill: #262626; stroke: #262626"/>
      </g>
     </g>
     <g id="text_8">
      <!-- −2.0 -->
      <g style="fill: #262626" transform="translate(19.9795 277.353937) scale(0.088 -0.088)">
       <defs>
        <path id="ArialMT-2212" d="M 3381 1997 
L 356 1997 
L 356 2522 
L 3381 2522 
L 3381 1997 
z
" transform="scale(0.015625)"/>
        <path id="ArialMT-2e" d="M 581 0 
L 581 641 
L 1222 641 
L 1222 0 
L 581 0 
z
" transform="scale(0.015625)"/>
       </defs>
       <use xlink:href="#ArialMT-2212"/>
       <use xlink:href="#ArialMT-32" x="58.398438"/>
       <use xlink:href="#ArialMT-2e" x="114.013672"/>
       <use xlink:href="#ArialMT-30" x="141.796875"/>
      </g>
     </g>
    </g>
    <g id="ytick_2">
     <g id="line2d_8">
      <g>
       <use xlink:href="#maeeb81b91b" x="45.65125" y="239.962676" style="fill: #262626; stroke: #262626"/>
      </g>
     </g>
     <g id="text_9">
      <!-- −1.5 -->
      <g style="fill: #262626" transform="translate(19.9795 243.112113) scale(0.088 -0.088)">
       <use xlink:href="#ArialMT-2212"/>
       <use xlink:href="#ArialMT-31" x="58.398438"/>
       <use xlink:href="#ArialMT-2e" x="114.013672"/>
       <use xlink:href="#ArialMT-35" x="141.796875"/>
      </g>
     </g>
    </g>
    <g id="ytick_3">
     <g id="line2d_9">
      <g>
       <use xlink:href="#maeeb81b91b" x="45.65125" y="205.720852" style="fill: #262626; stroke: #262626"/>
      </g>
     </g>
     <g id="text_10">
      <!-- −1.0 -->
      <g style="fill: #262626" transform="translate(19.9795 208.870289) scale(0.088 -0.088)">
       <use xlink:href="#ArialMT-2212"/>
       <use xlink:href="#ArialMT-31" x="58.398438"/>
       <use xlink:href="#ArialMT-2e" x="114.013672"/>
       <use xlink:href="#ArialMT-30" x="141.796875"/>
      </g>
     </g>
    </g>
    <g id="ytick_4">
     <g id="line2d_10">
      <g>
       <use xlink:href="#maeeb81b91b" x="45.65125" y="171.479028" style="fill: #262626; stroke: #262626"/>
      </g>
     </g>
     <g id="text_11">
      <!-- −0.5 -->
      <g style="fill: #262626" transform="translate(19.9795 174.628465) scale(0.088 -0.088)">
       <use xlink:href="#ArialMT-2212"/>
       <use xlink:href="#ArialMT-30" x="58.398438"/>
       <use xlink:href="#ArialMT-2e" x="114.013672"/>
       <use xlink:href="#ArialMT-35" x="141.796875"/>
      </g>
     </g>
    </g>
    <g id="ytick_5">
     <g id="line2d_11">
      <g>
       <use xlink:href="#maeeb81b91b" x="45.65125" y="137.237203" style="fill: #262626; stroke: #262626"/>
      </g>
     </g>
     <g id="text_12">
      <!-- 0.0 -->
      <g style="fill: #262626" transform="translate(25.11925 140.386641) scale(0.088 -0.088)">
       <use xlink:href="#ArialMT-30"/>
       <use xlink:href="#ArialMT-2e" x="55.615234"/>
       <use xlink:href="#ArialMT-30" x="83.398438"/>
      </g>
     </g>
    </g>
    <g id="ytick_6">
     <g id="line2d_12">
      <g>
       <use xlink:href="#maeeb81b91b" x="45.65125" y="102.995379" style="fill: #262626; stroke: #262626"/>
      </g>
     </g>
     <g id="text_13">
      <!-- 0.5 -->
      <g style="fill: #262626" transform="translate(25.11925 106.144817) scale(0.088 -0.088)">
       <use xlink:href="#ArialMT-30"/>
       <use xlink:href="#ArialMT-2e" x="55.615234"/>
       <use xlink:href="#ArialMT-35" x="83.398438"/>
      </g>
     </g>
    </g>
    <g id="ytick_7">
     <g id="line2d_13">
      <g>
       <use xlink:href="#maeeb81b91b" x="45.65125" y="68.753555" style="fill: #262626; stroke: #262626"/>
      </g>
     </g>
     <g id="text_14">
      <!-- 1.0 -->
      <g style="fill: #262626" transform="translate(25.11925 71.902993) scale(0.088 -0.088)">
       <use xlink:href="#ArialMT-31"/>
       <use xlink:href="#ArialMT-2e" x="55.615234"/>
       <use xlink:href="#ArialMT-30" x="83.398438"/>
      </g>
     </g>
    </g>
    <g id="ytick_8">
     <g id="line2d_14">
      <g>
       <use xlink:href="#maeeb81b91b" x="45.65125" y="34.511731" style="fill: #262626; stroke: #262626"/>
      </g>
     </g>
     <g id="text_15">
      <!-- 1.5 -->
      <g style="fill: #262626" transform="translate(25.11925 37.661168) scale(0.088 -0.088)">
       <use xlink:href="#ArialMT-31"/>
       <use xlink:href="#ArialMT-2e" x="55.615234"/>
       <use xlink:href="#ArialMT-35" x="83.398438"/>
      </g>
     </g>
    </g>
    <g id="text_16">
     <!-- $\theta$ -->
     <g style="fill: #262626" transform="translate(14.0715 156.2205) rotate(-90) scale(0.096 -0.096)">
      <defs>
       <path id="DejaVuSans-Oblique-3b8" d="M 2913 2219 
L 925 2219 
Q 791 1284 928 888 
Q 1100 400 1566 400 
Q 2034 400 2391 891 
Q 2703 1322 2913 2219 
z
M 3009 2750 
Q 3094 3638 2984 3950 
Q 2813 4444 2353 4444 
Q 1875 4444 1525 3956 
Q 1250 3563 1034 2750 
L 3009 2750 
z
M 2444 4913 
Q 3194 4913 3494 4250 
Q 3794 3591 3566 2422 
Q 3341 1256 2781 594 
Q 2225 -72 1475 -72 
Q 722 -72 425 594 
Q 128 1256 353 2422 
Q 581 3591 1134 4250 
Q 1691 4913 2444 4913 
z
" transform="scale(0.015625)"/>
      </defs>
      <use xlink:href="#DejaVuSans-Oblique-3b8" transform="translate(0 0.234375)"/>
     </g>
    </g>
   </g>
   <g id="line2d_15">
    <path d="M 61.883977 188.366652 
L 62.208697 172.404825 
L 62.92308 150.07262 
L 63.052967 148.664496 
L 63.442631 141.107109 
L 63.702406 139.754152 
L 63.76735 139.626336 
L 63.897238 138.91137 
L 64.027126 139.125251 
L 64.09207 139.091424 
L 64.157014 139.198248 
L 64.676565 136.612422 
L 64.741509 136.556261 
L 65.066228 135.292134 
L 65.196116 135.489695 
L 65.326004 135.495935 
L 65.390948 135.579153 
L 65.780611 134.588402 
L 65.845555 134.932628 
L 65.910499 134.879633 
L 65.975443 134.9502 
L 66.170275 134.360731 
L 66.365106 134.716004 
L 66.559938 134.903383 
L 66.624882 134.957811 
L 66.689826 134.753586 
L 66.949601 135.41003 
L 67.339265 133.967352 
L 67.728928 134.718178 
L 67.858816 134.457667 
L 67.988704 134.627289 
L 68.248479 134.361578 
L 68.378367 134.418252 
L 68.443311 134.184332 
L 68.508255 134.458654 
L 68.573199 134.334097 
L 68.638143 134.504838 
L 68.703087 134.374721 
L 68.832974 134.398915 
L 69.027806 134.186124 
L 69.09275 134.465449 
L 69.157694 134.436413 
L 69.417469 134.239111 
L 69.742189 134.917913 
L 69.937021 135.23961 
L 70.131852 135.119816 
L 70.26174 135.200367 
L 70.391628 135.012994 
L 70.456572 134.884008 
L 70.521516 134.955868 
L 70.58646 135.072387 
L 70.651403 134.81572 
L 70.716347 135.011808 
L 71.041067 134.536327 
L 71.106011 134.725452 
L 71.365786 134.954447 
L 71.625562 134.982366 
L 71.820394 135.027002 
L 71.950281 135.025697 
L 72.080169 135.179087 
L 72.339945 135.270949 
L 72.469833 135.534556 
L 72.59972 135.300658 
L 72.729608 135.439915 
L 72.92444 136.160594 
L 72.989384 136.136358 
L 73.184216 136.747719 
L 73.249159 136.712163 
L 73.314103 136.811574 
L 73.898598 134.625633 
L 74.028486 134.689179 
L 74.158374 134.505917 
L 74.288262 134.52885 
L 74.41815 134.106253 
L 74.677925 135.004523 
L 74.807813 134.99947 
L 74.937701 134.831215 
L 75.002645 134.968497 
L 75.067589 134.900035 
L 75.327364 135.035699 
L 75.392308 134.888989 
L 75.457252 134.981673 
L 75.522196 134.945475 
L 75.58714 134.623342 
L 75.652084 134.86431 
L 75.717028 134.743545 
L 75.846915 134.790184 
L 75.976803 135.107988 
L 76.041747 134.975393 
L 76.366466 134.538141 
L 76.43141 134.615434 
L 76.561298 134.313421 
L 76.626242 134.478884 
L 76.691186 134.651598 
L 76.75613 134.617056 
L 76.821074 134.614261 
L 76.886018 134.761874 
L 77.080849 134.53799 
L 77.210737 134.542478 
L 77.275681 134.50458 
L 77.730288 135.493983 
L 77.990064 134.849277 
L 78.055008 134.744235 
L 78.119952 134.81055 
L 78.509615 135.22052 
L 78.769391 135.764441 
L 78.834335 135.644967 
L 79.029166 135.937469 
L 79.223998 135.367088 
L 79.288942 135.535165 
L 79.353886 135.502844 
L 79.678605 135.67582 
L 79.743549 135.452538 
L 79.808493 135.484551 
L 79.938381 135.542041 
L 80.003325 135.567368 
L 80.328044 135.000199 
L 80.392988 135.036261 
L 80.522876 134.769737 
L 80.58782 134.803487 
L 80.782652 135.181922 
L 80.847595 135.257178 
L 80.912539 135.08944 
L 80.977483 135.139502 
L 81.237259 135.437861 
L 81.432091 135.103937 
L 81.626922 135.266335 
L 81.821754 135.178466 
L 81.951642 135.546629 
L 82.016586 135.470273 
L 82.211417 135.307048 
L 82.406249 135.511754 
L 82.601081 135.211324 
L 82.666025 135.304583 
L 82.730968 135.256734 
L 83.055688 135.920087 
L 83.25052 135.658629 
L 83.315464 135.692385 
L 83.445351 135.397392 
L 83.510295 135.492204 
L 83.575239 135.420628 
L 83.964903 134.804897 
L 84.029846 134.848244 
L 84.159734 134.741929 
L 84.224678 134.813384 
L 84.484454 135.755779 
L 84.614342 135.891236 
L 84.809173 136.496174 
L 84.874117 136.418856 
L 85.133893 136.370986 
L 85.523556 135.587391 
L 85.783332 135.63213 
L 85.848276 135.481419 
L 85.913219 135.576585 
L 85.978163 135.616072 
L 86.043107 135.521858 
L 86.108051 135.576219 
L 86.172995 135.59142 
L 86.432771 136.041982 
L 86.497715 135.967114 
L 86.627602 135.667612 
L 86.75749 135.630039 
L 86.822434 135.525882 
L 87.08221 134.635373 
L 87.212097 134.467596 
L 87.277041 134.527668 
L 87.406929 134.724426 
L 87.536817 134.400752 
L 87.666705 134.603878 
L 87.731649 134.504478 
L 87.92648 134.577156 
L 88.121312 134.974539 
L 88.381088 134.710773 
L 88.835695 134.699494 
L 89.160414 135.00415 
L 89.355246 135.372395 
L 89.550078 135.401217 
L 89.615022 135.351414 
L 89.744909 135.146786 
L 89.874797 135.172558 
L 90.004685 135.419129 
L 90.069629 135.350713 
L 90.524236 135.224137 
L 90.654124 135.07005 
L 91.043787 135.356973 
L 91.173675 135.857568 
L 91.238619 135.774225 
L 91.303563 135.787855 
L 91.498395 135.445887 
L 91.75817 135.572386 
L 91.823114 135.628302 
L 92.017946 135.202826 
L 92.08289 135.365414 
L 92.147834 135.496558 
L 92.212778 135.434295 
L 92.342665 135.485202 
L 92.407609 135.334017 
L 92.472553 135.381177 
L 92.537497 135.321906 
L 92.602441 135.489973 
L 92.667385 135.364564 
L 93.057048 135.225039 
L 93.121992 134.946416 
L 93.186936 135.05473 
L 93.316824 134.865739 
L 93.381768 134.657369 
L 93.446712 134.729251 
L 93.641543 134.909848 
L 93.771431 134.867876 
L 93.836375 134.910565 
L 94.031207 134.651707 
L 94.161095 134.630695 
L 94.290982 134.54674 
L 94.42087 134.94783 
L 94.485814 134.717287 
L 94.680646 134.408772 
L 95.395029 134.607715 
L 95.719748 134.504141 
L 95.91458 134.718131 
L 96.369187 134.24234 
L 96.499075 134.632111 
L 96.564019 134.576721 
L 96.693907 134.271203 
L 96.953682 134.753749 
L 97.018626 134.593459 
L 97.148514 134.764123 
L 97.213458 134.687588 
L 97.473233 134.974967 
L 97.668065 135.028434 
L 97.733009 135.07634 
L 97.927841 134.737468 
L 98.187616 135.150918 
L 98.25256 135.365153 
L 98.317504 135.241245 
L 98.382448 135.126374 
L 98.57728 135.397935 
L 98.642223 135.471284 
L 99.226719 134.785511 
L 99.42155 134.873323 
L 99.616382 134.362061 
L 99.681326 134.445891 
L 100.135933 135.03829 
L 100.265821 135.246252 
L 100.460653 135.111229 
L 100.785372 134.570724 
L 100.980204 134.672796 
L 101.175035 134.405931 
L 101.239979 134.481789 
L 101.369867 134.219176 
L 101.434811 134.400403 
L 101.499755 134.245267 
L 101.564699 134.353006 
L 101.629643 134.333548 
L 101.824474 134.10465 
L 102.279082 135.177428 
L 102.538857 134.827687 
L 102.733689 135.061883 
L 103.058409 134.796379 
L 103.188296 134.881821 
L 103.25324 134.945085 
L 103.57796 134.403941 
L 103.707848 134.342391 
L 103.902679 134.258176 
L 104.032567 134.385508 
L 104.227399 134.354078 
L 104.292343 134.371645 
L 104.42223 134.566746 
L 104.552118 134.421289 
L 104.876838 134.900599 
L 105.071669 135.124978 
L 105.136613 135.211675 
L 105.201557 135.143973 
L 105.526277 135.315191 
L 105.721108 135.032051 
L 105.786052 135.125889 
L 105.91594 135.240084 
L 106.045828 135.477877 
L 106.305603 135.318425 
L 106.500435 135.372977 
L 106.760211 134.986493 
L 106.890098 135.027518 
L 106.955042 134.893451 
L 107.019986 135.004093 
L 107.08493 134.920961 
L 107.149874 135.037134 
L 107.214818 134.967314 
L 107.344706 134.794065 
L 107.40965 134.894039 
L 107.604481 135.195773 
L 107.799313 135.203512 
L 107.994145 135.096555 
L 108.124033 135.098927 
L 108.383808 134.708524 
L 108.643584 135.022862 
L 109.098191 135.038152 
L 109.422911 135.486291 
L 109.617742 135.531334 
L 109.812574 135.286094 
L 109.877518 135.419432 
L 109.942462 135.321432 
L 110.526957 135.762473 
L 110.981564 135.487661 
L 111.046508 135.580965 
L 111.371227 135.213136 
L 111.436171 135.223494 
L 111.566059 135.372978 
L 111.760891 135.178262 
L 112.150554 135.330418 
L 112.215498 135.136982 
L 112.280442 135.256886 
L 112.41033 135.180521 
L 112.540218 135.323645 
L 112.799993 135.124863 
L 112.994825 135.305434 
L 113.189657 135.059697 
L 113.449432 135.240705 
L 113.57932 134.921626 
L 113.644264 134.66018 
L 113.709208 134.6824 
L 113.774152 134.768734 
L 113.839096 134.631709 
L 113.904039 134.684832 
L 114.163815 134.638079 
L 114.228759 134.825644 
L 114.293703 134.780236 
L 114.423591 134.735401 
L 114.878198 134.642946 
L 115.07303 134.872645 
L 115.397749 135.039244 
L 115.527637 134.827354 
L 115.657525 134.809084 
L 115.9173 134.748012 
L 115.982244 134.799526 
L 116.047188 134.60668 
L 116.112132 134.696851 
L 116.306964 134.757746 
L 116.501795 134.680568 
L 117.021347 134.626322 
L 117.151234 134.578092 
L 117.41101 134.683698 
L 117.605842 134.466888 
L 117.670786 134.576858 
L 117.735729 134.494553 
L 117.930561 134.424006 
L 118.190337 134.638118 
L 118.385168 134.75512 
L 118.709888 134.968109 
L 118.969664 134.909537 
L 119.164495 134.593349 
L 119.294383 134.770967 
L 119.424271 134.770599 
L 119.489215 134.81068 
L 119.619102 134.676827 
L 119.813934 134.849109 
L 120.008766 134.916747 
L 120.203598 135.00105 
L 120.463373 135.127193 
L 120.723149 135.30873 
L 120.91798 135.260767 
L 121.177756 135.300815 
L 121.372588 135.232643 
L 121.502476 135.439589 
L 121.697307 135.356147 
L 122.151914 135.566459 
L 122.216858 135.477371 
L 122.281802 135.526117 
L 122.541578 135.591489 
L 122.931241 135.779621 
L 123.061129 135.627589 
L 123.255961 135.684547 
L 123.385849 135.775532 
L 123.645624 135.834952 
L 123.775512 135.778874 
L 123.970344 135.916342 
L 124.100231 135.871294 
L 124.295063 135.666746 
L 124.944502 135.856838 
L 125.009446 135.826805 
L 125.204278 135.936647 
L 125.464053 135.755846 
L 125.593941 135.73866 
L 125.983604 135.439394 
L 126.048548 135.526206 
L 126.113492 135.415522 
L 126.178436 135.481827 
L 126.308324 135.455634 
L 126.438212 135.334881 
L 126.697987 135.03518 
L 126.892819 135.040782 
L 127.087651 135.260514 
L 127.217539 135.182721 
L 127.282482 135.247535 
L 127.477314 135.104479 
L 127.672146 135.103547 
L 127.802034 135.136226 
L 127.866978 135.203114 
L 127.931921 135.138562 
L 128.126753 135.184495 
L 128.321585 135.247774 
L 128.58136 135.379729 
L 128.711248 135.356045 
L 129.425631 134.918669 
L 129.750351 134.708052 
L 130.010126 134.688093 
L 130.789453 134.61546 
L 131.309004 135.045435 
L 131.56878 134.809585 
L 131.698667 134.719172 
L 132.088331 134.743251 
L 132.283163 134.647776 
L 132.73777 134.838187 
L 133.062489 134.6796 
L 133.192377 134.71349 
L 133.387209 134.938531 
L 133.517097 134.859828 
L 134.101592 135.32811 
L 134.426311 135.580421 
L 134.686087 135.357993 
L 134.815975 135.360656 
L 135.07575 135.199526 
L 135.465414 135.270068 
L 135.660245 135.029282 
L 135.790133 135.037133 
L 135.920021 135.019977 
L 136.049909 135.002022 
L 136.699348 134.502898 
L 136.959123 134.298962 
L 137.283843 134.561459 
L 137.478674 134.462487 
L 138.258001 134.61972 
L 138.387889 134.49708 
L 138.582721 134.78839 
L 138.647665 134.707512 
L 139.362047 134.970554 
L 139.556879 134.804871 
L 139.686767 134.876631 
L 139.751711 135.006908 
L 139.816655 134.973706 
L 139.946543 134.90918 
L 140.141374 135.164688 
L 140.40115 135.268301 
L 140.595981 135.381486 
L 140.725869 135.37781 
L 141.505196 134.926394 
L 142.674186 135.092798 
L 142.73913 135.006654 
L 142.998906 135.362926 
L 143.323625 135.523387 
L 143.713289 135.220033 
L 143.90812 135.219426 
L 144.102952 135.210728 
L 144.23284 135.178563 
L 144.427671 135.181466 
L 144.687447 135.341893 
L 144.752391 135.318851 
L 144.817335 135.163072 
L 144.882279 135.212379 
L 145.012167 135.192849 
L 145.142054 135.041863 
L 145.206998 135.087262 
L 145.40183 135.183282 
L 145.661606 135.077569 
L 146.051269 134.773094 
L 146.635764 134.986797 
L 146.765652 135.05601 
L 147.025427 134.969401 
L 147.220259 134.937963 
L 147.804754 135.130236 
L 148.713969 135.089937 
L 149.493296 135.164492 
L 149.623183 135.110717 
L 150.207678 135.410099 
L 150.40251 135.363381 
L 150.662286 135.379901 
L 151.441612 135.295703 
L 151.701388 135.073741 
L 152.091051 135.10304 
L 152.415771 134.947978 
L 153.06521 134.762098 
L 153.324985 134.574231 
L 153.519817 134.619538 
L 153.649705 134.595993 
L 153.844537 134.781009 
L 154.039368 134.69375 
L 154.364088 134.936722 
L 154.818695 135.092851 
L 155.013527 135.216685 
L 155.208359 135.197367 
L 155.338246 135.265324 
L 155.598022 135.213597 
L 155.922741 135.182026 
L 156.117573 135.288915 
L 156.442293 135.185036 
L 156.637124 135.013824 
L 157.026788 135.204666 
L 157.156675 135.1021 
L 157.741171 135.12625 
L 157.936002 135.12006 
L 158.130834 134.955595 
L 158.455553 134.938763 
L 158.780273 134.787664 
L 159.299824 135.078036 
L 159.754431 135.339267 
L 160.144095 135.123036 
L 160.40387 135.191924 
L 160.598702 135.34681 
L 161.118253 135.38264 
L 162.611963 135.399059 
L 162.871738 135.217294 
L 163.196458 135.166126 
L 164.949943 135.194767 
L 165.079831 135.077466 
L 165.40455 135.014169 
L 165.534438 135.034078 
L 165.924102 134.92665 
L 166.443653 135.008488 
L 166.963204 134.919413 
L 167.352867 134.819917 
L 167.612643 134.879017 
L 168.39197 135.179733 
L 168.846577 135.244073 
L 169.041409 135.1724 
L 169.301184 135.129924 
L 170.275343 135.432316 
L 170.665006 135.406806 
L 171.509277 135.024156 
L 171.704109 135.010019 
L 171.89894 134.939104 
L 172.743211 134.988915 
L 173.327706 135.046146 
L 173.522538 135.040006 
L 173.912201 134.971112 
L 174.236921 134.924489 
L 174.951303 135.013716 
L 175.146135 134.992109 
L 175.665686 134.979615 
L 175.990406 134.970824 
L 176.315125 134.9098 
L 176.509957 134.902243 
L 176.89962 134.984191 
L 177.094452 135.048414 
L 177.614003 135.030604 
L 178.068611 134.938727 
L 179.367489 135.059508 
L 179.88704 135.234366 
L 180.146815 135.103307 
L 180.601423 135.151986 
L 180.861198 135.157169 
L 180.991086 135.174697 
L 181.250862 135.120245 
L 181.445693 135.102718 
L 182.160076 134.896761 
L 182.354908 134.982875 
L 182.809515 134.981102 
L 182.939403 134.957828 
L 183.329066 134.854634 
L 184.173337 134.927276 
L 184.692888 134.899326 
L 185.017608 134.964052 
L 185.212439 134.936976 
L 185.537159 135.104008 
L 185.731991 135.185925 
L 186.05671 135.109295 
L 186.706149 134.910075 
L 187.355588 134.929891 
L 187.810195 134.847876 
L 188.199859 134.969018 
L 189.238961 134.921906 
L 189.758512 135.049674 
L 190.472895 134.858067 
L 190.667727 134.842833 
L 190.992446 134.91357 
L 191.511997 135.069023 
L 192.616044 134.960508 
L 192.810875 134.965588 
L 193.265483 134.959452 
L 194.239641 135.115081 
L 194.88908 135.072666 
L 195.2138 135.07884 
L 196.642565 135.043387 
L 196.967285 134.961547 
L 200.604143 134.863402 
L 201.123694 134.971974 
L 201.578302 135.050172 
L 201.773133 135.008557 
L 202.162797 135.064752 
L 202.55246 135.060971 
L 203.266843 135.047098 
L 203.396731 135.089864 
L 203.656506 135.099826 
L 205.539879 134.973151 
L 205.799655 134.999957 
L 206.189318 134.99719 
L 206.70887 135.111757 
L 207.163477 135.153746 
L 209.436513 134.996339 
L 210.021008 135.074639 
L 213.268203 135.110091 
L 213.527979 135.149477 
L 214.761913 135.058313 
L 215.021688 134.993487 
L 215.281464 134.942192 
L 215.865959 134.929716 
L 216.38551 135.011244 
L 222.555181 134.889415 
L 223.009788 134.976891 
L 224.178778 135.01504 
L 224.568441 134.963597 
L 224.828217 134.974527 
L 225.087993 135.022945 
L 225.932263 135.090539 
L 227.945524 135.110981 
L 228.2053 135.103235 
L 228.854739 135.006902 
L 229.114514 135.058219 
L 232.03699 134.909526 
L 232.361709 134.860137 
L 233.270924 134.938803 
L 233.660587 134.95989 
L 234.115194 135.05352 
L 234.69969 135.036616 
L 235.154297 135.073543 
L 236.193399 135.029914 
L 236.842838 134.965568 
L 237.881941 134.974354 
L 238.726211 134.968564 
L 239.310706 134.941729 
L 239.570482 134.945346 
L 240.025089 134.973086 
L 240.86936 134.975637 
L 241.71363 135.019442 
L 242.363069 135.004214 
L 245.740152 135.021447 
L 246.519479 135.003265 
L 247.558581 134.998515 
L 248.467796 135.014935 
L 250.156337 134.993788 
L 250.805776 134.984535 
L 251.455215 134.90077 
L 257.36511 134.952904 
L 258.209381 134.971437 
L 258.5341 135.013846 
L 262.235902 135.110051 
L 262.820397 135.051753 
L 263.404892 135.020315 
L 264.573883 135.093701 
L 266.132536 135.055502 
L 266.911863 135.029435 
L 272.36715 135.039845 
L 272.756814 135.042131 
L 273.146477 135.044472 
L 274.120636 135.105596 
L 276.393672 134.962705 
L 277.172999 134.96213 
L 277.952325 134.936491 
L 278.731652 134.962614 
L 279.316147 134.924835 
L 280.225362 134.892437 
L 281.134576 134.967029 
L 282.108735 134.965764 
L 283.277725 134.979164 
L 284.381771 134.946176 
L 285.290986 134.976898 
L 285.810537 134.982712 
L 288.148517 134.980319 
L 288.927844 134.998214 
L 290.551442 135.016786 
L 291.915264 135.082007 
L 292.69459 135.078135 
L 293.149198 135.088903 
L 295.032571 135.040231 
L 295.552122 134.985594 
L 296.266505 134.969215 
L 296.721112 134.983949 
L 303.215502 134.99786 
L 303.799997 134.985379 
L 306.137977 135.012878 
L 317.308328 135.01144 
L 319.451476 134.999844 
L 321.01013 134.997169 
L 336.33689 135.00467 
L 337.440936 134.996538 
L 338.609926 134.987681 
L 343.740494 134.999702 
L 345.623867 134.973964 
L 386.538523 135.010699 
L 386.538523 135.010699 
" clip-path="url(#p10483909ac)" style="fill: none; stroke: #1f77b4; stroke-width: 1.2; stroke-linecap: round"/>
   </g>
   <g id="line2d_16">
    <path d="M 61.883977 274.2045 
L 386.538523 274.2045 
L 386.538523 274.2045 
" clip-path="url(#p10483909ac)" style="fill: none; stroke-dasharray: 4.44,1.92; stroke-dashoffset: 0; stroke: #ff7f0e; stroke-width: 1.2"/>
   </g>
   <g id="line2d_17">
    <path d="M 61.883977 193.266952 
L 61.948921 190.356686 
L 62.013865 191.602532 
L 62.078809 191.545654 
L 62.338585 195.666584 
L 62.468472 200.727986 
L 62.533416 199.112846 
L 62.793192 208.086313 
L 62.988024 209.2252 
L 63.182855 211.702679 
L 63.377687 219.807206 
L 64.416789 232.263396 
L 64.676565 236.207141 
L 64.93634 238.451565 
L 66.365106 249.960025 
L 67.014545 253.718956 
L 67.339265 255.507305 
L 67.728928 256.997263 
L 67.793872 257.190167 
L 67.988704 258.50879 
L 68.118591 258.950081 
L 68.313423 260.028139 
L 68.573199 260.846568 
L 68.76803 261.370527 
L 69.09275 262.238266 
L 70.131852 265.228371 
L 70.58646 265.605666 
L 70.651403 265.460544 
L 70.716347 265.556617 
L 71.041067 266.516853 
L 71.170955 267.068895 
L 71.300842 266.924362 
L 71.43073 267.226973 
L 71.495674 267.177165 
L 71.820394 267.959935 
L 71.885338 267.768679 
L 71.950281 267.817646 
L 72.015225 267.857282 
L 72.469833 269.066492 
L 72.59972 269.030204 
L 72.794552 268.762992 
L 72.989384 269.03938 
L 73.184216 269.907716 
L 73.314103 269.998163 
L 73.379047 269.987754 
L 73.443991 270.150714 
L 73.508935 270.038999 
L 73.573879 270.027415 
L 73.898598 270.380788 
L 73.963542 270.385115 
L 74.158374 270.656752 
L 74.223318 270.660001 
L 74.41815 270.159792 
L 74.483093 270.108882 
L 75.26242 271.380383 
L 75.327364 271.223236 
L 75.392308 271.325497 
L 75.652084 272.200331 
L 75.846915 272.40411 
L 76.041747 272.429189 
L 76.236579 273.113886 
L 76.301523 272.873052 
L 76.626242 272.777061 
L 76.821074 272.481961 
L 77.080849 273.22516 
L 77.145793 273.256477 
L 77.275681 272.976823 
L 77.340625 272.965026 
L 77.600401 272.436749 
L 77.730288 272.29744 
L 77.860176 272.530928 
L 77.92512 272.431687 
L 77.990064 272.475985 
L 78.184896 272.499537 
L 78.24984 272.258344 
L 78.314783 272.442235 
L 78.704447 273.262436 
L 78.769391 273.29937 
L 79.029166 273.879487 
L 79.223998 273.609883 
L 79.288942 273.676541 
L 79.41883 273.641551 
L 79.483774 273.425371 
L 79.548717 273.510855 
L 79.678605 273.372788 
L 79.743549 273.187786 
L 79.808493 273.212065 
L 79.873437 273.247194 
L 80.522876 272.302298 
L 80.782652 272.546692 
L 81.042427 272.197637 
L 81.107371 272.290836 
L 81.302203 271.906023 
L 81.432091 272.26036 
L 81.497034 272.075538 
L 81.561978 272.125909 
L 81.626922 272.203482 
L 81.691866 272.125558 
L 81.75681 272.015011 
L 81.821754 272.112259 
L 81.886698 272.12675 
L 81.951642 272.271324 
L 82.016586 272.236219 
L 82.211417 271.974518 
L 82.276361 271.944826 
L 82.341305 271.622238 
L 82.406249 271.750378 
L 82.601081 271.449049 
L 82.795912 271.893736 
L 83.185576 271.815151 
L 83.315464 271.542101 
L 83.380407 271.685124 
L 83.445351 271.582349 
L 83.770071 270.975315 
L 83.835015 271.019604 
L 83.899959 270.736244 
L 83.964903 270.836986 
L 84.09479 271.066579 
L 84.289622 270.657495 
L 84.484454 270.961869 
L 84.614342 271.071021 
L 84.744229 270.853004 
L 84.939061 271.346944 
L 85.004005 271.274734 
L 85.068949 271.333032 
L 85.198837 271.252479 
L 85.523556 271.880658 
L 85.5885 271.876829 
L 85.653444 271.699713 
L 85.718388 271.762861 
L 86.043107 272.561052 
L 86.108051 272.595618 
L 86.302883 272.389839 
L 86.497715 272.649426 
L 86.627602 272.484998 
L 86.692546 272.494353 
L 87.017266 273.132802 
L 87.212097 272.95167 
L 87.406929 273.237039 
L 87.471873 273.118009 
L 87.666705 273.313363 
L 87.92648 273.512211 
L 87.991424 273.471081 
L 88.056368 273.695857 
L 88.121312 273.557357 
L 88.186256 273.318726 
L 88.2512 273.399279 
L 88.316144 273.503034 
L 88.381088 273.453847 
L 88.575919 273.39941 
L 88.640863 273.370608 
L 88.705807 273.614839 
L 88.770751 273.532873 
L 88.965583 273.708797 
L 89.030527 273.717418 
L 89.355246 273.341414 
L 89.485134 273.330817 
L 89.679966 273.209126 
L 89.874797 272.76048 
L 90.654124 273.474616 
L 90.848956 273.235161 
L 90.9139 273.229805 
L 90.978844 273.441903 
L 91.043787 273.357358 
L 91.238619 273.119895 
L 91.433451 273.472934 
L 91.75817 273.488184 
L 91.953002 273.370616 
L 92.147834 273.516219 
L 92.342665 273.34841 
L 92.602441 273.241406 
L 92.862217 273.300496 
L 93.057048 272.881812 
L 93.121992 272.965328 
L 93.511656 273.180732 
L 93.641543 273.071026 
L 94.031207 273.083313 
L 94.615702 273.617125 
L 94.74559 273.578632 
L 95.005365 273.756948 
L 95.395029 273.41715 
L 95.524916 273.549969 
L 95.784692 273.474436 
L 95.91458 273.649862 
L 95.979524 273.591449 
L 96.044468 273.616806 
L 96.369187 273.023332 
L 96.434131 273.076022 
L 96.75885 273.530294 
L 96.888738 273.270723 
L 96.953682 273.34632 
L 97.148514 273.363024 
L 97.213458 273.492021 
L 97.797953 272.364752 
L 97.862897 272.514086 
L 97.927841 272.482695 
L 97.992784 272.416135 
L 98.382448 272.9976 
L 98.57728 272.867419 
L 98.837055 272.883175 
L 99.031887 273.004213 
L 99.161775 272.961834 
L 99.226719 273.064225 
L 99.356606 272.985207 
L 99.42155 273.031145 
L 99.486494 272.822623 
L 99.551438 272.936673 
L 99.681326 272.874546 
L 99.811214 272.934313 
L 99.941101 272.764839 
L 100.135933 272.797348 
L 100.200877 272.714182 
L 100.265821 272.811129 
L 100.330765 272.812614 
L 100.460653 272.690377 
L 100.980204 273.343716 
L 101.045148 273.527959 
L 101.110092 273.493874 
L 101.175035 273.529436 
L 101.304923 273.165662 
L 101.889418 274.056905 
L 101.954362 274.032454 
L 102.149194 273.654654 
L 102.344026 273.754229 
L 102.538857 273.63244 
L 102.603801 273.745004 
L 102.668745 273.662622 
L 102.863577 273.458688 
L 103.058409 273.243806 
L 103.123352 273.262992 
L 103.25324 273.57864 
L 103.383128 273.536784 
L 103.448072 273.715197 
L 103.513016 273.639722 
L 103.642904 273.516113 
L 103.837735 273.354982 
L 103.967623 273.257285 
L 104.097511 273.226581 
L 104.357286 273.021079 
L 104.617062 273.134402 
L 104.682006 273.041113 
L 104.74695 273.11707 
L 104.876838 273.001127 
L 104.941782 272.893641 
L 105.006725 272.934877 
L 105.266501 272.845531 
L 105.396389 272.964201 
L 105.656164 272.730135 
L 105.850996 272.922215 
L 106.175716 272.988456 
L 106.500435 273.308693 
L 106.695267 272.997935 
L 107.214818 273.224523 
L 107.40965 273.117323 
L 107.539537 273.311069 
L 107.734369 273.320833 
L 108.059089 273.713222 
L 108.188976 273.558206 
L 108.318864 273.614635 
L 108.57864 273.286185 
L 108.643584 273.304603 
L 108.773472 273.50768 
L 109.033247 273.398071 
L 109.098191 273.499377 
L 109.163135 273.400284 
L 109.487854 273.398863 
L 109.617742 273.508937 
L 109.812574 273.215935 
L 109.877518 273.249072 
L 109.942462 273.457455 
L 110.007406 273.372306 
L 110.526957 272.898245 
L 110.656845 273.040615 
L 110.786732 273.118327 
L 111.111452 272.810035 
L 111.24134 272.549092 
L 111.501115 272.637777 
L 111.695947 272.904393 
L 111.825835 272.942706 
L 111.890779 272.922721 
L 112.08561 273.120679 
L 112.280442 273.384682 
L 112.475274 273.297019 
L 112.799993 273.095958 
L 112.929881 273.301337 
L 112.994825 273.334458 
L 113.189657 273.122834 
L 113.319544 273.040999 
L 113.709208 272.996743 
L 113.968983 273.275286 
L 114.033927 273.205575 
L 114.163815 273.262298 
L 114.423591 273.499589 
L 114.553478 273.371743 
L 114.618422 273.185639 
L 114.683366 273.294757 
L 114.878198 273.302039 
L 115.332805 273.327176 
L 115.657525 273.908526 
L 116.177076 273.712103 
L 116.24202 273.942872 
L 116.306964 273.864882 
L 116.566739 273.971527 
L 116.826515 273.878924 
L 117.021347 273.879781 
L 117.930561 273.431902 
L 118.060449 273.484119 
L 118.255281 273.378282 
L 118.320225 273.445969 
L 118.385168 273.286463 
L 118.450112 273.344606 
L 119.099551 273.315363 
L 119.489215 273.448516 
L 119.684046 273.229805 
L 119.813934 273.173556 
L 120.008766 273.073091 
L 120.333485 272.868757 
L 120.463373 272.861475 
L 120.593261 272.975468 
L 120.658205 272.840004 
L 120.723149 272.876244 
L 121.177756 272.712615 
L 121.502476 272.932297 
L 121.632363 272.692785 
L 122.086971 273.073198 
L 122.346746 272.978047 
L 122.541578 273.007976 
L 122.671466 272.983934 
L 122.931241 273.030729 
L 122.996185 272.802173 
L 123.061129 272.828616 
L 123.255961 272.651051 
L 123.58068 272.410812 
L 123.710568 272.48294 
L 123.840456 272.433361 
L 124.165175 272.705921 
L 124.295063 272.736282 
L 124.554839 272.922811 
L 124.684727 272.895094 
L 125.009446 272.800091 
L 125.204278 272.782865 
L 125.334165 272.817203 
L 125.723829 273.070544 
L 126.178436 272.703716 
L 126.5681 272.894204 
L 126.633043 272.803283 
L 126.697987 272.903438 
L 126.892819 273.163711 
L 127.347426 273.170078 
L 127.542258 273.091876 
L 128.646304 272.704149 
L 128.841136 272.800662 
L 128.90608 272.785388 
L 129.100912 273.0036 
L 129.815294 273.097706 
L 129.945182 273.028664 
L 130.07507 273.207469 
L 130.269902 273.169646 
L 130.39979 273.200546 
L 130.919341 272.812794 
L 131.179116 272.737294 
L 131.309004 272.753287 
L 131.373948 272.975696 
L 131.438892 272.931913 
L 131.698667 273.055294 
L 131.828555 273.054265 
L 131.958443 273.059205 
L 132.088331 273.070299 
L 132.283163 272.808173 
L 132.348106 272.881754 
L 132.542938 272.998498 
L 132.802714 273.056608 
L 133.387209 273.190104 
L 133.452153 273.079386 
L 133.517097 273.160616 
L 133.90676 273.066136 
L 134.23148 273.324841 
L 134.621143 273.662785 
L 134.751031 273.608634 
L 134.880918 273.510121 
L 135.010806 273.503116 
L 135.465414 273.377204 
L 135.595301 273.417493 
L 135.725189 273.424106 
L 135.984965 273.652466 
L 136.179796 273.673994 
L 136.504516 273.765283 
L 136.634404 273.783382 
L 136.764292 273.788542 
L 137.089011 273.477481 
L 137.348787 273.444956 
L 137.608562 273.293484 
L 137.803394 273.290259 
L 137.933282 273.367922 
L 138.063169 273.306228 
L 138.322945 273.260942 
L 138.647665 273.298317 
L 139.037328 273.091444 
L 139.297104 273.244892 
L 139.491935 273.087835 
L 139.686767 273.26967 
L 140.141374 272.846135 
L 140.855757 272.66884 
L 141.050589 272.582434 
L 141.24542 272.560938 
L 141.700028 272.88044 
L 141.959803 272.87813 
L 142.089691 272.750071 
L 142.284523 272.742299 
L 142.479355 272.818999 
L 142.869018 273.051049 
L 144.102952 272.88849 
L 144.297784 273.048739 
L 144.752391 273.185312 
L 145.012167 273.189002 
L 145.07711 273.259938 
L 145.142054 273.197934 
L 145.336886 273.154167 
L 145.726549 273.125585 
L 145.986325 273.012711 
L 146.311045 273.321886 
L 146.440932 273.372877 
L 146.635764 273.337528 
L 147.090371 273.651421 
L 147.415091 273.666777 
L 147.674866 273.656164 
L 147.934642 273.560745 
L 148.259361 273.344712 
L 148.519137 273.146836 
L 148.713969 273.110792 
L 148.9088 273.018744 
L 149.103632 272.987142 
L 149.23352 273.079802 
L 149.493296 272.92717 
L 149.882959 273.058935 
L 150.012847 273.0747 
L 150.337566 273.223633 
L 150.467454 273.070454 
L 150.532398 273.132671 
L 150.857117 273.077933 
L 151.181837 273.4296 
L 151.701388 273.365375 
L 152.935322 273.255587 
L 153.06521 273.285344 
L 153.324985 273.05158 
L 153.649705 273.217951 
L 153.909481 273.208122 
L 154.2342 272.854814 
L 154.55892 272.826232 
L 155.922741 273.581179 
L 156.312405 273.783211 
L 156.507236 273.683007 
L 156.702068 273.810788 
L 156.961844 273.728839 
L 157.091732 273.69122 
L 158.130834 273.360493 
L 158.39061 273.350215 
L 158.585441 273.447708 
L 158.715329 273.271637 
L 158.910161 273.314465 
L 159.23488 273.217315 
L 159.364768 273.231552 
L 159.689487 273.251881 
L 159.884319 273.078822 
L 160.40387 273.088031 
L 160.663646 272.944902 
L 161.378029 272.916002 
L 161.637804 272.68609 
L 161.89758 272.621743 
L 162.157356 272.638234 
L 162.352187 272.593855 
L 162.547019 272.639262 
L 162.676907 272.609709 
L 162.871738 272.593667 
L 163.261402 272.436161 
L 164.040729 272.646879 
L 164.23556 272.779347 
L 164.690168 272.853581 
L 165.209719 273.168895 
L 165.469494 273.281173 
L 165.599382 273.345945 
L 166.053989 273.231283 
L 166.313765 273.310211 
L 166.638485 273.339332 
L 166.963204 273.335503 
L 167.158036 273.285116 
L 167.482755 273.250689 
L 167.872419 273.232891 
L 168.132194 273.205714 
L 168.327026 273.251815 
L 168.976465 273.395655 
L 169.23624 273.351415 
L 169.690848 273.526865 
L 169.950623 273.515876 
L 170.080511 273.493254 
L 170.72995 273.537217 
L 171.314445 273.325902 
L 172.028828 273.366077 
L 172.353548 273.24099 
L 172.678267 273.352566 
L 173.717369 273.437682 
L 173.912201 273.440744 
L 174.107033 273.438801 
L 175.795574 273.136753 
L 175.990406 273.226123 
L 176.380069 273.144819 
L 176.574901 273.203077 
L 177.22434 273.232067 
L 177.614003 273.350974 
L 180.666366 273.314547 
L 180.926142 273.428245 
L 181.250862 273.464378 
L 181.510637 273.469383 
L 181.770413 273.422008 
L 182.160076 273.349586 
L 182.289964 273.355717 
L 182.484796 273.384111 
L 182.679627 273.33365 
L 182.874459 273.255897 
L 183.134235 273.243243 
L 183.523898 273.199085 
L 183.71873 273.187574 
L 183.913561 273.173279 
L 184.043449 273.209657 
L 184.368169 273.166617 
L 184.563 273.213249 
L 184.952664 273.12156 
L 185.212439 273.169801 
L 185.407271 273.095354 
L 185.602103 273.090627 
L 186.121654 273.070291 
L 186.381429 273.032974 
L 186.576261 272.968577 
L 187.2257 273.049539 
L 190.472895 273.027553 
L 190.602783 273.057915 
L 190.927502 272.971435 
L 191.122334 273.030109 
L 191.317166 273.118099 
L 191.511997 273.122018 
L 192.096493 273.221576 
L 192.356268 273.164168 
L 192.680988 273.273637 
L 194.239641 273.36344 
L 194.499417 273.312661 
L 195.2138 273.279034 
L 195.603463 273.176307 
L 196.123014 273.30835 
L 196.512678 273.313306 
L 196.707509 273.20182 
L 196.902341 273.125716 
L 197.356948 273.244958 
L 197.746612 273.135668 
L 198.915602 273.079182 
L 199.04549 273.071255 
L 199.500097 273.077916 
L 199.954704 273.104988 
L 200.344368 273.106906 
L 200.604143 273.167939 
L 200.993807 273.214963 
L 201.253582 273.273588 
L 201.903021 273.219494 
L 202.357628 273.132892 
L 202.487516 273.142003 
L 202.682348 273.218849 
L 202.87718 273.254403 
L 203.981226 273.175409 
L 204.370889 273.147358 
L 205.409992 273.052159 
L 205.669767 273.034639 
L 206.189318 272.921823 
L 206.643926 272.949613 
L 207.812916 273.010499 
L 208.527299 273.176528 
L 208.787074 273.122507 
L 209.826177 273.202922 
L 210.345728 273.11876 
L 210.540559 273.174373 
L 211.060111 273.224834 
L 211.449774 273.176463 
L 213.073372 273.131684 
L 213.398091 273.156183 
L 213.657867 273.073744 
L 214.242362 273.110825 
L 214.632025 273.111151 
L 215.736071 273.249211 
L 216.060791 273.289075 
L 217.684388 273.200644 
L 218.074052 273.182496 
L 218.463715 273.1867 
L 218.918322 273.164674 
L 220.671808 273.020279 
L 221.451134 273.004898 
L 222.620125 273.041758 
L 223.659227 273.16914 
L 223.983946 273.181222 
L 224.308666 273.225895 
L 225.412712 273.135831 
L 226.516758 273.140525 
L 226.71159 273.15153 
L 232.556541 273.253685 
L 232.751373 273.266502 
L 233.20598 273.292275 
L 234.050251 273.2654 
L 234.37497 273.252044 
L 236.972726 273.204024 
L 237.362389 273.225005 
L 237.816997 273.239373 
L 238.661267 273.286357 
L 239.180818 273.251513 
L 239.505538 273.308285 
L 239.830257 273.270404 
L 242.492957 273.206285 
L 242.882621 273.215755 
L 243.402172 273.192896 
L 244.960825 273.29341 
L 245.87004 273.25655 
L 246.584423 273.287932 
L 247.03903 273.334401 
L 247.298806 273.301843 
L 248.20802 273.308709 
L 249.37701 273.219421 
L 249.766674 273.263873 
L 250.805776 273.204963 
L 251.260383 273.193566 
L 251.909822 273.252811 
L 252.883981 273.221764 
L 253.468476 273.27216 
L 262.300846 273.190496 
L 262.755453 273.208702 
L 263.210061 273.214702 
L 265.87276 273.312808 
L 266.392312 273.27465 
L 269.574563 273.201534 
L 271.847599 273.220254 
L 272.432094 273.23783 
L 273.86086 273.213804 
L 274.445355 273.223103 
L 275.419513 273.192341 
L 277.757494 273.147048 
L 279.121316 273.151701 
L 280.939745 273.212482 
L 282.043791 273.164421 
L 312.307647 273.176111 
L 313.02203 273.178634 
L 327.439576 273.183598 
L 328.153959 273.190864 
L 329.322949 273.221103 
L 330.751714 273.237055 
L 340.298467 273.174217 
L 341.01285 273.189288 
L 356.599386 273.193982 
L 358.093095 273.17714 
L 359.911525 273.192635 
L 361.924785 273.167352 
L 386.538523 273.187255 
L 386.538523 273.187255 
" clip-path="url(#p10483909ac)" style="fill: none; stroke: #2ca02c; stroke-width: 1.2; stroke-linecap: round"/>
   </g>
   <g id="line2d_18">
    <path d="M 61.883977 34.511731 
L 386.538523 34.511731 
L 386.538523 34.511731 
" clip-path="url(#p10483909ac)" style="fill: none; stroke-dasharray: 4.44,1.92; stroke-dashoffset: 0; stroke: #d62728; stroke-width: 1.2"/>
   </g>
   <g id="line2d_19">
    <path d="M 61.883977 180.96762 
L 62.143753 144.642614 
L 62.273641 139.85553 
L 62.858136 90.455538 
L 63.052967 86.962064 
L 63.442631 50.250236 
L 63.572519 49.240632 
L 63.637463 49.79358 
L 63.897238 46.814431 
L 63.962182 46.874819 
L 64.157014 46.218516 
L 64.221958 46.12535 
L 64.286901 45.54093 
L 64.351845 46.066913 
L 64.416789 46.003871 
L 64.676565 39.55436 
L 64.806453 38.921438 
L 65.001284 37.460502 
L 65.196116 37.802847 
L 65.390948 37.266708 
L 65.455892 37.266063 
L 65.585779 35.507407 
L 65.780611 32.2845 
L 65.975443 34.018763 
L 66.170275 32.530323 
L 66.365106 33.676067 
L 66.559938 33.9254 
L 66.624882 34.892307 
L 66.689826 34.711697 
L 66.949601 35.912711 
L 67.144433 34.754019 
L 67.209377 34.79172 
L 67.339265 34.736948 
L 67.728928 35.517097 
L 67.793872 35.483233 
L 67.92376 34.210336 
L 68.053648 33.800958 
L 68.118591 34.051075 
L 68.313423 33.527705 
L 68.508255 33.66832 
L 68.573199 33.562891 
L 68.638143 33.634358 
L 68.703087 33.698428 
L 69.027806 33.164641 
L 69.157694 33.452311 
L 69.352526 32.811707 
L 69.482413 32.849392 
L 69.612301 32.640094 
L 69.937021 34.222819 
L 70.001965 34.04643 
L 70.066908 34.169337 
L 70.196796 34.091307 
L 70.391628 34.231881 
L 70.456572 34.131359 
L 70.58646 34.786176 
L 70.651403 34.664183 
L 70.716347 34.91101 
L 70.781291 34.785033 
L 70.846235 34.632769 
L 71.041067 32.876643 
L 71.170955 33.953533 
L 71.235899 33.902158 
L 71.300842 34.281321 
L 71.365786 34.119301 
L 71.625562 33.458328 
L 72.015225 33.397834 
L 72.339945 34.00579 
L 72.534777 34.502693 
L 72.59972 34.462862 
L 72.859496 35.050474 
L 72.92444 35.3447 
L 72.989384 34.569596 
L 73.054328 35.0436 
L 73.119272 35.198379 
L 73.314103 36.085843 
L 73.379047 36.082985 
L 73.898598 34.431308 
L 73.963542 34.552354 
L 74.028486 35.076264 
L 74.09343 34.90203 
L 74.223318 35.022847 
L 74.41815 33.782973 
L 74.677925 35.048335 
L 74.742869 35.099465 
L 74.937701 34.040789 
L 75.002645 34.314891 
L 75.067589 34.098099 
L 75.132532 34.217668 
L 75.197476 34.275509 
L 75.392308 33.911465 
L 75.522196 34.473165 
L 75.58714 34.416099 
L 75.652084 34.984199 
L 75.717028 34.763301 
L 75.781971 34.940792 
L 75.846915 34.886102 
L 75.976803 35.076623 
L 76.041747 34.945021 
L 76.171635 34.259108 
L 76.301523 34.635977 
L 76.366466 34.74739 
L 76.496354 34.5851 
L 76.561298 34.535129 
L 76.691186 34.805394 
L 76.821074 34.690814 
L 76.886018 34.775384 
L 76.950962 33.899039 
L 77.015905 34.114786 
L 77.080849 33.876874 
L 77.145793 33.906044 
L 77.275681 34.396424 
L 77.405569 34.414768 
L 77.600401 35.074198 
L 77.665344 35.104592 
L 77.730288 34.916758 
L 77.795232 34.069403 
L 77.860176 34.122632 
L 77.990064 34.150789 
L 78.24984 33.959672 
L 78.314783 33.626267 
L 78.444671 34.137351 
L 78.509615 34.029 
L 78.899279 34.873946 
L 79.029166 34.967276 
L 79.223998 33.844464 
L 79.288942 34.014648 
L 79.353886 33.778222 
L 79.41883 33.866555 
L 79.483774 33.908338 
L 79.548717 33.745615 
L 79.613661 33.849517 
L 80.133213 33.988989 
L 80.198156 34.152005 
L 80.2631 33.961664 
L 80.392988 34.709223 
L 80.58782 34.565678 
L 80.782652 34.764722 
L 80.977483 35.221262 
L 81.107371 35.599781 
L 81.561978 34.65806 
L 81.75681 34.844695 
L 82.016586 35.319466 
L 82.536137 33.587848 
L 82.666025 33.85951 
L 82.730968 33.716087 
L 82.795912 33.750946 
L 82.860856 33.739239 
L 83.055688 33.943263 
L 83.185576 33.823278 
L 83.315464 34.347506 
L 83.380407 34.2904 
L 83.640183 34.223072 
L 83.705127 34.196572 
L 83.899959 33.818739 
L 84.029846 34.25736 
L 84.09479 34.158177 
L 84.484454 35.869214 
L 84.614342 36.091116 
L 84.809173 36.750399 
L 85.004005 36.356859 
L 85.068949 36.419852 
L 85.198837 36.08394 
L 85.393668 35.62135 
L 85.523556 35.519718 
L 85.653444 35.086305 
L 85.718388 35.174932 
L 85.783332 35.392753 
L 85.848276 35.016422 
L 85.913219 35.163944 
L 85.978163 35.222348 
L 86.043107 34.692414 
L 86.108051 34.807313 
L 86.237939 34.80688 
L 86.367827 35.275609 
L 86.432771 35.051266 
L 86.692546 34.231644 
L 86.75749 34.712138 
L 86.822434 34.612383 
L 86.887378 33.814347 
L 86.952322 34.0595 
L 87.341985 34.323349 
L 87.406929 34.39862 
L 87.471873 33.831034 
L 87.536817 33.862041 
L 87.92648 34.191437 
L 87.991424 34.570111 
L 88.186256 33.501752 
L 88.316144 33.354279 
L 88.446032 33.504209 
L 88.575919 33.43253 
L 89.030527 34.527773 
L 89.160414 34.488268 
L 89.355246 35.357812 
L 89.485134 35.62153 
L 89.809853 35.128202 
L 90.134573 35.890162 
L 90.459292 35.41042 
L 90.58918 35.372156 
L 90.719068 35.309865 
L 90.9139 35.338504 
L 90.978844 34.891621 
L 91.173675 35.996064 
L 91.238619 35.781697 
L 91.303563 35.999909 
L 91.368507 35.83766 
L 91.563339 35.254359 
L 91.75817 35.101278 
L 91.888058 35.13066 
L 92.08289 33.547519 
L 92.147834 33.616928 
L 92.277721 33.522782 
L 92.342665 33.624627 
L 92.537497 33.29421 
L 92.862217 34.035711 
L 92.992104 33.90304 
L 93.057048 34.159826 
L 93.121992 33.974751 
L 93.446712 34.073902 
L 93.576599 34.276137 
L 93.706487 34.262063 
L 93.901319 34.624009 
L 93.966263 34.549905 
L 94.096151 34.278766 
L 94.290982 34.256773 
L 94.42087 34.542713 
L 94.550758 34.216868 
L 94.615702 34.594447 
L 94.680646 34.551734 
L 95.005365 34.609616 
L 95.200197 34.787327 
L 95.265141 34.671449 
L 95.459972 35.361118 
L 95.524916 35.422021 
L 95.58986 35.221793 
L 95.654804 35.250481 
L 95.719748 35.192354 
L 95.91458 35.536935 
L 95.979524 35.413326 
L 96.044468 35.455509 
L 96.174355 35.510664 
L 96.304243 34.961316 
L 96.564019 35.34048 
L 97.018626 34.963382 
L 97.148514 35.227255 
L 97.213458 35.056091 
L 97.473233 35.930516 
L 97.668065 35.72388 
L 97.733009 35.794441 
L 97.797953 35.656863 
L 97.927841 34.678756 
L 97.992784 34.620106 
L 98.447392 35.342121 
L 98.512336 35.2363 
L 98.901999 35.424111 
L 99.291662 35.055862 
L 99.356606 35.156082 
L 99.42155 35.042604 
L 99.616382 33.38242 
L 99.74627 33.426701 
L 99.811214 33.472133 
L 100.006045 34.159116 
L 100.330765 34.529773 
L 100.395709 34.534557 
L 100.525597 34.288367 
L 100.59054 34.479965 
L 100.785372 33.807375 
L 100.980204 34.253711 
L 101.045148 34.1278 
L 101.175035 34.06035 
L 101.239979 34.280758 
L 101.304923 34.115546 
L 101.369867 33.733802 
L 101.434811 33.760841 
L 101.499755 33.645706 
L 101.629643 33.88085 
L 101.824474 33.725491 
L 101.889418 33.651469 
L 101.954362 33.725132 
L 102.08425 34.318818 
L 102.149194 34.135343 
L 102.279082 34.380366 
L 102.40897 34.297168 
L 102.473913 34.032102 
L 102.733689 34.774959 
L 102.798633 34.667743 
L 102.928521 35.059977 
L 102.993465 34.858721 
L 103.058409 34.883661 
L 103.25324 34.958255 
L 103.383128 34.737266 
L 103.448072 34.895409 
L 103.513016 34.847846 
L 103.707848 34.20276 
L 103.772791 34.121799 
L 103.967623 34.445938 
L 104.097511 34.409282 
L 104.227399 34.545407 
L 104.357286 34.556885 
L 104.42223 34.781106 
L 104.487174 34.49017 
L 104.552118 34.523177 
L 105.071669 35.241207 
L 105.136613 35.258384 
L 105.331445 35.046384 
L 105.396389 35.018782 
L 105.526277 35.281169 
L 105.591221 35.202918 
L 105.656164 34.432933 
L 105.721108 34.60791 
L 105.786052 34.59599 
L 106.045828 34.898079 
L 106.305603 34.931395 
L 106.370547 35.170442 
L 106.435491 35.104421 
L 106.500435 35.175626 
L 106.695267 34.830318 
L 106.890098 34.909631 
L 107.214818 34.199152 
L 107.40965 34.074449 
L 107.474594 34.315251 
L 107.539537 34.203503 
L 107.734369 34.157663 
L 107.799313 34.32979 
L 107.864257 34.231603 
L 107.929201 34.260104 
L 108.124033 33.742758 
L 108.25392 33.662278 
L 108.513696 34.192458 
L 108.643584 34.554632 
L 108.773472 34.296539 
L 108.903359 34.281762 
L 108.968303 34.071657 
L 109.033247 34.112909 
L 109.098191 34.152438 
L 109.487854 34.901565 
L 109.617742 34.977285 
L 109.812574 34.527879 
L 109.942462 34.440632 
L 110.267181 35.368147 
L 110.591901 35.465403 
L 110.656845 35.645458 
L 110.786732 35.421784 
L 110.91662 35.403113 
L 111.111452 35.152841 
L 111.306284 34.74334 
L 111.436171 34.813313 
L 111.501115 34.955993 
L 111.695947 34.147719 
L 111.890779 34.380839 
L 112.020666 34.35069 
L 112.150554 34.291706 
L 112.215498 34.114019 
L 112.280442 34.208655 
L 112.41033 34.040993 
L 112.475274 34.093642 
L 112.670105 34.036789 
L 112.929881 34.941347 
L 112.994825 35.094151 
L 113.189657 34.128289 
L 113.2546 34.144454 
L 113.449432 34.512964 
L 113.514376 34.48101 
L 113.709208 34.212475 
L 113.904039 34.34429 
L 114.098871 34.041213 
L 114.488535 34.420108 
L 114.553478 34.364797 
L 114.618422 34.499118 
L 114.74831 34.184073 
L 114.878198 34.273117 
L 115.267861 35.178818 
L 115.397749 35.097596 
L 115.592581 34.024886 
L 115.787413 33.926005 
L 116.177076 34.823812 
L 116.24202 34.803035 
L 116.436851 34.456592 
L 116.501795 34.367899 
L 116.566739 34.418197 
L 116.631683 34.400849 
L 116.696627 34.498579 
L 116.761571 34.416336 
L 116.891459 34.464764 
L 116.956403 34.336779 
L 117.021347 34.397118 
L 117.346066 34.299543 
L 117.41101 34.463466 
L 117.475954 34.408719 
L 117.605842 34.344085 
L 117.865617 34.539978 
L 117.930561 34.509469 
L 118.125393 34.942098 
L 118.320225 34.942106 
L 118.450112 35.2921 
L 118.774832 35.452529 
L 118.969664 35.462228 
L 119.164495 35.218315 
L 119.229439 35.440953 
L 119.294383 35.32274 
L 119.424271 35.308387 
L 119.489215 35.346782 
L 119.619102 34.754035 
L 120.593261 34.271647 
L 120.723149 34.625609 
L 121.177756 34.845895 
L 121.372588 34.076873 
L 121.502476 34.28973 
L 121.697307 33.543976 
L 122.022027 33.166918 
L 122.151914 33.256166 
L 122.216858 33.177482 
L 122.281802 33.259235 
L 122.931241 33.603515 
L 123.061129 33.36655 
L 123.645624 34.166447 
L 123.710568 34.026184 
L 123.775512 33.962587 
L 124.035288 34.386954 
L 124.230119 34.155026 
L 124.295063 34.140266 
L 124.360007 34.383248 
L 124.424951 34.330623 
L 124.554839 34.464307 
L 124.74967 34.369745 
L 124.814614 34.286734 
L 124.879558 34.344853 
L 125.139334 34.437105 
L 125.399109 34.266577 
L 125.528997 34.425373 
L 125.723829 34.365197 
L 125.853717 34.161859 
L 126.048548 34.588414 
L 126.113492 34.554844 
L 126.24338 34.840058 
L 126.308324 34.701051 
L 126.373268 34.791793 
L 126.5681 34.747137 
L 126.633043 34.591402 
L 126.957763 35.238505 
L 127.217539 35.37089 
L 127.347426 35.297244 
L 127.477314 35.127247 
L 127.607202 35.296093 
L 127.73709 35.209041 
L 127.866978 35.81303 
L 127.996865 35.719815 
L 128.126753 35.82508 
L 128.256641 35.663116 
L 128.776192 36.005934 
L 128.90608 36.097182 
L 129.100912 35.445247 
L 129.360687 35.457974 
L 129.425631 35.487177 
L 129.685407 34.990641 
L 129.750351 34.980346 
L 129.880238 35.08246 
L 129.945182 35.057846 
L 130.07507 34.7758 
L 130.204958 34.879547 
L 130.269902 34.853381 
L 130.334846 35.044931 
L 130.39979 34.949127 
L 130.789453 35.060883 
L 130.854397 34.811533 
L 130.919341 34.846589 
L 131.114172 34.78478 
L 131.24406 34.909255 
L 131.309004 34.836768 
L 131.56878 34.008811 
L 131.763611 34.098826 
L 131.828555 34.07773 
L 132.023387 34.269525 
L 132.283163 33.880017 
L 132.41305 33.934969 
L 132.542938 33.983723 
L 132.802714 33.866016 
L 132.997545 33.796623 
L 133.192377 33.924421 
L 133.387209 34.121979 
L 133.452153 33.691448 
L 133.517097 33.781936 
L 134.101592 34.40182 
L 134.815975 34.608653 
L 134.945862 34.622107 
L 135.010806 34.757848 
L 135.07575 34.708105 
L 135.205638 34.670331 
L 135.270582 34.322451 
L 135.335526 34.365026 
L 135.530357 34.194392 
L 135.855077 34.459115 
L 135.984965 34.726139 
L 136.309684 34.456176 
L 136.439572 34.380227 
L 136.56946 34.59448 
L 136.699348 34.521642 
L 136.959123 34.001545 
L 137.024067 34.074261 
L 137.218899 34.597378 
L 137.478674 34.763285 
L 137.673506 34.925126 
L 137.868338 34.760599 
L 138.193057 34.761309 
L 138.517777 34.290555 
L 138.582721 34.493476 
L 138.647665 34.465874 
L 139.362047 34.397012 
L 139.491935 34.240527 
L 139.686767 34.306409 
L 139.816655 34.594047 
L 140.07643 34.785441 
L 140.206318 34.559343 
L 140.466094 34.60333 
L 140.790813 34.921648 
L 141.24542 34.381558 
L 141.310364 34.479769 
L 141.375308 34.507167 
L 141.57014 34.302262 
L 141.829916 34.242012 
L 142.154635 34.528197 
L 142.349467 34.672478 
L 142.544298 34.86664 
L 142.73913 35.111181 
L 142.869018 35.149739 
L 143.193737 35.690866 
L 143.258681 35.638666 
L 143.843176 35.474596 
L 144.038008 35.539278 
L 144.492615 35.48756 
L 144.687447 35.558398 
L 144.882279 35.545606 
L 145.012167 35.532649 
L 145.206998 34.705517 
L 145.596662 34.614563 
L 145.921381 34.193968 
L 145.986325 34.218019 
L 146.116213 34.015407 
L 146.246101 34.088776 
L 146.375988 34.116811 
L 146.440932 34.129563 
L 146.700708 34.413397 
L 146.89554 34.477761 
L 147.090371 34.043948 
L 147.220259 34.012305 
L 147.415091 34.449261 
L 147.73981 34.604897 
L 147.804754 34.52005 
L 147.869698 34.59577 
L 148.06453 34.625135 
L 148.324305 34.454584 
L 148.454193 34.125873 
L 148.649025 34.174252 
L 148.843857 33.845272 
L 148.973744 34.056692 
L 149.103632 33.998467 
L 149.428352 34.065656 
L 149.688127 34.031637 
L 149.753071 34.047246 
L 150.012847 34.485835 
L 150.207678 34.371255 
L 150.337566 34.244462 
L 150.467454 34.22735 
L 150.597342 34.414483 
L 150.922061 34.414083 
L 151.051949 34.430223 
L 151.311725 34.443538 
L 151.831276 34.350225 
L 151.961164 34.659554 
L 152.026108 34.625576 
L 152.545659 34.436566 
L 152.74049 34.573229 
L 153.06521 34.432745 
L 153.195098 34.559873 
L 153.389929 34.540631 
L 153.584761 34.4578 
L 153.649705 34.410531 
L 153.844537 34.564486 
L 153.909481 34.498465 
L 154.039368 34.091315 
L 154.299144 34.548436 
L 154.948583 34.794267 
L 155.143415 34.450085 
L 155.922741 34.381484 
L 156.117573 34.556265 
L 156.377349 34.578022 
L 156.702068 34.585336 
L 156.961844 34.903826 
L 157.026788 34.937282 
L 157.091732 34.773245 
L 157.156675 34.839895 
L 157.351507 34.793638 
L 157.481395 34.706929 
L 157.546339 34.650901 
L 157.871058 35.043967 
L 158.06589 35.014283 
L 158.260722 34.835747 
L 158.39061 34.861553 
L 158.585441 34.657105 
L 158.845217 34.419879 
L 159.040048 34.535431 
L 159.23488 34.652003 
L 159.429712 34.696276 
L 159.624544 34.675409 
L 159.689487 34.81337 
L 159.754431 34.779017 
L 159.949263 34.692079 
L 160.079151 34.590994 
L 160.273983 34.240298 
L 160.40387 34.327162 
L 160.598702 34.56242 
L 161.248141 34.364316 
L 161.442973 34.508457 
L 161.572861 34.226313 
L 161.702748 34.300466 
L 162.157356 34.594113 
L 162.936682 34.252095 
L 163.131514 34.33584 
L 163.196458 34.304482 
L 163.39129 34.538639 
L 163.586121 34.506253 
L 163.780953 34.299641 
L 164.040729 34.226076 
L 164.23556 34.36452 
L 164.755111 34.556085 
L 164.884999 34.573287 
L 165.014887 34.400808 
L 165.079831 34.476291 
L 165.339607 34.588006 
L 165.469494 34.642582 
L 165.664326 34.77331 
L 165.859158 34.698945 
L 166.053989 34.672674 
L 166.313765 34.717698 
L 166.703428 34.548721 
L 166.768372 34.524573 
L 167.093092 33.741346 
L 167.287924 33.80522 
L 167.677587 33.903668 
L 168.002306 34.261059 
L 168.197138 34.249139 
L 168.716689 34.221096 
L 168.846577 34.435162 
L 168.976465 34.451759 
L 169.171297 34.52423 
L 169.496016 34.66251 
L 169.690848 34.973791 
L 169.820736 35.150588 
L 170.275343 35.417277 
L 170.470175 35.375478 
L 170.794894 35.223752 
L 170.924782 35.185252 
L 170.989726 34.938833 
L 171.05467 35.050417 
L 171.963884 34.789042 
L 172.093772 34.728441 
L 172.158716 34.836327 
L 172.22366 34.748279 
L 172.353548 34.747308 
L 172.483435 34.903851 
L 173.002987 34.878706 
L 173.06793 34.950687 
L 173.132874 34.879383 
L 173.262762 34.846777 
L 173.717369 34.789499 
L 173.977145 34.737242 
L 174.107033 34.6417 
L 174.236921 34.72658 
L 174.88636 34.814489 
L 175.211079 34.945829 
L 175.665686 34.886233 
L 175.795574 35.109776 
L 175.990406 35.094796 
L 176.185238 35.048955 
L 176.380069 34.476577 
L 177.743891 34.836556 
L 178.068611 34.694773 
L 178.39333 34.580569 
L 179.107713 34.650925 
L 179.56232 34.568886 
L 179.822096 34.775563 
L 179.951984 34.698414 
L 180.211759 34.652925 
L 181.315805 34.603028 
L 181.510637 34.71057 
L 181.770413 34.625184 
L 182.030188 34.604734 
L 182.22502 34.645366 
L 182.54974 34.81902 
L 182.614683 34.753088 
L 182.744571 34.501787 
L 182.939403 34.629642 
L 183.39401 34.498954 
L 183.653786 34.512 
L 183.71873 34.463041 
L 183.783674 34.553138 
L 183.913561 34.535292 
L 184.043449 34.344126 
L 184.303225 34.411331 
L 184.368169 34.512327 
L 184.498056 34.431545 
L 184.692888 34.487802 
L 184.88772 34.607412 
L 185.212439 34.610832 
L 185.537159 34.976648 
L 185.602103 34.805786 
L 185.667047 34.83569 
L 185.861878 34.874632 
L 186.121654 34.887384 
L 186.381429 34.830433 
L 186.641205 34.705509 
L 187.095812 34.709746 
L 187.290644 34.856573 
L 187.55042 34.778739 
L 187.810195 34.63801 
L 188.005027 34.845601 
L 188.329746 34.912545 
L 188.849298 34.697418 
L 189.303905 34.658918 
L 189.498737 34.509453 
L 189.758512 34.588235 
L 190.213119 34.408343 
L 190.472895 34.53161 
L 190.667727 34.500603 
L 190.927502 34.463066 
L 191.576941 34.760705 
L 191.641885 34.747251 
L 191.836717 34.546958 
L 192.291324 34.439693 
L 192.356268 34.285379 
L 192.421212 34.377663 
L 192.680988 34.604832 
L 193.330427 34.613771 
L 195.733351 34.735609 
L 195.928182 34.762934 
L 196.05807 34.755717 
L 196.577621 34.556004 
L 196.642565 34.621502 
L 196.707509 34.418205 
L 196.772453 34.450698 
L 197.032229 34.37657 
L 198.201219 34.600946 
L 198.396051 34.406449 
L 198.460994 34.345898 
L 198.525938 34.425479 
L 199.88976 34.435341 
L 200.149536 34.41543 
L 200.344368 34.422687 
L 200.539199 34.309487 
L 200.928863 34.272847 
L 201.123694 34.431317 
L 201.448414 34.534949 
L 201.708189 34.602685 
L 202.032909 34.55624 
L 202.227741 34.58541 
L 202.487516 34.420687 
L 202.682348 34.508637 
L 202.87718 34.394604 
L 204.695609 34.743855 
L 205.020328 34.46047 
L 205.280104 34.468601 
L 205.539879 34.477573 
L 205.734711 34.558706 
L 205.994487 34.582242 
L 206.319206 34.674404 
L 206.643926 34.728074 
L 206.903701 34.708913 
L 207.358309 34.72262 
L 208.332467 34.517462 
L 208.527299 34.327235 
L 209.306625 34.587573 
L 209.566401 34.622817 
L 209.761233 34.677009 
L 210.021008 34.765448 
L 210.475616 34.712709 
L 210.670447 34.681548 
L 210.865279 34.684822 
L 211.514718 34.795548 
L 212.813596 34.840409 
L 213.073372 34.891172 
L 213.268203 34.875334 
L 213.463035 35.038987 
L 213.72281 35.033052 
L 213.917642 34.921615 
L 214.372249 34.992649 
L 214.632025 34.993539 
L 215.021688 34.876706 
L 215.151576 34.792258 
L 215.281464 34.802675 
L 215.476296 34.643814 
L 215.671127 34.58145 
L 215.865959 34.561531 
L 216.060791 34.705248 
L 216.775174 34.728384 
L 217.034949 34.776755 
L 217.229781 34.688601 
L 217.619444 34.659318 
L 217.814276 34.670061 
L 218.463715 34.744491 
L 218.723491 34.610498 
L 219.827537 34.569825 
L 220.022369 34.460829 
L 220.282144 34.43157 
L 220.866639 34.4293 
L 220.996527 34.480537 
L 222.230461 34.371149 
L 222.425293 34.443562 
L 222.620125 34.620711 
L 223.269563 34.604399 
L 223.464395 34.655734 
L 225.5426 34.713232 
L 227.490917 34.596652 
L 227.750692 34.645961 
L 228.270244 34.654444 
L 228.530019 34.550591 
L 228.789795 34.550322 
L 229.309346 34.573932 
L 229.439234 34.627462 
L 229.634065 34.505796 
L 230.023729 34.463711 
L 230.348448 34.636589 
L 230.608224 34.628956 
L 230.997887 34.723478 
L 232.556541 34.573883 
L 232.816316 34.7517 
L 233.141036 34.733348 
L 235.154297 34.711591 
L 235.349128 34.646296 
L 235.608904 34.681295 
L 235.803736 34.60048 
L 235.998567 34.57923 
L 239.245762 34.658044 
L 239.505538 34.670861 
L 240.674528 34.693957 
L 240.86936 34.689336 
L 241.129135 34.81355 
L 241.583743 34.774069 
L 242.882621 34.6746 
L 243.791835 34.640786 
L 246.324647 34.677482 
L 246.714311 34.703639 
L 246.909142 34.761978 
L 247.818357 34.641733 
L 248.143076 34.701419 
L 252.104654 34.5381 
L 252.36443 34.655693 
L 253.663308 34.769693 
L 253.923083 34.817468 
L 257.754773 34.537594 
L 258.014549 34.603705 
L 260.352529 34.658542 
L 260.612305 34.673498 
L 261.976127 34.696831 
L 263.275005 34.656534 
L 263.53478 34.732499 
L 267.821077 34.684699 
L 269.834338 34.596627 
L 271.977487 34.741699 
L 273.730972 34.710219 
L 275.939065 34.626654 
L 276.19884 34.557702 
L 279.381091 34.521715 
L 280.679969 34.610032 
L 282.628286 34.585247 
L 283.01795 34.669931 
L 284.381771 34.616767 
L 285.096154 34.664061 
L 285.745593 34.670306 
L 288.8629 34.578226 
L 289.966947 34.678307 
L 291.135937 34.688561 
L 291.980207 34.707591 
L 292.369871 34.65046 
L 298.799317 34.574054 
L 299.124036 34.571882 
L 300.942465 34.574634 
L 301.202241 34.576234 
L 307.242023 34.601501 
L 308.216182 34.627405 
L 309.580004 34.689434 
L 310.554162 34.671588 
L 316.723833 34.636385 
L 317.697991 34.620711 
L 318.02271 34.603289 
L 318.34743 34.615935 
L 326.530361 34.57327 
L 327.829239 34.601321 
L 332.635087 34.618474 
L 333.414414 34.609893 
L 334.193741 34.630752 
L 336.596665 34.664673 
L 338.544982 34.633626 
L 339.84386 34.646198 
L 358.287927 34.675547 
L 359.586805 34.668069 
L 379.199862 34.633667 
L 380.693572 34.642206 
L 386.538523 34.630336 
L 386.538523 34.630336 
" clip-path="url(#p10483909ac)" style="fill: none; stroke: #9467bd; stroke-width: 1.2; stroke-linecap: round"/>
   </g>
   <g id="line2d_20">
    <path d="M 61.883977 137.237203 
L 386.538523 137.237203 
L 386.538523 137.237203 
" clip-path="url(#p10483909ac)" style="fill: none; stroke-dasharray: 4.44,1.92; stroke-dashoffset: 0; stroke: #8c564b; stroke-width: 1.2"/>
   </g>
   <g id="patch_3">
    <path d="M 45.65125 274.2045 
L 45.65125 34.511731 
" style="fill: none; stroke: #262626; stroke-linejoin: miter; stroke-linecap: square"/>
   </g>
   <g id="patch_4">
    <path d="M 61.883977 286.3005 
L 386.603467 286.3005 
" style="fill: none; stroke: #262626; stroke-linejoin: miter; stroke-linecap: square"/>
   </g>
   <g id="text_17">
    <!-- SGD path -->
    <g style="fill: #262626" transform="translate(203.13475 14.1885) scale(0.096 -0.096)">
     <defs>
      <path id="ArialMT-53" d="M 288 1472 
L 859 1522 
Q 900 1178 1048 958 
Q 1197 738 1509 602 
Q 1822 466 2213 466 
Q 2559 466 2825 569 
Q 3091 672 3220 851 
Q 3350 1031 3350 1244 
Q 3350 1459 3225 1620 
Q 3100 1781 2813 1891 
Q 2628 1963 1997 2114 
Q 1366 2266 1113 2400 
Q 784 2572 623 2826 
Q 463 3081 463 3397 
Q 463 3744 659 4045 
Q 856 4347 1234 4503 
Q 1613 4659 2075 4659 
Q 2584 4659 2973 4495 
Q 3363 4331 3572 4012 
Q 3781 3694 3797 3291 
L 3216 3247 
Q 3169 3681 2898 3903 
Q 2628 4125 2100 4125 
Q 1550 4125 1298 3923 
Q 1047 3722 1047 3438 
Q 1047 3191 1225 3031 
Q 1400 2872 2139 2705 
Q 2878 2538 3153 2413 
Q 3553 2228 3743 1945 
Q 3934 1663 3934 1294 
Q 3934 928 3725 604 
Q 3516 281 3123 101 
Q 2731 -78 2241 -78 
Q 1619 -78 1198 103 
Q 778 284 539 648 
Q 300 1013 288 1472 
z
" transform="scale(0.015625)"/>
      <path id="ArialMT-47" d="M 2638 1797 
L 2638 2334 
L 4578 2338 
L 4578 638 
Q 4131 281 3656 101 
Q 3181 -78 2681 -78 
Q 2006 -78 1454 211 
Q 903 500 622 1047 
Q 341 1594 341 2269 
Q 341 2938 620 3517 
Q 900 4097 1425 4378 
Q 1950 4659 2634 4659 
Q 3131 4659 3532 4498 
Q 3934 4338 4162 4050 
Q 4391 3763 4509 3300 
L 3963 3150 
Q 3859 3500 3706 3700 
Q 3553 3900 3268 4020 
Q 2984 4141 2638 4141 
Q 2222 4141 1919 4014 
Q 1616 3888 1430 3681 
Q 1244 3475 1141 3228 
Q 966 2803 966 2306 
Q 966 1694 1177 1281 
Q 1388 869 1791 669 
Q 2194 469 2647 469 
Q 3041 469 3416 620 
Q 3791 772 3984 944 
L 3984 1797 
L 2638 1797 
z
" transform="scale(0.015625)"/>
      <path id="ArialMT-44" d="M 494 0 
L 494 4581 
L 2072 4581 
Q 2606 4581 2888 4516 
Q 3281 4425 3559 4188 
Q 3922 3881 4101 3404 
Q 4281 2928 4281 2316 
Q 4281 1794 4159 1391 
Q 4038 988 3847 723 
Q 3656 459 3429 307 
Q 3203 156 2883 78 
Q 2563 0 2147 0 
L 494 0 
z
M 1100 541 
L 2078 541 
Q 2531 541 2789 625 
Q 3047 709 3200 863 
Q 3416 1078 3536 1442 
Q 3656 1806 3656 2325 
Q 3656 3044 3420 3430 
Q 3184 3816 2847 3947 
Q 2603 4041 2063 4041 
L 1100 4041 
L 1100 541 
z
" transform="scale(0.015625)"/>
      <path id="ArialMT-70" d="M 422 -1272 
L 422 3319 
L 934 3319 
L 934 2888 
Q 1116 3141 1344 3267 
Q 1572 3394 1897 3394 
Q 2322 3394 2647 3175 
Q 2972 2956 3137 2557 
Q 3303 2159 3303 1684 
Q 3303 1175 3120 767 
Q 2938 359 2589 142 
Q 2241 -75 1856 -75 
Q 1575 -75 1351 44 
Q 1128 163 984 344 
L 984 -1272 
L 422 -1272 
z
M 931 1641 
Q 931 1000 1190 694 
Q 1450 388 1819 388 
Q 2194 388 2461 705 
Q 2728 1022 2728 1688 
Q 2728 2322 2467 2637 
Q 2206 2953 1844 2953 
Q 1484 2953 1207 2617 
Q 931 2281 931 1641 
z
" transform="scale(0.015625)"/>
      <path id="ArialMT-68" d="M 422 0 
L 422 4581 
L 984 4581 
L 984 2938 
Q 1378 3394 1978 3394 
Q 2347 3394 2619 3248 
Q 2891 3103 3008 2847 
Q 3125 2591 3125 2103 
L 3125 0 
L 2563 0 
L 2563 2103 
Q 2563 2525 2380 2717 
Q 2197 2909 1863 2909 
Q 1613 2909 1392 2779 
Q 1172 2650 1078 2428 
Q 984 2206 984 1816 
L 984 0 
L 422 0 
z
" transform="scale(0.015625)"/>
     </defs>
     <use xlink:href="#ArialMT-53"/>
     <use xlink:href="#ArialMT-47" x="66.699219"/>
     <use xlink:href="#ArialMT-44" x="144.482422"/>
     <use xlink:href="#ArialMT-20" x="216.699219"/>
     <use xlink:href="#ArialMT-70" x="244.482422"/>
     <use xlink:href="#ArialMT-61" x="300.097656"/>
     <use xlink:href="#ArialMT-74" x="355.712891"/>
     <use xlink:href="#ArialMT-68" x="383.496094"/>
    </g>
   </g>
   <g id="legend_1">
    <g id="line2d_21">
     <path d="M 53.57125 31.6395 
L 62.37125 31.6395 
L 71.17125 31.6395 
" style="fill: none; stroke: #1f77b4; stroke-width: 1.2; stroke-linecap: round"/>
    </g>
    <g id="text_18">
     <!-- $\theta_0$ -->
     <g style="fill: #262626" transform="translate(78.21125 34.7195) scale(0.088 -0.088)">
      <defs>
       <path id="DejaVuSans-30" d="M 2034 4250 
Q 1547 4250 1301 3770 
Q 1056 3291 1056 2328 
Q 1056 1369 1301 889 
Q 1547 409 2034 409 
Q 2525 409 2770 889 
Q 3016 1369 3016 2328 
Q 3016 3291 2770 3770 
Q 2525 4250 2034 4250 
z
M 2034 4750 
Q 2819 4750 3233 4129 
Q 3647 3509 3647 2328 
Q 3647 1150 3233 529 
Q 2819 -91 2034 -91 
Q 1250 -91 836 529 
Q 422 1150 422 2328 
Q 422 3509 836 4129 
Q 1250 4750 2034 4750 
z
" transform="scale(0.015625)"/>
      </defs>
      <use xlink:href="#DejaVuSans-Oblique-3b8" transform="translate(0 0.234375)"/>
      <use xlink:href="#DejaVuSans-30" transform="translate(61.181641 -16.171875) scale(0.7)"/>
     </g>
    </g>
    <g id="line2d_22">
     <path d="M 53.57125 44.087375 
L 62.37125 44.087375 
L 71.17125 44.087375 
" style="fill: none; stroke-dasharray: 4.44,1.92; stroke-dashoffset: 0; stroke: #ff7f0e; stroke-width: 1.2"/>
    </g>
    <g id="text_19">
     <!-- True value -->
     <g style="fill: #262626" transform="translate(78.21125 47.167375) scale(0.088 -0.088)">
      <defs>
       <path id="ArialMT-54" d="M 1659 0 
L 1659 4041 
L 150 4041 
L 150 4581 
L 3781 4581 
L 3781 4041 
L 2266 4041 
L 2266 0 
L 1659 0 
z
" transform="scale(0.015625)"/>
       <path id="ArialMT-75" d="M 2597 0 
L 2597 488 
Q 2209 -75 1544 -75 
Q 1250 -75 995 37 
Q 741 150 617 320 
Q 494 491 444 738 
Q 409 903 409 1263 
L 409 3319 
L 972 3319 
L 972 1478 
Q 972 1038 1006 884 
Q 1059 663 1231 536 
Q 1403 409 1656 409 
Q 1909 409 2131 539 
Q 2353 669 2445 892 
Q 2538 1116 2538 1541 
L 2538 3319 
L 3100 3319 
L 3100 0 
L 2597 0 
z
" transform="scale(0.015625)"/>
       <path id="ArialMT-76" d="M 1344 0 
L 81 3319 
L 675 3319 
L 1388 1331 
Q 1503 1009 1600 663 
Q 1675 925 1809 1294 
L 2547 3319 
L 3125 3319 
L 1869 0 
L 1344 0 
z
" transform="scale(0.015625)"/>
       <path id="ArialMT-6c" d="M 409 0 
L 409 4581 
L 972 4581 
L 972 0 
L 409 0 
z
" transform="scale(0.015625)"/>
      </defs>
      <use xlink:href="#ArialMT-54"/>
      <use xlink:href="#ArialMT-72" x="57.333984"/>
      <use xlink:href="#ArialMT-75" x="90.634766"/>
      <use xlink:href="#ArialMT-65" x="146.25"/>
      <use xlink:href="#ArialMT-20" x="201.865234"/>
      <use xlink:href="#ArialMT-76" x="229.648438"/>
      <use xlink:href="#ArialMT-61" x="279.648438"/>
      <use xlink:href="#ArialMT-6c" x="335.263672"/>
      <use xlink:href="#ArialMT-75" x="357.480469"/>
      <use xlink:href="#ArialMT-65" x="413.095703"/>
     </g>
    </g>
    <g id="line2d_23">
     <path d="M 53.57125 56.759375 
L 62.37125 56.759375 
L 71.17125 56.759375 
" style="fill: none; stroke: #2ca02c; stroke-width: 1.2; stroke-linecap: round"/>
    </g>
    <g id="text_20">
     <!-- $\theta_1$ -->
     <g style="fill: #262626" transform="translate(78.21125 59.839375) scale(0.088 -0.088)">
      <defs>
       <path id="DejaVuSans-31" d="M 794 531 
L 1825 531 
L 1825 4091 
L 703 3866 
L 703 4441 
L 1819 4666 
L 2450 4666 
L 2450 531 
L 3481 531 
L 3481 0 
L 794 0 
L 794 531 
z
" transform="scale(0.015625)"/>
      </defs>
      <use xlink:href="#DejaVuSans-Oblique-3b8" transform="translate(0 0.234375)"/>
      <use xlink:href="#DejaVuSans-31" transform="translate(61.181641 -16.171875) scale(0.7)"/>
     </g>
    </g>
    <g id="line2d_24">
     <path d="M 53.57125 69.20725 
L 62.37125 69.20725 
L 71.17125 69.20725 
" style="fill: none; stroke-dasharray: 4.44,1.92; stroke-dashoffset: 0; stroke: #d62728; stroke-width: 1.2"/>
    </g>
    <g id="text_21">
     <!-- True value -->
     <g style="fill: #262626" transform="translate(78.21125 72.28725) scale(0.088 -0.088)">
      <use xlink:href="#ArialMT-54"/>
      <use xlink:href="#ArialMT-72" x="57.333984"/>
      <use xlink:href="#ArialMT-75" x="90.634766"/>
      <use xlink:href="#ArialMT-65" x="146.25"/>
      <use xlink:href="#ArialMT-20" x="201.865234"/>
      <use xlink:href="#ArialMT-76" x="229.648438"/>
      <use xlink:href="#ArialMT-61" x="279.648438"/>
      <use xlink:href="#ArialMT-6c" x="335.263672"/>
      <use xlink:href="#ArialMT-75" x="357.480469"/>
      <use xlink:href="#ArialMT-65" x="413.095703"/>
     </g>
    </g>
    <g id="line2d_25">
     <path d="M 53.57125 81.87925 
L 62.37125 81.87925 
L 71.17125 81.87925 
" style="fill: none; stroke: #9467bd; stroke-width: 1.2; stroke-linecap: round"/>
    </g>
    <g id="text_22">
     <!-- $\theta_2$ -->
     <g style="fill: #262626" transform="translate(78.21125 84.95925) scale(0.088 -0.088)">
      <defs>
       <path id="DejaVuSans-32" d="M 1228 531 
L 3431 531 
L 3431 0 
L 469 0 
L 469 531 
Q 828 903 1448 1529 
Q 2069 2156 2228 2338 
Q 2531 2678 2651 2914 
Q 2772 3150 2772 3378 
Q 2772 3750 2511 3984 
Q 2250 4219 1831 4219 
Q 1534 4219 1204 4116 
Q 875 4013 500 3803 
L 500 4441 
Q 881 4594 1212 4672 
Q 1544 4750 1819 4750 
Q 2544 4750 2975 4387 
Q 3406 4025 3406 3419 
Q 3406 3131 3298 2873 
Q 3191 2616 2906 2266 
Q 2828 2175 2409 1742 
Q 1991 1309 1228 531 
z
" transform="scale(0.015625)"/>
      </defs>
      <use xlink:href="#DejaVuSans-Oblique-3b8" transform="translate(0 0.234375)"/>
      <use xlink:href="#DejaVuSans-32" transform="translate(61.181641 -16.171875) scale(0.7)"/>
     </g>
    </g>
    <g id="line2d_26">
     <path d="M 53.57125 94.327125 
L 62.37125 94.327125 
L 71.17125 94.327125 
" style="fill: none; stroke-dasharray: 4.44,1.92; stroke-dashoffset: 0; stroke: #8c564b; stroke-width: 1.2"/>
    </g>
    <g id="text_23">
     <!-- True value -->
     <g style="fill: #262626" transform="translate(78.21125 97.407125) scale(0.088 -0.088)">
      <use xlink:href="#ArialMT-54"/>
      <use xlink:href="#ArialMT-72" x="57.333984"/>
      <use xlink:href="#ArialMT-75" x="90.634766"/>
      <use xlink:href="#ArialMT-65" x="146.25"/>
      <use xlink:href="#ArialMT-20" x="201.865234"/>
      <use xlink:href="#ArialMT-76" x="229.648438"/>
      <use xlink:href="#ArialMT-61" x="279.648438"/>
      <use xlink:href="#ArialMT-6c" x="335.263672"/>
      <use xlink:href="#ArialMT-75" x="357.480469"/>
      <use xlink:href="#ArialMT-65" x="413.095703"/>
     </g>
    </g>
   </g>
  </g>
 </g>
 <defs>
  <clipPath id="p10483909ac">
   <rect x="45.65125" y="20.1885" width="357.12" height="266.112"/>
  </clipPath>
 </defs>
</svg>