<?xml version="1.0" encoding="utf-8" standalone="no"?>
<!DOCTYPE svg PUBLIC "-//W3C//DTD SVG 1.1//EN"
  "http://www.w3.org/Graphics/SVG/1.1/DTD/svg11.dtd">
<svg xmlns:xlink="http://www.w3.org/1999/xlink" width="382.354975pt" height="300.009312pt" viewBox="0 0 382.354975 300.009312" xmlns="http://www.w3.org/2000/svg" version="1.1">
 <metadata>
  <rdf:RDF xmlns:dc="http://purl.org/dc/elements/1.1/" xmlns:cc="http://creativecommons.org/ns#" xmlns:rdf="http://www.w3.org/1999/02/22-rdf-syntax-ns#">
   <cc:Work>
    <dc:type rdf:resource="http://purl.org/dc/dcmitype/StillImage"/>
    <dc:date>2024-10-22T07:04:39.864723</dc:date>
    <dc:format>image/svg+xml</dc:format>
    <dc:creator>
     <cc:Agent>
      <dc:title>Matplotlib v3.9.2, https://matplotlib.org/</dc:title>
     </cc:Agent>
    </dc:creator>
   </cc:Work>
  </rdf:RDF>
 </metadata>
 <defs>
  <style type="text/css">*{stroke-linejoin: round; stroke-linecap: butt}</style>
 </defs>
 <g id="figure_1">
  <g id="patch_1">
   <path d="M 0 300.009312 
L 382.354975 300.009312 
L 382.354975 0 
L 0 0 
z
" style="fill: #ffffff"/>
  </g>
  <g id="axes_1">
   <g id="patch_2">
    <path d="M 27.732 276.461437 
L 313.428 276.461437 
L 313.428 10.349437 
L 27.732 10.349437 
z
" style="fill: #ffffff"/>
   </g>
   <g id="matplotlib.axis_1">
    <g id="xtick_1">
     <g id="line2d_1">
      <defs>
       <path id="mf572fcf19b" d="M 0 0 
L 0 4.8 
" style="stroke: #262626"/>
      </defs>
      <g>
       <use xlink:href="#mf572fcf19b" x="27.732" y="276.461437" style="fill: #262626; stroke: #262626"/>
      </g>
     </g>
     <g id="text_1">
      <!-- 0.0 -->
      <g style="fill: #262626" transform="translate(21.616 291.060312) scale(0.088 -0.088)">
       <defs>
        <path id="ArialMT-30" d="M 266 2259 
Q 266 3072 433 3567 
Q 600 4063 929 4331 
Q 1259 4600 1759 4600 
Q 2128 4600 2406 4451 
Q 2684 4303 2865 4023 
Q 3047 3744 3150 3342 
Q 3253 2941 3253 2259 
Q 3253 1453 3087 958 
Q 2922 463 2592 192 
Q 2263 -78 1759 -78 
Q 1097 -78 719 397 
Q 266 969 266 2259 
z
M 844 2259 
Q 844 1131 1108 757 
Q 1372 384 1759 384 
Q 2147 384 2411 759 
Q 2675 1134 2675 2259 
Q 2675 3391 2411 3762 
Q 2147 4134 1753 4134 
Q 1366 4134 1134 3806 
Q 844 3388 844 2259 
z
" transform="scale(0.015625)"/>
        <path id="ArialMT-2e" d="M 581 0 
L 581 641 
L 1222 641 
L 1222 0 
L 581 0 
z
" transform="scale(0.015625)"/>
       </defs>
       <use xlink:href="#ArialMT-30"/>
       <use xlink:href="#ArialMT-2e" x="55.615234"/>
       <use xlink:href="#ArialMT-30" x="83.398438"/>
      </g>
     </g>
    </g>
    <g id="xtick_2">
     <g id="line2d_2">
      <g>
       <use xlink:href="#mf572fcf19b" x="84.8712" y="276.461437" style="fill: #262626; stroke: #262626"/>
      </g>
     </g>
     <g id="text_2">
      <!-- 0.2 -->
      <g style="fill: #262626" transform="translate(78.7552 291.060312) scale(0.088 -0.088)">
       <defs>
        <path id="ArialMT-32" d="M 3222 541 
L 3222 0 
L 194 0 
Q 188 203 259 391 
Q 375 700 629 1000 
Q 884 1300 1366 1694 
Q 2113 2306 2375 2664 
Q 2638 3022 2638 3341 
Q 2638 3675 2398 3904 
Q 2159 4134 1775 4134 
Q 1369 4134 1125 3890 
Q 881 3647 878 3216 
L 300 3275 
Q 359 3922 746 4261 
Q 1134 4600 1788 4600 
Q 2447 4600 2831 4234 
Q 3216 3869 3216 3328 
Q 3216 3053 3103 2787 
Q 2991 2522 2730 2228 
Q 2469 1934 1863 1422 
Q 1356 997 1212 845 
Q 1069 694 975 541 
L 3222 541 
z
" transform="scale(0.015625)"/>
       </defs>
       <use xlink:href="#ArialMT-30"/>
       <use xlink:href="#ArialMT-2e" x="55.615234"/>
       <use xlink:href="#ArialMT-32" x="83.398438"/>
      </g>
     </g>
    </g>
    <g id="xtick_3">
     <g id="line2d_3">
      <g>
       <use xlink:href="#mf572fcf19b" x="142.0104" y="276.461437" style="fill: #262626; stroke: #262626"/>
      </g>
     </g>
     <g id="text_3">
      <!-- 0.4 -->
      <g style="fill: #262626" transform="translate(135.8944 291.060312) scale(0.088 -0.088)">
       <defs>
        <path id="ArialMT-34" d="M 2069 0 
L 2069 1097 
L 81 1097 
L 81 1613 
L 2172 4581 
L 2631 4581 
L 2631 1613 
L 3250 1613 
L 3250 1097 
L 2631 1097 
L 2631 0 
L 2069 0 
z
M 2069 1613 
L 2069 3678 
L 634 1613 
L 2069 1613 
z
" transform="scale(0.015625)"/>
       </defs>
       <use xlink:href="#ArialMT-30"/>
       <use xlink:href="#ArialMT-2e" x="55.615234"/>
       <use xlink:href="#ArialMT-34" x="83.398438"/>
      </g>
     </g>
    </g>
    <g id="xtick_4">
     <g id="line2d_4">
      <g>
       <use xlink:href="#mf572fcf19b" x="199.1496" y="276.461437" style="fill: #262626; stroke: #262626"/>
      </g>
     </g>
     <g id="text_4">
      <!-- 0.6 -->
      <g style="fill: #262626" transform="translate(193.0336 291.060312) scale(0.088 -0.088)">
       <defs>
        <path id="ArialMT-36" d="M 3184 3459 
L 2625 3416 
Q 2550 3747 2413 3897 
Q 2184 4138 1850 4138 
Q 1581 4138 1378 3988 
Q 1113 3794 959 3422 
Q 806 3050 800 2363 
Q 1003 2672 1297 2822 
Q 1591 2972 1913 2972 
Q 2475 2972 2870 2558 
Q 3266 2144 3266 1488 
Q 3266 1056 3080 686 
Q 2894 316 2569 119 
Q 2244 -78 1831 -78 
Q 1128 -78 684 439 
Q 241 956 241 2144 
Q 241 3472 731 4075 
Q 1159 4600 1884 4600 
Q 2425 4600 2770 4297 
Q 3116 3994 3184 3459 
z
M 888 1484 
Q 888 1194 1011 928 
Q 1134 663 1356 523 
Q 1578 384 1822 384 
Q 2178 384 2434 671 
Q 2691 959 2691 1453 
Q 2691 1928 2437 2201 
Q 2184 2475 1800 2475 
Q 1419 2475 1153 2201 
Q 888 1928 888 1484 
z
" transform="scale(0.015625)"/>
       </defs>
       <use xlink:href="#ArialMT-30"/>
       <use xlink:href="#ArialMT-2e" x="55.615234"/>
       <use xlink:href="#ArialMT-36" x="83.398438"/>
      </g>
     </g>
    </g>
    <g id="xtick_5">
     <g id="line2d_5">
      <g>
       <use xlink:href="#mf572fcf19b" x="256.2888" y="276.461437" style="fill: #262626; stroke: #262626"/>
      </g>
     </g>
     <g id="text_5">
      <!-- 0.8 -->
      <g style="fill: #262626" transform="translate(250.1728 291.060312) scale(0.088 -0.088)">
       <defs>
        <path id="ArialMT-38" d="M 1131 2484 
Q 781 2613 612 2850 
Q 444 3088 444 3419 
Q 444 3919 803 4259 
Q 1163 4600 1759 4600 
Q 2359 4600 2725 4251 
Q 3091 3903 3091 3403 
Q 3091 3084 2923 2848 
Q 2756 2613 2416 2484 
Q 2838 2347 3058 2040 
Q 3278 1734 3278 1309 
Q 3278 722 2862 322 
Q 2447 -78 1769 -78 
Q 1091 -78 675 323 
Q 259 725 259 1325 
Q 259 1772 486 2073 
Q 713 2375 1131 2484 
z
M 1019 3438 
Q 1019 3113 1228 2906 
Q 1438 2700 1772 2700 
Q 2097 2700 2305 2904 
Q 2513 3109 2513 3406 
Q 2513 3716 2298 3927 
Q 2084 4138 1766 4138 
Q 1444 4138 1231 3931 
Q 1019 3725 1019 3438 
z
M 838 1322 
Q 838 1081 952 856 
Q 1066 631 1291 507 
Q 1516 384 1775 384 
Q 2178 384 2440 643 
Q 2703 903 2703 1303 
Q 2703 1709 2433 1975 
Q 2163 2241 1756 2241 
Q 1359 2241 1098 1978 
Q 838 1716 838 1322 
z
" transform="scale(0.015625)"/>
       </defs>
       <use xlink:href="#ArialMT-30"/>
       <use xlink:href="#ArialMT-2e" x="55.615234"/>
       <use xlink:href="#ArialMT-38" x="83.398438"/>
      </g>
     </g>
    </g>
    <g id="xtick_6">
     <g id="line2d_6">
      <g>
       <use xlink:href="#mf572fcf19b" x="313.428" y="276.461437" style="fill: #262626; stroke: #262626"/>
      </g>
     </g>
     <g id="text_6">
      <!-- 1.0 -->
      <g style="fill: #262626" transform="translate(307.312 291.060312) scale(0.088 -0.088)">
       <defs>
        <path id="ArialMT-31" d="M 2384 0 
L 1822 0 
L 1822 3584 
Q 1619 3391 1289 3197 
Q 959 3003 697 2906 
L 697 3450 
Q 1169 3672 1522 3987 
Q 1875 4303 2022 4600 
L 2384 4600 
L 2384 0 
z
" transform="scale(0.015625)"/>
       </defs>
       <use xlink:href="#ArialMT-31"/>
       <use xlink:href="#ArialMT-2e" x="55.615234"/>
       <use xlink:href="#ArialMT-30" x="83.398438"/>
      </g>
     </g>
    </g>
   </g>
   <g id="matplotlib.axis_2">
    <g id="ytick_1">
     <g id="line2d_7">
      <defs>
       <path id="m343f6de026" d="M 0 0 
L -4.8 0 
" style="stroke: #262626"/>
      </defs>
      <g>
       <use xlink:href="#m343f6de026" x="27.732" y="276.461437" style="fill: #262626; stroke: #262626"/>
      </g>
     </g>
     <g id="text_7">
      <!-- 0.0 -->
      <g style="fill: #262626" transform="translate(7.2 279.610875) scale(0.088 -0.088)">
       <use xlink:href="#ArialMT-30"/>
       <use xlink:href="#ArialMT-2e" x="55.615234"/>
       <use xlink:href="#ArialMT-30" x="83.398438"/>
      </g>
     </g>
    </g>
    <g id="ytick_2">
     <g id="line2d_8">
      <g>
       <use xlink:href="#m343f6de026" x="27.732" y="223.239037" style="fill: #262626; stroke: #262626"/>
      </g>
     </g>
     <g id="text_8">
      <!-- 0.2 -->
      <g style="fill: #262626" transform="translate(7.2 226.388475) scale(0.088 -0.088)">
       <use xlink:href="#ArialMT-30"/>
       <use xlink:href="#ArialMT-2e" x="55.615234"/>
       <use xlink:href="#ArialMT-32" x="83.398438"/>
      </g>
     </g>
    </g>
    <g id="ytick_3">
     <g id="line2d_9">
      <g>
       <use xlink:href="#m343f6de026" x="27.732" y="170.016637" style="fill: #262626; stroke: #262626"/>
      </g>
     </g>
     <g id="text_9">
      <!-- 0.4 -->
      <g style="fill: #262626" transform="translate(7.2 173.166075) scale(0.088 -0.088)">
       <use xlink:href="#ArialMT-30"/>
       <use xlink:href="#ArialMT-2e" x="55.615234"/>
       <use xlink:href="#ArialMT-34" x="83.398438"/>
      </g>
     </g>
    </g>
    <g id="ytick_4">
     <g id="line2d_10">
      <g>
       <use xlink:href="#m343f6de026" x="27.732" y="116.794237" style="fill: #262626; stroke: #262626"/>
      </g>
     </g>
     <g id="text_10">
      <!-- 0.6 -->
      <g style="fill: #262626" transform="translate(7.2 119.943675) scale(0.088 -0.088)">
       <use xlink:href="#ArialMT-30"/>
       <use xlink:href="#ArialMT-2e" x="55.615234"/>
       <use xlink:href="#ArialMT-36" x="83.398438"/>
      </g>
     </g>
    </g>
    <g id="ytick_5">
     <g id="line2d_11">
      <g>
       <use xlink:href="#m343f6de026" x="27.732" y="63.571837" style="fill: #262626; stroke: #262626"/>
      </g>
     </g>
     <g id="text_11">
      <!-- 0.8 -->
      <g style="fill: #262626" transform="translate(7.2 66.721275) scale(0.088 -0.088)">
       <use xlink:href="#ArialMT-30"/>
       <use xlink:href="#ArialMT-2e" x="55.615234"/>
       <use xlink:href="#ArialMT-38" x="83.398438"/>
      </g>
     </g>
    </g>
    <g id="ytick_6">
     <g id="line2d_12">
      <g>
       <use xlink:href="#m343f6de026" x="27.732" y="10.349437" style="fill: #262626; stroke: #262626"/>
      </g>
     </g>
     <g id="text_12">
      <!-- 1.0 -->
      <g style="fill: #262626" transform="translate(7.2 13.498875) scale(0.088 -0.088)">
       <use xlink:href="#ArialMT-31"/>
       <use xlink:href="#ArialMT-2e" x="55.615234"/>
       <use xlink:href="#ArialMT-30" x="83.398438"/>
      </g>
     </g>
    </g>
   </g>
   <g id="QuadContourSet_1">
    <path d="M 156.756 157.14029 
L 165.972 161.412031 
L 175.188 161.412031 
L 184.404 157.14029 
L 185.325642 156.281825 
L 189.911755 147.697567 
L 189.911755 139.113308 
L 185.325642 130.52905 
L 184.404 129.670585 
L 175.188 125.398844 
L 165.972 125.398844 
L 156.756 129.670585 
L 155.834358 130.52905 
L 151.248245 139.113308 
L 151.248245 147.697567 
L 155.834358 156.281825 
z
" clip-path="url(#p7bb8dbe0cf)" style="fill: #180f29"/>
    <path d="M 147.54 199.840224 
L 156.756 202.076928 
L 165.972 203.176741 
L 175.188 203.176741 
L 184.404 202.076928 
L 193.62 199.840224 
L 195.349977 199.203115 
L 202.836 195.96889 
L 211.802603 190.618857 
L 212.052 190.437582 
L 221.073384 182.034599 
L 221.268 181.802298 
L 227.011759 173.450341 
L 230.484 166.477473 
L 231.167996 164.866083 
L 233.569306 156.281825 
L 234.750057 147.697567 
L 234.750057 139.113308 
L 233.569306 130.52905 
L 231.167996 121.944792 
L 230.484 120.333402 
L 227.011759 113.360534 
L 221.268 105.008577 
L 221.073384 104.776276 
L 212.052 96.373293 
L 211.802603 96.192018 
L 202.836 90.841985 
L 195.349977 87.60776 
L 193.62 86.970651 
L 184.404 84.733947 
L 175.188 83.634134 
L 165.972 83.634134 
L 156.756 84.733947 
L 147.54 86.970651 
L 145.810023 87.60776 
L 138.324 90.841985 
L 129.357397 96.192018 
L 129.108 96.373293 
L 120.086616 104.776276 
L 119.892 105.008577 
L 114.148241 113.360534 
L 110.676 120.333402 
L 109.992004 121.944792 
L 107.590694 130.52905 
L 106.409943 139.113308 
L 106.409943 147.697567 
L 107.590694 156.281825 
L 109.992004 164.866083 
L 110.676 166.477473 
L 114.148241 173.450341 
L 119.892 181.802298 
L 120.086616 182.034599 
L 129.108 190.437582 
L 129.357397 190.618857 
L 138.324 195.96889 
L 145.810023 199.203115 
z
M 155.834358 156.281825 
L 151.248245 147.697567 
L 151.248245 139.113308 
L 155.834358 130.52905 
L 156.756 129.670585 
L 165.972 125.398844 
L 175.188 125.398844 
L 184.404 129.670585 
L 185.325642 130.52905 
L 189.911755 139.113308 
L 189.911755 147.697567 
L 185.325642 156.281825 
L 184.404 157.14029 
L 175.188 161.412031 
L 165.972 161.412031 
L 156.756 157.14029 
z
" clip-path="url(#p7bb8dbe0cf)" style="fill: #481c48"/>
    <path d="M 147.54 224.977339 
L 156.756 226.358827 
L 165.972 227.03812 
L 175.188 227.03812 
L 184.404 226.358827 
L 193.62 224.977339 
L 193.714637 224.955889 
L 202.836 222.660908 
L 212.052 219.444763 
L 218.802341 216.371631 
L 221.268 215.088816 
L 230.484 209.099409 
L 232.150806 207.787373 
L 239.7 200.755664 
L 241.108593 199.203115 
L 247.538779 190.618857 
L 248.916 188.322215 
L 252.215293 182.034599 
L 255.668124 173.450341 
L 258.132 164.954233 
L 258.155029 164.866083 
L 259.638185 156.281825 
L 260.367469 147.697567 
L 260.367469 139.113308 
L 259.638185 130.52905 
L 258.155029 121.944792 
L 258.132 121.856642 
L 255.668124 113.360534 
L 252.215293 104.776276 
L 248.916 98.48866 
L 247.538779 96.192018 
L 241.108593 87.60776 
L 239.7 86.055211 
L 232.150806 79.023502 
L 230.484 77.711466 
L 221.268 71.722059 
L 218.802341 70.439244 
L 212.052 67.366112 
L 202.836 64.149967 
L 193.714637 61.854986 
L 193.62 61.833536 
L 184.404 60.452048 
L 175.188 59.772755 
L 165.972 59.772755 
L 156.756 60.452048 
L 147.54 61.833536 
L 147.445363 61.854986 
L 138.324 64.149967 
L 129.108 67.366112 
L 122.357659 70.439244 
L 119.892 71.722059 
L 110.676 77.711466 
L 109.009194 79.023502 
L 101.46 86.055211 
L 100.051407 87.60776 
L 93.621221 96.192018 
L 92.244 98.48866 
L 88.944707 104.776276 
L 85.491876 113.360534 
L 83.028 121.856642 
L 83.004971 121.944792 
L 81.521815 130.52905 
L 80.792531 139.113308 
L 80.792531 147.697567 
L 81.521815 156.281825 
L 83.004971 164.866083 
L 83.028 164.954233 
L 85.491876 173.450341 
L 88.944707 182.034599 
L 92.244 188.322215 
L 93.621221 190.618857 
L 100.051407 199.203115 
L 101.46 200.755664 
L 109.009194 207.787373 
L 110.676 209.099409 
L 119.892 215.088816 
L 122.357659 216.371631 
L 129.108 219.444763 
L 138.324 222.660908 
L 147.445363 224.955889 
z
M 145.810023 199.203115 
L 138.324 195.96889 
L 129.357397 190.618857 
L 129.108 190.437582 
L 120.086616 182.034599 
L 119.892 181.802298 
L 114.148241 173.450341 
L 110.676 166.477473 
L 109.992004 164.866083 
L 107.590694 156.281825 
L 106.409943 147.697567 
L 106.409943 139.113308 
L 107.590694 130.52905 
L 109.992004 121.944792 
L 110.676 120.333402 
L 114.148241 113.360534 
L 119.892 105.008577 
L 120.086616 104.776276 
L 129.108 96.373293 
L 129.357397 96.192018 
L 138.324 90.841985 
L 145.810023 87.60776 
L 147.54 86.970651 
L 156.756 84.733947 
L 165.972 83.634134 
L 175.188 83.634134 
L 184.404 84.733947 
L 193.62 86.970651 
L 195.349977 87.60776 
L 202.836 90.841985 
L 211.802603 96.192018 
L 212.052 96.373293 
L 221.073384 104.776276 
L 221.268 105.008577 
L 227.011759 113.360534 
L 230.484 120.333402 
L 231.167996 121.944792 
L 233.569306 130.52905 
L 234.750057 139.113308 
L 234.750057 147.697567 
L 233.569306 156.281825 
L 231.167996 164.866083 
L 230.484 166.477473 
L 227.011759 173.450341 
L 221.268 181.802298 
L 221.073384 182.034599 
L 212.052 190.437582 
L 211.802603 190.618857 
L 202.836 195.96889 
L 195.349977 199.203115 
L 193.62 199.840224 
L 184.404 202.076928 
L 175.188 203.176741 
L 165.972 203.176741 
L 156.756 202.076928 
L 147.54 199.840224 
z
" clip-path="url(#p7bb8dbe0cf)" style="fill: #7b1f59"/>
    <path d="M 138.324 243.397783 
L 147.54 244.889189 
L 156.756 245.856065 
L 165.972 246.331489 
L 175.188 246.331489 
L 184.404 245.856065 
L 193.62 244.889189 
L 202.836 243.397783 
L 208.567382 242.124405 
L 212.052 241.278431 
L 221.268 238.381255 
L 230.484 234.669216 
L 232.79019 233.540147 
L 239.7 229.710383 
L 246.708829 224.955889 
L 248.916 223.223624 
L 256.272252 216.371631 
L 258.132 214.315758 
L 263.236392 207.787373 
L 267.348 201.35122 
L 268.560161 199.203115 
L 272.54538 190.618857 
L 275.655768 182.034599 
L 276.564 178.788846 
L 277.93109 173.450341 
L 279.532252 164.866083 
L 280.570284 156.281825 
L 281.080696 147.697567 
L 281.080696 139.113308 
L 280.570284 130.52905 
L 279.532252 121.944792 
L 277.93109 113.360534 
L 276.564 108.022029 
L 275.655768 104.776276 
L 272.54538 96.192018 
L 268.560161 87.60776 
L 267.348 85.459655 
L 263.236392 79.023502 
L 258.132 72.495117 
L 256.272252 70.439244 
L 248.916 63.587251 
L 246.708829 61.854986 
L 239.7 57.100492 
L 232.79019 53.270728 
L 230.484 52.141659 
L 221.268 48.42962 
L 212.052 45.532444 
L 208.567382 44.68647 
L 202.836 43.413092 
L 193.62 41.921686 
L 184.404 40.95481 
L 175.188 40.479386 
L 165.972 40.479386 
L 156.756 40.95481 
L 147.54 41.921686 
L 138.324 43.413092 
L 132.592618 44.68647 
L 129.108 45.532444 
L 119.892 48.42962 
L 110.676 52.141659 
L 108.36981 53.270728 
L 101.46 57.100492 
L 94.451171 61.854986 
L 92.244 63.587251 
L 84.887748 70.439244 
L 83.028 72.495117 
L 77.923608 79.023502 
L 73.812 85.459655 
L 72.599839 87.60776 
L 68.61462 96.192018 
L 65.504232 104.776276 
L 64.596 108.022029 
L 63.22891 113.360534 
L 61.627748 121.944792 
L 60.589716 130.52905 
L 60.079304 139.113308 
L 60.079304 147.697567 
L 60.589716 156.281825 
L 61.627748 164.866083 
L 63.22891 173.450341 
L 64.596 178.788846 
L 65.504232 182.034599 
L 68.61462 190.618857 
L 72.599839 199.203115 
L 73.812 201.35122 
L 77.923608 207.787373 
L 83.028 214.315758 
L 84.887748 216.371631 
L 92.244 223.223624 
L 94.451171 224.955889 
L 101.46 229.710383 
L 108.36981 233.540147 
L 110.676 234.669216 
L 119.892 238.381255 
L 129.108 241.278431 
L 132.592618 242.124405 
z
M 147.445363 224.955889 
L 138.324 222.660908 
L 129.108 219.444763 
L 122.357659 216.371631 
L 119.892 215.088816 
L 110.676 209.099409 
L 109.009194 207.787373 
L 101.46 200.755664 
L 100.051407 199.203115 
L 93.621221 190.618857 
L 92.244 188.322215 
L 88.944707 182.034599 
L 85.491876 173.450341 
L 83.028 164.954233 
L 83.004971 164.866083 
L 81.521815 156.281825 
L 80.792531 147.697567 
L 80.792531 139.113308 
L 81.521815 130.52905 
L 83.004971 121.944792 
L 83.028 121.856642 
L 85.491876 113.360534 
L 88.944707 104.776276 
L 92.244 98.48866 
L 93.621221 96.192018 
L 100.051407 87.60776 
L 101.46 86.055211 
L 109.009194 79.023502 
L 110.676 77.711466 
L 119.892 71.722059 
L 122.357659 70.439244 
L 129.108 67.366112 
L 138.324 64.149967 
L 147.445363 61.854986 
L 147.54 61.833536 
L 156.756 60.452048 
L 165.972 59.772755 
L 175.188 59.772755 
L 184.404 60.452048 
L 193.62 61.833536 
L 193.714637 61.854986 
L 202.836 64.149967 
L 212.052 67.366112 
L 218.802341 70.439244 
L 221.268 71.722059 
L 230.484 77.711466 
L 232.150806 79.023502 
L 239.7 86.055211 
L 241.108593 87.60776 
L 247.538779 96.192018 
L 248.916 98.48866 
L 252.215293 104.776276 
L 255.668124 113.360534 
L 258.132 121.856642 
L 258.155029 121.944792 
L 259.638185 130.52905 
L 260.367469 139.113308 
L 260.367469 147.697567 
L 259.638185 156.281825 
L 258.155029 164.866083 
L 258.132 164.954233 
L 255.668124 173.450341 
L 252.215293 182.034599 
L 248.916 188.322215 
L 247.538779 190.618857 
L 241.108593 199.203115 
L 239.7 200.755664 
L 232.150806 207.787373 
L 230.484 209.099409 
L 221.268 215.088816 
L 218.802341 216.371631 
L 212.052 219.444763 
L 202.836 222.660908 
L 193.714637 224.955889 
L 193.62 224.977339 
L 184.404 226.358827 
L 175.188 227.03812 
L 165.972 227.03812 
L 156.756 226.358827 
L 147.54 224.977339 
z
" clip-path="url(#p7bb8dbe0cf)" style="fill: #b21758"/>
    <path d="M 129.108 260.054091 
L 138.324 261.48617 
L 147.54 262.518465 
L 156.756 263.187702 
L 165.972 263.516772 
L 175.188 263.516772 
L 184.404 263.187702 
L 193.62 262.518465 
L 202.836 261.48617 
L 212.052 260.054091 
L 215.849113 259.292921 
L 221.268 258.132353 
L 230.484 255.639066 
L 239.7 252.487815 
L 243.975451 250.708663 
L 248.916 248.412671 
L 258.132 243.156773 
L 259.658382 242.124405 
L 267.348 236.100818 
L 270.097119 233.540147 
L 276.564 226.37764 
L 277.672343 224.955889 
L 283.315039 216.371631 
L 285.78 211.769749 
L 287.690085 207.787373 
L 291.073246 199.203115 
L 293.750022 190.618857 
L 294.996 185.571426 
L 295.813186 182.034599 
L 297.350656 173.450341 
L 298.458922 164.866083 
L 299.177409 156.281825 
L 299.530697 147.697567 
L 299.530697 139.113308 
L 299.177409 130.52905 
L 298.458922 121.944792 
L 297.350656 113.360534 
L 295.813186 104.776276 
L 294.996 101.239449 
L 293.750022 96.192018 
L 291.073246 87.60776 
L 287.690085 79.023502 
L 285.78 75.041126 
L 283.315039 70.439244 
L 277.672343 61.854986 
L 276.564 60.433235 
L 270.097119 53.270728 
L 267.348 50.710057 
L 259.658382 44.68647 
L 258.132 43.654102 
L 248.916 38.398204 
L 243.975451 36.102212 
L 239.7 34.32306 
L 230.484 31.171809 
L 221.268 28.678522 
L 215.849113 27.517954 
L 212.052 26.756784 
L 202.836 25.324705 
L 193.62 24.29241 
L 184.404 23.623173 
L 175.188 23.294103 
L 165.972 23.294103 
L 156.756 23.623173 
L 147.54 24.29241 
L 138.324 25.324705 
L 129.108 26.756784 
L 125.310887 27.517954 
L 119.892 28.678522 
L 110.676 31.171809 
L 101.46 34.32306 
L 97.184549 36.102212 
L 92.244 38.398204 
L 83.028 43.654102 
L 81.501618 44.68647 
L 73.812 50.710057 
L 71.062881 53.270728 
L 64.596 60.433235 
L 63.487657 61.854986 
L 57.844961 70.439244 
L 55.38 75.041126 
L 53.469915 79.023502 
L 50.086754 87.60776 
L 47.409978 96.192018 
L 46.164 101.239449 
L 45.346814 104.776276 
L 43.809344 113.360534 
L 42.701078 121.944792 
L 41.982591 130.52905 
L 41.629303 139.113308 
L 41.629303 147.697567 
L 41.982591 156.281825 
L 42.701078 164.866083 
L 43.809344 173.450341 
L 45.346814 182.034599 
L 46.164 185.571426 
L 47.409978 190.618857 
L 50.086754 199.203115 
L 53.469915 207.787373 
L 55.38 211.769749 
L 57.844961 216.371631 
L 63.487657 224.955889 
L 64.596 226.37764 
L 71.062881 233.540147 
L 73.812 236.100818 
L 81.501618 242.124405 
L 83.028 243.156773 
L 92.244 248.412671 
L 97.184549 250.708663 
L 101.46 252.487815 
L 110.676 255.639066 
L 119.892 258.132353 
L 125.310887 259.292921 
z
M 132.592618 242.124405 
L 129.108 241.278431 
L 119.892 238.381255 
L 110.676 234.669216 
L 108.36981 233.540147 
L 101.46 229.710383 
L 94.451171 224.955889 
L 92.244 223.223624 
L 84.887748 216.371631 
L 83.028 214.315758 
L 77.923608 207.787373 
L 73.812 201.35122 
L 72.599839 199.203115 
L 68.61462 190.618857 
L 65.504232 182.034599 
L 64.596 178.788846 
L 63.22891 173.450341 
L 61.627748 164.866083 
L 60.589716 156.281825 
L 60.079304 147.697567 
L 60.079304 139.113308 
L 60.589716 130.52905 
L 61.627748 121.944792 
L 63.22891 113.360534 
L 64.596 108.022029 
L 65.504232 104.776276 
L 68.61462 96.192018 
L 72.599839 87.60776 
L 73.812 85.459655 
L 77.923608 79.023502 
L 83.028 72.495117 
L 84.887748 70.439244 
L 92.244 63.587251 
L 94.451171 61.854986 
L 101.46 57.100492 
L 108.36981 53.270728 
L 110.676 52.141659 
L 119.892 48.42962 
L 129.108 45.532444 
L 132.592618 44.68647 
L 138.324 43.413092 
L 147.54 41.921686 
L 156.756 40.95481 
L 165.972 40.479386 
L 175.188 40.479386 
L 184.404 40.95481 
L 193.62 41.921686 
L 202.836 43.413092 
L 208.567382 44.68647 
L 212.052 45.532444 
L 221.268 48.42962 
L 230.484 52.141659 
L 232.79019 53.270728 
L 239.7 57.100492 
L 246.708829 61.854986 
L 248.916 63.587251 
L 256.272252 70.439244 
L 258.132 72.495117 
L 263.236392 79.023502 
L 267.348 85.459655 
L 268.560161 87.60776 
L 272.54538 96.192018 
L 275.655768 104.776276 
L 276.564 108.022029 
L 277.93109 113.360534 
L 279.532252 121.944792 
L 280.570284 130.52905 
L 281.080696 139.113308 
L 281.080696 147.697567 
L 280.570284 156.281825 
L 279.532252 164.866083 
L 277.93109 173.450341 
L 276.564 178.788846 
L 275.655768 182.034599 
L 272.54538 190.618857 
L 268.560161 199.203115 
L 267.348 201.35122 
L 263.236392 207.787373 
L 258.132 214.315758 
L 256.272252 216.371631 
L 248.916 223.223624 
L 246.708829 224.955889 
L 239.7 229.710383 
L 232.79019 233.540147 
L 230.484 234.669216 
L 221.268 238.381255 
L 212.052 241.278431 
L 208.567382 242.124405 
L 202.836 243.397783 
L 193.62 244.889189 
L 184.404 245.856065 
L 175.188 246.331489 
L 165.972 246.331489 
L 156.756 245.856065 
L 147.54 244.889189 
L 138.324 243.397783 
z
" clip-path="url(#p7bb8dbe0cf)" style="fill: #df2f44"/>
    <path d="M 92.244 270.313593 
L 101.46 272.863914 
L 110.676 274.890557 
L 119.696532 276.461437 
L 119.892 276.461437 
L 129.108 276.461437 
L 138.324 276.461437 
L 147.54 276.461437 
L 156.756 276.461437 
L 165.972 276.461437 
L 175.188 276.461437 
L 184.404 276.461437 
L 193.62 276.461437 
L 202.836 276.461437 
L 212.052 276.461437 
L 221.268 276.461437 
L 221.463468 276.461437 
L 230.484 274.890557 
L 239.7 272.863914 
L 248.916 270.313593 
L 256.012674 267.877179 
L 258.132 267.091159 
L 267.348 262.970565 
L 273.893902 259.292921 
L 276.564 257.580803 
L 285.297144 250.708663 
L 285.78 250.258906 
L 293.157882 242.124405 
L 294.996 239.637338 
L 298.944293 233.540147 
L 303.368134 224.955889 
L 304.212 222.98184 
L 306.827717 216.371631 
L 309.565724 207.787373 
L 311.741513 199.203115 
L 313.428 190.800925 
L 313.428 190.618857 
L 313.428 182.034599 
L 313.428 173.450341 
L 313.428 164.866083 
L 313.428 156.281825 
L 313.428 147.697567 
L 313.428 139.113308 
L 313.428 130.52905 
L 313.428 121.944792 
L 313.428 113.360534 
L 313.428 104.776276 
L 313.428 96.192018 
L 313.428 96.00995 
L 311.741513 87.60776 
L 309.565724 79.023502 
L 306.827717 70.439244 
L 304.212 63.829035 
L 303.368134 61.854986 
L 298.944293 53.270728 
L 294.996 47.173537 
L 293.157882 44.68647 
L 285.78 36.551969 
L 285.297144 36.102212 
L 276.564 29.230072 
L 273.893902 27.517954 
L 267.348 23.84031 
L 258.132 19.719716 
L 256.012674 18.933696 
L 248.916 16.497282 
L 239.7 13.946961 
L 230.484 11.920318 
L 221.463468 10.349437 
L 221.268 10.349437 
L 212.052 10.349437 
L 202.836 10.349437 
L 193.62 10.349437 
L 184.404 10.349437 
L 175.188 10.349437 
L 165.972 10.349437 
L 156.756 10.349437 
L 147.54 10.349437 
L 138.324 10.349437 
L 129.108 10.349437 
L 119.892 10.349437 
L 119.696532 10.349437 
L 110.676 11.920318 
L 101.46 13.946961 
L 92.244 16.497282 
L 85.147326 18.933696 
L 83.028 19.719716 
L 73.812 23.84031 
L 67.266098 27.517954 
L 64.596 29.230072 
L 55.862856 36.102212 
L 55.38 36.551969 
L 48.002118 44.68647 
L 46.164 47.173537 
L 42.215707 53.270728 
L 37.791866 61.854986 
L 36.948 63.829035 
L 34.332283 70.439244 
L 31.594276 79.023502 
L 29.418487 87.60776 
L 27.732 96.00995 
L 27.732 96.192018 
L 27.732 104.776276 
L 27.732 113.360534 
L 27.732 121.944792 
L 27.732 130.52905 
L 27.732 139.113308 
L 27.732 147.697567 
L 27.732 156.281825 
L 27.732 164.866083 
L 27.732 173.450341 
L 27.732 182.034599 
L 27.732 190.618857 
L 27.732 190.800925 
L 29.418487 199.203115 
L 31.594276 207.787373 
L 34.332283 216.371631 
L 36.948 222.98184 
L 37.791866 224.955889 
L 42.215707 233.540147 
L 46.164 239.637338 
L 48.002118 242.124405 
L 55.38 250.258906 
L 55.862856 250.708663 
L 64.596 257.580803 
L 67.266098 259.292921 
L 73.812 262.970565 
L 83.028 267.091159 
L 85.147326 267.877179 
z
M 125.310887 259.292921 
L 119.892 258.132353 
L 110.676 255.639066 
L 101.46 252.487815 
L 97.184549 250.708663 
L 92.244 248.412671 
L 83.028 243.156773 
L 81.501618 242.124405 
L 73.812 236.100818 
L 71.062881 233.540147 
L 64.596 226.37764 
L 63.487657 224.955889 
L 57.844961 216.371631 
L 55.38 211.769749 
L 53.469915 207.787373 
L 50.086754 199.203115 
L 47.409978 190.618857 
L 46.164 185.571426 
L 45.346814 182.034599 
L 43.809344 173.450341 
L 42.701078 164.866083 
L 41.982591 156.281825 
L 41.629303 147.697567 
L 41.629303 139.113308 
L 41.982591 130.52905 
L 42.701078 121.944792 
L 43.809344 113.360534 
L 45.346814 104.776276 
L 46.164 101.239449 
L 47.409978 96.192018 
L 50.086754 87.60776 
L 53.469915 79.023502 
L 55.38 75.041126 
L 57.844961 70.439244 
L 63.487657 61.854986 
L 64.596 60.433235 
L 71.062881 53.270728 
L 73.812 50.710057 
L 81.501618 44.68647 
L 83.028 43.654102 
L 92.244 38.398204 
L 97.184549 36.102212 
L 101.46 34.32306 
L 110.676 31.171809 
L 119.892 28.678522 
L 125.310887 27.517954 
L 129.108 26.756784 
L 138.324 25.324705 
L 147.54 24.29241 
L 156.756 23.623173 
L 165.972 23.294103 
L 175.188 23.294103 
L 184.404 23.623173 
L 193.62 24.29241 
L 202.836 25.324705 
L 212.052 26.756784 
L 215.849113 27.517954 
L 221.268 28.678522 
L 230.484 31.171809 
L 239.7 34.32306 
L 243.975451 36.102212 
L 248.916 38.398204 
L 258.132 43.654102 
L 259.658382 44.68647 
L 267.348 50.710057 
L 270.097119 53.270728 
L 276.564 60.433235 
L 277.672343 61.854986 
L 283.315039 70.439244 
L 285.78 75.041126 
L 287.690085 79.023502 
L 291.073246 87.60776 
L 293.750022 96.192018 
L 294.996 101.239449 
L 295.813186 104.776276 
L 297.350656 113.360534 
L 298.458922 121.944792 
L 299.177409 130.52905 
L 299.530697 139.113308 
L 299.530697 147.697567 
L 299.177409 156.281825 
L 298.458922 164.866083 
L 297.350656 173.450341 
L 295.813186 182.034599 
L 294.996 185.571426 
L 293.750022 190.618857 
L 291.073246 199.203115 
L 287.690085 207.787373 
L 285.78 211.769749 
L 283.315039 216.371631 
L 277.672343 224.955889 
L 276.564 226.37764 
L 270.097119 233.540147 
L 267.348 236.100818 
L 259.658382 242.124405 
L 258.132 243.156773 
L 248.916 248.412671 
L 243.975451 250.708663 
L 239.7 252.487815 
L 230.484 255.639066 
L 221.268 258.132353 
L 215.849113 259.292921 
L 212.052 260.054091 
L 202.836 261.48617 
L 193.62 262.518465 
L 184.404 263.187702 
L 175.188 263.516772 
L 165.972 263.516772 
L 156.756 263.187702 
L 147.54 262.518465 
L 138.324 261.48617 
L 129.108 260.054091 
z
" clip-path="url(#p7bb8dbe0cf)" style="fill: #f26b49"/>
    <path d="M 36.948 270.224289 
L 45.253221 276.461437 
L 46.164 276.461437 
L 55.38 276.461437 
L 64.596 276.461437 
L 73.812 276.461437 
L 83.028 276.461437 
L 92.244 276.461437 
L 101.46 276.461437 
L 110.676 276.461437 
L 119.696532 276.461437 
L 110.676 274.890557 
L 101.46 272.863914 
L 92.244 270.313593 
L 85.147326 267.877179 
L 83.028 267.091159 
L 73.812 262.970565 
L 67.266098 259.292921 
L 64.596 257.580803 
L 55.862856 250.708663 
L 55.38 250.258906 
L 48.002118 242.124405 
L 46.164 239.637338 
L 42.215707 233.540147 
L 37.791866 224.955889 
L 36.948 222.98184 
L 34.332283 216.371631 
L 31.594276 207.787373 
L 29.418487 199.203115 
L 27.732 190.800925 
L 27.732 199.203115 
L 27.732 207.787373 
L 27.732 216.371631 
L 27.732 224.955889 
L 27.732 233.540147 
L 27.732 242.124405 
L 27.732 250.708663 
L 27.732 259.292921 
L 27.732 260.141268 
L 34.428159 267.877179 
z
M 230.484 276.461437 
L 239.7 276.461437 
L 248.916 276.461437 
L 258.132 276.461437 
L 267.348 276.461437 
L 276.564 276.461437 
L 285.78 276.461437 
L 294.996 276.461437 
L 295.906779 276.461437 
L 304.212 270.224289 
L 306.731841 267.877179 
L 313.428 260.141268 
L 313.428 259.292921 
L 313.428 250.708663 
L 313.428 242.124405 
L 313.428 233.540147 
L 313.428 224.955889 
L 313.428 216.371631 
L 313.428 207.787373 
L 313.428 199.203115 
L 313.428 190.800925 
L 311.741513 199.203115 
L 309.565724 207.787373 
L 306.827717 216.371631 
L 304.212 222.98184 
L 303.368134 224.955889 
L 298.944293 233.540147 
L 294.996 239.637338 
L 293.157882 242.124405 
L 285.78 250.258906 
L 285.297144 250.708663 
L 276.564 257.580803 
L 273.893902 259.292921 
L 267.348 262.970565 
L 258.132 267.091159 
L 256.012674 267.877179 
L 248.916 270.313593 
L 239.7 272.863914 
L 230.484 274.890557 
L 221.463468 276.461437 
z
M 29.418487 87.60776 
L 31.594276 79.023502 
L 34.332283 70.439244 
L 36.948 63.829035 
L 37.791866 61.854986 
L 42.215707 53.270728 
L 46.164 47.173537 
L 48.002118 44.68647 
L 55.38 36.551969 
L 55.862856 36.102212 
L 64.596 29.230072 
L 67.266098 27.517954 
L 73.812 23.84031 
L 83.028 19.719716 
L 85.147326 18.933696 
L 92.244 16.497282 
L 101.46 13.946961 
L 110.676 11.920318 
L 119.696532 10.349437 
L 110.676 10.349437 
L 101.46 10.349437 
L 92.244 10.349437 
L 83.028 10.349437 
L 73.812 10.349437 
L 64.596 10.349437 
L 55.38 10.349437 
L 46.164 10.349437 
L 45.253221 10.349437 
L 36.948 16.586586 
L 34.428159 18.933696 
L 27.732 26.669607 
L 27.732 27.517954 
L 27.732 36.102212 
L 27.732 44.68647 
L 27.732 53.270728 
L 27.732 61.854986 
L 27.732 70.439244 
L 27.732 79.023502 
L 27.732 87.60776 
L 27.732 96.00995 
z
M 313.428 96.00995 
L 313.428 87.60776 
L 313.428 79.023502 
L 313.428 70.439244 
L 313.428 61.854986 
L 313.428 53.270728 
L 313.428 44.68647 
L 313.428 36.102212 
L 313.428 27.517954 
L 313.428 26.669607 
L 306.731841 18.933696 
L 304.212 16.586586 
L 295.906779 10.349437 
L 294.996 10.349437 
L 285.78 10.349437 
L 276.564 10.349437 
L 267.348 10.349437 
L 258.132 10.349437 
L 248.916 10.349437 
L 239.7 10.349437 
L 230.484 10.349437 
L 221.463468 10.349437 
L 230.484 11.920318 
L 239.7 13.946961 
L 248.916 16.497282 
L 256.012674 18.933696 
L 258.132 19.719716 
L 267.348 23.84031 
L 273.893902 27.517954 
L 276.564 29.230072 
L 285.297144 36.102212 
L 285.78 36.551969 
L 293.157882 44.68647 
L 294.996 47.173537 
L 298.944293 53.270728 
L 303.368134 61.854986 
L 304.212 63.829035 
L 306.827717 70.439244 
L 309.565724 79.023502 
L 311.741513 87.60776 
z
" clip-path="url(#p7bb8dbe0cf)" style="fill: #f6a37a"/>
    <path d="M 36.948 276.461437 
L 45.253221 276.461437 
L 36.948 270.224289 
L 34.428159 267.877179 
L 27.732 260.141268 
L 27.732 267.877179 
L 27.732 276.461437 
z
M 304.212 276.461437 
L 313.428 276.461437 
L 313.428 267.877179 
L 313.428 260.141268 
L 306.731841 267.877179 
L 304.212 270.224289 
L 295.906779 276.461437 
z
M 34.428159 18.933696 
L 36.948 16.586586 
L 45.253221 10.349437 
L 36.948 10.349437 
L 27.732 10.349437 
L 27.732 18.933696 
L 27.732 26.669607 
z
M 313.428 26.669607 
L 313.428 18.933696 
L 313.428 10.349437 
L 304.212 10.349437 
L 295.906779 10.349437 
L 304.212 16.586586 
L 306.731841 18.933696 
z
" clip-path="url(#p7bb8dbe0cf)" style="fill: #f8d4bc"/>
   </g>
   <g id="patch_3">
    <path d="M 27.732 276.461437 
L 27.732 10.349437 
" style="fill: none; stroke: #262626; stroke-linejoin: miter; stroke-linecap: square"/>
   </g>
   <g id="patch_4">
    <path d="M 313.428 276.461437 
L 313.428 10.349437 
" style="fill: none; stroke: #262626; stroke-linejoin: miter; stroke-linecap: square"/>
   </g>
   <g id="patch_5">
    <path d="M 27.732 276.461437 
L 313.428 276.461437 
" style="fill: none; stroke: #262626; stroke-linejoin: miter; stroke-linecap: square"/>
   </g>
   <g id="patch_6">
    <path d="M 27.732 10.349437 
L 313.428 10.349437 
" style="fill: none; stroke: #262626; stroke-linejoin: miter; stroke-linecap: square"/>
   </g>
  </g>
  <g id="axes_2">
   <g id="patch_7">
    <path d="M 331.284 276.461437 
L 344.5896 276.461437 
L 344.5896 10.349437 
L 331.284 10.349437 
z
" style="fill: #ffffff"/>
   </g>
   <g id="matplotlib.axis_3"/>
   <g id="matplotlib.axis_4">
    <g id="ytick_7">
     <g id="line2d_13">
      <defs>
       <path id="mdc46bac3b5" d="M 0 0 
L 4.8 0 
" style="stroke: #262626"/>
      </defs>
      <g>
       <use xlink:href="#mdc46bac3b5" x="344.5896" y="276.461437" style="fill: #262626; stroke: #262626"/>
      </g>
     </g>
     <g id="text_13">
      <!-- −2.00 -->
      <g style="fill: #262626" transform="translate(352.8896 279.610875) scale(0.088 -0.088)">
       <defs>
        <path id="ArialMT-2212" d="M 3381 1997 
L 356 1997 
L 356 2522 
L 3381 2522 
L 3381 1997 
z
" transform="scale(0.015625)"/>
       </defs>
       <use xlink:href="#ArialMT-2212"/>
       <use xlink:href="#ArialMT-32" x="58.398438"/>
       <use xlink:href="#ArialMT-2e" x="114.013672"/>
       <use xlink:href="#ArialMT-30" x="141.796875"/>
       <use xlink:href="#ArialMT-30" x="197.412109"/>
      </g>
     </g>
    </g>
    <g id="ytick_8">
     <g id="line2d_14">
      <g>
       <use xlink:href="#mdc46bac3b5" x="344.5896" y="243.197437" style="fill: #262626; stroke: #262626"/>
      </g>
     </g>
     <g id="text_14">
      <!-- −1.75 -->
      <g style="fill: #262626" transform="translate(352.8896 246.346875) scale(0.088 -0.088)">
       <defs>
        <path id="ArialMT-37" d="M 303 3981 
L 303 4522 
L 3269 4522 
L 3269 4084 
Q 2831 3619 2401 2847 
Q 1972 2075 1738 1259 
Q 1569 684 1522 0 
L 944 0 
Q 953 541 1156 1306 
Q 1359 2072 1739 2783 
Q 2119 3494 2547 3981 
L 303 3981 
z
" transform="scale(0.015625)"/>
        <path id="ArialMT-35" d="M 266 1200 
L 856 1250 
Q 922 819 1161 601 
Q 1400 384 1738 384 
Q 2144 384 2425 690 
Q 2706 997 2706 1503 
Q 2706 1984 2436 2262 
Q 2166 2541 1728 2541 
Q 1456 2541 1237 2417 
Q 1019 2294 894 2097 
L 366 2166 
L 809 4519 
L 3088 4519 
L 3088 3981 
L 1259 3981 
L 1013 2750 
Q 1425 3038 1878 3038 
Q 2478 3038 2890 2622 
Q 3303 2206 3303 1553 
Q 3303 931 2941 478 
Q 2500 -78 1738 -78 
Q 1113 -78 717 272 
Q 322 622 266 1200 
z
" transform="scale(0.015625)"/>
       </defs>
       <use xlink:href="#ArialMT-2212"/>
       <use xlink:href="#ArialMT-31" x="58.398438"/>
       <use xlink:href="#ArialMT-2e" x="114.013672"/>
       <use xlink:href="#ArialMT-37" x="141.796875"/>
       <use xlink:href="#ArialMT-35" x="197.412109"/>
      </g>
     </g>
    </g>
    <g id="ytick_9">
     <g id="line2d_15">
      <g>
       <use xlink:href="#mdc46bac3b5" x="344.5896" y="209.933437" style="fill: #262626; stroke: #262626"/>
      </g>
     </g>
     <g id="text_15">
      <!-- −1.50 -->
      <g style="fill: #262626" transform="translate(352.8896 213.082875) scale(0.088 -0.088)">
       <use xlink:href="#ArialMT-2212"/>
       <use xlink:href="#ArialMT-31" x="58.398438"/>
       <use xlink:href="#ArialMT-2e" x="114.013672"/>
       <use xlink:href="#ArialMT-35" x="141.796875"/>
       <use xlink:href="#ArialMT-30" x="197.412109"/>
      </g>
     </g>
    </g>
    <g id="ytick_10">
     <g id="line2d_16">
      <g>
       <use xlink:href="#mdc46bac3b5" x="344.5896" y="176.669437" style="fill: #262626; stroke: #262626"/>
      </g>
     </g>
     <g id="text_16">
      <!-- −1.25 -->
      <g style="fill: #262626" transform="translate(352.8896 179.818875) scale(0.088 -0.088)">
       <use xlink:href="#ArialMT-2212"/>
       <use xlink:href="#ArialMT-31" x="58.398438"/>
       <use xlink:href="#ArialMT-2e" x="114.013672"/>
       <use xlink:href="#ArialMT-32" x="141.796875"/>
       <use xlink:href="#ArialMT-35" x="197.412109"/>
      </g>
     </g>
    </g>
    <g id="ytick_11">
     <g id="line2d_17">
      <g>
       <use xlink:href="#mdc46bac3b5" x="344.5896" y="143.405437" style="fill: #262626; stroke: #262626"/>
      </g>
     </g>
     <g id="text_17">
      <!-- −1.00 -->
      <g style="fill: #262626" transform="translate(352.8896 146.554875) scale(0.088 -0.088)">
       <use xlink:href="#ArialMT-2212"/>
       <use xlink:href="#ArialMT-31" x="58.398438"/>
       <use xlink:href="#ArialMT-2e" x="114.013672"/>
       <use xlink:href="#ArialMT-30" x="141.796875"/>
       <use xlink:href="#ArialMT-30" x="197.412109"/>
      </g>
     </g>
    </g>
    <g id="ytick_12">
     <g id="line2d_18">
      <g>
       <use xlink:href="#mdc46bac3b5" x="344.5896" y="110.141437" style="fill: #262626; stroke: #262626"/>
      </g>
     </g>
     <g id="text_18">
      <!-- −0.75 -->
      <g style="fill: #262626" transform="translate(352.8896 113.290875) scale(0.088 -0.088)">
       <use xlink:href="#ArialMT-2212"/>
       <use xlink:href="#ArialMT-30" x="58.398438"/>
       <use xlink:href="#ArialMT-2e" x="114.013672"/>
       <use xlink:href="#ArialMT-37" x="141.796875"/>
       <use xlink:href="#ArialMT-35" x="197.412109"/>
      </g>
     </g>
    </g>
    <g id="ytick_13">
     <g id="line2d_19">
      <g>
       <use xlink:href="#mdc46bac3b5" x="344.5896" y="76.877437" style="fill: #262626; stroke: #262626"/>
      </g>
     </g>
     <g id="text_19">
      <!-- −0.50 -->
      <g style="fill: #262626" transform="translate(352.8896 80.026875) scale(0.088 -0.088)">
       <use xlink:href="#ArialMT-2212"/>
       <use xlink:href="#ArialMT-30" x="58.398438"/>
       <use xlink:href="#ArialMT-2e" x="114.013672"/>
       <use xlink:href="#ArialMT-35" x="141.796875"/>
       <use xlink:href="#ArialMT-30" x="197.412109"/>
      </g>
     </g>
    </g>
    <g id="ytick_14">
     <g id="line2d_20">
      <g>
       <use xlink:href="#mdc46bac3b5" x="344.5896" y="43.613437" style="fill: #262626; stroke: #262626"/>
      </g>
     </g>
     <g id="text_20">
      <!-- −0.25 -->
      <g style="fill: #262626" transform="translate(352.8896 46.762875) scale(0.088 -0.088)">
       <use xlink:href="#ArialMT-2212"/>
       <use xlink:href="#ArialMT-30" x="58.398438"/>
       <use xlink:href="#ArialMT-2e" x="114.013672"/>
       <use xlink:href="#ArialMT-32" x="141.796875"/>
       <use xlink:href="#ArialMT-35" x="197.412109"/>
      </g>
     </g>
    </g>
    <g id="ytick_15">
     <g id="line2d_21">
      <g>
       <use xlink:href="#mdc46bac3b5" x="344.5896" y="10.349437" style="fill: #262626; stroke: #262626"/>
      </g>
     </g>
     <g id="text_21">
      <!-- 0.00 -->
      <g style="fill: #262626" transform="translate(352.8896 13.498875) scale(0.088 -0.088)">
       <use xlink:href="#ArialMT-30"/>
       <use xlink:href="#ArialMT-2e" x="55.615234"/>
       <use xlink:href="#ArialMT-30" x="83.398438"/>
       <use xlink:href="#ArialMT-30" x="139.013672"/>
      </g>
     </g>
    </g>
   </g>
   <g id="QuadMesh_1">
    <path d="M 331.284 276.461437 
L 344.5896 276.461437 
L 344.5896 243.197437 
L 331.284 243.197437 
L 331.284 276.461437 
" clip-path="url(#p32cb0da2d0)" style="fill: #180f29"/>
    <path d="M 331.284 243.197437 
L 344.5896 243.197437 
L 344.5896 209.933437 
L 331.284 209.933437 
L 331.284 243.197437 
" clip-path="url(#p32cb0da2d0)" style="fill: #481c48"/>
    <path d="M 331.284 209.933437 
L 344.5896 209.933437 
L 344.5896 176.669437 
L 331.284 176.669437 
L 331.284 209.933437 
" clip-path="url(#p32cb0da2d0)" style="fill: #7b1f59"/>
    <path d="M 331.284 176.669437 
L 344.5896 176.669437 
L 344.5896 143.405437 
L 331.284 143.405437 
L 331.284 176.669437 
" clip-path="url(#p32cb0da2d0)" style="fill: #b21758"/>
    <path d="M 331.284 143.405437 
L 344.5896 143.405437 
L 344.5896 110.141437 
L 331.284 110.141437 
L 331.284 143.405437 
" clip-path="url(#p32cb0da2d0)" style="fill: #df2f44"/>
    <path d="M 331.284 110.141437 
L 344.5896 110.141437 
L 344.5896 76.877437 
L 331.284 76.877437 
L 331.284 110.141437 
" clip-path="url(#p32cb0da2d0)" style="fill: #f26b49"/>
    <path d="M 331.284 76.877437 
L 344.5896 76.877437 
L 344.5896 43.613437 
L 331.284 43.613437 
L 331.284 76.877437 
" clip-path="url(#p32cb0da2d0)" style="fill: #f6a37a"/>
    <path d="M 331.284 43.613437 
L 344.5896 43.613437 
L 344.5896 10.349437 
L 331.284 10.349437 
L 331.284 43.613437 
" clip-path="url(#p32cb0da2d0)" style="fill: #f8d4bc"/>
   </g>
   <g id="LineCollection_1"/>
   <g id="patch_8">
    <path d="M 331.284 276.461437 
L 337.9368 276.461437 
L 344.5896 276.461437 
L 344.5896 10.349437 
L 337.9368 10.349437 
L 331.284 10.349437 
L 331.284 276.461437 
z
" style="fill: none; stroke: #262626; stroke-linejoin: miter; stroke-linecap: square"/>
   </g>
  </g>
 </g>
 <defs>
  <clipPath id="p7bb8dbe0cf">
   <rect x="27.732" y="10.349437" width="285.696" height="266.112"/>
  </clipPath>
  <clipPath id="p32cb0da2d0">
   <rect x="331.284" y="10.349437" width="13.3056" height="266.112"/>
  </clipPath>
 </defs>
</svg>