<?xml version="1.0" encoding="utf-8" standalone="no"?>
<!DOCTYPE svg PUBLIC "-//W3C//DTD SVG 1.1//EN"
  "http://www.w3.org/Graphics/SVG/1.1/DTD/svg11.dtd">
<svg xmlns:xlink="http://www.w3.org/1999/xlink" width="403.165375pt" height="327.286875pt" viewBox="0 0 403.165375 327.286875" xmlns="http://www.w3.org/2000/svg" version="1.1">
 <metadata>
  <rdf:RDF xmlns:dc="http://purl.org/dc/elements/1.1/" xmlns:cc="http://creativecommons.org/ns#" xmlns:rdf="http://www.w3.org/1999/02/22-rdf-syntax-ns#">
   <cc:Work>
    <dc:type rdf:resource="http://purl.org/dc/dcmitype/StillImage"/>
    <dc:date>2025-03-14T03:23:41.629262</dc:date>
    <dc:format>image/svg+xml</dc:format>
    <dc:creator>
     <cc:Agent>
      <dc:title>Matplotlib v3.9.2, https://matplotlib.org/</dc:title>
     </cc:Agent>
    </dc:creator>
   </cc:Work>
  </rdf:RDF>
 </metadata>
 <defs>
  <style type="text/css">*{stroke-linejoin: round; stroke-linecap: butt}</style>
 </defs>
 <g id="figure_1">
  <g id="patch_1">
   <path d="M 0 327.286875 
L 403.165375 327.286875 
L 403.165375 0 
L 0 0 
z
" style="fill: #ffffff"/>
  </g>
  <g id="axes_1">
   <g id="patch_2">
    <path d="M 38.845375 290.9595 
L 395.965375 290.9595 
L 395.965375 24.8475 
L 38.845375 24.8475 
z
" style="fill: #ffffff"/>
   </g>
   <g id="matplotlib.axis_1">
    <g id="xtick_1">
     <g id="line2d_1">
      <defs>
       <path id="mf3e9479418" d="M 0 0 
L 0 4.8 
" style="stroke: #262626"/>
      </defs>
      <g>
       <use xlink:href="#mf3e9479418" x="55.078102" y="290.9595" style="fill: #262626; stroke: #262626"/>
      </g>
     </g>
     <g id="text_1">
      <!-- 0.0 -->
      <g style="fill: #262626" transform="translate(48.962102 305.558375) scale(0.088 -0.088)">
       <defs>
        <path id="ArialMT-30" d="M 266 2259 
Q 266 3072 433 3567 
Q 600 4063 929 4331 
Q 1259 4600 1759 4600 
Q 2128 4600 2406 4451 
Q 2684 4303 2865 4023 
Q 3047 3744 3150 3342 
Q 3253 2941 3253 2259 
Q 3253 1453 3087 958 
Q 2922 463 2592 192 
Q 2263 -78 1759 -78 
Q 1097 -78 719 397 
Q 266 969 266 2259 
z
M 844 2259 
Q 844 1131 1108 757 
Q 1372 384 1759 384 
Q 2147 384 2411 759 
Q 2675 1134 2675 2259 
Q 2675 3391 2411 3762 
Q 2147 4134 1753 4134 
Q 1366 4134 1134 3806 
Q 844 3388 844 2259 
z
" transform="scale(0.015625)"/>
        <path id="ArialMT-2e" d="M 581 0 
L 581 641 
L 1222 641 
L 1222 0 
L 581 0 
z
" transform="scale(0.015625)"/>
       </defs>
       <use xlink:href="#ArialMT-30"/>
       <use xlink:href="#ArialMT-2e" x="55.615234"/>
       <use xlink:href="#ArialMT-30" x="83.398438"/>
      </g>
     </g>
    </g>
    <g id="xtick_2">
     <g id="line2d_2">
      <g>
       <use xlink:href="#mf3e9479418" x="120.009011" y="290.9595" style="fill: #262626; stroke: #262626"/>
      </g>
     </g>
     <g id="text_2">
      <!-- 0.2 -->
      <g style="fill: #262626" transform="translate(113.893011 305.558375) scale(0.088 -0.088)">
       <defs>
        <path id="ArialMT-32" d="M 3222 541 
L 3222 0 
L 194 0 
Q 188 203 259 391 
Q 375 700 629 1000 
Q 884 1300 1366 1694 
Q 2113 2306 2375 2664 
Q 2638 3022 2638 3341 
Q 2638 3675 2398 3904 
Q 2159 4134 1775 4134 
Q 1369 4134 1125 3890 
Q 881 3647 878 3216 
L 300 3275 
Q 359 3922 746 4261 
Q 1134 4600 1788 4600 
Q 2447 4600 2831 4234 
Q 3216 3869 3216 3328 
Q 3216 3053 3103 2787 
Q 2991 2522 2730 2228 
Q 2469 1934 1863 1422 
Q 1356 997 1212 845 
Q 1069 694 975 541 
L 3222 541 
z
" transform="scale(0.015625)"/>
       </defs>
       <use xlink:href="#ArialMT-30"/>
       <use xlink:href="#ArialMT-2e" x="55.615234"/>
       <use xlink:href="#ArialMT-32" x="83.398438"/>
      </g>
     </g>
    </g>
    <g id="xtick_3">
     <g id="line2d_3">
      <g>
       <use xlink:href="#mf3e9479418" x="184.93992" y="290.9595" style="fill: #262626; stroke: #262626"/>
      </g>
     </g>
     <g id="text_3">
      <!-- 0.4 -->
      <g style="fill: #262626" transform="translate(178.82392 305.558375) scale(0.088 -0.088)">
       <defs>
        <path id="ArialMT-34" d="M 2069 0 
L 2069 1097 
L 81 1097 
L 81 1613 
L 2172 4581 
L 2631 4581 
L 2631 1613 
L 3250 1613 
L 3250 1097 
L 2631 1097 
L 2631 0 
L 2069 0 
z
M 2069 1613 
L 2069 3678 
L 634 1613 
L 2069 1613 
z
" transform="scale(0.015625)"/>
       </defs>
       <use xlink:href="#ArialMT-30"/>
       <use xlink:href="#ArialMT-2e" x="55.615234"/>
       <use xlink:href="#ArialMT-34" x="83.398438"/>
      </g>
     </g>
    </g>
    <g id="xtick_4">
     <g id="line2d_4">
      <g>
       <use xlink:href="#mf3e9479418" x="249.87083" y="290.9595" style="fill: #262626; stroke: #262626"/>
      </g>
     </g>
     <g id="text_4">
      <!-- 0.6 -->
      <g style="fill: #262626" transform="translate(243.75483 305.558375) scale(0.088 -0.088)">
       <defs>
        <path id="ArialMT-36" d="M 3184 3459 
L 2625 3416 
Q 2550 3747 2413 3897 
Q 2184 4138 1850 4138 
Q 1581 4138 1378 3988 
Q 1113 3794 959 3422 
Q 806 3050 800 2363 
Q 1003 2672 1297 2822 
Q 1591 2972 1913 2972 
Q 2475 2972 2870 2558 
Q 3266 2144 3266 1488 
Q 3266 1056 3080 686 
Q 2894 316 2569 119 
Q 2244 -78 1831 -78 
Q 1128 -78 684 439 
Q 241 956 241 2144 
Q 241 3472 731 4075 
Q 1159 4600 1884 4600 
Q 2425 4600 2770 4297 
Q 3116 3994 3184 3459 
z
M 888 1484 
Q 888 1194 1011 928 
Q 1134 663 1356 523 
Q 1578 384 1822 384 
Q 2178 384 2434 671 
Q 2691 959 2691 1453 
Q 2691 1928 2437 2201 
Q 2184 2475 1800 2475 
Q 1419 2475 1153 2201 
Q 888 1928 888 1484 
z
" transform="scale(0.015625)"/>
       </defs>
       <use xlink:href="#ArialMT-30"/>
       <use xlink:href="#ArialMT-2e" x="55.615234"/>
       <use xlink:href="#ArialMT-36" x="83.398438"/>
      </g>
     </g>
    </g>
    <g id="xtick_5">
     <g id="line2d_5">
      <g>
       <use xlink:href="#mf3e9479418" x="314.801739" y="290.9595" style="fill: #262626; stroke: #262626"/>
      </g>
     </g>
     <g id="text_5">
      <!-- 0.8 -->
      <g style="fill: #262626" transform="translate(308.685739 305.558375) scale(0.088 -0.088)">
       <defs>
        <path id="ArialMT-38" d="M 1131 2484 
Q 781 2613 612 2850 
Q 444 3088 444 3419 
Q 444 3919 803 4259 
Q 1163 4600 1759 4600 
Q 2359 4600 2725 4251 
Q 3091 3903 3091 3403 
Q 3091 3084 2923 2848 
Q 2756 2613 2416 2484 
Q 2838 2347 3058 2040 
Q 3278 1734 3278 1309 
Q 3278 722 2862 322 
Q 2447 -78 1769 -78 
Q 1091 -78 675 323 
Q 259 725 259 1325 
Q 259 1772 486 2073 
Q 713 2375 1131 2484 
z
M 1019 3438 
Q 1019 3113 1228 2906 
Q 1438 2700 1772 2700 
Q 2097 2700 2305 2904 
Q 2513 3109 2513 3406 
Q 2513 3716 2298 3927 
Q 2084 4138 1766 4138 
Q 1444 4138 1231 3931 
Q 1019 3725 1019 3438 
z
M 838 1322 
Q 838 1081 952 856 
Q 1066 631 1291 507 
Q 1516 384 1775 384 
Q 2178 384 2440 643 
Q 2703 903 2703 1303 
Q 2703 1709 2433 1975 
Q 2163 2241 1756 2241 
Q 1359 2241 1098 1978 
Q 838 1716 838 1322 
z
" transform="scale(0.015625)"/>
       </defs>
       <use xlink:href="#ArialMT-30"/>
       <use xlink:href="#ArialMT-2e" x="55.615234"/>
       <use xlink:href="#ArialMT-38" x="83.398438"/>
      </g>
     </g>
    </g>
    <g id="xtick_6">
     <g id="line2d_6">
      <g>
       <use xlink:href="#mf3e9479418" x="379.732648" y="290.9595" style="fill: #262626; stroke: #262626"/>
      </g>
     </g>
     <g id="text_6">
      <!-- 1.0 -->
      <g style="fill: #262626" transform="translate(373.616648 305.558375) scale(0.088 -0.088)">
       <defs>
        <path id="ArialMT-31" d="M 2384 0 
L 1822 0 
L 1822 3584 
Q 1619 3391 1289 3197 
Q 959 3003 697 2906 
L 697 3450 
Q 1169 3672 1522 3987 
Q 1875 4303 2022 4600 
L 2384 4600 
L 2384 0 
z
" transform="scale(0.015625)"/>
       </defs>
       <use xlink:href="#ArialMT-31"/>
       <use xlink:href="#ArialMT-2e" x="55.615234"/>
       <use xlink:href="#ArialMT-30" x="83.398438"/>
      </g>
     </g>
    </g>
    <g id="text_7">
     <!-- $x$ -->
     <g style="fill: #262626" transform="translate(214.525375 318.178875) scale(0.096 -0.096)">
      <defs>
       <path id="DejaVuSans-Oblique-78" d="M 3841 3500 
L 2234 1784 
L 3219 0 
L 2559 0 
L 1819 1388 
L 531 0 
L -166 0 
L 1556 1844 
L 641 3500 
L 1300 3500 
L 1972 2234 
L 3144 3500 
L 3841 3500 
z
" transform="scale(0.015625)"/>
      </defs>
      <use xlink:href="#DejaVuSans-Oblique-78" transform="translate(0 0.3125)"/>
     </g>
    </g>
   </g>
   <g id="matplotlib.axis_2">
    <g id="ytick_1">
     <g id="line2d_7">
      <defs>
       <path id="mbaa67685b8" d="M 0 0 
L -4.8 0 
" style="stroke: #262626"/>
      </defs>
      <g>
       <use xlink:href="#mbaa67685b8" x="38.845375" y="289.031088" style="fill: #262626; stroke: #262626"/>
      </g>
     </g>
     <g id="text_8">
      <!-- −4 -->
      <g style="fill: #262626" transform="translate(20.512 292.180526) scale(0.088 -0.088)">
       <defs>
        <path id="ArialMT-2212" d="M 3381 1997 
L 356 1997 
L 356 2522 
L 3381 2522 
L 3381 1997 
z
" transform="scale(0.015625)"/>
       </defs>
       <use xlink:href="#ArialMT-2212"/>
       <use xlink:href="#ArialMT-34" x="58.398438"/>
      </g>
     </g>
    </g>
    <g id="ytick_2">
     <g id="line2d_8">
      <g>
       <use xlink:href="#mbaa67685b8" x="38.845375" y="246.779485" style="fill: #262626; stroke: #262626"/>
      </g>
     </g>
     <g id="text_9">
      <!-- −3 -->
      <g style="fill: #262626" transform="translate(20.512 249.928923) scale(0.088 -0.088)">
       <defs>
        <path id="ArialMT-33" d="M 269 1209 
L 831 1284 
Q 928 806 1161 595 
Q 1394 384 1728 384 
Q 2125 384 2398 659 
Q 2672 934 2672 1341 
Q 2672 1728 2419 1979 
Q 2166 2231 1775 2231 
Q 1616 2231 1378 2169 
L 1441 2663 
Q 1497 2656 1531 2656 
Q 1891 2656 2178 2843 
Q 2466 3031 2466 3422 
Q 2466 3731 2256 3934 
Q 2047 4138 1716 4138 
Q 1388 4138 1169 3931 
Q 950 3725 888 3313 
L 325 3413 
Q 428 3978 793 4289 
Q 1159 4600 1703 4600 
Q 2078 4600 2393 4439 
Q 2709 4278 2876 4000 
Q 3044 3722 3044 3409 
Q 3044 3113 2884 2869 
Q 2725 2625 2413 2481 
Q 2819 2388 3044 2092 
Q 3269 1797 3269 1353 
Q 3269 753 2831 336 
Q 2394 -81 1725 -81 
Q 1122 -81 723 278 
Q 325 638 269 1209 
z
" transform="scale(0.015625)"/>
       </defs>
       <use xlink:href="#ArialMT-2212"/>
       <use xlink:href="#ArialMT-33" x="58.398438"/>
      </g>
     </g>
    </g>
    <g id="ytick_3">
     <g id="line2d_9">
      <g>
       <use xlink:href="#mbaa67685b8" x="38.845375" y="204.527882" style="fill: #262626; stroke: #262626"/>
      </g>
     </g>
     <g id="text_10">
      <!-- −2 -->
      <g style="fill: #262626" transform="translate(20.512 207.67732) scale(0.088 -0.088)">
       <use xlink:href="#ArialMT-2212"/>
       <use xlink:href="#ArialMT-32" x="58.398438"/>
      </g>
     </g>
    </g>
    <g id="ytick_4">
     <g id="line2d_10">
      <g>
       <use xlink:href="#mbaa67685b8" x="38.845375" y="162.276279" style="fill: #262626; stroke: #262626"/>
      </g>
     </g>
     <g id="text_11">
      <!-- −1 -->
      <g style="fill: #262626" transform="translate(20.512 165.425716) scale(0.088 -0.088)">
       <use xlink:href="#ArialMT-2212"/>
       <use xlink:href="#ArialMT-31" x="58.398438"/>
      </g>
     </g>
    </g>
    <g id="ytick_5">
     <g id="line2d_11">
      <g>
       <use xlink:href="#mbaa67685b8" x="38.845375" y="120.024676" style="fill: #262626; stroke: #262626"/>
      </g>
     </g>
     <g id="text_12">
      <!-- 0 -->
      <g style="fill: #262626" transform="translate(25.65175 123.174113) scale(0.088 -0.088)">
       <use xlink:href="#ArialMT-30"/>
      </g>
     </g>
    </g>
    <g id="ytick_6">
     <g id="line2d_12">
      <g>
       <use xlink:href="#mbaa67685b8" x="38.845375" y="77.773073" style="fill: #262626; stroke: #262626"/>
      </g>
     </g>
     <g id="text_13">
      <!-- 1 -->
      <g style="fill: #262626" transform="translate(25.65175 80.92251) scale(0.088 -0.088)">
       <use xlink:href="#ArialMT-31"/>
      </g>
     </g>
    </g>
    <g id="ytick_7">
     <g id="line2d_13">
      <g>
       <use xlink:href="#mbaa67685b8" x="38.845375" y="35.52147" style="fill: #262626; stroke: #262626"/>
      </g>
     </g>
     <g id="text_14">
      <!-- 2 -->
      <g style="fill: #262626" transform="translate(25.65175 38.670907) scale(0.088 -0.088)">
       <use xlink:href="#ArialMT-32"/>
      </g>
     </g>
    </g>
    <g id="text_15">
     <!-- $\phi_i(x)$ -->
     <g style="fill: #262626" transform="translate(14.496 168.7515) rotate(-90) scale(0.096 -0.096)">
      <defs>
       <path id="DejaVuSans-Oblique-3d5" d="M 2991 4863 
L 2738 3572 
Q 3363 3572 3684 3094 
Q 4016 2606 3850 1747 
Q 3681 888 3159 400 
Q 2653 -78 2028 -78 
L 1784 -1331 
L 1213 -1331 
L 1456 -78 
Q 834 -78 509 400 
Q 178 888 347 1747 
Q 513 2606 1034 3094 
Q 1544 3572 2166 3572 
L 2419 4863 
L 2991 4863 
z
M 2128 434 
Q 2481 434 2784 756 
Q 3116 1116 3244 1747 
Q 3369 2372 3169 2738 
Q 2991 3059 2638 3059 
L 2128 434 
z
M 1556 434 
L 2066 3059 
Q 1716 3059 1413 2738 
Q 1072 2372 953 1747 
Q 834 1116 1028 756 
Q 1203 434 1556 434 
z
" transform="scale(0.015625)"/>
       <path id="DejaVuSans-Oblique-69" d="M 1172 4863 
L 1747 4863 
L 1606 4134 
L 1031 4134 
L 1172 4863 
z
M 909 3500 
L 1484 3500 
L 800 0 
L 225 0 
L 909 3500 
z
" transform="scale(0.015625)"/>
       <path id="DejaVuSans-28" d="M 1984 4856 
Q 1566 4138 1362 3434 
Q 1159 2731 1159 2009 
Q 1159 1288 1364 580 
Q 1569 -128 1984 -844 
L 1484 -844 
Q 1016 -109 783 600 
Q 550 1309 550 2009 
Q 550 2706 781 3412 
Q 1013 4119 1484 4856 
L 1984 4856 
z
" transform="scale(0.015625)"/>
       <path id="DejaVuSans-29" d="M 513 4856 
L 1013 4856 
Q 1481 4119 1714 3412 
Q 1947 2706 1947 2009 
Q 1947 1309 1714 600 
Q 1481 -109 1013 -844 
L 513 -844 
Q 928 -128 1133 580 
Q 1338 1288 1338 2009 
Q 1338 2731 1133 3434 
Q 928 4138 513 4856 
z
" transform="scale(0.015625)"/>
      </defs>
      <use xlink:href="#DejaVuSans-Oblique-3d5" transform="translate(0 0.015625)"/>
      <use xlink:href="#DejaVuSans-Oblique-69" transform="translate(65.966797 -16.390625) scale(0.7)"/>
      <use xlink:href="#DejaVuSans-28" transform="translate(88.149414 0.015625)"/>
      <use xlink:href="#DejaVuSans-Oblique-78" transform="translate(127.163086 0.015625)"/>
      <use xlink:href="#DejaVuSans-29" transform="translate(186.342773 0.015625)"/>
     </g>
    </g>
   </g>
   <g id="line2d_14">
    <path d="M 55.078102 123.031353 
L 58.357441 123.119381 
L 61.63678 123.153446 
L 64.916119 123.126513 
L 68.195458 123.033771 
L 71.474796 122.873346 
L 74.754135 122.64694 
L 78.033474 122.360343 
L 81.312813 122.023773 
L 84.592152 121.651969 
L 87.871491 121.264035 
L 91.15083 120.882989 
L 94.430168 120.535048 
L 97.709507 120.248642 
L 100.988846 120.05324 
L 104.268185 119.978025 
L 107.547524 120.050511 
L 110.826863 120.295192 
L 114.106201 120.732299 
L 117.38554 121.37676 
L 120.664879 122.237416 
L 123.944218 123.316543 
L 127.223557 124.60971 
L 130.502896 126.105964 
L 133.782235 127.788317 
L 137.061573 129.634493 
L 140.340912 131.61788 
L 143.620251 133.7086 
L 146.89959 135.874647 
L 150.178929 138.083002 
L 153.458268 140.300681 
L 156.737606 142.495656 
L 160.016945 144.637616 
L 163.296284 146.698552 
L 166.575623 148.653157 
L 169.854962 150.479048 
L 173.134301 152.156825 
L 176.413639 153.669993 
L 179.692978 155.004772 
L 182.972317 156.149819 
L 186.251656 157.095894 
L 189.530995 157.835488 
L 192.810334 158.362438 
L 196.089673 158.671552 
L 199.369011 158.758248 
L 202.64835 158.618232 
L 205.927689 158.247228 
L 209.207028 157.640764 
L 212.486367 156.794039 
L 215.765706 155.701871 
L 219.045044 154.358737 
L 222.324383 152.758916 
L 225.603722 150.896737 
L 228.883061 148.766913 
L 232.1624 146.364981 
L 235.441739 143.687797 
L 238.721077 140.73409 
L 242.000416 137.505036 
L 245.279755 134.004816 
L 248.559094 130.241127 
L 251.838433 126.225615 
L 255.117772 121.974191 
L 258.397111 117.507207 
L 261.676449 112.849484 
L 264.955788 108.030158 
L 268.235127 103.082382 
L 271.514466 98.042861 
L 274.793805 92.951262 
L 278.073144 87.849528 
L 281.352482 82.781114 
L 284.631821 77.790197 
L 287.91116 72.920889 
L 291.190499 68.216486 
L 294.469838 63.718772 
L 297.749177 59.467417 
L 301.028515 55.499456 
L 304.307854 51.84887 
L 307.587193 48.54626 
L 310.866532 45.6186 
L 314.145871 43.08906 
L 317.42521 40.976872 
L 320.704549 39.297237 
L 323.983887 38.061244 
L 327.263226 37.275789 
L 330.542565 36.9435 
L 333.821904 37.062647 
L 337.101243 37.627057 
L 340.380582 38.62604 
L 343.65992 40.044334 
L 346.939259 41.862096 
L 350.218598 44.054961 
L 353.497937 46.594184 
L 356.777276 49.446877 
L 360.056615 52.576378 
L 363.335954 55.942734 
L 366.615292 59.503307 
L 369.894631 63.213509 
L 373.17397 67.027624 
L 376.453309 70.899708 
L 379.732648 74.784536 
" clip-path="url(#pf5783ef799)" style="fill: none; stroke: #1f77b4; stroke-width: 1.2; stroke-linecap: round"/>
   </g>
   <g id="line2d_15">
    <path d="M 55.078102 129.391581 
L 58.357441 129.638221 
L 61.63678 129.716921 
L 64.916119 129.607306 
L 68.195458 129.296007 
L 71.474796 128.778753 
L 74.754135 128.062232 
L 78.033474 127.165546 
L 81.312813 126.12109 
L 84.592152 124.974724 
L 87.871491 123.785131 
L 91.15083 122.62232 
L 94.430168 121.565293 
L 97.709507 120.698957 
L 100.988846 120.11044 
L 104.268185 119.885002 
L 107.547524 120.101803 
L 110.826863 120.829782 
L 114.106201 122.12393 
L 117.38554 124.022177 
L 120.664879 126.54311 
L 123.944218 129.684649 
L 127.223557 133.423745 
L 130.502896 137.717102 
L 133.782235 142.502821 
L 137.061573 147.702849 
L 140.340912 153.226024 
L 143.620251 158.971511 
L 146.89959 164.832402 
L 150.178929 170.699275 
L 153.458268 176.463518 
L 156.737606 182.020275 
L 160.016945 187.270922 
L 163.296284 192.125016 
L 166.575623 196.501719 
L 169.854962 200.330723 
L 173.134301 203.552756 
L 176.413639 206.119753 
L 179.692978 207.994779 
L 182.972317 209.151812 
L 186.251656 209.575466 
L 189.530995 209.26072 
L 192.810334 208.212698 
L 196.089673 206.446532 
L 199.369011 203.987288 
L 202.64835 200.869938 
L 205.927689 197.13933 
L 209.207028 192.850101 
L 212.486367 188.066448 
L 215.765706 182.861707 
L 219.045044 177.317665 
L 222.324383 171.523554 
L 225.603722 165.574701 
L 228.883061 159.570831 
L 232.1624 153.614029 
L 235.441739 147.806429 
L 238.721077 142.247702 
L 242.000416 137.032441 
L 245.279755 132.247565 
L 248.559094 127.969874 
L 251.838433 124.263878 
L 255.117772 121.180015 
L 258.397111 118.753369 
L 261.676449 117.002942 
L 264.955788 115.931521 
L 268.235127 115.526152 
L 271.514466 115.75916 
L 274.793805 116.589673 
L 278.073144 117.96553 
L 281.352482 119.825474 
L 284.631821 122.101492 
L 287.91116 124.721188 
L 291.190499 127.610072 
L 294.469838 130.693655 
L 297.749177 133.899293 
L 301.028515 137.157717 
L 304.307854 140.404229 
L 307.587193 143.579571 
L 310.866532 146.630483 
L 314.145871 149.50999 
L 317.42521 152.177476 
L 320.704549 154.598593 
L 323.983887 156.745059 
L 327.263226 158.594401 
L 330.542565 160.129668 
L 333.821904 161.339172 
L 337.101243 162.216236 
L 340.380582 162.758988 
L 343.65992 162.970181 
L 346.939259 162.857023 
L 350.218598 162.43101 
L 353.497937 161.707733 
L 356.777276 160.706639 
L 360.056615 159.450724 
L 363.335954 157.966159 
L 366.615292 156.281819 
L 369.894631 154.428737 
L 373.17397 152.439473 
L 376.453309 150.347431 
L 379.732648 148.18613 
" clip-path="url(#pf5783ef799)" style="fill: none; stroke: #ff7f0e; stroke-width: 1.2; stroke-linecap: round"/>
   </g>
   <g id="line2d_16">
    <path d="M 55.078102 105.521265 
L 58.357441 105.442316 
L 61.63678 105.617758 
L 64.916119 106.062119 
L 68.195458 106.778757 
L 71.474796 107.757971 
L 74.754135 108.975627 
L 78.033474 110.392474 
L 81.312813 111.9543 
L 84.592152 113.593028 
L 87.871491 115.228784 
L 91.15083 116.772919 
L 94.430168 118.131883 
L 97.709507 119.211755 
L 100.988846 119.923216 
L 104.268185 120.186644 
L 107.547524 119.937031 
L 110.826863 119.128392 
L 114.106201 117.737354 
L 117.38554 115.765687 
L 120.664879 113.241581 
L 123.944218 110.219556 
L 127.223557 106.779016 
L 130.502896 103.021508 
L 133.782235 99.066853 
L 137.061573 95.048383 
L 140.340912 91.107564 
L 143.620251 87.388295 
L 146.89959 84.031212 
L 150.178929 81.168252 
L 153.458268 78.917755 
L 156.737606 77.38027 
L 160.016945 76.635222 
L 163.296284 76.738504 
L 166.575623 77.721017 
L 169.854962 79.588118 
L 173.134301 82.319908 
L 176.413639 85.872257 
L 179.692978 90.178442 
L 182.972317 95.151272 
L 186.251656 100.685585 
L 189.530995 106.660992 
L 192.810334 112.944789 
L 196.089673 119.394952 
L 199.369011 125.863158 
L 202.64835 132.197803 
L 205.927689 138.247003 
L 209.207028 143.861553 
L 212.486367 148.897871 
L 215.765706 153.220906 
L 219.045044 156.707033 
L 222.324383 159.246906 
L 225.603722 160.748256 
L 228.883061 161.13859 
L 232.1624 160.367722 
L 235.441739 158.410063 
L 238.721077 155.266557 
L 242.000416 150.966165 
L 245.279755 145.566769 
L 248.559094 139.155385 
L 251.838433 131.847587 
L 255.117772 123.786061 
L 258.397111 115.138253 
L 261.676449 106.093104 
L 264.955788 96.856915 
L 268.235127 87.648438 
L 271.514466 78.693315 
L 274.793805 70.218055 
L 278.073144 62.443738 
L 281.352482 55.579682 
L 284.631821 49.817297 
L 287.91116 45.324355 
L 291.190499 42.239892 
L 294.469838 40.669916 
L 297.749177 40.684085 
L 301.028515 42.313451 
L 304.307854 45.549355 
L 307.587193 50.34349 
L 310.866532 56.609123 
L 314.145871 64.223439 
L 317.42521 73.030901 
L 320.704549 82.847555 
L 323.983887 93.466114 
L 327.263226 104.661689 
L 330.542565 116.198003 
L 333.821904 127.833885 
L 337.101243 139.329881 
L 340.380582 150.454761 
L 343.65992 160.991736 
L 346.939259 170.744178 
L 350.218598 179.540663 
L 353.497937 187.239159 
L 356.777276 193.730208 
L 360.056615 198.939007 
L 363.335954 202.826289 
L 366.615292 205.387999 
L 369.894631 206.65378 
L 373.17397 206.684346 
L 376.453309 205.567881 
L 379.732648 203.415622 
" clip-path="url(#pf5783ef799)" style="fill: none; stroke: #2ca02c; stroke-width: 1.2; stroke-linecap: round"/>
   </g>
   <g id="line2d_17">
    <path d="M 55.078102 68.865658 
L 58.357441 69.425476 
L 61.63678 70.855548 
L 64.916119 73.159997 
L 68.195458 76.304083 
L 71.474796 80.211416 
L 74.754135 84.76325 
L 78.033474 89.800155 
L 81.312813 95.126229 
L 84.592152 100.515868 
L 87.871491 105.722894 
L 91.15083 110.49172 
L 94.430168 114.569978 
L 97.709507 117.721964 
L 100.988846 119.7421 
L 104.268185 120.467585 
L 107.547524 119.789397 
L 110.826863 117.660907 
L 114.106201 114.103467 
L 117.38554 109.208531 
L 120.664879 103.136097 
L 123.944218 96.109461 
L 127.223557 88.406543 
L 130.502896 80.348239 
L 133.782235 72.284446 
L 137.061573 64.578517 
L 140.340912 57.591013 
L 143.620251 51.663577 
L 146.89959 47.103769 
L 150.178929 44.17158 
L 153.458268 43.06821 
L 156.737606 43.927561 
L 160.016945 46.810725 
L 163.296284 51.70358 
L 166.575623 58.51747 
L 169.854962 67.092811 
L 173.134301 77.205361 
L 176.413639 88.574806 
L 179.692978 100.875294 
L 182.972317 113.74745 
L 186.251656 126.811465 
L 189.530995 139.680782 
L 192.810334 151.975934 
L 196.089673 163.338097 
L 199.369011 173.441905 
L 202.64835 182.007127 
L 205.927689 188.808774 
L 209.207028 193.685294 
L 212.486367 196.544482 
L 215.765706 197.366863 
L 219.045044 196.20632 
L 222.324383 193.187872 
L 225.603722 188.502586 
L 228.883061 182.399775 
L 232.1624 175.176718 
L 235.441739 167.166295 
L 238.721077 158.723067 
L 242.000416 150.208383 
L 245.279755 141.975226 
L 248.559094 134.353492 
L 251.838433 127.636422 
L 255.117772 122.068852 
L 258.397111 117.837813 
L 261.676449 115.065944 
L 264.955788 113.80797 
L 268.235127 114.050352 
L 271.514466 115.714023 
L 274.793805 118.659986 
L 278.073144 122.697361 
L 281.352482 127.59341 
L 284.631821 133.084935 
L 287.91116 138.890471 
L 291.190499 144.722644 
L 294.469838 150.300135 
L 297.749177 155.358756 
L 301.028515 159.661221 
L 304.307854 163.005293 
L 307.587193 165.230105 
L 310.866532 166.220538 
L 314.145871 165.909631 
L 317.42521 164.27908 
L 320.704549 161.357936 
L 323.983887 157.219681 
L 327.263226 151.977866 
L 330.542565 145.780558 
L 333.821904 138.803842 
L 337.101243 131.24463 
L 340.380582 123.313056 
L 343.65992 115.22473 
L 346.939259 107.193114 
L 350.218598 99.422288 
L 353.497937 92.100352 
L 356.777276 85.39369 
L 360.056615 79.442279 
L 363.335954 74.356206 
L 366.615292 70.213479 
L 369.894631 67.05918 
L 373.17397 64.90595 
L 376.453309 63.735709 
L 379.732648 63.502497 
" clip-path="url(#pf5783ef799)" style="fill: none; stroke: #d62728; stroke-width: 1.2; stroke-linecap: round"/>
   </g>
   <g id="line2d_18">
    <path d="M 55.078102 278.8635 
L 58.357441 271.324561 
L 61.63678 261.346894 
L 64.916119 249.241594 
L 68.195458 235.427411 
L 71.474796 220.412053 
L 74.754135 204.766507 
L 78.033474 189.093885 
L 81.312813 173.994838 
L 84.592152 160.031976 
L 87.871491 147.695925 
L 91.15083 137.375603 
L 94.430168 129.335056 
L 97.709507 123.698654 
L 100.988846 120.445824 
L 104.268185 119.415719 
L 107.547524 120.32139 
L 110.826863 122.77231 
L 114.106201 126.303402 
L 117.38554 130.408291 
L 120.664879 134.57422 
L 123.944218 138.316056 
L 127.223557 141.20699 
L 130.502896 142.903938 
L 133.782235 143.166138 
L 137.061573 141.866096 
L 140.340912 138.992598 
L 143.620251 134.646155 
L 146.89959 129.027704 
L 150.178929 122.421805 
L 153.458268 115.175806 
L 156.737606 107.676587 
L 160.016945 100.326433 
L 163.296284 93.519511 
L 166.575623 87.620207 
L 169.854962 82.944316 
L 173.134301 79.743841 
L 176.413639 78.19586 
L 179.692978 78.395673 
L 182.972317 80.35424 
L 186.251656 83.999725 
L 189.530995 89.182791 
L 192.810334 95.685225 
L 196.089673 103.231322 
L 199.369011 111.501458 
L 202.64835 120.14718 
L 205.927689 128.807157 
L 209.207028 137.123315 
L 212.486367 144.756474 
L 215.765706 151.400879 
L 219.045044 156.797 
L 222.324383 160.742119 
L 225.603722 163.09827 
L 228.883061 163.797224 
L 232.1624 162.842341 
L 235.441739 160.307256 
L 238.721077 156.331497 
L 242.000416 151.113284 
L 245.279755 144.899867 
L 248.559094 137.975906 
L 251.838433 130.650425 
L 255.117772 123.242987 
L 258.397111 116.069705 
L 261.676449 109.429728 
L 264.955788 103.592785 
L 268.235127 98.788301 
L 271.514466 95.196525 
L 274.793805 92.94197 
L 278.073144 92.089399 
L 281.352482 92.642429 
L 284.631821 94.544732 
L 287.91116 97.683711 
L 291.190499 101.89641 
L 294.469838 106.977372 
L 297.749177 112.688046 
L 301.028515 118.767348 
L 304.307854 124.942898 
L 307.587193 130.942483 
L 310.866532 136.505261 
L 314.145871 141.392275 
L 317.42521 145.395827 
L 320.704549 148.347375 
L 323.983887 150.12362 
L 327.263226 150.650564 
L 330.542565 149.905383 
L 333.821904 147.916074 
L 337.101243 144.758916 
L 340.380582 140.553908 
L 343.65992 135.458405 
L 346.939259 129.659313 
L 350.218598 123.364219 
L 353.497937 116.791914 
L 356.777276 110.162785 
L 360.056615 103.68955 
L 363.335954 97.568774 
L 366.615292 91.973571 
L 369.894631 87.047787 
L 373.17397 82.901903 
L 376.453309 79.610755 
L 379.732648 77.213097 
" clip-path="url(#pf5783ef799)" style="fill: none; stroke: #9467bd; stroke-width: 1.2; stroke-linecap: round"/>
   </g>
   <g id="patch_3">
    <path d="M 38.845375 289.031088 
L 38.845375 35.52147 
" style="fill: none; stroke: #262626; stroke-linejoin: miter; stroke-linecap: square"/>
   </g>
   <g id="patch_4">
    <path d="M 55.078102 290.9595 
L 379.732648 290.9595 
" style="fill: none; stroke: #262626; stroke-linejoin: miter; stroke-linecap: square"/>
   </g>
   <g id="text_16">
    <!-- Eigenfunctions of RBF kernel with observations -->
    <g style="fill: #262626" transform="translate(49.774125 18.8475) scale(0.16 -0.16)">
     <defs>
      <path id="ArialMT-45" d="M 506 0 
L 506 4581 
L 3819 4581 
L 3819 4041 
L 1113 4041 
L 1113 2638 
L 3647 2638 
L 3647 2100 
L 1113 2100 
L 1113 541 
L 3925 541 
L 3925 0 
L 506 0 
z
" transform="scale(0.015625)"/>
      <path id="ArialMT-69" d="M 425 3934 
L 425 4581 
L 988 4581 
L 988 3934 
L 425 3934 
z
M 425 0 
L 425 3319 
L 988 3319 
L 988 0 
L 425 0 
z
" transform="scale(0.015625)"/>
      <path id="ArialMT-67" d="M 319 -275 
L 866 -356 
Q 900 -609 1056 -725 
Q 1266 -881 1628 -881 
Q 2019 -881 2231 -725 
Q 2444 -569 2519 -288 
Q 2563 -116 2559 434 
Q 2191 0 1641 0 
Q 956 0 581 494 
Q 206 988 206 1678 
Q 206 2153 378 2554 
Q 550 2956 876 3175 
Q 1203 3394 1644 3394 
Q 2231 3394 2613 2919 
L 2613 3319 
L 3131 3319 
L 3131 450 
Q 3131 -325 2973 -648 
Q 2816 -972 2473 -1159 
Q 2131 -1347 1631 -1347 
Q 1038 -1347 672 -1080 
Q 306 -813 319 -275 
z
M 784 1719 
Q 784 1066 1043 766 
Q 1303 466 1694 466 
Q 2081 466 2343 764 
Q 2606 1063 2606 1700 
Q 2606 2309 2336 2618 
Q 2066 2928 1684 2928 
Q 1309 2928 1046 2623 
Q 784 2319 784 1719 
z
" transform="scale(0.015625)"/>
      <path id="ArialMT-65" d="M 2694 1069 
L 3275 997 
Q 3138 488 2766 206 
Q 2394 -75 1816 -75 
Q 1088 -75 661 373 
Q 234 822 234 1631 
Q 234 2469 665 2931 
Q 1097 3394 1784 3394 
Q 2450 3394 2872 2941 
Q 3294 2488 3294 1666 
Q 3294 1616 3291 1516 
L 816 1516 
Q 847 969 1125 678 
Q 1403 388 1819 388 
Q 2128 388 2347 550 
Q 2566 713 2694 1069 
z
M 847 1978 
L 2700 1978 
Q 2663 2397 2488 2606 
Q 2219 2931 1791 2931 
Q 1403 2931 1139 2672 
Q 875 2413 847 1978 
z
" transform="scale(0.015625)"/>
      <path id="ArialMT-6e" d="M 422 0 
L 422 3319 
L 928 3319 
L 928 2847 
Q 1294 3394 1984 3394 
Q 2284 3394 2536 3286 
Q 2788 3178 2913 3003 
Q 3038 2828 3088 2588 
Q 3119 2431 3119 2041 
L 3119 0 
L 2556 0 
L 2556 2019 
Q 2556 2363 2490 2533 
Q 2425 2703 2258 2804 
Q 2091 2906 1866 2906 
Q 1506 2906 1245 2678 
Q 984 2450 984 1813 
L 984 0 
L 422 0 
z
" transform="scale(0.015625)"/>
      <path id="ArialMT-66" d="M 556 0 
L 556 2881 
L 59 2881 
L 59 3319 
L 556 3319 
L 556 3672 
Q 556 4006 616 4169 
Q 697 4388 901 4523 
Q 1106 4659 1475 4659 
Q 1713 4659 2000 4603 
L 1916 4113 
Q 1741 4144 1584 4144 
Q 1328 4144 1222 4034 
Q 1116 3925 1116 3625 
L 1116 3319 
L 1763 3319 
L 1763 2881 
L 1116 2881 
L 1116 0 
L 556 0 
z
" transform="scale(0.015625)"/>
      <path id="ArialMT-75" d="M 2597 0 
L 2597 488 
Q 2209 -75 1544 -75 
Q 1250 -75 995 37 
Q 741 150 617 320 
Q 494 491 444 738 
Q 409 903 409 1263 
L 409 3319 
L 972 3319 
L 972 1478 
Q 972 1038 1006 884 
Q 1059 663 1231 536 
Q 1403 409 1656 409 
Q 1909 409 2131 539 
Q 2353 669 2445 892 
Q 2538 1116 2538 1541 
L 2538 3319 
L 3100 3319 
L 3100 0 
L 2597 0 
z
" transform="scale(0.015625)"/>
      <path id="ArialMT-63" d="M 2588 1216 
L 3141 1144 
Q 3050 572 2676 248 
Q 2303 -75 1759 -75 
Q 1078 -75 664 370 
Q 250 816 250 1647 
Q 250 2184 428 2587 
Q 606 2991 970 3192 
Q 1334 3394 1763 3394 
Q 2303 3394 2647 3120 
Q 2991 2847 3088 2344 
L 2541 2259 
Q 2463 2594 2264 2762 
Q 2066 2931 1784 2931 
Q 1359 2931 1093 2626 
Q 828 2322 828 1663 
Q 828 994 1084 691 
Q 1341 388 1753 388 
Q 2084 388 2306 591 
Q 2528 794 2588 1216 
z
" transform="scale(0.015625)"/>
      <path id="ArialMT-74" d="M 1650 503 
L 1731 6 
Q 1494 -44 1306 -44 
Q 1000 -44 831 53 
Q 663 150 594 308 
Q 525 466 525 972 
L 525 2881 
L 113 2881 
L 113 3319 
L 525 3319 
L 525 4141 
L 1084 4478 
L 1084 3319 
L 1650 3319 
L 1650 2881 
L 1084 2881 
L 1084 941 
Q 1084 700 1114 631 
Q 1144 563 1211 522 
Q 1278 481 1403 481 
Q 1497 481 1650 503 
z
" transform="scale(0.015625)"/>
      <path id="ArialMT-6f" d="M 213 1659 
Q 213 2581 725 3025 
Q 1153 3394 1769 3394 
Q 2453 3394 2887 2945 
Q 3322 2497 3322 1706 
Q 3322 1066 3130 698 
Q 2938 331 2570 128 
Q 2203 -75 1769 -75 
Q 1072 -75 642 372 
Q 213 819 213 1659 
z
M 791 1659 
Q 791 1022 1069 705 
Q 1347 388 1769 388 
Q 2188 388 2466 706 
Q 2744 1025 2744 1678 
Q 2744 2294 2464 2611 
Q 2184 2928 1769 2928 
Q 1347 2928 1069 2612 
Q 791 2297 791 1659 
z
" transform="scale(0.015625)"/>
      <path id="ArialMT-73" d="M 197 991 
L 753 1078 
Q 800 744 1014 566 
Q 1228 388 1613 388 
Q 2000 388 2187 545 
Q 2375 703 2375 916 
Q 2375 1106 2209 1216 
Q 2094 1291 1634 1406 
Q 1016 1563 777 1677 
Q 538 1791 414 1992 
Q 291 2194 291 2438 
Q 291 2659 392 2848 
Q 494 3038 669 3163 
Q 800 3259 1026 3326 
Q 1253 3394 1513 3394 
Q 1903 3394 2198 3281 
Q 2494 3169 2634 2976 
Q 2775 2784 2828 2463 
L 2278 2388 
Q 2241 2644 2061 2787 
Q 1881 2931 1553 2931 
Q 1166 2931 1000 2803 
Q 834 2675 834 2503 
Q 834 2394 903 2306 
Q 972 2216 1119 2156 
Q 1203 2125 1616 2013 
Q 2213 1853 2448 1751 
Q 2684 1650 2818 1456 
Q 2953 1263 2953 975 
Q 2953 694 2789 445 
Q 2625 197 2315 61 
Q 2006 -75 1616 -75 
Q 969 -75 630 194 
Q 291 463 197 991 
z
" transform="scale(0.015625)"/>
      <path id="ArialMT-20" transform="scale(0.015625)"/>
      <path id="ArialMT-52" d="M 503 0 
L 503 4581 
L 2534 4581 
Q 3147 4581 3465 4457 
Q 3784 4334 3975 4021 
Q 4166 3709 4166 3331 
Q 4166 2844 3850 2509 
Q 3534 2175 2875 2084 
Q 3116 1969 3241 1856 
Q 3506 1613 3744 1247 
L 4541 0 
L 3778 0 
L 3172 953 
Q 2906 1366 2734 1584 
Q 2563 1803 2427 1890 
Q 2291 1978 2150 2013 
Q 2047 2034 1813 2034 
L 1109 2034 
L 1109 0 
L 503 0 
z
M 1109 2559 
L 2413 2559 
Q 2828 2559 3062 2645 
Q 3297 2731 3419 2920 
Q 3541 3109 3541 3331 
Q 3541 3656 3305 3865 
Q 3069 4075 2559 4075 
L 1109 4075 
L 1109 2559 
z
" transform="scale(0.015625)"/>
      <path id="ArialMT-42" d="M 469 0 
L 469 4581 
L 2188 4581 
Q 2713 4581 3030 4442 
Q 3347 4303 3526 4014 
Q 3706 3725 3706 3409 
Q 3706 3116 3547 2856 
Q 3388 2597 3066 2438 
Q 3481 2316 3704 2022 
Q 3928 1728 3928 1328 
Q 3928 1006 3792 729 
Q 3656 453 3456 303 
Q 3256 153 2954 76 
Q 2653 0 2216 0 
L 469 0 
z
M 1075 2656 
L 2066 2656 
Q 2469 2656 2644 2709 
Q 2875 2778 2992 2937 
Q 3109 3097 3109 3338 
Q 3109 3566 3000 3739 
Q 2891 3913 2687 3977 
Q 2484 4041 1991 4041 
L 1075 4041 
L 1075 2656 
z
M 1075 541 
L 2216 541 
Q 2509 541 2628 563 
Q 2838 600 2978 687 
Q 3119 775 3209 942 
Q 3300 1109 3300 1328 
Q 3300 1584 3169 1773 
Q 3038 1963 2805 2039 
Q 2572 2116 2134 2116 
L 1075 2116 
L 1075 541 
z
" transform="scale(0.015625)"/>
      <path id="ArialMT-46" d="M 525 0 
L 525 4581 
L 3616 4581 
L 3616 4041 
L 1131 4041 
L 1131 2622 
L 3281 2622 
L 3281 2081 
L 1131 2081 
L 1131 0 
L 525 0 
z
" transform="scale(0.015625)"/>
      <path id="ArialMT-6b" d="M 425 0 
L 425 4581 
L 988 4581 
L 988 1969 
L 2319 3319 
L 3047 3319 
L 1778 2088 
L 3175 0 
L 2481 0 
L 1384 1697 
L 988 1316 
L 988 0 
L 425 0 
z
" transform="scale(0.015625)"/>
      <path id="ArialMT-72" d="M 416 0 
L 416 3319 
L 922 3319 
L 922 2816 
Q 1116 3169 1280 3281 
Q 1444 3394 1641 3394 
Q 1925 3394 2219 3213 
L 2025 2691 
Q 1819 2813 1613 2813 
Q 1428 2813 1281 2702 
Q 1134 2591 1072 2394 
Q 978 2094 978 1738 
L 978 0 
L 416 0 
z
" transform="scale(0.015625)"/>
      <path id="ArialMT-6c" d="M 409 0 
L 409 4581 
L 972 4581 
L 972 0 
L 409 0 
z
" transform="scale(0.015625)"/>
      <path id="ArialMT-77" d="M 1034 0 
L 19 3319 
L 600 3319 
L 1128 1403 
L 1325 691 
Q 1338 744 1497 1375 
L 2025 3319 
L 2603 3319 
L 3100 1394 
L 3266 759 
L 3456 1400 
L 4025 3319 
L 4572 3319 
L 3534 0 
L 2950 0 
L 2422 1988 
L 2294 2553 
L 1622 0 
L 1034 0 
z
" transform="scale(0.015625)"/>
      <path id="ArialMT-68" d="M 422 0 
L 422 4581 
L 984 4581 
L 984 2938 
Q 1378 3394 1978 3394 
Q 2347 3394 2619 3248 
Q 2891 3103 3008 2847 
Q 3125 2591 3125 2103 
L 3125 0 
L 2563 0 
L 2563 2103 
Q 2563 2525 2380 2717 
Q 2197 2909 1863 2909 
Q 1613 2909 1392 2779 
Q 1172 2650 1078 2428 
Q 984 2206 984 1816 
L 984 0 
L 422 0 
z
" transform="scale(0.015625)"/>
      <path id="ArialMT-62" d="M 941 0 
L 419 0 
L 419 4581 
L 981 4581 
L 981 2947 
Q 1338 3394 1891 3394 
Q 2197 3394 2470 3270 
Q 2744 3147 2920 2923 
Q 3097 2700 3197 2384 
Q 3297 2069 3297 1709 
Q 3297 856 2875 390 
Q 2453 -75 1863 -75 
Q 1275 -75 941 416 
L 941 0 
z
M 934 1684 
Q 934 1088 1097 822 
Q 1363 388 1816 388 
Q 2184 388 2453 708 
Q 2722 1028 2722 1663 
Q 2722 2313 2464 2622 
Q 2206 2931 1841 2931 
Q 1472 2931 1203 2611 
Q 934 2291 934 1684 
z
" transform="scale(0.015625)"/>
      <path id="ArialMT-76" d="M 1344 0 
L 81 3319 
L 675 3319 
L 1388 1331 
Q 1503 1009 1600 663 
Q 1675 925 1809 1294 
L 2547 3319 
L 3125 3319 
L 1869 0 
L 1344 0 
z
" transform="scale(0.015625)"/>
      <path id="ArialMT-61" d="M 2588 409 
Q 2275 144 1986 34 
Q 1697 -75 1366 -75 
Q 819 -75 525 192 
Q 231 459 231 875 
Q 231 1119 342 1320 
Q 453 1522 633 1644 
Q 813 1766 1038 1828 
Q 1203 1872 1538 1913 
Q 2219 1994 2541 2106 
Q 2544 2222 2544 2253 
Q 2544 2597 2384 2738 
Q 2169 2928 1744 2928 
Q 1347 2928 1158 2789 
Q 969 2650 878 2297 
L 328 2372 
Q 403 2725 575 2942 
Q 747 3159 1072 3276 
Q 1397 3394 1825 3394 
Q 2250 3394 2515 3294 
Q 2781 3194 2906 3042 
Q 3031 2891 3081 2659 
Q 3109 2516 3109 2141 
L 3109 1391 
Q 3109 606 3145 398 
Q 3181 191 3288 0 
L 2700 0 
Q 2613 175 2588 409 
z
M 2541 1666 
Q 2234 1541 1622 1453 
Q 1275 1403 1131 1340 
Q 988 1278 909 1158 
Q 831 1038 831 891 
Q 831 666 1001 516 
Q 1172 366 1500 366 
Q 1825 366 2078 508 
Q 2331 650 2450 897 
Q 2541 1088 2541 1459 
L 2541 1666 
z
" transform="scale(0.015625)"/>
     </defs>
     <use xlink:href="#ArialMT-45"/>
     <use xlink:href="#ArialMT-69" x="66.699219"/>
     <use xlink:href="#ArialMT-67" x="88.916016"/>
     <use xlink:href="#ArialMT-65" x="144.53125"/>
     <use xlink:href="#ArialMT-6e" x="200.146484"/>
     <use xlink:href="#ArialMT-66" x="255.761719"/>
     <use xlink:href="#ArialMT-75" x="283.544922"/>
     <use xlink:href="#ArialMT-6e" x="339.160156"/>
     <use xlink:href="#ArialMT-63" x="394.775391"/>
     <use xlink:href="#ArialMT-74" x="444.775391"/>
     <use xlink:href="#ArialMT-69" x="472.558594"/>
     <use xlink:href="#ArialMT-6f" x="494.775391"/>
     <use xlink:href="#ArialMT-6e" x="550.390625"/>
     <use xlink:href="#ArialMT-73" x="606.005859"/>
     <use xlink:href="#ArialMT-20" x="656.005859"/>
     <use xlink:href="#ArialMT-6f" x="683.789062"/>
     <use xlink:href="#ArialMT-66" x="739.404297"/>
     <use xlink:href="#ArialMT-20" x="767.1875"/>
     <use xlink:href="#ArialMT-52" x="794.970703"/>
     <use xlink:href="#ArialMT-42" x="867.1875"/>
     <use xlink:href="#ArialMT-46" x="933.886719"/>
     <use xlink:href="#ArialMT-20" x="994.970703"/>
     <use xlink:href="#ArialMT-6b" x="1022.753906"/>
     <use xlink:href="#ArialMT-65" x="1072.753906"/>
     <use xlink:href="#ArialMT-72" x="1128.369141"/>
     <use xlink:href="#ArialMT-6e" x="1161.669922"/>
     <use xlink:href="#ArialMT-65" x="1217.285156"/>
     <use xlink:href="#ArialMT-6c" x="1272.900391"/>
     <use xlink:href="#ArialMT-20" x="1295.117188"/>
     <use xlink:href="#ArialMT-77" x="1322.900391"/>
     <use xlink:href="#ArialMT-69" x="1395.117188"/>
     <use xlink:href="#ArialMT-74" x="1417.333984"/>
     <use xlink:href="#ArialMT-68" x="1445.117188"/>
     <use xlink:href="#ArialMT-20" x="1500.732422"/>
     <use xlink:href="#ArialMT-6f" x="1528.515625"/>
     <use xlink:href="#ArialMT-62" x="1584.130859"/>
     <use xlink:href="#ArialMT-73" x="1639.746094"/>
     <use xlink:href="#ArialMT-65" x="1689.746094"/>
     <use xlink:href="#ArialMT-72" x="1745.361328"/>
     <use xlink:href="#ArialMT-76" x="1778.662109"/>
     <use xlink:href="#ArialMT-61" x="1828.662109"/>
     <use xlink:href="#ArialMT-74" x="1884.277344"/>
     <use xlink:href="#ArialMT-69" x="1912.060547"/>
     <use xlink:href="#ArialMT-6f" x="1934.277344"/>
     <use xlink:href="#ArialMT-6e" x="1989.892578"/>
     <use xlink:href="#ArialMT-73" x="2045.507812"/>
    </g>
   </g>
  </g>
 </g>
 <defs>
  <clipPath id="pf5783ef799">
   <rect x="38.845375" y="24.8475" width="357.12" height="266.112"/>
  </clipPath>
 </defs>
</svg>