<?xml version="1.0" encoding="utf-8" standalone="no"?>
<!DOCTYPE svg PUBLIC "-//W3C//DTD SVG 1.1//EN"
  "http://www.w3.org/Graphics/SVG/1.1/DTD/svg11.dtd">
<svg xmlns:xlink="http://www.w3.org/1999/xlink" width="371.52pt" height="331.419875pt" viewBox="0 0 371.52 331.419875" xmlns="http://www.w3.org/2000/svg" version="1.1">
 <metadata>
  <rdf:RDF xmlns:dc="http://purl.org/dc/elements/1.1/" xmlns:cc="http://creativecommons.org/ns#" xmlns:rdf="http://www.w3.org/1999/02/22-rdf-syntax-ns#">
   <cc:Work>
    <dc:type rdf:resource="http://purl.org/dc/dcmitype/StillImage"/>
    <dc:date>2025-02-28T23:35:12.327973</dc:date>
    <dc:format>image/svg+xml</dc:format>
    <dc:creator>
     <cc:Agent>
      <dc:title>Matplotlib v3.9.2, https://matplotlib.org/</dc:title>
     </cc:Agent>
    </dc:creator>
   </cc:Work>
  </rdf:RDF>
 </metadata>
 <defs>
  <style type="text/css">*{stroke-linejoin: round; stroke-linecap: butt}</style>
 </defs>
 <g id="figure_1">
  <g id="patch_1">
   <path d="M 0 331.419875 
L 371.52 331.419875 
L 371.52 0 
L 0 0 
z
" style="fill: #ffffff"/>
  </g>
  <g id="axes_1">
   <g id="patch_2">
    <path d="M 7.2 307.872 
L 364.32 307.872 
L 364.32 41.76 
L 7.2 41.76 
z
" style="fill: #ffffff"/>
   </g>
   <g id="matplotlib.axis_1">
    <g id="xtick_1">
     <g id="line2d_1">
      <defs>
       <path id="m7f8db26ec1" d="M 0 0 
L 0 4.8 
" style="stroke: #262626"/>
      </defs>
      <g>
       <use xlink:href="#m7f8db26ec1" x="14.154508" y="307.872" style="fill: #262626; stroke: #262626"/>
      </g>
     </g>
     <g id="text_1">
      <!-- −8 -->
      <g style="fill: #262626" transform="translate(9.13782 322.470875) scale(0.088 -0.088)">
       <defs>
        <path id="ArialMT-2212" d="M 3381 1997 
L 356 1997 
L 356 2522 
L 3381 2522 
L 3381 1997 
z
" transform="scale(0.015625)"/>
        <path id="ArialMT-38" d="M 1131 2484 
Q 781 2613 612 2850 
Q 444 3088 444 3419 
Q 444 3919 803 4259 
Q 1163 4600 1759 4600 
Q 2359 4600 2725 4251 
Q 3091 3903 3091 3403 
Q 3091 3084 2923 2848 
Q 2756 2613 2416 2484 
Q 2838 2347 3058 2040 
Q 3278 1734 3278 1309 
Q 3278 722 2862 322 
Q 2447 -78 1769 -78 
Q 1091 -78 675 323 
Q 259 725 259 1325 
Q 259 1772 486 2073 
Q 713 2375 1131 2484 
z
M 1019 3438 
Q 1019 3113 1228 2906 
Q 1438 2700 1772 2700 
Q 2097 2700 2305 2904 
Q 2513 3109 2513 3406 
Q 2513 3716 2298 3927 
Q 2084 4138 1766 4138 
Q 1444 4138 1231 3931 
Q 1019 3725 1019 3438 
z
M 838 1322 
Q 838 1081 952 856 
Q 1066 631 1291 507 
Q 1516 384 1775 384 
Q 2178 384 2440 643 
Q 2703 903 2703 1303 
Q 2703 1709 2433 1975 
Q 2163 2241 1756 2241 
Q 1359 2241 1098 1978 
Q 838 1716 838 1322 
z
" transform="scale(0.015625)"/>
       </defs>
       <use xlink:href="#ArialMT-2212"/>
       <use xlink:href="#ArialMT-38" x="58.398438"/>
      </g>
     </g>
    </g>
    <g id="xtick_2">
     <g id="line2d_2">
      <g>
       <use xlink:href="#m7f8db26ec1" x="59.435776" y="307.872" style="fill: #262626; stroke: #262626"/>
      </g>
     </g>
     <g id="text_2">
      <!-- −6 -->
      <g style="fill: #262626" transform="translate(54.419089 322.470875) scale(0.088 -0.088)">
       <defs>
        <path id="ArialMT-36" d="M 3184 3459 
L 2625 3416 
Q 2550 3747 2413 3897 
Q 2184 4138 1850 4138 
Q 1581 4138 1378 3988 
Q 1113 3794 959 3422 
Q 806 3050 800 2363 
Q 1003 2672 1297 2822 
Q 1591 2972 1913 2972 
Q 2475 2972 2870 2558 
Q 3266 2144 3266 1488 
Q 3266 1056 3080 686 
Q 2894 316 2569 119 
Q 2244 -78 1831 -78 
Q 1128 -78 684 439 
Q 241 956 241 2144 
Q 241 3472 731 4075 
Q 1159 4600 1884 4600 
Q 2425 4600 2770 4297 
Q 3116 3994 3184 3459 
z
M 888 1484 
Q 888 1194 1011 928 
Q 1134 663 1356 523 
Q 1578 384 1822 384 
Q 2178 384 2434 671 
Q 2691 959 2691 1453 
Q 2691 1928 2437 2201 
Q 2184 2475 1800 2475 
Q 1419 2475 1153 2201 
Q 888 1928 888 1484 
z
" transform="scale(0.015625)"/>
       </defs>
       <use xlink:href="#ArialMT-2212"/>
       <use xlink:href="#ArialMT-36" x="58.398438"/>
      </g>
     </g>
    </g>
    <g id="xtick_3">
     <g id="line2d_3">
      <g>
       <use xlink:href="#m7f8db26ec1" x="104.717045" y="307.872" style="fill: #262626; stroke: #262626"/>
      </g>
     </g>
     <g id="text_3">
      <!-- −4 -->
      <g style="fill: #262626" transform="translate(99.700357 322.470875) scale(0.088 -0.088)">
       <defs>
        <path id="ArialMT-34" d="M 2069 0 
L 2069 1097 
L 81 1097 
L 81 1613 
L 2172 4581 
L 2631 4581 
L 2631 1613 
L 3250 1613 
L 3250 1097 
L 2631 1097 
L 2631 0 
L 2069 0 
z
M 2069 1613 
L 2069 3678 
L 634 1613 
L 2069 1613 
z
" transform="scale(0.015625)"/>
       </defs>
       <use xlink:href="#ArialMT-2212"/>
       <use xlink:href="#ArialMT-34" x="58.398438"/>
      </g>
     </g>
    </g>
    <g id="xtick_4">
     <g id="line2d_4">
      <g>
       <use xlink:href="#m7f8db26ec1" x="149.998314" y="307.872" style="fill: #262626; stroke: #262626"/>
      </g>
     </g>
     <g id="text_4">
      <!-- −2 -->
      <g style="fill: #262626" transform="translate(144.981626 322.470875) scale(0.088 -0.088)">
       <defs>
        <path id="ArialMT-32" d="M 3222 541 
L 3222 0 
L 194 0 
Q 188 203 259 391 
Q 375 700 629 1000 
Q 884 1300 1366 1694 
Q 2113 2306 2375 2664 
Q 2638 3022 2638 3341 
Q 2638 3675 2398 3904 
Q 2159 4134 1775 4134 
Q 1369 4134 1125 3890 
Q 881 3647 878 3216 
L 300 3275 
Q 359 3922 746 4261 
Q 1134 4600 1788 4600 
Q 2447 4600 2831 4234 
Q 3216 3869 3216 3328 
Q 3216 3053 3103 2787 
Q 2991 2522 2730 2228 
Q 2469 1934 1863 1422 
Q 1356 997 1212 845 
Q 1069 694 975 541 
L 3222 541 
z
" transform="scale(0.015625)"/>
       </defs>
       <use xlink:href="#ArialMT-2212"/>
       <use xlink:href="#ArialMT-32" x="58.398438"/>
      </g>
     </g>
    </g>
    <g id="xtick_5">
     <g id="line2d_5">
      <g>
       <use xlink:href="#m7f8db26ec1" x="195.279582" y="307.872" style="fill: #262626; stroke: #262626"/>
      </g>
     </g>
     <g id="text_5">
      <!-- 0 -->
      <g style="fill: #262626" transform="translate(192.83277 322.470875) scale(0.088 -0.088)">
       <defs>
        <path id="ArialMT-30" d="M 266 2259 
Q 266 3072 433 3567 
Q 600 4063 929 4331 
Q 1259 4600 1759 4600 
Q 2128 4600 2406 4451 
Q 2684 4303 2865 4023 
Q 3047 3744 3150 3342 
Q 3253 2941 3253 2259 
Q 3253 1453 3087 958 
Q 2922 463 2592 192 
Q 2263 -78 1759 -78 
Q 1097 -78 719 397 
Q 266 969 266 2259 
z
M 844 2259 
Q 844 1131 1108 757 
Q 1372 384 1759 384 
Q 2147 384 2411 759 
Q 2675 1134 2675 2259 
Q 2675 3391 2411 3762 
Q 2147 4134 1753 4134 
Q 1366 4134 1134 3806 
Q 844 3388 844 2259 
z
" transform="scale(0.015625)"/>
       </defs>
       <use xlink:href="#ArialMT-30"/>
      </g>
     </g>
    </g>
    <g id="xtick_6">
     <g id="line2d_6">
      <g>
       <use xlink:href="#m7f8db26ec1" x="240.560851" y="307.872" style="fill: #262626; stroke: #262626"/>
      </g>
     </g>
     <g id="text_6">
      <!-- 2 -->
      <g style="fill: #262626" transform="translate(238.114038 322.470875) scale(0.088 -0.088)">
       <use xlink:href="#ArialMT-32"/>
      </g>
     </g>
    </g>
    <g id="xtick_7">
     <g id="line2d_7">
      <g>
       <use xlink:href="#m7f8db26ec1" x="285.84212" y="307.872" style="fill: #262626; stroke: #262626"/>
      </g>
     </g>
     <g id="text_7">
      <!-- 4 -->
      <g style="fill: #262626" transform="translate(283.395307 322.470875) scale(0.088 -0.088)">
       <use xlink:href="#ArialMT-34"/>
      </g>
     </g>
    </g>
    <g id="xtick_8">
     <g id="line2d_8">
      <g>
       <use xlink:href="#m7f8db26ec1" x="331.123388" y="307.872" style="fill: #262626; stroke: #262626"/>
      </g>
     </g>
     <g id="text_8">
      <!-- 6 -->
      <g style="fill: #262626" transform="translate(328.676576 322.470875) scale(0.088 -0.088)">
       <use xlink:href="#ArialMT-36"/>
      </g>
     </g>
    </g>
   </g>
   <g id="matplotlib.axis_2"/>
   <g id="patch_3">
    <path d="M 23.432727 307.872 
L 34.254545 307.872 
L 34.254545 305.210433 
L 23.432727 305.210433 
z
" clip-path="url(#p3e98804fec)" style="fill: #1f77b4; stroke: #ffffff; stroke-width: 0.8; stroke-linejoin: miter"/>
   </g>
   <g id="patch_4">
    <path d="M 34.254545 307.872 
L 45.076364 307.872 
L 45.076364 307.872 
L 34.254545 307.872 
z
" clip-path="url(#p3e98804fec)" style="fill: #1f77b4; stroke: #ffffff; stroke-width: 0.8; stroke-linejoin: miter"/>
   </g>
   <g id="patch_5">
    <path d="M 45.076364 307.872 
L 55.898182 307.872 
L 55.898182 299.8873 
L 45.076364 299.8873 
z
" clip-path="url(#p3e98804fec)" style="fill: #1f77b4; stroke: #ffffff; stroke-width: 0.8; stroke-linejoin: miter"/>
   </g>
   <g id="patch_6">
    <path d="M 55.898182 307.872 
L 66.72 307.872 
L 66.72 305.210433 
L 55.898182 305.210433 
z
" clip-path="url(#p3e98804fec)" style="fill: #1f77b4; stroke: #ffffff; stroke-width: 0.8; stroke-linejoin: miter"/>
   </g>
   <g id="patch_7">
    <path d="M 66.72 307.872 
L 77.541818 307.872 
L 77.541818 299.8873 
L 66.72 299.8873 
z
" clip-path="url(#p3e98804fec)" style="fill: #1f77b4; stroke: #ffffff; stroke-width: 0.8; stroke-linejoin: miter"/>
   </g>
   <g id="patch_8">
    <path d="M 77.541818 307.872 
L 88.363636 307.872 
L 88.363636 299.8873 
L 77.541818 299.8873 
z
" clip-path="url(#p3e98804fec)" style="fill: #1f77b4; stroke: #ffffff; stroke-width: 0.8; stroke-linejoin: miter"/>
   </g>
   <g id="patch_9">
    <path d="M 88.363636 307.872 
L 99.185455 307.872 
L 99.185455 294.564167 
L 88.363636 294.564167 
z
" clip-path="url(#p3e98804fec)" style="fill: #1f77b4; stroke: #ffffff; stroke-width: 0.8; stroke-linejoin: miter"/>
   </g>
   <g id="patch_10">
    <path d="M 99.185455 307.872 
L 110.007273 307.872 
L 110.007273 305.210433 
L 99.185455 305.210433 
z
" clip-path="url(#p3e98804fec)" style="fill: #1f77b4; stroke: #ffffff; stroke-width: 0.8; stroke-linejoin: miter"/>
   </g>
   <g id="patch_11">
    <path d="M 110.007273 307.872 
L 120.829091 307.872 
L 120.829091 281.256334 
L 110.007273 281.256334 
z
" clip-path="url(#p3e98804fec)" style="fill: #1f77b4; stroke: #ffffff; stroke-width: 0.8; stroke-linejoin: miter"/>
   </g>
   <g id="patch_12">
    <path d="M 120.829091 307.872 
L 131.650909 307.872 
L 131.650909 286.579467 
L 120.829091 286.579467 
z
" clip-path="url(#p3e98804fec)" style="fill: #1f77b4; stroke: #ffffff; stroke-width: 0.8; stroke-linejoin: miter"/>
   </g>
   <g id="patch_13">
    <path d="M 131.650909 307.872 
L 142.472727 307.872 
L 142.472727 251.979101 
L 131.650909 251.979101 
z
" clip-path="url(#p3e98804fec)" style="fill: #1f77b4; stroke: #ffffff; stroke-width: 0.8; stroke-linejoin: miter"/>
   </g>
   <g id="patch_14">
    <path d="M 142.472727 307.872 
L 153.294545 307.872 
L 153.294545 259.963801 
L 142.472727 259.963801 
z
" clip-path="url(#p3e98804fec)" style="fill: #1f77b4; stroke: #ffffff; stroke-width: 0.8; stroke-linejoin: miter"/>
   </g>
   <g id="patch_15">
    <path d="M 153.294545 307.872 
L 164.116364 307.872 
L 164.116364 236.009702 
L 153.294545 236.009702 
z
" clip-path="url(#p3e98804fec)" style="fill: #1f77b4; stroke: #ffffff; stroke-width: 0.8; stroke-linejoin: miter"/>
   </g>
   <g id="patch_16">
    <path d="M 164.116364 307.872 
L 174.938182 307.872 
L 174.938182 169.470537 
L 164.116364 169.470537 
z
" clip-path="url(#p3e98804fec)" style="fill: #1f77b4; stroke: #ffffff; stroke-width: 0.8; stroke-linejoin: miter"/>
   </g>
   <g id="patch_17">
    <path d="M 174.938182 307.872 
L 185.76 307.872 
L 185.76 156.162704 
L 174.938182 156.162704 
z
" clip-path="url(#p3e98804fec)" style="fill: #1f77b4; stroke: #ffffff; stroke-width: 0.8; stroke-linejoin: miter"/>
   </g>
   <g id="patch_18">
    <path d="M 185.76 307.872 
L 196.581818 307.872 
L 196.581818 150.839571 
L 185.76 150.839571 
z
" clip-path="url(#p3e98804fec)" style="fill: #1f77b4; stroke: #ffffff; stroke-width: 0.8; stroke-linejoin: miter"/>
   </g>
   <g id="patch_19">
    <path d="M 196.581818 307.872 
L 207.403636 307.872 
L 207.403636 177.455237 
L 196.581818 177.455237 
z
" clip-path="url(#p3e98804fec)" style="fill: #1f77b4; stroke: #ffffff; stroke-width: 0.8; stroke-linejoin: miter"/>
   </g>
   <g id="patch_20">
    <path d="M 207.403636 307.872 
L 218.225455 307.872 
L 218.225455 134.870171 
L 207.403636 134.870171 
z
" clip-path="url(#p3e98804fec)" style="fill: #1f77b4; stroke: #ffffff; stroke-width: 0.8; stroke-linejoin: miter"/>
   </g>
   <g id="patch_21">
    <path d="M 218.225455 307.872 
L 229.047273 307.872 
L 229.047273 198.747769 
L 218.225455 198.747769 
z
" clip-path="url(#p3e98804fec)" style="fill: #1f77b4; stroke: #ffffff; stroke-width: 0.8; stroke-linejoin: miter"/>
   </g>
   <g id="patch_22">
    <path d="M 229.047273 307.872 
L 239.869091 307.872 
L 239.869091 236.009702 
L 229.047273 236.009702 
z
" clip-path="url(#p3e98804fec)" style="fill: #1f77b4; stroke: #ffffff; stroke-width: 0.8; stroke-linejoin: miter"/>
   </g>
   <g id="patch_23">
    <path d="M 239.869091 307.872 
L 250.690909 307.872 
L 250.690909 249.317535 
L 239.869091 249.317535 
z
" clip-path="url(#p3e98804fec)" style="fill: #1f77b4; stroke: #ffffff; stroke-width: 0.8; stroke-linejoin: miter"/>
   </g>
   <g id="patch_24">
    <path d="M 250.690909 307.872 
L 261.512727 307.872 
L 261.512727 278.594767 
L 250.690909 278.594767 
z
" clip-path="url(#p3e98804fec)" style="fill: #1f77b4; stroke: #ffffff; stroke-width: 0.8; stroke-linejoin: miter"/>
   </g>
   <g id="patch_25">
    <path d="M 261.512727 307.872 
L 272.334545 307.872 
L 272.334545 291.9026 
L 261.512727 291.9026 
z
" clip-path="url(#p3e98804fec)" style="fill: #1f77b4; stroke: #ffffff; stroke-width: 0.8; stroke-linejoin: miter"/>
   </g>
   <g id="patch_26">
    <path d="M 272.334545 307.872 
L 283.156364 307.872 
L 283.156364 294.564167 
L 272.334545 294.564167 
z
" clip-path="url(#p3e98804fec)" style="fill: #1f77b4; stroke: #ffffff; stroke-width: 0.8; stroke-linejoin: miter"/>
   </g>
   <g id="patch_27">
    <path d="M 283.156364 307.872 
L 293.978182 307.872 
L 293.978182 302.548867 
L 283.156364 302.548867 
z
" clip-path="url(#p3e98804fec)" style="fill: #1f77b4; stroke: #ffffff; stroke-width: 0.8; stroke-linejoin: miter"/>
   </g>
   <g id="patch_28">
    <path d="M 293.978182 307.872 
L 304.8 307.872 
L 304.8 305.210433 
L 293.978182 305.210433 
z
" clip-path="url(#p3e98804fec)" style="fill: #1f77b4; stroke: #ffffff; stroke-width: 0.8; stroke-linejoin: miter"/>
   </g>
   <g id="patch_29">
    <path d="M 304.8 307.872 
L 315.621818 307.872 
L 315.621818 307.872 
L 304.8 307.872 
z
" clip-path="url(#p3e98804fec)" style="fill: #1f77b4; stroke: #ffffff; stroke-width: 0.8; stroke-linejoin: miter"/>
   </g>
   <g id="patch_30">
    <path d="M 315.621818 307.872 
L 326.443636 307.872 
L 326.443636 307.872 
L 315.621818 307.872 
z
" clip-path="url(#p3e98804fec)" style="fill: #1f77b4; stroke: #ffffff; stroke-width: 0.8; stroke-linejoin: miter"/>
   </g>
   <g id="patch_31">
    <path d="M 326.443636 307.872 
L 337.265455 307.872 
L 337.265455 305.210433 
L 326.443636 305.210433 
z
" clip-path="url(#p3e98804fec)" style="fill: #1f77b4; stroke: #ffffff; stroke-width: 0.8; stroke-linejoin: miter"/>
   </g>
   <g id="patch_32">
    <path d="M 337.265455 307.872 
L 348.087273 307.872 
L 348.087273 305.210433 
L 337.265455 305.210433 
z
" clip-path="url(#p3e98804fec)" style="fill: #1f77b4; stroke: #ffffff; stroke-width: 0.8; stroke-linejoin: miter"/>
   </g>
   <g id="line2d_9">
    <path d="M 82.076411 307.871054 
L 84.363343 307.870441 
L 86.650276 307.869456 
L 88.937209 307.86789 
L 91.224142 307.865429 
L 93.511074 307.861599 
L 95.798007 307.855706 
L 98.08494 307.846732 
L 100.371873 307.833214 
L 102.658805 307.813068 
L 104.945738 307.783366 
L 107.232671 307.740049 
L 109.519604 307.677556 
L 111.806537 307.588374 
L 114.093469 307.462488 
L 116.380402 307.28673 
L 118.667335 307.04403 
L 120.954268 306.712578 
L 123.2412 306.26492 
L 125.528133 305.667031 
L 127.815066 304.877419 
L 130.101999 303.846325 
L 132.388931 302.515141 
L 134.675864 300.81613 
L 136.962797 298.672594 
L 139.24973 295.999617 
L 141.536662 292.705517 
L 143.823595 288.694114 
L 146.110528 283.867898 
L 148.397461 278.132129 
L 150.684393 271.399833 
L 152.971326 263.597576 
L 155.258259 254.671813 
L 157.545192 244.595526 
L 159.832124 233.374747 
L 162.119057 221.054531 
L 164.40599 207.723867 
L 166.692923 193.519024 
L 168.979856 178.624854 
L 171.266788 163.273653 
L 173.553721 147.741311 
L 175.840654 132.340652 
L 178.127587 117.412043 
L 180.414519 103.311606 
L 182.701452 90.397522 
L 184.988385 79.015149 
L 187.275318 69.481791 
L 189.56225 62.072052 
L 191.849183 57.004712 
L 194.136116 54.432 
L 196.423049 54.432 
L 198.709981 57.004712 
L 200.996914 62.072052 
L 203.283847 69.481791 
L 205.57078 79.015149 
L 207.857712 90.397522 
L 210.144645 103.311606 
L 212.431578 117.412043 
L 214.718511 132.340652 
L 217.005444 147.741311 
L 219.292376 163.273653 
L 221.579309 178.624854 
L 223.866242 193.519024 
L 226.153175 207.723867 
L 228.440107 221.054531 
L 230.72704 233.374747 
L 233.013973 244.595526 
L 235.300906 254.671813 
L 237.587838 263.597576 
L 239.874771 271.399833 
L 242.161704 278.132129 
L 244.448637 283.867898 
L 246.735569 288.694114 
L 249.022502 292.705517 
L 251.309435 295.999617 
L 253.596368 298.672594 
L 255.8833 300.81613 
L 258.170233 302.515141 
L 260.457166 303.846325 
L 262.744099 304.877419 
L 265.031032 305.667031 
L 267.317964 306.26492 
L 269.604897 306.712578 
L 271.89183 307.04403 
L 274.178763 307.28673 
L 276.465695 307.462488 
L 278.752628 307.588374 
L 281.039561 307.677556 
L 283.326494 307.740049 
L 285.613426 307.783366 
L 287.900359 307.813068 
L 290.187292 307.833214 
L 292.474225 307.846732 
L 294.761157 307.855706 
L 297.04809 307.861599 
L 299.335023 307.865429 
L 301.621956 307.86789 
L 303.908888 307.869456 
L 306.195821 307.870441 
L 308.482754 307.871054 
" clip-path="url(#p3e98804fec)" style="fill: none; stroke-dasharray: 7.4,3.2; stroke-dashoffset: 0; stroke: #ff0000; stroke-width: 2"/>
   </g>
   <g id="patch_33">
    <path d="M 14.154508 307.872 
L 331.123388 307.872 
" style="fill: none; stroke: #262626; stroke-linejoin: miter; stroke-linecap: square"/>
   </g>
   <g id="text_9">
    <!-- Scaled injection time -->
    <g style="fill: #262626" transform="translate(141.7395 35.76) scale(0.096 -0.096)">
     <defs>
      <path id="ArialMT-53" d="M 288 1472 
L 859 1522 
Q 900 1178 1048 958 
Q 1197 738 1509 602 
Q 1822 466 2213 466 
Q 2559 466 2825 569 
Q 3091 672 3220 851 
Q 3350 1031 3350 1244 
Q 3350 1459 3225 1620 
Q 3100 1781 2813 1891 
Q 2628 1963 1997 2114 
Q 1366 2266 1113 2400 
Q 784 2572 623 2826 
Q 463 3081 463 3397 
Q 463 3744 659 4045 
Q 856 4347 1234 4503 
Q 1613 4659 2075 4659 
Q 2584 4659 2973 4495 
Q 3363 4331 3572 4012 
Q 3781 3694 3797 3291 
L 3216 3247 
Q 3169 3681 2898 3903 
Q 2628 4125 2100 4125 
Q 1550 4125 1298 3923 
Q 1047 3722 1047 3438 
Q 1047 3191 1225 3031 
Q 1400 2872 2139 2705 
Q 2878 2538 3153 2413 
Q 3553 2228 3743 1945 
Q 3934 1663 3934 1294 
Q 3934 928 3725 604 
Q 3516 281 3123 101 
Q 2731 -78 2241 -78 
Q 1619 -78 1198 103 
Q 778 284 539 648 
Q 300 1013 288 1472 
z
" transform="scale(0.015625)"/>
      <path id="ArialMT-63" d="M 2588 1216 
L 3141 1144 
Q 3050 572 2676 248 
Q 2303 -75 1759 -75 
Q 1078 -75 664 370 
Q 250 816 250 1647 
Q 250 2184 428 2587 
Q 606 2991 970 3192 
Q 1334 3394 1763 3394 
Q 2303 3394 2647 3120 
Q 2991 2847 3088 2344 
L 2541 2259 
Q 2463 2594 2264 2762 
Q 2066 2931 1784 2931 
Q 1359 2931 1093 2626 
Q 828 2322 828 1663 
Q 828 994 1084 691 
Q 1341 388 1753 388 
Q 2084 388 2306 591 
Q 2528 794 2588 1216 
z
" transform="scale(0.015625)"/>
      <path id="ArialMT-61" d="M 2588 409 
Q 2275 144 1986 34 
Q 1697 -75 1366 -75 
Q 819 -75 525 192 
Q 231 459 231 875 
Q 231 1119 342 1320 
Q 453 1522 633 1644 
Q 813 1766 1038 1828 
Q 1203 1872 1538 1913 
Q 2219 1994 2541 2106 
Q 2544 2222 2544 2253 
Q 2544 2597 2384 2738 
Q 2169 2928 1744 2928 
Q 1347 2928 1158 2789 
Q 969 2650 878 2297 
L 328 2372 
Q 403 2725 575 2942 
Q 747 3159 1072 3276 
Q 1397 3394 1825 3394 
Q 2250 3394 2515 3294 
Q 2781 3194 2906 3042 
Q 3031 2891 3081 2659 
Q 3109 2516 3109 2141 
L 3109 1391 
Q 3109 606 3145 398 
Q 3181 191 3288 0 
L 2700 0 
Q 2613 175 2588 409 
z
M 2541 1666 
Q 2234 1541 1622 1453 
Q 1275 1403 1131 1340 
Q 988 1278 909 1158 
Q 831 1038 831 891 
Q 831 666 1001 516 
Q 1172 366 1500 366 
Q 1825 366 2078 508 
Q 2331 650 2450 897 
Q 2541 1088 2541 1459 
L 2541 1666 
z
" transform="scale(0.015625)"/>
      <path id="ArialMT-6c" d="M 409 0 
L 409 4581 
L 972 4581 
L 972 0 
L 409 0 
z
" transform="scale(0.015625)"/>
      <path id="ArialMT-65" d="M 2694 1069 
L 3275 997 
Q 3138 488 2766 206 
Q 2394 -75 1816 -75 
Q 1088 -75 661 373 
Q 234 822 234 1631 
Q 234 2469 665 2931 
Q 1097 3394 1784 3394 
Q 2450 3394 2872 2941 
Q 3294 2488 3294 1666 
Q 3294 1616 3291 1516 
L 816 1516 
Q 847 969 1125 678 
Q 1403 388 1819 388 
Q 2128 388 2347 550 
Q 2566 713 2694 1069 
z
M 847 1978 
L 2700 1978 
Q 2663 2397 2488 2606 
Q 2219 2931 1791 2931 
Q 1403 2931 1139 2672 
Q 875 2413 847 1978 
z
" transform="scale(0.015625)"/>
      <path id="ArialMT-64" d="M 2575 0 
L 2575 419 
Q 2259 -75 1647 -75 
Q 1250 -75 917 144 
Q 584 363 401 755 
Q 219 1147 219 1656 
Q 219 2153 384 2558 
Q 550 2963 881 3178 
Q 1213 3394 1622 3394 
Q 1922 3394 2156 3267 
Q 2391 3141 2538 2938 
L 2538 4581 
L 3097 4581 
L 3097 0 
L 2575 0 
z
M 797 1656 
Q 797 1019 1065 703 
Q 1334 388 1700 388 
Q 2069 388 2326 689 
Q 2584 991 2584 1609 
Q 2584 2291 2321 2609 
Q 2059 2928 1675 2928 
Q 1300 2928 1048 2622 
Q 797 2316 797 1656 
z
" transform="scale(0.015625)"/>
      <path id="ArialMT-20" transform="scale(0.015625)"/>
      <path id="ArialMT-69" d="M 425 3934 
L 425 4581 
L 988 4581 
L 988 3934 
L 425 3934 
z
M 425 0 
L 425 3319 
L 988 3319 
L 988 0 
L 425 0 
z
" transform="scale(0.015625)"/>
      <path id="ArialMT-6e" d="M 422 0 
L 422 3319 
L 928 3319 
L 928 2847 
Q 1294 3394 1984 3394 
Q 2284 3394 2536 3286 
Q 2788 3178 2913 3003 
Q 3038 2828 3088 2588 
Q 3119 2431 3119 2041 
L 3119 0 
L 2556 0 
L 2556 2019 
Q 2556 2363 2490 2533 
Q 2425 2703 2258 2804 
Q 2091 2906 1866 2906 
Q 1506 2906 1245 2678 
Q 984 2450 984 1813 
L 984 0 
L 422 0 
z
" transform="scale(0.015625)"/>
      <path id="ArialMT-6a" d="M 419 3928 
L 419 4581 
L 981 4581 
L 981 3928 
L 419 3928 
z
M -294 -1288 
L -188 -809 
Q -19 -853 78 -853 
Q 250 -853 334 -739 
Q 419 -625 419 -169 
L 419 3319 
L 981 3319 
L 981 -181 
Q 981 -794 822 -1034 
Q 619 -1347 147 -1347 
Q -81 -1347 -294 -1288 
z
" transform="scale(0.015625)"/>
      <path id="ArialMT-74" d="M 1650 503 
L 1731 6 
Q 1494 -44 1306 -44 
Q 1000 -44 831 53 
Q 663 150 594 308 
Q 525 466 525 972 
L 525 2881 
L 113 2881 
L 113 3319 
L 525 3319 
L 525 4141 
L 1084 4478 
L 1084 3319 
L 1650 3319 
L 1650 2881 
L 1084 2881 
L 1084 941 
Q 1084 700 1114 631 
Q 1144 563 1211 522 
Q 1278 481 1403 481 
Q 1497 481 1650 503 
z
" transform="scale(0.015625)"/>
      <path id="ArialMT-6f" d="M 213 1659 
Q 213 2581 725 3025 
Q 1153 3394 1769 3394 
Q 2453 3394 2887 2945 
Q 3322 2497 3322 1706 
Q 3322 1066 3130 698 
Q 2938 331 2570 128 
Q 2203 -75 1769 -75 
Q 1072 -75 642 372 
Q 213 819 213 1659 
z
M 791 1659 
Q 791 1022 1069 705 
Q 1347 388 1769 388 
Q 2188 388 2466 706 
Q 2744 1025 2744 1678 
Q 2744 2294 2464 2611 
Q 2184 2928 1769 2928 
Q 1347 2928 1069 2612 
Q 791 2297 791 1659 
z
" transform="scale(0.015625)"/>
      <path id="ArialMT-6d" d="M 422 0 
L 422 3319 
L 925 3319 
L 925 2853 
Q 1081 3097 1340 3245 
Q 1600 3394 1931 3394 
Q 2300 3394 2536 3241 
Q 2772 3088 2869 2813 
Q 3263 3394 3894 3394 
Q 4388 3394 4653 3120 
Q 4919 2847 4919 2278 
L 4919 0 
L 4359 0 
L 4359 2091 
Q 4359 2428 4304 2576 
Q 4250 2725 4106 2815 
Q 3963 2906 3769 2906 
Q 3419 2906 3187 2673 
Q 2956 2441 2956 1928 
L 2956 0 
L 2394 0 
L 2394 2156 
Q 2394 2531 2256 2718 
Q 2119 2906 1806 2906 
Q 1569 2906 1367 2781 
Q 1166 2656 1075 2415 
Q 984 2175 984 1722 
L 984 0 
L 422 0 
z
" transform="scale(0.015625)"/>
     </defs>
     <use xlink:href="#ArialMT-53"/>
     <use xlink:href="#ArialMT-63" x="66.699219"/>
     <use xlink:href="#ArialMT-61" x="116.699219"/>
     <use xlink:href="#ArialMT-6c" x="172.314453"/>
     <use xlink:href="#ArialMT-65" x="194.53125"/>
     <use xlink:href="#ArialMT-64" x="250.146484"/>
     <use xlink:href="#ArialMT-20" x="305.761719"/>
     <use xlink:href="#ArialMT-69" x="333.544922"/>
     <use xlink:href="#ArialMT-6e" x="355.761719"/>
     <use xlink:href="#ArialMT-6a" x="411.376953"/>
     <use xlink:href="#ArialMT-65" x="433.59375"/>
     <use xlink:href="#ArialMT-63" x="489.208984"/>
     <use xlink:href="#ArialMT-74" x="539.208984"/>
     <use xlink:href="#ArialMT-69" x="566.992188"/>
     <use xlink:href="#ArialMT-6f" x="589.208984"/>
     <use xlink:href="#ArialMT-6e" x="644.824219"/>
     <use xlink:href="#ArialMT-20" x="700.439453"/>
     <use xlink:href="#ArialMT-74" x="728.222656"/>
     <use xlink:href="#ArialMT-69" x="756.005859"/>
     <use xlink:href="#ArialMT-6d" x="778.222656"/>
     <use xlink:href="#ArialMT-65" x="861.523438"/>
    </g>
   </g>
  </g>
  <g id="text_10">
   <!-- Standardized errors -->
   <g style="fill: #262626" transform="translate(109.7475 18.6525) scale(0.16 -0.16)">
    <defs>
     <path id="ArialMT-72" d="M 416 0 
L 416 3319 
L 922 3319 
L 922 2816 
Q 1116 3169 1280 3281 
Q 1444 3394 1641 3394 
Q 1925 3394 2219 3213 
L 2025 2691 
Q 1819 2813 1613 2813 
Q 1428 2813 1281 2702 
Q 1134 2591 1072 2394 
Q 978 2094 978 1738 
L 978 0 
L 416 0 
z
" transform="scale(0.015625)"/>
     <path id="ArialMT-7a" d="M 125 0 
L 125 456 
L 2238 2881 
Q 1878 2863 1603 2863 
L 250 2863 
L 250 3319 
L 2963 3319 
L 2963 2947 
L 1166 841 
L 819 456 
Q 1197 484 1528 484 
L 3063 484 
L 3063 0 
L 125 0 
z
" transform="scale(0.015625)"/>
     <path id="ArialMT-73" d="M 197 991 
L 753 1078 
Q 800 744 1014 566 
Q 1228 388 1613 388 
Q 2000 388 2187 545 
Q 2375 703 2375 916 
Q 2375 1106 2209 1216 
Q 2094 1291 1634 1406 
Q 1016 1563 777 1677 
Q 538 1791 414 1992 
Q 291 2194 291 2438 
Q 291 2659 392 2848 
Q 494 3038 669 3163 
Q 800 3259 1026 3326 
Q 1253 3394 1513 3394 
Q 1903 3394 2198 3281 
Q 2494 3169 2634 2976 
Q 2775 2784 2828 2463 
L 2278 2388 
Q 2241 2644 2061 2787 
Q 1881 2931 1553 2931 
Q 1166 2931 1000 2803 
Q 834 2675 834 2503 
Q 834 2394 903 2306 
Q 972 2216 1119 2156 
Q 1203 2125 1616 2013 
Q 2213 1853 2448 1751 
Q 2684 1650 2818 1456 
Q 2953 1263 2953 975 
Q 2953 694 2789 445 
Q 2625 197 2315 61 
Q 2006 -75 1616 -75 
Q 969 -75 630 194 
Q 291 463 197 991 
z
" transform="scale(0.015625)"/>
    </defs>
    <use xlink:href="#ArialMT-53"/>
    <use xlink:href="#ArialMT-74" x="66.699219"/>
    <use xlink:href="#ArialMT-61" x="94.482422"/>
    <use xlink:href="#ArialMT-6e" x="150.097656"/>
    <use xlink:href="#ArialMT-64" x="205.712891"/>
    <use xlink:href="#ArialMT-61" x="261.328125"/>
    <use xlink:href="#ArialMT-72" x="316.943359"/>
    <use xlink:href="#ArialMT-64" x="350.244141"/>
    <use xlink:href="#ArialMT-69" x="405.859375"/>
    <use xlink:href="#ArialMT-7a" x="428.076172"/>
    <use xlink:href="#ArialMT-65" x="478.076172"/>
    <use xlink:href="#ArialMT-64" x="533.691406"/>
    <use xlink:href="#ArialMT-20" x="589.306641"/>
    <use xlink:href="#ArialMT-65" x="617.089844"/>
    <use xlink:href="#ArialMT-72" x="672.705078"/>
    <use xlink:href="#ArialMT-72" x="706.005859"/>
    <use xlink:href="#ArialMT-6f" x="739.306641"/>
    <use xlink:href="#ArialMT-72" x="794.921875"/>
    <use xlink:href="#ArialMT-73" x="828.222656"/>
   </g>
  </g>
 </g>
 <defs>
  <clipPath id="p3e98804fec">
   <rect x="7.2" y="41.76" width="357.12" height="266.112"/>
  </clipPath>
 </defs>
</svg>