<?xml version="1.0" encoding="utf-8" standalone="no"?>
<!DOCTYPE svg PUBLIC "-//W3C//DTD SVG 1.1//EN"
  "http://www.w3.org/Graphics/SVG/1.1/DTD/svg11.dtd">
<svg xmlns:xlink="http://www.w3.org/1999/xlink" width="212.912875pt" height="167.278875pt" viewBox="0 0 212.912875 167.278875" xmlns="http://www.w3.org/2000/svg" version="1.1">
 <metadata>
  <rdf:RDF xmlns:dc="http://purl.org/dc/elements/1.1/" xmlns:cc="http://creativecommons.org/ns#" xmlns:rdf="http://www.w3.org/1999/02/22-rdf-syntax-ns#">
   <cc:Work>
    <dc:type rdf:resource="http://purl.org/dc/dcmitype/StillImage"/>
    <dc:date>2025-02-27T12:25:13.025044</dc:date>
    <dc:format>image/svg+xml</dc:format>
    <dc:creator>
     <cc:Agent>
      <dc:title>Matplotlib v3.9.2, https://matplotlib.org/</dc:title>
     </cc:Agent>
    </dc:creator>
   </cc:Work>
  </rdf:RDF>
 </metadata>
 <defs>
  <style type="text/css">*{stroke-linejoin: round; stroke-linecap: butt}</style>
 </defs>
 <g id="figure_1">
  <g id="patch_1">
   <path d="M 0 167.278875 
L 212.912875 167.278875 
L 212.912875 0 
L 0 0 
z
" style="fill: #ffffff"/>
  </g>
  <g id="axes_1">
   <g id="patch_2">
    <path d="M 38.312875 130.9515 
L 205.712875 130.9515 
L 205.712875 20.0715 
L 38.312875 20.0715 
z
" style="fill: #ffffff"/>
   </g>
   <g id="matplotlib.axis_1">
    <g id="xtick_1">
     <g id="line2d_1">
      <defs>
       <path id="mbcb862ae23" d="M 0 0 
L 0 4.8 
" style="stroke: #262626"/>
      </defs>
      <g>
       <use xlink:href="#mbcb862ae23" x="45.921966" y="130.9515" style="fill: #262626; stroke: #262626"/>
      </g>
     </g>
     <g id="text_1">
      <!-- 0.0 -->
      <g style="fill: #262626" transform="translate(39.805966 145.550375) scale(0.088 -0.088)">
       <defs>
        <path id="ArialMT-30" d="M 266 2259 
Q 266 3072 433 3567 
Q 600 4063 929 4331 
Q 1259 4600 1759 4600 
Q 2128 4600 2406 4451 
Q 2684 4303 2865 4023 
Q 3047 3744 3150 3342 
Q 3253 2941 3253 2259 
Q 3253 1453 3087 958 
Q 2922 463 2592 192 
Q 2263 -78 1759 -78 
Q 1097 -78 719 397 
Q 266 969 266 2259 
z
M 844 2259 
Q 844 1131 1108 757 
Q 1372 384 1759 384 
Q 2147 384 2411 759 
Q 2675 1134 2675 2259 
Q 2675 3391 2411 3762 
Q 2147 4134 1753 4134 
Q 1366 4134 1134 3806 
Q 844 3388 844 2259 
z
" transform="scale(0.015625)"/>
        <path id="ArialMT-2e" d="M 581 0 
L 581 641 
L 1222 641 
L 1222 0 
L 581 0 
z
" transform="scale(0.015625)"/>
       </defs>
       <use xlink:href="#ArialMT-30"/>
       <use xlink:href="#ArialMT-2e" x="55.615234"/>
       <use xlink:href="#ArialMT-30" x="83.398438"/>
      </g>
     </g>
    </g>
    <g id="xtick_2">
     <g id="line2d_2">
      <g>
       <use xlink:href="#mbcb862ae23" x="76.35833" y="130.9515" style="fill: #262626; stroke: #262626"/>
      </g>
     </g>
     <g id="text_2">
      <!-- 0.2 -->
      <g style="fill: #262626" transform="translate(70.24233 145.550375) scale(0.088 -0.088)">
       <defs>
        <path id="ArialMT-32" d="M 3222 541 
L 3222 0 
L 194 0 
Q 188 203 259 391 
Q 375 700 629 1000 
Q 884 1300 1366 1694 
Q 2113 2306 2375 2664 
Q 2638 3022 2638 3341 
Q 2638 3675 2398 3904 
Q 2159 4134 1775 4134 
Q 1369 4134 1125 3890 
Q 881 3647 878 3216 
L 300 3275 
Q 359 3922 746 4261 
Q 1134 4600 1788 4600 
Q 2447 4600 2831 4234 
Q 3216 3869 3216 3328 
Q 3216 3053 3103 2787 
Q 2991 2522 2730 2228 
Q 2469 1934 1863 1422 
Q 1356 997 1212 845 
Q 1069 694 975 541 
L 3222 541 
z
" transform="scale(0.015625)"/>
       </defs>
       <use xlink:href="#ArialMT-30"/>
       <use xlink:href="#ArialMT-2e" x="55.615234"/>
       <use xlink:href="#ArialMT-32" x="83.398438"/>
      </g>
     </g>
    </g>
    <g id="xtick_3">
     <g id="line2d_3">
      <g>
       <use xlink:href="#mbcb862ae23" x="106.794693" y="130.9515" style="fill: #262626; stroke: #262626"/>
      </g>
     </g>
     <g id="text_3">
      <!-- 0.4 -->
      <g style="fill: #262626" transform="translate(100.678693 145.550375) scale(0.088 -0.088)">
       <defs>
        <path id="ArialMT-34" d="M 2069 0 
L 2069 1097 
L 81 1097 
L 81 1613 
L 2172 4581 
L 2631 4581 
L 2631 1613 
L 3250 1613 
L 3250 1097 
L 2631 1097 
L 2631 0 
L 2069 0 
z
M 2069 1613 
L 2069 3678 
L 634 1613 
L 2069 1613 
z
" transform="scale(0.015625)"/>
       </defs>
       <use xlink:href="#ArialMT-30"/>
       <use xlink:href="#ArialMT-2e" x="55.615234"/>
       <use xlink:href="#ArialMT-34" x="83.398438"/>
      </g>
     </g>
    </g>
    <g id="xtick_4">
     <g id="line2d_4">
      <g>
       <use xlink:href="#mbcb862ae23" x="137.231057" y="130.9515" style="fill: #262626; stroke: #262626"/>
      </g>
     </g>
     <g id="text_4">
      <!-- 0.6 -->
      <g style="fill: #262626" transform="translate(131.115057 145.550375) scale(0.088 -0.088)">
       <defs>
        <path id="ArialMT-36" d="M 3184 3459 
L 2625 3416 
Q 2550 3747 2413 3897 
Q 2184 4138 1850 4138 
Q 1581 4138 1378 3988 
Q 1113 3794 959 3422 
Q 806 3050 800 2363 
Q 1003 2672 1297 2822 
Q 1591 2972 1913 2972 
Q 2475 2972 2870 2558 
Q 3266 2144 3266 1488 
Q 3266 1056 3080 686 
Q 2894 316 2569 119 
Q 2244 -78 1831 -78 
Q 1128 -78 684 439 
Q 241 956 241 2144 
Q 241 3472 731 4075 
Q 1159 4600 1884 4600 
Q 2425 4600 2770 4297 
Q 3116 3994 3184 3459 
z
M 888 1484 
Q 888 1194 1011 928 
Q 1134 663 1356 523 
Q 1578 384 1822 384 
Q 2178 384 2434 671 
Q 2691 959 2691 1453 
Q 2691 1928 2437 2201 
Q 2184 2475 1800 2475 
Q 1419 2475 1153 2201 
Q 888 1928 888 1484 
z
" transform="scale(0.015625)"/>
       </defs>
       <use xlink:href="#ArialMT-30"/>
       <use xlink:href="#ArialMT-2e" x="55.615234"/>
       <use xlink:href="#ArialMT-36" x="83.398438"/>
      </g>
     </g>
    </g>
    <g id="xtick_5">
     <g id="line2d_5">
      <g>
       <use xlink:href="#mbcb862ae23" x="167.66742" y="130.9515" style="fill: #262626; stroke: #262626"/>
      </g>
     </g>
     <g id="text_5">
      <!-- 0.8 -->
      <g style="fill: #262626" transform="translate(161.55142 145.550375) scale(0.088 -0.088)">
       <defs>
        <path id="ArialMT-38" d="M 1131 2484 
Q 781 2613 612 2850 
Q 444 3088 444 3419 
Q 444 3919 803 4259 
Q 1163 4600 1759 4600 
Q 2359 4600 2725 4251 
Q 3091 3903 3091 3403 
Q 3091 3084 2923 2848 
Q 2756 2613 2416 2484 
Q 2838 2347 3058 2040 
Q 3278 1734 3278 1309 
Q 3278 722 2862 322 
Q 2447 -78 1769 -78 
Q 1091 -78 675 323 
Q 259 725 259 1325 
Q 259 1772 486 2073 
Q 713 2375 1131 2484 
z
M 1019 3438 
Q 1019 3113 1228 2906 
Q 1438 2700 1772 2700 
Q 2097 2700 2305 2904 
Q 2513 3109 2513 3406 
Q 2513 3716 2298 3927 
Q 2084 4138 1766 4138 
Q 1444 4138 1231 3931 
Q 1019 3725 1019 3438 
z
M 838 1322 
Q 838 1081 952 856 
Q 1066 631 1291 507 
Q 1516 384 1775 384 
Q 2178 384 2440 643 
Q 2703 903 2703 1303 
Q 2703 1709 2433 1975 
Q 2163 2241 1756 2241 
Q 1359 2241 1098 1978 
Q 838 1716 838 1322 
z
" transform="scale(0.015625)"/>
       </defs>
       <use xlink:href="#ArialMT-30"/>
       <use xlink:href="#ArialMT-2e" x="55.615234"/>
       <use xlink:href="#ArialMT-38" x="83.398438"/>
      </g>
     </g>
    </g>
    <g id="xtick_6">
     <g id="line2d_6">
      <g>
       <use xlink:href="#mbcb862ae23" x="198.103784" y="130.9515" style="fill: #262626; stroke: #262626"/>
      </g>
     </g>
     <g id="text_6">
      <!-- 1.0 -->
      <g style="fill: #262626" transform="translate(191.987784 145.550375) scale(0.088 -0.088)">
       <defs>
        <path id="ArialMT-31" d="M 2384 0 
L 1822 0 
L 1822 3584 
Q 1619 3391 1289 3197 
Q 959 3003 697 2906 
L 697 3450 
Q 1169 3672 1522 3987 
Q 1875 4303 2022 4600 
L 2384 4600 
L 2384 0 
z
" transform="scale(0.015625)"/>
       </defs>
       <use xlink:href="#ArialMT-31"/>
       <use xlink:href="#ArialMT-2e" x="55.615234"/>
       <use xlink:href="#ArialMT-30" x="83.398438"/>
      </g>
     </g>
    </g>
    <g id="text_7">
     <!-- $x$ -->
     <g style="fill: #262626" transform="translate(119.132875 158.170875) scale(0.096 -0.096)">
      <defs>
       <path id="DejaVuSans-Oblique-78" d="M 3841 3500 
L 2234 1784 
L 3219 0 
L 2559 0 
L 1819 1388 
L 531 0 
L -166 0 
L 1556 1844 
L 641 3500 
L 1300 3500 
L 1972 2234 
L 3144 3500 
L 3841 3500 
z
" transform="scale(0.015625)"/>
      </defs>
      <use xlink:href="#DejaVuSans-Oblique-78" transform="translate(0 0.3125)"/>
     </g>
    </g>
   </g>
   <g id="matplotlib.axis_2">
    <g id="ytick_1">
     <g id="line2d_7">
      <defs>
       <path id="mac280e7e15" d="M 0 0 
L -4.8 0 
" style="stroke: #262626"/>
      </defs>
      <g>
       <use xlink:href="#mac280e7e15" x="38.312875" y="130.9515" style="fill: #262626; stroke: #262626"/>
      </g>
     </g>
     <g id="text_8">
      <!-- −2 -->
      <g style="fill: #262626" transform="translate(19.9795 134.100937) scale(0.088 -0.088)">
       <defs>
        <path id="ArialMT-2212" d="M 3381 1997 
L 356 1997 
L 356 2522 
L 3381 2522 
L 3381 1997 
z
" transform="scale(0.015625)"/>
       </defs>
       <use xlink:href="#ArialMT-2212"/>
       <use xlink:href="#ArialMT-32" x="58.398438"/>
      </g>
     </g>
    </g>
    <g id="ytick_2">
     <g id="line2d_8">
      <g>
       <use xlink:href="#mac280e7e15" x="38.312875" y="112.4715" style="fill: #262626; stroke: #262626"/>
      </g>
     </g>
     <g id="text_9">
      <!-- −1 -->
      <g style="fill: #262626" transform="translate(19.9795 115.620937) scale(0.088 -0.088)">
       <use xlink:href="#ArialMT-2212"/>
       <use xlink:href="#ArialMT-31" x="58.398438"/>
      </g>
     </g>
    </g>
    <g id="ytick_3">
     <g id="line2d_9">
      <g>
       <use xlink:href="#mac280e7e15" x="38.312875" y="93.9915" style="fill: #262626; stroke: #262626"/>
      </g>
     </g>
     <g id="text_10">
      <!-- 0 -->
      <g style="fill: #262626" transform="translate(25.11925 97.140938) scale(0.088 -0.088)">
       <use xlink:href="#ArialMT-30"/>
      </g>
     </g>
    </g>
    <g id="ytick_4">
     <g id="line2d_10">
      <g>
       <use xlink:href="#mac280e7e15" x="38.312875" y="75.5115" style="fill: #262626; stroke: #262626"/>
      </g>
     </g>
     <g id="text_11">
      <!-- 1 -->
      <g style="fill: #262626" transform="translate(25.11925 78.660938) scale(0.088 -0.088)">
       <use xlink:href="#ArialMT-31"/>
      </g>
     </g>
    </g>
    <g id="ytick_5">
     <g id="line2d_11">
      <g>
       <use xlink:href="#mac280e7e15" x="38.312875" y="57.0315" style="fill: #262626; stroke: #262626"/>
      </g>
     </g>
     <g id="text_12">
      <!-- 2 -->
      <g style="fill: #262626" transform="translate(25.11925 60.180937) scale(0.088 -0.088)">
       <use xlink:href="#ArialMT-32"/>
      </g>
     </g>
    </g>
    <g id="ytick_6">
     <g id="line2d_12">
      <g>
       <use xlink:href="#mac280e7e15" x="38.312875" y="38.5515" style="fill: #262626; stroke: #262626"/>
      </g>
     </g>
     <g id="text_13">
      <!-- 3 -->
      <g style="fill: #262626" transform="translate(25.11925 41.700938) scale(0.088 -0.088)">
       <defs>
        <path id="ArialMT-33" d="M 269 1209 
L 831 1284 
Q 928 806 1161 595 
Q 1394 384 1728 384 
Q 2125 384 2398 659 
Q 2672 934 2672 1341 
Q 2672 1728 2419 1979 
Q 2166 2231 1775 2231 
Q 1616 2231 1378 2169 
L 1441 2663 
Q 1497 2656 1531 2656 
Q 1891 2656 2178 2843 
Q 2466 3031 2466 3422 
Q 2466 3731 2256 3934 
Q 2047 4138 1716 4138 
Q 1388 4138 1169 3931 
Q 950 3725 888 3313 
L 325 3413 
Q 428 3978 793 4289 
Q 1159 4600 1703 4600 
Q 2078 4600 2393 4439 
Q 2709 4278 2876 4000 
Q 3044 3722 3044 3409 
Q 3044 3113 2884 2869 
Q 2725 2625 2413 2481 
Q 2819 2388 3044 2092 
Q 3269 1797 3269 1353 
Q 3269 753 2831 336 
Q 2394 -81 1725 -81 
Q 1122 -81 723 278 
Q 325 638 269 1209 
z
" transform="scale(0.015625)"/>
       </defs>
       <use xlink:href="#ArialMT-33"/>
      </g>
     </g>
    </g>
    <g id="ytick_7">
     <g id="line2d_13">
      <g>
       <use xlink:href="#mac280e7e15" x="38.312875" y="20.0715" style="fill: #262626; stroke: #262626"/>
      </g>
     </g>
     <g id="text_14">
      <!-- 4 -->
      <g style="fill: #262626" transform="translate(25.11925 23.220937) scale(0.088 -0.088)">
       <use xlink:href="#ArialMT-34"/>
      </g>
     </g>
    </g>
    <g id="text_15">
     <!-- $y$ -->
     <g style="fill: #262626" transform="translate(13.9635 78.3915) rotate(-90) scale(0.096 -0.096)">
      <defs>
       <path id="DejaVuSans-Oblique-79" d="M 1588 -325 
Q 1188 -997 936 -1164 
Q 684 -1331 294 -1331 
L -159 -1331 
L -63 -850 
L 269 -850 
Q 509 -850 678 -719 
Q 847 -588 1056 -206 
L 1234 128 
L 459 3500 
L 1069 3500 
L 1650 819 
L 3256 3500 
L 3859 3500 
L 1588 -325 
z
" transform="scale(0.015625)"/>
      </defs>
      <use xlink:href="#DejaVuSans-Oblique-79" transform="translate(0 0.3125)"/>
     </g>
    </g>
   </g>
   <g id="PolyCollection_1">
    <defs>
     <path id="mcf2e2a6289" d="M 45.921966 -149.575315 
L 45.921966 -3.401892 
L 47.459156 -4.089304 
L 48.996346 -4.879691 
L 50.533536 -5.785452 
L 52.070726 -6.819705 
L 53.607916 -7.996131 
L 55.145106 -9.328763 
L 56.682296 -10.83173 
L 58.219487 -12.518951 
L 59.756677 -14.40379 
L 61.293867 -16.498677 
L 62.831057 -18.814704 
L 64.368247 -21.36121 
L 65.905437 -24.145371 
L 67.442627 -27.171799 
L 68.979817 -30.442177 
L 70.517007 -33.954937 
L 72.054197 -37.704985 
L 73.591387 -41.6835 
L 75.128577 -45.877788 
L 76.665768 -50.271204 
L 78.202958 -54.843109 
L 79.740148 -59.568803 
L 81.277338 -64.419319 
L 82.814528 -69.360703 
L 84.351718 -74.351789 
L 85.888908 -79.336876 
L 87.426098 -84.216835 
L 88.963288 -88.685053 
L 90.500478 -90.933225 
L 92.037668 -88.117892 
L 93.574858 -83.549999 
L 95.112049 -78.645731 
L 96.649239 -73.655594 
L 98.186429 -68.668742 
L 99.723619 -63.737986 
L 101.260809 -58.903251 
L 102.797999 -54.197737 
L 104.335189 -49.649818 
L 105.872379 -45.283651 
L 107.409569 -41.119359 
L 108.946759 -37.173081 
L 110.483949 -33.457028 
L 112.021139 -29.979568 
L 113.55833 -26.745382 
L 115.09552 -23.75568 
L 116.63271 -21.008488 
L 118.1699 -18.49898 
L 119.70709 -16.219853 
L 121.24428 -14.161739 
L 122.78147 -12.313622 
L 124.31866 -10.663261 
L 125.85585 -9.197605 
L 127.39304 -7.903174 
L 128.93023 -6.766422 
L 130.46742 -5.774049 
L 132.004611 -4.913276 
L 133.541801 -4.172077 
L 135.078991 -3.539358 
L 136.616181 -3.005109 
L 138.153371 -2.56051 
L 139.690561 -2.198016 
L 141.227751 -1.911409 
L 142.764941 -1.695849 
L 144.302131 -1.5479 
L 145.839321 -1.465563 
L 147.376511 -1.448295 
L 148.913701 -1.497039 
L 150.450892 -1.614236 
L 151.988082 -1.803844 
L 153.525272 -2.071338 
L 155.062462 -2.423696 
L 156.599652 -2.869357 
L 158.136842 -3.418153 
L 159.674032 -4.081198 
L 161.211222 -4.870736 
L 162.748412 -5.799935 
L 164.285602 -6.882642 
L 165.822792 -8.133078 
L 167.359982 -9.565492 
L 168.897173 -11.193779 
L 170.434363 -13.03106 
L 171.971553 -15.089245 
L 173.508743 -17.37859 
L 175.045933 -19.907258 
L 176.583123 -22.680896 
L 178.120313 -25.702252 
L 179.657503 -28.97083 
L 181.194693 -32.482604 
L 182.731883 -36.229787 
L 184.269073 -40.200653 
L 185.806263 -44.379398 
L 187.343454 -48.745975 
L 188.880644 -53.275778 
L 190.417834 -57.93882 
L 191.955024 -62.697381 
L 193.492214 -67.498469 
L 195.029404 -72.244226 
L 196.566594 -76.623058 
L 198.103784 -78.784121 
L 198.103784 -86.214007 
L 198.103784 -86.214007 
L 196.566594 -88.340583 
L 195.029404 -92.602035 
L 193.492214 -97.149138 
L 191.955024 -101.673011 
L 190.417834 -106.079542 
L 188.880644 -110.320445 
L 187.343454 -114.363558 
L 185.806263 -118.185197 
L 184.269073 -121.767675 
L 182.731883 -125.098341 
L 181.194693 -128.169133 
L 179.657503 -130.976264 
L 178.120313 -133.519956 
L 176.583123 -135.80413 
L 175.045933 -137.83606 
L 173.508743 -139.625988 
L 171.971553 -141.186692 
L 170.434363 -142.533032 
L 168.897173 -143.681486 
L 167.359982 -144.649679 
L 165.822792 -145.455927 
L 164.285602 -146.118814 
L 162.748412 -146.656795 
L 161.211222 -147.087852 
L 159.674032 -147.429197 
L 158.136842 -147.697035 
L 156.599652 -147.906378 
L 155.062462 -148.070909 
L 153.525272 -148.202902 
L 151.988082 -148.313171 
L 150.450892 -148.41106 
L 148.913701 -148.504452 
L 147.376511 -148.599783 
L 145.839321 -148.702067 
L 144.302131 -148.814909 
L 142.764941 -148.940512 
L 141.227751 -149.079656 
L 139.690561 -149.231676 
L 138.153371 -149.394406 
L 136.616181 -149.56412 
L 135.078991 -149.735466 
L 133.541801 -149.901395 
L 132.004611 -150.05311 
L 130.46742 -150.180028 
L 128.93023 -150.269779 
L 127.39304 -150.308246 
L 125.85585 -150.279655 
L 124.31866 -150.16672 
L 122.78147 -149.950853 
L 121.24428 -149.612433 
L 119.70709 -149.131138 
L 118.1699 -148.48633 
L 116.63271 -147.657492 
L 115.09552 -146.624704 
L 113.55833 -145.369141 
L 112.021139 -143.873588 
L 110.483949 -142.122958 
L 108.946759 -140.10479 
L 107.409569 -137.809723 
L 105.872379 -135.231935 
L 104.335189 -132.369545 
L 102.797999 -129.224989 
L 101.260809 -125.80541 
L 99.723619 -122.123177 
L 98.186429 -118.196816 
L 96.649239 -114.053219 
L 95.112049 -109.734083 
L 93.574858 -105.319608 
L 92.037668 -101.053697 
L 90.500478 -98.34844 
L 88.963288 -100.513279 
L 87.426098 -104.705877 
L 85.888908 -109.121651 
L 84.351718 -113.460229 
L 82.814528 -117.631099 
L 81.277338 -121.58936 
L 79.740148 -125.306595 
L 78.202958 -128.763272 
L 76.665768 -131.946212 
L 75.128577 -134.847549 
L 73.591387 -137.464176 
L 72.054197 -139.797348 
L 70.517007 -141.852304 
L 68.979817 -143.637867 
L 67.442627 -145.166006 
L 65.905437 -146.451373 
L 64.368247 -147.510792 
L 62.831057 -148.362752 
L 61.293867 -149.026883 
L 59.756677 -149.523454 
L 58.219487 -149.872892 
L 56.682296 -150.095337 
L 55.145106 -150.210255 
L 53.607916 -150.236096 
L 52.070726 -150.190029 
L 50.533536 -150.087727 
L 48.996346 -149.943236 
L 47.459156 -149.768894 
L 45.921966 -149.575315 
z
" style="stroke: #ffffff; stroke-opacity: 0.2; stroke-width: 0.8"/>
    </defs>
    <g clip-path="url(#pc12f7c1d17)">
     <use xlink:href="#mcf2e2a6289" x="0" y="167.278875" style="fill: #1f77b4; fill-opacity: 0.2; stroke: #ffffff; stroke-opacity: 0.2; stroke-width: 0.8"/>
    </g>
   </g>
   <g id="PathCollection_1">
    <defs>
     <path id="m1ba3a703fb" d="M 0 2.4 
C 0.636487 2.4 1.246992 2.147121 1.697056 1.697056 
C 2.147121 1.246992 2.4 0.636487 2.4 0 
C 2.4 -0.636487 2.147121 -1.246992 1.697056 -1.697056 
C 1.246992 -2.147121 0.636487 -2.4 0 -2.4 
C -0.636487 -2.4 -1.246992 -2.147121 -1.697056 -1.697056 
C -2.147121 -1.246992 -2.4 -0.636487 -2.4 0 
C -2.4 0.636487 -2.147121 1.246992 -1.697056 1.697056 
C -1.246992 2.147121 -0.636487 2.4 0 2.4 
z
" style="stroke: #ff7f0e; stroke-width: 0.8"/>
    </defs>
    <g clip-path="url(#pc12f7c1d17)">
     <use xlink:href="#m1ba3a703fb" x="90.393377" y="72.584426" style="fill: #ff7f0e; stroke: #ff7f0e; stroke-width: 0.8"/>
     <use xlink:href="#m1ba3a703fb" x="197.974647" y="84.756626" style="fill: #ff7f0e; stroke: #ff7f0e; stroke-width: 0.8"/>
    </g>
   </g>
   <g id="line2d_14">
    <path d="M 45.921966 90.790271 
L 47.459156 90.349776 
L 48.996346 89.867411 
L 50.533536 89.342285 
L 52.070726 88.774008 
L 53.607916 88.162761 
L 55.145106 87.509366 
L 56.682296 86.815341 
L 58.219487 86.082954 
L 59.756677 85.315253 
L 61.293867 84.516095 
L 62.831057 83.690147 
L 64.368247 82.842874 
L 65.905437 81.980503 
L 67.442627 81.109972 
L 68.979817 80.238853 
L 70.517007 79.375254 
L 72.054197 78.527708 
L 73.591387 77.705037 
L 75.128577 76.916207 
L 76.665768 76.170167 
L 78.202958 75.475685 
L 79.740148 74.841176 
L 81.277338 74.274535 
L 82.814528 73.782974 
L 84.351718 73.372866 
L 85.888908 73.049612 
L 87.426098 72.817519 
L 88.963288 72.679709 
L 90.500478 72.638042 
L 92.037668 72.69308 
L 93.574858 72.844072 
L 95.112049 73.088968 
L 96.649239 73.424468 
L 98.186429 73.846096 
L 99.723619 74.348293 
L 101.260809 74.924544 
L 102.797999 75.567512 
L 104.335189 76.269193 
L 105.872379 77.021082 
L 107.409569 77.814334 
L 108.946759 78.639939 
L 110.483949 79.488882 
L 112.021139 80.352297 
L 113.55833 81.221614 
L 115.09552 82.088683 
L 116.63271 82.945885 
L 118.1699 83.78622 
L 119.70709 84.60338 
L 121.24428 85.391789 
L 122.78147 86.146638 
L 124.31866 86.863884 
L 125.85585 87.540245 
L 127.39304 88.173165 
L 128.93023 88.760775 
L 130.46742 89.301837 
L 132.004611 89.795682 
L 133.541801 90.242139 
L 135.078991 90.641463 
L 136.616181 90.994261 
L 138.153371 91.301417 
L 139.690561 91.564029 
L 141.227751 91.783342 
L 142.764941 91.960695 
L 144.302131 92.09747 
L 145.839321 92.19506 
L 147.376511 92.254836 
L 148.913701 92.278129 
L 150.450892 92.266227 
L 151.988082 92.220368 
L 153.525272 92.141755 
L 155.062462 92.031572 
L 156.599652 91.891008 
L 158.136842 91.721281 
L 159.674032 91.523677 
L 161.211222 91.299581 
L 162.748412 91.05051 
L 164.285602 90.778147 
L 165.822792 90.484373 
L 167.359982 90.17129 
L 168.897173 89.841242 
L 170.434363 89.496829 
L 171.971553 89.140907 
L 173.508743 88.776586 
L 175.045933 88.407216 
L 176.583123 88.036362 
L 178.120313 87.667771 
L 179.657503 87.305328 
L 181.194693 86.953007 
L 182.731883 86.614811 
L 184.269073 86.294711 
L 185.806263 85.996578 
L 187.343454 85.724109 
L 188.880644 85.480764 
L 190.417834 85.269694 
L 191.955024 85.093679 
L 193.492214 84.955072 
L 195.029404 84.855745 
L 196.566594 84.797055 
L 198.103784 84.779811 
" clip-path="url(#pc12f7c1d17)" style="fill: none; stroke: #1f77b4; stroke-width: 1.2; stroke-linecap: round"/>
   </g>
   <g id="line2d_15">
    <path d="M 45.921966 61.155076 
L 47.459156 58.406602 
L 48.996346 55.882689 
L 50.533536 53.585686 
L 52.070726 51.487702 
L 53.607916 49.595842 
L 55.145106 47.893819 
L 56.682296 46.378714 
L 58.219487 45.041427 
L 59.756677 43.887384 
L 61.293867 42.921092 
L 62.831057 42.161104 
L 64.368247 41.608018 
L 65.905437 41.294654 
L 67.442627 41.232248 
L 68.979817 41.451097 
L 70.517007 41.963563 
L 72.054197 42.787313 
L 73.591387 43.941764 
L 75.128577 45.432219 
L 76.665768 47.257153 
L 78.202958 49.400949 
L 79.740148 51.854137 
L 81.277338 54.571314 
L 82.814528 57.520578 
L 84.351718 60.644404 
L 85.888908 63.892002 
L 87.426098 67.190631 
L 88.963288 70.465518 
L 90.500478 73.653944 
L 92.037668 76.670909 
L 93.574858 79.459753 
L 95.112049 81.948393 
L 96.649239 84.0921 
L 98.186429 85.849241 
L 99.723619 87.196251 
L 101.260809 88.115358 
L 102.797999 88.617315 
L 104.335189 88.725404 
L 105.872379 88.475567 
L 107.409569 87.907538 
L 108.946759 87.095875 
L 110.483949 86.093 
L 112.021139 84.975808 
L 113.55833 83.814821 
L 115.09552 82.681376 
L 116.63271 81.632951 
L 118.1699 80.726195 
L 119.70709 79.990843 
L 121.24428 79.466359 
L 122.78147 79.152511 
L 124.31866 79.061976 
L 125.85585 79.158645 
L 127.39304 79.428915 
L 128.93023 79.827398 
L 130.46742 80.308867 
L 132.004611 80.818755 
L 133.541801 81.310811 
L 135.078991 81.739526 
L 136.616181 82.056965 
L 138.153371 82.228083 
L 139.690561 82.227574 
L 141.227751 82.041593 
L 142.764941 81.677852 
L 144.302131 81.141094 
L 145.839321 80.455102 
L 147.376511 79.656835 
L 148.913701 78.779264 
L 150.450892 77.892516 
L 151.988082 77.032994 
L 153.525272 76.243574 
L 155.062462 75.599094 
L 156.599652 75.132682 
L 158.136842 74.873687 
L 159.674032 74.860083 
L 161.211222 75.115677 
L 162.748412 75.640993 
L 164.285602 76.418798 
L 165.822792 77.457582 
L 167.359982 78.704891 
L 168.897173 80.135956 
L 170.434363 81.693274 
L 171.971553 83.333323 
L 173.508743 84.991576 
L 175.045933 86.616377 
L 176.583123 88.140706 
L 178.120313 89.51795 
L 179.657503 90.691132 
L 181.194693 91.629473 
L 182.731883 92.297346 
L 184.269073 92.673188 
L 185.806263 92.762746 
L 187.343454 92.569916 
L 188.880644 92.116761 
L 190.417834 91.426397 
L 191.955024 90.557783 
L 193.492214 89.549537 
L 195.029404 88.474873 
L 196.566594 87.385611 
L 198.103784 86.335625 
" clip-path="url(#pc12f7c1d17)" style="fill: none; stroke: #d62728; stroke-opacity: 0.5; stroke-width: 0.5; stroke-linecap: round"/>
   </g>
   <g id="line2d_16">
    <path d="M 58.48168 168.278875 
L 59.756677 161.298013 
L 61.293867 152.958761 
L 62.831057 144.790817 
L 64.368247 136.914763 
L 65.905437 129.410043 
L 67.442627 122.35337 
L 68.979817 115.799792 
L 70.517007 109.785037 
L 72.054197 104.316646 
L 73.591387 99.405375 
L 75.128577 95.036106 
L 76.665768 91.179408 
L 78.202958 87.793951 
L 79.740148 84.845317 
L 81.277338 82.286561 
L 82.814528 80.077395 
L 84.351718 78.165847 
L 85.888908 76.535888 
L 87.426098 75.144829 
L 88.963288 73.974937 
L 90.500478 73.030514 
L 92.037668 72.278736 
L 93.574858 71.75497 
L 95.112049 71.451942 
L 96.649239 71.385362 
L 98.186429 71.569387 
L 99.723619 72.016784 
L 101.260809 72.732064 
L 102.797999 73.710557 
L 104.335189 74.955494 
L 105.872379 76.430867 
L 107.409569 78.126534 
L 108.946759 79.989934 
L 110.483949 81.969421 
L 112.021139 84.001989 
L 113.55833 86.044438 
L 115.09552 87.998316 
L 116.63271 89.80395 
L 118.1699 91.39103 
L 119.70709 92.687639 
L 121.24428 93.634461 
L 122.78147 94.194026 
L 124.31866 94.31534 
L 125.85585 93.981733 
L 127.39304 93.193943 
L 128.93023 91.9571 
L 130.46742 90.291511 
L 132.004611 88.246132 
L 133.541801 85.86811 
L 135.078991 83.223364 
L 136.616181 80.375417 
L 138.153371 77.415485 
L 139.690561 74.406949 
L 141.227751 71.43358 
L 142.764941 68.559336 
L 144.302131 65.855794 
L 145.839321 63.374331 
L 147.376511 61.148913 
L 148.913701 59.226485 
L 150.450892 57.618088 
L 151.988082 56.336375 
L 153.525272 55.367945 
L 155.062462 54.718287 
L 156.599652 54.343763 
L 158.136842 54.244657 
L 159.674032 54.371654 
L 161.211222 54.697679 
L 162.748412 55.191815 
L 164.285602 55.842287 
L 165.822792 56.602594 
L 167.359982 57.458153 
L 168.897173 58.396653 
L 170.434363 59.410778 
L 171.971553 60.496034 
L 173.508743 61.652951 
L 175.045933 62.877328 
L 176.583123 64.166551 
L 178.120313 65.546561 
L 179.657503 67.005164 
L 181.194693 68.542056 
L 182.731883 70.153688 
L 184.269073 71.84282 
L 185.806263 73.581851 
L 187.343454 75.372962 
L 188.880644 77.178126 
L 190.417834 78.981341 
L 191.955024 80.748527 
L 193.492214 82.46009 
L 195.029404 84.083602 
L 196.566594 85.597559 
L 198.103784 86.96473 
" clip-path="url(#pc12f7c1d17)" style="fill: none; stroke: #d62728; stroke-opacity: 0.5; stroke-width: 0.5; stroke-linecap: round"/>
   </g>
   <g id="line2d_17">
    <path d="M 45.921966 31.4481 
L 47.459156 30.72833 
L 48.996346 30.143905 
L 50.533536 29.738552 
L 52.070726 29.543267 
L 53.607916 29.573186 
L 55.145106 29.830931 
L 56.682296 30.318393 
L 58.219487 31.025096 
L 59.756677 31.926835 
L 61.293867 33.006248 
L 62.831057 34.227565 
L 64.368247 35.576533 
L 65.905437 37.028078 
L 67.442627 38.545879 
L 68.979817 40.14126 
L 70.517007 41.782703 
L 72.054197 43.482591 
L 73.591387 45.248143 
L 75.128577 47.079583 
L 76.665768 48.989438 
L 78.202958 51.012526 
L 79.740148 53.149436 
L 81.277338 55.416313 
L 82.814528 57.836123 
L 84.351718 60.39505 
L 85.888908 63.106792 
L 87.426098 65.93871 
L 88.963288 68.892521 
L 90.500478 71.920207 
L 92.037668 74.999172 
L 93.574858 78.070523 
L 95.112049 81.078308 
L 96.649239 83.988025 
L 98.186429 86.723136 
L 99.723619 89.245763 
L 101.260809 91.505789 
L 102.797999 93.450864 
L 104.335189 95.057326 
L 105.872379 96.286316 
L 107.409569 97.145532 
L 108.946759 97.614505 
L 110.483949 97.722291 
L 112.021139 97.476063 
L 113.55833 96.915548 
L 115.09552 96.083095 
L 116.63271 95.020868 
L 118.1699 93.803533 
L 119.70709 92.475977 
L 121.24428 91.107496 
L 122.78147 89.765532 
L 124.31866 88.514278 
L 125.85585 87.423331 
L 127.39304 86.536353 
L 128.93023 85.928433 
L 130.46742 85.631636 
L 132.004611 85.69989 
L 133.541801 86.15984 
L 135.078991 87.044995 
L 136.616181 88.359222 
L 138.153371 90.111671 
L 139.690561 92.305144 
L 141.227751 94.919946 
L 142.764941 97.926277 
L 144.302131 101.289548 
L 145.839321 104.970851 
L 147.376511 108.907986 
L 148.913701 113.047738 
L 150.450892 117.314758 
L 151.988082 121.632078 
L 153.525272 125.933731 
L 155.062462 130.130162 
L 156.599652 134.154233 
L 158.136842 137.916323 
L 159.674032 141.363822 
L 161.211222 144.412962 
L 162.748412 147.014028 
L 164.285602 149.111989 
L 165.822792 150.680786 
L 167.359982 151.667612 
L 168.897173 152.062451 
L 170.434363 151.856094 
L 171.971553 151.045934 
L 173.508743 149.640267 
L 175.045933 147.664822 
L 176.583123 145.137557 
L 178.120313 142.094987 
L 179.657503 138.592463 
L 181.194693 134.669167 
L 182.731883 130.386167 
L 184.269073 125.803832 
L 185.806263 120.994379 
L 187.343454 116.015211 
L 188.880644 110.959771 
L 190.417834 105.882673 
L 191.955024 100.873385 
L 193.492214 95.988093 
L 195.029404 91.302321 
L 196.566594 86.882446 
L 198.103784 82.78667 
" clip-path="url(#pc12f7c1d17)" style="fill: none; stroke: #d62728; stroke-opacity: 0.5; stroke-width: 0.5; stroke-linecap: round"/>
   </g>
   <g id="line2d_18">
    <path d="M 45.921966 118.403367 
L 47.459156 115.559368 
L 48.996346 113.067235 
L 50.533536 110.904663 
L 52.070726 109.043514 
L 53.607916 107.438945 
L 55.145106 106.061884 
L 56.682296 104.854622 
L 58.219487 103.76889 
L 59.756677 102.745931 
L 61.293867 101.73775 
L 62.831057 100.697976 
L 64.368247 99.586003 
L 65.905437 98.351631 
L 67.442627 96.984124 
L 68.979817 95.447831 
L 70.517007 93.74523 
L 72.054197 91.872912 
L 73.591387 89.847706 
L 75.128577 87.690104 
L 76.665768 85.441057 
L 78.202958 83.149073 
L 79.740148 80.865818 
L 81.277338 78.653244 
L 82.814528 76.586877 
L 84.351718 74.738343 
L 85.888908 73.177727 
L 87.426098 71.980223 
L 88.963288 71.204586 
L 90.500478 70.920957 
L 92.037668 71.162157 
L 93.574858 71.98177 
L 95.112049 73.391122 
L 96.649239 75.40699 
L 98.186429 78.010031 
L 99.723619 81.184612 
L 101.260809 84.892829 
L 102.797999 89.064949 
L 104.335189 93.655107 
L 105.872379 98.567583 
L 107.409569 103.721687 
L 108.946759 109.025149 
L 110.483949 114.372087 
L 112.021139 119.664367 
L 113.55833 124.795857 
L 115.09552 129.670264 
L 116.63271 134.199506 
L 118.1699 138.294898 
L 119.70709 141.863715 
L 121.24428 144.862767 
L 122.78147 147.228749 
L 124.31866 148.921135 
L 125.85585 149.928159 
L 127.39304 150.237562 
L 128.93023 149.86183 
L 130.46742 148.825332 
L 132.004611 147.175649 
L 133.541801 144.9614 
L 135.078991 142.267745 
L 136.616181 139.155676 
L 138.153371 135.721189 
L 139.690561 132.054731 
L 141.227751 128.24565 
L 142.764941 124.377879 
L 144.302131 120.551175 
L 145.839321 116.833924 
L 147.376511 113.293061 
L 148.913701 109.990342 
L 150.450892 106.975112 
L 151.988082 104.274668 
L 153.525272 101.903926 
L 155.062462 99.893749 
L 156.599652 98.218794 
L 158.136842 96.884459 
L 159.674032 95.86617 
L 161.211222 95.142988 
L 162.748412 94.691301 
L 164.285602 94.46942 
L 165.822792 94.460402 
L 167.359982 94.620779 
L 168.897173 94.92274 
L 170.434363 95.331804 
L 171.971553 95.818778 
L 173.508743 96.343345 
L 175.045933 96.876281 
L 176.583123 97.388193 
L 178.120313 97.843776 
L 179.657503 98.218918 
L 181.194693 98.477429 
L 182.731883 98.602034 
L 184.269073 98.557466 
L 185.806263 98.313898 
L 187.343454 97.867157 
L 188.880644 97.197921 
L 190.417834 96.272539 
L 191.955024 95.099043 
L 193.492214 93.674711 
L 195.029404 91.983479 
L 196.566594 90.051901 
L 198.103784 87.866221 
" clip-path="url(#pc12f7c1d17)" style="fill: none; stroke: #d62728; stroke-opacity: 0.5; stroke-width: 0.5; stroke-linecap: round"/>
   </g>
   <g id="line2d_19">
    <path d="M 45.921966 114.720019 
L 47.459156 113.442171 
L 48.996346 112.002247 
L 50.533536 110.413132 
L 52.070726 108.688207 
L 53.607916 106.843255 
L 55.145106 104.88022 
L 56.682296 102.815346 
L 58.219487 100.649345 
L 59.756677 98.38549 
L 61.293867 96.032811 
L 62.831057 93.610136 
L 64.368247 91.121582 
L 65.905437 88.603357 
L 67.442627 86.064164 
L 68.979817 83.554509 
L 70.517007 81.10385 
L 72.054197 78.75071 
L 73.591387 76.551685 
L 75.128577 74.555904 
L 76.665768 72.798811 
L 78.202958 71.322914 
L 79.740148 70.172421 
L 81.277338 69.375533 
L 82.814528 68.945767 
L 84.351718 68.899034 
L 85.888908 69.218128 
L 87.426098 69.908045 
L 88.963288 70.929323 
L 90.500478 72.24606 
L 92.037668 73.816523 
L 93.574858 75.585647 
L 95.112049 77.486829 
L 96.649239 79.471634 
L 98.186429 81.469972 
L 99.723619 83.426124 
L 101.260809 85.284384 
L 102.797999 87.00407 
L 104.335189 88.52814 
L 105.872379 89.842074 
L 107.409569 90.922281 
L 108.946759 91.756882 
L 110.483949 92.340376 
L 112.021139 92.689755 
L 113.55833 92.817398 
L 115.09552 92.751673 
L 116.63271 92.522128 
L 118.1699 92.159945 
L 119.70709 91.70166 
L 121.24428 91.191553 
L 122.78147 90.666213 
L 124.31866 90.172644 
L 125.85585 89.754693 
L 127.39304 89.438512 
L 128.93023 89.275183 
L 130.46742 89.278851 
L 132.004611 89.488055 
L 133.541801 89.919952 
L 135.078991 90.610209 
L 136.616181 91.556656 
L 138.153371 92.772706 
L 139.690561 94.261406 
L 141.227751 96.023997 
L 142.764941 98.033308 
L 144.302131 100.279954 
L 145.839321 102.729938 
L 147.376511 105.345186 
L 148.913701 108.08781 
L 150.450892 110.900268 
L 151.988082 113.730528 
L 153.525272 116.501197 
L 155.062462 119.174268 
L 156.599652 121.656375 
L 158.136842 123.890148 
L 159.674032 125.806195 
L 161.211222 127.353886 
L 162.748412 128.470646 
L 164.285602 129.108448 
L 165.822792 129.253606 
L 167.359982 128.863581 
L 168.897173 127.938028 
L 170.434363 126.489786 
L 171.971553 124.533786 
L 173.508743 122.102844 
L 175.045933 119.263805 
L 176.583123 116.062601 
L 178.120313 112.597165 
L 179.657503 108.935702 
L 181.194693 105.178323 
L 182.731883 101.426579 
L 184.269073 97.785678 
L 185.806263 94.359338 
L 187.343454 91.238971 
L 188.880644 88.526538 
L 190.417834 86.305426 
L 191.955024 84.654001 
L 193.492214 83.635903 
L 195.029404 83.290473 
L 196.566594 83.658524 
L 198.103784 84.748479 
" clip-path="url(#pc12f7c1d17)" style="fill: none; stroke: #d62728; stroke-opacity: 0.5; stroke-width: 0.5; stroke-linecap: round"/>
   </g>
   <g id="line2d_20">
    <path d="M 144.205343 130.9515 
L 144.205343 20.0715 
" clip-path="url(#pc12f7c1d17)" style="fill: none; stroke-dasharray: 4.44,1.92; stroke-dashoffset: 0; stroke: #ff0000; stroke-width: 1.2"/>
   </g>
   <g id="patch_3">
    <path d="M 38.312875 130.9515 
L 38.312875 20.0715 
" style="fill: none; stroke: #262626; stroke-linejoin: miter; stroke-linecap: square"/>
   </g>
   <g id="patch_4">
    <path d="M 45.921966 130.9515 
L 198.103784 130.9515 
" style="fill: none; stroke: #262626; stroke-linejoin: miter; stroke-linecap: square"/>
   </g>
   <g id="text_16">
    <!-- $N=2$ -->
    <g style="fill: #262626" transform="translate(109.436875 14.0715) scale(0.096 -0.096)">
     <defs>
      <path id="DejaVuSans-Oblique-4e" d="M 1081 4666 
L 1931 4666 
L 3219 666 
L 4000 4666 
L 4616 4666 
L 3706 0 
L 2853 0 
L 1569 4025 
L 788 0 
L 172 0 
L 1081 4666 
z
" transform="scale(0.015625)"/>
      <path id="DejaVuSans-3d" d="M 678 2906 
L 4684 2906 
L 4684 2381 
L 678 2381 
L 678 2906 
z
M 678 1631 
L 4684 1631 
L 4684 1100 
L 678 1100 
L 678 1631 
z
" transform="scale(0.015625)"/>
      <path id="DejaVuSans-32" d="M 1228 531 
L 3431 531 
L 3431 0 
L 469 0 
L 469 531 
Q 828 903 1448 1529 
Q 2069 2156 2228 2338 
Q 2531 2678 2651 2914 
Q 2772 3150 2772 3378 
Q 2772 3750 2511 3984 
Q 2250 4219 1831 4219 
Q 1534 4219 1204 4116 
Q 875 4013 500 3803 
L 500 4441 
Q 881 4594 1212 4672 
Q 1544 4750 1819 4750 
Q 2544 4750 2975 4387 
Q 3406 4025 3406 3419 
Q 3406 3131 3298 2873 
Q 3191 2616 2906 2266 
Q 2828 2175 2409 1742 
Q 1991 1309 1228 531 
z
" transform="scale(0.015625)"/>
     </defs>
     <use xlink:href="#DejaVuSans-Oblique-4e" transform="translate(0 0.78125)"/>
     <use xlink:href="#DejaVuSans-3d" transform="translate(94.287109 0.78125)"/>
     <use xlink:href="#DejaVuSans-32" transform="translate(197.558594 0.78125)"/>
    </g>
   </g>
   <g id="legend_1">
    <g id="patch_5">
     <path d="M 145.608875 39.559375 
L 199.552875 39.559375 
Q 201.312875 39.559375 201.312875 37.799375 
L 201.312875 26.2315 
Q 201.312875 24.4715 199.552875 24.4715 
L 145.608875 24.4715 
Q 143.848875 24.4715 143.848875 26.2315 
L 143.848875 37.799375 
Q 143.848875 39.559375 145.608875 39.559375 
z
" style="fill: #ffffff; opacity: 0.8; stroke: #cccccc; stroke-width: 0.8; stroke-linejoin: miter"/>
    </g>
    <g id="line2d_21">
     <path d="M 147.368875 31.210375 
L 156.168875 31.210375 
L 164.968875 31.210375 
" style="fill: none; stroke-dasharray: 4.44,1.92; stroke-dashoffset: 0; stroke: #ff0000; stroke-width: 1.2"/>
    </g>
    <g id="text_17">
     <!-- Next $x$ -->
     <g style="fill: #262626" transform="translate(172.008875 34.290375) scale(0.088 -0.088)">
      <defs>
       <path id="ArialMT-4e" d="M 488 0 
L 488 4581 
L 1109 4581 
L 3516 984 
L 3516 4581 
L 4097 4581 
L 4097 0 
L 3475 0 
L 1069 3600 
L 1069 0 
L 488 0 
z
" transform="scale(0.015625)"/>
       <path id="ArialMT-65" d="M 2694 1069 
L 3275 997 
Q 3138 488 2766 206 
Q 2394 -75 1816 -75 
Q 1088 -75 661 373 
Q 234 822 234 1631 
Q 234 2469 665 2931 
Q 1097 3394 1784 3394 
Q 2450 3394 2872 2941 
Q 3294 2488 3294 1666 
Q 3294 1616 3291 1516 
L 816 1516 
Q 847 969 1125 678 
Q 1403 388 1819 388 
Q 2128 388 2347 550 
Q 2566 713 2694 1069 
z
M 847 1978 
L 2700 1978 
Q 2663 2397 2488 2606 
Q 2219 2931 1791 2931 
Q 1403 2931 1139 2672 
Q 875 2413 847 1978 
z
" transform="scale(0.015625)"/>
       <path id="ArialMT-78" d="M 47 0 
L 1259 1725 
L 138 3319 
L 841 3319 
L 1350 2541 
Q 1494 2319 1581 2169 
Q 1719 2375 1834 2534 
L 2394 3319 
L 3066 3319 
L 1919 1756 
L 3153 0 
L 2463 0 
L 1781 1031 
L 1600 1309 
L 728 0 
L 47 0 
z
" transform="scale(0.015625)"/>
       <path id="ArialMT-74" d="M 1650 503 
L 1731 6 
Q 1494 -44 1306 -44 
Q 1000 -44 831 53 
Q 663 150 594 308 
Q 525 466 525 972 
L 525 2881 
L 113 2881 
L 113 3319 
L 525 3319 
L 525 4141 
L 1084 4478 
L 1084 3319 
L 1650 3319 
L 1650 2881 
L 1084 2881 
L 1084 941 
Q 1084 700 1114 631 
Q 1144 563 1211 522 
Q 1278 481 1403 481 
Q 1497 481 1650 503 
z
" transform="scale(0.015625)"/>
       <path id="ArialMT-20" transform="scale(0.015625)"/>
      </defs>
      <use xlink:href="#ArialMT-4e" transform="translate(0 0.421875)"/>
      <use xlink:href="#ArialMT-65" transform="translate(72.216797 0.421875)"/>
      <use xlink:href="#ArialMT-78" transform="translate(127.832031 0.421875)"/>
      <use xlink:href="#ArialMT-74" transform="translate(177.832031 0.421875)"/>
      <use xlink:href="#ArialMT-20" transform="translate(205.615234 0.421875)"/>
      <use xlink:href="#DejaVuSans-Oblique-78" transform="translate(233.398438 0.421875)"/>
     </g>
    </g>
   </g>
  </g>
 </g>
 <defs>
  <clipPath id="pc12f7c1d17">
   <rect x="38.312875" y="20.0715" width="167.4" height="110.88"/>
  </clipPath>
 </defs>
</svg>