<?xml version="1.0" encoding="utf-8" standalone="no"?>
<!DOCTYPE svg PUBLIC "-//W3C//DTD SVG 1.1//EN"
  "http://www.w3.org/Graphics/SVG/1.1/DTD/svg11.dtd">
<svg xmlns:xlink="http://www.w3.org/1999/xlink" width="404.8315pt" height="309.639375pt" viewBox="0 0 404.8315 309.639375" xmlns="http://www.w3.org/2000/svg" version="1.1">
 <metadata>
  <rdf:RDF xmlns:dc="http://purl.org/dc/elements/1.1/" xmlns:cc="http://creativecommons.org/ns#" xmlns:rdf="http://www.w3.org/1999/02/22-rdf-syntax-ns#">
   <cc:Work>
    <dc:type rdf:resource="http://purl.org/dc/dcmitype/StillImage"/>
    <dc:date>2025-03-14T11:30:56.060280</dc:date>
    <dc:format>image/svg+xml</dc:format>
    <dc:creator>
     <cc:Agent>
      <dc:title>Matplotlib v3.9.2, https://matplotlib.org/</dc:title>
     </cc:Agent>
    </dc:creator>
   </cc:Work>
  </rdf:RDF>
 </metadata>
 <defs>
  <style type="text/css">*{stroke-linejoin: round; stroke-linecap: butt}</style>
 </defs>
 <g id="figure_1">
  <g id="patch_1">
   <path d="M 0 309.639375 
L 404.8315 309.639375 
L 404.8315 0 
L 0 0 
z
" style="fill: #ffffff"/>
  </g>
  <g id="axes_1">
   <g id="patch_2">
    <path d="M 40.5115 273.312 
L 397.6315 273.312 
L 397.6315 7.2 
L 40.5115 7.2 
z
" style="fill: #ffffff"/>
   </g>
   <g id="PolyCollection_1">
    <defs>
     <path id="mc55294f96e" d="M 56.744227 -290.343375 
L 56.744227 -290.343375 
L 57.393536 -289.220246 
L 58.042845 -288.087863 
L 58.692155 -286.947242 
L 59.341464 -285.799413 
L 59.990773 -284.64406 
L 60.640082 -283.481423 
L 61.289391 -282.311756 
L 61.9387 -281.135325 
L 62.588009 -279.952412 
L 63.237318 -278.763309 
L 63.886627 -277.568321 
L 64.535936 -276.367768 
L 65.185245 -275.161978 
L 65.834555 -273.951296 
L 66.483864 -272.736824 
L 67.133173 -271.518378 
L 67.782482 -270.296265 
L 68.431791 -269.070873 
L 69.0811 -267.845172 
L 69.730409 -266.646148 
L 70.379718 -265.448868 
L 71.029027 -264.253834 
L 71.678336 -263.044552 
L 72.327645 -261.807082 
L 72.976955 -260.568677 
L 73.626264 -259.331264 
L 74.275573 -258.095627 
L 74.924882 -256.856657 
L 75.574191 -255.615971 
L 76.2235 -254.378406 
L 76.872809 -253.143899 
L 77.522118 -251.911647 
L 78.171427 -250.682109 
L 78.820736 -249.455743 
L 79.470045 -248.195347 
L 80.119355 -246.912092 
L 80.768664 -245.701187 
L 81.417973 -244.496672 
L 82.067282 -243.169024 
L 82.716591 -241.792048 
L 83.3659 -240.490047 
L 84.015209 -239.207072 
L 84.664518 -237.92606 
L 85.313827 -236.648283 
L 85.963136 -235.378994 
L 86.612445 -234.113112 
L 87.261755 -232.897263 
L 87.911064 -231.794118 
L 88.560373 -230.703284 
L 89.209682 -229.628632 
L 89.858991 -228.566545 
L 90.5083 -227.517277 
L 91.157609 -226.48107 
L 91.806918 -225.458145 
L 92.456227 -224.448706 
L 93.105536 -223.452943 
L 93.754845 -222.471023 
L 94.404155 -221.503101 
L 95.053464 -220.549311 
L 95.702773 -219.609773 
L 96.352082 -218.484055 
L 97.001391 -217.330328 
L 97.6507 -216.012733 
L 98.300009 -214.799478 
L 98.949318 -213.591026 
L 99.598627 -212.387607 
L 100.247936 -211.198015 
L 100.897245 -210.309162 
L 101.546555 -209.546933 
L 102.195864 -208.809381 
L 102.845173 -208.08968 
L 103.494482 -207.122149 
L 104.143791 -206.522162 
L 104.7931 -205.941889 
L 105.442409 -204.841661 
L 106.091718 -204.187323 
L 106.741027 -203.549596 
L 107.390336 -202.93252 
L 108.039645 -202.341764 
L 108.688955 -201.055899 
L 109.338264 -199.756108 
L 109.987573 -198.528619 
L 110.636882 -197.44253 
L 111.286191 -196.911883 
L 111.9355 -195.527588 
L 112.584809 -194.095438 
L 113.234118 -192.676265 
L 113.883427 -191.980296 
L 114.532736 -191.656595 
L 115.182045 -191.350295 
L 115.831355 -191.061003 
L 116.480664 -190.788317 
L 117.129973 -190.531826 
L 117.779282 -190.29111 
L 118.428591 -190.06574 
L 119.0779 -189.375085 
L 119.727209 -188.506254 
L 120.376518 -187.646716 
L 121.025827 -186.796531 
L 121.675136 -185.955754 
L 122.324445 -185.192815 
L 122.973755 -184.828213 
L 123.623064 -184.47104 
L 124.272373 -184.120874 
L 124.921682 -183.777297 
L 125.570991 -183.439889 
L 126.2203 -182.441885 
L 126.869609 -181.086872 
L 127.518918 -179.736562 
L 128.168227 -178.391334 
L 128.817536 -177.675103 
L 129.466845 -177.401324 
L 130.116155 -177.137731 
L 130.765464 -176.66493 
L 131.414773 -175.585388 
L 132.064082 -174.51846 
L 132.713391 -173.464448 
L 133.3627 -172.423644 
L 134.012009 -171.565807 
L 134.661318 -170.36644 
L 135.310627 -169.783359 
L 135.959936 -169.601488 
L 136.609245 -169.273544 
L 137.258555 -169.15119 
L 137.907864 -169.028861 
L 138.557173 -168.906047 
L 139.206482 -168.782239 
L 139.855791 -168.134382 
L 140.5051 -167.033767 
L 141.154409 -165.949623 
L 141.803718 -164.88221 
L 142.453027 -163.831771 
L 143.102336 -163.004859 
L 143.751645 -161.963783 
L 144.400955 -161.510032 
L 145.050264 -161.067061 
L 145.699573 -160.624006 
L 146.348882 -160.180703 
L 146.998191 -159.503559 
L 147.6475 -158.419704 
L 148.296809 -157.643798 
L 148.946118 -157.098897 
L 149.595427 -156.554892 
L 150.244736 -156.022461 
L 150.894045 -155.494429 
L 151.543355 -154.966881 
L 152.192664 -154.439755 
L 152.841973 -153.912993 
L 153.491282 -153.348508 
L 154.140591 -152.104175 
L 154.7899 -151.034115 
L 155.439209 -150.509307 
L 156.088518 -149.982406 
L 156.737827 -149.477047 
L 157.387136 -148.971259 
L 158.036445 -148.462965 
L 158.685755 -147.952127 
L 159.335064 -147.43872 
L 159.984373 -147.082571 
L 160.633682 -146.383686 
L 161.282991 -145.975762 
L 161.9323 -145.715227 
L 162.581609 -144.785538 
L 163.230918 -144.231857 
L 163.880227 -143.675932 
L 164.529536 -143.138237 
L 165.178845 -142.478838 
L 165.828155 -141.680786 
L 166.477464 -141.135654 
L 167.126773 -140.692068 
L 167.776082 -139.757808 
L 168.425391 -139.502092 
L 169.0747 -138.702048 
L 169.724009 -137.912372 
L 170.373318 -137.1325 
L 171.022627 -136.396085 
L 171.671936 -135.944225 
L 172.321245 -134.898251 
L 172.970555 -134.568919 
L 173.619864 -134.52865 
L 174.269173 -133.976182 
L 174.918482 -133.751824 
L 175.567791 -133.39847 
L 176.2171 -132.980599 
L 176.866409 -132.48807 
L 177.515718 -131.910427 
L 178.165027 -131.333155 
L 178.814336 -130.607237 
L 179.463645 -130.180342 
L 180.112955 -129.605109 
L 180.762264 -128.870073 
L 181.411573 -128.161364 
L 182.060882 -127.74369 
L 182.710191 -127.338018 
L 183.3595 -126.571042 
L 184.008809 -126.158248 
L 184.658118 -125.616938 
L 185.307427 -125.051836 
L 185.956736 -124.491042 
L 186.606045 -123.935552 
L 187.255355 -123.395982 
L 187.904664 -122.90954 
L 188.553973 -122.545455 
L 189.203282 -121.899751 
L 189.852591 -121.208854 
L 190.5019 -120.641156 
L 191.151209 -120.031905 
L 191.800518 -119.014364 
L 192.449827 -118.849088 
L 193.099136 -118.21733 
L 193.748445 -117.772715 
L 194.397755 -117.246102 
L 195.047064 -116.732099 
L 195.696373 -116.225014 
L 196.345682 -115.731826 
L 196.994991 -115.252453 
L 197.6443 -114.787189 
L 198.293609 -114.268002 
L 198.942918 -113.404667 
L 199.592227 -112.794231 
L 200.241536 -112.456272 
L 200.890845 -112.13503 
L 201.540155 -111.820078 
L 202.189464 -111.511255 
L 202.838773 -111.077336 
L 203.488082 -110.756711 
L 204.137391 -110.547633 
L 204.7867 -110.318388 
L 205.436009 -110.031604 
L 206.085318 -109.749961 
L 206.734627 -109.473297 
L 207.383936 -109.201453 
L 208.033245 -108.537319 
L 208.682555 -107.867957 
L 209.331864 -107.213593 
L 209.981173 -106.574176 
L 210.630482 -105.994513 
L 211.279791 -105.53606 
L 211.9291 -105.225471 
L 212.578409 -104.851509 
L 213.227718 -104.484668 
L 213.877027 -104.125004 
L 214.526336 -103.772564 
L 215.175645 -103.435529 
L 215.824955 -103.1092 
L 216.474264 -102.789919 
L 217.123573 -102.12756 
L 217.772882 -102.066101 
L 218.422191 -101.769202 
L 219.0715 -101.199336 
L 219.720809 -100.639542 
L 220.370118 -100.089948 
L 221.019427 -99.73461 
L 221.668736 -99.532176 
L 222.318045 -99.159992 
L 222.967355 -98.300874 
L 223.616664 -97.461236 
L 224.265973 -96.958416 
L 224.915282 -96.706595 
L 225.564591 -96.756075 
L 226.2139 -96.809031 
L 226.863209 -96.865099 
L 227.512518 -96.671886 
L 228.161827 -96.383592 
L 228.811136 -96.106072 
L 229.460445 -95.702237 
L 230.109755 -95.539814 
L 230.759064 -95.22223 
L 231.408373 -95.092541 
L 232.057682 -94.989696 
L 232.706991 -94.82789 
L 233.3563 -94.689546 
L 234.005609 -94.405994 
L 234.654918 -93.861423 
L 235.304227 -93.330956 
L 235.953536 -93.049053 
L 236.602845 -92.514387 
L 237.252155 -92.439271 
L 237.901464 -92.514614 
L 238.550773 -92.021114 
L 239.200082 -91.538396 
L 239.849391 -91.061724 
L 240.4987 -90.590333 
L 241.148009 -90.340741 
L 241.797318 -90.255979 
L 242.446627 -90.169451 
L 243.095936 -90.080744 
L 243.745245 -89.989455 
L 244.394555 -89.895196 
L 245.043864 -89.797591 
L 245.693173 -89.500508 
L 246.342482 -89.282652 
L 246.991791 -88.968117 
L 247.6411 -88.470642 
L 248.290409 -88.105247 
L 248.939718 -87.658496 
L 249.589027 -86.983435 
L 250.238336 -86.646925 
L 250.887645 -86.59705 
L 251.536955 -86.435072 
L 252.186264 -86.112172 
L 252.835573 -85.792674 
L 253.484882 -85.476849 
L 254.134191 -85.170322 
L 254.7835 -84.866581 
L 255.432809 -84.565499 
L 256.082118 -84.266951 
L 256.731427 -83.970816 
L 257.380736 -83.676976 
L 258.030045 -83.385315 
L 258.679355 -83.124647 
L 259.328664 -82.980098 
L 259.977973 -82.835991 
L 260.627282 -82.676177 
L 261.276591 -82.426205 
L 261.9259 -82.117126 
L 262.575209 -81.772548 
L 263.224518 -81.381965 
L 263.873827 -80.994656 
L 264.523136 -80.611662 
L 265.172445 -80.403477 
L 265.821755 -80.108007 
L 266.471064 -79.704971 
L 267.120373 -79.452178 
L 267.769682 -79.224372 
L 268.418991 -78.91006 
L 269.0683 -78.616624 
L 269.717609 -78.462193 
L 270.366918 -78.295367 
L 271.016227 -78.128155 
L 271.665536 -77.76729 
L 272.314845 -77.416765 
L 272.964155 -77.071806 
L 273.613464 -76.755355 
L 274.262773 -76.492336 
L 274.912082 -76.230738 
L 275.561391 -75.970617 
L 276.2107 -75.712033 
L 276.860009 -75.455054 
L 277.509318 -74.990402 
L 278.158627 -74.744296 
L 278.807936 -74.626349 
L 279.457245 -74.456974 
L 280.106555 -74.217496 
L 280.755864 -74.061014 
L 281.405173 -73.904043 
L 282.054482 -73.746545 
L 282.703791 -73.41844 
L 283.3531 -73.009734 
L 284.002409 -72.770948 
L 284.651718 -72.534808 
L 285.301027 -72.301733 
L 285.950336 -72.057079 
L 286.599645 -71.348975 
L 287.248955 -71.084042 
L 287.898264 -71.071351 
L 288.547573 -70.87061 
L 289.196882 -70.674492 
L 289.846191 -70.63336 
L 290.4955 -70.380149 
L 291.144809 -70.118928 
L 291.794118 -69.909267 
L 292.443427 -69.768327 
L 293.092736 -69.424105 
L 293.742045 -69.193776 
L 294.391355 -68.913179 
L 295.040664 -68.637359 
L 295.689973 -68.329425 
L 296.339282 -68.062611 
L 296.988591 -67.819165 
L 297.6379 -67.537329 
L 298.287209 -67.186951 
L 298.936518 -66.992216 
L 299.585827 -66.568166 
L 300.235136 -66.349984 
L 300.884445 -66.184172 
L 301.533755 -66.007593 
L 302.183064 -65.719022 
L 302.832373 -65.512721 
L 303.481682 -65.298762 
L 304.130991 -65.024064 
L 304.7803 -64.798874 
L 305.429609 -64.595109 
L 306.078918 -64.34359 
L 306.728227 -64.059293 
L 307.377536 -63.782657 
L 308.026845 -63.520358 
L 308.676155 -63.298182 
L 309.325464 -63.083863 
L 309.974773 -62.877171 
L 310.624082 -62.680085 
L 311.273391 -62.493877 
L 311.9227 -62.304688 
L 312.572009 -62.128782 
L 313.221318 -61.957847 
L 313.870627 -61.791905 
L 314.519936 -61.631836 
L 315.169245 -61.479383 
L 315.818555 -61.263763 
L 316.467864 -61.132426 
L 317.117173 -61.020345 
L 317.766482 -60.913162 
L 318.415791 -60.70039 
L 319.0651 -60.44612 
L 319.714409 -60.424724 
L 320.363718 -60.30051 
L 321.013027 -60.169714 
L 321.662336 -60.140085 
L 322.311645 -59.959527 
L 322.960955 -59.772913 
L 323.610264 -59.589768 
L 324.259573 -59.422433 
L 324.908882 -59.305933 
L 325.558191 -59.057251 
L 326.2075 -58.884764 
L 326.856809 -58.776404 
L 327.506118 -58.643681 
L 328.155427 -58.546907 
L 328.804736 -58.39232 
L 329.454045 -58.170107 
L 330.103355 -57.947997 
L 330.752664 -57.767219 
L 331.401973 -57.616931 
L 332.051282 -57.471948 
L 332.700591 -57.29148 
L 333.3499 -57.185994 
L 333.999209 -57.045587 
L 334.648518 -56.911607 
L 335.297827 -56.750781 
L 335.947136 -56.62409 
L 336.596445 -56.508715 
L 337.245755 -56.385115 
L 337.895064 -56.16818 
L 338.544373 -56.088792 
L 339.193682 -55.876728 
L 339.842991 -55.619712 
L 340.4923 -55.383144 
L 341.141609 -55.268288 
L 341.790918 -55.152376 
L 342.440227 -54.963456 
L 343.089536 -54.752196 
L 343.738845 -54.547102 
L 344.388155 -54.391805 
L 345.037464 -54.299289 
L 345.686773 -54.196304 
L 346.336082 -54.061562 
L 346.985391 -53.885704 
L 347.6347 -53.726052 
L 348.284009 -53.479423 
L 348.933318 -53.353515 
L 349.582627 -53.229992 
L 350.231936 -53.093049 
L 350.881245 -52.934514 
L 351.530555 -52.767459 
L 352.179864 -52.552086 
L 352.829173 -52.402 
L 353.478482 -52.272462 
L 354.127791 -52.09018 
L 354.7771 -51.988059 
L 355.426409 -51.872143 
L 356.075718 -51.760146 
L 356.725027 -51.643662 
L 357.374336 -51.490991 
L 358.023645 -51.40416 
L 358.672955 -51.255932 
L 359.322264 -51.144195 
L 359.971573 -51.037474 
L 360.620882 -50.887127 
L 361.270191 -50.77683 
L 361.9195 -50.714551 
L 362.568809 -50.581232 
L 363.218118 -50.490295 
L 363.867427 -50.396747 
L 364.516736 -50.26588 
L 365.166045 -50.183608 
L 365.815355 -50.105682 
L 366.464664 -50.030354 
L 367.113973 -49.957045 
L 367.763282 -49.885531 
L 368.412591 -49.819333 
L 369.0619 -49.758149 
L 369.711209 -49.696852 
L 370.360518 -49.635304 
L 371.009827 -49.567207 
L 371.659136 -49.485162 
L 372.308445 -49.425144 
L 372.957755 -49.3652 
L 373.607064 -49.297633 
L 374.256373 -49.223702 
L 374.905682 -49.153955 
L 375.554991 -49.087035 
L 376.2043 -49.019232 
L 376.853609 -48.937823 
L 377.502918 -48.864469 
L 378.152227 -48.792868 
L 378.801536 -48.720839 
L 379.450845 -48.643499 
L 380.100155 -48.565029 
L 380.749464 -48.495307 
L 381.398773 -48.423375 
L 381.398773 -48.423375 
L 381.398773 -48.423375 
L 380.749464 -49.707592 
L 380.100155 -50.999506 
L 379.450845 -52.298721 
L 378.801536 -53.604823 
L 378.152227 -54.917377 
L 377.502918 -56.235932 
L 376.853609 -57.56088 
L 376.2043 -58.895565 
L 375.554991 -60.236346 
L 374.905682 -61.582772 
L 374.256373 -62.934378 
L 373.607064 -64.290686 
L 372.957755 -65.651205 
L 372.308445 -67.015435 
L 371.659136 -68.382863 
L 371.009827 -69.752969 
L 370.360518 -71.137671 
L 369.711209 -72.525587 
L 369.0619 -73.894762 
L 368.412591 -75.263714 
L 367.763282 -76.631911 
L 367.113973 -78.005116 
L 366.464664 -79.380453 
L 365.815355 -80.75427 
L 365.166045 -82.126026 
L 364.516736 -83.49518 
L 363.867427 -84.860026 
L 363.218118 -86.220323 
L 362.568809 -87.603768 
L 361.9195 -88.988272 
L 361.270191 -90.370266 
L 360.620882 -91.749313 
L 359.971573 -93.124983 
L 359.322264 -94.496857 
L 358.672955 -95.864527 
L 358.023645 -97.227595 
L 357.374336 -98.52087 
L 356.725027 -99.790969 
L 356.075718 -101.049808 
L 355.426409 -102.296986 
L 354.7771 -103.529223 
L 354.127791 -104.748577 
L 353.478482 -105.95499 
L 352.829173 -107.148138 
L 352.179864 -108.327716 
L 351.530555 -109.660702 
L 350.881245 -110.815284 
L 350.231936 -111.92121 
L 349.582627 -113.073849 
L 348.933318 -114.235963 
L 348.284009 -115.37763 
L 347.6347 -116.526597 
L 346.985391 -117.654131 
L 346.336082 -118.768569 
L 345.686773 -119.869754 
L 345.037464 -120.962348 
L 344.388155 -122.058445 
L 343.738845 -123.14243 
L 343.089536 -124.214246 
L 342.440227 -125.273846 
L 341.790918 -126.321193 
L 341.141609 -127.356262 
L 340.4923 -128.440774 
L 339.842991 -129.520981 
L 339.193682 -130.591578 
L 338.544373 -131.652568 
L 337.895064 -132.687395 
L 337.245755 -133.646683 
L 336.596445 -134.265569 
L 335.947136 -135.194227 
L 335.297827 -136.118856 
L 334.648518 -137.03133 
L 333.999209 -137.927485 
L 333.3499 -138.81111 
L 332.700591 -139.6826 
L 332.051282 -140.394038 
L 331.401973 -141.081154 
L 330.752664 -141.858974 
L 330.103355 -142.80316 
L 329.454045 -143.7369 
L 328.804736 -144.69031 
L 328.155427 -145.569691 
L 327.506118 -146.264429 
L 326.856809 -147.375097 
L 326.2075 -148.261783 
L 325.558191 -149.091012 
L 324.908882 -149.618008 
L 324.259573 -150.130742 
L 323.610264 -150.713647 
L 322.960955 -151.412974 
L 322.311645 -152.101028 
L 321.662336 -152.777856 
L 321.013027 -153.580539 
L 320.363718 -154.28069 
L 319.714409 -154.931889 
L 319.0651 -156.277769 
L 318.415791 -157.475188 
L 317.766482 -158.099395 
L 317.117173 -158.754524 
L 316.467864 -159.399809 
L 315.818555 -160.035288 
L 315.169245 -160.661 
L 314.519936 -161.905823 
L 313.870627 -162.996277 
L 313.221318 -164.524445 
L 312.572009 -166.04796 
L 311.9227 -167.207858 
L 311.273391 -168.29653 
L 310.624082 -169.542928 
L 309.974773 -170.679404 
L 309.325464 -171.875784 
L 308.676155 -172.715161 
L 308.026845 -173.230702 
L 307.377536 -174.401681 
L 306.728227 -174.86235 
L 306.078918 -175.312527 
L 305.429609 -175.752316 
L 304.7803 -176.168552 
L 304.130991 -176.566998 
L 303.481682 -176.955762 
L 302.832373 -177.335003 
L 302.183064 -177.467858 
L 301.533755 -177.472753 
L 300.884445 -177.766007 
L 300.235136 -178.084543 
L 299.585827 -178.387737 
L 298.936518 -178.834258 
L 298.287209 -179.323052 
L 297.6379 -180.055056 
L 296.988591 -180.431212 
L 296.339282 -180.742913 
L 295.689973 -181.140306 
L 295.040664 -181.709519 
L 294.391355 -182.274255 
L 293.742045 -182.825671 
L 293.092736 -183.363811 
L 292.443427 -183.888737 
L 291.794118 -184.400533 
L 291.144809 -184.899304 
L 290.4955 -185.385175 
L 289.846191 -185.851455 
L 289.196882 -186.298645 
L 288.547573 -186.733673 
L 287.898264 -187.156748 
L 287.248955 -187.568096 
L 286.599645 -187.604714 
L 285.950336 -187.971512 
L 285.301027 -188.56578 
L 284.651718 -189.140465 
L 284.002409 -189.512224 
L 283.3531 -189.873975 
L 282.703791 -190.226044 
L 282.054482 -190.568766 
L 281.405173 -190.902484 
L 280.755864 -191.227553 
L 280.106555 -191.544333 
L 279.457245 -191.853191 
L 278.807936 -192.154498 
L 278.158627 -192.448628 
L 277.509318 -193.357525 
L 276.860009 -194.410972 
L 276.2107 -195.447244 
L 275.561391 -196.463158 
L 274.912082 -197.458362 
L 274.262773 -198.051049 
L 273.613464 -198.383225 
L 272.964155 -198.705881 
L 272.314845 -198.772293 
L 271.665536 -198.809288 
L 271.016227 -198.851448 
L 270.366918 -198.899139 
L 269.717609 -198.952693 
L 269.0683 -199.012417 
L 268.418991 -199.266117 
L 267.769682 -200.289849 
L 267.120373 -201.380335 
L 266.471064 -201.65536 
L 265.821755 -201.703601 
L 265.172445 -202.575194 
L 264.523136 -202.908393 
L 263.873827 -203.340323 
L 263.224518 -203.570149 
L 262.575209 -203.898436 
L 261.9259 -204.233482 
L 261.276591 -204.599257 
L 260.627282 -205.464534 
L 259.977973 -206.306937 
L 259.328664 -207.031872 
L 258.679355 -207.659622 
L 258.030045 -208.27749 
L 257.380736 -208.891946 
L 256.731427 -209.521205 
L 256.082118 -210.136645 
L 255.432809 -210.746415 
L 254.7835 -211.352414 
L 254.134191 -211.954622 
L 253.484882 -212.546698 
L 252.835573 -213.134597 
L 252.186264 -213.719361 
L 251.536955 -214.300958 
L 250.887645 -214.618585 
L 250.238336 -215.14977 
L 249.589027 -215.527495 
L 248.939718 -215.919858 
L 248.290409 -216.286363 
L 247.6411 -216.719703 
L 246.991791 -217.136931 
L 246.342482 -217.558989 
L 245.693173 -217.97909 
L 245.043864 -218.40354 
L 244.394555 -218.829656 
L 243.745245 -219.258067 
L 243.095936 -219.690181 
L 242.446627 -220.125772 
L 241.797318 -220.564621 
L 241.148009 -221.006508 
L 240.4987 -221.672038 
L 239.849391 -222.473018 
L 239.200082 -222.837848 
L 238.550773 -223.091758 
L 237.901464 -223.333417 
L 237.252155 -223.7621 
L 236.602845 -224.233089 
L 235.953536 -224.698059 
L 235.304227 -225.161927 
L 234.654918 -225.621332 
L 234.005609 -226.082002 
L 233.3563 -226.543763 
L 232.706991 -227.006445 
L 232.057682 -227.469883 
L 231.408373 -227.796076 
L 230.759064 -227.932051 
L 230.109755 -228.072223 
L 229.460445 -228.216575 
L 228.811136 -228.365082 
L 228.161827 -228.601827 
L 227.512518 -229.46066 
L 226.863209 -230.309733 
L 226.2139 -231.105915 
L 225.564591 -231.313024 
L 224.915282 -231.502555 
L 224.265973 -231.682725 
L 223.616664 -231.853773 
L 222.967355 -232.177078 
L 222.318045 -232.509157 
L 221.668736 -232.774488 
L 221.019427 -233.335967 
L 220.370118 -233.663657 
L 219.720809 -233.885004 
L 219.0715 -234.398537 
L 218.422191 -234.512117 
L 217.772882 -234.97767 
L 217.123573 -235.610641 
L 216.474264 -236.223712 
L 215.824955 -236.827587 
L 215.175645 -237.028974 
L 214.526336 -237.219145 
L 213.877027 -237.462281 
L 213.227718 -237.85612 
L 212.578409 -238.245548 
L 211.9291 -238.607863 
L 211.279791 -238.700523 
L 210.630482 -238.791379 
L 209.981173 -238.895209 
L 209.331864 -239.827182 
L 208.682555 -240.53823 
L 208.033245 -240.906698 
L 207.383936 -241.268295 
L 206.734627 -241.579265 
L 206.085318 -242.263711 
L 205.436009 -242.911367 
L 204.7867 -243.817015 
L 204.137391 -243.962806 
L 203.488082 -244.079752 
L 202.838773 -244.200362 
L 202.189464 -244.292706 
L 201.540155 -244.402012 
L 200.890845 -244.720889 
L 200.241536 -245.066254 
L 199.592227 -245.199022 
L 198.942918 -245.197399 
L 198.293609 -245.191572 
L 197.6443 -245.50617 
L 196.994991 -245.862405 
L 196.345682 -246.21281 
L 195.696373 -246.557498 
L 195.047064 -247.025943 
L 194.397755 -247.84273 
L 193.748445 -248.246925 
L 193.099136 -248.499154 
L 192.449827 -248.625947 
L 191.800518 -249.01672 
L 191.151209 -249.464759 
L 190.5019 -249.768337 
L 189.852591 -250.056281 
L 189.203282 -250.076389 
L 188.553973 -250.100113 
L 187.904664 -250.29086 
L 187.255355 -250.862957 
L 186.606045 -251.345558 
L 185.956736 -251.44686 
L 185.307427 -251.635118 
L 184.658118 -251.995242 
L 184.008809 -252.34886 
L 183.3595 -252.4806 
L 182.710191 -252.900014 
L 182.060882 -253.397324 
L 181.411573 -253.73604 
L 180.762264 -254.084589 
L 180.112955 -254.3973 
L 179.463645 -254.72221 
L 178.814336 -255.034654 
L 178.165027 -255.344722 
L 177.515718 -255.648099 
L 176.866409 -255.877798 
L 176.2171 -256.103466 
L 175.567791 -256.530729 
L 174.918482 -256.817549 
L 174.269173 -257.079839 
L 173.619864 -257.218947 
L 172.970555 -257.429018 
L 172.321245 -257.716189 
L 171.671936 -257.992682 
L 171.022627 -258.258705 
L 170.373318 -258.654375 
L 169.724009 -258.871595 
L 169.0747 -259.062887 
L 168.425391 -259.253144 
L 167.776082 -259.476541 
L 167.126773 -259.729392 
L 166.477464 -259.980496 
L 165.828155 -260.25252 
L 165.178845 -260.495646 
L 164.529536 -260.733329 
L 163.880227 -260.980034 
L 163.230918 -261.225557 
L 162.581609 -261.460258 
L 161.9323 -261.693029 
L 161.282991 -261.717372 
L 160.633682 -261.837558 
L 159.984373 -262.402243 
L 159.335064 -262.793186 
L 158.685755 -263.425506 
L 158.036445 -264.022412 
L 157.387136 -264.133878 
L 156.737827 -264.562453 
L 156.088518 -264.977401 
L 155.439209 -265.380095 
L 154.7899 -265.771299 
L 154.140591 -266.095214 
L 153.491282 -266.223309 
L 152.841973 -266.345583 
L 152.192664 -266.458478 
L 151.543355 -266.564696 
L 150.894045 -266.666141 
L 150.244736 -266.976237 
L 149.595427 -267.534129 
L 148.946118 -267.827449 
L 148.296809 -267.978153 
L 147.6475 -268.129017 
L 146.998191 -268.273702 
L 146.348882 -268.415373 
L 145.699573 -268.877763 
L 145.050264 -269.505543 
L 144.400955 -269.744799 
L 143.751645 -269.9783 
L 143.102336 -270.08923 
L 142.453027 -270.204357 
L 141.803718 -270.318133 
L 141.154409 -270.433418 
L 140.5051 -270.550308 
L 139.855791 -270.668892 
L 139.206482 -270.960168 
L 138.557173 -271.26261 
L 137.907864 -271.405448 
L 137.258555 -271.598675 
L 136.609245 -271.697456 
L 135.959936 -271.983625 
L 135.310627 -272.287959 
L 134.661318 -272.532206 
L 134.012009 -272.770321 
L 133.3627 -273.008454 
L 132.713391 -273.215959 
L 132.064082 -273.58528 
L 131.414773 -273.932688 
L 130.765464 -274.170133 
L 130.116155 -274.409461 
L 129.466845 -274.664891 
L 128.817536 -274.914007 
L 128.168227 -275.136473 
L 127.518918 -275.294666 
L 126.869609 -275.416717 
L 126.2203 -275.562881 
L 125.570991 -275.729962 
L 124.921682 -275.963006 
L 124.272373 -276.126093 
L 123.623064 -276.372949 
L 122.973755 -276.662373 
L 122.324445 -276.878042 
L 121.675136 -277.107838 
L 121.025827 -277.37268 
L 120.376518 -277.640405 
L 119.727209 -277.844677 
L 119.0779 -278.016173 
L 118.428591 -278.182641 
L 117.779282 -278.344134 
L 117.129973 -278.500032 
L 116.480664 -278.649093 
L 115.831355 -278.822479 
L 115.182045 -279.04358 
L 114.532736 -279.310062 
L 113.883427 -279.577316 
L 113.234118 -279.740056 
L 112.584809 -279.857787 
L 111.9355 -279.989212 
L 111.286191 -280.222019 
L 110.636882 -280.31129 
L 109.987573 -280.394536 
L 109.338264 -280.471837 
L 108.688955 -280.545268 
L 108.039645 -280.710991 
L 107.390336 -280.901257 
L 106.741027 -281.09007 
L 106.091718 -281.277244 
L 105.442409 -281.391806 
L 104.7931 -281.463107 
L 104.143791 -281.532857 
L 103.494482 -281.59834 
L 102.845173 -281.662512 
L 102.195864 -281.780055 
L 101.546555 -282.044484 
L 100.897245 -282.060565 
L 100.247936 -282.223106 
L 99.598627 -282.324027 
L 98.949318 -282.385642 
L 98.300009 -282.651168 
L 97.6507 -282.819556 
L 97.001391 -282.978352 
L 96.352082 -283.171523 
L 95.702773 -283.299471 
L 95.053464 -283.400935 
L 94.404155 -283.499074 
L 93.754845 -283.604148 
L 93.105536 -283.695818 
L 92.456227 -283.800381 
L 91.806918 -284.029986 
L 91.157609 -284.132224 
L 90.5083 -284.364435 
L 89.858991 -284.512141 
L 89.209682 -284.633886 
L 88.560373 -284.828015 
L 87.911064 -285.008165 
L 87.261755 -285.123251 
L 86.612445 -285.316417 
L 85.963136 -285.488821 
L 85.313827 -285.497913 
L 84.664518 -285.719883 
L 84.015209 -285.976769 
L 83.3659 -286.061471 
L 82.716591 -286.179535 
L 82.067282 -286.225545 
L 81.417973 -286.355757 
L 80.768664 -286.395925 
L 80.119355 -286.464632 
L 79.470045 -286.541609 
L 78.820736 -286.663208 
L 78.171427 -286.846193 
L 77.522118 -287.007595 
L 76.872809 -287.083272 
L 76.2235 -287.286493 
L 75.574191 -287.379561 
L 74.924882 -287.501693 
L 74.275573 -287.580585 
L 73.626264 -287.660053 
L 72.976955 -287.759384 
L 72.327645 -287.875518 
L 71.678336 -287.988318 
L 71.029027 -288.09862 
L 70.379718 -288.239523 
L 69.730409 -288.387662 
L 69.0811 -288.528119 
L 68.431791 -288.661981 
L 67.782482 -288.789611 
L 67.133173 -288.869973 
L 66.483864 -288.986781 
L 65.834555 -289.098856 
L 65.185245 -289.206515 
L 64.535936 -289.310074 
L 63.886627 -289.409847 
L 63.237318 -289.505778 
L 62.588009 -289.59861 
L 61.9387 -289.687597 
L 61.289391 -289.760397 
L 60.640082 -289.831824 
L 59.990773 -289.918871 
L 59.341464 -290.004891 
L 58.692155 -290.090121 
L 58.042845 -290.174416 
L 57.393536 -290.259173 
L 56.744227 -290.343375 
z
" style="stroke: #ffffff; stroke-opacity: 0.3; stroke-width: 0.8"/>
    </defs>
    <g clip-path="url(#p570747f542)">
     <use xlink:href="#mc55294f96e" x="0" y="309.639375" style="fill: #1f77b4; fill-opacity: 0.3; stroke: #ffffff; stroke-opacity: 0.3; stroke-width: 0.8"/>
    </g>
   </g>
   <g id="matplotlib.axis_1">
    <g id="xtick_1">
     <g id="line2d_1">
      <defs>
       <path id="m248fbb373f" d="M 0 0 
L 0 4.8 
" style="stroke: #262626"/>
      </defs>
      <g>
       <use xlink:href="#m248fbb373f" x="56.744227" y="273.312" style="fill: #262626; stroke: #262626"/>
      </g>
     </g>
     <g id="text_1">
      <!-- 0.0 -->
      <g style="fill: #262626" transform="translate(50.628227 287.910875) scale(0.088 -0.088)">
       <defs>
        <path id="ArialMT-30" d="M 266 2259 
Q 266 3072 433 3567 
Q 600 4063 929 4331 
Q 1259 4600 1759 4600 
Q 2128 4600 2406 4451 
Q 2684 4303 2865 4023 
Q 3047 3744 3150 3342 
Q 3253 2941 3253 2259 
Q 3253 1453 3087 958 
Q 2922 463 2592 192 
Q 2263 -78 1759 -78 
Q 1097 -78 719 397 
Q 266 969 266 2259 
z
M 844 2259 
Q 844 1131 1108 757 
Q 1372 384 1759 384 
Q 2147 384 2411 759 
Q 2675 1134 2675 2259 
Q 2675 3391 2411 3762 
Q 2147 4134 1753 4134 
Q 1366 4134 1134 3806 
Q 844 3388 844 2259 
z
" transform="scale(0.015625)"/>
        <path id="ArialMT-2e" d="M 581 0 
L 581 641 
L 1222 641 
L 1222 0 
L 581 0 
z
" transform="scale(0.015625)"/>
       </defs>
       <use xlink:href="#ArialMT-30"/>
       <use xlink:href="#ArialMT-2e" x="55.615234"/>
       <use xlink:href="#ArialMT-30" x="83.398438"/>
      </g>
     </g>
    </g>
    <g id="xtick_2">
     <g id="line2d_2">
      <g>
       <use xlink:href="#m248fbb373f" x="121.675136" y="273.312" style="fill: #262626; stroke: #262626"/>
      </g>
     </g>
     <g id="text_2">
      <!-- 0.2 -->
      <g style="fill: #262626" transform="translate(115.559136 287.910875) scale(0.088 -0.088)">
       <defs>
        <path id="ArialMT-32" d="M 3222 541 
L 3222 0 
L 194 0 
Q 188 203 259 391 
Q 375 700 629 1000 
Q 884 1300 1366 1694 
Q 2113 2306 2375 2664 
Q 2638 3022 2638 3341 
Q 2638 3675 2398 3904 
Q 2159 4134 1775 4134 
Q 1369 4134 1125 3890 
Q 881 3647 878 3216 
L 300 3275 
Q 359 3922 746 4261 
Q 1134 4600 1788 4600 
Q 2447 4600 2831 4234 
Q 3216 3869 3216 3328 
Q 3216 3053 3103 2787 
Q 2991 2522 2730 2228 
Q 2469 1934 1863 1422 
Q 1356 997 1212 845 
Q 1069 694 975 541 
L 3222 541 
z
" transform="scale(0.015625)"/>
       </defs>
       <use xlink:href="#ArialMT-30"/>
       <use xlink:href="#ArialMT-2e" x="55.615234"/>
       <use xlink:href="#ArialMT-32" x="83.398438"/>
      </g>
     </g>
    </g>
    <g id="xtick_3">
     <g id="line2d_3">
      <g>
       <use xlink:href="#m248fbb373f" x="186.606045" y="273.312" style="fill: #262626; stroke: #262626"/>
      </g>
     </g>
     <g id="text_3">
      <!-- 0.4 -->
      <g style="fill: #262626" transform="translate(180.490045 287.910875) scale(0.088 -0.088)">
       <defs>
        <path id="ArialMT-34" d="M 2069 0 
L 2069 1097 
L 81 1097 
L 81 1613 
L 2172 4581 
L 2631 4581 
L 2631 1613 
L 3250 1613 
L 3250 1097 
L 2631 1097 
L 2631 0 
L 2069 0 
z
M 2069 1613 
L 2069 3678 
L 634 1613 
L 2069 1613 
z
" transform="scale(0.015625)"/>
       </defs>
       <use xlink:href="#ArialMT-30"/>
       <use xlink:href="#ArialMT-2e" x="55.615234"/>
       <use xlink:href="#ArialMT-34" x="83.398438"/>
      </g>
     </g>
    </g>
    <g id="xtick_4">
     <g id="line2d_4">
      <g>
       <use xlink:href="#m248fbb373f" x="251.536955" y="273.312" style="fill: #262626; stroke: #262626"/>
      </g>
     </g>
     <g id="text_4">
      <!-- 0.6 -->
      <g style="fill: #262626" transform="translate(245.420955 287.910875) scale(0.088 -0.088)">
       <defs>
        <path id="ArialMT-36" d="M 3184 3459 
L 2625 3416 
Q 2550 3747 2413 3897 
Q 2184 4138 1850 4138 
Q 1581 4138 1378 3988 
Q 1113 3794 959 3422 
Q 806 3050 800 2363 
Q 1003 2672 1297 2822 
Q 1591 2972 1913 2972 
Q 2475 2972 2870 2558 
Q 3266 2144 3266 1488 
Q 3266 1056 3080 686 
Q 2894 316 2569 119 
Q 2244 -78 1831 -78 
Q 1128 -78 684 439 
Q 241 956 241 2144 
Q 241 3472 731 4075 
Q 1159 4600 1884 4600 
Q 2425 4600 2770 4297 
Q 3116 3994 3184 3459 
z
M 888 1484 
Q 888 1194 1011 928 
Q 1134 663 1356 523 
Q 1578 384 1822 384 
Q 2178 384 2434 671 
Q 2691 959 2691 1453 
Q 2691 1928 2437 2201 
Q 2184 2475 1800 2475 
Q 1419 2475 1153 2201 
Q 888 1928 888 1484 
z
" transform="scale(0.015625)"/>
       </defs>
       <use xlink:href="#ArialMT-30"/>
       <use xlink:href="#ArialMT-2e" x="55.615234"/>
       <use xlink:href="#ArialMT-36" x="83.398438"/>
      </g>
     </g>
    </g>
    <g id="xtick_5">
     <g id="line2d_5">
      <g>
       <use xlink:href="#m248fbb373f" x="316.467864" y="273.312" style="fill: #262626; stroke: #262626"/>
      </g>
     </g>
     <g id="text_5">
      <!-- 0.8 -->
      <g style="fill: #262626" transform="translate(310.351864 287.910875) scale(0.088 -0.088)">
       <defs>
        <path id="ArialMT-38" d="M 1131 2484 
Q 781 2613 612 2850 
Q 444 3088 444 3419 
Q 444 3919 803 4259 
Q 1163 4600 1759 4600 
Q 2359 4600 2725 4251 
Q 3091 3903 3091 3403 
Q 3091 3084 2923 2848 
Q 2756 2613 2416 2484 
Q 2838 2347 3058 2040 
Q 3278 1734 3278 1309 
Q 3278 722 2862 322 
Q 2447 -78 1769 -78 
Q 1091 -78 675 323 
Q 259 725 259 1325 
Q 259 1772 486 2073 
Q 713 2375 1131 2484 
z
M 1019 3438 
Q 1019 3113 1228 2906 
Q 1438 2700 1772 2700 
Q 2097 2700 2305 2904 
Q 2513 3109 2513 3406 
Q 2513 3716 2298 3927 
Q 2084 4138 1766 4138 
Q 1444 4138 1231 3931 
Q 1019 3725 1019 3438 
z
M 838 1322 
Q 838 1081 952 856 
Q 1066 631 1291 507 
Q 1516 384 1775 384 
Q 2178 384 2440 643 
Q 2703 903 2703 1303 
Q 2703 1709 2433 1975 
Q 2163 2241 1756 2241 
Q 1359 2241 1098 1978 
Q 838 1716 838 1322 
z
" transform="scale(0.015625)"/>
       </defs>
       <use xlink:href="#ArialMT-30"/>
       <use xlink:href="#ArialMT-2e" x="55.615234"/>
       <use xlink:href="#ArialMT-38" x="83.398438"/>
      </g>
     </g>
    </g>
    <g id="xtick_6">
     <g id="line2d_6">
      <g>
       <use xlink:href="#m248fbb373f" x="381.398773" y="273.312" style="fill: #262626; stroke: #262626"/>
      </g>
     </g>
     <g id="text_6">
      <!-- 1.0 -->
      <g style="fill: #262626" transform="translate(375.282773 287.910875) scale(0.088 -0.088)">
       <defs>
        <path id="ArialMT-31" d="M 2384 0 
L 1822 0 
L 1822 3584 
Q 1619 3391 1289 3197 
Q 959 3003 697 2906 
L 697 3450 
Q 1169 3672 1522 3987 
Q 1875 4303 2022 4600 
L 2384 4600 
L 2384 0 
z
" transform="scale(0.015625)"/>
       </defs>
       <use xlink:href="#ArialMT-31"/>
       <use xlink:href="#ArialMT-2e" x="55.615234"/>
       <use xlink:href="#ArialMT-30" x="83.398438"/>
      </g>
     </g>
    </g>
    <g id="text_7">
     <!-- $x$ -->
     <g style="fill: #262626" transform="translate(216.1915 300.531375) scale(0.096 -0.096)">
      <defs>
       <path id="DejaVuSans-Oblique-78" d="M 3841 3500 
L 2234 1784 
L 3219 0 
L 2559 0 
L 1819 1388 
L 531 0 
L -166 0 
L 1556 1844 
L 641 3500 
L 1300 3500 
L 1972 2234 
L 3144 3500 
L 3841 3500 
z
" transform="scale(0.015625)"/>
      </defs>
      <use xlink:href="#DejaVuSans-Oblique-78" transform="translate(0 0.3125)"/>
     </g>
    </g>
   </g>
   <g id="matplotlib.axis_2">
    <g id="ytick_1">
     <g id="line2d_7">
      <defs>
       <path id="mf77c5c1c41" d="M 0 0 
L -4.8 0 
" style="stroke: #262626"/>
      </defs>
      <g>
       <use xlink:href="#mf77c5c1c41" x="40.5115" y="261.216" style="fill: #262626; stroke: #262626"/>
      </g>
     </g>
     <g id="text_8">
      <!-- 0.0 -->
      <g style="fill: #262626" transform="translate(19.9795 264.365437) scale(0.088 -0.088)">
       <use xlink:href="#ArialMT-30"/>
       <use xlink:href="#ArialMT-2e" x="55.615234"/>
       <use xlink:href="#ArialMT-30" x="83.398438"/>
      </g>
     </g>
    </g>
    <g id="ytick_2">
     <g id="line2d_8">
      <g>
       <use xlink:href="#mf77c5c1c41" x="40.5115" y="212.832" style="fill: #262626; stroke: #262626"/>
      </g>
     </g>
     <g id="text_9">
      <!-- 0.2 -->
      <g style="fill: #262626" transform="translate(19.9795 215.981438) scale(0.088 -0.088)">
       <use xlink:href="#ArialMT-30"/>
       <use xlink:href="#ArialMT-2e" x="55.615234"/>
       <use xlink:href="#ArialMT-32" x="83.398438"/>
      </g>
     </g>
    </g>
    <g id="ytick_3">
     <g id="line2d_9">
      <g>
       <use xlink:href="#mf77c5c1c41" x="40.5115" y="164.448" style="fill: #262626; stroke: #262626"/>
      </g>
     </g>
     <g id="text_10">
      <!-- 0.4 -->
      <g style="fill: #262626" transform="translate(19.9795 167.597438) scale(0.088 -0.088)">
       <use xlink:href="#ArialMT-30"/>
       <use xlink:href="#ArialMT-2e" x="55.615234"/>
       <use xlink:href="#ArialMT-34" x="83.398438"/>
      </g>
     </g>
    </g>
    <g id="ytick_4">
     <g id="line2d_10">
      <g>
       <use xlink:href="#mf77c5c1c41" x="40.5115" y="116.064" style="fill: #262626; stroke: #262626"/>
      </g>
     </g>
     <g id="text_11">
      <!-- 0.6 -->
      <g style="fill: #262626" transform="translate(19.9795 119.213438) scale(0.088 -0.088)">
       <use xlink:href="#ArialMT-30"/>
       <use xlink:href="#ArialMT-2e" x="55.615234"/>
       <use xlink:href="#ArialMT-36" x="83.398438"/>
      </g>
     </g>
    </g>
    <g id="ytick_5">
     <g id="line2d_11">
      <g>
       <use xlink:href="#mf77c5c1c41" x="40.5115" y="67.68" style="fill: #262626; stroke: #262626"/>
      </g>
     </g>
     <g id="text_12">
      <!-- 0.8 -->
      <g style="fill: #262626" transform="translate(19.9795 70.829438) scale(0.088 -0.088)">
       <use xlink:href="#ArialMT-30"/>
       <use xlink:href="#ArialMT-2e" x="55.615234"/>
       <use xlink:href="#ArialMT-38" x="83.398438"/>
      </g>
     </g>
    </g>
    <g id="ytick_6">
     <g id="line2d_12">
      <g>
       <use xlink:href="#mf77c5c1c41" x="40.5115" y="19.296" style="fill: #262626; stroke: #262626"/>
      </g>
     </g>
     <g id="text_13">
      <!-- 1.0 -->
      <g style="fill: #262626" transform="translate(19.9795 22.445438) scale(0.088 -0.088)">
       <use xlink:href="#ArialMT-31"/>
       <use xlink:href="#ArialMT-2e" x="55.615234"/>
       <use xlink:href="#ArialMT-30" x="83.398438"/>
      </g>
     </g>
    </g>
    <g id="text_14">
     <!-- $u$ -->
     <g style="fill: #262626" transform="translate(14.0715 143.328) rotate(-90) scale(0.096 -0.096)">
      <defs>
       <path id="DejaVuSans-Oblique-75" d="M 428 1388 
L 838 3500 
L 1416 3500 
L 1006 1409 
Q 975 1256 961 1147 
Q 947 1038 947 966 
Q 947 700 1109 554 
Q 1272 409 1569 409 
Q 2031 409 2368 721 
Q 2706 1034 2809 1563 
L 3194 3500 
L 3769 3500 
L 3091 0 
L 2516 0 
L 2631 550 
Q 2388 244 2052 76 
Q 1716 -91 1338 -91 
Q 878 -91 622 161 
Q 366 413 366 863 
Q 366 956 381 1097 
Q 397 1238 428 1388 
z
" transform="scale(0.015625)"/>
      </defs>
      <use xlink:href="#DejaVuSans-Oblique-75" transform="translate(0 0.3125)"/>
     </g>
    </g>
   </g>
   <g id="line2d_13">
    <path d="M 56.744227 19.296 
L 63.237318 24.331981 
L 68.431791 28.097801 
L 72.976955 31.127547 
L 76.872809 33.487226 
L 80.768664 35.602582 
L 84.664518 37.459496 
L 88.560373 39.055065 
L 92.456227 40.398437 
L 96.352082 41.510693 
L 100.897245 42.559394 
L 106.091718 43.511758 
L 115.831355 44.992219 
L 122.324445 46.09828 
L 126.869609 47.079179 
L 130.765464 48.116377 
L 134.661318 49.372129 
L 138.557173 50.871961 
L 142.453027 52.630647 
L 146.348882 54.651588 
L 150.244736 56.927002 
L 154.140591 59.438885 
L 158.685755 62.632219 
L 163.880227 66.56108 
L 171.022627 72.280132 
L 185.956736 84.331938 
L 191.800518 88.707503 
L 196.994991 92.310014 
L 201.540155 95.203502 
L 206.085318 97.835985 
L 210.630482 100.199976 
L 215.175645 102.299885 
L 219.720809 104.15408 
L 224.915282 106.01751 
L 231.408373 108.083754 
L 243.095936 111.736136 
L 248.290409 113.635648 
L 252.835573 115.56302 
L 256.731427 117.456177 
L 260.627282 119.597058 
L 264.523136 121.998945 
L 268.418991 124.665543 
L 272.314845 127.592123 
L 276.860009 131.319175 
L 281.405173 135.356502 
L 286.599645 140.306477 
L 291.794118 145.559984 
L 298.287209 152.464809 
L 306.078918 161.110466 
L 315.169245 171.535173 
L 324.908882 183.041098 
L 332.700591 192.564121 
L 339.842991 201.653285 
L 346.336082 210.302745 
L 352.829173 219.362123 
L 359.971573 229.753995 
L 380.100155 259.403388 
L 381.398773 261.216 
L 381.398773 261.216 
" clip-path="url(#p570747f542)" style="fill: none; stroke: #1f77b4; stroke-opacity: 0.3; stroke-linecap: round"/>
   </g>
   <g id="line2d_14">
    <path d="M 56.744227 19.296 
L 63.886627 22.644208 
L 71.678336 26.034031 
L 84.015209 31.100661 
L 97.001391 36.504743 
L 124.272373 48.054784 
L 132.064082 50.958837 
L 141.154409 54.079566 
L 152.841973 58.091137 
L 158.685755 60.347541 
L 163.230918 62.315884 
L 167.776082 64.514493 
L 172.321245 66.967 
L 176.866409 69.680642 
L 181.411573 72.647613 
L 186.606045 76.32251 
L 192.449827 80.764902 
L 199.592227 86.521414 
L 220.370118 103.53593 
L 225.564591 107.388207 
L 230.109755 110.49728 
L 234.654918 113.325262 
L 238.550773 115.512098 
L 243.095936 117.789009 
L 247.6411 119.794257 
L 252.835573 121.81658 
L 261.276591 124.785596 
L 267.120373 126.930237 
L 271.016227 128.569809 
L 274.262773 130.148358 
L 277.509318 131.982726 
L 280.106555 133.672514 
L 282.703791 135.588389 
L 285.301027 137.7525 
L 287.898264 140.181763 
L 290.4955 142.886809 
L 293.092736 145.871271 
L 296.339282 149.988474 
L 299.585827 154.513049 
L 302.832373 159.406153 
L 306.728227 165.690404 
L 311.273391 173.453366 
L 318.415791 186.154935 
L 326.856809 201.102352 
L 332.051282 209.865668 
L 336.596445 217.098863 
L 340.4923 222.913637 
L 344.388155 228.338297 
L 348.284009 233.353679 
L 352.179864 237.952623 
L 355.426409 241.469664 
L 358.672955 244.708499 
L 361.9195 247.682482 
L 365.815355 250.927447 
L 369.711209 253.856345 
L 373.607064 256.514604 
L 378.152227 259.339344 
L 381.398773 261.216 
L 381.398773 261.216 
" clip-path="url(#p570747f542)" style="fill: none; stroke: #1f77b4; stroke-opacity: 0.3; stroke-linecap: round"/>
   </g>
   <g id="line2d_15">
    <path d="M 56.744227 19.296 
L 65.834555 24.842704 
L 74.275573 29.736354 
L 84.015209 35.106671 
L 95.053464 40.932193 
L 104.7931 45.838986 
L 111.9355 49.206641 
L 117.779282 51.742688 
L 123.623064 54.032128 
L 128.817536 55.841946 
L 134.661318 57.635657 
L 141.154409 59.390329 
L 160.633682 64.478111 
L 166.477464 66.346779 
L 171.671936 68.226597 
L 177.515718 70.591766 
L 183.3595 73.205207 
L 189.852591 76.367516 
L 196.994991 80.116359 
L 204.7867 84.47274 
L 213.877027 89.816803 
L 226.2139 97.341515 
L 236.602845 103.90203 
L 243.095936 108.240498 
L 248.290409 111.973631 
L 252.835573 115.531608 
L 256.731427 118.869807 
L 260.627282 122.536118 
L 263.873827 125.881719 
L 267.120373 129.52042 
L 270.366918 133.472941 
L 273.613464 137.751875 
L 276.860009 142.36041 
L 280.755864 148.315309 
L 284.651718 154.703359 
L 289.196882 162.635341 
L 294.391355 172.197489 
L 302.183064 187.105899 
L 311.273391 204.43161 
L 316.467864 213.847047 
L 321.013027 221.587176 
L 324.908882 227.757926 
L 328.155427 232.527783 
L 331.401973 236.930693 
L 334.648518 240.947269 
L 337.895064 244.564794 
L 340.4923 247.167074 
L 343.089536 249.509539 
L 345.686773 251.594489 
L 348.284009 253.426876 
L 350.881245 255.014386 
L 353.478482 256.367536 
L 356.075718 257.499732 
L 358.672955 258.427245 
L 361.9195 259.327984 
L 365.166045 259.981123 
L 369.0619 260.504238 
L 373.607064 260.863382 
L 381.398773 261.216 
L 381.398773 261.216 
" clip-path="url(#p570747f542)" style="fill: none; stroke: #1f77b4; stroke-opacity: 0.3; stroke-linecap: round"/>
   </g>
   <g id="line2d_16">
    <path d="M 56.744227 19.296 
L 82.067282 35.950761 
L 94.404155 43.691281 
L 108.039645 52.275861 
L 114.532736 56.615919 
L 120.376518 60.777598 
L 125.570991 64.728799 
L 130.765464 68.943413 
L 135.959936 73.429551 
L 141.803718 78.787849 
L 148.296809 85.075328 
L 156.737827 93.601322 
L 170.373318 107.416097 
L 176.866409 113.643797 
L 182.060882 118.337033 
L 187.255355 122.727058 
L 192.449827 126.7951 
L 197.6443 130.545967 
L 202.838773 134.006985 
L 208.682555 137.613857 
L 215.824955 141.743218 
L 230.109755 149.921502 
L 235.304227 153.171611 
L 239.849391 156.255285 
L 244.394555 159.620954 
L 248.290409 162.765172 
L 252.186264 166.171438 
L 256.082118 169.851747 
L 259.977973 173.80651 
L 264.523136 178.747697 
L 269.717609 184.759917 
L 277.509318 194.211114 
L 285.301027 203.597742 
L 289.846191 208.766243 
L 293.742045 212.908875 
L 297.6379 216.738121 
L 301.533755 220.232435 
L 305.429609 223.391309 
L 309.325464 226.231119 
L 313.221318 228.780176 
L 317.117173 231.074142 
L 321.662336 233.480614 
L 326.856809 235.95356 
L 333.3499 238.764275 
L 358.023645 249.110838 
L 364.516736 252.201003 
L 371.659136 255.858127 
L 379.450845 260.116401 
L 381.398773 261.216 
L 381.398773 261.216 
" clip-path="url(#p570747f542)" style="fill: none; stroke: #1f77b4; stroke-opacity: 0.3; stroke-linecap: round"/>
   </g>
   <g id="line2d_17">
    <path d="M 56.744227 19.296 
L 80.768664 38.526007 
L 87.261755 43.301174 
L 93.105536 47.317891 
L 98.949318 51.056852 
L 104.7931 54.540812 
L 111.9355 58.530789 
L 135.310627 71.337397 
L 141.154409 74.945884 
L 146.348882 78.420402 
L 151.543355 82.187388 
L 156.088518 85.743717 
L 161.282991 90.113066 
L 166.477464 94.795937 
L 172.321245 100.395731 
L 178.814336 106.936692 
L 189.203282 117.776647 
L 202.838773 131.962996 
L 211.279791 140.411859 
L 218.422191 147.267761 
L 225.564591 153.828207 
L 233.3563 160.661823 
L 242.446627 168.304531 
L 262.575209 185.082941 
L 271.016227 192.508528 
L 293.742045 212.792689 
L 299.585827 217.55654 
L 304.7803 221.518557 
L 309.974773 225.21597 
L 315.169245 228.658349 
L 321.013027 232.250421 
L 326.856809 235.579029 
L 333.3499 239.015562 
L 340.4923 242.542431 
L 349.582627 246.76662 
L 381.398773 261.216 
L 381.398773 261.216 
" clip-path="url(#p570747f542)" style="fill: none; stroke: #1f77b4; stroke-opacity: 0.3; stroke-linecap: round"/>
   </g>
   <g id="line2d_18">
    <path d="M 56.744227 19.296 
L 61.9387 28.033349 
L 69.730409 41.648225 
L 78.820736 57.448226 
L 83.3659 64.927177 
L 87.261755 70.95037 
L 90.5083 75.630851 
L 93.754845 79.960599 
L 97.001391 83.910056 
L 100.247936 87.460286 
L 102.845173 90.007142 
L 105.442409 92.293626 
L 108.039645 94.32442 
L 110.636882 96.108062 
L 113.234118 97.656669 
L 115.831355 98.985647 
L 119.0779 100.366243 
L 122.324445 101.474024 
L 125.570991 102.355653 
L 129.466845 103.186683 
L 135.310627 104.164348 
L 143.102336 105.479432 
L 146.998191 106.364437 
L 150.244736 107.311965 
L 153.491282 108.505994 
L 156.088518 109.670429 
L 158.685755 111.043616 
L 161.282991 112.642842 
L 163.880227 114.481253 
L 166.477464 116.567431 
L 169.0747 118.905159 
L 171.671936 121.493419 
L 174.918482 125.072139 
L 178.165027 129.013421 
L 181.411573 133.289127 
L 185.307427 138.812698 
L 189.852591 145.712729 
L 195.047064 154.058301 
L 202.189464 166.017351 
L 213.877027 185.633035 
L 219.0715 193.901868 
L 223.616664 200.710284 
L 227.512518 206.147266 
L 231.408373 211.160295 
L 234.654918 214.985349 
L 237.901464 218.474051 
L 241.148009 221.619661 
L 244.394555 224.423314 
L 247.6411 226.893669 
L 250.887645 229.046181 
L 254.134191 230.902065 
L 257.380736 232.48705 
L 260.627282 233.830059 
L 264.523136 235.165671 
L 268.418991 236.251417 
L 272.964155 237.272617 
L 278.158627 238.209978 
L 285.950336 239.358641 
L 305.429609 242.124415 
L 313.870627 243.597524 
L 322.311645 245.310843 
L 331.401973 247.390548 
L 344.388155 250.612472 
L 359.322264 254.52728 
L 369.0619 257.289656 
L 377.502918 259.913965 
L 381.398773 261.216 
L 381.398773 261.216 
" clip-path="url(#p570747f542)" style="fill: none; stroke: #1f77b4; stroke-opacity: 0.3; stroke-linecap: round"/>
   </g>
   <g id="patch_3">
    <path d="M 40.5115 261.216 
L 40.5115 19.296 
" style="fill: none; stroke: #262626; stroke-linejoin: miter; stroke-linecap: square"/>
   </g>
   <g id="patch_4">
    <path d="M 56.744227 273.312 
L 381.398773 273.312 
" style="fill: none; stroke: #262626; stroke-linejoin: miter; stroke-linecap: square"/>
   </g>
   <g id="legend_1">
    <g id="patch_5">
     <path d="M 329.075375 51.690875 
L 391.4715 51.690875 
Q 393.2315 51.690875 393.2315 49.930875 
L 393.2315 13.36 
Q 393.2315 11.6 391.4715 11.6 
L 329.075375 11.6 
Q 327.315375 11.6 327.315375 13.36 
L 327.315375 49.930875 
Q 327.315375 51.690875 329.075375 51.690875 
z
" style="fill: #ffffff; opacity: 0.8; stroke: #cccccc; stroke-width: 0.8; stroke-linejoin: miter"/>
    </g>
    <g id="line2d_19">
     <path d="M 330.835375 18.338875 
L 339.635375 18.338875 
L 348.435375 18.338875 
" style="fill: none; stroke: #1f77b4; stroke-width: 2; stroke-linecap: round"/>
    </g>
    <g id="text_15">
     <!-- Mean -->
     <g style="fill: #262626" transform="translate(355.475375 21.418875) scale(0.088 -0.088)">
      <defs>
       <path id="ArialMT-4d" d="M 475 0 
L 475 4581 
L 1388 4581 
L 2472 1338 
Q 2622 884 2691 659 
Q 2769 909 2934 1394 
L 4031 4581 
L 4847 4581 
L 4847 0 
L 4263 0 
L 4263 3834 
L 2931 0 
L 2384 0 
L 1059 3900 
L 1059 0 
L 475 0 
z
" transform="scale(0.015625)"/>
       <path id="ArialMT-65" d="M 2694 1069 
L 3275 997 
Q 3138 488 2766 206 
Q 2394 -75 1816 -75 
Q 1088 -75 661 373 
Q 234 822 234 1631 
Q 234 2469 665 2931 
Q 1097 3394 1784 3394 
Q 2450 3394 2872 2941 
Q 3294 2488 3294 1666 
Q 3294 1616 3291 1516 
L 816 1516 
Q 847 969 1125 678 
Q 1403 388 1819 388 
Q 2128 388 2347 550 
Q 2566 713 2694 1069 
z
M 847 1978 
L 2700 1978 
Q 2663 2397 2488 2606 
Q 2219 2931 1791 2931 
Q 1403 2931 1139 2672 
Q 875 2413 847 1978 
z
" transform="scale(0.015625)"/>
       <path id="ArialMT-61" d="M 2588 409 
Q 2275 144 1986 34 
Q 1697 -75 1366 -75 
Q 819 -75 525 192 
Q 231 459 231 875 
Q 231 1119 342 1320 
Q 453 1522 633 1644 
Q 813 1766 1038 1828 
Q 1203 1872 1538 1913 
Q 2219 1994 2541 2106 
Q 2544 2222 2544 2253 
Q 2544 2597 2384 2738 
Q 2169 2928 1744 2928 
Q 1347 2928 1158 2789 
Q 969 2650 878 2297 
L 328 2372 
Q 403 2725 575 2942 
Q 747 3159 1072 3276 
Q 1397 3394 1825 3394 
Q 2250 3394 2515 3294 
Q 2781 3194 2906 3042 
Q 3031 2891 3081 2659 
Q 3109 2516 3109 2141 
L 3109 1391 
Q 3109 606 3145 398 
Q 3181 191 3288 0 
L 2700 0 
Q 2613 175 2588 409 
z
M 2541 1666 
Q 2234 1541 1622 1453 
Q 1275 1403 1131 1340 
Q 988 1278 909 1158 
Q 831 1038 831 891 
Q 831 666 1001 516 
Q 1172 366 1500 366 
Q 1825 366 2078 508 
Q 2331 650 2450 897 
Q 2541 1088 2541 1459 
L 2541 1666 
z
" transform="scale(0.015625)"/>
       <path id="ArialMT-6e" d="M 422 0 
L 422 3319 
L 928 3319 
L 928 2847 
Q 1294 3394 1984 3394 
Q 2284 3394 2536 3286 
Q 2788 3178 2913 3003 
Q 3038 2828 3088 2588 
Q 3119 2431 3119 2041 
L 3119 0 
L 2556 0 
L 2556 2019 
Q 2556 2363 2490 2533 
Q 2425 2703 2258 2804 
Q 2091 2906 1866 2906 
Q 1506 2906 1245 2678 
Q 984 2450 984 1813 
L 984 0 
L 422 0 
z
" transform="scale(0.015625)"/>
      </defs>
      <use xlink:href="#ArialMT-4d"/>
      <use xlink:href="#ArialMT-65" x="83.300781"/>
      <use xlink:href="#ArialMT-61" x="138.916016"/>
      <use xlink:href="#ArialMT-6e" x="194.53125"/>
     </g>
    </g>
    <g id="patch_6">
     <path d="M 330.835375 33.86675 
L 348.435375 33.86675 
L 348.435375 27.70675 
L 330.835375 27.70675 
z
" style="fill: #1f77b4; fill-opacity: 0.3; stroke: #ffffff; stroke-opacity: 0.3; stroke-width: 0.8; stroke-linejoin: miter"/>
    </g>
    <g id="text_16">
     <!-- 95% CI -->
     <g style="fill: #262626" transform="translate(355.475375 33.86675) scale(0.088 -0.088)">
      <defs>
       <path id="ArialMT-39" d="M 350 1059 
L 891 1109 
Q 959 728 1153 556 
Q 1347 384 1650 384 
Q 1909 384 2104 503 
Q 2300 622 2425 820 
Q 2550 1019 2634 1356 
Q 2719 1694 2719 2044 
Q 2719 2081 2716 2156 
Q 2547 1888 2255 1720 
Q 1963 1553 1622 1553 
Q 1053 1553 659 1965 
Q 266 2378 266 3053 
Q 266 3750 677 4175 
Q 1088 4600 1706 4600 
Q 2153 4600 2523 4359 
Q 2894 4119 3086 3673 
Q 3278 3228 3278 2384 
Q 3278 1506 3087 986 
Q 2897 466 2520 194 
Q 2144 -78 1638 -78 
Q 1100 -78 759 220 
Q 419 519 350 1059 
z
M 2653 3081 
Q 2653 3566 2395 3850 
Q 2138 4134 1775 4134 
Q 1400 4134 1122 3828 
Q 844 3522 844 3034 
Q 844 2597 1108 2323 
Q 1372 2050 1759 2050 
Q 2150 2050 2401 2323 
Q 2653 2597 2653 3081 
z
" transform="scale(0.015625)"/>
       <path id="ArialMT-35" d="M 266 1200 
L 856 1250 
Q 922 819 1161 601 
Q 1400 384 1738 384 
Q 2144 384 2425 690 
Q 2706 997 2706 1503 
Q 2706 1984 2436 2262 
Q 2166 2541 1728 2541 
Q 1456 2541 1237 2417 
Q 1019 2294 894 2097 
L 366 2166 
L 809 4519 
L 3088 4519 
L 3088 3981 
L 1259 3981 
L 1013 2750 
Q 1425 3038 1878 3038 
Q 2478 3038 2890 2622 
Q 3303 2206 3303 1553 
Q 3303 931 2941 478 
Q 2500 -78 1738 -78 
Q 1113 -78 717 272 
Q 322 622 266 1200 
z
" transform="scale(0.015625)"/>
       <path id="ArialMT-25" d="M 372 3481 
Q 372 3972 619 4315 
Q 866 4659 1334 4659 
Q 1766 4659 2048 4351 
Q 2331 4044 2331 3447 
Q 2331 2866 2045 2552 
Q 1759 2238 1341 2238 
Q 925 2238 648 2547 
Q 372 2856 372 3481 
z
M 1350 4272 
Q 1141 4272 1002 4090 
Q 863 3909 863 3425 
Q 863 2984 1003 2804 
Q 1144 2625 1350 2625 
Q 1563 2625 1702 2806 
Q 1841 2988 1841 3469 
Q 1841 3913 1700 4092 
Q 1559 4272 1350 4272 
z
M 1353 -169 
L 3859 4659 
L 4316 4659 
L 1819 -169 
L 1353 -169 
z
M 3334 1075 
Q 3334 1569 3581 1911 
Q 3828 2253 4300 2253 
Q 4731 2253 5014 1945 
Q 5297 1638 5297 1041 
Q 5297 459 5011 145 
Q 4725 -169 4303 -169 
Q 3888 -169 3611 142 
Q 3334 453 3334 1075 
z
M 4316 1866 
Q 4103 1866 3964 1684 
Q 3825 1503 3825 1019 
Q 3825 581 3965 400 
Q 4106 219 4313 219 
Q 4528 219 4667 400 
Q 4806 581 4806 1063 
Q 4806 1506 4665 1686 
Q 4525 1866 4316 1866 
z
" transform="scale(0.015625)"/>
       <path id="ArialMT-20" transform="scale(0.015625)"/>
       <path id="ArialMT-43" d="M 3763 1606 
L 4369 1453 
Q 4178 706 3683 314 
Q 3188 -78 2472 -78 
Q 1731 -78 1267 223 
Q 803 525 561 1097 
Q 319 1669 319 2325 
Q 319 3041 592 3573 
Q 866 4106 1370 4382 
Q 1875 4659 2481 4659 
Q 3169 4659 3637 4309 
Q 4106 3959 4291 3325 
L 3694 3184 
Q 3534 3684 3231 3912 
Q 2928 4141 2469 4141 
Q 1941 4141 1586 3887 
Q 1231 3634 1087 3207 
Q 944 2781 944 2328 
Q 944 1744 1114 1308 
Q 1284 872 1643 656 
Q 2003 441 2422 441 
Q 2931 441 3284 734 
Q 3638 1028 3763 1606 
z
" transform="scale(0.015625)"/>
       <path id="ArialMT-49" d="M 597 0 
L 597 4581 
L 1203 4581 
L 1203 0 
L 597 0 
z
" transform="scale(0.015625)"/>
      </defs>
      <use xlink:href="#ArialMT-39"/>
      <use xlink:href="#ArialMT-35" x="55.615234"/>
      <use xlink:href="#ArialMT-25" x="111.230469"/>
      <use xlink:href="#ArialMT-20" x="200.146484"/>
      <use xlink:href="#ArialMT-43" x="227.929688"/>
      <use xlink:href="#ArialMT-49" x="300.146484"/>
     </g>
    </g>
    <g id="line2d_20">
     <path d="M 330.835375 43.341875 
L 339.635375 43.341875 
L 348.435375 43.341875 
" style="fill: none; stroke: #1f77b4; stroke-opacity: 0.3; stroke-linecap: round"/>
    </g>
    <g id="text_17">
     <!-- Samples -->
     <g style="fill: #262626" transform="translate(355.475375 46.421875) scale(0.088 -0.088)">
      <defs>
       <path id="ArialMT-53" d="M 288 1472 
L 859 1522 
Q 900 1178 1048 958 
Q 1197 738 1509 602 
Q 1822 466 2213 466 
Q 2559 466 2825 569 
Q 3091 672 3220 851 
Q 3350 1031 3350 1244 
Q 3350 1459 3225 1620 
Q 3100 1781 2813 1891 
Q 2628 1963 1997 2114 
Q 1366 2266 1113 2400 
Q 784 2572 623 2826 
Q 463 3081 463 3397 
Q 463 3744 659 4045 
Q 856 4347 1234 4503 
Q 1613 4659 2075 4659 
Q 2584 4659 2973 4495 
Q 3363 4331 3572 4012 
Q 3781 3694 3797 3291 
L 3216 3247 
Q 3169 3681 2898 3903 
Q 2628 4125 2100 4125 
Q 1550 4125 1298 3923 
Q 1047 3722 1047 3438 
Q 1047 3191 1225 3031 
Q 1400 2872 2139 2705 
Q 2878 2538 3153 2413 
Q 3553 2228 3743 1945 
Q 3934 1663 3934 1294 
Q 3934 928 3725 604 
Q 3516 281 3123 101 
Q 2731 -78 2241 -78 
Q 1619 -78 1198 103 
Q 778 284 539 648 
Q 300 1013 288 1472 
z
" transform="scale(0.015625)"/>
       <path id="ArialMT-6d" d="M 422 0 
L 422 3319 
L 925 3319 
L 925 2853 
Q 1081 3097 1340 3245 
Q 1600 3394 1931 3394 
Q 2300 3394 2536 3241 
Q 2772 3088 2869 2813 
Q 3263 3394 3894 3394 
Q 4388 3394 4653 3120 
Q 4919 2847 4919 2278 
L 4919 0 
L 4359 0 
L 4359 2091 
Q 4359 2428 4304 2576 
Q 4250 2725 4106 2815 
Q 3963 2906 3769 2906 
Q 3419 2906 3187 2673 
Q 2956 2441 2956 1928 
L 2956 0 
L 2394 0 
L 2394 2156 
Q 2394 2531 2256 2718 
Q 2119 2906 1806 2906 
Q 1569 2906 1367 2781 
Q 1166 2656 1075 2415 
Q 984 2175 984 1722 
L 984 0 
L 422 0 
z
" transform="scale(0.015625)"/>
       <path id="ArialMT-70" d="M 422 -1272 
L 422 3319 
L 934 3319 
L 934 2888 
Q 1116 3141 1344 3267 
Q 1572 3394 1897 3394 
Q 2322 3394 2647 3175 
Q 2972 2956 3137 2557 
Q 3303 2159 3303 1684 
Q 3303 1175 3120 767 
Q 2938 359 2589 142 
Q 2241 -75 1856 -75 
Q 1575 -75 1351 44 
Q 1128 163 984 344 
L 984 -1272 
L 422 -1272 
z
M 931 1641 
Q 931 1000 1190 694 
Q 1450 388 1819 388 
Q 2194 388 2461 705 
Q 2728 1022 2728 1688 
Q 2728 2322 2467 2637 
Q 2206 2953 1844 2953 
Q 1484 2953 1207 2617 
Q 931 2281 931 1641 
z
" transform="scale(0.015625)"/>
       <path id="ArialMT-6c" d="M 409 0 
L 409 4581 
L 972 4581 
L 972 0 
L 409 0 
z
" transform="scale(0.015625)"/>
       <path id="ArialMT-73" d="M 197 991 
L 753 1078 
Q 800 744 1014 566 
Q 1228 388 1613 388 
Q 2000 388 2187 545 
Q 2375 703 2375 916 
Q 2375 1106 2209 1216 
Q 2094 1291 1634 1406 
Q 1016 1563 777 1677 
Q 538 1791 414 1992 
Q 291 2194 291 2438 
Q 291 2659 392 2848 
Q 494 3038 669 3163 
Q 800 3259 1026 3326 
Q 1253 3394 1513 3394 
Q 1903 3394 2198 3281 
Q 2494 3169 2634 2976 
Q 2775 2784 2828 2463 
L 2278 2388 
Q 2241 2644 2061 2787 
Q 1881 2931 1553 2931 
Q 1166 2931 1000 2803 
Q 834 2675 834 2503 
Q 834 2394 903 2306 
Q 972 2216 1119 2156 
Q 1203 2125 1616 2013 
Q 2213 1853 2448 1751 
Q 2684 1650 2818 1456 
Q 2953 1263 2953 975 
Q 2953 694 2789 445 
Q 2625 197 2315 61 
Q 2006 -75 1616 -75 
Q 969 -75 630 194 
Q 291 463 197 991 
z
" transform="scale(0.015625)"/>
      </defs>
      <use xlink:href="#ArialMT-53"/>
      <use xlink:href="#ArialMT-61" x="66.699219"/>
      <use xlink:href="#ArialMT-6d" x="122.314453"/>
      <use xlink:href="#ArialMT-70" x="205.615234"/>
      <use xlink:href="#ArialMT-6c" x="261.230469"/>
      <use xlink:href="#ArialMT-65" x="283.447266"/>
      <use xlink:href="#ArialMT-73" x="339.0625"/>
     </g>
    </g>
   </g>
   <g id="line2d_21">
    <path d="M 56.744227 19.296 
L 67.782482 27.507568 
L 85.963136 41.380028 
L 106.091718 56.631135 
L 126.2203 71.576007 
L 156.737827 94.212521 
L 213.877027 137.076918 
L 245.693173 160.427168 
L 269.717609 177.661352 
L 289.196882 191.775332 
L 307.377536 205.234588 
L 351.530555 238.336863 
L 370.360518 252.819485 
L 381.398773 261.216 
L 381.398773 261.216 
" clip-path="url(#p570747f542)" style="fill: none; stroke: #1f77b4; stroke-width: 2; stroke-linecap: round"/>
   </g>
  </g>
 </g>
 <defs>
  <clipPath id="p570747f542">
   <rect x="40.5115" y="7.2" width="357.12" height="266.112"/>
  </clipPath>
 </defs>
</svg>