<?xml version="1.0" encoding="utf-8" standalone="no"?>
<!DOCTYPE svg PUBLIC "-//W3C//DTD SVG 1.1//EN"
  "http://www.w3.org/Graphics/SVG/1.1/DTD/svg11.dtd">
<svg xmlns:xlink="http://www.w3.org/1999/xlink" width="409.97125pt" height="327.286875pt" viewBox="0 0 409.97125 327.286875" xmlns="http://www.w3.org/2000/svg" version="1.1">
 <metadata>
  <rdf:RDF xmlns:dc="http://purl.org/dc/elements/1.1/" xmlns:cc="http://creativecommons.org/ns#" xmlns:rdf="http://www.w3.org/1999/02/22-rdf-syntax-ns#">
   <cc:Work>
    <dc:type rdf:resource="http://purl.org/dc/dcmitype/StillImage"/>
    <dc:date>2025-03-14T03:23:38.876571</dc:date>
    <dc:format>image/svg+xml</dc:format>
    <dc:creator>
     <cc:Agent>
      <dc:title>Matplotlib v3.9.2, https://matplotlib.org/</dc:title>
     </cc:Agent>
    </dc:creator>
   </cc:Work>
  </rdf:RDF>
 </metadata>
 <defs>
  <style type="text/css">*{stroke-linejoin: round; stroke-linecap: butt}</style>
 </defs>
 <g id="figure_1">
  <g id="patch_1">
   <path d="M 0 327.286875 
L 409.97125 327.286875 
L 409.97125 0 
L 0 0 
z
" style="fill: #ffffff"/>
  </g>
  <g id="axes_1">
   <g id="patch_2">
    <path d="M 45.65125 290.9595 
L 402.77125 290.9595 
L 402.77125 24.8475 
L 45.65125 24.8475 
z
" style="fill: #ffffff"/>
   </g>
   <g id="matplotlib.axis_1">
    <g id="xtick_1">
     <g id="line2d_1">
      <defs>
       <path id="m0fda3659fd" d="M 0 0 
L 0 4.8 
" style="stroke: #262626"/>
      </defs>
      <g>
       <use xlink:href="#m0fda3659fd" x="61.883977" y="290.9595" style="fill: #262626; stroke: #262626"/>
      </g>
     </g>
     <g id="text_1">
      <!-- 0.0 -->
      <g style="fill: #262626" transform="translate(55.767977 305.558375) scale(0.088 -0.088)">
       <defs>
        <path id="ArialMT-30" d="M 266 2259 
Q 266 3072 433 3567 
Q 600 4063 929 4331 
Q 1259 4600 1759 4600 
Q 2128 4600 2406 4451 
Q 2684 4303 2865 4023 
Q 3047 3744 3150 3342 
Q 3253 2941 3253 2259 
Q 3253 1453 3087 958 
Q 2922 463 2592 192 
Q 2263 -78 1759 -78 
Q 1097 -78 719 397 
Q 266 969 266 2259 
z
M 844 2259 
Q 844 1131 1108 757 
Q 1372 384 1759 384 
Q 2147 384 2411 759 
Q 2675 1134 2675 2259 
Q 2675 3391 2411 3762 
Q 2147 4134 1753 4134 
Q 1366 4134 1134 3806 
Q 844 3388 844 2259 
z
" transform="scale(0.015625)"/>
        <path id="ArialMT-2e" d="M 581 0 
L 581 641 
L 1222 641 
L 1222 0 
L 581 0 
z
" transform="scale(0.015625)"/>
       </defs>
       <use xlink:href="#ArialMT-30"/>
       <use xlink:href="#ArialMT-2e" x="55.615234"/>
       <use xlink:href="#ArialMT-30" x="83.398438"/>
      </g>
     </g>
    </g>
    <g id="xtick_2">
     <g id="line2d_2">
      <g>
       <use xlink:href="#m0fda3659fd" x="126.814886" y="290.9595" style="fill: #262626; stroke: #262626"/>
      </g>
     </g>
     <g id="text_2">
      <!-- 0.2 -->
      <g style="fill: #262626" transform="translate(120.698886 305.558375) scale(0.088 -0.088)">
       <defs>
        <path id="ArialMT-32" d="M 3222 541 
L 3222 0 
L 194 0 
Q 188 203 259 391 
Q 375 700 629 1000 
Q 884 1300 1366 1694 
Q 2113 2306 2375 2664 
Q 2638 3022 2638 3341 
Q 2638 3675 2398 3904 
Q 2159 4134 1775 4134 
Q 1369 4134 1125 3890 
Q 881 3647 878 3216 
L 300 3275 
Q 359 3922 746 4261 
Q 1134 4600 1788 4600 
Q 2447 4600 2831 4234 
Q 3216 3869 3216 3328 
Q 3216 3053 3103 2787 
Q 2991 2522 2730 2228 
Q 2469 1934 1863 1422 
Q 1356 997 1212 845 
Q 1069 694 975 541 
L 3222 541 
z
" transform="scale(0.015625)"/>
       </defs>
       <use xlink:href="#ArialMT-30"/>
       <use xlink:href="#ArialMT-2e" x="55.615234"/>
       <use xlink:href="#ArialMT-32" x="83.398438"/>
      </g>
     </g>
    </g>
    <g id="xtick_3">
     <g id="line2d_3">
      <g>
       <use xlink:href="#m0fda3659fd" x="191.745795" y="290.9595" style="fill: #262626; stroke: #262626"/>
      </g>
     </g>
     <g id="text_3">
      <!-- 0.4 -->
      <g style="fill: #262626" transform="translate(185.629795 305.558375) scale(0.088 -0.088)">
       <defs>
        <path id="ArialMT-34" d="M 2069 0 
L 2069 1097 
L 81 1097 
L 81 1613 
L 2172 4581 
L 2631 4581 
L 2631 1613 
L 3250 1613 
L 3250 1097 
L 2631 1097 
L 2631 0 
L 2069 0 
z
M 2069 1613 
L 2069 3678 
L 634 1613 
L 2069 1613 
z
" transform="scale(0.015625)"/>
       </defs>
       <use xlink:href="#ArialMT-30"/>
       <use xlink:href="#ArialMT-2e" x="55.615234"/>
       <use xlink:href="#ArialMT-34" x="83.398438"/>
      </g>
     </g>
    </g>
    <g id="xtick_4">
     <g id="line2d_4">
      <g>
       <use xlink:href="#m0fda3659fd" x="256.676705" y="290.9595" style="fill: #262626; stroke: #262626"/>
      </g>
     </g>
     <g id="text_4">
      <!-- 0.6 -->
      <g style="fill: #262626" transform="translate(250.560705 305.558375) scale(0.088 -0.088)">
       <defs>
        <path id="ArialMT-36" d="M 3184 3459 
L 2625 3416 
Q 2550 3747 2413 3897 
Q 2184 4138 1850 4138 
Q 1581 4138 1378 3988 
Q 1113 3794 959 3422 
Q 806 3050 800 2363 
Q 1003 2672 1297 2822 
Q 1591 2972 1913 2972 
Q 2475 2972 2870 2558 
Q 3266 2144 3266 1488 
Q 3266 1056 3080 686 
Q 2894 316 2569 119 
Q 2244 -78 1831 -78 
Q 1128 -78 684 439 
Q 241 956 241 2144 
Q 241 3472 731 4075 
Q 1159 4600 1884 4600 
Q 2425 4600 2770 4297 
Q 3116 3994 3184 3459 
z
M 888 1484 
Q 888 1194 1011 928 
Q 1134 663 1356 523 
Q 1578 384 1822 384 
Q 2178 384 2434 671 
Q 2691 959 2691 1453 
Q 2691 1928 2437 2201 
Q 2184 2475 1800 2475 
Q 1419 2475 1153 2201 
Q 888 1928 888 1484 
z
" transform="scale(0.015625)"/>
       </defs>
       <use xlink:href="#ArialMT-30"/>
       <use xlink:href="#ArialMT-2e" x="55.615234"/>
       <use xlink:href="#ArialMT-36" x="83.398438"/>
      </g>
     </g>
    </g>
    <g id="xtick_5">
     <g id="line2d_5">
      <g>
       <use xlink:href="#m0fda3659fd" x="321.607614" y="290.9595" style="fill: #262626; stroke: #262626"/>
      </g>
     </g>
     <g id="text_5">
      <!-- 0.8 -->
      <g style="fill: #262626" transform="translate(315.491614 305.558375) scale(0.088 -0.088)">
       <defs>
        <path id="ArialMT-38" d="M 1131 2484 
Q 781 2613 612 2850 
Q 444 3088 444 3419 
Q 444 3919 803 4259 
Q 1163 4600 1759 4600 
Q 2359 4600 2725 4251 
Q 3091 3903 3091 3403 
Q 3091 3084 2923 2848 
Q 2756 2613 2416 2484 
Q 2838 2347 3058 2040 
Q 3278 1734 3278 1309 
Q 3278 722 2862 322 
Q 2447 -78 1769 -78 
Q 1091 -78 675 323 
Q 259 725 259 1325 
Q 259 1772 486 2073 
Q 713 2375 1131 2484 
z
M 1019 3438 
Q 1019 3113 1228 2906 
Q 1438 2700 1772 2700 
Q 2097 2700 2305 2904 
Q 2513 3109 2513 3406 
Q 2513 3716 2298 3927 
Q 2084 4138 1766 4138 
Q 1444 4138 1231 3931 
Q 1019 3725 1019 3438 
z
M 838 1322 
Q 838 1081 952 856 
Q 1066 631 1291 507 
Q 1516 384 1775 384 
Q 2178 384 2440 643 
Q 2703 903 2703 1303 
Q 2703 1709 2433 1975 
Q 2163 2241 1756 2241 
Q 1359 2241 1098 1978 
Q 838 1716 838 1322 
z
" transform="scale(0.015625)"/>
       </defs>
       <use xlink:href="#ArialMT-30"/>
       <use xlink:href="#ArialMT-2e" x="55.615234"/>
       <use xlink:href="#ArialMT-38" x="83.398438"/>
      </g>
     </g>
    </g>
    <g id="xtick_6">
     <g id="line2d_6">
      <g>
       <use xlink:href="#m0fda3659fd" x="386.538523" y="290.9595" style="fill: #262626; stroke: #262626"/>
      </g>
     </g>
     <g id="text_6">
      <!-- 1.0 -->
      <g style="fill: #262626" transform="translate(380.422523 305.558375) scale(0.088 -0.088)">
       <defs>
        <path id="ArialMT-31" d="M 2384 0 
L 1822 0 
L 1822 3584 
Q 1619 3391 1289 3197 
Q 959 3003 697 2906 
L 697 3450 
Q 1169 3672 1522 3987 
Q 1875 4303 2022 4600 
L 2384 4600 
L 2384 0 
z
" transform="scale(0.015625)"/>
       </defs>
       <use xlink:href="#ArialMT-31"/>
       <use xlink:href="#ArialMT-2e" x="55.615234"/>
       <use xlink:href="#ArialMT-30" x="83.398438"/>
      </g>
     </g>
    </g>
    <g id="text_7">
     <!-- $x$ -->
     <g style="fill: #262626" transform="translate(221.33125 318.178875) scale(0.096 -0.096)">
      <defs>
       <path id="DejaVuSans-Oblique-78" d="M 3841 3500 
L 2234 1784 
L 3219 0 
L 2559 0 
L 1819 1388 
L 531 0 
L -166 0 
L 1556 1844 
L 641 3500 
L 1300 3500 
L 1972 2234 
L 3144 3500 
L 3841 3500 
z
" transform="scale(0.015625)"/>
      </defs>
      <use xlink:href="#DejaVuSans-Oblique-78" transform="translate(0 0.3125)"/>
     </g>
    </g>
   </g>
   <g id="matplotlib.axis_2">
    <g id="ytick_1">
     <g id="line2d_7">
      <defs>
       <path id="mce2f875ed6" d="M 0 0 
L -4.8 0 
" style="stroke: #262626"/>
      </defs>
      <g>
       <use xlink:href="#mce2f875ed6" x="45.65125" y="286.633666" style="fill: #262626; stroke: #262626"/>
      </g>
     </g>
     <g id="text_8">
      <!-- −2.0 -->
      <g style="fill: #262626" transform="translate(19.9795 289.783103) scale(0.088 -0.088)">
       <defs>
        <path id="ArialMT-2212" d="M 3381 1997 
L 356 1997 
L 356 2522 
L 3381 2522 
L 3381 1997 
z
" transform="scale(0.015625)"/>
       </defs>
       <use xlink:href="#ArialMT-2212"/>
       <use xlink:href="#ArialMT-32" x="58.398438"/>
       <use xlink:href="#ArialMT-2e" x="114.013672"/>
       <use xlink:href="#ArialMT-30" x="141.796875"/>
      </g>
     </g>
    </g>
    <g id="ytick_2">
     <g id="line2d_8">
      <g>
       <use xlink:href="#mce2f875ed6" x="45.65125" y="252.831783" style="fill: #262626; stroke: #262626"/>
      </g>
     </g>
     <g id="text_9">
      <!-- −1.5 -->
      <g style="fill: #262626" transform="translate(19.9795 255.981221) scale(0.088 -0.088)">
       <defs>
        <path id="ArialMT-35" d="M 266 1200 
L 856 1250 
Q 922 819 1161 601 
Q 1400 384 1738 384 
Q 2144 384 2425 690 
Q 2706 997 2706 1503 
Q 2706 1984 2436 2262 
Q 2166 2541 1728 2541 
Q 1456 2541 1237 2417 
Q 1019 2294 894 2097 
L 366 2166 
L 809 4519 
L 3088 4519 
L 3088 3981 
L 1259 3981 
L 1013 2750 
Q 1425 3038 1878 3038 
Q 2478 3038 2890 2622 
Q 3303 2206 3303 1553 
Q 3303 931 2941 478 
Q 2500 -78 1738 -78 
Q 1113 -78 717 272 
Q 322 622 266 1200 
z
" transform="scale(0.015625)"/>
       </defs>
       <use xlink:href="#ArialMT-2212"/>
       <use xlink:href="#ArialMT-31" x="58.398438"/>
       <use xlink:href="#ArialMT-2e" x="114.013672"/>
       <use xlink:href="#ArialMT-35" x="141.796875"/>
      </g>
     </g>
    </g>
    <g id="ytick_3">
     <g id="line2d_9">
      <g>
       <use xlink:href="#mce2f875ed6" x="45.65125" y="219.029901" style="fill: #262626; stroke: #262626"/>
      </g>
     </g>
     <g id="text_10">
      <!-- −1.0 -->
      <g style="fill: #262626" transform="translate(19.9795 222.179338) scale(0.088 -0.088)">
       <use xlink:href="#ArialMT-2212"/>
       <use xlink:href="#ArialMT-31" x="58.398438"/>
       <use xlink:href="#ArialMT-2e" x="114.013672"/>
       <use xlink:href="#ArialMT-30" x="141.796875"/>
      </g>
     </g>
    </g>
    <g id="ytick_4">
     <g id="line2d_10">
      <g>
       <use xlink:href="#mce2f875ed6" x="45.65125" y="185.228018" style="fill: #262626; stroke: #262626"/>
      </g>
     </g>
     <g id="text_11">
      <!-- −0.5 -->
      <g style="fill: #262626" transform="translate(19.9795 188.377455) scale(0.088 -0.088)">
       <use xlink:href="#ArialMT-2212"/>
       <use xlink:href="#ArialMT-30" x="58.398438"/>
       <use xlink:href="#ArialMT-2e" x="114.013672"/>
       <use xlink:href="#ArialMT-35" x="141.796875"/>
      </g>
     </g>
    </g>
    <g id="ytick_5">
     <g id="line2d_11">
      <g>
       <use xlink:href="#mce2f875ed6" x="45.65125" y="151.426135" style="fill: #262626; stroke: #262626"/>
      </g>
     </g>
     <g id="text_12">
      <!-- 0.0 -->
      <g style="fill: #262626" transform="translate(25.11925 154.575573) scale(0.088 -0.088)">
       <use xlink:href="#ArialMT-30"/>
       <use xlink:href="#ArialMT-2e" x="55.615234"/>
       <use xlink:href="#ArialMT-30" x="83.398438"/>
      </g>
     </g>
    </g>
    <g id="ytick_6">
     <g id="line2d_12">
      <g>
       <use xlink:href="#mce2f875ed6" x="45.65125" y="117.624253" style="fill: #262626; stroke: #262626"/>
      </g>
     </g>
     <g id="text_13">
      <!-- 0.5 -->
      <g style="fill: #262626" transform="translate(25.11925 120.77369) scale(0.088 -0.088)">
       <use xlink:href="#ArialMT-30"/>
       <use xlink:href="#ArialMT-2e" x="55.615234"/>
       <use xlink:href="#ArialMT-35" x="83.398438"/>
      </g>
     </g>
    </g>
    <g id="ytick_7">
     <g id="line2d_13">
      <g>
       <use xlink:href="#mce2f875ed6" x="45.65125" y="83.82237" style="fill: #262626; stroke: #262626"/>
      </g>
     </g>
     <g id="text_14">
      <!-- 1.0 -->
      <g style="fill: #262626" transform="translate(25.11925 86.971807) scale(0.088 -0.088)">
       <use xlink:href="#ArialMT-31"/>
       <use xlink:href="#ArialMT-2e" x="55.615234"/>
       <use xlink:href="#ArialMT-30" x="83.398438"/>
      </g>
     </g>
    </g>
    <g id="ytick_8">
     <g id="line2d_14">
      <g>
       <use xlink:href="#mce2f875ed6" x="45.65125" y="50.020487" style="fill: #262626; stroke: #262626"/>
      </g>
     </g>
     <g id="text_15">
      <!-- 1.5 -->
      <g style="fill: #262626" transform="translate(25.11925 53.169925) scale(0.088 -0.088)">
       <use xlink:href="#ArialMT-31"/>
       <use xlink:href="#ArialMT-2e" x="55.615234"/>
       <use xlink:href="#ArialMT-35" x="83.398438"/>
      </g>
     </g>
    </g>
    <g id="text_16">
     <!-- $f(x)$ -->
     <g style="fill: #262626" transform="translate(14.0715 166.2075) rotate(-90) scale(0.096 -0.096)">
      <defs>
       <path id="DejaVuSans-Oblique-66" d="M 3059 4863 
L 2969 4384 
L 2419 4384 
Q 2106 4384 1964 4261 
Q 1822 4138 1753 3809 
L 1691 3500 
L 2638 3500 
L 2553 3053 
L 1606 3053 
L 1013 0 
L 434 0 
L 1031 3053 
L 481 3053 
L 563 3500 
L 1113 3500 
L 1159 3744 
Q 1278 4363 1576 4613 
Q 1875 4863 2516 4863 
L 3059 4863 
z
" transform="scale(0.015625)"/>
       <path id="DejaVuSans-28" d="M 1984 4856 
Q 1566 4138 1362 3434 
Q 1159 2731 1159 2009 
Q 1159 1288 1364 580 
Q 1569 -128 1984 -844 
L 1484 -844 
Q 1016 -109 783 600 
Q 550 1309 550 2009 
Q 550 2706 781 3412 
Q 1013 4119 1484 4856 
L 1984 4856 
z
" transform="scale(0.015625)"/>
       <path id="DejaVuSans-29" d="M 513 4856 
L 1013 4856 
Q 1481 4119 1714 3412 
Q 1947 2706 1947 2009 
Q 1947 1309 1714 600 
Q 1481 -109 1013 -844 
L 513 -844 
Q 928 -128 1133 580 
Q 1338 1288 1338 2009 
Q 1338 2731 1133 3434 
Q 928 4138 513 4856 
z
" transform="scale(0.015625)"/>
      </defs>
      <use xlink:href="#DejaVuSans-Oblique-66" transform="translate(0 0.015625)"/>
      <use xlink:href="#DejaVuSans-28" transform="translate(35.205078 0.015625)"/>
      <use xlink:href="#DejaVuSans-Oblique-78" transform="translate(74.21875 0.015625)"/>
      <use xlink:href="#DejaVuSans-29" transform="translate(133.398438 0.015625)"/>
     </g>
    </g>
   </g>
   <g id="line2d_15">
    <path d="M 61.883977 219.45298 
L 63.515407 220.369439 
L 65.146837 221.460029 
L 66.778267 220.108096 
L 68.409697 218.902916 
L 71.672557 212.029943 
L 74.935416 201.406122 
L 78.198276 187.86639 
L 83.092566 164.374904 
L 87.986855 140.628729 
L 91.249715 126.532975 
L 94.512575 114.990744 
L 97.775435 106.751136 
L 101.038294 102.288456 
L 102.669724 101.95728 
L 104.301154 101.772097 
L 105.932584 103.335832 
L 107.564014 105.061346 
L 110.826874 111.724968 
L 114.089733 121.083401 
L 117.352593 132.269539 
L 123.878313 156.169276 
L 127.141172 166.903613 
L 130.404032 175.662054 
L 132.035462 178.846116 
L 133.666892 181.784823 
L 135.298322 183.46333 
L 136.929752 184.84088 
L 138.561181 184.914568 
L 140.192611 184.652804 
L 141.824041 183.148721 
L 143.455471 181.300457 
L 145.086901 178.36462 
L 146.718331 175.103989 
L 149.981191 166.588454 
L 153.24405 156.433747 
L 163.03263 123.970396 
L 166.295489 114.998467 
L 167.926919 111.336971 
L 169.558349 107.964039 
L 171.189779 105.424284 
L 172.821209 103.23975 
L 174.452639 101.927256 
L 176.084069 101.009477 
L 177.715499 100.936094 
L 179.346928 101.26654 
L 180.978358 102.355758 
L 182.609788 103.826957 
L 184.241218 105.925632 
L 185.872648 108.355545 
L 187.504078 111.250632 
L 189.135508 114.40176 
L 192.398367 121.441505 
L 200.555517 139.763772 
L 202.186947 143.080895 
L 203.818377 146.085773 
L 205.449806 148.8536 
L 207.081236 151.230203 
L 208.712666 153.298544 
L 210.344096 154.930697 
L 211.975526 156.204283 
L 213.606956 157.028146 
L 215.238386 157.465371 
L 216.869816 157.465992 
L 218.501245 157.073468 
L 220.132675 156.277936 
L 221.764105 155.101937 
L 223.395535 153.570264 
L 225.026965 151.68635 
L 226.658395 149.501299 
L 228.289825 147.003433 
L 229.921255 144.260479 
L 233.184114 138.049347 
L 236.446974 131.066253 
L 239.709834 123.495902 
L 244.604123 111.393507 
L 260.918422 70.133048 
L 264.181282 62.6994 
L 265.812712 59.161623 
L 269.075572 52.723523 
L 272.338431 47.175796 
L 275.601291 42.689596 
L 278.864151 39.41744 
L 282.127011 37.478386 
L 283.75844 37.152422 
L 285.38987 36.9435 
L 288.65273 37.823384 
L 291.91559 40.0594 
L 295.17845 43.519926 
L 298.441309 48.002467 
L 303.335599 56.134745 
L 308.229889 64.706576 
L 311.492748 70.236993 
L 313.124178 72.812537 
L 314.755608 75.180401 
L 316.387038 77.323746 
L 318.018468 79.240567 
L 319.649898 80.828836 
L 321.281328 82.180932 
L 322.912758 83.129516 
L 324.544187 83.840912 
L 326.175617 84.109155 
L 327.807047 84.146517 
L 329.438477 83.740027 
L 331.069907 83.114414 
L 332.701337 82.083869 
L 334.332767 80.849191 
L 335.964197 79.285804 
L 337.595626 77.534203 
L 340.858486 73.41693 
L 344.121346 68.790296 
L 352.278495 57.229277 
L 353.909925 55.023447 
L 357.172785 51.467096 
L 358.804215 50.23609 
L 360.435645 48.835733 
L 362.067075 48.157447 
L 363.698504 47.298415 
L 365.329934 47.229266 
L 366.961364 46.967506 
L 368.592794 47.536016 
L 370.224224 47.900966 
L 371.855654 49.110981 
L 373.487084 50.108605 
L 375.118514 51.943936 
L 376.749943 53.561108 
L 378.381373 55.990874 
L 380.012803 58.20041 
L 383.275663 63.949981 
L 386.538523 70.72369 
L 386.538523 70.72369 
" clip-path="url(#p3f20c60367)" style="fill: none; stroke: #1f77b4; stroke-width: 1.2; stroke-linecap: round"/>
   </g>
   <g id="line2d_16">
    <path d="M 61.883977 267.170486 
L 63.515407 270.753485 
L 65.146837 274.637871 
L 66.778267 276.40568 
L 68.409697 278.464389 
L 70.041127 278.527307 
L 71.672557 278.8635 
L 73.303986 277.454578 
L 74.935416 276.299401 
L 76.566846 273.750339 
L 78.198276 271.438293 
L 84.723996 258.085495 
L 87.986855 251.280953 
L 89.618285 248.215318 
L 91.249715 245.391458 
L 92.881145 243.051151 
L 94.512575 240.966877 
L 96.144005 239.516036 
L 97.775435 238.333432 
L 99.406864 237.813257 
L 101.038294 237.56662 
L 102.669724 237.894142 
L 104.301154 238.489229 
L 105.932584 239.468261 
L 109.195444 242.037564 
L 110.826874 243.59166 
L 112.458303 244.950969 
L 114.089733 246.470165 
L 117.352593 248.574673 
L 120.615453 249.184914 
L 123.878313 247.691645 
L 127.141172 243.661622 
L 130.404032 236.885227 
L 133.666892 227.402195 
L 136.929752 215.503043 
L 140.192611 201.706173 
L 145.086901 179.033105 
L 149.981191 156.472855 
L 153.24405 142.932569 
L 156.50691 131.456694 
L 158.13834 126.848156 
L 159.76977 122.607088 
L 161.4012 119.455193 
L 163.03263 116.727667 
L 164.66406 115.098179 
L 166.295489 113.917381 
L 167.926919 113.753889 
L 169.558349 114.026293 
L 171.189779 115.157946 
L 172.821209 116.674784 
L 174.452639 118.834359 
L 176.084069 121.293678 
L 179.346928 127.181072 
L 185.872648 139.701017 
L 189.135508 144.890288 
L 190.766938 146.897809 
L 192.398367 148.590597 
L 194.029797 149.707961 
L 195.661227 150.435752 
L 197.292657 150.563541 
L 198.924087 150.26681 
L 200.555517 149.409916 
L 202.186947 148.137362 
L 203.818377 146.399511 
L 205.449806 144.298079 
L 207.081236 141.867087 
L 210.344096 136.288228 
L 216.869816 124.269422 
L 218.501245 121.485714 
L 220.132675 118.976543 
L 221.764105 116.71497 
L 223.395535 114.817386 
L 225.026965 113.269963 
L 226.658395 112.132973 
L 228.289825 111.413889 
L 229.921255 111.107938 
L 231.552684 111.246489 
L 233.184114 111.761201 
L 234.815544 112.704199 
L 236.446974 113.954799 
L 238.078404 115.577868 
L 239.709834 117.4193 
L 242.972694 121.792533 
L 252.761273 136.362972 
L 256.024133 140.578842 
L 259.286992 144.151771 
L 262.549852 147.077942 
L 265.812712 149.480891 
L 273.969861 154.882254 
L 275.601291 156.161294 
L 278.864151 159.25637 
L 282.127011 163.228064 
L 285.38987 168.199104 
L 288.65273 174.150198 
L 291.91559 180.905827 
L 300.072739 198.787382 
L 301.704169 202.10179 
L 304.967029 207.688252 
L 306.598459 209.723797 
L 308.229889 211.57039 
L 309.861319 212.518052 
L 311.492748 213.250717 
L 313.124178 212.918968 
L 314.755608 212.367224 
L 316.387038 210.655513 
L 318.018468 208.739794 
L 321.281328 202.400947 
L 324.544187 193.607185 
L 327.807047 182.829017 
L 332.701337 164.369946 
L 337.595626 145.723883 
L 340.858486 134.543627 
L 344.121346 125.297887 
L 347.384206 118.610436 
L 350.647065 114.899087 
L 353.909925 114.336035 
L 357.172785 116.830096 
L 360.435645 122.032919 
L 363.698504 129.368939 
L 368.592794 142.721198 
L 371.855654 151.774045 
L 373.487084 156.19774 
L 376.749943 163.863567 
L 380.012803 169.614001 
L 383.275663 172.933256 
L 386.538523 173.546555 
L 386.538523 173.546555 
" clip-path="url(#p3f20c60367)" style="fill: none; stroke: #1f77b4; stroke-width: 1.2; stroke-linecap: round"/>
   </g>
   <g id="line2d_17">
    <path d="M 61.883977 119.529148 
L 65.146837 117.207446 
L 68.409697 115.715957 
L 71.672557 115.193269 
L 74.935416 115.795399 
L 78.198276 117.674145 
L 81.461136 120.950607 
L 84.723996 125.68706 
L 87.986855 131.860761 
L 91.249715 139.343277 
L 94.512575 147.888506 
L 105.932584 179.853721 
L 107.564014 183.955489 
L 110.826874 190.632417 
L 114.089733 195.214924 
L 117.352593 197.239671 
L 118.984023 196.900325 
L 120.615453 196.385494 
L 122.246883 194.552829 
L 123.878313 192.511088 
L 127.141172 185.680159 
L 130.404032 176.170926 
L 133.666892 164.468224 
L 136.929752 151.237912 
L 143.455471 123.497883 
L 146.718331 110.784252 
L 149.981191 100.00153 
L 151.61262 95.789966 
L 153.24405 91.88981 
L 154.87548 89.250943 
L 156.50691 87.01165 
L 158.13834 86.12638 
L 159.76977 85.704426 
L 161.4012 86.629832 
L 163.03263 88.049453 
L 164.66406 90.712057 
L 166.295489 93.860842 
L 167.926919 98.059989 
L 169.558349 102.695369 
L 172.821209 113.882913 
L 176.084069 126.575225 
L 182.609788 152.57989 
L 185.872648 163.916456 
L 187.504078 168.665428 
L 189.135508 172.956369 
L 190.766938 176.283003 
L 192.398367 179.010333 
L 194.029797 180.662932 
L 195.661227 181.613574 
L 197.292657 181.464134 
L 198.924087 180.559082 
L 200.555517 178.611521 
L 202.186947 175.910293 
L 203.818377 172.298346 
L 205.449806 167.992371 
L 207.081236 162.967444 
L 208.712666 157.363061 
L 211.975526 144.765774 
L 216.869816 124.133916 
L 220.132675 110.518261 
L 221.764105 104.05962 
L 223.395535 98.055993 
L 225.026965 92.480723 
L 226.658395 87.508371 
L 228.289825 83.141724 
L 229.921255 79.468573 
L 231.552684 76.533774 
L 233.184114 74.323287 
L 234.815544 72.928727 
L 236.446974 72.232256 
L 238.078404 72.368547 
L 239.709834 73.126936 
L 241.341264 74.673731 
L 242.972694 76.727725 
L 244.604123 79.46941 
L 246.235553 82.577713 
L 249.498413 90.089507 
L 254.392703 103.051693 
L 259.286992 115.950594 
L 262.549852 123.609652 
L 264.181282 126.955469 
L 265.812712 130.001166 
L 267.444142 132.593371 
L 269.075572 134.87718 
L 270.707001 136.662688 
L 272.338431 138.16298 
L 273.969861 139.176363 
L 275.601291 139.953322 
L 277.232721 140.308419 
L 278.864151 140.49392 
L 282.127011 140.150389 
L 288.65273 138.625126 
L 290.28416 138.449318 
L 291.91559 138.387561 
L 293.54702 138.647345 
L 295.17845 139.062833 
L 296.80988 139.923847 
L 298.441309 140.963206 
L 300.072739 142.529308 
L 301.704169 144.277343 
L 304.967029 149.053646 
L 308.229889 155.196105 
L 311.492748 162.472475 
L 316.387038 174.727686 
L 321.281328 187.206838 
L 324.544187 194.821661 
L 327.807047 201.303567 
L 331.069907 206.228416 
L 334.332767 209.261144 
L 337.595626 210.178598 
L 340.858486 208.883691 
L 344.121346 205.410359 
L 347.384206 199.919515 
L 350.647065 192.686867 
L 353.909925 184.08395 
L 358.804215 169.548599 
L 365.329934 149.993947 
L 366.961364 145.33506 
L 370.224224 137.000509 
L 373.487084 130.071989 
L 376.749943 124.86476 
L 380.012803 121.601345 
L 383.275663 120.402621 
L 386.538523 121.283846 
L 386.538523 121.283846 
" clip-path="url(#p3f20c60367)" style="fill: none; stroke: #1f77b4; stroke-width: 1.2; stroke-linecap: round"/>
   </g>
   <g id="patch_3">
    <path d="M 45.65125 286.633666 
L 45.65125 50.020487 
" style="fill: none; stroke: #262626; stroke-linejoin: miter; stroke-linecap: square"/>
   </g>
   <g id="patch_4">
    <path d="M 61.883977 290.9595 
L 386.538523 290.9595 
" style="fill: none; stroke: #262626; stroke-linejoin: miter; stroke-linecap: square"/>
   </g>
   <g id="text_17">
    <!-- Samples from KLE with exponential kernel -->
    <g style="fill: #262626" transform="translate(73.9225 18.8475) scale(0.16 -0.16)">
     <defs>
      <path id="ArialMT-53" d="M 288 1472 
L 859 1522 
Q 900 1178 1048 958 
Q 1197 738 1509 602 
Q 1822 466 2213 466 
Q 2559 466 2825 569 
Q 3091 672 3220 851 
Q 3350 1031 3350 1244 
Q 3350 1459 3225 1620 
Q 3100 1781 2813 1891 
Q 2628 1963 1997 2114 
Q 1366 2266 1113 2400 
Q 784 2572 623 2826 
Q 463 3081 463 3397 
Q 463 3744 659 4045 
Q 856 4347 1234 4503 
Q 1613 4659 2075 4659 
Q 2584 4659 2973 4495 
Q 3363 4331 3572 4012 
Q 3781 3694 3797 3291 
L 3216 3247 
Q 3169 3681 2898 3903 
Q 2628 4125 2100 4125 
Q 1550 4125 1298 3923 
Q 1047 3722 1047 3438 
Q 1047 3191 1225 3031 
Q 1400 2872 2139 2705 
Q 2878 2538 3153 2413 
Q 3553 2228 3743 1945 
Q 3934 1663 3934 1294 
Q 3934 928 3725 604 
Q 3516 281 3123 101 
Q 2731 -78 2241 -78 
Q 1619 -78 1198 103 
Q 778 284 539 648 
Q 300 1013 288 1472 
z
" transform="scale(0.015625)"/>
      <path id="ArialMT-61" d="M 2588 409 
Q 2275 144 1986 34 
Q 1697 -75 1366 -75 
Q 819 -75 525 192 
Q 231 459 231 875 
Q 231 1119 342 1320 
Q 453 1522 633 1644 
Q 813 1766 1038 1828 
Q 1203 1872 1538 1913 
Q 2219 1994 2541 2106 
Q 2544 2222 2544 2253 
Q 2544 2597 2384 2738 
Q 2169 2928 1744 2928 
Q 1347 2928 1158 2789 
Q 969 2650 878 2297 
L 328 2372 
Q 403 2725 575 2942 
Q 747 3159 1072 3276 
Q 1397 3394 1825 3394 
Q 2250 3394 2515 3294 
Q 2781 3194 2906 3042 
Q 3031 2891 3081 2659 
Q 3109 2516 3109 2141 
L 3109 1391 
Q 3109 606 3145 398 
Q 3181 191 3288 0 
L 2700 0 
Q 2613 175 2588 409 
z
M 2541 1666 
Q 2234 1541 1622 1453 
Q 1275 1403 1131 1340 
Q 988 1278 909 1158 
Q 831 1038 831 891 
Q 831 666 1001 516 
Q 1172 366 1500 366 
Q 1825 366 2078 508 
Q 2331 650 2450 897 
Q 2541 1088 2541 1459 
L 2541 1666 
z
" transform="scale(0.015625)"/>
      <path id="ArialMT-6d" d="M 422 0 
L 422 3319 
L 925 3319 
L 925 2853 
Q 1081 3097 1340 3245 
Q 1600 3394 1931 3394 
Q 2300 3394 2536 3241 
Q 2772 3088 2869 2813 
Q 3263 3394 3894 3394 
Q 4388 3394 4653 3120 
Q 4919 2847 4919 2278 
L 4919 0 
L 4359 0 
L 4359 2091 
Q 4359 2428 4304 2576 
Q 4250 2725 4106 2815 
Q 3963 2906 3769 2906 
Q 3419 2906 3187 2673 
Q 2956 2441 2956 1928 
L 2956 0 
L 2394 0 
L 2394 2156 
Q 2394 2531 2256 2718 
Q 2119 2906 1806 2906 
Q 1569 2906 1367 2781 
Q 1166 2656 1075 2415 
Q 984 2175 984 1722 
L 984 0 
L 422 0 
z
" transform="scale(0.015625)"/>
      <path id="ArialMT-70" d="M 422 -1272 
L 422 3319 
L 934 3319 
L 934 2888 
Q 1116 3141 1344 3267 
Q 1572 3394 1897 3394 
Q 2322 3394 2647 3175 
Q 2972 2956 3137 2557 
Q 3303 2159 3303 1684 
Q 3303 1175 3120 767 
Q 2938 359 2589 142 
Q 2241 -75 1856 -75 
Q 1575 -75 1351 44 
Q 1128 163 984 344 
L 984 -1272 
L 422 -1272 
z
M 931 1641 
Q 931 1000 1190 694 
Q 1450 388 1819 388 
Q 2194 388 2461 705 
Q 2728 1022 2728 1688 
Q 2728 2322 2467 2637 
Q 2206 2953 1844 2953 
Q 1484 2953 1207 2617 
Q 931 2281 931 1641 
z
" transform="scale(0.015625)"/>
      <path id="ArialMT-6c" d="M 409 0 
L 409 4581 
L 972 4581 
L 972 0 
L 409 0 
z
" transform="scale(0.015625)"/>
      <path id="ArialMT-65" d="M 2694 1069 
L 3275 997 
Q 3138 488 2766 206 
Q 2394 -75 1816 -75 
Q 1088 -75 661 373 
Q 234 822 234 1631 
Q 234 2469 665 2931 
Q 1097 3394 1784 3394 
Q 2450 3394 2872 2941 
Q 3294 2488 3294 1666 
Q 3294 1616 3291 1516 
L 816 1516 
Q 847 969 1125 678 
Q 1403 388 1819 388 
Q 2128 388 2347 550 
Q 2566 713 2694 1069 
z
M 847 1978 
L 2700 1978 
Q 2663 2397 2488 2606 
Q 2219 2931 1791 2931 
Q 1403 2931 1139 2672 
Q 875 2413 847 1978 
z
" transform="scale(0.015625)"/>
      <path id="ArialMT-73" d="M 197 991 
L 753 1078 
Q 800 744 1014 566 
Q 1228 388 1613 388 
Q 2000 388 2187 545 
Q 2375 703 2375 916 
Q 2375 1106 2209 1216 
Q 2094 1291 1634 1406 
Q 1016 1563 777 1677 
Q 538 1791 414 1992 
Q 291 2194 291 2438 
Q 291 2659 392 2848 
Q 494 3038 669 3163 
Q 800 3259 1026 3326 
Q 1253 3394 1513 3394 
Q 1903 3394 2198 3281 
Q 2494 3169 2634 2976 
Q 2775 2784 2828 2463 
L 2278 2388 
Q 2241 2644 2061 2787 
Q 1881 2931 1553 2931 
Q 1166 2931 1000 2803 
Q 834 2675 834 2503 
Q 834 2394 903 2306 
Q 972 2216 1119 2156 
Q 1203 2125 1616 2013 
Q 2213 1853 2448 1751 
Q 2684 1650 2818 1456 
Q 2953 1263 2953 975 
Q 2953 694 2789 445 
Q 2625 197 2315 61 
Q 2006 -75 1616 -75 
Q 969 -75 630 194 
Q 291 463 197 991 
z
" transform="scale(0.015625)"/>
      <path id="ArialMT-20" transform="scale(0.015625)"/>
      <path id="ArialMT-66" d="M 556 0 
L 556 2881 
L 59 2881 
L 59 3319 
L 556 3319 
L 556 3672 
Q 556 4006 616 4169 
Q 697 4388 901 4523 
Q 1106 4659 1475 4659 
Q 1713 4659 2000 4603 
L 1916 4113 
Q 1741 4144 1584 4144 
Q 1328 4144 1222 4034 
Q 1116 3925 1116 3625 
L 1116 3319 
L 1763 3319 
L 1763 2881 
L 1116 2881 
L 1116 0 
L 556 0 
z
" transform="scale(0.015625)"/>
      <path id="ArialMT-72" d="M 416 0 
L 416 3319 
L 922 3319 
L 922 2816 
Q 1116 3169 1280 3281 
Q 1444 3394 1641 3394 
Q 1925 3394 2219 3213 
L 2025 2691 
Q 1819 2813 1613 2813 
Q 1428 2813 1281 2702 
Q 1134 2591 1072 2394 
Q 978 2094 978 1738 
L 978 0 
L 416 0 
z
" transform="scale(0.015625)"/>
      <path id="ArialMT-6f" d="M 213 1659 
Q 213 2581 725 3025 
Q 1153 3394 1769 3394 
Q 2453 3394 2887 2945 
Q 3322 2497 3322 1706 
Q 3322 1066 3130 698 
Q 2938 331 2570 128 
Q 2203 -75 1769 -75 
Q 1072 -75 642 372 
Q 213 819 213 1659 
z
M 791 1659 
Q 791 1022 1069 705 
Q 1347 388 1769 388 
Q 2188 388 2466 706 
Q 2744 1025 2744 1678 
Q 2744 2294 2464 2611 
Q 2184 2928 1769 2928 
Q 1347 2928 1069 2612 
Q 791 2297 791 1659 
z
" transform="scale(0.015625)"/>
      <path id="ArialMT-4b" d="M 469 0 
L 469 4581 
L 1075 4581 
L 1075 2309 
L 3350 4581 
L 4172 4581 
L 2250 2725 
L 4256 0 
L 3456 0 
L 1825 2319 
L 1075 1588 
L 1075 0 
L 469 0 
z
" transform="scale(0.015625)"/>
      <path id="ArialMT-4c" d="M 469 0 
L 469 4581 
L 1075 4581 
L 1075 541 
L 3331 541 
L 3331 0 
L 469 0 
z
" transform="scale(0.015625)"/>
      <path id="ArialMT-45" d="M 506 0 
L 506 4581 
L 3819 4581 
L 3819 4041 
L 1113 4041 
L 1113 2638 
L 3647 2638 
L 3647 2100 
L 1113 2100 
L 1113 541 
L 3925 541 
L 3925 0 
L 506 0 
z
" transform="scale(0.015625)"/>
      <path id="ArialMT-77" d="M 1034 0 
L 19 3319 
L 600 3319 
L 1128 1403 
L 1325 691 
Q 1338 744 1497 1375 
L 2025 3319 
L 2603 3319 
L 3100 1394 
L 3266 759 
L 3456 1400 
L 4025 3319 
L 4572 3319 
L 3534 0 
L 2950 0 
L 2422 1988 
L 2294 2553 
L 1622 0 
L 1034 0 
z
" transform="scale(0.015625)"/>
      <path id="ArialMT-69" d="M 425 3934 
L 425 4581 
L 988 4581 
L 988 3934 
L 425 3934 
z
M 425 0 
L 425 3319 
L 988 3319 
L 988 0 
L 425 0 
z
" transform="scale(0.015625)"/>
      <path id="ArialMT-74" d="M 1650 503 
L 1731 6 
Q 1494 -44 1306 -44 
Q 1000 -44 831 53 
Q 663 150 594 308 
Q 525 466 525 972 
L 525 2881 
L 113 2881 
L 113 3319 
L 525 3319 
L 525 4141 
L 1084 4478 
L 1084 3319 
L 1650 3319 
L 1650 2881 
L 1084 2881 
L 1084 941 
Q 1084 700 1114 631 
Q 1144 563 1211 522 
Q 1278 481 1403 481 
Q 1497 481 1650 503 
z
" transform="scale(0.015625)"/>
      <path id="ArialMT-68" d="M 422 0 
L 422 4581 
L 984 4581 
L 984 2938 
Q 1378 3394 1978 3394 
Q 2347 3394 2619 3248 
Q 2891 3103 3008 2847 
Q 3125 2591 3125 2103 
L 3125 0 
L 2563 0 
L 2563 2103 
Q 2563 2525 2380 2717 
Q 2197 2909 1863 2909 
Q 1613 2909 1392 2779 
Q 1172 2650 1078 2428 
Q 984 2206 984 1816 
L 984 0 
L 422 0 
z
" transform="scale(0.015625)"/>
      <path id="ArialMT-78" d="M 47 0 
L 1259 1725 
L 138 3319 
L 841 3319 
L 1350 2541 
Q 1494 2319 1581 2169 
Q 1719 2375 1834 2534 
L 2394 3319 
L 3066 3319 
L 1919 1756 
L 3153 0 
L 2463 0 
L 1781 1031 
L 1600 1309 
L 728 0 
L 47 0 
z
" transform="scale(0.015625)"/>
      <path id="ArialMT-6e" d="M 422 0 
L 422 3319 
L 928 3319 
L 928 2847 
Q 1294 3394 1984 3394 
Q 2284 3394 2536 3286 
Q 2788 3178 2913 3003 
Q 3038 2828 3088 2588 
Q 3119 2431 3119 2041 
L 3119 0 
L 2556 0 
L 2556 2019 
Q 2556 2363 2490 2533 
Q 2425 2703 2258 2804 
Q 2091 2906 1866 2906 
Q 1506 2906 1245 2678 
Q 984 2450 984 1813 
L 984 0 
L 422 0 
z
" transform="scale(0.015625)"/>
      <path id="ArialMT-6b" d="M 425 0 
L 425 4581 
L 988 4581 
L 988 1969 
L 2319 3319 
L 3047 3319 
L 1778 2088 
L 3175 0 
L 2481 0 
L 1384 1697 
L 988 1316 
L 988 0 
L 425 0 
z
" transform="scale(0.015625)"/>
     </defs>
     <use xlink:href="#ArialMT-53"/>
     <use xlink:href="#ArialMT-61" x="66.699219"/>
     <use xlink:href="#ArialMT-6d" x="122.314453"/>
     <use xlink:href="#ArialMT-70" x="205.615234"/>
     <use xlink:href="#ArialMT-6c" x="261.230469"/>
     <use xlink:href="#ArialMT-65" x="283.447266"/>
     <use xlink:href="#ArialMT-73" x="339.0625"/>
     <use xlink:href="#ArialMT-20" x="389.0625"/>
     <use xlink:href="#ArialMT-66" x="416.845703"/>
     <use xlink:href="#ArialMT-72" x="444.628906"/>
     <use xlink:href="#ArialMT-6f" x="477.929688"/>
     <use xlink:href="#ArialMT-6d" x="533.544922"/>
     <use xlink:href="#ArialMT-20" x="616.845703"/>
     <use xlink:href="#ArialMT-4b" x="644.628906"/>
     <use xlink:href="#ArialMT-4c" x="711.328125"/>
     <use xlink:href="#ArialMT-45" x="766.943359"/>
     <use xlink:href="#ArialMT-20" x="833.642578"/>
     <use xlink:href="#ArialMT-77" x="861.425781"/>
     <use xlink:href="#ArialMT-69" x="933.642578"/>
     <use xlink:href="#ArialMT-74" x="955.859375"/>
     <use xlink:href="#ArialMT-68" x="983.642578"/>
     <use xlink:href="#ArialMT-20" x="1039.257812"/>
     <use xlink:href="#ArialMT-65" x="1067.041016"/>
     <use xlink:href="#ArialMT-78" x="1122.65625"/>
     <use xlink:href="#ArialMT-70" x="1172.65625"/>
     <use xlink:href="#ArialMT-6f" x="1228.271484"/>
     <use xlink:href="#ArialMT-6e" x="1283.886719"/>
     <use xlink:href="#ArialMT-65" x="1339.501953"/>
     <use xlink:href="#ArialMT-6e" x="1395.117188"/>
     <use xlink:href="#ArialMT-74" x="1450.732422"/>
     <use xlink:href="#ArialMT-69" x="1478.515625"/>
     <use xlink:href="#ArialMT-61" x="1500.732422"/>
     <use xlink:href="#ArialMT-6c" x="1556.347656"/>
     <use xlink:href="#ArialMT-20" x="1578.564453"/>
     <use xlink:href="#ArialMT-6b" x="1606.347656"/>
     <use xlink:href="#ArialMT-65" x="1656.347656"/>
     <use xlink:href="#ArialMT-72" x="1711.962891"/>
     <use xlink:href="#ArialMT-6e" x="1745.263672"/>
     <use xlink:href="#ArialMT-65" x="1800.878906"/>
     <use xlink:href="#ArialMT-6c" x="1856.494141"/>
    </g>
   </g>
  </g>
 </g>
 <defs>
  <clipPath id="p3f20c60367">
   <rect x="45.65125" y="24.8475" width="357.12" height="266.112"/>
  </clipPath>
 </defs>
</svg>