<?xml version="1.0" encoding="utf-8" standalone="no"?>
<!DOCTYPE svg PUBLIC "-//W3C//DTD SVG 1.1//EN"
  "http://www.w3.org/Graphics/SVG/1.1/DTD/svg11.dtd">
<svg xmlns:xlink="http://www.w3.org/1999/xlink" width="212.912875pt" height="167.278875pt" viewBox="0 0 212.912875 167.278875" xmlns="http://www.w3.org/2000/svg" version="1.1">
 <metadata>
  <rdf:RDF xmlns:dc="http://purl.org/dc/elements/1.1/" xmlns:cc="http://creativecommons.org/ns#" xmlns:rdf="http://www.w3.org/1999/02/22-rdf-syntax-ns#">
   <cc:Work>
    <dc:type rdf:resource="http://purl.org/dc/dcmitype/StillImage"/>
    <dc:date>2025-02-27T12:25:13.232615</dc:date>
    <dc:format>image/svg+xml</dc:format>
    <dc:creator>
     <cc:Agent>
      <dc:title>Matplotlib v3.9.2, https://matplotlib.org/</dc:title>
     </cc:Agent>
    </dc:creator>
   </cc:Work>
  </rdf:RDF>
 </metadata>
 <defs>
  <style type="text/css">*{stroke-linejoin: round; stroke-linecap: butt}</style>
 </defs>
 <g id="figure_1">
  <g id="patch_1">
   <path d="M 0 167.278875 
L 212.912875 167.278875 
L 212.912875 0 
L 0 0 
z
" style="fill: #ffffff"/>
  </g>
  <g id="axes_1">
   <g id="patch_2">
    <path d="M 38.312875 130.9515 
L 205.712875 130.9515 
L 205.712875 20.0715 
L 38.312875 20.0715 
z
" style="fill: #ffffff"/>
   </g>
   <g id="matplotlib.axis_1">
    <g id="xtick_1">
     <g id="line2d_1">
      <defs>
       <path id="m554e038895" d="M 0 0 
L 0 4.8 
" style="stroke: #262626"/>
      </defs>
      <g>
       <use xlink:href="#m554e038895" x="45.921966" y="130.9515" style="fill: #262626; stroke: #262626"/>
      </g>
     </g>
     <g id="text_1">
      <!-- 0.0 -->
      <g style="fill: #262626" transform="translate(39.805966 145.550375) scale(0.088 -0.088)">
       <defs>
        <path id="ArialMT-30" d="M 266 2259 
Q 266 3072 433 3567 
Q 600 4063 929 4331 
Q 1259 4600 1759 4600 
Q 2128 4600 2406 4451 
Q 2684 4303 2865 4023 
Q 3047 3744 3150 3342 
Q 3253 2941 3253 2259 
Q 3253 1453 3087 958 
Q 2922 463 2592 192 
Q 2263 -78 1759 -78 
Q 1097 -78 719 397 
Q 266 969 266 2259 
z
M 844 2259 
Q 844 1131 1108 757 
Q 1372 384 1759 384 
Q 2147 384 2411 759 
Q 2675 1134 2675 2259 
Q 2675 3391 2411 3762 
Q 2147 4134 1753 4134 
Q 1366 4134 1134 3806 
Q 844 3388 844 2259 
z
" transform="scale(0.015625)"/>
        <path id="ArialMT-2e" d="M 581 0 
L 581 641 
L 1222 641 
L 1222 0 
L 581 0 
z
" transform="scale(0.015625)"/>
       </defs>
       <use xlink:href="#ArialMT-30"/>
       <use xlink:href="#ArialMT-2e" x="55.615234"/>
       <use xlink:href="#ArialMT-30" x="83.398438"/>
      </g>
     </g>
    </g>
    <g id="xtick_2">
     <g id="line2d_2">
      <g>
       <use xlink:href="#m554e038895" x="76.35833" y="130.9515" style="fill: #262626; stroke: #262626"/>
      </g>
     </g>
     <g id="text_2">
      <!-- 0.2 -->
      <g style="fill: #262626" transform="translate(70.24233 145.550375) scale(0.088 -0.088)">
       <defs>
        <path id="ArialMT-32" d="M 3222 541 
L 3222 0 
L 194 0 
Q 188 203 259 391 
Q 375 700 629 1000 
Q 884 1300 1366 1694 
Q 2113 2306 2375 2664 
Q 2638 3022 2638 3341 
Q 2638 3675 2398 3904 
Q 2159 4134 1775 4134 
Q 1369 4134 1125 3890 
Q 881 3647 878 3216 
L 300 3275 
Q 359 3922 746 4261 
Q 1134 4600 1788 4600 
Q 2447 4600 2831 4234 
Q 3216 3869 3216 3328 
Q 3216 3053 3103 2787 
Q 2991 2522 2730 2228 
Q 2469 1934 1863 1422 
Q 1356 997 1212 845 
Q 1069 694 975 541 
L 3222 541 
z
" transform="scale(0.015625)"/>
       </defs>
       <use xlink:href="#ArialMT-30"/>
       <use xlink:href="#ArialMT-2e" x="55.615234"/>
       <use xlink:href="#ArialMT-32" x="83.398438"/>
      </g>
     </g>
    </g>
    <g id="xtick_3">
     <g id="line2d_3">
      <g>
       <use xlink:href="#m554e038895" x="106.794693" y="130.9515" style="fill: #262626; stroke: #262626"/>
      </g>
     </g>
     <g id="text_3">
      <!-- 0.4 -->
      <g style="fill: #262626" transform="translate(100.678693 145.550375) scale(0.088 -0.088)">
       <defs>
        <path id="ArialMT-34" d="M 2069 0 
L 2069 1097 
L 81 1097 
L 81 1613 
L 2172 4581 
L 2631 4581 
L 2631 1613 
L 3250 1613 
L 3250 1097 
L 2631 1097 
L 2631 0 
L 2069 0 
z
M 2069 1613 
L 2069 3678 
L 634 1613 
L 2069 1613 
z
" transform="scale(0.015625)"/>
       </defs>
       <use xlink:href="#ArialMT-30"/>
       <use xlink:href="#ArialMT-2e" x="55.615234"/>
       <use xlink:href="#ArialMT-34" x="83.398438"/>
      </g>
     </g>
    </g>
    <g id="xtick_4">
     <g id="line2d_4">
      <g>
       <use xlink:href="#m554e038895" x="137.231057" y="130.9515" style="fill: #262626; stroke: #262626"/>
      </g>
     </g>
     <g id="text_4">
      <!-- 0.6 -->
      <g style="fill: #262626" transform="translate(131.115057 145.550375) scale(0.088 -0.088)">
       <defs>
        <path id="ArialMT-36" d="M 3184 3459 
L 2625 3416 
Q 2550 3747 2413 3897 
Q 2184 4138 1850 4138 
Q 1581 4138 1378 3988 
Q 1113 3794 959 3422 
Q 806 3050 800 2363 
Q 1003 2672 1297 2822 
Q 1591 2972 1913 2972 
Q 2475 2972 2870 2558 
Q 3266 2144 3266 1488 
Q 3266 1056 3080 686 
Q 2894 316 2569 119 
Q 2244 -78 1831 -78 
Q 1128 -78 684 439 
Q 241 956 241 2144 
Q 241 3472 731 4075 
Q 1159 4600 1884 4600 
Q 2425 4600 2770 4297 
Q 3116 3994 3184 3459 
z
M 888 1484 
Q 888 1194 1011 928 
Q 1134 663 1356 523 
Q 1578 384 1822 384 
Q 2178 384 2434 671 
Q 2691 959 2691 1453 
Q 2691 1928 2437 2201 
Q 2184 2475 1800 2475 
Q 1419 2475 1153 2201 
Q 888 1928 888 1484 
z
" transform="scale(0.015625)"/>
       </defs>
       <use xlink:href="#ArialMT-30"/>
       <use xlink:href="#ArialMT-2e" x="55.615234"/>
       <use xlink:href="#ArialMT-36" x="83.398438"/>
      </g>
     </g>
    </g>
    <g id="xtick_5">
     <g id="line2d_5">
      <g>
       <use xlink:href="#m554e038895" x="167.66742" y="130.9515" style="fill: #262626; stroke: #262626"/>
      </g>
     </g>
     <g id="text_5">
      <!-- 0.8 -->
      <g style="fill: #262626" transform="translate(161.55142 145.550375) scale(0.088 -0.088)">
       <defs>
        <path id="ArialMT-38" d="M 1131 2484 
Q 781 2613 612 2850 
Q 444 3088 444 3419 
Q 444 3919 803 4259 
Q 1163 4600 1759 4600 
Q 2359 4600 2725 4251 
Q 3091 3903 3091 3403 
Q 3091 3084 2923 2848 
Q 2756 2613 2416 2484 
Q 2838 2347 3058 2040 
Q 3278 1734 3278 1309 
Q 3278 722 2862 322 
Q 2447 -78 1769 -78 
Q 1091 -78 675 323 
Q 259 725 259 1325 
Q 259 1772 486 2073 
Q 713 2375 1131 2484 
z
M 1019 3438 
Q 1019 3113 1228 2906 
Q 1438 2700 1772 2700 
Q 2097 2700 2305 2904 
Q 2513 3109 2513 3406 
Q 2513 3716 2298 3927 
Q 2084 4138 1766 4138 
Q 1444 4138 1231 3931 
Q 1019 3725 1019 3438 
z
M 838 1322 
Q 838 1081 952 856 
Q 1066 631 1291 507 
Q 1516 384 1775 384 
Q 2178 384 2440 643 
Q 2703 903 2703 1303 
Q 2703 1709 2433 1975 
Q 2163 2241 1756 2241 
Q 1359 2241 1098 1978 
Q 838 1716 838 1322 
z
" transform="scale(0.015625)"/>
       </defs>
       <use xlink:href="#ArialMT-30"/>
       <use xlink:href="#ArialMT-2e" x="55.615234"/>
       <use xlink:href="#ArialMT-38" x="83.398438"/>
      </g>
     </g>
    </g>
    <g id="xtick_6">
     <g id="line2d_6">
      <g>
       <use xlink:href="#m554e038895" x="198.103784" y="130.9515" style="fill: #262626; stroke: #262626"/>
      </g>
     </g>
     <g id="text_6">
      <!-- 1.0 -->
      <g style="fill: #262626" transform="translate(191.987784 145.550375) scale(0.088 -0.088)">
       <defs>
        <path id="ArialMT-31" d="M 2384 0 
L 1822 0 
L 1822 3584 
Q 1619 3391 1289 3197 
Q 959 3003 697 2906 
L 697 3450 
Q 1169 3672 1522 3987 
Q 1875 4303 2022 4600 
L 2384 4600 
L 2384 0 
z
" transform="scale(0.015625)"/>
       </defs>
       <use xlink:href="#ArialMT-31"/>
       <use xlink:href="#ArialMT-2e" x="55.615234"/>
       <use xlink:href="#ArialMT-30" x="83.398438"/>
      </g>
     </g>
    </g>
    <g id="text_7">
     <!-- $x$ -->
     <g style="fill: #262626" transform="translate(119.132875 158.170875) scale(0.096 -0.096)">
      <defs>
       <path id="DejaVuSans-Oblique-78" d="M 3841 3500 
L 2234 1784 
L 3219 0 
L 2559 0 
L 1819 1388 
L 531 0 
L -166 0 
L 1556 1844 
L 641 3500 
L 1300 3500 
L 1972 2234 
L 3144 3500 
L 3841 3500 
z
" transform="scale(0.015625)"/>
      </defs>
      <use xlink:href="#DejaVuSans-Oblique-78" transform="translate(0 0.3125)"/>
     </g>
    </g>
   </g>
   <g id="matplotlib.axis_2">
    <g id="ytick_1">
     <g id="line2d_7">
      <defs>
       <path id="m0ed146dd7a" d="M 0 0 
L -4.8 0 
" style="stroke: #262626"/>
      </defs>
      <g>
       <use xlink:href="#m0ed146dd7a" x="38.312875" y="130.9515" style="fill: #262626; stroke: #262626"/>
      </g>
     </g>
     <g id="text_8">
      <!-- −2 -->
      <g style="fill: #262626" transform="translate(19.9795 134.100937) scale(0.088 -0.088)">
       <defs>
        <path id="ArialMT-2212" d="M 3381 1997 
L 356 1997 
L 356 2522 
L 3381 2522 
L 3381 1997 
z
" transform="scale(0.015625)"/>
       </defs>
       <use xlink:href="#ArialMT-2212"/>
       <use xlink:href="#ArialMT-32" x="58.398438"/>
      </g>
     </g>
    </g>
    <g id="ytick_2">
     <g id="line2d_8">
      <g>
       <use xlink:href="#m0ed146dd7a" x="38.312875" y="112.4715" style="fill: #262626; stroke: #262626"/>
      </g>
     </g>
     <g id="text_9">
      <!-- −1 -->
      <g style="fill: #262626" transform="translate(19.9795 115.620937) scale(0.088 -0.088)">
       <use xlink:href="#ArialMT-2212"/>
       <use xlink:href="#ArialMT-31" x="58.398438"/>
      </g>
     </g>
    </g>
    <g id="ytick_3">
     <g id="line2d_9">
      <g>
       <use xlink:href="#m0ed146dd7a" x="38.312875" y="93.9915" style="fill: #262626; stroke: #262626"/>
      </g>
     </g>
     <g id="text_10">
      <!-- 0 -->
      <g style="fill: #262626" transform="translate(25.11925 97.140938) scale(0.088 -0.088)">
       <use xlink:href="#ArialMT-30"/>
      </g>
     </g>
    </g>
    <g id="ytick_4">
     <g id="line2d_10">
      <g>
       <use xlink:href="#m0ed146dd7a" x="38.312875" y="75.5115" style="fill: #262626; stroke: #262626"/>
      </g>
     </g>
     <g id="text_11">
      <!-- 1 -->
      <g style="fill: #262626" transform="translate(25.11925 78.660938) scale(0.088 -0.088)">
       <use xlink:href="#ArialMT-31"/>
      </g>
     </g>
    </g>
    <g id="ytick_5">
     <g id="line2d_11">
      <g>
       <use xlink:href="#m0ed146dd7a" x="38.312875" y="57.0315" style="fill: #262626; stroke: #262626"/>
      </g>
     </g>
     <g id="text_12">
      <!-- 2 -->
      <g style="fill: #262626" transform="translate(25.11925 60.180937) scale(0.088 -0.088)">
       <use xlink:href="#ArialMT-32"/>
      </g>
     </g>
    </g>
    <g id="ytick_6">
     <g id="line2d_12">
      <g>
       <use xlink:href="#m0ed146dd7a" x="38.312875" y="38.5515" style="fill: #262626; stroke: #262626"/>
      </g>
     </g>
     <g id="text_13">
      <!-- 3 -->
      <g style="fill: #262626" transform="translate(25.11925 41.700938) scale(0.088 -0.088)">
       <defs>
        <path id="ArialMT-33" d="M 269 1209 
L 831 1284 
Q 928 806 1161 595 
Q 1394 384 1728 384 
Q 2125 384 2398 659 
Q 2672 934 2672 1341 
Q 2672 1728 2419 1979 
Q 2166 2231 1775 2231 
Q 1616 2231 1378 2169 
L 1441 2663 
Q 1497 2656 1531 2656 
Q 1891 2656 2178 2843 
Q 2466 3031 2466 3422 
Q 2466 3731 2256 3934 
Q 2047 4138 1716 4138 
Q 1388 4138 1169 3931 
Q 950 3725 888 3313 
L 325 3413 
Q 428 3978 793 4289 
Q 1159 4600 1703 4600 
Q 2078 4600 2393 4439 
Q 2709 4278 2876 4000 
Q 3044 3722 3044 3409 
Q 3044 3113 2884 2869 
Q 2725 2625 2413 2481 
Q 2819 2388 3044 2092 
Q 3269 1797 3269 1353 
Q 3269 753 2831 336 
Q 2394 -81 1725 -81 
Q 1122 -81 723 278 
Q 325 638 269 1209 
z
" transform="scale(0.015625)"/>
       </defs>
       <use xlink:href="#ArialMT-33"/>
      </g>
     </g>
    </g>
    <g id="ytick_7">
     <g id="line2d_13">
      <g>
       <use xlink:href="#m0ed146dd7a" x="38.312875" y="20.0715" style="fill: #262626; stroke: #262626"/>
      </g>
     </g>
     <g id="text_14">
      <!-- 4 -->
      <g style="fill: #262626" transform="translate(25.11925 23.220937) scale(0.088 -0.088)">
       <use xlink:href="#ArialMT-34"/>
      </g>
     </g>
    </g>
    <g id="text_15">
     <!-- $y$ -->
     <g style="fill: #262626" transform="translate(13.9635 78.3915) rotate(-90) scale(0.096 -0.096)">
      <defs>
       <path id="DejaVuSans-Oblique-79" d="M 1588 -325 
Q 1188 -997 936 -1164 
Q 684 -1331 294 -1331 
L -159 -1331 
L -63 -850 
L 269 -850 
Q 509 -850 678 -719 
Q 847 -588 1056 -206 
L 1234 128 
L 459 3500 
L 1069 3500 
L 1650 819 
L 3256 3500 
L 3859 3500 
L 1588 -325 
z
" transform="scale(0.015625)"/>
      </defs>
      <use xlink:href="#DejaVuSans-Oblique-79" transform="translate(0 0.3125)"/>
     </g>
    </g>
   </g>
   <g id="PolyCollection_1">
    <defs>
     <path id="m45d1d54cf0" d="M 45.921966 -77.118379 
L 45.921966 -69.738275 
L 47.459156 -69.558948 
L 48.996346 -68.727934 
L 50.533536 -67.901028 
L 52.070726 -67.326868 
L 53.607916 -67.087823 
L 55.145106 -67.204451 
L 56.682296 -67.667196 
L 58.219487 -68.446501 
L 59.756677 -69.4954 
L 61.293867 -70.747602 
L 62.831057 -72.110014 
L 64.368247 -73.447789 
L 65.905437 -74.573909 
L 67.442627 -75.309038 
L 68.979817 -75.642941 
L 70.517007 -75.753824 
L 72.054197 -75.841188 
L 73.591387 -76.042724 
L 75.128577 -76.441776 
L 76.665768 -77.085901 
L 78.202958 -77.99763 
L 79.740148 -79.179495 
L 81.277338 -80.616056 
L 82.814528 -82.27413 
L 84.351718 -84.101203 
L 85.888908 -86.021191 
L 87.426098 -87.927001 
L 88.963288 -89.676032 
L 90.500478 -91.117188 
L 92.037668 -92.176917 
L 93.574858 -92.914988 
L 95.112049 -93.455302 
L 96.649239 -93.903039 
L 98.186429 -94.324199 
L 99.723619 -94.753564 
L 101.260809 -95.204205 
L 102.797999 -95.673671 
L 104.335189 -96.147818 
L 105.872379 -96.603423 
L 107.409569 -97.010239 
L 108.946759 -97.33276 
L 110.483949 -97.531819 
L 112.021139 -97.566113 
L 113.55833 -97.39397 
L 115.09552 -96.976173 
L 116.63271 -96.281246 
L 118.1699 -95.293924 
L 119.70709 -94.023509 
L 121.24428 -92.504653 
L 122.78147 -90.787584 
L 124.31866 -88.925006 
L 125.85585 -86.963914 
L 127.39304 -84.943587 
L 128.93023 -82.896916 
L 130.46742 -80.852443 
L 132.004611 -78.835855 
L 133.541801 -76.870451 
L 135.078991 -74.976587 
L 136.616181 -73.170426 
L 138.153371 -71.462749 
L 139.690561 -69.859182 
L 141.227751 -68.36347 
L 142.764941 -66.984111 
L 144.302131 -65.741382 
L 145.839321 -64.669897 
L 147.376511 -63.815024 
L 148.913701 -63.226185 
L 150.450892 -62.950668 
L 151.988082 -63.029268 
L 153.525272 -63.493407 
L 155.062462 -64.363137 
L 156.599652 -65.645642 
L 158.136842 -67.334134 
L 159.674032 -69.40715 
L 161.211222 -71.828297 
L 162.748412 -74.546502 
L 164.285602 -77.496818 
L 165.822792 -80.601902 
L 167.359982 -83.774408 
L 168.897173 -86.92079 
L 170.434363 -89.94713 
L 171.971553 -92.766973 
L 173.508743 -95.30901 
L 175.045933 -97.520386 
L 176.583123 -99.363275 
L 178.120313 -100.807691 
L 179.657503 -101.825873 
L 181.194693 -102.390967 
L 182.731883 -102.479457 
L 184.269073 -102.075639 
L 185.806263 -101.176282 
L 187.343454 -99.793774 
L 188.880644 -97.956311 
L 190.417834 -95.704161 
L 191.955024 -93.081188 
L 193.492214 -90.120137 
L 195.029404 -86.81999 
L 196.566594 -83.123136 
L 198.103784 -78.931621 
L 198.103784 -86.329633 
L 198.103784 -86.329633 
L 196.566594 -89.763005 
L 195.029404 -93.329701 
L 193.492214 -96.797979 
L 191.955024 -99.985663 
L 190.417834 -102.779913 
L 188.880644 -105.117571 
L 187.343454 -106.965245 
L 185.806263 -108.306753 
L 184.269073 -109.136189 
L 182.731883 -109.455019 
L 181.194693 -109.272396 
L 179.657503 -108.607706 
L 178.120313 -107.493949 
L 176.583123 -105.980285 
L 175.045933 -104.132008 
L 173.508743 -102.026302 
L 171.971553 -99.743379 
L 170.434363 -97.355825 
L 168.897173 -94.921639 
L 167.359982 -92.48405 
L 165.822792 -90.07588 
L 164.285602 -87.724326 
L 162.748412 -85.454104 
L 161.211222 -83.288999 
L 159.674032 -81.252481 
L 158.136842 -79.367909 
L 156.599652 -77.658569 
L 155.062462 -76.147633 
L 153.525272 -74.858067 
L 151.988082 -73.81248 
L 150.450892 -73.0329 
L 148.913701 -72.540424 
L 147.376511 -72.354543 
L 145.839321 -72.491712 
L 144.302131 -72.962479 
L 142.764941 -73.766786 
L 141.227751 -74.888685 
L 139.690561 -76.294088 
L 138.153371 -77.934523 
L 136.616181 -79.755231 
L 135.078991 -81.702728 
L 133.541801 -83.728865 
L 132.004611 -85.79173 
L 130.46742 -87.855024 
L 128.93023 -89.887293 
L 127.39304 -91.861791 
L 125.85585 -93.757332 
L 124.31866 -95.560124 
L 122.78147 -97.266159 
L 121.24428 -98.882858 
L 119.70709 -100.427399 
L 118.1699 -101.918847 
L 116.63271 -103.365349 
L 115.09552 -104.754641 
L 113.55833 -106.055049 
L 112.021139 -107.22403 
L 110.483949 -108.216727 
L 108.946759 -108.99128 
L 107.409569 -109.511562 
L 105.872379 -109.748763 
L 104.335189 -109.682621 
L 102.797999 -109.302628 
L 101.260809 -108.609307 
L 99.723619 -107.615688 
L 98.186429 -106.349285 
L 96.649239 -104.855229 
L 95.112049 -103.201734 
L 93.574858 -101.488877 
L 92.037668 -99.855843 
L 90.500478 -98.459793 
L 88.963288 -97.392384 
L 87.426098 -96.610032 
L 85.888908 -95.989225 
L 84.351718 -95.412197 
L 82.814528 -94.793666 
L 81.277338 -94.076177 
L 79.740148 -93.222594 
L 78.202958 -92.211891 
L 76.665768 -91.037683 
L 75.128577 -89.708633 
L 73.591387 -88.25074 
L 72.054197 -86.712657 
L 70.517007 -85.176778 
L 68.979817 -83.778147 
L 67.442627 -82.712268 
L 65.905437 -82.15234 
L 64.368247 -82.082434 
L 62.831057 -82.317121 
L 61.293867 -82.663154 
L 59.756677 -82.979535 
L 58.219487 -83.16727 
L 56.682296 -83.154553 
L 55.145106 -82.889383 
L 53.607916 -82.33769 
L 52.070726 -81.485952 
L 50.533536 -80.351291 
L 48.996346 -79.013134 
L 47.459156 -77.717611 
L 45.921966 -77.118379 
z
" style="stroke: #ffffff; stroke-opacity: 0.2; stroke-width: 0.8"/>
    </defs>
    <g clip-path="url(#pde47695f3a)">
     <use xlink:href="#m45d1d54cf0" x="0" y="167.278875" style="fill: #1f77b4; fill-opacity: 0.2; stroke: #ffffff; stroke-opacity: 0.2; stroke-width: 0.8"/>
    </g>
   </g>
   <g id="PathCollection_1">
    <defs>
     <path id="m09a543e04b" d="M 0 2.4 
C 0.636487 2.4 1.246992 2.147121 1.697056 1.697056 
C 2.147121 1.246992 2.4 0.636487 2.4 0 
C 2.4 -0.636487 2.147121 -1.246992 1.697056 -1.697056 
C 1.246992 -2.147121 0.636487 -2.4 0 -2.4 
C -0.636487 -2.4 -1.246992 -2.147121 -1.697056 -1.697056 
C -2.147121 -1.246992 -2.4 -0.636487 -2.4 0 
C -2.4 0.636487 -2.147121 1.246992 -1.697056 1.697056 
C -1.246992 2.147121 -0.636487 2.4 0 2.4 
z
" style="stroke: #ff7f0e; stroke-width: 0.8"/>
    </defs>
    <g clip-path="url(#pde47695f3a)">
     <use xlink:href="#m09a543e04b" x="90.393377" y="72.584426" style="fill: #ff7f0e; stroke: #ff7f0e; stroke-width: 0.8"/>
     <use xlink:href="#m09a543e04b" x="197.974647" y="84.756626" style="fill: #ff7f0e; stroke: #ff7f0e; stroke-width: 0.8"/>
     <use xlink:href="#m09a543e04b" x="144.205343" y="97.762372" style="fill: #ff7f0e; stroke: #ff7f0e; stroke-width: 0.8"/>
     <use xlink:href="#m09a543e04b" x="45.949617" y="93.853156" style="fill: #ff7f0e; stroke: #ff7f0e; stroke-width: 0.8"/>
     <use xlink:href="#m09a543e04b" x="171.033959" y="72.964727" style="fill: #ff7f0e; stroke: #ff7f0e; stroke-width: 0.8"/>
     <use xlink:href="#m09a543e04b" x="116.302669" y="67.058179" style="fill: #ff7f0e; stroke: #ff7f0e; stroke-width: 0.8"/>
     <use xlink:href="#m09a543e04b" x="66.867399" y="88.506712" style="fill: #ff7f0e; stroke: #ff7f0e; stroke-width: 0.8"/>
     <use xlink:href="#m09a543e04b" x="185.424043" y="61.533342" style="fill: #ff7f0e; stroke: #ff7f0e; stroke-width: 0.8"/>
     <use xlink:href="#m09a543e04b" x="130.00851" y="82.465428" style="fill: #ff7f0e; stroke: #ff7f0e; stroke-width: 0.8"/>
    </g>
   </g>
   <g id="line2d_14">
    <path d="M 45.921966 93.850548 
L 47.459156 93.640595 
L 48.996346 93.408341 
L 50.533536 93.152715 
L 52.070726 92.872465 
L 53.607916 92.566118 
L 55.145106 92.231958 
L 56.682296 91.868 
L 58.219487 91.47199 
L 59.756677 91.041407 
L 61.293867 90.573497 
L 62.831057 90.065307 
L 64.368247 89.513764 
L 65.905437 88.915751 
L 67.442627 88.268222 
L 68.979817 87.568331 
L 70.517007 86.813574 
L 72.054197 86.001952 
L 73.591387 85.132143 
L 75.128577 84.203671 
L 76.665768 83.217083 
L 78.202958 82.174114 
L 79.740148 81.077831 
L 81.277338 79.932759 
L 82.814528 78.744977 
L 84.351718 77.522175 
L 85.888908 76.273667 
L 87.426098 75.010359 
L 88.963288 73.744667 
L 90.500478 72.490384 
L 92.037668 71.262495 
L 93.574858 70.076943 
L 95.112049 68.950357 
L 96.649239 67.899741 
L 98.186429 66.942133 
L 99.723619 66.094249 
L 101.260809 65.372119 
L 102.797999 64.790725 
L 104.335189 64.363655 
L 105.872379 64.102782 
L 107.409569 64.017974 
L 108.946759 64.116855 
L 110.483949 64.404602 
L 112.021139 64.883804 
L 113.55833 65.554365 
L 115.09552 66.413468 
L 116.63271 67.455577 
L 118.1699 68.67249 
L 119.70709 70.053421 
L 121.24428 71.58512 
L 122.78147 73.252004 
L 124.31866 75.03631 
L 125.85585 76.918252 
L 127.39304 78.876186 
L 128.93023 80.886771 
L 130.46742 82.925141 
L 132.004611 84.965082 
L 133.541801 86.979217 
L 135.078991 88.939217 
L 136.616181 90.816046 
L 138.153371 92.580239 
L 139.690561 94.20224 
L 141.227751 95.652797 
L 142.764941 96.903427 
L 144.302131 97.926944 
L 145.839321 98.698071 
L 147.376511 99.194091 
L 148.913701 99.395571 
L 150.450892 99.287091 
L 151.988082 98.858001 
L 153.525272 98.103138 
L 155.062462 97.02349 
L 156.599652 95.626769 
L 158.136842 93.927853 
L 159.674032 91.949059 
L 161.211222 89.720227 
L 162.748412 87.278572 
L 164.285602 84.668303 
L 165.822792 81.939984 
L 167.359982 79.149646 
L 168.897173 76.357661 
L 170.434363 73.627398 
L 171.971553 71.023699 
L 173.508743 68.611219 
L 175.045933 66.452678 
L 176.583123 64.607095 
L 178.120313 63.128055 
L 179.657503 62.062085 
L 181.194693 61.447194 
L 182.731883 61.311637 
L 184.269073 61.672961 
L 185.806263 62.537357 
L 187.343454 63.899365 
L 188.880644 65.741934 
L 190.417834 68.036838 
L 191.955024 70.74545 
L 193.492214 73.819817 
L 195.029404 77.204029 
L 196.566594 80.835805 
L 198.103784 84.648248 
" clip-path="url(#pde47695f3a)" style="fill: none; stroke: #1f77b4; stroke-width: 1.2; stroke-linecap: round"/>
   </g>
   <g id="line2d_15">
    <path d="M 45.921966 94.465162 
L 47.459156 92.903256 
L 48.996346 91.487975 
L 50.533536 90.256676 
L 52.070726 89.224414 
L 53.607916 88.392466 
L 55.145106 87.770612 
L 56.682296 87.343582 
L 58.219487 87.07395 
L 59.756677 86.952029 
L 61.293867 86.925933 
L 62.831057 86.955329 
L 64.368247 87.000356 
L 65.905437 87.023105 
L 67.442627 86.983957 
L 68.979817 86.830867 
L 70.517007 86.553705 
L 72.054197 86.11704 
L 73.591387 85.505761 
L 75.128577 84.711045 
L 76.665768 83.723629 
L 78.202958 82.564671 
L 79.740148 81.240776 
L 81.277338 79.773112 
L 82.814528 78.187033 
L 84.351718 76.515135 
L 85.888908 74.796375 
L 87.426098 73.059495 
L 88.963288 71.35544 
L 90.500478 69.71512 
L 92.037668 68.169458 
L 93.574858 66.761493 
L 95.112049 65.524459 
L 96.649239 64.476483 
L 98.186429 63.637226 
L 99.723619 63.015532 
L 101.260809 62.6284 
L 102.797999 62.466424 
L 104.335189 62.526657 
L 105.872379 62.802604 
L 107.409569 63.275866 
L 108.946759 63.936635 
L 110.483949 64.75437 
L 112.021139 65.721198 
L 113.55833 66.809741 
L 115.09552 68.019017 
L 116.63271 69.31853 
L 118.1699 70.707886 
L 119.70709 72.17671 
L 121.24428 73.733912 
L 122.78147 75.360759 
L 124.31866 77.075483 
L 125.85585 78.869085 
L 127.39304 80.747825 
L 128.93023 82.715854 
L 130.46742 84.771675 
L 132.004611 86.904016 
L 133.541801 89.099151 
L 135.078991 91.335023 
L 136.616181 93.596863 
L 138.153371 95.833099 
L 139.690561 98.012133 
L 141.227751 100.079551 
L 142.764941 101.986606 
L 144.302131 103.672405 
L 145.839321 105.091129 
L 147.376511 106.175156 
L 148.913701 106.877502 
L 150.450892 107.159683 
L 151.988082 106.981593 
L 153.525272 106.3269 
L 155.062462 105.177612 
L 156.599652 103.543509 
L 158.136842 101.448686 
L 159.674032 98.931712 
L 161.211222 96.038026 
L 162.748412 92.834994 
L 164.285602 89.400171 
L 165.822792 85.820388 
L 167.359982 82.190306 
L 168.897173 78.580057 
L 170.434363 75.098806 
L 171.971553 71.839156 
L 173.508743 68.869447 
L 175.045933 66.263958 
L 176.583123 64.081136 
L 178.120313 62.381417 
L 179.657503 61.184226 
L 181.194693 60.512925 
L 182.731883 60.385795 
L 184.269073 60.789115 
L 185.806263 61.71745 
L 187.343454 63.138139 
L 188.880644 65.053424 
L 190.417834 67.39951 
L 191.955024 70.159681 
L 193.492214 73.286628 
L 195.029404 76.754309 
L 196.566594 80.517407 
L 198.103784 84.538437 
" clip-path="url(#pde47695f3a)" style="fill: none; stroke: #d62728; stroke-opacity: 0.5; stroke-width: 0.5; stroke-linecap: round"/>
   </g>
   <g id="line2d_16">
    <path d="M 45.921966 95.321911 
L 47.459156 95.134629 
L 48.996346 94.824108 
L 50.533536 94.389546 
L 52.070726 93.850341 
L 53.607916 93.212831 
L 55.145106 92.491933 
L 56.682296 91.689226 
L 58.219487 90.82251 
L 59.756677 89.901542 
L 61.293867 88.932279 
L 62.831057 87.933409 
L 64.368247 86.898197 
L 65.905437 85.84624 
L 67.442627 84.773709 
L 68.979817 83.697948 
L 70.517007 82.613813 
L 72.054197 81.529871 
L 73.591387 80.443072 
L 75.128577 79.361383 
L 76.665768 78.282865 
L 78.202958 77.22087 
L 79.740148 76.168377 
L 81.277338 75.138179 
L 82.814528 74.124196 
L 84.351718 73.140894 
L 85.888908 72.190454 
L 87.426098 71.277595 
L 88.963288 70.419782 
L 90.500478 69.6112 
L 92.037668 68.86116 
L 93.574858 68.189058 
L 95.112049 67.587511 
L 96.649239 67.077539 
L 98.186429 66.657686 
L 99.723619 66.343497 
L 101.260809 66.133866 
L 102.797999 66.040536 
L 104.335189 66.065682 
L 105.872379 66.20459 
L 107.409569 66.477642 
L 108.946759 66.87258 
L 110.483949 67.394189 
L 112.021139 68.041869 
L 113.55833 68.805889 
L 115.09552 69.683036 
L 116.63271 70.675326 
L 118.1699 71.761636 
L 119.70709 72.946284 
L 121.24428 74.201944 
L 122.78147 75.530114 
L 124.31866 76.919656 
L 125.85585 78.36031 
L 127.39304 79.84242 
L 128.93023 81.361228 
L 130.46742 82.905074 
L 132.004611 84.469504 
L 133.541801 86.044467 
L 135.078991 87.614041 
L 136.616181 89.180754 
L 138.153371 90.72093 
L 139.690561 92.219612 
L 141.227751 93.660397 
L 142.764941 95.014643 
L 144.302131 96.258789 
L 145.839321 97.36512 
L 147.376511 98.30084 
L 148.913701 99.01827 
L 150.450892 99.498817 
L 151.988082 99.693045 
L 153.525272 99.57888 
L 155.062462 99.13532 
L 156.599652 98.322051 
L 158.136842 97.154005 
L 159.674032 95.600493 
L 161.211222 93.696041 
L 162.748412 91.453962 
L 164.285602 88.897843 
L 165.822792 86.087879 
L 167.359982 83.067074 
L 168.897173 79.909838 
L 170.434363 76.693416 
L 171.971553 73.495739 
L 173.508743 70.411342 
L 175.045933 67.514375 
L 176.583123 64.906974 
L 178.120313 62.669882 
L 179.657503 60.86928 
L 181.194693 59.59084 
L 182.731883 58.880117 
L 184.269073 58.783083 
L 185.806263 59.33223 
L 187.343454 60.53853 
L 188.880644 62.390974 
L 190.417834 64.873506 
L 191.955024 67.930392 
L 193.492214 71.526372 
L 195.029404 75.570216 
L 196.566594 79.987993 
L 198.103784 84.683868 
" clip-path="url(#pde47695f3a)" style="fill: none; stroke: #d62728; stroke-opacity: 0.5; stroke-width: 0.5; stroke-linecap: round"/>
   </g>
   <g id="line2d_17">
    <path d="M 45.921966 93.762177 
L 47.459156 92.445388 
L 48.996346 91.356952 
L 50.533536 90.480975 
L 52.070726 89.809465 
L 53.607916 89.333575 
L 55.145106 89.020858 
L 56.682296 88.856419 
L 58.219487 88.803854 
L 59.756677 88.826421 
L 61.293867 88.903065 
L 62.831057 88.974934 
L 64.368247 89.026458 
L 65.905437 89.012525 
L 67.442627 88.897741 
L 68.979817 88.659499 
L 70.517007 88.280168 
L 72.054197 87.732477 
L 73.591387 87.006695 
L 75.128577 86.09784 
L 76.665768 85.013082 
L 78.202958 83.76568 
L 79.740148 82.365519 
L 81.277338 80.831879 
L 82.814528 79.200384 
L 84.351718 77.503257 
L 85.888908 75.773043 
L 87.426098 74.028333 
L 88.963288 72.324508 
L 90.500478 70.692614 
L 92.037668 69.157579 
L 93.574858 67.759058 
L 95.112049 66.51294 
L 96.649239 65.434615 
L 98.186429 64.559537 
L 99.723619 63.870881 
L 101.260809 63.38759 
L 102.797999 63.104578 
L 104.335189 63.018989 
L 105.872379 63.127769 
L 107.409569 63.42208 
L 108.946759 63.8735 
L 110.483949 64.490035 
L 112.021139 65.242712 
L 113.55833 66.122267 
L 115.09552 67.113669 
L 116.63271 68.218662 
L 118.1699 69.406829 
L 119.70709 70.688438 
L 121.24428 72.049411 
L 122.78147 73.48286 
L 124.31866 74.982051 
L 125.85585 76.546694 
L 127.39304 78.155536 
L 128.93023 79.81461 
L 130.46742 81.502247 
L 132.004611 83.211886 
L 133.541801 84.919222 
L 135.078991 86.602381 
L 136.616181 88.244235 
L 138.153371 89.81964 
L 139.690561 91.306821 
L 141.227751 92.668615 
L 142.764941 93.890237 
L 144.302131 94.923641 
L 145.839321 95.766735 
L 147.376511 96.383511 
L 148.913701 96.753357 
L 150.450892 96.860084 
L 151.988082 96.69519 
L 153.525272 96.239467 
L 155.062462 95.497042 
L 156.599652 94.464701 
L 158.136842 93.154077 
L 159.674032 91.571005 
L 161.211222 89.726543 
L 162.748412 87.657255 
L 164.285602 85.377645 
L 165.822792 82.933414 
L 167.359982 80.360094 
L 168.897173 77.702207 
L 170.434363 75.01683 
L 171.971553 72.358312 
L 173.508743 69.779277 
L 175.045933 67.362317 
L 176.583123 65.143841 
L 178.120313 63.211157 
L 179.657503 61.624983 
L 181.194693 60.440984 
L 182.731883 59.71168 
L 184.269073 59.478871 
L 185.806263 59.784482 
L 187.343454 60.637003 
L 188.880644 62.052333 
L 190.417834 64.002111 
L 191.955024 66.471959 
L 193.492214 69.409759 
L 195.029404 72.755317 
L 196.566594 76.422667 
L 198.103784 80.323984 
" clip-path="url(#pde47695f3a)" style="fill: none; stroke: #d62728; stroke-opacity: 0.5; stroke-width: 0.5; stroke-linecap: round"/>
   </g>
   <g id="line2d_18">
    <path d="M 45.921966 93.270969 
L 47.459156 94.168235 
L 48.996346 94.763958 
L 50.533536 95.061563 
L 52.070726 95.08173 
L 53.607916 94.84554 
L 55.145106 94.400543 
L 56.682296 93.770262 
L 58.219487 93.012982 
L 59.756677 92.153053 
L 61.293867 91.223705 
L 62.831057 90.269588 
L 64.368247 89.301602 
L 65.905437 88.344343 
L 67.442627 87.401692 
L 68.979817 86.480222 
L 70.517007 85.568653 
L 72.054197 84.673729 
L 73.591387 83.773268 
L 75.128577 82.862258 
L 76.665768 81.919868 
L 78.202958 80.945186 
L 79.740148 79.935219 
L 81.277338 78.882875 
L 82.814528 77.798229 
L 84.351718 76.69106 
L 85.888908 75.568906 
L 87.426098 74.457427 
L 88.963288 73.37086 
L 90.500478 72.342974 
L 92.037668 71.374616 
L 93.574858 70.508236 
L 95.112049 69.743631 
L 96.649239 69.1055 
L 98.186429 68.589998 
L 99.723619 68.207264 
L 101.260809 67.944651 
L 102.797999 67.815144 
L 104.335189 67.789661 
L 105.872379 67.862438 
L 107.409569 68.022062 
L 108.946759 68.261784 
L 110.483949 68.569094 
L 112.021139 68.942784 
L 113.55833 69.384068 
L 115.09552 69.897515 
L 116.63271 70.492343 
L 118.1699 71.199709 
L 119.70709 72.009906 
L 121.24428 72.956304 
L 122.78147 74.061816 
L 124.31866 75.331477 
L 125.85585 76.775306 
L 127.39304 78.400649 
L 128.93023 80.200374 
L 130.46742 82.163202 
L 132.004611 84.250828 
L 133.541801 86.446608 
L 135.078991 88.694908 
L 136.616181 90.945885 
L 138.153371 93.15421 
L 139.690561 95.240657 
L 141.227751 97.160525 
L 142.764941 98.837495 
L 144.302131 100.219789 
L 145.839321 101.264948 
L 147.376511 101.921512 
L 148.913701 102.160583 
L 150.450892 101.950055 
L 151.988082 101.28843 
L 153.525272 100.181063 
L 155.062462 98.646351 
L 156.599652 96.696568 
L 158.136842 94.397527 
L 159.674032 91.775887 
L 161.211222 88.89833 
L 162.748412 85.842067 
L 164.285602 82.671939 
L 165.822792 79.458878 
L 167.359982 76.290792 
L 168.897173 73.236533 
L 170.434363 70.369983 
L 171.971553 67.773007 
L 173.508743 65.486183 
L 175.045933 63.579857 
L 176.583123 62.089375 
L 178.120313 61.047597 
L 179.657503 60.490573 
L 181.194693 60.40039 
L 182.731883 60.795191 
L 184.269073 61.665527 
L 185.806263 62.96657 
L 187.343454 64.688946 
L 188.880644 66.774595 
L 190.417834 69.181606 
L 191.955024 71.867179 
L 193.492214 74.764934 
L 195.029404 77.834936 
L 196.566594 81.015051 
L 198.103784 84.260073 
" clip-path="url(#pde47695f3a)" style="fill: none; stroke: #d62728; stroke-opacity: 0.5; stroke-width: 0.5; stroke-linecap: round"/>
   </g>
   <g id="line2d_19">
    <path d="M 45.921966 92.071054 
L 47.459156 89.578327 
L 48.996346 87.349282 
L 50.533536 85.424196 
L 52.070726 83.842313 
L 53.607916 82.631451 
L 55.145106 81.810264 
L 56.682296 81.36456 
L 58.219487 81.278325 
L 59.756677 81.524789 
L 61.293867 82.052279 
L 62.831057 82.79697 
L 64.368247 83.693973 
L 65.905437 84.673044 
L 67.442627 85.648514 
L 68.979817 86.560417 
L 70.517007 87.319852 
L 72.054197 87.880579 
L 73.591387 88.190385 
L 75.128577 88.210941 
L 76.665768 87.90877 
L 78.202958 87.292898 
L 79.740148 86.368643 
L 81.277338 85.154297 
L 82.814528 83.690348 
L 84.351718 82.019327 
L 85.888908 80.203023 
L 87.426098 78.288499 
L 88.963288 76.345743 
L 90.500478 74.427351 
L 92.037668 72.586063 
L 93.574858 70.874584 
L 95.112049 69.323759 
L 96.649239 67.973058 
L 98.186429 66.833648 
L 99.723619 65.926062 
L 101.260809 65.242159 
L 102.797999 64.789349 
L 104.335189 64.543337 
L 105.872379 64.513545 
L 107.409569 64.668062 
L 108.946759 64.997192 
L 110.483949 65.497989 
L 112.021139 66.149806 
L 113.55833 66.949455 
L 115.09552 67.888439 
L 116.63271 68.953587 
L 118.1699 70.165616 
L 119.70709 71.504325 
L 121.24428 72.973953 
L 122.78147 74.573045 
L 124.31866 76.283674 
L 125.85585 78.099785 
L 127.39304 80.010277 
L 128.93023 81.989754 
L 130.46742 84.014024 
L 132.004611 86.051371 
L 133.541801 88.06645 
L 135.078991 90.033993 
L 136.616181 91.891912 
L 138.153371 93.623102 
L 139.690561 95.181017 
L 141.227751 96.524436 
L 142.764941 97.616306 
L 144.302131 98.439582 
L 145.839321 98.954309 
L 147.376511 99.154997 
L 148.913701 99.019874 
L 150.450892 98.542763 
L 151.988082 97.735278 
L 153.525272 96.583991 
L 155.062462 95.125081 
L 156.599652 93.379626 
L 158.136842 91.362324 
L 159.674032 89.113775 
L 161.211222 86.668845 
L 162.748412 84.076224 
L 164.285602 81.380038 
L 165.822792 78.629311 
L 167.359982 75.876187 
L 168.897173 73.178189 
L 170.434363 70.594254 
L 171.971553 68.173048 
L 173.508743 65.9783 
L 175.045933 64.060701 
L 176.583123 62.46141 
L 178.120313 61.242632 
L 179.657503 60.439757 
L 181.194693 60.084044 
L 182.731883 60.204806 
L 184.269073 60.833338 
L 185.806263 61.95719 
L 187.343454 63.611228 
L 188.880644 65.763596 
L 190.417834 68.404211 
L 191.955024 71.50815 
L 193.492214 75.049061 
L 195.029404 78.968229 
L 196.566594 83.210993 
L 198.103784 87.740205 
" clip-path="url(#pde47695f3a)" style="fill: none; stroke: #d62728; stroke-opacity: 0.5; stroke-width: 0.5; stroke-linecap: round"/>
   </g>
   <g id="line2d_20">
    <path d="M 55.401112 130.9515 
L 55.401112 20.0715 
" clip-path="url(#pde47695f3a)" style="fill: none; stroke-dasharray: 4.44,1.92; stroke-dashoffset: 0; stroke: #ff0000; stroke-width: 1.2"/>
   </g>
   <g id="patch_3">
    <path d="M 38.312875 130.9515 
L 38.312875 20.0715 
" style="fill: none; stroke: #262626; stroke-linejoin: miter; stroke-linecap: square"/>
   </g>
   <g id="patch_4">
    <path d="M 45.921966 130.9515 
L 198.103784 130.9515 
" style="fill: none; stroke: #262626; stroke-linejoin: miter; stroke-linecap: square"/>
   </g>
   <g id="text_16">
    <!-- $N=9$ -->
    <g style="fill: #262626" transform="translate(109.436875 14.0715) scale(0.096 -0.096)">
     <defs>
      <path id="DejaVuSans-Oblique-4e" d="M 1081 4666 
L 1931 4666 
L 3219 666 
L 4000 4666 
L 4616 4666 
L 3706 0 
L 2853 0 
L 1569 4025 
L 788 0 
L 172 0 
L 1081 4666 
z
" transform="scale(0.015625)"/>
      <path id="DejaVuSans-3d" d="M 678 2906 
L 4684 2906 
L 4684 2381 
L 678 2381 
L 678 2906 
z
M 678 1631 
L 4684 1631 
L 4684 1100 
L 678 1100 
L 678 1631 
z
" transform="scale(0.015625)"/>
      <path id="DejaVuSans-39" d="M 703 97 
L 703 672 
Q 941 559 1184 500 
Q 1428 441 1663 441 
Q 2288 441 2617 861 
Q 2947 1281 2994 2138 
Q 2813 1869 2534 1725 
Q 2256 1581 1919 1581 
Q 1219 1581 811 2004 
Q 403 2428 403 3163 
Q 403 3881 828 4315 
Q 1253 4750 1959 4750 
Q 2769 4750 3195 4129 
Q 3622 3509 3622 2328 
Q 3622 1225 3098 567 
Q 2575 -91 1691 -91 
Q 1453 -91 1209 -44 
Q 966 3 703 97 
z
M 1959 2075 
Q 2384 2075 2632 2365 
Q 2881 2656 2881 3163 
Q 2881 3666 2632 3958 
Q 2384 4250 1959 4250 
Q 1534 4250 1286 3958 
Q 1038 3666 1038 3163 
Q 1038 2656 1286 2365 
Q 1534 2075 1959 2075 
z
" transform="scale(0.015625)"/>
     </defs>
     <use xlink:href="#DejaVuSans-Oblique-4e" transform="translate(0 0.78125)"/>
     <use xlink:href="#DejaVuSans-3d" transform="translate(94.287109 0.78125)"/>
     <use xlink:href="#DejaVuSans-39" transform="translate(197.558594 0.78125)"/>
    </g>
   </g>
  </g>
 </g>
 <defs>
  <clipPath id="pde47695f3a">
   <rect x="38.312875" y="20.0715" width="167.4" height="110.88"/>
  </clipPath>
 </defs>
</svg>