<?xml version="1.0" encoding="utf-8" standalone="no"?>
<!DOCTYPE svg PUBLIC "-//W3C//DTD SVG 1.1//EN"
  "http://www.w3.org/Graphics/SVG/1.1/DTD/svg11.dtd">
<svg xmlns:xlink="http://www.w3.org/1999/xlink" width="409.725125pt" height="322.510875pt" viewBox="0 0 409.725125 322.510875" xmlns="http://www.w3.org/2000/svg" version="1.1">
 <metadata>
  <rdf:RDF xmlns:dc="http://purl.org/dc/elements/1.1/" xmlns:cc="http://creativecommons.org/ns#" xmlns:rdf="http://www.w3.org/1999/02/22-rdf-syntax-ns#">
   <cc:Work>
    <dc:type rdf:resource="http://purl.org/dc/dcmitype/StillImage"/>
    <dc:date>2024-09-27T20:17:28.314334</dc:date>
    <dc:format>image/svg+xml</dc:format>
    <dc:creator>
     <cc:Agent>
      <dc:title>Matplotlib v3.9.0, https://matplotlib.org/</dc:title>
     </cc:Agent>
    </dc:creator>
   </cc:Work>
  </rdf:RDF>
 </metadata>
 <defs>
  <style type="text/css">*{stroke-linejoin: round; stroke-linecap: butt}</style>
 </defs>
 <g id="figure_1">
  <g id="patch_1">
   <path d="M 0 322.510875 
L 409.725125 322.510875 
L 409.725125 0 
L 0 0 
z
" style="fill: #ffffff"/>
  </g>
  <g id="axes_1">
   <g id="patch_2">
    <path d="M 45.405125 286.1835 
L 402.525125 286.1835 
L 402.525125 20.0715 
L 45.405125 20.0715 
z
" style="fill: #ffffff"/>
   </g>
   <g id="matplotlib.axis_1">
    <g id="xtick_1">
     <g id="line2d_1">
      <defs>
       <path id="m16a84020c8" d="M 0 0 
L 0 4.8 
" style="stroke: #262626"/>
      </defs>
      <g>
       <use xlink:href="#m16a84020c8" x="61.312547" y="286.1835" style="fill: #262626; stroke: #262626"/>
      </g>
     </g>
     <g id="text_1">
      <!-- 0 -->
      <g style="fill: #262626" transform="translate(58.865735 300.782375) scale(0.088 -0.088)">
       <defs>
        <path id="ArialMT-30" d="M 266 2259 
Q 266 3072 433 3567 
Q 600 4063 929 4331 
Q 1259 4600 1759 4600 
Q 2128 4600 2406 4451 
Q 2684 4303 2865 4023 
Q 3047 3744 3150 3342 
Q 3253 2941 3253 2259 
Q 3253 1453 3087 958 
Q 2922 463 2592 192 
Q 2263 -78 1759 -78 
Q 1097 -78 719 397 
Q 266 969 266 2259 
z
M 844 2259 
Q 844 1131 1108 757 
Q 1372 384 1759 384 
Q 2147 384 2411 759 
Q 2675 1134 2675 2259 
Q 2675 3391 2411 3762 
Q 2147 4134 1753 4134 
Q 1366 4134 1134 3806 
Q 844 3388 844 2259 
z
" transform="scale(0.015625)"/>
       </defs>
       <use xlink:href="#ArialMT-30"/>
      </g>
     </g>
    </g>
    <g id="xtick_2">
     <g id="line2d_2">
      <g>
       <use xlink:href="#m16a84020c8" x="126.308517" y="286.1835" style="fill: #262626; stroke: #262626"/>
      </g>
     </g>
     <g id="text_2">
      <!-- 10 -->
      <g style="fill: #262626" transform="translate(121.414892 300.782375) scale(0.088 -0.088)">
       <defs>
        <path id="ArialMT-31" d="M 2384 0 
L 1822 0 
L 1822 3584 
Q 1619 3391 1289 3197 
Q 959 3003 697 2906 
L 697 3450 
Q 1169 3672 1522 3987 
Q 1875 4303 2022 4600 
L 2384 4600 
L 2384 0 
z
" transform="scale(0.015625)"/>
       </defs>
       <use xlink:href="#ArialMT-31"/>
       <use xlink:href="#ArialMT-30" x="55.615234"/>
      </g>
     </g>
    </g>
    <g id="xtick_3">
     <g id="line2d_3">
      <g>
       <use xlink:href="#m16a84020c8" x="191.304487" y="286.1835" style="fill: #262626; stroke: #262626"/>
      </g>
     </g>
     <g id="text_3">
      <!-- 20 -->
      <g style="fill: #262626" transform="translate(186.410862 300.782375) scale(0.088 -0.088)">
       <defs>
        <path id="ArialMT-32" d="M 3222 541 
L 3222 0 
L 194 0 
Q 188 203 259 391 
Q 375 700 629 1000 
Q 884 1300 1366 1694 
Q 2113 2306 2375 2664 
Q 2638 3022 2638 3341 
Q 2638 3675 2398 3904 
Q 2159 4134 1775 4134 
Q 1369 4134 1125 3890 
Q 881 3647 878 3216 
L 300 3275 
Q 359 3922 746 4261 
Q 1134 4600 1788 4600 
Q 2447 4600 2831 4234 
Q 3216 3869 3216 3328 
Q 3216 3053 3103 2787 
Q 2991 2522 2730 2228 
Q 2469 1934 1863 1422 
Q 1356 997 1212 845 
Q 1069 694 975 541 
L 3222 541 
z
" transform="scale(0.015625)"/>
       </defs>
       <use xlink:href="#ArialMT-32"/>
       <use xlink:href="#ArialMT-30" x="55.615234"/>
      </g>
     </g>
    </g>
    <g id="xtick_4">
     <g id="line2d_4">
      <g>
       <use xlink:href="#m16a84020c8" x="256.300457" y="286.1835" style="fill: #262626; stroke: #262626"/>
      </g>
     </g>
     <g id="text_4">
      <!-- 30 -->
      <g style="fill: #262626" transform="translate(251.406832 300.782375) scale(0.088 -0.088)">
       <defs>
        <path id="ArialMT-33" d="M 269 1209 
L 831 1284 
Q 928 806 1161 595 
Q 1394 384 1728 384 
Q 2125 384 2398 659 
Q 2672 934 2672 1341 
Q 2672 1728 2419 1979 
Q 2166 2231 1775 2231 
Q 1616 2231 1378 2169 
L 1441 2663 
Q 1497 2656 1531 2656 
Q 1891 2656 2178 2843 
Q 2466 3031 2466 3422 
Q 2466 3731 2256 3934 
Q 2047 4138 1716 4138 
Q 1388 4138 1169 3931 
Q 950 3725 888 3313 
L 325 3413 
Q 428 3978 793 4289 
Q 1159 4600 1703 4600 
Q 2078 4600 2393 4439 
Q 2709 4278 2876 4000 
Q 3044 3722 3044 3409 
Q 3044 3113 2884 2869 
Q 2725 2625 2413 2481 
Q 2819 2388 3044 2092 
Q 3269 1797 3269 1353 
Q 3269 753 2831 336 
Q 2394 -81 1725 -81 
Q 1122 -81 723 278 
Q 325 638 269 1209 
z
" transform="scale(0.015625)"/>
       </defs>
       <use xlink:href="#ArialMT-33"/>
       <use xlink:href="#ArialMT-30" x="55.615234"/>
      </g>
     </g>
    </g>
    <g id="xtick_5">
     <g id="line2d_5">
      <g>
       <use xlink:href="#m16a84020c8" x="321.296428" y="286.1835" style="fill: #262626; stroke: #262626"/>
      </g>
     </g>
     <g id="text_5">
      <!-- 40 -->
      <g style="fill: #262626" transform="translate(316.402803 300.782375) scale(0.088 -0.088)">
       <defs>
        <path id="ArialMT-34" d="M 2069 0 
L 2069 1097 
L 81 1097 
L 81 1613 
L 2172 4581 
L 2631 4581 
L 2631 1613 
L 3250 1613 
L 3250 1097 
L 2631 1097 
L 2631 0 
L 2069 0 
z
M 2069 1613 
L 2069 3678 
L 634 1613 
L 2069 1613 
z
" transform="scale(0.015625)"/>
       </defs>
       <use xlink:href="#ArialMT-34"/>
       <use xlink:href="#ArialMT-30" x="55.615234"/>
      </g>
     </g>
    </g>
    <g id="xtick_6">
     <g id="line2d_6">
      <g>
       <use xlink:href="#m16a84020c8" x="386.292398" y="286.1835" style="fill: #262626; stroke: #262626"/>
      </g>
     </g>
     <g id="text_6">
      <!-- 50 -->
      <g style="fill: #262626" transform="translate(381.398773 300.782375) scale(0.088 -0.088)">
       <defs>
        <path id="ArialMT-35" d="M 266 1200 
L 856 1250 
Q 922 819 1161 601 
Q 1400 384 1738 384 
Q 2144 384 2425 690 
Q 2706 997 2706 1503 
Q 2706 1984 2436 2262 
Q 2166 2541 1728 2541 
Q 1456 2541 1237 2417 
Q 1019 2294 894 2097 
L 366 2166 
L 809 4519 
L 3088 4519 
L 3088 3981 
L 1259 3981 
L 1013 2750 
Q 1425 3038 1878 3038 
Q 2478 3038 2890 2622 
Q 3303 2206 3303 1553 
Q 3303 931 2941 478 
Q 2500 -78 1738 -78 
Q 1113 -78 717 272 
Q 322 622 266 1200 
z
" transform="scale(0.015625)"/>
       </defs>
       <use xlink:href="#ArialMT-35"/>
       <use xlink:href="#ArialMT-30" x="55.615234"/>
      </g>
     </g>
    </g>
    <g id="text_7">
     <!-- t -->
     <g style="fill: #262626" transform="translate(222.631625 313.402875) scale(0.096 -0.096)">
      <defs>
       <path id="ArialMT-74" d="M 1650 503 
L 1731 6 
Q 1494 -44 1306 -44 
Q 1000 -44 831 53 
Q 663 150 594 308 
Q 525 466 525 972 
L 525 2881 
L 113 2881 
L 113 3319 
L 525 3319 
L 525 4141 
L 1084 4478 
L 1084 3319 
L 1650 3319 
L 1650 2881 
L 1084 2881 
L 1084 941 
Q 1084 700 1114 631 
Q 1144 563 1211 522 
Q 1278 481 1403 481 
Q 1497 481 1650 503 
z
" transform="scale(0.015625)"/>
      </defs>
      <use xlink:href="#ArialMT-74"/>
     </g>
    </g>
   </g>
   <g id="matplotlib.axis_2">
    <g id="ytick_1">
     <g id="line2d_7">
      <defs>
       <path id="m194173fd8a" d="M 0 0 
L -4.8 0 
" style="stroke: #262626"/>
      </defs>
      <g>
       <use xlink:href="#m194173fd8a" x="45.405125" y="285.903489" style="fill: #262626; stroke: #262626"/>
      </g>
     </g>
     <g id="text_8">
      <!-- 0.93 -->
      <g style="fill: #262626" transform="translate(19.9795 289.052926) scale(0.088 -0.088)">
       <defs>
        <path id="ArialMT-2e" d="M 581 0 
L 581 641 
L 1222 641 
L 1222 0 
L 581 0 
z
" transform="scale(0.015625)"/>
        <path id="ArialMT-39" d="M 350 1059 
L 891 1109 
Q 959 728 1153 556 
Q 1347 384 1650 384 
Q 1909 384 2104 503 
Q 2300 622 2425 820 
Q 2550 1019 2634 1356 
Q 2719 1694 2719 2044 
Q 2719 2081 2716 2156 
Q 2547 1888 2255 1720 
Q 1963 1553 1622 1553 
Q 1053 1553 659 1965 
Q 266 2378 266 3053 
Q 266 3750 677 4175 
Q 1088 4600 1706 4600 
Q 2153 4600 2523 4359 
Q 2894 4119 3086 3673 
Q 3278 3228 3278 2384 
Q 3278 1506 3087 986 
Q 2897 466 2520 194 
Q 2144 -78 1638 -78 
Q 1100 -78 759 220 
Q 419 519 350 1059 
z
M 2653 3081 
Q 2653 3566 2395 3850 
Q 2138 4134 1775 4134 
Q 1400 4134 1122 3828 
Q 844 3522 844 3034 
Q 844 2597 1108 2323 
Q 1372 2050 1759 2050 
Q 2150 2050 2401 2323 
Q 2653 2597 2653 3081 
z
" transform="scale(0.015625)"/>
       </defs>
       <use xlink:href="#ArialMT-30"/>
       <use xlink:href="#ArialMT-2e" x="55.615234"/>
       <use xlink:href="#ArialMT-39" x="83.398438"/>
       <use xlink:href="#ArialMT-33" x="139.013672"/>
      </g>
     </g>
    </g>
    <g id="ytick_2">
     <g id="line2d_8">
      <g>
       <use xlink:href="#m194173fd8a" x="45.405125" y="256.253437" style="fill: #262626; stroke: #262626"/>
      </g>
     </g>
     <g id="text_9">
      <!-- 0.94 -->
      <g style="fill: #262626" transform="translate(19.9795 259.402875) scale(0.088 -0.088)">
       <use xlink:href="#ArialMT-30"/>
       <use xlink:href="#ArialMT-2e" x="55.615234"/>
       <use xlink:href="#ArialMT-39" x="83.398438"/>
       <use xlink:href="#ArialMT-34" x="139.013672"/>
      </g>
     </g>
    </g>
    <g id="ytick_3">
     <g id="line2d_9">
      <g>
       <use xlink:href="#m194173fd8a" x="45.405125" y="226.603385" style="fill: #262626; stroke: #262626"/>
      </g>
     </g>
     <g id="text_10">
      <!-- 0.95 -->
      <g style="fill: #262626" transform="translate(19.9795 229.752823) scale(0.088 -0.088)">
       <use xlink:href="#ArialMT-30"/>
       <use xlink:href="#ArialMT-2e" x="55.615234"/>
       <use xlink:href="#ArialMT-39" x="83.398438"/>
       <use xlink:href="#ArialMT-35" x="139.013672"/>
      </g>
     </g>
    </g>
    <g id="ytick_4">
     <g id="line2d_10">
      <g>
       <use xlink:href="#m194173fd8a" x="45.405125" y="196.953334" style="fill: #262626; stroke: #262626"/>
      </g>
     </g>
     <g id="text_11">
      <!-- 0.96 -->
      <g style="fill: #262626" transform="translate(19.9795 200.102771) scale(0.088 -0.088)">
       <defs>
        <path id="ArialMT-36" d="M 3184 3459 
L 2625 3416 
Q 2550 3747 2413 3897 
Q 2184 4138 1850 4138 
Q 1581 4138 1378 3988 
Q 1113 3794 959 3422 
Q 806 3050 800 2363 
Q 1003 2672 1297 2822 
Q 1591 2972 1913 2972 
Q 2475 2972 2870 2558 
Q 3266 2144 3266 1488 
Q 3266 1056 3080 686 
Q 2894 316 2569 119 
Q 2244 -78 1831 -78 
Q 1128 -78 684 439 
Q 241 956 241 2144 
Q 241 3472 731 4075 
Q 1159 4600 1884 4600 
Q 2425 4600 2770 4297 
Q 3116 3994 3184 3459 
z
M 888 1484 
Q 888 1194 1011 928 
Q 1134 663 1356 523 
Q 1578 384 1822 384 
Q 2178 384 2434 671 
Q 2691 959 2691 1453 
Q 2691 1928 2437 2201 
Q 2184 2475 1800 2475 
Q 1419 2475 1153 2201 
Q 888 1928 888 1484 
z
" transform="scale(0.015625)"/>
       </defs>
       <use xlink:href="#ArialMT-30"/>
       <use xlink:href="#ArialMT-2e" x="55.615234"/>
       <use xlink:href="#ArialMT-39" x="83.398438"/>
       <use xlink:href="#ArialMT-36" x="139.013672"/>
      </g>
     </g>
    </g>
    <g id="ytick_5">
     <g id="line2d_11">
      <g>
       <use xlink:href="#m194173fd8a" x="45.405125" y="167.303282" style="fill: #262626; stroke: #262626"/>
      </g>
     </g>
     <g id="text_12">
      <!-- 0.97 -->
      <g style="fill: #262626" transform="translate(19.9795 170.452719) scale(0.088 -0.088)">
       <defs>
        <path id="ArialMT-37" d="M 303 3981 
L 303 4522 
L 3269 4522 
L 3269 4084 
Q 2831 3619 2401 2847 
Q 1972 2075 1738 1259 
Q 1569 684 1522 0 
L 944 0 
Q 953 541 1156 1306 
Q 1359 2072 1739 2783 
Q 2119 3494 2547 3981 
L 303 3981 
z
" transform="scale(0.015625)"/>
       </defs>
       <use xlink:href="#ArialMT-30"/>
       <use xlink:href="#ArialMT-2e" x="55.615234"/>
       <use xlink:href="#ArialMT-39" x="83.398438"/>
       <use xlink:href="#ArialMT-37" x="139.013672"/>
      </g>
     </g>
    </g>
    <g id="ytick_6">
     <g id="line2d_12">
      <g>
       <use xlink:href="#m194173fd8a" x="45.405125" y="137.65323" style="fill: #262626; stroke: #262626"/>
      </g>
     </g>
     <g id="text_13">
      <!-- 0.98 -->
      <g style="fill: #262626" transform="translate(19.9795 140.802667) scale(0.088 -0.088)">
       <defs>
        <path id="ArialMT-38" d="M 1131 2484 
Q 781 2613 612 2850 
Q 444 3088 444 3419 
Q 444 3919 803 4259 
Q 1163 4600 1759 4600 
Q 2359 4600 2725 4251 
Q 3091 3903 3091 3403 
Q 3091 3084 2923 2848 
Q 2756 2613 2416 2484 
Q 2838 2347 3058 2040 
Q 3278 1734 3278 1309 
Q 3278 722 2862 322 
Q 2447 -78 1769 -78 
Q 1091 -78 675 323 
Q 259 725 259 1325 
Q 259 1772 486 2073 
Q 713 2375 1131 2484 
z
M 1019 3438 
Q 1019 3113 1228 2906 
Q 1438 2700 1772 2700 
Q 2097 2700 2305 2904 
Q 2513 3109 2513 3406 
Q 2513 3716 2298 3927 
Q 2084 4138 1766 4138 
Q 1444 4138 1231 3931 
Q 1019 3725 1019 3438 
z
M 838 1322 
Q 838 1081 952 856 
Q 1066 631 1291 507 
Q 1516 384 1775 384 
Q 2178 384 2440 643 
Q 2703 903 2703 1303 
Q 2703 1709 2433 1975 
Q 2163 2241 1756 2241 
Q 1359 2241 1098 1978 
Q 838 1716 838 1322 
z
" transform="scale(0.015625)"/>
       </defs>
       <use xlink:href="#ArialMT-30"/>
       <use xlink:href="#ArialMT-2e" x="55.615234"/>
       <use xlink:href="#ArialMT-39" x="83.398438"/>
       <use xlink:href="#ArialMT-38" x="139.013672"/>
      </g>
     </g>
    </g>
    <g id="ytick_7">
     <g id="line2d_13">
      <g>
       <use xlink:href="#m194173fd8a" x="45.405125" y="108.003178" style="fill: #262626; stroke: #262626"/>
      </g>
     </g>
     <g id="text_14">
      <!-- 0.99 -->
      <g style="fill: #262626" transform="translate(19.9795 111.152616) scale(0.088 -0.088)">
       <use xlink:href="#ArialMT-30"/>
       <use xlink:href="#ArialMT-2e" x="55.615234"/>
       <use xlink:href="#ArialMT-39" x="83.398438"/>
       <use xlink:href="#ArialMT-39" x="139.013672"/>
      </g>
     </g>
    </g>
    <g id="ytick_8">
     <g id="line2d_14">
      <g>
       <use xlink:href="#m194173fd8a" x="45.405125" y="78.353126" style="fill: #262626; stroke: #262626"/>
      </g>
     </g>
     <g id="text_15">
      <!-- 1.00 -->
      <g style="fill: #262626" transform="translate(19.9795 81.502564) scale(0.088 -0.088)">
       <use xlink:href="#ArialMT-31"/>
       <use xlink:href="#ArialMT-2e" x="55.615234"/>
       <use xlink:href="#ArialMT-30" x="83.398438"/>
       <use xlink:href="#ArialMT-30" x="139.013672"/>
      </g>
     </g>
    </g>
    <g id="ytick_9">
     <g id="line2d_15">
      <g>
       <use xlink:href="#m194173fd8a" x="45.405125" y="48.703075" style="fill: #262626; stroke: #262626"/>
      </g>
     </g>
     <g id="text_16">
      <!-- 1.01 -->
      <g style="fill: #262626" transform="translate(19.9795 51.852512) scale(0.088 -0.088)">
       <use xlink:href="#ArialMT-31"/>
       <use xlink:href="#ArialMT-2e" x="55.615234"/>
       <use xlink:href="#ArialMT-30" x="83.398438"/>
       <use xlink:href="#ArialMT-31" x="139.013672"/>
      </g>
     </g>
    </g>
    <g id="text_17">
     <!-- Sum of First Order Indices -->
     <g style="fill: #262626" transform="translate(14.0715 209.13975) rotate(-90) scale(0.096 -0.096)">
      <defs>
       <path id="ArialMT-53" d="M 288 1472 
L 859 1522 
Q 900 1178 1048 958 
Q 1197 738 1509 602 
Q 1822 466 2213 466 
Q 2559 466 2825 569 
Q 3091 672 3220 851 
Q 3350 1031 3350 1244 
Q 3350 1459 3225 1620 
Q 3100 1781 2813 1891 
Q 2628 1963 1997 2114 
Q 1366 2266 1113 2400 
Q 784 2572 623 2826 
Q 463 3081 463 3397 
Q 463 3744 659 4045 
Q 856 4347 1234 4503 
Q 1613 4659 2075 4659 
Q 2584 4659 2973 4495 
Q 3363 4331 3572 4012 
Q 3781 3694 3797 3291 
L 3216 3247 
Q 3169 3681 2898 3903 
Q 2628 4125 2100 4125 
Q 1550 4125 1298 3923 
Q 1047 3722 1047 3438 
Q 1047 3191 1225 3031 
Q 1400 2872 2139 2705 
Q 2878 2538 3153 2413 
Q 3553 2228 3743 1945 
Q 3934 1663 3934 1294 
Q 3934 928 3725 604 
Q 3516 281 3123 101 
Q 2731 -78 2241 -78 
Q 1619 -78 1198 103 
Q 778 284 539 648 
Q 300 1013 288 1472 
z
" transform="scale(0.015625)"/>
       <path id="ArialMT-75" d="M 2597 0 
L 2597 488 
Q 2209 -75 1544 -75 
Q 1250 -75 995 37 
Q 741 150 617 320 
Q 494 491 444 738 
Q 409 903 409 1263 
L 409 3319 
L 972 3319 
L 972 1478 
Q 972 1038 1006 884 
Q 1059 663 1231 536 
Q 1403 409 1656 409 
Q 1909 409 2131 539 
Q 2353 669 2445 892 
Q 2538 1116 2538 1541 
L 2538 3319 
L 3100 3319 
L 3100 0 
L 2597 0 
z
" transform="scale(0.015625)"/>
       <path id="ArialMT-6d" d="M 422 0 
L 422 3319 
L 925 3319 
L 925 2853 
Q 1081 3097 1340 3245 
Q 1600 3394 1931 3394 
Q 2300 3394 2536 3241 
Q 2772 3088 2869 2813 
Q 3263 3394 3894 3394 
Q 4388 3394 4653 3120 
Q 4919 2847 4919 2278 
L 4919 0 
L 4359 0 
L 4359 2091 
Q 4359 2428 4304 2576 
Q 4250 2725 4106 2815 
Q 3963 2906 3769 2906 
Q 3419 2906 3187 2673 
Q 2956 2441 2956 1928 
L 2956 0 
L 2394 0 
L 2394 2156 
Q 2394 2531 2256 2718 
Q 2119 2906 1806 2906 
Q 1569 2906 1367 2781 
Q 1166 2656 1075 2415 
Q 984 2175 984 1722 
L 984 0 
L 422 0 
z
" transform="scale(0.015625)"/>
       <path id="ArialMT-20" transform="scale(0.015625)"/>
       <path id="ArialMT-6f" d="M 213 1659 
Q 213 2581 725 3025 
Q 1153 3394 1769 3394 
Q 2453 3394 2887 2945 
Q 3322 2497 3322 1706 
Q 3322 1066 3130 698 
Q 2938 331 2570 128 
Q 2203 -75 1769 -75 
Q 1072 -75 642 372 
Q 213 819 213 1659 
z
M 791 1659 
Q 791 1022 1069 705 
Q 1347 388 1769 388 
Q 2188 388 2466 706 
Q 2744 1025 2744 1678 
Q 2744 2294 2464 2611 
Q 2184 2928 1769 2928 
Q 1347 2928 1069 2612 
Q 791 2297 791 1659 
z
" transform="scale(0.015625)"/>
       <path id="ArialMT-66" d="M 556 0 
L 556 2881 
L 59 2881 
L 59 3319 
L 556 3319 
L 556 3672 
Q 556 4006 616 4169 
Q 697 4388 901 4523 
Q 1106 4659 1475 4659 
Q 1713 4659 2000 4603 
L 1916 4113 
Q 1741 4144 1584 4144 
Q 1328 4144 1222 4034 
Q 1116 3925 1116 3625 
L 1116 3319 
L 1763 3319 
L 1763 2881 
L 1116 2881 
L 1116 0 
L 556 0 
z
" transform="scale(0.015625)"/>
       <path id="ArialMT-46" d="M 525 0 
L 525 4581 
L 3616 4581 
L 3616 4041 
L 1131 4041 
L 1131 2622 
L 3281 2622 
L 3281 2081 
L 1131 2081 
L 1131 0 
L 525 0 
z
" transform="scale(0.015625)"/>
       <path id="ArialMT-69" d="M 425 3934 
L 425 4581 
L 988 4581 
L 988 3934 
L 425 3934 
z
M 425 0 
L 425 3319 
L 988 3319 
L 988 0 
L 425 0 
z
" transform="scale(0.015625)"/>
       <path id="ArialMT-72" d="M 416 0 
L 416 3319 
L 922 3319 
L 922 2816 
Q 1116 3169 1280 3281 
Q 1444 3394 1641 3394 
Q 1925 3394 2219 3213 
L 2025 2691 
Q 1819 2813 1613 2813 
Q 1428 2813 1281 2702 
Q 1134 2591 1072 2394 
Q 978 2094 978 1738 
L 978 0 
L 416 0 
z
" transform="scale(0.015625)"/>
       <path id="ArialMT-73" d="M 197 991 
L 753 1078 
Q 800 744 1014 566 
Q 1228 388 1613 388 
Q 2000 388 2187 545 
Q 2375 703 2375 916 
Q 2375 1106 2209 1216 
Q 2094 1291 1634 1406 
Q 1016 1563 777 1677 
Q 538 1791 414 1992 
Q 291 2194 291 2438 
Q 291 2659 392 2848 
Q 494 3038 669 3163 
Q 800 3259 1026 3326 
Q 1253 3394 1513 3394 
Q 1903 3394 2198 3281 
Q 2494 3169 2634 2976 
Q 2775 2784 2828 2463 
L 2278 2388 
Q 2241 2644 2061 2787 
Q 1881 2931 1553 2931 
Q 1166 2931 1000 2803 
Q 834 2675 834 2503 
Q 834 2394 903 2306 
Q 972 2216 1119 2156 
Q 1203 2125 1616 2013 
Q 2213 1853 2448 1751 
Q 2684 1650 2818 1456 
Q 2953 1263 2953 975 
Q 2953 694 2789 445 
Q 2625 197 2315 61 
Q 2006 -75 1616 -75 
Q 969 -75 630 194 
Q 291 463 197 991 
z
" transform="scale(0.015625)"/>
       <path id="ArialMT-4f" d="M 309 2231 
Q 309 3372 921 4017 
Q 1534 4663 2503 4663 
Q 3138 4663 3647 4359 
Q 4156 4056 4423 3514 
Q 4691 2972 4691 2284 
Q 4691 1588 4409 1038 
Q 4128 488 3612 205 
Q 3097 -78 2500 -78 
Q 1853 -78 1343 234 
Q 834 547 571 1087 
Q 309 1628 309 2231 
z
M 934 2222 
Q 934 1394 1379 917 
Q 1825 441 2497 441 
Q 3181 441 3623 922 
Q 4066 1403 4066 2288 
Q 4066 2847 3877 3264 
Q 3688 3681 3323 3911 
Q 2959 4141 2506 4141 
Q 1863 4141 1398 3698 
Q 934 3256 934 2222 
z
" transform="scale(0.015625)"/>
       <path id="ArialMT-64" d="M 2575 0 
L 2575 419 
Q 2259 -75 1647 -75 
Q 1250 -75 917 144 
Q 584 363 401 755 
Q 219 1147 219 1656 
Q 219 2153 384 2558 
Q 550 2963 881 3178 
Q 1213 3394 1622 3394 
Q 1922 3394 2156 3267 
Q 2391 3141 2538 2938 
L 2538 4581 
L 3097 4581 
L 3097 0 
L 2575 0 
z
M 797 1656 
Q 797 1019 1065 703 
Q 1334 388 1700 388 
Q 2069 388 2326 689 
Q 2584 991 2584 1609 
Q 2584 2291 2321 2609 
Q 2059 2928 1675 2928 
Q 1300 2928 1048 2622 
Q 797 2316 797 1656 
z
" transform="scale(0.015625)"/>
       <path id="ArialMT-65" d="M 2694 1069 
L 3275 997 
Q 3138 488 2766 206 
Q 2394 -75 1816 -75 
Q 1088 -75 661 373 
Q 234 822 234 1631 
Q 234 2469 665 2931 
Q 1097 3394 1784 3394 
Q 2450 3394 2872 2941 
Q 3294 2488 3294 1666 
Q 3294 1616 3291 1516 
L 816 1516 
Q 847 969 1125 678 
Q 1403 388 1819 388 
Q 2128 388 2347 550 
Q 2566 713 2694 1069 
z
M 847 1978 
L 2700 1978 
Q 2663 2397 2488 2606 
Q 2219 2931 1791 2931 
Q 1403 2931 1139 2672 
Q 875 2413 847 1978 
z
" transform="scale(0.015625)"/>
       <path id="ArialMT-49" d="M 597 0 
L 597 4581 
L 1203 4581 
L 1203 0 
L 597 0 
z
" transform="scale(0.015625)"/>
       <path id="ArialMT-6e" d="M 422 0 
L 422 3319 
L 928 3319 
L 928 2847 
Q 1294 3394 1984 3394 
Q 2284 3394 2536 3286 
Q 2788 3178 2913 3003 
Q 3038 2828 3088 2588 
Q 3119 2431 3119 2041 
L 3119 0 
L 2556 0 
L 2556 2019 
Q 2556 2363 2490 2533 
Q 2425 2703 2258 2804 
Q 2091 2906 1866 2906 
Q 1506 2906 1245 2678 
Q 984 2450 984 1813 
L 984 0 
L 422 0 
z
" transform="scale(0.015625)"/>
       <path id="ArialMT-63" d="M 2588 1216 
L 3141 1144 
Q 3050 572 2676 248 
Q 2303 -75 1759 -75 
Q 1078 -75 664 370 
Q 250 816 250 1647 
Q 250 2184 428 2587 
Q 606 2991 970 3192 
Q 1334 3394 1763 3394 
Q 2303 3394 2647 3120 
Q 2991 2847 3088 2344 
L 2541 2259 
Q 2463 2594 2264 2762 
Q 2066 2931 1784 2931 
Q 1359 2931 1093 2626 
Q 828 2322 828 1663 
Q 828 994 1084 691 
Q 1341 388 1753 388 
Q 2084 388 2306 591 
Q 2528 794 2588 1216 
z
" transform="scale(0.015625)"/>
      </defs>
      <use xlink:href="#ArialMT-53"/>
      <use xlink:href="#ArialMT-75" x="66.699219"/>
      <use xlink:href="#ArialMT-6d" x="122.314453"/>
      <use xlink:href="#ArialMT-20" x="205.615234"/>
      <use xlink:href="#ArialMT-6f" x="233.398438"/>
      <use xlink:href="#ArialMT-66" x="289.013672"/>
      <use xlink:href="#ArialMT-20" x="316.796875"/>
      <use xlink:href="#ArialMT-46" x="344.580078"/>
      <use xlink:href="#ArialMT-69" x="405.664062"/>
      <use xlink:href="#ArialMT-72" x="427.880859"/>
      <use xlink:href="#ArialMT-73" x="461.181641"/>
      <use xlink:href="#ArialMT-74" x="511.181641"/>
      <use xlink:href="#ArialMT-20" x="538.964844"/>
      <use xlink:href="#ArialMT-4f" x="566.748047"/>
      <use xlink:href="#ArialMT-72" x="644.53125"/>
      <use xlink:href="#ArialMT-64" x="677.832031"/>
      <use xlink:href="#ArialMT-65" x="733.447266"/>
      <use xlink:href="#ArialMT-72" x="789.0625"/>
      <use xlink:href="#ArialMT-20" x="822.363281"/>
      <use xlink:href="#ArialMT-49" x="850.146484"/>
      <use xlink:href="#ArialMT-6e" x="877.929688"/>
      <use xlink:href="#ArialMT-64" x="933.544922"/>
      <use xlink:href="#ArialMT-69" x="989.160156"/>
      <use xlink:href="#ArialMT-63" x="1011.376953"/>
      <use xlink:href="#ArialMT-65" x="1061.376953"/>
      <use xlink:href="#ArialMT-73" x="1116.992188"/>
     </g>
    </g>
   </g>
   <g id="line2d_16">
    <path d="M 61.637852 79.03366 
L 61.963157 78.391937 
L 62.288463 78.540018 
L 65.216209 78.656123 
L 68.143955 78.913576 
L 69.445176 79.14147 
L 71.397007 79.674324 
L 74.650058 80.599903 
L 76.276585 80.659584 
L 78.553721 80.372177 
L 83.107992 79.733635 
L 84.083908 79.302539 
L 85.059823 78.634353 
L 86.361045 77.629504 
L 86.68635 77.528912 
L 87.011655 77.650234 
L 87.33696 78.128312 
L 87.662266 79.152774 
L 88.312876 82.951008 
L 88.963486 86.544367 
L 89.288789 87.152431 
L 89.614096 87.051083 
L 90.264706 85.839728 
L 91.240622 83.774326 
L 91.891232 82.757084 
L 92.541842 82.041673 
L 93.192452 81.594008 
L 93.843062 81.360342 
L 94.818978 81.308466 
L 97.746725 81.56589 
L 98.397334 81.292888 
L 99.047944 80.739189 
L 99.698554 79.816409 
L 100.349167 78.40967 
L 100.999777 76.336666 
L 101.650387 73.335062 
L 102.300997 69.004708 
L 102.951607 64.574408 
L 103.276914 67.624742 
L 103.927523 106.105264 
L 104.252827 109.449009 
L 105.228743 96.51564 
L 105.879353 91.375713 
L 106.529963 88.194997 
L 107.180573 86.140256 
L 107.831183 84.79945 
L 108.481796 83.951006 
L 109.132406 83.446598 
L 110.108319 83.094663 
L 112.060152 82.686468 
L 112.710762 82.353469 
L 113.361372 81.822314 
L 114.011985 81.055761 
L 114.662592 80.027581 
L 115.638508 77.9486 
L 116.614425 75.156126 
L 117.590341 71.498983 
L 118.891561 65.953627 
L 119.216864 66.345901 
L 119.542168 70.894848 
L 120.192781 96.283452 
L 120.518084 101.236748 
L 120.843388 99.449483 
L 121.819304 90.062568 
L 122.469917 86.258038 
L 123.120524 83.795338 
L 123.771137 82.134026 
L 124.42175 80.971496 
L 125.39766 79.801547 
L 126.373577 79.035952 
L 127.674797 78.366052 
L 128.976016 77.956117 
L 129.951933 77.82348 
L 130.927849 77.889882 
L 131.903766 78.218589 
L 132.879682 78.88574 
L 133.855599 79.973231 
L 134.831515 81.57219 
L 135.807425 83.785874 
L 136.783342 86.748113 
L 137.759258 90.651952 
L 138.735175 95.806507 
L 139.385788 100.195768 
L 140.036394 105.657092 
L 140.687007 112.666173 
L 141.337614 122.070565 
L 141.988227 135.54206 
L 142.638834 156.703709 
L 142.964144 172.506334 
L 143.289447 194.062071 
L 144.265364 274.0875 
L 144.590667 205.533068 
L 144.91597 100.14954 
L 145.24128 49.119993 
L 145.566583 35.877725 
L 145.891887 35.974713 
L 146.5425 44.720799 
L 147.518416 57.324494 
L 148.494326 66.169806 
L 149.470243 72.300861 
L 150.446159 76.543349 
L 151.096772 78.575092 
L 151.747379 80.091774 
L 152.397992 81.171775 
L 153.048599 81.889076 
L 153.699212 82.307455 
L 154.349819 82.488112 
L 155.325735 82.440752 
L 156.626955 82.051194 
L 161.506537 80.160281 
L 162.157144 79.553974 
L 162.807757 78.634421 
L 163.458364 77.252791 
L 164.108977 75.198242 
L 164.759584 72.139591 
L 165.410197 67.585699 
L 166.060804 61.563608 
L 166.386113 60.271033 
L 166.711423 69.196568 
L 167.36203 141.056247 
L 167.687327 136.542145 
L 168.337946 114.51225 
L 168.988553 102.375392 
L 169.63916 95.248438 
L 170.289779 90.470242 
L 170.940386 87.00774 
L 171.590993 84.415434 
L 172.2416 82.474632 
L 172.892219 81.061257 
L 173.542826 80.08934 
L 174.193432 79.482977 
L 174.844052 79.167049 
L 175.819968 79.046685 
L 177.121182 79.031473 
L 177.771789 78.843844 
L 178.422408 78.387519 
L 179.073015 77.55285 
L 179.723621 76.223754 
L 180.374228 74.273357 
L 181.024847 71.536753 
L 181.675454 67.761946 
L 182.326061 62.491761 
L 182.97668 54.85668 
L 183.627287 44.228483 
L 183.952597 42.537973 
L 184.277894 82.410309 
L 184.603204 270.261766 
L 184.928501 229.563304 
L 185.25381 166.212287 
L 185.57912 135.97964 
L 185.904417 119.593906 
L 186.555036 102.613182 
L 187.205643 93.933396 
L 187.85625 88.72433 
L 188.506857 85.361864 
L 189.157476 83.14027 
L 189.808083 81.689725 
L 190.45869 80.784617 
L 191.109309 80.264211 
L 191.759916 80.006735 
L 192.735832 79.891493 
L 194.362356 79.796553 
L 195.338272 79.529694 
L 196.314188 79.03354 
L 197.615402 78.094967 
L 199.241938 76.931954 
L 199.892545 76.689778 
L 200.543151 76.767313 
L 200.868461 77.010682 
L 201.193758 77.478455 
L 201.519068 78.301006 
L 201.844377 79.728881 
L 202.169675 82.247296 
L 202.820294 91.313065 
L 203.145591 87.00706 
L 203.470901 78.390417 
L 203.79621 74.411775 
L 204.121508 73.051239 
L 204.446817 72.660221 
L 204.772127 72.642152 
L 205.422734 73.007331 
L 207.049257 74.439639 
L 208.67578 75.785302 
L 209.977006 76.572065 
L 211.27822 77.059513 
L 213.230053 77.452252 
L 214.531279 77.803292 
L 215.507195 78.315366 
L 216.157802 78.848357 
L 216.808409 79.581348 
L 217.459028 80.55511 
L 218.109635 81.81341 
L 219.085551 84.341147 
L 220.061468 87.821568 
L 221.037384 92.560249 
L 221.687991 96.667165 
L 222.338598 101.839969 
L 222.989205 108.561003 
L 223.639824 117.739802 
L 224.290431 131.246765 
L 224.941037 153.188059 
L 225.916954 205.953551 
L 226.242264 181.769298 
L 226.89287 47.478109 
L 227.21818 34.554652 
L 227.543477 36.632574 
L 228.844703 57.451589 
L 229.49531 64.443232 
L 230.145917 69.575387 
L 230.796536 73.387025 
L 231.447143 76.224894 
L 232.09775 78.318734 
L 232.748369 79.833663 
L 233.398976 80.894257 
L 234.049583 81.601196 
L 234.700189 82.041688 
L 235.676106 82.361696 
L 236.977332 82.45591 
L 240.230378 82.393549 
L 241.206295 82.157186 
L 241.856914 81.794994 
L 242.507521 81.167597 
L 243.158128 80.156069 
L 243.808735 78.596179 
L 244.459354 76.234251 
L 245.109961 72.642791 
L 245.760567 67.088263 
L 246.411187 59.383605 
L 246.736484 58.668637 
L 247.061793 78.013826 
L 247.387091 132.337326 
L 247.7124 147.273566 
L 248.363007 122.007892 
L 249.013626 107.399919 
L 249.664233 99.347284 
L 250.31484 94.131014 
L 250.965447 90.387688 
L 251.616066 87.55382 
L 252.591982 84.463411 
L 253.242589 82.990798 
L 253.893196 81.89639 
L 254.543815 81.118952 
L 255.194422 80.597105 
L 256.170339 80.148408 
L 258.122171 79.515543 
L 258.772778 79.085738 
L 259.423385 78.413991 
L 260.073992 77.425609 
L 260.724611 76.048939 
L 261.375218 74.207238 
L 262.025825 71.806009 
L 262.676444 68.707479 
L 263.327051 64.682782 
L 263.977658 59.36755 
L 264.953574 49.937511 
L 265.278884 52.843879 
L 265.604181 81.895969 
L 265.929491 158.283722 
L 266.2548 175.766613 
L 266.905407 128.821556 
L 267.556014 106.749681 
L 268.206621 96.081784 
L 268.85724 89.943534 
L 269.507847 86.032044 
L 270.158466 83.400882 
L 270.80906 81.592109 
L 271.45968 80.346631 
L 272.110299 79.50233 
L 272.760893 78.945392 
L 273.73681 78.472949 
L 275.038023 78.217546 
L 277.315178 78.114955 
L 278.616392 78.22142 
L 279.592308 78.537697 
L 280.242927 78.959747 
L 280.893522 79.641672 
L 281.544141 80.697696 
L 282.194736 82.299601 
L 282.845355 84.735793 
L 283.495974 88.531976 
L 284.146568 94.728114 
L 284.797188 104.900009 
L 285.122485 110.490874 
L 285.447807 109.819915 
L 285.773104 91.124548 
L 286.098401 65.538516 
L 286.423723 54.254706 
L 286.749021 52.917041 
L 287.39964 57.146079 
L 288.375556 63.447781 
L 289.351473 67.854753 
L 290.327389 71.065614 
L 291.303281 73.46805 
L 292.279197 75.245616 
L 293.255114 76.507971 
L 294.23103 77.354913 
L 295.206946 77.901874 
L 298.460018 79.399271 
L 299.435909 80.33241 
L 300.411826 81.737007 
L 301.387742 83.739768 
L 302.363659 86.485229 
L 303.339575 90.189747 
L 303.990194 93.380487 
L 304.640814 97.395958 
L 305.291408 102.636501 
L 305.942027 109.804729 
L 307.243241 127.668292 
L 307.568538 118.853617 
L 308.219157 60.286146 
L 308.544455 49.072099 
L 308.869777 49.595618 
L 310.17099 64.87012 
L 310.821609 69.801662 
L 311.472204 73.256805 
L 312.122823 75.706724 
L 312.773442 77.446819 
L 313.424037 78.669729 
L 314.074656 79.508006 
L 314.725275 80.061662 
L 315.701167 80.528268 
L 317.002405 80.777158 
L 320.580749 81.038535 
L 321.556665 80.949401 
L 322.207285 80.742561 
L 322.857904 80.352871 
L 323.508498 79.708368 
L 324.159117 78.719348 
L 324.809712 77.262648 
L 325.460331 75.155495 
L 326.11095 72.117702 
L 326.761545 67.859626 
L 327.086867 65.493051 
L 327.412164 64.125716 
L 327.737461 67.686869 
L 328.062783 84.499042 
L 328.38808 108.723691 
L 328.713378 116.789021 
L 329.0387 113.265436 
L 329.689294 103.127039 
L 330.339913 96.396318 
L 330.990533 91.981505 
L 331.641127 88.857152 
L 332.291746 86.524918 
L 333.267663 83.996733 
L 334.243579 82.29024 
L 335.219495 81.186786 
L 336.195412 80.527331 
L 337.171328 80.160874 
L 339.773756 79.367656 
L 340.749672 78.688921 
L 341.725589 77.60565 
L 342.701505 76.033309 
L 343.677421 73.893663 
L 344.653338 71.074986 
L 345.629254 67.454878 
L 346.279873 65.124251 
L 346.605171 65.073049 
L 346.930468 68.11714 
L 347.25579 78.632635 
L 347.581087 96.726256 
L 347.906384 107.16352 
L 348.231706 105.444509 
L 348.882301 95.406576 
L 349.53292 88.87743 
L 350.183514 85.05154 
L 350.834134 82.678727 
L 351.484753 81.140558 
L 352.135347 80.124026 
L 352.785967 79.451112 
L 353.761883 78.855288 
L 354.737799 78.557734 
L 356.364335 78.372285 
L 358.316143 78.370987 
L 359.617382 78.560645 
L 360.593298 78.923281 
L 361.243892 79.333686 
L 361.894512 79.933402 
L 362.545131 80.780587 
L 363.195725 81.954589 
L 363.846345 83.564338 
L 364.496964 85.777475 
L 365.147558 88.856678 
L 365.798177 93.226949 
L 366.448772 99.437755 
L 367.099391 106.729304 
L 367.424688 107.842515 
L 367.75001 101.789913 
L 368.725927 56.682211 
L 369.051224 53.929912 
L 369.376521 54.70796 
L 371.653676 67.914937 
L 372.629592 71.448872 
L 373.605509 74.052705 
L 374.581401 75.943626 
L 375.557317 77.266349 
L 376.533233 78.148446 
L 377.50915 78.724389 
L 380.762221 80.25234 
L 381.738138 81.077929 
L 382.714029 82.234085 
L 383.689946 83.780452 
L 384.665862 85.782554 
L 385.641779 88.355402 
L 386.292398 90.494031 
L 386.292398 90.494031 
" clip-path="url(#p01d312820c)" style="fill: none; stroke: #1f77b4; stroke-width: 1.2; stroke-linecap: round"/>
   </g>
   <g id="line2d_17">
    <path d="M 61.637852 78.617917 
L 65.541514 78.82243 
L 66.842735 79.136059 
L 67.81865 79.545371 
L 69.119871 80.34654 
L 70.421091 81.178274 
L 71.071702 81.385481 
L 71.722312 81.331736 
L 72.372922 81.025624 
L 73.674143 80.002267 
L 74.975363 79.118077 
L 75.95128 78.774441 
L 76.927195 78.658438 
L 78.228414 78.744826 
L 80.180246 78.920333 
L 82.457382 78.870242 
L 82.782687 79.145645 
L 83.107992 79.652056 
L 83.758603 81.629457 
L 84.734518 85.271248 
L 85.059823 85.93516 
L 85.385128 86.230762 
L 85.710433 86.212096 
L 86.03574 85.955765 
L 86.68635 85.026973 
L 87.987569 82.448131 
L 89.614096 79.323645 
L 90.590012 78.023124 
L 91.240622 77.545787 
L 91.891232 77.434124 
L 92.541842 77.712495 
L 93.192452 78.383815 
L 93.843062 79.431081 
L 95.469588 82.445217 
L 95.794895 82.760008 
L 96.120198 82.855172 
L 96.445505 82.690114 
L 96.770808 82.227735 
L 97.096115 81.407366 
L 97.746725 78.542107 
L 98.397334 75.372679 
L 98.722641 77.589965 
L 99.373251 96.56109 
L 99.698554 100.707009 
L 100.023861 100.692235 
L 100.674471 97.398957 
L 102.300997 88.824335 
L 104.252827 79.913207 
L 105.228743 76.152821 
L 106.20466 73.306365 
L 106.85527 72.260717 
L 107.180573 72.113207 
L 107.50588 72.26603 
L 107.831183 72.74662 
L 108.481796 74.622753 
L 109.783016 79.441296 
L 110.108319 80.203159 
L 110.433626 80.648344 
L 110.758932 80.758041 
L 111.084236 80.525418 
L 111.409542 79.965711 
L 112.060152 77.939327 
L 113.036065 73.643249 
L 113.361372 72.87892 
L 113.686675 73.73687 
L 114.011985 77.615021 
L 114.987895 99.154883 
L 115.313205 101.132531 
L 115.638508 100.549571 
L 116.289121 96.494772 
L 117.590341 87.810665 
L 118.566258 82.63874 
L 119.542168 78.530396 
L 120.518084 75.387394 
L 121.494001 73.168789 
L 122.144614 72.188343 
L 122.795221 71.605236 
L 123.445834 71.417622 
L 124.09644 71.610398 
L 124.747053 72.140778 
L 125.72297 73.362329 
L 129.301326 78.473253 
L 129.951933 79.981932 
L 130.602546 82.094358 
L 131.253153 85.062348 
L 131.903766 89.157884 
L 133.204986 99.01677 
L 133.530289 98.924341 
L 133.855599 94.532428 
L 134.180902 83.714813 
L 135.156818 39.58093 
L 135.482122 33.844143 
L 135.807425 32.1675 
L 136.132735 32.748387 
L 136.783342 36.550618 
L 139.060478 52.025592 
L 147.193107 102.811783 
L 148.169023 107.05227 
L 148.819636 109.146372 
L 149.470243 110.484579 
L 149.795546 110.813157 
L 150.120856 110.878479 
L 150.446159 110.649551 
L 150.771463 110.091528 
L 151.096772 109.16995 
L 151.747379 106.091441 
L 152.397992 101.248271 
L 153.373909 91.347002 
L 154.349819 81.697252 
L 155.000432 77.577652 
L 155.325735 76.367863 
L 155.651045 75.644301 
L 155.976348 75.307195 
L 156.301652 75.2591 
L 156.626955 75.417053 
L 157.277568 76.112897 
L 158.253485 77.674643 
L 158.904091 79.062773 
L 159.554704 81.067012 
L 160.205318 84.197922 
L 161.506537 91.855192 
L 162.157144 94.128911 
L 162.482448 94.791201 
L 162.807757 95.197937 
L 163.133061 95.388113 
L 163.458364 95.389211 
L 163.783674 95.219794 
L 164.43428 94.411221 
L 165.084893 93.014738 
L 165.735507 91.058852 
L 166.711423 87.157274 
L 167.687327 82.277396 
L 169.63916 70.948384 
L 170.940386 63.989794 
L 171.590993 61.511542 
L 171.916302 60.713524 
L 172.2416 60.293085 
L 172.566909 60.311221 
L 172.892219 60.807948 
L 173.217516 61.807605 
L 173.868135 65.214886 
L 174.844052 72.924687 
L 175.494658 78.034495 
L 175.819968 79.800175 
L 176.145265 80.650634 
L 176.470575 80.318561 
L 176.795872 78.557938 
L 177.121182 75.160981 
L 177.446491 70.330058 
L 177.771789 67.537213 
L 178.097098 89.551413 
L 178.422408 158.825591 
L 178.747705 170.187407 
L 179.398324 140.314073 
L 180.048931 123.87316 
L 180.699538 113.763833 
L 181.675454 102.76998 
L 182.97668 90.855779 
L 184.603204 78.06987 
L 185.904417 69.623463 
L 186.880334 64.60147 
L 187.530953 62.003313 
L 188.18156 60.152604 
L 188.506857 59.577987 
L 188.832167 59.292181 
L 189.157476 59.357274 
L 189.482773 59.835859 
L 189.808083 60.790079 
L 190.45869 64.248559 
L 192.410523 77.883114 
L 192.735832 78.741095 
L 193.06113 79.015002 
L 193.386439 78.757172 
L 193.711749 78.047709 
L 195.012962 74.122218 
L 195.338272 75.32785 
L 195.663582 79.423177 
L 196.314188 91.99315 
L 196.639486 94.567642 
L 196.964795 94.232507 
L 197.615402 90.273835 
L 198.591319 84.120539 
L 199.567235 79.589717 
L 200.217854 77.361529 
L 200.868461 75.680763 
L 201.519068 74.505434 
L 202.169675 73.811809 
L 202.820294 73.579527 
L 203.470901 73.789331 
L 204.121508 74.417025 
L 204.772127 75.431321 
L 205.748031 77.586516 
L 207.049257 81.295953 
L 208.350483 85.100305 
L 209.00109 86.544953 
L 209.651697 87.366718 
L 209.977006 87.489742 
L 210.302303 87.423758 
L 210.952923 86.818631 
L 211.928839 85.66408 
L 212.254136 85.542684 
L 212.579446 85.700919 
L 212.904755 86.264591 
L 213.230053 87.364044 
L 213.555362 89.179406 
L 213.880659 91.942897 
L 214.205969 95.985331 
L 214.531279 101.808842 
L 214.856576 110.158802 
L 215.181886 122.214032 
L 215.507195 139.845949 
L 215.832492 165.661735 
L 216.483112 232.345581 
L 216.808409 214.181458 
L 217.459028 78.989596 
L 217.784325 49.628704 
L 218.109635 37.766543 
L 218.434932 33.706325 
L 218.760242 33.086414 
L 219.085551 34.038059 
L 219.736158 37.796438 
L 221.362681 49.602183 
L 227.21818 93.046891 
L 228.519394 100.751879 
L 229.49531 105.332168 
L 230.145917 107.667916 
L 230.796536 109.319742 
L 231.121833 109.850853 
L 231.447143 110.159936 
L 231.772453 110.221054 
L 232.09775 110.005916 
L 232.423059 109.475697 
L 232.748369 108.588803 
L 233.073666 107.29466 
L 233.724285 103.30328 
L 234.374892 97.387955 
L 235.676106 84.010455 
L 236.326725 80.077689 
L 236.652022 79.053943 
L 236.977332 78.512765 
L 237.302642 78.310516 
L 237.627939 78.327057 
L 238.603855 78.834824 
L 238.929165 79.102682 
L 239.254462 79.605486 
L 239.579772 80.57232 
L 240.230378 84.161662 
L 241.206295 90.300175 
L 241.856914 93.096809 
L 242.507521 94.855443 
L 243.158128 95.772974 
L 243.483437 95.956897 
L 243.808735 95.97131 
L 244.134044 95.823679 
L 244.459354 95.51949 
L 245.109961 94.45877 
L 245.760567 92.828153 
L 246.411187 90.670363 
L 247.387091 86.56617 
L 248.688317 79.841406 
L 252.591982 58.285181 
L 253.242589 56.299853 
L 253.567899 55.802191 
L 253.893196 55.711483 
L 254.218506 56.071603 
L 254.543815 56.914573 
L 255.194422 59.960897 
L 256.170339 65.676394 
L 256.495636 66.561861 
L 256.820945 66.18645 
L 257.146255 64.171963 
L 257.796862 56.955487 
L 258.122171 65.09514 
L 258.772778 164.403683 
L 259.098088 163.939103 
L 259.748695 140.715083 
L 260.399302 125.890944 
L 261.049908 116.083649 
L 262.025825 105.339969 
L 263.327051 94.094485 
L 264.628265 84.619297 
L 265.929491 76.609306 
L 266.905407 71.632286 
L 267.881323 67.601584 
L 268.85724 64.553325 
L 269.507847 63.094162 
L 270.158466 62.137978 
L 270.483763 61.870157 
L 270.80906 61.761607 
L 271.134382 61.832869 
L 271.45968 62.104817 
L 271.784977 62.598062 
L 272.435596 64.329899 
L 273.086215 67.020063 
L 274.387429 73.018822 
L 275.038023 74.91959 
L 275.688643 75.908757 
L 276.664559 76.734648 
L 277.315178 77.645265 
L 277.640475 77.634384 
L 277.965773 76.75407 
L 278.941689 72.648837 
L 279.592308 70.873379 
L 280.242927 69.695588 
L 280.893522 68.917462 
L 281.544141 68.476539 
L 282.194736 68.355504 
L 282.845355 68.561442 
L 283.495974 69.105234 
L 284.146568 69.998681 
L 284.797188 71.249677 
L 285.773104 73.79718 
L 286.749021 77.126039 
L 288.050234 82.658104 
L 289.67677 90.875243 
L 291.9539 102.506773 
L 292.604519 105.026992 
L 293.255114 106.731082 
L 293.580436 107.203264 
L 293.905733 107.401014 
L 294.23103 107.355013 
L 295.206946 106.757068 
L 295.532268 107.133239 
L 295.857566 108.423625 
L 296.182863 111.22099 
L 296.508185 116.309006 
L 296.833482 124.813825 
L 297.158779 138.19676 
L 298.134696 196.56882 
L 298.460018 171.825242 
L 299.110612 79.44724 
L 299.435909 58.636094 
L 299.761231 49.296312 
L 300.086529 45.630073 
L 300.411826 44.726884 
L 300.737148 45.213562 
L 301.387742 48.030778 
L 302.688981 55.829994 
L 305.61673 73.713582 
L 307.243241 82.358595 
L 308.544455 88.11793 
L 309.520371 91.570176 
L 310.496287 94.142907 
L 311.146907 95.314003 
L 311.797526 96.010101 
L 312.122823 96.171614 
L 312.44812 96.20042 
L 312.773442 96.09596 
L 313.098739 95.850347 
L 313.749359 94.920036 
L 314.399953 93.372104 
L 315.050572 91.203806 
L 317.327702 82.496283 
L 317.653 82.127638 
L 317.978322 82.071847 
L 318.628916 82.299907 
L 318.954238 82.032647 
L 319.279535 81.108274 
L 319.930155 78.474129 
L 320.255452 78.615785 
L 320.580749 80.015091 
L 321.881987 87.334041 
L 322.532582 89.638321 
L 323.183201 91.058306 
L 323.833795 91.753827 
L 324.159117 91.866066 
L 324.484415 91.837524 
L 324.809712 91.676128 
L 325.460331 90.987935 
L 326.11095 89.86575 
L 327.086867 87.499648 
L 328.062783 84.490924 
L 329.689294 78.591728 
L 332.291746 68.877222 
L 333.267663 65.90208 
L 333.918257 64.401424 
L 334.568876 63.454821 
L 334.894173 63.233909 
L 335.219495 63.199994 
L 335.544793 63.352986 
L 335.87009 63.687887 
L 337.171328 65.518454 
L 337.496626 65.157614 
L 337.821923 63.806124 
L 338.472542 58.039159 
L 338.797839 58.762065 
L 339.123161 74.030556 
L 339.448458 98.852728 
L 339.773756 111.884662 
L 340.099078 114.232903 
L 340.424375 112.770205 
L 342.376208 98.846044 
L 343.677421 91.493426 
L 344.978635 85.192261 
L 346.279873 79.933768 
L 347.25579 76.776416 
L 348.231706 74.363436 
L 348.882301 73.184303 
L 349.53292 72.350905 
L 350.183514 71.859685 
L 350.834134 71.702896 
L 351.484753 71.873245 
L 352.135347 72.360761 
L 352.785967 73.152554 
L 353.761883 74.84221 
L 355.388419 78.007167 
L 356.039013 78.725625 
L 357.340227 79.372928 
L 357.665549 79.861577 
L 358.316143 81.52093 
L 358.641465 81.741422 
L 358.966762 79.854535 
L 359.942679 68.156811 
L 360.267976 66.418361 
L 360.593298 65.49476 
L 360.918595 65.016271 
L 361.243892 64.786477 
L 361.894512 64.727799 
L 362.545131 64.980464 
L 363.195725 65.459067 
L 364.171642 66.563185 
L 365.147558 68.142402 
L 366.123475 70.220623 
L 367.099391 72.819279 
L 368.400605 77.105618 
L 369.701843 82.271878 
L 371.653676 91.190671 
L 373.930806 101.578994 
L 374.906723 105.2057 
L 375.557317 107.084334 
L 376.207936 108.443246 
L 377.183853 109.976418 
L 377.50915 110.838036 
L 377.834472 112.369457 
L 378.159769 115.082284 
L 378.485066 119.569722 
L 379.135685 133.340238 
L 379.460983 134.248353 
L 379.786305 118.862384 
L 380.436899 73.350371 
L 380.762221 62.835817 
L 381.087518 58.178481 
L 381.412816 56.519407 
L 381.738138 56.350602 
L 382.063435 56.947623 
L 382.714029 59.177867 
L 384.665862 67.717039 
L 386.292398 74.362025 
L 386.292398 74.362025 
" clip-path="url(#p01d312820c)" style="fill: none; stroke: #ff7f0e; stroke-width: 1.2; stroke-linecap: round"/>
   </g>
   <g id="patch_3">
    <path d="M 45.405125 285.903489 
L 45.405125 48.703075 
" style="fill: none; stroke: #262626; stroke-linejoin: miter; stroke-linecap: square"/>
   </g>
   <g id="patch_4">
    <path d="M 61.312547 286.1835 
L 386.292398 286.1835 
" style="fill: none; stroke: #262626; stroke-linejoin: miter; stroke-linecap: square"/>
   </g>
   <g id="text_18">
    <!-- First sensitivity indices -->
    <g style="fill: #262626" transform="translate(176.222375 14.0715) scale(0.096 -0.096)">
     <defs>
      <path id="ArialMT-76" d="M 1344 0 
L 81 3319 
L 675 3319 
L 1388 1331 
Q 1503 1009 1600 663 
Q 1675 925 1809 1294 
L 2547 3319 
L 3125 3319 
L 1869 0 
L 1344 0 
z
" transform="scale(0.015625)"/>
      <path id="ArialMT-79" d="M 397 -1278 
L 334 -750 
Q 519 -800 656 -800 
Q 844 -800 956 -737 
Q 1069 -675 1141 -563 
Q 1194 -478 1313 -144 
Q 1328 -97 1363 -6 
L 103 3319 
L 709 3319 
L 1400 1397 
Q 1534 1031 1641 628 
Q 1738 1016 1872 1384 
L 2581 3319 
L 3144 3319 
L 1881 -56 
Q 1678 -603 1566 -809 
Q 1416 -1088 1222 -1217 
Q 1028 -1347 759 -1347 
Q 597 -1347 397 -1278 
z
" transform="scale(0.015625)"/>
     </defs>
     <use xlink:href="#ArialMT-46"/>
     <use xlink:href="#ArialMT-69" x="61.083984"/>
     <use xlink:href="#ArialMT-72" x="83.300781"/>
     <use xlink:href="#ArialMT-73" x="116.601562"/>
     <use xlink:href="#ArialMT-74" x="166.601562"/>
     <use xlink:href="#ArialMT-20" x="194.384766"/>
     <use xlink:href="#ArialMT-73" x="222.167969"/>
     <use xlink:href="#ArialMT-65" x="272.167969"/>
     <use xlink:href="#ArialMT-6e" x="327.783203"/>
     <use xlink:href="#ArialMT-73" x="383.398438"/>
     <use xlink:href="#ArialMT-69" x="433.398438"/>
     <use xlink:href="#ArialMT-74" x="455.615234"/>
     <use xlink:href="#ArialMT-69" x="483.398438"/>
     <use xlink:href="#ArialMT-76" x="505.615234"/>
     <use xlink:href="#ArialMT-69" x="555.615234"/>
     <use xlink:href="#ArialMT-74" x="577.832031"/>
     <use xlink:href="#ArialMT-79" x="605.615234"/>
     <use xlink:href="#ArialMT-20" x="655.615234"/>
     <use xlink:href="#ArialMT-69" x="683.398438"/>
     <use xlink:href="#ArialMT-6e" x="705.615234"/>
     <use xlink:href="#ArialMT-64" x="761.230469"/>
     <use xlink:href="#ArialMT-69" x="816.845703"/>
     <use xlink:href="#ArialMT-63" x="839.0625"/>
     <use xlink:href="#ArialMT-65" x="889.0625"/>
     <use xlink:href="#ArialMT-73" x="944.677734"/>
    </g>
   </g>
   <g id="legend_1">
    <g id="line2d_18">
     <path d="M 365.565125 31.210375 
L 374.365125 31.210375 
L 383.165125 31.210375 
" style="fill: none; stroke: #1f77b4; stroke-width: 1.2; stroke-linecap: round"/>
    </g>
    <g id="text_19">
     <!-- x -->
     <g style="fill: #262626" transform="translate(390.205125 34.290375) scale(0.088 -0.088)">
      <defs>
       <path id="ArialMT-78" d="M 47 0 
L 1259 1725 
L 138 3319 
L 841 3319 
L 1350 2541 
Q 1494 2319 1581 2169 
Q 1719 2375 1834 2534 
L 2394 3319 
L 3066 3319 
L 1919 1756 
L 3153 0 
L 2463 0 
L 1781 1031 
L 1600 1309 
L 728 0 
L 47 0 
z
" transform="scale(0.015625)"/>
      </defs>
      <use xlink:href="#ArialMT-78"/>
     </g>
    </g>
    <g id="line2d_19">
     <path d="M 365.565125 43.65825 
L 374.365125 43.65825 
L 383.165125 43.65825 
" style="fill: none; stroke: #ff7f0e; stroke-width: 1.2; stroke-linecap: round"/>
    </g>
    <g id="text_20">
     <!-- v -->
     <g style="fill: #262626" transform="translate(390.205125 46.73825) scale(0.088 -0.088)">
      <use xlink:href="#ArialMT-76"/>
     </g>
    </g>
   </g>
  </g>
 </g>
 <defs>
  <clipPath id="p01d312820c">
   <rect x="45.405125" y="20.0715" width="357.12" height="266.112"/>
  </clipPath>
 </defs>
</svg>