<?xml version="1.0" encoding="utf-8" standalone="no"?>
<!DOCTYPE svg PUBLIC "-//W3C//DTD SVG 1.1//EN"
  "http://www.w3.org/Graphics/SVG/1.1/DTD/svg11.dtd">
<svg xmlns:xlink="http://www.w3.org/1999/xlink" width="410.20075pt" height="309.639375pt" viewBox="0 0 410.20075 309.639375" xmlns="http://www.w3.org/2000/svg" version="1.1">
 <metadata>
  <rdf:RDF xmlns:dc="http://purl.org/dc/elements/1.1/" xmlns:cc="http://creativecommons.org/ns#" xmlns:rdf="http://www.w3.org/1999/02/22-rdf-syntax-ns#">
   <cc:Work>
    <dc:type rdf:resource="http://purl.org/dc/dcmitype/StillImage"/>
    <dc:date>2023-12-08T18:22:37.823327</dc:date>
    <dc:format>image/svg+xml</dc:format>
    <dc:creator>
     <cc:Agent>
      <dc:title>Matplotlib v3.8.0, https://matplotlib.org/</dc:title>
     </cc:Agent>
    </dc:creator>
   </cc:Work>
  </rdf:RDF>
 </metadata>
 <defs>
  <style type="text/css">*{stroke-linejoin: round; stroke-linecap: butt}</style>
 </defs>
 <g id="figure_1">
  <g id="patch_1">
   <path d="M 0 309.639375 
L 410.20075 309.639375 
L 410.20075 0 
L 0 0 
z
" style="fill: #ffffff"/>
  </g>
  <g id="axes_1">
   <g id="patch_2">
    <path d="M 45.88075 273.312 
L 403.00075 273.312 
L 403.00075 7.2 
L 45.88075 7.2 
z
" style="fill: #ffffff"/>
   </g>
   <g id="matplotlib.axis_1">
    <g id="xtick_1">
     <g id="line2d_1">
      <defs>
       <path id="m0e65f2815d" d="M 0 0 
L 0 4.8 
" style="stroke: #262626"/>
      </defs>
      <g>
       <use xlink:href="#m0e65f2815d" x="62.113477" y="273.312" style="fill: #262626; stroke: #262626"/>
      </g>
     </g>
     <g id="text_1">
      <!-- 0 -->
      <g style="fill: #262626" transform="translate(59.666665 287.910875) scale(0.088 -0.088)">
       <defs>
        <path id="ArialMT-30" d="M 266 2259 
Q 266 3072 433 3567 
Q 600 4063 929 4331 
Q 1259 4600 1759 4600 
Q 2128 4600 2406 4451 
Q 2684 4303 2865 4023 
Q 3047 3744 3150 3342 
Q 3253 2941 3253 2259 
Q 3253 1453 3087 958 
Q 2922 463 2592 192 
Q 2263 -78 1759 -78 
Q 1097 -78 719 397 
Q 266 969 266 2259 
z
M 844 2259 
Q 844 1131 1108 757 
Q 1372 384 1759 384 
Q 2147 384 2411 759 
Q 2675 1134 2675 2259 
Q 2675 3391 2411 3762 
Q 2147 4134 1753 4134 
Q 1366 4134 1134 3806 
Q 844 3388 844 2259 
z
" transform="scale(0.015625)"/>
       </defs>
       <use xlink:href="#ArialMT-30"/>
      </g>
     </g>
    </g>
    <g id="xtick_2">
     <g id="line2d_2">
      <g>
       <use xlink:href="#m0e65f2815d" x="127.338044" y="273.312" style="fill: #262626; stroke: #262626"/>
      </g>
     </g>
     <g id="text_2">
      <!-- 1 -->
      <g style="fill: #262626" transform="translate(124.891231 287.910875) scale(0.088 -0.088)">
       <defs>
        <path id="ArialMT-31" d="M 2384 0 
L 1822 0 
L 1822 3584 
Q 1619 3391 1289 3197 
Q 959 3003 697 2906 
L 697 3450 
Q 1169 3672 1522 3987 
Q 1875 4303 2022 4600 
L 2384 4600 
L 2384 0 
z
" transform="scale(0.015625)"/>
       </defs>
       <use xlink:href="#ArialMT-31"/>
      </g>
     </g>
    </g>
    <g id="xtick_3">
     <g id="line2d_3">
      <g>
       <use xlink:href="#m0e65f2815d" x="192.56261" y="273.312" style="fill: #262626; stroke: #262626"/>
      </g>
     </g>
     <g id="text_3">
      <!-- 2 -->
      <g style="fill: #262626" transform="translate(190.115798 287.910875) scale(0.088 -0.088)">
       <defs>
        <path id="ArialMT-32" d="M 3222 541 
L 3222 0 
L 194 0 
Q 188 203 259 391 
Q 375 700 629 1000 
Q 884 1300 1366 1694 
Q 2113 2306 2375 2664 
Q 2638 3022 2638 3341 
Q 2638 3675 2398 3904 
Q 2159 4134 1775 4134 
Q 1369 4134 1125 3890 
Q 881 3647 878 3216 
L 300 3275 
Q 359 3922 746 4261 
Q 1134 4600 1788 4600 
Q 2447 4600 2831 4234 
Q 3216 3869 3216 3328 
Q 3216 3053 3103 2787 
Q 2991 2522 2730 2228 
Q 2469 1934 1863 1422 
Q 1356 997 1212 845 
Q 1069 694 975 541 
L 3222 541 
z
" transform="scale(0.015625)"/>
       </defs>
       <use xlink:href="#ArialMT-32"/>
      </g>
     </g>
    </g>
    <g id="xtick_4">
     <g id="line2d_4">
      <g>
       <use xlink:href="#m0e65f2815d" x="257.787177" y="273.312" style="fill: #262626; stroke: #262626"/>
      </g>
     </g>
     <g id="text_4">
      <!-- 3 -->
      <g style="fill: #262626" transform="translate(255.340364 287.910875) scale(0.088 -0.088)">
       <defs>
        <path id="ArialMT-33" d="M 269 1209 
L 831 1284 
Q 928 806 1161 595 
Q 1394 384 1728 384 
Q 2125 384 2398 659 
Q 2672 934 2672 1341 
Q 2672 1728 2419 1979 
Q 2166 2231 1775 2231 
Q 1616 2231 1378 2169 
L 1441 2663 
Q 1497 2656 1531 2656 
Q 1891 2656 2178 2843 
Q 2466 3031 2466 3422 
Q 2466 3731 2256 3934 
Q 2047 4138 1716 4138 
Q 1388 4138 1169 3931 
Q 950 3725 888 3313 
L 325 3413 
Q 428 3978 793 4289 
Q 1159 4600 1703 4600 
Q 2078 4600 2393 4439 
Q 2709 4278 2876 4000 
Q 3044 3722 3044 3409 
Q 3044 3113 2884 2869 
Q 2725 2625 2413 2481 
Q 2819 2388 3044 2092 
Q 3269 1797 3269 1353 
Q 3269 753 2831 336 
Q 2394 -81 1725 -81 
Q 1122 -81 723 278 
Q 325 638 269 1209 
z
" transform="scale(0.015625)"/>
       </defs>
       <use xlink:href="#ArialMT-33"/>
      </g>
     </g>
    </g>
    <g id="xtick_5">
     <g id="line2d_5">
      <g>
       <use xlink:href="#m0e65f2815d" x="323.011743" y="273.312" style="fill: #262626; stroke: #262626"/>
      </g>
     </g>
     <g id="text_5">
      <!-- 4 -->
      <g style="fill: #262626" transform="translate(320.564931 287.910875) scale(0.088 -0.088)">
       <defs>
        <path id="ArialMT-34" d="M 2069 0 
L 2069 1097 
L 81 1097 
L 81 1613 
L 2172 4581 
L 2631 4581 
L 2631 1613 
L 3250 1613 
L 3250 1097 
L 2631 1097 
L 2631 0 
L 2069 0 
z
M 2069 1613 
L 2069 3678 
L 634 1613 
L 2069 1613 
z
" transform="scale(0.015625)"/>
       </defs>
       <use xlink:href="#ArialMT-34"/>
      </g>
     </g>
    </g>
    <g id="xtick_6">
     <g id="line2d_6">
      <g>
       <use xlink:href="#m0e65f2815d" x="388.23631" y="273.312" style="fill: #262626; stroke: #262626"/>
      </g>
     </g>
     <g id="text_6">
      <!-- 5 -->
      <g style="fill: #262626" transform="translate(385.789497 287.910875) scale(0.088 -0.088)">
       <defs>
        <path id="ArialMT-35" d="M 266 1200 
L 856 1250 
Q 922 819 1161 601 
Q 1400 384 1738 384 
Q 2144 384 2425 690 
Q 2706 997 2706 1503 
Q 2706 1984 2436 2262 
Q 2166 2541 1728 2541 
Q 1456 2541 1237 2417 
Q 1019 2294 894 2097 
L 366 2166 
L 809 4519 
L 3088 4519 
L 3088 3981 
L 1259 3981 
L 1013 2750 
Q 1425 3038 1878 3038 
Q 2478 3038 2890 2622 
Q 3303 2206 3303 1553 
Q 3303 931 2941 478 
Q 2500 -78 1738 -78 
Q 1113 -78 717 272 
Q 322 622 266 1200 
z
" transform="scale(0.015625)"/>
       </defs>
       <use xlink:href="#ArialMT-35"/>
      </g>
     </g>
    </g>
    <g id="text_7">
     <!-- t -->
     <g style="fill: #262626" transform="translate(223.10725 300.531375) scale(0.096 -0.096)">
      <defs>
       <path id="ArialMT-74" d="M 1650 503 
L 1731 6 
Q 1494 -44 1306 -44 
Q 1000 -44 831 53 
Q 663 150 594 308 
Q 525 466 525 972 
L 525 2881 
L 113 2881 
L 113 3319 
L 525 3319 
L 525 4141 
L 1084 4478 
L 1084 3319 
L 1650 3319 
L 1650 2881 
L 1084 2881 
L 1084 941 
Q 1084 700 1114 631 
Q 1144 563 1211 522 
Q 1278 481 1403 481 
Q 1497 481 1650 503 
z
" transform="scale(0.015625)"/>
      </defs>
      <use xlink:href="#ArialMT-74"/>
     </g>
    </g>
   </g>
   <g id="matplotlib.axis_2">
    <g id="ytick_1">
     <g id="line2d_7">
      <defs>
       <path id="m0347c5bb20" d="M 0 0 
L -4.8 0 
" style="stroke: #262626"/>
      </defs>
      <g>
       <use xlink:href="#m0347c5bb20" x="45.88075" y="255.72785" style="fill: #262626; stroke: #262626"/>
      </g>
     </g>
     <g id="text_8">
      <!-- −0.6 -->
      <g style="fill: #262626" transform="translate(20.209 258.877287) scale(0.088 -0.088)">
       <defs>
        <path id="ArialMT-2212" d="M 3381 1997 
L 356 1997 
L 356 2522 
L 3381 2522 
L 3381 1997 
z
" transform="scale(0.015625)"/>
        <path id="ArialMT-2e" d="M 581 0 
L 581 641 
L 1222 641 
L 1222 0 
L 581 0 
z
" transform="scale(0.015625)"/>
        <path id="ArialMT-36" d="M 3184 3459 
L 2625 3416 
Q 2550 3747 2413 3897 
Q 2184 4138 1850 4138 
Q 1581 4138 1378 3988 
Q 1113 3794 959 3422 
Q 806 3050 800 2363 
Q 1003 2672 1297 2822 
Q 1591 2972 1913 2972 
Q 2475 2972 2870 2558 
Q 3266 2144 3266 1488 
Q 3266 1056 3080 686 
Q 2894 316 2569 119 
Q 2244 -78 1831 -78 
Q 1128 -78 684 439 
Q 241 956 241 2144 
Q 241 3472 731 4075 
Q 1159 4600 1884 4600 
Q 2425 4600 2770 4297 
Q 3116 3994 3184 3459 
z
M 888 1484 
Q 888 1194 1011 928 
Q 1134 663 1356 523 
Q 1578 384 1822 384 
Q 2178 384 2434 671 
Q 2691 959 2691 1453 
Q 2691 1928 2437 2201 
Q 2184 2475 1800 2475 
Q 1419 2475 1153 2201 
Q 888 1928 888 1484 
z
" transform="scale(0.015625)"/>
       </defs>
       <use xlink:href="#ArialMT-2212"/>
       <use xlink:href="#ArialMT-30" x="58.398438"/>
       <use xlink:href="#ArialMT-2e" x="114.013672"/>
       <use xlink:href="#ArialMT-36" x="141.796875"/>
      </g>
     </g>
    </g>
    <g id="ytick_2">
     <g id="line2d_8">
      <g>
       <use xlink:href="#m0347c5bb20" x="45.88075" y="221.840629" style="fill: #262626; stroke: #262626"/>
      </g>
     </g>
     <g id="text_9">
      <!-- −0.4 -->
      <g style="fill: #262626" transform="translate(20.209 224.990067) scale(0.088 -0.088)">
       <use xlink:href="#ArialMT-2212"/>
       <use xlink:href="#ArialMT-30" x="58.398438"/>
       <use xlink:href="#ArialMT-2e" x="114.013672"/>
       <use xlink:href="#ArialMT-34" x="141.796875"/>
      </g>
     </g>
    </g>
    <g id="ytick_3">
     <g id="line2d_9">
      <g>
       <use xlink:href="#m0347c5bb20" x="45.88075" y="187.953408" style="fill: #262626; stroke: #262626"/>
      </g>
     </g>
     <g id="text_10">
      <!-- −0.2 -->
      <g style="fill: #262626" transform="translate(20.209 191.102846) scale(0.088 -0.088)">
       <use xlink:href="#ArialMT-2212"/>
       <use xlink:href="#ArialMT-30" x="58.398438"/>
       <use xlink:href="#ArialMT-2e" x="114.013672"/>
       <use xlink:href="#ArialMT-32" x="141.796875"/>
      </g>
     </g>
    </g>
    <g id="ytick_4">
     <g id="line2d_10">
      <g>
       <use xlink:href="#m0347c5bb20" x="45.88075" y="154.066188" style="fill: #262626; stroke: #262626"/>
      </g>
     </g>
     <g id="text_11">
      <!-- 0.0 -->
      <g style="fill: #262626" transform="translate(25.34875 157.215625) scale(0.088 -0.088)">
       <use xlink:href="#ArialMT-30"/>
       <use xlink:href="#ArialMT-2e" x="55.615234"/>
       <use xlink:href="#ArialMT-30" x="83.398438"/>
      </g>
     </g>
    </g>
    <g id="ytick_5">
     <g id="line2d_11">
      <g>
       <use xlink:href="#m0347c5bb20" x="45.88075" y="120.178967" style="fill: #262626; stroke: #262626"/>
      </g>
     </g>
     <g id="text_12">
      <!-- 0.2 -->
      <g style="fill: #262626" transform="translate(25.34875 123.328404) scale(0.088 -0.088)">
       <use xlink:href="#ArialMT-30"/>
       <use xlink:href="#ArialMT-2e" x="55.615234"/>
       <use xlink:href="#ArialMT-32" x="83.398438"/>
      </g>
     </g>
    </g>
    <g id="ytick_6">
     <g id="line2d_12">
      <g>
       <use xlink:href="#m0347c5bb20" x="45.88075" y="86.291746" style="fill: #262626; stroke: #262626"/>
      </g>
     </g>
     <g id="text_13">
      <!-- 0.4 -->
      <g style="fill: #262626" transform="translate(25.34875 89.441184) scale(0.088 -0.088)">
       <use xlink:href="#ArialMT-30"/>
       <use xlink:href="#ArialMT-2e" x="55.615234"/>
       <use xlink:href="#ArialMT-34" x="83.398438"/>
      </g>
     </g>
    </g>
    <g id="ytick_7">
     <g id="line2d_13">
      <g>
       <use xlink:href="#m0347c5bb20" x="45.88075" y="52.404526" style="fill: #262626; stroke: #262626"/>
      </g>
     </g>
     <g id="text_14">
      <!-- 0.6 -->
      <g style="fill: #262626" transform="translate(25.34875 55.553963) scale(0.088 -0.088)">
       <use xlink:href="#ArialMT-30"/>
       <use xlink:href="#ArialMT-2e" x="55.615234"/>
       <use xlink:href="#ArialMT-36" x="83.398438"/>
      </g>
     </g>
    </g>
    <g id="ytick_8">
     <g id="line2d_14">
      <g>
       <use xlink:href="#m0347c5bb20" x="45.88075" y="18.517305" style="fill: #262626; stroke: #262626"/>
      </g>
     </g>
     <g id="text_15">
      <!-- 0.8 -->
      <g style="fill: #262626" transform="translate(25.34875 21.666742) scale(0.088 -0.088)">
       <defs>
        <path id="ArialMT-38" d="M 1131 2484 
Q 781 2613 612 2850 
Q 444 3088 444 3419 
Q 444 3919 803 4259 
Q 1163 4600 1759 4600 
Q 2359 4600 2725 4251 
Q 3091 3903 3091 3403 
Q 3091 3084 2923 2848 
Q 2756 2613 2416 2484 
Q 2838 2347 3058 2040 
Q 3278 1734 3278 1309 
Q 3278 722 2862 322 
Q 2447 -78 1769 -78 
Q 1091 -78 675 323 
Q 259 725 259 1325 
Q 259 1772 486 2073 
Q 713 2375 1131 2484 
z
M 1019 3438 
Q 1019 3113 1228 2906 
Q 1438 2700 1772 2700 
Q 2097 2700 2305 2904 
Q 2513 3109 2513 3406 
Q 2513 3716 2298 3927 
Q 2084 4138 1766 4138 
Q 1444 4138 1231 3931 
Q 1019 3725 1019 3438 
z
M 838 1322 
Q 838 1081 952 856 
Q 1066 631 1291 507 
Q 1516 384 1775 384 
Q 2178 384 2440 643 
Q 2703 903 2703 1303 
Q 2703 1709 2433 1975 
Q 2163 2241 1756 2241 
Q 1359 2241 1098 1978 
Q 838 1716 838 1322 
z
" transform="scale(0.015625)"/>
       </defs>
       <use xlink:href="#ArialMT-30"/>
       <use xlink:href="#ArialMT-2e" x="55.615234"/>
       <use xlink:href="#ArialMT-38" x="83.398438"/>
      </g>
     </g>
    </g>
    <g id="text_16">
     <!-- v(t) -->
     <g style="fill: #262626" transform="translate(14.1885 147.186) rotate(-90) scale(0.096 -0.096)">
      <defs>
       <path id="ArialMT-76" d="M 1344 0 
L 81 3319 
L 675 3319 
L 1388 1331 
Q 1503 1009 1600 663 
Q 1675 925 1809 1294 
L 2547 3319 
L 3125 3319 
L 1869 0 
L 1344 0 
z
" transform="scale(0.015625)"/>
       <path id="ArialMT-28" d="M 1497 -1347 
Q 1031 -759 709 28 
Q 388 816 388 1659 
Q 388 2403 628 3084 
Q 909 3875 1497 4659 
L 1900 4659 
Q 1522 4009 1400 3731 
Q 1209 3300 1100 2831 
Q 966 2247 966 1656 
Q 966 153 1900 -1347 
L 1497 -1347 
z
" transform="scale(0.015625)"/>
       <path id="ArialMT-29" d="M 791 -1347 
L 388 -1347 
Q 1322 153 1322 1656 
Q 1322 2244 1188 2822 
Q 1081 3291 891 3722 
Q 769 4003 388 4659 
L 791 4659 
Q 1378 3875 1659 3084 
Q 1900 2403 1900 1659 
Q 1900 816 1576 28 
Q 1253 -759 791 -1347 
z
" transform="scale(0.015625)"/>
      </defs>
      <use xlink:href="#ArialMT-76"/>
      <use xlink:href="#ArialMT-28" x="50"/>
      <use xlink:href="#ArialMT-74" x="83.300781"/>
      <use xlink:href="#ArialMT-29" x="111.083984"/>
     </g>
    </g>
   </g>
   <g id="PolyCollection_1">
    <defs>
     <path id="m6e6a23ee0f" d="M 62.113477 -155.573187 
L 62.113477 -155.573187 
L 63.744907 -156.98247 
L 65.376337 -158.386466 
L 67.007767 -159.78343 
L 68.639197 -161.171618 
L 70.270627 -162.549303 
L 71.902057 -163.914763 
L 73.533486 -165.266298 
L 75.164916 -166.602205 
L 76.796346 -167.920809 
L 78.427776 -169.220439 
L 80.059206 -170.499445 
L 81.690636 -171.756187 
L 83.322066 -172.989041 
L 84.953496 -174.19641 
L 86.584925 -175.376685 
L 88.216355 -176.528302 
L 89.847785 -177.649689 
L 91.479215 -178.73931 
L 93.110645 -179.795618 
L 94.742075 -180.817095 
L 96.373505 -181.802242 
L 98.004935 -182.74955 
L 99.636364 -183.657547 
L 101.267794 -184.524751 
L 102.899224 -185.349697 
L 104.530654 -186.130937 
L 106.162084 -186.867028 
L 107.793514 -187.556509 
L 109.424944 -188.197978 
L 111.056374 -188.790005 
L 112.687803 -189.331182 
L 114.319233 -189.820101 
L 115.950663 -190.255358 
L 117.582093 -190.635577 
L 119.213523 -190.959374 
L 120.844953 -191.225394 
L 122.476383 -191.432276 
L 124.107813 -191.578696 
L 125.739242 -191.663325 
L 127.370672 -191.684894 
L 129.002102 -191.642101 
L 130.633532 -191.533722 
L 132.264962 -191.358557 
L 133.896392 -191.115419 
L 135.527822 -190.803193 
L 137.159252 -190.420805 
L 138.790681 -189.967228 
L 140.422111 -189.441521 
L 142.053541 -188.842811 
L 143.684971 -188.170286 
L 145.316401 -187.423243 
L 146.947831 -186.601099 
L 148.579261 -185.703345 
L 150.210691 -184.729633 
L 151.84212 -183.679765 
L 153.47355 -182.553653 
L 155.10498 -181.351409 
L 156.73641 -180.073318 
L 158.36784 -178.719869 
L 159.99927 -177.291729 
L 161.6307 -175.789826 
L 163.26213 -174.215288 
L 164.89356 -172.569489 
L 166.524989 -170.854038 
L 168.156419 -169.07081 
L 169.787849 -167.221906 
L 171.419279 -165.309681 
L 173.050709 -163.336737 
L 174.682139 -161.305874 
L 176.313569 -159.220152 
L 177.944999 -157.082806 
L 179.576428 -154.897254 
L 181.207858 -152.667089 
L 182.839288 -150.396039 
L 184.470718 -148.087957 
L 186.102148 -145.746777 
L 187.733578 -143.37654 
L 189.365008 -140.981306 
L 190.996438 -138.565143 
L 192.627867 -136.132146 
L 194.259297 -133.686358 
L 195.890727 -131.231786 
L 197.522157 -128.772345 
L 199.153587 -126.311872 
L 200.785017 -123.854093 
L 202.416447 -121.402571 
L 204.047877 -118.960748 
L 205.679306 -116.531881 
L 207.310736 -114.119111 
L 208.942166 -111.725336 
L 210.573596 -109.353276 
L 212.205026 -107.005484 
L 213.836456 -104.684279 
L 215.467886 -102.391816 
L 217.099316 -100.130039 
L 218.730745 -97.900736 
L 220.362175 -95.705442 
L 221.993605 -93.545602 
L 223.625035 -91.422472 
L 225.256465 -89.337138 
L 226.887895 -87.290595 
L 228.519325 -85.283706 
L 230.150755 -83.317229 
L 231.782184 -81.391881 
L 233.413614 -79.508258 
L 235.045044 -77.667022 
L 236.676474 -75.868726 
L 238.307904 -74.114045 
L 239.939334 -72.403582 
L 241.570764 -70.738026 
L 243.202194 -69.118178 
L 244.833623 -67.544948 
L 246.465053 -66.019336 
L 248.096483 -64.542482 
L 249.727913 -63.115711 
L 251.359343 -61.740516 
L 252.990773 -60.418533 
L 254.622203 -59.151662 
L 256.253633 -57.941932 
L 257.885062 -56.791585 
L 259.516492 -55.703126 
L 261.147922 -54.679079 
L 262.779352 -53.722263 
L 264.410782 -52.835555 
L 266.042212 -52.021834 
L 267.673642 -51.284149 
L 269.305072 -50.62538 
L 270.936501 -50.048363 
L 272.567931 -49.555685 
L 274.199361 -49.149657 
L 275.830791 -48.83221 
L 277.462221 -48.604787 
L 279.093651 -48.468367 
L 280.725081 -48.423375 
L 282.356511 -48.46974 
L 283.98794 -48.607089 
L 285.61937 -48.834876 
L 287.2508 -49.152829 
L 288.88223 -49.561068 
L 290.51366 -50.060674 
L 292.14509 -50.653839 
L 293.77652 -51.34429 
L 295.40795 -52.137005 
L 297.03938 -53.038437 
L 298.670809 -54.056162 
L 300.302239 -55.198672 
L 301.933669 -56.474976 
L 303.565099 -57.894405 
L 305.196529 -59.466241 
L 306.827959 -61.199513 
L 308.459389 -63.102703 
L 310.090819 -65.183609 
L 311.722248 -67.449117 
L 313.353678 -69.905197 
L 314.985108 -72.556595 
L 316.616538 -75.406785 
L 318.247968 -78.457908 
L 319.879398 -81.710652 
L 321.510828 -85.164127 
L 323.142258 -88.815848 
L 324.773687 -92.661717 
L 326.405117 -96.69594 
L 328.036547 -100.911079 
L 329.667977 -105.298041 
L 331.299407 -109.846131 
L 332.930837 -114.543107 
L 334.562267 -119.37535 
L 336.193697 -124.327906 
L 337.825126 -129.384658 
L 339.456556 -134.528453 
L 341.087986 -139.741395 
L 342.719416 -145.004955 
L 344.350846 -150.300166 
L 345.982276 -155.60781 
L 347.613706 -160.908808 
L 349.245136 -166.1844 
L 350.876565 -171.415883 
L 352.507995 -176.585513 
L 354.139425 -181.67634 
L 355.770855 -186.672354 
L 357.402285 -191.558677 
L 359.033715 -196.32172 
L 360.665145 -200.949181 
L 362.296575 -205.430268 
L 363.928004 -209.755655 
L 365.559434 -213.917446 
L 367.190864 -217.909358 
L 368.822294 -221.72653 
L 370.453724 -225.365582 
L 372.085154 -228.824581 
L 373.716584 -232.102724 
L 375.348014 -235.200667 
L 376.979443 -238.120077 
L 378.610873 -240.863762 
L 380.242303 -243.435376 
L 381.873733 -245.839435 
L 383.505163 -248.08122 
L 385.136593 -250.166671 
L 386.768023 -252.102188 
L 386.768023 -290.343375 
L 386.768023 -290.343375 
L 385.136593 -289.239888 
L 383.505163 -288.066071 
L 381.873733 -286.81449 
L 380.242303 -285.477005 
L 378.610873 -284.045002 
L 376.979443 -282.509422 
L 375.348014 -280.860953 
L 373.716584 -279.089981 
L 372.085154 -277.186862 
L 370.453724 -275.14195 
L 368.822294 -272.945964 
L 367.190864 -270.589745 
L 365.559434 -268.064657 
L 363.928004 -265.362743 
L 362.296575 -262.476812 
L 360.665145 -259.400612 
L 359.033715 -256.128913 
L 357.402285 -252.657764 
L 355.770855 -248.984683 
L 354.139425 -245.108568 
L 352.507995 -241.029994 
L 350.876565 -236.751305 
L 349.245136 -232.276627 
L 347.613706 -227.611862 
L 345.982276 -222.765114 
L 344.350846 -217.746075 
L 342.719416 -212.566418 
L 341.087986 -207.239642 
L 339.456556 -201.780975 
L 337.825126 -196.207208 
L 336.193697 -190.536582 
L 334.562267 -184.788665 
L 332.930837 -178.984073 
L 331.299407 -173.144274 
L 329.667977 -167.291312 
L 328.036547 -161.447723 
L 326.405117 -155.636146 
L 324.773687 -149.879063 
L 323.142258 -144.198606 
L 321.510828 -138.616421 
L 319.879398 -133.153334 
L 318.247968 -127.829191 
L 316.616538 -122.662663 
L 314.985108 -117.671222 
L 313.353678 -112.870921 
L 311.722248 -108.27633 
L 310.090819 -103.900472 
L 308.459389 -99.754754 
L 306.827959 -95.849129 
L 305.196529 -92.191822 
L 303.565099 -88.789454 
L 301.933669 -85.647049 
L 300.302239 -82.767935 
L 298.670809 -80.153758 
L 297.03938 -77.80437 
L 295.40795 -75.717703 
L 293.77652 -73.889717 
L 292.14509 -72.314255 
L 290.51366 -70.983203 
L 288.88223 -69.886291 
L 287.2508 -69.011652 
L 285.61937 -68.346005 
L 283.98794 -67.875211 
L 282.356511 -67.584557 
L 280.725081 -67.459458 
L 279.093651 -67.485767 
L 277.462221 -67.65008 
L 275.830791 -67.939897 
L 274.199361 -68.343793 
L 272.567931 -68.851499 
L 270.936501 -69.453794 
L 269.305072 -70.142487 
L 267.673642 -70.910434 
L 266.042212 -71.751261 
L 264.410782 -72.6595 
L 262.779352 -73.630309 
L 261.147922 -74.659592 
L 259.516492 -75.743779 
L 257.885062 -76.879745 
L 256.253633 -78.064949 
L 254.622203 -79.29708 
L 252.990773 -80.574252 
L 251.359343 -81.894886 
L 249.727913 -83.257594 
L 248.096483 -84.661263 
L 246.465053 -86.104921 
L 244.833623 -87.587738 
L 243.202194 -89.109017 
L 241.570764 -90.668174 
L 239.939334 -92.264617 
L 238.307904 -93.897831 
L 236.676474 -95.567336 
L 235.045044 -97.272668 
L 233.413614 -99.013257 
L 231.782184 -100.788576 
L 230.150755 -102.597955 
L 228.519325 -104.440757 
L 226.887895 -106.316195 
L 225.256465 -108.22341 
L 223.625035 -110.161437 
L 221.993605 -112.129181 
L 220.362175 -114.125466 
L 218.730745 -116.148963 
L 217.099316 -118.198187 
L 215.467886 -120.271594 
L 213.836456 -122.367456 
L 212.205026 -124.483931 
L 210.573596 -126.619016 
L 208.942166 -128.770626 
L 207.310736 -130.936521 
L 205.679306 -133.114363 
L 204.047877 -135.301704 
L 202.416447 -137.49596 
L 200.785017 -139.694478 
L 199.153587 -141.89453 
L 197.522157 -144.093312 
L 195.890727 -146.28795 
L 194.259297 -148.475514 
L 192.627867 -150.653051 
L 190.996438 -152.81756 
L 189.365008 -154.966046 
L 187.733578 -157.095486 
L 186.102148 -159.202888 
L 184.470718 -161.285263 
L 182.839288 -163.339634 
L 181.207858 -165.363081 
L 179.576428 -167.352721 
L 177.944999 -169.305717 
L 176.313569 -171.219296 
L 174.682139 -173.090747 
L 173.050709 -174.917437 
L 171.419279 -176.696777 
L 169.787849 -178.426306 
L 168.156419 -180.103608 
L 166.524989 -181.726384 
L 164.89356 -183.292439 
L 163.26213 -184.799655 
L 161.6307 -186.246055 
L 159.99927 -187.629763 
L 158.36784 -188.949044 
L 156.73641 -190.202264 
L 155.10498 -191.387968 
L 153.47355 -192.504814 
L 151.84212 -193.551621 
L 150.210691 -194.527351 
L 148.579261 -195.431142 
L 146.947831 -196.262256 
L 145.316401 -197.020108 
L 143.684971 -197.704305 
L 142.053541 -198.314553 
L 140.422111 -198.850723 
L 138.790681 -199.312852 
L 137.159252 -199.701064 
L 135.527822 -200.015613 
L 133.896392 -200.256903 
L 132.264962 -200.425423 
L 130.633532 -200.521764 
L 129.002102 -200.546633 
L 127.370672 -200.500798 
L 125.739242 -200.385102 
L 124.107813 -200.200514 
L 122.476383 -199.947999 
L 120.844953 -199.628628 
L 119.213523 -199.243501 
L 117.582093 -198.793784 
L 115.950663 -198.280685 
L 114.319233 -197.705454 
L 112.687803 -197.06936 
L 111.056374 -196.373731 
L 109.424944 -195.61992 
L 107.793514 -194.80931 
L 106.162084 -193.94332 
L 104.530654 -193.023363 
L 102.899224 -192.050936 
L 101.267794 -191.027531 
L 99.636364 -189.954667 
L 98.004935 -188.833901 
L 96.373505 -187.666815 
L 94.742075 -186.455007 
L 93.110645 -185.200138 
L 91.479215 -183.903863 
L 89.847785 -182.567873 
L 88.216355 -181.193915 
L 86.584925 -179.783739 
L 84.953496 -178.33914 
L 83.322066 -176.86193 
L 81.690636 -175.353979 
L 80.059206 -173.817159 
L 78.427776 -172.253384 
L 76.796346 -170.6646 
L 75.164916 -169.052771 
L 73.533486 -167.419898 
L 71.902057 -165.768003 
L 70.270627 -164.099134 
L 68.639197 -162.415357 
L 67.007767 -160.718762 
L 65.376337 -159.011451 
L 63.744907 -157.295549 
L 62.113477 -155.573187 
z
" style="stroke: #ffffff; stroke-opacity: 0.5; stroke-width: 0.8"/>
    </defs>
    <g clip-path="url(#pdd834b1910)">
     <use xlink:href="#m6e6a23ee0f" x="0" y="309.639375" style="fill: #1f77b4; fill-opacity: 0.5; stroke: #ffffff; stroke-opacity: 0.5; stroke-width: 0.8"/>
    </g>
   </g>
   <g id="line2d_15">
    <path d="M 62.113477 154.066188 
L 71.902057 144.797992 
L 78.427776 138.902464 
L 83.322066 134.713889 
L 88.216355 130.778267 
L 93.110645 127.141497 
L 98.004935 123.84765 
L 101.267794 121.863234 
L 104.530654 120.062225 
L 107.793514 118.456466 
L 111.056374 117.057507 
L 114.319233 115.876598 
L 117.582093 114.924694 
L 120.844953 114.212364 
L 124.107813 113.749771 
L 127.370672 113.54653 
L 130.633532 113.611632 
L 133.896392 113.953214 
L 137.159252 114.578442 
L 140.422111 115.493253 
L 143.684971 116.702079 
L 146.947831 118.207698 
L 150.210691 120.010883 
L 153.47355 122.110141 
L 156.73641 124.501584 
L 159.99927 127.178629 
L 163.26213 130.131904 
L 166.524989 133.349164 
L 169.787849 136.815269 
L 174.682139 142.441065 
L 179.576428 148.514388 
L 184.470718 154.952765 
L 190.996438 163.948023 
L 215.467886 198.30767 
L 221.993605 206.801983 
L 226.887895 212.83598 
L 231.782184 218.549146 
L 236.676474 223.921344 
L 241.570764 228.936273 
L 246.465053 233.577244 
L 251.359343 237.821677 
L 254.622203 240.415004 
L 257.885062 242.803713 
L 261.147922 244.970037 
L 264.410782 246.89185 
L 267.673642 248.542086 
L 270.936501 249.888297 
L 274.199361 250.89265 
L 277.462221 251.511942 
L 279.093651 251.662308 
L 280.725081 251.697958 
L 282.356511 251.612226 
L 283.98794 251.398225 
L 285.61937 251.048935 
L 287.2508 250.557135 
L 288.88223 249.915696 
L 290.51366 249.117436 
L 292.14509 248.155328 
L 293.77652 247.022372 
L 295.40795 245.712024 
L 297.03938 244.217971 
L 298.670809 242.534418 
L 300.302239 240.656072 
L 301.933669 238.578363 
L 303.565099 236.297448 
L 305.196529 233.810343 
L 308.459389 228.210647 
L 311.722248 221.776652 
L 314.985108 214.525467 
L 318.247968 206.495827 
L 321.510828 197.7491 
L 324.773687 188.368985 
L 329.667977 173.344699 
L 336.193697 152.207132 
L 344.350846 125.616256 
L 349.245136 110.408862 
L 352.507995 100.831619 
L 355.770855 91.810856 
L 359.033715 83.41406 
L 362.296575 75.685835 
L 365.559434 68.648323 
L 368.822294 62.303131 
L 372.085154 56.633654 
L 375.348014 51.608565 
L 378.610873 47.184993 
L 381.873733 43.312413 
L 385.136593 39.936096 
L 386.768023 38.416593 
L 386.768023 38.416593 
" clip-path="url(#pdd834b1910)" style="fill: none; stroke: #1f77b4; stroke-width: 1.2; stroke-linecap: round"/>
   </g>
   <g id="patch_3">
    <path d="M 45.88075 255.72785 
L 45.88075 18.517305 
" style="fill: none; stroke: #262626; stroke-linejoin: miter; stroke-linecap: square"/>
   </g>
   <g id="patch_4">
    <path d="M 62.113477 273.312 
L 388.23631 273.312 
" style="fill: none; stroke: #262626; stroke-linejoin: miter; stroke-linecap: square"/>
   </g>
  </g>
 </g>
 <defs>
  <clipPath id="pdd834b1910">
   <rect x="45.88075" y="7.2" width="357.12" height="266.112"/>
  </clipPath>
 </defs>
</svg>