<?xml version="1.0" encoding="utf-8" standalone="no"?>
<!DOCTYPE svg PUBLIC "-//W3C//DTD SVG 1.1//EN"
  "http://www.w3.org/Graphics/SVG/1.1/DTD/svg11.dtd">
<svg xmlns:xlink="http://www.w3.org/1999/xlink" width="515.373625pt" height="389.598008pt" viewBox="0 0 515.373625 389.598008" xmlns="http://www.w3.org/2000/svg" version="1.1">
 <metadata>
  <rdf:RDF xmlns:dc="http://purl.org/dc/elements/1.1/" xmlns:cc="http://creativecommons.org/ns#" xmlns:rdf="http://www.w3.org/1999/02/22-rdf-syntax-ns#">
   <cc:Work>
    <dc:type rdf:resource="http://purl.org/dc/dcmitype/StillImage"/>
    <dc:date>2024-12-18T19:46:24.567619</dc:date>
    <dc:format>image/svg+xml</dc:format>
    <dc:creator>
     <cc:Agent>
      <dc:title>Matplotlib v3.8.0, https://matplotlib.org/</dc:title>
     </cc:Agent>
    </dc:creator>
   </cc:Work>
  </rdf:RDF>
 </metadata>
 <defs>
  <style type="text/css">*{stroke-linejoin: round; stroke-linecap: butt}</style>
 </defs>
 <g id="figure_1">
  <g id="patch_1">
   <path d="M 0 389.598008 
L 515.373625 389.598008 
L 515.373625 0 
L 0 0 
z
" style="fill: #ffffff"/>
  </g>
  <g id="axes_1">
   <g id="patch_2">
    <path d="M 61.773625 340.676508 
L 508.173625 340.676508 
L 508.173625 8.036508 
L 61.773625 8.036508 
z
" style="fill: #ffffff"/>
   </g>
   <g id="matplotlib.axis_1">
    <g id="xtick_1">
     <g id="line2d_1">
      <defs>
       <path id="m1ea10688b0" d="M 0 0 
L 0 4.8 
" style="stroke: #262626"/>
      </defs>
      <g>
       <use xlink:href="#m1ea10688b0" x="82.064534" y="340.676508" style="fill: #262626; stroke: #262626"/>
      </g>
     </g>
     <g id="text_1">
      <!-- 0.0 -->
      <g style="fill: #262626" transform="translate(75.067159 355.663133) scale(0.088 -0.088)">
       <defs>
        <path id="DejaVuSans-30" d="M 2034 4250 
Q 1547 4250 1301 3770 
Q 1056 3291 1056 2328 
Q 1056 1369 1301 889 
Q 1547 409 2034 409 
Q 2525 409 2770 889 
Q 3016 1369 3016 2328 
Q 3016 3291 2770 3770 
Q 2525 4250 2034 4250 
z
M 2034 4750 
Q 2819 4750 3233 4129 
Q 3647 3509 3647 2328 
Q 3647 1150 3233 529 
Q 2819 -91 2034 -91 
Q 1250 -91 836 529 
Q 422 1150 422 2328 
Q 422 3509 836 4129 
Q 1250 4750 2034 4750 
z
" transform="scale(0.015625)"/>
        <path id="DejaVuSans-2e" d="M 684 794 
L 1344 794 
L 1344 0 
L 684 0 
L 684 794 
z
" transform="scale(0.015625)"/>
       </defs>
       <use xlink:href="#DejaVuSans-30"/>
       <use xlink:href="#DejaVuSans-2e" x="63.623047"/>
       <use xlink:href="#DejaVuSans-30" x="95.410156"/>
      </g>
     </g>
    </g>
    <g id="xtick_2">
     <g id="line2d_2">
      <g>
       <use xlink:href="#m1ea10688b0" x="163.22817" y="340.676508" style="fill: #262626; stroke: #262626"/>
      </g>
     </g>
     <g id="text_2">
      <!-- 0.2 -->
      <g style="fill: #262626" transform="translate(156.230795 355.663133) scale(0.088 -0.088)">
       <defs>
        <path id="DejaVuSans-32" d="M 1228 531 
L 3431 531 
L 3431 0 
L 469 0 
L 469 531 
Q 828 903 1448 1529 
Q 2069 2156 2228 2338 
Q 2531 2678 2651 2914 
Q 2772 3150 2772 3378 
Q 2772 3750 2511 3984 
Q 2250 4219 1831 4219 
Q 1534 4219 1204 4116 
Q 875 4013 500 3803 
L 500 4441 
Q 881 4594 1212 4672 
Q 1544 4750 1819 4750 
Q 2544 4750 2975 4387 
Q 3406 4025 3406 3419 
Q 3406 3131 3298 2873 
Q 3191 2616 2906 2266 
Q 2828 2175 2409 1742 
Q 1991 1309 1228 531 
z
" transform="scale(0.015625)"/>
       </defs>
       <use xlink:href="#DejaVuSans-30"/>
       <use xlink:href="#DejaVuSans-2e" x="63.623047"/>
       <use xlink:href="#DejaVuSans-32" x="95.410156"/>
      </g>
     </g>
    </g>
    <g id="xtick_3">
     <g id="line2d_3">
      <g>
       <use xlink:href="#m1ea10688b0" x="244.391807" y="340.676508" style="fill: #262626; stroke: #262626"/>
      </g>
     </g>
     <g id="text_3">
      <!-- 0.4 -->
      <g style="fill: #262626" transform="translate(237.394432 355.663133) scale(0.088 -0.088)">
       <defs>
        <path id="DejaVuSans-34" d="M 2419 4116 
L 825 1625 
L 2419 1625 
L 2419 4116 
z
M 2253 4666 
L 3047 4666 
L 3047 1625 
L 3713 1625 
L 3713 1100 
L 3047 1100 
L 3047 0 
L 2419 0 
L 2419 1100 
L 313 1100 
L 313 1709 
L 2253 4666 
z
" transform="scale(0.015625)"/>
       </defs>
       <use xlink:href="#DejaVuSans-30"/>
       <use xlink:href="#DejaVuSans-2e" x="63.623047"/>
       <use xlink:href="#DejaVuSans-34" x="95.410156"/>
      </g>
     </g>
    </g>
    <g id="xtick_4">
     <g id="line2d_4">
      <g>
       <use xlink:href="#m1ea10688b0" x="325.555443" y="340.676508" style="fill: #262626; stroke: #262626"/>
      </g>
     </g>
     <g id="text_4">
      <!-- 0.6 -->
      <g style="fill: #262626" transform="translate(318.558068 355.663133) scale(0.088 -0.088)">
       <defs>
        <path id="DejaVuSans-36" d="M 2113 2584 
Q 1688 2584 1439 2293 
Q 1191 2003 1191 1497 
Q 1191 994 1439 701 
Q 1688 409 2113 409 
Q 2538 409 2786 701 
Q 3034 994 3034 1497 
Q 3034 2003 2786 2293 
Q 2538 2584 2113 2584 
z
M 3366 4563 
L 3366 3988 
Q 3128 4100 2886 4159 
Q 2644 4219 2406 4219 
Q 1781 4219 1451 3797 
Q 1122 3375 1075 2522 
Q 1259 2794 1537 2939 
Q 1816 3084 2150 3084 
Q 2853 3084 3261 2657 
Q 3669 2231 3669 1497 
Q 3669 778 3244 343 
Q 2819 -91 2113 -91 
Q 1303 -91 875 529 
Q 447 1150 447 2328 
Q 447 3434 972 4092 
Q 1497 4750 2381 4750 
Q 2619 4750 2861 4703 
Q 3103 4656 3366 4563 
z
" transform="scale(0.015625)"/>
       </defs>
       <use xlink:href="#DejaVuSans-30"/>
       <use xlink:href="#DejaVuSans-2e" x="63.623047"/>
       <use xlink:href="#DejaVuSans-36" x="95.410156"/>
      </g>
     </g>
    </g>
    <g id="xtick_5">
     <g id="line2d_5">
      <g>
       <use xlink:href="#m1ea10688b0" x="406.71908" y="340.676508" style="fill: #262626; stroke: #262626"/>
      </g>
     </g>
     <g id="text_5">
      <!-- 0.8 -->
      <g style="fill: #262626" transform="translate(399.721705 355.663133) scale(0.088 -0.088)">
       <defs>
        <path id="DejaVuSans-38" d="M 2034 2216 
Q 1584 2216 1326 1975 
Q 1069 1734 1069 1313 
Q 1069 891 1326 650 
Q 1584 409 2034 409 
Q 2484 409 2743 651 
Q 3003 894 3003 1313 
Q 3003 1734 2745 1975 
Q 2488 2216 2034 2216 
z
M 1403 2484 
Q 997 2584 770 2862 
Q 544 3141 544 3541 
Q 544 4100 942 4425 
Q 1341 4750 2034 4750 
Q 2731 4750 3128 4425 
Q 3525 4100 3525 3541 
Q 3525 3141 3298 2862 
Q 3072 2584 2669 2484 
Q 3125 2378 3379 2068 
Q 3634 1759 3634 1313 
Q 3634 634 3220 271 
Q 2806 -91 2034 -91 
Q 1263 -91 848 271 
Q 434 634 434 1313 
Q 434 1759 690 2068 
Q 947 2378 1403 2484 
z
M 1172 3481 
Q 1172 3119 1398 2916 
Q 1625 2713 2034 2713 
Q 2441 2713 2670 2916 
Q 2900 3119 2900 3481 
Q 2900 3844 2670 4047 
Q 2441 4250 2034 4250 
Q 1625 4250 1398 4047 
Q 1172 3844 1172 3481 
z
" transform="scale(0.015625)"/>
       </defs>
       <use xlink:href="#DejaVuSans-30"/>
       <use xlink:href="#DejaVuSans-2e" x="63.623047"/>
       <use xlink:href="#DejaVuSans-38" x="95.410156"/>
      </g>
     </g>
    </g>
    <g id="xtick_6">
     <g id="line2d_6">
      <g>
       <use xlink:href="#m1ea10688b0" x="487.882716" y="340.676508" style="fill: #262626; stroke: #262626"/>
      </g>
     </g>
     <g id="text_6">
      <!-- 1.0 -->
      <g style="fill: #262626" transform="translate(480.885341 355.663133) scale(0.088 -0.088)">
       <defs>
        <path id="DejaVuSans-31" d="M 794 531 
L 1825 531 
L 1825 4091 
L 703 3866 
L 703 4441 
L 1819 4666 
L 2450 4666 
L 2450 531 
L 3481 531 
L 3481 0 
L 794 0 
L 794 531 
z
" transform="scale(0.015625)"/>
       </defs>
       <use xlink:href="#DejaVuSans-31"/>
       <use xlink:href="#DejaVuSans-2e" x="63.623047"/>
       <use xlink:href="#DejaVuSans-30" x="95.410156"/>
      </g>
     </g>
    </g>
    <g id="text_7">
     <!-- x -->
     <g style="fill: #262626" transform="translate(278.581375 377.905883) scale(0.216 -0.216)">
      <defs>
       <path id="DejaVuSans-78" d="M 3513 3500 
L 2247 1797 
L 3578 0 
L 2900 0 
L 1881 1375 
L 863 0 
L 184 0 
L 1544 1831 
L 300 3500 
L 978 3500 
L 1906 2253 
L 2834 3500 
L 3513 3500 
z
" transform="scale(0.015625)"/>
      </defs>
      <use xlink:href="#DejaVuSans-78"/>
     </g>
    </g>
   </g>
   <g id="matplotlib.axis_2">
    <g id="ytick_1">
     <g id="line2d_7">
      <defs>
       <path id="m06bdc9940e" d="M 0 0 
L -4.8 0 
" style="stroke: #000000"/>
      </defs>
      <g>
       <use xlink:href="#m06bdc9940e" x="61.773625" y="333.401446" style="stroke: #000000"/>
      </g>
     </g>
     <g id="text_8">
      <!-- −1.5 -->
      <g style="fill: #262626" transform="translate(32.10475 336.744759) scale(0.088 -0.088)">
       <defs>
        <path id="DejaVuSans-2212" d="M 678 2272 
L 4684 2272 
L 4684 1741 
L 678 1741 
L 678 2272 
z
" transform="scale(0.015625)"/>
        <path id="DejaVuSans-35" d="M 691 4666 
L 3169 4666 
L 3169 4134 
L 1269 4134 
L 1269 2991 
Q 1406 3038 1543 3061 
Q 1681 3084 1819 3084 
Q 2600 3084 3056 2656 
Q 3513 2228 3513 1497 
Q 3513 744 3044 326 
Q 2575 -91 1722 -91 
Q 1428 -91 1123 -41 
Q 819 9 494 109 
L 494 744 
Q 775 591 1075 516 
Q 1375 441 1709 441 
Q 2250 441 2565 725 
Q 2881 1009 2881 1497 
Q 2881 1984 2565 2268 
Q 2250 2553 1709 2553 
Q 1456 2553 1204 2497 
Q 953 2441 691 2322 
L 691 4666 
z
" transform="scale(0.015625)"/>
       </defs>
       <use xlink:href="#DejaVuSans-2212"/>
       <use xlink:href="#DejaVuSans-31" x="83.789062"/>
       <use xlink:href="#DejaVuSans-2e" x="147.412109"/>
       <use xlink:href="#DejaVuSans-35" x="179.199219"/>
      </g>
     </g>
    </g>
    <g id="ytick_2">
     <g id="line2d_8">
      <g>
       <use xlink:href="#m06bdc9940e" x="61.773625" y="279.591757" style="stroke: #000000"/>
      </g>
     </g>
     <g id="text_9">
      <!-- −1.0 -->
      <g style="fill: #262626" transform="translate(32.10475 282.93507) scale(0.088 -0.088)">
       <use xlink:href="#DejaVuSans-2212"/>
       <use xlink:href="#DejaVuSans-31" x="83.789062"/>
       <use xlink:href="#DejaVuSans-2e" x="147.412109"/>
       <use xlink:href="#DejaVuSans-30" x="179.199219"/>
      </g>
     </g>
    </g>
    <g id="ytick_3">
     <g id="line2d_9">
      <g>
       <use xlink:href="#m06bdc9940e" x="61.773625" y="225.782068" style="stroke: #000000"/>
      </g>
     </g>
     <g id="text_10">
      <!-- −0.5 -->
      <g style="fill: #262626" transform="translate(32.10475 229.125381) scale(0.088 -0.088)">
       <use xlink:href="#DejaVuSans-2212"/>
       <use xlink:href="#DejaVuSans-30" x="83.789062"/>
       <use xlink:href="#DejaVuSans-2e" x="147.412109"/>
       <use xlink:href="#DejaVuSans-35" x="179.199219"/>
      </g>
     </g>
    </g>
    <g id="ytick_4">
     <g id="line2d_10">
      <g>
       <use xlink:href="#m06bdc9940e" x="61.773625" y="171.972379" style="stroke: #000000"/>
      </g>
     </g>
     <g id="text_11">
      <!-- 0.0 -->
      <g style="fill: #262626" transform="translate(39.478875 175.315692) scale(0.088 -0.088)">
       <use xlink:href="#DejaVuSans-30"/>
       <use xlink:href="#DejaVuSans-2e" x="63.623047"/>
       <use xlink:href="#DejaVuSans-30" x="95.410156"/>
      </g>
     </g>
    </g>
    <g id="ytick_5">
     <g id="line2d_11">
      <g>
       <use xlink:href="#m06bdc9940e" x="61.773625" y="118.16269" style="stroke: #000000"/>
      </g>
     </g>
     <g id="text_12">
      <!-- 0.5 -->
      <g style="fill: #262626" transform="translate(39.478875 121.506003) scale(0.088 -0.088)">
       <use xlink:href="#DejaVuSans-30"/>
       <use xlink:href="#DejaVuSans-2e" x="63.623047"/>
       <use xlink:href="#DejaVuSans-35" x="95.410156"/>
      </g>
     </g>
    </g>
    <g id="ytick_6">
     <g id="line2d_12">
      <g>
       <use xlink:href="#m06bdc9940e" x="61.773625" y="64.353001" style="stroke: #000000"/>
      </g>
     </g>
     <g id="text_13">
      <!-- 1.0 -->
      <g style="fill: #262626" transform="translate(39.478875 67.696314) scale(0.088 -0.088)">
       <use xlink:href="#DejaVuSans-31"/>
       <use xlink:href="#DejaVuSans-2e" x="63.623047"/>
       <use xlink:href="#DejaVuSans-30" x="95.410156"/>
      </g>
     </g>
    </g>
    <g id="ytick_7">
     <g id="line2d_13">
      <g>
       <use xlink:href="#m06bdc9940e" x="61.773625" y="10.543313" style="stroke: #000000"/>
      </g>
     </g>
     <g id="text_14">
      <!-- 1.5 -->
      <g style="fill: #262626" transform="translate(39.478875 13.886625) scale(0.088 -0.088)">
       <use xlink:href="#DejaVuSans-31"/>
       <use xlink:href="#DejaVuSans-2e" x="63.623047"/>
       <use xlink:href="#DejaVuSans-35" x="95.410156"/>
      </g>
     </g>
    </g>
    <g id="text_15">
     <!-- u -->
     <g style="fill: #262626" transform="translate(23.612625 181.201008) rotate(-90) scale(0.216 -0.216)">
      <defs>
       <path id="DejaVuSans-75" d="M 544 1381 
L 544 3500 
L 1119 3500 
L 1119 1403 
Q 1119 906 1312 657 
Q 1506 409 1894 409 
Q 2359 409 2629 706 
Q 2900 1003 2900 1516 
L 2900 3500 
L 3475 3500 
L 3475 0 
L 2900 0 
L 2900 538 
Q 2691 219 2414 64 
Q 2138 -91 1772 -91 
Q 1169 -91 856 284 
Q 544 659 544 1381 
z
M 1991 3584 
L 1991 3584 
z
" transform="scale(0.015625)"/>
      </defs>
      <use xlink:href="#DejaVuSans-75"/>
     </g>
    </g>
   </g>
   <g id="line2d_14">
    <path d="M 82.064534 313.156787 
L 86.163708 316.112887 
L 90.262881 318.773493 
L 94.362055 321.079129 
L 98.461228 322.969596 
L 102.560402 324.385145 
L 106.659575 325.267907 
L 110.758749 325.556508 
L 114.857923 325.198348 
L 118.957096 324.137476 
L 123.05627 322.330974 
L 127.155443 319.73517 
L 131.254617 316.316934 
L 135.35379 312.038877 
L 139.452964 306.888412 
L 143.552137 300.851306 
L 147.651311 293.929261 
L 151.750485 286.129457 
L 155.849658 277.475816 
L 159.948832 267.996274 
L 164.048005 257.731519 
L 168.147179 246.739419 
L 172.246352 235.086794 
L 176.345526 222.849059 
L 180.444699 210.114691 
L 184.543873 196.97737 
L 188.643046 183.543413 
L 192.74222 169.929193 
L 196.841394 156.248863 
L 200.940567 142.632513 
L 205.039741 129.202262 
L 209.138914 116.087875 
L 213.238088 103.422152 
L 217.337261 91.328151 
L 221.436435 79.922932 
L 225.535608 69.320515 
L 229.634782 59.631424 
L 233.733956 50.94244 
L 237.833129 43.344937 
L 241.932303 36.901987 
L 246.031476 31.661529 
L 250.13065 27.65843 
L 254.229823 24.910042 
L 258.328997 23.414561 
L 262.42817 23.156508 
L 266.527344 24.098149 
L 270.626518 26.179896 
L 274.725691 29.330852 
L 278.824865 33.469909 
L 282.924038 38.494692 
L 287.023212 44.303696 
L 291.122385 50.778415 
L 295.221559 57.799025 
L 299.320732 65.238604 
L 303.419906 72.976471 
L 307.51908 80.892365 
L 311.618253 88.870914 
L 315.717427 96.808408 
L 319.8166 104.606922 
L 323.915774 112.182642 
L 328.014947 119.463567 
L 332.114121 126.396053 
L 336.213294 132.937047 
L 340.312468 139.055369 
L 344.411642 144.744097 
L 348.510815 150.003196 
L 352.609989 154.851749 
L 356.709162 159.306777 
L 360.808336 163.409907 
L 364.907509 167.193958 
L 369.006683 170.711264 
L 373.105856 174.008555 
L 377.20503 177.133698 
L 381.304204 180.134572 
L 385.403377 183.054984 
L 389.502551 185.927767 
L 393.601724 188.788172 
L 397.700898 191.652993 
L 401.800071 194.536485 
L 405.899245 197.444792 
L 409.998418 200.369045 
L 414.097592 203.297808 
L 418.196765 206.203125 
L 422.295939 209.059342 
L 426.395113 211.833205 
L 430.494286 214.481777 
L 434.59346 216.963517 
L 438.692633 219.235767 
L 442.791807 221.25447 
L 446.89098 222.9831 
L 450.990154 224.383932 
L 455.089327 225.425178 
L 459.188501 226.078906 
L 463.287675 226.332197 
L 467.386848 226.158253 
L 471.486022 225.562659 
L 475.585195 224.53751 
L 479.684369 223.094396 
L 483.783542 221.242894 
L 487.882716 218.995392 
" clip-path="url(#p95d63c1b2c)" style="fill: none; stroke-dasharray: 5.55,2.4; stroke-dashoffset: 0; stroke: #000000; stroke-width: 1.5"/>
   </g>
   <g id="line2d_15">
    <path d="M 84.349961 171.972379 
L 84.544121 172.040766 
L 86.6443 172.78466 
L 90.943086 174.32984 
L 93.515066 175.267509 
L 93.840531 175.386805 
L 99.263948 177.393303 
L 101.657153 178.288164 
L 101.787514 178.337043 
L 102.226363 178.501686 
L 102.920198 178.762273 
L 106.621354 180.157111 
L 113.090864 182.604326 
L 113.806021 182.874698 
L 114.167129 183.011159 
L 115.143696 183.379956 
L 124.515203 186.882703 
L 125.978785 187.420325 
L 129.10703 188.557003 
L 138.467169 191.823328 
L 146.168065 194.302755 
L 146.179177 194.306166 
L 170.721336 200.256463 
L 172.003778 200.464013 
L 172.112032 200.480996 
L 177.276967 201.191644 
L 181.708292 201.640624 
L 182.54334 201.708104 
L 186.531869 201.953929 
L 187.954267 202.010657 
L 192.66381 202.080816 
L 208.234286 201.021426 
L 216.096107 199.758304 
L 219.225609 199.129386 
L 225.198367 197.745201 
L 227.976443 197.024959 
L 235.445907 194.876478 
L 238.179077 194.022363 
L 238.740174 193.843057 
L 240.309936 193.334707 
L 243.302685 192.340149 
L 243.95037 192.120884 
L 248.146731 190.670309 
L 249.895668 190.052517 
L 250.696517 189.767455 
L 250.710278 189.762546 
L 258.442437 186.960736 
L 259.798043 186.464027 
L 260.650926 186.151253 
L 280.881694 178.941644 
L 281.66606 178.679564 
L 282.36499 178.447646 
L 283.229885 178.162828 
L 288.824226 176.383268 
L 293.02606 175.125298 
L 293.76377 174.911953 
L 294.860677 174.599026 
L 299.332831 173.378023 
L 310.936532 170.642894 
L 311.275355 170.572678 
L 313.518065 170.121781 
L 318.620425 169.185117 
L 325.69911 168.085598 
L 332.905344 167.191712 
L 350.130695 165.853958 
L 351.689972 165.780633 
L 353.450337 165.706158 
L 366.373257 165.401481 
L 368.030217 165.390119 
L 372.246841 165.386585 
L 375.136704 165.404313 
L 381.379978 165.495582 
L 385.564047 165.59572 
L 390.491232 165.752641 
L 401.262191 166.241191 
L 409.096191 166.723109 
L 412.203723 166.944136 
L 414.512822 167.119379 
L 415.020626 167.159174 
L 415.343472 167.184709 
L 416.273058 167.259252 
L 418.0007 167.401795 
L 420.648786 167.630324 
L 422.138376 167.764167 
L 427.741326 168.30097 
L 433.95118 168.954552 
L 440.326011 169.683525 
L 441.281556 169.797346 
L 442.530767 169.947785 
L 444.14387 170.144662 
L 444.671607 170.209685 
L 445.454877 170.30673 
L 447.656604 170.582771 
L 457.779127 171.899848 
L 459.231011 172.09313 
L 460.153953 172.216304 
L 469.625069 173.482335 
L 470.289469 173.570519 
L 479.196202 174.72775 
L 483.796487 175.298299 
" clip-path="url(#p95d63c1b2c)" style="fill: none; stroke: #1f77b4; stroke-width: 1.5; stroke-linecap: round"/>
    <defs>
     <path id="m744e92f14e" d="M 0 2.4 
C 0.636487 2.4 1.246992 2.147121 1.697056 1.697056 
C 2.147121 1.246992 2.4 0.636487 2.4 0 
C 2.4 -0.636487 2.147121 -1.246992 1.697056 -1.697056 
C 1.246992 -2.147121 0.636487 -2.4 0 -2.4 
C -0.636487 -2.4 -1.246992 -2.147121 -1.697056 -1.697056 
C -2.147121 -1.246992 -2.4 -0.636487 -2.4 0 
C -2.4 0.636487 -2.147121 1.246992 -1.697056 1.697056 
C -1.246992 2.147121 -0.636487 2.4 0 2.4 
z
" style="stroke: #1f77b4"/>
    </defs>
    <g clip-path="url(#p95d63c1b2c)">
     <use xlink:href="#m744e92f14e" x="84.349961" y="171.972379" style="fill: #1f77b4; stroke: #1f77b4"/>
     <use xlink:href="#m744e92f14e" x="84.544121" y="172.040766" style="fill: #1f77b4; stroke: #1f77b4"/>
     <use xlink:href="#m744e92f14e" x="86.6443" y="172.78466" style="fill: #1f77b4; stroke: #1f77b4"/>
     <use xlink:href="#m744e92f14e" x="90.943086" y="174.32984" style="fill: #1f77b4; stroke: #1f77b4"/>
     <use xlink:href="#m744e92f14e" x="93.515066" y="175.267509" style="fill: #1f77b4; stroke: #1f77b4"/>
     <use xlink:href="#m744e92f14e" x="93.840531" y="175.386805" style="fill: #1f77b4; stroke: #1f77b4"/>
     <use xlink:href="#m744e92f14e" x="99.263948" y="177.393303" style="fill: #1f77b4; stroke: #1f77b4"/>
     <use xlink:href="#m744e92f14e" x="101.657153" y="178.288164" style="fill: #1f77b4; stroke: #1f77b4"/>
     <use xlink:href="#m744e92f14e" x="101.787514" y="178.337043" style="fill: #1f77b4; stroke: #1f77b4"/>
     <use xlink:href="#m744e92f14e" x="102.226363" y="178.501686" style="fill: #1f77b4; stroke: #1f77b4"/>
     <use xlink:href="#m744e92f14e" x="102.920198" y="178.762273" style="fill: #1f77b4; stroke: #1f77b4"/>
     <use xlink:href="#m744e92f14e" x="106.621354" y="180.157111" style="fill: #1f77b4; stroke: #1f77b4"/>
     <use xlink:href="#m744e92f14e" x="113.090864" y="182.604326" style="fill: #1f77b4; stroke: #1f77b4"/>
     <use xlink:href="#m744e92f14e" x="113.806021" y="182.874698" style="fill: #1f77b4; stroke: #1f77b4"/>
     <use xlink:href="#m744e92f14e" x="114.167129" y="183.011159" style="fill: #1f77b4; stroke: #1f77b4"/>
     <use xlink:href="#m744e92f14e" x="115.143696" y="183.379956" style="fill: #1f77b4; stroke: #1f77b4"/>
     <use xlink:href="#m744e92f14e" x="124.515203" y="186.882703" style="fill: #1f77b4; stroke: #1f77b4"/>
     <use xlink:href="#m744e92f14e" x="125.978785" y="187.420325" style="fill: #1f77b4; stroke: #1f77b4"/>
     <use xlink:href="#m744e92f14e" x="129.10703" y="188.557003" style="fill: #1f77b4; stroke: #1f77b4"/>
     <use xlink:href="#m744e92f14e" x="138.467169" y="191.823328" style="fill: #1f77b4; stroke: #1f77b4"/>
     <use xlink:href="#m744e92f14e" x="146.168065" y="194.302755" style="fill: #1f77b4; stroke: #1f77b4"/>
     <use xlink:href="#m744e92f14e" x="146.179177" y="194.306166" style="fill: #1f77b4; stroke: #1f77b4"/>
     <use xlink:href="#m744e92f14e" x="170.721336" y="200.256463" style="fill: #1f77b4; stroke: #1f77b4"/>
     <use xlink:href="#m744e92f14e" x="172.003778" y="200.464013" style="fill: #1f77b4; stroke: #1f77b4"/>
     <use xlink:href="#m744e92f14e" x="172.112032" y="200.480996" style="fill: #1f77b4; stroke: #1f77b4"/>
     <use xlink:href="#m744e92f14e" x="177.276967" y="201.191644" style="fill: #1f77b4; stroke: #1f77b4"/>
     <use xlink:href="#m744e92f14e" x="181.708292" y="201.640624" style="fill: #1f77b4; stroke: #1f77b4"/>
     <use xlink:href="#m744e92f14e" x="182.54334" y="201.708104" style="fill: #1f77b4; stroke: #1f77b4"/>
     <use xlink:href="#m744e92f14e" x="186.531869" y="201.953929" style="fill: #1f77b4; stroke: #1f77b4"/>
     <use xlink:href="#m744e92f14e" x="187.954267" y="202.010657" style="fill: #1f77b4; stroke: #1f77b4"/>
     <use xlink:href="#m744e92f14e" x="192.66381" y="202.080816" style="fill: #1f77b4; stroke: #1f77b4"/>
     <use xlink:href="#m744e92f14e" x="208.234286" y="201.021426" style="fill: #1f77b4; stroke: #1f77b4"/>
     <use xlink:href="#m744e92f14e" x="216.096107" y="199.758304" style="fill: #1f77b4; stroke: #1f77b4"/>
     <use xlink:href="#m744e92f14e" x="219.225609" y="199.129386" style="fill: #1f77b4; stroke: #1f77b4"/>
     <use xlink:href="#m744e92f14e" x="225.198367" y="197.745201" style="fill: #1f77b4; stroke: #1f77b4"/>
     <use xlink:href="#m744e92f14e" x="227.976443" y="197.024959" style="fill: #1f77b4; stroke: #1f77b4"/>
     <use xlink:href="#m744e92f14e" x="235.445907" y="194.876478" style="fill: #1f77b4; stroke: #1f77b4"/>
     <use xlink:href="#m744e92f14e" x="238.179077" y="194.022363" style="fill: #1f77b4; stroke: #1f77b4"/>
     <use xlink:href="#m744e92f14e" x="238.740174" y="193.843057" style="fill: #1f77b4; stroke: #1f77b4"/>
     <use xlink:href="#m744e92f14e" x="240.309936" y="193.334707" style="fill: #1f77b4; stroke: #1f77b4"/>
     <use xlink:href="#m744e92f14e" x="243.302685" y="192.340149" style="fill: #1f77b4; stroke: #1f77b4"/>
     <use xlink:href="#m744e92f14e" x="243.95037" y="192.120884" style="fill: #1f77b4; stroke: #1f77b4"/>
     <use xlink:href="#m744e92f14e" x="248.146731" y="190.670309" style="fill: #1f77b4; stroke: #1f77b4"/>
     <use xlink:href="#m744e92f14e" x="249.895668" y="190.052517" style="fill: #1f77b4; stroke: #1f77b4"/>
     <use xlink:href="#m744e92f14e" x="250.696517" y="189.767455" style="fill: #1f77b4; stroke: #1f77b4"/>
     <use xlink:href="#m744e92f14e" x="250.710278" y="189.762546" style="fill: #1f77b4; stroke: #1f77b4"/>
     <use xlink:href="#m744e92f14e" x="258.442437" y="186.960736" style="fill: #1f77b4; stroke: #1f77b4"/>
     <use xlink:href="#m744e92f14e" x="259.798043" y="186.464027" style="fill: #1f77b4; stroke: #1f77b4"/>
     <use xlink:href="#m744e92f14e" x="260.650926" y="186.151253" style="fill: #1f77b4; stroke: #1f77b4"/>
     <use xlink:href="#m744e92f14e" x="280.881694" y="178.941644" style="fill: #1f77b4; stroke: #1f77b4"/>
     <use xlink:href="#m744e92f14e" x="281.66606" y="178.679564" style="fill: #1f77b4; stroke: #1f77b4"/>
     <use xlink:href="#m744e92f14e" x="282.36499" y="178.447646" style="fill: #1f77b4; stroke: #1f77b4"/>
     <use xlink:href="#m744e92f14e" x="283.229885" y="178.162828" style="fill: #1f77b4; stroke: #1f77b4"/>
     <use xlink:href="#m744e92f14e" x="288.824226" y="176.383268" style="fill: #1f77b4; stroke: #1f77b4"/>
     <use xlink:href="#m744e92f14e" x="293.02606" y="175.125298" style="fill: #1f77b4; stroke: #1f77b4"/>
     <use xlink:href="#m744e92f14e" x="293.76377" y="174.911953" style="fill: #1f77b4; stroke: #1f77b4"/>
     <use xlink:href="#m744e92f14e" x="294.860677" y="174.599026" style="fill: #1f77b4; stroke: #1f77b4"/>
     <use xlink:href="#m744e92f14e" x="299.332831" y="173.378023" style="fill: #1f77b4; stroke: #1f77b4"/>
     <use xlink:href="#m744e92f14e" x="310.936532" y="170.642894" style="fill: #1f77b4; stroke: #1f77b4"/>
     <use xlink:href="#m744e92f14e" x="311.275355" y="170.572678" style="fill: #1f77b4; stroke: #1f77b4"/>
     <use xlink:href="#m744e92f14e" x="313.518065" y="170.121781" style="fill: #1f77b4; stroke: #1f77b4"/>
     <use xlink:href="#m744e92f14e" x="318.620425" y="169.185117" style="fill: #1f77b4; stroke: #1f77b4"/>
     <use xlink:href="#m744e92f14e" x="325.69911" y="168.085598" style="fill: #1f77b4; stroke: #1f77b4"/>
     <use xlink:href="#m744e92f14e" x="332.905344" y="167.191712" style="fill: #1f77b4; stroke: #1f77b4"/>
     <use xlink:href="#m744e92f14e" x="350.130695" y="165.853958" style="fill: #1f77b4; stroke: #1f77b4"/>
     <use xlink:href="#m744e92f14e" x="351.689972" y="165.780633" style="fill: #1f77b4; stroke: #1f77b4"/>
     <use xlink:href="#m744e92f14e" x="353.450337" y="165.706158" style="fill: #1f77b4; stroke: #1f77b4"/>
     <use xlink:href="#m744e92f14e" x="366.373257" y="165.401481" style="fill: #1f77b4; stroke: #1f77b4"/>
     <use xlink:href="#m744e92f14e" x="368.030217" y="165.390119" style="fill: #1f77b4; stroke: #1f77b4"/>
     <use xlink:href="#m744e92f14e" x="372.246841" y="165.386585" style="fill: #1f77b4; stroke: #1f77b4"/>
     <use xlink:href="#m744e92f14e" x="375.136704" y="165.404313" style="fill: #1f77b4; stroke: #1f77b4"/>
     <use xlink:href="#m744e92f14e" x="381.379978" y="165.495582" style="fill: #1f77b4; stroke: #1f77b4"/>
     <use xlink:href="#m744e92f14e" x="385.564047" y="165.59572" style="fill: #1f77b4; stroke: #1f77b4"/>
     <use xlink:href="#m744e92f14e" x="390.491232" y="165.752641" style="fill: #1f77b4; stroke: #1f77b4"/>
     <use xlink:href="#m744e92f14e" x="401.262191" y="166.241191" style="fill: #1f77b4; stroke: #1f77b4"/>
     <use xlink:href="#m744e92f14e" x="409.096191" y="166.723109" style="fill: #1f77b4; stroke: #1f77b4"/>
     <use xlink:href="#m744e92f14e" x="412.203723" y="166.944136" style="fill: #1f77b4; stroke: #1f77b4"/>
     <use xlink:href="#m744e92f14e" x="414.512822" y="167.119379" style="fill: #1f77b4; stroke: #1f77b4"/>
     <use xlink:href="#m744e92f14e" x="415.020626" y="167.159174" style="fill: #1f77b4; stroke: #1f77b4"/>
     <use xlink:href="#m744e92f14e" x="415.343472" y="167.184709" style="fill: #1f77b4; stroke: #1f77b4"/>
     <use xlink:href="#m744e92f14e" x="416.273058" y="167.259252" style="fill: #1f77b4; stroke: #1f77b4"/>
     <use xlink:href="#m744e92f14e" x="418.0007" y="167.401795" style="fill: #1f77b4; stroke: #1f77b4"/>
     <use xlink:href="#m744e92f14e" x="420.648786" y="167.630324" style="fill: #1f77b4; stroke: #1f77b4"/>
     <use xlink:href="#m744e92f14e" x="422.138376" y="167.764167" style="fill: #1f77b4; stroke: #1f77b4"/>
     <use xlink:href="#m744e92f14e" x="427.741326" y="168.30097" style="fill: #1f77b4; stroke: #1f77b4"/>
     <use xlink:href="#m744e92f14e" x="433.95118" y="168.954552" style="fill: #1f77b4; stroke: #1f77b4"/>
     <use xlink:href="#m744e92f14e" x="440.326011" y="169.683525" style="fill: #1f77b4; stroke: #1f77b4"/>
     <use xlink:href="#m744e92f14e" x="441.281556" y="169.797346" style="fill: #1f77b4; stroke: #1f77b4"/>
     <use xlink:href="#m744e92f14e" x="442.530767" y="169.947785" style="fill: #1f77b4; stroke: #1f77b4"/>
     <use xlink:href="#m744e92f14e" x="444.14387" y="170.144662" style="fill: #1f77b4; stroke: #1f77b4"/>
     <use xlink:href="#m744e92f14e" x="444.671607" y="170.209685" style="fill: #1f77b4; stroke: #1f77b4"/>
     <use xlink:href="#m744e92f14e" x="445.454877" y="170.30673" style="fill: #1f77b4; stroke: #1f77b4"/>
     <use xlink:href="#m744e92f14e" x="447.656604" y="170.582771" style="fill: #1f77b4; stroke: #1f77b4"/>
     <use xlink:href="#m744e92f14e" x="457.779127" y="171.899848" style="fill: #1f77b4; stroke: #1f77b4"/>
     <use xlink:href="#m744e92f14e" x="459.231011" y="172.09313" style="fill: #1f77b4; stroke: #1f77b4"/>
     <use xlink:href="#m744e92f14e" x="460.153953" y="172.216304" style="fill: #1f77b4; stroke: #1f77b4"/>
     <use xlink:href="#m744e92f14e" x="469.625069" y="173.482335" style="fill: #1f77b4; stroke: #1f77b4"/>
     <use xlink:href="#m744e92f14e" x="470.289469" y="173.570519" style="fill: #1f77b4; stroke: #1f77b4"/>
     <use xlink:href="#m744e92f14e" x="479.196202" y="174.72775" style="fill: #1f77b4; stroke: #1f77b4"/>
     <use xlink:href="#m744e92f14e" x="483.796487" y="175.298299" style="fill: #1f77b4; stroke: #1f77b4"/>
    </g>
   </g>
   <g id="patch_3">
    <path d="M 61.773625 340.676508 
L 61.773625 8.036508 
" style="fill: none; stroke: #262626; stroke-linejoin: miter; stroke-linecap: square"/>
   </g>
   <g id="patch_4">
    <path d="M 508.173625 340.676508 
L 508.173625 8.036508 
" style="fill: none; stroke: #262626; stroke-linejoin: miter; stroke-linecap: square"/>
   </g>
   <g id="patch_5">
    <path d="M 61.773625 340.676508 
L 508.173625 340.676508 
" style="fill: none; stroke: #262626; stroke-linejoin: miter; stroke-linecap: square"/>
   </g>
   <g id="patch_6">
    <path d="M 61.773625 8.036508 
L 508.173625 8.036508 
" style="fill: none; stroke: #262626; stroke-linejoin: miter; stroke-linecap: square"/>
   </g>
   <g id="legend_1">
    <g id="patch_7">
     <path d="M 370.189625 336.276508 
L 502.013625 336.276508 
Q 503.773625 336.276508 503.773625 334.516508 
L 503.773625 305.847758 
Q 503.773625 304.087758 502.013625 304.087758 
L 370.189625 304.087758 
Q 368.429625 304.087758 368.429625 305.847758 
L 368.429625 334.516508 
Q 368.429625 336.276508 370.189625 336.276508 
z
" style="fill: #ffffff; opacity: 0.8; stroke: #cccccc; stroke-width: 0.8; stroke-linejoin: miter"/>
    </g>
    <g id="line2d_16">
     <path d="M 371.949625 311.214383 
L 380.749625 311.214383 
L 389.549625 311.214383 
" style="fill: none; stroke-dasharray: 5.55,2.4; stroke-dashoffset: 0; stroke: #000000; stroke-width: 1.5"/>
    </g>
    <g id="text_16">
     <!-- $u(x)=ds/dx$ -->
     <g style="fill: #262626" transform="translate(396.589625 314.294383) scale(0.088 -0.088)">
      <defs>
       <path id="DejaVuSans-Oblique-75" d="M 428 1388 
L 838 3500 
L 1416 3500 
L 1006 1409 
Q 975 1256 961 1147 
Q 947 1038 947 966 
Q 947 700 1109 554 
Q 1272 409 1569 409 
Q 2031 409 2368 721 
Q 2706 1034 2809 1563 
L 3194 3500 
L 3769 3500 
L 3091 0 
L 2516 0 
L 2631 550 
Q 2388 244 2052 76 
Q 1716 -91 1338 -91 
Q 878 -91 622 161 
Q 366 413 366 863 
Q 366 956 381 1097 
Q 397 1238 428 1388 
z
" transform="scale(0.015625)"/>
       <path id="DejaVuSans-28" d="M 1984 4856 
Q 1566 4138 1362 3434 
Q 1159 2731 1159 2009 
Q 1159 1288 1364 580 
Q 1569 -128 1984 -844 
L 1484 -844 
Q 1016 -109 783 600 
Q 550 1309 550 2009 
Q 550 2706 781 3412 
Q 1013 4119 1484 4856 
L 1984 4856 
z
" transform="scale(0.015625)"/>
       <path id="DejaVuSans-Oblique-78" d="M 3841 3500 
L 2234 1784 
L 3219 0 
L 2559 0 
L 1819 1388 
L 531 0 
L -166 0 
L 1556 1844 
L 641 3500 
L 1300 3500 
L 1972 2234 
L 3144 3500 
L 3841 3500 
z
" transform="scale(0.015625)"/>
       <path id="DejaVuSans-29" d="M 513 4856 
L 1013 4856 
Q 1481 4119 1714 3412 
Q 1947 2706 1947 2009 
Q 1947 1309 1714 600 
Q 1481 -109 1013 -844 
L 513 -844 
Q 928 -128 1133 580 
Q 1338 1288 1338 2009 
Q 1338 2731 1133 3434 
Q 928 4138 513 4856 
z
" transform="scale(0.015625)"/>
       <path id="DejaVuSans-3d" d="M 678 2906 
L 4684 2906 
L 4684 2381 
L 678 2381 
L 678 2906 
z
M 678 1631 
L 4684 1631 
L 4684 1100 
L 678 1100 
L 678 1631 
z
" transform="scale(0.015625)"/>
       <path id="DejaVuSans-Oblique-64" d="M 2675 525 
Q 2444 222 2128 65 
Q 1813 -91 1428 -91 
Q 903 -91 598 267 
Q 294 625 294 1247 
Q 294 1766 478 2236 
Q 663 2706 1013 3078 
Q 1244 3325 1534 3454 
Q 1825 3584 2144 3584 
Q 2481 3584 2739 3421 
Q 2997 3259 3138 2956 
L 3513 4863 
L 4091 4863 
L 3144 0 
L 2566 0 
L 2675 525 
z
M 891 1350 
Q 891 897 1095 644 
Q 1300 391 1663 391 
Q 1931 391 2161 520 
Q 2391 650 2566 903 
Q 2750 1166 2856 1509 
Q 2963 1853 2963 2188 
Q 2963 2622 2758 2865 
Q 2553 3109 2194 3109 
Q 1922 3109 1687 2981 
Q 1453 2853 1288 2613 
Q 1106 2353 998 2009 
Q 891 1666 891 1350 
z
" transform="scale(0.015625)"/>
       <path id="DejaVuSans-Oblique-73" d="M 3200 3397 
L 3091 2853 
Q 2863 2978 2609 3040 
Q 2356 3103 2088 3103 
Q 1634 3103 1373 2948 
Q 1113 2794 1113 2528 
Q 1113 2219 1719 2053 
Q 1766 2041 1788 2034 
L 1972 1978 
Q 2547 1819 2739 1644 
Q 2931 1469 2931 1166 
Q 2931 609 2489 259 
Q 2047 -91 1331 -91 
Q 1053 -91 747 -37 
Q 441 16 72 128 
L 184 722 
Q 500 559 806 475 
Q 1113 391 1394 391 
Q 1816 391 2080 572 
Q 2344 753 2344 1031 
Q 2344 1331 1650 1516 
L 1591 1531 
L 1394 1581 
Q 956 1697 753 1886 
Q 550 2075 550 2369 
Q 550 2928 970 3256 
Q 1391 3584 2113 3584 
Q 2397 3584 2667 3537 
Q 2938 3491 3200 3397 
z
" transform="scale(0.015625)"/>
       <path id="DejaVuSans-2f" d="M 1625 4666 
L 2156 4666 
L 531 -594 
L 0 -594 
L 1625 4666 
z
" transform="scale(0.015625)"/>
      </defs>
      <use xlink:href="#DejaVuSans-Oblique-75" transform="translate(0 0.015625)"/>
      <use xlink:href="#DejaVuSans-28" transform="translate(63.378906 0.015625)"/>
      <use xlink:href="#DejaVuSans-Oblique-78" transform="translate(102.392578 0.015625)"/>
      <use xlink:href="#DejaVuSans-29" transform="translate(161.572266 0.015625)"/>
      <use xlink:href="#DejaVuSans-3d" transform="translate(220.068359 0.015625)"/>
      <use xlink:href="#DejaVuSans-Oblique-64" transform="translate(323.339844 0.015625)"/>
      <use xlink:href="#DejaVuSans-Oblique-73" transform="translate(386.816406 0.015625)"/>
      <use xlink:href="#DejaVuSans-2f" transform="translate(438.916016 0.015625)"/>
      <use xlink:href="#DejaVuSans-Oblique-64" transform="translate(472.607422 0.015625)"/>
      <use xlink:href="#DejaVuSans-Oblique-78" transform="translate(536.083984 0.015625)"/>
     </g>
    </g>
    <g id="line2d_17">
     <path d="M 371.949625 326.948508 
L 380.749625 326.948508 
L 389.549625 326.948508 
" style="fill: none; stroke: #1f77b4; stroke-width: 1.5; stroke-linecap: round"/>
     <g>
      <use xlink:href="#m744e92f14e" x="380.749625" y="326.948508" style="fill: #1f77b4; stroke: #1f77b4"/>
     </g>
    </g>
    <g id="text_17">
     <!-- $s(x)=s(0)+\int u(t)dt|_{t=y}$ -->
     <g style="fill: #262626" transform="translate(396.589625 330.028508) scale(0.088 -0.088)">
      <defs>
       <path id="DejaVuSans-2b" d="M 2944 4013 
L 2944 2272 
L 4684 2272 
L 4684 1741 
L 2944 1741 
L 2944 0 
L 2419 0 
L 2419 1741 
L 678 1741 
L 678 2272 
L 2419 2272 
L 2419 4013 
L 2944 4013 
z
" transform="scale(0.015625)"/>
       <path id="DejaVuSansDisplay-222b" d="M 2134 5525 
Q 2172 6263 2528 6556 
Q 2884 6850 3218 6850 
Q 3553 6850 3833 6575 
Q 4113 6300 4200 5678 
L 3544 5613 
Q 3469 6188 3219 6188 
Q 2906 6188 2869 5413 
L 2581 -597 
Q 2547 -1334 2187 -1628 
Q 1828 -1922 1497 -1922 
Q 1163 -1922 883 -1647 
Q 603 -1372 516 -750 
L 1172 -684 
Q 1247 -1259 1497 -1259 
Q 1809 -1259 1847 -488 
L 2134 5525 
z
" transform="scale(0.015625)"/>
       <path id="DejaVuSans-Oblique-74" d="M 2706 3500 
L 2619 3053 
L 1472 3053 
L 1100 1153 
Q 1081 1047 1072 975 
Q 1063 903 1063 863 
Q 1063 663 1183 572 
Q 1303 481 1569 481 
L 2150 481 
L 2053 0 
L 1503 0 
Q 991 0 739 200 
Q 488 400 488 806 
Q 488 878 497 964 
Q 506 1050 525 1153 
L 897 3053 
L 409 3053 
L 500 3500 
L 978 3500 
L 1172 4494 
L 1747 4494 
L 1556 3500 
L 2706 3500 
z
" transform="scale(0.015625)"/>
       <path id="DejaVuSans-7c" d="M 1344 4891 
L 1344 -1509 
L 813 -1509 
L 813 4891 
L 1344 4891 
z
" transform="scale(0.015625)"/>
       <path id="DejaVuSans-Oblique-79" d="M 1588 -325 
Q 1188 -997 936 -1164 
Q 684 -1331 294 -1331 
L -159 -1331 
L -63 -850 
L 269 -850 
Q 509 -850 678 -719 
Q 847 -588 1056 -206 
L 1234 128 
L 459 3500 
L 1069 3500 
L 1650 819 
L 3256 3500 
L 3859 3500 
L 1588 -325 
z
" transform="scale(0.015625)"/>
      </defs>
      <use xlink:href="#DejaVuSans-Oblique-73" transform="translate(0 0.96875)"/>
      <use xlink:href="#DejaVuSans-28" transform="translate(52.099609 0.96875)"/>
      <use xlink:href="#DejaVuSans-Oblique-78" transform="translate(91.113281 0.96875)"/>
      <use xlink:href="#DejaVuSans-29" transform="translate(150.292969 0.96875)"/>
      <use xlink:href="#DejaVuSans-3d" transform="translate(208.789062 0.96875)"/>
      <use xlink:href="#DejaVuSans-Oblique-73" transform="translate(312.060547 0.96875)"/>
      <use xlink:href="#DejaVuSans-28" transform="translate(364.160156 0.96875)"/>
      <use xlink:href="#DejaVuSans-30" transform="translate(403.173828 0.96875)"/>
      <use xlink:href="#DejaVuSans-29" transform="translate(466.796875 0.96875)"/>
      <use xlink:href="#DejaVuSans-2b" transform="translate(525.292969 0.96875)"/>
      <use xlink:href="#DejaVuSansDisplay-222b" transform="translate(628.564453 0.96875)"/>
      <use xlink:href="#DejaVuSans-Oblique-75" transform="translate(702.197266 0.96875)"/>
      <use xlink:href="#DejaVuSans-28" transform="translate(765.576172 0.96875)"/>
      <use xlink:href="#DejaVuSans-Oblique-74" transform="translate(804.589844 0.96875)"/>
      <use xlink:href="#DejaVuSans-29" transform="translate(843.798828 0.96875)"/>
      <use xlink:href="#DejaVuSans-Oblique-64" transform="translate(882.8125 0.96875)"/>
      <use xlink:href="#DejaVuSans-Oblique-74" transform="translate(946.289062 0.96875)"/>
      <use xlink:href="#DejaVuSans-7c" transform="translate(985.498047 0.96875)"/>
      <use xlink:href="#DejaVuSans-Oblique-74" transform="translate(1020.146484 -15.4375) scale(0.7)"/>
      <use xlink:href="#DejaVuSans-3d" transform="translate(1061.230469 -15.4375) scale(0.7)"/>
      <use xlink:href="#DejaVuSans-Oblique-79" transform="translate(1133.520508 -15.4375) scale(0.7)"/>
     </g>
    </g>
   </g>
  </g>
 </g>
 <defs>
  <clipPath id="p95d63c1b2c">
   <rect x="61.773625" y="8.036508" width="446.4" height="332.64"/>
  </clipPath>
 </defs>
</svg>