<?xml version="1.0" encoding="utf-8" standalone="no"?>
<!DOCTYPE svg PUBLIC "-//W3C//DTD SVG 1.1//EN"
  "http://www.w3.org/Graphics/SVG/1.1/DTD/svg11.dtd">
<svg xmlns:xlink="http://www.w3.org/1999/xlink" width="397.493125pt" height="322.857375pt" viewBox="0 0 397.493125 322.857375" xmlns="http://www.w3.org/2000/svg" version="1.1">
 <metadata>
  <rdf:RDF xmlns:dc="http://purl.org/dc/elements/1.1/" xmlns:cc="http://creativecommons.org/ns#" xmlns:rdf="http://www.w3.org/1999/02/22-rdf-syntax-ns#">
   <cc:Work>
    <dc:type rdf:resource="http://purl.org/dc/dcmitype/StillImage"/>
    <dc:date>2024-12-20T12:49:07.791339</dc:date>
    <dc:format>image/svg+xml</dc:format>
    <dc:creator>
     <cc:Agent>
      <dc:title>Matplotlib v3.9.0, https://matplotlib.org/</dc:title>
     </cc:Agent>
    </dc:creator>
   </cc:Work>
  </rdf:RDF>
 </metadata>
 <defs>
  <style type="text/css">*{stroke-linejoin: round; stroke-linecap: butt}</style>
 </defs>
 <g id="figure_1">
  <g id="patch_1">
   <path d="M 0 322.857375 
L 397.493125 322.857375 
L 397.493125 0 
L 0 0 
z
" style="fill: #ffffff"/>
  </g>
  <g id="axes_1">
   <g id="patch_2">
    <path d="M 33.173125 286.3005 
L 390.293125 286.3005 
L 390.293125 20.1885 
L 33.173125 20.1885 
z
" style="fill: #ffffff"/>
   </g>
   <g id="matplotlib.axis_1">
    <g id="xtick_1">
     <g id="line2d_1">
      <defs>
       <path id="m3f8aaf47e4" d="M 0 0 
L 0 4.8 
" style="stroke: #262626"/>
      </defs>
      <g>
       <use xlink:href="#m3f8aaf47e4" x="49.405852" y="286.3005" style="fill: #262626; stroke: #262626"/>
      </g>
     </g>
     <g id="text_1">
      <!-- 0 -->
      <g style="fill: #262626" transform="translate(46.95904 300.899375) scale(0.088 -0.088)">
       <defs>
        <path id="ArialMT-30" d="M 266 2259 
Q 266 3072 433 3567 
Q 600 4063 929 4331 
Q 1259 4600 1759 4600 
Q 2128 4600 2406 4451 
Q 2684 4303 2865 4023 
Q 3047 3744 3150 3342 
Q 3253 2941 3253 2259 
Q 3253 1453 3087 958 
Q 2922 463 2592 192 
Q 2263 -78 1759 -78 
Q 1097 -78 719 397 
Q 266 969 266 2259 
z
M 844 2259 
Q 844 1131 1108 757 
Q 1372 384 1759 384 
Q 2147 384 2411 759 
Q 2675 1134 2675 2259 
Q 2675 3391 2411 3762 
Q 2147 4134 1753 4134 
Q 1366 4134 1134 3806 
Q 844 3388 844 2259 
z
" transform="scale(0.015625)"/>
       </defs>
       <use xlink:href="#ArialMT-30"/>
      </g>
     </g>
    </g>
    <g id="xtick_2">
     <g id="line2d_2">
      <g>
       <use xlink:href="#m3f8aaf47e4" x="103.878091" y="286.3005" style="fill: #262626; stroke: #262626"/>
      </g>
     </g>
     <g id="text_2">
      <!-- 200 -->
      <g style="fill: #262626" transform="translate(96.537654 300.899375) scale(0.088 -0.088)">
       <defs>
        <path id="ArialMT-32" d="M 3222 541 
L 3222 0 
L 194 0 
Q 188 203 259 391 
Q 375 700 629 1000 
Q 884 1300 1366 1694 
Q 2113 2306 2375 2664 
Q 2638 3022 2638 3341 
Q 2638 3675 2398 3904 
Q 2159 4134 1775 4134 
Q 1369 4134 1125 3890 
Q 881 3647 878 3216 
L 300 3275 
Q 359 3922 746 4261 
Q 1134 4600 1788 4600 
Q 2447 4600 2831 4234 
Q 3216 3869 3216 3328 
Q 3216 3053 3103 2787 
Q 2991 2522 2730 2228 
Q 2469 1934 1863 1422 
Q 1356 997 1212 845 
Q 1069 694 975 541 
L 3222 541 
z
" transform="scale(0.015625)"/>
       </defs>
       <use xlink:href="#ArialMT-32"/>
       <use xlink:href="#ArialMT-30" x="55.615234"/>
       <use xlink:href="#ArialMT-30" x="111.230469"/>
      </g>
     </g>
    </g>
    <g id="xtick_3">
     <g id="line2d_3">
      <g>
       <use xlink:href="#m3f8aaf47e4" x="158.350331" y="286.3005" style="fill: #262626; stroke: #262626"/>
      </g>
     </g>
     <g id="text_3">
      <!-- 400 -->
      <g style="fill: #262626" transform="translate(151.009893 300.899375) scale(0.088 -0.088)">
       <defs>
        <path id="ArialMT-34" d="M 2069 0 
L 2069 1097 
L 81 1097 
L 81 1613 
L 2172 4581 
L 2631 4581 
L 2631 1613 
L 3250 1613 
L 3250 1097 
L 2631 1097 
L 2631 0 
L 2069 0 
z
M 2069 1613 
L 2069 3678 
L 634 1613 
L 2069 1613 
z
" transform="scale(0.015625)"/>
       </defs>
       <use xlink:href="#ArialMT-34"/>
       <use xlink:href="#ArialMT-30" x="55.615234"/>
       <use xlink:href="#ArialMT-30" x="111.230469"/>
      </g>
     </g>
    </g>
    <g id="xtick_4">
     <g id="line2d_4">
      <g>
       <use xlink:href="#m3f8aaf47e4" x="212.82257" y="286.3005" style="fill: #262626; stroke: #262626"/>
      </g>
     </g>
     <g id="text_4">
      <!-- 600 -->
      <g style="fill: #262626" transform="translate(205.482132 300.899375) scale(0.088 -0.088)">
       <defs>
        <path id="ArialMT-36" d="M 3184 3459 
L 2625 3416 
Q 2550 3747 2413 3897 
Q 2184 4138 1850 4138 
Q 1581 4138 1378 3988 
Q 1113 3794 959 3422 
Q 806 3050 800 2363 
Q 1003 2672 1297 2822 
Q 1591 2972 1913 2972 
Q 2475 2972 2870 2558 
Q 3266 2144 3266 1488 
Q 3266 1056 3080 686 
Q 2894 316 2569 119 
Q 2244 -78 1831 -78 
Q 1128 -78 684 439 
Q 241 956 241 2144 
Q 241 3472 731 4075 
Q 1159 4600 1884 4600 
Q 2425 4600 2770 4297 
Q 3116 3994 3184 3459 
z
M 888 1484 
Q 888 1194 1011 928 
Q 1134 663 1356 523 
Q 1578 384 1822 384 
Q 2178 384 2434 671 
Q 2691 959 2691 1453 
Q 2691 1928 2437 2201 
Q 2184 2475 1800 2475 
Q 1419 2475 1153 2201 
Q 888 1928 888 1484 
z
" transform="scale(0.015625)"/>
       </defs>
       <use xlink:href="#ArialMT-36"/>
       <use xlink:href="#ArialMT-30" x="55.615234"/>
       <use xlink:href="#ArialMT-30" x="111.230469"/>
      </g>
     </g>
    </g>
    <g id="xtick_5">
     <g id="line2d_5">
      <g>
       <use xlink:href="#m3f8aaf47e4" x="267.294809" y="286.3005" style="fill: #262626; stroke: #262626"/>
      </g>
     </g>
     <g id="text_5">
      <!-- 800 -->
      <g style="fill: #262626" transform="translate(259.954371 300.899375) scale(0.088 -0.088)">
       <defs>
        <path id="ArialMT-38" d="M 1131 2484 
Q 781 2613 612 2850 
Q 444 3088 444 3419 
Q 444 3919 803 4259 
Q 1163 4600 1759 4600 
Q 2359 4600 2725 4251 
Q 3091 3903 3091 3403 
Q 3091 3084 2923 2848 
Q 2756 2613 2416 2484 
Q 2838 2347 3058 2040 
Q 3278 1734 3278 1309 
Q 3278 722 2862 322 
Q 2447 -78 1769 -78 
Q 1091 -78 675 323 
Q 259 725 259 1325 
Q 259 1772 486 2073 
Q 713 2375 1131 2484 
z
M 1019 3438 
Q 1019 3113 1228 2906 
Q 1438 2700 1772 2700 
Q 2097 2700 2305 2904 
Q 2513 3109 2513 3406 
Q 2513 3716 2298 3927 
Q 2084 4138 1766 4138 
Q 1444 4138 1231 3931 
Q 1019 3725 1019 3438 
z
M 838 1322 
Q 838 1081 952 856 
Q 1066 631 1291 507 
Q 1516 384 1775 384 
Q 2178 384 2440 643 
Q 2703 903 2703 1303 
Q 2703 1709 2433 1975 
Q 2163 2241 1756 2241 
Q 1359 2241 1098 1978 
Q 838 1716 838 1322 
z
" transform="scale(0.015625)"/>
       </defs>
       <use xlink:href="#ArialMT-38"/>
       <use xlink:href="#ArialMT-30" x="55.615234"/>
       <use xlink:href="#ArialMT-30" x="111.230469"/>
      </g>
     </g>
    </g>
    <g id="xtick_6">
     <g id="line2d_6">
      <g>
       <use xlink:href="#m3f8aaf47e4" x="321.767048" y="286.3005" style="fill: #262626; stroke: #262626"/>
      </g>
     </g>
     <g id="text_6">
      <!-- 1000 -->
      <g style="fill: #262626" transform="translate(311.979798 300.899375) scale(0.088 -0.088)">
       <defs>
        <path id="ArialMT-31" d="M 2384 0 
L 1822 0 
L 1822 3584 
Q 1619 3391 1289 3197 
Q 959 3003 697 2906 
L 697 3450 
Q 1169 3672 1522 3987 
Q 1875 4303 2022 4600 
L 2384 4600 
L 2384 0 
z
" transform="scale(0.015625)"/>
       </defs>
       <use xlink:href="#ArialMT-31"/>
       <use xlink:href="#ArialMT-30" x="55.615234"/>
       <use xlink:href="#ArialMT-30" x="111.230469"/>
       <use xlink:href="#ArialMT-30" x="166.845703"/>
      </g>
     </g>
    </g>
    <g id="xtick_7">
     <g id="line2d_7">
      <g>
       <use xlink:href="#m3f8aaf47e4" x="376.239287" y="286.3005" style="fill: #262626; stroke: #262626"/>
      </g>
     </g>
     <g id="text_7">
      <!-- 1200 -->
      <g style="fill: #262626" transform="translate(366.452037 300.899375) scale(0.088 -0.088)">
       <use xlink:href="#ArialMT-31"/>
       <use xlink:href="#ArialMT-32" x="55.615234"/>
       <use xlink:href="#ArialMT-30" x="111.230469"/>
       <use xlink:href="#ArialMT-30" x="166.845703"/>
      </g>
     </g>
    </g>
    <g id="text_8">
     <!-- Scaled days since start of recovery -->
     <g style="fill: #262626" transform="translate(137.304625 313.636875) scale(0.096 -0.096)">
      <defs>
       <path id="ArialMT-53" d="M 288 1472 
L 859 1522 
Q 900 1178 1048 958 
Q 1197 738 1509 602 
Q 1822 466 2213 466 
Q 2559 466 2825 569 
Q 3091 672 3220 851 
Q 3350 1031 3350 1244 
Q 3350 1459 3225 1620 
Q 3100 1781 2813 1891 
Q 2628 1963 1997 2114 
Q 1366 2266 1113 2400 
Q 784 2572 623 2826 
Q 463 3081 463 3397 
Q 463 3744 659 4045 
Q 856 4347 1234 4503 
Q 1613 4659 2075 4659 
Q 2584 4659 2973 4495 
Q 3363 4331 3572 4012 
Q 3781 3694 3797 3291 
L 3216 3247 
Q 3169 3681 2898 3903 
Q 2628 4125 2100 4125 
Q 1550 4125 1298 3923 
Q 1047 3722 1047 3438 
Q 1047 3191 1225 3031 
Q 1400 2872 2139 2705 
Q 2878 2538 3153 2413 
Q 3553 2228 3743 1945 
Q 3934 1663 3934 1294 
Q 3934 928 3725 604 
Q 3516 281 3123 101 
Q 2731 -78 2241 -78 
Q 1619 -78 1198 103 
Q 778 284 539 648 
Q 300 1013 288 1472 
z
" transform="scale(0.015625)"/>
       <path id="ArialMT-63" d="M 2588 1216 
L 3141 1144 
Q 3050 572 2676 248 
Q 2303 -75 1759 -75 
Q 1078 -75 664 370 
Q 250 816 250 1647 
Q 250 2184 428 2587 
Q 606 2991 970 3192 
Q 1334 3394 1763 3394 
Q 2303 3394 2647 3120 
Q 2991 2847 3088 2344 
L 2541 2259 
Q 2463 2594 2264 2762 
Q 2066 2931 1784 2931 
Q 1359 2931 1093 2626 
Q 828 2322 828 1663 
Q 828 994 1084 691 
Q 1341 388 1753 388 
Q 2084 388 2306 591 
Q 2528 794 2588 1216 
z
" transform="scale(0.015625)"/>
       <path id="ArialMT-61" d="M 2588 409 
Q 2275 144 1986 34 
Q 1697 -75 1366 -75 
Q 819 -75 525 192 
Q 231 459 231 875 
Q 231 1119 342 1320 
Q 453 1522 633 1644 
Q 813 1766 1038 1828 
Q 1203 1872 1538 1913 
Q 2219 1994 2541 2106 
Q 2544 2222 2544 2253 
Q 2544 2597 2384 2738 
Q 2169 2928 1744 2928 
Q 1347 2928 1158 2789 
Q 969 2650 878 2297 
L 328 2372 
Q 403 2725 575 2942 
Q 747 3159 1072 3276 
Q 1397 3394 1825 3394 
Q 2250 3394 2515 3294 
Q 2781 3194 2906 3042 
Q 3031 2891 3081 2659 
Q 3109 2516 3109 2141 
L 3109 1391 
Q 3109 606 3145 398 
Q 3181 191 3288 0 
L 2700 0 
Q 2613 175 2588 409 
z
M 2541 1666 
Q 2234 1541 1622 1453 
Q 1275 1403 1131 1340 
Q 988 1278 909 1158 
Q 831 1038 831 891 
Q 831 666 1001 516 
Q 1172 366 1500 366 
Q 1825 366 2078 508 
Q 2331 650 2450 897 
Q 2541 1088 2541 1459 
L 2541 1666 
z
" transform="scale(0.015625)"/>
       <path id="ArialMT-6c" d="M 409 0 
L 409 4581 
L 972 4581 
L 972 0 
L 409 0 
z
" transform="scale(0.015625)"/>
       <path id="ArialMT-65" d="M 2694 1069 
L 3275 997 
Q 3138 488 2766 206 
Q 2394 -75 1816 -75 
Q 1088 -75 661 373 
Q 234 822 234 1631 
Q 234 2469 665 2931 
Q 1097 3394 1784 3394 
Q 2450 3394 2872 2941 
Q 3294 2488 3294 1666 
Q 3294 1616 3291 1516 
L 816 1516 
Q 847 969 1125 678 
Q 1403 388 1819 388 
Q 2128 388 2347 550 
Q 2566 713 2694 1069 
z
M 847 1978 
L 2700 1978 
Q 2663 2397 2488 2606 
Q 2219 2931 1791 2931 
Q 1403 2931 1139 2672 
Q 875 2413 847 1978 
z
" transform="scale(0.015625)"/>
       <path id="ArialMT-64" d="M 2575 0 
L 2575 419 
Q 2259 -75 1647 -75 
Q 1250 -75 917 144 
Q 584 363 401 755 
Q 219 1147 219 1656 
Q 219 2153 384 2558 
Q 550 2963 881 3178 
Q 1213 3394 1622 3394 
Q 1922 3394 2156 3267 
Q 2391 3141 2538 2938 
L 2538 4581 
L 3097 4581 
L 3097 0 
L 2575 0 
z
M 797 1656 
Q 797 1019 1065 703 
Q 1334 388 1700 388 
Q 2069 388 2326 689 
Q 2584 991 2584 1609 
Q 2584 2291 2321 2609 
Q 2059 2928 1675 2928 
Q 1300 2928 1048 2622 
Q 797 2316 797 1656 
z
" transform="scale(0.015625)"/>
       <path id="ArialMT-20" transform="scale(0.015625)"/>
       <path id="ArialMT-79" d="M 397 -1278 
L 334 -750 
Q 519 -800 656 -800 
Q 844 -800 956 -737 
Q 1069 -675 1141 -563 
Q 1194 -478 1313 -144 
Q 1328 -97 1363 -6 
L 103 3319 
L 709 3319 
L 1400 1397 
Q 1534 1031 1641 628 
Q 1738 1016 1872 1384 
L 2581 3319 
L 3144 3319 
L 1881 -56 
Q 1678 -603 1566 -809 
Q 1416 -1088 1222 -1217 
Q 1028 -1347 759 -1347 
Q 597 -1347 397 -1278 
z
" transform="scale(0.015625)"/>
       <path id="ArialMT-73" d="M 197 991 
L 753 1078 
Q 800 744 1014 566 
Q 1228 388 1613 388 
Q 2000 388 2187 545 
Q 2375 703 2375 916 
Q 2375 1106 2209 1216 
Q 2094 1291 1634 1406 
Q 1016 1563 777 1677 
Q 538 1791 414 1992 
Q 291 2194 291 2438 
Q 291 2659 392 2848 
Q 494 3038 669 3163 
Q 800 3259 1026 3326 
Q 1253 3394 1513 3394 
Q 1903 3394 2198 3281 
Q 2494 3169 2634 2976 
Q 2775 2784 2828 2463 
L 2278 2388 
Q 2241 2644 2061 2787 
Q 1881 2931 1553 2931 
Q 1166 2931 1000 2803 
Q 834 2675 834 2503 
Q 834 2394 903 2306 
Q 972 2216 1119 2156 
Q 1203 2125 1616 2013 
Q 2213 1853 2448 1751 
Q 2684 1650 2818 1456 
Q 2953 1263 2953 975 
Q 2953 694 2789 445 
Q 2625 197 2315 61 
Q 2006 -75 1616 -75 
Q 969 -75 630 194 
Q 291 463 197 991 
z
" transform="scale(0.015625)"/>
       <path id="ArialMT-69" d="M 425 3934 
L 425 4581 
L 988 4581 
L 988 3934 
L 425 3934 
z
M 425 0 
L 425 3319 
L 988 3319 
L 988 0 
L 425 0 
z
" transform="scale(0.015625)"/>
       <path id="ArialMT-6e" d="M 422 0 
L 422 3319 
L 928 3319 
L 928 2847 
Q 1294 3394 1984 3394 
Q 2284 3394 2536 3286 
Q 2788 3178 2913 3003 
Q 3038 2828 3088 2588 
Q 3119 2431 3119 2041 
L 3119 0 
L 2556 0 
L 2556 2019 
Q 2556 2363 2490 2533 
Q 2425 2703 2258 2804 
Q 2091 2906 1866 2906 
Q 1506 2906 1245 2678 
Q 984 2450 984 1813 
L 984 0 
L 422 0 
z
" transform="scale(0.015625)"/>
       <path id="ArialMT-74" d="M 1650 503 
L 1731 6 
Q 1494 -44 1306 -44 
Q 1000 -44 831 53 
Q 663 150 594 308 
Q 525 466 525 972 
L 525 2881 
L 113 2881 
L 113 3319 
L 525 3319 
L 525 4141 
L 1084 4478 
L 1084 3319 
L 1650 3319 
L 1650 2881 
L 1084 2881 
L 1084 941 
Q 1084 700 1114 631 
Q 1144 563 1211 522 
Q 1278 481 1403 481 
Q 1497 481 1650 503 
z
" transform="scale(0.015625)"/>
       <path id="ArialMT-72" d="M 416 0 
L 416 3319 
L 922 3319 
L 922 2816 
Q 1116 3169 1280 3281 
Q 1444 3394 1641 3394 
Q 1925 3394 2219 3213 
L 2025 2691 
Q 1819 2813 1613 2813 
Q 1428 2813 1281 2702 
Q 1134 2591 1072 2394 
Q 978 2094 978 1738 
L 978 0 
L 416 0 
z
" transform="scale(0.015625)"/>
       <path id="ArialMT-6f" d="M 213 1659 
Q 213 2581 725 3025 
Q 1153 3394 1769 3394 
Q 2453 3394 2887 2945 
Q 3322 2497 3322 1706 
Q 3322 1066 3130 698 
Q 2938 331 2570 128 
Q 2203 -75 1769 -75 
Q 1072 -75 642 372 
Q 213 819 213 1659 
z
M 791 1659 
Q 791 1022 1069 705 
Q 1347 388 1769 388 
Q 2188 388 2466 706 
Q 2744 1025 2744 1678 
Q 2744 2294 2464 2611 
Q 2184 2928 1769 2928 
Q 1347 2928 1069 2612 
Q 791 2297 791 1659 
z
" transform="scale(0.015625)"/>
       <path id="ArialMT-66" d="M 556 0 
L 556 2881 
L 59 2881 
L 59 3319 
L 556 3319 
L 556 3672 
Q 556 4006 616 4169 
Q 697 4388 901 4523 
Q 1106 4659 1475 4659 
Q 1713 4659 2000 4603 
L 1916 4113 
Q 1741 4144 1584 4144 
Q 1328 4144 1222 4034 
Q 1116 3925 1116 3625 
L 1116 3319 
L 1763 3319 
L 1763 2881 
L 1116 2881 
L 1116 0 
L 556 0 
z
" transform="scale(0.015625)"/>
       <path id="ArialMT-76" d="M 1344 0 
L 81 3319 
L 675 3319 
L 1388 1331 
Q 1503 1009 1600 663 
Q 1675 925 1809 1294 
L 2547 3319 
L 3125 3319 
L 1869 0 
L 1344 0 
z
" transform="scale(0.015625)"/>
      </defs>
      <use xlink:href="#ArialMT-53"/>
      <use xlink:href="#ArialMT-63" x="66.699219"/>
      <use xlink:href="#ArialMT-61" x="116.699219"/>
      <use xlink:href="#ArialMT-6c" x="172.314453"/>
      <use xlink:href="#ArialMT-65" x="194.53125"/>
      <use xlink:href="#ArialMT-64" x="250.146484"/>
      <use xlink:href="#ArialMT-20" x="305.761719"/>
      <use xlink:href="#ArialMT-64" x="333.544922"/>
      <use xlink:href="#ArialMT-61" x="389.160156"/>
      <use xlink:href="#ArialMT-79" x="444.775391"/>
      <use xlink:href="#ArialMT-73" x="494.775391"/>
      <use xlink:href="#ArialMT-20" x="544.775391"/>
      <use xlink:href="#ArialMT-73" x="572.558594"/>
      <use xlink:href="#ArialMT-69" x="622.558594"/>
      <use xlink:href="#ArialMT-6e" x="644.775391"/>
      <use xlink:href="#ArialMT-63" x="700.390625"/>
      <use xlink:href="#ArialMT-65" x="750.390625"/>
      <use xlink:href="#ArialMT-20" x="806.005859"/>
      <use xlink:href="#ArialMT-73" x="833.789062"/>
      <use xlink:href="#ArialMT-74" x="883.789062"/>
      <use xlink:href="#ArialMT-61" x="911.572266"/>
      <use xlink:href="#ArialMT-72" x="967.1875"/>
      <use xlink:href="#ArialMT-74" x="1000.488281"/>
      <use xlink:href="#ArialMT-20" x="1028.271484"/>
      <use xlink:href="#ArialMT-6f" x="1056.054688"/>
      <use xlink:href="#ArialMT-66" x="1111.669922"/>
      <use xlink:href="#ArialMT-20" x="1139.453125"/>
      <use xlink:href="#ArialMT-72" x="1167.236328"/>
      <use xlink:href="#ArialMT-65" x="1200.537109"/>
      <use xlink:href="#ArialMT-63" x="1256.152344"/>
      <use xlink:href="#ArialMT-6f" x="1306.152344"/>
      <use xlink:href="#ArialMT-76" x="1361.767578"/>
      <use xlink:href="#ArialMT-65" x="1411.767578"/>
      <use xlink:href="#ArialMT-72" x="1467.382812"/>
      <use xlink:href="#ArialMT-79" x="1500.683594"/>
     </g>
    </g>
   </g>
   <g id="matplotlib.axis_2">
    <g id="ytick_1">
     <g id="line2d_8">
      <defs>
       <path id="m9ece4134c0" d="M 0 0 
L -4.8 0 
" style="stroke: #262626"/>
      </defs>
      <g>
       <use xlink:href="#m9ece4134c0" x="33.173125" y="284.405946" style="fill: #262626; stroke: #262626"/>
      </g>
     </g>
     <g id="text_9">
      <!-- 0 -->
      <g style="fill: #262626" transform="translate(19.9795 287.555383) scale(0.088 -0.088)">
       <use xlink:href="#ArialMT-30"/>
      </g>
     </g>
    </g>
    <g id="ytick_2">
     <g id="line2d_9">
      <g>
       <use xlink:href="#m9ece4134c0" x="33.173125" y="235.827633" style="fill: #262626; stroke: #262626"/>
      </g>
     </g>
     <g id="text_10">
      <!-- 1 -->
      <g style="fill: #262626" transform="translate(19.9795 238.97707) scale(0.088 -0.088)">
       <use xlink:href="#ArialMT-31"/>
      </g>
     </g>
    </g>
    <g id="ytick_3">
     <g id="line2d_10">
      <g>
       <use xlink:href="#m9ece4134c0" x="33.173125" y="187.249319" style="fill: #262626; stroke: #262626"/>
      </g>
     </g>
     <g id="text_11">
      <!-- 2 -->
      <g style="fill: #262626" transform="translate(19.9795 190.398757) scale(0.088 -0.088)">
       <use xlink:href="#ArialMT-32"/>
      </g>
     </g>
    </g>
    <g id="ytick_4">
     <g id="line2d_11">
      <g>
       <use xlink:href="#m9ece4134c0" x="33.173125" y="138.671006" style="fill: #262626; stroke: #262626"/>
      </g>
     </g>
     <g id="text_12">
      <!-- 3 -->
      <g style="fill: #262626" transform="translate(19.9795 141.820444) scale(0.088 -0.088)">
       <defs>
        <path id="ArialMT-33" d="M 269 1209 
L 831 1284 
Q 928 806 1161 595 
Q 1394 384 1728 384 
Q 2125 384 2398 659 
Q 2672 934 2672 1341 
Q 2672 1728 2419 1979 
Q 2166 2231 1775 2231 
Q 1616 2231 1378 2169 
L 1441 2663 
Q 1497 2656 1531 2656 
Q 1891 2656 2178 2843 
Q 2466 3031 2466 3422 
Q 2466 3731 2256 3934 
Q 2047 4138 1716 4138 
Q 1388 4138 1169 3931 
Q 950 3725 888 3313 
L 325 3413 
Q 428 3978 793 4289 
Q 1159 4600 1703 4600 
Q 2078 4600 2393 4439 
Q 2709 4278 2876 4000 
Q 3044 3722 3044 3409 
Q 3044 3113 2884 2869 
Q 2725 2625 2413 2481 
Q 2819 2388 3044 2092 
Q 3269 1797 3269 1353 
Q 3269 753 2831 336 
Q 2394 -81 1725 -81 
Q 1122 -81 723 278 
Q 325 638 269 1209 
z
" transform="scale(0.015625)"/>
       </defs>
       <use xlink:href="#ArialMT-33"/>
      </g>
     </g>
    </g>
    <g id="ytick_5">
     <g id="line2d_12">
      <g>
       <use xlink:href="#m9ece4134c0" x="33.173125" y="90.092693" style="fill: #262626; stroke: #262626"/>
      </g>
     </g>
     <g id="text_13">
      <!-- 4 -->
      <g style="fill: #262626" transform="translate(19.9795 93.24213) scale(0.088 -0.088)">
       <use xlink:href="#ArialMT-34"/>
      </g>
     </g>
    </g>
    <g id="ytick_6">
     <g id="line2d_13">
      <g>
       <use xlink:href="#m9ece4134c0" x="33.173125" y="41.51438" style="fill: #262626; stroke: #262626"/>
      </g>
     </g>
     <g id="text_14">
      <!-- 5 -->
      <g style="fill: #262626" transform="translate(19.9795 44.663817) scale(0.088 -0.088)">
       <defs>
        <path id="ArialMT-35" d="M 266 1200 
L 856 1250 
Q 922 819 1161 601 
Q 1400 384 1738 384 
Q 2144 384 2425 690 
Q 2706 997 2706 1503 
Q 2706 1984 2436 2262 
Q 2166 2541 1728 2541 
Q 1456 2541 1237 2417 
Q 1019 2294 894 2097 
L 366 2166 
L 809 4519 
L 3088 4519 
L 3088 3981 
L 1259 3981 
L 1013 2750 
Q 1425 3038 1878 3038 
Q 2478 3038 2890 2622 
Q 3303 2206 3303 1553 
Q 3303 931 2941 478 
Q 2500 -78 1738 -78 
Q 1113 -78 717 272 
Q 322 622 266 1200 
z
" transform="scale(0.015625)"/>
       </defs>
       <use xlink:href="#ArialMT-35"/>
      </g>
     </g>
    </g>
    <g id="text_15">
     <!-- Scaled rate -->
     <g style="fill: #262626" transform="translate(14.0715 177.52425) rotate(-90) scale(0.096 -0.096)">
      <use xlink:href="#ArialMT-53"/>
      <use xlink:href="#ArialMT-63" x="66.699219"/>
      <use xlink:href="#ArialMT-61" x="116.699219"/>
      <use xlink:href="#ArialMT-6c" x="172.314453"/>
      <use xlink:href="#ArialMT-65" x="194.53125"/>
      <use xlink:href="#ArialMT-64" x="250.146484"/>
      <use xlink:href="#ArialMT-20" x="305.761719"/>
      <use xlink:href="#ArialMT-72" x="333.544922"/>
      <use xlink:href="#ArialMT-61" x="366.845703"/>
      <use xlink:href="#ArialMT-74" x="422.460938"/>
      <use xlink:href="#ArialMT-65" x="450.244141"/>
     </g>
    </g>
   </g>
   <g id="line2d_14">
    <path d="M 49.678213 274.2045 
L 50.222936 274.2045 
L 50.495297 273.232934 
L 51.584742 273.232934 
L 51.857103 273.718717 
L 52.401825 271.289801 
L 52.674187 270.318235 
L 53.49127 269.346669 
L 53.763631 269.346669 
L 54.035993 269.832452 
L 54.308354 270.804018 
L 54.580715 271.289801 
L 55.397799 271.289801 
L 55.67016 270.804018 
L 56.214882 268.860886 
L 56.487243 268.860886 
L 57.576688 267.403536 
L 57.849049 266.43197 
L 58.121411 266.917753 
L 58.393772 264.488837 
L 59.210855 263.031488 
L 59.483217 264.488837 
L 59.755578 264.97462 
L 60.3003 261.088355 
L 61.117384 261.574139 
L 61.389745 261.574139 
L 61.662106 260.116789 
L 61.934467 260.116789 
L 62.206828 261.088355 
L 63.023912 260.116789 
L 63.296273 262.059922 
L 63.568634 261.574139 
L 63.840996 264.488837 
L 64.113357 265.460404 
L 64.93044 262.545705 
L 65.202802 264.488837 
L 65.475163 259.631006 
L 66.019885 258.65944 
L 66.836969 258.65944 
L 67.10933 258.173657 
L 67.381691 259.145223 
L 67.926414 259.145223 
L 68.743497 253.801608 
L 69.015858 255.258958 
L 69.28822 253.315825 
L 69.832942 260.116789 
L 70.650026 259.631006 
L 70.922387 259.145223 
L 71.194748 257.20209 
L 71.467109 253.801608 
L 71.73947 255.258958 
L 72.556554 252.830042 
L 72.828915 250.401127 
L 73.101276 251.372693 
L 73.373638 250.401127 
L 73.645999 251.858476 
L 74.463082 252.344259 
L 74.735443 251.858476 
L 75.007805 250.88691 
L 75.280166 253.315825 
L 75.552527 252.344259 
L 76.369611 252.830042 
L 76.641972 250.401127 
L 76.914333 251.372693 
L 77.186694 249.915343 
L 78.276139 247.486428 
L 78.5485 248.457994 
L 78.820861 247.972211 
L 79.093223 248.943777 
L 79.365584 248.943777 
L 80.182667 246.514861 
L 80.455029 247.000645 
L 80.999751 241.65703 
L 81.272112 242.142813 
L 82.089196 239.713898 
L 82.361557 240.685464 
L 82.633918 239.713898 
L 82.906279 240.199681 
L 83.178641 236.313416 
L 84.268085 232.912934 
L 84.540447 233.8845 
L 84.812808 231.941367 
L 85.085169 235.341849 
L 85.902253 236.313416 
L 86.174614 234.856066 
L 86.446975 229.512452 
L 86.719336 227.083536 
L 86.991697 228.540886 
L 87.808781 227.083536 
L 88.081142 227.083536 
L 88.353503 228.055102 
L 88.625864 226.597753 
L 88.898226 220.768355 
L 89.715309 221.254139 
L 89.98767 218.825223 
L 90.260032 218.33944 
L 90.532393 206.194861 
L 90.804754 211.538476 
L 91.621838 207.652211 
L 91.894199 207.652211 
L 92.16656 210.56691 
L 92.711282 212.995825 
L 94.073088 207.652211 
L 94.34545 209.595343 
L 94.617811 209.10956 
L 95.434894 214.453175 
L 95.707256 220.768355 
L 95.979617 211.538476 
L 96.251978 210.081127 
L 96.524339 211.538476 
L 97.341423 209.10956 
L 97.886145 202.79438 
L 99.247951 193.5645 
L 99.520312 194.536066 
L 99.792674 189.678235 
L 100.065035 190.164018 
L 100.337396 188.706669 
L 101.426841 178.505223 
L 101.699202 180.934139 
L 101.971563 180.934139 
L 102.243924 172.675825 
L 103.061008 170.24691 
L 103.333369 170.24691 
L 103.878091 173.647392 
L 104.150453 165.874861 
L 104.967536 166.360645 
L 105.239897 162.47438 
L 105.512259 162.960163 
L 105.78462 164.417512 
L 106.056981 161.502813 
L 106.874065 162.960163 
L 107.146426 168.303777 
L 107.418787 169.275343 
L 107.691148 164.417512 
L 108.780593 164.903295 
L 109.052954 157.616548 
L 109.325315 158.102331 
L 109.597677 154.216066 
L 109.870038 152.272934 
L 110.687121 156.644982 
L 110.959483 161.01703 
L 111.504205 156.644982 
L 111.776566 153.2445 
L 112.59365 151.787151 
L 112.866011 149.358235 
L 113.138372 155.187633 
L 113.410733 152.758717 
L 113.683094 152.272934 
L 114.500178 157.616548 
L 114.772539 157.130765 
L 115.0449 155.187633 
L 115.317262 160.045464 
L 115.589623 157.616548 
L 116.406706 159.073898 
L 116.679068 152.758717 
L 116.951429 154.216066 
L 117.496151 158.102331 
L 118.313235 155.673416 
L 118.585596 162.960163 
L 119.130318 164.903295 
L 119.40268 164.417512 
L 120.492124 161.502813 
L 120.764486 155.187633 
L 121.036847 155.673416 
L 121.309208 155.187633 
L 122.671014 149.358235 
L 122.943375 146.929319 
L 123.215736 135.756307 
L 124.03282 119.239681 
L 124.305181 116.810765 
L 124.577542 128.955343 
L 124.849904 131.870042 
L 125.122265 130.412693 
L 126.21171 128.46956 
L 126.484071 135.756307 
L 126.756432 138.185223 
L 127.028793 136.727873 
L 127.845877 134.784741 
L 128.118238 133.813175 
L 128.390599 135.756307 
L 128.66296 142.557271 
L 128.935321 146.443536 
L 130.024766 147.415102 
L 130.297127 140.128355 
L 130.569489 137.213657 
L 130.84185 132.841608 
L 131.658933 135.270524 
L 131.931295 137.213657 
L 132.203656 132.355825 
L 132.476017 131.384259 
L 132.748378 132.355825 
L 133.565462 131.384259 
L 133.837823 127.497994 
L 134.110184 126.526428 
L 134.654907 139.642572 
L 135.47199 138.671006 
L 135.744351 137.69944 
L 136.016713 140.614139 
L 136.289074 145.957753 
L 136.561435 144.01462 
L 137.378519 143.528837 
L 137.65088 135.756307 
L 137.923241 133.813175 
L 138.195602 137.213657 
L 138.467963 127.012211 
L 139.285047 128.46956 
L 139.557408 125.069078 
L 139.829769 127.497994 
L 140.10213 127.497994 
L 140.374492 126.526428 
L 141.191575 128.955343 
L 141.736298 125.069078 
L 142.008659 127.983777 
L 142.28102 126.526428 
L 143.098104 123.125946 
L 143.370465 124.583295 
L 143.642826 121.182813 
L 143.915187 121.668596 
L 144.187548 120.69703 
L 145.004632 118.268114 
L 145.276993 116.324982 
L 145.549354 116.810765 
L 145.821716 113.896066 
L 146.094077 119.239681 
L 147.183522 114.381849 
L 147.455883 116.810765 
L 147.728244 115.353416 
L 148.000605 111.467151 
L 148.817689 110.495584 
L 149.09005 102.237271 
L 149.362411 100.779922 
L 149.634772 96.407873 
L 149.907134 97.37944 
L 150.724217 92.521608 
L 150.996578 92.035825 
L 151.26894 89.121127 
L 151.813662 80.37703 
L 152.903107 75.519199 
L 153.175468 86.692211 
L 153.72019 79.405464 
L 154.809635 85.234861 
L 155.081996 82.805946 
L 155.626719 75.519199 
L 156.716163 75.519199 
L 156.988525 76.490765 
L 157.260886 67.260886 
L 157.533247 66.775102 
L 158.350331 68.232452 
L 158.622692 69.204018 
L 158.895053 63.37462 
L 159.167414 59.974139 
L 159.439775 66.289319 
L 160.256859 65.803536 
L 160.52922 69.689801 
L 160.801581 71.147151 
L 161.073943 75.519199 
L 161.346304 70.175584 
L 162.435749 63.860404 
L 162.70811 60.459922 
L 162.980471 55.60209 
L 163.252832 58.031006 
L 164.069916 55.116307 
L 164.614638 60.459922 
L 164.886999 73.576066 
L 165.976444 70.661367 
L 166.521166 73.090283 
L 167.065889 65.317753 
L 168.427695 67.746669 
L 168.972417 69.689801 
L 169.789501 67.746669 
L 170.061862 66.775102 
L 170.606584 77.948114 
L 170.878946 76.490765 
L 171.696029 70.175584 
L 172.240752 77.462331 
L 172.513113 75.033416 
L 173.602558 71.147151 
L 173.874919 79.405464 
L 174.14728 78.919681 
L 174.419641 78.919681 
L 174.692002 81.83438 
L 175.509086 77.948114 
L 175.781447 77.948114 
L 176.053808 79.891247 
L 176.32617 78.433898 
L 176.598531 75.033416 
L 177.687976 74.547633 
L 177.960337 75.033416 
L 178.232698 73.576066 
L 178.505059 70.175584 
L 179.594504 70.661367 
L 179.866865 72.6045 
L 180.139226 68.232452 
L 180.411587 78.433898 
L 181.228671 80.862813 
L 181.501032 78.433898 
L 181.773393 80.37703 
L 182.045755 84.263295 
L 182.318116 79.405464 
L 183.407561 81.348596 
L 183.679922 87.177994 
L 183.952283 85.720645 
L 184.224644 83.291729 
L 185.041728 79.891247 
L 185.314089 84.263295 
L 185.58645 84.749078 
L 185.858811 81.83438 
L 186.948256 77.948114 
L 187.220617 79.891247 
L 187.492979 85.720645 
L 187.76534 85.720645 
L 188.037701 75.519199 
L 189.127146 67.260886 
L 189.399507 68.232452 
L 189.944229 65.803536 
L 190.761313 64.83197 
L 191.033674 60.945705 
L 191.306035 59.974139 
L 191.578397 59.974139 
L 191.850758 60.945705 
L 192.940202 57.545223 
L 193.212564 58.031006 
L 193.484925 58.031006 
L 193.757286 52.201608 
L 194.57437 52.201608 
L 194.846731 50.744259 
L 195.119092 46.857994 
L 195.391453 46.857994 
L 195.663814 48.315343 
L 196.480898 46.857994 
L 196.753259 41.51438 
L 197.02562 39.085464 
L 197.297982 46.372211 
L 197.570343 60.945705 
L 198.387426 88.635343 
L 198.659788 80.37703 
L 198.932149 93.493175 
L 199.20451 83.291729 
L 199.476871 99.322572 
L 200.293955 93.978958 
L 200.566316 81.83438 
L 201.111038 101.751488 
L 201.3834 101.751488 
L 203.017567 85.234861 
L 203.289928 87.177994 
L 204.107012 91.550042 
L 204.379373 97.865223 
L 204.651734 100.294139 
L 204.924095 98.836789 
L 205.196456 91.550042 
L 206.01354 90.092693 
L 206.285901 88.635343 
L 206.558262 92.521608 
L 206.830623 92.035825 
L 207.102985 86.206428 
L 207.920068 81.348596 
L 208.192429 80.862813 
L 208.464791 78.433898 
L 208.737152 83.291729 
L 209.009513 81.83438 
L 209.826597 84.263295 
L 210.098958 96.893657 
L 210.371319 94.950524 
L 210.64368 86.692211 
L 210.916041 88.14956 
L 211.733125 83.291729 
L 212.005486 91.550042 
L 212.277847 95.436307 
L 212.550209 102.237271 
L 212.82257 93.978958 
L 213.639653 90.092693 
L 213.912015 89.60691 
L 214.184376 94.950524 
L 214.456737 95.436307 
L 214.729098 91.064259 
L 215.546182 90.578476 
L 216.090904 84.263295 
L 216.363265 78.433898 
L 216.635627 76.490765 
L 217.45271 76.004982 
L 217.725071 77.462331 
L 217.997433 75.033416 
L 218.269794 65.803536 
L 218.542155 63.860404 
L 219.6316 67.746669 
L 220.176322 74.061849 
L 220.448683 65.803536 
L 221.265767 67.746669 
L 221.810489 62.888837 
L 222.08285 64.83197 
L 222.355212 61.431488 
L 223.172295 63.37462 
L 223.444656 57.545223 
L 223.717018 54.144741 
L 223.989379 59.974139 
L 224.26174 56.087873 
L 225.351185 57.05944 
L 225.623546 57.05944 
L 225.895907 52.687392 
L 226.168268 55.60209 
L 226.985352 58.516789 
L 227.257713 54.144741 
L 227.530074 55.60209 
L 227.802436 47.82956 
L 228.074797 47.82956 
L 228.89188 44.429078 
L 229.436603 44.429078 
L 229.708964 42.000163 
L 229.981325 44.429078 
L 230.798409 48.801127 
L 231.07077 47.343777 
L 231.615492 61.431488 
L 231.887853 54.144741 
L 233.249659 54.144741 
L 233.522021 51.230042 
L 233.794382 50.258476 
L 234.611465 50.744259 
L 234.883827 48.801127 
L 235.156188 50.258476 
L 235.428549 45.886428 
L 235.70091 47.82956 
L 236.517994 47.343777 
L 236.790355 45.400645 
L 237.062716 47.343777 
L 237.335077 46.372211 
L 237.607439 52.201608 
L 238.424522 53.173175 
L 238.696883 54.144741 
L 239.513967 46.857994 
L 240.331051 43.457512 
L 240.603412 45.400645 
L 240.875773 42.971729 
L 241.420495 45.400645 
L 242.237579 42.971729 
L 242.50994 40.542813 
L 242.782301 43.943295 
L 243.054663 42.485946 
L 243.327024 40.05703 
L 244.144107 42.485946 
L 244.416469 47.82956 
L 244.68883 46.372211 
L 244.961191 48.801127 
L 245.233552 47.82956 
L 246.322997 44.429078 
L 246.595358 41.028596 
L 246.867719 44.429078 
L 247.14008 42.485946 
L 247.957164 42.971729 
L 248.229525 42.485946 
L 248.501886 43.457512 
L 248.774248 41.51438 
L 249.046609 40.542813 
L 249.863692 39.085464 
L 250.408415 35.684982 
L 250.680776 35.684982 
L 250.953137 36.656548 
L 251.770221 37.142331 
L 252.042582 39.571247 
L 252.314943 36.656548 
L 252.587304 39.571247 
L 252.859666 40.05703 
L 253.94911 34.227633 
L 254.221472 39.085464 
L 254.493833 40.05703 
L 254.766194 37.628114 
L 255.855639 43.457512 
L 256.128 42.000163 
L 256.400361 38.599681 
L 256.672722 39.571247 
L 257.489806 37.142331 
L 257.762167 32.2845 
L 258.034528 32.2845 
L 258.579251 38.113898 
L 259.396334 39.085464 
L 259.668695 40.542813 
L 259.941057 37.628114 
L 260.213418 40.542813 
L 260.485779 42.000163 
L 261.302863 40.05703 
L 261.575224 38.113898 
L 261.847585 43.943295 
L 262.119946 42.485946 
L 262.392307 49.772693 
L 263.209391 44.914861 
L 263.481752 45.886428 
L 263.754113 44.914861 
L 264.026475 40.05703 
L 264.298836 39.571247 
L 265.115919 40.542813 
L 265.388281 51.230042 
L 265.660642 46.372211 
L 265.933003 49.772693 
L 266.205364 47.343777 
L 267.022448 46.857994 
L 267.294809 48.315343 
L 267.56717 46.857994 
L 268.111893 45.400645 
L 268.928976 49.28691 
L 269.473699 59.002572 
L 269.74606 54.630524 
L 270.018421 62.888837 
L 270.835504 59.002572 
L 271.107866 62.403054 
L 271.380227 60.945705 
L 271.652588 61.917271 
L 271.924949 55.60209 
L 272.742033 55.60209 
L 273.014394 54.630524 
L 273.286755 67.746669 
L 273.559116 72.118717 
L 273.831478 68.718235 
L 274.648561 69.204018 
L 274.920922 70.175584 
L 275.193284 73.576066 
L 275.465645 74.061849 
L 275.738006 75.033416 
L 276.827451 77.462331 
L 277.099812 80.37703 
L 277.372173 77.462331 
L 277.644534 78.919681 
L 278.733979 74.061849 
L 279.00634 74.061849 
L 279.278702 71.632934 
L 279.551063 70.661367 
L 280.368146 72.6045 
L 280.640508 72.6045 
L 280.912869 72.118717 
L 281.457591 83.291729 
L 282.547036 79.405464 
L 282.819397 73.576066 
L 283.091758 73.576066 
L 283.36412 71.147151 
L 284.181203 72.118717 
L 284.453564 75.033416 
L 284.725925 73.576066 
L 284.998287 76.490765 
L 285.270648 73.576066 
L 286.087731 76.004982 
L 286.360093 72.6045 
L 286.904815 80.37703 
L 287.177176 72.6045 
L 287.99426 67.746669 
L 288.266621 71.147151 
L 288.538982 70.175584 
L 288.811343 67.746669 
L 289.083705 66.775102 
L 289.900788 67.746669 
L 290.173149 59.002572 
L 290.445511 62.888837 
L 290.717872 62.888837 
L 290.990233 59.002572 
L 292.079678 61.431488 
L 292.6244 56.573657 
L 292.896761 57.545223 
L 293.986206 56.087873 
L 294.258567 59.002572 
L 294.530929 59.002572 
L 294.80329 63.860404 
L 295.620373 60.459922 
L 295.892735 63.860404 
L 296.165096 63.37462 
L 296.437457 65.803536 
L 296.709818 66.775102 
L 297.526902 65.317753 
L 297.799263 61.917271 
L 298.071624 60.459922 
L 298.343985 57.05944 
L 298.616346 55.116307 
L 299.43343 54.630524 
L 299.705791 57.05944 
L 299.978152 61.431488 
L 300.250514 59.974139 
L 300.522875 61.431488 
L 301.339958 63.860404 
L 301.61232 62.888837 
L 301.884681 63.860404 
L 302.157042 61.431488 
L 303.246487 55.116307 
L 303.791209 57.05944 
L 304.06357 58.516789 
L 304.335932 54.630524 
L 305.153015 52.201608 
L 305.425376 54.144741 
L 305.697738 42.971729 
L 306.24246 47.343777 
L 307.059544 44.914861 
L 307.331905 42.971729 
L 307.604266 44.914861 
L 307.876627 42.485946 
L 308.148988 42.971729 
L 308.966072 42.971729 
L 309.238433 48.315343 
L 309.510794 46.857994 
L 309.783156 43.457512 
L 310.055517 43.457512 
L 310.8726 42.971729 
L 311.144961 39.571247 
L 311.962045 50.744259 
L 312.779129 50.258476 
L 313.05149 50.258476 
L 313.323851 49.28691 
L 313.596212 51.230042 
L 313.868573 47.82956 
L 314.685657 48.801127 
L 314.958018 50.744259 
L 315.230379 54.630524 
L 315.775102 49.772693 
L 316.592185 50.258476 
L 316.864547 50.258476 
L 317.68163 44.914861 
L 318.771075 44.429078 
L 319.043436 43.457512 
L 319.588159 46.857994 
L 320.405242 50.258476 
L 320.949965 55.116307 
L 321.222326 55.116307 
L 321.494687 47.82956 
L 322.311771 47.82956 
L 323.128854 57.05944 
L 323.401215 57.545223 
L 324.218299 53.658958 
L 324.49066 56.573657 
L 325.035382 56.087873 
L 325.307744 56.087873 
L 326.124827 55.60209 
L 326.397188 58.516789 
L 326.66955 55.60209 
L 326.941911 56.087873 
L 327.214272 55.60209 
L 328.031356 52.687392 
L 328.576078 55.60209 
L 329.1208 60.945705 
L 329.937884 59.974139 
L 330.482606 59.974139 
L 330.754968 65.803536 
L 331.027329 68.232452 
L 331.844412 68.718235 
L 332.389135 69.689801 
L 332.933857 66.289319 
L 333.750941 65.803536 
L 334.023302 70.661367 
L 334.295663 72.118717 
L 334.568024 70.175584 
L 334.840386 72.6045 
L 335.657469 72.6045 
L 335.92983 73.090283 
L 336.202192 76.004982 
L 336.474553 82.320163 
L 336.746914 95.92209 
L 337.563997 95.436307 
L 337.836359 90.578476 
L 338.10872 90.092693 
L 338.381081 88.14956 
L 338.653442 87.663777 
L 339.470526 89.60691 
L 339.742887 93.493175 
L 340.015248 93.007392 
L 340.287609 86.206428 
L 340.559971 87.177994 
L 341.377054 87.177994 
L 341.921777 93.978958 
L 342.194138 90.578476 
L 342.466499 94.950524 
L 343.283583 94.464741 
L 343.555944 98.351006 
L 343.828305 98.351006 
L 344.373027 94.464741 
L 345.462472 95.92209 
L 345.734833 101.751488 
L 346.007195 102.237271 
L 346.279556 106.609319 
L 347.096639 105.637753 
L 347.369001 110.009801 
L 347.913723 107.580886 
L 348.186084 110.981367 
L 349.003168 111.467151 
L 349.54789 109.038235 
L 349.820251 110.009801 
L 350.092612 111.952934 
L 350.909696 110.981367 
L 351.182057 114.867633 
L 351.454418 112.9245 
L 351.72678 109.524018 
L 351.999141 111.952934 
L 352.816224 106.609319 
L 353.088586 109.038235 
L 353.360947 108.066669 
L 353.633308 104.666187 
L 353.905669 93.493175 
L 354.722753 90.578476 
L 354.995114 91.064259 
L 355.267475 90.578476 
L 355.539836 91.064259 
L 355.812198 92.521608 
L 356.901642 92.521608 
L 357.174004 93.493175 
L 357.446365 92.035825 
L 357.718726 92.521608 
L 358.53581 89.121127 
L 358.808171 88.635343 
L 359.080532 86.692211 
L 359.352893 86.692211 
L 359.625254 84.749078 
L 360.442338 84.263295 
L 360.714699 84.749078 
L 360.98706 82.805946 
L 361.259422 82.320163 
L 361.531783 79.891247 
L 362.348866 81.83438 
L 362.621228 80.862813 
L 362.893589 76.976548 
L 363.16595 79.891247 
L 363.438311 77.462331 
L 364.527756 73.576066 
L 364.800117 76.976548 
L 365.072478 73.576066 
L 365.344839 75.033416 
L 366.161923 76.004982 
L 366.434284 76.976548 
L 366.979007 73.576066 
L 367.251368 72.118717 
L 368.068451 79.891247 
L 368.340813 79.891247 
L 368.613174 80.862813 
L 369.157896 83.777512 
L 369.97498 81.83438 
L 370.247341 81.83438 
L 370.519702 83.777512 
L 370.792063 82.805946 
L 371.064425 85.234861 
L 371.881508 83.777512 
L 372.153869 82.805946 
L 372.426231 82.805946 
L 372.698592 81.348596 
L 372.970953 77.948114 
L 374.060398 77.948114 
L 374.060398 77.948114 
" clip-path="url(#p7a4cdfb8a6)" style="fill: none; stroke: #1f77b4; stroke-width: 1.2; stroke-linecap: round"/>
   </g>
   <g id="line2d_15">
    <path d="M 49.405852 274.2045 
L 52.685191 263.844408 
L 55.96453 254.017007 
L 59.243869 244.694907 
L 62.523208 235.852128 
L 65.802546 227.464022 
L 69.081885 219.507213 
L 72.361224 211.959524 
L 75.640563 204.799919 
L 78.919902 198.008443 
L 82.199241 191.566169 
L 85.47858 185.455141 
L 88.757918 179.658327 
L 92.037257 174.159572 
L 95.316596 168.943549 
L 98.595935 163.995722 
L 101.875274 159.3023 
L 105.154613 154.850202 
L 108.433951 150.627021 
L 111.71329 146.620985 
L 114.992629 142.82093 
L 118.271968 139.216265 
L 121.551307 135.796943 
L 124.830646 132.553434 
L 128.109985 129.476699 
L 131.389323 126.558161 
L 134.668662 123.789689 
L 137.948001 121.163564 
L 141.22734 118.672468 
L 144.506679 116.309459 
L 147.786018 114.067949 
L 151.065356 111.941693 
L 154.344695 109.924764 
L 157.624034 108.01154 
L 160.903373 106.19669 
L 164.182712 104.475155 
L 167.462051 102.842137 
L 170.741389 101.293085 
L 174.020728 99.823681 
L 177.300067 98.429831 
L 180.579406 97.107649 
L 183.858745 95.853451 
L 187.138084 94.66374 
L 190.417423 93.535202 
L 193.696761 92.46469 
L 196.9761 91.449221 
L 200.255439 90.485965 
L 203.534778 89.572238 
L 206.814117 88.705492 
L 210.093456 87.883312 
L 213.372794 87.103407 
L 216.652133 86.363603 
L 219.931472 85.661837 
L 223.210811 84.996155 
L 226.49015 84.3647 
L 229.769489 83.765713 
L 233.048827 83.197525 
L 236.328166 82.658552 
L 239.607505 82.147291 
L 242.886844 81.662318 
L 246.166183 81.202281 
L 249.445522 80.765898 
L 252.724861 80.351953 
L 256.004199 79.959292 
L 259.283538 79.586821 
L 262.562877 79.233501 
L 265.842216 78.898349 
L 269.121555 78.580428 
L 272.400894 78.278855 
L 275.680232 77.992788 
L 278.959571 77.721429 
L 282.23891 77.464024 
L 285.518249 77.219853 
L 288.797588 76.988237 
L 292.076927 76.76853 
L 295.356265 76.56012 
L 298.635604 76.362426 
L 301.914943 76.174897 
L 305.194282 75.99701 
L 308.473621 75.82827 
L 311.75296 75.668206 
L 315.032299 75.516372 
L 318.311637 75.372345 
L 321.590976 75.235724 
L 324.870315 75.106127 
L 328.149654 74.983194 
L 331.428993 74.866581 
L 334.708332 74.755965 
L 337.98767 74.651036 
L 341.267009 74.551503 
L 344.546348 74.457087 
L 347.825687 74.367526 
L 351.105026 74.28257 
L 354.384365 74.201982 
L 357.663704 74.125538 
L 360.943042 74.053024 
L 364.222381 73.984239 
L 367.50172 73.91899 
L 370.781059 73.857097 
L 374.060398 73.798386 
" clip-path="url(#p7a4cdfb8a6)" style="fill: none; stroke: #ff7f0e; stroke-width: 1.2; stroke-linecap: round"/>
   </g>
   <g id="patch_3">
    <path d="M 33.173125 284.405946 
L 33.173125 41.51438 
" style="fill: none; stroke: #262626; stroke-linejoin: miter; stroke-linecap: square"/>
   </g>
   <g id="patch_4">
    <path d="M 49.405852 286.3005 
L 376.239287 286.3005 
" style="fill: none; stroke: #262626; stroke-linejoin: miter; stroke-linecap: square"/>
   </g>
   <g id="text_16">
    <!-- Scaled two year Treasury note rate -->
    <g style="fill: #262626" transform="translate(137.300125 14.1885) scale(0.096 -0.096)">
     <defs>
      <path id="ArialMT-77" d="M 1034 0 
L 19 3319 
L 600 3319 
L 1128 1403 
L 1325 691 
Q 1338 744 1497 1375 
L 2025 3319 
L 2603 3319 
L 3100 1394 
L 3266 759 
L 3456 1400 
L 4025 3319 
L 4572 3319 
L 3534 0 
L 2950 0 
L 2422 1988 
L 2294 2553 
L 1622 0 
L 1034 0 
z
" transform="scale(0.015625)"/>
      <path id="ArialMT-54" d="M 1659 0 
L 1659 4041 
L 150 4041 
L 150 4581 
L 3781 4581 
L 3781 4041 
L 2266 4041 
L 2266 0 
L 1659 0 
z
" transform="scale(0.015625)"/>
      <path id="ArialMT-75" d="M 2597 0 
L 2597 488 
Q 2209 -75 1544 -75 
Q 1250 -75 995 37 
Q 741 150 617 320 
Q 494 491 444 738 
Q 409 903 409 1263 
L 409 3319 
L 972 3319 
L 972 1478 
Q 972 1038 1006 884 
Q 1059 663 1231 536 
Q 1403 409 1656 409 
Q 1909 409 2131 539 
Q 2353 669 2445 892 
Q 2538 1116 2538 1541 
L 2538 3319 
L 3100 3319 
L 3100 0 
L 2597 0 
z
" transform="scale(0.015625)"/>
     </defs>
     <use xlink:href="#ArialMT-53"/>
     <use xlink:href="#ArialMT-63" x="66.699219"/>
     <use xlink:href="#ArialMT-61" x="116.699219"/>
     <use xlink:href="#ArialMT-6c" x="172.314453"/>
     <use xlink:href="#ArialMT-65" x="194.53125"/>
     <use xlink:href="#ArialMT-64" x="250.146484"/>
     <use xlink:href="#ArialMT-20" x="305.761719"/>
     <use xlink:href="#ArialMT-74" x="333.544922"/>
     <use xlink:href="#ArialMT-77" x="361.328125"/>
     <use xlink:href="#ArialMT-6f" x="433.544922"/>
     <use xlink:href="#ArialMT-20" x="489.160156"/>
     <use xlink:href="#ArialMT-79" x="516.943359"/>
     <use xlink:href="#ArialMT-65" x="566.943359"/>
     <use xlink:href="#ArialMT-61" x="622.558594"/>
     <use xlink:href="#ArialMT-72" x="678.173828"/>
     <use xlink:href="#ArialMT-20" x="711.474609"/>
     <use xlink:href="#ArialMT-54" x="737.507812"/>
     <use xlink:href="#ArialMT-72" x="794.841797"/>
     <use xlink:href="#ArialMT-65" x="828.142578"/>
     <use xlink:href="#ArialMT-61" x="883.757812"/>
     <use xlink:href="#ArialMT-73" x="939.373047"/>
     <use xlink:href="#ArialMT-75" x="989.373047"/>
     <use xlink:href="#ArialMT-72" x="1044.988281"/>
     <use xlink:href="#ArialMT-79" x="1078.289062"/>
     <use xlink:href="#ArialMT-20" x="1128.289062"/>
     <use xlink:href="#ArialMT-6e" x="1156.072266"/>
     <use xlink:href="#ArialMT-6f" x="1211.6875"/>
     <use xlink:href="#ArialMT-74" x="1267.302734"/>
     <use xlink:href="#ArialMT-65" x="1295.085938"/>
     <use xlink:href="#ArialMT-20" x="1350.701172"/>
     <use xlink:href="#ArialMT-72" x="1378.484375"/>
     <use xlink:href="#ArialMT-61" x="1411.785156"/>
     <use xlink:href="#ArialMT-74" x="1467.400391"/>
     <use xlink:href="#ArialMT-65" x="1495.183594"/>
    </g>
   </g>
   <g id="legend_1">
    <g id="patch_5">
     <path d="M 39.333125 52.227375 
L 177.049 52.227375 
Q 178.809 52.227375 178.809 50.467375 
L 178.809 26.3485 
Q 178.809 24.5885 177.049 24.5885 
L 39.333125 24.5885 
Q 37.573125 24.5885 37.573125 26.3485 
L 37.573125 50.467375 
Q 37.573125 52.227375 39.333125 52.227375 
z
" style="fill: #ffffff; opacity: 0.8; stroke: #cccccc; stroke-width: 0.8; stroke-linejoin: miter"/>
    </g>
    <g id="line2d_16">
     <path d="M 41.093125 31.327375 
L 49.893125 31.327375 
L 58.693125 31.327375 
" style="fill: none; stroke: #1f77b4; stroke-width: 1.2; stroke-linecap: round"/>
    </g>
    <g id="text_17">
     <!-- Two year Treasury note rate -->
     <g style="fill: #262626" transform="translate(65.733125 34.407375) scale(0.088 -0.088)">
      <use xlink:href="#ArialMT-54"/>
      <use xlink:href="#ArialMT-77" x="55.583984"/>
      <use xlink:href="#ArialMT-6f" x="127.800781"/>
      <use xlink:href="#ArialMT-20" x="183.416016"/>
      <use xlink:href="#ArialMT-79" x="211.199219"/>
      <use xlink:href="#ArialMT-65" x="261.199219"/>
      <use xlink:href="#ArialMT-61" x="316.814453"/>
      <use xlink:href="#ArialMT-72" x="372.429688"/>
      <use xlink:href="#ArialMT-20" x="405.730469"/>
      <use xlink:href="#ArialMT-54" x="431.763672"/>
      <use xlink:href="#ArialMT-72" x="489.097656"/>
      <use xlink:href="#ArialMT-65" x="522.398438"/>
      <use xlink:href="#ArialMT-61" x="578.013672"/>
      <use xlink:href="#ArialMT-73" x="633.628906"/>
      <use xlink:href="#ArialMT-75" x="683.628906"/>
      <use xlink:href="#ArialMT-72" x="739.244141"/>
      <use xlink:href="#ArialMT-79" x="772.544922"/>
      <use xlink:href="#ArialMT-20" x="822.544922"/>
      <use xlink:href="#ArialMT-6e" x="850.328125"/>
      <use xlink:href="#ArialMT-6f" x="905.943359"/>
      <use xlink:href="#ArialMT-74" x="961.558594"/>
      <use xlink:href="#ArialMT-65" x="989.341797"/>
      <use xlink:href="#ArialMT-20" x="1044.957031"/>
      <use xlink:href="#ArialMT-72" x="1072.740234"/>
      <use xlink:href="#ArialMT-61" x="1106.041016"/>
      <use xlink:href="#ArialMT-74" x="1161.65625"/>
      <use xlink:href="#ArialMT-65" x="1189.439453"/>
     </g>
    </g>
    <g id="line2d_17">
     <path d="M 41.093125 43.878375 
L 49.893125 43.878375 
L 58.693125 43.878375 
" style="fill: none; stroke: #ff7f0e; stroke-width: 1.2; stroke-linecap: round"/>
    </g>
    <g id="text_18">
     <!-- Expected rate -->
     <g style="fill: #262626" transform="translate(65.733125 46.958375) scale(0.088 -0.088)">
      <defs>
       <path id="ArialMT-45" d="M 506 0 
L 506 4581 
L 3819 4581 
L 3819 4041 
L 1113 4041 
L 1113 2638 
L 3647 2638 
L 3647 2100 
L 1113 2100 
L 1113 541 
L 3925 541 
L 3925 0 
L 506 0 
z
" transform="scale(0.015625)"/>
       <path id="ArialMT-78" d="M 47 0 
L 1259 1725 
L 138 3319 
L 841 3319 
L 1350 2541 
Q 1494 2319 1581 2169 
Q 1719 2375 1834 2534 
L 2394 3319 
L 3066 3319 
L 1919 1756 
L 3153 0 
L 2463 0 
L 1781 1031 
L 1600 1309 
L 728 0 
L 47 0 
z
" transform="scale(0.015625)"/>
       <path id="ArialMT-70" d="M 422 -1272 
L 422 3319 
L 934 3319 
L 934 2888 
Q 1116 3141 1344 3267 
Q 1572 3394 1897 3394 
Q 2322 3394 2647 3175 
Q 2972 2956 3137 2557 
Q 3303 2159 3303 1684 
Q 3303 1175 3120 767 
Q 2938 359 2589 142 
Q 2241 -75 1856 -75 
Q 1575 -75 1351 44 
Q 1128 163 984 344 
L 984 -1272 
L 422 -1272 
z
M 931 1641 
Q 931 1000 1190 694 
Q 1450 388 1819 388 
Q 2194 388 2461 705 
Q 2728 1022 2728 1688 
Q 2728 2322 2467 2637 
Q 2206 2953 1844 2953 
Q 1484 2953 1207 2617 
Q 931 2281 931 1641 
z
" transform="scale(0.015625)"/>
      </defs>
      <use xlink:href="#ArialMT-45"/>
      <use xlink:href="#ArialMT-78" x="66.699219"/>
      <use xlink:href="#ArialMT-70" x="116.699219"/>
      <use xlink:href="#ArialMT-65" x="172.314453"/>
      <use xlink:href="#ArialMT-63" x="227.929688"/>
      <use xlink:href="#ArialMT-74" x="277.929688"/>
      <use xlink:href="#ArialMT-65" x="305.712891"/>
      <use xlink:href="#ArialMT-64" x="361.328125"/>
      <use xlink:href="#ArialMT-20" x="416.943359"/>
      <use xlink:href="#ArialMT-72" x="444.726562"/>
      <use xlink:href="#ArialMT-61" x="478.027344"/>
      <use xlink:href="#ArialMT-74" x="533.642578"/>
      <use xlink:href="#ArialMT-65" x="561.425781"/>
     </g>
    </g>
   </g>
  </g>
 </g>
 <defs>
  <clipPath id="p7a4cdfb8a6">
   <rect x="33.173125" y="20.1885" width="357.12" height="266.112"/>
  </clipPath>
 </defs>
</svg>