<?xml version="1.0" encoding="utf-8" standalone="no"?>
<!DOCTYPE svg PUBLIC "-//W3C//DTD SVG 1.1//EN"
  "http://www.w3.org/Graphics/SVG/1.1/DTD/svg11.dtd">
<svg xmlns:xlink="http://www.w3.org/1999/xlink" width="389.853375pt" height="296.859875pt" viewBox="0 0 389.853375 296.859875" xmlns="http://www.w3.org/2000/svg" version="1.1">
 <metadata>
  <rdf:RDF xmlns:dc="http://purl.org/dc/elements/1.1/" xmlns:cc="http://creativecommons.org/ns#" xmlns:rdf="http://www.w3.org/1999/02/22-rdf-syntax-ns#">
   <cc:Work>
    <dc:type rdf:resource="http://purl.org/dc/dcmitype/StillImage"/>
    <dc:date>2024-10-22T06:40:05.755278</dc:date>
    <dc:format>image/svg+xml</dc:format>
    <dc:creator>
     <cc:Agent>
      <dc:title>Matplotlib v3.9.2, https://matplotlib.org/</dc:title>
     </cc:Agent>
    </dc:creator>
   </cc:Work>
  </rdf:RDF>
 </metadata>
 <defs>
  <style type="text/css">*{stroke-linejoin: round; stroke-linecap: butt}</style>
 </defs>
 <g id="figure_1">
  <g id="patch_1">
   <path d="M 0 296.859875 
L 389.853375 296.859875 
L 389.853375 0 
L 0 0 
z
" style="fill: #ffffff"/>
  </g>
  <g id="axes_1">
   <g id="patch_2">
    <path d="M 25.533375 273.312 
L 382.653375 273.312 
L 382.653375 7.2 
L 25.533375 7.2 
z
" style="fill: #ffffff"/>
   </g>
   <g id="matplotlib.axis_1">
    <g id="xtick_1">
     <g id="line2d_1">
      <defs>
       <path id="mc40d24ea4a" d="M 0 0 
L 0 4.8 
" style="stroke: #262626"/>
      </defs>
      <g>
       <use xlink:href="#mc40d24ea4a" x="41.766102" y="273.312" style="fill: #262626; stroke: #262626"/>
      </g>
     </g>
     <g id="text_1">
      <!-- 0.0 -->
      <g style="fill: #262626" transform="translate(35.650102 287.910875) scale(0.088 -0.088)">
       <defs>
        <path id="ArialMT-30" d="M 266 2259 
Q 266 3072 433 3567 
Q 600 4063 929 4331 
Q 1259 4600 1759 4600 
Q 2128 4600 2406 4451 
Q 2684 4303 2865 4023 
Q 3047 3744 3150 3342 
Q 3253 2941 3253 2259 
Q 3253 1453 3087 958 
Q 2922 463 2592 192 
Q 2263 -78 1759 -78 
Q 1097 -78 719 397 
Q 266 969 266 2259 
z
M 844 2259 
Q 844 1131 1108 757 
Q 1372 384 1759 384 
Q 2147 384 2411 759 
Q 2675 1134 2675 2259 
Q 2675 3391 2411 3762 
Q 2147 4134 1753 4134 
Q 1366 4134 1134 3806 
Q 844 3388 844 2259 
z
" transform="scale(0.015625)"/>
        <path id="ArialMT-2e" d="M 581 0 
L 581 641 
L 1222 641 
L 1222 0 
L 581 0 
z
" transform="scale(0.015625)"/>
       </defs>
       <use xlink:href="#ArialMT-30"/>
       <use xlink:href="#ArialMT-2e" x="55.615234"/>
       <use xlink:href="#ArialMT-30" x="83.398438"/>
      </g>
     </g>
    </g>
    <g id="xtick_2">
     <g id="line2d_2">
      <g>
       <use xlink:href="#mc40d24ea4a" x="106.697011" y="273.312" style="fill: #262626; stroke: #262626"/>
      </g>
     </g>
     <g id="text_2">
      <!-- 0.2 -->
      <g style="fill: #262626" transform="translate(100.581011 287.910875) scale(0.088 -0.088)">
       <defs>
        <path id="ArialMT-32" d="M 3222 541 
L 3222 0 
L 194 0 
Q 188 203 259 391 
Q 375 700 629 1000 
Q 884 1300 1366 1694 
Q 2113 2306 2375 2664 
Q 2638 3022 2638 3341 
Q 2638 3675 2398 3904 
Q 2159 4134 1775 4134 
Q 1369 4134 1125 3890 
Q 881 3647 878 3216 
L 300 3275 
Q 359 3922 746 4261 
Q 1134 4600 1788 4600 
Q 2447 4600 2831 4234 
Q 3216 3869 3216 3328 
Q 3216 3053 3103 2787 
Q 2991 2522 2730 2228 
Q 2469 1934 1863 1422 
Q 1356 997 1212 845 
Q 1069 694 975 541 
L 3222 541 
z
" transform="scale(0.015625)"/>
       </defs>
       <use xlink:href="#ArialMT-30"/>
       <use xlink:href="#ArialMT-2e" x="55.615234"/>
       <use xlink:href="#ArialMT-32" x="83.398438"/>
      </g>
     </g>
    </g>
    <g id="xtick_3">
     <g id="line2d_3">
      <g>
       <use xlink:href="#mc40d24ea4a" x="171.62792" y="273.312" style="fill: #262626; stroke: #262626"/>
      </g>
     </g>
     <g id="text_3">
      <!-- 0.4 -->
      <g style="fill: #262626" transform="translate(165.51192 287.910875) scale(0.088 -0.088)">
       <defs>
        <path id="ArialMT-34" d="M 2069 0 
L 2069 1097 
L 81 1097 
L 81 1613 
L 2172 4581 
L 2631 4581 
L 2631 1613 
L 3250 1613 
L 3250 1097 
L 2631 1097 
L 2631 0 
L 2069 0 
z
M 2069 1613 
L 2069 3678 
L 634 1613 
L 2069 1613 
z
" transform="scale(0.015625)"/>
       </defs>
       <use xlink:href="#ArialMT-30"/>
       <use xlink:href="#ArialMT-2e" x="55.615234"/>
       <use xlink:href="#ArialMT-34" x="83.398438"/>
      </g>
     </g>
    </g>
    <g id="xtick_4">
     <g id="line2d_4">
      <g>
       <use xlink:href="#mc40d24ea4a" x="236.55883" y="273.312" style="fill: #262626; stroke: #262626"/>
      </g>
     </g>
     <g id="text_4">
      <!-- 0.6 -->
      <g style="fill: #262626" transform="translate(230.44283 287.910875) scale(0.088 -0.088)">
       <defs>
        <path id="ArialMT-36" d="M 3184 3459 
L 2625 3416 
Q 2550 3747 2413 3897 
Q 2184 4138 1850 4138 
Q 1581 4138 1378 3988 
Q 1113 3794 959 3422 
Q 806 3050 800 2363 
Q 1003 2672 1297 2822 
Q 1591 2972 1913 2972 
Q 2475 2972 2870 2558 
Q 3266 2144 3266 1488 
Q 3266 1056 3080 686 
Q 2894 316 2569 119 
Q 2244 -78 1831 -78 
Q 1128 -78 684 439 
Q 241 956 241 2144 
Q 241 3472 731 4075 
Q 1159 4600 1884 4600 
Q 2425 4600 2770 4297 
Q 3116 3994 3184 3459 
z
M 888 1484 
Q 888 1194 1011 928 
Q 1134 663 1356 523 
Q 1578 384 1822 384 
Q 2178 384 2434 671 
Q 2691 959 2691 1453 
Q 2691 1928 2437 2201 
Q 2184 2475 1800 2475 
Q 1419 2475 1153 2201 
Q 888 1928 888 1484 
z
" transform="scale(0.015625)"/>
       </defs>
       <use xlink:href="#ArialMT-30"/>
       <use xlink:href="#ArialMT-2e" x="55.615234"/>
       <use xlink:href="#ArialMT-36" x="83.398438"/>
      </g>
     </g>
    </g>
    <g id="xtick_5">
     <g id="line2d_5">
      <g>
       <use xlink:href="#mc40d24ea4a" x="301.489739" y="273.312" style="fill: #262626; stroke: #262626"/>
      </g>
     </g>
     <g id="text_5">
      <!-- 0.8 -->
      <g style="fill: #262626" transform="translate(295.373739 287.910875) scale(0.088 -0.088)">
       <defs>
        <path id="ArialMT-38" d="M 1131 2484 
Q 781 2613 612 2850 
Q 444 3088 444 3419 
Q 444 3919 803 4259 
Q 1163 4600 1759 4600 
Q 2359 4600 2725 4251 
Q 3091 3903 3091 3403 
Q 3091 3084 2923 2848 
Q 2756 2613 2416 2484 
Q 2838 2347 3058 2040 
Q 3278 1734 3278 1309 
Q 3278 722 2862 322 
Q 2447 -78 1769 -78 
Q 1091 -78 675 323 
Q 259 725 259 1325 
Q 259 1772 486 2073 
Q 713 2375 1131 2484 
z
M 1019 3438 
Q 1019 3113 1228 2906 
Q 1438 2700 1772 2700 
Q 2097 2700 2305 2904 
Q 2513 3109 2513 3406 
Q 2513 3716 2298 3927 
Q 2084 4138 1766 4138 
Q 1444 4138 1231 3931 
Q 1019 3725 1019 3438 
z
M 838 1322 
Q 838 1081 952 856 
Q 1066 631 1291 507 
Q 1516 384 1775 384 
Q 2178 384 2440 643 
Q 2703 903 2703 1303 
Q 2703 1709 2433 1975 
Q 2163 2241 1756 2241 
Q 1359 2241 1098 1978 
Q 838 1716 838 1322 
z
" transform="scale(0.015625)"/>
       </defs>
       <use xlink:href="#ArialMT-30"/>
       <use xlink:href="#ArialMT-2e" x="55.615234"/>
       <use xlink:href="#ArialMT-38" x="83.398438"/>
      </g>
     </g>
    </g>
    <g id="xtick_6">
     <g id="line2d_6">
      <g>
       <use xlink:href="#mc40d24ea4a" x="366.420648" y="273.312" style="fill: #262626; stroke: #262626"/>
      </g>
     </g>
     <g id="text_6">
      <!-- 1.0 -->
      <g style="fill: #262626" transform="translate(360.304648 287.910875) scale(0.088 -0.088)">
       <defs>
        <path id="ArialMT-31" d="M 2384 0 
L 1822 0 
L 1822 3584 
Q 1619 3391 1289 3197 
Q 959 3003 697 2906 
L 697 3450 
Q 1169 3672 1522 3987 
Q 1875 4303 2022 4600 
L 2384 4600 
L 2384 0 
z
" transform="scale(0.015625)"/>
       </defs>
       <use xlink:href="#ArialMT-31"/>
       <use xlink:href="#ArialMT-2e" x="55.615234"/>
       <use xlink:href="#ArialMT-30" x="83.398438"/>
      </g>
     </g>
    </g>
   </g>
   <g id="matplotlib.axis_2">
    <g id="ytick_1">
     <g id="line2d_7">
      <defs>
       <path id="m7192767547" d="M 0 0 
L -4.8 0 
" style="stroke: #262626"/>
      </defs>
      <g>
       <use xlink:href="#m7192767547" x="25.533375" y="236.764823" style="fill: #262626; stroke: #262626"/>
      </g>
     </g>
     <g id="text_7">
      <!-- −2 -->
      <g style="fill: #262626" transform="translate(7.2 239.914261) scale(0.088 -0.088)">
       <defs>
        <path id="ArialMT-2212" d="M 3381 1997 
L 356 1997 
L 356 2522 
L 3381 2522 
L 3381 1997 
z
" transform="scale(0.015625)"/>
       </defs>
       <use xlink:href="#ArialMT-2212"/>
       <use xlink:href="#ArialMT-32" x="58.398438"/>
      </g>
     </g>
    </g>
    <g id="ytick_2">
     <g id="line2d_8">
      <g>
       <use xlink:href="#m7192767547" x="25.533375" y="185.733877" style="fill: #262626; stroke: #262626"/>
      </g>
     </g>
     <g id="text_8">
      <!-- −1 -->
      <g style="fill: #262626" transform="translate(7.2 188.883315) scale(0.088 -0.088)">
       <use xlink:href="#ArialMT-2212"/>
       <use xlink:href="#ArialMT-31" x="58.398438"/>
      </g>
     </g>
    </g>
    <g id="ytick_3">
     <g id="line2d_9">
      <g>
       <use xlink:href="#m7192767547" x="25.533375" y="134.702932" style="fill: #262626; stroke: #262626"/>
      </g>
     </g>
     <g id="text_9">
      <!-- 0 -->
      <g style="fill: #262626" transform="translate(12.33975 137.852369) scale(0.088 -0.088)">
       <use xlink:href="#ArialMT-30"/>
      </g>
     </g>
    </g>
    <g id="ytick_4">
     <g id="line2d_10">
      <g>
       <use xlink:href="#m7192767547" x="25.533375" y="83.671986" style="fill: #262626; stroke: #262626"/>
      </g>
     </g>
     <g id="text_10">
      <!-- 1 -->
      <g style="fill: #262626" transform="translate(12.33975 86.821423) scale(0.088 -0.088)">
       <use xlink:href="#ArialMT-31"/>
      </g>
     </g>
    </g>
    <g id="ytick_5">
     <g id="line2d_11">
      <g>
       <use xlink:href="#m7192767547" x="25.533375" y="32.64104" style="fill: #262626; stroke: #262626"/>
      </g>
     </g>
     <g id="text_11">
      <!-- 2 -->
      <g style="fill: #262626" transform="translate(12.33975 35.790478) scale(0.088 -0.088)">
       <use xlink:href="#ArialMT-32"/>
      </g>
     </g>
    </g>
   </g>
   <g id="line2d_12">
    <path d="M 41.766102 226.53121 
L 45.045441 234.594399 
L 48.32478 241.808332 
L 51.604119 248.067457 
L 54.883458 253.254998 
L 58.162796 257.250079 
L 61.442135 259.937017 
L 64.721474 261.216 
L 68.000813 261.014225 
L 71.280152 259.296441 
L 74.559491 256.073874 
L 77.83883 251.410593 
L 81.118168 245.426533 
L 84.397507 238.296648 
L 87.676846 230.245954 
L 90.956185 221.540562 
L 94.235524 212.475121 
L 97.514863 203.357418 
L 100.794201 194.491142 
L 104.07354 186.158021 
L 107.352879 178.600652 
L 110.632218 172.007339 
L 113.911557 166.500186 
L 117.190896 162.127469 
L 120.470235 158.86103 
L 123.749573 156.599101 
L 127.028912 155.174535 
L 130.308251 154.368017 
L 133.58759 153.925447 
L 136.866929 153.578303 
L 140.146268 153.065557 
L 143.425606 152.155519 
L 146.704945 150.665957 
L 149.984284 148.480906 
L 153.263623 145.562784 
L 156.542962 141.958747 
L 159.822301 137.800624 
L 163.101639 133.298248 
L 166.380978 128.726474 
L 169.660317 124.406697 
L 172.939656 120.684082 
L 176.218995 117.902118 
L 179.498334 116.376296 
L 182.777673 116.368869 
L 186.057011 118.066581 
L 189.33635 121.56307 
L 192.615689 126.847347 
L 195.895028 133.799303 
L 199.174367 142.192696 
L 202.453706 151.705517 
L 205.733044 161.93709 
L 209.012383 172.430744 
L 212.291722 182.700487 
L 215.571061 192.259808 
L 218.8504 200.650576 
L 222.129739 207.46999 
L 225.409077 212.393709 
L 228.688416 215.193577 
L 231.967755 215.748772 
L 235.247094 214.049721 
L 238.526433 210.194686 
L 241.805772 204.379454 
L 245.085111 196.8811 
L 248.364449 188.037207 
L 251.643788 178.222237 
L 254.923127 167.822925 
L 258.202466 157.214564 
L 261.481805 146.739925 
L 264.761144 136.69228 
L 268.040482 127.30359 
L 271.319821 118.73846 
L 274.59916 111.093962 
L 277.878499 104.404907 
L 281.157838 98.653722 
L 284.437177 93.783694 
L 287.716515 89.714132 
L 290.995854 86.355854 
L 294.275193 83.625485 
L 297.554532 81.457177 
L 300.833871 79.810718 
L 304.11321 78.675316 
L 307.392549 78.068869 
L 310.671887 78.0329 
L 313.951226 78.62385 
L 317.230565 79.901722 
L 320.509904 81.917352 
L 323.789243 84.699736 
L 327.068582 88.244803 
L 330.34792 92.50693 
L 333.627259 97.39421 
L 336.906598 102.768131 
L 340.185937 108.447919 
L 343.465276 114.219332 
L 346.744615 119.847272 
L 350.023954 125.091206 
L 353.303292 129.722091 
L 356.582631 133.53936 
L 359.86197 136.386449 
L 363.141309 138.163502 
L 366.420648 138.836065 
" clip-path="url(#p0367ff6ebc)" style="fill: none; stroke: #1f77b4; stroke-width: 1.2; stroke-linecap: round"/>
   </g>
   <g id="line2d_13">
    <path d="M 41.766102 139.89153 
L 45.045441 140.694372 
L 48.32478 141.79405 
L 51.604119 143.146966 
L 54.883458 144.678216 
L 58.162796 146.289977 
L 61.442135 147.872586 
L 64.721474 149.317089 
L 68.000813 150.527849 
L 71.280152 151.433797 
L 74.559491 151.997044 
L 77.83883 152.217816 
L 81.118168 152.135106 
L 84.397507 151.822861 
L 87.676846 151.382022 
L 90.956185 150.929218 
L 94.235524 150.583274 
L 97.514863 150.45097 
L 100.794201 150.61363 
L 104.07354 151.116054 
L 107.352879 151.959094 
L 110.632218 153.096866 
L 113.911557 154.43907 
L 117.190896 155.858401 
L 120.470235 157.202469 
L 123.749573 158.309169 
L 127.028912 159.024003 
L 130.308251 159.21762 
L 133.58759 158.801733 
L 136.866929 157.741661 
L 140.146268 156.064005 
L 143.425606 153.858422 
L 146.704945 151.272968 
L 149.984284 148.503142 
L 153.263623 145.775357 
L 156.542962 143.326169 
L 159.822301 141.379035 
L 163.101639 140.120727 
L 166.380978 139.679603 
L 169.660317 140.107896 
L 172.939656 141.369862 
L 176.218995 143.337191 
L 179.498334 145.79243 
L 182.777673 148.44053 
L 186.057011 150.92783 
L 189.33635 152.867195 
L 192.615689 153.867352 
L 195.895028 153.564135 
L 199.174367 151.651069 
L 202.453706 147.90673 
L 205.733044 142.216574 
L 209.012383 134.587294 
L 212.291722 125.152413 
L 215.571061 114.1685 
L 218.8504 102.00216 
L 222.129739 89.108736 
L 225.409077 76.004289 
L 228.688416 63.233009 
L 231.967755 51.332547 
L 235.247094 40.799901 
L 238.526433 32.060445 
L 241.805772 25.442379 
L 245.085111 21.158429 
L 248.364449 19.296 
L 251.643788 19.816315 
L 254.923127 22.562326 
L 258.202466 27.274513 
L 261.481805 33.613098 
L 264.761144 41.184749 
L 268.040482 49.571559 
L 271.319821 58.360029 
L 274.59916 67.167859 
L 277.878499 75.666652 
L 281.157838 83.599045 
L 284.437177 90.789312 
L 287.716515 97.147041 
L 290.995854 102.664083 
L 294.275193 107.405465 
L 297.554532 111.495406 
L 300.833871 115.099891 
L 304.11321 118.407393 
L 307.392549 121.609407 
L 310.671887 124.882297 
L 313.951226 128.371766 
L 317.230565 132.18091 
L 320.509904 136.362494 
L 323.789243 140.915652 
L 327.068582 145.786886 
L 330.34792 150.874931 
L 333.627259 156.03877 
L 336.906598 161.107975 
L 340.185937 165.894445 
L 343.465276 170.204654 
L 346.744615 173.851574 
L 350.023954 176.665612 
L 353.303292 178.50402 
L 356.582631 179.258442 
L 359.86197 178.86042 
L 363.141309 177.28478 
L 366.420648 174.550986 
" clip-path="url(#p0367ff6ebc)" style="fill: none; stroke: #1f77b4; stroke-width: 1.2; stroke-linecap: round"/>
   </g>
   <g id="line2d_14">
    <path d="M 41.766102 150.769559 
L 45.045441 152.383419 
L 48.32478 154.016236 
L 51.604119 155.559586 
L 54.883458 156.855248 
L 58.162796 157.708391 
L 61.442135 157.905386 
L 64.721474 157.234605 
L 68.000813 155.50827 
L 71.280152 152.583282 
L 74.559491 148.379075 
L 77.83883 142.890773 
L 81.118168 136.196387 
L 84.397507 128.4573 
L 87.676846 119.911917 
L 90.956185 110.862955 
L 94.235524 101.65941 
L 97.514863 92.674705 
L 100.794201 84.28282 
L 104.07354 76.834351 
L 107.352879 70.634413 
L 110.632218 65.924084 
L 113.911557 62.866729 
L 117.190896 61.540073 
L 120.470235 61.934374 
L 123.749573 63.956512 
L 127.028912 67.439291 
L 130.308251 72.154897 
L 133.58759 77.831127 
L 136.866929 84.16892 
L 140.146268 90.859693 
L 143.425606 97.601194 
L 146.704945 104.110834 
L 149.984284 110.135826 
L 153.263623 115.459866 
L 156.542962 119.906479 
L 159.822301 123.339479 
L 163.101639 125.661287 
L 166.380978 126.809931 
L 169.660317 126.75564 
L 172.939656 125.497789 
L 176.218995 123.06279 
L 179.498334 119.503219 
L 182.777673 114.898179 
L 186.057011 109.354583 
L 189.33635 103.008784 
L 192.615689 96.027805 
L 195.895028 88.609347 
L 199.174367 80.979807 
L 202.453706 73.389719 
L 205.733044 66.106278 
L 209.012383 59.402982 
L 212.291722 53.546796 
L 215.571061 48.783615 
L 218.8504 45.323121 
L 222.129739 43.324355 
L 225.409077 42.883408 
L 228.688416 44.024579 
L 231.967755 46.69615 
L 235.247094 50.771557 
L 238.526433 56.056304 
L 241.805772 62.300413 
L 245.085111 69.215685 
L 248.364449 76.496515 
L 251.643788 83.842612 
L 254.923127 90.981699 
L 258.202466 97.690156 
L 261.481805 103.809695 
L 264.761144 109.258403 
L 268.040482 114.034993 
L 271.319821 118.215658 
L 274.59916 121.943621 
L 277.878499 125.412169 
L 281.157838 128.842569 
L 284.437177 132.458845 
L 287.716515 136.461709 
L 290.995854 141.004117 
L 294.275193 146.170837 
L 297.554532 151.964101 
L 300.833871 158.296912 
L 304.11321 164.994889 
L 307.392549 171.806749 
L 310.671887 178.422728 
L 313.951226 184.499471 
L 317.230565 189.689261 
L 320.509904 193.671019 
L 323.789243 196.180249 
L 327.068582 197.035146 
L 330.34792 196.156357 
L 333.627259 193.578416 
L 336.906598 189.451593 
L 340.185937 184.033733 
L 343.465276 177.672586 
L 346.744615 170.779962 
L 350.023954 163.799855 
L 353.303292 157.173209 
L 356.582631 151.302374 
L 359.86197 146.518343 
L 363.141309 143.053671 
L 366.420648 141.023472 
" clip-path="url(#p0367ff6ebc)" style="fill: none; stroke: #1f77b4; stroke-width: 1.2; stroke-linecap: round"/>
   </g>
   <g id="patch_3">
    <path d="M 25.533375 273.312 
L 25.533375 7.2 
" style="fill: none; stroke: #262626; stroke-linejoin: miter; stroke-linecap: square"/>
   </g>
   <g id="patch_4">
    <path d="M 382.653375 273.312 
L 382.653375 7.2 
" style="fill: none; stroke: #262626; stroke-linejoin: miter; stroke-linecap: square"/>
   </g>
   <g id="patch_5">
    <path d="M 25.533375 273.312 
L 382.653375 273.312 
" style="fill: none; stroke: #262626; stroke-linejoin: miter; stroke-linecap: square"/>
   </g>
   <g id="patch_6">
    <path d="M 25.533375 7.2 
L 382.653375 7.2 
" style="fill: none; stroke: #262626; stroke-linejoin: miter; stroke-linecap: square"/>
   </g>
  </g>
 </g>
 <defs>
  <clipPath id="p0367ff6ebc">
   <rect x="25.533375" y="7.2" width="357.12" height="266.112"/>
  </clipPath>
 </defs>
</svg>