<?xml version="1.0" encoding="utf-8" standalone="no"?>
<!DOCTYPE svg PUBLIC "-//W3C//DTD SVG 1.1//EN"
  "http://www.w3.org/Graphics/SVG/1.1/DTD/svg11.dtd">
<svg xmlns:xlink="http://www.w3.org/1999/xlink" width="410.50375pt" height="327.286875pt" viewBox="0 0 410.50375 327.286875" xmlns="http://www.w3.org/2000/svg" version="1.1">
 <metadata>
  <rdf:RDF xmlns:dc="http://purl.org/dc/elements/1.1/" xmlns:cc="http://creativecommons.org/ns#" xmlns:rdf="http://www.w3.org/1999/02/22-rdf-syntax-ns#">
   <cc:Work>
    <dc:type rdf:resource="http://purl.org/dc/dcmitype/StillImage"/>
    <dc:date>2025-03-14T03:23:34.719148</dc:date>
    <dc:format>image/svg+xml</dc:format>
    <dc:creator>
     <cc:Agent>
      <dc:title>Matplotlib v3.9.2, https://matplotlib.org/</dc:title>
     </cc:Agent>
    </dc:creator>
   </cc:Work>
  </rdf:RDF>
 </metadata>
 <defs>
  <style type="text/css">*{stroke-linejoin: round; stroke-linecap: butt}</style>
 </defs>
 <g id="figure_1">
  <g id="patch_1">
   <path d="M 0 327.286875 
L 410.50375 327.286875 
L 410.50375 0 
L 0 0 
z
" style="fill: #ffffff"/>
  </g>
  <g id="axes_1">
   <g id="patch_2">
    <path d="M 46.18375 290.9595 
L 403.30375 290.9595 
L 403.30375 24.8475 
L 46.18375 24.8475 
z
" style="fill: #ffffff"/>
   </g>
   <g id="matplotlib.axis_1">
    <g id="xtick_1">
     <g id="line2d_1">
      <defs>
       <path id="mf5b595f707" d="M 0 0 
L 0 4.8 
" style="stroke: #262626"/>
      </defs>
      <g>
       <use xlink:href="#mf5b595f707" x="62.416477" y="290.9595" style="fill: #262626; stroke: #262626"/>
      </g>
     </g>
     <g id="text_1">
      <!-- 0.0 -->
      <g style="fill: #262626" transform="translate(56.300477 305.558375) scale(0.088 -0.088)">
       <defs>
        <path id="ArialMT-30" d="M 266 2259 
Q 266 3072 433 3567 
Q 600 4063 929 4331 
Q 1259 4600 1759 4600 
Q 2128 4600 2406 4451 
Q 2684 4303 2865 4023 
Q 3047 3744 3150 3342 
Q 3253 2941 3253 2259 
Q 3253 1453 3087 958 
Q 2922 463 2592 192 
Q 2263 -78 1759 -78 
Q 1097 -78 719 397 
Q 266 969 266 2259 
z
M 844 2259 
Q 844 1131 1108 757 
Q 1372 384 1759 384 
Q 2147 384 2411 759 
Q 2675 1134 2675 2259 
Q 2675 3391 2411 3762 
Q 2147 4134 1753 4134 
Q 1366 4134 1134 3806 
Q 844 3388 844 2259 
z
" transform="scale(0.015625)"/>
        <path id="ArialMT-2e" d="M 581 0 
L 581 641 
L 1222 641 
L 1222 0 
L 581 0 
z
" transform="scale(0.015625)"/>
       </defs>
       <use xlink:href="#ArialMT-30"/>
       <use xlink:href="#ArialMT-2e" x="55.615234"/>
       <use xlink:href="#ArialMT-30" x="83.398438"/>
      </g>
     </g>
    </g>
    <g id="xtick_2">
     <g id="line2d_2">
      <g>
       <use xlink:href="#mf5b595f707" x="127.347386" y="290.9595" style="fill: #262626; stroke: #262626"/>
      </g>
     </g>
     <g id="text_2">
      <!-- 0.2 -->
      <g style="fill: #262626" transform="translate(121.231386 305.558375) scale(0.088 -0.088)">
       <defs>
        <path id="ArialMT-32" d="M 3222 541 
L 3222 0 
L 194 0 
Q 188 203 259 391 
Q 375 700 629 1000 
Q 884 1300 1366 1694 
Q 2113 2306 2375 2664 
Q 2638 3022 2638 3341 
Q 2638 3675 2398 3904 
Q 2159 4134 1775 4134 
Q 1369 4134 1125 3890 
Q 881 3647 878 3216 
L 300 3275 
Q 359 3922 746 4261 
Q 1134 4600 1788 4600 
Q 2447 4600 2831 4234 
Q 3216 3869 3216 3328 
Q 3216 3053 3103 2787 
Q 2991 2522 2730 2228 
Q 2469 1934 1863 1422 
Q 1356 997 1212 845 
Q 1069 694 975 541 
L 3222 541 
z
" transform="scale(0.015625)"/>
       </defs>
       <use xlink:href="#ArialMT-30"/>
       <use xlink:href="#ArialMT-2e" x="55.615234"/>
       <use xlink:href="#ArialMT-32" x="83.398438"/>
      </g>
     </g>
    </g>
    <g id="xtick_3">
     <g id="line2d_3">
      <g>
       <use xlink:href="#mf5b595f707" x="192.278295" y="290.9595" style="fill: #262626; stroke: #262626"/>
      </g>
     </g>
     <g id="text_3">
      <!-- 0.4 -->
      <g style="fill: #262626" transform="translate(186.162295 305.558375) scale(0.088 -0.088)">
       <defs>
        <path id="ArialMT-34" d="M 2069 0 
L 2069 1097 
L 81 1097 
L 81 1613 
L 2172 4581 
L 2631 4581 
L 2631 1613 
L 3250 1613 
L 3250 1097 
L 2631 1097 
L 2631 0 
L 2069 0 
z
M 2069 1613 
L 2069 3678 
L 634 1613 
L 2069 1613 
z
" transform="scale(0.015625)"/>
       </defs>
       <use xlink:href="#ArialMT-30"/>
       <use xlink:href="#ArialMT-2e" x="55.615234"/>
       <use xlink:href="#ArialMT-34" x="83.398438"/>
      </g>
     </g>
    </g>
    <g id="xtick_4">
     <g id="line2d_4">
      <g>
       <use xlink:href="#mf5b595f707" x="257.209205" y="290.9595" style="fill: #262626; stroke: #262626"/>
      </g>
     </g>
     <g id="text_4">
      <!-- 0.6 -->
      <g style="fill: #262626" transform="translate(251.093205 305.558375) scale(0.088 -0.088)">
       <defs>
        <path id="ArialMT-36" d="M 3184 3459 
L 2625 3416 
Q 2550 3747 2413 3897 
Q 2184 4138 1850 4138 
Q 1581 4138 1378 3988 
Q 1113 3794 959 3422 
Q 806 3050 800 2363 
Q 1003 2672 1297 2822 
Q 1591 2972 1913 2972 
Q 2475 2972 2870 2558 
Q 3266 2144 3266 1488 
Q 3266 1056 3080 686 
Q 2894 316 2569 119 
Q 2244 -78 1831 -78 
Q 1128 -78 684 439 
Q 241 956 241 2144 
Q 241 3472 731 4075 
Q 1159 4600 1884 4600 
Q 2425 4600 2770 4297 
Q 3116 3994 3184 3459 
z
M 888 1484 
Q 888 1194 1011 928 
Q 1134 663 1356 523 
Q 1578 384 1822 384 
Q 2178 384 2434 671 
Q 2691 959 2691 1453 
Q 2691 1928 2437 2201 
Q 2184 2475 1800 2475 
Q 1419 2475 1153 2201 
Q 888 1928 888 1484 
z
" transform="scale(0.015625)"/>
       </defs>
       <use xlink:href="#ArialMT-30"/>
       <use xlink:href="#ArialMT-2e" x="55.615234"/>
       <use xlink:href="#ArialMT-36" x="83.398438"/>
      </g>
     </g>
    </g>
    <g id="xtick_5">
     <g id="line2d_5">
      <g>
       <use xlink:href="#mf5b595f707" x="322.140114" y="290.9595" style="fill: #262626; stroke: #262626"/>
      </g>
     </g>
     <g id="text_5">
      <!-- 0.8 -->
      <g style="fill: #262626" transform="translate(316.024114 305.558375) scale(0.088 -0.088)">
       <defs>
        <path id="ArialMT-38" d="M 1131 2484 
Q 781 2613 612 2850 
Q 444 3088 444 3419 
Q 444 3919 803 4259 
Q 1163 4600 1759 4600 
Q 2359 4600 2725 4251 
Q 3091 3903 3091 3403 
Q 3091 3084 2923 2848 
Q 2756 2613 2416 2484 
Q 2838 2347 3058 2040 
Q 3278 1734 3278 1309 
Q 3278 722 2862 322 
Q 2447 -78 1769 -78 
Q 1091 -78 675 323 
Q 259 725 259 1325 
Q 259 1772 486 2073 
Q 713 2375 1131 2484 
z
M 1019 3438 
Q 1019 3113 1228 2906 
Q 1438 2700 1772 2700 
Q 2097 2700 2305 2904 
Q 2513 3109 2513 3406 
Q 2513 3716 2298 3927 
Q 2084 4138 1766 4138 
Q 1444 4138 1231 3931 
Q 1019 3725 1019 3438 
z
M 838 1322 
Q 838 1081 952 856 
Q 1066 631 1291 507 
Q 1516 384 1775 384 
Q 2178 384 2440 643 
Q 2703 903 2703 1303 
Q 2703 1709 2433 1975 
Q 2163 2241 1756 2241 
Q 1359 2241 1098 1978 
Q 838 1716 838 1322 
z
" transform="scale(0.015625)"/>
       </defs>
       <use xlink:href="#ArialMT-30"/>
       <use xlink:href="#ArialMT-2e" x="55.615234"/>
       <use xlink:href="#ArialMT-38" x="83.398438"/>
      </g>
     </g>
    </g>
    <g id="xtick_6">
     <g id="line2d_6">
      <g>
       <use xlink:href="#mf5b595f707" x="387.071023" y="290.9595" style="fill: #262626; stroke: #262626"/>
      </g>
     </g>
     <g id="text_6">
      <!-- 1.0 -->
      <g style="fill: #262626" transform="translate(380.955023 305.558375) scale(0.088 -0.088)">
       <defs>
        <path id="ArialMT-31" d="M 2384 0 
L 1822 0 
L 1822 3584 
Q 1619 3391 1289 3197 
Q 959 3003 697 2906 
L 697 3450 
Q 1169 3672 1522 3987 
Q 1875 4303 2022 4600 
L 2384 4600 
L 2384 0 
z
" transform="scale(0.015625)"/>
       </defs>
       <use xlink:href="#ArialMT-31"/>
       <use xlink:href="#ArialMT-2e" x="55.615234"/>
       <use xlink:href="#ArialMT-30" x="83.398438"/>
      </g>
     </g>
    </g>
    <g id="text_7">
     <!-- $x$ -->
     <g style="fill: #262626" transform="translate(221.86375 318.178875) scale(0.096 -0.096)">
      <defs>
       <path id="DejaVuSans-Oblique-78" d="M 3841 3500 
L 2234 1784 
L 3219 0 
L 2559 0 
L 1819 1388 
L 531 0 
L -166 0 
L 1556 1844 
L 641 3500 
L 1300 3500 
L 1972 2234 
L 3144 3500 
L 3841 3500 
z
" transform="scale(0.015625)"/>
      </defs>
      <use xlink:href="#DejaVuSans-Oblique-78" transform="translate(0 0.3125)"/>
     </g>
    </g>
   </g>
   <g id="matplotlib.axis_2">
    <g id="ytick_1">
     <g id="line2d_7">
      <defs>
       <path id="m03ae17e022" d="M 0 0 
L -4.8 0 
" style="stroke: #262626"/>
      </defs>
      <g>
       <use xlink:href="#m03ae17e022" x="46.18375" y="251.581417" style="fill: #262626; stroke: #262626"/>
      </g>
     </g>
     <g id="text_8">
      <!-- −1.0 -->
      <g style="fill: #262626" transform="translate(20.512 254.730855) scale(0.088 -0.088)">
       <defs>
        <path id="ArialMT-2212" d="M 3381 1997 
L 356 1997 
L 356 2522 
L 3381 2522 
L 3381 1997 
z
" transform="scale(0.015625)"/>
       </defs>
       <use xlink:href="#ArialMT-2212"/>
       <use xlink:href="#ArialMT-31" x="58.398438"/>
       <use xlink:href="#ArialMT-2e" x="114.013672"/>
       <use xlink:href="#ArialMT-30" x="141.796875"/>
      </g>
     </g>
    </g>
    <g id="ytick_2">
     <g id="line2d_8">
      <g>
       <use xlink:href="#m03ae17e022" x="46.18375" y="204.703884" style="fill: #262626; stroke: #262626"/>
      </g>
     </g>
     <g id="text_9">
      <!-- −0.5 -->
      <g style="fill: #262626" transform="translate(20.512 207.853322) scale(0.088 -0.088)">
       <defs>
        <path id="ArialMT-35" d="M 266 1200 
L 856 1250 
Q 922 819 1161 601 
Q 1400 384 1738 384 
Q 2144 384 2425 690 
Q 2706 997 2706 1503 
Q 2706 1984 2436 2262 
Q 2166 2541 1728 2541 
Q 1456 2541 1237 2417 
Q 1019 2294 894 2097 
L 366 2166 
L 809 4519 
L 3088 4519 
L 3088 3981 
L 1259 3981 
L 1013 2750 
Q 1425 3038 1878 3038 
Q 2478 3038 2890 2622 
Q 3303 2206 3303 1553 
Q 3303 931 2941 478 
Q 2500 -78 1738 -78 
Q 1113 -78 717 272 
Q 322 622 266 1200 
z
" transform="scale(0.015625)"/>
       </defs>
       <use xlink:href="#ArialMT-2212"/>
       <use xlink:href="#ArialMT-30" x="58.398438"/>
       <use xlink:href="#ArialMT-2e" x="114.013672"/>
       <use xlink:href="#ArialMT-35" x="141.796875"/>
      </g>
     </g>
    </g>
    <g id="ytick_3">
     <g id="line2d_9">
      <g>
       <use xlink:href="#m03ae17e022" x="46.18375" y="157.826351" style="fill: #262626; stroke: #262626"/>
      </g>
     </g>
     <g id="text_10">
      <!-- 0.0 -->
      <g style="fill: #262626" transform="translate(25.65175 160.975789) scale(0.088 -0.088)">
       <use xlink:href="#ArialMT-30"/>
       <use xlink:href="#ArialMT-2e" x="55.615234"/>
       <use xlink:href="#ArialMT-30" x="83.398438"/>
      </g>
     </g>
    </g>
    <g id="ytick_4">
     <g id="line2d_10">
      <g>
       <use xlink:href="#m03ae17e022" x="46.18375" y="110.948819" style="fill: #262626; stroke: #262626"/>
      </g>
     </g>
     <g id="text_11">
      <!-- 0.5 -->
      <g style="fill: #262626" transform="translate(25.65175 114.098256) scale(0.088 -0.088)">
       <use xlink:href="#ArialMT-30"/>
       <use xlink:href="#ArialMT-2e" x="55.615234"/>
       <use xlink:href="#ArialMT-35" x="83.398438"/>
      </g>
     </g>
    </g>
    <g id="ytick_5">
     <g id="line2d_11">
      <g>
       <use xlink:href="#m03ae17e022" x="46.18375" y="64.071286" style="fill: #262626; stroke: #262626"/>
      </g>
     </g>
     <g id="text_12">
      <!-- 1.0 -->
      <g style="fill: #262626" transform="translate(25.65175 67.220723) scale(0.088 -0.088)">
       <use xlink:href="#ArialMT-31"/>
       <use xlink:href="#ArialMT-2e" x="55.615234"/>
       <use xlink:href="#ArialMT-30" x="83.398438"/>
      </g>
     </g>
    </g>
    <g id="text_13">
     <!-- $\phi_i(x)$ -->
     <g style="fill: #262626" transform="translate(14.496 168.7515) rotate(-90) scale(0.096 -0.096)">
      <defs>
       <path id="DejaVuSans-Oblique-3d5" d="M 2991 4863 
L 2738 3572 
Q 3363 3572 3684 3094 
Q 4016 2606 3850 1747 
Q 3681 888 3159 400 
Q 2653 -78 2028 -78 
L 1784 -1331 
L 1213 -1331 
L 1456 -78 
Q 834 -78 509 400 
Q 178 888 347 1747 
Q 513 2606 1034 3094 
Q 1544 3572 2166 3572 
L 2419 4863 
L 2991 4863 
z
M 2128 434 
Q 2481 434 2784 756 
Q 3116 1116 3244 1747 
Q 3369 2372 3169 2738 
Q 2991 3059 2638 3059 
L 2128 434 
z
M 1556 434 
L 2066 3059 
Q 1716 3059 1413 2738 
Q 1072 2372 953 1747 
Q 834 1116 1028 756 
Q 1203 434 1556 434 
z
" transform="scale(0.015625)"/>
       <path id="DejaVuSans-Oblique-69" d="M 1172 4863 
L 1747 4863 
L 1606 4134 
L 1031 4134 
L 1172 4863 
z
M 909 3500 
L 1484 3500 
L 800 0 
L 225 0 
L 909 3500 
z
" transform="scale(0.015625)"/>
       <path id="DejaVuSans-28" d="M 1984 4856 
Q 1566 4138 1362 3434 
Q 1159 2731 1159 2009 
Q 1159 1288 1364 580 
Q 1569 -128 1984 -844 
L 1484 -844 
Q 1016 -109 783 600 
Q 550 1309 550 2009 
Q 550 2706 781 3412 
Q 1013 4119 1484 4856 
L 1984 4856 
z
" transform="scale(0.015625)"/>
       <path id="DejaVuSans-29" d="M 513 4856 
L 1013 4856 
Q 1481 4119 1714 3412 
Q 1947 2706 1947 2009 
Q 1947 1309 1714 600 
Q 1481 -109 1013 -844 
L 513 -844 
Q 928 -128 1133 580 
Q 1338 1288 1338 2009 
Q 1338 2731 1133 3434 
Q 928 4138 513 4856 
z
" transform="scale(0.015625)"/>
      </defs>
      <use xlink:href="#DejaVuSans-Oblique-3d5" transform="translate(0 0.015625)"/>
      <use xlink:href="#DejaVuSans-Oblique-69" transform="translate(65.966797 -16.390625) scale(0.7)"/>
      <use xlink:href="#DejaVuSans-28" transform="translate(88.149414 0.015625)"/>
      <use xlink:href="#DejaVuSans-Oblique-78" transform="translate(127.163086 0.015625)"/>
      <use xlink:href="#DejaVuSans-29" transform="translate(186.342773 0.015625)"/>
     </g>
    </g>
   </g>
   <g id="line2d_12">
    <path d="M 62.416477 218.347152 
L 65.695816 219.262672 
L 68.975155 219.880708 
L 72.254494 220.264471 
L 75.533833 220.49227 
L 78.813171 220.653648 
L 82.09251 220.844606 
L 85.371849 221.162141 
L 88.651188 221.698441 
L 91.930527 222.535067 
L 95.209866 223.737498 
L 98.489205 225.350418 
L 101.768543 227.394061 
L 105.047882 229.861919 
L 108.327221 232.720016 
L 111.60656 235.907852 
L 114.885899 239.341058 
L 118.165238 242.915638 
L 121.444576 246.513614 
L 124.723915 250.009754 
L 128.003254 253.278994 
L 131.282593 256.204106 
L 134.561932 258.683124 
L 137.841271 260.636029 
L 141.12061 262.010257 
L 144.399948 262.78462 
L 147.679287 262.971345 
L 150.958626 262.616064 
L 154.237965 261.795685 
L 157.517304 260.614252 
L 160.796643 259.19701 
L 164.075981 257.683015 
L 167.35532 256.216755 
L 170.634659 254.93928 
L 173.913998 253.979412 
L 177.193337 253.445589 
L 180.472676 253.41887 
L 183.752014 253.947559 
L 187.031353 255.043807 
L 190.310692 256.68244 
L 193.590031 258.802096 
L 196.86937 261.308649 
L 200.148709 264.080705 
L 203.428048 266.976865 
L 206.707386 269.844304 
L 209.986725 272.528126 
L 213.266064 274.880923 
L 216.545403 276.771926 
L 219.824742 278.095147 
L 223.104081 278.776005 
L 226.383419 278.776005 
L 229.662758 278.095147 
L 232.942097 276.771926 
L 236.221436 274.880923 
L 239.500775 272.528126 
L 242.780114 269.844304 
L 246.059452 266.976865 
L 249.338791 264.080705 
L 252.61813 261.308649 
L 255.897469 258.802096 
L 259.176808 256.68244 
L 262.456147 255.043807 
L 265.735486 253.947559 
L 269.014824 253.41887 
L 272.294163 253.445589 
L 275.573502 253.979412 
L 278.852841 254.93928 
L 282.13218 256.216755 
L 285.411519 257.683015 
L 288.690857 259.19701 
L 291.970196 260.614252 
L 295.249535 261.795685 
L 298.528874 262.616064 
L 301.808213 262.971345 
L 305.087552 262.78462 
L 308.36689 262.010257 
L 311.646229 260.636029 
L 314.925568 258.683124 
L 318.204907 256.204106 
L 321.484246 253.278994 
L 324.763585 250.009754 
L 328.042924 246.513614 
L 331.322262 242.915638 
L 334.601601 239.341058 
L 337.88094 235.907852 
L 341.160279 232.720016 
L 344.439618 229.861919 
L 347.718957 227.394061 
L 350.998295 225.350418 
L 354.277634 223.737498 
L 357.556973 222.535067 
L 360.836312 221.698441 
L 364.115651 221.162141 
L 367.39499 220.844606 
L 370.674329 220.653648 
L 373.953667 220.49227 
L 377.233006 220.264471 
L 380.512345 219.880708 
L 383.791684 219.262672 
L 387.071023 218.347152 
" clip-path="url(#p456eb1c7bb)" style="fill: none; stroke: #1f77b4; stroke-width: 1.2; stroke-linecap: round"/>
   </g>
   <g id="line2d_13">
    <path d="M 62.416477 53.002879 
L 65.695816 52.275395 
L 68.975155 52.280062 
L 72.254494 52.932437 
L 75.533833 54.120725 
L 78.813171 55.71133 
L 82.09251 57.555828 
L 85.371849 59.498967 
L 88.651188 61.387243 
L 91.930527 63.077503 
L 95.209866 64.44508 
L 98.489205 65.390927 
L 101.768543 65.84733 
L 105.047882 65.781825 
L 108.327221 65.19908 
L 111.60656 64.140623 
L 114.885899 62.682438 
L 118.165238 60.930567 
L 121.444576 59.015011 
L 124.723915 57.082294 
L 128.003254 55.28717 
L 131.282593 53.783972 
L 134.561932 52.71814 
L 137.841271 52.218429 
L 141.12061 52.390268 
L 144.399948 53.310617 
L 147.679287 55.024602 
L 150.958626 57.544055 
L 154.237965 60.84797 
L 157.517304 64.884744 
L 160.796643 69.57599 
L 164.075981 74.821577 
L 167.35532 80.505528 
L 170.634659 86.502356 
L 173.913998 92.683435 
L 177.193337 98.92302 
L 180.472676 105.10361 
L 183.752014 111.120418 
L 187.031353 116.884782 
L 190.310692 122.326472 
L 193.590031 127.394906 
L 196.86937 132.059366 
L 200.148709 136.308362 
L 203.428048 140.148313 
L 206.707386 143.60174 
L 209.986725 146.705148 
L 213.266064 149.506748 
L 216.545403 152.064164 
L 219.824742 154.442178 
L 223.104081 156.710581 
L 226.383419 158.942122 
L 229.662758 161.210525 
L 232.942097 163.588539 
L 236.221436 166.145955 
L 239.500775 168.947555 
L 242.780114 172.050962 
L 246.059452 175.50439 
L 249.338791 179.344341 
L 252.61813 183.593336 
L 255.897469 188.257797 
L 259.176808 193.326231 
L 262.456147 198.767921 
L 265.735486 204.532285 
L 269.014824 210.549093 
L 272.294163 216.729683 
L 275.573502 222.969268 
L 278.852841 229.150347 
L 282.13218 235.147175 
L 285.411519 240.831126 
L 288.690857 246.076713 
L 291.970196 250.767959 
L 295.249535 254.804733 
L 298.528874 258.108647 
L 301.808213 260.628101 
L 305.087552 262.342086 
L 308.36689 263.262435 
L 311.646229 263.434274 
L 314.925568 262.934563 
L 318.204907 261.86873 
L 321.484246 260.365533 
L 324.763585 258.570409 
L 328.042924 256.637692 
L 331.322262 254.722136 
L 334.601601 252.970265 
L 337.88094 251.512079 
L 341.160279 250.453623 
L 344.439618 249.870878 
L 347.718957 249.805373 
L 350.998295 250.261776 
L 354.277634 251.207623 
L 357.556973 252.5752 
L 360.836312 254.26546 
L 364.115651 256.153736 
L 367.39499 258.096875 
L 370.674329 259.941372 
L 373.953667 261.531978 
L 377.233006 262.720266 
L 380.512345 263.37264 
L 383.791684 263.377308 
L 387.071023 262.649824 
" clip-path="url(#p456eb1c7bb)" style="fill: none; stroke: #ff7f0e; stroke-width: 1.2; stroke-linecap: round"/>
   </g>
   <g id="line2d_14">
    <path d="M 62.416477 278.8635 
L 65.695816 278.247261 
L 68.975155 276.417768 
L 72.254494 273.430193 
L 75.533833 269.373421 
L 78.813171 264.365608 
L 82.09251 258.548421 
L 85.371849 252.080312 
L 88.651188 245.129274 
L 91.930527 237.865523 
L 95.209866 230.454533 
L 98.489205 223.050781 
L 101.768543 215.792498 
L 105.047882 208.797609 
L 108.327221 202.160971 
L 111.60656 195.952882 
L 114.885899 190.218781 
L 118.165238 184.979984 
L 121.444576 180.235256 
L 124.723915 175.96299 
L 128.003254 172.123788 
L 131.282593 168.663251 
L 134.561932 165.514806 
L 137.841271 162.60249 
L 141.12061 159.843601 
L 144.399948 157.15123 
L 147.679287 154.436684 
L 150.958626 151.61186 
L 154.237965 148.591642 
L 157.517304 145.296366 
L 160.796643 141.654419 
L 164.075981 137.604952 
L 167.35532 133.100705 
L 170.634659 128.110825 
L 173.913998 122.623579 
L 177.193337 116.648758 
L 180.472676 110.219582 
L 183.752014 103.393882 
L 187.031353 96.254334 
L 190.310692 88.907591 
L 193.590031 81.482154 
L 196.86937 74.12496 
L 200.148709 66.996706 
L 203.428048 60.266072 
L 206.707386 54.103069 
L 209.986725 48.671841 
L 213.266064 44.123338 
L 216.545403 40.588271 
L 219.824742 38.170822 
L 223.104081 36.9435 
L 226.383419 36.9435 
L 229.662758 38.170822 
L 232.942097 40.588271 
L 236.221436 44.123338 
L 239.500775 48.671841 
L 242.780114 54.103069 
L 246.059452 60.266072 
L 249.338791 66.996706 
L 252.61813 74.12496 
L 255.897469 81.482154 
L 259.176808 88.907591 
L 262.456147 96.254334 
L 265.735486 103.393882 
L 269.014824 110.219582 
L 272.294163 116.648758 
L 275.573502 122.623579 
L 278.852841 128.110825 
L 282.13218 133.100705 
L 285.411519 137.604952 
L 288.690857 141.654419 
L 291.970196 145.296366 
L 295.249535 148.591642 
L 298.528874 151.61186 
L 301.808213 154.436684 
L 305.087552 157.15123 
L 308.36689 159.843601 
L 311.646229 162.60249 
L 314.925568 165.514806 
L 318.204907 168.663251 
L 321.484246 172.123788 
L 324.763585 175.96299 
L 328.042924 180.235256 
L 331.322262 184.979984 
L 334.601601 190.218781 
L 337.88094 195.952882 
L 341.160279 202.160971 
L 344.439618 208.797609 
L 347.718957 215.792498 
L 350.998295 223.050781 
L 354.277634 230.454533 
L 357.556973 237.865523 
L 360.836312 245.129274 
L 364.115651 252.080312 
L 367.39499 258.548421 
L 370.674329 264.365608 
L 373.953667 269.373421 
L 377.233006 273.430193 
L 380.512345 276.417768 
L 383.791684 278.247261 
L 387.071023 278.8635 
" clip-path="url(#p456eb1c7bb)" style="fill: none; stroke: #2ca02c; stroke-width: 1.2; stroke-linecap: round"/>
   </g>
   <g id="line2d_15">
    <path d="M 62.416477 262.645369 
L 65.695816 260.735165 
L 68.975155 257.426745 
L 72.254494 252.728042 
L 75.533833 246.678283 
L 78.813171 239.346061 
L 82.09251 230.826561 
L 85.371849 221.238198 
L 88.651188 210.718966 
L 91.930527 199.422729 
L 95.209866 187.515669 
L 98.489205 175.173003 
L 101.768543 162.576018 
L 105.047882 149.9094 
L 108.327221 137.358744 
L 111.60656 125.108124 
L 114.885899 113.337578 
L 118.165238 102.220357 
L 121.444576 91.91989 
L 124.723915 82.586426 
L 128.003254 74.353421 
L 131.282593 67.333831 
L 134.561932 61.616501 
L 137.841271 57.262934 
L 141.12061 54.304696 
L 144.399948 52.741746 
L 147.679287 52.5419 
L 150.958626 53.64158 
L 154.237965 55.947901 
L 157.517304 59.342069 
L 160.796643 63.683905 
L 164.075981 68.817299 
L 167.35532 74.57626 
L 170.634659 80.791228 
L 173.913998 87.295284 
L 177.193337 93.929935 
L 180.472676 100.550173 
L 183.752014 107.028593 
L 187.031353 113.258441 
L 190.310692 119.15552 
L 193.590031 124.659001 
L 196.86937 129.731229 
L 200.148709 134.356671 
L 203.428048 138.540197 
L 206.707386 142.304885 
L 209.986725 145.689534 
L 213.266064 148.746054 
L 216.545403 151.536855 
L 219.824742 154.132318 
L 223.104081 156.608393 
L 226.383419 159.04431 
L 229.662758 161.520385 
L 232.942097 164.115848 
L 236.221436 166.906649 
L 239.500775 169.963169 
L 242.780114 173.347818 
L 246.059452 177.112506 
L 249.338791 181.296032 
L 252.61813 185.921474 
L 255.897469 190.993702 
L 259.176808 196.497183 
L 262.456147 202.394262 
L 265.735486 208.624109 
L 269.014824 215.10253 
L 272.294163 221.722768 
L 275.573502 228.357419 
L 278.852841 234.861475 
L 282.13218 241.076443 
L 285.411519 246.835404 
L 288.690857 251.968798 
L 291.970196 256.310634 
L 295.249535 259.704801 
L 298.528874 262.011123 
L 301.808213 263.110802 
L 305.087552 262.910957 
L 308.36689 261.348007 
L 311.646229 258.389769 
L 314.925568 254.036201 
L 318.204907 248.318872 
L 321.484246 241.299282 
L 324.763585 233.066277 
L 328.042924 223.732813 
L 331.322262 213.432346 
L 334.601601 202.315125 
L 337.88094 190.544579 
L 341.160279 178.293959 
L 344.439618 165.743303 
L 347.718957 153.076684 
L 350.998295 140.4797 
L 354.277634 128.137034 
L 357.556973 116.229974 
L 360.836312 104.933737 
L 364.115651 94.414505 
L 367.39499 84.826142 
L 370.674329 76.306642 
L 373.953667 68.97442 
L 377.233006 62.92466 
L 380.512345 58.225958 
L 383.791684 54.917538 
L 387.071023 53.007334 
" clip-path="url(#p456eb1c7bb)" style="fill: none; stroke: #d62728; stroke-width: 1.2; stroke-linecap: round"/>
   </g>
   <g id="line2d_16">
    <path d="M 62.416477 218.342698 
L 65.695816 216.61035 
L 68.975155 213.911899 
L 72.254494 210.233764 
L 75.533833 205.581427 
L 78.813171 199.979214 
L 82.09251 193.469726 
L 85.371849 186.113059 
L 88.651188 177.985935 
L 91.930527 169.180821 
L 95.209866 159.805086 
L 98.489205 149.980173 
L 101.768543 139.840738 
L 105.047882 129.533633 
L 108.327221 119.216611 
L 111.60656 109.056614 
L 114.885899 99.227527 
L 118.165238 89.907327 
L 121.444576 81.274601 
L 124.723915 73.50452 
L 128.003254 66.76437 
L 131.282593 61.208865 
L 134.561932 56.975485 
L 137.841271 54.180115 
L 141.12061 52.913251 
L 144.399948 53.237019 
L 147.679287 55.183171 
L 150.958626 58.752163 
L 154.237965 63.913308 
L 157.517304 70.60593 
L 160.796643 78.741347 
L 164.075981 88.205471 
L 167.35532 98.861786 
L 170.634659 110.554464 
L 173.913998 123.111423 
L 177.193337 136.347183 
L 180.472676 150.065469 
L 183.752014 164.061566 
L 187.031353 178.12452 
L 190.310692 192.03932 
L 193.590031 205.589233 
L 196.86937 218.558445 
L 200.148709 230.73513 
L 203.428048 241.915008 
L 206.707386 251.905356 
L 209.986725 260.529375 
L 213.266064 267.630706 
L 216.545403 273.077846 
L 219.824742 276.768165 
L 223.104081 278.631241 
L 226.383419 278.631241 
L 229.662758 276.768165 
L 232.942097 273.077846 
L 236.221436 267.630706 
L 239.500775 260.529375 
L 242.780114 251.905356 
L 246.059452 241.915008 
L 249.338791 230.73513 
L 252.61813 218.558445 
L 255.897469 205.589233 
L 259.176808 192.03932 
L 262.456147 178.12452 
L 265.735486 164.061566 
L 269.014824 150.065469 
L 272.294163 136.347183 
L 275.573502 123.111423 
L 278.852841 110.554464 
L 282.13218 98.861786 
L 285.411519 88.205471 
L 288.690857 78.741347 
L 291.970196 70.60593 
L 295.249535 63.913308 
L 298.528874 58.752163 
L 301.808213 55.183171 
L 305.087552 53.237019 
L 308.36689 52.913251 
L 311.646229 54.180115 
L 314.925568 56.975485 
L 318.204907 61.208865 
L 321.484246 66.76437 
L 324.763585 73.50452 
L 328.042924 81.274601 
L 331.322262 89.907327 
L 334.601601 99.227527 
L 337.88094 109.056614 
L 341.160279 119.216611 
L 344.439618 129.533633 
L 347.718957 139.840738 
L 350.998295 149.980173 
L 354.277634 159.805086 
L 357.556973 169.180821 
L 360.836312 177.985935 
L 364.115651 186.113059 
L 367.39499 193.469726 
L 370.674329 199.979214 
L 373.953667 205.581427 
L 377.233006 210.233764 
L 380.512345 213.911899 
L 383.791684 216.61035 
L 387.071023 218.342698 
" clip-path="url(#p456eb1c7bb)" style="fill: none; stroke: #9467bd; stroke-width: 1.2; stroke-linecap: round"/>
   </g>
   <g id="patch_3">
    <path d="M 46.18375 251.581417 
L 46.18375 64.071286 
" style="fill: none; stroke: #262626; stroke-linejoin: miter; stroke-linecap: square"/>
   </g>
   <g id="patch_4">
    <path d="M 62.416477 290.9595 
L 387.071023 290.9595 
" style="fill: none; stroke: #262626; stroke-linejoin: miter; stroke-linecap: square"/>
   </g>
   <g id="text_14">
    <!-- Eigenfunctions of RBF kernel -->
    <g style="fill: #262626" transform="translate(121.14 18.8475) scale(0.16 -0.16)">
     <defs>
      <path id="ArialMT-45" d="M 506 0 
L 506 4581 
L 3819 4581 
L 3819 4041 
L 1113 4041 
L 1113 2638 
L 3647 2638 
L 3647 2100 
L 1113 2100 
L 1113 541 
L 3925 541 
L 3925 0 
L 506 0 
z
" transform="scale(0.015625)"/>
      <path id="ArialMT-69" d="M 425 3934 
L 425 4581 
L 988 4581 
L 988 3934 
L 425 3934 
z
M 425 0 
L 425 3319 
L 988 3319 
L 988 0 
L 425 0 
z
" transform="scale(0.015625)"/>
      <path id="ArialMT-67" d="M 319 -275 
L 866 -356 
Q 900 -609 1056 -725 
Q 1266 -881 1628 -881 
Q 2019 -881 2231 -725 
Q 2444 -569 2519 -288 
Q 2563 -116 2559 434 
Q 2191 0 1641 0 
Q 956 0 581 494 
Q 206 988 206 1678 
Q 206 2153 378 2554 
Q 550 2956 876 3175 
Q 1203 3394 1644 3394 
Q 2231 3394 2613 2919 
L 2613 3319 
L 3131 3319 
L 3131 450 
Q 3131 -325 2973 -648 
Q 2816 -972 2473 -1159 
Q 2131 -1347 1631 -1347 
Q 1038 -1347 672 -1080 
Q 306 -813 319 -275 
z
M 784 1719 
Q 784 1066 1043 766 
Q 1303 466 1694 466 
Q 2081 466 2343 764 
Q 2606 1063 2606 1700 
Q 2606 2309 2336 2618 
Q 2066 2928 1684 2928 
Q 1309 2928 1046 2623 
Q 784 2319 784 1719 
z
" transform="scale(0.015625)"/>
      <path id="ArialMT-65" d="M 2694 1069 
L 3275 997 
Q 3138 488 2766 206 
Q 2394 -75 1816 -75 
Q 1088 -75 661 373 
Q 234 822 234 1631 
Q 234 2469 665 2931 
Q 1097 3394 1784 3394 
Q 2450 3394 2872 2941 
Q 3294 2488 3294 1666 
Q 3294 1616 3291 1516 
L 816 1516 
Q 847 969 1125 678 
Q 1403 388 1819 388 
Q 2128 388 2347 550 
Q 2566 713 2694 1069 
z
M 847 1978 
L 2700 1978 
Q 2663 2397 2488 2606 
Q 2219 2931 1791 2931 
Q 1403 2931 1139 2672 
Q 875 2413 847 1978 
z
" transform="scale(0.015625)"/>
      <path id="ArialMT-6e" d="M 422 0 
L 422 3319 
L 928 3319 
L 928 2847 
Q 1294 3394 1984 3394 
Q 2284 3394 2536 3286 
Q 2788 3178 2913 3003 
Q 3038 2828 3088 2588 
Q 3119 2431 3119 2041 
L 3119 0 
L 2556 0 
L 2556 2019 
Q 2556 2363 2490 2533 
Q 2425 2703 2258 2804 
Q 2091 2906 1866 2906 
Q 1506 2906 1245 2678 
Q 984 2450 984 1813 
L 984 0 
L 422 0 
z
" transform="scale(0.015625)"/>
      <path id="ArialMT-66" d="M 556 0 
L 556 2881 
L 59 2881 
L 59 3319 
L 556 3319 
L 556 3672 
Q 556 4006 616 4169 
Q 697 4388 901 4523 
Q 1106 4659 1475 4659 
Q 1713 4659 2000 4603 
L 1916 4113 
Q 1741 4144 1584 4144 
Q 1328 4144 1222 4034 
Q 1116 3925 1116 3625 
L 1116 3319 
L 1763 3319 
L 1763 2881 
L 1116 2881 
L 1116 0 
L 556 0 
z
" transform="scale(0.015625)"/>
      <path id="ArialMT-75" d="M 2597 0 
L 2597 488 
Q 2209 -75 1544 -75 
Q 1250 -75 995 37 
Q 741 150 617 320 
Q 494 491 444 738 
Q 409 903 409 1263 
L 409 3319 
L 972 3319 
L 972 1478 
Q 972 1038 1006 884 
Q 1059 663 1231 536 
Q 1403 409 1656 409 
Q 1909 409 2131 539 
Q 2353 669 2445 892 
Q 2538 1116 2538 1541 
L 2538 3319 
L 3100 3319 
L 3100 0 
L 2597 0 
z
" transform="scale(0.015625)"/>
      <path id="ArialMT-63" d="M 2588 1216 
L 3141 1144 
Q 3050 572 2676 248 
Q 2303 -75 1759 -75 
Q 1078 -75 664 370 
Q 250 816 250 1647 
Q 250 2184 428 2587 
Q 606 2991 970 3192 
Q 1334 3394 1763 3394 
Q 2303 3394 2647 3120 
Q 2991 2847 3088 2344 
L 2541 2259 
Q 2463 2594 2264 2762 
Q 2066 2931 1784 2931 
Q 1359 2931 1093 2626 
Q 828 2322 828 1663 
Q 828 994 1084 691 
Q 1341 388 1753 388 
Q 2084 388 2306 591 
Q 2528 794 2588 1216 
z
" transform="scale(0.015625)"/>
      <path id="ArialMT-74" d="M 1650 503 
L 1731 6 
Q 1494 -44 1306 -44 
Q 1000 -44 831 53 
Q 663 150 594 308 
Q 525 466 525 972 
L 525 2881 
L 113 2881 
L 113 3319 
L 525 3319 
L 525 4141 
L 1084 4478 
L 1084 3319 
L 1650 3319 
L 1650 2881 
L 1084 2881 
L 1084 941 
Q 1084 700 1114 631 
Q 1144 563 1211 522 
Q 1278 481 1403 481 
Q 1497 481 1650 503 
z
" transform="scale(0.015625)"/>
      <path id="ArialMT-6f" d="M 213 1659 
Q 213 2581 725 3025 
Q 1153 3394 1769 3394 
Q 2453 3394 2887 2945 
Q 3322 2497 3322 1706 
Q 3322 1066 3130 698 
Q 2938 331 2570 128 
Q 2203 -75 1769 -75 
Q 1072 -75 642 372 
Q 213 819 213 1659 
z
M 791 1659 
Q 791 1022 1069 705 
Q 1347 388 1769 388 
Q 2188 388 2466 706 
Q 2744 1025 2744 1678 
Q 2744 2294 2464 2611 
Q 2184 2928 1769 2928 
Q 1347 2928 1069 2612 
Q 791 2297 791 1659 
z
" transform="scale(0.015625)"/>
      <path id="ArialMT-73" d="M 197 991 
L 753 1078 
Q 800 744 1014 566 
Q 1228 388 1613 388 
Q 2000 388 2187 545 
Q 2375 703 2375 916 
Q 2375 1106 2209 1216 
Q 2094 1291 1634 1406 
Q 1016 1563 777 1677 
Q 538 1791 414 1992 
Q 291 2194 291 2438 
Q 291 2659 392 2848 
Q 494 3038 669 3163 
Q 800 3259 1026 3326 
Q 1253 3394 1513 3394 
Q 1903 3394 2198 3281 
Q 2494 3169 2634 2976 
Q 2775 2784 2828 2463 
L 2278 2388 
Q 2241 2644 2061 2787 
Q 1881 2931 1553 2931 
Q 1166 2931 1000 2803 
Q 834 2675 834 2503 
Q 834 2394 903 2306 
Q 972 2216 1119 2156 
Q 1203 2125 1616 2013 
Q 2213 1853 2448 1751 
Q 2684 1650 2818 1456 
Q 2953 1263 2953 975 
Q 2953 694 2789 445 
Q 2625 197 2315 61 
Q 2006 -75 1616 -75 
Q 969 -75 630 194 
Q 291 463 197 991 
z
" transform="scale(0.015625)"/>
      <path id="ArialMT-20" transform="scale(0.015625)"/>
      <path id="ArialMT-52" d="M 503 0 
L 503 4581 
L 2534 4581 
Q 3147 4581 3465 4457 
Q 3784 4334 3975 4021 
Q 4166 3709 4166 3331 
Q 4166 2844 3850 2509 
Q 3534 2175 2875 2084 
Q 3116 1969 3241 1856 
Q 3506 1613 3744 1247 
L 4541 0 
L 3778 0 
L 3172 953 
Q 2906 1366 2734 1584 
Q 2563 1803 2427 1890 
Q 2291 1978 2150 2013 
Q 2047 2034 1813 2034 
L 1109 2034 
L 1109 0 
L 503 0 
z
M 1109 2559 
L 2413 2559 
Q 2828 2559 3062 2645 
Q 3297 2731 3419 2920 
Q 3541 3109 3541 3331 
Q 3541 3656 3305 3865 
Q 3069 4075 2559 4075 
L 1109 4075 
L 1109 2559 
z
" transform="scale(0.015625)"/>
      <path id="ArialMT-42" d="M 469 0 
L 469 4581 
L 2188 4581 
Q 2713 4581 3030 4442 
Q 3347 4303 3526 4014 
Q 3706 3725 3706 3409 
Q 3706 3116 3547 2856 
Q 3388 2597 3066 2438 
Q 3481 2316 3704 2022 
Q 3928 1728 3928 1328 
Q 3928 1006 3792 729 
Q 3656 453 3456 303 
Q 3256 153 2954 76 
Q 2653 0 2216 0 
L 469 0 
z
M 1075 2656 
L 2066 2656 
Q 2469 2656 2644 2709 
Q 2875 2778 2992 2937 
Q 3109 3097 3109 3338 
Q 3109 3566 3000 3739 
Q 2891 3913 2687 3977 
Q 2484 4041 1991 4041 
L 1075 4041 
L 1075 2656 
z
M 1075 541 
L 2216 541 
Q 2509 541 2628 563 
Q 2838 600 2978 687 
Q 3119 775 3209 942 
Q 3300 1109 3300 1328 
Q 3300 1584 3169 1773 
Q 3038 1963 2805 2039 
Q 2572 2116 2134 2116 
L 1075 2116 
L 1075 541 
z
" transform="scale(0.015625)"/>
      <path id="ArialMT-46" d="M 525 0 
L 525 4581 
L 3616 4581 
L 3616 4041 
L 1131 4041 
L 1131 2622 
L 3281 2622 
L 3281 2081 
L 1131 2081 
L 1131 0 
L 525 0 
z
" transform="scale(0.015625)"/>
      <path id="ArialMT-6b" d="M 425 0 
L 425 4581 
L 988 4581 
L 988 1969 
L 2319 3319 
L 3047 3319 
L 1778 2088 
L 3175 0 
L 2481 0 
L 1384 1697 
L 988 1316 
L 988 0 
L 425 0 
z
" transform="scale(0.015625)"/>
      <path id="ArialMT-72" d="M 416 0 
L 416 3319 
L 922 3319 
L 922 2816 
Q 1116 3169 1280 3281 
Q 1444 3394 1641 3394 
Q 1925 3394 2219 3213 
L 2025 2691 
Q 1819 2813 1613 2813 
Q 1428 2813 1281 2702 
Q 1134 2591 1072 2394 
Q 978 2094 978 1738 
L 978 0 
L 416 0 
z
" transform="scale(0.015625)"/>
      <path id="ArialMT-6c" d="M 409 0 
L 409 4581 
L 972 4581 
L 972 0 
L 409 0 
z
" transform="scale(0.015625)"/>
     </defs>
     <use xlink:href="#ArialMT-45"/>
     <use xlink:href="#ArialMT-69" x="66.699219"/>
     <use xlink:href="#ArialMT-67" x="88.916016"/>
     <use xlink:href="#ArialMT-65" x="144.53125"/>
     <use xlink:href="#ArialMT-6e" x="200.146484"/>
     <use xlink:href="#ArialMT-66" x="255.761719"/>
     <use xlink:href="#ArialMT-75" x="283.544922"/>
     <use xlink:href="#ArialMT-6e" x="339.160156"/>
     <use xlink:href="#ArialMT-63" x="394.775391"/>
     <use xlink:href="#ArialMT-74" x="444.775391"/>
     <use xlink:href="#ArialMT-69" x="472.558594"/>
     <use xlink:href="#ArialMT-6f" x="494.775391"/>
     <use xlink:href="#ArialMT-6e" x="550.390625"/>
     <use xlink:href="#ArialMT-73" x="606.005859"/>
     <use xlink:href="#ArialMT-20" x="656.005859"/>
     <use xlink:href="#ArialMT-6f" x="683.789062"/>
     <use xlink:href="#ArialMT-66" x="739.404297"/>
     <use xlink:href="#ArialMT-20" x="767.1875"/>
     <use xlink:href="#ArialMT-52" x="794.970703"/>
     <use xlink:href="#ArialMT-42" x="867.1875"/>
     <use xlink:href="#ArialMT-46" x="933.886719"/>
     <use xlink:href="#ArialMT-20" x="994.970703"/>
     <use xlink:href="#ArialMT-6b" x="1022.753906"/>
     <use xlink:href="#ArialMT-65" x="1072.753906"/>
     <use xlink:href="#ArialMT-72" x="1128.369141"/>
     <use xlink:href="#ArialMT-6e" x="1161.669922"/>
     <use xlink:href="#ArialMT-65" x="1217.285156"/>
     <use xlink:href="#ArialMT-6c" x="1272.900391"/>
    </g>
   </g>
  </g>
 </g>
 <defs>
  <clipPath id="p456eb1c7bb">
   <rect x="46.18375" y="24.8475" width="357.12" height="266.112"/>
  </clipPath>
 </defs>
</svg>