<?xml version="1.0" encoding="utf-8" standalone="no"?>
<!DOCTYPE svg PUBLIC "-//W3C//DTD SVG 1.1//EN"
  "http://www.w3.org/Graphics/SVG/1.1/DTD/svg11.dtd">
<svg xmlns:xlink="http://www.w3.org/1999/xlink" width="410.20075pt" height="309.639375pt" viewBox="0 0 410.20075 309.639375" xmlns="http://www.w3.org/2000/svg" version="1.1">
 <metadata>
  <rdf:RDF xmlns:dc="http://purl.org/dc/elements/1.1/" xmlns:cc="http://creativecommons.org/ns#" xmlns:rdf="http://www.w3.org/1999/02/22-rdf-syntax-ns#">
   <cc:Work>
    <dc:type rdf:resource="http://purl.org/dc/dcmitype/StillImage"/>
    <dc:date>2023-12-08T18:28:18.230541</dc:date>
    <dc:format>image/svg+xml</dc:format>
    <dc:creator>
     <cc:Agent>
      <dc:title>Matplotlib v3.8.0, https://matplotlib.org/</dc:title>
     </cc:Agent>
    </dc:creator>
   </cc:Work>
  </rdf:RDF>
 </metadata>
 <defs>
  <style type="text/css">*{stroke-linejoin: round; stroke-linecap: butt}</style>
 </defs>
 <g id="figure_1">
  <g id="patch_1">
   <path d="M 0 309.639375 
L 410.20075 309.639375 
L 410.20075 0 
L 0 0 
z
" style="fill: #ffffff"/>
  </g>
  <g id="axes_1">
   <g id="patch_2">
    <path d="M 45.88075 273.312 
L 403.00075 273.312 
L 403.00075 7.2 
L 45.88075 7.2 
z
" style="fill: #ffffff"/>
   </g>
   <g id="matplotlib.axis_1">
    <g id="xtick_1">
     <g id="line2d_1">
      <defs>
       <path id="mbe469a1e10" d="M 0 0 
L 0 4.8 
" style="stroke: #262626"/>
      </defs>
      <g>
       <use xlink:href="#mbe469a1e10" x="62.113477" y="273.312" style="fill: #262626; stroke: #262626"/>
      </g>
     </g>
     <g id="text_1">
      <!-- 0 -->
      <g style="fill: #262626" transform="translate(59.666665 287.910875) scale(0.088 -0.088)">
       <defs>
        <path id="ArialMT-30" d="M 266 2259 
Q 266 3072 433 3567 
Q 600 4063 929 4331 
Q 1259 4600 1759 4600 
Q 2128 4600 2406 4451 
Q 2684 4303 2865 4023 
Q 3047 3744 3150 3342 
Q 3253 2941 3253 2259 
Q 3253 1453 3087 958 
Q 2922 463 2592 192 
Q 2263 -78 1759 -78 
Q 1097 -78 719 397 
Q 266 969 266 2259 
z
M 844 2259 
Q 844 1131 1108 757 
Q 1372 384 1759 384 
Q 2147 384 2411 759 
Q 2675 1134 2675 2259 
Q 2675 3391 2411 3762 
Q 2147 4134 1753 4134 
Q 1366 4134 1134 3806 
Q 844 3388 844 2259 
z
" transform="scale(0.015625)"/>
       </defs>
       <use xlink:href="#ArialMT-30"/>
      </g>
     </g>
    </g>
    <g id="xtick_2">
     <g id="line2d_2">
      <g>
       <use xlink:href="#mbe469a1e10" x="127.076884" y="273.312" style="fill: #262626; stroke: #262626"/>
      </g>
     </g>
     <g id="text_2">
      <!-- 5 -->
      <g style="fill: #262626" transform="translate(124.630072 287.910875) scale(0.088 -0.088)">
       <defs>
        <path id="ArialMT-35" d="M 266 1200 
L 856 1250 
Q 922 819 1161 601 
Q 1400 384 1738 384 
Q 2144 384 2425 690 
Q 2706 997 2706 1503 
Q 2706 1984 2436 2262 
Q 2166 2541 1728 2541 
Q 1456 2541 1237 2417 
Q 1019 2294 894 2097 
L 366 2166 
L 809 4519 
L 3088 4519 
L 3088 3981 
L 1259 3981 
L 1013 2750 
Q 1425 3038 1878 3038 
Q 2478 3038 2890 2622 
Q 3303 2206 3303 1553 
Q 3303 931 2941 478 
Q 2500 -78 1738 -78 
Q 1113 -78 717 272 
Q 322 622 266 1200 
z
" transform="scale(0.015625)"/>
       </defs>
       <use xlink:href="#ArialMT-35"/>
      </g>
     </g>
    </g>
    <g id="xtick_3">
     <g id="line2d_3">
      <g>
       <use xlink:href="#mbe469a1e10" x="192.040291" y="273.312" style="fill: #262626; stroke: #262626"/>
      </g>
     </g>
     <g id="text_3">
      <!-- 10 -->
      <g style="fill: #262626" transform="translate(187.146666 287.910875) scale(0.088 -0.088)">
       <defs>
        <path id="ArialMT-31" d="M 2384 0 
L 1822 0 
L 1822 3584 
Q 1619 3391 1289 3197 
Q 959 3003 697 2906 
L 697 3450 
Q 1169 3672 1522 3987 
Q 1875 4303 2022 4600 
L 2384 4600 
L 2384 0 
z
" transform="scale(0.015625)"/>
       </defs>
       <use xlink:href="#ArialMT-31"/>
       <use xlink:href="#ArialMT-30" x="55.615234"/>
      </g>
     </g>
    </g>
    <g id="xtick_4">
     <g id="line2d_4">
      <g>
       <use xlink:href="#mbe469a1e10" x="257.003698" y="273.312" style="fill: #262626; stroke: #262626"/>
      </g>
     </g>
     <g id="text_4">
      <!-- 15 -->
      <g style="fill: #262626" transform="translate(252.110073 287.910875) scale(0.088 -0.088)">
       <use xlink:href="#ArialMT-31"/>
       <use xlink:href="#ArialMT-35" x="55.615234"/>
      </g>
     </g>
    </g>
    <g id="xtick_5">
     <g id="line2d_5">
      <g>
       <use xlink:href="#mbe469a1e10" x="321.967105" y="273.312" style="fill: #262626; stroke: #262626"/>
      </g>
     </g>
     <g id="text_5">
      <!-- 20 -->
      <g style="fill: #262626" transform="translate(317.07348 287.910875) scale(0.088 -0.088)">
       <defs>
        <path id="ArialMT-32" d="M 3222 541 
L 3222 0 
L 194 0 
Q 188 203 259 391 
Q 375 700 629 1000 
Q 884 1300 1366 1694 
Q 2113 2306 2375 2664 
Q 2638 3022 2638 3341 
Q 2638 3675 2398 3904 
Q 2159 4134 1775 4134 
Q 1369 4134 1125 3890 
Q 881 3647 878 3216 
L 300 3275 
Q 359 3922 746 4261 
Q 1134 4600 1788 4600 
Q 2447 4600 2831 4234 
Q 3216 3869 3216 3328 
Q 3216 3053 3103 2787 
Q 2991 2522 2730 2228 
Q 2469 1934 1863 1422 
Q 1356 997 1212 845 
Q 1069 694 975 541 
L 3222 541 
z
" transform="scale(0.015625)"/>
       </defs>
       <use xlink:href="#ArialMT-32"/>
       <use xlink:href="#ArialMT-30" x="55.615234"/>
      </g>
     </g>
    </g>
    <g id="xtick_6">
     <g id="line2d_6">
      <g>
       <use xlink:href="#mbe469a1e10" x="386.930512" y="273.312" style="fill: #262626; stroke: #262626"/>
      </g>
     </g>
     <g id="text_6">
      <!-- 25 -->
      <g style="fill: #262626" transform="translate(382.036887 287.910875) scale(0.088 -0.088)">
       <use xlink:href="#ArialMT-32"/>
       <use xlink:href="#ArialMT-35" x="55.615234"/>
      </g>
     </g>
    </g>
    <g id="text_7">
     <!-- t -->
     <g style="fill: #262626" transform="translate(223.10725 300.531375) scale(0.096 -0.096)">
      <defs>
       <path id="ArialMT-74" d="M 1650 503 
L 1731 6 
Q 1494 -44 1306 -44 
Q 1000 -44 831 53 
Q 663 150 594 308 
Q 525 466 525 972 
L 525 2881 
L 113 2881 
L 113 3319 
L 525 3319 
L 525 4141 
L 1084 4478 
L 1084 3319 
L 1650 3319 
L 1650 2881 
L 1084 2881 
L 1084 941 
Q 1084 700 1114 631 
Q 1144 563 1211 522 
Q 1278 481 1403 481 
Q 1497 481 1650 503 
z
" transform="scale(0.015625)"/>
      </defs>
      <use xlink:href="#ArialMT-74"/>
     </g>
    </g>
   </g>
   <g id="matplotlib.axis_2">
    <g id="ytick_1">
     <g id="line2d_7">
      <defs>
       <path id="m3f85f54cf7" d="M 0 0 
L -4.8 0 
" style="stroke: #262626"/>
      </defs>
      <g>
       <use xlink:href="#m3f85f54cf7" x="45.88075" y="268.030137" style="fill: #262626; stroke: #262626"/>
      </g>
     </g>
     <g id="text_8">
      <!-- −0.6 -->
      <g style="fill: #262626" transform="translate(20.209 271.179574) scale(0.088 -0.088)">
       <defs>
        <path id="ArialMT-2212" d="M 3381 1997 
L 356 1997 
L 356 2522 
L 3381 2522 
L 3381 1997 
z
" transform="scale(0.015625)"/>
        <path id="ArialMT-2e" d="M 581 0 
L 581 641 
L 1222 641 
L 1222 0 
L 581 0 
z
" transform="scale(0.015625)"/>
        <path id="ArialMT-36" d="M 3184 3459 
L 2625 3416 
Q 2550 3747 2413 3897 
Q 2184 4138 1850 4138 
Q 1581 4138 1378 3988 
Q 1113 3794 959 3422 
Q 806 3050 800 2363 
Q 1003 2672 1297 2822 
Q 1591 2972 1913 2972 
Q 2475 2972 2870 2558 
Q 3266 2144 3266 1488 
Q 3266 1056 3080 686 
Q 2894 316 2569 119 
Q 2244 -78 1831 -78 
Q 1128 -78 684 439 
Q 241 956 241 2144 
Q 241 3472 731 4075 
Q 1159 4600 1884 4600 
Q 2425 4600 2770 4297 
Q 3116 3994 3184 3459 
z
M 888 1484 
Q 888 1194 1011 928 
Q 1134 663 1356 523 
Q 1578 384 1822 384 
Q 2178 384 2434 671 
Q 2691 959 2691 1453 
Q 2691 1928 2437 2201 
Q 2184 2475 1800 2475 
Q 1419 2475 1153 2201 
Q 888 1928 888 1484 
z
" transform="scale(0.015625)"/>
       </defs>
       <use xlink:href="#ArialMT-2212"/>
       <use xlink:href="#ArialMT-30" x="58.398438"/>
       <use xlink:href="#ArialMT-2e" x="114.013672"/>
       <use xlink:href="#ArialMT-36" x="141.796875"/>
      </g>
     </g>
    </g>
    <g id="ytick_2">
     <g id="line2d_8">
      <g>
       <use xlink:href="#m3f85f54cf7" x="45.88075" y="228.41446" style="fill: #262626; stroke: #262626"/>
      </g>
     </g>
     <g id="text_9">
      <!-- −0.4 -->
      <g style="fill: #262626" transform="translate(20.209 231.563898) scale(0.088 -0.088)">
       <defs>
        <path id="ArialMT-34" d="M 2069 0 
L 2069 1097 
L 81 1097 
L 81 1613 
L 2172 4581 
L 2631 4581 
L 2631 1613 
L 3250 1613 
L 3250 1097 
L 2631 1097 
L 2631 0 
L 2069 0 
z
M 2069 1613 
L 2069 3678 
L 634 1613 
L 2069 1613 
z
" transform="scale(0.015625)"/>
       </defs>
       <use xlink:href="#ArialMT-2212"/>
       <use xlink:href="#ArialMT-30" x="58.398438"/>
       <use xlink:href="#ArialMT-2e" x="114.013672"/>
       <use xlink:href="#ArialMT-34" x="141.796875"/>
      </g>
     </g>
    </g>
    <g id="ytick_3">
     <g id="line2d_9">
      <g>
       <use xlink:href="#m3f85f54cf7" x="45.88075" y="188.798784" style="fill: #262626; stroke: #262626"/>
      </g>
     </g>
     <g id="text_10">
      <!-- −0.2 -->
      <g style="fill: #262626" transform="translate(20.209 191.948222) scale(0.088 -0.088)">
       <use xlink:href="#ArialMT-2212"/>
       <use xlink:href="#ArialMT-30" x="58.398438"/>
       <use xlink:href="#ArialMT-2e" x="114.013672"/>
       <use xlink:href="#ArialMT-32" x="141.796875"/>
      </g>
     </g>
    </g>
    <g id="ytick_4">
     <g id="line2d_10">
      <g>
       <use xlink:href="#m3f85f54cf7" x="45.88075" y="149.183108" style="fill: #262626; stroke: #262626"/>
      </g>
     </g>
     <g id="text_11">
      <!-- 0.0 -->
      <g style="fill: #262626" transform="translate(25.34875 152.332545) scale(0.088 -0.088)">
       <use xlink:href="#ArialMT-30"/>
       <use xlink:href="#ArialMT-2e" x="55.615234"/>
       <use xlink:href="#ArialMT-30" x="83.398438"/>
      </g>
     </g>
    </g>
    <g id="ytick_5">
     <g id="line2d_11">
      <g>
       <use xlink:href="#m3f85f54cf7" x="45.88075" y="109.567432" style="fill: #262626; stroke: #262626"/>
      </g>
     </g>
     <g id="text_12">
      <!-- 0.2 -->
      <g style="fill: #262626" transform="translate(25.34875 112.716869) scale(0.088 -0.088)">
       <use xlink:href="#ArialMT-30"/>
       <use xlink:href="#ArialMT-2e" x="55.615234"/>
       <use xlink:href="#ArialMT-32" x="83.398438"/>
      </g>
     </g>
    </g>
    <g id="ytick_6">
     <g id="line2d_12">
      <g>
       <use xlink:href="#m3f85f54cf7" x="45.88075" y="69.951755" style="fill: #262626; stroke: #262626"/>
      </g>
     </g>
     <g id="text_13">
      <!-- 0.4 -->
      <g style="fill: #262626" transform="translate(25.34875 73.101193) scale(0.088 -0.088)">
       <use xlink:href="#ArialMT-30"/>
       <use xlink:href="#ArialMT-2e" x="55.615234"/>
       <use xlink:href="#ArialMT-34" x="83.398438"/>
      </g>
     </g>
    </g>
    <g id="ytick_7">
     <g id="line2d_13">
      <g>
       <use xlink:href="#m3f85f54cf7" x="45.88075" y="30.336079" style="fill: #262626; stroke: #262626"/>
      </g>
     </g>
     <g id="text_14">
      <!-- 0.6 -->
      <g style="fill: #262626" transform="translate(25.34875 33.485516) scale(0.088 -0.088)">
       <use xlink:href="#ArialMT-30"/>
       <use xlink:href="#ArialMT-2e" x="55.615234"/>
       <use xlink:href="#ArialMT-36" x="83.398438"/>
      </g>
     </g>
    </g>
    <g id="text_15">
     <!-- x(t) -->
     <g style="fill: #262626" transform="translate(14.1885 147.186) rotate(-90) scale(0.096 -0.096)">
      <defs>
       <path id="ArialMT-78" d="M 47 0 
L 1259 1725 
L 138 3319 
L 841 3319 
L 1350 2541 
Q 1494 2319 1581 2169 
Q 1719 2375 1834 2534 
L 2394 3319 
L 3066 3319 
L 1919 1756 
L 3153 0 
L 2463 0 
L 1781 1031 
L 1600 1309 
L 728 0 
L 47 0 
z
" transform="scale(0.015625)"/>
       <path id="ArialMT-28" d="M 1497 -1347 
Q 1031 -759 709 28 
Q 388 816 388 1659 
Q 388 2403 628 3084 
Q 909 3875 1497 4659 
L 1900 4659 
Q 1522 4009 1400 3731 
Q 1209 3300 1100 2831 
Q 966 2247 966 1656 
Q 966 153 1900 -1347 
L 1497 -1347 
z
" transform="scale(0.015625)"/>
       <path id="ArialMT-29" d="M 791 -1347 
L 388 -1347 
Q 1322 153 1322 1656 
Q 1322 2244 1188 2822 
Q 1081 3291 891 3722 
Q 769 4003 388 4659 
L 791 4659 
Q 1378 3875 1659 3084 
Q 1900 2403 1900 1659 
Q 1900 816 1576 28 
Q 1253 -759 791 -1347 
z
" transform="scale(0.015625)"/>
      </defs>
      <use xlink:href="#ArialMT-78"/>
      <use xlink:href="#ArialMT-28" x="50"/>
      <use xlink:href="#ArialMT-74" x="83.300781"/>
      <use xlink:href="#ArialMT-29" x="111.083984"/>
     </g>
    </g>
   </g>
   <g id="line2d_14">
    <path d="M 62.113477 149.183108 
L 62.763436 149.091594 
L 63.413395 148.818118 
L 64.063354 148.364958 
L 65.038293 147.355491 
L 66.013232 145.963471 
L 66.98817 144.207606 
L 68.288088 141.340571 
L 69.588006 137.93299 
L 71.212904 133.032029 
L 73.487761 125.294942 
L 79.337392 104.683971 
L 80.96229 99.942297 
L 82.262208 96.80283 
L 83.237146 94.914899 
L 84.212085 93.482737 
L 84.862044 92.803344 
L 85.512003 92.358089 
L 86.161962 92.157156 
L 86.811921 92.209305 
L 87.46188 92.521667 
L 88.111839 93.099731 
L 88.761798 93.947348 
L 89.736737 95.728596 
L 90.711675 98.121728 
L 91.686614 101.120167 
L 92.986532 106.036222 
L 94.28645 111.958854 
L 95.586368 118.829958 
L 97.211266 128.650801 
L 99.161143 142.054084 
L 101.436 159.57851 
L 104.360816 184.274186 
L 109.235508 226.111436 
L 110.860406 238.273259 
L 112.160324 246.56513 
L 113.135263 251.692575 
L 114.110201 255.716465 
L 114.76016 257.721261 
L 115.410119 259.146859 
L 116.060078 259.969481 
L 116.385058 260.149422 
L 116.710037 260.173342 
L 117.035017 260.040567 
L 117.359997 259.75098 
L 118.009956 258.703564 
L 118.659915 257.040504 
L 119.309874 254.779002 
L 120.284812 250.319303 
L 121.259751 244.673923 
L 122.559669 235.519802 
L 123.859587 224.800106 
L 125.484485 209.673214 
L 127.759341 186.198879 
L 130.684157 153.577473 
L 138.808645 61.439381 
L 140.433543 46.433369 
L 141.733461 36.578208 
L 142.708399 30.759534 
L 143.683338 26.485148 
L 144.333297 24.560742 
L 144.983256 23.408237 
L 145.308236 23.126253 
L 145.633215 23.041401 
L 145.958195 23.153502 
L 146.283174 23.461484 
L 146.933133 24.657058 
L 147.583092 26.604735 
L 148.233051 29.270394 
L 149.20799 34.517532 
L 150.182929 41.103952 
L 151.482847 51.624568 
L 153.107744 66.888285 
L 155.382601 90.665672 
L 163.507089 177.867775 
L 165.781946 199.490012 
L 167.731823 215.910118 
L 169.356721 227.569213 
L 170.656639 235.265132 
L 171.631577 239.955983 
L 172.606516 243.646531 
L 173.581454 246.292125 
L 174.231413 247.463632 
L 174.881372 248.160528 
L 175.531331 248.387694 
L 175.856311 248.328013 
L 176.50627 247.870368 
L 177.156229 246.975957 
L 177.806188 245.665306 
L 178.781127 242.971831 
L 179.756065 239.487735 
L 181.055983 233.787521 
L 182.680881 225.318826 
L 184.630758 213.813373 
L 193.405205 160.093154 
L 195.355083 150.054 
L 197.30496 141.172024 
L 198.929857 134.72689 
L 200.554755 129.185226 
L 201.854673 125.407154 
L 203.154591 122.202616 
L 204.454509 119.552102 
L 205.754427 117.425789 
L 207.054345 115.784376 
L 208.354264 114.580319 
L 209.654182 113.759503 
L 210.9541 113.263171 
L 212.254018 113.029915 
L 213.878915 113.013956 
L 215.828793 113.244653 
L 220.378506 113.895749 
L 222.328383 113.903349 
L 223.953281 113.699727 
L 225.578178 113.289788 
L 227.528055 112.539106 
L 229.802912 111.380952 
L 235.327564 108.396213 
L 236.952462 107.868199 
L 238.25238 107.696525 
L 239.227318 107.752446 
L 240.202257 107.993603 
L 241.177196 108.4433 
L 242.152134 109.123528 
L 243.127073 110.054489 
L 244.102011 111.254287 
L 245.07695 112.738374 
L 246.376868 115.180792 
L 247.676786 118.171658 
L 248.976704 121.720833 
L 250.601602 126.938488 
L 252.226499 132.994756 
L 254.176377 141.284091 
L 256.451233 152.161842 
L 259.051069 165.759565 
L 265.875639 202.156616 
L 267.825517 211.038629 
L 269.450414 217.323059 
L 270.750332 221.433325 
L 271.725271 223.900087 
L 272.700209 225.787351 
L 273.350169 226.703603 
L 274.000128 227.334248 
L 274.650087 227.670789 
L 275.300046 227.706391 
L 275.950005 227.435954 
L 276.599964 226.856284 
L 277.249923 225.966017 
L 277.899882 224.76585 
L 278.87482 222.390309 
L 279.849759 219.339473 
L 280.824698 215.638458 
L 282.124616 209.750316 
L 283.424534 202.862945 
L 285.049431 193.025198 
L 286.999309 179.755526 
L 289.599145 160.364068 
L 296.098735 110.907955 
L 298.048612 97.973799 
L 299.67351 88.562771 
L 300.973428 82.13023 
L 302.273346 76.807112 
L 303.248285 73.604882 
L 304.223223 71.117423 
L 305.198162 69.368589 
L 305.848121 68.62017 
L 306.49808 68.20782 
L 307.148039 68.130978 
L 307.797998 68.387106 
L 308.447957 68.971635 
L 309.097916 69.878188 
L 309.747875 71.098503 
L 310.722814 73.495389 
L 311.697752 76.536049 
L 312.997671 81.511132 
L 314.297589 87.424139 
L 315.922486 95.92637 
L 317.872363 107.385515 
L 320.797179 126.107616 
L 325.671872 157.411488 
L 327.946729 170.472963 
L 329.896606 180.279532 
L 331.521503 187.265471 
L 332.821422 191.994967 
L 334.12134 195.918786 
L 335.421258 199.016759 
L 336.396196 200.795923 
L 337.371135 202.113381 
L 338.346074 202.978937 
L 338.996033 203.311771 
L 339.645992 203.455183 
L 340.295951 203.415195 
L 340.94591 203.198365 
L 341.920848 202.557502 
L 342.895787 201.561527 
L 343.870725 200.238975 
L 345.170644 198.01968 
L 346.470562 195.34735 
L 348.095459 191.484798 
L 350.045336 186.276886 
L 353.295132 176.82842 
L 357.844845 163.588539 
L 360.444681 156.701554 
L 362.719538 151.317035 
L 364.669415 147.239818 
L 366.619292 143.671705 
L 368.569169 140.594782 
L 370.519046 137.968668 
L 372.468924 135.736531 
L 374.418801 133.831995 
L 376.693657 131.931445 
L 379.293494 130.056773 
L 382.868268 127.782286 
L 386.768023 125.529194 
L 386.768023 125.529194 
" clip-path="url(#p1f3162d628)" style="fill: none; stroke: #1f77b4; stroke-width: 1.2; stroke-linecap: round"/>
   </g>
   <g id="line2d_15">
    <path d="M 62.113477 149.183108 
L 62.763436 149.091596 
L 63.413395 148.818125 
L 64.063354 148.364974 
L 65.038293 147.355517 
L 66.013232 145.963496 
L 66.98817 144.207594 
L 68.288088 141.340421 
L 69.588006 137.93255 
L 71.212904 133.030897 
L 73.487761 125.291979 
L 79.337392 104.668844 
L 80.96229 99.921261 
L 82.262208 96.776248 
L 83.237146 94.883712 
L 84.212085 93.446603 
L 84.862044 92.763816 
L 85.512003 92.315061 
L 86.161962 92.11061 
L 86.811921 92.159252 
L 87.46188 92.468154 
L 88.111839 93.042889 
L 88.761798 93.887342 
L 89.736737 95.664268 
L 90.711675 98.053847 
L 91.686614 101.04966 
L 92.986532 105.964111 
L 94.28645 111.887847 
L 95.586368 118.763426 
L 97.211266 128.595811 
L 99.161143 142.02428 
L 101.436 159.59963 
L 104.035836 181.569105 
L 109.885467 231.732105 
L 111.510365 243.326767 
L 112.810283 250.94052 
L 113.785222 255.427314 
L 114.76016 258.7053 
L 115.410119 260.161323 
L 116.060078 261.003733 
L 116.385058 261.189329 
L 116.710037 261.216 
L 117.035017 261.083036 
L 117.359997 260.790321 
L 118.009956 259.727946 
L 118.659915 258.038829 
L 119.309874 255.741128 
L 120.284812 251.211134 
L 121.259751 245.481055 
L 122.559669 236.201928 
L 124.184567 222.437694 
L 126.134444 203.555691 
L 128.73428 175.748129 
L 132.309055 134.733612 
L 138.158686 66.953137 
L 139.783584 50.4008 
L 141.083502 38.960608 
L 142.05844 31.791436 
L 143.033379 26.081027 
L 143.683338 23.182003 
L 144.333297 21.064409 
L 144.983256 19.762305 
L 145.308236 19.423981 
L 145.633215 19.296 
L 145.958195 19.378633 
L 146.283174 19.671077 
L 146.608154 20.171692 
L 147.258113 21.78618 
L 147.908072 24.191001 
L 148.558031 27.342434 
L 149.532969 33.348983 
L 150.507908 40.698438 
L 151.807826 52.182249 
L 153.757703 71.911875 
L 157.007499 107.791788 
L 161.557212 157.685357 
L 164.482028 187.5653 
L 166.756884 208.853384 
L 168.706761 225.075266 
L 170.331659 236.617796 
L 171.631577 244.215463 
L 172.606516 248.802252 
L 173.581454 252.339766 
L 174.231413 254.081646 
L 174.881372 255.314351 
L 175.531331 256.030656 
L 175.856311 256.1946 
L 176.181291 256.229618 
L 176.50627 256.136607 
L 177.156229 255.572108 
L 177.806188 254.516274 
L 178.456147 252.990204 
L 179.431086 249.878334 
L 180.406024 245.875831 
L 181.705942 239.367694 
L 183.33084 229.790402 
L 185.605697 214.755612 
L 191.130349 177.570092 
L 193.405205 163.927967 
L 195.355083 153.419426 
L 197.30496 144.072921 
L 199.254837 135.888832 
L 200.879734 129.928242 
L 202.504632 124.707294 
L 204.12953 120.175229 
L 205.754427 116.272071 
L 207.379325 112.930771 
L 209.004223 110.078857 
L 210.62912 107.640852 
L 212.578997 105.154647 
L 214.528874 103.028588 
L 217.128711 100.559272 
L 221.028465 97.235262 
L 225.578178 93.614897 
L 228.178015 91.796459 
L 230.127892 90.702526 
L 231.752789 90.06373 
L 233.052707 89.787478 
L 234.352626 89.765075 
L 235.327564 89.939916 
L 236.302503 90.297874 
L 237.277441 90.855053 
L 238.25238 91.626447 
L 239.227318 92.625711 
L 240.527236 94.333204 
L 241.827155 96.491212 
L 243.127073 99.118459 
L 244.426991 102.228354 
L 246.051888 106.806999 
L 247.676786 112.160103 
L 249.301684 118.286729 
L 251.251561 126.648633 
L 253.201438 136.089384 
L 255.151315 146.571013 
L 257.426172 160.031068 
L 260.026008 176.815743 
L 264.575721 208.109068 
L 267.175558 225.212645 
L 268.800455 234.658484 
L 270.100373 241.111758 
L 271.075312 245.133971 
L 272.05025 248.340032 
L 273.025189 250.640566 
L 273.675148 251.635798 
L 274.325107 252.182174 
L 274.975066 252.269907 
L 275.625025 251.894606 
L 276.274984 251.057474 
L 276.924943 249.764898 
L 277.574902 248.028603 
L 278.549841 244.628126 
L 279.524779 240.33652 
L 280.824698 233.375561 
L 282.124616 225.202887 
L 283.749513 213.623432 
L 286.02437 195.565559 
L 288.949186 170.364171 
L 293.498899 128.920912 
L 298.698571 81.686953 
L 300.648449 65.750668 
L 302.273346 54.200758 
L 303.573264 46.552082 
L 304.548203 41.956208 
L 305.523141 38.471811 
L 306.173101 36.814477 
L 306.82306 35.714063 
L 307.473019 35.183542 
L 307.797998 35.133932 
L 308.122978 35.228076 
L 308.447957 35.465302 
L 309.097916 36.364217 
L 309.747875 37.815813 
L 310.397834 39.798153 
L 311.372773 43.702893 
L 312.347712 48.61931 
L 313.64763 56.513111 
L 315.272527 68.053227 
L 317.547384 86.208813 
L 327.946729 172.056156 
L 330.871544 193.47558 
L 333.146401 208.573821 
L 335.096278 219.992833 
L 336.721176 228.11017 
L 338.021094 233.498058 
L 338.996033 236.809414 
L 339.970971 239.443757 
L 340.94591 241.365477 
L 341.595869 242.238802 
L 342.245828 242.781601 
L 342.895787 242.99375 
L 343.545746 242.878171 
L 344.195705 242.440921 
L 344.845664 241.691127 
L 345.495623 240.640629 
L 346.470562 238.533354 
L 347.4455 235.840304 
L 348.745418 231.453315 
L 350.370316 224.92997 
L 352.320193 216.020336 
L 355.569988 199.887209 
L 360.119702 177.410463 
L 363.369497 162.559149 
L 366.619292 148.863177 
L 370.194067 134.842073 
L 375.06876 116.746853 
L 379.943453 99.461676 
L 382.868268 89.857549 
L 384.818146 84.090728 
L 386.443043 79.856708 
L 386.768023 79.085491 
L 386.768023 79.085491 
" clip-path="url(#p1f3162d628)" style="fill: none; stroke-dasharray: 4.44,1.92; stroke-dashoffset: 0; stroke: #ff7f0e; stroke-width: 1.2"/>
   </g>
   <g id="patch_3">
    <path d="M 45.88075 268.030137 
L 45.88075 30.336079 
" style="fill: none; stroke: #262626; stroke-linejoin: miter; stroke-linecap: square"/>
   </g>
   <g id="patch_4">
    <path d="M 62.113477 273.312 
L 386.930512 273.312 
" style="fill: none; stroke: #262626; stroke-linejoin: miter; stroke-linecap: square"/>
   </g>
   <g id="legend_1">
    <g id="line2d_16">
     <path d="M 174.956563 18.446125 
L 183.756563 18.446125 
L 192.556563 18.446125 
" style="fill: none; stroke: #1f77b4; stroke-width: 1.2; stroke-linecap: round"/>
    </g>
    <g id="text_16">
     <!-- x (Monte Carlo) -->
     <g style="fill: #262626" transform="translate(199.596563 21.526125) scale(0.088 -0.088)">
      <defs>
       <path id="ArialMT-20" transform="scale(0.015625)"/>
       <path id="ArialMT-4d" d="M 475 0 
L 475 4581 
L 1388 4581 
L 2472 1338 
Q 2622 884 2691 659 
Q 2769 909 2934 1394 
L 4031 4581 
L 4847 4581 
L 4847 0 
L 4263 0 
L 4263 3834 
L 2931 0 
L 2384 0 
L 1059 3900 
L 1059 0 
L 475 0 
z
" transform="scale(0.015625)"/>
       <path id="ArialMT-6f" d="M 213 1659 
Q 213 2581 725 3025 
Q 1153 3394 1769 3394 
Q 2453 3394 2887 2945 
Q 3322 2497 3322 1706 
Q 3322 1066 3130 698 
Q 2938 331 2570 128 
Q 2203 -75 1769 -75 
Q 1072 -75 642 372 
Q 213 819 213 1659 
z
M 791 1659 
Q 791 1022 1069 705 
Q 1347 388 1769 388 
Q 2188 388 2466 706 
Q 2744 1025 2744 1678 
Q 2744 2294 2464 2611 
Q 2184 2928 1769 2928 
Q 1347 2928 1069 2612 
Q 791 2297 791 1659 
z
" transform="scale(0.015625)"/>
       <path id="ArialMT-6e" d="M 422 0 
L 422 3319 
L 928 3319 
L 928 2847 
Q 1294 3394 1984 3394 
Q 2284 3394 2536 3286 
Q 2788 3178 2913 3003 
Q 3038 2828 3088 2588 
Q 3119 2431 3119 2041 
L 3119 0 
L 2556 0 
L 2556 2019 
Q 2556 2363 2490 2533 
Q 2425 2703 2258 2804 
Q 2091 2906 1866 2906 
Q 1506 2906 1245 2678 
Q 984 2450 984 1813 
L 984 0 
L 422 0 
z
" transform="scale(0.015625)"/>
       <path id="ArialMT-65" d="M 2694 1069 
L 3275 997 
Q 3138 488 2766 206 
Q 2394 -75 1816 -75 
Q 1088 -75 661 373 
Q 234 822 234 1631 
Q 234 2469 665 2931 
Q 1097 3394 1784 3394 
Q 2450 3394 2872 2941 
Q 3294 2488 3294 1666 
Q 3294 1616 3291 1516 
L 816 1516 
Q 847 969 1125 678 
Q 1403 388 1819 388 
Q 2128 388 2347 550 
Q 2566 713 2694 1069 
z
M 847 1978 
L 2700 1978 
Q 2663 2397 2488 2606 
Q 2219 2931 1791 2931 
Q 1403 2931 1139 2672 
Q 875 2413 847 1978 
z
" transform="scale(0.015625)"/>
       <path id="ArialMT-43" d="M 3763 1606 
L 4369 1453 
Q 4178 706 3683 314 
Q 3188 -78 2472 -78 
Q 1731 -78 1267 223 
Q 803 525 561 1097 
Q 319 1669 319 2325 
Q 319 3041 592 3573 
Q 866 4106 1370 4382 
Q 1875 4659 2481 4659 
Q 3169 4659 3637 4309 
Q 4106 3959 4291 3325 
L 3694 3184 
Q 3534 3684 3231 3912 
Q 2928 4141 2469 4141 
Q 1941 4141 1586 3887 
Q 1231 3634 1087 3207 
Q 944 2781 944 2328 
Q 944 1744 1114 1308 
Q 1284 872 1643 656 
Q 2003 441 2422 441 
Q 2931 441 3284 734 
Q 3638 1028 3763 1606 
z
" transform="scale(0.015625)"/>
       <path id="ArialMT-61" d="M 2588 409 
Q 2275 144 1986 34 
Q 1697 -75 1366 -75 
Q 819 -75 525 192 
Q 231 459 231 875 
Q 231 1119 342 1320 
Q 453 1522 633 1644 
Q 813 1766 1038 1828 
Q 1203 1872 1538 1913 
Q 2219 1994 2541 2106 
Q 2544 2222 2544 2253 
Q 2544 2597 2384 2738 
Q 2169 2928 1744 2928 
Q 1347 2928 1158 2789 
Q 969 2650 878 2297 
L 328 2372 
Q 403 2725 575 2942 
Q 747 3159 1072 3276 
Q 1397 3394 1825 3394 
Q 2250 3394 2515 3294 
Q 2781 3194 2906 3042 
Q 3031 2891 3081 2659 
Q 3109 2516 3109 2141 
L 3109 1391 
Q 3109 606 3145 398 
Q 3181 191 3288 0 
L 2700 0 
Q 2613 175 2588 409 
z
M 2541 1666 
Q 2234 1541 1622 1453 
Q 1275 1403 1131 1340 
Q 988 1278 909 1158 
Q 831 1038 831 891 
Q 831 666 1001 516 
Q 1172 366 1500 366 
Q 1825 366 2078 508 
Q 2331 650 2450 897 
Q 2541 1088 2541 1459 
L 2541 1666 
z
" transform="scale(0.015625)"/>
       <path id="ArialMT-72" d="M 416 0 
L 416 3319 
L 922 3319 
L 922 2816 
Q 1116 3169 1280 3281 
Q 1444 3394 1641 3394 
Q 1925 3394 2219 3213 
L 2025 2691 
Q 1819 2813 1613 2813 
Q 1428 2813 1281 2702 
Q 1134 2591 1072 2394 
Q 978 2094 978 1738 
L 978 0 
L 416 0 
z
" transform="scale(0.015625)"/>
       <path id="ArialMT-6c" d="M 409 0 
L 409 4581 
L 972 4581 
L 972 0 
L 409 0 
z
" transform="scale(0.015625)"/>
      </defs>
      <use xlink:href="#ArialMT-78"/>
      <use xlink:href="#ArialMT-20" x="50"/>
      <use xlink:href="#ArialMT-28" x="77.783203"/>
      <use xlink:href="#ArialMT-4d" x="111.083984"/>
      <use xlink:href="#ArialMT-6f" x="194.384766"/>
      <use xlink:href="#ArialMT-6e" x="250"/>
      <use xlink:href="#ArialMT-74" x="305.615234"/>
      <use xlink:href="#ArialMT-65" x="333.398438"/>
      <use xlink:href="#ArialMT-20" x="389.013672"/>
      <use xlink:href="#ArialMT-43" x="416.796875"/>
      <use xlink:href="#ArialMT-61" x="489.013672"/>
      <use xlink:href="#ArialMT-72" x="544.628906"/>
      <use xlink:href="#ArialMT-6c" x="577.929688"/>
      <use xlink:href="#ArialMT-6f" x="600.146484"/>
      <use xlink:href="#ArialMT-29" x="655.761719"/>
     </g>
    </g>
    <g id="line2d_17">
     <path d="M 174.956563 31.104375 
L 183.756563 31.104375 
L 192.556563 31.104375 
" style="fill: none; stroke-dasharray: 4.44,1.92; stroke-dashoffset: 0; stroke: #ff7f0e; stroke-width: 1.2"/>
    </g>
    <g id="text_17">
     <!-- x (Local sensitivity) -->
     <g style="fill: #262626" transform="translate(199.596563 34.184375) scale(0.088 -0.088)">
      <defs>
       <path id="ArialMT-4c" d="M 469 0 
L 469 4581 
L 1075 4581 
L 1075 541 
L 3331 541 
L 3331 0 
L 469 0 
z
" transform="scale(0.015625)"/>
       <path id="ArialMT-63" d="M 2588 1216 
L 3141 1144 
Q 3050 572 2676 248 
Q 2303 -75 1759 -75 
Q 1078 -75 664 370 
Q 250 816 250 1647 
Q 250 2184 428 2587 
Q 606 2991 970 3192 
Q 1334 3394 1763 3394 
Q 2303 3394 2647 3120 
Q 2991 2847 3088 2344 
L 2541 2259 
Q 2463 2594 2264 2762 
Q 2066 2931 1784 2931 
Q 1359 2931 1093 2626 
Q 828 2322 828 1663 
Q 828 994 1084 691 
Q 1341 388 1753 388 
Q 2084 388 2306 591 
Q 2528 794 2588 1216 
z
" transform="scale(0.015625)"/>
       <path id="ArialMT-73" d="M 197 991 
L 753 1078 
Q 800 744 1014 566 
Q 1228 388 1613 388 
Q 2000 388 2187 545 
Q 2375 703 2375 916 
Q 2375 1106 2209 1216 
Q 2094 1291 1634 1406 
Q 1016 1563 777 1677 
Q 538 1791 414 1992 
Q 291 2194 291 2438 
Q 291 2659 392 2848 
Q 494 3038 669 3163 
Q 800 3259 1026 3326 
Q 1253 3394 1513 3394 
Q 1903 3394 2198 3281 
Q 2494 3169 2634 2976 
Q 2775 2784 2828 2463 
L 2278 2388 
Q 2241 2644 2061 2787 
Q 1881 2931 1553 2931 
Q 1166 2931 1000 2803 
Q 834 2675 834 2503 
Q 834 2394 903 2306 
Q 972 2216 1119 2156 
Q 1203 2125 1616 2013 
Q 2213 1853 2448 1751 
Q 2684 1650 2818 1456 
Q 2953 1263 2953 975 
Q 2953 694 2789 445 
Q 2625 197 2315 61 
Q 2006 -75 1616 -75 
Q 969 -75 630 194 
Q 291 463 197 991 
z
" transform="scale(0.015625)"/>
       <path id="ArialMT-69" d="M 425 3934 
L 425 4581 
L 988 4581 
L 988 3934 
L 425 3934 
z
M 425 0 
L 425 3319 
L 988 3319 
L 988 0 
L 425 0 
z
" transform="scale(0.015625)"/>
       <path id="ArialMT-76" d="M 1344 0 
L 81 3319 
L 675 3319 
L 1388 1331 
Q 1503 1009 1600 663 
Q 1675 925 1809 1294 
L 2547 3319 
L 3125 3319 
L 1869 0 
L 1344 0 
z
" transform="scale(0.015625)"/>
       <path id="ArialMT-79" d="M 397 -1278 
L 334 -750 
Q 519 -800 656 -800 
Q 844 -800 956 -737 
Q 1069 -675 1141 -563 
Q 1194 -478 1313 -144 
Q 1328 -97 1363 -6 
L 103 3319 
L 709 3319 
L 1400 1397 
Q 1534 1031 1641 628 
Q 1738 1016 1872 1384 
L 2581 3319 
L 3144 3319 
L 1881 -56 
Q 1678 -603 1566 -809 
Q 1416 -1088 1222 -1217 
Q 1028 -1347 759 -1347 
Q 597 -1347 397 -1278 
z
" transform="scale(0.015625)"/>
      </defs>
      <use xlink:href="#ArialMT-78"/>
      <use xlink:href="#ArialMT-20" x="50"/>
      <use xlink:href="#ArialMT-28" x="77.783203"/>
      <use xlink:href="#ArialMT-4c" x="111.083984"/>
      <use xlink:href="#ArialMT-6f" x="166.699219"/>
      <use xlink:href="#ArialMT-63" x="222.314453"/>
      <use xlink:href="#ArialMT-61" x="272.314453"/>
      <use xlink:href="#ArialMT-6c" x="327.929688"/>
      <use xlink:href="#ArialMT-20" x="350.146484"/>
      <use xlink:href="#ArialMT-73" x="377.929688"/>
      <use xlink:href="#ArialMT-65" x="427.929688"/>
      <use xlink:href="#ArialMT-6e" x="483.544922"/>
      <use xlink:href="#ArialMT-73" x="539.160156"/>
      <use xlink:href="#ArialMT-69" x="589.160156"/>
      <use xlink:href="#ArialMT-74" x="611.376953"/>
      <use xlink:href="#ArialMT-69" x="639.160156"/>
      <use xlink:href="#ArialMT-76" x="661.376953"/>
      <use xlink:href="#ArialMT-69" x="711.376953"/>
      <use xlink:href="#ArialMT-74" x="733.59375"/>
      <use xlink:href="#ArialMT-79" x="761.376953"/>
      <use xlink:href="#ArialMT-29" x="811.376953"/>
     </g>
    </g>
   </g>
  </g>
 </g>
 <defs>
  <clipPath id="p1f3162d628">
   <rect x="45.88075" y="7.2" width="357.12" height="266.112"/>
  </clipPath>
 </defs>
</svg>