<?xml version="1.0" encoding="utf-8" standalone="no"?>
<!DOCTYPE svg PUBLIC "-//W3C//DTD SVG 1.1//EN"
  "http://www.w3.org/Graphics/SVG/1.1/DTD/svg11.dtd">
<svg xmlns:xlink="http://www.w3.org/1999/xlink" width="405.061pt" height="322.633875pt" viewBox="0 0 405.061 322.633875" xmlns="http://www.w3.org/2000/svg" version="1.1">
 <metadata>
  <rdf:RDF xmlns:dc="http://purl.org/dc/elements/1.1/" xmlns:cc="http://creativecommons.org/ns#" xmlns:rdf="http://www.w3.org/1999/02/22-rdf-syntax-ns#">
   <cc:Work>
    <dc:type rdf:resource="http://purl.org/dc/dcmitype/StillImage"/>
    <dc:date>2025-01-08T13:30:17.830194</dc:date>
    <dc:format>image/svg+xml</dc:format>
    <dc:creator>
     <cc:Agent>
      <dc:title>Matplotlib v3.9.0, https://matplotlib.org/</dc:title>
     </cc:Agent>
    </dc:creator>
   </cc:Work>
  </rdf:RDF>
 </metadata>
 <defs>
  <style type="text/css">*{stroke-linejoin: round; stroke-linecap: butt}</style>
 </defs>
 <g id="figure_1">
  <g id="patch_1">
   <path d="M 0 322.633875 
L 405.061 322.633875 
L 405.061 0 
L 0 0 
z
" style="fill: #ffffff"/>
  </g>
  <g id="axes_1">
   <g id="patch_2">
    <path d="M 40.741 286.3065 
L 397.861 286.3065 
L 397.861 20.1945 
L 40.741 20.1945 
z
" style="fill: #ffffff"/>
   </g>
   <g id="matplotlib.axis_1">
    <g id="xtick_1">
     <g id="line2d_1">
      <defs>
       <path id="ma17a63124c" d="M 0 0 
L 0 4.8 
" style="stroke: #262626"/>
      </defs>
      <g>
       <use xlink:href="#ma17a63124c" x="56.321811" y="286.3065" style="fill: #262626; stroke: #262626"/>
      </g>
     </g>
     <g id="text_1">
      <!-- 0 -->
      <g style="fill: #262626" transform="translate(53.874998 300.905375) scale(0.088 -0.088)">
       <defs>
        <path id="ArialMT-30" d="M 266 2259 
Q 266 3072 433 3567 
Q 600 4063 929 4331 
Q 1259 4600 1759 4600 
Q 2128 4600 2406 4451 
Q 2684 4303 2865 4023 
Q 3047 3744 3150 3342 
Q 3253 2941 3253 2259 
Q 3253 1453 3087 958 
Q 2922 463 2592 192 
Q 2263 -78 1759 -78 
Q 1097 -78 719 397 
Q 266 969 266 2259 
z
M 844 2259 
Q 844 1131 1108 757 
Q 1372 384 1759 384 
Q 2147 384 2411 759 
Q 2675 1134 2675 2259 
Q 2675 3391 2411 3762 
Q 2147 4134 1753 4134 
Q 1366 4134 1134 3806 
Q 844 3388 844 2259 
z
" transform="scale(0.015625)"/>
       </defs>
       <use xlink:href="#ArialMT-30"/>
      </g>
     </g>
    </g>
    <g id="xtick_2">
     <g id="line2d_2">
      <g>
       <use xlink:href="#ma17a63124c" x="121.383103" y="286.3065" style="fill: #262626; stroke: #262626"/>
      </g>
     </g>
     <g id="text_2">
      <!-- 10 -->
      <g style="fill: #262626" transform="translate(116.489478 300.905375) scale(0.088 -0.088)">
       <defs>
        <path id="ArialMT-31" d="M 2384 0 
L 1822 0 
L 1822 3584 
Q 1619 3391 1289 3197 
Q 959 3003 697 2906 
L 697 3450 
Q 1169 3672 1522 3987 
Q 1875 4303 2022 4600 
L 2384 4600 
L 2384 0 
z
" transform="scale(0.015625)"/>
       </defs>
       <use xlink:href="#ArialMT-31"/>
       <use xlink:href="#ArialMT-30" x="55.615234"/>
      </g>
     </g>
    </g>
    <g id="xtick_3">
     <g id="line2d_3">
      <g>
       <use xlink:href="#ma17a63124c" x="186.444395" y="286.3065" style="fill: #262626; stroke: #262626"/>
      </g>
     </g>
     <g id="text_3">
      <!-- 20 -->
      <g style="fill: #262626" transform="translate(181.55077 300.905375) scale(0.088 -0.088)">
       <defs>
        <path id="ArialMT-32" d="M 3222 541 
L 3222 0 
L 194 0 
Q 188 203 259 391 
Q 375 700 629 1000 
Q 884 1300 1366 1694 
Q 2113 2306 2375 2664 
Q 2638 3022 2638 3341 
Q 2638 3675 2398 3904 
Q 2159 4134 1775 4134 
Q 1369 4134 1125 3890 
Q 881 3647 878 3216 
L 300 3275 
Q 359 3922 746 4261 
Q 1134 4600 1788 4600 
Q 2447 4600 2831 4234 
Q 3216 3869 3216 3328 
Q 3216 3053 3103 2787 
Q 2991 2522 2730 2228 
Q 2469 1934 1863 1422 
Q 1356 997 1212 845 
Q 1069 694 975 541 
L 3222 541 
z
" transform="scale(0.015625)"/>
       </defs>
       <use xlink:href="#ArialMT-32"/>
       <use xlink:href="#ArialMT-30" x="55.615234"/>
      </g>
     </g>
    </g>
    <g id="xtick_4">
     <g id="line2d_4">
      <g>
       <use xlink:href="#ma17a63124c" x="251.505688" y="286.3065" style="fill: #262626; stroke: #262626"/>
      </g>
     </g>
     <g id="text_4">
      <!-- 30 -->
      <g style="fill: #262626" transform="translate(246.612063 300.905375) scale(0.088 -0.088)">
       <defs>
        <path id="ArialMT-33" d="M 269 1209 
L 831 1284 
Q 928 806 1161 595 
Q 1394 384 1728 384 
Q 2125 384 2398 659 
Q 2672 934 2672 1341 
Q 2672 1728 2419 1979 
Q 2166 2231 1775 2231 
Q 1616 2231 1378 2169 
L 1441 2663 
Q 1497 2656 1531 2656 
Q 1891 2656 2178 2843 
Q 2466 3031 2466 3422 
Q 2466 3731 2256 3934 
Q 2047 4138 1716 4138 
Q 1388 4138 1169 3931 
Q 950 3725 888 3313 
L 325 3413 
Q 428 3978 793 4289 
Q 1159 4600 1703 4600 
Q 2078 4600 2393 4439 
Q 2709 4278 2876 4000 
Q 3044 3722 3044 3409 
Q 3044 3113 2884 2869 
Q 2725 2625 2413 2481 
Q 2819 2388 3044 2092 
Q 3269 1797 3269 1353 
Q 3269 753 2831 336 
Q 2394 -81 1725 -81 
Q 1122 -81 723 278 
Q 325 638 269 1209 
z
" transform="scale(0.015625)"/>
       </defs>
       <use xlink:href="#ArialMT-33"/>
       <use xlink:href="#ArialMT-30" x="55.615234"/>
      </g>
     </g>
    </g>
    <g id="xtick_5">
     <g id="line2d_5">
      <g>
       <use xlink:href="#ma17a63124c" x="316.56698" y="286.3065" style="fill: #262626; stroke: #262626"/>
      </g>
     </g>
     <g id="text_5">
      <!-- 40 -->
      <g style="fill: #262626" transform="translate(311.673355 300.905375) scale(0.088 -0.088)">
       <defs>
        <path id="ArialMT-34" d="M 2069 0 
L 2069 1097 
L 81 1097 
L 81 1613 
L 2172 4581 
L 2631 4581 
L 2631 1613 
L 3250 1613 
L 3250 1097 
L 2631 1097 
L 2631 0 
L 2069 0 
z
M 2069 1613 
L 2069 3678 
L 634 1613 
L 2069 1613 
z
" transform="scale(0.015625)"/>
       </defs>
       <use xlink:href="#ArialMT-34"/>
       <use xlink:href="#ArialMT-30" x="55.615234"/>
      </g>
     </g>
    </g>
    <g id="xtick_6">
     <g id="line2d_6">
      <g>
       <use xlink:href="#ma17a63124c" x="381.628273" y="286.3065" style="fill: #262626; stroke: #262626"/>
      </g>
     </g>
     <g id="text_6">
      <!-- 50 -->
      <g style="fill: #262626" transform="translate(376.734648 300.905375) scale(0.088 -0.088)">
       <defs>
        <path id="ArialMT-35" d="M 266 1200 
L 856 1250 
Q 922 819 1161 601 
Q 1400 384 1738 384 
Q 2144 384 2425 690 
Q 2706 997 2706 1503 
Q 2706 1984 2436 2262 
Q 2166 2541 1728 2541 
Q 1456 2541 1237 2417 
Q 1019 2294 894 2097 
L 366 2166 
L 809 4519 
L 3088 4519 
L 3088 3981 
L 1259 3981 
L 1013 2750 
Q 1425 3038 1878 3038 
Q 2478 3038 2890 2622 
Q 3303 2206 3303 1553 
Q 3303 931 2941 478 
Q 2500 -78 1738 -78 
Q 1113 -78 717 272 
Q 322 622 266 1200 
z
" transform="scale(0.015625)"/>
       </defs>
       <use xlink:href="#ArialMT-35"/>
       <use xlink:href="#ArialMT-30" x="55.615234"/>
      </g>
     </g>
    </g>
    <g id="text_7">
     <!-- t -->
     <g style="fill: #262626" transform="translate(217.9675 313.525875) scale(0.096 -0.096)">
      <defs>
       <path id="ArialMT-74" d="M 1650 503 
L 1731 6 
Q 1494 -44 1306 -44 
Q 1000 -44 831 53 
Q 663 150 594 308 
Q 525 466 525 972 
L 525 2881 
L 113 2881 
L 113 3319 
L 525 3319 
L 525 4141 
L 1084 4478 
L 1084 3319 
L 1650 3319 
L 1650 2881 
L 1084 2881 
L 1084 941 
Q 1084 700 1114 631 
Q 1144 563 1211 522 
Q 1278 481 1403 481 
Q 1497 481 1650 503 
z
" transform="scale(0.015625)"/>
      </defs>
      <use xlink:href="#ArialMT-74"/>
     </g>
    </g>
   </g>
   <g id="matplotlib.axis_2">
    <g id="ytick_1">
     <g id="line2d_7">
      <defs>
       <path id="m2294291a23" d="M 0 0 
L -4.8 0 
" style="stroke: #262626"/>
      </defs>
      <g>
       <use xlink:href="#m2294291a23" x="40.741" y="272.223392" style="fill: #262626; stroke: #262626"/>
      </g>
     </g>
     <g id="text_8">
      <!-- 0.0 -->
      <g style="fill: #262626" transform="translate(20.209 275.37283) scale(0.088 -0.088)">
       <defs>
        <path id="ArialMT-2e" d="M 581 0 
L 581 641 
L 1222 641 
L 1222 0 
L 581 0 
z
" transform="scale(0.015625)"/>
       </defs>
       <use xlink:href="#ArialMT-30"/>
       <use xlink:href="#ArialMT-2e" x="55.615234"/>
       <use xlink:href="#ArialMT-30" x="83.398438"/>
      </g>
     </g>
    </g>
    <g id="ytick_2">
     <g id="line2d_8">
      <g>
       <use xlink:href="#m2294291a23" x="40.741" y="224.233235" style="fill: #262626; stroke: #262626"/>
      </g>
     </g>
     <g id="text_9">
      <!-- 0.2 -->
      <g style="fill: #262626" transform="translate(20.209 227.382673) scale(0.088 -0.088)">
       <use xlink:href="#ArialMT-30"/>
       <use xlink:href="#ArialMT-2e" x="55.615234"/>
       <use xlink:href="#ArialMT-32" x="83.398438"/>
      </g>
     </g>
    </g>
    <g id="ytick_3">
     <g id="line2d_9">
      <g>
       <use xlink:href="#m2294291a23" x="40.741" y="176.243079" style="fill: #262626; stroke: #262626"/>
      </g>
     </g>
     <g id="text_10">
      <!-- 0.4 -->
      <g style="fill: #262626" transform="translate(20.209 179.392516) scale(0.088 -0.088)">
       <use xlink:href="#ArialMT-30"/>
       <use xlink:href="#ArialMT-2e" x="55.615234"/>
       <use xlink:href="#ArialMT-34" x="83.398438"/>
      </g>
     </g>
    </g>
    <g id="ytick_4">
     <g id="line2d_10">
      <g>
       <use xlink:href="#m2294291a23" x="40.741" y="128.252922" style="fill: #262626; stroke: #262626"/>
      </g>
     </g>
     <g id="text_11">
      <!-- 0.6 -->
      <g style="fill: #262626" transform="translate(20.209 131.402359) scale(0.088 -0.088)">
       <defs>
        <path id="ArialMT-36" d="M 3184 3459 
L 2625 3416 
Q 2550 3747 2413 3897 
Q 2184 4138 1850 4138 
Q 1581 4138 1378 3988 
Q 1113 3794 959 3422 
Q 806 3050 800 2363 
Q 1003 2672 1297 2822 
Q 1591 2972 1913 2972 
Q 2475 2972 2870 2558 
Q 3266 2144 3266 1488 
Q 3266 1056 3080 686 
Q 2894 316 2569 119 
Q 2244 -78 1831 -78 
Q 1128 -78 684 439 
Q 241 956 241 2144 
Q 241 3472 731 4075 
Q 1159 4600 1884 4600 
Q 2425 4600 2770 4297 
Q 3116 3994 3184 3459 
z
M 888 1484 
Q 888 1194 1011 928 
Q 1134 663 1356 523 
Q 1578 384 1822 384 
Q 2178 384 2434 671 
Q 2691 959 2691 1453 
Q 2691 1928 2437 2201 
Q 2184 2475 1800 2475 
Q 1419 2475 1153 2201 
Q 888 1928 888 1484 
z
" transform="scale(0.015625)"/>
       </defs>
       <use xlink:href="#ArialMT-30"/>
       <use xlink:href="#ArialMT-2e" x="55.615234"/>
       <use xlink:href="#ArialMT-36" x="83.398438"/>
      </g>
     </g>
    </g>
    <g id="ytick_5">
     <g id="line2d_11">
      <g>
       <use xlink:href="#m2294291a23" x="40.741" y="80.262765" style="fill: #262626; stroke: #262626"/>
      </g>
     </g>
     <g id="text_12">
      <!-- 0.8 -->
      <g style="fill: #262626" transform="translate(20.209 83.412202) scale(0.088 -0.088)">
       <defs>
        <path id="ArialMT-38" d="M 1131 2484 
Q 781 2613 612 2850 
Q 444 3088 444 3419 
Q 444 3919 803 4259 
Q 1163 4600 1759 4600 
Q 2359 4600 2725 4251 
Q 3091 3903 3091 3403 
Q 3091 3084 2923 2848 
Q 2756 2613 2416 2484 
Q 2838 2347 3058 2040 
Q 3278 1734 3278 1309 
Q 3278 722 2862 322 
Q 2447 -78 1769 -78 
Q 1091 -78 675 323 
Q 259 725 259 1325 
Q 259 1772 486 2073 
Q 713 2375 1131 2484 
z
M 1019 3438 
Q 1019 3113 1228 2906 
Q 1438 2700 1772 2700 
Q 2097 2700 2305 2904 
Q 2513 3109 2513 3406 
Q 2513 3716 2298 3927 
Q 2084 4138 1766 4138 
Q 1444 4138 1231 3931 
Q 1019 3725 1019 3438 
z
M 838 1322 
Q 838 1081 952 856 
Q 1066 631 1291 507 
Q 1516 384 1775 384 
Q 2178 384 2440 643 
Q 2703 903 2703 1303 
Q 2703 1709 2433 1975 
Q 2163 2241 1756 2241 
Q 1359 2241 1098 1978 
Q 838 1716 838 1322 
z
" transform="scale(0.015625)"/>
       </defs>
       <use xlink:href="#ArialMT-30"/>
       <use xlink:href="#ArialMT-2e" x="55.615234"/>
       <use xlink:href="#ArialMT-38" x="83.398438"/>
      </g>
     </g>
    </g>
    <g id="ytick_6">
     <g id="line2d_12">
      <g>
       <use xlink:href="#m2294291a23" x="40.741" y="32.272608" style="fill: #262626; stroke: #262626"/>
      </g>
     </g>
     <g id="text_13">
      <!-- 1.0 -->
      <g style="fill: #262626" transform="translate(20.209 35.422045) scale(0.088 -0.088)">
       <use xlink:href="#ArialMT-31"/>
       <use xlink:href="#ArialMT-2e" x="55.615234"/>
       <use xlink:href="#ArialMT-30" x="83.398438"/>
      </g>
     </g>
    </g>
    <g id="text_14">
     <!-- Sensitivity Indices for v(t) -->
     <g style="fill: #262626" transform="translate(14.1885 206.5965) rotate(-90) scale(0.096 -0.096)">
      <defs>
       <path id="ArialMT-53" d="M 288 1472 
L 859 1522 
Q 900 1178 1048 958 
Q 1197 738 1509 602 
Q 1822 466 2213 466 
Q 2559 466 2825 569 
Q 3091 672 3220 851 
Q 3350 1031 3350 1244 
Q 3350 1459 3225 1620 
Q 3100 1781 2813 1891 
Q 2628 1963 1997 2114 
Q 1366 2266 1113 2400 
Q 784 2572 623 2826 
Q 463 3081 463 3397 
Q 463 3744 659 4045 
Q 856 4347 1234 4503 
Q 1613 4659 2075 4659 
Q 2584 4659 2973 4495 
Q 3363 4331 3572 4012 
Q 3781 3694 3797 3291 
L 3216 3247 
Q 3169 3681 2898 3903 
Q 2628 4125 2100 4125 
Q 1550 4125 1298 3923 
Q 1047 3722 1047 3438 
Q 1047 3191 1225 3031 
Q 1400 2872 2139 2705 
Q 2878 2538 3153 2413 
Q 3553 2228 3743 1945 
Q 3934 1663 3934 1294 
Q 3934 928 3725 604 
Q 3516 281 3123 101 
Q 2731 -78 2241 -78 
Q 1619 -78 1198 103 
Q 778 284 539 648 
Q 300 1013 288 1472 
z
" transform="scale(0.015625)"/>
       <path id="ArialMT-65" d="M 2694 1069 
L 3275 997 
Q 3138 488 2766 206 
Q 2394 -75 1816 -75 
Q 1088 -75 661 373 
Q 234 822 234 1631 
Q 234 2469 665 2931 
Q 1097 3394 1784 3394 
Q 2450 3394 2872 2941 
Q 3294 2488 3294 1666 
Q 3294 1616 3291 1516 
L 816 1516 
Q 847 969 1125 678 
Q 1403 388 1819 388 
Q 2128 388 2347 550 
Q 2566 713 2694 1069 
z
M 847 1978 
L 2700 1978 
Q 2663 2397 2488 2606 
Q 2219 2931 1791 2931 
Q 1403 2931 1139 2672 
Q 875 2413 847 1978 
z
" transform="scale(0.015625)"/>
       <path id="ArialMT-6e" d="M 422 0 
L 422 3319 
L 928 3319 
L 928 2847 
Q 1294 3394 1984 3394 
Q 2284 3394 2536 3286 
Q 2788 3178 2913 3003 
Q 3038 2828 3088 2588 
Q 3119 2431 3119 2041 
L 3119 0 
L 2556 0 
L 2556 2019 
Q 2556 2363 2490 2533 
Q 2425 2703 2258 2804 
Q 2091 2906 1866 2906 
Q 1506 2906 1245 2678 
Q 984 2450 984 1813 
L 984 0 
L 422 0 
z
" transform="scale(0.015625)"/>
       <path id="ArialMT-73" d="M 197 991 
L 753 1078 
Q 800 744 1014 566 
Q 1228 388 1613 388 
Q 2000 388 2187 545 
Q 2375 703 2375 916 
Q 2375 1106 2209 1216 
Q 2094 1291 1634 1406 
Q 1016 1563 777 1677 
Q 538 1791 414 1992 
Q 291 2194 291 2438 
Q 291 2659 392 2848 
Q 494 3038 669 3163 
Q 800 3259 1026 3326 
Q 1253 3394 1513 3394 
Q 1903 3394 2198 3281 
Q 2494 3169 2634 2976 
Q 2775 2784 2828 2463 
L 2278 2388 
Q 2241 2644 2061 2787 
Q 1881 2931 1553 2931 
Q 1166 2931 1000 2803 
Q 834 2675 834 2503 
Q 834 2394 903 2306 
Q 972 2216 1119 2156 
Q 1203 2125 1616 2013 
Q 2213 1853 2448 1751 
Q 2684 1650 2818 1456 
Q 2953 1263 2953 975 
Q 2953 694 2789 445 
Q 2625 197 2315 61 
Q 2006 -75 1616 -75 
Q 969 -75 630 194 
Q 291 463 197 991 
z
" transform="scale(0.015625)"/>
       <path id="ArialMT-69" d="M 425 3934 
L 425 4581 
L 988 4581 
L 988 3934 
L 425 3934 
z
M 425 0 
L 425 3319 
L 988 3319 
L 988 0 
L 425 0 
z
" transform="scale(0.015625)"/>
       <path id="ArialMT-76" d="M 1344 0 
L 81 3319 
L 675 3319 
L 1388 1331 
Q 1503 1009 1600 663 
Q 1675 925 1809 1294 
L 2547 3319 
L 3125 3319 
L 1869 0 
L 1344 0 
z
" transform="scale(0.015625)"/>
       <path id="ArialMT-79" d="M 397 -1278 
L 334 -750 
Q 519 -800 656 -800 
Q 844 -800 956 -737 
Q 1069 -675 1141 -563 
Q 1194 -478 1313 -144 
Q 1328 -97 1363 -6 
L 103 3319 
L 709 3319 
L 1400 1397 
Q 1534 1031 1641 628 
Q 1738 1016 1872 1384 
L 2581 3319 
L 3144 3319 
L 1881 -56 
Q 1678 -603 1566 -809 
Q 1416 -1088 1222 -1217 
Q 1028 -1347 759 -1347 
Q 597 -1347 397 -1278 
z
" transform="scale(0.015625)"/>
       <path id="ArialMT-20" transform="scale(0.015625)"/>
       <path id="ArialMT-49" d="M 597 0 
L 597 4581 
L 1203 4581 
L 1203 0 
L 597 0 
z
" transform="scale(0.015625)"/>
       <path id="ArialMT-64" d="M 2575 0 
L 2575 419 
Q 2259 -75 1647 -75 
Q 1250 -75 917 144 
Q 584 363 401 755 
Q 219 1147 219 1656 
Q 219 2153 384 2558 
Q 550 2963 881 3178 
Q 1213 3394 1622 3394 
Q 1922 3394 2156 3267 
Q 2391 3141 2538 2938 
L 2538 4581 
L 3097 4581 
L 3097 0 
L 2575 0 
z
M 797 1656 
Q 797 1019 1065 703 
Q 1334 388 1700 388 
Q 2069 388 2326 689 
Q 2584 991 2584 1609 
Q 2584 2291 2321 2609 
Q 2059 2928 1675 2928 
Q 1300 2928 1048 2622 
Q 797 2316 797 1656 
z
" transform="scale(0.015625)"/>
       <path id="ArialMT-63" d="M 2588 1216 
L 3141 1144 
Q 3050 572 2676 248 
Q 2303 -75 1759 -75 
Q 1078 -75 664 370 
Q 250 816 250 1647 
Q 250 2184 428 2587 
Q 606 2991 970 3192 
Q 1334 3394 1763 3394 
Q 2303 3394 2647 3120 
Q 2991 2847 3088 2344 
L 2541 2259 
Q 2463 2594 2264 2762 
Q 2066 2931 1784 2931 
Q 1359 2931 1093 2626 
Q 828 2322 828 1663 
Q 828 994 1084 691 
Q 1341 388 1753 388 
Q 2084 388 2306 591 
Q 2528 794 2588 1216 
z
" transform="scale(0.015625)"/>
       <path id="ArialMT-66" d="M 556 0 
L 556 2881 
L 59 2881 
L 59 3319 
L 556 3319 
L 556 3672 
Q 556 4006 616 4169 
Q 697 4388 901 4523 
Q 1106 4659 1475 4659 
Q 1713 4659 2000 4603 
L 1916 4113 
Q 1741 4144 1584 4144 
Q 1328 4144 1222 4034 
Q 1116 3925 1116 3625 
L 1116 3319 
L 1763 3319 
L 1763 2881 
L 1116 2881 
L 1116 0 
L 556 0 
z
" transform="scale(0.015625)"/>
       <path id="ArialMT-6f" d="M 213 1659 
Q 213 2581 725 3025 
Q 1153 3394 1769 3394 
Q 2453 3394 2887 2945 
Q 3322 2497 3322 1706 
Q 3322 1066 3130 698 
Q 2938 331 2570 128 
Q 2203 -75 1769 -75 
Q 1072 -75 642 372 
Q 213 819 213 1659 
z
M 791 1659 
Q 791 1022 1069 705 
Q 1347 388 1769 388 
Q 2188 388 2466 706 
Q 2744 1025 2744 1678 
Q 2744 2294 2464 2611 
Q 2184 2928 1769 2928 
Q 1347 2928 1069 2612 
Q 791 2297 791 1659 
z
" transform="scale(0.015625)"/>
       <path id="ArialMT-72" d="M 416 0 
L 416 3319 
L 922 3319 
L 922 2816 
Q 1116 3169 1280 3281 
Q 1444 3394 1641 3394 
Q 1925 3394 2219 3213 
L 2025 2691 
Q 1819 2813 1613 2813 
Q 1428 2813 1281 2702 
Q 1134 2591 1072 2394 
Q 978 2094 978 1738 
L 978 0 
L 416 0 
z
" transform="scale(0.015625)"/>
       <path id="ArialMT-28" d="M 1497 -1347 
Q 1031 -759 709 28 
Q 388 816 388 1659 
Q 388 2403 628 3084 
Q 909 3875 1497 4659 
L 1900 4659 
Q 1522 4009 1400 3731 
Q 1209 3300 1100 2831 
Q 966 2247 966 1656 
Q 966 153 1900 -1347 
L 1497 -1347 
z
" transform="scale(0.015625)"/>
       <path id="ArialMT-29" d="M 791 -1347 
L 388 -1347 
Q 1322 153 1322 1656 
Q 1322 2244 1188 2822 
Q 1081 3291 891 3722 
Q 769 4003 388 4659 
L 791 4659 
Q 1378 3875 1659 3084 
Q 1900 2403 1900 1659 
Q 1900 816 1576 28 
Q 1253 -759 791 -1347 
z
" transform="scale(0.015625)"/>
      </defs>
      <use xlink:href="#ArialMT-53"/>
      <use xlink:href="#ArialMT-65" x="66.699219"/>
      <use xlink:href="#ArialMT-6e" x="122.314453"/>
      <use xlink:href="#ArialMT-73" x="177.929688"/>
      <use xlink:href="#ArialMT-69" x="227.929688"/>
      <use xlink:href="#ArialMT-74" x="250.146484"/>
      <use xlink:href="#ArialMT-69" x="277.929688"/>
      <use xlink:href="#ArialMT-76" x="300.146484"/>
      <use xlink:href="#ArialMT-69" x="350.146484"/>
      <use xlink:href="#ArialMT-74" x="372.363281"/>
      <use xlink:href="#ArialMT-79" x="400.146484"/>
      <use xlink:href="#ArialMT-20" x="450.146484"/>
      <use xlink:href="#ArialMT-49" x="477.929688"/>
      <use xlink:href="#ArialMT-6e" x="505.712891"/>
      <use xlink:href="#ArialMT-64" x="561.328125"/>
      <use xlink:href="#ArialMT-69" x="616.943359"/>
      <use xlink:href="#ArialMT-63" x="639.160156"/>
      <use xlink:href="#ArialMT-65" x="689.160156"/>
      <use xlink:href="#ArialMT-73" x="744.775391"/>
      <use xlink:href="#ArialMT-20" x="794.775391"/>
      <use xlink:href="#ArialMT-66" x="822.558594"/>
      <use xlink:href="#ArialMT-6f" x="850.341797"/>
      <use xlink:href="#ArialMT-72" x="905.957031"/>
      <use xlink:href="#ArialMT-20" x="939.257812"/>
      <use xlink:href="#ArialMT-76" x="967.041016"/>
      <use xlink:href="#ArialMT-28" x="1017.041016"/>
      <use xlink:href="#ArialMT-74" x="1050.341797"/>
      <use xlink:href="#ArialMT-29" x="1078.125"/>
     </g>
    </g>
   </g>
   <g id="line2d_13">
    <path d="M 56.973727 272.221945 
L 58.277561 272.161842 
L 58.929478 272.032904 
L 59.581394 271.752243 
L 60.233311 271.221157 
L 60.885228 270.305258 
L 61.537145 268.83189 
L 62.189061 266.591754 
L 62.840978 263.361066 
L 63.492895 258.951251 
L 64.796728 246.715876 
L 66.100562 234.015226 
L 66.752479 230.393316 
L 67.404395 229.764678 
L 68.056312 231.964479 
L 68.708229 236.129321 
L 70.66398 251.277165 
L 71.967812 259.176429 
L 73.271645 264.859952 
L 74.575479 269.0487 
L 75.227396 270.706689 
L 75.879313 271.920751 
L 76.53123 272.196461 
L 77.183147 270.347973 
L 77.835063 264.120142 
L 78.48698 251.285834 
L 79.138897 234.916199 
L 79.790814 224.598005 
L 80.442731 223.847744 
L 81.094648 228.355105 
L 83.050397 245.356214 
L 84.35423 254.630599 
L 85.658064 262.620079 
L 86.961898 268.972721 
L 87.613813 271.041063 
L 88.265731 272.093528 
L 88.917647 272.141989 
L 89.569565 271.427915 
L 90.22148 270.209083 
L 90.873399 268.437355 
L 91.525314 265.436062 
L 92.177233 259.116796 
L 92.829148 242.812655 
L 93.481066 194.4461 
L 94.132982 125.24408 
L 94.7849 181.910131 
L 95.436815 228.069977 
L 96.088734 247.398022 
L 96.740649 256.708524 
L 97.392567 262.002031 
L 98.044483 265.423949 
L 98.696398 267.851274 
L 99.348316 269.672148 
L 100.000232 271.040531 
L 100.65215 271.953514 
L 101.304065 272.257581 
L 101.955984 271.653503 
L 102.607899 269.832484 
L 104.563651 261.135049 
L 105.215566 259.641758 
L 105.867485 258.584461 
L 106.5194 257.11199 
L 107.171318 254.268253 
L 107.823234 248.684986 
L 108.475152 238.462586 
L 109.127064 226.265979 
L 109.778983 231.788973 
L 110.430901 250.720545 
L 111.08282 262.286353 
L 111.734732 267.586149 
L 112.38665 270.070012 
L 113.038569 271.300785 
L 113.690487 271.91581 
L 114.342399 272.186498 
L 114.994318 272.231083 
L 115.646236 272.096413 
L 116.298154 271.789814 
L 116.950067 271.293216 
L 117.601985 270.571661 
L 118.253903 269.585581 
L 118.905816 268.314827 
L 121.513483 262.368344 
L 122.165401 261.507102 
L 122.81732 260.995053 
L 125.424987 259.842733 
L 126.076906 259.144747 
L 126.728818 258.007779 
L 127.380736 256.227246 
L 128.684573 251.110959 
L 129.336485 253.059174 
L 129.988403 262.087283 
L 130.640322 268.972734 
L 131.292234 271.481872 
L 131.944152 272.107657 
L 132.596071 272.13032 
L 136.507569 271.355411 
L 138.463324 271.28765 
L 141.070985 271.437241 
L 143.678653 271.792297 
L 146.28632 272.186393 
L 146.938238 272.153441 
L 147.590157 271.946125 
L 148.242075 271.476022 
L 148.893987 270.710893 
L 150.197824 268.806743 
L 150.849736 268.071419 
L 151.501655 267.629324 
L 152.153573 267.47907 
L 152.805492 267.59408 
L 153.457404 267.968074 
L 154.109322 268.641262 
L 154.761241 269.671884 
L 155.413159 270.933941 
L 156.065071 271.927892 
L 156.71699 272.3096 
L 157.368908 272.285231 
L 159.324657 271.89623 
L 161.280412 271.741845 
L 164.539992 271.73035 
L 166.495747 271.858252 
L 169.755327 272.230721 
L 170.407245 271.89214 
L 171.059163 271.132711 
L 171.711069 269.42455 
L 172.362988 264.287427 
L 173.666825 215.902514 
L 174.318743 257.009847 
L 174.970661 265.986507 
L 175.62258 268.813875 
L 176.274498 270.05877 
L 176.926404 270.731517 
L 178.230241 271.436613 
L 179.534078 271.819974 
L 181.489821 272.172111 
L 182.793657 272.241686 
L 183.445576 272.13398 
L 184.097494 271.800377 
L 184.749413 271.059322 
L 185.401331 269.732579 
L 187.357074 264.543356 
L 188.660911 262.063998 
L 189.312829 259.788785 
L 189.964747 255.536497 
L 190.616666 249.507302 
L 191.268584 250.860453 
L 191.92049 261.220737 
L 192.572409 267.507276 
L 193.224327 270.105226 
L 193.876245 271.216018 
L 194.528164 271.736 
L 195.180082 271.99696 
L 196.483906 272.198161 
L 198.439662 272.192858 
L 200.395417 271.959651 
L 201.699241 271.59552 
L 203.003078 270.882755 
L 203.654996 270.312999 
L 204.306915 269.559505 
L 206.914576 265.75357 
L 207.566494 265.188386 
L 209.52225 264.161837 
L 210.174168 263.199235 
L 210.826086 260.890244 
L 211.477992 256.342627 
L 212.129911 260.026226 
L 212.781829 269.404131 
L 213.433748 271.658359 
L 214.085666 272.089177 
L 215.389503 272.165516 
L 221.908662 272.126678 
L 229.079752 272.088201 
L 229.73167 271.907558 
L 232.339332 270.786203 
L 232.99125 270.805614 
L 233.643168 271.010506 
L 235.598911 272.277382 
L 236.902748 272.275629 
L 239.510422 272.156257 
L 246.029581 272.198755 
L 249.289173 272.226796 
L 249.941091 272.077416 
L 250.592997 271.70135 
L 251.244916 270.968527 
L 251.896834 269.59308 
L 252.548752 266.325975 
L 253.852589 243.373116 
L 254.504508 263.645185 
L 255.156414 269.097297 
L 255.808332 270.701736 
L 256.46025 271.347251 
L 257.112169 271.666057 
L 258.416006 271.961363 
L 261.023667 272.172348 
L 264.283259 272.219455 
L 265.587095 272.075104 
L 266.239014 271.868662 
L 266.890932 271.469674 
L 267.542826 270.761728 
L 268.194744 269.674713 
L 270.802418 264.396779 
L 271.454336 262.253533 
L 272.106255 258.776853 
L 272.758173 256.91561 
L 274.06201 268.469182 
L 274.713928 270.693924 
L 275.365847 271.547058 
L 276.017765 271.906597 
L 277.321577 272.153325 
L 279.929251 272.218045 
L 283.840761 272.100844 
L 285.796516 271.90578 
L 287.100328 271.621525 
L 288.404165 271.073701 
L 289.708002 270.162908 
L 292.315675 267.899619 
L 292.967594 266.697391 
L 293.619512 267.113569 
L 294.271431 270.602466 
L 294.923349 271.846797 
L 295.575267 272.12076 
L 297.530998 272.20828 
L 313.828933 272.252408 
L 315.13277 272.536535 
L 317.0885 272.218914 
L 320.348092 272.188169 
L 330.126843 272.139935 
L 330.778762 271.977476 
L 331.43068 271.612516 
L 332.082598 270.876225 
L 332.734517 269.479196 
L 333.386435 266.544307 
L 334.038354 259.610441 
L 334.690272 258.662851 
L 335.34219 267.432081 
L 335.994109 270.431137 
L 336.646002 271.394128 
L 337.297921 271.778185 
L 338.601758 272.057551 
L 341.209431 272.19503 
L 346.424754 272.201577 
L 348.380509 272.023013 
L 349.032427 271.85013 
L 349.684346 271.542144 
L 350.336264 271.016516 
L 350.988182 270.194112 
L 351.640101 269.048488 
L 352.292019 267.55976 
L 352.943938 265.487173 
L 353.595856 262.390847 
L 354.247774 260.741311 
L 354.899693 265.831733 
L 355.551611 269.849914 
L 356.203505 271.305062 
L 356.855423 271.827996 
L 358.15926 272.132471 
L 360.766934 272.217091 
L 367.938011 272.14134 
L 370.545685 271.941049 
L 371.849522 271.662301 
L 373.153358 271.118773 
L 373.805277 270.656604 
L 374.457195 270.00318 
L 375.109114 270.156292 
L 375.761007 271.470063 
L 376.412926 272.006324 
L 377.716762 272.193911 
L 381.628273 272.219527 
L 381.628273 272.219527 
" clip-path="url(#p5481de70aa)" style="fill: none; stroke: #1f77b4; stroke-width: 1.2; stroke-linecap: round"/>
   </g>
   <g id="line2d_14">
    <path d="M 56.973727 272.223444 
L 63.492895 272.150916 
L 64.144811 272.037684 
L 64.796728 271.803937 
L 65.448645 271.385589 
L 66.100562 270.743435 
L 68.056312 268.224518 
L 68.708229 267.690024 
L 69.360146 267.483628 
L 70.012063 267.603168 
L 70.66398 267.995171 
L 71.967812 269.256827 
L 73.271645 270.57931 
L 74.575479 271.519546 
L 75.879313 272.038293 
L 77.183147 272.222628 
L 77.835063 272.001083 
L 78.48698 271.135478 
L 79.138897 269.31062 
L 80.442731 265.054132 
L 81.094648 263.602363 
L 81.746564 262.494485 
L 82.398481 261.608855 
L 83.050397 260.9217 
L 83.702315 260.478419 
L 84.35423 260.371125 
L 85.006149 260.722593 
L 85.658064 261.66214 
L 86.309982 263.272972 
L 87.613813 268.044174 
L 88.265731 270.353376 
L 88.917647 271.839774 
L 89.569565 272.245963 
L 90.22148 271.763411 
L 90.873399 270.695524 
L 91.525314 268.971094 
L 92.177233 265.589481 
L 92.829148 256.792175 
L 93.481066 228.924218 
L 94.132982 182.36903 
L 95.436815 236.849503 
L 96.088734 248.815763 
L 96.740649 254.766967 
L 97.392567 258.290636 
L 98.044483 260.752923 
L 101.304065 270.572102 
L 101.955984 272.014697 
L 102.607899 271.95965 
L 103.259817 269.448008 
L 105.215566 255.387372 
L 106.5194 249.371962 
L 107.171318 244.723199 
L 107.823234 235.990793 
L 108.475152 219.618021 
L 109.127064 198.416113 
L 109.778983 203.593975 
L 110.430901 232.484159 
L 111.08282 251.520822 
L 111.734732 260.852414 
L 112.38665 265.617891 
L 113.038569 268.297027 
L 113.690487 269.940552 
L 114.342399 271.009931 
L 114.994318 271.710133 
L 115.646236 272.116811 
L 116.298154 272.221859 
L 116.950067 271.944174 
L 117.601985 271.125873 
L 118.253903 269.533859 
L 118.905816 266.898026 
L 119.557734 263.026588 
L 120.861571 252.294379 
L 122.165401 241.938191 
L 122.81732 238.347871 
L 123.469238 235.872182 
L 124.12115 234.205305 
L 125.424987 231.737096 
L 126.076906 230.16849 
L 126.728818 227.871338 
L 127.380736 224.502098 
L 128.032655 220.220078 
L 128.684573 218.148686 
L 129.336485 229.30098 
L 129.988403 254.093023 
L 130.640322 268.580558 
L 131.292234 272.072038 
L 131.944152 271.910936 
L 133.247989 270.083758 
L 133.899901 269.369312 
L 134.55182 268.856641 
L 135.203738 268.519808 
L 135.855657 268.328391 
L 137.159487 268.280833 
L 138.463324 268.559169 
L 139.767155 269.067642 
L 141.722904 270.134282 
L 144.982489 272.097728 
L 145.634408 272.223676 
L 146.28632 272.008536 
L 146.938238 271.204608 
L 147.590157 269.495336 
L 148.242075 266.631371 
L 150.197824 254.632417 
L 150.849736 251.948797 
L 151.501655 250.373221 
L 152.153573 249.60369 
L 152.805492 249.32112 
L 153.457404 249.381184 
L 154.109322 250.017967 
L 154.761241 252.096725 
L 155.413159 256.68209 
L 156.065071 262.904129 
L 156.71699 267.940088 
L 157.368908 270.678426 
L 158.020826 271.830215 
L 158.672739 272.19528 
L 159.324657 272.210015 
L 160.628494 271.857044 
L 162.584237 271.007365 
L 163.888073 270.274329 
L 165.19191 269.354494 
L 167.147653 267.865453 
L 167.799571 267.736378 
L 168.45149 268.165992 
L 169.103408 269.260302 
L 170.407245 271.89641 
L 171.059163 272.308046 
L 171.711069 271.502828 
L 172.362988 267.391326 
L 173.014906 243.125792 
L 173.666825 210.171984 
L 174.318743 252.380035 
L 174.970661 262.801981 
L 175.62258 266.306763 
L 176.274498 267.915144 
L 176.926404 268.809494 
L 177.578323 269.379948 
L 178.882159 270.111675 
L 182.141739 271.611122 
L 183.445576 272.208787 
L 184.097494 272.084189 
L 184.749413 270.986846 
L 185.401331 268.039683 
L 186.053249 262.825481 
L 187.357074 250.696677 
L 188.660911 241.550487 
L 189.312829 234.791648 
L 189.964747 222.8939 
L 190.616666 206.764003 
L 191.268584 212.255548 
L 191.92049 241.991173 
L 192.572409 259.422114 
L 193.224327 266.469468 
L 193.876245 269.437588 
L 194.528164 270.818624 
L 195.180082 271.517966 
L 195.832 271.891994 
L 197.135825 272.193686 
L 198.439662 272.19485 
L 199.743498 271.947494 
L 200.395417 271.690414 
L 201.047335 271.292005 
L 201.699241 270.68212 
L 202.35116 269.752945 
L 203.003078 268.348157 
L 203.654996 266.263795 
L 204.306915 263.288248 
L 204.958833 259.317083 
L 206.914576 245.133801 
L 207.566494 241.988921 
L 208.218413 240.265533 
L 208.870331 239.628478 
L 209.52225 239.375086 
L 210.174168 238.501309 
L 211.477992 232.424165 
L 212.781829 270.646266 
L 213.433748 272.018347 
L 214.737584 271.114312 
L 215.389503 270.930444 
L 216.693327 270.902819 
L 219.301001 271.242546 
L 225.82016 272.198777 
L 227.123997 272.121254 
L 227.775915 271.793908 
L 228.427834 271.00048 
L 229.079752 269.358804 
L 229.73167 266.449612 
L 231.687413 254.159943 
L 232.339332 251.71392 
L 232.99125 250.170419 
L 233.643168 249.535243 
L 234.295087 251.166273 
L 234.947005 256.975048 
L 235.598911 264.344506 
L 236.25083 269.016849 
L 236.902748 271.079148 
L 237.554666 271.873471 
L 238.206585 272.152726 
L 239.510422 272.218553 
L 242.770001 271.888735 
L 245.377662 271.462509 
L 247.985336 270.886061 
L 248.637254 270.878878 
L 249.289173 271.105834 
L 250.592997 272.190661 
L 251.244916 272.184011 
L 251.896834 270.845081 
L 252.548752 266.3706 
L 253.200671 248.826484 
L 253.852589 225.830831 
L 254.504508 256.624659 
L 255.156414 265.929298 
L 255.808332 268.847858 
L 256.46025 270.075533 
L 257.112169 270.702553 
L 257.764087 271.069211 
L 259.067924 271.475907 
L 261.675585 271.894665 
L 264.935177 272.222735 
L 265.587095 272.101271 
L 266.239014 271.657678 
L 266.890932 270.513233 
L 267.542826 268.054062 
L 268.194744 263.70286 
L 270.802418 239.433589 
L 271.454336 231.102862 
L 272.106255 218.685479 
L 272.758173 214.286958 
L 273.410091 239.295194 
L 274.06201 259.803196 
L 274.713928 267.55553 
L 275.365847 270.338501 
L 276.017765 271.429591 
L 276.669683 271.892634 
L 277.973495 272.185493 
L 279.929251 272.199549 
L 282.536924 272.002028 
L 284.492679 271.644733 
L 285.796516 271.14589 
L 286.448435 270.73591 
L 287.100328 270.151935 
L 287.752247 269.325394 
L 288.404165 268.19044 
L 290.35992 263.626862 
L 291.011839 262.775563 
L 291.663757 262.766635 
L 292.315675 263.479119 
L 292.967594 265.089876 
L 293.619512 269.217761 
L 294.271431 271.645992 
L 296.227186 271.522223 
L 300.79059 271.992596 
L 306.005937 272.209567 
L 307.961667 272.18251 
L 309.265504 271.936929 
L 309.917423 271.593439 
L 310.569341 270.928712 
L 311.221259 269.738652 
L 311.873178 267.873106 
L 313.828933 260.281916 
L 314.480851 258.722811 
L 315.13277 261.77025 
L 315.784688 267.802376 
L 316.436607 270.866448 
L 317.0885 271.856961 
L 317.740419 272.150099 
L 319.044255 272.236381 
L 329.474925 272.073239 
L 330.778762 272.220664 
L 331.43068 272.058465 
L 332.082598 271.16792 
L 332.734517 268.661805 
L 333.386435 262.48694 
L 334.038354 246.857852 
L 334.690272 242.287382 
L 335.34219 261.011952 
L 335.994109 267.843103 
L 336.646002 270.109791 
L 337.297921 271.031976 
L 337.949839 271.474144 
L 339.253676 271.85808 
L 341.209431 272.067188 
L 345.120942 272.224514 
L 347.076672 272.163263 
L 347.72859 272.036523 
L 348.380509 271.755684 
L 349.032427 271.165054 
L 349.684346 269.98026 
L 350.336264 267.767094 
L 350.988182 264.080141 
L 351.640101 258.789268 
L 352.292019 252.022089 
L 352.943938 243.191473 
L 353.595856 231.179997 
L 354.247774 226.955426 
L 354.899693 248.983596 
L 355.551611 264.451132 
L 356.203505 269.583909 
L 356.855423 271.256751 
L 357.507342 271.855305 
L 358.15926 272.085368 
L 359.463097 272.209338 
L 363.374607 272.167134 
L 368.58993 271.926816 
L 370.545685 271.619185 
L 373.153358 271.069423 
L 373.805277 271.165116 
L 375.109114 271.557236 
L 376.412926 271.728684 
L 378.368681 272.010439 
L 381.628273 272.171024 
L 381.628273 272.171024 
" clip-path="url(#p5481de70aa)" style="fill: none; stroke: #ff7f0e; stroke-width: 1.2; stroke-linecap: round"/>
   </g>
   <g id="line2d_15">
    <path d="M 56.973727 32.2905 
L 57.625644 32.356419 
L 58.277561 32.611198 
L 58.929478 33.287977 
L 59.581394 34.746542 
L 60.233311 37.505004 
L 60.885228 42.270562 
L 61.537145 49.96515 
L 62.189061 61.716981 
L 62.840978 78.771831 
L 63.492895 102.23865 
L 64.144811 132.551251 
L 66.100562 240.973305 
L 66.752479 264.248783 
L 67.404395 272.223817 
L 68.056312 265.179109 
L 68.708229 247.204163 
L 71.315896 153.643156 
L 72.619729 119.934767 
L 73.923562 94.652387 
L 77.183147 39.063026 
L 77.835063 44.323183 
L 78.48698 80.958763 
L 79.790814 225.742676 
L 80.442731 263.920997 
L 81.094648 272.162426 
L 81.746564 265.460781 
L 83.050397 238.430681 
L 86.309982 164.124674 
L 86.961898 152.140963 
L 87.613813 143.910129 
L 88.265731 141.348522 
L 88.917647 145.58849 
L 89.569565 155.903516 
L 92.177233 208.719197 
L 92.829148 222.2953 
L 94.132982 272.225931 
L 94.7849 249.906047 
L 95.436815 234.700758 
L 96.088734 229.600228 
L 96.740649 227.922876 
L 97.392567 227.545852 
L 98.044483 227.816786 
L 98.696398 228.561003 
L 99.348316 229.81647 
L 100.000232 231.772969 
L 100.65215 234.773631 
L 101.304065 239.300429 
L 101.955984 245.802115 
L 103.259817 262.861962 
L 103.911733 269.364767 
L 104.563651 272.090181 
L 105.215566 271.61978 
L 105.867485 269.213282 
L 106.5194 265.238366 
L 107.171318 258.589601 
L 107.823234 245.855474 
L 108.475152 219.469532 
L 109.127064 175.181011 
L 109.778983 158.797362 
L 111.08282 223.150785 
L 111.734732 240.946313 
L 112.38665 251.303467 
L 113.038569 257.830475 
L 113.690487 262.292275 
L 114.342399 265.55249 
L 114.994318 268.043014 
L 115.646236 269.964363 
L 116.298154 271.361489 
L 116.950067 272.137177 
L 117.601985 272.029617 
L 118.253903 270.581263 
L 118.905816 267.154738 
L 119.557734 261.091901 
L 120.209652 252.083386 
L 121.513483 227.883999 
L 122.81732 204.588384 
L 123.469238 195.491682 
L 124.773069 181.547434 
L 126.076906 168.881945 
L 126.728818 161.106399 
L 128.032655 141.190941 
L 128.684573 139.254998 
L 129.336485 173.088774 
L 129.988403 236.400998 
L 130.640322 268.115806 
L 131.292234 272.397693 
L 131.944152 268.969936 
L 133.247989 261.119271 
L 133.899901 258.471175 
L 134.55182 256.642185 
L 135.203738 255.490829 
L 135.855657 254.893311 
L 136.507569 254.751703 
L 137.159487 254.990453 
L 137.811406 255.551268 
L 138.463324 256.388877 
L 139.767155 258.759065 
L 141.070985 261.885693 
L 143.02674 267.512596 
L 144.330571 271.054291 
L 144.982489 272.119634 
L 145.634408 271.981833 
L 146.28632 269.578269 
L 146.938238 263.231468 
L 147.590157 250.71904 
L 148.242075 230.107369 
L 149.545906 169.309551 
L 150.197824 139.034258 
L 150.849736 114.830004 
L 151.501655 97.05993 
L 152.153573 83.874907 
L 153.457404 64.033176 
L 154.109322 58.927383 
L 154.761241 67.056686 
L 155.413159 102.18187 
L 156.71699 213.749736 
L 157.368908 246.12726 
L 158.020826 262.025902 
L 158.672739 268.980028 
L 159.324657 271.611687 
L 159.976575 272.182297 
L 160.628494 271.729317 
L 161.280412 270.713649 
L 161.932318 269.322447 
L 162.584237 267.601895 
L 163.236155 265.511596 
L 163.888073 262.939829 
L 164.539992 259.696256 
L 165.19191 255.491256 
L 165.843829 249.91328 
L 166.495747 242.446821 
L 167.147653 232.64335 
L 168.45149 208.202016 
L 169.103408 199.088709 
L 169.755327 197.41052 
L 170.407245 203.881728 
L 171.711069 225.531447 
L 173.014906 242.112009 
L 173.666825 270.913226 
L 174.318743 265.472091 
L 174.970661 263.134607 
L 175.62258 262.769291 
L 176.274498 262.932197 
L 178.230241 263.94585 
L 180.185996 265.13534 
L 181.489821 266.295143 
L 182.141739 267.131473 
L 182.793657 268.228759 
L 184.097494 271.13455 
L 184.749413 272.125971 
L 185.401331 271.094137 
L 186.053249 266.299458 
L 187.357074 247.864779 
L 188.660911 227.425217 
L 189.312829 212.297893 
L 189.964747 186.581881 
L 190.616666 149.849124 
L 191.268584 152.172613 
L 191.92049 207.742401 
L 192.572409 243.27786 
L 193.224327 258.494292 
L 193.876245 265.235829 
L 194.528164 268.526842 
L 195.180082 270.272845 
L 195.832 271.251337 
L 196.483906 271.808047 
L 197.135825 272.106507 
L 197.787743 272.224607 
L 198.439662 272.193987 
L 199.09158 272.015583 
L 199.743498 271.663346 
L 200.395417 271.080199 
L 201.047335 270.166968 
L 201.699241 268.763944 
L 202.35116 266.625837 
L 203.003078 263.399078 
L 203.654996 258.629231 
L 204.306915 251.863077 
L 204.958833 242.928476 
L 206.914576 212.965694 
L 207.566494 207.821492 
L 208.218413 206.776318 
L 208.870331 209.2856 
L 209.52225 214.292185 
L 210.174168 220.927554 
L 210.826086 229.777557 
L 211.477992 247.554245 
L 212.129911 274.2105 
L 213.433748 263.046128 
L 214.085666 261.733721 
L 214.737584 261.981512 
L 216.041409 263.641492 
L 217.997164 266.16645 
L 219.952919 268.177747 
L 222.56058 270.401539 
L 224.516336 271.848605 
L 225.168254 272.189216 
L 225.82016 272.311286 
L 226.472078 271.973679 
L 227.123997 270.682425 
L 227.775915 267.445737 
L 228.427834 260.379535 
L 229.079752 246.384861 
L 229.73167 222.001676 
L 231.687413 116.340672 
L 232.339332 92.313322 
L 232.99125 74.348867 
L 233.643168 62.765459 
L 234.295087 70.849567 
L 234.947005 119.73325 
L 235.598911 188.564914 
L 236.25083 235.095001 
L 236.902748 257.017789 
L 237.554666 266.250401 
L 238.206585 270.049149 
L 238.858503 271.561773 
L 239.510422 272.081374 
L 240.16234 272.148093 
L 240.814246 271.993223 
L 242.118083 271.352534 
L 243.42192 270.379684 
L 244.073838 269.728819 
L 244.725756 268.911382 
L 245.377662 267.853207 
L 246.029581 266.439452 
L 246.681499 264.494376 
L 247.333418 261.760461 
L 247.985336 257.908814 
L 248.637254 252.685676 
L 249.941091 240.825814 
L 250.592997 239.023313 
L 251.244916 242.632167 
L 252.548752 257.106755 
L 253.200671 265.069126 
L 253.852589 269.681257 
L 254.504508 266.543289 
L 255.156414 266.929551 
L 256.46025 268.337102 
L 257.764087 269.248586 
L 259.067924 269.851936 
L 261.675585 270.699253 
L 263.63134 271.363887 
L 265.587095 272.094729 
L 266.239014 271.942476 
L 266.890932 270.8568 
L 267.542826 267.722119 
L 268.194744 261.195559 
L 268.846663 251.052199 
L 270.802418 214.590279 
L 271.454336 197.341376 
L 272.106255 172.006928 
L 272.758173 161.543753 
L 274.06201 248.147426 
L 274.713928 263.290354 
L 275.365847 268.747665 
L 276.017765 270.874566 
L 276.669683 271.755408 
L 277.321577 272.120121 
L 277.973495 272.251026 
L 279.277332 272.221695 
L 281.233087 271.902748 
L 283.188843 271.356712 
L 284.492679 270.763817 
L 285.796516 269.793771 
L 286.448435 269.078076 
L 287.100328 268.15346 
L 289.056083 264.482207 
L 289.708002 263.884413 
L 290.35992 264.577328 
L 291.011839 266.885907 
L 291.663757 270.173362 
L 292.315675 272.332082 
L 292.967594 266.795394 
L 293.619512 242.768588 
L 294.271431 241.520921 
L 294.923349 253.320215 
L 295.575267 260.32044 
L 296.227186 264.194362 
L 296.879079 266.502779 
L 297.530998 267.979604 
L 298.182916 268.98098 
L 298.834835 269.693855 
L 300.138671 270.632448 
L 301.442508 271.230528 
L 303.398263 271.839013 
L 305.354019 272.231939 
L 306.657831 272.269593 
L 307.309749 272.109931 
L 307.961667 271.689115 
L 308.613586 270.766572 
L 309.265504 268.864306 
L 309.917423 265.052324 
L 310.569341 257.652605 
L 311.221259 244.174071 
L 311.873178 222.388521 
L 313.177015 158.277642 
L 313.828933 121.145147 
L 314.480851 92.136819 
L 315.13277 122.739597 
L 315.784688 202.473084 
L 316.436607 247.286413 
L 317.0885 263.411551 
L 317.740419 269.015917 
L 318.392337 271.052293 
L 319.044255 271.807954 
L 319.696174 272.071653 
L 321.000011 272.113973 
L 322.955766 271.872626 
L 324.911521 271.461791 
L 326.215358 271.027469 
L 327.51917 270.352344 
L 328.823006 269.262181 
L 330.778762 266.899542 
L 331.43068 266.691378 
L 332.082598 267.552054 
L 333.386435 271.447003 
L 334.038354 270.848106 
L 334.690272 264.74239 
L 335.34219 266.142798 
L 335.994109 268.355743 
L 336.646002 269.60049 
L 337.297921 270.327947 
L 337.949839 270.790202 
L 339.253676 271.333336 
L 341.209431 271.744709 
L 343.817105 272.011273 
L 346.424754 272.14175 
L 347.72859 272.013302 
L 348.380509 271.710734 
L 349.032427 270.985242 
L 349.684346 269.40116 
L 350.336264 266.261934 
L 350.988182 260.8063 
L 351.640101 252.751468 
L 352.292019 242.326542 
L 352.943938 228.866773 
L 353.595856 211.131818 
L 354.247774 206.070755 
L 354.899693 239.585221 
L 355.551611 262.092406 
L 356.203505 269.231406 
L 356.855423 271.402076 
L 357.507342 272.088721 
L 358.15926 272.292379 
L 359.463097 272.299912 
L 366.634174 271.871003 
L 369.241848 271.859749 
L 370.545685 272.004711 
L 371.849522 272.291655 
L 372.50144 272.096724 
L 373.153358 270.597315 
L 373.805277 265.134174 
L 374.457195 249.211436 
L 375.109114 229.907571 
L 376.412926 258.845556 
L 377.064844 265.264091 
L 377.716762 268.224952 
L 378.368681 269.738698 
L 379.020599 270.584468 
L 379.672518 271.09253 
L 380.976354 271.636374 
L 381.628273 271.792448 
L 381.628273 271.792448 
" clip-path="url(#p5481de70aa)" style="fill: none; stroke: #2ca02c; stroke-width: 1.2; stroke-linecap: round"/>
   </g>
   <g id="line2d_16">
    <path d="M 56.973727 272.216896 
L 59.581394 272.071405 
L 62.840978 271.634441 
L 64.796728 271.468771 
L 66.100562 271.626197 
L 68.708229 272.192614 
L 70.012063 272.200709 
L 71.967812 271.910777 
L 74.575479 271.228378 
L 75.879313 270.734003 
L 77.835063 269.789768 
L 78.48698 269.786292 
L 79.138897 270.311047 
L 79.790814 271.140715 
L 80.442731 271.788121 
L 81.094648 272.11596 
L 81.746564 272.220731 
L 83.050397 272.110918 
L 84.35423 271.798194 
L 85.658064 271.31887 
L 86.961898 270.63799 
L 88.917647 269.512945 
L 89.569565 269.306854 
L 90.873399 269.235487 
L 92.177233 269.186644 
L 92.829148 269.018152 
L 93.481066 268.986986 
L 94.132982 270.787559 
L 94.7849 272.212044 
L 98.696398 271.121461 
L 102.607899 270.536305 
L 103.259817 270.604983 
L 104.563651 271.070059 
L 106.5194 271.816072 
L 107.823234 272.173146 
L 108.475152 272.170584 
L 109.127064 271.564046 
L 109.778983 270.365188 
L 110.430901 269.967728 
L 114.342399 271.080906 
L 120.861571 272.214591 
L 122.165401 272.053742 
L 123.469238 271.548172 
L 124.12115 271.15116 
L 124.773069 270.614673 
L 125.424987 269.862441 
L 126.076906 268.750957 
L 126.728818 267.004312 
L 127.380736 264.073499 
L 128.032655 258.904295 
L 129.336485 241.973832 
L 129.988403 245.902208 
L 130.640322 256.265671 
L 131.292234 263.270148 
L 131.944152 267.047154 
L 132.596071 269.10876 
L 133.247989 270.298361 
L 133.899901 271.021666 
L 134.55182 271.478959 
L 135.855657 271.967621 
L 137.159487 272.1655 
L 139.115236 272.205924 
L 141.722904 271.996908 
L 143.678653 271.661159 
L 145.634408 271.100579 
L 147.590157 270.379344 
L 148.242075 270.256795 
L 148.893987 270.311978 
L 149.545906 270.570302 
L 151.501655 271.748533 
L 152.805492 272.164754 
L 154.109322 272.161165 
L 156.71699 271.570441 
L 160.628494 272.028341 
L 165.19191 272.223862 
L 166.495747 272.186324 
L 167.147653 272.068465 
L 167.799571 271.792906 
L 168.45149 271.259632 
L 169.103408 270.416076 
L 171.059163 267.265361 
L 171.711069 265.827813 
L 172.362988 262.364665 
L 173.014906 249.420325 
L 173.666825 250.732904 
L 174.318743 269.109221 
L 174.970661 271.585578 
L 175.62258 272.075247 
L 176.926404 272.2258 
L 180.837915 272.099008 
L 182.793657 271.910679 
L 184.097494 271.630224 
L 186.053249 271.004223 
L 186.705155 270.988438 
L 188.008992 271.340953 
L 190.616666 272.16797 
L 191.268584 272.188612 
L 192.572409 271.948707 
L 195.832 271.971538 
L 204.958833 272.099602 
L 205.610752 271.874394 
L 206.262658 271.460441 
L 206.914576 270.823684 
L 207.566494 269.953846 
L 208.218413 268.829208 
L 208.870331 267.346586 
L 209.52225 265.19028 
L 210.174168 261.485398 
L 210.826086 253.649192 
L 211.477992 235.49366 
L 212.129911 230.658382 
L 212.781829 257.082706 
L 213.433748 267.010186 
L 214.085666 270.087459 
L 214.737584 271.23534 
L 215.389503 271.732252 
L 216.693327 272.091729 
L 218.649082 272.20855 
L 223.864417 272.166613 
L 227.123997 272.00014 
L 230.383589 271.723646 
L 233.643168 272.195332 
L 235.598911 271.940831 
L 242.118083 272.200475 
L 247.333418 272.170887 
L 247.985336 272.079631 
L 248.637254 271.875438 
L 249.289173 271.455055 
L 249.941091 270.704523 
L 251.244916 268.374021 
L 251.896834 266.927764 
L 252.548752 264.376275 
L 253.200671 257.180406 
L 253.852589 256.418956 
L 254.504508 269.372805 
L 255.156414 271.635303 
L 255.808332 272.081507 
L 257.112169 272.224746 
L 262.327503 272.169876 
L 266.239014 271.995716 
L 268.846663 271.818272 
L 272.758173 272.108525 
L 273.410091 271.995189 
L 287.752247 272.111636 
L 288.404165 271.961382 
L 289.056083 271.662931 
L 289.708002 271.123478 
L 290.35992 270.245597 
L 291.011839 268.942893 
L 291.663757 267.043472 
L 292.315675 263.935352 
L 292.967594 258.220708 
L 293.619512 255.137356 
L 294.271431 265.040211 
L 294.923349 270.007436 
L 295.575267 271.446842 
L 296.227186 271.915708 
L 297.530998 272.163866 
L 300.79059 272.219499 
L 313.828933 272.102371 
L 315.13277 271.750112 
L 318.392337 272.174347 
L 324.259603 272.225358 
L 328.823006 272.163782 
L 330.126843 271.982816 
L 330.778762 271.751943 
L 331.43068 271.34371 
L 332.082598 270.714154 
L 332.734517 269.840793 
L 333.386435 268.497537 
L 334.038354 266.21505 
L 334.690272 267.783292 
L 335.34219 271.228661 
L 335.994109 272.018869 
L 336.646002 272.187341 
L 338.601758 272.232786 
L 352.943938 272.162603 
L 353.595856 272.025287 
L 354.247774 271.76764 
L 354.899693 271.786286 
L 356.203505 272.074758 
L 358.811178 272.187998 
L 369.241848 272.205329 
L 371.197603 272.065853 
L 371.849522 271.918245 
L 372.50144 271.6543 
L 373.153358 271.200436 
L 373.805277 270.41732 
L 374.457195 269.134723 
L 375.109114 268.859433 
L 375.761007 270.837038 
L 376.412926 271.790523 
L 377.064844 272.07585 
L 378.368681 272.200356 
L 381.628273 272.220719 
L 381.628273 272.220719 
" clip-path="url(#p5481de70aa)" style="fill: none; stroke: #d62728; stroke-width: 1.2; stroke-linecap: round"/>
   </g>
   <g id="line2d_17">
    <path d="M 56.973727 272.22047 
L 57.625644 272.179322 
L 58.277561 271.994554 
L 58.929478 271.479428 
L 59.581394 270.342241 
L 60.233311 268.164384 
L 60.885228 264.371615 
L 61.537145 258.213457 
L 62.189061 248.769563 
L 62.840978 235.020247 
L 63.492895 216.053839 
L 64.144811 191.505585 
L 66.100562 103.473472 
L 66.752479 84.519549 
L 67.404395 77.948555 
L 68.056312 83.499689 
L 68.708229 97.813512 
L 71.315896 171.364775 
L 72.619729 197.260783 
L 73.923562 216.867854 
L 75.227396 235.830587 
L 77.183147 269.436784 
L 77.835063 270.883861 
L 78.48698 247.880143 
L 79.790814 132.390766 
L 80.442731 96.27158 
L 81.094648 84.678618 
L 81.746564 86.513416 
L 82.398481 94.210707 
L 83.702315 115.08085 
L 85.658064 147.424218 
L 86.309982 156.671457 
L 86.961898 163.885027 
L 87.613813 167.868521 
L 88.265731 167.419175 
L 88.917647 161.933108 
L 89.569565 152.113073 
L 90.873399 128.743395 
L 91.525314 120.561117 
L 92.177233 118.535799 
L 92.829148 130.341607 
L 93.481066 183.099071 
L 94.132982 270.971053 
L 95.436815 149.470202 
L 96.088734 123.527332 
L 96.740649 110.147613 
L 97.392567 101.869711 
L 98.696398 90.800109 
L 100.000232 80.85749 
L 101.304065 68.378908 
L 102.607899 54.737516 
L 103.259817 51.442293 
L 103.911733 52.757651 
L 104.563651 57.50413 
L 105.867485 69.604448 
L 106.5194 77.86174 
L 107.171318 91.837789 
L 107.823234 118.778107 
L 108.475152 171.845092 
L 109.127064 250.20495 
L 109.778983 256.958445 
L 110.430901 175.628319 
L 111.08282 114.078653 
L 111.734732 81.35316 
L 112.38665 63.518326 
L 113.038569 52.908167 
L 113.690487 46.051129 
L 114.342399 41.337145 
L 114.994318 38.001204 
L 115.646236 35.713842 
L 116.298154 34.42543 
L 116.950067 34.328604 
L 117.601985 35.875756 
L 118.253903 39.797529 
L 118.905816 47.026652 
L 119.557734 58.387375 
L 120.209652 74.000538 
L 122.165401 130.46349 
L 122.81732 145.692052 
L 123.469238 157.831822 
L 124.773069 176.048289 
L 126.076906 194.495228 
L 126.728818 207.515669 
L 127.380736 225.341182 
L 128.032655 248.075168 
L 128.684573 264.077294 
L 129.336485 226.657519 
L 129.988403 125.854798 
L 130.640322 61.631067 
L 131.292234 43.607816 
L 131.944152 42.304959 
L 133.899901 50.970593 
L 134.55182 52.895266 
L 135.203738 54.128186 
L 135.855657 54.757611 
L 136.507569 54.872243 
L 137.159487 54.548942 
L 137.811406 53.850824 
L 138.463324 52.828876 
L 139.115236 51.523916 
L 140.419073 48.19135 
L 141.722904 44.072866 
L 144.330571 35.177495 
L 144.982489 33.851326 
L 145.634408 33.928958 
L 146.28632 36.65544 
L 146.938238 43.992058 
L 147.590157 58.525706 
L 148.242075 82.480716 
L 149.545906 152.829806 
L 150.197824 187.492022 
L 150.849736 214.789218 
L 151.501655 234.320742 
L 152.153573 248.263933 
L 152.805492 259.084559 
L 153.457404 267.830935 
L 154.109322 271.801489 
L 154.761241 260.851496 
L 155.413159 220.168133 
L 156.71699 95.907432 
L 157.368908 60.594402 
L 158.020826 43.495501 
L 158.672739 36.171125 
L 159.324657 33.524564 
L 159.976575 33.088619 
L 160.628494 33.742972 
L 161.280412 34.996258 
L 161.932318 36.653137 
L 162.584237 38.669702 
L 163.236155 41.093192 
L 163.888073 44.04449 
L 164.539992 47.723183 
L 165.19191 52.425254 
L 165.843829 58.556928 
L 166.495747 66.602606 
L 167.147653 76.927593 
L 168.45149 101.622355 
L 169.103408 110.31655 
L 169.755327 111.588815 
L 170.407245 105.321885 
L 171.059163 95.845932 
L 171.711069 89.256417 
L 172.362988 94.36148 
L 173.014906 150.006891 
L 173.666825 177.496492 
L 174.318743 78.244152 
L 174.970661 58.075416 
L 175.62258 51.413017 
L 176.274498 48.174946 
L 176.926404 46.212443 
L 177.578323 44.844197 
L 178.882159 42.899772 
L 180.837915 40.442815 
L 182.141739 38.345786 
L 183.445576 35.661424 
L 184.097494 34.799575 
L 184.749413 35.879203 
L 185.401331 41.419926 
L 186.053249 53.430483 
L 188.660911 118.827578 
L 189.312829 142.766741 
L 189.964747 184.424454 
L 190.616666 243.133648 
L 191.268584 233.936432 
L 191.92049 138.365187 
L 192.572409 79.14303 
L 193.224327 54.271193 
L 193.876245 43.430869 
L 194.528164 38.218397 
L 195.180082 35.493102 
L 195.832 33.988054 
L 196.483906 33.14557 
L 197.135825 32.704219 
L 197.787743 32.540774 
L 198.439662 32.606135 
L 199.09158 32.899659 
L 199.743498 33.463093 
L 200.395417 34.386542 
L 201.047335 35.825141 
L 201.699241 38.027663 
L 202.35116 41.375074 
L 203.003078 46.416292 
L 203.654996 53.859405 
L 204.306915 64.421709 
L 204.958833 78.411759 
L 206.914576 126.854105 
L 207.566494 136.6017 
L 208.218413 140.867554 
L 208.870331 140.810346 
L 209.52225 138.820655 
L 210.174168 138.262483 
L 210.826086 144.016165 
L 211.477992 157.660038 
L 212.129911 117.317368 
L 212.781829 62.98567 
L 213.433748 51.180092 
L 214.085666 47.906179 
L 214.737584 46.038686 
L 216.041409 43.155538 
L 217.345246 40.839986 
L 218.649082 38.967573 
L 219.952919 37.420664 
L 221.908662 35.465484 
L 223.864417 33.73206 
L 225.168254 32.824172 
L 225.82016 32.657523 
L 226.472078 32.993281 
L 227.123997 34.384869 
L 227.775915 37.948572 
L 228.427834 45.810052 
L 229.079752 61.472885 
L 229.73167 88.853339 
L 231.687413 207.441004 
L 232.339332 234.052033 
L 232.99125 253.6138 
L 233.643168 265.806965 
L 234.295087 255.944086 
L 234.947005 200.926911 
L 235.598911 124.367671 
L 236.25083 72.94957 
L 236.902748 48.86823 
L 237.554666 38.799094 
L 238.206585 34.699159 
L 238.858503 33.096571 
L 239.510422 32.571409 
L 240.16234 32.53338 
L 240.814246 32.731551 
L 242.118083 33.481557 
L 243.42192 34.600646 
L 244.073838 35.347963 
L 244.725756 36.284527 
L 245.377662 37.490687 
L 246.029581 39.087526 
L 246.681499 41.255951 
L 247.333418 44.254289 
L 247.985336 48.401178 
L 248.637254 53.923822 
L 249.941091 66.425716 
L 250.592997 69.041642 
L 251.244916 67.389812 
L 251.896834 64.679077 
L 252.548752 67.94056 
L 253.852589 130.705397 
L 254.504508 66.636659 
L 255.156414 48.280782 
L 255.808332 42.233076 
L 256.46025 39.452603 
L 257.112169 37.88055 
L 257.764087 36.865768 
L 258.416006 36.147884 
L 259.719842 35.171417 
L 261.675585 34.205176 
L 264.935177 32.934913 
L 265.587095 33.051662 
L 266.239014 33.952027 
L 266.890932 36.69437 
L 267.542826 43.111516 
L 268.194744 55.158587 
L 269.498581 92.238465 
L 270.802418 130.944343 
L 271.454336 158.555999 
L 272.106255 199.745215 
L 272.758173 216.587653 
L 274.06201 73.000029 
L 274.713928 47.80728 
L 275.365847 38.657002 
L 276.017765 35.036876 
L 276.669683 33.493599 
L 277.321577 32.814761 
L 277.973495 32.529647 
L 279.277332 32.453802 
L 280.581169 32.654419 
L 281.885006 33.018352 
L 283.188843 33.585048 
L 284.492679 34.510642 
L 285.144598 35.203697 
L 285.796516 36.13607 
L 286.448435 37.402471 
L 287.100328 39.122008 
L 287.752247 41.41758 
L 289.056083 47.744965 
L 289.708002 51.045766 
L 290.35992 53.288562 
L 291.011839 53.774579 
L 291.663757 53.219311 
L 292.315675 54.989177 
L 292.967594 68.177819 
L 293.619512 94.421478 
L 294.271431 77.461508 
L 294.923349 56.92319 
L 295.575267 47.145604 
L 296.227186 42.14948 
L 296.879079 39.266089 
L 297.530998 37.444148 
L 298.182916 36.215519 
L 298.834835 35.345517 
L 300.138671 34.217833 
L 301.442508 33.528182 
L 303.398263 32.869009 
L 305.354019 32.455547 
L 306.657831 32.406619 
L 307.309749 32.56812 
L 307.961667 33.00764 
L 308.613586 33.986953 
L 309.265504 36.026931 
L 309.917423 40.140081 
L 310.569341 48.15099 
L 311.221259 62.759824 
L 311.873178 86.358838 
L 313.177015 155.53344 
L 313.828933 195.365179 
L 314.480851 226.236337 
L 315.13277 192.852064 
L 315.784688 106.952663 
L 316.436607 58.855085 
L 317.0885 41.615336 
L 317.740419 35.659279 
L 318.392337 33.518414 
L 319.044255 32.741147 
L 319.696174 32.483651 
L 321.000011 32.471151 
L 323.607684 32.878119 
L 325.563439 33.425907 
L 326.867251 34.034594 
L 328.171088 35.000921 
L 328.823006 35.685537 
L 330.126843 37.566517 
L 331.43068 39.873903 
L 332.082598 41.265748 
L 332.734517 44.175756 
L 333.386435 52.84169 
L 334.038354 78.997634 
L 334.690272 89.336852 
L 335.34219 56.080291 
L 335.994109 42.879077 
L 336.646002 38.097414 
L 337.297921 35.956607 
L 337.949839 34.822301 
L 338.601758 34.142232 
L 339.905594 33.38004 
L 341.209431 32.96552 
L 343.165186 32.611455 
L 345.77286 32.397237 
L 347.076672 32.528975 
L 347.72859 32.830693 
L 348.380509 33.532029 
L 349.032427 35.053882 
L 349.684346 38.176334 
L 350.336264 44.110395 
L 350.988182 54.130317 
L 351.640101 68.662334 
L 352.292019 87.376781 
L 352.943938 111.8239 
L 353.595856 144.941988 
L 354.247774 156.384978 
L 354.899693 95.689381 
L 355.551611 53.302278 
L 356.203505 39.33328 
L 356.855423 34.833771 
L 357.507342 33.257971 
L 358.15926 32.676831 
L 358.811178 32.467861 
L 360.115015 32.411268 
L 365.330362 32.760641 
L 368.58993 33.080195 
L 370.545685 33.425135 
L 371.197603 33.609619 
L 371.849522 33.951012 
L 372.50144 34.811302 
L 373.153358 37.250983 
L 373.805277 44.232593 
L 375.109114 83.529137 
L 376.412926 47.778447 
L 377.064844 40.336049 
L 377.716762 36.907602 
L 378.368681 35.144929 
L 379.020599 34.153659 
L 379.672518 33.557073 
L 380.976354 32.928434 
L 381.628273 32.756808 
L 381.628273 32.756808 
" clip-path="url(#p5481de70aa)" style="fill: none; stroke: #9467bd; stroke-width: 1.2; stroke-linecap: round"/>
   </g>
   <g id="patch_3">
    <path d="M 40.741 272.223392 
L 40.741 32.272608 
" style="fill: none; stroke: #262626; stroke-linejoin: miter; stroke-linecap: square"/>
   </g>
   <g id="patch_4">
    <path d="M 56.321811 286.3065 
L 381.628273 286.3065 
" style="fill: none; stroke: #262626; stroke-linejoin: miter; stroke-linecap: square"/>
   </g>
   <g id="text_15">
    <!-- First Order Indices for v(t) -->
    <g style="fill: #262626" transform="translate(164.62975 14.1945) scale(0.096 -0.096)">
     <defs>
      <path id="ArialMT-46" d="M 525 0 
L 525 4581 
L 3616 4581 
L 3616 4041 
L 1131 4041 
L 1131 2622 
L 3281 2622 
L 3281 2081 
L 1131 2081 
L 1131 0 
L 525 0 
z
" transform="scale(0.015625)"/>
      <path id="ArialMT-4f" d="M 309 2231 
Q 309 3372 921 4017 
Q 1534 4663 2503 4663 
Q 3138 4663 3647 4359 
Q 4156 4056 4423 3514 
Q 4691 2972 4691 2284 
Q 4691 1588 4409 1038 
Q 4128 488 3612 205 
Q 3097 -78 2500 -78 
Q 1853 -78 1343 234 
Q 834 547 571 1087 
Q 309 1628 309 2231 
z
M 934 2222 
Q 934 1394 1379 917 
Q 1825 441 2497 441 
Q 3181 441 3623 922 
Q 4066 1403 4066 2288 
Q 4066 2847 3877 3264 
Q 3688 3681 3323 3911 
Q 2959 4141 2506 4141 
Q 1863 4141 1398 3698 
Q 934 3256 934 2222 
z
" transform="scale(0.015625)"/>
     </defs>
     <use xlink:href="#ArialMT-46"/>
     <use xlink:href="#ArialMT-69" x="61.083984"/>
     <use xlink:href="#ArialMT-72" x="83.300781"/>
     <use xlink:href="#ArialMT-73" x="116.601562"/>
     <use xlink:href="#ArialMT-74" x="166.601562"/>
     <use xlink:href="#ArialMT-20" x="194.384766"/>
     <use xlink:href="#ArialMT-4f" x="222.167969"/>
     <use xlink:href="#ArialMT-72" x="299.951172"/>
     <use xlink:href="#ArialMT-64" x="333.251953"/>
     <use xlink:href="#ArialMT-65" x="388.867188"/>
     <use xlink:href="#ArialMT-72" x="444.482422"/>
     <use xlink:href="#ArialMT-20" x="477.783203"/>
     <use xlink:href="#ArialMT-49" x="505.566406"/>
     <use xlink:href="#ArialMT-6e" x="533.349609"/>
     <use xlink:href="#ArialMT-64" x="588.964844"/>
     <use xlink:href="#ArialMT-69" x="644.580078"/>
     <use xlink:href="#ArialMT-63" x="666.796875"/>
     <use xlink:href="#ArialMT-65" x="716.796875"/>
     <use xlink:href="#ArialMT-73" x="772.412109"/>
     <use xlink:href="#ArialMT-20" x="822.412109"/>
     <use xlink:href="#ArialMT-66" x="850.195312"/>
     <use xlink:href="#ArialMT-6f" x="877.978516"/>
     <use xlink:href="#ArialMT-72" x="933.59375"/>
     <use xlink:href="#ArialMT-20" x="966.894531"/>
     <use xlink:href="#ArialMT-76" x="994.677734"/>
     <use xlink:href="#ArialMT-28" x="1044.677734"/>
     <use xlink:href="#ArialMT-74" x="1077.978516"/>
     <use xlink:href="#ArialMT-29" x="1105.761719"/>
    </g>
   </g>
   <g id="legend_1">
    <g id="line2d_18">
     <path d="M 335.959875 127.446562 
L 344.759875 127.446562 
L 353.559875 127.446562 
" style="fill: none; stroke: #1f77b4; stroke-width: 1.2; stroke-linecap: round"/>
    </g>
    <g id="text_16">
     <!-- alpha -->
     <g style="fill: #262626" transform="translate(360.599875 130.526562) scale(0.088 -0.088)">
      <defs>
       <path id="ArialMT-61" d="M 2588 409 
Q 2275 144 1986 34 
Q 1697 -75 1366 -75 
Q 819 -75 525 192 
Q 231 459 231 875 
Q 231 1119 342 1320 
Q 453 1522 633 1644 
Q 813 1766 1038 1828 
Q 1203 1872 1538 1913 
Q 2219 1994 2541 2106 
Q 2544 2222 2544 2253 
Q 2544 2597 2384 2738 
Q 2169 2928 1744 2928 
Q 1347 2928 1158 2789 
Q 969 2650 878 2297 
L 328 2372 
Q 403 2725 575 2942 
Q 747 3159 1072 3276 
Q 1397 3394 1825 3394 
Q 2250 3394 2515 3294 
Q 2781 3194 2906 3042 
Q 3031 2891 3081 2659 
Q 3109 2516 3109 2141 
L 3109 1391 
Q 3109 606 3145 398 
Q 3181 191 3288 0 
L 2700 0 
Q 2613 175 2588 409 
z
M 2541 1666 
Q 2234 1541 1622 1453 
Q 1275 1403 1131 1340 
Q 988 1278 909 1158 
Q 831 1038 831 891 
Q 831 666 1001 516 
Q 1172 366 1500 366 
Q 1825 366 2078 508 
Q 2331 650 2450 897 
Q 2541 1088 2541 1459 
L 2541 1666 
z
" transform="scale(0.015625)"/>
       <path id="ArialMT-6c" d="M 409 0 
L 409 4581 
L 972 4581 
L 972 0 
L 409 0 
z
" transform="scale(0.015625)"/>
       <path id="ArialMT-70" d="M 422 -1272 
L 422 3319 
L 934 3319 
L 934 2888 
Q 1116 3141 1344 3267 
Q 1572 3394 1897 3394 
Q 2322 3394 2647 3175 
Q 2972 2956 3137 2557 
Q 3303 2159 3303 1684 
Q 3303 1175 3120 767 
Q 2938 359 2589 142 
Q 2241 -75 1856 -75 
Q 1575 -75 1351 44 
Q 1128 163 984 344 
L 984 -1272 
L 422 -1272 
z
M 931 1641 
Q 931 1000 1190 694 
Q 1450 388 1819 388 
Q 2194 388 2461 705 
Q 2728 1022 2728 1688 
Q 2728 2322 2467 2637 
Q 2206 2953 1844 2953 
Q 1484 2953 1207 2617 
Q 931 2281 931 1641 
z
" transform="scale(0.015625)"/>
       <path id="ArialMT-68" d="M 422 0 
L 422 4581 
L 984 4581 
L 984 2938 
Q 1378 3394 1978 3394 
Q 2347 3394 2619 3248 
Q 2891 3103 3008 2847 
Q 3125 2591 3125 2103 
L 3125 0 
L 2563 0 
L 2563 2103 
Q 2563 2525 2380 2717 
Q 2197 2909 1863 2909 
Q 1613 2909 1392 2779 
Q 1172 2650 1078 2428 
Q 984 2206 984 1816 
L 984 0 
L 422 0 
z
" transform="scale(0.015625)"/>
      </defs>
      <use xlink:href="#ArialMT-61"/>
      <use xlink:href="#ArialMT-6c" x="55.615234"/>
      <use xlink:href="#ArialMT-70" x="77.832031"/>
      <use xlink:href="#ArialMT-68" x="133.447266"/>
      <use xlink:href="#ArialMT-61" x="189.0625"/>
     </g>
    </g>
    <g id="line2d_19">
     <path d="M 335.959875 139.894437 
L 344.759875 139.894437 
L 353.559875 139.894437 
" style="fill: none; stroke: #ff7f0e; stroke-width: 1.2; stroke-linecap: round"/>
    </g>
    <g id="text_17">
     <!-- beta -->
     <g style="fill: #262626" transform="translate(360.599875 142.974437) scale(0.088 -0.088)">
      <defs>
       <path id="ArialMT-62" d="M 941 0 
L 419 0 
L 419 4581 
L 981 4581 
L 981 2947 
Q 1338 3394 1891 3394 
Q 2197 3394 2470 3270 
Q 2744 3147 2920 2923 
Q 3097 2700 3197 2384 
Q 3297 2069 3297 1709 
Q 3297 856 2875 390 
Q 2453 -75 1863 -75 
Q 1275 -75 941 416 
L 941 0 
z
M 934 1684 
Q 934 1088 1097 822 
Q 1363 388 1816 388 
Q 2184 388 2453 708 
Q 2722 1028 2722 1663 
Q 2722 2313 2464 2622 
Q 2206 2931 1841 2931 
Q 1472 2931 1203 2611 
Q 934 2291 934 1684 
z
" transform="scale(0.015625)"/>
      </defs>
      <use xlink:href="#ArialMT-62"/>
      <use xlink:href="#ArialMT-65" x="55.615234"/>
      <use xlink:href="#ArialMT-74" x="111.230469"/>
      <use xlink:href="#ArialMT-61" x="139.013672"/>
     </g>
    </g>
    <g id="line2d_20">
     <path d="M 335.959875 152.342312 
L 344.759875 152.342312 
L 353.559875 152.342312 
" style="fill: none; stroke: #2ca02c; stroke-width: 1.2; stroke-linecap: round"/>
    </g>
    <g id="text_18">
     <!-- gamma -->
     <g style="fill: #262626" transform="translate(360.599875 155.422312) scale(0.088 -0.088)">
      <defs>
       <path id="ArialMT-67" d="M 319 -275 
L 866 -356 
Q 900 -609 1056 -725 
Q 1266 -881 1628 -881 
Q 2019 -881 2231 -725 
Q 2444 -569 2519 -288 
Q 2563 -116 2559 434 
Q 2191 0 1641 0 
Q 956 0 581 494 
Q 206 988 206 1678 
Q 206 2153 378 2554 
Q 550 2956 876 3175 
Q 1203 3394 1644 3394 
Q 2231 3394 2613 2919 
L 2613 3319 
L 3131 3319 
L 3131 450 
Q 3131 -325 2973 -648 
Q 2816 -972 2473 -1159 
Q 2131 -1347 1631 -1347 
Q 1038 -1347 672 -1080 
Q 306 -813 319 -275 
z
M 784 1719 
Q 784 1066 1043 766 
Q 1303 466 1694 466 
Q 2081 466 2343 764 
Q 2606 1063 2606 1700 
Q 2606 2309 2336 2618 
Q 2066 2928 1684 2928 
Q 1309 2928 1046 2623 
Q 784 2319 784 1719 
z
" transform="scale(0.015625)"/>
       <path id="ArialMT-6d" d="M 422 0 
L 422 3319 
L 925 3319 
L 925 2853 
Q 1081 3097 1340 3245 
Q 1600 3394 1931 3394 
Q 2300 3394 2536 3241 
Q 2772 3088 2869 2813 
Q 3263 3394 3894 3394 
Q 4388 3394 4653 3120 
Q 4919 2847 4919 2278 
L 4919 0 
L 4359 0 
L 4359 2091 
Q 4359 2428 4304 2576 
Q 4250 2725 4106 2815 
Q 3963 2906 3769 2906 
Q 3419 2906 3187 2673 
Q 2956 2441 2956 1928 
L 2956 0 
L 2394 0 
L 2394 2156 
Q 2394 2531 2256 2718 
Q 2119 2906 1806 2906 
Q 1569 2906 1367 2781 
Q 1166 2656 1075 2415 
Q 984 2175 984 1722 
L 984 0 
L 422 0 
z
" transform="scale(0.015625)"/>
      </defs>
      <use xlink:href="#ArialMT-67"/>
      <use xlink:href="#ArialMT-61" x="55.615234"/>
      <use xlink:href="#ArialMT-6d" x="111.230469"/>
      <use xlink:href="#ArialMT-6d" x="194.53125"/>
      <use xlink:href="#ArialMT-61" x="277.832031"/>
     </g>
    </g>
    <g id="line2d_21">
     <path d="M 335.959875 164.893312 
L 344.759875 164.893312 
L 353.559875 164.893312 
" style="fill: none; stroke: #d62728; stroke-width: 1.2; stroke-linecap: round"/>
    </g>
    <g id="text_19">
     <!-- delta -->
     <g style="fill: #262626" transform="translate(360.599875 167.973312) scale(0.088 -0.088)">
      <use xlink:href="#ArialMT-64"/>
      <use xlink:href="#ArialMT-65" x="55.615234"/>
      <use xlink:href="#ArialMT-6c" x="111.230469"/>
      <use xlink:href="#ArialMT-74" x="133.447266"/>
      <use xlink:href="#ArialMT-61" x="161.230469"/>
     </g>
    </g>
    <g id="line2d_22">
     <path d="M 335.959875 177.341187 
L 344.759875 177.341187 
L 353.559875 177.341187 
" style="fill: none; stroke: #9467bd; stroke-width: 1.2; stroke-linecap: round"/>
    </g>
    <g id="text_20">
     <!-- omega -->
     <g style="fill: #262626" transform="translate(360.599875 180.421187) scale(0.088 -0.088)">
      <use xlink:href="#ArialMT-6f"/>
      <use xlink:href="#ArialMT-6d" x="55.615234"/>
      <use xlink:href="#ArialMT-65" x="138.916016"/>
      <use xlink:href="#ArialMT-67" x="194.53125"/>
      <use xlink:href="#ArialMT-61" x="250.146484"/>
     </g>
    </g>
   </g>
  </g>
 </g>
 <defs>
  <clipPath id="p5481de70aa">
   <rect x="40.741" y="20.1945" width="357.12" height="266.112"/>
  </clipPath>
 </defs>
</svg>