<?xml version="1.0" encoding="utf-8" standalone="no"?>
<!DOCTYPE svg PUBLIC "-//W3C//DTD SVG 1.1//EN"
  "http://www.w3.org/Graphics/SVG/1.1/DTD/svg11.dtd">
<svg xmlns:xlink="http://www.w3.org/1999/xlink" width="215.1115pt" height="154.800164pt" viewBox="0 0 215.1115 154.800164" xmlns="http://www.w3.org/2000/svg" version="1.1">
 <metadata>
  <rdf:RDF xmlns:dc="http://purl.org/dc/elements/1.1/" xmlns:cc="http://creativecommons.org/ns#" xmlns:rdf="http://www.w3.org/1999/02/22-rdf-syntax-ns#">
   <cc:Work>
    <dc:type rdf:resource="http://purl.org/dc/dcmitype/StillImage"/>
    <dc:date>2024-10-17T14:55:29.329361</dc:date>
    <dc:format>image/svg+xml</dc:format>
    <dc:creator>
     <cc:Agent>
      <dc:title>Matplotlib v3.9.2, https://matplotlib.org/</dc:title>
     </cc:Agent>
    </dc:creator>
   </cc:Work>
  </rdf:RDF>
 </metadata>
 <defs>
  <style type="text/css">*{stroke-linejoin: round; stroke-linecap: butt}</style>
 </defs>
 <g id="figure_1">
  <g id="patch_1">
   <path d="M 0 154.800164 
L 215.1115 154.800164 
L 215.1115 0 
L 0 0 
z
" style="fill: #ffffff"/>
  </g>
  <g id="axes_1">
   <g id="patch_2">
    <path d="M 40.5115 118.472789 
L 207.9115 118.472789 
L 207.9115 7.592789 
L 40.5115 7.592789 
z
" style="fill: #ffffff"/>
   </g>
   <g id="matplotlib.axis_1">
    <g id="xtick_1">
     <g id="line2d_1">
      <defs>
       <path id="m7311d80ab9" d="M 0 0 
L 0 4.8 
" style="stroke: #262626"/>
      </defs>
      <g>
       <use xlink:href="#m7311d80ab9" x="48.120591" y="118.472789" style="fill: #262626; stroke: #262626"/>
      </g>
     </g>
     <g id="text_1">
      <!-- 0.0 -->
      <g style="fill: #262626" transform="translate(42.004591 133.071664) scale(0.088 -0.088)">
       <defs>
        <path id="ArialMT-30" d="M 266 2259 
Q 266 3072 433 3567 
Q 600 4063 929 4331 
Q 1259 4600 1759 4600 
Q 2128 4600 2406 4451 
Q 2684 4303 2865 4023 
Q 3047 3744 3150 3342 
Q 3253 2941 3253 2259 
Q 3253 1453 3087 958 
Q 2922 463 2592 192 
Q 2263 -78 1759 -78 
Q 1097 -78 719 397 
Q 266 969 266 2259 
z
M 844 2259 
Q 844 1131 1108 757 
Q 1372 384 1759 384 
Q 2147 384 2411 759 
Q 2675 1134 2675 2259 
Q 2675 3391 2411 3762 
Q 2147 4134 1753 4134 
Q 1366 4134 1134 3806 
Q 844 3388 844 2259 
z
" transform="scale(0.015625)"/>
        <path id="ArialMT-2e" d="M 581 0 
L 581 641 
L 1222 641 
L 1222 0 
L 581 0 
z
" transform="scale(0.015625)"/>
       </defs>
       <use xlink:href="#ArialMT-30"/>
       <use xlink:href="#ArialMT-2e" x="55.615234"/>
       <use xlink:href="#ArialMT-30" x="83.398438"/>
      </g>
     </g>
    </g>
    <g id="xtick_2">
     <g id="line2d_2">
      <g>
       <use xlink:href="#m7311d80ab9" x="78.556955" y="118.472789" style="fill: #262626; stroke: #262626"/>
      </g>
     </g>
     <g id="text_2">
      <!-- 0.2 -->
      <g style="fill: #262626" transform="translate(72.440955 133.071664) scale(0.088 -0.088)">
       <defs>
        <path id="ArialMT-32" d="M 3222 541 
L 3222 0 
L 194 0 
Q 188 203 259 391 
Q 375 700 629 1000 
Q 884 1300 1366 1694 
Q 2113 2306 2375 2664 
Q 2638 3022 2638 3341 
Q 2638 3675 2398 3904 
Q 2159 4134 1775 4134 
Q 1369 4134 1125 3890 
Q 881 3647 878 3216 
L 300 3275 
Q 359 3922 746 4261 
Q 1134 4600 1788 4600 
Q 2447 4600 2831 4234 
Q 3216 3869 3216 3328 
Q 3216 3053 3103 2787 
Q 2991 2522 2730 2228 
Q 2469 1934 1863 1422 
Q 1356 997 1212 845 
Q 1069 694 975 541 
L 3222 541 
z
" transform="scale(0.015625)"/>
       </defs>
       <use xlink:href="#ArialMT-30"/>
       <use xlink:href="#ArialMT-2e" x="55.615234"/>
       <use xlink:href="#ArialMT-32" x="83.398438"/>
      </g>
     </g>
    </g>
    <g id="xtick_3">
     <g id="line2d_3">
      <g>
       <use xlink:href="#m7311d80ab9" x="108.993318" y="118.472789" style="fill: #262626; stroke: #262626"/>
      </g>
     </g>
     <g id="text_3">
      <!-- 0.4 -->
      <g style="fill: #262626" transform="translate(102.877318 133.071664) scale(0.088 -0.088)">
       <defs>
        <path id="ArialMT-34" d="M 2069 0 
L 2069 1097 
L 81 1097 
L 81 1613 
L 2172 4581 
L 2631 4581 
L 2631 1613 
L 3250 1613 
L 3250 1097 
L 2631 1097 
L 2631 0 
L 2069 0 
z
M 2069 1613 
L 2069 3678 
L 634 1613 
L 2069 1613 
z
" transform="scale(0.015625)"/>
       </defs>
       <use xlink:href="#ArialMT-30"/>
       <use xlink:href="#ArialMT-2e" x="55.615234"/>
       <use xlink:href="#ArialMT-34" x="83.398438"/>
      </g>
     </g>
    </g>
    <g id="xtick_4">
     <g id="line2d_4">
      <g>
       <use xlink:href="#m7311d80ab9" x="139.429682" y="118.472789" style="fill: #262626; stroke: #262626"/>
      </g>
     </g>
     <g id="text_4">
      <!-- 0.6 -->
      <g style="fill: #262626" transform="translate(133.313682 133.071664) scale(0.088 -0.088)">
       <defs>
        <path id="ArialMT-36" d="M 3184 3459 
L 2625 3416 
Q 2550 3747 2413 3897 
Q 2184 4138 1850 4138 
Q 1581 4138 1378 3988 
Q 1113 3794 959 3422 
Q 806 3050 800 2363 
Q 1003 2672 1297 2822 
Q 1591 2972 1913 2972 
Q 2475 2972 2870 2558 
Q 3266 2144 3266 1488 
Q 3266 1056 3080 686 
Q 2894 316 2569 119 
Q 2244 -78 1831 -78 
Q 1128 -78 684 439 
Q 241 956 241 2144 
Q 241 3472 731 4075 
Q 1159 4600 1884 4600 
Q 2425 4600 2770 4297 
Q 3116 3994 3184 3459 
z
M 888 1484 
Q 888 1194 1011 928 
Q 1134 663 1356 523 
Q 1578 384 1822 384 
Q 2178 384 2434 671 
Q 2691 959 2691 1453 
Q 2691 1928 2437 2201 
Q 2184 2475 1800 2475 
Q 1419 2475 1153 2201 
Q 888 1928 888 1484 
z
" transform="scale(0.015625)"/>
       </defs>
       <use xlink:href="#ArialMT-30"/>
       <use xlink:href="#ArialMT-2e" x="55.615234"/>
       <use xlink:href="#ArialMT-36" x="83.398438"/>
      </g>
     </g>
    </g>
    <g id="xtick_5">
     <g id="line2d_5">
      <g>
       <use xlink:href="#m7311d80ab9" x="169.866045" y="118.472789" style="fill: #262626; stroke: #262626"/>
      </g>
     </g>
     <g id="text_5">
      <!-- 0.8 -->
      <g style="fill: #262626" transform="translate(163.750045 133.071664) scale(0.088 -0.088)">
       <defs>
        <path id="ArialMT-38" d="M 1131 2484 
Q 781 2613 612 2850 
Q 444 3088 444 3419 
Q 444 3919 803 4259 
Q 1163 4600 1759 4600 
Q 2359 4600 2725 4251 
Q 3091 3903 3091 3403 
Q 3091 3084 2923 2848 
Q 2756 2613 2416 2484 
Q 2838 2347 3058 2040 
Q 3278 1734 3278 1309 
Q 3278 722 2862 322 
Q 2447 -78 1769 -78 
Q 1091 -78 675 323 
Q 259 725 259 1325 
Q 259 1772 486 2073 
Q 713 2375 1131 2484 
z
M 1019 3438 
Q 1019 3113 1228 2906 
Q 1438 2700 1772 2700 
Q 2097 2700 2305 2904 
Q 2513 3109 2513 3406 
Q 2513 3716 2298 3927 
Q 2084 4138 1766 4138 
Q 1444 4138 1231 3931 
Q 1019 3725 1019 3438 
z
M 838 1322 
Q 838 1081 952 856 
Q 1066 631 1291 507 
Q 1516 384 1775 384 
Q 2178 384 2440 643 
Q 2703 903 2703 1303 
Q 2703 1709 2433 1975 
Q 2163 2241 1756 2241 
Q 1359 2241 1098 1978 
Q 838 1716 838 1322 
z
" transform="scale(0.015625)"/>
       </defs>
       <use xlink:href="#ArialMT-30"/>
       <use xlink:href="#ArialMT-2e" x="55.615234"/>
       <use xlink:href="#ArialMT-38" x="83.398438"/>
      </g>
     </g>
    </g>
    <g id="xtick_6">
     <g id="line2d_6">
      <g>
       <use xlink:href="#m7311d80ab9" x="200.302409" y="118.472789" style="fill: #262626; stroke: #262626"/>
      </g>
     </g>
     <g id="text_6">
      <!-- 1.0 -->
      <g style="fill: #262626" transform="translate(194.186409 133.071664) scale(0.088 -0.088)">
       <defs>
        <path id="ArialMT-31" d="M 2384 0 
L 1822 0 
L 1822 3584 
Q 1619 3391 1289 3197 
Q 959 3003 697 2906 
L 697 3450 
Q 1169 3672 1522 3987 
Q 1875 4303 2022 4600 
L 2384 4600 
L 2384 0 
z
" transform="scale(0.015625)"/>
       </defs>
       <use xlink:href="#ArialMT-31"/>
       <use xlink:href="#ArialMT-2e" x="55.615234"/>
       <use xlink:href="#ArialMT-30" x="83.398438"/>
      </g>
     </g>
    </g>
    <g id="text_7">
     <!-- $x$ -->
     <g style="fill: #262626" transform="translate(121.3315 145.692164) scale(0.096 -0.096)">
      <defs>
       <path id="DejaVuSans-Oblique-78" d="M 3841 3500 
L 2234 1784 
L 3219 0 
L 2559 0 
L 1819 1388 
L 531 0 
L -166 0 
L 1556 1844 
L 641 3500 
L 1300 3500 
L 1972 2234 
L 3144 3500 
L 3841 3500 
z
" transform="scale(0.015625)"/>
      </defs>
      <use xlink:href="#DejaVuSans-Oblique-78" transform="translate(0 0.3125)"/>
     </g>
    </g>
   </g>
   <g id="matplotlib.axis_2">
    <g id="ytick_1">
     <g id="line2d_7">
      <defs>
       <path id="m03833f64fa" d="M 0 0 
L -4.8 0 
" style="stroke: #262626"/>
      </defs>
      <g>
       <use xlink:href="#m03833f64fa" x="40.5115" y="109.845308" style="fill: #262626; stroke: #262626"/>
      </g>
     </g>
     <g id="text_8">
      <!-- 0.4 -->
      <g style="fill: #262626" transform="translate(19.9795 112.994746) scale(0.088 -0.088)">
       <use xlink:href="#ArialMT-30"/>
       <use xlink:href="#ArialMT-2e" x="55.615234"/>
       <use xlink:href="#ArialMT-34" x="83.398438"/>
      </g>
     </g>
    </g>
    <g id="ytick_2">
     <g id="line2d_8">
      <g>
       <use xlink:href="#m03833f64fa" x="40.5115" y="89.946134" style="fill: #262626; stroke: #262626"/>
      </g>
     </g>
     <g id="text_9">
      <!-- 0.6 -->
      <g style="fill: #262626" transform="translate(19.9795 93.095572) scale(0.088 -0.088)">
       <use xlink:href="#ArialMT-30"/>
       <use xlink:href="#ArialMT-2e" x="55.615234"/>
       <use xlink:href="#ArialMT-36" x="83.398438"/>
      </g>
     </g>
    </g>
    <g id="ytick_3">
     <g id="line2d_9">
      <g>
       <use xlink:href="#m03833f64fa" x="40.5115" y="70.04696" style="fill: #262626; stroke: #262626"/>
      </g>
     </g>
     <g id="text_10">
      <!-- 0.8 -->
      <g style="fill: #262626" transform="translate(19.9795 73.196397) scale(0.088 -0.088)">
       <use xlink:href="#ArialMT-30"/>
       <use xlink:href="#ArialMT-2e" x="55.615234"/>
       <use xlink:href="#ArialMT-38" x="83.398438"/>
      </g>
     </g>
    </g>
    <g id="ytick_4">
     <g id="line2d_10">
      <g>
       <use xlink:href="#m03833f64fa" x="40.5115" y="50.147786" style="fill: #262626; stroke: #262626"/>
      </g>
     </g>
     <g id="text_11">
      <!-- 1.0 -->
      <g style="fill: #262626" transform="translate(19.9795 53.297223) scale(0.088 -0.088)">
       <use xlink:href="#ArialMT-31"/>
       <use xlink:href="#ArialMT-2e" x="55.615234"/>
       <use xlink:href="#ArialMT-30" x="83.398438"/>
      </g>
     </g>
    </g>
    <g id="ytick_5">
     <g id="line2d_11">
      <g>
       <use xlink:href="#m03833f64fa" x="40.5115" y="30.248612" style="fill: #262626; stroke: #262626"/>
      </g>
     </g>
     <g id="text_12">
      <!-- 1.2 -->
      <g style="fill: #262626" transform="translate(19.9795 33.398049) scale(0.088 -0.088)">
       <use xlink:href="#ArialMT-31"/>
       <use xlink:href="#ArialMT-2e" x="55.615234"/>
       <use xlink:href="#ArialMT-32" x="83.398438"/>
      </g>
     </g>
    </g>
    <g id="ytick_6">
     <g id="line2d_12">
      <g>
       <use xlink:href="#m03833f64fa" x="40.5115" y="10.349438" style="fill: #262626; stroke: #262626"/>
      </g>
     </g>
     <g id="text_13">
      <!-- 1.4 -->
      <g style="fill: #262626" transform="translate(19.9795 13.498875) scale(0.088 -0.088)">
       <use xlink:href="#ArialMT-31"/>
       <use xlink:href="#ArialMT-2e" x="55.615234"/>
       <use xlink:href="#ArialMT-34" x="83.398438"/>
      </g>
     </g>
    </g>
    <g id="text_14">
     <!-- $y$ -->
     <g style="fill: #262626" transform="translate(13.9635 65.912789) rotate(-90) scale(0.096 -0.096)">
      <defs>
       <path id="DejaVuSans-Oblique-79" d="M 1588 -325 
Q 1188 -997 936 -1164 
Q 684 -1331 294 -1331 
L -159 -1331 
L -63 -850 
L 269 -850 
Q 509 -850 678 -719 
Q 847 -588 1056 -206 
L 1234 128 
L 459 3500 
L 1069 3500 
L 1650 819 
L 3256 3500 
L 3859 3500 
L 1588 -325 
z
" transform="scale(0.015625)"/>
      </defs>
      <use xlink:href="#DejaVuSans-Oblique-79" transform="translate(0 0.3125)"/>
     </g>
    </g>
   </g>
   <g id="PolyCollection_1">
    <defs>
     <path id="md58af457a1" d="M 48.120591 -138.318041 
L 48.120591 -64.293904 
L 49.657781 -65.388356 
L 51.194971 -66.555333 
L 52.732161 -67.795919 
L 54.269351 -69.110692 
L 55.806541 -70.499656 
L 57.343731 -71.962179 
L 58.880921 -73.496922 
L 60.418112 -75.101774 
L 61.955302 -76.773785 
L 63.492492 -78.509103 
L 65.029682 -80.302903 
L 66.566872 -82.149325 
L 68.104062 -84.041391 
L 69.641252 -85.970929 
L 71.178442 -87.928465 
L 72.715632 -89.903103 
L 74.252822 -91.882367 
L 75.790012 -93.851985 
L 77.327202 -95.795623 
L 78.864393 -97.694528 
L 80.401583 -99.527089 
L 81.938773 -101.268319 
L 83.475963 -102.889339 
L 85.013153 -104.357018 
L 86.550343 -105.634113 
L 88.087533 -106.680462 
L 89.624723 -107.455849 
L 91.161913 -107.924885 
L 92.699103 -108.063166 
L 94.236293 -107.862601 
L 95.773483 -107.333352 
L 97.310674 -106.501298 
L 98.847864 -105.40242 
L 100.385054 -104.076717 
L 101.922244 -102.56359 
L 103.459434 -100.899237 
L 104.996624 -99.115642 
L 106.533814 -97.240526 
L 108.071004 -95.297741 
L 109.608194 -93.30779 
L 111.145384 -91.288331 
L 112.682574 -89.254606 
L 114.219764 -87.21978 
L 115.756955 -85.195201 
L 117.294145 -83.190608 
L 118.831335 -81.214285 
L 120.368525 -79.273188 
L 121.905715 -77.37305 
L 123.442905 -75.518471 
L 124.980095 -73.71301 
L 126.517285 -71.95926 
L 128.054475 -70.258943 
L 129.591665 -68.612985 
L 131.128855 -67.021615 
L 132.666045 -65.484456 
L 134.203236 -64.000619 
L 135.740426 -62.568807 
L 137.277616 -61.187412 
L 138.814806 -59.85462 
L 140.351996 -58.568508 
L 141.889186 -57.327143 
L 143.426376 -56.128675 
L 144.963566 -54.971428 
L 146.500756 -53.853974 
L 148.037946 -52.775213 
L 149.575136 -51.734428 
L 151.112326 -50.731341 
L 152.649517 -49.766152 
L 154.186707 -48.839561 
L 155.723897 -47.952789 
L 157.261087 -47.107568 
L 158.798277 -46.306135 
L 160.335467 -45.551199 
L 161.872657 -44.845901 
L 163.409847 -44.193752 
L 164.947037 -43.598573 
L 166.484227 -43.064401 
L 168.021417 -42.5954 
L 169.558607 -42.195747 
L 171.095798 -41.869512 
L 172.632988 -41.620517 
L 174.170178 -41.452186 
L 175.707368 -41.367375 
L 177.244558 -41.368183 
L 178.781748 -41.455735 
L 180.318938 -41.629936 
L 181.856128 -41.889183 
L 183.393318 -42.230029 
L 184.930508 -42.646771 
L 186.467698 -43.130971 
L 188.004888 -43.670883 
L 189.542079 -44.25081 
L 191.079269 -44.850458 
L 192.616459 -45.444441 
L 194.153649 -46.002272 
L 195.690839 -46.489362 
L 197.228029 -46.869688 
L 198.765219 -47.110476 
L 200.302409 -47.188279 
L 200.302409 -74.8653 
L 200.302409 -74.8653 
L 198.765219 -75.041627 
L 197.228029 -75.547946 
L 195.690839 -76.359343 
L 194.153649 -77.440353 
L 192.616459 -78.751089 
L 191.079269 -80.251994 
L 189.542079 -81.906592 
L 188.004888 -83.682587 
L 186.467698 -85.551961 
L 184.930508 -87.490602 
L 183.393318 -89.477782 
L 181.856128 -91.495654 
L 180.318938 -93.528815 
L 178.781748 -95.563962 
L 177.244558 -97.589621 
L 175.707368 -99.595944 
L 174.170178 -101.574547 
L 172.632988 -103.518382 
L 171.095798 -105.421632 
L 169.558607 -107.279617 
L 168.021417 -109.088708 
L 166.484227 -110.846243 
L 164.947037 -112.550442 
L 163.409847 -114.200325 
L 161.872657 -115.795613 
L 160.335467 -117.336647 
L 158.798277 -118.824278 
L 157.261087 -120.259781 
L 155.723897 -121.644742 
L 154.186707 -122.980965 
L 152.649517 -124.270369 
L 151.112326 -125.514888 
L 149.575136 -126.716382 
L 148.037946 -127.876542 
L 146.500756 -128.996816 
L 144.963566 -130.078331 
L 143.426376 -131.121832 
L 141.889186 -132.12763 
L 140.351996 -133.095562 
L 138.814806 -134.024962 
L 137.277616 -134.91465 
L 135.740426 -135.762927 
L 134.203236 -136.567593 
L 132.666045 -137.325972 
L 131.128855 -138.034953 
L 129.591665 -138.691048 
L 128.054475 -139.290456 
L 126.517285 -139.829153 
L 124.980095 -140.30298 
L 123.442905 -140.707757 
L 121.905715 -141.039402 
L 120.368525 -141.294072 
L 118.831335 -141.468306 
L 117.294145 -141.559202 
L 115.756955 -141.564601 
L 114.219764 -141.483299 
L 112.682574 -141.315295 
L 111.145384 -141.062072 
L 109.608194 -140.726933 
L 108.071004 -140.315402 
L 106.533814 -139.835703 
L 104.996624 -139.299325 
L 103.459434 -138.721656 
L 101.922244 -138.122642 
L 100.385054 -137.527292 
L 98.847864 -136.965746 
L 97.310674 -136.472362 
L 95.773483 -136.083194 
L 94.236293 -135.831443 
L 92.699103 -135.741432 
L 91.161913 -135.823021 
L 89.624723 -136.069092 
L 88.087533 -136.457482 
L 86.550343 -136.956295 
L 85.013153 -137.530024 
L 83.475963 -138.144373 
L 81.938773 -138.769058 
L 80.401583 -139.378907 
L 78.864393 -139.953909 
L 77.327202 -140.478745 
L 75.790012 -140.942153 
L 74.252822 -141.336284 
L 72.715632 -141.656136 
L 71.178442 -141.899072 
L 69.641252 -142.064409 
L 68.104062 -142.153085 
L 66.566872 -142.167375 
L 65.029682 -142.110641 
L 63.492492 -141.987127 
L 61.955302 -141.801766 
L 60.418112 -141.560019 
L 58.880921 -141.267718 
L 57.343731 -140.930936 
L 55.806541 -140.555863 
L 54.269351 -140.148693 
L 52.732161 -139.715532 
L 51.194971 -139.262306 
L 49.657781 -138.794689 
L 48.120591 -138.318041 
z
" style="stroke: #ffffff; stroke-opacity: 0.2; stroke-width: 0.8"/>
    </defs>
    <g clip-path="url(#p78ae33bf6d)">
     <use xlink:href="#md58af457a1" x="0" y="154.800164" style="fill: #1f77b4; fill-opacity: 0.2; stroke: #ffffff; stroke-opacity: 0.2; stroke-width: 0.8"/>
    </g>
   </g>
   <g id="PathCollection_1">
    <defs>
     <path id="m6aaab9c805" d="M 0 2.4 
C 0.636487 2.4 1.246992 2.147121 1.697056 1.697056 
C 2.147121 1.246992 2.4 0.636487 2.4 0 
C 2.4 -0.636487 2.147121 -1.246992 1.697056 -1.697056 
C 1.246992 -2.147121 0.636487 -2.4 0 -2.4 
C -0.636487 -2.4 -1.246992 -2.147121 -1.697056 -1.697056 
C -2.147121 -1.246992 -2.4 -0.636487 -2.4 0 
C -2.4 0.636487 -2.147121 1.246992 -1.697056 1.697056 
C -1.246992 2.147121 -0.636487 2.4 0 2.4 
z
" style="stroke: #ff7f0e; stroke-width: 0.8"/>
    </defs>
    <g clip-path="url(#p78ae33bf6d)">
     <use xlink:href="#m6aaab9c805" x="92.592002" y="30.754103" style="fill: #ff7f0e; stroke: #ff7f0e; stroke-width: 0.8"/>
     <use xlink:href="#m6aaab9c805" x="200.29898" y="95.916387" style="fill: #ff7f0e; stroke: #ff7f0e; stroke-width: 0.8"/>
    </g>
   </g>
   <g id="line2d_13">
    <path d="M 48.120591 53.494191 
L 49.657781 52.708642 
L 51.194971 51.891345 
L 52.732161 51.044438 
L 54.269351 50.170472 
L 55.806541 49.272405 
L 57.343731 48.353606 
L 58.880921 47.417844 
L 60.418112 46.469268 
L 61.955302 45.512388 
L 63.492492 44.552049 
L 65.029682 43.593392 
L 66.566872 42.641814 
L 68.104062 41.702926 
L 69.641252 40.782495 
L 71.178442 39.886396 
L 72.715632 39.020544 
L 74.252822 38.190839 
L 75.790012 37.403095 
L 77.327202 36.66298 
L 78.864393 35.975946 
L 80.401583 35.347166 
L 81.938773 34.781476 
L 83.475963 34.283308 
L 85.013153 33.856643 
L 86.550343 33.50496 
L 88.087533 33.231192 
L 89.624723 33.037694 
L 91.161913 32.926211 
L 92.699103 32.897865 
L 94.236293 32.953142 
L 95.773483 33.091891 
L 97.310674 33.313334 
L 98.847864 33.616081 
L 100.385054 33.99816 
L 101.922244 34.457048 
L 103.459434 34.989718 
L 104.996624 35.592681 
L 106.533814 36.262049 
L 108.071004 36.993592 
L 109.608194 37.782803 
L 111.145384 38.624962 
L 112.682574 39.515213 
L 114.219764 40.448625 
L 115.756955 41.420263 
L 117.294145 42.425259 
L 118.831335 43.458869 
L 120.368525 44.516534 
L 121.905715 45.593938 
L 123.442905 46.68705 
L 124.980095 47.792169 
L 126.517285 48.905958 
L 128.054475 50.025465 
L 129.591665 51.148148 
L 131.128855 52.27188 
L 132.666045 53.39495 
L 134.203236 54.516058 
L 135.740426 55.634297 
L 137.277616 56.749133 
L 138.814806 57.860373 
L 140.351996 58.968129 
L 141.889186 60.072777 
L 143.426376 61.17491 
L 144.963566 62.275284 
L 146.500756 63.374769 
L 148.037946 64.474287 
L 149.575136 65.574759 
L 151.112326 66.677049 
L 152.649517 67.781904 
L 154.186707 68.889901 
L 155.723897 70.001399 
L 157.261087 71.11649 
L 158.798277 72.234957 
L 160.335467 73.356241 
L 161.872657 74.479407 
L 163.409847 75.603126 
L 164.947037 76.725656 
L 166.484227 77.844842 
L 168.021417 78.95811 
L 169.558607 80.062482 
L 171.095798 81.154592 
L 172.632988 82.230715 
L 174.170178 83.286798 
L 175.707368 84.318505 
L 177.244558 85.321262 
L 178.781748 86.290316 
L 180.318938 87.220789 
L 181.856128 88.107745 
L 183.393318 88.946259 
L 184.930508 89.731478 
L 186.467698 90.458698 
L 188.004888 91.123429 
L 189.542079 91.721463 
L 191.079269 92.248938 
L 192.616459 92.702399 
L 194.153649 93.078851 
L 195.690839 93.375811 
L 197.228029 93.591347 
L 198.765219 93.724113 
L 200.302409 93.773374 
" clip-path="url(#p78ae33bf6d)" style="fill: none; stroke: #1f77b4; stroke-width: 1.2; stroke-linecap: round"/>
   </g>
   <g id="patch_3">
    <path d="M 40.5115 109.845308 
L 40.5115 10.349438 
" style="fill: none; stroke: #262626; stroke-linejoin: miter; stroke-linecap: square"/>
   </g>
   <g id="patch_4">
    <path d="M 48.120591 118.472789 
L 200.302409 118.472789 
" style="fill: none; stroke: #262626; stroke-linejoin: miter; stroke-linecap: square"/>
   </g>
  </g>
 </g>
 <defs>
  <clipPath id="p78ae33bf6d">
   <rect x="40.5115" y="7.592789" width="167.4" height="110.88"/>
  </clipPath>
 </defs>
</svg>