<?xml version="1.0" encoding="utf-8" standalone="no"?>
<!DOCTYPE svg PUBLIC "-//W3C//DTD SVG 1.1//EN"
  "http://www.w3.org/Graphics/SVG/1.1/DTD/svg11.dtd">
<svg xmlns:xlink="http://www.w3.org/1999/xlink" width="220.25125pt" height="167.278875pt" viewBox="0 0 220.25125 167.278875" xmlns="http://www.w3.org/2000/svg" version="1.1">
 <metadata>
  <rdf:RDF xmlns:dc="http://purl.org/dc/elements/1.1/" xmlns:cc="http://creativecommons.org/ns#" xmlns:rdf="http://www.w3.org/1999/02/22-rdf-syntax-ns#">
   <cc:Work>
    <dc:type rdf:resource="http://purl.org/dc/dcmitype/StillImage"/>
    <dc:date>2024-10-17T14:55:41.703968</dc:date>
    <dc:format>image/svg+xml</dc:format>
    <dc:creator>
     <cc:Agent>
      <dc:title>Matplotlib v3.9.2, https://matplotlib.org/</dc:title>
     </cc:Agent>
    </dc:creator>
   </cc:Work>
  </rdf:RDF>
 </metadata>
 <defs>
  <style type="text/css">*{stroke-linejoin: round; stroke-linecap: butt}</style>
 </defs>
 <g id="figure_1">
  <g id="patch_1">
   <path d="M 0 167.278875 
L 220.25125 167.278875 
L 220.25125 0 
L 0 0 
z
" style="fill: #ffffff"/>
  </g>
  <g id="axes_1">
   <g id="patch_2">
    <path d="M 45.65125 130.9515 
L 213.05125 130.9515 
L 213.05125 20.0715 
L 45.65125 20.0715 
z
" style="fill: #ffffff"/>
   </g>
   <g id="matplotlib.axis_1">
    <g id="xtick_1">
     <g id="line2d_1">
      <defs>
       <path id="m3ac38eff5c" d="M 0 0 
L 0 4.8 
" style="stroke: #262626"/>
      </defs>
      <g>
       <use xlink:href="#m3ac38eff5c" x="53.260341" y="130.9515" style="fill: #262626; stroke: #262626"/>
      </g>
     </g>
     <g id="text_1">
      <!-- 0.0 -->
      <g style="fill: #262626" transform="translate(47.144341 145.550375) scale(0.088 -0.088)">
       <defs>
        <path id="ArialMT-30" d="M 266 2259 
Q 266 3072 433 3567 
Q 600 4063 929 4331 
Q 1259 4600 1759 4600 
Q 2128 4600 2406 4451 
Q 2684 4303 2865 4023 
Q 3047 3744 3150 3342 
Q 3253 2941 3253 2259 
Q 3253 1453 3087 958 
Q 2922 463 2592 192 
Q 2263 -78 1759 -78 
Q 1097 -78 719 397 
Q 266 969 266 2259 
z
M 844 2259 
Q 844 1131 1108 757 
Q 1372 384 1759 384 
Q 2147 384 2411 759 
Q 2675 1134 2675 2259 
Q 2675 3391 2411 3762 
Q 2147 4134 1753 4134 
Q 1366 4134 1134 3806 
Q 844 3388 844 2259 
z
" transform="scale(0.015625)"/>
        <path id="ArialMT-2e" d="M 581 0 
L 581 641 
L 1222 641 
L 1222 0 
L 581 0 
z
" transform="scale(0.015625)"/>
       </defs>
       <use xlink:href="#ArialMT-30"/>
       <use xlink:href="#ArialMT-2e" x="55.615234"/>
       <use xlink:href="#ArialMT-30" x="83.398438"/>
      </g>
     </g>
    </g>
    <g id="xtick_2">
     <g id="line2d_2">
      <g>
       <use xlink:href="#m3ac38eff5c" x="83.696705" y="130.9515" style="fill: #262626; stroke: #262626"/>
      </g>
     </g>
     <g id="text_2">
      <!-- 0.2 -->
      <g style="fill: #262626" transform="translate(77.580705 145.550375) scale(0.088 -0.088)">
       <defs>
        <path id="ArialMT-32" d="M 3222 541 
L 3222 0 
L 194 0 
Q 188 203 259 391 
Q 375 700 629 1000 
Q 884 1300 1366 1694 
Q 2113 2306 2375 2664 
Q 2638 3022 2638 3341 
Q 2638 3675 2398 3904 
Q 2159 4134 1775 4134 
Q 1369 4134 1125 3890 
Q 881 3647 878 3216 
L 300 3275 
Q 359 3922 746 4261 
Q 1134 4600 1788 4600 
Q 2447 4600 2831 4234 
Q 3216 3869 3216 3328 
Q 3216 3053 3103 2787 
Q 2991 2522 2730 2228 
Q 2469 1934 1863 1422 
Q 1356 997 1212 845 
Q 1069 694 975 541 
L 3222 541 
z
" transform="scale(0.015625)"/>
       </defs>
       <use xlink:href="#ArialMT-30"/>
       <use xlink:href="#ArialMT-2e" x="55.615234"/>
       <use xlink:href="#ArialMT-32" x="83.398438"/>
      </g>
     </g>
    </g>
    <g id="xtick_3">
     <g id="line2d_3">
      <g>
       <use xlink:href="#m3ac38eff5c" x="114.133068" y="130.9515" style="fill: #262626; stroke: #262626"/>
      </g>
     </g>
     <g id="text_3">
      <!-- 0.4 -->
      <g style="fill: #262626" transform="translate(108.017068 145.550375) scale(0.088 -0.088)">
       <defs>
        <path id="ArialMT-34" d="M 2069 0 
L 2069 1097 
L 81 1097 
L 81 1613 
L 2172 4581 
L 2631 4581 
L 2631 1613 
L 3250 1613 
L 3250 1097 
L 2631 1097 
L 2631 0 
L 2069 0 
z
M 2069 1613 
L 2069 3678 
L 634 1613 
L 2069 1613 
z
" transform="scale(0.015625)"/>
       </defs>
       <use xlink:href="#ArialMT-30"/>
       <use xlink:href="#ArialMT-2e" x="55.615234"/>
       <use xlink:href="#ArialMT-34" x="83.398438"/>
      </g>
     </g>
    </g>
    <g id="xtick_4">
     <g id="line2d_4">
      <g>
       <use xlink:href="#m3ac38eff5c" x="144.569432" y="130.9515" style="fill: #262626; stroke: #262626"/>
      </g>
     </g>
     <g id="text_4">
      <!-- 0.6 -->
      <g style="fill: #262626" transform="translate(138.453432 145.550375) scale(0.088 -0.088)">
       <defs>
        <path id="ArialMT-36" d="M 3184 3459 
L 2625 3416 
Q 2550 3747 2413 3897 
Q 2184 4138 1850 4138 
Q 1581 4138 1378 3988 
Q 1113 3794 959 3422 
Q 806 3050 800 2363 
Q 1003 2672 1297 2822 
Q 1591 2972 1913 2972 
Q 2475 2972 2870 2558 
Q 3266 2144 3266 1488 
Q 3266 1056 3080 686 
Q 2894 316 2569 119 
Q 2244 -78 1831 -78 
Q 1128 -78 684 439 
Q 241 956 241 2144 
Q 241 3472 731 4075 
Q 1159 4600 1884 4600 
Q 2425 4600 2770 4297 
Q 3116 3994 3184 3459 
z
M 888 1484 
Q 888 1194 1011 928 
Q 1134 663 1356 523 
Q 1578 384 1822 384 
Q 2178 384 2434 671 
Q 2691 959 2691 1453 
Q 2691 1928 2437 2201 
Q 2184 2475 1800 2475 
Q 1419 2475 1153 2201 
Q 888 1928 888 1484 
z
" transform="scale(0.015625)"/>
       </defs>
       <use xlink:href="#ArialMT-30"/>
       <use xlink:href="#ArialMT-2e" x="55.615234"/>
       <use xlink:href="#ArialMT-36" x="83.398438"/>
      </g>
     </g>
    </g>
    <g id="xtick_5">
     <g id="line2d_5">
      <g>
       <use xlink:href="#m3ac38eff5c" x="175.005795" y="130.9515" style="fill: #262626; stroke: #262626"/>
      </g>
     </g>
     <g id="text_5">
      <!-- 0.8 -->
      <g style="fill: #262626" transform="translate(168.889795 145.550375) scale(0.088 -0.088)">
       <defs>
        <path id="ArialMT-38" d="M 1131 2484 
Q 781 2613 612 2850 
Q 444 3088 444 3419 
Q 444 3919 803 4259 
Q 1163 4600 1759 4600 
Q 2359 4600 2725 4251 
Q 3091 3903 3091 3403 
Q 3091 3084 2923 2848 
Q 2756 2613 2416 2484 
Q 2838 2347 3058 2040 
Q 3278 1734 3278 1309 
Q 3278 722 2862 322 
Q 2447 -78 1769 -78 
Q 1091 -78 675 323 
Q 259 725 259 1325 
Q 259 1772 486 2073 
Q 713 2375 1131 2484 
z
M 1019 3438 
Q 1019 3113 1228 2906 
Q 1438 2700 1772 2700 
Q 2097 2700 2305 2904 
Q 2513 3109 2513 3406 
Q 2513 3716 2298 3927 
Q 2084 4138 1766 4138 
Q 1444 4138 1231 3931 
Q 1019 3725 1019 3438 
z
M 838 1322 
Q 838 1081 952 856 
Q 1066 631 1291 507 
Q 1516 384 1775 384 
Q 2178 384 2440 643 
Q 2703 903 2703 1303 
Q 2703 1709 2433 1975 
Q 2163 2241 1756 2241 
Q 1359 2241 1098 1978 
Q 838 1716 838 1322 
z
" transform="scale(0.015625)"/>
       </defs>
       <use xlink:href="#ArialMT-30"/>
       <use xlink:href="#ArialMT-2e" x="55.615234"/>
       <use xlink:href="#ArialMT-38" x="83.398438"/>
      </g>
     </g>
    </g>
    <g id="xtick_6">
     <g id="line2d_6">
      <g>
       <use xlink:href="#m3ac38eff5c" x="205.442159" y="130.9515" style="fill: #262626; stroke: #262626"/>
      </g>
     </g>
     <g id="text_6">
      <!-- 1.0 -->
      <g style="fill: #262626" transform="translate(199.326159 145.550375) scale(0.088 -0.088)">
       <defs>
        <path id="ArialMT-31" d="M 2384 0 
L 1822 0 
L 1822 3584 
Q 1619 3391 1289 3197 
Q 959 3003 697 2906 
L 697 3450 
Q 1169 3672 1522 3987 
Q 1875 4303 2022 4600 
L 2384 4600 
L 2384 0 
z
" transform="scale(0.015625)"/>
       </defs>
       <use xlink:href="#ArialMT-31"/>
       <use xlink:href="#ArialMT-2e" x="55.615234"/>
       <use xlink:href="#ArialMT-30" x="83.398438"/>
      </g>
     </g>
    </g>
    <g id="text_7">
     <!-- $x$ -->
     <g style="fill: #262626" transform="translate(126.47125 158.170875) scale(0.096 -0.096)">
      <defs>
       <path id="DejaVuSans-Oblique-78" d="M 3841 3500 
L 2234 1784 
L 3219 0 
L 2559 0 
L 1819 1388 
L 531 0 
L -166 0 
L 1556 1844 
L 641 3500 
L 1300 3500 
L 1972 2234 
L 3144 3500 
L 3841 3500 
z
" transform="scale(0.015625)"/>
      </defs>
      <use xlink:href="#DejaVuSans-Oblique-78" transform="translate(0 0.3125)"/>
     </g>
    </g>
   </g>
   <g id="matplotlib.axis_2">
    <g id="ytick_1">
     <g id="line2d_7">
      <defs>
       <path id="m6ac25abdea" d="M 0 0 
L -4.8 0 
" style="stroke: #262626"/>
      </defs>
      <g>
       <use xlink:href="#m6ac25abdea" x="45.65125" y="126.184115" style="fill: #262626; stroke: #262626"/>
      </g>
     </g>
     <g id="text_8">
      <!-- −0.5 -->
      <g style="fill: #262626" transform="translate(19.9795 129.333553) scale(0.088 -0.088)">
       <defs>
        <path id="ArialMT-2212" d="M 3381 1997 
L 356 1997 
L 356 2522 
L 3381 2522 
L 3381 1997 
z
" transform="scale(0.015625)"/>
        <path id="ArialMT-35" d="M 266 1200 
L 856 1250 
Q 922 819 1161 601 
Q 1400 384 1738 384 
Q 2144 384 2425 690 
Q 2706 997 2706 1503 
Q 2706 1984 2436 2262 
Q 2166 2541 1728 2541 
Q 1456 2541 1237 2417 
Q 1019 2294 894 2097 
L 366 2166 
L 809 4519 
L 3088 4519 
L 3088 3981 
L 1259 3981 
L 1013 2750 
Q 1425 3038 1878 3038 
Q 2478 3038 2890 2622 
Q 3303 2206 3303 1553 
Q 3303 931 2941 478 
Q 2500 -78 1738 -78 
Q 1113 -78 717 272 
Q 322 622 266 1200 
z
" transform="scale(0.015625)"/>
       </defs>
       <use xlink:href="#ArialMT-2212"/>
       <use xlink:href="#ArialMT-30" x="58.398438"/>
       <use xlink:href="#ArialMT-2e" x="114.013672"/>
       <use xlink:href="#ArialMT-35" x="141.796875"/>
      </g>
     </g>
    </g>
    <g id="ytick_2">
     <g id="line2d_8">
      <g>
       <use xlink:href="#m6ac25abdea" x="45.65125" y="105.159548" style="fill: #262626; stroke: #262626"/>
      </g>
     </g>
     <g id="text_9">
      <!-- 0.0 -->
      <g style="fill: #262626" transform="translate(25.11925 108.308986) scale(0.088 -0.088)">
       <use xlink:href="#ArialMT-30"/>
       <use xlink:href="#ArialMT-2e" x="55.615234"/>
       <use xlink:href="#ArialMT-30" x="83.398438"/>
      </g>
     </g>
    </g>
    <g id="ytick_3">
     <g id="line2d_9">
      <g>
       <use xlink:href="#m6ac25abdea" x="45.65125" y="84.134981" style="fill: #262626; stroke: #262626"/>
      </g>
     </g>
     <g id="text_10">
      <!-- 0.5 -->
      <g style="fill: #262626" transform="translate(25.11925 87.284419) scale(0.088 -0.088)">
       <use xlink:href="#ArialMT-30"/>
       <use xlink:href="#ArialMT-2e" x="55.615234"/>
       <use xlink:href="#ArialMT-35" x="83.398438"/>
      </g>
     </g>
    </g>
    <g id="ytick_4">
     <g id="line2d_10">
      <g>
       <use xlink:href="#m6ac25abdea" x="45.65125" y="63.110414" style="fill: #262626; stroke: #262626"/>
      </g>
     </g>
     <g id="text_11">
      <!-- 1.0 -->
      <g style="fill: #262626" transform="translate(25.11925 66.259852) scale(0.088 -0.088)">
       <use xlink:href="#ArialMT-31"/>
       <use xlink:href="#ArialMT-2e" x="55.615234"/>
       <use xlink:href="#ArialMT-30" x="83.398438"/>
      </g>
     </g>
    </g>
    <g id="ytick_5">
     <g id="line2d_11">
      <g>
       <use xlink:href="#m6ac25abdea" x="45.65125" y="42.085847" style="fill: #262626; stroke: #262626"/>
      </g>
     </g>
     <g id="text_12">
      <!-- 1.5 -->
      <g style="fill: #262626" transform="translate(25.11925 45.235285) scale(0.088 -0.088)">
       <use xlink:href="#ArialMT-31"/>
       <use xlink:href="#ArialMT-2e" x="55.615234"/>
       <use xlink:href="#ArialMT-35" x="83.398438"/>
      </g>
     </g>
    </g>
    <g id="ytick_6">
     <g id="line2d_12">
      <g>
       <use xlink:href="#m6ac25abdea" x="45.65125" y="21.06128" style="fill: #262626; stroke: #262626"/>
      </g>
     </g>
     <g id="text_13">
      <!-- 2.0 -->
      <g style="fill: #262626" transform="translate(25.11925 24.210718) scale(0.088 -0.088)">
       <use xlink:href="#ArialMT-32"/>
       <use xlink:href="#ArialMT-2e" x="55.615234"/>
       <use xlink:href="#ArialMT-30" x="83.398438"/>
      </g>
     </g>
    </g>
    <g id="text_14">
     <!-- $y$ -->
     <g style="fill: #262626" transform="translate(13.9635 78.3915) rotate(-90) scale(0.096 -0.096)">
      <defs>
       <path id="DejaVuSans-Oblique-79" d="M 1588 -325 
Q 1188 -997 936 -1164 
Q 684 -1331 294 -1331 
L -159 -1331 
L -63 -850 
L 269 -850 
Q 509 -850 678 -719 
Q 847 -588 1056 -206 
L 1234 128 
L 459 3500 
L 1069 3500 
L 1650 819 
L 3256 3500 
L 3859 3500 
L 1588 -325 
z
" transform="scale(0.015625)"/>
      </defs>
      <use xlink:href="#DejaVuSans-Oblique-79" transform="translate(0 0.3125)"/>
     </g>
    </g>
   </g>
   <g id="PolyCollection_1">
    <defs>
     <path id="maa814df153" d="M 53.260341 -68.150597 
L 53.260341 -56.305117 
L 54.797531 -56.602817 
L 56.334721 -56.807256 
L 57.871911 -57.023052 
L 59.409101 -57.330026 
L 60.946291 -57.779389 
L 62.483481 -58.398647 
L 64.020671 -59.197788 
L 65.557862 -60.174338 
L 67.095052 -61.317268 
L 68.632242 -62.610315 
L 70.169432 -64.035223 
L 71.706622 -65.575075 
L 73.243812 -67.217405 
L 74.781002 -68.956365 
L 76.318192 -70.793178 
L 77.855382 -72.734687 
L 79.392572 -74.790536 
L 80.929762 -76.969969 
L 82.466952 -79.279042 
L 84.004143 -81.718627 
L 85.541333 -84.283215 
L 87.078523 -86.960383 
L 88.615713 -89.73077 
L 90.152903 -92.568508 
L 91.690093 -95.442103 
L 93.227283 -98.315826 
L 94.764473 -101.151635 
L 96.301663 -103.911494 
L 97.838853 -106.559736 
L 99.376043 -109.064906 
L 100.913233 -111.400528 
L 102.450424 -113.544632 
L 103.987614 -115.478293 
L 105.524804 -117.183797 
L 107.061994 -118.642955 
L 108.599184 -119.835904 
L 110.136374 -120.740479 
L 111.673564 -121.332087 
L 113.210754 -121.584032 
L 114.747944 -121.468205 
L 116.285134 -120.956187 
L 117.822324 -120.020803 
L 119.359514 -118.638233 
L 120.896705 -116.790675 
L 122.433895 -114.469355 
L 123.971085 -111.677344 
L 125.508275 -108.431482 
L 127.045465 -104.762824 
L 128.582655 -100.715583 
L 130.119845 -96.345047 
L 131.657035 -91.715149 
L 133.194225 -86.896201 
L 134.731415 -81.962983 
L 136.268605 -76.993188 
L 137.805795 -72.066088 
L 139.342986 -67.261318 
L 140.880176 -62.657702 
L 142.417366 -58.332086 
L 143.954556 -54.358166 
L 145.491746 -50.805358 
L 147.028936 -47.73774 
L 148.566126 -45.213134 
L 150.103316 -43.282363 
L 151.640506 -41.988691 
L 153.177696 -41.367375 
L 154.714886 -41.445188 
L 156.252076 -42.239717 
L 157.789267 -43.758339 
L 159.326457 -45.996889 
L 160.863647 -48.938239 
L 162.400837 -52.551078 
L 163.938027 -56.789166 
L 165.475217 -61.591205 
L 167.012407 -66.881364 
L 168.549597 -72.570411 
L 170.086787 -78.557343 
L 171.623977 -84.731434 
L 173.161167 -90.974583 
L 174.698357 -97.163905 
L 176.235548 -103.174467 
L 177.772738 -108.882131 
L 179.309928 -114.166418 
L 180.847118 -118.91334 
L 182.384308 -123.018111 
L 183.921498 -126.387658 
L 185.458688 -128.942806 
L 186.995878 -130.620052 
L 188.533068 -131.372823 
L 190.070258 -131.172153 
L 191.607448 -130.006726 
L 193.144638 -127.882255 
L 194.681829 -124.820161 
L 196.219019 -120.855503 
L 197.756209 -116.034117 
L 199.293399 -110.409001 
L 200.830589 -104.036263 
L 202.367779 -96.971594 
L 203.904969 -89.269189 
L 205.442159 -80.985304 
L 205.442159 -92.664634 
L 205.442159 -92.664634 
L 203.904969 -100.354251 
L 202.367779 -107.762813 
L 200.830589 -114.734835 
L 199.293399 -121.127256 
L 197.756209 -126.817216 
L 196.219019 -131.7049 
L 194.681829 -135.713531 
L 193.144638 -138.788326 
L 191.607448 -140.895306 
L 190.070258 -142.02019 
L 188.533068 -142.167375 
L 186.995878 -141.358896 
L 185.458688 -139.633321 
L 183.921498 -137.044545 
L 182.384308 -133.660471 
L 180.847118 -129.561576 
L 179.309928 -124.839362 
L 177.772738 -119.594664 
L 176.235548 -113.935832 
L 174.698357 -107.97677 
L 173.161167 -101.834862 
L 171.623977 -95.62884 
L 170.086787 -89.476632 
L 168.549597 -83.493268 
L 167.012407 -77.788882 
L 165.475217 -72.466856 
L 163.938027 -67.62211 
L 162.400837 -63.339541 
L 160.863647 -59.692549 
L 159.326457 -56.741626 
L 157.789267 -54.532974 
L 156.252076 -53.097184 
L 154.714886 -52.448131 
L 153.177696 -52.582312 
L 151.640506 -53.478878 
L 150.103316 -55.100522 
L 148.566126 -57.395161 
L 147.028936 -60.298234 
L 145.491746 -63.735341 
L 143.954556 -67.624978 
L 142.417366 -71.881222 
L 140.880176 -76.41627 
L 139.342986 -81.14279 
L 137.805795 -85.976072 
L 136.268605 -90.835943 
L 134.731415 -95.648424 
L 133.194225 -100.34708 
L 131.657035 -104.873982 
L 130.119845 -109.180189 
L 128.582655 -113.225622 
L 127.045465 -116.9782 
L 125.508275 -120.412252 
L 123.971085 -123.506402 
L 122.433895 -126.241466 
L 120.896705 -128.599076 
L 119.359514 -130.561546 
L 117.822324 -132.112972 
L 116.285134 -133.241064 
L 114.747944 -133.939006 
L 113.210754 -134.206876 
L 111.673564 -134.052446 
L 110.136374 -133.491397 
L 108.599184 -132.547088 
L 107.061994 -131.249941 
L 105.524804 -129.636517 
L 103.987614 -127.748218 
L 102.450424 -125.629573 
L 100.913233 -123.326055 
L 99.376043 -120.881521 
L 97.838853 -118.335597 
L 96.301663 -115.72157 
L 94.764473 -113.065345 
L 93.227283 -110.385767 
L 91.690093 -107.696095 
L 90.152903 -105.006084 
L 88.615713 -102.324112 
L 87.078523 -99.658957 
L 85.541333 -97.021124 
L 84.004143 -94.423696 
L 82.466952 -91.882787 
L 80.929762 -89.417577 
L 79.392572 -87.049859 
L 77.855382 -84.802966 
L 76.318192 -82.699895 
L 74.781002 -80.760683 
L 73.243812 -78.99936 
L 71.706622 -77.421316 
L 70.169432 -76.022034 
L 68.632242 -74.787742 
L 67.095052 -73.697785 
L 65.557862 -72.727948 
L 64.020671 -71.854007 
L 62.483481 -71.055189 
L 60.946291 -70.317718 
L 59.409101 -69.638949 
L 57.871911 -69.03265 
L 56.334721 -68.53541 
L 54.797531 -68.211765 
L 53.260341 -68.150597 
z
" style="stroke: #ffffff; stroke-opacity: 0.2; stroke-width: 0.8"/>
    </defs>
    <g clip-path="url(#p576feadd49)">
     <use xlink:href="#maa814df153" x="0" y="167.278875" style="fill: #1f77b4; fill-opacity: 0.2; stroke: #ffffff; stroke-opacity: 0.2; stroke-width: 0.8"/>
    </g>
   </g>
   <g id="PathCollection_1">
    <defs>
     <path id="m7a854a95f3" d="M 0 2.4 
C 0.636487 2.4 1.246992 2.147121 1.697056 1.697056 
C 2.147121 1.246992 2.4 0.636487 2.4 0 
C 2.4 -0.636487 2.147121 -1.246992 1.697056 -1.697056 
C 1.246992 -2.147121 0.636487 -2.4 0 -2.4 
C -0.636487 -2.4 -1.246992 -2.147121 -1.697056 -1.697056 
C -2.147121 -1.246992 -2.4 -0.636487 -2.4 0 
C -2.4 0.636487 -2.147121 1.246992 -1.697056 1.697056 
C -1.246992 2.147121 -0.636487 2.4 0 2.4 
z
" style="stroke: #ff7f0e; stroke-width: 0.8"/>
    </defs>
    <g clip-path="url(#p576feadd49)">
     <use xlink:href="#m7a854a95f3" x="97.731752" y="54.914219" style="fill: #ff7f0e; stroke: #ff7f0e; stroke-width: 0.8"/>
     <use xlink:href="#m7a854a95f3" x="205.43873" y="82.453227" style="fill: #ff7f0e; stroke: #ff7f0e; stroke-width: 0.8"/>
     <use xlink:href="#m7a854a95f3" x="151.585239" y="118.129345" style="fill: #ff7f0e; stroke: #ff7f0e; stroke-width: 0.8"/>
     <use xlink:href="#m7a854a95f3" x="53.260345" y="105.031024" style="fill: #ff7f0e; stroke: #ff7f0e; stroke-width: 0.8"/>
     <use xlink:href="#m7a854a95f3" x="180.650712" y="41.488131" style="fill: #ff7f0e; stroke: #ff7f0e; stroke-width: 0.8"/>
     <use xlink:href="#m7a854a95f3" x="122.724389" y="47.30915" style="fill: #ff7f0e; stroke: #ff7f0e; stroke-width: 0.8"/>
     <use xlink:href="#m7a854a95f3" x="73.286246" y="94.217667" style="fill: #ff7f0e; stroke: #ff7f0e; stroke-width: 0.8"/>
     <use xlink:href="#m7a854a95f3" x="166.332785" y="100.88963" style="fill: #ff7f0e; stroke: #ff7f0e; stroke-width: 0.8"/>
     <use xlink:href="#m7a854a95f3" x="193.42182" y="32.475578" style="fill: #ff7f0e; stroke: #ff7f0e; stroke-width: 0.8"/>
    </g>
   </g>
   <g id="line2d_13">
    <path d="M 53.260341 105.051018 
L 54.797531 104.871584 
L 56.334721 104.607542 
L 57.871911 104.251024 
L 59.409101 103.794387 
L 60.946291 103.230322 
L 62.483481 102.551957 
L 64.020671 101.752978 
L 65.557862 100.827732 
L 67.095052 99.771348 
L 68.632242 98.579846 
L 70.169432 97.250246 
L 71.706622 95.780679 
L 73.243812 94.170492 
L 74.781002 92.420351 
L 76.318192 90.532338 
L 77.855382 88.510049 
L 79.392572 86.358677 
L 80.929762 84.085102 
L 82.466952 81.69796 
L 84.004143 79.207713 
L 85.541333 76.626705 
L 87.078523 73.969205 
L 88.615713 71.251434 
L 90.152903 68.491579 
L 91.690093 65.709776 
L 93.227283 62.928078 
L 94.764473 60.170385 
L 96.301663 57.462343 
L 97.838853 54.831208 
L 99.376043 52.305662 
L 100.913233 49.915583 
L 102.450424 47.691773 
L 103.987614 45.66562 
L 105.524804 43.868718 
L 107.061994 42.332427 
L 108.599184 41.087379 
L 110.136374 40.162937 
L 111.673564 39.586609 
L 113.210754 39.383421 
L 114.747944 39.575269 
L 116.285134 40.18025 
L 117.822324 41.211988 
L 119.359514 42.678986 
L 120.896705 44.583999 
L 122.433895 46.923465 
L 123.971085 49.687002 
L 125.508275 52.857008 
L 127.045465 56.408363 
L 128.582655 60.308273 
L 130.119845 64.516257 
L 131.657035 68.984309 
L 133.194225 73.657235 
L 134.731415 78.473172 
L 136.268605 83.36431 
L 137.805795 88.257795 
L 139.342986 93.076821 
L 140.880176 97.741889 
L 142.417366 102.172221 
L 143.954556 106.287303 
L 145.491746 110.008525 
L 147.028936 113.260888 
L 148.566126 115.974727 
L 150.103316 118.087432 
L 151.640506 119.545091 
L 153.177696 120.304032 
L 154.714886 120.332216 
L 156.252076 119.610425 
L 157.789267 118.133219 
L 159.326457 115.909618 
L 160.863647 112.963481 
L 162.400837 109.333565 
L 163.938027 105.073237 
L 165.475217 100.249845 
L 167.012407 94.943752 
L 168.549597 89.247036 
L 170.086787 83.261887 
L 171.623977 77.098738 
L 173.161167 70.874152 
L 174.698357 64.708538 
L 176.235548 58.723726 
L 177.772738 53.040478 
L 179.309928 47.775985 
L 180.847118 43.041417 
L 182.384308 38.939584 
L 183.921498 35.562774 
L 185.458688 32.990812 
L 186.995878 31.289401 
L 188.533068 30.508776 
L 190.070258 30.682703 
L 191.607448 31.827859 
L 193.144638 33.943584 
L 194.681829 37.012029 
L 196.219019 40.998673 
L 197.756209 45.853208 
L 199.293399 51.510746 
L 200.830589 57.893326 
L 202.367779 64.911672 
L 203.904969 72.467155 
L 205.442159 80.453906 
" clip-path="url(#p576feadd49)" style="fill: none; stroke: #1f77b4; stroke-width: 1.2; stroke-linecap: round"/>
   </g>
   <g id="line2d_14">
    <path d="M 138.119749 130.9515 
L 138.119749 20.0715 
" clip-path="url(#p576feadd49)" style="fill: none; stroke-dasharray: 4.44,1.92; stroke-dashoffset: 0; stroke: #ff0000; stroke-width: 1.2"/>
   </g>
   <g id="patch_3">
    <path d="M 45.65125 126.184115 
L 45.65125 21.06128 
" style="fill: none; stroke: #262626; stroke-linejoin: miter; stroke-linecap: square"/>
   </g>
   <g id="patch_4">
    <path d="M 53.260341 130.9515 
L 205.442159 130.9515 
" style="fill: none; stroke: #262626; stroke-linejoin: miter; stroke-linecap: square"/>
   </g>
   <g id="text_15">
    <!-- $N=9$ -->
    <g style="fill: #262626" transform="translate(116.77525 14.0715) scale(0.096 -0.096)">
     <defs>
      <path id="DejaVuSans-Oblique-4e" d="M 1081 4666 
L 1931 4666 
L 3219 666 
L 4000 4666 
L 4616 4666 
L 3706 0 
L 2853 0 
L 1569 4025 
L 788 0 
L 172 0 
L 1081 4666 
z
" transform="scale(0.015625)"/>
      <path id="DejaVuSans-3d" d="M 678 2906 
L 4684 2906 
L 4684 2381 
L 678 2381 
L 678 2906 
z
M 678 1631 
L 4684 1631 
L 4684 1100 
L 678 1100 
L 678 1631 
z
" transform="scale(0.015625)"/>
      <path id="DejaVuSans-39" d="M 703 97 
L 703 672 
Q 941 559 1184 500 
Q 1428 441 1663 441 
Q 2288 441 2617 861 
Q 2947 1281 2994 2138 
Q 2813 1869 2534 1725 
Q 2256 1581 1919 1581 
Q 1219 1581 811 2004 
Q 403 2428 403 3163 
Q 403 3881 828 4315 
Q 1253 4750 1959 4750 
Q 2769 4750 3195 4129 
Q 3622 3509 3622 2328 
Q 3622 1225 3098 567 
Q 2575 -91 1691 -91 
Q 1453 -91 1209 -44 
Q 966 3 703 97 
z
M 1959 2075 
Q 2384 2075 2632 2365 
Q 2881 2656 2881 3163 
Q 2881 3666 2632 3958 
Q 2384 4250 1959 4250 
Q 1534 4250 1286 3958 
Q 1038 3666 1038 3163 
Q 1038 2656 1286 2365 
Q 1534 2075 1959 2075 
z
" transform="scale(0.015625)"/>
     </defs>
     <use xlink:href="#DejaVuSans-Oblique-4e" transform="translate(0 0.78125)"/>
     <use xlink:href="#DejaVuSans-3d" transform="translate(94.287109 0.78125)"/>
     <use xlink:href="#DejaVuSans-39" transform="translate(197.558594 0.78125)"/>
    </g>
   </g>
  </g>
 </g>
 <defs>
  <clipPath id="p576feadd49">
   <rect x="45.65125" y="20.0715" width="167.4" height="110.88"/>
  </clipPath>
 </defs>
</svg>