<?xml version="1.0" encoding="utf-8" standalone="no"?>
<!DOCTYPE svg PUBLIC "-//W3C//DTD SVG 1.1//EN"
  "http://www.w3.org/Graphics/SVG/1.1/DTD/svg11.dtd">
<svg xmlns:xlink="http://www.w3.org/1999/xlink" width="405.061pt" height="309.639375pt" viewBox="0 0 405.061 309.639375" xmlns="http://www.w3.org/2000/svg" version="1.1">
 <metadata>
  <rdf:RDF xmlns:dc="http://purl.org/dc/elements/1.1/" xmlns:cc="http://creativecommons.org/ns#" xmlns:rdf="http://www.w3.org/1999/02/22-rdf-syntax-ns#">
   <cc:Work>
    <dc:type rdf:resource="http://purl.org/dc/dcmitype/StillImage"/>
    <dc:date>2023-12-08T18:28:55.993473</dc:date>
    <dc:format>image/svg+xml</dc:format>
    <dc:creator>
     <cc:Agent>
      <dc:title>Matplotlib v3.8.0, https://matplotlib.org/</dc:title>
     </cc:Agent>
    </dc:creator>
   </cc:Work>
  </rdf:RDF>
 </metadata>
 <defs>
  <style type="text/css">*{stroke-linejoin: round; stroke-linecap: butt}</style>
 </defs>
 <g id="figure_1">
  <g id="patch_1">
   <path d="M 0 309.639375 
L 405.061 309.639375 
L 405.061 0 
L 0 0 
z
" style="fill: #ffffff"/>
  </g>
  <g id="axes_1">
   <g id="patch_2">
    <path d="M 40.741 273.312 
L 397.861 273.312 
L 397.861 7.2 
L 40.741 7.2 
z
" style="fill: #ffffff"/>
   </g>
   <g id="matplotlib.axis_1">
    <g id="xtick_1">
     <g id="line2d_1">
      <defs>
       <path id="m504b3b78c6" d="M 0 0 
L 0 4.8 
" style="stroke: #262626"/>
      </defs>
      <g>
       <use xlink:href="#m504b3b78c6" x="56.973727" y="273.312" style="fill: #262626; stroke: #262626"/>
      </g>
     </g>
     <g id="text_1">
      <!-- 0 -->
      <g style="fill: #262626" transform="translate(54.526915 287.910875) scale(0.088 -0.088)">
       <defs>
        <path id="ArialMT-30" d="M 266 2259 
Q 266 3072 433 3567 
Q 600 4063 929 4331 
Q 1259 4600 1759 4600 
Q 2128 4600 2406 4451 
Q 2684 4303 2865 4023 
Q 3047 3744 3150 3342 
Q 3253 2941 3253 2259 
Q 3253 1453 3087 958 
Q 2922 463 2592 192 
Q 2263 -78 1759 -78 
Q 1097 -78 719 397 
Q 266 969 266 2259 
z
M 844 2259 
Q 844 1131 1108 757 
Q 1372 384 1759 384 
Q 2147 384 2411 759 
Q 2675 1134 2675 2259 
Q 2675 3391 2411 3762 
Q 2147 4134 1753 4134 
Q 1366 4134 1134 3806 
Q 844 3388 844 2259 
z
" transform="scale(0.015625)"/>
       </defs>
       <use xlink:href="#ArialMT-30"/>
      </g>
     </g>
    </g>
    <g id="xtick_2">
     <g id="line2d_2">
      <g>
       <use xlink:href="#m504b3b78c6" x="121.937134" y="273.312" style="fill: #262626; stroke: #262626"/>
      </g>
     </g>
     <g id="text_2">
      <!-- 5 -->
      <g style="fill: #262626" transform="translate(119.490322 287.910875) scale(0.088 -0.088)">
       <defs>
        <path id="ArialMT-35" d="M 266 1200 
L 856 1250 
Q 922 819 1161 601 
Q 1400 384 1738 384 
Q 2144 384 2425 690 
Q 2706 997 2706 1503 
Q 2706 1984 2436 2262 
Q 2166 2541 1728 2541 
Q 1456 2541 1237 2417 
Q 1019 2294 894 2097 
L 366 2166 
L 809 4519 
L 3088 4519 
L 3088 3981 
L 1259 3981 
L 1013 2750 
Q 1425 3038 1878 3038 
Q 2478 3038 2890 2622 
Q 3303 2206 3303 1553 
Q 3303 931 2941 478 
Q 2500 -78 1738 -78 
Q 1113 -78 717 272 
Q 322 622 266 1200 
z
" transform="scale(0.015625)"/>
       </defs>
       <use xlink:href="#ArialMT-35"/>
      </g>
     </g>
    </g>
    <g id="xtick_3">
     <g id="line2d_3">
      <g>
       <use xlink:href="#m504b3b78c6" x="186.900541" y="273.312" style="fill: #262626; stroke: #262626"/>
      </g>
     </g>
     <g id="text_3">
      <!-- 10 -->
      <g style="fill: #262626" transform="translate(182.006916 287.910875) scale(0.088 -0.088)">
       <defs>
        <path id="ArialMT-31" d="M 2384 0 
L 1822 0 
L 1822 3584 
Q 1619 3391 1289 3197 
Q 959 3003 697 2906 
L 697 3450 
Q 1169 3672 1522 3987 
Q 1875 4303 2022 4600 
L 2384 4600 
L 2384 0 
z
" transform="scale(0.015625)"/>
       </defs>
       <use xlink:href="#ArialMT-31"/>
       <use xlink:href="#ArialMT-30" x="55.615234"/>
      </g>
     </g>
    </g>
    <g id="xtick_4">
     <g id="line2d_4">
      <g>
       <use xlink:href="#m504b3b78c6" x="251.863948" y="273.312" style="fill: #262626; stroke: #262626"/>
      </g>
     </g>
     <g id="text_4">
      <!-- 15 -->
      <g style="fill: #262626" transform="translate(246.970323 287.910875) scale(0.088 -0.088)">
       <use xlink:href="#ArialMT-31"/>
       <use xlink:href="#ArialMT-35" x="55.615234"/>
      </g>
     </g>
    </g>
    <g id="xtick_5">
     <g id="line2d_5">
      <g>
       <use xlink:href="#m504b3b78c6" x="316.827355" y="273.312" style="fill: #262626; stroke: #262626"/>
      </g>
     </g>
     <g id="text_5">
      <!-- 20 -->
      <g style="fill: #262626" transform="translate(311.93373 287.910875) scale(0.088 -0.088)">
       <defs>
        <path id="ArialMT-32" d="M 3222 541 
L 3222 0 
L 194 0 
Q 188 203 259 391 
Q 375 700 629 1000 
Q 884 1300 1366 1694 
Q 2113 2306 2375 2664 
Q 2638 3022 2638 3341 
Q 2638 3675 2398 3904 
Q 2159 4134 1775 4134 
Q 1369 4134 1125 3890 
Q 881 3647 878 3216 
L 300 3275 
Q 359 3922 746 4261 
Q 1134 4600 1788 4600 
Q 2447 4600 2831 4234 
Q 3216 3869 3216 3328 
Q 3216 3053 3103 2787 
Q 2991 2522 2730 2228 
Q 2469 1934 1863 1422 
Q 1356 997 1212 845 
Q 1069 694 975 541 
L 3222 541 
z
" transform="scale(0.015625)"/>
       </defs>
       <use xlink:href="#ArialMT-32"/>
       <use xlink:href="#ArialMT-30" x="55.615234"/>
      </g>
     </g>
    </g>
    <g id="xtick_6">
     <g id="line2d_6">
      <g>
       <use xlink:href="#m504b3b78c6" x="381.790762" y="273.312" style="fill: #262626; stroke: #262626"/>
      </g>
     </g>
     <g id="text_6">
      <!-- 25 -->
      <g style="fill: #262626" transform="translate(376.897137 287.910875) scale(0.088 -0.088)">
       <use xlink:href="#ArialMT-32"/>
       <use xlink:href="#ArialMT-35" x="55.615234"/>
      </g>
     </g>
    </g>
    <g id="text_7">
     <!-- t -->
     <g style="fill: #262626" transform="translate(217.9675 300.531375) scale(0.096 -0.096)">
      <defs>
       <path id="ArialMT-74" d="M 1650 503 
L 1731 6 
Q 1494 -44 1306 -44 
Q 1000 -44 831 53 
Q 663 150 594 308 
Q 525 466 525 972 
L 525 2881 
L 113 2881 
L 113 3319 
L 525 3319 
L 525 4141 
L 1084 4478 
L 1084 3319 
L 1650 3319 
L 1650 2881 
L 1084 2881 
L 1084 941 
Q 1084 700 1114 631 
Q 1144 563 1211 522 
Q 1278 481 1403 481 
Q 1497 481 1650 503 
z
" transform="scale(0.015625)"/>
      </defs>
      <use xlink:href="#ArialMT-74"/>
     </g>
    </g>
   </g>
   <g id="matplotlib.axis_2">
    <g id="ytick_1">
     <g id="line2d_7">
      <defs>
       <path id="mbd38842e66" d="M 0 0 
L -4.8 0 
" style="stroke: #262626"/>
      </defs>
      <g>
       <use xlink:href="#mbd38842e66" x="40.741" y="261.216" style="fill: #262626; stroke: #262626"/>
      </g>
     </g>
     <g id="text_8">
      <!-- 0.0 -->
      <g style="fill: #262626" transform="translate(20.209 264.365437) scale(0.088 -0.088)">
       <defs>
        <path id="ArialMT-2e" d="M 581 0 
L 581 641 
L 1222 641 
L 1222 0 
L 581 0 
z
" transform="scale(0.015625)"/>
       </defs>
       <use xlink:href="#ArialMT-30"/>
       <use xlink:href="#ArialMT-2e" x="55.615234"/>
       <use xlink:href="#ArialMT-30" x="83.398438"/>
      </g>
     </g>
    </g>
    <g id="ytick_2">
     <g id="line2d_8">
      <g>
       <use xlink:href="#mbd38842e66" x="40.741" y="226.381562" style="fill: #262626; stroke: #262626"/>
      </g>
     </g>
     <g id="text_9">
      <!-- 0.1 -->
      <g style="fill: #262626" transform="translate(20.209 229.530999) scale(0.088 -0.088)">
       <use xlink:href="#ArialMT-30"/>
       <use xlink:href="#ArialMT-2e" x="55.615234"/>
       <use xlink:href="#ArialMT-31" x="83.398438"/>
      </g>
     </g>
    </g>
    <g id="ytick_3">
     <g id="line2d_9">
      <g>
       <use xlink:href="#mbd38842e66" x="40.741" y="191.547124" style="fill: #262626; stroke: #262626"/>
      </g>
     </g>
     <g id="text_10">
      <!-- 0.2 -->
      <g style="fill: #262626" transform="translate(20.209 194.696561) scale(0.088 -0.088)">
       <use xlink:href="#ArialMT-30"/>
       <use xlink:href="#ArialMT-2e" x="55.615234"/>
       <use xlink:href="#ArialMT-32" x="83.398438"/>
      </g>
     </g>
    </g>
    <g id="ytick_4">
     <g id="line2d_10">
      <g>
       <use xlink:href="#mbd38842e66" x="40.741" y="156.712685" style="fill: #262626; stroke: #262626"/>
      </g>
     </g>
     <g id="text_11">
      <!-- 0.3 -->
      <g style="fill: #262626" transform="translate(20.209 159.862123) scale(0.088 -0.088)">
       <defs>
        <path id="ArialMT-33" d="M 269 1209 
L 831 1284 
Q 928 806 1161 595 
Q 1394 384 1728 384 
Q 2125 384 2398 659 
Q 2672 934 2672 1341 
Q 2672 1728 2419 1979 
Q 2166 2231 1775 2231 
Q 1616 2231 1378 2169 
L 1441 2663 
Q 1497 2656 1531 2656 
Q 1891 2656 2178 2843 
Q 2466 3031 2466 3422 
Q 2466 3731 2256 3934 
Q 2047 4138 1716 4138 
Q 1388 4138 1169 3931 
Q 950 3725 888 3313 
L 325 3413 
Q 428 3978 793 4289 
Q 1159 4600 1703 4600 
Q 2078 4600 2393 4439 
Q 2709 4278 2876 4000 
Q 3044 3722 3044 3409 
Q 3044 3113 2884 2869 
Q 2725 2625 2413 2481 
Q 2819 2388 3044 2092 
Q 3269 1797 3269 1353 
Q 3269 753 2831 336 
Q 2394 -81 1725 -81 
Q 1122 -81 723 278 
Q 325 638 269 1209 
z
" transform="scale(0.015625)"/>
       </defs>
       <use xlink:href="#ArialMT-30"/>
       <use xlink:href="#ArialMT-2e" x="55.615234"/>
       <use xlink:href="#ArialMT-33" x="83.398438"/>
      </g>
     </g>
    </g>
    <g id="ytick_5">
     <g id="line2d_11">
      <g>
       <use xlink:href="#mbd38842e66" x="40.741" y="121.878247" style="fill: #262626; stroke: #262626"/>
      </g>
     </g>
     <g id="text_12">
      <!-- 0.4 -->
      <g style="fill: #262626" transform="translate(20.209 125.027685) scale(0.088 -0.088)">
       <defs>
        <path id="ArialMT-34" d="M 2069 0 
L 2069 1097 
L 81 1097 
L 81 1613 
L 2172 4581 
L 2631 4581 
L 2631 1613 
L 3250 1613 
L 3250 1097 
L 2631 1097 
L 2631 0 
L 2069 0 
z
M 2069 1613 
L 2069 3678 
L 634 1613 
L 2069 1613 
z
" transform="scale(0.015625)"/>
       </defs>
       <use xlink:href="#ArialMT-30"/>
       <use xlink:href="#ArialMT-2e" x="55.615234"/>
       <use xlink:href="#ArialMT-34" x="83.398438"/>
      </g>
     </g>
    </g>
    <g id="ytick_6">
     <g id="line2d_12">
      <g>
       <use xlink:href="#mbd38842e66" x="40.741" y="87.043809" style="fill: #262626; stroke: #262626"/>
      </g>
     </g>
     <g id="text_13">
      <!-- 0.5 -->
      <g style="fill: #262626" transform="translate(20.209 90.193246) scale(0.088 -0.088)">
       <use xlink:href="#ArialMT-30"/>
       <use xlink:href="#ArialMT-2e" x="55.615234"/>
       <use xlink:href="#ArialMT-35" x="83.398438"/>
      </g>
     </g>
    </g>
    <g id="ytick_7">
     <g id="line2d_13">
      <g>
       <use xlink:href="#mbd38842e66" x="40.741" y="52.209371" style="fill: #262626; stroke: #262626"/>
      </g>
     </g>
     <g id="text_14">
      <!-- 0.6 -->
      <g style="fill: #262626" transform="translate(20.209 55.358808) scale(0.088 -0.088)">
       <defs>
        <path id="ArialMT-36" d="M 3184 3459 
L 2625 3416 
Q 2550 3747 2413 3897 
Q 2184 4138 1850 4138 
Q 1581 4138 1378 3988 
Q 1113 3794 959 3422 
Q 806 3050 800 2363 
Q 1003 2672 1297 2822 
Q 1591 2972 1913 2972 
Q 2475 2972 2870 2558 
Q 3266 2144 3266 1488 
Q 3266 1056 3080 686 
Q 2894 316 2569 119 
Q 2244 -78 1831 -78 
Q 1128 -78 684 439 
Q 241 956 241 2144 
Q 241 3472 731 4075 
Q 1159 4600 1884 4600 
Q 2425 4600 2770 4297 
Q 3116 3994 3184 3459 
z
M 888 1484 
Q 888 1194 1011 928 
Q 1134 663 1356 523 
Q 1578 384 1822 384 
Q 2178 384 2434 671 
Q 2691 959 2691 1453 
Q 2691 1928 2437 2201 
Q 2184 2475 1800 2475 
Q 1419 2475 1153 2201 
Q 888 1928 888 1484 
z
" transform="scale(0.015625)"/>
       </defs>
       <use xlink:href="#ArialMT-30"/>
       <use xlink:href="#ArialMT-2e" x="55.615234"/>
       <use xlink:href="#ArialMT-36" x="83.398438"/>
      </g>
     </g>
    </g>
    <g id="ytick_8">
     <g id="line2d_14">
      <g>
       <use xlink:href="#mbd38842e66" x="40.741" y="17.374932" style="fill: #262626; stroke: #262626"/>
      </g>
     </g>
     <g id="text_15">
      <!-- 0.7 -->
      <g style="fill: #262626" transform="translate(20.209 20.52437) scale(0.088 -0.088)">
       <defs>
        <path id="ArialMT-37" d="M 303 3981 
L 303 4522 
L 3269 4522 
L 3269 4084 
Q 2831 3619 2401 2847 
Q 1972 2075 1738 1259 
Q 1569 684 1522 0 
L 944 0 
Q 953 541 1156 1306 
Q 1359 2072 1739 2783 
Q 2119 3494 2547 3981 
L 303 3981 
z
" transform="scale(0.015625)"/>
       </defs>
       <use xlink:href="#ArialMT-30"/>
       <use xlink:href="#ArialMT-2e" x="55.615234"/>
       <use xlink:href="#ArialMT-37" x="83.398438"/>
      </g>
     </g>
    </g>
    <g id="text_16">
     <!-- v(t) -->
     <g style="fill: #262626" transform="translate(14.1885 147.186) rotate(-90) scale(0.096 -0.096)">
      <defs>
       <path id="ArialMT-76" d="M 1344 0 
L 81 3319 
L 675 3319 
L 1388 1331 
Q 1503 1009 1600 663 
Q 1675 925 1809 1294 
L 2547 3319 
L 3125 3319 
L 1869 0 
L 1344 0 
z
" transform="scale(0.015625)"/>
       <path id="ArialMT-28" d="M 1497 -1347 
Q 1031 -759 709 28 
Q 388 816 388 1659 
Q 388 2403 628 3084 
Q 909 3875 1497 4659 
L 1900 4659 
Q 1522 4009 1400 3731 
Q 1209 3300 1100 2831 
Q 966 2247 966 1656 
Q 966 153 1900 -1347 
L 1497 -1347 
z
" transform="scale(0.015625)"/>
       <path id="ArialMT-29" d="M 791 -1347 
L 388 -1347 
Q 1322 153 1322 1656 
Q 1322 2244 1188 2822 
Q 1081 3291 891 3722 
Q 769 4003 388 4659 
L 791 4659 
Q 1378 3875 1659 3084 
Q 1900 2403 1900 1659 
Q 1900 816 1576 28 
Q 1253 -759 791 -1347 
z
" transform="scale(0.015625)"/>
      </defs>
      <use xlink:href="#ArialMT-76"/>
      <use xlink:href="#ArialMT-28" x="50"/>
      <use xlink:href="#ArialMT-74" x="83.300781"/>
      <use xlink:href="#ArialMT-29" x="111.083984"/>
     </g>
    </g>
   </g>
   <g id="line2d_15">
    <path d="M 56.973727 261.216 
L 61.523441 259.086736 
L 64.448256 257.97943 
L 67.048093 257.238763 
L 69.647929 256.733215 
L 72.897724 256.347752 
L 76.472499 255.902499 
L 78.422376 255.457208 
L 80.697233 254.690564 
L 88.496741 251.74855 
L 90.771598 251.246565 
L 93.046455 250.941188 
L 95.321311 250.861738 
L 97.271188 251.026966 
L 100.520984 251.431906 
L 101.170943 251.31265 
L 101.820902 251.009043 
L 102.470861 250.462322 
L 103.12082 249.62819 
L 103.770779 248.486904 
L 104.745717 246.222255 
L 106.045636 242.377726 
L 109.62041 230.922147 
L 110.595349 228.682272 
L 111.245308 227.595124 
L 111.895267 226.870811 
L 112.545226 226.52352 
L 113.195185 226.550421 
L 113.845144 226.932231 
L 114.495103 227.63516 
L 115.470042 229.188955 
L 116.76996 231.895441 
L 120.019755 239.021878 
L 120.994694 240.664748 
L 121.969632 241.947733 
L 122.944571 242.872559 
L 123.919509 243.488565 
L 125.219428 243.997871 
L 126.844325 244.601389 
L 127.819264 245.228055 
L 128.794202 246.207374 
L 130.09412 247.990724 
L 130.744079 248.811337 
L 131.069059 249.075435 
L 131.394038 249.165154 
L 131.719018 249.017201 
L 132.043998 248.575794 
L 132.368977 247.803947 
L 133.018936 245.242271 
L 133.668895 241.458979 
L 134.643834 234.060385 
L 136.268731 219.185992 
L 138.218609 201.478028 
L 139.193547 194.350561 
L 139.843506 190.640841 
L 140.493465 187.903138 
L 141.143424 186.204594 
L 141.468404 185.752491 
L 141.793383 185.563009 
L 142.118363 185.630784 
L 142.443342 185.947788 
L 142.768322 186.503388 
L 143.418281 188.276466 
L 144.06824 190.824017 
L 145.043179 195.768914 
L 146.668076 205.661366 
L 148.617953 217.4251 
L 149.917871 223.860675 
L 150.89281 227.627966 
L 151.867749 230.452269 
L 152.842687 232.421154 
L 153.817626 233.709531 
L 154.792564 234.544377 
L 159.667257 237.787121 
L 160.317216 237.78588 
L 160.642196 237.593717 
L 160.967175 237.236983 
L 161.617134 235.936294 
L 162.267093 233.755899 
L 162.917052 230.681556 
L 163.891991 224.607061 
L 165.191909 214.650921 
L 168.116725 191.409651 
L 169.091663 185.186473 
L 170.066602 180.301269 
L 170.716561 177.8761 
L 171.36652 176.143391 
L 172.016479 175.101382 
L 172.341459 174.833337 
L 172.666438 174.728479 
L 172.991418 174.781487 
L 173.316397 174.986173 
L 173.966356 175.822427 
L 174.616315 177.174967 
L 175.591254 180.020045 
L 176.566192 183.626418 
L 178.19109 190.680633 
L 182.090844 208.214139 
L 183.715742 214.467154 
L 185.34064 219.843168 
L 186.965537 224.391859 
L 188.590435 228.193268 
L 189.890353 230.700388 
L 190.865292 232.229937 
L 191.84023 233.405073 
L 192.815169 234.16896 
L 193.465128 234.425704 
L 194.115087 234.471006 
L 194.765046 234.305318 
L 195.415005 233.937653 
L 196.389943 233.046876 
L 197.364882 231.825294 
L 198.98978 229.326406 
L 202.564554 223.604339 
L 204.189452 221.477946 
L 205.48937 220.086608 
L 206.789288 218.962918 
L 208.414186 217.883714 
L 210.039084 217.079345 
L 212.31394 216.221202 
L 216.863654 214.560774 
L 219.13851 213.43999 
L 221.088387 212.24473 
L 223.363244 210.571579 
L 225.96308 208.364146 
L 230.512794 204.433669 
L 232.137691 203.337583 
L 233.437609 202.713542 
L 234.412548 202.437001 
L 235.387486 202.354048 
L 236.362425 202.48774 
L 237.337364 202.856179 
L 238.312302 203.470798 
L 239.287241 204.33451 
L 240.587159 205.859258 
L 241.887077 207.76105 
L 243.836954 211.097037 
L 246.43679 215.540759 
L 247.411729 216.857104 
L 248.386667 217.796754 
L 249.036627 218.154673 
L 249.686586 218.260447 
L 250.336545 218.087744 
L 250.986504 217.61709 
L 251.636463 216.836828 
L 252.286422 215.743364 
L 253.26136 213.526421 
L 254.236299 210.654091 
L 255.536217 205.911306 
L 256.836135 200.285638 
L 258.461033 192.301004 
L 261.385848 176.486441 
L 263.985685 162.755113 
L 265.610582 155.370346 
L 266.9105 150.594838 
L 267.885439 147.852884 
L 268.535398 146.480059 
L 269.185357 145.499508 
L 269.835316 144.930271 
L 270.485275 144.785844 
L 271.135234 145.074065 
L 271.785193 145.796709 
L 272.435152 146.949219 
L 273.085111 148.52089 
L 274.06005 151.625511 
L 275.034989 155.551898 
L 276.334907 161.873477 
L 277.959804 171.05295 
L 282.184538 195.701616 
L 283.159477 200.074256 
L 284.134415 203.326688 
L 284.784374 204.717208 
L 285.109354 205.148916 
L 285.434333 205.394557 
L 285.759313 205.448666 
L 286.084292 205.30795 
L 286.409272 204.971315 
L 287.059231 203.717296 
L 287.70919 201.721593 
L 288.359149 199.046801 
L 289.334088 193.941723 
L 290.634006 185.572747 
L 292.583883 171.101006 
L 295.508699 149.142761 
L 297.133596 138.681944 
L 298.433514 131.90684 
L 299.408453 127.957417 
L 300.383391 125.079268 
L 301.033351 123.783785 
L 301.68331 122.996288 
L 302.333269 122.717203 
L 302.658248 122.766494 
L 303.308207 123.235789 
L 303.958166 124.185434 
L 304.608125 125.59367 
L 305.583064 128.506296 
L 306.558002 132.280417 
L 307.857921 138.430463 
L 309.482818 147.430836 
L 314.357511 175.805614 
L 315.657429 181.60594 
L 316.632368 184.890362 
L 317.282327 186.473043 
L 317.932286 187.524795 
L 318.582245 188.024108 
L 318.907224 188.065016 
L 319.232204 187.968339 
L 319.882163 187.374415 
L 320.532122 186.277789 
L 321.182081 184.729366 
L 322.15702 181.696933 
L 323.456938 176.694014 
L 328.65661 155.24009 
L 329.956528 151.284988 
L 330.931467 148.944558 
L 331.906405 147.177372 
L 332.556364 146.324368 
L 333.206324 145.731129 
L 333.856283 145.39397 
L 334.506242 145.306496 
L 335.156201 145.460069 
L 335.80616 145.843914 
L 336.456119 146.445645 
L 337.431057 147.725815 
L 338.405996 149.41242 
L 339.705914 152.195412 
L 341.330812 156.33191 
L 343.605668 162.837386 
L 347.180443 173.053491 
L 348.805341 177.08416 
L 350.105259 179.846514 
L 351.405177 182.132072 
L 352.705095 183.914306 
L 353.680034 184.92364 
L 354.654972 185.667472 
L 355.629911 186.168139 
L 356.604849 186.453905 
L 357.904767 186.555794 
L 359.204686 186.410344 
L 360.829583 185.992931 
L 363.429419 185.057478 
L 368.629092 183.170204 
L 377.078559 180.31653 
L 379.678396 179.088267 
L 381.628273 177.973182 
L 381.628273 177.973182 
" clip-path="url(#p0690ce2124)" style="fill: none; stroke: #1f77b4; stroke-width: 1.2; stroke-linecap: round"/>
   </g>
   <g id="line2d_16">
    <path d="M 56.973727 261.216 
L 61.523441 259.086053 
L 64.448256 257.978072 
L 67.048093 257.236749 
L 69.647929 256.730713 
L 72.897724 256.344919 
L 76.472499 255.898216 
L 78.422376 255.450714 
L 80.697233 254.68022 
L 88.496741 251.723004 
L 91.096577 251.159099 
L 93.371434 250.876922 
L 95.321311 250.823273 
L 97.271188 251.002243 
L 100.845963 251.492231 
L 101.495922 251.322349 
L 102.145881 250.931557 
L 102.79584 250.259768 
L 103.445799 249.268466 
L 104.420738 247.171589 
L 105.395676 244.429249 
L 107.020574 238.943348 
L 108.970451 232.275659 
L 109.94539 229.522853 
L 110.920328 227.463114 
L 111.570287 226.553356 
L 112.220247 226.044351 
L 112.870206 225.940635 
L 113.520165 226.227631 
L 114.170124 226.873389 
L 114.820083 227.831274 
L 115.795021 229.725279 
L 117.419919 233.555396 
L 119.369796 238.085071 
L 120.669714 240.503064 
L 121.644653 241.866609 
L 122.619591 242.828231 
L 123.59453 243.423917 
L 124.569468 243.735299 
L 127.494284 244.394951 
L 128.144243 244.83719 
L 128.794202 245.51057 
L 129.444161 246.454612 
L 130.4191 248.366182 
L 131.394038 250.449257 
L 131.719018 250.942444 
L 132.043998 251.171831 
L 132.368977 251.020098 
L 132.693957 250.398352 
L 133.018936 249.276081 
L 133.668895 245.66633 
L 134.318854 240.63175 
L 135.293793 231.283272 
L 139.193547 190.414046 
L 139.843506 185.75681 
L 140.493465 182.330235 
L 141.143424 180.253591 
L 141.468404 179.738454 
L 141.793383 179.571363 
L 142.118363 179.745954 
L 142.443342 180.251357 
L 143.093301 182.189944 
L 143.74326 185.222754 
L 144.718199 191.360203 
L 146.343097 203.837152 
L 147.967994 216.128673 
L 148.942933 222.342116 
L 149.917871 227.30949 
L 150.89281 230.943911 
L 151.542769 232.657929 
L 152.192728 233.8641 
L 152.842687 234.632559 
L 153.492646 235.042436 
L 154.142605 235.176529 
L 155.117544 235.04111 
L 157.067421 234.547021 
L 157.71738 234.593734 
L 158.367339 234.858491 
L 159.017298 235.391059 
L 159.667257 236.216767 
L 160.642196 237.949921 
L 161.942114 240.407316 
L 162.267093 240.772475 
L 162.592073 240.906618 
L 162.917052 240.734663 
L 163.242032 240.19005 
L 163.567011 239.225917 
L 164.216971 235.983978 
L 164.86693 231.126098 
L 165.841868 221.528421 
L 167.466766 202.204918 
L 169.416643 179.181686 
L 170.391581 169.738138 
L 171.36652 162.562314 
L 172.016479 159.248978 
L 172.666438 157.187886 
L 172.991418 156.63099 
L 173.316397 156.385967 
L 173.641377 156.446232 
L 173.966356 156.802358 
L 174.291336 157.442474 
L 174.941295 159.516016 
L 175.591254 162.533241 
L 176.566192 168.483497 
L 177.866111 178.19098 
L 181.440885 206.095126 
L 182.740803 214.264191 
L 184.040722 220.810162 
L 185.01566 224.664629 
L 185.990599 227.700776 
L 186.965537 230.037501 
L 187.940476 231.811755 
L 188.915414 233.161736 
L 190.215333 234.522445 
L 192.16521 236.138571 
L 194.115087 237.838354 
L 195.415005 239.261605 
L 196.714923 241.029377 
L 198.014841 243.183153 
L 199.639739 246.352996 
L 201.589616 250.194398 
L 202.239575 251.107985 
L 202.889534 251.565444 
L 203.214514 251.566084 
L 203.539493 251.394443 
L 203.864473 251.046344 
L 204.514432 249.848317 
L 205.164391 248.081313 
L 206.139329 244.653524 
L 207.439247 239.144987 
L 209.389124 229.766079 
L 216.538674 194.259943 
L 218.163572 187.652772 
L 219.46349 183.157516 
L 220.763408 179.508253 
L 221.738346 177.400647 
L 222.713285 175.884855 
L 223.363244 175.223075 
L 224.013203 174.852098 
L 224.663162 174.779634 
L 225.313121 175.01123 
L 225.96308 175.549877 
L 226.613039 176.395782 
L 227.262998 177.545762 
L 228.237937 179.826906 
L 229.212876 182.742198 
L 230.512794 187.520329 
L 232.137691 194.666433 
L 234.412548 206.007477 
L 237.337364 220.527604 
L 238.962261 227.362104 
L 240.262179 231.744057 
L 241.237118 234.297367 
L 242.212057 236.21761 
L 243.186995 237.560045 
L 244.161934 238.424975 
L 245.136872 238.93546 
L 246.43679 239.273358 
L 252.936381 240.187789 
L 253.58634 240.00663 
L 254.236299 239.503949 
L 254.886258 238.516007 
L 255.536217 236.86672 
L 256.186176 234.397673 
L 256.836135 230.994319 
L 257.486094 226.595243 
L 258.461033 218.106676 
L 259.435971 207.438229 
L 260.735889 190.203552 
L 262.360787 165.082084 
L 265.285603 118.698093 
L 266.260541 106.092033 
L 267.23548 96.407608 
L 267.885439 91.946894 
L 268.535398 89.278267 
L 268.860378 88.650005 
L 269.185357 88.502946 
L 269.510337 88.838791 
L 269.835316 89.656009 
L 270.160296 90.947483 
L 270.810255 94.905412 
L 271.460214 100.575593 
L 272.435152 111.85017 
L 273.73507 130.688766 
L 277.959804 195.996472 
L 279.259722 210.960082 
L 280.234661 219.749873 
L 281.2096 226.523087 
L 282.184538 231.496813 
L 283.159477 234.971859 
L 283.809436 236.624872 
L 284.784374 238.384444 
L 286.084292 240.039468 
L 287.059231 241.380221 
L 287.70919 242.609352 
L 288.359149 244.282971 
L 289.009108 246.523515 
L 289.984047 250.928867 
L 290.634006 253.648525 
L 290.958985 253.992019 
L 291.283965 253.008533 
L 291.608944 250.739596 
L 292.258903 243.614951 
L 293.233842 228.742131 
L 294.208781 209.855314 
L 295.508699 179.285484 
L 297.133596 134.946461 
L 299.408453 72.333767 
L 300.383391 50.065703 
L 301.35833 33.024456 
L 302.008289 25.236211 
L 302.658248 20.618726 
L 302.983228 19.54329 
L 303.308207 19.296 
L 303.633187 19.871181 
L 303.958166 21.25345 
L 304.283146 23.420507 
L 304.933105 29.977843 
L 305.583064 39.216596 
L 306.558002 57.175072 
L 307.857921 86.205 
L 310.782736 154.227267 
L 312.082654 179.081499 
L 313.057593 194.184122 
L 314.032532 206.074934 
L 315.00747 214.870106 
L 315.657429 219.169484 
L 316.307388 222.379123 
L 316.957347 224.664967 
L 317.607306 226.205417 
L 318.257265 227.179146 
L 318.907224 227.757278 
L 319.882163 228.226645 
L 320.857102 228.644127 
L 321.507061 229.103175 
L 322.15702 229.829003 
L 322.806979 230.895579 
L 323.456938 232.328679 
L 325.406815 237.335624 
L 325.731794 237.665191 
L 326.056774 237.567987 
L 326.381753 236.920534 
L 326.706733 235.627477 
L 327.031713 233.639047 
L 327.681672 227.601476 
L 328.331631 219.108578 
L 329.306569 202.677515 
L 330.606487 175.646403 
L 332.556364 128.808891 
L 334.831221 74.72863 
L 336.131139 49.346216 
L 337.106078 34.802997 
L 337.756037 27.668544 
L 338.405996 22.753032 
L 338.730975 21.152256 
L 339.055955 20.128408 
L 339.380934 19.67918 
L 339.705914 19.799865 
L 340.030894 20.480105 
L 340.355873 21.707276 
L 341.005832 25.730177 
L 341.655791 31.69611 
L 342.63073 43.808678 
L 343.605668 58.951526 
L 345.230566 88.424266 
L 348.805341 154.849833 
L 350.105259 175.160263 
L 351.405177 192.271416 
L 352.705095 206.037234 
L 353.680034 214.255262 
L 354.654972 220.838608 
L 355.629911 226.002134 
L 356.604849 229.993344 
L 357.579788 233.065477 
L 358.554726 235.455904 
L 359.854645 237.93819 
L 361.804522 240.969504 
L 363.429419 243.627079 
L 364.404358 245.581932 
L 365.379296 247.975335 
L 366.354235 250.899663 
L 367.979133 256.162386 
L 368.304112 256.568035 
L 368.629092 256.274912 
L 368.954071 255.263261 
L 369.60403 251.790668 
L 370.578969 244.558787 
L 371.553907 235.626921 
L 372.853826 221.330882 
L 374.153744 204.41399 
L 375.778641 179.893347 
L 377.728518 146.603895 
L 381.628273 77.601505 
L 381.628273 77.601505 
" clip-path="url(#p0690ce2124)" style="fill: none; stroke-dasharray: 4.44,1.92; stroke-dashoffset: 0; stroke: #ff7f0e; stroke-width: 1.2"/>
   </g>
   <g id="patch_3">
    <path d="M 40.741 261.216 
L 40.741 17.374932 
" style="fill: none; stroke: #262626; stroke-linejoin: miter; stroke-linecap: square"/>
   </g>
   <g id="patch_4">
    <path d="M 56.973727 273.312 
L 381.790762 273.312 
" style="fill: none; stroke: #262626; stroke-linejoin: miter; stroke-linecap: square"/>
   </g>
   <g id="legend_1">
    <g id="line2d_17">
     <path d="M 48.661 18.446125 
L 57.461 18.446125 
L 66.261 18.446125 
" style="fill: none; stroke: #1f77b4; stroke-width: 1.2; stroke-linecap: round"/>
    </g>
    <g id="text_17">
     <!-- v (Monte Carlo) -->
     <g style="fill: #262626" transform="translate(73.301 21.526125) scale(0.088 -0.088)">
      <defs>
       <path id="ArialMT-20" transform="scale(0.015625)"/>
       <path id="ArialMT-4d" d="M 475 0 
L 475 4581 
L 1388 4581 
L 2472 1338 
Q 2622 884 2691 659 
Q 2769 909 2934 1394 
L 4031 4581 
L 4847 4581 
L 4847 0 
L 4263 0 
L 4263 3834 
L 2931 0 
L 2384 0 
L 1059 3900 
L 1059 0 
L 475 0 
z
" transform="scale(0.015625)"/>
       <path id="ArialMT-6f" d="M 213 1659 
Q 213 2581 725 3025 
Q 1153 3394 1769 3394 
Q 2453 3394 2887 2945 
Q 3322 2497 3322 1706 
Q 3322 1066 3130 698 
Q 2938 331 2570 128 
Q 2203 -75 1769 -75 
Q 1072 -75 642 372 
Q 213 819 213 1659 
z
M 791 1659 
Q 791 1022 1069 705 
Q 1347 388 1769 388 
Q 2188 388 2466 706 
Q 2744 1025 2744 1678 
Q 2744 2294 2464 2611 
Q 2184 2928 1769 2928 
Q 1347 2928 1069 2612 
Q 791 2297 791 1659 
z
" transform="scale(0.015625)"/>
       <path id="ArialMT-6e" d="M 422 0 
L 422 3319 
L 928 3319 
L 928 2847 
Q 1294 3394 1984 3394 
Q 2284 3394 2536 3286 
Q 2788 3178 2913 3003 
Q 3038 2828 3088 2588 
Q 3119 2431 3119 2041 
L 3119 0 
L 2556 0 
L 2556 2019 
Q 2556 2363 2490 2533 
Q 2425 2703 2258 2804 
Q 2091 2906 1866 2906 
Q 1506 2906 1245 2678 
Q 984 2450 984 1813 
L 984 0 
L 422 0 
z
" transform="scale(0.015625)"/>
       <path id="ArialMT-65" d="M 2694 1069 
L 3275 997 
Q 3138 488 2766 206 
Q 2394 -75 1816 -75 
Q 1088 -75 661 373 
Q 234 822 234 1631 
Q 234 2469 665 2931 
Q 1097 3394 1784 3394 
Q 2450 3394 2872 2941 
Q 3294 2488 3294 1666 
Q 3294 1616 3291 1516 
L 816 1516 
Q 847 969 1125 678 
Q 1403 388 1819 388 
Q 2128 388 2347 550 
Q 2566 713 2694 1069 
z
M 847 1978 
L 2700 1978 
Q 2663 2397 2488 2606 
Q 2219 2931 1791 2931 
Q 1403 2931 1139 2672 
Q 875 2413 847 1978 
z
" transform="scale(0.015625)"/>
       <path id="ArialMT-43" d="M 3763 1606 
L 4369 1453 
Q 4178 706 3683 314 
Q 3188 -78 2472 -78 
Q 1731 -78 1267 223 
Q 803 525 561 1097 
Q 319 1669 319 2325 
Q 319 3041 592 3573 
Q 866 4106 1370 4382 
Q 1875 4659 2481 4659 
Q 3169 4659 3637 4309 
Q 4106 3959 4291 3325 
L 3694 3184 
Q 3534 3684 3231 3912 
Q 2928 4141 2469 4141 
Q 1941 4141 1586 3887 
Q 1231 3634 1087 3207 
Q 944 2781 944 2328 
Q 944 1744 1114 1308 
Q 1284 872 1643 656 
Q 2003 441 2422 441 
Q 2931 441 3284 734 
Q 3638 1028 3763 1606 
z
" transform="scale(0.015625)"/>
       <path id="ArialMT-61" d="M 2588 409 
Q 2275 144 1986 34 
Q 1697 -75 1366 -75 
Q 819 -75 525 192 
Q 231 459 231 875 
Q 231 1119 342 1320 
Q 453 1522 633 1644 
Q 813 1766 1038 1828 
Q 1203 1872 1538 1913 
Q 2219 1994 2541 2106 
Q 2544 2222 2544 2253 
Q 2544 2597 2384 2738 
Q 2169 2928 1744 2928 
Q 1347 2928 1158 2789 
Q 969 2650 878 2297 
L 328 2372 
Q 403 2725 575 2942 
Q 747 3159 1072 3276 
Q 1397 3394 1825 3394 
Q 2250 3394 2515 3294 
Q 2781 3194 2906 3042 
Q 3031 2891 3081 2659 
Q 3109 2516 3109 2141 
L 3109 1391 
Q 3109 606 3145 398 
Q 3181 191 3288 0 
L 2700 0 
Q 2613 175 2588 409 
z
M 2541 1666 
Q 2234 1541 1622 1453 
Q 1275 1403 1131 1340 
Q 988 1278 909 1158 
Q 831 1038 831 891 
Q 831 666 1001 516 
Q 1172 366 1500 366 
Q 1825 366 2078 508 
Q 2331 650 2450 897 
Q 2541 1088 2541 1459 
L 2541 1666 
z
" transform="scale(0.015625)"/>
       <path id="ArialMT-72" d="M 416 0 
L 416 3319 
L 922 3319 
L 922 2816 
Q 1116 3169 1280 3281 
Q 1444 3394 1641 3394 
Q 1925 3394 2219 3213 
L 2025 2691 
Q 1819 2813 1613 2813 
Q 1428 2813 1281 2702 
Q 1134 2591 1072 2394 
Q 978 2094 978 1738 
L 978 0 
L 416 0 
z
" transform="scale(0.015625)"/>
       <path id="ArialMT-6c" d="M 409 0 
L 409 4581 
L 972 4581 
L 972 0 
L 409 0 
z
" transform="scale(0.015625)"/>
      </defs>
      <use xlink:href="#ArialMT-76"/>
      <use xlink:href="#ArialMT-20" x="50"/>
      <use xlink:href="#ArialMT-28" x="77.783203"/>
      <use xlink:href="#ArialMT-4d" x="111.083984"/>
      <use xlink:href="#ArialMT-6f" x="194.384766"/>
      <use xlink:href="#ArialMT-6e" x="250"/>
      <use xlink:href="#ArialMT-74" x="305.615234"/>
      <use xlink:href="#ArialMT-65" x="333.398438"/>
      <use xlink:href="#ArialMT-20" x="389.013672"/>
      <use xlink:href="#ArialMT-43" x="416.796875"/>
      <use xlink:href="#ArialMT-61" x="489.013672"/>
      <use xlink:href="#ArialMT-72" x="544.628906"/>
      <use xlink:href="#ArialMT-6c" x="577.929688"/>
      <use xlink:href="#ArialMT-6f" x="600.146484"/>
      <use xlink:href="#ArialMT-29" x="655.761719"/>
     </g>
    </g>
    <g id="line2d_18">
     <path d="M 48.661 31.104375 
L 57.461 31.104375 
L 66.261 31.104375 
" style="fill: none; stroke-dasharray: 4.44,1.92; stroke-dashoffset: 0; stroke: #ff7f0e; stroke-width: 1.2"/>
    </g>
    <g id="text_18">
     <!-- v (Local sensitivity) -->
     <g style="fill: #262626" transform="translate(73.301 34.184375) scale(0.088 -0.088)">
      <defs>
       <path id="ArialMT-4c" d="M 469 0 
L 469 4581 
L 1075 4581 
L 1075 541 
L 3331 541 
L 3331 0 
L 469 0 
z
" transform="scale(0.015625)"/>
       <path id="ArialMT-63" d="M 2588 1216 
L 3141 1144 
Q 3050 572 2676 248 
Q 2303 -75 1759 -75 
Q 1078 -75 664 370 
Q 250 816 250 1647 
Q 250 2184 428 2587 
Q 606 2991 970 3192 
Q 1334 3394 1763 3394 
Q 2303 3394 2647 3120 
Q 2991 2847 3088 2344 
L 2541 2259 
Q 2463 2594 2264 2762 
Q 2066 2931 1784 2931 
Q 1359 2931 1093 2626 
Q 828 2322 828 1663 
Q 828 994 1084 691 
Q 1341 388 1753 388 
Q 2084 388 2306 591 
Q 2528 794 2588 1216 
z
" transform="scale(0.015625)"/>
       <path id="ArialMT-73" d="M 197 991 
L 753 1078 
Q 800 744 1014 566 
Q 1228 388 1613 388 
Q 2000 388 2187 545 
Q 2375 703 2375 916 
Q 2375 1106 2209 1216 
Q 2094 1291 1634 1406 
Q 1016 1563 777 1677 
Q 538 1791 414 1992 
Q 291 2194 291 2438 
Q 291 2659 392 2848 
Q 494 3038 669 3163 
Q 800 3259 1026 3326 
Q 1253 3394 1513 3394 
Q 1903 3394 2198 3281 
Q 2494 3169 2634 2976 
Q 2775 2784 2828 2463 
L 2278 2388 
Q 2241 2644 2061 2787 
Q 1881 2931 1553 2931 
Q 1166 2931 1000 2803 
Q 834 2675 834 2503 
Q 834 2394 903 2306 
Q 972 2216 1119 2156 
Q 1203 2125 1616 2013 
Q 2213 1853 2448 1751 
Q 2684 1650 2818 1456 
Q 2953 1263 2953 975 
Q 2953 694 2789 445 
Q 2625 197 2315 61 
Q 2006 -75 1616 -75 
Q 969 -75 630 194 
Q 291 463 197 991 
z
" transform="scale(0.015625)"/>
       <path id="ArialMT-69" d="M 425 3934 
L 425 4581 
L 988 4581 
L 988 3934 
L 425 3934 
z
M 425 0 
L 425 3319 
L 988 3319 
L 988 0 
L 425 0 
z
" transform="scale(0.015625)"/>
       <path id="ArialMT-79" d="M 397 -1278 
L 334 -750 
Q 519 -800 656 -800 
Q 844 -800 956 -737 
Q 1069 -675 1141 -563 
Q 1194 -478 1313 -144 
Q 1328 -97 1363 -6 
L 103 3319 
L 709 3319 
L 1400 1397 
Q 1534 1031 1641 628 
Q 1738 1016 1872 1384 
L 2581 3319 
L 3144 3319 
L 1881 -56 
Q 1678 -603 1566 -809 
Q 1416 -1088 1222 -1217 
Q 1028 -1347 759 -1347 
Q 597 -1347 397 -1278 
z
" transform="scale(0.015625)"/>
      </defs>
      <use xlink:href="#ArialMT-76"/>
      <use xlink:href="#ArialMT-20" x="50"/>
      <use xlink:href="#ArialMT-28" x="77.783203"/>
      <use xlink:href="#ArialMT-4c" x="111.083984"/>
      <use xlink:href="#ArialMT-6f" x="166.699219"/>
      <use xlink:href="#ArialMT-63" x="222.314453"/>
      <use xlink:href="#ArialMT-61" x="272.314453"/>
      <use xlink:href="#ArialMT-6c" x="327.929688"/>
      <use xlink:href="#ArialMT-20" x="350.146484"/>
      <use xlink:href="#ArialMT-73" x="377.929688"/>
      <use xlink:href="#ArialMT-65" x="427.929688"/>
      <use xlink:href="#ArialMT-6e" x="483.544922"/>
      <use xlink:href="#ArialMT-73" x="539.160156"/>
      <use xlink:href="#ArialMT-69" x="589.160156"/>
      <use xlink:href="#ArialMT-74" x="611.376953"/>
      <use xlink:href="#ArialMT-69" x="639.160156"/>
      <use xlink:href="#ArialMT-76" x="661.376953"/>
      <use xlink:href="#ArialMT-69" x="711.376953"/>
      <use xlink:href="#ArialMT-74" x="733.59375"/>
      <use xlink:href="#ArialMT-79" x="761.376953"/>
      <use xlink:href="#ArialMT-29" x="811.376953"/>
     </g>
    </g>
   </g>
  </g>
 </g>
 <defs>
  <clipPath id="p0690ce2124">
   <rect x="40.741" y="7.2" width="357.12" height="266.112"/>
  </clipPath>
 </defs>
</svg>