<?xml version="1.0" encoding="utf-8" standalone="no"?>
<!DOCTYPE svg PUBLIC "-//W3C//DTD SVG 1.1//EN"
  "http://www.w3.org/Graphics/SVG/1.1/DTD/svg11.dtd">
<svg xmlns:xlink="http://www.w3.org/1999/xlink" width="407.392875pt" height="309.639375pt" viewBox="0 0 407.392875 309.639375" xmlns="http://www.w3.org/2000/svg" version="1.1">
 <metadata>
  <rdf:RDF xmlns:dc="http://purl.org/dc/elements/1.1/" xmlns:cc="http://creativecommons.org/ns#" xmlns:rdf="http://www.w3.org/1999/02/22-rdf-syntax-ns#">
   <cc:Work>
    <dc:type rdf:resource="http://purl.org/dc/dcmitype/StillImage"/>
    <dc:date>2025-01-05T19:27:22.688150</dc:date>
    <dc:format>image/svg+xml</dc:format>
    <dc:creator>
     <cc:Agent>
      <dc:title>Matplotlib v3.9.0, https://matplotlib.org/</dc:title>
     </cc:Agent>
    </dc:creator>
   </cc:Work>
  </rdf:RDF>
 </metadata>
 <defs>
  <style type="text/css">*{stroke-linejoin: round; stroke-linecap: butt}</style>
 </defs>
 <g id="figure_1">
  <g id="patch_1">
   <path d="M 0 309.639375 
L 407.392875 309.639375 
L 407.392875 0 
L 0 0 
z
" style="fill: #ffffff"/>
  </g>
  <g id="axes_1">
   <g id="patch_2">
    <path d="M 43.072875 273.312 
L 400.192875 273.312 
L 400.192875 7.2 
L 43.072875 7.2 
z
" style="fill: #ffffff"/>
   </g>
   <g id="matplotlib.axis_1">
    <g id="xtick_1">
     <g id="line2d_1">
      <defs>
       <path id="m1af589a164" d="M 0 0 
L 0 4.8 
" style="stroke: #262626"/>
      </defs>
      <g>
       <use xlink:href="#m1af589a164" x="59.305602" y="273.312" style="fill: #262626; stroke: #262626"/>
      </g>
     </g>
     <g id="text_1">
      <!-- 0 -->
      <g style="fill: #262626" transform="translate(56.85879 287.910875) scale(0.088 -0.088)">
       <defs>
        <path id="ArialMT-30" d="M 266 2259 
Q 266 3072 433 3567 
Q 600 4063 929 4331 
Q 1259 4600 1759 4600 
Q 2128 4600 2406 4451 
Q 2684 4303 2865 4023 
Q 3047 3744 3150 3342 
Q 3253 2941 3253 2259 
Q 3253 1453 3087 958 
Q 2922 463 2592 192 
Q 2263 -78 1759 -78 
Q 1097 -78 719 397 
Q 266 969 266 2259 
z
M 844 2259 
Q 844 1131 1108 757 
Q 1372 384 1759 384 
Q 2147 384 2411 759 
Q 2675 1134 2675 2259 
Q 2675 3391 2411 3762 
Q 2147 4134 1753 4134 
Q 1366 4134 1134 3806 
Q 844 3388 844 2259 
z
" transform="scale(0.015625)"/>
       </defs>
       <use xlink:href="#ArialMT-30"/>
      </g>
     </g>
    </g>
    <g id="xtick_2">
     <g id="line2d_2">
      <g>
       <use xlink:href="#m1af589a164" x="124.243005" y="273.312" style="fill: #262626; stroke: #262626"/>
      </g>
     </g>
     <g id="text_2">
      <!-- 2000 -->
      <g style="fill: #262626" transform="translate(114.455755 287.910875) scale(0.088 -0.088)">
       <defs>
        <path id="ArialMT-32" d="M 3222 541 
L 3222 0 
L 194 0 
Q 188 203 259 391 
Q 375 700 629 1000 
Q 884 1300 1366 1694 
Q 2113 2306 2375 2664 
Q 2638 3022 2638 3341 
Q 2638 3675 2398 3904 
Q 2159 4134 1775 4134 
Q 1369 4134 1125 3890 
Q 881 3647 878 3216 
L 300 3275 
Q 359 3922 746 4261 
Q 1134 4600 1788 4600 
Q 2447 4600 2831 4234 
Q 3216 3869 3216 3328 
Q 3216 3053 3103 2787 
Q 2991 2522 2730 2228 
Q 2469 1934 1863 1422 
Q 1356 997 1212 845 
Q 1069 694 975 541 
L 3222 541 
z
" transform="scale(0.015625)"/>
       </defs>
       <use xlink:href="#ArialMT-32"/>
       <use xlink:href="#ArialMT-30" x="55.615234"/>
       <use xlink:href="#ArialMT-30" x="111.230469"/>
       <use xlink:href="#ArialMT-30" x="166.845703"/>
      </g>
     </g>
    </g>
    <g id="xtick_3">
     <g id="line2d_3">
      <g>
       <use xlink:href="#m1af589a164" x="189.180408" y="273.312" style="fill: #262626; stroke: #262626"/>
      </g>
     </g>
     <g id="text_3">
      <!-- 4000 -->
      <g style="fill: #262626" transform="translate(179.393158 287.910875) scale(0.088 -0.088)">
       <defs>
        <path id="ArialMT-34" d="M 2069 0 
L 2069 1097 
L 81 1097 
L 81 1613 
L 2172 4581 
L 2631 4581 
L 2631 1613 
L 3250 1613 
L 3250 1097 
L 2631 1097 
L 2631 0 
L 2069 0 
z
M 2069 1613 
L 2069 3678 
L 634 1613 
L 2069 1613 
z
" transform="scale(0.015625)"/>
       </defs>
       <use xlink:href="#ArialMT-34"/>
       <use xlink:href="#ArialMT-30" x="55.615234"/>
       <use xlink:href="#ArialMT-30" x="111.230469"/>
       <use xlink:href="#ArialMT-30" x="166.845703"/>
      </g>
     </g>
    </g>
    <g id="xtick_4">
     <g id="line2d_4">
      <g>
       <use xlink:href="#m1af589a164" x="254.117811" y="273.312" style="fill: #262626; stroke: #262626"/>
      </g>
     </g>
     <g id="text_4">
      <!-- 6000 -->
      <g style="fill: #262626" transform="translate(244.330561 287.910875) scale(0.088 -0.088)">
       <defs>
        <path id="ArialMT-36" d="M 3184 3459 
L 2625 3416 
Q 2550 3747 2413 3897 
Q 2184 4138 1850 4138 
Q 1581 4138 1378 3988 
Q 1113 3794 959 3422 
Q 806 3050 800 2363 
Q 1003 2672 1297 2822 
Q 1591 2972 1913 2972 
Q 2475 2972 2870 2558 
Q 3266 2144 3266 1488 
Q 3266 1056 3080 686 
Q 2894 316 2569 119 
Q 2244 -78 1831 -78 
Q 1128 -78 684 439 
Q 241 956 241 2144 
Q 241 3472 731 4075 
Q 1159 4600 1884 4600 
Q 2425 4600 2770 4297 
Q 3116 3994 3184 3459 
z
M 888 1484 
Q 888 1194 1011 928 
Q 1134 663 1356 523 
Q 1578 384 1822 384 
Q 2178 384 2434 671 
Q 2691 959 2691 1453 
Q 2691 1928 2437 2201 
Q 2184 2475 1800 2475 
Q 1419 2475 1153 2201 
Q 888 1928 888 1484 
z
" transform="scale(0.015625)"/>
       </defs>
       <use xlink:href="#ArialMT-36"/>
       <use xlink:href="#ArialMT-30" x="55.615234"/>
       <use xlink:href="#ArialMT-30" x="111.230469"/>
       <use xlink:href="#ArialMT-30" x="166.845703"/>
      </g>
     </g>
    </g>
    <g id="xtick_5">
     <g id="line2d_5">
      <g>
       <use xlink:href="#m1af589a164" x="319.055214" y="273.312" style="fill: #262626; stroke: #262626"/>
      </g>
     </g>
     <g id="text_5">
      <!-- 8000 -->
      <g style="fill: #262626" transform="translate(309.267964 287.910875) scale(0.088 -0.088)">
       <defs>
        <path id="ArialMT-38" d="M 1131 2484 
Q 781 2613 612 2850 
Q 444 3088 444 3419 
Q 444 3919 803 4259 
Q 1163 4600 1759 4600 
Q 2359 4600 2725 4251 
Q 3091 3903 3091 3403 
Q 3091 3084 2923 2848 
Q 2756 2613 2416 2484 
Q 2838 2347 3058 2040 
Q 3278 1734 3278 1309 
Q 3278 722 2862 322 
Q 2447 -78 1769 -78 
Q 1091 -78 675 323 
Q 259 725 259 1325 
Q 259 1772 486 2073 
Q 713 2375 1131 2484 
z
M 1019 3438 
Q 1019 3113 1228 2906 
Q 1438 2700 1772 2700 
Q 2097 2700 2305 2904 
Q 2513 3109 2513 3406 
Q 2513 3716 2298 3927 
Q 2084 4138 1766 4138 
Q 1444 4138 1231 3931 
Q 1019 3725 1019 3438 
z
M 838 1322 
Q 838 1081 952 856 
Q 1066 631 1291 507 
Q 1516 384 1775 384 
Q 2178 384 2440 643 
Q 2703 903 2703 1303 
Q 2703 1709 2433 1975 
Q 2163 2241 1756 2241 
Q 1359 2241 1098 1978 
Q 838 1716 838 1322 
z
" transform="scale(0.015625)"/>
       </defs>
       <use xlink:href="#ArialMT-38"/>
       <use xlink:href="#ArialMT-30" x="55.615234"/>
       <use xlink:href="#ArialMT-30" x="111.230469"/>
       <use xlink:href="#ArialMT-30" x="166.845703"/>
      </g>
     </g>
    </g>
    <g id="xtick_6">
     <g id="line2d_6">
      <g>
       <use xlink:href="#m1af589a164" x="383.992616" y="273.312" style="fill: #262626; stroke: #262626"/>
      </g>
     </g>
     <g id="text_6">
      <!-- 10000 -->
      <g style="fill: #262626" transform="translate(371.758554 287.910875) scale(0.088 -0.088)">
       <defs>
        <path id="ArialMT-31" d="M 2384 0 
L 1822 0 
L 1822 3584 
Q 1619 3391 1289 3197 
Q 959 3003 697 2906 
L 697 3450 
Q 1169 3672 1522 3987 
Q 1875 4303 2022 4600 
L 2384 4600 
L 2384 0 
z
" transform="scale(0.015625)"/>
       </defs>
       <use xlink:href="#ArialMT-31"/>
       <use xlink:href="#ArialMT-30" x="55.615234"/>
       <use xlink:href="#ArialMT-30" x="111.230469"/>
       <use xlink:href="#ArialMT-30" x="166.845703"/>
       <use xlink:href="#ArialMT-30" x="222.460938"/>
      </g>
     </g>
    </g>
    <g id="text_7">
     <!-- Iteration -->
     <g style="fill: #262626" transform="translate(204.290625 300.531375) scale(0.096 -0.096)">
      <defs>
       <path id="ArialMT-49" d="M 597 0 
L 597 4581 
L 1203 4581 
L 1203 0 
L 597 0 
z
" transform="scale(0.015625)"/>
       <path id="ArialMT-74" d="M 1650 503 
L 1731 6 
Q 1494 -44 1306 -44 
Q 1000 -44 831 53 
Q 663 150 594 308 
Q 525 466 525 972 
L 525 2881 
L 113 2881 
L 113 3319 
L 525 3319 
L 525 4141 
L 1084 4478 
L 1084 3319 
L 1650 3319 
L 1650 2881 
L 1084 2881 
L 1084 941 
Q 1084 700 1114 631 
Q 1144 563 1211 522 
Q 1278 481 1403 481 
Q 1497 481 1650 503 
z
" transform="scale(0.015625)"/>
       <path id="ArialMT-65" d="M 2694 1069 
L 3275 997 
Q 3138 488 2766 206 
Q 2394 -75 1816 -75 
Q 1088 -75 661 373 
Q 234 822 234 1631 
Q 234 2469 665 2931 
Q 1097 3394 1784 3394 
Q 2450 3394 2872 2941 
Q 3294 2488 3294 1666 
Q 3294 1616 3291 1516 
L 816 1516 
Q 847 969 1125 678 
Q 1403 388 1819 388 
Q 2128 388 2347 550 
Q 2566 713 2694 1069 
z
M 847 1978 
L 2700 1978 
Q 2663 2397 2488 2606 
Q 2219 2931 1791 2931 
Q 1403 2931 1139 2672 
Q 875 2413 847 1978 
z
" transform="scale(0.015625)"/>
       <path id="ArialMT-72" d="M 416 0 
L 416 3319 
L 922 3319 
L 922 2816 
Q 1116 3169 1280 3281 
Q 1444 3394 1641 3394 
Q 1925 3394 2219 3213 
L 2025 2691 
Q 1819 2813 1613 2813 
Q 1428 2813 1281 2702 
Q 1134 2591 1072 2394 
Q 978 2094 978 1738 
L 978 0 
L 416 0 
z
" transform="scale(0.015625)"/>
       <path id="ArialMT-61" d="M 2588 409 
Q 2275 144 1986 34 
Q 1697 -75 1366 -75 
Q 819 -75 525 192 
Q 231 459 231 875 
Q 231 1119 342 1320 
Q 453 1522 633 1644 
Q 813 1766 1038 1828 
Q 1203 1872 1538 1913 
Q 2219 1994 2541 2106 
Q 2544 2222 2544 2253 
Q 2544 2597 2384 2738 
Q 2169 2928 1744 2928 
Q 1347 2928 1158 2789 
Q 969 2650 878 2297 
L 328 2372 
Q 403 2725 575 2942 
Q 747 3159 1072 3276 
Q 1397 3394 1825 3394 
Q 2250 3394 2515 3294 
Q 2781 3194 2906 3042 
Q 3031 2891 3081 2659 
Q 3109 2516 3109 2141 
L 3109 1391 
Q 3109 606 3145 398 
Q 3181 191 3288 0 
L 2700 0 
Q 2613 175 2588 409 
z
M 2541 1666 
Q 2234 1541 1622 1453 
Q 1275 1403 1131 1340 
Q 988 1278 909 1158 
Q 831 1038 831 891 
Q 831 666 1001 516 
Q 1172 366 1500 366 
Q 1825 366 2078 508 
Q 2331 650 2450 897 
Q 2541 1088 2541 1459 
L 2541 1666 
z
" transform="scale(0.015625)"/>
       <path id="ArialMT-69" d="M 425 3934 
L 425 4581 
L 988 4581 
L 988 3934 
L 425 3934 
z
M 425 0 
L 425 3319 
L 988 3319 
L 988 0 
L 425 0 
z
" transform="scale(0.015625)"/>
       <path id="ArialMT-6f" d="M 213 1659 
Q 213 2581 725 3025 
Q 1153 3394 1769 3394 
Q 2453 3394 2887 2945 
Q 3322 2497 3322 1706 
Q 3322 1066 3130 698 
Q 2938 331 2570 128 
Q 2203 -75 1769 -75 
Q 1072 -75 642 372 
Q 213 819 213 1659 
z
M 791 1659 
Q 791 1022 1069 705 
Q 1347 388 1769 388 
Q 2188 388 2466 706 
Q 2744 1025 2744 1678 
Q 2744 2294 2464 2611 
Q 2184 2928 1769 2928 
Q 1347 2928 1069 2612 
Q 791 2297 791 1659 
z
" transform="scale(0.015625)"/>
       <path id="ArialMT-6e" d="M 422 0 
L 422 3319 
L 928 3319 
L 928 2847 
Q 1294 3394 1984 3394 
Q 2284 3394 2536 3286 
Q 2788 3178 2913 3003 
Q 3038 2828 3088 2588 
Q 3119 2431 3119 2041 
L 3119 0 
L 2556 0 
L 2556 2019 
Q 2556 2363 2490 2533 
Q 2425 2703 2258 2804 
Q 2091 2906 1866 2906 
Q 1506 2906 1245 2678 
Q 984 2450 984 1813 
L 984 0 
L 422 0 
z
" transform="scale(0.015625)"/>
      </defs>
      <use xlink:href="#ArialMT-49"/>
      <use xlink:href="#ArialMT-74" x="27.783203"/>
      <use xlink:href="#ArialMT-65" x="55.566406"/>
      <use xlink:href="#ArialMT-72" x="111.181641"/>
      <use xlink:href="#ArialMT-61" x="144.482422"/>
      <use xlink:href="#ArialMT-74" x="200.097656"/>
      <use xlink:href="#ArialMT-69" x="227.880859"/>
      <use xlink:href="#ArialMT-6f" x="250.097656"/>
      <use xlink:href="#ArialMT-6e" x="305.712891"/>
     </g>
    </g>
   </g>
   <g id="matplotlib.axis_2">
    <g id="ytick_1">
     <g id="line2d_7">
      <defs>
       <path id="mb164bdc9d3" d="M 0 0 
L -4.8 0 
" style="stroke: #262626"/>
      </defs>
      <g>
       <use xlink:href="#mb164bdc9d3" x="43.072875" y="244.217829" style="fill: #262626; stroke: #262626"/>
      </g>
     </g>
     <g id="text_8">
      <!-- 0 -->
      <g style="fill: #262626" transform="translate(29.87925 247.367266) scale(0.088 -0.088)">
       <use xlink:href="#ArialMT-30"/>
      </g>
     </g>
    </g>
    <g id="ytick_2">
     <g id="line2d_8">
      <g>
       <use xlink:href="#mb164bdc9d3" x="43.072875" y="200.830969" style="fill: #262626; stroke: #262626"/>
      </g>
     </g>
     <g id="text_9">
      <!-- 50 -->
      <g style="fill: #262626" transform="translate(24.985625 203.980407) scale(0.088 -0.088)">
       <defs>
        <path id="ArialMT-35" d="M 266 1200 
L 856 1250 
Q 922 819 1161 601 
Q 1400 384 1738 384 
Q 2144 384 2425 690 
Q 2706 997 2706 1503 
Q 2706 1984 2436 2262 
Q 2166 2541 1728 2541 
Q 1456 2541 1237 2417 
Q 1019 2294 894 2097 
L 366 2166 
L 809 4519 
L 3088 4519 
L 3088 3981 
L 1259 3981 
L 1013 2750 
Q 1425 3038 1878 3038 
Q 2478 3038 2890 2622 
Q 3303 2206 3303 1553 
Q 3303 931 2941 478 
Q 2500 -78 1738 -78 
Q 1113 -78 717 272 
Q 322 622 266 1200 
z
" transform="scale(0.015625)"/>
       </defs>
       <use xlink:href="#ArialMT-35"/>
       <use xlink:href="#ArialMT-30" x="55.615234"/>
      </g>
     </g>
    </g>
    <g id="ytick_3">
     <g id="line2d_9">
      <g>
       <use xlink:href="#mb164bdc9d3" x="43.072875" y="157.44411" style="fill: #262626; stroke: #262626"/>
      </g>
     </g>
     <g id="text_10">
      <!-- 100 -->
      <g style="fill: #262626" transform="translate(20.092 160.593548) scale(0.088 -0.088)">
       <use xlink:href="#ArialMT-31"/>
       <use xlink:href="#ArialMT-30" x="55.615234"/>
       <use xlink:href="#ArialMT-30" x="111.230469"/>
      </g>
     </g>
    </g>
    <g id="ytick_4">
     <g id="line2d_10">
      <g>
       <use xlink:href="#mb164bdc9d3" x="43.072875" y="114.057251" style="fill: #262626; stroke: #262626"/>
      </g>
     </g>
     <g id="text_11">
      <!-- 150 -->
      <g style="fill: #262626" transform="translate(20.092 117.206689) scale(0.088 -0.088)">
       <use xlink:href="#ArialMT-31"/>
       <use xlink:href="#ArialMT-35" x="55.615234"/>
       <use xlink:href="#ArialMT-30" x="111.230469"/>
      </g>
     </g>
    </g>
    <g id="ytick_5">
     <g id="line2d_11">
      <g>
       <use xlink:href="#mb164bdc9d3" x="43.072875" y="70.670392" style="fill: #262626; stroke: #262626"/>
      </g>
     </g>
     <g id="text_12">
      <!-- 200 -->
      <g style="fill: #262626" transform="translate(20.092 73.819829) scale(0.088 -0.088)">
       <use xlink:href="#ArialMT-32"/>
       <use xlink:href="#ArialMT-30" x="55.615234"/>
       <use xlink:href="#ArialMT-30" x="111.230469"/>
      </g>
     </g>
    </g>
    <g id="ytick_6">
     <g id="line2d_12">
      <g>
       <use xlink:href="#mb164bdc9d3" x="43.072875" y="27.283533" style="fill: #262626; stroke: #262626"/>
      </g>
     </g>
     <g id="text_13">
      <!-- 250 -->
      <g style="fill: #262626" transform="translate(20.092 30.43297) scale(0.088 -0.088)">
       <use xlink:href="#ArialMT-32"/>
       <use xlink:href="#ArialMT-35" x="55.615234"/>
       <use xlink:href="#ArialMT-30" x="111.230469"/>
      </g>
     </g>
    </g>
    <g id="text_14">
     <!-- Log Likelihood -->
     <g style="fill: #262626" transform="translate(14.0715 171.21225) rotate(-90) scale(0.096 -0.096)">
      <defs>
       <path id="ArialMT-4c" d="M 469 0 
L 469 4581 
L 1075 4581 
L 1075 541 
L 3331 541 
L 3331 0 
L 469 0 
z
" transform="scale(0.015625)"/>
       <path id="ArialMT-67" d="M 319 -275 
L 866 -356 
Q 900 -609 1056 -725 
Q 1266 -881 1628 -881 
Q 2019 -881 2231 -725 
Q 2444 -569 2519 -288 
Q 2563 -116 2559 434 
Q 2191 0 1641 0 
Q 956 0 581 494 
Q 206 988 206 1678 
Q 206 2153 378 2554 
Q 550 2956 876 3175 
Q 1203 3394 1644 3394 
Q 2231 3394 2613 2919 
L 2613 3319 
L 3131 3319 
L 3131 450 
Q 3131 -325 2973 -648 
Q 2816 -972 2473 -1159 
Q 2131 -1347 1631 -1347 
Q 1038 -1347 672 -1080 
Q 306 -813 319 -275 
z
M 784 1719 
Q 784 1066 1043 766 
Q 1303 466 1694 466 
Q 2081 466 2343 764 
Q 2606 1063 2606 1700 
Q 2606 2309 2336 2618 
Q 2066 2928 1684 2928 
Q 1309 2928 1046 2623 
Q 784 2319 784 1719 
z
" transform="scale(0.015625)"/>
       <path id="ArialMT-20" transform="scale(0.015625)"/>
       <path id="ArialMT-6b" d="M 425 0 
L 425 4581 
L 988 4581 
L 988 1969 
L 2319 3319 
L 3047 3319 
L 1778 2088 
L 3175 0 
L 2481 0 
L 1384 1697 
L 988 1316 
L 988 0 
L 425 0 
z
" transform="scale(0.015625)"/>
       <path id="ArialMT-6c" d="M 409 0 
L 409 4581 
L 972 4581 
L 972 0 
L 409 0 
z
" transform="scale(0.015625)"/>
       <path id="ArialMT-68" d="M 422 0 
L 422 4581 
L 984 4581 
L 984 2938 
Q 1378 3394 1978 3394 
Q 2347 3394 2619 3248 
Q 2891 3103 3008 2847 
Q 3125 2591 3125 2103 
L 3125 0 
L 2563 0 
L 2563 2103 
Q 2563 2525 2380 2717 
Q 2197 2909 1863 2909 
Q 1613 2909 1392 2779 
Q 1172 2650 1078 2428 
Q 984 2206 984 1816 
L 984 0 
L 422 0 
z
" transform="scale(0.015625)"/>
       <path id="ArialMT-64" d="M 2575 0 
L 2575 419 
Q 2259 -75 1647 -75 
Q 1250 -75 917 144 
Q 584 363 401 755 
Q 219 1147 219 1656 
Q 219 2153 384 2558 
Q 550 2963 881 3178 
Q 1213 3394 1622 3394 
Q 1922 3394 2156 3267 
Q 2391 3141 2538 2938 
L 2538 4581 
L 3097 4581 
L 3097 0 
L 2575 0 
z
M 797 1656 
Q 797 1019 1065 703 
Q 1334 388 1700 388 
Q 2069 388 2326 689 
Q 2584 991 2584 1609 
Q 2584 2291 2321 2609 
Q 2059 2928 1675 2928 
Q 1300 2928 1048 2622 
Q 797 2316 797 1656 
z
" transform="scale(0.015625)"/>
      </defs>
      <use xlink:href="#ArialMT-4c"/>
      <use xlink:href="#ArialMT-6f" x="55.615234"/>
      <use xlink:href="#ArialMT-67" x="111.230469"/>
      <use xlink:href="#ArialMT-20" x="166.845703"/>
      <use xlink:href="#ArialMT-4c" x="194.628906"/>
      <use xlink:href="#ArialMT-69" x="250.244141"/>
      <use xlink:href="#ArialMT-6b" x="272.460938"/>
      <use xlink:href="#ArialMT-65" x="322.460938"/>
      <use xlink:href="#ArialMT-6c" x="378.076172"/>
      <use xlink:href="#ArialMT-69" x="400.292969"/>
      <use xlink:href="#ArialMT-68" x="422.509766"/>
      <use xlink:href="#ArialMT-6f" x="478.125"/>
      <use xlink:href="#ArialMT-6f" x="533.740234"/>
      <use xlink:href="#ArialMT-64" x="589.355469"/>
     </g>
    </g>
   </g>
   <g id="line2d_13">
    <path d="M 59.305602 260.02437 
L 59.435477 259.854727 
L 59.467946 259.854727 
L 59.597821 257.923582 
L 60.344601 257.923582 
L 60.409538 261.216 
L 60.442007 258.91113 
L 60.701756 258.839904 
L 60.831631 257.729383 
L 60.993975 257.729383 
L 61.026443 258.255405 
L 61.156318 255.592499 
L 61.221256 255.592499 
L 61.318662 258.833549 
L 61.448537 257.314009 
L 61.481005 257.314009 
L 61.61088 250.198827 
L 61.675817 251.451237 
L 61.838161 246.16577 
L 61.87063 246.455164 
L 62.227785 246.410304 
L 62.455066 243.578594 
L 62.584941 243.578594 
L 62.682347 245.472649 
L 62.812222 242.280258 
L 62.909628 242.280258 
L 62.974566 238.001088 
L 63.071972 238.825929 
L 63.136909 238.825929 
L 63.234315 239.616748 
L 63.266784 239.387698 
L 63.299253 239.387698 
L 63.591471 233.234018 
L 63.656408 233.496404 
L 63.753814 233.496404 
L 63.818752 233.029725 
L 63.948627 234.480594 
L 64.013564 234.480594 
L 64.143439 230.556159 
L 64.208376 230.556159 
L 64.338251 228.982369 
L 64.37072 228.982369 
L 64.403188 229.189783 
L 64.598001 226.862951 
L 64.727875 226.862951 
L 64.825282 227.193314 
L 64.987625 226.463237 
L 65.1175 223.474912 
L 65.182437 223.474912 
L 65.312312 222.29837 
L 65.344781 222.29837 
L 65.409718 220.423464 
L 65.474656 221.072002 
L 65.994155 221.072002 
L 66.026623 221.277827 
L 66.156498 217.886037 
L 66.448717 217.886037 
L 66.61106 218.625653 
L 66.643529 215.908336 
L 66.740935 216.112883 
L 66.87081 216.112883 
L 67.130559 208.347786 
L 67.260434 208.347786 
L 67.585121 201.360603 
L 67.61759 201.360603 
L 67.747465 200.896125 
L 67.877339 200.896125 
L 68.039683 195.993033 
L 68.137089 197.283119 
L 68.169558 198.021751 
L 68.202026 193.610173 
L 68.299433 193.783813 
L 68.331901 192.883936 
L 68.429307 193.127777 
L 68.494245 193.127777 
L 68.656588 196.246114 
L 68.721526 193.773936 
L 68.8514 189.025463 
L 68.981275 189.025463 
L 69.046213 189.932694 
L 69.078681 189.058764 
L 69.176088 189.058764 
L 69.403368 185.666936 
L 69.435837 185.666936 
L 69.468306 185.822661 
L 69.565712 187.326202 
L 69.598181 187.264084 
L 69.760524 187.264084 
L 69.825462 187.118299 
L 69.890399 187.381295 
L 70.150149 181.066032 
L 70.247555 181.066032 
L 70.409898 176.109197 
L 70.539773 174.476181 
L 70.60471 174.820209 
L 70.637179 172.602302 
L 70.702116 173.108908 
L 70.799523 174.262822 
L 70.831991 173.731491 
L 70.86446 173.731491 
L 71.026803 170.527472 
L 71.091741 170.527472 
L 71.221616 166.586486 
L 71.35149 166.741038 
L 71.416428 166.741038 
L 71.448897 167.906666 
L 71.578771 164.332428 
L 71.61124 164.332428 
L 71.741115 158.503184 
L 71.838521 158.582177 
L 71.968396 157.741502 
L 72.098271 157.741502 
L 72.130739 160.883218 
L 72.195677 159.798385 
L 72.35802 154.629559 
L 72.487895 157.692581 
L 72.520364 157.499081 
L 72.61777 157.535512 
L 72.650239 157.535512 
L 72.747645 158.593123 
L 72.780113 158.216783 
L 72.845051 158.216783 
L 72.909988 154.115282 
L 72.974926 154.533738 
L 73.007394 154.209888 
L 73.137269 156.440867 
L 73.267144 153.267337 
L 73.299613 153.267337 
L 73.332081 154.438607 
L 73.36455 152.743402 
L 73.494425 149.722724 
L 73.526893 150.55039 
L 73.559362 150.229048 
L 73.754174 143.200863 
L 73.851581 142.124369 
L 73.884049 143.399813 
L 73.916518 141.69986 
L 74.046393 140.177174 
L 74.078861 140.177174 
L 74.11133 139.275493 
L 74.143799 139.335418 
L 74.176268 144.756772 
L 74.241205 139.155372 
L 74.630829 139.155372 
L 74.760704 139.269279 
L 74.793173 139.269279 
L 75.11786 136.797145 
L 75.507484 136.797145 
L 75.539953 138.969309 
L 75.60489 137.715194 
L 75.767234 131.552405 
L 75.799703 131.100907 
L 75.929577 124.356518 
L 76.12439 124.356518 
L 76.221796 123.362956 
L 76.254264 123.412096 
L 76.351671 123.412096 
L 76.514014 121.164156 
L 76.546483 121.164156 
L 76.643889 118.701493 
L 76.676358 118.897805 
L 76.838701 116.726272 
L 76.87117 116.726272 
L 76.903638 115.807952 
L 76.936107 117.670967 
L 77.260794 117.670967 
L 77.423138 114.185678 
L 77.520544 114.185678 
L 77.715356 116.358699 
L 77.942637 116.358699 
L 78.072512 117.419758 
L 78.884229 117.437937 
L 79.014104 115.860178 
L 79.176448 115.903231 
L 79.306322 118.410514 
L 79.468666 115.126881 
L 79.533603 115.126881 
L 79.631009 111.12919 
L 79.663478 112.135005 
L 79.793353 111.069937 
L 79.890759 111.272206 
L 79.988165 110.889008 
L 80.11804 112.427654 
L 80.182977 112.427654 
L 80.215446 112.666091 
L 80.345321 111.608679 
L 80.475196 111.608679 
L 80.60507 109.787252 
L 80.702477 111.527617 
L 80.86482 106.169838 
L 80.897289 106.169838 
L 81.059632 110.380192 
L 81.12457 110.380192 
L 81.254444 108.295767 
L 81.286913 108.295767 
L 81.351851 107.824217 
L 81.449257 109.018233 
L 81.481725 108.714958 
L 81.6116 106.115852 
L 81.709006 106.115852 
L 81.903818 103.610078 
L 82.033693 103.610078 
L 82.163568 104.320444 
L 82.325912 104.320444 
L 82.455786 102.30853 
L 82.488255 102.30853 
L 82.812942 98.973168 
L 82.87788 98.973168 
L 82.975286 99.607914 
L 83.007754 99.595793 
L 83.299973 93.215353 
L 83.332441 93.215353 
L 83.462316 90.820913 
L 83.527254 90.820913 
L 83.559722 90.657304 
L 83.689597 89.239481 
L 83.722066 89.239481 
L 83.754534 91.346616 
L 83.819472 90.17301 
L 83.851941 90.17301 
L 83.981815 87.897702 
L 85.313032 87.850903 
L 85.475376 89.898717 
L 85.540313 89.898717 
L 85.702657 87.065473 
L 85.897469 87.065473 
L 86.027344 85.358442 
L 86.222156 85.358442 
L 86.352031 86.409977 
L 86.481905 82.227346 
L 86.546843 82.227346 
L 86.61178 84.383073 
L 86.676718 83.681282 
L 86.709186 83.681282 
L 86.774124 85.911507 
L 86.903998 80.636656 
L 86.936467 80.636656 
L 87.098811 74.564981 
L 87.228685 74.916838 
L 87.391029 74.916838 
L 87.520904 74.594106 
L 88.040403 74.594106 
L 88.137809 72.847372 
L 88.202747 76.590862 
L 88.267684 75.73988 
L 88.36509 75.73988 
L 88.494965 73.490994 
L 88.527434 73.490994 
L 88.657308 73.860422 
L 88.852121 73.860422 
L 88.981995 70.07756 
L 89.046933 72.326128 
L 89.079401 69.58867 
L 89.144339 69.58867 
L 89.306682 66.896219 
L 89.566432 66.896219 
L 89.696307 66.53728 
L 90.085931 66.53728 
L 90.215806 66.730475 
L 90.962586 66.72012 
L 91.092461 65.628705 
L 91.157398 65.628705 
L 91.287273 65.013992 
L 91.319742 65.013992 
L 91.449617 64.229343 
L 92.813302 64.183909 
L 92.845771 64.52558 
L 92.87824 63.920659 
L 93.073052 63.920659 
L 93.137989 65.940023 
L 93.170458 64.790299 
L 93.235395 64.790299 
L 93.267864 64.63657 
L 93.397739 60.417529 
L 93.657488 60.417529 
L 93.787363 59.279434 
L 93.819832 59.279434 
L 93.949707 66.608228 
L 94.079581 59.075634 
L 94.144519 59.075634 
L 94.274394 58.762535 
L 94.923768 58.717644 
L 95.053643 59.177649 
L 95.930297 59.177649 
L 96.060172 59.844444 
L 96.12511 59.844444 
L 96.254984 60.104444 
L 96.579671 60.104444 
L 96.742015 62.265816 
L 96.839421 62.265816 
L 96.904359 61.271025 
L 97.034233 62.76614 
L 97.293983 62.76614 
L 97.423858 61.405503 
L 97.456326 61.405503 
L 97.586201 61.771969 
L 97.716076 60.931077 
L 97.781013 60.931077 
L 97.910888 59.170542 
L 98.040763 59.170542 
L 98.332981 54.128134 
L 98.527794 54.128134 
L 98.657668 52.916131 
L 101.969476 52.916131 
L 102.034413 53.866426 
L 102.066882 53.24103 
L 102.196757 53.24103 
L 102.326632 52.769423 
L 103.040943 52.769423 
L 103.170818 51.138261 
L 103.300693 55.226132 
L 103.333161 54.650798 
L 103.36563 52.538271 
L 103.463036 52.875954 
L 103.592911 52.875954 
L 103.722786 52.539301 
L 103.755255 52.539301 
L 103.885129 51.058789 
L 103.950067 51.058789 
L 104.11241 48.417255 
L 104.534503 48.417255 
L 104.696847 47.211139 
L 105.054003 47.211139 
L 105.281283 43.673311 
L 107.521624 43.673311 
L 107.651499 48.923946 
L 107.781373 48.171995 
L 108.106061 48.171995 
L 108.235935 49.385121 
L 108.300873 49.385121 
L 108.430748 46.513639 
L 108.722966 46.513639 
L 108.852841 47.437031 
L 109.015184 47.437031 
L 109.145059 49.267904 
L 109.826902 49.267904 
L 109.956776 50.740917 
L 110.054183 50.636574 
L 110.184057 49.676062 
L 110.508744 49.756608 
L 110.638619 50.467698 
L 110.703557 50.467698 
L 110.736025 50.631693 
L 110.768494 50.435223 
L 110.800963 50.435223 
L 111.223056 50.435223 
L 111.352931 49.559433 
L 112.326992 49.559433 
L 112.424398 49.990004 
L 112.554273 49.11631 
L 112.781554 49.11631 
L 112.911428 47.384295 
L 113.495865 47.384295 
L 113.62574 46.740828 
L 113.658208 46.740828 
L 113.723146 48.494724 
L 113.788083 47.88282 
L 113.950427 45.624598 
L 114.080302 45.624598 
L 114.145239 46.448456 
L 114.275114 45.007151 
L 114.404989 44.458848 
L 115.281644 44.458848 
L 115.411518 44.739861 
L 115.573862 44.739861 
L 115.703737 44.886063 
L 115.736205 44.886063 
L 115.898549 43.215596 
L 115.963486 43.215596 
L 116.060892 43.773243 
L 116.190767 42.15462 
L 116.320642 42.15462 
L 116.450517 41.802955 
L 116.61286 41.802955 
L 116.742735 38.087168 
L 118.62592 38.087168 
L 118.755795 41.293522 
L 118.853201 41.293522 
L 118.983075 38.896909 
L 119.048013 41.977965 
L 119.080482 40.391339 
L 119.242825 40.391339 
L 119.307762 39.526068 
L 119.3727 39.589935 
L 119.405169 39.589935 
L 119.535043 39.752354 
L 119.567512 39.752354 
L 119.599981 40.665102 
L 119.729856 36.384079 
L 119.794793 36.384079 
L 119.924668 37.629499 
L 120.087011 37.629499 
L 120.216886 35.491082 
L 120.541573 35.491082 
L 120.671448 37.976673 
L 120.703917 37.976673 
L 120.833791 38.653634 
L 121.028604 38.653634 
L 121.158478 39.446939 
L 121.288353 39.446939 
L 121.353291 39.187974 
L 121.515634 35.957082 
L 121.775384 35.957082 
L 121.905259 36.10845 
L 122.002665 36.10845 
L 122.13254 33.67464 
L 122.262414 34.661522 
L 122.716976 34.661522 
L 122.846851 34.876749 
L 123.950787 34.876749 
L 124.080662 36.550777 
L 124.11313 36.550777 
L 124.37288 35.866522 
L 124.502755 36.278043 
L 124.85991 36.278043 
L 124.989785 37.127862 
L 125.217066 37.127862 
L 125.346941 37.263277 
L 125.476816 37.331461 
L 125.606691 39.311096 
L 125.671628 39.311096 
L 125.801503 35.043689 
L 128.62628 35.043689 
L 128.691217 38.637987 
L 128.756155 37.354351 
L 128.886029 33.477346 
L 130.022434 33.477346 
L 130.152309 33.900358 
L 130.476996 33.900358 
L 130.606871 33.24289 
L 134.275834 33.24289 
L 134.405709 34.815398 
L 134.470646 34.815398 
L 134.600521 32.381325 
L 134.892739 32.457365 
L 135.022614 32.007968 
L 135.087551 32.007968 
L 135.184957 31.119078 
L 135.282364 32.3535 
L 135.412238 31.162191 
L 135.542113 31.410291 
L 135.964206 31.410291 
L 136.094081 31.108066 
L 136.386299 31.108066 
L 136.516174 33.062486 
L 136.743455 33.062486 
L 136.775924 33.857055 
L 136.808393 32.536979 
L 137.198017 32.536979 
L 137.327892 32.885179 
L 137.814922 32.885179 
L 137.944797 31.841892 
L 138.107141 31.841892 
L 138.172078 32.122814 
L 138.269484 31.59732 
L 138.334422 36.879183 
L 138.36689 34.638098 
L 138.464296 34.638098 
L 138.594171 35.203487 
L 138.756515 35.203487 
L 138.886389 32.894929 
L 138.951327 32.894929 
L 139.081202 33.328187 
L 139.178608 33.328187 
L 139.276014 33.841134 
L 139.405889 33.254927 
L 139.86045 33.254927 
L 139.990325 32.820167 
L 140.1202 35.339111 
L 140.477356 35.339111 
L 140.607231 34.551988 
L 140.769574 34.551988 
L 140.834512 34.270481 
L 140.964386 35.168749 
L 141.224136 35.168749 
L 141.354011 35.315421 
L 141.451417 35.315421 
L 141.581292 35.038507 
L 141.808573 35.652727 
L 141.938447 35.652727 
L 142.068322 35.138925 
L 142.328072 35.102499 
L 142.457947 33.917407 
L 142.587821 33.992733 
L 142.62029 33.992733 
L 142.782634 31.881866 
L 142.847571 31.881866 
L 142.977446 30.050143 
L 146.159379 30.050143 
L 146.289253 31.326457 
L 146.938627 31.326457 
L 147.068502 31.95198 
L 147.555533 31.95198 
L 147.652939 33.195527 
L 147.685408 32.883076 
L 147.782814 31.491516 
L 147.815282 32.022276 
L 147.912688 32.022276 
L 148.042563 30.635754 
L 148.107501 30.635754 
L 148.237375 31.814554 
L 148.464656 31.814554 
L 148.562062 31.998626 
L 148.594531 31.941594 
L 148.659469 31.941594 
L 148.789343 29.367468 
L 149.925748 29.367468 
L 150.055623 31.349748 
L 150.315372 34.086677 
L 150.445247 31.944992 
L 150.477716 33.678762 
L 150.575122 33.348807 
L 150.704997 32.811924 
L 150.86734 32.811924 
L 150.997215 31.76442 
L 151.938807 31.76442 
L 151.971276 33.828856 
L 152.036214 32.812876 
L 152.425838 32.764446 
L 152.555713 32.375738 
L 152.588181 32.375738 
L 152.62065 33.634576 
L 152.685588 32.591337 
L 152.718056 32.591337 
L 152.750525 33.789822 
L 152.782994 31.331369 
L 152.847931 28.938962 
L 152.912868 29.700696 
L 153.140149 29.700696 
L 153.270024 29.845528 
L 153.432368 29.845528 
L 153.562242 31.175468 
L 153.724586 31.175468 
L 153.789523 31.315163 
L 153.919398 29.354309 
L 153.984336 30.165446 
L 154.016804 29.095265 
L 154.146679 29.095265 
L 154.276554 29.619076 
L 154.309023 29.619076 
L 154.406429 30.045074 
L 154.568772 27.355383 
L 154.698647 27.355383 
L 154.828522 26.118078 
L 155.510365 26.118078 
L 155.640239 25.836724 
L 155.672708 25.836724 
L 155.802583 25.253305 
L 155.997395 25.253305 
L 156.12727 27.868424 
L 156.224676 27.868424 
L 156.38702 28.330476 
L 156.451957 26.912604 
L 156.484426 29.135355 
L 156.516894 27.38197 
L 156.581832 25.016007 
L 156.6143 26.040688 
L 156.744175 26.040688 
L 156.809113 26.921619 
L 156.841581 25.80956 
L 156.971456 24.070004 
L 158.237735 24.06779 
L 158.270204 24.718188 
L 158.36761 24.530114 
L 158.529954 24.530114 
L 158.659829 24.095055 
L 159.049453 24.095055 
L 159.179328 23.918121 
L 160.218326 23.918121 
L 160.348201 24.27537 
L 161.419668 24.27537 
L 161.582012 28.538042 
L 161.711887 25.02764 
L 161.971636 25.02764 
L 162.101511 24.470036 
L 162.231386 24.178667 
L 162.458667 24.178667 
L 162.62101 26.095212 
L 162.750885 23.789173 
L 162.815822 23.789173 
L 162.945697 24.786904 
L 163.010635 24.786904 
L 163.140509 25.164056 
L 163.237916 25.164056 
L 163.302853 24.990745 
L 163.432728 23.761167 
L 163.757415 23.761167 
L 163.88729 24.462842 
L 164.341851 24.462842 
L 164.536664 22.495578 
L 171.744715 22.495578 
L 171.907059 26.613108 
L 171.939527 26.613108 
L 172.004465 27.639147 
L 172.069402 27.519059 
L 172.199277 28.028385 
L 172.329152 25.139168 
L 172.491495 25.139168 
L 172.62137 26.261716 
L 172.653839 25.198358 
L 172.751245 25.539338 
L 172.816182 25.539338 
L 172.946057 26.8825 
L 173.075932 26.801388 
L 173.140869 26.801388 
L 173.36815 26.185952 
L 173.920118 26.185952 
L 174.049993 24.837584 
L 175.608491 24.837584 
L 175.738366 28.116109 
L 175.835772 28.157674 
L 176.030584 23.912106 
L 176.192927 25.988234 
L 176.225396 25.988234 
L 176.355271 24.325329 
L 176.452677 24.325329 
L 176.550083 25.218137 
L 176.679958 23.43865 
L 176.777364 23.43865 
L 176.907239 20.9783 
L 177.166988 20.9783 
L 177.231926 26.358596 
L 177.296863 26.321476 
L 177.394269 26.321476 
L 177.426738 26.926442 
L 177.459207 25.662029 
L 177.491675 26.480393 
L 177.589082 26.480393 
L 177.718956 23.992324 
L 178.076112 24.086129 
L 178.205987 26.90602 
L 178.238456 26.90602 
L 178.36833 24.645595 
L 178.725486 24.645595 
L 178.88783 23.440953 
L 180.12164 23.440953 
L 180.251515 24.095537 
L 180.576202 24.028839 
L 180.641139 25.568936 
L 180.771014 23.034156 
L 180.86842 23.944578 
L 180.900889 23.656473 
L 181.030764 23.656473 
L 181.063233 23.517759 
L 181.193107 24.340685 
L 181.322982 24.238784 
L 181.38792 24.238784 
L 181.517794 23.638176 
L 181.680138 23.638176 
L 181.745075 26.320894 
L 181.810013 26.296921 
L 181.907419 26.296921 
L 182.004825 26.731731 
L 182.037294 26.56792 
L 182.102231 26.89389 
L 182.1347 26.840469 
L 182.264575 24.41902 
L 182.394449 24.160553 
L 183.271104 24.116308 
L 183.400979 24.875007 
L 183.465916 22.109074 
L 183.498385 27.186816 
L 183.595791 25.617082 
L 183.855541 25.617082 
L 183.952947 27.594353 
L 184.017884 26.809363 
L 184.050353 28.898797 
L 184.115291 26.673933 
L 184.245165 26.673933 
L 184.37504 27.543549 
L 184.472446 27.543549 
L 184.602321 26.773239 
L 184.991945 26.743512 
L 185.024414 28.20937 
L 185.056883 26.622018 
L 185.251695 23.40717 
L 185.8686 23.40717 
L 186.030944 25.321075 
L 186.063413 25.321075 
L 186.258225 22.832373 
L 186.550443 22.832373 
L 186.680318 24.212279 
L 186.940068 24.212279 
L 187.069942 25.295651 
L 187.199817 25.295651 
L 187.297223 23.505236 
L 187.329692 23.796971 
L 187.394629 23.796971 
L 187.427098 23.675359 
L 187.556973 24.266479 
L 187.62191 24.266479 
L 187.816722 26.968521 
L 188.011535 26.968521 
L 188.141409 25.582566 
L 188.206347 25.582566 
L 188.336222 23.64544 
L 189.310283 23.677294 
L 189.440158 23.533557 
L 189.829782 23.533557 
L 189.959657 24.719927 
L 190.057063 24.719927 
L 190.186938 23.079863 
L 191.031124 23.079863 
L 191.096061 24.441618 
L 191.160999 24.430006 
L 191.485686 24.430006 
L 191.615561 25.748528 
L 191.680498 25.748528 
L 191.810373 25.22932 
L 191.842841 25.22932 
L 191.940248 26.231535 
L 192.070122 25.271317 
L 192.427278 25.271317 
L 192.557153 26.800209 
L 192.62209 26.800209 
L 192.751965 25.415857 
L 193.044183 25.415857 
L 193.206527 25.110499 
L 193.303933 25.110499 
L 193.433808 24.160384 
L 194.894899 24.160384 
L 195.024774 26.61558 
L 195.12218 26.652768 
L 195.154649 25.797736 
L 195.187118 27.080563 
L 195.349461 26.983459 
L 195.511805 27.589579 
L 195.64168 27.589579 
L 195.706617 28.773078 
L 195.86896 23.034973 
L 196.096241 23.034973 
L 196.226116 25.188072 
L 196.453397 25.152592 
L 196.583272 23.364227 
L 196.940428 23.364227 
L 197.070302 23.632103 
L 197.427458 23.632103 
L 197.524864 24.552351 
L 197.654739 22.481099 
L 197.88202 22.481099 
L 198.044363 23.489484 
L 198.076832 23.473118 
L 198.109301 25.451452 
L 198.14177 23.373743 
L 198.174238 23.373743 
L 198.498925 23.373743 
L 198.6288 24.089285 
L 198.985956 24.089285 
L 199.018424 25.479791 
L 199.083362 24.606245 
L 199.115831 24.606245 
L 199.213237 25.939455 
L 199.278174 24.039869 
L 199.343111 25.280119 
L 200.12236 25.280119 
L 200.252235 24.590255 
L 200.544453 24.590255 
L 200.609391 24.946947 
L 200.771734 23.702879 
L 200.901609 23.702879 
L 201.096421 22.59641 
L 201.421108 22.59641 
L 201.550983 23.288101 
L 201.680858 23.288101 
L 201.810733 21.377704 
L 201.908139 21.377704 
L 202.038014 20.536436 
L 204.63551 20.536436 
L 204.765385 23.058195 
L 205.025134 23.058195 
L 205.057603 22.920025 
L 205.219946 25.858331 
L 205.317353 25.858331 
L 205.447227 23.13929 
L 205.479696 23.13929 
L 205.512165 25.320844 
L 205.544633 21.336583 
L 205.739446 21.336583 
L 205.86932 21.630718 
L 206.323882 21.630718 
L 206.453757 22.446836 
L 206.745975 22.446836 
L 206.810913 24.235244 
L 206.843382 23.628362 
L 206.87585 22.357406 
L 206.908319 25.01693 
L 207.070662 23.680775 
L 207.362881 23.680775 
L 207.395349 24.483097 
L 207.460287 23.942418 
L 207.590162 22.089975 
L 208.077192 22.089975 
L 208.207067 22.209262 
L 208.336942 24.17526 
L 208.36941 24.153917 
L 208.564223 24.259869 
L 208.694097 24.561437 
L 208.986316 24.561437 
L 209.116191 21.925002 
L 209.213597 21.963107 
L 209.343472 23.618763 
L 209.440878 23.618763 
L 209.603221 21.863446 
L 209.733096 21.863446 
L 209.862971 21.217692 
L 210.772094 21.217692 
L 210.901969 22.251239 
L 211.226656 22.251239 
L 211.356531 23.938422 
L 211.713687 23.938422 
L 211.940968 22.603884 
L 212.038374 22.603884 
L 212.168249 22.040461 
L 212.687748 22.040461 
L 212.817623 21.891893 
L 212.915029 22.395831 
L 213.207247 19.296 
L 221.421828 19.296 
L 221.454297 22.497147 
L 221.551703 21.81926 
L 221.681578 20.831986 
L 221.811453 20.831986 
L 222.006265 23.301123 
L 222.13614 23.410092 
L 222.168609 24.335877 
L 222.233546 21.960552 
L 222.266015 23.116684 
L 222.428358 23.116684 
L 222.558233 21.982403 
L 222.720576 21.982403 
L 222.753045 21.845497 
L 222.88292 22.952043 
L 223.077732 22.952043 
L 223.207607 21.906545 
L 223.921918 21.953188 
L 223.954387 23.589546 
L 224.019325 22.649299 
L 224.214137 22.649299 
L 224.344012 23.986762 
L 224.37648 23.986762 
L 224.441418 25.739645 
L 224.571292 22.472194 
L 224.63623 22.472194 
L 224.766105 21.90039 
L 225.610291 21.90039 
L 225.675228 23.852622 
L 225.740166 23.500826 
L 225.772634 23.500826 
L 225.902509 22.273465 
L 226.032384 24.137595 
L 226.064853 24.238347 
L 226.097321 24.19833 
L 226.227196 21.602291 
L 226.324602 21.602291 
L 226.454477 21.351024 
L 226.87657 21.351024 
L 227.006445 21.535878 
L 227.038914 21.535878 
L 227.168789 22.178085 
L 227.233726 22.178085 
L 227.363601 21.417143 
L 227.818163 21.417143 
L 227.8831 20.689739 
L 227.915569 21.394945 
L 228.045444 21.394945 
L 228.175318 20.726338 
L 228.500005 20.726338 
L 228.662349 24.340594 
L 228.727286 24.340594 
L 228.987036 22.181945 
L 229.603941 22.256311 
L 229.63641 22.450649 
L 229.668879 22.09628 
L 229.831222 22.072317 
L 229.961097 22.484383 
L 230.058503 22.484383 
L 230.188378 19.333964 
L 247.13704 19.333964 
L 247.266915 21.481081 
L 247.39679 21.481081 
L 247.461727 23.946423 
L 247.526664 23.572521 
L 247.721477 23.572521 
L 247.818883 23.040943 
L 247.851351 23.197311 
L 248.14357 23.223677 
L 248.273445 22.116767 
L 248.370851 22.116767 
L 248.500725 20.32274 
L 255.286684 20.32274 
L 255.319153 24.910523 
L 255.416559 23.22895 
L 255.481496 23.22895 
L 255.611371 22.440102 
L 256.39062 22.540787 
L 256.552963 22.579032 
L 256.715307 22.579032 
L 256.845182 22.458425 
L 257.007525 22.458425 
L 257.267275 20.760483 
L 259.799834 20.760483 
L 259.929708 24.250439 
L 260.027114 24.250439 
L 260.156989 21.789692 
L 260.611551 21.789692 
L 260.741426 20.601402 
L 262.722017 20.601402 
L 262.851891 22.706701 
L 262.88436 22.706701 
L 263.014235 24.200577 
L 263.046704 24.200577 
L 263.079172 22.947648 
L 263.176578 23.137966 
L 263.825952 23.137966 
L 263.955827 22.616294 
L 264.020765 22.616294 
L 264.15064 21.618687 
L 264.89742 21.618687 
L 265.027294 23.508315 
L 265.709137 23.508315 
L 265.839012 24.866949 
L 266.001355 24.866949 
L 266.261105 21.891086 
L 266.683198 21.891086 
L 266.813073 23.259439 
L 267.267635 23.259439 
L 267.39751 24.740778 
L 267.592322 22.728712 
L 267.787134 22.728712 
L 267.917009 23.606393 
L 267.981946 23.606393 
L 268.111821 21.960812 
L 268.176758 21.960812 
L 268.241696 23.502818 
L 268.306633 22.918349 
L 268.793664 22.918349 
L 268.923539 24.139469 
L 268.988476 23.276529 
L 269.053413 23.434026 
L 269.248226 23.434026 
L 269.3781 22.322825 
L 269.410569 22.322825 
L 269.540444 20.818055 
L 270.38463 20.818055 
L 270.514505 21.136854 
L 270.546974 21.136854 
L 270.676848 21.395091 
L 271.13141 21.395091 
L 271.261285 21.661576 
L 271.39116 21.661576 
L 271.521035 21.468141 
L 272.040534 21.468141 
L 272.170409 21.306915 
L 272.365221 21.306915 
L 272.495096 22.6145 
L 272.949658 22.6145 
L 273.047064 23.375562 
L 273.176938 22.202472 
L 273.371751 22.202472 
L 273.501626 22.66666 
L 273.728906 22.66666 
L 273.858781 21.466465 
L 274.475687 21.505327 
L 274.605561 20.388641 
L 277.657619 20.388641 
L 277.787494 21.271861 
L 277.949838 21.271861 
L 278.079712 21.740389 
L 279.63821 21.740389 
L 279.768085 21.902626 
L 280.092772 21.902626 
L 280.222647 21.330523 
L 280.287584 21.330523 
L 280.352522 23.852776 
L 280.417459 23.284824 
L 280.742146 23.284824 
L 280.872021 22.90615 
L 281.229176 22.90615 
L 281.261645 23.637321 
L 281.359051 23.352182 
L 281.456457 23.352182 
L 281.586332 23.737226 
L 281.748676 23.737226 
L 281.87855 24.844986 
L 281.975957 24.844986 
L 282.040894 27.463989 
L 282.073363 27.224381 
L 282.203237 24.091091 
L 282.333112 25.317835 
L 282.462987 25.317835 
L 282.495456 26.265533 
L 282.560393 25.102928 
L 282.592862 25.102928 
L 282.722737 23.5594 
L 282.852612 23.441205 
L 282.88508 23.441205 
L 283.014955 23.663824 
L 284.540984 23.721709 
L 284.670859 25.357367 
L 284.768265 25.994289 
L 284.930608 24.479431 
L 284.963077 24.479431 
L 285.092952 22.384661 
L 285.579982 22.384661 
L 285.709857 25.154788 
L 285.807263 25.154788 
L 285.937138 24.559962 
L 286.326763 24.554294 
L 286.456637 23.523592 
L 286.813793 23.523592 
L 286.943668 23.048647 
L 286.976137 23.181145 
L 287.106011 22.223861 
L 287.982666 22.223861 
L 288.112541 23.263467 
L 288.209947 21.796014 
L 288.274885 22.942197 
L 288.339822 22.843354 
L 288.761915 22.864846 
L 288.794384 23.794046 
L 288.826853 22.821717 
L 288.859321 22.821717 
L 288.89179 22.821717 
L 289.021665 22.503674 
L 289.378821 22.503674 
L 289.508695 22.320041 
L 289.800914 22.320041 
L 289.930788 23.099862 
L 290.060663 22.276751 
L 290.093132 22.276751 
L 290.158069 22.08501 
L 290.287944 22.717327 
L 290.320413 22.717327 
L 290.450288 24.988842 
L 290.612631 24.988842 
L 290.677569 23.901645 
L 290.742506 24.283112 
L 290.807443 24.283112 
L 290.904849 24.485076 
L 291.034724 24.05471 
L 291.067193 24.05471 
L 291.229536 23.058395 
L 291.262005 22.95118 
L 291.39188 20.701969 
L 291.943848 20.701969 
L 292.008785 20.936252 
L 292.13866 22.946224 
L 292.203598 22.946224 
L 292.333472 23.9662 
L 292.365941 23.9662 
L 292.495816 22.332768 
L 292.690628 22.297101 
L 292.723097 22.695132 
L 292.755565 21.732033 
L 293.080252 21.732033 
L 293.14519 24.673491 
L 293.177659 23.155477 
L 293.210127 23.155477 
L 293.340002 22.596925 
L 293.534814 22.596925 
L 293.664689 24.344633 
L 293.729626 24.344633 
L 293.859501 20.483135 
L 294.249126 20.483135 
L 294.379001 24.17347 
L 294.443938 24.17347 
L 294.508875 25.152858 
L 294.63875 23.354619 
L 294.833562 27.190247 
L 294.866031 23.113254 
L 294.963437 23.372996 
L 295.060843 23.372996 
L 295.190718 23.645058 
L 295.255655 23.645058 
L 295.288124 24.288557 
L 295.320593 22.966983 
L 295.515405 23.008006 
L 295.64528 23.413303 
L 296.13231 23.413303 
L 296.262185 24.293043 
L 296.619341 24.293043 
L 296.749216 23.682652 
L 296.814153 23.682652 
L 296.944028 21.755172 
L 297.236246 21.755172 
L 297.333652 24.187705 
L 297.463527 20.632742 
L 297.820683 20.632742 
L 297.950558 22.873675 
L 298.307713 22.873675 
L 298.437588 23.154869 
L 298.6324 23.154869 
L 298.762275 21.285942 
L 298.89215 21.285942 
L 299.022025 21.438028 
L 299.249306 21.438028 
L 299.444118 23.164904 
L 299.541524 23.164904 
L 299.671399 23.34979 
L 299.996086 23.34979 
L 300.158429 24.076199 
L 300.190898 24.076199 
L 300.223367 24.632911 
L 300.288304 24.381274 
L 300.483116 24.357533 
L 300.612991 23.769396 
L 302.528645 23.817949 
L 302.561113 23.325847 
L 302.593582 23.830506 
L 302.658519 23.502537 
L 302.853332 23.502537 
L 302.983206 24.062911 
L 303.113081 24.062911 
L 303.14555 24.660038 
L 303.178019 24.411937 
L 303.307893 23.693168 
L 303.567643 23.693168 
L 303.697518 22.732015 
L 304.022205 22.732015 
L 304.15208 22.33824 
L 304.281954 24.462801 
L 304.411829 24.276812 
L 304.63911 24.276812 
L 304.768985 22.766576 
L 304.996266 22.766576 
L 305.126141 21.06596 
L 305.418359 21.06596 
L 305.548234 22.098187 
L 305.613171 22.098187 
L 305.775515 27.505768 
L 305.90539 24.327215 
L 306.035264 24.327215 
L 306.165139 23.646318 
L 306.587232 23.702406 
L 306.717107 22.805822 
L 308.243136 22.805822 
L 308.373011 24.417773 
L 308.665229 24.393766 
L 308.730167 26.951251 
L 308.762635 24.187447 
L 308.89251 22.980276 
L 309.217197 22.980276 
L 309.347072 23.849224 
L 309.379541 23.849224 
L 309.412009 25.843622 
L 309.509415 25.745831 
L 309.541884 25.745831 
L 309.801634 22.491913 
L 309.89904 22.491913 
L 309.931508 23.765356 
L 309.963977 21.214624 
L 310.548414 21.214624 
L 310.613351 22.673634 
L 310.64582 20.673733 
L 311.782224 20.673733 
L 311.912099 22.11297 
L 312.39913 22.11297 
L 312.529005 22.753678 
L 312.561473 22.753678 
L 312.691348 22.411747 
L 312.821223 23.387198 
L 312.951098 27.051812 
L 312.983566 27.051812 
L 313.113441 25.026657 
L 313.40566 25.026657 
L 313.438128 27.116926 
L 313.535534 26.623227 
L 313.568003 26.623227 
L 313.697878 24.409075 
L 314.055034 24.409075 
L 314.347252 22.924039 
L 314.704408 22.924039 
L 314.834282 22.718027 
L 319.347432 22.641308 
L 319.477307 22.345822 
L 319.672119 22.345822 
L 319.801994 24.914861 
L 319.834462 24.914861 
L 319.964337 24.072495 
L 319.996806 24.072495 
L 320.094212 26.023771 
L 320.126681 25.487631 
L 320.256556 25.487631 
L 320.289024 26.70757 
L 320.353962 25.845533 
L 320.38643 25.845533 
L 320.516305 25.510426 
L 320.581243 25.510426 
L 320.776055 24.704274 
L 320.90593 24.704274 
L 320.970867 25.52655 
L 321.003336 24.453717 
L 321.100742 24.453717 
L 321.230617 21.967139 
L 321.490366 21.967139 
L 321.587772 24.363499 
L 321.750116 21.493662 
L 322.464427 21.493662 
L 322.626771 23.637328 
L 322.691708 23.637328 
L 322.854052 24.012466 
L 323.276145 24.012466 
L 323.40602 24.587212 
L 323.535894 24.587212 
L 323.665769 24.797333 
L 323.828113 24.72031 
L 323.957988 23.939108 
L 324.087862 25.924811 
L 324.185268 25.924811 
L 324.315143 24.152501 
L 324.574893 24.152501 
L 324.704768 23.974744 
L 326.620421 23.974744 
L 326.750296 25.065891 
L 326.880171 25.065891 
L 327.010045 25.777204 
L 327.204858 25.777204 
L 327.334732 22.615596 
L 328.14645 22.615596 
L 328.178919 26.570423 
L 328.243856 24.023817 
L 328.633481 24.023817 
L 328.763355 24.346057 
L 328.958168 24.346057 
L 329.055574 25.779474 
L 329.185448 21.284294 
L 329.412729 21.284294 
L 329.542604 23.047364 
L 329.575073 23.047364 
L 329.64001 24.085689 
L 329.672479 23.103623 
L 329.704948 23.103623 
L 329.769885 23.644029 
L 329.802354 23.184936 
L 330.062103 23.198505 
L 330.191978 22.555765 
L 330.289384 22.555765 
L 330.419259 22.794266 
L 330.64654 22.794266 
L 330.776415 22.27452 
L 330.873821 22.27452 
L 330.90629 22.692026 
L 330.938758 22.264312 
L 330.971227 22.264312 
L 331.198508 22.264312 
L 331.360851 22.871678 
L 331.490726 22.871678 
L 331.523195 22.685517 
L 331.782945 27.099506 
L 331.912819 23.852209 
L 332.010225 23.852209 
L 332.1401 21.807949 
L 332.39985 21.807949 
L 332.464787 23.409138 
L 332.529725 23.087613 
L 332.724537 23.087613 
L 332.821943 23.61929 
L 332.854412 23.351294 
L 332.951818 23.351294 
L 333.081693 21.82265 
L 333.14663 21.82265 
L 333.276505 22.13028 
L 333.438848 22.13028 
L 333.568723 21.778056 
L 333.633661 23.401634 
L 333.666129 22.301015 
L 333.796004 22.301015 
L 333.925879 21.718479 
L 334.023285 21.718479 
L 334.15316 21.565606 
L 334.380441 24.290664 
L 334.510315 21.239294 
L 334.672659 21.239294 
L 334.705128 22.485995 
L 334.770065 21.854821 
L 335.094752 21.854821 
L 335.224627 22.349718 
L 335.90647 22.349718 
L 336.036344 21.718219 
L 336.166219 21.798589 
L 336.296094 22.589092 
L 336.750656 22.589092 
L 336.880531 22.245626 
L 337.075343 22.245626 
L 337.237686 24.614971 
L 337.335092 23.411448 
L 337.464967 24.988405 
L 337.497436 24.988405 
L 337.562373 24.087157 
L 337.627311 25.468408 
L 337.757186 21.207087 
L 338.14681 21.207087 
L 338.276685 22.870161 
L 338.40656 23.318182 
L 338.439028 23.318182 
L 338.503966 27.107097 
L 338.601372 22.082844 
L 338.633841 22.432719 
L 338.731247 22.432719 
L 338.861121 20.619766 
L 339.120871 20.619766 
L 339.15334 22.463986 
L 339.218277 21.184908 
L 339.283215 21.184908 
L 339.380621 22.969597 
L 339.510495 21.837541 
L 339.64037 22.117012 
L 339.835183 22.117012 
L 339.965057 22.496084 
L 340.257276 22.598561 
L 340.322213 22.758799 
L 340.452088 25.12632 
L 340.581963 23.547783 
L 340.776775 23.547783 
L 340.90665 23.124288 
L 341.101462 23.124288 
L 341.231337 24.282985 
L 341.361211 24.282985 
L 341.39368 23.614161 
L 341.426149 24.381134 
L 341.491086 23.681096 
L 341.523555 23.681096 
L 341.556024 24.069473 
L 341.685898 22.282068 
L 342.14046 22.325848 
L 342.270335 23.865137 
L 342.497616 23.865137 
L 342.627491 22.821321 
L 342.724897 22.821321 
L 342.789834 21.960517 
L 342.854772 22.221901 
L 343.374271 22.174176 
L 343.504146 23.031885 
L 343.569083 23.031885 
L 343.698958 24.047049 
L 343.731427 24.047049 
L 343.861301 20.448138 
L 346.231517 20.448138 
L 346.361391 23.35456 
L 346.718547 23.347112 
L 346.848422 23.925859 
L 346.978297 22.795041 
L 347.88742 22.795041 
L 348.017295 23.039667 
L 348.244576 23.039667 
L 348.277045 23.198653 
L 348.40692 24.235787 
L 348.504326 24.235787 
L 348.601732 23.005862 
L 348.731607 24.433172 
L 349.121231 24.433172 
L 349.348512 21.541107 
L 349.478387 21.541107 
L 349.64073 24.329337 
L 349.673199 24.750993 
L 349.803074 22.659008 
L 349.868011 22.659008 
L 349.932949 24.167589 
L 349.997886 23.894579 
L 350.16023 19.882465 
L 350.419979 19.882465 
L 350.517385 23.595715 
L 350.549854 23.403098 
L 350.679729 23.403098 
L 350.809604 23.280236 
L 350.842072 23.280236 
L 350.971947 22.295748 
L 351.004416 22.295748 
L 351.069353 21.894952 
L 351.199228 24.098729 
L 351.231697 24.098729 
L 351.264165 25.283863 
L 351.329103 24.475615 
L 351.361572 21.761487 
L 351.458978 21.983362 
L 351.491446 22.073184 
L 351.523915 23.938038 
L 351.621321 23.922901 
L 351.65379 23.940172 
L 351.783665 24.685725 
L 351.913539 24.685725 
L 352.043414 22.449381 
L 352.14082 22.449381 
L 352.238226 22.927508 
L 352.270695 27.760116 
L 352.335633 24.10855 
L 352.497976 23.466105 
L 352.822663 23.466105 
L 352.952538 23.108668 
L 352.985007 23.108668 
L 353.049944 23.694133 
L 353.179819 22.515126 
L 353.277225 22.515126 
L 353.4071 22.733079 
L 353.601912 20.784792 
L 354.998066 20.784792 
L 355.16041 21.507509 
L 355.452628 21.507509 
L 355.582503 22.85186 
L 355.842252 22.85186 
L 355.972127 22.005887 
L 356.004596 23.44613 
L 356.037065 20.643659 
L 358.504686 20.643659 
L 358.634561 23.088079 
L 359.381341 23.088079 
L 359.413809 24.392681 
L 359.478747 23.541305 
L 359.608622 21.812042 
L 359.673559 21.812042 
L 359.803434 23.24426 
L 359.933309 22.569132 
L 360.063183 22.569132 
L 360.193058 22.287439 
L 360.355402 22.287439 
L 360.485277 21.676076 
L 361.589212 21.676076 
L 361.719087 24.57358 
L 362.011306 23.910481 
L 362.043774 23.910481 
L 362.173649 23.147521 
L 362.303524 22.831798 
L 362.433399 22.663282 
L 362.595742 22.663282 
L 362.725617 21.663564 
L 363.277585 21.731386 
L 363.40746 21.533011 
L 364.056834 21.533011 
L 364.186709 22.448516 
L 364.413989 22.448516 
L 364.543864 23.277207 
L 364.673739 20.945171 
L 364.998426 20.945171 
L 365.095832 21.819109 
L 365.128301 21.769292 
L 365.972487 21.769292 
L 366.069893 21.2877 
L 366.199768 22.456225 
L 366.556924 22.456225 
L 366.686799 22.882063 
L 366.881611 22.882063 
L 367.011486 24.086148 
L 367.043954 24.086148 
L 367.14136 22.576463 
L 367.173829 24.279957 
L 367.206298 24.026499 
L 367.336173 21.378535 
L 369.316763 21.378535 
L 369.544044 25.247677 
L 369.64145 25.247677 
L 369.771325 23.419115 
L 370.031075 23.419115 
L 370.16095 24.244886 
L 370.225887 24.244886 
L 370.258356 23.837649 
L 370.290824 24.836443 
L 370.355762 23.991366 
L 370.842792 23.902444 
L 370.972667 24.137105 
L 371.167479 24.137105 
L 371.297354 22.437072 
L 373.797444 22.331445 
L 373.927319 22.053841 
L 374.771505 22.053841 
L 374.90138 23.454488 
L 374.998786 21.80957 
L 375.128661 23.741759 
L 375.258536 23.273678 
L 375.842972 23.273678 
L 375.972847 21.84404 
L 376.102722 21.419071 
L 377.498876 21.463017 
L 377.628751 22.148886 
L 378.050844 22.148886 
L 378.180719 20.524985 
L 378.602812 20.524985 
L 378.732687 23.111982 
L 378.765156 23.111982 
L 378.89503 22.729524 
L 378.927499 22.729524 
L 379.057374 25.648703 
L 379.187249 24.402956 
L 379.284655 24.402956 
L 379.317123 25.933906 
L 379.349592 23.567871 
L 380.128841 23.567871 
L 380.258716 24.2947 
L 380.388591 24.2947 
L 380.550934 22.073606 
L 381.297714 22.073606 
L 381.427589 21.677443 
L 382.012026 21.677443 
L 382.109432 24.104262 
L 382.239307 20.380284 
L 382.466587 20.380284 
L 382.596462 23.920866 
L 382.628931 23.838676 
L 382.693868 23.23984 
L 382.758806 23.33768 
L 382.888681 24.339096 
L 383.14843 24.339096 
L 383.278305 24.535102 
L 383.40818 24.024323 
L 383.830273 24.024323 
L 383.960148 24.64651 
L 383.960148 24.64651 
" clip-path="url(#p521f4e8844)" style="fill: none; stroke: #1f77b4; stroke-width: 1.2; stroke-linecap: round"/>
   </g>
   <g id="patch_3">
    <path d="M 43.072875 244.217829 
L 43.072875 27.283533 
" style="fill: none; stroke: #262626; stroke-linejoin: miter; stroke-linecap: square"/>
   </g>
   <g id="patch_4">
    <path d="M 59.305602 273.312 
L 383.992616 273.312 
" style="fill: none; stroke: #262626; stroke-linejoin: miter; stroke-linecap: square"/>
   </g>
  </g>
 </g>
 <defs>
  <clipPath id="p521f4e8844">
   <rect x="43.072875" y="7.2" width="357.12" height="266.112"/>
  </clipPath>
 </defs>
</svg>