<?xml version="1.0" encoding="utf-8" standalone="no"?>
<!DOCTYPE svg PUBLIC "-//W3C//DTD SVG 1.1//EN"
  "http://www.w3.org/Graphics/SVG/1.1/DTD/svg11.dtd">
<svg xmlns:xlink="http://www.w3.org/1999/xlink" width="397.19175pt" height="296.859875pt" viewBox="0 0 397.19175 296.859875" xmlns="http://www.w3.org/2000/svg" version="1.1">
 <metadata>
  <rdf:RDF xmlns:dc="http://purl.org/dc/elements/1.1/" xmlns:cc="http://creativecommons.org/ns#" xmlns:rdf="http://www.w3.org/1999/02/22-rdf-syntax-ns#">
   <cc:Work>
    <dc:type rdf:resource="http://purl.org/dc/dcmitype/StillImage"/>
    <dc:date>2024-01-22T21:15:53.276483</dc:date>
    <dc:format>image/svg+xml</dc:format>
    <dc:creator>
     <cc:Agent>
      <dc:title>Matplotlib v3.8.0, https://matplotlib.org/</dc:title>
     </cc:Agent>
    </dc:creator>
   </cc:Work>
  </rdf:RDF>
 </metadata>
 <defs>
  <style type="text/css">*{stroke-linejoin: round; stroke-linecap: butt}</style>
 </defs>
 <g id="figure_1">
  <g id="patch_1">
   <path d="M 0 296.859875 
L 397.19175 296.859875 
L 397.19175 0 
L 0 0 
z
" style="fill: #ffffff"/>
  </g>
  <g id="axes_1">
   <g id="patch_2">
    <path d="M 32.87175 273.312 
L 389.99175 273.312 
L 389.99175 7.2 
L 32.87175 7.2 
z
" style="fill: #ffffff"/>
   </g>
   <g id="matplotlib.axis_1">
    <g id="xtick_1">
     <g id="line2d_1">
      <defs>
       <path id="mef07156feb" d="M 0 0 
L 0 4.8 
" style="stroke: #262626"/>
      </defs>
      <g>
       <use xlink:href="#mef07156feb" x="49.104477" y="273.312" style="fill: #262626; stroke: #262626"/>
      </g>
     </g>
     <g id="text_1">
      <!-- 0 -->
      <g style="fill: #262626" transform="translate(46.657665 287.910875) scale(0.088 -0.088)">
       <defs>
        <path id="ArialMT-30" d="M 266 2259 
Q 266 3072 433 3567 
Q 600 4063 929 4331 
Q 1259 4600 1759 4600 
Q 2128 4600 2406 4451 
Q 2684 4303 2865 4023 
Q 3047 3744 3150 3342 
Q 3253 2941 3253 2259 
Q 3253 1453 3087 958 
Q 2922 463 2592 192 
Q 2263 -78 1759 -78 
Q 1097 -78 719 397 
Q 266 969 266 2259 
z
M 844 2259 
Q 844 1131 1108 757 
Q 1372 384 1759 384 
Q 2147 384 2411 759 
Q 2675 1134 2675 2259 
Q 2675 3391 2411 3762 
Q 2147 4134 1753 4134 
Q 1366 4134 1134 3806 
Q 844 3388 844 2259 
z
" transform="scale(0.015625)"/>
       </defs>
       <use xlink:href="#ArialMT-30"/>
      </g>
     </g>
    </g>
    <g id="xtick_2">
     <g id="line2d_2">
      <g>
       <use xlink:href="#mef07156feb" x="114.035386" y="273.312" style="fill: #262626; stroke: #262626"/>
      </g>
     </g>
     <g id="text_2">
      <!-- 2 -->
      <g style="fill: #262626" transform="translate(111.588574 287.910875) scale(0.088 -0.088)">
       <defs>
        <path id="ArialMT-32" d="M 3222 541 
L 3222 0 
L 194 0 
Q 188 203 259 391 
Q 375 700 629 1000 
Q 884 1300 1366 1694 
Q 2113 2306 2375 2664 
Q 2638 3022 2638 3341 
Q 2638 3675 2398 3904 
Q 2159 4134 1775 4134 
Q 1369 4134 1125 3890 
Q 881 3647 878 3216 
L 300 3275 
Q 359 3922 746 4261 
Q 1134 4600 1788 4600 
Q 2447 4600 2831 4234 
Q 3216 3869 3216 3328 
Q 3216 3053 3103 2787 
Q 2991 2522 2730 2228 
Q 2469 1934 1863 1422 
Q 1356 997 1212 845 
Q 1069 694 975 541 
L 3222 541 
z
" transform="scale(0.015625)"/>
       </defs>
       <use xlink:href="#ArialMT-32"/>
      </g>
     </g>
    </g>
    <g id="xtick_3">
     <g id="line2d_3">
      <g>
       <use xlink:href="#mef07156feb" x="178.966295" y="273.312" style="fill: #262626; stroke: #262626"/>
      </g>
     </g>
     <g id="text_3">
      <!-- 4 -->
      <g style="fill: #262626" transform="translate(176.519483 287.910875) scale(0.088 -0.088)">
       <defs>
        <path id="ArialMT-34" d="M 2069 0 
L 2069 1097 
L 81 1097 
L 81 1613 
L 2172 4581 
L 2631 4581 
L 2631 1613 
L 3250 1613 
L 3250 1097 
L 2631 1097 
L 2631 0 
L 2069 0 
z
M 2069 1613 
L 2069 3678 
L 634 1613 
L 2069 1613 
z
" transform="scale(0.015625)"/>
       </defs>
       <use xlink:href="#ArialMT-34"/>
      </g>
     </g>
    </g>
    <g id="xtick_4">
     <g id="line2d_4">
      <g>
       <use xlink:href="#mef07156feb" x="243.897205" y="273.312" style="fill: #262626; stroke: #262626"/>
      </g>
     </g>
     <g id="text_4">
      <!-- 6 -->
      <g style="fill: #262626" transform="translate(241.450392 287.910875) scale(0.088 -0.088)">
       <defs>
        <path id="ArialMT-36" d="M 3184 3459 
L 2625 3416 
Q 2550 3747 2413 3897 
Q 2184 4138 1850 4138 
Q 1581 4138 1378 3988 
Q 1113 3794 959 3422 
Q 806 3050 800 2363 
Q 1003 2672 1297 2822 
Q 1591 2972 1913 2972 
Q 2475 2972 2870 2558 
Q 3266 2144 3266 1488 
Q 3266 1056 3080 686 
Q 2894 316 2569 119 
Q 2244 -78 1831 -78 
Q 1128 -78 684 439 
Q 241 956 241 2144 
Q 241 3472 731 4075 
Q 1159 4600 1884 4600 
Q 2425 4600 2770 4297 
Q 3116 3994 3184 3459 
z
M 888 1484 
Q 888 1194 1011 928 
Q 1134 663 1356 523 
Q 1578 384 1822 384 
Q 2178 384 2434 671 
Q 2691 959 2691 1453 
Q 2691 1928 2437 2201 
Q 2184 2475 1800 2475 
Q 1419 2475 1153 2201 
Q 888 1928 888 1484 
z
" transform="scale(0.015625)"/>
       </defs>
       <use xlink:href="#ArialMT-36"/>
      </g>
     </g>
    </g>
    <g id="xtick_5">
     <g id="line2d_5">
      <g>
       <use xlink:href="#mef07156feb" x="308.828114" y="273.312" style="fill: #262626; stroke: #262626"/>
      </g>
     </g>
     <g id="text_5">
      <!-- 8 -->
      <g style="fill: #262626" transform="translate(306.381301 287.910875) scale(0.088 -0.088)">
       <defs>
        <path id="ArialMT-38" d="M 1131 2484 
Q 781 2613 612 2850 
Q 444 3088 444 3419 
Q 444 3919 803 4259 
Q 1163 4600 1759 4600 
Q 2359 4600 2725 4251 
Q 3091 3903 3091 3403 
Q 3091 3084 2923 2848 
Q 2756 2613 2416 2484 
Q 2838 2347 3058 2040 
Q 3278 1734 3278 1309 
Q 3278 722 2862 322 
Q 2447 -78 1769 -78 
Q 1091 -78 675 323 
Q 259 725 259 1325 
Q 259 1772 486 2073 
Q 713 2375 1131 2484 
z
M 1019 3438 
Q 1019 3113 1228 2906 
Q 1438 2700 1772 2700 
Q 2097 2700 2305 2904 
Q 2513 3109 2513 3406 
Q 2513 3716 2298 3927 
Q 2084 4138 1766 4138 
Q 1444 4138 1231 3931 
Q 1019 3725 1019 3438 
z
M 838 1322 
Q 838 1081 952 856 
Q 1066 631 1291 507 
Q 1516 384 1775 384 
Q 2178 384 2440 643 
Q 2703 903 2703 1303 
Q 2703 1709 2433 1975 
Q 2163 2241 1756 2241 
Q 1359 2241 1098 1978 
Q 838 1716 838 1322 
z
" transform="scale(0.015625)"/>
       </defs>
       <use xlink:href="#ArialMT-38"/>
      </g>
     </g>
    </g>
    <g id="xtick_6">
     <g id="line2d_6">
      <g>
       <use xlink:href="#mef07156feb" x="373.759023" y="273.312" style="fill: #262626; stroke: #262626"/>
      </g>
     </g>
     <g id="text_6">
      <!-- 10 -->
      <g style="fill: #262626" transform="translate(368.865398 287.910875) scale(0.088 -0.088)">
       <defs>
        <path id="ArialMT-31" d="M 2384 0 
L 1822 0 
L 1822 3584 
Q 1619 3391 1289 3197 
Q 959 3003 697 2906 
L 697 3450 
Q 1169 3672 1522 3987 
Q 1875 4303 2022 4600 
L 2384 4600 
L 2384 0 
z
" transform="scale(0.015625)"/>
       </defs>
       <use xlink:href="#ArialMT-31"/>
       <use xlink:href="#ArialMT-30" x="55.615234"/>
      </g>
     </g>
    </g>
   </g>
   <g id="matplotlib.axis_2">
    <g id="ytick_1">
     <g id="line2d_7">
      <defs>
       <path id="m323dff5af9" d="M 0 0 
L -4.8 0 
" style="stroke: #262626"/>
      </defs>
      <g>
       <use xlink:href="#m323dff5af9" x="32.87175" y="243.102567" style="fill: #262626; stroke: #262626"/>
      </g>
     </g>
     <g id="text_7">
      <!-- −0.6 -->
      <g style="fill: #262626" transform="translate(7.2 246.252004) scale(0.088 -0.088)">
       <defs>
        <path id="ArialMT-2212" d="M 3381 1997 
L 356 1997 
L 356 2522 
L 3381 2522 
L 3381 1997 
z
" transform="scale(0.015625)"/>
        <path id="ArialMT-2e" d="M 581 0 
L 581 641 
L 1222 641 
L 1222 0 
L 581 0 
z
" transform="scale(0.015625)"/>
       </defs>
       <use xlink:href="#ArialMT-2212"/>
       <use xlink:href="#ArialMT-30" x="58.398438"/>
       <use xlink:href="#ArialMT-2e" x="114.013672"/>
       <use xlink:href="#ArialMT-36" x="141.796875"/>
      </g>
     </g>
    </g>
    <g id="ytick_2">
     <g id="line2d_8">
      <g>
       <use xlink:href="#m323dff5af9" x="32.87175" y="209.988338" style="fill: #262626; stroke: #262626"/>
      </g>
     </g>
     <g id="text_8">
      <!-- −0.4 -->
      <g style="fill: #262626" transform="translate(7.2 213.137776) scale(0.088 -0.088)">
       <use xlink:href="#ArialMT-2212"/>
       <use xlink:href="#ArialMT-30" x="58.398438"/>
       <use xlink:href="#ArialMT-2e" x="114.013672"/>
       <use xlink:href="#ArialMT-34" x="141.796875"/>
      </g>
     </g>
    </g>
    <g id="ytick_3">
     <g id="line2d_9">
      <g>
       <use xlink:href="#m323dff5af9" x="32.87175" y="176.87411" style="fill: #262626; stroke: #262626"/>
      </g>
     </g>
     <g id="text_9">
      <!-- −0.2 -->
      <g style="fill: #262626" transform="translate(7.2 180.023547) scale(0.088 -0.088)">
       <use xlink:href="#ArialMT-2212"/>
       <use xlink:href="#ArialMT-30" x="58.398438"/>
       <use xlink:href="#ArialMT-2e" x="114.013672"/>
       <use xlink:href="#ArialMT-32" x="141.796875"/>
      </g>
     </g>
    </g>
    <g id="ytick_4">
     <g id="line2d_10">
      <g>
       <use xlink:href="#m323dff5af9" x="32.87175" y="143.759881" style="fill: #262626; stroke: #262626"/>
      </g>
     </g>
     <g id="text_10">
      <!-- 0.0 -->
      <g style="fill: #262626" transform="translate(12.33975 146.909319) scale(0.088 -0.088)">
       <use xlink:href="#ArialMT-30"/>
       <use xlink:href="#ArialMT-2e" x="55.615234"/>
       <use xlink:href="#ArialMT-30" x="83.398438"/>
      </g>
     </g>
    </g>
    <g id="ytick_5">
     <g id="line2d_11">
      <g>
       <use xlink:href="#m323dff5af9" x="32.87175" y="110.645653" style="fill: #262626; stroke: #262626"/>
      </g>
     </g>
     <g id="text_11">
      <!-- 0.2 -->
      <g style="fill: #262626" transform="translate(12.33975 113.79509) scale(0.088 -0.088)">
       <use xlink:href="#ArialMT-30"/>
       <use xlink:href="#ArialMT-2e" x="55.615234"/>
       <use xlink:href="#ArialMT-32" x="83.398438"/>
      </g>
     </g>
    </g>
    <g id="ytick_6">
     <g id="line2d_12">
      <g>
       <use xlink:href="#m323dff5af9" x="32.87175" y="77.531424" style="fill: #262626; stroke: #262626"/>
      </g>
     </g>
     <g id="text_12">
      <!-- 0.4 -->
      <g style="fill: #262626" transform="translate(12.33975 80.680862) scale(0.088 -0.088)">
       <use xlink:href="#ArialMT-30"/>
       <use xlink:href="#ArialMT-2e" x="55.615234"/>
       <use xlink:href="#ArialMT-34" x="83.398438"/>
      </g>
     </g>
    </g>
    <g id="ytick_7">
     <g id="line2d_13">
      <g>
       <use xlink:href="#m323dff5af9" x="32.87175" y="44.417196" style="fill: #262626; stroke: #262626"/>
      </g>
     </g>
     <g id="text_13">
      <!-- 0.6 -->
      <g style="fill: #262626" transform="translate(12.33975 47.566633) scale(0.088 -0.088)">
       <use xlink:href="#ArialMT-30"/>
       <use xlink:href="#ArialMT-2e" x="55.615234"/>
       <use xlink:href="#ArialMT-36" x="83.398438"/>
      </g>
     </g>
    </g>
    <g id="ytick_8">
     <g id="line2d_14">
      <g>
       <use xlink:href="#m323dff5af9" x="32.87175" y="11.302967" style="fill: #262626; stroke: #262626"/>
      </g>
     </g>
     <g id="text_14">
      <!-- 0.8 -->
      <g style="fill: #262626" transform="translate(12.33975 14.452405) scale(0.088 -0.088)">
       <use xlink:href="#ArialMT-30"/>
       <use xlink:href="#ArialMT-2e" x="55.615234"/>
       <use xlink:href="#ArialMT-38" x="83.398438"/>
      </g>
     </g>
    </g>
   </g>
   <g id="line2d_15">
    <path d="M 49.104477 143.759881 
L 51.053379 143.649791 
L 53.002281 143.321255 
L 54.951183 142.778118 
L 57.062493 141.95397 
L 59.173803 140.893563 
L 61.447522 139.500341 
L 63.88365 137.737146 
L 66.482185 135.574548 
L 69.405538 132.834656 
L 72.653708 129.472196 
L 76.713919 124.92046 
L 84.671934 115.544272 
L 89.219373 110.394452 
L 92.467541 107.024594 
L 95.228488 104.458874 
L 97.664614 102.480464 
L 99.938331 100.916514 
L 102.049644 99.738918 
L 103.998545 98.908749 
L 105.785037 98.379845 
L 107.571529 98.085256 
L 109.195617 98.029443 
L 110.819701 98.182207 
L 112.443785 98.548725 
L 114.067873 99.132889 
L 115.691957 99.937326 
L 117.478449 101.078195 
L 119.264941 102.487347 
L 121.213842 104.328743 
L 123.162743 106.483504 
L 125.274052 109.164504 
L 127.547777 112.443915 
L 129.821494 116.11564 
L 132.25762 120.465904 
L 134.856155 125.555728 
L 137.779506 131.799857 
L 140.865273 138.936831 
L 144.275849 147.406382 
L 148.17365 157.717521 
L 152.883494 170.841157 
L 164.739314 204.19519 
L 167.825081 212.018516 
L 170.261207 217.638181 
L 172.372516 222.00471 
L 174.321417 225.546472 
L 176.107909 228.327947 
L 177.731993 230.433813 
L 179.193676 231.960961 
L 180.492944 233.011121 
L 181.792211 233.761772 
L 182.92907 234.166936 
L 184.065928 234.333453 
L 185.202787 234.259249 
L 186.339646 233.943724 
L 187.476504 233.387725 
L 188.613363 232.593513 
L 189.91263 231.398844 
L 191.211897 229.905239 
L 192.673573 227.879311 
L 194.297657 225.21792 
L 196.084149 221.820538 
L 198.03305 217.594985 
L 200.144359 212.463259 
L 202.5805 205.910009 
L 205.341443 197.783667 
L 208.427202 187.978896 
L 212.000187 175.877622 
L 216.385214 160.211413 
L 222.069507 139.005597 
L 237.173503 82.128843 
L 240.421671 71.075539 
L 243.020205 62.986777 
L 245.293923 56.625461 
L 247.242824 51.811999 
L 249.029316 47.991951 
L 250.6534 45.061665 
L 252.115075 42.899507 
L 253.414342 41.375674 
L 254.551201 40.360874 
L 255.68806 39.650656 
L 256.66251 39.287898 
L 257.636976 39.153929 
L 258.611427 39.249104 
L 259.585877 39.572445 
L 260.560327 40.121724 
L 261.697186 41.04347 
L 262.834045 42.260541 
L 264.133312 44.000797 
L 265.594987 46.383305 
L 267.219071 49.524399 
L 269.005564 53.529014 
L 270.954464 58.481705 
L 273.228182 64.918202 
L 275.826716 72.975537 
L 279.074884 83.818052 
L 283.622319 99.856609 
L 298.076681 151.37052 
L 302.948933 167.700988 
L 307.171551 181.105863 
L 310.744536 191.743862 
L 313.830311 200.274786 
L 316.591238 207.278191 
L 319.027379 212.875593 
L 321.301097 217.536152 
L 323.249997 221.049172 
L 325.036474 223.844961 
L 326.660589 226.011634 
L 328.284673 227.803538 
L 329.746333 229.084421 
L 331.0456 229.952698 
L 332.344867 230.562956 
L 333.644134 230.913595 
L 334.781009 231.007625 
L 335.917852 230.904535 
L 337.217119 230.548685 
L 338.516386 229.944408 
L 339.815653 229.099184 
L 341.277344 227.871771 
L 342.901428 226.182867 
L 344.525512 224.17528 
L 346.474413 221.383542 
L 348.585707 217.943369 
L 351.021848 213.521654 
L 353.945199 207.715399 
L 357.680607 199.759896 
L 373.109389 166.285026 
L 373.759023 164.979299 
L 373.759023 164.979299 
" clip-path="url(#p84fb3454f0)" style="fill: none; stroke: #1f77b4; stroke-width: 1.2; stroke-linecap: round"/>
   </g>
   <g id="line2d_16">
    <path d="M 49.104477 143.759881 
L 54.951183 132.953007 
L 58.686578 126.496724 
L 61.772339 121.584536 
L 64.533283 117.598043 
L 66.96941 114.455553 
L 69.243129 111.878975 
L 71.354439 109.823913 
L 73.303341 108.237446 
L 75.089835 107.061392 
L 76.713919 106.234931 
L 78.338003 105.649545 
L 79.962089 105.314208 
L 81.423765 105.233059 
L 82.885442 105.366624 
L 84.347118 105.719723 
L 85.808793 106.296431 
L 87.270473 107.099986 
L 88.894556 108.261582 
L 90.51864 109.707511 
L 92.305133 111.625924 
L 94.091625 113.884479 
L 96.04053 116.728305 
L 98.151839 120.240994 
L 100.425556 124.498946 
L 102.861686 129.563644 
L 105.622629 135.857172 
L 108.708392 143.463399 
L 112.606193 153.686708 
L 127.060552 192.21752 
L 130.633536 200.809681 
L 133.881704 208.066596 
L 136.967464 214.416143 
L 139.728414 219.606821 
L 142.326948 224.028526 
L 144.600666 227.488792 
L 146.711975 230.318742 
L 148.660876 232.561321 
L 150.447368 234.26443 
L 151.909043 235.376418 
L 153.370727 236.206484 
L 154.669994 236.683828 
L 155.806853 236.882073 
L 156.943711 236.85899 
L 158.08057 236.598127 
L 159.217429 236.082749 
L 160.354288 235.295977 
L 161.491146 234.221106 
L 162.628005 232.842039 
L 163.927272 230.873952 
L 165.226539 228.468133 
L 166.525806 225.607077 
L 167.98749 221.827476 
L 169.449165 217.442729 
L 171.073249 211.857704 
L 172.859741 204.860669 
L 174.808642 196.253138 
L 176.919951 185.879352 
L 179.356085 172.758133 
L 182.441844 154.850147 
L 192.023939 98.304536 
L 194.622474 84.775075 
L 196.896191 74.056744 
L 199.0075 65.130529 
L 200.956401 57.792409 
L 202.905317 51.30716 
L 204.691809 46.078981 
L 206.478302 41.49105 
L 208.264794 37.489929 
L 210.051286 34.01752 
L 211.837779 31.015171 
L 213.624271 28.427579 
L 215.410763 26.20618 
L 217.197256 24.312 
L 218.983748 22.718246 
L 220.77024 21.412149 
L 222.394324 20.476467 
L 224.018408 19.794622 
L 225.480084 19.418877 
L 226.779351 19.296168 
L 228.078618 19.39678 
L 229.215477 19.689953 
L 230.352351 20.196776 
L 231.48921 20.940568 
L 232.626068 21.946387 
L 233.762927 23.240563 
L 234.899786 24.850255 
L 236.199053 27.111416 
L 237.49832 29.86057 
L 238.797587 33.135781 
L 240.259263 37.491933 
L 241.720938 42.598094 
L 243.182614 48.48395 
L 244.806698 55.956198 
L 246.59319 65.303845 
L 248.542091 76.795432 
L 250.6534 90.629514 
L 253.251934 109.278765 
L 256.824919 136.751574 
L 262.184411 177.933051 
L 264.782945 196.163741 
L 266.894254 209.545851 
L 268.843155 220.549228 
L 270.629648 229.403716 
L 272.253731 236.4008 
L 273.877815 242.400622 
L 275.339491 246.972654 
L 276.801166 250.797834 
L 278.100434 253.608826 
L 279.399701 255.904725 
L 280.698968 257.726665 
L 281.835827 258.965734 
L 282.972685 259.903577 
L 284.109544 260.568725 
L 285.246418 260.988761 
L 286.383277 261.189867 
L 287.682544 261.182969 
L 288.981811 260.955394 
L 290.443487 260.472168 
L 292.067571 259.694644 
L 293.854063 258.591509 
L 295.802964 257.133905 
L 297.914273 255.286474 
L 300.18799 252.994177 
L 302.461708 250.367149 
L 304.573017 247.585082 
L 306.684326 244.414333 
L 308.633227 241.082297 
L 310.582143 237.299661 
L 312.531044 233.00591 
L 314.479944 228.144446 
L 316.428845 222.667716 
L 318.377746 216.542062 
L 320.489039 209.156887 
L 322.762757 200.346597 
L 325.198898 189.990638 
L 328.122249 176.513388 
L 332.182474 156.579023 
L 338.191569 127.127803 
L 340.952528 114.732316 
L 343.226245 105.463052 
L 345.337539 97.771492 
L 347.286439 91.535944 
L 349.072947 86.58612 
L 350.697031 82.732444 
L 352.158691 79.786673 
L 353.620382 77.324494 
L 354.919649 75.528208 
L 356.218916 74.085127 
L 357.518184 72.977363 
L 358.817451 72.185085 
L 359.954325 71.734046 
L 361.091168 71.493735 
L 362.390435 71.457971 
L 363.689702 71.655727 
L 365.151393 72.130066 
L 366.613053 72.841972 
L 368.237137 73.876604 
L 370.186038 75.406318 
L 372.297363 77.354357 
L 373.759023 78.846116 
L 373.759023 78.846116 
" clip-path="url(#p84fb3454f0)" style="fill: none; stroke: #ff7f0e; stroke-width: 1.2; stroke-linecap: round"/>
   </g>
   <g id="line2d_17">
    <path d="M 49.104477 143.814659 
L 51.053379 143.705308 
L 53.002281 143.37728 
L 54.951183 142.834426 
L 57.062493 142.010334 
L 59.173803 140.949734 
L 61.447522 139.556031 
L 63.88365 137.792029 
L 66.482185 135.628271 
L 69.405538 132.886714 
L 72.653708 129.522002 
L 76.713919 124.966916 
L 84.509526 115.772691 
L 89.219373 110.42732 
L 92.467541 107.053198 
L 95.228488 104.483652 
L 97.664614 102.501736 
L 99.938331 100.934436 
L 102.049644 99.753672 
L 103.998545 98.920572 
L 105.785037 98.388993 
L 107.571529 98.091789 
L 109.195617 98.033642 
L 110.819701 98.184147 
L 112.443785 98.548498 
L 114.067873 99.13061 
L 115.691957 99.933112 
L 117.478449 101.072032 
L 119.264941 102.4794 
L 121.213842 104.31906 
L 123.162743 106.472325 
L 125.274052 109.151944 
L 127.547777 112.430133 
L 129.821494 116.100876 
L 132.25762 120.450321 
L 134.856155 125.53946 
L 137.779506 131.782966 
L 140.865273 138.919286 
L 144.275849 147.387999 
L 148.17365 157.697841 
L 152.883494 170.819142 
L 164.739314 204.165702 
L 167.825081 211.987775 
L 170.261207 217.60706 
L 172.372516 221.973761 
L 174.321417 225.516155 
L 176.107909 228.298577 
L 177.731993 230.405617 
L 179.193676 231.934029 
L 180.492944 232.985482 
L 181.792211 233.737535 
L 182.92907 234.143991 
L 184.065928 234.31188 
L 185.202787 234.239067 
L 186.339646 233.924983 
L 187.476504 233.370415 
L 188.613363 232.577624 
L 189.91263 231.384574 
L 191.211897 229.892538 
L 192.673573 227.868297 
L 194.297657 225.208698 
L 196.084149 221.813136 
L 198.03305 217.589434 
L 200.144359 212.459484 
L 202.5805 205.907967 
L 205.341443 197.783277 
L 208.427202 187.980071 
L 212.000187 175.880326 
L 216.385214 160.21578 
L 222.069507 139.012498 
L 237.173503 82.146503 
L 240.421671 71.095845 
L 243.020205 63.009007 
L 245.293923 56.649127 
L 247.242824 51.836592 
L 249.029316 48.017195 
L 250.6534 45.087294 
L 252.115075 42.925275 
L 253.414342 41.401432 
L 254.551201 40.386504 
L 255.68806 39.676038 
L 256.66251 39.312985 
L 257.636976 39.17866 
L 258.611427 39.273371 
L 259.585877 39.5962 
L 260.560327 40.144905 
L 261.697186 41.065912 
L 262.834045 42.282174 
L 264.133312 44.021423 
L 265.594987 46.402678 
L 267.219071 49.542311 
L 269.005564 53.545288 
L 270.954464 58.496124 
L 273.228182 64.930454 
L 275.826716 72.985268 
L 279.074884 83.824778 
L 283.622319 99.859638 
L 298.076681 151.366344 
L 302.948933 167.695207 
L 307.171551 181.098513 
L 310.744536 191.734832 
L 313.830311 200.264118 
L 316.591238 207.265875 
L 319.027379 212.861692 
L 321.301097 217.520787 
L 323.249997 221.032558 
L 325.036474 223.827242 
L 326.660589 225.992972 
L 328.284673 227.784018 
L 329.746333 229.064209 
L 331.0456 229.931964 
L 332.344867 230.541797 
L 333.644134 230.8921 
L 334.781009 230.985923 
L 335.917852 230.882725 
L 337.217119 230.526856 
L 338.516386 229.922677 
L 339.815653 229.07768 
L 341.277344 227.850652 
L 342.901428 226.16236 
L 344.525512 224.155523 
L 346.474413 221.36488 
L 348.585707 217.926035 
L 351.021848 213.505992 
L 353.945199 207.701776 
L 357.680607 199.748714 
L 373.109389 166.279124 
L 373.759023 164.973479 
L 373.759023 164.973479 
" clip-path="url(#p84fb3454f0)" style="fill: none; stroke-dasharray: 4.44,1.92; stroke-dashoffset: 0; stroke: #2ca02c; stroke-width: 1.2"/>
   </g>
   <g id="line2d_18">
    <path d="M 49.104477 143.774105 
L 54.951183 132.95584 
L 58.686578 126.492685 
L 61.772339 121.57524 
L 64.533283 117.584412 
L 66.96941 114.438386 
L 69.243129 111.858753 
L 71.354439 109.801025 
L 73.303341 108.212241 
L 75.089835 107.034147 
L 76.713919 106.205919 
L 78.338003 105.618819 
L 79.962089 105.281821 
L 81.423765 105.199217 
L 82.885442 105.33135 
L 84.347118 105.683048 
L 85.808793 106.258377 
L 87.270473 107.06058 
L 88.894556 108.220713 
L 90.51864 109.665213 
L 92.305133 111.582143 
L 94.091625 113.839317 
L 96.04053 116.681811 
L 98.151839 120.193333 
L 100.425556 124.450441 
L 102.861686 129.514826 
L 105.622629 135.808924 
L 108.708392 143.417053 
L 112.606193 153.644725 
L 127.060552 192.201158 
L 130.633536 200.798312 
L 133.881704 208.058316 
L 136.967464 214.409284 
L 139.728414 219.600002 
L 142.326948 224.02069 
L 144.600666 227.479377 
L 146.711975 230.307334 
L 148.660876 232.547781 
L 150.447368 234.248847 
L 151.909043 235.359138 
L 153.370727 236.187644 
L 154.669994 236.663755 
L 155.806853 236.861131 
L 156.943711 236.837367 
L 158.08057 236.57614 
L 159.217429 236.060702 
L 160.354288 235.274227 
L 161.491146 234.200076 
L 162.628005 232.822133 
L 163.927272 230.855931 
L 165.226539 228.452541 
L 166.525806 225.594514 
L 167.98749 221.818984 
L 169.449165 217.438871 
L 171.073249 211.859534 
L 172.859741 204.869205 
L 174.808642 196.268992 
L 176.919951 185.902701 
L 179.356085 172.78889 
L 182.441844 154.887558 
L 192.023939 98.342299 
L 194.622474 84.809285 
L 196.896191 74.087337 
L 199.0075 65.157634 
L 200.956401 57.81639 
L 202.905317 51.32822 
L 204.691809 46.097662 
L 206.478302 41.507679 
L 208.264794 37.50489 
L 210.051286 34.031188 
L 211.837779 31.02804 
L 213.624271 28.440024 
L 215.410763 26.218644 
L 217.197256 24.324938 
L 218.983748 22.732033 
L 220.77024 21.42715 
L 222.394324 20.49284 
L 224.018408 19.812553 
L 225.480084 19.438338 
L 226.779351 19.317011 
L 228.078618 19.419005 
L 229.215477 19.713362 
L 230.352351 20.22125 
L 231.48921 20.96601 
L 232.626068 21.972648 
L 233.762927 23.267465 
L 234.899786 24.877562 
L 236.199053 27.13891 
L 237.49832 29.887887 
L 238.797587 33.162595 
L 240.259263 37.517611 
L 241.720938 42.622203 
L 243.182614 48.505978 
L 244.806698 55.975373 
L 246.59319 65.319359 
L 248.542091 76.806332 
L 250.6534 90.634814 
L 253.251934 109.276843 
L 256.824919 136.739904 
L 262.184411 177.909859 
L 264.782945 196.136691 
L 266.894254 209.516615 
L 268.843155 220.518674 
L 270.629648 229.372432 
L 272.253731 236.36922 
L 273.877815 242.369091 
L 275.339491 246.941478 
L 276.801166 250.7673 
L 278.100434 253.579081 
L 279.399701 255.875968 
L 280.698968 257.699092 
L 281.835827 258.939345 
L 282.972685 259.878461 
L 284.109544 260.54497 
L 285.246418 260.966418 
L 286.383277 261.168975 
L 287.682544 261.163715 
L 288.981811 260.937719 
L 290.443487 260.456181 
L 292.067571 259.680334 
L 293.854063 258.578729 
L 295.802964 257.122378 
L 297.914273 255.275747 
L 300.18799 252.983647 
L 302.461708 250.356155 
L 304.573017 247.573181 
L 306.684326 244.401138 
L 308.633227 241.067672 
L 310.582143 237.283526 
L 312.531044 232.988245 
L 314.479944 228.125409 
L 316.428845 222.647589 
L 318.377746 216.521165 
L 320.489039 209.135704 
L 322.762757 200.325773 
L 325.198898 189.971172 
L 328.122249 176.496902 
L 332.182474 156.569079 
L 338.029177 127.891582 
L 340.790104 115.43896 
L 343.063821 106.106812 
L 345.175146 98.346982 
L 347.124046 92.042723 
L 348.910523 87.027117 
L 350.534607 83.112679 
L 351.996298 80.112452 
L 353.457958 77.597041 
L 354.757256 75.754811 
L 356.056524 74.26763 
L 357.355791 73.117894 
L 358.655058 72.286028 
L 359.791901 71.802471 
L 360.928775 71.531666 
L 362.228042 71.463625 
L 363.52731 71.631889 
L 364.826577 72.014473 
L 366.288237 72.674533 
L 367.912321 73.658996 
L 369.698828 75.003878 
L 371.810122 76.886176 
L 373.759023 78.849625 
L 373.759023 78.849625 
" clip-path="url(#p84fb3454f0)" style="fill: none; stroke-dasharray: 4.44,1.92; stroke-dashoffset: 0; stroke: #d62728; stroke-width: 1.2"/>
   </g>
   <g id="patch_3">
    <path d="M 32.87175 243.102567 
L 32.87175 11.302967 
" style="fill: none; stroke: #262626; stroke-linejoin: miter; stroke-linecap: square"/>
   </g>
   <g id="patch_4">
    <path d="M 49.104477 273.312 
L 373.759023 273.312 
" style="fill: none; stroke: #262626; stroke-linejoin: miter; stroke-linecap: square"/>
   </g>
   <g id="legend_1">
    <g id="patch_5">
     <path d="M 317.530625 64.0315 
L 383.83175 64.0315 
Q 385.59175 64.0315 385.59175 62.2715 
L 385.59175 13.36 
Q 385.59175 11.6 383.83175 11.6 
L 317.530625 11.6 
Q 315.770625 11.6 315.770625 13.36 
L 315.770625 62.2715 
Q 315.770625 64.0315 317.530625 64.0315 
z
" style="fill: #ffffff; opacity: 0.8; stroke: #cccccc; stroke-width: 0.8; stroke-linejoin: miter"/>
    </g>
    <g id="line2d_19">
     <path d="M 319.290625 18.338875 
L 328.090625 18.338875 
L 336.890625 18.338875 
" style="fill: none; stroke: #1f77b4; stroke-width: 1.2; stroke-linecap: round"/>
    </g>
    <g id="text_15">
     <!-- PC mean -->
     <g style="fill: #262626" transform="translate(343.930625 21.418875) scale(0.088 -0.088)">
      <defs>
       <path id="ArialMT-50" d="M 494 0 
L 494 4581 
L 2222 4581 
Q 2678 4581 2919 4538 
Q 3256 4481 3484 4323 
Q 3713 4166 3852 3881 
Q 3991 3597 3991 3256 
Q 3991 2672 3619 2267 
Q 3247 1863 2275 1863 
L 1100 1863 
L 1100 0 
L 494 0 
z
M 1100 2403 
L 2284 2403 
Q 2872 2403 3119 2622 
Q 3366 2841 3366 3238 
Q 3366 3525 3220 3729 
Q 3075 3934 2838 4000 
Q 2684 4041 2272 4041 
L 1100 4041 
L 1100 2403 
z
" transform="scale(0.015625)"/>
       <path id="ArialMT-43" d="M 3763 1606 
L 4369 1453 
Q 4178 706 3683 314 
Q 3188 -78 2472 -78 
Q 1731 -78 1267 223 
Q 803 525 561 1097 
Q 319 1669 319 2325 
Q 319 3041 592 3573 
Q 866 4106 1370 4382 
Q 1875 4659 2481 4659 
Q 3169 4659 3637 4309 
Q 4106 3959 4291 3325 
L 3694 3184 
Q 3534 3684 3231 3912 
Q 2928 4141 2469 4141 
Q 1941 4141 1586 3887 
Q 1231 3634 1087 3207 
Q 944 2781 944 2328 
Q 944 1744 1114 1308 
Q 1284 872 1643 656 
Q 2003 441 2422 441 
Q 2931 441 3284 734 
Q 3638 1028 3763 1606 
z
" transform="scale(0.015625)"/>
       <path id="ArialMT-20" transform="scale(0.015625)"/>
       <path id="ArialMT-6d" d="M 422 0 
L 422 3319 
L 925 3319 
L 925 2853 
Q 1081 3097 1340 3245 
Q 1600 3394 1931 3394 
Q 2300 3394 2536 3241 
Q 2772 3088 2869 2813 
Q 3263 3394 3894 3394 
Q 4388 3394 4653 3120 
Q 4919 2847 4919 2278 
L 4919 0 
L 4359 0 
L 4359 2091 
Q 4359 2428 4304 2576 
Q 4250 2725 4106 2815 
Q 3963 2906 3769 2906 
Q 3419 2906 3187 2673 
Q 2956 2441 2956 1928 
L 2956 0 
L 2394 0 
L 2394 2156 
Q 2394 2531 2256 2718 
Q 2119 2906 1806 2906 
Q 1569 2906 1367 2781 
Q 1166 2656 1075 2415 
Q 984 2175 984 1722 
L 984 0 
L 422 0 
z
" transform="scale(0.015625)"/>
       <path id="ArialMT-65" d="M 2694 1069 
L 3275 997 
Q 3138 488 2766 206 
Q 2394 -75 1816 -75 
Q 1088 -75 661 373 
Q 234 822 234 1631 
Q 234 2469 665 2931 
Q 1097 3394 1784 3394 
Q 2450 3394 2872 2941 
Q 3294 2488 3294 1666 
Q 3294 1616 3291 1516 
L 816 1516 
Q 847 969 1125 678 
Q 1403 388 1819 388 
Q 2128 388 2347 550 
Q 2566 713 2694 1069 
z
M 847 1978 
L 2700 1978 
Q 2663 2397 2488 2606 
Q 2219 2931 1791 2931 
Q 1403 2931 1139 2672 
Q 875 2413 847 1978 
z
" transform="scale(0.015625)"/>
       <path id="ArialMT-61" d="M 2588 409 
Q 2275 144 1986 34 
Q 1697 -75 1366 -75 
Q 819 -75 525 192 
Q 231 459 231 875 
Q 231 1119 342 1320 
Q 453 1522 633 1644 
Q 813 1766 1038 1828 
Q 1203 1872 1538 1913 
Q 2219 1994 2541 2106 
Q 2544 2222 2544 2253 
Q 2544 2597 2384 2738 
Q 2169 2928 1744 2928 
Q 1347 2928 1158 2789 
Q 969 2650 878 2297 
L 328 2372 
Q 403 2725 575 2942 
Q 747 3159 1072 3276 
Q 1397 3394 1825 3394 
Q 2250 3394 2515 3294 
Q 2781 3194 2906 3042 
Q 3031 2891 3081 2659 
Q 3109 2516 3109 2141 
L 3109 1391 
Q 3109 606 3145 398 
Q 3181 191 3288 0 
L 2700 0 
Q 2613 175 2588 409 
z
M 2541 1666 
Q 2234 1541 1622 1453 
Q 1275 1403 1131 1340 
Q 988 1278 909 1158 
Q 831 1038 831 891 
Q 831 666 1001 516 
Q 1172 366 1500 366 
Q 1825 366 2078 508 
Q 2331 650 2450 897 
Q 2541 1088 2541 1459 
L 2541 1666 
z
" transform="scale(0.015625)"/>
       <path id="ArialMT-6e" d="M 422 0 
L 422 3319 
L 928 3319 
L 928 2847 
Q 1294 3394 1984 3394 
Q 2284 3394 2536 3286 
Q 2788 3178 2913 3003 
Q 3038 2828 3088 2588 
Q 3119 2431 3119 2041 
L 3119 0 
L 2556 0 
L 2556 2019 
Q 2556 2363 2490 2533 
Q 2425 2703 2258 2804 
Q 2091 2906 1866 2906 
Q 1506 2906 1245 2678 
Q 984 2450 984 1813 
L 984 0 
L 422 0 
z
" transform="scale(0.015625)"/>
      </defs>
      <use xlink:href="#ArialMT-50"/>
      <use xlink:href="#ArialMT-43" x="66.699219"/>
      <use xlink:href="#ArialMT-20" x="138.916016"/>
      <use xlink:href="#ArialMT-6d" x="166.699219"/>
      <use xlink:href="#ArialMT-65" x="250"/>
      <use xlink:href="#ArialMT-61" x="305.615234"/>
      <use xlink:href="#ArialMT-6e" x="361.230469"/>
     </g>
    </g>
    <g id="line2d_20">
     <path d="M 319.290625 30.78675 
L 328.090625 30.78675 
L 336.890625 30.78675 
" style="fill: none; stroke: #ff7f0e; stroke-width: 1.2; stroke-linecap: round"/>
    </g>
    <g id="text_16">
     <!-- PC mean -->
     <g style="fill: #262626" transform="translate(343.930625 33.86675) scale(0.088 -0.088)">
      <use xlink:href="#ArialMT-50"/>
      <use xlink:href="#ArialMT-43" x="66.699219"/>
      <use xlink:href="#ArialMT-20" x="138.916016"/>
      <use xlink:href="#ArialMT-6d" x="166.699219"/>
      <use xlink:href="#ArialMT-65" x="250"/>
      <use xlink:href="#ArialMT-61" x="305.615234"/>
      <use xlink:href="#ArialMT-6e" x="361.230469"/>
     </g>
    </g>
    <g id="line2d_21">
     <path d="M 319.290625 43.234625 
L 328.090625 43.234625 
L 336.890625 43.234625 
" style="fill: none; stroke-dasharray: 4.44,1.92; stroke-dashoffset: 0; stroke: #2ca02c; stroke-width: 1.2"/>
    </g>
    <g id="text_17">
     <!-- MC mean -->
     <g style="fill: #262626" transform="translate(343.930625 46.314625) scale(0.088 -0.088)">
      <defs>
       <path id="ArialMT-4d" d="M 475 0 
L 475 4581 
L 1388 4581 
L 2472 1338 
Q 2622 884 2691 659 
Q 2769 909 2934 1394 
L 4031 4581 
L 4847 4581 
L 4847 0 
L 4263 0 
L 4263 3834 
L 2931 0 
L 2384 0 
L 1059 3900 
L 1059 0 
L 475 0 
z
" transform="scale(0.015625)"/>
      </defs>
      <use xlink:href="#ArialMT-4d"/>
      <use xlink:href="#ArialMT-43" x="83.300781"/>
      <use xlink:href="#ArialMT-20" x="155.517578"/>
      <use xlink:href="#ArialMT-6d" x="183.300781"/>
      <use xlink:href="#ArialMT-65" x="266.601562"/>
      <use xlink:href="#ArialMT-61" x="322.216797"/>
      <use xlink:href="#ArialMT-6e" x="377.832031"/>
     </g>
    </g>
    <g id="line2d_22">
     <path d="M 319.290625 55.6825 
L 328.090625 55.6825 
L 336.890625 55.6825 
" style="fill: none; stroke-dasharray: 4.44,1.92; stroke-dashoffset: 0; stroke: #d62728; stroke-width: 1.2"/>
    </g>
    <g id="text_18">
     <!-- MC mean -->
     <g style="fill: #262626" transform="translate(343.930625 58.7625) scale(0.088 -0.088)">
      <use xlink:href="#ArialMT-4d"/>
      <use xlink:href="#ArialMT-43" x="83.300781"/>
      <use xlink:href="#ArialMT-20" x="155.517578"/>
      <use xlink:href="#ArialMT-6d" x="183.300781"/>
      <use xlink:href="#ArialMT-65" x="266.601562"/>
      <use xlink:href="#ArialMT-61" x="322.216797"/>
      <use xlink:href="#ArialMT-6e" x="377.832031"/>
     </g>
    </g>
   </g>
  </g>
 </g>
 <defs>
  <clipPath id="p84fb3454f0">
   <rect x="32.87175" y="7.2" width="357.12" height="266.112"/>
  </clipPath>
 </defs>
</svg>