<?xml version="1.0" encoding="utf-8" standalone="no"?>
<!DOCTYPE svg PUBLIC "-//W3C//DTD SVG 1.1//EN"
  "http://www.w3.org/Graphics/SVG/1.1/DTD/svg11.dtd">
<svg xmlns:xlink="http://www.w3.org/1999/xlink" width="410.20075pt" height="309.639375pt" viewBox="0 0 410.20075 309.639375" xmlns="http://www.w3.org/2000/svg" version="1.1">
 <metadata>
  <rdf:RDF xmlns:dc="http://purl.org/dc/elements/1.1/" xmlns:cc="http://creativecommons.org/ns#" xmlns:rdf="http://www.w3.org/1999/02/22-rdf-syntax-ns#">
   <cc:Work>
    <dc:type rdf:resource="http://purl.org/dc/dcmitype/StillImage"/>
    <dc:date>2023-12-08T18:28:18.263311</dc:date>
    <dc:format>image/svg+xml</dc:format>
    <dc:creator>
     <cc:Agent>
      <dc:title>Matplotlib v3.8.0, https://matplotlib.org/</dc:title>
     </cc:Agent>
    </dc:creator>
   </cc:Work>
  </rdf:RDF>
 </metadata>
 <defs>
  <style type="text/css">*{stroke-linejoin: round; stroke-linecap: butt}</style>
 </defs>
 <g id="figure_1">
  <g id="patch_1">
   <path d="M 0 309.639375 
L 410.20075 309.639375 
L 410.20075 0 
L 0 0 
z
" style="fill: #ffffff"/>
  </g>
  <g id="axes_1">
   <g id="patch_2">
    <path d="M 45.88075 273.312 
L 403.00075 273.312 
L 403.00075 7.2 
L 45.88075 7.2 
z
" style="fill: #ffffff"/>
   </g>
   <g id="matplotlib.axis_1">
    <g id="xtick_1">
     <g id="line2d_1">
      <defs>
       <path id="m59522ef70a" d="M 0 0 
L 0 4.8 
" style="stroke: #262626"/>
      </defs>
      <g>
       <use xlink:href="#m59522ef70a" x="62.113477" y="273.312" style="fill: #262626; stroke: #262626"/>
      </g>
     </g>
     <g id="text_1">
      <!-- 0 -->
      <g style="fill: #262626" transform="translate(59.666665 287.910875) scale(0.088 -0.088)">
       <defs>
        <path id="ArialMT-30" d="M 266 2259 
Q 266 3072 433 3567 
Q 600 4063 929 4331 
Q 1259 4600 1759 4600 
Q 2128 4600 2406 4451 
Q 2684 4303 2865 4023 
Q 3047 3744 3150 3342 
Q 3253 2941 3253 2259 
Q 3253 1453 3087 958 
Q 2922 463 2592 192 
Q 2263 -78 1759 -78 
Q 1097 -78 719 397 
Q 266 969 266 2259 
z
M 844 2259 
Q 844 1131 1108 757 
Q 1372 384 1759 384 
Q 2147 384 2411 759 
Q 2675 1134 2675 2259 
Q 2675 3391 2411 3762 
Q 2147 4134 1753 4134 
Q 1366 4134 1134 3806 
Q 844 3388 844 2259 
z
" transform="scale(0.015625)"/>
       </defs>
       <use xlink:href="#ArialMT-30"/>
      </g>
     </g>
    </g>
    <g id="xtick_2">
     <g id="line2d_2">
      <g>
       <use xlink:href="#m59522ef70a" x="127.076884" y="273.312" style="fill: #262626; stroke: #262626"/>
      </g>
     </g>
     <g id="text_2">
      <!-- 5 -->
      <g style="fill: #262626" transform="translate(124.630072 287.910875) scale(0.088 -0.088)">
       <defs>
        <path id="ArialMT-35" d="M 266 1200 
L 856 1250 
Q 922 819 1161 601 
Q 1400 384 1738 384 
Q 2144 384 2425 690 
Q 2706 997 2706 1503 
Q 2706 1984 2436 2262 
Q 2166 2541 1728 2541 
Q 1456 2541 1237 2417 
Q 1019 2294 894 2097 
L 366 2166 
L 809 4519 
L 3088 4519 
L 3088 3981 
L 1259 3981 
L 1013 2750 
Q 1425 3038 1878 3038 
Q 2478 3038 2890 2622 
Q 3303 2206 3303 1553 
Q 3303 931 2941 478 
Q 2500 -78 1738 -78 
Q 1113 -78 717 272 
Q 322 622 266 1200 
z
" transform="scale(0.015625)"/>
       </defs>
       <use xlink:href="#ArialMT-35"/>
      </g>
     </g>
    </g>
    <g id="xtick_3">
     <g id="line2d_3">
      <g>
       <use xlink:href="#m59522ef70a" x="192.040291" y="273.312" style="fill: #262626; stroke: #262626"/>
      </g>
     </g>
     <g id="text_3">
      <!-- 10 -->
      <g style="fill: #262626" transform="translate(187.146666 287.910875) scale(0.088 -0.088)">
       <defs>
        <path id="ArialMT-31" d="M 2384 0 
L 1822 0 
L 1822 3584 
Q 1619 3391 1289 3197 
Q 959 3003 697 2906 
L 697 3450 
Q 1169 3672 1522 3987 
Q 1875 4303 2022 4600 
L 2384 4600 
L 2384 0 
z
" transform="scale(0.015625)"/>
       </defs>
       <use xlink:href="#ArialMT-31"/>
       <use xlink:href="#ArialMT-30" x="55.615234"/>
      </g>
     </g>
    </g>
    <g id="xtick_4">
     <g id="line2d_4">
      <g>
       <use xlink:href="#m59522ef70a" x="257.003698" y="273.312" style="fill: #262626; stroke: #262626"/>
      </g>
     </g>
     <g id="text_4">
      <!-- 15 -->
      <g style="fill: #262626" transform="translate(252.110073 287.910875) scale(0.088 -0.088)">
       <use xlink:href="#ArialMT-31"/>
       <use xlink:href="#ArialMT-35" x="55.615234"/>
      </g>
     </g>
    </g>
    <g id="xtick_5">
     <g id="line2d_5">
      <g>
       <use xlink:href="#m59522ef70a" x="321.967105" y="273.312" style="fill: #262626; stroke: #262626"/>
      </g>
     </g>
     <g id="text_5">
      <!-- 20 -->
      <g style="fill: #262626" transform="translate(317.07348 287.910875) scale(0.088 -0.088)">
       <defs>
        <path id="ArialMT-32" d="M 3222 541 
L 3222 0 
L 194 0 
Q 188 203 259 391 
Q 375 700 629 1000 
Q 884 1300 1366 1694 
Q 2113 2306 2375 2664 
Q 2638 3022 2638 3341 
Q 2638 3675 2398 3904 
Q 2159 4134 1775 4134 
Q 1369 4134 1125 3890 
Q 881 3647 878 3216 
L 300 3275 
Q 359 3922 746 4261 
Q 1134 4600 1788 4600 
Q 2447 4600 2831 4234 
Q 3216 3869 3216 3328 
Q 3216 3053 3103 2787 
Q 2991 2522 2730 2228 
Q 2469 1934 1863 1422 
Q 1356 997 1212 845 
Q 1069 694 975 541 
L 3222 541 
z
" transform="scale(0.015625)"/>
       </defs>
       <use xlink:href="#ArialMT-32"/>
       <use xlink:href="#ArialMT-30" x="55.615234"/>
      </g>
     </g>
    </g>
    <g id="xtick_6">
     <g id="line2d_6">
      <g>
       <use xlink:href="#m59522ef70a" x="386.930512" y="273.312" style="fill: #262626; stroke: #262626"/>
      </g>
     </g>
     <g id="text_6">
      <!-- 25 -->
      <g style="fill: #262626" transform="translate(382.036887 287.910875) scale(0.088 -0.088)">
       <use xlink:href="#ArialMT-32"/>
       <use xlink:href="#ArialMT-35" x="55.615234"/>
      </g>
     </g>
    </g>
    <g id="text_7">
     <!-- t -->
     <g style="fill: #262626" transform="translate(223.10725 300.531375) scale(0.096 -0.096)">
      <defs>
       <path id="ArialMT-74" d="M 1650 503 
L 1731 6 
Q 1494 -44 1306 -44 
Q 1000 -44 831 53 
Q 663 150 594 308 
Q 525 466 525 972 
L 525 2881 
L 113 2881 
L 113 3319 
L 525 3319 
L 525 4141 
L 1084 4478 
L 1084 3319 
L 1650 3319 
L 1650 2881 
L 1084 2881 
L 1084 941 
Q 1084 700 1114 631 
Q 1144 563 1211 522 
Q 1278 481 1403 481 
Q 1497 481 1650 503 
z
" transform="scale(0.015625)"/>
      </defs>
      <use xlink:href="#ArialMT-74"/>
     </g>
    </g>
   </g>
   <g id="matplotlib.axis_2">
    <g id="ytick_1">
     <g id="line2d_7">
      <defs>
       <path id="m54ad3111d1" d="M 0 0 
L -4.8 0 
" style="stroke: #262626"/>
      </defs>
      <g>
       <use xlink:href="#m54ad3111d1" x="45.88075" y="271.661378" style="fill: #262626; stroke: #262626"/>
      </g>
     </g>
     <g id="text_8">
      <!-- −0.8 -->
      <g style="fill: #262626" transform="translate(20.209 274.810816) scale(0.088 -0.088)">
       <defs>
        <path id="ArialMT-2212" d="M 3381 1997 
L 356 1997 
L 356 2522 
L 3381 2522 
L 3381 1997 
z
" transform="scale(0.015625)"/>
        <path id="ArialMT-2e" d="M 581 0 
L 581 641 
L 1222 641 
L 1222 0 
L 581 0 
z
" transform="scale(0.015625)"/>
        <path id="ArialMT-38" d="M 1131 2484 
Q 781 2613 612 2850 
Q 444 3088 444 3419 
Q 444 3919 803 4259 
Q 1163 4600 1759 4600 
Q 2359 4600 2725 4251 
Q 3091 3903 3091 3403 
Q 3091 3084 2923 2848 
Q 2756 2613 2416 2484 
Q 2838 2347 3058 2040 
Q 3278 1734 3278 1309 
Q 3278 722 2862 322 
Q 2447 -78 1769 -78 
Q 1091 -78 675 323 
Q 259 725 259 1325 
Q 259 1772 486 2073 
Q 713 2375 1131 2484 
z
M 1019 3438 
Q 1019 3113 1228 2906 
Q 1438 2700 1772 2700 
Q 2097 2700 2305 2904 
Q 2513 3109 2513 3406 
Q 2513 3716 2298 3927 
Q 2084 4138 1766 4138 
Q 1444 4138 1231 3931 
Q 1019 3725 1019 3438 
z
M 838 1322 
Q 838 1081 952 856 
Q 1066 631 1291 507 
Q 1516 384 1775 384 
Q 2178 384 2440 643 
Q 2703 903 2703 1303 
Q 2703 1709 2433 1975 
Q 2163 2241 1756 2241 
Q 1359 2241 1098 1978 
Q 838 1716 838 1322 
z
" transform="scale(0.015625)"/>
       </defs>
       <use xlink:href="#ArialMT-2212"/>
       <use xlink:href="#ArialMT-30" x="58.398438"/>
       <use xlink:href="#ArialMT-2e" x="114.013672"/>
       <use xlink:href="#ArialMT-38" x="141.796875"/>
      </g>
     </g>
    </g>
    <g id="ytick_2">
     <g id="line2d_8">
      <g>
       <use xlink:href="#m54ad3111d1" x="45.88075" y="239.632092" style="fill: #262626; stroke: #262626"/>
      </g>
     </g>
     <g id="text_9">
      <!-- −0.6 -->
      <g style="fill: #262626" transform="translate(20.209 242.781529) scale(0.088 -0.088)">
       <defs>
        <path id="ArialMT-36" d="M 3184 3459 
L 2625 3416 
Q 2550 3747 2413 3897 
Q 2184 4138 1850 4138 
Q 1581 4138 1378 3988 
Q 1113 3794 959 3422 
Q 806 3050 800 2363 
Q 1003 2672 1297 2822 
Q 1591 2972 1913 2972 
Q 2475 2972 2870 2558 
Q 3266 2144 3266 1488 
Q 3266 1056 3080 686 
Q 2894 316 2569 119 
Q 2244 -78 1831 -78 
Q 1128 -78 684 439 
Q 241 956 241 2144 
Q 241 3472 731 4075 
Q 1159 4600 1884 4600 
Q 2425 4600 2770 4297 
Q 3116 3994 3184 3459 
z
M 888 1484 
Q 888 1194 1011 928 
Q 1134 663 1356 523 
Q 1578 384 1822 384 
Q 2178 384 2434 671 
Q 2691 959 2691 1453 
Q 2691 1928 2437 2201 
Q 2184 2475 1800 2475 
Q 1419 2475 1153 2201 
Q 888 1928 888 1484 
z
" transform="scale(0.015625)"/>
       </defs>
       <use xlink:href="#ArialMT-2212"/>
       <use xlink:href="#ArialMT-30" x="58.398438"/>
       <use xlink:href="#ArialMT-2e" x="114.013672"/>
       <use xlink:href="#ArialMT-36" x="141.796875"/>
      </g>
     </g>
    </g>
    <g id="ytick_3">
     <g id="line2d_9">
      <g>
       <use xlink:href="#m54ad3111d1" x="45.88075" y="207.602806" style="fill: #262626; stroke: #262626"/>
      </g>
     </g>
     <g id="text_10">
      <!-- −0.4 -->
      <g style="fill: #262626" transform="translate(20.209 210.752243) scale(0.088 -0.088)">
       <defs>
        <path id="ArialMT-34" d="M 2069 0 
L 2069 1097 
L 81 1097 
L 81 1613 
L 2172 4581 
L 2631 4581 
L 2631 1613 
L 3250 1613 
L 3250 1097 
L 2631 1097 
L 2631 0 
L 2069 0 
z
M 2069 1613 
L 2069 3678 
L 634 1613 
L 2069 1613 
z
" transform="scale(0.015625)"/>
       </defs>
       <use xlink:href="#ArialMT-2212"/>
       <use xlink:href="#ArialMT-30" x="58.398438"/>
       <use xlink:href="#ArialMT-2e" x="114.013672"/>
       <use xlink:href="#ArialMT-34" x="141.796875"/>
      </g>
     </g>
    </g>
    <g id="ytick_4">
     <g id="line2d_10">
      <g>
       <use xlink:href="#m54ad3111d1" x="45.88075" y="175.57352" style="fill: #262626; stroke: #262626"/>
      </g>
     </g>
     <g id="text_11">
      <!-- −0.2 -->
      <g style="fill: #262626" transform="translate(20.209 178.722957) scale(0.088 -0.088)">
       <use xlink:href="#ArialMT-2212"/>
       <use xlink:href="#ArialMT-30" x="58.398438"/>
       <use xlink:href="#ArialMT-2e" x="114.013672"/>
       <use xlink:href="#ArialMT-32" x="141.796875"/>
      </g>
     </g>
    </g>
    <g id="ytick_5">
     <g id="line2d_11">
      <g>
       <use xlink:href="#m54ad3111d1" x="45.88075" y="143.544233" style="fill: #262626; stroke: #262626"/>
      </g>
     </g>
     <g id="text_12">
      <!-- 0.0 -->
      <g style="fill: #262626" transform="translate(25.34875 146.693671) scale(0.088 -0.088)">
       <use xlink:href="#ArialMT-30"/>
       <use xlink:href="#ArialMT-2e" x="55.615234"/>
       <use xlink:href="#ArialMT-30" x="83.398438"/>
      </g>
     </g>
    </g>
    <g id="ytick_6">
     <g id="line2d_12">
      <g>
       <use xlink:href="#m54ad3111d1" x="45.88075" y="111.514947" style="fill: #262626; stroke: #262626"/>
      </g>
     </g>
     <g id="text_13">
      <!-- 0.2 -->
      <g style="fill: #262626" transform="translate(25.34875 114.664385) scale(0.088 -0.088)">
       <use xlink:href="#ArialMT-30"/>
       <use xlink:href="#ArialMT-2e" x="55.615234"/>
       <use xlink:href="#ArialMT-32" x="83.398438"/>
      </g>
     </g>
    </g>
    <g id="ytick_7">
     <g id="line2d_13">
      <g>
       <use xlink:href="#m54ad3111d1" x="45.88075" y="79.485661" style="fill: #262626; stroke: #262626"/>
      </g>
     </g>
     <g id="text_14">
      <!-- 0.4 -->
      <g style="fill: #262626" transform="translate(25.34875 82.635099) scale(0.088 -0.088)">
       <use xlink:href="#ArialMT-30"/>
       <use xlink:href="#ArialMT-2e" x="55.615234"/>
       <use xlink:href="#ArialMT-34" x="83.398438"/>
      </g>
     </g>
    </g>
    <g id="ytick_8">
     <g id="line2d_14">
      <g>
       <use xlink:href="#m54ad3111d1" x="45.88075" y="47.456375" style="fill: #262626; stroke: #262626"/>
      </g>
     </g>
     <g id="text_15">
      <!-- 0.6 -->
      <g style="fill: #262626" transform="translate(25.34875 50.605812) scale(0.088 -0.088)">
       <use xlink:href="#ArialMT-30"/>
       <use xlink:href="#ArialMT-2e" x="55.615234"/>
       <use xlink:href="#ArialMT-36" x="83.398438"/>
      </g>
     </g>
    </g>
    <g id="ytick_9">
     <g id="line2d_15">
      <g>
       <use xlink:href="#m54ad3111d1" x="45.88075" y="15.427089" style="fill: #262626; stroke: #262626"/>
      </g>
     </g>
     <g id="text_16">
      <!-- 0.8 -->
      <g style="fill: #262626" transform="translate(25.34875 18.576526) scale(0.088 -0.088)">
       <use xlink:href="#ArialMT-30"/>
       <use xlink:href="#ArialMT-2e" x="55.615234"/>
       <use xlink:href="#ArialMT-38" x="83.398438"/>
      </g>
     </g>
    </g>
    <g id="text_17">
     <!-- v(t) -->
     <g style="fill: #262626" transform="translate(14.1885 147.186) rotate(-90) scale(0.096 -0.096)">
      <defs>
       <path id="ArialMT-76" d="M 1344 0 
L 81 3319 
L 675 3319 
L 1388 1331 
Q 1503 1009 1600 663 
Q 1675 925 1809 1294 
L 2547 3319 
L 3125 3319 
L 1869 0 
L 1344 0 
z
" transform="scale(0.015625)"/>
       <path id="ArialMT-28" d="M 1497 -1347 
Q 1031 -759 709 28 
Q 388 816 388 1659 
Q 388 2403 628 3084 
Q 909 3875 1497 4659 
L 1900 4659 
Q 1522 4009 1400 3731 
Q 1209 3300 1100 2831 
Q 966 2247 966 1656 
Q 966 153 1900 -1347 
L 1497 -1347 
z
" transform="scale(0.015625)"/>
       <path id="ArialMT-29" d="M 791 -1347 
L 388 -1347 
Q 1322 153 1322 1656 
Q 1322 2244 1188 2822 
Q 1081 3291 891 3722 
Q 769 4003 388 4659 
L 791 4659 
Q 1378 3875 1659 3084 
Q 1900 2403 1900 1659 
Q 1900 816 1576 28 
Q 1253 -759 791 -1347 
z
" transform="scale(0.015625)"/>
      </defs>
      <use xlink:href="#ArialMT-76"/>
      <use xlink:href="#ArialMT-28" x="50"/>
      <use xlink:href="#ArialMT-74" x="83.300781"/>
      <use xlink:href="#ArialMT-29" x="111.083984"/>
     </g>
    </g>
   </g>
   <g id="line2d_16">
    <path d="M 62.113477 143.544233 
L 65.363273 129.211891 
L 67.31315 121.533119 
L 68.938047 115.981721 
L 70.237965 112.233365 
L 71.537883 109.200652 
L 72.512822 107.448464 
L 73.487761 106.1832 
L 74.13772 105.626775 
L 74.787679 105.311016 
L 75.437638 105.244708 
L 76.087597 105.43599 
L 76.737556 105.892118 
L 77.387515 106.619299 
L 78.037474 107.622466 
L 79.012413 109.651757 
L 79.987351 112.313349 
L 80.96229 115.600568 
L 82.262208 120.922195 
L 83.562126 127.239131 
L 85.187024 136.341 
L 87.136901 148.588786 
L 94.61143 197.223362 
L 96.561307 207.913674 
L 98.511184 217.274197 
L 100.136082 223.956523 
L 101.436 228.46778 
L 102.410938 231.280543 
L 103.385877 233.514546 
L 104.035836 234.630173 
L 104.685795 235.402889 
L 105.335754 235.789452 
L 105.660734 235.823147 
L 105.985713 235.742116 
L 106.635672 235.209708 
L 107.285631 234.138601 
L 107.93559 232.474749 
L 108.585549 230.165403 
L 109.235508 227.162016 
L 110.210447 221.267001 
L 111.185386 213.623574 
L 112.160324 204.210284 
L 113.460242 189.045991 
L 115.08514 166.600582 
L 120.934771 80.657119 
L 122.234689 66.053268 
L 123.534607 54.054707 
L 124.834526 44.545337 
L 125.809464 38.862755 
L 126.784403 34.235359 
L 127.759341 30.487912 
L 128.73428 27.461282 
L 129.709218 25.02942 
L 130.684157 23.112442 
L 131.659096 21.686205 
L 132.309055 21.024036 
L 132.959014 20.622811 
L 133.608973 20.522736 
L 134.258932 20.776655 
L 134.908891 21.448828 
L 135.55885 22.613653 
L 136.208809 24.353382 
L 136.858768 26.75486 
L 137.508727 29.905982 
L 138.158686 33.890892 
L 139.133625 41.591987 
L 140.108563 51.51964 
L 141.083502 63.740606 
L 142.38342 83.427128 
L 144.008318 112.424439 
L 148.558031 197.559057 
L 149.857949 216.802579 
L 150.832888 228.726147 
L 151.807826 238.424374 
L 152.782765 245.978211 
L 153.757703 251.568345 
L 154.407662 254.322423 
L 155.057621 256.390392 
L 155.70758 257.852491 
L 156.35754 258.786267 
L 157.007499 259.263751 
L 157.657458 259.349354 
L 158.307417 259.098156 
L 158.957376 258.555104 
L 159.607335 257.754364 
L 160.582273 256.118088 
L 161.557212 253.986174 
L 162.53215 251.344226 
L 163.507089 248.136614 
L 164.482028 244.277647 
L 165.456966 239.66497 
L 166.431905 234.195186 
L 167.731823 225.422431 
L 169.031741 214.865326 
L 170.331659 202.575675 
L 171.956557 185.167093 
L 178.131168 116.001722 
L 179.431086 104.64273 
L 180.731004 95.233659 
L 181.705942 89.509235 
L 182.680881 84.912375 
L 183.65582 81.393346 
L 184.630758 78.878683 
L 185.280717 77.716775 
L 185.930676 76.933573 
L 186.580635 76.500142 
L 187.230594 76.387673 
L 187.880553 76.568135 
L 188.530512 77.01471 
L 189.180472 77.702098 
L 190.15541 79.133733 
L 191.130349 80.983125 
L 192.430267 83.992368 
L 194.055164 88.45637 
L 196.005042 94.587192 
L 198.604878 103.610416 
L 204.454509 124.290377 
L 206.404386 130.296068 
L 208.029284 134.650055 
L 209.329202 137.632653 
L 210.62912 140.132718 
L 211.929038 142.133193 
L 212.903977 143.304706 
L 213.878915 144.200011 
L 214.853854 144.829114 
L 215.828793 145.206179 
L 216.803731 145.348983 
L 217.77867 145.278486 
L 218.753608 145.01834 
L 220.053526 144.421468 
L 221.678424 143.367274 
L 223.953281 141.563524 
L 226.878096 139.25399 
L 228.502994 138.248203 
L 229.802912 137.699043 
L 230.777851 137.47617 
L 231.752789 137.441177 
L 232.727728 137.614847 
L 233.702666 138.015324 
L 234.677605 138.657788 
L 235.652544 139.554077 
L 236.627482 140.712436 
L 237.9274 142.671385 
L 239.227318 145.10185 
L 240.527236 147.98818 
L 242.152134 152.189721 
L 244.102011 157.977768 
L 246.376868 165.476376 
L 252.551479 186.296566 
L 254.176377 190.967948 
L 255.801274 194.953845 
L 257.101192 197.536454 
L 258.076131 199.065399 
L 259.051069 200.206412 
L 260.026008 200.925535 
L 260.675967 201.153929 
L 261.325926 201.16999 
L 261.975885 200.96406 
L 262.625844 200.526787 
L 263.275803 199.849207 
L 263.925762 198.922914 
L 264.900701 197.05067 
L 265.875639 194.580488 
L 266.850578 191.497559 
L 268.150496 186.42489 
L 269.450414 180.26873 
L 270.750332 173.084056 
L 272.37523 162.812153 
L 274.325107 148.988153 
L 281.799636 93.82921 
L 283.424534 84.150193 
L 284.724452 77.509251 
L 286.02437 71.948728 
L 286.999309 68.525574 
L 287.974247 65.763544 
L 288.949186 63.676408 
L 289.599145 62.665361 
L 290.249104 61.961936 
L 290.899063 61.568978 
L 291.549022 61.489178 
L 292.198981 61.725209 
L 292.84894 62.27961 
L 293.498899 63.154786 
L 294.148858 64.352576 
L 295.123797 66.756875 
L 296.098735 69.890195 
L 297.073674 73.745677 
L 298.373592 79.980769 
L 299.67351 87.40044 
L 301.298408 98.166109 
L 303.248285 112.840961 
L 306.49808 139.595304 
L 309.747875 165.751856 
L 311.697752 179.614213 
L 313.32265 189.577153 
L 314.622568 196.342048 
L 315.922486 201.957319 
L 316.897425 205.390944 
L 317.872363 208.150951 
L 318.847302 210.238784 
L 319.497261 211.260493 
L 320.14722 211.989805 
L 320.797179 212.430777 
L 321.447138 212.588282 
L 322.097097 212.46788 
L 322.747056 212.0758 
L 323.397015 211.419 
L 324.046974 210.50505 
L 325.021913 208.670649 
L 325.996852 206.308407 
L 327.29677 202.400282 
L 328.596688 197.715269 
L 330.221585 190.936915 
L 332.171463 181.775773 
L 335.421258 165.222853 
L 338.671053 148.919727 
L 340.94591 138.649183 
L 342.570807 132.19184 
L 344.195705 126.594836 
L 345.495623 122.78208 
L 346.795541 119.578083 
L 348.095459 116.984108 
L 349.070398 115.432687 
L 350.045336 114.209686 
L 351.020275 113.303415 
L 351.995214 112.699635 
L 352.970152 112.38174 
L 353.945091 112.331139 
L 354.920029 112.527521 
L 355.894968 112.949156 
L 357.194886 113.822025 
L 358.494804 114.997984 
L 360.119702 116.805701 
L 362.069579 119.320873 
L 369.869087 129.786718 
L 371.818965 131.854228 
L 373.443862 133.299601 
L 375.06876 134.483445 
L 376.693657 135.414109 
L 378.318555 136.114534 
L 380.268432 136.702107 
L 382.543289 137.143134 
L 386.768023 137.783461 
L 386.768023 137.783461 
" clip-path="url(#p5f6ca2a7ba)" style="fill: none; stroke: #1f77b4; stroke-width: 1.2; stroke-linecap: round"/>
   </g>
   <g id="line2d_17">
    <path d="M 62.113477 143.544233 
L 65.363273 129.211901 
L 67.31315 121.532277 
L 68.938047 115.979376 
L 70.237965 112.229201 
L 71.537883 109.194075 
L 72.512822 107.439677 
L 73.487761 106.171834 
L 74.13772 105.613486 
L 74.787679 105.295624 
L 75.437638 105.227066 
L 76.087597 105.415925 
L 76.737556 105.869471 
L 77.387515 106.593925 
L 78.037474 107.594238 
L 79.012413 109.619049 
L 79.987351 112.276012 
L 80.96229 115.558609 
L 82.262208 120.874427 
L 83.562126 127.186476 
L 85.187024 136.28456 
L 87.136901 148.533023 
L 94.61143 197.251865 
L 96.561307 207.992529 
L 98.511184 217.421908 
L 100.136082 224.180947 
L 101.436 228.769617 
L 102.735918 232.489964 
L 103.710856 234.589901 
L 104.360816 235.598533 
L 105.010775 236.246623 
L 105.660734 236.48776 
L 105.985713 236.440004 
L 106.310693 236.271154 
L 106.960652 235.542558 
L 107.610611 234.245815 
L 108.26057 232.324713 
L 108.910529 229.725281 
L 109.560488 226.398694 
L 110.535426 219.959586 
L 111.510365 211.710748 
L 112.485304 201.65037 
L 113.785222 185.609473 
L 115.410119 162.174063 
L 120.609792 83.808222 
L 121.90971 68.446409 
L 123.209628 55.785196 
L 124.184567 48.025587 
L 125.159505 41.623286 
L 126.134444 36.407164 
L 127.109382 32.185651 
L 128.084321 28.770777 
L 129.059259 25.997885 
L 130.034198 23.741173 
L 131.009137 21.925548 
L 131.984075 20.535193 
L 132.634034 19.866103 
L 133.283993 19.437998 
L 133.933952 19.296 
L 134.583911 19.498641 
L 135.23387 20.116987 
L 135.883829 21.233502 
L 136.533788 22.939745 
L 137.183748 25.333577 
L 137.833707 28.515226 
L 138.483666 32.582494 
L 139.458604 40.535294 
L 140.433543 50.909073 
L 141.408481 63.805763 
L 142.708399 84.766282 
L 144.333297 115.835809 
L 148.558031 200.232171 
L 149.857949 220.596975 
L 150.832888 232.976067 
L 151.807826 242.801832 
L 152.782765 250.198073 
L 153.432724 253.897535 
L 154.082683 256.718088 
L 154.732642 258.759798 
L 155.382601 260.12479 
L 156.03256 260.912425 
L 156.682519 261.216 
L 157.332478 261.119868 
L 157.982437 260.697805 
L 158.632396 260.012058 
L 159.607335 258.595043 
L 160.907253 256.148004 
L 162.207171 253.160777 
L 163.507089 249.585321 
L 164.807007 245.237893 
L 165.781946 241.303861 
L 166.756884 236.639113 
L 167.731823 231.102931 
L 169.031741 222.152878 
L 170.331659 211.234591 
L 171.631577 198.32479 
L 173.256475 179.727151 
L 176.181291 142.600843 
L 178.131168 118.862139 
L 179.756065 101.87545 
L 181.055983 90.846079 
L 182.030922 84.23184 
L 183.005861 79.052568 
L 183.980799 75.253943 
L 184.630758 73.440165 
L 185.280717 72.157793 
L 185.930676 71.364731 
L 186.580635 71.016603 
L 187.230594 71.068287 
L 187.880553 71.475125 
L 188.530512 72.193956 
L 189.505451 73.768333 
L 190.48039 75.826795 
L 191.780308 79.135122 
L 193.730185 84.879138 
L 197.954919 98.428996 
L 200.879734 107.450452 
L 203.154591 113.832528 
L 205.104468 118.713034 
L 207.054345 122.962845 
L 208.679243 125.98238 
L 210.304141 128.51015 
L 211.604059 130.17888 
L 212.903977 131.543174 
L 214.203895 132.620566 
L 215.503813 133.43659 
L 216.803731 134.024477 
L 218.428629 134.500549 
L 220.378506 134.815544 
L 224.60324 135.382173 
L 226.228137 135.87803 
L 227.528055 136.496986 
L 228.827974 137.363423 
L 230.127892 138.515251 
L 231.42781 139.981063 
L 232.727728 141.778823 
L 234.027646 143.915066 
L 235.652544 147.052522 
L 237.277441 150.675929 
L 239.227318 155.58334 
L 241.502175 161.912748 
L 245.07695 172.642774 
L 252.876458 196.310858 
L 255.801274 204.460514 
L 257.751151 209.308687 
L 259.051069 212.097101 
L 260.350988 214.362609 
L 261.325926 215.604794 
L 261.975885 216.16267 
L 262.625844 216.467485 
L 263.275803 216.48513 
L 263.925762 216.17989 
L 264.575721 215.515057 
L 265.22568 214.45393 
L 265.875639 212.96078 
L 266.525598 211.002245 
L 267.500537 207.128573 
L 268.475476 202.06725 
L 269.450414 195.78265 
L 270.750332 185.536011 
L 272.05025 173.354243 
L 273.675148 156.035639 
L 278.87482 98.806634 
L 280.174739 87.217716 
L 281.474657 77.424616 
L 282.774575 69.451184 
L 283.749513 64.590611 
L 284.724452 60.586386 
L 285.69939 57.324298 
L 286.674329 54.684021 
L 287.649268 52.54993 
L 288.949186 50.317865 
L 290.249104 48.621978 
L 291.549022 47.3621 
L 292.52396 46.697764 
L 293.498899 46.31228 
L 294.148858 46.243991 
L 294.798817 46.359912 
L 295.448776 46.695616 
L 296.098735 47.292456 
L 296.748694 48.196871 
L 297.398653 49.459355 
L 298.048612 51.132953 
L 298.698571 53.271988 
L 299.67351 57.468454 
L 300.648449 62.992838 
L 301.623387 69.968997 
L 302.598326 78.459804 
L 303.898244 92.092832 
L 305.523141 112.356702 
L 308.122978 148.905005 
L 310.397834 179.724903 
L 311.697752 194.856429 
L 312.997671 207.449382 
L 313.972609 215.086289 
L 314.947548 221.184222 
L 315.922486 225.833277 
L 316.897425 229.176378 
L 317.547384 230.764611 
L 318.197343 231.904254 
L 318.847302 232.650519 
L 319.497261 233.056832 
L 320.14722 233.173697 
L 320.797179 233.047534 
L 321.447138 232.720001 
L 322.422077 231.929168 
L 323.721995 230.463088 
L 325.346893 228.176394 
L 326.97179 225.494031 
L 328.596688 222.364921 
L 329.896606 219.414225 
L 331.196524 215.911357 
L 332.496442 211.690946 
L 333.79636 206.589526 
L 335.096278 200.471963 
L 336.396196 193.25846 
L 338.021094 182.712225 
L 339.970971 168.142762 
L 346.145582 119.71428 
L 347.4455 111.603111 
L 348.745418 104.813308 
L 349.720357 100.6405 
L 350.695295 97.256049 
L 351.670234 94.630686 
L 352.645173 92.713979 
L 353.295132 91.7978 
L 353.945091 91.145358 
L 354.59505 90.733261 
L 355.245009 90.537402 
L 355.894968 90.533646 
L 356.544927 90.698081 
L 357.519865 91.209651 
L 358.494804 91.973809 
L 359.794722 93.269826 
L 362.069579 95.923773 
L 364.994395 99.309494 
L 366.944272 101.221586 
L 368.569169 102.516243 
L 370.194067 103.53075 
L 371.818965 104.29569 
L 374.093821 105.075357 
L 377.343617 106.132752 
L 378.643535 106.754253 
L 379.943453 107.611634 
L 381.243371 108.789794 
L 382.543289 110.370411 
L 383.843207 112.426566 
L 385.143125 115.016667 
L 386.443043 118.178354 
L 386.768023 119.060076 
L 386.768023 119.060076 
" clip-path="url(#p5f6ca2a7ba)" style="fill: none; stroke-dasharray: 4.44,1.92; stroke-dashoffset: 0; stroke: #ff7f0e; stroke-width: 1.2"/>
   </g>
   <g id="patch_3">
    <path d="M 45.88075 271.661378 
L 45.88075 15.427089 
" style="fill: none; stroke: #262626; stroke-linejoin: miter; stroke-linecap: square"/>
   </g>
   <g id="patch_4">
    <path d="M 62.113477 273.312 
L 386.930512 273.312 
" style="fill: none; stroke: #262626; stroke-linejoin: miter; stroke-linecap: square"/>
   </g>
   <g id="legend_1">
    <g id="line2d_18">
     <path d="M 296.112375 18.446125 
L 304.912375 18.446125 
L 313.712375 18.446125 
" style="fill: none; stroke: #1f77b4; stroke-width: 1.2; stroke-linecap: round"/>
    </g>
    <g id="text_18">
     <!-- v (Monte Carlo) -->
     <g style="fill: #262626" transform="translate(320.752375 21.526125) scale(0.088 -0.088)">
      <defs>
       <path id="ArialMT-20" transform="scale(0.015625)"/>
       <path id="ArialMT-4d" d="M 475 0 
L 475 4581 
L 1388 4581 
L 2472 1338 
Q 2622 884 2691 659 
Q 2769 909 2934 1394 
L 4031 4581 
L 4847 4581 
L 4847 0 
L 4263 0 
L 4263 3834 
L 2931 0 
L 2384 0 
L 1059 3900 
L 1059 0 
L 475 0 
z
" transform="scale(0.015625)"/>
       <path id="ArialMT-6f" d="M 213 1659 
Q 213 2581 725 3025 
Q 1153 3394 1769 3394 
Q 2453 3394 2887 2945 
Q 3322 2497 3322 1706 
Q 3322 1066 3130 698 
Q 2938 331 2570 128 
Q 2203 -75 1769 -75 
Q 1072 -75 642 372 
Q 213 819 213 1659 
z
M 791 1659 
Q 791 1022 1069 705 
Q 1347 388 1769 388 
Q 2188 388 2466 706 
Q 2744 1025 2744 1678 
Q 2744 2294 2464 2611 
Q 2184 2928 1769 2928 
Q 1347 2928 1069 2612 
Q 791 2297 791 1659 
z
" transform="scale(0.015625)"/>
       <path id="ArialMT-6e" d="M 422 0 
L 422 3319 
L 928 3319 
L 928 2847 
Q 1294 3394 1984 3394 
Q 2284 3394 2536 3286 
Q 2788 3178 2913 3003 
Q 3038 2828 3088 2588 
Q 3119 2431 3119 2041 
L 3119 0 
L 2556 0 
L 2556 2019 
Q 2556 2363 2490 2533 
Q 2425 2703 2258 2804 
Q 2091 2906 1866 2906 
Q 1506 2906 1245 2678 
Q 984 2450 984 1813 
L 984 0 
L 422 0 
z
" transform="scale(0.015625)"/>
       <path id="ArialMT-65" d="M 2694 1069 
L 3275 997 
Q 3138 488 2766 206 
Q 2394 -75 1816 -75 
Q 1088 -75 661 373 
Q 234 822 234 1631 
Q 234 2469 665 2931 
Q 1097 3394 1784 3394 
Q 2450 3394 2872 2941 
Q 3294 2488 3294 1666 
Q 3294 1616 3291 1516 
L 816 1516 
Q 847 969 1125 678 
Q 1403 388 1819 388 
Q 2128 388 2347 550 
Q 2566 713 2694 1069 
z
M 847 1978 
L 2700 1978 
Q 2663 2397 2488 2606 
Q 2219 2931 1791 2931 
Q 1403 2931 1139 2672 
Q 875 2413 847 1978 
z
" transform="scale(0.015625)"/>
       <path id="ArialMT-43" d="M 3763 1606 
L 4369 1453 
Q 4178 706 3683 314 
Q 3188 -78 2472 -78 
Q 1731 -78 1267 223 
Q 803 525 561 1097 
Q 319 1669 319 2325 
Q 319 3041 592 3573 
Q 866 4106 1370 4382 
Q 1875 4659 2481 4659 
Q 3169 4659 3637 4309 
Q 4106 3959 4291 3325 
L 3694 3184 
Q 3534 3684 3231 3912 
Q 2928 4141 2469 4141 
Q 1941 4141 1586 3887 
Q 1231 3634 1087 3207 
Q 944 2781 944 2328 
Q 944 1744 1114 1308 
Q 1284 872 1643 656 
Q 2003 441 2422 441 
Q 2931 441 3284 734 
Q 3638 1028 3763 1606 
z
" transform="scale(0.015625)"/>
       <path id="ArialMT-61" d="M 2588 409 
Q 2275 144 1986 34 
Q 1697 -75 1366 -75 
Q 819 -75 525 192 
Q 231 459 231 875 
Q 231 1119 342 1320 
Q 453 1522 633 1644 
Q 813 1766 1038 1828 
Q 1203 1872 1538 1913 
Q 2219 1994 2541 2106 
Q 2544 2222 2544 2253 
Q 2544 2597 2384 2738 
Q 2169 2928 1744 2928 
Q 1347 2928 1158 2789 
Q 969 2650 878 2297 
L 328 2372 
Q 403 2725 575 2942 
Q 747 3159 1072 3276 
Q 1397 3394 1825 3394 
Q 2250 3394 2515 3294 
Q 2781 3194 2906 3042 
Q 3031 2891 3081 2659 
Q 3109 2516 3109 2141 
L 3109 1391 
Q 3109 606 3145 398 
Q 3181 191 3288 0 
L 2700 0 
Q 2613 175 2588 409 
z
M 2541 1666 
Q 2234 1541 1622 1453 
Q 1275 1403 1131 1340 
Q 988 1278 909 1158 
Q 831 1038 831 891 
Q 831 666 1001 516 
Q 1172 366 1500 366 
Q 1825 366 2078 508 
Q 2331 650 2450 897 
Q 2541 1088 2541 1459 
L 2541 1666 
z
" transform="scale(0.015625)"/>
       <path id="ArialMT-72" d="M 416 0 
L 416 3319 
L 922 3319 
L 922 2816 
Q 1116 3169 1280 3281 
Q 1444 3394 1641 3394 
Q 1925 3394 2219 3213 
L 2025 2691 
Q 1819 2813 1613 2813 
Q 1428 2813 1281 2702 
Q 1134 2591 1072 2394 
Q 978 2094 978 1738 
L 978 0 
L 416 0 
z
" transform="scale(0.015625)"/>
       <path id="ArialMT-6c" d="M 409 0 
L 409 4581 
L 972 4581 
L 972 0 
L 409 0 
z
" transform="scale(0.015625)"/>
      </defs>
      <use xlink:href="#ArialMT-76"/>
      <use xlink:href="#ArialMT-20" x="50"/>
      <use xlink:href="#ArialMT-28" x="77.783203"/>
      <use xlink:href="#ArialMT-4d" x="111.083984"/>
      <use xlink:href="#ArialMT-6f" x="194.384766"/>
      <use xlink:href="#ArialMT-6e" x="250"/>
      <use xlink:href="#ArialMT-74" x="305.615234"/>
      <use xlink:href="#ArialMT-65" x="333.398438"/>
      <use xlink:href="#ArialMT-20" x="389.013672"/>
      <use xlink:href="#ArialMT-43" x="416.796875"/>
      <use xlink:href="#ArialMT-61" x="489.013672"/>
      <use xlink:href="#ArialMT-72" x="544.628906"/>
      <use xlink:href="#ArialMT-6c" x="577.929688"/>
      <use xlink:href="#ArialMT-6f" x="600.146484"/>
      <use xlink:href="#ArialMT-29" x="655.761719"/>
     </g>
    </g>
    <g id="line2d_19">
     <path d="M 296.112375 31.104375 
L 304.912375 31.104375 
L 313.712375 31.104375 
" style="fill: none; stroke-dasharray: 4.44,1.92; stroke-dashoffset: 0; stroke: #ff7f0e; stroke-width: 1.2"/>
    </g>
    <g id="text_19">
     <!-- v (Local sensitivity) -->
     <g style="fill: #262626" transform="translate(320.752375 34.184375) scale(0.088 -0.088)">
      <defs>
       <path id="ArialMT-4c" d="M 469 0 
L 469 4581 
L 1075 4581 
L 1075 541 
L 3331 541 
L 3331 0 
L 469 0 
z
" transform="scale(0.015625)"/>
       <path id="ArialMT-63" d="M 2588 1216 
L 3141 1144 
Q 3050 572 2676 248 
Q 2303 -75 1759 -75 
Q 1078 -75 664 370 
Q 250 816 250 1647 
Q 250 2184 428 2587 
Q 606 2991 970 3192 
Q 1334 3394 1763 3394 
Q 2303 3394 2647 3120 
Q 2991 2847 3088 2344 
L 2541 2259 
Q 2463 2594 2264 2762 
Q 2066 2931 1784 2931 
Q 1359 2931 1093 2626 
Q 828 2322 828 1663 
Q 828 994 1084 691 
Q 1341 388 1753 388 
Q 2084 388 2306 591 
Q 2528 794 2588 1216 
z
" transform="scale(0.015625)"/>
       <path id="ArialMT-73" d="M 197 991 
L 753 1078 
Q 800 744 1014 566 
Q 1228 388 1613 388 
Q 2000 388 2187 545 
Q 2375 703 2375 916 
Q 2375 1106 2209 1216 
Q 2094 1291 1634 1406 
Q 1016 1563 777 1677 
Q 538 1791 414 1992 
Q 291 2194 291 2438 
Q 291 2659 392 2848 
Q 494 3038 669 3163 
Q 800 3259 1026 3326 
Q 1253 3394 1513 3394 
Q 1903 3394 2198 3281 
Q 2494 3169 2634 2976 
Q 2775 2784 2828 2463 
L 2278 2388 
Q 2241 2644 2061 2787 
Q 1881 2931 1553 2931 
Q 1166 2931 1000 2803 
Q 834 2675 834 2503 
Q 834 2394 903 2306 
Q 972 2216 1119 2156 
Q 1203 2125 1616 2013 
Q 2213 1853 2448 1751 
Q 2684 1650 2818 1456 
Q 2953 1263 2953 975 
Q 2953 694 2789 445 
Q 2625 197 2315 61 
Q 2006 -75 1616 -75 
Q 969 -75 630 194 
Q 291 463 197 991 
z
" transform="scale(0.015625)"/>
       <path id="ArialMT-69" d="M 425 3934 
L 425 4581 
L 988 4581 
L 988 3934 
L 425 3934 
z
M 425 0 
L 425 3319 
L 988 3319 
L 988 0 
L 425 0 
z
" transform="scale(0.015625)"/>
       <path id="ArialMT-79" d="M 397 -1278 
L 334 -750 
Q 519 -800 656 -800 
Q 844 -800 956 -737 
Q 1069 -675 1141 -563 
Q 1194 -478 1313 -144 
Q 1328 -97 1363 -6 
L 103 3319 
L 709 3319 
L 1400 1397 
Q 1534 1031 1641 628 
Q 1738 1016 1872 1384 
L 2581 3319 
L 3144 3319 
L 1881 -56 
Q 1678 -603 1566 -809 
Q 1416 -1088 1222 -1217 
Q 1028 -1347 759 -1347 
Q 597 -1347 397 -1278 
z
" transform="scale(0.015625)"/>
      </defs>
      <use xlink:href="#ArialMT-76"/>
      <use xlink:href="#ArialMT-20" x="50"/>
      <use xlink:href="#ArialMT-28" x="77.783203"/>
      <use xlink:href="#ArialMT-4c" x="111.083984"/>
      <use xlink:href="#ArialMT-6f" x="166.699219"/>
      <use xlink:href="#ArialMT-63" x="222.314453"/>
      <use xlink:href="#ArialMT-61" x="272.314453"/>
      <use xlink:href="#ArialMT-6c" x="327.929688"/>
      <use xlink:href="#ArialMT-20" x="350.146484"/>
      <use xlink:href="#ArialMT-73" x="377.929688"/>
      <use xlink:href="#ArialMT-65" x="427.929688"/>
      <use xlink:href="#ArialMT-6e" x="483.544922"/>
      <use xlink:href="#ArialMT-73" x="539.160156"/>
      <use xlink:href="#ArialMT-69" x="589.160156"/>
      <use xlink:href="#ArialMT-74" x="611.376953"/>
      <use xlink:href="#ArialMT-69" x="639.160156"/>
      <use xlink:href="#ArialMT-76" x="661.376953"/>
      <use xlink:href="#ArialMT-69" x="711.376953"/>
      <use xlink:href="#ArialMT-74" x="733.59375"/>
      <use xlink:href="#ArialMT-79" x="761.376953"/>
      <use xlink:href="#ArialMT-29" x="811.376953"/>
     </g>
    </g>
   </g>
  </g>
 </g>
 <defs>
  <clipPath id="p5f6ca2a7ba">
   <rect x="45.88075" y="7.2" width="357.12" height="266.112"/>
  </clipPath>
 </defs>
</svg>