<?xml version="1.0" encoding="utf-8" standalone="no"?>
<!DOCTYPE svg PUBLIC "-//W3C//DTD SVG 1.1//EN"
  "http://www.w3.org/Graphics/SVG/1.1/DTD/svg11.dtd">
<svg xmlns:xlink="http://www.w3.org/1999/xlink" width="390.24085pt" height="327.799375pt" viewBox="0 0 390.24085 327.799375" xmlns="http://www.w3.org/2000/svg" version="1.1">
 <metadata>
  <rdf:RDF xmlns:dc="http://purl.org/dc/elements/1.1/" xmlns:cc="http://creativecommons.org/ns#" xmlns:rdf="http://www.w3.org/1999/02/22-rdf-syntax-ns#">
   <cc:Work>
    <dc:type rdf:resource="http://purl.org/dc/dcmitype/StillImage"/>
    <dc:date>2025-03-14T03:23:43.553087</dc:date>
    <dc:format>image/svg+xml</dc:format>
    <dc:creator>
     <cc:Agent>
      <dc:title>Matplotlib v3.9.2, https://matplotlib.org/</dc:title>
     </cc:Agent>
    </dc:creator>
   </cc:Work>
  </rdf:RDF>
 </metadata>
 <defs>
  <style type="text/css">*{stroke-linejoin: round; stroke-linecap: butt}</style>
 </defs>
 <g id="figure_1">
  <g id="patch_1">
   <path d="M 0 327.799375 
L 390.24085 327.799375 
L 390.24085 0 
L 0 0 
z
" style="fill: #ffffff"/>
  </g>
  <g id="axes_1">
   <g id="patch_2">
    <path d="M 40.5115 291.472 
L 326.2075 291.472 
L 326.2075 25.36 
L 40.5115 25.36 
z
" style="fill: #ffffff"/>
   </g>
   <g id="matplotlib.axis_1">
    <g id="xtick_1">
     <g id="line2d_1">
      <defs>
       <path id="mdb003f62a2" d="M 0 0 
L 0 4.8 
" style="stroke: #262626"/>
      </defs>
      <g>
       <use xlink:href="#mdb003f62a2" x="40.5115" y="291.472" style="fill: #262626; stroke: #262626"/>
      </g>
     </g>
     <g id="text_1">
      <!-- 0.0 -->
      <g style="fill: #262626" transform="translate(34.3955 306.070875) scale(0.088 -0.088)">
       <defs>
        <path id="ArialMT-30" d="M 266 2259 
Q 266 3072 433 3567 
Q 600 4063 929 4331 
Q 1259 4600 1759 4600 
Q 2128 4600 2406 4451 
Q 2684 4303 2865 4023 
Q 3047 3744 3150 3342 
Q 3253 2941 3253 2259 
Q 3253 1453 3087 958 
Q 2922 463 2592 192 
Q 2263 -78 1759 -78 
Q 1097 -78 719 397 
Q 266 969 266 2259 
z
M 844 2259 
Q 844 1131 1108 757 
Q 1372 384 1759 384 
Q 2147 384 2411 759 
Q 2675 1134 2675 2259 
Q 2675 3391 2411 3762 
Q 2147 4134 1753 4134 
Q 1366 4134 1134 3806 
Q 844 3388 844 2259 
z
" transform="scale(0.015625)"/>
        <path id="ArialMT-2e" d="M 581 0 
L 581 641 
L 1222 641 
L 1222 0 
L 581 0 
z
" transform="scale(0.015625)"/>
       </defs>
       <use xlink:href="#ArialMT-30"/>
       <use xlink:href="#ArialMT-2e" x="55.615234"/>
       <use xlink:href="#ArialMT-30" x="83.398438"/>
      </g>
     </g>
    </g>
    <g id="xtick_2">
     <g id="line2d_2">
      <g>
       <use xlink:href="#mdb003f62a2" x="97.6507" y="291.472" style="fill: #262626; stroke: #262626"/>
      </g>
     </g>
     <g id="text_2">
      <!-- 0.2 -->
      <g style="fill: #262626" transform="translate(91.5347 306.070875) scale(0.088 -0.088)">
       <defs>
        <path id="ArialMT-32" d="M 3222 541 
L 3222 0 
L 194 0 
Q 188 203 259 391 
Q 375 700 629 1000 
Q 884 1300 1366 1694 
Q 2113 2306 2375 2664 
Q 2638 3022 2638 3341 
Q 2638 3675 2398 3904 
Q 2159 4134 1775 4134 
Q 1369 4134 1125 3890 
Q 881 3647 878 3216 
L 300 3275 
Q 359 3922 746 4261 
Q 1134 4600 1788 4600 
Q 2447 4600 2831 4234 
Q 3216 3869 3216 3328 
Q 3216 3053 3103 2787 
Q 2991 2522 2730 2228 
Q 2469 1934 1863 1422 
Q 1356 997 1212 845 
Q 1069 694 975 541 
L 3222 541 
z
" transform="scale(0.015625)"/>
       </defs>
       <use xlink:href="#ArialMT-30"/>
       <use xlink:href="#ArialMT-2e" x="55.615234"/>
       <use xlink:href="#ArialMT-32" x="83.398438"/>
      </g>
     </g>
    </g>
    <g id="xtick_3">
     <g id="line2d_3">
      <g>
       <use xlink:href="#mdb003f62a2" x="154.7899" y="291.472" style="fill: #262626; stroke: #262626"/>
      </g>
     </g>
     <g id="text_3">
      <!-- 0.4 -->
      <g style="fill: #262626" transform="translate(148.6739 306.070875) scale(0.088 -0.088)">
       <defs>
        <path id="ArialMT-34" d="M 2069 0 
L 2069 1097 
L 81 1097 
L 81 1613 
L 2172 4581 
L 2631 4581 
L 2631 1613 
L 3250 1613 
L 3250 1097 
L 2631 1097 
L 2631 0 
L 2069 0 
z
M 2069 1613 
L 2069 3678 
L 634 1613 
L 2069 1613 
z
" transform="scale(0.015625)"/>
       </defs>
       <use xlink:href="#ArialMT-30"/>
       <use xlink:href="#ArialMT-2e" x="55.615234"/>
       <use xlink:href="#ArialMT-34" x="83.398438"/>
      </g>
     </g>
    </g>
    <g id="xtick_4">
     <g id="line2d_4">
      <g>
       <use xlink:href="#mdb003f62a2" x="211.9291" y="291.472" style="fill: #262626; stroke: #262626"/>
      </g>
     </g>
     <g id="text_4">
      <!-- 0.6 -->
      <g style="fill: #262626" transform="translate(205.8131 306.070875) scale(0.088 -0.088)">
       <defs>
        <path id="ArialMT-36" d="M 3184 3459 
L 2625 3416 
Q 2550 3747 2413 3897 
Q 2184 4138 1850 4138 
Q 1581 4138 1378 3988 
Q 1113 3794 959 3422 
Q 806 3050 800 2363 
Q 1003 2672 1297 2822 
Q 1591 2972 1913 2972 
Q 2475 2972 2870 2558 
Q 3266 2144 3266 1488 
Q 3266 1056 3080 686 
Q 2894 316 2569 119 
Q 2244 -78 1831 -78 
Q 1128 -78 684 439 
Q 241 956 241 2144 
Q 241 3472 731 4075 
Q 1159 4600 1884 4600 
Q 2425 4600 2770 4297 
Q 3116 3994 3184 3459 
z
M 888 1484 
Q 888 1194 1011 928 
Q 1134 663 1356 523 
Q 1578 384 1822 384 
Q 2178 384 2434 671 
Q 2691 959 2691 1453 
Q 2691 1928 2437 2201 
Q 2184 2475 1800 2475 
Q 1419 2475 1153 2201 
Q 888 1928 888 1484 
z
" transform="scale(0.015625)"/>
       </defs>
       <use xlink:href="#ArialMT-30"/>
       <use xlink:href="#ArialMT-2e" x="55.615234"/>
       <use xlink:href="#ArialMT-36" x="83.398438"/>
      </g>
     </g>
    </g>
    <g id="xtick_5">
     <g id="line2d_5">
      <g>
       <use xlink:href="#mdb003f62a2" x="269.0683" y="291.472" style="fill: #262626; stroke: #262626"/>
      </g>
     </g>
     <g id="text_5">
      <!-- 0.8 -->
      <g style="fill: #262626" transform="translate(262.9523 306.070875) scale(0.088 -0.088)">
       <defs>
        <path id="ArialMT-38" d="M 1131 2484 
Q 781 2613 612 2850 
Q 444 3088 444 3419 
Q 444 3919 803 4259 
Q 1163 4600 1759 4600 
Q 2359 4600 2725 4251 
Q 3091 3903 3091 3403 
Q 3091 3084 2923 2848 
Q 2756 2613 2416 2484 
Q 2838 2347 3058 2040 
Q 3278 1734 3278 1309 
Q 3278 722 2862 322 
Q 2447 -78 1769 -78 
Q 1091 -78 675 323 
Q 259 725 259 1325 
Q 259 1772 486 2073 
Q 713 2375 1131 2484 
z
M 1019 3438 
Q 1019 3113 1228 2906 
Q 1438 2700 1772 2700 
Q 2097 2700 2305 2904 
Q 2513 3109 2513 3406 
Q 2513 3716 2298 3927 
Q 2084 4138 1766 4138 
Q 1444 4138 1231 3931 
Q 1019 3725 1019 3438 
z
M 838 1322 
Q 838 1081 952 856 
Q 1066 631 1291 507 
Q 1516 384 1775 384 
Q 2178 384 2440 643 
Q 2703 903 2703 1303 
Q 2703 1709 2433 1975 
Q 2163 2241 1756 2241 
Q 1359 2241 1098 1978 
Q 838 1716 838 1322 
z
" transform="scale(0.015625)"/>
       </defs>
       <use xlink:href="#ArialMT-30"/>
       <use xlink:href="#ArialMT-2e" x="55.615234"/>
       <use xlink:href="#ArialMT-38" x="83.398438"/>
      </g>
     </g>
    </g>
    <g id="xtick_6">
     <g id="line2d_6">
      <g>
       <use xlink:href="#mdb003f62a2" x="326.2075" y="291.472" style="fill: #262626; stroke: #262626"/>
      </g>
     </g>
     <g id="text_6">
      <!-- 1.0 -->
      <g style="fill: #262626" transform="translate(320.0915 306.070875) scale(0.088 -0.088)">
       <defs>
        <path id="ArialMT-31" d="M 2384 0 
L 1822 0 
L 1822 3584 
Q 1619 3391 1289 3197 
Q 959 3003 697 2906 
L 697 3450 
Q 1169 3672 1522 3987 
Q 1875 4303 2022 4600 
L 2384 4600 
L 2384 0 
z
" transform="scale(0.015625)"/>
       </defs>
       <use xlink:href="#ArialMT-31"/>
       <use xlink:href="#ArialMT-2e" x="55.615234"/>
       <use xlink:href="#ArialMT-30" x="83.398438"/>
      </g>
     </g>
    </g>
    <g id="text_7">
     <!-- $x_1$ -->
     <g style="fill: #262626" transform="translate(178.2235 318.691375) scale(0.096 -0.096)">
      <defs>
       <path id="DejaVuSans-Oblique-78" d="M 3841 3500 
L 2234 1784 
L 3219 0 
L 2559 0 
L 1819 1388 
L 531 0 
L -166 0 
L 1556 1844 
L 641 3500 
L 1300 3500 
L 1972 2234 
L 3144 3500 
L 3841 3500 
z
" transform="scale(0.015625)"/>
       <path id="DejaVuSans-31" d="M 794 531 
L 1825 531 
L 1825 4091 
L 703 3866 
L 703 4441 
L 1819 4666 
L 2450 4666 
L 2450 531 
L 3481 531 
L 3481 0 
L 794 0 
L 794 531 
z
" transform="scale(0.015625)"/>
      </defs>
      <use xlink:href="#DejaVuSans-Oblique-78" transform="translate(0 0.3125)"/>
      <use xlink:href="#DejaVuSans-31" transform="translate(59.179688 -16.09375) scale(0.7)"/>
     </g>
    </g>
   </g>
   <g id="matplotlib.axis_2">
    <g id="ytick_1">
     <g id="line2d_7">
      <defs>
       <path id="m99c15b391f" d="M 0 0 
L -4.8 0 
" style="stroke: #262626"/>
      </defs>
      <g>
       <use xlink:href="#m99c15b391f" x="40.5115" y="291.472" style="fill: #262626; stroke: #262626"/>
      </g>
     </g>
     <g id="text_8">
      <!-- 0.0 -->
      <g style="fill: #262626" transform="translate(19.9795 294.621437) scale(0.088 -0.088)">
       <use xlink:href="#ArialMT-30"/>
       <use xlink:href="#ArialMT-2e" x="55.615234"/>
       <use xlink:href="#ArialMT-30" x="83.398438"/>
      </g>
     </g>
    </g>
    <g id="ytick_2">
     <g id="line2d_8">
      <g>
       <use xlink:href="#m99c15b391f" x="40.5115" y="238.2496" style="fill: #262626; stroke: #262626"/>
      </g>
     </g>
     <g id="text_9">
      <!-- 0.2 -->
      <g style="fill: #262626" transform="translate(19.9795 241.399037) scale(0.088 -0.088)">
       <use xlink:href="#ArialMT-30"/>
       <use xlink:href="#ArialMT-2e" x="55.615234"/>
       <use xlink:href="#ArialMT-32" x="83.398438"/>
      </g>
     </g>
    </g>
    <g id="ytick_3">
     <g id="line2d_9">
      <g>
       <use xlink:href="#m99c15b391f" x="40.5115" y="185.0272" style="fill: #262626; stroke: #262626"/>
      </g>
     </g>
     <g id="text_10">
      <!-- 0.4 -->
      <g style="fill: #262626" transform="translate(19.9795 188.176637) scale(0.088 -0.088)">
       <use xlink:href="#ArialMT-30"/>
       <use xlink:href="#ArialMT-2e" x="55.615234"/>
       <use xlink:href="#ArialMT-34" x="83.398438"/>
      </g>
     </g>
    </g>
    <g id="ytick_4">
     <g id="line2d_10">
      <g>
       <use xlink:href="#m99c15b391f" x="40.5115" y="131.8048" style="fill: #262626; stroke: #262626"/>
      </g>
     </g>
     <g id="text_11">
      <!-- 0.6 -->
      <g style="fill: #262626" transform="translate(19.9795 134.954237) scale(0.088 -0.088)">
       <use xlink:href="#ArialMT-30"/>
       <use xlink:href="#ArialMT-2e" x="55.615234"/>
       <use xlink:href="#ArialMT-36" x="83.398438"/>
      </g>
     </g>
    </g>
    <g id="ytick_5">
     <g id="line2d_11">
      <g>
       <use xlink:href="#m99c15b391f" x="40.5115" y="78.5824" style="fill: #262626; stroke: #262626"/>
      </g>
     </g>
     <g id="text_12">
      <!-- 0.8 -->
      <g style="fill: #262626" transform="translate(19.9795 81.731837) scale(0.088 -0.088)">
       <use xlink:href="#ArialMT-30"/>
       <use xlink:href="#ArialMT-2e" x="55.615234"/>
       <use xlink:href="#ArialMT-38" x="83.398438"/>
      </g>
     </g>
    </g>
    <g id="ytick_6">
     <g id="line2d_12">
      <g>
       <use xlink:href="#m99c15b391f" x="40.5115" y="25.36" style="fill: #262626; stroke: #262626"/>
      </g>
     </g>
     <g id="text_13">
      <!-- 1.0 -->
      <g style="fill: #262626" transform="translate(19.9795 28.509437) scale(0.088 -0.088)">
       <use xlink:href="#ArialMT-31"/>
       <use xlink:href="#ArialMT-2e" x="55.615234"/>
       <use xlink:href="#ArialMT-30" x="83.398438"/>
      </g>
     </g>
    </g>
    <g id="text_14">
     <!-- $x_2$ -->
     <g style="fill: #262626" transform="translate(14.0715 163.552) rotate(-90) scale(0.096 -0.096)">
      <defs>
       <path id="DejaVuSans-32" d="M 1228 531 
L 3431 531 
L 3431 0 
L 469 0 
L 469 531 
Q 828 903 1448 1529 
Q 2069 2156 2228 2338 
Q 2531 2678 2651 2914 
Q 2772 3150 2772 3378 
Q 2772 3750 2511 3984 
Q 2250 4219 1831 4219 
Q 1534 4219 1204 4116 
Q 875 4013 500 3803 
L 500 4441 
Q 881 4594 1212 4672 
Q 1544 4750 1819 4750 
Q 2544 4750 2975 4387 
Q 3406 4025 3406 3419 
Q 3406 3131 3298 2873 
Q 3191 2616 2906 2266 
Q 2828 2175 2409 1742 
Q 1991 1309 1228 531 
z
" transform="scale(0.015625)"/>
      </defs>
      <use xlink:href="#DejaVuSans-Oblique-78" transform="translate(0 0.3125)"/>
      <use xlink:href="#DejaVuSans-32" transform="translate(59.179688 -16.09375) scale(0.7)"/>
     </g>
    </g>
   </g>
   <g id="QuadContourSet_1">
    <path d="M 160.3195 284.504896 
L 169.5355 287.127166 
L 178.7515 288.361101 
L 187.9675 288.361101 
L 197.1835 287.127166 
L 206.3995 284.504896 
L 210.005887 282.887742 
L 215.6155 278.97851 
L 220.210288 274.303484 
L 223.376823 265.719226 
L 222.344936 257.134968 
L 218.185143 248.55071 
L 215.6155 245.280039 
L 210.654664 239.966452 
L 206.3995 236.526818 
L 197.628323 231.382194 
L 197.1835 231.164006 
L 187.9675 228.819734 
L 178.7515 228.819734 
L 169.5355 231.164006 
L 169.090677 231.382194 
L 160.3195 236.526818 
L 156.064336 239.966452 
L 151.1035 245.280039 
L 148.533857 248.55071 
L 144.374064 257.134968 
L 143.342177 265.719226 
L 146.508712 274.303484 
L 151.1035 278.97851 
L 156.713113 282.887742 
z
M 169.5355 85.667994 
L 178.7515 88.012266 
L 187.9675 88.012266 
L 197.1835 85.667994 
L 197.628323 85.449806 
L 206.3995 80.305182 
L 210.654664 76.865548 
L 215.6155 71.551961 
L 218.185143 68.28129 
L 222.344936 59.697032 
L 223.376823 51.112774 
L 220.210288 42.528516 
L 215.6155 37.85349 
L 210.005887 33.944258 
L 206.3995 32.327104 
L 197.1835 29.704834 
L 187.9675 28.470899 
L 178.7515 28.470899 
L 169.5355 29.704834 
L 160.3195 32.327104 
L 156.713113 33.944258 
L 151.1035 37.85349 
L 146.508712 42.528516 
L 143.342177 51.112774 
L 144.374064 59.697032 
L 148.533857 68.28129 
L 151.1035 71.551961 
L 156.064336 76.865548 
L 160.3195 80.305182 
L 169.090677 85.449806 
z
" clip-path="url(#p9d3d761f06)" style="fill: #180f29"/>
    <path d="M 123.4555 283.017613 
L 131.459026 291.472 
L 132.6715 291.472 
L 141.8875 291.472 
L 151.1035 291.472 
L 160.3195 291.472 
L 169.5355 291.472 
L 178.7515 291.472 
L 187.9675 291.472 
L 197.1835 291.472 
L 206.3995 291.472 
L 215.6155 291.472 
L 224.8315 291.472 
L 234.0475 291.472 
L 235.259974 291.472 
L 243.2635 283.017613 
L 243.361675 282.887742 
L 246.524444 274.303484 
L 246.44039 265.719226 
L 243.906007 257.134968 
L 243.2635 255.963598 
L 239.329962 248.55071 
L 234.0475 241.262358 
L 233.080243 239.966452 
L 225.112618 231.382194 
L 224.8315 231.116798 
L 215.6155 223.32656 
L 214.856028 222.797935 
L 206.3995 217.367269 
L 199.514626 214.213677 
L 197.1835 213.167694 
L 187.9675 211.027852 
L 178.7515 211.027852 
L 169.5355 213.167694 
L 167.204374 214.213677 
L 160.3195 217.367269 
L 151.862972 222.797935 
L 151.1035 223.32656 
L 141.8875 231.116798 
L 141.606382 231.382194 
L 133.638757 239.966452 
L 132.6715 241.262358 
L 127.389038 248.55071 
L 123.4555 255.963598 
L 122.812993 257.134968 
L 120.27861 265.719226 
L 120.194556 274.303484 
L 123.357325 282.887742 
z
M 156.713113 282.887742 
L 151.1035 278.97851 
L 146.508712 274.303484 
L 143.342177 265.719226 
L 144.374064 257.134968 
L 148.533857 248.55071 
L 151.1035 245.280039 
L 156.064336 239.966452 
L 160.3195 236.526818 
L 169.090677 231.382194 
L 169.5355 231.164006 
L 178.7515 228.819734 
L 187.9675 228.819734 
L 197.1835 231.164006 
L 197.628323 231.382194 
L 206.3995 236.526818 
L 210.654664 239.966452 
L 215.6155 245.280039 
L 218.185143 248.55071 
L 222.344936 257.134968 
L 223.376823 265.719226 
L 220.210288 274.303484 
L 215.6155 278.97851 
L 210.005887 282.887742 
L 206.3995 284.504896 
L 197.1835 287.127166 
L 187.9675 288.361101 
L 178.7515 288.361101 
L 169.5355 287.127166 
L 160.3195 284.504896 
z
M 169.5355 103.664306 
L 178.7515 105.804148 
L 187.9675 105.804148 
L 197.1835 103.664306 
L 199.514626 102.618323 
L 206.3995 99.464731 
L 214.856028 94.034065 
L 215.6155 93.50544 
L 224.8315 85.715202 
L 225.112618 85.449806 
L 233.080243 76.865548 
L 234.0475 75.569642 
L 239.329962 68.28129 
L 243.2635 60.868402 
L 243.906007 59.697032 
L 246.44039 51.112774 
L 246.524444 42.528516 
L 243.361675 33.944258 
L 243.2635 33.814387 
L 235.259974 25.36 
L 234.0475 25.36 
L 224.8315 25.36 
L 215.6155 25.36 
L 206.3995 25.36 
L 197.1835 25.36 
L 187.9675 25.36 
L 178.7515 25.36 
L 169.5355 25.36 
L 160.3195 25.36 
L 151.1035 25.36 
L 141.8875 25.36 
L 132.6715 25.36 
L 131.459026 25.36 
L 123.4555 33.814387 
L 123.357325 33.944258 
L 120.194556 42.528516 
L 120.27861 51.112774 
L 122.812993 59.697032 
L 123.4555 60.868402 
L 127.389038 68.28129 
L 132.6715 75.569642 
L 133.638757 76.865548 
L 141.606382 85.449806 
L 141.8875 85.715202 
L 151.1035 93.50544 
L 151.862972 94.034065 
L 160.3195 99.464731 
L 167.204374 102.618323 
z
M 169.090677 85.449806 
L 160.3195 80.305182 
L 156.064336 76.865548 
L 151.1035 71.551961 
L 148.533857 68.28129 
L 144.374064 59.697032 
L 143.342177 51.112774 
L 146.508712 42.528516 
L 151.1035 37.85349 
L 156.713113 33.944258 
L 160.3195 32.327104 
L 169.5355 29.704834 
L 178.7515 28.470899 
L 187.9675 28.470899 
L 197.1835 29.704834 
L 206.3995 32.327104 
L 210.005887 33.944258 
L 215.6155 37.85349 
L 220.210288 42.528516 
L 223.376823 51.112774 
L 222.344936 59.697032 
L 218.185143 68.28129 
L 215.6155 71.551961 
L 210.654664 76.865548 
L 206.3995 80.305182 
L 197.628323 85.449806 
L 197.1835 85.667994 
L 187.9675 88.012266 
L 178.7515 88.012266 
L 169.5355 85.667994 
z
" clip-path="url(#p9d3d761f06)" style="fill: #481c48"/>
    <path d="M 95.8075 284.958058 
L 97.728289 291.472 
L 105.0235 291.472 
L 114.2395 291.472 
L 123.4555 291.472 
L 131.459026 291.472 
L 123.4555 283.017613 
L 123.357325 282.887742 
L 120.194556 274.303484 
L 120.27861 265.719226 
L 122.812993 257.134968 
L 123.4555 255.963598 
L 127.389038 248.55071 
L 132.6715 241.262358 
L 133.638757 239.966452 
L 141.606382 231.382194 
L 141.8875 231.116798 
L 151.1035 223.32656 
L 151.862972 222.797935 
L 160.3195 217.367269 
L 167.204374 214.213677 
L 169.5355 213.167694 
L 178.7515 211.027852 
L 187.9675 211.027852 
L 197.1835 213.167694 
L 199.514626 214.213677 
L 206.3995 217.367269 
L 214.856028 222.797935 
L 215.6155 223.32656 
L 224.8315 231.116798 
L 225.112618 231.382194 
L 233.080243 239.966452 
L 234.0475 241.262358 
L 239.329962 248.55071 
L 243.2635 255.963598 
L 243.906007 257.134968 
L 246.44039 265.719226 
L 246.524444 274.303484 
L 243.361675 282.887742 
L 243.2635 283.017613 
L 235.259974 291.472 
L 243.2635 291.472 
L 252.4795 291.472 
L 261.6955 291.472 
L 268.990711 291.472 
L 270.9115 284.958058 
L 271.472269 282.887742 
L 271.077617 274.303484 
L 270.9115 273.837361 
L 268.528652 265.719226 
L 264.144571 257.134968 
L 261.6955 253.752525 
L 258.346538 248.55071 
L 252.4795 241.365049 
L 251.408721 239.966452 
L 243.589418 231.382194 
L 243.2635 231.06178 
L 234.90073 222.797935 
L 234.0475 222.001226 
L 225.268091 214.213677 
L 224.8315 213.828255 
L 215.6155 206.60636 
L 214.085009 205.629419 
L 206.3995 200.478322 
L 199.153158 197.045161 
L 197.1835 195.99648 
L 187.9675 193.461113 
L 178.7515 193.461113 
L 169.5355 195.99648 
L 167.565842 197.045161 
L 160.3195 200.478322 
L 152.633991 205.629419 
L 151.1035 206.60636 
L 141.8875 213.828255 
L 141.450909 214.213677 
L 132.6715 222.001226 
L 131.81827 222.797935 
L 123.4555 231.06178 
L 123.129582 231.382194 
L 115.310279 239.966452 
L 114.2395 241.365049 
L 108.372462 248.55071 
L 105.0235 253.752525 
L 102.574429 257.134968 
L 98.190348 265.719226 
L 95.8075 273.837361 
L 95.641383 274.303484 
L 95.246731 282.887742 
z
M 169.5355 120.83552 
L 178.7515 123.370887 
L 187.9675 123.370887 
L 197.1835 120.83552 
L 199.153158 119.786839 
L 206.3995 116.353678 
L 214.085009 111.202581 
L 215.6155 110.22564 
L 224.8315 103.003745 
L 225.268091 102.618323 
L 234.0475 94.830774 
L 234.90073 94.034065 
L 243.2635 85.77022 
L 243.589418 85.449806 
L 251.408721 76.865548 
L 252.4795 75.466951 
L 258.346538 68.28129 
L 261.6955 63.079475 
L 264.144571 59.697032 
L 268.528652 51.112774 
L 270.9115 42.994639 
L 271.077617 42.528516 
L 271.472269 33.944258 
L 270.9115 31.873942 
L 268.990711 25.36 
L 261.6955 25.36 
L 252.4795 25.36 
L 243.2635 25.36 
L 235.259974 25.36 
L 243.2635 33.814387 
L 243.361675 33.944258 
L 246.524444 42.528516 
L 246.44039 51.112774 
L 243.906007 59.697032 
L 243.2635 60.868402 
L 239.329962 68.28129 
L 234.0475 75.569642 
L 233.080243 76.865548 
L 225.112618 85.449806 
L 224.8315 85.715202 
L 215.6155 93.50544 
L 214.856028 94.034065 
L 206.3995 99.464731 
L 199.514626 102.618323 
L 197.1835 103.664306 
L 187.9675 105.804148 
L 178.7515 105.804148 
L 169.5355 103.664306 
L 167.204374 102.618323 
L 160.3195 99.464731 
L 151.862972 94.034065 
L 151.1035 93.50544 
L 141.8875 85.715202 
L 141.606382 85.449806 
L 133.638757 76.865548 
L 132.6715 75.569642 
L 127.389038 68.28129 
L 123.4555 60.868402 
L 122.812993 59.697032 
L 120.27861 51.112774 
L 120.194556 42.528516 
L 123.357325 33.944258 
L 123.4555 33.814387 
L 131.459026 25.36 
L 123.4555 25.36 
L 114.2395 25.36 
L 105.0235 25.36 
L 97.728289 25.36 
L 95.8075 31.873942 
L 95.246731 33.944258 
L 95.641383 42.528516 
L 95.8075 42.994639 
L 98.190348 51.112774 
L 102.574429 59.697032 
L 105.0235 63.079475 
L 108.372462 68.28129 
L 114.2395 75.466951 
L 115.310279 76.865548 
L 123.129582 85.449806 
L 123.4555 85.77022 
L 131.81827 94.034065 
L 132.6715 94.830774 
L 141.450909 102.618323 
L 141.8875 103.003745 
L 151.1035 110.22564 
L 152.633991 111.202581 
L 160.3195 116.353678 
L 167.565842 119.786839 
z
" clip-path="url(#p9d3d761f06)" style="fill: #7b1f59"/>
    <path d="M 49.7275 291.472 
L 58.9435 291.472 
L 68.1595 291.472 
L 77.3755 291.472 
L 86.5915 291.472 
L 95.8075 291.472 
L 97.728289 291.472 
L 95.8075 284.958058 
L 95.246731 282.887742 
L 95.641383 274.303484 
L 95.8075 273.837361 
L 98.190348 265.719226 
L 102.574429 257.134968 
L 105.0235 253.752525 
L 108.372462 248.55071 
L 114.2395 241.365049 
L 115.310279 239.966452 
L 123.129582 231.382194 
L 123.4555 231.06178 
L 131.81827 222.797935 
L 132.6715 222.001226 
L 141.450909 214.213677 
L 141.8875 213.828255 
L 151.1035 206.60636 
L 152.633991 205.629419 
L 160.3195 200.478322 
L 167.565842 197.045161 
L 169.5355 195.99648 
L 178.7515 193.461113 
L 187.9675 193.461113 
L 197.1835 195.99648 
L 199.153158 197.045161 
L 206.3995 200.478322 
L 214.085009 205.629419 
L 215.6155 206.60636 
L 224.8315 213.828255 
L 225.268091 214.213677 
L 234.0475 222.001226 
L 234.90073 222.797935 
L 243.2635 231.06178 
L 243.589418 231.382194 
L 251.408721 239.966452 
L 252.4795 241.365049 
L 258.346538 248.55071 
L 261.6955 253.752525 
L 264.144571 257.134968 
L 268.528652 265.719226 
L 270.9115 273.837361 
L 271.077617 274.303484 
L 271.472269 282.887742 
L 270.9115 284.958058 
L 268.990711 291.472 
L 270.9115 291.472 
L 280.1275 291.472 
L 289.3435 291.472 
L 298.5595 291.472 
L 307.7755 291.472 
L 316.9915 291.472 
L 326.2075 291.472 
L 316.9915 282.887742 
L 316.9915 282.887742 
L 307.7755 274.303484 
L 307.7755 274.303484 
L 298.5595 265.719226 
L 298.5595 265.719226 
L 289.3435 257.134968 
L 289.3435 257.134968 
L 280.1275 248.55071 
L 280.1275 248.55071 
L 270.9115 239.966452 
L 270.9115 239.966452 
L 261.6955 231.382194 
L 261.6955 231.382194 
L 252.4795 222.797935 
L 252.4795 222.797935 
L 243.2635 214.213677 
L 243.2635 214.213677 
L 234.0475 205.629419 
L 234.0475 205.629419 
L 224.8315 197.045161 
L 224.8315 197.045161 
L 215.6155 188.460903 
L 215.6155 188.460903 
L 206.3995 179.876645 
L 206.3995 179.876645 
L 197.1835 171.292387 
L 197.1835 171.292387 
L 187.9675 162.708129 
L 178.7515 162.708129 
L 169.5355 171.292387 
L 169.5355 171.292387 
L 160.3195 179.876645 
L 160.3195 179.876645 
L 151.1035 188.460903 
L 151.1035 188.460903 
L 141.8875 197.045161 
L 141.8875 197.045161 
L 132.6715 205.629419 
L 132.6715 205.629419 
L 123.4555 214.213677 
L 123.4555 214.213677 
L 114.2395 222.797935 
L 114.2395 222.797935 
L 105.0235 231.382194 
L 105.0235 231.382194 
L 95.8075 239.966452 
L 95.8075 239.966452 
L 86.5915 248.55071 
L 86.5915 248.55071 
L 77.3755 257.134968 
L 77.3755 257.134968 
L 68.1595 265.719226 
L 68.1595 265.719226 
L 58.9435 274.303484 
L 58.9435 274.303484 
L 49.7275 282.887742 
L 49.7275 282.887742 
L 40.5115 291.472 
L 40.5115 291.472 
z
M 178.7515 154.123871 
L 187.9675 154.123871 
L 197.1835 145.539613 
L 197.1835 145.539613 
L 206.3995 136.955355 
L 206.3995 136.955355 
L 215.6155 128.371097 
L 215.6155 128.371097 
L 224.8315 119.786839 
L 224.8315 119.786839 
L 234.0475 111.202581 
L 234.0475 111.202581 
L 243.2635 102.618323 
L 243.2635 102.618323 
L 252.4795 94.034065 
L 252.4795 94.034065 
L 261.6955 85.449806 
L 261.6955 85.449806 
L 270.9115 76.865548 
L 270.9115 76.865548 
L 280.1275 68.28129 
L 280.1275 68.28129 
L 289.3435 59.697032 
L 289.3435 59.697032 
L 298.5595 51.112774 
L 298.5595 51.112774 
L 307.7755 42.528516 
L 307.7755 42.528516 
L 316.9915 33.944258 
L 316.9915 33.944258 
L 326.2075 25.36 
L 326.2075 25.36 
L 316.9915 25.36 
L 307.7755 25.36 
L 298.5595 25.36 
L 289.3435 25.36 
L 280.1275 25.36 
L 270.9115 25.36 
L 268.990711 25.36 
L 270.9115 31.873942 
L 271.472269 33.944258 
L 271.077617 42.528516 
L 270.9115 42.994639 
L 268.528652 51.112774 
L 264.144571 59.697032 
L 261.6955 63.079475 
L 258.346538 68.28129 
L 252.4795 75.466951 
L 251.408721 76.865548 
L 243.589418 85.449806 
L 243.2635 85.77022 
L 234.90073 94.034065 
L 234.0475 94.830774 
L 225.268091 102.618323 
L 224.8315 103.003745 
L 215.6155 110.22564 
L 214.085009 111.202581 
L 206.3995 116.353678 
L 199.153158 119.786839 
L 197.1835 120.83552 
L 187.9675 123.370887 
L 178.7515 123.370887 
L 169.5355 120.83552 
L 167.565842 119.786839 
L 160.3195 116.353678 
L 152.633991 111.202581 
L 151.1035 110.22564 
L 141.8875 103.003745 
L 141.450909 102.618323 
L 132.6715 94.830774 
L 131.81827 94.034065 
L 123.4555 85.77022 
L 123.129582 85.449806 
L 115.310279 76.865548 
L 114.2395 75.466951 
L 108.372462 68.28129 
L 105.0235 63.079475 
L 102.574429 59.697032 
L 98.190348 51.112774 
L 95.8075 42.994639 
L 95.641383 42.528516 
L 95.246731 33.944258 
L 95.8075 31.873942 
L 97.728289 25.36 
L 95.8075 25.36 
L 86.5915 25.36 
L 77.3755 25.36 
L 68.1595 25.36 
L 58.9435 25.36 
L 49.7275 25.36 
L 40.5115 25.36 
L 40.5115 25.36 
L 49.7275 33.944258 
L 49.7275 33.944258 
L 58.9435 42.528516 
L 58.9435 42.528516 
L 68.1595 51.112774 
L 68.1595 51.112774 
L 77.3755 59.697032 
L 77.3755 59.697032 
L 86.5915 68.28129 
L 86.5915 68.28129 
L 95.8075 76.865548 
L 95.8075 76.865548 
L 105.0235 85.449806 
L 105.0235 85.449806 
L 114.2395 94.034065 
L 114.2395 94.034065 
L 123.4555 102.618323 
L 123.4555 102.618323 
L 132.6715 111.202581 
L 132.6715 111.202581 
L 141.8875 119.786839 
L 141.8875 119.786839 
L 151.1035 128.371097 
L 151.1035 128.371097 
L 160.3195 136.955355 
L 160.3195 136.955355 
L 169.5355 145.539613 
L 169.5355 145.539613 
z
" clip-path="url(#p9d3d761f06)" style="fill: #b21758"/>
    <path d="M 49.7275 282.887742 
L 49.7275 282.887742 
L 58.9435 274.303484 
L 58.9435 274.303484 
L 68.1595 265.719226 
L 68.1595 265.719226 
L 77.3755 257.134968 
L 77.3755 257.134968 
L 86.5915 248.55071 
L 86.5915 248.55071 
L 95.8075 239.966452 
L 95.8075 239.966452 
L 105.0235 231.382194 
L 105.0235 231.382194 
L 114.2395 222.797935 
L 114.2395 222.797935 
L 123.4555 214.213677 
L 123.4555 214.213677 
L 132.6715 205.629419 
L 132.6715 205.629419 
L 141.8875 197.045161 
L 141.8875 197.045161 
L 151.1035 188.460903 
L 151.1035 188.460903 
L 160.3195 179.876645 
L 160.3195 179.876645 
L 169.5355 171.292387 
L 169.5355 171.292387 
L 178.7515 162.708129 
L 187.9675 162.708129 
L 197.1835 171.292387 
L 197.1835 171.292387 
L 206.3995 179.876645 
L 206.3995 179.876645 
L 215.6155 188.460903 
L 215.6155 188.460903 
L 224.8315 197.045161 
L 224.8315 197.045161 
L 234.0475 205.629419 
L 234.0475 205.629419 
L 243.2635 214.213677 
L 243.2635 214.213677 
L 252.4795 222.797935 
L 252.4795 222.797935 
L 261.6955 231.382194 
L 261.6955 231.382194 
L 270.9115 239.966452 
L 270.9115 239.966452 
L 280.1275 248.55071 
L 280.1275 248.55071 
L 289.3435 257.134968 
L 289.3435 257.134968 
L 298.5595 265.719226 
L 298.5595 265.719226 
L 307.7755 274.303484 
L 307.7755 274.303484 
L 316.9915 282.887742 
L 316.9915 282.887742 
L 326.2075 291.472 
L 326.2075 291.472 
L 326.2075 282.887742 
L 326.2075 274.303484 
L 326.2075 265.719226 
L 326.2075 257.134968 
L 326.2075 248.55071 
L 326.2075 239.966452 
L 326.2075 238.17733 
L 319.214177 239.966452 
L 316.9915 240.488781 
L 307.7755 240.121181 
L 307.275074 239.966452 
L 298.5595 237.746944 
L 289.3435 233.663385 
L 285.712133 231.382194 
L 280.1275 228.262798 
L 272.413025 222.797935 
L 270.9115 221.800557 
L 261.6955 214.517254 
L 261.351506 214.213677 
L 252.4795 206.424162 
L 251.624158 205.629419 
L 243.2635 197.451824 
L 242.849713 197.045161 
L 235.096337 188.460903 
L 234.0475 187.035325 
L 228.517318 179.876645 
L 224.8315 173.127028 
L 223.705643 171.292387 
L 220.98369 162.708129 
L 220.98369 154.123871 
L 223.705643 145.539613 
L 224.8315 143.704972 
L 228.517318 136.955355 
L 234.0475 129.796675 
L 235.096337 128.371097 
L 242.849713 119.786839 
L 243.2635 119.380176 
L 251.624158 111.202581 
L 252.4795 110.407838 
L 261.351506 102.618323 
L 261.6955 102.314746 
L 270.9115 95.031443 
L 272.413025 94.034065 
L 280.1275 88.569202 
L 285.712133 85.449806 
L 289.3435 83.168615 
L 298.5595 79.085056 
L 307.275074 76.865548 
L 307.7755 76.710819 
L 316.9915 76.343219 
L 319.214177 76.865548 
L 326.2075 78.65467 
L 326.2075 76.865548 
L 326.2075 68.28129 
L 326.2075 59.697032 
L 326.2075 51.112774 
L 326.2075 42.528516 
L 326.2075 33.944258 
L 326.2075 25.36 
L 316.9915 33.944258 
L 316.9915 33.944258 
L 307.7755 42.528516 
L 307.7755 42.528516 
L 298.5595 51.112774 
L 298.5595 51.112774 
L 289.3435 59.697032 
L 289.3435 59.697032 
L 280.1275 68.28129 
L 280.1275 68.28129 
L 270.9115 76.865548 
L 270.9115 76.865548 
L 261.6955 85.449806 
L 261.6955 85.449806 
L 252.4795 94.034065 
L 252.4795 94.034065 
L 243.2635 102.618323 
L 243.2635 102.618323 
L 234.0475 111.202581 
L 234.0475 111.202581 
L 224.8315 119.786839 
L 224.8315 119.786839 
L 215.6155 128.371097 
L 215.6155 128.371097 
L 206.3995 136.955355 
L 206.3995 136.955355 
L 197.1835 145.539613 
L 197.1835 145.539613 
L 187.9675 154.123871 
L 178.7515 154.123871 
L 169.5355 145.539613 
L 169.5355 145.539613 
L 160.3195 136.955355 
L 160.3195 136.955355 
L 151.1035 128.371097 
L 151.1035 128.371097 
L 141.8875 119.786839 
L 141.8875 119.786839 
L 132.6715 111.202581 
L 132.6715 111.202581 
L 123.4555 102.618323 
L 123.4555 102.618323 
L 114.2395 94.034065 
L 114.2395 94.034065 
L 105.0235 85.449806 
L 105.0235 85.449806 
L 95.8075 76.865548 
L 95.8075 76.865548 
L 86.5915 68.28129 
L 86.5915 68.28129 
L 77.3755 59.697032 
L 77.3755 59.697032 
L 68.1595 51.112774 
L 68.1595 51.112774 
L 58.9435 42.528516 
L 58.9435 42.528516 
L 49.7275 33.944258 
L 49.7275 33.944258 
L 40.5115 25.36 
L 40.5115 33.944258 
L 40.5115 42.528516 
L 40.5115 51.112774 
L 40.5115 59.697032 
L 40.5115 68.28129 
L 40.5115 76.865548 
L 40.5115 78.65467 
L 47.504823 76.865548 
L 49.7275 76.343219 
L 58.9435 76.710819 
L 59.443926 76.865548 
L 68.1595 79.085056 
L 77.3755 83.168615 
L 81.006867 85.449806 
L 86.5915 88.569202 
L 94.305975 94.034065 
L 95.8075 95.031443 
L 105.0235 102.314746 
L 105.367494 102.618323 
L 114.2395 110.407838 
L 115.094842 111.202581 
L 123.4555 119.380176 
L 123.869287 119.786839 
L 131.622663 128.371097 
L 132.6715 129.796675 
L 138.201682 136.955355 
L 141.8875 143.704972 
L 143.013357 145.539613 
L 145.73531 154.123871 
L 145.73531 162.708129 
L 143.013357 171.292387 
L 141.8875 173.127028 
L 138.201682 179.876645 
L 132.6715 187.035325 
L 131.622663 188.460903 
L 123.869287 197.045161 
L 123.4555 197.451824 
L 115.094842 205.629419 
L 114.2395 206.424162 
L 105.367494 214.213677 
L 105.0235 214.517254 
L 95.8075 221.800557 
L 94.305975 222.797935 
L 86.5915 228.262798 
L 81.006867 231.382194 
L 77.3755 233.663385 
L 68.1595 237.746944 
L 59.443926 239.966452 
L 58.9435 240.121181 
L 49.7275 240.488781 
L 47.504823 239.966452 
L 40.5115 238.17733 
L 40.5115 239.966452 
L 40.5115 248.55071 
L 40.5115 257.134968 
L 40.5115 265.719226 
L 40.5115 274.303484 
L 40.5115 282.887742 
L 40.5115 291.472 
z
" clip-path="url(#p9d3d761f06)" style="fill: #df2f44"/>
    <path d="M 49.7275 240.488781 
L 58.9435 240.121181 
L 59.443926 239.966452 
L 68.1595 237.746944 
L 77.3755 233.663385 
L 81.006867 231.382194 
L 86.5915 228.262798 
L 94.305975 222.797935 
L 95.8075 221.800557 
L 105.0235 214.517254 
L 105.367494 214.213677 
L 114.2395 206.424162 
L 115.094842 205.629419 
L 123.4555 197.451824 
L 123.869287 197.045161 
L 131.622663 188.460903 
L 132.6715 187.035325 
L 138.201682 179.876645 
L 141.8875 173.127028 
L 143.013357 171.292387 
L 145.73531 162.708129 
L 145.73531 154.123871 
L 143.013357 145.539613 
L 141.8875 143.704972 
L 138.201682 136.955355 
L 132.6715 129.796675 
L 131.622663 128.371097 
L 123.869287 119.786839 
L 123.4555 119.380176 
L 115.094842 111.202581 
L 114.2395 110.407838 
L 105.367494 102.618323 
L 105.0235 102.314746 
L 95.8075 95.031443 
L 94.305975 94.034065 
L 86.5915 88.569202 
L 81.006867 85.449806 
L 77.3755 83.168615 
L 68.1595 79.085056 
L 59.443926 76.865548 
L 58.9435 76.710819 
L 49.7275 76.343219 
L 47.504823 76.865548 
L 40.5115 78.65467 
L 40.5115 85.449806 
L 40.5115 94.034065 
L 40.5115 102.618323 
L 40.5115 110.073219 
L 49.588071 102.618323 
L 49.7275 102.526877 
L 58.9435 99.580911 
L 68.1595 99.659203 
L 77.3755 102.019858 
L 78.633074 102.618323 
L 86.5915 106.282222 
L 94.416224 111.202581 
L 95.8075 112.103533 
L 105.0235 119.524991 
L 105.308427 119.786839 
L 113.671972 128.371097 
L 114.2395 129.078508 
L 120.069826 136.955355 
L 123.4555 143.368282 
L 124.578461 145.539613 
L 126.87578 154.123871 
L 126.87578 162.708129 
L 124.578461 171.292387 
L 123.4555 173.463718 
L 120.069826 179.876645 
L 114.2395 187.753492 
L 113.671972 188.460903 
L 105.308427 197.045161 
L 105.0235 197.307009 
L 95.8075 204.728467 
L 94.416224 205.629419 
L 86.5915 210.549778 
L 78.633074 214.213677 
L 77.3755 214.812142 
L 68.1595 217.172797 
L 58.9435 217.251089 
L 49.7275 214.305123 
L 49.588071 214.213677 
L 40.5115 206.758781 
L 40.5115 214.213677 
L 40.5115 222.797935 
L 40.5115 231.382194 
L 40.5115 238.17733 
L 47.504823 239.966452 
z
M 307.7755 240.121181 
L 316.9915 240.488781 
L 319.214177 239.966452 
L 326.2075 238.17733 
L 326.2075 231.382194 
L 326.2075 222.797935 
L 326.2075 214.213677 
L 326.2075 206.758781 
L 317.130929 214.213677 
L 316.9915 214.305123 
L 307.7755 217.251089 
L 298.5595 217.172797 
L 289.3435 214.812142 
L 288.085926 214.213677 
L 280.1275 210.549778 
L 272.302776 205.629419 
L 270.9115 204.728467 
L 261.6955 197.307009 
L 261.410573 197.045161 
L 253.047028 188.460903 
L 252.4795 187.753492 
L 246.649174 179.876645 
L 243.2635 173.463718 
L 242.140539 171.292387 
L 239.84322 162.708129 
L 239.84322 154.123871 
L 242.140539 145.539613 
L 243.2635 143.368282 
L 246.649174 136.955355 
L 252.4795 129.078508 
L 253.047028 128.371097 
L 261.410573 119.786839 
L 261.6955 119.524991 
L 270.9115 112.103533 
L 272.302776 111.202581 
L 280.1275 106.282222 
L 288.085926 102.618323 
L 289.3435 102.019858 
L 298.5595 99.659203 
L 307.7755 99.580911 
L 316.9915 102.526877 
L 317.130929 102.618323 
L 326.2075 110.073219 
L 326.2075 102.618323 
L 326.2075 94.034065 
L 326.2075 85.449806 
L 326.2075 78.65467 
L 319.214177 76.865548 
L 316.9915 76.343219 
L 307.7755 76.710819 
L 307.275074 76.865548 
L 298.5595 79.085056 
L 289.3435 83.168615 
L 285.712133 85.449806 
L 280.1275 88.569202 
L 272.413025 94.034065 
L 270.9115 95.031443 
L 261.6955 102.314746 
L 261.351506 102.618323 
L 252.4795 110.407838 
L 251.624158 111.202581 
L 243.2635 119.380176 
L 242.849713 119.786839 
L 235.096337 128.371097 
L 234.0475 129.796675 
L 228.517318 136.955355 
L 224.8315 143.704972 
L 223.705643 145.539613 
L 220.98369 154.123871 
L 220.98369 162.708129 
L 223.705643 171.292387 
L 224.8315 173.127028 
L 228.517318 179.876645 
L 234.0475 187.035325 
L 235.096337 188.460903 
L 242.849713 197.045161 
L 243.2635 197.451824 
L 251.624158 205.629419 
L 252.4795 206.424162 
L 261.351506 214.213677 
L 261.6955 214.517254 
L 270.9115 221.800557 
L 272.413025 222.797935 
L 280.1275 228.262798 
L 285.712133 231.382194 
L 289.3435 233.663385 
L 298.5595 237.746944 
L 307.275074 239.966452 
z
" clip-path="url(#p9d3d761f06)" style="fill: #f26b49"/>
    <path d="M 49.7275 214.305123 
L 58.9435 217.251089 
L 68.1595 217.172797 
L 77.3755 214.812142 
L 78.633074 214.213677 
L 86.5915 210.549778 
L 94.416224 205.629419 
L 95.8075 204.728467 
L 105.0235 197.307009 
L 105.308427 197.045161 
L 113.671972 188.460903 
L 114.2395 187.753492 
L 120.069826 179.876645 
L 123.4555 173.463718 
L 124.578461 171.292387 
L 126.87578 162.708129 
L 126.87578 154.123871 
L 124.578461 145.539613 
L 123.4555 143.368282 
L 120.069826 136.955355 
L 114.2395 129.078508 
L 113.671972 128.371097 
L 105.308427 119.786839 
L 105.0235 119.524991 
L 95.8075 112.103533 
L 94.416224 111.202581 
L 86.5915 106.282222 
L 78.633074 102.618323 
L 77.3755 102.019858 
L 68.1595 99.659203 
L 58.9435 99.580911 
L 49.7275 102.526877 
L 49.588071 102.618323 
L 40.5115 110.073219 
L 40.5115 111.202581 
L 40.5115 119.786839 
L 40.5115 128.371097 
L 40.5115 136.955355 
L 40.5115 145.539613 
L 40.5115 154.123871 
L 40.5115 162.708129 
L 40.5115 171.292387 
L 40.5115 179.876645 
L 40.5115 188.460903 
L 40.5115 197.045161 
L 40.5115 205.629419 
L 40.5115 206.758781 
L 49.588071 214.213677 
z
M 53.924424 188.460903 
L 49.7275 183.23582 
L 47.991335 179.876645 
L 45.176084 171.292387 
L 43.85134 162.708129 
L 43.85134 154.123871 
L 45.176084 145.539613 
L 47.991335 136.955355 
L 49.7275 133.59618 
L 53.924424 128.371097 
L 58.9435 124.091274 
L 68.1595 121.1418 
L 77.3755 122.102953 
L 86.5915 125.977598 
L 90.10287 128.371097 
L 95.8075 132.991875 
L 99.500267 136.955355 
L 105.0235 145.125282 
L 105.257744 145.539613 
L 107.774538 154.123871 
L 107.774538 162.708129 
L 105.257744 171.292387 
L 105.0235 171.706718 
L 99.500267 179.876645 
L 95.8075 183.840125 
L 90.10287 188.460903 
L 86.5915 190.854402 
L 77.3755 194.729047 
L 68.1595 195.6902 
L 58.9435 192.740726 
z
M 289.3435 214.812142 
L 298.5595 217.172797 
L 307.7755 217.251089 
L 316.9915 214.305123 
L 317.130929 214.213677 
L 326.2075 206.758781 
L 326.2075 205.629419 
L 326.2075 197.045161 
L 326.2075 188.460903 
L 326.2075 179.876645 
L 326.2075 171.292387 
L 326.2075 162.708129 
L 326.2075 154.123871 
L 326.2075 145.539613 
L 326.2075 136.955355 
L 326.2075 128.371097 
L 326.2075 119.786839 
L 326.2075 111.202581 
L 326.2075 110.073219 
L 317.130929 102.618323 
L 316.9915 102.526877 
L 307.7755 99.580911 
L 298.5595 99.659203 
L 289.3435 102.019858 
L 288.085926 102.618323 
L 280.1275 106.282222 
L 272.302776 111.202581 
L 270.9115 112.103533 
L 261.6955 119.524991 
L 261.410573 119.786839 
L 253.047028 128.371097 
L 252.4795 129.078508 
L 246.649174 136.955355 
L 243.2635 143.368282 
L 242.140539 145.539613 
L 239.84322 154.123871 
L 239.84322 162.708129 
L 242.140539 171.292387 
L 243.2635 173.463718 
L 246.649174 179.876645 
L 252.4795 187.753492 
L 253.047028 188.460903 
L 261.410573 197.045161 
L 261.6955 197.307009 
L 270.9115 204.728467 
L 272.302776 205.629419 
L 280.1275 210.549778 
L 288.085926 214.213677 
z
M 276.61613 188.460903 
L 270.9115 183.840125 
L 267.218733 179.876645 
L 261.6955 171.706718 
L 261.461256 171.292387 
L 258.944462 162.708129 
L 258.944462 154.123871 
L 261.461256 145.539613 
L 261.6955 145.125282 
L 267.218733 136.955355 
L 270.9115 132.991875 
L 276.61613 128.371097 
L 280.1275 125.977598 
L 289.3435 122.102953 
L 298.5595 121.1418 
L 307.7755 124.091274 
L 312.794576 128.371097 
L 316.9915 133.59618 
L 318.727665 136.955355 
L 321.542916 145.539613 
L 322.86766 154.123871 
L 322.86766 162.708129 
L 321.542916 171.292387 
L 318.727665 179.876645 
L 316.9915 183.23582 
L 312.794576 188.460903 
L 307.7755 192.740726 
L 298.5595 195.6902 
L 289.3435 194.729047 
L 280.1275 190.854402 
z
" clip-path="url(#p9d3d761f06)" style="fill: #f6a37a"/>
    <path d="M 58.9435 192.740726 
L 68.1595 195.6902 
L 77.3755 194.729047 
L 86.5915 190.854402 
L 90.10287 188.460903 
L 95.8075 183.840125 
L 99.500267 179.876645 
L 105.0235 171.706718 
L 105.257744 171.292387 
L 107.774538 162.708129 
L 107.774538 154.123871 
L 105.257744 145.539613 
L 105.0235 145.125282 
L 99.500267 136.955355 
L 95.8075 132.991875 
L 90.10287 128.371097 
L 86.5915 125.977598 
L 77.3755 122.102953 
L 68.1595 121.1418 
L 58.9435 124.091274 
L 53.924424 128.371097 
L 49.7275 133.59618 
L 47.991335 136.955355 
L 45.176084 145.539613 
L 43.85134 154.123871 
L 43.85134 162.708129 
L 45.176084 171.292387 
L 47.991335 179.876645 
L 49.7275 183.23582 
L 53.924424 188.460903 
z
M 280.1275 190.854402 
L 289.3435 194.729047 
L 298.5595 195.6902 
L 307.7755 192.740726 
L 312.794576 188.460903 
L 316.9915 183.23582 
L 318.727665 179.876645 
L 321.542916 171.292387 
L 322.86766 162.708129 
L 322.86766 154.123871 
L 321.542916 145.539613 
L 318.727665 136.955355 
L 316.9915 133.59618 
L 312.794576 128.371097 
L 307.7755 124.091274 
L 298.5595 121.1418 
L 289.3435 122.102953 
L 280.1275 125.977598 
L 276.61613 128.371097 
L 270.9115 132.991875 
L 267.218733 136.955355 
L 261.6955 145.125282 
L 261.461256 145.539613 
L 258.944462 154.123871 
L 258.944462 162.708129 
L 261.461256 171.292387 
L 261.6955 171.706718 
L 267.218733 179.876645 
L 270.9115 183.840125 
L 276.61613 188.460903 
z
" clip-path="url(#p9d3d761f06)" style="fill: #f8d4bc"/>
   </g>
   <g id="patch_3">
    <path d="M 40.5115 291.472 
L 40.5115 25.36 
" style="fill: none; stroke: #262626; stroke-linejoin: miter; stroke-linecap: square"/>
   </g>
   <g id="patch_4">
    <path d="M 40.5115 291.472 
L 326.2075 291.472 
" style="fill: none; stroke: #262626; stroke-linejoin: miter; stroke-linecap: square"/>
   </g>
   <g id="text_15">
    <!-- $\phi_4$ -->
    <g style="fill: #262626" transform="translate(174.2395 19.36) scale(0.16 -0.16)">
     <defs>
      <path id="DejaVuSans-Oblique-3d5" d="M 2991 4863 
L 2738 3572 
Q 3363 3572 3684 3094 
Q 4016 2606 3850 1747 
Q 3681 888 3159 400 
Q 2653 -78 2028 -78 
L 1784 -1331 
L 1213 -1331 
L 1456 -78 
Q 834 -78 509 400 
Q 178 888 347 1747 
Q 513 2606 1034 3094 
Q 1544 3572 2166 3572 
L 2419 4863 
L 2991 4863 
z
M 2128 434 
Q 2481 434 2784 756 
Q 3116 1116 3244 1747 
Q 3369 2372 3169 2738 
Q 2991 3059 2638 3059 
L 2128 434 
z
M 1556 434 
L 2066 3059 
Q 1716 3059 1413 2738 
Q 1072 2372 953 1747 
Q 834 1116 1028 756 
Q 1203 434 1556 434 
z
" transform="scale(0.015625)"/>
      <path id="DejaVuSans-34" d="M 2419 4116 
L 825 1625 
L 2419 1625 
L 2419 4116 
z
M 2253 4666 
L 3047 4666 
L 3047 1625 
L 3713 1625 
L 3713 1100 
L 3047 1100 
L 3047 0 
L 2419 0 
L 2419 1100 
L 313 1100 
L 313 1709 
L 2253 4666 
z
" transform="scale(0.015625)"/>
     </defs>
     <use xlink:href="#DejaVuSans-Oblique-3d5" transform="translate(0 0.015625)"/>
     <use xlink:href="#DejaVuSans-34" transform="translate(65.966797 -16.390625) scale(0.7)"/>
    </g>
   </g>
  </g>
  <g id="axes_2">
   <g id="patch_5">
    <path d="M 344.0635 291.472 
L 357.3691 291.472 
L 357.3691 25.36 
L 344.0635 25.36 
z
" style="fill: #ffffff"/>
   </g>
   <g id="matplotlib.axis_3"/>
   <g id="matplotlib.axis_4">
    <g id="ytick_7">
     <g id="line2d_13">
      <defs>
       <path id="me6bbaac9e6" d="M 0 0 
L 4.8 0 
" style="stroke: #262626"/>
      </defs>
      <g>
       <use xlink:href="#me6bbaac9e6" x="357.3691" y="291.472" style="fill: #262626; stroke: #262626"/>
      </g>
     </g>
     <g id="text_16">
      <!-- −2.0 -->
      <g style="fill: #262626" transform="translate(365.6691 294.621437) scale(0.088 -0.088)">
       <defs>
        <path id="ArialMT-2212" d="M 3381 1997 
L 356 1997 
L 356 2522 
L 3381 2522 
L 3381 1997 
z
" transform="scale(0.015625)"/>
       </defs>
       <use xlink:href="#ArialMT-2212"/>
       <use xlink:href="#ArialMT-32" x="58.398438"/>
       <use xlink:href="#ArialMT-2e" x="114.013672"/>
       <use xlink:href="#ArialMT-30" x="141.796875"/>
      </g>
     </g>
    </g>
    <g id="ytick_8">
     <g id="line2d_14">
      <g>
       <use xlink:href="#me6bbaac9e6" x="357.3691" y="258.208" style="fill: #262626; stroke: #262626"/>
      </g>
     </g>
     <g id="text_17">
      <!-- −1.5 -->
      <g style="fill: #262626" transform="translate(365.6691 261.357437) scale(0.088 -0.088)">
       <defs>
        <path id="ArialMT-35" d="M 266 1200 
L 856 1250 
Q 922 819 1161 601 
Q 1400 384 1738 384 
Q 2144 384 2425 690 
Q 2706 997 2706 1503 
Q 2706 1984 2436 2262 
Q 2166 2541 1728 2541 
Q 1456 2541 1237 2417 
Q 1019 2294 894 2097 
L 366 2166 
L 809 4519 
L 3088 4519 
L 3088 3981 
L 1259 3981 
L 1013 2750 
Q 1425 3038 1878 3038 
Q 2478 3038 2890 2622 
Q 3303 2206 3303 1553 
Q 3303 931 2941 478 
Q 2500 -78 1738 -78 
Q 1113 -78 717 272 
Q 322 622 266 1200 
z
" transform="scale(0.015625)"/>
       </defs>
       <use xlink:href="#ArialMT-2212"/>
       <use xlink:href="#ArialMT-31" x="58.398438"/>
       <use xlink:href="#ArialMT-2e" x="114.013672"/>
       <use xlink:href="#ArialMT-35" x="141.796875"/>
      </g>
     </g>
    </g>
    <g id="ytick_9">
     <g id="line2d_15">
      <g>
       <use xlink:href="#me6bbaac9e6" x="357.3691" y="224.944" style="fill: #262626; stroke: #262626"/>
      </g>
     </g>
     <g id="text_18">
      <!-- −1.0 -->
      <g style="fill: #262626" transform="translate(365.6691 228.093437) scale(0.088 -0.088)">
       <use xlink:href="#ArialMT-2212"/>
       <use xlink:href="#ArialMT-31" x="58.398438"/>
       <use xlink:href="#ArialMT-2e" x="114.013672"/>
       <use xlink:href="#ArialMT-30" x="141.796875"/>
      </g>
     </g>
    </g>
    <g id="ytick_10">
     <g id="line2d_16">
      <g>
       <use xlink:href="#me6bbaac9e6" x="357.3691" y="191.68" style="fill: #262626; stroke: #262626"/>
      </g>
     </g>
     <g id="text_19">
      <!-- −0.5 -->
      <g style="fill: #262626" transform="translate(365.6691 194.829437) scale(0.088 -0.088)">
       <use xlink:href="#ArialMT-2212"/>
       <use xlink:href="#ArialMT-30" x="58.398438"/>
       <use xlink:href="#ArialMT-2e" x="114.013672"/>
       <use xlink:href="#ArialMT-35" x="141.796875"/>
      </g>
     </g>
    </g>
    <g id="ytick_11">
     <g id="line2d_17">
      <g>
       <use xlink:href="#me6bbaac9e6" x="357.3691" y="158.416" style="fill: #262626; stroke: #262626"/>
      </g>
     </g>
     <g id="text_20">
      <!-- 0.0 -->
      <g style="fill: #262626" transform="translate(365.6691 161.565437) scale(0.088 -0.088)">
       <use xlink:href="#ArialMT-30"/>
       <use xlink:href="#ArialMT-2e" x="55.615234"/>
       <use xlink:href="#ArialMT-30" x="83.398438"/>
      </g>
     </g>
    </g>
    <g id="ytick_12">
     <g id="line2d_18">
      <g>
       <use xlink:href="#me6bbaac9e6" x="357.3691" y="125.152" style="fill: #262626; stroke: #262626"/>
      </g>
     </g>
     <g id="text_21">
      <!-- 0.5 -->
      <g style="fill: #262626" transform="translate(365.6691 128.301437) scale(0.088 -0.088)">
       <use xlink:href="#ArialMT-30"/>
       <use xlink:href="#ArialMT-2e" x="55.615234"/>
       <use xlink:href="#ArialMT-35" x="83.398438"/>
      </g>
     </g>
    </g>
    <g id="ytick_13">
     <g id="line2d_19">
      <g>
       <use xlink:href="#me6bbaac9e6" x="357.3691" y="91.888" style="fill: #262626; stroke: #262626"/>
      </g>
     </g>
     <g id="text_22">
      <!-- 1.0 -->
      <g style="fill: #262626" transform="translate(365.6691 95.037437) scale(0.088 -0.088)">
       <use xlink:href="#ArialMT-31"/>
       <use xlink:href="#ArialMT-2e" x="55.615234"/>
       <use xlink:href="#ArialMT-30" x="83.398438"/>
      </g>
     </g>
    </g>
    <g id="ytick_14">
     <g id="line2d_20">
      <g>
       <use xlink:href="#me6bbaac9e6" x="357.3691" y="58.624" style="fill: #262626; stroke: #262626"/>
      </g>
     </g>
     <g id="text_23">
      <!-- 1.5 -->
      <g style="fill: #262626" transform="translate(365.6691 61.773437) scale(0.088 -0.088)">
       <use xlink:href="#ArialMT-31"/>
       <use xlink:href="#ArialMT-2e" x="55.615234"/>
       <use xlink:href="#ArialMT-35" x="83.398438"/>
      </g>
     </g>
    </g>
    <g id="ytick_15">
     <g id="line2d_21">
      <g>
       <use xlink:href="#me6bbaac9e6" x="357.3691" y="25.36" style="fill: #262626; stroke: #262626"/>
      </g>
     </g>
     <g id="text_24">
      <!-- 2.0 -->
      <g style="fill: #262626" transform="translate(365.6691 28.509437) scale(0.088 -0.088)">
       <use xlink:href="#ArialMT-32"/>
       <use xlink:href="#ArialMT-2e" x="55.615234"/>
       <use xlink:href="#ArialMT-30" x="83.398438"/>
      </g>
     </g>
    </g>
   </g>
   <g id="QuadMesh_1">
    <path d="M 344.0635 291.472 
L 357.3691 291.472 
L 357.3691 258.208 
L 344.0635 258.208 
L 344.0635 291.472 
" clip-path="url(#p3e5deb5cf0)" style="fill: #180f29"/>
    <path d="M 344.0635 258.208 
L 357.3691 258.208 
L 357.3691 224.944 
L 344.0635 224.944 
L 344.0635 258.208 
" clip-path="url(#p3e5deb5cf0)" style="fill: #481c48"/>
    <path d="M 344.0635 224.944 
L 357.3691 224.944 
L 357.3691 191.68 
L 344.0635 191.68 
L 344.0635 224.944 
" clip-path="url(#p3e5deb5cf0)" style="fill: #7b1f59"/>
    <path d="M 344.0635 191.68 
L 357.3691 191.68 
L 357.3691 158.416 
L 344.0635 158.416 
L 344.0635 191.68 
" clip-path="url(#p3e5deb5cf0)" style="fill: #b21758"/>
    <path d="M 344.0635 158.416 
L 357.3691 158.416 
L 357.3691 125.152 
L 344.0635 125.152 
L 344.0635 158.416 
" clip-path="url(#p3e5deb5cf0)" style="fill: #df2f44"/>
    <path d="M 344.0635 125.152 
L 357.3691 125.152 
L 357.3691 91.888 
L 344.0635 91.888 
L 344.0635 125.152 
" clip-path="url(#p3e5deb5cf0)" style="fill: #f26b49"/>
    <path d="M 344.0635 91.888 
L 357.3691 91.888 
L 357.3691 58.624 
L 344.0635 58.624 
L 344.0635 91.888 
" clip-path="url(#p3e5deb5cf0)" style="fill: #f6a37a"/>
    <path d="M 344.0635 58.624 
L 357.3691 58.624 
L 357.3691 25.36 
L 344.0635 25.36 
L 344.0635 58.624 
" clip-path="url(#p3e5deb5cf0)" style="fill: #f8d4bc"/>
   </g>
   <g id="LineCollection_1"/>
   <g id="patch_6">
    <path d="M 344.0635 291.472 
L 344.0635 25.36 
" style="fill: none; stroke: #262626; stroke-linejoin: miter; stroke-linecap: square"/>
   </g>
   <g id="patch_7">
    <path d="M 344.0635 291.472 
L 357.3691 291.472 
" style="fill: none; stroke: #262626; stroke-linejoin: miter; stroke-linecap: square"/>
   </g>
   <g id="patch_8">
    <path d="M 344.0635 291.472 
L 350.7163 291.472 
L 357.3691 291.472 
L 357.3691 25.36 
L 350.7163 25.36 
L 344.0635 25.36 
L 344.0635 291.472 
z
" style="fill: none; stroke: #262626; stroke-linejoin: miter; stroke-linecap: square"/>
   </g>
  </g>
 </g>
 <defs>
  <clipPath id="p9d3d761f06">
   <rect x="40.5115" y="25.36" width="285.696" height="266.112"/>
  </clipPath>
  <clipPath id="p3e5deb5cf0">
   <rect x="344.0635" y="25.36" width="13.3056" height="266.112"/>
  </clipPath>
 </defs>
</svg>