<?xml version="1.0" encoding="utf-8" standalone="no"?>
<!DOCTYPE svg PUBLIC "-//W3C//DTD SVG 1.1//EN"
  "http://www.w3.org/Graphics/SVG/1.1/DTD/svg11.dtd">
<svg xmlns:xlink="http://www.w3.org/1999/xlink" width="409.725125pt" height="344.199375pt" viewBox="0 0 409.725125 344.199375" xmlns="http://www.w3.org/2000/svg" version="1.1">
 <metadata>
  <rdf:RDF xmlns:dc="http://purl.org/dc/elements/1.1/" xmlns:cc="http://creativecommons.org/ns#" xmlns:rdf="http://www.w3.org/1999/02/22-rdf-syntax-ns#">
   <cc:Work>
    <dc:type rdf:resource="http://purl.org/dc/dcmitype/StillImage"/>
    <dc:date>2025-02-28T23:36:46.423988</dc:date>
    <dc:format>image/svg+xml</dc:format>
    <dc:creator>
     <cc:Agent>
      <dc:title>Matplotlib v3.9.2, https://matplotlib.org/</dc:title>
     </cc:Agent>
    </dc:creator>
   </cc:Work>
  </rdf:RDF>
 </metadata>
 <defs>
  <style type="text/css">*{stroke-linejoin: round; stroke-linecap: butt}</style>
 </defs>
 <g id="figure_1">
  <g id="patch_1">
   <path d="M 0 344.199375 
L 409.725125 344.199375 
L 409.725125 0 
L 0 0 
z
" style="fill: #ffffff"/>
  </g>
  <g id="axes_1">
   <g id="patch_2">
    <path d="M 45.405125 307.872 
L 402.525125 307.872 
L 402.525125 41.76 
L 45.405125 41.76 
z
" style="fill: #ffffff"/>
   </g>
   <g id="matplotlib.axis_1">
    <g id="xtick_1">
     <g id="line2d_1">
      <defs>
       <path id="m90afe37b91" d="M 0 0 
L 0 4.8 
" style="stroke: #262626"/>
      </defs>
      <g>
       <use xlink:href="#m90afe37b91" x="53.313377" y="307.872" style="fill: #262626; stroke: #262626"/>
      </g>
     </g>
     <g id="text_1">
      <!-- 0 -->
      <g style="fill: #262626" transform="translate(50.866564 322.470875) scale(0.088 -0.088)">
       <defs>
        <path id="ArialMT-30" d="M 266 2259 
Q 266 3072 433 3567 
Q 600 4063 929 4331 
Q 1259 4600 1759 4600 
Q 2128 4600 2406 4451 
Q 2684 4303 2865 4023 
Q 3047 3744 3150 3342 
Q 3253 2941 3253 2259 
Q 3253 1453 3087 958 
Q 2922 463 2592 192 
Q 2263 -78 1759 -78 
Q 1097 -78 719 397 
Q 266 969 266 2259 
z
M 844 2259 
Q 844 1131 1108 757 
Q 1372 384 1759 384 
Q 2147 384 2411 759 
Q 2675 1134 2675 2259 
Q 2675 3391 2411 3762 
Q 2147 4134 1753 4134 
Q 1366 4134 1134 3806 
Q 844 3388 844 2259 
z
" transform="scale(0.015625)"/>
       </defs>
       <use xlink:href="#ArialMT-30"/>
      </g>
     </g>
    </g>
    <g id="xtick_2">
     <g id="line2d_2">
      <g>
       <use xlink:href="#m90afe37b91" x="94.935754" y="307.872" style="fill: #262626; stroke: #262626"/>
      </g>
     </g>
     <g id="text_2">
      <!-- 250 -->
      <g style="fill: #262626" transform="translate(87.595317 322.470875) scale(0.088 -0.088)">
       <defs>
        <path id="ArialMT-32" d="M 3222 541 
L 3222 0 
L 194 0 
Q 188 203 259 391 
Q 375 700 629 1000 
Q 884 1300 1366 1694 
Q 2113 2306 2375 2664 
Q 2638 3022 2638 3341 
Q 2638 3675 2398 3904 
Q 2159 4134 1775 4134 
Q 1369 4134 1125 3890 
Q 881 3647 878 3216 
L 300 3275 
Q 359 3922 746 4261 
Q 1134 4600 1788 4600 
Q 2447 4600 2831 4234 
Q 3216 3869 3216 3328 
Q 3216 3053 3103 2787 
Q 2991 2522 2730 2228 
Q 2469 1934 1863 1422 
Q 1356 997 1212 845 
Q 1069 694 975 541 
L 3222 541 
z
" transform="scale(0.015625)"/>
        <path id="ArialMT-35" d="M 266 1200 
L 856 1250 
Q 922 819 1161 601 
Q 1400 384 1738 384 
Q 2144 384 2425 690 
Q 2706 997 2706 1503 
Q 2706 1984 2436 2262 
Q 2166 2541 1728 2541 
Q 1456 2541 1237 2417 
Q 1019 2294 894 2097 
L 366 2166 
L 809 4519 
L 3088 4519 
L 3088 3981 
L 1259 3981 
L 1013 2750 
Q 1425 3038 1878 3038 
Q 2478 3038 2890 2622 
Q 3303 2206 3303 1553 
Q 3303 931 2941 478 
Q 2500 -78 1738 -78 
Q 1113 -78 717 272 
Q 322 622 266 1200 
z
" transform="scale(0.015625)"/>
       </defs>
       <use xlink:href="#ArialMT-32"/>
       <use xlink:href="#ArialMT-35" x="55.615234"/>
       <use xlink:href="#ArialMT-30" x="111.230469"/>
      </g>
     </g>
    </g>
    <g id="xtick_3">
     <g id="line2d_3">
      <g>
       <use xlink:href="#m90afe37b91" x="136.558132" y="307.872" style="fill: #262626; stroke: #262626"/>
      </g>
     </g>
     <g id="text_3">
      <!-- 500 -->
      <g style="fill: #262626" transform="translate(129.217694 322.470875) scale(0.088 -0.088)">
       <use xlink:href="#ArialMT-35"/>
       <use xlink:href="#ArialMT-30" x="55.615234"/>
       <use xlink:href="#ArialMT-30" x="111.230469"/>
      </g>
     </g>
    </g>
    <g id="xtick_4">
     <g id="line2d_4">
      <g>
       <use xlink:href="#m90afe37b91" x="178.18051" y="307.872" style="fill: #262626; stroke: #262626"/>
      </g>
     </g>
     <g id="text_4">
      <!-- 750 -->
      <g style="fill: #262626" transform="translate(170.840072 322.470875) scale(0.088 -0.088)">
       <defs>
        <path id="ArialMT-37" d="M 303 3981 
L 303 4522 
L 3269 4522 
L 3269 4084 
Q 2831 3619 2401 2847 
Q 1972 2075 1738 1259 
Q 1569 684 1522 0 
L 944 0 
Q 953 541 1156 1306 
Q 1359 2072 1739 2783 
Q 2119 3494 2547 3981 
L 303 3981 
z
" transform="scale(0.015625)"/>
       </defs>
       <use xlink:href="#ArialMT-37"/>
       <use xlink:href="#ArialMT-35" x="55.615234"/>
       <use xlink:href="#ArialMT-30" x="111.230469"/>
      </g>
     </g>
    </g>
    <g id="xtick_5">
     <g id="line2d_5">
      <g>
       <use xlink:href="#m90afe37b91" x="219.802887" y="307.872" style="fill: #262626; stroke: #262626"/>
      </g>
     </g>
     <g id="text_5">
      <!-- 1000 -->
      <g style="fill: #262626" transform="translate(210.015637 322.470875) scale(0.088 -0.088)">
       <defs>
        <path id="ArialMT-31" d="M 2384 0 
L 1822 0 
L 1822 3584 
Q 1619 3391 1289 3197 
Q 959 3003 697 2906 
L 697 3450 
Q 1169 3672 1522 3987 
Q 1875 4303 2022 4600 
L 2384 4600 
L 2384 0 
z
" transform="scale(0.015625)"/>
       </defs>
       <use xlink:href="#ArialMT-31"/>
       <use xlink:href="#ArialMT-30" x="55.615234"/>
       <use xlink:href="#ArialMT-30" x="111.230469"/>
       <use xlink:href="#ArialMT-30" x="166.845703"/>
      </g>
     </g>
    </g>
    <g id="xtick_6">
     <g id="line2d_6">
      <g>
       <use xlink:href="#m90afe37b91" x="261.425265" y="307.872" style="fill: #262626; stroke: #262626"/>
      </g>
     </g>
     <g id="text_6">
      <!-- 1250 -->
      <g style="fill: #262626" transform="translate(251.638015 322.470875) scale(0.088 -0.088)">
       <use xlink:href="#ArialMT-31"/>
       <use xlink:href="#ArialMT-32" x="55.615234"/>
       <use xlink:href="#ArialMT-35" x="111.230469"/>
       <use xlink:href="#ArialMT-30" x="166.845703"/>
      </g>
     </g>
    </g>
    <g id="xtick_7">
     <g id="line2d_7">
      <g>
       <use xlink:href="#m90afe37b91" x="303.047642" y="307.872" style="fill: #262626; stroke: #262626"/>
      </g>
     </g>
     <g id="text_7">
      <!-- 1500 -->
      <g style="fill: #262626" transform="translate(293.260392 322.470875) scale(0.088 -0.088)">
       <use xlink:href="#ArialMT-31"/>
       <use xlink:href="#ArialMT-35" x="55.615234"/>
       <use xlink:href="#ArialMT-30" x="111.230469"/>
       <use xlink:href="#ArialMT-30" x="166.845703"/>
      </g>
     </g>
    </g>
    <g id="xtick_8">
     <g id="line2d_8">
      <g>
       <use xlink:href="#m90afe37b91" x="344.67002" y="307.872" style="fill: #262626; stroke: #262626"/>
      </g>
     </g>
     <g id="text_8">
      <!-- 1750 -->
      <g style="fill: #262626" transform="translate(334.88277 322.470875) scale(0.088 -0.088)">
       <use xlink:href="#ArialMT-31"/>
       <use xlink:href="#ArialMT-37" x="55.615234"/>
       <use xlink:href="#ArialMT-35" x="111.230469"/>
       <use xlink:href="#ArialMT-30" x="166.845703"/>
      </g>
     </g>
    </g>
    <g id="xtick_9">
     <g id="line2d_9">
      <g>
       <use xlink:href="#m90afe37b91" x="386.292398" y="307.872" style="fill: #262626; stroke: #262626"/>
      </g>
     </g>
     <g id="text_9">
      <!-- 2000 -->
      <g style="fill: #262626" transform="translate(376.505148 322.470875) scale(0.088 -0.088)">
       <use xlink:href="#ArialMT-32"/>
       <use xlink:href="#ArialMT-30" x="55.615234"/>
       <use xlink:href="#ArialMT-30" x="111.230469"/>
       <use xlink:href="#ArialMT-30" x="166.845703"/>
      </g>
     </g>
    </g>
    <g id="text_10">
     <!-- Dataset size -->
     <g style="fill: #262626" transform="translate(197.554625 335.091375) scale(0.096 -0.096)">
      <defs>
       <path id="ArialMT-44" d="M 494 0 
L 494 4581 
L 2072 4581 
Q 2606 4581 2888 4516 
Q 3281 4425 3559 4188 
Q 3922 3881 4101 3404 
Q 4281 2928 4281 2316 
Q 4281 1794 4159 1391 
Q 4038 988 3847 723 
Q 3656 459 3429 307 
Q 3203 156 2883 78 
Q 2563 0 2147 0 
L 494 0 
z
M 1100 541 
L 2078 541 
Q 2531 541 2789 625 
Q 3047 709 3200 863 
Q 3416 1078 3536 1442 
Q 3656 1806 3656 2325 
Q 3656 3044 3420 3430 
Q 3184 3816 2847 3947 
Q 2603 4041 2063 4041 
L 1100 4041 
L 1100 541 
z
" transform="scale(0.015625)"/>
       <path id="ArialMT-61" d="M 2588 409 
Q 2275 144 1986 34 
Q 1697 -75 1366 -75 
Q 819 -75 525 192 
Q 231 459 231 875 
Q 231 1119 342 1320 
Q 453 1522 633 1644 
Q 813 1766 1038 1828 
Q 1203 1872 1538 1913 
Q 2219 1994 2541 2106 
Q 2544 2222 2544 2253 
Q 2544 2597 2384 2738 
Q 2169 2928 1744 2928 
Q 1347 2928 1158 2789 
Q 969 2650 878 2297 
L 328 2372 
Q 403 2725 575 2942 
Q 747 3159 1072 3276 
Q 1397 3394 1825 3394 
Q 2250 3394 2515 3294 
Q 2781 3194 2906 3042 
Q 3031 2891 3081 2659 
Q 3109 2516 3109 2141 
L 3109 1391 
Q 3109 606 3145 398 
Q 3181 191 3288 0 
L 2700 0 
Q 2613 175 2588 409 
z
M 2541 1666 
Q 2234 1541 1622 1453 
Q 1275 1403 1131 1340 
Q 988 1278 909 1158 
Q 831 1038 831 891 
Q 831 666 1001 516 
Q 1172 366 1500 366 
Q 1825 366 2078 508 
Q 2331 650 2450 897 
Q 2541 1088 2541 1459 
L 2541 1666 
z
" transform="scale(0.015625)"/>
       <path id="ArialMT-74" d="M 1650 503 
L 1731 6 
Q 1494 -44 1306 -44 
Q 1000 -44 831 53 
Q 663 150 594 308 
Q 525 466 525 972 
L 525 2881 
L 113 2881 
L 113 3319 
L 525 3319 
L 525 4141 
L 1084 4478 
L 1084 3319 
L 1650 3319 
L 1650 2881 
L 1084 2881 
L 1084 941 
Q 1084 700 1114 631 
Q 1144 563 1211 522 
Q 1278 481 1403 481 
Q 1497 481 1650 503 
z
" transform="scale(0.015625)"/>
       <path id="ArialMT-73" d="M 197 991 
L 753 1078 
Q 800 744 1014 566 
Q 1228 388 1613 388 
Q 2000 388 2187 545 
Q 2375 703 2375 916 
Q 2375 1106 2209 1216 
Q 2094 1291 1634 1406 
Q 1016 1563 777 1677 
Q 538 1791 414 1992 
Q 291 2194 291 2438 
Q 291 2659 392 2848 
Q 494 3038 669 3163 
Q 800 3259 1026 3326 
Q 1253 3394 1513 3394 
Q 1903 3394 2198 3281 
Q 2494 3169 2634 2976 
Q 2775 2784 2828 2463 
L 2278 2388 
Q 2241 2644 2061 2787 
Q 1881 2931 1553 2931 
Q 1166 2931 1000 2803 
Q 834 2675 834 2503 
Q 834 2394 903 2306 
Q 972 2216 1119 2156 
Q 1203 2125 1616 2013 
Q 2213 1853 2448 1751 
Q 2684 1650 2818 1456 
Q 2953 1263 2953 975 
Q 2953 694 2789 445 
Q 2625 197 2315 61 
Q 2006 -75 1616 -75 
Q 969 -75 630 194 
Q 291 463 197 991 
z
" transform="scale(0.015625)"/>
       <path id="ArialMT-65" d="M 2694 1069 
L 3275 997 
Q 3138 488 2766 206 
Q 2394 -75 1816 -75 
Q 1088 -75 661 373 
Q 234 822 234 1631 
Q 234 2469 665 2931 
Q 1097 3394 1784 3394 
Q 2450 3394 2872 2941 
Q 3294 2488 3294 1666 
Q 3294 1616 3291 1516 
L 816 1516 
Q 847 969 1125 678 
Q 1403 388 1819 388 
Q 2128 388 2347 550 
Q 2566 713 2694 1069 
z
M 847 1978 
L 2700 1978 
Q 2663 2397 2488 2606 
Q 2219 2931 1791 2931 
Q 1403 2931 1139 2672 
Q 875 2413 847 1978 
z
" transform="scale(0.015625)"/>
       <path id="ArialMT-20" transform="scale(0.015625)"/>
       <path id="ArialMT-69" d="M 425 3934 
L 425 4581 
L 988 4581 
L 988 3934 
L 425 3934 
z
M 425 0 
L 425 3319 
L 988 3319 
L 988 0 
L 425 0 
z
" transform="scale(0.015625)"/>
       <path id="ArialMT-7a" d="M 125 0 
L 125 456 
L 2238 2881 
Q 1878 2863 1603 2863 
L 250 2863 
L 250 3319 
L 2963 3319 
L 2963 2947 
L 1166 841 
L 819 456 
Q 1197 484 1528 484 
L 3063 484 
L 3063 0 
L 125 0 
z
" transform="scale(0.015625)"/>
      </defs>
      <use xlink:href="#ArialMT-44"/>
      <use xlink:href="#ArialMT-61" x="72.216797"/>
      <use xlink:href="#ArialMT-74" x="127.832031"/>
      <use xlink:href="#ArialMT-61" x="155.615234"/>
      <use xlink:href="#ArialMT-73" x="211.230469"/>
      <use xlink:href="#ArialMT-65" x="261.230469"/>
      <use xlink:href="#ArialMT-74" x="316.845703"/>
      <use xlink:href="#ArialMT-20" x="344.628906"/>
      <use xlink:href="#ArialMT-73" x="372.412109"/>
      <use xlink:href="#ArialMT-69" x="422.412109"/>
      <use xlink:href="#ArialMT-7a" x="444.628906"/>
      <use xlink:href="#ArialMT-65" x="494.628906"/>
     </g>
    </g>
   </g>
   <g id="matplotlib.axis_2">
    <g id="ytick_1">
     <g id="line2d_10">
      <defs>
       <path id="m27abe7599f" d="M 0 0 
L -4.8 0 
" style="stroke: #262626"/>
      </defs>
      <g>
       <use xlink:href="#m27abe7599f" x="45.405125" y="296.007658" style="fill: #262626; stroke: #262626"/>
      </g>
     </g>
     <g id="text_11">
      <!-- 0.00 -->
      <g style="fill: #262626" transform="translate(19.9795 299.157096) scale(0.088 -0.088)">
       <defs>
        <path id="ArialMT-2e" d="M 581 0 
L 581 641 
L 1222 641 
L 1222 0 
L 581 0 
z
" transform="scale(0.015625)"/>
       </defs>
       <use xlink:href="#ArialMT-30"/>
       <use xlink:href="#ArialMT-2e" x="55.615234"/>
       <use xlink:href="#ArialMT-30" x="83.398438"/>
       <use xlink:href="#ArialMT-30" x="139.013672"/>
      </g>
     </g>
    </g>
    <g id="ytick_2">
     <g id="line2d_11">
      <g>
       <use xlink:href="#m27abe7599f" x="45.405125" y="253.035841" style="fill: #262626; stroke: #262626"/>
      </g>
     </g>
     <g id="text_12">
      <!-- 0.05 -->
      <g style="fill: #262626" transform="translate(19.9795 256.185279) scale(0.088 -0.088)">
       <use xlink:href="#ArialMT-30"/>
       <use xlink:href="#ArialMT-2e" x="55.615234"/>
       <use xlink:href="#ArialMT-30" x="83.398438"/>
       <use xlink:href="#ArialMT-35" x="139.013672"/>
      </g>
     </g>
    </g>
    <g id="ytick_3">
     <g id="line2d_12">
      <g>
       <use xlink:href="#m27abe7599f" x="45.405125" y="210.064024" style="fill: #262626; stroke: #262626"/>
      </g>
     </g>
     <g id="text_13">
      <!-- 0.10 -->
      <g style="fill: #262626" transform="translate(19.9795 213.213462) scale(0.088 -0.088)">
       <use xlink:href="#ArialMT-30"/>
       <use xlink:href="#ArialMT-2e" x="55.615234"/>
       <use xlink:href="#ArialMT-31" x="83.398438"/>
       <use xlink:href="#ArialMT-30" x="139.013672"/>
      </g>
     </g>
    </g>
    <g id="ytick_4">
     <g id="line2d_13">
      <g>
       <use xlink:href="#m27abe7599f" x="45.405125" y="167.092207" style="fill: #262626; stroke: #262626"/>
      </g>
     </g>
     <g id="text_14">
      <!-- 0.15 -->
      <g style="fill: #262626" transform="translate(19.9795 170.241645) scale(0.088 -0.088)">
       <use xlink:href="#ArialMT-30"/>
       <use xlink:href="#ArialMT-2e" x="55.615234"/>
       <use xlink:href="#ArialMT-31" x="83.398438"/>
       <use xlink:href="#ArialMT-35" x="139.013672"/>
      </g>
     </g>
    </g>
    <g id="ytick_5">
     <g id="line2d_14">
      <g>
       <use xlink:href="#m27abe7599f" x="45.405125" y="124.12039" style="fill: #262626; stroke: #262626"/>
      </g>
     </g>
     <g id="text_15">
      <!-- 0.20 -->
      <g style="fill: #262626" transform="translate(19.9795 127.269827) scale(0.088 -0.088)">
       <use xlink:href="#ArialMT-30"/>
       <use xlink:href="#ArialMT-2e" x="55.615234"/>
       <use xlink:href="#ArialMT-32" x="83.398438"/>
       <use xlink:href="#ArialMT-30" x="139.013672"/>
      </g>
     </g>
    </g>
    <g id="ytick_6">
     <g id="line2d_15">
      <g>
       <use xlink:href="#m27abe7599f" x="45.405125" y="81.148573" style="fill: #262626; stroke: #262626"/>
      </g>
     </g>
     <g id="text_16">
      <!-- 0.25 -->
      <g style="fill: #262626" transform="translate(19.9795 84.29801) scale(0.088 -0.088)">
       <use xlink:href="#ArialMT-30"/>
       <use xlink:href="#ArialMT-2e" x="55.615234"/>
       <use xlink:href="#ArialMT-32" x="83.398438"/>
       <use xlink:href="#ArialMT-35" x="139.013672"/>
      </g>
     </g>
    </g>
    <g id="text_17">
     <!-- Predictive standard deviation -->
     <g style="fill: #262626" transform="translate(14.0715 236.448) rotate(-90) scale(0.096 -0.096)">
      <defs>
       <path id="ArialMT-50" d="M 494 0 
L 494 4581 
L 2222 4581 
Q 2678 4581 2919 4538 
Q 3256 4481 3484 4323 
Q 3713 4166 3852 3881 
Q 3991 3597 3991 3256 
Q 3991 2672 3619 2267 
Q 3247 1863 2275 1863 
L 1100 1863 
L 1100 0 
L 494 0 
z
M 1100 2403 
L 2284 2403 
Q 2872 2403 3119 2622 
Q 3366 2841 3366 3238 
Q 3366 3525 3220 3729 
Q 3075 3934 2838 4000 
Q 2684 4041 2272 4041 
L 1100 4041 
L 1100 2403 
z
" transform="scale(0.015625)"/>
       <path id="ArialMT-72" d="M 416 0 
L 416 3319 
L 922 3319 
L 922 2816 
Q 1116 3169 1280 3281 
Q 1444 3394 1641 3394 
Q 1925 3394 2219 3213 
L 2025 2691 
Q 1819 2813 1613 2813 
Q 1428 2813 1281 2702 
Q 1134 2591 1072 2394 
Q 978 2094 978 1738 
L 978 0 
L 416 0 
z
" transform="scale(0.015625)"/>
       <path id="ArialMT-64" d="M 2575 0 
L 2575 419 
Q 2259 -75 1647 -75 
Q 1250 -75 917 144 
Q 584 363 401 755 
Q 219 1147 219 1656 
Q 219 2153 384 2558 
Q 550 2963 881 3178 
Q 1213 3394 1622 3394 
Q 1922 3394 2156 3267 
Q 2391 3141 2538 2938 
L 2538 4581 
L 3097 4581 
L 3097 0 
L 2575 0 
z
M 797 1656 
Q 797 1019 1065 703 
Q 1334 388 1700 388 
Q 2069 388 2326 689 
Q 2584 991 2584 1609 
Q 2584 2291 2321 2609 
Q 2059 2928 1675 2928 
Q 1300 2928 1048 2622 
Q 797 2316 797 1656 
z
" transform="scale(0.015625)"/>
       <path id="ArialMT-63" d="M 2588 1216 
L 3141 1144 
Q 3050 572 2676 248 
Q 2303 -75 1759 -75 
Q 1078 -75 664 370 
Q 250 816 250 1647 
Q 250 2184 428 2587 
Q 606 2991 970 3192 
Q 1334 3394 1763 3394 
Q 2303 3394 2647 3120 
Q 2991 2847 3088 2344 
L 2541 2259 
Q 2463 2594 2264 2762 
Q 2066 2931 1784 2931 
Q 1359 2931 1093 2626 
Q 828 2322 828 1663 
Q 828 994 1084 691 
Q 1341 388 1753 388 
Q 2084 388 2306 591 
Q 2528 794 2588 1216 
z
" transform="scale(0.015625)"/>
       <path id="ArialMT-76" d="M 1344 0 
L 81 3319 
L 675 3319 
L 1388 1331 
Q 1503 1009 1600 663 
Q 1675 925 1809 1294 
L 2547 3319 
L 3125 3319 
L 1869 0 
L 1344 0 
z
" transform="scale(0.015625)"/>
       <path id="ArialMT-6e" d="M 422 0 
L 422 3319 
L 928 3319 
L 928 2847 
Q 1294 3394 1984 3394 
Q 2284 3394 2536 3286 
Q 2788 3178 2913 3003 
Q 3038 2828 3088 2588 
Q 3119 2431 3119 2041 
L 3119 0 
L 2556 0 
L 2556 2019 
Q 2556 2363 2490 2533 
Q 2425 2703 2258 2804 
Q 2091 2906 1866 2906 
Q 1506 2906 1245 2678 
Q 984 2450 984 1813 
L 984 0 
L 422 0 
z
" transform="scale(0.015625)"/>
       <path id="ArialMT-6f" d="M 213 1659 
Q 213 2581 725 3025 
Q 1153 3394 1769 3394 
Q 2453 3394 2887 2945 
Q 3322 2497 3322 1706 
Q 3322 1066 3130 698 
Q 2938 331 2570 128 
Q 2203 -75 1769 -75 
Q 1072 -75 642 372 
Q 213 819 213 1659 
z
M 791 1659 
Q 791 1022 1069 705 
Q 1347 388 1769 388 
Q 2188 388 2466 706 
Q 2744 1025 2744 1678 
Q 2744 2294 2464 2611 
Q 2184 2928 1769 2928 
Q 1347 2928 1069 2612 
Q 791 2297 791 1659 
z
" transform="scale(0.015625)"/>
      </defs>
      <use xlink:href="#ArialMT-50"/>
      <use xlink:href="#ArialMT-72" x="66.699219"/>
      <use xlink:href="#ArialMT-65" x="100"/>
      <use xlink:href="#ArialMT-64" x="155.615234"/>
      <use xlink:href="#ArialMT-69" x="211.230469"/>
      <use xlink:href="#ArialMT-63" x="233.447266"/>
      <use xlink:href="#ArialMT-74" x="283.447266"/>
      <use xlink:href="#ArialMT-69" x="311.230469"/>
      <use xlink:href="#ArialMT-76" x="333.447266"/>
      <use xlink:href="#ArialMT-65" x="383.447266"/>
      <use xlink:href="#ArialMT-20" x="439.0625"/>
      <use xlink:href="#ArialMT-73" x="466.845703"/>
      <use xlink:href="#ArialMT-74" x="516.845703"/>
      <use xlink:href="#ArialMT-61" x="544.628906"/>
      <use xlink:href="#ArialMT-6e" x="600.244141"/>
      <use xlink:href="#ArialMT-64" x="655.859375"/>
      <use xlink:href="#ArialMT-61" x="711.474609"/>
      <use xlink:href="#ArialMT-72" x="767.089844"/>
      <use xlink:href="#ArialMT-64" x="800.390625"/>
      <use xlink:href="#ArialMT-20" x="856.005859"/>
      <use xlink:href="#ArialMT-64" x="883.789062"/>
      <use xlink:href="#ArialMT-65" x="939.404297"/>
      <use xlink:href="#ArialMT-76" x="995.019531"/>
      <use xlink:href="#ArialMT-69" x="1045.019531"/>
      <use xlink:href="#ArialMT-61" x="1067.236328"/>
      <use xlink:href="#ArialMT-74" x="1122.851562"/>
      <use xlink:href="#ArialMT-69" x="1150.634766"/>
      <use xlink:href="#ArialMT-6f" x="1172.851562"/>
      <use xlink:href="#ArialMT-6e" x="1228.466797"/>
     </g>
    </g>
   </g>
   <g id="line2d_16">
    <path d="M 61.637852 53.856 
L 69.962328 102.135414 
L 86.611279 179.263866 
L 136.558132 261.312453 
L 219.802887 272.610028 
L 386.292398 286.224366 
" clip-path="url(#p23cedfe6a5)" style="fill: none; stroke: #1f77b4; stroke-opacity: 0.7; stroke-width: 1.2; stroke-linecap: round"/>
    <defs>
     <path id="m41e2ece11e" d="M 0 2.4 
C 0.636487 2.4 1.246992 2.147121 1.697056 1.697056 
C 2.147121 1.246992 2.4 0.636487 2.4 0 
C 2.4 -0.636487 2.147121 -1.246992 1.697056 -1.697056 
C 1.246992 -2.147121 0.636487 -2.4 0 -2.4 
C -0.636487 -2.4 -1.246992 -2.147121 -1.697056 -1.697056 
C -2.147121 -1.246992 -2.4 -0.636487 -2.4 0 
C -2.4 0.636487 -2.147121 1.246992 -1.697056 1.697056 
C -1.246992 2.147121 -0.636487 2.4 0 2.4 
z
" style="stroke: #1f77b4; stroke-opacity: 0.7"/>
    </defs>
    <g clip-path="url(#p23cedfe6a5)">
     <use xlink:href="#m41e2ece11e" x="61.637852" y="53.856" style="fill: #1f77b4; fill-opacity: 0.7; stroke: #1f77b4; stroke-opacity: 0.7"/>
     <use xlink:href="#m41e2ece11e" x="69.962328" y="102.135414" style="fill: #1f77b4; fill-opacity: 0.7; stroke: #1f77b4; stroke-opacity: 0.7"/>
     <use xlink:href="#m41e2ece11e" x="86.611279" y="179.263866" style="fill: #1f77b4; fill-opacity: 0.7; stroke: #1f77b4; stroke-opacity: 0.7"/>
     <use xlink:href="#m41e2ece11e" x="136.558132" y="261.312453" style="fill: #1f77b4; fill-opacity: 0.7; stroke: #1f77b4; stroke-opacity: 0.7"/>
     <use xlink:href="#m41e2ece11e" x="219.802887" y="272.610028" style="fill: #1f77b4; fill-opacity: 0.7; stroke: #1f77b4; stroke-opacity: 0.7"/>
     <use xlink:href="#m41e2ece11e" x="386.292398" y="286.224366" style="fill: #1f77b4; fill-opacity: 0.7; stroke: #1f77b4; stroke-opacity: 0.7"/>
    </g>
   </g>
   <g id="line2d_17">
    <path d="M 61.637852 270.344383 
L 69.962328 285.903097 
L 86.611279 293.493023 
L 136.558132 295.507051 
L 219.802887 295.641194 
L 386.292398 295.776 
" clip-path="url(#p23cedfe6a5)" style="fill: none; stroke: #ff7f0e; stroke-opacity: 0.7; stroke-width: 1.2; stroke-linecap: round"/>
    <defs>
     <path id="md433693e3b" d="M 0 2.4 
C 0.636487 2.4 1.246992 2.147121 1.697056 1.697056 
C 2.147121 1.246992 2.4 0.636487 2.4 0 
C 2.4 -0.636487 2.147121 -1.246992 1.697056 -1.697056 
C 1.246992 -2.147121 0.636487 -2.4 0 -2.4 
C -0.636487 -2.4 -1.246992 -2.147121 -1.697056 -1.697056 
C -2.147121 -1.246992 -2.4 -0.636487 -2.4 0 
C -2.4 0.636487 -2.147121 1.246992 -1.697056 1.697056 
C -1.246992 2.147121 -0.636487 2.4 0 2.4 
z
" style="stroke: #ff7f0e; stroke-opacity: 0.7"/>
    </defs>
    <g clip-path="url(#p23cedfe6a5)">
     <use xlink:href="#md433693e3b" x="61.637852" y="270.344383" style="fill: #ff7f0e; fill-opacity: 0.7; stroke: #ff7f0e; stroke-opacity: 0.7"/>
     <use xlink:href="#md433693e3b" x="69.962328" y="285.903097" style="fill: #ff7f0e; fill-opacity: 0.7; stroke: #ff7f0e; stroke-opacity: 0.7"/>
     <use xlink:href="#md433693e3b" x="86.611279" y="293.493023" style="fill: #ff7f0e; fill-opacity: 0.7; stroke: #ff7f0e; stroke-opacity: 0.7"/>
     <use xlink:href="#md433693e3b" x="136.558132" y="295.507051" style="fill: #ff7f0e; fill-opacity: 0.7; stroke: #ff7f0e; stroke-opacity: 0.7"/>
     <use xlink:href="#md433693e3b" x="219.802887" y="295.641194" style="fill: #ff7f0e; fill-opacity: 0.7; stroke: #ff7f0e; stroke-opacity: 0.7"/>
     <use xlink:href="#md433693e3b" x="386.292398" y="295.776" style="fill: #ff7f0e; fill-opacity: 0.7; stroke: #ff7f0e; stroke-opacity: 0.7"/>
    </g>
   </g>
   <g id="line2d_18">
    <path d="M 61.637852 251.48846 
L 69.962328 270.470429 
L 86.611279 290.290802 
L 136.558132 294.972345 
L 219.802887 295.346598 
L 386.292398 295.637643 
" clip-path="url(#p23cedfe6a5)" style="fill: none; stroke: #2ca02c; stroke-opacity: 0.7; stroke-width: 1.2; stroke-linecap: round"/>
    <defs>
     <path id="mfec460b2d8" d="M 0 2.4 
C 0.636487 2.4 1.246992 2.147121 1.697056 1.697056 
C 2.147121 1.246992 2.4 0.636487 2.4 0 
C 2.4 -0.636487 2.147121 -1.246992 1.697056 -1.697056 
C 1.246992 -2.147121 0.636487 -2.4 0 -2.4 
C -0.636487 -2.4 -1.246992 -2.147121 -1.697056 -1.697056 
C -2.147121 -1.246992 -2.4 -0.636487 -2.4 0 
C -2.4 0.636487 -2.147121 1.246992 -1.697056 1.697056 
C -1.246992 2.147121 -0.636487 2.4 0 2.4 
z
" style="stroke: #2ca02c; stroke-opacity: 0.7"/>
    </defs>
    <g clip-path="url(#p23cedfe6a5)">
     <use xlink:href="#mfec460b2d8" x="61.637852" y="251.48846" style="fill: #2ca02c; fill-opacity: 0.7; stroke: #2ca02c; stroke-opacity: 0.7"/>
     <use xlink:href="#mfec460b2d8" x="69.962328" y="270.470429" style="fill: #2ca02c; fill-opacity: 0.7; stroke: #2ca02c; stroke-opacity: 0.7"/>
     <use xlink:href="#mfec460b2d8" x="86.611279" y="290.290802" style="fill: #2ca02c; fill-opacity: 0.7; stroke: #2ca02c; stroke-opacity: 0.7"/>
     <use xlink:href="#mfec460b2d8" x="136.558132" y="294.972345" style="fill: #2ca02c; fill-opacity: 0.7; stroke: #2ca02c; stroke-opacity: 0.7"/>
     <use xlink:href="#mfec460b2d8" x="219.802887" y="295.346598" style="fill: #2ca02c; fill-opacity: 0.7; stroke: #2ca02c; stroke-opacity: 0.7"/>
     <use xlink:href="#mfec460b2d8" x="386.292398" y="295.637643" style="fill: #2ca02c; fill-opacity: 0.7; stroke: #2ca02c; stroke-opacity: 0.7"/>
    </g>
   </g>
   <g id="line2d_19">
    <path d="M 61.637852 271.194877 
L 69.962328 281.23426 
L 86.611279 293.154626 
L 136.558132 295.354724 
L 219.802887 295.575472 
L 386.292398 295.717875 
" clip-path="url(#p23cedfe6a5)" style="fill: none; stroke: #d62728; stroke-opacity: 0.7; stroke-width: 1.2; stroke-linecap: round"/>
    <defs>
     <path id="m7080fa92d0" d="M 0 2.4 
C 0.636487 2.4 1.246992 2.147121 1.697056 1.697056 
C 2.147121 1.246992 2.4 0.636487 2.4 0 
C 2.4 -0.636487 2.147121 -1.246992 1.697056 -1.697056 
C 1.246992 -2.147121 0.636487 -2.4 0 -2.4 
C -0.636487 -2.4 -1.246992 -2.147121 -1.697056 -1.697056 
C -2.147121 -1.246992 -2.4 -0.636487 -2.4 0 
C -2.4 0.636487 -2.147121 1.246992 -1.697056 1.697056 
C -1.246992 2.147121 -0.636487 2.4 0 2.4 
z
" style="stroke: #d62728; stroke-opacity: 0.7"/>
    </defs>
    <g clip-path="url(#p23cedfe6a5)">
     <use xlink:href="#m7080fa92d0" x="61.637852" y="271.194877" style="fill: #d62728; fill-opacity: 0.7; stroke: #d62728; stroke-opacity: 0.7"/>
     <use xlink:href="#m7080fa92d0" x="69.962328" y="281.23426" style="fill: #d62728; fill-opacity: 0.7; stroke: #d62728; stroke-opacity: 0.7"/>
     <use xlink:href="#m7080fa92d0" x="86.611279" y="293.154626" style="fill: #d62728; fill-opacity: 0.7; stroke: #d62728; stroke-opacity: 0.7"/>
     <use xlink:href="#m7080fa92d0" x="136.558132" y="295.354724" style="fill: #d62728; fill-opacity: 0.7; stroke: #d62728; stroke-opacity: 0.7"/>
     <use xlink:href="#m7080fa92d0" x="219.802887" y="295.575472" style="fill: #d62728; fill-opacity: 0.7; stroke: #d62728; stroke-opacity: 0.7"/>
     <use xlink:href="#m7080fa92d0" x="386.292398" y="295.717875" style="fill: #d62728; fill-opacity: 0.7; stroke: #d62728; stroke-opacity: 0.7"/>
    </g>
   </g>
   <g id="patch_3">
    <path d="M 45.405125 296.007658 
L 45.405125 81.148573 
" style="fill: none; stroke: #262626; stroke-linejoin: miter; stroke-linecap: square"/>
   </g>
   <g id="patch_4">
    <path d="M 53.313377 307.872 
L 386.292398 307.872 
" style="fill: none; stroke: #262626; stroke-linejoin: miter; stroke-linecap: square"/>
   </g>
   <g id="legend_1">
    <g id="patch_5">
     <path d="M 220.983875 99.433 
L 396.365125 99.433 
Q 398.125125 99.433 398.125125 97.673 
L 398.125125 47.92 
Q 398.125125 46.16 396.365125 46.16 
L 220.983875 46.16 
Q 219.223875 46.16 219.223875 47.92 
L 219.223875 97.673 
Q 219.223875 99.433 220.983875 99.433 
z
" style="fill: #ffffff; opacity: 0.8; stroke: #cccccc; stroke-width: 0.8; stroke-linejoin: miter"/>
    </g>
    <g id="line2d_20">
     <path d="M 222.743875 53.006125 
L 231.543875 53.006125 
L 240.343875 53.006125 
" style="fill: none; stroke: #1f77b4; stroke-opacity: 0.7; stroke-width: 1.2; stroke-linecap: round"/>
     <g>
      <use xlink:href="#m41e2ece11e" x="231.543875" y="53.006125" style="fill: #1f77b4; fill-opacity: 0.7; stroke: #1f77b4; stroke-opacity: 0.7"/>
     </g>
    </g>
    <g id="text_18">
     <!-- needle_displacement_m (scaled) -->
     <g style="fill: #262626" transform="translate(247.383875 56.086125) scale(0.088 -0.088)">
      <defs>
       <path id="ArialMT-6c" d="M 409 0 
L 409 4581 
L 972 4581 
L 972 0 
L 409 0 
z
" transform="scale(0.015625)"/>
       <path id="ArialMT-5f" d="M -97 -1272 
L -97 -866 
L 3631 -866 
L 3631 -1272 
L -97 -1272 
z
" transform="scale(0.015625)"/>
       <path id="ArialMT-70" d="M 422 -1272 
L 422 3319 
L 934 3319 
L 934 2888 
Q 1116 3141 1344 3267 
Q 1572 3394 1897 3394 
Q 2322 3394 2647 3175 
Q 2972 2956 3137 2557 
Q 3303 2159 3303 1684 
Q 3303 1175 3120 767 
Q 2938 359 2589 142 
Q 2241 -75 1856 -75 
Q 1575 -75 1351 44 
Q 1128 163 984 344 
L 984 -1272 
L 422 -1272 
z
M 931 1641 
Q 931 1000 1190 694 
Q 1450 388 1819 388 
Q 2194 388 2461 705 
Q 2728 1022 2728 1688 
Q 2728 2322 2467 2637 
Q 2206 2953 1844 2953 
Q 1484 2953 1207 2617 
Q 931 2281 931 1641 
z
" transform="scale(0.015625)"/>
       <path id="ArialMT-6d" d="M 422 0 
L 422 3319 
L 925 3319 
L 925 2853 
Q 1081 3097 1340 3245 
Q 1600 3394 1931 3394 
Q 2300 3394 2536 3241 
Q 2772 3088 2869 2813 
Q 3263 3394 3894 3394 
Q 4388 3394 4653 3120 
Q 4919 2847 4919 2278 
L 4919 0 
L 4359 0 
L 4359 2091 
Q 4359 2428 4304 2576 
Q 4250 2725 4106 2815 
Q 3963 2906 3769 2906 
Q 3419 2906 3187 2673 
Q 2956 2441 2956 1928 
L 2956 0 
L 2394 0 
L 2394 2156 
Q 2394 2531 2256 2718 
Q 2119 2906 1806 2906 
Q 1569 2906 1367 2781 
Q 1166 2656 1075 2415 
Q 984 2175 984 1722 
L 984 0 
L 422 0 
z
" transform="scale(0.015625)"/>
       <path id="ArialMT-28" d="M 1497 -1347 
Q 1031 -759 709 28 
Q 388 816 388 1659 
Q 388 2403 628 3084 
Q 909 3875 1497 4659 
L 1900 4659 
Q 1522 4009 1400 3731 
Q 1209 3300 1100 2831 
Q 966 2247 966 1656 
Q 966 153 1900 -1347 
L 1497 -1347 
z
" transform="scale(0.015625)"/>
       <path id="ArialMT-29" d="M 791 -1347 
L 388 -1347 
Q 1322 153 1322 1656 
Q 1322 2244 1188 2822 
Q 1081 3291 891 3722 
Q 769 4003 388 4659 
L 791 4659 
Q 1378 3875 1659 3084 
Q 1900 2403 1900 1659 
Q 1900 816 1576 28 
Q 1253 -759 791 -1347 
z
" transform="scale(0.015625)"/>
      </defs>
      <use xlink:href="#ArialMT-6e"/>
      <use xlink:href="#ArialMT-65" x="55.615234"/>
      <use xlink:href="#ArialMT-65" x="111.230469"/>
      <use xlink:href="#ArialMT-64" x="166.845703"/>
      <use xlink:href="#ArialMT-6c" x="222.460938"/>
      <use xlink:href="#ArialMT-65" x="244.677734"/>
      <use xlink:href="#ArialMT-5f" x="300.292969"/>
      <use xlink:href="#ArialMT-64" x="355.908203"/>
      <use xlink:href="#ArialMT-69" x="411.523438"/>
      <use xlink:href="#ArialMT-73" x="433.740234"/>
      <use xlink:href="#ArialMT-70" x="483.740234"/>
      <use xlink:href="#ArialMT-6c" x="539.355469"/>
      <use xlink:href="#ArialMT-61" x="561.572266"/>
      <use xlink:href="#ArialMT-63" x="617.1875"/>
      <use xlink:href="#ArialMT-65" x="667.1875"/>
      <use xlink:href="#ArialMT-6d" x="722.802734"/>
      <use xlink:href="#ArialMT-65" x="806.103516"/>
      <use xlink:href="#ArialMT-6e" x="861.71875"/>
      <use xlink:href="#ArialMT-74" x="917.333984"/>
      <use xlink:href="#ArialMT-5f" x="945.117188"/>
      <use xlink:href="#ArialMT-6d" x="1000.732422"/>
      <use xlink:href="#ArialMT-20" x="1084.033203"/>
      <use xlink:href="#ArialMT-28" x="1111.816406"/>
      <use xlink:href="#ArialMT-73" x="1145.117188"/>
      <use xlink:href="#ArialMT-63" x="1195.117188"/>
      <use xlink:href="#ArialMT-61" x="1245.117188"/>
      <use xlink:href="#ArialMT-6c" x="1300.732422"/>
      <use xlink:href="#ArialMT-65" x="1322.949219"/>
      <use xlink:href="#ArialMT-64" x="1378.564453"/>
      <use xlink:href="#ArialMT-29" x="1434.179688"/>
     </g>
    </g>
    <g id="line2d_21">
     <path d="M 222.743875 65.664375 
L 231.543875 65.664375 
L 240.343875 65.664375 
" style="fill: none; stroke: #ff7f0e; stroke-opacity: 0.7; stroke-width: 1.2; stroke-linecap: round"/>
     <g>
      <use xlink:href="#md433693e3b" x="231.543875" y="65.664375" style="fill: #ff7f0e; fill-opacity: 0.7; stroke: #ff7f0e; stroke-opacity: 0.7"/>
     </g>
    </g>
    <g id="text_19">
     <!-- injection_time_s (scaled) -->
     <g style="fill: #262626" transform="translate(247.383875 68.744375) scale(0.088 -0.088)">
      <defs>
       <path id="ArialMT-6a" d="M 419 3928 
L 419 4581 
L 981 4581 
L 981 3928 
L 419 3928 
z
M -294 -1288 
L -188 -809 
Q -19 -853 78 -853 
Q 250 -853 334 -739 
Q 419 -625 419 -169 
L 419 3319 
L 981 3319 
L 981 -181 
Q 981 -794 822 -1034 
Q 619 -1347 147 -1347 
Q -81 -1347 -294 -1288 
z
" transform="scale(0.015625)"/>
      </defs>
      <use xlink:href="#ArialMT-69"/>
      <use xlink:href="#ArialMT-6e" x="22.216797"/>
      <use xlink:href="#ArialMT-6a" x="77.832031"/>
      <use xlink:href="#ArialMT-65" x="100.048828"/>
      <use xlink:href="#ArialMT-63" x="155.664062"/>
      <use xlink:href="#ArialMT-74" x="205.664062"/>
      <use xlink:href="#ArialMT-69" x="233.447266"/>
      <use xlink:href="#ArialMT-6f" x="255.664062"/>
      <use xlink:href="#ArialMT-6e" x="311.279297"/>
      <use xlink:href="#ArialMT-5f" x="366.894531"/>
      <use xlink:href="#ArialMT-74" x="422.509766"/>
      <use xlink:href="#ArialMT-69" x="450.292969"/>
      <use xlink:href="#ArialMT-6d" x="472.509766"/>
      <use xlink:href="#ArialMT-65" x="555.810547"/>
      <use xlink:href="#ArialMT-5f" x="611.425781"/>
      <use xlink:href="#ArialMT-73" x="667.041016"/>
      <use xlink:href="#ArialMT-20" x="717.041016"/>
      <use xlink:href="#ArialMT-28" x="744.824219"/>
      <use xlink:href="#ArialMT-73" x="778.125"/>
      <use xlink:href="#ArialMT-63" x="828.125"/>
      <use xlink:href="#ArialMT-61" x="878.125"/>
      <use xlink:href="#ArialMT-6c" x="933.740234"/>
      <use xlink:href="#ArialMT-65" x="955.957031"/>
      <use xlink:href="#ArialMT-64" x="1011.572266"/>
      <use xlink:href="#ArialMT-29" x="1067.1875"/>
     </g>
    </g>
    <g id="line2d_22">
     <path d="M 222.743875 78.322625 
L 231.543875 78.322625 
L 240.343875 78.322625 
" style="fill: none; stroke: #2ca02c; stroke-opacity: 0.7; stroke-width: 1.2; stroke-linecap: round"/>
     <g>
      <use xlink:href="#mfec460b2d8" x="231.543875" y="78.322625" style="fill: #2ca02c; fill-opacity: 0.7; stroke: #2ca02c; stroke-opacity: 0.7"/>
     </g>
    </g>
    <g id="text_20">
     <!-- max_acceleration_m_per_s2 (scaled) -->
     <g style="fill: #262626" transform="translate(247.383875 81.402625) scale(0.088 -0.088)">
      <defs>
       <path id="ArialMT-78" d="M 47 0 
L 1259 1725 
L 138 3319 
L 841 3319 
L 1350 2541 
Q 1494 2319 1581 2169 
Q 1719 2375 1834 2534 
L 2394 3319 
L 3066 3319 
L 1919 1756 
L 3153 0 
L 2463 0 
L 1781 1031 
L 1600 1309 
L 728 0 
L 47 0 
z
" transform="scale(0.015625)"/>
      </defs>
      <use xlink:href="#ArialMT-6d"/>
      <use xlink:href="#ArialMT-61" x="83.300781"/>
      <use xlink:href="#ArialMT-78" x="138.916016"/>
      <use xlink:href="#ArialMT-5f" x="188.916016"/>
      <use xlink:href="#ArialMT-61" x="244.53125"/>
      <use xlink:href="#ArialMT-63" x="300.146484"/>
      <use xlink:href="#ArialMT-63" x="350.146484"/>
      <use xlink:href="#ArialMT-65" x="400.146484"/>
      <use xlink:href="#ArialMT-6c" x="455.761719"/>
      <use xlink:href="#ArialMT-65" x="477.978516"/>
      <use xlink:href="#ArialMT-72" x="533.59375"/>
      <use xlink:href="#ArialMT-61" x="566.894531"/>
      <use xlink:href="#ArialMT-74" x="622.509766"/>
      <use xlink:href="#ArialMT-69" x="650.292969"/>
      <use xlink:href="#ArialMT-6f" x="672.509766"/>
      <use xlink:href="#ArialMT-6e" x="728.125"/>
      <use xlink:href="#ArialMT-5f" x="783.740234"/>
      <use xlink:href="#ArialMT-6d" x="839.355469"/>
      <use xlink:href="#ArialMT-5f" x="922.65625"/>
      <use xlink:href="#ArialMT-70" x="978.271484"/>
      <use xlink:href="#ArialMT-65" x="1033.886719"/>
      <use xlink:href="#ArialMT-72" x="1089.501953"/>
      <use xlink:href="#ArialMT-5f" x="1122.802734"/>
      <use xlink:href="#ArialMT-73" x="1178.417969"/>
      <use xlink:href="#ArialMT-32" x="1228.417969"/>
      <use xlink:href="#ArialMT-20" x="1284.033203"/>
      <use xlink:href="#ArialMT-28" x="1311.816406"/>
      <use xlink:href="#ArialMT-73" x="1345.117188"/>
      <use xlink:href="#ArialMT-63" x="1395.117188"/>
      <use xlink:href="#ArialMT-61" x="1445.117188"/>
      <use xlink:href="#ArialMT-6c" x="1500.732422"/>
      <use xlink:href="#ArialMT-65" x="1522.949219"/>
      <use xlink:href="#ArialMT-64" x="1578.564453"/>
      <use xlink:href="#ArialMT-29" x="1634.179688"/>
     </g>
    </g>
    <g id="line2d_23">
     <path d="M 222.743875 90.980875 
L 231.543875 90.980875 
L 240.343875 90.980875 
" style="fill: none; stroke: #d62728; stroke-opacity: 0.7; stroke-width: 1.2; stroke-linecap: round"/>
     <g>
      <use xlink:href="#m7080fa92d0" x="231.543875" y="90.980875" style="fill: #d62728; fill-opacity: 0.7; stroke: #d62728; stroke-opacity: 0.7"/>
     </g>
    </g>
    <g id="text_21">
     <!-- max_deceleration_m_per_s2 (scaled) -->
     <g style="fill: #262626" transform="translate(247.383875 94.060875) scale(0.088 -0.088)">
      <use xlink:href="#ArialMT-6d"/>
      <use xlink:href="#ArialMT-61" x="83.300781"/>
      <use xlink:href="#ArialMT-78" x="138.916016"/>
      <use xlink:href="#ArialMT-5f" x="188.916016"/>
      <use xlink:href="#ArialMT-64" x="244.53125"/>
      <use xlink:href="#ArialMT-65" x="300.146484"/>
      <use xlink:href="#ArialMT-63" x="355.761719"/>
      <use xlink:href="#ArialMT-65" x="405.761719"/>
      <use xlink:href="#ArialMT-6c" x="461.376953"/>
      <use xlink:href="#ArialMT-65" x="483.59375"/>
      <use xlink:href="#ArialMT-72" x="539.208984"/>
      <use xlink:href="#ArialMT-61" x="572.509766"/>
      <use xlink:href="#ArialMT-74" x="628.125"/>
      <use xlink:href="#ArialMT-69" x="655.908203"/>
      <use xlink:href="#ArialMT-6f" x="678.125"/>
      <use xlink:href="#ArialMT-6e" x="733.740234"/>
      <use xlink:href="#ArialMT-5f" x="789.355469"/>
      <use xlink:href="#ArialMT-6d" x="844.970703"/>
      <use xlink:href="#ArialMT-5f" x="928.271484"/>
      <use xlink:href="#ArialMT-70" x="983.886719"/>
      <use xlink:href="#ArialMT-65" x="1039.501953"/>
      <use xlink:href="#ArialMT-72" x="1095.117188"/>
      <use xlink:href="#ArialMT-5f" x="1128.417969"/>
      <use xlink:href="#ArialMT-73" x="1184.033203"/>
      <use xlink:href="#ArialMT-32" x="1234.033203"/>
      <use xlink:href="#ArialMT-20" x="1289.648438"/>
      <use xlink:href="#ArialMT-28" x="1317.431641"/>
      <use xlink:href="#ArialMT-73" x="1350.732422"/>
      <use xlink:href="#ArialMT-63" x="1400.732422"/>
      <use xlink:href="#ArialMT-61" x="1450.732422"/>
      <use xlink:href="#ArialMT-6c" x="1506.347656"/>
      <use xlink:href="#ArialMT-65" x="1528.564453"/>
      <use xlink:href="#ArialMT-64" x="1584.179688"/>
      <use xlink:href="#ArialMT-29" x="1639.794922"/>
     </g>
    </g>
   </g>
  </g>
  <g id="text_22">
   <!-- Predictive standard deviation vs. dataset size -->
   <g style="fill: #262626" transform="translate(58.128875 18.6525) scale(0.16 -0.16)">
    <use xlink:href="#ArialMT-50"/>
    <use xlink:href="#ArialMT-72" x="66.699219"/>
    <use xlink:href="#ArialMT-65" x="100"/>
    <use xlink:href="#ArialMT-64" x="155.615234"/>
    <use xlink:href="#ArialMT-69" x="211.230469"/>
    <use xlink:href="#ArialMT-63" x="233.447266"/>
    <use xlink:href="#ArialMT-74" x="283.447266"/>
    <use xlink:href="#ArialMT-69" x="311.230469"/>
    <use xlink:href="#ArialMT-76" x="333.447266"/>
    <use xlink:href="#ArialMT-65" x="383.447266"/>
    <use xlink:href="#ArialMT-20" x="439.0625"/>
    <use xlink:href="#ArialMT-73" x="466.845703"/>
    <use xlink:href="#ArialMT-74" x="516.845703"/>
    <use xlink:href="#ArialMT-61" x="544.628906"/>
    <use xlink:href="#ArialMT-6e" x="600.244141"/>
    <use xlink:href="#ArialMT-64" x="655.859375"/>
    <use xlink:href="#ArialMT-61" x="711.474609"/>
    <use xlink:href="#ArialMT-72" x="767.089844"/>
    <use xlink:href="#ArialMT-64" x="800.390625"/>
    <use xlink:href="#ArialMT-20" x="856.005859"/>
    <use xlink:href="#ArialMT-64" x="883.789062"/>
    <use xlink:href="#ArialMT-65" x="939.404297"/>
    <use xlink:href="#ArialMT-76" x="995.019531"/>
    <use xlink:href="#ArialMT-69" x="1045.019531"/>
    <use xlink:href="#ArialMT-61" x="1067.236328"/>
    <use xlink:href="#ArialMT-74" x="1122.851562"/>
    <use xlink:href="#ArialMT-69" x="1150.634766"/>
    <use xlink:href="#ArialMT-6f" x="1172.851562"/>
    <use xlink:href="#ArialMT-6e" x="1228.466797"/>
    <use xlink:href="#ArialMT-20" x="1284.082031"/>
    <use xlink:href="#ArialMT-76" x="1311.865234"/>
    <use xlink:href="#ArialMT-73" x="1361.865234"/>
    <use xlink:href="#ArialMT-2e" x="1411.865234"/>
    <use xlink:href="#ArialMT-20" x="1439.648438"/>
    <use xlink:href="#ArialMT-64" x="1467.431641"/>
    <use xlink:href="#ArialMT-61" x="1523.046875"/>
    <use xlink:href="#ArialMT-74" x="1578.662109"/>
    <use xlink:href="#ArialMT-61" x="1606.445312"/>
    <use xlink:href="#ArialMT-73" x="1662.060547"/>
    <use xlink:href="#ArialMT-65" x="1712.060547"/>
    <use xlink:href="#ArialMT-74" x="1767.675781"/>
    <use xlink:href="#ArialMT-20" x="1795.458984"/>
    <use xlink:href="#ArialMT-73" x="1823.242188"/>
    <use xlink:href="#ArialMT-69" x="1873.242188"/>
    <use xlink:href="#ArialMT-7a" x="1895.458984"/>
    <use xlink:href="#ArialMT-65" x="1945.458984"/>
   </g>
  </g>
 </g>
 <defs>
  <clipPath id="p23cedfe6a5">
   <rect x="45.405125" y="41.76" width="357.12" height="266.112"/>
  </clipPath>
 </defs>
</svg>