<?xml version="1.0" encoding="utf-8" standalone="no"?>
<!DOCTYPE svg PUBLIC "-//W3C//DTD SVG 1.1//EN"
  "http://www.w3.org/Graphics/SVG/1.1/DTD/svg11.dtd">
<svg xmlns:xlink="http://www.w3.org/1999/xlink" width="410.20075pt" height="309.639375pt" viewBox="0 0 410.20075 309.639375" xmlns="http://www.w3.org/2000/svg" version="1.1">
 <metadata>
  <rdf:RDF xmlns:dc="http://purl.org/dc/elements/1.1/" xmlns:cc="http://creativecommons.org/ns#" xmlns:rdf="http://www.w3.org/1999/02/22-rdf-syntax-ns#">
   <cc:Work>
    <dc:type rdf:resource="http://purl.org/dc/dcmitype/StillImage"/>
    <dc:date>2025-02-07T07:00:13.734356</dc:date>
    <dc:format>image/svg+xml</dc:format>
    <dc:creator>
     <cc:Agent>
      <dc:title>Matplotlib v3.9.2, https://matplotlib.org/</dc:title>
     </cc:Agent>
    </dc:creator>
   </cc:Work>
  </rdf:RDF>
 </metadata>
 <defs>
  <style type="text/css">*{stroke-linejoin: round; stroke-linecap: butt}</style>
 </defs>
 <g id="figure_1">
  <g id="patch_1">
   <path d="M 0 309.639375 
L 410.20075 309.639375 
L 410.20075 0 
L 0 0 
z
" style="fill: #ffffff"/>
  </g>
  <g id="axes_1">
   <g id="patch_2">
    <path d="M 45.88075 273.312 
L 403.00075 273.312 
L 403.00075 7.2 
L 45.88075 7.2 
z
" style="fill: #ffffff"/>
   </g>
   <g id="matplotlib.axis_1">
    <g id="xtick_1">
     <g id="line2d_1">
      <defs>
       <path id="m37eab2cc81" d="M 0 0 
L 0 4.8 
" style="stroke: #262626"/>
      </defs>
      <g>
       <use xlink:href="#m37eab2cc81" x="62.113477" y="273.312" style="fill: #262626; stroke: #262626"/>
      </g>
     </g>
     <g id="text_1">
      <!-- 0 -->
      <g style="fill: #262626" transform="translate(59.666665 287.910875) scale(0.088 -0.088)">
       <defs>
        <path id="ArialMT-30" d="M 266 2259 
Q 266 3072 433 3567 
Q 600 4063 929 4331 
Q 1259 4600 1759 4600 
Q 2128 4600 2406 4451 
Q 2684 4303 2865 4023 
Q 3047 3744 3150 3342 
Q 3253 2941 3253 2259 
Q 3253 1453 3087 958 
Q 2922 463 2592 192 
Q 2263 -78 1759 -78 
Q 1097 -78 719 397 
Q 266 969 266 2259 
z
M 844 2259 
Q 844 1131 1108 757 
Q 1372 384 1759 384 
Q 2147 384 2411 759 
Q 2675 1134 2675 2259 
Q 2675 3391 2411 3762 
Q 2147 4134 1753 4134 
Q 1366 4134 1134 3806 
Q 844 3388 844 2259 
z
" transform="scale(0.015625)"/>
       </defs>
       <use xlink:href="#ArialMT-30"/>
      </g>
     </g>
    </g>
    <g id="xtick_2">
     <g id="line2d_2">
      <g>
       <use xlink:href="#m37eab2cc81" x="127.338044" y="273.312" style="fill: #262626; stroke: #262626"/>
      </g>
     </g>
     <g id="text_2">
      <!-- 1 -->
      <g style="fill: #262626" transform="translate(124.891231 287.910875) scale(0.088 -0.088)">
       <defs>
        <path id="ArialMT-31" d="M 2384 0 
L 1822 0 
L 1822 3584 
Q 1619 3391 1289 3197 
Q 959 3003 697 2906 
L 697 3450 
Q 1169 3672 1522 3987 
Q 1875 4303 2022 4600 
L 2384 4600 
L 2384 0 
z
" transform="scale(0.015625)"/>
       </defs>
       <use xlink:href="#ArialMT-31"/>
      </g>
     </g>
    </g>
    <g id="xtick_3">
     <g id="line2d_3">
      <g>
       <use xlink:href="#m37eab2cc81" x="192.56261" y="273.312" style="fill: #262626; stroke: #262626"/>
      </g>
     </g>
     <g id="text_3">
      <!-- 2 -->
      <g style="fill: #262626" transform="translate(190.115798 287.910875) scale(0.088 -0.088)">
       <defs>
        <path id="ArialMT-32" d="M 3222 541 
L 3222 0 
L 194 0 
Q 188 203 259 391 
Q 375 700 629 1000 
Q 884 1300 1366 1694 
Q 2113 2306 2375 2664 
Q 2638 3022 2638 3341 
Q 2638 3675 2398 3904 
Q 2159 4134 1775 4134 
Q 1369 4134 1125 3890 
Q 881 3647 878 3216 
L 300 3275 
Q 359 3922 746 4261 
Q 1134 4600 1788 4600 
Q 2447 4600 2831 4234 
Q 3216 3869 3216 3328 
Q 3216 3053 3103 2787 
Q 2991 2522 2730 2228 
Q 2469 1934 1863 1422 
Q 1356 997 1212 845 
Q 1069 694 975 541 
L 3222 541 
z
" transform="scale(0.015625)"/>
       </defs>
       <use xlink:href="#ArialMT-32"/>
      </g>
     </g>
    </g>
    <g id="xtick_4">
     <g id="line2d_4">
      <g>
       <use xlink:href="#m37eab2cc81" x="257.787177" y="273.312" style="fill: #262626; stroke: #262626"/>
      </g>
     </g>
     <g id="text_4">
      <!-- 3 -->
      <g style="fill: #262626" transform="translate(255.340364 287.910875) scale(0.088 -0.088)">
       <defs>
        <path id="ArialMT-33" d="M 269 1209 
L 831 1284 
Q 928 806 1161 595 
Q 1394 384 1728 384 
Q 2125 384 2398 659 
Q 2672 934 2672 1341 
Q 2672 1728 2419 1979 
Q 2166 2231 1775 2231 
Q 1616 2231 1378 2169 
L 1441 2663 
Q 1497 2656 1531 2656 
Q 1891 2656 2178 2843 
Q 2466 3031 2466 3422 
Q 2466 3731 2256 3934 
Q 2047 4138 1716 4138 
Q 1388 4138 1169 3931 
Q 950 3725 888 3313 
L 325 3413 
Q 428 3978 793 4289 
Q 1159 4600 1703 4600 
Q 2078 4600 2393 4439 
Q 2709 4278 2876 4000 
Q 3044 3722 3044 3409 
Q 3044 3113 2884 2869 
Q 2725 2625 2413 2481 
Q 2819 2388 3044 2092 
Q 3269 1797 3269 1353 
Q 3269 753 2831 336 
Q 2394 -81 1725 -81 
Q 1122 -81 723 278 
Q 325 638 269 1209 
z
" transform="scale(0.015625)"/>
       </defs>
       <use xlink:href="#ArialMT-33"/>
      </g>
     </g>
    </g>
    <g id="xtick_5">
     <g id="line2d_5">
      <g>
       <use xlink:href="#m37eab2cc81" x="323.011743" y="273.312" style="fill: #262626; stroke: #262626"/>
      </g>
     </g>
     <g id="text_5">
      <!-- 4 -->
      <g style="fill: #262626" transform="translate(320.564931 287.910875) scale(0.088 -0.088)">
       <defs>
        <path id="ArialMT-34" d="M 2069 0 
L 2069 1097 
L 81 1097 
L 81 1613 
L 2172 4581 
L 2631 4581 
L 2631 1613 
L 3250 1613 
L 3250 1097 
L 2631 1097 
L 2631 0 
L 2069 0 
z
M 2069 1613 
L 2069 3678 
L 634 1613 
L 2069 1613 
z
" transform="scale(0.015625)"/>
       </defs>
       <use xlink:href="#ArialMT-34"/>
      </g>
     </g>
    </g>
    <g id="xtick_6">
     <g id="line2d_6">
      <g>
       <use xlink:href="#m37eab2cc81" x="388.23631" y="273.312" style="fill: #262626; stroke: #262626"/>
      </g>
     </g>
     <g id="text_6">
      <!-- 5 -->
      <g style="fill: #262626" transform="translate(385.789497 287.910875) scale(0.088 -0.088)">
       <defs>
        <path id="ArialMT-35" d="M 266 1200 
L 856 1250 
Q 922 819 1161 601 
Q 1400 384 1738 384 
Q 2144 384 2425 690 
Q 2706 997 2706 1503 
Q 2706 1984 2436 2262 
Q 2166 2541 1728 2541 
Q 1456 2541 1237 2417 
Q 1019 2294 894 2097 
L 366 2166 
L 809 4519 
L 3088 4519 
L 3088 3981 
L 1259 3981 
L 1013 2750 
Q 1425 3038 1878 3038 
Q 2478 3038 2890 2622 
Q 3303 2206 3303 1553 
Q 3303 931 2941 478 
Q 2500 -78 1738 -78 
Q 1113 -78 717 272 
Q 322 622 266 1200 
z
" transform="scale(0.015625)"/>
       </defs>
       <use xlink:href="#ArialMT-35"/>
      </g>
     </g>
    </g>
    <g id="text_7">
     <!-- t -->
     <g style="fill: #262626" transform="translate(223.10725 300.531375) scale(0.096 -0.096)">
      <defs>
       <path id="ArialMT-74" d="M 1650 503 
L 1731 6 
Q 1494 -44 1306 -44 
Q 1000 -44 831 53 
Q 663 150 594 308 
Q 525 466 525 972 
L 525 2881 
L 113 2881 
L 113 3319 
L 525 3319 
L 525 4141 
L 1084 4478 
L 1084 3319 
L 1650 3319 
L 1650 2881 
L 1084 2881 
L 1084 941 
Q 1084 700 1114 631 
Q 1144 563 1211 522 
Q 1278 481 1403 481 
Q 1497 481 1650 503 
z
" transform="scale(0.015625)"/>
      </defs>
      <use xlink:href="#ArialMT-74"/>
     </g>
    </g>
   </g>
   <g id="matplotlib.axis_2">
    <g id="ytick_1">
     <g id="line2d_7">
      <defs>
       <path id="m21271a31bb" d="M 0 0 
L -4.8 0 
" style="stroke: #262626"/>
      </defs>
      <g>
       <use xlink:href="#m21271a31bb" x="45.88075" y="255.726151" style="fill: #262626; stroke: #262626"/>
      </g>
     </g>
     <g id="text_8">
      <!-- −0.6 -->
      <g style="fill: #262626" transform="translate(20.209 258.875589) scale(0.088 -0.088)">
       <defs>
        <path id="ArialMT-2212" d="M 3381 1997 
L 356 1997 
L 356 2522 
L 3381 2522 
L 3381 1997 
z
" transform="scale(0.015625)"/>
        <path id="ArialMT-2e" d="M 581 0 
L 581 641 
L 1222 641 
L 1222 0 
L 581 0 
z
" transform="scale(0.015625)"/>
        <path id="ArialMT-36" d="M 3184 3459 
L 2625 3416 
Q 2550 3747 2413 3897 
Q 2184 4138 1850 4138 
Q 1581 4138 1378 3988 
Q 1113 3794 959 3422 
Q 806 3050 800 2363 
Q 1003 2672 1297 2822 
Q 1591 2972 1913 2972 
Q 2475 2972 2870 2558 
Q 3266 2144 3266 1488 
Q 3266 1056 3080 686 
Q 2894 316 2569 119 
Q 2244 -78 1831 -78 
Q 1128 -78 684 439 
Q 241 956 241 2144 
Q 241 3472 731 4075 
Q 1159 4600 1884 4600 
Q 2425 4600 2770 4297 
Q 3116 3994 3184 3459 
z
M 888 1484 
Q 888 1194 1011 928 
Q 1134 663 1356 523 
Q 1578 384 1822 384 
Q 2178 384 2434 671 
Q 2691 959 2691 1453 
Q 2691 1928 2437 2201 
Q 2184 2475 1800 2475 
Q 1419 2475 1153 2201 
Q 888 1928 888 1484 
z
" transform="scale(0.015625)"/>
       </defs>
       <use xlink:href="#ArialMT-2212"/>
       <use xlink:href="#ArialMT-30" x="58.398438"/>
       <use xlink:href="#ArialMT-2e" x="114.013672"/>
       <use xlink:href="#ArialMT-36" x="141.796875"/>
      </g>
     </g>
    </g>
    <g id="ytick_2">
     <g id="line2d_8">
      <g>
       <use xlink:href="#m21271a31bb" x="45.88075" y="221.833432" style="fill: #262626; stroke: #262626"/>
      </g>
     </g>
     <g id="text_9">
      <!-- −0.4 -->
      <g style="fill: #262626" transform="translate(20.209 224.98287) scale(0.088 -0.088)">
       <use xlink:href="#ArialMT-2212"/>
       <use xlink:href="#ArialMT-30" x="58.398438"/>
       <use xlink:href="#ArialMT-2e" x="114.013672"/>
       <use xlink:href="#ArialMT-34" x="141.796875"/>
      </g>
     </g>
    </g>
    <g id="ytick_3">
     <g id="line2d_9">
      <g>
       <use xlink:href="#m21271a31bb" x="45.88075" y="187.940713" style="fill: #262626; stroke: #262626"/>
      </g>
     </g>
     <g id="text_10">
      <!-- −0.2 -->
      <g style="fill: #262626" transform="translate(20.209 191.090151) scale(0.088 -0.088)">
       <use xlink:href="#ArialMT-2212"/>
       <use xlink:href="#ArialMT-30" x="58.398438"/>
       <use xlink:href="#ArialMT-2e" x="114.013672"/>
       <use xlink:href="#ArialMT-32" x="141.796875"/>
      </g>
     </g>
    </g>
    <g id="ytick_4">
     <g id="line2d_10">
      <g>
       <use xlink:href="#m21271a31bb" x="45.88075" y="154.047994" style="fill: #262626; stroke: #262626"/>
      </g>
     </g>
     <g id="text_11">
      <!-- 0.0 -->
      <g style="fill: #262626" transform="translate(25.34875 157.197432) scale(0.088 -0.088)">
       <use xlink:href="#ArialMT-30"/>
       <use xlink:href="#ArialMT-2e" x="55.615234"/>
       <use xlink:href="#ArialMT-30" x="83.398438"/>
      </g>
     </g>
    </g>
    <g id="ytick_5">
     <g id="line2d_11">
      <g>
       <use xlink:href="#m21271a31bb" x="45.88075" y="120.155275" style="fill: #262626; stroke: #262626"/>
      </g>
     </g>
     <g id="text_12">
      <!-- 0.2 -->
      <g style="fill: #262626" transform="translate(25.34875 123.304713) scale(0.088 -0.088)">
       <use xlink:href="#ArialMT-30"/>
       <use xlink:href="#ArialMT-2e" x="55.615234"/>
       <use xlink:href="#ArialMT-32" x="83.398438"/>
      </g>
     </g>
    </g>
    <g id="ytick_6">
     <g id="line2d_12">
      <g>
       <use xlink:href="#m21271a31bb" x="45.88075" y="86.262557" style="fill: #262626; stroke: #262626"/>
      </g>
     </g>
     <g id="text_13">
      <!-- 0.4 -->
      <g style="fill: #262626" transform="translate(25.34875 89.411994) scale(0.088 -0.088)">
       <use xlink:href="#ArialMT-30"/>
       <use xlink:href="#ArialMT-2e" x="55.615234"/>
       <use xlink:href="#ArialMT-34" x="83.398438"/>
      </g>
     </g>
    </g>
    <g id="ytick_7">
     <g id="line2d_13">
      <g>
       <use xlink:href="#m21271a31bb" x="45.88075" y="52.369838" style="fill: #262626; stroke: #262626"/>
      </g>
     </g>
     <g id="text_14">
      <!-- 0.6 -->
      <g style="fill: #262626" transform="translate(25.34875 55.519275) scale(0.088 -0.088)">
       <use xlink:href="#ArialMT-30"/>
       <use xlink:href="#ArialMT-2e" x="55.615234"/>
       <use xlink:href="#ArialMT-36" x="83.398438"/>
      </g>
     </g>
    </g>
    <g id="ytick_8">
     <g id="line2d_14">
      <g>
       <use xlink:href="#m21271a31bb" x="45.88075" y="18.477119" style="fill: #262626; stroke: #262626"/>
      </g>
     </g>
     <g id="text_15">
      <!-- 0.8 -->
      <g style="fill: #262626" transform="translate(25.34875 21.626556) scale(0.088 -0.088)">
       <defs>
        <path id="ArialMT-38" d="M 1131 2484 
Q 781 2613 612 2850 
Q 444 3088 444 3419 
Q 444 3919 803 4259 
Q 1163 4600 1759 4600 
Q 2359 4600 2725 4251 
Q 3091 3903 3091 3403 
Q 3091 3084 2923 2848 
Q 2756 2613 2416 2484 
Q 2838 2347 3058 2040 
Q 3278 1734 3278 1309 
Q 3278 722 2862 322 
Q 2447 -78 1769 -78 
Q 1091 -78 675 323 
Q 259 725 259 1325 
Q 259 1772 486 2073 
Q 713 2375 1131 2484 
z
M 1019 3438 
Q 1019 3113 1228 2906 
Q 1438 2700 1772 2700 
Q 2097 2700 2305 2904 
Q 2513 3109 2513 3406 
Q 2513 3716 2298 3927 
Q 2084 4138 1766 4138 
Q 1444 4138 1231 3931 
Q 1019 3725 1019 3438 
z
M 838 1322 
Q 838 1081 952 856 
Q 1066 631 1291 507 
Q 1516 384 1775 384 
Q 2178 384 2440 643 
Q 2703 903 2703 1303 
Q 2703 1709 2433 1975 
Q 2163 2241 1756 2241 
Q 1359 2241 1098 1978 
Q 838 1716 838 1322 
z
" transform="scale(0.015625)"/>
       </defs>
       <use xlink:href="#ArialMT-30"/>
       <use xlink:href="#ArialMT-2e" x="55.615234"/>
       <use xlink:href="#ArialMT-38" x="83.398438"/>
      </g>
     </g>
    </g>
    <g id="text_16">
     <!-- v(t) -->
     <g style="fill: #262626" transform="translate(14.1885 147.186) rotate(-90) scale(0.096 -0.096)">
      <defs>
       <path id="ArialMT-76" d="M 1344 0 
L 81 3319 
L 675 3319 
L 1388 1331 
Q 1503 1009 1600 663 
Q 1675 925 1809 1294 
L 2547 3319 
L 3125 3319 
L 1869 0 
L 1344 0 
z
" transform="scale(0.015625)"/>
       <path id="ArialMT-28" d="M 1497 -1347 
Q 1031 -759 709 28 
Q 388 816 388 1659 
Q 388 2403 628 3084 
Q 909 3875 1497 4659 
L 1900 4659 
Q 1522 4009 1400 3731 
Q 1209 3300 1100 2831 
Q 966 2247 966 1656 
Q 966 153 1900 -1347 
L 1497 -1347 
z
" transform="scale(0.015625)"/>
       <path id="ArialMT-29" d="M 791 -1347 
L 388 -1347 
Q 1322 153 1322 1656 
Q 1322 2244 1188 2822 
Q 1081 3291 891 3722 
Q 769 4003 388 4659 
L 791 4659 
Q 1378 3875 1659 3084 
Q 1900 2403 1900 1659 
Q 1900 816 1576 28 
Q 1253 -759 791 -1347 
z
" transform="scale(0.015625)"/>
      </defs>
      <use xlink:href="#ArialMT-76"/>
      <use xlink:href="#ArialMT-28" x="50"/>
      <use xlink:href="#ArialMT-74" x="83.300781"/>
      <use xlink:href="#ArialMT-29" x="111.083984"/>
     </g>
    </g>
   </g>
   <g id="PolyCollection_1">
    <defs>
     <path id="mc503e24998" d="M 62.113477 -155.591381 
L 62.113477 -155.591381 
L 63.744907 -157.000834 
L 65.376337 -158.405001 
L 67.007767 -159.802133 
L 68.639197 -161.190486 
L 70.270627 -162.568333 
L 71.902057 -163.933956 
L 73.533486 -165.285644 
L 75.164916 -166.621702 
L 76.796346 -167.940448 
L 78.427776 -169.240217 
L 80.059206 -170.519355 
L 81.690636 -171.776219 
L 83.322066 -173.009188 
L 84.953496 -174.216659 
L 86.584925 -175.397033 
L 88.216355 -176.548732 
L 89.847785 -177.670194 
L 91.479215 -178.75988 
L 93.110645 -179.816242 
L 94.742075 -180.83776 
L 96.373505 -181.822931 
L 98.004935 -182.770261 
L 99.636364 -183.678251 
L 101.267794 -184.545442 
L 102.899224 -185.370365 
L 104.530654 -186.151565 
L 106.162084 -186.887592 
L 107.793514 -187.577015 
L 109.424944 -188.218404 
L 111.056374 -188.81034 
L 112.687803 -189.351411 
L 114.319233 -189.840202 
L 115.950663 -190.275327 
L 117.582093 -190.655398 
L 119.213523 -190.979044 
L 120.844953 -191.24489 
L 122.476383 -191.4516 
L 124.107813 -191.597837 
L 125.739242 -191.682283 
L 127.370672 -191.703651 
L 129.002102 -191.66067 
L 130.633532 -191.552098 
L 132.264962 -191.376733 
L 133.896392 -191.133415 
L 135.527822 -190.821001 
L 137.159252 -190.438443 
L 138.790681 -189.984717 
L 140.422111 -189.458883 
L 142.053541 -188.860046 
L 143.684971 -188.187425 
L 145.316401 -187.440316 
L 146.947831 -186.618132 
L 148.579261 -185.720379 
L 150.210691 -184.746708 
L 151.84212 -183.696907 
L 153.47355 -182.570911 
L 155.10498 -181.368828 
L 156.73641 -180.090943 
L 158.36784 -178.737734 
L 159.99927 -177.309893 
L 161.6307 -175.808323 
L 163.26213 -174.234161 
L 164.89356 -172.588776 
L 166.524989 -170.873771 
L 168.156419 -169.091025 
L 169.787849 -167.24263 
L 171.419279 -165.330932 
L 173.050709 -163.358528 
L 174.682139 -161.328216 
L 176.313569 -159.243056 
L 177.944999 -157.106263 
L 179.576428 -154.921261 
L 181.207858 -152.691634 
L 182.839288 -150.421106 
L 184.470718 -148.113526 
L 186.102148 -145.772826 
L 187.733578 -143.40304 
L 189.365008 -141.008225 
L 190.996438 -138.592457 
L 192.627867 -136.159817 
L 194.259297 -133.714354 
L 195.890727 -131.260072 
L 197.522157 -128.800887 
L 199.153587 -126.340636 
L 200.785017 -123.883036 
L 202.416447 -121.431666 
L 204.047877 -118.989968 
L 205.679306 -116.561186 
L 207.310736 -114.148477 
L 208.942166 -111.754727 
L 210.573596 -109.382671 
L 212.205026 -107.034853 
L 213.836456 -104.713609 
L 215.467886 -102.421067 
L 217.099316 -100.159211 
L 218.730745 -97.929774 
L 220.362175 -95.734361 
L 221.993605 -93.574372 
L 223.625035 -91.451069 
L 225.256465 -89.365553 
L 226.887895 -87.318815 
L 228.519325 -85.311712 
L 230.150755 -83.345002 
L 231.782184 -81.419402 
L 233.413614 -79.535524 
L 235.045044 -77.694008 
L 236.676474 -75.895427 
L 238.307904 -74.140415 
L 239.939334 -72.429594 
L 241.570764 -70.763686 
L 243.202194 -69.143454 
L 244.833623 -67.569818 
L 246.465053 -66.043756 
L 248.096483 -64.566421 
L 249.727913 -63.139125 
L 251.359343 -61.763343 
L 252.990773 -60.440752 
L 254.622203 -59.17321 
L 256.253633 -57.962738 
L 257.885062 -56.811609 
L 259.516492 -55.722266 
L 261.147922 -54.697296 
L 262.779352 -53.739445 
L 264.410782 -52.851594 
L 266.042212 -52.03669 
L 267.673642 -51.297704 
L 269.305072 -50.637545 
L 270.936501 -50.05901 
L 272.567931 -49.564727 
L 274.199361 -49.157028 
L 275.830791 -48.837801 
L 277.462221 -48.608553 
L 279.093651 -48.470263 
L 280.725081 -48.423375 
L 282.356511 -48.46793 
L 283.98794 -48.603503 
L 285.61937 -48.829701 
L 287.2508 -49.146189 
L 288.88223 -49.553242 
L 290.51366 -50.05193 
L 292.14509 -50.644535 
L 293.77652 -51.334723 
L 295.40795 -52.127527 
L 297.03938 -53.029368 
L 298.670809 -54.047783 
L 300.302239 -55.191286 
L 301.933669 -56.468828 
L 303.565099 -57.889689 
L 305.196529 -59.463144 
L 306.827959 -61.198182 
L 308.459389 -63.103257 
L 310.090819 -65.186136 
L 311.722248 -67.453709 
L 313.353678 -69.911914 
L 314.985108 -72.56547 
L 316.616538 -75.417855 
L 318.247968 -78.471185 
L 319.879398 -81.726144 
L 321.510828 -85.181835 
L 323.142258 -88.835745 
L 324.773687 -92.683778 
L 326.405117 -96.72014 
L 328.036547 -100.937373 
L 329.667977 -105.326385 
L 331.299407 -109.87647 
L 332.930837 -114.575398 
L 334.562267 -119.40952 
L 336.193697 -124.363891 
L 337.825126 -129.422393 
L 339.456556 -134.567869 
L 341.087986 -139.782422 
L 342.719416 -145.047516 
L 344.350846 -150.344188 
L 345.982276 -155.653225 
L 347.613706 -160.955541 
L 349.245136 -166.232375 
L 350.876565 -171.46503 
L 352.507995 -176.635772 
L 354.139425 -181.727637 
L 355.770855 -186.724635 
L 357.402285 -191.611905 
L 359.033715 -196.375784 
L 360.665145 -201.00406 
L 362.296575 -205.485929 
L 363.928004 -209.812023 
L 365.559434 -213.974539 
L 367.190864 -217.967099 
L 368.822294 -221.784905 
L 370.453724 -225.424558 
L 372.085154 -228.884103 
L 373.716584 -232.162859 
L 375.348014 -235.261355 
L 376.979443 -238.18132 
L 378.610873 -240.92554 
L 380.242303 -243.497683 
L 381.873733 -245.902253 
L 383.505163 -248.144564 
L 385.136593 -250.230514 
L 386.768023 -252.166528 
L 386.768023 -290.343375 
L 386.768023 -290.343375 
L 385.136593 -289.239285 
L 383.505163 -288.064833 
L 381.873733 -286.812523 
L 380.242303 -285.474296 
L 378.610873 -284.041465 
L 376.979443 -282.504999 
L 375.348014 -280.855556 
L 373.716584 -279.083539 
L 372.085154 -277.179283 
L 370.453724 -275.133241 
L 368.822294 -272.93601 
L 367.190864 -270.5785 
L 365.559434 -268.052073 
L 363.928004 -265.348761 
L 362.296575 -262.461442 
L 360.665145 -259.383804 
L 359.033715 -256.110665 
L 357.402285 -252.638115 
L 355.770855 -248.963609 
L 354.139425 -245.086127 
L 352.507995 -241.006236 
L 350.876565 -236.726287 
L 349.245136 -232.250438 
L 347.613706 -227.584608 
L 345.982276 -222.736897 
L 344.350846 -217.717018 
L 342.719416 -212.536668 
L 341.087986 -207.209355 
L 339.456556 -201.750313 
L 337.825126 -196.176351 
L 336.193697 -190.505709 
L 334.562267 -184.757965 
L 332.930837 -178.953756 
L 331.299407 -173.114527 
L 329.667977 -167.262341 
L 328.036547 -161.419726 
L 326.405117 -155.609315 
L 324.773687 -149.853591 
L 323.142258 -144.174674 
L 321.510828 -138.594202 
L 319.879398 -133.132978 
L 318.247968 -127.81085 
L 316.616538 -122.646459 
L 314.985108 -117.657274 
L 313.353678 -112.859317 
L 311.722248 -108.267127 
L 310.090819 -103.893705 
L 308.459389 -99.750451 
L 306.827959 -95.847263 
L 305.196529 -92.192328 
L 303.565099 -88.792261 
L 301.933669 -85.652028 
L 300.302239 -82.774916 
L 298.670809 -80.162517 
L 297.03938 -77.814698 
L 295.40795 -75.729298 
L 293.77652 -73.902252 
L 292.14509 -72.327429 
L 290.51366 -70.996636 
L 288.88223 -69.899703 
L 287.2508 -69.024739 
L 285.61937 -68.35854 
L 283.98794 -67.886933 
L 282.356511 -67.595363 
L 280.725081 -67.469234 
L 279.093651 -67.494486 
L 277.462221 -67.657685 
L 275.830791 -67.946407 
L 274.199361 -68.349288 
L 272.567931 -68.856015 
L 270.936501 -69.457408 
L 269.305072 -70.145294 
L 267.673642 -70.912481 
L 266.042212 -71.752642 
L 264.410782 -72.660286 
L 262.779352 -73.630621 
L 261.147922 -74.65948 
L 259.516492 -75.743298 
L 257.885062 -76.878989 
L 256.253633 -78.063951 
L 254.622203 -79.295917 
L 252.990773 -80.572969 
L 251.359343 -81.893514 
L 249.727913 -83.25621 
L 248.096483 -84.659896 
L 246.465053 -86.103595 
L 244.833623 -87.586507 
L 243.202194 -89.107892 
L 241.570764 -90.667185 
L 239.939334 -92.263801 
L 238.307904 -93.89723 
L 236.676474 -95.56697 
L 235.045044 -97.272534 
L 233.413614 -99.013384 
L 231.782184 -100.788992 
L 230.150755 -102.598685 
L 228.519325 -104.441811 
L 226.887895 -106.317583 
L 225.256465 -108.225153 
L 223.625035 -110.16355 
L 221.993605 -112.131695 
L 220.362175 -114.128384 
L 218.730745 -116.152297 
L 217.099316 -118.201988 
L 215.467886 -120.275855 
L 213.836456 -122.372209 
L 212.205026 -124.489176 
L 210.573596 -126.624797 
L 208.942166 -128.776953 
L 207.310736 -130.943424 
L 205.679306 -133.121855 
L 204.047877 -135.309819 
L 202.416447 -137.504708 
L 200.785017 -139.703896 
L 199.153587 -141.904638 
L 197.522157 -144.104135 
L 195.890727 -146.299506 
L 194.259297 -148.487828 
L 192.627867 -150.666142 
L 190.996438 -152.831455 
L 189.365008 -154.980756 
L 187.733578 -157.111032 
L 186.102148 -159.219281 
L 184.470718 -161.302515 
L 182.839288 -163.35775 
L 181.207858 -165.382066 
L 179.576428 -167.372572 
L 177.944999 -169.326429 
L 176.313569 -171.24086 
L 174.682139 -173.113142 
L 173.050709 -174.940643 
L 171.419279 -176.720768 
L 169.787849 -178.451043 
L 168.156419 -180.129056 
L 166.524989 -181.7525 
L 164.89356 -183.319172 
L 163.26213 -184.826959 
L 161.6307 -186.273871 
L 159.99927 -187.658034 
L 158.36784 -188.977706 
L 156.73641 -190.23127 
L 155.10498 -191.417247 
L 153.47355 -192.534307 
L 151.84212 -193.581274 
L 150.210691 -194.557112 
L 148.579261 -195.460951 
L 146.947831 -196.292059 
L 145.316401 -197.04987 
L 143.684971 -197.733975 
L 142.053541 -198.3441 
L 140.422111 -198.88012 
L 138.790681 -199.342036 
L 137.159252 -199.730018 
L 135.527822 -200.04433 
L 133.896392 -200.285356 
L 132.264962 -200.45359 
L 130.633532 -200.549639 
L 129.002102 -200.574189 
L 127.370672 -200.528033 
L 125.739242 -200.412025 
L 124.107813 -200.2271 
L 122.476383 -199.974256 
L 120.844953 -199.65455 
L 119.213523 -199.269103 
L 117.582093 -198.819061 
L 115.950663 -198.305641 
L 114.319233 -197.730087 
L 112.687803 -197.093687 
L 111.056374 -196.397751 
L 109.424944 -195.643642 
L 107.793514 -194.832745 
L 106.162084 -193.966461 
L 104.530654 -193.046247 
L 102.899224 -192.073556 
L 101.267794 -191.049888 
L 99.636364 -189.976778 
L 98.004935 -188.855776 
L 96.373505 -187.688455 
L 94.742075 -186.476435 
L 93.110645 -185.221351 
L 91.479215 -183.924863 
L 89.847785 -182.588676 
L 88.216355 -181.214528 
L 86.584925 -179.804171 
L 84.953496 -178.359393 
L 83.322066 -176.882015 
L 81.690636 -175.373898 
L 80.059206 -173.836918 
L 78.427776 -172.272985 
L 76.796346 -170.684047 
L 75.164916 -169.072072 
L 73.533486 -167.439055 
L 71.902057 -165.787019 
L 70.270627 -164.11801 
L 68.639197 -162.434095 
L 67.007767 -160.737364 
L 65.376337 -159.029917 
L 63.744907 -157.313878 
L 62.113477 -155.591381 
z
" style="stroke: #ffffff; stroke-opacity: 0.5; stroke-width: 0.8"/>
    </defs>
    <g clip-path="url(#p69c8b704ab)">
     <use xlink:href="#mc503e24998" x="0" y="309.639375" style="fill: #1f77b4; fill-opacity: 0.5; stroke: #ffffff; stroke-opacity: 0.5; stroke-width: 0.8"/>
    </g>
   </g>
   <g id="line2d_15">
    <path d="M 62.113477 154.047994 
L 71.902057 144.778887 
L 78.427776 138.882774 
L 83.322066 134.693773 
L 88.216355 130.757744 
L 93.110645 127.120579 
L 98.004935 123.826356 
L 101.267794 121.84171 
L 104.530654 120.040469 
L 107.793514 118.434495 
L 111.056374 117.035329 
L 114.319233 115.854231 
L 117.582093 114.902145 
L 120.844953 114.189654 
L 124.107813 113.726905 
L 127.370672 113.523533 
L 130.633532 113.588506 
L 133.896392 113.92999 
L 137.159252 114.555144 
L 140.422111 115.469874 
L 143.684971 116.678675 
L 146.947831 118.18428 
L 150.210691 119.987465 
L 153.47355 122.086766 
L 156.73641 124.478268 
L 159.99927 127.155412 
L 163.26213 130.108815 
L 166.524989 133.32624 
L 169.787849 136.792538 
L 174.682139 142.418696 
L 179.576428 148.492458 
L 184.470718 154.931354 
L 190.996438 163.927419 
L 215.467886 198.290913 
L 221.993605 206.786342 
L 226.887895 212.821176 
L 231.782184 218.535178 
L 236.676474 223.908177 
L 241.570764 228.923939 
L 246.465053 233.565699 
L 251.359343 237.810947 
L 254.622203 240.404811 
L 257.885062 242.794079 
L 261.147922 244.960987 
L 264.410782 246.883435 
L 267.673642 248.534282 
L 270.936501 249.881166 
L 274.199361 250.886217 
L 277.462221 251.506256 
L 279.093651 251.657001 
L 280.725081 251.693071 
L 282.356511 251.607729 
L 283.98794 251.394157 
L 285.61937 251.045255 
L 287.2508 250.553911 
L 288.88223 249.912903 
L 290.51366 249.115089 
L 292.14509 248.153391 
L 293.77652 247.020887 
L 295.40795 245.710963 
L 297.03938 244.217345 
L 298.670809 242.534225 
L 300.302239 240.656271 
L 301.933669 238.578947 
L 303.565099 236.2984 
L 305.196529 233.811639 
L 308.459389 228.212519 
L 311.722248 221.778955 
L 314.985108 214.528002 
L 318.247968 206.498357 
L 321.510828 197.751357 
L 324.773687 188.37069 
L 329.667977 173.345011 
L 336.193697 152.204576 
L 344.350846 125.608772 
L 349.245136 110.397969 
L 352.507995 100.818369 
L 355.770855 91.795253 
L 359.033715 83.396151 
L 362.296575 75.665687 
L 365.559434 68.626069 
L 368.822294 62.278917 
L 372.085154 56.607682 
L 375.348014 51.580919 
L 378.610873 47.155872 
L 381.873733 43.281987 
L 385.136593 39.904475 
L 386.768023 38.384424 
L 386.768023 38.384424 
" clip-path="url(#p69c8b704ab)" style="fill: none; stroke: #1f77b4; stroke-width: 1.2; stroke-linecap: round"/>
   </g>
   <g id="patch_3">
    <path d="M 45.88075 255.726151 
L 45.88075 18.477119 
" style="fill: none; stroke: #262626; stroke-linejoin: miter; stroke-linecap: square"/>
   </g>
   <g id="patch_4">
    <path d="M 62.113477 273.312 
L 388.23631 273.312 
" style="fill: none; stroke: #262626; stroke-linejoin: miter; stroke-linecap: square"/>
   </g>
  </g>
 </g>
 <defs>
  <clipPath id="p69c8b704ab">
   <rect x="45.88075" y="7.2" width="357.12" height="266.112"/>
  </clipPath>
 </defs>
</svg>