<?xml version="1.0" encoding="utf-8" standalone="no"?>
<!DOCTYPE svg PUBLIC "-//W3C//DTD SVG 1.1//EN"
  "http://www.w3.org/Graphics/SVG/1.1/DTD/svg11.dtd">
<svg xmlns:xlink="http://www.w3.org/1999/xlink" width="403.165375pt" height="313.008247pt" viewBox="0 0 403.165375 313.008247" xmlns="http://www.w3.org/2000/svg" version="1.1">
 <metadata>
  <rdf:RDF xmlns:dc="http://purl.org/dc/elements/1.1/" xmlns:cc="http://creativecommons.org/ns#" xmlns:rdf="http://www.w3.org/1999/02/22-rdf-syntax-ns#">
   <cc:Work>
    <dc:type rdf:resource="http://purl.org/dc/dcmitype/StillImage"/>
    <dc:date>2023-12-28T11:57:59.621270</dc:date>
    <dc:format>image/svg+xml</dc:format>
    <dc:creator>
     <cc:Agent>
      <dc:title>Matplotlib v3.8.0, https://matplotlib.org/</dc:title>
     </cc:Agent>
    </dc:creator>
   </cc:Work>
  </rdf:RDF>
 </metadata>
 <defs>
  <style type="text/css">*{stroke-linejoin: round; stroke-linecap: butt}</style>
 </defs>
 <g id="figure_1">
  <g id="patch_1">
   <path d="M 0 313.008247 
L 403.165375 313.008247 
L 403.165375 0 
L 0 0 
z
" style="fill: #ffffff"/>
  </g>
  <g id="axes_1">
   <g id="patch_2">
    <path d="M 38.845375 276.148372 
L 395.965375 276.148372 
L 395.965375 10.036372 
L 38.845375 10.036372 
z
" style="fill: #ffffff"/>
   </g>
   <g id="matplotlib.axis_1">
    <g id="xtick_1">
     <g id="line2d_1">
      <defs>
       <path id="m72a3944cf7" d="M 0 0 
L 0 4.8 
" style="stroke: #262626"/>
      </defs>
      <g>
       <use xlink:href="#m72a3944cf7" x="55.078102" y="276.148372" style="fill: #262626; stroke: #262626"/>
      </g>
     </g>
     <g id="text_1">
      <!-- −3 -->
      <g style="fill: #262626" transform="translate(50.061415 290.747247) scale(0.088 -0.088)">
       <defs>
        <path id="ArialMT-2212" d="M 3381 1997 
L 356 1997 
L 356 2522 
L 3381 2522 
L 3381 1997 
z
" transform="scale(0.015625)"/>
        <path id="ArialMT-33" d="M 269 1209 
L 831 1284 
Q 928 806 1161 595 
Q 1394 384 1728 384 
Q 2125 384 2398 659 
Q 2672 934 2672 1341 
Q 2672 1728 2419 1979 
Q 2166 2231 1775 2231 
Q 1616 2231 1378 2169 
L 1441 2663 
Q 1497 2656 1531 2656 
Q 1891 2656 2178 2843 
Q 2466 3031 2466 3422 
Q 2466 3731 2256 3934 
Q 2047 4138 1716 4138 
Q 1388 4138 1169 3931 
Q 950 3725 888 3313 
L 325 3413 
Q 428 3978 793 4289 
Q 1159 4600 1703 4600 
Q 2078 4600 2393 4439 
Q 2709 4278 2876 4000 
Q 3044 3722 3044 3409 
Q 3044 3113 2884 2869 
Q 2725 2625 2413 2481 
Q 2819 2388 3044 2092 
Q 3269 1797 3269 1353 
Q 3269 753 2831 336 
Q 2394 -81 1725 -81 
Q 1122 -81 723 278 
Q 325 638 269 1209 
z
" transform="scale(0.015625)"/>
       </defs>
       <use xlink:href="#ArialMT-2212"/>
       <use xlink:href="#ArialMT-33" x="58.398438"/>
      </g>
     </g>
    </g>
    <g id="xtick_2">
     <g id="line2d_2">
      <g>
       <use xlink:href="#m72a3944cf7" x="109.187193" y="276.148372" style="fill: #262626; stroke: #262626"/>
      </g>
     </g>
     <g id="text_2">
      <!-- −2 -->
      <g style="fill: #262626" transform="translate(104.170506 290.747247) scale(0.088 -0.088)">
       <defs>
        <path id="ArialMT-32" d="M 3222 541 
L 3222 0 
L 194 0 
Q 188 203 259 391 
Q 375 700 629 1000 
Q 884 1300 1366 1694 
Q 2113 2306 2375 2664 
Q 2638 3022 2638 3341 
Q 2638 3675 2398 3904 
Q 2159 4134 1775 4134 
Q 1369 4134 1125 3890 
Q 881 3647 878 3216 
L 300 3275 
Q 359 3922 746 4261 
Q 1134 4600 1788 4600 
Q 2447 4600 2831 4234 
Q 3216 3869 3216 3328 
Q 3216 3053 3103 2787 
Q 2991 2522 2730 2228 
Q 2469 1934 1863 1422 
Q 1356 997 1212 845 
Q 1069 694 975 541 
L 3222 541 
z
" transform="scale(0.015625)"/>
       </defs>
       <use xlink:href="#ArialMT-2212"/>
       <use xlink:href="#ArialMT-32" x="58.398438"/>
      </g>
     </g>
    </g>
    <g id="xtick_3">
     <g id="line2d_3">
      <g>
       <use xlink:href="#m72a3944cf7" x="163.296284" y="276.148372" style="fill: #262626; stroke: #262626"/>
      </g>
     </g>
     <g id="text_3">
      <!-- −1 -->
      <g style="fill: #262626" transform="translate(158.279597 290.747247) scale(0.088 -0.088)">
       <defs>
        <path id="ArialMT-31" d="M 2384 0 
L 1822 0 
L 1822 3584 
Q 1619 3391 1289 3197 
Q 959 3003 697 2906 
L 697 3450 
Q 1169 3672 1522 3987 
Q 1875 4303 2022 4600 
L 2384 4600 
L 2384 0 
z
" transform="scale(0.015625)"/>
       </defs>
       <use xlink:href="#ArialMT-2212"/>
       <use xlink:href="#ArialMT-31" x="58.398438"/>
      </g>
     </g>
    </g>
    <g id="xtick_4">
     <g id="line2d_4">
      <g>
       <use xlink:href="#m72a3944cf7" x="217.405375" y="276.148372" style="fill: #262626; stroke: #262626"/>
      </g>
     </g>
     <g id="text_4">
      <!-- 0 -->
      <g style="fill: #262626" transform="translate(214.958563 290.747247) scale(0.088 -0.088)">
       <defs>
        <path id="ArialMT-30" d="M 266 2259 
Q 266 3072 433 3567 
Q 600 4063 929 4331 
Q 1259 4600 1759 4600 
Q 2128 4600 2406 4451 
Q 2684 4303 2865 4023 
Q 3047 3744 3150 3342 
Q 3253 2941 3253 2259 
Q 3253 1453 3087 958 
Q 2922 463 2592 192 
Q 2263 -78 1759 -78 
Q 1097 -78 719 397 
Q 266 969 266 2259 
z
M 844 2259 
Q 844 1131 1108 757 
Q 1372 384 1759 384 
Q 2147 384 2411 759 
Q 2675 1134 2675 2259 
Q 2675 3391 2411 3762 
Q 2147 4134 1753 4134 
Q 1366 4134 1134 3806 
Q 844 3388 844 2259 
z
" transform="scale(0.015625)"/>
       </defs>
       <use xlink:href="#ArialMT-30"/>
      </g>
     </g>
    </g>
    <g id="xtick_5">
     <g id="line2d_5">
      <g>
       <use xlink:href="#m72a3944cf7" x="271.514466" y="276.148372" style="fill: #262626; stroke: #262626"/>
      </g>
     </g>
     <g id="text_5">
      <!-- 1 -->
      <g style="fill: #262626" transform="translate(269.067653 290.747247) scale(0.088 -0.088)">
       <use xlink:href="#ArialMT-31"/>
      </g>
     </g>
    </g>
    <g id="xtick_6">
     <g id="line2d_6">
      <g>
       <use xlink:href="#m72a3944cf7" x="325.623557" y="276.148372" style="fill: #262626; stroke: #262626"/>
      </g>
     </g>
     <g id="text_6">
      <!-- 2 -->
      <g style="fill: #262626" transform="translate(323.176744 290.747247) scale(0.088 -0.088)">
       <use xlink:href="#ArialMT-32"/>
      </g>
     </g>
    </g>
    <g id="xtick_7">
     <g id="line2d_7">
      <g>
       <use xlink:href="#m72a3944cf7" x="379.732648" y="276.148372" style="fill: #262626; stroke: #262626"/>
      </g>
     </g>
     <g id="text_7">
      <!-- 3 -->
      <g style="fill: #262626" transform="translate(377.285835 290.747247) scale(0.088 -0.088)">
       <use xlink:href="#ArialMT-33"/>
      </g>
     </g>
    </g>
    <g id="text_8">
     <!-- $\xi$ -->
     <g style="fill: #262626" transform="translate(214.717375 303.792247) scale(0.096 -0.096)">
      <defs>
       <path id="DejaVuSans-Oblique-3be" d="M 2016 397 
Q 2428 394 2628 159 
Q 2844 -88 2772 -463 
Q 2700 -822 2422 -1072 
Q 2119 -1344 1609 -1344 
Q 1656 -1109 1700 -872 
Q 1913 -888 2072 -750 
Q 2194 -641 2216 -525 
Q 2247 -359 2175 -222 
Q 2100 -91 1922 -91 
Q -25 -91 241 1275 
Q 422 2213 1516 2488 
Q 663 2600 822 3413 
Q 941 4028 1678 4284 
L 1028 4284 
L 1141 4863 
L 3606 4863 
L 3494 4284 
Q 1528 4284 1350 3375 
Q 1234 2778 2881 2750 
L 2778 2219 
Q 1009 2288 819 1275 
Q 659 428 2016 397 
z
" transform="scale(0.015625)"/>
      </defs>
      <use xlink:href="#DejaVuSans-Oblique-3be" transform="translate(0 0.015625)"/>
     </g>
    </g>
   </g>
   <g id="matplotlib.axis_2">
    <g id="ytick_1">
     <g id="line2d_8">
      <defs>
       <path id="ma73916a766" d="M 0 0 
L -4.8 0 
" style="stroke: #262626"/>
      </defs>
      <g>
       <use xlink:href="#ma73916a766" x="38.845375" y="275.835409" style="fill: #262626; stroke: #262626"/>
      </g>
     </g>
     <g id="text_9">
      <!-- −8 -->
      <g style="fill: #262626" transform="translate(20.512 278.984847) scale(0.088 -0.088)">
       <defs>
        <path id="ArialMT-38" d="M 1131 2484 
Q 781 2613 612 2850 
Q 444 3088 444 3419 
Q 444 3919 803 4259 
Q 1163 4600 1759 4600 
Q 2359 4600 2725 4251 
Q 3091 3903 3091 3403 
Q 3091 3084 2923 2848 
Q 2756 2613 2416 2484 
Q 2838 2347 3058 2040 
Q 3278 1734 3278 1309 
Q 3278 722 2862 322 
Q 2447 -78 1769 -78 
Q 1091 -78 675 323 
Q 259 725 259 1325 
Q 259 1772 486 2073 
Q 713 2375 1131 2484 
z
M 1019 3438 
Q 1019 3113 1228 2906 
Q 1438 2700 1772 2700 
Q 2097 2700 2305 2904 
Q 2513 3109 2513 3406 
Q 2513 3716 2298 3927 
Q 2084 4138 1766 4138 
Q 1444 4138 1231 3931 
Q 1019 3725 1019 3438 
z
M 838 1322 
Q 838 1081 952 856 
Q 1066 631 1291 507 
Q 1516 384 1775 384 
Q 2178 384 2440 643 
Q 2703 903 2703 1303 
Q 2703 1709 2433 1975 
Q 2163 2241 1756 2241 
Q 1359 2241 1098 1978 
Q 838 1716 838 1322 
z
" transform="scale(0.015625)"/>
       </defs>
       <use xlink:href="#ArialMT-2212"/>
       <use xlink:href="#ArialMT-38" x="58.398438"/>
      </g>
     </g>
    </g>
    <g id="ytick_2">
     <g id="line2d_9">
      <g>
       <use xlink:href="#ma73916a766" x="38.845375" y="242.649663" style="fill: #262626; stroke: #262626"/>
      </g>
     </g>
     <g id="text_10">
      <!-- −6 -->
      <g style="fill: #262626" transform="translate(20.512 245.7991) scale(0.088 -0.088)">
       <defs>
        <path id="ArialMT-36" d="M 3184 3459 
L 2625 3416 
Q 2550 3747 2413 3897 
Q 2184 4138 1850 4138 
Q 1581 4138 1378 3988 
Q 1113 3794 959 3422 
Q 806 3050 800 2363 
Q 1003 2672 1297 2822 
Q 1591 2972 1913 2972 
Q 2475 2972 2870 2558 
Q 3266 2144 3266 1488 
Q 3266 1056 3080 686 
Q 2894 316 2569 119 
Q 2244 -78 1831 -78 
Q 1128 -78 684 439 
Q 241 956 241 2144 
Q 241 3472 731 4075 
Q 1159 4600 1884 4600 
Q 2425 4600 2770 4297 
Q 3116 3994 3184 3459 
z
M 888 1484 
Q 888 1194 1011 928 
Q 1134 663 1356 523 
Q 1578 384 1822 384 
Q 2178 384 2434 671 
Q 2691 959 2691 1453 
Q 2691 1928 2437 2201 
Q 2184 2475 1800 2475 
Q 1419 2475 1153 2201 
Q 888 1928 888 1484 
z
" transform="scale(0.015625)"/>
       </defs>
       <use xlink:href="#ArialMT-2212"/>
       <use xlink:href="#ArialMT-36" x="58.398438"/>
      </g>
     </g>
    </g>
    <g id="ytick_3">
     <g id="line2d_10">
      <g>
       <use xlink:href="#ma73916a766" x="38.845375" y="209.463916" style="fill: #262626; stroke: #262626"/>
      </g>
     </g>
     <g id="text_11">
      <!-- −4 -->
      <g style="fill: #262626" transform="translate(20.512 212.613354) scale(0.088 -0.088)">
       <defs>
        <path id="ArialMT-34" d="M 2069 0 
L 2069 1097 
L 81 1097 
L 81 1613 
L 2172 4581 
L 2631 4581 
L 2631 1613 
L 3250 1613 
L 3250 1097 
L 2631 1097 
L 2631 0 
L 2069 0 
z
M 2069 1613 
L 2069 3678 
L 634 1613 
L 2069 1613 
z
" transform="scale(0.015625)"/>
       </defs>
       <use xlink:href="#ArialMT-2212"/>
       <use xlink:href="#ArialMT-34" x="58.398438"/>
      </g>
     </g>
    </g>
    <g id="ytick_4">
     <g id="line2d_11">
      <g>
       <use xlink:href="#ma73916a766" x="38.845375" y="176.27817" style="fill: #262626; stroke: #262626"/>
      </g>
     </g>
     <g id="text_12">
      <!-- −2 -->
      <g style="fill: #262626" transform="translate(20.512 179.427607) scale(0.088 -0.088)">
       <use xlink:href="#ArialMT-2212"/>
       <use xlink:href="#ArialMT-32" x="58.398438"/>
      </g>
     </g>
    </g>
    <g id="ytick_5">
     <g id="line2d_12">
      <g>
       <use xlink:href="#ma73916a766" x="38.845375" y="143.092423" style="fill: #262626; stroke: #262626"/>
      </g>
     </g>
     <g id="text_13">
      <!-- 0 -->
      <g style="fill: #262626" transform="translate(25.65175 146.241861) scale(0.088 -0.088)">
       <use xlink:href="#ArialMT-30"/>
      </g>
     </g>
    </g>
    <g id="ytick_6">
     <g id="line2d_13">
      <g>
       <use xlink:href="#ma73916a766" x="38.845375" y="109.906677" style="fill: #262626; stroke: #262626"/>
      </g>
     </g>
     <g id="text_14">
      <!-- 2 -->
      <g style="fill: #262626" transform="translate(25.65175 113.056114) scale(0.088 -0.088)">
       <use xlink:href="#ArialMT-32"/>
      </g>
     </g>
    </g>
    <g id="ytick_7">
     <g id="line2d_14">
      <g>
       <use xlink:href="#ma73916a766" x="38.845375" y="76.72093" style="fill: #262626; stroke: #262626"/>
      </g>
     </g>
     <g id="text_15">
      <!-- 4 -->
      <g style="fill: #262626" transform="translate(25.65175 79.870368) scale(0.088 -0.088)">
       <use xlink:href="#ArialMT-34"/>
      </g>
     </g>
    </g>
    <g id="ytick_8">
     <g id="line2d_15">
      <g>
       <use xlink:href="#ma73916a766" x="38.845375" y="43.535184" style="fill: #262626; stroke: #262626"/>
      </g>
     </g>
     <g id="text_16">
      <!-- 6 -->
      <g style="fill: #262626" transform="translate(25.65175 46.684621) scale(0.088 -0.088)">
       <use xlink:href="#ArialMT-36"/>
      </g>
     </g>
    </g>
    <g id="ytick_9">
     <g id="line2d_16">
      <g>
       <use xlink:href="#ma73916a766" x="38.845375" y="10.349437" style="fill: #262626; stroke: #262626"/>
      </g>
     </g>
     <g id="text_17">
      <!-- 8 -->
      <g style="fill: #262626" transform="translate(25.65175 13.498875) scale(0.088 -0.088)">
       <use xlink:href="#ArialMT-38"/>
      </g>
     </g>
    </g>
    <g id="text_18">
     <!-- $\phi_i(\xi)$ -->
     <g style="fill: #262626" transform="translate(14.496 153.748372) rotate(-90) scale(0.096 -0.096)">
      <defs>
       <path id="DejaVuSans-Oblique-3d5" d="M 2991 4863 
L 2738 3572 
Q 3363 3572 3684 3094 
Q 4016 2606 3850 1747 
Q 3681 888 3159 400 
Q 2653 -78 2028 -78 
L 1784 -1331 
L 1213 -1331 
L 1456 -78 
Q 834 -78 509 400 
Q 178 888 347 1747 
Q 513 2606 1034 3094 
Q 1544 3572 2166 3572 
L 2419 4863 
L 2991 4863 
z
M 2128 434 
Q 2481 434 2784 756 
Q 3116 1116 3244 1747 
Q 3369 2372 3169 2738 
Q 2991 3059 2638 3059 
L 2128 434 
z
M 1556 434 
L 2066 3059 
Q 1716 3059 1413 2738 
Q 1072 2372 953 1747 
Q 834 1116 1028 756 
Q 1203 434 1556 434 
z
" transform="scale(0.015625)"/>
       <path id="DejaVuSans-Oblique-69" d="M 1172 4863 
L 1747 4863 
L 1606 4134 
L 1031 4134 
L 1172 4863 
z
M 909 3500 
L 1484 3500 
L 800 0 
L 225 0 
L 909 3500 
z
" transform="scale(0.015625)"/>
       <path id="DejaVuSans-28" d="M 1984 4856 
Q 1566 4138 1362 3434 
Q 1159 2731 1159 2009 
Q 1159 1288 1364 580 
Q 1569 -128 1984 -844 
L 1484 -844 
Q 1016 -109 783 600 
Q 550 1309 550 2009 
Q 550 2706 781 3412 
Q 1013 4119 1484 4856 
L 1984 4856 
z
" transform="scale(0.015625)"/>
       <path id="DejaVuSans-29" d="M 513 4856 
L 1013 4856 
Q 1481 4119 1714 3412 
Q 1947 2706 1947 2009 
Q 1947 1309 1714 600 
Q 1481 -109 1013 -844 
L 513 -844 
Q 928 -128 1133 580 
Q 1338 1288 1338 2009 
Q 1338 2731 1133 3434 
Q 928 4138 513 4856 
z
" transform="scale(0.015625)"/>
      </defs>
      <use xlink:href="#DejaVuSans-Oblique-3d5" transform="translate(0 0.015625)"/>
      <use xlink:href="#DejaVuSans-Oblique-69" transform="translate(65.966797 -16.390625) scale(0.7)"/>
      <use xlink:href="#DejaVuSans-28" transform="translate(88.149414 0.015625)"/>
      <use xlink:href="#DejaVuSans-Oblique-3be" transform="translate(127.163086 0.015625)"/>
      <use xlink:href="#DejaVuSans-29" transform="translate(182.924805 0.015625)"/>
     </g>
    </g>
   </g>
   <g id="line2d_17">
    <path d="M 55.078102 126.991777 
L 58.357441 126.991777 
L 61.63678 126.991777 
L 64.916119 126.991777 
L 68.195458 126.991777 
L 71.474796 126.991777 
L 74.754135 126.991777 
L 78.033474 126.991777 
L 81.312813 126.991777 
L 84.592152 126.991777 
L 87.871491 126.991777 
L 91.15083 126.991777 
L 94.430168 126.991777 
L 97.709507 126.991777 
L 100.988846 126.991777 
L 104.268185 126.991777 
L 107.547524 126.991777 
L 110.826863 126.991777 
L 114.106201 126.991777 
L 117.38554 126.991777 
L 120.664879 126.991777 
L 123.944218 126.991777 
L 127.223557 126.991777 
L 130.502896 126.991777 
L 133.782235 126.991777 
L 137.061573 126.991777 
L 140.340912 126.991777 
L 143.620251 126.991777 
L 146.89959 126.991777 
L 150.178929 126.991777 
L 153.458268 126.991777 
L 156.737606 126.991777 
L 160.016945 126.991777 
L 163.296284 126.991777 
L 166.575623 126.991777 
L 169.854962 126.991777 
L 173.134301 126.991777 
L 176.413639 126.991777 
L 179.692978 126.991777 
L 182.972317 126.991777 
L 186.251656 126.991777 
L 189.530995 126.991777 
L 192.810334 126.991777 
L 196.089673 126.991777 
L 199.369011 126.991777 
L 202.64835 126.991777 
L 205.927689 126.991777 
L 209.207028 126.991777 
L 212.486367 126.991777 
L 215.765706 126.991777 
L 219.045044 126.991777 
L 222.324383 126.991777 
L 225.603722 126.991777 
L 228.883061 126.991777 
L 232.1624 126.991777 
L 235.441739 126.991777 
L 238.721077 126.991777 
L 242.000416 126.991777 
L 245.279755 126.991777 
L 248.559094 126.991777 
L 251.838433 126.991777 
L 255.117772 126.991777 
L 258.397111 126.991777 
L 261.676449 126.991777 
L 264.955788 126.991777 
L 268.235127 126.991777 
L 271.514466 126.991777 
L 274.793805 126.991777 
L 278.073144 126.991777 
L 281.352482 126.991777 
L 284.631821 126.991777 
L 287.91116 126.991777 
L 291.190499 126.991777 
L 294.469838 126.991777 
L 297.749177 126.991777 
L 301.028515 126.991777 
L 304.307854 126.991777 
L 307.587193 126.991777 
L 310.866532 126.991777 
L 314.145871 126.991777 
L 317.42521 126.991777 
L 320.704549 126.991777 
L 323.983887 126.991777 
L 327.263226 126.991777 
L 330.542565 126.991777 
L 333.821904 126.991777 
L 337.101243 126.991777 
L 340.380582 126.991777 
L 343.65992 126.991777 
L 346.939259 126.991777 
L 350.218598 126.991777 
L 353.497937 126.991777 
L 356.777276 126.991777 
L 360.056615 126.991777 
L 363.335954 126.991777 
L 366.615292 126.991777 
L 369.894631 126.991777 
L 373.17397 126.991777 
L 376.453309 126.991777 
L 379.732648 126.991777 
" clip-path="url(#p47bf20b3b0)" style="fill: none; stroke: #1f77b4; stroke-width: 1.2; stroke-linecap: round"/>
   </g>
   <g id="line2d_18">
    <path d="M 55.078102 190.83507 
L 58.357441 189.870574 
L 61.63678 188.906077 
L 64.916119 187.941576 
L 68.195458 186.97708 
L 71.474796 186.012583 
L 74.754135 185.048086 
L 78.033474 184.083586 
L 81.312813 183.119089 
L 84.592152 182.154592 
L 87.871491 181.190092 
L 91.15083 180.225591 
L 94.430168 179.261094 
L 97.709507 178.296598 
L 100.988846 177.332101 
L 104.268185 176.3676 
L 107.547524 175.403104 
L 110.826863 174.438607 
L 114.106201 173.474108 
L 117.38554 172.509612 
L 120.664879 171.545113 
L 123.944218 170.580616 
L 127.223557 169.616118 
L 130.502896 168.651619 
L 133.782235 167.68712 
L 137.061573 166.722624 
L 140.340912 165.758125 
L 143.620251 164.793626 
L 146.89959 163.829128 
L 150.178929 162.864631 
L 153.458268 161.900132 
L 156.737606 160.935636 
L 160.016945 159.971137 
L 163.296284 159.006638 
L 166.575623 158.04214 
L 169.854962 157.077642 
L 173.134301 156.113143 
L 176.413639 155.148646 
L 179.692978 154.184148 
L 182.972317 153.219649 
L 186.251656 152.255152 
L 189.530995 151.290654 
L 192.810334 150.326156 
L 196.089673 149.361658 
L 199.369011 148.39716 
L 202.64835 147.432662 
L 205.927689 146.468164 
L 209.207028 145.503666 
L 212.486367 144.539168 
L 215.765706 143.57467 
L 219.045044 142.610172 
L 222.324383 141.645674 
L 225.603722 140.681176 
L 228.883061 139.716677 
L 232.1624 138.752179 
L 235.441739 137.787681 
L 238.721077 136.823183 
L 242.000416 135.858685 
L 245.279755 134.894187 
L 248.559094 133.929689 
L 251.838433 132.965191 
L 255.117772 132.000694 
L 258.397111 131.036195 
L 261.676449 130.071697 
L 264.955788 129.107199 
L 268.235127 128.142701 
L 271.514466 127.178204 
L 274.793805 126.213708 
L 278.073144 125.249207 
L 281.352482 124.28471 
L 284.631821 123.320212 
L 287.91116 122.355715 
L 291.190499 121.391217 
L 294.469838 120.426718 
L 297.749177 119.462219 
L 301.028515 118.497723 
L 304.307854 117.533224 
L 307.587193 116.568727 
L 310.866532 115.604227 
L 314.145871 114.63973 
L 317.42521 113.675231 
L 320.704549 112.710735 
L 323.983887 111.746236 
L 327.263226 110.781735 
L 330.542565 109.817239 
L 333.821904 108.852738 
L 337.101243 107.888241 
L 340.380582 106.923745 
L 343.65992 105.959248 
L 346.939259 104.994747 
L 350.218598 104.030251 
L 353.497937 103.06575 
L 356.777276 102.101253 
L 360.056615 101.136753 
L 363.335954 100.172256 
L 366.615292 99.207759 
L 369.894631 98.243263 
L 373.17397 97.278762 
L 376.453309 96.314265 
L 379.732648 95.349769 
" clip-path="url(#p47bf20b3b0)" style="fill: none; stroke: #ff7f0e; stroke-width: 1.2; stroke-linecap: round"/>
   </g>
   <g id="line2d_19">
    <path d="M 55.078102 51.209247 
L 58.357441 55.372103 
L 61.63678 59.450014 
L 64.916119 63.442981 
L 68.195458 67.350972 
L 71.474796 71.174011 
L 74.754135 74.91209 
L 78.033474 78.565225 
L 81.312813 82.133395 
L 84.592152 85.61661 
L 87.871491 89.014872 
L 91.15083 92.328182 
L 94.430168 95.556524 
L 97.709507 98.699909 
L 100.988846 101.758339 
L 104.268185 104.731824 
L 107.547524 107.620342 
L 110.826863 110.423903 
L 114.106201 113.142516 
L 117.38554 115.77616 
L 120.664879 118.324859 
L 123.944218 120.788592 
L 127.223557 123.167376 
L 130.502896 125.4612 
L 133.782235 127.670069 
L 137.061573 129.793981 
L 140.340912 131.832939 
L 143.620251 133.786937 
L 146.89959 135.655981 
L 150.178929 137.440065 
L 153.458268 139.139196 
L 156.737606 140.753368 
L 160.016945 142.282586 
L 163.296284 143.726845 
L 166.575623 145.08615 
L 169.854962 146.360497 
L 173.134301 147.549889 
L 176.413639 148.654323 
L 179.692978 149.6738 
L 182.972317 150.608322 
L 186.251656 151.457886 
L 189.530995 152.222495 
L 192.810334 152.902147 
L 196.089673 153.496843 
L 199.369011 154.006581 
L 202.64835 154.431365 
L 205.927689 154.77119 
L 209.207028 155.02606 
L 212.486367 155.195972 
L 215.765706 155.280929 
L 219.045044 155.28093 
L 222.324383 155.195974 
L 225.603722 155.026061 
L 228.883061 154.771191 
L 232.1624 154.431366 
L 235.441739 154.006584 
L 238.721077 153.496845 
L 242.000416 152.90215 
L 245.279755 152.222499 
L 248.559094 151.45789 
L 251.838433 150.608326 
L 255.117772 149.673805 
L 258.397111 148.654328 
L 261.676449 147.549894 
L 264.955788 146.360503 
L 268.235127 145.086156 
L 271.514466 143.726854 
L 274.793805 142.282596 
L 278.073144 140.753376 
L 281.352482 139.139206 
L 284.631821 137.440075 
L 287.91116 135.655991 
L 291.190499 133.786948 
L 294.469838 131.83295 
L 297.749177 129.793993 
L 301.028515 127.670084 
L 304.307854 125.461212 
L 307.587193 123.16739 
L 310.866532 120.788605 
L 314.145871 118.324873 
L 317.42521 115.776176 
L 320.704549 113.142529 
L 323.983887 110.42392 
L 327.263226 107.620353 
L 330.542565 104.731836 
L 333.821904 101.758351 
L 337.101243 98.699921 
L 340.380582 95.556539 
L 343.65992 92.328194 
L 346.939259 89.014884 
L 350.218598 85.616625 
L 353.497937 82.133407 
L 356.777276 78.565245 
L 360.056615 74.912106 
L 363.335954 71.174019 
L 366.615292 67.350988 
L 369.894631 63.442989 
L 373.17397 59.450022 
L 376.453309 55.372126 
L 379.732648 51.209263 
" clip-path="url(#p47bf20b3b0)" style="fill: none; stroke: #2ca02c; stroke-width: 1.2; stroke-linecap: round"/>
   </g>
   <g id="line2d_20">
    <path d="M 55.078102 264.052372 
L 58.357441 254.558993 
L 61.63678 245.497211 
L 64.916119 236.858125 
L 68.195458 228.632882 
L 71.474796 220.812572 
L 74.754135 213.388278 
L 78.033474 206.351083 
L 81.312813 199.692127 
L 84.592152 193.402491 
L 87.871491 187.473279 
L 91.15083 181.895578 
L 94.430168 176.660522 
L 97.709507 171.759187 
L 100.988846 167.182679 
L 104.268185 162.922083 
L 107.547524 158.968527 
L 110.826863 155.313101 
L 114.106201 151.946893 
L 117.38554 148.861029 
L 120.664879 146.046582 
L 123.944218 143.494677 
L 127.223557 141.196393 
L 130.502896 139.142849 
L 133.782235 137.325134 
L 137.061573 135.734352 
L 140.340912 134.361604 
L 143.620251 133.197991 
L 146.89959 132.234613 
L 150.178929 131.462573 
L 153.458268 130.872968 
L 156.737606 130.456901 
L 160.016945 130.205471 
L 163.296284 130.109781 
L 166.575623 130.160929 
L 169.854962 130.350017 
L 173.134301 130.668147 
L 176.413639 131.106415 
L 179.692978 131.655927 
L 182.972317 132.307782 
L 186.251656 133.053078 
L 189.530995 133.882921 
L 192.810334 134.788406 
L 196.089673 135.760636 
L 199.369011 136.790712 
L 202.64835 137.869735 
L 205.927689 138.988804 
L 209.207028 140.139022 
L 212.486367 141.311487 
L 215.765706 142.497302 
L 219.045044 143.687566 
L 222.324383 144.873381 
L 225.603722 146.045846 
L 228.883061 147.196063 
L 232.1624 148.315133 
L 235.441739 149.394154 
L 238.721077 150.42423 
L 242.000416 151.396461 
L 245.279755 152.301945 
L 248.559094 153.131786 
L 251.838433 153.877081 
L 255.117772 154.528935 
L 258.397111 155.078445 
L 261.676449 155.516714 
L 264.955788 155.834841 
L 268.235127 156.023928 
L 271.514466 156.075074 
L 274.793805 155.979382 
L 278.073144 155.727952 
L 281.352482 155.311884 
L 284.631821 154.722276 
L 287.91116 153.950234 
L 291.190499 152.986854 
L 294.469838 151.823241 
L 297.749177 150.45049 
L 301.028515 148.859709 
L 304.307854 147.041988 
L 307.587193 144.988441 
L 310.866532 142.690157 
L 314.145871 140.138248 
L 317.42521 137.3238 
L 320.704549 134.237932 
L 323.983887 130.871724 
L 327.263226 127.21629 
L 330.542565 123.262734 
L 333.821904 119.002133 
L 337.101243 114.425619 
L 340.380582 109.524289 
L 343.65992 104.289225 
L 346.939259 98.711516 
L 350.218598 92.782297 
L 353.497937 86.492665 
L 356.777276 79.833712 
L 360.056615 72.796506 
L 363.335954 65.372188 
L 366.615292 57.551886 
L 369.894631 49.326634 
L 373.17397 40.687533 
L 376.453309 31.625775 
L 379.732648 22.132372 
" clip-path="url(#p47bf20b3b0)" style="fill: none; stroke: #d62728; stroke-width: 1.2; stroke-linecap: round"/>
   </g>
   <g id="line2d_21">
    <path d="M 55.078102 39.765259 
L 58.357441 53.994575 
L 61.63678 67.083037 
L 64.916119 79.083265 
L 68.195458 90.046712 
L 71.474796 100.023801 
L 74.754135 109.063872 
L 78.033474 117.215173 
L 81.312813 124.524779 
L 84.592152 131.03875 
L 87.871491 136.802009 
L 91.15083 141.858421 
L 94.430168 146.25069 
L 97.709507 150.02049 
L 100.988846 153.208366 
L 104.268185 155.853777 
L 107.547524 157.995073 
L 110.826863 159.66952 
L 114.106201 160.91329 
L 117.38554 161.761447 
L 120.664879 162.247978 
L 123.944218 162.405749 
L 127.223557 162.266554 
L 130.502896 161.86107 
L 133.782235 161.218897 
L 137.061573 160.368528 
L 140.340912 159.337361 
L 143.620251 158.151702 
L 146.89959 156.836755 
L 150.178929 155.416635 
L 153.458268 153.914355 
L 156.737606 152.351838 
L 160.016945 150.749903 
L 163.296284 149.12828 
L 166.575623 147.505601 
L 169.854962 145.8994 
L 173.134301 144.326117 
L 176.413639 142.801099 
L 179.692978 141.33859 
L 182.972317 139.951743 
L 186.251656 138.652614 
L 189.530995 137.452161 
L 192.810334 136.360251 
L 196.089673 135.385648 
L 199.369011 134.536029 
L 202.64835 133.817963 
L 205.927689 133.236936 
L 209.207028 132.797329 
L 212.486367 132.502432 
L 215.765706 132.354433 
L 219.045044 132.354431 
L 222.324383 132.502427 
L 225.603722 132.797322 
L 228.883061 133.236928 
L 232.1624 133.817952 
L 235.441739 134.536013 
L 238.721077 135.385631 
L 242.000416 136.360231 
L 245.279755 137.452139 
L 248.559094 138.652589 
L 251.838433 139.951716 
L 255.117772 141.338561 
L 258.397111 142.801068 
L 261.676449 144.326086 
L 264.955788 145.899366 
L 268.235127 147.505565 
L 271.514466 149.128243 
L 274.793805 150.749863 
L 278.073144 152.3518 
L 281.352482 153.914317 
L 284.631821 155.416598 
L 287.91116 156.836717 
L 291.190499 158.151664 
L 294.469838 159.337326 
L 297.749177 160.368496 
L 301.028515 161.218865 
L 304.307854 161.861043 
L 307.587193 162.266526 
L 310.866532 162.405727 
L 314.145871 162.247958 
L 317.42521 161.761433 
L 320.704549 160.91328 
L 323.983887 159.669515 
L 327.263226 157.995074 
L 330.542565 155.853789 
L 333.821904 153.208381 
L 337.101243 150.020511 
L 340.380582 146.250725 
L 343.65992 141.858463 
L 346.939259 136.802055 
L 350.218598 131.038795 
L 353.497937 124.524851 
L 356.777276 117.215252 
L 360.056615 109.063955 
L 363.335954 100.023884 
L 366.615292 90.046815 
L 369.894631 79.083388 
L 373.17397 67.083164 
L 376.453309 53.994733 
L 379.732648 39.765433 
" clip-path="url(#p47bf20b3b0)" style="fill: none; stroke: #9467bd; stroke-width: 1.2; stroke-linecap: round"/>
   </g>
   <g id="line2d_22">
    <path d="M 55.078102 175.327438 
L 58.357441 162.141469 
L 61.63678 150.821008 
L 64.916119 141.214367 
L 68.195458 133.177006 
L 71.474796 126.571241 
L 74.754135 121.266172 
L 78.033474 117.137526 
L 81.312813 114.067551 
L 84.592152 111.944776 
L 87.871491 110.663944 
L 91.15083 110.125799 
L 94.430168 110.236999 
L 97.709507 110.909923 
L 100.988846 112.062536 
L 104.268185 113.618256 
L 107.547524 115.505753 
L 110.826863 117.65887 
L 114.106201 120.01643 
L 117.38554 122.522079 
L 120.664879 125.12419 
L 123.944218 127.775641 
L 127.223557 130.433738 
L 130.502896 133.060007 
L 133.782235 135.620087 
L 137.061573 138.083549 
L 140.340912 140.423779 
L 143.620251 142.617797 
L 146.89959 144.646134 
L 150.178929 146.492665 
L 153.458268 148.144476 
L 156.737606 149.591698 
L 160.016945 150.827374 
L 163.296284 151.847293 
L 166.575623 152.649864 
L 169.854962 153.23594 
L 173.134301 153.608694 
L 176.413639 153.773453 
L 179.692978 153.737553 
L 182.972317 153.510196 
L 186.251656 153.102297 
L 189.530995 152.526332 
L 192.810334 151.796196 
L 196.089673 150.927047 
L 199.369011 149.935159 
L 202.64835 148.837779 
L 205.927689 147.652969 
L 209.207028 146.399463 
L 212.486367 145.096516 
L 215.765706 143.763756 
L 219.045044 142.421033 
L 222.324383 141.088274 
L 225.603722 139.785328 
L 228.883061 138.531824 
L 232.1624 137.347015 
L 235.441739 136.249638 
L 238.721077 135.257752 
L 242.000416 134.388606 
L 245.279755 133.658473 
L 248.559094 133.082512 
L 251.838433 132.674619 
L 255.117772 132.447266 
L 258.397111 132.411371 
L 261.676449 132.576134 
L 264.955788 132.948893 
L 268.235127 133.534976 
L 271.514466 134.337552 
L 274.793805 135.357477 
L 278.073144 136.593159 
L 281.352482 138.040385 
L 284.631821 139.692204 
L 287.91116 141.53874 
L 291.190499 143.567083 
L 294.469838 145.761106 
L 297.749177 148.101343 
L 301.028515 150.564808 
L 304.307854 153.124895 
L 307.587193 155.751168 
L 310.866532 158.40927 
L 314.145871 161.060726 
L 317.42521 163.662839 
L 320.704549 166.168492 
L 323.983887 168.526052 
L 327.263226 170.679173 
L 330.542565 172.566676 
L 333.821904 174.122392 
L 337.101243 175.275005 
L 340.380582 175.947925 
L 343.65992 176.059127 
L 346.939259 175.520974 
L 350.218598 174.240126 
L 353.497937 172.117356 
L 356.777276 169.047362 
L 360.056615 164.918705 
L 363.335954 159.613628 
L 366.615292 153.007846 
L 369.894631 144.970479 
L 373.17397 135.363823 
L 376.453309 124.043334 
L 379.732648 110.857359 
" clip-path="url(#p47bf20b3b0)" style="fill: none; stroke: #8c564b; stroke-width: 1.2; stroke-linecap: round"/>
   </g>
   <g id="line2d_23">
    <path d="M 55.078102 198.276723 
L 58.357441 201.986263 
L 61.63678 203.869101 
L 64.916119 204.193308 
L 68.195458 203.204679 
L 71.474796 201.127896 
L 74.754135 198.167449 
L 78.033474 194.508693 
L 81.312813 190.318873 
L 84.592152 185.74799 
L 87.871491 180.929811 
L 91.15083 175.982764 
L 94.430168 171.010864 
L 97.709507 166.104509 
L 100.988846 161.341394 
L 104.268185 156.78731 
L 107.547524 152.497 
L 110.826863 148.514857 
L 114.106201 144.875739 
L 117.38554 141.60572 
L 120.664879 138.722733 
L 123.944218 136.237371 
L 127.223557 134.153446 
L 130.502896 132.46873 
L 133.782235 131.175509 
L 137.061573 130.261244 
L 140.340912 129.709111 
L 143.620251 129.498586 
L 146.89959 129.605965 
L 150.178929 130.00489 
L 153.458268 130.666832 
L 156.737606 131.561566 
L 160.016945 132.657622 
L 163.296284 133.922694 
L 166.575623 135.324062 
L 169.854962 136.828959 
L 173.134301 138.404937 
L 176.413639 140.02019 
L 179.692978 141.643885 
L 182.972317 143.246439 
L 186.251656 144.799789 
L 189.530995 146.277645 
L 192.810334 147.655706 
L 196.089673 148.911865 
L 199.369011 150.026385 
L 202.64835 150.982064 
L 205.927689 151.764354 
L 209.207028 152.361488 
L 212.486367 152.764559 
L 215.765706 152.967598 
L 219.045044 152.967602 
L 222.324383 152.764571 
L 225.603722 152.361505 
L 228.883061 151.764377 
L 232.1624 150.982094 
L 235.441739 150.026422 
L 238.721077 148.911906 
L 242.000416 147.655752 
L 245.279755 146.277698 
L 248.559094 144.799845 
L 251.838433 143.2465 
L 255.117772 141.643949 
L 258.397111 140.020256 
L 261.676449 138.405004 
L 264.955788 136.829029 
L 268.235127 135.324133 
L 271.514466 133.922764 
L 274.793805 132.657692 
L 278.073144 131.561634 
L 281.352482 130.666896 
L 284.631821 130.004949 
L 287.91116 129.606022 
L 291.190499 129.498637 
L 294.469838 129.709155 
L 297.749177 130.26128 
L 301.028515 131.175538 
L 304.307854 132.46875 
L 307.587193 134.15346 
L 310.866532 136.237373 
L 314.145871 138.722727 
L 317.42521 141.6057 
L 320.704549 144.875709 
L 323.983887 148.514816 
L 327.263226 152.496947 
L 330.542565 156.787244 
L 333.821904 161.341319 
L 337.101243 166.104426 
L 340.380582 171.010763 
L 343.65992 175.982659 
L 346.939259 180.929697 
L 350.218598 185.747864 
L 353.497937 190.318743 
L 356.777276 194.508555 
L 360.056615 198.167311 
L 363.335954 201.127773 
L 366.615292 203.204548 
L 369.894631 204.193181 
L 373.17397 203.869002 
L 376.453309 201.986145 
L 379.732648 198.276636 
" clip-path="url(#p47bf20b3b0)" style="fill: none; stroke: #e377c2; stroke-width: 1.2; stroke-linecap: round"/>
   </g>
   <g id="line2d_24">
    <path d="M 55.078102 50.636949 
L 58.357441 59.889555 
L 61.63678 69.593475 
L 64.916119 79.475429 
L 68.195458 89.303537 
L 71.474796 98.88383 
L 74.754135 108.056987 
L 78.033474 116.695107 
L 81.312813 124.698618 
L 84.592152 131.993634 
L 87.871491 138.529102 
L 91.15083 144.274343 
L 94.430168 149.216553 
L 97.709507 153.358685 
L 100.988846 156.717237 
L 104.268185 159.320289 
L 107.547524 161.20565 
L 110.826863 162.41916 
L 114.106201 163.013062 
L 117.38554 163.044536 
L 120.664879 162.574342 
L 123.944218 161.665556 
L 127.223557 160.382447 
L 130.502896 158.789437 
L 133.782235 156.950184 
L 137.061573 154.926733 
L 140.340912 152.778789 
L 143.620251 150.563084 
L 146.89959 148.332803 
L 150.178929 146.137131 
L 153.458268 144.020848 
L 156.737606 142.024036 
L 160.016945 140.181815 
L 163.296284 138.524207 
L 166.575623 137.075999 
L 169.854962 135.856738 
L 173.134301 134.880724 
L 176.413639 134.157111 
L 179.692978 133.690018 
L 182.972317 133.47871 
L 186.251656 133.517831 
L 189.530995 133.797652 
L 192.810334 134.304387 
L 196.089673 135.020519 
L 199.369011 135.925173 
L 202.64835 136.994506 
L 205.927689 138.202123 
L 209.207028 139.519518 
L 212.486367 140.916522 
L 215.765706 142.361771 
L 219.045044 143.823183 
L 222.324383 145.268431 
L 225.603722 146.665432 
L 228.883061 147.982823 
L 232.1624 149.190435 
L 235.441739 150.259762 
L 238.721077 151.16441 
L 242.000416 151.880535 
L 245.279755 152.38726 
L 248.559094 152.667072 
L 251.838433 152.706181 
L 255.117772 152.494865 
L 258.397111 152.027759 
L 261.676449 151.304134 
L 264.955788 150.328111 
L 268.235127 149.108837 
L 271.514466 147.660618 
L 274.793805 146.002999 
L 278.073144 144.160767 
L 281.352482 142.163946 
L 284.631821 140.047651 
L 287.91116 137.851973 
L 291.190499 135.621684 
L 294.469838 133.405973 
L 297.749177 131.258022 
L 301.028515 129.234571 
L 304.307854 127.395311 
L 307.587193 125.802306 
L 310.866532 124.519195 
L 314.145871 123.610414 
L 317.42521 123.140221 
L 320.704549 123.171704 
L 323.983887 123.765616 
L 327.263226 124.979134 
L 330.542565 126.864505 
L 333.821904 129.467572 
L 337.101243 132.826142 
L 340.380582 136.968287 
L 343.65992 141.910515 
L 346.939259 147.655779 
L 350.218598 154.191276 
L 353.497937 161.486306 
L 356.777276 169.489845 
L 360.056615 178.127991 
L 363.335954 187.301187 
L 366.615292 196.881492 
L 369.894631 206.709616 
L 373.17397 216.591609 
L 376.453309 226.295521 
L 379.732648 235.548143 
" clip-path="url(#p47bf20b3b0)" style="fill: none; stroke: #7f7f7f; stroke-width: 1.2; stroke-linecap: round"/>
   </g>
   <g id="line2d_25">
    <path d="M 55.078102 190.142528 
L 58.357441 174.960513 
L 61.63678 161.431637 
L 64.916119 149.607891 
L 68.195458 139.497865 
L 71.474796 131.073477 
L 74.754135 124.276284 
L 78.033474 119.023185 
L 81.312813 115.211648 
L 84.592152 112.724239 
L 87.871491 111.432909 
L 91.15083 111.202655 
L 94.430168 111.894877 
L 97.709507 113.370242 
L 100.988846 115.491208 
L 104.268185 118.124214 
L 107.547524 121.141463 
L 110.826863 124.422516 
L 114.106201 127.85549 
L 117.38554 131.338023 
L 120.664879 134.778065 
L 123.944218 138.094284 
L 127.223557 141.216466 
L 130.502896 144.085543 
L 133.782235 146.653588 
L 137.061573 148.883569 
L 140.340912 150.749028 
L 143.620251 152.233595 
L 146.89959 153.330439 
L 150.178929 154.04159 
L 153.458268 154.377231 
L 156.737606 154.354883 
L 160.016945 153.998586 
L 163.296284 153.338009 
L 166.575623 152.407566 
L 169.854962 151.2455 
L 173.134301 149.892972 
L 176.413639 148.393168 
L 179.692978 146.790399 
L 182.972317 145.129265 
L 186.251656 143.453817 
L 189.530995 141.806784 
L 192.810334 140.228841 
L 196.089673 138.757933 
L 199.369011 137.428664 
L 202.64835 136.271743 
L 205.927689 135.313508 
L 209.207028 134.575527 
L 212.486367 134.074263 
L 215.765706 133.820827 
L 219.045044 133.820819 
L 222.324383 134.074241 
L 225.603722 134.575493 
L 228.883061 135.313463 
L 232.1624 136.271685 
L 235.441739 137.428595 
L 238.721077 138.757854 
L 242.000416 140.228753 
L 245.279755 141.806686 
L 248.559094 143.453714 
L 251.838433 145.129156 
L 255.117772 146.790288 
L 258.397111 148.393054 
L 261.676449 149.89286 
L 264.955788 151.245389 
L 268.235127 152.407458 
L 271.514466 153.337906 
L 274.793805 153.998488 
L 278.073144 154.354796 
L 281.352482 154.377154 
L 284.631821 154.041525 
L 287.91116 153.330385 
L 291.190499 152.233557 
L 294.469838 150.749005 
L 297.749177 148.883561 
L 301.028515 146.6536 
L 304.307854 144.085569 
L 307.587193 141.21651 
L 310.866532 138.094344 
L 314.145871 134.77814 
L 317.42521 131.338113 
L 320.704549 127.855592 
L 323.983887 124.422628 
L 327.263226 121.141584 
L 330.542565 118.124341 
L 333.821904 115.491339 
L 337.101243 113.37037 
L 340.380582 111.895007 
L 343.65992 111.20277 
L 346.939259 111.433016 
L 350.218598 112.724343 
L 353.497937 115.211721 
L 356.777276 119.02324 
L 360.056615 124.27631 
L 363.335954 131.073471 
L 366.615292 139.497818 
L 369.894631 149.607796 
L 373.17397 161.431499 
L 376.453309 174.960329 
L 379.732648 190.142283 
" clip-path="url(#p47bf20b3b0)" style="fill: none; stroke: #bcbd22; stroke-width: 1.2; stroke-linecap: round"/>
   </g>
   <g id="line2d_26">
    <path d="M 55.078102 182.635589 
L 58.357441 189.842537 
L 61.63678 194.416731 
L 64.916119 196.666299 
L 68.195458 196.904746 
L 71.474796 195.443832 
L 74.754135 192.587284 
L 78.033474 188.625854 
L 81.312813 183.833314 
L 84.592152 178.463258 
L 87.871491 172.746818 
L 91.15083 166.891027 
L 94.430168 161.077937 
L 97.709507 155.464091 
L 100.988846 150.180729 
L 104.268185 145.33426 
L 107.547524 141.007218 
L 110.826863 137.259363 
L 114.106201 134.129207 
L 117.38554 131.635657 
L 120.664879 129.779782 
L 123.944218 128.54681 
L 127.223557 127.908042 
L 130.502896 127.822952 
L 133.782235 128.241169 
L 137.061573 129.104533 
L 140.340912 130.349034 
L 143.620251 131.906701 
L 146.89959 133.707407 
L 150.178929 135.680534 
L 153.458268 137.756543 
L 156.737606 139.868378 
L 160.016945 141.952745 
L 163.296284 143.951205 
L 166.575623 145.811148 
L 169.854962 147.486552 
L 173.134301 148.938619 
L 176.413639 150.136215 
L 179.692978 151.056169 
L 182.972317 151.683405 
L 186.251656 152.010909 
L 189.530995 152.039575 
L 192.810334 151.777884 
L 196.089673 151.241484 
L 199.369011 150.452621 
L 202.64835 149.439497 
L 205.927689 148.23551 
L 209.207028 146.878418 
L 212.486367 145.409448 
L 215.765706 143.872334 
L 219.045044 142.312337 
L 222.324383 140.775226 
L 225.603722 139.306261 
L 228.883061 137.949177 
L 232.1624 136.7452 
L 235.441739 135.732089 
L 238.721077 134.94324 
L 242.000416 134.406855 
L 245.279755 134.145183 
L 248.559094 134.173867 
L 251.838433 134.501394 
L 255.117772 135.128649 
L 258.397111 136.048625 
L 261.676449 137.246241 
L 264.955788 138.698327 
L 268.235127 140.373749 
L 271.514466 142.23371 
L 274.793805 144.232186 
L 278.073144 146.316569 
L 281.352482 148.428414 
L 284.631821 150.504435 
L 287.91116 152.477566 
L 291.190499 154.278275 
L 294.469838 155.835944 
L 297.749177 157.080444 
L 301.028515 157.943799 
L 304.307854 158.362008 
L 307.587193 158.276902 
L 310.866532 157.63812 
L 314.145871 156.405129 
L 317.42521 154.549234 
L 320.704549 152.055659 
L 323.983887 148.925474 
L 327.263226 145.177592 
L 330.542565 140.850521 
L 333.821904 136.004024 
L 337.101243 130.720627 
L 340.380582 125.106762 
L 343.65992 119.29364 
L 346.939259 113.437825 
L 350.218598 107.721363 
L 353.497937 102.351295 
L 356.777276 97.558751 
L 360.056615 93.59731 
L 363.335954 90.74075 
L 366.615292 89.279856 
L 369.894631 89.518327 
L 373.17397 91.767906 
L 376.453309 96.342175 
L 379.732648 103.549159 
" clip-path="url(#p47bf20b3b0)" style="fill: none; stroke: #17becf; stroke-width: 1.2; stroke-linecap: round"/>
   </g>
   <g id="line2d_27">
    <path d="M 55.078102 60.545191 
L 58.357441 69.006231 
L 61.63678 78.586508 
L 64.916119 88.807559 
L 68.195458 99.251248 
L 71.474796 109.560044 
L 74.754135 119.436127 
L 78.033474 128.639231 
L 81.312813 136.983611 
L 84.592152 144.334633 
L 87.871491 150.604456 
L 91.15083 155.747617 
L 94.430168 159.756132 
L 97.709507 162.654753 
L 100.988846 164.495949 
L 104.268185 165.355069 
L 107.547524 165.325634 
L 110.826863 164.514824 
L 114.106201 163.039209 
L 117.38554 161.020817 
L 120.664879 158.583486 
L 123.944218 155.849646 
L 127.223557 152.937405 
L 130.502896 149.958104 
L 133.782235 147.014195 
L 137.061573 144.197563 
L 140.340912 141.58819 
L 143.620251 139.253244 
L 146.89959 137.246462 
L 150.178929 135.607928 
L 153.458268 134.364114 
L 156.737606 133.528252 
L 160.016945 133.100926 
L 163.296284 133.070927 
L 166.575623 133.416281 
L 169.854962 134.105461 
L 173.134301 135.09873 
L 176.413639 136.349577 
L 179.692978 137.806252 
L 182.972317 139.413301 
L 186.251656 141.113145 
L 189.530995 142.84763 
L 192.810334 144.559522 
L 196.089673 146.193942 
L 199.369011 147.699698 
L 202.64835 149.030503 
L 205.927689 150.146056 
L 209.207028 151.012962 
L 212.486367 151.605496 
L 215.765706 151.90619 
L 219.045044 151.906201 
L 222.324383 151.605532 
L 225.603722 151.013017 
L 228.883061 150.14613 
L 232.1624 149.030599 
L 235.441739 147.699811 
L 238.721077 146.194069 
L 242.000416 144.559662 
L 245.279755 142.847783 
L 248.559094 141.113304 
L 251.838433 139.413466 
L 255.117772 137.806418 
L 258.397111 136.349742 
L 261.676449 135.098889 
L 264.955788 134.105612 
L 268.235127 133.416421 
L 271.514466 133.071054 
L 274.793805 133.101037 
L 278.073144 133.528344 
L 281.352482 134.364184 
L 284.631821 135.607977 
L 287.91116 137.246486 
L 291.190499 139.253244 
L 294.469838 141.588165 
L 297.749177 144.197514 
L 301.028515 147.01412 
L 304.307854 149.95801 
L 307.587193 152.937288 
L 310.866532 155.849512 
L 314.145871 158.583338 
L 317.42521 161.020663 
L 320.704549 163.039047 
L 323.983887 164.514662 
L 327.263226 165.325478 
L 330.542565 165.354922 
L 333.821904 164.495819 
L 337.101243 162.654644 
L 340.380582 159.756053 
L 343.65992 155.747572 
L 346.939259 150.604447 
L 350.218598 144.334654 
L 353.497937 136.983693 
L 356.777276 128.639359 
L 360.056615 119.436303 
L 363.335954 109.560258 
L 366.615292 99.251529 
L 369.894631 88.807903 
L 373.17397 78.586884 
L 376.453309 69.006666 
L 379.732648 60.545666 
" clip-path="url(#p47bf20b3b0)" style="fill: none; stroke: #1f77b4; stroke-width: 1.2; stroke-linecap: round"/>
   </g>
   <g id="patch_3">
    <path d="M 38.845375 275.835409 
L 38.845375 10.349437 
" style="fill: none; stroke: #262626; stroke-linejoin: miter; stroke-linecap: square"/>
   </g>
   <g id="patch_4">
    <path d="M 55.078102 276.148372 
L 379.732648 276.148372 
" style="fill: none; stroke: #262626; stroke-linejoin: miter; stroke-linecap: square"/>
   </g>
  </g>
 </g>
 <defs>
  <clipPath id="p47bf20b3b0">
   <rect x="38.845375" y="10.036372" width="357.12" height="266.112"/>
  </clipPath>
 </defs>
</svg>