<?xml version="1.0" encoding="utf-8" standalone="no"?>
<!DOCTYPE svg PUBLIC "-//W3C//DTD SVG 1.1//EN"
  "http://www.w3.org/Graphics/SVG/1.1/DTD/svg11.dtd">
<svg xmlns:xlink="http://www.w3.org/1999/xlink" width="406.979pt" height="296.859875pt" viewBox="0 0 406.979 296.859875" xmlns="http://www.w3.org/2000/svg" version="1.1">
 <metadata>
  <rdf:RDF xmlns:dc="http://purl.org/dc/elements/1.1/" xmlns:cc="http://creativecommons.org/ns#" xmlns:rdf="http://www.w3.org/1999/02/22-rdf-syntax-ns#">
   <cc:Work>
    <dc:type rdf:resource="http://purl.org/dc/dcmitype/StillImage"/>
    <dc:date>2024-12-05T18:49:12.743896</dc:date>
    <dc:format>image/svg+xml</dc:format>
    <dc:creator>
     <cc:Agent>
      <dc:title>Matplotlib v3.9.2, https://matplotlib.org/</dc:title>
     </cc:Agent>
    </dc:creator>
   </cc:Work>
  </rdf:RDF>
 </metadata>
 <defs>
  <style type="text/css">*{stroke-linejoin: round; stroke-linecap: butt}</style>
 </defs>
 <g id="figure_1">
  <g id="patch_1">
   <path d="M -0 296.859875 
L 406.979 296.859875 
L 406.979 0 
L -0 0 
z
" style="fill: #ffffff"/>
  </g>
  <g id="axes_1">
   <g id="patch_2">
    <path d="M 42.659 273.312 
L 399.779 273.312 
L 399.779 7.2 
L 42.659 7.2 
z
" style="fill: #ffffff"/>
   </g>
   <g id="matplotlib.axis_1">
    <g id="xtick_1">
     <g id="line2d_1">
      <defs>
       <path id="m04ad8be729" d="M 0 0 
L 0 4.8 
" style="stroke: #262626"/>
      </defs>
      <g>
       <use xlink:href="#m04ad8be729" x="58.891727" y="273.312" style="fill: #262626; stroke: #262626"/>
      </g>
     </g>
     <g id="text_1">
      <!-- 0 -->
      <g style="fill: #262626" transform="translate(56.444915 287.910875) scale(0.088 -0.088)">
       <defs>
        <path id="ArialMT-30" d="M 266 2259 
Q 266 3072 433 3567 
Q 600 4063 929 4331 
Q 1259 4600 1759 4600 
Q 2128 4600 2406 4451 
Q 2684 4303 2865 4023 
Q 3047 3744 3150 3342 
Q 3253 2941 3253 2259 
Q 3253 1453 3087 958 
Q 2922 463 2592 192 
Q 2263 -78 1759 -78 
Q 1097 -78 719 397 
Q 266 969 266 2259 
z
M 844 2259 
Q 844 1131 1108 757 
Q 1372 384 1759 384 
Q 2147 384 2411 759 
Q 2675 1134 2675 2259 
Q 2675 3391 2411 3762 
Q 2147 4134 1753 4134 
Q 1366 4134 1134 3806 
Q 844 3388 844 2259 
z
" transform="scale(0.015625)"/>
       </defs>
       <use xlink:href="#ArialMT-30"/>
      </g>
     </g>
    </g>
    <g id="xtick_2">
     <g id="line2d_2">
      <g>
       <use xlink:href="#m04ad8be729" x="122.549481" y="273.312" style="fill: #262626; stroke: #262626"/>
      </g>
     </g>
     <g id="text_2">
      <!-- 50 -->
      <g style="fill: #262626" transform="translate(117.655856 287.910875) scale(0.088 -0.088)">
       <defs>
        <path id="ArialMT-35" d="M 266 1200 
L 856 1250 
Q 922 819 1161 601 
Q 1400 384 1738 384 
Q 2144 384 2425 690 
Q 2706 997 2706 1503 
Q 2706 1984 2436 2262 
Q 2166 2541 1728 2541 
Q 1456 2541 1237 2417 
Q 1019 2294 894 2097 
L 366 2166 
L 809 4519 
L 3088 4519 
L 3088 3981 
L 1259 3981 
L 1013 2750 
Q 1425 3038 1878 3038 
Q 2478 3038 2890 2622 
Q 3303 2206 3303 1553 
Q 3303 931 2941 478 
Q 2500 -78 1738 -78 
Q 1113 -78 717 272 
Q 322 622 266 1200 
z
" transform="scale(0.015625)"/>
       </defs>
       <use xlink:href="#ArialMT-35"/>
       <use xlink:href="#ArialMT-30" x="55.615234"/>
      </g>
     </g>
    </g>
    <g id="xtick_3">
     <g id="line2d_3">
      <g>
       <use xlink:href="#m04ad8be729" x="186.207235" y="273.312" style="fill: #262626; stroke: #262626"/>
      </g>
     </g>
     <g id="text_3">
      <!-- 100 -->
      <g style="fill: #262626" transform="translate(178.866798 287.910875) scale(0.088 -0.088)">
       <defs>
        <path id="ArialMT-31" d="M 2384 0 
L 1822 0 
L 1822 3584 
Q 1619 3391 1289 3197 
Q 959 3003 697 2906 
L 697 3450 
Q 1169 3672 1522 3987 
Q 1875 4303 2022 4600 
L 2384 4600 
L 2384 0 
z
" transform="scale(0.015625)"/>
       </defs>
       <use xlink:href="#ArialMT-31"/>
       <use xlink:href="#ArialMT-30" x="55.615234"/>
       <use xlink:href="#ArialMT-30" x="111.230469"/>
      </g>
     </g>
    </g>
    <g id="xtick_4">
     <g id="line2d_4">
      <g>
       <use xlink:href="#m04ad8be729" x="249.864989" y="273.312" style="fill: #262626; stroke: #262626"/>
      </g>
     </g>
     <g id="text_4">
      <!-- 150 -->
      <g style="fill: #262626" transform="translate(242.524552 287.910875) scale(0.088 -0.088)">
       <use xlink:href="#ArialMT-31"/>
       <use xlink:href="#ArialMT-35" x="55.615234"/>
       <use xlink:href="#ArialMT-30" x="111.230469"/>
      </g>
     </g>
    </g>
    <g id="xtick_5">
     <g id="line2d_5">
      <g>
       <use xlink:href="#m04ad8be729" x="313.522743" y="273.312" style="fill: #262626; stroke: #262626"/>
      </g>
     </g>
     <g id="text_5">
      <!-- 200 -->
      <g style="fill: #262626" transform="translate(306.182306 287.910875) scale(0.088 -0.088)">
       <defs>
        <path id="ArialMT-32" d="M 3222 541 
L 3222 0 
L 194 0 
Q 188 203 259 391 
Q 375 700 629 1000 
Q 884 1300 1366 1694 
Q 2113 2306 2375 2664 
Q 2638 3022 2638 3341 
Q 2638 3675 2398 3904 
Q 2159 4134 1775 4134 
Q 1369 4134 1125 3890 
Q 881 3647 878 3216 
L 300 3275 
Q 359 3922 746 4261 
Q 1134 4600 1788 4600 
Q 2447 4600 2831 4234 
Q 3216 3869 3216 3328 
Q 3216 3053 3103 2787 
Q 2991 2522 2730 2228 
Q 2469 1934 1863 1422 
Q 1356 997 1212 845 
Q 1069 694 975 541 
L 3222 541 
z
" transform="scale(0.015625)"/>
       </defs>
       <use xlink:href="#ArialMT-32"/>
       <use xlink:href="#ArialMT-30" x="55.615234"/>
       <use xlink:href="#ArialMT-30" x="111.230469"/>
      </g>
     </g>
    </g>
    <g id="xtick_6">
     <g id="line2d_6">
      <g>
       <use xlink:href="#m04ad8be729" x="377.180497" y="273.312" style="fill: #262626; stroke: #262626"/>
      </g>
     </g>
     <g id="text_6">
      <!-- 250 -->
      <g style="fill: #262626" transform="translate(369.84006 287.910875) scale(0.088 -0.088)">
       <use xlink:href="#ArialMT-32"/>
       <use xlink:href="#ArialMT-35" x="55.615234"/>
       <use xlink:href="#ArialMT-30" x="111.230469"/>
      </g>
     </g>
    </g>
   </g>
   <g id="matplotlib.axis_2">
    <g id="ytick_1">
     <g id="line2d_7">
      <defs>
       <path id="me153858461" d="M 0 0 
L -4.8 0 
" style="stroke: #262626"/>
      </defs>
      <g>
       <use xlink:href="#me153858461" x="42.659" y="271.364843" style="fill: #262626; stroke: #262626"/>
      </g>
     </g>
     <g id="text_7">
      <!-- −0.006 -->
      <g style="fill: #262626" transform="translate(7.2 274.51428) scale(0.088 -0.088)">
       <defs>
        <path id="ArialMT-2212" d="M 3381 1997 
L 356 1997 
L 356 2522 
L 3381 2522 
L 3381 1997 
z
" transform="scale(0.015625)"/>
        <path id="ArialMT-2e" d="M 581 0 
L 581 641 
L 1222 641 
L 1222 0 
L 581 0 
z
" transform="scale(0.015625)"/>
        <path id="ArialMT-36" d="M 3184 3459 
L 2625 3416 
Q 2550 3747 2413 3897 
Q 2184 4138 1850 4138 
Q 1581 4138 1378 3988 
Q 1113 3794 959 3422 
Q 806 3050 800 2363 
Q 1003 2672 1297 2822 
Q 1591 2972 1913 2972 
Q 2475 2972 2870 2558 
Q 3266 2144 3266 1488 
Q 3266 1056 3080 686 
Q 2894 316 2569 119 
Q 2244 -78 1831 -78 
Q 1128 -78 684 439 
Q 241 956 241 2144 
Q 241 3472 731 4075 
Q 1159 4600 1884 4600 
Q 2425 4600 2770 4297 
Q 3116 3994 3184 3459 
z
M 888 1484 
Q 888 1194 1011 928 
Q 1134 663 1356 523 
Q 1578 384 1822 384 
Q 2178 384 2434 671 
Q 2691 959 2691 1453 
Q 2691 1928 2437 2201 
Q 2184 2475 1800 2475 
Q 1419 2475 1153 2201 
Q 888 1928 888 1484 
z
" transform="scale(0.015625)"/>
       </defs>
       <use xlink:href="#ArialMT-2212"/>
       <use xlink:href="#ArialMT-30" x="58.398438"/>
       <use xlink:href="#ArialMT-2e" x="114.013672"/>
       <use xlink:href="#ArialMT-30" x="141.796875"/>
       <use xlink:href="#ArialMT-30" x="197.412109"/>
       <use xlink:href="#ArialMT-36" x="253.027344"/>
      </g>
     </g>
    </g>
    <g id="ytick_2">
     <g id="line2d_8">
      <g>
       <use xlink:href="#me153858461" x="42.659" y="232.358189" style="fill: #262626; stroke: #262626"/>
      </g>
     </g>
     <g id="text_8">
      <!-- −0.004 -->
      <g style="fill: #262626" transform="translate(7.2 235.507626) scale(0.088 -0.088)">
       <defs>
        <path id="ArialMT-34" d="M 2069 0 
L 2069 1097 
L 81 1097 
L 81 1613 
L 2172 4581 
L 2631 4581 
L 2631 1613 
L 3250 1613 
L 3250 1097 
L 2631 1097 
L 2631 0 
L 2069 0 
z
M 2069 1613 
L 2069 3678 
L 634 1613 
L 2069 1613 
z
" transform="scale(0.015625)"/>
       </defs>
       <use xlink:href="#ArialMT-2212"/>
       <use xlink:href="#ArialMT-30" x="58.398438"/>
       <use xlink:href="#ArialMT-2e" x="114.013672"/>
       <use xlink:href="#ArialMT-30" x="141.796875"/>
       <use xlink:href="#ArialMT-30" x="197.412109"/>
       <use xlink:href="#ArialMT-34" x="253.027344"/>
      </g>
     </g>
    </g>
    <g id="ytick_3">
     <g id="line2d_9">
      <g>
       <use xlink:href="#me153858461" x="42.659" y="193.351535" style="fill: #262626; stroke: #262626"/>
      </g>
     </g>
     <g id="text_9">
      <!-- −0.002 -->
      <g style="fill: #262626" transform="translate(7.2 196.500973) scale(0.088 -0.088)">
       <use xlink:href="#ArialMT-2212"/>
       <use xlink:href="#ArialMT-30" x="58.398438"/>
       <use xlink:href="#ArialMT-2e" x="114.013672"/>
       <use xlink:href="#ArialMT-30" x="141.796875"/>
       <use xlink:href="#ArialMT-30" x="197.412109"/>
       <use xlink:href="#ArialMT-32" x="253.027344"/>
      </g>
     </g>
    </g>
    <g id="ytick_4">
     <g id="line2d_10">
      <g>
       <use xlink:href="#me153858461" x="42.659" y="154.344881" style="fill: #262626; stroke: #262626"/>
      </g>
     </g>
     <g id="text_10">
      <!-- 0.000 -->
      <g style="fill: #262626" transform="translate(12.33975 157.494319) scale(0.088 -0.088)">
       <use xlink:href="#ArialMT-30"/>
       <use xlink:href="#ArialMT-2e" x="55.615234"/>
       <use xlink:href="#ArialMT-30" x="83.398438"/>
       <use xlink:href="#ArialMT-30" x="139.013672"/>
       <use xlink:href="#ArialMT-30" x="194.628906"/>
      </g>
     </g>
    </g>
    <g id="ytick_5">
     <g id="line2d_11">
      <g>
       <use xlink:href="#me153858461" x="42.659" y="115.338228" style="fill: #262626; stroke: #262626"/>
      </g>
     </g>
     <g id="text_11">
      <!-- 0.002 -->
      <g style="fill: #262626" transform="translate(12.33975 118.487665) scale(0.088 -0.088)">
       <use xlink:href="#ArialMT-30"/>
       <use xlink:href="#ArialMT-2e" x="55.615234"/>
       <use xlink:href="#ArialMT-30" x="83.398438"/>
       <use xlink:href="#ArialMT-30" x="139.013672"/>
       <use xlink:href="#ArialMT-32" x="194.628906"/>
      </g>
     </g>
    </g>
    <g id="ytick_6">
     <g id="line2d_12">
      <g>
       <use xlink:href="#me153858461" x="42.659" y="76.331574" style="fill: #262626; stroke: #262626"/>
      </g>
     </g>
     <g id="text_12">
      <!-- 0.004 -->
      <g style="fill: #262626" transform="translate(12.33975 79.481011) scale(0.088 -0.088)">
       <use xlink:href="#ArialMT-30"/>
       <use xlink:href="#ArialMT-2e" x="55.615234"/>
       <use xlink:href="#ArialMT-30" x="83.398438"/>
       <use xlink:href="#ArialMT-30" x="139.013672"/>
       <use xlink:href="#ArialMT-34" x="194.628906"/>
      </g>
     </g>
    </g>
    <g id="ytick_7">
     <g id="line2d_13">
      <g>
       <use xlink:href="#me153858461" x="42.659" y="37.32492" style="fill: #262626; stroke: #262626"/>
      </g>
     </g>
     <g id="text_13">
      <!-- 0.006 -->
      <g style="fill: #262626" transform="translate(12.33975 40.474358) scale(0.088 -0.088)">
       <use xlink:href="#ArialMT-30"/>
       <use xlink:href="#ArialMT-2e" x="55.615234"/>
       <use xlink:href="#ArialMT-30" x="83.398438"/>
       <use xlink:href="#ArialMT-30" x="139.013672"/>
       <use xlink:href="#ArialMT-36" x="194.628906"/>
      </g>
     </g>
    </g>
   </g>
   <g id="line2d_14">
    <path d="M 58.891727 175.361438 
L 61.438037 250.080774 
L 62.711193 223.229214 
L 63.984348 219.898532 
L 65.257503 219.75636 
L 66.530658 218.862404 
L 67.803813 216.319091 
L 69.076968 213.1793 
L 70.350123 190.546746 
L 71.623278 174.684069 
L 72.896433 169.49956 
L 74.169588 173.549455 
L 75.442743 184.402991 
L 76.715898 206.431176 
L 77.989053 206.150824 
L 79.262209 208.06989 
L 80.535364 212.654177 
L 81.808519 215.077671 
L 83.081674 214.021572 
L 84.354829 212.613081 
L 85.627984 213.694476 
L 86.901139 205.969464 
L 89.447449 174.886211 
L 90.720604 164.387156 
L 91.993759 160.078149 
L 93.266914 165.171806 
L 95.813225 177.924586 
L 97.08638 199.253556 
L 98.359535 208.147322 
L 99.63269 214.080301 
L 100.905845 214.825968 
L 102.179 212.157456 
L 103.452155 204.29429 
L 104.72531 191.797432 
L 105.998465 176.29016 
L 107.27162 162.278477 
L 108.544775 144.667558 
L 109.81793 134.969821 
L 111.091086 126.3568 
L 112.364241 122.832212 
L 113.637396 122.397867 
L 114.910551 125.422568 
L 116.183706 125.446379 
L 117.456861 124.12531 
L 118.730016 128.745711 
L 120.003171 141.519819 
L 121.276326 155.703897 
L 122.549481 167.281751 
L 123.822636 177.167977 
L 125.095791 179.977654 
L 126.368947 173.420265 
L 127.642102 161.434688 
L 128.915257 147.100751 
L 130.188412 137.896085 
L 131.461567 125.352521 
L 132.734722 117.343809 
L 134.007877 113.484263 
L 135.281032 114.232051 
L 136.554187 113.538441 
L 137.827342 113.236684 
L 140.373652 134.691217 
L 141.646807 142.915175 
L 142.919963 138.345507 
L 144.193118 138.449265 
L 145.466273 133.313899 
L 146.739428 122.054585 
L 148.012583 118.891061 
L 149.285738 105.738982 
L 150.558893 82.850524 
L 151.832048 75.052185 
L 153.105203 74.771982 
L 154.378358 74.159725 
L 156.924668 105.36678 
L 158.197824 114.945344 
L 159.470979 116.731156 
L 160.744134 117.245845 
L 162.017289 112.344144 
L 163.290444 104.298661 
L 164.563599 92.582149 
L 165.836754 74.596322 
L 167.109909 73.204721 
L 168.383064 66.008271 
L 169.656219 63.092434 
L 170.929374 64.846556 
L 172.202529 69.500044 
L 173.475684 75.731662 
L 174.74884 81.013769 
L 176.021995 84.773434 
L 177.29515 86.813392 
L 178.568305 90.952387 
L 179.84146 93.078457 
L 181.114615 92.830605 
L 182.38777 91.727453 
L 183.660925 99.506242 
L 184.93408 108.847752 
L 186.207235 120.657412 
L 187.48039 140.508087 
L 188.753545 155.308726 
L 190.026701 147.092544 
L 191.299856 132.339098 
L 192.573011 112.392395 
L 193.846166 88.243919 
L 195.119321 73.076071 
L 197.665631 75.306988 
L 198.938786 87.958511 
L 200.211941 114.716462 
L 201.485096 136.17182 
L 202.758251 162.249962 
L 204.031406 179.969619 
L 205.304561 184.13178 
L 206.577717 180.431739 
L 207.850872 165.88393 
L 209.124027 148.661888 
L 210.397182 137.813027 
L 211.670337 119.828525 
L 214.216647 67.736659 
L 215.489802 57.652908 
L 216.762957 68.324762 
L 218.036112 77.674371 
L 219.309267 106.30313 
L 220.582422 138.916634 
L 221.855578 165.736859 
L 223.128733 168.173329 
L 224.401888 157.009288 
L 225.675043 138.646228 
L 226.948198 116.801761 
L 228.221353 85.998738 
L 229.494508 52.458204 
L 230.767663 25.532156 
L 232.040818 19.296 
L 233.313973 33.293049 
L 234.587128 64.542271 
L 235.860283 109.320998 
L 238.406594 205.710388 
L 239.679749 243.981426 
L 240.952904 261.216 
L 242.226059 257.476754 
L 243.499214 235.196453 
L 244.772369 201.057801 
L 246.045524 159.561702 
L 247.318679 132.154158 
L 248.591834 112.288516 
L 249.864989 108.244914 
L 251.138144 113.738037 
L 252.411299 116.425676 
L 253.684455 121.814756 
L 254.95761 165.883936 
L 256.230765 204.13752 
L 257.50392 225.986414 
L 258.777075 236.839476 
L 260.05023 225.884072 
L 261.323385 193.418187 
L 262.59654 157.04248 
L 263.869695 137.880234 
L 265.14285 123.747163 
L 266.416005 100.937559 
L 267.68916 81.980589 
L 268.962316 77.75721 
L 270.235471 102.471635 
L 271.508626 133.103249 
L 274.054936 217.963915 
L 275.328091 243.682302 
L 276.601246 248.870465 
L 277.874401 259.523519 
L 279.147556 238.189717 
L 281.693866 155.976347 
L 282.967021 129.190472 
L 284.240176 124.795978 
L 285.513332 135.07895 
L 286.786487 144.338921 
L 289.332797 180.431412 
L 291.879107 243.374529 
L 293.152262 250.75278 
L 294.425417 239.23185 
L 295.698572 222.855175 
L 296.971727 197.334135 
L 298.244882 166.219003 
L 299.518037 145.012991 
L 300.791193 128.551559 
L 302.064348 123.949288 
L 303.337503 134.238188 
L 305.883813 161.76523 
L 307.156968 178.793827 
L 308.430123 178.43056 
L 309.703278 176.566344 
L 310.976433 175.408983 
L 312.249588 170.548927 
L 313.522743 161.592213 
L 314.795898 142.410661 
L 316.069053 116.844795 
L 317.342209 104.922521 
L 318.615364 113.773119 
L 319.888519 131.180488 
L 323.707984 211.033521 
L 324.981139 219.677394 
L 326.254294 210.47385 
L 327.527449 196.780494 
L 328.800604 181.597083 
L 331.346914 159.704734 
L 332.62007 151.919838 
L 333.893225 147.397072 
L 335.16638 136.08433 
L 336.439535 120.543562 
L 337.71269 101.370364 
L 338.985845 89.676846 
L 340.259 91.313159 
L 341.532155 101.769565 
L 342.80531 116.656391 
L 344.078465 127.122083 
L 345.35162 124.885027 
L 346.624775 121.773615 
L 347.89793 117.310944 
L 349.171086 104.701273 
L 350.444241 113.481427 
L 351.717396 127.884841 
L 352.990551 129.646658 
L 354.263706 126.203227 
L 355.536861 120.263139 
L 356.810016 116.934638 
L 358.083171 115.803893 
L 359.356326 116.650571 
L 360.629481 121.639315 
L 361.902636 122.080987 
L 363.175791 122.05578 
L 364.448947 130.235699 
L 365.722102 144.069086 
L 366.995257 154.857263 
L 368.268412 139.973641 
L 369.541567 127.38612 
L 370.814722 122.274764 
L 372.087877 121.67732 
L 373.361032 116.152774 
L 374.634187 123.705619 
L 375.907342 133.824923 
L 377.180497 129.960831 
L 378.453652 121.631684 
L 379.726807 106.700669 
L 380.999963 105.640787 
L 382.273118 126.029341 
L 383.546273 157.512198 
L 383.546273 157.512198 
" clip-path="url(#pcb3fe18291)" style="fill: none; stroke: #1f77b4; stroke-width: 1.2; stroke-linecap: round"/>
   </g>
   <g id="patch_3">
    <path d="M 42.659 273.312 
L 42.659 7.2 
" style="fill: none; stroke: #262626; stroke-linejoin: miter; stroke-linecap: square"/>
   </g>
   <g id="patch_4">
    <path d="M 399.779 273.312 
L 399.779 7.2 
" style="fill: none; stroke: #262626; stroke-linejoin: miter; stroke-linecap: square"/>
   </g>
   <g id="patch_5">
    <path d="M 42.659 273.312 
L 399.779 273.312 
" style="fill: none; stroke: #262626; stroke-linejoin: miter; stroke-linecap: square"/>
   </g>
   <g id="patch_6">
    <path d="M 42.659 7.2 
L 399.779 7.2 
" style="fill: none; stroke: #262626; stroke-linejoin: miter; stroke-linecap: square"/>
   </g>
   <g id="legend_1">
    <g id="patch_7">
     <path d="M 325.508375 26.687875 
L 393.619 26.687875 
Q 395.379 26.687875 395.379 24.927875 
L 395.379 13.36 
Q 395.379 11.6 393.619 11.6 
L 325.508375 11.6 
Q 323.748375 11.6 323.748375 13.36 
L 323.748375 24.927875 
Q 323.748375 26.687875 325.508375 26.687875 
z
" style="fill: #ffffff; opacity: 0.8; stroke: #cccccc; stroke-width: 0.8; stroke-linejoin: miter"/>
    </g>
    <g id="line2d_15">
     <path d="M 327.268375 18.338875 
L 336.068375 18.338875 
L 344.868375 18.338875 
" style="fill: none; stroke: #1f77b4; stroke-width: 1.2; stroke-linecap: round"/>
    </g>
    <g id="text_14">
     <!-- Difference -->
     <g style="fill: #262626" transform="translate(351.908375 21.418875) scale(0.088 -0.088)">
      <defs>
       <path id="ArialMT-44" d="M 494 0 
L 494 4581 
L 2072 4581 
Q 2606 4581 2888 4516 
Q 3281 4425 3559 4188 
Q 3922 3881 4101 3404 
Q 4281 2928 4281 2316 
Q 4281 1794 4159 1391 
Q 4038 988 3847 723 
Q 3656 459 3429 307 
Q 3203 156 2883 78 
Q 2563 0 2147 0 
L 494 0 
z
M 1100 541 
L 2078 541 
Q 2531 541 2789 625 
Q 3047 709 3200 863 
Q 3416 1078 3536 1442 
Q 3656 1806 3656 2325 
Q 3656 3044 3420 3430 
Q 3184 3816 2847 3947 
Q 2603 4041 2063 4041 
L 1100 4041 
L 1100 541 
z
" transform="scale(0.015625)"/>
       <path id="ArialMT-69" d="M 425 3934 
L 425 4581 
L 988 4581 
L 988 3934 
L 425 3934 
z
M 425 0 
L 425 3319 
L 988 3319 
L 988 0 
L 425 0 
z
" transform="scale(0.015625)"/>
       <path id="ArialMT-66" d="M 556 0 
L 556 2881 
L 59 2881 
L 59 3319 
L 556 3319 
L 556 3672 
Q 556 4006 616 4169 
Q 697 4388 901 4523 
Q 1106 4659 1475 4659 
Q 1713 4659 2000 4603 
L 1916 4113 
Q 1741 4144 1584 4144 
Q 1328 4144 1222 4034 
Q 1116 3925 1116 3625 
L 1116 3319 
L 1763 3319 
L 1763 2881 
L 1116 2881 
L 1116 0 
L 556 0 
z
" transform="scale(0.015625)"/>
       <path id="ArialMT-65" d="M 2694 1069 
L 3275 997 
Q 3138 488 2766 206 
Q 2394 -75 1816 -75 
Q 1088 -75 661 373 
Q 234 822 234 1631 
Q 234 2469 665 2931 
Q 1097 3394 1784 3394 
Q 2450 3394 2872 2941 
Q 3294 2488 3294 1666 
Q 3294 1616 3291 1516 
L 816 1516 
Q 847 969 1125 678 
Q 1403 388 1819 388 
Q 2128 388 2347 550 
Q 2566 713 2694 1069 
z
M 847 1978 
L 2700 1978 
Q 2663 2397 2488 2606 
Q 2219 2931 1791 2931 
Q 1403 2931 1139 2672 
Q 875 2413 847 1978 
z
" transform="scale(0.015625)"/>
       <path id="ArialMT-72" d="M 416 0 
L 416 3319 
L 922 3319 
L 922 2816 
Q 1116 3169 1280 3281 
Q 1444 3394 1641 3394 
Q 1925 3394 2219 3213 
L 2025 2691 
Q 1819 2813 1613 2813 
Q 1428 2813 1281 2702 
Q 1134 2591 1072 2394 
Q 978 2094 978 1738 
L 978 0 
L 416 0 
z
" transform="scale(0.015625)"/>
       <path id="ArialMT-6e" d="M 422 0 
L 422 3319 
L 928 3319 
L 928 2847 
Q 1294 3394 1984 3394 
Q 2284 3394 2536 3286 
Q 2788 3178 2913 3003 
Q 3038 2828 3088 2588 
Q 3119 2431 3119 2041 
L 3119 0 
L 2556 0 
L 2556 2019 
Q 2556 2363 2490 2533 
Q 2425 2703 2258 2804 
Q 2091 2906 1866 2906 
Q 1506 2906 1245 2678 
Q 984 2450 984 1813 
L 984 0 
L 422 0 
z
" transform="scale(0.015625)"/>
       <path id="ArialMT-63" d="M 2588 1216 
L 3141 1144 
Q 3050 572 2676 248 
Q 2303 -75 1759 -75 
Q 1078 -75 664 370 
Q 250 816 250 1647 
Q 250 2184 428 2587 
Q 606 2991 970 3192 
Q 1334 3394 1763 3394 
Q 2303 3394 2647 3120 
Q 2991 2847 3088 2344 
L 2541 2259 
Q 2463 2594 2264 2762 
Q 2066 2931 1784 2931 
Q 1359 2931 1093 2626 
Q 828 2322 828 1663 
Q 828 994 1084 691 
Q 1341 388 1753 388 
Q 2084 388 2306 591 
Q 2528 794 2588 1216 
z
" transform="scale(0.015625)"/>
      </defs>
      <use xlink:href="#ArialMT-44"/>
      <use xlink:href="#ArialMT-69" x="72.216797"/>
      <use xlink:href="#ArialMT-66" x="94.433594"/>
      <use xlink:href="#ArialMT-66" x="120.466797"/>
      <use xlink:href="#ArialMT-65" x="148.25"/>
      <use xlink:href="#ArialMT-72" x="203.865234"/>
      <use xlink:href="#ArialMT-65" x="237.166016"/>
      <use xlink:href="#ArialMT-6e" x="292.78125"/>
      <use xlink:href="#ArialMT-63" x="348.396484"/>
      <use xlink:href="#ArialMT-65" x="398.396484"/>
     </g>
    </g>
   </g>
  </g>
 </g>
 <defs>
  <clipPath id="pcb3fe18291">
   <rect x="42.659" y="7.2" width="357.12" height="266.112"/>
  </clipPath>
 </defs>
</svg>