<?xml version="1.0" encoding="utf-8" standalone="no"?>
<!DOCTYPE svg PUBLIC "-//W3C//DTD SVG 1.1//EN"
  "http://www.w3.org/Graphics/SVG/1.1/DTD/svg11.dtd">
<svg xmlns:xlink="http://www.w3.org/1999/xlink" width="402.632875pt" height="323.811375pt" viewBox="0 0 402.632875 323.811375" xmlns="http://www.w3.org/2000/svg" version="1.1">
 <metadata>
  <rdf:RDF xmlns:dc="http://purl.org/dc/elements/1.1/" xmlns:cc="http://creativecommons.org/ns#" xmlns:rdf="http://www.w3.org/1999/02/22-rdf-syntax-ns#">
   <cc:Work>
    <dc:type rdf:resource="http://purl.org/dc/dcmitype/StillImage"/>
    <dc:date>2023-11-30T21:06:10.942843</dc:date>
    <dc:format>image/svg+xml</dc:format>
    <dc:creator>
     <cc:Agent>
      <dc:title>Matplotlib v3.8.0, https://matplotlib.org/</dc:title>
     </cc:Agent>
    </dc:creator>
   </cc:Work>
  </rdf:RDF>
 </metadata>
 <defs>
  <style type="text/css">*{stroke-linejoin: round; stroke-linecap: butt}</style>
 </defs>
 <g id="figure_1">
  <g id="patch_1">
   <path d="M 0 323.811375 
L 402.632875 323.811375 
L 402.632875 0 
L 0 0 
z
" style="fill: #ffffff"/>
  </g>
  <g id="axes_1">
   <g id="patch_2">
    <path d="M 38.312875 287.484 
L 395.432875 287.484 
L 395.432875 21.372 
L 38.312875 21.372 
z
" style="fill: #ffffff"/>
   </g>
   <g id="matplotlib.axis_1">
    <g id="xtick_1">
     <g id="line2d_1">
      <defs>
       <path id="mdc7b5fefe4" d="M 0 0 
L 0 4.8 
" style="stroke: #262626"/>
      </defs>
      <g>
       <use xlink:href="#mdc7b5fefe4" x="54.545602" y="287.484" style="fill: #262626; stroke: #262626"/>
      </g>
     </g>
     <g id="text_1">
      <!-- −1.0 -->
      <g style="fill: #262626" transform="translate(45.859727 302.082875) scale(0.088 -0.088)">
       <defs>
        <path id="ArialMT-2212" d="M 3381 1997 
L 356 1997 
L 356 2522 
L 3381 2522 
L 3381 1997 
z
" transform="scale(0.015625)"/>
        <path id="ArialMT-31" d="M 2384 0 
L 1822 0 
L 1822 3584 
Q 1619 3391 1289 3197 
Q 959 3003 697 2906 
L 697 3450 
Q 1169 3672 1522 3987 
Q 1875 4303 2022 4600 
L 2384 4600 
L 2384 0 
z
" transform="scale(0.015625)"/>
        <path id="ArialMT-2e" d="M 581 0 
L 581 641 
L 1222 641 
L 1222 0 
L 581 0 
z
" transform="scale(0.015625)"/>
        <path id="ArialMT-30" d="M 266 2259 
Q 266 3072 433 3567 
Q 600 4063 929 4331 
Q 1259 4600 1759 4600 
Q 2128 4600 2406 4451 
Q 2684 4303 2865 4023 
Q 3047 3744 3150 3342 
Q 3253 2941 3253 2259 
Q 3253 1453 3087 958 
Q 2922 463 2592 192 
Q 2263 -78 1759 -78 
Q 1097 -78 719 397 
Q 266 969 266 2259 
z
M 844 2259 
Q 844 1131 1108 757 
Q 1372 384 1759 384 
Q 2147 384 2411 759 
Q 2675 1134 2675 2259 
Q 2675 3391 2411 3762 
Q 2147 4134 1753 4134 
Q 1366 4134 1134 3806 
Q 844 3388 844 2259 
z
" transform="scale(0.015625)"/>
       </defs>
       <use xlink:href="#ArialMT-2212"/>
       <use xlink:href="#ArialMT-31" x="58.398438"/>
       <use xlink:href="#ArialMT-2e" x="114.013672"/>
       <use xlink:href="#ArialMT-30" x="141.796875"/>
      </g>
     </g>
    </g>
    <g id="xtick_2">
     <g id="line2d_2">
      <g>
       <use xlink:href="#mdc7b5fefe4" x="95.12742" y="287.484" style="fill: #262626; stroke: #262626"/>
      </g>
     </g>
     <g id="text_2">
      <!-- −0.5 -->
      <g style="fill: #262626" transform="translate(86.441545 302.082875) scale(0.088 -0.088)">
       <defs>
        <path id="ArialMT-35" d="M 266 1200 
L 856 1250 
Q 922 819 1161 601 
Q 1400 384 1738 384 
Q 2144 384 2425 690 
Q 2706 997 2706 1503 
Q 2706 1984 2436 2262 
Q 2166 2541 1728 2541 
Q 1456 2541 1237 2417 
Q 1019 2294 894 2097 
L 366 2166 
L 809 4519 
L 3088 4519 
L 3088 3981 
L 1259 3981 
L 1013 2750 
Q 1425 3038 1878 3038 
Q 2478 3038 2890 2622 
Q 3303 2206 3303 1553 
Q 3303 931 2941 478 
Q 2500 -78 1738 -78 
Q 1113 -78 717 272 
Q 322 622 266 1200 
z
" transform="scale(0.015625)"/>
       </defs>
       <use xlink:href="#ArialMT-2212"/>
       <use xlink:href="#ArialMT-30" x="58.398438"/>
       <use xlink:href="#ArialMT-2e" x="114.013672"/>
       <use xlink:href="#ArialMT-35" x="141.796875"/>
      </g>
     </g>
    </g>
    <g id="xtick_3">
     <g id="line2d_3">
      <g>
       <use xlink:href="#mdc7b5fefe4" x="135.709239" y="287.484" style="fill: #262626; stroke: #262626"/>
      </g>
     </g>
     <g id="text_3">
      <!-- 0.0 -->
      <g style="fill: #262626" transform="translate(129.593239 302.082875) scale(0.088 -0.088)">
       <use xlink:href="#ArialMT-30"/>
       <use xlink:href="#ArialMT-2e" x="55.615234"/>
       <use xlink:href="#ArialMT-30" x="83.398438"/>
      </g>
     </g>
    </g>
    <g id="xtick_4">
     <g id="line2d_4">
      <g>
       <use xlink:href="#mdc7b5fefe4" x="176.291057" y="287.484" style="fill: #262626; stroke: #262626"/>
      </g>
     </g>
     <g id="text_4">
      <!-- 0.5 -->
      <g style="fill: #262626" transform="translate(170.175057 302.082875) scale(0.088 -0.088)">
       <use xlink:href="#ArialMT-30"/>
       <use xlink:href="#ArialMT-2e" x="55.615234"/>
       <use xlink:href="#ArialMT-35" x="83.398438"/>
      </g>
     </g>
    </g>
    <g id="xtick_5">
     <g id="line2d_5">
      <g>
       <use xlink:href="#mdc7b5fefe4" x="216.872875" y="287.484" style="fill: #262626; stroke: #262626"/>
      </g>
     </g>
     <g id="text_5">
      <!-- 1.0 -->
      <g style="fill: #262626" transform="translate(210.756875 302.082875) scale(0.088 -0.088)">
       <use xlink:href="#ArialMT-31"/>
       <use xlink:href="#ArialMT-2e" x="55.615234"/>
       <use xlink:href="#ArialMT-30" x="83.398438"/>
      </g>
     </g>
    </g>
    <g id="xtick_6">
     <g id="line2d_6">
      <g>
       <use xlink:href="#mdc7b5fefe4" x="257.454693" y="287.484" style="fill: #262626; stroke: #262626"/>
      </g>
     </g>
     <g id="text_6">
      <!-- 1.5 -->
      <g style="fill: #262626" transform="translate(251.338693 302.082875) scale(0.088 -0.088)">
       <use xlink:href="#ArialMT-31"/>
       <use xlink:href="#ArialMT-2e" x="55.615234"/>
       <use xlink:href="#ArialMT-35" x="83.398438"/>
      </g>
     </g>
    </g>
    <g id="xtick_7">
     <g id="line2d_7">
      <g>
       <use xlink:href="#mdc7b5fefe4" x="298.036511" y="287.484" style="fill: #262626; stroke: #262626"/>
      </g>
     </g>
     <g id="text_7">
      <!-- 2.0 -->
      <g style="fill: #262626" transform="translate(291.920511 302.082875) scale(0.088 -0.088)">
       <defs>
        <path id="ArialMT-32" d="M 3222 541 
L 3222 0 
L 194 0 
Q 188 203 259 391 
Q 375 700 629 1000 
Q 884 1300 1366 1694 
Q 2113 2306 2375 2664 
Q 2638 3022 2638 3341 
Q 2638 3675 2398 3904 
Q 2159 4134 1775 4134 
Q 1369 4134 1125 3890 
Q 881 3647 878 3216 
L 300 3275 
Q 359 3922 746 4261 
Q 1134 4600 1788 4600 
Q 2447 4600 2831 4234 
Q 3216 3869 3216 3328 
Q 3216 3053 3103 2787 
Q 2991 2522 2730 2228 
Q 2469 1934 1863 1422 
Q 1356 997 1212 845 
Q 1069 694 975 541 
L 3222 541 
z
" transform="scale(0.015625)"/>
       </defs>
       <use xlink:href="#ArialMT-32"/>
       <use xlink:href="#ArialMT-2e" x="55.615234"/>
       <use xlink:href="#ArialMT-30" x="83.398438"/>
      </g>
     </g>
    </g>
    <g id="xtick_8">
     <g id="line2d_8">
      <g>
       <use xlink:href="#mdc7b5fefe4" x="338.61833" y="287.484" style="fill: #262626; stroke: #262626"/>
      </g>
     </g>
     <g id="text_8">
      <!-- 2.5 -->
      <g style="fill: #262626" transform="translate(332.50233 302.082875) scale(0.088 -0.088)">
       <use xlink:href="#ArialMT-32"/>
       <use xlink:href="#ArialMT-2e" x="55.615234"/>
       <use xlink:href="#ArialMT-35" x="83.398438"/>
      </g>
     </g>
    </g>
    <g id="xtick_9">
     <g id="line2d_9">
      <g>
       <use xlink:href="#mdc7b5fefe4" x="379.200148" y="287.484" style="fill: #262626; stroke: #262626"/>
      </g>
     </g>
     <g id="text_9">
      <!-- 3.0 -->
      <g style="fill: #262626" transform="translate(373.084148 302.082875) scale(0.088 -0.088)">
       <defs>
        <path id="ArialMT-33" d="M 269 1209 
L 831 1284 
Q 928 806 1161 595 
Q 1394 384 1728 384 
Q 2125 384 2398 659 
Q 2672 934 2672 1341 
Q 2672 1728 2419 1979 
Q 2166 2231 1775 2231 
Q 1616 2231 1378 2169 
L 1441 2663 
Q 1497 2656 1531 2656 
Q 1891 2656 2178 2843 
Q 2466 3031 2466 3422 
Q 2466 3731 2256 3934 
Q 2047 4138 1716 4138 
Q 1388 4138 1169 3931 
Q 950 3725 888 3313 
L 325 3413 
Q 428 3978 793 4289 
Q 1159 4600 1703 4600 
Q 2078 4600 2393 4439 
Q 2709 4278 2876 4000 
Q 3044 3722 3044 3409 
Q 3044 3113 2884 2869 
Q 2725 2625 2413 2481 
Q 2819 2388 3044 2092 
Q 3269 1797 3269 1353 
Q 3269 753 2831 336 
Q 2394 -81 1725 -81 
Q 1122 -81 723 278 
Q 325 638 269 1209 
z
" transform="scale(0.015625)"/>
       </defs>
       <use xlink:href="#ArialMT-33"/>
       <use xlink:href="#ArialMT-2e" x="55.615234"/>
       <use xlink:href="#ArialMT-30" x="83.398438"/>
      </g>
     </g>
    </g>
    <g id="text_10">
     <!-- $x$ -->
     <g style="fill: #262626" transform="translate(213.992875 314.703375) scale(0.096 -0.096)">
      <defs>
       <path id="DejaVuSans-Oblique-78" d="M 3841 3500 
L 2234 1784 
L 3219 0 
L 2559 0 
L 1819 1388 
L 531 0 
L -166 0 
L 1556 1844 
L 641 3500 
L 1300 3500 
L 1972 2234 
L 3144 3500 
L 3841 3500 
z
" transform="scale(0.015625)"/>
      </defs>
      <use xlink:href="#DejaVuSans-Oblique-78" transform="translate(0 0.3125)"/>
     </g>
    </g>
   </g>
   <g id="matplotlib.axis_2">
    <g id="ytick_1">
     <g id="line2d_10">
      <defs>
       <path id="m8fa6c920d0" d="M 0 0 
L -4.8 0 
" style="stroke: #262626"/>
      </defs>
      <g>
       <use xlink:href="#m8fa6c920d0" x="38.312875" y="264.915528" style="fill: #262626; stroke: #262626"/>
      </g>
     </g>
     <g id="text_11">
      <!-- −6 -->
      <g style="fill: #262626" transform="translate(19.9795 268.064966) scale(0.088 -0.088)">
       <defs>
        <path id="ArialMT-36" d="M 3184 3459 
L 2625 3416 
Q 2550 3747 2413 3897 
Q 2184 4138 1850 4138 
Q 1581 4138 1378 3988 
Q 1113 3794 959 3422 
Q 806 3050 800 2363 
Q 1003 2672 1297 2822 
Q 1591 2972 1913 2972 
Q 2475 2972 2870 2558 
Q 3266 2144 3266 1488 
Q 3266 1056 3080 686 
Q 2894 316 2569 119 
Q 2244 -78 1831 -78 
Q 1128 -78 684 439 
Q 241 956 241 2144 
Q 241 3472 731 4075 
Q 1159 4600 1884 4600 
Q 2425 4600 2770 4297 
Q 3116 3994 3184 3459 
z
M 888 1484 
Q 888 1194 1011 928 
Q 1134 663 1356 523 
Q 1578 384 1822 384 
Q 2178 384 2434 671 
Q 2691 959 2691 1453 
Q 2691 1928 2437 2201 
Q 2184 2475 1800 2475 
Q 1419 2475 1153 2201 
Q 888 1928 888 1484 
z
" transform="scale(0.015625)"/>
       </defs>
       <use xlink:href="#ArialMT-2212"/>
       <use xlink:href="#ArialMT-36" x="58.398438"/>
      </g>
     </g>
    </g>
    <g id="ytick_2">
     <g id="line2d_11">
      <g>
       <use xlink:href="#m8fa6c920d0" x="38.312875" y="226.34094" style="fill: #262626; stroke: #262626"/>
      </g>
     </g>
     <g id="text_12">
      <!-- −4 -->
      <g style="fill: #262626" transform="translate(19.9795 229.490378) scale(0.088 -0.088)">
       <defs>
        <path id="ArialMT-34" d="M 2069 0 
L 2069 1097 
L 81 1097 
L 81 1613 
L 2172 4581 
L 2631 4581 
L 2631 1613 
L 3250 1613 
L 3250 1097 
L 2631 1097 
L 2631 0 
L 2069 0 
z
M 2069 1613 
L 2069 3678 
L 634 1613 
L 2069 1613 
z
" transform="scale(0.015625)"/>
       </defs>
       <use xlink:href="#ArialMT-2212"/>
       <use xlink:href="#ArialMT-34" x="58.398438"/>
      </g>
     </g>
    </g>
    <g id="ytick_3">
     <g id="line2d_12">
      <g>
       <use xlink:href="#m8fa6c920d0" x="38.312875" y="187.766352" style="fill: #262626; stroke: #262626"/>
      </g>
     </g>
     <g id="text_13">
      <!-- −2 -->
      <g style="fill: #262626" transform="translate(19.9795 190.91579) scale(0.088 -0.088)">
       <use xlink:href="#ArialMT-2212"/>
       <use xlink:href="#ArialMT-32" x="58.398438"/>
      </g>
     </g>
    </g>
    <g id="ytick_4">
     <g id="line2d_13">
      <g>
       <use xlink:href="#m8fa6c920d0" x="38.312875" y="149.191764" style="fill: #262626; stroke: #262626"/>
      </g>
     </g>
     <g id="text_14">
      <!-- 0 -->
      <g style="fill: #262626" transform="translate(25.11925 152.341202) scale(0.088 -0.088)">
       <use xlink:href="#ArialMT-30"/>
      </g>
     </g>
    </g>
    <g id="ytick_5">
     <g id="line2d_14">
      <g>
       <use xlink:href="#m8fa6c920d0" x="38.312875" y="110.617176" style="fill: #262626; stroke: #262626"/>
      </g>
     </g>
     <g id="text_15">
      <!-- 2 -->
      <g style="fill: #262626" transform="translate(25.11925 113.766614) scale(0.088 -0.088)">
       <use xlink:href="#ArialMT-32"/>
      </g>
     </g>
    </g>
    <g id="ytick_6">
     <g id="line2d_15">
      <g>
       <use xlink:href="#m8fa6c920d0" x="38.312875" y="72.042588" style="fill: #262626; stroke: #262626"/>
      </g>
     </g>
     <g id="text_16">
      <!-- 4 -->
      <g style="fill: #262626" transform="translate(25.11925 75.192026) scale(0.088 -0.088)">
       <use xlink:href="#ArialMT-34"/>
      </g>
     </g>
    </g>
    <g id="ytick_7">
     <g id="line2d_16">
      <g>
       <use xlink:href="#m8fa6c920d0" x="38.312875" y="33.468" style="fill: #262626; stroke: #262626"/>
      </g>
     </g>
     <g id="text_17">
      <!-- 6 -->
      <g style="fill: #262626" transform="translate(25.11925 36.617437) scale(0.088 -0.088)">
       <use xlink:href="#ArialMT-36"/>
      </g>
     </g>
    </g>
    <g id="text_18">
     <!-- $f(x)$ -->
     <g style="fill: #262626" transform="translate(14.0715 162.732) rotate(-90) scale(0.096 -0.096)">
      <defs>
       <path id="DejaVuSans-Oblique-66" d="M 3059 4863 
L 2969 4384 
L 2419 4384 
Q 2106 4384 1964 4261 
Q 1822 4138 1753 3809 
L 1691 3500 
L 2638 3500 
L 2553 3053 
L 1606 3053 
L 1013 0 
L 434 0 
L 1031 3053 
L 481 3053 
L 563 3500 
L 1113 3500 
L 1159 3744 
Q 1278 4363 1576 4613 
Q 1875 4863 2516 4863 
L 3059 4863 
z
" transform="scale(0.015625)"/>
       <path id="DejaVuSans-28" d="M 1984 4856 
Q 1566 4138 1362 3434 
Q 1159 2731 1159 2009 
Q 1159 1288 1364 580 
Q 1569 -128 1984 -844 
L 1484 -844 
Q 1016 -109 783 600 
Q 550 1309 550 2009 
Q 550 2706 781 3412 
Q 1013 4119 1484 4856 
L 1984 4856 
z
" transform="scale(0.015625)"/>
       <path id="DejaVuSans-29" d="M 513 4856 
L 1013 4856 
Q 1481 4119 1714 3412 
Q 1947 2706 1947 2009 
Q 1947 1309 1714 600 
Q 1481 -109 1013 -844 
L 513 -844 
Q 928 -128 1133 580 
Q 1338 1288 1338 2009 
Q 1338 2731 1133 3434 
Q 928 4138 513 4856 
z
" transform="scale(0.015625)"/>
      </defs>
      <use xlink:href="#DejaVuSans-Oblique-66" transform="translate(0 0.015625)"/>
      <use xlink:href="#DejaVuSans-28" transform="translate(35.205078 0.015625)"/>
      <use xlink:href="#DejaVuSans-Oblique-78" transform="translate(74.21875 0.015625)"/>
      <use xlink:href="#DejaVuSans-29" transform="translate(133.398438 0.015625)"/>
     </g>
    </g>
   </g>
   <g id="line2d_17">
    <path d="M 54.545602 33.468 
L 57.824944 43.135265 
L 61.104282 51.910651 
L 64.383619 59.845735 
L 67.662956 66.990879 
L 70.942294 73.395176 
L 74.221636 79.106537 
L 77.500978 84.171587 
L 80.780315 88.635729 
L 84.059653 92.54316 
L 87.33899 95.93682 
L 90.618327 98.858422 
L 93.89767 101.348445 
L 97.177009 103.446129 
L 100.456349 105.189489 
L 103.735684 106.615302 
L 107.015024 107.759107 
L 110.294361 108.65522 
L 113.573703 109.336715 
L 116.853045 109.835435 
L 120.132383 110.181988 
L 123.411715 110.405749 
L 126.691057 110.534864 
L 129.9704 110.596239 
L 133.249737 110.615548 
L 136.529074 110.617236 
L 139.808416 110.624504 
L 143.087754 110.659332 
L 146.367091 110.742456 
L 149.646428 110.893384 
L 152.92577 111.130388 
L 156.205113 111.470513 
L 159.484445 111.929555 
L 162.763782 112.522093 
L 166.04312 113.261466 
L 169.322467 114.159778 
L 172.601804 115.227896 
L 175.881141 116.475463 
L 179.160484 117.91088 
L 182.439821 119.541318 
L 185.719158 121.372714 
L 188.998496 123.409768 
L 192.277833 125.655958 
L 195.55718 128.113519 
L 198.836512 130.783436 
L 202.11585 133.6655 
L 205.395197 136.758243 
L 208.674534 140.05895 
L 211.953871 143.563704 
L 215.233209 147.267327 
L 218.512546 151.163432 
L 221.791888 155.244381 
L 225.071221 159.501299 
L 228.350563 163.92411 
L 231.629905 168.501457 
L 234.909247 173.220791 
L 238.18858 178.068269 
L 241.467912 183.028897 
L 244.747254 188.086414 
L 248.026597 193.223304 
L 251.305939 198.420821 
L 254.585271 203.658979 
L 257.864623 208.916644 
L 261.143956 214.171292 
L 264.423288 219.399287 
L 267.70263 224.57578 
L 270.981963 229.674531 
L 274.261305 234.668291 
L 277.540637 239.528318 
L 280.819999 244.224916 
L 284.099331 248.726909 
L 287.378664 253.002013 
L 290.658006 257.016735 
L 293.937338 260.736219 
L 297.216681 264.12454 
L 300.496013 267.144415 
L 303.775375 269.757401 
L 307.054697 271.923749 
L 310.33404 273.602514 
L 313.613382 274.751648 
L 316.892724 275.327521 
L 320.172047 275.28573 
L 323.451389 274.580181 
L 326.730731 273.163932 
L 330.010054 270.988572 
L 333.289415 268.004436 
L 336.568758 264.160868 
L 339.84808 259.405851 
L 343.127423 253.685968 
L 346.406765 246.946702 
L 349.686107 239.132355 
L 352.96543 230.18598 
L 356.244791 220.049379 
L 359.524133 208.66303 
L 362.803456 195.966528 
L 366.082798 181.897554 
L 369.362141 166.392907 
L 372.641483 149.388651 
L 375.920806 130.819304 
L 379.200148 110.617176 
" clip-path="url(#p8c679ac6fc)" style="fill: none; stroke: #1f77b4; stroke-width: 1.2; stroke-linecap: round"/>
   </g>
   <g id="line2d_18">
    <path d="M 95.12742 102.178985 
L 117.447421 109.908661 
L 132.675241 110.614118 
L 140.392919 110.628081 
L 144.488771 110.687772 
L 147.350326 110.779736 
L 150.187999 110.926118 
L 153.747109 111.205258 
L 158.778178 111.819891 
L 166.449404 113.363899 
L 178.999557 117.835941 
L 201.129277 132.776197 
L 242.650592 184.842599 
L 315.963493 275.225068 
L 357.2838 216.579941 
L 261.811011 215.237681 
L 268.644614 226.049527 
L 325.373322 273.839463 
L 338.347494 261.698233 
L 294.917917 261.785787 
L 309.232992 273.095875 
L 333.018135 268.283212 
L 310.183238 273.536628 
L 313.819566 274.805137 
L 324.321058 274.275801 
L 316.624927 275.303057 
L 316.160427 275.250893 
L 320.212819 275.281132 
L 318.341837 275.387963 
L 317.377136 275.361329 
L 318.799138 275.381341 
L 318.549956 275.386418 
L 317.973608 275.384248 
L 318.399135 275.387816 
L 318.466534 275.387375 
L 318.218107 275.387595 
L 318.314997 275.38789 
L 318.388608 275.387853 
L 318.301452 275.387963 
L 318.31045 275.387926 
L 318.349287 275.387853 
L 318.324421 275.38789 
L 318.318055 275.387926 
L 318.333845 275.387963 
L 318.328717 275.387926 
L 318.323512 275.387963 
L 318.328814 275.387926 
L 318.32864 275.38789 
L 318.326105 275.38789 
L 318.327498 275.38789 
L 318.32804 275.388 
L 318.327033 275.387926 
L 318.327304 275.387963 
L 318.327653 275.387926 
L 318.327343 275.387963 
L 318.327343 275.387963 
L 318.327498 275.38789 
L 318.32742 275.387926 
L 318.327382 275.387926 
L 318.327459 275.38789 
L 318.32744 275.387963 
L 318.327362 275.387926 
L 318.32744 275.387963 
L 318.32742 275.387926 
L 318.32742 275.387926 
L 318.32742 275.387926 
L 318.32742 275.387926 
L 318.32742 275.387926 
L 318.32742 275.387926 
L 318.32742 275.387926 
L 318.32742 275.387926 
L 318.32742 275.387926 
L 318.32742 275.387926 
L 318.32742 275.387926 
L 318.32742 275.387926 
L 318.32742 275.387926 
L 318.32742 275.387926 
L 318.32742 275.387926 
L 318.32742 275.387926 
L 318.32742 275.387926 
L 318.32742 275.387926 
L 318.32742 275.387926 
L 318.32742 275.387926 
L 318.32742 275.387926 
L 318.32742 275.387926 
L 318.32742 275.387926 
L 318.32742 275.387926 
L 318.32742 275.387926 
L 318.32742 275.387926 
L 318.32742 275.387926 
L 318.32742 275.387926 
L 318.32742 275.387926 
L 318.32742 275.387926 
L 318.32742 275.387926 
L 318.32742 275.387926 
L 318.32742 275.387926 
L 318.32742 275.387926 
L 318.32742 275.387926 
L 318.32742 275.387926 
L 318.32742 275.387926 
L 318.32742 275.387926 
" clip-path="url(#p8c679ac6fc)" style="fill: none; stroke: #ff7f0e; stroke-opacity: 0.5; stroke-linecap: round"/>
    <defs>
     <path id="m5dde67fdc4" d="M -1 -0 
L 1 1 
L 1 -1 
z
" style="stroke: #ff7f0e; stroke-opacity: 0.5; stroke-linejoin: miter"/>
    </defs>
    <g clip-path="url(#p8c679ac6fc)">
     <use xlink:href="#m5dde67fdc4" x="95.12742" y="102.178985" style="fill: #ff7f0e; fill-opacity: 0.5; stroke: #ff7f0e; stroke-opacity: 0.5; stroke-linejoin: miter"/>
     <use xlink:href="#m5dde67fdc4" x="117.447421" y="109.908661" style="fill: #ff7f0e; fill-opacity: 0.5; stroke: #ff7f0e; stroke-opacity: 0.5; stroke-linejoin: miter"/>
     <use xlink:href="#m5dde67fdc4" x="132.675241" y="110.614118" style="fill: #ff7f0e; fill-opacity: 0.5; stroke: #ff7f0e; stroke-opacity: 0.5; stroke-linejoin: miter"/>
     <use xlink:href="#m5dde67fdc4" x="140.392919" y="110.628081" style="fill: #ff7f0e; fill-opacity: 0.5; stroke: #ff7f0e; stroke-opacity: 0.5; stroke-linejoin: miter"/>
     <use xlink:href="#m5dde67fdc4" x="144.488771" y="110.687772" style="fill: #ff7f0e; fill-opacity: 0.5; stroke: #ff7f0e; stroke-opacity: 0.5; stroke-linejoin: miter"/>
     <use xlink:href="#m5dde67fdc4" x="147.350326" y="110.779736" style="fill: #ff7f0e; fill-opacity: 0.5; stroke: #ff7f0e; stroke-opacity: 0.5; stroke-linejoin: miter"/>
     <use xlink:href="#m5dde67fdc4" x="150.187999" y="110.926118" style="fill: #ff7f0e; fill-opacity: 0.5; stroke: #ff7f0e; stroke-opacity: 0.5; stroke-linejoin: miter"/>
     <use xlink:href="#m5dde67fdc4" x="153.747109" y="111.205258" style="fill: #ff7f0e; fill-opacity: 0.5; stroke: #ff7f0e; stroke-opacity: 0.5; stroke-linejoin: miter"/>
     <use xlink:href="#m5dde67fdc4" x="158.778178" y="111.819891" style="fill: #ff7f0e; fill-opacity: 0.5; stroke: #ff7f0e; stroke-opacity: 0.5; stroke-linejoin: miter"/>
     <use xlink:href="#m5dde67fdc4" x="166.449404" y="113.363899" style="fill: #ff7f0e; fill-opacity: 0.5; stroke: #ff7f0e; stroke-opacity: 0.5; stroke-linejoin: miter"/>
     <use xlink:href="#m5dde67fdc4" x="178.999557" y="117.835941" style="fill: #ff7f0e; fill-opacity: 0.5; stroke: #ff7f0e; stroke-opacity: 0.5; stroke-linejoin: miter"/>
     <use xlink:href="#m5dde67fdc4" x="201.129277" y="132.776197" style="fill: #ff7f0e; fill-opacity: 0.5; stroke: #ff7f0e; stroke-opacity: 0.5; stroke-linejoin: miter"/>
     <use xlink:href="#m5dde67fdc4" x="242.650592" y="184.842599" style="fill: #ff7f0e; fill-opacity: 0.5; stroke: #ff7f0e; stroke-opacity: 0.5; stroke-linejoin: miter"/>
     <use xlink:href="#m5dde67fdc4" x="315.963493" y="275.225068" style="fill: #ff7f0e; fill-opacity: 0.5; stroke: #ff7f0e; stroke-opacity: 0.5; stroke-linejoin: miter"/>
     <use xlink:href="#m5dde67fdc4" x="357.2838" y="216.579941" style="fill: #ff7f0e; fill-opacity: 0.5; stroke: #ff7f0e; stroke-opacity: 0.5; stroke-linejoin: miter"/>
     <use xlink:href="#m5dde67fdc4" x="261.811011" y="215.237681" style="fill: #ff7f0e; fill-opacity: 0.5; stroke: #ff7f0e; stroke-opacity: 0.5; stroke-linejoin: miter"/>
     <use xlink:href="#m5dde67fdc4" x="268.644614" y="226.049527" style="fill: #ff7f0e; fill-opacity: 0.5; stroke: #ff7f0e; stroke-opacity: 0.5; stroke-linejoin: miter"/>
     <use xlink:href="#m5dde67fdc4" x="325.373322" y="273.839463" style="fill: #ff7f0e; fill-opacity: 0.5; stroke: #ff7f0e; stroke-opacity: 0.5; stroke-linejoin: miter"/>
     <use xlink:href="#m5dde67fdc4" x="338.347494" y="261.698233" style="fill: #ff7f0e; fill-opacity: 0.5; stroke: #ff7f0e; stroke-opacity: 0.5; stroke-linejoin: miter"/>
     <use xlink:href="#m5dde67fdc4" x="294.917917" y="261.785787" style="fill: #ff7f0e; fill-opacity: 0.5; stroke: #ff7f0e; stroke-opacity: 0.5; stroke-linejoin: miter"/>
     <use xlink:href="#m5dde67fdc4" x="309.232992" y="273.095875" style="fill: #ff7f0e; fill-opacity: 0.5; stroke: #ff7f0e; stroke-opacity: 0.5; stroke-linejoin: miter"/>
     <use xlink:href="#m5dde67fdc4" x="333.018135" y="268.283212" style="fill: #ff7f0e; fill-opacity: 0.5; stroke: #ff7f0e; stroke-opacity: 0.5; stroke-linejoin: miter"/>
     <use xlink:href="#m5dde67fdc4" x="310.183238" y="273.536628" style="fill: #ff7f0e; fill-opacity: 0.5; stroke: #ff7f0e; stroke-opacity: 0.5; stroke-linejoin: miter"/>
     <use xlink:href="#m5dde67fdc4" x="313.819566" y="274.805137" style="fill: #ff7f0e; fill-opacity: 0.5; stroke: #ff7f0e; stroke-opacity: 0.5; stroke-linejoin: miter"/>
     <use xlink:href="#m5dde67fdc4" x="324.321058" y="274.275801" style="fill: #ff7f0e; fill-opacity: 0.5; stroke: #ff7f0e; stroke-opacity: 0.5; stroke-linejoin: miter"/>
     <use xlink:href="#m5dde67fdc4" x="316.624927" y="275.303057" style="fill: #ff7f0e; fill-opacity: 0.5; stroke: #ff7f0e; stroke-opacity: 0.5; stroke-linejoin: miter"/>
     <use xlink:href="#m5dde67fdc4" x="316.160427" y="275.250893" style="fill: #ff7f0e; fill-opacity: 0.5; stroke: #ff7f0e; stroke-opacity: 0.5; stroke-linejoin: miter"/>
     <use xlink:href="#m5dde67fdc4" x="320.212819" y="275.281132" style="fill: #ff7f0e; fill-opacity: 0.5; stroke: #ff7f0e; stroke-opacity: 0.5; stroke-linejoin: miter"/>
     <use xlink:href="#m5dde67fdc4" x="318.341837" y="275.387963" style="fill: #ff7f0e; fill-opacity: 0.5; stroke: #ff7f0e; stroke-opacity: 0.5; stroke-linejoin: miter"/>
     <use xlink:href="#m5dde67fdc4" x="317.377136" y="275.361329" style="fill: #ff7f0e; fill-opacity: 0.5; stroke: #ff7f0e; stroke-opacity: 0.5; stroke-linejoin: miter"/>
     <use xlink:href="#m5dde67fdc4" x="318.799138" y="275.381341" style="fill: #ff7f0e; fill-opacity: 0.5; stroke: #ff7f0e; stroke-opacity: 0.5; stroke-linejoin: miter"/>
     <use xlink:href="#m5dde67fdc4" x="318.549956" y="275.386418" style="fill: #ff7f0e; fill-opacity: 0.5; stroke: #ff7f0e; stroke-opacity: 0.5; stroke-linejoin: miter"/>
     <use xlink:href="#m5dde67fdc4" x="317.973608" y="275.384248" style="fill: #ff7f0e; fill-opacity: 0.5; stroke: #ff7f0e; stroke-opacity: 0.5; stroke-linejoin: miter"/>
     <use xlink:href="#m5dde67fdc4" x="318.399135" y="275.387816" style="fill: #ff7f0e; fill-opacity: 0.5; stroke: #ff7f0e; stroke-opacity: 0.5; stroke-linejoin: miter"/>
     <use xlink:href="#m5dde67fdc4" x="318.466534" y="275.387375" style="fill: #ff7f0e; fill-opacity: 0.5; stroke: #ff7f0e; stroke-opacity: 0.5; stroke-linejoin: miter"/>
     <use xlink:href="#m5dde67fdc4" x="318.218107" y="275.387595" style="fill: #ff7f0e; fill-opacity: 0.5; stroke: #ff7f0e; stroke-opacity: 0.5; stroke-linejoin: miter"/>
     <use xlink:href="#m5dde67fdc4" x="318.314997" y="275.38789" style="fill: #ff7f0e; fill-opacity: 0.5; stroke: #ff7f0e; stroke-opacity: 0.5; stroke-linejoin: miter"/>
     <use xlink:href="#m5dde67fdc4" x="318.388608" y="275.387853" style="fill: #ff7f0e; fill-opacity: 0.5; stroke: #ff7f0e; stroke-opacity: 0.5; stroke-linejoin: miter"/>
     <use xlink:href="#m5dde67fdc4" x="318.301452" y="275.387963" style="fill: #ff7f0e; fill-opacity: 0.5; stroke: #ff7f0e; stroke-opacity: 0.5; stroke-linejoin: miter"/>
     <use xlink:href="#m5dde67fdc4" x="318.31045" y="275.387926" style="fill: #ff7f0e; fill-opacity: 0.5; stroke: #ff7f0e; stroke-opacity: 0.5; stroke-linejoin: miter"/>
     <use xlink:href="#m5dde67fdc4" x="318.349287" y="275.387853" style="fill: #ff7f0e; fill-opacity: 0.5; stroke: #ff7f0e; stroke-opacity: 0.5; stroke-linejoin: miter"/>
     <use xlink:href="#m5dde67fdc4" x="318.324421" y="275.38789" style="fill: #ff7f0e; fill-opacity: 0.5; stroke: #ff7f0e; stroke-opacity: 0.5; stroke-linejoin: miter"/>
     <use xlink:href="#m5dde67fdc4" x="318.318055" y="275.387926" style="fill: #ff7f0e; fill-opacity: 0.5; stroke: #ff7f0e; stroke-opacity: 0.5; stroke-linejoin: miter"/>
     <use xlink:href="#m5dde67fdc4" x="318.333845" y="275.387963" style="fill: #ff7f0e; fill-opacity: 0.5; stroke: #ff7f0e; stroke-opacity: 0.5; stroke-linejoin: miter"/>
     <use xlink:href="#m5dde67fdc4" x="318.328717" y="275.387926" style="fill: #ff7f0e; fill-opacity: 0.5; stroke: #ff7f0e; stroke-opacity: 0.5; stroke-linejoin: miter"/>
     <use xlink:href="#m5dde67fdc4" x="318.323512" y="275.387963" style="fill: #ff7f0e; fill-opacity: 0.5; stroke: #ff7f0e; stroke-opacity: 0.5; stroke-linejoin: miter"/>
     <use xlink:href="#m5dde67fdc4" x="318.328814" y="275.387926" style="fill: #ff7f0e; fill-opacity: 0.5; stroke: #ff7f0e; stroke-opacity: 0.5; stroke-linejoin: miter"/>
     <use xlink:href="#m5dde67fdc4" x="318.32864" y="275.38789" style="fill: #ff7f0e; fill-opacity: 0.5; stroke: #ff7f0e; stroke-opacity: 0.5; stroke-linejoin: miter"/>
     <use xlink:href="#m5dde67fdc4" x="318.326105" y="275.38789" style="fill: #ff7f0e; fill-opacity: 0.5; stroke: #ff7f0e; stroke-opacity: 0.5; stroke-linejoin: miter"/>
     <use xlink:href="#m5dde67fdc4" x="318.327498" y="275.38789" style="fill: #ff7f0e; fill-opacity: 0.5; stroke: #ff7f0e; stroke-opacity: 0.5; stroke-linejoin: miter"/>
     <use xlink:href="#m5dde67fdc4" x="318.32804" y="275.388" style="fill: #ff7f0e; fill-opacity: 0.5; stroke: #ff7f0e; stroke-opacity: 0.5; stroke-linejoin: miter"/>
     <use xlink:href="#m5dde67fdc4" x="318.327033" y="275.387926" style="fill: #ff7f0e; fill-opacity: 0.5; stroke: #ff7f0e; stroke-opacity: 0.5; stroke-linejoin: miter"/>
     <use xlink:href="#m5dde67fdc4" x="318.327304" y="275.387963" style="fill: #ff7f0e; fill-opacity: 0.5; stroke: #ff7f0e; stroke-opacity: 0.5; stroke-linejoin: miter"/>
     <use xlink:href="#m5dde67fdc4" x="318.327653" y="275.387926" style="fill: #ff7f0e; fill-opacity: 0.5; stroke: #ff7f0e; stroke-opacity: 0.5; stroke-linejoin: miter"/>
     <use xlink:href="#m5dde67fdc4" x="318.327343" y="275.387963" style="fill: #ff7f0e; fill-opacity: 0.5; stroke: #ff7f0e; stroke-opacity: 0.5; stroke-linejoin: miter"/>
     <use xlink:href="#m5dde67fdc4" x="318.327343" y="275.387963" style="fill: #ff7f0e; fill-opacity: 0.5; stroke: #ff7f0e; stroke-opacity: 0.5; stroke-linejoin: miter"/>
     <use xlink:href="#m5dde67fdc4" x="318.327498" y="275.38789" style="fill: #ff7f0e; fill-opacity: 0.5; stroke: #ff7f0e; stroke-opacity: 0.5; stroke-linejoin: miter"/>
     <use xlink:href="#m5dde67fdc4" x="318.32742" y="275.387926" style="fill: #ff7f0e; fill-opacity: 0.5; stroke: #ff7f0e; stroke-opacity: 0.5; stroke-linejoin: miter"/>
     <use xlink:href="#m5dde67fdc4" x="318.327382" y="275.387926" style="fill: #ff7f0e; fill-opacity: 0.5; stroke: #ff7f0e; stroke-opacity: 0.5; stroke-linejoin: miter"/>
     <use xlink:href="#m5dde67fdc4" x="318.327459" y="275.38789" style="fill: #ff7f0e; fill-opacity: 0.5; stroke: #ff7f0e; stroke-opacity: 0.5; stroke-linejoin: miter"/>
     <use xlink:href="#m5dde67fdc4" x="318.32744" y="275.387963" style="fill: #ff7f0e; fill-opacity: 0.5; stroke: #ff7f0e; stroke-opacity: 0.5; stroke-linejoin: miter"/>
     <use xlink:href="#m5dde67fdc4" x="318.327362" y="275.387926" style="fill: #ff7f0e; fill-opacity: 0.5; stroke: #ff7f0e; stroke-opacity: 0.5; stroke-linejoin: miter"/>
     <use xlink:href="#m5dde67fdc4" x="318.32744" y="275.387963" style="fill: #ff7f0e; fill-opacity: 0.5; stroke: #ff7f0e; stroke-opacity: 0.5; stroke-linejoin: miter"/>
     <use xlink:href="#m5dde67fdc4" x="318.32742" y="275.387926" style="fill: #ff7f0e; fill-opacity: 0.5; stroke: #ff7f0e; stroke-opacity: 0.5; stroke-linejoin: miter"/>
     <use xlink:href="#m5dde67fdc4" x="318.32742" y="275.387926" style="fill: #ff7f0e; fill-opacity: 0.5; stroke: #ff7f0e; stroke-opacity: 0.5; stroke-linejoin: miter"/>
     <use xlink:href="#m5dde67fdc4" x="318.32742" y="275.387926" style="fill: #ff7f0e; fill-opacity: 0.5; stroke: #ff7f0e; stroke-opacity: 0.5; stroke-linejoin: miter"/>
     <use xlink:href="#m5dde67fdc4" x="318.32742" y="275.387926" style="fill: #ff7f0e; fill-opacity: 0.5; stroke: #ff7f0e; stroke-opacity: 0.5; stroke-linejoin: miter"/>
     <use xlink:href="#m5dde67fdc4" x="318.32742" y="275.387926" style="fill: #ff7f0e; fill-opacity: 0.5; stroke: #ff7f0e; stroke-opacity: 0.5; stroke-linejoin: miter"/>
     <use xlink:href="#m5dde67fdc4" x="318.32742" y="275.387926" style="fill: #ff7f0e; fill-opacity: 0.5; stroke: #ff7f0e; stroke-opacity: 0.5; stroke-linejoin: miter"/>
     <use xlink:href="#m5dde67fdc4" x="318.32742" y="275.387926" style="fill: #ff7f0e; fill-opacity: 0.5; stroke: #ff7f0e; stroke-opacity: 0.5; stroke-linejoin: miter"/>
     <use xlink:href="#m5dde67fdc4" x="318.32742" y="275.387926" style="fill: #ff7f0e; fill-opacity: 0.5; stroke: #ff7f0e; stroke-opacity: 0.5; stroke-linejoin: miter"/>
     <use xlink:href="#m5dde67fdc4" x="318.32742" y="275.387926" style="fill: #ff7f0e; fill-opacity: 0.5; stroke: #ff7f0e; stroke-opacity: 0.5; stroke-linejoin: miter"/>
     <use xlink:href="#m5dde67fdc4" x="318.32742" y="275.387926" style="fill: #ff7f0e; fill-opacity: 0.5; stroke: #ff7f0e; stroke-opacity: 0.5; stroke-linejoin: miter"/>
     <use xlink:href="#m5dde67fdc4" x="318.32742" y="275.387926" style="fill: #ff7f0e; fill-opacity: 0.5; stroke: #ff7f0e; stroke-opacity: 0.5; stroke-linejoin: miter"/>
     <use xlink:href="#m5dde67fdc4" x="318.32742" y="275.387926" style="fill: #ff7f0e; fill-opacity: 0.5; stroke: #ff7f0e; stroke-opacity: 0.5; stroke-linejoin: miter"/>
     <use xlink:href="#m5dde67fdc4" x="318.32742" y="275.387926" style="fill: #ff7f0e; fill-opacity: 0.5; stroke: #ff7f0e; stroke-opacity: 0.5; stroke-linejoin: miter"/>
     <use xlink:href="#m5dde67fdc4" x="318.32742" y="275.387926" style="fill: #ff7f0e; fill-opacity: 0.5; stroke: #ff7f0e; stroke-opacity: 0.5; stroke-linejoin: miter"/>
     <use xlink:href="#m5dde67fdc4" x="318.32742" y="275.387926" style="fill: #ff7f0e; fill-opacity: 0.5; stroke: #ff7f0e; stroke-opacity: 0.5; stroke-linejoin: miter"/>
     <use xlink:href="#m5dde67fdc4" x="318.32742" y="275.387926" style="fill: #ff7f0e; fill-opacity: 0.5; stroke: #ff7f0e; stroke-opacity: 0.5; stroke-linejoin: miter"/>
     <use xlink:href="#m5dde67fdc4" x="318.32742" y="275.387926" style="fill: #ff7f0e; fill-opacity: 0.5; stroke: #ff7f0e; stroke-opacity: 0.5; stroke-linejoin: miter"/>
     <use xlink:href="#m5dde67fdc4" x="318.32742" y="275.387926" style="fill: #ff7f0e; fill-opacity: 0.5; stroke: #ff7f0e; stroke-opacity: 0.5; stroke-linejoin: miter"/>
     <use xlink:href="#m5dde67fdc4" x="318.32742" y="275.387926" style="fill: #ff7f0e; fill-opacity: 0.5; stroke: #ff7f0e; stroke-opacity: 0.5; stroke-linejoin: miter"/>
     <use xlink:href="#m5dde67fdc4" x="318.32742" y="275.387926" style="fill: #ff7f0e; fill-opacity: 0.5; stroke: #ff7f0e; stroke-opacity: 0.5; stroke-linejoin: miter"/>
     <use xlink:href="#m5dde67fdc4" x="318.32742" y="275.387926" style="fill: #ff7f0e; fill-opacity: 0.5; stroke: #ff7f0e; stroke-opacity: 0.5; stroke-linejoin: miter"/>
     <use xlink:href="#m5dde67fdc4" x="318.32742" y="275.387926" style="fill: #ff7f0e; fill-opacity: 0.5; stroke: #ff7f0e; stroke-opacity: 0.5; stroke-linejoin: miter"/>
     <use xlink:href="#m5dde67fdc4" x="318.32742" y="275.387926" style="fill: #ff7f0e; fill-opacity: 0.5; stroke: #ff7f0e; stroke-opacity: 0.5; stroke-linejoin: miter"/>
     <use xlink:href="#m5dde67fdc4" x="318.32742" y="275.387926" style="fill: #ff7f0e; fill-opacity: 0.5; stroke: #ff7f0e; stroke-opacity: 0.5; stroke-linejoin: miter"/>
     <use xlink:href="#m5dde67fdc4" x="318.32742" y="275.387926" style="fill: #ff7f0e; fill-opacity: 0.5; stroke: #ff7f0e; stroke-opacity: 0.5; stroke-linejoin: miter"/>
     <use xlink:href="#m5dde67fdc4" x="318.32742" y="275.387926" style="fill: #ff7f0e; fill-opacity: 0.5; stroke: #ff7f0e; stroke-opacity: 0.5; stroke-linejoin: miter"/>
     <use xlink:href="#m5dde67fdc4" x="318.32742" y="275.387926" style="fill: #ff7f0e; fill-opacity: 0.5; stroke: #ff7f0e; stroke-opacity: 0.5; stroke-linejoin: miter"/>
     <use xlink:href="#m5dde67fdc4" x="318.32742" y="275.387926" style="fill: #ff7f0e; fill-opacity: 0.5; stroke: #ff7f0e; stroke-opacity: 0.5; stroke-linejoin: miter"/>
     <use xlink:href="#m5dde67fdc4" x="318.32742" y="275.387926" style="fill: #ff7f0e; fill-opacity: 0.5; stroke: #ff7f0e; stroke-opacity: 0.5; stroke-linejoin: miter"/>
     <use xlink:href="#m5dde67fdc4" x="318.32742" y="275.387926" style="fill: #ff7f0e; fill-opacity: 0.5; stroke: #ff7f0e; stroke-opacity: 0.5; stroke-linejoin: miter"/>
     <use xlink:href="#m5dde67fdc4" x="318.32742" y="275.387926" style="fill: #ff7f0e; fill-opacity: 0.5; stroke: #ff7f0e; stroke-opacity: 0.5; stroke-linejoin: miter"/>
     <use xlink:href="#m5dde67fdc4" x="318.32742" y="275.387926" style="fill: #ff7f0e; fill-opacity: 0.5; stroke: #ff7f0e; stroke-opacity: 0.5; stroke-linejoin: miter"/>
     <use xlink:href="#m5dde67fdc4" x="318.32742" y="275.387926" style="fill: #ff7f0e; fill-opacity: 0.5; stroke: #ff7f0e; stroke-opacity: 0.5; stroke-linejoin: miter"/>
     <use xlink:href="#m5dde67fdc4" x="318.32742" y="275.387926" style="fill: #ff7f0e; fill-opacity: 0.5; stroke: #ff7f0e; stroke-opacity: 0.5; stroke-linejoin: miter"/>
     <use xlink:href="#m5dde67fdc4" x="318.32742" y="275.387926" style="fill: #ff7f0e; fill-opacity: 0.5; stroke: #ff7f0e; stroke-opacity: 0.5; stroke-linejoin: miter"/>
     <use xlink:href="#m5dde67fdc4" x="318.32742" y="275.387926" style="fill: #ff7f0e; fill-opacity: 0.5; stroke: #ff7f0e; stroke-opacity: 0.5; stroke-linejoin: miter"/>
     <use xlink:href="#m5dde67fdc4" x="318.32742" y="275.387926" style="fill: #ff7f0e; fill-opacity: 0.5; stroke: #ff7f0e; stroke-opacity: 0.5; stroke-linejoin: miter"/>
     <use xlink:href="#m5dde67fdc4" x="318.32742" y="275.387926" style="fill: #ff7f0e; fill-opacity: 0.5; stroke: #ff7f0e; stroke-opacity: 0.5; stroke-linejoin: miter"/>
    </g>
   </g>
   <g id="line2d_19">
    <defs>
     <path id="m8249165f8f" d="M 0 2.5 
C 0.663008 2.5 1.29895 2.236584 1.767767 1.767767 
C 2.236584 1.29895 2.5 0.663008 2.5 0 
C 2.5 -0.663008 2.236584 -1.29895 1.767767 -1.767767 
C 1.29895 -2.236584 0.663008 -2.5 0 -2.5 
C -0.663008 -2.5 -1.29895 -2.236584 -1.767767 -1.767767 
C -2.236584 -1.29895 -2.5 -0.663008 -2.5 0 
C -2.5 0.663008 -2.236584 1.29895 -1.767767 1.767767 
C -1.29895 2.236584 -0.663008 2.5 0 2.5 
z
" style="stroke: #2ca02c"/>
    </defs>
    <g clip-path="url(#p8c679ac6fc)">
     <use xlink:href="#m8249165f8f" x="318.32742" y="275.387926" style="fill: #2ca02c; stroke: #2ca02c"/>
    </g>
   </g>
   <g id="patch_3">
    <path d="M 38.312875 264.915528 
L 38.312875 33.468 
" style="fill: none; stroke: #262626; stroke-linejoin: miter; stroke-linecap: square"/>
   </g>
   <g id="patch_4">
    <path d="M 54.545602 287.484 
L 379.200148 287.484 
" style="fill: none; stroke: #262626; stroke-linejoin: miter; stroke-linecap: square"/>
   </g>
   <g id="text_19">
    <!-- $f(x) = x^4 - 3x^3 + 2$ -->
    <g style="fill: #262626" transform="translate(174.152875 15.372) scale(0.096 -0.096)">
     <defs>
      <path id="DejaVuSans-3d" d="M 678 2906 
L 4684 2906 
L 4684 2381 
L 678 2381 
L 678 2906 
z
M 678 1631 
L 4684 1631 
L 4684 1100 
L 678 1100 
L 678 1631 
z
" transform="scale(0.015625)"/>
      <path id="DejaVuSans-34" d="M 2419 4116 
L 825 1625 
L 2419 1625 
L 2419 4116 
z
M 2253 4666 
L 3047 4666 
L 3047 1625 
L 3713 1625 
L 3713 1100 
L 3047 1100 
L 3047 0 
L 2419 0 
L 2419 1100 
L 313 1100 
L 313 1709 
L 2253 4666 
z
" transform="scale(0.015625)"/>
      <path id="DejaVuSans-2212" d="M 678 2272 
L 4684 2272 
L 4684 1741 
L 678 1741 
L 678 2272 
z
" transform="scale(0.015625)"/>
      <path id="DejaVuSans-33" d="M 2597 2516 
Q 3050 2419 3304 2112 
Q 3559 1806 3559 1356 
Q 3559 666 3084 287 
Q 2609 -91 1734 -91 
Q 1441 -91 1130 -33 
Q 819 25 488 141 
L 488 750 
Q 750 597 1062 519 
Q 1375 441 1716 441 
Q 2309 441 2620 675 
Q 2931 909 2931 1356 
Q 2931 1769 2642 2001 
Q 2353 2234 1838 2234 
L 1294 2234 
L 1294 2753 
L 1863 2753 
Q 2328 2753 2575 2939 
Q 2822 3125 2822 3475 
Q 2822 3834 2567 4026 
Q 2313 4219 1838 4219 
Q 1578 4219 1281 4162 
Q 984 4106 628 3988 
L 628 4550 
Q 988 4650 1302 4700 
Q 1616 4750 1894 4750 
Q 2613 4750 3031 4423 
Q 3450 4097 3450 3541 
Q 3450 3153 3228 2886 
Q 3006 2619 2597 2516 
z
" transform="scale(0.015625)"/>
      <path id="DejaVuSans-2b" d="M 2944 4013 
L 2944 2272 
L 4684 2272 
L 4684 1741 
L 2944 1741 
L 2944 0 
L 2419 0 
L 2419 1741 
L 678 1741 
L 678 2272 
L 2419 2272 
L 2419 4013 
L 2944 4013 
z
" transform="scale(0.015625)"/>
      <path id="DejaVuSans-32" d="M 1228 531 
L 3431 531 
L 3431 0 
L 469 0 
L 469 531 
Q 828 903 1448 1529 
Q 2069 2156 2228 2338 
Q 2531 2678 2651 2914 
Q 2772 3150 2772 3378 
Q 2772 3750 2511 3984 
Q 2250 4219 1831 4219 
Q 1534 4219 1204 4116 
Q 875 4013 500 3803 
L 500 4441 
Q 881 4594 1212 4672 
Q 1544 4750 1819 4750 
Q 2544 4750 2975 4387 
Q 3406 4025 3406 3419 
Q 3406 3131 3298 2873 
Q 3191 2616 2906 2266 
Q 2828 2175 2409 1742 
Q 1991 1309 1228 531 
z
" transform="scale(0.015625)"/>
     </defs>
     <use xlink:href="#DejaVuSans-Oblique-66" transform="translate(0 0.765625)"/>
     <use xlink:href="#DejaVuSans-28" transform="translate(35.205078 0.765625)"/>
     <use xlink:href="#DejaVuSans-Oblique-78" transform="translate(74.21875 0.765625)"/>
     <use xlink:href="#DejaVuSans-29" transform="translate(133.398438 0.765625)"/>
     <use xlink:href="#DejaVuSans-3d" transform="translate(191.894531 0.765625)"/>
     <use xlink:href="#DejaVuSans-Oblique-78" transform="translate(295.166016 0.765625)"/>
     <use xlink:href="#DejaVuSans-34" transform="translate(358.811849 39.046875) scale(0.7)"/>
     <use xlink:href="#DejaVuSans-2212" transform="translate(425.564779 0.765625)"/>
     <use xlink:href="#DejaVuSans-33" transform="translate(528.836263 0.765625)"/>
     <use xlink:href="#DejaVuSans-Oblique-78" transform="translate(592.45931 0.765625)"/>
     <use xlink:href="#DejaVuSans-33" transform="translate(656.105143 39.046875) scale(0.7)"/>
     <use xlink:href="#DejaVuSans-2b" transform="translate(722.858073 0.765625)"/>
     <use xlink:href="#DejaVuSans-32" transform="translate(826.129557 0.765625)"/>
    </g>
   </g>
   <g id="legend_1">
    <g id="line2d_20">
     <path d="M 322.274625 32.510875 
L 331.074625 32.510875 
L 339.874625 32.510875 
" style="fill: none; stroke: #ff7f0e; stroke-opacity: 0.5; stroke-linecap: round"/>
     <g>
      <use xlink:href="#m5dde67fdc4" x="331.074625" y="32.510875" style="fill: #ff7f0e; fill-opacity: 0.5; stroke: #ff7f0e; stroke-opacity: 0.5; stroke-linejoin: miter"/>
     </g>
    </g>
    <g id="text_20">
     <!-- x0=-0.5 -->
     <g style="fill: #262626" transform="translate(346.914625 35.590875) scale(0.088 -0.088)">
      <defs>
       <path id="ArialMT-78" d="M 47 0 
L 1259 1725 
L 138 3319 
L 841 3319 
L 1350 2541 
Q 1494 2319 1581 2169 
Q 1719 2375 1834 2534 
L 2394 3319 
L 3066 3319 
L 1919 1756 
L 3153 0 
L 2463 0 
L 1781 1031 
L 1600 1309 
L 728 0 
L 47 0 
z
" transform="scale(0.015625)"/>
       <path id="ArialMT-3d" d="M 3381 2694 
L 356 2694 
L 356 3219 
L 3381 3219 
L 3381 2694 
z
M 3381 1303 
L 356 1303 
L 356 1828 
L 3381 1828 
L 3381 1303 
z
" transform="scale(0.015625)"/>
       <path id="ArialMT-2d" d="M 203 1375 
L 203 1941 
L 1931 1941 
L 1931 1375 
L 203 1375 
z
" transform="scale(0.015625)"/>
      </defs>
      <use xlink:href="#ArialMT-78"/>
      <use xlink:href="#ArialMT-30" x="50"/>
      <use xlink:href="#ArialMT-3d" x="105.615234"/>
      <use xlink:href="#ArialMT-2d" x="164.013672"/>
      <use xlink:href="#ArialMT-30" x="197.314453"/>
      <use xlink:href="#ArialMT-2e" x="252.929688"/>
      <use xlink:href="#ArialMT-35" x="280.712891"/>
     </g>
    </g>
    <g id="line2d_21">
     <g>
      <use xlink:href="#m8249165f8f" x="331.074625" y="44.95875" style="fill: #2ca02c; stroke: #2ca02c"/>
     </g>
    </g>
    <g id="text_21">
     <!-- Final point -->
     <g style="fill: #262626" transform="translate(346.914625 48.03875) scale(0.088 -0.088)">
      <defs>
       <path id="ArialMT-46" d="M 525 0 
L 525 4581 
L 3616 4581 
L 3616 4041 
L 1131 4041 
L 1131 2622 
L 3281 2622 
L 3281 2081 
L 1131 2081 
L 1131 0 
L 525 0 
z
" transform="scale(0.015625)"/>
       <path id="ArialMT-69" d="M 425 3934 
L 425 4581 
L 988 4581 
L 988 3934 
L 425 3934 
z
M 425 0 
L 425 3319 
L 988 3319 
L 988 0 
L 425 0 
z
" transform="scale(0.015625)"/>
       <path id="ArialMT-6e" d="M 422 0 
L 422 3319 
L 928 3319 
L 928 2847 
Q 1294 3394 1984 3394 
Q 2284 3394 2536 3286 
Q 2788 3178 2913 3003 
Q 3038 2828 3088 2588 
Q 3119 2431 3119 2041 
L 3119 0 
L 2556 0 
L 2556 2019 
Q 2556 2363 2490 2533 
Q 2425 2703 2258 2804 
Q 2091 2906 1866 2906 
Q 1506 2906 1245 2678 
Q 984 2450 984 1813 
L 984 0 
L 422 0 
z
" transform="scale(0.015625)"/>
       <path id="ArialMT-61" d="M 2588 409 
Q 2275 144 1986 34 
Q 1697 -75 1366 -75 
Q 819 -75 525 192 
Q 231 459 231 875 
Q 231 1119 342 1320 
Q 453 1522 633 1644 
Q 813 1766 1038 1828 
Q 1203 1872 1538 1913 
Q 2219 1994 2541 2106 
Q 2544 2222 2544 2253 
Q 2544 2597 2384 2738 
Q 2169 2928 1744 2928 
Q 1347 2928 1158 2789 
Q 969 2650 878 2297 
L 328 2372 
Q 403 2725 575 2942 
Q 747 3159 1072 3276 
Q 1397 3394 1825 3394 
Q 2250 3394 2515 3294 
Q 2781 3194 2906 3042 
Q 3031 2891 3081 2659 
Q 3109 2516 3109 2141 
L 3109 1391 
Q 3109 606 3145 398 
Q 3181 191 3288 0 
L 2700 0 
Q 2613 175 2588 409 
z
M 2541 1666 
Q 2234 1541 1622 1453 
Q 1275 1403 1131 1340 
Q 988 1278 909 1158 
Q 831 1038 831 891 
Q 831 666 1001 516 
Q 1172 366 1500 366 
Q 1825 366 2078 508 
Q 2331 650 2450 897 
Q 2541 1088 2541 1459 
L 2541 1666 
z
" transform="scale(0.015625)"/>
       <path id="ArialMT-6c" d="M 409 0 
L 409 4581 
L 972 4581 
L 972 0 
L 409 0 
z
" transform="scale(0.015625)"/>
       <path id="ArialMT-20" transform="scale(0.015625)"/>
       <path id="ArialMT-70" d="M 422 -1272 
L 422 3319 
L 934 3319 
L 934 2888 
Q 1116 3141 1344 3267 
Q 1572 3394 1897 3394 
Q 2322 3394 2647 3175 
Q 2972 2956 3137 2557 
Q 3303 2159 3303 1684 
Q 3303 1175 3120 767 
Q 2938 359 2589 142 
Q 2241 -75 1856 -75 
Q 1575 -75 1351 44 
Q 1128 163 984 344 
L 984 -1272 
L 422 -1272 
z
M 931 1641 
Q 931 1000 1190 694 
Q 1450 388 1819 388 
Q 2194 388 2461 705 
Q 2728 1022 2728 1688 
Q 2728 2322 2467 2637 
Q 2206 2953 1844 2953 
Q 1484 2953 1207 2617 
Q 931 2281 931 1641 
z
" transform="scale(0.015625)"/>
       <path id="ArialMT-6f" d="M 213 1659 
Q 213 2581 725 3025 
Q 1153 3394 1769 3394 
Q 2453 3394 2887 2945 
Q 3322 2497 3322 1706 
Q 3322 1066 3130 698 
Q 2938 331 2570 128 
Q 2203 -75 1769 -75 
Q 1072 -75 642 372 
Q 213 819 213 1659 
z
M 791 1659 
Q 791 1022 1069 705 
Q 1347 388 1769 388 
Q 2188 388 2466 706 
Q 2744 1025 2744 1678 
Q 2744 2294 2464 2611 
Q 2184 2928 1769 2928 
Q 1347 2928 1069 2612 
Q 791 2297 791 1659 
z
" transform="scale(0.015625)"/>
       <path id="ArialMT-74" d="M 1650 503 
L 1731 6 
Q 1494 -44 1306 -44 
Q 1000 -44 831 53 
Q 663 150 594 308 
Q 525 466 525 972 
L 525 2881 
L 113 2881 
L 113 3319 
L 525 3319 
L 525 4141 
L 1084 4478 
L 1084 3319 
L 1650 3319 
L 1650 2881 
L 1084 2881 
L 1084 941 
Q 1084 700 1114 631 
Q 1144 563 1211 522 
Q 1278 481 1403 481 
Q 1497 481 1650 503 
z
" transform="scale(0.015625)"/>
      </defs>
      <use xlink:href="#ArialMT-46"/>
      <use xlink:href="#ArialMT-69" x="61.083984"/>
      <use xlink:href="#ArialMT-6e" x="83.300781"/>
      <use xlink:href="#ArialMT-61" x="138.916016"/>
      <use xlink:href="#ArialMT-6c" x="194.53125"/>
      <use xlink:href="#ArialMT-20" x="216.748047"/>
      <use xlink:href="#ArialMT-70" x="244.53125"/>
      <use xlink:href="#ArialMT-6f" x="300.146484"/>
      <use xlink:href="#ArialMT-69" x="355.761719"/>
      <use xlink:href="#ArialMT-6e" x="377.978516"/>
      <use xlink:href="#ArialMT-74" x="433.59375"/>
     </g>
    </g>
   </g>
  </g>
 </g>
 <defs>
  <clipPath id="p8c679ac6fc">
   <rect x="38.312875" y="21.372" width="357.12" height="266.112"/>
  </clipPath>
 </defs>
</svg>