<?xml version="1.0" encoding="utf-8" standalone="no"?>
<!DOCTYPE svg PUBLIC "-//W3C//DTD SVG 1.1//EN"
  "http://www.w3.org/Graphics/SVG/1.1/DTD/svg11.dtd">
<svg xmlns:xlink="http://www.w3.org/1999/xlink" width="410.20075pt" height="309.639375pt" viewBox="0 0 410.20075 309.639375" xmlns="http://www.w3.org/2000/svg" version="1.1">
 <metadata>
  <rdf:RDF xmlns:dc="http://purl.org/dc/elements/1.1/" xmlns:cc="http://creativecommons.org/ns#" xmlns:rdf="http://www.w3.org/1999/02/22-rdf-syntax-ns#">
   <cc:Work>
    <dc:type rdf:resource="http://purl.org/dc/dcmitype/StillImage"/>
    <dc:date>2025-02-07T10:00:25.734232</dc:date>
    <dc:format>image/svg+xml</dc:format>
    <dc:creator>
     <cc:Agent>
      <dc:title>Matplotlib v3.9.2, https://matplotlib.org/</dc:title>
     </cc:Agent>
    </dc:creator>
   </cc:Work>
  </rdf:RDF>
 </metadata>
 <defs>
  <style type="text/css">*{stroke-linejoin: round; stroke-linecap: butt}</style>
 </defs>
 <g id="figure_1">
  <g id="patch_1">
   <path d="M 0 309.639375 
L 410.20075 309.639375 
L 410.20075 0 
L 0 0 
z
" style="fill: #ffffff"/>
  </g>
  <g id="axes_1">
   <g id="patch_2">
    <path d="M 45.88075 273.312 
L 403.00075 273.312 
L 403.00075 7.2 
L 45.88075 7.2 
z
" style="fill: #ffffff"/>
   </g>
   <g id="matplotlib.axis_1">
    <g id="xtick_1">
     <g id="line2d_1">
      <defs>
       <path id="mcff3e41c56" d="M 0 0 
L 0 4.8 
" style="stroke: #262626"/>
      </defs>
      <g>
       <use xlink:href="#mcff3e41c56" x="62.113477" y="273.312" style="fill: #262626; stroke: #262626"/>
      </g>
     </g>
     <g id="text_1">
      <!-- 0 -->
      <g style="fill: #262626" transform="translate(59.666665 287.910875) scale(0.088 -0.088)">
       <defs>
        <path id="ArialMT-30" d="M 266 2259 
Q 266 3072 433 3567 
Q 600 4063 929 4331 
Q 1259 4600 1759 4600 
Q 2128 4600 2406 4451 
Q 2684 4303 2865 4023 
Q 3047 3744 3150 3342 
Q 3253 2941 3253 2259 
Q 3253 1453 3087 958 
Q 2922 463 2592 192 
Q 2263 -78 1759 -78 
Q 1097 -78 719 397 
Q 266 969 266 2259 
z
M 844 2259 
Q 844 1131 1108 757 
Q 1372 384 1759 384 
Q 2147 384 2411 759 
Q 2675 1134 2675 2259 
Q 2675 3391 2411 3762 
Q 2147 4134 1753 4134 
Q 1366 4134 1134 3806 
Q 844 3388 844 2259 
z
" transform="scale(0.015625)"/>
       </defs>
       <use xlink:href="#ArialMT-30"/>
      </g>
     </g>
    </g>
    <g id="xtick_2">
     <g id="line2d_2">
      <g>
       <use xlink:href="#mcff3e41c56" x="127.076884" y="273.312" style="fill: #262626; stroke: #262626"/>
      </g>
     </g>
     <g id="text_2">
      <!-- 5 -->
      <g style="fill: #262626" transform="translate(124.630072 287.910875) scale(0.088 -0.088)">
       <defs>
        <path id="ArialMT-35" d="M 266 1200 
L 856 1250 
Q 922 819 1161 601 
Q 1400 384 1738 384 
Q 2144 384 2425 690 
Q 2706 997 2706 1503 
Q 2706 1984 2436 2262 
Q 2166 2541 1728 2541 
Q 1456 2541 1237 2417 
Q 1019 2294 894 2097 
L 366 2166 
L 809 4519 
L 3088 4519 
L 3088 3981 
L 1259 3981 
L 1013 2750 
Q 1425 3038 1878 3038 
Q 2478 3038 2890 2622 
Q 3303 2206 3303 1553 
Q 3303 931 2941 478 
Q 2500 -78 1738 -78 
Q 1113 -78 717 272 
Q 322 622 266 1200 
z
" transform="scale(0.015625)"/>
       </defs>
       <use xlink:href="#ArialMT-35"/>
      </g>
     </g>
    </g>
    <g id="xtick_3">
     <g id="line2d_3">
      <g>
       <use xlink:href="#mcff3e41c56" x="192.040291" y="273.312" style="fill: #262626; stroke: #262626"/>
      </g>
     </g>
     <g id="text_3">
      <!-- 10 -->
      <g style="fill: #262626" transform="translate(187.146666 287.910875) scale(0.088 -0.088)">
       <defs>
        <path id="ArialMT-31" d="M 2384 0 
L 1822 0 
L 1822 3584 
Q 1619 3391 1289 3197 
Q 959 3003 697 2906 
L 697 3450 
Q 1169 3672 1522 3987 
Q 1875 4303 2022 4600 
L 2384 4600 
L 2384 0 
z
" transform="scale(0.015625)"/>
       </defs>
       <use xlink:href="#ArialMT-31"/>
       <use xlink:href="#ArialMT-30" x="55.615234"/>
      </g>
     </g>
    </g>
    <g id="xtick_4">
     <g id="line2d_4">
      <g>
       <use xlink:href="#mcff3e41c56" x="257.003698" y="273.312" style="fill: #262626; stroke: #262626"/>
      </g>
     </g>
     <g id="text_4">
      <!-- 15 -->
      <g style="fill: #262626" transform="translate(252.110073 287.910875) scale(0.088 -0.088)">
       <use xlink:href="#ArialMT-31"/>
       <use xlink:href="#ArialMT-35" x="55.615234"/>
      </g>
     </g>
    </g>
    <g id="xtick_5">
     <g id="line2d_5">
      <g>
       <use xlink:href="#mcff3e41c56" x="321.967105" y="273.312" style="fill: #262626; stroke: #262626"/>
      </g>
     </g>
     <g id="text_5">
      <!-- 20 -->
      <g style="fill: #262626" transform="translate(317.07348 287.910875) scale(0.088 -0.088)">
       <defs>
        <path id="ArialMT-32" d="M 3222 541 
L 3222 0 
L 194 0 
Q 188 203 259 391 
Q 375 700 629 1000 
Q 884 1300 1366 1694 
Q 2113 2306 2375 2664 
Q 2638 3022 2638 3341 
Q 2638 3675 2398 3904 
Q 2159 4134 1775 4134 
Q 1369 4134 1125 3890 
Q 881 3647 878 3216 
L 300 3275 
Q 359 3922 746 4261 
Q 1134 4600 1788 4600 
Q 2447 4600 2831 4234 
Q 3216 3869 3216 3328 
Q 3216 3053 3103 2787 
Q 2991 2522 2730 2228 
Q 2469 1934 1863 1422 
Q 1356 997 1212 845 
Q 1069 694 975 541 
L 3222 541 
z
" transform="scale(0.015625)"/>
       </defs>
       <use xlink:href="#ArialMT-32"/>
       <use xlink:href="#ArialMT-30" x="55.615234"/>
      </g>
     </g>
    </g>
    <g id="xtick_6">
     <g id="line2d_6">
      <g>
       <use xlink:href="#mcff3e41c56" x="386.930512" y="273.312" style="fill: #262626; stroke: #262626"/>
      </g>
     </g>
     <g id="text_6">
      <!-- 25 -->
      <g style="fill: #262626" transform="translate(382.036887 287.910875) scale(0.088 -0.088)">
       <use xlink:href="#ArialMT-32"/>
       <use xlink:href="#ArialMT-35" x="55.615234"/>
      </g>
     </g>
    </g>
    <g id="text_7">
     <!-- t -->
     <g style="fill: #262626" transform="translate(223.10725 300.531375) scale(0.096 -0.096)">
      <defs>
       <path id="ArialMT-74" d="M 1650 503 
L 1731 6 
Q 1494 -44 1306 -44 
Q 1000 -44 831 53 
Q 663 150 594 308 
Q 525 466 525 972 
L 525 2881 
L 113 2881 
L 113 3319 
L 525 3319 
L 525 4141 
L 1084 4478 
L 1084 3319 
L 1650 3319 
L 1650 2881 
L 1084 2881 
L 1084 941 
Q 1084 700 1114 631 
Q 1144 563 1211 522 
Q 1278 481 1403 481 
Q 1497 481 1650 503 
z
" transform="scale(0.015625)"/>
      </defs>
      <use xlink:href="#ArialMT-74"/>
     </g>
    </g>
   </g>
   <g id="matplotlib.axis_2">
    <g id="ytick_1">
     <g id="line2d_7">
      <defs>
       <path id="m995d45b475" d="M 0 0 
L -4.8 0 
" style="stroke: #262626"/>
      </defs>
      <g>
       <use xlink:href="#m995d45b475" x="45.88075" y="271.661387" style="fill: #262626; stroke: #262626"/>
      </g>
     </g>
     <g id="text_8">
      <!-- −0.8 -->
      <g style="fill: #262626" transform="translate(20.209 274.810825) scale(0.088 -0.088)">
       <defs>
        <path id="ArialMT-2212" d="M 3381 1997 
L 356 1997 
L 356 2522 
L 3381 2522 
L 3381 1997 
z
" transform="scale(0.015625)"/>
        <path id="ArialMT-2e" d="M 581 0 
L 581 641 
L 1222 641 
L 1222 0 
L 581 0 
z
" transform="scale(0.015625)"/>
        <path id="ArialMT-38" d="M 1131 2484 
Q 781 2613 612 2850 
Q 444 3088 444 3419 
Q 444 3919 803 4259 
Q 1163 4600 1759 4600 
Q 2359 4600 2725 4251 
Q 3091 3903 3091 3403 
Q 3091 3084 2923 2848 
Q 2756 2613 2416 2484 
Q 2838 2347 3058 2040 
Q 3278 1734 3278 1309 
Q 3278 722 2862 322 
Q 2447 -78 1769 -78 
Q 1091 -78 675 323 
Q 259 725 259 1325 
Q 259 1772 486 2073 
Q 713 2375 1131 2484 
z
M 1019 3438 
Q 1019 3113 1228 2906 
Q 1438 2700 1772 2700 
Q 2097 2700 2305 2904 
Q 2513 3109 2513 3406 
Q 2513 3716 2298 3927 
Q 2084 4138 1766 4138 
Q 1444 4138 1231 3931 
Q 1019 3725 1019 3438 
z
M 838 1322 
Q 838 1081 952 856 
Q 1066 631 1291 507 
Q 1516 384 1775 384 
Q 2178 384 2440 643 
Q 2703 903 2703 1303 
Q 2703 1709 2433 1975 
Q 2163 2241 1756 2241 
Q 1359 2241 1098 1978 
Q 838 1716 838 1322 
z
" transform="scale(0.015625)"/>
       </defs>
       <use xlink:href="#ArialMT-2212"/>
       <use xlink:href="#ArialMT-30" x="58.398438"/>
       <use xlink:href="#ArialMT-2e" x="114.013672"/>
       <use xlink:href="#ArialMT-38" x="141.796875"/>
      </g>
     </g>
    </g>
    <g id="ytick_2">
     <g id="line2d_8">
      <g>
       <use xlink:href="#m995d45b475" x="45.88075" y="239.632102" style="fill: #262626; stroke: #262626"/>
      </g>
     </g>
     <g id="text_9">
      <!-- −0.6 -->
      <g style="fill: #262626" transform="translate(20.209 242.78154) scale(0.088 -0.088)">
       <defs>
        <path id="ArialMT-36" d="M 3184 3459 
L 2625 3416 
Q 2550 3747 2413 3897 
Q 2184 4138 1850 4138 
Q 1581 4138 1378 3988 
Q 1113 3794 959 3422 
Q 806 3050 800 2363 
Q 1003 2672 1297 2822 
Q 1591 2972 1913 2972 
Q 2475 2972 2870 2558 
Q 3266 2144 3266 1488 
Q 3266 1056 3080 686 
Q 2894 316 2569 119 
Q 2244 -78 1831 -78 
Q 1128 -78 684 439 
Q 241 956 241 2144 
Q 241 3472 731 4075 
Q 1159 4600 1884 4600 
Q 2425 4600 2770 4297 
Q 3116 3994 3184 3459 
z
M 888 1484 
Q 888 1194 1011 928 
Q 1134 663 1356 523 
Q 1578 384 1822 384 
Q 2178 384 2434 671 
Q 2691 959 2691 1453 
Q 2691 1928 2437 2201 
Q 2184 2475 1800 2475 
Q 1419 2475 1153 2201 
Q 888 1928 888 1484 
z
" transform="scale(0.015625)"/>
       </defs>
       <use xlink:href="#ArialMT-2212"/>
       <use xlink:href="#ArialMT-30" x="58.398438"/>
       <use xlink:href="#ArialMT-2e" x="114.013672"/>
       <use xlink:href="#ArialMT-36" x="141.796875"/>
      </g>
     </g>
    </g>
    <g id="ytick_3">
     <g id="line2d_9">
      <g>
       <use xlink:href="#m995d45b475" x="45.88075" y="207.602817" style="fill: #262626; stroke: #262626"/>
      </g>
     </g>
     <g id="text_10">
      <!-- −0.4 -->
      <g style="fill: #262626" transform="translate(20.209 210.752255) scale(0.088 -0.088)">
       <defs>
        <path id="ArialMT-34" d="M 2069 0 
L 2069 1097 
L 81 1097 
L 81 1613 
L 2172 4581 
L 2631 4581 
L 2631 1613 
L 3250 1613 
L 3250 1097 
L 2631 1097 
L 2631 0 
L 2069 0 
z
M 2069 1613 
L 2069 3678 
L 634 1613 
L 2069 1613 
z
" transform="scale(0.015625)"/>
       </defs>
       <use xlink:href="#ArialMT-2212"/>
       <use xlink:href="#ArialMT-30" x="58.398438"/>
       <use xlink:href="#ArialMT-2e" x="114.013672"/>
       <use xlink:href="#ArialMT-34" x="141.796875"/>
      </g>
     </g>
    </g>
    <g id="ytick_4">
     <g id="line2d_10">
      <g>
       <use xlink:href="#m995d45b475" x="45.88075" y="175.573533" style="fill: #262626; stroke: #262626"/>
      </g>
     </g>
     <g id="text_11">
      <!-- −0.2 -->
      <g style="fill: #262626" transform="translate(20.209 178.72297) scale(0.088 -0.088)">
       <use xlink:href="#ArialMT-2212"/>
       <use xlink:href="#ArialMT-30" x="58.398438"/>
       <use xlink:href="#ArialMT-2e" x="114.013672"/>
       <use xlink:href="#ArialMT-32" x="141.796875"/>
      </g>
     </g>
    </g>
    <g id="ytick_5">
     <g id="line2d_11">
      <g>
       <use xlink:href="#m995d45b475" x="45.88075" y="143.544248" style="fill: #262626; stroke: #262626"/>
      </g>
     </g>
     <g id="text_12">
      <!-- 0.0 -->
      <g style="fill: #262626" transform="translate(25.34875 146.693685) scale(0.088 -0.088)">
       <use xlink:href="#ArialMT-30"/>
       <use xlink:href="#ArialMT-2e" x="55.615234"/>
       <use xlink:href="#ArialMT-30" x="83.398438"/>
      </g>
     </g>
    </g>
    <g id="ytick_6">
     <g id="line2d_12">
      <g>
       <use xlink:href="#m995d45b475" x="45.88075" y="111.514963" style="fill: #262626; stroke: #262626"/>
      </g>
     </g>
     <g id="text_13">
      <!-- 0.2 -->
      <g style="fill: #262626" transform="translate(25.34875 114.6644) scale(0.088 -0.088)">
       <use xlink:href="#ArialMT-30"/>
       <use xlink:href="#ArialMT-2e" x="55.615234"/>
       <use xlink:href="#ArialMT-32" x="83.398438"/>
      </g>
     </g>
    </g>
    <g id="ytick_7">
     <g id="line2d_13">
      <g>
       <use xlink:href="#m995d45b475" x="45.88075" y="79.485678" style="fill: #262626; stroke: #262626"/>
      </g>
     </g>
     <g id="text_14">
      <!-- 0.4 -->
      <g style="fill: #262626" transform="translate(25.34875 82.635115) scale(0.088 -0.088)">
       <use xlink:href="#ArialMT-30"/>
       <use xlink:href="#ArialMT-2e" x="55.615234"/>
       <use xlink:href="#ArialMT-34" x="83.398438"/>
      </g>
     </g>
    </g>
    <g id="ytick_8">
     <g id="line2d_14">
      <g>
       <use xlink:href="#m995d45b475" x="45.88075" y="47.456393" style="fill: #262626; stroke: #262626"/>
      </g>
     </g>
     <g id="text_15">
      <!-- 0.6 -->
      <g style="fill: #262626" transform="translate(25.34875 50.60583) scale(0.088 -0.088)">
       <use xlink:href="#ArialMT-30"/>
       <use xlink:href="#ArialMT-2e" x="55.615234"/>
       <use xlink:href="#ArialMT-36" x="83.398438"/>
      </g>
     </g>
    </g>
    <g id="ytick_9">
     <g id="line2d_15">
      <g>
       <use xlink:href="#m995d45b475" x="45.88075" y="15.427108" style="fill: #262626; stroke: #262626"/>
      </g>
     </g>
     <g id="text_16">
      <!-- 0.8 -->
      <g style="fill: #262626" transform="translate(25.34875 18.576546) scale(0.088 -0.088)">
       <use xlink:href="#ArialMT-30"/>
       <use xlink:href="#ArialMT-2e" x="55.615234"/>
       <use xlink:href="#ArialMT-38" x="83.398438"/>
      </g>
     </g>
    </g>
    <g id="text_17">
     <!-- v(t) -->
     <g style="fill: #262626" transform="translate(14.1885 147.186) rotate(-90) scale(0.096 -0.096)">
      <defs>
       <path id="ArialMT-76" d="M 1344 0 
L 81 3319 
L 675 3319 
L 1388 1331 
Q 1503 1009 1600 663 
Q 1675 925 1809 1294 
L 2547 3319 
L 3125 3319 
L 1869 0 
L 1344 0 
z
" transform="scale(0.015625)"/>
       <path id="ArialMT-28" d="M 1497 -1347 
Q 1031 -759 709 28 
Q 388 816 388 1659 
Q 388 2403 628 3084 
Q 909 3875 1497 4659 
L 1900 4659 
Q 1522 4009 1400 3731 
Q 1209 3300 1100 2831 
Q 966 2247 966 1656 
Q 966 153 1900 -1347 
L 1497 -1347 
z
" transform="scale(0.015625)"/>
       <path id="ArialMT-29" d="M 791 -1347 
L 388 -1347 
Q 1322 153 1322 1656 
Q 1322 2244 1188 2822 
Q 1081 3291 891 3722 
Q 769 4003 388 4659 
L 791 4659 
Q 1378 3875 1659 3084 
Q 1900 2403 1900 1659 
Q 1900 816 1576 28 
Q 1253 -759 791 -1347 
z
" transform="scale(0.015625)"/>
      </defs>
      <use xlink:href="#ArialMT-76"/>
      <use xlink:href="#ArialMT-28" x="50"/>
      <use xlink:href="#ArialMT-74" x="83.300781"/>
      <use xlink:href="#ArialMT-29" x="111.083984"/>
     </g>
    </g>
   </g>
   <g id="line2d_16">
    <path d="M 62.113477 143.544248 
L 65.363273 129.212816 
L 67.31315 121.534504 
L 68.938047 115.9834 
L 70.237965 112.235199 
L 71.537883 109.202572 
L 72.512822 107.450391 
L 73.487761 106.185077 
L 74.13772 105.628597 
L 74.787679 105.312747 
L 75.437638 105.246335 
L 76.087597 105.437483 
L 76.737556 105.893451 
L 77.387515 106.620443 
L 78.037474 107.623398 
L 79.012413 109.652333 
L 79.987351 112.313512 
L 80.96229 115.600276 
L 82.262208 120.921253 
L 83.562126 127.237503 
L 85.187024 136.338505 
L 87.136901 148.585308 
L 94.61143 197.217609 
L 96.561307 207.907748 
L 98.511184 217.268271 
L 100.136082 223.950788 
L 101.436 228.462388 
L 102.410938 231.275562 
L 103.385877 233.51008 
L 104.035836 234.626194 
L 104.685795 235.399473 
L 105.335754 235.786675 
L 105.660734 235.820762 
L 105.985713 235.740112 
L 106.635672 235.208563 
L 107.285631 234.138468 
L 107.93559 232.475695 
L 108.585549 230.167552 
L 109.235508 227.165473 
L 110.210447 221.272496 
L 111.185386 213.631179 
L 112.160324 204.219956 
L 113.460242 189.058112 
L 115.08514 166.614851 
L 120.934771 80.668661 
L 122.234689 66.063022 
L 123.534607 54.062685 
L 124.834526 44.55176 
L 125.809464 38.868195 
L 126.784403 34.239902 
L 127.759341 30.491606 
L 128.73428 27.464174 
L 129.709218 25.031444 
L 130.684157 23.113444 
L 131.659096 21.6859 
L 132.309055 21.022737 
L 132.959014 20.62031 
L 133.608973 20.518861 
L 134.258932 20.771167 
L 134.908891 21.441574 
L 135.55885 22.604432 
L 136.208809 24.341955 
L 136.858768 26.741095 
L 137.508727 29.889802 
L 138.158686 33.872211 
L 139.133625 41.569659 
L 140.108563 51.494123 
L 141.083502 63.712693 
L 142.38342 83.397831 
L 144.008318 112.396978 
L 148.558031 197.553194 
L 149.857949 216.80355 
L 150.832888 228.731455 
L 151.807826 238.433166 
L 152.782765 245.989609 
L 153.757703 251.581537 
L 154.407662 254.336465 
L 155.057621 256.405016 
L 155.70758 257.867525 
L 156.35754 258.801588 
L 157.007499 259.279319 
L 157.657458 259.365143 
L 158.307417 259.114221 
L 158.957376 258.571561 
L 159.607335 257.771307 
L 160.582273 256.136082 
L 161.557212 254.0056 
L 162.53215 251.365408 
L 163.507089 248.159877 
L 164.482028 244.30322 
L 165.456966 239.692825 
L 166.431905 234.225131 
L 167.731823 225.454419 
L 169.031741 214.897973 
L 170.331659 202.607163 
L 171.956557 185.194244 
L 178.131168 115.99207 
L 179.431086 104.625158 
L 180.731004 95.209363 
L 181.705942 89.480863 
L 182.680881 84.880767 
L 183.65582 81.359324 
L 184.630758 78.843019 
L 185.280717 77.680395 
L 185.930676 76.896735 
L 186.580635 76.46308 
L 187.230594 76.350586 
L 187.880553 76.531191 
L 188.530512 76.978063 
L 189.180472 77.665876 
L 190.15541 79.098317 
L 191.130349 80.948735 
L 192.430267 83.959658 
L 194.055164 88.426242 
L 196.005042 94.56093 
L 198.604878 103.590372 
L 204.454509 124.284676 
L 206.404386 130.294325 
L 208.029284 134.651274 
L 209.329202 137.636071 
L 210.62912 140.138211 
L 211.929038 142.140648 
L 212.903977 143.313562 
L 213.878915 144.210207 
L 214.853854 144.840584 
L 215.828793 145.218852 
L 216.803731 145.362786 
L 217.77867 145.29334 
L 218.753608 145.034163 
L 220.053526 144.438449 
L 221.678424 143.385479 
L 223.953281 141.583017 
L 226.878096 139.27441 
L 228.502994 138.268808 
L 229.802912 137.719648 
L 230.777851 137.496693 
L 231.752789 137.461553 
L 232.727728 137.635017 
L 233.702666 138.035224 
L 234.677605 138.677352 
L 235.652544 139.573231 
L 236.627482 140.731095 
L 237.9274 142.689224 
L 239.227318 145.118654 
L 240.527236 148.003702 
L 242.152134 152.203257 
L 244.102011 157.988379 
L 246.376868 165.483021 
L 252.551479 186.293333 
L 254.176377 190.963297 
L 255.801274 194.948536 
L 257.101192 197.531192 
L 258.076131 199.060476 
L 259.051069 200.202086 
L 260.026008 200.921982 
L 260.675967 201.150973 
L 261.325926 201.167663 
L 261.975885 200.962397 
L 262.625844 200.525787 
L 263.275803 199.848808 
L 263.925762 198.923074 
L 264.900701 197.051527 
L 265.875639 194.581741 
L 266.850578 191.498884 
L 268.150496 186.42569 
L 269.450414 180.268256 
L 270.750332 173.081573 
L 272.37523 162.806329 
L 274.325107 148.977552 
L 281.799636 93.806436 
L 283.424534 84.128112 
L 284.724452 77.488559 
L 286.02437 71.929855 
L 286.999309 68.508133 
L 287.974247 65.747406 
L 288.949186 63.661262 
L 289.599145 62.650621 
L 290.249104 61.947378 
L 290.899063 61.554334 
L 291.549022 61.474161 
L 292.198981 61.709572 
L 292.84894 62.263104 
L 293.498899 63.137183 
L 294.148858 64.333741 
L 295.123797 66.736021 
L 296.098735 69.867303 
L 297.073674 73.721043 
L 298.373592 79.954598 
L 299.67351 87.374078 
L 301.298408 98.141813 
L 303.248285 112.822563 
L 306.49808 139.592989 
L 309.747875 165.768545 
L 311.697752 179.641209 
L 313.32265 189.611071 
L 314.622568 196.380046 
L 315.922486 201.998028 
L 316.897425 205.432808 
L 317.872363 208.193339 
L 318.847302 210.281206 
L 319.497261 211.302695 
L 320.14722 212.031702 
L 320.797179 212.472321 
L 321.447138 212.629458 
L 322.097097 212.508694 
L 322.747056 212.116304 
L 323.397015 211.459231 
L 324.046974 210.545086 
L 325.021913 208.710494 
L 325.996852 206.348171 
L 327.29677 202.439883 
L 328.596688 197.754398 
L 330.221585 190.974518 
L 332.171463 181.809529 
L 335.421258 165.244401 
L 338.996033 147.380484 
L 340.94591 138.642163 
L 342.570807 132.177981 
L 344.195705 126.575724 
L 345.495623 122.759916 
L 346.795541 119.553747 
L 348.095459 116.958248 
L 349.070398 115.405961 
L 350.045336 114.18221 
L 351.020275 113.275219 
L 351.995214 112.670699 
L 352.970152 112.351983 
L 353.945091 112.300485 
L 354.920029 112.495919 
L 355.894968 112.916576 
L 357.194886 113.788192 
L 358.494804 114.963099 
L 360.119702 116.770066 
L 362.069579 119.285553 
L 369.869087 129.769079 
L 371.818965 131.843164 
L 373.443862 133.293442 
L 375.06876 134.481155 
L 376.693657 135.41433 
L 378.318555 136.115802 
L 380.268432 136.702866 
L 382.543289 137.141539 
L 386.768023 137.776042 
L 386.768023 137.776042 
" clip-path="url(#p0cd1b5ada3)" style="fill: none; stroke: #1f77b4; stroke-width: 1.2; stroke-linecap: round"/>
   </g>
   <g id="line2d_17">
    <path d="M 62.113477 143.544248 
L 65.363273 129.211915 
L 67.31315 121.532292 
L 68.938047 115.979391 
L 70.237965 112.229216 
L 71.537883 109.194091 
L 72.512822 107.439693 
L 73.487761 106.171852 
L 74.13772 105.613501 
L 74.787679 105.295639 
L 75.437638 105.227081 
L 76.087597 105.415941 
L 76.737556 105.869487 
L 77.387515 106.59394 
L 78.037474 107.594253 
L 79.012413 109.619065 
L 79.987351 112.276027 
L 80.96229 115.558624 
L 82.262208 120.874442 
L 83.562126 127.186491 
L 85.187024 136.284574 
L 87.136901 148.533037 
L 94.61143 197.251877 
L 96.561307 207.992541 
L 98.511184 217.421929 
L 100.136082 224.180967 
L 101.436 228.769637 
L 102.735918 232.489984 
L 103.710856 234.589921 
L 104.360816 235.598553 
L 105.010775 236.246643 
L 105.660734 236.487771 
L 105.985713 236.440015 
L 106.310693 236.271174 
L 106.960652 235.542578 
L 107.610611 234.245836 
L 108.26057 232.324743 
L 108.910529 229.725311 
L 109.560488 226.398714 
L 110.535426 219.959616 
L 111.510365 211.710783 
L 112.485304 201.650401 
L 113.785222 185.609534 
L 115.410119 162.174151 
L 120.609792 83.808286 
L 121.90971 68.446469 
L 123.209628 55.785261 
L 124.184567 48.025633 
L 125.159505 41.623352 
L 126.134444 36.40722 
L 127.109382 32.185707 
L 128.084321 28.770834 
L 129.059259 25.997913 
L 130.034198 23.741192 
L 131.009137 21.925577 
L 131.984075 20.535212 
L 132.634034 19.866122 
L 133.283993 19.438018 
L 133.933952 19.296 
L 134.583911 19.498631 
L 135.23387 20.116968 
L 135.883829 21.233501 
L 136.533788 22.939716 
L 137.183748 25.333558 
L 137.833707 28.515197 
L 138.483666 32.582446 
L 139.458604 40.535226 
L 140.433543 50.908995 
L 141.408481 63.805647 
L 142.708399 84.76615 
L 144.333297 115.835693 
L 148.558031 200.232054 
L 149.857949 220.596886 
L 150.832888 232.975973 
L 151.807826 242.801737 
L 152.782765 250.198007 
L 153.432724 253.897478 
L 154.082683 256.71805 
L 154.732642 258.759759 
L 155.382601 260.124771 
L 156.03256 260.912425 
L 156.682519 261.216 
L 157.332478 261.119848 
L 157.982437 260.697815 
L 158.632396 260.012078 
L 159.607335 258.595052 
L 160.907253 256.148014 
L 162.207171 253.160787 
L 163.507089 249.585359 
L 164.807007 245.237922 
L 165.781946 241.303881 
L 166.756884 236.639171 
L 167.731823 231.102989 
L 169.031741 222.15297 
L 170.331659 211.234698 
L 171.631577 198.324912 
L 173.256475 179.727259 
L 176.181291 142.600961 
L 178.131168 118.862204 
L 179.756065 101.875466 
L 181.055983 90.846066 
L 182.030922 84.231795 
L 183.005861 79.052508 
L 183.980799 75.253879 
L 184.630758 73.440096 
L 185.280717 72.157714 
L 185.930676 71.364639 
L 186.580635 71.016501 
L 187.230594 71.06818 
L 187.880553 71.475018 
L 188.530512 72.193844 
L 189.505451 73.768217 
L 190.48039 75.826678 
L 191.780308 79.135024 
L 193.730185 84.879035 
L 197.954919 98.428912 
L 200.879734 107.450396 
L 203.154591 113.832486 
L 205.104468 118.713011 
L 207.054345 122.962843 
L 208.679243 125.982405 
L 210.304141 128.510194 
L 211.604059 130.178936 
L 212.903977 131.54325 
L 214.203895 132.620651 
L 215.503813 133.436692 
L 216.803731 134.02459 
L 218.428629 134.500678 
L 220.378506 134.815695 
L 224.60324 135.382315 
L 226.228137 135.87816 
L 227.528055 136.497117 
L 228.827974 137.363542 
L 230.127892 138.515365 
L 231.42781 139.981171 
L 232.727728 141.778907 
L 234.027646 143.915131 
L 235.652544 147.052565 
L 237.277441 150.675952 
L 239.227318 155.583334 
L 241.502175 161.912701 
L 245.07695 172.642692 
L 252.876458 196.310779 
L 255.801274 204.46044 
L 257.751151 209.308618 
L 259.051069 212.097046 
L 260.350988 214.362539 
L 261.325926 215.604724 
L 261.975885 216.162614 
L 262.625844 216.467435 
L 263.275803 216.485079 
L 263.925762 216.179849 
L 264.575721 215.515026 
L 265.22568 214.453908 
L 265.875639 212.960763 
L 266.525598 211.002252 
L 267.500537 207.12858 
L 268.475476 202.067285 
L 269.450414 195.78271 
L 270.750332 185.536115 
L 272.05025 173.354409 
L 273.675148 156.035809 
L 278.87482 98.806846 
L 280.174739 87.217928 
L 281.474657 77.424819 
L 282.774575 69.451368 
L 283.749513 64.590786 
L 284.724452 60.586518 
L 285.69939 57.324411 
L 286.674329 54.684115 
L 287.649268 52.550034 
L 288.949186 50.31794 
L 290.249104 48.622034 
L 291.549022 47.362147 
L 292.52396 46.69782 
L 293.498899 46.312326 
L 294.148858 46.244038 
L 294.798817 46.359949 
L 295.448776 46.695634 
L 296.098735 47.292484 
L 296.748694 48.196869 
L 297.398653 49.459334 
L 298.048612 51.132913 
L 298.698571 53.271939 
L 299.67351 57.468385 
L 300.648449 62.992741 
L 301.623387 69.968876 
L 302.598326 78.459663 
L 303.898244 92.092681 
L 305.523141 112.356512 
L 308.122978 148.904836 
L 310.397834 179.724708 
L 311.697752 194.856274 
L 312.997671 207.44927 
L 313.972609 215.086195 
L 314.947548 221.184152 
L 315.922486 225.833231 
L 316.897425 229.176322 
L 317.547384 230.764583 
L 318.197343 231.904246 
L 318.847302 232.65053 
L 319.497261 233.056833 
L 320.14722 233.173717 
L 320.797179 233.047583 
L 321.447138 232.720049 
L 322.422077 231.929236 
L 323.721995 230.463185 
L 325.346893 228.176482 
L 326.97179 225.494138 
L 328.596688 222.365046 
L 329.896606 219.414346 
L 331.196524 215.911497 
L 332.496442 211.691091 
L 333.79636 206.589672 
L 335.096278 200.472118 
L 336.396196 193.258634 
L 338.021094 182.712383 
L 339.970971 168.142888 
L 346.145582 119.714333 
L 347.4455 111.603153 
L 348.745418 104.813333 
L 349.720357 100.640516 
L 350.695295 97.256084 
L 351.670234 94.630697 
L 352.645173 92.713976 
L 353.295132 91.797797 
L 353.945091 91.14535 
L 354.59505 90.733248 
L 355.245009 90.53739 
L 355.894968 90.533633 
L 356.544927 90.698059 
L 357.519865 91.209629 
L 358.494804 91.973797 
L 359.794722 93.269809 
L 362.069579 95.923755 
L 364.994395 99.309467 
L 366.944272 101.221554 
L 368.569169 102.516225 
L 370.194067 103.530727 
L 371.818965 104.295668 
L 374.093821 105.07534 
L 377.343617 106.132739 
L 378.643535 106.75424 
L 379.943453 107.611621 
L 381.243371 108.78979 
L 382.543289 110.370417 
L 383.843207 112.426591 
L 385.143125 115.016704 
L 386.443043 118.178398 
L 386.768023 119.060118 
L 386.768023 119.060118 
" clip-path="url(#p0cd1b5ada3)" style="fill: none; stroke-dasharray: 4.44,1.92; stroke-dashoffset: 0; stroke: #ff7f0e; stroke-width: 1.2"/>
   </g>
   <g id="patch_3">
    <path d="M 45.88075 271.661387 
L 45.88075 15.427108 
" style="fill: none; stroke: #262626; stroke-linejoin: miter; stroke-linecap: square"/>
   </g>
   <g id="patch_4">
    <path d="M 62.113477 273.312 
L 386.930512 273.312 
" style="fill: none; stroke: #262626; stroke-linejoin: miter; stroke-linecap: square"/>
   </g>
   <g id="legend_1">
    <g id="line2d_18">
     <path d="M 296.112375 18.446125 
L 304.912375 18.446125 
L 313.712375 18.446125 
" style="fill: none; stroke: #1f77b4; stroke-width: 1.2; stroke-linecap: round"/>
    </g>
    <g id="text_18">
     <!-- v (Monte Carlo) -->
     <g style="fill: #262626" transform="translate(320.752375 21.526125) scale(0.088 -0.088)">
      <defs>
       <path id="ArialMT-20" transform="scale(0.015625)"/>
       <path id="ArialMT-4d" d="M 475 0 
L 475 4581 
L 1388 4581 
L 2472 1338 
Q 2622 884 2691 659 
Q 2769 909 2934 1394 
L 4031 4581 
L 4847 4581 
L 4847 0 
L 4263 0 
L 4263 3834 
L 2931 0 
L 2384 0 
L 1059 3900 
L 1059 0 
L 475 0 
z
" transform="scale(0.015625)"/>
       <path id="ArialMT-6f" d="M 213 1659 
Q 213 2581 725 3025 
Q 1153 3394 1769 3394 
Q 2453 3394 2887 2945 
Q 3322 2497 3322 1706 
Q 3322 1066 3130 698 
Q 2938 331 2570 128 
Q 2203 -75 1769 -75 
Q 1072 -75 642 372 
Q 213 819 213 1659 
z
M 791 1659 
Q 791 1022 1069 705 
Q 1347 388 1769 388 
Q 2188 388 2466 706 
Q 2744 1025 2744 1678 
Q 2744 2294 2464 2611 
Q 2184 2928 1769 2928 
Q 1347 2928 1069 2612 
Q 791 2297 791 1659 
z
" transform="scale(0.015625)"/>
       <path id="ArialMT-6e" d="M 422 0 
L 422 3319 
L 928 3319 
L 928 2847 
Q 1294 3394 1984 3394 
Q 2284 3394 2536 3286 
Q 2788 3178 2913 3003 
Q 3038 2828 3088 2588 
Q 3119 2431 3119 2041 
L 3119 0 
L 2556 0 
L 2556 2019 
Q 2556 2363 2490 2533 
Q 2425 2703 2258 2804 
Q 2091 2906 1866 2906 
Q 1506 2906 1245 2678 
Q 984 2450 984 1813 
L 984 0 
L 422 0 
z
" transform="scale(0.015625)"/>
       <path id="ArialMT-65" d="M 2694 1069 
L 3275 997 
Q 3138 488 2766 206 
Q 2394 -75 1816 -75 
Q 1088 -75 661 373 
Q 234 822 234 1631 
Q 234 2469 665 2931 
Q 1097 3394 1784 3394 
Q 2450 3394 2872 2941 
Q 3294 2488 3294 1666 
Q 3294 1616 3291 1516 
L 816 1516 
Q 847 969 1125 678 
Q 1403 388 1819 388 
Q 2128 388 2347 550 
Q 2566 713 2694 1069 
z
M 847 1978 
L 2700 1978 
Q 2663 2397 2488 2606 
Q 2219 2931 1791 2931 
Q 1403 2931 1139 2672 
Q 875 2413 847 1978 
z
" transform="scale(0.015625)"/>
       <path id="ArialMT-43" d="M 3763 1606 
L 4369 1453 
Q 4178 706 3683 314 
Q 3188 -78 2472 -78 
Q 1731 -78 1267 223 
Q 803 525 561 1097 
Q 319 1669 319 2325 
Q 319 3041 592 3573 
Q 866 4106 1370 4382 
Q 1875 4659 2481 4659 
Q 3169 4659 3637 4309 
Q 4106 3959 4291 3325 
L 3694 3184 
Q 3534 3684 3231 3912 
Q 2928 4141 2469 4141 
Q 1941 4141 1586 3887 
Q 1231 3634 1087 3207 
Q 944 2781 944 2328 
Q 944 1744 1114 1308 
Q 1284 872 1643 656 
Q 2003 441 2422 441 
Q 2931 441 3284 734 
Q 3638 1028 3763 1606 
z
" transform="scale(0.015625)"/>
       <path id="ArialMT-61" d="M 2588 409 
Q 2275 144 1986 34 
Q 1697 -75 1366 -75 
Q 819 -75 525 192 
Q 231 459 231 875 
Q 231 1119 342 1320 
Q 453 1522 633 1644 
Q 813 1766 1038 1828 
Q 1203 1872 1538 1913 
Q 2219 1994 2541 2106 
Q 2544 2222 2544 2253 
Q 2544 2597 2384 2738 
Q 2169 2928 1744 2928 
Q 1347 2928 1158 2789 
Q 969 2650 878 2297 
L 328 2372 
Q 403 2725 575 2942 
Q 747 3159 1072 3276 
Q 1397 3394 1825 3394 
Q 2250 3394 2515 3294 
Q 2781 3194 2906 3042 
Q 3031 2891 3081 2659 
Q 3109 2516 3109 2141 
L 3109 1391 
Q 3109 606 3145 398 
Q 3181 191 3288 0 
L 2700 0 
Q 2613 175 2588 409 
z
M 2541 1666 
Q 2234 1541 1622 1453 
Q 1275 1403 1131 1340 
Q 988 1278 909 1158 
Q 831 1038 831 891 
Q 831 666 1001 516 
Q 1172 366 1500 366 
Q 1825 366 2078 508 
Q 2331 650 2450 897 
Q 2541 1088 2541 1459 
L 2541 1666 
z
" transform="scale(0.015625)"/>
       <path id="ArialMT-72" d="M 416 0 
L 416 3319 
L 922 3319 
L 922 2816 
Q 1116 3169 1280 3281 
Q 1444 3394 1641 3394 
Q 1925 3394 2219 3213 
L 2025 2691 
Q 1819 2813 1613 2813 
Q 1428 2813 1281 2702 
Q 1134 2591 1072 2394 
Q 978 2094 978 1738 
L 978 0 
L 416 0 
z
" transform="scale(0.015625)"/>
       <path id="ArialMT-6c" d="M 409 0 
L 409 4581 
L 972 4581 
L 972 0 
L 409 0 
z
" transform="scale(0.015625)"/>
      </defs>
      <use xlink:href="#ArialMT-76"/>
      <use xlink:href="#ArialMT-20" x="50"/>
      <use xlink:href="#ArialMT-28" x="77.783203"/>
      <use xlink:href="#ArialMT-4d" x="111.083984"/>
      <use xlink:href="#ArialMT-6f" x="194.384766"/>
      <use xlink:href="#ArialMT-6e" x="250"/>
      <use xlink:href="#ArialMT-74" x="305.615234"/>
      <use xlink:href="#ArialMT-65" x="333.398438"/>
      <use xlink:href="#ArialMT-20" x="389.013672"/>
      <use xlink:href="#ArialMT-43" x="416.796875"/>
      <use xlink:href="#ArialMT-61" x="489.013672"/>
      <use xlink:href="#ArialMT-72" x="544.628906"/>
      <use xlink:href="#ArialMT-6c" x="577.929688"/>
      <use xlink:href="#ArialMT-6f" x="600.146484"/>
      <use xlink:href="#ArialMT-29" x="655.761719"/>
     </g>
    </g>
    <g id="line2d_19">
     <path d="M 296.112375 31.104375 
L 304.912375 31.104375 
L 313.712375 31.104375 
" style="fill: none; stroke-dasharray: 4.44,1.92; stroke-dashoffset: 0; stroke: #ff7f0e; stroke-width: 1.2"/>
    </g>
    <g id="text_19">
     <!-- v (Local sensitivity) -->
     <g style="fill: #262626" transform="translate(320.752375 34.184375) scale(0.088 -0.088)">
      <defs>
       <path id="ArialMT-4c" d="M 469 0 
L 469 4581 
L 1075 4581 
L 1075 541 
L 3331 541 
L 3331 0 
L 469 0 
z
" transform="scale(0.015625)"/>
       <path id="ArialMT-63" d="M 2588 1216 
L 3141 1144 
Q 3050 572 2676 248 
Q 2303 -75 1759 -75 
Q 1078 -75 664 370 
Q 250 816 250 1647 
Q 250 2184 428 2587 
Q 606 2991 970 3192 
Q 1334 3394 1763 3394 
Q 2303 3394 2647 3120 
Q 2991 2847 3088 2344 
L 2541 2259 
Q 2463 2594 2264 2762 
Q 2066 2931 1784 2931 
Q 1359 2931 1093 2626 
Q 828 2322 828 1663 
Q 828 994 1084 691 
Q 1341 388 1753 388 
Q 2084 388 2306 591 
Q 2528 794 2588 1216 
z
" transform="scale(0.015625)"/>
       <path id="ArialMT-73" d="M 197 991 
L 753 1078 
Q 800 744 1014 566 
Q 1228 388 1613 388 
Q 2000 388 2187 545 
Q 2375 703 2375 916 
Q 2375 1106 2209 1216 
Q 2094 1291 1634 1406 
Q 1016 1563 777 1677 
Q 538 1791 414 1992 
Q 291 2194 291 2438 
Q 291 2659 392 2848 
Q 494 3038 669 3163 
Q 800 3259 1026 3326 
Q 1253 3394 1513 3394 
Q 1903 3394 2198 3281 
Q 2494 3169 2634 2976 
Q 2775 2784 2828 2463 
L 2278 2388 
Q 2241 2644 2061 2787 
Q 1881 2931 1553 2931 
Q 1166 2931 1000 2803 
Q 834 2675 834 2503 
Q 834 2394 903 2306 
Q 972 2216 1119 2156 
Q 1203 2125 1616 2013 
Q 2213 1853 2448 1751 
Q 2684 1650 2818 1456 
Q 2953 1263 2953 975 
Q 2953 694 2789 445 
Q 2625 197 2315 61 
Q 2006 -75 1616 -75 
Q 969 -75 630 194 
Q 291 463 197 991 
z
" transform="scale(0.015625)"/>
       <path id="ArialMT-69" d="M 425 3934 
L 425 4581 
L 988 4581 
L 988 3934 
L 425 3934 
z
M 425 0 
L 425 3319 
L 988 3319 
L 988 0 
L 425 0 
z
" transform="scale(0.015625)"/>
       <path id="ArialMT-79" d="M 397 -1278 
L 334 -750 
Q 519 -800 656 -800 
Q 844 -800 956 -737 
Q 1069 -675 1141 -563 
Q 1194 -478 1313 -144 
Q 1328 -97 1363 -6 
L 103 3319 
L 709 3319 
L 1400 1397 
Q 1534 1031 1641 628 
Q 1738 1016 1872 1384 
L 2581 3319 
L 3144 3319 
L 1881 -56 
Q 1678 -603 1566 -809 
Q 1416 -1088 1222 -1217 
Q 1028 -1347 759 -1347 
Q 597 -1347 397 -1278 
z
" transform="scale(0.015625)"/>
      </defs>
      <use xlink:href="#ArialMT-76"/>
      <use xlink:href="#ArialMT-20" x="50"/>
      <use xlink:href="#ArialMT-28" x="77.783203"/>
      <use xlink:href="#ArialMT-4c" x="111.083984"/>
      <use xlink:href="#ArialMT-6f" x="166.699219"/>
      <use xlink:href="#ArialMT-63" x="222.314453"/>
      <use xlink:href="#ArialMT-61" x="272.314453"/>
      <use xlink:href="#ArialMT-6c" x="327.929688"/>
      <use xlink:href="#ArialMT-20" x="350.146484"/>
      <use xlink:href="#ArialMT-73" x="377.929688"/>
      <use xlink:href="#ArialMT-65" x="427.929688"/>
      <use xlink:href="#ArialMT-6e" x="483.544922"/>
      <use xlink:href="#ArialMT-73" x="539.160156"/>
      <use xlink:href="#ArialMT-69" x="589.160156"/>
      <use xlink:href="#ArialMT-74" x="611.376953"/>
      <use xlink:href="#ArialMT-69" x="639.160156"/>
      <use xlink:href="#ArialMT-76" x="661.376953"/>
      <use xlink:href="#ArialMT-69" x="711.376953"/>
      <use xlink:href="#ArialMT-74" x="733.59375"/>
      <use xlink:href="#ArialMT-79" x="761.376953"/>
      <use xlink:href="#ArialMT-29" x="811.376953"/>
     </g>
    </g>
   </g>
  </g>
 </g>
 <defs>
  <clipPath id="p0cd1b5ada3">
   <rect x="45.88075" y="7.2" width="357.12" height="266.112"/>
  </clipPath>
 </defs>
</svg>