<?xml version="1.0" encoding="utf-8" standalone="no"?>
<!DOCTYPE svg PUBLIC "-//W3C//DTD SVG 1.1//EN"
  "http://www.w3.org/Graphics/SVG/1.1/DTD/svg11.dtd">
<svg xmlns:xlink="http://www.w3.org/1999/xlink" width="409.97125pt" height="322.510875pt" viewBox="0 0 409.97125 322.510875" xmlns="http://www.w3.org/2000/svg" version="1.1">
 <metadata>
  <rdf:RDF xmlns:dc="http://purl.org/dc/elements/1.1/" xmlns:cc="http://creativecommons.org/ns#" xmlns:rdf="http://www.w3.org/1999/02/22-rdf-syntax-ns#">
   <cc:Work>
    <dc:type rdf:resource="http://purl.org/dc/dcmitype/StillImage"/>
    <dc:date>2023-12-05T10:19:49.110165</dc:date>
    <dc:format>image/svg+xml</dc:format>
    <dc:creator>
     <cc:Agent>
      <dc:title>Matplotlib v3.8.0, https://matplotlib.org/</dc:title>
     </cc:Agent>
    </dc:creator>
   </cc:Work>
  </rdf:RDF>
 </metadata>
 <defs>
  <style type="text/css">*{stroke-linejoin: round; stroke-linecap: butt}</style>
 </defs>
 <g id="figure_1">
  <g id="patch_1">
   <path d="M 0 322.510875 
L 409.97125 322.510875 
L 409.97125 0 
L 0 0 
z
" style="fill: #ffffff"/>
  </g>
  <g id="axes_1">
   <g id="patch_2">
    <path d="M 45.65125 286.1835 
L 402.77125 286.1835 
L 402.77125 20.0715 
L 45.65125 20.0715 
z
" style="fill: #ffffff"/>
   </g>
   <g id="matplotlib.axis_1">
    <g id="xtick_1">
     <g id="line2d_1">
      <defs>
       <path id="m058f733c52" d="M 0 0 
L 0 4.8 
" style="stroke: #262626"/>
      </defs>
      <g>
       <use xlink:href="#m058f733c52" x="61.883977" y="286.1835" style="fill: #262626; stroke: #262626"/>
      </g>
     </g>
     <g id="text_1">
      <!-- 0 -->
      <g style="fill: #262626" transform="translate(59.437165 300.782375) scale(0.088 -0.088)">
       <defs>
        <path id="ArialMT-30" d="M 266 2259 
Q 266 3072 433 3567 
Q 600 4063 929 4331 
Q 1259 4600 1759 4600 
Q 2128 4600 2406 4451 
Q 2684 4303 2865 4023 
Q 3047 3744 3150 3342 
Q 3253 2941 3253 2259 
Q 3253 1453 3087 958 
Q 2922 463 2592 192 
Q 2263 -78 1759 -78 
Q 1097 -78 719 397 
Q 266 969 266 2259 
z
M 844 2259 
Q 844 1131 1108 757 
Q 1372 384 1759 384 
Q 2147 384 2411 759 
Q 2675 1134 2675 2259 
Q 2675 3391 2411 3762 
Q 2147 4134 1753 4134 
Q 1366 4134 1134 3806 
Q 844 3388 844 2259 
z
" transform="scale(0.015625)"/>
       </defs>
       <use xlink:href="#ArialMT-30"/>
      </g>
     </g>
    </g>
    <g id="xtick_2">
     <g id="line2d_2">
      <g>
       <use xlink:href="#m058f733c52" x="102.486097" y="286.1835" style="fill: #262626; stroke: #262626"/>
      </g>
     </g>
     <g id="text_2">
      <!-- 250 -->
      <g style="fill: #262626" transform="translate(95.145659 300.782375) scale(0.088 -0.088)">
       <defs>
        <path id="ArialMT-32" d="M 3222 541 
L 3222 0 
L 194 0 
Q 188 203 259 391 
Q 375 700 629 1000 
Q 884 1300 1366 1694 
Q 2113 2306 2375 2664 
Q 2638 3022 2638 3341 
Q 2638 3675 2398 3904 
Q 2159 4134 1775 4134 
Q 1369 4134 1125 3890 
Q 881 3647 878 3216 
L 300 3275 
Q 359 3922 746 4261 
Q 1134 4600 1788 4600 
Q 2447 4600 2831 4234 
Q 3216 3869 3216 3328 
Q 3216 3053 3103 2787 
Q 2991 2522 2730 2228 
Q 2469 1934 1863 1422 
Q 1356 997 1212 845 
Q 1069 694 975 541 
L 3222 541 
z
" transform="scale(0.015625)"/>
        <path id="ArialMT-35" d="M 266 1200 
L 856 1250 
Q 922 819 1161 601 
Q 1400 384 1738 384 
Q 2144 384 2425 690 
Q 2706 997 2706 1503 
Q 2706 1984 2436 2262 
Q 2166 2541 1728 2541 
Q 1456 2541 1237 2417 
Q 1019 2294 894 2097 
L 366 2166 
L 809 4519 
L 3088 4519 
L 3088 3981 
L 1259 3981 
L 1013 2750 
Q 1425 3038 1878 3038 
Q 2478 3038 2890 2622 
Q 3303 2206 3303 1553 
Q 3303 931 2941 478 
Q 2500 -78 1738 -78 
Q 1113 -78 717 272 
Q 322 622 266 1200 
z
" transform="scale(0.015625)"/>
       </defs>
       <use xlink:href="#ArialMT-32"/>
       <use xlink:href="#ArialMT-35" x="55.615234"/>
       <use xlink:href="#ArialMT-30" x="111.230469"/>
      </g>
     </g>
    </g>
    <g id="xtick_3">
     <g id="line2d_3">
      <g>
       <use xlink:href="#m058f733c52" x="143.088216" y="286.1835" style="fill: #262626; stroke: #262626"/>
      </g>
     </g>
     <g id="text_3">
      <!-- 500 -->
      <g style="fill: #262626" transform="translate(135.747778 300.782375) scale(0.088 -0.088)">
       <use xlink:href="#ArialMT-35"/>
       <use xlink:href="#ArialMT-30" x="55.615234"/>
       <use xlink:href="#ArialMT-30" x="111.230469"/>
      </g>
     </g>
    </g>
    <g id="xtick_4">
     <g id="line2d_4">
      <g>
       <use xlink:href="#m058f733c52" x="183.690335" y="286.1835" style="fill: #262626; stroke: #262626"/>
      </g>
     </g>
     <g id="text_4">
      <!-- 750 -->
      <g style="fill: #262626" transform="translate(176.349897 300.782375) scale(0.088 -0.088)">
       <defs>
        <path id="ArialMT-37" d="M 303 3981 
L 303 4522 
L 3269 4522 
L 3269 4084 
Q 2831 3619 2401 2847 
Q 1972 2075 1738 1259 
Q 1569 684 1522 0 
L 944 0 
Q 953 541 1156 1306 
Q 1359 2072 1739 2783 
Q 2119 3494 2547 3981 
L 303 3981 
z
" transform="scale(0.015625)"/>
       </defs>
       <use xlink:href="#ArialMT-37"/>
       <use xlink:href="#ArialMT-35" x="55.615234"/>
       <use xlink:href="#ArialMT-30" x="111.230469"/>
      </g>
     </g>
    </g>
    <g id="xtick_5">
     <g id="line2d_5">
      <g>
       <use xlink:href="#m058f733c52" x="224.292454" y="286.1835" style="fill: #262626; stroke: #262626"/>
      </g>
     </g>
     <g id="text_5">
      <!-- 1000 -->
      <g style="fill: #262626" transform="translate(214.505204 300.782375) scale(0.088 -0.088)">
       <defs>
        <path id="ArialMT-31" d="M 2384 0 
L 1822 0 
L 1822 3584 
Q 1619 3391 1289 3197 
Q 959 3003 697 2906 
L 697 3450 
Q 1169 3672 1522 3987 
Q 1875 4303 2022 4600 
L 2384 4600 
L 2384 0 
z
" transform="scale(0.015625)"/>
       </defs>
       <use xlink:href="#ArialMT-31"/>
       <use xlink:href="#ArialMT-30" x="55.615234"/>
       <use xlink:href="#ArialMT-30" x="111.230469"/>
       <use xlink:href="#ArialMT-30" x="166.845703"/>
      </g>
     </g>
    </g>
    <g id="xtick_6">
     <g id="line2d_6">
      <g>
       <use xlink:href="#m058f733c52" x="264.894573" y="286.1835" style="fill: #262626; stroke: #262626"/>
      </g>
     </g>
     <g id="text_6">
      <!-- 1250 -->
      <g style="fill: #262626" transform="translate(255.107323 300.782375) scale(0.088 -0.088)">
       <use xlink:href="#ArialMT-31"/>
       <use xlink:href="#ArialMT-32" x="55.615234"/>
       <use xlink:href="#ArialMT-35" x="111.230469"/>
       <use xlink:href="#ArialMT-30" x="166.845703"/>
      </g>
     </g>
    </g>
    <g id="xtick_7">
     <g id="line2d_7">
      <g>
       <use xlink:href="#m058f733c52" x="305.496693" y="286.1835" style="fill: #262626; stroke: #262626"/>
      </g>
     </g>
     <g id="text_7">
      <!-- 1500 -->
      <g style="fill: #262626" transform="translate(295.709443 300.782375) scale(0.088 -0.088)">
       <use xlink:href="#ArialMT-31"/>
       <use xlink:href="#ArialMT-35" x="55.615234"/>
       <use xlink:href="#ArialMT-30" x="111.230469"/>
       <use xlink:href="#ArialMT-30" x="166.845703"/>
      </g>
     </g>
    </g>
    <g id="xtick_8">
     <g id="line2d_8">
      <g>
       <use xlink:href="#m058f733c52" x="346.098812" y="286.1835" style="fill: #262626; stroke: #262626"/>
      </g>
     </g>
     <g id="text_8">
      <!-- 1750 -->
      <g style="fill: #262626" transform="translate(336.311562 300.782375) scale(0.088 -0.088)">
       <use xlink:href="#ArialMT-31"/>
       <use xlink:href="#ArialMT-37" x="55.615234"/>
       <use xlink:href="#ArialMT-35" x="111.230469"/>
       <use xlink:href="#ArialMT-30" x="166.845703"/>
      </g>
     </g>
    </g>
    <g id="xtick_9">
     <g id="line2d_9">
      <g>
       <use xlink:href="#m058f733c52" x="386.700931" y="286.1835" style="fill: #262626; stroke: #262626"/>
      </g>
     </g>
     <g id="text_9">
      <!-- 2000 -->
      <g style="fill: #262626" transform="translate(376.913681 300.782375) scale(0.088 -0.088)">
       <use xlink:href="#ArialMT-32"/>
       <use xlink:href="#ArialMT-30" x="55.615234"/>
       <use xlink:href="#ArialMT-30" x="111.230469"/>
       <use xlink:href="#ArialMT-30" x="166.845703"/>
      </g>
     </g>
    </g>
    <g id="text_10">
     <!-- Iteration $\times$ 100 -->
     <g style="fill: #262626" transform="translate(192.14725 313.402875) scale(0.096 -0.096)">
      <defs>
       <path id="ArialMT-49" d="M 597 0 
L 597 4581 
L 1203 4581 
L 1203 0 
L 597 0 
z
" transform="scale(0.015625)"/>
       <path id="ArialMT-74" d="M 1650 503 
L 1731 6 
Q 1494 -44 1306 -44 
Q 1000 -44 831 53 
Q 663 150 594 308 
Q 525 466 525 972 
L 525 2881 
L 113 2881 
L 113 3319 
L 525 3319 
L 525 4141 
L 1084 4478 
L 1084 3319 
L 1650 3319 
L 1650 2881 
L 1084 2881 
L 1084 941 
Q 1084 700 1114 631 
Q 1144 563 1211 522 
Q 1278 481 1403 481 
Q 1497 481 1650 503 
z
" transform="scale(0.015625)"/>
       <path id="ArialMT-65" d="M 2694 1069 
L 3275 997 
Q 3138 488 2766 206 
Q 2394 -75 1816 -75 
Q 1088 -75 661 373 
Q 234 822 234 1631 
Q 234 2469 665 2931 
Q 1097 3394 1784 3394 
Q 2450 3394 2872 2941 
Q 3294 2488 3294 1666 
Q 3294 1616 3291 1516 
L 816 1516 
Q 847 969 1125 678 
Q 1403 388 1819 388 
Q 2128 388 2347 550 
Q 2566 713 2694 1069 
z
M 847 1978 
L 2700 1978 
Q 2663 2397 2488 2606 
Q 2219 2931 1791 2931 
Q 1403 2931 1139 2672 
Q 875 2413 847 1978 
z
" transform="scale(0.015625)"/>
       <path id="ArialMT-72" d="M 416 0 
L 416 3319 
L 922 3319 
L 922 2816 
Q 1116 3169 1280 3281 
Q 1444 3394 1641 3394 
Q 1925 3394 2219 3213 
L 2025 2691 
Q 1819 2813 1613 2813 
Q 1428 2813 1281 2702 
Q 1134 2591 1072 2394 
Q 978 2094 978 1738 
L 978 0 
L 416 0 
z
" transform="scale(0.015625)"/>
       <path id="ArialMT-61" d="M 2588 409 
Q 2275 144 1986 34 
Q 1697 -75 1366 -75 
Q 819 -75 525 192 
Q 231 459 231 875 
Q 231 1119 342 1320 
Q 453 1522 633 1644 
Q 813 1766 1038 1828 
Q 1203 1872 1538 1913 
Q 2219 1994 2541 2106 
Q 2544 2222 2544 2253 
Q 2544 2597 2384 2738 
Q 2169 2928 1744 2928 
Q 1347 2928 1158 2789 
Q 969 2650 878 2297 
L 328 2372 
Q 403 2725 575 2942 
Q 747 3159 1072 3276 
Q 1397 3394 1825 3394 
Q 2250 3394 2515 3294 
Q 2781 3194 2906 3042 
Q 3031 2891 3081 2659 
Q 3109 2516 3109 2141 
L 3109 1391 
Q 3109 606 3145 398 
Q 3181 191 3288 0 
L 2700 0 
Q 2613 175 2588 409 
z
M 2541 1666 
Q 2234 1541 1622 1453 
Q 1275 1403 1131 1340 
Q 988 1278 909 1158 
Q 831 1038 831 891 
Q 831 666 1001 516 
Q 1172 366 1500 366 
Q 1825 366 2078 508 
Q 2331 650 2450 897 
Q 2541 1088 2541 1459 
L 2541 1666 
z
" transform="scale(0.015625)"/>
       <path id="ArialMT-69" d="M 425 3934 
L 425 4581 
L 988 4581 
L 988 3934 
L 425 3934 
z
M 425 0 
L 425 3319 
L 988 3319 
L 988 0 
L 425 0 
z
" transform="scale(0.015625)"/>
       <path id="ArialMT-6f" d="M 213 1659 
Q 213 2581 725 3025 
Q 1153 3394 1769 3394 
Q 2453 3394 2887 2945 
Q 3322 2497 3322 1706 
Q 3322 1066 3130 698 
Q 2938 331 2570 128 
Q 2203 -75 1769 -75 
Q 1072 -75 642 372 
Q 213 819 213 1659 
z
M 791 1659 
Q 791 1022 1069 705 
Q 1347 388 1769 388 
Q 2188 388 2466 706 
Q 2744 1025 2744 1678 
Q 2744 2294 2464 2611 
Q 2184 2928 1769 2928 
Q 1347 2928 1069 2612 
Q 791 2297 791 1659 
z
" transform="scale(0.015625)"/>
       <path id="ArialMT-6e" d="M 422 0 
L 422 3319 
L 928 3319 
L 928 2847 
Q 1294 3394 1984 3394 
Q 2284 3394 2536 3286 
Q 2788 3178 2913 3003 
Q 3038 2828 3088 2588 
Q 3119 2431 3119 2041 
L 3119 0 
L 2556 0 
L 2556 2019 
Q 2556 2363 2490 2533 
Q 2425 2703 2258 2804 
Q 2091 2906 1866 2906 
Q 1506 2906 1245 2678 
Q 984 2450 984 1813 
L 984 0 
L 422 0 
z
" transform="scale(0.015625)"/>
       <path id="ArialMT-20" transform="scale(0.015625)"/>
       <path id="DejaVuSans-d7" d="M 4488 3438 
L 3059 2003 
L 4488 575 
L 4116 197 
L 2681 1631 
L 1247 197 
L 878 575 
L 2303 2003 
L 878 3438 
L 1247 3816 
L 2681 2381 
L 4116 3816 
L 4488 3438 
z
" transform="scale(0.015625)"/>
      </defs>
      <use xlink:href="#ArialMT-49" transform="translate(0 0.125)"/>
      <use xlink:href="#ArialMT-74" transform="translate(27.783203 0.125)"/>
      <use xlink:href="#ArialMT-65" transform="translate(55.566406 0.125)"/>
      <use xlink:href="#ArialMT-72" transform="translate(111.181641 0.125)"/>
      <use xlink:href="#ArialMT-61" transform="translate(144.482422 0.125)"/>
      <use xlink:href="#ArialMT-74" transform="translate(200.097656 0.125)"/>
      <use xlink:href="#ArialMT-69" transform="translate(227.880859 0.125)"/>
      <use xlink:href="#ArialMT-6f" transform="translate(250.097656 0.125)"/>
      <use xlink:href="#ArialMT-6e" transform="translate(305.712891 0.125)"/>
      <use xlink:href="#ArialMT-20" transform="translate(361.328125 0.125)"/>
      <use xlink:href="#DejaVuSans-d7" transform="translate(389.111328 0.125)"/>
      <use xlink:href="#ArialMT-20" transform="translate(472.900391 0.125)"/>
      <use xlink:href="#ArialMT-31" transform="translate(500.683594 0.125)"/>
      <use xlink:href="#ArialMT-30" transform="translate(556.298828 0.125)"/>
      <use xlink:href="#ArialMT-30" transform="translate(611.914062 0.125)"/>
     </g>
    </g>
   </g>
   <g id="matplotlib.axis_2">
    <g id="ytick_1">
     <g id="line2d_10">
      <defs>
       <path id="mffa6a87af5" d="M 0 0 
L -4.8 0 
" style="stroke: #262626"/>
      </defs>
      <g>
       <use xlink:href="#mffa6a87af5" x="45.65125" y="261.33271" style="fill: #262626; stroke: #262626"/>
      </g>
     </g>
     <g id="text_11">
      <!-- −2.0 -->
      <g style="fill: #262626" transform="translate(19.9795 264.482147) scale(0.088 -0.088)">
       <defs>
        <path id="ArialMT-2212" d="M 3381 1997 
L 356 1997 
L 356 2522 
L 3381 2522 
L 3381 1997 
z
" transform="scale(0.015625)"/>
        <path id="ArialMT-2e" d="M 581 0 
L 581 641 
L 1222 641 
L 1222 0 
L 581 0 
z
" transform="scale(0.015625)"/>
       </defs>
       <use xlink:href="#ArialMT-2212"/>
       <use xlink:href="#ArialMT-32" x="58.398438"/>
       <use xlink:href="#ArialMT-2e" x="114.013672"/>
       <use xlink:href="#ArialMT-30" x="141.796875"/>
      </g>
     </g>
    </g>
    <g id="ytick_2">
     <g id="line2d_11">
      <g>
       <use xlink:href="#mffa6a87af5" x="45.65125" y="228.652363" style="fill: #262626; stroke: #262626"/>
      </g>
     </g>
     <g id="text_12">
      <!-- −1.5 -->
      <g style="fill: #262626" transform="translate(19.9795 231.8018) scale(0.088 -0.088)">
       <use xlink:href="#ArialMT-2212"/>
       <use xlink:href="#ArialMT-31" x="58.398438"/>
       <use xlink:href="#ArialMT-2e" x="114.013672"/>
       <use xlink:href="#ArialMT-35" x="141.796875"/>
      </g>
     </g>
    </g>
    <g id="ytick_3">
     <g id="line2d_12">
      <g>
       <use xlink:href="#mffa6a87af5" x="45.65125" y="195.972015" style="fill: #262626; stroke: #262626"/>
      </g>
     </g>
     <g id="text_13">
      <!-- −1.0 -->
      <g style="fill: #262626" transform="translate(19.9795 199.121453) scale(0.088 -0.088)">
       <use xlink:href="#ArialMT-2212"/>
       <use xlink:href="#ArialMT-31" x="58.398438"/>
       <use xlink:href="#ArialMT-2e" x="114.013672"/>
       <use xlink:href="#ArialMT-30" x="141.796875"/>
      </g>
     </g>
    </g>
    <g id="ytick_4">
     <g id="line2d_13">
      <g>
       <use xlink:href="#mffa6a87af5" x="45.65125" y="163.291668" style="fill: #262626; stroke: #262626"/>
      </g>
     </g>
     <g id="text_14">
      <!-- −0.5 -->
      <g style="fill: #262626" transform="translate(19.9795 166.441106) scale(0.088 -0.088)">
       <use xlink:href="#ArialMT-2212"/>
       <use xlink:href="#ArialMT-30" x="58.398438"/>
       <use xlink:href="#ArialMT-2e" x="114.013672"/>
       <use xlink:href="#ArialMT-35" x="141.796875"/>
      </g>
     </g>
    </g>
    <g id="ytick_5">
     <g id="line2d_14">
      <g>
       <use xlink:href="#mffa6a87af5" x="45.65125" y="130.611321" style="fill: #262626; stroke: #262626"/>
      </g>
     </g>
     <g id="text_15">
      <!-- 0.0 -->
      <g style="fill: #262626" transform="translate(25.11925 133.760758) scale(0.088 -0.088)">
       <use xlink:href="#ArialMT-30"/>
       <use xlink:href="#ArialMT-2e" x="55.615234"/>
       <use xlink:href="#ArialMT-30" x="83.398438"/>
      </g>
     </g>
    </g>
    <g id="ytick_6">
     <g id="line2d_15">
      <g>
       <use xlink:href="#mffa6a87af5" x="45.65125" y="97.930974" style="fill: #262626; stroke: #262626"/>
      </g>
     </g>
     <g id="text_16">
      <!-- 0.5 -->
      <g style="fill: #262626" transform="translate(25.11925 101.080411) scale(0.088 -0.088)">
       <use xlink:href="#ArialMT-30"/>
       <use xlink:href="#ArialMT-2e" x="55.615234"/>
       <use xlink:href="#ArialMT-35" x="83.398438"/>
      </g>
     </g>
    </g>
    <g id="ytick_7">
     <g id="line2d_16">
      <g>
       <use xlink:href="#mffa6a87af5" x="45.65125" y="65.250626" style="fill: #262626; stroke: #262626"/>
      </g>
     </g>
     <g id="text_17">
      <!-- 1.0 -->
      <g style="fill: #262626" transform="translate(25.11925 68.400064) scale(0.088 -0.088)">
       <use xlink:href="#ArialMT-31"/>
       <use xlink:href="#ArialMT-2e" x="55.615234"/>
       <use xlink:href="#ArialMT-30" x="83.398438"/>
      </g>
     </g>
    </g>
    <g id="ytick_8">
     <g id="line2d_17">
      <g>
       <use xlink:href="#mffa6a87af5" x="45.65125" y="32.570279" style="fill: #262626; stroke: #262626"/>
      </g>
     </g>
     <g id="text_18">
      <!-- 1.5 -->
      <g style="fill: #262626" transform="translate(25.11925 35.719717) scale(0.088 -0.088)">
       <use xlink:href="#ArialMT-31"/>
       <use xlink:href="#ArialMT-2e" x="55.615234"/>
       <use xlink:href="#ArialMT-35" x="83.398438"/>
      </g>
     </g>
    </g>
    <g id="text_19">
     <!-- $\theta$ -->
     <g style="fill: #262626" transform="translate(14.0715 156.1035) rotate(-90) scale(0.096 -0.096)">
      <defs>
       <path id="DejaVuSans-Oblique-3b8" d="M 2913 2219 
L 925 2219 
Q 791 1284 928 888 
Q 1100 400 1566 400 
Q 2034 400 2391 891 
Q 2703 1322 2913 2219 
z
M 3009 2750 
Q 3094 3638 2984 3950 
Q 2813 4444 2353 4444 
Q 1875 4444 1525 3956 
Q 1250 3563 1034 2750 
L 3009 2750 
z
M 2444 4913 
Q 3194 4913 3494 4250 
Q 3794 3591 3566 2422 
Q 3341 1256 2781 594 
Q 2225 -72 1475 -72 
Q 722 -72 425 594 
Q 128 1256 353 2422 
Q 581 3591 1134 4250 
Q 1691 4913 2444 4913 
z
" transform="scale(0.015625)"/>
      </defs>
      <use xlink:href="#DejaVuSans-Oblique-3b8" transform="translate(0 0.234375)"/>
     </g>
    </g>
   </g>
   <g id="line2d_18">
    <path d="M 61.883977 274.0875 
L 66.593823 255.683526 
L 69.679584 244.409958 
L 72.765345 233.997846 
L 74.714247 227.658427 
L 82.509854 202.665539 
L 88.031742 187.378299 
L 93.066405 174.126798 
L 95.989757 167.415837 
L 100.374786 158.013023 
L 101.998871 155.05135 
L 107.683168 145.544236 
L 110.281703 141.33178 
L 112.068197 139.012877 
L 114.829141 135.636823 
L 118.402127 131.865242 
L 121.000663 129.150826 
L 122.949565 127.175091 
L 125.872917 125.229699 
L 130.095538 122.94272 
L 131.557214 122.113198 
L 132.694073 121.399265 
L 134.318158 120.484797 
L 136.754285 119.460868 
L 139.190412 118.715362 
L 143.250624 117.709459 
L 144.225075 117.684686 
L 146.173977 117.639336 
L 148.610104 117.388856 
L 151.858274 116.834685 
L 152.832724 116.677829 
L 154.944035 116.320917 
L 156.243302 116.559632 
L 157.867387 116.8603 
L 162.577233 117.350476 
L 163.876501 117.51455 
L 166.799853 117.633249 
L 170.048023 117.861591 
L 172.321742 118.174223 
L 173.296192 118.328335 
L 177.031587 118.609073 
L 181.254208 118.984837 
L 184.827194 119.387832 
L 185.639237 119.299269 
L 188.400181 119.661982 
L 190.349083 120.254247 
L 192.78521 121.016338 
L 196.845422 121.644272 
L 199.931183 122.085711 
L 202.36731 122.280315 
L 203.828986 122.648609 
L 204.641029 122.771219 
L 207.077156 123.354552 
L 208.376423 123.356511 
L 210.325325 123.236166 
L 211.624593 123.100003 
L 213.898312 123.406321 
L 214.872763 123.580617 
L 217.30889 123.891347 
L 219.745017 124.131977 
L 221.369102 124.198125 
L 222.993186 124.565634 
L 224.454863 124.919149 
L 226.078947 125.109572 
L 231.438427 125.869342 
L 233.549737 126.082786 
L 235.011414 126.009761 
L 237.772358 125.862087 
L 240.858119 126.206885 
L 241.507753 126.143952 
L 244.106288 125.711732 
L 246.380007 125.874187 
L 247.841683 126.353659 
L 250.927444 126.701234 
L 252.713938 126.774818 
L 254.500431 126.999976 
L 256.77415 127.221177 
L 258.073417 127.016579 
L 259.372685 126.923068 
L 260.509545 127.122691 
L 261.646404 127.290849 
L 262.458446 127.311806 
L 263.757714 127.3299 
L 268.305151 127.319298 
L 269.279602 127.218937 
L 277.075209 128.062182 
L 278.536886 128.125393 
L 281.29783 128.403225 
L 282.272281 128.489546 
L 283.246731 128.658539 
L 283.896365 128.59915 
L 288.606211 127.834568 
L 289.418254 127.781069 
L 290.717521 127.916101 
L 291.529564 127.89175 
L 295.589776 127.702899 
L 297.701086 128.239563 
L 299.812396 128.419152 
L 301.923706 128.42622 
L 303.222974 128.4145 
L 306.146327 128.068442 
L 308.744862 128.2235 
L 309.881722 128.0423 
L 312.15544 127.51359 
L 313.2923 127.59747 
L 316.378061 128.378784 
L 320.438273 128.228374 
L 321.250315 128.417076 
L 325.960161 128.875179 
L 327.584246 128.91108 
L 328.396288 128.915479 
L 332.131683 128.234781 
L 332.943725 128.137449 
L 334.080585 127.893916 
L 335.055036 127.973151 
L 338.140797 128.387326 
L 339.115247 128.443085 
L 340.901741 128.765772 
L 342.363417 128.628063 
L 344.474727 128.725736 
L 345.611587 128.536379 
L 347.235671 128.443409 
L 350.808658 128.38104 
L 352.75756 128.235987 
L 353.569602 128.172445 
L 354.706461 128.346072 
L 355.680912 128.451222 
L 357.792222 128.53778 
L 359.416307 128.078849 
L 360.877983 128.107868 
L 362.014843 127.964016 
L 364.45097 127.717397 
L 365.263012 127.910823 
L 366.724689 128.215064 
L 370.135267 128.666514 
L 370.7849 128.861565 
L 371.434534 129.068278 
L 373.058619 129.163097 
L 373.708253 129.077665 
L 376.469197 128.178876 
L 377.606056 127.981209 
L 378.418099 128.146967 
L 378.905324 128.246538 
L 380.204592 128.113487 
L 382.803128 127.625207 
L 383.452762 127.654065 
L 384.914438 128.198185 
L 385.888889 128.531667 
L 386.538523 128.728445 
L 386.538523 128.728445 
" clip-path="url(#pc798424cf5)" style="fill: none; stroke: #1f77b4; stroke-width: 1.2; stroke-linecap: round"/>
   </g>
   <g id="line2d_19">
    <path d="M 61.883977 261.33271 
L 386.538523 261.33271 
L 386.538523 261.33271 
" clip-path="url(#pc798424cf5)" style="fill: none; stroke-dasharray: 4.44,1.92; stroke-dashoffset: 0; stroke: #ff7f0e; stroke-width: 1.2"/>
   </g>
   <g id="line2d_20">
    <path d="M 61.883977 190.533095 
L 62.533611 192.584036 
L 63.345654 194.176141 
L 64.969738 195.71478 
L 65.294555 196.130691 
L 66.106598 197.97254 
L 66.91864 199.168045 
L 67.730682 199.898975 
L 68.705133 201.323732 
L 69.192359 201.780779 
L 71.790894 203.750418 
L 72.440528 204.078593 
L 74.227022 205.540032 
L 74.876655 205.889626 
L 78.287233 209.382726 
L 79.099276 210.197018 
L 79.424093 210.401267 
L 80.073727 211.155627 
L 81.048178 211.732548 
L 82.347445 212.216282 
L 83.321896 212.897284 
L 84.133939 213.445781 
L 85.108389 214.289215 
L 87.057291 216.555363 
L 87.544517 216.850026 
L 88.681376 219.031129 
L 89.493418 220.566386 
L 92.416771 224.345298 
L 94.365673 226.175327 
L 95.989757 227.731855 
L 96.476983 228.174761 
L 97.938659 229.965809 
L 99.400335 231.616163 
L 100.049969 232.56952 
L 100.537195 233.194212 
L 101.511646 233.930604 
L 103.13573 234.748824 
L 104.27259 235.101464 
L 104.597407 235.234381 
L 105.409449 235.143951 
L 105.896675 235.349011 
L 107.195942 237.070355 
L 108.170393 238.563865 
L 109.63207 239.588912 
L 111.905788 240.491616 
L 114.829141 243.266322 
L 115.966 243.883674 
L 117.265268 244.52409 
L 120.188621 246.119973 
L 120.838254 246.390693 
L 121.650297 246.897443 
L 122.787156 247.72777 
L 125.060875 248.836889 
L 126.035326 249.107912 
L 126.68496 249.160817 
L 127.497002 249.130859 
L 128.958678 249.363991 
L 129.770721 249.714769 
L 132.206848 251.202116 
L 132.694073 251.522016 
L 133.993341 251.987034 
L 135.942243 252.48219 
L 137.566328 253.103352 
L 139.840046 253.786185 
L 141.139314 253.764727 
L 143.413033 254.237825 
L 145.686751 254.656616 
L 146.823611 255.013401 
L 148.447695 255.378337 
L 151.371048 256.15999 
L 154.456809 257.097257 
L 156.405711 257.469727 
L 157.704979 257.666901 
L 159.329063 257.837164 
L 160.141106 257.964564 
L 161.115557 258.09558 
L 162.577233 258.05416 
L 163.714092 257.942101 
L 170.048023 258.634229 
L 171.672108 258.824578 
L 176.381954 259.574839 
L 177.193996 259.562458 
L 178.006038 259.593554 
L 180.442165 259.754778 
L 181.254208 259.727796 
L 184.015152 260.215986 
L 184.827194 260.345366 
L 186.126462 260.217662 
L 187.263321 260.12075 
L 188.075364 260.200691 
L 194.571703 260.122588 
L 195.546154 260.288869 
L 198.794323 260.588277 
L 203.504169 260.223139 
L 204.803437 260.344018 
L 206.752339 260.326588 
L 211.299776 260.585495 
L 212.761452 260.541761 
L 215.359988 260.76164 
L 216.496847 260.803691 
L 217.30889 260.965414 
L 218.445749 260.922677 
L 220.069834 260.559962 
L 224.617271 260.259339 
L 230.139159 260.53785 
L 234.686597 260.918423 
L 236.148273 260.821448 
L 237.122724 260.718436 
L 237.934766 260.593949 
L 240.69571 260.368149 
L 241.507753 260.436715 
L 243.131838 260.381644 
L 246.704824 260.368515 
L 248.491317 260.224892 
L 249.790585 260.100141 
L 251.577078 259.988378 
L 254.175614 259.868107 
L 260.99677 260.73638 
L 263.10808 260.475501 
L 266.031433 259.950316 
L 267.168292 259.983594 
L 267.817926 260.195572 
L 269.766828 260.757425 
L 271.878138 260.869523 
L 273.177406 260.720204 
L 274.639082 260.62464 
L 276.750392 260.629206 
L 278.374477 260.409577 
L 279.836153 260.158196 
L 280.485787 260.134027 
L 281.622647 260.347018 
L 286.494901 260.397936 
L 287.306943 260.237312 
L 288.281394 260.193531 
L 290.392704 260.183714 
L 291.691972 259.81362 
L 292.504015 259.86792 
L 293.478465 260.067572 
L 294.290508 260.324375 
L 295.427367 260.477324 
L 298.188311 261.217527 
L 299.487579 261.154142 
L 301.761298 260.916896 
L 302.898157 260.622209 
L 307.445594 260.115101 
L 308.582454 260.008441 
L 309.394496 259.859793 
L 313.617117 259.675841 
L 314.26675 259.607867 
L 315.078793 259.667076 
L 316.865286 260.031559 
L 317.839737 260.134852 
L 319.62623 260.292843 
L 320.76309 260.430279 
L 322.711991 260.624188 
L 323.686442 260.496453 
L 324.498485 260.478244 
L 325.797752 260.592406 
L 327.421837 260.76185 
L 327.909063 260.728487 
L 332.294091 260.848376 
L 333.755768 260.956672 
L 337.328754 260.562822 
L 338.628022 260.307327 
L 339.277656 260.282059 
L 340.089698 260.204182 
L 342.0386 259.977501 
L 343.500276 259.348064 
L 344.14991 259.331717 
L 345.28677 259.59304 
L 347.39808 260.217545 
L 348.697348 260.387947 
L 349.834207 260.404411 
L 352.432743 260.660684 
L 353.894419 260.776904 
L 358.766673 259.800437 
L 360.390758 260.006665 
L 362.502068 260.168536 
L 363.151702 260.258965 
L 363.801336 260.328185 
L 365.100604 260.230938 
L 365.912646 260.350376 
L 367.049505 260.478758 
L 373.383436 260.339265 
L 376.469197 260.628863 
L 377.28124 260.675761 
L 378.093282 260.676602 
L 379.717367 260.68642 
L 380.367001 260.731985 
L 381.50386 260.529778 
L 382.315902 260.350329 
L 386.538523 260.433006 
L 386.538523 260.433006 
" clip-path="url(#pc798424cf5)" style="fill: none; stroke: #2ca02c; stroke-width: 1.2; stroke-linecap: round"/>
   </g>
   <g id="line2d_21">
    <path d="M 61.883977 32.570279 
L 386.538523 32.570279 
L 386.538523 32.570279 
" clip-path="url(#pc798424cf5)" style="fill: none; stroke-dasharray: 4.44,1.92; stroke-dashoffset: 0; stroke: #d62728; stroke-width: 1.2"/>
   </g>
   <g id="line2d_22">
    <path d="M 61.883977 163.326606 
L 63.183245 158.803641 
L 64.157696 155.923563 
L 66.593823 149.160955 
L 67.730682 146.307431 
L 68.542725 144.312631 
L 70.16681 141.25396 
L 76.013515 131.192959 
L 78.124825 127.1141 
L 79.424093 124.478597 
L 80.236135 122.26125 
L 81.210586 120.293867 
L 83.646713 116.204988 
L 84.621164 114.801029 
L 86.08284 112.024702 
L 87.382108 109.908625 
L 87.706925 109.311265 
L 89.006193 106.500598 
L 90.143052 104.269619 
L 91.117503 101.96154 
L 93.228813 97.628457 
L 94.203264 96.025428 
L 98.750702 89.773295 
L 101.836463 85.684547 
L 103.13573 84.468515 
L 105.084632 82.621765 
L 105.896675 81.697786 
L 106.708717 80.256391 
L 107.033534 79.648073 
L 108.170393 77.465525 
L 110.444112 73.429549 
L 111.418563 72.364741 
L 112.230605 71.486164 
L 114.179507 68.939155 
L 114.991549 67.74115 
L 116.453226 66.222001 
L 118.402127 64.606269 
L 120.026212 63.042463 
L 123.111973 60.293866 
L 125.710509 58.728931 
L 129.121087 56.961281 
L 130.095538 56.499754 
L 132.694073 54.855079 
L 133.830933 54.011116 
L 137.891144 51.610897 
L 139.515229 50.937118 
L 141.139314 49.936279 
L 141.951356 49.291384 
L 143.088216 48.705822 
L 144.549892 48.162919 
L 149.422146 46.319402 
L 150.721414 45.745457 
L 152.507907 44.837245 
L 155.268852 43.535011 
L 156.730528 43.303593 
L 160.953148 42.71489 
L 164.363726 41.997977 
L 165.987811 41.550474 
L 173.783418 40.048082 
L 177.193996 39.368265 
L 191.485942 37.375781 
L 193.272435 37.247882 
L 197.170239 36.948988 
L 198.469506 36.864208 
L 206.102705 36.324444 
L 207.72679 36.268734 
L 209.350874 35.834555 
L 212.599044 35.601641 
L 217.796115 35.289291 
L 218.770566 35.226397 
L 222.018736 34.97885 
L 225.429314 34.844235 
L 230.626385 34.462119 
L 233.22492 34.394854 
L 239.071626 34.046819 
L 241.020527 34.074128 
L 243.294246 33.936349 
L 247.354458 33.723311 
L 251.089853 33.753418 
L 252.876346 33.734453 
L 254.338022 33.723927 
L 257.586192 33.547455 
L 258.723051 33.514091 
L 263.270489 33.627412 
L 264.569757 33.514863 
L 266.193841 33.392737 
L 268.46756 33.213998 
L 269.279602 33.080411 
L 272.040546 33.070344 
L 275.126308 33.200324 
L 282.434689 33.093742 
L 284.708408 33.126007 
L 285.682859 33.043759 
L 287.306943 32.935464 
L 290.392704 32.84847 
L 291.042338 32.791927 
L 292.828832 32.603199 
L 295.264959 32.8659 
L 297.376269 33.105336 
L 301.436481 33.071856 
L 306.795961 32.771856 
L 308.095228 32.723368 
L 311.993032 32.167804 
L 313.454708 32.274292 
L 317.190103 32.794693 
L 319.463822 32.897059 
L 327.09702 33.196716 
L 327.909063 33.089683 
L 331.319641 32.672965 
L 337.653571 32.670923 
L 341.388966 32.707692 
L 342.0386 32.5508 
L 343.175459 32.448901 
L 346.423629 32.426766 
L 348.372531 32.522945 
L 350.971066 32.880525 
L 352.595151 32.831905 
L 354.056827 32.724561 
L 356.98018 32.868877 
L 358.279448 32.807362 
L 359.416307 32.64084 
L 360.390758 32.512956 
L 362.502068 32.309081 
L 363.963744 32.336632 
L 366.075055 32.629363 
L 367.536731 32.671437 
L 373.708253 33.033809 
L 377.930873 32.841396 
L 379.39255 32.78694 
L 381.991085 32.229467 
L 383.452762 32.238957 
L 385.076846 32.520273 
L 386.538523 32.809029 
L 386.538523 32.809029 
" clip-path="url(#pc798424cf5)" style="fill: none; stroke: #9467bd; stroke-width: 1.2; stroke-linecap: round"/>
   </g>
   <g id="line2d_23">
    <path d="M 61.883977 130.611321 
L 386.538523 130.611321 
L 386.538523 130.611321 
" clip-path="url(#pc798424cf5)" style="fill: none; stroke-dasharray: 4.44,1.92; stroke-dashoffset: 0; stroke: #8c564b; stroke-width: 1.2"/>
   </g>
   <g id="patch_3">
    <path d="M 45.65125 261.33271 
L 45.65125 32.570279 
" style="fill: none; stroke: #262626; stroke-linejoin: miter; stroke-linecap: square"/>
   </g>
   <g id="patch_4">
    <path d="M 61.883977 286.1835 
L 386.700931 286.1835 
" style="fill: none; stroke: #262626; stroke-linejoin: miter; stroke-linecap: square"/>
   </g>
   <g id="text_20">
    <!-- Adam path -->
    <g style="fill: #262626" transform="translate(200.998 14.0715) scale(0.096 -0.096)">
     <defs>
      <path id="ArialMT-41" d="M -9 0 
L 1750 4581 
L 2403 4581 
L 4278 0 
L 3588 0 
L 3053 1388 
L 1138 1388 
L 634 0 
L -9 0 
z
M 1313 1881 
L 2866 1881 
L 2388 3150 
Q 2169 3728 2063 4100 
Q 1975 3659 1816 3225 
L 1313 1881 
z
" transform="scale(0.015625)"/>
      <path id="ArialMT-64" d="M 2575 0 
L 2575 419 
Q 2259 -75 1647 -75 
Q 1250 -75 917 144 
Q 584 363 401 755 
Q 219 1147 219 1656 
Q 219 2153 384 2558 
Q 550 2963 881 3178 
Q 1213 3394 1622 3394 
Q 1922 3394 2156 3267 
Q 2391 3141 2538 2938 
L 2538 4581 
L 3097 4581 
L 3097 0 
L 2575 0 
z
M 797 1656 
Q 797 1019 1065 703 
Q 1334 388 1700 388 
Q 2069 388 2326 689 
Q 2584 991 2584 1609 
Q 2584 2291 2321 2609 
Q 2059 2928 1675 2928 
Q 1300 2928 1048 2622 
Q 797 2316 797 1656 
z
" transform="scale(0.015625)"/>
      <path id="ArialMT-6d" d="M 422 0 
L 422 3319 
L 925 3319 
L 925 2853 
Q 1081 3097 1340 3245 
Q 1600 3394 1931 3394 
Q 2300 3394 2536 3241 
Q 2772 3088 2869 2813 
Q 3263 3394 3894 3394 
Q 4388 3394 4653 3120 
Q 4919 2847 4919 2278 
L 4919 0 
L 4359 0 
L 4359 2091 
Q 4359 2428 4304 2576 
Q 4250 2725 4106 2815 
Q 3963 2906 3769 2906 
Q 3419 2906 3187 2673 
Q 2956 2441 2956 1928 
L 2956 0 
L 2394 0 
L 2394 2156 
Q 2394 2531 2256 2718 
Q 2119 2906 1806 2906 
Q 1569 2906 1367 2781 
Q 1166 2656 1075 2415 
Q 984 2175 984 1722 
L 984 0 
L 422 0 
z
" transform="scale(0.015625)"/>
      <path id="ArialMT-70" d="M 422 -1272 
L 422 3319 
L 934 3319 
L 934 2888 
Q 1116 3141 1344 3267 
Q 1572 3394 1897 3394 
Q 2322 3394 2647 3175 
Q 2972 2956 3137 2557 
Q 3303 2159 3303 1684 
Q 3303 1175 3120 767 
Q 2938 359 2589 142 
Q 2241 -75 1856 -75 
Q 1575 -75 1351 44 
Q 1128 163 984 344 
L 984 -1272 
L 422 -1272 
z
M 931 1641 
Q 931 1000 1190 694 
Q 1450 388 1819 388 
Q 2194 388 2461 705 
Q 2728 1022 2728 1688 
Q 2728 2322 2467 2637 
Q 2206 2953 1844 2953 
Q 1484 2953 1207 2617 
Q 931 2281 931 1641 
z
" transform="scale(0.015625)"/>
      <path id="ArialMT-68" d="M 422 0 
L 422 4581 
L 984 4581 
L 984 2938 
Q 1378 3394 1978 3394 
Q 2347 3394 2619 3248 
Q 2891 3103 3008 2847 
Q 3125 2591 3125 2103 
L 3125 0 
L 2563 0 
L 2563 2103 
Q 2563 2525 2380 2717 
Q 2197 2909 1863 2909 
Q 1613 2909 1392 2779 
Q 1172 2650 1078 2428 
Q 984 2206 984 1816 
L 984 0 
L 422 0 
z
" transform="scale(0.015625)"/>
     </defs>
     <use xlink:href="#ArialMT-41"/>
     <use xlink:href="#ArialMT-64" x="66.699219"/>
     <use xlink:href="#ArialMT-61" x="122.314453"/>
     <use xlink:href="#ArialMT-6d" x="177.929688"/>
     <use xlink:href="#ArialMT-20" x="261.230469"/>
     <use xlink:href="#ArialMT-70" x="289.013672"/>
     <use xlink:href="#ArialMT-61" x="344.628906"/>
     <use xlink:href="#ArialMT-74" x="400.244141"/>
     <use xlink:href="#ArialMT-68" x="428.027344"/>
    </g>
   </g>
   <g id="legend_1">
    <g id="line2d_24">
     <path d="M 53.57125 31.5225 
L 62.37125 31.5225 
L 71.17125 31.5225 
" style="fill: none; stroke: #1f77b4; stroke-width: 1.2; stroke-linecap: round"/>
    </g>
    <g id="text_21">
     <!-- $\theta_0$ -->
     <g style="fill: #262626" transform="translate(78.21125 34.6025) scale(0.088 -0.088)">
      <defs>
       <path id="DejaVuSans-30" d="M 2034 4250 
Q 1547 4250 1301 3770 
Q 1056 3291 1056 2328 
Q 1056 1369 1301 889 
Q 1547 409 2034 409 
Q 2525 409 2770 889 
Q 3016 1369 3016 2328 
Q 3016 3291 2770 3770 
Q 2525 4250 2034 4250 
z
M 2034 4750 
Q 2819 4750 3233 4129 
Q 3647 3509 3647 2328 
Q 3647 1150 3233 529 
Q 2819 -91 2034 -91 
Q 1250 -91 836 529 
Q 422 1150 422 2328 
Q 422 3509 836 4129 
Q 1250 4750 2034 4750 
z
" transform="scale(0.015625)"/>
      </defs>
      <use xlink:href="#DejaVuSans-Oblique-3b8" transform="translate(0 0.234375)"/>
      <use xlink:href="#DejaVuSans-30" transform="translate(61.181641 -16.171875) scale(0.7)"/>
     </g>
    </g>
    <g id="line2d_25">
     <path d="M 53.57125 43.970375 
L 62.37125 43.970375 
L 71.17125 43.970375 
" style="fill: none; stroke-dasharray: 4.44,1.92; stroke-dashoffset: 0; stroke: #ff7f0e; stroke-width: 1.2"/>
    </g>
    <g id="text_22">
     <!-- True value -->
     <g style="fill: #262626" transform="translate(78.21125 47.050375) scale(0.088 -0.088)">
      <defs>
       <path id="ArialMT-54" d="M 1659 0 
L 1659 4041 
L 150 4041 
L 150 4581 
L 3781 4581 
L 3781 4041 
L 2266 4041 
L 2266 0 
L 1659 0 
z
" transform="scale(0.015625)"/>
       <path id="ArialMT-75" d="M 2597 0 
L 2597 488 
Q 2209 -75 1544 -75 
Q 1250 -75 995 37 
Q 741 150 617 320 
Q 494 491 444 738 
Q 409 903 409 1263 
L 409 3319 
L 972 3319 
L 972 1478 
Q 972 1038 1006 884 
Q 1059 663 1231 536 
Q 1403 409 1656 409 
Q 1909 409 2131 539 
Q 2353 669 2445 892 
Q 2538 1116 2538 1541 
L 2538 3319 
L 3100 3319 
L 3100 0 
L 2597 0 
z
" transform="scale(0.015625)"/>
       <path id="ArialMT-76" d="M 1344 0 
L 81 3319 
L 675 3319 
L 1388 1331 
Q 1503 1009 1600 663 
Q 1675 925 1809 1294 
L 2547 3319 
L 3125 3319 
L 1869 0 
L 1344 0 
z
" transform="scale(0.015625)"/>
       <path id="ArialMT-6c" d="M 409 0 
L 409 4581 
L 972 4581 
L 972 0 
L 409 0 
z
" transform="scale(0.015625)"/>
      </defs>
      <use xlink:href="#ArialMT-54"/>
      <use xlink:href="#ArialMT-72" x="57.333984"/>
      <use xlink:href="#ArialMT-75" x="90.634766"/>
      <use xlink:href="#ArialMT-65" x="146.25"/>
      <use xlink:href="#ArialMT-20" x="201.865234"/>
      <use xlink:href="#ArialMT-76" x="229.648438"/>
      <use xlink:href="#ArialMT-61" x="279.648438"/>
      <use xlink:href="#ArialMT-6c" x="335.263672"/>
      <use xlink:href="#ArialMT-75" x="357.480469"/>
      <use xlink:href="#ArialMT-65" x="413.095703"/>
     </g>
    </g>
    <g id="line2d_26">
     <path d="M 53.57125 56.642375 
L 62.37125 56.642375 
L 71.17125 56.642375 
" style="fill: none; stroke: #2ca02c; stroke-width: 1.2; stroke-linecap: round"/>
    </g>
    <g id="text_23">
     <!-- $\theta_1$ -->
     <g style="fill: #262626" transform="translate(78.21125 59.722375) scale(0.088 -0.088)">
      <defs>
       <path id="DejaVuSans-31" d="M 794 531 
L 1825 531 
L 1825 4091 
L 703 3866 
L 703 4441 
L 1819 4666 
L 2450 4666 
L 2450 531 
L 3481 531 
L 3481 0 
L 794 0 
L 794 531 
z
" transform="scale(0.015625)"/>
      </defs>
      <use xlink:href="#DejaVuSans-Oblique-3b8" transform="translate(0 0.234375)"/>
      <use xlink:href="#DejaVuSans-31" transform="translate(61.181641 -16.171875) scale(0.7)"/>
     </g>
    </g>
    <g id="line2d_27">
     <path d="M 53.57125 69.09025 
L 62.37125 69.09025 
L 71.17125 69.09025 
" style="fill: none; stroke-dasharray: 4.44,1.92; stroke-dashoffset: 0; stroke: #d62728; stroke-width: 1.2"/>
    </g>
    <g id="text_24">
     <!-- True value -->
     <g style="fill: #262626" transform="translate(78.21125 72.17025) scale(0.088 -0.088)">
      <use xlink:href="#ArialMT-54"/>
      <use xlink:href="#ArialMT-72" x="57.333984"/>
      <use xlink:href="#ArialMT-75" x="90.634766"/>
      <use xlink:href="#ArialMT-65" x="146.25"/>
      <use xlink:href="#ArialMT-20" x="201.865234"/>
      <use xlink:href="#ArialMT-76" x="229.648438"/>
      <use xlink:href="#ArialMT-61" x="279.648438"/>
      <use xlink:href="#ArialMT-6c" x="335.263672"/>
      <use xlink:href="#ArialMT-75" x="357.480469"/>
      <use xlink:href="#ArialMT-65" x="413.095703"/>
     </g>
    </g>
    <g id="line2d_28">
     <path d="M 53.57125 81.76225 
L 62.37125 81.76225 
L 71.17125 81.76225 
" style="fill: none; stroke: #9467bd; stroke-width: 1.2; stroke-linecap: round"/>
    </g>
    <g id="text_25">
     <!-- $\theta_2$ -->
     <g style="fill: #262626" transform="translate(78.21125 84.84225) scale(0.088 -0.088)">
      <defs>
       <path id="DejaVuSans-32" d="M 1228 531 
L 3431 531 
L 3431 0 
L 469 0 
L 469 531 
Q 828 903 1448 1529 
Q 2069 2156 2228 2338 
Q 2531 2678 2651 2914 
Q 2772 3150 2772 3378 
Q 2772 3750 2511 3984 
Q 2250 4219 1831 4219 
Q 1534 4219 1204 4116 
Q 875 4013 500 3803 
L 500 4441 
Q 881 4594 1212 4672 
Q 1544 4750 1819 4750 
Q 2544 4750 2975 4387 
Q 3406 4025 3406 3419 
Q 3406 3131 3298 2873 
Q 3191 2616 2906 2266 
Q 2828 2175 2409 1742 
Q 1991 1309 1228 531 
z
" transform="scale(0.015625)"/>
      </defs>
      <use xlink:href="#DejaVuSans-Oblique-3b8" transform="translate(0 0.234375)"/>
      <use xlink:href="#DejaVuSans-32" transform="translate(61.181641 -16.171875) scale(0.7)"/>
     </g>
    </g>
    <g id="line2d_29">
     <path d="M 53.57125 94.210125 
L 62.37125 94.210125 
L 71.17125 94.210125 
" style="fill: none; stroke-dasharray: 4.44,1.92; stroke-dashoffset: 0; stroke: #8c564b; stroke-width: 1.2"/>
    </g>
    <g id="text_26">
     <!-- True value -->
     <g style="fill: #262626" transform="translate(78.21125 97.290125) scale(0.088 -0.088)">
      <use xlink:href="#ArialMT-54"/>
      <use xlink:href="#ArialMT-72" x="57.333984"/>
      <use xlink:href="#ArialMT-75" x="90.634766"/>
      <use xlink:href="#ArialMT-65" x="146.25"/>
      <use xlink:href="#ArialMT-20" x="201.865234"/>
      <use xlink:href="#ArialMT-76" x="229.648438"/>
      <use xlink:href="#ArialMT-61" x="279.648438"/>
      <use xlink:href="#ArialMT-6c" x="335.263672"/>
      <use xlink:href="#ArialMT-75" x="357.480469"/>
      <use xlink:href="#ArialMT-65" x="413.095703"/>
     </g>
    </g>
   </g>
  </g>
 </g>
 <defs>
  <clipPath id="pc798424cf5">
   <rect x="45.65125" y="20.0715" width="357.12" height="266.112"/>
  </clipPath>
 </defs>
</svg>