<?xml version="1.0" encoding="utf-8" standalone="no"?>
<!DOCTYPE svg PUBLIC "-//W3C//DTD SVG 1.1//EN"
  "http://www.w3.org/Graphics/SVG/1.1/DTD/svg11.dtd">
<svg xmlns:xlink="http://www.w3.org/1999/xlink" width="404.8315pt" height="309.639375pt" viewBox="0 0 404.8315 309.639375" xmlns="http://www.w3.org/2000/svg" version="1.1">
 <metadata>
  <rdf:RDF xmlns:dc="http://purl.org/dc/elements/1.1/" xmlns:cc="http://creativecommons.org/ns#" xmlns:rdf="http://www.w3.org/1999/02/22-rdf-syntax-ns#">
   <cc:Work>
    <dc:type rdf:resource="http://purl.org/dc/dcmitype/StillImage"/>
    <dc:date>2024-10-24T21:16:59.564116</dc:date>
    <dc:format>image/svg+xml</dc:format>
    <dc:creator>
     <cc:Agent>
      <dc:title>Matplotlib v3.9.2, https://matplotlib.org/</dc:title>
     </cc:Agent>
    </dc:creator>
   </cc:Work>
  </rdf:RDF>
 </metadata>
 <defs>
  <style type="text/css">*{stroke-linejoin: round; stroke-linecap: butt}</style>
 </defs>
 <g id="figure_1">
  <g id="patch_1">
   <path d="M 0 309.639375 
L 404.8315 309.639375 
L 404.8315 0 
L 0 0 
z
" style="fill: #ffffff"/>
  </g>
  <g id="axes_1">
   <g id="patch_2">
    <path d="M 40.5115 273.312 
L 397.6315 273.312 
L 397.6315 7.2 
L 40.5115 7.2 
z
" style="fill: #ffffff"/>
   </g>
   <g id="PolyCollection_1">
    <defs>
     <path id="mf2c427ec56" d="M 56.744227 -290.343375 
L 56.744227 -290.343375 
L 57.393536 -289.192725 
L 58.042845 -288.035596 
L 58.692155 -286.864414 
L 59.341464 -285.681798 
L 59.990773 -284.496209 
L 60.640082 -283.303777 
L 61.289391 -282.104655 
L 61.9387 -280.898835 
L 62.588009 -279.696552 
L 63.237318 -278.492042 
L 63.886627 -277.284473 
L 64.535936 -276.074204 
L 65.185245 -274.861599 
L 65.834555 -273.647025 
L 66.483864 -272.430981 
L 67.133173 -271.214712 
L 67.782482 -269.99785 
L 68.431791 -268.780837 
L 69.0811 -267.563926 
L 69.730409 -266.347114 
L 70.379718 -265.130538 
L 71.029027 -263.919822 
L 71.678336 -262.737076 
L 72.327645 -261.559131 
L 72.976955 -260.386386 
L 73.626264 -259.219235 
L 74.275573 -258.058072 
L 74.924882 -256.903285 
L 75.574191 -255.755258 
L 76.2235 -254.562627 
L 76.872809 -253.240635 
L 77.522118 -252.087792 
L 78.171427 -250.980046 
L 78.820736 -249.882795 
L 79.470045 -248.796342 
L 80.119355 -247.721067 
L 80.768664 -246.657336 
L 81.417973 -245.605506 
L 82.067282 -244.465245 
L 82.716591 -243.295447 
L 83.3659 -242.130068 
L 84.015209 -240.969397 
L 84.664518 -239.808327 
L 85.313827 -238.615069 
L 85.963136 -237.399796 
L 86.612445 -236.186321 
L 87.261755 -234.974874 
L 87.911064 -233.850242 
L 88.560373 -232.787943 
L 89.209682 -231.707091 
L 89.858991 -230.573779 
L 90.5083 -229.44652 
L 91.157609 -228.254158 
L 91.806918 -227.061316 
L 92.456227 -225.87208 
L 93.105536 -224.690102 
L 93.754845 -223.51385 
L 94.404155 -222.342087 
L 95.053464 -221.175048 
L 95.702773 -220.014796 
L 96.352082 -218.864183 
L 97.001391 -217.719193 
L 97.6507 -216.820836 
L 98.300009 -215.94035 
L 98.949318 -215.073064 
L 99.598627 -214.219005 
L 100.247936 -213.37601 
L 100.897245 -212.380705 
L 101.546555 -211.396691 
L 102.195864 -210.423312 
L 102.845173 -209.46077 
L 103.494482 -208.509265 
L 104.143791 -207.479696 
L 104.7931 -206.416879 
L 105.442409 -205.171984 
L 106.091718 -204.311329 
L 106.741027 -203.066652 
L 107.390336 -201.774075 
L 108.039645 -200.8619 
L 108.688955 -200.143058 
L 109.338264 -199.139491 
L 109.987573 -198.142441 
L 110.636882 -197.224432 
L 111.286191 -196.51329 
L 111.9355 -195.424184 
L 112.584809 -194.342746 
L 113.234118 -193.269242 
L 113.883427 -192.29775 
L 114.532736 -191.260817 
L 115.182045 -190.2886 
L 115.831355 -189.502517 
L 116.480664 -188.760871 
L 117.129973 -188.108358 
L 117.779282 -187.477001 
L 118.428591 -186.911535 
L 119.0779 -186.360859 
L 119.727209 -185.824861 
L 120.376518 -185.303417 
L 121.025827 -184.796394 
L 121.675136 -184.303647 
L 122.324445 -183.825023 
L 122.973755 -183.360357 
L 123.623064 -182.909475 
L 124.272373 -182.472195 
L 124.921682 -182.048322 
L 125.570991 -181.178516 
L 126.2203 -180.569309 
L 126.869609 -180.132292 
L 127.518918 -179.046199 
L 128.168227 -178.053265 
L 128.817536 -177.756656 
L 129.466845 -177.48323 
L 130.116155 -177.082136 
L 130.765464 -176.945694 
L 131.414773 -176.370061 
L 132.064082 -175.706986 
L 132.713391 -175.061198 
L 133.3627 -174.43271 
L 134.012009 -173.375154 
L 134.661318 -171.995561 
L 135.310627 -171.1691 
L 135.959936 -170.27993 
L 136.609245 -169.401892 
L 137.258555 -168.470007 
L 137.907864 -167.225159 
L 138.557173 -166.006722 
L 139.206482 -164.891737 
L 139.855791 -163.795414 
L 140.5051 -162.732946 
L 141.154409 -162.156724 
L 141.803718 -161.219286 
L 142.453027 -160.698508 
L 143.102336 -160.193648 
L 143.751645 -159.695569 
L 144.400955 -159.20704 
L 145.050264 -158.726289 
L 145.699573 -158.251581 
L 146.348882 -157.92165 
L 146.998191 -157.69349 
L 147.6475 -157.470981 
L 148.296809 -157.253743 
L 148.946118 -156.867711 
L 149.595427 -155.943117 
L 150.244736 -155.187131 
L 150.894045 -154.593321 
L 151.543355 -154.184075 
L 152.192664 -153.622572 
L 152.841973 -152.69001 
L 153.491282 -151.280822 
L 154.140591 -150.381095 
L 154.7899 -149.140004 
L 155.439209 -147.928092 
L 156.088518 -146.821001 
L 156.737827 -146.520518 
L 157.387136 -146.230425 
L 158.036445 -145.971465 
L 158.685755 -145.723307 
L 159.335064 -145.419886 
L 159.984373 -144.873815 
L 160.633682 -144.345231 
L 161.282991 -143.733507 
L 161.9323 -142.902846 
L 162.581609 -142.287679 
L 163.230918 -142.051943 
L 163.880227 -141.832381 
L 164.529536 -141.511148 
L 165.178845 -141.096849 
L 165.828155 -140.697157 
L 166.477464 -140.445989 
L 167.126773 -139.969031 
L 167.776082 -139.564687 
L 168.425391 -139.188237 
L 169.0747 -138.75095 
L 169.724009 -138.322874 
L 170.373318 -137.903774 
L 171.022627 -137.493413 
L 171.671936 -137.091693 
L 172.321245 -136.70512 
L 172.970555 -136.326521 
L 173.619864 -135.91121 
L 174.269173 -134.936193 
L 174.918482 -133.972645 
L 175.567791 -133.319886 
L 176.2171 -132.968142 
L 176.866409 -132.619026 
L 177.515718 -132.239836 
L 178.165027 -131.469139 
L 178.814336 -130.701352 
L 179.463645 -129.93677 
L 180.112955 -129.687731 
L 180.762264 -129.545634 
L 181.411573 -129.211705 
L 182.060882 -129.001304 
L 182.710191 -128.881526 
L 183.3595 -128.75948 
L 184.008809 -128.635282 
L 184.658118 -128.509047 
L 185.307427 -127.15192 
L 185.956736 -125.790655 
L 186.606045 -124.464217 
L 187.255355 -123.139096 
L 187.904664 -122.256768 
L 188.553973 -122.078584 
L 189.203282 -121.912419 
L 189.852591 -121.751793 
L 190.5019 -121.599974 
L 191.151209 -121.086194 
L 191.800518 -120.382911 
L 192.449827 -120.257359 
L 193.099136 -119.109005 
L 193.748445 -118.70099 
L 194.397755 -118.334238 
L 195.047064 -117.963966 
L 195.696373 -117.363786 
L 196.345682 -116.776386 
L 196.994991 -116.217647 
L 197.6443 -115.986317 
L 198.293609 -115.288004 
L 198.942918 -114.604295 
L 199.592227 -113.985835 
L 200.241536 -113.462617 
L 200.890845 -112.952957 
L 201.540155 -112.456819 
L 202.189464 -111.974145 
L 202.838773 -111.508035 
L 203.488082 -111.060229 
L 204.137391 -110.604705 
L 204.7867 -110.139395 
L 205.436009 -109.775357 
L 206.085318 -108.974653 
L 206.734627 -108.12252 
L 207.383936 -107.38176 
L 208.033245 -107.022469 
L 208.682555 -106.677873 
L 209.331864 -106.340786 
L 209.981173 -106.010554 
L 210.630482 -105.69581 
L 211.279791 -105.387759 
L 211.9291 -104.973883 
L 212.578409 -104.50131 
L 213.227718 -104.03067 
L 213.877027 -103.585485 
L 214.526336 -103.241232 
L 215.175645 -103.230542 
L 215.824955 -103.218368 
L 216.474264 -103.042256 
L 217.123573 -102.766926 
L 217.772882 -102.49498 
L 218.422191 -102.223418 
L 219.0715 -101.888649 
L 219.720809 -101.421517 
L 220.370118 -100.893753 
L 221.019427 -100.886633 
L 221.668736 -100.043444 
L 222.318045 -99.306752 
L 222.967355 -98.786257 
L 223.616664 -98.203759 
L 224.265973 -97.82336 
L 224.915282 -97.533409 
L 225.564591 -96.86167 
L 226.2139 -96.597689 
L 226.863209 -96.337887 
L 227.512518 -96.083364 
L 228.161827 -95.834311 
L 228.811136 -95.588589 
L 229.460445 -95.347659 
L 230.109755 -95.109988 
L 230.759064 -94.874948 
L 231.408373 -94.642542 
L 232.057682 -94.350083 
L 232.706991 -93.608135 
L 233.3563 -93.290466 
L 234.005609 -93.126052 
L 234.654918 -92.960638 
L 235.304227 -92.383231 
L 235.953536 -91.913039 
L 236.602845 -91.41034 
L 237.252155 -91.274121 
L 237.901464 -90.863447 
L 238.550773 -90.378005 
L 239.200082 -90.053655 
L 239.849391 -89.89832 
L 240.4987 -89.749655 
L 241.148009 -89.604199 
L 241.797318 -89.148607 
L 242.446627 -88.798663 
L 243.095936 -88.732616 
L 243.745245 -88.664199 
L 244.394555 -88.595191 
L 245.043864 -88.522395 
L 245.693173 -88.244444 
L 246.342482 -87.888379 
L 246.991791 -87.540856 
L 247.6411 -87.008275 
L 248.290409 -86.275893 
L 248.939718 -85.844251 
L 249.589027 -85.616259 
L 250.238336 -85.393097 
L 250.887645 -85.239812 
L 251.536955 -85.139138 
L 252.186264 -85.030686 
L 252.835573 -84.746246 
L 253.484882 -84.467399 
L 254.134191 -84.193883 
L 254.7835 -83.925442 
L 255.432809 -83.717241 
L 256.082118 -83.522587 
L 256.731427 -83.331442 
L 257.380736 -83.144304 
L 258.030045 -82.964508 
L 258.679355 -82.794232 
L 259.328664 -82.748864 
L 259.977973 -82.714575 
L 260.627282 -82.569842 
L 261.276591 -82.114721 
L 261.9259 -81.929485 
L 262.575209 -81.764347 
L 263.224518 -81.570737 
L 263.873827 -81.152043 
L 264.523136 -81.012387 
L 265.172445 -80.893217 
L 265.821755 -80.775701 
L 266.471064 -80.66341 
L 267.120373 -80.535901 
L 267.769682 -80.269289 
L 268.418991 -79.906278 
L 269.0683 -79.390485 
L 269.717609 -78.880075 
L 270.366918 -78.378363 
L 271.016227 -78.15702 
L 271.665536 -77.942671 
L 272.314845 -77.570007 
L 272.964155 -77.326092 
L 273.613464 -77.154724 
L 274.262773 -76.827314 
L 274.912082 -76.370729 
L 275.561391 -76.343442 
L 276.2107 -76.082535 
L 276.860009 -75.758792 
L 277.509318 -75.438564 
L 278.158627 -75.125778 
L 278.807936 -74.81519 
L 279.457245 -74.420952 
L 280.106555 -73.998999 
L 280.755864 -73.832496 
L 281.405173 -73.581478 
L 282.054482 -73.244349 
L 282.703791 -72.90459 
L 283.3531 -72.588693 
L 284.002409 -72.403745 
L 284.651718 -71.933172 
L 285.301027 -71.59721 
L 285.950336 -71.292533 
L 286.599645 -71.128339 
L 287.248955 -70.944155 
L 287.898264 -70.616484 
L 288.547573 -70.456363 
L 289.196882 -70.191679 
L 289.846191 -69.934816 
L 290.4955 -69.682385 
L 291.144809 -69.537188 
L 291.794118 -69.398098 
L 292.443427 -69.260787 
L 293.092736 -69.125236 
L 293.742045 -68.992368 
L 294.391355 -68.495057 
L 295.040664 -68.174586 
L 295.689973 -67.93088 
L 296.339282 -67.804633 
L 296.988591 -67.478438 
L 297.6379 -67.269299 
L 298.287209 -66.946317 
L 298.936518 -66.860755 
L 299.585827 -66.754742 
L 300.235136 -66.579722 
L 300.884445 -66.40693 
L 301.533755 -66.219964 
L 302.183064 -65.995705 
L 302.832373 -65.776792 
L 303.481682 -65.541659 
L 304.130991 -65.311554 
L 304.7803 -65.135048 
L 305.429609 -64.886497 
L 306.078918 -64.643811 
L 306.728227 -64.427731 
L 307.377536 -64.106442 
L 308.026845 -63.811673 
L 308.676155 -63.722443 
L 309.325464 -63.606141 
L 309.974773 -63.267447 
L 310.624082 -63.039935 
L 311.273391 -62.899927 
L 311.9227 -62.764413 
L 312.572009 -62.63306 
L 313.221318 -62.469404 
L 313.870627 -62.276066 
L 314.519936 -61.842505 
L 315.169245 -61.625301 
L 315.818555 -61.478597 
L 316.467864 -61.33863 
L 317.117173 -61.130647 
L 317.766482 -60.908294 
L 318.415791 -60.700371 
L 319.0651 -60.484895 
L 319.714409 -60.428085 
L 320.363718 -60.377393 
L 321.013027 -60.331411 
L 321.662336 -60.260164 
L 322.311645 -60.10019 
L 322.960955 -59.944238 
L 323.610264 -59.790828 
L 324.259573 -59.638525 
L 324.908882 -59.509147 
L 325.558191 -59.514164 
L 326.2075 -59.233526 
L 326.856809 -59.213648 
L 327.506118 -59.128444 
L 328.155427 -58.92913 
L 328.804736 -58.734161 
L 329.454045 -58.544384 
L 330.103355 -58.408109 
L 330.752664 -58.319194 
L 331.401973 -58.227948 
L 332.051282 -58.06646 
L 332.700591 -57.806471 
L 333.3499 -57.558686 
L 333.999209 -57.416198 
L 334.648518 -57.299163 
L 335.297827 -57.171071 
L 335.947136 -57.076004 
L 336.596445 -56.981591 
L 337.245755 -56.86123 
L 337.895064 -56.717262 
L 338.544373 -56.575755 
L 339.193682 -56.345349 
L 339.842991 -56.040178 
L 340.4923 -55.819468 
L 341.141609 -55.699944 
L 341.790918 -55.644776 
L 342.440227 -55.61342 
L 343.089536 -55.523306 
L 343.738845 -55.243075 
L 344.388155 -55.057934 
L 345.037464 -54.929969 
L 345.686773 -54.639089 
L 346.336082 -54.50228 
L 346.985391 -54.268821 
L 347.6347 -54.043712 
L 348.284009 -53.778272 
L 348.933318 -53.542419 
L 349.582627 -53.346975 
L 350.231936 -53.089955 
L 350.881245 -52.975205 
L 351.530555 -52.878093 
L 352.179864 -52.751981 
L 352.829173 -52.612202 
L 353.478482 -52.478833 
L 354.127791 -52.347365 
L 354.7771 -52.219546 
L 355.426409 -52.131433 
L 356.075718 -52.032287 
L 356.725027 -51.913089 
L 357.374336 -51.758365 
L 358.023645 -51.679271 
L 358.672955 -51.563696 
L 359.322264 -51.437 
L 359.971573 -51.327835 
L 360.620882 -51.22349 
L 361.270191 -51.105322 
L 361.9195 -50.964842 
L 362.568809 -50.884084 
L 363.218118 -50.767664 
L 363.867427 -50.640545 
L 364.516736 -50.526295 
L 365.166045 -50.484943 
L 365.815355 -50.417629 
L 366.464664 -50.322931 
L 367.113973 -50.209427 
L 367.763282 -50.100547 
L 368.412591 -49.996037 
L 369.0619 -49.83841 
L 369.711209 -49.706794 
L 370.360518 -49.621871 
L 371.009827 -49.540042 
L 371.659136 -49.460855 
L 372.308445 -49.384058 
L 372.957755 -49.309398 
L 373.607064 -49.236626 
L 374.256373 -49.165492 
L 374.905682 -49.098627 
L 375.554991 -49.032583 
L 376.2043 -48.967046 
L 376.853609 -48.909966 
L 377.502918 -48.845708 
L 378.152227 -48.774776 
L 378.801536 -48.703745 
L 379.450845 -48.634904 
L 380.100155 -48.565269 
L 380.749464 -48.494757 
L 381.398773 -48.423375 
L 381.398773 -48.423375 
L 381.398773 -48.423375 
L 380.749464 -49.788793 
L 380.100155 -51.162927 
L 379.450845 -52.54524 
L 378.801536 -53.935167 
L 378.152227 -55.332117 
L 377.502918 -56.735478 
L 376.853609 -58.144612 
L 376.2043 -59.558861 
L 375.554991 -60.977546 
L 374.905682 -62.399705 
L 374.256373 -63.824252 
L 373.607064 -65.250913 
L 372.957755 -66.678939 
L 372.308445 -68.111822 
L 371.659136 -69.549355 
L 371.009827 -70.987551 
L 370.360518 -72.425705 
L 369.711209 -73.852707 
L 369.0619 -75.241802 
L 368.412591 -76.671016 
L 367.763282 -78.097134 
L 367.113973 -79.51944 
L 366.464664 -80.93722 
L 365.815355 -82.349768 
L 365.166045 -83.756387 
L 364.516736 -85.156389 
L 363.867427 -86.549098 
L 363.218118 -87.974409 
L 362.568809 -89.445606 
L 361.9195 -90.82503 
L 361.270191 -92.19523 
L 360.620882 -93.555618 
L 359.971573 -94.901842 
L 359.322264 -96.266813 
L 358.672955 -97.682163 
L 358.023645 -99.091927 
L 357.374336 -100.417868 
L 356.725027 -101.677228 
L 356.075718 -102.921075 
L 355.426409 -104.146546 
L 354.7771 -105.354451 
L 354.127791 -106.545532 
L 353.478482 -107.719479 
L 352.829173 -108.877835 
L 352.179864 -110.060396 
L 351.530555 -111.22703 
L 350.881245 -112.377508 
L 350.231936 -113.511621 
L 349.582627 -114.62919 
L 348.933318 -115.730053 
L 348.284009 -116.814073 
L 347.6347 -117.881136 
L 346.985391 -118.929701 
L 346.336082 -119.960099 
L 345.686773 -121.07136 
L 345.037464 -122.227226 
L 344.388155 -123.186184 
L 343.738845 -124.127596 
L 343.089536 -125.049501 
L 342.440227 -125.948829 
L 341.790918 -126.830648 
L 341.141609 -127.69508 
L 340.4923 -128.542257 
L 339.842991 -129.372327 
L 339.193682 -130.204946 
L 338.544373 -131.03171 
L 337.895064 -131.841758 
L 337.245755 -132.635203 
L 336.596445 -133.412165 
L 335.947136 -134.17277 
L 335.297827 -135.049847 
L 334.648518 -135.722389 
L 333.999209 -136.379043 
L 333.3499 -137.085623 
L 332.700591 -138.004994 
L 332.051282 -138.905898 
L 331.401973 -139.789249 
L 330.752664 -140.359034 
L 330.103355 -140.988637 
L 329.454045 -141.990624 
L 328.804736 -143.058304 
L 328.155427 -144.120773 
L 327.506118 -144.975718 
L 326.856809 -145.812025 
L 326.2075 -146.882138 
L 325.558191 -147.94002 
L 324.908882 -148.589392 
L 324.259573 -149.511402 
L 323.610264 -150.44539 
L 322.960955 -151.660692 
L 322.311645 -152.887839 
L 321.662336 -154.112393 
L 321.013027 -154.776427 
L 320.363718 -155.305229 
L 319.714409 -155.813682 
L 319.0651 -156.555923 
L 318.415791 -157.20063 
L 317.766482 -157.568354 
L 317.117173 -157.93059 
L 316.467864 -158.287886 
L 315.818555 -158.699162 
L 315.169245 -159.531422 
L 314.519936 -160.392172 
L 313.870627 -161.246924 
L 313.221318 -162.09559 
L 312.572009 -162.711717 
L 311.9227 -163.052785 
L 311.273391 -163.38804 
L 310.624082 -163.717821 
L 309.974773 -164.360163 
L 309.325464 -165.039255 
L 308.676155 -165.285865 
L 308.026845 -165.567244 
L 307.377536 -166.034696 
L 306.728227 -166.569363 
L 306.078918 -167.193653 
L 305.429609 -168.00537 
L 304.7803 -168.590563 
L 304.130991 -169.348448 
L 303.481682 -170.320561 
L 302.832373 -171.130259 
L 302.183064 -171.52296 
L 301.533755 -172.446587 
L 300.884445 -173.363839 
L 300.235136 -174.27178 
L 299.585827 -175.17162 
L 298.936518 -176.054989 
L 298.287209 -176.782103 
L 297.6379 -177.567601 
L 296.988591 -178.503059 
L 296.339282 -179.426146 
L 295.689973 -179.844248 
L 295.040664 -180.133761 
L 294.391355 -180.995575 
L 293.742045 -181.429158 
L 293.092736 -182.102354 
L 292.443427 -182.759027 
L 291.794118 -183.339916 
L 291.144809 -183.618727 
L 290.4955 -183.888797 
L 289.846191 -184.150389 
L 289.196882 -184.403773 
L 288.547573 -184.790298 
L 287.898264 -185.244404 
L 287.248955 -185.684558 
L 286.599645 -186.45375 
L 285.950336 -187.576878 
L 285.301027 -188.684139 
L 284.651718 -189.193069 
L 284.002409 -189.58662 
L 283.3531 -189.966632 
L 282.703791 -190.339462 
L 282.054482 -190.729148 
L 281.405173 -191.971271 
L 280.755864 -193.202559 
L 280.106555 -193.537747 
L 279.457245 -193.697236 
L 278.807936 -194.099875 
L 278.158627 -194.377965 
L 277.509318 -194.642401 
L 276.860009 -194.900418 
L 276.2107 -195.152269 
L 275.561391 -195.398215 
L 274.912082 -195.638522 
L 274.262773 -195.940988 
L 273.613464 -196.639789 
L 272.964155 -197.326221 
L 272.314845 -197.996446 
L 271.665536 -198.293071 
L 271.016227 -198.582858 
L 270.366918 -198.866199 
L 269.717609 -199.143493 
L 269.0683 -199.415137 
L 268.418991 -200.011668 
L 267.769682 -200.897765 
L 267.120373 -201.786836 
L 266.471064 -202.67842 
L 265.821755 -203.182445 
L 265.172445 -203.386855 
L 264.523136 -203.585145 
L 263.873827 -203.777388 
L 263.224518 -204.316856 
L 262.575209 -204.927038 
L 261.9259 -205.173759 
L 261.276591 -205.412895 
L 260.627282 -205.64694 
L 259.977973 -206.02526 
L 259.328664 -206.42425 
L 258.679355 -206.813189 
L 258.030045 -207.192279 
L 257.380736 -207.79986 
L 256.731427 -208.119909 
L 256.082118 -208.266216 
L 255.432809 -208.603109 
L 254.7835 -208.931093 
L 254.134191 -209.101384 
L 253.484882 -209.260219 
L 252.835573 -209.414946 
L 252.186264 -209.565833 
L 251.536955 -209.713143 
L 250.887645 -210.084147 
L 250.238336 -210.544965 
L 249.589027 -211.000988 
L 248.939718 -211.455711 
L 248.290409 -211.905592 
L 247.6411 -212.433658 
L 246.991791 -212.802176 
L 246.342482 -213.24285 
L 245.693173 -213.670696 
L 245.043864 -214.198266 
L 244.394555 -214.512652 
L 243.745245 -214.93257 
L 243.095936 -215.347288 
L 242.446627 -215.756776 
L 241.797318 -216.161 
L 241.148009 -216.559928 
L 240.4987 -216.953526 
L 239.849391 -217.341758 
L 239.200082 -217.724589 
L 238.550773 -218.101985 
L 237.901464 -218.47391 
L 237.252155 -218.840329 
L 236.602845 -219.198295 
L 235.953536 -219.549556 
L 235.304227 -219.895427 
L 234.654918 -220.23588 
L 234.005609 -220.570889 
L 233.3563 -220.90043 
L 232.706991 -221.224483 
L 232.057682 -221.543029 
L 231.408373 -221.929597 
L 230.759064 -222.266878 
L 230.109755 -222.506425 
L 229.460445 -222.797604 
L 228.811136 -223.090209 
L 228.161827 -223.387961 
L 227.512518 -224.041173 
L 226.863209 -224.768428 
L 226.2139 -225.493111 
L 225.564591 -225.750272 
L 224.915282 -226.141563 
L 224.265973 -226.469032 
L 223.616664 -227.106639 
L 222.967355 -227.887357 
L 222.318045 -228.903343 
L 221.668736 -229.513662 
L 221.019427 -229.787842 
L 220.370118 -230.278572 
L 219.720809 -230.913349 
L 219.0715 -231.461496 
L 218.422191 -231.820566 
L 217.772882 -232.206661 
L 217.123573 -233.028516 
L 216.474264 -233.841158 
L 215.824955 -234.447771 
L 215.175645 -234.984054 
L 214.526336 -235.247688 
L 213.877027 -235.496928 
L 213.227718 -235.743342 
L 212.578409 -236.195137 
L 211.9291 -236.770635 
L 211.279791 -237.779179 
L 210.630482 -238.161046 
L 209.981173 -238.482885 
L 209.331864 -238.966164 
L 208.682555 -239.496928 
L 208.033245 -240.020436 
L 207.383936 -240.470707 
L 206.734627 -241.052424 
L 206.085318 -241.560554 
L 205.436009 -242.06116 
L 204.7867 -242.554148 
L 204.137391 -243.032495 
L 203.488082 -243.679371 
L 202.838773 -243.975103 
L 202.189464 -244.434444 
L 201.540155 -244.877932 
L 200.890845 -245.31357 
L 200.241536 -245.522992 
L 199.592227 -246.025419 
L 198.942918 -246.564135 
L 198.293609 -246.901067 
L 197.6443 -247.407009 
L 196.994991 -248.0885 
L 196.345682 -248.668108 
L 195.696373 -248.84019 
L 195.047064 -248.957623 
L 194.397755 -249.325813 
L 193.748445 -249.680963 
L 193.099136 -250.025974 
L 192.449827 -250.537643 
L 191.800518 -250.892785 
L 191.151209 -251.047816 
L 190.5019 -251.373313 
L 189.852591 -251.690312 
L 189.203282 -252.001146 
L 188.553973 -252.305987 
L 187.904664 -252.604581 
L 187.255355 -252.967859 
L 186.606045 -253.55999 
L 185.956736 -254.139287 
L 185.307427 -254.669759 
L 184.658118 -254.85907 
L 184.008809 -255.043228 
L 183.3595 -255.226558 
L 182.710191 -255.362892 
L 182.060882 -255.423032 
L 181.411573 -255.487537 
L 180.762264 -255.556604 
L 180.112955 -255.780382 
L 179.463645 -256.019604 
L 178.814336 -256.255898 
L 178.165027 -256.489463 
L 177.515718 -256.720499 
L 176.866409 -256.949202 
L 176.2171 -257.216351 
L 175.567791 -257.588836 
L 174.918482 -257.800323 
L 174.269173 -258.038359 
L 173.619864 -258.34003 
L 172.970555 -258.630978 
L 172.321245 -258.689193 
L 171.671936 -258.864291 
L 171.022627 -259.082598 
L 170.373318 -259.3021 
L 169.724009 -259.519648 
L 169.0747 -259.738724 
L 168.425391 -259.95931 
L 167.776082 -260.201874 
L 167.126773 -260.51816 
L 166.477464 -260.678865 
L 165.828155 -260.865994 
L 165.178845 -261.097858 
L 164.529536 -261.384722 
L 163.880227 -261.967633 
L 163.230918 -262.461878 
L 162.581609 -262.75297 
L 161.9323 -263.03687 
L 161.282991 -263.321019 
L 160.633682 -263.8003 
L 159.984373 -264.01916 
L 159.335064 -264.226918 
L 158.685755 -264.438114 
L 158.036445 -264.646589 
L 157.387136 -264.851689 
L 156.737827 -265.054547 
L 156.088518 -265.239815 
L 155.439209 -265.449186 
L 154.7899 -265.752078 
L 154.140591 -266.148409 
L 153.491282 -266.545677 
L 152.841973 -267.047965 
L 152.192664 -267.706798 
L 151.543355 -267.831599 
L 150.894045 -268.190276 
L 150.244736 -268.408339 
L 149.595427 -268.754338 
L 148.946118 -269.093207 
L 148.296809 -269.308545 
L 147.6475 -269.494097 
L 146.998191 -269.67443 
L 146.348882 -269.853413 
L 145.699573 -270.032661 
L 145.050264 -270.21227 
L 144.400955 -270.37027 
L 143.751645 -270.528702 
L 143.102336 -270.730338 
L 142.453027 -270.929825 
L 141.803718 -271.129382 
L 141.154409 -271.370164 
L 140.5051 -271.739674 
L 139.855791 -272.100872 
L 139.206482 -272.483811 
L 138.557173 -272.80851 
L 137.907864 -273.144846 
L 137.258555 -273.361306 
L 136.609245 -273.520173 
L 135.959936 -273.677136 
L 135.310627 -273.832175 
L 134.661318 -274.032222 
L 134.012009 -274.289884 
L 133.3627 -274.54339 
L 132.713391 -274.793255 
L 132.064082 -275.006212 
L 131.414773 -275.288175 
L 130.765464 -275.421366 
L 130.116155 -275.559965 
L 129.466845 -275.775137 
L 128.817536 -275.981375 
L 128.168227 -276.16455 
L 127.518918 -276.373257 
L 126.869609 -276.561176 
L 126.2203 -276.741558 
L 125.570991 -276.913581 
L 124.921682 -277.185955 
L 124.272373 -277.495069 
L 123.623064 -277.79554 
L 122.973755 -278.050667 
L 122.324445 -278.34502 
L 121.675136 -278.574009 
L 121.025827 -278.920871 
L 120.376518 -279.180993 
L 119.727209 -279.432544 
L 119.0779 -279.675634 
L 118.428591 -279.909517 
L 117.779282 -280.094414 
L 117.129973 -280.223507 
L 116.480664 -280.347825 
L 115.831355 -280.466602 
L 115.182045 -280.579159 
L 114.532736 -280.709453 
L 113.883427 -280.911273 
L 113.234118 -281.022635 
L 112.584809 -281.1751 
L 111.9355 -281.290886 
L 111.286191 -281.364565 
L 110.636882 -281.51233 
L 109.987573 -281.718352 
L 109.338264 -282.011306 
L 108.688955 -282.08778 
L 108.039645 -282.155151 
L 107.390336 -282.254181 
L 106.741027 -282.442855 
L 106.091718 -282.420569 
L 105.442409 -282.454843 
L 104.7931 -282.546789 
L 104.143791 -282.513129 
L 103.494482 -282.577845 
L 102.845173 -282.730647 
L 102.195864 -282.821132 
L 101.546555 -282.956085 
L 100.897245 -283.176888 
L 100.247936 -283.300031 
L 99.598627 -283.370863 
L 98.949318 -283.507551 
L 98.300009 -283.686066 
L 97.6507 -283.840582 
L 97.001391 -283.933482 
L 96.352082 -284.022958 
L 95.702773 -284.127419 
L 95.053464 -284.241188 
L 94.404155 -284.411432 
L 93.754845 -284.471226 
L 93.105536 -284.581393 
L 92.456227 -284.688387 
L 91.806918 -284.779249 
L 91.157609 -284.890542 
L 90.5083 -285.002291 
L 89.858991 -285.103437 
L 89.209682 -285.203358 
L 88.560373 -285.320584 
L 87.911064 -285.400011 
L 87.261755 -285.49913 
L 86.612445 -285.697111 
L 85.963136 -285.888897 
L 85.313827 -286.003826 
L 84.664518 -286.107619 
L 84.015209 -286.265862 
L 83.3659 -286.479327 
L 82.716591 -286.634948 
L 82.067282 -286.809272 
L 81.417973 -286.924213 
L 80.768664 -286.948119 
L 80.119355 -287.002518 
L 79.470045 -287.125286 
L 78.820736 -287.250105 
L 78.171427 -287.396003 
L 77.522118 -287.536193 
L 76.872809 -287.670893 
L 76.2235 -287.783407 
L 75.574191 -287.849972 
L 74.924882 -287.928612 
L 74.275573 -288.010711 
L 73.626264 -288.090864 
L 72.976955 -288.170477 
L 72.327645 -288.261084 
L 71.678336 -288.397263 
L 71.029027 -288.459617 
L 70.379718 -288.522589 
L 69.730409 -288.625627 
L 69.0811 -288.720981 
L 68.431791 -288.772562 
L 67.782482 -288.833501 
L 67.133173 -288.971266 
L 66.483864 -289.065506 
L 65.834555 -289.13786 
L 65.185245 -289.210818 
L 64.535936 -289.324806 
L 63.886627 -289.393535 
L 63.237318 -289.538705 
L 62.588009 -289.605226 
L 61.9387 -289.671628 
L 61.289391 -289.7471 
L 60.640082 -289.830737 
L 59.990773 -289.908264 
L 59.341464 -289.988822 
L 58.692155 -290.080127 
L 58.042845 -290.170234 
L 57.393536 -290.256231 
L 56.744227 -290.343375 
z
" style="stroke: #ffffff; stroke-opacity: 0.3; stroke-width: 0.8"/>
    </defs>
    <g clip-path="url(#p63c47ecdc9)">
     <use xlink:href="#mf2c427ec56" x="0" y="309.639375" style="fill: #1f77b4; fill-opacity: 0.3; stroke: #ffffff; stroke-opacity: 0.3; stroke-width: 0.8"/>
    </g>
   </g>
   <g id="matplotlib.axis_1">
    <g id="xtick_1">
     <g id="line2d_1">
      <defs>
       <path id="m29979bc0f8" d="M 0 0 
L 0 4.8 
" style="stroke: #262626"/>
      </defs>
      <g>
       <use xlink:href="#m29979bc0f8" x="56.744227" y="273.312" style="fill: #262626; stroke: #262626"/>
      </g>
     </g>
     <g id="text_1">
      <!-- 0.0 -->
      <g style="fill: #262626" transform="translate(50.628227 287.910875) scale(0.088 -0.088)">
       <defs>
        <path id="ArialMT-30" d="M 266 2259 
Q 266 3072 433 3567 
Q 600 4063 929 4331 
Q 1259 4600 1759 4600 
Q 2128 4600 2406 4451 
Q 2684 4303 2865 4023 
Q 3047 3744 3150 3342 
Q 3253 2941 3253 2259 
Q 3253 1453 3087 958 
Q 2922 463 2592 192 
Q 2263 -78 1759 -78 
Q 1097 -78 719 397 
Q 266 969 266 2259 
z
M 844 2259 
Q 844 1131 1108 757 
Q 1372 384 1759 384 
Q 2147 384 2411 759 
Q 2675 1134 2675 2259 
Q 2675 3391 2411 3762 
Q 2147 4134 1753 4134 
Q 1366 4134 1134 3806 
Q 844 3388 844 2259 
z
" transform="scale(0.015625)"/>
        <path id="ArialMT-2e" d="M 581 0 
L 581 641 
L 1222 641 
L 1222 0 
L 581 0 
z
" transform="scale(0.015625)"/>
       </defs>
       <use xlink:href="#ArialMT-30"/>
       <use xlink:href="#ArialMT-2e" x="55.615234"/>
       <use xlink:href="#ArialMT-30" x="83.398438"/>
      </g>
     </g>
    </g>
    <g id="xtick_2">
     <g id="line2d_2">
      <g>
       <use xlink:href="#m29979bc0f8" x="121.675136" y="273.312" style="fill: #262626; stroke: #262626"/>
      </g>
     </g>
     <g id="text_2">
      <!-- 0.2 -->
      <g style="fill: #262626" transform="translate(115.559136 287.910875) scale(0.088 -0.088)">
       <defs>
        <path id="ArialMT-32" d="M 3222 541 
L 3222 0 
L 194 0 
Q 188 203 259 391 
Q 375 700 629 1000 
Q 884 1300 1366 1694 
Q 2113 2306 2375 2664 
Q 2638 3022 2638 3341 
Q 2638 3675 2398 3904 
Q 2159 4134 1775 4134 
Q 1369 4134 1125 3890 
Q 881 3647 878 3216 
L 300 3275 
Q 359 3922 746 4261 
Q 1134 4600 1788 4600 
Q 2447 4600 2831 4234 
Q 3216 3869 3216 3328 
Q 3216 3053 3103 2787 
Q 2991 2522 2730 2228 
Q 2469 1934 1863 1422 
Q 1356 997 1212 845 
Q 1069 694 975 541 
L 3222 541 
z
" transform="scale(0.015625)"/>
       </defs>
       <use xlink:href="#ArialMT-30"/>
       <use xlink:href="#ArialMT-2e" x="55.615234"/>
       <use xlink:href="#ArialMT-32" x="83.398438"/>
      </g>
     </g>
    </g>
    <g id="xtick_3">
     <g id="line2d_3">
      <g>
       <use xlink:href="#m29979bc0f8" x="186.606045" y="273.312" style="fill: #262626; stroke: #262626"/>
      </g>
     </g>
     <g id="text_3">
      <!-- 0.4 -->
      <g style="fill: #262626" transform="translate(180.490045 287.910875) scale(0.088 -0.088)">
       <defs>
        <path id="ArialMT-34" d="M 2069 0 
L 2069 1097 
L 81 1097 
L 81 1613 
L 2172 4581 
L 2631 4581 
L 2631 1613 
L 3250 1613 
L 3250 1097 
L 2631 1097 
L 2631 0 
L 2069 0 
z
M 2069 1613 
L 2069 3678 
L 634 1613 
L 2069 1613 
z
" transform="scale(0.015625)"/>
       </defs>
       <use xlink:href="#ArialMT-30"/>
       <use xlink:href="#ArialMT-2e" x="55.615234"/>
       <use xlink:href="#ArialMT-34" x="83.398438"/>
      </g>
     </g>
    </g>
    <g id="xtick_4">
     <g id="line2d_4">
      <g>
       <use xlink:href="#m29979bc0f8" x="251.536955" y="273.312" style="fill: #262626; stroke: #262626"/>
      </g>
     </g>
     <g id="text_4">
      <!-- 0.6 -->
      <g style="fill: #262626" transform="translate(245.420955 287.910875) scale(0.088 -0.088)">
       <defs>
        <path id="ArialMT-36" d="M 3184 3459 
L 2625 3416 
Q 2550 3747 2413 3897 
Q 2184 4138 1850 4138 
Q 1581 4138 1378 3988 
Q 1113 3794 959 3422 
Q 806 3050 800 2363 
Q 1003 2672 1297 2822 
Q 1591 2972 1913 2972 
Q 2475 2972 2870 2558 
Q 3266 2144 3266 1488 
Q 3266 1056 3080 686 
Q 2894 316 2569 119 
Q 2244 -78 1831 -78 
Q 1128 -78 684 439 
Q 241 956 241 2144 
Q 241 3472 731 4075 
Q 1159 4600 1884 4600 
Q 2425 4600 2770 4297 
Q 3116 3994 3184 3459 
z
M 888 1484 
Q 888 1194 1011 928 
Q 1134 663 1356 523 
Q 1578 384 1822 384 
Q 2178 384 2434 671 
Q 2691 959 2691 1453 
Q 2691 1928 2437 2201 
Q 2184 2475 1800 2475 
Q 1419 2475 1153 2201 
Q 888 1928 888 1484 
z
" transform="scale(0.015625)"/>
       </defs>
       <use xlink:href="#ArialMT-30"/>
       <use xlink:href="#ArialMT-2e" x="55.615234"/>
       <use xlink:href="#ArialMT-36" x="83.398438"/>
      </g>
     </g>
    </g>
    <g id="xtick_5">
     <g id="line2d_5">
      <g>
       <use xlink:href="#m29979bc0f8" x="316.467864" y="273.312" style="fill: #262626; stroke: #262626"/>
      </g>
     </g>
     <g id="text_5">
      <!-- 0.8 -->
      <g style="fill: #262626" transform="translate(310.351864 287.910875) scale(0.088 -0.088)">
       <defs>
        <path id="ArialMT-38" d="M 1131 2484 
Q 781 2613 612 2850 
Q 444 3088 444 3419 
Q 444 3919 803 4259 
Q 1163 4600 1759 4600 
Q 2359 4600 2725 4251 
Q 3091 3903 3091 3403 
Q 3091 3084 2923 2848 
Q 2756 2613 2416 2484 
Q 2838 2347 3058 2040 
Q 3278 1734 3278 1309 
Q 3278 722 2862 322 
Q 2447 -78 1769 -78 
Q 1091 -78 675 323 
Q 259 725 259 1325 
Q 259 1772 486 2073 
Q 713 2375 1131 2484 
z
M 1019 3438 
Q 1019 3113 1228 2906 
Q 1438 2700 1772 2700 
Q 2097 2700 2305 2904 
Q 2513 3109 2513 3406 
Q 2513 3716 2298 3927 
Q 2084 4138 1766 4138 
Q 1444 4138 1231 3931 
Q 1019 3725 1019 3438 
z
M 838 1322 
Q 838 1081 952 856 
Q 1066 631 1291 507 
Q 1516 384 1775 384 
Q 2178 384 2440 643 
Q 2703 903 2703 1303 
Q 2703 1709 2433 1975 
Q 2163 2241 1756 2241 
Q 1359 2241 1098 1978 
Q 838 1716 838 1322 
z
" transform="scale(0.015625)"/>
       </defs>
       <use xlink:href="#ArialMT-30"/>
       <use xlink:href="#ArialMT-2e" x="55.615234"/>
       <use xlink:href="#ArialMT-38" x="83.398438"/>
      </g>
     </g>
    </g>
    <g id="xtick_6">
     <g id="line2d_6">
      <g>
       <use xlink:href="#m29979bc0f8" x="381.398773" y="273.312" style="fill: #262626; stroke: #262626"/>
      </g>
     </g>
     <g id="text_6">
      <!-- 1.0 -->
      <g style="fill: #262626" transform="translate(375.282773 287.910875) scale(0.088 -0.088)">
       <defs>
        <path id="ArialMT-31" d="M 2384 0 
L 1822 0 
L 1822 3584 
Q 1619 3391 1289 3197 
Q 959 3003 697 2906 
L 697 3450 
Q 1169 3672 1522 3987 
Q 1875 4303 2022 4600 
L 2384 4600 
L 2384 0 
z
" transform="scale(0.015625)"/>
       </defs>
       <use xlink:href="#ArialMT-31"/>
       <use xlink:href="#ArialMT-2e" x="55.615234"/>
       <use xlink:href="#ArialMT-30" x="83.398438"/>
      </g>
     </g>
    </g>
    <g id="text_7">
     <!-- $x$ -->
     <g style="fill: #262626" transform="translate(216.1915 300.531375) scale(0.096 -0.096)">
      <defs>
       <path id="DejaVuSans-Oblique-78" d="M 3841 3500 
L 2234 1784 
L 3219 0 
L 2559 0 
L 1819 1388 
L 531 0 
L -166 0 
L 1556 1844 
L 641 3500 
L 1300 3500 
L 1972 2234 
L 3144 3500 
L 3841 3500 
z
" transform="scale(0.015625)"/>
      </defs>
      <use xlink:href="#DejaVuSans-Oblique-78" transform="translate(0 0.3125)"/>
     </g>
    </g>
   </g>
   <g id="matplotlib.axis_2">
    <g id="ytick_1">
     <g id="line2d_7">
      <defs>
       <path id="md5f9af57df" d="M 0 0 
L -4.8 0 
" style="stroke: #262626"/>
      </defs>
      <g>
       <use xlink:href="#md5f9af57df" x="40.5115" y="261.216" style="fill: #262626; stroke: #262626"/>
      </g>
     </g>
     <g id="text_8">
      <!-- 0.0 -->
      <g style="fill: #262626" transform="translate(19.9795 264.365437) scale(0.088 -0.088)">
       <use xlink:href="#ArialMT-30"/>
       <use xlink:href="#ArialMT-2e" x="55.615234"/>
       <use xlink:href="#ArialMT-30" x="83.398438"/>
      </g>
     </g>
    </g>
    <g id="ytick_2">
     <g id="line2d_8">
      <g>
       <use xlink:href="#md5f9af57df" x="40.5115" y="212.832" style="fill: #262626; stroke: #262626"/>
      </g>
     </g>
     <g id="text_9">
      <!-- 0.2 -->
      <g style="fill: #262626" transform="translate(19.9795 215.981438) scale(0.088 -0.088)">
       <use xlink:href="#ArialMT-30"/>
       <use xlink:href="#ArialMT-2e" x="55.615234"/>
       <use xlink:href="#ArialMT-32" x="83.398438"/>
      </g>
     </g>
    </g>
    <g id="ytick_3">
     <g id="line2d_9">
      <g>
       <use xlink:href="#md5f9af57df" x="40.5115" y="164.448" style="fill: #262626; stroke: #262626"/>
      </g>
     </g>
     <g id="text_10">
      <!-- 0.4 -->
      <g style="fill: #262626" transform="translate(19.9795 167.597438) scale(0.088 -0.088)">
       <use xlink:href="#ArialMT-30"/>
       <use xlink:href="#ArialMT-2e" x="55.615234"/>
       <use xlink:href="#ArialMT-34" x="83.398438"/>
      </g>
     </g>
    </g>
    <g id="ytick_4">
     <g id="line2d_10">
      <g>
       <use xlink:href="#md5f9af57df" x="40.5115" y="116.064" style="fill: #262626; stroke: #262626"/>
      </g>
     </g>
     <g id="text_11">
      <!-- 0.6 -->
      <g style="fill: #262626" transform="translate(19.9795 119.213438) scale(0.088 -0.088)">
       <use xlink:href="#ArialMT-30"/>
       <use xlink:href="#ArialMT-2e" x="55.615234"/>
       <use xlink:href="#ArialMT-36" x="83.398438"/>
      </g>
     </g>
    </g>
    <g id="ytick_5">
     <g id="line2d_11">
      <g>
       <use xlink:href="#md5f9af57df" x="40.5115" y="67.68" style="fill: #262626; stroke: #262626"/>
      </g>
     </g>
     <g id="text_12">
      <!-- 0.8 -->
      <g style="fill: #262626" transform="translate(19.9795 70.829438) scale(0.088 -0.088)">
       <use xlink:href="#ArialMT-30"/>
       <use xlink:href="#ArialMT-2e" x="55.615234"/>
       <use xlink:href="#ArialMT-38" x="83.398438"/>
      </g>
     </g>
    </g>
    <g id="ytick_6">
     <g id="line2d_12">
      <g>
       <use xlink:href="#md5f9af57df" x="40.5115" y="19.296" style="fill: #262626; stroke: #262626"/>
      </g>
     </g>
     <g id="text_13">
      <!-- 1.0 -->
      <g style="fill: #262626" transform="translate(19.9795 22.445438) scale(0.088 -0.088)">
       <use xlink:href="#ArialMT-31"/>
       <use xlink:href="#ArialMT-2e" x="55.615234"/>
       <use xlink:href="#ArialMT-30" x="83.398438"/>
      </g>
     </g>
    </g>
    <g id="text_14">
     <!-- $u$ -->
     <g style="fill: #262626" transform="translate(14.0715 143.328) rotate(-90) scale(0.096 -0.096)">
      <defs>
       <path id="DejaVuSans-Oblique-75" d="M 428 1388 
L 838 3500 
L 1416 3500 
L 1006 1409 
Q 975 1256 961 1147 
Q 947 1038 947 966 
Q 947 700 1109 554 
Q 1272 409 1569 409 
Q 2031 409 2368 721 
Q 2706 1034 2809 1563 
L 3194 3500 
L 3769 3500 
L 3091 0 
L 2516 0 
L 2631 550 
Q 2388 244 2052 76 
Q 1716 -91 1338 -91 
Q 878 -91 622 161 
Q 366 413 366 863 
Q 366 956 381 1097 
Q 397 1238 428 1388 
z
" transform="scale(0.015625)"/>
      </defs>
      <use xlink:href="#DejaVuSans-Oblique-75" transform="translate(0 0.3125)"/>
     </g>
    </g>
   </g>
   <g id="line2d_13">
    <path d="M 56.744227 19.296 
L 62.588009 22.312061 
L 67.782482 24.736133 
L 72.976955 26.890653 
L 77.522118 28.549145 
L 82.716591 30.201422 
L 88.560373 31.804563 
L 97.6507 34.008934 
L 104.7931 35.816678 
L 109.338264 37.168839 
L 113.234118 38.534724 
L 117.129973 40.147595 
L 120.376518 41.713134 
L 123.623064 43.501855 
L 126.869609 45.52751 
L 130.116155 47.796954 
L 133.3627 50.310207 
L 137.258555 53.63862 
L 141.154409 57.287408 
L 145.050264 61.226252 
L 149.595427 66.138775 
L 154.7899 72.090219 
L 161.282991 79.877648 
L 178.165027 100.335373 
L 183.3595 106.214317 
L 187.904664 111.054097 
L 192.449827 115.568151 
L 196.994991 119.739328 
L 201.540155 123.572541 
L 206.085318 127.094011 
L 211.279791 130.796879 
L 217.123573 134.669686 
L 233.3563 145.223464 
L 238.550773 148.983686 
L 243.095936 152.572462 
L 246.991791 155.912972 
L 250.887645 159.522832 
L 254.7835 163.414283 
L 258.679355 167.58572 
L 263.224518 172.782088 
L 268.418991 179.084454 
L 275.561391 188.151877 
L 286.599645 202.184118 
L 291.794118 208.434981 
L 296.339282 213.588523 
L 300.884445 218.39278 
L 304.7803 222.208817 
L 308.676155 225.73673 
L 312.572009 228.976817 
L 316.467864 231.936984 
L 320.363718 234.631462 
L 324.259573 237.079479 
L 328.804736 239.654716 
L 333.3499 241.966224 
L 338.544373 244.33998 
L 344.388155 246.746828 
L 352.179864 249.677559 
L 369.711209 256.164166 
L 376.2043 258.861812 
L 381.398773 261.216 
L 381.398773 261.216 
" clip-path="url(#p63c47ecdc9)" style="fill: none; stroke: #1f77b4; stroke-opacity: 0.3; stroke-linecap: round"/>
   </g>
   <g id="line2d_14">
    <path d="M 56.744227 19.296 
L 65.185245 21.629792 
L 76.2235 24.691062 
L 82.067282 26.548694 
L 87.261755 28.446681 
L 91.806918 30.344406 
L 96.352082 32.489891 
L 100.897245 34.893002 
L 105.442409 37.545612 
L 110.636882 40.846697 
L 117.129973 45.273906 
L 139.855791 61.081145 
L 146.348882 65.17214 
L 152.192664 68.591784 
L 158.036445 71.743817 
L 163.880227 74.625502 
L 169.724009 77.254342 
L 176.2171 79.926751 
L 184.658118 83.130046 
L 199.592227 88.492205 
L 220.370118 96.017216 
L 239.200082 102.841588 
L 249.589027 106.341372 
L 265.172445 111.537704 
L 271.016227 113.757812 
L 275.561391 115.71144 
L 280.106555 117.928239 
L 284.002409 120.078507 
L 287.898264 122.49073 
L 291.794118 125.189592 
L 295.689973 128.195017 
L 299.585827 131.521872 
L 303.481682 135.17947 
L 307.377536 139.171035 
L 311.273391 143.493463 
L 315.169245 148.137791 
L 319.714409 153.944945 
L 324.259573 160.147075 
L 328.804736 166.721076 
L 333.3499 173.650373 
L 338.544373 181.994326 
L 343.738845 190.787369 
L 348.933318 200.018702 
L 354.7771 210.877156 
L 362.568809 225.898151 
L 373.607064 247.170864 
L 378.801536 256.672223 
L 381.398773 261.216 
L 381.398773 261.216 
" clip-path="url(#p63c47ecdc9)" style="fill: none; stroke: #1f77b4; stroke-opacity: 0.3; stroke-linecap: round"/>
   </g>
   <g id="line2d_15">
    <path d="M 56.744227 19.296 
L 69.0811 23.499508 
L 78.171427 26.695793 
L 84.664518 29.212446 
L 89.858991 31.440677 
L 95.053464 33.905997 
L 100.247936 36.640322 
L 105.442409 39.660206 
L 110.636882 42.962372 
L 115.831355 46.522978 
L 121.675136 50.787735 
L 128.817536 56.278875 
L 138.557173 64.07685 
L 154.7899 77.417902 
L 182.060882 100.08642 
L 189.852591 106.877937 
L 196.345682 112.819014 
L 202.838773 119.066473 
L 210.630482 126.896434 
L 222.318045 138.644799 
L 227.512518 143.544095 
L 232.057682 147.556295 
L 236.602845 151.276912 
L 241.148009 154.693359 
L 245.693173 157.806326 
L 250.238336 160.624107 
L 254.7835 163.159982 
L 259.328664 165.432446 
L 263.873827 167.466888 
L 269.0683 169.54434 
L 275.561391 171.866052 
L 296.339282 179.026317 
L 301.533755 181.18343 
L 306.078918 183.304545 
L 310.624082 185.678421 
L 315.169245 188.329493 
L 319.714409 191.275078 
L 324.259573 194.527836 
L 328.804736 198.09882 
L 333.3499 202.000122 
L 337.245755 205.617659 
L 341.141609 209.497441 
L 345.686773 214.36473 
L 350.231936 219.600534 
L 354.7771 225.18851 
L 359.971573 231.950761 
L 366.464664 240.80158 
L 380.100155 259.50664 
L 381.398773 261.216 
L 381.398773 261.216 
" clip-path="url(#p63c47ecdc9)" style="fill: none; stroke: #1f77b4; stroke-opacity: 0.3; stroke-linecap: round"/>
   </g>
   <g id="line2d_16">
    <path d="M 56.744227 19.296 
L 63.886627 24.25013 
L 70.379718 28.478765 
L 76.2235 32.012454 
L 82.067282 35.281547 
L 88.560373 38.645107 
L 98.300009 43.387121 
L 106.741027 47.576964 
L 111.9355 50.397685 
L 116.480664 53.124676 
L 120.376518 55.709568 
L 124.272373 58.560686 
L 128.168227 61.703493 
L 132.064082 65.152034 
L 135.959936 68.908874 
L 139.855791 72.966148 
L 144.400955 78.056832 
L 148.946118 83.495576 
L 154.140591 90.075291 
L 160.633682 98.715564 
L 180.762264 125.912775 
L 185.307427 131.522939 
L 189.203282 136.023664 
L 193.099136 140.201312 
L 196.994991 144.03427 
L 200.890845 147.516325 
L 204.7867 150.656936 
L 208.682555 153.480822 
L 212.578409 156.02649 
L 217.123573 158.711222 
L 222.318045 161.514076 
L 242.446627 172.051031 
L 247.6411 175.182111 
L 252.186264 178.173635 
L 256.731427 181.424445 
L 261.276591 184.938918 
L 266.471064 189.256213 
L 272.314845 194.424574 
L 281.405173 202.817465 
L 290.4955 211.12909 
L 296.339282 216.182864 
L 301.533755 220.384619 
L 306.078918 223.799605 
L 310.624082 226.954923 
L 315.169245 229.849834 
L 319.714409 232.496251 
L 324.908882 235.246408 
L 330.103355 237.750669 
L 336.596445 240.624487 
L 346.985391 244.920158 
L 358.023645 249.543309 
L 365.166045 252.778767 
L 371.659136 255.963851 
L 378.152227 259.402637 
L 381.398773 261.216 
L 381.398773 261.216 
" clip-path="url(#p63c47ecdc9)" style="fill: none; stroke: #1f77b4; stroke-opacity: 0.3; stroke-linecap: round"/>
   </g>
   <g id="line2d_17">
    <path d="M 56.744227 19.296 
L 62.588009 26.253837 
L 69.730409 35.13499 
L 78.820736 46.851238 
L 109.987573 87.405547 
L 117.129973 96.161206 
L 122.973755 103.000495 
L 128.817536 109.491565 
L 134.012009 114.941782 
L 139.206482 120.079566 
L 144.400955 124.903953 
L 149.595427 129.421084 
L 154.7899 133.641266 
L 159.984373 137.575775 
L 165.178845 141.233602 
L 170.373318 144.619121 
L 175.567791 147.731849 
L 180.762264 150.56875 
L 185.956736 153.128494 
L 191.151209 155.416961 
L 196.345682 157.454129 
L 202.189464 159.49955 
L 221.019427 165.819444 
L 225.564591 167.69615 
L 230.109755 169.819197 
L 234.654918 172.197677 
L 239.200082 174.818879 
L 244.394555 178.078647 
L 250.238336 182.027939 
L 256.731427 186.688654 
L 265.821755 193.51293 
L 278.158627 202.754298 
L 284.002409 206.859068 
L 289.196882 210.252312 
L 294.391355 213.361223 
L 298.936518 215.834765 
L 303.481682 218.082856 
L 308.676155 220.401718 
L 314.519936 222.752359 
L 322.960955 225.865045 
L 333.3499 229.732135 
L 339.193682 232.170806 
L 343.738845 234.290727 
L 348.284009 236.651099 
L 352.829173 239.279721 
L 357.374336 242.188319 
L 361.9195 245.370033 
L 367.113973 249.306713 
L 372.957755 254.039866 
L 381.398773 261.216 
L 381.398773 261.216 
" clip-path="url(#p63c47ecdc9)" style="fill: none; stroke: #1f77b4; stroke-opacity: 0.3; stroke-linecap: round"/>
   </g>
   <g id="line2d_18">
    <path d="M 56.744227 19.296 
L 65.834555 25.036788 
L 72.327645 29.382668 
L 77.522118 33.097565 
L 82.067282 36.583663 
L 86.612445 40.344165 
L 90.5083 43.82482 
L 94.404155 47.574031 
L 98.300009 51.615509 
L 102.195864 55.964956 
L 106.091718 60.627932 
L 110.636882 66.455803 
L 115.182045 72.672727 
L 120.376518 80.192212 
L 126.2203 89.068676 
L 134.012009 101.343428 
L 152.192664 130.146624 
L 158.685755 139.955219 
L 164.529536 148.376701 
L 169.724009 155.451849 
L 174.269173 161.258569 
L 178.165027 165.903382 
L 182.060882 170.201702 
L 185.307427 173.493491 
L 188.553973 176.502544 
L 191.800518 179.214982 
L 195.047064 181.622058 
L 198.293609 183.721668 
L 201.540155 185.519867 
L 204.7867 187.032085 
L 208.033245 188.283588 
L 211.279791 189.308779 
L 215.175645 190.299013 
L 219.720809 191.222735 
L 228.811136 192.769623 
L 236.602845 194.198366 
L 242.446627 195.489126 
L 247.6411 196.845819 
L 252.835573 198.430725 
L 258.030045 200.268081 
L 263.224518 202.372741 
L 268.418991 204.744519 
L 273.613464 207.364201 
L 279.457245 210.559184 
L 287.248955 215.096099 
L 307.377536 226.957835 
L 314.519936 230.858019 
L 321.662336 234.508419 
L 328.804736 237.916738 
L 337.245755 241.692236 
L 349.582627 246.930393 
L 365.166045 253.579411 
L 373.607064 257.421986 
L 381.398773 261.216 
L 381.398773 261.216 
" clip-path="url(#p63c47ecdc9)" style="fill: none; stroke: #1f77b4; stroke-opacity: 0.3; stroke-linecap: round"/>
   </g>
   <g id="patch_3">
    <path d="M 40.5115 261.216 
L 40.5115 19.296 
" style="fill: none; stroke: #262626; stroke-linejoin: miter; stroke-linecap: square"/>
   </g>
   <g id="patch_4">
    <path d="M 56.744227 273.312 
L 381.398773 273.312 
" style="fill: none; stroke: #262626; stroke-linejoin: miter; stroke-linecap: square"/>
   </g>
   <g id="legend_1">
    <g id="patch_5">
     <path d="M 329.075375 51.690875 
L 391.4715 51.690875 
Q 393.2315 51.690875 393.2315 49.930875 
L 393.2315 13.36 
Q 393.2315 11.6 391.4715 11.6 
L 329.075375 11.6 
Q 327.315375 11.6 327.315375 13.36 
L 327.315375 49.930875 
Q 327.315375 51.690875 329.075375 51.690875 
z
" style="fill: #ffffff; opacity: 0.8; stroke: #cccccc; stroke-width: 0.8; stroke-linejoin: miter"/>
    </g>
    <g id="line2d_19">
     <path d="M 330.835375 18.338875 
L 339.635375 18.338875 
L 348.435375 18.338875 
" style="fill: none; stroke: #1f77b4; stroke-width: 2; stroke-linecap: round"/>
    </g>
    <g id="text_15">
     <!-- Mean -->
     <g style="fill: #262626" transform="translate(355.475375 21.418875) scale(0.088 -0.088)">
      <defs>
       <path id="ArialMT-4d" d="M 475 0 
L 475 4581 
L 1388 4581 
L 2472 1338 
Q 2622 884 2691 659 
Q 2769 909 2934 1394 
L 4031 4581 
L 4847 4581 
L 4847 0 
L 4263 0 
L 4263 3834 
L 2931 0 
L 2384 0 
L 1059 3900 
L 1059 0 
L 475 0 
z
" transform="scale(0.015625)"/>
       <path id="ArialMT-65" d="M 2694 1069 
L 3275 997 
Q 3138 488 2766 206 
Q 2394 -75 1816 -75 
Q 1088 -75 661 373 
Q 234 822 234 1631 
Q 234 2469 665 2931 
Q 1097 3394 1784 3394 
Q 2450 3394 2872 2941 
Q 3294 2488 3294 1666 
Q 3294 1616 3291 1516 
L 816 1516 
Q 847 969 1125 678 
Q 1403 388 1819 388 
Q 2128 388 2347 550 
Q 2566 713 2694 1069 
z
M 847 1978 
L 2700 1978 
Q 2663 2397 2488 2606 
Q 2219 2931 1791 2931 
Q 1403 2931 1139 2672 
Q 875 2413 847 1978 
z
" transform="scale(0.015625)"/>
       <path id="ArialMT-61" d="M 2588 409 
Q 2275 144 1986 34 
Q 1697 -75 1366 -75 
Q 819 -75 525 192 
Q 231 459 231 875 
Q 231 1119 342 1320 
Q 453 1522 633 1644 
Q 813 1766 1038 1828 
Q 1203 1872 1538 1913 
Q 2219 1994 2541 2106 
Q 2544 2222 2544 2253 
Q 2544 2597 2384 2738 
Q 2169 2928 1744 2928 
Q 1347 2928 1158 2789 
Q 969 2650 878 2297 
L 328 2372 
Q 403 2725 575 2942 
Q 747 3159 1072 3276 
Q 1397 3394 1825 3394 
Q 2250 3394 2515 3294 
Q 2781 3194 2906 3042 
Q 3031 2891 3081 2659 
Q 3109 2516 3109 2141 
L 3109 1391 
Q 3109 606 3145 398 
Q 3181 191 3288 0 
L 2700 0 
Q 2613 175 2588 409 
z
M 2541 1666 
Q 2234 1541 1622 1453 
Q 1275 1403 1131 1340 
Q 988 1278 909 1158 
Q 831 1038 831 891 
Q 831 666 1001 516 
Q 1172 366 1500 366 
Q 1825 366 2078 508 
Q 2331 650 2450 897 
Q 2541 1088 2541 1459 
L 2541 1666 
z
" transform="scale(0.015625)"/>
       <path id="ArialMT-6e" d="M 422 0 
L 422 3319 
L 928 3319 
L 928 2847 
Q 1294 3394 1984 3394 
Q 2284 3394 2536 3286 
Q 2788 3178 2913 3003 
Q 3038 2828 3088 2588 
Q 3119 2431 3119 2041 
L 3119 0 
L 2556 0 
L 2556 2019 
Q 2556 2363 2490 2533 
Q 2425 2703 2258 2804 
Q 2091 2906 1866 2906 
Q 1506 2906 1245 2678 
Q 984 2450 984 1813 
L 984 0 
L 422 0 
z
" transform="scale(0.015625)"/>
      </defs>
      <use xlink:href="#ArialMT-4d"/>
      <use xlink:href="#ArialMT-65" x="83.300781"/>
      <use xlink:href="#ArialMT-61" x="138.916016"/>
      <use xlink:href="#ArialMT-6e" x="194.53125"/>
     </g>
    </g>
    <g id="patch_6">
     <path d="M 330.835375 33.86675 
L 348.435375 33.86675 
L 348.435375 27.70675 
L 330.835375 27.70675 
z
" style="fill: #1f77b4; fill-opacity: 0.3; stroke: #ffffff; stroke-opacity: 0.3; stroke-width: 0.8; stroke-linejoin: miter"/>
    </g>
    <g id="text_16">
     <!-- 95% CI -->
     <g style="fill: #262626" transform="translate(355.475375 33.86675) scale(0.088 -0.088)">
      <defs>
       <path id="ArialMT-39" d="M 350 1059 
L 891 1109 
Q 959 728 1153 556 
Q 1347 384 1650 384 
Q 1909 384 2104 503 
Q 2300 622 2425 820 
Q 2550 1019 2634 1356 
Q 2719 1694 2719 2044 
Q 2719 2081 2716 2156 
Q 2547 1888 2255 1720 
Q 1963 1553 1622 1553 
Q 1053 1553 659 1965 
Q 266 2378 266 3053 
Q 266 3750 677 4175 
Q 1088 4600 1706 4600 
Q 2153 4600 2523 4359 
Q 2894 4119 3086 3673 
Q 3278 3228 3278 2384 
Q 3278 1506 3087 986 
Q 2897 466 2520 194 
Q 2144 -78 1638 -78 
Q 1100 -78 759 220 
Q 419 519 350 1059 
z
M 2653 3081 
Q 2653 3566 2395 3850 
Q 2138 4134 1775 4134 
Q 1400 4134 1122 3828 
Q 844 3522 844 3034 
Q 844 2597 1108 2323 
Q 1372 2050 1759 2050 
Q 2150 2050 2401 2323 
Q 2653 2597 2653 3081 
z
" transform="scale(0.015625)"/>
       <path id="ArialMT-35" d="M 266 1200 
L 856 1250 
Q 922 819 1161 601 
Q 1400 384 1738 384 
Q 2144 384 2425 690 
Q 2706 997 2706 1503 
Q 2706 1984 2436 2262 
Q 2166 2541 1728 2541 
Q 1456 2541 1237 2417 
Q 1019 2294 894 2097 
L 366 2166 
L 809 4519 
L 3088 4519 
L 3088 3981 
L 1259 3981 
L 1013 2750 
Q 1425 3038 1878 3038 
Q 2478 3038 2890 2622 
Q 3303 2206 3303 1553 
Q 3303 931 2941 478 
Q 2500 -78 1738 -78 
Q 1113 -78 717 272 
Q 322 622 266 1200 
z
" transform="scale(0.015625)"/>
       <path id="ArialMT-25" d="M 372 3481 
Q 372 3972 619 4315 
Q 866 4659 1334 4659 
Q 1766 4659 2048 4351 
Q 2331 4044 2331 3447 
Q 2331 2866 2045 2552 
Q 1759 2238 1341 2238 
Q 925 2238 648 2547 
Q 372 2856 372 3481 
z
M 1350 4272 
Q 1141 4272 1002 4090 
Q 863 3909 863 3425 
Q 863 2984 1003 2804 
Q 1144 2625 1350 2625 
Q 1563 2625 1702 2806 
Q 1841 2988 1841 3469 
Q 1841 3913 1700 4092 
Q 1559 4272 1350 4272 
z
M 1353 -169 
L 3859 4659 
L 4316 4659 
L 1819 -169 
L 1353 -169 
z
M 3334 1075 
Q 3334 1569 3581 1911 
Q 3828 2253 4300 2253 
Q 4731 2253 5014 1945 
Q 5297 1638 5297 1041 
Q 5297 459 5011 145 
Q 4725 -169 4303 -169 
Q 3888 -169 3611 142 
Q 3334 453 3334 1075 
z
M 4316 1866 
Q 4103 1866 3964 1684 
Q 3825 1503 3825 1019 
Q 3825 581 3965 400 
Q 4106 219 4313 219 
Q 4528 219 4667 400 
Q 4806 581 4806 1063 
Q 4806 1506 4665 1686 
Q 4525 1866 4316 1866 
z
" transform="scale(0.015625)"/>
       <path id="ArialMT-20" transform="scale(0.015625)"/>
       <path id="ArialMT-43" d="M 3763 1606 
L 4369 1453 
Q 4178 706 3683 314 
Q 3188 -78 2472 -78 
Q 1731 -78 1267 223 
Q 803 525 561 1097 
Q 319 1669 319 2325 
Q 319 3041 592 3573 
Q 866 4106 1370 4382 
Q 1875 4659 2481 4659 
Q 3169 4659 3637 4309 
Q 4106 3959 4291 3325 
L 3694 3184 
Q 3534 3684 3231 3912 
Q 2928 4141 2469 4141 
Q 1941 4141 1586 3887 
Q 1231 3634 1087 3207 
Q 944 2781 944 2328 
Q 944 1744 1114 1308 
Q 1284 872 1643 656 
Q 2003 441 2422 441 
Q 2931 441 3284 734 
Q 3638 1028 3763 1606 
z
" transform="scale(0.015625)"/>
       <path id="ArialMT-49" d="M 597 0 
L 597 4581 
L 1203 4581 
L 1203 0 
L 597 0 
z
" transform="scale(0.015625)"/>
      </defs>
      <use xlink:href="#ArialMT-39"/>
      <use xlink:href="#ArialMT-35" x="55.615234"/>
      <use xlink:href="#ArialMT-25" x="111.230469"/>
      <use xlink:href="#ArialMT-20" x="200.146484"/>
      <use xlink:href="#ArialMT-43" x="227.929688"/>
      <use xlink:href="#ArialMT-49" x="300.146484"/>
     </g>
    </g>
    <g id="line2d_20">
     <path d="M 330.835375 43.341875 
L 339.635375 43.341875 
L 348.435375 43.341875 
" style="fill: none; stroke: #1f77b4; stroke-opacity: 0.3; stroke-linecap: round"/>
    </g>
    <g id="text_17">
     <!-- Samples -->
     <g style="fill: #262626" transform="translate(355.475375 46.421875) scale(0.088 -0.088)">
      <defs>
       <path id="ArialMT-53" d="M 288 1472 
L 859 1522 
Q 900 1178 1048 958 
Q 1197 738 1509 602 
Q 1822 466 2213 466 
Q 2559 466 2825 569 
Q 3091 672 3220 851 
Q 3350 1031 3350 1244 
Q 3350 1459 3225 1620 
Q 3100 1781 2813 1891 
Q 2628 1963 1997 2114 
Q 1366 2266 1113 2400 
Q 784 2572 623 2826 
Q 463 3081 463 3397 
Q 463 3744 659 4045 
Q 856 4347 1234 4503 
Q 1613 4659 2075 4659 
Q 2584 4659 2973 4495 
Q 3363 4331 3572 4012 
Q 3781 3694 3797 3291 
L 3216 3247 
Q 3169 3681 2898 3903 
Q 2628 4125 2100 4125 
Q 1550 4125 1298 3923 
Q 1047 3722 1047 3438 
Q 1047 3191 1225 3031 
Q 1400 2872 2139 2705 
Q 2878 2538 3153 2413 
Q 3553 2228 3743 1945 
Q 3934 1663 3934 1294 
Q 3934 928 3725 604 
Q 3516 281 3123 101 
Q 2731 -78 2241 -78 
Q 1619 -78 1198 103 
Q 778 284 539 648 
Q 300 1013 288 1472 
z
" transform="scale(0.015625)"/>
       <path id="ArialMT-6d" d="M 422 0 
L 422 3319 
L 925 3319 
L 925 2853 
Q 1081 3097 1340 3245 
Q 1600 3394 1931 3394 
Q 2300 3394 2536 3241 
Q 2772 3088 2869 2813 
Q 3263 3394 3894 3394 
Q 4388 3394 4653 3120 
Q 4919 2847 4919 2278 
L 4919 0 
L 4359 0 
L 4359 2091 
Q 4359 2428 4304 2576 
Q 4250 2725 4106 2815 
Q 3963 2906 3769 2906 
Q 3419 2906 3187 2673 
Q 2956 2441 2956 1928 
L 2956 0 
L 2394 0 
L 2394 2156 
Q 2394 2531 2256 2718 
Q 2119 2906 1806 2906 
Q 1569 2906 1367 2781 
Q 1166 2656 1075 2415 
Q 984 2175 984 1722 
L 984 0 
L 422 0 
z
" transform="scale(0.015625)"/>
       <path id="ArialMT-70" d="M 422 -1272 
L 422 3319 
L 934 3319 
L 934 2888 
Q 1116 3141 1344 3267 
Q 1572 3394 1897 3394 
Q 2322 3394 2647 3175 
Q 2972 2956 3137 2557 
Q 3303 2159 3303 1684 
Q 3303 1175 3120 767 
Q 2938 359 2589 142 
Q 2241 -75 1856 -75 
Q 1575 -75 1351 44 
Q 1128 163 984 344 
L 984 -1272 
L 422 -1272 
z
M 931 1641 
Q 931 1000 1190 694 
Q 1450 388 1819 388 
Q 2194 388 2461 705 
Q 2728 1022 2728 1688 
Q 2728 2322 2467 2637 
Q 2206 2953 1844 2953 
Q 1484 2953 1207 2617 
Q 931 2281 931 1641 
z
" transform="scale(0.015625)"/>
       <path id="ArialMT-6c" d="M 409 0 
L 409 4581 
L 972 4581 
L 972 0 
L 409 0 
z
" transform="scale(0.015625)"/>
       <path id="ArialMT-73" d="M 197 991 
L 753 1078 
Q 800 744 1014 566 
Q 1228 388 1613 388 
Q 2000 388 2187 545 
Q 2375 703 2375 916 
Q 2375 1106 2209 1216 
Q 2094 1291 1634 1406 
Q 1016 1563 777 1677 
Q 538 1791 414 1992 
Q 291 2194 291 2438 
Q 291 2659 392 2848 
Q 494 3038 669 3163 
Q 800 3259 1026 3326 
Q 1253 3394 1513 3394 
Q 1903 3394 2198 3281 
Q 2494 3169 2634 2976 
Q 2775 2784 2828 2463 
L 2278 2388 
Q 2241 2644 2061 2787 
Q 1881 2931 1553 2931 
Q 1166 2931 1000 2803 
Q 834 2675 834 2503 
Q 834 2394 903 2306 
Q 972 2216 1119 2156 
Q 1203 2125 1616 2013 
Q 2213 1853 2448 1751 
Q 2684 1650 2818 1456 
Q 2953 1263 2953 975 
Q 2953 694 2789 445 
Q 2625 197 2315 61 
Q 2006 -75 1616 -75 
Q 969 -75 630 194 
Q 291 463 197 991 
z
" transform="scale(0.015625)"/>
      </defs>
      <use xlink:href="#ArialMT-53"/>
      <use xlink:href="#ArialMT-61" x="66.699219"/>
      <use xlink:href="#ArialMT-6d" x="122.314453"/>
      <use xlink:href="#ArialMT-70" x="205.615234"/>
      <use xlink:href="#ArialMT-6c" x="261.230469"/>
      <use xlink:href="#ArialMT-65" x="283.447266"/>
      <use xlink:href="#ArialMT-73" x="339.0625"/>
     </g>
    </g>
   </g>
   <g id="line2d_21">
    <path d="M 56.744227 19.296 
L 74.924882 32.709931 
L 157.387136 93.610414 
L 182.060882 111.909662 
L 207.383936 130.857198 
L 232.706991 149.990034 
L 247.6411 160.850462 
L 264.523136 173.195962 
L 278.158627 183.476201 
L 308.026845 206.093342 
L 321.662336 216.089152 
L 353.478482 239.202464 
L 362.568809 246.237493 
L 381.398773 261.216 
L 381.398773 261.216 
" clip-path="url(#p63c47ecdc9)" style="fill: none; stroke: #1f77b4; stroke-width: 2; stroke-linecap: round"/>
   </g>
  </g>
 </g>
 <defs>
  <clipPath id="p63c47ecdc9">
   <rect x="40.5115" y="7.2" width="357.12" height="266.112"/>
  </clipPath>
 </defs>
</svg>