<?xml version="1.0" encoding="utf-8" standalone="no"?>
<!DOCTYPE svg PUBLIC "-//W3C//DTD SVG 1.1//EN"
  "http://www.w3.org/Graphics/SVG/1.1/DTD/svg11.dtd">
<svg xmlns:xlink="http://www.w3.org/1999/xlink" width="405.061pt" height="322.627875pt" viewBox="0 0 405.061 322.627875" xmlns="http://www.w3.org/2000/svg" version="1.1">
 <metadata>
  <rdf:RDF xmlns:dc="http://purl.org/dc/elements/1.1/" xmlns:cc="http://creativecommons.org/ns#" xmlns:rdf="http://www.w3.org/1999/02/22-rdf-syntax-ns#">
   <cc:Work>
    <dc:type rdf:resource="http://purl.org/dc/dcmitype/StillImage"/>
    <dc:date>2025-01-08T13:30:46.729875</dc:date>
    <dc:format>image/svg+xml</dc:format>
    <dc:creator>
     <cc:Agent>
      <dc:title>Matplotlib v3.9.0, https://matplotlib.org/</dc:title>
     </cc:Agent>
    </dc:creator>
   </cc:Work>
  </rdf:RDF>
 </metadata>
 <defs>
  <style type="text/css">*{stroke-linejoin: round; stroke-linecap: butt}</style>
 </defs>
 <g id="figure_1">
  <g id="patch_1">
   <path d="M 0 322.627875 
L 405.061 322.627875 
L 405.061 0 
L 0 0 
z
" style="fill: #ffffff"/>
  </g>
  <g id="axes_1">
   <g id="patch_2">
    <path d="M 40.741 286.3005 
L 397.861 286.3005 
L 397.861 20.1885 
L 40.741 20.1885 
z
" style="fill: #ffffff"/>
   </g>
   <g id="matplotlib.axis_1">
    <g id="xtick_1">
     <g id="line2d_1">
      <defs>
       <path id="m5aa05811ff" d="M 0 0 
L 0 4.8 
" style="stroke: #262626"/>
      </defs>
      <g>
       <use xlink:href="#m5aa05811ff" x="56.321811" y="286.3005" style="fill: #262626; stroke: #262626"/>
      </g>
     </g>
     <g id="text_1">
      <!-- 0 -->
      <g style="fill: #262626" transform="translate(53.874998 300.899375) scale(0.088 -0.088)">
       <defs>
        <path id="ArialMT-30" d="M 266 2259 
Q 266 3072 433 3567 
Q 600 4063 929 4331 
Q 1259 4600 1759 4600 
Q 2128 4600 2406 4451 
Q 2684 4303 2865 4023 
Q 3047 3744 3150 3342 
Q 3253 2941 3253 2259 
Q 3253 1453 3087 958 
Q 2922 463 2592 192 
Q 2263 -78 1759 -78 
Q 1097 -78 719 397 
Q 266 969 266 2259 
z
M 844 2259 
Q 844 1131 1108 757 
Q 1372 384 1759 384 
Q 2147 384 2411 759 
Q 2675 1134 2675 2259 
Q 2675 3391 2411 3762 
Q 2147 4134 1753 4134 
Q 1366 4134 1134 3806 
Q 844 3388 844 2259 
z
" transform="scale(0.015625)"/>
       </defs>
       <use xlink:href="#ArialMT-30"/>
      </g>
     </g>
    </g>
    <g id="xtick_2">
     <g id="line2d_2">
      <g>
       <use xlink:href="#m5aa05811ff" x="121.383103" y="286.3005" style="fill: #262626; stroke: #262626"/>
      </g>
     </g>
     <g id="text_2">
      <!-- 10 -->
      <g style="fill: #262626" transform="translate(116.489478 300.899375) scale(0.088 -0.088)">
       <defs>
        <path id="ArialMT-31" d="M 2384 0 
L 1822 0 
L 1822 3584 
Q 1619 3391 1289 3197 
Q 959 3003 697 2906 
L 697 3450 
Q 1169 3672 1522 3987 
Q 1875 4303 2022 4600 
L 2384 4600 
L 2384 0 
z
" transform="scale(0.015625)"/>
       </defs>
       <use xlink:href="#ArialMT-31"/>
       <use xlink:href="#ArialMT-30" x="55.615234"/>
      </g>
     </g>
    </g>
    <g id="xtick_3">
     <g id="line2d_3">
      <g>
       <use xlink:href="#m5aa05811ff" x="186.444395" y="286.3005" style="fill: #262626; stroke: #262626"/>
      </g>
     </g>
     <g id="text_3">
      <!-- 20 -->
      <g style="fill: #262626" transform="translate(181.55077 300.899375) scale(0.088 -0.088)">
       <defs>
        <path id="ArialMT-32" d="M 3222 541 
L 3222 0 
L 194 0 
Q 188 203 259 391 
Q 375 700 629 1000 
Q 884 1300 1366 1694 
Q 2113 2306 2375 2664 
Q 2638 3022 2638 3341 
Q 2638 3675 2398 3904 
Q 2159 4134 1775 4134 
Q 1369 4134 1125 3890 
Q 881 3647 878 3216 
L 300 3275 
Q 359 3922 746 4261 
Q 1134 4600 1788 4600 
Q 2447 4600 2831 4234 
Q 3216 3869 3216 3328 
Q 3216 3053 3103 2787 
Q 2991 2522 2730 2228 
Q 2469 1934 1863 1422 
Q 1356 997 1212 845 
Q 1069 694 975 541 
L 3222 541 
z
" transform="scale(0.015625)"/>
       </defs>
       <use xlink:href="#ArialMT-32"/>
       <use xlink:href="#ArialMT-30" x="55.615234"/>
      </g>
     </g>
    </g>
    <g id="xtick_4">
     <g id="line2d_4">
      <g>
       <use xlink:href="#m5aa05811ff" x="251.505688" y="286.3005" style="fill: #262626; stroke: #262626"/>
      </g>
     </g>
     <g id="text_4">
      <!-- 30 -->
      <g style="fill: #262626" transform="translate(246.612063 300.899375) scale(0.088 -0.088)">
       <defs>
        <path id="ArialMT-33" d="M 269 1209 
L 831 1284 
Q 928 806 1161 595 
Q 1394 384 1728 384 
Q 2125 384 2398 659 
Q 2672 934 2672 1341 
Q 2672 1728 2419 1979 
Q 2166 2231 1775 2231 
Q 1616 2231 1378 2169 
L 1441 2663 
Q 1497 2656 1531 2656 
Q 1891 2656 2178 2843 
Q 2466 3031 2466 3422 
Q 2466 3731 2256 3934 
Q 2047 4138 1716 4138 
Q 1388 4138 1169 3931 
Q 950 3725 888 3313 
L 325 3413 
Q 428 3978 793 4289 
Q 1159 4600 1703 4600 
Q 2078 4600 2393 4439 
Q 2709 4278 2876 4000 
Q 3044 3722 3044 3409 
Q 3044 3113 2884 2869 
Q 2725 2625 2413 2481 
Q 2819 2388 3044 2092 
Q 3269 1797 3269 1353 
Q 3269 753 2831 336 
Q 2394 -81 1725 -81 
Q 1122 -81 723 278 
Q 325 638 269 1209 
z
" transform="scale(0.015625)"/>
       </defs>
       <use xlink:href="#ArialMT-33"/>
       <use xlink:href="#ArialMT-30" x="55.615234"/>
      </g>
     </g>
    </g>
    <g id="xtick_5">
     <g id="line2d_5">
      <g>
       <use xlink:href="#m5aa05811ff" x="316.56698" y="286.3005" style="fill: #262626; stroke: #262626"/>
      </g>
     </g>
     <g id="text_5">
      <!-- 40 -->
      <g style="fill: #262626" transform="translate(311.673355 300.899375) scale(0.088 -0.088)">
       <defs>
        <path id="ArialMT-34" d="M 2069 0 
L 2069 1097 
L 81 1097 
L 81 1613 
L 2172 4581 
L 2631 4581 
L 2631 1613 
L 3250 1613 
L 3250 1097 
L 2631 1097 
L 2631 0 
L 2069 0 
z
M 2069 1613 
L 2069 3678 
L 634 1613 
L 2069 1613 
z
" transform="scale(0.015625)"/>
       </defs>
       <use xlink:href="#ArialMT-34"/>
       <use xlink:href="#ArialMT-30" x="55.615234"/>
      </g>
     </g>
    </g>
    <g id="xtick_6">
     <g id="line2d_6">
      <g>
       <use xlink:href="#m5aa05811ff" x="381.628273" y="286.3005" style="fill: #262626; stroke: #262626"/>
      </g>
     </g>
     <g id="text_6">
      <!-- 50 -->
      <g style="fill: #262626" transform="translate(376.734648 300.899375) scale(0.088 -0.088)">
       <defs>
        <path id="ArialMT-35" d="M 266 1200 
L 856 1250 
Q 922 819 1161 601 
Q 1400 384 1738 384 
Q 2144 384 2425 690 
Q 2706 997 2706 1503 
Q 2706 1984 2436 2262 
Q 2166 2541 1728 2541 
Q 1456 2541 1237 2417 
Q 1019 2294 894 2097 
L 366 2166 
L 809 4519 
L 3088 4519 
L 3088 3981 
L 1259 3981 
L 1013 2750 
Q 1425 3038 1878 3038 
Q 2478 3038 2890 2622 
Q 3303 2206 3303 1553 
Q 3303 931 2941 478 
Q 2500 -78 1738 -78 
Q 1113 -78 717 272 
Q 322 622 266 1200 
z
" transform="scale(0.015625)"/>
       </defs>
       <use xlink:href="#ArialMT-35"/>
       <use xlink:href="#ArialMT-30" x="55.615234"/>
      </g>
     </g>
    </g>
    <g id="text_7">
     <!-- t -->
     <g style="fill: #262626" transform="translate(217.9675 313.519875) scale(0.096 -0.096)">
      <defs>
       <path id="ArialMT-74" d="M 1650 503 
L 1731 6 
Q 1494 -44 1306 -44 
Q 1000 -44 831 53 
Q 663 150 594 308 
Q 525 466 525 972 
L 525 2881 
L 113 2881 
L 113 3319 
L 525 3319 
L 525 4141 
L 1084 4478 
L 1084 3319 
L 1650 3319 
L 1650 2881 
L 1084 2881 
L 1084 941 
Q 1084 700 1114 631 
Q 1144 563 1211 522 
Q 1278 481 1403 481 
Q 1497 481 1650 503 
z
" transform="scale(0.015625)"/>
      </defs>
      <use xlink:href="#ArialMT-74"/>
     </g>
    </g>
   </g>
   <g id="matplotlib.axis_2">
    <g id="ytick_1">
     <g id="line2d_7">
      <defs>
       <path id="md3c7a0cc12" d="M 0 0 
L -4.8 0 
" style="stroke: #262626"/>
      </defs>
      <g>
       <use xlink:href="#md3c7a0cc12" x="40.741" y="274.2045" style="fill: #262626; stroke: #262626"/>
      </g>
     </g>
     <g id="text_8">
      <!-- 0.0 -->
      <g style="fill: #262626" transform="translate(20.209 277.353938) scale(0.088 -0.088)">
       <defs>
        <path id="ArialMT-2e" d="M 581 0 
L 581 641 
L 1222 641 
L 1222 0 
L 581 0 
z
" transform="scale(0.015625)"/>
       </defs>
       <use xlink:href="#ArialMT-30"/>
       <use xlink:href="#ArialMT-2e" x="55.615234"/>
       <use xlink:href="#ArialMT-30" x="83.398438"/>
      </g>
     </g>
    </g>
    <g id="ytick_2">
     <g id="line2d_8">
      <g>
       <use xlink:href="#md3c7a0cc12" x="40.741" y="225.837146" style="fill: #262626; stroke: #262626"/>
      </g>
     </g>
     <g id="text_9">
      <!-- 0.2 -->
      <g style="fill: #262626" transform="translate(20.209 228.986583) scale(0.088 -0.088)">
       <use xlink:href="#ArialMT-30"/>
       <use xlink:href="#ArialMT-2e" x="55.615234"/>
       <use xlink:href="#ArialMT-32" x="83.398438"/>
      </g>
     </g>
    </g>
    <g id="ytick_3">
     <g id="line2d_9">
      <g>
       <use xlink:href="#md3c7a0cc12" x="40.741" y="177.469792" style="fill: #262626; stroke: #262626"/>
      </g>
     </g>
     <g id="text_10">
      <!-- 0.4 -->
      <g style="fill: #262626" transform="translate(20.209 180.619229) scale(0.088 -0.088)">
       <use xlink:href="#ArialMT-30"/>
       <use xlink:href="#ArialMT-2e" x="55.615234"/>
       <use xlink:href="#ArialMT-34" x="83.398438"/>
      </g>
     </g>
    </g>
    <g id="ytick_4">
     <g id="line2d_10">
      <g>
       <use xlink:href="#md3c7a0cc12" x="40.741" y="129.102438" style="fill: #262626; stroke: #262626"/>
      </g>
     </g>
     <g id="text_11">
      <!-- 0.6 -->
      <g style="fill: #262626" transform="translate(20.209 132.251875) scale(0.088 -0.088)">
       <defs>
        <path id="ArialMT-36" d="M 3184 3459 
L 2625 3416 
Q 2550 3747 2413 3897 
Q 2184 4138 1850 4138 
Q 1581 4138 1378 3988 
Q 1113 3794 959 3422 
Q 806 3050 800 2363 
Q 1003 2672 1297 2822 
Q 1591 2972 1913 2972 
Q 2475 2972 2870 2558 
Q 3266 2144 3266 1488 
Q 3266 1056 3080 686 
Q 2894 316 2569 119 
Q 2244 -78 1831 -78 
Q 1128 -78 684 439 
Q 241 956 241 2144 
Q 241 3472 731 4075 
Q 1159 4600 1884 4600 
Q 2425 4600 2770 4297 
Q 3116 3994 3184 3459 
z
M 888 1484 
Q 888 1194 1011 928 
Q 1134 663 1356 523 
Q 1578 384 1822 384 
Q 2178 384 2434 671 
Q 2691 959 2691 1453 
Q 2691 1928 2437 2201 
Q 2184 2475 1800 2475 
Q 1419 2475 1153 2201 
Q 888 1928 888 1484 
z
" transform="scale(0.015625)"/>
       </defs>
       <use xlink:href="#ArialMT-30"/>
       <use xlink:href="#ArialMT-2e" x="55.615234"/>
       <use xlink:href="#ArialMT-36" x="83.398438"/>
      </g>
     </g>
    </g>
    <g id="ytick_5">
     <g id="line2d_11">
      <g>
       <use xlink:href="#md3c7a0cc12" x="40.741" y="80.735084" style="fill: #262626; stroke: #262626"/>
      </g>
     </g>
     <g id="text_12">
      <!-- 0.8 -->
      <g style="fill: #262626" transform="translate(20.209 83.884521) scale(0.088 -0.088)">
       <defs>
        <path id="ArialMT-38" d="M 1131 2484 
Q 781 2613 612 2850 
Q 444 3088 444 3419 
Q 444 3919 803 4259 
Q 1163 4600 1759 4600 
Q 2359 4600 2725 4251 
Q 3091 3903 3091 3403 
Q 3091 3084 2923 2848 
Q 2756 2613 2416 2484 
Q 2838 2347 3058 2040 
Q 3278 1734 3278 1309 
Q 3278 722 2862 322 
Q 2447 -78 1769 -78 
Q 1091 -78 675 323 
Q 259 725 259 1325 
Q 259 1772 486 2073 
Q 713 2375 1131 2484 
z
M 1019 3438 
Q 1019 3113 1228 2906 
Q 1438 2700 1772 2700 
Q 2097 2700 2305 2904 
Q 2513 3109 2513 3406 
Q 2513 3716 2298 3927 
Q 2084 4138 1766 4138 
Q 1444 4138 1231 3931 
Q 1019 3725 1019 3438 
z
M 838 1322 
Q 838 1081 952 856 
Q 1066 631 1291 507 
Q 1516 384 1775 384 
Q 2178 384 2440 643 
Q 2703 903 2703 1303 
Q 2703 1709 2433 1975 
Q 2163 2241 1756 2241 
Q 1359 2241 1098 1978 
Q 838 1716 838 1322 
z
" transform="scale(0.015625)"/>
       </defs>
       <use xlink:href="#ArialMT-30"/>
       <use xlink:href="#ArialMT-2e" x="55.615234"/>
       <use xlink:href="#ArialMT-38" x="83.398438"/>
      </g>
     </g>
    </g>
    <g id="ytick_6">
     <g id="line2d_12">
      <g>
       <use xlink:href="#md3c7a0cc12" x="40.741" y="32.36773" style="fill: #262626; stroke: #262626"/>
      </g>
     </g>
     <g id="text_13">
      <!-- 1.0 -->
      <g style="fill: #262626" transform="translate(20.209 35.517167) scale(0.088 -0.088)">
       <use xlink:href="#ArialMT-31"/>
       <use xlink:href="#ArialMT-2e" x="55.615234"/>
       <use xlink:href="#ArialMT-30" x="83.398438"/>
      </g>
     </g>
    </g>
    <g id="text_14">
     <!-- Sensitivity Indices for v(t) -->
     <g style="fill: #262626" transform="translate(14.1885 206.5905) rotate(-90) scale(0.096 -0.096)">
      <defs>
       <path id="ArialMT-53" d="M 288 1472 
L 859 1522 
Q 900 1178 1048 958 
Q 1197 738 1509 602 
Q 1822 466 2213 466 
Q 2559 466 2825 569 
Q 3091 672 3220 851 
Q 3350 1031 3350 1244 
Q 3350 1459 3225 1620 
Q 3100 1781 2813 1891 
Q 2628 1963 1997 2114 
Q 1366 2266 1113 2400 
Q 784 2572 623 2826 
Q 463 3081 463 3397 
Q 463 3744 659 4045 
Q 856 4347 1234 4503 
Q 1613 4659 2075 4659 
Q 2584 4659 2973 4495 
Q 3363 4331 3572 4012 
Q 3781 3694 3797 3291 
L 3216 3247 
Q 3169 3681 2898 3903 
Q 2628 4125 2100 4125 
Q 1550 4125 1298 3923 
Q 1047 3722 1047 3438 
Q 1047 3191 1225 3031 
Q 1400 2872 2139 2705 
Q 2878 2538 3153 2413 
Q 3553 2228 3743 1945 
Q 3934 1663 3934 1294 
Q 3934 928 3725 604 
Q 3516 281 3123 101 
Q 2731 -78 2241 -78 
Q 1619 -78 1198 103 
Q 778 284 539 648 
Q 300 1013 288 1472 
z
" transform="scale(0.015625)"/>
       <path id="ArialMT-65" d="M 2694 1069 
L 3275 997 
Q 3138 488 2766 206 
Q 2394 -75 1816 -75 
Q 1088 -75 661 373 
Q 234 822 234 1631 
Q 234 2469 665 2931 
Q 1097 3394 1784 3394 
Q 2450 3394 2872 2941 
Q 3294 2488 3294 1666 
Q 3294 1616 3291 1516 
L 816 1516 
Q 847 969 1125 678 
Q 1403 388 1819 388 
Q 2128 388 2347 550 
Q 2566 713 2694 1069 
z
M 847 1978 
L 2700 1978 
Q 2663 2397 2488 2606 
Q 2219 2931 1791 2931 
Q 1403 2931 1139 2672 
Q 875 2413 847 1978 
z
" transform="scale(0.015625)"/>
       <path id="ArialMT-6e" d="M 422 0 
L 422 3319 
L 928 3319 
L 928 2847 
Q 1294 3394 1984 3394 
Q 2284 3394 2536 3286 
Q 2788 3178 2913 3003 
Q 3038 2828 3088 2588 
Q 3119 2431 3119 2041 
L 3119 0 
L 2556 0 
L 2556 2019 
Q 2556 2363 2490 2533 
Q 2425 2703 2258 2804 
Q 2091 2906 1866 2906 
Q 1506 2906 1245 2678 
Q 984 2450 984 1813 
L 984 0 
L 422 0 
z
" transform="scale(0.015625)"/>
       <path id="ArialMT-73" d="M 197 991 
L 753 1078 
Q 800 744 1014 566 
Q 1228 388 1613 388 
Q 2000 388 2187 545 
Q 2375 703 2375 916 
Q 2375 1106 2209 1216 
Q 2094 1291 1634 1406 
Q 1016 1563 777 1677 
Q 538 1791 414 1992 
Q 291 2194 291 2438 
Q 291 2659 392 2848 
Q 494 3038 669 3163 
Q 800 3259 1026 3326 
Q 1253 3394 1513 3394 
Q 1903 3394 2198 3281 
Q 2494 3169 2634 2976 
Q 2775 2784 2828 2463 
L 2278 2388 
Q 2241 2644 2061 2787 
Q 1881 2931 1553 2931 
Q 1166 2931 1000 2803 
Q 834 2675 834 2503 
Q 834 2394 903 2306 
Q 972 2216 1119 2156 
Q 1203 2125 1616 2013 
Q 2213 1853 2448 1751 
Q 2684 1650 2818 1456 
Q 2953 1263 2953 975 
Q 2953 694 2789 445 
Q 2625 197 2315 61 
Q 2006 -75 1616 -75 
Q 969 -75 630 194 
Q 291 463 197 991 
z
" transform="scale(0.015625)"/>
       <path id="ArialMT-69" d="M 425 3934 
L 425 4581 
L 988 4581 
L 988 3934 
L 425 3934 
z
M 425 0 
L 425 3319 
L 988 3319 
L 988 0 
L 425 0 
z
" transform="scale(0.015625)"/>
       <path id="ArialMT-76" d="M 1344 0 
L 81 3319 
L 675 3319 
L 1388 1331 
Q 1503 1009 1600 663 
Q 1675 925 1809 1294 
L 2547 3319 
L 3125 3319 
L 1869 0 
L 1344 0 
z
" transform="scale(0.015625)"/>
       <path id="ArialMT-79" d="M 397 -1278 
L 334 -750 
Q 519 -800 656 -800 
Q 844 -800 956 -737 
Q 1069 -675 1141 -563 
Q 1194 -478 1313 -144 
Q 1328 -97 1363 -6 
L 103 3319 
L 709 3319 
L 1400 1397 
Q 1534 1031 1641 628 
Q 1738 1016 1872 1384 
L 2581 3319 
L 3144 3319 
L 1881 -56 
Q 1678 -603 1566 -809 
Q 1416 -1088 1222 -1217 
Q 1028 -1347 759 -1347 
Q 597 -1347 397 -1278 
z
" transform="scale(0.015625)"/>
       <path id="ArialMT-20" transform="scale(0.015625)"/>
       <path id="ArialMT-49" d="M 597 0 
L 597 4581 
L 1203 4581 
L 1203 0 
L 597 0 
z
" transform="scale(0.015625)"/>
       <path id="ArialMT-64" d="M 2575 0 
L 2575 419 
Q 2259 -75 1647 -75 
Q 1250 -75 917 144 
Q 584 363 401 755 
Q 219 1147 219 1656 
Q 219 2153 384 2558 
Q 550 2963 881 3178 
Q 1213 3394 1622 3394 
Q 1922 3394 2156 3267 
Q 2391 3141 2538 2938 
L 2538 4581 
L 3097 4581 
L 3097 0 
L 2575 0 
z
M 797 1656 
Q 797 1019 1065 703 
Q 1334 388 1700 388 
Q 2069 388 2326 689 
Q 2584 991 2584 1609 
Q 2584 2291 2321 2609 
Q 2059 2928 1675 2928 
Q 1300 2928 1048 2622 
Q 797 2316 797 1656 
z
" transform="scale(0.015625)"/>
       <path id="ArialMT-63" d="M 2588 1216 
L 3141 1144 
Q 3050 572 2676 248 
Q 2303 -75 1759 -75 
Q 1078 -75 664 370 
Q 250 816 250 1647 
Q 250 2184 428 2587 
Q 606 2991 970 3192 
Q 1334 3394 1763 3394 
Q 2303 3394 2647 3120 
Q 2991 2847 3088 2344 
L 2541 2259 
Q 2463 2594 2264 2762 
Q 2066 2931 1784 2931 
Q 1359 2931 1093 2626 
Q 828 2322 828 1663 
Q 828 994 1084 691 
Q 1341 388 1753 388 
Q 2084 388 2306 591 
Q 2528 794 2588 1216 
z
" transform="scale(0.015625)"/>
       <path id="ArialMT-66" d="M 556 0 
L 556 2881 
L 59 2881 
L 59 3319 
L 556 3319 
L 556 3672 
Q 556 4006 616 4169 
Q 697 4388 901 4523 
Q 1106 4659 1475 4659 
Q 1713 4659 2000 4603 
L 1916 4113 
Q 1741 4144 1584 4144 
Q 1328 4144 1222 4034 
Q 1116 3925 1116 3625 
L 1116 3319 
L 1763 3319 
L 1763 2881 
L 1116 2881 
L 1116 0 
L 556 0 
z
" transform="scale(0.015625)"/>
       <path id="ArialMT-6f" d="M 213 1659 
Q 213 2581 725 3025 
Q 1153 3394 1769 3394 
Q 2453 3394 2887 2945 
Q 3322 2497 3322 1706 
Q 3322 1066 3130 698 
Q 2938 331 2570 128 
Q 2203 -75 1769 -75 
Q 1072 -75 642 372 
Q 213 819 213 1659 
z
M 791 1659 
Q 791 1022 1069 705 
Q 1347 388 1769 388 
Q 2188 388 2466 706 
Q 2744 1025 2744 1678 
Q 2744 2294 2464 2611 
Q 2184 2928 1769 2928 
Q 1347 2928 1069 2612 
Q 791 2297 791 1659 
z
" transform="scale(0.015625)"/>
       <path id="ArialMT-72" d="M 416 0 
L 416 3319 
L 922 3319 
L 922 2816 
Q 1116 3169 1280 3281 
Q 1444 3394 1641 3394 
Q 1925 3394 2219 3213 
L 2025 2691 
Q 1819 2813 1613 2813 
Q 1428 2813 1281 2702 
Q 1134 2591 1072 2394 
Q 978 2094 978 1738 
L 978 0 
L 416 0 
z
" transform="scale(0.015625)"/>
       <path id="ArialMT-28" d="M 1497 -1347 
Q 1031 -759 709 28 
Q 388 816 388 1659 
Q 388 2403 628 3084 
Q 909 3875 1497 4659 
L 1900 4659 
Q 1522 4009 1400 3731 
Q 1209 3300 1100 2831 
Q 966 2247 966 1656 
Q 966 153 1900 -1347 
L 1497 -1347 
z
" transform="scale(0.015625)"/>
       <path id="ArialMT-29" d="M 791 -1347 
L 388 -1347 
Q 1322 153 1322 1656 
Q 1322 2244 1188 2822 
Q 1081 3291 891 3722 
Q 769 4003 388 4659 
L 791 4659 
Q 1378 3875 1659 3084 
Q 1900 2403 1900 1659 
Q 1900 816 1576 28 
Q 1253 -759 791 -1347 
z
" transform="scale(0.015625)"/>
      </defs>
      <use xlink:href="#ArialMT-53"/>
      <use xlink:href="#ArialMT-65" x="66.699219"/>
      <use xlink:href="#ArialMT-6e" x="122.314453"/>
      <use xlink:href="#ArialMT-73" x="177.929688"/>
      <use xlink:href="#ArialMT-69" x="227.929688"/>
      <use xlink:href="#ArialMT-74" x="250.146484"/>
      <use xlink:href="#ArialMT-69" x="277.929688"/>
      <use xlink:href="#ArialMT-76" x="300.146484"/>
      <use xlink:href="#ArialMT-69" x="350.146484"/>
      <use xlink:href="#ArialMT-74" x="372.363281"/>
      <use xlink:href="#ArialMT-79" x="400.146484"/>
      <use xlink:href="#ArialMT-20" x="450.146484"/>
      <use xlink:href="#ArialMT-49" x="477.929688"/>
      <use xlink:href="#ArialMT-6e" x="505.712891"/>
      <use xlink:href="#ArialMT-64" x="561.328125"/>
      <use xlink:href="#ArialMT-69" x="616.943359"/>
      <use xlink:href="#ArialMT-63" x="639.160156"/>
      <use xlink:href="#ArialMT-65" x="689.160156"/>
      <use xlink:href="#ArialMT-73" x="744.775391"/>
      <use xlink:href="#ArialMT-20" x="794.775391"/>
      <use xlink:href="#ArialMT-66" x="822.558594"/>
      <use xlink:href="#ArialMT-6f" x="850.341797"/>
      <use xlink:href="#ArialMT-72" x="905.957031"/>
      <use xlink:href="#ArialMT-20" x="939.257812"/>
      <use xlink:href="#ArialMT-76" x="967.041016"/>
      <use xlink:href="#ArialMT-28" x="1017.041016"/>
      <use xlink:href="#ArialMT-74" x="1050.341797"/>
      <use xlink:href="#ArialMT-29" x="1078.125"/>
     </g>
    </g>
   </g>
   <g id="line2d_13">
    <path d="M 56.973727 274.203821 
L 58.277561 274.14784 
L 58.929478 274.021038 
L 59.581394 273.742982 
L 60.233311 273.213751 
L 60.885228 272.297947 
L 61.537145 270.82098 
L 62.189061 268.572289 
L 62.840978 265.324601 
L 63.492895 260.88635 
L 64.144811 255.207542 
L 66.100562 235.681708 
L 66.752479 231.982574 
L 67.404395 231.304165 
L 68.056312 233.491627 
L 68.708229 237.678155 
L 70.66398 252.976222 
L 71.967812 260.968583 
L 73.271645 266.720797 
L 74.575479 270.95721 
L 75.227396 272.632035 
L 75.879313 273.856758 
L 76.53123 274.133663 
L 77.183147 272.26789 
L 77.835063 265.987832 
L 78.48698 253.045246 
L 79.138897 236.515509 
L 79.790814 226.062647 
L 80.442731 225.270493 
L 81.094648 229.804773 
L 83.050397 246.961174 
L 84.35423 256.325505 
L 85.658064 264.402392 
L 86.961898 270.844947 
L 87.613813 272.955867 
L 88.265731 274.044619 
L 88.917647 274.119552 
L 89.569565 273.419601 
L 90.22148 272.202191 
L 90.873399 270.420322 
L 91.525314 267.395434 
L 92.177233 261.033311 
L 92.829148 244.654952 
L 93.481066 196.172972 
L 94.132982 126.115858 
L 94.7849 182.597271 
L 95.436815 229.391309 
L 96.088734 249.013165 
L 96.740649 258.456344 
L 97.392567 263.817893 
L 98.044483 267.279093 
L 98.696398 269.731694 
L 99.348316 271.570834 
L 100.000232 272.953927 
L 100.65215 273.879359 
L 101.304065 274.193203 
L 101.955984 273.595201 
L 102.607899 271.776014 
L 104.563651 263.087574 
L 105.215566 261.598173 
L 105.867485 260.543093 
L 106.5194 259.071941 
L 107.171318 256.229747 
L 107.823234 250.649034 
L 108.475152 240.414647 
L 109.127064 228.063692 
L 109.778983 233.300583 
L 110.430901 252.347972 
L 111.08282 264.08379 
L 111.734732 269.467958 
L 112.38665 271.99073 
L 113.038569 273.240889 
L 113.690487 273.866721 
L 114.342399 274.144066 
L 114.994318 274.19333 
L 115.646236 274.062024 
L 116.298154 273.757647 
L 116.950067 273.261845 
L 117.601985 272.53921 
L 118.253903 271.549807 
L 118.905816 270.273518 
L 121.513483 264.300973 
L 122.165401 263.437982 
L 122.81732 262.92682 
L 125.424987 261.783213 
L 126.076906 261.081022 
L 126.728818 259.932135 
L 127.380736 258.123816 
L 128.684573 252.809728 
L 129.336485 254.630268 
L 129.988403 263.80771 
L 130.640322 270.869386 
L 131.292234 273.444247 
L 131.944152 274.091949 
L 132.596071 274.123247 
L 136.507569 273.355613 
L 138.463324 273.28157 
L 141.070985 273.415746 
L 143.678653 273.757701 
L 146.28632 274.169688 
L 146.938238 274.151259 
L 147.590157 273.961852 
L 148.242075 273.508906 
L 148.893987 272.753184 
L 150.197824 270.823863 
L 150.849736 270.057192 
L 151.501655 269.577853 
L 152.153573 269.387393 
L 152.805492 269.459512 
L 153.457404 269.786671 
L 154.109322 270.408868 
L 154.761241 271.392496 
L 156.065071 273.670069 
L 156.71699 274.122398 
L 157.368908 274.161061 
L 160.628494 273.748098 
L 164.539992 273.675468 
L 166.495747 273.763694 
L 169.755327 274.123475 
L 170.407245 273.780857 
L 171.059163 272.995837 
L 171.711069 271.218593 
L 172.362988 265.885429 
L 173.666825 215.91078 
L 174.318743 258.506842 
L 174.970661 267.809642 
L 175.62258 270.726194 
L 176.274498 272.003552 
L 176.926404 272.689061 
L 177.578323 273.110805 
L 178.882159 273.608531 
L 180.837915 274.021949 
L 182.141739 274.175918 
L 182.793657 274.18299 
L 183.445576 274.078359 
L 184.097494 273.749629 
L 184.749413 273.014094 
L 185.401331 271.691835 
L 186.705155 267.97974 
L 187.357074 266.513027 
L 188.660911 264.045963 
L 189.312829 261.773469 
L 189.964747 257.508533 
L 190.616666 251.390173 
L 191.268584 252.568981 
L 191.92049 263.001668 
L 192.572409 269.392131 
L 193.224327 272.035743 
L 193.876245 273.165627 
L 194.528164 273.694224 
L 195.180082 273.95949 
L 196.483906 274.165099 
L 198.439662 274.166388 
L 200.395417 273.940233 
L 201.699241 273.575084 
L 203.003078 272.847448 
L 203.654996 272.261634 
L 204.306915 271.485269 
L 206.914576 267.589007 
L 207.566494 267.029719 
L 209.52225 266.073187 
L 210.174168 265.136563 
L 210.826086 262.852138 
L 211.477992 258.300407 
L 212.129911 262.036279 
L 212.781829 271.502661 
L 213.433748 273.714126 
L 214.085666 274.11814 
L 215.389503 274.172464 
L 221.256744 274.112488 
L 229.079752 274.119092 
L 229.73167 273.962727 
L 231.035495 273.310721 
L 231.687413 272.983419 
L 232.339332 272.783086 
L 232.99125 272.734696 
L 233.643168 272.854714 
L 234.295087 273.18897 
L 235.598911 274.051142 
L 236.25083 274.172268 
L 242.770001 274.130524 
L 249.289173 274.158981 
L 249.941091 274.005636 
L 250.592997 273.618088 
L 251.244916 272.856298 
L 251.896834 271.415763 
L 252.548752 267.980273 
L 253.852589 243.72462 
L 254.504508 265.093195 
L 255.156414 270.895981 
L 255.808332 272.603745 
L 256.46025 273.28925 
L 257.112169 273.625992 
L 258.416006 273.932863 
L 261.023667 274.138347 
L 264.283259 274.181518 
L 265.587095 274.042588 
L 266.239014 273.839259 
L 266.890932 273.441993 
L 267.542826 272.732752 
L 268.194744 271.641585 
L 270.802418 266.378837 
L 271.454336 264.236377 
L 272.106255 260.727688 
L 272.758173 258.749164 
L 274.06201 270.3765 
L 274.713928 272.643597 
L 275.365847 273.513016 
L 276.017765 273.878963 
L 277.321577 274.128957 
L 279.929251 274.195069 
L 283.840761 274.085106 
L 285.796516 273.883983 
L 287.100328 273.582378 
L 288.404165 273.000568 
L 289.708002 272.054129 
L 292.315675 269.876775 
L 292.967594 268.707024 
L 293.619512 269.134521 
L 294.271431 272.622327 
L 294.923349 273.853199 
L 295.575267 274.120606 
L 297.530998 274.200175 
L 330.126843 274.105875 
L 330.778762 273.944739 
L 331.43068 273.577204 
L 332.082598 272.827529 
L 332.734517 271.391612 
L 333.386435 268.34793 
L 334.038354 261.090154 
L 334.690272 259.855839 
L 335.34219 269.052874 
L 335.994109 272.262284 
L 336.646002 273.30375 
L 337.297921 273.722103 
L 338.601758 274.026662 
L 341.209431 274.16898 
L 346.424754 274.175918 
L 348.380509 274.002525 
L 349.032427 273.828825 
L 349.684346 273.516623 
L 350.336264 272.982572 
L 350.988182 272.149329 
L 351.640101 270.995451 
L 352.292019 269.504421 
L 352.943938 267.429469 
L 353.595856 264.306937 
L 354.247774 262.567387 
L 354.899693 267.675251 
L 355.551611 271.775886 
L 356.203505 273.26695 
L 356.855423 273.803416 
L 357.507342 274.019046 
L 358.811178 274.159644 
L 362.722689 274.196783 
L 368.58993 274.09819 
L 370.545685 273.918363 
L 371.849522 273.635999 
L 373.153358 273.104799 
L 373.805277 272.648358 
L 374.457195 271.968225 
L 375.109114 272.045778 
L 375.761007 273.373388 
L 376.412926 273.949339 
L 377.716762 274.168832 
L 381.628273 274.202445 
L 381.628273 274.202445 
" clip-path="url(#p71b9c5bcfe)" style="fill: none; stroke: #1f77b4; stroke-width: 1.2; stroke-linecap: round"/>
   </g>
   <g id="line2d_14">
    <path d="M 56.973727 274.2045 
L 63.492895 274.130678 
L 64.144811 274.018181 
L 64.796728 273.78726 
L 65.448645 273.374821 
L 66.100562 272.742596 
L 68.056312 270.265582 
L 68.708229 269.741222 
L 69.360146 269.54008 
L 70.012063 269.660267 
L 70.66398 270.04816 
L 71.967812 271.292143 
L 73.271645 272.593105 
L 74.575479 273.516265 
L 75.879313 274.023442 
L 77.183147 274.198261 
L 77.835063 273.973906 
L 78.48698 273.114594 
L 79.138897 271.312826 
L 80.442731 267.121173 
L 81.094648 265.693474 
L 81.746564 264.604018 
L 82.398481 263.73236 
L 83.050397 263.055072 
L 83.702315 262.617209 
L 84.35423 262.509771 
L 85.006149 262.854317 
L 85.658064 263.778438 
L 86.309982 265.364277 
L 87.613813 270.061811 
L 88.265731 272.334358 
L 88.917647 273.796703 
L 89.569565 274.19646 
L 90.22148 273.722622 
L 90.873399 272.673522 
L 91.525314 270.978672 
L 92.177233 267.656561 
L 92.829148 259.029912 
L 93.481066 231.765908 
L 94.132982 185.84774 
L 95.436815 239.203864 
L 96.088734 251.063115 
L 96.740649 256.957945 
L 97.392567 260.444446 
L 98.044483 262.877239 
L 101.304065 272.541602 
L 101.955984 273.957871 
L 102.607899 273.902801 
L 103.259817 271.44194 
L 105.215566 257.711544 
L 106.5194 251.846912 
L 107.171318 247.314594 
L 107.823234 238.800111 
L 108.475152 222.813068 
L 109.127064 201.907502 
L 109.778983 206.516085 
L 110.430901 234.869399 
L 111.08282 253.7144 
L 111.734732 262.960558 
L 112.38665 267.678212 
L 113.038569 270.326842 
L 113.690487 271.948958 
L 114.342399 273.002229 
L 114.994318 273.690213 
L 115.646236 274.088337 
L 116.298154 274.189422 
L 116.950067 273.914486 
L 117.601985 273.109487 
L 118.253903 271.547217 
L 118.905816 268.965198 
L 119.557734 265.178256 
L 120.861571 254.695607 
L 122.165401 244.58058 
L 122.81732 241.068201 
L 123.469238 238.641457 
L 124.12115 237.002824 
L 125.424987 234.563687 
L 126.076906 233.007902 
L 126.728818 230.723379 
L 127.380736 227.351186 
L 128.032655 222.990818 
L 128.684573 220.60237 
L 129.336485 231.150541 
L 129.988403 255.676591 
L 130.640322 270.204117 
L 131.292234 273.774493 
L 131.944152 273.691371 
L 133.247989 271.983151 
L 133.899901 271.310286 
L 134.55182 270.830067 
L 135.203738 270.518267 
L 136.507569 270.286617 
L 137.811406 270.429988 
L 139.115236 270.829738 
L 141.070985 271.759842 
L 144.982489 274.042111 
L 145.634408 274.167655 
L 146.28632 273.961053 
L 146.938238 273.177886 
L 147.590157 271.504322 
L 148.242075 268.691063 
L 150.197824 256.868465 
L 150.849736 254.22505 
L 151.501655 252.676162 
L 152.153573 251.923455 
L 152.805492 251.652789 
L 153.457404 251.723082 
L 154.109322 252.365513 
L 154.761241 254.427562 
L 155.413159 258.939952 
L 156.065071 265.038049 
L 156.71699 269.970031 
L 157.368908 272.656784 
L 158.020826 273.791267 
L 158.672739 274.154475 
L 159.324657 274.173587 
L 160.628494 273.835627 
L 162.584237 273.009712 
L 163.888073 272.286109 
L 165.19191 271.364385 
L 167.147653 269.840325 
L 167.799571 269.691021 
L 168.45149 270.098361 
L 169.103408 271.170026 
L 170.407245 273.760599 
L 171.059163 274.152349 
L 171.711069 273.326276 
L 172.362988 269.179372 
L 173.014906 244.923388 
L 173.666825 211.803561 
L 174.318743 254.260753 
L 174.970661 264.769329 
L 175.62258 268.300255 
L 176.274498 269.921317 
L 176.926404 270.82314 
L 177.578323 271.397521 
L 178.882159 272.12682 
L 183.445576 274.118706 
L 184.097494 273.987424 
L 184.749413 272.909364 
L 185.401331 270.030749 
L 186.053249 264.947177 
L 187.357074 253.129188 
L 188.660911 244.20846 
L 189.312829 237.607884 
L 189.964747 225.961673 
L 190.616666 210.012583 
L 191.268584 214.997078 
L 191.92049 244.263133 
L 192.572409 261.541351 
L 193.224327 268.524014 
L 193.876245 271.459617 
L 194.528164 272.82239 
L 195.180082 273.510296 
L 195.832 273.876534 
L 197.135825 274.169074 
L 198.439662 274.167522 
L 199.743498 273.924005 
L 200.395417 273.67188 
L 201.047335 273.281212 
L 201.699241 272.683037 
L 202.35116 271.771605 
L 203.003078 270.393821 
L 203.654996 268.350273 
L 204.306915 265.434241 
L 204.958833 261.543684 
L 206.914576 247.633901 
L 207.566494 244.534376 
L 208.218413 242.819462 
L 208.870331 242.158769 
L 209.52225 241.853191 
L 210.174168 240.881193 
L 210.826086 237.810938 
L 211.477992 233.56739 
L 212.781829 271.577008 
L 213.433748 273.456047 
L 214.737584 272.889319 
L 216.041409 272.768927 
L 217.997164 273.013672 
L 225.168254 274.088257 
L 226.472078 274.167098 
L 227.123997 274.075933 
L 227.775915 273.758518 
L 228.427834 272.985488 
L 229.079752 271.37902 
L 229.73167 268.522405 
L 231.687413 256.413218 
L 232.339332 254.002191 
L 232.99125 252.484574 
L 233.643168 251.869642 
L 234.295087 253.491981 
L 234.947005 259.205005 
L 235.598911 266.428307 
L 236.25083 271.01185 
L 236.902748 273.041647 
L 237.554666 273.82757 
L 238.206585 274.106928 
L 239.510422 274.180345 
L 242.770001 273.874616 
L 245.377662 273.442417 
L 248.637254 272.749663 
L 249.289173 272.938398 
L 250.592997 273.959522 
L 251.244916 273.932194 
L 251.896834 272.568241 
L 252.548752 268.0294 
L 253.200671 250.300379 
L 253.852589 226.982597 
L 254.504508 258.246881 
L 255.156414 267.767779 
L 255.808332 270.759454 
L 256.46025 272.021687 
L 257.112169 272.668846 
L 257.764087 273.048245 
L 259.067924 273.466718 
L 261.023667 273.789934 
L 264.283259 274.143318 
L 264.935177 274.146703 
L 265.587095 274.019297 
L 266.239014 273.578101 
L 266.890932 272.453795 
L 267.542826 270.048265 
L 268.194744 265.800558 
L 270.802418 242.118293 
L 271.454336 233.960177 
L 272.106255 221.727465 
L 272.758173 217.103526 
L 274.06201 261.904445 
L 274.713928 269.589601 
L 275.365847 272.342517 
L 276.017765 273.418761 
L 276.669683 273.873747 
L 277.973495 274.159444 
L 279.929251 274.173514 
L 282.536924 273.98472 
L 284.492679 273.631566 
L 285.796516 273.133208 
L 286.448435 272.724034 
L 287.100328 272.1426 
L 287.752247 271.321749 
L 288.404165 270.196774 
L 290.35992 265.661305 
L 291.011839 264.790227 
L 291.663757 264.733112 
L 292.315675 265.358731 
L 292.967594 266.795052 
L 293.619512 270.721819 
L 294.271431 273.308581 
L 302.094427 274.047095 
L 307.309749 274.192269 
L 308.613586 274.092116 
L 309.265504 273.930684 
L 309.917423 273.597814 
L 310.569341 272.948722 
L 311.221259 271.780412 
L 311.873178 269.941608 
L 313.828933 262.401754 
L 314.480851 260.827025 
L 315.13277 263.800859 
L 315.784688 269.74575 
L 316.436607 272.79145 
L 317.0885 273.789561 
L 317.740419 274.09232 
L 319.044255 274.192984 
L 326.215358 274.002404 
L 329.474925 273.986113 
L 330.778762 274.086768 
L 331.43068 273.899198 
L 332.082598 272.987744 
L 332.734517 270.467932 
L 333.386435 264.282624 
L 334.038354 248.64849 
L 334.690272 243.917191 
L 335.34219 262.775649 
L 335.994109 269.721515 
L 336.646002 272.037015 
L 337.297921 272.984306 
L 337.949839 273.441455 
L 339.253676 273.840723 
L 341.209431 274.052755 
L 345.120942 274.186394 
L 347.076672 274.118043 
L 347.72859 273.992135 
L 348.380509 273.715547 
L 349.032427 273.135473 
L 349.684346 271.973097 
L 350.336264 269.803323 
L 350.988182 266.191144 
L 351.640101 261.010788 
L 352.292019 254.38713 
L 352.943938 245.73956 
L 353.595856 233.933059 
L 354.247774 229.572871 
L 354.899693 251.180149 
L 355.551611 266.509533 
L 356.203505 271.595274 
L 356.855423 273.248361 
L 357.507342 273.837472 
L 358.15926 274.062517 
L 359.463097 274.182372 
L 364.026526 274.132739 
L 367.938011 273.9595 
L 369.893766 273.716636 
L 373.153358 273.061695 
L 373.805277 273.186396 
L 375.109114 273.74289 
L 376.412926 273.755346 
L 379.672518 274.07483 
L 381.628273 274.146433 
L 381.628273 274.146433 
" clip-path="url(#p71b9c5bcfe)" style="fill: none; stroke: #ff7f0e; stroke-width: 1.2; stroke-linecap: round"/>
   </g>
   <g id="line2d_15">
    <path d="M 56.973727 32.37795 
L 57.625644 32.447918 
L 58.277561 32.708981 
L 58.929478 33.396889 
L 59.581394 34.875033 
L 60.233311 37.664229 
L 60.885228 42.477435 
L 61.537145 50.242707 
L 62.189061 62.095006 
L 62.840978 79.287005 
L 63.492895 102.933283 
L 64.144811 133.470386 
L 66.100562 242.711991 
L 66.752479 266.174 
L 67.404395 274.199442 
L 68.056312 267.056274 
L 68.708229 248.872493 
L 71.315896 154.414345 
L 72.619729 120.489726 
L 73.923562 95.096731 
L 77.183147 39.352682 
L 77.835063 44.686471 
L 78.48698 81.555661 
L 79.790814 227.327121 
L 80.442731 265.818313 
L 81.094648 274.109988 
L 81.746564 267.312056 
L 83.050397 239.957297 
L 86.309982 164.932329 
L 86.961898 152.901389 
L 87.613813 144.691398 
L 88.265731 142.226704 
L 88.917647 146.629023 
L 89.569565 157.140534 
L 91.525314 198.608087 
L 92.829148 224.310719 
L 94.132982 273.830372 
L 94.7849 251.168743 
L 95.436815 235.917992 
L 96.088734 230.878718 
L 96.740649 229.267116 
L 97.392567 228.946763 
L 98.044483 229.266197 
L 98.696398 230.054164 
L 99.348316 231.352724 
L 100.000232 233.35663 
L 100.65215 236.415454 
L 101.304065 241.017105 
L 101.955984 247.610749 
L 103.259817 264.8351 
L 103.911733 271.359847 
L 104.563651 274.069437 
L 105.215566 273.568593 
L 105.867485 271.130395 
L 106.5194 267.123325 
L 107.171318 260.436648 
L 107.823234 247.648995 
L 108.475152 221.162355 
L 109.127064 176.479335 
L 109.778983 159.305059 
L 111.08282 224.410118 
L 111.734732 242.525462 
L 112.38665 253.055032 
L 113.038569 259.679174 
L 113.690487 264.198519 
L 114.342399 267.493651 
L 114.994318 270.005034 
L 115.646236 271.937272 
L 116.298154 273.33715 
L 116.950067 274.107637 
L 117.601985 273.986224 
L 118.253903 272.514725 
L 118.905816 269.056652 
L 119.557734 262.957921 
L 120.209652 253.915637 
L 121.513483 229.669813 
L 122.81732 206.341056 
L 123.469238 197.227688 
L 124.773069 183.24574 
L 126.076906 170.493573 
L 126.728818 162.602527 
L 128.032655 141.843939 
L 128.684573 138.678595 
L 129.336485 171.228862 
L 129.988403 235.217468 
L 130.640322 268.094106 
L 131.292234 273.022042 
L 131.944152 269.96131 
L 133.247989 262.515185 
L 133.899901 259.991899 
L 134.55182 258.258652 
L 135.203738 257.181199 
L 135.855657 256.639779 
L 136.507569 256.538917 
L 137.159487 256.804718 
L 137.811406 257.38028 
L 138.463324 258.221678 
L 139.767155 260.572863 
L 141.070985 263.658115 
L 143.02674 269.224525 
L 144.330571 272.757668 
L 144.982489 273.832989 
L 145.634408 273.711571 
L 146.28632 271.320568 
L 146.938238 264.959882 
L 147.590157 252.367893 
L 148.242075 231.564943 
L 149.545906 170.059399 
L 150.197824 139.429538 
L 150.849736 114.97463 
L 151.501655 97.062579 
L 152.153573 83.818435 
L 153.457404 64.056991 
L 154.109322 59.145665 
L 154.761241 67.649512 
L 155.413159 103.258505 
L 156.71699 215.400222 
L 157.368908 247.913133 
L 158.020826 263.895762 
L 158.672739 270.895461 
L 159.324657 273.54925 
L 159.976575 274.129605 
L 160.628494 273.68004 
L 161.280412 272.664045 
L 161.932318 271.269002 
L 162.584237 269.539843 
L 163.236155 267.43376 
L 163.888073 264.835595 
L 164.539992 261.550907 
L 165.19191 257.28509 
L 165.843829 251.621816 
L 166.495747 244.042928 
L 167.147653 234.104978 
L 168.45149 209.443192 
L 169.103408 200.339835 
L 169.755327 198.77219 
L 170.407245 205.400763 
L 171.711069 227.292075 
L 173.014906 243.341699 
L 173.666825 270.718013 
L 174.318743 266.567262 
L 174.970661 264.614306 
L 175.62258 264.409977 
L 176.926404 265.035965 
L 180.185996 267.040855 
L 181.489821 268.189937 
L 182.141739 269.016061 
L 182.793657 270.103435 
L 184.749413 273.990952 
L 185.401331 272.951638 
L 186.053249 268.13377 
L 187.357074 249.621583 
L 188.660911 229.125695 
L 189.312829 213.973339 
L 189.964747 188.184202 
L 190.616666 151.068343 
L 191.268584 152.674331 
L 191.92049 208.750398 
L 192.572409 244.848861 
L 193.224327 260.292171 
L 193.876245 267.120767 
L 194.528164 270.448347 
L 195.180082 272.211478 
L 195.832 273.199275 
L 196.483906 273.762232 
L 197.135825 274.065918 
L 197.787743 274.188841 
L 198.439662 274.162488 
L 199.09158 273.987109 
L 199.743498 273.635578 
L 200.395417 273.049447 
L 201.047335 272.12801 
L 201.699241 270.709996 
L 202.35116 268.548847 
L 203.003078 265.290616 
L 203.654996 260.482313 
L 204.306915 253.674868 
L 204.958833 244.702843 
L 206.914576 214.691813 
L 207.566494 209.542213 
L 208.218413 208.480024 
L 208.870331 210.935125 
L 209.52225 215.785949 
L 210.174168 221.977306 
L 210.826086 229.438163 
L 211.477992 242.564043 
L 212.129911 264.320944 
L 212.781829 263.982675 
L 213.433748 261.640047 
L 214.085666 261.71534 
L 214.737584 262.66922 
L 216.693327 266.100795 
L 217.997164 267.957581 
L 219.301001 269.451738 
L 221.256744 271.238529 
L 223.864417 273.187785 
L 225.168254 273.902446 
L 225.82016 273.999101 
L 226.472078 273.644412 
L 227.123997 272.34353 
L 227.775915 269.098336 
L 228.427834 262.006107 
L 229.079752 247.927548 
L 229.73167 223.344112 
L 231.687413 116.659797 
L 232.339332 92.471098 
L 232.99125 74.482304 
L 233.643168 63.066982 
L 234.295087 71.62438 
L 234.947005 121.10719 
L 235.598911 190.264624 
L 236.25083 236.939122 
L 236.902748 258.938441 
L 237.554666 268.204706 
L 238.206585 272.012823 
L 238.858503 273.523768 
L 239.510422 274.037923 
L 240.16234 274.099151 
L 240.814246 273.940452 
L 242.118083 273.298578 
L 243.42192 272.328715 
L 244.073838 271.677072 
L 244.725756 270.854199 
L 245.377662 269.782928 
L 246.029581 268.344851 
L 246.681499 266.360231 
L 247.333418 263.567838 
L 247.985336 259.638012 
L 248.637254 254.325752 
L 249.941091 242.383936 
L 250.592997 240.654563 
L 251.244916 244.365051 
L 253.200671 265.96279 
L 253.852589 269.442687 
L 254.504508 267.664847 
L 256.46025 270.148161 
L 257.764087 271.135792 
L 259.067924 271.775687 
L 261.023667 272.450007 
L 263.63134 273.310984 
L 265.587095 274.021923 
L 266.239014 273.851835 
L 266.890932 272.735589 
L 267.542826 269.553385 
L 268.194744 262.966805 
L 268.846663 252.768257 
L 270.802418 216.238946 
L 271.454336 198.944647 
L 272.106255 173.396392 
L 272.758173 162.269961 
L 274.06201 249.602616 
L 274.713928 265.00046 
L 275.365847 270.549248 
L 276.017765 272.716547 
L 276.669683 273.621323 
L 277.321577 274.004686 
L 277.973495 274.152798 
L 279.277332 274.156846 
L 281.233087 273.875933 
L 283.188843 273.324928 
L 284.492679 272.691356 
L 285.796516 271.64918 
L 286.448435 270.888822 
L 287.100328 269.918342 
L 289.056083 266.166415 
L 289.708002 265.574477 
L 290.35992 266.271759 
L 291.011839 268.545176 
L 291.663757 271.683427 
L 292.315675 273.35321 
L 292.967594 266.143223 
L 293.619512 238.770147 
L 294.271431 238.987522 
L 294.923349 252.918785 
L 295.575267 260.922125 
L 296.227186 265.309179 
L 296.879079 267.918963 
L 297.530998 269.590489 
L 298.182916 270.724636 
L 298.834835 271.529953 
L 300.138671 272.573676 
L 301.442508 273.204994 
L 303.398263 273.781306 
L 305.354019 274.104082 
L 306.657831 274.105328 
L 307.309749 273.93607 
L 307.961667 273.512596 
L 308.613586 272.593738 
L 309.265504 270.698257 
L 309.917423 266.887449 
L 310.569341 259.464797 
L 311.221259 245.908387 
L 311.873178 223.958877 
L 313.177015 159.317808 
L 313.828933 121.955561 
L 314.480851 93.030875 
L 315.13277 124.249701 
L 315.784688 204.345125 
L 316.436607 249.28192 
L 317.0885 265.455709 
L 317.740419 271.068866 
L 318.392337 273.096366 
L 319.044255 273.836486 
L 319.696174 274.082943 
L 321.000011 274.093755 
L 323.607684 273.707149 
L 325.563439 273.223805 
L 326.867251 272.694024 
L 328.171088 271.83357 
L 329.474925 270.441661 
L 330.778762 268.792253 
L 331.43068 268.578721 
L 332.082598 269.447122 
L 333.386435 273.223433 
L 334.038354 272.342649 
L 334.690272 266.247851 
L 335.34219 267.986534 
L 335.994109 270.30724 
L 336.646002 271.576777 
L 337.297921 272.307042 
L 337.949839 272.765756 
L 339.253676 273.298218 
L 341.209431 273.700488 
L 344.469023 274.040502 
L 347.076672 274.147137 
L 347.72859 274.043538 
L 348.380509 273.737046 
L 349.032427 272.995202 
L 349.684346 271.376494 
L 350.336264 268.180307 
L 350.988182 262.64977 
L 351.640101 254.518075 
L 352.292019 244.026748 
L 352.943938 230.485394 
L 353.595856 212.51544 
L 354.247774 206.828767 
L 354.899693 240.436099 
L 355.551611 263.441894 
L 356.203505 270.814056 
L 356.855423 273.094202 
L 357.507342 273.844906 
L 358.15926 274.093915 
L 359.463097 274.169615 
L 364.678444 273.919652 
L 369.893766 273.686615 
L 371.197603 273.923179 
L 371.849522 274.070885 
L 372.50144 273.883851 
L 373.153358 272.352191 
L 373.805277 266.713384 
L 374.457195 250.130835 
L 375.109114 229.718534 
L 376.412926 259.865667 
L 377.064844 266.664376 
L 377.716762 269.842185 
L 378.368681 271.493006 
L 379.020599 272.430902 
L 379.672518 273.002317 
L 380.976354 273.616922 
L 381.628273 273.788524 
L 381.628273 273.788524 
" clip-path="url(#p71b9c5bcfe)" style="fill: none; stroke: #2ca02c; stroke-width: 1.2; stroke-linecap: round"/>
   </g>
   <g id="line2d_16">
    <path d="M 56.973727 274.19843 
L 59.581394 274.049853 
L 62.840978 273.603426 
L 64.796728 273.43074 
L 66.100562 273.588591 
L 68.708229 274.170617 
L 70.012063 274.182562 
L 71.967812 273.89123 
L 74.575479 273.200737 
L 75.879313 272.698745 
L 77.835063 271.731397 
L 78.48698 271.719931 
L 79.138897 272.244902 
L 80.442731 273.748718 
L 81.094648 274.087676 
L 81.746564 274.19907 
L 83.050397 274.093343 
L 84.35423 273.777968 
L 85.658064 273.291437 
L 86.961898 272.600206 
L 88.917647 271.464349 
L 89.569565 271.258848 
L 90.873399 271.191342 
L 92.177233 271.14405 
L 92.829148 270.974679 
L 93.481066 270.938927 
L 94.132982 272.733685 
L 94.7849 274.186099 
L 98.696398 273.091644 
L 102.607899 272.508528 
L 103.259817 272.581857 
L 104.563651 273.054379 
L 106.5194 273.803042 
L 107.823234 274.162009 
L 108.475152 274.156854 
L 109.127064 273.535626 
L 109.778983 272.301573 
L 110.430901 271.890495 
L 114.342399 273.054142 
L 120.861571 274.200613 
L 122.165401 274.035696 
L 123.469238 273.523726 
L 124.12115 273.122373 
L 124.773069 272.580168 
L 125.424987 271.819833 
L 126.076906 270.695991 
L 126.728818 268.92879 
L 127.380736 265.959237 
L 128.032655 260.705417 
L 129.336485 243.256848 
L 129.988403 247.255642 
L 130.640322 257.943107 
L 131.292234 265.126178 
L 131.944152 268.978263 
L 132.596071 271.072458 
L 133.247989 272.277131 
L 133.899901 273.007553 
L 134.55182 273.468005 
L 135.855657 273.957594 
L 137.159487 274.153505 
L 139.115236 274.189685 
L 141.722904 273.974485 
L 143.678653 273.631823 
L 145.634408 273.058257 
L 147.590157 272.316658 
L 148.242075 272.18968 
L 148.893987 272.24536 
L 149.545906 272.510166 
L 151.501655 273.71952 
L 152.805492 274.146538 
L 153.457404 274.200858 
L 154.109322 274.142997 
L 156.71699 273.539114 
L 160.628494 274.004503 
L 165.19191 274.200013 
L 166.495747 274.164821 
L 167.147653 274.048361 
L 167.799571 273.773269 
L 168.45149 273.237785 
L 169.103408 272.388142 
L 171.059163 269.20236 
L 171.711069 267.745266 
L 172.362988 264.239997 
L 173.014906 251.170334 
L 173.666825 252.20983 
L 174.318743 270.980657 
L 174.970661 273.533608 
L 175.62258 274.04161 
L 176.926404 274.201353 
L 180.185996 274.117168 
L 182.793657 273.896854 
L 184.097494 273.61739 
L 186.053249 272.996415 
L 186.705155 272.981631 
L 188.008992 273.332213 
L 190.616666 274.129696 
L 191.268584 274.105731 
L 192.572409 273.871411 
L 196.483906 273.960671 
L 204.958833 274.083648 
L 205.610752 273.85892 
L 206.262658 273.444013 
L 206.914576 272.803467 
L 207.566494 271.925975 
L 208.218413 270.789157 
L 208.870331 269.288728 
L 209.52225 267.104872 
L 210.174168 263.347944 
L 210.826086 255.374744 
L 211.477992 236.681829 
L 212.129911 231.302767 
L 212.781829 258.693097 
L 213.433748 268.896582 
L 214.085666 272.040053 
L 214.737584 273.209231 
L 215.389503 273.714419 
L 216.693327 274.078717 
L 218.649082 274.195008 
L 223.864417 274.144546 
L 227.123997 273.968885 
L 230.383589 273.690375 
L 233.643168 274.179624 
L 235.598911 273.90877 
L 241.466164 274.171164 
L 247.333418 274.151398 
L 247.985336 274.062521 
L 248.637254 273.861483 
L 249.289173 273.444568 
L 249.941091 272.696192 
L 251.244916 270.353916 
L 251.896834 268.889434 
L 252.548752 266.304153 
L 253.200671 259.028078 
L 253.852589 258.054494 
L 254.504508 271.230743 
L 255.156414 273.572964 
L 255.808332 274.040463 
L 257.112169 274.195038 
L 262.327503 274.153317 
L 266.239014 273.985461 
L 268.846663 273.820585 
L 272.106255 274.175187 
L 273.410091 273.893745 
L 285.796516 274.198275 
L 287.752247 274.095887 
L 288.404165 273.947081 
L 289.056083 273.649744 
L 289.708002 273.109316 
L 290.35992 272.225238 
L 291.011839 270.907486 
L 291.663757 268.978966 
L 292.315675 265.813011 
L 292.967594 259.956597 
L 293.619512 256.714759 
L 294.271431 266.873778 
L 294.923349 271.954743 
L 295.575267 273.421388 
L 296.227186 273.898091 
L 297.530998 274.149682 
L 300.79059 274.203702 
L 313.828933 274.081419 
L 315.13277 273.702796 
L 318.392337 274.152392 
L 324.259603 274.203813 
L 328.823006 274.148211 
L 330.126843 273.974623 
L 330.778762 273.750516 
L 331.43068 273.351328 
L 332.082598 272.730811 
L 332.734517 271.861775 
L 333.386435 270.513151 
L 334.038354 268.191004 
L 334.690272 269.642293 
L 335.34219 273.132311 
L 335.994109 273.958539 
L 336.646002 274.141515 
L 338.601758 274.200751 
L 352.943938 274.157948 
L 353.595856 274.010856 
L 354.247774 273.717761 
L 354.899693 273.707503 
L 356.203505 274.017201 
L 358.15926 274.141468 
L 365.330362 274.200505 
L 370.545685 274.127469 
L 371.849522 273.900799 
L 372.50144 273.634249 
L 373.153358 273.173567 
L 373.805277 272.375727 
L 374.457195 271.064868 
L 375.109114 270.779354 
L 375.761007 272.798176 
L 376.412926 273.768892 
L 377.064844 274.058636 
L 378.368681 274.184679 
L 381.628273 274.204078 
L 381.628273 274.204078 
" clip-path="url(#p71b9c5bcfe)" style="fill: none; stroke: #d62728; stroke-width: 1.2; stroke-linecap: round"/>
   </g>
   <g id="line2d_17">
    <path d="M 56.973727 274.201766 
L 57.625644 274.16007 
L 58.277561 273.974429 
L 58.929478 273.455757 
L 59.581394 272.311339 
L 60.233311 270.119491 
L 60.885228 266.302219 
L 61.537145 260.104234 
L 62.189061 250.598657 
L 62.840978 236.757923 
L 63.492895 217.661302 
L 64.144811 192.935483 
L 66.100562 104.100736 
L 66.752479 84.895897 
L 67.404395 78.180512 
L 68.056312 83.724668 
L 68.708229 98.150117 
L 71.315896 172.46518 
L 72.619729 198.628989 
L 73.923562 218.418829 
L 75.227396 237.526391 
L 77.183147 271.333825 
L 77.835063 272.783756 
L 78.48698 249.630686 
L 79.790814 133.137135 
L 80.442731 96.568533 
L 81.094648 84.766958 
L 81.746564 86.554628 
L 82.398481 94.284353 
L 83.702315 115.317712 
L 85.658064 148.008009 
L 86.309982 157.382764 
L 86.961898 164.717739 
L 87.613813 168.80463 
L 88.265731 168.428322 
L 88.917647 162.977825 
L 89.569565 153.16065 
L 90.873399 129.759565 
L 91.525314 121.582396 
L 92.177233 119.609225 
L 92.829148 131.543861 
L 93.481066 184.423269 
L 94.132982 272.584293 
L 95.436815 150.05615 
L 96.088734 123.799202 
L 96.740649 110.266795 
L 97.392567 101.891093 
L 98.696398 90.677894 
L 100.000232 80.636658 
L 101.304065 68.183313 
L 102.607899 54.90825 
L 103.259817 51.959413 
L 103.911733 53.637791 
L 104.563651 58.663482 
L 105.867485 71.031493 
L 106.5194 79.359309 
L 107.171318 93.406922 
L 107.823234 120.408745 
L 108.475152 173.447333 
L 109.127064 251.791153 
L 109.778983 258.731151 
L 110.430901 176.466542 
L 111.08282 114.12796 
L 111.734732 81.093039 
L 112.38665 63.162003 
L 113.038569 52.536789 
L 113.690487 45.69963 
L 114.342399 41.026808 
L 114.994318 37.75135 
L 115.646236 35.546782 
L 116.298154 34.368548 
L 116.950067 34.415265 
L 117.601985 36.14395 
L 118.253903 40.285451 
L 118.905816 47.763339 
L 119.557734 59.379124 
L 120.209652 75.221729 
L 122.165401 132.049265 
L 122.81732 147.321802 
L 123.469238 159.492852 
L 124.773069 177.7609 
L 126.076906 196.249694 
L 126.728818 209.269929 
L 127.380736 227.043121 
L 128.032655 249.587468 
L 128.684573 264.987138 
L 129.336485 225.649947 
L 129.988403 122.252775 
L 130.640322 58.041637 
L 131.292234 41.147169 
L 131.944152 40.797356 
L 133.899901 50.925843 
L 134.55182 53.098036 
L 135.203738 54.517369 
L 135.855657 55.28731 
L 136.507569 55.505836 
L 137.159487 55.255944 
L 137.811406 54.604866 
L 138.463324 53.606713 
L 139.115236 52.305032 
L 140.419073 48.926424 
L 141.722904 44.705052 
L 144.330571 35.483012 
L 144.982489 34.058475 
L 145.634408 34.038223 
L 146.28632 36.679308 
L 146.938238 43.966607 
L 147.590157 58.528648 
L 148.242075 82.638399 
L 149.545906 153.667626 
L 150.197824 188.688295 
L 150.849736 216.251007 
L 151.501655 235.954292 
L 152.153573 250.00528 
L 152.805492 260.895698 
L 153.457404 269.67684 
L 154.109322 273.61852 
L 154.761241 262.528302 
L 155.413159 221.619727 
L 156.71699 96.879485 
L 157.368908 61.285757 
L 158.020826 43.95336 
L 158.672739 36.460336 
L 159.324657 33.695184 
L 159.976575 33.171992 
L 160.628494 33.756288 
L 161.280412 34.946602 
L 161.932318 36.540553 
L 162.584237 38.488772 
L 163.236155 40.835194 
L 163.888073 43.699331 
L 164.539992 47.281747 
L 165.19191 51.88277 
L 165.843829 57.919574 
L 166.495747 65.896164 
L 167.147653 76.211075 
L 168.45149 101.20418 
L 169.103408 110.18688 
L 169.755327 111.723245 
L 170.407245 105.62149 
L 171.059163 96.230093 
L 171.711069 89.697024 
L 172.362988 94.778615 
L 173.014906 149.209653 
L 173.666825 174.44612 
L 174.318743 76.907747 
L 174.970661 57.339559 
L 175.62258 50.937303 
L 176.274498 47.832111 
L 176.926404 45.938927 
L 177.578323 44.599479 
L 178.882159 42.626914 
L 180.837915 39.996942 
L 182.141739 37.787747 
L 183.445576 35.133761 
L 184.097494 34.415381 
L 184.749413 35.778382 
L 185.401331 41.747422 
L 186.053249 54.241791 
L 188.660911 120.457596 
L 189.312829 144.442343 
L 189.964747 186.103823 
L 190.616666 244.866472 
L 191.268584 235.642468 
L 191.92049 138.79864 
L 192.572409 78.884679 
L 193.224327 53.887538 
L 193.876245 43.068952 
L 194.528164 37.902314 
L 195.180082 35.221157 
L 195.832 33.756605 
L 196.483906 32.954447 
L 197.135825 32.557412 
L 197.787743 32.446088 
L 198.439662 32.574248 
L 199.09158 32.943838 
L 199.743498 33.598477 
L 200.395417 34.629755 
L 201.047335 36.194271 
L 201.699241 38.541631 
L 202.35116 42.052766 
L 203.003078 47.274612 
L 203.654996 54.908408 
L 204.306915 65.658107 
L 204.958833 79.812994 
L 206.914576 128.498778 
L 207.566494 138.270864 
L 208.218413 142.549721 
L 208.870331 142.48056 
L 209.52225 140.389449 
L 210.174168 139.441733 
L 210.826086 143.781102 
L 211.477992 152.071512 
L 212.781829 54.291608 
L 213.433748 46.881901 
L 214.085666 45.589315 
L 215.389503 43.780471 
L 217.345246 40.885732 
L 219.301001 38.453283 
L 221.256744 36.414051 
L 223.864417 33.960917 
L 225.168254 32.968602 
L 225.82016 32.753464 
L 226.472078 33.037691 
L 227.123997 34.378451 
L 227.775915 37.902012 
L 228.427834 45.758485 
L 229.079752 61.499597 
L 229.73167 89.109139 
L 231.687413 208.922934 
L 232.339332 235.773288 
L 232.99125 255.474181 
L 233.643168 267.692869 
L 234.295087 257.650841 
L 234.947005 202.316228 
L 235.598911 125.471857 
L 236.25083 73.749826 
L 236.902748 49.409399 
L 237.554666 39.165581 
L 238.206585 34.956288 
L 238.858503 33.285017 
L 239.510422 32.714502 
L 240.16234 32.643063 
L 240.814246 32.811699 
L 242.118083 33.490483 
L 243.42192 34.493522 
L 244.073838 35.158943 
L 244.725756 35.995869 
L 245.377662 37.084358 
L 246.029581 38.546863 
L 246.681499 40.568092 
L 247.333418 43.416041 
L 247.985336 47.431025 
L 248.637254 52.881745 
L 249.941091 65.647988 
L 250.592997 68.610547 
L 251.244916 67.319994 
L 251.896834 64.890602 
L 252.548752 68.230507 
L 253.852589 126.18992 
L 254.504508 64.457962 
L 255.156414 47.194971 
L 255.808332 41.617056 
L 256.46025 39.082264 
L 257.112169 37.652236 
L 257.764087 36.720116 
L 259.067924 35.514479 
L 260.371748 34.678779 
L 263.63134 33.00866 
L 264.935177 32.565541 
L 265.587095 32.737551 
L 266.239014 33.756461 
L 266.890932 36.703626 
L 267.542826 43.425569 
L 268.194744 55.849753 
L 269.498581 93.574334 
L 270.802418 132.563665 
L 271.454336 160.253878 
L 272.106255 201.544975 
L 272.758173 218.536164 
L 274.06201 72.888309 
L 274.713928 47.49442 
L 275.365847 38.355207 
L 276.017765 34.775904 
L 276.669683 33.269334 
L 277.321577 32.620692 
L 277.973495 32.362685 
L 279.277332 32.345503 
L 280.581169 32.626875 
L 281.885006 33.103018 
L 283.188843 33.815128 
L 284.492679 34.916634 
L 285.144598 35.707952 
L 285.796516 36.744779 
L 286.448435 38.121099 
L 287.100328 39.954708 
L 287.752247 42.36552 
L 289.056083 48.899944 
L 289.708002 52.267496 
L 290.35992 54.527387 
L 291.011839 54.940783 
L 291.663757 54.123 
L 292.315675 55.107733 
L 292.967594 65.863933 
L 293.619512 87.79744 
L 294.923349 54.449462 
L 295.575267 45.903106 
L 296.227186 41.508197 
L 296.879079 38.951596 
L 297.530998 37.322848 
L 298.182916 36.214769 
L 298.834835 35.421966 
L 300.138671 34.374068 
L 301.442508 33.708777 
L 303.398263 33.035356 
L 305.354019 32.570918 
L 306.657831 32.466311 
L 307.309749 32.591992 
L 307.961667 32.990109 
L 308.613586 33.923656 
L 309.265504 35.917223 
L 309.917423 39.993483 
L 310.569341 47.998599 
L 311.221259 62.67012 
L 311.873178 86.442151 
L 313.177015 156.290614 
L 313.828933 196.540869 
L 314.480851 227.702981 
L 315.13277 194.166353 
L 315.784688 107.940063 
L 316.436607 59.492033 
L 317.0885 42.01487 
L 317.740419 35.927111 
L 318.392337 33.715105 
L 319.044255 32.898908 
L 319.696174 32.619438 
L 321.000011 32.581051 
L 324.259603 32.98146 
L 326.215358 33.430302 
L 327.51917 34.013329 
L 328.171088 34.46354 
L 328.823006 35.068737 
L 329.474925 35.869842 
L 330.778762 38.112868 
L 331.43068 39.484648 
L 332.082598 41.211747 
L 332.734517 44.549043 
L 333.386435 53.657452 
L 334.038354 79.806781 
L 334.690272 88.8459 
L 335.34219 55.335758 
L 335.994109 42.37512 
L 336.646002 37.794133 
L 337.297921 35.785517 
L 337.949839 34.734895 
L 338.601758 34.105323 
L 339.905594 33.377746 
L 341.86135 32.776326 
L 343.817105 32.417172 
L 345.77286 32.2845 
L 346.424754 32.337661 
L 347.076672 32.502924 
L 347.72859 32.884104 
L 348.380509 33.695155 
L 349.032427 35.36242 
L 349.684346 38.67054 
L 350.336264 44.828945 
L 350.988182 55.097859 
L 351.640101 69.874578 
L 352.292019 88.803276 
L 352.943938 113.428204 
L 353.595856 146.680627 
L 354.247774 158.056921 
L 354.899693 96.270929 
L 355.551611 53.207601 
L 356.203505 39.147202 
L 356.855423 34.673445 
L 357.507342 33.129195 
L 358.15926 32.570356 
L 358.811178 32.376148 
L 360.115015 32.340515 
L 363.374607 32.647445 
L 367.286093 33.244296 
L 369.893766 33.863561 
L 371.197603 34.282925 
L 371.849522 34.639196 
L 372.50144 35.461419 
L 373.153358 37.765722 
L 373.805277 44.402691 
L 375.109114 81.809776 
L 376.412926 47.279325 
L 377.064844 40.16555 
L 377.716762 36.89139 
L 378.368681 35.206137 
L 379.020599 34.255552 
L 379.672518 33.680395 
L 380.976354 33.067631 
L 381.628273 32.897279 
L 381.628273 32.897279 
" clip-path="url(#p71b9c5bcfe)" style="fill: none; stroke: #9467bd; stroke-width: 1.2; stroke-linecap: round"/>
   </g>
   <g id="patch_3">
    <path d="M 40.741 274.2045 
L 40.741 32.36773 
" style="fill: none; stroke: #262626; stroke-linejoin: miter; stroke-linecap: square"/>
   </g>
   <g id="patch_4">
    <path d="M 56.321811 286.3005 
L 381.628273 286.3005 
" style="fill: none; stroke: #262626; stroke-linejoin: miter; stroke-linecap: square"/>
   </g>
   <g id="text_15">
    <!-- Total Sobol Indices for v(t) -->
    <g style="fill: #262626" transform="translate(163.816 14.1885) scale(0.096 -0.096)">
     <defs>
      <path id="ArialMT-54" d="M 1659 0 
L 1659 4041 
L 150 4041 
L 150 4581 
L 3781 4581 
L 3781 4041 
L 2266 4041 
L 2266 0 
L 1659 0 
z
" transform="scale(0.015625)"/>
      <path id="ArialMT-61" d="M 2588 409 
Q 2275 144 1986 34 
Q 1697 -75 1366 -75 
Q 819 -75 525 192 
Q 231 459 231 875 
Q 231 1119 342 1320 
Q 453 1522 633 1644 
Q 813 1766 1038 1828 
Q 1203 1872 1538 1913 
Q 2219 1994 2541 2106 
Q 2544 2222 2544 2253 
Q 2544 2597 2384 2738 
Q 2169 2928 1744 2928 
Q 1347 2928 1158 2789 
Q 969 2650 878 2297 
L 328 2372 
Q 403 2725 575 2942 
Q 747 3159 1072 3276 
Q 1397 3394 1825 3394 
Q 2250 3394 2515 3294 
Q 2781 3194 2906 3042 
Q 3031 2891 3081 2659 
Q 3109 2516 3109 2141 
L 3109 1391 
Q 3109 606 3145 398 
Q 3181 191 3288 0 
L 2700 0 
Q 2613 175 2588 409 
z
M 2541 1666 
Q 2234 1541 1622 1453 
Q 1275 1403 1131 1340 
Q 988 1278 909 1158 
Q 831 1038 831 891 
Q 831 666 1001 516 
Q 1172 366 1500 366 
Q 1825 366 2078 508 
Q 2331 650 2450 897 
Q 2541 1088 2541 1459 
L 2541 1666 
z
" transform="scale(0.015625)"/>
      <path id="ArialMT-6c" d="M 409 0 
L 409 4581 
L 972 4581 
L 972 0 
L 409 0 
z
" transform="scale(0.015625)"/>
      <path id="ArialMT-62" d="M 941 0 
L 419 0 
L 419 4581 
L 981 4581 
L 981 2947 
Q 1338 3394 1891 3394 
Q 2197 3394 2470 3270 
Q 2744 3147 2920 2923 
Q 3097 2700 3197 2384 
Q 3297 2069 3297 1709 
Q 3297 856 2875 390 
Q 2453 -75 1863 -75 
Q 1275 -75 941 416 
L 941 0 
z
M 934 1684 
Q 934 1088 1097 822 
Q 1363 388 1816 388 
Q 2184 388 2453 708 
Q 2722 1028 2722 1663 
Q 2722 2313 2464 2622 
Q 2206 2931 1841 2931 
Q 1472 2931 1203 2611 
Q 934 2291 934 1684 
z
" transform="scale(0.015625)"/>
     </defs>
     <use xlink:href="#ArialMT-54"/>
     <use xlink:href="#ArialMT-6f" x="49.958984"/>
     <use xlink:href="#ArialMT-74" x="105.574219"/>
     <use xlink:href="#ArialMT-61" x="133.357422"/>
     <use xlink:href="#ArialMT-6c" x="188.972656"/>
     <use xlink:href="#ArialMT-20" x="211.189453"/>
     <use xlink:href="#ArialMT-53" x="238.972656"/>
     <use xlink:href="#ArialMT-6f" x="305.671875"/>
     <use xlink:href="#ArialMT-62" x="361.287109"/>
     <use xlink:href="#ArialMT-6f" x="416.902344"/>
     <use xlink:href="#ArialMT-6c" x="472.517578"/>
     <use xlink:href="#ArialMT-20" x="494.734375"/>
     <use xlink:href="#ArialMT-49" x="522.517578"/>
     <use xlink:href="#ArialMT-6e" x="550.300781"/>
     <use xlink:href="#ArialMT-64" x="605.916016"/>
     <use xlink:href="#ArialMT-69" x="661.53125"/>
     <use xlink:href="#ArialMT-63" x="683.748047"/>
     <use xlink:href="#ArialMT-65" x="733.748047"/>
     <use xlink:href="#ArialMT-73" x="789.363281"/>
     <use xlink:href="#ArialMT-20" x="839.363281"/>
     <use xlink:href="#ArialMT-66" x="867.146484"/>
     <use xlink:href="#ArialMT-6f" x="894.929688"/>
     <use xlink:href="#ArialMT-72" x="950.544922"/>
     <use xlink:href="#ArialMT-20" x="983.845703"/>
     <use xlink:href="#ArialMT-76" x="1011.628906"/>
     <use xlink:href="#ArialMT-28" x="1061.628906"/>
     <use xlink:href="#ArialMT-74" x="1094.929688"/>
     <use xlink:href="#ArialMT-29" x="1122.712891"/>
    </g>
   </g>
   <g id="legend_1">
    <g id="line2d_18">
     <path d="M 335.959875 127.440562 
L 344.759875 127.440562 
L 353.559875 127.440562 
" style="fill: none; stroke: #1f77b4; stroke-width: 1.2; stroke-linecap: round"/>
    </g>
    <g id="text_16">
     <!-- alpha -->
     <g style="fill: #262626" transform="translate(360.599875 130.520562) scale(0.088 -0.088)">
      <defs>
       <path id="ArialMT-70" d="M 422 -1272 
L 422 3319 
L 934 3319 
L 934 2888 
Q 1116 3141 1344 3267 
Q 1572 3394 1897 3394 
Q 2322 3394 2647 3175 
Q 2972 2956 3137 2557 
Q 3303 2159 3303 1684 
Q 3303 1175 3120 767 
Q 2938 359 2589 142 
Q 2241 -75 1856 -75 
Q 1575 -75 1351 44 
Q 1128 163 984 344 
L 984 -1272 
L 422 -1272 
z
M 931 1641 
Q 931 1000 1190 694 
Q 1450 388 1819 388 
Q 2194 388 2461 705 
Q 2728 1022 2728 1688 
Q 2728 2322 2467 2637 
Q 2206 2953 1844 2953 
Q 1484 2953 1207 2617 
Q 931 2281 931 1641 
z
" transform="scale(0.015625)"/>
       <path id="ArialMT-68" d="M 422 0 
L 422 4581 
L 984 4581 
L 984 2938 
Q 1378 3394 1978 3394 
Q 2347 3394 2619 3248 
Q 2891 3103 3008 2847 
Q 3125 2591 3125 2103 
L 3125 0 
L 2563 0 
L 2563 2103 
Q 2563 2525 2380 2717 
Q 2197 2909 1863 2909 
Q 1613 2909 1392 2779 
Q 1172 2650 1078 2428 
Q 984 2206 984 1816 
L 984 0 
L 422 0 
z
" transform="scale(0.015625)"/>
      </defs>
      <use xlink:href="#ArialMT-61"/>
      <use xlink:href="#ArialMT-6c" x="55.615234"/>
      <use xlink:href="#ArialMT-70" x="77.832031"/>
      <use xlink:href="#ArialMT-68" x="133.447266"/>
      <use xlink:href="#ArialMT-61" x="189.0625"/>
     </g>
    </g>
    <g id="line2d_19">
     <path d="M 335.959875 139.888437 
L 344.759875 139.888437 
L 353.559875 139.888437 
" style="fill: none; stroke: #ff7f0e; stroke-width: 1.2; stroke-linecap: round"/>
    </g>
    <g id="text_17">
     <!-- beta -->
     <g style="fill: #262626" transform="translate(360.599875 142.968437) scale(0.088 -0.088)">
      <use xlink:href="#ArialMT-62"/>
      <use xlink:href="#ArialMT-65" x="55.615234"/>
      <use xlink:href="#ArialMT-74" x="111.230469"/>
      <use xlink:href="#ArialMT-61" x="139.013672"/>
     </g>
    </g>
    <g id="line2d_20">
     <path d="M 335.959875 152.336312 
L 344.759875 152.336312 
L 353.559875 152.336312 
" style="fill: none; stroke: #2ca02c; stroke-width: 1.2; stroke-linecap: round"/>
    </g>
    <g id="text_18">
     <!-- gamma -->
     <g style="fill: #262626" transform="translate(360.599875 155.416312) scale(0.088 -0.088)">
      <defs>
       <path id="ArialMT-67" d="M 319 -275 
L 866 -356 
Q 900 -609 1056 -725 
Q 1266 -881 1628 -881 
Q 2019 -881 2231 -725 
Q 2444 -569 2519 -288 
Q 2563 -116 2559 434 
Q 2191 0 1641 0 
Q 956 0 581 494 
Q 206 988 206 1678 
Q 206 2153 378 2554 
Q 550 2956 876 3175 
Q 1203 3394 1644 3394 
Q 2231 3394 2613 2919 
L 2613 3319 
L 3131 3319 
L 3131 450 
Q 3131 -325 2973 -648 
Q 2816 -972 2473 -1159 
Q 2131 -1347 1631 -1347 
Q 1038 -1347 672 -1080 
Q 306 -813 319 -275 
z
M 784 1719 
Q 784 1066 1043 766 
Q 1303 466 1694 466 
Q 2081 466 2343 764 
Q 2606 1063 2606 1700 
Q 2606 2309 2336 2618 
Q 2066 2928 1684 2928 
Q 1309 2928 1046 2623 
Q 784 2319 784 1719 
z
" transform="scale(0.015625)"/>
       <path id="ArialMT-6d" d="M 422 0 
L 422 3319 
L 925 3319 
L 925 2853 
Q 1081 3097 1340 3245 
Q 1600 3394 1931 3394 
Q 2300 3394 2536 3241 
Q 2772 3088 2869 2813 
Q 3263 3394 3894 3394 
Q 4388 3394 4653 3120 
Q 4919 2847 4919 2278 
L 4919 0 
L 4359 0 
L 4359 2091 
Q 4359 2428 4304 2576 
Q 4250 2725 4106 2815 
Q 3963 2906 3769 2906 
Q 3419 2906 3187 2673 
Q 2956 2441 2956 1928 
L 2956 0 
L 2394 0 
L 2394 2156 
Q 2394 2531 2256 2718 
Q 2119 2906 1806 2906 
Q 1569 2906 1367 2781 
Q 1166 2656 1075 2415 
Q 984 2175 984 1722 
L 984 0 
L 422 0 
z
" transform="scale(0.015625)"/>
      </defs>
      <use xlink:href="#ArialMT-67"/>
      <use xlink:href="#ArialMT-61" x="55.615234"/>
      <use xlink:href="#ArialMT-6d" x="111.230469"/>
      <use xlink:href="#ArialMT-6d" x="194.53125"/>
      <use xlink:href="#ArialMT-61" x="277.832031"/>
     </g>
    </g>
    <g id="line2d_21">
     <path d="M 335.959875 164.887312 
L 344.759875 164.887312 
L 353.559875 164.887312 
" style="fill: none; stroke: #d62728; stroke-width: 1.2; stroke-linecap: round"/>
    </g>
    <g id="text_19">
     <!-- delta -->
     <g style="fill: #262626" transform="translate(360.599875 167.967312) scale(0.088 -0.088)">
      <use xlink:href="#ArialMT-64"/>
      <use xlink:href="#ArialMT-65" x="55.615234"/>
      <use xlink:href="#ArialMT-6c" x="111.230469"/>
      <use xlink:href="#ArialMT-74" x="133.447266"/>
      <use xlink:href="#ArialMT-61" x="161.230469"/>
     </g>
    </g>
    <g id="line2d_22">
     <path d="M 335.959875 177.335187 
L 344.759875 177.335187 
L 353.559875 177.335187 
" style="fill: none; stroke: #9467bd; stroke-width: 1.2; stroke-linecap: round"/>
    </g>
    <g id="text_20">
     <!-- omega -->
     <g style="fill: #262626" transform="translate(360.599875 180.415187) scale(0.088 -0.088)">
      <use xlink:href="#ArialMT-6f"/>
      <use xlink:href="#ArialMT-6d" x="55.615234"/>
      <use xlink:href="#ArialMT-65" x="138.916016"/>
      <use xlink:href="#ArialMT-67" x="194.53125"/>
      <use xlink:href="#ArialMT-61" x="250.146484"/>
     </g>
    </g>
   </g>
  </g>
 </g>
 <defs>
  <clipPath id="p71b9c5bcfe">
   <rect x="40.741" y="20.1885" width="357.12" height="266.112"/>
  </clipPath>
 </defs>
</svg>