<?xml version="1.0" encoding="utf-8" standalone="no"?>
<!DOCTYPE svg PUBLIC "-//W3C//DTD SVG 1.1//EN"
  "http://www.w3.org/Graphics/SVG/1.1/DTD/svg11.dtd">
<svg xmlns:xlink="http://www.w3.org/1999/xlink" width="641.664pt" height="286.272pt" viewBox="0 0 641.664 286.272" xmlns="http://www.w3.org/2000/svg" version="1.1">
 <metadata>
  <rdf:RDF xmlns:dc="http://purl.org/dc/elements/1.1/" xmlns:cc="http://creativecommons.org/ns#" xmlns:rdf="http://www.w3.org/1999/02/22-rdf-syntax-ns#">
   <cc:Work>
    <dc:type rdf:resource="http://purl.org/dc/dcmitype/StillImage"/>
    <dc:date>2024-11-18T14:30:42.345988</dc:date>
    <dc:format>image/svg+xml</dc:format>
    <dc:creator>
     <cc:Agent>
      <dc:title>Matplotlib v3.9.2, https://matplotlib.org/</dc:title>
     </cc:Agent>
    </dc:creator>
   </cc:Work>
  </rdf:RDF>
 </metadata>
 <defs>
  <style type="text/css">*{stroke-linejoin: round; stroke-linecap: butt}</style>
 </defs>
 <g id="figure_1">
  <g id="patch_1">
   <path d="M 0 286.272 
L 641.664 286.272 
L 641.664 0 
L 0 0 
z
" style="fill: #ffffff"/>
  </g>
  <g id="axes_1">
   <g id="patch_2">
    <path d="M 52.86375 95.104075 
L 634.464 95.104075 
L 634.464 32.8518 
L 52.86375 32.8518 
z
" style="fill: #ffffff"/>
   </g>
   <g id="matplotlib.axis_1">
    <g id="xtick_1">
     <g id="line2d_1">
      <defs>
       <path id="m7dac908482" d="M 0 0 
L 0 4.8 
" style="stroke: #262626"/>
      </defs>
      <g>
       <use xlink:href="#m7dac908482" x="79.300125" y="95.104075" style="fill: #262626; stroke: #262626"/>
      </g>
     </g>
    </g>
    <g id="xtick_2">
     <g id="line2d_2">
      <g>
       <use xlink:href="#m7dac908482" x="185.151476" y="95.104075" style="fill: #262626; stroke: #262626"/>
      </g>
     </g>
    </g>
    <g id="xtick_3">
     <g id="line2d_3">
      <g>
       <use xlink:href="#m7dac908482" x="291.002828" y="95.104075" style="fill: #262626; stroke: #262626"/>
      </g>
     </g>
    </g>
    <g id="xtick_4">
     <g id="line2d_4">
      <g>
       <use xlink:href="#m7dac908482" x="396.854179" y="95.104075" style="fill: #262626; stroke: #262626"/>
      </g>
     </g>
    </g>
    <g id="xtick_5">
     <g id="line2d_5">
      <g>
       <use xlink:href="#m7dac908482" x="502.70553" y="95.104075" style="fill: #262626; stroke: #262626"/>
      </g>
     </g>
    </g>
    <g id="xtick_6">
     <g id="line2d_6">
      <g>
       <use xlink:href="#m7dac908482" x="608.556882" y="95.104075" style="fill: #262626; stroke: #262626"/>
      </g>
     </g>
    </g>
   </g>
   <g id="matplotlib.axis_2">
    <g id="ytick_1">
     <g id="line2d_7">
      <defs>
       <path id="m0e371d8c81" d="M 0 0 
L -4.8 0 
" style="stroke: #262626"/>
      </defs>
      <g>
       <use xlink:href="#m0e371d8c81" x="52.86375" y="82.72098" style="fill: #262626; stroke: #262626"/>
      </g>
     </g>
     <g id="text_1">
      <!-- −1 -->
      <g style="fill: #262626" transform="translate(34.530375 85.870417) scale(0.088 -0.088)">
       <defs>
        <path id="ArialMT-2212" d="M 3381 1997 
L 356 1997 
L 356 2522 
L 3381 2522 
L 3381 1997 
z
" transform="scale(0.015625)"/>
        <path id="ArialMT-31" d="M 2384 0 
L 1822 0 
L 1822 3584 
Q 1619 3391 1289 3197 
Q 959 3003 697 2906 
L 697 3450 
Q 1169 3672 1522 3987 
Q 1875 4303 2022 4600 
L 2384 4600 
L 2384 0 
z
" transform="scale(0.015625)"/>
       </defs>
       <use xlink:href="#ArialMT-2212"/>
       <use xlink:href="#ArialMT-31" x="58.398438"/>
      </g>
     </g>
    </g>
    <g id="ytick_2">
     <g id="line2d_8">
      <g>
       <use xlink:href="#m0e371d8c81" x="52.86375" y="62.83361" style="fill: #262626; stroke: #262626"/>
      </g>
     </g>
     <g id="text_2">
      <!-- 0 -->
      <g style="fill: #262626" transform="translate(39.670125 65.983047) scale(0.088 -0.088)">
       <defs>
        <path id="ArialMT-30" d="M 266 2259 
Q 266 3072 433 3567 
Q 600 4063 929 4331 
Q 1259 4600 1759 4600 
Q 2128 4600 2406 4451 
Q 2684 4303 2865 4023 
Q 3047 3744 3150 3342 
Q 3253 2941 3253 2259 
Q 3253 1453 3087 958 
Q 2922 463 2592 192 
Q 2263 -78 1759 -78 
Q 1097 -78 719 397 
Q 266 969 266 2259 
z
M 844 2259 
Q 844 1131 1108 757 
Q 1372 384 1759 384 
Q 2147 384 2411 759 
Q 2675 1134 2675 2259 
Q 2675 3391 2411 3762 
Q 2147 4134 1753 4134 
Q 1366 4134 1134 3806 
Q 844 3388 844 2259 
z
" transform="scale(0.015625)"/>
       </defs>
       <use xlink:href="#ArialMT-30"/>
      </g>
     </g>
    </g>
    <g id="ytick_3">
     <g id="line2d_9">
      <g>
       <use xlink:href="#m0e371d8c81" x="52.86375" y="42.94624" style="fill: #262626; stroke: #262626"/>
      </g>
     </g>
     <g id="text_3">
      <!-- 1 -->
      <g style="fill: #262626" transform="translate(39.670125 46.095677) scale(0.088 -0.088)">
       <use xlink:href="#ArialMT-31"/>
      </g>
     </g>
    </g>
    <g id="text_4">
     <!-- $\xi_1$ -->
     <g style="fill: #262626" transform="translate(14.538375 61.961938) scale(0.096 -0.096)">
      <defs>
       <path id="DejaVuSans-Oblique-3be" d="M 2016 397 
Q 2428 394 2628 159 
Q 2844 -88 2772 -463 
Q 2700 -822 2422 -1072 
Q 2119 -1344 1609 -1344 
Q 1656 -1109 1700 -872 
Q 1913 -888 2072 -750 
Q 2194 -641 2216 -525 
Q 2247 -359 2175 -222 
Q 2100 -91 1922 -91 
Q -25 -91 241 1275 
Q 422 2213 1516 2488 
Q 663 2600 822 3413 
Q 941 4028 1678 4284 
L 1028 4284 
L 1141 4863 
L 3606 4863 
L 3494 4284 
Q 1528 4284 1350 3375 
Q 1234 2778 2881 2750 
L 2778 2219 
Q 1009 2288 819 1275 
Q 659 428 2016 397 
z
" transform="scale(0.015625)"/>
       <path id="DejaVuSans-31" d="M 794 531 
L 1825 531 
L 1825 4091 
L 703 3866 
L 703 4441 
L 1819 4666 
L 2450 4666 
L 2450 531 
L 3481 531 
L 3481 0 
L 794 0 
L 794 531 
z
" transform="scale(0.015625)"/>
      </defs>
      <use xlink:href="#DejaVuSans-Oblique-3be" transform="translate(0 0.015625)"/>
      <use xlink:href="#DejaVuSans-31" transform="translate(55.761719 -16.390625) scale(0.7)"/>
     </g>
    </g>
   </g>
   <g id="line2d_10">
    <path d="M 79.300125 53.56927 
L 79.829382 52.821079 
L 80.358639 49.925492 
L 80.887895 51.191895 
L 81.417152 53.043954 
L 81.946409 56.948826 
L 82.475666 56.676362 
L 83.004922 59.154837 
L 83.534179 44.696387 
L 84.063436 42.390792 
L 84.592693 42.390792 
L 85.121949 49.994003 
L 85.651206 47.473541 
L 86.180463 43.305724 
L 86.70972 42.576639 
L 87.238976 42.576639 
L 87.768233 38.587293 
L 88.29749 47.892662 
L 88.826747 48.477151 
L 89.356003 43.20268 
L 89.88526 52.212054 
L 90.414517 57.482514 
L 90.943774 57.865912 
L 91.47303 70.600655 
L 92.002287 65.834581 
L 92.531544 67.165313 
L 93.060801 49.351243 
L 93.590057 48.863033 
L 94.119314 60.307024 
L 94.648571 45.925534 
L 95.177828 52.760074 
L 95.707084 49.65965 
L 96.236341 48.823477 
L 97.294855 62.732106 
L 97.824111 47.837878 
L 98.353368 61.470311 
L 99.411882 47.937819 
L 99.941139 65.757269 
L 100.470395 65.046961 
L 100.999652 46.943474 
L 101.528909 51.011998 
L 102.058166 61.01102 
L 102.587422 57.856365 
L 103.116679 61.49843 
L 103.645936 57.409978 
L 104.175193 61.037037 
L 104.704449 48.767467 
L 105.233706 53.068816 
L 105.762963 72.570325 
L 106.29222 73.523985 
L 106.821476 79.680499 
L 107.350733 74.376859 
L 108.409247 59.98835 
L 108.938503 66.559286 
L 109.46776 62.495813 
L 109.997017 62.086356 
L 110.526274 64.719544 
L 111.05553 58.297984 
L 112.114044 68.442243 
L 112.643301 56.820725 
L 113.172557 56.60306 
L 113.701814 49.587182 
L 114.231071 49.831766 
L 114.760328 49.743739 
L 115.289584 50.272258 
L 115.818841 44.555114 
L 116.348098 51.262101 
L 116.877355 63.48308 
L 117.406611 60.843625 
L 117.935868 49.264683 
L 118.994382 67.478125 
L 119.523639 53.511571 
L 120.052895 52.761761 
L 120.582152 53.056347 
L 121.111409 40.142305 
L 122.169922 40.142305 
L 122.699179 41.686532 
L 123.228436 41.861433 
L 123.757693 41.462268 
L 124.286949 41.462268 
L 124.816206 46.32027 
L 125.345463 46.557084 
L 125.87472 45.803654 
L 126.403976 46.928359 
L 126.933233 54.782171 
L 127.46249 58.316128 
L 127.991747 59.74524 
L 128.521003 59.976995 
L 129.05026 54.064711 
L 129.579517 60.732506 
L 130.108774 65.198137 
L 130.63803 55.569315 
L 131.167287 82.329041 
L 131.696544 75.611333 
L 132.225801 84.157067 
L 132.755057 68.491167 
L 133.284314 72.170575 
L 133.813571 79.564629 
L 134.342828 70.191753 
L 134.872084 64.415443 
L 135.401341 62.329427 
L 135.930598 62.471813 
L 136.459855 58.647685 
L 136.989111 56.491326 
L 137.518368 56.71687 
L 138.047625 50.321866 
L 138.576882 64.855991 
L 139.106139 70.897986 
L 139.635395 83.419868 
L 140.164652 77.691349 
L 140.693909 66.040669 
L 141.223166 68.796637 
L 141.752422 60.693416 
L 142.281679 60.578512 
L 142.810936 59.890231 
L 143.340193 50.507308 
L 143.869449 53.896425 
L 144.398706 49.694447 
L 144.927963 49.949386 
L 145.45722 44.52201 
L 145.986476 54.931779 
L 146.515733 54.688897 
L 147.04499 53.595927 
L 147.574247 58.823858 
L 148.103503 61.559104 
L 149.162017 49.06919 
L 149.691274 52.611045 
L 150.22053 53.581979 
L 150.749787 53.516411 
L 151.808301 51.067476 
L 152.337557 59.924624 
L 152.866814 61.476784 
L 153.925328 74.363729 
L 154.454584 77.726437 
L 154.983841 75.388614 
L 155.513098 85.371622 
L 156.042355 83.705075 
L 156.571611 83.402969 
L 157.100868 70.808353 
L 157.630125 83.788813 
L 158.159382 86.720629 
L 158.688639 80.432325 
L 159.217895 84.193274 
L 159.747152 82.20805 
L 160.276409 76.5154 
L 160.805666 72.351124 
L 161.334922 77.645404 
L 161.864179 75.612091 
L 162.393436 72.647376 
L 162.922693 66.775456 
L 163.451949 67.757883 
L 163.981206 62.737737 
L 164.510463 65.830709 
L 165.03972 51.789143 
L 165.568976 60.908361 
L 166.098233 73.203923 
L 166.62749 64.455016 
L 167.156747 68.229083 
L 167.686003 73.219802 
L 168.21526 65.522457 
L 168.744517 70.848255 
L 169.273774 66.126759 
L 169.80303 68.827962 
L 170.332287 53.283352 
L 171.390801 73.297046 
L 171.920057 67.377235 
L 172.449314 64.27889 
L 172.978571 47.828389 
L 173.507828 52.481245 
L 174.037084 59.324744 
L 174.566341 59.51119 
L 175.095598 55.697115 
L 175.624855 59.834315 
L 176.154111 68.956262 
L 176.683368 75.660852 
L 177.212625 77.31061 
L 177.741882 61.795625 
L 178.271139 62.632675 
L 178.800395 62.706754 
L 179.329652 51.101252 
L 179.858909 50.390276 
L 180.388166 62.226445 
L 180.917422 71.247405 
L 181.446679 77.305502 
L 181.975936 76.060664 
L 182.505193 67.391632 
L 183.034449 66.757976 
L 183.563706 69.490299 
L 184.092963 65.132468 
L 184.62222 64.541169 
L 185.680733 73.443387 
L 186.20999 71.098413 
L 186.739247 71.219554 
L 187.268503 76.333302 
L 187.79776 72.955037 
L 188.327017 84.270982 
L 188.856274 66.027172 
L 189.38553 68.863308 
L 189.914787 64.425428 
L 190.444044 65.11946 
L 190.973301 64.811554 
L 191.502557 66.68103 
L 192.031814 66.765412 
L 192.561071 64.629701 
L 193.090328 64.856077 
L 193.619584 73.194063 
L 194.148841 70.998596 
L 194.678098 82.59028 
L 195.207355 80.470448 
L 195.736611 66.547219 
L 196.265868 69.087051 
L 196.795125 62.5539 
L 197.324382 76.265018 
L 197.853639 62.609107 
L 198.382895 56.464617 
L 198.912152 63.194816 
L 199.441409 60.911608 
L 199.970666 76.211444 
L 200.499922 78.968316 
L 201.029179 83.517752 
L 201.558436 80.729431 
L 202.087693 58.236381 
L 202.616949 54.613781 
L 203.146206 55.860765 
L 203.675463 44.820739 
L 204.20472 51.153816 
L 204.733976 44.466592 
L 205.263233 45.977859 
L 205.79249 46.404085 
L 206.321747 59.097445 
L 206.851003 47.311349 
L 207.38026 57.814344 
L 207.909517 78.578844 
L 208.438774 78.176756 
L 208.96803 69.753226 
L 209.497287 68.165977 
L 210.026544 64.958616 
L 210.555801 64.541178 
L 211.085057 55.826703 
L 211.614314 55.110573 
L 212.143571 55.372963 
L 212.672828 63.851225 
L 213.202084 68.473487 
L 214.260598 60.17814 
L 214.789855 60.61085 
L 215.319111 63.70978 
L 215.848368 50.770143 
L 216.377625 56.556033 
L 216.906882 57.599535 
L 217.436139 48.492533 
L 217.965395 42.279009 
L 218.494652 47.044733 
L 219.023909 47.229607 
L 219.553166 44.036896 
L 220.082422 62.428473 
L 220.611679 46.26701 
L 221.140936 42.145696 
L 222.728706 42.145696 
L 223.257963 48.705399 
L 223.78722 44.954554 
L 224.316476 54.65384 
L 224.845733 45.094468 
L 225.37499 64.011662 
L 225.904247 54.244429 
L 226.433503 46.912488 
L 226.96276 48.413552 
L 227.492017 46.864451 
L 228.021274 50.550117 
L 228.55053 53.032673 
L 229.079787 49.413864 
L 229.609044 53.832861 
L 230.138301 55.690458 
L 230.667557 45.912604 
L 231.196814 48.400626 
L 231.726071 57.201638 
L 232.255328 62.192638 
L 233.313841 80.669851 
L 233.843098 58.141869 
L 234.372355 59.725553 
L 234.901611 62.429566 
L 235.430868 53.574106 
L 235.960125 58.374723 
L 236.489382 46.53842 
L 237.018639 46.871558 
L 237.547895 48.858629 
L 238.077152 44.517783 
L 238.606409 46.948826 
L 239.135666 42.631458 
L 239.664922 56.324391 
L 240.194179 75.214138 
L 240.723436 72.069491 
L 241.252693 67.5206 
L 241.781949 67.169132 
L 242.311206 66.236953 
L 242.840463 76.841569 
L 243.898976 60.027815 
L 244.428233 61.85035 
L 244.95749 65.416953 
L 245.486747 59.336621 
L 246.016003 63.621102 
L 246.54526 59.207215 
L 247.074517 62.375353 
L 247.603774 76.082227 
L 248.13303 78.604196 
L 248.662287 75.97404 
L 249.191544 64.874663 
L 249.720801 48.420604 
L 250.250057 45.199427 
L 250.779314 47.318253 
L 251.308571 52.05568 
L 251.837828 61.435572 
L 252.367084 54.517255 
L 252.896341 60.173742 
L 253.425598 48.671339 
L 253.954855 59.602167 
L 254.484111 60.001345 
L 255.013368 58.75891 
L 255.542625 64.409869 
L 256.071882 62.670647 
L 256.601139 58.665633 
L 257.130395 55.808638 
L 257.659652 51.6592 
L 258.188909 50.208844 
L 258.718166 61.750566 
L 259.247422 53.629234 
L 260.305936 54.03181 
L 260.835193 62.975983 
L 261.364449 57.136 
L 261.893706 49.950258 
L 262.422963 53.655933 
L 262.95222 52.937455 
L 263.481476 61.794458 
L 264.010733 55.25502 
L 264.53999 64.591519 
L 265.069247 66.741825 
L 265.598503 52.39941 
L 266.12776 48.356714 
L 266.657017 53.584367 
L 267.186274 56.776601 
L 267.71553 53.304485 
L 268.244787 57.737502 
L 268.774044 49.400352 
L 269.303301 52.767171 
L 270.361814 66.213015 
L 270.891071 65.731732 
L 271.420328 78.238907 
L 271.949584 72.188465 
L 272.478841 76.592143 
L 273.008098 77.38456 
L 273.537355 72.002577 
L 274.066611 69.54011 
L 274.595868 76.449776 
L 275.125125 75.13206 
L 276.183639 77.90038 
L 276.712895 77.960251 
L 277.242152 65.056488 
L 277.771409 61.95762 
L 278.300666 54.403346 
L 278.829922 51.737528 
L 279.359179 49.881164 
L 279.888436 52.697283 
L 280.417693 42.777022 
L 280.946949 45.796016 
L 282.005463 45.741527 
L 282.53472 49.961491 
L 283.063976 44.626062 
L 283.593233 52.971107 
L 284.12249 52.405837 
L 284.651747 54.772691 
L 285.181003 46.293959 
L 285.71026 40.586514 
L 287.29803 40.586514 
L 287.827287 41.40986 
L 288.356544 41.779191 
L 288.885801 40.255464 
L 289.415057 40.255464 
L 289.944314 38.4983 
L 290.473571 38.4983 
L 291.002828 44.516557 
L 291.532084 45.935631 
L 292.061341 55.359211 
L 292.590598 49.464542 
L 293.119855 51.446436 
L 293.649111 55.029559 
L 294.178368 53.308648 
L 294.707625 61.271419 
L 295.236882 44.811033 
L 295.766139 50.88797 
L 296.295395 55.142651 
L 296.824652 43.143871 
L 297.353909 39.119744 
L 297.883166 39.119744 
L 298.412422 38.759956 
L 299.470936 38.716324 
L 300.000193 39.692937 
L 300.529449 38.787262 
L 301.058706 39.169459 
L 301.587963 39.169459 
L 302.11722 40.056695 
L 302.646476 40.519829 
L 303.175733 46.88874 
L 303.70499 47.480087 
L 304.234247 46.059279 
L 304.763503 61.22099 
L 305.29276 63.844803 
L 305.822017 45.683487 
L 306.351274 59.18787 
L 306.88053 52.229494 
L 307.409787 53.250031 
L 307.939044 53.90286 
L 308.468301 48.518557 
L 308.997557 61.637756 
L 309.526814 66.130681 
L 310.056071 68.186371 
L 310.585328 47.057136 
L 311.114584 59.568164 
L 311.643841 52.493662 
L 313.231611 61.506092 
L 313.760868 62.836127 
L 314.290125 74.931304 
L 314.819382 67.237897 
L 315.348639 77.70712 
L 315.877895 64.651169 
L 316.407152 69.016346 
L 316.936409 63.410111 
L 317.994922 66.062714 
L 318.524179 65.643537 
L 319.582693 75.246613 
L 320.111949 77.665342 
L 320.641206 79.286316 
L 321.170463 80.361259 
L 321.69972 68.71503 
L 322.228976 60.937135 
L 322.758233 65.269885 
L 323.28749 65.072531 
L 323.816747 59.036891 
L 324.346003 64.357022 
L 324.87526 55.202233 
L 325.404517 59.128097 
L 325.933774 54.240838 
L 326.46303 55.963369 
L 326.992287 62.341615 
L 327.521544 70.93171 
L 328.050801 70.514172 
L 328.580057 73.364159 
L 329.109314 75.325503 
L 329.638571 69.877535 
L 330.167828 71.316903 
L 330.697084 62.825837 
L 331.226341 60.424407 
L 331.755598 63.15235 
L 332.284855 68.447116 
L 332.814111 71.414902 
L 333.343368 67.441469 
L 333.872625 83.077452 
L 334.401882 82.930906 
L 334.931139 85.173168 
L 335.460395 84.524746 
L 335.989652 82.889136 
L 337.048166 82.889136 
L 337.577422 77.572374 
L 338.106679 68.811245 
L 338.635936 72.580932 
L 339.165193 80.00343 
L 339.694449 77.917133 
L 340.223706 73.912264 
L 340.752963 53.550531 
L 341.811476 56.982473 
L 342.340733 54.869732 
L 342.86999 57.109834 
L 343.399247 56.723964 
L 343.928503 54.45871 
L 344.45776 57.169518 
L 344.987017 47.522928 
L 345.516274 48.842918 
L 346.04553 57.848536 
L 346.574787 59.84232 
L 347.104044 59.459646 
L 347.633301 75.983288 
L 348.691814 51.26909 
L 349.221071 48.451241 
L 349.750328 52.274451 
L 350.279584 50.152413 
L 350.808841 56.712509 
L 351.338098 45.742124 
L 351.867355 47.654193 
L 352.396611 48.358914 
L 352.925868 49.972842 
L 353.455125 42.788098 
L 353.984382 46.413549 
L 354.513639 46.061422 
L 355.042895 44.6639 
L 355.572152 49.371047 
L 356.630666 46.755698 
L 357.159922 46.285318 
L 357.689179 48.109122 
L 358.747693 49.8034 
L 359.276949 59.115588 
L 359.806206 48.137228 
L 360.335463 57.291641 
L 360.86472 59.178828 
L 361.393976 62.030994 
L 361.923233 52.960407 
L 362.45249 75.127934 
L 362.981747 79.700076 
L 363.511003 77.726462 
L 364.04026 80.818254 
L 364.569517 57.669909 
L 365.098774 61.673932 
L 365.62803 71.035241 
L 366.157287 71.420175 
L 366.686544 71.575815 
L 367.215801 55.630366 
L 367.745057 55.568376 
L 368.274314 52.99184 
L 368.803571 51.470453 
L 369.332828 62.254311 
L 369.862084 49.287389 
L 370.391341 56.757387 
L 370.920598 60.980282 
L 371.449855 62.722248 
L 371.979111 61.471888 
L 372.508368 66.955159 
L 373.037625 67.178356 
L 373.566882 64.936737 
L 374.096139 66.927932 
L 374.625395 64.340415 
L 375.154652 60.757591 
L 375.683909 49.090539 
L 376.213166 51.843646 
L 376.742422 74.153515 
L 377.271679 70.480561 
L 377.800936 65.562286 
L 378.330193 64.673223 
L 378.859449 65.083189 
L 379.388706 69.412844 
L 379.917963 72.810753 
L 380.44722 72.321388 
L 380.976476 52.039442 
L 381.505733 52.401586 
L 382.03499 58.335974 
L 382.564247 57.912751 
L 383.093503 63.672348 
L 383.62276 57.130839 
L 384.152017 81.215513 
L 384.681274 76.799842 
L 385.21053 78.226451 
L 385.739787 81.42304 
L 386.269044 85.345882 
L 386.798301 75.710844 
L 387.327557 84.631233 
L 388.386071 71.592253 
L 388.915328 80.783384 
L 389.444584 83.367685 
L 389.973841 83.367685 
L 390.503098 83.143987 
L 391.032355 83.357562 
L 391.561611 87.430865 
L 392.090868 86.862123 
L 392.620125 84.823926 
L 393.149382 88.992802 
L 393.678639 89.517911 
L 394.207895 89.517911 
L 394.737152 88.987373 
L 398.971206 88.999139 
L 399.500463 87.931411 
L 400.02972 87.931411 
L 400.558976 89.142416 
L 401.088233 89.142416 
L 401.61749 90.002568 
L 402.146747 91.698066 
L 402.676003 90.13208 
L 406.380801 90.13208 
L 406.910057 90.556676 
L 412.202625 90.513286 
L 412.731882 89.657511 
L 414.319652 89.657511 
L 414.848909 90.015332 
L 415.378166 91.201025 
L 415.907422 87.903505 
L 416.436679 90.230481 
L 417.495193 90.15294 
L 418.024449 90.367077 
L 422.78776 90.367077 
L 423.317017 90.543717 
L 423.846274 90.966246 
L 428.609584 90.901728 
L 429.138841 91.715 
L 430.726611 91.715 
L 431.255868 90.748302 
L 432.314382 90.748302 
L 432.843639 92.072511 
L 433.372895 91.65773 
L 439.19472 91.761557 
L 439.723976 91.364626 
L 456.130936 91.364626 
L 456.660193 91.594156 
L 457.718706 91.594156 
L 458.247963 91.209275 
L 459.306476 91.209275 
L 459.835733 91.382371 
L 460.894247 91.382371 
L 461.423503 90.71261 
L 461.95276 90.71261 
L 462.482017 90.591673 
L 463.011274 90.591673 
L 463.54053 91.787045 
L 466.186814 91.787045 
L 466.716071 92.274426 
L 467.245328 91.06409 
L 467.774584 91.06409 
L 468.303841 89.279534 
L 468.833098 89.279534 
L 469.362355 91.075234 
L 469.891611 84.926879 
L 470.420868 80.906682 
L 470.950125 86.197831 
L 471.479382 72.045752 
L 472.008639 83.568633 
L 472.537895 66.397389 
L 473.067152 86.505658 
L 473.596409 81.369512 
L 474.654922 80.15297 
L 475.184179 77.979343 
L 475.713436 78.021743 
L 476.242693 72.536869 
L 476.771949 74.531817 
L 477.301206 71.716352 
L 477.830463 81.839171 
L 478.35972 71.111854 
L 478.888976 63.811655 
L 479.418233 67.520885 
L 479.94749 49.082545 
L 480.476747 49.939654 
L 481.006003 40.916448 
L 481.53526 40.213295 
L 482.064517 45.94327 
L 482.593774 46.336864 
L 483.12303 43.136913 
L 484.181544 49.459998 
L 484.710801 61.258819 
L 485.240057 80.217202 
L 485.769314 57.113222 
L 486.298571 47.778118 
L 486.827828 60.664648 
L 487.357084 55.156454 
L 487.886341 55.792746 
L 488.415598 53.736494 
L 488.944855 81.859277 
L 489.474111 75.220497 
L 490.003368 70.725827 
L 490.532625 52.162593 
L 491.061882 47.287018 
L 491.591139 47.577248 
L 492.120395 56.390363 
L 492.649652 55.288075 
L 493.178909 50.912888 
L 493.708166 69.204442 
L 494.237422 70.294524 
L 494.766679 69.764773 
L 495.295936 74.655093 
L 495.825193 75.059097 
L 496.354449 72.13496 
L 496.883706 80.382423 
L 497.412963 73.890581 
L 497.94222 63.2528 
L 498.471476 66.430997 
L 499.000733 65.840691 
L 499.52999 69.86723 
L 500.059247 66.028632 
L 500.588503 71.513975 
L 501.11776 71.808837 
L 501.647017 84.665721 
L 502.176274 85.393847 
L 503.234787 85.393847 
L 503.764044 88.90402 
L 504.293301 82.743919 
L 504.822557 82.134093 
L 506.410328 72.27368 
L 506.939584 58.513358 
L 507.468841 69.513861 
L 507.998098 62.636172 
L 509.056611 41.267228 
L 509.585868 41.971042 
L 510.115125 43.330432 
L 510.644382 40.384454 
L 511.173639 41.367675 
L 511.702895 40.858606 
L 512.232152 40.519351 
L 512.761409 35.681449 
L 513.290666 40.414084 
L 513.819922 38.446909 
L 514.349179 37.052473 
L 514.878436 40.005209 
L 515.936949 40.005209 
L 516.466206 40.596659 
L 516.995463 37.222812 
L 517.52472 36.722857 
L 518.053976 36.722857 
L 518.583233 37.531023 
L 519.641747 37.531023 
L 520.171003 37.066676 
L 520.70026 37.066676 
L 521.229517 37.986439 
L 521.758774 36.07211 
L 522.817287 36.07211 
L 523.346544 37.52613 
L 524.405057 37.52613 
L 524.934314 38.689362 
L 526.522084 38.689362 
L 527.051341 40.081713 
L 527.580598 36.95385 
L 528.109855 36.95385 
L 528.639111 39.809389 
L 529.168368 37.110697 
L 529.697625 39.471956 
L 530.226882 39.471956 
L 530.756139 37.407098 
L 531.285395 37.152301 
L 534.460936 37.152301 
L 534.990193 37.337785 
L 535.519449 37.337785 
L 536.048706 38.88902 
L 536.577963 38.88902 
L 537.10722 37.273912 
L 538.165733 37.273912 
L 538.69499 37.092266 
L 539.224247 38.273187 
L 539.753503 40.289354 
L 540.28276 37.756992 
L 540.812017 39.535673 
L 541.341274 38.449099 
L 541.87053 38.449099 
L 542.399787 36.962344 
L 542.929044 40.272803 
L 545.046071 40.190555 
L 545.575328 38.143226 
L 546.104584 38.143226 
L 546.633841 40.117606 
L 547.163098 40.117606 
L 547.692355 37.817406 
L 548.221611 37.817406 
L 548.750868 41.077389 
L 549.809382 41.077389 
L 550.338639 39.183883 
L 551.926409 39.140643 
L 552.455666 39.803533 
L 552.984922 39.721884 
L 553.514179 39.286219 
L 554.043436 40.26497 
L 554.572693 40.26497 
L 555.101949 40.896747 
L 555.631206 42.337875 
L 556.160463 42.337875 
L 556.68972 38.121261 
L 557.748233 38.121261 
L 558.27749 39.85164 
L 559.336003 39.85164 
L 559.86526 41.395835 
L 560.394517 38.810626 
L 560.923774 40.767664 
L 561.45303 41.17409 
L 561.982287 39.401182 
L 562.511544 39.589463 
L 563.040801 39.589463 
L 563.570057 41.868239 
L 566.745598 41.868239 
L 567.274855 41.214649 
L 567.804111 41.214649 
L 568.333368 42.310741 
L 568.862625 42.167519 
L 569.391882 42.380091 
L 569.921139 42.380091 
L 570.450395 41.969267 
L 570.979652 41.969267 
L 571.508909 42.900966 
L 572.038166 43.549456 
L 572.567422 45.868049 
L 573.096679 46.052995 
L 573.625936 42.686137 
L 574.155193 45.492684 
L 574.684449 49.53959 
L 575.213706 52.052544 
L 575.742963 51.184272 
L 576.27222 68.081577 
L 576.801476 60.411982 
L 577.330733 82.536926 
L 577.85999 72.067663 
L 578.389247 64.507498 
L 578.918503 63.487836 
L 579.44776 79.647753 
L 579.977017 76.689343 
L 580.506274 77.950887 
L 581.03553 73.843226 
L 581.564787 82.437371 
L 582.094044 79.30184 
L 582.623301 73.190987 
L 583.152557 79.973581 
L 583.681814 84.730547 
L 584.740328 84.730547 
L 585.269584 76.871498 
L 585.798841 81.759879 
L 586.328098 73.863345 
L 586.857355 61.414852 
L 587.386611 61.414973 
L 587.915868 59.881359 
L 588.445125 62.081429 
L 588.974382 56.549832 
L 589.503639 54.172244 
L 590.032895 58.841676 
L 590.562152 50.300558 
L 591.091409 70.586592 
L 591.620666 58.527752 
L 592.149922 43.01097 
L 592.679179 43.01097 
L 593.208436 56.551922 
L 593.737693 42.713903 
L 594.266949 42.713903 
L 594.796206 46.033034 
L 595.325463 40.844017 
L 595.85472 41.897556 
L 596.383976 41.897556 
L 596.913233 36.784077 
L 597.44249 39.858803 
L 597.971747 39.858803 
L 598.501003 38.099555 
L 599.03026 40.405706 
L 599.559517 45.415757 
L 600.088774 48.266524 
L 600.61803 49.362689 
L 601.147287 45.082378 
L 601.676544 42.710065 
L 602.205801 42.710065 
L 602.735057 56.006694 
L 603.264314 39.693025 
L 603.793571 39.693025 
L 604.322828 39.148196 
L 605.381341 46.106733 
L 605.910598 40.787697 
L 606.439855 39.838426 
L 606.969111 40.810001 
L 607.498368 44.085512 
L 608.027625 44.441044 
L 608.027625 44.441044 
" clip-path="url(#pca7accd241)" style="fill: none; stroke: #1f77b4; stroke-width: 1.2; stroke-linecap: round"/>
   </g>
   <g id="patch_3">
    <path d="M 52.86375 82.72098 
L 52.86375 42.94624 
" style="fill: none; stroke: #262626; stroke-linejoin: miter; stroke-linecap: square"/>
   </g>
   <g id="patch_4">
    <path d="M 79.300125 95.104075 
L 608.556882 95.104075 
" style="fill: none; stroke: #262626; stroke-linejoin: miter; stroke-linecap: square"/>
   </g>
  </g>
  <g id="axes_2">
   <g id="patch_5">
    <path d="M 52.86375 172.52435 
L 634.464 172.52435 
L 634.464 110.272075 
L 52.86375 110.272075 
z
" style="fill: #ffffff"/>
   </g>
   <g id="matplotlib.axis_3">
    <g id="xtick_7">
     <g id="line2d_11">
      <g>
       <use xlink:href="#m7dac908482" x="79.300125" y="172.52435" style="fill: #262626; stroke: #262626"/>
      </g>
     </g>
    </g>
    <g id="xtick_8">
     <g id="line2d_12">
      <g>
       <use xlink:href="#m7dac908482" x="185.151476" y="172.52435" style="fill: #262626; stroke: #262626"/>
      </g>
     </g>
    </g>
    <g id="xtick_9">
     <g id="line2d_13">
      <g>
       <use xlink:href="#m7dac908482" x="291.002828" y="172.52435" style="fill: #262626; stroke: #262626"/>
      </g>
     </g>
    </g>
    <g id="xtick_10">
     <g id="line2d_14">
      <g>
       <use xlink:href="#m7dac908482" x="396.854179" y="172.52435" style="fill: #262626; stroke: #262626"/>
      </g>
     </g>
    </g>
    <g id="xtick_11">
     <g id="line2d_15">
      <g>
       <use xlink:href="#m7dac908482" x="502.70553" y="172.52435" style="fill: #262626; stroke: #262626"/>
      </g>
     </g>
    </g>
    <g id="xtick_12">
     <g id="line2d_16">
      <g>
       <use xlink:href="#m7dac908482" x="608.556882" y="172.52435" style="fill: #262626; stroke: #262626"/>
      </g>
     </g>
    </g>
   </g>
   <g id="matplotlib.axis_4">
    <g id="ytick_4">
     <g id="line2d_17">
      <g>
       <use xlink:href="#m0e371d8c81" x="52.86375" y="154.123609" style="fill: #262626; stroke: #262626"/>
      </g>
     </g>
     <g id="text_5">
      <!-- −0.5 -->
      <g style="fill: #262626" transform="translate(27.192 157.273046) scale(0.088 -0.088)">
       <defs>
        <path id="ArialMT-2e" d="M 581 0 
L 581 641 
L 1222 641 
L 1222 0 
L 581 0 
z
" transform="scale(0.015625)"/>
        <path id="ArialMT-35" d="M 266 1200 
L 856 1250 
Q 922 819 1161 601 
Q 1400 384 1738 384 
Q 2144 384 2425 690 
Q 2706 997 2706 1503 
Q 2706 1984 2436 2262 
Q 2166 2541 1728 2541 
Q 1456 2541 1237 2417 
Q 1019 2294 894 2097 
L 366 2166 
L 809 4519 
L 3088 4519 
L 3088 3981 
L 1259 3981 
L 1013 2750 
Q 1425 3038 1878 3038 
Q 2478 3038 2890 2622 
Q 3303 2206 3303 1553 
Q 3303 931 2941 478 
Q 2500 -78 1738 -78 
Q 1113 -78 717 272 
Q 322 622 266 1200 
z
" transform="scale(0.015625)"/>
       </defs>
       <use xlink:href="#ArialMT-2212"/>
       <use xlink:href="#ArialMT-30" x="58.398438"/>
       <use xlink:href="#ArialMT-2e" x="114.013672"/>
       <use xlink:href="#ArialMT-35" x="141.796875"/>
      </g>
     </g>
    </g>
    <g id="ytick_5">
     <g id="line2d_18">
      <g>
       <use xlink:href="#m0e371d8c81" x="52.86375" y="124.197804" style="fill: #262626; stroke: #262626"/>
      </g>
     </g>
     <g id="text_6">
      <!-- 0.0 -->
      <g style="fill: #262626" transform="translate(32.33175 127.347242) scale(0.088 -0.088)">
       <use xlink:href="#ArialMT-30"/>
       <use xlink:href="#ArialMT-2e" x="55.615234"/>
       <use xlink:href="#ArialMT-30" x="83.398438"/>
      </g>
     </g>
    </g>
    <g id="text_7">
     <!-- $\xi_2$ -->
     <g style="fill: #262626" transform="translate(7.2 139.382213) scale(0.096 -0.096)">
      <defs>
       <path id="DejaVuSans-32" d="M 1228 531 
L 3431 531 
L 3431 0 
L 469 0 
L 469 531 
Q 828 903 1448 1529 
Q 2069 2156 2228 2338 
Q 2531 2678 2651 2914 
Q 2772 3150 2772 3378 
Q 2772 3750 2511 3984 
Q 2250 4219 1831 4219 
Q 1534 4219 1204 4116 
Q 875 4013 500 3803 
L 500 4441 
Q 881 4594 1212 4672 
Q 1544 4750 1819 4750 
Q 2544 4750 2975 4387 
Q 3406 4025 3406 3419 
Q 3406 3131 3298 2873 
Q 3191 2616 2906 2266 
Q 2828 2175 2409 1742 
Q 1991 1309 1228 531 
z
" transform="scale(0.015625)"/>
      </defs>
      <use xlink:href="#DejaVuSans-Oblique-3be" transform="translate(0 0.015625)"/>
      <use xlink:href="#DejaVuSans-32" transform="translate(55.761719 -16.390625) scale(0.7)"/>
     </g>
    </g>
   </g>
   <g id="line2d_19">
    <path d="M 79.300125 129.485192 
L 79.829382 127.481697 
L 80.358639 126.132663 
L 80.887895 126.88429 
L 81.417152 128.078705 
L 81.946409 132.022759 
L 82.475666 133.055262 
L 83.004922 135.659917 
L 83.534179 120.480315 
L 84.063436 118.754305 
L 84.592693 118.754305 
L 85.121949 124.92672 
L 85.651206 122.909194 
L 86.180463 119.330536 
L 86.70972 119.144006 
L 87.238976 119.144006 
L 87.768233 116.59178 
L 88.29749 123.049184 
L 88.826747 124.006871 
L 89.356003 118.666687 
L 89.88526 128.335689 
L 90.414517 133.528494 
L 90.943774 133.724058 
L 91.47303 148.597095 
L 92.002287 143.687687 
L 92.531544 144.999634 
L 93.060801 124.290011 
L 93.590057 124.677041 
L 94.119314 136.056499 
L 94.648571 120.843904 
L 95.177828 128.020649 
L 95.707084 124.948945 
L 96.236341 123.83754 
L 97.294855 138.885322 
L 97.824111 123.051077 
L 98.353368 137.499146 
L 98.882625 129.665347 
L 99.411882 123.833643 
L 99.941139 142.642607 
L 100.470395 141.868767 
L 100.999652 121.561376 
L 101.528909 126.309141 
L 102.058166 136.949465 
L 102.587422 134.093679 
L 103.116679 138.164222 
L 103.645936 133.58439 
L 104.175193 136.391029 
L 104.704449 123.613002 
L 105.233706 127.784733 
L 105.762963 151.73371 
L 106.29222 153.098319 
L 106.821476 159.275525 
L 107.350733 153.598907 
L 108.409247 136.548118 
L 108.938503 144.634188 
L 109.46776 140.401506 
L 109.997017 138.584112 
L 110.526274 142.375053 
L 111.05553 135.166648 
L 112.114044 146.641965 
L 112.643301 132.59105 
L 113.172557 131.824981 
L 113.701814 125.295893 
L 114.231071 125.227071 
L 114.760328 125.276111 
L 115.289584 125.806438 
L 115.818841 120.252757 
L 116.348098 126.786942 
L 116.877355 140.401458 
L 117.406611 137.245885 
L 117.935868 123.809121 
L 118.994382 145.525891 
L 119.523639 128.289034 
L 120.052895 128.102456 
L 120.582152 128.18544 
L 121.111409 116.887802 
L 122.169922 116.887802 
L 122.699179 117.873212 
L 123.228436 118.045908 
L 124.286949 117.971289 
L 124.816206 121.678836 
L 125.345463 122.154496 
L 125.87472 121.258479 
L 126.403976 122.437044 
L 126.933233 129.955554 
L 127.46249 134.337332 
L 127.991747 135.847343 
L 128.521003 136.236447 
L 129.05026 129.077515 
L 129.579517 137.991099 
L 130.108774 142.442617 
L 130.63803 130.6837 
L 131.167287 162.400287 
L 131.696544 155.193011 
L 132.225801 164.115987 
L 132.755057 147.771092 
L 133.284314 151.486071 
L 133.813571 159.36713 
L 134.342828 148.791881 
L 134.872084 141.907399 
L 135.401341 138.969584 
L 135.930598 139.36146 
L 136.459855 134.801364 
L 136.989111 132.706204 
L 137.518368 132.400407 
L 138.047625 125.476331 
L 138.576882 142.255147 
L 139.106139 150.40958 
L 139.635395 163.355496 
L 140.164652 157.583816 
L 140.693909 144.146725 
L 141.223166 146.71752 
L 141.752422 137.550227 
L 142.810936 136.544646 
L 143.340193 124.741775 
L 143.869449 128.992604 
L 144.398706 125.305404 
L 144.927963 125.843192 
L 145.45722 119.830745 
L 145.986476 130.394645 
L 146.515733 130.079342 
L 147.04499 129.130696 
L 147.574247 134.614084 
L 148.103503 137.894976 
L 149.162017 124.47321 
L 149.691274 127.812062 
L 150.22053 129.307015 
L 150.749787 128.950573 
L 151.279044 127.411215 
L 151.808301 126.488516 
L 152.337557 136.123163 
L 152.866814 138.414004 
L 153.925328 153.818561 
L 154.454584 157.126082 
L 154.983841 155.279885 
L 155.513098 164.139971 
L 156.571611 162.068897 
L 157.100868 150.560509 
L 157.630125 163.910046 
L 158.159382 166.833955 
L 158.688639 159.826986 
L 159.217895 163.289845 
L 159.747152 161.839041 
L 160.805666 152.10978 
L 161.334922 158.089639 
L 161.864179 155.344352 
L 162.393436 150.895743 
L 162.922693 145.154429 
L 163.451949 146.195763 
L 163.981206 140.160339 
L 164.510463 143.510479 
L 165.03972 126.405247 
L 165.568976 137.610075 
L 166.098233 152.275872 
L 166.62749 141.543403 
L 167.686003 151.75706 
L 168.21526 143.670826 
L 168.744517 149.389556 
L 169.273774 144.163727 
L 169.80303 146.684938 
L 170.332287 128.607113 
L 171.390801 152.359807 
L 171.920057 145.49024 
L 172.449314 141.107607 
L 172.978571 122.374899 
L 173.507828 127.660709 
L 174.037084 135.577585 
L 174.566341 135.813405 
L 175.095598 131.70899 
L 175.624855 136.584431 
L 176.683368 155.509157 
L 177.212625 157.323529 
L 177.741882 138.359348 
L 178.271139 139.282857 
L 178.800395 139.462429 
L 179.329652 126.053694 
L 179.858909 125.250117 
L 180.917422 150.488531 
L 181.446679 157.366206 
L 181.975936 155.483389 
L 182.505193 146.082349 
L 183.034449 144.839107 
L 183.563706 147.072468 
L 184.092963 141.646368 
L 184.62222 141.433442 
L 185.151476 147.831827 
L 185.680733 152.23533 
L 186.20999 150.579714 
L 186.739247 150.55651 
L 187.268503 155.722468 
L 187.79776 152.598094 
L 188.327017 163.679562 
L 188.856274 143.832744 
L 189.38553 146.525372 
L 189.914787 142.250159 
L 190.444044 142.809861 
L 190.973301 142.564825 
L 191.502557 144.750797 
L 192.031814 144.220086 
L 192.561071 142.324585 
L 193.090328 142.288483 
L 193.619584 152.318947 
L 194.148841 149.985078 
L 194.678098 162.539592 
L 195.207355 160.317651 
L 195.736611 144.619157 
L 196.265868 147.776915 
L 196.795125 139.964037 
L 197.324382 156.381298 
L 197.853639 139.064334 
L 198.382895 132.33065 
L 198.912152 139.9622 
L 199.441409 137.253174 
L 199.970666 156.515052 
L 200.499922 158.888544 
L 201.029179 163.246878 
L 201.558436 160.436928 
L 202.087693 133.968482 
L 202.616949 130.121539 
L 203.146206 131.63799 
L 203.675463 119.890426 
L 204.20472 126.947429 
L 204.733976 119.582598 
L 205.263233 121.981586 
L 205.79249 122.452111 
L 206.321747 134.587701 
L 206.851003 123.348013 
L 207.38026 134.231277 
L 207.909517 158.918236 
L 208.438774 158.305073 
L 208.96803 148.007234 
L 209.497287 146.438288 
L 210.026544 143.096679 
L 210.555801 142.695532 
L 211.085057 131.850516 
L 211.614314 130.974078 
L 212.143571 131.066597 
L 212.672828 141.402514 
L 213.202084 146.637475 
L 213.731341 142.648988 
L 214.260598 137.256721 
L 214.789855 137.750675 
L 215.319111 140.381407 
L 215.848368 125.70637 
L 216.377625 132.064696 
L 216.906882 133.691353 
L 217.436139 123.833833 
L 217.965395 118.982463 
L 218.494652 122.735812 
L 219.023909 123.322609 
L 219.553166 119.356832 
L 220.082422 138.413859 
L 220.611679 121.490848 
L 221.140936 118.423575 
L 222.728706 118.423575 
L 223.257963 123.805692 
L 223.78722 120.50874 
L 224.316476 129.640468 
L 224.845733 120.62783 
L 225.37499 140.236689 
L 225.904247 129.632558 
L 226.433503 122.597181 
L 226.96276 124.044665 
L 227.492017 122.00409 
L 228.021274 125.652095 
L 228.55053 128.370392 
L 229.079787 125.18887 
L 229.609044 129.489138 
L 230.138301 130.252223 
L 230.667557 121.644121 
L 231.196814 123.764758 
L 231.726071 132.693021 
L 232.255328 139.454208 
L 233.313841 160.633077 
L 233.843098 134.51085 
L 234.372355 136.103352 
L 234.901611 138.580701 
L 235.430868 129.171469 
L 235.960125 133.809177 
L 236.489382 121.229295 
L 237.018639 121.633521 
L 237.547895 124.498721 
L 238.077152 119.529597 
L 238.606409 122.178545 
L 239.135666 119.083797 
L 239.664922 131.330235 
L 240.194179 154.447903 
L 240.723436 150.87503 
L 241.252693 145.357309 
L 241.781949 145.579876 
L 242.311206 144.522925 
L 242.840463 156.965797 
L 243.898976 136.14908 
L 244.95749 142.287123 
L 245.486747 135.828695 
L 246.016003 140.405191 
L 246.54526 135.223578 
L 247.074517 139.506995 
L 247.603774 155.701667 
L 248.13303 158.040052 
L 248.662287 156.188564 
L 249.191544 142.677509 
L 249.720801 123.932952 
L 250.250057 120.272942 
L 251.308571 126.863378 
L 251.837828 137.87632 
L 252.367084 130.73138 
L 252.896341 136.53562 
L 253.425598 123.23557 
L 253.954855 135.467751 
L 254.484111 136.43554 
L 255.013368 134.581043 
L 255.542625 141.865164 
L 256.071882 138.98952 
L 257.659652 126.461878 
L 258.188909 124.996737 
L 258.718166 138.662109 
L 259.247422 128.068046 
L 259.776679 128.344808 
L 260.305936 129.098849 
L 260.835193 140.006313 
L 261.893706 125.25986 
L 262.422963 128.278623 
L 262.95222 128.031254 
L 263.481476 137.79182 
L 264.010733 130.845296 
L 264.53999 141.270961 
L 265.069247 143.583807 
L 265.598503 127.758385 
L 266.12776 123.521311 
L 266.657017 129.439862 
L 267.186274 132.976736 
L 267.71553 128.290874 
L 268.244787 133.700806 
L 268.774044 123.952988 
L 269.303301 127.787512 
L 269.832557 134.935959 
L 270.361814 144.105196 
L 270.891071 143.585575 
L 271.420328 158.11749 
L 271.949584 151.19241 
L 272.478841 155.94823 
L 273.008098 157.102344 
L 273.537355 151.26222 
L 274.066611 147.905052 
L 274.595868 156.523535 
L 275.125125 155.320429 
L 275.654382 157.238449 
L 276.183639 157.784602 
L 276.712895 157.799121 
L 277.242152 142.826004 
L 277.771409 138.3488 
L 278.300666 130.027803 
L 278.829922 125.553242 
L 279.359179 123.418528 
L 279.888436 127.12849 
L 280.417693 118.885302 
L 280.946949 121.754726 
L 281.476206 121.197611 
L 282.005463 121.197611 
L 282.53472 125.021827 
L 283.063976 120.610375 
L 283.593233 127.108598 
L 284.12249 126.924571 
L 284.651747 129.880038 
L 285.181003 121.786822 
L 285.71026 117.611912 
L 287.29803 117.611912 
L 288.356544 119.0001 
L 288.885801 117.563854 
L 289.415057 117.563854 
L 289.944314 115.977586 
L 290.473571 115.977586 
L 291.002828 120.405813 
L 291.532084 121.634796 
L 292.061341 130.963005 
L 292.590598 124.707067 
L 293.119855 126.719947 
L 293.649111 129.596597 
L 294.178368 129.368865 
L 294.707625 136.989147 
L 295.236882 119.96189 
L 295.766139 126.050129 
L 296.295395 129.981405 
L 296.824652 119.014649 
L 297.353909 116.070841 
L 297.883166 116.070841 
L 298.412422 116.510998 
L 298.941679 116.723497 
L 299.470936 116.723497 
L 300.000193 117.176695 
L 300.529449 116.331609 
L 301.058706 116.810351 
L 301.587963 116.810351 
L 302.11722 117.496935 
L 302.646476 117.677773 
L 303.175733 122.37897 
L 303.70499 122.997987 
L 304.234247 121.142925 
L 304.763503 137.070485 
L 305.29276 141.447695 
L 305.822017 119.644443 
L 306.351274 134.430548 
L 306.88053 128.313401 
L 307.409787 127.728483 
L 307.939044 129.619569 
L 308.468301 123.348907 
L 308.997557 138.072165 
L 309.526814 143.730059 
L 310.056071 146.553872 
L 310.585328 122.040571 
L 311.114584 135.144295 
L 311.643841 127.736499 
L 312.702355 135.103639 
L 313.760868 140.047399 
L 314.290125 154.936937 
L 314.819382 145.116978 
L 315.348639 157.833297 
L 315.877895 141.484934 
L 316.407152 146.829282 
L 316.936409 141.017529 
L 317.465666 141.704201 
L 317.994922 143.689617 
L 318.524179 143.395324 
L 319.053436 148.622791 
L 319.582693 155.644566 
L 320.111949 158.117469 
L 321.170463 160.369746 
L 321.69972 147.423402 
L 322.228976 137.766779 
L 322.758233 141.931992 
L 323.28749 141.679766 
L 323.816747 135.500261 
L 324.346003 141.671352 
L 324.87526 130.655773 
L 325.404517 134.705311 
L 325.933774 129.768632 
L 326.46303 131.426943 
L 326.992287 139.215977 
L 327.521544 149.771227 
L 328.050801 149.14501 
L 328.580057 152.720746 
L 329.109314 154.643583 
L 329.638571 148.526858 
L 330.167828 149.759963 
L 330.697084 140.383089 
L 331.226341 137.5418 
L 331.755598 140.286649 
L 332.284855 146.971831 
L 332.814111 149.95576 
L 333.343368 145.004714 
L 333.872625 163.059192 
L 334.401882 162.081362 
L 334.931139 164.214755 
L 335.460395 163.656908 
L 335.989652 161.644184 
L 337.048166 161.644184 
L 337.577422 157.374226 
L 338.106679 147.966637 
L 338.635936 151.386795 
L 339.165193 159.887947 
L 339.694449 157.408245 
L 340.223706 153.390251 
L 340.752963 128.676524 
L 341.811476 132.048254 
L 342.340733 130.07305 
L 342.86999 133.168078 
L 343.399247 132.900034 
L 343.928503 129.419444 
L 344.45776 132.375043 
L 344.987017 122.878646 
L 345.516274 124.433953 
L 346.04553 133.993811 
L 346.574787 135.709457 
L 347.104044 135.120441 
L 347.633301 155.851688 
L 348.691814 126.445814 
L 349.221071 123.653437 
L 349.750328 128.240049 
L 350.279584 125.991326 
L 350.808841 132.257106 
L 351.338098 121.329981 
L 351.867355 122.939445 
L 352.396611 123.651801 
L 352.925868 125.503932 
L 353.455125 118.637056 
L 353.984382 122.639571 
L 355.042895 119.953669 
L 355.572152 125.490489 
L 356.101409 124.578519 
L 356.630666 121.815538 
L 357.159922 122.171764 
L 357.689179 123.839967 
L 358.747693 125.079365 
L 359.276949 134.536965 
L 359.806206 123.76347 
L 360.335463 132.661589 
L 361.393976 138.945818 
L 361.923233 127.913593 
L 362.45249 154.971338 
L 362.981747 160.246142 
L 363.511003 157.80723 
L 364.04026 160.26059 
L 364.569517 133.080445 
L 365.098774 137.864285 
L 365.62803 150.259498 
L 366.157287 150.65455 
L 366.686544 150.274253 
L 367.215801 131.070794 
L 367.745057 130.963715 
L 368.274314 128.357338 
L 368.803571 126.64538 
L 369.332828 138.948435 
L 369.862084 124.320518 
L 370.391341 132.881457 
L 370.920598 137.830062 
L 371.449855 139.552305 
L 371.979111 138.661755 
L 372.508368 144.77093 
L 373.037625 145.172573 
L 373.566882 141.80486 
L 374.096139 145.499694 
L 374.625395 142.428228 
L 375.154652 137.386811 
L 375.683909 124.217923 
L 376.213166 126.736995 
L 376.742422 153.744678 
L 377.800936 143.345545 
L 378.330193 141.508797 
L 378.859449 142.707892 
L 379.917963 151.868494 
L 380.44722 151.504882 
L 380.976476 127.145536 
L 381.505733 127.756502 
L 382.03499 135.073018 
L 382.564247 134.40288 
L 383.093503 140.707242 
L 383.62276 132.843057 
L 384.152017 162.06345 
L 384.681274 157.112683 
L 385.21053 158.196726 
L 386.269044 164.711381 
L 386.798301 155.79056 
L 387.327557 164.459542 
L 388.386071 150.392866 
L 388.915328 160.697087 
L 389.444584 162.845763 
L 389.973841 162.845763 
L 390.503098 161.872699 
L 391.032355 161.957305 
L 391.561611 166.040329 
L 392.090868 165.665213 
L 392.620125 163.719496 
L 393.149382 167.850381 
L 393.678639 167.608484 
L 394.207895 167.608484 
L 394.737152 167.416217 
L 398.971206 167.452751 
L 399.500463 166.115416 
L 400.02972 166.115416 
L 400.558976 167.03859 
L 401.088233 167.03859 
L 401.61749 167.562756 
L 402.146747 169.115321 
L 402.676003 167.465073 
L 406.380801 167.465073 
L 406.910057 168.287741 
L 412.202625 168.321114 
L 412.731882 167.525587 
L 414.319652 167.525587 
L 414.848909 168.046743 
L 415.378166 168.861252 
L 415.907422 166.010673 
L 416.436679 168.30886 
L 416.965936 168.30886 
L 417.495193 168.06463 
L 418.553706 168.155814 
L 422.78776 168.155814 
L 423.317017 168.340846 
L 423.846274 168.707838 
L 426.492557 168.707838 
L 427.021814 168.557731 
L 428.609584 168.557731 
L 429.138841 168.96495 
L 430.726611 168.96495 
L 431.255868 168.105663 
L 432.314382 168.105663 
L 432.843639 169.342488 
L 433.372895 168.737983 
L 439.19472 168.842869 
L 439.723976 168.207377 
L 456.130936 168.207377 
L 456.660193 168.750558 
L 459.306476 168.68805 
L 459.835733 168.955386 
L 460.894247 168.955386 
L 461.423503 167.98432 
L 463.011274 167.997569 
L 463.54053 168.893955 
L 466.186814 168.893955 
L 466.716071 169.694701 
L 467.245328 168.55451 
L 467.774584 168.55451 
L 468.303841 167.134172 
L 468.833098 167.134172 
L 469.362355 169.02494 
L 470.420868 160.116213 
L 470.950125 165.232862 
L 471.479382 152.681448 
L 472.008639 163.631755 
L 472.537895 144.985352 
L 473.067152 165.877012 
L 473.596409 161.406789 
L 474.125666 160.75052 
L 474.654922 159.796685 
L 475.184179 157.285985 
L 475.713436 157.571687 
L 476.242693 151.643209 
L 476.771949 154.05383 
L 477.301206 151.122665 
L 477.830463 161.652556 
L 478.35972 149.629569 
L 478.888976 141.117783 
L 479.418233 145.476017 
L 479.94749 123.765496 
L 480.476747 125.128382 
L 481.006003 117.113756 
L 481.53526 116.482278 
L 482.064517 122.16165 
L 482.593774 122.507427 
L 483.12303 119.433758 
L 483.652287 121.671118 
L 484.181544 125.09617 
L 484.710801 137.425842 
L 485.240057 160.202641 
L 485.769314 132.692134 
L 486.298571 122.653226 
L 486.827828 136.834449 
L 487.357084 130.366465 
L 487.886341 131.018751 
L 488.415598 128.9876 
L 488.944855 161.748528 
L 490.003368 149.5287 
L 490.532625 127.36329 
L 491.061882 122.533282 
L 491.591139 122.865996 
L 492.120395 131.750939 
L 492.649652 130.686373 
L 493.178909 125.622696 
L 493.708166 147.58587 
L 494.237422 148.953494 
L 494.766679 148.532073 
L 495.295936 154.245818 
L 495.825193 153.725322 
L 496.354449 151.143344 
L 496.883706 160.651167 
L 497.412963 152.743627 
L 497.94222 140.914824 
L 498.471476 144.860802 
L 499.000733 143.583889 
L 499.52999 148.450675 
L 500.059247 143.791401 
L 500.588503 150.612492 
L 501.11776 151.172816 
L 501.647017 164.155992 
L 502.176274 164.847725 
L 503.234787 164.847725 
L 503.764044 167.720758 
L 504.293301 162.857985 
L 504.822557 162.081344 
L 505.881071 154.787768 
L 506.410328 150.807984 
L 506.939584 134.46971 
L 507.468841 148.074188 
L 507.998098 139.129983 
L 508.527355 127.104365 
L 509.056611 118.247839 
L 509.585868 118.862101 
L 510.115125 119.802554 
L 510.644382 116.553646 
L 511.173639 117.734442 
L 511.702895 118.199081 
L 512.232152 117.978778 
L 512.761409 113.101724 
L 513.290666 118.647906 
L 513.819922 116.29357 
L 514.349179 114.467679 
L 514.878436 117.346356 
L 515.936949 117.346356 
L 516.466206 118.166235 
L 516.995463 115.117833 
L 517.52472 114.83605 
L 518.053976 114.83605 
L 518.583233 115.727071 
L 519.641747 115.727071 
L 520.171003 115.432829 
L 520.70026 115.432829 
L 521.229517 116.493059 
L 521.758774 114.311306 
L 522.817287 114.311306 
L 523.346544 115.763722 
L 524.405057 115.763722 
L 524.934314 116.742783 
L 526.522084 116.742783 
L 527.051341 117.848304 
L 527.580598 114.685062 
L 528.109855 114.685062 
L 528.639111 117.811625 
L 529.168368 115.079496 
L 529.697625 117.256776 
L 530.226882 117.256776 
L 530.756139 115.528963 
L 531.814652 115.432171 
L 534.460936 115.432171 
L 534.990193 115.225303 
L 535.519449 115.225303 
L 536.048706 117.130533 
L 536.577963 117.130533 
L 537.10722 115.51491 
L 538.165733 115.51491 
L 538.69499 115.117114 
L 539.224247 116.081407 
L 539.753503 118.275832 
L 540.28276 115.514788 
L 540.812017 117.18833 
L 541.341274 116.044828 
L 541.87053 116.044828 
L 542.399787 114.712946 
L 542.929044 118.23042 
L 543.458301 118.23042 
L 543.987557 117.81054 
L 545.046071 117.81054 
L 545.575328 115.604215 
L 546.104584 115.604215 
L 546.633841 117.804812 
L 547.163098 117.804812 
L 547.692355 115.072408 
L 548.221611 115.072408 
L 548.750868 118.555885 
L 549.809382 118.555885 
L 550.338639 116.44334 
L 550.867895 116.44334 
L 551.397152 116.299495 
L 551.926409 116.299495 
L 552.455666 117.172113 
L 552.984922 117.37352 
L 553.514179 116.570312 
L 554.043436 117.552021 
L 554.572693 117.552021 
L 555.101949 117.669972 
L 555.631206 119.690749 
L 556.160463 119.690749 
L 556.68972 115.585831 
L 557.748233 115.585831 
L 558.27749 117.262729 
L 559.336003 117.262729 
L 559.86526 118.690352 
L 560.394517 115.776565 
L 560.923774 118.112569 
L 561.45303 118.383997 
L 561.982287 116.239122 
L 562.511544 116.534431 
L 563.040801 116.534431 
L 563.570057 118.813718 
L 566.745598 118.813718 
L 567.274855 117.943852 
L 567.804111 117.943852 
L 568.333368 119.042503 
L 568.862625 118.774674 
L 569.391882 118.94845 
L 569.921139 118.94845 
L 570.450395 118.681424 
L 570.979652 118.681424 
L 571.508909 118.860375 
L 572.038166 119.592952 
L 572.567422 121.680994 
L 573.096679 121.830093 
L 573.625936 118.717952 
L 575.213706 127.111472 
L 575.742963 126.003237 
L 576.27222 146.008606 
L 576.801476 136.361386 
L 577.330733 162.992139 
L 578.389247 141.632936 
L 578.918503 140.670985 
L 579.44776 159.949221 
L 579.977017 156.527849 
L 580.506274 157.878943 
L 581.03553 153.768815 
L 581.564787 162.226071 
L 582.094044 158.997087 
L 582.623301 152.460441 
L 583.152557 159.616123 
L 583.681814 164.544682 
L 584.740328 164.544682 
L 585.269584 156.44543 
L 585.798841 161.271629 
L 586.328098 153.415724 
L 586.857355 137.819581 
L 587.386611 137.9446 
L 587.915868 136.385986 
L 588.445125 138.695594 
L 588.974382 132.118497 
L 589.503639 130.106272 
L 590.032895 134.830312 
L 590.562152 125.21626 
L 591.091409 149.342047 
L 592.149922 119.05003 
L 592.679179 119.05003 
L 593.208436 131.49714 
L 593.737693 119.207841 
L 594.266949 119.207841 
L 594.796206 121.627738 
L 595.325463 117.627652 
L 595.85472 118.654498 
L 596.383976 118.654498 
L 596.913233 114.009196 
L 597.44249 117.436012 
L 597.971747 117.436012 
L 598.501003 116.052343 
L 599.559517 120.652814 
L 600.088774 124.227194 
L 600.61803 124.82846 
L 601.147287 121.172668 
L 601.676544 118.537968 
L 602.205801 118.537968 
L 602.735057 131.069846 
L 603.264314 117.100132 
L 603.793571 117.100132 
L 604.322828 116.61211 
L 604.852084 118.848265 
L 605.381341 122.293606 
L 605.910598 117.422907 
L 606.439855 116.992239 
L 606.969111 117.893044 
L 607.498368 119.70804 
L 608.027625 119.705991 
L 608.027625 119.705991 
" clip-path="url(#p8e5ca1f6e4)" style="fill: none; stroke: #1f77b4; stroke-width: 1.2; stroke-linecap: round"/>
   </g>
   <g id="patch_6">
    <path d="M 52.86375 154.123609 
L 52.86375 124.197804 
" style="fill: none; stroke: #262626; stroke-linejoin: miter; stroke-linecap: square"/>
   </g>
   <g id="patch_7">
    <path d="M 79.300125 172.52435 
L 608.556882 172.52435 
" style="fill: none; stroke: #262626; stroke-linejoin: miter; stroke-linecap: square"/>
   </g>
  </g>
  <g id="axes_3">
   <g id="patch_8">
    <path d="M 52.86375 249.944625 
L 634.464 249.944625 
L 634.464 187.69235 
L 52.86375 187.69235 
z
" style="fill: #ffffff"/>
   </g>
   <g id="matplotlib.axis_5">
    <g id="xtick_13">
     <g id="line2d_20">
      <g>
       <use xlink:href="#m7dac908482" x="79.300125" y="249.944625" style="fill: #262626; stroke: #262626"/>
      </g>
     </g>
     <g id="text_8">
      <!-- 0 -->
      <g style="fill: #262626" transform="translate(76.853313 264.5435) scale(0.088 -0.088)">
       <use xlink:href="#ArialMT-30"/>
      </g>
     </g>
    </g>
    <g id="xtick_14">
     <g id="line2d_21">
      <g>
       <use xlink:href="#m7dac908482" x="185.151476" y="249.944625" style="fill: #262626; stroke: #262626"/>
      </g>
     </g>
     <g id="text_9">
      <!-- 200 -->
      <g style="fill: #262626" transform="translate(177.811039 264.5435) scale(0.088 -0.088)">
       <defs>
        <path id="ArialMT-32" d="M 3222 541 
L 3222 0 
L 194 0 
Q 188 203 259 391 
Q 375 700 629 1000 
Q 884 1300 1366 1694 
Q 2113 2306 2375 2664 
Q 2638 3022 2638 3341 
Q 2638 3675 2398 3904 
Q 2159 4134 1775 4134 
Q 1369 4134 1125 3890 
Q 881 3647 878 3216 
L 300 3275 
Q 359 3922 746 4261 
Q 1134 4600 1788 4600 
Q 2447 4600 2831 4234 
Q 3216 3869 3216 3328 
Q 3216 3053 3103 2787 
Q 2991 2522 2730 2228 
Q 2469 1934 1863 1422 
Q 1356 997 1212 845 
Q 1069 694 975 541 
L 3222 541 
z
" transform="scale(0.015625)"/>
       </defs>
       <use xlink:href="#ArialMT-32"/>
       <use xlink:href="#ArialMT-30" x="55.615234"/>
       <use xlink:href="#ArialMT-30" x="111.230469"/>
      </g>
     </g>
    </g>
    <g id="xtick_15">
     <g id="line2d_22">
      <g>
       <use xlink:href="#m7dac908482" x="291.002828" y="249.944625" style="fill: #262626; stroke: #262626"/>
      </g>
     </g>
     <g id="text_10">
      <!-- 400 -->
      <g style="fill: #262626" transform="translate(283.66239 264.5435) scale(0.088 -0.088)">
       <defs>
        <path id="ArialMT-34" d="M 2069 0 
L 2069 1097 
L 81 1097 
L 81 1613 
L 2172 4581 
L 2631 4581 
L 2631 1613 
L 3250 1613 
L 3250 1097 
L 2631 1097 
L 2631 0 
L 2069 0 
z
M 2069 1613 
L 2069 3678 
L 634 1613 
L 2069 1613 
z
" transform="scale(0.015625)"/>
       </defs>
       <use xlink:href="#ArialMT-34"/>
       <use xlink:href="#ArialMT-30" x="55.615234"/>
       <use xlink:href="#ArialMT-30" x="111.230469"/>
      </g>
     </g>
    </g>
    <g id="xtick_16">
     <g id="line2d_23">
      <g>
       <use xlink:href="#m7dac908482" x="396.854179" y="249.944625" style="fill: #262626; stroke: #262626"/>
      </g>
     </g>
     <g id="text_11">
      <!-- 600 -->
      <g style="fill: #262626" transform="translate(389.513742 264.5435) scale(0.088 -0.088)">
       <defs>
        <path id="ArialMT-36" d="M 3184 3459 
L 2625 3416 
Q 2550 3747 2413 3897 
Q 2184 4138 1850 4138 
Q 1581 4138 1378 3988 
Q 1113 3794 959 3422 
Q 806 3050 800 2363 
Q 1003 2672 1297 2822 
Q 1591 2972 1913 2972 
Q 2475 2972 2870 2558 
Q 3266 2144 3266 1488 
Q 3266 1056 3080 686 
Q 2894 316 2569 119 
Q 2244 -78 1831 -78 
Q 1128 -78 684 439 
Q 241 956 241 2144 
Q 241 3472 731 4075 
Q 1159 4600 1884 4600 
Q 2425 4600 2770 4297 
Q 3116 3994 3184 3459 
z
M 888 1484 
Q 888 1194 1011 928 
Q 1134 663 1356 523 
Q 1578 384 1822 384 
Q 2178 384 2434 671 
Q 2691 959 2691 1453 
Q 2691 1928 2437 2201 
Q 2184 2475 1800 2475 
Q 1419 2475 1153 2201 
Q 888 1928 888 1484 
z
" transform="scale(0.015625)"/>
       </defs>
       <use xlink:href="#ArialMT-36"/>
       <use xlink:href="#ArialMT-30" x="55.615234"/>
       <use xlink:href="#ArialMT-30" x="111.230469"/>
      </g>
     </g>
    </g>
    <g id="xtick_17">
     <g id="line2d_24">
      <g>
       <use xlink:href="#m7dac908482" x="502.70553" y="249.944625" style="fill: #262626; stroke: #262626"/>
      </g>
     </g>
     <g id="text_12">
      <!-- 800 -->
      <g style="fill: #262626" transform="translate(495.365093 264.5435) scale(0.088 -0.088)">
       <defs>
        <path id="ArialMT-38" d="M 1131 2484 
Q 781 2613 612 2850 
Q 444 3088 444 3419 
Q 444 3919 803 4259 
Q 1163 4600 1759 4600 
Q 2359 4600 2725 4251 
Q 3091 3903 3091 3403 
Q 3091 3084 2923 2848 
Q 2756 2613 2416 2484 
Q 2838 2347 3058 2040 
Q 3278 1734 3278 1309 
Q 3278 722 2862 322 
Q 2447 -78 1769 -78 
Q 1091 -78 675 323 
Q 259 725 259 1325 
Q 259 1772 486 2073 
Q 713 2375 1131 2484 
z
M 1019 3438 
Q 1019 3113 1228 2906 
Q 1438 2700 1772 2700 
Q 2097 2700 2305 2904 
Q 2513 3109 2513 3406 
Q 2513 3716 2298 3927 
Q 2084 4138 1766 4138 
Q 1444 4138 1231 3931 
Q 1019 3725 1019 3438 
z
M 838 1322 
Q 838 1081 952 856 
Q 1066 631 1291 507 
Q 1516 384 1775 384 
Q 2178 384 2440 643 
Q 2703 903 2703 1303 
Q 2703 1709 2433 1975 
Q 2163 2241 1756 2241 
Q 1359 2241 1098 1978 
Q 838 1716 838 1322 
z
" transform="scale(0.015625)"/>
       </defs>
       <use xlink:href="#ArialMT-38"/>
       <use xlink:href="#ArialMT-30" x="55.615234"/>
       <use xlink:href="#ArialMT-30" x="111.230469"/>
      </g>
     </g>
    </g>
    <g id="xtick_18">
     <g id="line2d_25">
      <g>
       <use xlink:href="#m7dac908482" x="608.556882" y="249.944625" style="fill: #262626; stroke: #262626"/>
      </g>
     </g>
     <g id="text_13">
      <!-- 1000 -->
      <g style="fill: #262626" transform="translate(598.769632 264.5435) scale(0.088 -0.088)">
       <use xlink:href="#ArialMT-31"/>
       <use xlink:href="#ArialMT-30" x="55.615234"/>
       <use xlink:href="#ArialMT-30" x="111.230469"/>
       <use xlink:href="#ArialMT-30" x="166.845703"/>
      </g>
     </g>
    </g>
    <g id="text_14">
     <!-- Iteration -->
     <g style="fill: #262626" transform="translate(326.321625 277.164) scale(0.096 -0.096)">
      <defs>
       <path id="ArialMT-49" d="M 597 0 
L 597 4581 
L 1203 4581 
L 1203 0 
L 597 0 
z
" transform="scale(0.015625)"/>
       <path id="ArialMT-74" d="M 1650 503 
L 1731 6 
Q 1494 -44 1306 -44 
Q 1000 -44 831 53 
Q 663 150 594 308 
Q 525 466 525 972 
L 525 2881 
L 113 2881 
L 113 3319 
L 525 3319 
L 525 4141 
L 1084 4478 
L 1084 3319 
L 1650 3319 
L 1650 2881 
L 1084 2881 
L 1084 941 
Q 1084 700 1114 631 
Q 1144 563 1211 522 
Q 1278 481 1403 481 
Q 1497 481 1650 503 
z
" transform="scale(0.015625)"/>
       <path id="ArialMT-65" d="M 2694 1069 
L 3275 997 
Q 3138 488 2766 206 
Q 2394 -75 1816 -75 
Q 1088 -75 661 373 
Q 234 822 234 1631 
Q 234 2469 665 2931 
Q 1097 3394 1784 3394 
Q 2450 3394 2872 2941 
Q 3294 2488 3294 1666 
Q 3294 1616 3291 1516 
L 816 1516 
Q 847 969 1125 678 
Q 1403 388 1819 388 
Q 2128 388 2347 550 
Q 2566 713 2694 1069 
z
M 847 1978 
L 2700 1978 
Q 2663 2397 2488 2606 
Q 2219 2931 1791 2931 
Q 1403 2931 1139 2672 
Q 875 2413 847 1978 
z
" transform="scale(0.015625)"/>
       <path id="ArialMT-72" d="M 416 0 
L 416 3319 
L 922 3319 
L 922 2816 
Q 1116 3169 1280 3281 
Q 1444 3394 1641 3394 
Q 1925 3394 2219 3213 
L 2025 2691 
Q 1819 2813 1613 2813 
Q 1428 2813 1281 2702 
Q 1134 2591 1072 2394 
Q 978 2094 978 1738 
L 978 0 
L 416 0 
z
" transform="scale(0.015625)"/>
       <path id="ArialMT-61" d="M 2588 409 
Q 2275 144 1986 34 
Q 1697 -75 1366 -75 
Q 819 -75 525 192 
Q 231 459 231 875 
Q 231 1119 342 1320 
Q 453 1522 633 1644 
Q 813 1766 1038 1828 
Q 1203 1872 1538 1913 
Q 2219 1994 2541 2106 
Q 2544 2222 2544 2253 
Q 2544 2597 2384 2738 
Q 2169 2928 1744 2928 
Q 1347 2928 1158 2789 
Q 969 2650 878 2297 
L 328 2372 
Q 403 2725 575 2942 
Q 747 3159 1072 3276 
Q 1397 3394 1825 3394 
Q 2250 3394 2515 3294 
Q 2781 3194 2906 3042 
Q 3031 2891 3081 2659 
Q 3109 2516 3109 2141 
L 3109 1391 
Q 3109 606 3145 398 
Q 3181 191 3288 0 
L 2700 0 
Q 2613 175 2588 409 
z
M 2541 1666 
Q 2234 1541 1622 1453 
Q 1275 1403 1131 1340 
Q 988 1278 909 1158 
Q 831 1038 831 891 
Q 831 666 1001 516 
Q 1172 366 1500 366 
Q 1825 366 2078 508 
Q 2331 650 2450 897 
Q 2541 1088 2541 1459 
L 2541 1666 
z
" transform="scale(0.015625)"/>
       <path id="ArialMT-69" d="M 425 3934 
L 425 4581 
L 988 4581 
L 988 3934 
L 425 3934 
z
M 425 0 
L 425 3319 
L 988 3319 
L 988 0 
L 425 0 
z
" transform="scale(0.015625)"/>
       <path id="ArialMT-6f" d="M 213 1659 
Q 213 2581 725 3025 
Q 1153 3394 1769 3394 
Q 2453 3394 2887 2945 
Q 3322 2497 3322 1706 
Q 3322 1066 3130 698 
Q 2938 331 2570 128 
Q 2203 -75 1769 -75 
Q 1072 -75 642 372 
Q 213 819 213 1659 
z
M 791 1659 
Q 791 1022 1069 705 
Q 1347 388 1769 388 
Q 2188 388 2466 706 
Q 2744 1025 2744 1678 
Q 2744 2294 2464 2611 
Q 2184 2928 1769 2928 
Q 1347 2928 1069 2612 
Q 791 2297 791 1659 
z
" transform="scale(0.015625)"/>
       <path id="ArialMT-6e" d="M 422 0 
L 422 3319 
L 928 3319 
L 928 2847 
Q 1294 3394 1984 3394 
Q 2284 3394 2536 3286 
Q 2788 3178 2913 3003 
Q 3038 2828 3088 2588 
Q 3119 2431 3119 2041 
L 3119 0 
L 2556 0 
L 2556 2019 
Q 2556 2363 2490 2533 
Q 2425 2703 2258 2804 
Q 2091 2906 1866 2906 
Q 1506 2906 1245 2678 
Q 984 2450 984 1813 
L 984 0 
L 422 0 
z
" transform="scale(0.015625)"/>
      </defs>
      <use xlink:href="#ArialMT-49"/>
      <use xlink:href="#ArialMT-74" x="27.783203"/>
      <use xlink:href="#ArialMT-65" x="55.566406"/>
      <use xlink:href="#ArialMT-72" x="111.181641"/>
      <use xlink:href="#ArialMT-61" x="144.482422"/>
      <use xlink:href="#ArialMT-74" x="200.097656"/>
      <use xlink:href="#ArialMT-69" x="227.880859"/>
      <use xlink:href="#ArialMT-6f" x="250.097656"/>
      <use xlink:href="#ArialMT-6e" x="305.712891"/>
     </g>
    </g>
   </g>
   <g id="matplotlib.axis_6">
    <g id="ytick_6">
     <g id="line2d_26">
      <g>
       <use xlink:href="#m0e371d8c81" x="52.86375" y="238.741265" style="fill: #262626; stroke: #262626"/>
      </g>
     </g>
     <g id="text_15">
      <!-- −4.0 -->
      <g style="fill: #262626" transform="translate(27.192 241.890703) scale(0.088 -0.088)">
       <use xlink:href="#ArialMT-2212"/>
       <use xlink:href="#ArialMT-34" x="58.398438"/>
       <use xlink:href="#ArialMT-2e" x="114.013672"/>
       <use xlink:href="#ArialMT-30" x="141.796875"/>
      </g>
     </g>
    </g>
    <g id="ytick_7">
     <g id="line2d_27">
      <g>
       <use xlink:href="#m0e371d8c81" x="52.86375" y="217.104734" style="fill: #262626; stroke: #262626"/>
      </g>
     </g>
     <g id="text_16">
      <!-- −3.5 -->
      <g style="fill: #262626" transform="translate(27.192 220.254172) scale(0.088 -0.088)">
       <defs>
        <path id="ArialMT-33" d="M 269 1209 
L 831 1284 
Q 928 806 1161 595 
Q 1394 384 1728 384 
Q 2125 384 2398 659 
Q 2672 934 2672 1341 
Q 2672 1728 2419 1979 
Q 2166 2231 1775 2231 
Q 1616 2231 1378 2169 
L 1441 2663 
Q 1497 2656 1531 2656 
Q 1891 2656 2178 2843 
Q 2466 3031 2466 3422 
Q 2466 3731 2256 3934 
Q 2047 4138 1716 4138 
Q 1388 4138 1169 3931 
Q 950 3725 888 3313 
L 325 3413 
Q 428 3978 793 4289 
Q 1159 4600 1703 4600 
Q 2078 4600 2393 4439 
Q 2709 4278 2876 4000 
Q 3044 3722 3044 3409 
Q 3044 3113 2884 2869 
Q 2725 2625 2413 2481 
Q 2819 2388 3044 2092 
Q 3269 1797 3269 1353 
Q 3269 753 2831 336 
Q 2394 -81 1725 -81 
Q 1122 -81 723 278 
Q 325 638 269 1209 
z
" transform="scale(0.015625)"/>
       </defs>
       <use xlink:href="#ArialMT-2212"/>
       <use xlink:href="#ArialMT-33" x="58.398438"/>
       <use xlink:href="#ArialMT-2e" x="114.013672"/>
       <use xlink:href="#ArialMT-35" x="141.796875"/>
      </g>
     </g>
    </g>
    <g id="ytick_8">
     <g id="line2d_28">
      <g>
       <use xlink:href="#m0e371d8c81" x="52.86375" y="195.468203" style="fill: #262626; stroke: #262626"/>
      </g>
     </g>
     <g id="text_17">
      <!-- −3.0 -->
      <g style="fill: #262626" transform="translate(27.192 198.617641) scale(0.088 -0.088)">
       <use xlink:href="#ArialMT-2212"/>
       <use xlink:href="#ArialMT-33" x="58.398438"/>
       <use xlink:href="#ArialMT-2e" x="114.013672"/>
       <use xlink:href="#ArialMT-30" x="141.796875"/>
      </g>
     </g>
    </g>
    <g id="text_18">
     <!-- $\xi_3$ -->
     <g style="fill: #262626" transform="translate(7.2 216.802487) scale(0.096 -0.096)">
      <defs>
       <path id="DejaVuSans-33" d="M 2597 2516 
Q 3050 2419 3304 2112 
Q 3559 1806 3559 1356 
Q 3559 666 3084 287 
Q 2609 -91 1734 -91 
Q 1441 -91 1130 -33 
Q 819 25 488 141 
L 488 750 
Q 750 597 1062 519 
Q 1375 441 1716 441 
Q 2309 441 2620 675 
Q 2931 909 2931 1356 
Q 2931 1769 2642 2001 
Q 2353 2234 1838 2234 
L 1294 2234 
L 1294 2753 
L 1863 2753 
Q 2328 2753 2575 2939 
Q 2822 3125 2822 3475 
Q 2822 3834 2567 4026 
Q 2313 4219 1838 4219 
Q 1578 4219 1281 4162 
Q 984 4106 628 3988 
L 628 4550 
Q 988 4650 1302 4700 
Q 1616 4750 1894 4750 
Q 2613 4750 3031 4423 
Q 3450 4097 3450 3541 
Q 3450 3153 3228 2886 
Q 3006 2619 2597 2516 
z
" transform="scale(0.015625)"/>
      </defs>
      <use xlink:href="#DejaVuSans-Oblique-3be" transform="translate(0 0.015625)"/>
      <use xlink:href="#DejaVuSans-33" transform="translate(55.761719 -16.390625) scale(0.7)"/>
     </g>
    </g>
   </g>
   <g id="line2d_29">
    <path d="M 79.300125 219.964614 
L 79.829382 217.219399 
L 80.358639 225.450816 
L 80.887895 230.155538 
L 81.417152 220.003881 
L 81.946409 218.406422 
L 82.475666 218.56934 
L 83.004922 231.00739 
L 83.534179 220.787661 
L 84.063436 221.535682 
L 84.592693 221.535682 
L 85.121949 218.732247 
L 85.651206 218.234663 
L 86.180463 211.479293 
L 86.70972 209.138921 
L 87.238976 209.138921 
L 87.768233 204.578142 
L 88.29749 220.972203 
L 88.826747 219.849548 
L 89.356003 217.79565 
L 89.88526 220.251554 
L 90.414517 220.642809 
L 90.943774 220.512195 
L 91.47303 219.185941 
L 92.002287 220.6692 
L 92.531544 218.768831 
L 93.060801 210.062115 
L 93.590057 214.830752 
L 94.119314 200.377607 
L 94.648571 203.036097 
L 95.177828 207.999933 
L 95.707084 234.207962 
L 96.236341 233.003595 
L 96.765598 233.998318 
L 97.294855 234.278613 
L 97.824111 226.687733 
L 98.353368 221.633406 
L 98.882625 233.430713 
L 99.411882 235.010436 
L 99.941139 213.622166 
L 100.470395 214.047973 
L 100.999652 224.248688 
L 101.528909 224.992499 
L 102.058166 219.242644 
L 102.587422 219.307054 
L 103.116679 218.521314 
L 103.645936 197.046658 
L 104.175193 202.38843 
L 104.704449 215.690889 
L 105.233706 216.706319 
L 105.762963 218.988988 
L 106.29222 224.253351 
L 106.821476 231.153646 
L 107.350733 226.026892 
L 107.87999 228.497838 
L 108.409247 220.593782 
L 108.938503 219.560029 
L 109.46776 217.663488 
L 110.526274 204.705094 
L 111.05553 206.358998 
L 111.584787 219.164637 
L 112.114044 225.007882 
L 112.643301 233.35711 
L 113.172557 234.357487 
L 113.701814 229.217053 
L 114.231071 227.127201 
L 114.760328 223.191866 
L 115.818841 224.46774 
L 116.348098 210.590093 
L 116.877355 223.170427 
L 117.406611 226.527096 
L 117.935868 235.75497 
L 118.465125 235.592135 
L 118.994382 222.890462 
L 119.523639 231.077784 
L 120.052895 226.510135 
L 120.582152 226.746355 
L 121.111409 235.598305 
L 122.169922 235.598305 
L 122.699179 233.704683 
L 123.757693 236.955272 
L 124.286949 236.955272 
L 124.816206 210.455579 
L 125.345463 224.665437 
L 125.87472 224.498671 
L 126.403976 239.143942 
L 126.933233 226.286202 
L 127.46249 222.162797 
L 127.991747 212.542502 
L 128.521003 208.135912 
L 129.05026 214.910018 
L 129.579517 214.015959 
L 130.108774 212.228624 
L 130.63803 226.498497 
L 131.696544 230.034488 
L 132.225801 230.813749 
L 132.755057 230.584069 
L 133.284314 228.395327 
L 133.813571 232.177504 
L 134.342828 223.10188 
L 134.872084 218.940456 
L 135.401341 223.766394 
L 135.930598 221.421905 
L 136.459855 212.738898 
L 136.989111 216.971706 
L 137.518368 228.232678 
L 138.047625 225.996952 
L 138.576882 225.20009 
L 139.106139 222.93009 
L 139.635395 226.405344 
L 140.164652 221.000802 
L 140.693909 226.252558 
L 141.223166 223.903921 
L 141.752422 225.149123 
L 142.281679 224.058585 
L 142.810936 224.791522 
L 143.340193 233.742351 
L 143.869449 234.186358 
L 144.398706 215.560687 
L 144.927963 214.647882 
L 145.45722 216.352432 
L 145.986476 232.261465 
L 146.515733 236.005624 
L 147.574247 221.455085 
L 148.103503 229.207293 
L 148.63276 222.765976 
L 149.162017 224.715248 
L 149.691274 225.711859 
L 150.22053 225.511491 
L 150.749787 222.445186 
L 151.279044 237.861485 
L 151.808301 241.938845 
L 152.337557 205.695227 
L 152.866814 222.217147 
L 153.396071 216.756553 
L 153.925328 219.046434 
L 154.454584 218.949257 
L 154.983841 214.92243 
L 155.513098 198.924329 
L 156.042355 193.418886 
L 156.571611 196.3534 
L 157.100868 203.260669 
L 157.630125 195.84681 
L 158.159382 195.805975 
L 158.688639 193.858591 
L 159.217895 206.863638 
L 159.747152 202.61421 
L 160.276409 217.217789 
L 160.805666 216.544413 
L 161.334922 213.997368 
L 161.864179 221.293344 
L 162.393436 216.663575 
L 162.922693 217.062372 
L 163.451949 217.173684 
L 163.981206 231.320422 
L 164.510463 227.245022 
L 165.03972 218.629468 
L 165.568976 247.114976 
L 166.098233 207.507261 
L 166.62749 245.273972 
L 167.156747 233.11014 
L 167.686003 235.452926 
L 168.21526 239.117406 
L 168.744517 232.928806 
L 169.273774 232.688428 
L 169.80303 233.67042 
L 170.332287 222.521987 
L 170.861544 217.81093 
L 171.390801 211.876956 
L 171.920057 220.277367 
L 172.449314 217.845286 
L 172.978571 227.714481 
L 173.507828 229.071623 
L 174.037084 220.934628 
L 174.566341 220.35684 
L 175.095598 223.932087 
L 175.624855 239.189543 
L 176.154111 215.565773 
L 176.683368 213.949569 
L 177.212625 213.975867 
L 177.741882 231.274449 
L 178.271139 230.545669 
L 178.800395 220.005769 
L 179.329652 233.281022 
L 179.858909 233.144877 
L 180.388166 211.113521 
L 180.917422 219.892054 
L 181.446679 219.670154 
L 181.975936 216.842917 
L 182.505193 212.236641 
L 183.034449 212.080326 
L 183.563706 221.396525 
L 184.092963 215.690187 
L 184.62222 216.325494 
L 185.151476 221.61369 
L 186.20999 219.518554 
L 186.739247 219.790647 
L 187.268503 204.686874 
L 187.79776 207.136701 
L 188.327017 215.370687 
L 188.856274 229.476477 
L 189.38553 228.436998 
L 189.914787 225.069805 
L 190.973301 225.172037 
L 191.502557 225.005561 
L 192.031814 224.381335 
L 192.561071 225.55409 
L 193.090328 226.010838 
L 193.619584 222.920072 
L 194.148841 213.471092 
L 194.678098 219.437833 
L 195.207355 219.30465 
L 195.736611 232.899279 
L 196.265868 216.894503 
L 196.795125 215.289698 
L 197.324382 224.422448 
L 197.853639 217.197475 
L 198.382895 226.876505 
L 198.912152 214.269543 
L 199.441409 230.594015 
L 199.970666 225.718163 
L 200.499922 224.334248 
L 201.029179 210.733202 
L 201.558436 237.772613 
L 202.087693 227.474959 
L 202.616949 227.948246 
L 203.146206 212.153836 
L 203.675463 215.851093 
L 204.20472 214.745244 
L 204.733976 220.218167 
L 205.263233 210.647147 
L 205.79249 208.157259 
L 206.321747 211.692641 
L 206.851003 206.026313 
L 207.38026 206.003966 
L 207.909517 235.299852 
L 208.438774 233.830366 
L 208.96803 230.134677 
L 209.497287 229.607277 
L 210.026544 231.466852 
L 210.555801 235.609065 
L 211.085057 229.916522 
L 211.614314 192.655658 
L 212.143571 190.521999 
L 212.672828 225.311174 
L 213.202084 230.418676 
L 213.731341 227.763033 
L 214.260598 233.758559 
L 214.789855 233.699514 
L 215.319111 231.001602 
L 215.848368 226.207472 
L 216.377625 225.067711 
L 216.906882 229.244301 
L 217.436139 222.777242 
L 217.965395 226.220988 
L 218.494652 221.829926 
L 219.023909 225.063058 
L 219.553166 224.049784 
L 220.082422 207.682827 
L 221.140936 219.338769 
L 222.728706 219.338769 
L 223.78722 222.78042 
L 224.316476 232.278168 
L 224.845733 213.775075 
L 225.37499 224.291751 
L 225.904247 223.106884 
L 226.433503 213.982398 
L 226.96276 220.303015 
L 227.492017 216.542091 
L 228.021274 214.135008 
L 228.55053 216.298339 
L 229.079787 219.129662 
L 229.609044 236.215092 
L 230.138301 230.354937 
L 230.667557 203.692089 
L 231.196814 202.948288 
L 231.726071 201.228747 
L 232.255328 219.432923 
L 232.784584 211.329468 
L 233.313841 225.101819 
L 233.843098 234.960171 
L 234.372355 220.218178 
L 234.901611 220.083251 
L 235.430868 237.327461 
L 235.960125 223.866934 
L 236.489382 224.455236 
L 237.018639 224.01059 
L 237.547895 222.19545 
L 238.077152 223.433575 
L 238.606409 223.016135 
L 239.135666 210.432045 
L 239.664922 229.31553 
L 240.194179 224.401267 
L 240.723436 226.017132 
L 241.252693 224.32164 
L 241.781949 227.996127 
L 242.311206 229.785185 
L 242.840463 220.712821 
L 243.36972 221.2135 
L 243.898976 216.998953 
L 244.428233 218.502691 
L 244.95749 221.130261 
L 245.486747 226.521122 
L 246.016003 211.71669 
L 246.54526 219.336158 
L 247.074517 232.949028 
L 247.603774 224.091703 
L 248.13303 222.902419 
L 248.662287 219.358567 
L 249.191544 226.783414 
L 249.720801 222.777985 
L 250.250057 220.995045 
L 250.779314 223.087735 
L 251.308571 234.161844 
L 251.837828 233.118496 
L 252.367084 210.873133 
L 252.896341 213.404743 
L 253.425598 221.689706 
L 253.954855 217.589648 
L 254.484111 215.109221 
L 255.013368 202.697603 
L 255.542625 221.711424 
L 256.071882 225.00065 
L 256.601139 224.635259 
L 257.130395 216.767933 
L 257.659652 228.330422 
L 258.188909 229.175496 
L 258.718166 239.43767 
L 259.247422 232.753106 
L 259.776679 232.917107 
L 260.305936 235.23309 
L 260.835193 230.389747 
L 261.364449 211.755781 
L 261.893706 208.977272 
L 262.95222 215.878557 
L 263.481476 218.320275 
L 264.010733 219.277805 
L 264.53999 210.84767 
L 265.069247 211.340033 
L 265.598503 216.916932 
L 266.12776 215.619453 
L 266.657017 228.942051 
L 267.186274 226.392355 
L 267.71553 227.211336 
L 268.774044 211.454852 
L 269.303301 214.58828 
L 269.832557 207.904366 
L 270.361814 203.360487 
L 270.891071 205.371724 
L 271.420328 234.56418 
L 271.949584 226.032453 
L 272.478841 222.51299 
L 273.537355 226.663509 
L 274.066611 220.877172 
L 274.595868 224.624189 
L 275.125125 223.973046 
L 275.654382 223.612123 
L 276.183639 218.834015 
L 276.712895 218.885507 
L 277.242152 221.511024 
L 277.771409 221.517947 
L 278.300666 218.60969 
L 278.829922 211.598084 
L 279.359179 214.896513 
L 279.888436 213.161806 
L 280.417693 222.110902 
L 280.946949 220.47657 
L 281.476206 227.562675 
L 282.005463 227.562675 
L 282.53472 222.657419 
L 283.063976 221.217482 
L 283.593233 218.12361 
L 284.12249 218.409476 
L 284.651747 229.057902 
L 285.181003 232.045043 
L 285.71026 229.585157 
L 287.29803 229.585157 
L 287.827287 228.183011 
L 288.356544 226.283519 
L 288.885801 226.806824 
L 289.415057 226.806824 
L 289.944314 228.500386 
L 290.473571 228.500386 
L 291.002828 223.083877 
L 291.532084 227.160143 
L 292.061341 221.457788 
L 292.590598 222.66264 
L 293.119855 219.833216 
L 293.649111 214.492176 
L 294.178368 220.724892 
L 294.707625 222.967634 
L 295.236882 224.571861 
L 295.766139 221.601588 
L 296.295395 225.148566 
L 296.824652 216.762186 
L 297.353909 225.158182 
L 297.883166 225.158182 
L 298.412422 229.427048 
L 298.941679 230.192546 
L 299.470936 230.192546 
L 300.000193 226.498879 
L 300.529449 227.871105 
L 301.058706 227.433618 
L 301.587963 227.433618 
L 302.11722 228.057741 
L 302.646476 227.779169 
L 303.175733 231.719735 
L 303.70499 221.569151 
L 304.234247 223.996053 
L 304.763503 206.176973 
L 305.29276 207.742779 
L 305.822017 205.829473 
L 306.351274 206.675207 
L 307.409787 210.051293 
L 308.468301 224.996492 
L 308.997557 213.897323 
L 309.526814 215.002171 
L 310.585328 225.46429 
L 311.114584 219.169424 
L 311.643841 218.358025 
L 312.173098 220.838947 
L 312.702355 219.240498 
L 313.231611 226.531574 
L 313.760868 227.585311 
L 314.290125 212.860898 
L 314.819382 216.789702 
L 315.348639 227.386603 
L 315.877895 213.077949 
L 316.407152 225.152239 
L 316.936409 224.025395 
L 317.465666 220.172463 
L 317.994922 223.875219 
L 318.524179 223.980526 
L 319.053436 228.440702 
L 319.582693 217.704292 
L 320.111949 217.072854 
L 320.641206 214.874672 
L 321.170463 220.800877 
L 321.69972 228.667379 
L 322.228976 206.586975 
L 322.758233 203.328968 
L 323.28749 228.986126 
L 323.816747 224.778388 
L 324.346003 221.51739 
L 324.87526 224.555529 
L 325.404517 225.430326 
L 325.933774 231.146104 
L 326.992287 229.460104 
L 327.521544 224.06136 
L 328.050801 223.906542 
L 328.580057 231.137437 
L 329.109314 231.6558 
L 329.638571 209.170285 
L 330.167828 207.762598 
L 330.697084 206.000592 
L 331.226341 224.25623 
L 331.755598 224.187569 
L 332.284855 225.174514 
L 332.814111 225.54204 
L 333.343368 219.284501 
L 333.872625 232.275197 
L 334.401882 216.851181 
L 334.931139 219.903733 
L 335.460395 218.345335 
L 335.989652 226.814654 
L 337.048166 226.814654 
L 337.577422 233.983317 
L 338.106679 229.655303 
L 338.635936 229.006729 
L 339.165193 219.667121 
L 339.694449 218.158626 
L 340.223706 212.508362 
L 340.752963 212.046197 
L 341.28222 215.114957 
L 341.811476 216.152115 
L 342.340733 220.41998 
L 342.86999 220.304594 
L 343.928503 226.526147 
L 344.45776 225.867297 
L 344.987017 218.390751 
L 345.516274 219.531833 
L 346.04553 231.791253 
L 346.574787 227.666393 
L 347.104044 212.78387 
L 347.633301 222.220542 
L 348.162557 235.607208 
L 348.691814 211.46194 
L 349.221071 233.088339 
L 349.750328 235.443981 
L 350.279584 236.106731 
L 350.808841 228.336891 
L 351.338098 236.292037 
L 351.867355 223.560568 
L 352.396611 222.76643 
L 352.925868 216.86091 
L 353.455125 227.709642 
L 353.984382 218.872136 
L 354.513639 215.781256 
L 355.042895 214.512005 
L 355.572152 210.329215 
L 356.101409 210.973528 
L 356.630666 218.410446 
L 357.159922 230.569615 
L 357.689179 226.885254 
L 358.218436 228.701167 
L 358.747693 223.31922 
L 359.276949 208.336756 
L 359.806206 219.848568 
L 360.335463 222.358419 
L 360.86472 215.000551 
L 361.393976 226.078849 
L 361.923233 228.356813 
L 362.45249 212.590084 
L 362.981747 219.313729 
L 363.511003 220.220117 
L 364.569517 229.41996 
L 365.098774 232.87689 
L 365.62803 217.100174 
L 366.157287 219.724886 
L 366.686544 217.469155 
L 367.215801 224.408025 
L 367.745057 224.791904 
L 368.274314 224.78592 
L 368.803571 225.633387 
L 369.332828 230.826439 
L 369.862084 223.941517 
L 370.920598 237.209289 
L 371.979111 239.544534 
L 372.508368 219.198797 
L 373.037625 224.095159 
L 373.566882 211.322618 
L 374.096139 234.79061 
L 374.625395 220.133402 
L 375.154652 218.508263 
L 375.683909 227.368043 
L 376.213166 226.235493 
L 376.742422 226.569035 
L 377.271679 235.102382 
L 377.800936 227.836532 
L 378.330193 230.395277 
L 378.859449 205.986334 
L 379.388706 202.150766 
L 379.917963 199.537062 
L 380.44722 200.012319 
L 380.976476 194.461264 
L 381.505733 196.39177 
L 382.03499 227.162031 
L 382.564247 226.801552 
L 383.62276 198.632458 
L 384.152017 195.046089 
L 384.681274 194.02384 
L 385.21053 192.752288 
L 385.739787 212.381596 
L 386.269044 210.779794 
L 386.798301 215.177004 
L 387.327557 212.616929 
L 387.856814 217.748893 
L 388.386071 236.388306 
L 388.915328 233.905877 
L 389.444584 229.593174 
L 389.973841 229.593174 
L 390.503098 223.349583 
L 391.032355 223.836128 
L 391.561611 223.248228 
L 392.090868 222.413956 
L 392.620125 221.889734 
L 393.149382 220.391454 
L 393.678639 220.73556 
L 394.207895 220.73556 
L 394.737152 220.891812 
L 395.266409 220.891812 
L 395.795666 213.61091 
L 398.971206 213.61091 
L 399.500463 214.931684 
L 400.02972 214.931684 
L 400.558976 215.542529 
L 401.088233 215.542529 
L 402.146747 217.553384 
L 402.676003 217.76506 
L 406.380801 217.76506 
L 406.910057 216.780736 
L 409.027084 216.780736 
L 409.556341 217.632702 
L 412.202625 217.632702 
L 412.731882 217.367532 
L 414.319652 217.367532 
L 414.848909 218.035327 
L 415.378166 224.529653 
L 415.907422 222.323527 
L 416.436679 219.023478 
L 416.965936 219.023478 
L 417.495193 220.776467 
L 418.024449 220.941768 
L 422.78776 220.941768 
L 423.317017 223.406812 
L 423.846274 224.322548 
L 428.609584 224.376083 
L 429.138841 224.531036 
L 430.726611 224.531036 
L 431.255868 223.448452 
L 432.314382 223.448452 
L 433.372895 224.016398 
L 435.489922 224.016398 
L 436.019179 222.304698 
L 438.665463 222.304698 
L 439.19472 221.301195 
L 439.723976 223.405141 
L 456.130936 223.405141 
L 456.660193 223.94584 
L 457.718706 223.94584 
L 458.247963 224.167007 
L 459.306476 224.167007 
L 459.835733 223.964152 
L 460.894247 223.964152 
L 461.423503 224.803954 
L 461.95276 224.803954 
L 462.482017 218.474701 
L 463.011274 218.474701 
L 463.54053 216.715563 
L 466.186814 216.715563 
L 466.716071 217.068294 
L 467.245328 213.684873 
L 467.774584 213.684873 
L 468.303841 212.086867 
L 468.833098 212.086867 
L 469.362355 214.370269 
L 469.891611 215.386163 
L 470.420868 213.527155 
L 470.950125 207.421371 
L 471.479382 204.052765 
L 472.008639 203.223053 
L 472.537895 200.288549 
L 473.067152 210.134717 
L 473.596409 215.300737 
L 474.125666 215.992675 
L 474.654922 217.074082 
L 475.184179 219.408182 
L 475.713436 220.789456 
L 476.242693 220.576305 
L 476.771949 220.130451 
L 477.301206 219.334208 
L 477.830463 220.23452 
L 478.35972 216.394588 
L 478.888976 218.516784 
L 479.418233 226.591372 
L 479.94749 226.28973 
L 481.006003 226.372948 
L 481.53526 227.69429 
L 482.064517 214.796757 
L 482.593774 215.794741 
L 483.12303 222.379167 
L 483.652287 233.471754 
L 484.181544 232.115715 
L 484.710801 237.948014 
L 485.240057 221.408307 
L 485.769314 231.129029 
L 486.298571 231.166315 
L 486.827828 234.757255 
L 487.357084 226.738638 
L 487.886341 226.998856 
L 488.415598 231.00414 
L 488.944855 215.589534 
L 489.474111 207.102717 
L 490.003368 213.621041 
L 490.532625 229.596362 
L 491.061882 225.279418 
L 491.591139 225.893058 
L 492.120395 230.927732 
L 492.649652 231.607732 
L 493.178909 226.455908 
L 493.708166 231.270476 
L 494.237422 233.402784 
L 494.766679 234.08068 
L 495.295936 243.495964 
L 495.825193 214.96279 
L 496.354449 215.355511 
L 496.883706 217.317875 
L 497.412963 221.956465 
L 497.94222 219.555686 
L 498.471476 224.011962 
L 499.000733 224.100627 
L 499.52999 223.833043 
L 500.059247 224.887688 
L 500.588503 222.678796 
L 501.11776 232.374355 
L 501.647017 229.485525 
L 502.176274 228.100165 
L 503.234787 228.100165 
L 503.764044 222.253195 
L 504.293301 229.905895 
L 504.822557 229.397685 
L 505.351814 232.057248 
L 505.881071 229.86864 
L 506.410328 228.431839 
L 506.939584 233.461241 
L 507.468841 215.21232 
L 507.998098 231.854414 
L 509.056611 214.377893 
L 509.585868 213.588398 
L 510.115125 232.565262 
L 510.644382 231.347844 
L 511.173639 231.799104 
L 511.702895 215.502447 
L 512.232152 215.160899 
L 512.761409 214.671611 
L 513.290666 211.811432 
L 513.819922 212.445397 
L 514.349179 215.777738 
L 514.878436 222.253701 
L 515.936949 222.253701 
L 516.466206 223.018311 
L 516.995463 224.774354 
L 517.52472 225.850026 
L 518.053976 225.850026 
L 518.583233 228.511766 
L 519.641747 228.511766 
L 520.171003 227.108877 
L 520.70026 227.108877 
L 521.229517 226.196598 
L 521.758774 224.214105 
L 522.817287 224.214105 
L 523.346544 225.620718 
L 526.522084 225.563148 
L 527.051341 231.827332 
L 527.580598 232.916157 
L 528.109855 232.916157 
L 528.639111 231.163261 
L 529.168368 228.584553 
L 529.697625 227.625981 
L 530.226882 227.625981 
L 531.285395 224.829149 
L 534.460936 224.829149 
L 534.990193 224.347711 
L 535.519449 224.347711 
L 536.048706 222.806388 
L 536.577963 222.806388 
L 537.10722 223.196447 
L 538.165733 223.196447 
L 538.69499 226.990468 
L 539.224247 224.751347 
L 539.753503 225.083166 
L 540.28276 228.345176 
L 540.812017 229.74889 
L 541.341274 231.978188 
L 541.87053 231.978188 
L 542.399787 232.1113 
L 542.929044 233.463954 
L 543.458301 233.463954 
L 543.987557 236.479519 
L 545.046071 236.479519 
L 545.575328 234.408 
L 546.104584 234.408 
L 546.633841 235.350632 
L 547.163098 235.350632 
L 547.692355 234.203298 
L 548.221611 234.203298 
L 548.750868 232.430232 
L 549.809382 232.430232 
L 550.338639 232.651493 
L 550.867895 232.651493 
L 551.397152 231.412584 
L 551.926409 231.412584 
L 552.455666 230.125392 
L 552.984922 228.480051 
L 553.514179 228.018774 
L 554.043436 229.141811 
L 554.572693 229.141811 
L 555.101949 232.202534 
L 555.631206 233.274491 
L 556.160463 233.274491 
L 556.68972 235.292299 
L 557.748233 235.292299 
L 558.27749 238.199102 
L 559.336003 238.199102 
L 559.86526 242.081014 
L 560.394517 241.594274 
L 560.923774 240.62882 
L 561.45303 241.087993 
L 561.982287 244.05447 
L 562.511544 244.188386 
L 563.040801 244.188386 
L 563.570057 244.323168 
L 566.745598 244.323168 
L 567.274855 242.698452 
L 567.804111 242.698452 
L 568.333368 241.99596 
L 568.862625 242.733344 
L 569.391882 241.292045 
L 569.921139 241.292045 
L 570.450395 240.651167 
L 570.979652 240.651167 
L 571.508909 241.483572 
L 572.038166 240.797402 
L 572.567422 236.299114 
L 573.096679 233.337477 
L 573.625936 211.080929 
L 574.155193 205.99433 
L 574.684449 239.407957 
L 575.213706 230.438825 
L 575.742963 231.240619 
L 576.27222 204.064557 
L 576.801476 196.941516 
L 577.330733 197.703331 
L 577.85999 200.583299 
L 578.389247 234.439436 
L 578.918503 234.590056 
L 579.44776 228.5041 
L 579.977017 227.563635 
L 580.506274 236.342312 
L 581.564787 231.97369 
L 582.094044 228.63553 
L 582.623301 224.048866 
L 583.152557 224.027561 
L 583.681814 223.820621 
L 584.740328 223.820621 
L 585.269584 236.035317 
L 585.798841 231.027354 
L 586.328098 217.71821 
L 586.857355 231.078259 
L 587.386611 226.882747 
L 587.915868 226.828933 
L 588.445125 227.104235 
L 588.974382 214.569307 
L 589.503639 214.61075 
L 590.032895 225.038998 
L 590.562152 227.02113 
L 591.091409 238.28397 
L 591.620666 219.068285 
L 592.149922 229.163693 
L 592.679179 229.163693 
L 593.208436 232.035283 
L 593.737693 237.224022 
L 594.266949 237.224022 
L 594.796206 206.821524 
L 595.325463 223.303311 
L 595.85472 217.686113 
L 596.383976 217.686113 
L 596.913233 222.082499 
L 597.44249 223.748246 
L 597.971747 223.748246 
L 598.501003 222.110314 
L 599.03026 219.881005 
L 599.559517 214.527099 
L 600.088774 212.934252 
L 600.61803 206.562462 
L 601.147287 209.572651 
L 601.676544 211.007502 
L 602.205801 211.007502 
L 602.735057 232.024997 
L 603.264314 213.695293 
L 603.793571 213.695293 
L 604.322828 210.887349 
L 604.852084 191.019036 
L 605.381341 196.143942 
L 605.910598 215.506295 
L 606.439855 213.462395 
L 606.969111 221.52587 
L 607.498368 218.340187 
L 608.027625 225.574456 
L 608.027625 225.574456 
" clip-path="url(#p20176f4559)" style="fill: none; stroke: #1f77b4; stroke-width: 1.2; stroke-linecap: round"/>
   </g>
   <g id="patch_9">
    <path d="M 52.86375 238.741265 
L 52.86375 195.468203 
" style="fill: none; stroke: #262626; stroke-linejoin: miter; stroke-linecap: square"/>
   </g>
   <g id="patch_10">
    <path d="M 79.300125 249.944625 
L 608.556882 249.944625 
" style="fill: none; stroke: #262626; stroke-linejoin: miter; stroke-linecap: square"/>
   </g>
  </g>
  <g id="text_19">
   <!-- MCMC trace plots -->
   <g style="fill: #262626" transform="translate(274.7457 15.5862) scale(0.1152 -0.1152)">
    <defs>
     <path id="ArialMT-4d" d="M 475 0 
L 475 4581 
L 1388 4581 
L 2472 1338 
Q 2622 884 2691 659 
Q 2769 909 2934 1394 
L 4031 4581 
L 4847 4581 
L 4847 0 
L 4263 0 
L 4263 3834 
L 2931 0 
L 2384 0 
L 1059 3900 
L 1059 0 
L 475 0 
z
" transform="scale(0.015625)"/>
     <path id="ArialMT-43" d="M 3763 1606 
L 4369 1453 
Q 4178 706 3683 314 
Q 3188 -78 2472 -78 
Q 1731 -78 1267 223 
Q 803 525 561 1097 
Q 319 1669 319 2325 
Q 319 3041 592 3573 
Q 866 4106 1370 4382 
Q 1875 4659 2481 4659 
Q 3169 4659 3637 4309 
Q 4106 3959 4291 3325 
L 3694 3184 
Q 3534 3684 3231 3912 
Q 2928 4141 2469 4141 
Q 1941 4141 1586 3887 
Q 1231 3634 1087 3207 
Q 944 2781 944 2328 
Q 944 1744 1114 1308 
Q 1284 872 1643 656 
Q 2003 441 2422 441 
Q 2931 441 3284 734 
Q 3638 1028 3763 1606 
z
" transform="scale(0.015625)"/>
     <path id="ArialMT-20" transform="scale(0.015625)"/>
     <path id="ArialMT-63" d="M 2588 1216 
L 3141 1144 
Q 3050 572 2676 248 
Q 2303 -75 1759 -75 
Q 1078 -75 664 370 
Q 250 816 250 1647 
Q 250 2184 428 2587 
Q 606 2991 970 3192 
Q 1334 3394 1763 3394 
Q 2303 3394 2647 3120 
Q 2991 2847 3088 2344 
L 2541 2259 
Q 2463 2594 2264 2762 
Q 2066 2931 1784 2931 
Q 1359 2931 1093 2626 
Q 828 2322 828 1663 
Q 828 994 1084 691 
Q 1341 388 1753 388 
Q 2084 388 2306 591 
Q 2528 794 2588 1216 
z
" transform="scale(0.015625)"/>
     <path id="ArialMT-70" d="M 422 -1272 
L 422 3319 
L 934 3319 
L 934 2888 
Q 1116 3141 1344 3267 
Q 1572 3394 1897 3394 
Q 2322 3394 2647 3175 
Q 2972 2956 3137 2557 
Q 3303 2159 3303 1684 
Q 3303 1175 3120 767 
Q 2938 359 2589 142 
Q 2241 -75 1856 -75 
Q 1575 -75 1351 44 
Q 1128 163 984 344 
L 984 -1272 
L 422 -1272 
z
M 931 1641 
Q 931 1000 1190 694 
Q 1450 388 1819 388 
Q 2194 388 2461 705 
Q 2728 1022 2728 1688 
Q 2728 2322 2467 2637 
Q 2206 2953 1844 2953 
Q 1484 2953 1207 2617 
Q 931 2281 931 1641 
z
" transform="scale(0.015625)"/>
     <path id="ArialMT-6c" d="M 409 0 
L 409 4581 
L 972 4581 
L 972 0 
L 409 0 
z
" transform="scale(0.015625)"/>
     <path id="ArialMT-73" d="M 197 991 
L 753 1078 
Q 800 744 1014 566 
Q 1228 388 1613 388 
Q 2000 388 2187 545 
Q 2375 703 2375 916 
Q 2375 1106 2209 1216 
Q 2094 1291 1634 1406 
Q 1016 1563 777 1677 
Q 538 1791 414 1992 
Q 291 2194 291 2438 
Q 291 2659 392 2848 
Q 494 3038 669 3163 
Q 800 3259 1026 3326 
Q 1253 3394 1513 3394 
Q 1903 3394 2198 3281 
Q 2494 3169 2634 2976 
Q 2775 2784 2828 2463 
L 2278 2388 
Q 2241 2644 2061 2787 
Q 1881 2931 1553 2931 
Q 1166 2931 1000 2803 
Q 834 2675 834 2503 
Q 834 2394 903 2306 
Q 972 2216 1119 2156 
Q 1203 2125 1616 2013 
Q 2213 1853 2448 1751 
Q 2684 1650 2818 1456 
Q 2953 1263 2953 975 
Q 2953 694 2789 445 
Q 2625 197 2315 61 
Q 2006 -75 1616 -75 
Q 969 -75 630 194 
Q 291 463 197 991 
z
" transform="scale(0.015625)"/>
    </defs>
    <use xlink:href="#ArialMT-4d"/>
    <use xlink:href="#ArialMT-43" x="83.300781"/>
    <use xlink:href="#ArialMT-4d" x="155.517578"/>
    <use xlink:href="#ArialMT-43" x="238.818359"/>
    <use xlink:href="#ArialMT-20" x="311.035156"/>
    <use xlink:href="#ArialMT-74" x="338.818359"/>
    <use xlink:href="#ArialMT-72" x="366.601562"/>
    <use xlink:href="#ArialMT-61" x="399.902344"/>
    <use xlink:href="#ArialMT-63" x="455.517578"/>
    <use xlink:href="#ArialMT-65" x="505.517578"/>
    <use xlink:href="#ArialMT-20" x="561.132812"/>
    <use xlink:href="#ArialMT-70" x="588.916016"/>
    <use xlink:href="#ArialMT-6c" x="644.53125"/>
    <use xlink:href="#ArialMT-6f" x="666.748047"/>
    <use xlink:href="#ArialMT-74" x="722.363281"/>
    <use xlink:href="#ArialMT-73" x="750.146484"/>
   </g>
  </g>
 </g>
 <defs>
  <clipPath id="pca7accd241">
   <rect x="52.86375" y="32.8518" width="581.60025" height="62.252275"/>
  </clipPath>
  <clipPath id="p8e5ca1f6e4">
   <rect x="52.86375" y="110.272075" width="581.60025" height="62.252275"/>
  </clipPath>
  <clipPath id="p20176f4559">
   <rect x="52.86375" y="187.69235" width="581.60025" height="62.252275"/>
  </clipPath>
 </defs>
</svg>