<?xml version="1.0" encoding="utf-8" standalone="no"?>
<!DOCTYPE svg PUBLIC "-//W3C//DTD SVG 1.1//EN"
  "http://www.w3.org/Graphics/SVG/1.1/DTD/svg11.dtd">
<svg xmlns:xlink="http://www.w3.org/1999/xlink" width="713.519688pt" height="137.664pt" viewBox="0 0 713.519688 137.664" xmlns="http://www.w3.org/2000/svg" version="1.1">
 <metadata>
  <rdf:RDF xmlns:dc="http://purl.org/dc/elements/1.1/" xmlns:cc="http://creativecommons.org/ns#" xmlns:rdf="http://www.w3.org/1999/02/22-rdf-syntax-ns#">
   <cc:Work>
    <dc:type rdf:resource="http://purl.org/dc/dcmitype/StillImage"/>
    <dc:date>2024-10-09T14:39:52.480992</dc:date>
    <dc:format>image/svg+xml</dc:format>
    <dc:creator>
     <cc:Agent>
      <dc:title>Matplotlib v3.9.2, https://matplotlib.org/</dc:title>
     </cc:Agent>
    </dc:creator>
   </cc:Work>
  </rdf:RDF>
 </metadata>
 <defs>
  <style type="text/css">*{stroke-linejoin: round; stroke-linecap: butt}</style>
 </defs>
 <g id="figure_1">
  <g id="patch_1">
   <path d="M 0 137.664 
L 713.519688 137.664 
L 713.519688 0 
L 0 0 
z
" style="fill: #ffffff"/>
  </g>
  <g id="axes_1">
   <g id="patch_2">
    <path d="M 13.317409 114.116125 
L 175.550931 114.116125 
L 175.550931 20.1 
L 13.317409 20.1 
z
" style="fill: #ffffff"/>
   </g>
   <g id="matplotlib.axis_1">
    <g id="xtick_1">
     <g id="line2d_1">
      <defs>
       <path id="mc3c023df4e" d="M 0 0 
L 0 4.8 
" style="stroke: #262626"/>
      </defs>
      <g>
       <use xlink:href="#mc3c023df4e" x="23.226313" y="114.116125" style="fill: #262626; stroke: #262626"/>
      </g>
     </g>
     <g id="text_1">
      <!-- −0.0025 -->
      <g style="fill: #262626" transform="translate(7.2 128.715) scale(0.088 -0.088)">
       <defs>
        <path id="ArialMT-2212" d="M 3381 1997 
L 356 1997 
L 356 2522 
L 3381 2522 
L 3381 1997 
z
" transform="scale(0.015625)"/>
        <path id="ArialMT-30" d="M 266 2259 
Q 266 3072 433 3567 
Q 600 4063 929 4331 
Q 1259 4600 1759 4600 
Q 2128 4600 2406 4451 
Q 2684 4303 2865 4023 
Q 3047 3744 3150 3342 
Q 3253 2941 3253 2259 
Q 3253 1453 3087 958 
Q 2922 463 2592 192 
Q 2263 -78 1759 -78 
Q 1097 -78 719 397 
Q 266 969 266 2259 
z
M 844 2259 
Q 844 1131 1108 757 
Q 1372 384 1759 384 
Q 2147 384 2411 759 
Q 2675 1134 2675 2259 
Q 2675 3391 2411 3762 
Q 2147 4134 1753 4134 
Q 1366 4134 1134 3806 
Q 844 3388 844 2259 
z
" transform="scale(0.015625)"/>
        <path id="ArialMT-2e" d="M 581 0 
L 581 641 
L 1222 641 
L 1222 0 
L 581 0 
z
" transform="scale(0.015625)"/>
        <path id="ArialMT-32" d="M 3222 541 
L 3222 0 
L 194 0 
Q 188 203 259 391 
Q 375 700 629 1000 
Q 884 1300 1366 1694 
Q 2113 2306 2375 2664 
Q 2638 3022 2638 3341 
Q 2638 3675 2398 3904 
Q 2159 4134 1775 4134 
Q 1369 4134 1125 3890 
Q 881 3647 878 3216 
L 300 3275 
Q 359 3922 746 4261 
Q 1134 4600 1788 4600 
Q 2447 4600 2831 4234 
Q 3216 3869 3216 3328 
Q 3216 3053 3103 2787 
Q 2991 2522 2730 2228 
Q 2469 1934 1863 1422 
Q 1356 997 1212 845 
Q 1069 694 975 541 
L 3222 541 
z
" transform="scale(0.015625)"/>
        <path id="ArialMT-35" d="M 266 1200 
L 856 1250 
Q 922 819 1161 601 
Q 1400 384 1738 384 
Q 2144 384 2425 690 
Q 2706 997 2706 1503 
Q 2706 1984 2436 2262 
Q 2166 2541 1728 2541 
Q 1456 2541 1237 2417 
Q 1019 2294 894 2097 
L 366 2166 
L 809 4519 
L 3088 4519 
L 3088 3981 
L 1259 3981 
L 1013 2750 
Q 1425 3038 1878 3038 
Q 2478 3038 2890 2622 
Q 3303 2206 3303 1553 
Q 3303 931 2941 478 
Q 2500 -78 1738 -78 
Q 1113 -78 717 272 
Q 322 622 266 1200 
z
" transform="scale(0.015625)"/>
       </defs>
       <use xlink:href="#ArialMT-2212"/>
       <use xlink:href="#ArialMT-30" x="58.398438"/>
       <use xlink:href="#ArialMT-2e" x="114.013672"/>
       <use xlink:href="#ArialMT-30" x="141.796875"/>
       <use xlink:href="#ArialMT-30" x="197.412109"/>
       <use xlink:href="#ArialMT-32" x="253.027344"/>
       <use xlink:href="#ArialMT-35" x="308.642578"/>
      </g>
     </g>
    </g>
    <g id="xtick_2">
     <g id="line2d_2">
      <g>
       <use xlink:href="#mc3c023df4e" x="70.911169" y="114.116125" style="fill: #262626; stroke: #262626"/>
      </g>
     </g>
     <g id="text_2">
      <!-- 0.0000 -->
      <g style="fill: #262626" transform="translate(57.454732 128.715) scale(0.088 -0.088)">
       <use xlink:href="#ArialMT-30"/>
       <use xlink:href="#ArialMT-2e" x="55.615234"/>
       <use xlink:href="#ArialMT-30" x="83.398438"/>
       <use xlink:href="#ArialMT-30" x="139.013672"/>
       <use xlink:href="#ArialMT-30" x="194.628906"/>
       <use xlink:href="#ArialMT-30" x="250.244141"/>
      </g>
     </g>
    </g>
    <g id="xtick_3">
     <g id="line2d_3">
      <g>
       <use xlink:href="#mc3c023df4e" x="118.596026" y="114.116125" style="fill: #262626; stroke: #262626"/>
      </g>
     </g>
     <g id="text_3">
      <!-- 0.0025 -->
      <g style="fill: #262626" transform="translate(105.139589 128.715) scale(0.088 -0.088)">
       <use xlink:href="#ArialMT-30"/>
       <use xlink:href="#ArialMT-2e" x="55.615234"/>
       <use xlink:href="#ArialMT-30" x="83.398438"/>
       <use xlink:href="#ArialMT-30" x="139.013672"/>
       <use xlink:href="#ArialMT-32" x="194.628906"/>
       <use xlink:href="#ArialMT-35" x="250.244141"/>
      </g>
     </g>
    </g>
    <g id="xtick_4">
     <g id="line2d_4">
      <g>
       <use xlink:href="#mc3c023df4e" x="166.280883" y="114.116125" style="fill: #262626; stroke: #262626"/>
      </g>
     </g>
     <g id="text_4">
      <!-- 0.0050 -->
      <g style="fill: #262626" transform="translate(152.824445 128.715) scale(0.088 -0.088)">
       <use xlink:href="#ArialMT-30"/>
       <use xlink:href="#ArialMT-2e" x="55.615234"/>
       <use xlink:href="#ArialMT-30" x="83.398438"/>
       <use xlink:href="#ArialMT-30" x="139.013672"/>
       <use xlink:href="#ArialMT-35" x="194.628906"/>
       <use xlink:href="#ArialMT-30" x="250.244141"/>
      </g>
     </g>
    </g>
   </g>
   <g id="matplotlib.axis_2"/>
   <g id="patch_3">
    <path d="M 20.69166 114.116125 
L 29.909474 114.116125 
L 29.909474 113.586307 
L 20.69166 113.586307 
z
" clip-path="url(#pb6bc756e0c)" style="fill: #1f77b4; stroke: #ffffff; stroke-width: 0.8; stroke-linejoin: miter"/>
   </g>
   <g id="patch_4">
    <path d="M 29.909474 114.116125 
L 39.127288 114.116125 
L 39.127288 111.996855 
L 29.909474 111.996855 
z
" clip-path="url(#pb6bc756e0c)" style="fill: #1f77b4; stroke: #ffffff; stroke-width: 0.8; stroke-linejoin: miter"/>
   </g>
   <g id="patch_5">
    <path d="M 39.127288 114.116125 
L 48.345101 114.116125 
L 48.345101 109.877585 
L 39.127288 109.877585 
z
" clip-path="url(#pb6bc756e0c)" style="fill: #1f77b4; stroke: #ffffff; stroke-width: 0.8; stroke-linejoin: miter"/>
   </g>
   <g id="patch_6">
    <path d="M 48.345101 114.116125 
L 57.562915 114.116125 
L 57.562915 106.168862 
L 48.345101 106.168862 
z
" clip-path="url(#pb6bc756e0c)" style="fill: #1f77b4; stroke: #ffffff; stroke-width: 0.8; stroke-linejoin: miter"/>
   </g>
   <g id="patch_7">
    <path d="M 57.562915 114.116125 
L 66.780729 114.116125 
L 66.780729 95.042693 
L 57.562915 95.042693 
z
" clip-path="url(#pb6bc756e0c)" style="fill: #1f77b4; stroke: #ffffff; stroke-width: 0.8; stroke-linejoin: miter"/>
   </g>
   <g id="patch_8">
    <path d="M 66.780729 114.116125 
L 75.998543 114.116125 
L 75.998543 73.849991 
L 66.780729 73.849991 
z
" clip-path="url(#pb6bc756e0c)" style="fill: #1f77b4; stroke: #ffffff; stroke-width: 0.8; stroke-linejoin: miter"/>
   </g>
   <g id="patch_9">
    <path d="M 75.998543 114.116125 
L 85.216356 114.116125 
L 85.216356 61.13437 
L 75.998543 61.13437 
z
" clip-path="url(#pb6bc756e0c)" style="fill: #1f77b4; stroke: #ffffff; stroke-width: 0.8; stroke-linejoin: miter"/>
   </g>
   <g id="patch_10">
    <path d="M 85.216356 114.116125 
L 94.43417 114.116125 
L 94.43417 36.762762 
L 85.216356 36.762762 
z
" clip-path="url(#pb6bc756e0c)" style="fill: #1f77b4; stroke: #ffffff; stroke-width: 0.8; stroke-linejoin: miter"/>
   </g>
   <g id="patch_11">
    <path d="M 94.43417 114.116125 
L 103.651984 114.116125 
L 103.651984 24.576958 
L 94.43417 24.576958 
z
" clip-path="url(#pb6bc756e0c)" style="fill: #1f77b4; stroke: #ffffff; stroke-width: 0.8; stroke-linejoin: miter"/>
   </g>
   <g id="patch_12">
    <path d="M 103.651984 114.116125 
L 112.869797 114.116125 
L 112.869797 27.755864 
L 103.651984 27.755864 
z
" clip-path="url(#pb6bc756e0c)" style="fill: #1f77b4; stroke: #ffffff; stroke-width: 0.8; stroke-linejoin: miter"/>
   </g>
   <g id="patch_13">
    <path d="M 112.869797 114.116125 
L 122.087611 114.116125 
L 122.087611 52.657289 
L 112.869797 52.657289 
z
" clip-path="url(#pb6bc756e0c)" style="fill: #1f77b4; stroke: #ffffff; stroke-width: 0.8; stroke-linejoin: miter"/>
   </g>
   <g id="patch_14">
    <path d="M 122.087611 114.116125 
L 131.305425 114.116125 
L 131.305425 71.200903 
L 122.087611 71.200903 
z
" clip-path="url(#pb6bc756e0c)" style="fill: #1f77b4; stroke: #ffffff; stroke-width: 0.8; stroke-linejoin: miter"/>
   </g>
   <g id="patch_15">
    <path d="M 131.305425 114.116125 
L 140.523239 114.116125 
L 140.523239 85.505977 
L 131.305425 85.505977 
z
" clip-path="url(#pb6bc756e0c)" style="fill: #1f77b4; stroke: #ffffff; stroke-width: 0.8; stroke-linejoin: miter"/>
   </g>
   <g id="patch_16">
    <path d="M 140.523239 114.116125 
L 149.741052 114.116125 
L 149.741052 101.400504 
L 140.523239 101.400504 
z
" clip-path="url(#pb6bc756e0c)" style="fill: #1f77b4; stroke: #ffffff; stroke-width: 0.8; stroke-linejoin: miter"/>
   </g>
   <g id="patch_17">
    <path d="M 149.741052 114.116125 
L 158.958866 114.116125 
L 158.958866 112.526672 
L 149.741052 112.526672 
z
" clip-path="url(#pb6bc756e0c)" style="fill: #1f77b4; stroke: #ffffff; stroke-width: 0.8; stroke-linejoin: miter"/>
   </g>
   <g id="patch_18">
    <path d="M 158.958866 114.116125 
L 168.17668 114.116125 
L 168.17668 111.996855 
L 158.958866 111.996855 
z
" clip-path="url(#pb6bc756e0c)" style="fill: #1f77b4; stroke: #ffffff; stroke-width: 0.8; stroke-linejoin: miter"/>
   </g>
   <g id="patch_19">
    <path d="M 23.226313 114.116125 
L 166.280883 114.116125 
" style="fill: none; stroke: #262626; stroke-linejoin: miter; stroke-linecap: square"/>
   </g>
   <g id="text_5">
    <!-- needle_displacement_m -->
    <g style="fill: #262626" transform="translate(42.40442 14.1) scale(0.096 -0.096)">
     <defs>
      <path id="ArialMT-6e" d="M 422 0 
L 422 3319 
L 928 3319 
L 928 2847 
Q 1294 3394 1984 3394 
Q 2284 3394 2536 3286 
Q 2788 3178 2913 3003 
Q 3038 2828 3088 2588 
Q 3119 2431 3119 2041 
L 3119 0 
L 2556 0 
L 2556 2019 
Q 2556 2363 2490 2533 
Q 2425 2703 2258 2804 
Q 2091 2906 1866 2906 
Q 1506 2906 1245 2678 
Q 984 2450 984 1813 
L 984 0 
L 422 0 
z
" transform="scale(0.015625)"/>
      <path id="ArialMT-65" d="M 2694 1069 
L 3275 997 
Q 3138 488 2766 206 
Q 2394 -75 1816 -75 
Q 1088 -75 661 373 
Q 234 822 234 1631 
Q 234 2469 665 2931 
Q 1097 3394 1784 3394 
Q 2450 3394 2872 2941 
Q 3294 2488 3294 1666 
Q 3294 1616 3291 1516 
L 816 1516 
Q 847 969 1125 678 
Q 1403 388 1819 388 
Q 2128 388 2347 550 
Q 2566 713 2694 1069 
z
M 847 1978 
L 2700 1978 
Q 2663 2397 2488 2606 
Q 2219 2931 1791 2931 
Q 1403 2931 1139 2672 
Q 875 2413 847 1978 
z
" transform="scale(0.015625)"/>
      <path id="ArialMT-64" d="M 2575 0 
L 2575 419 
Q 2259 -75 1647 -75 
Q 1250 -75 917 144 
Q 584 363 401 755 
Q 219 1147 219 1656 
Q 219 2153 384 2558 
Q 550 2963 881 3178 
Q 1213 3394 1622 3394 
Q 1922 3394 2156 3267 
Q 2391 3141 2538 2938 
L 2538 4581 
L 3097 4581 
L 3097 0 
L 2575 0 
z
M 797 1656 
Q 797 1019 1065 703 
Q 1334 388 1700 388 
Q 2069 388 2326 689 
Q 2584 991 2584 1609 
Q 2584 2291 2321 2609 
Q 2059 2928 1675 2928 
Q 1300 2928 1048 2622 
Q 797 2316 797 1656 
z
" transform="scale(0.015625)"/>
      <path id="ArialMT-6c" d="M 409 0 
L 409 4581 
L 972 4581 
L 972 0 
L 409 0 
z
" transform="scale(0.015625)"/>
      <path id="ArialMT-5f" d="M -97 -1272 
L -97 -866 
L 3631 -866 
L 3631 -1272 
L -97 -1272 
z
" transform="scale(0.015625)"/>
      <path id="ArialMT-69" d="M 425 3934 
L 425 4581 
L 988 4581 
L 988 3934 
L 425 3934 
z
M 425 0 
L 425 3319 
L 988 3319 
L 988 0 
L 425 0 
z
" transform="scale(0.015625)"/>
      <path id="ArialMT-73" d="M 197 991 
L 753 1078 
Q 800 744 1014 566 
Q 1228 388 1613 388 
Q 2000 388 2187 545 
Q 2375 703 2375 916 
Q 2375 1106 2209 1216 
Q 2094 1291 1634 1406 
Q 1016 1563 777 1677 
Q 538 1791 414 1992 
Q 291 2194 291 2438 
Q 291 2659 392 2848 
Q 494 3038 669 3163 
Q 800 3259 1026 3326 
Q 1253 3394 1513 3394 
Q 1903 3394 2198 3281 
Q 2494 3169 2634 2976 
Q 2775 2784 2828 2463 
L 2278 2388 
Q 2241 2644 2061 2787 
Q 1881 2931 1553 2931 
Q 1166 2931 1000 2803 
Q 834 2675 834 2503 
Q 834 2394 903 2306 
Q 972 2216 1119 2156 
Q 1203 2125 1616 2013 
Q 2213 1853 2448 1751 
Q 2684 1650 2818 1456 
Q 2953 1263 2953 975 
Q 2953 694 2789 445 
Q 2625 197 2315 61 
Q 2006 -75 1616 -75 
Q 969 -75 630 194 
Q 291 463 197 991 
z
" transform="scale(0.015625)"/>
      <path id="ArialMT-70" d="M 422 -1272 
L 422 3319 
L 934 3319 
L 934 2888 
Q 1116 3141 1344 3267 
Q 1572 3394 1897 3394 
Q 2322 3394 2647 3175 
Q 2972 2956 3137 2557 
Q 3303 2159 3303 1684 
Q 3303 1175 3120 767 
Q 2938 359 2589 142 
Q 2241 -75 1856 -75 
Q 1575 -75 1351 44 
Q 1128 163 984 344 
L 984 -1272 
L 422 -1272 
z
M 931 1641 
Q 931 1000 1190 694 
Q 1450 388 1819 388 
Q 2194 388 2461 705 
Q 2728 1022 2728 1688 
Q 2728 2322 2467 2637 
Q 2206 2953 1844 2953 
Q 1484 2953 1207 2617 
Q 931 2281 931 1641 
z
" transform="scale(0.015625)"/>
      <path id="ArialMT-61" d="M 2588 409 
Q 2275 144 1986 34 
Q 1697 -75 1366 -75 
Q 819 -75 525 192 
Q 231 459 231 875 
Q 231 1119 342 1320 
Q 453 1522 633 1644 
Q 813 1766 1038 1828 
Q 1203 1872 1538 1913 
Q 2219 1994 2541 2106 
Q 2544 2222 2544 2253 
Q 2544 2597 2384 2738 
Q 2169 2928 1744 2928 
Q 1347 2928 1158 2789 
Q 969 2650 878 2297 
L 328 2372 
Q 403 2725 575 2942 
Q 747 3159 1072 3276 
Q 1397 3394 1825 3394 
Q 2250 3394 2515 3294 
Q 2781 3194 2906 3042 
Q 3031 2891 3081 2659 
Q 3109 2516 3109 2141 
L 3109 1391 
Q 3109 606 3145 398 
Q 3181 191 3288 0 
L 2700 0 
Q 2613 175 2588 409 
z
M 2541 1666 
Q 2234 1541 1622 1453 
Q 1275 1403 1131 1340 
Q 988 1278 909 1158 
Q 831 1038 831 891 
Q 831 666 1001 516 
Q 1172 366 1500 366 
Q 1825 366 2078 508 
Q 2331 650 2450 897 
Q 2541 1088 2541 1459 
L 2541 1666 
z
" transform="scale(0.015625)"/>
      <path id="ArialMT-63" d="M 2588 1216 
L 3141 1144 
Q 3050 572 2676 248 
Q 2303 -75 1759 -75 
Q 1078 -75 664 370 
Q 250 816 250 1647 
Q 250 2184 428 2587 
Q 606 2991 970 3192 
Q 1334 3394 1763 3394 
Q 2303 3394 2647 3120 
Q 2991 2847 3088 2344 
L 2541 2259 
Q 2463 2594 2264 2762 
Q 2066 2931 1784 2931 
Q 1359 2931 1093 2626 
Q 828 2322 828 1663 
Q 828 994 1084 691 
Q 1341 388 1753 388 
Q 2084 388 2306 591 
Q 2528 794 2588 1216 
z
" transform="scale(0.015625)"/>
      <path id="ArialMT-6d" d="M 422 0 
L 422 3319 
L 925 3319 
L 925 2853 
Q 1081 3097 1340 3245 
Q 1600 3394 1931 3394 
Q 2300 3394 2536 3241 
Q 2772 3088 2869 2813 
Q 3263 3394 3894 3394 
Q 4388 3394 4653 3120 
Q 4919 2847 4919 2278 
L 4919 0 
L 4359 0 
L 4359 2091 
Q 4359 2428 4304 2576 
Q 4250 2725 4106 2815 
Q 3963 2906 3769 2906 
Q 3419 2906 3187 2673 
Q 2956 2441 2956 1928 
L 2956 0 
L 2394 0 
L 2394 2156 
Q 2394 2531 2256 2718 
Q 2119 2906 1806 2906 
Q 1569 2906 1367 2781 
Q 1166 2656 1075 2415 
Q 984 2175 984 1722 
L 984 0 
L 422 0 
z
" transform="scale(0.015625)"/>
      <path id="ArialMT-74" d="M 1650 503 
L 1731 6 
Q 1494 -44 1306 -44 
Q 1000 -44 831 53 
Q 663 150 594 308 
Q 525 466 525 972 
L 525 2881 
L 113 2881 
L 113 3319 
L 525 3319 
L 525 4141 
L 1084 4478 
L 1084 3319 
L 1650 3319 
L 1650 2881 
L 1084 2881 
L 1084 941 
Q 1084 700 1114 631 
Q 1144 563 1211 522 
Q 1278 481 1403 481 
Q 1497 481 1650 503 
z
" transform="scale(0.015625)"/>
     </defs>
     <use xlink:href="#ArialMT-6e"/>
     <use xlink:href="#ArialMT-65" x="55.615234"/>
     <use xlink:href="#ArialMT-65" x="111.230469"/>
     <use xlink:href="#ArialMT-64" x="166.845703"/>
     <use xlink:href="#ArialMT-6c" x="222.460938"/>
     <use xlink:href="#ArialMT-65" x="244.677734"/>
     <use xlink:href="#ArialMT-5f" x="300.292969"/>
     <use xlink:href="#ArialMT-64" x="355.908203"/>
     <use xlink:href="#ArialMT-69" x="411.523438"/>
     <use xlink:href="#ArialMT-73" x="433.740234"/>
     <use xlink:href="#ArialMT-70" x="483.740234"/>
     <use xlink:href="#ArialMT-6c" x="539.355469"/>
     <use xlink:href="#ArialMT-61" x="561.572266"/>
     <use xlink:href="#ArialMT-63" x="617.1875"/>
     <use xlink:href="#ArialMT-65" x="667.1875"/>
     <use xlink:href="#ArialMT-6d" x="722.802734"/>
     <use xlink:href="#ArialMT-65" x="806.103516"/>
     <use xlink:href="#ArialMT-6e" x="861.71875"/>
     <use xlink:href="#ArialMT-74" x="917.333984"/>
     <use xlink:href="#ArialMT-5f" x="945.117188"/>
     <use xlink:href="#ArialMT-6d" x="1000.732422"/>
    </g>
   </g>
  </g>
  <g id="axes_2">
   <g id="patch_20">
    <path d="M 190.240328 114.116125 
L 352.47385 114.116125 
L 352.47385 20.1 
L 190.240328 20.1 
z
" style="fill: #ffffff"/>
   </g>
   <g id="matplotlib.axis_3">
    <g id="xtick_5">
     <g id="line2d_5">
      <g>
       <use xlink:href="#mc3c023df4e" x="223.894424" y="114.116125" style="fill: #262626; stroke: #262626"/>
      </g>
     </g>
     <g id="text_6">
      <!-- 2.0 -->
      <g style="fill: #262626" transform="translate(217.778424 128.715) scale(0.088 -0.088)">
       <use xlink:href="#ArialMT-32"/>
       <use xlink:href="#ArialMT-2e" x="55.615234"/>
       <use xlink:href="#ArialMT-30" x="83.398438"/>
      </g>
     </g>
    </g>
    <g id="xtick_6">
     <g id="line2d_6">
      <g>
       <use xlink:href="#mc3c023df4e" x="301.477167" y="114.116125" style="fill: #262626; stroke: #262626"/>
      </g>
     </g>
     <g id="text_7">
      <!-- 2.2 -->
      <g style="fill: #262626" transform="translate(295.361167 128.715) scale(0.088 -0.088)">
       <use xlink:href="#ArialMT-32"/>
       <use xlink:href="#ArialMT-2e" x="55.615234"/>
       <use xlink:href="#ArialMT-32" x="83.398438"/>
      </g>
     </g>
    </g>
   </g>
   <g id="matplotlib.axis_4"/>
   <g id="patch_21">
    <path d="M 197.614579 114.116125 
L 206.832393 114.116125 
L 206.832393 113.601532 
L 197.614579 113.601532 
z
" clip-path="url(#p66e8868fe2)" style="fill: #1f77b4; stroke: #ffffff; stroke-width: 0.8; stroke-linejoin: miter"/>
   </g>
   <g id="patch_22">
    <path d="M 206.832393 114.116125 
L 216.050207 114.116125 
L 216.050207 111.028568 
L 206.832393 111.028568 
z
" clip-path="url(#p66e8868fe2)" style="fill: #1f77b4; stroke: #ffffff; stroke-width: 0.8; stroke-linejoin: miter"/>
   </g>
   <g id="patch_23">
    <path d="M 216.050207 114.116125 
L 225.268021 114.116125 
L 225.268021 108.970196 
L 216.050207 108.970196 
z
" clip-path="url(#p66e8868fe2)" style="fill: #1f77b4; stroke: #ffffff; stroke-width: 0.8; stroke-linejoin: miter"/>
   </g>
   <g id="patch_24">
    <path d="M 225.268021 114.116125 
L 234.485834 114.116125 
L 234.485834 105.882638 
L 225.268021 105.882638 
z
" clip-path="url(#p66e8868fe2)" style="fill: #1f77b4; stroke: #ffffff; stroke-width: 0.8; stroke-linejoin: miter"/>
   </g>
   <g id="patch_25">
    <path d="M 234.485834 114.116125 
L 243.703648 114.116125 
L 243.703648 84.784329 
L 234.485834 84.784329 
z
" clip-path="url(#p66e8868fe2)" style="fill: #1f77b4; stroke: #ffffff; stroke-width: 0.8; stroke-linejoin: miter"/>
   </g>
   <g id="patch_26">
    <path d="M 243.703648 114.116125 
L 252.921462 114.116125 
L 252.921462 74.492471 
L 243.703648 74.492471 
z
" clip-path="url(#p66e8868fe2)" style="fill: #1f77b4; stroke: #ffffff; stroke-width: 0.8; stroke-linejoin: miter"/>
   </g>
   <g id="patch_27">
    <path d="M 252.921462 114.116125 
L 262.139275 114.116125 
L 262.139275 46.704454 
L 252.921462 46.704454 
z
" clip-path="url(#p66e8868fe2)" style="fill: #1f77b4; stroke: #ffffff; stroke-width: 0.8; stroke-linejoin: miter"/>
   </g>
   <g id="patch_28">
    <path d="M 262.139275 114.116125 
L 271.357089 114.116125 
L 271.357089 42.58771 
L 262.139275 42.58771 
z
" clip-path="url(#p66e8868fe2)" style="fill: #1f77b4; stroke: #ffffff; stroke-width: 0.8; stroke-linejoin: miter"/>
   </g>
   <g id="patch_29">
    <path d="M 271.357089 114.116125 
L 280.574903 114.116125 
L 280.574903 24.576958 
L 271.357089 24.576958 
z
" clip-path="url(#p66e8868fe2)" style="fill: #1f77b4; stroke: #ffffff; stroke-width: 0.8; stroke-linejoin: miter"/>
   </g>
   <g id="patch_30">
    <path d="M 280.574903 114.116125 
L 289.792716 114.116125 
L 289.792716 34.868817 
L 280.574903 34.868817 
z
" clip-path="url(#p66e8868fe2)" style="fill: #1f77b4; stroke: #ffffff; stroke-width: 0.8; stroke-linejoin: miter"/>
   </g>
   <g id="patch_31">
    <path d="M 289.792716 114.116125 
L 299.01053 114.116125 
L 299.01053 64.715205 
L 289.792716 64.715205 
z
" clip-path="url(#p66e8868fe2)" style="fill: #1f77b4; stroke: #ffffff; stroke-width: 0.8; stroke-linejoin: miter"/>
   </g>
   <g id="patch_32">
    <path d="M 299.01053 114.116125 
L 308.228344 114.116125 
L 308.228344 78.094621 
L 299.01053 78.094621 
z
" clip-path="url(#p66e8868fe2)" style="fill: #1f77b4; stroke: #ffffff; stroke-width: 0.8; stroke-linejoin: miter"/>
   </g>
   <g id="patch_33">
    <path d="M 308.228344 114.116125 
L 317.446158 114.116125 
L 317.446158 91.98863 
L 308.228344 91.98863 
z
" clip-path="url(#p66e8868fe2)" style="fill: #1f77b4; stroke: #ffffff; stroke-width: 0.8; stroke-linejoin: miter"/>
   </g>
   <g id="patch_34">
    <path d="M 317.446158 114.116125 
L 326.663971 114.116125 
L 326.663971 103.824267 
L 317.446158 103.824267 
z
" clip-path="url(#p66e8868fe2)" style="fill: #1f77b4; stroke: #ffffff; stroke-width: 0.8; stroke-linejoin: miter"/>
   </g>
   <g id="patch_35">
    <path d="M 326.663971 114.116125 
L 335.881785 114.116125 
L 335.881785 113.086939 
L 326.663971 113.086939 
z
" clip-path="url(#p66e8868fe2)" style="fill: #1f77b4; stroke: #ffffff; stroke-width: 0.8; stroke-linejoin: miter"/>
   </g>
   <g id="patch_36">
    <path d="M 335.881785 114.116125 
L 345.099599 114.116125 
L 345.099599 112.057753 
L 335.881785 112.057753 
z
" clip-path="url(#p66e8868fe2)" style="fill: #1f77b4; stroke: #ffffff; stroke-width: 0.8; stroke-linejoin: miter"/>
   </g>
   <g id="patch_37">
    <path d="M 223.894424 114.116125 
L 301.477167 114.116125 
" style="fill: none; stroke: #262626; stroke-linejoin: miter; stroke-linecap: square"/>
   </g>
   <g id="text_8">
    <!-- injection_time_s -->
    <g style="fill: #262626" transform="translate(236.941089 14.1) scale(0.096 -0.096)">
     <defs>
      <path id="ArialMT-6a" d="M 419 3928 
L 419 4581 
L 981 4581 
L 981 3928 
L 419 3928 
z
M -294 -1288 
L -188 -809 
Q -19 -853 78 -853 
Q 250 -853 334 -739 
Q 419 -625 419 -169 
L 419 3319 
L 981 3319 
L 981 -181 
Q 981 -794 822 -1034 
Q 619 -1347 147 -1347 
Q -81 -1347 -294 -1288 
z
" transform="scale(0.015625)"/>
      <path id="ArialMT-6f" d="M 213 1659 
Q 213 2581 725 3025 
Q 1153 3394 1769 3394 
Q 2453 3394 2887 2945 
Q 3322 2497 3322 1706 
Q 3322 1066 3130 698 
Q 2938 331 2570 128 
Q 2203 -75 1769 -75 
Q 1072 -75 642 372 
Q 213 819 213 1659 
z
M 791 1659 
Q 791 1022 1069 705 
Q 1347 388 1769 388 
Q 2188 388 2466 706 
Q 2744 1025 2744 1678 
Q 2744 2294 2464 2611 
Q 2184 2928 1769 2928 
Q 1347 2928 1069 2612 
Q 791 2297 791 1659 
z
" transform="scale(0.015625)"/>
     </defs>
     <use xlink:href="#ArialMT-69"/>
     <use xlink:href="#ArialMT-6e" x="22.216797"/>
     <use xlink:href="#ArialMT-6a" x="77.832031"/>
     <use xlink:href="#ArialMT-65" x="100.048828"/>
     <use xlink:href="#ArialMT-63" x="155.664062"/>
     <use xlink:href="#ArialMT-74" x="205.664062"/>
     <use xlink:href="#ArialMT-69" x="233.447266"/>
     <use xlink:href="#ArialMT-6f" x="255.664062"/>
     <use xlink:href="#ArialMT-6e" x="311.279297"/>
     <use xlink:href="#ArialMT-5f" x="366.894531"/>
     <use xlink:href="#ArialMT-74" x="422.509766"/>
     <use xlink:href="#ArialMT-69" x="450.292969"/>
     <use xlink:href="#ArialMT-6d" x="472.509766"/>
     <use xlink:href="#ArialMT-65" x="555.810547"/>
     <use xlink:href="#ArialMT-5f" x="611.425781"/>
     <use xlink:href="#ArialMT-73" x="667.041016"/>
    </g>
   </g>
  </g>
  <g id="axes_3">
   <g id="patch_38">
    <path d="M 367.163247 114.116125 
L 529.396769 114.116125 
L 529.396769 20.1 
L 367.163247 20.1 
z
" style="fill: #ffffff"/>
   </g>
   <g id="matplotlib.axis_5">
    <g id="xtick_7">
     <g id="line2d_7">
      <g>
       <use xlink:href="#mc3c023df4e" x="383.807743" y="114.116125" style="fill: #262626; stroke: #262626"/>
      </g>
     </g>
     <g id="text_9">
      <!-- 80000 -->
      <g style="fill: #262626" transform="translate(371.57368 128.715) scale(0.088 -0.088)">
       <defs>
        <path id="ArialMT-38" d="M 1131 2484 
Q 781 2613 612 2850 
Q 444 3088 444 3419 
Q 444 3919 803 4259 
Q 1163 4600 1759 4600 
Q 2359 4600 2725 4251 
Q 3091 3903 3091 3403 
Q 3091 3084 2923 2848 
Q 2756 2613 2416 2484 
Q 2838 2347 3058 2040 
Q 3278 1734 3278 1309 
Q 3278 722 2862 322 
Q 2447 -78 1769 -78 
Q 1091 -78 675 323 
Q 259 725 259 1325 
Q 259 1772 486 2073 
Q 713 2375 1131 2484 
z
M 1019 3438 
Q 1019 3113 1228 2906 
Q 1438 2700 1772 2700 
Q 2097 2700 2305 2904 
Q 2513 3109 2513 3406 
Q 2513 3716 2298 3927 
Q 2084 4138 1766 4138 
Q 1444 4138 1231 3931 
Q 1019 3725 1019 3438 
z
M 838 1322 
Q 838 1081 952 856 
Q 1066 631 1291 507 
Q 1516 384 1775 384 
Q 2178 384 2440 643 
Q 2703 903 2703 1303 
Q 2703 1709 2433 1975 
Q 2163 2241 1756 2241 
Q 1359 2241 1098 1978 
Q 838 1716 838 1322 
z
" transform="scale(0.015625)"/>
       </defs>
       <use xlink:href="#ArialMT-38"/>
       <use xlink:href="#ArialMT-30" x="55.615234"/>
       <use xlink:href="#ArialMT-30" x="111.230469"/>
       <use xlink:href="#ArialMT-30" x="166.845703"/>
       <use xlink:href="#ArialMT-30" x="222.460938"/>
      </g>
     </g>
    </g>
    <g id="xtick_8">
     <g id="line2d_8">
      <g>
       <use xlink:href="#mc3c023df4e" x="458.511918" y="114.116125" style="fill: #262626; stroke: #262626"/>
      </g>
     </g>
     <g id="text_10">
      <!-- 100000 -->
      <g style="fill: #262626" transform="translate(443.831043 128.715) scale(0.088 -0.088)">
       <defs>
        <path id="ArialMT-31" d="M 2384 0 
L 1822 0 
L 1822 3584 
Q 1619 3391 1289 3197 
Q 959 3003 697 2906 
L 697 3450 
Q 1169 3672 1522 3987 
Q 1875 4303 2022 4600 
L 2384 4600 
L 2384 0 
z
" transform="scale(0.015625)"/>
       </defs>
       <use xlink:href="#ArialMT-31"/>
       <use xlink:href="#ArialMT-30" x="55.615234"/>
       <use xlink:href="#ArialMT-30" x="111.230469"/>
       <use xlink:href="#ArialMT-30" x="166.845703"/>
       <use xlink:href="#ArialMT-30" x="222.460938"/>
       <use xlink:href="#ArialMT-30" x="278.076172"/>
      </g>
     </g>
    </g>
   </g>
   <g id="matplotlib.axis_6"/>
   <g id="patch_39">
    <path d="M 374.537498 114.116125 
L 383.755312 114.116125 
L 383.755312 113.586307 
L 374.537498 113.586307 
z
" clip-path="url(#p5e23663c50)" style="fill: #1f77b4; stroke: #ffffff; stroke-width: 0.8; stroke-linejoin: miter"/>
   </g>
   <g id="patch_40">
    <path d="M 383.755312 114.116125 
L 392.973126 114.116125 
L 392.973126 110.407402 
L 383.755312 110.407402 
z
" clip-path="url(#p5e23663c50)" style="fill: #1f77b4; stroke: #ffffff; stroke-width: 0.8; stroke-linejoin: miter"/>
   </g>
   <g id="patch_41">
    <path d="M 392.973126 114.116125 
L 402.19094 114.116125 
L 402.19094 106.698679 
L 392.973126 106.698679 
z
" clip-path="url(#p5e23663c50)" style="fill: #1f77b4; stroke: #ffffff; stroke-width: 0.8; stroke-linejoin: miter"/>
   </g>
   <g id="patch_42">
    <path d="M 402.19094 114.116125 
L 411.408753 114.116125 
L 411.408753 100.870686 
L 402.19094 100.870686 
z
" clip-path="url(#p5e23663c50)" style="fill: #1f77b4; stroke: #ffffff; stroke-width: 0.8; stroke-linejoin: miter"/>
   </g>
   <g id="patch_43">
    <path d="M 411.408753 114.116125 
L 420.626567 114.116125 
L 420.626567 74.379808 
L 411.408753 74.379808 
z
" clip-path="url(#p5e23663c50)" style="fill: #1f77b4; stroke: #ffffff; stroke-width: 0.8; stroke-linejoin: miter"/>
   </g>
   <g id="patch_44">
    <path d="M 420.626567 114.116125 
L 429.844381 114.116125 
L 429.844381 67.49218 
L 420.626567 67.49218 
z
" clip-path="url(#p5e23663c50)" style="fill: #1f77b4; stroke: #ffffff; stroke-width: 0.8; stroke-linejoin: miter"/>
   </g>
   <g id="patch_45">
    <path d="M 429.844381 114.116125 
L 439.062194 114.116125 
L 439.062194 34.643492 
L 429.844381 34.643492 
z
" clip-path="url(#p5e23663c50)" style="fill: #1f77b4; stroke: #ffffff; stroke-width: 0.8; stroke-linejoin: miter"/>
   </g>
   <g id="patch_46">
    <path d="M 439.062194 114.116125 
L 448.280008 114.116125 
L 448.280008 24.576958 
L 439.062194 24.576958 
z
" clip-path="url(#p5e23663c50)" style="fill: #1f77b4; stroke: #ffffff; stroke-width: 0.8; stroke-linejoin: miter"/>
   </g>
   <g id="patch_47">
    <path d="M 448.280008 114.116125 
L 457.497822 114.116125 
L 457.497822 33.054039 
L 448.280008 33.054039 
z
" clip-path="url(#p5e23663c50)" style="fill: #1f77b4; stroke: #ffffff; stroke-width: 0.8; stroke-linejoin: miter"/>
   </g>
   <g id="patch_48">
    <path d="M 457.497822 114.116125 
L 466.715636 114.116125 
L 466.715636 43.120573 
L 457.497822 43.120573 
z
" clip-path="url(#p5e23663c50)" style="fill: #1f77b4; stroke: #ffffff; stroke-width: 0.8; stroke-linejoin: miter"/>
   </g>
   <g id="patch_49">
    <path d="M 466.715636 114.116125 
L 475.933449 114.116125 
L 475.933449 75.439444 
L 466.715636 75.439444 
z
" clip-path="url(#p5e23663c50)" style="fill: #1f77b4; stroke: #ffffff; stroke-width: 0.8; stroke-linejoin: miter"/>
   </g>
   <g id="patch_50">
    <path d="M 475.933449 114.116125 
L 485.151263 114.116125 
L 485.151263 78.618349 
L 475.933449 78.618349 
z
" clip-path="url(#p5e23663c50)" style="fill: #1f77b4; stroke: #ffffff; stroke-width: 0.8; stroke-linejoin: miter"/>
   </g>
   <g id="patch_51">
    <path d="M 485.151263 114.116125 
L 494.369077 114.116125 
L 494.369077 102.989956 
L 485.151263 102.989956 
z
" clip-path="url(#p5e23663c50)" style="fill: #1f77b4; stroke: #ffffff; stroke-width: 0.8; stroke-linejoin: miter"/>
   </g>
   <g id="patch_52">
    <path d="M 494.369077 114.116125 
L 503.58689 114.116125 
L 503.58689 104.579409 
L 494.369077 104.579409 
z
" clip-path="url(#p5e23663c50)" style="fill: #1f77b4; stroke: #ffffff; stroke-width: 0.8; stroke-linejoin: miter"/>
   </g>
   <g id="patch_53">
    <path d="M 503.58689 114.116125 
L 512.804704 114.116125 
L 512.804704 113.586307 
L 503.58689 113.586307 
z
" clip-path="url(#p5e23663c50)" style="fill: #1f77b4; stroke: #ffffff; stroke-width: 0.8; stroke-linejoin: miter"/>
   </g>
   <g id="patch_54">
    <path d="M 512.804704 114.116125 
L 522.022518 114.116125 
L 522.022518 111.996855 
L 512.804704 111.996855 
z
" clip-path="url(#p5e23663c50)" style="fill: #1f77b4; stroke: #ffffff; stroke-width: 0.8; stroke-linejoin: miter"/>
   </g>
   <g id="patch_55">
    <path d="M 383.807743 114.116125 
L 458.511918 114.116125 
" style="fill: none; stroke: #262626; stroke-linejoin: miter; stroke-linecap: square"/>
   </g>
   <g id="text_11">
    <!-- max_acceleration_m_per_s2 -->
    <g style="fill: #262626" transform="translate(386.651008 14.1) scale(0.096 -0.096)">
     <defs>
      <path id="ArialMT-78" d="M 47 0 
L 1259 1725 
L 138 3319 
L 841 3319 
L 1350 2541 
Q 1494 2319 1581 2169 
Q 1719 2375 1834 2534 
L 2394 3319 
L 3066 3319 
L 1919 1756 
L 3153 0 
L 2463 0 
L 1781 1031 
L 1600 1309 
L 728 0 
L 47 0 
z
" transform="scale(0.015625)"/>
      <path id="ArialMT-72" d="M 416 0 
L 416 3319 
L 922 3319 
L 922 2816 
Q 1116 3169 1280 3281 
Q 1444 3394 1641 3394 
Q 1925 3394 2219 3213 
L 2025 2691 
Q 1819 2813 1613 2813 
Q 1428 2813 1281 2702 
Q 1134 2591 1072 2394 
Q 978 2094 978 1738 
L 978 0 
L 416 0 
z
" transform="scale(0.015625)"/>
     </defs>
     <use xlink:href="#ArialMT-6d"/>
     <use xlink:href="#ArialMT-61" x="83.300781"/>
     <use xlink:href="#ArialMT-78" x="138.916016"/>
     <use xlink:href="#ArialMT-5f" x="188.916016"/>
     <use xlink:href="#ArialMT-61" x="244.53125"/>
     <use xlink:href="#ArialMT-63" x="300.146484"/>
     <use xlink:href="#ArialMT-63" x="350.146484"/>
     <use xlink:href="#ArialMT-65" x="400.146484"/>
     <use xlink:href="#ArialMT-6c" x="455.761719"/>
     <use xlink:href="#ArialMT-65" x="477.978516"/>
     <use xlink:href="#ArialMT-72" x="533.59375"/>
     <use xlink:href="#ArialMT-61" x="566.894531"/>
     <use xlink:href="#ArialMT-74" x="622.509766"/>
     <use xlink:href="#ArialMT-69" x="650.292969"/>
     <use xlink:href="#ArialMT-6f" x="672.509766"/>
     <use xlink:href="#ArialMT-6e" x="728.125"/>
     <use xlink:href="#ArialMT-5f" x="783.740234"/>
     <use xlink:href="#ArialMT-6d" x="839.355469"/>
     <use xlink:href="#ArialMT-5f" x="922.65625"/>
     <use xlink:href="#ArialMT-70" x="978.271484"/>
     <use xlink:href="#ArialMT-65" x="1033.886719"/>
     <use xlink:href="#ArialMT-72" x="1089.501953"/>
     <use xlink:href="#ArialMT-5f" x="1122.802734"/>
     <use xlink:href="#ArialMT-73" x="1178.417969"/>
     <use xlink:href="#ArialMT-32" x="1228.417969"/>
    </g>
   </g>
  </g>
  <g id="axes_4">
   <g id="patch_56">
    <path d="M 544.086166 114.116125 
L 706.319688 114.116125 
L 706.319688 20.1 
L 544.086166 20.1 
z
" style="fill: #ffffff"/>
   </g>
   <g id="matplotlib.axis_7">
    <g id="xtick_9">
     <g id="line2d_9">
      <g>
       <use xlink:href="#mc3c023df4e" x="588.822882" y="114.116125" style="fill: #262626; stroke: #262626"/>
      </g>
     </g>
     <g id="text_12">
      <!-- 42000 -->
      <g style="fill: #262626" transform="translate(576.58882 128.715) scale(0.088 -0.088)">
       <defs>
        <path id="ArialMT-34" d="M 2069 0 
L 2069 1097 
L 81 1097 
L 81 1613 
L 2172 4581 
L 2631 4581 
L 2631 1613 
L 3250 1613 
L 3250 1097 
L 2631 1097 
L 2631 0 
L 2069 0 
z
M 2069 1613 
L 2069 3678 
L 634 1613 
L 2069 1613 
z
" transform="scale(0.015625)"/>
       </defs>
       <use xlink:href="#ArialMT-34"/>
       <use xlink:href="#ArialMT-32" x="55.615234"/>
       <use xlink:href="#ArialMT-30" x="111.230469"/>
       <use xlink:href="#ArialMT-30" x="166.845703"/>
       <use xlink:href="#ArialMT-30" x="222.460938"/>
      </g>
     </g>
    </g>
    <g id="xtick_10">
     <g id="line2d_10">
      <g>
       <use xlink:href="#mc3c023df4e" x="648.406513" y="114.116125" style="fill: #262626; stroke: #262626"/>
      </g>
     </g>
     <g id="text_13">
      <!-- 42500 -->
      <g style="fill: #262626" transform="translate(636.17245 128.715) scale(0.088 -0.088)">
       <use xlink:href="#ArialMT-34"/>
       <use xlink:href="#ArialMT-32" x="55.615234"/>
       <use xlink:href="#ArialMT-35" x="111.230469"/>
       <use xlink:href="#ArialMT-30" x="166.845703"/>
       <use xlink:href="#ArialMT-30" x="222.460938"/>
      </g>
     </g>
    </g>
   </g>
   <g id="matplotlib.axis_8"/>
   <g id="patch_57">
    <path d="M 551.460417 114.116125 
L 560.678231 114.116125 
L 560.678231 113.586307 
L 551.460417 113.586307 
z
" clip-path="url(#p7231a796a1)" style="fill: #1f77b4; stroke: #ffffff; stroke-width: 0.8; stroke-linejoin: miter"/>
   </g>
   <g id="patch_58">
    <path d="M 560.678231 114.116125 
L 569.896045 114.116125 
L 569.896045 111.996855 
L 560.678231 111.996855 
z
" clip-path="url(#p7231a796a1)" style="fill: #1f77b4; stroke: #ffffff; stroke-width: 0.8; stroke-linejoin: miter"/>
   </g>
   <g id="patch_59">
    <path d="M 569.896045 114.116125 
L 579.113859 114.116125 
L 579.113859 109.877585 
L 569.896045 109.877585 
z
" clip-path="url(#p7231a796a1)" style="fill: #1f77b4; stroke: #ffffff; stroke-width: 0.8; stroke-linejoin: miter"/>
   </g>
   <g id="patch_60">
    <path d="M 579.113859 114.116125 
L 588.331672 114.116125 
L 588.331672 106.168862 
L 579.113859 106.168862 
z
" clip-path="url(#p7231a796a1)" style="fill: #1f77b4; stroke: #ffffff; stroke-width: 0.8; stroke-linejoin: miter"/>
   </g>
   <g id="patch_61">
    <path d="M 588.331672 114.116125 
L 597.549486 114.116125 
L 597.549486 95.042693 
L 588.331672 95.042693 
z
" clip-path="url(#p7231a796a1)" style="fill: #1f77b4; stroke: #ffffff; stroke-width: 0.8; stroke-linejoin: miter"/>
   </g>
   <g id="patch_62">
    <path d="M 597.549486 114.116125 
L 606.7673 114.116125 
L 606.7673 73.849991 
L 597.549486 73.849991 
z
" clip-path="url(#p7231a796a1)" style="fill: #1f77b4; stroke: #ffffff; stroke-width: 0.8; stroke-linejoin: miter"/>
   </g>
   <g id="patch_63">
    <path d="M 606.7673 114.116125 
L 615.985113 114.116125 
L 615.985113 61.13437 
L 606.7673 61.13437 
z
" clip-path="url(#p7231a796a1)" style="fill: #1f77b4; stroke: #ffffff; stroke-width: 0.8; stroke-linejoin: miter"/>
   </g>
   <g id="patch_64">
    <path d="M 615.985113 114.116125 
L 625.202927 114.116125 
L 625.202927 36.762762 
L 615.985113 36.762762 
z
" clip-path="url(#p7231a796a1)" style="fill: #1f77b4; stroke: #ffffff; stroke-width: 0.8; stroke-linejoin: miter"/>
   </g>
   <g id="patch_65">
    <path d="M 625.202927 114.116125 
L 634.420741 114.116125 
L 634.420741 24.576958 
L 625.202927 24.576958 
z
" clip-path="url(#p7231a796a1)" style="fill: #1f77b4; stroke: #ffffff; stroke-width: 0.8; stroke-linejoin: miter"/>
   </g>
   <g id="patch_66">
    <path d="M 634.420741 114.116125 
L 643.638555 114.116125 
L 643.638555 27.755864 
L 634.420741 27.755864 
z
" clip-path="url(#p7231a796a1)" style="fill: #1f77b4; stroke: #ffffff; stroke-width: 0.8; stroke-linejoin: miter"/>
   </g>
   <g id="patch_67">
    <path d="M 643.638555 114.116125 
L 652.856368 114.116125 
L 652.856368 52.657289 
L 643.638555 52.657289 
z
" clip-path="url(#p7231a796a1)" style="fill: #1f77b4; stroke: #ffffff; stroke-width: 0.8; stroke-linejoin: miter"/>
   </g>
   <g id="patch_68">
    <path d="M 652.856368 114.116125 
L 662.074182 114.116125 
L 662.074182 71.200903 
L 652.856368 71.200903 
z
" clip-path="url(#p7231a796a1)" style="fill: #1f77b4; stroke: #ffffff; stroke-width: 0.8; stroke-linejoin: miter"/>
   </g>
   <g id="patch_69">
    <path d="M 662.074182 114.116125 
L 671.291996 114.116125 
L 671.291996 85.505977 
L 662.074182 85.505977 
z
" clip-path="url(#p7231a796a1)" style="fill: #1f77b4; stroke: #ffffff; stroke-width: 0.8; stroke-linejoin: miter"/>
   </g>
   <g id="patch_70">
    <path d="M 671.291996 114.116125 
L 680.509809 114.116125 
L 680.509809 101.400504 
L 671.291996 101.400504 
z
" clip-path="url(#p7231a796a1)" style="fill: #1f77b4; stroke: #ffffff; stroke-width: 0.8; stroke-linejoin: miter"/>
   </g>
   <g id="patch_71">
    <path d="M 680.509809 114.116125 
L 689.727623 114.116125 
L 689.727623 112.526672 
L 680.509809 112.526672 
z
" clip-path="url(#p7231a796a1)" style="fill: #1f77b4; stroke: #ffffff; stroke-width: 0.8; stroke-linejoin: miter"/>
   </g>
   <g id="patch_72">
    <path d="M 689.727623 114.116125 
L 698.945437 114.116125 
L 698.945437 111.996855 
L 689.727623 111.996855 
z
" clip-path="url(#p7231a796a1)" style="fill: #1f77b4; stroke: #ffffff; stroke-width: 0.8; stroke-linejoin: miter"/>
   </g>
   <g id="patch_73">
    <path d="M 588.822882 114.116125 
L 648.406513 114.116125 
" style="fill: none; stroke: #262626; stroke-linejoin: miter; stroke-linecap: square"/>
   </g>
   <g id="text_14">
    <!-- max_deceleration_m_per_s2 -->
    <g style="fill: #262626" transform="translate(563.304677 14.1) scale(0.096 -0.096)">
     <use xlink:href="#ArialMT-6d"/>
     <use xlink:href="#ArialMT-61" x="83.300781"/>
     <use xlink:href="#ArialMT-78" x="138.916016"/>
     <use xlink:href="#ArialMT-5f" x="188.916016"/>
     <use xlink:href="#ArialMT-64" x="244.53125"/>
     <use xlink:href="#ArialMT-65" x="300.146484"/>
     <use xlink:href="#ArialMT-63" x="355.761719"/>
     <use xlink:href="#ArialMT-65" x="405.761719"/>
     <use xlink:href="#ArialMT-6c" x="461.376953"/>
     <use xlink:href="#ArialMT-65" x="483.59375"/>
     <use xlink:href="#ArialMT-72" x="539.208984"/>
     <use xlink:href="#ArialMT-61" x="572.509766"/>
     <use xlink:href="#ArialMT-74" x="628.125"/>
     <use xlink:href="#ArialMT-69" x="655.908203"/>
     <use xlink:href="#ArialMT-6f" x="678.125"/>
     <use xlink:href="#ArialMT-6e" x="733.740234"/>
     <use xlink:href="#ArialMT-5f" x="789.355469"/>
     <use xlink:href="#ArialMT-6d" x="844.970703"/>
     <use xlink:href="#ArialMT-5f" x="928.271484"/>
     <use xlink:href="#ArialMT-70" x="983.886719"/>
     <use xlink:href="#ArialMT-65" x="1039.501953"/>
     <use xlink:href="#ArialMT-72" x="1095.117188"/>
     <use xlink:href="#ArialMT-5f" x="1128.417969"/>
     <use xlink:href="#ArialMT-73" x="1184.033203"/>
     <use xlink:href="#ArialMT-32" x="1234.033203"/>
    </g>
   </g>
  </g>
 </g>
 <defs>
  <clipPath id="pb6bc756e0c">
   <rect x="13.317409" y="20.1" width="162.233521" height="94.016125"/>
  </clipPath>
  <clipPath id="p66e8868fe2">
   <rect x="190.240328" y="20.1" width="162.233521" height="94.016125"/>
  </clipPath>
  <clipPath id="p5e23663c50">
   <rect x="367.163247" y="20.1" width="162.233521" height="94.016125"/>
  </clipPath>
  <clipPath id="p7231a796a1">
   <rect x="544.086166" y="20.1" width="162.233521" height="94.016125"/>
  </clipPath>
 </defs>
</svg>