<?xml version="1.0" encoding="utf-8" standalone="no"?>
<!DOCTYPE svg PUBLIC "-//W3C//DTD SVG 1.1//EN"
  "http://www.w3.org/Graphics/SVG/1.1/DTD/svg11.dtd">
<svg xmlns:xlink="http://www.w3.org/1999/xlink" width="220.25125pt" height="167.278875pt" viewBox="0 0 220.25125 167.278875" xmlns="http://www.w3.org/2000/svg" version="1.1">
 <metadata>
  <rdf:RDF xmlns:dc="http://purl.org/dc/elements/1.1/" xmlns:cc="http://creativecommons.org/ns#" xmlns:rdf="http://www.w3.org/1999/02/22-rdf-syntax-ns#">
   <cc:Work>
    <dc:type rdf:resource="http://purl.org/dc/dcmitype/StillImage"/>
    <dc:date>2024-10-17T14:55:41.617266</dc:date>
    <dc:format>image/svg+xml</dc:format>
    <dc:creator>
     <cc:Agent>
      <dc:title>Matplotlib v3.9.2, https://matplotlib.org/</dc:title>
     </cc:Agent>
    </dc:creator>
   </cc:Work>
  </rdf:RDF>
 </metadata>
 <defs>
  <style type="text/css">*{stroke-linejoin: round; stroke-linecap: butt}</style>
 </defs>
 <g id="figure_1">
  <g id="patch_1">
   <path d="M 0 167.278875 
L 220.25125 167.278875 
L 220.25125 0 
L 0 0 
z
" style="fill: #ffffff"/>
  </g>
  <g id="axes_1">
   <g id="patch_2">
    <path d="M 45.65125 130.9515 
L 213.05125 130.9515 
L 213.05125 20.0715 
L 45.65125 20.0715 
z
" style="fill: #ffffff"/>
   </g>
   <g id="matplotlib.axis_1">
    <g id="xtick_1">
     <g id="line2d_1">
      <defs>
       <path id="mb68a950d5e" d="M 0 0 
L 0 4.8 
" style="stroke: #262626"/>
      </defs>
      <g>
       <use xlink:href="#mb68a950d5e" x="53.260341" y="130.9515" style="fill: #262626; stroke: #262626"/>
      </g>
     </g>
     <g id="text_1">
      <!-- 0.0 -->
      <g style="fill: #262626" transform="translate(47.144341 145.550375) scale(0.088 -0.088)">
       <defs>
        <path id="ArialMT-30" d="M 266 2259 
Q 266 3072 433 3567 
Q 600 4063 929 4331 
Q 1259 4600 1759 4600 
Q 2128 4600 2406 4451 
Q 2684 4303 2865 4023 
Q 3047 3744 3150 3342 
Q 3253 2941 3253 2259 
Q 3253 1453 3087 958 
Q 2922 463 2592 192 
Q 2263 -78 1759 -78 
Q 1097 -78 719 397 
Q 266 969 266 2259 
z
M 844 2259 
Q 844 1131 1108 757 
Q 1372 384 1759 384 
Q 2147 384 2411 759 
Q 2675 1134 2675 2259 
Q 2675 3391 2411 3762 
Q 2147 4134 1753 4134 
Q 1366 4134 1134 3806 
Q 844 3388 844 2259 
z
" transform="scale(0.015625)"/>
        <path id="ArialMT-2e" d="M 581 0 
L 581 641 
L 1222 641 
L 1222 0 
L 581 0 
z
" transform="scale(0.015625)"/>
       </defs>
       <use xlink:href="#ArialMT-30"/>
       <use xlink:href="#ArialMT-2e" x="55.615234"/>
       <use xlink:href="#ArialMT-30" x="83.398438"/>
      </g>
     </g>
    </g>
    <g id="xtick_2">
     <g id="line2d_2">
      <g>
       <use xlink:href="#mb68a950d5e" x="83.696705" y="130.9515" style="fill: #262626; stroke: #262626"/>
      </g>
     </g>
     <g id="text_2">
      <!-- 0.2 -->
      <g style="fill: #262626" transform="translate(77.580705 145.550375) scale(0.088 -0.088)">
       <defs>
        <path id="ArialMT-32" d="M 3222 541 
L 3222 0 
L 194 0 
Q 188 203 259 391 
Q 375 700 629 1000 
Q 884 1300 1366 1694 
Q 2113 2306 2375 2664 
Q 2638 3022 2638 3341 
Q 2638 3675 2398 3904 
Q 2159 4134 1775 4134 
Q 1369 4134 1125 3890 
Q 881 3647 878 3216 
L 300 3275 
Q 359 3922 746 4261 
Q 1134 4600 1788 4600 
Q 2447 4600 2831 4234 
Q 3216 3869 3216 3328 
Q 3216 3053 3103 2787 
Q 2991 2522 2730 2228 
Q 2469 1934 1863 1422 
Q 1356 997 1212 845 
Q 1069 694 975 541 
L 3222 541 
z
" transform="scale(0.015625)"/>
       </defs>
       <use xlink:href="#ArialMT-30"/>
       <use xlink:href="#ArialMT-2e" x="55.615234"/>
       <use xlink:href="#ArialMT-32" x="83.398438"/>
      </g>
     </g>
    </g>
    <g id="xtick_3">
     <g id="line2d_3">
      <g>
       <use xlink:href="#mb68a950d5e" x="114.133068" y="130.9515" style="fill: #262626; stroke: #262626"/>
      </g>
     </g>
     <g id="text_3">
      <!-- 0.4 -->
      <g style="fill: #262626" transform="translate(108.017068 145.550375) scale(0.088 -0.088)">
       <defs>
        <path id="ArialMT-34" d="M 2069 0 
L 2069 1097 
L 81 1097 
L 81 1613 
L 2172 4581 
L 2631 4581 
L 2631 1613 
L 3250 1613 
L 3250 1097 
L 2631 1097 
L 2631 0 
L 2069 0 
z
M 2069 1613 
L 2069 3678 
L 634 1613 
L 2069 1613 
z
" transform="scale(0.015625)"/>
       </defs>
       <use xlink:href="#ArialMT-30"/>
       <use xlink:href="#ArialMT-2e" x="55.615234"/>
       <use xlink:href="#ArialMT-34" x="83.398438"/>
      </g>
     </g>
    </g>
    <g id="xtick_4">
     <g id="line2d_4">
      <g>
       <use xlink:href="#mb68a950d5e" x="144.569432" y="130.9515" style="fill: #262626; stroke: #262626"/>
      </g>
     </g>
     <g id="text_4">
      <!-- 0.6 -->
      <g style="fill: #262626" transform="translate(138.453432 145.550375) scale(0.088 -0.088)">
       <defs>
        <path id="ArialMT-36" d="M 3184 3459 
L 2625 3416 
Q 2550 3747 2413 3897 
Q 2184 4138 1850 4138 
Q 1581 4138 1378 3988 
Q 1113 3794 959 3422 
Q 806 3050 800 2363 
Q 1003 2672 1297 2822 
Q 1591 2972 1913 2972 
Q 2475 2972 2870 2558 
Q 3266 2144 3266 1488 
Q 3266 1056 3080 686 
Q 2894 316 2569 119 
Q 2244 -78 1831 -78 
Q 1128 -78 684 439 
Q 241 956 241 2144 
Q 241 3472 731 4075 
Q 1159 4600 1884 4600 
Q 2425 4600 2770 4297 
Q 3116 3994 3184 3459 
z
M 888 1484 
Q 888 1194 1011 928 
Q 1134 663 1356 523 
Q 1578 384 1822 384 
Q 2178 384 2434 671 
Q 2691 959 2691 1453 
Q 2691 1928 2437 2201 
Q 2184 2475 1800 2475 
Q 1419 2475 1153 2201 
Q 888 1928 888 1484 
z
" transform="scale(0.015625)"/>
       </defs>
       <use xlink:href="#ArialMT-30"/>
       <use xlink:href="#ArialMT-2e" x="55.615234"/>
       <use xlink:href="#ArialMT-36" x="83.398438"/>
      </g>
     </g>
    </g>
    <g id="xtick_5">
     <g id="line2d_5">
      <g>
       <use xlink:href="#mb68a950d5e" x="175.005795" y="130.9515" style="fill: #262626; stroke: #262626"/>
      </g>
     </g>
     <g id="text_5">
      <!-- 0.8 -->
      <g style="fill: #262626" transform="translate(168.889795 145.550375) scale(0.088 -0.088)">
       <defs>
        <path id="ArialMT-38" d="M 1131 2484 
Q 781 2613 612 2850 
Q 444 3088 444 3419 
Q 444 3919 803 4259 
Q 1163 4600 1759 4600 
Q 2359 4600 2725 4251 
Q 3091 3903 3091 3403 
Q 3091 3084 2923 2848 
Q 2756 2613 2416 2484 
Q 2838 2347 3058 2040 
Q 3278 1734 3278 1309 
Q 3278 722 2862 322 
Q 2447 -78 1769 -78 
Q 1091 -78 675 323 
Q 259 725 259 1325 
Q 259 1772 486 2073 
Q 713 2375 1131 2484 
z
M 1019 3438 
Q 1019 3113 1228 2906 
Q 1438 2700 1772 2700 
Q 2097 2700 2305 2904 
Q 2513 3109 2513 3406 
Q 2513 3716 2298 3927 
Q 2084 4138 1766 4138 
Q 1444 4138 1231 3931 
Q 1019 3725 1019 3438 
z
M 838 1322 
Q 838 1081 952 856 
Q 1066 631 1291 507 
Q 1516 384 1775 384 
Q 2178 384 2440 643 
Q 2703 903 2703 1303 
Q 2703 1709 2433 1975 
Q 2163 2241 1756 2241 
Q 1359 2241 1098 1978 
Q 838 1716 838 1322 
z
" transform="scale(0.015625)"/>
       </defs>
       <use xlink:href="#ArialMT-30"/>
       <use xlink:href="#ArialMT-2e" x="55.615234"/>
       <use xlink:href="#ArialMT-38" x="83.398438"/>
      </g>
     </g>
    </g>
    <g id="xtick_6">
     <g id="line2d_6">
      <g>
       <use xlink:href="#mb68a950d5e" x="205.442159" y="130.9515" style="fill: #262626; stroke: #262626"/>
      </g>
     </g>
     <g id="text_6">
      <!-- 1.0 -->
      <g style="fill: #262626" transform="translate(199.326159 145.550375) scale(0.088 -0.088)">
       <defs>
        <path id="ArialMT-31" d="M 2384 0 
L 1822 0 
L 1822 3584 
Q 1619 3391 1289 3197 
Q 959 3003 697 2906 
L 697 3450 
Q 1169 3672 1522 3987 
Q 1875 4303 2022 4600 
L 2384 4600 
L 2384 0 
z
" transform="scale(0.015625)"/>
       </defs>
       <use xlink:href="#ArialMT-31"/>
       <use xlink:href="#ArialMT-2e" x="55.615234"/>
       <use xlink:href="#ArialMT-30" x="83.398438"/>
      </g>
     </g>
    </g>
    <g id="text_7">
     <!-- $x$ -->
     <g style="fill: #262626" transform="translate(126.47125 158.170875) scale(0.096 -0.096)">
      <defs>
       <path id="DejaVuSans-Oblique-78" d="M 3841 3500 
L 2234 1784 
L 3219 0 
L 2559 0 
L 1819 1388 
L 531 0 
L -166 0 
L 1556 1844 
L 641 3500 
L 1300 3500 
L 1972 2234 
L 3144 3500 
L 3841 3500 
z
" transform="scale(0.015625)"/>
      </defs>
      <use xlink:href="#DejaVuSans-Oblique-78" transform="translate(0 0.3125)"/>
     </g>
    </g>
   </g>
   <g id="matplotlib.axis_2">
    <g id="ytick_1">
     <g id="line2d_7">
      <defs>
       <path id="m1e24c1a918" d="M 0 0 
L -4.8 0 
" style="stroke: #262626"/>
      </defs>
      <g>
       <use xlink:href="#m1e24c1a918" x="45.65125" y="124.079038" style="fill: #262626; stroke: #262626"/>
      </g>
     </g>
     <g id="text_8">
      <!-- −0.5 -->
      <g style="fill: #262626" transform="translate(19.9795 127.228475) scale(0.088 -0.088)">
       <defs>
        <path id="ArialMT-2212" d="M 3381 1997 
L 356 1997 
L 356 2522 
L 3381 2522 
L 3381 1997 
z
" transform="scale(0.015625)"/>
        <path id="ArialMT-35" d="M 266 1200 
L 856 1250 
Q 922 819 1161 601 
Q 1400 384 1738 384 
Q 2144 384 2425 690 
Q 2706 997 2706 1503 
Q 2706 1984 2436 2262 
Q 2166 2541 1728 2541 
Q 1456 2541 1237 2417 
Q 1019 2294 894 2097 
L 366 2166 
L 809 4519 
L 3088 4519 
L 3088 3981 
L 1259 3981 
L 1013 2750 
Q 1425 3038 1878 3038 
Q 2478 3038 2890 2622 
Q 3303 2206 3303 1553 
Q 3303 931 2941 478 
Q 2500 -78 1738 -78 
Q 1113 -78 717 272 
Q 322 622 266 1200 
z
" transform="scale(0.015625)"/>
       </defs>
       <use xlink:href="#ArialMT-2212"/>
       <use xlink:href="#ArialMT-30" x="58.398438"/>
       <use xlink:href="#ArialMT-2e" x="114.013672"/>
       <use xlink:href="#ArialMT-35" x="141.796875"/>
      </g>
     </g>
    </g>
    <g id="ytick_2">
     <g id="line2d_8">
      <g>
       <use xlink:href="#m1e24c1a918" x="45.65125" y="103.231559" style="fill: #262626; stroke: #262626"/>
      </g>
     </g>
     <g id="text_9">
      <!-- 0.0 -->
      <g style="fill: #262626" transform="translate(25.11925 106.380996) scale(0.088 -0.088)">
       <use xlink:href="#ArialMT-30"/>
       <use xlink:href="#ArialMT-2e" x="55.615234"/>
       <use xlink:href="#ArialMT-30" x="83.398438"/>
      </g>
     </g>
    </g>
    <g id="ytick_3">
     <g id="line2d_9">
      <g>
       <use xlink:href="#m1e24c1a918" x="45.65125" y="82.38408" style="fill: #262626; stroke: #262626"/>
      </g>
     </g>
     <g id="text_10">
      <!-- 0.5 -->
      <g style="fill: #262626" transform="translate(25.11925 85.533517) scale(0.088 -0.088)">
       <use xlink:href="#ArialMT-30"/>
       <use xlink:href="#ArialMT-2e" x="55.615234"/>
       <use xlink:href="#ArialMT-35" x="83.398438"/>
      </g>
     </g>
    </g>
    <g id="ytick_4">
     <g id="line2d_10">
      <g>
       <use xlink:href="#m1e24c1a918" x="45.65125" y="61.536601" style="fill: #262626; stroke: #262626"/>
      </g>
     </g>
     <g id="text_11">
      <!-- 1.0 -->
      <g style="fill: #262626" transform="translate(25.11925 64.686038) scale(0.088 -0.088)">
       <use xlink:href="#ArialMT-31"/>
       <use xlink:href="#ArialMT-2e" x="55.615234"/>
       <use xlink:href="#ArialMT-30" x="83.398438"/>
      </g>
     </g>
    </g>
    <g id="ytick_5">
     <g id="line2d_11">
      <g>
       <use xlink:href="#m1e24c1a918" x="45.65125" y="40.689122" style="fill: #262626; stroke: #262626"/>
      </g>
     </g>
     <g id="text_12">
      <!-- 1.5 -->
      <g style="fill: #262626" transform="translate(25.11925 43.838559) scale(0.088 -0.088)">
       <use xlink:href="#ArialMT-31"/>
       <use xlink:href="#ArialMT-2e" x="55.615234"/>
       <use xlink:href="#ArialMT-35" x="83.398438"/>
      </g>
     </g>
    </g>
    <g id="text_13">
     <!-- $y$ -->
     <g style="fill: #262626" transform="translate(13.9635 78.3915) rotate(-90) scale(0.096 -0.096)">
      <defs>
       <path id="DejaVuSans-Oblique-79" d="M 1588 -325 
Q 1188 -997 936 -1164 
Q 684 -1331 294 -1331 
L -159 -1331 
L -63 -850 
L 269 -850 
Q 509 -850 678 -719 
Q 847 -588 1056 -206 
L 1234 128 
L 459 3500 
L 1069 3500 
L 1650 819 
L 3256 3500 
L 3859 3500 
L 1588 -325 
z
" transform="scale(0.015625)"/>
      </defs>
      <use xlink:href="#DejaVuSans-Oblique-79" transform="translate(0 0.3125)"/>
     </g>
    </g>
   </g>
   <g id="PolyCollection_1">
    <defs>
     <path id="m8c6a5a4a94" d="M 53.260341 -70.08355 
L 53.260341 -58.303381 
L 54.797531 -57.088488 
L 56.334721 -54.917688 
L 57.871911 -52.424022 
L 59.409101 -49.944708 
L 60.946291 -47.645695 
L 62.483481 -45.622202 
L 64.020671 -43.938635 
L 65.557862 -42.643653 
L 67.095052 -41.776104 
L 68.632242 -41.367375 
L 70.169432 -41.442237 
L 71.706622 -42.018998 
L 73.243812 -43.109348 
L 74.781002 -44.718051 
L 76.318192 -46.842597 
L 77.855382 -49.472838 
L 79.392572 -52.590662 
L 80.929762 -56.169691 
L 82.466952 -60.175001 
L 84.004143 -64.562835 
L 85.541333 -69.280228 
L 87.078523 -74.264399 
L 88.615713 -79.441686 
L 90.152903 -84.725606 
L 91.690093 -90.0136 
L 93.227283 -95.182536 
L 94.764473 -100.086436 
L 96.301663 -104.569308 
L 97.838853 -108.512413 
L 99.376043 -111.895595 
L 100.913233 -114.793776 
L 102.450424 -117.30503 
L 103.987614 -119.496789 
L 105.524804 -121.397012 
L 107.061994 -123.004157 
L 108.599184 -124.297988 
L 110.136374 -125.247089 
L 111.673564 -125.81352 
L 113.210754 -125.955546 
L 114.747944 -125.629066 
L 116.285134 -124.788181 
L 117.822324 -123.385568 
L 119.359514 -121.37418 
L 120.896705 -118.713217 
L 122.433895 -115.381427 
L 123.971085 -111.395242 
L 125.508275 -106.819864 
L 127.045465 -101.762779 
L 128.582655 -96.355157 
L 130.119845 -90.734674 
L 131.657035 -85.035885 
L 133.194225 -79.386325 
L 134.731415 -73.905091 
L 136.268605 -68.701942 
L 137.805795 -63.87621 
L 139.342986 -59.515343 
L 140.880176 -55.693116 
L 142.417366 -52.467519 
L 143.954556 -49.87839 
L 145.491746 -47.944954 
L 147.028936 -46.663924 
L 148.566126 -46.009943 
L 150.103316 -45.941697 
L 151.640506 -46.416439 
L 153.177696 -47.408555 
L 154.714886 -48.918503 
L 156.252076 -50.963767 
L 157.789267 -53.560711 
L 159.326457 -56.710728 
L 160.863647 -60.394709 
L 162.400837 -64.572978 
L 163.938027 -69.187455 
L 165.475217 -74.164315 
L 167.012407 -79.416534 
L 168.549597 -84.846133 
L 170.086787 -90.346066 
L 171.623977 -95.80169 
L 173.161167 -101.091745 
L 174.698357 -106.088923 
L 176.235548 -110.660628 
L 177.772738 -114.671862 
L 179.309928 -117.994134 
L 180.847118 -120.523651 
L 182.384308 -122.20345 
L 183.921498 -123.033125 
L 185.458688 -123.057209 
L 186.995878 -122.343914 
L 188.533068 -120.969375 
L 190.070258 -119.01072 
L 191.607448 -116.544182 
L 193.144638 -113.644674 
L 194.681829 -110.385047 
L 196.219019 -106.834306 
L 197.756209 -103.054219 
L 199.293399 -99.093316 
L 200.830589 -94.97631 
L 202.367779 -90.686129 
L 203.904969 -86.139996 
L 205.442159 -81.186526 
L 205.442159 -92.955017 
L 205.442159 -92.955017 
L 203.904969 -98.125306 
L 202.367779 -103.614481 
L 200.830589 -109.12777 
L 199.293399 -114.436423 
L 197.756209 -119.377532 
L 196.219019 -123.832982 
L 194.681829 -127.714433 
L 193.144638 -130.95571 
L 191.607448 -133.509706 
L 190.070258 -135.347772 
L 188.533068 -136.460511 
L 186.995878 -136.85934 
L 185.458688 -136.578032 
L 183.921498 -135.672397 
L 182.384308 -134.214466 
L 180.847118 -132.277366 
L 179.309928 -129.914152 
L 177.772738 -127.145751 
L 176.235548 -123.969698 
L 174.698357 -120.380737 
L 173.161167 -116.386973 
L 171.623977 -112.016251 
L 170.086787 -107.316092 
L 168.549597 -102.351137 
L 167.012407 -97.200096 
L 165.475217 -91.952904 
L 163.938027 -86.708234 
L 162.400837 -81.571398 
L 160.863647 -76.652661 
L 159.326457 -72.066015 
L 157.789267 -67.928301 
L 156.252076 -64.358171 
L 154.714886 -61.47322 
L 153.177696 -59.382122 
L 151.640506 -58.168974 
L 150.103316 -57.873911 
L 148.566126 -58.483404 
L 147.028936 -59.939164 
L 145.491746 -62.157252 
L 143.954556 -65.043749 
L 142.417366 -68.502552 
L 140.880176 -72.438001 
L 139.342986 -76.755616 
L 137.805795 -81.362639 
L 136.268605 -86.168971 
L 134.731415 -91.088588 
L 133.194225 -96.041389 
L 131.657035 -100.95544 
L 130.119845 -105.769524 
L 128.582655 -110.435762 
L 127.045465 -114.921494 
L 125.508275 -119.208428 
L 123.971085 -123.285693 
L 122.433895 -127.134976 
L 120.896705 -130.713795 
L 119.359514 -133.950439 
L 117.822324 -136.755998 
L 116.285134 -139.04299 
L 114.747944 -140.738667 
L 113.210754 -141.790567 
L 111.673564 -142.167375 
L 110.136374 -141.858077 
L 108.599184 -140.871002 
L 107.061994 -139.23343 
L 105.524804 -136.992298 
L 103.987614 -134.216667 
L 102.450424 -131.002947 
L 100.913233 -127.483381 
L 99.376043 -123.833698 
L 97.838853 -120.262042 
L 96.301663 -116.953039 
L 94.764473 -113.993897 
L 93.227283 -111.369108 
L 91.690093 -109.020205 
L 90.152903 -106.891687 
L 88.615713 -104.942767 
L 87.078523 -103.144247 
L 85.541333 -101.473452 
L 84.004143 -99.910614 
L 82.466952 -98.436836 
L 80.929762 -97.033118 
L 79.392572 -95.680046 
L 77.855382 -94.357882 
L 76.318192 -93.046871 
L 74.781002 -91.727684 
L 73.243812 -90.381918 
L 71.706622 -88.992626 
L 70.169432 -87.544856 
L 68.632242 -86.026208 
L 67.095052 -84.427416 
L 65.557862 -82.743059 
L 64.020671 -80.97253 
L 62.483481 -79.121636 
L 60.946291 -77.205641 
L 59.409101 -75.255799 
L 57.871911 -73.334959 
L 56.334721 -71.57792 
L 54.797531 -70.292336 
L 53.260341 -70.08355 
z
" style="stroke: #ffffff; stroke-opacity: 0.2; stroke-width: 0.8"/>
    </defs>
    <g clip-path="url(#pc4a4ccffb3)">
     <use xlink:href="#m8c6a5a4a94" x="0" y="167.278875" style="fill: #1f77b4; fill-opacity: 0.2; stroke: #ffffff; stroke-opacity: 0.2; stroke-width: 0.8"/>
    </g>
   </g>
   <g id="PathCollection_1">
    <defs>
     <path id="m418b89f9da" d="M 0 2.4 
C 0.636487 2.4 1.246992 2.147121 1.697056 1.697056 
C 2.147121 1.246992 2.4 0.636487 2.4 0 
C 2.4 -0.636487 2.147121 -1.246992 1.697056 -1.697056 
C 1.246992 -2.147121 0.636487 -2.4 0 -2.4 
C -0.636487 -2.4 -1.246992 -2.147121 -1.697056 -1.697056 
C -2.147121 -1.246992 -2.4 -0.636487 -2.4 0 
C -2.4 0.636487 -2.147121 1.246992 -1.697056 1.697056 
C -1.246992 2.147121 -0.636487 2.4 0 2.4 
z
" style="stroke: #ff7f0e; stroke-width: 0.8"/>
    </defs>
    <g clip-path="url(#pc4a4ccffb3)">
     <use xlink:href="#m418b89f9da" x="97.731752" y="53.409441" style="fill: #ff7f0e; stroke: #ff7f0e; stroke-width: 0.8"/>
     <use xlink:href="#m418b89f9da" x="205.43873" y="80.716491" style="fill: #ff7f0e; stroke: #ff7f0e; stroke-width: 0.8"/>
     <use xlink:href="#m418b89f9da" x="151.585239" y="116.092113" style="fill: #ff7f0e; stroke: #ff7f0e; stroke-width: 0.8"/>
     <use xlink:href="#m418b89f9da" x="53.260345" y="103.104117" style="fill: #ff7f0e; stroke: #ff7f0e; stroke-width: 0.8"/>
     <use xlink:href="#m418b89f9da" x="180.650712" y="40.09644" style="fill: #ff7f0e; stroke: #ff7f0e; stroke-width: 0.8"/>
     <use xlink:href="#m418b89f9da" x="122.724389" y="45.868429" style="fill: #ff7f0e; stroke: #ff7f0e; stroke-width: 0.8"/>
    </g>
   </g>
   <g id="line2d_12">
    <path d="M 53.260341 103.08541 
L 54.797531 103.588463 
L 56.334721 104.031071 
L 57.871911 104.399385 
L 59.409101 104.678621 
L 60.946291 104.853207 
L 62.483481 104.906956 
L 64.020671 104.823293 
L 65.557862 104.585519 
L 67.095052 104.177115 
L 68.632242 103.582084 
L 70.169432 102.785328 
L 71.706622 101.773063 
L 73.243812 100.533242 
L 74.781002 99.056007 
L 76.318192 97.334141 
L 77.855382 95.363515 
L 79.392572 93.143521 
L 80.929762 90.677471 
L 82.466952 87.972957 
L 84.004143 85.04215 
L 85.541333 81.902035 
L 87.078523 78.574552 
L 88.615713 75.086649 
L 90.152903 71.470228 
L 91.690093 67.761973 
L 93.227283 64.003053 
L 94.764473 60.238709 
L 96.301663 56.517702 
L 97.838853 52.891647 
L 99.376043 49.414228 
L 100.913233 46.140296 
L 102.450424 43.124886 
L 103.987614 40.422147 
L 105.524804 38.08422 
L 107.061994 36.160082 
L 108.599184 34.69438 
L 110.136374 33.726292 
L 111.673564 33.288428 
L 113.210754 33.405818 
L 114.747944 34.095009 
L 116.285134 35.36329 
L 117.822324 37.208092 
L 119.359514 39.616566 
L 120.896705 42.565369 
L 122.433895 46.020673 
L 123.971085 49.938408 
L 125.508275 54.264729 
L 127.045465 58.936739 
L 128.582655 63.883416 
L 130.119845 69.026776 
L 131.657035 74.283213 
L 133.194225 79.565018 
L 134.731415 84.782036 
L 136.268605 89.843418 
L 137.805795 94.659451 
L 139.342986 99.143395 
L 140.880176 103.213316 
L 142.417366 106.79384 
L 143.954556 109.817806 
L 145.491746 112.227772 
L 147.028936 113.977331 
L 148.566126 115.032201 
L 150.103316 115.371071 
L 151.640506 114.986168 
L 153.177696 113.883537 
L 154.714886 112.083014 
L 156.252076 109.617906 
L 157.789267 106.534369 
L 159.326457 102.890504 
L 160.863647 98.75519 
L 162.400837 94.206687 
L 163.938027 89.33103 
L 165.475217 84.220265 
L 167.012407 78.97056 
L 168.549597 73.68024 
L 170.086787 68.447796 
L 171.623977 63.369905 
L 173.161167 58.539516 
L 174.698357 54.044045 
L 176.235548 49.963712 
L 177.772738 46.370068 
L 179.309928 43.324732 
L 180.847118 40.878366 
L 182.384308 39.069917 
L 183.921498 37.926114 
L 185.458688 37.461254 
L 186.995878 37.677248 
L 188.533068 38.563932 
L 190.070258 40.099629 
L 191.607448 42.251931 
L 193.144638 44.978683 
L 194.681829 48.229135 
L 196.219019 51.945231 
L 197.756209 56.062999 
L 199.293399 60.514005 
L 200.830589 65.226835 
L 202.367779 70.12857 
L 203.904969 75.146224 
L 205.442159 80.208104 
" clip-path="url(#pc4a4ccffb3)" style="fill: none; stroke: #1f77b4; stroke-width: 1.2; stroke-linecap: round"/>
   </g>
   <g id="line2d_13">
    <path d="M 73.286246 130.9515 
L 73.286246 20.0715 
" clip-path="url(#pc4a4ccffb3)" style="fill: none; stroke-dasharray: 4.44,1.92; stroke-dashoffset: 0; stroke: #ff0000; stroke-width: 1.2"/>
   </g>
   <g id="patch_3">
    <path d="M 45.65125 124.079038 
L 45.65125 40.689122 
" style="fill: none; stroke: #262626; stroke-linejoin: miter; stroke-linecap: square"/>
   </g>
   <g id="patch_4">
    <path d="M 53.260341 130.9515 
L 205.442159 130.9515 
" style="fill: none; stroke: #262626; stroke-linejoin: miter; stroke-linecap: square"/>
   </g>
   <g id="text_14">
    <!-- $N=6$ -->
    <g style="fill: #262626" transform="translate(116.77525 14.0715) scale(0.096 -0.096)">
     <defs>
      <path id="DejaVuSans-Oblique-4e" d="M 1081 4666 
L 1931 4666 
L 3219 666 
L 4000 4666 
L 4616 4666 
L 3706 0 
L 2853 0 
L 1569 4025 
L 788 0 
L 172 0 
L 1081 4666 
z
" transform="scale(0.015625)"/>
      <path id="DejaVuSans-3d" d="M 678 2906 
L 4684 2906 
L 4684 2381 
L 678 2381 
L 678 2906 
z
M 678 1631 
L 4684 1631 
L 4684 1100 
L 678 1100 
L 678 1631 
z
" transform="scale(0.015625)"/>
      <path id="DejaVuSans-36" d="M 2113 2584 
Q 1688 2584 1439 2293 
Q 1191 2003 1191 1497 
Q 1191 994 1439 701 
Q 1688 409 2113 409 
Q 2538 409 2786 701 
Q 3034 994 3034 1497 
Q 3034 2003 2786 2293 
Q 2538 2584 2113 2584 
z
M 3366 4563 
L 3366 3988 
Q 3128 4100 2886 4159 
Q 2644 4219 2406 4219 
Q 1781 4219 1451 3797 
Q 1122 3375 1075 2522 
Q 1259 2794 1537 2939 
Q 1816 3084 2150 3084 
Q 2853 3084 3261 2657 
Q 3669 2231 3669 1497 
Q 3669 778 3244 343 
Q 2819 -91 2113 -91 
Q 1303 -91 875 529 
Q 447 1150 447 2328 
Q 447 3434 972 4092 
Q 1497 4750 2381 4750 
Q 2619 4750 2861 4703 
Q 3103 4656 3366 4563 
z
" transform="scale(0.015625)"/>
     </defs>
     <use xlink:href="#DejaVuSans-Oblique-4e" transform="translate(0 0.78125)"/>
     <use xlink:href="#DejaVuSans-3d" transform="translate(94.287109 0.78125)"/>
     <use xlink:href="#DejaVuSans-36" transform="translate(197.558594 0.78125)"/>
    </g>
   </g>
  </g>
 </g>
 <defs>
  <clipPath id="pc4a4ccffb3">
   <rect x="45.65125" y="20.0715" width="167.4" height="110.88"/>
  </clipPath>
 </defs>
</svg>