<?xml version="1.0" encoding="utf-8" standalone="no"?>
<!DOCTYPE svg PUBLIC "-//W3C//DTD SVG 1.1//EN"
  "http://www.w3.org/Graphics/SVG/1.1/DTD/svg11.dtd">
<svg xmlns:xlink="http://www.w3.org/1999/xlink" width="251.28pt" height="121.68pt" viewBox="0 0 251.28 121.68" xmlns="http://www.w3.org/2000/svg" version="1.1">
 <metadata>
  <rdf:RDF xmlns:dc="http://purl.org/dc/elements/1.1/" xmlns:cc="http://creativecommons.org/ns#" xmlns:rdf="http://www.w3.org/1999/02/22-rdf-syntax-ns#">
   <cc:Work>
    <dc:type rdf:resource="http://purl.org/dc/dcmitype/StillImage"/>
    <dc:date>2026-08-29T21:05:58.233585</dc:date>
    <dc:format>image/svg+xml</dc:format>
    <dc:creator>
     <cc:Agent>
      <dc:title>Matplotlib v3.11.0, https://matplotlib.org/</dc:title>
     </cc:Agent>
    </dc:creator>
   </cc:Work>
  </rdf:RDF>
 </metadata>
 <defs>
  <style type="text/css">*{stroke-linejoin: round; stroke-linecap: butt}</style>
 </defs>
 <g id="figure_1">
  <g id="patch_1">
   <path d="M 0 121.68 
L 251.28 121.68 
L 251.28 -0 
L 0 -0 
z
" style="fill: #ffffff"/>
  </g>
  <g id="patch_2">
   <path d="M 1.44 120.24 
L 120.24 120.24 
L 120.24 1.44 
L 1.44 1.44 
z
" style="fill: #f5f5f5"/>
  </g>
  <g id="axes_1">
   <g id="line2d_1">
    <path d="M 112.858412 80.623978 
L 114.389929 27.674605 
" clip-path="url(#pe02b97f04c)" style="fill: none; stroke: #000080; stroke-width: 2; stroke-linecap: square"/>
   </g>
   <g id="line2d_2">
    <path d="M 112.858412 80.623978 
L 77.347427 106.949415 
" clip-path="url(#pe02b97f04c)" style="fill: none; stroke: #000080; stroke-width: 2; stroke-linecap: square"/>
   </g>
   <g id="line2d_3">
    <path d="M 114.389929 27.674605 
L 112.858412 80.623978 
" clip-path="url(#pe02b97f04c)" style="fill: none; stroke: #000080; stroke-width: 2; stroke-linecap: square"/>
   </g>
   <g id="line2d_4">
    <path d="M 77.347427 106.949415 
L 112.858412 80.623978 
" clip-path="url(#pe02b97f04c)" style="fill: none; stroke: #000080; stroke-width: 2; stroke-linecap: square"/>
   </g>
   <g id="line2d_5">
    <path d="M 77.347427 106.949415 
L 9.957359 91.124814 
" clip-path="url(#pe02b97f04c)" style="fill: none; stroke: #000080; stroke-width: 2; stroke-linecap: square"/>
   </g>
   <g id="line2d_6">
    <path d="M 9.957359 91.124814 
L 77.347427 106.949415 
" clip-path="url(#pe02b97f04c)" style="fill: none; stroke: #000080; stroke-width: 2; stroke-linecap: square"/>
   </g>
   <g id="Path3DCollection_1">
    <defs>
     <path id="C0_0_0fbdb5f400" d="M 0 5 
C 1.326016 5 2.597899 4.473168 3.535534 3.535534 
C 4.473168 2.597899 5 1.326016 5 -0 
C 5 -1.326016 4.473168 -2.597899 3.535534 -3.535534 
C 2.597899 -4.473168 1.326016 -5 0 -5 
C -1.326016 -5 -2.597899 -4.473168 -3.535534 -3.535534 
C -4.473168 -2.597899 -5 -1.326016 -5 0 
C -5 1.326016 -4.473168 2.597899 -3.535534 3.535534 
C -2.597899 4.473168 -1.326016 5 0 5 
z
"/>
    </defs>
    <g clip-path="url(#pe02b97f04c)">
     <use xlink:href="#C0_0_0fbdb5f400" x="112.858412" y="80.623978" style="fill: #8b0000; fill-opacity: 0.561465; stroke: #000000; stroke-opacity: 0.561465; stroke-width: 0.8"/>
    </g>
    <g clip-path="url(#pe02b97f04c)">
     <use xlink:href="#C0_0_0fbdb5f400" x="114.389929" y="27.674605" style="fill: #8b0000; fill-opacity: 0.690571; stroke: #000000; stroke-opacity: 0.690571; stroke-width: 0.8"/>
    </g>
    <g clip-path="url(#pe02b97f04c)">
     <use xlink:href="#C0_0_0fbdb5f400" x="9.957359" y="91.124814" style="fill: #8b0000; fill-opacity: 0.73639; stroke: #000000; stroke-opacity: 0.73639; stroke-width: 0.8"/>
    </g>
    <g clip-path="url(#pe02b97f04c)">
     <use xlink:href="#C0_0_0fbdb5f400" x="77.347427" y="106.949415" style="fill: #8b0000; stroke: #000000; stroke-width: 0.8"/>
    </g>
   </g>
  </g>
  <g id="patch_3">
   <path d="M 131.04 120.24 
L 249.84 120.24 
L 249.84 1.44 
L 131.04 1.44 
z
" style="fill: #f5f5f5"/>
  </g>
  <g id="axes_2">
   <g id="line2d_7">
    <path d="M 179.229395 67.552562 
L 178.860575 17.018054 
" clip-path="url(#pa140af06e2)" style="fill: none; stroke: #000080; stroke-width: 2; stroke-linecap: square"/>
   </g>
   <g id="line2d_8">
    <path d="M 179.229395 67.552562 
L 242.458412 80.623978 
" clip-path="url(#pa140af06e2)" style="fill: none; stroke: #000080; stroke-width: 2; stroke-linecap: square"/>
   </g>
   <g id="line2d_9">
    <path d="M 178.860575 17.018054 
L 179.229395 67.552562 
" clip-path="url(#pa140af06e2)" style="fill: none; stroke: #000080; stroke-width: 2; stroke-linecap: square"/>
   </g>
   <g id="line2d_10">
    <path d="M 242.458412 80.623978 
L 179.229395 67.552562 
" clip-path="url(#pa140af06e2)" style="fill: none; stroke: #000080; stroke-width: 2; stroke-linecap: square"/>
   </g>
   <g id="line2d_11">
    <path d="M 242.458412 80.623978 
L 206.947427 106.949415 
" clip-path="url(#pa140af06e2)" style="fill: none; stroke: #000080; stroke-width: 2; stroke-linecap: square"/>
   </g>
   <g id="line2d_12">
    <path d="M 206.947427 106.949415 
L 242.458412 80.623978 
" clip-path="url(#pa140af06e2)" style="fill: none; stroke: #000080; stroke-width: 2; stroke-linecap: square"/>
   </g>
   <g id="Path3DCollection_2">
    <defs>
     <path id="C1_0_d9980f1c0d" d="M 0 5 
C 1.326016 5 2.597899 4.473168 3.535534 3.535534 
C 4.473168 2.597899 5 1.326016 5 -0 
C 5 -1.326016 4.473168 -2.597899 3.535534 -3.535534 
C 2.597899 -4.473168 1.326016 -5 0 -5 
C -1.326016 -5 -2.597899 -4.473168 -3.535534 -3.535534 
C -4.473168 -2.597899 -5 -1.326016 -5 0 
C -5 1.326016 -4.473168 2.597899 -3.535534 3.535534 
C -2.597899 4.473168 -1.326016 5 0 5 
z
"/>
    </defs>
    <g clip-path="url(#pa140af06e2)">
     <use xlink:href="#C1_0_d9980f1c0d" x="179.229395" y="67.552562" style="fill: #8b0000; fill-opacity: 0.343959; stroke: #000000; stroke-opacity: 0.343959; stroke-width: 0.8"/>
    </g>
    <g clip-path="url(#pa140af06e2)">
     <use xlink:href="#C1_0_d9980f1c0d" x="178.860575" y="17.018054" style="fill: #8b0000; fill-opacity: 0.459951; stroke: #000000; stroke-opacity: 0.459951; stroke-width: 0.8"/>
    </g>
    <g clip-path="url(#pa140af06e2)">
     <use xlink:href="#C1_0_d9980f1c0d" x="242.458412" y="80.623978" style="fill: #8b0000; fill-opacity: 0.561625; stroke: #000000; stroke-opacity: 0.561625; stroke-width: 0.8"/>
    </g>
    <g clip-path="url(#pa140af06e2)">
     <use xlink:href="#C1_0_d9980f1c0d" x="206.947427" y="106.949415" style="fill: #8b0000; stroke: #000000; stroke-width: 0.8"/>
    </g>
   </g>
  </g>
 </g>
 <defs>
  <clipPath id="pe02b97f04c">
   <rect x="1.44" y="1.44" width="118.8" height="118.8"/>
  </clipPath>
  <clipPath id="pa140af06e2">
   <rect x="131.04" y="1.44" width="118.8" height="118.8"/>
  </clipPath>
 </defs>
</svg>