<?xml version="1.0" encoding="utf-8" standalone="no"?>
<!DOCTYPE svg PUBLIC "-//W3C//DTD SVG 1.1//EN"
  "http://www.w3.org/Graphics/SVG/1.1/DTD/svg11.dtd">
<svg xmlns:xlink="http://www.w3.org/1999/xlink" width="495.46525pt" height="139.042875pt" viewBox="0 0 495.46525 139.042875" xmlns="http://www.w3.org/2000/svg" version="1.1">
 <metadata>
  <rdf:RDF xmlns:dc="http://purl.org/dc/elements/1.1/" xmlns:cc="http://creativecommons.org/ns#" xmlns:rdf="http://www.w3.org/1999/02/22-rdf-syntax-ns#">
   <cc:Work>
    <dc:type rdf:resource="http://purl.org/dc/dcmitype/StillImage"/>
    <dc:date>2024-02-26T10:08:12.649403</dc:date>
    <dc:format>image/svg+xml</dc:format>
    <dc:creator>
     <cc:Agent>
      <dc:title>Matplotlib v3.8.0, https://matplotlib.org/</dc:title>
     </cc:Agent>
    </dc:creator>
   </cc:Work>
  </rdf:RDF>
 </metadata>
 <defs>
  <style type="text/css">*{stroke-linejoin: round; stroke-linecap: butt}</style>
 </defs>
 <g id="figure_1">
  <g id="patch_1">
   <path d="M 0 139.042875 
L 495.46525 139.042875 
L 495.46525 0 
L 0 0 
z
" style="fill: #ffffff"/>
  </g>
  <g id="axes_1">
   <g id="patch_2">
    <path d="M 45.65125 102.7155 
L 159.17725 102.7155 
L 159.17725 20.0715 
L 45.65125 20.0715 
z
" style="fill: #ffffff"/>
   </g>
   <g id="matplotlib.axis_1">
    <g id="xtick_1">
     <g id="line2d_1">
      <defs>
       <path id="mab2dabe895" d="M 0 0 
L 0 4.8 
" style="stroke: #262626"/>
      </defs>
      <g>
       <use xlink:href="#mab2dabe895" x="50.811523" y="102.7155" style="fill: #262626; stroke: #262626"/>
      </g>
     </g>
     <g id="text_1">
      <!-- −1 -->
      <g style="fill: #262626" transform="translate(45.794835 117.314375) scale(0.088 -0.088)">
       <defs>
        <path id="ArialMT-2212" d="M 3381 1997 
L 356 1997 
L 356 2522 
L 3381 2522 
L 3381 1997 
z
" transform="scale(0.015625)"/>
        <path id="ArialMT-31" d="M 2384 0 
L 1822 0 
L 1822 3584 
Q 1619 3391 1289 3197 
Q 959 3003 697 2906 
L 697 3450 
Q 1169 3672 1522 3987 
Q 1875 4303 2022 4600 
L 2384 4600 
L 2384 0 
z
" transform="scale(0.015625)"/>
       </defs>
       <use xlink:href="#ArialMT-2212"/>
       <use xlink:href="#ArialMT-31" x="58.398438"/>
      </g>
     </g>
    </g>
    <g id="xtick_2">
     <g id="line2d_2">
      <g>
       <use xlink:href="#mab2dabe895" x="102.515234" y="102.7155" style="fill: #262626; stroke: #262626"/>
      </g>
     </g>
     <g id="text_2">
      <!-- 0 -->
      <g style="fill: #262626" transform="translate(100.068421 117.314375) scale(0.088 -0.088)">
       <defs>
        <path id="ArialMT-30" d="M 266 2259 
Q 266 3072 433 3567 
Q 600 4063 929 4331 
Q 1259 4600 1759 4600 
Q 2128 4600 2406 4451 
Q 2684 4303 2865 4023 
Q 3047 3744 3150 3342 
Q 3253 2941 3253 2259 
Q 3253 1453 3087 958 
Q 2922 463 2592 192 
Q 2263 -78 1759 -78 
Q 1097 -78 719 397 
Q 266 969 266 2259 
z
M 844 2259 
Q 844 1131 1108 757 
Q 1372 384 1759 384 
Q 2147 384 2411 759 
Q 2675 1134 2675 2259 
Q 2675 3391 2411 3762 
Q 2147 4134 1753 4134 
Q 1366 4134 1134 3806 
Q 844 3388 844 2259 
z
" transform="scale(0.015625)"/>
       </defs>
       <use xlink:href="#ArialMT-30"/>
      </g>
     </g>
    </g>
    <g id="xtick_3">
     <g id="line2d_3">
      <g>
       <use xlink:href="#mab2dabe895" x="154.218945" y="102.7155" style="fill: #262626; stroke: #262626"/>
      </g>
     </g>
     <g id="text_3">
      <!-- 1 -->
      <g style="fill: #262626" transform="translate(151.772132 117.314375) scale(0.088 -0.088)">
       <use xlink:href="#ArialMT-31"/>
      </g>
     </g>
    </g>
    <g id="text_4">
     <!-- $x$ -->
     <g style="fill: #262626" transform="translate(99.53425 129.934875) scale(0.096 -0.096)">
      <defs>
       <path id="DejaVuSans-Oblique-78" d="M 3841 3500 
L 2234 1784 
L 3219 0 
L 2559 0 
L 1819 1388 
L 531 0 
L -166 0 
L 1556 1844 
L 641 3500 
L 1300 3500 
L 1972 2234 
L 3144 3500 
L 3841 3500 
z
" transform="scale(0.015625)"/>
      </defs>
      <use xlink:href="#DejaVuSans-Oblique-78" transform="translate(0 0.3125)"/>
     </g>
    </g>
   </g>
   <g id="matplotlib.axis_2">
    <g id="ytick_1">
     <g id="line2d_4">
      <defs>
       <path id="mcbdc06efb7" d="M 0 0 
L -4.8 0 
" style="stroke: #262626"/>
      </defs>
      <g>
       <use xlink:href="#mcbdc06efb7" x="45.65125" y="98.958955" style="fill: #262626; stroke: #262626"/>
      </g>
     </g>
     <g id="text_5">
      <!-- −1.0 -->
      <g style="fill: #262626" transform="translate(19.9795 102.108392) scale(0.088 -0.088)">
       <defs>
        <path id="ArialMT-2e" d="M 581 0 
L 581 641 
L 1222 641 
L 1222 0 
L 581 0 
z
" transform="scale(0.015625)"/>
       </defs>
       <use xlink:href="#ArialMT-2212"/>
       <use xlink:href="#ArialMT-31" x="58.398438"/>
       <use xlink:href="#ArialMT-2e" x="114.013672"/>
       <use xlink:href="#ArialMT-30" x="141.796875"/>
      </g>
     </g>
    </g>
    <g id="ytick_2">
     <g id="line2d_5">
      <g>
       <use xlink:href="#mcbdc06efb7" x="45.65125" y="64.468314" style="fill: #262626; stroke: #262626"/>
      </g>
     </g>
     <g id="text_6">
      <!-- −0.5 -->
      <g style="fill: #262626" transform="translate(19.9795 67.617752) scale(0.088 -0.088)">
       <defs>
        <path id="ArialMT-35" d="M 266 1200 
L 856 1250 
Q 922 819 1161 601 
Q 1400 384 1738 384 
Q 2144 384 2425 690 
Q 2706 997 2706 1503 
Q 2706 1984 2436 2262 
Q 2166 2541 1728 2541 
Q 1456 2541 1237 2417 
Q 1019 2294 894 2097 
L 366 2166 
L 809 4519 
L 3088 4519 
L 3088 3981 
L 1259 3981 
L 1013 2750 
Q 1425 3038 1878 3038 
Q 2478 3038 2890 2622 
Q 3303 2206 3303 1553 
Q 3303 931 2941 478 
Q 2500 -78 1738 -78 
Q 1113 -78 717 272 
Q 322 622 266 1200 
z
" transform="scale(0.015625)"/>
       </defs>
       <use xlink:href="#ArialMT-2212"/>
       <use xlink:href="#ArialMT-30" x="58.398438"/>
       <use xlink:href="#ArialMT-2e" x="114.013672"/>
       <use xlink:href="#ArialMT-35" x="141.796875"/>
      </g>
     </g>
    </g>
    <g id="ytick_3">
     <g id="line2d_6">
      <g>
       <use xlink:href="#mcbdc06efb7" x="45.65125" y="29.977673" style="fill: #262626; stroke: #262626"/>
      </g>
     </g>
     <g id="text_7">
      <!-- 0.0 -->
      <g style="fill: #262626" transform="translate(25.11925 33.127111) scale(0.088 -0.088)">
       <use xlink:href="#ArialMT-30"/>
       <use xlink:href="#ArialMT-2e" x="55.615234"/>
       <use xlink:href="#ArialMT-30" x="83.398438"/>
      </g>
     </g>
    </g>
    <g id="text_8">
     <!-- $u(t,x)$ -->
     <g style="fill: #262626" transform="translate(14.0715 75.4095) rotate(-90) scale(0.096 -0.096)">
      <defs>
       <path id="DejaVuSans-Oblique-75" d="M 428 1388 
L 838 3500 
L 1416 3500 
L 1006 1409 
Q 975 1256 961 1147 
Q 947 1038 947 966 
Q 947 700 1109 554 
Q 1272 409 1569 409 
Q 2031 409 2368 721 
Q 2706 1034 2809 1563 
L 3194 3500 
L 3769 3500 
L 3091 0 
L 2516 0 
L 2631 550 
Q 2388 244 2052 76 
Q 1716 -91 1338 -91 
Q 878 -91 622 161 
Q 366 413 366 863 
Q 366 956 381 1097 
Q 397 1238 428 1388 
z
" transform="scale(0.015625)"/>
       <path id="DejaVuSans-28" d="M 1984 4856 
Q 1566 4138 1362 3434 
Q 1159 2731 1159 2009 
Q 1159 1288 1364 580 
Q 1569 -128 1984 -844 
L 1484 -844 
Q 1016 -109 783 600 
Q 550 1309 550 2009 
Q 550 2706 781 3412 
Q 1013 4119 1484 4856 
L 1984 4856 
z
" transform="scale(0.015625)"/>
       <path id="DejaVuSans-Oblique-74" d="M 2706 3500 
L 2619 3053 
L 1472 3053 
L 1100 1153 
Q 1081 1047 1072 975 
Q 1063 903 1063 863 
Q 1063 663 1183 572 
Q 1303 481 1569 481 
L 2150 481 
L 2053 0 
L 1503 0 
Q 991 0 739 200 
Q 488 400 488 806 
Q 488 878 497 964 
Q 506 1050 525 1153 
L 897 3053 
L 409 3053 
L 500 3500 
L 978 3500 
L 1172 4494 
L 1747 4494 
L 1556 3500 
L 2706 3500 
z
" transform="scale(0.015625)"/>
       <path id="DejaVuSans-2c" d="M 750 794 
L 1409 794 
L 1409 256 
L 897 -744 
L 494 -744 
L 750 256 
L 750 794 
z
" transform="scale(0.015625)"/>
       <path id="DejaVuSans-29" d="M 513 4856 
L 1013 4856 
Q 1481 4119 1714 3412 
Q 1947 2706 1947 2009 
Q 1947 1309 1714 600 
Q 1481 -109 1013 -844 
L 513 -844 
Q 928 -128 1133 580 
Q 1338 1288 1338 2009 
Q 1338 2731 1133 3434 
Q 928 4138 513 4856 
z
" transform="scale(0.015625)"/>
      </defs>
      <use xlink:href="#DejaVuSans-Oblique-75" transform="translate(0 0.125)"/>
      <use xlink:href="#DejaVuSans-28" transform="translate(63.378906 0.125)"/>
      <use xlink:href="#DejaVuSans-Oblique-74" transform="translate(102.392578 0.125)"/>
      <use xlink:href="#DejaVuSans-2c" transform="translate(141.601562 0.125)"/>
      <use xlink:href="#DejaVuSans-Oblique-78" transform="translate(192.871094 0.125)"/>
      <use xlink:href="#DejaVuSans-29" transform="translate(252.050781 0.125)"/>
     </g>
    </g>
   </g>
   <g id="line2d_7">
    <path d="M 50.811523 98.958955 
L 52.629231 93.802695 
L 55.052843 86.186298 
L 59.294163 71.918941 
L 63.131548 59.301432 
L 65.757127 51.427942 
L 67.978771 45.47569 
L 69.998447 40.727229 
L 71.816155 37.036989 
L 73.431896 34.235736 
L 75.047637 31.885905 
L 76.461411 30.19262 
L 77.875184 28.825177 
L 79.288957 27.766329 
L 80.702731 26.994561 
L 82.116504 26.484727 
L 83.530277 26.20872 
L 85.146018 26.140553 
L 86.963727 26.321889 
L 88.983403 26.76184 
L 91.81095 27.624645 
L 97.062108 29.252086 
L 99.485719 29.744846 
L 101.707363 29.960853 
L 103.72704 29.939884 
L 105.948683 29.680076 
L 108.372295 29.14793 
L 111.401809 28.229814 
L 116.652967 26.608871 
L 118.672644 26.235101 
L 120.288384 26.135268 
L 121.904125 26.265456 
L 123.317899 26.605256 
L 124.731672 27.187177 
L 126.145446 28.038548 
L 127.559219 29.183546 
L 128.972992 30.642529 
L 130.386766 32.431415 
L 131.800539 34.561111 
L 133.41628 37.418988 
L 135.032021 40.727229 
L 136.849729 44.97129 
L 138.869406 50.292982 
L 141.09105 56.794509 
L 143.918596 65.827671 
L 153.007139 95.5851 
L 154.016977 98.415937 
L 154.016977 98.415937 
" clip-path="url(#pfd09ae3bb0)" style="fill: none; stroke: #1f77b4; stroke-width: 1.2; stroke-linecap: round"/>
   </g>
   <g id="line2d_8">
    <path d="M 50.811523 97.464674 
L 51.215458 97.325866 
L 51.619393 96.732414 
L 52.023328 95.707456 
L 52.831199 92.780463 
L 53.841037 89.147798 
L 54.850875 85.731223 
L 56.264649 80.500822 
L 57.880389 75.060515 
L 59.49613 69.353965 
L 60.707936 64.65142 
L 61.515807 62.512171 
L 62.323677 60.496701 
L 63.73745 56.531297 
L 64.545321 54.637687 
L 65.757127 51.162602 
L 66.564997 49.446081 
L 67.1709 47.450211 
L 67.776803 45.384007 
L 68.180738 44.597371 
L 68.786641 43.581985 
L 69.190576 42.444634 
L 70.402382 38.221076 
L 71.614188 36.676114 
L 72.422058 34.625681 
L 73.431896 32.010764 
L 74.037799 30.967256 
L 74.643702 30.390481 
L 75.855508 29.571421 
L 76.865346 28.748903 
L 77.471249 28.690569 
L 78.279119 28.721822 
L 78.683054 28.531187 
L 79.288957 27.94271 
L 80.500763 26.676848 
L 82.722407 24.999689 
L 83.530277 24.172292 
L 83.934213 23.993016 
L 84.338148 24.054695 
L 84.944051 24.528266 
L 85.751921 25.259451 
L 86.357824 25.448621 
L 87.367662 25.556389 
L 87.973565 25.970808 
L 89.387338 27.240055 
L 89.791274 27.32345 
L 90.397177 27.122321 
L 91.407015 26.665063 
L 92.012917 26.698519 
L 94.032594 27.204776 
L 94.638497 27.4533 
L 96.254238 27.735547 
L 98.677849 29.399588 
L 100.091622 29.778708 
L 100.697525 29.750996 
L 101.303428 29.461991 
L 102.919169 28.465256 
L 104.736878 27.610011 
L 105.342781 27.569423 
L 107.564424 27.899749 
L 109.584101 28.393034 
L 110.190003 28.191624 
L 110.997874 27.621193 
L 112.815583 26.264058 
L 114.835259 24.926863 
L 115.441162 24.902648 
L 116.047064 25.143351 
L 117.662805 25.911567 
L 118.470676 26.352507 
L 120.086417 27.381239 
L 120.894287 27.578066 
L 121.298223 27.493463 
L 121.702158 27.145326 
L 122.106093 26.464941 
L 123.317899 24.024375 
L 123.721834 23.828045 
L 124.125769 23.997512 
L 125.539543 25.077984 
L 126.145446 25.443162 
L 126.549381 25.894643 
L 127.155284 26.992005 
L 128.165122 29.000545 
L 129.578895 30.93012 
L 130.992668 34.132187 
L 131.396604 34.324923 
L 131.800539 34.409286 
L 132.204474 34.811494 
L 133.214312 36.69894 
L 133.41628 36.563941 
L 133.820215 35.595313 
L 134.22415 34.500522 
L 134.426118 34.188568 
L 134.628086 34.102454 
L 134.830053 34.245152 
L 135.233988 35.125539 
L 135.839891 37.402345 
L 136.647762 40.43915 
L 137.051697 41.13895 
L 137.455632 41.203862 
L 137.859568 41.199057 
L 138.061535 41.413411 
L 138.46547 42.574631 
L 139.071373 45.907991 
L 139.879244 50.299383 
L 140.687114 53.477296 
L 141.89892 59.428718 
L 143.312693 64.328149 
L 144.120564 67.356178 
L 144.726467 68.813886 
L 145.33237 70.000663 
L 145.736305 71.211556 
L 146.746143 74.713471 
L 148.361884 79.202858 
L 150.785495 87.379845 
L 151.795333 91.648098 
L 152.603204 94.827207 
L 153.209107 96.310822 
L 153.81501 97.209286 
L 154.016977 97.379691 
L 154.016977 97.379691 
" clip-path="url(#pfd09ae3bb0)" style="fill: none; stroke-dasharray: 4.44,1.92; stroke-dashoffset: 0; stroke: #ff7f0e; stroke-width: 1.2"/>
   </g>
   <g id="patch_3">
    <path d="M 45.65125 98.958955 
L 45.65125 29.977673 
" style="fill: none; stroke: #262626; stroke-linejoin: miter; stroke-linecap: square"/>
   </g>
   <g id="patch_4">
    <path d="M 50.811523 102.7155 
L 154.218945 102.7155 
" style="fill: none; stroke: #262626; stroke-linejoin: miter; stroke-linecap: square"/>
   </g>
   <g id="text_9">
    <!-- t=0 -->
    <g style="fill: #262626" transform="translate(95.608 14.0715) scale(0.096 -0.096)">
     <defs>
      <path id="ArialMT-74" d="M 1650 503 
L 1731 6 
Q 1494 -44 1306 -44 
Q 1000 -44 831 53 
Q 663 150 594 308 
Q 525 466 525 972 
L 525 2881 
L 113 2881 
L 113 3319 
L 525 3319 
L 525 4141 
L 1084 4478 
L 1084 3319 
L 1650 3319 
L 1650 2881 
L 1084 2881 
L 1084 941 
Q 1084 700 1114 631 
Q 1144 563 1211 522 
Q 1278 481 1403 481 
Q 1497 481 1650 503 
z
" transform="scale(0.015625)"/>
      <path id="ArialMT-3d" d="M 3381 2694 
L 356 2694 
L 356 3219 
L 3381 3219 
L 3381 2694 
z
M 3381 1303 
L 356 1303 
L 356 1828 
L 3381 1828 
L 3381 1303 
z
" transform="scale(0.015625)"/>
     </defs>
     <use xlink:href="#ArialMT-74"/>
     <use xlink:href="#ArialMT-3d" x="27.783203"/>
     <use xlink:href="#ArialMT-30" x="86.181641"/>
    </g>
   </g>
  </g>
  <g id="axes_2">
   <g id="patch_5">
    <path d="M 210.19525 102.7155 
L 323.72125 102.7155 
L 323.72125 20.0715 
L 210.19525 20.0715 
z
" style="fill: #ffffff"/>
   </g>
   <g id="matplotlib.axis_3">
    <g id="xtick_4">
     <g id="line2d_9">
      <g>
       <use xlink:href="#mab2dabe895" x="215.355523" y="102.7155" style="fill: #262626; stroke: #262626"/>
      </g>
     </g>
     <g id="text_10">
      <!-- −1 -->
      <g style="fill: #262626" transform="translate(210.338835 117.314375) scale(0.088 -0.088)">
       <use xlink:href="#ArialMT-2212"/>
       <use xlink:href="#ArialMT-31" x="58.398438"/>
      </g>
     </g>
    </g>
    <g id="xtick_5">
     <g id="line2d_10">
      <g>
       <use xlink:href="#mab2dabe895" x="267.059234" y="102.7155" style="fill: #262626; stroke: #262626"/>
      </g>
     </g>
     <g id="text_11">
      <!-- 0 -->
      <g style="fill: #262626" transform="translate(264.612421 117.314375) scale(0.088 -0.088)">
       <use xlink:href="#ArialMT-30"/>
      </g>
     </g>
    </g>
    <g id="xtick_6">
     <g id="line2d_11">
      <g>
       <use xlink:href="#mab2dabe895" x="318.762945" y="102.7155" style="fill: #262626; stroke: #262626"/>
      </g>
     </g>
     <g id="text_12">
      <!-- 1 -->
      <g style="fill: #262626" transform="translate(316.316132 117.314375) scale(0.088 -0.088)">
       <use xlink:href="#ArialMT-31"/>
      </g>
     </g>
    </g>
    <g id="text_13">
     <!-- $x$ -->
     <g style="fill: #262626" transform="translate(264.07825 129.934875) scale(0.096 -0.096)">
      <use xlink:href="#DejaVuSans-Oblique-78" transform="translate(0 0.3125)"/>
     </g>
    </g>
   </g>
   <g id="matplotlib.axis_4">
    <g id="ytick_4">
     <g id="line2d_12">
      <g>
       <use xlink:href="#mcbdc06efb7" x="210.19525" y="94.789124" style="fill: #262626; stroke: #262626"/>
      </g>
     </g>
     <g id="text_14">
      <!-- −1.0 -->
      <g style="fill: #262626" transform="translate(184.5235 97.938561) scale(0.088 -0.088)">
       <use xlink:href="#ArialMT-2212"/>
       <use xlink:href="#ArialMT-31" x="58.398438"/>
       <use xlink:href="#ArialMT-2e" x="114.013672"/>
       <use xlink:href="#ArialMT-30" x="141.796875"/>
      </g>
     </g>
    </g>
    <g id="ytick_5">
     <g id="line2d_13">
      <g>
       <use xlink:href="#mcbdc06efb7" x="210.19525" y="72.058671" style="fill: #262626; stroke: #262626"/>
      </g>
     </g>
     <g id="text_15">
      <!-- −0.5 -->
      <g style="fill: #262626" transform="translate(184.5235 75.208108) scale(0.088 -0.088)">
       <use xlink:href="#ArialMT-2212"/>
       <use xlink:href="#ArialMT-30" x="58.398438"/>
       <use xlink:href="#ArialMT-2e" x="114.013672"/>
       <use xlink:href="#ArialMT-35" x="141.796875"/>
      </g>
     </g>
    </g>
    <g id="ytick_6">
     <g id="line2d_14">
      <g>
       <use xlink:href="#mcbdc06efb7" x="210.19525" y="49.328217" style="fill: #262626; stroke: #262626"/>
      </g>
     </g>
     <g id="text_16">
      <!-- 0.0 -->
      <g style="fill: #262626" transform="translate(189.66325 52.477655) scale(0.088 -0.088)">
       <use xlink:href="#ArialMT-30"/>
       <use xlink:href="#ArialMT-2e" x="55.615234"/>
       <use xlink:href="#ArialMT-30" x="83.398438"/>
      </g>
     </g>
    </g>
    <g id="ytick_7">
     <g id="line2d_15">
      <g>
       <use xlink:href="#mcbdc06efb7" x="210.19525" y="26.597764" style="fill: #262626; stroke: #262626"/>
      </g>
     </g>
     <g id="text_17">
      <!-- 0.5 -->
      <g style="fill: #262626" transform="translate(189.66325 29.747202) scale(0.088 -0.088)">
       <use xlink:href="#ArialMT-30"/>
       <use xlink:href="#ArialMT-2e" x="55.615234"/>
       <use xlink:href="#ArialMT-35" x="83.398438"/>
      </g>
     </g>
    </g>
    <g id="text_18">
     <!-- $u(t,x)$ -->
     <g style="fill: #262626" transform="translate(178.6155 75.4095) rotate(-90) scale(0.096 -0.096)">
      <use xlink:href="#DejaVuSans-Oblique-75" transform="translate(0 0.125)"/>
      <use xlink:href="#DejaVuSans-28" transform="translate(63.378906 0.125)"/>
      <use xlink:href="#DejaVuSans-Oblique-74" transform="translate(102.392578 0.125)"/>
      <use xlink:href="#DejaVuSans-2c" transform="translate(141.601562 0.125)"/>
      <use xlink:href="#DejaVuSans-Oblique-78" transform="translate(192.871094 0.125)"/>
      <use xlink:href="#DejaVuSans-29" transform="translate(252.050781 0.125)"/>
     </g>
    </g>
   </g>
   <g id="line2d_16">
    <path d="M 215.355523 94.784009 
L 221.010616 94.667432 
L 225.453904 94.398772 
L 228.079483 94.031826 
L 229.897191 93.560577 
L 231.310965 92.954114 
L 232.320803 92.302516 
L 233.330641 91.362664 
L 234.138512 90.302964 
L 234.946382 88.846985 
L 235.754252 86.835378 
L 236.562123 84.06194 
L 237.369993 80.293805 
L 238.177864 75.341062 
L 239.187702 67.490842 
L 242.419184 40.430736 
L 243.429022 34.742793 
L 244.236893 31.331163 
L 245.044763 28.759192 
L 245.852634 26.866437 
L 246.660504 25.518772 
L 247.468375 24.612745 
L 248.276245 24.072025 
L 249.084116 23.841859 
L 249.891986 23.883807 
L 250.699856 24.171325 
L 251.507727 24.686175 
L 252.517565 25.63001 
L 253.527403 26.889029 
L 254.739209 28.78642 
L 256.152982 31.467166 
L 257.970691 35.446264 
L 261.40414 43.113448 
L 262.817914 45.692065 
L 264.029719 47.411014 
L 265.039558 48.436885 
L 265.847428 48.970429 
L 266.655299 49.239224 
L 267.463169 49.239224 
L 268.27104 48.970429 
L 269.07891 48.436885 
L 269.886781 47.647055 
L 270.896619 46.320495 
L 272.108424 44.284943 
L 273.522198 41.425713 
L 276.147777 35.446264 
L 278.167453 31.057336 
L 279.581226 28.442609 
L 280.793032 26.612937 
L 281.80287 25.415423 
L 282.812708 24.536923 
L 283.620579 24.077533 
L 284.428449 23.849428 
L 285.23632 23.872623 
L 286.04419 24.176269 
L 286.852061 24.802435 
L 287.659931 25.810747 
L 288.467802 27.283817 
L 289.275672 29.3326 
L 290.083543 32.09873 
L 290.891413 35.746558 
L 291.699284 40.430736 
L 292.709122 47.832459 
L 294.122895 60.298121 
L 295.536668 72.404736 
L 296.546507 79.171472 
L 297.354377 83.222123 
L 298.162248 86.222395 
L 298.970118 88.403464 
L 299.777988 89.981531 
L 300.585859 91.127912 
L 301.595697 92.141544 
L 302.605535 92.841566 
L 303.817341 93.414899 
L 305.433082 93.902175 
L 307.452758 94.260686 
L 310.482272 94.541841 
L 315.329495 94.731266 
L 318.560977 94.783587 
L 318.560977 94.783587 
" clip-path="url(#p3c843fbf32)" style="fill: none; stroke: #1f77b4; stroke-width: 1.2; stroke-linecap: round"/>
   </g>
   <g id="line2d_17">
    <path d="M 215.355523 95.118887 
L 215.759458 95.272916 
L 216.163393 95.256733 
L 216.971264 94.910176 
L 217.981102 94.245556 
L 218.99094 93.492883 
L 219.394875 93.456335 
L 221.212584 93.818668 
L 221.818487 93.533807 
L 222.626357 92.984839 
L 222.828325 93.008961 
L 223.030292 93.174184 
L 223.434228 94.027722 
L 224.04013 96.479244 
L 224.646033 98.695476 
L 224.848001 98.958955 
L 225.049969 98.922856 
L 225.251936 98.608349 
L 225.655871 97.333021 
L 226.867677 92.459554 
L 227.271612 91.681618 
L 227.675548 91.41889 
L 228.28145 91.31034 
L 228.685386 91.010178 
L 229.291289 90.471044 
L 229.493256 90.470583 
L 229.695224 90.626349 
L 230.099159 91.432419 
L 230.705062 93.62928 
L 231.512932 96.758179 
L 231.7149 97.011203 
L 231.916868 96.688074 
L 232.118835 95.470077 
L 232.320803 92.963267 
L 232.724738 83.023528 
L 233.532609 59.056252 
L 233.936544 52.977814 
L 234.340479 49.749635 
L 234.744414 48.336843 
L 234.946382 48.085677 
L 235.14835 48.035322 
L 235.552285 48.280992 
L 236.562123 49.187874 
L 237.369993 49.565133 
L 237.975896 49.663253 
L 238.581799 49.565295 
L 239.591637 49.051346 
L 240.19754 48.873168 
L 240.601475 48.956345 
L 241.207378 49.353015 
L 242.217216 50.058471 
L 242.823119 50.170669 
L 243.429022 50.02889 
L 246.054601 49.0354 
L 247.468375 48.748604 
L 248.68018 48.677934 
L 251.709695 49.025346 
L 253.729371 49.731717 
L 254.537241 49.671235 
L 255.951015 49.430472 
L 257.566756 49.488072 
L 258.172658 49.163586 
L 259.384464 48.305832 
L 259.788399 48.239189 
L 260.394302 48.423478 
L 262.615946 49.609573 
L 263.423817 49.646376 
L 267.261201 49.349304 
L 269.07891 49.639517 
L 270.290716 49.564919 
L 272.310392 49.361568 
L 273.32023 49.613943 
L 274.330068 49.815252 
L 274.935971 49.737963 
L 275.945809 49.312026 
L 276.955647 48.939876 
L 277.763518 48.884581 
L 279.985162 49.065303 
L 283.822546 49.615634 
L 284.630417 49.349508 
L 285.438287 49.118977 
L 286.04419 49.240413 
L 287.054028 49.57372 
L 287.457964 49.420485 
L 288.871737 48.447491 
L 289.47764 48.487611 
L 290.28551 48.542033 
L 291.699284 48.422962 
L 292.103219 48.667811 
L 292.709122 49.35246 
L 293.71896 50.657931 
L 294.122895 50.849841 
L 294.52683 50.699951 
L 294.930766 50.227283 
L 296.142571 48.327218 
L 296.546507 48.136709 
L 296.950442 48.360399 
L 297.354377 48.980172 
L 298.162248 50.569126 
L 298.364215 50.741098 
L 298.566183 50.735856 
L 298.970118 50.294383 
L 299.576021 49.513453 
L 299.979956 49.385937 
L 300.383891 49.584225 
L 300.989794 50.244528 
L 301.595697 50.914243 
L 301.999632 51.063387 
L 302.2016 50.961094 
L 302.403568 50.698402 
L 302.807503 49.610262 
L 303.615373 46.748313 
L 303.817341 46.973615 
L 304.019309 48.162481 
L 304.221276 50.594498 
L 304.625211 59.592008 
L 305.63505 86.730993 
L 306.038985 92.317147 
L 306.44292 95.352727 
L 306.846855 96.665914 
L 307.048823 96.879339 
L 307.25079 96.887398 
L 307.654726 96.512839 
L 309.674402 93.797137 
L 310.482272 92.854506 
L 310.886208 92.782041 
L 311.492111 93.234772 
L 311.896046 93.405314 
L 312.299981 93.268754 
L 313.107851 92.854989 
L 313.511787 92.948651 
L 314.11769 93.478042 
L 314.92556 94.266237 
L 315.329495 94.464593 
L 315.733431 94.468251 
L 316.339333 94.167398 
L 316.945236 93.901568 
L 317.349172 93.971174 
L 317.955074 94.42898 
L 318.560977 94.980861 
L 318.560977 94.980861 
" clip-path="url(#p3c843fbf32)" style="fill: none; stroke-dasharray: 4.44,1.92; stroke-dashoffset: 0; stroke: #ff7f0e; stroke-width: 1.2"/>
   </g>
   <g id="patch_6">
    <path d="M 210.19525 94.789124 
L 210.19525 26.597764 
" style="fill: none; stroke: #262626; stroke-linejoin: miter; stroke-linecap: square"/>
   </g>
   <g id="patch_7">
    <path d="M 215.355523 102.7155 
L 318.762945 102.7155 
" style="fill: none; stroke: #262626; stroke-linejoin: miter; stroke-linecap: square"/>
   </g>
   <g id="text_19">
    <!-- t=0.5 -->
    <g style="fill: #262626" transform="translate(256.14925 14.0715) scale(0.096 -0.096)">
     <use xlink:href="#ArialMT-74"/>
     <use xlink:href="#ArialMT-3d" x="27.783203"/>
     <use xlink:href="#ArialMT-30" x="86.181641"/>
     <use xlink:href="#ArialMT-2e" x="141.796875"/>
     <use xlink:href="#ArialMT-35" x="169.580078"/>
    </g>
   </g>
  </g>
  <g id="axes_3">
   <g id="patch_8">
    <path d="M 374.73925 102.7155 
L 488.26525 102.7155 
L 488.26525 20.0715 
L 374.73925 20.0715 
z
" style="fill: #ffffff"/>
   </g>
   <g id="matplotlib.axis_5">
    <g id="xtick_7">
     <g id="line2d_18">
      <g>
       <use xlink:href="#mab2dabe895" x="379.899523" y="102.7155" style="fill: #262626; stroke: #262626"/>
      </g>
     </g>
     <g id="text_20">
      <!-- −1 -->
      <g style="fill: #262626" transform="translate(374.882835 117.314375) scale(0.088 -0.088)">
       <use xlink:href="#ArialMT-2212"/>
       <use xlink:href="#ArialMT-31" x="58.398438"/>
      </g>
     </g>
    </g>
    <g id="xtick_8">
     <g id="line2d_19">
      <g>
       <use xlink:href="#mab2dabe895" x="431.603234" y="102.7155" style="fill: #262626; stroke: #262626"/>
      </g>
     </g>
     <g id="text_21">
      <!-- 0 -->
      <g style="fill: #262626" transform="translate(429.156421 117.314375) scale(0.088 -0.088)">
       <use xlink:href="#ArialMT-30"/>
      </g>
     </g>
    </g>
    <g id="xtick_9">
     <g id="line2d_20">
      <g>
       <use xlink:href="#mab2dabe895" x="483.306945" y="102.7155" style="fill: #262626; stroke: #262626"/>
      </g>
     </g>
     <g id="text_22">
      <!-- 1 -->
      <g style="fill: #262626" transform="translate(480.860132 117.314375) scale(0.088 -0.088)">
       <use xlink:href="#ArialMT-31"/>
      </g>
     </g>
    </g>
    <g id="text_23">
     <!-- $x$ -->
     <g style="fill: #262626" transform="translate(428.62225 129.934875) scale(0.096 -0.096)">
      <use xlink:href="#DejaVuSans-Oblique-78" transform="translate(0 0.3125)"/>
     </g>
    </g>
   </g>
   <g id="matplotlib.axis_6">
    <g id="ytick_8">
     <g id="line2d_21">
      <g>
       <use xlink:href="#mcbdc06efb7" x="374.73925" y="94.336226" style="fill: #262626; stroke: #262626"/>
      </g>
     </g>
     <g id="text_24">
      <!-- −1 -->
      <g style="fill: #262626" transform="translate(356.405875 97.485663) scale(0.088 -0.088)">
       <use xlink:href="#ArialMT-2212"/>
       <use xlink:href="#ArialMT-31" x="58.398438"/>
      </g>
     </g>
    </g>
    <g id="ytick_9">
     <g id="line2d_22">
      <g>
       <use xlink:href="#mcbdc06efb7" x="374.73925" y="58.952924" style="fill: #262626; stroke: #262626"/>
      </g>
     </g>
     <g id="text_25">
      <!-- 0 -->
      <g style="fill: #262626" transform="translate(361.545625 62.102361) scale(0.088 -0.088)">
       <use xlink:href="#ArialMT-30"/>
      </g>
     </g>
    </g>
    <g id="ytick_10">
     <g id="line2d_23">
      <g>
       <use xlink:href="#mcbdc06efb7" x="374.73925" y="23.569622" style="fill: #262626; stroke: #262626"/>
      </g>
     </g>
     <g id="text_26">
      <!-- 1 -->
      <g style="fill: #262626" transform="translate(361.545625 26.719059) scale(0.088 -0.088)">
       <use xlink:href="#ArialMT-31"/>
      </g>
     </g>
    </g>
    <g id="text_27">
     <!-- $u(t,x)$ -->
     <g style="fill: #262626" transform="translate(350.497875 75.4095) rotate(-90) scale(0.096 -0.096)">
      <use xlink:href="#DejaVuSans-Oblique-75" transform="translate(0 0.125)"/>
      <use xlink:href="#DejaVuSans-28" transform="translate(63.378906 0.125)"/>
      <use xlink:href="#DejaVuSans-Oblique-74" transform="translate(102.392578 0.125)"/>
      <use xlink:href="#DejaVuSans-2c" transform="translate(141.601562 0.125)"/>
      <use xlink:href="#DejaVuSans-Oblique-78" transform="translate(192.871094 0.125)"/>
      <use xlink:href="#DejaVuSans-29" transform="translate(252.050781 0.125)"/>
     </g>
    </g>
   </g>
   <g id="line2d_24">
    <path d="M 379.899523 94.336187 
L 401.308091 94.23636 
L 402.923832 94.022729 
L 403.529734 93.773614 
L 403.93367 93.432287 
L 404.337605 92.730415 
L 404.539573 92.084625 
L 404.74154 91.043875 
L 404.943508 89.293022 
L 405.145475 86.256194 
L 405.347443 81.011621 
L 405.751378 61.220202 
L 406.155314 39.970384 
L 406.559249 30.212807 
L 406.963184 26.809675 
L 407.367119 25.473104 
L 407.771054 24.844298 
L 408.376957 24.387993 
L 409.184828 24.113687 
L 410.598601 23.923164 
L 413.426148 23.829462 
L 417.667468 23.914233 
L 420.293047 24.14834 
L 421.908788 24.483994 
L 423.120594 24.964306 
L 423.928464 25.496135 
L 424.736335 26.32541 
L 425.342238 27.256339 
L 425.94814 28.586943 
L 426.554043 30.482198 
L 427.159946 33.125839 
L 427.967817 38.009587 
L 430.391428 55.075722 
L 430.997331 57.192422 
L 431.401266 57.826824 
L 431.603234 57.906296 
L 431.805201 57.826824 
L 432.209137 57.192422 
L 432.613072 55.932754 
L 433.218975 52.937558 
L 434.026845 47.311884 
L 435.642586 35.373087 
L 436.450457 31.27171 
L 437.05636 29.146837 
L 437.662262 27.648099 
L 438.268165 26.599852 
L 439.076036 25.669573 
L 439.883906 25.076748 
L 440.893744 24.613806 
L 442.307518 24.247582 
L 444.327194 23.993324 
L 447.558676 23.845235 
L 451.799996 23.875206 
L 453.819672 24.072013 
L 454.82951 24.387993 
L 455.435413 24.844298 
L 455.839348 25.473104 
L 456.243284 26.809675 
L 456.445251 28.088405 
L 456.647219 30.212807 
L 456.849186 33.845484 
L 457.253122 49.373567 
L 457.859025 81.011621 
L 458.26296 89.293022 
L 458.666895 92.084625 
L 459.07083 93.149296 
L 459.474766 93.63047 
L 460.080668 93.960368 
L 461.090507 94.168835 
L 463.110183 94.283716 
L 469.775114 94.331107 
L 483.104977 94.336185 
L 483.104977 94.336185 
" clip-path="url(#p372f2c3c8c)" style="fill: none; stroke: #1f77b4; stroke-width: 1.2; stroke-linecap: round"/>
   </g>
   <g id="line2d_25">
    <path d="M 379.899523 94.375804 
L 381.717231 94.233654 
L 382.929037 94.341245 
L 383.53494 94.125114 
L 385.554616 92.918307 
L 386.160519 92.911192 
L 387.978228 93.23086 
L 388.58413 93.955723 
L 388.988066 94.403157 
L 389.392001 94.447442 
L 389.795936 94.125485 
L 390.401839 93.574732 
L 390.805774 93.429723 
L 391.411677 93.509853 
L 392.01758 93.598431 
L 392.421515 93.44986 
L 393.229386 92.93686 
L 393.431353 93.007879 
L 393.633321 93.241891 
L 394.037256 94.220996 
L 395.45103 98.958955 
L 395.652997 98.811159 
L 395.854965 98.141089 
L 396.2589 94.996595 
L 396.864803 86.783529 
L 397.672673 76.292502 
L 398.480544 68.830659 
L 399.086447 64.850027 
L 399.490382 63.142371 
L 399.894317 62.156168 
L 400.298252 61.732261 
L 400.702188 61.662325 
L 401.913993 61.804003 
L 402.317929 61.602179 
L 402.923832 61.004353 
L 403.93367 59.869994 
L 404.539573 59.560973 
L 404.943508 59.577109 
L 405.549411 59.854651 
L 406.963184 60.640477 
L 407.569087 60.679296 
L 408.376957 60.462225 
L 409.790731 60.069552 
L 412.618277 59.60867 
L 413.426148 59.816973 
L 415.445824 60.50537 
L 416.455662 60.527186 
L 418.273371 60.452944 
L 422.716658 60.721616 
L 424.938302 60.068502 
L 425.746173 60.304758 
L 427.159946 60.750392 
L 427.765849 60.689372 
L 428.573719 60.323612 
L 429.583558 59.861038 
L 430.18946 59.790949 
L 430.795363 59.909476 
L 431.603234 60.309862 
L 434.026845 61.75574 
L 434.834716 61.993843 
L 435.440619 61.97106 
L 436.046521 61.731468 
L 437.258327 60.874484 
L 438.268165 60.281677 
L 439.076036 60.037061 
L 440.085874 59.994921 
L 442.711453 60.318144 
L 443.923259 60.653274 
L 446.952773 61.787782 
L 447.962611 61.804271 
L 448.972449 61.582971 
L 451.799996 60.579501 
L 452.607866 59.807895 
L 453.819672 58.563521 
L 454.425575 58.253742 
L 455.031478 58.183097 
L 455.637381 58.371266 
L 457.657057 59.447269 
L 458.464927 59.548337 
L 459.272798 59.397323 
L 460.282636 59.205394 
L 460.888539 59.402022 
L 461.494442 59.907141 
L 462.908215 61.389295 
L 463.31215 61.395538 
L 463.716086 60.965873 
L 464.927891 59.040966 
L 465.533794 58.617675 
L 466.139697 58.226714 
L 466.7456 57.533063 
L 467.351503 56.836416 
L 467.55347 56.837915 
L 467.755438 57.079603 
L 467.957406 57.629712 
L 468.361341 59.839171 
L 468.765276 63.591989 
L 469.371179 71.711295 
L 470.582985 89.689031 
L 470.98692 92.438042 
L 471.390855 93.828012 
L 471.79479 94.433274 
L 472.198726 94.647887 
L 474.824305 95.153918 
L 475.22824 94.901499 
L 475.834143 94.011034 
L 476.440046 93.162071 
L 476.843981 93.005 
L 477.247916 93.158121 
L 478.863657 94.32384 
L 479.46956 94.299862 
L 480.883333 93.92746 
L 481.691204 94.106515 
L 482.701042 94.374399 
L 483.104977 94.389057 
L 483.104977 94.389057 
" clip-path="url(#p372f2c3c8c)" style="fill: none; stroke-dasharray: 4.44,1.92; stroke-dashoffset: 0; stroke: #ff7f0e; stroke-width: 1.2"/>
   </g>
   <g id="patch_9">
    <path d="M 374.73925 94.336226 
L 374.73925 23.569622 
" style="fill: none; stroke: #262626; stroke-linejoin: miter; stroke-linecap: square"/>
   </g>
   <g id="patch_10">
    <path d="M 379.899523 102.7155 
L 483.306945 102.7155 
" style="fill: none; stroke: #262626; stroke-linejoin: miter; stroke-linecap: square"/>
   </g>
   <g id="text_28">
    <!-- t=1 -->
    <g style="fill: #262626" transform="translate(424.696 14.0715) scale(0.096 -0.096)">
     <use xlink:href="#ArialMT-74"/>
     <use xlink:href="#ArialMT-3d" x="27.783203"/>
     <use xlink:href="#ArialMT-31" x="86.181641"/>
    </g>
   </g>
  </g>
 </g>
 <defs>
  <clipPath id="pfd09ae3bb0">
   <rect x="45.65125" y="20.0715" width="113.526" height="82.644"/>
  </clipPath>
  <clipPath id="p3c843fbf32">
   <rect x="210.19525" y="20.0715" width="113.526" height="82.644"/>
  </clipPath>
  <clipPath id="p372f2c3c8c">
   <rect x="374.73925" y="20.0715" width="113.526" height="82.644"/>
  </clipPath>
 </defs>
</svg>