<?xml version="1.0" encoding="utf-8" standalone="no"?>
<!DOCTYPE svg PUBLIC "-//W3C//DTD SVG 1.1//EN"
  "http://www.w3.org/Graphics/SVG/1.1/DTD/svg11.dtd">
<svg xmlns:xlink="http://www.w3.org/1999/xlink" width="334.61542pt" height="265.404375pt" viewBox="0 0 334.61542 265.404375" xmlns="http://www.w3.org/2000/svg" version="1.1">
 <metadata>
  <rdf:RDF xmlns:dc="http://purl.org/dc/elements/1.1/" xmlns:cc="http://creativecommons.org/ns#" xmlns:rdf="http://www.w3.org/1999/02/22-rdf-syntax-ns#">
   <cc:Work>
    <dc:type rdf:resource="http://purl.org/dc/dcmitype/StillImage"/>
    <dc:date>2025-04-06T16:15:20.602270</dc:date>
    <dc:format>image/svg+xml</dc:format>
    <dc:creator>
     <cc:Agent>
      <dc:title>Matplotlib v3.9.0, https://matplotlib.org/</dc:title>
     </cc:Agent>
    </dc:creator>
   </cc:Work>
  </rdf:RDF>
 </metadata>
 <defs>
  <style type="text/css">*{stroke-linejoin: round; stroke-linecap: butt}</style>
 </defs>
 <g id="figure_1">
  <g id="patch_1">
   <path d="M -0 265.404375 
L 334.61542 265.404375 
L 334.61542 0 
L -0 0 
z
" style="fill: #ffffff"/>
  </g>
  <g id="axes_1">
   <g id="patch_2">
    <path d="M 43.077375 228.96 
L 322.077375 228.96 
L 322.077375 7.2 
L 43.077375 7.2 
z
" style="fill: #ffffff"/>
   </g>
   <g id="matplotlib.axis_1">
    <g id="xtick_1">
     <g id="line2d_1">
      <defs>
       <path id="mc60d7e4eca" d="M 0 0 
L 0 4.8 
" style="stroke: #262626"/>
      </defs>
      <g>
       <use xlink:href="#mc60d7e4eca" x="53.089337" y="228.96" style="fill: #262626; stroke: #262626"/>
      </g>
     </g>
     <g id="text_1">
      <!-- 0 -->
      <g style="fill: #262626" transform="translate(50.642524 243.558875) scale(0.088 -0.088)">
       <defs>
        <path id="ArialMT-30" d="M 266 2259 
Q 266 3072 433 3567 
Q 600 4063 929 4331 
Q 1259 4600 1759 4600 
Q 2128 4600 2406 4451 
Q 2684 4303 2865 4023 
Q 3047 3744 3150 3342 
Q 3253 2941 3253 2259 
Q 3253 1453 3087 958 
Q 2922 463 2592 192 
Q 2263 -78 1759 -78 
Q 1097 -78 719 397 
Q 266 969 266 2259 
z
M 844 2259 
Q 844 1131 1108 757 
Q 1372 384 1759 384 
Q 2147 384 2411 759 
Q 2675 1134 2675 2259 
Q 2675 3391 2411 3762 
Q 2147 4134 1753 4134 
Q 1366 4134 1134 3806 
Q 844 3388 844 2259 
z
" transform="scale(0.015625)"/>
       </defs>
       <use xlink:href="#ArialMT-30"/>
      </g>
     </g>
    </g>
    <g id="xtick_2">
     <g id="line2d_2">
      <g>
       <use xlink:href="#mc60d7e4eca" x="86.462542" y="228.96" style="fill: #262626; stroke: #262626"/>
      </g>
     </g>
     <g id="text_2">
      <!-- 25 -->
      <g style="fill: #262626" transform="translate(81.568917 243.558875) scale(0.088 -0.088)">
       <defs>
        <path id="ArialMT-32" d="M 3222 541 
L 3222 0 
L 194 0 
Q 188 203 259 391 
Q 375 700 629 1000 
Q 884 1300 1366 1694 
Q 2113 2306 2375 2664 
Q 2638 3022 2638 3341 
Q 2638 3675 2398 3904 
Q 2159 4134 1775 4134 
Q 1369 4134 1125 3890 
Q 881 3647 878 3216 
L 300 3275 
Q 359 3922 746 4261 
Q 1134 4600 1788 4600 
Q 2447 4600 2831 4234 
Q 3216 3869 3216 3328 
Q 3216 3053 3103 2787 
Q 2991 2522 2730 2228 
Q 2469 1934 1863 1422 
Q 1356 997 1212 845 
Q 1069 694 975 541 
L 3222 541 
z
" transform="scale(0.015625)"/>
        <path id="ArialMT-35" d="M 266 1200 
L 856 1250 
Q 922 819 1161 601 
Q 1400 384 1738 384 
Q 2144 384 2425 690 
Q 2706 997 2706 1503 
Q 2706 1984 2436 2262 
Q 2166 2541 1728 2541 
Q 1456 2541 1237 2417 
Q 1019 2294 894 2097 
L 366 2166 
L 809 4519 
L 3088 4519 
L 3088 3981 
L 1259 3981 
L 1013 2750 
Q 1425 3038 1878 3038 
Q 2478 3038 2890 2622 
Q 3303 2206 3303 1553 
Q 3303 931 2941 478 
Q 2500 -78 1738 -78 
Q 1113 -78 717 272 
Q 322 622 266 1200 
z
" transform="scale(0.015625)"/>
       </defs>
       <use xlink:href="#ArialMT-32"/>
       <use xlink:href="#ArialMT-35" x="55.615234"/>
      </g>
     </g>
    </g>
    <g id="xtick_3">
     <g id="line2d_3">
      <g>
       <use xlink:href="#mc60d7e4eca" x="119.835748" y="228.96" style="fill: #262626; stroke: #262626"/>
      </g>
     </g>
     <g id="text_3">
      <!-- 50 -->
      <g style="fill: #262626" transform="translate(114.942123 243.558875) scale(0.088 -0.088)">
       <use xlink:href="#ArialMT-35"/>
       <use xlink:href="#ArialMT-30" x="55.615234"/>
      </g>
     </g>
    </g>
    <g id="xtick_4">
     <g id="line2d_4">
      <g>
       <use xlink:href="#mc60d7e4eca" x="153.208954" y="228.96" style="fill: #262626; stroke: #262626"/>
      </g>
     </g>
     <g id="text_4">
      <!-- 75 -->
      <g style="fill: #262626" transform="translate(148.315329 243.558875) scale(0.088 -0.088)">
       <defs>
        <path id="ArialMT-37" d="M 303 3981 
L 303 4522 
L 3269 4522 
L 3269 4084 
Q 2831 3619 2401 2847 
Q 1972 2075 1738 1259 
Q 1569 684 1522 0 
L 944 0 
Q 953 541 1156 1306 
Q 1359 2072 1739 2783 
Q 2119 3494 2547 3981 
L 303 3981 
z
" transform="scale(0.015625)"/>
       </defs>
       <use xlink:href="#ArialMT-37"/>
       <use xlink:href="#ArialMT-35" x="55.615234"/>
      </g>
     </g>
    </g>
    <g id="xtick_5">
     <g id="line2d_5">
      <g>
       <use xlink:href="#mc60d7e4eca" x="186.58216" y="228.96" style="fill: #262626; stroke: #262626"/>
      </g>
     </g>
     <g id="text_5">
      <!-- 100 -->
      <g style="fill: #262626" transform="translate(179.241722 243.558875) scale(0.088 -0.088)">
       <defs>
        <path id="ArialMT-31" d="M 2384 0 
L 1822 0 
L 1822 3584 
Q 1619 3391 1289 3197 
Q 959 3003 697 2906 
L 697 3450 
Q 1169 3672 1522 3987 
Q 1875 4303 2022 4600 
L 2384 4600 
L 2384 0 
z
" transform="scale(0.015625)"/>
       </defs>
       <use xlink:href="#ArialMT-31"/>
       <use xlink:href="#ArialMT-30" x="55.615234"/>
       <use xlink:href="#ArialMT-30" x="111.230469"/>
      </g>
     </g>
    </g>
    <g id="xtick_6">
     <g id="line2d_6">
      <g>
       <use xlink:href="#mc60d7e4eca" x="219.955365" y="228.96" style="fill: #262626; stroke: #262626"/>
      </g>
     </g>
     <g id="text_6">
      <!-- 125 -->
      <g style="fill: #262626" transform="translate(212.614928 243.558875) scale(0.088 -0.088)">
       <use xlink:href="#ArialMT-31"/>
       <use xlink:href="#ArialMT-32" x="55.615234"/>
       <use xlink:href="#ArialMT-35" x="111.230469"/>
      </g>
     </g>
    </g>
    <g id="xtick_7">
     <g id="line2d_7">
      <g>
       <use xlink:href="#mc60d7e4eca" x="253.328571" y="228.96" style="fill: #262626; stroke: #262626"/>
      </g>
     </g>
     <g id="text_7">
      <!-- 150 -->
      <g style="fill: #262626" transform="translate(245.988134 243.558875) scale(0.088 -0.088)">
       <use xlink:href="#ArialMT-31"/>
       <use xlink:href="#ArialMT-35" x="55.615234"/>
       <use xlink:href="#ArialMT-30" x="111.230469"/>
      </g>
     </g>
    </g>
    <g id="xtick_8">
     <g id="line2d_8">
      <g>
       <use xlink:href="#mc60d7e4eca" x="286.701777" y="228.96" style="fill: #262626; stroke: #262626"/>
      </g>
     </g>
     <g id="text_8">
      <!-- 175 -->
      <g style="fill: #262626" transform="translate(279.361339 243.558875) scale(0.088 -0.088)">
       <use xlink:href="#ArialMT-31"/>
       <use xlink:href="#ArialMT-37" x="55.615234"/>
       <use xlink:href="#ArialMT-35" x="111.230469"/>
      </g>
     </g>
    </g>
    <g id="xtick_9">
     <g id="line2d_9">
      <g>
       <use xlink:href="#mc60d7e4eca" x="320.074983" y="228.96" style="fill: #262626; stroke: #262626"/>
      </g>
     </g>
     <g id="text_9">
      <!-- 200 -->
      <g style="fill: #262626" transform="translate(312.734545 243.558875) scale(0.088 -0.088)">
       <use xlink:href="#ArialMT-32"/>
       <use xlink:href="#ArialMT-30" x="55.615234"/>
       <use xlink:href="#ArialMT-30" x="111.230469"/>
      </g>
     </g>
    </g>
    <g id="text_10">
     <!-- Number of samples -->
     <g style="fill: #262626" transform="translate(140.964375 256.296375) scale(0.096 -0.096)">
      <defs>
       <path id="ArialMT-4e" d="M 488 0 
L 488 4581 
L 1109 4581 
L 3516 984 
L 3516 4581 
L 4097 4581 
L 4097 0 
L 3475 0 
L 1069 3600 
L 1069 0 
L 488 0 
z
" transform="scale(0.015625)"/>
       <path id="ArialMT-75" d="M 2597 0 
L 2597 488 
Q 2209 -75 1544 -75 
Q 1250 -75 995 37 
Q 741 150 617 320 
Q 494 491 444 738 
Q 409 903 409 1263 
L 409 3319 
L 972 3319 
L 972 1478 
Q 972 1038 1006 884 
Q 1059 663 1231 536 
Q 1403 409 1656 409 
Q 1909 409 2131 539 
Q 2353 669 2445 892 
Q 2538 1116 2538 1541 
L 2538 3319 
L 3100 3319 
L 3100 0 
L 2597 0 
z
" transform="scale(0.015625)"/>
       <path id="ArialMT-6d" d="M 422 0 
L 422 3319 
L 925 3319 
L 925 2853 
Q 1081 3097 1340 3245 
Q 1600 3394 1931 3394 
Q 2300 3394 2536 3241 
Q 2772 3088 2869 2813 
Q 3263 3394 3894 3394 
Q 4388 3394 4653 3120 
Q 4919 2847 4919 2278 
L 4919 0 
L 4359 0 
L 4359 2091 
Q 4359 2428 4304 2576 
Q 4250 2725 4106 2815 
Q 3963 2906 3769 2906 
Q 3419 2906 3187 2673 
Q 2956 2441 2956 1928 
L 2956 0 
L 2394 0 
L 2394 2156 
Q 2394 2531 2256 2718 
Q 2119 2906 1806 2906 
Q 1569 2906 1367 2781 
Q 1166 2656 1075 2415 
Q 984 2175 984 1722 
L 984 0 
L 422 0 
z
" transform="scale(0.015625)"/>
       <path id="ArialMT-62" d="M 941 0 
L 419 0 
L 419 4581 
L 981 4581 
L 981 2947 
Q 1338 3394 1891 3394 
Q 2197 3394 2470 3270 
Q 2744 3147 2920 2923 
Q 3097 2700 3197 2384 
Q 3297 2069 3297 1709 
Q 3297 856 2875 390 
Q 2453 -75 1863 -75 
Q 1275 -75 941 416 
L 941 0 
z
M 934 1684 
Q 934 1088 1097 822 
Q 1363 388 1816 388 
Q 2184 388 2453 708 
Q 2722 1028 2722 1663 
Q 2722 2313 2464 2622 
Q 2206 2931 1841 2931 
Q 1472 2931 1203 2611 
Q 934 2291 934 1684 
z
" transform="scale(0.015625)"/>
       <path id="ArialMT-65" d="M 2694 1069 
L 3275 997 
Q 3138 488 2766 206 
Q 2394 -75 1816 -75 
Q 1088 -75 661 373 
Q 234 822 234 1631 
Q 234 2469 665 2931 
Q 1097 3394 1784 3394 
Q 2450 3394 2872 2941 
Q 3294 2488 3294 1666 
Q 3294 1616 3291 1516 
L 816 1516 
Q 847 969 1125 678 
Q 1403 388 1819 388 
Q 2128 388 2347 550 
Q 2566 713 2694 1069 
z
M 847 1978 
L 2700 1978 
Q 2663 2397 2488 2606 
Q 2219 2931 1791 2931 
Q 1403 2931 1139 2672 
Q 875 2413 847 1978 
z
" transform="scale(0.015625)"/>
       <path id="ArialMT-72" d="M 416 0 
L 416 3319 
L 922 3319 
L 922 2816 
Q 1116 3169 1280 3281 
Q 1444 3394 1641 3394 
Q 1925 3394 2219 3213 
L 2025 2691 
Q 1819 2813 1613 2813 
Q 1428 2813 1281 2702 
Q 1134 2591 1072 2394 
Q 978 2094 978 1738 
L 978 0 
L 416 0 
z
" transform="scale(0.015625)"/>
       <path id="ArialMT-20" transform="scale(0.015625)"/>
       <path id="ArialMT-6f" d="M 213 1659 
Q 213 2581 725 3025 
Q 1153 3394 1769 3394 
Q 2453 3394 2887 2945 
Q 3322 2497 3322 1706 
Q 3322 1066 3130 698 
Q 2938 331 2570 128 
Q 2203 -75 1769 -75 
Q 1072 -75 642 372 
Q 213 819 213 1659 
z
M 791 1659 
Q 791 1022 1069 705 
Q 1347 388 1769 388 
Q 2188 388 2466 706 
Q 2744 1025 2744 1678 
Q 2744 2294 2464 2611 
Q 2184 2928 1769 2928 
Q 1347 2928 1069 2612 
Q 791 2297 791 1659 
z
" transform="scale(0.015625)"/>
       <path id="ArialMT-66" d="M 556 0 
L 556 2881 
L 59 2881 
L 59 3319 
L 556 3319 
L 556 3672 
Q 556 4006 616 4169 
Q 697 4388 901 4523 
Q 1106 4659 1475 4659 
Q 1713 4659 2000 4603 
L 1916 4113 
Q 1741 4144 1584 4144 
Q 1328 4144 1222 4034 
Q 1116 3925 1116 3625 
L 1116 3319 
L 1763 3319 
L 1763 2881 
L 1116 2881 
L 1116 0 
L 556 0 
z
" transform="scale(0.015625)"/>
       <path id="ArialMT-73" d="M 197 991 
L 753 1078 
Q 800 744 1014 566 
Q 1228 388 1613 388 
Q 2000 388 2187 545 
Q 2375 703 2375 916 
Q 2375 1106 2209 1216 
Q 2094 1291 1634 1406 
Q 1016 1563 777 1677 
Q 538 1791 414 1992 
Q 291 2194 291 2438 
Q 291 2659 392 2848 
Q 494 3038 669 3163 
Q 800 3259 1026 3326 
Q 1253 3394 1513 3394 
Q 1903 3394 2198 3281 
Q 2494 3169 2634 2976 
Q 2775 2784 2828 2463 
L 2278 2388 
Q 2241 2644 2061 2787 
Q 1881 2931 1553 2931 
Q 1166 2931 1000 2803 
Q 834 2675 834 2503 
Q 834 2394 903 2306 
Q 972 2216 1119 2156 
Q 1203 2125 1616 2013 
Q 2213 1853 2448 1751 
Q 2684 1650 2818 1456 
Q 2953 1263 2953 975 
Q 2953 694 2789 445 
Q 2625 197 2315 61 
Q 2006 -75 1616 -75 
Q 969 -75 630 194 
Q 291 463 197 991 
z
" transform="scale(0.015625)"/>
       <path id="ArialMT-61" d="M 2588 409 
Q 2275 144 1986 34 
Q 1697 -75 1366 -75 
Q 819 -75 525 192 
Q 231 459 231 875 
Q 231 1119 342 1320 
Q 453 1522 633 1644 
Q 813 1766 1038 1828 
Q 1203 1872 1538 1913 
Q 2219 1994 2541 2106 
Q 2544 2222 2544 2253 
Q 2544 2597 2384 2738 
Q 2169 2928 1744 2928 
Q 1347 2928 1158 2789 
Q 969 2650 878 2297 
L 328 2372 
Q 403 2725 575 2942 
Q 747 3159 1072 3276 
Q 1397 3394 1825 3394 
Q 2250 3394 2515 3294 
Q 2781 3194 2906 3042 
Q 3031 2891 3081 2659 
Q 3109 2516 3109 2141 
L 3109 1391 
Q 3109 606 3145 398 
Q 3181 191 3288 0 
L 2700 0 
Q 2613 175 2588 409 
z
M 2541 1666 
Q 2234 1541 1622 1453 
Q 1275 1403 1131 1340 
Q 988 1278 909 1158 
Q 831 1038 831 891 
Q 831 666 1001 516 
Q 1172 366 1500 366 
Q 1825 366 2078 508 
Q 2331 650 2450 897 
Q 2541 1088 2541 1459 
L 2541 1666 
z
" transform="scale(0.015625)"/>
       <path id="ArialMT-70" d="M 422 -1272 
L 422 3319 
L 934 3319 
L 934 2888 
Q 1116 3141 1344 3267 
Q 1572 3394 1897 3394 
Q 2322 3394 2647 3175 
Q 2972 2956 3137 2557 
Q 3303 2159 3303 1684 
Q 3303 1175 3120 767 
Q 2938 359 2589 142 
Q 2241 -75 1856 -75 
Q 1575 -75 1351 44 
Q 1128 163 984 344 
L 984 -1272 
L 422 -1272 
z
M 931 1641 
Q 931 1000 1190 694 
Q 1450 388 1819 388 
Q 2194 388 2461 705 
Q 2728 1022 2728 1688 
Q 2728 2322 2467 2637 
Q 2206 2953 1844 2953 
Q 1484 2953 1207 2617 
Q 931 2281 931 1641 
z
" transform="scale(0.015625)"/>
       <path id="ArialMT-6c" d="M 409 0 
L 409 4581 
L 972 4581 
L 972 0 
L 409 0 
z
" transform="scale(0.015625)"/>
      </defs>
      <use xlink:href="#ArialMT-4e"/>
      <use xlink:href="#ArialMT-75" x="72.216797"/>
      <use xlink:href="#ArialMT-6d" x="127.832031"/>
      <use xlink:href="#ArialMT-62" x="211.132812"/>
      <use xlink:href="#ArialMT-65" x="266.748047"/>
      <use xlink:href="#ArialMT-72" x="322.363281"/>
      <use xlink:href="#ArialMT-20" x="355.664062"/>
      <use xlink:href="#ArialMT-6f" x="383.447266"/>
      <use xlink:href="#ArialMT-66" x="439.0625"/>
      <use xlink:href="#ArialMT-20" x="466.845703"/>
      <use xlink:href="#ArialMT-73" x="494.628906"/>
      <use xlink:href="#ArialMT-61" x="544.628906"/>
      <use xlink:href="#ArialMT-6d" x="600.244141"/>
      <use xlink:href="#ArialMT-70" x="683.544922"/>
      <use xlink:href="#ArialMT-6c" x="739.160156"/>
      <use xlink:href="#ArialMT-65" x="761.376953"/>
      <use xlink:href="#ArialMT-73" x="816.992188"/>
     </g>
    </g>
   </g>
   <g id="matplotlib.axis_2">
    <g id="ytick_1">
     <g id="line2d_10">
      <defs>
       <path id="m4ea9e6fbad" d="M 0 0 
L -4.8 0 
" style="stroke: #262626"/>
      </defs>
      <g>
       <use xlink:href="#m4ea9e6fbad" x="43.077375" y="224.595891" style="fill: #262626; stroke: #262626"/>
      </g>
     </g>
     <g id="text_11">
      <!-- 0 -->
      <g style="fill: #262626" transform="translate(29.88375 227.745328) scale(0.088 -0.088)">
       <use xlink:href="#ArialMT-30"/>
      </g>
     </g>
    </g>
    <g id="ytick_2">
     <g id="line2d_11">
      <g>
       <use xlink:href="#m4ea9e6fbad" x="43.077375" y="194.181896" style="fill: #262626; stroke: #262626"/>
      </g>
     </g>
     <g id="text_12">
      <!-- 25 -->
      <g style="fill: #262626" transform="translate(24.990125 197.331333) scale(0.088 -0.088)">
       <use xlink:href="#ArialMT-32"/>
       <use xlink:href="#ArialMT-35" x="55.615234"/>
      </g>
     </g>
    </g>
    <g id="ytick_3">
     <g id="line2d_12">
      <g>
       <use xlink:href="#m4ea9e6fbad" x="43.077375" y="163.767901" style="fill: #262626; stroke: #262626"/>
      </g>
     </g>
     <g id="text_13">
      <!-- 50 -->
      <g style="fill: #262626" transform="translate(24.990125 166.917339) scale(0.088 -0.088)">
       <use xlink:href="#ArialMT-35"/>
       <use xlink:href="#ArialMT-30" x="55.615234"/>
      </g>
     </g>
    </g>
    <g id="ytick_4">
     <g id="line2d_13">
      <g>
       <use xlink:href="#m4ea9e6fbad" x="43.077375" y="133.353906" style="fill: #262626; stroke: #262626"/>
      </g>
     </g>
     <g id="text_14">
      <!-- 75 -->
      <g style="fill: #262626" transform="translate(24.990125 136.503344) scale(0.088 -0.088)">
       <use xlink:href="#ArialMT-37"/>
       <use xlink:href="#ArialMT-35" x="55.615234"/>
      </g>
     </g>
    </g>
    <g id="ytick_5">
     <g id="line2d_14">
      <g>
       <use xlink:href="#m4ea9e6fbad" x="43.077375" y="102.939912" style="fill: #262626; stroke: #262626"/>
      </g>
     </g>
     <g id="text_15">
      <!-- 100 -->
      <g style="fill: #262626" transform="translate(20.0965 106.089349) scale(0.088 -0.088)">
       <use xlink:href="#ArialMT-31"/>
       <use xlink:href="#ArialMT-30" x="55.615234"/>
       <use xlink:href="#ArialMT-30" x="111.230469"/>
      </g>
     </g>
    </g>
    <g id="ytick_6">
     <g id="line2d_15">
      <g>
       <use xlink:href="#m4ea9e6fbad" x="43.077375" y="72.525917" style="fill: #262626; stroke: #262626"/>
      </g>
     </g>
     <g id="text_16">
      <!-- 125 -->
      <g style="fill: #262626" transform="translate(20.0965 75.675355) scale(0.088 -0.088)">
       <use xlink:href="#ArialMT-31"/>
       <use xlink:href="#ArialMT-32" x="55.615234"/>
       <use xlink:href="#ArialMT-35" x="111.230469"/>
      </g>
     </g>
    </g>
    <g id="ytick_7">
     <g id="line2d_16">
      <g>
       <use xlink:href="#m4ea9e6fbad" x="43.077375" y="42.111922" style="fill: #262626; stroke: #262626"/>
      </g>
     </g>
     <g id="text_17">
      <!-- 150 -->
      <g style="fill: #262626" transform="translate(20.0965 45.26136) scale(0.088 -0.088)">
       <use xlink:href="#ArialMT-31"/>
       <use xlink:href="#ArialMT-35" x="55.615234"/>
       <use xlink:href="#ArialMT-30" x="111.230469"/>
      </g>
     </g>
    </g>
    <g id="ytick_8">
     <g id="line2d_17">
      <g>
       <use xlink:href="#m4ea9e6fbad" x="43.077375" y="11.697928" style="fill: #262626; stroke: #262626"/>
      </g>
     </g>
     <g id="text_18">
      <!-- 175 -->
      <g style="fill: #262626" transform="translate(20.0965 14.847365) scale(0.088 -0.088)">
       <use xlink:href="#ArialMT-31"/>
       <use xlink:href="#ArialMT-37" x="55.615234"/>
       <use xlink:href="#ArialMT-35" x="111.230469"/>
      </g>
     </g>
    </g>
    <g id="text_19">
     <!-- Effective sample size -->
     <g style="fill: #262626" transform="translate(14.1885 163.0785) rotate(-90) scale(0.096 -0.096)">
      <defs>
       <path id="ArialMT-45" d="M 506 0 
L 506 4581 
L 3819 4581 
L 3819 4041 
L 1113 4041 
L 1113 2638 
L 3647 2638 
L 3647 2100 
L 1113 2100 
L 1113 541 
L 3925 541 
L 3925 0 
L 506 0 
z
" transform="scale(0.015625)"/>
       <path id="ArialMT-63" d="M 2588 1216 
L 3141 1144 
Q 3050 572 2676 248 
Q 2303 -75 1759 -75 
Q 1078 -75 664 370 
Q 250 816 250 1647 
Q 250 2184 428 2587 
Q 606 2991 970 3192 
Q 1334 3394 1763 3394 
Q 2303 3394 2647 3120 
Q 2991 2847 3088 2344 
L 2541 2259 
Q 2463 2594 2264 2762 
Q 2066 2931 1784 2931 
Q 1359 2931 1093 2626 
Q 828 2322 828 1663 
Q 828 994 1084 691 
Q 1341 388 1753 388 
Q 2084 388 2306 591 
Q 2528 794 2588 1216 
z
" transform="scale(0.015625)"/>
       <path id="ArialMT-74" d="M 1650 503 
L 1731 6 
Q 1494 -44 1306 -44 
Q 1000 -44 831 53 
Q 663 150 594 308 
Q 525 466 525 972 
L 525 2881 
L 113 2881 
L 113 3319 
L 525 3319 
L 525 4141 
L 1084 4478 
L 1084 3319 
L 1650 3319 
L 1650 2881 
L 1084 2881 
L 1084 941 
Q 1084 700 1114 631 
Q 1144 563 1211 522 
Q 1278 481 1403 481 
Q 1497 481 1650 503 
z
" transform="scale(0.015625)"/>
       <path id="ArialMT-69" d="M 425 3934 
L 425 4581 
L 988 4581 
L 988 3934 
L 425 3934 
z
M 425 0 
L 425 3319 
L 988 3319 
L 988 0 
L 425 0 
z
" transform="scale(0.015625)"/>
       <path id="ArialMT-76" d="M 1344 0 
L 81 3319 
L 675 3319 
L 1388 1331 
Q 1503 1009 1600 663 
Q 1675 925 1809 1294 
L 2547 3319 
L 3125 3319 
L 1869 0 
L 1344 0 
z
" transform="scale(0.015625)"/>
       <path id="ArialMT-7a" d="M 125 0 
L 125 456 
L 2238 2881 
Q 1878 2863 1603 2863 
L 250 2863 
L 250 3319 
L 2963 3319 
L 2963 2947 
L 1166 841 
L 819 456 
Q 1197 484 1528 484 
L 3063 484 
L 3063 0 
L 125 0 
z
" transform="scale(0.015625)"/>
      </defs>
      <use xlink:href="#ArialMT-45"/>
      <use xlink:href="#ArialMT-66" x="66.699219"/>
      <use xlink:href="#ArialMT-66" x="92.732422"/>
      <use xlink:href="#ArialMT-65" x="120.515625"/>
      <use xlink:href="#ArialMT-63" x="176.130859"/>
      <use xlink:href="#ArialMT-74" x="226.130859"/>
      <use xlink:href="#ArialMT-69" x="253.914062"/>
      <use xlink:href="#ArialMT-76" x="276.130859"/>
      <use xlink:href="#ArialMT-65" x="326.130859"/>
      <use xlink:href="#ArialMT-20" x="381.746094"/>
      <use xlink:href="#ArialMT-73" x="409.529297"/>
      <use xlink:href="#ArialMT-61" x="459.529297"/>
      <use xlink:href="#ArialMT-6d" x="515.144531"/>
      <use xlink:href="#ArialMT-70" x="598.445312"/>
      <use xlink:href="#ArialMT-6c" x="654.060547"/>
      <use xlink:href="#ArialMT-65" x="676.277344"/>
      <use xlink:href="#ArialMT-20" x="731.892578"/>
      <use xlink:href="#ArialMT-73" x="759.675781"/>
      <use xlink:href="#ArialMT-69" x="809.675781"/>
      <use xlink:href="#ArialMT-7a" x="831.892578"/>
      <use xlink:href="#ArialMT-65" x="881.892578"/>
     </g>
    </g>
   </g>
   <g id="line2d_18">
    <path d="M 55.759193 212.430293 
L 69.108475 217.946397 
L 82.457758 202.770448 
L 95.80704 195.496377 
L 109.156322 192.701137 
L 122.505605 175.654683 
L 135.854887 174.161897 
L 149.204169 193.694676 
L 162.553452 197.682496 
L 175.902734 175.234432 
L 189.252016 153.437064 
L 202.601298 146.26894 
L 215.950581 154.3534 
L 229.299863 139.194454 
L 242.649145 128.914675 
L 255.998428 115.321081 
L 269.34771 107.25998 
L 282.696992 93.828649 
L 296.046275 73.841594 
L 309.395557 54.698685 
" clip-path="url(#pc469f07ec3)" style="fill: none; stroke: #1f77b4; stroke-width: 1.2; stroke-linecap: round"/>
   </g>
   <g id="line2d_19">
    <path d="M 55.759193 213.386505 
L 69.108475 218.88 
L 82.457758 214.853377 
L 95.80704 208.217068 
L 109.156322 204.420642 
L 122.505605 199.302566 
L 135.854887 178.731181 
L 149.204169 169.53432 
L 162.553452 176.446253 
L 175.902734 152.103366 
L 189.252016 141.557989 
L 202.601298 122.72094 
L 215.950581 110.678506 
L 229.299863 97.487612 
L 242.649145 88.893299 
L 255.998428 71.116756 
L 269.34771 55.957096 
L 282.696992 45.876799 
L 296.046275 35.75144 
L 309.395557 17.28 
" clip-path="url(#pc469f07ec3)" style="fill: none; stroke: #ff7f0e; stroke-width: 1.2; stroke-linecap: round"/>
   </g>
   <g id="patch_3">
    <path d="M 43.077375 224.595891 
L 43.077375 11.697928 
" style="fill: none; stroke: #262626; stroke-linejoin: miter; stroke-linecap: square"/>
   </g>
   <g id="patch_4">
    <path d="M 53.089337 228.96 
L 320.074983 228.96 
" style="fill: none; stroke: #262626; stroke-linejoin: miter; stroke-linecap: square"/>
   </g>
   <g id="legend_1">
    <g id="patch_5">
     <path d="M 49.237375 39.408 
L 187.573375 39.408 
Q 189.333375 39.408 189.333375 37.648 
L 189.333375 13.36 
Q 189.333375 11.6 187.573375 11.6 
L 49.237375 11.6 
Q 47.477375 11.6 47.477375 13.36 
L 47.477375 37.648 
Q 47.477375 39.408 49.237375 39.408 
z
" style="fill: #ffffff; opacity: 0.8; stroke: #cccccc; stroke-width: 0.8; stroke-linejoin: miter"/>
    </g>
    <g id="line2d_20">
     <path d="M 50.997375 18.464 
L 59.797375 18.464 
L 68.597375 18.464 
" style="fill: none; stroke: #1f77b4; stroke-width: 1.2; stroke-linecap: round"/>
    </g>
    <g id="text_20">
     <!-- Effective Sample Size for $x_1$ -->
     <g style="fill: #262626" transform="translate(75.637375 21.544) scale(0.088 -0.088)">
      <defs>
       <path id="ArialMT-53" d="M 288 1472 
L 859 1522 
Q 900 1178 1048 958 
Q 1197 738 1509 602 
Q 1822 466 2213 466 
Q 2559 466 2825 569 
Q 3091 672 3220 851 
Q 3350 1031 3350 1244 
Q 3350 1459 3225 1620 
Q 3100 1781 2813 1891 
Q 2628 1963 1997 2114 
Q 1366 2266 1113 2400 
Q 784 2572 623 2826 
Q 463 3081 463 3397 
Q 463 3744 659 4045 
Q 856 4347 1234 4503 
Q 1613 4659 2075 4659 
Q 2584 4659 2973 4495 
Q 3363 4331 3572 4012 
Q 3781 3694 3797 3291 
L 3216 3247 
Q 3169 3681 2898 3903 
Q 2628 4125 2100 4125 
Q 1550 4125 1298 3923 
Q 1047 3722 1047 3438 
Q 1047 3191 1225 3031 
Q 1400 2872 2139 2705 
Q 2878 2538 3153 2413 
Q 3553 2228 3743 1945 
Q 3934 1663 3934 1294 
Q 3934 928 3725 604 
Q 3516 281 3123 101 
Q 2731 -78 2241 -78 
Q 1619 -78 1198 103 
Q 778 284 539 648 
Q 300 1013 288 1472 
z
" transform="scale(0.015625)"/>
       <path id="DejaVuSans-Oblique-78" d="M 3841 3500 
L 2234 1784 
L 3219 0 
L 2559 0 
L 1819 1388 
L 531 0 
L -166 0 
L 1556 1844 
L 641 3500 
L 1300 3500 
L 1972 2234 
L 3144 3500 
L 3841 3500 
z
" transform="scale(0.015625)"/>
       <path id="DejaVuSans-31" d="M 794 531 
L 1825 531 
L 1825 4091 
L 703 3866 
L 703 4441 
L 1819 4666 
L 2450 4666 
L 2450 531 
L 3481 531 
L 3481 0 
L 794 0 
L 794 531 
z
" transform="scale(0.015625)"/>
      </defs>
      <use xlink:href="#ArialMT-45" transform="translate(0 0.203125)"/>
      <use xlink:href="#ArialMT-66" transform="translate(66.699219 0.203125)"/>
      <use xlink:href="#ArialMT-66" transform="translate(94.482422 0.203125)"/>
      <use xlink:href="#ArialMT-65" transform="translate(122.265625 0.203125)"/>
      <use xlink:href="#ArialMT-63" transform="translate(177.880859 0.203125)"/>
      <use xlink:href="#ArialMT-74" transform="translate(227.880859 0.203125)"/>
      <use xlink:href="#ArialMT-69" transform="translate(255.664062 0.203125)"/>
      <use xlink:href="#ArialMT-76" transform="translate(277.880859 0.203125)"/>
      <use xlink:href="#ArialMT-65" transform="translate(327.880859 0.203125)"/>
      <use xlink:href="#ArialMT-20" transform="translate(383.496094 0.203125)"/>
      <use xlink:href="#ArialMT-53" transform="translate(411.279297 0.203125)"/>
      <use xlink:href="#ArialMT-61" transform="translate(477.978516 0.203125)"/>
      <use xlink:href="#ArialMT-6d" transform="translate(533.59375 0.203125)"/>
      <use xlink:href="#ArialMT-70" transform="translate(616.894531 0.203125)"/>
      <use xlink:href="#ArialMT-6c" transform="translate(672.509766 0.203125)"/>
      <use xlink:href="#ArialMT-65" transform="translate(694.726562 0.203125)"/>
      <use xlink:href="#ArialMT-20" transform="translate(750.341797 0.203125)"/>
      <use xlink:href="#ArialMT-53" transform="translate(778.125 0.203125)"/>
      <use xlink:href="#ArialMT-69" transform="translate(844.824219 0.203125)"/>
      <use xlink:href="#ArialMT-7a" transform="translate(867.041016 0.203125)"/>
      <use xlink:href="#ArialMT-65" transform="translate(917.041016 0.203125)"/>
      <use xlink:href="#ArialMT-20" transform="translate(972.65625 0.203125)"/>
      <use xlink:href="#ArialMT-66" transform="translate(1000.439453 0.203125)"/>
      <use xlink:href="#ArialMT-6f" transform="translate(1028.222656 0.203125)"/>
      <use xlink:href="#ArialMT-72" transform="translate(1083.837891 0.203125)"/>
      <use xlink:href="#ArialMT-20" transform="translate(1117.138672 0.203125)"/>
      <use xlink:href="#DejaVuSans-Oblique-78" transform="translate(1144.921875 0.203125)"/>
      <use xlink:href="#DejaVuSans-31" transform="translate(1204.101562 -16.203125) scale(0.7)"/>
     </g>
    </g>
    <g id="line2d_21">
     <path d="M 50.997375 31.048 
L 59.797375 31.048 
L 68.597375 31.048 
" style="fill: none; stroke: #ff7f0e; stroke-width: 1.2; stroke-linecap: round"/>
    </g>
    <g id="text_21">
     <!-- Effective Sample Size for $x_2$ -->
     <g style="fill: #262626" transform="translate(75.637375 34.128) scale(0.088 -0.088)">
      <defs>
       <path id="DejaVuSans-32" d="M 1228 531 
L 3431 531 
L 3431 0 
L 469 0 
L 469 531 
Q 828 903 1448 1529 
Q 2069 2156 2228 2338 
Q 2531 2678 2651 2914 
Q 2772 3150 2772 3378 
Q 2772 3750 2511 3984 
Q 2250 4219 1831 4219 
Q 1534 4219 1204 4116 
Q 875 4013 500 3803 
L 500 4441 
Q 881 4594 1212 4672 
Q 1544 4750 1819 4750 
Q 2544 4750 2975 4387 
Q 3406 4025 3406 3419 
Q 3406 3131 3298 2873 
Q 3191 2616 2906 2266 
Q 2828 2175 2409 1742 
Q 1991 1309 1228 531 
z
" transform="scale(0.015625)"/>
      </defs>
      <use xlink:href="#ArialMT-45" transform="translate(0 0.203125)"/>
      <use xlink:href="#ArialMT-66" transform="translate(66.699219 0.203125)"/>
      <use xlink:href="#ArialMT-66" transform="translate(94.482422 0.203125)"/>
      <use xlink:href="#ArialMT-65" transform="translate(122.265625 0.203125)"/>
      <use xlink:href="#ArialMT-63" transform="translate(177.880859 0.203125)"/>
      <use xlink:href="#ArialMT-74" transform="translate(227.880859 0.203125)"/>
      <use xlink:href="#ArialMT-69" transform="translate(255.664062 0.203125)"/>
      <use xlink:href="#ArialMT-76" transform="translate(277.880859 0.203125)"/>
      <use xlink:href="#ArialMT-65" transform="translate(327.880859 0.203125)"/>
      <use xlink:href="#ArialMT-20" transform="translate(383.496094 0.203125)"/>
      <use xlink:href="#ArialMT-53" transform="translate(411.279297 0.203125)"/>
      <use xlink:href="#ArialMT-61" transform="translate(477.978516 0.203125)"/>
      <use xlink:href="#ArialMT-6d" transform="translate(533.59375 0.203125)"/>
      <use xlink:href="#ArialMT-70" transform="translate(616.894531 0.203125)"/>
      <use xlink:href="#ArialMT-6c" transform="translate(672.509766 0.203125)"/>
      <use xlink:href="#ArialMT-65" transform="translate(694.726562 0.203125)"/>
      <use xlink:href="#ArialMT-20" transform="translate(750.341797 0.203125)"/>
      <use xlink:href="#ArialMT-53" transform="translate(778.125 0.203125)"/>
      <use xlink:href="#ArialMT-69" transform="translate(844.824219 0.203125)"/>
      <use xlink:href="#ArialMT-7a" transform="translate(867.041016 0.203125)"/>
      <use xlink:href="#ArialMT-65" transform="translate(917.041016 0.203125)"/>
      <use xlink:href="#ArialMT-20" transform="translate(972.65625 0.203125)"/>
      <use xlink:href="#ArialMT-66" transform="translate(1000.439453 0.203125)"/>
      <use xlink:href="#ArialMT-6f" transform="translate(1028.222656 0.203125)"/>
      <use xlink:href="#ArialMT-72" transform="translate(1083.837891 0.203125)"/>
      <use xlink:href="#ArialMT-20" transform="translate(1117.138672 0.203125)"/>
      <use xlink:href="#DejaVuSans-Oblique-78" transform="translate(1144.921875 0.203125)"/>
      <use xlink:href="#DejaVuSans-32" transform="translate(1204.101562 -16.203125) scale(0.7)"/>
     </g>
    </g>
   </g>
  </g>
 </g>
 <defs>
  <clipPath id="pc469f07ec3">
   <rect x="43.077375" y="7.2" width="279" height="221.76"/>
  </clipPath>
 </defs>
</svg>