<?xml version="1.0" encoding="utf-8" standalone="no"?>
<!DOCTYPE svg PUBLIC "-//W3C//DTD SVG 1.1//EN"
  "http://www.w3.org/Graphics/SVG/1.1/DTD/svg11.dtd">
<svg xmlns:xlink="http://www.w3.org/1999/xlink" width="410.20075pt" height="309.639375pt" viewBox="0 0 410.20075 309.639375" xmlns="http://www.w3.org/2000/svg" version="1.1">
 <metadata>
  <rdf:RDF xmlns:dc="http://purl.org/dc/elements/1.1/" xmlns:cc="http://creativecommons.org/ns#" xmlns:rdf="http://www.w3.org/1999/02/22-rdf-syntax-ns#">
   <cc:Work>
    <dc:type rdf:resource="http://purl.org/dc/dcmitype/StillImage"/>
    <dc:date>2025-02-07T06:02:08.024034</dc:date>
    <dc:format>image/svg+xml</dc:format>
    <dc:creator>
     <cc:Agent>
      <dc:title>Matplotlib v3.9.2, https://matplotlib.org/</dc:title>
     </cc:Agent>
    </dc:creator>
   </cc:Work>
  </rdf:RDF>
 </metadata>
 <defs>
  <style type="text/css">*{stroke-linejoin: round; stroke-linecap: butt}</style>
 </defs>
 <g id="figure_1">
  <g id="patch_1">
   <path d="M 0 309.639375 
L 410.20075 309.639375 
L 410.20075 0 
L 0 0 
z
" style="fill: #ffffff"/>
  </g>
  <g id="axes_1">
   <g id="patch_2">
    <path d="M 45.88075 273.312 
L 403.00075 273.312 
L 403.00075 7.2 
L 45.88075 7.2 
z
" style="fill: #ffffff"/>
   </g>
   <g id="matplotlib.axis_1">
    <g id="xtick_1">
     <g id="line2d_1">
      <defs>
       <path id="ma1d30beb9c" d="M 0 0 
L 0 4.8 
" style="stroke: #262626"/>
      </defs>
      <g>
       <use xlink:href="#ma1d30beb9c" x="62.113477" y="273.312" style="fill: #262626; stroke: #262626"/>
      </g>
     </g>
     <g id="text_1">
      <!-- 0 -->
      <g style="fill: #262626" transform="translate(59.666665 287.910875) scale(0.088 -0.088)">
       <defs>
        <path id="ArialMT-30" d="M 266 2259 
Q 266 3072 433 3567 
Q 600 4063 929 4331 
Q 1259 4600 1759 4600 
Q 2128 4600 2406 4451 
Q 2684 4303 2865 4023 
Q 3047 3744 3150 3342 
Q 3253 2941 3253 2259 
Q 3253 1453 3087 958 
Q 2922 463 2592 192 
Q 2263 -78 1759 -78 
Q 1097 -78 719 397 
Q 266 969 266 2259 
z
M 844 2259 
Q 844 1131 1108 757 
Q 1372 384 1759 384 
Q 2147 384 2411 759 
Q 2675 1134 2675 2259 
Q 2675 3391 2411 3762 
Q 2147 4134 1753 4134 
Q 1366 4134 1134 3806 
Q 844 3388 844 2259 
z
" transform="scale(0.015625)"/>
       </defs>
       <use xlink:href="#ArialMT-30"/>
      </g>
     </g>
    </g>
    <g id="xtick_2">
     <g id="line2d_2">
      <g>
       <use xlink:href="#ma1d30beb9c" x="127.338044" y="273.312" style="fill: #262626; stroke: #262626"/>
      </g>
     </g>
     <g id="text_2">
      <!-- 1 -->
      <g style="fill: #262626" transform="translate(124.891231 287.910875) scale(0.088 -0.088)">
       <defs>
        <path id="ArialMT-31" d="M 2384 0 
L 1822 0 
L 1822 3584 
Q 1619 3391 1289 3197 
Q 959 3003 697 2906 
L 697 3450 
Q 1169 3672 1522 3987 
Q 1875 4303 2022 4600 
L 2384 4600 
L 2384 0 
z
" transform="scale(0.015625)"/>
       </defs>
       <use xlink:href="#ArialMT-31"/>
      </g>
     </g>
    </g>
    <g id="xtick_3">
     <g id="line2d_3">
      <g>
       <use xlink:href="#ma1d30beb9c" x="192.56261" y="273.312" style="fill: #262626; stroke: #262626"/>
      </g>
     </g>
     <g id="text_3">
      <!-- 2 -->
      <g style="fill: #262626" transform="translate(190.115798 287.910875) scale(0.088 -0.088)">
       <defs>
        <path id="ArialMT-32" d="M 3222 541 
L 3222 0 
L 194 0 
Q 188 203 259 391 
Q 375 700 629 1000 
Q 884 1300 1366 1694 
Q 2113 2306 2375 2664 
Q 2638 3022 2638 3341 
Q 2638 3675 2398 3904 
Q 2159 4134 1775 4134 
Q 1369 4134 1125 3890 
Q 881 3647 878 3216 
L 300 3275 
Q 359 3922 746 4261 
Q 1134 4600 1788 4600 
Q 2447 4600 2831 4234 
Q 3216 3869 3216 3328 
Q 3216 3053 3103 2787 
Q 2991 2522 2730 2228 
Q 2469 1934 1863 1422 
Q 1356 997 1212 845 
Q 1069 694 975 541 
L 3222 541 
z
" transform="scale(0.015625)"/>
       </defs>
       <use xlink:href="#ArialMT-32"/>
      </g>
     </g>
    </g>
    <g id="xtick_4">
     <g id="line2d_4">
      <g>
       <use xlink:href="#ma1d30beb9c" x="257.787177" y="273.312" style="fill: #262626; stroke: #262626"/>
      </g>
     </g>
     <g id="text_4">
      <!-- 3 -->
      <g style="fill: #262626" transform="translate(255.340364 287.910875) scale(0.088 -0.088)">
       <defs>
        <path id="ArialMT-33" d="M 269 1209 
L 831 1284 
Q 928 806 1161 595 
Q 1394 384 1728 384 
Q 2125 384 2398 659 
Q 2672 934 2672 1341 
Q 2672 1728 2419 1979 
Q 2166 2231 1775 2231 
Q 1616 2231 1378 2169 
L 1441 2663 
Q 1497 2656 1531 2656 
Q 1891 2656 2178 2843 
Q 2466 3031 2466 3422 
Q 2466 3731 2256 3934 
Q 2047 4138 1716 4138 
Q 1388 4138 1169 3931 
Q 950 3725 888 3313 
L 325 3413 
Q 428 3978 793 4289 
Q 1159 4600 1703 4600 
Q 2078 4600 2393 4439 
Q 2709 4278 2876 4000 
Q 3044 3722 3044 3409 
Q 3044 3113 2884 2869 
Q 2725 2625 2413 2481 
Q 2819 2388 3044 2092 
Q 3269 1797 3269 1353 
Q 3269 753 2831 336 
Q 2394 -81 1725 -81 
Q 1122 -81 723 278 
Q 325 638 269 1209 
z
" transform="scale(0.015625)"/>
       </defs>
       <use xlink:href="#ArialMT-33"/>
      </g>
     </g>
    </g>
    <g id="xtick_5">
     <g id="line2d_5">
      <g>
       <use xlink:href="#ma1d30beb9c" x="323.011743" y="273.312" style="fill: #262626; stroke: #262626"/>
      </g>
     </g>
     <g id="text_5">
      <!-- 4 -->
      <g style="fill: #262626" transform="translate(320.564931 287.910875) scale(0.088 -0.088)">
       <defs>
        <path id="ArialMT-34" d="M 2069 0 
L 2069 1097 
L 81 1097 
L 81 1613 
L 2172 4581 
L 2631 4581 
L 2631 1613 
L 3250 1613 
L 3250 1097 
L 2631 1097 
L 2631 0 
L 2069 0 
z
M 2069 1613 
L 2069 3678 
L 634 1613 
L 2069 1613 
z
" transform="scale(0.015625)"/>
       </defs>
       <use xlink:href="#ArialMT-34"/>
      </g>
     </g>
    </g>
    <g id="xtick_6">
     <g id="line2d_6">
      <g>
       <use xlink:href="#ma1d30beb9c" x="388.23631" y="273.312" style="fill: #262626; stroke: #262626"/>
      </g>
     </g>
     <g id="text_6">
      <!-- 5 -->
      <g style="fill: #262626" transform="translate(385.789497 287.910875) scale(0.088 -0.088)">
       <defs>
        <path id="ArialMT-35" d="M 266 1200 
L 856 1250 
Q 922 819 1161 601 
Q 1400 384 1738 384 
Q 2144 384 2425 690 
Q 2706 997 2706 1503 
Q 2706 1984 2436 2262 
Q 2166 2541 1728 2541 
Q 1456 2541 1237 2417 
Q 1019 2294 894 2097 
L 366 2166 
L 809 4519 
L 3088 4519 
L 3088 3981 
L 1259 3981 
L 1013 2750 
Q 1425 3038 1878 3038 
Q 2478 3038 2890 2622 
Q 3303 2206 3303 1553 
Q 3303 931 2941 478 
Q 2500 -78 1738 -78 
Q 1113 -78 717 272 
Q 322 622 266 1200 
z
" transform="scale(0.015625)"/>
       </defs>
       <use xlink:href="#ArialMT-35"/>
      </g>
     </g>
    </g>
    <g id="text_7">
     <!-- t -->
     <g style="fill: #262626" transform="translate(223.10725 300.531375) scale(0.096 -0.096)">
      <defs>
       <path id="ArialMT-74" d="M 1650 503 
L 1731 6 
Q 1494 -44 1306 -44 
Q 1000 -44 831 53 
Q 663 150 594 308 
Q 525 466 525 972 
L 525 2881 
L 113 2881 
L 113 3319 
L 525 3319 
L 525 4141 
L 1084 4478 
L 1084 3319 
L 1650 3319 
L 1650 2881 
L 1084 2881 
L 1084 941 
Q 1084 700 1114 631 
Q 1144 563 1211 522 
Q 1278 481 1403 481 
Q 1497 481 1650 503 
z
" transform="scale(0.015625)"/>
      </defs>
      <use xlink:href="#ArialMT-74"/>
     </g>
    </g>
   </g>
   <g id="matplotlib.axis_2">
    <g id="ytick_1">
     <g id="line2d_7">
      <defs>
       <path id="m374a319642" d="M 0 0 
L -4.8 0 
" style="stroke: #262626"/>
      </defs>
      <g>
       <use xlink:href="#m374a319642" x="45.88075" y="258.605319" style="fill: #262626; stroke: #262626"/>
      </g>
     </g>
     <g id="text_8">
      <!-- −0.6 -->
      <g style="fill: #262626" transform="translate(20.209 261.754756) scale(0.088 -0.088)">
       <defs>
        <path id="ArialMT-2212" d="M 3381 1997 
L 356 1997 
L 356 2522 
L 3381 2522 
L 3381 1997 
z
" transform="scale(0.015625)"/>
        <path id="ArialMT-2e" d="M 581 0 
L 581 641 
L 1222 641 
L 1222 0 
L 581 0 
z
" transform="scale(0.015625)"/>
        <path id="ArialMT-36" d="M 3184 3459 
L 2625 3416 
Q 2550 3747 2413 3897 
Q 2184 4138 1850 4138 
Q 1581 4138 1378 3988 
Q 1113 3794 959 3422 
Q 806 3050 800 2363 
Q 1003 2672 1297 2822 
Q 1591 2972 1913 2972 
Q 2475 2972 2870 2558 
Q 3266 2144 3266 1488 
Q 3266 1056 3080 686 
Q 2894 316 2569 119 
Q 2244 -78 1831 -78 
Q 1128 -78 684 439 
Q 241 956 241 2144 
Q 241 3472 731 4075 
Q 1159 4600 1884 4600 
Q 2425 4600 2770 4297 
Q 3116 3994 3184 3459 
z
M 888 1484 
Q 888 1194 1011 928 
Q 1134 663 1356 523 
Q 1578 384 1822 384 
Q 2178 384 2434 671 
Q 2691 959 2691 1453 
Q 2691 1928 2437 2201 
Q 2184 2475 1800 2475 
Q 1419 2475 1153 2201 
Q 888 1928 888 1484 
z
" transform="scale(0.015625)"/>
       </defs>
       <use xlink:href="#ArialMT-2212"/>
       <use xlink:href="#ArialMT-30" x="58.398438"/>
       <use xlink:href="#ArialMT-2e" x="114.013672"/>
       <use xlink:href="#ArialMT-36" x="141.796875"/>
      </g>
     </g>
    </g>
    <g id="ytick_2">
     <g id="line2d_8">
      <g>
       <use xlink:href="#m374a319642" x="45.88075" y="206.802436" style="fill: #262626; stroke: #262626"/>
      </g>
     </g>
     <g id="text_9">
      <!-- −0.4 -->
      <g style="fill: #262626" transform="translate(20.209 209.951874) scale(0.088 -0.088)">
       <use xlink:href="#ArialMT-2212"/>
       <use xlink:href="#ArialMT-30" x="58.398438"/>
       <use xlink:href="#ArialMT-2e" x="114.013672"/>
       <use xlink:href="#ArialMT-34" x="141.796875"/>
      </g>
     </g>
    </g>
    <g id="ytick_3">
     <g id="line2d_9">
      <g>
       <use xlink:href="#m374a319642" x="45.88075" y="154.999553" style="fill: #262626; stroke: #262626"/>
      </g>
     </g>
     <g id="text_10">
      <!-- −0.2 -->
      <g style="fill: #262626" transform="translate(20.209 158.148991) scale(0.088 -0.088)">
       <use xlink:href="#ArialMT-2212"/>
       <use xlink:href="#ArialMT-30" x="58.398438"/>
       <use xlink:href="#ArialMT-2e" x="114.013672"/>
       <use xlink:href="#ArialMT-32" x="141.796875"/>
      </g>
     </g>
    </g>
    <g id="ytick_4">
     <g id="line2d_10">
      <g>
       <use xlink:href="#m374a319642" x="45.88075" y="103.19667" style="fill: #262626; stroke: #262626"/>
      </g>
     </g>
     <g id="text_11">
      <!-- 0.0 -->
      <g style="fill: #262626" transform="translate(25.34875 106.346108) scale(0.088 -0.088)">
       <use xlink:href="#ArialMT-30"/>
       <use xlink:href="#ArialMT-2e" x="55.615234"/>
       <use xlink:href="#ArialMT-30" x="83.398438"/>
      </g>
     </g>
    </g>
    <g id="ytick_5">
     <g id="line2d_11">
      <g>
       <use xlink:href="#m374a319642" x="45.88075" y="51.393787" style="fill: #262626; stroke: #262626"/>
      </g>
     </g>
     <g id="text_12">
      <!-- 0.2 -->
      <g style="fill: #262626" transform="translate(25.34875 54.543225) scale(0.088 -0.088)">
       <use xlink:href="#ArialMT-30"/>
       <use xlink:href="#ArialMT-2e" x="55.615234"/>
       <use xlink:href="#ArialMT-32" x="83.398438"/>
      </g>
     </g>
    </g>
    <g id="text_13">
     <!-- x(t) -->
     <g style="fill: #262626" transform="translate(14.1885 147.186) rotate(-90) scale(0.096 -0.096)">
      <defs>
       <path id="ArialMT-78" d="M 47 0 
L 1259 1725 
L 138 3319 
L 841 3319 
L 1350 2541 
Q 1494 2319 1581 2169 
Q 1719 2375 1834 2534 
L 2394 3319 
L 3066 3319 
L 1919 1756 
L 3153 0 
L 2463 0 
L 1781 1031 
L 1600 1309 
L 728 0 
L 47 0 
z
" transform="scale(0.015625)"/>
       <path id="ArialMT-28" d="M 1497 -1347 
Q 1031 -759 709 28 
Q 388 816 388 1659 
Q 388 2403 628 3084 
Q 909 3875 1497 4659 
L 1900 4659 
Q 1522 4009 1400 3731 
Q 1209 3300 1100 2831 
Q 966 2247 966 1656 
Q 966 153 1900 -1347 
L 1497 -1347 
z
" transform="scale(0.015625)"/>
       <path id="ArialMT-29" d="M 791 -1347 
L 388 -1347 
Q 1322 153 1322 1656 
Q 1322 2244 1188 2822 
Q 1081 3291 891 3722 
Q 769 4003 388 4659 
L 791 4659 
Q 1378 3875 1659 3084 
Q 1900 2403 1900 1659 
Q 1900 816 1576 28 
Q 1253 -759 791 -1347 
z
" transform="scale(0.015625)"/>
      </defs>
      <use xlink:href="#ArialMT-78"/>
      <use xlink:href="#ArialMT-28" x="50"/>
      <use xlink:href="#ArialMT-74" x="83.300781"/>
      <use xlink:href="#ArialMT-29" x="111.083984"/>
     </g>
    </g>
   </g>
   <g id="PolyCollection_1">
    <defs>
     <path id="md99767b36d" d="M 62.113477 -206.442705 
L 62.113477 -206.442705 
L 63.744907 -206.46966 
L 65.376337 -206.550402 
L 67.007767 -206.684698 
L 68.639197 -206.872243 
L 70.270627 -207.112669 
L 71.902057 -207.405542 
L 73.533486 -207.750363 
L 75.164916 -208.146569 
L 76.796346 -208.593528 
L 78.427776 -209.090552 
L 80.059206 -209.636881 
L 81.690636 -210.231697 
L 83.322066 -210.874123 
L 84.953496 -211.563218 
L 86.584925 -212.29798 
L 88.216355 -213.077343 
L 89.847785 -213.900189 
L 91.479215 -214.765335 
L 93.110645 -215.671543 
L 94.742075 -216.617517 
L 96.373505 -217.601909 
L 98.004935 -218.62331 
L 99.636364 -219.680252 
L 101.267794 -220.771215 
L 102.899224 -221.894629 
L 104.530654 -223.048871 
L 106.162084 -224.232252 
L 107.793514 -225.44304 
L 109.424944 -226.679455 
L 111.056374 -227.939654 
L 112.687803 -229.221751 
L 114.319233 -230.523803 
L 115.950663 -231.843833 
L 117.582093 -233.179788 
L 119.213523 -234.529596 
L 120.844953 -235.891116 
L 122.476383 -237.262163 
L 124.107813 -238.640517 
L 125.739242 -240.023907 
L 127.370672 -241.410019 
L 129.002102 -242.796501 
L 130.633532 -244.180941 
L 132.264962 -245.560908 
L 133.896392 -246.933947 
L 135.527822 -248.297526 
L 137.159252 -249.649109 
L 138.790681 -250.98613 
L 140.422111 -252.30598 
L 142.053541 -253.606045 
L 143.684971 -254.883686 
L 145.316401 -256.136212 
L 146.947831 -257.360976 
L 148.579261 -258.555273 
L 150.210691 -259.716407 
L 151.84212 -260.84169 
L 153.47355 -261.928403 
L 155.10498 -262.973896 
L 156.73641 -263.975481 
L 158.36784 -264.930481 
L 159.99927 -265.836302 
L 161.6307 -266.690292 
L 163.26213 -267.489951 
L 164.89356 -268.232703 
L 166.524989 -268.916082 
L 168.156419 -269.53767 
L 169.787849 -270.095099 
L 171.419279 -270.586072 
L 173.050709 -271.008353 
L 174.682139 -271.359802 
L 176.313569 -271.638343 
L 177.944999 -271.842015 
L 179.576428 -271.968919 
L 181.207858 -272.017303 
L 182.839288 -271.985446 
L 184.470718 -271.871803 
L 186.102148 -271.674924 
L 187.733578 -271.393458 
L 189.365008 -271.026215 
L 190.996438 -270.57207 
L 192.627867 -270.030083 
L 194.259297 -269.399403 
L 195.890727 -268.679318 
L 197.522157 -267.869258 
L 199.153587 -266.968767 
L 200.785017 -265.977529 
L 202.416447 -264.89534 
L 204.047877 -263.722132 
L 205.679306 -262.45795 
L 207.310736 -261.10304 
L 208.942166 -259.657617 
L 210.573596 -258.122143 
L 212.205026 -256.497125 
L 213.836456 -254.783185 
L 215.467886 -252.981042 
L 217.099316 -251.091548 
L 218.730745 -249.115591 
L 220.362175 -247.054178 
L 221.993605 -244.908382 
L 223.625035 -242.679354 
L 225.256465 -240.36832 
L 226.887895 -237.976557 
L 228.519325 -235.505432 
L 230.150755 -232.956313 
L 231.782184 -230.330688 
L 233.413614 -227.630037 
L 235.045044 -224.85595 
L 236.676474 -222.010024 
L 238.307904 -219.093899 
L 239.939334 -216.109299 
L 241.570764 -213.057966 
L 243.202194 -209.941718 
L 244.833623 -206.762415 
L 246.465053 -203.521992 
L 248.096483 -200.222445 
L 249.727913 -196.86584 
L 251.359343 -193.454354 
L 252.990773 -189.990219 
L 254.622203 -186.475785 
L 256.253633 -182.913522 
L 257.885062 -179.305985 
L 259.516492 -175.655964 
L 261.147922 -171.966299 
L 262.779352 -168.240026 
L 264.410782 -164.480374 
L 266.042212 -160.69073 
L 267.673642 -156.874708 
L 269.305072 -153.03617 
L 270.936501 -149.179141 
L 272.567931 -145.307962 
L 274.199361 -141.427188 
L 275.830791 -137.541682 
L 277.462221 -133.656593 
L 279.093651 -129.777293 
L 280.725081 -125.909518 
L 282.356511 -122.059289 
L 283.98794 -118.232905 
L 285.61937 -114.43695 
L 287.2508 -110.678403 
L 288.88223 -106.964364 
L 290.51366 -103.302338 
L 292.14509 -99.699919 
L 293.77652 -96.165059 
L 295.40795 -92.705833 
L 297.03938 -89.330406 
L 298.670809 -86.047031 
L 300.302239 -82.864052 
L 301.933669 -79.789745 
L 303.565099 -76.832214 
L 305.196529 -73.999442 
L 306.827959 -71.299038 
L 308.459389 -68.73823 
L 310.090819 -66.323623 
L 311.722248 -64.061302 
L 313.353678 -61.956376 
L 314.985108 -60.012967 
L 316.616538 -58.233962 
L 318.247968 -56.620905 
L 319.879398 -55.173626 
L 321.510828 -53.890181 
L 323.142258 -52.766508 
L 324.773687 -51.79654 
L 326.405117 -50.972018 
L 328.036547 -50.283015 
L 329.667977 -49.71823 
L 331.299407 -49.266284 
L 332.930837 -48.916757 
L 334.562267 -48.661791 
L 336.193697 -48.497263 
L 337.825126 -48.423375 
L 339.456556 -48.444541 
L 341.087986 -48.568635 
L 342.719416 -48.805631 
L 344.350846 -49.166428 
L 345.982276 -49.661571 
L 347.613706 -50.300707 
L 349.245136 -51.091913 
L 350.876565 -52.041409 
L 352.507995 -53.15389 
L 354.139425 -54.432287 
L 355.770855 -55.877914 
L 357.402285 -57.490754 
L 359.033715 -59.269512 
L 360.665145 -61.211794 
L 362.296575 -63.314297 
L 363.928004 -65.572882 
L 365.559434 -67.982795 
L 367.190864 -70.538694 
L 368.822294 -73.234775 
L 370.453724 -76.064923 
L 372.085154 -79.022724 
L 373.716584 -82.101709 
L 375.348014 -85.295162 
L 376.979443 -88.596446 
L 378.610873 -91.998975 
L 380.242303 -95.496149 
L 381.873733 -99.081601 
L 383.505163 -102.749139 
L 385.136593 -106.492727 
L 386.768023 -110.306652 
L 386.768023 -177.95736 
L 386.768023 -177.95736 
L 385.136593 -172.923476 
L 383.505163 -167.937027 
L 381.873733 -163.001018 
L 380.242303 -158.118566 
L 378.610873 -153.293329 
L 376.979443 -148.529313 
L 375.348014 -143.830883 
L 373.716584 -139.202976 
L 372.085154 -134.650899 
L 370.453724 -130.180438 
L 368.822294 -125.797937 
L 367.190864 -121.510244 
L 365.559434 -117.324676 
L 363.928004 -113.249177 
L 362.296575 -109.292222 
L 360.665145 -105.462796 
L 359.033715 -101.770541 
L 357.402285 -98.225646 
L 355.770855 -94.838973 
L 354.139425 -91.622029 
L 352.507995 -88.586974 
L 350.876565 -85.746815 
L 349.245136 -83.115236 
L 347.613706 -80.706635 
L 345.982276 -78.536466 
L 344.350846 -76.620522 
L 342.719416 -74.974936 
L 341.087986 -73.615719 
L 339.456556 -72.557628 
L 337.825126 -71.813294 
L 336.193697 -71.391669 
L 334.562267 -71.296893 
L 332.930837 -71.527342 
L 331.299407 -72.075593 
L 329.667977 -72.929 
L 328.036547 -74.071184 
L 326.405117 -75.483047 
L 324.773687 -77.144704 
L 323.142258 -79.036047 
L 321.510828 -81.137808 
L 319.879398 -83.431601 
L 318.247968 -85.900381 
L 316.616538 -88.528208 
L 314.985108 -91.300408 
L 313.353678 -94.203186 
L 311.722248 -97.223868 
L 310.090819 -100.350542 
L 308.459389 -103.572063 
L 306.827959 -106.878001 
L 305.196529 -110.258577 
L 303.565099 -113.70465 
L 301.933669 -117.207622 
L 300.302239 -120.759394 
L 298.670809 -124.352403 
L 297.03938 -127.979562 
L 295.40795 -131.634239 
L 293.77652 -135.310207 
L 292.14509 -139.001736 
L 290.51366 -142.703381 
L 288.88223 -146.410129 
L 287.2508 -150.117332 
L 285.61937 -153.820606 
L 283.98794 -157.515976 
L 282.356511 -161.199651 
L 280.725081 -164.868208 
L 279.093651 -168.5184 
L 277.462221 -172.147265 
L 275.830791 -175.752046 
L 274.199361 -179.330195 
L 272.567931 -182.879302 
L 270.936501 -186.397145 
L 269.305072 -189.881652 
L 267.673642 -193.330892 
L 266.042212 -196.743034 
L 264.410782 -200.116355 
L 262.779352 -203.449226 
L 261.147922 -206.740073 
L 259.516492 -209.987423 
L 257.885062 -213.189832 
L 256.253633 -216.345952 
L 254.622203 -219.454381 
L 252.990773 -222.513814 
L 251.359343 -225.522957 
L 249.727913 -228.480535 
L 248.096483 -231.385266 
L 246.465053 -234.235889 
L 244.833623 -237.031138 
L 243.202194 -239.769736 
L 241.570764 -242.450421 
L 239.939334 -245.071906 
L 238.307904 -247.632904 
L 236.676474 -250.132117 
L 235.045044 -252.568237 
L 233.413614 -254.939944 
L 231.782184 -257.245925 
L 230.150755 -259.484853 
L 228.519325 -261.65537 
L 226.887895 -263.756166 
L 225.256465 -265.785919 
L 223.625035 -267.743304 
L 221.993605 -269.627012 
L 220.362175 -271.435744 
L 218.730745 -273.168256 
L 217.099316 -274.82329 
L 215.467886 -276.399649 
L 213.836456 -277.896177 
L 212.205026 -279.311752 
L 210.573596 -280.645327 
L 208.942166 -281.895881 
L 207.310736 -283.062534 
L 205.679306 -284.144377 
L 204.047877 -285.140729 
L 202.416447 -286.05085 
L 200.785017 -286.874198 
L 199.153587 -287.610312 
L 197.522157 -288.258835 
L 195.890727 -288.819552 
L 194.259297 -289.292355 
L 192.627867 -289.677259 
L 190.996438 -289.97445 
L 189.365008 -290.18422 
L 187.733578 -290.306994 
L 186.102148 -290.343375 
L 184.470718 -290.294103 
L 182.839288 -290.160066 
L 181.207858 -289.942268 
L 179.576428 -289.641898 
L 177.944999 -289.260274 
L 176.313569 -288.798857 
L 174.682139 -288.259252 
L 173.050709 -287.643173 
L 171.419279 -286.95251 
L 169.787849 -286.189217 
L 168.156419 -285.355424 
L 166.524989 -284.453332 
L 164.89356 -283.48527 
L 163.26213 -282.453649 
L 161.6307 -281.360984 
L 159.99927 -280.209893 
L 158.36784 -279.002991 
L 156.73641 -277.743058 
L 155.10498 -276.432857 
L 153.47355 -275.075238 
L 151.84212 -273.673124 
L 150.210691 -272.229404 
L 148.579261 -270.747042 
L 146.947831 -269.229016 
L 145.316401 -267.678323 
L 143.684971 -266.097961 
L 142.053541 -264.490925 
L 140.422111 -262.86023 
L 138.790681 -261.208855 
L 137.159252 -259.539783 
L 135.527822 -257.855972 
L 133.896392 -256.160358 
L 132.264962 -254.45584 
L 130.633532 -252.745328 
L 129.002102 -251.031655 
L 127.370672 -249.317615 
L 125.739242 -247.605991 
L 124.107813 -245.899528 
L 122.476383 -244.200888 
L 120.844953 -242.512719 
L 119.213523 -240.837611 
L 117.582093 -239.178111 
L 115.950663 -237.536715 
L 114.319233 -235.915856 
L 112.687803 -234.317929 
L 111.056374 -232.745265 
L 109.424944 -231.200141 
L 107.793514 -229.684793 
L 106.162084 -228.201376 
L 104.530654 -226.752013 
L 102.899224 -225.338742 
L 101.267794 -223.963571 
L 99.636364 -222.628425 
L 98.004935 -221.335178 
L 96.373505 -220.085637 
L 94.742075 -218.881558 
L 93.110645 -217.724625 
L 91.479215 -216.616457 
L 89.847785 -215.558605 
L 88.216355 -214.552563 
L 86.584925 -213.599752 
L 84.953496 -212.701519 
L 83.322066 -211.859156 
L 81.690636 -211.073872 
L 80.059206 -210.346807 
L 78.427776 -209.679028 
L 76.796346 -209.071527 
L 75.164916 -208.525226 
L 73.533486 -208.040964 
L 71.902057 -207.61951 
L 70.270627 -207.261551 
L 68.639197 -206.967697 
L 67.007767 -206.738474 
L 65.376337 -206.574335 
L 63.744907 -206.47565 
L 62.113477 -206.442705 
z
" style="stroke: #ffffff; stroke-opacity: 0.5; stroke-width: 0.8"/>
    </defs>
    <g clip-path="url(#p15b8953516)">
     <use xlink:href="#md99767b36d" x="0" y="309.639375" style="fill: #1f77b4; fill-opacity: 0.5; stroke: #ffffff; stroke-opacity: 0.5; stroke-width: 0.8"/>
    </g>
   </g>
   <g id="line2d_12">
    <path d="M 62.113477 103.19667 
L 65.376337 103.077006 
L 68.639197 102.719405 
L 71.902057 102.126849 
L 75.164916 101.303478 
L 78.427776 100.254585 
L 81.690636 98.98659 
L 84.953496 97.507007 
L 88.216355 95.824422 
L 91.479215 93.948479 
L 94.742075 91.889838 
L 99.636364 88.485036 
L 104.530654 84.738933 
L 109.424944 80.699577 
L 115.950663 74.949101 
L 124.107813 67.369353 
L 140.422111 52.05627 
L 145.316401 47.732107 
L 150.210691 43.666469 
L 155.10498 39.936 
L 158.36784 37.672641 
L 161.6307 35.613737 
L 164.89356 33.780388 
L 168.156419 32.192828 
L 171.419279 30.870084 
L 174.682139 29.829848 
L 177.944999 29.088231 
L 181.207858 28.659589 
L 184.470718 28.556422 
L 187.733578 28.789149 
L 190.996438 29.366115 
L 194.259297 30.293496 
L 197.522157 31.575328 
L 200.785017 33.213511 
L 204.047877 35.207944 
L 207.310736 37.55659 
L 210.573596 40.255642 
L 213.836456 43.299694 
L 217.099316 46.681956 
L 220.362175 50.394412 
L 223.625035 54.428046 
L 226.887895 58.773012 
L 230.150755 63.418793 
L 233.413614 68.354384 
L 238.307904 76.275973 
L 243.202194 84.783647 
L 248.096483 93.835519 
L 252.990773 103.387358 
L 257.885062 113.391466 
L 264.410782 127.34101 
L 270.936501 141.851233 
L 280.725081 164.250512 
L 292.14509 190.288548 
L 297.03938 200.984391 
L 301.933669 211.140692 
L 305.196529 217.51037 
L 308.459389 223.484229 
L 311.722248 228.996794 
L 314.985108 233.982692 
L 318.247968 238.378732 
L 321.510828 242.125384 
L 323.142258 243.738102 
L 324.773687 245.168753 
L 326.405117 246.411842 
L 328.036547 247.462275 
L 329.667977 248.31576 
L 331.299407 248.968436 
L 332.930837 249.417325 
L 334.562267 249.660033 
L 336.193697 249.694909 
L 337.825126 249.521041 
L 339.456556 249.13829 
L 341.087986 248.547198 
L 342.719416 247.749091 
L 344.350846 246.7459 
L 345.982276 245.540357 
L 347.613706 244.135704 
L 349.245136 242.5358 
L 350.876565 240.745263 
L 352.507995 238.768939 
L 355.770855 234.280932 
L 359.033715 229.119352 
L 362.296575 223.33612 
L 365.559434 216.98564 
L 368.822294 210.123019 
L 372.085154 202.802564 
L 376.979443 191.076496 
L 381.873733 178.598065 
L 386.768023 165.507369 
L 386.768023 165.507369 
" clip-path="url(#p15b8953516)" style="fill: none; stroke: #1f77b4; stroke-width: 1.2; stroke-linecap: round"/>
   </g>
   <g id="patch_3">
    <path d="M 45.88075 258.605319 
L 45.88075 51.393787 
" style="fill: none; stroke: #262626; stroke-linejoin: miter; stroke-linecap: square"/>
   </g>
   <g id="patch_4">
    <path d="M 62.113477 273.312 
L 388.23631 273.312 
" style="fill: none; stroke: #262626; stroke-linejoin: miter; stroke-linecap: square"/>
   </g>
  </g>
 </g>
 <defs>
  <clipPath id="p15b8953516">
   <rect x="45.88075" y="7.2" width="357.12" height="266.112"/>
  </clipPath>
 </defs>
</svg>