<?xml version="1.0" encoding="utf-8" standalone="no"?>
<!DOCTYPE svg PUBLIC "-//W3C//DTD SVG 1.1//EN"
  "http://www.w3.org/Graphics/SVG/1.1/DTD/svg11.dtd">
<svg xmlns:xlink="http://www.w3.org/1999/xlink" width="409.97125pt" height="309.639375pt" viewBox="0 0 409.97125 309.639375" xmlns="http://www.w3.org/2000/svg" version="1.1">
 <metadata>
  <rdf:RDF xmlns:dc="http://purl.org/dc/elements/1.1/" xmlns:cc="http://creativecommons.org/ns#" xmlns:rdf="http://www.w3.org/1999/02/22-rdf-syntax-ns#">
   <cc:Work>
    <dc:type rdf:resource="http://purl.org/dc/dcmitype/StillImage"/>
    <dc:date>2024-11-18T14:30:39.853643</dc:date>
    <dc:format>image/svg+xml</dc:format>
    <dc:creator>
     <cc:Agent>
      <dc:title>Matplotlib v3.9.2, https://matplotlib.org/</dc:title>
     </cc:Agent>
    </dc:creator>
   </cc:Work>
  </rdf:RDF>
 </metadata>
 <defs>
  <style type="text/css">*{stroke-linejoin: round; stroke-linecap: butt}</style>
 </defs>
 <g id="figure_1">
  <g id="patch_1">
   <path d="M 0 309.639375 
L 409.97125 309.639375 
L 409.97125 0 
L 0 0 
z
" style="fill: #ffffff"/>
  </g>
  <g id="axes_1">
   <g id="patch_2">
    <path d="M 45.65125 273.312 
L 402.77125 273.312 
L 402.77125 7.2 
L 45.65125 7.2 
z
" style="fill: #ffffff"/>
   </g>
   <g id="matplotlib.axis_1">
    <g id="xtick_1">
     <g id="line2d_1">
      <defs>
       <path id="mcd00cbd5be" d="M 0 0 
L 0 4.8 
" style="stroke: #262626"/>
      </defs>
      <g>
       <use xlink:href="#mcd00cbd5be" x="61.883977" y="273.312" style="fill: #262626; stroke: #262626"/>
      </g>
     </g>
     <g id="text_1">
      <!-- 0 -->
      <g style="fill: #262626" transform="translate(59.437165 287.910875) scale(0.088 -0.088)">
       <defs>
        <path id="ArialMT-30" d="M 266 2259 
Q 266 3072 433 3567 
Q 600 4063 929 4331 
Q 1259 4600 1759 4600 
Q 2128 4600 2406 4451 
Q 2684 4303 2865 4023 
Q 3047 3744 3150 3342 
Q 3253 2941 3253 2259 
Q 3253 1453 3087 958 
Q 2922 463 2592 192 
Q 2263 -78 1759 -78 
Q 1097 -78 719 397 
Q 266 969 266 2259 
z
M 844 2259 
Q 844 1131 1108 757 
Q 1372 384 1759 384 
Q 2147 384 2411 759 
Q 2675 1134 2675 2259 
Q 2675 3391 2411 3762 
Q 2147 4134 1753 4134 
Q 1366 4134 1134 3806 
Q 844 3388 844 2259 
z
" transform="scale(0.015625)"/>
       </defs>
       <use xlink:href="#ArialMT-30"/>
      </g>
     </g>
    </g>
    <g id="xtick_2">
     <g id="line2d_2">
      <g>
       <use xlink:href="#mcd00cbd5be" x="126.814886" y="273.312" style="fill: #262626; stroke: #262626"/>
      </g>
     </g>
     <g id="text_2">
      <!-- 2 -->
      <g style="fill: #262626" transform="translate(124.368074 287.910875) scale(0.088 -0.088)">
       <defs>
        <path id="ArialMT-32" d="M 3222 541 
L 3222 0 
L 194 0 
Q 188 203 259 391 
Q 375 700 629 1000 
Q 884 1300 1366 1694 
Q 2113 2306 2375 2664 
Q 2638 3022 2638 3341 
Q 2638 3675 2398 3904 
Q 2159 4134 1775 4134 
Q 1369 4134 1125 3890 
Q 881 3647 878 3216 
L 300 3275 
Q 359 3922 746 4261 
Q 1134 4600 1788 4600 
Q 2447 4600 2831 4234 
Q 3216 3869 3216 3328 
Q 3216 3053 3103 2787 
Q 2991 2522 2730 2228 
Q 2469 1934 1863 1422 
Q 1356 997 1212 845 
Q 1069 694 975 541 
L 3222 541 
z
" transform="scale(0.015625)"/>
       </defs>
       <use xlink:href="#ArialMT-32"/>
      </g>
     </g>
    </g>
    <g id="xtick_3">
     <g id="line2d_3">
      <g>
       <use xlink:href="#mcd00cbd5be" x="191.745795" y="273.312" style="fill: #262626; stroke: #262626"/>
      </g>
     </g>
     <g id="text_3">
      <!-- 4 -->
      <g style="fill: #262626" transform="translate(189.298983 287.910875) scale(0.088 -0.088)">
       <defs>
        <path id="ArialMT-34" d="M 2069 0 
L 2069 1097 
L 81 1097 
L 81 1613 
L 2172 4581 
L 2631 4581 
L 2631 1613 
L 3250 1613 
L 3250 1097 
L 2631 1097 
L 2631 0 
L 2069 0 
z
M 2069 1613 
L 2069 3678 
L 634 1613 
L 2069 1613 
z
" transform="scale(0.015625)"/>
       </defs>
       <use xlink:href="#ArialMT-34"/>
      </g>
     </g>
    </g>
    <g id="xtick_4">
     <g id="line2d_4">
      <g>
       <use xlink:href="#mcd00cbd5be" x="256.676705" y="273.312" style="fill: #262626; stroke: #262626"/>
      </g>
     </g>
     <g id="text_4">
      <!-- 6 -->
      <g style="fill: #262626" transform="translate(254.229892 287.910875) scale(0.088 -0.088)">
       <defs>
        <path id="ArialMT-36" d="M 3184 3459 
L 2625 3416 
Q 2550 3747 2413 3897 
Q 2184 4138 1850 4138 
Q 1581 4138 1378 3988 
Q 1113 3794 959 3422 
Q 806 3050 800 2363 
Q 1003 2672 1297 2822 
Q 1591 2972 1913 2972 
Q 2475 2972 2870 2558 
Q 3266 2144 3266 1488 
Q 3266 1056 3080 686 
Q 2894 316 2569 119 
Q 2244 -78 1831 -78 
Q 1128 -78 684 439 
Q 241 956 241 2144 
Q 241 3472 731 4075 
Q 1159 4600 1884 4600 
Q 2425 4600 2770 4297 
Q 3116 3994 3184 3459 
z
M 888 1484 
Q 888 1194 1011 928 
Q 1134 663 1356 523 
Q 1578 384 1822 384 
Q 2178 384 2434 671 
Q 2691 959 2691 1453 
Q 2691 1928 2437 2201 
Q 2184 2475 1800 2475 
Q 1419 2475 1153 2201 
Q 888 1928 888 1484 
z
" transform="scale(0.015625)"/>
       </defs>
       <use xlink:href="#ArialMT-36"/>
      </g>
     </g>
    </g>
    <g id="xtick_5">
     <g id="line2d_5">
      <g>
       <use xlink:href="#mcd00cbd5be" x="321.607614" y="273.312" style="fill: #262626; stroke: #262626"/>
      </g>
     </g>
     <g id="text_5">
      <!-- 8 -->
      <g style="fill: #262626" transform="translate(319.160801 287.910875) scale(0.088 -0.088)">
       <defs>
        <path id="ArialMT-38" d="M 1131 2484 
Q 781 2613 612 2850 
Q 444 3088 444 3419 
Q 444 3919 803 4259 
Q 1163 4600 1759 4600 
Q 2359 4600 2725 4251 
Q 3091 3903 3091 3403 
Q 3091 3084 2923 2848 
Q 2756 2613 2416 2484 
Q 2838 2347 3058 2040 
Q 3278 1734 3278 1309 
Q 3278 722 2862 322 
Q 2447 -78 1769 -78 
Q 1091 -78 675 323 
Q 259 725 259 1325 
Q 259 1772 486 2073 
Q 713 2375 1131 2484 
z
M 1019 3438 
Q 1019 3113 1228 2906 
Q 1438 2700 1772 2700 
Q 2097 2700 2305 2904 
Q 2513 3109 2513 3406 
Q 2513 3716 2298 3927 
Q 2084 4138 1766 4138 
Q 1444 4138 1231 3931 
Q 1019 3725 1019 3438 
z
M 838 1322 
Q 838 1081 952 856 
Q 1066 631 1291 507 
Q 1516 384 1775 384 
Q 2178 384 2440 643 
Q 2703 903 2703 1303 
Q 2703 1709 2433 1975 
Q 2163 2241 1756 2241 
Q 1359 2241 1098 1978 
Q 838 1716 838 1322 
z
" transform="scale(0.015625)"/>
       </defs>
       <use xlink:href="#ArialMT-38"/>
      </g>
     </g>
    </g>
    <g id="xtick_6">
     <g id="line2d_6">
      <g>
       <use xlink:href="#mcd00cbd5be" x="386.538523" y="273.312" style="fill: #262626; stroke: #262626"/>
      </g>
     </g>
     <g id="text_6">
      <!-- 10 -->
      <g style="fill: #262626" transform="translate(381.644898 287.910875) scale(0.088 -0.088)">
       <defs>
        <path id="ArialMT-31" d="M 2384 0 
L 1822 0 
L 1822 3584 
Q 1619 3391 1289 3197 
Q 959 3003 697 2906 
L 697 3450 
Q 1169 3672 1522 3987 
Q 1875 4303 2022 4600 
L 2384 4600 
L 2384 0 
z
" transform="scale(0.015625)"/>
       </defs>
       <use xlink:href="#ArialMT-31"/>
       <use xlink:href="#ArialMT-30" x="55.615234"/>
      </g>
     </g>
    </g>
    <g id="text_7">
     <!-- Time -->
     <g style="fill: #262626" transform="translate(213.7255 300.531375) scale(0.096 -0.096)">
      <defs>
       <path id="ArialMT-54" d="M 1659 0 
L 1659 4041 
L 150 4041 
L 150 4581 
L 3781 4581 
L 3781 4041 
L 2266 4041 
L 2266 0 
L 1659 0 
z
" transform="scale(0.015625)"/>
       <path id="ArialMT-69" d="M 425 3934 
L 425 4581 
L 988 4581 
L 988 3934 
L 425 3934 
z
M 425 0 
L 425 3319 
L 988 3319 
L 988 0 
L 425 0 
z
" transform="scale(0.015625)"/>
       <path id="ArialMT-6d" d="M 422 0 
L 422 3319 
L 925 3319 
L 925 2853 
Q 1081 3097 1340 3245 
Q 1600 3394 1931 3394 
Q 2300 3394 2536 3241 
Q 2772 3088 2869 2813 
Q 3263 3394 3894 3394 
Q 4388 3394 4653 3120 
Q 4919 2847 4919 2278 
L 4919 0 
L 4359 0 
L 4359 2091 
Q 4359 2428 4304 2576 
Q 4250 2725 4106 2815 
Q 3963 2906 3769 2906 
Q 3419 2906 3187 2673 
Q 2956 2441 2956 1928 
L 2956 0 
L 2394 0 
L 2394 2156 
Q 2394 2531 2256 2718 
Q 2119 2906 1806 2906 
Q 1569 2906 1367 2781 
Q 1166 2656 1075 2415 
Q 984 2175 984 1722 
L 984 0 
L 422 0 
z
" transform="scale(0.015625)"/>
       <path id="ArialMT-65" d="M 2694 1069 
L 3275 997 
Q 3138 488 2766 206 
Q 2394 -75 1816 -75 
Q 1088 -75 661 373 
Q 234 822 234 1631 
Q 234 2469 665 2931 
Q 1097 3394 1784 3394 
Q 2450 3394 2872 2941 
Q 3294 2488 3294 1666 
Q 3294 1616 3291 1516 
L 816 1516 
Q 847 969 1125 678 
Q 1403 388 1819 388 
Q 2128 388 2347 550 
Q 2566 713 2694 1069 
z
M 847 1978 
L 2700 1978 
Q 2663 2397 2488 2606 
Q 2219 2931 1791 2931 
Q 1403 2931 1139 2672 
Q 875 2413 847 1978 
z
" transform="scale(0.015625)"/>
      </defs>
      <use xlink:href="#ArialMT-54"/>
      <use xlink:href="#ArialMT-69" x="57.333984"/>
      <use xlink:href="#ArialMT-6d" x="79.550781"/>
      <use xlink:href="#ArialMT-65" x="162.851562"/>
     </g>
    </g>
   </g>
   <g id="matplotlib.axis_2">
    <g id="ytick_1">
     <g id="line2d_7">
      <defs>
       <path id="m7b338742dd" d="M 0 0 
L -4.8 0 
" style="stroke: #262626"/>
      </defs>
      <g>
       <use xlink:href="#m7b338742dd" x="45.65125" y="251.453488" style="fill: #262626; stroke: #262626"/>
      </g>
     </g>
     <g id="text_8">
      <!-- −1.0 -->
      <g style="fill: #262626" transform="translate(19.9795 254.602926) scale(0.088 -0.088)">
       <defs>
        <path id="ArialMT-2212" d="M 3381 1997 
L 356 1997 
L 356 2522 
L 3381 2522 
L 3381 1997 
z
" transform="scale(0.015625)"/>
        <path id="ArialMT-2e" d="M 581 0 
L 581 641 
L 1222 641 
L 1222 0 
L 581 0 
z
" transform="scale(0.015625)"/>
       </defs>
       <use xlink:href="#ArialMT-2212"/>
       <use xlink:href="#ArialMT-31" x="58.398438"/>
       <use xlink:href="#ArialMT-2e" x="114.013672"/>
       <use xlink:href="#ArialMT-30" x="141.796875"/>
      </g>
     </g>
    </g>
    <g id="ytick_2">
     <g id="line2d_8">
      <g>
       <use xlink:href="#m7b338742dd" x="45.65125" y="194.973781" style="fill: #262626; stroke: #262626"/>
      </g>
     </g>
     <g id="text_9">
      <!-- −0.5 -->
      <g style="fill: #262626" transform="translate(19.9795 198.123218) scale(0.088 -0.088)">
       <defs>
        <path id="ArialMT-35" d="M 266 1200 
L 856 1250 
Q 922 819 1161 601 
Q 1400 384 1738 384 
Q 2144 384 2425 690 
Q 2706 997 2706 1503 
Q 2706 1984 2436 2262 
Q 2166 2541 1728 2541 
Q 1456 2541 1237 2417 
Q 1019 2294 894 2097 
L 366 2166 
L 809 4519 
L 3088 4519 
L 3088 3981 
L 1259 3981 
L 1013 2750 
Q 1425 3038 1878 3038 
Q 2478 3038 2890 2622 
Q 3303 2206 3303 1553 
Q 3303 931 2941 478 
Q 2500 -78 1738 -78 
Q 1113 -78 717 272 
Q 322 622 266 1200 
z
" transform="scale(0.015625)"/>
       </defs>
       <use xlink:href="#ArialMT-2212"/>
       <use xlink:href="#ArialMT-30" x="58.398438"/>
       <use xlink:href="#ArialMT-2e" x="114.013672"/>
       <use xlink:href="#ArialMT-35" x="141.796875"/>
      </g>
     </g>
    </g>
    <g id="ytick_3">
     <g id="line2d_9">
      <g>
       <use xlink:href="#m7b338742dd" x="45.65125" y="138.494073" style="fill: #262626; stroke: #262626"/>
      </g>
     </g>
     <g id="text_10">
      <!-- 0.0 -->
      <g style="fill: #262626" transform="translate(25.11925 141.64351) scale(0.088 -0.088)">
       <use xlink:href="#ArialMT-30"/>
       <use xlink:href="#ArialMT-2e" x="55.615234"/>
       <use xlink:href="#ArialMT-30" x="83.398438"/>
      </g>
     </g>
    </g>
    <g id="ytick_4">
     <g id="line2d_10">
      <g>
       <use xlink:href="#m7b338742dd" x="45.65125" y="82.014365" style="fill: #262626; stroke: #262626"/>
      </g>
     </g>
     <g id="text_11">
      <!-- 0.5 -->
      <g style="fill: #262626" transform="translate(25.11925 85.163802) scale(0.088 -0.088)">
       <use xlink:href="#ArialMT-30"/>
       <use xlink:href="#ArialMT-2e" x="55.615234"/>
       <use xlink:href="#ArialMT-35" x="83.398438"/>
      </g>
     </g>
    </g>
    <g id="ytick_5">
     <g id="line2d_11">
      <g>
       <use xlink:href="#m7b338742dd" x="45.65125" y="25.534657" style="fill: #262626; stroke: #262626"/>
      </g>
     </g>
     <g id="text_12">
      <!-- 1.0 -->
      <g style="fill: #262626" transform="translate(25.11925 28.684094) scale(0.088 -0.088)">
       <use xlink:href="#ArialMT-31"/>
       <use xlink:href="#ArialMT-2e" x="55.615234"/>
       <use xlink:href="#ArialMT-30" x="83.398438"/>
      </g>
     </g>
    </g>
    <g id="text_13">
     <!-- Position -->
     <g style="fill: #262626" transform="translate(14.0715 157.332) rotate(-90) scale(0.096 -0.096)">
      <defs>
       <path id="ArialMT-50" d="M 494 0 
L 494 4581 
L 2222 4581 
Q 2678 4581 2919 4538 
Q 3256 4481 3484 4323 
Q 3713 4166 3852 3881 
Q 3991 3597 3991 3256 
Q 3991 2672 3619 2267 
Q 3247 1863 2275 1863 
L 1100 1863 
L 1100 0 
L 494 0 
z
M 1100 2403 
L 2284 2403 
Q 2872 2403 3119 2622 
Q 3366 2841 3366 3238 
Q 3366 3525 3220 3729 
Q 3075 3934 2838 4000 
Q 2684 4041 2272 4041 
L 1100 4041 
L 1100 2403 
z
" transform="scale(0.015625)"/>
       <path id="ArialMT-6f" d="M 213 1659 
Q 213 2581 725 3025 
Q 1153 3394 1769 3394 
Q 2453 3394 2887 2945 
Q 3322 2497 3322 1706 
Q 3322 1066 3130 698 
Q 2938 331 2570 128 
Q 2203 -75 1769 -75 
Q 1072 -75 642 372 
Q 213 819 213 1659 
z
M 791 1659 
Q 791 1022 1069 705 
Q 1347 388 1769 388 
Q 2188 388 2466 706 
Q 2744 1025 2744 1678 
Q 2744 2294 2464 2611 
Q 2184 2928 1769 2928 
Q 1347 2928 1069 2612 
Q 791 2297 791 1659 
z
" transform="scale(0.015625)"/>
       <path id="ArialMT-73" d="M 197 991 
L 753 1078 
Q 800 744 1014 566 
Q 1228 388 1613 388 
Q 2000 388 2187 545 
Q 2375 703 2375 916 
Q 2375 1106 2209 1216 
Q 2094 1291 1634 1406 
Q 1016 1563 777 1677 
Q 538 1791 414 1992 
Q 291 2194 291 2438 
Q 291 2659 392 2848 
Q 494 3038 669 3163 
Q 800 3259 1026 3326 
Q 1253 3394 1513 3394 
Q 1903 3394 2198 3281 
Q 2494 3169 2634 2976 
Q 2775 2784 2828 2463 
L 2278 2388 
Q 2241 2644 2061 2787 
Q 1881 2931 1553 2931 
Q 1166 2931 1000 2803 
Q 834 2675 834 2503 
Q 834 2394 903 2306 
Q 972 2216 1119 2156 
Q 1203 2125 1616 2013 
Q 2213 1853 2448 1751 
Q 2684 1650 2818 1456 
Q 2953 1263 2953 975 
Q 2953 694 2789 445 
Q 2625 197 2315 61 
Q 2006 -75 1616 -75 
Q 969 -75 630 194 
Q 291 463 197 991 
z
" transform="scale(0.015625)"/>
       <path id="ArialMT-74" d="M 1650 503 
L 1731 6 
Q 1494 -44 1306 -44 
Q 1000 -44 831 53 
Q 663 150 594 308 
Q 525 466 525 972 
L 525 2881 
L 113 2881 
L 113 3319 
L 525 3319 
L 525 4141 
L 1084 4478 
L 1084 3319 
L 1650 3319 
L 1650 2881 
L 1084 2881 
L 1084 941 
Q 1084 700 1114 631 
Q 1144 563 1211 522 
Q 1278 481 1403 481 
Q 1497 481 1650 503 
z
" transform="scale(0.015625)"/>
       <path id="ArialMT-6e" d="M 422 0 
L 422 3319 
L 928 3319 
L 928 2847 
Q 1294 3394 1984 3394 
Q 2284 3394 2536 3286 
Q 2788 3178 2913 3003 
Q 3038 2828 3088 2588 
Q 3119 2431 3119 2041 
L 3119 0 
L 2556 0 
L 2556 2019 
Q 2556 2363 2490 2533 
Q 2425 2703 2258 2804 
Q 2091 2906 1866 2906 
Q 1506 2906 1245 2678 
Q 984 2450 984 1813 
L 984 0 
L 422 0 
z
" transform="scale(0.015625)"/>
      </defs>
      <use xlink:href="#ArialMT-50"/>
      <use xlink:href="#ArialMT-6f" x="66.699219"/>
      <use xlink:href="#ArialMT-73" x="122.314453"/>
      <use xlink:href="#ArialMT-69" x="172.314453"/>
      <use xlink:href="#ArialMT-74" x="194.53125"/>
      <use xlink:href="#ArialMT-69" x="222.314453"/>
      <use xlink:href="#ArialMT-6f" x="244.53125"/>
      <use xlink:href="#ArialMT-6e" x="300.146484"/>
     </g>
    </g>
   </g>
   <g id="line2d_12">
    <path d="M 61.883977 19.296 
L 68.50958 25.671961 
L 75.135183 26.806785 
L 81.760784 31.018548 
L 88.386388 55.101479 
L 95.011992 75.262775 
L 101.637592 88.107446 
L 108.263195 122.138794 
L 114.888799 141.883822 
L 121.514403 174.858107 
L 128.140006 186.81129 
L 134.765606 218.952715 
L 141.391206 221.087033 
L 148.016813 244.162236 
L 154.642413 240.824102 
L 161.268021 257.107514 
L 167.893621 245.144439 
L 174.51922 243.932678 
L 181.144828 242.252939 
L 187.770428 225.992682 
L 194.396035 210.66372 
L 201.021635 189.027356 
L 207.647235 157.796768 
L 214.272835 138.19377 
L 220.898435 121.880609 
L 227.52405 96.188448 
L 234.14965 75.862933 
L 240.77525 54.459059 
L 247.400849 44.931216 
L 254.026449 22.831839 
L 260.652064 25.565823 
L 267.277664 27.008537 
L 273.903264 35.498839 
L 280.528864 32.546466 
L 287.154464 56.874583 
L 293.780079 64.248993 
L 300.405679 91.634704 
L 307.031279 104.326205 
L 313.656878 129.767728 
L 320.282478 137.949013 
L 326.908093 170.175748 
L 333.533693 195.632562 
L 340.159293 209.504327 
L 346.784893 222.649026 
L 353.410493 233.906903 
L 360.036093 261.216 
L 366.661692 243.360239 
L 373.287292 249.935474 
L 379.912892 248.807073 
L 386.538523 243.719945 
" clip-path="url(#pd2be9e8f5e)" style="fill: none"/>
    <defs>
     <path id="mcaacd1dd23" d="M 0 2.4 
C 0.636487 2.4 1.246992 2.147121 1.697056 1.697056 
C 2.147121 1.246992 2.4 0.636487 2.4 0 
C 2.4 -0.636487 2.147121 -1.246992 1.697056 -1.697056 
C 1.246992 -2.147121 0.636487 -2.4 0 -2.4 
C -0.636487 -2.4 -1.246992 -2.147121 -1.697056 -1.697056 
C -2.147121 -1.246992 -2.4 -0.636487 -2.4 0 
C -2.4 0.636487 -2.147121 1.246992 -1.697056 1.697056 
C -1.246992 2.147121 -0.636487 2.4 0 2.4 
z
" style="stroke: #1f77b4"/>
    </defs>
    <g clip-path="url(#pd2be9e8f5e)">
     <use xlink:href="#mcaacd1dd23" x="61.883977" y="19.296" style="fill: #1f77b4; stroke: #1f77b4"/>
     <use xlink:href="#mcaacd1dd23" x="68.50958" y="25.671961" style="fill: #1f77b4; stroke: #1f77b4"/>
     <use xlink:href="#mcaacd1dd23" x="75.135183" y="26.806785" style="fill: #1f77b4; stroke: #1f77b4"/>
     <use xlink:href="#mcaacd1dd23" x="81.760784" y="31.018548" style="fill: #1f77b4; stroke: #1f77b4"/>
     <use xlink:href="#mcaacd1dd23" x="88.386388" y="55.101479" style="fill: #1f77b4; stroke: #1f77b4"/>
     <use xlink:href="#mcaacd1dd23" x="95.011992" y="75.262775" style="fill: #1f77b4; stroke: #1f77b4"/>
     <use xlink:href="#mcaacd1dd23" x="101.637592" y="88.107446" style="fill: #1f77b4; stroke: #1f77b4"/>
     <use xlink:href="#mcaacd1dd23" x="108.263195" y="122.138794" style="fill: #1f77b4; stroke: #1f77b4"/>
     <use xlink:href="#mcaacd1dd23" x="114.888799" y="141.883822" style="fill: #1f77b4; stroke: #1f77b4"/>
     <use xlink:href="#mcaacd1dd23" x="121.514403" y="174.858107" style="fill: #1f77b4; stroke: #1f77b4"/>
     <use xlink:href="#mcaacd1dd23" x="128.140006" y="186.81129" style="fill: #1f77b4; stroke: #1f77b4"/>
     <use xlink:href="#mcaacd1dd23" x="134.765606" y="218.952715" style="fill: #1f77b4; stroke: #1f77b4"/>
     <use xlink:href="#mcaacd1dd23" x="141.391206" y="221.087033" style="fill: #1f77b4; stroke: #1f77b4"/>
     <use xlink:href="#mcaacd1dd23" x="148.016813" y="244.162236" style="fill: #1f77b4; stroke: #1f77b4"/>
     <use xlink:href="#mcaacd1dd23" x="154.642413" y="240.824102" style="fill: #1f77b4; stroke: #1f77b4"/>
     <use xlink:href="#mcaacd1dd23" x="161.268021" y="257.107514" style="fill: #1f77b4; stroke: #1f77b4"/>
     <use xlink:href="#mcaacd1dd23" x="167.893621" y="245.144439" style="fill: #1f77b4; stroke: #1f77b4"/>
     <use xlink:href="#mcaacd1dd23" x="174.51922" y="243.932678" style="fill: #1f77b4; stroke: #1f77b4"/>
     <use xlink:href="#mcaacd1dd23" x="181.144828" y="242.252939" style="fill: #1f77b4; stroke: #1f77b4"/>
     <use xlink:href="#mcaacd1dd23" x="187.770428" y="225.992682" style="fill: #1f77b4; stroke: #1f77b4"/>
     <use xlink:href="#mcaacd1dd23" x="194.396035" y="210.66372" style="fill: #1f77b4; stroke: #1f77b4"/>
     <use xlink:href="#mcaacd1dd23" x="201.021635" y="189.027356" style="fill: #1f77b4; stroke: #1f77b4"/>
     <use xlink:href="#mcaacd1dd23" x="207.647235" y="157.796768" style="fill: #1f77b4; stroke: #1f77b4"/>
     <use xlink:href="#mcaacd1dd23" x="214.272835" y="138.19377" style="fill: #1f77b4; stroke: #1f77b4"/>
     <use xlink:href="#mcaacd1dd23" x="220.898435" y="121.880609" style="fill: #1f77b4; stroke: #1f77b4"/>
     <use xlink:href="#mcaacd1dd23" x="227.52405" y="96.188448" style="fill: #1f77b4; stroke: #1f77b4"/>
     <use xlink:href="#mcaacd1dd23" x="234.14965" y="75.862933" style="fill: #1f77b4; stroke: #1f77b4"/>
     <use xlink:href="#mcaacd1dd23" x="240.77525" y="54.459059" style="fill: #1f77b4; stroke: #1f77b4"/>
     <use xlink:href="#mcaacd1dd23" x="247.400849" y="44.931216" style="fill: #1f77b4; stroke: #1f77b4"/>
     <use xlink:href="#mcaacd1dd23" x="254.026449" y="22.831839" style="fill: #1f77b4; stroke: #1f77b4"/>
     <use xlink:href="#mcaacd1dd23" x="260.652064" y="25.565823" style="fill: #1f77b4; stroke: #1f77b4"/>
     <use xlink:href="#mcaacd1dd23" x="267.277664" y="27.008537" style="fill: #1f77b4; stroke: #1f77b4"/>
     <use xlink:href="#mcaacd1dd23" x="273.903264" y="35.498839" style="fill: #1f77b4; stroke: #1f77b4"/>
     <use xlink:href="#mcaacd1dd23" x="280.528864" y="32.546466" style="fill: #1f77b4; stroke: #1f77b4"/>
     <use xlink:href="#mcaacd1dd23" x="287.154464" y="56.874583" style="fill: #1f77b4; stroke: #1f77b4"/>
     <use xlink:href="#mcaacd1dd23" x="293.780079" y="64.248993" style="fill: #1f77b4; stroke: #1f77b4"/>
     <use xlink:href="#mcaacd1dd23" x="300.405679" y="91.634704" style="fill: #1f77b4; stroke: #1f77b4"/>
     <use xlink:href="#mcaacd1dd23" x="307.031279" y="104.326205" style="fill: #1f77b4; stroke: #1f77b4"/>
     <use xlink:href="#mcaacd1dd23" x="313.656878" y="129.767728" style="fill: #1f77b4; stroke: #1f77b4"/>
     <use xlink:href="#mcaacd1dd23" x="320.282478" y="137.949013" style="fill: #1f77b4; stroke: #1f77b4"/>
     <use xlink:href="#mcaacd1dd23" x="326.908093" y="170.175748" style="fill: #1f77b4; stroke: #1f77b4"/>
     <use xlink:href="#mcaacd1dd23" x="333.533693" y="195.632562" style="fill: #1f77b4; stroke: #1f77b4"/>
     <use xlink:href="#mcaacd1dd23" x="340.159293" y="209.504327" style="fill: #1f77b4; stroke: #1f77b4"/>
     <use xlink:href="#mcaacd1dd23" x="346.784893" y="222.649026" style="fill: #1f77b4; stroke: #1f77b4"/>
     <use xlink:href="#mcaacd1dd23" x="353.410493" y="233.906903" style="fill: #1f77b4; stroke: #1f77b4"/>
     <use xlink:href="#mcaacd1dd23" x="360.036093" y="261.216" style="fill: #1f77b4; stroke: #1f77b4"/>
     <use xlink:href="#mcaacd1dd23" x="366.661692" y="243.360239" style="fill: #1f77b4; stroke: #1f77b4"/>
     <use xlink:href="#mcaacd1dd23" x="373.287292" y="249.935474" style="fill: #1f77b4; stroke: #1f77b4"/>
     <use xlink:href="#mcaacd1dd23" x="379.912892" y="248.807073" style="fill: #1f77b4; stroke: #1f77b4"/>
     <use xlink:href="#mcaacd1dd23" x="386.538523" y="243.719945" style="fill: #1f77b4; stroke: #1f77b4"/>
    </g>
   </g>
   <g id="line2d_13">
    <path d="M 61.883977 25.534657 
L 63.183895 25.625194 
L 64.483813 25.896658 
L 66.108711 26.489726 
L 67.733609 27.363307 
L 69.358506 28.51522 
L 70.983403 29.942562 
L 72.608301 31.641779 
L 74.558178 34.033658 
L 76.508055 36.802235 
L 78.457933 39.937527 
L 80.732788 44.043691 
L 83.007645 48.613408 
L 85.607482 54.374675 
L 88.207319 60.675093 
L 91.132133 68.357109 
L 94.38193 77.557019 
L 97.956702 88.377812 
L 102.181438 101.937908 
L 107.381111 119.4507 
L 125.579961 181.561677 
L 129.479717 193.764995 
L 133.05449 204.255717 
L 136.304283 213.104722 
L 139.229105 220.432554 
L 141.828939 226.389977 
L 144.428774 231.784038 
L 146.703629 236.014444 
L 148.978484 239.766234 
L 150.92836 242.5871 
L 152.878244 245.032599 
L 154.82812 247.093898 
L 156.453017 248.512764 
L 158.077914 249.656085 
L 159.70281 250.521008 
L 161.327707 251.105364 
L 162.952603 251.407685 
L 164.252521 251.445941 
L 165.552438 251.303143 
L 167.177343 250.870392 
L 168.802239 250.156206 
L 170.427136 249.162368 
L 172.052032 247.891357 
L 173.676929 246.346364 
L 175.626805 244.136207 
L 177.576681 241.545095 
L 179.526557 238.582367 
L 181.80142 234.670482 
L 184.076275 230.286599 
L 186.67611 224.726168 
L 189.275945 218.613047 
L 192.200759 211.124056 
L 195.450552 202.114855 
L 199.025332 191.472707 
L 202.925084 179.135956 
L 207.799782 162.913009 
L 215.274315 137.100664 
L 223.723777 108.081739 
L 228.598475 92.150616 
L 232.498227 80.140112 
L 236.072992 69.865253 
L 239.322785 61.242677 
L 242.247607 54.141313 
L 244.847441 48.401692 
L 247.122304 43.852019 
L 249.397152 39.766862 
L 251.672015 36.166211 
L 253.621891 33.479061 
L 255.571767 31.170611 
L 257.521643 29.249181 
L 259.146547 27.948666 
L 260.771436 26.925022 
L 262.396341 26.180787 
L 264.02123 25.717846 
L 265.321147 25.550822 
L 266.621064 25.564847 
L 267.920982 25.759893 
L 269.545886 26.257764 
L 271.17079 27.036734 
L 272.795679 28.094837 
L 274.420584 29.429447 
L 276.045473 31.037191 
L 277.995349 33.321336 
L 279.945225 35.984746 
L 281.895101 39.017812 
L 284.169964 43.008958 
L 286.444827 47.468727 
L 289.044661 53.111232 
L 291.644496 59.300988 
L 294.569302 66.86905 
L 297.819111 75.956587 
L 301.393876 86.672266 
L 305.293628 99.073272 
L 310.168326 115.351705 
L 317.96783 142.323323 
L 325.767349 169.075049 
L 330.642047 184.9972 
L 334.541799 196.997928 
L 338.116548 207.261886 
L 341.366357 215.873158 
L 344.291163 222.963184 
L 346.890998 228.691964 
L 349.165861 233.231599 
L 351.440724 237.306266 
L 353.715587 240.895989 
L 355.665448 243.573457 
L 357.615339 245.872037 
L 359.240228 247.492015 
L 360.865117 248.839014 
L 362.490037 249.909674 
L 364.114926 250.701275 
L 365.739815 251.211858 
L 367.364734 251.440151 
L 368.664652 251.41911 
L 369.964569 251.217056 
L 371.589458 250.710458 
L 373.214347 249.922816 
L 374.839236 248.856108 
L 376.464156 247.512968 
L 378.089045 245.896828 
L 380.038905 243.602799 
L 381.988797 240.929701 
L 383.938688 237.887202 
L 386.21352 233.885526 
L 386.538523 233.275101 
L 386.538523 233.275101 
" clip-path="url(#pd2be9e8f5e)" style="fill: none; stroke: #000000; stroke-width: 1.2; stroke-linecap: round"/>
   </g>
   <g id="patch_3">
    <path d="M 45.65125 251.453488 
L 45.65125 25.534657 
" style="fill: none; stroke: #262626; stroke-linejoin: miter; stroke-linecap: square"/>
   </g>
   <g id="patch_4">
    <path d="M 61.883977 273.312 
L 386.538523 273.312 
" style="fill: none; stroke: #262626; stroke-linejoin: miter; stroke-linecap: square"/>
   </g>
   <g id="legend_1">
    <g id="patch_5">
     <path d="M 321.001375 39.238875 
L 396.61125 39.238875 
Q 398.37125 39.238875 398.37125 37.478875 
L 398.37125 13.36 
Q 398.37125 11.6 396.61125 11.6 
L 321.001375 11.6 
Q 319.241375 11.6 319.241375 13.36 
L 319.241375 37.478875 
Q 319.241375 39.238875 321.001375 39.238875 
z
" style="fill: #ffffff; opacity: 0.8; stroke: #cccccc; stroke-width: 0.8; stroke-linejoin: miter"/>
    </g>
    <g id="line2d_14">
     <path d="M 322.761375 18.338875 
L 331.561375 18.338875 
L 340.361375 18.338875 
" style="fill: none"/>
     <g>
      <use xlink:href="#mcaacd1dd23" x="331.561375" y="18.338875" style="fill: #1f77b4; stroke: #1f77b4"/>
     </g>
    </g>
    <g id="text_14">
     <!-- observed -->
     <g style="fill: #262626" transform="translate(347.401375 21.418875) scale(0.088 -0.088)">
      <defs>
       <path id="ArialMT-62" d="M 941 0 
L 419 0 
L 419 4581 
L 981 4581 
L 981 2947 
Q 1338 3394 1891 3394 
Q 2197 3394 2470 3270 
Q 2744 3147 2920 2923 
Q 3097 2700 3197 2384 
Q 3297 2069 3297 1709 
Q 3297 856 2875 390 
Q 2453 -75 1863 -75 
Q 1275 -75 941 416 
L 941 0 
z
M 934 1684 
Q 934 1088 1097 822 
Q 1363 388 1816 388 
Q 2184 388 2453 708 
Q 2722 1028 2722 1663 
Q 2722 2313 2464 2622 
Q 2206 2931 1841 2931 
Q 1472 2931 1203 2611 
Q 934 2291 934 1684 
z
" transform="scale(0.015625)"/>
       <path id="ArialMT-72" d="M 416 0 
L 416 3319 
L 922 3319 
L 922 2816 
Q 1116 3169 1280 3281 
Q 1444 3394 1641 3394 
Q 1925 3394 2219 3213 
L 2025 2691 
Q 1819 2813 1613 2813 
Q 1428 2813 1281 2702 
Q 1134 2591 1072 2394 
Q 978 2094 978 1738 
L 978 0 
L 416 0 
z
" transform="scale(0.015625)"/>
       <path id="ArialMT-76" d="M 1344 0 
L 81 3319 
L 675 3319 
L 1388 1331 
Q 1503 1009 1600 663 
Q 1675 925 1809 1294 
L 2547 3319 
L 3125 3319 
L 1869 0 
L 1344 0 
z
" transform="scale(0.015625)"/>
       <path id="ArialMT-64" d="M 2575 0 
L 2575 419 
Q 2259 -75 1647 -75 
Q 1250 -75 917 144 
Q 584 363 401 755 
Q 219 1147 219 1656 
Q 219 2153 384 2558 
Q 550 2963 881 3178 
Q 1213 3394 1622 3394 
Q 1922 3394 2156 3267 
Q 2391 3141 2538 2938 
L 2538 4581 
L 3097 4581 
L 3097 0 
L 2575 0 
z
M 797 1656 
Q 797 1019 1065 703 
Q 1334 388 1700 388 
Q 2069 388 2326 689 
Q 2584 991 2584 1609 
Q 2584 2291 2321 2609 
Q 2059 2928 1675 2928 
Q 1300 2928 1048 2622 
Q 797 2316 797 1656 
z
" transform="scale(0.015625)"/>
      </defs>
      <use xlink:href="#ArialMT-6f"/>
      <use xlink:href="#ArialMT-62" x="55.615234"/>
      <use xlink:href="#ArialMT-73" x="111.230469"/>
      <use xlink:href="#ArialMT-65" x="161.230469"/>
      <use xlink:href="#ArialMT-72" x="216.845703"/>
      <use xlink:href="#ArialMT-76" x="250.146484"/>
      <use xlink:href="#ArialMT-65" x="300.146484"/>
      <use xlink:href="#ArialMT-64" x="355.761719"/>
     </g>
    </g>
    <g id="line2d_15">
     <path d="M 322.761375 30.78675 
L 331.561375 30.78675 
L 340.361375 30.78675 
" style="fill: none; stroke: #000000; stroke-width: 1.2; stroke-linecap: round"/>
    </g>
    <g id="text_15">
     <!-- ground truth -->
     <g style="fill: #262626" transform="translate(347.401375 33.86675) scale(0.088 -0.088)">
      <defs>
       <path id="ArialMT-67" d="M 319 -275 
L 866 -356 
Q 900 -609 1056 -725 
Q 1266 -881 1628 -881 
Q 2019 -881 2231 -725 
Q 2444 -569 2519 -288 
Q 2563 -116 2559 434 
Q 2191 0 1641 0 
Q 956 0 581 494 
Q 206 988 206 1678 
Q 206 2153 378 2554 
Q 550 2956 876 3175 
Q 1203 3394 1644 3394 
Q 2231 3394 2613 2919 
L 2613 3319 
L 3131 3319 
L 3131 450 
Q 3131 -325 2973 -648 
Q 2816 -972 2473 -1159 
Q 2131 -1347 1631 -1347 
Q 1038 -1347 672 -1080 
Q 306 -813 319 -275 
z
M 784 1719 
Q 784 1066 1043 766 
Q 1303 466 1694 466 
Q 2081 466 2343 764 
Q 2606 1063 2606 1700 
Q 2606 2309 2336 2618 
Q 2066 2928 1684 2928 
Q 1309 2928 1046 2623 
Q 784 2319 784 1719 
z
" transform="scale(0.015625)"/>
       <path id="ArialMT-75" d="M 2597 0 
L 2597 488 
Q 2209 -75 1544 -75 
Q 1250 -75 995 37 
Q 741 150 617 320 
Q 494 491 444 738 
Q 409 903 409 1263 
L 409 3319 
L 972 3319 
L 972 1478 
Q 972 1038 1006 884 
Q 1059 663 1231 536 
Q 1403 409 1656 409 
Q 1909 409 2131 539 
Q 2353 669 2445 892 
Q 2538 1116 2538 1541 
L 2538 3319 
L 3100 3319 
L 3100 0 
L 2597 0 
z
" transform="scale(0.015625)"/>
       <path id="ArialMT-20" transform="scale(0.015625)"/>
       <path id="ArialMT-68" d="M 422 0 
L 422 4581 
L 984 4581 
L 984 2938 
Q 1378 3394 1978 3394 
Q 2347 3394 2619 3248 
Q 2891 3103 3008 2847 
Q 3125 2591 3125 2103 
L 3125 0 
L 2563 0 
L 2563 2103 
Q 2563 2525 2380 2717 
Q 2197 2909 1863 2909 
Q 1613 2909 1392 2779 
Q 1172 2650 1078 2428 
Q 984 2206 984 1816 
L 984 0 
L 422 0 
z
" transform="scale(0.015625)"/>
      </defs>
      <use xlink:href="#ArialMT-67"/>
      <use xlink:href="#ArialMT-72" x="55.615234"/>
      <use xlink:href="#ArialMT-6f" x="88.916016"/>
      <use xlink:href="#ArialMT-75" x="144.53125"/>
      <use xlink:href="#ArialMT-6e" x="200.146484"/>
      <use xlink:href="#ArialMT-64" x="255.761719"/>
      <use xlink:href="#ArialMT-20" x="311.376953"/>
      <use xlink:href="#ArialMT-74" x="339.160156"/>
      <use xlink:href="#ArialMT-72" x="366.943359"/>
      <use xlink:href="#ArialMT-75" x="400.244141"/>
      <use xlink:href="#ArialMT-74" x="455.859375"/>
      <use xlink:href="#ArialMT-68" x="483.642578"/>
     </g>
    </g>
   </g>
  </g>
 </g>
 <defs>
  <clipPath id="pd2be9e8f5e">
   <rect x="45.65125" y="7.2" width="357.12" height="266.112"/>
  </clipPath>
 </defs>
</svg>