<?xml version="1.0" encoding="utf-8" standalone="no"?>
<!DOCTYPE svg PUBLIC "-//W3C//DTD SVG 1.1//EN"
  "http://www.w3.org/Graphics/SVG/1.1/DTD/svg11.dtd">
<svg xmlns:xlink="http://www.w3.org/1999/xlink" width="409.97125pt" height="322.510875pt" viewBox="0 0 409.97125 322.510875" xmlns="http://www.w3.org/2000/svg" version="1.1">
 <metadata>
  <rdf:RDF xmlns:dc="http://purl.org/dc/elements/1.1/" xmlns:cc="http://creativecommons.org/ns#" xmlns:rdf="http://www.w3.org/1999/02/22-rdf-syntax-ns#">
   <cc:Work>
    <dc:type rdf:resource="http://purl.org/dc/dcmitype/StillImage"/>
    <dc:date>2024-09-27T20:17:03.578787</dc:date>
    <dc:format>image/svg+xml</dc:format>
    <dc:creator>
     <cc:Agent>
      <dc:title>Matplotlib v3.9.0, https://matplotlib.org/</dc:title>
     </cc:Agent>
    </dc:creator>
   </cc:Work>
  </rdf:RDF>
 </metadata>
 <defs>
  <style type="text/css">*{stroke-linejoin: round; stroke-linecap: butt}</style>
 </defs>
 <g id="figure_1">
  <g id="patch_1">
   <path d="M 0 322.510875 
L 409.97125 322.510875 
L 409.97125 0 
L 0 0 
z
" style="fill: #ffffff"/>
  </g>
  <g id="axes_1">
   <g id="patch_2">
    <path d="M 45.65125 286.1835 
L 402.77125 286.1835 
L 402.77125 20.0715 
L 45.65125 20.0715 
z
" style="fill: #ffffff"/>
   </g>
   <g id="matplotlib.axis_1">
    <g id="xtick_1">
     <g id="line2d_1">
      <defs>
       <path id="m4367361e72" d="M 0 0 
L 0 4.8 
" style="stroke: #262626"/>
      </defs>
      <g>
       <use xlink:href="#m4367361e72" x="52.728762" y="286.1835" style="fill: #262626; stroke: #262626"/>
      </g>
     </g>
     <g id="text_1">
      <!-- −0.6 -->
      <g style="fill: #262626" transform="translate(44.042887 300.782375) scale(0.088 -0.088)">
       <defs>
        <path id="ArialMT-2212" d="M 3381 1997 
L 356 1997 
L 356 2522 
L 3381 2522 
L 3381 1997 
z
" transform="scale(0.015625)"/>
        <path id="ArialMT-30" d="M 266 2259 
Q 266 3072 433 3567 
Q 600 4063 929 4331 
Q 1259 4600 1759 4600 
Q 2128 4600 2406 4451 
Q 2684 4303 2865 4023 
Q 3047 3744 3150 3342 
Q 3253 2941 3253 2259 
Q 3253 1453 3087 958 
Q 2922 463 2592 192 
Q 2263 -78 1759 -78 
Q 1097 -78 719 397 
Q 266 969 266 2259 
z
M 844 2259 
Q 844 1131 1108 757 
Q 1372 384 1759 384 
Q 2147 384 2411 759 
Q 2675 1134 2675 2259 
Q 2675 3391 2411 3762 
Q 2147 4134 1753 4134 
Q 1366 4134 1134 3806 
Q 844 3388 844 2259 
z
" transform="scale(0.015625)"/>
        <path id="ArialMT-2e" d="M 581 0 
L 581 641 
L 1222 641 
L 1222 0 
L 581 0 
z
" transform="scale(0.015625)"/>
        <path id="ArialMT-36" d="M 3184 3459 
L 2625 3416 
Q 2550 3747 2413 3897 
Q 2184 4138 1850 4138 
Q 1581 4138 1378 3988 
Q 1113 3794 959 3422 
Q 806 3050 800 2363 
Q 1003 2672 1297 2822 
Q 1591 2972 1913 2972 
Q 2475 2972 2870 2558 
Q 3266 2144 3266 1488 
Q 3266 1056 3080 686 
Q 2894 316 2569 119 
Q 2244 -78 1831 -78 
Q 1128 -78 684 439 
Q 241 956 241 2144 
Q 241 3472 731 4075 
Q 1159 4600 1884 4600 
Q 2425 4600 2770 4297 
Q 3116 3994 3184 3459 
z
M 888 1484 
Q 888 1194 1011 928 
Q 1134 663 1356 523 
Q 1578 384 1822 384 
Q 2178 384 2434 671 
Q 2691 959 2691 1453 
Q 2691 1928 2437 2201 
Q 2184 2475 1800 2475 
Q 1419 2475 1153 2201 
Q 888 1928 888 1484 
z
" transform="scale(0.015625)"/>
       </defs>
       <use xlink:href="#ArialMT-2212"/>
       <use xlink:href="#ArialMT-30" x="58.398438"/>
       <use xlink:href="#ArialMT-2e" x="114.013672"/>
       <use xlink:href="#ArialMT-36" x="141.796875"/>
      </g>
     </g>
    </g>
    <g id="xtick_2">
     <g id="line2d_2">
      <g>
       <use xlink:href="#m4367361e72" x="105.915712" y="286.1835" style="fill: #262626; stroke: #262626"/>
      </g>
     </g>
     <g id="text_2">
      <!-- −0.4 -->
      <g style="fill: #262626" transform="translate(97.229837 300.782375) scale(0.088 -0.088)">
       <defs>
        <path id="ArialMT-34" d="M 2069 0 
L 2069 1097 
L 81 1097 
L 81 1613 
L 2172 4581 
L 2631 4581 
L 2631 1613 
L 3250 1613 
L 3250 1097 
L 2631 1097 
L 2631 0 
L 2069 0 
z
M 2069 1613 
L 2069 3678 
L 634 1613 
L 2069 1613 
z
" transform="scale(0.015625)"/>
       </defs>
       <use xlink:href="#ArialMT-2212"/>
       <use xlink:href="#ArialMT-30" x="58.398438"/>
       <use xlink:href="#ArialMT-2e" x="114.013672"/>
       <use xlink:href="#ArialMT-34" x="141.796875"/>
      </g>
     </g>
    </g>
    <g id="xtick_3">
     <g id="line2d_3">
      <g>
       <use xlink:href="#m4367361e72" x="159.102661" y="286.1835" style="fill: #262626; stroke: #262626"/>
      </g>
     </g>
     <g id="text_3">
      <!-- −0.2 -->
      <g style="fill: #262626" transform="translate(150.416786 300.782375) scale(0.088 -0.088)">
       <defs>
        <path id="ArialMT-32" d="M 3222 541 
L 3222 0 
L 194 0 
Q 188 203 259 391 
Q 375 700 629 1000 
Q 884 1300 1366 1694 
Q 2113 2306 2375 2664 
Q 2638 3022 2638 3341 
Q 2638 3675 2398 3904 
Q 2159 4134 1775 4134 
Q 1369 4134 1125 3890 
Q 881 3647 878 3216 
L 300 3275 
Q 359 3922 746 4261 
Q 1134 4600 1788 4600 
Q 2447 4600 2831 4234 
Q 3216 3869 3216 3328 
Q 3216 3053 3103 2787 
Q 2991 2522 2730 2228 
Q 2469 1934 1863 1422 
Q 1356 997 1212 845 
Q 1069 694 975 541 
L 3222 541 
z
" transform="scale(0.015625)"/>
       </defs>
       <use xlink:href="#ArialMT-2212"/>
       <use xlink:href="#ArialMT-30" x="58.398438"/>
       <use xlink:href="#ArialMT-2e" x="114.013672"/>
       <use xlink:href="#ArialMT-32" x="141.796875"/>
      </g>
     </g>
    </g>
    <g id="xtick_4">
     <g id="line2d_4">
      <g>
       <use xlink:href="#m4367361e72" x="212.289611" y="286.1835" style="fill: #262626; stroke: #262626"/>
      </g>
     </g>
     <g id="text_4">
      <!-- 0.0 -->
      <g style="fill: #262626" transform="translate(206.173611 300.782375) scale(0.088 -0.088)">
       <use xlink:href="#ArialMT-30"/>
       <use xlink:href="#ArialMT-2e" x="55.615234"/>
       <use xlink:href="#ArialMT-30" x="83.398438"/>
      </g>
     </g>
    </g>
    <g id="xtick_5">
     <g id="line2d_5">
      <g>
       <use xlink:href="#m4367361e72" x="265.47656" y="286.1835" style="fill: #262626; stroke: #262626"/>
      </g>
     </g>
     <g id="text_5">
      <!-- 0.2 -->
      <g style="fill: #262626" transform="translate(259.36056 300.782375) scale(0.088 -0.088)">
       <use xlink:href="#ArialMT-30"/>
       <use xlink:href="#ArialMT-2e" x="55.615234"/>
       <use xlink:href="#ArialMT-32" x="83.398438"/>
      </g>
     </g>
    </g>
    <g id="xtick_6">
     <g id="line2d_6">
      <g>
       <use xlink:href="#m4367361e72" x="318.66351" y="286.1835" style="fill: #262626; stroke: #262626"/>
      </g>
     </g>
     <g id="text_6">
      <!-- 0.4 -->
      <g style="fill: #262626" transform="translate(312.54751 300.782375) scale(0.088 -0.088)">
       <use xlink:href="#ArialMT-30"/>
       <use xlink:href="#ArialMT-2e" x="55.615234"/>
       <use xlink:href="#ArialMT-34" x="83.398438"/>
      </g>
     </g>
    </g>
    <g id="xtick_7">
     <g id="line2d_7">
      <g>
       <use xlink:href="#m4367361e72" x="371.850459" y="286.1835" style="fill: #262626; stroke: #262626"/>
      </g>
     </g>
     <g id="text_7">
      <!-- 0.6 -->
      <g style="fill: #262626" transform="translate(365.734459 300.782375) scale(0.088 -0.088)">
       <use xlink:href="#ArialMT-30"/>
       <use xlink:href="#ArialMT-2e" x="55.615234"/>
       <use xlink:href="#ArialMT-36" x="83.398438"/>
      </g>
     </g>
    </g>
    <g id="text_8">
     <!-- x -->
     <g style="fill: #262626" transform="translate(221.81125 313.402875) scale(0.096 -0.096)">
      <defs>
       <path id="ArialMT-78" d="M 47 0 
L 1259 1725 
L 138 3319 
L 841 3319 
L 1350 2541 
Q 1494 2319 1581 2169 
Q 1719 2375 1834 2534 
L 2394 3319 
L 3066 3319 
L 1919 1756 
L 3153 0 
L 2463 0 
L 1781 1031 
L 1600 1309 
L 728 0 
L 47 0 
z
" transform="scale(0.015625)"/>
      </defs>
      <use xlink:href="#ArialMT-78"/>
     </g>
    </g>
   </g>
   <g id="matplotlib.axis_2">
    <g id="ytick_1">
     <g id="line2d_8">
      <defs>
       <path id="ma80c74a5a9" d="M 0 0 
L -4.8 0 
" style="stroke: #262626"/>
      </defs>
      <g>
       <use xlink:href="#ma80c74a5a9" x="45.65125" y="284.545614" style="fill: #262626; stroke: #262626"/>
      </g>
     </g>
     <g id="text_9">
      <!-- −0.8 -->
      <g style="fill: #262626" transform="translate(19.9795 287.695052) scale(0.088 -0.088)">
       <defs>
        <path id="ArialMT-38" d="M 1131 2484 
Q 781 2613 612 2850 
Q 444 3088 444 3419 
Q 444 3919 803 4259 
Q 1163 4600 1759 4600 
Q 2359 4600 2725 4251 
Q 3091 3903 3091 3403 
Q 3091 3084 2923 2848 
Q 2756 2613 2416 2484 
Q 2838 2347 3058 2040 
Q 3278 1734 3278 1309 
Q 3278 722 2862 322 
Q 2447 -78 1769 -78 
Q 1091 -78 675 323 
Q 259 725 259 1325 
Q 259 1772 486 2073 
Q 713 2375 1131 2484 
z
M 1019 3438 
Q 1019 3113 1228 2906 
Q 1438 2700 1772 2700 
Q 2097 2700 2305 2904 
Q 2513 3109 2513 3406 
Q 2513 3716 2298 3927 
Q 2084 4138 1766 4138 
Q 1444 4138 1231 3931 
Q 1019 3725 1019 3438 
z
M 838 1322 
Q 838 1081 952 856 
Q 1066 631 1291 507 
Q 1516 384 1775 384 
Q 2178 384 2440 643 
Q 2703 903 2703 1303 
Q 2703 1709 2433 1975 
Q 2163 2241 1756 2241 
Q 1359 2241 1098 1978 
Q 838 1716 838 1322 
z
" transform="scale(0.015625)"/>
       </defs>
       <use xlink:href="#ArialMT-2212"/>
       <use xlink:href="#ArialMT-30" x="58.398438"/>
       <use xlink:href="#ArialMT-2e" x="114.013672"/>
       <use xlink:href="#ArialMT-38" x="141.796875"/>
      </g>
     </g>
    </g>
    <g id="ytick_2">
     <g id="line2d_9">
      <g>
       <use xlink:href="#ma80c74a5a9" x="45.65125" y="252.511613" style="fill: #262626; stroke: #262626"/>
      </g>
     </g>
     <g id="text_10">
      <!-- −0.6 -->
      <g style="fill: #262626" transform="translate(19.9795 255.661051) scale(0.088 -0.088)">
       <use xlink:href="#ArialMT-2212"/>
       <use xlink:href="#ArialMT-30" x="58.398438"/>
       <use xlink:href="#ArialMT-2e" x="114.013672"/>
       <use xlink:href="#ArialMT-36" x="141.796875"/>
      </g>
     </g>
    </g>
    <g id="ytick_3">
     <g id="line2d_10">
      <g>
       <use xlink:href="#ma80c74a5a9" x="45.65125" y="220.477613" style="fill: #262626; stroke: #262626"/>
      </g>
     </g>
     <g id="text_11">
      <!-- −0.4 -->
      <g style="fill: #262626" transform="translate(19.9795 223.62705) scale(0.088 -0.088)">
       <use xlink:href="#ArialMT-2212"/>
       <use xlink:href="#ArialMT-30" x="58.398438"/>
       <use xlink:href="#ArialMT-2e" x="114.013672"/>
       <use xlink:href="#ArialMT-34" x="141.796875"/>
      </g>
     </g>
    </g>
    <g id="ytick_4">
     <g id="line2d_11">
      <g>
       <use xlink:href="#ma80c74a5a9" x="45.65125" y="188.443612" style="fill: #262626; stroke: #262626"/>
      </g>
     </g>
     <g id="text_12">
      <!-- −0.2 -->
      <g style="fill: #262626" transform="translate(19.9795 191.593049) scale(0.088 -0.088)">
       <use xlink:href="#ArialMT-2212"/>
       <use xlink:href="#ArialMT-30" x="58.398438"/>
       <use xlink:href="#ArialMT-2e" x="114.013672"/>
       <use xlink:href="#ArialMT-32" x="141.796875"/>
      </g>
     </g>
    </g>
    <g id="ytick_5">
     <g id="line2d_12">
      <g>
       <use xlink:href="#ma80c74a5a9" x="45.65125" y="156.409611" style="fill: #262626; stroke: #262626"/>
      </g>
     </g>
     <g id="text_13">
      <!-- 0.0 -->
      <g style="fill: #262626" transform="translate(25.11925 159.559049) scale(0.088 -0.088)">
       <use xlink:href="#ArialMT-30"/>
       <use xlink:href="#ArialMT-2e" x="55.615234"/>
       <use xlink:href="#ArialMT-30" x="83.398438"/>
      </g>
     </g>
    </g>
    <g id="ytick_6">
     <g id="line2d_13">
      <g>
       <use xlink:href="#ma80c74a5a9" x="45.65125" y="124.37561" style="fill: #262626; stroke: #262626"/>
      </g>
     </g>
     <g id="text_14">
      <!-- 0.2 -->
      <g style="fill: #262626" transform="translate(25.11925 127.525048) scale(0.088 -0.088)">
       <use xlink:href="#ArialMT-30"/>
       <use xlink:href="#ArialMT-2e" x="55.615234"/>
       <use xlink:href="#ArialMT-32" x="83.398438"/>
      </g>
     </g>
    </g>
    <g id="ytick_7">
     <g id="line2d_14">
      <g>
       <use xlink:href="#ma80c74a5a9" x="45.65125" y="92.341609" style="fill: #262626; stroke: #262626"/>
      </g>
     </g>
     <g id="text_15">
      <!-- 0.4 -->
      <g style="fill: #262626" transform="translate(25.11925 95.491047) scale(0.088 -0.088)">
       <use xlink:href="#ArialMT-30"/>
       <use xlink:href="#ArialMT-2e" x="55.615234"/>
       <use xlink:href="#ArialMT-34" x="83.398438"/>
      </g>
     </g>
    </g>
    <g id="ytick_8">
     <g id="line2d_15">
      <g>
       <use xlink:href="#ma80c74a5a9" x="45.65125" y="60.307609" style="fill: #262626; stroke: #262626"/>
      </g>
     </g>
     <g id="text_16">
      <!-- 0.6 -->
      <g style="fill: #262626" transform="translate(25.11925 63.457046) scale(0.088 -0.088)">
       <use xlink:href="#ArialMT-30"/>
       <use xlink:href="#ArialMT-2e" x="55.615234"/>
       <use xlink:href="#ArialMT-36" x="83.398438"/>
      </g>
     </g>
    </g>
    <g id="ytick_9">
     <g id="line2d_16">
      <g>
       <use xlink:href="#ma80c74a5a9" x="45.65125" y="28.273608" style="fill: #262626; stroke: #262626"/>
      </g>
     </g>
     <g id="text_17">
      <!-- 0.8 -->
      <g style="fill: #262626" transform="translate(25.11925 31.423045) scale(0.088 -0.088)">
       <use xlink:href="#ArialMT-30"/>
       <use xlink:href="#ArialMT-2e" x="55.615234"/>
       <use xlink:href="#ArialMT-38" x="83.398438"/>
      </g>
     </g>
    </g>
    <g id="text_18">
     <!-- v -->
     <g style="fill: #262626" transform="translate(14.0715 155.5275) rotate(-90) scale(0.096 -0.096)">
      <defs>
       <path id="ArialMT-76" d="M 1344 0 
L 81 3319 
L 675 3319 
L 1388 1331 
Q 1503 1009 1600 663 
Q 1675 925 1809 1294 
L 2547 3319 
L 3125 3319 
L 1869 0 
L 1344 0 
z
" transform="scale(0.015625)"/>
      </defs>
      <use xlink:href="#ArialMT-76"/>
     </g>
    </g>
   </g>
   <g id="line2d_17">
    <path d="M 212.289611 156.409611 
L 212.412595 153.453382 
L 212.780116 150.526705 
L 213.389108 147.644132 
L 214.235312 144.820005 
L 215.313281 142.068394 
L 216.616416 139.403078 
L 218.136984 136.837522 
L 219.866151 134.384846 
L 221.794002 132.057814 
L 223.909567 129.868875 
L 226.200882 127.830128 
L 228.654961 125.953358 
L 231.257871 124.250056 
L 233.994733 122.731428 
L 236.849738 121.408407 
L 239.806182 120.291654 
L 242.846504 119.391506 
L 245.952277 118.717976 
L 249.104273 118.280679 
L 252.282475 118.088717 
L 255.466138 118.150583 
L 258.633846 118.474001 
L 261.763572 119.06573 
L 264.832771 119.931384 
L 267.818503 121.075193 
L 270.697534 122.49977 
L 273.446492 124.205828 
L 276.042013 126.192022 
L 278.460967 128.454632 
L 280.68061 130.987492 
L 282.678852 133.781732 
L 284.434415 136.825796 
L 285.927123 140.105402 
L 287.138103 143.603602 
L 288.049945 147.300981 
L 288.647026 151.175849 
L 288.915525 155.204625 
L 288.843721 159.362224 
L 288.421959 163.622476 
L 287.642837 167.958715 
L 286.501141 172.344241 
L 284.993898 176.752866 
L 283.120198 181.159432 
L 280.88122 185.540264 
L 278.280028 189.873469 
L 275.321425 194.139376 
L 272.011732 198.320665 
L 268.358616 202.402427 
L 264.370878 206.372204 
L 260.058256 210.21981 
L 255.431285 213.937144 
L 250.501031 217.517805 
L 245.279067 220.956685 
L 239.777396 224.249427 
L 234.00832 227.391934 
L 227.984492 230.3797 
L 221.719008 233.207122 
L 215.225473 235.866872 
L 208.51821 238.34916 
L 201.612442 240.641165 
L 194.524712 242.726241 
L 187.273014 244.583423 
L 179.877329 246.187041 
L 172.35998 247.506152 
L 164.746069 248.504459 
L 157.063944 249.140376 
L 149.34563 249.367268 
L 141.627226 249.134114 
L 133.949131 248.386488 
L 126.356528 247.068122 
L 118.899157 245.122717 
L 111.631379 242.496371 
L 104.611859 239.140415 
L 97.902962 235.014475 
L 91.569938 230.089957 
L 85.679854 224.353225 
L 80.300161 217.808851 
L 75.497039 210.481934 
L 71.333788 202.419945 
L 67.868613 193.693148 
L 65.153156 184.393889 
L 63.230452 174.634451 
L 62.133424 164.543057 
L 61.883977 154.259576 
L 62.492083 143.929216 
L 63.955474 133.696884 
L 66.260376 123.700278 
L 69.381776 114.064943 
L 73.28496 104.899173 
L 77.92729 96.290239 
L 83.259485 88.302994 
L 89.228135 80.978582 
L 95.77712 74.335737 
L 102.849892 68.372252 
L 110.390551 63.068075 
L 118.345856 58.38833 
L 126.665637 54.28724 
L 135.303911 50.711725 
L 144.21953 47.604703 
L 153.375785 44.908694 
L 162.741019 42.568392 
L 172.287624 40.533494 
L 181.992267 38.76042 
L 191.834506 37.214427 
L 201.796778 35.870886 
L 211.862776 34.716516 
L 222.016831 33.750258 
L 232.243093 32.984102 
L 242.523781 32.443491 
L 252.838808 32.1675 
L 263.163896 32.208857 
L 273.470241 32.633292 
L 283.72274 33.518526 
L 293.879408 34.952543 
L 303.890921 37.031013 
L 313.699375 39.853795 
L 323.23899 43.520617 
L 332.435447 48.12539 
L 341.207448 53.750133 
L 349.467376 60.457835 
L 357.123478 68.285452 
L 364.082361 77.237448 
L 370.251565 87.279621 
L 375.543546 98.33625 
L 379.87851 110.287984 
L 383.188489 122.974785 
L 385.420365 136.200108 
L 386.538523 149.740337 
L 386.526777 163.35456 
L 385.38906 176.797629 
L 383.14959 189.833353 
L 379.851389 202.245653 
L 375.55415 213.849614 
L 370.331453 224.498027 
L 364.267325 234.086327 
L 357.452813 242.55264 
L 349.98212 249.876612 
L 341.949835 256.074234 
L 333.447887 261.192334 
L 324.563019 265.301749 
L 315.375652 268.490071 
L 305.958177 270.855071 
L 296.374925 272.498814 
L 286.681438 273.522497 
L 276.925299 274.022543 
L 267.146343 274.0875 
L 257.377219 273.796024 
L 247.644825 273.215479 
L 237.970664 272.401121 
L 228.372449 271.396092 
L 218.864462 270.231307 
L 209.459194 268.926039 
L 200.168005 267.488403 
L 191.001739 265.916185 
L 181.972174 264.197662 
L 173.092087 262.312641 
L 164.376575 260.23357 
L 155.842953 257.926796 
L 147.511874 255.354028 
L 139.407008 252.473955 
L 131.555789 249.24417 
L 123.988785 245.623011 
L 116.740448 241.572176 
L 109.847759 237.058614 
L 103.350266 232.05723 
L 97.289094 226.55304 
L 91.706439 220.543797 
L 86.643805 214.041009 
L 82.141074 207.071637 
L 78.235528 199.67899 
L 74.959914 191.921823 
L 72.341576 183.873597 
L 70.401134 175.620543 
L 69.151731 167.259158 
L 68.598137 158.892137 
L 68.736405 150.624806 
L 69.55387 142.561768 
L 71.02945 134.801849 
L 73.134107 127.435312 
L 75.831922 120.540601 
L 79.080653 114.182618 
L 82.833713 108.410696 
L 87.040824 103.258533 
L 91.649716 98.744426 
L 96.606949 94.87239 
L 101.859532 91.633402 
L 107.355745 89.007305 
L 113.045593 86.965214 
L 118.882085 85.471199 
L 124.821379 84.484501 
L 130.82319 83.961404 
L 136.850662 83.856861 
L 142.870979 84.125796 
L 148.855071 84.724304 
L 154.777096 85.610364 
L 160.614896 86.744552 
L 166.349428 88.090356 
L 171.964598 89.614419 
L 177.446675 91.286497 
L 182.784588 93.079577 
L 187.969421 94.969601 
L 192.993802 96.935279 
L 202.541044 101.021208 
L 211.398902 105.214249 
L 219.557596 109.420168 
L 227.021411 113.566596 
L 233.805055 117.59665 
L 239.931761 121.46444 
L 247.957937 126.880371 
L 254.701068 131.742306 
L 271.003798 143.840015 
L 273.91249 145.539043 
L 275.649124 146.341173 
L 277.271765 146.91711 
L 279.565029 147.447801 
L 282.480081 147.792594 
L 285.294622 148.12864 
L 286.647247 148.436891 
L 287.935469 148.912234 
L 289.127326 149.604656 
L 290.182967 150.557655 
L 291.056077 151.806459 
L 291.695227 153.376452 
L 292.045675 155.282111 
L 292.051239 157.526285 
L 291.656209 160.10023 
L 290.807265 162.984383 
L 289.455187 166.149595 
L 287.556148 169.559378 
L 285.072995 173.172122 
L 281.975514 176.944133 
L 278.24094 180.832031 
L 273.85337 184.795464 
L 268.803314 188.798601 
L 263.086829 192.811229 
L 256.70433 196.808812 
L 249.660194 200.771042 
L 241.961639 204.679925 
L 233.619276 208.515893 
L 224.647046 212.253605 
L 215.064238 215.855947 
L 204.897724 219.267743 
L 199.606853 220.878186 
L 194.185282 222.408441 
L 188.640514 223.843212 
L 182.981085 225.164834 
L 177.217118 226.353014 
L 171.360847 227.384673 
L 165.426241 228.234011 
L 159.42961 228.872459 
L 153.389647 229.268874 
L 147.328055 229.389809 
L 141.269082 229.199993 
L 135.24004 228.662905 
L 129.271239 227.741655 
L 123.396332 226.400004 
L 117.651545 224.603539 
L 112.075967 222.32113 
L 106.711269 219.52664 
L 101.600782 216.200222 
L 96.789251 212.330305 
L 92.321907 207.914855 
L 88.243942 202.963225 
L 84.599001 197.496402 
L 81.428717 191.548571 
L 78.771021 185.165781 
L 76.659849 178.406747 
L 75.123639 171.341046 
L 74.184628 164.046306 
L 73.858416 156.607748 
L 74.153291 149.113049 
L 75.070205 141.651292 
L 76.602785 134.308963 
L 78.737797 127.166159 
L 81.455537 120.295631 
L 84.730564 113.759791 
L 88.53319 107.608472 
L 92.829661 101.879592 
L 97.583549 96.598069 
L 102.757504 91.775727 
L 108.313031 87.413392 
L 114.212032 83.501473 
L 120.418256 80.021293 
L 126.896355 76.947667 
L 133.614264 74.249882 
L 140.54192 71.894028 
L 147.652096 69.84461 
L 154.921375 68.065549 
L 162.328451 66.522364 
L 169.854817 65.182727 
L 177.485359 64.017531 
L 185.206359 63.002087 
L 193.00593 62.116452 
L 200.874527 61.34599 
L 216.781387 60.1221 
L 224.802492 59.670131 
L 232.856031 59.336707 
L 240.932076 59.139096 
L 249.018096 59.101309 
L 257.099265 59.25384 
L 265.158912 59.633443 
L 273.176126 60.282506 
L 281.126291 61.248287 
L 288.981568 62.582024 
L 296.708881 64.337217 
L 304.270654 66.568017 
L 311.625723 69.327484 
L 318.727533 72.664194 
L 325.52686 76.620715 
L 331.970476 81.229508 
L 338.003029 86.510544 
L 343.568779 92.468964 
L 348.611615 99.091684 
L 353.077413 106.346021 
L 356.915989 114.179792 
L 360.082026 122.519862 
L 362.536941 131.274175 
L 364.250919 140.335574 
L 365.203292 149.583278 
L 365.383866 158.888676 
L 364.793275 168.121312 
L 363.443013 177.152109 
L 361.354809 185.861061 
L 358.560081 194.139632 
L 355.098662 201.895388 
L 351.016885 209.055573 
L 346.366836 215.566653 
L 341.204064 221.395498 
L 335.585569 226.529235 
L 329.569232 230.972012 
L 323.212059 234.743601 
L 316.567977 237.8768 
L 309.688888 240.413777 
L 302.621775 242.403938 
L 295.410181 243.900698 
L 288.093083 244.959207 
L 280.704022 245.634649 
L 273.272916 245.980026 
L 265.825353 246.045165 
L 258.382137 245.875669 
L 250.961338 245.512248 
L 243.577831 244.990283 
L 228.966655 243.5842 
L 214.620203 241.829274 
L 200.58788 239.811866 
L 186.911515 237.541256 
L 173.636884 234.960062 
L 167.168581 233.520188 
L 160.824652 231.957823 
L 154.616304 230.253433 
L 148.556455 228.386332 
L 142.659012 226.335138 
L 136.940632 224.07901 
L 131.418718 221.597873 
L 126.11297 218.8738 
L 121.044432 215.891709 
L 116.234645 212.639876 
L 111.70656 209.111375 
L 107.483416 205.304696 
L 103.587904 201.223789 
L 100.042531 196.879473 
L 96.868688 192.289304 
L 94.085547 187.477094 
L 91.71052 182.473688 
L 89.758017 177.315971 
L 88.23906 172.045482 
L 87.161188 166.708723 
L 86.527847 161.354421 
L 86.338429 156.033416 
L 86.588026 150.796687 
L 87.267595 145.693243 
L 88.364108 140.769966 
L 89.860683 136.069655 
L 91.737356 131.629527 
L 93.971063 127.481462 
L 96.536341 123.650873 
L 99.406202 120.156043 
L 102.552084 117.00899 
L 105.944702 114.215206 
L 109.554953 111.773802 
L 113.353497 109.678817 
L 117.312247 107.919137 
L 121.403804 106.479897 
L 125.602094 105.342836 
L 129.883205 104.487144 
L 134.224501 103.890317 
L 138.605299 103.528748 
L 143.00736 103.378208 
L 147.413998 103.414534 
L 151.81052 103.613939 
L 156.18466 103.953379 
L 164.824056 104.965658 
L 173.267141 106.29086 
L 185.481532 108.571246 
L 208.195428 112.998705 
L 218.790485 114.756017 
L 225.63204 115.702772 
L 232.331222 116.472784 
L 242.172777 117.342164 
L 255.014691 118.173916 
L 264.471575 118.801291 
L 270.678168 119.355848 
L 276.776922 120.114541 
L 282.726619 121.162353 
L 285.629006 121.821023 
L 288.472317 122.582926 
L 291.247802 123.457532 
L 293.94553 124.4534 
L 296.555293 125.578256 
L 299.066004 126.838573 
L 301.466059 128.239448 
L 303.743824 129.784595 
L 305.887118 131.475882 
L 307.883711 133.313295 
L 309.72166 135.295083 
L 311.389076 137.417267 
L 312.874445 139.67377 
L 314.167042 142.056769 
L 315.256683 144.55619 
L 316.134152 147.160144 
L 316.791388 149.855395 
L 317.221337 152.626866 
L 317.41838 155.458778 
L 317.378174 158.334212 
L 317.097818 161.235756 
L 316.575831 164.14623 
L 315.812195 167.048351 
L 314.808379 169.925436 
L 313.567012 172.762053 
L 312.092105 175.543667 
L 310.388858 178.257198 
L 308.463269 180.891601 
L 306.322456 183.437252 
L 303.97398 185.886851 
L 301.42613 188.234758 
L 298.687626 190.477357 
L 295.767081 192.613163 
L 292.673499 194.642239 
L 289.415813 196.566307 
L 286.002359 198.388786 
L 282.441508 200.114141 
L 278.741275 201.747922 
L 274.908718 203.296707 
L 266.873703 206.1676 
L 258.383314 208.786437 
L 249.474369 211.211802 
L 240.174978 213.494565 
L 230.505344 215.672017 
L 220.48097 217.762286 
L 210.116889 219.758939 
L 199.430986 221.626403 
L 188.450006 223.295202 
L 177.215113 224.658348 
L 171.521255 225.180925 
L 165.789176 225.568862 
L 160.031304 225.79761 
L 154.262174 225.840442 
L 148.497981 225.668727 
L 142.758001 225.252283 
L 137.064119 224.560034 
L 131.440053 223.560486 
L 125.913121 222.22284 
L 120.512213 220.517586 
L 115.269219 218.418013 
L 110.218093 215.901218 
L 105.393889 212.949157 
L 100.833524 209.550316 
L 96.574486 205.700882 
L 92.653794 201.405175 
L 89.108144 196.677423 
L 85.972644 191.541901 
L 83.2796 186.032413 
L 81.058463 180.193173 
L 79.334482 174.077473 
L 78.12809 167.745745 
L 77.454568 161.265443 
L 77.323243 154.70717 
L 77.73765 148.144071 
L 78.695079 141.648787 
L 80.187081 135.290226 
L 82.199548 129.133033 
L 84.713207 123.234772 
L 87.70463 117.643885 
L 91.146496 112.399925 
L 95.008524 107.532331 
L 99.258868 103.059777 
L 103.863932 98.991776 
L 108.790406 95.328019 
L 114.004789 92.060496 
L 119.474546 89.174151 
L 125.169221 86.647885 
L 131.059741 84.4566 
L 137.119177 82.57209 
L 143.323729 80.964167 
L 149.65149 79.602219 
L 156.082996 78.455949 
L 162.602078 77.496144 
L 169.19411 76.695715 
L 175.846645 76.030088 
L 189.294746 75.020458 
L 202.882355 74.337923 
L 216.561026 73.915875 
L 230.288632 73.75481 
L 244.017263 73.923818 
L 250.862183 74.172065 
L 257.681153 74.558733 
L 264.461336 75.110266 
L 271.187574 75.856297 
L 277.842871 76.82898 
L 284.406494 78.062355 
L 290.85584 79.591545 
L 297.16458 81.451625 
L 303.303619 83.676267 
L 309.241772 86.296956 
L 314.944721 89.340725 
L 320.376182 92.828981 
L 325.498978 96.776261 
L 330.274456 101.188054 
L 334.663956 106.059692 
L 338.630163 111.376018 
L 342.1369 117.109411 
L 345.151274 123.221156 
L 347.643788 129.660467 
L 349.589587 136.365954 
L 350.969539 143.268048 
L 351.770408 150.2895 
L 351.985663 157.348724 
L 351.615544 164.363227 
L 350.667277 171.250991 
L 349.154653 177.933977 
L 347.097596 184.341482 
L 344.521738 190.410634 
L 341.457536 196.089037 
L 337.93903 201.336265 
L 334.003597 206.122873 
L 329.690016 210.431961 
L 325.038413 214.257308 
L 320.089137 217.602958 
L 314.881127 220.482277 
L 309.45274 222.915766 
L 303.839318 224.930181 
L 298.075288 226.556334 
L 292.1911 227.828331 
L 286.214215 228.781945 
L 280.170535 229.453057 
L 274.0816 229.877387 
L 267.966004 230.089046 
L 261.840992 230.12024 
L 255.719844 230.000575 
L 243.532198 229.412931 
L 231.47158 228.502741 
L 219.579599 227.394473 
L 202.113628 225.507882 
L 190.743057 224.120911 
L 179.614484 222.591306 
L 168.756505 220.844552 
L 158.213835 218.777759 
L 153.079884 217.586461 
L 148.050077 216.268148 
L 143.135301 214.805972 
L 138.348941 213.183853 
L 133.704583 211.386014 
L 129.217077 209.39802 
L 124.903456 207.207623 
L 120.780609 204.80455 
L 116.866249 202.181307 
L 113.179462 199.334505 
L 109.738554 196.263917 
L 106.561977 192.973805 
L 103.667412 189.472598 
L 101.072311 185.77422 
L 98.792137 181.896331 
L 96.840758 177.861022 
L 95.230484 173.695349 
L 93.970754 169.42908 
L 93.068534 165.094809 
L 92.528136 160.728283 
L 92.350685 156.3655 
L 92.534365 152.042785 
L 93.07432 147.796787 
L 93.962702 143.661597 
L 95.189106 139.668958 
L 96.74024 135.848325 
L 98.600824 132.224538 
L 100.753818 128.818198 
L 103.180043 125.646261 
L 105.859701 122.720172 
L 108.772265 120.046963 
L 111.896114 117.62973 
L 115.210222 115.466921 
L 118.693943 113.553206 
L 122.32633 111.880498 
L 126.088092 110.437292 
L 129.961009 109.210032 
L 133.927162 108.183471 
L 137.970849 107.34093 
L 142.077528 106.664825 
L 146.234387 106.137289 
L 150.429221 105.74032 
L 158.895096 105.267788 
L 167.410978 105.1133 
L 180.191142 105.222502 
L 205.59892 105.629977 
L 218.255239 105.623189 
L 256.414646 105.287216 
L 264.891705 105.571331 
L 273.293526 106.209348 
L 277.445828 106.700822 
L 281.551406 107.329125 
L 285.598517 108.110633 
L 289.574069 109.061459 
L 293.462742 110.196649 
L 297.248931 111.530381 
L 300.915873 113.075223 
L 304.445046 114.841462 
L 307.817937 116.837182 
L 311.015493 119.067697 
L 314.01767 121.534481 
L 316.805083 124.235949 
L 319.358615 127.166625 
L 321.659253 130.316349 
L 323.68949 133.671527 
L 325.433117 137.214553 
L 326.875157 140.923235 
L 328.002984 144.77269 
L 328.806032 148.734842 
L 329.276219 152.779532 
L 329.40798 156.874074 
L 329.198557 160.985773 
L 328.64784 165.08196 
L 327.758554 169.12973 
L 326.535987 173.098758 
L 324.987745 176.960883 
L 323.124031 180.690071 
L 320.956747 184.264441 
L 318.499295 187.666012 
L 315.767107 190.879837 
L 312.776002 193.896041 
L 309.542449 196.708512 
L 306.08401 199.31458 
L 302.417552 201.715644 
L 298.559621 203.91648 
L 294.527196 205.923993 
L 290.335651 207.7482 
L 285.999419 209.400755 
L 281.532884 210.894612 
L 276.948307 212.243886 
L 272.25674 213.463438 
L 267.469076 214.567696 
L 257.639069 216.488599 
L 247.515327 218.114671 
L 237.139436 219.536072 
L 221.162184 221.420191 
L 204.743762 223.076507 
L 193.583432 224.019142 
L 182.282177 224.751616 
L 170.884308 225.159225 
L 165.169016 225.194539 
L 159.456529 225.087967 
L 153.7592 224.81486 
L 148.092835 224.348857 
L 142.474158 223.662466 
L 136.922229 222.727254 
L 131.45974 221.515168 
L 126.11045 219.99857 
L 120.900727 218.151641 
L 115.858644 215.950905 
L 111.015221 213.377215 
L 106.401677 210.415659 
L 102.050362 207.057135 
L 97.995024 203.300163 
L 94.268269 199.150284 
L 90.901995 194.621355 
L 87.92728 189.737054 
L 85.372123 184.52882 
L 83.261712 179.036512 
L 81.618001 173.309027 
L 80.458132 167.400653 
L 79.794659 161.370786 
L 79.635159 155.28363 
L 79.981613 149.203491 
L 80.830867 143.19413 
L 82.174314 137.318131 
L 83.998504 131.63225 
L 86.285661 126.18734 
L 89.013537 121.028067 
L 92.15701 116.189772 
L 95.688521 111.698945 
L 99.57782 107.574389 
L 103.794299 103.825021 
L 108.306659 100.45221 
L 113.084237 97.44956 
L 118.095974 94.805242 
L 123.313154 92.501218 
L 128.708824 90.515625 
L 134.256687 88.823752 
L 139.933838 87.398742 
L 145.71975 86.212504 
L 151.59484 85.237415 
L 157.543133 84.445908 
L 163.550935 83.812043 
L 169.605244 83.311543 
L 181.816351 82.625347 
L 194.11406 82.243648 
L 206.457376 82.070397 
L 218.815629 82.060811 
L 231.16124 82.22245 
L 243.462476 82.614602 
L 255.672184 83.345726 
L 261.722142 83.88457 
L 267.721463 84.568346 
L 273.657096 85.421632 
L 279.514345 86.470323 
L 285.274959 87.741064 
L 290.919806 89.260612 
L 296.427574 91.055382 
L 301.77348 93.14957 
L 306.932147 95.565436 
L 311.876429 98.321609 
L 316.576655 101.4316 
L 321.003452 104.903756 
L 325.126877 108.740053 
L 328.916299 112.934068 
L 332.342759 117.472361 
L 335.378754 122.333163 
L 337.998258 127.485261 
L 340.178809 132.890495 
L 341.901395 138.503504 
L 343.150576 144.271338 
L 343.915978 150.137464 
L 344.191912 156.042203 
L 343.977734 161.923013 
L 343.27797 167.719332 
L 342.10198 173.372843 
L 340.464165 178.828092 
L 338.382976 184.03659 
L 335.880706 188.956234 
L 332.982638 193.552969 
L 329.717153 197.800012 
L 326.113939 201.67991 
L 322.203598 205.183446 
L 318.018187 208.308196 
L 313.58868 211.059692 
L 308.94528 213.449385 
L 304.118168 215.493504 
L 299.134844 217.212768 
L 294.020933 218.631104 
L 288.801185 219.77409 
L 283.496927 220.669019 
L 278.12728 221.343377 
L 272.710208 221.824449 
L 267.260292 222.138565 
L 261.789896 222.310943 
L 250.831163 222.321688 
L 239.898291 222.018704 
L 223.633646 221.238953 
L 202.29497 219.942077 
L 186.592376 218.820152 
L 176.291973 217.921781 
L 166.158032 216.804844 
L 156.235117 215.357228 
L 151.372768 214.46943 
L 146.589171 213.449556 
L 141.896779 212.280279 
L 137.308359 210.944528 
L 132.838083 209.425634 
L 128.5025 207.708652 
L 124.318318 205.779816 
L 120.303313 203.627673 
L 116.477037 201.243856 
L 112.858655 198.622957 
L 109.467749 195.763083 
L 106.324578 192.667293 
L 103.448265 189.342322 
L 100.857364 185.799875 
L 98.569153 182.055926 
L 96.599879 178.131984 
L 94.963309 174.052939 
L 93.67106 169.847512 
L 92.732494 165.548572 
L 92.153863 161.190563 
L 91.938544 156.809528 
L 92.086972 152.443174 
L 92.596327 148.127996 
L 93.461012 143.899247 
L 94.672222 139.79105 
L 96.218751 135.833606 
L 98.087071 132.053671 
L 100.261163 128.474628 
L 102.723671 125.114669 
L 105.455985 121.98728 
L 108.437976 119.102066 
L 111.649497 116.463249 
L 115.07029 114.070996 
L 118.679471 111.921908 
L 122.457385 110.00868 
L 126.385123 108.320926 
L 130.443861 106.846325 
L 134.616797 105.570004 
L 138.888428 104.475965 
L 143.243658 103.54724 
L 147.669789 102.76632 
L 152.15531 102.11549 
L 161.265803 101.135451 
L 170.510789 100.476707 
L 184.539554 99.847258 
L 222.535913 98.670023 
L 241.815499 98.199997 
L 251.495476 98.164945 
L 261.160871 98.40007 
L 265.971301 98.659373 
L 270.755382 99.037191 
L 275.502863 99.552608 
L 280.200747 100.225323 
L 284.835492 101.075143 
L 289.391934 102.121939 
L 293.8522 103.384461 
L 298.197982 104.880633 
L 302.409483 106.626533 
L 306.464718 108.635549 
L 310.341693 110.918336 
L 314.017623 113.48214 
L 317.468469 116.32929 
L 317.468469 116.32929 
" clip-path="url(#p14243da85b)" style="fill: none; stroke: #1f77b4; stroke-linecap: round"/>
   </g>
   <g id="patch_3">
    <path d="M 45.65125 284.545614 
L 45.65125 28.273608 
" style="fill: none; stroke: #262626; stroke-linejoin: miter; stroke-linecap: square"/>
   </g>
   <g id="patch_4">
    <path d="M 52.728762 286.1835 
L 371.850459 286.1835 
" style="fill: none; stroke: #262626; stroke-linejoin: miter; stroke-linecap: square"/>
   </g>
   <g id="text_19">
    <!-- Phase space -->
    <g style="fill: #262626" transform="translate(196.4605 14.0715) scale(0.096 -0.096)">
     <defs>
      <path id="ArialMT-50" d="M 494 0 
L 494 4581 
L 2222 4581 
Q 2678 4581 2919 4538 
Q 3256 4481 3484 4323 
Q 3713 4166 3852 3881 
Q 3991 3597 3991 3256 
Q 3991 2672 3619 2267 
Q 3247 1863 2275 1863 
L 1100 1863 
L 1100 0 
L 494 0 
z
M 1100 2403 
L 2284 2403 
Q 2872 2403 3119 2622 
Q 3366 2841 3366 3238 
Q 3366 3525 3220 3729 
Q 3075 3934 2838 4000 
Q 2684 4041 2272 4041 
L 1100 4041 
L 1100 2403 
z
" transform="scale(0.015625)"/>
      <path id="ArialMT-68" d="M 422 0 
L 422 4581 
L 984 4581 
L 984 2938 
Q 1378 3394 1978 3394 
Q 2347 3394 2619 3248 
Q 2891 3103 3008 2847 
Q 3125 2591 3125 2103 
L 3125 0 
L 2563 0 
L 2563 2103 
Q 2563 2525 2380 2717 
Q 2197 2909 1863 2909 
Q 1613 2909 1392 2779 
Q 1172 2650 1078 2428 
Q 984 2206 984 1816 
L 984 0 
L 422 0 
z
" transform="scale(0.015625)"/>
      <path id="ArialMT-61" d="M 2588 409 
Q 2275 144 1986 34 
Q 1697 -75 1366 -75 
Q 819 -75 525 192 
Q 231 459 231 875 
Q 231 1119 342 1320 
Q 453 1522 633 1644 
Q 813 1766 1038 1828 
Q 1203 1872 1538 1913 
Q 2219 1994 2541 2106 
Q 2544 2222 2544 2253 
Q 2544 2597 2384 2738 
Q 2169 2928 1744 2928 
Q 1347 2928 1158 2789 
Q 969 2650 878 2297 
L 328 2372 
Q 403 2725 575 2942 
Q 747 3159 1072 3276 
Q 1397 3394 1825 3394 
Q 2250 3394 2515 3294 
Q 2781 3194 2906 3042 
Q 3031 2891 3081 2659 
Q 3109 2516 3109 2141 
L 3109 1391 
Q 3109 606 3145 398 
Q 3181 191 3288 0 
L 2700 0 
Q 2613 175 2588 409 
z
M 2541 1666 
Q 2234 1541 1622 1453 
Q 1275 1403 1131 1340 
Q 988 1278 909 1158 
Q 831 1038 831 891 
Q 831 666 1001 516 
Q 1172 366 1500 366 
Q 1825 366 2078 508 
Q 2331 650 2450 897 
Q 2541 1088 2541 1459 
L 2541 1666 
z
" transform="scale(0.015625)"/>
      <path id="ArialMT-73" d="M 197 991 
L 753 1078 
Q 800 744 1014 566 
Q 1228 388 1613 388 
Q 2000 388 2187 545 
Q 2375 703 2375 916 
Q 2375 1106 2209 1216 
Q 2094 1291 1634 1406 
Q 1016 1563 777 1677 
Q 538 1791 414 1992 
Q 291 2194 291 2438 
Q 291 2659 392 2848 
Q 494 3038 669 3163 
Q 800 3259 1026 3326 
Q 1253 3394 1513 3394 
Q 1903 3394 2198 3281 
Q 2494 3169 2634 2976 
Q 2775 2784 2828 2463 
L 2278 2388 
Q 2241 2644 2061 2787 
Q 1881 2931 1553 2931 
Q 1166 2931 1000 2803 
Q 834 2675 834 2503 
Q 834 2394 903 2306 
Q 972 2216 1119 2156 
Q 1203 2125 1616 2013 
Q 2213 1853 2448 1751 
Q 2684 1650 2818 1456 
Q 2953 1263 2953 975 
Q 2953 694 2789 445 
Q 2625 197 2315 61 
Q 2006 -75 1616 -75 
Q 969 -75 630 194 
Q 291 463 197 991 
z
" transform="scale(0.015625)"/>
      <path id="ArialMT-65" d="M 2694 1069 
L 3275 997 
Q 3138 488 2766 206 
Q 2394 -75 1816 -75 
Q 1088 -75 661 373 
Q 234 822 234 1631 
Q 234 2469 665 2931 
Q 1097 3394 1784 3394 
Q 2450 3394 2872 2941 
Q 3294 2488 3294 1666 
Q 3294 1616 3291 1516 
L 816 1516 
Q 847 969 1125 678 
Q 1403 388 1819 388 
Q 2128 388 2347 550 
Q 2566 713 2694 1069 
z
M 847 1978 
L 2700 1978 
Q 2663 2397 2488 2606 
Q 2219 2931 1791 2931 
Q 1403 2931 1139 2672 
Q 875 2413 847 1978 
z
" transform="scale(0.015625)"/>
      <path id="ArialMT-20" transform="scale(0.015625)"/>
      <path id="ArialMT-70" d="M 422 -1272 
L 422 3319 
L 934 3319 
L 934 2888 
Q 1116 3141 1344 3267 
Q 1572 3394 1897 3394 
Q 2322 3394 2647 3175 
Q 2972 2956 3137 2557 
Q 3303 2159 3303 1684 
Q 3303 1175 3120 767 
Q 2938 359 2589 142 
Q 2241 -75 1856 -75 
Q 1575 -75 1351 44 
Q 1128 163 984 344 
L 984 -1272 
L 422 -1272 
z
M 931 1641 
Q 931 1000 1190 694 
Q 1450 388 1819 388 
Q 2194 388 2461 705 
Q 2728 1022 2728 1688 
Q 2728 2322 2467 2637 
Q 2206 2953 1844 2953 
Q 1484 2953 1207 2617 
Q 931 2281 931 1641 
z
" transform="scale(0.015625)"/>
      <path id="ArialMT-63" d="M 2588 1216 
L 3141 1144 
Q 3050 572 2676 248 
Q 2303 -75 1759 -75 
Q 1078 -75 664 370 
Q 250 816 250 1647 
Q 250 2184 428 2587 
Q 606 2991 970 3192 
Q 1334 3394 1763 3394 
Q 2303 3394 2647 3120 
Q 2991 2847 3088 2344 
L 2541 2259 
Q 2463 2594 2264 2762 
Q 2066 2931 1784 2931 
Q 1359 2931 1093 2626 
Q 828 2322 828 1663 
Q 828 994 1084 691 
Q 1341 388 1753 388 
Q 2084 388 2306 591 
Q 2528 794 2588 1216 
z
" transform="scale(0.015625)"/>
     </defs>
     <use xlink:href="#ArialMT-50"/>
     <use xlink:href="#ArialMT-68" x="66.699219"/>
     <use xlink:href="#ArialMT-61" x="122.314453"/>
     <use xlink:href="#ArialMT-73" x="177.929688"/>
     <use xlink:href="#ArialMT-65" x="227.929688"/>
     <use xlink:href="#ArialMT-20" x="283.544922"/>
     <use xlink:href="#ArialMT-73" x="311.328125"/>
     <use xlink:href="#ArialMT-70" x="361.328125"/>
     <use xlink:href="#ArialMT-61" x="416.943359"/>
     <use xlink:href="#ArialMT-63" x="472.558594"/>
     <use xlink:href="#ArialMT-65" x="522.558594"/>
    </g>
   </g>
  </g>
 </g>
 <defs>
  <clipPath id="p14243da85b">
   <rect x="45.65125" y="20.0715" width="357.12" height="266.112"/>
  </clipPath>
 </defs>
</svg>