<?xml version="1.0" encoding="utf-8" standalone="no"?>
<!DOCTYPE svg PUBLIC "-//W3C//DTD SVG 1.1//EN"
  "http://www.w3.org/Graphics/SVG/1.1/DTD/svg11.dtd">
<svg xmlns:xlink="http://www.w3.org/1999/xlink" width="414.864875pt" height="309.639375pt" viewBox="0 0 414.864875 309.639375" xmlns="http://www.w3.org/2000/svg" version="1.1">
 <metadata>
  <rdf:RDF xmlns:dc="http://purl.org/dc/elements/1.1/" xmlns:cc="http://creativecommons.org/ns#" xmlns:rdf="http://www.w3.org/1999/02/22-rdf-syntax-ns#">
   <cc:Work>
    <dc:type rdf:resource="http://purl.org/dc/dcmitype/StillImage"/>
    <dc:date>2024-03-18T12:53:12.263197</dc:date>
    <dc:format>image/svg+xml</dc:format>
    <dc:creator>
     <cc:Agent>
      <dc:title>Matplotlib v3.8.0, https://matplotlib.org/</dc:title>
     </cc:Agent>
    </dc:creator>
   </cc:Work>
  </rdf:RDF>
 </metadata>
 <defs>
  <style type="text/css">*{stroke-linejoin: round; stroke-linecap: butt}</style>
 </defs>
 <g id="figure_1">
  <g id="patch_1">
   <path d="M 0 309.639375 
L 414.864875 309.639375 
L 414.864875 0 
L 0 0 
z
" style="fill: #ffffff"/>
  </g>
  <g id="axes_1">
   <g id="patch_2">
    <path d="M 50.544875 273.312 
L 407.664875 273.312 
L 407.664875 7.2 
L 50.544875 7.2 
z
" style="fill: #ffffff"/>
   </g>
   <g id="matplotlib.axis_1">
    <g id="xtick_1">
     <g id="line2d_1">
      <defs>
       <path id="mc7a6c88304" d="M 0 0 
L 0 4.8 
" style="stroke: #262626"/>
      </defs>
      <g>
       <use xlink:href="#mc7a6c88304" x="66.777602" y="273.312" style="fill: #262626; stroke: #262626"/>
      </g>
     </g>
     <g id="text_1">
      <!-- −1.00 -->
      <g style="fill: #262626" transform="translate(55.644915 287.910875) scale(0.088 -0.088)">
       <defs>
        <path id="ArialMT-2212" d="M 3381 1997 
L 356 1997 
L 356 2522 
L 3381 2522 
L 3381 1997 
z
" transform="scale(0.015625)"/>
        <path id="ArialMT-31" d="M 2384 0 
L 1822 0 
L 1822 3584 
Q 1619 3391 1289 3197 
Q 959 3003 697 2906 
L 697 3450 
Q 1169 3672 1522 3987 
Q 1875 4303 2022 4600 
L 2384 4600 
L 2384 0 
z
" transform="scale(0.015625)"/>
        <path id="ArialMT-2e" d="M 581 0 
L 581 641 
L 1222 641 
L 1222 0 
L 581 0 
z
" transform="scale(0.015625)"/>
        <path id="ArialMT-30" d="M 266 2259 
Q 266 3072 433 3567 
Q 600 4063 929 4331 
Q 1259 4600 1759 4600 
Q 2128 4600 2406 4451 
Q 2684 4303 2865 4023 
Q 3047 3744 3150 3342 
Q 3253 2941 3253 2259 
Q 3253 1453 3087 958 
Q 2922 463 2592 192 
Q 2263 -78 1759 -78 
Q 1097 -78 719 397 
Q 266 969 266 2259 
z
M 844 2259 
Q 844 1131 1108 757 
Q 1372 384 1759 384 
Q 2147 384 2411 759 
Q 2675 1134 2675 2259 
Q 2675 3391 2411 3762 
Q 2147 4134 1753 4134 
Q 1366 4134 1134 3806 
Q 844 3388 844 2259 
z
" transform="scale(0.015625)"/>
       </defs>
       <use xlink:href="#ArialMT-2212"/>
       <use xlink:href="#ArialMT-31" x="58.398438"/>
       <use xlink:href="#ArialMT-2e" x="114.013672"/>
       <use xlink:href="#ArialMT-30" x="141.796875"/>
       <use xlink:href="#ArialMT-30" x="197.412109"/>
      </g>
     </g>
    </g>
    <g id="xtick_2">
     <g id="line2d_2">
      <g>
       <use xlink:href="#mc7a6c88304" x="107.35942" y="273.312" style="fill: #262626; stroke: #262626"/>
      </g>
     </g>
     <g id="text_2">
      <!-- −0.75 -->
      <g style="fill: #262626" transform="translate(96.226733 287.910875) scale(0.088 -0.088)">
       <defs>
        <path id="ArialMT-37" d="M 303 3981 
L 303 4522 
L 3269 4522 
L 3269 4084 
Q 2831 3619 2401 2847 
Q 1972 2075 1738 1259 
Q 1569 684 1522 0 
L 944 0 
Q 953 541 1156 1306 
Q 1359 2072 1739 2783 
Q 2119 3494 2547 3981 
L 303 3981 
z
" transform="scale(0.015625)"/>
        <path id="ArialMT-35" d="M 266 1200 
L 856 1250 
Q 922 819 1161 601 
Q 1400 384 1738 384 
Q 2144 384 2425 690 
Q 2706 997 2706 1503 
Q 2706 1984 2436 2262 
Q 2166 2541 1728 2541 
Q 1456 2541 1237 2417 
Q 1019 2294 894 2097 
L 366 2166 
L 809 4519 
L 3088 4519 
L 3088 3981 
L 1259 3981 
L 1013 2750 
Q 1425 3038 1878 3038 
Q 2478 3038 2890 2622 
Q 3303 2206 3303 1553 
Q 3303 931 2941 478 
Q 2500 -78 1738 -78 
Q 1113 -78 717 272 
Q 322 622 266 1200 
z
" transform="scale(0.015625)"/>
       </defs>
       <use xlink:href="#ArialMT-2212"/>
       <use xlink:href="#ArialMT-30" x="58.398438"/>
       <use xlink:href="#ArialMT-2e" x="114.013672"/>
       <use xlink:href="#ArialMT-37" x="141.796875"/>
       <use xlink:href="#ArialMT-35" x="197.412109"/>
      </g>
     </g>
    </g>
    <g id="xtick_3">
     <g id="line2d_3">
      <g>
       <use xlink:href="#mc7a6c88304" x="147.941239" y="273.312" style="fill: #262626; stroke: #262626"/>
      </g>
     </g>
     <g id="text_3">
      <!-- −0.50 -->
      <g style="fill: #262626" transform="translate(136.808551 287.910875) scale(0.088 -0.088)">
       <use xlink:href="#ArialMT-2212"/>
       <use xlink:href="#ArialMT-30" x="58.398438"/>
       <use xlink:href="#ArialMT-2e" x="114.013672"/>
       <use xlink:href="#ArialMT-35" x="141.796875"/>
       <use xlink:href="#ArialMT-30" x="197.412109"/>
      </g>
     </g>
    </g>
    <g id="xtick_4">
     <g id="line2d_4">
      <g>
       <use xlink:href="#mc7a6c88304" x="188.523057" y="273.312" style="fill: #262626; stroke: #262626"/>
      </g>
     </g>
     <g id="text_4">
      <!-- −0.25 -->
      <g style="fill: #262626" transform="translate(177.390369 287.910875) scale(0.088 -0.088)">
       <defs>
        <path id="ArialMT-32" d="M 3222 541 
L 3222 0 
L 194 0 
Q 188 203 259 391 
Q 375 700 629 1000 
Q 884 1300 1366 1694 
Q 2113 2306 2375 2664 
Q 2638 3022 2638 3341 
Q 2638 3675 2398 3904 
Q 2159 4134 1775 4134 
Q 1369 4134 1125 3890 
Q 881 3647 878 3216 
L 300 3275 
Q 359 3922 746 4261 
Q 1134 4600 1788 4600 
Q 2447 4600 2831 4234 
Q 3216 3869 3216 3328 
Q 3216 3053 3103 2787 
Q 2991 2522 2730 2228 
Q 2469 1934 1863 1422 
Q 1356 997 1212 845 
Q 1069 694 975 541 
L 3222 541 
z
" transform="scale(0.015625)"/>
       </defs>
       <use xlink:href="#ArialMT-2212"/>
       <use xlink:href="#ArialMT-30" x="58.398438"/>
       <use xlink:href="#ArialMT-2e" x="114.013672"/>
       <use xlink:href="#ArialMT-32" x="141.796875"/>
       <use xlink:href="#ArialMT-35" x="197.412109"/>
      </g>
     </g>
    </g>
    <g id="xtick_5">
     <g id="line2d_5">
      <g>
       <use xlink:href="#mc7a6c88304" x="229.104875" y="273.312" style="fill: #262626; stroke: #262626"/>
      </g>
     </g>
     <g id="text_5">
      <!-- 0.00 -->
      <g style="fill: #262626" transform="translate(220.542063 287.910875) scale(0.088 -0.088)">
       <use xlink:href="#ArialMT-30"/>
       <use xlink:href="#ArialMT-2e" x="55.615234"/>
       <use xlink:href="#ArialMT-30" x="83.398438"/>
       <use xlink:href="#ArialMT-30" x="139.013672"/>
      </g>
     </g>
    </g>
    <g id="xtick_6">
     <g id="line2d_6">
      <g>
       <use xlink:href="#mc7a6c88304" x="269.686693" y="273.312" style="fill: #262626; stroke: #262626"/>
      </g>
     </g>
     <g id="text_6">
      <!-- 0.25 -->
      <g style="fill: #262626" transform="translate(261.123881 287.910875) scale(0.088 -0.088)">
       <use xlink:href="#ArialMT-30"/>
       <use xlink:href="#ArialMT-2e" x="55.615234"/>
       <use xlink:href="#ArialMT-32" x="83.398438"/>
       <use xlink:href="#ArialMT-35" x="139.013672"/>
      </g>
     </g>
    </g>
    <g id="xtick_7">
     <g id="line2d_7">
      <g>
       <use xlink:href="#mc7a6c88304" x="310.268511" y="273.312" style="fill: #262626; stroke: #262626"/>
      </g>
     </g>
     <g id="text_7">
      <!-- 0.50 -->
      <g style="fill: #262626" transform="translate(301.705699 287.910875) scale(0.088 -0.088)">
       <use xlink:href="#ArialMT-30"/>
       <use xlink:href="#ArialMT-2e" x="55.615234"/>
       <use xlink:href="#ArialMT-35" x="83.398438"/>
       <use xlink:href="#ArialMT-30" x="139.013672"/>
      </g>
     </g>
    </g>
    <g id="xtick_8">
     <g id="line2d_8">
      <g>
       <use xlink:href="#mc7a6c88304" x="350.85033" y="273.312" style="fill: #262626; stroke: #262626"/>
      </g>
     </g>
     <g id="text_8">
      <!-- 0.75 -->
      <g style="fill: #262626" transform="translate(342.287517 287.910875) scale(0.088 -0.088)">
       <use xlink:href="#ArialMT-30"/>
       <use xlink:href="#ArialMT-2e" x="55.615234"/>
       <use xlink:href="#ArialMT-37" x="83.398438"/>
       <use xlink:href="#ArialMT-35" x="139.013672"/>
      </g>
     </g>
    </g>
    <g id="xtick_9">
     <g id="line2d_9">
      <g>
       <use xlink:href="#mc7a6c88304" x="391.432148" y="273.312" style="fill: #262626; stroke: #262626"/>
      </g>
     </g>
     <g id="text_9">
      <!-- 1.00 -->
      <g style="fill: #262626" transform="translate(382.869335 287.910875) scale(0.088 -0.088)">
       <use xlink:href="#ArialMT-31"/>
       <use xlink:href="#ArialMT-2e" x="55.615234"/>
       <use xlink:href="#ArialMT-30" x="83.398438"/>
       <use xlink:href="#ArialMT-30" x="139.013672"/>
      </g>
     </g>
    </g>
    <g id="text_10">
     <!-- x -->
     <g style="fill: #262626" transform="translate(226.704875 300.531375) scale(0.096 -0.096)">
      <defs>
       <path id="ArialMT-78" d="M 47 0 
L 1259 1725 
L 138 3319 
L 841 3319 
L 1350 2541 
Q 1494 2319 1581 2169 
Q 1719 2375 1834 2534 
L 2394 3319 
L 3066 3319 
L 1919 1756 
L 3153 0 
L 2463 0 
L 1781 1031 
L 1600 1309 
L 728 0 
L 47 0 
z
" transform="scale(0.015625)"/>
      </defs>
      <use xlink:href="#ArialMT-78"/>
     </g>
    </g>
   </g>
   <g id="matplotlib.axis_2">
    <g id="ytick_1">
     <g id="line2d_10">
      <defs>
       <path id="m8e8876ce6d" d="M 0 0 
L -4.8 0 
" style="stroke: #262626"/>
      </defs>
      <g>
       <use xlink:href="#m8e8876ce6d" x="50.544875" y="261.216" style="fill: #262626; stroke: #262626"/>
      </g>
     </g>
     <g id="text_11">
      <!-- −1.00 -->
      <g style="fill: #262626" transform="translate(19.9795 264.365437) scale(0.088 -0.088)">
       <use xlink:href="#ArialMT-2212"/>
       <use xlink:href="#ArialMT-31" x="58.398438"/>
       <use xlink:href="#ArialMT-2e" x="114.013672"/>
       <use xlink:href="#ArialMT-30" x="141.796875"/>
       <use xlink:href="#ArialMT-30" x="197.412109"/>
      </g>
     </g>
    </g>
    <g id="ytick_2">
     <g id="line2d_11">
      <g>
       <use xlink:href="#m8e8876ce6d" x="50.544875" y="230.976" style="fill: #262626; stroke: #262626"/>
      </g>
     </g>
     <g id="text_12">
      <!-- −0.75 -->
      <g style="fill: #262626" transform="translate(19.9795 234.125437) scale(0.088 -0.088)">
       <use xlink:href="#ArialMT-2212"/>
       <use xlink:href="#ArialMT-30" x="58.398438"/>
       <use xlink:href="#ArialMT-2e" x="114.013672"/>
       <use xlink:href="#ArialMT-37" x="141.796875"/>
       <use xlink:href="#ArialMT-35" x="197.412109"/>
      </g>
     </g>
    </g>
    <g id="ytick_3">
     <g id="line2d_12">
      <g>
       <use xlink:href="#m8e8876ce6d" x="50.544875" y="200.736" style="fill: #262626; stroke: #262626"/>
      </g>
     </g>
     <g id="text_13">
      <!-- −0.50 -->
      <g style="fill: #262626" transform="translate(19.9795 203.885437) scale(0.088 -0.088)">
       <use xlink:href="#ArialMT-2212"/>
       <use xlink:href="#ArialMT-30" x="58.398438"/>
       <use xlink:href="#ArialMT-2e" x="114.013672"/>
       <use xlink:href="#ArialMT-35" x="141.796875"/>
       <use xlink:href="#ArialMT-30" x="197.412109"/>
      </g>
     </g>
    </g>
    <g id="ytick_4">
     <g id="line2d_13">
      <g>
       <use xlink:href="#m8e8876ce6d" x="50.544875" y="170.496" style="fill: #262626; stroke: #262626"/>
      </g>
     </g>
     <g id="text_14">
      <!-- −0.25 -->
      <g style="fill: #262626" transform="translate(19.9795 173.645437) scale(0.088 -0.088)">
       <use xlink:href="#ArialMT-2212"/>
       <use xlink:href="#ArialMT-30" x="58.398438"/>
       <use xlink:href="#ArialMT-2e" x="114.013672"/>
       <use xlink:href="#ArialMT-32" x="141.796875"/>
       <use xlink:href="#ArialMT-35" x="197.412109"/>
      </g>
     </g>
    </g>
    <g id="ytick_5">
     <g id="line2d_14">
      <g>
       <use xlink:href="#m8e8876ce6d" x="50.544875" y="140.256" style="fill: #262626; stroke: #262626"/>
      </g>
     </g>
     <g id="text_15">
      <!-- 0.00 -->
      <g style="fill: #262626" transform="translate(25.11925 143.405437) scale(0.088 -0.088)">
       <use xlink:href="#ArialMT-30"/>
       <use xlink:href="#ArialMT-2e" x="55.615234"/>
       <use xlink:href="#ArialMT-30" x="83.398438"/>
       <use xlink:href="#ArialMT-30" x="139.013672"/>
      </g>
     </g>
    </g>
    <g id="ytick_6">
     <g id="line2d_15">
      <g>
       <use xlink:href="#m8e8876ce6d" x="50.544875" y="110.016" style="fill: #262626; stroke: #262626"/>
      </g>
     </g>
     <g id="text_16">
      <!-- 0.25 -->
      <g style="fill: #262626" transform="translate(25.11925 113.165437) scale(0.088 -0.088)">
       <use xlink:href="#ArialMT-30"/>
       <use xlink:href="#ArialMT-2e" x="55.615234"/>
       <use xlink:href="#ArialMT-32" x="83.398438"/>
       <use xlink:href="#ArialMT-35" x="139.013672"/>
      </g>
     </g>
    </g>
    <g id="ytick_7">
     <g id="line2d_16">
      <g>
       <use xlink:href="#m8e8876ce6d" x="50.544875" y="79.776" style="fill: #262626; stroke: #262626"/>
      </g>
     </g>
     <g id="text_17">
      <!-- 0.50 -->
      <g style="fill: #262626" transform="translate(25.11925 82.925437) scale(0.088 -0.088)">
       <use xlink:href="#ArialMT-30"/>
       <use xlink:href="#ArialMT-2e" x="55.615234"/>
       <use xlink:href="#ArialMT-35" x="83.398438"/>
       <use xlink:href="#ArialMT-30" x="139.013672"/>
      </g>
     </g>
    </g>
    <g id="ytick_8">
     <g id="line2d_17">
      <g>
       <use xlink:href="#m8e8876ce6d" x="50.544875" y="49.536" style="fill: #262626; stroke: #262626"/>
      </g>
     </g>
     <g id="text_18">
      <!-- 0.75 -->
      <g style="fill: #262626" transform="translate(25.11925 52.685437) scale(0.088 -0.088)">
       <use xlink:href="#ArialMT-30"/>
       <use xlink:href="#ArialMT-2e" x="55.615234"/>
       <use xlink:href="#ArialMT-37" x="83.398438"/>
       <use xlink:href="#ArialMT-35" x="139.013672"/>
      </g>
     </g>
    </g>
    <g id="ytick_9">
     <g id="line2d_18">
      <g>
       <use xlink:href="#m8e8876ce6d" x="50.544875" y="19.296" style="fill: #262626; stroke: #262626"/>
      </g>
     </g>
     <g id="text_19">
      <!-- 1.00 -->
      <g style="fill: #262626" transform="translate(25.11925 22.445437) scale(0.088 -0.088)">
       <use xlink:href="#ArialMT-31"/>
       <use xlink:href="#ArialMT-2e" x="55.615234"/>
       <use xlink:href="#ArialMT-30" x="83.398438"/>
       <use xlink:href="#ArialMT-30" x="139.013672"/>
      </g>
     </g>
    </g>
    <g id="text_20">
     <!-- feature value -->
     <g style="fill: #262626" transform="translate(14.0715 168.006) rotate(-90) scale(0.096 -0.096)">
      <defs>
       <path id="ArialMT-66" d="M 556 0 
L 556 2881 
L 59 2881 
L 59 3319 
L 556 3319 
L 556 3672 
Q 556 4006 616 4169 
Q 697 4388 901 4523 
Q 1106 4659 1475 4659 
Q 1713 4659 2000 4603 
L 1916 4113 
Q 1741 4144 1584 4144 
Q 1328 4144 1222 4034 
Q 1116 3925 1116 3625 
L 1116 3319 
L 1763 3319 
L 1763 2881 
L 1116 2881 
L 1116 0 
L 556 0 
z
" transform="scale(0.015625)"/>
       <path id="ArialMT-65" d="M 2694 1069 
L 3275 997 
Q 3138 488 2766 206 
Q 2394 -75 1816 -75 
Q 1088 -75 661 373 
Q 234 822 234 1631 
Q 234 2469 665 2931 
Q 1097 3394 1784 3394 
Q 2450 3394 2872 2941 
Q 3294 2488 3294 1666 
Q 3294 1616 3291 1516 
L 816 1516 
Q 847 969 1125 678 
Q 1403 388 1819 388 
Q 2128 388 2347 550 
Q 2566 713 2694 1069 
z
M 847 1978 
L 2700 1978 
Q 2663 2397 2488 2606 
Q 2219 2931 1791 2931 
Q 1403 2931 1139 2672 
Q 875 2413 847 1978 
z
" transform="scale(0.015625)"/>
       <path id="ArialMT-61" d="M 2588 409 
Q 2275 144 1986 34 
Q 1697 -75 1366 -75 
Q 819 -75 525 192 
Q 231 459 231 875 
Q 231 1119 342 1320 
Q 453 1522 633 1644 
Q 813 1766 1038 1828 
Q 1203 1872 1538 1913 
Q 2219 1994 2541 2106 
Q 2544 2222 2544 2253 
Q 2544 2597 2384 2738 
Q 2169 2928 1744 2928 
Q 1347 2928 1158 2789 
Q 969 2650 878 2297 
L 328 2372 
Q 403 2725 575 2942 
Q 747 3159 1072 3276 
Q 1397 3394 1825 3394 
Q 2250 3394 2515 3294 
Q 2781 3194 2906 3042 
Q 3031 2891 3081 2659 
Q 3109 2516 3109 2141 
L 3109 1391 
Q 3109 606 3145 398 
Q 3181 191 3288 0 
L 2700 0 
Q 2613 175 2588 409 
z
M 2541 1666 
Q 2234 1541 1622 1453 
Q 1275 1403 1131 1340 
Q 988 1278 909 1158 
Q 831 1038 831 891 
Q 831 666 1001 516 
Q 1172 366 1500 366 
Q 1825 366 2078 508 
Q 2331 650 2450 897 
Q 2541 1088 2541 1459 
L 2541 1666 
z
" transform="scale(0.015625)"/>
       <path id="ArialMT-74" d="M 1650 503 
L 1731 6 
Q 1494 -44 1306 -44 
Q 1000 -44 831 53 
Q 663 150 594 308 
Q 525 466 525 972 
L 525 2881 
L 113 2881 
L 113 3319 
L 525 3319 
L 525 4141 
L 1084 4478 
L 1084 3319 
L 1650 3319 
L 1650 2881 
L 1084 2881 
L 1084 941 
Q 1084 700 1114 631 
Q 1144 563 1211 522 
Q 1278 481 1403 481 
Q 1497 481 1650 503 
z
" transform="scale(0.015625)"/>
       <path id="ArialMT-75" d="M 2597 0 
L 2597 488 
Q 2209 -75 1544 -75 
Q 1250 -75 995 37 
Q 741 150 617 320 
Q 494 491 444 738 
Q 409 903 409 1263 
L 409 3319 
L 972 3319 
L 972 1478 
Q 972 1038 1006 884 
Q 1059 663 1231 536 
Q 1403 409 1656 409 
Q 1909 409 2131 539 
Q 2353 669 2445 892 
Q 2538 1116 2538 1541 
L 2538 3319 
L 3100 3319 
L 3100 0 
L 2597 0 
z
" transform="scale(0.015625)"/>
       <path id="ArialMT-72" d="M 416 0 
L 416 3319 
L 922 3319 
L 922 2816 
Q 1116 3169 1280 3281 
Q 1444 3394 1641 3394 
Q 1925 3394 2219 3213 
L 2025 2691 
Q 1819 2813 1613 2813 
Q 1428 2813 1281 2702 
Q 1134 2591 1072 2394 
Q 978 2094 978 1738 
L 978 0 
L 416 0 
z
" transform="scale(0.015625)"/>
       <path id="ArialMT-20" transform="scale(0.015625)"/>
       <path id="ArialMT-76" d="M 1344 0 
L 81 3319 
L 675 3319 
L 1388 1331 
Q 1503 1009 1600 663 
Q 1675 925 1809 1294 
L 2547 3319 
L 3125 3319 
L 1869 0 
L 1344 0 
z
" transform="scale(0.015625)"/>
       <path id="ArialMT-6c" d="M 409 0 
L 409 4581 
L 972 4581 
L 972 0 
L 409 0 
z
" transform="scale(0.015625)"/>
      </defs>
      <use xlink:href="#ArialMT-66"/>
      <use xlink:href="#ArialMT-65" x="27.783203"/>
      <use xlink:href="#ArialMT-61" x="83.398438"/>
      <use xlink:href="#ArialMT-74" x="139.013672"/>
      <use xlink:href="#ArialMT-75" x="166.796875"/>
      <use xlink:href="#ArialMT-72" x="222.412109"/>
      <use xlink:href="#ArialMT-65" x="255.712891"/>
      <use xlink:href="#ArialMT-20" x="311.328125"/>
      <use xlink:href="#ArialMT-76" x="339.111328"/>
      <use xlink:href="#ArialMT-61" x="389.111328"/>
      <use xlink:href="#ArialMT-6c" x="444.726562"/>
      <use xlink:href="#ArialMT-75" x="466.943359"/>
      <use xlink:href="#ArialMT-65" x="522.558594"/>
     </g>
    </g>
   </g>
   <g id="line2d_19">
    <path d="M 66.777602 19.296 
L 391.432148 19.296 
L 391.432148 19.296 
" clip-path="url(#p19842361f3)" style="fill: none; stroke: #1f77b4; stroke-width: 0.2; stroke-linecap: round"/>
   </g>
   <g id="line2d_20">
    <path d="M 66.777602 261.216 
L 391.432148 19.296 
L 391.432148 19.296 
" clip-path="url(#p19842361f3)" style="fill: none; stroke: #ff7f0e; stroke-width: 0.2; stroke-linecap: round"/>
   </g>
   <g id="line2d_21">
    <path d="M 66.777602 19.296 
L 73.303313 28.825928 
L 79.829042 37.964912 
L 86.354753 46.712896 
L 92.880482 55.069937 
L 99.406193 63.035977 
L 105.931923 70.611075 
L 112.457633 77.795171 
L 118.983363 84.588318 
L 125.509073 90.990474 
L 132.034803 97.001681 
L 138.560513 102.621893 
L 143.454806 106.580487 
L 148.349098 110.319157 
L 153.243386 113.837903 
L 158.137678 117.136732 
L 163.031961 120.215631 
L 167.926253 123.074615 
L 172.820541 125.713674 
L 177.714833 128.132815 
L 182.609126 130.332034 
L 187.503413 132.311328 
L 192.397706 134.070703 
L 197.291989 135.610153 
L 202.186276 136.929682 
L 207.080569 138.029292 
L 211.974861 138.908979 
L 216.869154 139.568745 
L 221.763441 140.008588 
L 226.657724 140.22851 
L 231.552016 140.22851 
L 236.446304 140.008588 
L 241.340596 139.568745 
L 246.234889 138.908979 
L 251.129177 138.029293 
L 256.023469 136.929684 
L 260.917752 135.610155 
L 265.812044 134.070703 
L 270.706332 132.31133 
L 275.600624 130.332034 
L 280.494917 128.132815 
L 285.389204 125.713677 
L 290.283497 123.074615 
L 295.17778 120.215637 
L 300.072072 117.136732 
L 304.96636 113.837907 
L 309.860652 110.319157 
L 314.754944 106.580487 
L 319.649237 102.621893 
L 324.543529 98.443377 
L 331.06924 92.529935 
L 337.59495 86.225521 
L 344.12068 79.530118 
L 350.64639 72.443764 
L 357.17212 64.96641 
L 363.69783 57.098112 
L 370.22356 48.838814 
L 376.74927 40.188574 
L 383.275 31.147332 
L 389.80071 21.715147 
L 391.432148 19.296 
L 391.432148 19.296 
" clip-path="url(#p19842361f3)" style="fill: none; stroke: #2ca02c; stroke-width: 0.2; stroke-linecap: round"/>
   </g>
   <g id="line2d_22">
    <path d="M 66.777602 261.216 
L 71.671895 250.601455 
L 76.566187 240.626785 
L 81.46048 231.272098 
L 86.354753 222.517525 
L 91.249045 214.343122 
L 96.143338 206.72902 
L 101.03763 199.655326 
L 105.931923 193.102147 
L 110.826215 187.049603 
L 115.720507 181.477789 
L 120.614781 176.366836 
L 125.509073 171.696814 
L 130.403365 167.447845 
L 135.297658 163.600042 
L 140.19195 160.133511 
L 145.086243 157.028359 
L 149.980521 154.2647 
L 154.874813 151.822629 
L 159.769101 149.68226 
L 164.663393 147.823699 
L 169.557686 146.227056 
L 174.451973 144.872438 
L 179.346266 143.739951 
L 184.240549 142.809705 
L 189.134841 142.061805 
L 195.660566 141.313874 
L 202.186276 140.807601 
L 210.343429 140.442752 
L 220.132009 140.27643 
L 249.497744 140.016171 
L 257.654892 139.597908 
L 264.180617 139.03564 
L 270.706332 138.219929 
L 275.600624 137.413457 
L 280.494917 136.418007 
L 285.389204 135.213687 
L 290.283497 133.780603 
L 295.17778 132.098868 
L 300.072072 130.148582 
L 304.96636 127.909857 
L 309.860652 125.362797 
L 314.754944 122.487513 
L 319.649237 119.26411 
L 324.543529 115.672696 
L 329.437802 111.693398 
L 334.332095 107.306292 
L 339.226387 102.491494 
L 344.12068 97.22912 
L 349.014972 91.499268 
L 353.909265 85.282057 
L 358.803538 78.557612 
L 363.69783 71.305996 
L 368.592123 63.507338 
L 373.486415 55.141739 
L 378.380708 46.189322 
L 383.275 36.63018 
L 388.169293 26.44443 
L 391.432148 19.296 
L 391.432148 19.296 
" clip-path="url(#p19842361f3)" style="fill: none; stroke: #d62728; stroke-width: 0.2; stroke-linecap: round"/>
   </g>
   <g id="line2d_23">
    <path d="M 66.777602 19.296 
L 70.040457 28.7321 
L 73.303313 37.605029 
L 76.566187 45.937722 
L 79.829042 53.752473 
L 83.091898 61.071241 
L 86.354753 67.915454 
L 89.617627 74.306143 
L 92.880482 80.263727 
L 96.143338 85.808248 
L 99.406193 90.959274 
L 102.669067 95.735899 
L 105.931923 100.156665 
L 109.194778 104.239721 
L 112.457633 108.002734 
L 115.720507 111.462892 
L 118.983363 114.636862 
L 122.246218 117.540899 
L 125.509073 120.190756 
L 128.771928 122.601716 
L 132.034803 124.788604 
L 135.297658 126.765724 
L 138.560513 128.546956 
L 141.823368 130.145684 
L 146.717661 132.229707 
L 151.611953 133.973624 
L 156.506246 135.416623 
L 161.400538 136.595489 
L 166.294826 137.544608 
L 171.189118 138.29597 
L 177.714833 139.040957 
L 184.240549 139.550202 
L 192.397706 139.939714 
L 202.186276 140.164529 
L 216.869154 140.252095 
L 254.392037 140.184768 
L 265.812044 139.939714 
L 273.969192 139.550203 
L 280.494917 139.040957 
L 287.020632 138.29597 
L 291.91492 137.544608 
L 296.809212 136.595489 
L 301.703504 135.416623 
L 306.597792 133.973625 
L 311.492089 132.229707 
L 316.386362 130.145692 
L 319.649237 128.546956 
L 322.912092 126.765724 
L 326.174947 124.788604 
L 329.437802 122.601731 
L 332.700677 120.190756 
L 335.963532 117.540899 
L 339.226387 114.636862 
L 342.489243 111.462892 
L 345.752117 108.002734 
L 349.014972 104.239721 
L 352.277827 100.156665 
L 355.540683 95.735899 
L 358.803538 90.959303 
L 362.066412 85.808248 
L 365.329268 80.263727 
L 368.592123 74.306143 
L 371.854978 67.915497 
L 375.117852 61.071241 
L 378.380708 53.752473 
L 381.643563 45.937722 
L 384.906418 37.605087 
L 388.169293 28.7321 
L 391.432148 19.296 
L 391.432148 19.296 
" clip-path="url(#p19842361f3)" style="fill: none; stroke: #9467bd; stroke-width: 0.2; stroke-linecap: round"/>
   </g>
   <g id="line2d_24">
    <path d="M 66.777602 261.216 
L 70.040457 249.538215 
L 73.303313 238.780303 
L 76.566187 228.886743 
L 79.829042 219.804471 
L 83.091898 211.482491 
L 86.354753 203.872059 
L 89.617627 196.926476 
L 92.880482 190.601273 
L 96.143338 184.853908 
L 99.406193 179.643838 
L 102.669067 174.932457 
L 105.931923 170.683133 
L 109.194778 166.86099 
L 112.457633 163.432972 
L 115.720507 160.367767 
L 118.983363 157.635817 
L 122.246218 155.209157 
L 125.509073 153.061458 
L 128.771928 151.167946 
L 132.034803 149.505346 
L 135.297658 148.051888 
L 138.560513 146.787176 
L 141.823368 145.6922 
L 146.717661 144.329647 
L 151.611953 143.255125 
L 156.506246 142.420345 
L 161.400538 141.782746 
L 167.926253 141.175777 
L 176.083401 140.705721 
L 185.871981 140.41809 
L 198.923421 140.282877 
L 233.183449 140.255999 
L 269.074909 140.146514 
L 280.494917 139.871338 
L 288.652064 139.452491 
L 295.17778 138.904546 
L 301.703504 138.091655 
L 306.597792 137.256877 
L 311.492089 136.182353 
L 316.386362 134.819805 
L 319.649237 133.724824 
L 322.912092 132.460112 
L 326.174947 131.006654 
L 329.437802 129.344066 
L 332.700677 127.450542 
L 335.963532 125.302843 
L 339.226387 122.876183 
L 342.489243 120.144233 
L 345.752117 117.079028 
L 349.014972 113.65101 
L 352.277827 109.828867 
L 355.540683 105.579543 
L 358.803538 100.868191 
L 362.066412 95.658092 
L 365.329268 89.910727 
L 368.592123 83.585524 
L 371.854978 76.639985 
L 375.117852 69.029509 
L 378.380708 60.707529 
L 381.643563 51.625257 
L 384.906418 41.731762 
L 388.169293 30.973785 
L 391.432148 19.296 
L 391.432148 19.296 
" clip-path="url(#p19842361f3)" style="fill: none; stroke: #8c564b; stroke-width: 0.2; stroke-linecap: round"/>
   </g>
   <g id="line2d_25">
    <path d="M 66.777602 19.296 
L 70.040457 33.17041 
L 73.303313 45.692467 
L 76.566187 56.969829 
L 79.829042 67.103388 
L 83.091898 76.187946 
L 86.354753 84.312223 
L 89.617627 91.559261 
L 92.880482 98.00645 
L 96.143338 103.726053 
L 99.406193 108.785313 
L 102.669067 113.2467 
L 105.931923 117.168076 
L 109.194778 120.603067 
L 112.457633 123.601192 
L 115.720507 126.208083 
L 118.983363 128.465672 
L 122.246218 130.412464 
L 125.509073 132.083672 
L 128.771928 133.51143 
L 132.034803 134.724984 
L 135.297658 135.750839 
L 140.19195 136.989503 
L 145.086243 137.930338 
L 149.980521 138.633615 
L 156.506246 139.288027 
L 163.031961 139.70591 
L 171.189118 140.006498 
L 182.609126 140.189201 
L 203.817713 140.254271 
L 277.232057 140.173845 
L 288.652064 139.961245 
L 296.809212 139.619217 
L 303.334927 139.149959 
L 309.860652 138.422274 
L 314.754944 137.645888 
L 319.649237 136.612982 
L 322.912092 135.750839 
L 326.174947 134.724984 
L 329.437802 133.511438 
L 332.700677 132.083672 
L 335.963532 130.412464 
L 339.226387 128.465672 
L 342.489243 126.208083 
L 345.752117 123.601192 
L 349.014972 120.603067 
L 352.277827 117.168076 
L 355.540683 113.2467 
L 358.803538 108.785341 
L 362.066412 103.726053 
L 365.329268 98.00645 
L 368.592123 91.559261 
L 371.854978 84.312273 
L 375.117852 76.187946 
L 378.380708 67.103388 
L 381.643563 56.969829 
L 384.906418 45.69254 
L 388.169293 33.17041 
L 391.432148 19.296 
L 391.432148 19.296 
" clip-path="url(#p19842361f3)" style="fill: none; stroke: #e377c2; stroke-width: 0.2; stroke-linecap: round"/>
   </g>
   <g id="line2d_26">
    <path d="M 66.777602 261.216 
L 70.040457 245.189118 
L 73.303313 231.01799 
L 76.566187 218.519883 
L 79.829042 207.526991 
L 83.091898 197.885056 
L 86.354753 189.452788 
L 89.617627 182.100934 
L 92.880482 175.711654 
L 96.143338 170.177515 
L 99.406193 165.400924 
L 102.669067 161.293393 
L 105.931923 157.774976 
L 109.194778 154.773494 
L 112.457633 152.224028 
L 115.720507 150.068363 
L 118.983363 148.254464 
L 122.246218 146.735915 
L 125.509073 145.471506 
L 128.771928 144.424755 
L 132.034803 143.563492 
L 136.929095 142.558603 
L 141.823368 141.827654 
L 146.717661 141.305349 
L 153.243386 140.844913 
L 161.400538 140.521593 
L 172.820541 140.328881 
L 194.029129 140.25866 
L 290.283497 140.125353 
L 300.072072 139.886763 
L 308.22922 139.46519 
L 314.754944 138.878805 
L 319.649237 138.223965 
L 324.543529 137.318543 
L 327.806385 136.539212 
L 331.06924 135.588973 
L 334.332095 134.437675 
L 337.59495 133.051043 
L 340.857825 131.390274 
L 344.12068 129.411639 
L 347.383535 127.065962 
L 350.64639 124.298172 
L 353.909265 121.046751 
L 357.17212 117.243287 
L 360.434975 112.811759 
L 363.69783 107.668006 
L 366.960705 101.719049 
L 370.22356 94.862572 
L 373.486415 86.985954 
L 376.74927 77.96574 
L 380.012126 67.666789 
L 383.275 55.941368 
L 386.537855 42.62868 
L 389.80071 27.553459 
L 391.432148 19.296 
L 391.432148 19.296 
" clip-path="url(#p19842361f3)" style="fill: none; stroke: #7f7f7f; stroke-width: 0.2; stroke-linecap: round"/>
   </g>
   <g id="line2d_27">
    <path d="M 66.777602 19.296 
L 70.040457 37.432088 
L 71.671895 45.572216 
L 73.303313 53.142727 
L 74.93475 60.178281 
L 76.566187 66.711544 
L 78.197605 72.773496 
L 79.829042 78.393727 
L 81.46048 83.600037 
L 83.091898 88.418815 
L 84.723335 92.875106 
L 86.354753 96.992488 
L 87.98619 100.793371 
L 89.617627 104.298794 
L 91.249045 107.528634 
L 92.880482 110.501761 
L 94.5119 113.235777 
L 96.143338 115.747422 
L 99.406193 120.165332 
L 102.669067 123.870093 
L 105.931923 126.962707 
L 109.194778 129.532022 
L 112.457633 131.655858 
L 115.720507 133.402139 
L 118.983363 134.829907 
L 122.246218 135.990327 
L 125.509073 136.927511 
L 128.771928 137.679332 
L 133.666221 138.528952 
L 138.560513 139.122553 
L 145.086243 139.632962 
L 153.243386 139.98078 
L 164.663393 140.181384 
L 185.871981 140.252938 
L 291.91492 140.195223 
L 304.96636 139.98078 
L 313.123507 139.632962 
L 319.649237 139.122553 
L 324.543529 138.528952 
L 329.437802 137.679336 
L 332.700677 136.927511 
L 335.963532 135.990327 
L 339.226387 134.829907 
L 342.489243 133.402139 
L 345.752117 131.655858 
L 349.014972 129.532022 
L 352.277827 126.962707 
L 355.540683 123.870093 
L 357.17212 122.100242 
L 358.803538 120.165356 
L 360.434975 118.052366 
L 362.066412 115.747422 
L 363.69783 113.235807 
L 365.329268 110.501761 
L 366.960705 107.528634 
L 368.592123 104.298794 
L 370.22356 100.793371 
L 371.854978 96.992539 
L 373.486415 92.875106 
L 375.117852 88.418815 
L 376.74927 83.600037 
L 378.380708 78.393727 
L 380.012126 72.773568 
L 381.643563 66.711544 
L 383.275 60.178281 
L 384.906418 53.142821 
L 386.537855 45.572216 
L 388.169293 37.432088 
L 389.80071 28.686144 
L 391.432148 19.296 
L 391.432148 19.296 
" clip-path="url(#p19842361f3)" style="fill: none; stroke: #bcbd22; stroke-width: 0.2; stroke-linecap: round"/>
   </g>
   <g id="line2d_28">
    <path d="M 66.777602 261.216 
L 68.40904 250.704548 
L 70.040457 241.013099 
L 71.671895 232.084994 
L 73.303313 223.867238 
L 74.93475 216.309711 
L 76.566187 209.365614 
L 78.197605 202.990995 
L 79.829042 197.14442 
L 81.46048 191.787299 
L 83.091898 186.883418 
L 84.723335 182.398802 
L 86.354753 178.301803 
L 87.98619 174.562708 
L 89.617627 171.153899 
L 91.249045 168.049593 
L 92.880482 165.225638 
L 94.5119 162.659705 
L 96.143338 160.330866 
L 97.774775 158.219744 
L 99.406193 156.308343 
L 101.03763 154.579889 
L 104.300485 151.611001 
L 107.56334 149.202244 
L 110.826215 147.258866 
L 114.08907 145.700225 
L 117.351925 144.457935 
L 120.614781 143.474319 
L 123.877655 142.700957 
L 128.771928 141.848614 
L 133.666221 141.2714 
L 140.19195 140.792788 
L 148.349098 140.481778 
L 159.769101 140.313245 
L 184.240549 140.257138 
L 304.96636 140.127379 
L 314.754944 139.872586 
L 321.280655 139.513546 
L 326.174947 139.073268 
L 331.06924 138.414575 
L 334.332095 137.811043 
L 337.59495 137.037686 
L 340.857825 136.054065 
L 344.12068 134.811775 
L 347.383535 133.253134 
L 350.64639 131.309771 
L 353.909265 128.900999 
L 355.540683 127.493108 
L 357.17212 125.932111 
L 358.803538 124.203678 
L 360.434975 122.292256 
L 362.066412 120.181134 
L 363.69783 117.852324 
L 365.329268 115.286362 
L 366.960705 112.462407 
L 368.592123 109.358101 
L 370.22356 105.949292 
L 371.854978 102.210244 
L 373.486415 98.113198 
L 375.117852 93.628582 
L 376.74927 88.724701 
L 378.380708 83.36758 
L 380.012126 77.521084 
L 381.643563 71.146386 
L 383.275 64.202289 
L 384.906418 56.644863 
L 386.537855 48.427006 
L 388.169293 39.498901 
L 389.80071 29.807452 
L 391.432148 19.296 
L 391.432148 19.296 
" clip-path="url(#p19842361f3)" style="fill: none; stroke: #17becf; stroke-width: 0.2; stroke-linecap: round"/>
   </g>
   <g id="line2d_29">
    <path d="M 66.777602 140.256 
L 391.432148 140.256 
L 391.432148 140.256 
" clip-path="url(#p19842361f3)" style="fill: none; stroke: #1f77b4; stroke-width: 0.2; stroke-linecap: round"/>
   </g>
   <g id="line2d_30">
    <path d="M 66.777602 140.256021 
L 73.303313 110.02657 
L 78.197605 88.512019 
L 81.46048 75.152398 
L 84.723335 62.82998 
L 87.98619 51.740851 
L 89.617627 46.7148 
L 91.249045 42.061703 
L 92.880482 37.799967 
L 94.5119 33.946716 
L 96.143338 30.51719 
L 97.774775 27.525139 
L 99.406193 24.982482 
L 101.03763 22.89931 
L 102.669067 21.283959 
L 104.300485 20.142882 
L 105.931923 19.480599 
L 107.56334 19.299771 
L 109.194778 19.601103 
L 110.826215 20.383408 
L 112.457633 21.64354 
L 114.08907 23.376525 
L 115.720507 25.575428 
L 117.351925 28.231445 
L 118.983363 31.334072 
L 120.614781 34.870836 
L 122.246218 38.827728 
L 123.877655 43.188973 
L 125.509073 47.93708 
L 128.771928 58.517011 
L 132.034803 70.399049 
L 135.297658 83.393802 
L 138.560513 97.294293 
L 143.454806 119.355977 
L 156.506246 179.626683 
L 159.769101 193.719538 
L 163.031961 206.960756 
L 166.294826 219.139441 
L 169.557686 230.061562 
L 171.189118 234.996179 
L 172.820541 239.553134 
L 174.451973 243.714257 
L 176.083401 247.462967 
L 177.714833 250.784331 
L 179.346266 253.665092 
L 180.977688 256.093756 
L 182.609126 258.060677 
L 184.240549 259.557975 
L 185.871981 260.579715 
L 187.503413 261.121804 
L 189.134841 261.182085 
L 190.766273 260.76032 
L 192.397706 259.85819 
L 194.029129 258.479298 
L 195.660566 256.629118 
L 197.291989 254.315053 
L 198.923421 251.546311 
L 200.554853 248.333929 
L 202.186276 244.690742 
L 203.817713 240.631197 
L 205.449136 236.171582 
L 207.080569 231.329589 
L 210.343429 220.577215 
L 213.606294 208.545372 
L 216.869154 195.425746 
L 220.132009 181.427321 
L 225.026301 159.272607 
L 238.077741 99.084679 
L 241.340596 85.086254 
L 244.603456 71.966628 
L 247.866321 59.934785 
L 251.129177 49.182425 
L 252.760604 44.340447 
L 254.392037 39.880803 
L 256.023469 35.821272 
L 257.654892 32.178085 
L 259.286329 28.965689 
L 260.917752 26.196961 
L 262.549184 23.882882 
L 264.180617 22.032709 
L 265.812044 20.65381 
L 267.443477 19.75168 
L 269.074909 19.329915 
L 270.706332 19.390196 
L 272.337769 19.932285 
L 273.969192 20.954018 
L 275.600624 22.451323 
L 277.232057 24.418237 
L 278.863479 26.846901 
L 280.494917 29.727669 
L 282.126339 33.049004 
L 283.757772 36.797728 
L 285.389204 40.958866 
L 287.020632 45.515821 
L 288.652064 50.450438 
L 291.91492 61.372537 
L 295.17778 73.551193 
L 298.440644 86.792437 
L 301.703504 100.885317 
L 306.597792 123.127511 
L 318.0178 175.996455 
L 321.280655 190.267594 
L 324.543529 203.74216 
L 327.806385 216.205335 
L 331.06924 227.458717 
L 332.700677 232.57492 
L 334.332095 237.323027 
L 335.963532 241.684272 
L 337.59495 245.641135 
L 339.226387 249.177928 
L 340.857825 252.280555 
L 342.489243 254.936572 
L 344.12068 257.135475 
L 345.752117 258.86846 
L 347.383535 260.128592 
L 349.014972 260.910897 
L 350.64639 261.212229 
L 352.277827 261.031401 
L 353.909265 260.369118 
L 355.540683 259.228041 
L 357.17212 257.61269 
L 358.803538 255.529554 
L 360.434975 252.986861 
L 362.066412 249.99481 
L 363.69783 246.565313 
L 365.329268 242.712033 
L 366.960705 238.450297 
L 368.592123 233.7972 
L 371.854978 223.39233 
L 375.117852 211.66311 
L 378.380708 198.796472 
L 381.643563 184.997325 
L 386.537855 163.034199 
L 391.432148 140.255979 
L 391.432148 140.255979 
" clip-path="url(#p19842361f3)" style="fill: none; stroke: #ff7f0e; stroke-width: 0.2; stroke-linecap: round"/>
   </g>
   <g id="line2d_31">
    <path d="M 66.777602 140.256042 
L 71.671895 95.514639 
L 74.93475 68.848954 
L 76.566187 57.119684 
L 78.197605 46.714886 
L 79.829042 37.799981 
L 81.46048 30.517154 
L 83.091898 24.982474 
L 84.723335 21.283966 
L 86.354753 19.480599 
L 87.98619 19.601096 
L 89.617627 21.643561 
L 91.249045 25.575385 
L 92.880482 31.334065 
L 94.5119 38.827685 
L 96.143338 47.937109 
L 97.774775 58.51704 
L 99.406193 70.39892 
L 101.03763 83.393755 
L 104.300485 111.87914 
L 112.457633 186.765711 
L 114.08907 200.46015 
L 115.720507 213.195563 
L 117.351925 224.768922 
L 118.983363 234.996223 
L 120.614781 243.714228 
L 122.246218 250.784302 
L 123.877655 256.09377 
L 125.509073 259.557967 
L 127.14051 261.121804 
L 128.771928 260.760335 
L 130.403365 258.479298 
L 132.034803 254.315039 
L 133.666221 248.333973 
L 135.297658 240.631197 
L 136.929095 231.329539 
L 138.560513 220.577258 
L 140.19195 208.545357 
L 143.454806 181.427357 
L 146.717661 151.696444 
L 151.611953 106.344276 
L 154.874813 78.403208 
L 156.506246 65.802326 
L 158.137678 54.387445 
L 159.769101 44.340461 
L 161.400538 35.821279 
L 163.031961 28.965718 
L 164.663393 23.882882 
L 166.294826 20.65381 
L 167.926253 19.329915 
L 169.557686 19.932285 
L 171.189118 22.451323 
L 172.820541 26.846901 
L 174.451973 33.049012 
L 176.083401 40.958837 
L 177.714833 50.450423 
L 179.346266 61.372545 
L 180.977688 73.55115 
L 184.240549 100.885242 
L 189.134841 145.982564 
L 192.397706 175.996487 
L 195.660566 203.742138 
L 197.291989 216.205299 
L 198.923421 227.458703 
L 200.554853 237.323034 
L 202.186276 245.641106 
L 203.817713 252.280555 
L 205.449136 257.13546 
L 207.080569 260.128592 
L 208.712001 261.212229 
L 210.343429 260.369125 
L 211.974861 257.612704 
L 213.606294 252.986861 
L 215.237716 246.565335 
L 216.869154 238.450312 
L 218.500576 228.771207 
L 220.132009 217.682056 
L 221.763441 205.359558 
L 225.026301 177.816257 
L 229.920589 132.622753 
L 233.183449 102.695743 
L 236.446304 75.152478 
L 238.077741 62.829944 
L 239.709164 51.740858 
L 241.340596 42.061688 
L 242.972029 33.946687 
L 244.603456 27.525139 
L 246.234889 22.899296 
L 247.866321 20.142875 
L 249.497744 19.299771 
L 251.129177 20.383408 
L 252.760604 23.376518 
L 254.392037 28.231445 
L 256.023469 34.870865 
L 257.654892 43.18893 
L 259.286329 53.053297 
L 260.917752 64.306636 
L 262.549184 76.769862 
L 265.812044 104.515513 
L 270.706332 149.793979 
L 273.969192 179.626675 
L 277.232057 206.9608 
L 278.863479 219.139412 
L 280.494917 230.061577 
L 282.126339 239.553091 
L 283.757772 247.462967 
L 285.389204 253.665099 
L 287.020632 258.060677 
L 288.652064 260.579715 
L 290.283497 261.182085 
L 291.91492 259.858197 
L 293.546357 256.629118 
L 295.17778 251.546325 
L 296.809212 244.690721 
L 298.440644 236.171575 
L 300.072072 226.124555 
L 301.703504 214.709674 
L 303.334927 202.108893 
L 306.597792 174.167781 
L 316.386362 85.086315 
L 318.0178 71.966643 
L 319.649237 59.934742 
L 321.280655 49.182461 
L 322.912092 39.880803 
L 324.543529 32.178027 
L 326.174947 26.196961 
L 327.806385 22.032702 
L 329.437802 19.75168 
L 331.06924 19.390196 
L 332.700677 20.954033 
L 334.332095 24.41823 
L 335.963532 29.727698 
L 337.59495 36.797707 
L 339.226387 45.515777 
L 340.857825 55.743078 
L 342.489243 67.316437 
L 344.12068 80.05185 
L 347.383535 108.181382 
L 357.17212 197.118245 
L 358.803538 210.112893 
L 360.434975 221.99496 
L 362.066412 232.574891 
L 363.69783 241.68425 
L 365.329268 249.177935 
L 366.960705 254.936615 
L 368.592123 258.868439 
L 370.22356 260.910904 
L 371.854978 261.031408 
L 373.486415 259.228034 
L 375.117852 255.529526 
L 376.74927 249.994846 
L 378.380708 242.712019 
L 380.012126 233.797258 
L 381.643563 223.392316 
L 383.275 211.663046 
L 384.906418 198.796505 
L 388.169293 170.485409 
L 391.432148 140.255958 
L 391.432148 140.255958 
" clip-path="url(#p19842361f3)" style="fill: none; stroke: #2ca02c; stroke-width: 0.2; stroke-linecap: round"/>
   </g>
   <g id="line2d_32">
    <path d="M 66.777602 140.256006 
L 70.040457 95.514711 
L 71.671895 75.152384 
L 73.303313 57.119742 
L 74.93475 42.061796 
L 76.566187 30.51714 
L 78.197605 22.89936 
L 79.829042 19.480606 
L 81.46048 20.383429 
L 83.091898 25.575435 
L 84.723335 34.870822 
L 86.354753 47.936979 
L 87.98619 64.306585 
L 89.617627 83.393787 
L 92.880482 126.916065 
L 96.143338 172.330542 
L 97.774775 193.719578 
L 99.406193 213.195318 
L 101.03763 230.061555 
L 102.669067 243.714308 
L 104.300485 253.66507 
L 105.931923 259.557996 
L 107.56334 261.182092 
L 109.194778 258.479291 
L 110.826215 251.546304 
L 112.457633 240.631342 
L 114.08907 226.124562 
L 115.720507 208.545228 
L 117.351925 188.522795 
L 120.614781 144.074629 
L 123.877655 99.084701 
L 125.509073 78.403273 
L 127.14051 59.934828 
L 128.771928 44.340548 
L 130.403365 32.178114 
L 132.034803 23.882875 
L 133.666221 19.751687 
L 135.297658 19.932277 
L 136.929095 24.418259 
L 138.560513 33.048997 
L 140.19195 45.51585 
L 141.823368 61.37248 
L 143.454806 80.051745 
L 146.717661 123.127385 
L 151.611953 190.267554 
L 153.243386 210.112987 
L 154.874813 227.458652 
L 156.506246 241.68425 
L 158.137678 252.280533 
L 159.769101 258.868439 
L 161.400538 261.212229 
L 163.031961 259.228055 
L 164.663393 252.986875 
L 166.294826 242.712055 
L 167.926253 228.771221 
L 169.557686 211.663146 
L 171.189118 192.000071 
L 174.451973 147.889331 
L 177.714833 102.695786 
L 179.346266 81.715528 
L 180.977688 62.830066 
L 182.609126 46.7148 
L 184.240549 33.946744 
L 185.871981 24.982467 
L 187.503413 20.142875 
L 189.134841 19.601103 
L 190.766273 23.376525 
L 192.397706 31.334072 
L 194.029129 43.188937 
L 195.660566 58.517098 
L 197.291989 76.769818 
L 198.923421 97.294293 
L 207.080569 206.960735 
L 208.712001 224.768944 
L 210.343429 239.553112 
L 211.974861 250.784324 
L 213.606294 258.060684 
L 215.237716 261.121804 
L 216.869154 259.85819 
L 218.500576 254.315067 
L 220.132009 244.690735 
L 221.763441 231.329568 
L 223.394864 214.709761 
L 225.026301 195.425746 
L 228.289156 151.696426 
L 231.552016 106.344276 
L 233.183449 85.086254 
L 234.814881 65.80229 
L 236.446304 49.182476 
L 238.077741 35.821265 
L 239.709164 26.196976 
L 241.340596 20.65381 
L 242.972029 19.390196 
L 244.603456 22.451316 
L 246.234889 29.727676 
L 247.866321 40.958888 
L 249.497744 55.742999 
L 251.129177 73.551222 
L 252.760604 93.746138 
L 256.023469 138.346508 
L 259.286329 183.217707 
L 260.917752 203.742059 
L 262.549184 221.994902 
L 264.180617 237.323027 
L 265.812044 249.177928 
L 267.443477 257.135475 
L 269.074909 260.910897 
L 270.706332 260.369125 
L 272.337769 255.529533 
L 273.969192 246.565335 
L 275.600624 233.7972 
L 277.232057 217.68202 
L 278.863479 198.796573 
L 282.126339 155.492225 
L 285.389204 110.026474 
L 287.020632 88.511929 
L 288.652064 68.848854 
L 290.283497 51.740779 
L 291.91492 37.799974 
L 293.546357 27.525125 
L 295.17778 21.283966 
L 296.809212 19.299771 
L 298.440644 21.64354 
L 300.072072 28.231467 
L 301.703504 38.82775 
L 303.334927 53.053268 
L 304.96636 70.399013 
L 306.597792 90.244338 
L 309.860652 134.529428 
L 313.123507 179.626585 
L 314.754944 200.460255 
L 316.386362 219.13934 
L 318.0178 234.99615 
L 319.649237 247.463003 
L 321.280655 256.093741 
L 322.912092 260.579723 
L 324.543529 260.760313 
L 326.174947 256.629125 
L 327.806385 248.333886 
L 329.437802 236.171589 
L 331.06924 220.577172 
L 332.700677 202.108727 
L 334.332095 181.427299 
L 342.489243 71.966772 
L 344.12068 54.387438 
L 345.752117 39.880658 
L 347.383535 28.965696 
L 349.014972 22.032709 
L 350.64639 19.329915 
L 352.277827 20.954004 
L 353.909265 26.84693 
L 355.540683 36.797692 
L 357.17212 50.450445 
L 358.803538 67.316408 
L 360.434975 86.792422 
L 363.69783 130.717941 
L 366.960705 175.996603 
L 368.592123 197.118213 
L 370.22356 216.205415 
L 371.854978 232.574869 
L 373.486415 245.641178 
L 375.117852 254.936565 
L 376.74927 260.128571 
L 378.380708 261.031394 
L 380.012126 257.612755 
L 381.643563 249.99486 
L 383.275 238.450204 
L 384.906418 223.392258 
L 386.537855 205.359616 
L 388.169293 184.997289 
L 391.432148 140.255994 
L 391.432148 140.255994 
" clip-path="url(#p19842361f3)" style="fill: none; stroke: #d62728; stroke-width: 0.2; stroke-linecap: round"/>
   </g>
   <g id="line2d_33">
    <path d="M 66.777602 140.256085 
L 70.040457 81.715632 
L 71.671895 57.119634 
L 73.303313 37.800068 
L 74.93475 24.982518 
L 76.566187 19.480599 
L 78.197605 21.643504 
L 79.829042 31.334043 
L 81.46048 47.937232 
L 83.091898 70.398977 
L 84.723335 97.294235 
L 89.617627 186.765887 
L 91.249045 213.195347 
L 92.880482 234.996194 
L 94.5119 250.784237 
L 96.143338 259.557982 
L 97.774775 260.760328 
L 99.406193 254.315147 
L 101.03763 240.631255 
L 102.669067 220.577121 
L 104.300485 195.425876 
L 107.56334 136.43765 
L 109.194778 106.344204 
L 110.826215 78.403143 
L 112.457633 54.387633 
L 114.08907 35.821301 
L 115.720507 23.882832 
L 117.351925 19.329915 
L 118.983363 22.451352 
L 120.614781 33.048961 
L 122.246218 50.450337 
L 123.877655 73.551258 
L 125.509073 100.885119 
L 130.403365 190.26759 
L 132.034803 216.205379 
L 133.666221 237.322926 
L 135.297658 252.280547 
L 136.929095 260.128614 
L 138.560513 260.369139 
L 140.19195 252.986839 
L 141.823368 238.450434 
L 143.454806 217.682114 
L 145.086243 191.999934 
L 148.349098 132.622791 
L 149.980521 102.695916 
L 151.611953 75.152514 
L 153.243386 51.740829 
L 154.874813 33.946759 
L 156.506246 22.89931 
L 158.137678 19.299771 
L 159.769101 23.376504 
L 161.400538 34.870858 
L 163.031961 53.053182 
L 164.663393 76.769847 
L 166.294826 104.515469 
L 171.189118 193.719545 
L 172.820541 219.139427 
L 174.451973 239.553105 
L 176.083401 253.665063 
L 177.714833 260.579708 
L 179.346266 259.858197 
L 180.977688 251.546369 
L 182.609126 236.171561 
L 184.240549 214.709797 
L 185.871981 188.522777 
L 192.397706 71.966585 
L 194.029129 49.18249 
L 195.660566 32.178049 
L 197.291989 22.032724 
L 198.923421 19.390196 
L 200.554853 24.41823 
L 202.186276 36.797656 
L 203.817713 55.743064 
L 205.449136 80.051738 
L 207.080569 108.181313 
L 211.974861 197.11818 
L 213.606294 221.994974 
L 215.237716 241.6842 
L 216.869154 254.936594 
L 218.500576 260.910889 
L 220.132009 259.228048 
L 221.763441 249.99481 
L 223.394864 233.797273 
L 225.026301 211.663118 
L 226.657724 184.997434 
L 233.183449 68.848882 
L 234.814881 46.714785 
L 236.446304 30.517233 
L 238.077741 21.283952 
L 239.709164 19.601096 
L 241.340596 25.575406 
L 242.972029 38.82775 
L 244.603456 58.517026 
L 246.234889 83.39382 
L 249.497744 142.165427 
L 252.760604 200.460111 
L 254.392037 224.768936 
L 256.023469 243.714286 
L 257.654892 256.093734 
L 259.286329 261.121804 
L 260.917752 258.479313 
L 262.549184 248.333951 
L 264.180617 231.329589 
L 265.812044 208.545415 
L 267.443477 181.427317 
L 272.337769 91.989223 
L 273.969192 65.80234 
L 275.600624 44.340439 
L 277.232057 28.965682 
L 278.863479 20.653825 
L 280.494917 19.932292 
L 282.126339 26.846858 
L 283.757772 40.95883 
L 285.389204 61.372573 
L 287.020632 86.792455 
L 290.283497 145.982693 
L 291.91492 175.996419 
L 293.546357 203.742153 
L 295.17778 227.458652 
L 296.809212 245.641142 
L 298.440644 257.135468 
L 300.072072 261.212229 
L 301.703504 257.61269 
L 303.334927 246.565349 
L 304.96636 228.771171 
L 306.597792 205.359587 
L 308.22922 177.816304 
L 313.123507 88.512066 
L 314.754944 62.829886 
L 316.386362 42.061768 
L 318.0178 27.525161 
L 319.649237 20.142861 
L 321.280655 20.383386 
L 322.912092 28.231453 
L 324.543529 43.189074 
L 326.174947 64.306621 
L 327.806385 90.24441 
L 331.06924 149.793992 
L 332.700677 179.626881 
L 334.332095 206.960742 
L 335.963532 230.061663 
L 337.59495 247.462931 
L 339.226387 258.060648 
L 340.857825 261.182085 
L 342.489243 256.629168 
L 344.12068 244.690699 
L 345.752117 226.124367 
L 347.383535 202.108857 
L 349.014972 174.167796 
L 353.909265 85.086124 
L 355.540683 59.934879 
L 357.17212 39.880745 
L 358.803538 26.197005 
L 360.434975 19.751672 
L 362.066412 20.954018 
L 363.69783 29.727669 
L 365.329268 45.515806 
L 366.960705 67.316653 
L 368.592123 93.746113 
L 375.117852 210.113023 
L 376.74927 232.574768 
L 378.380708 249.177957 
L 380.012126 258.868403 
L 381.643563 261.031401 
L 383.275 255.529482 
L 384.906418 242.712055 
L 386.537855 223.392366 
L 388.169293 198.796368 
L 391.432148 140.255915 
L 391.432148 140.255915 
" clip-path="url(#p19842361f3)" style="fill: none; stroke: #9467bd; stroke-width: 0.2; stroke-linecap: round"/>
   </g>
   <g id="line2d_34">
    <path d="M 66.777602 140.256163 
L 68.40904 102.695592 
L 70.040457 68.849048 
L 71.671895 42.061616 
L 73.303313 24.982546 
L 74.93475 19.299764 
L 76.566187 25.575385 
L 78.197605 43.188814 
L 79.829042 70.3991 
L 81.46048 104.515686 
L 84.723335 179.626574 
L 86.354753 213.195469 
L 87.98619 239.553033 
L 89.617627 256.093806 
L 91.249045 261.182092 
L 92.880482 254.315024 
L 94.5119 236.171741 
L 96.143338 208.545357 
L 97.774775 174.167882 
L 101.03763 99.084848 
L 102.669067 65.802196 
L 104.300485 39.880925 
L 105.931923 23.882853 
L 107.56334 19.390181 
L 109.194778 26.846923 
L 110.826215 45.515749 
L 112.457633 73.551006 
L 114.08907 108.181447 
L 117.351925 183.217466 
L 118.983363 216.205407 
L 120.614781 241.684229 
L 122.246218 257.135424 
L 123.877655 261.031394 
L 125.509073 252.986954 
L 127.14051 233.797143 
L 128.771928 205.359818 
L 130.403365 170.485456 
L 133.666221 95.514927 
L 135.297658 62.829922 
L 136.929095 37.799902 
L 138.560513 22.89936 
L 140.19195 19.601111 
L 141.823368 28.231344 
L 143.454806 47.936979 
L 145.086243 76.769977 
L 146.717661 111.879064 
L 149.980521 186.765639 
L 151.611953 219.139369 
L 153.243386 243.71425 
L 154.874813 258.060641 
L 156.506246 260.760335 
L 158.137678 251.54626 
L 159.769101 231.329668 
L 161.400538 202.108799 
L 163.031961 166.773233 
L 166.294826 91.989389 
L 167.926253 59.934828 
L 169.557686 35.821265 
L 171.189118 22.032702 
L 172.820541 19.932277 
L 174.451973 29.727647 
L 176.083401 50.450387 
L 177.714833 80.051745 
L 179.346266 115.605305 
L 182.609126 190.267662 
L 184.240549 221.994787 
L 185.871981 245.641142 
L 187.503413 258.868439 
L 189.134841 260.369139 
L 190.766273 249.994803 
L 192.397706 228.771142 
L 194.029129 198.796609 
L 197.291989 125.020004 
L 198.923421 88.512019 
L 200.554853 57.119713 
L 202.186276 33.946773 
L 203.817713 21.283959 
L 205.449136 20.383393 
L 207.080569 31.334022 
L 208.712001 53.053283 
L 210.343429 83.393726 
L 215.237716 193.719459 
L 216.869154 224.76898 
L 218.500576 247.462931 
L 220.132009 259.557975 
L 221.763441 259.85819 
L 223.394864 248.334002 
L 225.026301 226.124533 
L 226.657724 195.425883 
L 231.552016 85.086315 
L 233.183449 54.387467 
L 234.814881 32.178049 
L 236.446304 20.653825 
L 238.077741 20.954025 
L 239.709164 33.048961 
L 241.340596 55.74302 
L 242.972029 86.792462 
L 247.866321 197.118274 
L 249.497744 227.458659 
L 251.129177 249.177928 
L 252.760604 260.128585 
L 254.392037 259.228041 
L 256.023469 246.565284 
L 257.654892 223.39241 
L 259.286329 191.999981 
L 264.180617 81.715542 
L 265.812044 51.740858 
L 267.443477 30.517197 
L 269.074909 20.142861 
L 270.706332 21.64354 
L 272.337769 34.870858 
L 273.969192 58.51704 
L 275.600624 90.244338 
L 280.494917 200.460255 
L 282.126339 230.061461 
L 283.757772 250.784302 
L 285.389204 260.579723 
L 287.020632 258.479298 
L 288.652064 244.690735 
L 290.283497 220.577172 
L 291.91492 188.522824 
L 296.809212 78.403201 
L 298.440644 49.182411 
L 300.072072 28.96574 
L 301.703504 19.751665 
L 303.334927 22.451287 
L 304.96636 36.79775 
L 306.597792 61.372545 
L 308.22922 93.746149 
L 313.123507 203.742023 
L 314.754944 232.575021 
L 316.386362 252.280483 
L 318.0178 260.910889 
L 319.649237 257.61264 
L 321.280655 242.712098 
L 322.912092 217.682078 
L 324.543529 184.997073 
L 329.437802 75.152571 
L 331.06924 46.714857 
L 332.700677 27.525046 
L 334.332095 19.480606 
L 335.963532 23.376576 
L 337.59495 38.827649 
L 339.226387 64.306593 
L 340.857825 97.294534 
L 345.752117 206.960994 
L 347.383535 234.996251 
L 349.014972 253.665077 
L 350.64639 261.121797 
L 352.277827 256.629147 
L 353.909265 240.631075 
L 355.540683 214.709804 
L 357.17212 181.427152 
L 360.434975 106.344118 
L 362.066412 71.966643 
L 363.69783 44.340403 
L 365.329268 26.196976 
L 366.960705 19.329908 
L 368.592123 24.418194 
L 370.22356 40.958967 
L 371.854978 67.316343 
L 373.486415 100.885426 
L 376.74927 175.996314 
L 378.380708 210.1129 
L 380.012126 237.322904 
L 381.643563 254.936615 
L 383.275 261.212236 
L 384.906418 255.529598 
L 386.537855 238.450384 
L 388.169293 211.662952 
L 389.80071 177.816408 
L 391.432148 140.255837 
L 391.432148 140.255837 
" clip-path="url(#p19842361f3)" style="fill: none; stroke: #8c564b; stroke-width: 0.2; stroke-linecap: round"/>
   </g>
   <g id="line2d_35">
    <path d="M 66.777602 140.256012 
L 68.40904 95.514502 
L 70.040457 57.119749 
L 71.671895 30.51714 
L 73.303313 19.480606 
L 74.93475 25.575284 
L 76.566187 47.937275 
L 78.197605 83.393376 
L 83.091898 213.195592 
L 84.723335 243.714185 
L 86.354753 259.557917 
L 87.98619 258.479341 
L 89.617627 240.631212 
L 91.249045 208.545617 
L 92.880482 166.773127 
L 96.143338 78.40328 
L 97.774775 44.340411 
L 99.406193 23.883005 
L 101.03763 19.932277 
L 102.669067 33.049105 
L 104.300485 61.37248 
L 105.931923 100.885408 
L 109.194778 190.267655 
L 110.826215 227.458724 
L 112.457633 252.28036 
L 114.08907 261.212229 
L 115.720507 252.986731 
L 117.351925 228.771257 
L 118.983363 191.999764 
L 122.246218 102.695956 
L 123.877655 62.829987 
L 125.509073 33.946831 
L 127.14051 20.142889 
L 128.771928 23.376431 
L 130.403365 43.188865 
L 132.034803 76.769912 
L 133.666221 119.355772 
L 135.297658 164.906649 
L 136.929095 206.960922 
L 138.560513 239.553076 
L 140.19195 258.060698 
L 141.823368 259.858219 
L 143.454806 244.690822 
L 145.086243 214.709516 
L 146.717661 174.168026 
L 149.980521 85.086542 
L 151.611953 49.182519 
L 153.243386 26.196933 
L 154.874813 19.390189 
L 156.506246 29.727662 
L 158.137678 55.743013 
L 159.769101 93.746102 
L 163.031961 183.217538 
L 164.663393 221.994902 
L 166.294826 249.177899 
L 167.926253 260.910889 
L 169.557686 255.529554 
L 171.189118 233.797237 
L 172.820541 198.796581 
L 177.714833 68.848954 
L 179.346266 37.799981 
L 180.977688 21.28401 
L 182.609126 21.643561 
L 184.240549 38.82762 
L 185.871981 70.399013 
L 187.503413 111.879252 
L 190.766273 200.46015 
L 192.397706 234.996223 
L 194.029129 256.093741 
L 195.660566 260.760313 
L 197.291989 248.333994 
L 198.923421 220.577258 
L 200.554853 181.427303 
L 203.817713 91.989212 
L 205.449136 54.387568 
L 207.080569 28.96574 
L 208.712001 19.329915 
L 210.343429 26.846887 
L 211.974861 50.450402 
L 213.606294 86.792495 
L 218.500576 216.205227 
L 220.132009 245.641121 
L 221.763441 260.1286 
L 223.394864 257.61274 
L 225.026301 238.450312 
L 226.657724 205.359717 
L 228.289156 163.034284 
L 229.920589 117.477851 
L 231.552016 75.152514 
L 233.183449 42.061688 
L 234.814881 22.899288 
L 236.446304 20.383386 
L 238.077741 34.870879 
L 239.709164 64.306571 
L 241.340596 104.515484 
L 244.603456 193.719505 
L 246.234889 230.061598 
L 247.866321 253.665113 
L 249.497744 261.182092 
L 251.129177 251.546304 
L 252.760604 226.124598 
L 254.392037 188.522788 
L 257.654892 99.084805 
L 259.286329 59.934742 
L 260.917752 32.178135 
L 262.549184 19.751687 
L 264.180617 24.41823 
L 265.812044 45.515777 
L 267.443477 80.05185 
L 272.337769 210.112987 
L 273.969192 241.684193 
L 275.600624 258.868439 
L 277.232057 259.228034 
L 278.863479 242.712141 
L 280.494917 211.663046 
L 282.126339 170.485744 
L 285.389204 81.715419 
L 287.020632 46.714763 
L 288.652064 24.982446 
L 290.283497 19.601111 
L 291.91492 31.334051 
L 293.546357 58.517098 
L 295.17778 97.294246 
L 298.440644 186.765682 
L 300.072072 224.768987 
L 301.703504 250.784338 
L 303.334927 261.121804 
L 304.96636 254.315067 
L 306.597792 231.329632 
L 308.22922 195.425865 
L 313.123507 65.802484 
L 314.754944 35.821178 
L 316.386362 20.653846 
L 318.0178 22.451302 
L 319.649237 40.958924 
L 321.280655 73.551078 
L 322.912092 115.605351 
L 326.174947 203.742088 
L 327.806385 237.323135 
L 329.437802 257.135446 
L 331.06924 260.369111 
L 332.700677 246.565169 
L 334.332095 217.682013 
L 335.963532 177.816044 
L 339.226387 88.512236 
L 340.857825 51.740743 
L 342.489243 27.525269 
L 344.12068 19.299771 
L 345.752117 28.23164 
L 347.383535 53.053276 
L 349.014972 90.244345 
L 352.277827 179.626592 
L 353.909265 219.13952 
L 355.540683 247.462895 
L 357.17212 260.579723 
L 358.803538 256.629183 
L 360.434975 236.171589 
L 362.066412 202.10872 
L 366.960705 71.966383 
L 368.592123 39.880788 
L 370.22356 22.032659 
L 371.854978 20.954011 
L 373.486415 36.797815 
L 375.117852 67.316408 
L 376.74927 108.181018 
L 380.012126 197.117809 
L 381.643563 232.574725 
L 383.275 254.936716 
L 384.906418 261.031394 
L 386.537855 249.99486 
L 388.169293 223.392251 
L 389.80071 184.997498 
L 391.432148 140.255988 
L 391.432148 140.255988 
" clip-path="url(#p19842361f3)" style="fill: none; stroke: #e377c2; stroke-width: 0.2; stroke-linecap: round"/>
   </g>
   <g id="line2d_36">
    <path d="M 66.777602 140.256321 
L 68.40904 88.511558 
L 70.040457 46.714915 
L 71.671895 22.899267 
L 73.303313 21.64346 
L 74.93475 43.188858 
L 76.566187 83.393917 
L 79.829042 186.765668 
L 81.46048 230.061656 
L 83.091898 256.093756 
L 84.723335 259.858219 
L 86.354753 240.631385 
L 87.98619 202.109268 
L 91.249045 99.084996 
L 92.880482 54.387481 
L 94.5119 26.197012 
L 96.143338 19.932292 
L 97.774775 36.797721 
L 99.406193 73.550681 
L 104.300485 221.994809 
L 105.931923 252.280591 
L 107.56334 261.03143 
L 109.194778 246.565176 
L 110.826215 211.663031 
L 112.457633 163.034664 
L 114.08907 110.026708 
L 115.720507 62.829691 
L 117.351925 30.517204 
L 118.983363 19.299771 
L 120.614781 31.333906 
L 122.246218 64.306463 
L 123.877655 111.879246 
L 125.509073 164.906346 
L 127.14051 213.195469 
L 128.771928 247.462779 
L 130.403365 261.121804 
L 132.034803 251.546232 
L 133.666221 220.577525 
L 135.297658 174.167659 
L 136.929095 121.239202 
L 138.560513 71.96678 
L 140.19195 35.821229 
L 141.823368 19.751701 
L 143.454806 26.846844 
L 145.086243 55.743121 
L 146.717661 100.885047 
L 149.980521 203.741821 
L 151.611953 241.684229 
L 153.243386 260.1286 
L 154.874813 255.529648 
L 156.506246 228.771207 
L 158.137678 184.9973 
L 161.400538 81.715564 
L 163.031961 42.061796 
L 164.663393 21.283981 
L 166.294826 23.376511 
L 167.926253 47.936979 
L 169.557686 90.244471 
L 172.820541 193.719473 
L 174.451973 234.9961 
L 176.083401 258.060641 
L 177.714833 258.479313 
L 179.346266 236.171575 
L 180.977688 195.426013 
L 184.240549 91.989493 
L 185.871981 49.182469 
L 187.503413 23.882875 
L 189.134841 20.953997 
L 190.766273 40.958895 
L 192.397706 80.051846 
L 195.660566 183.217721 
L 197.291989 227.458652 
L 198.923421 254.936536 
L 200.554853 260.369125 
L 202.186276 242.712177 
L 203.817713 205.359537 
L 208.712001 57.119713 
L 210.343429 27.525183 
L 211.974861 19.601103 
L 213.606294 34.870894 
L 215.237716 70.398891 
L 216.869154 119.356062 
L 218.500576 172.330474 
L 220.132009 219.139398 
L 221.763441 250.784345 
L 223.394864 261.182092 
L 225.026301 248.333915 
L 226.657724 214.709854 
L 228.289156 166.773161 
L 229.920589 113.738992 
L 231.552016 65.802398 
L 233.183449 32.178085 
L 234.814881 19.329915 
L 236.446304 29.727597 
L 238.077741 61.372602 
L 239.709164 108.181249 
L 241.340596 161.155938 
L 242.972029 210.112972 
L 244.603456 245.641106 
L 246.234889 260.910897 
L 247.866321 252.986817 
L 249.497744 223.39241 
L 251.129177 177.816268 
L 254.392037 75.152463 
L 256.023469 37.799945 
L 257.654892 20.142897 
L 259.286329 25.575464 
L 260.917752 53.053189 
L 262.549184 97.294279 
L 265.812044 200.460154 
L 267.443477 239.553105 
L 269.074909 259.558003 
L 270.706332 256.629154 
L 272.337769 231.329531 
L 273.969192 188.522824 
L 277.232057 85.086192 
L 278.863479 44.340569 
L 280.494917 22.032687 
L 282.126339 22.451258 
L 283.757772 45.515756 
L 285.389204 86.792527 
L 288.652064 190.267529 
L 290.283497 232.575021 
L 291.91492 257.135432 
L 293.546357 259.228019 
L 295.17778 238.45047 
L 296.809212 198.796436 
L 300.072072 95.5147 
L 301.703504 51.740793 
L 303.334927 24.982496 
L 304.96636 20.3834 
L 306.597792 38.827771 
L 308.22922 76.769789 
L 313.123507 224.768879 
L 314.754944 253.665156 
L 316.386362 260.760342 
L 318.0178 244.690771 
L 319.649237 208.54522 
L 321.280655 159.272798 
L 322.912092 106.344341 
L 324.543529 59.934475 
L 326.174947 28.965768 
L 327.806385 19.390196 
L 329.437802 33.048896 
L 331.06924 67.316531 
L 332.700677 115.605654 
L 334.332095 168.632754 
L 335.963532 216.205537 
L 337.59495 249.177892 
L 339.226387 261.212229 
L 340.857825 249.994796 
L 342.489243 217.682309 
L 344.12068 170.485292 
L 345.752117 117.477336 
L 347.383535 68.848969 
L 349.014972 33.946824 
L 350.64639 19.480599 
L 352.277827 28.231409 
L 353.909265 58.517191 
L 355.540683 104.515556 
L 358.803538 206.960554 
L 360.434975 243.714279 
L 362.066412 260.579708 
L 363.69783 254.314988 
L 365.329268 226.124519 
L 366.960705 181.427004 
L 370.22356 78.402732 
L 371.854978 39.880875 
L 373.486415 20.653781 
L 375.117852 24.418244 
L 376.74927 50.450344 
L 378.380708 93.746332 
L 381.643563 197.118083 
L 383.275 237.323142 
L 384.906418 258.868453 
L 386.537855 257.612733 
L 388.169293 233.797085 
L 389.80071 192.000442 
L 391.432148 140.255679 
L 391.432148 140.255679 
" clip-path="url(#p19842361f3)" style="fill: none; stroke: #7f7f7f; stroke-width: 0.2; stroke-linecap: round"/>
   </g>
   <g id="line2d_37">
    <path d="M 66.777602 140.256169 
L 68.40904 81.715304 
L 70.040457 37.800111 
L 71.671895 19.480592 
L 73.303313 31.333906 
L 74.93475 70.398718 
L 78.197605 186.765383 
L 79.829042 234.996143 
L 81.46048 259.558039 
L 83.091898 254.315103 
L 84.723335 220.577359 
L 86.354753 166.77328 
L 87.98619 106.344507 
L 89.617627 54.387373 
L 91.249045 23.882983 
L 92.880482 22.45133 
L 94.5119 50.450121 
L 96.143338 100.88526 
L 97.774775 161.155906 
L 99.406193 216.20486 
L 101.03763 252.280475 
L 102.669067 260.369096 
L 104.300485 238.450485 
L 105.931923 191.999909 
L 109.194778 75.152391 
L 110.826215 33.946687 
L 112.457633 19.299764 
L 114.08907 34.870814 
L 115.720507 76.770164 
L 118.983363 193.719779 
L 120.614781 239.55299 
L 122.246218 260.579687 
L 123.877655 251.54626 
L 125.509073 214.709999 
L 127.14051 159.272588 
L 128.771928 99.08514 
L 130.403365 49.182469 
L 132.034803 22.03268 
L 133.666221 24.418122 
L 135.297658 55.743064 
L 136.929095 108.181591 
L 138.560513 168.632512 
L 140.19195 221.995039 
L 141.823368 254.936464 
L 143.454806 259.228077 
L 145.086243 233.797049 
L 146.717661 184.997589 
L 149.980521 68.849171 
L 151.611953 30.517269 
L 153.243386 19.601103 
L 154.874813 38.827598 
L 156.506246 83.393719 
L 159.769101 200.460013 
L 161.400538 243.714264 
L 163.031961 261.121797 
L 164.663393 248.333966 
L 166.294826 208.545487 
L 169.557686 91.989248 
L 171.189118 44.340454 
L 172.820541 20.653817 
L 174.451973 26.846872 
L 176.083401 61.372422 
L 177.714833 115.605227 
L 179.346266 175.996448 
L 180.977688 227.458515 
L 182.609126 257.135475 
L 184.240549 257.612762 
L 185.871981 228.771228 
L 187.503413 177.816275 
L 189.134841 117.477992 
L 190.766273 62.829951 
L 192.397706 27.525103 
L 194.029129 20.383379 
L 195.660566 43.189023 
L 197.291989 90.24423 
L 200.554853 206.960764 
L 202.186276 247.462837 
L 203.817713 261.182085 
L 205.449136 244.690829 
L 207.080569 202.108972 
L 210.343429 85.086355 
L 211.974861 39.880824 
L 213.606294 19.751672 
L 215.237716 29.72759 
L 216.869154 67.316559 
L 218.500576 123.127349 
L 220.132009 183.217606 
L 221.763441 232.574905 
L 223.394864 258.868395 
L 225.026301 255.529533 
L 226.657724 223.392482 
L 228.289156 170.485607 
L 229.920589 110.026568 
L 231.552016 57.119778 
L 233.183449 24.982467 
L 234.814881 21.643569 
L 236.446304 47.936987 
L 238.077741 97.294394 
L 239.709164 157.384309 
L 241.340596 213.195441 
L 242.972029 250.784345 
L 244.603456 260.760328 
L 246.234889 240.631176 
L 247.866321 195.425645 
L 251.129177 78.403172 
L 252.760604 35.821344 
L 254.392037 19.329915 
L 256.023469 33.049055 
L 257.654892 73.551042 
L 260.917752 190.267457 
L 262.549184 237.322977 
L 264.180617 260.128592 
L 265.812044 252.986897 
L 267.443477 217.682049 
L 269.074909 163.034008 
L 270.706332 102.695833 
L 272.337769 51.740772 
L 273.969192 22.899317 
L 275.600624 23.376525 
L 277.232057 53.053326 
L 278.863479 104.515332 
L 280.494917 164.906773 
L 282.126339 219.139225 
L 283.757772 253.665048 
L 285.389204 259.858183 
L 287.020632 236.171546 
L 288.652064 188.522752 
L 291.91492 71.966708 
L 293.546357 32.178034 
L 295.17778 19.390189 
L 296.809212 36.797736 
L 298.440644 80.051785 
L 301.703504 197.118281 
L 303.334927 241.684149 
L 304.96636 260.910897 
L 306.597792 249.994832 
L 308.22922 211.663197 
L 313.123507 46.714951 
L 314.754944 21.283923 
L 316.386362 25.575313 
L 318.0178 58.516961 
L 319.649237 111.879488 
L 321.280655 172.330409 
L 322.912092 224.768936 
L 324.543529 256.093878 
L 326.174947 258.47932 
L 327.806385 231.329531 
L 329.437802 181.427512 
L 331.06924 121.239412 
L 332.700677 65.802001 
L 334.332095 28.96574 
L 335.963532 19.932313 
L 337.59495 40.958751 
L 339.226387 86.792221 
L 342.489243 203.741836 
L 344.12068 245.641186 
L 345.752117 261.212236 
L 347.383535 246.565313 
L 349.014972 205.359609 
L 352.277827 88.512091 
L 353.909265 42.061515 
L 355.540683 20.142904 
L 357.17212 28.231525 
L 358.803538 64.30642 
L 360.434975 119.356094 
L 362.066412 179.62674 
L 363.69783 230.061569 
L 365.329268 258.06067 
L 366.960705 256.629017 
L 368.592123 226.124627 
L 370.22356 174.167493 
L 371.854978 113.739171 
L 373.486415 59.934641 
L 375.117852 26.196897 
L 376.74927 20.953961 
L 378.380708 45.515857 
L 380.012126 93.745766 
L 383.275 210.113282 
L 384.906418 249.177892 
L 386.537855 261.031408 
L 388.169293 242.711889 
L 389.80071 198.796696 
L 391.432148 140.255831 
L 391.432148 140.255831 
" clip-path="url(#p19842361f3)" style="fill: none; stroke: #bcbd22; stroke-width: 0.2; stroke-linecap: round"/>
   </g>
   <g id="line2d_38">
    <path d="M 66.777602 140.256017 
L 68.40904 75.152398 
L 70.040457 30.517334 
L 71.671895 20.383429 
L 73.303313 47.936972 
L 74.93475 104.514943 
L 76.566187 172.330532 
L 78.197605 230.061238 
L 79.829042 259.557989 
L 81.46048 251.54608 
L 83.091898 208.545624 
L 86.354753 78.403287 
L 87.98619 32.178114 
L 89.617627 19.932277 
L 91.249045 45.515554 
L 92.880482 100.885404 
L 94.5119 168.632058 
L 96.143338 227.458566 
L 97.774775 258.868417 
L 99.406193 252.98707 
L 101.03763 211.663154 
L 104.300485 81.715841 
L 105.931923 33.946615 
L 107.56334 19.601082 
L 109.194778 43.188858 
L 110.826215 97.294228 
L 112.457633 164.906191 
L 114.08907 224.768972 
L 115.720507 258.060799 
L 117.351925 254.315154 
L 118.983363 214.709516 
L 122.246218 85.086755 
L 123.877655 35.821308 
L 125.509073 19.390174 
L 127.14051 40.958909 
L 128.771928 93.745885 
L 130.403365 161.155756 
L 132.034803 221.995147 
L 133.666221 257.135323 
L 135.297658 255.529554 
L 136.929095 217.682028 
L 138.560513 155.492467 
L 140.19195 88.511835 
L 141.823368 37.800234 
L 143.454806 19.299764 
L 145.086243 38.82793 
L 146.717661 90.244118 
L 148.349098 157.384491 
L 149.980521 219.13916 
L 151.611953 256.093669 
L 153.243386 256.629125 
L 154.874813 220.577352 
L 156.506246 159.272737 
L 158.137678 91.989108 
L 159.769101 39.880925 
L 161.400538 19.329908 
L 163.031961 36.797563 
L 164.663393 86.792412 
L 167.926253 216.205227 
L 169.557686 254.936565 
L 171.189118 257.612697 
L 172.820541 223.392431 
L 174.451973 163.034282 
L 176.083401 95.514927 
L 177.714833 42.061796 
L 179.346266 19.480606 
L 180.977688 34.870706 
L 182.609126 83.393787 
L 185.871981 213.195412 
L 187.503413 253.66507 
L 189.134841 258.479341 
L 190.766273 226.124562 
L 192.397706 166.772896 
L 194.029129 99.084917 
L 195.660566 44.340338 
L 197.291989 19.751694 
L 198.923421 33.048997 
L 200.554853 80.051846 
L 203.817713 210.112987 
L 205.449136 252.280446 
L 207.080569 259.22807 
L 208.712001 228.771178 
L 210.343429 170.485582 
L 211.974861 102.695786 
L 213.606294 46.714763 
L 215.237716 20.142904 
L 216.869154 31.334094 
L 218.500576 76.769717 
L 221.763441 206.960807 
L 223.394864 250.784216 
L 225.026301 259.85819 
L 226.657724 231.329748 
L 228.289156 174.167922 
L 229.920589 106.344276 
L 231.552016 49.182519 
L 233.183449 20.65381 
L 234.814881 29.727698 
L 236.446304 73.551027 
L 239.709164 203.741937 
L 241.340596 249.177906 
L 242.972029 260.369118 
L 244.603456 233.797237 
L 246.234889 177.816214 
L 247.866321 110.026418 
L 249.497744 51.740938 
L 251.129177 21.283966 
L 252.760604 28.231424 
L 254.392037 70.399013 
L 257.654892 200.459956 
L 259.286329 247.463003 
L 260.917752 260.760342 
L 262.549184 236.171662 
L 264.180617 181.427299 
L 265.812044 113.739104 
L 267.443477 54.387438 
L 269.074909 22.032659 
L 270.706332 26.846887 
L 272.337769 67.316588 
L 275.600624 197.118213 
L 277.232057 245.641178 
L 278.863479 261.031422 
L 280.494917 238.450204 
L 282.126339 184.997718 
L 283.757772 117.477945 
L 285.389204 57.119569 
L 287.020632 22.899303 
L 288.652064 25.575435 
L 290.283497 64.306773 
L 293.546357 193.719588 
L 295.17778 243.714192 
L 296.809212 261.182092 
L 298.440644 240.631205 
L 300.072072 188.522892 
L 301.703504 121.239263 
L 303.334927 59.934994 
L 304.96636 23.882875 
L 306.597792 24.418194 
L 308.22922 61.372494 
L 309.860652 123.127509 
L 311.492089 190.267882 
L 313.123507 241.68407 
L 314.754944 261.212236 
L 316.386362 242.712257 
L 318.0178 192.000165 
L 319.649237 125.019533 
L 321.280655 62.829972 
L 322.912092 24.982446 
L 324.543529 23.376677 
L 326.174947 58.516853 
L 327.806385 119.356244 
L 329.437802 186.765689 
L 331.06924 239.553091 
L 332.700677 261.121826 
L 334.332095 244.690692 
L 335.963532 195.425245 
L 339.226387 65.802484 
L 340.857825 26.196846 
L 342.489243 22.451201 
L 344.12068 55.743028 
L 345.752117 115.605809 
L 347.383535 183.217772 
L 349.014972 237.323142 
L 350.64639 260.910882 
L 352.277827 246.565385 
L 353.909265 198.796159 
L 357.17212 68.848846 
L 358.803538 27.525269 
L 360.434975 21.643583 
L 362.066412 53.053434 
L 363.69783 111.879044 
L 365.329268 179.626596 
L 366.960705 234.996446 
L 368.592123 260.579723 
L 370.22356 248.333886 
L 371.854978 202.109109 
L 375.117852 71.966376 
L 376.74927 28.96592 
L 378.380708 20.954011 
L 380.012126 50.450142 
L 381.643563 108.181468 
L 383.275 175.997057 
L 384.906418 232.574725 
L 386.537855 260.128571 
L 388.169293 249.994666 
L 389.80071 205.359602 
L 391.432148 140.255983 
L 391.432148 140.255983 
" clip-path="url(#p19842361f3)" style="fill: none; stroke: #17becf; stroke-width: 0.2; stroke-linecap: round"/>
   </g>
   <g id="patch_3">
    <path d="M 50.544875 273.312 
L 50.544875 7.2 
" style="fill: none; stroke: #262626; stroke-linejoin: miter; stroke-linecap: square"/>
   </g>
   <g id="patch_4">
    <path d="M 50.544875 273.312 
L 407.664875 273.312 
" style="fill: none; stroke: #262626; stroke-linejoin: miter; stroke-linecap: square"/>
   </g>
  </g>
 </g>
 <defs>
  <clipPath id="p19842361f3">
   <rect x="50.544875" y="7.2" width="357.12" height="266.112"/>
  </clipPath>
 </defs>
</svg>