<?xml version="1.0" encoding="utf-8" standalone="no"?>
<!DOCTYPE svg PUBLIC "-//W3C//DTD SVG 1.1//EN"
  "http://www.w3.org/Graphics/SVG/1.1/DTD/svg11.dtd">
<svg xmlns:xlink="http://www.w3.org/1999/xlink" width="409.97125pt" height="309.639375pt" viewBox="0 0 409.97125 309.639375" xmlns="http://www.w3.org/2000/svg" version="1.1">
 <metadata>
  <rdf:RDF xmlns:dc="http://purl.org/dc/elements/1.1/" xmlns:cc="http://creativecommons.org/ns#" xmlns:rdf="http://www.w3.org/1999/02/22-rdf-syntax-ns#">
   <cc:Work>
    <dc:type rdf:resource="http://purl.org/dc/dcmitype/StillImage"/>
    <dc:date>2024-03-22T10:56:23.762632</dc:date>
    <dc:format>image/svg+xml</dc:format>
    <dc:creator>
     <cc:Agent>
      <dc:title>Matplotlib v3.8.0, https://matplotlib.org/</dc:title>
     </cc:Agent>
    </dc:creator>
   </cc:Work>
  </rdf:RDF>
 </metadata>
 <defs>
  <style type="text/css">*{stroke-linejoin: round; stroke-linecap: butt}</style>
 </defs>
 <g id="figure_1">
  <g id="patch_1">
   <path d="M 0 309.639375 
L 409.97125 309.639375 
L 409.97125 0 
L 0 0 
z
" style="fill: #ffffff"/>
  </g>
  <g id="axes_1">
   <g id="patch_2">
    <path d="M 45.65125 273.312 
L 207.978523 273.312 
L 207.978523 7.2 
L 45.65125 7.2 
z
" style="fill: #ffffff"/>
   </g>
   <g id="matplotlib.axis_1">
    <g id="xtick_1">
     <g id="line2d_1">
      <defs>
       <path id="mb294d9886c" d="M 0 0 
L 0 4.8 
" style="stroke: #262626"/>
      </defs>
      <g>
       <use xlink:href="#mb294d9886c" x="53.029762" y="273.312" style="fill: #262626; stroke: #262626"/>
      </g>
     </g>
     <g id="text_1">
      <!-- 0 -->
      <g style="fill: #262626" transform="translate(50.58295 287.910875) scale(0.088 -0.088)">
       <defs>
        <path id="ArialMT-30" d="M 266 2259 
Q 266 3072 433 3567 
Q 600 4063 929 4331 
Q 1259 4600 1759 4600 
Q 2128 4600 2406 4451 
Q 2684 4303 2865 4023 
Q 3047 3744 3150 3342 
Q 3253 2941 3253 2259 
Q 3253 1453 3087 958 
Q 2922 463 2592 192 
Q 2263 -78 1759 -78 
Q 1097 -78 719 397 
Q 266 969 266 2259 
z
M 844 2259 
Q 844 1131 1108 757 
Q 1372 384 1759 384 
Q 2147 384 2411 759 
Q 2675 1134 2675 2259 
Q 2675 3391 2411 3762 
Q 2147 4134 1753 4134 
Q 1366 4134 1134 3806 
Q 844 3388 844 2259 
z
" transform="scale(0.015625)"/>
       </defs>
       <use xlink:href="#ArialMT-30"/>
      </g>
     </g>
    </g>
    <g id="xtick_2">
     <g id="line2d_2">
      <g>
       <use xlink:href="#mb294d9886c" x="82.543812" y="273.312" style="fill: #262626; stroke: #262626"/>
      </g>
     </g>
     <g id="text_2">
      <!-- 5 -->
      <g style="fill: #262626" transform="translate(80.096999 287.910875) scale(0.088 -0.088)">
       <defs>
        <path id="ArialMT-35" d="M 266 1200 
L 856 1250 
Q 922 819 1161 601 
Q 1400 384 1738 384 
Q 2144 384 2425 690 
Q 2706 997 2706 1503 
Q 2706 1984 2436 2262 
Q 2166 2541 1728 2541 
Q 1456 2541 1237 2417 
Q 1019 2294 894 2097 
L 366 2166 
L 809 4519 
L 3088 4519 
L 3088 3981 
L 1259 3981 
L 1013 2750 
Q 1425 3038 1878 3038 
Q 2478 3038 2890 2622 
Q 3303 2206 3303 1553 
Q 3303 931 2941 478 
Q 2500 -78 1738 -78 
Q 1113 -78 717 272 
Q 322 622 266 1200 
z
" transform="scale(0.015625)"/>
       </defs>
       <use xlink:href="#ArialMT-35"/>
      </g>
     </g>
    </g>
    <g id="xtick_3">
     <g id="line2d_3">
      <g>
       <use xlink:href="#mb294d9886c" x="112.057862" y="273.312" style="fill: #262626; stroke: #262626"/>
      </g>
     </g>
     <g id="text_3">
      <!-- 10 -->
      <g style="fill: #262626" transform="translate(107.164237 287.910875) scale(0.088 -0.088)">
       <defs>
        <path id="ArialMT-31" d="M 2384 0 
L 1822 0 
L 1822 3584 
Q 1619 3391 1289 3197 
Q 959 3003 697 2906 
L 697 3450 
Q 1169 3672 1522 3987 
Q 1875 4303 2022 4600 
L 2384 4600 
L 2384 0 
z
" transform="scale(0.015625)"/>
       </defs>
       <use xlink:href="#ArialMT-31"/>
       <use xlink:href="#ArialMT-30" x="55.615234"/>
      </g>
     </g>
    </g>
    <g id="xtick_4">
     <g id="line2d_4">
      <g>
       <use xlink:href="#mb294d9886c" x="141.571911" y="273.312" style="fill: #262626; stroke: #262626"/>
      </g>
     </g>
     <g id="text_4">
      <!-- 15 -->
      <g style="fill: #262626" transform="translate(136.678286 287.910875) scale(0.088 -0.088)">
       <use xlink:href="#ArialMT-31"/>
       <use xlink:href="#ArialMT-35" x="55.615234"/>
      </g>
     </g>
    </g>
    <g id="xtick_5">
     <g id="line2d_5">
      <g>
       <use xlink:href="#mb294d9886c" x="171.085961" y="273.312" style="fill: #262626; stroke: #262626"/>
      </g>
     </g>
     <g id="text_5">
      <!-- 20 -->
      <g style="fill: #262626" transform="translate(166.192336 287.910875) scale(0.088 -0.088)">
       <defs>
        <path id="ArialMT-32" d="M 3222 541 
L 3222 0 
L 194 0 
Q 188 203 259 391 
Q 375 700 629 1000 
Q 884 1300 1366 1694 
Q 2113 2306 2375 2664 
Q 2638 3022 2638 3341 
Q 2638 3675 2398 3904 
Q 2159 4134 1775 4134 
Q 1369 4134 1125 3890 
Q 881 3647 878 3216 
L 300 3275 
Q 359 3922 746 4261 
Q 1134 4600 1788 4600 
Q 2447 4600 2831 4234 
Q 3216 3869 3216 3328 
Q 3216 3053 3103 2787 
Q 2991 2522 2730 2228 
Q 2469 1934 1863 1422 
Q 1356 997 1212 845 
Q 1069 694 975 541 
L 3222 541 
z
" transform="scale(0.015625)"/>
       </defs>
       <use xlink:href="#ArialMT-32"/>
       <use xlink:href="#ArialMT-30" x="55.615234"/>
      </g>
     </g>
    </g>
    <g id="xtick_6">
     <g id="line2d_6">
      <g>
       <use xlink:href="#mb294d9886c" x="200.60001" y="273.312" style="fill: #262626; stroke: #262626"/>
      </g>
     </g>
     <g id="text_6">
      <!-- 25 -->
      <g style="fill: #262626" transform="translate(195.706385 287.910875) scale(0.088 -0.088)">
       <use xlink:href="#ArialMT-32"/>
       <use xlink:href="#ArialMT-35" x="55.615234"/>
      </g>
     </g>
    </g>
    <g id="text_7">
     <!-- Time -->
     <g style="fill: #262626" transform="translate(116.329136 300.531375) scale(0.096 -0.096)">
      <defs>
       <path id="ArialMT-54" d="M 1659 0 
L 1659 4041 
L 150 4041 
L 150 4581 
L 3781 4581 
L 3781 4041 
L 2266 4041 
L 2266 0 
L 1659 0 
z
" transform="scale(0.015625)"/>
       <path id="ArialMT-69" d="M 425 3934 
L 425 4581 
L 988 4581 
L 988 3934 
L 425 3934 
z
M 425 0 
L 425 3319 
L 988 3319 
L 988 0 
L 425 0 
z
" transform="scale(0.015625)"/>
       <path id="ArialMT-6d" d="M 422 0 
L 422 3319 
L 925 3319 
L 925 2853 
Q 1081 3097 1340 3245 
Q 1600 3394 1931 3394 
Q 2300 3394 2536 3241 
Q 2772 3088 2869 2813 
Q 3263 3394 3894 3394 
Q 4388 3394 4653 3120 
Q 4919 2847 4919 2278 
L 4919 0 
L 4359 0 
L 4359 2091 
Q 4359 2428 4304 2576 
Q 4250 2725 4106 2815 
Q 3963 2906 3769 2906 
Q 3419 2906 3187 2673 
Q 2956 2441 2956 1928 
L 2956 0 
L 2394 0 
L 2394 2156 
Q 2394 2531 2256 2718 
Q 2119 2906 1806 2906 
Q 1569 2906 1367 2781 
Q 1166 2656 1075 2415 
Q 984 2175 984 1722 
L 984 0 
L 422 0 
z
" transform="scale(0.015625)"/>
       <path id="ArialMT-65" d="M 2694 1069 
L 3275 997 
Q 3138 488 2766 206 
Q 2394 -75 1816 -75 
Q 1088 -75 661 373 
Q 234 822 234 1631 
Q 234 2469 665 2931 
Q 1097 3394 1784 3394 
Q 2450 3394 2872 2941 
Q 3294 2488 3294 1666 
Q 3294 1616 3291 1516 
L 816 1516 
Q 847 969 1125 678 
Q 1403 388 1819 388 
Q 2128 388 2347 550 
Q 2566 713 2694 1069 
z
M 847 1978 
L 2700 1978 
Q 2663 2397 2488 2606 
Q 2219 2931 1791 2931 
Q 1403 2931 1139 2672 
Q 875 2413 847 1978 
z
" transform="scale(0.015625)"/>
      </defs>
      <use xlink:href="#ArialMT-54"/>
      <use xlink:href="#ArialMT-69" x="57.333984"/>
      <use xlink:href="#ArialMT-6d" x="79.550781"/>
      <use xlink:href="#ArialMT-65" x="162.851562"/>
     </g>
    </g>
   </g>
   <g id="matplotlib.axis_2">
    <g id="ytick_1">
     <g id="line2d_7">
      <defs>
       <path id="m7be4f3217f" d="M 0 0 
L -4.8 0 
" style="stroke: #262626"/>
      </defs>
      <g>
       <use xlink:href="#m7be4f3217f" x="45.65125" y="270.560416" style="fill: #262626; stroke: #262626"/>
      </g>
     </g>
     <g id="text_8">
      <!-- −2.0 -->
      <g style="fill: #262626" transform="translate(19.9795 273.709853) scale(0.088 -0.088)">
       <defs>
        <path id="ArialMT-2212" d="M 3381 1997 
L 356 1997 
L 356 2522 
L 3381 2522 
L 3381 1997 
z
" transform="scale(0.015625)"/>
        <path id="ArialMT-2e" d="M 581 0 
L 581 641 
L 1222 641 
L 1222 0 
L 581 0 
z
" transform="scale(0.015625)"/>
       </defs>
       <use xlink:href="#ArialMT-2212"/>
       <use xlink:href="#ArialMT-32" x="58.398438"/>
       <use xlink:href="#ArialMT-2e" x="114.013672"/>
       <use xlink:href="#ArialMT-30" x="141.796875"/>
      </g>
     </g>
    </g>
    <g id="ytick_2">
     <g id="line2d_8">
      <g>
       <use xlink:href="#m7be4f3217f" x="45.65125" y="239.152364" style="fill: #262626; stroke: #262626"/>
      </g>
     </g>
     <g id="text_9">
      <!-- −1.5 -->
      <g style="fill: #262626" transform="translate(19.9795 242.301801) scale(0.088 -0.088)">
       <use xlink:href="#ArialMT-2212"/>
       <use xlink:href="#ArialMT-31" x="58.398438"/>
       <use xlink:href="#ArialMT-2e" x="114.013672"/>
       <use xlink:href="#ArialMT-35" x="141.796875"/>
      </g>
     </g>
    </g>
    <g id="ytick_3">
     <g id="line2d_9">
      <g>
       <use xlink:href="#m7be4f3217f" x="45.65125" y="207.744312" style="fill: #262626; stroke: #262626"/>
      </g>
     </g>
     <g id="text_10">
      <!-- −1.0 -->
      <g style="fill: #262626" transform="translate(19.9795 210.893749) scale(0.088 -0.088)">
       <use xlink:href="#ArialMT-2212"/>
       <use xlink:href="#ArialMT-31" x="58.398438"/>
       <use xlink:href="#ArialMT-2e" x="114.013672"/>
       <use xlink:href="#ArialMT-30" x="141.796875"/>
      </g>
     </g>
    </g>
    <g id="ytick_4">
     <g id="line2d_10">
      <g>
       <use xlink:href="#m7be4f3217f" x="45.65125" y="176.33626" style="fill: #262626; stroke: #262626"/>
      </g>
     </g>
     <g id="text_11">
      <!-- −0.5 -->
      <g style="fill: #262626" transform="translate(19.9795 179.485697) scale(0.088 -0.088)">
       <use xlink:href="#ArialMT-2212"/>
       <use xlink:href="#ArialMT-30" x="58.398438"/>
       <use xlink:href="#ArialMT-2e" x="114.013672"/>
       <use xlink:href="#ArialMT-35" x="141.796875"/>
      </g>
     </g>
    </g>
    <g id="ytick_5">
     <g id="line2d_11">
      <g>
       <use xlink:href="#m7be4f3217f" x="45.65125" y="144.928208" style="fill: #262626; stroke: #262626"/>
      </g>
     </g>
     <g id="text_12">
      <!-- 0.0 -->
      <g style="fill: #262626" transform="translate(25.11925 148.077645) scale(0.088 -0.088)">
       <use xlink:href="#ArialMT-30"/>
       <use xlink:href="#ArialMT-2e" x="55.615234"/>
       <use xlink:href="#ArialMT-30" x="83.398438"/>
      </g>
     </g>
    </g>
    <g id="ytick_6">
     <g id="line2d_12">
      <g>
       <use xlink:href="#m7be4f3217f" x="45.65125" y="113.520156" style="fill: #262626; stroke: #262626"/>
      </g>
     </g>
     <g id="text_13">
      <!-- 0.5 -->
      <g style="fill: #262626" transform="translate(25.11925 116.669593) scale(0.088 -0.088)">
       <use xlink:href="#ArialMT-30"/>
       <use xlink:href="#ArialMT-2e" x="55.615234"/>
       <use xlink:href="#ArialMT-35" x="83.398438"/>
      </g>
     </g>
    </g>
    <g id="ytick_7">
     <g id="line2d_13">
      <g>
       <use xlink:href="#m7be4f3217f" x="45.65125" y="82.112104" style="fill: #262626; stroke: #262626"/>
      </g>
     </g>
     <g id="text_14">
      <!-- 1.0 -->
      <g style="fill: #262626" transform="translate(25.11925 85.261541) scale(0.088 -0.088)">
       <use xlink:href="#ArialMT-31"/>
       <use xlink:href="#ArialMT-2e" x="55.615234"/>
       <use xlink:href="#ArialMT-30" x="83.398438"/>
      </g>
     </g>
    </g>
    <g id="ytick_8">
     <g id="line2d_14">
      <g>
       <use xlink:href="#m7be4f3217f" x="45.65125" y="50.704052" style="fill: #262626; stroke: #262626"/>
      </g>
     </g>
     <g id="text_15">
      <!-- 1.5 -->
      <g style="fill: #262626" transform="translate(25.11925 53.853489) scale(0.088 -0.088)">
       <use xlink:href="#ArialMT-31"/>
       <use xlink:href="#ArialMT-2e" x="55.615234"/>
       <use xlink:href="#ArialMT-35" x="83.398438"/>
      </g>
     </g>
    </g>
    <g id="ytick_9">
     <g id="line2d_15">
      <g>
       <use xlink:href="#m7be4f3217f" x="45.65125" y="19.296" style="fill: #262626; stroke: #262626"/>
      </g>
     </g>
     <g id="text_16">
      <!-- 2.0 -->
      <g style="fill: #262626" transform="translate(25.11925 22.445437) scale(0.088 -0.088)">
       <use xlink:href="#ArialMT-32"/>
       <use xlink:href="#ArialMT-2e" x="55.615234"/>
       <use xlink:href="#ArialMT-30" x="83.398438"/>
      </g>
     </g>
    </g>
    <g id="text_17">
     <!-- $x_j$ -->
     <g style="fill: #262626" transform="translate(13.0035 144.192) rotate(-90) scale(0.096 -0.096)">
      <defs>
       <path id="DejaVuSans-Oblique-78" d="M 3841 3500 
L 2234 1784 
L 3219 0 
L 2559 0 
L 1819 1388 
L 531 0 
L -166 0 
L 1556 1844 
L 641 3500 
L 1300 3500 
L 1972 2234 
L 3144 3500 
L 3841 3500 
z
" transform="scale(0.015625)"/>
       <path id="DejaVuSans-Oblique-6a" d="M 928 3500 
L 1503 3500 
L 813 -63 
L 809 -78 
Q 694 -675 544 -897 
Q 403 -1106 132 -1218 
Q -138 -1331 -506 -1331 
L -722 -1331 
L -628 -844 
L -481 -844 
Q -144 -844 -1 -703 
Q 141 -563 238 -63 
L 928 3500 
z
M 1197 4863 
L 1772 4863 
L 1631 4134 
L 1056 4134 
L 1197 4863 
z
" transform="scale(0.015625)"/>
      </defs>
      <use xlink:href="#DejaVuSans-Oblique-78" transform="translate(0 0.3125)"/>
      <use xlink:href="#DejaVuSans-Oblique-6a" transform="translate(59.179688 -16.09375) scale(0.7)"/>
     </g>
    </g>
   </g>
   <g id="line2d_16">
    <path d="M 53.029762 19.296 
L 53.221623 19.968179 
L 53.502034 21.889343 
L 53.885755 26.276119 
L 54.387544 34.917547 
L 55.02216 50.106741 
L 55.848636 75.755224 
L 57.08835 122.126614 
L 59.228333 202.051132 
L 60.128601 227.464535 
L 60.822251 241.475622 
L 61.368315 248.598057 
L 61.781553 251.569682 
L 62.076723 252.394875 
L 62.224308 252.402073 
L 62.386652 252.099693 
L 62.622788 251.085234 
L 62.962233 248.456975 
L 63.404988 243.03472 
L 63.965811 233.159196 
L 64.688978 216.114811 
L 65.663039 187.390783 
L 69.116528 80.554188 
L 69.88397 65.563264 
L 70.47431 57.855131 
L 70.931824 54.349521 
L 71.271269 53.179031 
L 71.46313 53.058451 
L 71.610715 53.23028 
L 71.832092 53.915599 
L 72.142021 55.722949 
L 72.555259 59.621244 
L 73.086565 66.978561 
L 73.765456 79.784704 
L 74.665724 101.414842 
L 76.230125 145.505229 
L 77.779768 186.819919 
L 78.680037 205.338913 
L 79.373686 215.532289 
L 79.919751 220.700019 
L 80.332989 222.843584 
L 80.628159 223.426991 
L 80.790502 223.411384 
L 80.967604 223.123837 
L 81.233257 222.169362 
L 81.587461 219.942212 
L 82.044975 215.521448 
L 82.635315 207.45256 
L 83.387998 193.866635 
L 84.45061 170.192416 
L 87.358035 103.235025 
L 88.184511 90.013036 
L 88.833885 82.81437 
L 89.335674 79.383805 
L 89.719395 78.065658 
L 89.97029 77.821114 
L 90.147392 77.941309 
L 90.368769 78.429155 
L 90.678698 79.731846 
L 91.091936 82.556975 
L 91.623242 87.904546 
L 92.302133 97.229604 
L 93.202401 113.001059 
L 94.752044 144.881526 
L 96.316445 175.396847 
L 97.231472 189.14406 
L 97.925121 196.559813 
L 98.471186 200.30911 
L 98.884424 201.855111 
L 99.179594 202.267124 
L 99.371454 202.225876 
L 99.578073 201.91134 
L 99.873243 200.983187 
L 100.256964 198.957882 
L 100.758753 194.98725 
L 101.393369 188.028019 
L 102.219845 176.300109 
L 103.474318 154.868125 
L 105.584783 118.943887 
L 106.49981 107.180732 
L 107.19346 100.829756 
L 107.739524 97.614187 
L 108.152762 96.284123 
L 108.447932 95.925692 
L 108.654551 95.967841 
L 108.875929 96.278501 
L 109.185857 97.167431 
L 109.584337 99.06496 
L 110.100884 102.715528 
L 110.765017 109.176484 
L 111.635768 120.069283 
L 113.023068 140.691313 
L 114.808846 166.530157 
L 115.723873 176.737575 
L 116.432281 182.404091 
L 116.993104 185.29426 
L 117.421101 186.494548 
L 117.731029 186.810788 
L 117.952407 186.752641 
L 118.203301 186.40346 
L 118.527988 185.51309 
L 118.955985 183.610222 
L 119.502049 180.057482 
L 120.195699 173.943587 
L 121.125484 163.569374 
L 122.970297 139.741532 
L 124.283804 124.323535 
L 125.154555 116.501104 
L 125.833446 112.220891 
L 126.364752 110.124111 
L 126.763232 109.308291 
L 127.058402 109.127365 
L 127.294538 109.241086 
L 127.574949 109.670756 
L 127.943912 110.711881 
L 128.416184 112.798003 
L 129.006524 116.497586 
L 129.773966 122.84931 
L 130.851336 133.847984 
L 133.684968 163.653568 
L 134.526203 169.850591 
L 135.190335 173.231892 
L 135.706883 174.836095 
L 136.090604 175.422655 
L 136.371016 175.522126 
L 136.62191 175.376837 
L 136.931839 174.89644 
L 137.330318 173.803985 
L 137.832107 171.708909 
L 138.466723 168.021892 
L 139.293199 161.790768 
L 140.532913 150.51699 
L 142.672895 131.068509 
L 143.587922 124.792326 
L 144.29633 121.345784 
L 144.842395 119.653336 
L 145.270391 118.946525 
L 145.595078 118.779278 
L 145.860731 118.878434 
L 146.17066 119.258734 
L 146.569139 120.154913 
L 147.070928 121.901493 
L 147.705544 125.003871 
L 148.517262 130.17619 
L 149.727459 139.518056 
L 151.985509 157.042527 
L 152.885778 162.263944 
L 153.579427 165.118984 
L 154.14025 166.578658 
L 154.568247 167.154363 
L 154.892934 167.275727 
L 155.188104 167.151047 
L 155.527549 166.735649 
L 155.955546 165.81075 
L 156.486852 164.077812 
L 157.165743 161.024727 
L 158.051253 155.916249 
L 159.527103 145.852456 
L 161.194814 134.932764 
L 162.109841 130.315849 
L 162.818249 127.767458 
L 163.379072 126.480081 
L 163.821827 125.945874 
L 164.176031 125.829764 
L 164.500718 125.965167 
L 164.86968 126.394349 
L 165.327194 127.317835 
L 165.888017 128.999868 
L 166.596425 131.882312 
L 167.555727 136.817439 
L 171.260111 156.959625 
L 171.998036 159.358955 
L 172.588376 160.600134 
L 173.060648 161.129701 
L 173.429611 161.251092 
L 173.769056 161.137176 
L 174.152777 160.753233 
L 174.610291 159.95534 
L 175.185872 158.463593 
L 175.909039 155.917833 
L 176.8831 151.594486 
L 180.454657 134.904324 
L 181.222099 132.704948 
L 181.827198 131.579766 
L 182.314228 131.092828 
L 182.712708 130.978352 
L 183.08167 131.099255 
L 183.494908 131.487828 
L 183.996697 132.303001 
L 184.601796 133.745619 
L 185.369238 136.190885 
L 186.446608 140.451477 
L 189.368791 152.39275 
L 190.210026 154.760555 
L 190.874158 156.034951 
L 191.420223 156.647024 
L 191.862978 156.843548 
L 192.261457 156.790107 
L 192.689454 156.494236 
L 193.191243 155.846037 
L 193.796342 154.665509 
L 194.563784 152.629608 
L 195.611637 149.141193 
L 198.755198 138.235822 
L 199.581674 136.331583 
L 200.245806 135.314973 
L 200.60001 134.976965 
L 200.60001 134.976965 
" clip-path="url(#p4c9354c3a8)" style="fill: none; stroke: #1f77b4; stroke-width: 1.2; stroke-linecap: round"/>
   </g>
   <g id="line2d_17">
    <path d="M 53.029762 144.928208 
L 54.594163 206.783963 
L 55.494432 234.257145 
L 56.188082 249.397395 
L 56.734146 257.088406 
L 57.147384 260.292401 
L 57.427796 261.161078 
L 57.590139 261.181591 
L 57.752483 260.850432 
L 57.988619 259.747235 
L 58.328064 256.896045 
L 58.770819 251.020629 
L 59.331642 240.326587 
L 60.054809 221.877147 
L 61.02887 190.795073 
L 64.4676 75.613791 
L 65.235042 59.30215 
L 65.840141 50.720196 
L 66.297654 46.937964 
L 66.622341 45.706394 
L 66.82896 45.552911 
L 66.976546 45.741951 
L 67.197923 46.48797 
L 67.507852 48.449434 
L 67.92109 52.674458 
L 68.452396 60.642618 
L 69.131287 74.505674 
L 70.031555 97.913198 
L 71.595956 145.610996 
L 73.145599 190.290514 
L 74.045867 210.310432 
L 74.739517 221.325239 
L 75.285581 226.905431 
L 75.698819 229.21652 
L 75.979231 229.831152 
L 76.141574 229.834691 
L 76.318676 229.54576 
L 76.569571 228.619159 
L 76.923775 226.300788 
L 77.381288 221.629395 
L 77.95687 213.276721 
L 78.709554 198.783745 
L 79.742649 174.110668 
L 82.797658 98.335589 
L 83.609376 84.658896 
L 84.243991 77.311875 
L 84.74578 73.791635 
L 85.114743 72.540552 
L 85.350879 72.339128 
L 85.513222 72.470841 
L 85.7346 73.001986 
L 86.044528 74.415822 
L 86.457766 77.477787 
L 86.989072 83.269387 
L 87.667963 93.364099 
L 88.568232 110.431565 
L 90.117875 144.920563 
L 91.682276 177.921288 
L 92.582544 192.579492 
L 93.276194 200.658124 
L 93.822258 204.762461 
L 94.235496 206.472747 
L 94.530666 206.945666 
L 94.722527 206.918661 
L 94.929146 206.597209 
L 95.209557 205.682729 
L 95.593278 203.56277 
L 96.080309 199.499826 
L 96.700166 192.314633 
L 97.511883 180.073662 
L 98.707322 158.218719 
L 100.994889 116.093098 
L 101.895158 103.729804 
L 102.588808 96.979072 
L 103.134872 93.602478 
L 103.54811 92.24295 
L 103.828522 91.915902 
L 104.020382 91.969079 
L 104.24176 92.30764 
L 104.551688 93.272651 
L 104.950168 95.329477 
L 105.466715 99.283423 
L 106.130848 106.277938 
L 107.001599 118.06623 
L 108.388898 140.376585 
L 110.174677 168.321019 
L 111.089704 179.355949 
L 111.798112 185.479268 
L 112.358935 188.600239 
L 112.786932 189.894389 
L 113.082102 190.228663 
L 113.288721 190.191727 
L 113.524857 189.878728 
L 113.834785 189.036836 
L 114.248023 187.177371 
L 114.779329 183.623488 
L 115.443462 177.542618 
L 116.328972 167.179134 
L 117.790063 146.980555 
L 119.457774 124.807465 
L 120.372801 115.409028 
L 121.081209 110.20664 
L 121.642032 107.565948 
L 122.070028 106.480868 
L 122.365198 106.209696 
L 122.586576 106.261594 
L 122.83747 106.582321 
L 123.162157 107.402812 
L 123.590154 109.158649 
L 124.136218 112.439186 
L 124.829868 118.087144 
L 125.759654 127.673875 
L 127.589708 149.525868 
L 128.917973 163.958549 
L 129.788724 171.194896 
L 130.467615 175.156242 
L 130.998921 177.098376 
L 131.397401 177.855442 
L 131.692571 178.024831 
L 131.928707 177.921389 
L 132.209118 177.526146 
L 132.578081 176.566177 
L 133.050353 174.64066 
L 133.655451 171.125282 
L 134.422893 165.229276 
L 135.500264 155.041233 
L 138.304379 127.748242 
L 139.145614 121.983402 
L 139.809746 118.824343 
L 140.326294 117.313797 
L 140.724773 116.738639 
L 141.019943 116.647124 
L 141.285596 116.806698 
L 141.610283 117.30788 
L 142.023521 118.41764 
L 142.540069 120.505215 
L 143.204201 124.212515 
L 144.074953 130.477954 
L 145.462252 142.365732 
L 147.262789 157.405539 
L 148.192575 163.373615 
L 148.900983 166.615066 
L 149.461806 168.258261 
L 149.904561 168.945612 
L 150.229248 169.101937 
L 150.509659 169.00093 
L 150.834346 168.614803 
L 151.232826 167.757555 
L 151.734615 166.109164 
L 152.36923 163.203744 
L 153.195706 158.288263 
L 154.43542 149.386615 
L 156.590161 133.921779 
L 157.505188 128.977616 
L 158.213596 126.268295 
L 158.77442 124.916428 
L 159.202416 124.382286 
L 159.541862 124.269431 
L 159.85179 124.405244 
L 160.205994 124.834484 
L 160.648749 125.767396 
L 161.194814 127.484936 
L 161.888463 130.463053 
L 162.818249 135.544511 
L 164.559752 146.628716 
L 165.961809 154.852702 
L 166.847319 158.829085 
L 167.540969 161.016938 
L 168.087033 162.090137 
L 168.51503 162.511352 
L 168.869234 162.577452 
L 169.208679 162.40258 
L 169.5924 161.930563 
L 170.064672 160.967211 
L 170.655013 159.215972 
L 171.407696 156.22634 
L 172.440791 151.117262 
L 175.554835 135.09721 
L 176.366552 132.295434 
L 177.015926 130.778488 
L 177.532474 130.076804 
L 177.945712 129.848725 
L 178.299916 129.889746 
L 178.683637 130.176736 
L 179.126392 130.810726 
L 179.672456 132.011588 
L 180.366106 134.128903 
L 181.266374 137.658089 
L 182.816017 144.8181 
L 184.409935 151.811956 
L 185.324962 154.89481 
L 186.03337 156.582805 
L 186.608952 157.43984 
L 187.081224 157.779416 
L 187.479703 157.807629 
L 187.878183 157.602039 
L 188.335696 157.086742 
L 188.881761 156.104256 
L 189.560652 154.385194 
L 190.446162 151.478147 
L 191.862978 145.933688 
L 193.648757 139.154924 
L 194.578542 136.455628 
L 195.301709 134.97391 
L 195.892049 134.22535 
L 196.379079 133.937442 
L 196.807076 133.933518 
L 197.235072 134.15936 
L 197.722103 134.685433 
L 198.312443 135.680174 
L 199.050368 137.40382 
L 200.024429 140.300435 
L 200.60001 142.222458 
L 200.60001 142.222458 
" clip-path="url(#p4c9354c3a8)" style="fill: none; stroke: #ff7f0e; stroke-width: 1.2; stroke-linecap: round"/>
   </g>
   <g id="line2d_18">
    <path d="M 53.029762 19.296 
L 53.221623 19.98009 
L 53.502034 21.911205 
L 53.885755 26.301513 
L 54.387544 34.939918 
L 55.02216 50.127301 
L 55.848636 75.782556 
L 57.08835 122.15529 
L 59.228333 202.066533 
L 60.128601 227.470339 
L 60.822251 241.468945 
L 61.368315 248.581869 
L 61.781553 251.547561 
L 62.076723 252.368997 
L 62.224308 252.374338 
L 62.386652 252.069843 
L 62.622788 251.052025 
L 62.962233 248.41804 
L 63.404988 242.98652 
L 63.965811 233.097957 
L 64.688978 216.042348 
L 65.677797 186.857043 
L 69.087011 81.251185 
L 69.854453 66.067516 
L 70.459552 58.032599 
L 70.931824 54.3682 
L 71.271269 53.185554 
L 71.477888 53.062428 
L 71.640232 53.280988 
L 71.876368 54.089581 
L 72.201055 56.134414 
L 72.629051 60.423162 
L 73.175116 68.352959 
L 73.868765 81.920161 
L 74.798551 104.84046 
L 76.820465 162.126982 
L 78.045421 192.844618 
L 78.886656 208.835035 
L 79.53603 217.438158 
L 80.052577 221.688783 
L 80.436298 223.294664 
L 80.687193 223.621511 
L 80.849536 223.529021 
L 81.056155 223.068546 
L 81.351325 221.754171 
L 81.749805 218.789257 
L 82.251594 213.215658 
L 82.900968 203.26418 
L 83.742202 186.630813 
L 85.04095 155.89987 
L 87.018589 109.708968 
L 87.933616 93.426062 
L 88.642024 84.439018 
L 89.188089 79.986106 
L 89.601327 78.129877 
L 89.896497 77.615833 
L 90.073599 77.632045 
L 90.26546 77.922457 
L 90.531113 78.787304 
L 90.900075 80.858728 
L 91.372347 84.918955 
L 91.977446 92.23542 
L 92.759646 104.660943 
L 93.866534 126.187601 
L 96.493547 178.430188 
L 97.364298 190.896688 
L 98.028431 197.56688 
L 98.559737 200.914393 
L 98.958216 202.209953 
L 99.223869 202.487732 
L 99.400971 202.413082 
L 99.622349 202.029928 
L 99.932277 200.960912 
L 100.345515 198.598967 
L 100.862063 194.229662 
L 101.526196 186.547586 
L 102.396947 173.657117 
L 103.828522 148.562836 
L 105.540508 119.541945 
L 106.455535 107.561644 
L 107.163943 100.917705 
L 107.724766 97.533471 
L 108.152762 96.131444 
L 108.447932 95.770313 
L 108.654551 95.811471 
L 108.875929 96.121871 
L 109.185857 97.011802 
L 109.584337 98.912888 
L 110.100884 102.571633 
L 110.765017 109.048175 
L 111.635768 119.967146 
L 113.037826 140.860874 
L 114.808846 166.517613 
L 115.738632 176.886174 
L 116.44704 182.525447 
L 117.007863 185.391587 
L 117.435859 186.572698 
L 117.731029 186.87092 
L 117.952407 186.818259 
L 118.203301 186.474982 
L 118.527988 185.591598 
L 118.955985 183.696487 
L 119.502049 180.150694 
L 120.195699 174.040232 
L 121.125484 163.661428 
L 122.955538 139.994976 
L 124.283804 124.367444 
L 125.154555 116.535649 
L 125.833446 112.249992 
L 126.364752 110.149468 
L 126.763232 109.330822 
L 127.058402 109.147668 
L 127.294538 109.259474 
L 127.574949 109.686674 
L 127.943912 110.724152 
L 128.416184 112.804826 
L 129.006524 116.496154 
L 129.773966 122.834385 
L 130.851336 133.808537 
L 133.684968 163.541111 
L 134.526203 169.72763 
L 135.190335 173.108174 
L 135.706883 174.716795 
L 136.090604 175.309429 
L 136.371016 175.414761 
L 136.62191 175.275666 
L 136.931839 174.804061 
L 137.330318 173.724551 
L 137.832107 171.647958 
L 138.466723 167.98689 
L 139.293199 161.792081 
L 140.532913 150.573835 
L 142.687654 131.093993 
L 143.602681 124.871609 
L 144.29633 121.52105 
L 144.857153 119.797954 
L 145.28515 119.108541 
L 145.609837 118.952204 
L 145.890248 119.070693 
L 146.200177 119.470802 
L 146.598656 120.388419 
L 147.100445 122.15483 
L 147.735061 125.269773 
L 148.561537 130.540586 
L 149.801251 140.085294 
L 151.955992 156.667269 
L 152.871019 161.972308 
L 153.579427 164.883305 
L 154.14025 166.339713 
L 154.568247 166.918971 
L 154.907692 167.04589 
L 155.202862 166.918305 
L 155.542308 166.502681 
L 155.970304 165.582206 
L 156.50161 163.861853 
L 157.180501 160.835536 
L 158.066011 155.777656 
L 159.55662 145.723824 
L 161.209572 135.046234 
L 162.124599 130.496883 
L 162.833007 127.990431 
L 163.39383 126.727714 
L 163.836585 126.206803 
L 164.190789 126.097086 
L 164.515476 126.23489 
L 164.884439 126.662686 
L 165.341952 127.578326 
L 165.902775 129.241633 
L 166.625942 132.153894 
L 167.585244 137.032597 
L 171.230594 156.584374 
L 171.983278 159.029311 
L 172.573618 160.276442 
L 173.04589 160.820024 
L 173.429611 160.958119 
L 173.783815 160.844863 
L 174.167536 160.466638 
L 174.639808 159.650977 
L 175.215389 158.172571 
L 175.953314 155.601915 
L 176.942134 151.265564 
L 180.395623 135.369629 
L 181.177823 133.107281 
L 181.797681 131.932964 
L 182.29947 131.414582 
L 182.712708 131.285188 
L 183.096429 131.404743 
L 183.509667 131.785661 
L 184.011456 132.58354 
L 184.631313 134.034306 
L 185.413513 136.486978 
L 186.505642 140.728033 
L 189.324516 152.002236 
L 190.180509 154.39776 
L 190.8594 155.698924 
L 191.405464 156.317489 
L 191.862978 156.529958 
L 192.276216 156.48118 
L 192.704212 156.194362 
L 193.206002 155.564893 
L 193.8111 154.41776 
L 194.578542 152.438933 
L 195.626396 149.04808 
L 198.769956 138.449669 
L 199.596432 136.599097 
L 200.260565 135.610638 
L 200.60001 135.292479 
L 200.60001 135.292479 
" clip-path="url(#p4c9354c3a8)" style="fill: none; stroke-dasharray: 4.44,1.92; stroke-dashoffset: 0; stroke: #000000; stroke-width: 1.2"/>
   </g>
   <g id="line2d_19">
    <path d="M 53.029762 144.928208 
L 54.594163 206.774349 
L 55.494432 234.244969 
L 56.188082 249.380037 
L 56.734146 257.064792 
L 57.147384 260.26388 
L 57.427796 261.129592 
L 57.590139 261.1486 
L 57.752483 260.816109 
L 57.988619 259.711285 
L 58.328064 256.85832 
L 58.770819 250.981246 
L 59.331642 240.28542 
L 60.054809 221.833676 
L 61.043628 190.240622 
L 64.452842 75.978378 
L 65.220284 59.575727 
L 65.825382 50.910821 
L 66.282896 47.060238 
L 66.622341 45.748295 
L 66.82896 45.596656 
L 66.976546 45.786641 
L 67.197923 46.533527 
L 67.507852 48.49521 
L 67.92109 52.719081 
L 68.452396 60.684114 
L 69.131287 74.541593 
L 70.031555 97.940141 
L 71.595956 145.629226 
L 73.145599 190.33634 
L 74.045867 210.385871 
L 74.739517 221.423541 
L 75.285581 227.019846 
L 75.698819 229.34171 
L 75.979231 229.962923 
L 76.141574 229.969992 
L 76.318676 229.684669 
L 76.569571 228.762719 
L 76.909016 226.569414 
L 77.36653 221.962496 
L 77.942111 213.679392 
L 78.680037 199.569152 
L 79.698373 175.372052 
L 82.871451 96.837152 
L 83.66841 83.715205 
L 84.288267 76.754913 
L 84.775297 73.466168 
L 85.129501 72.320064 
L 85.350879 72.139909 
L 85.513222 72.268819 
L 85.7346 72.797352 
L 86.044528 74.209903 
L 86.457766 77.274466 
L 86.989072 83.076479 
L 87.667963 93.195177 
L 88.568232 110.309734 
L 90.117875 144.906128 
L 91.682276 178.024474 
L 92.597303 192.944904 
L 93.290952 200.993066 
L 93.837017 205.061925 
L 94.250255 206.739843 
L 94.545425 207.187303 
L 94.722527 207.155646 
L 94.929146 206.836432 
L 95.209557 205.923632 
L 95.593278 203.803499 
L 96.080309 199.736291 
L 96.700166 192.539203 
L 97.511883 180.27172 
L 98.707322 158.355794 
L 101.009648 115.832952 
L 101.909917 103.466566 
L 102.603566 96.731409 
L 103.149631 93.377651 
L 103.562869 92.041029 
L 103.84328 91.731981 
L 104.035141 91.798499 
L 104.256518 92.153382 
L 104.566447 93.1427 
L 104.979685 95.327299 
L 105.510991 99.501872 
L 106.175123 106.643475 
L 107.060633 118.811905 
L 108.536483 142.766279 
L 110.189435 168.533107 
L 111.104462 179.553975 
L 111.81287 185.652052 
L 112.373693 188.746117 
L 112.80169 190.016783 
L 113.09686 190.333856 
L 113.303479 190.284564 
L 113.539615 189.957258 
L 113.849544 189.096501 
L 114.262782 187.212177 
L 114.794088 183.627694 
L 115.472979 177.35791 
L 116.358489 166.920564 
L 117.863856 146.034591 
L 119.487291 124.52764 
L 120.402318 115.189576 
L 121.110726 110.048995 
L 121.65679 107.514185 
L 122.084787 106.445589 
L 122.379957 106.186276 
L 122.601334 106.247209 
L 122.852229 106.578219 
L 123.191674 107.460461 
L 123.619671 109.258862 
L 124.165735 112.589067 
L 124.874144 118.42662 
L 125.818688 128.256743 
L 129.552588 169.346338 
L 130.275755 174.095205 
L 130.851336 176.566424 
L 131.294091 177.626315 
L 131.618778 177.929216 
L 131.869673 177.888466 
L 132.135326 177.586952 
L 132.474771 176.822836 
L 132.917526 175.211698 
L 133.478349 172.242523 
L 134.186757 167.197704 
L 135.14606 158.615363 
L 138.747134 124.646566 
L 139.499818 120.293959 
L 140.090158 118.052956 
L 140.547671 117.076622 
L 140.887117 116.791231 
L 141.15277 116.828801 
L 141.433181 117.114239 
L 141.787385 117.827671 
L 142.244899 119.30829 
L 142.82048 121.998794 
L 143.558405 126.612448 
L 144.561983 134.437766 
L 147.823612 161.000064 
L 148.620571 165.247222 
L 149.240428 167.47327 
L 149.727459 168.501948 
L 150.096421 168.846208 
L 150.391591 168.850601 
L 150.686761 168.61655 
L 151.055724 167.996151 
L 151.513237 166.741905 
L 152.088819 164.458959 
L 152.826744 160.539764 
L 153.830322 153.885793 
L 157.106709 131.176638 
L 157.903668 127.571155 
L 158.523525 125.685712 
L 159.010556 124.818425 
L 159.394277 124.527393 
L 159.704205 124.54548 
L 160.028892 124.80413 
L 160.427372 125.448008 
L 160.914402 126.699802 
L 161.534259 128.967151 
L 162.331218 132.813368 
L 163.467623 139.530273 
L 166.006085 154.824877 
L 166.891595 158.698477 
L 167.570486 160.777434 
L 168.11655 161.816591 
L 168.544547 162.217596 
L 168.898751 162.271672 
L 169.238196 162.089483 
L 169.636676 161.590455 
L 170.123707 160.581473 
L 170.728805 158.767234 
L 171.496247 155.706543 
L 172.573618 150.393717 
L 175.436767 135.82366 
L 176.278001 132.838348 
L 176.942134 131.214358 
L 177.47344 130.4326 
L 177.901436 130.150957 
L 178.270399 130.159065 
L 178.639361 130.396394 
L 179.082116 130.974213 
L 179.613422 132.064959 
L 180.277555 133.973967 
L 181.148306 137.21843 
L 182.520847 143.336012 
L 184.380418 151.441708 
L 185.310204 154.540248 
L 186.03337 156.246301 
L 186.608952 157.097639 
L 187.081224 157.441693 
L 187.479703 157.480045 
L 187.878183 157.290241 
L 188.335696 156.799661 
L 188.881761 155.855103 
L 189.560652 154.194078 
L 190.446162 151.375948 
L 191.848219 146.04396 
L 193.663515 139.326574 
L 194.593301 136.69604 
L 195.316467 135.250287 
L 195.906807 134.518024 
L 196.393838 134.234209 
L 196.821834 134.226802 
L 197.264589 134.453966 
L 197.766378 134.988941 
L 198.356718 135.968392 
L 199.094643 137.655445 
L 200.083463 140.524644 
L 200.60001 142.199034 
L 200.60001 142.199034 
" clip-path="url(#p4c9354c3a8)" style="fill: none; stroke-dasharray: 4.44,1.92; stroke-dashoffset: 0; stroke: #000000; stroke-width: 1.2"/>
   </g>
   <g id="patch_3">
    <path d="M 45.65125 273.312 
L 45.65125 7.2 
" style="fill: none; stroke: #262626; stroke-linejoin: miter; stroke-linecap: square"/>
   </g>
   <g id="patch_4">
    <path d="M 45.65125 273.312 
L 207.978523 273.312 
" style="fill: none; stroke: #262626; stroke-linejoin: miter; stroke-linecap: square"/>
   </g>
   <g id="legend_1">
    <g id="line2d_20">
     <path d="M 151.452273 18.338875 
L 160.252273 18.338875 
L 169.052273 18.338875 
" style="fill: none; stroke: #1f77b4; stroke-width: 1.2; stroke-linecap: round"/>
    </g>
    <g id="text_18">
     <!-- $x_1$ -->
     <g style="fill: #262626" transform="translate(176.092273 21.418875) scale(0.088 -0.088)">
      <defs>
       <path id="DejaVuSans-31" d="M 794 531 
L 1825 531 
L 1825 4091 
L 703 3866 
L 703 4441 
L 1819 4666 
L 2450 4666 
L 2450 531 
L 3481 531 
L 3481 0 
L 794 0 
L 794 531 
z
" transform="scale(0.015625)"/>
      </defs>
      <use xlink:href="#DejaVuSans-Oblique-78" transform="translate(0 0.3125)"/>
      <use xlink:href="#DejaVuSans-31" transform="translate(59.179688 -16.09375) scale(0.7)"/>
     </g>
    </g>
    <g id="line2d_21">
     <path d="M 151.452273 30.78675 
L 160.252273 30.78675 
L 169.052273 30.78675 
" style="fill: none; stroke: #ff7f0e; stroke-width: 1.2; stroke-linecap: round"/>
    </g>
    <g id="text_19">
     <!-- $x_2$ -->
     <g style="fill: #262626" transform="translate(176.092273 33.86675) scale(0.088 -0.088)">
      <defs>
       <path id="DejaVuSans-32" d="M 1228 531 
L 3431 531 
L 3431 0 
L 469 0 
L 469 531 
Q 828 903 1448 1529 
Q 2069 2156 2228 2338 
Q 2531 2678 2651 2914 
Q 2772 3150 2772 3378 
Q 2772 3750 2511 3984 
Q 2250 4219 1831 4219 
Q 1534 4219 1204 4116 
Q 875 4013 500 3803 
L 500 4441 
Q 881 4594 1212 4672 
Q 1544 4750 1819 4750 
Q 2544 4750 2975 4387 
Q 3406 4025 3406 3419 
Q 3406 3131 3298 2873 
Q 3191 2616 2906 2266 
Q 2828 2175 2409 1742 
Q 1991 1309 1228 531 
z
" transform="scale(0.015625)"/>
      </defs>
      <use xlink:href="#DejaVuSans-Oblique-78" transform="translate(0 0.3125)"/>
      <use xlink:href="#DejaVuSans-32" transform="translate(59.179688 -16.09375) scale(0.7)"/>
     </g>
    </g>
    <g id="line2d_22">
     <path d="M 151.452273 43.234625 
L 160.252273 43.234625 
L 169.052273 43.234625 
" style="fill: none; stroke-dasharray: 4.44,1.92; stroke-dashoffset: 0; stroke: #000000; stroke-width: 1.2"/>
    </g>
    <g id="text_20">
     <!-- model -->
     <g style="fill: #262626" transform="translate(176.092273 46.314625) scale(0.088 -0.088)">
      <defs>
       <path id="ArialMT-6f" d="M 213 1659 
Q 213 2581 725 3025 
Q 1153 3394 1769 3394 
Q 2453 3394 2887 2945 
Q 3322 2497 3322 1706 
Q 3322 1066 3130 698 
Q 2938 331 2570 128 
Q 2203 -75 1769 -75 
Q 1072 -75 642 372 
Q 213 819 213 1659 
z
M 791 1659 
Q 791 1022 1069 705 
Q 1347 388 1769 388 
Q 2188 388 2466 706 
Q 2744 1025 2744 1678 
Q 2744 2294 2464 2611 
Q 2184 2928 1769 2928 
Q 1347 2928 1069 2612 
Q 791 2297 791 1659 
z
" transform="scale(0.015625)"/>
       <path id="ArialMT-64" d="M 2575 0 
L 2575 419 
Q 2259 -75 1647 -75 
Q 1250 -75 917 144 
Q 584 363 401 755 
Q 219 1147 219 1656 
Q 219 2153 384 2558 
Q 550 2963 881 3178 
Q 1213 3394 1622 3394 
Q 1922 3394 2156 3267 
Q 2391 3141 2538 2938 
L 2538 4581 
L 3097 4581 
L 3097 0 
L 2575 0 
z
M 797 1656 
Q 797 1019 1065 703 
Q 1334 388 1700 388 
Q 2069 388 2326 689 
Q 2584 991 2584 1609 
Q 2584 2291 2321 2609 
Q 2059 2928 1675 2928 
Q 1300 2928 1048 2622 
Q 797 2316 797 1656 
z
" transform="scale(0.015625)"/>
       <path id="ArialMT-6c" d="M 409 0 
L 409 4581 
L 972 4581 
L 972 0 
L 409 0 
z
" transform="scale(0.015625)"/>
      </defs>
      <use xlink:href="#ArialMT-6d"/>
      <use xlink:href="#ArialMT-6f" x="83.300781"/>
      <use xlink:href="#ArialMT-64" x="138.916016"/>
      <use xlink:href="#ArialMT-65" x="194.53125"/>
      <use xlink:href="#ArialMT-6c" x="250.146484"/>
     </g>
    </g>
   </g>
  </g>
  <g id="axes_2">
   <g id="patch_5">
    <path d="M 240.443977 273.312 
L 402.77125 273.312 
L 402.77125 7.2 
L 240.443977 7.2 
z
" style="fill: #ffffff"/>
   </g>
   <g id="matplotlib.axis_3">
    <g id="xtick_7">
     <g id="line2d_23">
      <g>
       <use xlink:href="#mb294d9886c" x="276.108952" y="273.312" style="fill: #262626; stroke: #262626"/>
      </g>
     </g>
     <g id="text_21">
      <!-- −1 -->
      <g style="fill: #262626" transform="translate(271.092264 287.910875) scale(0.088 -0.088)">
       <use xlink:href="#ArialMT-2212"/>
       <use xlink:href="#ArialMT-31" x="58.398438"/>
      </g>
     </g>
    </g>
    <g id="xtick_8">
     <g id="line2d_24">
      <g>
       <use xlink:href="#mb294d9886c" x="315.870214" y="273.312" style="fill: #262626; stroke: #262626"/>
      </g>
     </g>
     <g id="text_22">
      <!-- 0 -->
      <g style="fill: #262626" transform="translate(313.423401 287.910875) scale(0.088 -0.088)">
       <use xlink:href="#ArialMT-30"/>
      </g>
     </g>
    </g>
    <g id="xtick_9">
     <g id="line2d_25">
      <g>
       <use xlink:href="#mb294d9886c" x="355.631476" y="273.312" style="fill: #262626; stroke: #262626"/>
      </g>
     </g>
     <g id="text_23">
      <!-- 1 -->
      <g style="fill: #262626" transform="translate(353.184663 287.910875) scale(0.088 -0.088)">
       <use xlink:href="#ArialMT-31"/>
      </g>
     </g>
    </g>
    <g id="xtick_10">
     <g id="line2d_26">
      <g>
       <use xlink:href="#mb294d9886c" x="395.392738" y="273.312" style="fill: #262626; stroke: #262626"/>
      </g>
     </g>
     <g id="text_24">
      <!-- 2 -->
      <g style="fill: #262626" transform="translate(392.945925 287.910875) scale(0.088 -0.088)">
       <use xlink:href="#ArialMT-32"/>
      </g>
     </g>
    </g>
   </g>
   <g id="matplotlib.axis_4">
    <g id="ytick_10">
     <g id="line2d_27">
      <g>
       <use xlink:href="#m7be4f3217f" x="240.443977" y="271.697693" style="fill: #262626; stroke: #262626"/>
      </g>
     </g>
     <g id="text_25">
      <!-- −2.0 -->
      <g style="fill: #262626" transform="translate(214.772227 274.847131) scale(0.088 -0.088)">
       <use xlink:href="#ArialMT-2212"/>
       <use xlink:href="#ArialMT-32" x="58.398438"/>
       <use xlink:href="#ArialMT-2e" x="114.013672"/>
       <use xlink:href="#ArialMT-30" x="141.796875"/>
      </g>
     </g>
    </g>
    <g id="ytick_11">
     <g id="line2d_28">
      <g>
       <use xlink:href="#m7be4f3217f" x="240.443977" y="236.467072" style="fill: #262626; stroke: #262626"/>
      </g>
     </g>
     <g id="text_26">
      <!-- −1.5 -->
      <g style="fill: #262626" transform="translate(214.772227 239.61651) scale(0.088 -0.088)">
       <use xlink:href="#ArialMT-2212"/>
       <use xlink:href="#ArialMT-31" x="58.398438"/>
       <use xlink:href="#ArialMT-2e" x="114.013672"/>
       <use xlink:href="#ArialMT-35" x="141.796875"/>
      </g>
     </g>
    </g>
    <g id="ytick_12">
     <g id="line2d_29">
      <g>
       <use xlink:href="#m7be4f3217f" x="240.443977" y="201.236451" style="fill: #262626; stroke: #262626"/>
      </g>
     </g>
     <g id="text_27">
      <!-- −1.0 -->
      <g style="fill: #262626" transform="translate(214.772227 204.385889) scale(0.088 -0.088)">
       <use xlink:href="#ArialMT-2212"/>
       <use xlink:href="#ArialMT-31" x="58.398438"/>
       <use xlink:href="#ArialMT-2e" x="114.013672"/>
       <use xlink:href="#ArialMT-30" x="141.796875"/>
      </g>
     </g>
    </g>
    <g id="ytick_13">
     <g id="line2d_30">
      <g>
       <use xlink:href="#m7be4f3217f" x="240.443977" y="166.00583" style="fill: #262626; stroke: #262626"/>
      </g>
     </g>
     <g id="text_28">
      <!-- −0.5 -->
      <g style="fill: #262626" transform="translate(214.772227 169.155268) scale(0.088 -0.088)">
       <use xlink:href="#ArialMT-2212"/>
       <use xlink:href="#ArialMT-30" x="58.398438"/>
       <use xlink:href="#ArialMT-2e" x="114.013672"/>
       <use xlink:href="#ArialMT-35" x="141.796875"/>
      </g>
     </g>
    </g>
    <g id="ytick_14">
     <g id="line2d_31">
      <g>
       <use xlink:href="#m7be4f3217f" x="240.443977" y="130.775209" style="fill: #262626; stroke: #262626"/>
      </g>
     </g>
     <g id="text_29">
      <!-- 0.0 -->
      <g style="fill: #262626" transform="translate(219.911977 133.924647) scale(0.088 -0.088)">
       <use xlink:href="#ArialMT-30"/>
       <use xlink:href="#ArialMT-2e" x="55.615234"/>
       <use xlink:href="#ArialMT-30" x="83.398438"/>
      </g>
     </g>
    </g>
    <g id="ytick_15">
     <g id="line2d_32">
      <g>
       <use xlink:href="#m7be4f3217f" x="240.443977" y="95.544588" style="fill: #262626; stroke: #262626"/>
      </g>
     </g>
     <g id="text_30">
      <!-- 0.5 -->
      <g style="fill: #262626" transform="translate(219.911977 98.694026) scale(0.088 -0.088)">
       <use xlink:href="#ArialMT-30"/>
       <use xlink:href="#ArialMT-2e" x="55.615234"/>
       <use xlink:href="#ArialMT-35" x="83.398438"/>
      </g>
     </g>
    </g>
    <g id="ytick_16">
     <g id="line2d_33">
      <g>
       <use xlink:href="#m7be4f3217f" x="240.443977" y="60.313967" style="fill: #262626; stroke: #262626"/>
      </g>
     </g>
     <g id="text_31">
      <!-- 1.0 -->
      <g style="fill: #262626" transform="translate(219.911977 63.463405) scale(0.088 -0.088)">
       <use xlink:href="#ArialMT-31"/>
       <use xlink:href="#ArialMT-2e" x="55.615234"/>
       <use xlink:href="#ArialMT-30" x="83.398438"/>
      </g>
     </g>
    </g>
    <g id="ytick_17">
     <g id="line2d_34">
      <g>
       <use xlink:href="#m7be4f3217f" x="240.443977" y="25.083346" style="fill: #262626; stroke: #262626"/>
      </g>
     </g>
     <g id="text_32">
      <!-- 1.5 -->
      <g style="fill: #262626" transform="translate(219.911977 28.232784) scale(0.088 -0.088)">
       <use xlink:href="#ArialMT-31"/>
       <use xlink:href="#ArialMT-2e" x="55.615234"/>
       <use xlink:href="#ArialMT-35" x="83.398438"/>
      </g>
     </g>
    </g>
   </g>
   <g id="line2d_35">
    <path d="M 395.392738 130.775209 
L 395.054388 138.501533 
L 394.478436 146.16211 
L 393.667925 153.734135 
L 392.626594 161.195194 
L 391.358858 168.523333 
L 390.014162 175.051889 
L 388.490815 181.43719 
L 386.793518 187.663987 
L 384.92738 193.717505 
L 382.897911 199.583474 
L 380.710996 205.248164 
L 378.37289 210.698419 
L 375.890192 215.921682 
L 373.269829 220.906027 
L 370.519039 225.640186 
L 367.645349 230.113571 
L 364.656557 234.3163 
L 361.874877 237.859761 
L 359.012503 241.170404 
L 356.075594 244.242569 
L 353.070434 247.071104 
L 350.003416 249.651372 
L 346.881032 251.979263 
L 343.709854 254.051195 
L 340.496525 255.86412 
L 337.247742 257.415528 
L 334.33562 258.57341 
L 331.405563 259.522077 
L 328.462333 260.260845 
L 325.510695 260.78937 
L 322.555408 261.107645 
L 319.601217 261.216 
L 316.652848 261.115099 
L 313.714997 260.80594 
L 310.792325 260.289848 
L 307.889451 259.568477 
L 305.010942 258.6438 
L 302.161311 257.51811 
L 298.995526 256.01469 
L 295.878138 254.26434 
L 292.815243 252.271715 
L 289.8128 250.041938 
L 286.876621 247.580591 
L 284.012354 244.8937 
L 281.225479 241.98772 
L 278.521294 238.869521 
L 275.619828 235.16481 
L 272.833459 231.217607 
L 270.168579 227.03899 
L 267.631245 222.640559 
L 265.227163 218.034407 
L 262.961679 213.233085 
L 260.839765 208.249569 
L 258.676948 202.573234 
L 256.698952 196.710913 
L 254.910745 190.681355 
L 253.316693 184.503711 
L 251.920552 178.197474 
L 250.725457 171.782422 
L 249.733922 165.27855 
L 248.947826 158.706015 
L 248.368422 152.085067 
L 247.996326 145.435995 
L 247.831527 138.779062 
L 247.873386 132.13444 
L 248.120644 125.522156 
L 248.571425 118.962029 
L 249.22325 112.473612 
L 250.073045 106.076132 
L 251.117155 99.788437 
L 252.351355 93.628939 
L 253.770871 87.615562 
L 255.370394 81.765689 
L 257.144099 76.096115 
L 259.085667 70.622994 
L 261.188305 65.3618 
L 263.444772 60.327282 
L 265.847399 55.53342 
L 268.38812 50.993392 
L 270.810603 47.096761 
L 273.333651 43.428759 
L 275.950454 39.997418 
L 278.654003 36.810134 
L 281.437105 33.873658 
L 284.292408 31.19408 
L 287.212411 28.776818 
L 290.189494 26.626607 
L 292.911285 24.923102 
L 295.66736 23.441655 
L 298.451981 22.184272 
L 301.25938 21.152493 
L 304.083768 20.347395 
L 306.919348 19.76959 
L 309.760325 19.419229 
L 312.600922 19.296 
L 315.435385 19.399132 
L 318.258001 19.727401 
L 321.063107 20.27913 
L 323.845098 21.052198 
L 326.598443 22.044046 
L 329.317694 23.251682 
L 331.997496 24.671691 
L 334.632598 26.300244 
L 337.50182 28.349169 
L 340.302651 30.643937 
L 343.028431 33.177584 
L 345.67272 35.942584 
L 348.229314 38.930871 
L 350.692259 42.133861 
L 353.28655 45.894282 
L 355.753461 49.890762 
L 358.08623 54.109921 
L 360.278537 58.537777 
L 362.324525 63.159796 
L 364.218808 67.960935 
L 366.10654 73.384602 
L 367.802237 78.982302 
L 369.300946 84.732855 
L 370.598455 90.614658 
L 371.691297 96.605762 
L 372.576767 102.68396 
L 373.25292 108.826862 
L 373.718573 115.01198 
L 373.973312 121.216807 
L 374.017482 127.418904 
L 373.852184 133.59597 
L 373.479266 139.725933 
L 372.90131 145.787019 
L 372.121625 151.757834 
L 371.144221 157.617437 
L 369.973797 163.34541 
L 368.615721 168.921932 
L 367.076 174.327847 
L 365.36126 179.544725 
L 363.478719 184.554928 
L 361.436153 189.341667 
L 359.241869 193.889055 
L 357.10467 197.834465 
L 354.854499 201.555441 
L 352.498779 205.04196 
L 350.045214 208.284765 
L 347.50176 211.275387 
L 344.876602 214.006166 
L 342.178126 216.470268 
L 339.668546 218.473892 
L 337.111989 220.248277 
L 334.515079 221.790132 
L 331.884512 223.096761 
L 329.227031 224.166071 
L 326.549413 224.996573 
L 323.858454 225.587381 
L 321.160947 225.938215 
L 318.463669 226.049394 
L 315.773361 225.921836 
L 313.096715 225.55705 
L 310.440353 224.957132 
L 307.810816 224.124754 
L 305.214543 223.063156 
L 302.657859 221.776137 
L 300.146959 220.268037 
L 297.687891 218.543731 
L 295.286544 216.608606 
L 292.718546 214.243518 
L 290.234647 211.638988 
L 287.841897 208.804207 
L 285.547033 205.749011 
L 283.356456 202.483847 
L 281.092778 198.695353 
L 278.967767 194.685159 
L 276.988237 190.46902 
L 275.160441 186.063336 
L 273.490047 181.485092 
L 271.86394 176.350912 
L 270.434129 171.057617 
L 269.205375 165.62858 
L 268.181564 160.087598 
L 267.36569 154.458787 
L 266.759848 148.766476 
L 266.365235 143.035104 
L 266.182148 137.289117 
L 266.209991 131.552866 
L 266.447277 125.8505 
L 266.891649 120.205872 
L 267.539889 114.642433 
L 268.387939 109.183142 
L 269.430926 103.850369 
L 270.663183 98.665804 
L 272.078283 93.650372 
L 273.669067 88.824149 
L 275.427682 84.206281 
L 277.345617 79.81491 
L 279.413744 75.667106 
L 281.447708 72.068344 
L 283.593351 68.70233 
L 285.842283 65.579781 
L 288.185796 62.710475 
L 290.614893 60.10322 
L 292.90885 57.950132 
L 295.259661 56.029084 
L 297.659904 54.344611 
L 300.102051 52.900511 
L 302.578485 51.699831 
L 305.08153 50.744868 
L 307.603471 50.037161 
L 310.136577 49.577494 
L 312.442592 49.374895 
L 314.745673 49.376806 
L 317.040077 49.582201 
L 319.547109 50.041321 
L 322.029269 50.742068 
L 324.479187 51.680997 
L 326.889633 52.853963 
L 329.253533 54.256134 
L 331.563993 55.882014 
L 333.81432 57.725458 
L 336.193039 59.976649 
L 338.484408 62.469094 
L 340.680707 65.192382 
L 342.774602 68.135332 
L 344.759173 71.286044 
L 346.778243 74.919163 
L 348.653763 78.76452 
L 350.378744 82.804507 
L 351.946882 87.02081 
L 353.453829 91.736888 
L 354.766327 96.611121 
L 355.879308 101.618552 
L 356.788717 106.733745 
L 357.491524 111.930914 
L 357.985731 117.184051 
L 358.270373 122.467057 
L 358.345521 127.753868 
L 358.212266 133.018584 
L 357.872717 138.235592 
L 357.329973 143.379694 
L 356.588109 148.426222 
L 355.652143 153.351158 
L 354.528012 158.131249 
L 353.222529 162.744111 
L 351.743348 167.168334 
L 350.098921 171.383582 
L 348.298448 175.370683 
L 346.35183 179.111715 
L 344.422605 182.350675 
L 342.385356 185.350938 
L 340.249382 188.101387 
L 338.024339 190.59203 
L 335.900016 192.652832 
L 333.716338 194.47868 
L 331.481516 196.064411 
L 329.203898 197.405755 
L 326.891934 198.499349 
L 324.554147 199.34274 
L 322.395806 199.894723 
L 320.229571 200.234656 
L 318.062036 200.362673 
L 315.899762 200.27955 
L 313.74926 199.986696 
L 311.616969 199.486148 
L 309.319058 198.706355 
L 307.058465 197.686822 
L 304.843099 196.432651 
L 302.680661 194.94976 
L 300.578613 193.244851 
L 298.544158 191.325387 
L 296.424455 189.013363 
L 294.40057 186.470486 
L 292.480426 183.708986 
L 290.537111 180.50558 
L 288.731336 177.081138 
L 287.070977 173.453962 
L 285.563148 169.643216 
L 284.124034 165.379227 
L 282.873975 160.95275 
L 281.81858 156.389859 
L 280.96232 151.717203 
L 280.308517 146.961844 
L 279.859331 142.151108 
L 279.606829 136.98953 
L 279.587999 131.829384 
L 279.801099 126.703625 
L 280.242921 121.644723 
L 280.908818 116.684462 
L 281.792751 111.853744 
L 282.812911 107.46914 
L 284.011112 103.248198 
L 285.379294 99.213402 
L 286.908503 95.386022 
L 288.588947 91.786004 
L 290.410057 88.431869 
L 292.226732 85.538205 
L 294.146446 82.886121 
L 296.159085 80.486911 
L 298.254151 78.350553 
L 300.263915 76.60971 
L 302.326533 75.108789 
L 304.432957 73.852571 
L 306.574011 72.844773 
L 308.573096 72.137295 
L 310.586475 71.645019 
L 312.606819 71.368428 
L 314.626817 71.307227 
L 316.639203 71.460348 
L 318.636783 71.825958 
L 320.612459 72.401471 
L 322.719968 73.257935 
L 324.784906 74.351641 
L 326.798834 75.676434 
L 328.753581 77.225225 
L 330.64128 78.990025 
L 332.590568 81.121981 
L 334.444427 83.482071 
L 336.19445 86.057153 
L 337.945352 89.038703 
L 339.559186 92.232384 
L 341.027913 95.618673 
L 342.426558 99.419946 
L 343.644409 103.391233 
L 344.675126 107.505809 
L 345.513616 111.736248 
L 346.189632 116.326772 
L 346.64134 120.982603 
L 346.867381 125.669623 
L 346.868036 130.353777 
L 346.645208 135.001319 
L 346.202395 139.579052 
L 345.544653 144.054564 
L 344.678541 148.396456 
L 343.612069 152.574554 
L 342.354621 156.560124 
L 341.006235 160.111078 
L 339.508019 163.44633 
L 337.870737 166.546292 
L 336.105957 169.393036 
L 334.346603 171.817481 
L 332.496624 173.993297 
L 330.567087 175.910122 
L 328.704489 177.457678 
L 326.792072 178.76597 
L 324.839545 179.830265 
L 322.856742 180.647057 
L 320.997126 181.181885 
L 319.127917 181.500472 
L 317.257069 181.602874 
L 315.392489 181.490061 
L 313.542007 181.163901 
L 311.713343 180.627156 
L 309.777101 179.817797 
L 307.884187 178.774067 
L 306.043563 177.502708 
L 304.263871 176.011531 
L 302.43408 174.179963 
L 300.693426 172.118302 
L 299.051019 169.839845 
L 297.416963 167.186798 
L 295.913812 164.322286 
L 294.469705 161.069412 
L 293.192108 157.625668 
L 292.088823 154.017497 
L 291.117809 150.048331 
L 290.355495 145.959005 
L 289.80617 141.783636 
L 289.472363 137.556733 
L 289.354841 133.312912 
L 289.452615 129.086612 
L 289.762966 124.911826 
L 290.281482 120.821824 
L 291.002107 116.848893 
L 291.917209 113.024087 
L 293.01765 109.37698 
L 294.292879 105.935451 
L 295.647071 102.897306 
L 297.135598 100.085863 
L 298.746591 97.519472 
L 300.363371 95.342637 
L 302.066329 93.409502 
L 303.8439 91.730473 
L 305.567512 90.394927 
L 307.336109 89.296155 
L 309.139422 88.438558 
L 310.967062 87.825151 
L 312.685592 87.474403 
L 314.40772 87.338018 
L 316.124991 87.415169 
L 317.829035 87.70399 
L 319.511604 88.201588 
L 321.281346 88.961969 
L 323.007472 89.95151 
L 324.680613 91.16294 
L 326.396761 92.690149 
L 328.031987 94.448484 
L 329.57649 96.424872 
L 331.107903 98.747619 
L 332.516497 101.281605 
L 333.863968 104.172584 
L 335.053976 107.252606 
L 336.130224 110.679441 
L 337.013961 114.254729 
L 337.699052 117.944889 
L 338.181212 121.715625 
L 338.466882 125.733724 
L 338.524449 129.762095 
L 338.35561 133.760479 
L 337.964302 137.689315 
L 337.356638 141.51013 
L 336.540829 145.18591 
L 335.582289 148.511479 
L 334.455409 151.64598 
L 333.171923 154.56301 
L 331.744863 157.238373 
L 330.273331 159.530224 
L 328.698607 161.569201 
L 327.128909 163.249874 
L 325.49133 164.682196 
L 323.798249 165.857943 
L 322.165411 166.724476 
L 320.505369 167.354451 
L 318.828945 167.745728 
L 317.146979 167.897709 
L 315.574699 167.823674 
L 313.912593 167.516032 
L 312.276238 166.976132 
L 310.675882 166.209272 
L 309.121461 165.222162 
L 307.530912 163.941067 
L 306.013948 162.431709 
L 304.499408 160.599029 
L 303.090314 158.541797 
L 301.728855 156.147275 
L 300.507538 153.547053 
L 299.383947 150.615638 
L 298.435883 147.51561 
L 297.637732 144.114777 
L 297.048235 140.602911 
L 296.67169 137.019754 
L 296.510009 133.40542 
L 296.562723 129.799944 
L 296.827014 126.242846 
L 297.297769 122.772703 
L 297.967657 119.42673 
L 298.82724 116.240394 
L 299.865091 113.247034 
L 301.007141 110.603901 
L 302.28599 108.188152 
L 303.687531 106.021605 
L 305.118811 104.211656 
L 306.633316 102.657886 
L 308.131822 101.43271 
L 309.679426 100.455599 
L 311.174471 99.765685 
L 312.690715 99.305173 
L 314.217047 99.075441 
L 315.742377 99.076191 
L 317.255717 99.305467 
L 318.746258 99.759683 
L 320.203448 100.433658 
L 321.698646 101.379318 
L 323.133354 102.554022 
L 324.569942 104.029691 
L 325.91465 105.732108 
L 327.218539 107.749865 
L 328.396324 109.977076 
L 329.485826 112.514475 
L 330.454402 115.358926 
L 331.236583 118.358084 
L 331.824981 121.474105 
L 332.227561 124.81455 
L 332.410108 128.1953 
L 332.372734 131.571367 
L 332.118446 134.898343 
L 331.653074 138.132972 
L 330.98516 141.233708 
L 330.125817 144.161247 
L 329.137145 146.765675 
L 327.99937 149.14886 
L 326.788305 151.193129 
L 325.469936 152.991716 
L 324.128853 154.460478 
L 322.718789 155.678514 
L 321.328755 156.594594 
L 319.90274 157.269645 
L 318.530526 157.683364 
L 317.149113 157.87596 
L 315.769744 157.847857 
L 314.403547 157.601259 
L 313.061442 157.140118 
L 311.682651 156.426871 
L 310.354585 155.489511 
L 309.024023 154.272328 
L 307.774949 152.833022 
L 306.563846 151.100835 
L 305.418498 149.066444 
L 304.369371 146.7281 
L 303.48371 144.206392 
L 302.744389 141.41776 
L 302.20205 138.50983 
L 301.852394 135.400365 
L 301.72505 132.257612 
L 301.819237 129.130852 
L 302.130737 126.068506 
L 302.652007 123.117391 
L 303.372336 120.322013 
L 304.238459 117.823552 
L 305.260995 115.540562 
L 306.372425 113.58283 
L 307.596233 111.873913 
L 308.855951 110.490287 
L 310.124659 109.411606 
L 311.44324 108.578911 
L 312.731669 108.020613 
L 314.038564 107.694704 
L 315.350713 107.602121 
L 316.654984 107.741465 
L 317.938452 108.109039 
L 319.18853 108.698907 
L 320.451913 109.54863 
L 321.65176 110.622688 
L 322.826969 111.973068 
L 323.951989 113.611025 
L 324.998535 115.540836 
L 325.936088 117.758327 
L 326.705476 120.150673 
L 327.316666 122.781859 
L 327.727521 125.513443 
L 327.937542 128.405727 
L 327.926042 131.302168 
L 327.696198 134.150216 
L 327.255106 136.898901 
L 326.613591 139.499741 
L 325.819745 141.822335 
L 324.86888 143.929202 
L 323.823261 145.721173 
L 322.715106 147.202152 
L 321.522047 148.429979 
L 320.315782 149.355565 
L 319.119856 150.002117 
L 317.897843 150.409835 
L 316.720836 150.574077 
L 315.546779 150.519078 
L 314.388539 150.247731 
L 313.205791 149.737157 
L 312.0681 149.003602 
L 310.941211 148.010564 
L 309.848481 146.744722 
L 308.816076 145.199101 
L 307.872522 143.374518 
L 307.048058 141.28099 
L 306.373755 138.93902 
L 305.893858 136.470549 
L 305.608817 133.833751 
L 305.54227 131.171013 
L 305.692463 128.538341 
L 306.053136 125.990305 
L 306.613723 123.578923 
L 307.359636 121.352609 
L 308.238582 119.419841 
L 309.215626 117.790741 
L 310.25833 116.464775 
L 311.337442 115.432657 
L 312.473628 114.651928 
L 313.60101 114.147343 
L 314.69954 113.893083 
L 315.800926 113.864072 
L 316.89063 114.058115 
L 317.954434 114.470107 
L 319.02205 115.123783 
L 320.072354 116.034777 
L 321.08131 117.213069 
L 322.022352 118.661557 
L 322.866968 120.374653 
L 323.585499 122.336965 
L 324.148173 124.522183 
L 324.526357 126.892269 
L 324.692222 129.31853 
L 324.640044 131.819705 
L 324.36585 134.254635 
L 323.880131 136.562498 
L 323.222657 138.623592 
L 322.428798 140.410175 
L 321.533064 141.907567 
L 320.56795 143.112434 
L 319.563088 144.030933 
L 318.544693 144.676826 
L 317.494488 145.080659 
L 316.471498 145.237239 
L 315.451867 145.166999 
L 314.451408 144.873848 
L 313.447728 144.34042 
L 312.462486 143.552582 
L 311.520151 142.502391 
L 310.647521 141.189544 
L 309.873024 139.622753 
L 309.207658 137.760264 
L 308.709995 135.685216 
L 308.408133 133.44472 
L 308.325252 131.165476 
L 308.460035 128.913468 
L 308.804949 126.75279 
L 309.346567 124.743834 
L 310.042557 122.991212 
L 310.857152 121.519524 
L 311.755682 120.340102 
L 312.705776 119.452825 
L 313.678227 118.848107 
L 314.64755 118.508899 
L 315.592269 118.412622 
L 316.529357 118.541692 
L 317.441932 118.89075 
L 318.345089 119.475138 
L 319.216229 120.303718 
L 320.055871 121.417578 
L 320.804129 122.783173 
L 321.448441 124.431937 
L 321.933219 126.289533 
L 322.169139 127.740152 
L 322.169139 127.740152 
" clip-path="url(#p12b008ae1d)" style="fill: none; stroke: #1f77b4; stroke-width: 1.2; stroke-linecap: round"/>
   </g>
   <g id="line2d_36">
    <path d="M 395.392738 130.775209 
L 395.047821 138.500892 
L 394.467288 146.16032 
L 393.653885 153.730908 
L 392.611022 161.190429 
L 391.342785 168.517073 
L 389.998257 175.044391 
L 388.475445 181.428618 
L 386.778852 187.654524 
L 384.913426 193.707328 
L 382.884547 199.572738 
L 380.698016 205.236984 
L 378.360032 210.686859 
L 375.877178 215.909752 
L 373.256394 220.893683 
L 370.504958 225.627331 
L 367.630452 230.100063 
L 364.94467 233.894229 
L 362.171482 237.462293 
L 359.316949 240.798032 
L 356.387268 243.895732 
L 353.388751 246.750192 
L 350.327815 249.356736 
L 347.210964 251.711217 
L 344.044774 253.810021 
L 340.835883 255.650073 
L 337.590973 257.228837 
L 334.6818 258.411204 
L 331.754209 259.384494 
L 328.812939 260.148001 
L 325.862731 260.701356 
L 322.908319 261.044525 
L 319.954428 261.177807 
L 317.005763 261.101832 
L 314.067005 260.817559 
L 311.142802 260.326275 
L 308.237768 259.629587 
L 305.35647 258.729425 
L 302.503424 257.628031 
L 299.333066 256.151622 
L 296.210352 254.427874 
L 293.141412 252.46137 
L 290.132244 250.257166 
L 287.188701 247.820776 
L 284.316479 245.158164 
L 281.521106 242.275726 
L 278.807927 239.180281 
L 275.895939 235.499871 
L 273.098547 231.575884 
L 270.42219 227.419351 
L 267.872962 223.041834 
L 265.456601 218.455395 
L 263.178472 213.672562 
L 261.043561 208.706293 
L 258.86605 203.047473 
L 256.872947 197.201127 
L 255.069225 191.185987 
L 253.459259 185.021189 
L 252.04682 178.726209 
L 250.835072 172.320805 
L 249.826565 165.824956 
L 249.023238 159.258799 
L 248.426412 152.642569 
L 248.036789 145.996541 
L 247.854452 139.340967 
L 247.878864 132.69602 
L 248.10887 126.081732 
L 248.542696 119.517939 
L 249.177958 113.024218 
L 250.011661 106.619836 
L 251.040217 100.323686 
L 252.259446 94.154238 
L 253.6646 88.129477 
L 255.250372 82.266857 
L 257.010922 76.583243 
L 258.939899 71.094864 
L 261.030465 65.817263 
L 263.275323 60.765256 
L 265.666751 55.952886 
L 268.196628 51.393383 
L 270.609526 47.478249 
L 273.123223 43.791015 
L 275.730899 40.339737 
L 278.425546 37.131835 
L 281.199992 34.174077 
L 284.046913 31.472573 
L 286.958857 29.032757 
L 289.928261 26.859384 
L 292.643524 25.134532 
L 295.39349 23.631288 
L 298.17248 22.351678 
L 300.974784 21.297273 
L 303.79467 20.469183 
L 306.626395 19.868062 
L 309.464212 19.494103 
L 312.302383 19.347044 
L 315.135187 19.426171 
L 317.956932 19.730316 
L 320.761965 20.257866 
L 323.544684 21.006766 
L 326.299548 21.974522 
L 329.021089 23.158211 
L 331.703926 24.554486 
L 334.342774 26.159583 
L 337.216944 28.182853 
L 340.023495 30.452476 
L 342.755707 32.961568 
L 345.407083 35.702678 
L 347.971367 38.667809 
L 350.442561 41.848439 
L 353.046531 45.585253 
L 355.523725 49.559228 
L 357.867369 53.757048 
L 360.071149 58.164791 
L 362.129227 62.767979 
L 364.036249 67.551625 
L 365.938666 72.957801 
L 367.649923 78.539746 
L 369.16512 84.27636 
L 370.480083 90.146121 
L 371.591369 96.12717 
L 372.496262 102.197385 
L 373.192779 108.334463 
L 373.679667 114.515999 
L 373.956404 120.719559 
L 374.023192 126.922766 
L 373.880961 133.103367 
L 373.531363 139.239315 
L 372.976769 145.308844 
L 372.220262 151.290542 
L 371.265628 157.163423 
L 370.117348 162.907004 
L 368.780584 168.501374 
L 367.26116 173.927265 
L 365.565543 179.166116 
L 363.700821 184.200145 
L 361.67467 189.012405 
L 359.495325 193.586848 
L 357.370491 197.55826 
L 355.131396 201.306256 
L 352.785469 204.820687 
L 350.340427 208.092175 
L 347.804252 211.11213 
L 345.18516 213.872781 
L 342.491572 216.367189 
L 339.985445 218.398655 
L 337.431424 220.201085 
L 334.836162 221.77112 
L 332.206374 223.105997 
L 329.548826 224.20356 
L 326.870314 225.062255 
L 324.177648 225.681136 
L 321.477634 226.059857 
L 318.777061 226.198676 
L 316.082681 226.098446 
L 313.401193 225.760609 
L 310.739229 225.187196 
L 308.103337 224.380808 
L 305.499966 223.344618 
L 302.935451 222.082352 
L 300.415996 220.59828 
L 297.94766 218.897205 
L 295.536346 216.984443 
L 292.956591 214.642868 
L 290.460122 212.060624 
L 288.054009 209.246813 
L 285.745011 206.211183 
L 283.539552 202.964102 
L 281.258815 199.19355 
L 279.11592 195.199346 
L 277.117724 190.997156 
L 275.270525 186.603304 
L 273.580047 182.034702 
L 271.931488 176.908426 
L 270.478597 171.620328 
L 269.226247 166.193731 
L 268.178451 160.652395 
L 267.338347 155.020416 
L 266.708192 149.32212 
L 266.289355 143.581963 
L 266.082314 137.824429 
L 266.086661 132.073923 
L 266.301101 126.354675 
L 266.723459 120.690634 
L 267.350695 115.105372 
L 268.178914 109.621987 
L 269.203388 104.263002 
L 270.418577 99.05028 
L 271.818159 94.004928 
L 273.395058 89.147214 
L 275.14148 84.496484 
L 277.048954 80.071084 
L 279.108375 75.888287 
L 281.135865 72.256544 
L 283.276528 68.857057 
L 285.521964 65.700697 
L 287.863446 62.797392 
L 290.291953 60.156095 
L 292.586615 57.971882 
L 294.939299 56.019895 
L 297.342559 54.30477 
L 299.788839 52.830403 
L 302.270495 51.599938 
L 304.779818 50.615763 
L 307.309055 49.879509 
L 309.850438 49.392049 
L 312.164788 49.164908 
L 314.47694 49.143032 
L 316.78111 49.325453 
L 319.071562 49.710703 
L 321.568444 50.366377 
L 324.034414 51.261766 
L 326.46216 52.392852 
L 328.844522 53.754925 
L 331.17452 55.3426 
L 333.445373 57.149838 
L 335.650516 59.169969 
L 337.973761 61.607982 
L 340.203425 64.280439 
L 342.33204 67.176315 
L 344.352556 70.283846 
L 346.411804 73.874721 
L 348.328639 77.682684 
L 350.095928 81.690242 
L 351.707224 85.879176 
L 353.156782 90.230624 
L 354.531223 95.076255 
L 355.706954 100.062957 
L 356.679657 105.165349 
L 357.446027 110.357663 
L 358.003776 115.613873 
L 358.351638 120.907824 
L 358.489366 126.21336 
L 358.417729 131.504446 
L 358.138498 136.755298 
L 357.654444 141.940502 
L 356.969311 147.035139 
L 356.087803 152.014899 
L 355.015552 156.8562 
L 353.759096 161.536298 
L 352.325835 166.03339 
L 350.723998 170.326724 
L 348.962594 174.396685 
L 347.051366 178.224896 
L 345.151597 181.54826 
L 343.140444 184.635857 
L 341.027149 187.47618 
L 338.821329 190.058843 
L 336.711665 192.206151 
L 334.539678 194.119688 
L 332.313584 195.793983 
L 330.041742 197.22446 
L 327.73262 198.407451 
L 325.394768 199.340201 
L 323.233838 199.973806 
L 321.062623 200.394849 
L 318.887746 200.603237 
L 316.715803 200.599521 
L 314.55334 200.384891 
L 312.406836 199.961163 
L 310.282682 199.330774 
L 307.998296 198.410978 
L 305.755977 197.253639 
L 303.563516 195.864345 
L 301.428473 194.249478 
L 299.358154 192.416191 
L 297.196494 190.192821 
L 295.127578 187.733354 
L 293.159497 185.04968 
L 291.299865 182.154555 
L 289.426612 178.815825 
L 287.695565 175.265504 
L 286.11417 171.522401 
L 284.689098 167.606138 
L 283.342356 163.241099 
L 282.187958 158.7264 
L 281.230961 154.088468 
L 280.475291 149.354227 
L 279.923724 144.550946 
L 279.562164 139.382291 
L 279.43518 134.199694 
L 279.541801 129.036357 
L 279.87957 123.925104 
L 280.444576 118.898179 
L 281.231482 113.987041 
L 282.164778 109.515126 
L 283.280605 105.195958 
L 284.571371 101.052689 
L 286.02855 97.107309 
L 287.642731 93.380538 
L 289.40368 89.891709 
L 291.169964 86.865916 
L 293.045051 84.076241 
L 295.018989 81.534714 
L 297.081405 79.252059 
L 299.06635 77.372468 
L 301.109494 75.730634 
L 303.201811 74.331953 
L 305.334123 73.180755 
L 307.497143 72.280298 
L 309.512938 71.673554 
L 311.539541 71.283212 
L 313.569571 71.109376 
L 315.59568 71.15137 
L 317.61058 71.407742 
L 319.607066 71.876279 
L 321.578042 72.554014 
L 323.676414 73.519991 
L 325.728051 74.721472 
L 327.724575 76.151841 
L 329.657902 77.803557 
L 331.660374 79.820185 
L 333.571323 82.07212 
L 335.382033 84.54667 
L 337.201595 87.429435 
L 338.887463 90.534008 
L 340.431195 93.841265 
L 341.825213 97.331085 
L 343.139647 101.231121 
L 344.269227 105.288575 
L 345.208256 109.47625 
L 345.952299 113.766337 
L 346.525685 118.40518 
L 346.873194 123.093594 
L 346.994264 127.797351 
L 346.889958 132.482405 
L 346.56295 137.115136 
L 346.017489 141.662589 
L 345.259364 146.092703 
L 344.295848 150.374538 
L 343.135635 154.478487 
L 341.872967 158.153369 
L 340.454354 161.623791 
L 338.890124 164.86923 
L 337.191459 167.870771 
L 335.487489 170.447887 
L 333.686269 172.782776 
L 331.798673 174.864171 
L 329.968928 176.569467 
L 328.083189 178.038718 
L 326.151096 179.266415 
L 324.18244 180.248275 
L 322.187121 180.981246 
L 320.31915 181.437403 
L 318.44475 181.676889 
L 316.571868 181.700127 
L 314.70839 181.508447 
L 312.862106 181.104076 
L 311.040683 180.490121 
L 309.115556 179.599124 
L 307.237094 178.47572 
L 305.414128 177.127043 
L 303.655159 175.561275 
L 301.85079 173.653213 
L 300.138677 171.518995 
L 298.424106 169.008645 
L 296.834586 166.274499 
L 295.379228 163.335788 
L 293.989055 160.012079 
L 292.768196 156.506145 
L 291.723994 152.844769 
L 290.817584 148.829361 
L 290.121446 144.704408 
L 289.639334 140.504182 
L 289.37325 136.263261 
L 289.323447 132.016246 
L 289.488431 127.797488 
L 289.864992 123.640804 
L 290.448239 119.579218 
L 291.23165 115.644693 
L 292.20714 111.867885 
L 293.365135 108.277904 
L 294.694661 104.902094 
L 296.096782 101.933369 
L 297.629655 99.197922 
L 299.281112 96.713506 
L 300.932179 94.618711 
L 302.665529 92.771779 
L 304.469407 91.182527 
L 306.213827 89.933846 
L 307.999382 88.924023 
L 309.815709 88.156928 
L 311.652349 87.635039 
L 313.375614 87.370144 
L 315.098915 87.319582 
L 316.813797 87.482085 
L 318.511905 87.855347 
L 320.303368 88.485358 
L 322.056287 89.348136 
L 323.761089 90.437064 
L 325.408548 91.744302 
L 327.092692 93.369146 
L 328.691393 95.219795 
L 330.285748 97.418222 
L 331.762325 99.838198 
L 333.186706 102.62046 
L 334.458071 105.604812 
L 335.567557 108.765282 
L 336.554832 112.26238 
L 337.346389 115.892359 
L 337.937012 119.621261 
L 338.337977 123.615339 
L 338.510912 127.640231 
L 338.456419 131.655497 
L 338.177357 135.621206 
L 337.678795 139.498328 
L 336.967934 143.249116 
L 336.05402 146.837464 
L 335.007886 150.064837 
L 333.799665 153.087476 
L 332.441807 155.880166 
L 331.029764 158.292974 
L 329.508222 160.461423 
L 327.890488 162.370244 
L 326.286876 163.922855 
L 324.622113 165.223168 
L 323.010635 166.210067 
L 321.366731 166.962683 
L 319.701163 167.478128 
L 318.02474 167.75505 
L 316.348247 167.793631 
L 314.68238 167.59557 
L 313.037676 167.164062 
L 311.424448 166.503762 
L 309.852722 165.620747 
L 308.239054 164.446863 
L 306.694262 163.040524 
L 305.228855 161.413858 
L 303.77471 159.466503 
L 302.431403 157.30523 
L 301.144541 154.813252 
L 300.002358 152.129012 
L 298.96609 149.124351 
L 298.108542 145.967209 
L 297.407815 142.524185 
L 296.917086 138.98858 
L 296.639545 135.400174 
L 296.576018 131.798916 
L 296.737314 128.055602 
L 297.127317 124.386487 
L 297.706368 120.993249 
L 298.478821 117.743306 
L 299.434179 114.670848 
L 300.560038 111.807759 
L 301.777866 109.302449 
L 303.123952 107.036392 
L 304.508143 105.12366 
L 305.98137 103.460065 
L 307.446393 102.125278 
L 308.966188 101.03406 
L 310.52796 100.193016 
L 312.029777 99.632507 
L 313.546354 99.301277 
L 315.066612 99.199741 
L 316.57954 99.326647 
L 318.074276 99.679107 
L 319.540184 100.252631 
L 320.96693 101.04117 
L 322.423854 102.102042 
L 323.81443 103.384784 
L 325.19854 104.965763 
L 326.550064 106.863916 
L 327.781298 108.980984 
L 328.932561 111.413948 
L 329.927944 114.033473 
L 330.793472 116.944273 
L 331.46939 119.989018 
L 331.966806 123.273895 
L 332.246409 126.618914 
L 332.307086 129.979317 
L 332.150618 133.310671 
L 331.781623 136.569446 
L 331.207465 139.713586 
L 330.438119 142.703038 
L 329.486017 145.500258 
L 328.417827 147.964075 
L 327.210464 150.193013 
L 325.942948 152.079249 
L 324.578434 153.711215 
L 323.203375 155.015142 
L 321.769326 156.064155 
L 320.365898 156.817431 
L 318.935676 157.329084 
L 317.567902 157.588858 
L 316.199006 157.629654 
L 314.840044 157.453157 
L 313.501887 157.062791 
L 312.123669 156.424395 
L 310.79248 155.561415 
L 309.454669 154.421337 
L 308.19435 153.057208 
L 306.967257 151.40112 
L 305.800743 149.4425 
L 304.768472 147.280778 
L 303.844646 144.834365 
L 303.060911 142.115132 
L 302.470104 139.266359 
L 302.06641 136.206827 
L 301.882247 133.101436 
L 301.917726 129.999012 
L 302.169552 126.947725 
L 302.63111 123.994346 
L 303.292605 121.183542 
L 304.141255 118.557204 
L 305.117636 116.245237 
L 306.236291 114.16942 
L 307.425425 112.426611 
L 308.654215 111.004258 
L 309.956291 109.835879 
L 311.252374 108.967899 
L 312.521285 108.372346 
L 313.810686 108.005986 
L 315.107501 107.870141 
L 316.398714 107.96382 
L 317.671497 108.283752 
L 318.913339 108.82444 
L 320.170767 109.621363 
L 321.367456 110.641954 
L 322.542372 111.936184 
L 323.670371 113.515944 
L 324.723551 115.386311 
L 325.67174 117.544086 
L 326.455412 119.879783 
L 327.085108 122.456148 
L 327.530555 125.242511 
L 327.75857 128.09045 
L 327.768031 130.947508 
L 327.561794 133.761793 
L 327.146584 136.482906 
L 326.532816 139.062833 
L 325.734362 141.456787 
L 324.806791 143.548183 
L 323.784685 145.330656 
L 322.652657 146.863926 
L 321.480121 148.082216 
L 320.294295 149.003002 
L 319.118374 149.649036 
L 317.916561 150.060263 
L 316.703619 150.234373 
L 315.548962 150.179868 
L 314.356602 149.894782 
L 313.195861 149.382401 
L 312.030933 148.613204 
L 310.930173 147.618057 
L 309.864793 146.3558 
L 308.860496 144.820116 
L 307.945243 143.012375 
L 307.148606 140.942997 
L 306.500903 138.632702 
L 306.032102 136.113526 
L 305.77554 133.519636 
L 305.73583 130.816481 
L 305.923053 128.153176 
L 306.329603 125.588602 
L 306.919473 123.255834 
L 307.687595 121.114072 
L 308.580902 119.266769 
L 309.564997 117.721946 
L 310.608117 116.47733 
L 311.681774 115.522252 
L 312.806901 114.816136 
L 313.918596 114.379779 
L 314.997683 114.186832 
L 316.075607 114.214312 
L 317.13818 114.459272 
L 318.215639 114.940472 
L 319.246273 115.642444 
L 320.254753 116.59463 
L 321.217393 117.805262 
L 322.138861 119.333746 
L 322.950419 121.127898 
L 323.62152 123.167081 
L 324.122114 125.418995 
L 324.417974 127.762579 
L 324.50464 130.217119 
L 324.370566 132.645291 
L 324.022779 134.985852 
L 323.473615 137.180787 
L 322.765822 139.117861 
L 321.93477 140.773857 
L 321.014526 142.138165 
L 320.036797 143.210993 
L 319.030167 144.001462 
L 318.01963 144.525714 
L 316.98641 144.811669 
L 315.987973 144.860341 
L 315.000453 144.689237 
L 314.001341 144.28406 
L 313.046869 143.656992 
L 312.119465 142.785428 
L 311.213615 141.620599 
L 310.39306 140.195395 
L 309.686941 138.52452 
L 309.109688 136.572382 
L 308.715968 134.431738 
L 308.533917 132.222787 
L 308.569226 129.945487 
L 308.825413 127.733256 
L 309.290803 125.652063 
L 309.926357 123.813547 
L 310.695805 122.249254 
L 311.563293 120.976434 
L 312.494794 119.999762 
L 313.426254 119.331954 
L 314.361205 118.922827 
L 315.312208 118.749985 
L 316.22689 118.807128 
L 317.122507 119.079942 
L 318.014084 119.582164 
L 318.879838 120.323962 
L 319.721195 121.345126 
L 320.479193 122.617303 
L 321.142364 124.171821 
L 321.655079 125.940404 
L 321.969426 127.713876 
L 321.969426 127.713876 
" clip-path="url(#p12b008ae1d)" style="fill: none; stroke-dasharray: 4.44,1.92; stroke-dashoffset: 0; stroke: #000000; stroke-width: 1.2"/>
   </g>
   <g id="patch_6">
    <path d="M 240.443977 273.312 
L 240.443977 7.2 
" style="fill: none; stroke: #262626; stroke-linejoin: miter; stroke-linecap: square"/>
   </g>
   <g id="patch_7">
    <path d="M 240.443977 273.312 
L 402.77125 273.312 
" style="fill: none; stroke: #262626; stroke-linejoin: miter; stroke-linecap: square"/>
   </g>
  </g>
 </g>
 <defs>
  <clipPath id="p4c9354c3a8">
   <rect x="45.65125" y="7.2" width="162.327273" height="266.112"/>
  </clipPath>
  <clipPath id="p12b008ae1d">
   <rect x="240.443977" y="7.2" width="162.327273" height="266.112"/>
  </clipPath>
 </defs>
</svg>