<?xml version="1.0" encoding="utf-8" standalone="no"?>
<!DOCTYPE svg PUBLIC "-//W3C//DTD SVG 1.1//EN"
  "http://www.w3.org/Graphics/SVG/1.1/DTD/svg11.dtd">
<svg xmlns:xlink="http://www.w3.org/1999/xlink" width="403.165375pt" height="309.639375pt" viewBox="0 0 403.165375 309.639375" xmlns="http://www.w3.org/2000/svg" version="1.1">
 <metadata>
  <rdf:RDF xmlns:dc="http://purl.org/dc/elements/1.1/" xmlns:cc="http://creativecommons.org/ns#" xmlns:rdf="http://www.w3.org/1999/02/22-rdf-syntax-ns#">
   <cc:Work>
    <dc:type rdf:resource="http://purl.org/dc/dcmitype/StillImage"/>
    <dc:date>2024-10-22T06:43:26.007717</dc:date>
    <dc:format>image/svg+xml</dc:format>
    <dc:creator>
     <cc:Agent>
      <dc:title>Matplotlib v3.9.2, https://matplotlib.org/</dc:title>
     </cc:Agent>
    </dc:creator>
   </cc:Work>
  </rdf:RDF>
 </metadata>
 <defs>
  <style type="text/css">*{stroke-linejoin: round; stroke-linecap: butt}</style>
 </defs>
 <g id="figure_1">
  <g id="patch_1">
   <path d="M 0 309.639375 
L 403.165375 309.639375 
L 403.165375 0 
L 0 0 
z
" style="fill: #ffffff"/>
  </g>
  <g id="axes_1">
   <g id="patch_2">
    <path d="M 38.845375 273.312 
L 395.965375 273.312 
L 395.965375 7.2 
L 38.845375 7.2 
z
" style="fill: #ffffff"/>
   </g>
   <g id="matplotlib.axis_1">
    <g id="xtick_1">
     <g id="line2d_1">
      <defs>
       <path id="m2e9f6b198f" d="M 0 0 
L 0 4.8 
" style="stroke: #262626"/>
      </defs>
      <g>
       <use xlink:href="#m2e9f6b198f" x="55.078102" y="273.312" style="fill: #262626; stroke: #262626"/>
      </g>
     </g>
     <g id="text_1">
      <!-- 0.0 -->
      <g style="fill: #262626" transform="translate(48.962102 287.910875) scale(0.088 -0.088)">
       <defs>
        <path id="ArialMT-30" d="M 266 2259 
Q 266 3072 433 3567 
Q 600 4063 929 4331 
Q 1259 4600 1759 4600 
Q 2128 4600 2406 4451 
Q 2684 4303 2865 4023 
Q 3047 3744 3150 3342 
Q 3253 2941 3253 2259 
Q 3253 1453 3087 958 
Q 2922 463 2592 192 
Q 2263 -78 1759 -78 
Q 1097 -78 719 397 
Q 266 969 266 2259 
z
M 844 2259 
Q 844 1131 1108 757 
Q 1372 384 1759 384 
Q 2147 384 2411 759 
Q 2675 1134 2675 2259 
Q 2675 3391 2411 3762 
Q 2147 4134 1753 4134 
Q 1366 4134 1134 3806 
Q 844 3388 844 2259 
z
" transform="scale(0.015625)"/>
        <path id="ArialMT-2e" d="M 581 0 
L 581 641 
L 1222 641 
L 1222 0 
L 581 0 
z
" transform="scale(0.015625)"/>
       </defs>
       <use xlink:href="#ArialMT-30"/>
       <use xlink:href="#ArialMT-2e" x="55.615234"/>
       <use xlink:href="#ArialMT-30" x="83.398438"/>
      </g>
     </g>
    </g>
    <g id="xtick_2">
     <g id="line2d_2">
      <g>
       <use xlink:href="#m2e9f6b198f" x="120.009011" y="273.312" style="fill: #262626; stroke: #262626"/>
      </g>
     </g>
     <g id="text_2">
      <!-- 0.2 -->
      <g style="fill: #262626" transform="translate(113.893011 287.910875) scale(0.088 -0.088)">
       <defs>
        <path id="ArialMT-32" d="M 3222 541 
L 3222 0 
L 194 0 
Q 188 203 259 391 
Q 375 700 629 1000 
Q 884 1300 1366 1694 
Q 2113 2306 2375 2664 
Q 2638 3022 2638 3341 
Q 2638 3675 2398 3904 
Q 2159 4134 1775 4134 
Q 1369 4134 1125 3890 
Q 881 3647 878 3216 
L 300 3275 
Q 359 3922 746 4261 
Q 1134 4600 1788 4600 
Q 2447 4600 2831 4234 
Q 3216 3869 3216 3328 
Q 3216 3053 3103 2787 
Q 2991 2522 2730 2228 
Q 2469 1934 1863 1422 
Q 1356 997 1212 845 
Q 1069 694 975 541 
L 3222 541 
z
" transform="scale(0.015625)"/>
       </defs>
       <use xlink:href="#ArialMT-30"/>
       <use xlink:href="#ArialMT-2e" x="55.615234"/>
       <use xlink:href="#ArialMT-32" x="83.398438"/>
      </g>
     </g>
    </g>
    <g id="xtick_3">
     <g id="line2d_3">
      <g>
       <use xlink:href="#m2e9f6b198f" x="184.93992" y="273.312" style="fill: #262626; stroke: #262626"/>
      </g>
     </g>
     <g id="text_3">
      <!-- 0.4 -->
      <g style="fill: #262626" transform="translate(178.82392 287.910875) scale(0.088 -0.088)">
       <defs>
        <path id="ArialMT-34" d="M 2069 0 
L 2069 1097 
L 81 1097 
L 81 1613 
L 2172 4581 
L 2631 4581 
L 2631 1613 
L 3250 1613 
L 3250 1097 
L 2631 1097 
L 2631 0 
L 2069 0 
z
M 2069 1613 
L 2069 3678 
L 634 1613 
L 2069 1613 
z
" transform="scale(0.015625)"/>
       </defs>
       <use xlink:href="#ArialMT-30"/>
       <use xlink:href="#ArialMT-2e" x="55.615234"/>
       <use xlink:href="#ArialMT-34" x="83.398438"/>
      </g>
     </g>
    </g>
    <g id="xtick_4">
     <g id="line2d_4">
      <g>
       <use xlink:href="#m2e9f6b198f" x="249.87083" y="273.312" style="fill: #262626; stroke: #262626"/>
      </g>
     </g>
     <g id="text_4">
      <!-- 0.6 -->
      <g style="fill: #262626" transform="translate(243.75483 287.910875) scale(0.088 -0.088)">
       <defs>
        <path id="ArialMT-36" d="M 3184 3459 
L 2625 3416 
Q 2550 3747 2413 3897 
Q 2184 4138 1850 4138 
Q 1581 4138 1378 3988 
Q 1113 3794 959 3422 
Q 806 3050 800 2363 
Q 1003 2672 1297 2822 
Q 1591 2972 1913 2972 
Q 2475 2972 2870 2558 
Q 3266 2144 3266 1488 
Q 3266 1056 3080 686 
Q 2894 316 2569 119 
Q 2244 -78 1831 -78 
Q 1128 -78 684 439 
Q 241 956 241 2144 
Q 241 3472 731 4075 
Q 1159 4600 1884 4600 
Q 2425 4600 2770 4297 
Q 3116 3994 3184 3459 
z
M 888 1484 
Q 888 1194 1011 928 
Q 1134 663 1356 523 
Q 1578 384 1822 384 
Q 2178 384 2434 671 
Q 2691 959 2691 1453 
Q 2691 1928 2437 2201 
Q 2184 2475 1800 2475 
Q 1419 2475 1153 2201 
Q 888 1928 888 1484 
z
" transform="scale(0.015625)"/>
       </defs>
       <use xlink:href="#ArialMT-30"/>
       <use xlink:href="#ArialMT-2e" x="55.615234"/>
       <use xlink:href="#ArialMT-36" x="83.398438"/>
      </g>
     </g>
    </g>
    <g id="xtick_5">
     <g id="line2d_5">
      <g>
       <use xlink:href="#m2e9f6b198f" x="314.801739" y="273.312" style="fill: #262626; stroke: #262626"/>
      </g>
     </g>
     <g id="text_5">
      <!-- 0.8 -->
      <g style="fill: #262626" transform="translate(308.685739 287.910875) scale(0.088 -0.088)">
       <defs>
        <path id="ArialMT-38" d="M 1131 2484 
Q 781 2613 612 2850 
Q 444 3088 444 3419 
Q 444 3919 803 4259 
Q 1163 4600 1759 4600 
Q 2359 4600 2725 4251 
Q 3091 3903 3091 3403 
Q 3091 3084 2923 2848 
Q 2756 2613 2416 2484 
Q 2838 2347 3058 2040 
Q 3278 1734 3278 1309 
Q 3278 722 2862 322 
Q 2447 -78 1769 -78 
Q 1091 -78 675 323 
Q 259 725 259 1325 
Q 259 1772 486 2073 
Q 713 2375 1131 2484 
z
M 1019 3438 
Q 1019 3113 1228 2906 
Q 1438 2700 1772 2700 
Q 2097 2700 2305 2904 
Q 2513 3109 2513 3406 
Q 2513 3716 2298 3927 
Q 2084 4138 1766 4138 
Q 1444 4138 1231 3931 
Q 1019 3725 1019 3438 
z
M 838 1322 
Q 838 1081 952 856 
Q 1066 631 1291 507 
Q 1516 384 1775 384 
Q 2178 384 2440 643 
Q 2703 903 2703 1303 
Q 2703 1709 2433 1975 
Q 2163 2241 1756 2241 
Q 1359 2241 1098 1978 
Q 838 1716 838 1322 
z
" transform="scale(0.015625)"/>
       </defs>
       <use xlink:href="#ArialMT-30"/>
       <use xlink:href="#ArialMT-2e" x="55.615234"/>
       <use xlink:href="#ArialMT-38" x="83.398438"/>
      </g>
     </g>
    </g>
    <g id="xtick_6">
     <g id="line2d_6">
      <g>
       <use xlink:href="#m2e9f6b198f" x="379.732648" y="273.312" style="fill: #262626; stroke: #262626"/>
      </g>
     </g>
     <g id="text_6">
      <!-- 1.0 -->
      <g style="fill: #262626" transform="translate(373.616648 287.910875) scale(0.088 -0.088)">
       <defs>
        <path id="ArialMT-31" d="M 2384 0 
L 1822 0 
L 1822 3584 
Q 1619 3391 1289 3197 
Q 959 3003 697 2906 
L 697 3450 
Q 1169 3672 1522 3987 
Q 1875 4303 2022 4600 
L 2384 4600 
L 2384 0 
z
" transform="scale(0.015625)"/>
       </defs>
       <use xlink:href="#ArialMT-31"/>
       <use xlink:href="#ArialMT-2e" x="55.615234"/>
       <use xlink:href="#ArialMT-30" x="83.398438"/>
      </g>
     </g>
    </g>
    <g id="text_7">
     <!-- $x$ -->
     <g style="fill: #262626" transform="translate(214.525375 300.531375) scale(0.096 -0.096)">
      <defs>
       <path id="DejaVuSans-Oblique-78" d="M 3841 3500 
L 2234 1784 
L 3219 0 
L 2559 0 
L 1819 1388 
L 531 0 
L -166 0 
L 1556 1844 
L 641 3500 
L 1300 3500 
L 1972 2234 
L 3144 3500 
L 3841 3500 
z
" transform="scale(0.015625)"/>
      </defs>
      <use xlink:href="#DejaVuSans-Oblique-78" transform="translate(0 0.3125)"/>
     </g>
    </g>
   </g>
   <g id="matplotlib.axis_2">
    <g id="ytick_1">
     <g id="line2d_7">
      <defs>
       <path id="mff9c141f54" d="M 0 0 
L -4.8 0 
" style="stroke: #262626"/>
      </defs>
      <g>
       <use xlink:href="#mff9c141f54" x="38.845375" y="260.983999" style="fill: #262626; stroke: #262626"/>
      </g>
     </g>
     <g id="text_8">
      <!-- −3 -->
      <g style="fill: #262626" transform="translate(20.512 264.133437) scale(0.088 -0.088)">
       <defs>
        <path id="ArialMT-2212" d="M 3381 1997 
L 356 1997 
L 356 2522 
L 3381 2522 
L 3381 1997 
z
" transform="scale(0.015625)"/>
        <path id="ArialMT-33" d="M 269 1209 
L 831 1284 
Q 928 806 1161 595 
Q 1394 384 1728 384 
Q 2125 384 2398 659 
Q 2672 934 2672 1341 
Q 2672 1728 2419 1979 
Q 2166 2231 1775 2231 
Q 1616 2231 1378 2169 
L 1441 2663 
Q 1497 2656 1531 2656 
Q 1891 2656 2178 2843 
Q 2466 3031 2466 3422 
Q 2466 3731 2256 3934 
Q 2047 4138 1716 4138 
Q 1388 4138 1169 3931 
Q 950 3725 888 3313 
L 325 3413 
Q 428 3978 793 4289 
Q 1159 4600 1703 4600 
Q 2078 4600 2393 4439 
Q 2709 4278 2876 4000 
Q 3044 3722 3044 3409 
Q 3044 3113 2884 2869 
Q 2725 2625 2413 2481 
Q 2819 2388 3044 2092 
Q 3269 1797 3269 1353 
Q 3269 753 2831 336 
Q 2394 -81 1725 -81 
Q 1122 -81 723 278 
Q 325 638 269 1209 
z
" transform="scale(0.015625)"/>
       </defs>
       <use xlink:href="#ArialMT-2212"/>
       <use xlink:href="#ArialMT-33" x="58.398438"/>
      </g>
     </g>
    </g>
    <g id="ytick_2">
     <g id="line2d_8">
      <g>
       <use xlink:href="#mff9c141f54" x="38.845375" y="211.129785" style="fill: #262626; stroke: #262626"/>
      </g>
     </g>
     <g id="text_9">
      <!-- −2 -->
      <g style="fill: #262626" transform="translate(20.512 214.279223) scale(0.088 -0.088)">
       <use xlink:href="#ArialMT-2212"/>
       <use xlink:href="#ArialMT-32" x="58.398438"/>
      </g>
     </g>
    </g>
    <g id="ytick_3">
     <g id="line2d_9">
      <g>
       <use xlink:href="#mff9c141f54" x="38.845375" y="161.275571" style="fill: #262626; stroke: #262626"/>
      </g>
     </g>
     <g id="text_10">
      <!-- −1 -->
      <g style="fill: #262626" transform="translate(20.512 164.425009) scale(0.088 -0.088)">
       <use xlink:href="#ArialMT-2212"/>
       <use xlink:href="#ArialMT-31" x="58.398438"/>
      </g>
     </g>
    </g>
    <g id="ytick_4">
     <g id="line2d_10">
      <g>
       <use xlink:href="#mff9c141f54" x="38.845375" y="111.421357" style="fill: #262626; stroke: #262626"/>
      </g>
     </g>
     <g id="text_11">
      <!-- 0 -->
      <g style="fill: #262626" transform="translate(25.65175 114.570794) scale(0.088 -0.088)">
       <use xlink:href="#ArialMT-30"/>
      </g>
     </g>
    </g>
    <g id="ytick_5">
     <g id="line2d_11">
      <g>
       <use xlink:href="#mff9c141f54" x="38.845375" y="61.567143" style="fill: #262626; stroke: #262626"/>
      </g>
     </g>
     <g id="text_12">
      <!-- 1 -->
      <g style="fill: #262626" transform="translate(25.65175 64.71658) scale(0.088 -0.088)">
       <use xlink:href="#ArialMT-31"/>
      </g>
     </g>
    </g>
    <g id="ytick_6">
     <g id="line2d_12">
      <g>
       <use xlink:href="#mff9c141f54" x="38.845375" y="11.712929" style="fill: #262626; stroke: #262626"/>
      </g>
     </g>
     <g id="text_13">
      <!-- 2 -->
      <g style="fill: #262626" transform="translate(25.65175 14.862366) scale(0.088 -0.088)">
       <use xlink:href="#ArialMT-32"/>
      </g>
     </g>
    </g>
    <g id="text_14">
     <!-- $\phi_i(x)$ -->
     <g style="fill: #262626" transform="translate(14.496 151.104) rotate(-90) scale(0.096 -0.096)">
      <defs>
       <path id="DejaVuSans-Oblique-3d5" d="M 2991 4863 
L 2738 3572 
Q 3363 3572 3684 3094 
Q 4016 2606 3850 1747 
Q 3681 888 3159 400 
Q 2653 -78 2028 -78 
L 1784 -1331 
L 1213 -1331 
L 1456 -78 
Q 834 -78 509 400 
Q 178 888 347 1747 
Q 513 2606 1034 3094 
Q 1544 3572 2166 3572 
L 2419 4863 
L 2991 4863 
z
M 2128 434 
Q 2481 434 2784 756 
Q 3116 1116 3244 1747 
Q 3369 2372 3169 2738 
Q 2991 3059 2638 3059 
L 2128 434 
z
M 1556 434 
L 2066 3059 
Q 1716 3059 1413 2738 
Q 1072 2372 953 1747 
Q 834 1116 1028 756 
Q 1203 434 1556 434 
z
" transform="scale(0.015625)"/>
       <path id="DejaVuSans-Oblique-69" d="M 1172 4863 
L 1747 4863 
L 1606 4134 
L 1031 4134 
L 1172 4863 
z
M 909 3500 
L 1484 3500 
L 800 0 
L 225 0 
L 909 3500 
z
" transform="scale(0.015625)"/>
       <path id="DejaVuSans-28" d="M 1984 4856 
Q 1566 4138 1362 3434 
Q 1159 2731 1159 2009 
Q 1159 1288 1364 580 
Q 1569 -128 1984 -844 
L 1484 -844 
Q 1016 -109 783 600 
Q 550 1309 550 2009 
Q 550 2706 781 3412 
Q 1013 4119 1484 4856 
L 1984 4856 
z
" transform="scale(0.015625)"/>
       <path id="DejaVuSans-29" d="M 513 4856 
L 1013 4856 
Q 1481 4119 1714 3412 
Q 1947 2706 1947 2009 
Q 1947 1309 1714 600 
Q 1481 -109 1013 -844 
L 513 -844 
Q 928 -128 1133 580 
Q 1338 1288 1338 2009 
Q 1338 2731 1133 3434 
Q 928 4138 513 4856 
z
" transform="scale(0.015625)"/>
      </defs>
      <use xlink:href="#DejaVuSans-Oblique-3d5" transform="translate(0 0.015625)"/>
      <use xlink:href="#DejaVuSans-Oblique-69" transform="translate(65.966797 -16.390625) scale(0.7)"/>
      <use xlink:href="#DejaVuSans-28" transform="translate(88.149414 0.015625)"/>
      <use xlink:href="#DejaVuSans-Oblique-78" transform="translate(127.163086 0.015625)"/>
      <use xlink:href="#DejaVuSans-29" transform="translate(186.342773 0.015625)"/>
     </g>
    </g>
   </g>
   <g id="line2d_13">
    <path d="M 55.078102 114.254267 
L 58.357441 114.513566 
L 61.63678 114.76855 
L 64.916119 115.012667 
L 68.195458 115.238308 
L 71.474796 115.436854 
L 74.754135 115.598787 
L 78.033474 115.713889 
L 81.312813 115.771531 
L 84.592152 115.761067 
L 87.871491 115.672324 
L 91.15083 115.496189 
L 94.430168 115.225281 
L 97.709507 114.854667 
L 100.988846 114.382611 
L 104.268185 113.811295 
L 107.547524 113.147477 
L 110.826863 112.403022 
L 114.106201 111.59527 
L 117.38554 110.747178 
L 120.664879 109.887216 
L 123.944218 109.048968 
L 127.223557 108.270448 
L 130.502896 107.593136 
L 133.782235 107.060746 
L 137.061573 106.717803 
L 140.340912 106.608057 
L 143.620251 106.772846 
L 146.89959 107.249472 
L 150.178929 108.069684 
L 153.458268 109.258354 
L 156.737606 110.832422 
L 160.016945 112.800154 
L 163.296284 115.160779 
L 166.575623 117.904481 
L 169.854962 121.012775 
L 173.134301 124.459204 
L 176.413639 128.210336 
L 179.692978 132.226962 
L 182.972317 136.465448 
L 186.251656 140.879149 
L 189.530995 145.419803 
L 192.810334 150.038856 
L 196.089673 154.688637 
L 199.369011 159.323355 
L 202.64835 163.899899 
L 205.927689 168.37841 
L 209.207028 172.722652 
L 212.486367 176.900181 
L 215.765706 180.88236 
L 219.045044 184.644227 
L 222.324383 188.164272 
L 225.603722 191.424144 
L 228.883061 194.40833 
L 232.1624 197.103822 
L 235.441739 199.499798 
L 238.721077 201.587337 
L 242.000416 203.359167 
L 245.279755 204.809455 
L 248.559094 205.933647 
L 251.838433 206.728335 
L 255.117772 207.191175 
L 258.397111 207.320824 
L 261.676449 207.116915 
L 264.955788 206.58005 
L 268.235127 205.711821 
L 271.514466 204.514857 
L 274.793805 202.992897 
L 278.073144 201.150892 
L 281.352482 198.995145 
L 284.631821 196.533482 
L 287.91116 193.775468 
L 291.190499 190.732647 
L 294.469838 187.418814 
L 297.749177 183.850307 
L 301.028515 180.046294 
L 304.307854 176.029033 
L 307.587193 171.824094 
L 310.866532 167.460492 
L 314.145871 162.970718 
L 317.42521 158.390631 
L 320.704549 153.759184 
L 323.983887 149.117977 
L 327.263226 144.510615 
L 330.542565 139.981896 
L 333.821904 135.576824 
L 337.101243 131.339502 
L 340.380582 127.311936 
L 343.65992 123.532814 
L 346.939259 120.036324 
L 350.218598 116.851076 
L 353.497937 113.999186 
L 356.777276 111.495602 
L 360.056615 109.347683 
L 363.335954 107.555093 
L 366.615292 106.109998 
L 369.894631 104.997564 
L 373.17397 104.196728 
L 376.453309 103.681196 
L 379.732648 103.420609 
" clip-path="url(#p81a08d51a9)" style="fill: none; stroke: #1f77b4; stroke-width: 1.2; stroke-linecap: round"/>
   </g>
   <g id="line2d_14">
    <path d="M 55.078102 95.340443 
L 58.357441 94.406175 
L 61.63678 93.585353 
L 64.916119 92.905378 
L 68.195458 92.39346 
L 71.474796 92.07595 
L 74.754135 91.977617 
L 78.033474 92.120853 
L 81.312813 92.524822 
L 84.592152 93.204528 
L 87.871491 94.16984 
L 91.15083 95.424452 
L 94.430168 96.964843 
L 97.709507 98.779238 
L 100.988846 100.846661 
L 104.268185 103.136115 
L 107.547524 105.605991 
L 110.826863 108.203783 
L 114.106201 110.866184 
L 117.38554 113.519662 
L 120.664879 116.081558 
L 123.944218 118.461751 
L 127.223557 120.564895 
L 130.502896 122.293205 
L 133.782235 123.549692 
L 137.061573 124.241775 
L 140.340912 124.285077 
L 143.620251 123.60726 
L 146.89959 122.151686 
L 150.178929 119.880703 
L 153.458268 116.778361 
L 156.737606 112.8524 
L 160.016945 108.135358 
L 163.296284 102.684731 
L 166.575623 96.582145 
L 169.854962 89.931562 
L 173.134301 82.856612 
L 176.413639 75.497169 
L 179.692978 68.005348 
L 182.972317 60.541108 
L 186.251656 53.267669 
L 189.530995 46.346954 
L 192.810334 39.935223 
L 196.089673 34.17908 
L 199.369011 29.211972 
L 202.64835 25.151257 
L 205.927689 22.095913 
L 209.207028 20.124874 
L 212.486367 19.296 
L 215.765706 19.645611 
L 219.045044 21.188547 
L 222.324383 23.91866 
L 225.603722 27.809676 
L 228.883061 32.816346 
L 232.1624 38.875827 
L 235.441739 45.909219 
L 238.721077 53.823229 
L 242.000416 62.511915 
L 245.279755 71.858477 
L 248.559094 81.737093 
L 251.838433 92.014768 
L 255.117772 102.553202 
L 258.397111 113.210665 
L 261.676449 123.843878 
L 264.955788 134.309894 
L 268.235127 144.467988 
L 271.514466 154.18154 
L 274.793805 163.319915 
L 278.073144 171.760338 
L 281.352482 179.389746 
L 284.631821 186.106613 
L 287.91116 191.822726 
L 291.190499 196.464892 
L 294.469838 199.976528 
L 297.749177 202.319113 
L 301.028515 203.473425 
L 304.307854 203.440518 
L 307.587193 202.242357 
L 310.866532 199.922052 
L 314.145871 196.543609 
L 317.42521 192.191133 
L 320.704549 186.967458 
L 323.983887 180.992146 
L 327.263226 174.398887 
L 330.542565 167.332322 
L 333.821904 159.944369 
L 337.101243 152.390162 
L 340.380582 144.823748 
L 343.65992 137.393725 
L 346.939259 130.23899 
L 350.218598 123.484821 
L 353.497937 117.239462 
L 356.777276 111.591389 
L 360.056615 106.607385 
L 363.335954 102.331518 
L 366.615292 98.785056 
L 369.894631 95.967299 
L 373.17397 93.857258 
L 376.453309 92.416061 
L 379.732648 91.589927 
" clip-path="url(#p81a08d51a9)" style="fill: none; stroke: #ff7f0e; stroke-width: 1.2; stroke-linecap: round"/>
   </g>
   <g id="line2d_15">
    <path d="M 55.078102 254.182817 
L 58.357441 258.222457 
L 61.63678 260.617635 
L 64.916119 261.216 
L 68.195458 259.912463 
L 71.474796 256.656576 
L 74.754135 251.457851 
L 78.033474 244.388596 
L 81.312813 235.583963 
L 84.592152 225.239069 
L 87.871491 213.603194 
L 91.15083 200.97125 
L 94.430168 187.672896 
L 97.709507 174.059781 
L 100.988846 160.491585 
L 104.268185 147.321561 
L 107.547524 134.882347 
L 110.826863 123.4728 
L 114.106201 113.346548 
L 117.38554 104.702844 
L 120.664879 97.680172 
L 123.944218 92.352865 
L 127.223557 88.730843 
L 130.502896 86.76234 
L 133.782235 86.339377 
L 137.061573 87.305522 
L 140.340912 89.465424 
L 143.620251 92.595497 
L 146.89959 96.455117 
L 150.178929 100.797716 
L 153.458268 105.381199 
L 156.737606 109.97722 
L 160.016945 114.378954 
L 163.296284 118.407126 
L 166.575623 121.914185 
L 169.854962 124.786654 
L 173.134301 126.945751 
L 176.413639 128.346498 
L 179.692978 128.975573 
L 182.972317 128.848194 
L 186.251656 128.004335 
L 189.530995 126.504566 
L 192.810334 124.425762 
L 196.089673 121.856906 
L 199.369011 118.895131 
L 202.64835 115.64213 
L 205.927689 112.200995 
L 209.207028 108.673504 
L 212.486367 105.157844 
L 215.765706 101.746751 
L 219.045044 98.526003 
L 222.324383 95.573226 
L 225.603722 92.956953 
L 228.883061 90.735894 
L 232.1624 88.958377 
L 235.441739 87.661944 
L 238.721077 86.873076 
L 242.000416 86.607052 
L 245.279755 86.867939 
L 248.559094 87.648722 
L 251.838433 88.931581 
L 255.117772 90.688335 
L 258.397111 92.881046 
L 261.676449 95.462793 
L 264.955788 98.378622 
L 268.235127 101.566655 
L 271.514466 104.959355 
L 274.793805 108.484934 
L 278.073144 112.068868 
L 281.352482 115.635517 
L 284.631821 119.109802 
L 287.91116 122.418917 
L 291.190499 125.494037 
L 294.469838 128.271974 
L 297.749177 130.696756 
L 301.028515 132.721063 
L 304.307854 134.307487 
L 307.587193 135.429557 
L 310.866532 136.072503 
L 314.145871 136.233684 
L 317.42521 135.92269 
L 320.704549 135.161048 
L 323.983887 133.981559 
L 327.263226 132.42724 
L 330.542565 130.549923 
L 333.821904 128.408518 
L 337.101243 126.067033 
L 340.380582 123.592402 
L 343.65992 121.052219 
L 346.939259 118.512479 
L 350.218598 116.035425 
L 353.497937 113.677591 
L 356.777276 111.488147 
L 360.056615 109.507595 
L 363.335954 107.766897 
L 366.615292 106.287033 
L 369.894631 105.079015 
L 373.17397 104.144321 
L 376.453309 103.475705 
L 379.732648 103.058322 
" clip-path="url(#p81a08d51a9)" style="fill: none; stroke: #2ca02c; stroke-width: 1.2; stroke-linecap: round"/>
   </g>
   <g id="line2d_16">
    <path d="M 55.078102 151.711855 
L 58.357441 151.538665 
L 61.63678 150.731461 
L 64.916119 149.280299 
L 68.195458 147.20109 
L 71.474796 144.53747 
L 74.754135 141.361301 
L 78.033474 137.771643 
L 81.312813 133.892037 
L 84.592152 129.866104 
L 87.871491 125.851536 
L 91.15083 122.012665 
L 94.430168 118.511945 
L 97.709507 115.500747 
L 100.988846 113.10999 
L 104.268185 111.441169 
L 107.547524 110.55837 
L 110.826863 110.481874 
L 114.106201 111.18386 
L 117.38554 112.586653 
L 120.664879 114.563817 
L 123.944218 116.944214 
L 127.223557 119.519002 
L 130.502896 122.051299 
L 133.782235 124.288092 
L 137.061573 125.973788 
L 140.340912 126.864655 
L 143.620251 126.743337 
L 146.89959 125.43257 
L 150.178929 122.807259 
L 153.458268 118.804155 
L 156.737606 113.428501 
L 160.016945 106.757199 
L 163.296284 98.938253 
L 166.575623 90.18647 
L 169.854962 80.775616 
L 173.134301 71.02745 
L 176.413639 61.298208 
L 179.692978 51.963267 
L 182.972317 43.400779 
L 186.251656 35.975124 
L 189.530995 30.020983 
L 192.810334 25.828784 
L 196.089673 23.632165 
L 199.369011 23.597945 
L 202.64835 25.81899 
L 205.927689 30.310146 
L 209.207028 37.007302 
L 212.486367 45.76949 
L 215.765706 56.383817 
L 219.045044 68.572909 
L 222.324383 82.004498 
L 225.603722 96.302716 
L 228.883061 111.060647 
L 232.1624 125.853656 
L 235.441739 140.25306 
L 238.721077 153.839693 
L 242.000416 166.216955 
L 245.279755 177.022988 
L 248.559094 185.941641 
L 251.838433 192.711946 
L 255.117772 197.135854 
L 258.397111 199.084066 
L 261.676449 198.499788 
L 264.955788 195.400352 
L 268.235127 189.876636 
L 271.514466 182.090321 
L 274.793805 172.269041 
L 278.073144 160.699549 
L 281.352482 147.719076 
L 284.631821 133.705114 
L 287.91116 119.063887 
L 291.190499 104.217851 
L 294.469838 89.592577 
L 297.749177 75.603428 
L 301.028515 62.642448 
L 304.307854 51.065929 
L 307.587193 41.183071 
L 310.866532 33.246194 
L 314.145871 27.442886 
L 317.42521 23.890419 
L 320.704549 22.632718 
L 323.983887 23.640038 
L 327.263226 26.811414 
L 330.542565 31.979823 
L 333.821904 38.919853 
L 337.101243 47.357577 
L 340.380582 56.982173 
L 343.65992 67.458779 
L 346.939259 78.441961 
L 350.218598 89.589169 
L 353.497937 100.573534 
L 356.777276 111.095413 
L 360.056615 120.892167 
L 363.335954 129.745762 
L 366.615292 137.487922 
L 369.894631 144.00271 
L 373.17397 149.226565 
L 376.453309 153.145982 
L 379.732648 155.793114 
" clip-path="url(#p81a08d51a9)" style="fill: none; stroke: #d62728; stroke-width: 1.2; stroke-linecap: round"/>
   </g>
   <g id="patch_3">
    <path d="M 38.845375 273.312 
L 38.845375 7.2 
" style="fill: none; stroke: #262626; stroke-linejoin: miter; stroke-linecap: square"/>
   </g>
   <g id="patch_4">
    <path d="M 395.965375 273.312 
L 395.965375 7.2 
" style="fill: none; stroke: #262626; stroke-linejoin: miter; stroke-linecap: square"/>
   </g>
   <g id="patch_5">
    <path d="M 38.845375 273.312 
L 395.965375 273.312 
" style="fill: none; stroke: #262626; stroke-linejoin: miter; stroke-linecap: square"/>
   </g>
   <g id="patch_6">
    <path d="M 38.845375 7.2 
L 395.965375 7.2 
" style="fill: none; stroke: #262626; stroke-linejoin: miter; stroke-linecap: square"/>
   </g>
  </g>
 </g>
 <defs>
  <clipPath id="p81a08d51a9">
   <rect x="38.845375" y="7.2" width="357.12" height="266.112"/>
  </clipPath>
 </defs>
</svg>