<?xml version="1.0" encoding="utf-8" standalone="no"?>
<!DOCTYPE svg PUBLIC "-//W3C//DTD SVG 1.1//EN"
  "http://www.w3.org/Graphics/SVG/1.1/DTD/svg11.dtd">
<svg xmlns:xlink="http://www.w3.org/1999/xlink" width="293.4pt" height="197.067875pt" viewBox="0 0 293.4 197.067875" xmlns="http://www.w3.org/2000/svg" version="1.1">
 <metadata>
  <rdf:RDF xmlns:dc="http://purl.org/dc/elements/1.1/" xmlns:cc="http://creativecommons.org/ns#" xmlns:rdf="http://www.w3.org/1999/02/22-rdf-syntax-ns#">
   <cc:Work>
    <dc:type rdf:resource="http://purl.org/dc/dcmitype/StillImage"/>
    <dc:date>2025-04-08T16:30:16.983100</dc:date>
    <dc:format>image/svg+xml</dc:format>
    <dc:creator>
     <cc:Agent>
      <dc:title>Matplotlib v3.10.1, https://matplotlib.org/</dc:title>
     </cc:Agent>
    </dc:creator>
   </cc:Work>
  </rdf:RDF>
 </metadata>
 <defs>
  <style type="text/css">*{stroke-linejoin: round; stroke-linecap: butt}</style>
 </defs>
 <g id="figure_1">
  <g id="patch_1">
   <path d="M 0 197.067875 
L 293.4 197.067875 
L 293.4 0 
L 0 0 
z
" style="fill: #ffffff"/>
  </g>
  <g id="axes_1">
   <g id="patch_2">
    <path d="M 7.2 173.52 
L 286.2 173.52 
L 286.2 7.2 
L 7.2 7.2 
z
" style="fill: #ffffff"/>
   </g>
   <g id="matplotlib.axis_1">
    <g id="xtick_1">
     <g id="line2d_1">
      <defs>
       <path id="mb0e9c0b10b" d="M 0 0 
L 0 4.8 
" style="stroke: #262626"/>
      </defs>
      <g>
       <use xlink:href="#mb0e9c0b10b" x="19.881818" y="173.52" style="fill: #262626; stroke: #262626"/>
      </g>
     </g>
     <g id="text_1">
      <!-- −10.0 -->
      <g style="fill: #262626" transform="translate(8.749131 188.118875) scale(0.088 -0.088)">
       <defs>
        <path id="ArialMT-2212" d="M 3381 1997 
L 356 1997 
L 356 2522 
L 3381 2522 
L 3381 1997 
z
" transform="scale(0.015625)"/>
        <path id="ArialMT-31" d="M 2384 0 
L 1822 0 
L 1822 3584 
Q 1619 3391 1289 3197 
Q 959 3003 697 2906 
L 697 3450 
Q 1169 3672 1522 3987 
Q 1875 4303 2022 4600 
L 2384 4600 
L 2384 0 
z
" transform="scale(0.015625)"/>
        <path id="ArialMT-30" d="M 266 2259 
Q 266 3072 433 3567 
Q 600 4063 929 4331 
Q 1259 4600 1759 4600 
Q 2128 4600 2406 4451 
Q 2684 4303 2865 4023 
Q 3047 3744 3150 3342 
Q 3253 2941 3253 2259 
Q 3253 1453 3087 958 
Q 2922 463 2592 192 
Q 2263 -78 1759 -78 
Q 1097 -78 719 397 
Q 266 969 266 2259 
z
M 844 2259 
Q 844 1131 1108 757 
Q 1372 384 1759 384 
Q 2147 384 2411 759 
Q 2675 1134 2675 2259 
Q 2675 3391 2411 3762 
Q 2147 4134 1753 4134 
Q 1366 4134 1134 3806 
Q 844 3388 844 2259 
z
" transform="scale(0.015625)"/>
        <path id="ArialMT-2e" d="M 581 0 
L 581 641 
L 1222 641 
L 1222 0 
L 581 0 
z
" transform="scale(0.015625)"/>
       </defs>
       <use xlink:href="#ArialMT-2212"/>
       <use xlink:href="#ArialMT-31" transform="translate(58.398438 0)"/>
       <use xlink:href="#ArialMT-30" transform="translate(114.013672 0)"/>
       <use xlink:href="#ArialMT-2e" transform="translate(169.628906 0)"/>
       <use xlink:href="#ArialMT-30" transform="translate(197.412109 0)"/>
      </g>
     </g>
    </g>
    <g id="xtick_2">
     <g id="line2d_2">
      <g>
       <use xlink:href="#mb0e9c0b10b" x="51.586364" y="173.52" style="fill: #262626; stroke: #262626"/>
      </g>
     </g>
     <g id="text_2">
      <!-- −7.5 -->
      <g style="fill: #262626" transform="translate(42.900489 188.118875) scale(0.088 -0.088)">
       <defs>
        <path id="ArialMT-37" d="M 303 3981 
L 303 4522 
L 3269 4522 
L 3269 4084 
Q 2831 3619 2401 2847 
Q 1972 2075 1738 1259 
Q 1569 684 1522 0 
L 944 0 
Q 953 541 1156 1306 
Q 1359 2072 1739 2783 
Q 2119 3494 2547 3981 
L 303 3981 
z
" transform="scale(0.015625)"/>
        <path id="ArialMT-35" d="M 266 1200 
L 856 1250 
Q 922 819 1161 601 
Q 1400 384 1738 384 
Q 2144 384 2425 690 
Q 2706 997 2706 1503 
Q 2706 1984 2436 2262 
Q 2166 2541 1728 2541 
Q 1456 2541 1237 2417 
Q 1019 2294 894 2097 
L 366 2166 
L 809 4519 
L 3088 4519 
L 3088 3981 
L 1259 3981 
L 1013 2750 
Q 1425 3038 1878 3038 
Q 2478 3038 2890 2622 
Q 3303 2206 3303 1553 
Q 3303 931 2941 478 
Q 2500 -78 1738 -78 
Q 1113 -78 717 272 
Q 322 622 266 1200 
z
" transform="scale(0.015625)"/>
       </defs>
       <use xlink:href="#ArialMT-2212"/>
       <use xlink:href="#ArialMT-37" transform="translate(58.398438 0)"/>
       <use xlink:href="#ArialMT-2e" transform="translate(114.013672 0)"/>
       <use xlink:href="#ArialMT-35" transform="translate(141.796875 0)"/>
      </g>
     </g>
    </g>
    <g id="xtick_3">
     <g id="line2d_3">
      <g>
       <use xlink:href="#mb0e9c0b10b" x="83.290909" y="173.52" style="fill: #262626; stroke: #262626"/>
      </g>
     </g>
     <g id="text_3">
      <!-- −5.0 -->
      <g style="fill: #262626" transform="translate(74.605034 188.118875) scale(0.088 -0.088)">
       <use xlink:href="#ArialMT-2212"/>
       <use xlink:href="#ArialMT-35" transform="translate(58.398438 0)"/>
       <use xlink:href="#ArialMT-2e" transform="translate(114.013672 0)"/>
       <use xlink:href="#ArialMT-30" transform="translate(141.796875 0)"/>
      </g>
     </g>
    </g>
    <g id="xtick_4">
     <g id="line2d_4">
      <g>
       <use xlink:href="#mb0e9c0b10b" x="114.995455" y="173.52" style="fill: #262626; stroke: #262626"/>
      </g>
     </g>
     <g id="text_4">
      <!-- −2.5 -->
      <g style="fill: #262626" transform="translate(106.30958 188.118875) scale(0.088 -0.088)">
       <defs>
        <path id="ArialMT-32" d="M 3222 541 
L 3222 0 
L 194 0 
Q 188 203 259 391 
Q 375 700 629 1000 
Q 884 1300 1366 1694 
Q 2113 2306 2375 2664 
Q 2638 3022 2638 3341 
Q 2638 3675 2398 3904 
Q 2159 4134 1775 4134 
Q 1369 4134 1125 3890 
Q 881 3647 878 3216 
L 300 3275 
Q 359 3922 746 4261 
Q 1134 4600 1788 4600 
Q 2447 4600 2831 4234 
Q 3216 3869 3216 3328 
Q 3216 3053 3103 2787 
Q 2991 2522 2730 2228 
Q 2469 1934 1863 1422 
Q 1356 997 1212 845 
Q 1069 694 975 541 
L 3222 541 
z
" transform="scale(0.015625)"/>
       </defs>
       <use xlink:href="#ArialMT-2212"/>
       <use xlink:href="#ArialMT-32" transform="translate(58.398438 0)"/>
       <use xlink:href="#ArialMT-2e" transform="translate(114.013672 0)"/>
       <use xlink:href="#ArialMT-35" transform="translate(141.796875 0)"/>
      </g>
     </g>
    </g>
    <g id="xtick_5">
     <g id="line2d_5">
      <g>
       <use xlink:href="#mb0e9c0b10b" x="146.7" y="173.52" style="fill: #262626; stroke: #262626"/>
      </g>
     </g>
     <g id="text_5">
      <!-- 0.0 -->
      <g style="fill: #262626" transform="translate(140.584 188.118875) scale(0.088 -0.088)">
       <use xlink:href="#ArialMT-30"/>
       <use xlink:href="#ArialMT-2e" transform="translate(55.615234 0)"/>
       <use xlink:href="#ArialMT-30" transform="translate(83.398438 0)"/>
      </g>
     </g>
    </g>
    <g id="xtick_6">
     <g id="line2d_6">
      <g>
       <use xlink:href="#mb0e9c0b10b" x="178.404545" y="173.52" style="fill: #262626; stroke: #262626"/>
      </g>
     </g>
     <g id="text_6">
      <!-- 2.5 -->
      <g style="fill: #262626" transform="translate(172.288545 188.118875) scale(0.088 -0.088)">
       <use xlink:href="#ArialMT-32"/>
       <use xlink:href="#ArialMT-2e" transform="translate(55.615234 0)"/>
       <use xlink:href="#ArialMT-35" transform="translate(83.398438 0)"/>
      </g>
     </g>
    </g>
    <g id="xtick_7">
     <g id="line2d_7">
      <g>
       <use xlink:href="#mb0e9c0b10b" x="210.109091" y="173.52" style="fill: #262626; stroke: #262626"/>
      </g>
     </g>
     <g id="text_7">
      <!-- 5.0 -->
      <g style="fill: #262626" transform="translate(203.993091 188.118875) scale(0.088 -0.088)">
       <use xlink:href="#ArialMT-35"/>
       <use xlink:href="#ArialMT-2e" transform="translate(55.615234 0)"/>
       <use xlink:href="#ArialMT-30" transform="translate(83.398438 0)"/>
      </g>
     </g>
    </g>
    <g id="xtick_8">
     <g id="line2d_8">
      <g>
       <use xlink:href="#mb0e9c0b10b" x="241.813636" y="173.52" style="fill: #262626; stroke: #262626"/>
      </g>
     </g>
     <g id="text_8">
      <!-- 7.5 -->
      <g style="fill: #262626" transform="translate(235.697636 188.118875) scale(0.088 -0.088)">
       <use xlink:href="#ArialMT-37"/>
       <use xlink:href="#ArialMT-2e" transform="translate(55.615234 0)"/>
       <use xlink:href="#ArialMT-35" transform="translate(83.398438 0)"/>
      </g>
     </g>
    </g>
    <g id="xtick_9">
     <g id="line2d_9">
      <g>
       <use xlink:href="#mb0e9c0b10b" x="273.518182" y="173.52" style="fill: #262626; stroke: #262626"/>
      </g>
     </g>
     <g id="text_9">
      <!-- 10.0 -->
      <g style="fill: #262626" transform="translate(264.955369 188.118875) scale(0.088 -0.088)">
       <use xlink:href="#ArialMT-31"/>
       <use xlink:href="#ArialMT-30" transform="translate(55.615234 0)"/>
       <use xlink:href="#ArialMT-2e" transform="translate(111.230469 0)"/>
       <use xlink:href="#ArialMT-30" transform="translate(139.013672 0)"/>
      </g>
     </g>
    </g>
   </g>
   <g id="matplotlib.axis_2"/>
   <g id="patch_3">
    <path d="M 19.881818 173.52 
L 25.058071 173.52 
L 25.058071 173.52 
L 19.881818 173.52 
z
" clip-path="url(#p2f58f9e36b)" style="fill: #1f77b4; opacity: 0.5; stroke: #ffffff; stroke-width: 0.8; stroke-linejoin: miter"/>
   </g>
   <g id="patch_4">
    <path d="M 25.058071 173.52 
L 30.234323 173.52 
L 30.234323 173.52 
L 25.058071 173.52 
z
" clip-path="url(#p2f58f9e36b)" style="fill: #1f77b4; opacity: 0.5; stroke: #ffffff; stroke-width: 0.8; stroke-linejoin: miter"/>
   </g>
   <g id="patch_5">
    <path d="M 30.234323 173.52 
L 35.410575 173.52 
L 35.410575 173.52 
L 30.234323 173.52 
z
" clip-path="url(#p2f58f9e36b)" style="fill: #1f77b4; opacity: 0.5; stroke: #ffffff; stroke-width: 0.8; stroke-linejoin: miter"/>
   </g>
   <g id="patch_6">
    <path d="M 35.410575 173.52 
L 40.586827 173.52 
L 40.586827 173.52 
L 35.410575 173.52 
z
" clip-path="url(#p2f58f9e36b)" style="fill: #1f77b4; opacity: 0.5; stroke: #ffffff; stroke-width: 0.8; stroke-linejoin: miter"/>
   </g>
   <g id="patch_7">
    <path d="M 40.586827 173.52 
L 45.76308 173.52 
L 45.76308 173.52 
L 40.586827 173.52 
z
" clip-path="url(#p2f58f9e36b)" style="fill: #1f77b4; opacity: 0.5; stroke: #ffffff; stroke-width: 0.8; stroke-linejoin: miter"/>
   </g>
   <g id="patch_8">
    <path d="M 45.76308 173.52 
L 50.939332 173.52 
L 50.939332 173.52 
L 45.76308 173.52 
z
" clip-path="url(#p2f58f9e36b)" style="fill: #1f77b4; opacity: 0.5; stroke: #ffffff; stroke-width: 0.8; stroke-linejoin: miter"/>
   </g>
   <g id="patch_9">
    <path d="M 50.939332 173.52 
L 56.115584 173.52 
L 56.115584 173.52 
L 50.939332 173.52 
z
" clip-path="url(#p2f58f9e36b)" style="fill: #1f77b4; opacity: 0.5; stroke: #ffffff; stroke-width: 0.8; stroke-linejoin: miter"/>
   </g>
   <g id="patch_10">
    <path d="M 56.115584 173.52 
L 61.291837 173.52 
L 61.291837 173.52 
L 56.115584 173.52 
z
" clip-path="url(#p2f58f9e36b)" style="fill: #1f77b4; opacity: 0.5; stroke: #ffffff; stroke-width: 0.8; stroke-linejoin: miter"/>
   </g>
   <g id="patch_11">
    <path d="M 61.291837 173.52 
L 66.468089 173.52 
L 66.468089 173.52 
L 61.291837 173.52 
z
" clip-path="url(#p2f58f9e36b)" style="fill: #1f77b4; opacity: 0.5; stroke: #ffffff; stroke-width: 0.8; stroke-linejoin: miter"/>
   </g>
   <g id="patch_12">
    <path d="M 66.468089 173.52 
L 71.644341 173.52 
L 71.644341 173.52 
L 66.468089 173.52 
z
" clip-path="url(#p2f58f9e36b)" style="fill: #1f77b4; opacity: 0.5; stroke: #ffffff; stroke-width: 0.8; stroke-linejoin: miter"/>
   </g>
   <g id="patch_13">
    <path d="M 71.644341 173.52 
L 76.820594 173.52 
L 76.820594 173.52 
L 71.644341 173.52 
z
" clip-path="url(#p2f58f9e36b)" style="fill: #1f77b4; opacity: 0.5; stroke: #ffffff; stroke-width: 0.8; stroke-linejoin: miter"/>
   </g>
   <g id="patch_14">
    <path d="M 76.820594 173.52 
L 81.996846 173.52 
L 81.996846 173.52 
L 76.820594 173.52 
z
" clip-path="url(#p2f58f9e36b)" style="fill: #1f77b4; opacity: 0.5; stroke: #ffffff; stroke-width: 0.8; stroke-linejoin: miter"/>
   </g>
   <g id="patch_15">
    <path d="M 81.996846 173.52 
L 87.173098 173.52 
L 87.173098 173.52 
L 81.996846 173.52 
z
" clip-path="url(#p2f58f9e36b)" style="fill: #1f77b4; opacity: 0.5; stroke: #ffffff; stroke-width: 0.8; stroke-linejoin: miter"/>
   </g>
   <g id="patch_16">
    <path d="M 87.173098 173.52 
L 92.349351 173.52 
L 92.349351 173.52 
L 87.173098 173.52 
z
" clip-path="url(#p2f58f9e36b)" style="fill: #1f77b4; opacity: 0.5; stroke: #ffffff; stroke-width: 0.8; stroke-linejoin: miter"/>
   </g>
   <g id="patch_17">
    <path d="M 92.349351 173.52 
L 97.525603 173.52 
L 97.525603 173.52 
L 92.349351 173.52 
z
" clip-path="url(#p2f58f9e36b)" style="fill: #1f77b4; opacity: 0.5; stroke: #ffffff; stroke-width: 0.8; stroke-linejoin: miter"/>
   </g>
   <g id="patch_18">
    <path d="M 97.525603 173.52 
L 102.701855 173.52 
L 102.701855 173.320504 
L 97.525603 173.320504 
z
" clip-path="url(#p2f58f9e36b)" style="fill: #1f77b4; opacity: 0.5; stroke: #ffffff; stroke-width: 0.8; stroke-linejoin: miter"/>
   </g>
   <g id="patch_19">
    <path d="M 102.701855 173.52 
L 107.878108 173.52 
L 107.878108 171.824282 
L 102.701855 171.824282 
z
" clip-path="url(#p2f58f9e36b)" style="fill: #1f77b4; opacity: 0.5; stroke: #ffffff; stroke-width: 0.8; stroke-linejoin: miter"/>
   </g>
   <g id="patch_20">
    <path d="M 107.878108 173.52 
L 113.05436 173.52 
L 113.05436 171.026297 
L 107.878108 171.026297 
z
" clip-path="url(#p2f58f9e36b)" style="fill: #1f77b4; opacity: 0.5; stroke: #ffffff; stroke-width: 0.8; stroke-linejoin: miter"/>
   </g>
   <g id="patch_21">
    <path d="M 113.05436 173.52 
L 118.230612 173.52 
L 118.230612 164.043929 
L 113.05436 164.043929 
z
" clip-path="url(#p2f58f9e36b)" style="fill: #1f77b4; opacity: 0.5; stroke: #ffffff; stroke-width: 0.8; stroke-linejoin: miter"/>
   </g>
   <g id="patch_22">
    <path d="M 118.230612 173.52 
L 123.406865 173.52 
L 123.406865 153.96937 
L 118.230612 153.96937 
z
" clip-path="url(#p2f58f9e36b)" style="fill: #1f77b4; opacity: 0.5; stroke: #ffffff; stroke-width: 0.8; stroke-linejoin: miter"/>
   </g>
   <g id="patch_23">
    <path d="M 123.406865 173.52 
L 128.583117 173.52 
L 128.583117 132.224282 
L 123.406865 132.224282 
z
" clip-path="url(#p2f58f9e36b)" style="fill: #1f77b4; opacity: 0.5; stroke: #ffffff; stroke-width: 0.8; stroke-linejoin: miter"/>
   </g>
   <g id="patch_24">
    <path d="M 128.583117 173.52 
L 133.759369 173.52 
L 133.759369 97.51194 
L 128.583117 97.51194 
z
" clip-path="url(#p2f58f9e36b)" style="fill: #1f77b4; opacity: 0.5; stroke: #ffffff; stroke-width: 0.8; stroke-linejoin: miter"/>
   </g>
   <g id="patch_25">
    <path d="M 133.759369 173.52 
L 138.935622 173.52 
L 138.935622 57.712443 
L 133.759369 57.712443 
z
" clip-path="url(#p2f58f9e36b)" style="fill: #1f77b4; opacity: 0.5; stroke: #ffffff; stroke-width: 0.8; stroke-linejoin: miter"/>
   </g>
   <g id="patch_26">
    <path d="M 138.935622 173.52 
L 144.111874 173.52 
L 144.111874 26.291788 
L 138.935622 26.291788 
z
" clip-path="url(#p2f58f9e36b)" style="fill: #1f77b4; opacity: 0.5; stroke: #ffffff; stroke-width: 0.8; stroke-linejoin: miter"/>
   </g>
   <g id="patch_27">
    <path d="M 144.111874 173.52 
L 149.288126 173.52 
L 149.288126 15.12 
L 144.111874 15.12 
z
" clip-path="url(#p2f58f9e36b)" style="fill: #1f77b4; opacity: 0.5; stroke: #ffffff; stroke-width: 0.8; stroke-linejoin: miter"/>
   </g>
   <g id="patch_28">
    <path d="M 149.288126 173.52 
L 154.464378 173.52 
L 154.464378 23.299345 
L 149.288126 23.299345 
z
" clip-path="url(#p2f58f9e36b)" style="fill: #1f77b4; opacity: 0.5; stroke: #ffffff; stroke-width: 0.8; stroke-linejoin: miter"/>
   </g>
   <g id="patch_29">
    <path d="M 154.464378 173.52 
L 159.640631 173.52 
L 159.640631 54.221259 
L 154.464378 54.221259 
z
" clip-path="url(#p2f58f9e36b)" style="fill: #1f77b4; opacity: 0.5; stroke: #ffffff; stroke-width: 0.8; stroke-linejoin: miter"/>
   </g>
   <g id="patch_30">
    <path d="M 159.640631 173.52 
L 164.816883 173.52 
L 164.816883 96.215214 
L 159.640631 96.215214 
z
" clip-path="url(#p2f58f9e36b)" style="fill: #1f77b4; opacity: 0.5; stroke: #ffffff; stroke-width: 0.8; stroke-linejoin: miter"/>
   </g>
   <g id="patch_31">
    <path d="M 164.816883 173.52 
L 169.993135 173.52 
L 169.993135 128.832846 
L 164.816883 128.832846 
z
" clip-path="url(#p2f58f9e36b)" style="fill: #1f77b4; opacity: 0.5; stroke: #ffffff; stroke-width: 0.8; stroke-linejoin: miter"/>
   </g>
   <g id="patch_32">
    <path d="M 169.993135 173.52 
L 175.169388 173.52 
L 175.169388 152.672645 
L 169.993135 152.672645 
z
" clip-path="url(#p2f58f9e36b)" style="fill: #1f77b4; opacity: 0.5; stroke: #ffffff; stroke-width: 0.8; stroke-linejoin: miter"/>
   </g>
   <g id="patch_33">
    <path d="M 175.169388 173.52 
L 180.34564 173.52 
L 180.34564 164.941662 
L 175.169388 164.941662 
z
" clip-path="url(#p2f58f9e36b)" style="fill: #1f77b4; opacity: 0.5; stroke: #ffffff; stroke-width: 0.8; stroke-linejoin: miter"/>
   </g>
   <g id="patch_34">
    <path d="M 180.34564 173.52 
L 185.521892 173.52 
L 185.521892 170.32806 
L 180.34564 170.32806 
z
" clip-path="url(#p2f58f9e36b)" style="fill: #1f77b4; opacity: 0.5; stroke: #ffffff; stroke-width: 0.8; stroke-linejoin: miter"/>
   </g>
   <g id="patch_35">
    <path d="M 185.521892 173.52 
L 190.698145 173.52 
L 190.698145 172.522519 
L 185.521892 172.522519 
z
" clip-path="url(#p2f58f9e36b)" style="fill: #1f77b4; opacity: 0.5; stroke: #ffffff; stroke-width: 0.8; stroke-linejoin: miter"/>
   </g>
   <g id="patch_36">
    <path d="M 190.698145 173.52 
L 195.874397 173.52 
L 195.874397 173.320504 
L 190.698145 173.320504 
z
" clip-path="url(#p2f58f9e36b)" style="fill: #1f77b4; opacity: 0.5; stroke: #ffffff; stroke-width: 0.8; stroke-linejoin: miter"/>
   </g>
   <g id="patch_37">
    <path d="M 195.874397 173.52 
L 201.050649 173.52 
L 201.050649 173.52 
L 195.874397 173.52 
z
" clip-path="url(#p2f58f9e36b)" style="fill: #1f77b4; opacity: 0.5; stroke: #ffffff; stroke-width: 0.8; stroke-linejoin: miter"/>
   </g>
   <g id="patch_38">
    <path d="M 201.050649 173.52 
L 206.226902 173.52 
L 206.226902 173.52 
L 201.050649 173.52 
z
" clip-path="url(#p2f58f9e36b)" style="fill: #1f77b4; opacity: 0.5; stroke: #ffffff; stroke-width: 0.8; stroke-linejoin: miter"/>
   </g>
   <g id="patch_39">
    <path d="M 206.226902 173.52 
L 211.403154 173.52 
L 211.403154 173.52 
L 206.226902 173.52 
z
" clip-path="url(#p2f58f9e36b)" style="fill: #1f77b4; opacity: 0.5; stroke: #ffffff; stroke-width: 0.8; stroke-linejoin: miter"/>
   </g>
   <g id="patch_40">
    <path d="M 211.403154 173.52 
L 216.579406 173.52 
L 216.579406 173.52 
L 211.403154 173.52 
z
" clip-path="url(#p2f58f9e36b)" style="fill: #1f77b4; opacity: 0.5; stroke: #ffffff; stroke-width: 0.8; stroke-linejoin: miter"/>
   </g>
   <g id="patch_41">
    <path d="M 216.579406 173.52 
L 221.755659 173.52 
L 221.755659 173.52 
L 216.579406 173.52 
z
" clip-path="url(#p2f58f9e36b)" style="fill: #1f77b4; opacity: 0.5; stroke: #ffffff; stroke-width: 0.8; stroke-linejoin: miter"/>
   </g>
   <g id="patch_42">
    <path d="M 221.755659 173.52 
L 226.931911 173.52 
L 226.931911 173.52 
L 221.755659 173.52 
z
" clip-path="url(#p2f58f9e36b)" style="fill: #1f77b4; opacity: 0.5; stroke: #ffffff; stroke-width: 0.8; stroke-linejoin: miter"/>
   </g>
   <g id="patch_43">
    <path d="M 226.931911 173.52 
L 232.108163 173.52 
L 232.108163 173.52 
L 226.931911 173.52 
z
" clip-path="url(#p2f58f9e36b)" style="fill: #1f77b4; opacity: 0.5; stroke: #ffffff; stroke-width: 0.8; stroke-linejoin: miter"/>
   </g>
   <g id="patch_44">
    <path d="M 232.108163 173.52 
L 237.284416 173.52 
L 237.284416 173.52 
L 232.108163 173.52 
z
" clip-path="url(#p2f58f9e36b)" style="fill: #1f77b4; opacity: 0.5; stroke: #ffffff; stroke-width: 0.8; stroke-linejoin: miter"/>
   </g>
   <g id="patch_45">
    <path d="M 237.284416 173.52 
L 242.460668 173.52 
L 242.460668 173.52 
L 237.284416 173.52 
z
" clip-path="url(#p2f58f9e36b)" style="fill: #1f77b4; opacity: 0.5; stroke: #ffffff; stroke-width: 0.8; stroke-linejoin: miter"/>
   </g>
   <g id="patch_46">
    <path d="M 242.460668 173.52 
L 247.63692 173.52 
L 247.63692 173.52 
L 242.460668 173.52 
z
" clip-path="url(#p2f58f9e36b)" style="fill: #1f77b4; opacity: 0.5; stroke: #ffffff; stroke-width: 0.8; stroke-linejoin: miter"/>
   </g>
   <g id="patch_47">
    <path d="M 247.63692 173.52 
L 252.813173 173.52 
L 252.813173 173.52 
L 247.63692 173.52 
z
" clip-path="url(#p2f58f9e36b)" style="fill: #1f77b4; opacity: 0.5; stroke: #ffffff; stroke-width: 0.8; stroke-linejoin: miter"/>
   </g>
   <g id="patch_48">
    <path d="M 252.813173 173.52 
L 257.989425 173.52 
L 257.989425 173.52 
L 252.813173 173.52 
z
" clip-path="url(#p2f58f9e36b)" style="fill: #1f77b4; opacity: 0.5; stroke: #ffffff; stroke-width: 0.8; stroke-linejoin: miter"/>
   </g>
   <g id="patch_49">
    <path d="M 257.989425 173.52 
L 263.165677 173.52 
L 263.165677 173.52 
L 257.989425 173.52 
z
" clip-path="url(#p2f58f9e36b)" style="fill: #1f77b4; opacity: 0.5; stroke: #ffffff; stroke-width: 0.8; stroke-linejoin: miter"/>
   </g>
   <g id="patch_50">
    <path d="M 263.165677 173.52 
L 268.341929 173.52 
L 268.341929 173.52 
L 263.165677 173.52 
z
" clip-path="url(#p2f58f9e36b)" style="fill: #1f77b4; opacity: 0.5; stroke: #ffffff; stroke-width: 0.8; stroke-linejoin: miter"/>
   </g>
   <g id="patch_51">
    <path d="M 268.341929 173.52 
L 273.518182 173.52 
L 273.518182 173.52 
L 268.341929 173.52 
z
" clip-path="url(#p2f58f9e36b)" style="fill: #1f77b4; opacity: 0.5; stroke: #ffffff; stroke-width: 0.8; stroke-linejoin: miter"/>
   </g>
   <g id="patch_52">
    <path d="M 19.881818 173.52 
L 25.058071 173.52 
L 25.058071 173.52 
L 19.881818 173.52 
z
" clip-path="url(#p2f58f9e36b)" style="fill: #ff7f0e; opacity: 0.5; stroke: #ffffff; stroke-width: 0.8; stroke-linejoin: miter"/>
   </g>
   <g id="patch_53">
    <path d="M 25.058071 173.52 
L 30.234323 173.52 
L 30.234323 173.420222 
L 25.058071 173.420222 
z
" clip-path="url(#p2f58f9e36b)" style="fill: #ff7f0e; opacity: 0.5; stroke: #ffffff; stroke-width: 0.8; stroke-linejoin: miter"/>
   </g>
   <g id="patch_54">
    <path d="M 30.234323 173.52 
L 35.410575 173.52 
L 35.410575 173.420222 
L 30.234323 173.420222 
z
" clip-path="url(#p2f58f9e36b)" style="fill: #ff7f0e; opacity: 0.5; stroke: #ffffff; stroke-width: 0.8; stroke-linejoin: miter"/>
   </g>
   <g id="patch_55">
    <path d="M 35.410575 173.52 
L 40.586827 173.52 
L 40.586827 173.420222 
L 35.410575 173.420222 
z
" clip-path="url(#p2f58f9e36b)" style="fill: #ff7f0e; opacity: 0.5; stroke: #ffffff; stroke-width: 0.8; stroke-linejoin: miter"/>
   </g>
   <g id="patch_56">
    <path d="M 40.586827 173.52 
L 45.76308 173.52 
L 45.76308 173.320444 
L 40.586827 173.320444 
z
" clip-path="url(#p2f58f9e36b)" style="fill: #ff7f0e; opacity: 0.5; stroke: #ffffff; stroke-width: 0.8; stroke-linejoin: miter"/>
   </g>
   <g id="patch_57">
    <path d="M 45.76308 173.52 
L 50.939332 173.52 
L 50.939332 172.721776 
L 45.76308 172.721776 
z
" clip-path="url(#p2f58f9e36b)" style="fill: #ff7f0e; opacity: 0.5; stroke: #ffffff; stroke-width: 0.8; stroke-linejoin: miter"/>
   </g>
   <g id="patch_58">
    <path d="M 50.939332 173.52 
L 56.115584 173.52 
L 56.115584 172.921332 
L 50.939332 172.921332 
z
" clip-path="url(#p2f58f9e36b)" style="fill: #ff7f0e; opacity: 0.5; stroke: #ffffff; stroke-width: 0.8; stroke-linejoin: miter"/>
   </g>
   <g id="patch_59">
    <path d="M 56.115584 173.52 
L 61.291837 173.52 
L 61.291837 172.621998 
L 56.115584 172.621998 
z
" clip-path="url(#p2f58f9e36b)" style="fill: #ff7f0e; opacity: 0.5; stroke: #ffffff; stroke-width: 0.8; stroke-linejoin: miter"/>
   </g>
   <g id="patch_60">
    <path d="M 61.291837 173.52 
L 66.468089 173.52 
L 66.468089 172.222885 
L 61.291837 172.222885 
z
" clip-path="url(#p2f58f9e36b)" style="fill: #ff7f0e; opacity: 0.5; stroke: #ffffff; stroke-width: 0.8; stroke-linejoin: miter"/>
   </g>
   <g id="patch_61">
    <path d="M 66.468089 173.52 
L 71.644341 173.52 
L 71.644341 170.925771 
L 66.468089 170.925771 
z
" clip-path="url(#p2f58f9e36b)" style="fill: #ff7f0e; opacity: 0.5; stroke: #ffffff; stroke-width: 0.8; stroke-linejoin: miter"/>
   </g>
   <g id="patch_62">
    <path d="M 71.644341 173.52 
L 76.820594 173.52 
L 76.820594 170.526659 
L 71.644341 170.526659 
z
" clip-path="url(#p2f58f9e36b)" style="fill: #ff7f0e; opacity: 0.5; stroke: #ffffff; stroke-width: 0.8; stroke-linejoin: miter"/>
   </g>
   <g id="patch_63">
    <path d="M 76.820594 173.52 
L 81.996846 173.52 
L 81.996846 169.329322 
L 76.820594 169.329322 
z
" clip-path="url(#p2f58f9e36b)" style="fill: #ff7f0e; opacity: 0.5; stroke: #ffffff; stroke-width: 0.8; stroke-linejoin: miter"/>
   </g>
   <g id="patch_64">
    <path d="M 81.996846 173.52 
L 87.173098 173.52 
L 87.173098 167.233983 
L 81.996846 167.233983 
z
" clip-path="url(#p2f58f9e36b)" style="fill: #ff7f0e; opacity: 0.5; stroke: #ffffff; stroke-width: 0.8; stroke-linejoin: miter"/>
   </g>
   <g id="patch_65">
    <path d="M 87.173098 173.52 
L 92.349351 173.52 
L 92.349351 165.737313 
L 87.173098 165.737313 
z
" clip-path="url(#p2f58f9e36b)" style="fill: #ff7f0e; opacity: 0.5; stroke: #ffffff; stroke-width: 0.8; stroke-linejoin: miter"/>
   </g>
   <g id="patch_66">
    <path d="M 92.349351 173.52 
L 97.525603 173.52 
L 97.525603 165.537756 
L 92.349351 165.537756 
z
" clip-path="url(#p2f58f9e36b)" style="fill: #ff7f0e; opacity: 0.5; stroke: #ffffff; stroke-width: 0.8; stroke-linejoin: miter"/>
   </g>
   <g id="patch_67">
    <path d="M 97.525603 173.52 
L 102.701855 173.52 
L 102.701855 159.351518 
L 97.525603 159.351518 
z
" clip-path="url(#p2f58f9e36b)" style="fill: #ff7f0e; opacity: 0.5; stroke: #ffffff; stroke-width: 0.8; stroke-linejoin: miter"/>
   </g>
   <g id="patch_68">
    <path d="M 102.701855 173.52 
L 107.878108 173.52 
L 107.878108 156.457954 
L 102.701855 156.457954 
z
" clip-path="url(#p2f58f9e36b)" style="fill: #ff7f0e; opacity: 0.5; stroke: #ffffff; stroke-width: 0.8; stroke-linejoin: miter"/>
   </g>
   <g id="patch_69">
    <path d="M 107.878108 173.52 
L 113.05436 173.52 
L 113.05436 153.165279 
L 107.878108 153.165279 
z
" clip-path="url(#p2f58f9e36b)" style="fill: #ff7f0e; opacity: 0.5; stroke: #ffffff; stroke-width: 0.8; stroke-linejoin: miter"/>
   </g>
   <g id="patch_70">
    <path d="M 113.05436 173.52 
L 118.230612 173.52 
L 118.230612 148.675267 
L 113.05436 148.675267 
z
" clip-path="url(#p2f58f9e36b)" style="fill: #ff7f0e; opacity: 0.5; stroke: #ffffff; stroke-width: 0.8; stroke-linejoin: miter"/>
   </g>
   <g id="patch_71">
    <path d="M 118.230612 173.52 
L 123.406865 173.52 
L 123.406865 140.593245 
L 118.230612 140.593245 
z
" clip-path="url(#p2f58f9e36b)" style="fill: #ff7f0e; opacity: 0.5; stroke: #ffffff; stroke-width: 0.8; stroke-linejoin: miter"/>
   </g>
   <g id="patch_72">
    <path d="M 123.406865 173.52 
L 128.583117 173.52 
L 128.583117 137.101014 
L 123.406865 137.101014 
z
" clip-path="url(#p2f58f9e36b)" style="fill: #ff7f0e; opacity: 0.5; stroke: #ffffff; stroke-width: 0.8; stroke-linejoin: miter"/>
   </g>
   <g id="patch_73">
    <path d="M 128.583117 173.52 
L 133.759369 173.52 
L 133.759369 129.817217 
L 128.583117 129.817217 
z
" clip-path="url(#p2f58f9e36b)" style="fill: #ff7f0e; opacity: 0.5; stroke: #ffffff; stroke-width: 0.8; stroke-linejoin: miter"/>
   </g>
   <g id="patch_74">
    <path d="M 133.759369 173.52 
L 138.935622 173.52 
L 138.935622 127.222987 
L 133.759369 127.222987 
z
" clip-path="url(#p2f58f9e36b)" style="fill: #ff7f0e; opacity: 0.5; stroke: #ffffff; stroke-width: 0.8; stroke-linejoin: miter"/>
   </g>
   <g id="patch_75">
    <path d="M 138.935622 173.52 
L 144.111874 173.52 
L 144.111874 121.834973 
L 138.935622 121.834973 
z
" clip-path="url(#p2f58f9e36b)" style="fill: #ff7f0e; opacity: 0.5; stroke: #ffffff; stroke-width: 0.8; stroke-linejoin: miter"/>
   </g>
   <g id="patch_76">
    <path d="M 144.111874 173.52 
L 149.288126 173.52 
L 149.288126 119.739634 
L 144.111874 119.739634 
z
" clip-path="url(#p2f58f9e36b)" style="fill: #ff7f0e; opacity: 0.5; stroke: #ffffff; stroke-width: 0.8; stroke-linejoin: miter"/>
   </g>
   <g id="patch_77">
    <path d="M 149.288126 173.52 
L 154.464378 173.52 
L 154.464378 114.35162 
L 149.288126 114.35162 
z
" clip-path="url(#p2f58f9e36b)" style="fill: #ff7f0e; opacity: 0.5; stroke: #ffffff; stroke-width: 0.8; stroke-linejoin: miter"/>
   </g>
   <g id="patch_78">
    <path d="M 154.464378 173.52 
L 159.640631 173.52 
L 159.640631 111.2585 
L 154.464378 111.2585 
z
" clip-path="url(#p2f58f9e36b)" style="fill: #ff7f0e; opacity: 0.5; stroke: #ffffff; stroke-width: 0.8; stroke-linejoin: miter"/>
   </g>
   <g id="patch_79">
    <path d="M 159.640631 173.52 
L 164.816883 173.52 
L 164.816883 118.841632 
L 159.640631 118.841632 
z
" clip-path="url(#p2f58f9e36b)" style="fill: #ff7f0e; opacity: 0.5; stroke: #ffffff; stroke-width: 0.8; stroke-linejoin: miter"/>
   </g>
   <g id="patch_80">
    <path d="M 164.816883 173.52 
L 169.993135 173.52 
L 169.993135 115.449178 
L 164.816883 115.449178 
z
" clip-path="url(#p2f58f9e36b)" style="fill: #ff7f0e; opacity: 0.5; stroke: #ffffff; stroke-width: 0.8; stroke-linejoin: miter"/>
   </g>
   <g id="patch_81">
    <path d="M 169.993135 173.52 
L 175.169388 173.52 
L 175.169388 117.843851 
L 169.993135 117.843851 
z
" clip-path="url(#p2f58f9e36b)" style="fill: #ff7f0e; opacity: 0.5; stroke: #ffffff; stroke-width: 0.8; stroke-linejoin: miter"/>
   </g>
   <g id="patch_82">
    <path d="M 175.169388 173.52 
L 180.34564 173.52 
L 180.34564 119.240744 
L 175.169388 119.240744 
z
" clip-path="url(#p2f58f9e36b)" style="fill: #ff7f0e; opacity: 0.5; stroke: #ffffff; stroke-width: 0.8; stroke-linejoin: miter"/>
   </g>
   <g id="patch_83">
    <path d="M 180.34564 173.52 
L 185.521892 173.52 
L 185.521892 126.225207 
L 180.34564 126.225207 
z
" clip-path="url(#p2f58f9e36b)" style="fill: #ff7f0e; opacity: 0.5; stroke: #ffffff; stroke-width: 0.8; stroke-linejoin: miter"/>
   </g>
   <g id="patch_84">
    <path d="M 185.521892 173.52 
L 190.698145 173.52 
L 190.698145 129.318326 
L 185.521892 129.318326 
z
" clip-path="url(#p2f58f9e36b)" style="fill: #ff7f0e; opacity: 0.5; stroke: #ffffff; stroke-width: 0.8; stroke-linejoin: miter"/>
   </g>
   <g id="patch_85">
    <path d="M 190.698145 173.52 
L 195.874397 173.52 
L 195.874397 134.905897 
L 190.698145 134.905897 
z
" clip-path="url(#p2f58f9e36b)" style="fill: #ff7f0e; opacity: 0.5; stroke: #ffffff; stroke-width: 0.8; stroke-linejoin: miter"/>
   </g>
   <g id="patch_86">
    <path d="M 195.874397 173.52 
L 201.050649 173.52 
L 201.050649 141.591026 
L 195.874397 141.591026 
z
" clip-path="url(#p2f58f9e36b)" style="fill: #ff7f0e; opacity: 0.5; stroke: #ffffff; stroke-width: 0.8; stroke-linejoin: miter"/>
   </g>
   <g id="patch_87">
    <path d="M 201.050649 173.52 
L 206.226902 173.52 
L 206.226902 146.679706 
L 201.050649 146.679706 
z
" clip-path="url(#p2f58f9e36b)" style="fill: #ff7f0e; opacity: 0.5; stroke: #ffffff; stroke-width: 0.8; stroke-linejoin: miter"/>
   </g>
   <g id="patch_88">
    <path d="M 206.226902 173.52 
L 211.403154 173.52 
L 211.403154 153.265057 
L 206.226902 153.265057 
z
" clip-path="url(#p2f58f9e36b)" style="fill: #ff7f0e; opacity: 0.5; stroke: #ffffff; stroke-width: 0.8; stroke-linejoin: miter"/>
   </g>
   <g id="patch_89">
    <path d="M 211.403154 173.52 
L 216.579406 173.52 
L 216.579406 154.562172 
L 211.403154 154.562172 
z
" clip-path="url(#p2f58f9e36b)" style="fill: #ff7f0e; opacity: 0.5; stroke: #ffffff; stroke-width: 0.8; stroke-linejoin: miter"/>
   </g>
   <g id="patch_90">
    <path d="M 216.579406 173.52 
L 221.755659 173.52 
L 221.755659 161.546635 
L 216.579406 161.546635 
z
" clip-path="url(#p2f58f9e36b)" style="fill: #ff7f0e; opacity: 0.5; stroke: #ffffff; stroke-width: 0.8; stroke-linejoin: miter"/>
   </g>
   <g id="patch_91">
    <path d="M 221.755659 173.52 
L 226.931911 173.52 
L 226.931911 162.045525 
L 221.755659 162.045525 
z
" clip-path="url(#p2f58f9e36b)" style="fill: #ff7f0e; opacity: 0.5; stroke: #ffffff; stroke-width: 0.8; stroke-linejoin: miter"/>
   </g>
   <g id="patch_92">
    <path d="M 226.931911 173.52 
L 232.108163 173.52 
L 232.108163 166.335981 
L 226.931911 166.335981 
z
" clip-path="url(#p2f58f9e36b)" style="fill: #ff7f0e; opacity: 0.5; stroke: #ffffff; stroke-width: 0.8; stroke-linejoin: miter"/>
   </g>
   <g id="patch_93">
    <path d="M 232.108163 173.52 
L 237.284416 173.52 
L 237.284416 168.331542 
L 232.108163 168.331542 
z
" clip-path="url(#p2f58f9e36b)" style="fill: #ff7f0e; opacity: 0.5; stroke: #ffffff; stroke-width: 0.8; stroke-linejoin: miter"/>
   </g>
   <g id="patch_94">
    <path d="M 237.284416 173.52 
L 242.460668 173.52 
L 242.460668 169.528878 
L 237.284416 169.528878 
z
" clip-path="url(#p2f58f9e36b)" style="fill: #ff7f0e; opacity: 0.5; stroke: #ffffff; stroke-width: 0.8; stroke-linejoin: miter"/>
   </g>
   <g id="patch_95">
    <path d="M 242.460668 173.52 
L 247.63692 173.52 
L 247.63692 171.125327 
L 242.460668 171.125327 
z
" clip-path="url(#p2f58f9e36b)" style="fill: #ff7f0e; opacity: 0.5; stroke: #ffffff; stroke-width: 0.8; stroke-linejoin: miter"/>
   </g>
   <g id="patch_96">
    <path d="M 247.63692 173.52 
L 252.813173 173.52 
L 252.813173 170.726215 
L 247.63692 170.726215 
z
" clip-path="url(#p2f58f9e36b)" style="fill: #ff7f0e; opacity: 0.5; stroke: #ffffff; stroke-width: 0.8; stroke-linejoin: miter"/>
   </g>
   <g id="patch_97">
    <path d="M 252.813173 173.52 
L 257.989425 173.52 
L 257.989425 172.422442 
L 252.813173 172.422442 
z
" clip-path="url(#p2f58f9e36b)" style="fill: #ff7f0e; opacity: 0.5; stroke: #ffffff; stroke-width: 0.8; stroke-linejoin: miter"/>
   </g>
   <g id="patch_98">
    <path d="M 257.989425 173.52 
L 263.165677 173.52 
L 263.165677 172.821554 
L 257.989425 172.821554 
z
" clip-path="url(#p2f58f9e36b)" style="fill: #ff7f0e; opacity: 0.5; stroke: #ffffff; stroke-width: 0.8; stroke-linejoin: miter"/>
   </g>
   <g id="patch_99">
    <path d="M 263.165677 173.52 
L 268.341929 173.52 
L 268.341929 172.621998 
L 263.165677 172.621998 
z
" clip-path="url(#p2f58f9e36b)" style="fill: #ff7f0e; opacity: 0.5; stroke: #ffffff; stroke-width: 0.8; stroke-linejoin: miter"/>
   </g>
   <g id="patch_100">
    <path d="M 268.341929 173.52 
L 273.518182 173.52 
L 273.518182 173.120888 
L 268.341929 173.120888 
z
" clip-path="url(#p2f58f9e36b)" style="fill: #ff7f0e; opacity: 0.5; stroke: #ffffff; stroke-width: 0.8; stroke-linejoin: miter"/>
   </g>
   <g id="patch_101">
    <path d="M 19.881818 173.52 
L 273.518182 173.52 
" style="fill: none; stroke: #262626; stroke-linejoin: miter; stroke-linecap: square"/>
   </g>
   <g id="legend_1">
    <g id="patch_102">
     <path d="M 117.504 40.728 
L 280.04 40.728 
Q 281.8 40.728 281.8 38.968 
L 281.8 13.36 
Q 281.8 11.6 280.04 11.6 
L 117.504 11.6 
Q 115.744 11.6 115.744 13.36 
L 115.744 38.968 
Q 115.744 40.728 117.504 40.728 
z
" style="fill: #ffffff; opacity: 0.8; stroke: #cccccc; stroke-width: 0.8; stroke-linejoin: miter"/>
    </g>
    <g id="patch_103">
     <path d="M 119.264 21.643 
L 136.864 21.643 
L 136.864 15.483 
L 119.264 15.483 
z
" style="fill: #1f77b4; opacity: 0.5; stroke: #ffffff; stroke-width: 0.8; stroke-linejoin: miter"/>
    </g>
    <g id="text_10">
     <!-- $\epsilon \sim \mathcal{N}(0, I)$ -->
     <g style="fill: #262626" transform="translate(143.904 21.643) scale(0.088 -0.088)">
      <defs>
       <path id="DejaVuSans-Oblique-3b5" d="M 1263 1888 
Q 925 1963 778 2166 
Q 669 2309 669 2503 
Q 669 3034 1175 3344 
Q 1575 3588 2188 3588 
Q 2425 3588 2684 3550 
Q 2944 3513 3234 3438 
L 3134 2916 
Q 2847 3006 2606 3047 
Q 2359 3088 2138 3088 
Q 1766 3088 1522 2944 
Q 1228 2772 1228 2522 
Q 1228 2356 1381 2241 
Q 1563 2103 1925 2103 
L 2409 2103 
L 2319 1628 
L 1856 1628 
Q 1425 1628 1172 1469 
Q 828 1253 828 916 
Q 828 703 1013 563 
Q 1244 388 1716 388 
Q 2006 388 2284 444 
Q 2563 503 2806 619 
L 2700 84 
Q 2403 -3 2131 -47 
Q 1859 -91 1609 -91 
Q 866 -91 516 194 
Q 250 413 250 781 
Q 250 1278 600 1584 
Q 859 1813 1263 1888 
z
" transform="scale(0.015625)"/>
       <path id="DejaVuSans-223c" d="M 4684 2556 
L 4684 1997 
Q 4356 1753 4076 1645 
Q 3797 1538 3494 1538 
Q 3150 1538 2694 1722 
Q 2663 1734 2641 1744 
Q 2622 1750 2575 1769 
Q 2091 1959 1797 1959 
Q 1522 1959 1253 1840 
Q 984 1722 678 1459 
L 678 2019 
Q 1006 2263 1286 2370 
Q 1566 2478 1869 2478 
Q 2213 2478 2672 2294 
Q 2706 2278 2722 2272 
Q 2741 2266 2788 2247 
Q 3272 2056 3566 2056 
Q 3834 2056 4098 2173 
Q 4363 2291 4684 2556 
z
" transform="scale(0.015625)"/>
       <path id="STIXNonUnicode-Italic-e23a" d="M 4294 800 
L 4301 800 
Q 5293 4070 5408 4378 
Q 5472 4538 5523 4614 
Q 5830 5088 6253 5088 
Q 6490 5088 6650 4931 
Q 6810 4774 6810 4550 
Q 6810 4378 6720 4272 
Q 6630 4166 6470 4166 
Q 6368 4166 6297 4224 
Q 6227 4282 6198 4349 
Q 6170 4416 6118 4473 
Q 6067 4531 6003 4531 
Q 5939 4531 5881 4508 
Q 5824 4486 5785 4457 
Q 5747 4429 5705 4371 
Q 5664 4314 5638 4275 
Q 5613 4237 5584 4163 
Q 5555 4090 5545 4058 
Q 5536 4026 5510 3952 
Q 5485 3878 5485 3866 
L 4262 -154 
L 4134 -154 
Q 3078 1280 2483 2893 
L 2470 2893 
Q 2406 2579 2358 2361 
Q 2310 2144 2214 1792 
Q 2118 1440 2028 1190 
Q 1939 941 1804 653 
Q 1670 365 1529 185 
Q 1389 6 1203 -115 
Q 1018 -237 813 -237 
Q 576 -237 416 -80 
Q 256 77 256 301 
Q 256 474 345 579 
Q 435 685 595 685 
Q 698 685 768 627 
Q 838 570 867 502 
Q 896 435 947 377 
Q 998 320 1062 320 
Q 1222 320 1369 480 
Q 1517 640 1638 928 
Q 1760 1216 1862 1542 
Q 1965 1869 2057 2288 
Q 2150 2707 2214 3033 
Q 2278 3360 2348 3741 
Q 2419 4122 2458 4294 
L 2630 4294 
Q 2682 4166 2874 3680 
Q 3066 3194 3142 3008 
Q 3219 2822 3392 2422 
Q 3565 2022 3683 1798 
Q 3802 1574 3968 1292 
Q 4134 1011 4294 800 
z
" transform="scale(0.015625)"/>
       <path id="DejaVuSans-28" d="M 1984 4856 
Q 1566 4138 1362 3434 
Q 1159 2731 1159 2009 
Q 1159 1288 1364 580 
Q 1569 -128 1984 -844 
L 1484 -844 
Q 1016 -109 783 600 
Q 550 1309 550 2009 
Q 550 2706 781 3412 
Q 1013 4119 1484 4856 
L 1984 4856 
z
" transform="scale(0.015625)"/>
       <path id="DejaVuSans-30" d="M 2034 4250 
Q 1547 4250 1301 3770 
Q 1056 3291 1056 2328 
Q 1056 1369 1301 889 
Q 1547 409 2034 409 
Q 2525 409 2770 889 
Q 3016 1369 3016 2328 
Q 3016 3291 2770 3770 
Q 2525 4250 2034 4250 
z
M 2034 4750 
Q 2819 4750 3233 4129 
Q 3647 3509 3647 2328 
Q 3647 1150 3233 529 
Q 2819 -91 2034 -91 
Q 1250 -91 836 529 
Q 422 1150 422 2328 
Q 422 3509 836 4129 
Q 1250 4750 2034 4750 
z
" transform="scale(0.015625)"/>
       <path id="DejaVuSans-2c" d="M 750 794 
L 1409 794 
L 1409 256 
L 897 -744 
L 494 -744 
L 750 256 
L 750 794 
z
" transform="scale(0.015625)"/>
       <path id="DejaVuSans-Oblique-49" d="M 1081 4666 
L 1716 4666 
L 806 0 
L 172 0 
L 1081 4666 
z
" transform="scale(0.015625)"/>
       <path id="DejaVuSans-29" d="M 513 4856 
L 1013 4856 
Q 1481 4119 1714 3412 
Q 1947 2706 1947 2009 
Q 1947 1309 1714 600 
Q 1481 -109 1013 -844 
L 513 -844 
Q 928 -128 1133 580 
Q 1338 1288 1338 2009 
Q 1338 2731 1133 3434 
Q 928 4138 513 4856 
z
" transform="scale(0.015625)"/>
      </defs>
      <use xlink:href="#DejaVuSans-Oblique-3b5" transform="translate(0 0.5)"/>
      <use xlink:href="#DejaVuSans-223c" transform="translate(73.535156 0.5)"/>
      <use xlink:href="#STIXNonUnicode-Italic-e23a" transform="translate(176.806641 0.5)"/>
      <use xlink:href="#DejaVuSans-28" transform="translate(272.506622 0.5)"/>
      <use xlink:href="#DejaVuSans-30" transform="translate(311.520294 0.5)"/>
      <use xlink:href="#DejaVuSans-2c" transform="translate(375.143341 0.5)"/>
      <use xlink:href="#DejaVuSans-Oblique-49" transform="translate(426.412872 0.5)"/>
      <use xlink:href="#DejaVuSans-29" transform="translate(455.90506 0.5)"/>
     </g>
    </g>
    <g id="patch_104">
     <path d="M 119.264 34.48 
L 136.864 34.48 
L 136.864 28.32 
L 119.264 28.32 
z
" style="fill: #ff7f0e; opacity: 0.5; stroke: #ffffff; stroke-width: 0.8; stroke-linejoin: miter"/>
    </g>
    <g id="text_11">
     <!-- $x \sim q_\phi(x)$, samples from the guide -->
     <g style="fill: #262626" transform="translate(143.904 34.48) scale(0.088 -0.088)">
      <defs>
       <path id="DejaVuSans-Oblique-78" d="M 3841 3500 
L 2234 1784 
L 3219 0 
L 2559 0 
L 1819 1388 
L 531 0 
L -166 0 
L 1556 1844 
L 641 3500 
L 1300 3500 
L 1972 2234 
L 3144 3500 
L 3841 3500 
z
" transform="scale(0.015625)"/>
       <path id="DejaVuSans-Oblique-71" d="M 2669 525 
Q 2438 222 2123 65 
Q 1809 -91 1428 -91 
Q 897 -91 595 267 
Q 294 625 294 1253 
Q 294 1759 480 2231 
Q 666 2703 1013 3078 
Q 1238 3322 1530 3453 
Q 1822 3584 2144 3584 
Q 2531 3584 2781 3431 
Q 3031 3278 3144 2969 
L 3244 3494 
L 3822 3494 
L 2888 -1319 
L 2309 -1319 
L 2669 525 
z
M 891 1338 
Q 891 875 1084 633 
Q 1278 391 1644 391 
Q 2188 391 2572 911 
Q 2956 1431 2956 2175 
Q 2956 2625 2757 2864 
Q 2559 3103 2188 3103 
Q 1916 3103 1684 2976 
Q 1453 2850 1281 2606 
Q 1100 2350 995 2006 
Q 891 1663 891 1338 
z
" transform="scale(0.015625)"/>
       <path id="DejaVuSans-Oblique-3d5" d="M 2991 4863 
L 2738 3572 
Q 3363 3572 3684 3094 
Q 4016 2606 3850 1747 
Q 3681 888 3159 400 
Q 2653 -78 2028 -78 
L 1784 -1331 
L 1213 -1331 
L 1456 -78 
Q 834 -78 509 400 
Q 178 888 347 1747 
Q 513 2606 1034 3094 
Q 1544 3572 2166 3572 
L 2419 4863 
L 2991 4863 
z
M 2128 434 
Q 2481 434 2784 756 
Q 3116 1116 3244 1747 
Q 3369 2372 3169 2738 
Q 2991 3059 2638 3059 
L 2128 434 
z
M 1556 434 
L 2066 3059 
Q 1716 3059 1413 2738 
Q 1072 2372 953 1747 
Q 834 1116 1028 756 
Q 1203 434 1556 434 
z
" transform="scale(0.015625)"/>
       <path id="ArialMT-2c" d="M 569 0 
L 569 641 
L 1209 641 
L 1209 0 
Q 1209 -353 1084 -570 
Q 959 -788 688 -906 
L 531 -666 
Q 709 -588 793 -436 
Q 878 -284 888 0 
L 569 0 
z
" transform="scale(0.015625)"/>
       <path id="ArialMT-20" transform="scale(0.015625)"/>
       <path id="ArialMT-73" d="M 197 991 
L 753 1078 
Q 800 744 1014 566 
Q 1228 388 1613 388 
Q 2000 388 2187 545 
Q 2375 703 2375 916 
Q 2375 1106 2209 1216 
Q 2094 1291 1634 1406 
Q 1016 1563 777 1677 
Q 538 1791 414 1992 
Q 291 2194 291 2438 
Q 291 2659 392 2848 
Q 494 3038 669 3163 
Q 800 3259 1026 3326 
Q 1253 3394 1513 3394 
Q 1903 3394 2198 3281 
Q 2494 3169 2634 2976 
Q 2775 2784 2828 2463 
L 2278 2388 
Q 2241 2644 2061 2787 
Q 1881 2931 1553 2931 
Q 1166 2931 1000 2803 
Q 834 2675 834 2503 
Q 834 2394 903 2306 
Q 972 2216 1119 2156 
Q 1203 2125 1616 2013 
Q 2213 1853 2448 1751 
Q 2684 1650 2818 1456 
Q 2953 1263 2953 975 
Q 2953 694 2789 445 
Q 2625 197 2315 61 
Q 2006 -75 1616 -75 
Q 969 -75 630 194 
Q 291 463 197 991 
z
" transform="scale(0.015625)"/>
       <path id="ArialMT-61" d="M 2588 409 
Q 2275 144 1986 34 
Q 1697 -75 1366 -75 
Q 819 -75 525 192 
Q 231 459 231 875 
Q 231 1119 342 1320 
Q 453 1522 633 1644 
Q 813 1766 1038 1828 
Q 1203 1872 1538 1913 
Q 2219 1994 2541 2106 
Q 2544 2222 2544 2253 
Q 2544 2597 2384 2738 
Q 2169 2928 1744 2928 
Q 1347 2928 1158 2789 
Q 969 2650 878 2297 
L 328 2372 
Q 403 2725 575 2942 
Q 747 3159 1072 3276 
Q 1397 3394 1825 3394 
Q 2250 3394 2515 3294 
Q 2781 3194 2906 3042 
Q 3031 2891 3081 2659 
Q 3109 2516 3109 2141 
L 3109 1391 
Q 3109 606 3145 398 
Q 3181 191 3288 0 
L 2700 0 
Q 2613 175 2588 409 
z
M 2541 1666 
Q 2234 1541 1622 1453 
Q 1275 1403 1131 1340 
Q 988 1278 909 1158 
Q 831 1038 831 891 
Q 831 666 1001 516 
Q 1172 366 1500 366 
Q 1825 366 2078 508 
Q 2331 650 2450 897 
Q 2541 1088 2541 1459 
L 2541 1666 
z
" transform="scale(0.015625)"/>
       <path id="ArialMT-6d" d="M 422 0 
L 422 3319 
L 925 3319 
L 925 2853 
Q 1081 3097 1340 3245 
Q 1600 3394 1931 3394 
Q 2300 3394 2536 3241 
Q 2772 3088 2869 2813 
Q 3263 3394 3894 3394 
Q 4388 3394 4653 3120 
Q 4919 2847 4919 2278 
L 4919 0 
L 4359 0 
L 4359 2091 
Q 4359 2428 4304 2576 
Q 4250 2725 4106 2815 
Q 3963 2906 3769 2906 
Q 3419 2906 3187 2673 
Q 2956 2441 2956 1928 
L 2956 0 
L 2394 0 
L 2394 2156 
Q 2394 2531 2256 2718 
Q 2119 2906 1806 2906 
Q 1569 2906 1367 2781 
Q 1166 2656 1075 2415 
Q 984 2175 984 1722 
L 984 0 
L 422 0 
z
" transform="scale(0.015625)"/>
       <path id="ArialMT-70" d="M 422 -1272 
L 422 3319 
L 934 3319 
L 934 2888 
Q 1116 3141 1344 3267 
Q 1572 3394 1897 3394 
Q 2322 3394 2647 3175 
Q 2972 2956 3137 2557 
Q 3303 2159 3303 1684 
Q 3303 1175 3120 767 
Q 2938 359 2589 142 
Q 2241 -75 1856 -75 
Q 1575 -75 1351 44 
Q 1128 163 984 344 
L 984 -1272 
L 422 -1272 
z
M 931 1641 
Q 931 1000 1190 694 
Q 1450 388 1819 388 
Q 2194 388 2461 705 
Q 2728 1022 2728 1688 
Q 2728 2322 2467 2637 
Q 2206 2953 1844 2953 
Q 1484 2953 1207 2617 
Q 931 2281 931 1641 
z
" transform="scale(0.015625)"/>
       <path id="ArialMT-6c" d="M 409 0 
L 409 4581 
L 972 4581 
L 972 0 
L 409 0 
z
" transform="scale(0.015625)"/>
       <path id="ArialMT-65" d="M 2694 1069 
L 3275 997 
Q 3138 488 2766 206 
Q 2394 -75 1816 -75 
Q 1088 -75 661 373 
Q 234 822 234 1631 
Q 234 2469 665 2931 
Q 1097 3394 1784 3394 
Q 2450 3394 2872 2941 
Q 3294 2488 3294 1666 
Q 3294 1616 3291 1516 
L 816 1516 
Q 847 969 1125 678 
Q 1403 388 1819 388 
Q 2128 388 2347 550 
Q 2566 713 2694 1069 
z
M 847 1978 
L 2700 1978 
Q 2663 2397 2488 2606 
Q 2219 2931 1791 2931 
Q 1403 2931 1139 2672 
Q 875 2413 847 1978 
z
" transform="scale(0.015625)"/>
       <path id="ArialMT-66" d="M 556 0 
L 556 2881 
L 59 2881 
L 59 3319 
L 556 3319 
L 556 3672 
Q 556 4006 616 4169 
Q 697 4388 901 4523 
Q 1106 4659 1475 4659 
Q 1713 4659 2000 4603 
L 1916 4113 
Q 1741 4144 1584 4144 
Q 1328 4144 1222 4034 
Q 1116 3925 1116 3625 
L 1116 3319 
L 1763 3319 
L 1763 2881 
L 1116 2881 
L 1116 0 
L 556 0 
z
" transform="scale(0.015625)"/>
       <path id="ArialMT-72" d="M 416 0 
L 416 3319 
L 922 3319 
L 922 2816 
Q 1116 3169 1280 3281 
Q 1444 3394 1641 3394 
Q 1925 3394 2219 3213 
L 2025 2691 
Q 1819 2813 1613 2813 
Q 1428 2813 1281 2702 
Q 1134 2591 1072 2394 
Q 978 2094 978 1738 
L 978 0 
L 416 0 
z
" transform="scale(0.015625)"/>
       <path id="ArialMT-6f" d="M 213 1659 
Q 213 2581 725 3025 
Q 1153 3394 1769 3394 
Q 2453 3394 2887 2945 
Q 3322 2497 3322 1706 
Q 3322 1066 3130 698 
Q 2938 331 2570 128 
Q 2203 -75 1769 -75 
Q 1072 -75 642 372 
Q 213 819 213 1659 
z
M 791 1659 
Q 791 1022 1069 705 
Q 1347 388 1769 388 
Q 2188 388 2466 706 
Q 2744 1025 2744 1678 
Q 2744 2294 2464 2611 
Q 2184 2928 1769 2928 
Q 1347 2928 1069 2612 
Q 791 2297 791 1659 
z
" transform="scale(0.015625)"/>
       <path id="ArialMT-74" d="M 1650 503 
L 1731 6 
Q 1494 -44 1306 -44 
Q 1000 -44 831 53 
Q 663 150 594 308 
Q 525 466 525 972 
L 525 2881 
L 113 2881 
L 113 3319 
L 525 3319 
L 525 4141 
L 1084 4478 
L 1084 3319 
L 1650 3319 
L 1650 2881 
L 1084 2881 
L 1084 941 
Q 1084 700 1114 631 
Q 1144 563 1211 522 
Q 1278 481 1403 481 
Q 1497 481 1650 503 
z
" transform="scale(0.015625)"/>
       <path id="ArialMT-68" d="M 422 0 
L 422 4581 
L 984 4581 
L 984 2938 
Q 1378 3394 1978 3394 
Q 2347 3394 2619 3248 
Q 2891 3103 3008 2847 
Q 3125 2591 3125 2103 
L 3125 0 
L 2563 0 
L 2563 2103 
Q 2563 2525 2380 2717 
Q 2197 2909 1863 2909 
Q 1613 2909 1392 2779 
Q 1172 2650 1078 2428 
Q 984 2206 984 1816 
L 984 0 
L 422 0 
z
" transform="scale(0.015625)"/>
       <path id="ArialMT-67" d="M 319 -275 
L 866 -356 
Q 900 -609 1056 -725 
Q 1266 -881 1628 -881 
Q 2019 -881 2231 -725 
Q 2444 -569 2519 -288 
Q 2563 -116 2559 434 
Q 2191 0 1641 0 
Q 956 0 581 494 
Q 206 988 206 1678 
Q 206 2153 378 2554 
Q 550 2956 876 3175 
Q 1203 3394 1644 3394 
Q 2231 3394 2613 2919 
L 2613 3319 
L 3131 3319 
L 3131 450 
Q 3131 -325 2973 -648 
Q 2816 -972 2473 -1159 
Q 2131 -1347 1631 -1347 
Q 1038 -1347 672 -1080 
Q 306 -813 319 -275 
z
M 784 1719 
Q 784 1066 1043 766 
Q 1303 466 1694 466 
Q 2081 466 2343 764 
Q 2606 1063 2606 1700 
Q 2606 2309 2336 2618 
Q 2066 2928 1684 2928 
Q 1309 2928 1046 2623 
Q 784 2319 784 1719 
z
" transform="scale(0.015625)"/>
       <path id="ArialMT-75" d="M 2597 0 
L 2597 488 
Q 2209 -75 1544 -75 
Q 1250 -75 995 37 
Q 741 150 617 320 
Q 494 491 444 738 
Q 409 903 409 1263 
L 409 3319 
L 972 3319 
L 972 1478 
Q 972 1038 1006 884 
Q 1059 663 1231 536 
Q 1403 409 1656 409 
Q 1909 409 2131 539 
Q 2353 669 2445 892 
Q 2538 1116 2538 1541 
L 2538 3319 
L 3100 3319 
L 3100 0 
L 2597 0 
z
" transform="scale(0.015625)"/>
       <path id="ArialMT-69" d="M 425 3934 
L 425 4581 
L 988 4581 
L 988 3934 
L 425 3934 
z
M 425 0 
L 425 3319 
L 988 3319 
L 988 0 
L 425 0 
z
" transform="scale(0.015625)"/>
       <path id="ArialMT-64" d="M 2575 0 
L 2575 419 
Q 2259 -75 1647 -75 
Q 1250 -75 917 144 
Q 584 363 401 755 
Q 219 1147 219 1656 
Q 219 2153 384 2558 
Q 550 2963 881 3178 
Q 1213 3394 1622 3394 
Q 1922 3394 2156 3267 
Q 2391 3141 2538 2938 
L 2538 4581 
L 3097 4581 
L 3097 0 
L 2575 0 
z
M 797 1656 
Q 797 1019 1065 703 
Q 1334 388 1700 388 
Q 2069 388 2326 689 
Q 2584 991 2584 1609 
Q 2584 2291 2321 2609 
Q 2059 2928 1675 2928 
Q 1300 2928 1048 2622 
Q 797 2316 797 1656 
z
" transform="scale(0.015625)"/>
      </defs>
      <use xlink:href="#DejaVuSans-Oblique-78" transform="translate(0 0.125)"/>
      <use xlink:href="#DejaVuSans-223c" transform="translate(78.662109 0.125)"/>
      <use xlink:href="#DejaVuSans-Oblique-71" transform="translate(181.933594 0.125)"/>
      <use xlink:href="#DejaVuSans-Oblique-3d5" transform="translate(245.410156 -16.28125) scale(0.7)"/>
      <use xlink:href="#DejaVuSans-28" transform="translate(294.321289 0.125)"/>
      <use xlink:href="#DejaVuSans-Oblique-78" transform="translate(333.334961 0.125)"/>
      <use xlink:href="#DejaVuSans-29" transform="translate(392.514648 0.125)"/>
      <use xlink:href="#ArialMT-2c" transform="translate(431.52832 0.125)"/>
      <use xlink:href="#ArialMT-20" transform="translate(459.311523 0.125)"/>
      <use xlink:href="#ArialMT-73" transform="translate(487.094727 0.125)"/>
      <use xlink:href="#ArialMT-61" transform="translate(537.094727 0.125)"/>
      <use xlink:href="#ArialMT-6d" transform="translate(592.709961 0.125)"/>
      <use xlink:href="#ArialMT-70" transform="translate(676.010742 0.125)"/>
      <use xlink:href="#ArialMT-6c" transform="translate(731.625977 0.125)"/>
      <use xlink:href="#ArialMT-65" transform="translate(753.842773 0.125)"/>
      <use xlink:href="#ArialMT-73" transform="translate(809.458008 0.125)"/>
      <use xlink:href="#ArialMT-20" transform="translate(859.458008 0.125)"/>
      <use xlink:href="#ArialMT-66" transform="translate(887.241211 0.125)"/>
      <use xlink:href="#ArialMT-72" transform="translate(915.024414 0.125)"/>
      <use xlink:href="#ArialMT-6f" transform="translate(948.325195 0.125)"/>
      <use xlink:href="#ArialMT-6d" transform="translate(1003.94043 0.125)"/>
      <use xlink:href="#ArialMT-20" transform="translate(1087.241211 0.125)"/>
      <use xlink:href="#ArialMT-74" transform="translate(1115.024414 0.125)"/>
      <use xlink:href="#ArialMT-68" transform="translate(1142.807617 0.125)"/>
      <use xlink:href="#ArialMT-65" transform="translate(1198.422852 0.125)"/>
      <use xlink:href="#ArialMT-20" transform="translate(1254.038086 0.125)"/>
      <use xlink:href="#ArialMT-67" transform="translate(1281.821289 0.125)"/>
      <use xlink:href="#ArialMT-75" transform="translate(1337.436523 0.125)"/>
      <use xlink:href="#ArialMT-69" transform="translate(1393.051758 0.125)"/>
      <use xlink:href="#ArialMT-64" transform="translate(1415.268555 0.125)"/>
      <use xlink:href="#ArialMT-65" transform="translate(1470.883789 0.125)"/>
     </g>
    </g>
   </g>
  </g>
 </g>
 <defs>
  <clipPath id="p2f58f9e36b">
   <rect x="7.2" y="7.2" width="279" height="166.32"/>
  </clipPath>
 </defs>
</svg>