<?xml version="1.0" encoding="utf-8" standalone="no"?>
<!DOCTYPE svg PUBLIC "-//W3C//DTD SVG 1.1//EN"
  "http://www.w3.org/Graphics/SVG/1.1/DTD/svg11.dtd">
<svg xmlns:xlink="http://www.w3.org/1999/xlink" width="218.481375pt" height="210.363875pt" viewBox="0 0 218.481375 210.363875" xmlns="http://www.w3.org/2000/svg" version="1.1">
 <metadata>
  <rdf:RDF xmlns:dc="http://purl.org/dc/elements/1.1/" xmlns:cc="http://creativecommons.org/ns#" xmlns:rdf="http://www.w3.org/1999/02/22-rdf-syntax-ns#">
   <cc:Work>
    <dc:type rdf:resource="http://purl.org/dc/dcmitype/StillImage"/>
    <dc:date>2024-01-22T16:18:21.292581</dc:date>
    <dc:format>image/svg+xml</dc:format>
    <dc:creator>
     <cc:Agent>
      <dc:title>Matplotlib v3.8.0, https://matplotlib.org/</dc:title>
     </cc:Agent>
    </dc:creator>
   </cc:Work>
  </rdf:RDF>
 </metadata>
 <defs>
  <style type="text/css">*{stroke-linejoin: round; stroke-linecap: butt}</style>
 </defs>
 <g id="figure_1">
  <g id="patch_1">
   <path d="M 0 210.363875 
L 218.481375 210.363875 
L 218.481375 0 
L 0 0 
z
" style="fill: #ffffff"/>
  </g>
  <g id="axes_1">
   <g id="patch_2">
    <path d="M 37.765375 186.816 
L 205.165375 186.816 
L 205.165375 20.496 
L 37.765375 20.496 
z
" style="fill: #ffffff"/>
   </g>
   <g id="matplotlib.axis_1">
    <g id="xtick_1">
     <g id="line2d_1">
      <defs>
       <path id="md0316f60ad" d="M 0 0 
L 0 4.8 
" style="stroke: #262626"/>
      </defs>
      <g>
       <use xlink:href="#md0316f60ad" x="37.765375" y="186.816" style="fill: #262626; stroke: #262626"/>
      </g>
     </g>
     <g id="text_1">
      <!-- −1.0 -->
      <g style="fill: #262626" transform="translate(29.0795 201.414875) scale(0.088 -0.088)">
       <defs>
        <path id="ArialMT-2212" d="M 3381 1997 
L 356 1997 
L 356 2522 
L 3381 2522 
L 3381 1997 
z
" transform="scale(0.015625)"/>
        <path id="ArialMT-31" d="M 2384 0 
L 1822 0 
L 1822 3584 
Q 1619 3391 1289 3197 
Q 959 3003 697 2906 
L 697 3450 
Q 1169 3672 1522 3987 
Q 1875 4303 2022 4600 
L 2384 4600 
L 2384 0 
z
" transform="scale(0.015625)"/>
        <path id="ArialMT-2e" d="M 581 0 
L 581 641 
L 1222 641 
L 1222 0 
L 581 0 
z
" transform="scale(0.015625)"/>
        <path id="ArialMT-30" d="M 266 2259 
Q 266 3072 433 3567 
Q 600 4063 929 4331 
Q 1259 4600 1759 4600 
Q 2128 4600 2406 4451 
Q 2684 4303 2865 4023 
Q 3047 3744 3150 3342 
Q 3253 2941 3253 2259 
Q 3253 1453 3087 958 
Q 2922 463 2592 192 
Q 2263 -78 1759 -78 
Q 1097 -78 719 397 
Q 266 969 266 2259 
z
M 844 2259 
Q 844 1131 1108 757 
Q 1372 384 1759 384 
Q 2147 384 2411 759 
Q 2675 1134 2675 2259 
Q 2675 3391 2411 3762 
Q 2147 4134 1753 4134 
Q 1366 4134 1134 3806 
Q 844 3388 844 2259 
z
" transform="scale(0.015625)"/>
       </defs>
       <use xlink:href="#ArialMT-2212"/>
       <use xlink:href="#ArialMT-31" x="58.398438"/>
       <use xlink:href="#ArialMT-2e" x="114.013672"/>
       <use xlink:href="#ArialMT-30" x="141.796875"/>
      </g>
     </g>
    </g>
    <g id="xtick_2">
     <g id="line2d_2">
      <g>
       <use xlink:href="#md0316f60ad" x="79.615375" y="186.816" style="fill: #262626; stroke: #262626"/>
      </g>
     </g>
     <g id="text_2">
      <!-- −0.5 -->
      <g style="fill: #262626" transform="translate(70.9295 201.414875) scale(0.088 -0.088)">
       <defs>
        <path id="ArialMT-35" d="M 266 1200 
L 856 1250 
Q 922 819 1161 601 
Q 1400 384 1738 384 
Q 2144 384 2425 690 
Q 2706 997 2706 1503 
Q 2706 1984 2436 2262 
Q 2166 2541 1728 2541 
Q 1456 2541 1237 2417 
Q 1019 2294 894 2097 
L 366 2166 
L 809 4519 
L 3088 4519 
L 3088 3981 
L 1259 3981 
L 1013 2750 
Q 1425 3038 1878 3038 
Q 2478 3038 2890 2622 
Q 3303 2206 3303 1553 
Q 3303 931 2941 478 
Q 2500 -78 1738 -78 
Q 1113 -78 717 272 
Q 322 622 266 1200 
z
" transform="scale(0.015625)"/>
       </defs>
       <use xlink:href="#ArialMT-2212"/>
       <use xlink:href="#ArialMT-30" x="58.398438"/>
       <use xlink:href="#ArialMT-2e" x="114.013672"/>
       <use xlink:href="#ArialMT-35" x="141.796875"/>
      </g>
     </g>
    </g>
    <g id="xtick_3">
     <g id="line2d_3">
      <g>
       <use xlink:href="#md0316f60ad" x="121.465375" y="186.816" style="fill: #262626; stroke: #262626"/>
      </g>
     </g>
     <g id="text_3">
      <!-- 0.0 -->
      <g style="fill: #262626" transform="translate(115.349375 201.414875) scale(0.088 -0.088)">
       <use xlink:href="#ArialMT-30"/>
       <use xlink:href="#ArialMT-2e" x="55.615234"/>
       <use xlink:href="#ArialMT-30" x="83.398438"/>
      </g>
     </g>
    </g>
    <g id="xtick_4">
     <g id="line2d_4">
      <g>
       <use xlink:href="#md0316f60ad" x="163.315375" y="186.816" style="fill: #262626; stroke: #262626"/>
      </g>
     </g>
     <g id="text_4">
      <!-- 0.5 -->
      <g style="fill: #262626" transform="translate(157.199375 201.414875) scale(0.088 -0.088)">
       <use xlink:href="#ArialMT-30"/>
       <use xlink:href="#ArialMT-2e" x="55.615234"/>
       <use xlink:href="#ArialMT-35" x="83.398438"/>
      </g>
     </g>
    </g>
    <g id="xtick_5">
     <g id="line2d_5">
      <g>
       <use xlink:href="#md0316f60ad" x="205.165375" y="186.816" style="fill: #262626; stroke: #262626"/>
      </g>
     </g>
     <g id="text_5">
      <!-- 1.0 -->
      <g style="fill: #262626" transform="translate(199.049375 201.414875) scale(0.088 -0.088)">
       <use xlink:href="#ArialMT-31"/>
       <use xlink:href="#ArialMT-2e" x="55.615234"/>
       <use xlink:href="#ArialMT-30" x="83.398438"/>
      </g>
     </g>
    </g>
   </g>
   <g id="matplotlib.axis_2">
    <g id="ytick_1">
     <g id="line2d_6">
      <defs>
       <path id="m51e0a04a13" d="M 0 0 
L -4.8 0 
" style="stroke: #262626"/>
      </defs>
      <g>
       <use xlink:href="#m51e0a04a13" x="37.765375" y="186.816" style="fill: #262626; stroke: #262626"/>
      </g>
     </g>
     <g id="text_6">
      <!-- −1.00 -->
      <g style="fill: #262626" transform="translate(7.2 189.965438) scale(0.088 -0.088)">
       <use xlink:href="#ArialMT-2212"/>
       <use xlink:href="#ArialMT-31" x="58.398438"/>
       <use xlink:href="#ArialMT-2e" x="114.013672"/>
       <use xlink:href="#ArialMT-30" x="141.796875"/>
       <use xlink:href="#ArialMT-30" x="197.412109"/>
      </g>
     </g>
    </g>
    <g id="ytick_2">
     <g id="line2d_7">
      <g>
       <use xlink:href="#m51e0a04a13" x="37.765375" y="166.026" style="fill: #262626; stroke: #262626"/>
      </g>
     </g>
     <g id="text_7">
      <!-- −0.75 -->
      <g style="fill: #262626" transform="translate(7.2 169.175437) scale(0.088 -0.088)">
       <defs>
        <path id="ArialMT-37" d="M 303 3981 
L 303 4522 
L 3269 4522 
L 3269 4084 
Q 2831 3619 2401 2847 
Q 1972 2075 1738 1259 
Q 1569 684 1522 0 
L 944 0 
Q 953 541 1156 1306 
Q 1359 2072 1739 2783 
Q 2119 3494 2547 3981 
L 303 3981 
z
" transform="scale(0.015625)"/>
       </defs>
       <use xlink:href="#ArialMT-2212"/>
       <use xlink:href="#ArialMT-30" x="58.398438"/>
       <use xlink:href="#ArialMT-2e" x="114.013672"/>
       <use xlink:href="#ArialMT-37" x="141.796875"/>
       <use xlink:href="#ArialMT-35" x="197.412109"/>
      </g>
     </g>
    </g>
    <g id="ytick_3">
     <g id="line2d_8">
      <g>
       <use xlink:href="#m51e0a04a13" x="37.765375" y="145.236" style="fill: #262626; stroke: #262626"/>
      </g>
     </g>
     <g id="text_8">
      <!-- −0.50 -->
      <g style="fill: #262626" transform="translate(7.2 148.385437) scale(0.088 -0.088)">
       <use xlink:href="#ArialMT-2212"/>
       <use xlink:href="#ArialMT-30" x="58.398438"/>
       <use xlink:href="#ArialMT-2e" x="114.013672"/>
       <use xlink:href="#ArialMT-35" x="141.796875"/>
       <use xlink:href="#ArialMT-30" x="197.412109"/>
      </g>
     </g>
    </g>
    <g id="ytick_4">
     <g id="line2d_9">
      <g>
       <use xlink:href="#m51e0a04a13" x="37.765375" y="124.446" style="fill: #262626; stroke: #262626"/>
      </g>
     </g>
     <g id="text_9">
      <!-- −0.25 -->
      <g style="fill: #262626" transform="translate(7.2 127.595438) scale(0.088 -0.088)">
       <defs>
        <path id="ArialMT-32" d="M 3222 541 
L 3222 0 
L 194 0 
Q 188 203 259 391 
Q 375 700 629 1000 
Q 884 1300 1366 1694 
Q 2113 2306 2375 2664 
Q 2638 3022 2638 3341 
Q 2638 3675 2398 3904 
Q 2159 4134 1775 4134 
Q 1369 4134 1125 3890 
Q 881 3647 878 3216 
L 300 3275 
Q 359 3922 746 4261 
Q 1134 4600 1788 4600 
Q 2447 4600 2831 4234 
Q 3216 3869 3216 3328 
Q 3216 3053 3103 2787 
Q 2991 2522 2730 2228 
Q 2469 1934 1863 1422 
Q 1356 997 1212 845 
Q 1069 694 975 541 
L 3222 541 
z
" transform="scale(0.015625)"/>
       </defs>
       <use xlink:href="#ArialMT-2212"/>
       <use xlink:href="#ArialMT-30" x="58.398438"/>
       <use xlink:href="#ArialMT-2e" x="114.013672"/>
       <use xlink:href="#ArialMT-32" x="141.796875"/>
       <use xlink:href="#ArialMT-35" x="197.412109"/>
      </g>
     </g>
    </g>
    <g id="ytick_5">
     <g id="line2d_10">
      <g>
       <use xlink:href="#m51e0a04a13" x="37.765375" y="103.656" style="fill: #262626; stroke: #262626"/>
      </g>
     </g>
     <g id="text_10">
      <!-- 0.00 -->
      <g style="fill: #262626" transform="translate(12.33975 106.805437) scale(0.088 -0.088)">
       <use xlink:href="#ArialMT-30"/>
       <use xlink:href="#ArialMT-2e" x="55.615234"/>
       <use xlink:href="#ArialMT-30" x="83.398438"/>
       <use xlink:href="#ArialMT-30" x="139.013672"/>
      </g>
     </g>
    </g>
    <g id="ytick_6">
     <g id="line2d_11">
      <g>
       <use xlink:href="#m51e0a04a13" x="37.765375" y="82.866" style="fill: #262626; stroke: #262626"/>
      </g>
     </g>
     <g id="text_11">
      <!-- 0.25 -->
      <g style="fill: #262626" transform="translate(12.33975 86.015437) scale(0.088 -0.088)">
       <use xlink:href="#ArialMT-30"/>
       <use xlink:href="#ArialMT-2e" x="55.615234"/>
       <use xlink:href="#ArialMT-32" x="83.398438"/>
       <use xlink:href="#ArialMT-35" x="139.013672"/>
      </g>
     </g>
    </g>
    <g id="ytick_7">
     <g id="line2d_12">
      <g>
       <use xlink:href="#m51e0a04a13" x="37.765375" y="62.076" style="fill: #262626; stroke: #262626"/>
      </g>
     </g>
     <g id="text_12">
      <!-- 0.50 -->
      <g style="fill: #262626" transform="translate(12.33975 65.225437) scale(0.088 -0.088)">
       <use xlink:href="#ArialMT-30"/>
       <use xlink:href="#ArialMT-2e" x="55.615234"/>
       <use xlink:href="#ArialMT-35" x="83.398438"/>
       <use xlink:href="#ArialMT-30" x="139.013672"/>
      </g>
     </g>
    </g>
    <g id="ytick_8">
     <g id="line2d_13">
      <g>
       <use xlink:href="#m51e0a04a13" x="37.765375" y="41.286" style="fill: #262626; stroke: #262626"/>
      </g>
     </g>
     <g id="text_13">
      <!-- 0.75 -->
      <g style="fill: #262626" transform="translate(12.33975 44.435438) scale(0.088 -0.088)">
       <use xlink:href="#ArialMT-30"/>
       <use xlink:href="#ArialMT-2e" x="55.615234"/>
       <use xlink:href="#ArialMT-37" x="83.398438"/>
       <use xlink:href="#ArialMT-35" x="139.013672"/>
      </g>
     </g>
    </g>
    <g id="ytick_9">
     <g id="line2d_14">
      <g>
       <use xlink:href="#m51e0a04a13" x="37.765375" y="20.496" style="fill: #262626; stroke: #262626"/>
      </g>
     </g>
     <g id="text_14">
      <!-- 1.00 -->
      <g style="fill: #262626" transform="translate(12.33975 23.645437) scale(0.088 -0.088)">
       <use xlink:href="#ArialMT-31"/>
       <use xlink:href="#ArialMT-2e" x="55.615234"/>
       <use xlink:href="#ArialMT-30" x="83.398438"/>
       <use xlink:href="#ArialMT-30" x="139.013672"/>
      </g>
     </g>
    </g>
   </g>
   <g id="QuadContourSet_1">
    <path d="M 39.456284 186.816 
L 41.147193 186.816 
L 42.838102 186.816 
L 44.529011 186.816 
L 46.21992 186.816 
L 47.91083 186.816 
L 49.601739 186.816 
L 51.292648 186.816 
L 52.983557 186.816 
L 54.674466 186.816 
L 56.365375 186.816 
L 58.056284 186.816 
L 59.747193 186.816 
L 61.438102 186.816 
L 63.129011 186.816 
L 64.81992 186.816 
L 66.51083 186.816 
L 68.201739 186.816 
L 69.892648 186.816 
L 71.583557 186.816 
L 73.274466 186.816 
L 74.965375 186.816 
L 76.656284 186.816 
L 78.347193 186.816 
L 80.038102 186.816 
L 81.729011 186.816 
L 83.41992 186.816 
L 85.11083 186.816 
L 86.801739 186.816 
L 88.492648 186.816 
L 90.183557 186.816 
L 91.874466 186.816 
L 93.565375 186.816 
L 95.256284 186.816 
L 96.947193 186.816 
L 98.638102 186.816 
L 100.329011 186.816 
L 102.01992 186.816 
L 103.71083 186.816 
L 105.401739 186.816 
L 107.092648 186.816 
L 108.783557 186.816 
L 110.474466 186.816 
L 112.165375 186.816 
L 113.856284 186.816 
L 115.547193 186.816 
L 117.238102 186.816 
L 118.929011 186.816 
L 120.61992 186.816 
L 122.31083 186.816 
L 124.001739 186.816 
L 125.692648 186.816 
L 127.383557 186.816 
L 129.074466 186.816 
L 130.765375 186.816 
L 132.456284 186.816 
L 134.147193 186.816 
L 135.838102 186.816 
L 137.529011 186.816 
L 139.21992 186.816 
L 140.91083 186.816 
L 142.601739 186.816 
L 144.292648 186.816 
L 145.983557 186.816 
L 147.674466 186.816 
L 149.365375 186.816 
L 151.056284 186.816 
L 152.747193 186.816 
L 154.438102 186.816 
L 156.129011 186.816 
L 157.81992 186.816 
L 159.51083 186.816 
L 161.201739 186.816 
L 162.892648 186.816 
L 164.583557 186.816 
L 166.274466 186.816 
L 167.965375 186.816 
L 169.656284 186.816 
L 171.347193 186.816 
L 173.038102 186.816 
L 174.729011 186.816 
L 176.41992 186.816 
L 178.11083 186.816 
L 179.801739 186.816 
L 181.492648 186.816 
L 183.183557 186.816 
L 184.874466 186.816 
L 186.565375 186.816 
L 188.256284 186.816 
L 189.947193 186.816 
L 191.638102 186.816 
L 193.329011 186.816 
L 195.01992 186.816 
L 196.71083 186.816 
L 198.401739 186.816 
L 200.092648 186.816 
L 201.783557 186.816 
L 203.474466 186.816 
L 205.165375 186.816 
L 205.165375 185.136 
L 205.165375 183.456 
L 205.165375 181.776 
L 205.165375 180.096 
L 205.165375 178.416 
L 205.165375 176.736 
L 205.165375 175.056 
L 205.165375 173.376 
L 205.165375 171.696 
L 205.165375 170.016 
L 205.165375 168.336 
L 205.165375 166.656 
L 205.165375 164.976 
L 205.165375 163.296 
L 205.165375 161.616 
L 205.165375 159.936 
L 205.165375 158.256 
L 205.165375 156.576 
L 205.165375 154.896 
L 205.165375 153.216 
L 205.165375 151.536 
L 205.165375 149.856 
L 205.165375 148.176 
L 205.165375 146.496 
L 205.165375 144.816 
L 205.165375 143.136 
L 205.165375 141.456 
L 205.165375 139.776 
L 205.165375 138.096 
L 205.165375 136.416 
L 205.165375 134.736 
L 205.165375 133.056 
L 205.165375 131.376 
L 205.165375 129.696 
L 205.165375 128.016 
L 205.165375 126.336 
L 205.165375 124.656 
L 205.165375 122.976 
L 205.165375 121.296 
L 205.165375 119.616 
L 205.165375 117.936 
L 205.165375 116.256 
L 205.165375 114.576 
L 205.165375 112.896 
L 205.165375 111.216 
L 205.165375 109.536 
L 205.165375 107.856 
L 205.165375 106.176 
L 205.165375 104.496 
L 205.165375 102.816 
L 205.165375 101.136 
L 205.165375 99.456 
L 205.165375 97.776 
L 205.165375 96.096 
L 205.165375 94.416 
L 205.165375 92.736 
L 205.165375 91.056 
L 205.165375 89.376 
L 205.165375 87.696 
L 205.165375 86.016 
L 205.165375 84.336 
L 205.165375 82.656 
L 205.165375 80.976 
L 205.165375 79.296 
L 205.165375 77.616 
L 205.165375 75.936 
L 205.165375 74.256 
L 205.165375 72.576 
L 205.165375 70.896 
L 205.165375 69.216 
L 205.165375 67.536 
L 205.165375 65.856 
L 205.165375 64.176 
L 205.165375 62.496 
L 205.165375 60.816 
L 205.165375 59.136 
L 205.165375 57.456 
L 205.165375 55.776 
L 205.165375 54.096 
L 205.165375 52.416 
L 205.165375 50.736 
L 205.165375 49.056 
L 205.165375 47.376 
L 205.165375 45.696 
L 205.165375 44.016 
L 205.165375 42.336 
L 205.165375 40.656 
L 205.165375 38.976 
L 205.165375 37.296 
L 205.165375 35.616 
L 205.165375 33.936 
L 205.165375 32.256 
L 205.165375 30.576 
L 205.165375 28.896 
L 205.165375 27.216 
L 205.165375 25.536 
L 205.165375 23.856 
L 205.165375 22.176 
L 205.165375 20.496 
L 203.474466 20.496 
L 201.783557 20.496 
L 200.092648 20.496 
L 198.401739 20.496 
L 196.71083 20.496 
L 195.01992 20.496 
L 193.329011 20.496 
L 191.638102 20.496 
L 189.947193 20.496 
L 188.256284 20.496 
L 186.565375 20.496 
L 184.874466 20.496 
L 183.183557 20.496 
L 181.492648 20.496 
L 179.801739 20.496 
L 178.11083 20.496 
L 176.41992 20.496 
L 174.729011 20.496 
L 173.038102 20.496 
L 171.347193 20.496 
L 169.656284 20.496 
L 167.965375 20.496 
L 166.274466 20.496 
L 164.583557 20.496 
L 162.892648 20.496 
L 161.201739 20.496 
L 159.51083 20.496 
L 157.81992 20.496 
L 156.129011 20.496 
L 154.438102 20.496 
L 152.747193 20.496 
L 151.056284 20.496 
L 149.365375 20.496 
L 147.674466 20.496 
L 145.983557 20.496 
L 144.292648 20.496 
L 142.601739 20.496 
L 140.91083 20.496 
L 139.21992 20.496 
L 137.529011 20.496 
L 135.838102 20.496 
L 134.147193 20.496 
L 132.456284 20.496 
L 130.765375 20.496 
L 129.074466 20.496 
L 127.383557 20.496 
L 125.692648 20.496 
L 124.001739 20.496 
L 122.31083 20.496 
L 120.61992 20.496 
L 118.929011 20.496 
L 117.238102 20.496 
L 115.547193 20.496 
L 113.856284 20.496 
L 112.165375 20.496 
L 110.474466 20.496 
L 108.783557 20.496 
L 107.092648 20.496 
L 105.401739 20.496 
L 103.71083 20.496 
L 102.01992 20.496 
L 100.329011 20.496 
L 98.638102 20.496 
L 96.947193 20.496 
L 95.256284 20.496 
L 93.565375 20.496 
L 91.874466 20.496 
L 90.183557 20.496 
L 88.492648 20.496 
L 86.801739 20.496 
L 85.11083 20.496 
L 83.41992 20.496 
L 81.729011 20.496 
L 80.038102 20.496 
L 78.347193 20.496 
L 76.656284 20.496 
L 74.965375 20.496 
L 73.274466 20.496 
L 71.583557 20.496 
L 69.892648 20.496 
L 68.201739 20.496 
L 66.51083 20.496 
L 64.81992 20.496 
L 63.129011 20.496 
L 61.438102 20.496 
L 59.747193 20.496 
L 58.056284 20.496 
L 56.365375 20.496 
L 54.674466 20.496 
L 52.983557 20.496 
L 51.292648 20.496 
L 49.601739 20.496 
L 47.91083 20.496 
L 46.21992 20.496 
L 44.529011 20.496 
L 42.838102 20.496 
L 41.147193 20.496 
L 39.456284 20.496 
L 37.765375 20.496 
L 37.765375 22.176 
L 37.765375 23.856 
L 37.765375 25.536 
L 37.765375 27.216 
L 37.765375 28.896 
L 37.765375 30.576 
L 37.765375 32.256 
L 37.765375 33.936 
L 37.765375 35.616 
L 37.765375 37.296 
L 37.765375 38.976 
L 37.765375 40.656 
L 37.765375 42.336 
L 37.765375 44.016 
L 37.765375 45.696 
L 37.765375 47.376 
L 37.765375 49.056 
L 37.765375 50.736 
L 37.765375 52.416 
L 37.765375 54.096 
L 37.765375 55.776 
L 37.765375 57.456 
L 37.765375 59.136 
L 37.765375 60.816 
L 37.765375 62.496 
L 37.765375 64.176 
L 37.765375 65.856 
L 37.765375 67.536 
L 37.765375 69.216 
L 37.765375 70.896 
L 37.765375 72.576 
L 37.765375 74.256 
L 37.765375 75.936 
L 37.765375 77.616 
L 37.765375 79.296 
L 37.765375 80.976 
L 37.765375 82.656 
L 37.765375 84.336 
L 37.765375 86.016 
L 37.765375 87.696 
L 37.765375 89.376 
L 37.765375 91.056 
L 37.765375 92.736 
L 37.765375 94.416 
L 37.765375 96.096 
L 37.765375 97.776 
L 37.765375 99.456 
L 37.765375 101.136 
L 37.765375 102.816 
L 37.765375 104.496 
L 37.765375 106.176 
L 37.765375 107.856 
L 37.765375 109.536 
L 37.765375 111.216 
L 37.765375 112.896 
L 37.765375 114.576 
L 37.765375 116.256 
L 37.765375 117.936 
L 37.765375 119.616 
L 37.765375 121.296 
L 37.765375 122.976 
L 37.765375 124.656 
L 37.765375 126.336 
L 37.765375 128.016 
L 37.765375 129.696 
L 37.765375 131.376 
L 37.765375 133.056 
L 37.765375 134.736 
L 37.765375 136.416 
L 37.765375 138.096 
L 37.765375 139.776 
L 37.765375 141.456 
L 37.765375 143.136 
L 37.765375 144.816 
L 37.765375 146.496 
L 37.765375 148.176 
L 37.765375 149.856 
L 37.765375 151.536 
L 37.765375 153.216 
L 37.765375 154.896 
L 37.765375 156.576 
L 37.765375 158.256 
L 37.765375 159.936 
L 37.765375 161.616 
L 37.765375 163.296 
L 37.765375 164.976 
L 37.765375 166.656 
L 37.765375 168.336 
L 37.765375 170.016 
L 37.765375 171.696 
L 37.765375 173.376 
L 37.765375 175.056 
L 37.765375 176.736 
L 37.765375 178.416 
L 37.765375 180.096 
L 37.765375 181.776 
L 37.765375 183.456 
L 37.765375 185.136 
L 37.765375 186.816 
z
" clip-path="url(#pfd85e1c097)" style="fill: #611f53"/>
    <path clip-path="url(#pfd85e1c097)" style="fill: #f4845d"/>
   </g>
   <g id="patch_3">
    <path d="M 37.765375 186.816 
L 37.765375 20.496 
" style="fill: none; stroke: #262626; stroke-linejoin: miter; stroke-linecap: square"/>
   </g>
   <g id="patch_4">
    <path d="M 205.165375 186.816 
L 205.165375 20.496 
" style="fill: none; stroke: #262626; stroke-linejoin: miter; stroke-linecap: square"/>
   </g>
   <g id="patch_5">
    <path d="M 37.765375 186.816 
L 205.165375 186.816 
" style="fill: none; stroke: #262626; stroke-linejoin: miter; stroke-linecap: square"/>
   </g>
   <g id="patch_6">
    <path d="M 37.765375 20.496 
L 205.165375 20.496 
" style="fill: none; stroke: #262626; stroke-linejoin: miter; stroke-linecap: square"/>
   </g>
   <g id="text_15">
    <!-- $\psi_{0} = \phi_{10}\otimes \phi_{20}$ -->
    <g style="fill: #262626" transform="translate(89.065375 14.496) scale(0.096 -0.096)">
     <defs>
      <path id="DejaVuSans-Oblique-3c8" d="M 1591 -78 
Q 891 38 616 341 
Q 278 713 425 1472 
L 819 3500 
L 1400 3500 
L 1009 1494 
Q 900 922 1119 684 
Q 1313 478 1691 434 
L 2284 3500 
L 2856 3500 
L 2263 438 
Q 2681 481 2928 688 
Q 3247 950 3353 1497 
L 3741 3500 
L 4322 3500 
L 3928 1475 
Q 3775 688 3300 344 
Q 2872 34 2163 -75 
L 1919 -1331 
L 1347 -1331 
L 1591 -78 
z
" transform="scale(0.015625)"/>
      <path id="DejaVuSans-30" d="M 2034 4250 
Q 1547 4250 1301 3770 
Q 1056 3291 1056 2328 
Q 1056 1369 1301 889 
Q 1547 409 2034 409 
Q 2525 409 2770 889 
Q 3016 1369 3016 2328 
Q 3016 3291 2770 3770 
Q 2525 4250 2034 4250 
z
M 2034 4750 
Q 2819 4750 3233 4129 
Q 3647 3509 3647 2328 
Q 3647 1150 3233 529 
Q 2819 -91 2034 -91 
Q 1250 -91 836 529 
Q 422 1150 422 2328 
Q 422 3509 836 4129 
Q 1250 4750 2034 4750 
z
" transform="scale(0.015625)"/>
      <path id="DejaVuSans-3d" d="M 678 2906 
L 4684 2906 
L 4684 2381 
L 678 2381 
L 678 2906 
z
M 678 1631 
L 4684 1631 
L 4684 1100 
L 678 1100 
L 678 1631 
z
" transform="scale(0.015625)"/>
      <path id="DejaVuSans-Oblique-3d5" d="M 2991 4863 
L 2738 3572 
Q 3363 3572 3684 3094 
Q 4016 2606 3850 1747 
Q 3681 888 3159 400 
Q 2653 -78 2028 -78 
L 1784 -1331 
L 1213 -1331 
L 1456 -78 
Q 834 -78 509 400 
Q 178 888 347 1747 
Q 513 2606 1034 3094 
Q 1544 3572 2166 3572 
L 2419 4863 
L 2991 4863 
z
M 2128 434 
Q 2481 434 2784 756 
Q 3116 1116 3244 1747 
Q 3369 2372 3169 2738 
Q 2991 3059 2638 3059 
L 2128 434 
z
M 1556 434 
L 2066 3059 
Q 1716 3059 1413 2738 
Q 1072 2372 953 1747 
Q 834 1116 1028 756 
Q 1203 434 1556 434 
z
" transform="scale(0.015625)"/>
      <path id="DejaVuSans-31" d="M 794 531 
L 1825 531 
L 1825 4091 
L 703 3866 
L 703 4441 
L 1819 4666 
L 2450 4666 
L 2450 531 
L 3481 531 
L 3481 0 
L 794 0 
L 794 531 
z
" transform="scale(0.015625)"/>
      <path id="DejaVuSans-2297" d="M 3306 3522 
Q 3016 3644 2681 3644 
Q 2347 3644 2056 3522 
Q 1769 3400 1531 3163 
Q 1291 2922 1172 2634 
Q 1053 2347 1053 2006 
Q 1053 1675 1172 1387 
Q 1291 1100 1531 859 
Q 1769 622 2056 500 
Q 2347 378 2681 378 
Q 3016 378 3306 500 
Q 3594 622 3831 859 
Q 4072 1100 4190 1387 
Q 4309 1675 4309 2006 
Q 4309 2347 4190 2634 
Q 4072 2922 3831 3163 
Q 3594 3400 3306 3522 
z
M 1878 3956 
Q 2250 4113 2681 4113 
Q 3113 4113 3484 3956 
Q 3856 3800 4163 3494 
Q 4472 3184 4625 2813 
Q 4778 2444 4778 2006 
Q 4778 1578 4625 1206 
Q 4472 838 4163 528 
Q 3856 222 3484 65 
Q 3113 -91 2681 -91 
Q 2250 -91 1878 65 
Q 1506 222 1200 528 
Q 891 838 738 1206 
Q 584 1578 584 2006 
Q 584 2444 738 2813 
Q 891 3184 1200 3494 
Q 1506 3800 1878 3956 
z
M 3847 2794 
L 3056 2006 
L 3844 1219 
L 3469 844 
L 2681 1631 
L 1894 841 
L 1516 1219 
L 2306 2006 
L 1519 2794 
L 1894 3169 
L 2681 2381 
L 3469 3172 
L 3847 2794 
z
" transform="scale(0.015625)"/>
      <path id="DejaVuSans-32" d="M 1228 531 
L 3431 531 
L 3431 0 
L 469 0 
L 469 531 
Q 828 903 1448 1529 
Q 2069 2156 2228 2338 
Q 2531 2678 2651 2914 
Q 2772 3150 2772 3378 
Q 2772 3750 2511 3984 
Q 2250 4219 1831 4219 
Q 1534 4219 1204 4116 
Q 875 4013 500 3803 
L 500 4441 
Q 881 4594 1212 4672 
Q 1544 4750 1819 4750 
Q 2544 4750 2975 4387 
Q 3406 4025 3406 3419 
Q 3406 3131 3298 2873 
Q 3191 2616 2906 2266 
Q 2828 2175 2409 1742 
Q 1991 1309 1228 531 
z
" transform="scale(0.015625)"/>
     </defs>
     <use xlink:href="#DejaVuSans-Oblique-3c8" transform="translate(0 0.015625)"/>
     <use xlink:href="#DejaVuSans-30" transform="translate(65.966797 -16.390625) scale(0.7)"/>
     <use xlink:href="#DejaVuSans-3d" transform="translate(132.719727 0.015625)"/>
     <use xlink:href="#DejaVuSans-Oblique-3d5" transform="translate(235.991211 0.015625)"/>
     <use xlink:href="#DejaVuSans-31" transform="translate(301.958008 -16.390625) scale(0.7)"/>
     <use xlink:href="#DejaVuSans-30" transform="translate(346.494141 -16.390625) scale(0.7)"/>
     <use xlink:href="#DejaVuSans-2297" transform="translate(413.24707 0.015625)"/>
     <use xlink:href="#DejaVuSans-Oblique-3d5" transform="translate(516.518555 0.015625)"/>
     <use xlink:href="#DejaVuSans-32" transform="translate(582.485352 -16.390625) scale(0.7)"/>
     <use xlink:href="#DejaVuSans-30" transform="translate(627.021484 -16.390625) scale(0.7)"/>
    </g>
   </g>
  </g>
 </g>
 <defs>
  <clipPath id="pfd85e1c097">
   <rect x="37.765375" y="20.496" width="167.4" height="166.32"/>
  </clipPath>
 </defs>
</svg>