<?xml version="1.0" encoding="utf-8" standalone="no"?>
<!DOCTYPE svg PUBLIC "-//W3C//DTD SVG 1.1//EN"
  "http://www.w3.org/Graphics/SVG/1.1/DTD/svg11.dtd">
<svg xmlns:xlink="http://www.w3.org/1999/xlink" width="410.20075pt" height="309.639375pt" viewBox="0 0 410.20075 309.639375" xmlns="http://www.w3.org/2000/svg" version="1.1">
 <metadata>
  <rdf:RDF xmlns:dc="http://purl.org/dc/elements/1.1/" xmlns:cc="http://creativecommons.org/ns#" xmlns:rdf="http://www.w3.org/1999/02/22-rdf-syntax-ns#">
   <cc:Work>
    <dc:type rdf:resource="http://purl.org/dc/dcmitype/StillImage"/>
    <dc:date>2023-12-08T17:33:44.448555</dc:date>
    <dc:format>image/svg+xml</dc:format>
    <dc:creator>
     <cc:Agent>
      <dc:title>Matplotlib v3.8.0, https://matplotlib.org/</dc:title>
     </cc:Agent>
    </dc:creator>
   </cc:Work>
  </rdf:RDF>
 </metadata>
 <defs>
  <style type="text/css">*{stroke-linejoin: round; stroke-linecap: butt}</style>
 </defs>
 <g id="figure_1">
  <g id="patch_1">
   <path d="M 0 309.639375 
L 410.20075 309.639375 
L 410.20075 0 
L 0 0 
z
" style="fill: #ffffff"/>
  </g>
  <g id="axes_1">
   <g id="patch_2">
    <path d="M 45.88075 273.312 
L 403.00075 273.312 
L 403.00075 7.2 
L 45.88075 7.2 
z
" style="fill: #ffffff"/>
   </g>
   <g id="matplotlib.axis_1">
    <g id="xtick_1">
     <g id="line2d_1">
      <defs>
       <path id="m1178a39d2a" d="M 0 0 
L 0 4.8 
" style="stroke: #262626"/>
      </defs>
      <g>
       <use xlink:href="#m1178a39d2a" x="62.113477" y="273.312" style="fill: #262626; stroke: #262626"/>
      </g>
     </g>
     <g id="text_1">
      <!-- 0 -->
      <g style="fill: #262626" transform="translate(59.666665 287.910875) scale(0.088 -0.088)">
       <defs>
        <path id="ArialMT-30" d="M 266 2259 
Q 266 3072 433 3567 
Q 600 4063 929 4331 
Q 1259 4600 1759 4600 
Q 2128 4600 2406 4451 
Q 2684 4303 2865 4023 
Q 3047 3744 3150 3342 
Q 3253 2941 3253 2259 
Q 3253 1453 3087 958 
Q 2922 463 2592 192 
Q 2263 -78 1759 -78 
Q 1097 -78 719 397 
Q 266 969 266 2259 
z
M 844 2259 
Q 844 1131 1108 757 
Q 1372 384 1759 384 
Q 2147 384 2411 759 
Q 2675 1134 2675 2259 
Q 2675 3391 2411 3762 
Q 2147 4134 1753 4134 
Q 1366 4134 1134 3806 
Q 844 3388 844 2259 
z
" transform="scale(0.015625)"/>
       </defs>
       <use xlink:href="#ArialMT-30"/>
      </g>
     </g>
    </g>
    <g id="xtick_2">
     <g id="line2d_2">
      <g>
       <use xlink:href="#m1178a39d2a" x="127.044386" y="273.312" style="fill: #262626; stroke: #262626"/>
      </g>
     </g>
     <g id="text_2">
      <!-- 10 -->
      <g style="fill: #262626" transform="translate(122.150761 287.910875) scale(0.088 -0.088)">
       <defs>
        <path id="ArialMT-31" d="M 2384 0 
L 1822 0 
L 1822 3584 
Q 1619 3391 1289 3197 
Q 959 3003 697 2906 
L 697 3450 
Q 1169 3672 1522 3987 
Q 1875 4303 2022 4600 
L 2384 4600 
L 2384 0 
z
" transform="scale(0.015625)"/>
       </defs>
       <use xlink:href="#ArialMT-31"/>
       <use xlink:href="#ArialMT-30" x="55.615234"/>
      </g>
     </g>
    </g>
    <g id="xtick_3">
     <g id="line2d_3">
      <g>
       <use xlink:href="#m1178a39d2a" x="191.975295" y="273.312" style="fill: #262626; stroke: #262626"/>
      </g>
     </g>
     <g id="text_3">
      <!-- 20 -->
      <g style="fill: #262626" transform="translate(187.08167 287.910875) scale(0.088 -0.088)">
       <defs>
        <path id="ArialMT-32" d="M 3222 541 
L 3222 0 
L 194 0 
Q 188 203 259 391 
Q 375 700 629 1000 
Q 884 1300 1366 1694 
Q 2113 2306 2375 2664 
Q 2638 3022 2638 3341 
Q 2638 3675 2398 3904 
Q 2159 4134 1775 4134 
Q 1369 4134 1125 3890 
Q 881 3647 878 3216 
L 300 3275 
Q 359 3922 746 4261 
Q 1134 4600 1788 4600 
Q 2447 4600 2831 4234 
Q 3216 3869 3216 3328 
Q 3216 3053 3103 2787 
Q 2991 2522 2730 2228 
Q 2469 1934 1863 1422 
Q 1356 997 1212 845 
Q 1069 694 975 541 
L 3222 541 
z
" transform="scale(0.015625)"/>
       </defs>
       <use xlink:href="#ArialMT-32"/>
       <use xlink:href="#ArialMT-30" x="55.615234"/>
      </g>
     </g>
    </g>
    <g id="xtick_4">
     <g id="line2d_4">
      <g>
       <use xlink:href="#m1178a39d2a" x="256.906205" y="273.312" style="fill: #262626; stroke: #262626"/>
      </g>
     </g>
     <g id="text_4">
      <!-- 30 -->
      <g style="fill: #262626" transform="translate(252.01258 287.910875) scale(0.088 -0.088)">
       <defs>
        <path id="ArialMT-33" d="M 269 1209 
L 831 1284 
Q 928 806 1161 595 
Q 1394 384 1728 384 
Q 2125 384 2398 659 
Q 2672 934 2672 1341 
Q 2672 1728 2419 1979 
Q 2166 2231 1775 2231 
Q 1616 2231 1378 2169 
L 1441 2663 
Q 1497 2656 1531 2656 
Q 1891 2656 2178 2843 
Q 2466 3031 2466 3422 
Q 2466 3731 2256 3934 
Q 2047 4138 1716 4138 
Q 1388 4138 1169 3931 
Q 950 3725 888 3313 
L 325 3413 
Q 428 3978 793 4289 
Q 1159 4600 1703 4600 
Q 2078 4600 2393 4439 
Q 2709 4278 2876 4000 
Q 3044 3722 3044 3409 
Q 3044 3113 2884 2869 
Q 2725 2625 2413 2481 
Q 2819 2388 3044 2092 
Q 3269 1797 3269 1353 
Q 3269 753 2831 336 
Q 2394 -81 1725 -81 
Q 1122 -81 723 278 
Q 325 638 269 1209 
z
" transform="scale(0.015625)"/>
       </defs>
       <use xlink:href="#ArialMT-33"/>
       <use xlink:href="#ArialMT-30" x="55.615234"/>
      </g>
     </g>
    </g>
    <g id="xtick_5">
     <g id="line2d_5">
      <g>
       <use xlink:href="#m1178a39d2a" x="321.837114" y="273.312" style="fill: #262626; stroke: #262626"/>
      </g>
     </g>
     <g id="text_5">
      <!-- 40 -->
      <g style="fill: #262626" transform="translate(316.943489 287.910875) scale(0.088 -0.088)">
       <defs>
        <path id="ArialMT-34" d="M 2069 0 
L 2069 1097 
L 81 1097 
L 81 1613 
L 2172 4581 
L 2631 4581 
L 2631 1613 
L 3250 1613 
L 3250 1097 
L 2631 1097 
L 2631 0 
L 2069 0 
z
M 2069 1613 
L 2069 3678 
L 634 1613 
L 2069 1613 
z
" transform="scale(0.015625)"/>
       </defs>
       <use xlink:href="#ArialMT-34"/>
       <use xlink:href="#ArialMT-30" x="55.615234"/>
      </g>
     </g>
    </g>
    <g id="xtick_6">
     <g id="line2d_6">
      <g>
       <use xlink:href="#m1178a39d2a" x="386.768023" y="273.312" style="fill: #262626; stroke: #262626"/>
      </g>
     </g>
     <g id="text_6">
      <!-- 50 -->
      <g style="fill: #262626" transform="translate(381.874398 287.910875) scale(0.088 -0.088)">
       <defs>
        <path id="ArialMT-35" d="M 266 1200 
L 856 1250 
Q 922 819 1161 601 
Q 1400 384 1738 384 
Q 2144 384 2425 690 
Q 2706 997 2706 1503 
Q 2706 1984 2436 2262 
Q 2166 2541 1728 2541 
Q 1456 2541 1237 2417 
Q 1019 2294 894 2097 
L 366 2166 
L 809 4519 
L 3088 4519 
L 3088 3981 
L 1259 3981 
L 1013 2750 
Q 1425 3038 1878 3038 
Q 2478 3038 2890 2622 
Q 3303 2206 3303 1553 
Q 3303 931 2941 478 
Q 2500 -78 1738 -78 
Q 1113 -78 717 272 
Q 322 622 266 1200 
z
" transform="scale(0.015625)"/>
       </defs>
       <use xlink:href="#ArialMT-35"/>
       <use xlink:href="#ArialMT-30" x="55.615234"/>
      </g>
     </g>
    </g>
    <g id="text_7">
     <!-- t -->
     <g style="fill: #262626" transform="translate(223.10725 300.531375) scale(0.096 -0.096)">
      <defs>
       <path id="ArialMT-74" d="M 1650 503 
L 1731 6 
Q 1494 -44 1306 -44 
Q 1000 -44 831 53 
Q 663 150 594 308 
Q 525 466 525 972 
L 525 2881 
L 113 2881 
L 113 3319 
L 525 3319 
L 525 4141 
L 1084 4478 
L 1084 3319 
L 1650 3319 
L 1650 2881 
L 1084 2881 
L 1084 941 
Q 1084 700 1114 631 
Q 1144 563 1211 522 
Q 1278 481 1403 481 
Q 1497 481 1650 503 
z
" transform="scale(0.015625)"/>
      </defs>
      <use xlink:href="#ArialMT-74"/>
     </g>
    </g>
   </g>
   <g id="matplotlib.axis_2">
    <g id="ytick_1">
     <g id="line2d_7">
      <defs>
       <path id="m8ad92c26c1" d="M 0 0 
L -4.8 0 
" style="stroke: #262626"/>
      </defs>
      <g>
       <use xlink:href="#m8ad92c26c1" x="45.88075" y="271.661378" style="fill: #262626; stroke: #262626"/>
      </g>
     </g>
     <g id="text_8">
      <!-- −0.8 -->
      <g style="fill: #262626" transform="translate(20.209 274.810816) scale(0.088 -0.088)">
       <defs>
        <path id="ArialMT-2212" d="M 3381 1997 
L 356 1997 
L 356 2522 
L 3381 2522 
L 3381 1997 
z
" transform="scale(0.015625)"/>
        <path id="ArialMT-2e" d="M 581 0 
L 581 641 
L 1222 641 
L 1222 0 
L 581 0 
z
" transform="scale(0.015625)"/>
        <path id="ArialMT-38" d="M 1131 2484 
Q 781 2613 612 2850 
Q 444 3088 444 3419 
Q 444 3919 803 4259 
Q 1163 4600 1759 4600 
Q 2359 4600 2725 4251 
Q 3091 3903 3091 3403 
Q 3091 3084 2923 2848 
Q 2756 2613 2416 2484 
Q 2838 2347 3058 2040 
Q 3278 1734 3278 1309 
Q 3278 722 2862 322 
Q 2447 -78 1769 -78 
Q 1091 -78 675 323 
Q 259 725 259 1325 
Q 259 1772 486 2073 
Q 713 2375 1131 2484 
z
M 1019 3438 
Q 1019 3113 1228 2906 
Q 1438 2700 1772 2700 
Q 2097 2700 2305 2904 
Q 2513 3109 2513 3406 
Q 2513 3716 2298 3927 
Q 2084 4138 1766 4138 
Q 1444 4138 1231 3931 
Q 1019 3725 1019 3438 
z
M 838 1322 
Q 838 1081 952 856 
Q 1066 631 1291 507 
Q 1516 384 1775 384 
Q 2178 384 2440 643 
Q 2703 903 2703 1303 
Q 2703 1709 2433 1975 
Q 2163 2241 1756 2241 
Q 1359 2241 1098 1978 
Q 838 1716 838 1322 
z
" transform="scale(0.015625)"/>
       </defs>
       <use xlink:href="#ArialMT-2212"/>
       <use xlink:href="#ArialMT-30" x="58.398438"/>
       <use xlink:href="#ArialMT-2e" x="114.013672"/>
       <use xlink:href="#ArialMT-38" x="141.796875"/>
      </g>
     </g>
    </g>
    <g id="ytick_2">
     <g id="line2d_8">
      <g>
       <use xlink:href="#m8ad92c26c1" x="45.88075" y="239.632092" style="fill: #262626; stroke: #262626"/>
      </g>
     </g>
     <g id="text_9">
      <!-- −0.6 -->
      <g style="fill: #262626" transform="translate(20.209 242.781529) scale(0.088 -0.088)">
       <defs>
        <path id="ArialMT-36" d="M 3184 3459 
L 2625 3416 
Q 2550 3747 2413 3897 
Q 2184 4138 1850 4138 
Q 1581 4138 1378 3988 
Q 1113 3794 959 3422 
Q 806 3050 800 2363 
Q 1003 2672 1297 2822 
Q 1591 2972 1913 2972 
Q 2475 2972 2870 2558 
Q 3266 2144 3266 1488 
Q 3266 1056 3080 686 
Q 2894 316 2569 119 
Q 2244 -78 1831 -78 
Q 1128 -78 684 439 
Q 241 956 241 2144 
Q 241 3472 731 4075 
Q 1159 4600 1884 4600 
Q 2425 4600 2770 4297 
Q 3116 3994 3184 3459 
z
M 888 1484 
Q 888 1194 1011 928 
Q 1134 663 1356 523 
Q 1578 384 1822 384 
Q 2178 384 2434 671 
Q 2691 959 2691 1453 
Q 2691 1928 2437 2201 
Q 2184 2475 1800 2475 
Q 1419 2475 1153 2201 
Q 888 1928 888 1484 
z
" transform="scale(0.015625)"/>
       </defs>
       <use xlink:href="#ArialMT-2212"/>
       <use xlink:href="#ArialMT-30" x="58.398438"/>
       <use xlink:href="#ArialMT-2e" x="114.013672"/>
       <use xlink:href="#ArialMT-36" x="141.796875"/>
      </g>
     </g>
    </g>
    <g id="ytick_3">
     <g id="line2d_9">
      <g>
       <use xlink:href="#m8ad92c26c1" x="45.88075" y="207.602806" style="fill: #262626; stroke: #262626"/>
      </g>
     </g>
     <g id="text_10">
      <!-- −0.4 -->
      <g style="fill: #262626" transform="translate(20.209 210.752243) scale(0.088 -0.088)">
       <use xlink:href="#ArialMT-2212"/>
       <use xlink:href="#ArialMT-30" x="58.398438"/>
       <use xlink:href="#ArialMT-2e" x="114.013672"/>
       <use xlink:href="#ArialMT-34" x="141.796875"/>
      </g>
     </g>
    </g>
    <g id="ytick_4">
     <g id="line2d_10">
      <g>
       <use xlink:href="#m8ad92c26c1" x="45.88075" y="175.57352" style="fill: #262626; stroke: #262626"/>
      </g>
     </g>
     <g id="text_11">
      <!-- −0.2 -->
      <g style="fill: #262626" transform="translate(20.209 178.722957) scale(0.088 -0.088)">
       <use xlink:href="#ArialMT-2212"/>
       <use xlink:href="#ArialMT-30" x="58.398438"/>
       <use xlink:href="#ArialMT-2e" x="114.013672"/>
       <use xlink:href="#ArialMT-32" x="141.796875"/>
      </g>
     </g>
    </g>
    <g id="ytick_5">
     <g id="line2d_11">
      <g>
       <use xlink:href="#m8ad92c26c1" x="45.88075" y="143.544233" style="fill: #262626; stroke: #262626"/>
      </g>
     </g>
     <g id="text_12">
      <!-- 0.0 -->
      <g style="fill: #262626" transform="translate(25.34875 146.693671) scale(0.088 -0.088)">
       <use xlink:href="#ArialMT-30"/>
       <use xlink:href="#ArialMT-2e" x="55.615234"/>
       <use xlink:href="#ArialMT-30" x="83.398438"/>
      </g>
     </g>
    </g>
    <g id="ytick_6">
     <g id="line2d_12">
      <g>
       <use xlink:href="#m8ad92c26c1" x="45.88075" y="111.514947" style="fill: #262626; stroke: #262626"/>
      </g>
     </g>
     <g id="text_13">
      <!-- 0.2 -->
      <g style="fill: #262626" transform="translate(25.34875 114.664385) scale(0.088 -0.088)">
       <use xlink:href="#ArialMT-30"/>
       <use xlink:href="#ArialMT-2e" x="55.615234"/>
       <use xlink:href="#ArialMT-32" x="83.398438"/>
      </g>
     </g>
    </g>
    <g id="ytick_7">
     <g id="line2d_13">
      <g>
       <use xlink:href="#m8ad92c26c1" x="45.88075" y="79.485661" style="fill: #262626; stroke: #262626"/>
      </g>
     </g>
     <g id="text_14">
      <!-- 0.4 -->
      <g style="fill: #262626" transform="translate(25.34875 82.635099) scale(0.088 -0.088)">
       <use xlink:href="#ArialMT-30"/>
       <use xlink:href="#ArialMT-2e" x="55.615234"/>
       <use xlink:href="#ArialMT-34" x="83.398438"/>
      </g>
     </g>
    </g>
    <g id="ytick_8">
     <g id="line2d_14">
      <g>
       <use xlink:href="#m8ad92c26c1" x="45.88075" y="47.456375" style="fill: #262626; stroke: #262626"/>
      </g>
     </g>
     <g id="text_15">
      <!-- 0.6 -->
      <g style="fill: #262626" transform="translate(25.34875 50.605812) scale(0.088 -0.088)">
       <use xlink:href="#ArialMT-30"/>
       <use xlink:href="#ArialMT-2e" x="55.615234"/>
       <use xlink:href="#ArialMT-36" x="83.398438"/>
      </g>
     </g>
    </g>
    <g id="ytick_9">
     <g id="line2d_15">
      <g>
       <use xlink:href="#m8ad92c26c1" x="45.88075" y="15.427089" style="fill: #262626; stroke: #262626"/>
      </g>
     </g>
     <g id="text_16">
      <!-- 0.8 -->
      <g style="fill: #262626" transform="translate(25.34875 18.576526) scale(0.088 -0.088)">
       <use xlink:href="#ArialMT-30"/>
       <use xlink:href="#ArialMT-2e" x="55.615234"/>
       <use xlink:href="#ArialMT-38" x="83.398438"/>
      </g>
     </g>
    </g>
    <g id="text_17">
     <!-- x(t), v(t) -->
     <g style="fill: #262626" transform="translate(14.1885 156.783) rotate(-90) scale(0.096 -0.096)">
      <defs>
       <path id="ArialMT-78" d="M 47 0 
L 1259 1725 
L 138 3319 
L 841 3319 
L 1350 2541 
Q 1494 2319 1581 2169 
Q 1719 2375 1834 2534 
L 2394 3319 
L 3066 3319 
L 1919 1756 
L 3153 0 
L 2463 0 
L 1781 1031 
L 1600 1309 
L 728 0 
L 47 0 
z
" transform="scale(0.015625)"/>
       <path id="ArialMT-28" d="M 1497 -1347 
Q 1031 -759 709 28 
Q 388 816 388 1659 
Q 388 2403 628 3084 
Q 909 3875 1497 4659 
L 1900 4659 
Q 1522 4009 1400 3731 
Q 1209 3300 1100 2831 
Q 966 2247 966 1656 
Q 966 153 1900 -1347 
L 1497 -1347 
z
" transform="scale(0.015625)"/>
       <path id="ArialMT-29" d="M 791 -1347 
L 388 -1347 
Q 1322 153 1322 1656 
Q 1322 2244 1188 2822 
Q 1081 3291 891 3722 
Q 769 4003 388 4659 
L 791 4659 
Q 1378 3875 1659 3084 
Q 1900 2403 1900 1659 
Q 1900 816 1576 28 
Q 1253 -759 791 -1347 
z
" transform="scale(0.015625)"/>
       <path id="ArialMT-2c" d="M 569 0 
L 569 641 
L 1209 641 
L 1209 0 
Q 1209 -353 1084 -570 
Q 959 -788 688 -906 
L 531 -666 
Q 709 -588 793 -436 
Q 878 -284 888 0 
L 569 0 
z
" transform="scale(0.015625)"/>
       <path id="ArialMT-20" transform="scale(0.015625)"/>
       <path id="ArialMT-76" d="M 1344 0 
L 81 3319 
L 675 3319 
L 1388 1331 
Q 1503 1009 1600 663 
Q 1675 925 1809 1294 
L 2547 3319 
L 3125 3319 
L 1869 0 
L 1344 0 
z
" transform="scale(0.015625)"/>
      </defs>
      <use xlink:href="#ArialMT-78"/>
      <use xlink:href="#ArialMT-28" x="50"/>
      <use xlink:href="#ArialMT-74" x="83.300781"/>
      <use xlink:href="#ArialMT-29" x="111.083984"/>
      <use xlink:href="#ArialMT-2c" x="144.384766"/>
      <use xlink:href="#ArialMT-20" x="172.167969"/>
      <use xlink:href="#ArialMT-76" x="199.951172"/>
      <use xlink:href="#ArialMT-28" x="249.951172"/>
      <use xlink:href="#ArialMT-74" x="283.251953"/>
      <use xlink:href="#ArialMT-29" x="311.035156"/>
     </g>
    </g>
   </g>
   <g id="line2d_16">
    <path d="M 62.113477 143.544233 
L 62.600703 143.377986 
L 63.087928 142.882772 
L 63.575154 142.066626 
L 64.224788 140.499806 
L 65.03683 137.826155 
L 66.011281 133.698133 
L 67.310549 126.988163 
L 71.695578 103.031278 
L 72.507621 100.114196 
L 73.157254 98.481253 
L 73.64448 97.72361 
L 74.131705 97.401102 
L 74.456523 97.440429 
L 74.78134 97.690177 
L 75.268565 98.468815 
L 75.75579 99.740234 
L 76.405425 102.206211 
L 77.055059 105.542961 
L 77.867101 110.897042 
L 78.841551 118.949912 
L 79.978411 130.367523 
L 81.277678 145.694423 
L 83.064172 169.728322 
L 86.312342 214.22344 
L 87.286793 224.408138 
L 87.936427 229.442706 
L 88.586061 232.742451 
L 89.073286 233.951242 
L 89.398103 234.12286 
L 89.722919 233.778698 
L 90.047736 232.919768 
L 90.534961 230.685641 
L 91.02219 227.367397 
L 91.671823 221.401153 
L 92.483865 211.814884 
L 93.620724 195.354898 
L 95.244808 167.929225 
L 97.843345 119.467496 
L 100.441879 71.512447 
L 101.578741 54.429309 
L 102.390783 45.413745 
L 103.040417 40.735338 
L 103.527642 38.907476 
L 103.852459 38.530468 
L 104.014867 38.597277 
L 104.339684 39.238465 
L 104.664501 40.54378 
L 105.151726 43.689146 
L 105.801359 49.892309 
L 106.613404 60.305845 
L 107.750263 78.29083 
L 110.186389 121.820447 
L 112.784926 166.735239 
L 114.571422 194.094667 
L 115.870689 210.70403 
L 116.845139 220.377921 
L 117.494773 225.137011 
L 118.144406 228.354732 
L 118.631629 229.693294 
L 118.956445 230.063057 
L 119.281268 230.016169 
L 119.606085 229.559772 
L 119.930902 228.70613 
L 120.418124 226.719345 
L 121.067758 222.873093 
L 121.879803 216.458498 
L 123.016658 205.356208 
L 128.376138 149.698205 
L 129.837817 138.245101 
L 131.137084 129.83055 
L 132.273946 123.75553 
L 133.410802 118.77098 
L 134.547663 114.74091 
L 135.684525 111.509403 
L 136.821381 108.909637 
L 138.120648 106.498647 
L 139.744732 103.997972 
L 142.343272 100.472199 
L 144.61699 97.668422 
L 145.916257 96.392455 
L 146.890707 95.746198 
L 147.702752 95.497758 
L 148.352386 95.536241 
L 149.00202 95.82176 
L 149.651653 96.385984 
L 150.301287 97.257986 
L 150.95092 98.463403 
L 151.762965 100.471584 
L 152.575004 103.06695 
L 153.549454 106.987098 
L 154.523905 111.804702 
L 155.660767 118.564502 
L 156.960034 127.773706 
L 158.421712 139.96333 
L 160.045796 155.604485 
L 162.157109 178.452377 
L 164.918048 208.193838 
L 166.05491 217.868574 
L 166.866955 222.926676 
L 167.516589 225.572619 
L 168.003811 226.644108 
L 168.328634 226.901139 
L 168.653444 226.785056 
L 168.978267 226.294543 
L 169.465489 224.864641 
L 169.952711 222.628271 
L 170.602345 218.474435 
L 171.41439 211.613857 
L 172.388847 201.392013 
L 173.688114 185.356943 
L 175.637014 158.331326 
L 181.808539 70.296965 
L 182.782984 60.567018 
L 183.432617 55.808114 
L 184.082251 52.694162 
L 184.569473 51.53202 
L 184.894296 51.335441 
L 185.219106 51.603353 
L 185.543929 52.330126 
L 186.031151 54.252785 
L 186.518373 57.115166 
L 187.168019 62.238373 
L 187.980052 70.380555 
L 189.11692 84.070398 
L 191.390631 114.895654 
L 194.4764 155.954815 
L 196.5877 181.17649 
L 198.049379 196.342454 
L 199.186247 206.137959 
L 200.160691 212.663968 
L 200.972736 216.519995 
L 201.622369 218.46004 
L 202.109591 219.218643 
L 202.434414 219.390165 
L 202.759225 219.29672 
L 203.084048 218.943203 
L 203.57127 217.942031 
L 204.058492 216.406948 
L 204.708126 213.606603 
L 205.520171 209.072256 
L 206.657026 201.277925 
L 208.443528 187.189731 
L 211.854107 160.241098 
L 213.96542 145.432633 
L 216.401542 129.956282 
L 219.974533 108.833693 
L 222.248244 96.403504 
L 223.709923 89.490259 
L 224.846779 85.13846 
L 225.658824 82.767598 
L 226.308457 81.394578 
L 226.958091 80.536483 
L 227.445313 80.252224 
L 227.932547 80.28759 
L 228.41977 80.648504 
L 228.906992 81.336446 
L 229.556625 82.757051 
L 230.206259 84.736209 
L 231.018304 87.952135 
L 231.99276 92.803611 
L 233.129616 99.653909 
L 234.591295 110.014711 
L 236.215372 123.174253 
L 238.164273 140.862721 
L 240.437997 163.729387 
L 244.660621 207.115544 
L 245.797477 216.072742 
L 246.609522 220.80175 
L 247.259155 223.345379 
L 247.746377 224.450654 
L 248.0712 224.786626 
L 248.396011 224.795627 
L 248.720834 224.476331 
L 249.045645 223.831172 
L 249.532879 222.26603 
L 250.182513 219.119885 
L 250.994545 213.654507 
L 251.969002 205.23321 
L 253.268269 191.718455 
L 255.21717 168.687396 
L 262.687962 77.849514 
L 263.662406 69.376978 
L 264.474451 64.0674 
L 265.124085 61.192094 
L 265.611319 59.914232 
L 265.93613 59.497735 
L 266.260953 59.433809 
L 266.585763 59.721538 
L 266.910586 60.355844 
L 267.397808 61.93645 
L 268.047442 65.143256 
L 268.859487 70.703512 
L 269.833931 79.181293 
L 271.29561 94.279198 
L 278.604003 173.488605 
L 280.552891 191.317212 
L 281.852158 201.376692 
L 282.826602 207.50445 
L 283.63866 211.446147 
L 284.288281 213.729176 
L 284.937927 215.177453 
L 285.425137 215.695906 
L 285.74996 215.768714 
L 286.074783 215.624606 
L 286.399606 215.266756 
L 286.886815 214.340616 
L 287.536461 212.417246 
L 288.348494 209.015107 
L 289.322963 203.708732 
L 290.62223 195.11336 
L 292.571118 180.428535 
L 304.102136 90.987041 
L 305.401403 82.946156 
L 306.375847 78.184202 
L 307.18788 75.292631 
L 307.837526 73.79203 
L 308.324735 73.178185 
L 308.649558 73.021305 
L 308.974381 73.069252 
L 309.299204 73.322694 
L 309.786414 74.08551 
L 310.273649 75.298124 
L 310.92327 77.583501 
L 311.735327 81.430369 
L 312.709771 87.306852 
L 313.846627 95.555461 
L 315.470717 109.183592 
L 317.582042 128.916653 
L 320.342963 156.85087 
L 324.89041 203.367204 
L 326.027266 212.591413 
L 326.839323 217.734842 
L 327.488944 220.758995 
L 327.976179 222.310373 
L 328.463388 223.20559 
L 328.788211 223.426439 
L 329.113034 223.342988 
L 329.437857 222.955876 
L 329.925067 221.815145 
L 330.412301 220.026099 
L 331.061923 216.701679 
L 331.87398 211.21204 
L 332.848424 203.040296 
L 334.310103 188.558585 
L 336.746226 161.610732 
L 342.917763 92.655308 
L 344.21703 80.56217 
L 345.191474 73.17241 
L 346.003507 68.50014 
L 346.653153 65.911671 
L 347.140363 64.702957 
L 347.465186 64.260099 
L 347.790009 64.111834 
L 348.114832 64.258343 
L 348.439655 64.696766 
L 348.926864 65.887984 
L 349.414099 67.690641 
L 350.06372 70.968127 
L 350.875777 76.285173 
L 352.012633 85.491098 
L 353.636723 100.827553 
L 361.594737 178.883765 
L 363.381214 194.093493 
L 364.680481 203.493644 
L 365.65495 209.142377 
L 366.466983 212.681475 
L 367.116629 214.637318 
L 367.603839 215.555196 
L 368.091073 215.986117 
L 368.415896 215.999886 
L 368.740694 215.795508 
L 369.227929 215.086036 
L 369.715163 213.908111 
L 370.364784 211.651795 
L 371.176842 207.838117 
L 372.151286 202.042073 
L 373.450553 192.780843 
L 375.399441 176.978069 
L 379.297268 143.104552 
L 385.46878 89.268751 
L 386.768023 80.205317 
L 386.768023 80.205317 
" clip-path="url(#pa1904da086)" style="fill: none; stroke: #1f77b4; stroke-width: 1.2; stroke-linecap: round"/>
   </g>
   <g id="line2d_17">
    <path d="M 62.113477 143.544233 
L 64.224788 125.252662 
L 65.361647 117.01799 
L 66.336098 111.3999 
L 67.148141 107.972121 
L 67.797774 106.171834 
L 68.285 105.423927 
L 68.609817 105.229657 
L 68.934634 105.288846 
L 69.259451 105.609197 
L 69.746676 106.593925 
L 70.233902 108.198984 
L 70.883536 111.320284 
L 71.533169 115.558609 
L 72.345212 122.363162 
L 73.319663 132.501166 
L 74.618931 148.533023 
L 78.841551 202.778521 
L 80.14082 215.946436 
L 81.277678 225.401144 
L 82.25213 231.651165 
L 82.901764 234.589901 
L 83.388989 235.970443 
L 83.713806 236.421161 
L 84.038623 236.440004 
L 84.363441 235.974338 
L 84.688258 234.968751 
L 85.175483 232.324713 
L 85.662708 228.155671 
L 86.312342 219.959586 
L 86.961977 208.555855 
L 87.774019 189.879463 
L 88.910877 157.170772 
L 91.347006 83.808222 
L 92.321457 61.776229 
L 93.133499 48.025587 
L 93.945541 38.025761 
L 94.757583 30.966522 
L 95.569625 25.997885 
L 96.38167 22.484016 
L 97.031303 20.535193 
L 97.518528 19.61942 
L 97.843345 19.327872 
L 98.168162 19.350085 
L 98.492979 19.750928 
L 98.817795 20.607433 
L 99.142612 22.006895 
L 99.629837 25.333577 
L 100.117063 30.43231 
L 100.604288 37.624603 
L 101.253924 50.909073 
L 101.903558 68.658151 
L 102.7156 96.658912 
L 104.339684 163.065181 
L 105.476543 205.712655 
L 106.288585 229.134941 
L 106.938221 242.801832 
L 107.587855 252.163705 
L 108.07508 256.718088 
L 108.562305 259.520572 
L 109.04953 260.912425 
L 109.374347 261.216 
L 109.699164 261.119868 
L 110.023981 260.697805 
L 110.511206 259.586388 
L 111.160839 257.442217 
L 111.972885 253.958263 
L 112.784926 249.585321 
L 113.596968 243.998958 
L 114.40901 236.639113 
L 115.221055 226.86477 
L 116.033094 214.153615 
L 117.007545 194.805022 
L 118.306812 163.472208 
L 120.418124 111.6852 
L 121.392574 93.37065 
L 122.204619 82.347497 
L 122.854253 76.37219 
L 123.341475 73.440165 
L 123.828703 71.702822 
L 124.15352 71.137855 
L 124.478337 70.995283 
L 124.803154 71.230049 
L 125.12797 71.798158 
L 125.615199 73.183826 
L 126.264832 75.826795 
L 127.239283 80.968501 
L 128.863367 91.08767 
L 131.786718 109.341123 
L 133.248396 117.152791 
L 134.547663 122.962845 
L 135.684525 127.052802 
L 136.658976 129.79075 
L 137.633426 131.838559 
L 138.445465 133.059339 
L 139.25751 133.896802 
L 140.069555 134.424551 
L 141.044005 134.775677 
L 143.480128 135.460866 
L 144.292173 136.011955 
L 145.104212 136.896692 
L 145.916257 138.198792 
L 146.728302 139.981063 
L 147.540341 142.281143 
L 148.514791 145.736731 
L 149.651653 150.675929 
L 150.95092 157.334222 
L 152.899821 168.672304 
L 158.746529 203.596539 
L 160.045796 210.04598 
L 161.020247 213.85499 
L 161.66988 215.604794 
L 162.157109 216.348797 
L 162.481925 216.514401 
L 162.806742 216.375142 
L 163.131559 215.894719 
L 163.456376 215.036304 
L 163.943598 212.96078 
L 164.430826 209.839 
L 165.08046 203.889442 
L 165.730093 195.78265 
L 166.542132 182.659763 
L 167.516589 163.183033 
L 171.089567 87.217716 
L 172.064024 73.215698 
L 172.876069 64.590611 
L 173.688114 58.336557 
L 174.500146 53.921853 
L 175.312191 50.819737 
L 176.124236 48.621978 
L 176.936281 47.112667 
L 177.585915 46.406102 
L 178.073137 46.243991 
L 178.39796 46.359912 
L 178.722771 46.695616 
L 179.047594 47.292456 
L 179.534816 48.78008 
L 180.022038 51.132953 
L 180.50926 54.532639 
L 181.158893 60.995095 
L 181.808539 69.968997 
L 182.620572 84.956843 
L 183.595029 108.064965 
L 185.381518 158.082313 
L 186.680785 191.296025 
L 187.49283 207.449382 
L 188.304875 219.318302 
L 188.954509 225.833277 
L 189.604142 230.03002 
L 190.091364 231.904254 
L 190.578586 232.892917 
L 190.903409 233.148449 
L 191.22822 233.138283 
L 191.553043 232.906529 
L 192.040265 232.227464 
L 192.689899 230.865277 
L 193.664355 228.176394 
L 194.801211 224.304074 
L 195.775667 220.19744 
L 196.5877 215.911357 
L 197.399745 210.504157 
L 198.21179 203.664441 
L 199.186247 193.25846 
L 200.160691 180.413742 
L 201.622369 157.660786 
L 203.896093 121.92886 
L 204.870537 109.776807 
L 205.682582 101.943128 
L 206.494627 96.298676 
L 207.144261 93.277926 
L 207.631483 91.7978 
L 208.118705 90.910768 
L 208.60594 90.537402 
L 208.93075 90.533646 
L 209.417972 90.836084 
L 209.905207 91.439783 
L 210.717239 92.922977 
L 212.016506 95.923773 
L 213.803008 99.986893 
L 214.939864 102.032502 
L 215.91432 103.3493 
L 216.888764 104.29569 
L 218.025632 105.075357 
L 219.64971 106.132752 
L 220.461755 106.94317 
L 221.111389 107.872825 
L 221.761022 109.144176 
L 222.410656 110.837299 
L 223.222701 113.651987 
L 224.034746 117.333279 
L 225.00919 122.948553 
L 226.146046 131.050879 
L 227.607724 143.294982 
L 230.855892 171.165116 
L 232.155159 180.235225 
L 233.292027 186.796729 
L 234.591295 192.929566 
L 236.052973 198.609761 
L 237.839462 204.610154 
L 239.463553 209.385643 
L 240.437997 211.618868 
L 241.08763 212.601212 
L 241.574852 212.948729 
L 241.899675 212.946166 
L 242.224486 212.722721 
L 242.549309 212.247957 
L 243.036531 210.996341 
L 243.523753 209.004153 
L 244.010988 206.172661 
L 244.660621 200.949895 
L 245.310255 193.959508 
L 246.1223 182.727237 
L 247.096744 166.030204 
L 249.045645 127.423104 
L 250.344912 103.652547 
L 251.319368 89.320073 
L 252.131413 80.120281 
L 252.943446 73.314652 
L 253.755491 68.55738 
L 254.405125 65.920715 
L 255.054758 64.064746 
L 255.704392 62.778179 
L 256.354025 61.89549 
L 257.003659 61.308768 
L 257.653292 60.97462 
L 258.302926 60.917509 
L 258.79016 61.109717 
L 259.277383 61.57187 
L 259.764605 62.38649 
L 260.251839 63.652559 
L 260.739061 65.481146 
L 261.388695 68.997459 
L 262.038328 73.993067 
L 262.687962 80.691602 
L 263.500007 91.642767 
L 264.474451 108.418737 
L 265.773718 135.215212 
L 267.88503 178.610481 
L 268.859487 194.068694 
L 269.67152 203.710865 
L 270.321166 209.307604 
L 270.970787 213.19797 
L 271.620433 215.630906 
L 272.107642 216.668799 
L 272.594877 217.165517 
L 272.9197 217.251784 
L 273.40691 217.090041 
L 273.894144 216.658695 
L 274.706177 215.537513 
L 275.843057 213.495684 
L 277.142324 210.752951 
L 278.116768 208.279237 
L 278.928801 205.713476 
L 279.740858 202.438955 
L 280.552891 198.200651 
L 281.364949 192.767436 
L 282.339393 184.458662 
L 283.313837 174.185239 
L 284.613104 158.032554 
L 287.536461 120.596666 
L 288.510905 110.851262 
L 289.48535 103.336075 
L 290.297407 98.792989 
L 290.947028 96.18791 
L 291.596674 94.37366 
L 292.246295 93.213837 
L 292.895941 92.56559 
L 293.545563 92.290757 
L 294.195208 92.263409 
L 295.332064 92.496548 
L 296.793743 92.775848 
L 297.930598 92.741236 
L 300.691544 92.439662 
L 301.34119 92.743188 
L 301.8284 93.201247 
L 302.315634 93.916394 
L 302.965255 95.365253 
L 303.614901 97.497578 
L 304.264523 100.428137 
L 305.07658 105.345764 
L 305.888613 111.728111 
L 306.863082 121.236071 
L 308.162349 136.356907 
L 311.248093 173.512639 
L 312.384948 184.146167 
L 313.359417 191.280686 
L 314.333861 196.701836 
L 315.308306 200.716551 
L 316.28275 203.709347 
L 317.41963 206.394708 
L 318.881309 209.182 
L 320.018164 210.970478 
L 320.830197 211.905853 
L 321.317432 212.235186 
L 321.804641 212.315158 
L 322.129464 212.193162 
L 322.454287 211.902306 
L 322.941522 211.091075 
L 323.428731 209.746514 
L 323.915966 207.773456 
L 324.565587 204.010015 
L 325.215233 198.789349 
L 326.027266 190.056031 
L 327.00171 176.400294 
L 328.13859 156.971528 
L 331.061923 105.29307 
L 332.036392 92.479667 
L 332.848424 84.359769 
L 333.660482 78.452812 
L 334.310103 75.110011 
L 334.959749 72.768192 
L 335.60937 71.206654 
L 336.259016 70.219857 
L 336.908637 69.63471 
L 337.558283 69.320912 
L 338.370316 69.191247 
L 339.182348 69.31698 
L 339.831994 69.652174 
L 340.481616 70.298841 
L 340.96885 71.073093 
L 341.456085 72.177352 
L 342.105706 74.309013 
L 342.755352 77.388792 
L 343.404973 81.62196 
L 344.054619 87.180179 
L 344.866651 96.141701 
L 345.841096 109.789254 
L 347.140363 131.763613 
L 349.57651 173.946931 
L 350.550954 187.13104 
L 351.362987 195.594867 
L 352.175045 201.74802 
L 352.824666 205.157305 
L 353.474312 207.421672 
L 353.961521 208.49716 
L 354.448756 209.14115 
L 354.93599 209.441097 
L 355.4232 209.476821 
L 356.072846 209.232586 
L 356.884879 208.639354 
L 358.346557 207.224439 
L 359.645824 205.718311 
L 360.457882 204.500109 
L 361.269915 202.852393 
L 361.919536 201.064111 
L 362.569182 198.71079 
L 363.381214 194.769956 
L 364.193272 189.509843 
L 365.005304 182.791906 
L 365.979749 172.813084 
L 367.279016 156.852273 
L 370.364784 117.285778 
L 371.50164 106.177193 
L 372.476109 99.018281 
L 373.288142 94.669073 
L 374.100174 91.598601 
L 374.74982 89.895603 
L 375.399441 88.711635 
L 376.049087 87.910937 
L 376.86112 87.263888 
L 377.997976 86.681466 
L 381.246156 85.342618 
L 381.895802 85.308441 
L 382.383012 85.453341 
L 382.870246 85.804409 
L 383.357456 86.42223 
L 383.84469 87.371675 
L 384.494336 89.26867 
L 385.143957 92.027039 
L 385.793603 95.780638 
L 386.605636 102.011879 
L 386.768023 103.469811 
L 386.768023 103.469811 
" clip-path="url(#pa1904da086)" style="fill: none; stroke: #ff7f0e; stroke-width: 1.2; stroke-linecap: round"/>
   </g>
   <g id="patch_3">
    <path d="M 45.88075 271.661378 
L 45.88075 15.427089 
" style="fill: none; stroke: #262626; stroke-linejoin: miter; stroke-linecap: square"/>
   </g>
   <g id="patch_4">
    <path d="M 62.113477 273.312 
L 386.768023 273.312 
" style="fill: none; stroke: #262626; stroke-linejoin: miter; stroke-linecap: square"/>
   </g>
   <g id="legend_1">
    <g id="line2d_18">
     <path d="M 366.04075 18.338875 
L 374.84075 18.338875 
L 383.64075 18.338875 
" style="fill: none; stroke: #1f77b4; stroke-width: 1.2; stroke-linecap: round"/>
    </g>
    <g id="text_18">
     <!-- x -->
     <g style="fill: #262626" transform="translate(390.68075 21.418875) scale(0.088 -0.088)">
      <use xlink:href="#ArialMT-78"/>
     </g>
    </g>
    <g id="line2d_19">
     <path d="M 366.04075 30.78675 
L 374.84075 30.78675 
L 383.64075 30.78675 
" style="fill: none; stroke: #ff7f0e; stroke-width: 1.2; stroke-linecap: round"/>
    </g>
    <g id="text_19">
     <!-- v -->
     <g style="fill: #262626" transform="translate(390.68075 33.86675) scale(0.088 -0.088)">
      <use xlink:href="#ArialMT-76"/>
     </g>
    </g>
   </g>
  </g>
 </g>
 <defs>
  <clipPath id="pa1904da086">
   <rect x="45.88075" y="7.2" width="357.12" height="266.112"/>
  </clipPath>
 </defs>
</svg>