<?xml version="1.0" encoding="utf-8" standalone="no"?>
<!DOCTYPE svg PUBLIC "-//W3C//DTD SVG 1.1//EN"
  "http://www.w3.org/Graphics/SVG/1.1/DTD/svg11.dtd">
<svg xmlns:xlink="http://www.w3.org/1999/xlink" width="410.36625pt" height="327.286875pt" viewBox="0 0 410.36625 327.286875" xmlns="http://www.w3.org/2000/svg" version="1.1">
 <metadata>
  <rdf:RDF xmlns:dc="http://purl.org/dc/elements/1.1/" xmlns:cc="http://creativecommons.org/ns#" xmlns:rdf="http://www.w3.org/1999/02/22-rdf-syntax-ns#">
   <cc:Work>
    <dc:type rdf:resource="http://purl.org/dc/dcmitype/StillImage"/>
    <dc:date>2025-03-14T03:23:37.901891</dc:date>
    <dc:format>image/svg+xml</dc:format>
    <dc:creator>
     <cc:Agent>
      <dc:title>Matplotlib v3.9.2, https://matplotlib.org/</dc:title>
     </cc:Agent>
    </dc:creator>
   </cc:Work>
  </rdf:RDF>
 </metadata>
 <defs>
  <style type="text/css">*{stroke-linejoin: round; stroke-linecap: butt}</style>
 </defs>
 <g id="figure_1">
  <g id="patch_1">
   <path d="M 0 327.286875 
L 410.36625 327.286875 
L 410.36625 0 
L 0 0 
z
" style="fill: #ffffff"/>
  </g>
  <g id="axes_1">
   <g id="patch_2">
    <path d="M 40.66 290.9595 
L 397.78 290.9595 
L 397.78 24.8475 
L 40.66 24.8475 
z
" style="fill: #ffffff"/>
   </g>
   <g id="matplotlib.axis_1">
    <g id="xtick_1">
     <g id="line2d_1">
      <defs>
       <path id="m24c8f3b6c1" d="M 0 0 
L 0 4.8 
" style="stroke: #262626"/>
      </defs>
      <g>
       <use xlink:href="#m24c8f3b6c1" x="56.892727" y="290.9595" style="fill: #262626; stroke: #262626"/>
      </g>
     </g>
     <g id="text_1">
      <!-- 0.0 -->
      <g style="fill: #262626" transform="translate(50.776727 305.558375) scale(0.088 -0.088)">
       <defs>
        <path id="ArialMT-30" d="M 266 2259 
Q 266 3072 433 3567 
Q 600 4063 929 4331 
Q 1259 4600 1759 4600 
Q 2128 4600 2406 4451 
Q 2684 4303 2865 4023 
Q 3047 3744 3150 3342 
Q 3253 2941 3253 2259 
Q 3253 1453 3087 958 
Q 2922 463 2592 192 
Q 2263 -78 1759 -78 
Q 1097 -78 719 397 
Q 266 969 266 2259 
z
M 844 2259 
Q 844 1131 1108 757 
Q 1372 384 1759 384 
Q 2147 384 2411 759 
Q 2675 1134 2675 2259 
Q 2675 3391 2411 3762 
Q 2147 4134 1753 4134 
Q 1366 4134 1134 3806 
Q 844 3388 844 2259 
z
" transform="scale(0.015625)"/>
        <path id="ArialMT-2e" d="M 581 0 
L 581 641 
L 1222 641 
L 1222 0 
L 581 0 
z
" transform="scale(0.015625)"/>
       </defs>
       <use xlink:href="#ArialMT-30"/>
       <use xlink:href="#ArialMT-2e" x="55.615234"/>
       <use xlink:href="#ArialMT-30" x="83.398438"/>
      </g>
     </g>
    </g>
    <g id="xtick_2">
     <g id="line2d_2">
      <g>
       <use xlink:href="#m24c8f3b6c1" x="97.474545" y="290.9595" style="fill: #262626; stroke: #262626"/>
      </g>
     </g>
     <g id="text_2">
      <!-- 0.5 -->
      <g style="fill: #262626" transform="translate(91.358545 305.558375) scale(0.088 -0.088)">
       <defs>
        <path id="ArialMT-35" d="M 266 1200 
L 856 1250 
Q 922 819 1161 601 
Q 1400 384 1738 384 
Q 2144 384 2425 690 
Q 2706 997 2706 1503 
Q 2706 1984 2436 2262 
Q 2166 2541 1728 2541 
Q 1456 2541 1237 2417 
Q 1019 2294 894 2097 
L 366 2166 
L 809 4519 
L 3088 4519 
L 3088 3981 
L 1259 3981 
L 1013 2750 
Q 1425 3038 1878 3038 
Q 2478 3038 2890 2622 
Q 3303 2206 3303 1553 
Q 3303 931 2941 478 
Q 2500 -78 1738 -78 
Q 1113 -78 717 272 
Q 322 622 266 1200 
z
" transform="scale(0.015625)"/>
       </defs>
       <use xlink:href="#ArialMT-30"/>
       <use xlink:href="#ArialMT-2e" x="55.615234"/>
       <use xlink:href="#ArialMT-35" x="83.398438"/>
      </g>
     </g>
    </g>
    <g id="xtick_3">
     <g id="line2d_3">
      <g>
       <use xlink:href="#m24c8f3b6c1" x="138.056364" y="290.9595" style="fill: #262626; stroke: #262626"/>
      </g>
     </g>
     <g id="text_3">
      <!-- 1.0 -->
      <g style="fill: #262626" transform="translate(131.940364 305.558375) scale(0.088 -0.088)">
       <defs>
        <path id="ArialMT-31" d="M 2384 0 
L 1822 0 
L 1822 3584 
Q 1619 3391 1289 3197 
Q 959 3003 697 2906 
L 697 3450 
Q 1169 3672 1522 3987 
Q 1875 4303 2022 4600 
L 2384 4600 
L 2384 0 
z
" transform="scale(0.015625)"/>
       </defs>
       <use xlink:href="#ArialMT-31"/>
       <use xlink:href="#ArialMT-2e" x="55.615234"/>
       <use xlink:href="#ArialMT-30" x="83.398438"/>
      </g>
     </g>
    </g>
    <g id="xtick_4">
     <g id="line2d_4">
      <g>
       <use xlink:href="#m24c8f3b6c1" x="178.638182" y="290.9595" style="fill: #262626; stroke: #262626"/>
      </g>
     </g>
     <g id="text_4">
      <!-- 1.5 -->
      <g style="fill: #262626" transform="translate(172.522182 305.558375) scale(0.088 -0.088)">
       <use xlink:href="#ArialMT-31"/>
       <use xlink:href="#ArialMT-2e" x="55.615234"/>
       <use xlink:href="#ArialMT-35" x="83.398438"/>
      </g>
     </g>
    </g>
    <g id="xtick_5">
     <g id="line2d_5">
      <g>
       <use xlink:href="#m24c8f3b6c1" x="219.22" y="290.9595" style="fill: #262626; stroke: #262626"/>
      </g>
     </g>
     <g id="text_5">
      <!-- 2.0 -->
      <g style="fill: #262626" transform="translate(213.104 305.558375) scale(0.088 -0.088)">
       <defs>
        <path id="ArialMT-32" d="M 3222 541 
L 3222 0 
L 194 0 
Q 188 203 259 391 
Q 375 700 629 1000 
Q 884 1300 1366 1694 
Q 2113 2306 2375 2664 
Q 2638 3022 2638 3341 
Q 2638 3675 2398 3904 
Q 2159 4134 1775 4134 
Q 1369 4134 1125 3890 
Q 881 3647 878 3216 
L 300 3275 
Q 359 3922 746 4261 
Q 1134 4600 1788 4600 
Q 2447 4600 2831 4234 
Q 3216 3869 3216 3328 
Q 3216 3053 3103 2787 
Q 2991 2522 2730 2228 
Q 2469 1934 1863 1422 
Q 1356 997 1212 845 
Q 1069 694 975 541 
L 3222 541 
z
" transform="scale(0.015625)"/>
       </defs>
       <use xlink:href="#ArialMT-32"/>
       <use xlink:href="#ArialMT-2e" x="55.615234"/>
       <use xlink:href="#ArialMT-30" x="83.398438"/>
      </g>
     </g>
    </g>
    <g id="xtick_6">
     <g id="line2d_6">
      <g>
       <use xlink:href="#m24c8f3b6c1" x="259.801818" y="290.9595" style="fill: #262626; stroke: #262626"/>
      </g>
     </g>
     <g id="text_6">
      <!-- 2.5 -->
      <g style="fill: #262626" transform="translate(253.685818 305.558375) scale(0.088 -0.088)">
       <use xlink:href="#ArialMT-32"/>
       <use xlink:href="#ArialMT-2e" x="55.615234"/>
       <use xlink:href="#ArialMT-35" x="83.398438"/>
      </g>
     </g>
    </g>
    <g id="xtick_7">
     <g id="line2d_7">
      <g>
       <use xlink:href="#m24c8f3b6c1" x="300.383636" y="290.9595" style="fill: #262626; stroke: #262626"/>
      </g>
     </g>
     <g id="text_7">
      <!-- 3.0 -->
      <g style="fill: #262626" transform="translate(294.267636 305.558375) scale(0.088 -0.088)">
       <defs>
        <path id="ArialMT-33" d="M 269 1209 
L 831 1284 
Q 928 806 1161 595 
Q 1394 384 1728 384 
Q 2125 384 2398 659 
Q 2672 934 2672 1341 
Q 2672 1728 2419 1979 
Q 2166 2231 1775 2231 
Q 1616 2231 1378 2169 
L 1441 2663 
Q 1497 2656 1531 2656 
Q 1891 2656 2178 2843 
Q 2466 3031 2466 3422 
Q 2466 3731 2256 3934 
Q 2047 4138 1716 4138 
Q 1388 4138 1169 3931 
Q 950 3725 888 3313 
L 325 3413 
Q 428 3978 793 4289 
Q 1159 4600 1703 4600 
Q 2078 4600 2393 4439 
Q 2709 4278 2876 4000 
Q 3044 3722 3044 3409 
Q 3044 3113 2884 2869 
Q 2725 2625 2413 2481 
Q 2819 2388 3044 2092 
Q 3269 1797 3269 1353 
Q 3269 753 2831 336 
Q 2394 -81 1725 -81 
Q 1122 -81 723 278 
Q 325 638 269 1209 
z
" transform="scale(0.015625)"/>
       </defs>
       <use xlink:href="#ArialMT-33"/>
       <use xlink:href="#ArialMT-2e" x="55.615234"/>
       <use xlink:href="#ArialMT-30" x="83.398438"/>
      </g>
     </g>
    </g>
    <g id="xtick_8">
     <g id="line2d_8">
      <g>
       <use xlink:href="#m24c8f3b6c1" x="340.965455" y="290.9595" style="fill: #262626; stroke: #262626"/>
      </g>
     </g>
     <g id="text_8">
      <!-- 3.5 -->
      <g style="fill: #262626" transform="translate(334.849455 305.558375) scale(0.088 -0.088)">
       <use xlink:href="#ArialMT-33"/>
       <use xlink:href="#ArialMT-2e" x="55.615234"/>
       <use xlink:href="#ArialMT-35" x="83.398438"/>
      </g>
     </g>
    </g>
    <g id="xtick_9">
     <g id="line2d_9">
      <g>
       <use xlink:href="#m24c8f3b6c1" x="381.547273" y="290.9595" style="fill: #262626; stroke: #262626"/>
      </g>
     </g>
     <g id="text_9">
      <!-- 4.0 -->
      <g style="fill: #262626" transform="translate(375.431273 305.558375) scale(0.088 -0.088)">
       <defs>
        <path id="ArialMT-34" d="M 2069 0 
L 2069 1097 
L 81 1097 
L 81 1613 
L 2172 4581 
L 2631 4581 
L 2631 1613 
L 3250 1613 
L 3250 1097 
L 2631 1097 
L 2631 0 
L 2069 0 
z
M 2069 1613 
L 2069 3678 
L 634 1613 
L 2069 1613 
z
" transform="scale(0.015625)"/>
       </defs>
       <use xlink:href="#ArialMT-34"/>
       <use xlink:href="#ArialMT-2e" x="55.615234"/>
       <use xlink:href="#ArialMT-30" x="83.398438"/>
      </g>
     </g>
    </g>
    <g id="text_10">
     <!-- $i$ -->
     <g style="fill: #262626" transform="translate(217.876 318.178875) scale(0.096 -0.096)">
      <defs>
       <path id="DejaVuSans-Oblique-69" d="M 1172 4863 
L 1747 4863 
L 1606 4134 
L 1031 4134 
L 1172 4863 
z
M 909 3500 
L 1484 3500 
L 800 0 
L 225 0 
L 909 3500 
z
" transform="scale(0.015625)"/>
      </defs>
      <use xlink:href="#DejaVuSans-Oblique-69" transform="translate(0 0.015625)"/>
     </g>
    </g>
   </g>
   <g id="matplotlib.axis_2">
    <g id="ytick_1">
     <g id="line2d_10">
      <defs>
       <path id="mf6acc1efb8" d="M 0 0 
L -4.8 0 
" style="stroke: #262626"/>
      </defs>
      <g>
       <use xlink:href="#mf6acc1efb8" x="40.66" y="286.831015" style="fill: #262626; stroke: #262626"/>
      </g>
     </g>
     <g id="text_11">
      <!-- 0.0 -->
      <g style="fill: #262626" transform="translate(20.128 289.980452) scale(0.088 -0.088)">
       <use xlink:href="#ArialMT-30"/>
       <use xlink:href="#ArialMT-2e" x="55.615234"/>
       <use xlink:href="#ArialMT-30" x="83.398438"/>
      </g>
     </g>
    </g>
    <g id="ytick_2">
     <g id="line2d_11">
      <g>
       <use xlink:href="#mf6acc1efb8" x="40.66" y="254.343873" style="fill: #262626; stroke: #262626"/>
      </g>
     </g>
     <g id="text_12">
      <!-- 0.1 -->
      <g style="fill: #262626" transform="translate(20.128 257.493311) scale(0.088 -0.088)">
       <use xlink:href="#ArialMT-30"/>
       <use xlink:href="#ArialMT-2e" x="55.615234"/>
       <use xlink:href="#ArialMT-31" x="83.398438"/>
      </g>
     </g>
    </g>
    <g id="ytick_3">
     <g id="line2d_12">
      <g>
       <use xlink:href="#mf6acc1efb8" x="40.66" y="221.856732" style="fill: #262626; stroke: #262626"/>
      </g>
     </g>
     <g id="text_13">
      <!-- 0.2 -->
      <g style="fill: #262626" transform="translate(20.128 225.006169) scale(0.088 -0.088)">
       <use xlink:href="#ArialMT-30"/>
       <use xlink:href="#ArialMT-2e" x="55.615234"/>
       <use xlink:href="#ArialMT-32" x="83.398438"/>
      </g>
     </g>
    </g>
    <g id="ytick_4">
     <g id="line2d_13">
      <g>
       <use xlink:href="#mf6acc1efb8" x="40.66" y="189.36959" style="fill: #262626; stroke: #262626"/>
      </g>
     </g>
     <g id="text_14">
      <!-- 0.3 -->
      <g style="fill: #262626" transform="translate(20.128 192.519028) scale(0.088 -0.088)">
       <use xlink:href="#ArialMT-30"/>
       <use xlink:href="#ArialMT-2e" x="55.615234"/>
       <use xlink:href="#ArialMT-33" x="83.398438"/>
      </g>
     </g>
    </g>
    <g id="ytick_5">
     <g id="line2d_14">
      <g>
       <use xlink:href="#mf6acc1efb8" x="40.66" y="156.882449" style="fill: #262626; stroke: #262626"/>
      </g>
     </g>
     <g id="text_15">
      <!-- 0.4 -->
      <g style="fill: #262626" transform="translate(20.128 160.031886) scale(0.088 -0.088)">
       <use xlink:href="#ArialMT-30"/>
       <use xlink:href="#ArialMT-2e" x="55.615234"/>
       <use xlink:href="#ArialMT-34" x="83.398438"/>
      </g>
     </g>
    </g>
    <g id="ytick_6">
     <g id="line2d_15">
      <g>
       <use xlink:href="#mf6acc1efb8" x="40.66" y="124.395307" style="fill: #262626; stroke: #262626"/>
      </g>
     </g>
     <g id="text_16">
      <!-- 0.5 -->
      <g style="fill: #262626" transform="translate(20.128 127.544745) scale(0.088 -0.088)">
       <use xlink:href="#ArialMT-30"/>
       <use xlink:href="#ArialMT-2e" x="55.615234"/>
       <use xlink:href="#ArialMT-35" x="83.398438"/>
      </g>
     </g>
    </g>
    <g id="ytick_7">
     <g id="line2d_16">
      <g>
       <use xlink:href="#mf6acc1efb8" x="40.66" y="91.908166" style="fill: #262626; stroke: #262626"/>
      </g>
     </g>
     <g id="text_17">
      <!-- 0.6 -->
      <g style="fill: #262626" transform="translate(20.128 95.057603) scale(0.088 -0.088)">
       <defs>
        <path id="ArialMT-36" d="M 3184 3459 
L 2625 3416 
Q 2550 3747 2413 3897 
Q 2184 4138 1850 4138 
Q 1581 4138 1378 3988 
Q 1113 3794 959 3422 
Q 806 3050 800 2363 
Q 1003 2672 1297 2822 
Q 1591 2972 1913 2972 
Q 2475 2972 2870 2558 
Q 3266 2144 3266 1488 
Q 3266 1056 3080 686 
Q 2894 316 2569 119 
Q 2244 -78 1831 -78 
Q 1128 -78 684 439 
Q 241 956 241 2144 
Q 241 3472 731 4075 
Q 1159 4600 1884 4600 
Q 2425 4600 2770 4297 
Q 3116 3994 3184 3459 
z
M 888 1484 
Q 888 1194 1011 928 
Q 1134 663 1356 523 
Q 1578 384 1822 384 
Q 2178 384 2434 671 
Q 2691 959 2691 1453 
Q 2691 1928 2437 2201 
Q 2184 2475 1800 2475 
Q 1419 2475 1153 2201 
Q 888 1928 888 1484 
z
" transform="scale(0.015625)"/>
       </defs>
       <use xlink:href="#ArialMT-30"/>
       <use xlink:href="#ArialMT-2e" x="55.615234"/>
       <use xlink:href="#ArialMT-36" x="83.398438"/>
      </g>
     </g>
    </g>
    <g id="ytick_8">
     <g id="line2d_17">
      <g>
       <use xlink:href="#mf6acc1efb8" x="40.66" y="59.421024" style="fill: #262626; stroke: #262626"/>
      </g>
     </g>
     <g id="text_18">
      <!-- 0.7 -->
      <g style="fill: #262626" transform="translate(20.128 62.570462) scale(0.088 -0.088)">
       <defs>
        <path id="ArialMT-37" d="M 303 3981 
L 303 4522 
L 3269 4522 
L 3269 4084 
Q 2831 3619 2401 2847 
Q 1972 2075 1738 1259 
Q 1569 684 1522 0 
L 944 0 
Q 953 541 1156 1306 
Q 1359 2072 1739 2783 
Q 2119 3494 2547 3981 
L 303 3981 
z
" transform="scale(0.015625)"/>
       </defs>
       <use xlink:href="#ArialMT-30"/>
       <use xlink:href="#ArialMT-2e" x="55.615234"/>
       <use xlink:href="#ArialMT-37" x="83.398438"/>
      </g>
     </g>
    </g>
    <g id="ytick_9">
     <g id="line2d_18">
      <g>
       <use xlink:href="#mf6acc1efb8" x="40.66" y="26.933883" style="fill: #262626; stroke: #262626"/>
      </g>
     </g>
     <g id="text_19">
      <!-- 0.8 -->
      <g style="fill: #262626" transform="translate(20.128 30.08332) scale(0.088 -0.088)">
       <defs>
        <path id="ArialMT-38" d="M 1131 2484 
Q 781 2613 612 2850 
Q 444 3088 444 3419 
Q 444 3919 803 4259 
Q 1163 4600 1759 4600 
Q 2359 4600 2725 4251 
Q 3091 3903 3091 3403 
Q 3091 3084 2923 2848 
Q 2756 2613 2416 2484 
Q 2838 2347 3058 2040 
Q 3278 1734 3278 1309 
Q 3278 722 2862 322 
Q 2447 -78 1769 -78 
Q 1091 -78 675 323 
Q 259 725 259 1325 
Q 259 1772 486 2073 
Q 713 2375 1131 2484 
z
M 1019 3438 
Q 1019 3113 1228 2906 
Q 1438 2700 1772 2700 
Q 2097 2700 2305 2904 
Q 2513 3109 2513 3406 
Q 2513 3716 2298 3927 
Q 2084 4138 1766 4138 
Q 1444 4138 1231 3931 
Q 1019 3725 1019 3438 
z
M 838 1322 
Q 838 1081 952 856 
Q 1066 631 1291 507 
Q 1516 384 1775 384 
Q 2178 384 2440 643 
Q 2703 903 2703 1303 
Q 2703 1709 2433 1975 
Q 2163 2241 1756 2241 
Q 1359 2241 1098 1978 
Q 838 1716 838 1322 
z
" transform="scale(0.015625)"/>
       </defs>
       <use xlink:href="#ArialMT-30"/>
       <use xlink:href="#ArialMT-2e" x="55.615234"/>
       <use xlink:href="#ArialMT-38" x="83.398438"/>
      </g>
     </g>
    </g>
    <g id="text_20">
     <!-- $\lambda_i$ -->
     <g style="fill: #262626" transform="translate(14.22 161.8395) rotate(-90) scale(0.096 -0.096)">
      <defs>
       <path id="DejaVuSans-Oblique-3bb" d="M 2350 4316 
L 3125 0 
L 2516 0 
L 2038 2588 
L 328 0 
L -281 0 
L 1903 3356 
L 1794 3975 
Q 1725 4369 1391 4369 
L 1091 4369 
L 1184 4863 
L 1550 4856 
Q 2253 4847 2350 4316 
z
" transform="scale(0.015625)"/>
      </defs>
      <use xlink:href="#DejaVuSans-Oblique-3bb" transform="translate(0 0.015625)"/>
      <use xlink:href="#DejaVuSans-Oblique-69" transform="translate(59.179688 -16.390625) scale(0.7)"/>
     </g>
    </g>
   </g>
   <g id="line2d_19">
    <path d="M 56.892727 278.772922 
L 138.056364 278.7843 
L 219.22 278.803229 
L 300.383636 278.829653 
L 381.547273 278.8635 
" clip-path="url(#pf95cb4bfe2)" style="fill: none; stroke: #1f77b4; stroke-linecap: round"/>
    <defs>
     <path id="mf168cb0d2b" d="M -4 4 
L 4 -4 
M -4 -4 
L 4 4 
" style="stroke: #1f77b4; stroke-width: 2"/>
    </defs>
    <g clip-path="url(#pf95cb4bfe2)">
     <use xlink:href="#mf168cb0d2b" x="56.892727" y="278.772922" style="fill: #1f77b4; stroke: #1f77b4; stroke-width: 2"/>
     <use xlink:href="#mf168cb0d2b" x="138.056364" y="278.7843" style="fill: #1f77b4; stroke: #1f77b4; stroke-width: 2"/>
     <use xlink:href="#mf168cb0d2b" x="219.22" y="278.803229" style="fill: #1f77b4; stroke: #1f77b4; stroke-width: 2"/>
     <use xlink:href="#mf168cb0d2b" x="300.383636" y="278.829653" style="fill: #1f77b4; stroke: #1f77b4; stroke-width: 2"/>
     <use xlink:href="#mf168cb0d2b" x="381.547273" y="278.8635" style="fill: #1f77b4; stroke: #1f77b4; stroke-width: 2"/>
    </g>
   </g>
   <g id="line2d_20">
    <path d="M 56.892727 246.954622 
L 138.056364 248.225764 
L 219.22 250.254105 
L 300.383636 252.914399 
L 381.547273 256.049948 
" clip-path="url(#pf95cb4bfe2)" style="fill: none; stroke: #ff7f0e; stroke-linecap: round"/>
    <defs>
     <path id="m8f2c6ec737" d="M -4 4 
L 4 -4 
M -4 -4 
L 4 4 
" style="stroke: #ff7f0e; stroke-width: 2"/>
    </defs>
    <g clip-path="url(#pf95cb4bfe2)">
     <use xlink:href="#m8f2c6ec737" x="56.892727" y="246.954622" style="fill: #ff7f0e; stroke: #ff7f0e; stroke-width: 2"/>
     <use xlink:href="#m8f2c6ec737" x="138.056364" y="248.225764" style="fill: #ff7f0e; stroke: #ff7f0e; stroke-width: 2"/>
     <use xlink:href="#m8f2c6ec737" x="219.22" y="250.254105" style="fill: #ff7f0e; stroke: #ff7f0e; stroke-width: 2"/>
     <use xlink:href="#m8f2c6ec737" x="300.383636" y="252.914399" style="fill: #ff7f0e; stroke: #ff7f0e; stroke-width: 2"/>
     <use xlink:href="#m8f2c6ec737" x="381.547273" y="256.049948" style="fill: #ff7f0e; stroke: #ff7f0e; stroke-width: 2"/>
    </g>
   </g>
   <g id="line2d_21">
    <path d="M 56.892727 209.284305 
L 138.056364 217.803901 
L 219.22 229.941057 
L 300.383636 243.380145 
L 381.547273 256.037697 
" clip-path="url(#pf95cb4bfe2)" style="fill: none; stroke: #2ca02c; stroke-linecap: round"/>
    <defs>
     <path id="m0b6285df7a" d="M -4 4 
L 4 -4 
M -4 -4 
L 4 4 
" style="stroke: #2ca02c; stroke-width: 2"/>
    </defs>
    <g clip-path="url(#pf95cb4bfe2)">
     <use xlink:href="#m0b6285df7a" x="56.892727" y="209.284305" style="fill: #2ca02c; stroke: #2ca02c; stroke-width: 2"/>
     <use xlink:href="#m0b6285df7a" x="138.056364" y="217.803901" style="fill: #2ca02c; stroke: #2ca02c; stroke-width: 2"/>
     <use xlink:href="#m0b6285df7a" x="219.22" y="229.941057" style="fill: #2ca02c; stroke: #2ca02c; stroke-width: 2"/>
     <use xlink:href="#m0b6285df7a" x="300.383636" y="243.380145" style="fill: #2ca02c; stroke: #2ca02c; stroke-width: 2"/>
     <use xlink:href="#m0b6285df7a" x="381.547273" y="256.037697" style="fill: #2ca02c; stroke: #2ca02c; stroke-width: 2"/>
    </g>
   </g>
   <g id="line2d_22">
    <path d="M 56.892727 144.883422 
L 138.056364 189.641237 
L 219.22 234.536636 
L 300.383636 264.343576 
" clip-path="url(#pf95cb4bfe2)" style="fill: none; stroke: #d62728; stroke-linecap: round"/>
    <defs>
     <path id="mc38e1cce13" d="M -4 4 
L 4 -4 
M -4 -4 
L 4 4 
" style="stroke: #d62728; stroke-width: 2"/>
    </defs>
    <g clip-path="url(#pf95cb4bfe2)">
     <use xlink:href="#mc38e1cce13" x="56.892727" y="144.883422" style="fill: #d62728; stroke: #d62728; stroke-width: 2"/>
     <use xlink:href="#mc38e1cce13" x="138.056364" y="189.641237" style="fill: #d62728; stroke: #d62728; stroke-width: 2"/>
     <use xlink:href="#mc38e1cce13" x="219.22" y="234.536636" style="fill: #d62728; stroke: #d62728; stroke-width: 2"/>
     <use xlink:href="#mc38e1cce13" x="300.383636" y="264.343576" style="fill: #d62728; stroke: #d62728; stroke-width: 2"/>
    </g>
   </g>
   <g id="line2d_23">
    <path d="M 56.892727 36.9435 
L 138.056364 221.586765 
" clip-path="url(#pf95cb4bfe2)" style="fill: none; stroke: #9467bd; stroke-linecap: round"/>
    <defs>
     <path id="mdb2abefb19" d="M -4 4 
L 4 -4 
M -4 -4 
L 4 4 
" style="stroke: #9467bd; stroke-width: 2"/>
    </defs>
    <g clip-path="url(#pf95cb4bfe2)">
     <use xlink:href="#mdb2abefb19" x="56.892727" y="36.9435" style="fill: #9467bd; stroke: #9467bd; stroke-width: 2"/>
     <use xlink:href="#mdb2abefb19" x="138.056364" y="221.586765" style="fill: #9467bd; stroke: #9467bd; stroke-width: 2"/>
    </g>
   </g>
   <g id="patch_3">
    <path d="M 40.66 286.831015 
L 40.66 26.933883 
" style="fill: none; stroke: #262626; stroke-linejoin: miter; stroke-linecap: square"/>
   </g>
   <g id="patch_4">
    <path d="M 56.892727 290.9595 
L 381.547273 290.9595 
" style="fill: none; stroke: #262626; stroke-linejoin: miter; stroke-linecap: square"/>
   </g>
   <g id="text_21">
    <!-- Eigenvalues of RBF kernel for different lengthscales -->
    <g style="fill: #262626" transform="translate(35.27375 18.8475) scale(0.16 -0.16)">
     <defs>
      <path id="ArialMT-45" d="M 506 0 
L 506 4581 
L 3819 4581 
L 3819 4041 
L 1113 4041 
L 1113 2638 
L 3647 2638 
L 3647 2100 
L 1113 2100 
L 1113 541 
L 3925 541 
L 3925 0 
L 506 0 
z
" transform="scale(0.015625)"/>
      <path id="ArialMT-69" d="M 425 3934 
L 425 4581 
L 988 4581 
L 988 3934 
L 425 3934 
z
M 425 0 
L 425 3319 
L 988 3319 
L 988 0 
L 425 0 
z
" transform="scale(0.015625)"/>
      <path id="ArialMT-67" d="M 319 -275 
L 866 -356 
Q 900 -609 1056 -725 
Q 1266 -881 1628 -881 
Q 2019 -881 2231 -725 
Q 2444 -569 2519 -288 
Q 2563 -116 2559 434 
Q 2191 0 1641 0 
Q 956 0 581 494 
Q 206 988 206 1678 
Q 206 2153 378 2554 
Q 550 2956 876 3175 
Q 1203 3394 1644 3394 
Q 2231 3394 2613 2919 
L 2613 3319 
L 3131 3319 
L 3131 450 
Q 3131 -325 2973 -648 
Q 2816 -972 2473 -1159 
Q 2131 -1347 1631 -1347 
Q 1038 -1347 672 -1080 
Q 306 -813 319 -275 
z
M 784 1719 
Q 784 1066 1043 766 
Q 1303 466 1694 466 
Q 2081 466 2343 764 
Q 2606 1063 2606 1700 
Q 2606 2309 2336 2618 
Q 2066 2928 1684 2928 
Q 1309 2928 1046 2623 
Q 784 2319 784 1719 
z
" transform="scale(0.015625)"/>
      <path id="ArialMT-65" d="M 2694 1069 
L 3275 997 
Q 3138 488 2766 206 
Q 2394 -75 1816 -75 
Q 1088 -75 661 373 
Q 234 822 234 1631 
Q 234 2469 665 2931 
Q 1097 3394 1784 3394 
Q 2450 3394 2872 2941 
Q 3294 2488 3294 1666 
Q 3294 1616 3291 1516 
L 816 1516 
Q 847 969 1125 678 
Q 1403 388 1819 388 
Q 2128 388 2347 550 
Q 2566 713 2694 1069 
z
M 847 1978 
L 2700 1978 
Q 2663 2397 2488 2606 
Q 2219 2931 1791 2931 
Q 1403 2931 1139 2672 
Q 875 2413 847 1978 
z
" transform="scale(0.015625)"/>
      <path id="ArialMT-6e" d="M 422 0 
L 422 3319 
L 928 3319 
L 928 2847 
Q 1294 3394 1984 3394 
Q 2284 3394 2536 3286 
Q 2788 3178 2913 3003 
Q 3038 2828 3088 2588 
Q 3119 2431 3119 2041 
L 3119 0 
L 2556 0 
L 2556 2019 
Q 2556 2363 2490 2533 
Q 2425 2703 2258 2804 
Q 2091 2906 1866 2906 
Q 1506 2906 1245 2678 
Q 984 2450 984 1813 
L 984 0 
L 422 0 
z
" transform="scale(0.015625)"/>
      <path id="ArialMT-76" d="M 1344 0 
L 81 3319 
L 675 3319 
L 1388 1331 
Q 1503 1009 1600 663 
Q 1675 925 1809 1294 
L 2547 3319 
L 3125 3319 
L 1869 0 
L 1344 0 
z
" transform="scale(0.015625)"/>
      <path id="ArialMT-61" d="M 2588 409 
Q 2275 144 1986 34 
Q 1697 -75 1366 -75 
Q 819 -75 525 192 
Q 231 459 231 875 
Q 231 1119 342 1320 
Q 453 1522 633 1644 
Q 813 1766 1038 1828 
Q 1203 1872 1538 1913 
Q 2219 1994 2541 2106 
Q 2544 2222 2544 2253 
Q 2544 2597 2384 2738 
Q 2169 2928 1744 2928 
Q 1347 2928 1158 2789 
Q 969 2650 878 2297 
L 328 2372 
Q 403 2725 575 2942 
Q 747 3159 1072 3276 
Q 1397 3394 1825 3394 
Q 2250 3394 2515 3294 
Q 2781 3194 2906 3042 
Q 3031 2891 3081 2659 
Q 3109 2516 3109 2141 
L 3109 1391 
Q 3109 606 3145 398 
Q 3181 191 3288 0 
L 2700 0 
Q 2613 175 2588 409 
z
M 2541 1666 
Q 2234 1541 1622 1453 
Q 1275 1403 1131 1340 
Q 988 1278 909 1158 
Q 831 1038 831 891 
Q 831 666 1001 516 
Q 1172 366 1500 366 
Q 1825 366 2078 508 
Q 2331 650 2450 897 
Q 2541 1088 2541 1459 
L 2541 1666 
z
" transform="scale(0.015625)"/>
      <path id="ArialMT-6c" d="M 409 0 
L 409 4581 
L 972 4581 
L 972 0 
L 409 0 
z
" transform="scale(0.015625)"/>
      <path id="ArialMT-75" d="M 2597 0 
L 2597 488 
Q 2209 -75 1544 -75 
Q 1250 -75 995 37 
Q 741 150 617 320 
Q 494 491 444 738 
Q 409 903 409 1263 
L 409 3319 
L 972 3319 
L 972 1478 
Q 972 1038 1006 884 
Q 1059 663 1231 536 
Q 1403 409 1656 409 
Q 1909 409 2131 539 
Q 2353 669 2445 892 
Q 2538 1116 2538 1541 
L 2538 3319 
L 3100 3319 
L 3100 0 
L 2597 0 
z
" transform="scale(0.015625)"/>
      <path id="ArialMT-73" d="M 197 991 
L 753 1078 
Q 800 744 1014 566 
Q 1228 388 1613 388 
Q 2000 388 2187 545 
Q 2375 703 2375 916 
Q 2375 1106 2209 1216 
Q 2094 1291 1634 1406 
Q 1016 1563 777 1677 
Q 538 1791 414 1992 
Q 291 2194 291 2438 
Q 291 2659 392 2848 
Q 494 3038 669 3163 
Q 800 3259 1026 3326 
Q 1253 3394 1513 3394 
Q 1903 3394 2198 3281 
Q 2494 3169 2634 2976 
Q 2775 2784 2828 2463 
L 2278 2388 
Q 2241 2644 2061 2787 
Q 1881 2931 1553 2931 
Q 1166 2931 1000 2803 
Q 834 2675 834 2503 
Q 834 2394 903 2306 
Q 972 2216 1119 2156 
Q 1203 2125 1616 2013 
Q 2213 1853 2448 1751 
Q 2684 1650 2818 1456 
Q 2953 1263 2953 975 
Q 2953 694 2789 445 
Q 2625 197 2315 61 
Q 2006 -75 1616 -75 
Q 969 -75 630 194 
Q 291 463 197 991 
z
" transform="scale(0.015625)"/>
      <path id="ArialMT-20" transform="scale(0.015625)"/>
      <path id="ArialMT-6f" d="M 213 1659 
Q 213 2581 725 3025 
Q 1153 3394 1769 3394 
Q 2453 3394 2887 2945 
Q 3322 2497 3322 1706 
Q 3322 1066 3130 698 
Q 2938 331 2570 128 
Q 2203 -75 1769 -75 
Q 1072 -75 642 372 
Q 213 819 213 1659 
z
M 791 1659 
Q 791 1022 1069 705 
Q 1347 388 1769 388 
Q 2188 388 2466 706 
Q 2744 1025 2744 1678 
Q 2744 2294 2464 2611 
Q 2184 2928 1769 2928 
Q 1347 2928 1069 2612 
Q 791 2297 791 1659 
z
" transform="scale(0.015625)"/>
      <path id="ArialMT-66" d="M 556 0 
L 556 2881 
L 59 2881 
L 59 3319 
L 556 3319 
L 556 3672 
Q 556 4006 616 4169 
Q 697 4388 901 4523 
Q 1106 4659 1475 4659 
Q 1713 4659 2000 4603 
L 1916 4113 
Q 1741 4144 1584 4144 
Q 1328 4144 1222 4034 
Q 1116 3925 1116 3625 
L 1116 3319 
L 1763 3319 
L 1763 2881 
L 1116 2881 
L 1116 0 
L 556 0 
z
" transform="scale(0.015625)"/>
      <path id="ArialMT-52" d="M 503 0 
L 503 4581 
L 2534 4581 
Q 3147 4581 3465 4457 
Q 3784 4334 3975 4021 
Q 4166 3709 4166 3331 
Q 4166 2844 3850 2509 
Q 3534 2175 2875 2084 
Q 3116 1969 3241 1856 
Q 3506 1613 3744 1247 
L 4541 0 
L 3778 0 
L 3172 953 
Q 2906 1366 2734 1584 
Q 2563 1803 2427 1890 
Q 2291 1978 2150 2013 
Q 2047 2034 1813 2034 
L 1109 2034 
L 1109 0 
L 503 0 
z
M 1109 2559 
L 2413 2559 
Q 2828 2559 3062 2645 
Q 3297 2731 3419 2920 
Q 3541 3109 3541 3331 
Q 3541 3656 3305 3865 
Q 3069 4075 2559 4075 
L 1109 4075 
L 1109 2559 
z
" transform="scale(0.015625)"/>
      <path id="ArialMT-42" d="M 469 0 
L 469 4581 
L 2188 4581 
Q 2713 4581 3030 4442 
Q 3347 4303 3526 4014 
Q 3706 3725 3706 3409 
Q 3706 3116 3547 2856 
Q 3388 2597 3066 2438 
Q 3481 2316 3704 2022 
Q 3928 1728 3928 1328 
Q 3928 1006 3792 729 
Q 3656 453 3456 303 
Q 3256 153 2954 76 
Q 2653 0 2216 0 
L 469 0 
z
M 1075 2656 
L 2066 2656 
Q 2469 2656 2644 2709 
Q 2875 2778 2992 2937 
Q 3109 3097 3109 3338 
Q 3109 3566 3000 3739 
Q 2891 3913 2687 3977 
Q 2484 4041 1991 4041 
L 1075 4041 
L 1075 2656 
z
M 1075 541 
L 2216 541 
Q 2509 541 2628 563 
Q 2838 600 2978 687 
Q 3119 775 3209 942 
Q 3300 1109 3300 1328 
Q 3300 1584 3169 1773 
Q 3038 1963 2805 2039 
Q 2572 2116 2134 2116 
L 1075 2116 
L 1075 541 
z
" transform="scale(0.015625)"/>
      <path id="ArialMT-46" d="M 525 0 
L 525 4581 
L 3616 4581 
L 3616 4041 
L 1131 4041 
L 1131 2622 
L 3281 2622 
L 3281 2081 
L 1131 2081 
L 1131 0 
L 525 0 
z
" transform="scale(0.015625)"/>
      <path id="ArialMT-6b" d="M 425 0 
L 425 4581 
L 988 4581 
L 988 1969 
L 2319 3319 
L 3047 3319 
L 1778 2088 
L 3175 0 
L 2481 0 
L 1384 1697 
L 988 1316 
L 988 0 
L 425 0 
z
" transform="scale(0.015625)"/>
      <path id="ArialMT-72" d="M 416 0 
L 416 3319 
L 922 3319 
L 922 2816 
Q 1116 3169 1280 3281 
Q 1444 3394 1641 3394 
Q 1925 3394 2219 3213 
L 2025 2691 
Q 1819 2813 1613 2813 
Q 1428 2813 1281 2702 
Q 1134 2591 1072 2394 
Q 978 2094 978 1738 
L 978 0 
L 416 0 
z
" transform="scale(0.015625)"/>
      <path id="ArialMT-64" d="M 2575 0 
L 2575 419 
Q 2259 -75 1647 -75 
Q 1250 -75 917 144 
Q 584 363 401 755 
Q 219 1147 219 1656 
Q 219 2153 384 2558 
Q 550 2963 881 3178 
Q 1213 3394 1622 3394 
Q 1922 3394 2156 3267 
Q 2391 3141 2538 2938 
L 2538 4581 
L 3097 4581 
L 3097 0 
L 2575 0 
z
M 797 1656 
Q 797 1019 1065 703 
Q 1334 388 1700 388 
Q 2069 388 2326 689 
Q 2584 991 2584 1609 
Q 2584 2291 2321 2609 
Q 2059 2928 1675 2928 
Q 1300 2928 1048 2622 
Q 797 2316 797 1656 
z
" transform="scale(0.015625)"/>
      <path id="ArialMT-74" d="M 1650 503 
L 1731 6 
Q 1494 -44 1306 -44 
Q 1000 -44 831 53 
Q 663 150 594 308 
Q 525 466 525 972 
L 525 2881 
L 113 2881 
L 113 3319 
L 525 3319 
L 525 4141 
L 1084 4478 
L 1084 3319 
L 1650 3319 
L 1650 2881 
L 1084 2881 
L 1084 941 
Q 1084 700 1114 631 
Q 1144 563 1211 522 
Q 1278 481 1403 481 
Q 1497 481 1650 503 
z
" transform="scale(0.015625)"/>
      <path id="ArialMT-68" d="M 422 0 
L 422 4581 
L 984 4581 
L 984 2938 
Q 1378 3394 1978 3394 
Q 2347 3394 2619 3248 
Q 2891 3103 3008 2847 
Q 3125 2591 3125 2103 
L 3125 0 
L 2563 0 
L 2563 2103 
Q 2563 2525 2380 2717 
Q 2197 2909 1863 2909 
Q 1613 2909 1392 2779 
Q 1172 2650 1078 2428 
Q 984 2206 984 1816 
L 984 0 
L 422 0 
z
" transform="scale(0.015625)"/>
      <path id="ArialMT-63" d="M 2588 1216 
L 3141 1144 
Q 3050 572 2676 248 
Q 2303 -75 1759 -75 
Q 1078 -75 664 370 
Q 250 816 250 1647 
Q 250 2184 428 2587 
Q 606 2991 970 3192 
Q 1334 3394 1763 3394 
Q 2303 3394 2647 3120 
Q 2991 2847 3088 2344 
L 2541 2259 
Q 2463 2594 2264 2762 
Q 2066 2931 1784 2931 
Q 1359 2931 1093 2626 
Q 828 2322 828 1663 
Q 828 994 1084 691 
Q 1341 388 1753 388 
Q 2084 388 2306 591 
Q 2528 794 2588 1216 
z
" transform="scale(0.015625)"/>
     </defs>
     <use xlink:href="#ArialMT-45"/>
     <use xlink:href="#ArialMT-69" x="66.699219"/>
     <use xlink:href="#ArialMT-67" x="88.916016"/>
     <use xlink:href="#ArialMT-65" x="144.53125"/>
     <use xlink:href="#ArialMT-6e" x="200.146484"/>
     <use xlink:href="#ArialMT-76" x="255.761719"/>
     <use xlink:href="#ArialMT-61" x="305.761719"/>
     <use xlink:href="#ArialMT-6c" x="361.376953"/>
     <use xlink:href="#ArialMT-75" x="383.59375"/>
     <use xlink:href="#ArialMT-65" x="439.208984"/>
     <use xlink:href="#ArialMT-73" x="494.824219"/>
     <use xlink:href="#ArialMT-20" x="544.824219"/>
     <use xlink:href="#ArialMT-6f" x="572.607422"/>
     <use xlink:href="#ArialMT-66" x="628.222656"/>
     <use xlink:href="#ArialMT-20" x="656.005859"/>
     <use xlink:href="#ArialMT-52" x="683.789062"/>
     <use xlink:href="#ArialMT-42" x="756.005859"/>
     <use xlink:href="#ArialMT-46" x="822.705078"/>
     <use xlink:href="#ArialMT-20" x="883.789062"/>
     <use xlink:href="#ArialMT-6b" x="911.572266"/>
     <use xlink:href="#ArialMT-65" x="961.572266"/>
     <use xlink:href="#ArialMT-72" x="1017.1875"/>
     <use xlink:href="#ArialMT-6e" x="1050.488281"/>
     <use xlink:href="#ArialMT-65" x="1106.103516"/>
     <use xlink:href="#ArialMT-6c" x="1161.71875"/>
     <use xlink:href="#ArialMT-20" x="1183.935547"/>
     <use xlink:href="#ArialMT-66" x="1211.71875"/>
     <use xlink:href="#ArialMT-6f" x="1239.501953"/>
     <use xlink:href="#ArialMT-72" x="1295.117188"/>
     <use xlink:href="#ArialMT-20" x="1328.417969"/>
     <use xlink:href="#ArialMT-64" x="1356.201172"/>
     <use xlink:href="#ArialMT-69" x="1411.816406"/>
     <use xlink:href="#ArialMT-66" x="1434.033203"/>
     <use xlink:href="#ArialMT-66" x="1460.066406"/>
     <use xlink:href="#ArialMT-65" x="1487.849609"/>
     <use xlink:href="#ArialMT-72" x="1543.464844"/>
     <use xlink:href="#ArialMT-65" x="1576.765625"/>
     <use xlink:href="#ArialMT-6e" x="1632.380859"/>
     <use xlink:href="#ArialMT-74" x="1687.996094"/>
     <use xlink:href="#ArialMT-20" x="1715.779297"/>
     <use xlink:href="#ArialMT-6c" x="1743.5625"/>
     <use xlink:href="#ArialMT-65" x="1765.779297"/>
     <use xlink:href="#ArialMT-6e" x="1821.394531"/>
     <use xlink:href="#ArialMT-67" x="1877.009766"/>
     <use xlink:href="#ArialMT-74" x="1932.625"/>
     <use xlink:href="#ArialMT-68" x="1960.408203"/>
     <use xlink:href="#ArialMT-73" x="2016.023438"/>
     <use xlink:href="#ArialMT-63" x="2066.023438"/>
     <use xlink:href="#ArialMT-61" x="2116.023438"/>
     <use xlink:href="#ArialMT-6c" x="2171.638672"/>
     <use xlink:href="#ArialMT-65" x="2193.855469"/>
     <use xlink:href="#ArialMT-73" x="2249.470703"/>
    </g>
   </g>
   <g id="legend_1">
    <g id="patch_5">
     <path d="M 329.404 94.126875 
L 391.62 94.126875 
Q 393.38 94.126875 393.38 92.366875 
L 393.38 31.0075 
Q 393.38 29.2475 391.62 29.2475 
L 329.404 29.2475 
Q 327.644 29.2475 327.644 31.0075 
L 327.644 92.366875 
Q 327.644 94.126875 329.404 94.126875 
z
" style="fill: #ffffff; opacity: 0.8; stroke: #cccccc; stroke-width: 0.8; stroke-linejoin: miter"/>
    </g>
    <g id="line2d_24">
     <path d="M 331.164 35.986375 
L 339.964 35.986375 
L 348.764 35.986375 
" style="fill: none; stroke: #1f77b4; stroke-linecap: round"/>
     <g>
      <use xlink:href="#mf168cb0d2b" x="339.964" y="35.986375" style="fill: #1f77b4; stroke: #1f77b4; stroke-width: 2"/>
     </g>
    </g>
    <g id="text_22">
     <!-- $\ell=0.01$ -->
     <g style="fill: #262626" transform="translate(355.804 39.066375) scale(0.088 -0.088)">
      <defs>
       <path id="DejaVuSans-Oblique-2113" d="M 950 838 
Q 1078 213 1350 213 
Q 1531 213 1766 572 
L 2181 572 
Q 1994 253 1775 88 
Q 1538 -91 1319 -91 
Q 831 -91 634 344 
L 400 0 
L -88 0 
Q 250 459 500 888 
Q 469 1131 469 1397 
Q 469 1872 566 2347 
Q 931 4131 1256 4497 
Q 1481 4750 1866 4750 
Q 2256 4750 2256 4209 
Q 2253 3966 2197 3675 
Q 1972 2484 950 838 
z
M 947 1656 
Q 1531 2744 1709 3613 
Q 1803 4072 1803 4191 
Q 1803 4406 1725 4406 
Q 1384 4134 1081 2516 
Q 997 2063 947 1656 
z
" transform="scale(0.015625)"/>
       <path id="DejaVuSans-3d" d="M 678 2906 
L 4684 2906 
L 4684 2381 
L 678 2381 
L 678 2906 
z
M 678 1631 
L 4684 1631 
L 4684 1100 
L 678 1100 
L 678 1631 
z
" transform="scale(0.015625)"/>
       <path id="DejaVuSans-30" d="M 2034 4250 
Q 1547 4250 1301 3770 
Q 1056 3291 1056 2328 
Q 1056 1369 1301 889 
Q 1547 409 2034 409 
Q 2525 409 2770 889 
Q 3016 1369 3016 2328 
Q 3016 3291 2770 3770 
Q 2525 4250 2034 4250 
z
M 2034 4750 
Q 2819 4750 3233 4129 
Q 3647 3509 3647 2328 
Q 3647 1150 3233 529 
Q 2819 -91 2034 -91 
Q 1250 -91 836 529 
Q 422 1150 422 2328 
Q 422 3509 836 4129 
Q 1250 4750 2034 4750 
z
" transform="scale(0.015625)"/>
       <path id="DejaVuSans-2e" d="M 684 794 
L 1344 794 
L 1344 0 
L 684 0 
L 684 794 
z
" transform="scale(0.015625)"/>
       <path id="DejaVuSans-31" d="M 794 531 
L 1825 531 
L 1825 4091 
L 703 3866 
L 703 4441 
L 1819 4666 
L 2450 4666 
L 2450 531 
L 3481 531 
L 3481 0 
L 794 0 
L 794 531 
z
" transform="scale(0.015625)"/>
      </defs>
      <use xlink:href="#DejaVuSans-Oblique-2113" transform="translate(0 0.78125)"/>
      <use xlink:href="#DejaVuSans-3d" transform="translate(60.791016 0.78125)"/>
      <use xlink:href="#DejaVuSans-30" transform="translate(164.0625 0.78125)"/>
      <use xlink:href="#DejaVuSans-2e" transform="translate(227.685547 0.78125)"/>
      <use xlink:href="#DejaVuSans-30" transform="translate(259.472656 0.78125)"/>
      <use xlink:href="#DejaVuSans-31" transform="translate(323.095703 0.78125)"/>
     </g>
    </g>
    <g id="line2d_25">
     <path d="M 331.164 48.43425 
L 339.964 48.43425 
L 348.764 48.43425 
" style="fill: none; stroke: #ff7f0e; stroke-linecap: round"/>
     <g>
      <use xlink:href="#m8f2c6ec737" x="339.964" y="48.43425" style="fill: #ff7f0e; stroke: #ff7f0e; stroke-width: 2"/>
     </g>
    </g>
    <g id="text_23">
     <!-- $\ell=0.05$ -->
     <g style="fill: #262626" transform="translate(355.804 51.51425) scale(0.088 -0.088)">
      <defs>
       <path id="DejaVuSans-35" d="M 691 4666 
L 3169 4666 
L 3169 4134 
L 1269 4134 
L 1269 2991 
Q 1406 3038 1543 3061 
Q 1681 3084 1819 3084 
Q 2600 3084 3056 2656 
Q 3513 2228 3513 1497 
Q 3513 744 3044 326 
Q 2575 -91 1722 -91 
Q 1428 -91 1123 -41 
Q 819 9 494 109 
L 494 744 
Q 775 591 1075 516 
Q 1375 441 1709 441 
Q 2250 441 2565 725 
Q 2881 1009 2881 1497 
Q 2881 1984 2565 2268 
Q 2250 2553 1709 2553 
Q 1456 2553 1204 2497 
Q 953 2441 691 2322 
L 691 4666 
z
" transform="scale(0.015625)"/>
      </defs>
      <use xlink:href="#DejaVuSans-Oblique-2113" transform="translate(0 0.78125)"/>
      <use xlink:href="#DejaVuSans-3d" transform="translate(60.791016 0.78125)"/>
      <use xlink:href="#DejaVuSans-30" transform="translate(164.0625 0.78125)"/>
      <use xlink:href="#DejaVuSans-2e" transform="translate(227.685547 0.78125)"/>
      <use xlink:href="#DejaVuSans-30" transform="translate(259.472656 0.78125)"/>
      <use xlink:href="#DejaVuSans-35" transform="translate(323.095703 0.78125)"/>
     </g>
    </g>
    <g id="line2d_26">
     <path d="M 331.164 60.882125 
L 339.964 60.882125 
L 348.764 60.882125 
" style="fill: none; stroke: #2ca02c; stroke-linecap: round"/>
     <g>
      <use xlink:href="#m0b6285df7a" x="339.964" y="60.882125" style="fill: #2ca02c; stroke: #2ca02c; stroke-width: 2"/>
     </g>
    </g>
    <g id="text_24">
     <!-- $\ell=0.10$ -->
     <g style="fill: #262626" transform="translate(355.804 63.962125) scale(0.088 -0.088)">
      <use xlink:href="#DejaVuSans-Oblique-2113" transform="translate(0 0.78125)"/>
      <use xlink:href="#DejaVuSans-3d" transform="translate(60.791016 0.78125)"/>
      <use xlink:href="#DejaVuSans-30" transform="translate(164.0625 0.78125)"/>
      <use xlink:href="#DejaVuSans-2e" transform="translate(227.685547 0.78125)"/>
      <use xlink:href="#DejaVuSans-31" transform="translate(259.472656 0.78125)"/>
      <use xlink:href="#DejaVuSans-30" transform="translate(323.095703 0.78125)"/>
     </g>
    </g>
    <g id="line2d_27">
     <path d="M 331.164 73.33 
L 339.964 73.33 
L 348.764 73.33 
" style="fill: none; stroke: #d62728; stroke-linecap: round"/>
     <g>
      <use xlink:href="#mc38e1cce13" x="339.964" y="73.33" style="fill: #d62728; stroke: #d62728; stroke-width: 2"/>
     </g>
    </g>
    <g id="text_25">
     <!-- $\ell=0.20$ -->
     <g style="fill: #262626" transform="translate(355.804 76.41) scale(0.088 -0.088)">
      <defs>
       <path id="DejaVuSans-32" d="M 1228 531 
L 3431 531 
L 3431 0 
L 469 0 
L 469 531 
Q 828 903 1448 1529 
Q 2069 2156 2228 2338 
Q 2531 2678 2651 2914 
Q 2772 3150 2772 3378 
Q 2772 3750 2511 3984 
Q 2250 4219 1831 4219 
Q 1534 4219 1204 4116 
Q 875 4013 500 3803 
L 500 4441 
Q 881 4594 1212 4672 
Q 1544 4750 1819 4750 
Q 2544 4750 2975 4387 
Q 3406 4025 3406 3419 
Q 3406 3131 3298 2873 
Q 3191 2616 2906 2266 
Q 2828 2175 2409 1742 
Q 1991 1309 1228 531 
z
" transform="scale(0.015625)"/>
      </defs>
      <use xlink:href="#DejaVuSans-Oblique-2113" transform="translate(0 0.78125)"/>
      <use xlink:href="#DejaVuSans-3d" transform="translate(60.791016 0.78125)"/>
      <use xlink:href="#DejaVuSans-30" transform="translate(164.0625 0.78125)"/>
      <use xlink:href="#DejaVuSans-2e" transform="translate(227.685547 0.78125)"/>
      <use xlink:href="#DejaVuSans-32" transform="translate(253.972656 0.78125)"/>
      <use xlink:href="#DejaVuSans-30" transform="translate(317.595703 0.78125)"/>
     </g>
    </g>
    <g id="line2d_28">
     <path d="M 331.164 85.777875 
L 339.964 85.777875 
L 348.764 85.777875 
" style="fill: none; stroke: #9467bd; stroke-linecap: round"/>
     <g>
      <use xlink:href="#mdb2abefb19" x="339.964" y="85.777875" style="fill: #9467bd; stroke: #9467bd; stroke-width: 2"/>
     </g>
    </g>
    <g id="text_26">
     <!-- $\ell=0.50$ -->
     <g style="fill: #262626" transform="translate(355.804 88.857875) scale(0.088 -0.088)">
      <use xlink:href="#DejaVuSans-Oblique-2113" transform="translate(0 0.78125)"/>
      <use xlink:href="#DejaVuSans-3d" transform="translate(60.791016 0.78125)"/>
      <use xlink:href="#DejaVuSans-30" transform="translate(164.0625 0.78125)"/>
      <use xlink:href="#DejaVuSans-2e" transform="translate(227.685547 0.78125)"/>
      <use xlink:href="#DejaVuSans-35" transform="translate(259.472656 0.78125)"/>
      <use xlink:href="#DejaVuSans-30" transform="translate(323.095703 0.78125)"/>
     </g>
    </g>
   </g>
  </g>
 </g>
 <defs>
  <clipPath id="pf95cb4bfe2">
   <rect x="40.66" y="24.8475" width="357.12" height="266.112"/>
  </clipPath>
 </defs>
</svg>