<?xml version="1.0" encoding="utf-8" standalone="no"?>
<!DOCTYPE svg PUBLIC "-//W3C//DTD SVG 1.1//EN"
  "http://www.w3.org/Graphics/SVG/1.1/DTD/svg11.dtd">
<svg xmlns:xlink="http://www.w3.org/1999/xlink" width="281.610795pt" height="286.272pt" viewBox="0 0 281.610795 286.272" xmlns="http://www.w3.org/2000/svg" version="1.1">
 <metadata>
  <rdf:RDF xmlns:dc="http://purl.org/dc/elements/1.1/" xmlns:cc="http://creativecommons.org/ns#" xmlns:rdf="http://www.w3.org/1999/02/22-rdf-syntax-ns#">
   <cc:Work>
    <dc:type rdf:resource="http://purl.org/dc/dcmitype/StillImage"/>
    <dc:date>2025-02-28T23:36:46.139777</dc:date>
    <dc:format>image/svg+xml</dc:format>
    <dc:creator>
     <cc:Agent>
      <dc:title>Matplotlib v3.9.2, https://matplotlib.org/</dc:title>
     </cc:Agent>
    </dc:creator>
   </cc:Work>
  </rdf:RDF>
 </metadata>
 <defs>
  <style type="text/css">*{stroke-linejoin: round; stroke-linecap: butt}</style>
 </defs>
 <g id="figure_1">
  <g id="patch_1">
   <path d="M 0 286.272 
L 281.610795 286.272 
L 281.610795 0 
L 0 0 
z
" style="fill: #ffffff"/>
  </g>
  <g id="axes_1">
   <g id="patch_2">
    <path d="M 8.840415 58.636354 
L 274.410795 58.636354 
L 274.410795 45.8583 
L 8.840415 45.8583 
z
" style="fill: #ffffff"/>
   </g>
   <g id="matplotlib.axis_1">
    <g id="xtick_1">
     <g id="line2d_1">
      <defs>
       <path id="m0a7c3c4de3" d="M 0 0 
L 0 4.8 
" style="stroke: #262626"/>
      </defs>
      <g>
       <use xlink:href="#m0a7c3c4de3" x="18.332688" y="58.636354" style="fill: #262626; stroke: #262626"/>
      </g>
     </g>
    </g>
    <g id="xtick_2">
     <g id="line2d_2">
      <g>
       <use xlink:href="#m0a7c3c4de3" x="71.244448" y="58.636354" style="fill: #262626; stroke: #262626"/>
      </g>
     </g>
    </g>
    <g id="xtick_3">
     <g id="line2d_3">
      <g>
       <use xlink:href="#m0a7c3c4de3" x="124.156209" y="58.636354" style="fill: #262626; stroke: #262626"/>
      </g>
     </g>
    </g>
    <g id="xtick_4">
     <g id="line2d_4">
      <g>
       <use xlink:href="#m0a7c3c4de3" x="177.067969" y="58.636354" style="fill: #262626; stroke: #262626"/>
      </g>
     </g>
    </g>
    <g id="xtick_5">
     <g id="line2d_5">
      <g>
       <use xlink:href="#m0a7c3c4de3" x="229.97973" y="58.636354" style="fill: #262626; stroke: #262626"/>
      </g>
     </g>
    </g>
   </g>
   <g id="matplotlib.axis_2"/>
   <g id="line2d_6">
    <path d="M 20.911796 58.635345 
L 39.109858 58.533195 
L 48.81549 58.293044 
L 54.881511 57.953731 
L 60.947532 57.391254 
L 69.43996 56.317733 
L 83.99841 54.28611 
L 88.851226 53.258052 
L 97.343655 51.073945 
L 103.409675 49.651011 
L 108.262492 48.733734 
L 113.115308 48.055373 
L 119.181329 47.491439 
L 132.526574 46.494588 
L 136.166186 46.491835 
L 139.805799 46.712048 
L 147.085023 47.470889 
L 153.151044 48.213317 
L 156.790656 48.882319 
L 160.430269 49.799926 
L 172.56231 53.215299 
L 177.415126 54.208802 
L 184.694351 55.404623 
L 193.18678 56.572656 
L 200.466004 57.358232 
L 206.532025 57.777813 
L 215.024454 58.093761 
L 230.796107 58.446459 
L 252.633781 58.624844 
L 262.339414 58.635774 
L 262.339414 58.635774 
" clip-path="url(#pcd89d097b1)" style="fill: none; stroke: #1f77b4; stroke-width: 2; stroke-linecap: round"/>
   </g>
   <g id="patch_3">
    <path d="M 18.332688 58.636354 
L 229.97973 58.636354 
" style="fill: none; stroke: #262626; stroke-linejoin: miter; stroke-linecap: square"/>
   </g>
   <g id="text_1">
    <!-- N=50 -->
    <g style="fill: #262626" transform="translate(130.017105 39.8583) scale(0.096 -0.096)">
     <defs>
      <path id="ArialMT-4e" d="M 488 0 
L 488 4581 
L 1109 4581 
L 3516 984 
L 3516 4581 
L 4097 4581 
L 4097 0 
L 3475 0 
L 1069 3600 
L 1069 0 
L 488 0 
z
" transform="scale(0.015625)"/>
      <path id="ArialMT-3d" d="M 3381 2694 
L 356 2694 
L 356 3219 
L 3381 3219 
L 3381 2694 
z
M 3381 1303 
L 356 1303 
L 356 1828 
L 3381 1828 
L 3381 1303 
z
" transform="scale(0.015625)"/>
      <path id="ArialMT-35" d="M 266 1200 
L 856 1250 
Q 922 819 1161 601 
Q 1400 384 1738 384 
Q 2144 384 2425 690 
Q 2706 997 2706 1503 
Q 2706 1984 2436 2262 
Q 2166 2541 1728 2541 
Q 1456 2541 1237 2417 
Q 1019 2294 894 2097 
L 366 2166 
L 809 4519 
L 3088 4519 
L 3088 3981 
L 1259 3981 
L 1013 2750 
Q 1425 3038 1878 3038 
Q 2478 3038 2890 2622 
Q 3303 2206 3303 1553 
Q 3303 931 2941 478 
Q 2500 -78 1738 -78 
Q 1113 -78 717 272 
Q 322 622 266 1200 
z
" transform="scale(0.015625)"/>
      <path id="ArialMT-30" d="M 266 2259 
Q 266 3072 433 3567 
Q 600 4063 929 4331 
Q 1259 4600 1759 4600 
Q 2128 4600 2406 4451 
Q 2684 4303 2865 4023 
Q 3047 3744 3150 3342 
Q 3253 2941 3253 2259 
Q 3253 1453 3087 958 
Q 2922 463 2592 192 
Q 2263 -78 1759 -78 
Q 1097 -78 719 397 
Q 266 969 266 2259 
z
M 844 2259 
Q 844 1131 1108 757 
Q 1372 384 1759 384 
Q 2147 384 2411 759 
Q 2675 1134 2675 2259 
Q 2675 3391 2411 3762 
Q 2147 4134 1753 4134 
Q 1366 4134 1134 3806 
Q 844 3388 844 2259 
z
" transform="scale(0.015625)"/>
     </defs>
     <use xlink:href="#ArialMT-4e"/>
     <use xlink:href="#ArialMT-3d" x="72.216797"/>
     <use xlink:href="#ArialMT-35" x="130.615234"/>
     <use xlink:href="#ArialMT-30" x="186.230469"/>
    </g>
   </g>
  </g>
  <g id="axes_2">
   <g id="patch_4">
    <path d="M 8.840415 99.453908 
L 274.410795 99.453908 
L 274.410795 86.675854 
L 8.840415 86.675854 
z
" style="fill: #ffffff"/>
   </g>
   <g id="matplotlib.axis_3">
    <g id="xtick_6">
     <g id="line2d_7">
      <g>
       <use xlink:href="#m0a7c3c4de3" x="18.332688" y="99.453908" style="fill: #262626; stroke: #262626"/>
      </g>
     </g>
    </g>
    <g id="xtick_7">
     <g id="line2d_8">
      <g>
       <use xlink:href="#m0a7c3c4de3" x="71.244448" y="99.453908" style="fill: #262626; stroke: #262626"/>
      </g>
     </g>
    </g>
    <g id="xtick_8">
     <g id="line2d_9">
      <g>
       <use xlink:href="#m0a7c3c4de3" x="124.156209" y="99.453908" style="fill: #262626; stroke: #262626"/>
      </g>
     </g>
    </g>
    <g id="xtick_9">
     <g id="line2d_10">
      <g>
       <use xlink:href="#m0a7c3c4de3" x="177.067969" y="99.453908" style="fill: #262626; stroke: #262626"/>
      </g>
     </g>
    </g>
    <g id="xtick_10">
     <g id="line2d_11">
      <g>
       <use xlink:href="#m0a7c3c4de3" x="229.97973" y="99.453908" style="fill: #262626; stroke: #262626"/>
      </g>
     </g>
    </g>
   </g>
   <g id="matplotlib.axis_4"/>
   <g id="line2d_12">
    <path d="M 48.863343 99.452899 
L 56.028579 99.350749 
L 59.850039 99.110598 
L 62.238451 98.771285 
L 64.626863 98.208809 
L 67.97064 97.135287 
L 73.702829 95.103664 
L 75.613558 94.075606 
L 82.778795 89.759398 
L 84.689524 89.019461 
L 86.600254 88.510008 
L 92.332443 87.361648 
L 93.76549 87.284305 
L 95.198538 87.434776 
L 97.109267 87.89149 
L 100.930727 89.030872 
L 102.363774 89.699873 
L 103.796821 90.61748 
L 108.573645 94.032853 
L 110.484375 95.026357 
L 113.35047 96.222177 
L 117.171929 97.53863 
L 120.038023 98.277825 
L 122.426436 98.654464 
L 126.247895 98.980367 
L 131.980084 99.279913 
L 140.578367 99.445368 
L 143.922144 99.453328 
L 143.922144 99.453328 
" clip-path="url(#p9103aca09d)" style="fill: none; stroke: #1f77b4; stroke-width: 2; stroke-linecap: round"/>
   </g>
   <g id="patch_5">
    <path d="M 18.332688 99.453908 
L 229.97973 99.453908 
" style="fill: none; stroke: #262626; stroke-linejoin: miter; stroke-linecap: square"/>
   </g>
   <g id="text_2">
    <!-- N=100 -->
    <g style="fill: #262626" transform="translate(127.347855 80.675854) scale(0.096 -0.096)">
     <defs>
      <path id="ArialMT-31" d="M 2384 0 
L 1822 0 
L 1822 3584 
Q 1619 3391 1289 3197 
Q 959 3003 697 2906 
L 697 3450 
Q 1169 3672 1522 3987 
Q 1875 4303 2022 4600 
L 2384 4600 
L 2384 0 
z
" transform="scale(0.015625)"/>
     </defs>
     <use xlink:href="#ArialMT-4e"/>
     <use xlink:href="#ArialMT-3d" x="72.216797"/>
     <use xlink:href="#ArialMT-31" x="130.615234"/>
     <use xlink:href="#ArialMT-30" x="186.230469"/>
     <use xlink:href="#ArialMT-30" x="241.845703"/>
    </g>
   </g>
  </g>
  <g id="axes_3">
   <g id="patch_6">
    <path d="M 8.840415 140.271462 
L 274.410795 140.271462 
L 274.410795 127.493408 
L 8.840415 127.493408 
z
" style="fill: #ffffff"/>
   </g>
   <g id="matplotlib.axis_5">
    <g id="xtick_11">
     <g id="line2d_13">
      <g>
       <use xlink:href="#m0a7c3c4de3" x="18.332688" y="140.271462" style="fill: #262626; stroke: #262626"/>
      </g>
     </g>
    </g>
    <g id="xtick_12">
     <g id="line2d_14">
      <g>
       <use xlink:href="#m0a7c3c4de3" x="71.244448" y="140.271462" style="fill: #262626; stroke: #262626"/>
      </g>
     </g>
    </g>
    <g id="xtick_13">
     <g id="line2d_15">
      <g>
       <use xlink:href="#m0a7c3c4de3" x="124.156209" y="140.271462" style="fill: #262626; stroke: #262626"/>
      </g>
     </g>
    </g>
    <g id="xtick_14">
     <g id="line2d_16">
      <g>
       <use xlink:href="#m0a7c3c4de3" x="177.067969" y="140.271462" style="fill: #262626; stroke: #262626"/>
      </g>
     </g>
    </g>
    <g id="xtick_15">
     <g id="line2d_17">
      <g>
       <use xlink:href="#m0a7c3c4de3" x="229.97973" y="140.271462" style="fill: #262626; stroke: #262626"/>
      </g>
     </g>
    </g>
   </g>
   <g id="matplotlib.axis_6"/>
   <g id="line2d_18">
    <path d="M 105.197366 140.270453 
L 106.980516 140.168303 
L 107.93153 139.928152 
L 108.525914 139.588839 
L 109.239174 138.888284 
L 110.903448 136.688002 
L 111.497832 135.690213 
L 112.211092 133.976279 
L 113.399859 131.036286 
L 114.113119 129.837015 
L 114.82638 129.126547 
L 116.2529 128.10311 
L 116.60953 128.177797 
L 117.085037 128.580108 
L 118.154928 129.848426 
L 118.630435 130.797156 
L 119.462572 133.247257 
L 120.294709 135.37485 
L 121.126846 136.855818 
L 122.315613 138.498562 
L 123.028873 139.188133 
L 123.742133 139.572065 
L 125.168654 139.9787 
L 126.714051 140.186715 
L 128.853832 140.270883 
L 128.853832 140.270883 
" clip-path="url(#p5b5be754cc)" style="fill: none; stroke: #1f77b4; stroke-width: 2; stroke-linecap: round"/>
   </g>
   <g id="patch_7">
    <path d="M 18.332688 140.271462 
L 229.97973 140.271462 
" style="fill: none; stroke: #262626; stroke-linejoin: miter; stroke-linecap: square"/>
   </g>
   <g id="text_3">
    <!-- N=200 -->
    <g style="fill: #262626" transform="translate(127.347855 121.493408) scale(0.096 -0.096)">
     <defs>
      <path id="ArialMT-32" d="M 3222 541 
L 3222 0 
L 194 0 
Q 188 203 259 391 
Q 375 700 629 1000 
Q 884 1300 1366 1694 
Q 2113 2306 2375 2664 
Q 2638 3022 2638 3341 
Q 2638 3675 2398 3904 
Q 2159 4134 1775 4134 
Q 1369 4134 1125 3890 
Q 881 3647 878 3216 
L 300 3275 
Q 359 3922 746 4261 
Q 1134 4600 1788 4600 
Q 2447 4600 2831 4234 
Q 3216 3869 3216 3328 
Q 3216 3053 3103 2787 
Q 2991 2522 2730 2228 
Q 2469 1934 1863 1422 
Q 1356 997 1212 845 
Q 1069 694 975 541 
L 3222 541 
z
" transform="scale(0.015625)"/>
     </defs>
     <use xlink:href="#ArialMT-4e"/>
     <use xlink:href="#ArialMT-3d" x="72.216797"/>
     <use xlink:href="#ArialMT-32" x="130.615234"/>
     <use xlink:href="#ArialMT-30" x="186.230469"/>
     <use xlink:href="#ArialMT-30" x="241.845703"/>
    </g>
   </g>
  </g>
  <g id="axes_4">
   <g id="patch_8">
    <path d="M 8.840415 181.089017 
L 274.410795 181.089017 
L 274.410795 168.310962 
L 8.840415 168.310962 
z
" style="fill: #ffffff"/>
   </g>
   <g id="matplotlib.axis_7">
    <g id="xtick_16">
     <g id="line2d_19">
      <g>
       <use xlink:href="#m0a7c3c4de3" x="18.332688" y="181.089017" style="fill: #262626; stroke: #262626"/>
      </g>
     </g>
    </g>
    <g id="xtick_17">
     <g id="line2d_20">
      <g>
       <use xlink:href="#m0a7c3c4de3" x="71.244448" y="181.089017" style="fill: #262626; stroke: #262626"/>
      </g>
     </g>
    </g>
    <g id="xtick_18">
     <g id="line2d_21">
      <g>
       <use xlink:href="#m0a7c3c4de3" x="124.156209" y="181.089017" style="fill: #262626; stroke: #262626"/>
      </g>
     </g>
    </g>
    <g id="xtick_19">
     <g id="line2d_22">
      <g>
       <use xlink:href="#m0a7c3c4de3" x="177.067969" y="181.089017" style="fill: #262626; stroke: #262626"/>
      </g>
     </g>
    </g>
    <g id="xtick_20">
     <g id="line2d_23">
      <g>
       <use xlink:href="#m0a7c3c4de3" x="229.97973" y="181.089017" style="fill: #262626; stroke: #262626"/>
      </g>
     </g>
    </g>
   </g>
   <g id="matplotlib.axis_8"/>
   <g id="line2d_24">
    <path d="M 106.409744 181.088008 
L 106.764729 180.985858 
L 106.97772 180.693922 
L 107.167046 179.974106 
L 107.616694 176.95239 
L 107.924348 173.221783 
L 108.279333 170.145116 
L 108.634318 168.919414 
L 108.657984 168.944498 
L 108.776312 169.397662 
L 109.083966 171.61471 
L 109.746605 178.871526 
L 110.077925 180.342259 
L 110.456576 180.863217 
L 110.882558 181.069333 
L 111.119215 181.088437 
L 111.119215 181.088437 
" clip-path="url(#p54b9ed9d33)" style="fill: none; stroke: #1f77b4; stroke-width: 2; stroke-linecap: round"/>
   </g>
   <g id="patch_9">
    <path d="M 18.332688 181.089017 
L 229.97973 181.089017 
" style="fill: none; stroke: #262626; stroke-linejoin: miter; stroke-linecap: square"/>
   </g>
   <g id="text_4">
    <!-- N=500 -->
    <g style="fill: #262626" transform="translate(127.347855 162.310962) scale(0.096 -0.096)">
     <use xlink:href="#ArialMT-4e"/>
     <use xlink:href="#ArialMT-3d" x="72.216797"/>
     <use xlink:href="#ArialMT-35" x="130.615234"/>
     <use xlink:href="#ArialMT-30" x="186.230469"/>
     <use xlink:href="#ArialMT-30" x="241.845703"/>
    </g>
   </g>
  </g>
  <g id="axes_5">
   <g id="patch_10">
    <path d="M 8.840415 221.906571 
L 274.410795 221.906571 
L 274.410795 209.128517 
L 8.840415 209.128517 
z
" style="fill: #ffffff"/>
   </g>
   <g id="matplotlib.axis_9">
    <g id="xtick_21">
     <g id="line2d_25">
      <g>
       <use xlink:href="#m0a7c3c4de3" x="18.332688" y="221.906571" style="fill: #262626; stroke: #262626"/>
      </g>
     </g>
    </g>
    <g id="xtick_22">
     <g id="line2d_26">
      <g>
       <use xlink:href="#m0a7c3c4de3" x="71.244448" y="221.906571" style="fill: #262626; stroke: #262626"/>
      </g>
     </g>
    </g>
    <g id="xtick_23">
     <g id="line2d_27">
      <g>
       <use xlink:href="#m0a7c3c4de3" x="124.156209" y="221.906571" style="fill: #262626; stroke: #262626"/>
      </g>
     </g>
    </g>
    <g id="xtick_24">
     <g id="line2d_28">
      <g>
       <use xlink:href="#m0a7c3c4de3" x="177.067969" y="221.906571" style="fill: #262626; stroke: #262626"/>
      </g>
     </g>
    </g>
    <g id="xtick_25">
     <g id="line2d_29">
      <g>
       <use xlink:href="#m0a7c3c4de3" x="229.97973" y="221.906571" style="fill: #262626; stroke: #262626"/>
      </g>
     </g>
    </g>
   </g>
   <g id="matplotlib.axis_10"/>
   <g id="line2d_30">
    <path d="M 111.097355 221.905562 
L 111.357217 221.803412 
L 111.530459 221.452264 
L 111.703701 220.378231 
L 112.102158 215.925752 
L 112.48329 210.859873 
L 112.725829 209.736968 
L 112.760477 209.812905 
L 112.933719 211.010423 
L 113.089637 213.070142 
L 113.505418 219.367495 
L 113.817253 221.250309 
L 114.163737 221.774517 
L 114.527545 221.905661 
L 114.544869 221.905991 
L 114.544869 221.905991 
" clip-path="url(#pedc5f70471)" style="fill: none; stroke: #1f77b4; stroke-width: 2; stroke-linecap: round"/>
   </g>
   <g id="patch_11">
    <path d="M 18.332688 221.906571 
L 229.97973 221.906571 
" style="fill: none; stroke: #262626; stroke-linejoin: miter; stroke-linecap: square"/>
   </g>
   <g id="text_5">
    <!-- N=1000 -->
    <g style="fill: #262626" transform="translate(124.678605 203.128517) scale(0.096 -0.096)">
     <use xlink:href="#ArialMT-4e"/>
     <use xlink:href="#ArialMT-3d" x="72.216797"/>
     <use xlink:href="#ArialMT-31" x="130.615234"/>
     <use xlink:href="#ArialMT-30" x="186.230469"/>
     <use xlink:href="#ArialMT-30" x="241.845703"/>
     <use xlink:href="#ArialMT-30" x="297.460938"/>
    </g>
   </g>
  </g>
  <g id="axes_6">
   <g id="patch_12">
    <path d="M 8.840415 262.724125 
L 274.410795 262.724125 
L 274.410795 249.946071 
L 8.840415 249.946071 
z
" style="fill: #ffffff"/>
   </g>
   <g id="matplotlib.axis_11">
    <g id="xtick_26">
     <g id="line2d_31">
      <g>
       <use xlink:href="#m0a7c3c4de3" x="18.332688" y="262.724125" style="fill: #262626; stroke: #262626"/>
      </g>
     </g>
     <g id="text_6">
      <!-- −0.35 -->
      <g style="fill: #262626" transform="translate(7.2 277.323) scale(0.088 -0.088)">
       <defs>
        <path id="ArialMT-2212" d="M 3381 1997 
L 356 1997 
L 356 2522 
L 3381 2522 
L 3381 1997 
z
" transform="scale(0.015625)"/>
        <path id="ArialMT-2e" d="M 581 0 
L 581 641 
L 1222 641 
L 1222 0 
L 581 0 
z
" transform="scale(0.015625)"/>
        <path id="ArialMT-33" d="M 269 1209 
L 831 1284 
Q 928 806 1161 595 
Q 1394 384 1728 384 
Q 2125 384 2398 659 
Q 2672 934 2672 1341 
Q 2672 1728 2419 1979 
Q 2166 2231 1775 2231 
Q 1616 2231 1378 2169 
L 1441 2663 
Q 1497 2656 1531 2656 
Q 1891 2656 2178 2843 
Q 2466 3031 2466 3422 
Q 2466 3731 2256 3934 
Q 2047 4138 1716 4138 
Q 1388 4138 1169 3931 
Q 950 3725 888 3313 
L 325 3413 
Q 428 3978 793 4289 
Q 1159 4600 1703 4600 
Q 2078 4600 2393 4439 
Q 2709 4278 2876 4000 
Q 3044 3722 3044 3409 
Q 3044 3113 2884 2869 
Q 2725 2625 2413 2481 
Q 2819 2388 3044 2092 
Q 3269 1797 3269 1353 
Q 3269 753 2831 336 
Q 2394 -81 1725 -81 
Q 1122 -81 723 278 
Q 325 638 269 1209 
z
" transform="scale(0.015625)"/>
       </defs>
       <use xlink:href="#ArialMT-2212"/>
       <use xlink:href="#ArialMT-30" x="58.398438"/>
       <use xlink:href="#ArialMT-2e" x="114.013672"/>
       <use xlink:href="#ArialMT-33" x="141.796875"/>
       <use xlink:href="#ArialMT-35" x="197.412109"/>
      </g>
     </g>
    </g>
    <g id="xtick_27">
     <g id="line2d_32">
      <g>
       <use xlink:href="#m0a7c3c4de3" x="71.244448" y="262.724125" style="fill: #262626; stroke: #262626"/>
      </g>
     </g>
     <g id="text_7">
      <!-- −0.30 -->
      <g style="fill: #262626" transform="translate(60.111761 277.323) scale(0.088 -0.088)">
       <use xlink:href="#ArialMT-2212"/>
       <use xlink:href="#ArialMT-30" x="58.398438"/>
       <use xlink:href="#ArialMT-2e" x="114.013672"/>
       <use xlink:href="#ArialMT-33" x="141.796875"/>
       <use xlink:href="#ArialMT-30" x="197.412109"/>
      </g>
     </g>
    </g>
    <g id="xtick_28">
     <g id="line2d_33">
      <g>
       <use xlink:href="#m0a7c3c4de3" x="124.156209" y="262.724125" style="fill: #262626; stroke: #262626"/>
      </g>
     </g>
     <g id="text_8">
      <!-- −0.25 -->
      <g style="fill: #262626" transform="translate(113.023521 277.323) scale(0.088 -0.088)">
       <use xlink:href="#ArialMT-2212"/>
       <use xlink:href="#ArialMT-30" x="58.398438"/>
       <use xlink:href="#ArialMT-2e" x="114.013672"/>
       <use xlink:href="#ArialMT-32" x="141.796875"/>
       <use xlink:href="#ArialMT-35" x="197.412109"/>
      </g>
     </g>
    </g>
    <g id="xtick_29">
     <g id="line2d_34">
      <g>
       <use xlink:href="#m0a7c3c4de3" x="177.067969" y="262.724125" style="fill: #262626; stroke: #262626"/>
      </g>
     </g>
     <g id="text_9">
      <!-- −0.20 -->
      <g style="fill: #262626" transform="translate(165.935282 277.323) scale(0.088 -0.088)">
       <use xlink:href="#ArialMT-2212"/>
       <use xlink:href="#ArialMT-30" x="58.398438"/>
       <use xlink:href="#ArialMT-2e" x="114.013672"/>
       <use xlink:href="#ArialMT-32" x="141.796875"/>
       <use xlink:href="#ArialMT-30" x="197.412109"/>
      </g>
     </g>
    </g>
    <g id="xtick_30">
     <g id="line2d_35">
      <g>
       <use xlink:href="#m0a7c3c4de3" x="229.97973" y="262.724125" style="fill: #262626; stroke: #262626"/>
      </g>
     </g>
     <g id="text_10">
      <!-- −0.15 -->
      <g style="fill: #262626" transform="translate(218.847042 277.323) scale(0.088 -0.088)">
       <use xlink:href="#ArialMT-2212"/>
       <use xlink:href="#ArialMT-30" x="58.398438"/>
       <use xlink:href="#ArialMT-2e" x="114.013672"/>
       <use xlink:href="#ArialMT-31" x="141.796875"/>
       <use xlink:href="#ArialMT-35" x="197.412109"/>
      </g>
     </g>
    </g>
   </g>
   <g id="matplotlib.axis_12"/>
   <g id="line2d_36">
    <path d="M 108.41255 262.723116 
L 108.576821 262.620966 
L 108.697286 262.202495 
L 108.850606 260.405504 
L 109.102488 255.161716 
L 109.354371 251.083461 
L 109.441982 250.554522 
L 109.485787 250.799819 
L 109.66101 253.556852 
L 110.022406 261.334838 
L 110.230483 262.377095 
L 110.471414 262.699116 
L 110.591879 262.723545 
L 110.591879 262.723545 
" clip-path="url(#p0126fbaa28)" style="fill: none; stroke: #1f77b4; stroke-width: 2; stroke-linecap: round"/>
   </g>
   <g id="patch_13">
    <path d="M 18.332688 262.724125 
L 229.97973 262.724125 
" style="fill: none; stroke: #262626; stroke-linejoin: miter; stroke-linecap: square"/>
   </g>
   <g id="text_11">
    <!-- N=2000 -->
    <g style="fill: #262626" transform="translate(124.678605 243.946071) scale(0.096 -0.096)">
     <use xlink:href="#ArialMT-4e"/>
     <use xlink:href="#ArialMT-3d" x="72.216797"/>
     <use xlink:href="#ArialMT-32" x="130.615234"/>
     <use xlink:href="#ArialMT-30" x="186.230469"/>
     <use xlink:href="#ArialMT-30" x="241.845703"/>
     <use xlink:href="#ArialMT-30" x="297.460938"/>
    </g>
   </g>
  </g>
  <g id="text_12">
   <!-- Epistemic uncertainty for injection_time_s (scaled) -->
   <g style="fill: #262626" transform="translate(12.733095 15.5862) scale(0.1152 -0.1152)">
    <defs>
     <path id="ArialMT-45" d="M 506 0 
L 506 4581 
L 3819 4581 
L 3819 4041 
L 1113 4041 
L 1113 2638 
L 3647 2638 
L 3647 2100 
L 1113 2100 
L 1113 541 
L 3925 541 
L 3925 0 
L 506 0 
z
" transform="scale(0.015625)"/>
     <path id="ArialMT-70" d="M 422 -1272 
L 422 3319 
L 934 3319 
L 934 2888 
Q 1116 3141 1344 3267 
Q 1572 3394 1897 3394 
Q 2322 3394 2647 3175 
Q 2972 2956 3137 2557 
Q 3303 2159 3303 1684 
Q 3303 1175 3120 767 
Q 2938 359 2589 142 
Q 2241 -75 1856 -75 
Q 1575 -75 1351 44 
Q 1128 163 984 344 
L 984 -1272 
L 422 -1272 
z
M 931 1641 
Q 931 1000 1190 694 
Q 1450 388 1819 388 
Q 2194 388 2461 705 
Q 2728 1022 2728 1688 
Q 2728 2322 2467 2637 
Q 2206 2953 1844 2953 
Q 1484 2953 1207 2617 
Q 931 2281 931 1641 
z
" transform="scale(0.015625)"/>
     <path id="ArialMT-69" d="M 425 3934 
L 425 4581 
L 988 4581 
L 988 3934 
L 425 3934 
z
M 425 0 
L 425 3319 
L 988 3319 
L 988 0 
L 425 0 
z
" transform="scale(0.015625)"/>
     <path id="ArialMT-73" d="M 197 991 
L 753 1078 
Q 800 744 1014 566 
Q 1228 388 1613 388 
Q 2000 388 2187 545 
Q 2375 703 2375 916 
Q 2375 1106 2209 1216 
Q 2094 1291 1634 1406 
Q 1016 1563 777 1677 
Q 538 1791 414 1992 
Q 291 2194 291 2438 
Q 291 2659 392 2848 
Q 494 3038 669 3163 
Q 800 3259 1026 3326 
Q 1253 3394 1513 3394 
Q 1903 3394 2198 3281 
Q 2494 3169 2634 2976 
Q 2775 2784 2828 2463 
L 2278 2388 
Q 2241 2644 2061 2787 
Q 1881 2931 1553 2931 
Q 1166 2931 1000 2803 
Q 834 2675 834 2503 
Q 834 2394 903 2306 
Q 972 2216 1119 2156 
Q 1203 2125 1616 2013 
Q 2213 1853 2448 1751 
Q 2684 1650 2818 1456 
Q 2953 1263 2953 975 
Q 2953 694 2789 445 
Q 2625 197 2315 61 
Q 2006 -75 1616 -75 
Q 969 -75 630 194 
Q 291 463 197 991 
z
" transform="scale(0.015625)"/>
     <path id="ArialMT-74" d="M 1650 503 
L 1731 6 
Q 1494 -44 1306 -44 
Q 1000 -44 831 53 
Q 663 150 594 308 
Q 525 466 525 972 
L 525 2881 
L 113 2881 
L 113 3319 
L 525 3319 
L 525 4141 
L 1084 4478 
L 1084 3319 
L 1650 3319 
L 1650 2881 
L 1084 2881 
L 1084 941 
Q 1084 700 1114 631 
Q 1144 563 1211 522 
Q 1278 481 1403 481 
Q 1497 481 1650 503 
z
" transform="scale(0.015625)"/>
     <path id="ArialMT-65" d="M 2694 1069 
L 3275 997 
Q 3138 488 2766 206 
Q 2394 -75 1816 -75 
Q 1088 -75 661 373 
Q 234 822 234 1631 
Q 234 2469 665 2931 
Q 1097 3394 1784 3394 
Q 2450 3394 2872 2941 
Q 3294 2488 3294 1666 
Q 3294 1616 3291 1516 
L 816 1516 
Q 847 969 1125 678 
Q 1403 388 1819 388 
Q 2128 388 2347 550 
Q 2566 713 2694 1069 
z
M 847 1978 
L 2700 1978 
Q 2663 2397 2488 2606 
Q 2219 2931 1791 2931 
Q 1403 2931 1139 2672 
Q 875 2413 847 1978 
z
" transform="scale(0.015625)"/>
     <path id="ArialMT-6d" d="M 422 0 
L 422 3319 
L 925 3319 
L 925 2853 
Q 1081 3097 1340 3245 
Q 1600 3394 1931 3394 
Q 2300 3394 2536 3241 
Q 2772 3088 2869 2813 
Q 3263 3394 3894 3394 
Q 4388 3394 4653 3120 
Q 4919 2847 4919 2278 
L 4919 0 
L 4359 0 
L 4359 2091 
Q 4359 2428 4304 2576 
Q 4250 2725 4106 2815 
Q 3963 2906 3769 2906 
Q 3419 2906 3187 2673 
Q 2956 2441 2956 1928 
L 2956 0 
L 2394 0 
L 2394 2156 
Q 2394 2531 2256 2718 
Q 2119 2906 1806 2906 
Q 1569 2906 1367 2781 
Q 1166 2656 1075 2415 
Q 984 2175 984 1722 
L 984 0 
L 422 0 
z
" transform="scale(0.015625)"/>
     <path id="ArialMT-63" d="M 2588 1216 
L 3141 1144 
Q 3050 572 2676 248 
Q 2303 -75 1759 -75 
Q 1078 -75 664 370 
Q 250 816 250 1647 
Q 250 2184 428 2587 
Q 606 2991 970 3192 
Q 1334 3394 1763 3394 
Q 2303 3394 2647 3120 
Q 2991 2847 3088 2344 
L 2541 2259 
Q 2463 2594 2264 2762 
Q 2066 2931 1784 2931 
Q 1359 2931 1093 2626 
Q 828 2322 828 1663 
Q 828 994 1084 691 
Q 1341 388 1753 388 
Q 2084 388 2306 591 
Q 2528 794 2588 1216 
z
" transform="scale(0.015625)"/>
     <path id="ArialMT-20" transform="scale(0.015625)"/>
     <path id="ArialMT-75" d="M 2597 0 
L 2597 488 
Q 2209 -75 1544 -75 
Q 1250 -75 995 37 
Q 741 150 617 320 
Q 494 491 444 738 
Q 409 903 409 1263 
L 409 3319 
L 972 3319 
L 972 1478 
Q 972 1038 1006 884 
Q 1059 663 1231 536 
Q 1403 409 1656 409 
Q 1909 409 2131 539 
Q 2353 669 2445 892 
Q 2538 1116 2538 1541 
L 2538 3319 
L 3100 3319 
L 3100 0 
L 2597 0 
z
" transform="scale(0.015625)"/>
     <path id="ArialMT-6e" d="M 422 0 
L 422 3319 
L 928 3319 
L 928 2847 
Q 1294 3394 1984 3394 
Q 2284 3394 2536 3286 
Q 2788 3178 2913 3003 
Q 3038 2828 3088 2588 
Q 3119 2431 3119 2041 
L 3119 0 
L 2556 0 
L 2556 2019 
Q 2556 2363 2490 2533 
Q 2425 2703 2258 2804 
Q 2091 2906 1866 2906 
Q 1506 2906 1245 2678 
Q 984 2450 984 1813 
L 984 0 
L 422 0 
z
" transform="scale(0.015625)"/>
     <path id="ArialMT-72" d="M 416 0 
L 416 3319 
L 922 3319 
L 922 2816 
Q 1116 3169 1280 3281 
Q 1444 3394 1641 3394 
Q 1925 3394 2219 3213 
L 2025 2691 
Q 1819 2813 1613 2813 
Q 1428 2813 1281 2702 
Q 1134 2591 1072 2394 
Q 978 2094 978 1738 
L 978 0 
L 416 0 
z
" transform="scale(0.015625)"/>
     <path id="ArialMT-61" d="M 2588 409 
Q 2275 144 1986 34 
Q 1697 -75 1366 -75 
Q 819 -75 525 192 
Q 231 459 231 875 
Q 231 1119 342 1320 
Q 453 1522 633 1644 
Q 813 1766 1038 1828 
Q 1203 1872 1538 1913 
Q 2219 1994 2541 2106 
Q 2544 2222 2544 2253 
Q 2544 2597 2384 2738 
Q 2169 2928 1744 2928 
Q 1347 2928 1158 2789 
Q 969 2650 878 2297 
L 328 2372 
Q 403 2725 575 2942 
Q 747 3159 1072 3276 
Q 1397 3394 1825 3394 
Q 2250 3394 2515 3294 
Q 2781 3194 2906 3042 
Q 3031 2891 3081 2659 
Q 3109 2516 3109 2141 
L 3109 1391 
Q 3109 606 3145 398 
Q 3181 191 3288 0 
L 2700 0 
Q 2613 175 2588 409 
z
M 2541 1666 
Q 2234 1541 1622 1453 
Q 1275 1403 1131 1340 
Q 988 1278 909 1158 
Q 831 1038 831 891 
Q 831 666 1001 516 
Q 1172 366 1500 366 
Q 1825 366 2078 508 
Q 2331 650 2450 897 
Q 2541 1088 2541 1459 
L 2541 1666 
z
" transform="scale(0.015625)"/>
     <path id="ArialMT-79" d="M 397 -1278 
L 334 -750 
Q 519 -800 656 -800 
Q 844 -800 956 -737 
Q 1069 -675 1141 -563 
Q 1194 -478 1313 -144 
Q 1328 -97 1363 -6 
L 103 3319 
L 709 3319 
L 1400 1397 
Q 1534 1031 1641 628 
Q 1738 1016 1872 1384 
L 2581 3319 
L 3144 3319 
L 1881 -56 
Q 1678 -603 1566 -809 
Q 1416 -1088 1222 -1217 
Q 1028 -1347 759 -1347 
Q 597 -1347 397 -1278 
z
" transform="scale(0.015625)"/>
     <path id="ArialMT-66" d="M 556 0 
L 556 2881 
L 59 2881 
L 59 3319 
L 556 3319 
L 556 3672 
Q 556 4006 616 4169 
Q 697 4388 901 4523 
Q 1106 4659 1475 4659 
Q 1713 4659 2000 4603 
L 1916 4113 
Q 1741 4144 1584 4144 
Q 1328 4144 1222 4034 
Q 1116 3925 1116 3625 
L 1116 3319 
L 1763 3319 
L 1763 2881 
L 1116 2881 
L 1116 0 
L 556 0 
z
" transform="scale(0.015625)"/>
     <path id="ArialMT-6f" d="M 213 1659 
Q 213 2581 725 3025 
Q 1153 3394 1769 3394 
Q 2453 3394 2887 2945 
Q 3322 2497 3322 1706 
Q 3322 1066 3130 698 
Q 2938 331 2570 128 
Q 2203 -75 1769 -75 
Q 1072 -75 642 372 
Q 213 819 213 1659 
z
M 791 1659 
Q 791 1022 1069 705 
Q 1347 388 1769 388 
Q 2188 388 2466 706 
Q 2744 1025 2744 1678 
Q 2744 2294 2464 2611 
Q 2184 2928 1769 2928 
Q 1347 2928 1069 2612 
Q 791 2297 791 1659 
z
" transform="scale(0.015625)"/>
     <path id="ArialMT-6a" d="M 419 3928 
L 419 4581 
L 981 4581 
L 981 3928 
L 419 3928 
z
M -294 -1288 
L -188 -809 
Q -19 -853 78 -853 
Q 250 -853 334 -739 
Q 419 -625 419 -169 
L 419 3319 
L 981 3319 
L 981 -181 
Q 981 -794 822 -1034 
Q 619 -1347 147 -1347 
Q -81 -1347 -294 -1288 
z
" transform="scale(0.015625)"/>
     <path id="ArialMT-5f" d="M -97 -1272 
L -97 -866 
L 3631 -866 
L 3631 -1272 
L -97 -1272 
z
" transform="scale(0.015625)"/>
     <path id="ArialMT-28" d="M 1497 -1347 
Q 1031 -759 709 28 
Q 388 816 388 1659 
Q 388 2403 628 3084 
Q 909 3875 1497 4659 
L 1900 4659 
Q 1522 4009 1400 3731 
Q 1209 3300 1100 2831 
Q 966 2247 966 1656 
Q 966 153 1900 -1347 
L 1497 -1347 
z
" transform="scale(0.015625)"/>
     <path id="ArialMT-6c" d="M 409 0 
L 409 4581 
L 972 4581 
L 972 0 
L 409 0 
z
" transform="scale(0.015625)"/>
     <path id="ArialMT-64" d="M 2575 0 
L 2575 419 
Q 2259 -75 1647 -75 
Q 1250 -75 917 144 
Q 584 363 401 755 
Q 219 1147 219 1656 
Q 219 2153 384 2558 
Q 550 2963 881 3178 
Q 1213 3394 1622 3394 
Q 1922 3394 2156 3267 
Q 2391 3141 2538 2938 
L 2538 4581 
L 3097 4581 
L 3097 0 
L 2575 0 
z
M 797 1656 
Q 797 1019 1065 703 
Q 1334 388 1700 388 
Q 2069 388 2326 689 
Q 2584 991 2584 1609 
Q 2584 2291 2321 2609 
Q 2059 2928 1675 2928 
Q 1300 2928 1048 2622 
Q 797 2316 797 1656 
z
" transform="scale(0.015625)"/>
     <path id="ArialMT-29" d="M 791 -1347 
L 388 -1347 
Q 1322 153 1322 1656 
Q 1322 2244 1188 2822 
Q 1081 3291 891 3722 
Q 769 4003 388 4659 
L 791 4659 
Q 1378 3875 1659 3084 
Q 1900 2403 1900 1659 
Q 1900 816 1576 28 
Q 1253 -759 791 -1347 
z
" transform="scale(0.015625)"/>
    </defs>
    <use xlink:href="#ArialMT-45"/>
    <use xlink:href="#ArialMT-70" x="66.699219"/>
    <use xlink:href="#ArialMT-69" x="122.314453"/>
    <use xlink:href="#ArialMT-73" x="144.53125"/>
    <use xlink:href="#ArialMT-74" x="194.53125"/>
    <use xlink:href="#ArialMT-65" x="222.314453"/>
    <use xlink:href="#ArialMT-6d" x="277.929688"/>
    <use xlink:href="#ArialMT-69" x="361.230469"/>
    <use xlink:href="#ArialMT-63" x="383.447266"/>
    <use xlink:href="#ArialMT-20" x="433.447266"/>
    <use xlink:href="#ArialMT-75" x="461.230469"/>
    <use xlink:href="#ArialMT-6e" x="516.845703"/>
    <use xlink:href="#ArialMT-63" x="572.460938"/>
    <use xlink:href="#ArialMT-65" x="622.460938"/>
    <use xlink:href="#ArialMT-72" x="678.076172"/>
    <use xlink:href="#ArialMT-74" x="711.376953"/>
    <use xlink:href="#ArialMT-61" x="739.160156"/>
    <use xlink:href="#ArialMT-69" x="794.775391"/>
    <use xlink:href="#ArialMT-6e" x="816.992188"/>
    <use xlink:href="#ArialMT-74" x="872.607422"/>
    <use xlink:href="#ArialMT-79" x="900.390625"/>
    <use xlink:href="#ArialMT-20" x="950.390625"/>
    <use xlink:href="#ArialMT-66" x="978.173828"/>
    <use xlink:href="#ArialMT-6f" x="1005.957031"/>
    <use xlink:href="#ArialMT-72" x="1061.572266"/>
    <use xlink:href="#ArialMT-20" x="1094.873047"/>
    <use xlink:href="#ArialMT-69" x="1122.65625"/>
    <use xlink:href="#ArialMT-6e" x="1144.873047"/>
    <use xlink:href="#ArialMT-6a" x="1200.488281"/>
    <use xlink:href="#ArialMT-65" x="1222.705078"/>
    <use xlink:href="#ArialMT-63" x="1278.320312"/>
    <use xlink:href="#ArialMT-74" x="1328.320312"/>
    <use xlink:href="#ArialMT-69" x="1356.103516"/>
    <use xlink:href="#ArialMT-6f" x="1378.320312"/>
    <use xlink:href="#ArialMT-6e" x="1433.935547"/>
    <use xlink:href="#ArialMT-5f" x="1489.550781"/>
    <use xlink:href="#ArialMT-74" x="1545.166016"/>
    <use xlink:href="#ArialMT-69" x="1572.949219"/>
    <use xlink:href="#ArialMT-6d" x="1595.166016"/>
    <use xlink:href="#ArialMT-65" x="1678.466797"/>
    <use xlink:href="#ArialMT-5f" x="1734.082031"/>
    <use xlink:href="#ArialMT-73" x="1789.697266"/>
    <use xlink:href="#ArialMT-20" x="1839.697266"/>
    <use xlink:href="#ArialMT-28" x="1867.480469"/>
    <use xlink:href="#ArialMT-73" x="1900.78125"/>
    <use xlink:href="#ArialMT-63" x="1950.78125"/>
    <use xlink:href="#ArialMT-61" x="2000.78125"/>
    <use xlink:href="#ArialMT-6c" x="2056.396484"/>
    <use xlink:href="#ArialMT-65" x="2078.613281"/>
    <use xlink:href="#ArialMT-64" x="2134.228516"/>
    <use xlink:href="#ArialMT-29" x="2189.84375"/>
   </g>
  </g>
 </g>
 <defs>
  <clipPath id="pcd89d097b1">
   <rect x="8.840415" y="45.8583" width="265.57038" height="12.778054"/>
  </clipPath>
  <clipPath id="p9103aca09d">
   <rect x="8.840415" y="86.675854" width="265.57038" height="12.778054"/>
  </clipPath>
  <clipPath id="p5b5be754cc">
   <rect x="8.840415" y="127.493408" width="265.57038" height="12.778054"/>
  </clipPath>
  <clipPath id="p54b9ed9d33">
   <rect x="8.840415" y="168.310962" width="265.57038" height="12.778054"/>
  </clipPath>
  <clipPath id="pedc5f70471">
   <rect x="8.840415" y="209.128517" width="265.57038" height="12.778054"/>
  </clipPath>
  <clipPath id="p0126fbaa28">
   <rect x="8.840415" y="249.946071" width="265.57038" height="12.778054"/>
  </clipPath>
 </defs>
</svg>