<?xml version="1.0" encoding="utf-8" standalone="no"?>
<!DOCTYPE svg PUBLIC "-//W3C//DTD SVG 1.1//EN"
  "http://www.w3.org/Graphics/SVG/1.1/DTD/svg11.dtd">
<svg xmlns:xlink="http://www.w3.org/1999/xlink" width="207.773125pt" height="167.278875pt" viewBox="0 0 207.773125 167.278875" xmlns="http://www.w3.org/2000/svg" version="1.1">
 <metadata>
  <rdf:RDF xmlns:dc="http://purl.org/dc/elements/1.1/" xmlns:cc="http://creativecommons.org/ns#" xmlns:rdf="http://www.w3.org/1999/02/22-rdf-syntax-ns#">
   <cc:Work>
    <dc:type rdf:resource="http://purl.org/dc/dcmitype/StillImage"/>
    <dc:date>2024-10-17T14:55:41.535730</dc:date>
    <dc:format>image/svg+xml</dc:format>
    <dc:creator>
     <cc:Agent>
      <dc:title>Matplotlib v3.9.2, https://matplotlib.org/</dc:title>
     </cc:Agent>
    </dc:creator>
   </cc:Work>
  </rdf:RDF>
 </metadata>
 <defs>
  <style type="text/css">*{stroke-linejoin: round; stroke-linecap: butt}</style>
 </defs>
 <g id="figure_1">
  <g id="patch_1">
   <path d="M 0 167.278875 
L 207.773125 167.278875 
L 207.773125 0 
L 0 0 
z
" style="fill: #ffffff"/>
  </g>
  <g id="axes_1">
   <g id="patch_2">
    <path d="M 33.173125 130.9515 
L 200.573125 130.9515 
L 200.573125 20.0715 
L 33.173125 20.0715 
z
" style="fill: #ffffff"/>
   </g>
   <g id="matplotlib.axis_1">
    <g id="xtick_1">
     <g id="line2d_1">
      <defs>
       <path id="m9fd6ef360d" d="M 0 0 
L 0 4.8 
" style="stroke: #262626"/>
      </defs>
      <g>
       <use xlink:href="#m9fd6ef360d" x="40.782216" y="130.9515" style="fill: #262626; stroke: #262626"/>
      </g>
     </g>
     <g id="text_1">
      <!-- 0.0 -->
      <g style="fill: #262626" transform="translate(34.666216 145.550375) scale(0.088 -0.088)">
       <defs>
        <path id="ArialMT-30" d="M 266 2259 
Q 266 3072 433 3567 
Q 600 4063 929 4331 
Q 1259 4600 1759 4600 
Q 2128 4600 2406 4451 
Q 2684 4303 2865 4023 
Q 3047 3744 3150 3342 
Q 3253 2941 3253 2259 
Q 3253 1453 3087 958 
Q 2922 463 2592 192 
Q 2263 -78 1759 -78 
Q 1097 -78 719 397 
Q 266 969 266 2259 
z
M 844 2259 
Q 844 1131 1108 757 
Q 1372 384 1759 384 
Q 2147 384 2411 759 
Q 2675 1134 2675 2259 
Q 2675 3391 2411 3762 
Q 2147 4134 1753 4134 
Q 1366 4134 1134 3806 
Q 844 3388 844 2259 
z
" transform="scale(0.015625)"/>
        <path id="ArialMT-2e" d="M 581 0 
L 581 641 
L 1222 641 
L 1222 0 
L 581 0 
z
" transform="scale(0.015625)"/>
       </defs>
       <use xlink:href="#ArialMT-30"/>
       <use xlink:href="#ArialMT-2e" x="55.615234"/>
       <use xlink:href="#ArialMT-30" x="83.398438"/>
      </g>
     </g>
    </g>
    <g id="xtick_2">
     <g id="line2d_2">
      <g>
       <use xlink:href="#m9fd6ef360d" x="71.21858" y="130.9515" style="fill: #262626; stroke: #262626"/>
      </g>
     </g>
     <g id="text_2">
      <!-- 0.2 -->
      <g style="fill: #262626" transform="translate(65.10258 145.550375) scale(0.088 -0.088)">
       <defs>
        <path id="ArialMT-32" d="M 3222 541 
L 3222 0 
L 194 0 
Q 188 203 259 391 
Q 375 700 629 1000 
Q 884 1300 1366 1694 
Q 2113 2306 2375 2664 
Q 2638 3022 2638 3341 
Q 2638 3675 2398 3904 
Q 2159 4134 1775 4134 
Q 1369 4134 1125 3890 
Q 881 3647 878 3216 
L 300 3275 
Q 359 3922 746 4261 
Q 1134 4600 1788 4600 
Q 2447 4600 2831 4234 
Q 3216 3869 3216 3328 
Q 3216 3053 3103 2787 
Q 2991 2522 2730 2228 
Q 2469 1934 1863 1422 
Q 1356 997 1212 845 
Q 1069 694 975 541 
L 3222 541 
z
" transform="scale(0.015625)"/>
       </defs>
       <use xlink:href="#ArialMT-30"/>
       <use xlink:href="#ArialMT-2e" x="55.615234"/>
       <use xlink:href="#ArialMT-32" x="83.398438"/>
      </g>
     </g>
    </g>
    <g id="xtick_3">
     <g id="line2d_3">
      <g>
       <use xlink:href="#m9fd6ef360d" x="101.654943" y="130.9515" style="fill: #262626; stroke: #262626"/>
      </g>
     </g>
     <g id="text_3">
      <!-- 0.4 -->
      <g style="fill: #262626" transform="translate(95.538943 145.550375) scale(0.088 -0.088)">
       <defs>
        <path id="ArialMT-34" d="M 2069 0 
L 2069 1097 
L 81 1097 
L 81 1613 
L 2172 4581 
L 2631 4581 
L 2631 1613 
L 3250 1613 
L 3250 1097 
L 2631 1097 
L 2631 0 
L 2069 0 
z
M 2069 1613 
L 2069 3678 
L 634 1613 
L 2069 1613 
z
" transform="scale(0.015625)"/>
       </defs>
       <use xlink:href="#ArialMT-30"/>
       <use xlink:href="#ArialMT-2e" x="55.615234"/>
       <use xlink:href="#ArialMT-34" x="83.398438"/>
      </g>
     </g>
    </g>
    <g id="xtick_4">
     <g id="line2d_4">
      <g>
       <use xlink:href="#m9fd6ef360d" x="132.091307" y="130.9515" style="fill: #262626; stroke: #262626"/>
      </g>
     </g>
     <g id="text_4">
      <!-- 0.6 -->
      <g style="fill: #262626" transform="translate(125.975307 145.550375) scale(0.088 -0.088)">
       <defs>
        <path id="ArialMT-36" d="M 3184 3459 
L 2625 3416 
Q 2550 3747 2413 3897 
Q 2184 4138 1850 4138 
Q 1581 4138 1378 3988 
Q 1113 3794 959 3422 
Q 806 3050 800 2363 
Q 1003 2672 1297 2822 
Q 1591 2972 1913 2972 
Q 2475 2972 2870 2558 
Q 3266 2144 3266 1488 
Q 3266 1056 3080 686 
Q 2894 316 2569 119 
Q 2244 -78 1831 -78 
Q 1128 -78 684 439 
Q 241 956 241 2144 
Q 241 3472 731 4075 
Q 1159 4600 1884 4600 
Q 2425 4600 2770 4297 
Q 3116 3994 3184 3459 
z
M 888 1484 
Q 888 1194 1011 928 
Q 1134 663 1356 523 
Q 1578 384 1822 384 
Q 2178 384 2434 671 
Q 2691 959 2691 1453 
Q 2691 1928 2437 2201 
Q 2184 2475 1800 2475 
Q 1419 2475 1153 2201 
Q 888 1928 888 1484 
z
" transform="scale(0.015625)"/>
       </defs>
       <use xlink:href="#ArialMT-30"/>
       <use xlink:href="#ArialMT-2e" x="55.615234"/>
       <use xlink:href="#ArialMT-36" x="83.398438"/>
      </g>
     </g>
    </g>
    <g id="xtick_5">
     <g id="line2d_5">
      <g>
       <use xlink:href="#m9fd6ef360d" x="162.52767" y="130.9515" style="fill: #262626; stroke: #262626"/>
      </g>
     </g>
     <g id="text_5">
      <!-- 0.8 -->
      <g style="fill: #262626" transform="translate(156.41167 145.550375) scale(0.088 -0.088)">
       <defs>
        <path id="ArialMT-38" d="M 1131 2484 
Q 781 2613 612 2850 
Q 444 3088 444 3419 
Q 444 3919 803 4259 
Q 1163 4600 1759 4600 
Q 2359 4600 2725 4251 
Q 3091 3903 3091 3403 
Q 3091 3084 2923 2848 
Q 2756 2613 2416 2484 
Q 2838 2347 3058 2040 
Q 3278 1734 3278 1309 
Q 3278 722 2862 322 
Q 2447 -78 1769 -78 
Q 1091 -78 675 323 
Q 259 725 259 1325 
Q 259 1772 486 2073 
Q 713 2375 1131 2484 
z
M 1019 3438 
Q 1019 3113 1228 2906 
Q 1438 2700 1772 2700 
Q 2097 2700 2305 2904 
Q 2513 3109 2513 3406 
Q 2513 3716 2298 3927 
Q 2084 4138 1766 4138 
Q 1444 4138 1231 3931 
Q 1019 3725 1019 3438 
z
M 838 1322 
Q 838 1081 952 856 
Q 1066 631 1291 507 
Q 1516 384 1775 384 
Q 2178 384 2440 643 
Q 2703 903 2703 1303 
Q 2703 1709 2433 1975 
Q 2163 2241 1756 2241 
Q 1359 2241 1098 1978 
Q 838 1716 838 1322 
z
" transform="scale(0.015625)"/>
       </defs>
       <use xlink:href="#ArialMT-30"/>
       <use xlink:href="#ArialMT-2e" x="55.615234"/>
       <use xlink:href="#ArialMT-38" x="83.398438"/>
      </g>
     </g>
    </g>
    <g id="xtick_6">
     <g id="line2d_6">
      <g>
       <use xlink:href="#m9fd6ef360d" x="192.964034" y="130.9515" style="fill: #262626; stroke: #262626"/>
      </g>
     </g>
     <g id="text_6">
      <!-- 1.0 -->
      <g style="fill: #262626" transform="translate(186.848034 145.550375) scale(0.088 -0.088)">
       <defs>
        <path id="ArialMT-31" d="M 2384 0 
L 1822 0 
L 1822 3584 
Q 1619 3391 1289 3197 
Q 959 3003 697 2906 
L 697 3450 
Q 1169 3672 1522 3987 
Q 1875 4303 2022 4600 
L 2384 4600 
L 2384 0 
z
" transform="scale(0.015625)"/>
       </defs>
       <use xlink:href="#ArialMT-31"/>
       <use xlink:href="#ArialMT-2e" x="55.615234"/>
       <use xlink:href="#ArialMT-30" x="83.398438"/>
      </g>
     </g>
    </g>
    <g id="text_7">
     <!-- $x$ -->
     <g style="fill: #262626" transform="translate(113.993125 158.170875) scale(0.096 -0.096)">
      <defs>
       <path id="DejaVuSans-Oblique-78" d="M 3841 3500 
L 2234 1784 
L 3219 0 
L 2559 0 
L 1819 1388 
L 531 0 
L -166 0 
L 1556 1844 
L 641 3500 
L 1300 3500 
L 1972 2234 
L 3144 3500 
L 3841 3500 
z
" transform="scale(0.015625)"/>
      </defs>
      <use xlink:href="#DejaVuSans-Oblique-78" transform="translate(0 0.3125)"/>
     </g>
    </g>
   </g>
   <g id="matplotlib.axis_2">
    <g id="ytick_1">
     <g id="line2d_7">
      <defs>
       <path id="m1d6fb8f1b3" d="M 0 0 
L -4.8 0 
" style="stroke: #262626"/>
      </defs>
      <g>
       <use xlink:href="#m1d6fb8f1b3" x="33.173125" y="111.620783" style="fill: #262626; stroke: #262626"/>
      </g>
     </g>
     <g id="text_8">
      <!-- 0 -->
      <g style="fill: #262626" transform="translate(19.9795 114.770221) scale(0.088 -0.088)">
       <use xlink:href="#ArialMT-30"/>
      </g>
     </g>
    </g>
    <g id="ytick_2">
     <g id="line2d_8">
      <g>
       <use xlink:href="#m1d6fb8f1b3" x="33.173125" y="80.346318" style="fill: #262626; stroke: #262626"/>
      </g>
     </g>
     <g id="text_9">
      <!-- 1 -->
      <g style="fill: #262626" transform="translate(19.9795 83.495755) scale(0.088 -0.088)">
       <use xlink:href="#ArialMT-31"/>
      </g>
     </g>
    </g>
    <g id="ytick_3">
     <g id="line2d_9">
      <g>
       <use xlink:href="#m1d6fb8f1b3" x="33.173125" y="49.071852" style="fill: #262626; stroke: #262626"/>
      </g>
     </g>
     <g id="text_10">
      <!-- 2 -->
      <g style="fill: #262626" transform="translate(19.9795 52.22129) scale(0.088 -0.088)">
       <use xlink:href="#ArialMT-32"/>
      </g>
     </g>
    </g>
    <g id="text_11">
     <!-- $y$ -->
     <g style="fill: #262626" transform="translate(13.9635 78.3915) rotate(-90) scale(0.096 -0.096)">
      <defs>
       <path id="DejaVuSans-Oblique-79" d="M 1588 -325 
Q 1188 -997 936 -1164 
Q 684 -1331 294 -1331 
L -159 -1331 
L -63 -850 
L 269 -850 
Q 509 -850 678 -719 
Q 847 -588 1056 -206 
L 1234 128 
L 459 3500 
L 1069 3500 
L 1650 819 
L 3256 3500 
L 3859 3500 
L 1588 -325 
z
" transform="scale(0.015625)"/>
      </defs>
      <use xlink:href="#DejaVuSans-Oblique-79" transform="translate(0 0.3125)"/>
     </g>
    </g>
   </g>
   <g id="PolyCollection_1">
    <defs>
     <path id="m689541d5c3" d="M 40.782216 -142.167375 
L 40.782216 -101.040002 
L 42.319406 -101.470803 
L 43.856596 -101.854194 
L 45.393786 -102.188172 
L 46.930976 -102.470787 
L 48.468166 -102.700144 
L 50.005356 -102.874404 
L 51.542546 -102.991793 
L 53.079737 -103.050593 
L 54.616927 -103.049151 
L 56.154117 -102.985865 
L 57.691307 -102.859189 
L 59.228497 -102.667617 
L 60.765687 -102.409671 
L 62.302877 -102.083888 
L 63.840067 -101.688795 
L 65.377257 -101.222885 
L 66.914447 -100.684582 
L 68.451637 -100.072216 
L 69.988827 -99.383981 
L 71.526018 -98.617919 
L 73.063208 -97.771917 
L 74.600398 -96.843751 
L 76.137588 -95.831201 
L 77.674778 -94.732279 
L 79.211968 -93.545586 
L 80.749158 -92.2708 
L 82.286348 -90.909238 
L 83.823538 -89.464341 
L 85.360728 -87.941931 
L 86.897918 -86.350097 
L 88.435108 -84.698721 
L 89.972299 -82.998774 
L 91.509489 -81.261584 
L 93.046679 -79.498228 
L 94.583869 -77.71913 
L 96.121059 -75.933853 
L 97.658249 -74.151038 
L 99.195439 -72.37843 
L 100.732629 -70.622957 
L 102.269819 -68.890817 
L 103.807009 -67.187568 
L 105.344199 -65.518202 
L 106.881389 -63.887213 
L 108.41858 -62.298643 
L 109.95577 -60.756123 
L 111.49296 -59.262903 
L 113.03015 -57.821866 
L 114.56734 -56.435546 
L 116.10453 -55.106136 
L 117.64172 -53.835489 
L 119.17891 -52.625124 
L 120.7161 -51.47623 
L 122.25329 -50.389668 
L 123.79048 -49.365978 
L 125.32767 -48.405397 
L 126.864861 -47.50788 
L 128.402051 -46.673133 
L 129.939241 -45.900664 
L 131.476431 -45.189845 
L 133.013621 -44.539991 
L 134.550811 -43.950451 
L 136.088001 -43.420702 
L 137.625191 -42.950444 
L 139.162381 -42.539677 
L 140.699571 -42.188748 
L 142.236761 -41.89837 
L 143.773951 -41.669602 
L 145.311142 -41.503791 
L 146.848332 -41.402492 
L 148.385522 -41.367375 
L 149.922712 -41.400126 
L 151.459902 -41.502353 
L 152.997092 -41.67551 
L 154.534282 -41.920829 
L 156.071472 -42.239272 
L 157.608662 -42.631496 
L 159.145852 -43.097828 
L 160.683042 -43.638252 
L 162.220232 -44.252394 
L 163.757423 -44.939522 
L 165.294613 -45.698538 
L 166.831803 -46.527976 
L 168.368993 -47.425991 
L 169.906183 -48.390357 
L 171.443373 -49.418442 
L 172.980563 -50.507196 
L 174.517753 -51.653116 
L 176.054943 -52.852207 
L 177.592133 -54.099931 
L 179.129323 -55.391138 
L 180.666513 -56.719993 
L 182.203704 -58.07988 
L 183.740894 -59.46332 
L 185.278084 -60.861891 
L 186.815274 -62.266208 
L 188.352464 -63.665991 
L 189.889654 -65.050286 
L 191.426844 -66.407886 
L 192.964034 -67.727945 
L 192.964034 -76.542454 
L 192.964034 -76.542454 
L 191.426844 -75.159809 
L 189.889654 -73.823866 
L 188.352464 -72.530027 
L 186.815274 -71.273415 
L 185.278084 -70.049474 
L 183.740894 -68.854365 
L 182.203704 -67.685171 
L 180.666513 -66.539945 
L 179.129323 -65.417665 
L 177.592133 -64.318139 
L 176.054943 -63.241893 
L 174.517753 -62.190064 
L 172.980563 -61.164298 
L 171.443373 -60.166661 
L 169.906183 -59.199569 
L 168.368993 -58.265725 
L 166.831803 -57.368068 
L 165.294613 -56.509733 
L 163.757423 -55.694015 
L 162.220232 -54.924341 
L 160.683042 -54.204246 
L 159.145852 -53.537346 
L 157.608662 -52.927324 
L 156.071472 -52.377902 
L 154.534282 -51.892822 
L 152.997092 -51.475812 
L 151.459902 -51.13055 
L 149.922712 -50.860623 
L 148.385522 -50.669459 
L 146.848332 -50.560259 
L 145.311142 -50.535909 
L 143.773951 -50.598881 
L 142.236761 -50.751133 
L 140.699571 -50.994008 
L 139.162381 -51.328151 
L 137.625191 -51.753458 
L 136.088001 -52.269054 
L 134.550811 -52.873312 
L 133.013621 -53.563907 
L 131.476431 -54.337902 
L 129.939241 -55.191844 
L 128.402051 -56.121871 
L 126.864861 -57.123813 
L 125.32767 -58.19328 
L 123.79048 -59.32574 
L 122.25329 -60.51658 
L 120.7161 -61.761158 
L 119.17891 -63.054841 
L 117.64172 -64.393035 
L 116.10453 -65.771213 
L 114.56734 -67.184939 
L 113.03015 -68.62989 
L 111.49296 -70.101878 
L 109.95577 -71.596881 
L 108.41858 -73.111066 
L 106.881389 -74.640831 
L 105.344199 -76.182842 
L 103.807009 -77.734088 
L 102.269819 -79.29194 
L 100.732629 -80.854223 
L 99.195439 -82.419308 
L 97.658249 -83.986204 
L 96.121059 -85.554677 
L 94.583869 -87.125355 
L 93.046679 -88.699828 
L 91.509489 -90.280697 
L 89.972299 -91.871537 
L 88.435108 -93.4767 
L 86.897918 -95.100942 
L 85.360728 -96.748826 
L 83.823538 -98.424013 
L 82.286348 -100.12857 
L 80.749158 -101.862515 
L 79.211968 -103.623717 
L 77.674778 -105.408164 
L 76.137588 -107.210464 
L 74.600398 -109.024416 
L 73.063208 -110.843506 
L 71.526018 -112.66128 
L 69.988827 -114.471572 
L 68.451637 -116.268627 
L 66.914447 -118.047154 
L 65.377257 -119.802326 
L 63.840067 -121.52976 
L 62.302877 -123.225487 
L 60.765687 -124.88592 
L 59.228497 -126.507822 
L 57.691307 -128.088275 
L 56.154117 -129.62466 
L 54.616927 -131.114635 
L 53.079737 -132.556116 
L 51.542546 -133.947262 
L 50.005356 -135.286464 
L 48.468166 -136.572333 
L 46.930976 -137.803693 
L 45.393786 -138.979565 
L 43.856596 -140.09917 
L 42.319406 -141.161912 
L 40.782216 -142.167375 
z
" style="stroke: #ffffff; stroke-opacity: 0.2; stroke-width: 0.8"/>
    </defs>
    <g clip-path="url(#p2c7d35620b)">
     <use xlink:href="#m689541d5c3" x="0" y="167.278875" style="fill: #1f77b4; fill-opacity: 0.2; stroke: #ffffff; stroke-opacity: 0.2; stroke-width: 0.8"/>
    </g>
   </g>
   <g id="PathCollection_1">
    <defs>
     <path id="m263445e177" d="M 0 2.4 
C 0.636487 2.4 1.246992 2.147121 1.697056 1.697056 
C 2.147121 1.246992 2.4 0.636487 2.4 0 
C 2.4 -0.636487 2.147121 -1.246992 1.697056 -1.697056 
C 1.246992 -2.147121 0.636487 -2.4 0 -2.4 
C -0.636487 -2.4 -1.246992 -2.147121 -1.697056 -1.697056 
C -2.147121 -1.246992 -2.4 -0.636487 -2.4 0 
C -2.4 0.636487 -2.147121 1.246992 -1.697056 1.697056 
C -1.246992 2.147121 -0.636487 2.4 0 2.4 
z
" style="stroke: #ff7f0e; stroke-width: 0.8"/>
    </defs>
    <g clip-path="url(#p2c7d35620b)">
     <use xlink:href="#m263445e177" x="85.253627" y="74.250315" style="fill: #ff7f0e; stroke: #ff7f0e; stroke-width: 0.8"/>
     <use xlink:href="#m263445e177" x="192.960605" y="94.732729" style="fill: #ff7f0e; stroke: #ff7f0e; stroke-width: 0.8"/>
     <use xlink:href="#m263445e177" x="139.107114" y="121.2672" style="fill: #ff7f0e; stroke: #ff7f0e; stroke-width: 0.8"/>
    </g>
   </g>
   <g id="line2d_10">
    <path d="M 40.782216 45.675186 
L 42.319406 45.962517 
L 43.856596 46.302193 
L 45.393786 46.695006 
L 46.930976 47.141635 
L 48.468166 47.642636 
L 50.005356 48.198441 
L 51.542546 48.809348 
L 53.079737 49.47552 
L 54.616927 50.196982 
L 56.154117 50.973612 
L 57.691307 51.805143 
L 59.228497 52.691156 
L 60.765687 53.631079 
L 62.302877 54.624187 
L 63.840067 55.669597 
L 65.377257 56.76627 
L 66.914447 57.913007 
L 68.451637 59.108454 
L 69.988827 60.351099 
L 71.526018 61.639275 
L 73.063208 62.971163 
L 74.600398 64.344792 
L 76.137588 65.758042 
L 77.674778 67.208653 
L 79.211968 68.694223 
L 80.749158 70.212217 
L 82.286348 71.759971 
L 83.823538 73.334698 
L 85.360728 74.933496 
L 86.897918 76.553356 
L 88.435108 78.191164 
L 89.972299 79.84372 
L 91.509489 81.507734 
L 93.046679 83.179847 
L 94.583869 84.856633 
L 96.121059 86.53461 
L 97.658249 88.210254 
L 99.195439 89.880006 
L 100.732629 91.540285 
L 102.269819 93.187497 
L 103.807009 94.818047 
L 105.344199 96.428353 
L 106.881389 98.014853 
L 108.41858 99.574021 
L 109.95577 101.102373 
L 111.49296 102.596484 
L 113.03015 104.052997 
L 114.56734 105.468632 
L 116.10453 106.840201 
L 117.64172 108.164613 
L 119.17891 109.438892 
L 120.7161 110.660181 
L 122.25329 111.825751 
L 123.79048 112.933016 
L 125.32767 113.979536 
L 126.864861 114.963028 
L 128.402051 115.881373 
L 129.939241 116.732621 
L 131.476431 117.515001 
L 133.013621 118.226926 
L 134.550811 118.866994 
L 136.088001 119.433997 
L 137.625191 119.926924 
L 139.162381 120.344961 
L 140.699571 120.687497 
L 142.236761 120.954123 
L 143.773951 121.144633 
L 145.311142 121.259025 
L 146.848332 121.2975 
L 148.385522 121.260458 
L 149.922712 121.148501 
L 151.459902 120.962423 
L 152.997092 120.703214 
L 154.534282 120.37205 
L 156.071472 119.970288 
L 157.608662 119.499465 
L 159.145852 118.961288 
L 160.683042 118.357626 
L 162.220232 117.690507 
L 163.757423 116.962106 
L 165.294613 116.174739 
L 166.831803 115.330853 
L 168.368993 114.433017 
L 169.906183 113.483912 
L 171.443373 112.486324 
L 172.980563 111.443128 
L 174.517753 110.357285 
L 176.054943 109.231825 
L 177.592133 108.06984 
L 179.129323 106.874473 
L 180.666513 105.648906 
L 182.203704 104.396349 
L 183.740894 103.120033 
L 185.278084 101.823193 
L 186.815274 100.509063 
L 188.352464 99.180866 
L 189.889654 97.841799 
L 191.426844 96.495028 
L 192.964034 95.143676 
" clip-path="url(#p2c7d35620b)" style="fill: none; stroke: #1f77b4; stroke-width: 1.2; stroke-linecap: round"/>
   </g>
   <g id="line2d_11">
    <path d="M 40.78222 130.9515 
L 40.78222 20.0715 
" clip-path="url(#p2c7d35620b)" style="fill: none; stroke-dasharray: 4.44,1.92; stroke-dashoffset: 0; stroke: #ff0000; stroke-width: 1.2"/>
   </g>
   <g id="patch_3">
    <path d="M 33.173125 111.620783 
L 33.173125 49.071852 
" style="fill: none; stroke: #262626; stroke-linejoin: miter; stroke-linecap: square"/>
   </g>
   <g id="patch_4">
    <path d="M 40.782216 130.9515 
L 192.964034 130.9515 
" style="fill: none; stroke: #262626; stroke-linejoin: miter; stroke-linecap: square"/>
   </g>
   <g id="text_12">
    <!-- $N=3$ -->
    <g style="fill: #262626" transform="translate(104.297125 14.0715) scale(0.096 -0.096)">
     <defs>
      <path id="DejaVuSans-Oblique-4e" d="M 1081 4666 
L 1931 4666 
L 3219 666 
L 4000 4666 
L 4616 4666 
L 3706 0 
L 2853 0 
L 1569 4025 
L 788 0 
L 172 0 
L 1081 4666 
z
" transform="scale(0.015625)"/>
      <path id="DejaVuSans-3d" d="M 678 2906 
L 4684 2906 
L 4684 2381 
L 678 2381 
L 678 2906 
z
M 678 1631 
L 4684 1631 
L 4684 1100 
L 678 1100 
L 678 1631 
z
" transform="scale(0.015625)"/>
      <path id="DejaVuSans-33" d="M 2597 2516 
Q 3050 2419 3304 2112 
Q 3559 1806 3559 1356 
Q 3559 666 3084 287 
Q 2609 -91 1734 -91 
Q 1441 -91 1130 -33 
Q 819 25 488 141 
L 488 750 
Q 750 597 1062 519 
Q 1375 441 1716 441 
Q 2309 441 2620 675 
Q 2931 909 2931 1356 
Q 2931 1769 2642 2001 
Q 2353 2234 1838 2234 
L 1294 2234 
L 1294 2753 
L 1863 2753 
Q 2328 2753 2575 2939 
Q 2822 3125 2822 3475 
Q 2822 3834 2567 4026 
Q 2313 4219 1838 4219 
Q 1578 4219 1281 4162 
Q 984 4106 628 3988 
L 628 4550 
Q 988 4650 1302 4700 
Q 1616 4750 1894 4750 
Q 2613 4750 3031 4423 
Q 3450 4097 3450 3541 
Q 3450 3153 3228 2886 
Q 3006 2619 2597 2516 
z
" transform="scale(0.015625)"/>
     </defs>
     <use xlink:href="#DejaVuSans-Oblique-4e" transform="translate(0 0.78125)"/>
     <use xlink:href="#DejaVuSans-3d" transform="translate(94.287109 0.78125)"/>
     <use xlink:href="#DejaVuSans-33" transform="translate(197.558594 0.78125)"/>
    </g>
   </g>
  </g>
 </g>
 <defs>
  <clipPath id="p2c7d35620b">
   <rect x="33.173125" y="20.0715" width="167.4" height="110.88"/>
  </clipPath>
 </defs>
</svg>