<?xml version="1.0" encoding="utf-8" standalone="no"?>
<!DOCTYPE svg PUBLIC "-//W3C//DTD SVG 1.1//EN"
  "http://www.w3.org/Graphics/SVG/1.1/DTD/svg11.dtd">
<svg xmlns:xlink="http://www.w3.org/1999/xlink" width="445.442812pt" height="301.988812pt" viewBox="0 0 445.442812 301.988812" xmlns="http://www.w3.org/2000/svg" version="1.1">
 <metadata>
  <rdf:RDF xmlns:dc="http://purl.org/dc/elements/1.1/" xmlns:cc="http://creativecommons.org/ns#" xmlns:rdf="http://www.w3.org/1999/02/22-rdf-syntax-ns#">
   <cc:Work>
    <dc:type rdf:resource="http://purl.org/dc/dcmitype/StillImage"/>
    <dc:date>2026-03-10T21:02:12.573917</dc:date>
    <dc:format>image/svg+xml</dc:format>
    <dc:creator>
     <cc:Agent>
      <dc:title>Matplotlib v3.10.8, https://matplotlib.org/</dc:title>
     </cc:Agent>
    </dc:creator>
   </cc:Work>
  </rdf:RDF>
 </metadata>
 <defs>
  <style type="text/css">*{stroke-linejoin: round; stroke-linecap: butt}</style>
 </defs>
 <g id="figure_1">
  <g id="patch_1">
   <path d="M 0 301.988812 
L 445.442812 301.988812 
L 445.442812 0 
L 0 0 
z
" style="fill: #ffffff"/>
  </g>
  <g id="axes_1">
   <g id="patch_2">
    <path d="M 33.872813 273.096 
L 444.002813 273.096 
L 444.002813 1.44 
L 33.872813 1.44 
z
" style="fill: #ffffff"/>
   </g>
   <g id="matplotlib.axis_1">
    <g id="xtick_1">
     <g id="line2d_1">
      <defs>
       <path id="m5913394281" d="M 0 0 
L 0 3.5 
" style="stroke: #000000; stroke-width: 0.8"/>
      </defs>
      <g>
       <use xlink:href="#m5913394281" x="52.515085" y="273.096" style="stroke: #000000; stroke-width: 0.8"/>
      </g>
     </g>
     <g id="text_1">
      <!-- 0 -->
      <g transform="translate(49.970085 286.17475) scale(0.08 -0.08)">
       <defs>
        <path id="DejaVuSans-30" d="M 2034 4250 
Q 1547 4250 1301 3770 
Q 1056 3291 1056 2328 
Q 1056 1369 1301 889 
Q 1547 409 2034 409 
Q 2525 409 2770 889 
Q 3016 1369 3016 2328 
Q 3016 3291 2770 3770 
Q 2525 4250 2034 4250 
z
M 2034 4750 
Q 2819 4750 3233 4129 
Q 3647 3509 3647 2328 
Q 3647 1150 3233 529 
Q 2819 -91 2034 -91 
Q 1250 -91 836 529 
Q 422 1150 422 2328 
Q 422 3509 836 4129 
Q 1250 4750 2034 4750 
z
" transform="scale(0.015625)"/>
       </defs>
       <use xlink:href="#DejaVuSans-30"/>
      </g>
     </g>
    </g>
    <g id="xtick_2">
     <g id="line2d_2">
      <g>
       <use xlink:href="#m5913394281" x="127.121498" y="273.096" style="stroke: #000000; stroke-width: 0.8"/>
      </g>
     </g>
     <g id="text_2">
      <!-- 5 -->
      <g transform="translate(124.576498 286.17475) scale(0.08 -0.08)">
       <defs>
        <path id="DejaVuSans-35" d="M 691 4666 
L 3169 4666 
L 3169 4134 
L 1269 4134 
L 1269 2991 
Q 1406 3038 1543 3061 
Q 1681 3084 1819 3084 
Q 2600 3084 3056 2656 
Q 3513 2228 3513 1497 
Q 3513 744 3044 326 
Q 2575 -91 1722 -91 
Q 1428 -91 1123 -41 
Q 819 9 494 109 
L 494 744 
Q 775 591 1075 516 
Q 1375 441 1709 441 
Q 2250 441 2565 725 
Q 2881 1009 2881 1497 
Q 2881 1984 2565 2268 
Q 2250 2553 1709 2553 
Q 1456 2553 1204 2497 
Q 953 2441 691 2322 
L 691 4666 
z
" transform="scale(0.015625)"/>
       </defs>
       <use xlink:href="#DejaVuSans-35"/>
      </g>
     </g>
    </g>
    <g id="xtick_3">
     <g id="line2d_3">
      <g>
       <use xlink:href="#m5913394281" x="201.727911" y="273.096" style="stroke: #000000; stroke-width: 0.8"/>
      </g>
     </g>
     <g id="text_3">
      <!-- 10 -->
      <g transform="translate(196.637911 286.17475) scale(0.08 -0.08)">
       <defs>
        <path id="DejaVuSans-31" d="M 794 531 
L 1825 531 
L 1825 4091 
L 703 3866 
L 703 4441 
L 1819 4666 
L 2450 4666 
L 2450 531 
L 3481 531 
L 3481 0 
L 794 0 
L 794 531 
z
" transform="scale(0.015625)"/>
       </defs>
       <use xlink:href="#DejaVuSans-31"/>
       <use xlink:href="#DejaVuSans-30" transform="translate(63.623047 0)"/>
      </g>
     </g>
    </g>
    <g id="xtick_4">
     <g id="line2d_4">
      <g>
       <use xlink:href="#m5913394281" x="276.334324" y="273.096" style="stroke: #000000; stroke-width: 0.8"/>
      </g>
     </g>
     <g id="text_4">
      <!-- 15 -->
      <g transform="translate(271.244324 286.17475) scale(0.08 -0.08)">
       <use xlink:href="#DejaVuSans-31"/>
       <use xlink:href="#DejaVuSans-35" transform="translate(63.623047 0)"/>
      </g>
     </g>
    </g>
    <g id="xtick_5">
     <g id="line2d_5">
      <g>
       <use xlink:href="#m5913394281" x="350.940736" y="273.096" style="stroke: #000000; stroke-width: 0.8"/>
      </g>
     </g>
     <g id="text_5">
      <!-- 20 -->
      <g transform="translate(345.850736 286.17475) scale(0.08 -0.08)">
       <defs>
        <path id="DejaVuSans-32" d="M 1228 531 
L 3431 531 
L 3431 0 
L 469 0 
L 469 531 
Q 828 903 1448 1529 
Q 2069 2156 2228 2338 
Q 2531 2678 2651 2914 
Q 2772 3150 2772 3378 
Q 2772 3750 2511 3984 
Q 2250 4219 1831 4219 
Q 1534 4219 1204 4116 
Q 875 4013 500 3803 
L 500 4441 
Q 881 4594 1212 4672 
Q 1544 4750 1819 4750 
Q 2544 4750 2975 4387 
Q 3406 4025 3406 3419 
Q 3406 3131 3298 2873 
Q 3191 2616 2906 2266 
Q 2828 2175 2409 1742 
Q 1991 1309 1228 531 
z
" transform="scale(0.015625)"/>
       </defs>
       <use xlink:href="#DejaVuSans-32"/>
       <use xlink:href="#DejaVuSans-30" transform="translate(63.623047 0)"/>
      </g>
     </g>
    </g>
    <g id="xtick_6">
     <g id="line2d_6">
      <g>
       <use xlink:href="#m5913394281" x="425.547149" y="273.096" style="stroke: #000000; stroke-width: 0.8"/>
      </g>
     </g>
     <g id="text_6">
      <!-- 25 -->
      <g transform="translate(420.457149 286.17475) scale(0.08 -0.08)">
       <use xlink:href="#DejaVuSans-32"/>
       <use xlink:href="#DejaVuSans-35" transform="translate(63.623047 0)"/>
      </g>
     </g>
    </g>
    <g id="text_7">
     <!-- t -->
     <g transform="translate(237.173672 298.677094) scale(0.09 -0.09)">
      <defs>
       <path id="DejaVuSans-74" d="M 1172 4494 
L 1172 3500 
L 2356 3500 
L 2356 3053 
L 1172 3053 
L 1172 1153 
Q 1172 725 1289 603 
Q 1406 481 1766 481 
L 2356 481 
L 2356 0 
L 1766 0 
Q 1100 0 847 248 
Q 594 497 594 1153 
L 594 3053 
L 172 3053 
L 172 3500 
L 594 3500 
L 594 4494 
L 1172 4494 
z
" transform="scale(0.015625)"/>
      </defs>
      <use xlink:href="#DejaVuSans-74"/>
     </g>
    </g>
   </g>
   <g id="matplotlib.axis_2">
    <g id="ytick_1">
     <g id="line2d_7">
      <defs>
       <path id="mc5ef703d9c" d="M 0 0 
L -3.5 0 
" style="stroke: #000000; stroke-width: 0.8"/>
      </defs>
      <g>
       <use xlink:href="#mc5ef703d9c" x="33.872813" y="260.748" style="stroke: #000000; stroke-width: 0.8"/>
      </g>
     </g>
     <g id="text_8">
      <!-- 0.0 -->
      <g transform="translate(14.150313 263.787375) scale(0.08 -0.08)">
       <defs>
        <path id="DejaVuSans-2e" d="M 684 794 
L 1344 794 
L 1344 0 
L 684 0 
L 684 794 
z
" transform="scale(0.015625)"/>
       </defs>
       <use xlink:href="#DejaVuSans-30"/>
       <use xlink:href="#DejaVuSans-2e" transform="translate(63.623047 0)"/>
       <use xlink:href="#DejaVuSans-30" transform="translate(95.410156 0)"/>
      </g>
     </g>
    </g>
    <g id="ytick_2">
     <g id="line2d_8">
      <g>
       <use xlink:href="#mc5ef703d9c" x="33.872813" y="225.187855" style="stroke: #000000; stroke-width: 0.8"/>
      </g>
     </g>
     <g id="text_9">
      <!-- 0.1 -->
      <g transform="translate(14.150313 228.22723) scale(0.08 -0.08)">
       <use xlink:href="#DejaVuSans-30"/>
       <use xlink:href="#DejaVuSans-2e" transform="translate(63.623047 0)"/>
       <use xlink:href="#DejaVuSans-31" transform="translate(95.410156 0)"/>
      </g>
     </g>
    </g>
    <g id="ytick_3">
     <g id="line2d_9">
      <g>
       <use xlink:href="#mc5ef703d9c" x="33.872813" y="189.627709" style="stroke: #000000; stroke-width: 0.8"/>
      </g>
     </g>
     <g id="text_10">
      <!-- 0.2 -->
      <g transform="translate(14.150313 192.667084) scale(0.08 -0.08)">
       <use xlink:href="#DejaVuSans-30"/>
       <use xlink:href="#DejaVuSans-2e" transform="translate(63.623047 0)"/>
       <use xlink:href="#DejaVuSans-32" transform="translate(95.410156 0)"/>
      </g>
     </g>
    </g>
    <g id="ytick_4">
     <g id="line2d_10">
      <g>
       <use xlink:href="#mc5ef703d9c" x="33.872813" y="154.067564" style="stroke: #000000; stroke-width: 0.8"/>
      </g>
     </g>
     <g id="text_11">
      <!-- 0.3 -->
      <g transform="translate(14.150313 157.106939) scale(0.08 -0.08)">
       <defs>
        <path id="DejaVuSans-33" d="M 2597 2516 
Q 3050 2419 3304 2112 
Q 3559 1806 3559 1356 
Q 3559 666 3084 287 
Q 2609 -91 1734 -91 
Q 1441 -91 1130 -33 
Q 819 25 488 141 
L 488 750 
Q 750 597 1062 519 
Q 1375 441 1716 441 
Q 2309 441 2620 675 
Q 2931 909 2931 1356 
Q 2931 1769 2642 2001 
Q 2353 2234 1838 2234 
L 1294 2234 
L 1294 2753 
L 1863 2753 
Q 2328 2753 2575 2939 
Q 2822 3125 2822 3475 
Q 2822 3834 2567 4026 
Q 2313 4219 1838 4219 
Q 1578 4219 1281 4162 
Q 984 4106 628 3988 
L 628 4550 
Q 988 4650 1302 4700 
Q 1616 4750 1894 4750 
Q 2613 4750 3031 4423 
Q 3450 4097 3450 3541 
Q 3450 3153 3228 2886 
Q 3006 2619 2597 2516 
z
" transform="scale(0.015625)"/>
       </defs>
       <use xlink:href="#DejaVuSans-30"/>
       <use xlink:href="#DejaVuSans-2e" transform="translate(63.623047 0)"/>
       <use xlink:href="#DejaVuSans-33" transform="translate(95.410156 0)"/>
      </g>
     </g>
    </g>
    <g id="ytick_5">
     <g id="line2d_11">
      <g>
       <use xlink:href="#mc5ef703d9c" x="33.872813" y="118.507418" style="stroke: #000000; stroke-width: 0.8"/>
      </g>
     </g>
     <g id="text_12">
      <!-- 0.4 -->
      <g transform="translate(14.150313 121.546793) scale(0.08 -0.08)">
       <defs>
        <path id="DejaVuSans-34" d="M 2419 4116 
L 825 1625 
L 2419 1625 
L 2419 4116 
z
M 2253 4666 
L 3047 4666 
L 3047 1625 
L 3713 1625 
L 3713 1100 
L 3047 1100 
L 3047 0 
L 2419 0 
L 2419 1100 
L 313 1100 
L 313 1709 
L 2253 4666 
z
" transform="scale(0.015625)"/>
       </defs>
       <use xlink:href="#DejaVuSans-30"/>
       <use xlink:href="#DejaVuSans-2e" transform="translate(63.623047 0)"/>
       <use xlink:href="#DejaVuSans-34" transform="translate(95.410156 0)"/>
      </g>
     </g>
    </g>
    <g id="ytick_6">
     <g id="line2d_12">
      <g>
       <use xlink:href="#mc5ef703d9c" x="33.872813" y="82.947273" style="stroke: #000000; stroke-width: 0.8"/>
      </g>
     </g>
     <g id="text_13">
      <!-- 0.5 -->
      <g transform="translate(14.150313 85.986648) scale(0.08 -0.08)">
       <use xlink:href="#DejaVuSans-30"/>
       <use xlink:href="#DejaVuSans-2e" transform="translate(63.623047 0)"/>
       <use xlink:href="#DejaVuSans-35" transform="translate(95.410156 0)"/>
      </g>
     </g>
    </g>
    <g id="ytick_7">
     <g id="line2d_13">
      <g>
       <use xlink:href="#mc5ef703d9c" x="33.872813" y="47.387128" style="stroke: #000000; stroke-width: 0.8"/>
      </g>
     </g>
     <g id="text_14">
      <!-- 0.6 -->
      <g transform="translate(14.150313 50.426503) scale(0.08 -0.08)">
       <defs>
        <path id="DejaVuSans-36" d="M 2113 2584 
Q 1688 2584 1439 2293 
Q 1191 2003 1191 1497 
Q 1191 994 1439 701 
Q 1688 409 2113 409 
Q 2538 409 2786 701 
Q 3034 994 3034 1497 
Q 3034 2003 2786 2293 
Q 2538 2584 2113 2584 
z
M 3366 4563 
L 3366 3988 
Q 3128 4100 2886 4159 
Q 2644 4219 2406 4219 
Q 1781 4219 1451 3797 
Q 1122 3375 1075 2522 
Q 1259 2794 1537 2939 
Q 1816 3084 2150 3084 
Q 2853 3084 3261 2657 
Q 3669 2231 3669 1497 
Q 3669 778 3244 343 
Q 2819 -91 2113 -91 
Q 1303 -91 875 529 
Q 447 1150 447 2328 
Q 447 3434 972 4092 
Q 1497 4750 2381 4750 
Q 2619 4750 2861 4703 
Q 3103 4656 3366 4563 
z
" transform="scale(0.015625)"/>
       </defs>
       <use xlink:href="#DejaVuSans-30"/>
       <use xlink:href="#DejaVuSans-2e" transform="translate(63.623047 0)"/>
       <use xlink:href="#DejaVuSans-36" transform="translate(95.410156 0)"/>
      </g>
     </g>
    </g>
    <g id="ytick_8">
     <g id="line2d_14">
      <g>
       <use xlink:href="#mc5ef703d9c" x="33.872813" y="11.826982" style="stroke: #000000; stroke-width: 0.8"/>
      </g>
     </g>
     <g id="text_15">
      <!-- 0.7 -->
      <g transform="translate(14.150313 14.866357) scale(0.08 -0.08)">
       <defs>
        <path id="DejaVuSans-37" d="M 525 4666 
L 3525 4666 
L 3525 4397 
L 1831 0 
L 1172 0 
L 2766 4134 
L 525 4134 
L 525 4666 
z
" transform="scale(0.015625)"/>
       </defs>
       <use xlink:href="#DejaVuSans-30"/>
       <use xlink:href="#DejaVuSans-2e" transform="translate(63.623047 0)"/>
       <use xlink:href="#DejaVuSans-37" transform="translate(95.410156 0)"/>
      </g>
     </g>
    </g>
    <g id="text_16">
     <!-- v(t) -->
     <g transform="translate(8.278594 145.206984) rotate(-90) scale(0.09 -0.09)">
      <defs>
       <path id="DejaVuSans-76" d="M 191 3500 
L 800 3500 
L 1894 563 
L 2988 3500 
L 3597 3500 
L 2284 0 
L 1503 0 
L 191 3500 
z
" transform="scale(0.015625)"/>
       <path id="DejaVuSans-28" d="M 1984 4856 
Q 1566 4138 1362 3434 
Q 1159 2731 1159 2009 
Q 1159 1288 1364 580 
Q 1569 -128 1984 -844 
L 1484 -844 
Q 1016 -109 783 600 
Q 550 1309 550 2009 
Q 550 2706 781 3412 
Q 1013 4119 1484 4856 
L 1984 4856 
z
" transform="scale(0.015625)"/>
       <path id="DejaVuSans-29" d="M 513 4856 
L 1013 4856 
Q 1481 4119 1714 3412 
Q 1947 2706 1947 2009 
Q 1947 1309 1714 600 
Q 1481 -109 1013 -844 
L 513 -844 
Q 928 -128 1133 580 
Q 1338 1288 1338 2009 
Q 1338 2731 1133 3434 
Q 928 4138 513 4856 
z
" transform="scale(0.015625)"/>
      </defs>
      <use xlink:href="#DejaVuSans-76"/>
      <use xlink:href="#DejaVuSans-28" transform="translate(59.179688 0)"/>
      <use xlink:href="#DejaVuSans-74" transform="translate(98.193359 0)"/>
      <use xlink:href="#DejaVuSans-29" transform="translate(137.402344 0)"/>
     </g>
    </g>
   </g>
   <g id="line2d_15">
    <path d="M 52.515085 260.748 
L 57.366928 258.715819 
L 60.725896 257.55531 
L 63.711645 256.768367 
L 66.697395 256.223468 
L 70.429582 255.810412 
L 74.908206 255.324492 
L 77.147518 254.871179 
L 79.760048 254.090016 
L 88.717297 251.087928 
L 91.329827 250.574946 
L 93.942358 250.262325 
L 96.554889 250.179676 
L 98.794201 250.346044 
L 102.526387 250.753852 
L 103.272825 250.63148 
L 104.019262 250.321523 
L 104.765699 249.764181 
L 105.512137 248.914287 
L 106.258574 247.751592 
L 107.37823 245.444278 
L 108.497886 242.575292 
L 110.737198 235.970105 
L 112.603292 230.748392 
L 113.722948 228.243874 
L 114.469385 226.959787 
L 115.215822 226.031941 
L 115.96226 225.483394 
L 116.708697 225.320034 
L 117.455134 225.530493 
L 118.201572 226.0875 
L 118.948009 226.95009 
L 120.067665 228.702431 
L 121.56054 231.580464 
L 124.546289 237.461905 
L 125.665945 239.252681 
L 126.785601 240.686816 
L 127.905257 241.749481 
L 129.024913 242.474839 
L 130.144569 242.944091 
L 133.130319 243.967207 
L 134.249975 244.716089 
L 135.369631 245.842732 
L 137.235724 248.08857 
L 137.608943 248.361406 
L 137.982161 248.457181 
L 138.35538 248.311155 
L 138.728599 247.866077 
L 139.101817 247.083775 
L 139.848255 244.478936 
L 140.594692 240.624745 
L 141.714348 233.080046 
L 143.207223 221.061212 
L 145.819754 199.820189 
L 146.93941 192.538179 
L 147.685847 188.746161 
L 148.432284 185.945955 
L 149.178722 184.20644 
L 149.55194 183.742185 
L 149.925159 183.546105 
L 150.298378 183.612754 
L 150.671596 183.933983 
L 151.044815 184.498975 
L 151.791252 186.30524 
L 152.53769 188.903082 
L 153.657346 193.948755 
L 155.523439 204.048209 
L 157.762751 216.062591 
L 158.882407 221.139636 
L 160.002063 225.309265 
L 161.121719 228.509162 
L 161.868156 230.125936 
L 162.614594 231.375109 
L 163.361031 232.313953 
L 164.480687 233.2907 
L 165.973562 234.166381 
L 167.839655 235.245338 
L 170.078967 236.728753 
L 170.825405 236.933636 
L 171.198623 236.883525 
L 171.571842 236.693581 
L 171.945061 236.335478 
L 172.318279 235.783791 
L 173.064717 234.025375 
L 173.811154 231.342738 
L 174.557591 227.777933 
L 175.677247 221.073996 
L 177.543341 207.807755 
L 179.782653 191.902605 
L 180.902309 185.142645 
L 182.021965 179.664028 
L 182.768402 176.834609 
L 183.51484 174.705399 
L 184.261277 173.285735 
L 185.007714 172.563387 
L 185.380933 172.454697 
L 185.754152 172.507399 
L 186.12737 172.715195 
L 186.873808 173.567312 
L 187.620245 174.947415 
L 188.366682 176.78508 
L 189.486338 180.237111 
L 190.979213 185.75111 
L 197.32393 210.594237 
L 199.190024 216.444642 
L 200.682898 220.492818 
L 202.175773 224.026879 
L 203.668648 227.084123 
L 205.161523 229.656731 
L 206.281179 231.226388 
L 207.400835 232.430327 
L 208.147272 232.999921 
L 208.893709 233.364338 
L 209.640147 233.512805 
L 210.386584 233.441967 
L 211.133021 233.157237 
L 211.879459 232.672941 
L 212.999115 231.621991 
L 214.491989 229.76765 
L 217.10452 225.958809 
L 219.343832 222.799164 
L 221.209926 220.545672 
L 222.7028 219.056699 
L 224.195675 217.846271 
L 225.68855 216.885689 
L 227.554643 215.967296 
L 229.793955 215.143368 
L 237.258328 212.655123 
L 239.497641 211.593875 
L 241.736953 210.306852 
L 244.349483 208.530675 
L 247.708451 205.939758 
L 251.440638 203.087369 
L 253.306731 201.914993 
L 254.799606 201.214598 
L 256.292481 200.799755 
L 257.412137 200.715185 
L 258.531793 200.851424 
L 259.651449 201.227093 
L 260.771105 201.854035 
L 261.890761 202.735391 
L 263.010417 203.863824 
L 264.503292 205.716665 
L 266.369385 208.462849 
L 270.101572 214.175895 
L 271.221228 215.517601 
L 272.340884 216.473632 
L 273.087321 216.836356 
L 273.833758 216.941404 
L 274.580196 216.762106 
L 275.326633 216.278785 
L 276.07307 215.479767 
L 276.819508 214.361599 
L 277.565945 212.928486 
L 278.685601 210.213089 
L 279.805257 206.869896 
L 281.298132 201.558739 
L 283.164225 193.811201 
L 285.403537 183.403894 
L 290.628599 158.677814 
L 292.121473 152.745533 
L 293.241129 148.970763 
L 294.360785 145.906583 
L 295.107223 144.310975 
L 295.85366 143.104654 
L 296.600098 142.309346 
L 297.346535 141.941838 
L 298.092972 142.013076 
L 298.83941 142.52802 
L 299.585847 143.485304 
L 300.332284 144.877107 
L 301.078722 146.689364 
L 302.198378 150.149879 
L 303.318034 154.416077 
L 304.810908 161.146697 
L 306.677002 170.731905 
L 310.782407 192.227447 
L 311.902063 196.996572 
L 313.021719 200.731495 
L 313.768156 202.485252 
L 314.514594 203.548133 
L 314.887812 203.79896 
L 315.261031 203.854736 
L 315.63425 203.712143 
L 316.007469 203.370117 
L 316.753906 202.094974 
L 317.500343 200.064939 
L 318.246781 197.343532 
L 319.366437 192.147848 
L 320.859311 183.625323 
L 322.725405 171.417029 
L 326.83081 144.149921 
L 328.323685 135.732637 
L 329.443341 130.368788 
L 330.562997 125.971072 
L 331.682653 122.642732 
L 332.42909 121.052943 
L 333.175527 119.980514 
L 333.921965 119.429399 
L 334.295184 119.348644 
L 334.668402 119.396472 
L 335.041621 119.571452 
L 335.788058 120.295034 
L 336.534496 121.500083 
L 337.280933 123.161524 
L 338.400589 126.442915 
L 339.520245 130.564465 
L 341.01312 137.129739 
L 342.879213 146.547916 
L 347.731056 171.880643 
L 349.22393 178.145073 
L 350.343586 181.832905 
L 351.090024 183.703376 
L 351.836461 185.050705 
L 352.582898 185.845064 
L 352.956117 186.03035 
L 353.329336 186.074389 
L 353.702555 185.978712 
L 354.075773 185.746118 
L 354.822211 184.886991 
L 355.568648 183.541007 
L 356.315085 181.765328 
L 357.434741 178.44233 
L 358.927616 173.152739 
L 363.779459 154.975924 
L 365.272333 150.471139 
L 366.391989 147.688213 
L 367.511645 145.471821 
L 368.631301 143.848775 
L 369.377739 143.100765 
L 370.124176 142.618069 
L 370.870613 142.395729 
L 371.617051 142.426123 
L 372.363488 142.699248 
L 373.109926 143.203256 
L 373.856363 143.924401 
L 374.976019 145.380012 
L 376.095675 147.234332 
L 377.58855 150.223056 
L 379.454643 154.578307 
L 382.440392 162.277827 
L 385.426142 169.855122 
L 387.292235 174.069757 
L 388.78511 176.992012 
L 390.277984 179.442556 
L 391.770859 181.388075 
L 392.890515 182.514149 
L 394.010171 183.366134 
L 395.129827 183.963418 
L 396.249483 184.331918 
L 397.369139 184.502112 
L 398.862014 184.477186 
L 400.354889 184.235573 
L 402.594201 183.620681 
L 413.417542 180.242273 
L 418.642604 178.720494 
L 421.628353 177.608939 
L 424.240884 176.400117 
L 425.36054 175.806977 
L 425.36054 175.806977 
" clip-path="url(#p4ead914fb7)" style="fill: none; stroke: #1f77b4; stroke-width: 1.5; stroke-linecap: square"/>
   </g>
   <g id="line2d_16">
    <path d="M 52.515085 260.748 
L 57.366928 258.715325 
L 60.725896 257.554339 
L 63.711645 256.766966 
L 66.697395 256.221765 
L 70.429582 255.808292 
L 74.908206 255.319431 
L 77.147518 254.862606 
L 79.760048 254.07606 
L 88.717297 251.057236 
L 91.329827 250.539282 
L 93.942358 250.221503 
L 96.18167 250.132885 
L 98.420982 250.273194 
L 102.899606 250.821657 
L 103.646043 250.648239 
L 104.392481 250.249301 
L 105.138918 249.563519 
L 105.885355 248.551566 
L 106.631793 247.204601 
L 107.751449 244.607885 
L 109.244324 240.338857 
L 112.603292 230.202116 
L 113.722948 227.605783 
L 114.469385 226.291954 
L 115.215822 225.363229 
L 115.96226 224.843658 
L 116.708697 224.737734 
L 117.455134 225.030712 
L 118.201572 225.689928 
L 118.948009 226.66776 
L 120.067665 228.601237 
L 121.933758 232.511162 
L 124.17307 237.135196 
L 125.292727 239.048891 
L 126.412383 240.577562 
L 127.532039 241.69424 
L 128.651695 242.419876 
L 129.771351 242.822418 
L 131.264225 243.058504 
L 132.7571 243.305155 
L 133.503537 243.576552 
L 134.249975 244.027988 
L 134.996412 244.715371 
L 135.742849 245.679094 
L 136.862505 247.630482 
L 137.982161 249.756955 
L 138.35538 250.260411 
L 138.728599 250.494583 
L 139.101817 250.339702 
L 139.475036 249.705013 
L 139.848255 248.559373 
L 140.594692 244.874431 
L 141.341129 239.734995 
L 142.460785 230.191759 
L 144.700098 208.145043 
L 146.192972 194.293357 
L 147.312628 185.94733 
L 148.059066 181.80157 
L 148.805503 178.981928 
L 149.178722 178.098958 
L 149.55194 177.573002 
L 149.925159 177.402446 
L 150.298378 177.580739 
L 150.671596 178.096593 
L 151.044815 178.934699 
L 151.791252 181.496375 
L 152.53769 185.073337 
L 153.657346 191.836699 
L 157.762751 219.081542 
L 158.882407 224.595363 
L 160.002063 228.758021 
L 160.7485 230.788814 
L 161.494938 232.271308 
L 162.241375 233.269472 
L 162.987813 233.860467 
L 163.73425 234.127515 
L 164.480687 234.155333 
L 165.600343 233.931541 
L 167.466437 233.523411 
L 168.212874 233.571116 
L 168.959311 233.841381 
L 169.705749 234.385043 
L 170.452186 235.227959 
L 171.571842 236.997188 
L 173.064717 239.505793 
L 173.437935 239.878569 
L 173.811154 240.015506 
L 174.184373 239.839974 
L 174.557591 239.284032 
L 174.93081 238.299808 
L 175.304029 236.866495 
L 176.050466 232.698571 
L 176.796903 227.033816 
L 177.916559 216.519369 
L 180.52909 188.320927 
L 182.021965 173.569521 
L 183.141621 164.640021 
L 183.888058 160.038986 
L 184.634496 156.656684 
L 185.380933 154.552588 
L 185.754152 153.984152 
L 186.12737 153.734066 
L 186.500589 153.795556 
L 186.873808 154.158983 
L 187.247026 154.812479 
L 187.993464 156.929393 
L 188.739901 160.00924 
L 189.859557 166.083519 
L 191.352432 175.993281 
L 195.457837 204.478731 
L 196.950712 212.817967 
L 198.070368 217.987133 
L 199.190024 222.221434 
L 200.30968 225.587293 
L 201.429336 228.19569 
L 202.548992 230.182348 
L 203.668648 231.689628 
L 204.788304 232.852988 
L 206.281179 234.077233 
L 210.386584 237.21793 
L 211.879459 238.751742 
L 213.372333 240.653274 
L 214.865208 242.948961 
L 217.10452 246.948128 
L 218.597395 249.496816 
L 219.343832 250.429427 
L 220.09027 250.896325 
L 220.463488 250.897001 
L 220.836707 250.721753 
L 221.209926 250.366388 
L 221.956363 249.143394 
L 222.7028 247.339483 
L 223.822456 243.840341 
L 225.315331 238.216939 
L 227.554643 228.642644 
L 235.392235 193.858469 
L 237.258328 186.918567 
L 238.751203 182.134669 
L 240.244078 178.18127 
L 241.363734 175.838768 
L 242.48339 174.085191 
L 243.229827 173.264956 
L 243.976265 172.736639 
L 244.722702 172.509544 
L 245.469139 172.590241 
L 246.215577 172.983221 
L 246.962014 173.690098 
L 247.708451 174.70941 
L 248.454889 176.036581 
L 249.574545 178.58592 
L 250.694201 181.766531 
L 252.187075 186.881081 
L 253.67995 192.812292 
L 255.919262 202.68779 
L 259.651449 219.212039 
L 261.144324 224.905341 
L 262.637198 229.648064 
L 263.756854 232.472878 
L 264.87651 234.644911 
L 265.996166 236.202427 
L 267.115822 237.234437 
L 268.235478 237.861858 
L 269.355134 238.211872 
L 271.221228 238.477242 
L 274.580196 238.882967 
L 277.192727 239.294596 
L 277.939164 239.220974 
L 278.685601 238.891083 
L 279.432039 238.152547 
L 280.178476 236.828579 
L 280.924913 234.744347 
L 281.671351 231.758243 
L 282.417788 227.780351 
L 283.164225 222.77315 
L 284.283881 213.349588 
L 285.403537 201.758939 
L 286.896412 183.39256 
L 288.762505 157.197946 
L 291.375036 120.06005 
L 292.494692 106.39343 
L 293.614348 95.419653 
L 294.360785 90.009858 
L 295.107223 86.353884 
L 295.480441 85.228373 
L 295.85366 84.587377 
L 296.226879 84.436819 
L 296.600098 84.780083 
L 296.973316 85.614132 
L 297.346535 86.932457 
L 298.092972 90.97266 
L 298.83941 96.761019 
L 299.959066 108.270595 
L 301.078722 122.387957 
L 303.318034 154.41886 
L 305.184127 180.422473 
L 306.677002 198.334775 
L 307.796658 209.444853 
L 308.916314 218.417825 
L 310.03597 225.332263 
L 311.155626 230.409572 
L 311.902063 232.923543 
L 312.6485 234.859481 
L 313.394938 236.326513 
L 314.514594 237.904837 
L 316.753906 240.498961 
L 317.500343 241.753588 
L 318.246781 243.462261 
L 318.993218 245.749308 
L 320.112874 250.246449 
L 320.859311 253.022778 
L 321.23253 253.373536 
L 321.605749 252.369657 
L 321.978967 250.053481 
L 322.725405 242.780403 
L 323.471842 233.143411 
L 324.591498 215.169192 
L 325.711154 193.4285 
L 327.204029 159.607026 
L 331.682653 52.262462 
L 332.802309 32.916077 
L 333.548746 23.43589 
L 334.295184 17.079283 
L 334.668402 15.138532 
L 335.041621 14.040464 
L 335.41484 13.788 
L 335.788058 14.374989 
L 336.161277 15.78633 
L 336.534496 17.998427 
L 337.280933 24.69195 
L 338.02737 34.12337 
L 339.147026 52.4559 
L 340.639901 82.090533 
L 343.998869 151.52985 
L 345.491744 176.901985 
L 346.6114 192.319514 
L 347.731056 204.457957 
L 348.477493 210.777912 
L 349.22393 215.779607 
L 349.970368 219.592543 
L 350.716805 222.375466 
L 351.463242 224.30539 
L 352.20968 225.566216 
L 352.956117 226.337146 
L 353.702555 226.786918 
L 356.315085 227.966168 
L 357.061523 228.707008 
L 357.80796 229.795894 
L 358.554397 231.258856 
L 360.793709 236.37016 
L 361.166928 236.706539 
L 361.540147 236.607358 
L 361.913365 235.94639 
L 362.286584 234.626403 
L 362.659803 232.596686 
L 363.40624 226.433108 
L 364.152677 217.763414 
L 365.272333 200.990031 
L 366.391989 180.743266 
L 368.258083 141.975166 
L 371.617051 70.375371 
L 372.736707 50.353805 
L 373.856363 34.067501 
L 374.6028 25.700624 
L 375.349238 19.536565 
L 376.095675 15.682862 
L 376.468894 14.637379 
L 376.842112 14.179184 
L 377.215331 14.30223 
L 377.58855 14.99671 
L 377.961768 16.249192 
L 378.708206 20.356123 
L 379.454643 26.446701 
L 380.20108 34.300575 
L 381.320736 48.830459 
L 382.813611 71.882121 
L 388.411891 162.916811 
L 389.904766 182.058863 
L 391.024422 194.198434 
L 392.144078 204.419809 
L 393.263734 212.80897 
L 394.38339 219.529663 
L 395.503046 224.800582 
L 396.622702 228.874871 
L 397.742358 232.010958 
L 398.862014 234.451362 
L 399.98167 236.408178 
L 401.474545 238.577089 
L 404.087075 242.20347 
L 405.206731 244.079858 
L 406.326387 246.359962 
L 407.446043 249.160379 
L 409.685355 255.5891 
L 410.058574 256.003207 
L 410.431793 255.703829 
L 410.805012 254.671042 
L 411.551449 251.126245 
L 412.671105 243.743745 
L 413.790761 234.625616 
L 414.910417 223.935855 
L 416.403292 207.322578 
L 417.896166 188.167733 
L 419.76226 161.165979 
L 422.748009 113.77174 
L 425.36054 73.308017 
L 425.36054 73.308017 
" clip-path="url(#p4ead914fb7)" style="fill: none; stroke-dasharray: 5.55,2.4; stroke-dashoffset: 0; stroke: #ff7f0e; stroke-width: 1.5"/>
   </g>
   <g id="patch_3">
    <path d="M 33.872813 260.748 
L 33.872813 11.826982 
" style="fill: none; stroke: #000000; stroke-width: 0.8; stroke-linejoin: miter; stroke-linecap: square"/>
   </g>
   <g id="patch_4">
    <path d="M 52.515085 273.096 
L 425.547149 273.096 
" style="fill: none; stroke: #000000; stroke-width: 0.8; stroke-linejoin: miter; stroke-linecap: square"/>
   </g>
   <g id="legend_1">
    <g id="line2d_17">
     <path d="M 41.072813 11.91875 
L 49.072813 11.91875 
L 57.072813 11.91875 
" style="fill: none; stroke: #1f77b4; stroke-width: 1.5; stroke-linecap: square"/>
    </g>
    <g id="text_17">
     <!-- v (Monte Carlo) -->
     <g transform="translate(63.472813 14.71875) scale(0.08 -0.08)">
      <defs>
       <path id="DejaVuSans-20" transform="scale(0.015625)"/>
       <path id="DejaVuSans-4d" d="M 628 4666 
L 1569 4666 
L 2759 1491 
L 3956 4666 
L 4897 4666 
L 4897 0 
L 4281 0 
L 4281 4097 
L 3078 897 
L 2444 897 
L 1241 4097 
L 1241 0 
L 628 0 
L 628 4666 
z
" transform="scale(0.015625)"/>
       <path id="DejaVuSans-6f" d="M 1959 3097 
Q 1497 3097 1228 2736 
Q 959 2375 959 1747 
Q 959 1119 1226 758 
Q 1494 397 1959 397 
Q 2419 397 2687 759 
Q 2956 1122 2956 1747 
Q 2956 2369 2687 2733 
Q 2419 3097 1959 3097 
z
M 1959 3584 
Q 2709 3584 3137 3096 
Q 3566 2609 3566 1747 
Q 3566 888 3137 398 
Q 2709 -91 1959 -91 
Q 1206 -91 779 398 
Q 353 888 353 1747 
Q 353 2609 779 3096 
Q 1206 3584 1959 3584 
z
" transform="scale(0.015625)"/>
       <path id="DejaVuSans-6e" d="M 3513 2113 
L 3513 0 
L 2938 0 
L 2938 2094 
Q 2938 2591 2744 2837 
Q 2550 3084 2163 3084 
Q 1697 3084 1428 2787 
Q 1159 2491 1159 1978 
L 1159 0 
L 581 0 
L 581 3500 
L 1159 3500 
L 1159 2956 
Q 1366 3272 1645 3428 
Q 1925 3584 2291 3584 
Q 2894 3584 3203 3211 
Q 3513 2838 3513 2113 
z
" transform="scale(0.015625)"/>
       <path id="DejaVuSans-65" d="M 3597 1894 
L 3597 1613 
L 953 1613 
Q 991 1019 1311 708 
Q 1631 397 2203 397 
Q 2534 397 2845 478 
Q 3156 559 3463 722 
L 3463 178 
Q 3153 47 2828 -22 
Q 2503 -91 2169 -91 
Q 1331 -91 842 396 
Q 353 884 353 1716 
Q 353 2575 817 3079 
Q 1281 3584 2069 3584 
Q 2775 3584 3186 3129 
Q 3597 2675 3597 1894 
z
M 3022 2063 
Q 3016 2534 2758 2815 
Q 2500 3097 2075 3097 
Q 1594 3097 1305 2825 
Q 1016 2553 972 2059 
L 3022 2063 
z
" transform="scale(0.015625)"/>
       <path id="DejaVuSans-43" d="M 4122 4306 
L 4122 3641 
Q 3803 3938 3442 4084 
Q 3081 4231 2675 4231 
Q 1875 4231 1450 3742 
Q 1025 3253 1025 2328 
Q 1025 1406 1450 917 
Q 1875 428 2675 428 
Q 3081 428 3442 575 
Q 3803 722 4122 1019 
L 4122 359 
Q 3791 134 3420 21 
Q 3050 -91 2638 -91 
Q 1578 -91 968 557 
Q 359 1206 359 2328 
Q 359 3453 968 4101 
Q 1578 4750 2638 4750 
Q 3056 4750 3426 4639 
Q 3797 4528 4122 4306 
z
" transform="scale(0.015625)"/>
       <path id="DejaVuSans-61" d="M 2194 1759 
Q 1497 1759 1228 1600 
Q 959 1441 959 1056 
Q 959 750 1161 570 
Q 1363 391 1709 391 
Q 2188 391 2477 730 
Q 2766 1069 2766 1631 
L 2766 1759 
L 2194 1759 
z
M 3341 1997 
L 3341 0 
L 2766 0 
L 2766 531 
Q 2569 213 2275 61 
Q 1981 -91 1556 -91 
Q 1019 -91 701 211 
Q 384 513 384 1019 
Q 384 1609 779 1909 
Q 1175 2209 1959 2209 
L 2766 2209 
L 2766 2266 
Q 2766 2663 2505 2880 
Q 2244 3097 1772 3097 
Q 1472 3097 1187 3025 
Q 903 2953 641 2809 
L 641 3341 
Q 956 3463 1253 3523 
Q 1550 3584 1831 3584 
Q 2591 3584 2966 3190 
Q 3341 2797 3341 1997 
z
" transform="scale(0.015625)"/>
       <path id="DejaVuSans-72" d="M 2631 2963 
Q 2534 3019 2420 3045 
Q 2306 3072 2169 3072 
Q 1681 3072 1420 2755 
Q 1159 2438 1159 1844 
L 1159 0 
L 581 0 
L 581 3500 
L 1159 3500 
L 1159 2956 
Q 1341 3275 1631 3429 
Q 1922 3584 2338 3584 
Q 2397 3584 2469 3576 
Q 2541 3569 2628 3553 
L 2631 2963 
z
" transform="scale(0.015625)"/>
       <path id="DejaVuSans-6c" d="M 603 4863 
L 1178 4863 
L 1178 0 
L 603 0 
L 603 4863 
z
" transform="scale(0.015625)"/>
      </defs>
      <use xlink:href="#DejaVuSans-76"/>
      <use xlink:href="#DejaVuSans-20" transform="translate(59.179688 0)"/>
      <use xlink:href="#DejaVuSans-28" transform="translate(90.966797 0)"/>
      <use xlink:href="#DejaVuSans-4d" transform="translate(129.980469 0)"/>
      <use xlink:href="#DejaVuSans-6f" transform="translate(216.259766 0)"/>
      <use xlink:href="#DejaVuSans-6e" transform="translate(277.441406 0)"/>
      <use xlink:href="#DejaVuSans-74" transform="translate(340.820312 0)"/>
      <use xlink:href="#DejaVuSans-65" transform="translate(380.029297 0)"/>
      <use xlink:href="#DejaVuSans-20" transform="translate(441.552734 0)"/>
      <use xlink:href="#DejaVuSans-43" transform="translate(473.339844 0)"/>
      <use xlink:href="#DejaVuSans-61" transform="translate(543.164062 0)"/>
      <use xlink:href="#DejaVuSans-72" transform="translate(604.443359 0)"/>
      <use xlink:href="#DejaVuSans-6c" transform="translate(645.556641 0)"/>
      <use xlink:href="#DejaVuSans-6f" transform="translate(673.339844 0)"/>
      <use xlink:href="#DejaVuSans-29" transform="translate(734.521484 0)"/>
     </g>
    </g>
    <g id="line2d_18">
     <path d="M 41.072813 23.66125 
L 49.072813 23.66125 
L 57.072813 23.66125 
" style="fill: none; stroke-dasharray: 5.55,2.4; stroke-dashoffset: 0; stroke: #ff7f0e; stroke-width: 1.5"/>
    </g>
    <g id="text_18">
     <!-- v (Local sensitivity) -->
     <g transform="translate(63.472813 26.46125) scale(0.08 -0.08)">
      <defs>
       <path id="DejaVuSans-4c" d="M 628 4666 
L 1259 4666 
L 1259 531 
L 3531 531 
L 3531 0 
L 628 0 
L 628 4666 
z
" transform="scale(0.015625)"/>
       <path id="DejaVuSans-63" d="M 3122 3366 
L 3122 2828 
Q 2878 2963 2633 3030 
Q 2388 3097 2138 3097 
Q 1578 3097 1268 2742 
Q 959 2388 959 1747 
Q 959 1106 1268 751 
Q 1578 397 2138 397 
Q 2388 397 2633 464 
Q 2878 531 3122 666 
L 3122 134 
Q 2881 22 2623 -34 
Q 2366 -91 2075 -91 
Q 1284 -91 818 406 
Q 353 903 353 1747 
Q 353 2603 823 3093 
Q 1294 3584 2113 3584 
Q 2378 3584 2631 3529 
Q 2884 3475 3122 3366 
z
" transform="scale(0.015625)"/>
       <path id="DejaVuSans-73" d="M 2834 3397 
L 2834 2853 
Q 2591 2978 2328 3040 
Q 2066 3103 1784 3103 
Q 1356 3103 1142 2972 
Q 928 2841 928 2578 
Q 928 2378 1081 2264 
Q 1234 2150 1697 2047 
L 1894 2003 
Q 2506 1872 2764 1633 
Q 3022 1394 3022 966 
Q 3022 478 2636 193 
Q 2250 -91 1575 -91 
Q 1294 -91 989 -36 
Q 684 19 347 128 
L 347 722 
Q 666 556 975 473 
Q 1284 391 1588 391 
Q 1994 391 2212 530 
Q 2431 669 2431 922 
Q 2431 1156 2273 1281 
Q 2116 1406 1581 1522 
L 1381 1569 
Q 847 1681 609 1914 
Q 372 2147 372 2553 
Q 372 3047 722 3315 
Q 1072 3584 1716 3584 
Q 2034 3584 2315 3537 
Q 2597 3491 2834 3397 
z
" transform="scale(0.015625)"/>
       <path id="DejaVuSans-69" d="M 603 3500 
L 1178 3500 
L 1178 0 
L 603 0 
L 603 3500 
z
M 603 4863 
L 1178 4863 
L 1178 4134 
L 603 4134 
L 603 4863 
z
" transform="scale(0.015625)"/>
       <path id="DejaVuSans-79" d="M 2059 -325 
Q 1816 -950 1584 -1140 
Q 1353 -1331 966 -1331 
L 506 -1331 
L 506 -850 
L 844 -850 
Q 1081 -850 1212 -737 
Q 1344 -625 1503 -206 
L 1606 56 
L 191 3500 
L 800 3500 
L 1894 763 
L 2988 3500 
L 3597 3500 
L 2059 -325 
z
" transform="scale(0.015625)"/>
      </defs>
      <use xlink:href="#DejaVuSans-76"/>
      <use xlink:href="#DejaVuSans-20" transform="translate(59.179688 0)"/>
      <use xlink:href="#DejaVuSans-28" transform="translate(90.966797 0)"/>
      <use xlink:href="#DejaVuSans-4c" transform="translate(129.980469 0)"/>
      <use xlink:href="#DejaVuSans-6f" transform="translate(183.943359 0)"/>
      <use xlink:href="#DejaVuSans-63" transform="translate(245.125 0)"/>
      <use xlink:href="#DejaVuSans-61" transform="translate(300.105469 0)"/>
      <use xlink:href="#DejaVuSans-6c" transform="translate(361.384766 0)"/>
      <use xlink:href="#DejaVuSans-20" transform="translate(389.167969 0)"/>
      <use xlink:href="#DejaVuSans-73" transform="translate(420.955078 0)"/>
      <use xlink:href="#DejaVuSans-65" transform="translate(473.054688 0)"/>
      <use xlink:href="#DejaVuSans-6e" transform="translate(534.578125 0)"/>
      <use xlink:href="#DejaVuSans-73" transform="translate(597.957031 0)"/>
      <use xlink:href="#DejaVuSans-69" transform="translate(650.056641 0)"/>
      <use xlink:href="#DejaVuSans-74" transform="translate(677.839844 0)"/>
      <use xlink:href="#DejaVuSans-69" transform="translate(717.048828 0)"/>
      <use xlink:href="#DejaVuSans-76" transform="translate(744.832031 0)"/>
      <use xlink:href="#DejaVuSans-69" transform="translate(804.011719 0)"/>
      <use xlink:href="#DejaVuSans-74" transform="translate(831.794922 0)"/>
      <use xlink:href="#DejaVuSans-79" transform="translate(871.003906 0)"/>
      <use xlink:href="#DejaVuSans-29" transform="translate(930.183594 0)"/>
     </g>
    </g>
   </g>
  </g>
 </g>
 <defs>
  <clipPath id="p4ead914fb7">
   <rect x="33.872813" y="1.44" width="410.13" height="271.656"/>
  </clipPath>
 </defs>
</svg>