<?xml version="1.0" encoding="utf-8" standalone="no"?>
<!DOCTYPE svg PUBLIC "-//W3C//DTD SVG 1.1//EN"
  "http://www.w3.org/Graphics/SVG/1.1/DTD/svg11.dtd">
<svg xmlns:xlink="http://www.w3.org/1999/xlink" width="405.061pt" height="311.616424pt" viewBox="0 0 405.061 311.616424" xmlns="http://www.w3.org/2000/svg" version="1.1">
 <metadata>
  <rdf:RDF xmlns:dc="http://purl.org/dc/elements/1.1/" xmlns:cc="http://creativecommons.org/ns#" xmlns:rdf="http://www.w3.org/1999/02/22-rdf-syntax-ns#">
   <cc:Work>
    <dc:type rdf:resource="http://purl.org/dc/dcmitype/StillImage"/>
    <dc:date>2023-12-08T18:28:55.964129</dc:date>
    <dc:format>image/svg+xml</dc:format>
    <dc:creator>
     <cc:Agent>
      <dc:title>Matplotlib v3.8.0, https://matplotlib.org/</dc:title>
     </cc:Agent>
    </dc:creator>
   </cc:Work>
  </rdf:RDF>
 </metadata>
 <defs>
  <style type="text/css">*{stroke-linejoin: round; stroke-linecap: butt}</style>
 </defs>
 <g id="figure_1">
  <g id="patch_1">
   <path d="M 0 311.616424 
L 405.061 311.616424 
L 405.061 0 
L 0 0 
z
" style="fill: #ffffff"/>
  </g>
  <g id="axes_1">
   <g id="patch_2">
    <path d="M 40.741 275.289049 
L 397.861 275.289049 
L 397.861 9.177049 
L 40.741 9.177049 
z
" style="fill: #ffffff"/>
   </g>
   <g id="matplotlib.axis_1">
    <g id="xtick_1">
     <g id="line2d_1">
      <defs>
       <path id="m4d39c1ea5e" d="M 0 0 
L 0 4.8 
" style="stroke: #262626"/>
      </defs>
      <g>
       <use xlink:href="#m4d39c1ea5e" x="56.973727" y="275.289049" style="fill: #262626; stroke: #262626"/>
      </g>
     </g>
     <g id="text_1">
      <!-- 0 -->
      <g style="fill: #262626" transform="translate(54.526915 289.887924) scale(0.088 -0.088)">
       <defs>
        <path id="ArialMT-30" d="M 266 2259 
Q 266 3072 433 3567 
Q 600 4063 929 4331 
Q 1259 4600 1759 4600 
Q 2128 4600 2406 4451 
Q 2684 4303 2865 4023 
Q 3047 3744 3150 3342 
Q 3253 2941 3253 2259 
Q 3253 1453 3087 958 
Q 2922 463 2592 192 
Q 2263 -78 1759 -78 
Q 1097 -78 719 397 
Q 266 969 266 2259 
z
M 844 2259 
Q 844 1131 1108 757 
Q 1372 384 1759 384 
Q 2147 384 2411 759 
Q 2675 1134 2675 2259 
Q 2675 3391 2411 3762 
Q 2147 4134 1753 4134 
Q 1366 4134 1134 3806 
Q 844 3388 844 2259 
z
" transform="scale(0.015625)"/>
       </defs>
       <use xlink:href="#ArialMT-30"/>
      </g>
     </g>
    </g>
    <g id="xtick_2">
     <g id="line2d_2">
      <g>
       <use xlink:href="#m4d39c1ea5e" x="121.937134" y="275.289049" style="fill: #262626; stroke: #262626"/>
      </g>
     </g>
     <g id="text_2">
      <!-- 5 -->
      <g style="fill: #262626" transform="translate(119.490322 289.887924) scale(0.088 -0.088)">
       <defs>
        <path id="ArialMT-35" d="M 266 1200 
L 856 1250 
Q 922 819 1161 601 
Q 1400 384 1738 384 
Q 2144 384 2425 690 
Q 2706 997 2706 1503 
Q 2706 1984 2436 2262 
Q 2166 2541 1728 2541 
Q 1456 2541 1237 2417 
Q 1019 2294 894 2097 
L 366 2166 
L 809 4519 
L 3088 4519 
L 3088 3981 
L 1259 3981 
L 1013 2750 
Q 1425 3038 1878 3038 
Q 2478 3038 2890 2622 
Q 3303 2206 3303 1553 
Q 3303 931 2941 478 
Q 2500 -78 1738 -78 
Q 1113 -78 717 272 
Q 322 622 266 1200 
z
" transform="scale(0.015625)"/>
       </defs>
       <use xlink:href="#ArialMT-35"/>
      </g>
     </g>
    </g>
    <g id="xtick_3">
     <g id="line2d_3">
      <g>
       <use xlink:href="#m4d39c1ea5e" x="186.900541" y="275.289049" style="fill: #262626; stroke: #262626"/>
      </g>
     </g>
     <g id="text_3">
      <!-- 10 -->
      <g style="fill: #262626" transform="translate(182.006916 289.887924) scale(0.088 -0.088)">
       <defs>
        <path id="ArialMT-31" d="M 2384 0 
L 1822 0 
L 1822 3584 
Q 1619 3391 1289 3197 
Q 959 3003 697 2906 
L 697 3450 
Q 1169 3672 1522 3987 
Q 1875 4303 2022 4600 
L 2384 4600 
L 2384 0 
z
" transform="scale(0.015625)"/>
       </defs>
       <use xlink:href="#ArialMT-31"/>
       <use xlink:href="#ArialMT-30" x="55.615234"/>
      </g>
     </g>
    </g>
    <g id="xtick_4">
     <g id="line2d_4">
      <g>
       <use xlink:href="#m4d39c1ea5e" x="251.863948" y="275.289049" style="fill: #262626; stroke: #262626"/>
      </g>
     </g>
     <g id="text_4">
      <!-- 15 -->
      <g style="fill: #262626" transform="translate(246.970323 289.887924) scale(0.088 -0.088)">
       <use xlink:href="#ArialMT-31"/>
       <use xlink:href="#ArialMT-35" x="55.615234"/>
      </g>
     </g>
    </g>
    <g id="xtick_5">
     <g id="line2d_5">
      <g>
       <use xlink:href="#m4d39c1ea5e" x="316.827355" y="275.289049" style="fill: #262626; stroke: #262626"/>
      </g>
     </g>
     <g id="text_5">
      <!-- 20 -->
      <g style="fill: #262626" transform="translate(311.93373 289.887924) scale(0.088 -0.088)">
       <defs>
        <path id="ArialMT-32" d="M 3222 541 
L 3222 0 
L 194 0 
Q 188 203 259 391 
Q 375 700 629 1000 
Q 884 1300 1366 1694 
Q 2113 2306 2375 2664 
Q 2638 3022 2638 3341 
Q 2638 3675 2398 3904 
Q 2159 4134 1775 4134 
Q 1369 4134 1125 3890 
Q 881 3647 878 3216 
L 300 3275 
Q 359 3922 746 4261 
Q 1134 4600 1788 4600 
Q 2447 4600 2831 4234 
Q 3216 3869 3216 3328 
Q 3216 3053 3103 2787 
Q 2991 2522 2730 2228 
Q 2469 1934 1863 1422 
Q 1356 997 1212 845 
Q 1069 694 975 541 
L 3222 541 
z
" transform="scale(0.015625)"/>
       </defs>
       <use xlink:href="#ArialMT-32"/>
       <use xlink:href="#ArialMT-30" x="55.615234"/>
      </g>
     </g>
    </g>
    <g id="xtick_6">
     <g id="line2d_6">
      <g>
       <use xlink:href="#m4d39c1ea5e" x="381.790762" y="275.289049" style="fill: #262626; stroke: #262626"/>
      </g>
     </g>
     <g id="text_6">
      <!-- 25 -->
      <g style="fill: #262626" transform="translate(376.897137 289.887924) scale(0.088 -0.088)">
       <use xlink:href="#ArialMT-32"/>
       <use xlink:href="#ArialMT-35" x="55.615234"/>
      </g>
     </g>
    </g>
    <g id="text_7">
     <!-- t -->
     <g style="fill: #262626" transform="translate(217.9675 302.508424) scale(0.096 -0.096)">
      <defs>
       <path id="ArialMT-74" d="M 1650 503 
L 1731 6 
Q 1494 -44 1306 -44 
Q 1000 -44 831 53 
Q 663 150 594 308 
Q 525 466 525 972 
L 525 2881 
L 113 2881 
L 113 3319 
L 525 3319 
L 525 4141 
L 1084 4478 
L 1084 3319 
L 1650 3319 
L 1650 2881 
L 1084 2881 
L 1084 941 
Q 1084 700 1114 631 
Q 1144 563 1211 522 
Q 1278 481 1403 481 
Q 1497 481 1650 503 
z
" transform="scale(0.015625)"/>
      </defs>
      <use xlink:href="#ArialMT-74"/>
     </g>
    </g>
   </g>
   <g id="matplotlib.axis_2">
    <g id="ytick_1">
     <g id="line2d_7">
      <defs>
       <path id="mf531468799" d="M 0 0 
L -4.8 0 
" style="stroke: #262626"/>
      </defs>
      <g>
       <use xlink:href="#mf531468799" x="40.741" y="263.193049" style="fill: #262626; stroke: #262626"/>
      </g>
     </g>
     <g id="text_8">
      <!-- 0.0 -->
      <g style="fill: #262626" transform="translate(20.209 266.342487) scale(0.088 -0.088)">
       <defs>
        <path id="ArialMT-2e" d="M 581 0 
L 581 641 
L 1222 641 
L 1222 0 
L 581 0 
z
" transform="scale(0.015625)"/>
       </defs>
       <use xlink:href="#ArialMT-30"/>
       <use xlink:href="#ArialMT-2e" x="55.615234"/>
       <use xlink:href="#ArialMT-30" x="83.398438"/>
      </g>
     </g>
    </g>
    <g id="ytick_2">
     <g id="line2d_8">
      <g>
       <use xlink:href="#mf531468799" x="40.741" y="212.624327" style="fill: #262626; stroke: #262626"/>
      </g>
     </g>
     <g id="text_9">
      <!-- 0.1 -->
      <g style="fill: #262626" transform="translate(20.209 215.773764) scale(0.088 -0.088)">
       <use xlink:href="#ArialMT-30"/>
       <use xlink:href="#ArialMT-2e" x="55.615234"/>
       <use xlink:href="#ArialMT-31" x="83.398438"/>
      </g>
     </g>
    </g>
    <g id="ytick_3">
     <g id="line2d_9">
      <g>
       <use xlink:href="#mf531468799" x="40.741" y="162.055605" style="fill: #262626; stroke: #262626"/>
      </g>
     </g>
     <g id="text_10">
      <!-- 0.2 -->
      <g style="fill: #262626" transform="translate(20.209 165.205042) scale(0.088 -0.088)">
       <use xlink:href="#ArialMT-30"/>
       <use xlink:href="#ArialMT-2e" x="55.615234"/>
       <use xlink:href="#ArialMT-32" x="83.398438"/>
      </g>
     </g>
    </g>
    <g id="ytick_4">
     <g id="line2d_10">
      <g>
       <use xlink:href="#mf531468799" x="40.741" y="111.486882" style="fill: #262626; stroke: #262626"/>
      </g>
     </g>
     <g id="text_11">
      <!-- 0.3 -->
      <g style="fill: #262626" transform="translate(20.209 114.63632) scale(0.088 -0.088)">
       <defs>
        <path id="ArialMT-33" d="M 269 1209 
L 831 1284 
Q 928 806 1161 595 
Q 1394 384 1728 384 
Q 2125 384 2398 659 
Q 2672 934 2672 1341 
Q 2672 1728 2419 1979 
Q 2166 2231 1775 2231 
Q 1616 2231 1378 2169 
L 1441 2663 
Q 1497 2656 1531 2656 
Q 1891 2656 2178 2843 
Q 2466 3031 2466 3422 
Q 2466 3731 2256 3934 
Q 2047 4138 1716 4138 
Q 1388 4138 1169 3931 
Q 950 3725 888 3313 
L 325 3413 
Q 428 3978 793 4289 
Q 1159 4600 1703 4600 
Q 2078 4600 2393 4439 
Q 2709 4278 2876 4000 
Q 3044 3722 3044 3409 
Q 3044 3113 2884 2869 
Q 2725 2625 2413 2481 
Q 2819 2388 3044 2092 
Q 3269 1797 3269 1353 
Q 3269 753 2831 336 
Q 2394 -81 1725 -81 
Q 1122 -81 723 278 
Q 325 638 269 1209 
z
" transform="scale(0.015625)"/>
       </defs>
       <use xlink:href="#ArialMT-30"/>
       <use xlink:href="#ArialMT-2e" x="55.615234"/>
       <use xlink:href="#ArialMT-33" x="83.398438"/>
      </g>
     </g>
    </g>
    <g id="ytick_5">
     <g id="line2d_11">
      <g>
       <use xlink:href="#mf531468799" x="40.741" y="60.91816" style="fill: #262626; stroke: #262626"/>
      </g>
     </g>
     <g id="text_12">
      <!-- 0.4 -->
      <g style="fill: #262626" transform="translate(20.209 64.067597) scale(0.088 -0.088)">
       <defs>
        <path id="ArialMT-34" d="M 2069 0 
L 2069 1097 
L 81 1097 
L 81 1613 
L 2172 4581 
L 2631 4581 
L 2631 1613 
L 3250 1613 
L 3250 1097 
L 2631 1097 
L 2631 0 
L 2069 0 
z
M 2069 1613 
L 2069 3678 
L 634 1613 
L 2069 1613 
z
" transform="scale(0.015625)"/>
       </defs>
       <use xlink:href="#ArialMT-30"/>
       <use xlink:href="#ArialMT-2e" x="55.615234"/>
       <use xlink:href="#ArialMT-34" x="83.398438"/>
      </g>
     </g>
    </g>
    <g id="ytick_6">
     <g id="line2d_12">
      <g>
       <use xlink:href="#mf531468799" x="40.741" y="10.349437" style="fill: #262626; stroke: #262626"/>
      </g>
     </g>
     <g id="text_13">
      <!-- 0.5 -->
      <g style="fill: #262626" transform="translate(20.209 13.498875) scale(0.088 -0.088)">
       <use xlink:href="#ArialMT-30"/>
       <use xlink:href="#ArialMT-2e" x="55.615234"/>
       <use xlink:href="#ArialMT-35" x="83.398438"/>
      </g>
     </g>
    </g>
    <g id="text_14">
     <!-- x(t) -->
     <g style="fill: #262626" transform="translate(14.1885 149.163049) rotate(-90) scale(0.096 -0.096)">
      <defs>
       <path id="ArialMT-78" d="M 47 0 
L 1259 1725 
L 138 3319 
L 841 3319 
L 1350 2541 
Q 1494 2319 1581 2169 
Q 1719 2375 1834 2534 
L 2394 3319 
L 3066 3319 
L 1919 1756 
L 3153 0 
L 2463 0 
L 1781 1031 
L 1600 1309 
L 728 0 
L 47 0 
z
" transform="scale(0.015625)"/>
       <path id="ArialMT-28" d="M 1497 -1347 
Q 1031 -759 709 28 
Q 388 816 388 1659 
Q 388 2403 628 3084 
Q 909 3875 1497 4659 
L 1900 4659 
Q 1522 4009 1400 3731 
Q 1209 3300 1100 2831 
Q 966 2247 966 1656 
Q 966 153 1900 -1347 
L 1497 -1347 
z
" transform="scale(0.015625)"/>
       <path id="ArialMT-29" d="M 791 -1347 
L 388 -1347 
Q 1322 153 1322 1656 
Q 1322 2244 1188 2822 
Q 1081 3291 891 3722 
Q 769 4003 388 4659 
L 791 4659 
Q 1378 3875 1659 3084 
Q 1900 2403 1900 1659 
Q 1900 816 1576 28 
Q 1253 -759 791 -1347 
z
" transform="scale(0.015625)"/>
      </defs>
      <use xlink:href="#ArialMT-78"/>
      <use xlink:href="#ArialMT-28" x="50"/>
      <use xlink:href="#ArialMT-74" x="83.300781"/>
      <use xlink:href="#ArialMT-29" x="111.083984"/>
     </g>
    </g>
   </g>
   <g id="line2d_13">
    <path d="M 56.973727 263.193049 
L 58.923604 263.088641 
L 60.873482 262.782108 
L 63.148338 262.191279 
L 65.748174 261.256487 
L 68.99797 259.807883 
L 79.072335 255.080453 
L 84.596987 253.009268 
L 87.846782 251.635869 
L 90.446618 250.282501 
L 93.371434 248.474768 
L 98.571106 245.128657 
L 100.196004 244.398716 
L 101.495922 244.090478 
L 102.470861 244.079819 
L 103.445799 244.300067 
L 104.420738 244.782355 
L 105.395676 245.544165 
L 106.370615 246.579121 
L 107.670533 248.298861 
L 109.62041 250.938612 
L 110.270369 251.531916 
L 110.920328 251.813607 
L 111.570287 251.702379 
L 112.220247 251.170447 
L 112.870206 250.252039 
L 113.845144 248.321038 
L 115.470042 244.32681 
L 118.394857 237.04636 
L 120.344735 232.871887 
L 122.294612 229.214147 
L 125.544407 223.674028 
L 128.144243 219.564336 
L 129.444161 217.835276 
L 130.4191 216.841559 
L 131.069059 216.387668 
L 131.719018 216.146266 
L 132.368977 216.158654 
L 133.018936 216.466239 
L 133.668895 217.108373 
L 134.318854 218.119776 
L 134.968813 219.527703 
L 135.943752 222.415391 
L 136.91869 226.220878 
L 138.218609 232.507976 
L 140.493465 244.154413 
L 141.143424 246.279807 
L 141.468404 246.849999 
L 141.793383 247.022607 
L 142.118363 246.780702 
L 142.443342 246.143455 
L 143.093301 243.891931 
L 144.06824 239.008985 
L 147.643015 219.511476 
L 148.942933 213.800007 
L 150.242851 208.946224 
L 151.867749 203.843523 
L 153.492646 199.477031 
L 155.442523 194.829731 
L 157.3924 190.720755 
L 158.692319 188.426165 
L 159.667257 187.074855 
L 160.642196 186.160338 
L 161.292155 185.851525 
L 161.942114 185.823968 
L 162.592073 186.109843 
L 163.242032 186.737227 
L 163.891991 187.728123 
L 164.54195 189.09693 
L 165.516889 191.866999 
L 166.491827 195.468116 
L 167.791745 201.397853 
L 169.741622 211.806785 
L 171.36652 220.311482 
L 172.341459 224.439255 
L 172.991418 226.467754 
L 173.641377 227.759754 
L 173.966356 228.101458 
L 174.291336 228.23405 
L 174.616315 228.159213 
L 174.941295 227.883578 
L 175.591254 226.777573 
L 176.241213 225.039851 
L 177.216152 221.567787 
L 178.841049 214.54594 
L 182.415824 198.768876 
L 184.365701 191.309098 
L 185.990599 185.878772 
L 187.615496 181.168063 
L 189.240394 177.184505 
L 190.540312 174.538716 
L 191.84023 172.39634 
L 192.815169 171.133457 
L 193.790107 170.17436 
L 194.765046 169.524099 
L 195.739984 169.183774 
L 196.714923 169.149752 
L 197.689862 169.413224 
L 198.6648 169.960282 
L 199.639739 170.772228 
L 200.939657 172.226863 
L 202.239575 174.048566 
L 203.864473 176.736017 
L 206.139329 181.014116 
L 212.963899 194.256835 
L 214.913776 197.427588 
L 216.538674 199.674502 
L 217.838592 201.160212 
L 219.13851 202.327212 
L 220.113449 202.9699 
L 221.088387 203.395092 
L 222.063326 203.587024 
L 223.038265 203.53098 
L 224.013203 203.213988 
L 224.988142 202.62552 
L 225.96308 201.75814 
L 226.938019 200.608136 
L 228.237937 198.636593 
L 229.537855 196.177545 
L 230.837773 193.259271 
L 232.462671 189.032096 
L 234.412548 183.263276 
L 237.337364 173.727146 
L 241.237118 161.019187 
L 243.186995 155.432458 
L 244.811893 151.484851 
L 246.111811 148.907769 
L 247.086749 147.36054 
L 248.061688 146.171767 
L 249.036627 145.362187 
L 249.686586 145.041589 
L 250.336545 144.901108 
L 250.986504 144.944044 
L 251.636463 145.172975 
L 252.286422 145.589784 
L 253.26136 146.569625 
L 254.236299 147.975438 
L 255.211238 149.803576 
L 256.186176 152.044989 
L 257.486094 155.647478 
L 258.786012 159.889702 
L 260.41091 165.919854 
L 264.635644 182.238079 
L 265.610582 185.105904 
L 266.260541 186.581909 
L 266.9105 187.627202 
L 267.560459 188.179835 
L 267.885439 188.255724 
L 268.210419 188.191809 
L 268.535398 187.985107 
L 269.185357 187.138257 
L 269.835316 185.719724 
L 270.485275 183.755845 
L 271.460214 179.890735 
L 272.760132 173.354871 
L 274.385029 163.764879 
L 278.609763 138.126351 
L 280.234661 129.902808 
L 281.534579 124.432914 
L 282.509518 121.061157 
L 283.484456 118.358386 
L 284.459395 116.353266 
L 285.109354 115.415223 
L 285.759313 114.802239 
L 286.409272 114.518414 
L 287.059231 114.56673 
L 287.70919 114.949057 
L 288.359149 115.665878 
L 289.009108 116.715911 
L 289.984047 118.908073 
L 290.958985 121.820356 
L 291.933924 125.41421 
L 293.233842 131.160123 
L 294.85874 139.558342 
L 299.083473 162.365697 
L 300.058412 166.30653 
L 300.708371 168.340729 
L 301.35833 169.813086 
L 302.008289 170.666266 
L 302.333269 170.848704 
L 302.658248 170.865078 
L 302.983228 170.714975 
L 303.308207 170.399712 
L 303.958166 169.286744 
L 304.608125 167.566881 
L 305.583064 163.9843 
L 306.558002 159.427703 
L 308.1829 150.417841 
L 312.732613 124.049005 
L 314.032532 117.824855 
L 315.33245 112.600447 
L 316.307388 109.416018 
L 317.282327 106.902564 
L 318.257265 105.083853 
L 318.907224 104.263632 
L 319.557183 103.758344 
L 320.207143 103.566253 
L 320.857102 103.683382 
L 321.507061 104.103371 
L 322.15702 104.817479 
L 322.806979 105.814538 
L 323.781917 107.810119 
L 324.756856 110.354678 
L 326.056774 114.481084 
L 327.681672 120.537587 
L 333.206324 142.276169 
L 334.506242 146.12547 
L 335.48118 148.388924 
L 336.456119 150.051172 
L 337.106078 150.808834 
L 337.756037 151.283017 
L 338.405996 151.477534 
L 339.055955 151.401661 
L 339.705914 151.069586 
L 340.355873 150.499712 
L 341.330812 149.247394 
L 342.30575 147.592658 
L 343.605668 144.914551 
L 345.555545 140.309501 
L 348.805341 132.553058 
L 350.430238 129.181903 
L 351.730156 126.881082 
L 353.030075 124.982903 
L 354.329993 123.50946 
L 355.304931 122.685367 
L 356.27987 122.097204 
L 357.254808 121.73575 
L 358.229747 121.588419 
L 359.204686 121.639795 
L 360.179624 121.872395 
L 361.479542 122.431592 
L 362.77946 123.232205 
L 364.404358 124.499934 
L 366.679215 126.613126 
L 375.128682 134.857481 
L 377.403539 136.591646 
L 379.353416 137.785996 
L 380.978314 138.540079 
L 381.628273 138.773327 
L 381.628273 138.773327 
" clip-path="url(#p790f6b6939)" style="fill: none; stroke: #1f77b4; stroke-width: 1.2; stroke-linecap: round"/>
   </g>
   <g id="line2d_14">
    <path d="M 56.973727 263.193049 
L 58.923604 263.088614 
L 60.873482 262.781994 
L 63.148338 262.190965 
L 65.748174 261.255767 
L 68.99797 259.806342 
L 79.072335 255.073793 
L 89.1467 250.959638 
L 91.746536 249.466996 
L 94.996332 247.31867 
L 98.246127 245.209209 
L 99.871025 244.406214 
L 101.170943 244.019459 
L 102.145881 243.940045 
L 103.12082 244.086778 
L 104.095758 244.496664 
L 105.070697 245.196053 
L 106.045636 246.191066 
L 107.345554 247.922031 
L 109.62041 251.229518 
L 110.270369 251.864147 
L 110.920328 252.157097 
L 111.245308 252.145136 
L 111.895267 251.776715 
L 112.545226 250.967874 
L 113.195185 249.793034 
L 114.170124 247.562845 
L 119.369796 234.622463 
L 121.319673 230.768987 
L 123.919509 226.205132 
L 128.469223 218.638728 
L 129.769141 216.815082 
L 130.744079 215.764232 
L 131.394038 215.28889 
L 132.043998 215.047672 
L 132.693957 215.090564 
L 133.343916 215.469121 
L 133.993875 216.233967 
L 134.643834 217.432064 
L 135.293793 219.103345 
L 135.943752 221.276798 
L 136.91869 225.503794 
L 137.893629 230.846494 
L 139.193547 239.349703 
L 140.818445 250.029713 
L 141.143424 251.501355 
L 141.468404 252.397363 
L 141.793383 252.551333 
L 142.118363 251.927297 
L 142.443342 250.647422 
L 143.093301 246.861208 
L 146.993056 220.947491 
L 148.292974 214.528903 
L 149.592892 209.339242 
L 150.89281 205.117999 
L 152.517708 200.743314 
L 154.792564 195.391984 
L 159.017298 186.002192 
L 160.317216 183.604955 
L 161.292155 182.249079 
L 161.942114 181.647946 
L 162.592073 181.352195 
L 163.242032 181.417917 
L 163.891991 181.900521 
L 164.54195 182.852833 
L 165.191909 184.321976 
L 165.841868 186.347307 
L 166.491827 188.957139 
L 167.466766 193.995812 
L 168.441704 200.359666 
L 169.741622 210.686832 
L 171.6915 228.680548 
L 172.991418 240.062454 
L 173.641377 244.139173 
L 173.966356 245.354137 
L 174.291336 245.850385 
L 174.616315 245.580077 
L 174.941295 244.596472 
L 175.591254 241.027174 
L 176.566192 233.629066 
L 179.166029 212.951281 
L 180.465947 204.152865 
L 181.765865 196.65945 
L 183.065783 190.379293 
L 184.365701 185.137002 
L 185.665619 180.729559 
L 187.290517 176.095489 
L 188.915414 172.129943 
L 190.865292 167.919021 
L 193.465128 162.873601 
L 195.739984 158.939412 
L 197.364882 156.51574 
L 198.6648 154.907773 
L 199.964718 153.682959 
L 200.939657 153.069536 
L 201.914595 152.76064 
L 202.564554 152.742619 
L 203.214514 152.888222 
L 203.864473 153.207592 
L 204.514432 153.711168 
L 205.48937 154.832705 
L 206.464309 156.419257 
L 207.439247 158.496546 
L 208.414186 161.085615 
L 209.389124 164.203083 
L 210.689043 169.200303 
L 211.988961 175.167787 
L 213.288879 182.099513 
L 214.913776 192.077855 
L 216.538674 203.420314 
L 218.488551 218.590724 
L 222.713285 252.500875 
L 223.038265 253.757782 
L 223.363244 254.090511 
L 223.688224 253.394174 
L 224.013203 251.851012 
L 224.663162 247.303604 
L 226.28806 233.212792 
L 229.862835 201.648039 
L 231.812712 186.217676 
L 233.437609 174.836534 
L 235.062507 164.982654 
L 236.362425 158.247563 
L 237.662343 152.522565 
L 238.962261 147.758349 
L 240.262179 143.872313 
L 241.562097 140.757209 
L 242.862016 138.290184 
L 244.161934 136.34355 
L 245.461852 134.795645 
L 247.086749 133.265268 
L 248.711647 132.0583 
L 250.336545 131.137252 
L 251.636463 130.663815 
L 252.611401 130.53433 
L 253.58634 130.680596 
L 254.236299 130.979421 
L 254.886258 131.479879 
L 255.536217 132.221717 
L 256.186176 133.249343 
L 256.836135 134.610642 
L 257.486094 136.357205 
L 258.461033 139.817393 
L 259.435971 144.451188 
L 260.41091 150.438491 
L 261.385848 157.938242 
L 262.360787 167.068491 
L 263.660705 181.857424 
L 264.960623 199.470462 
L 267.885439 241.871873 
L 268.210419 244.206309 
L 268.535398 244.724072 
L 268.860378 243.244373 
L 269.185357 240.133674 
L 269.835316 231.122614 
L 274.385029 159.607498 
L 275.684948 144.254962 
L 276.984866 131.884418 
L 277.959804 124.425848 
L 278.934743 118.332465 
L 279.909681 113.387806 
L 280.88462 109.361447 
L 282.184538 105.036051 
L 283.484456 101.478423 
L 285.434333 96.855346 
L 287.70919 92.046681 
L 289.009108 89.812332 
L 289.659067 88.978625 
L 290.309026 88.424184 
L 290.958985 88.231762 
L 291.283965 88.300011 
L 291.608944 88.49454 
L 292.258903 89.315797 
L 292.908862 90.805609 
L 293.558821 93.078736 
L 294.208781 96.250616 
L 294.85874 100.434331 
L 295.508699 105.733747 
L 296.483637 115.968552 
L 297.458576 129.129991 
L 298.433514 145.29216 
L 299.733432 171.292539 
L 301.35833 209.593713 
L 302.983228 248.935944 
L 303.308207 252.688867 
L 303.633187 250.113875 
L 304.283146 235.874801 
L 306.882982 173.42253 
L 308.1829 147.13123 
L 309.482818 125.272136 
L 310.782736 107.81962 
L 311.757675 97.367152 
L 312.732613 88.867929 
L 313.707552 81.99926 
L 314.682491 76.432415 
L 315.982409 70.498122 
L 317.282327 65.685715 
L 318.907224 60.527008 
L 321.182081 54.047661 
L 322.806979 49.961671 
L 323.781917 47.94919 
L 324.756856 46.488721 
L 325.406815 45.937333 
L 326.056774 45.816519 
L 326.381753 45.943944 
L 326.706733 46.212019 
L 327.356692 47.214713 
L 328.006651 48.917048 
L 328.65661 51.411799 
L 329.306569 54.787656 
L 329.956528 59.128214 
L 330.931467 67.605218 
L 331.906405 78.608188 
L 332.881344 92.24125 
L 334.181262 114.485209 
L 335.48118 141.020477 
L 337.106078 178.940765 
L 339.380934 233.934752 
L 339.705914 239.936163 
L 340.030894 243.752423 
L 340.355873 244.052873 
L 340.680853 240.746964 
L 341.330812 228.402607 
L 345.230566 143.304122 
L 346.530484 120.504685 
L 347.830402 101.250874 
L 349.13032 85.395541 
L 350.430238 72.615423 
L 351.730156 62.486045 
L 353.030075 54.544844 
L 354.329993 48.333288 
L 355.629911 43.431192 
L 356.929829 39.473607 
L 358.229747 36.16474 
L 359.854645 32.607614 
L 361.804522 28.85023 
L 363.754399 25.535147 
L 365.054317 23.658804 
L 366.029256 22.519452 
L 367.004194 21.698245 
L 367.654153 21.376224 
L 368.304112 21.273049 
L 368.954071 21.425455 
L 369.60403 21.872278 
L 370.253989 22.656061 
L 370.903948 23.819512 
L 371.553907 25.408995 
L 372.203867 27.470684 
L 373.178805 31.552076 
L 374.153744 36.961427 
L 375.128682 43.851845 
L 376.103621 52.364791 
L 377.078559 62.620884 
L 378.378477 79.168 
L 379.678396 99.102081 
L 380.978314 122.398395 
L 381.628273 135.251757 
L 381.628273 135.251757 
" clip-path="url(#p790f6b6939)" style="fill: none; stroke-dasharray: 4.44,1.92; stroke-dashoffset: 0; stroke: #ff7f0e; stroke-width: 1.2"/>
   </g>
   <g id="patch_3">
    <path d="M 40.741 263.193049 
L 40.741 10.349437 
" style="fill: none; stroke: #262626; stroke-linejoin: miter; stroke-linecap: square"/>
   </g>
   <g id="patch_4">
    <path d="M 56.973727 275.289049 
L 381.790762 275.289049 
" style="fill: none; stroke: #262626; stroke-linejoin: miter; stroke-linecap: square"/>
   </g>
   <g id="legend_1">
    <g id="line2d_15">
     <path d="M 48.661 20.423174 
L 57.461 20.423174 
L 66.261 20.423174 
" style="fill: none; stroke: #1f77b4; stroke-width: 1.2; stroke-linecap: round"/>
    </g>
    <g id="text_15">
     <!-- x (Monte Carlo) -->
     <g style="fill: #262626" transform="translate(73.301 23.503174) scale(0.088 -0.088)">
      <defs>
       <path id="ArialMT-20" transform="scale(0.015625)"/>
       <path id="ArialMT-4d" d="M 475 0 
L 475 4581 
L 1388 4581 
L 2472 1338 
Q 2622 884 2691 659 
Q 2769 909 2934 1394 
L 4031 4581 
L 4847 4581 
L 4847 0 
L 4263 0 
L 4263 3834 
L 2931 0 
L 2384 0 
L 1059 3900 
L 1059 0 
L 475 0 
z
" transform="scale(0.015625)"/>
       <path id="ArialMT-6f" d="M 213 1659 
Q 213 2581 725 3025 
Q 1153 3394 1769 3394 
Q 2453 3394 2887 2945 
Q 3322 2497 3322 1706 
Q 3322 1066 3130 698 
Q 2938 331 2570 128 
Q 2203 -75 1769 -75 
Q 1072 -75 642 372 
Q 213 819 213 1659 
z
M 791 1659 
Q 791 1022 1069 705 
Q 1347 388 1769 388 
Q 2188 388 2466 706 
Q 2744 1025 2744 1678 
Q 2744 2294 2464 2611 
Q 2184 2928 1769 2928 
Q 1347 2928 1069 2612 
Q 791 2297 791 1659 
z
" transform="scale(0.015625)"/>
       <path id="ArialMT-6e" d="M 422 0 
L 422 3319 
L 928 3319 
L 928 2847 
Q 1294 3394 1984 3394 
Q 2284 3394 2536 3286 
Q 2788 3178 2913 3003 
Q 3038 2828 3088 2588 
Q 3119 2431 3119 2041 
L 3119 0 
L 2556 0 
L 2556 2019 
Q 2556 2363 2490 2533 
Q 2425 2703 2258 2804 
Q 2091 2906 1866 2906 
Q 1506 2906 1245 2678 
Q 984 2450 984 1813 
L 984 0 
L 422 0 
z
" transform="scale(0.015625)"/>
       <path id="ArialMT-65" d="M 2694 1069 
L 3275 997 
Q 3138 488 2766 206 
Q 2394 -75 1816 -75 
Q 1088 -75 661 373 
Q 234 822 234 1631 
Q 234 2469 665 2931 
Q 1097 3394 1784 3394 
Q 2450 3394 2872 2941 
Q 3294 2488 3294 1666 
Q 3294 1616 3291 1516 
L 816 1516 
Q 847 969 1125 678 
Q 1403 388 1819 388 
Q 2128 388 2347 550 
Q 2566 713 2694 1069 
z
M 847 1978 
L 2700 1978 
Q 2663 2397 2488 2606 
Q 2219 2931 1791 2931 
Q 1403 2931 1139 2672 
Q 875 2413 847 1978 
z
" transform="scale(0.015625)"/>
       <path id="ArialMT-43" d="M 3763 1606 
L 4369 1453 
Q 4178 706 3683 314 
Q 3188 -78 2472 -78 
Q 1731 -78 1267 223 
Q 803 525 561 1097 
Q 319 1669 319 2325 
Q 319 3041 592 3573 
Q 866 4106 1370 4382 
Q 1875 4659 2481 4659 
Q 3169 4659 3637 4309 
Q 4106 3959 4291 3325 
L 3694 3184 
Q 3534 3684 3231 3912 
Q 2928 4141 2469 4141 
Q 1941 4141 1586 3887 
Q 1231 3634 1087 3207 
Q 944 2781 944 2328 
Q 944 1744 1114 1308 
Q 1284 872 1643 656 
Q 2003 441 2422 441 
Q 2931 441 3284 734 
Q 3638 1028 3763 1606 
z
" transform="scale(0.015625)"/>
       <path id="ArialMT-61" d="M 2588 409 
Q 2275 144 1986 34 
Q 1697 -75 1366 -75 
Q 819 -75 525 192 
Q 231 459 231 875 
Q 231 1119 342 1320 
Q 453 1522 633 1644 
Q 813 1766 1038 1828 
Q 1203 1872 1538 1913 
Q 2219 1994 2541 2106 
Q 2544 2222 2544 2253 
Q 2544 2597 2384 2738 
Q 2169 2928 1744 2928 
Q 1347 2928 1158 2789 
Q 969 2650 878 2297 
L 328 2372 
Q 403 2725 575 2942 
Q 747 3159 1072 3276 
Q 1397 3394 1825 3394 
Q 2250 3394 2515 3294 
Q 2781 3194 2906 3042 
Q 3031 2891 3081 2659 
Q 3109 2516 3109 2141 
L 3109 1391 
Q 3109 606 3145 398 
Q 3181 191 3288 0 
L 2700 0 
Q 2613 175 2588 409 
z
M 2541 1666 
Q 2234 1541 1622 1453 
Q 1275 1403 1131 1340 
Q 988 1278 909 1158 
Q 831 1038 831 891 
Q 831 666 1001 516 
Q 1172 366 1500 366 
Q 1825 366 2078 508 
Q 2331 650 2450 897 
Q 2541 1088 2541 1459 
L 2541 1666 
z
" transform="scale(0.015625)"/>
       <path id="ArialMT-72" d="M 416 0 
L 416 3319 
L 922 3319 
L 922 2816 
Q 1116 3169 1280 3281 
Q 1444 3394 1641 3394 
Q 1925 3394 2219 3213 
L 2025 2691 
Q 1819 2813 1613 2813 
Q 1428 2813 1281 2702 
Q 1134 2591 1072 2394 
Q 978 2094 978 1738 
L 978 0 
L 416 0 
z
" transform="scale(0.015625)"/>
       <path id="ArialMT-6c" d="M 409 0 
L 409 4581 
L 972 4581 
L 972 0 
L 409 0 
z
" transform="scale(0.015625)"/>
      </defs>
      <use xlink:href="#ArialMT-78"/>
      <use xlink:href="#ArialMT-20" x="50"/>
      <use xlink:href="#ArialMT-28" x="77.783203"/>
      <use xlink:href="#ArialMT-4d" x="111.083984"/>
      <use xlink:href="#ArialMT-6f" x="194.384766"/>
      <use xlink:href="#ArialMT-6e" x="250"/>
      <use xlink:href="#ArialMT-74" x="305.615234"/>
      <use xlink:href="#ArialMT-65" x="333.398438"/>
      <use xlink:href="#ArialMT-20" x="389.013672"/>
      <use xlink:href="#ArialMT-43" x="416.796875"/>
      <use xlink:href="#ArialMT-61" x="489.013672"/>
      <use xlink:href="#ArialMT-72" x="544.628906"/>
      <use xlink:href="#ArialMT-6c" x="577.929688"/>
      <use xlink:href="#ArialMT-6f" x="600.146484"/>
      <use xlink:href="#ArialMT-29" x="655.761719"/>
     </g>
    </g>
    <g id="line2d_16">
     <path d="M 48.661 33.081424 
L 57.461 33.081424 
L 66.261 33.081424 
" style="fill: none; stroke-dasharray: 4.44,1.92; stroke-dashoffset: 0; stroke: #ff7f0e; stroke-width: 1.2"/>
    </g>
    <g id="text_16">
     <!-- x (Local sensitivity) -->
     <g style="fill: #262626" transform="translate(73.301 36.161424) scale(0.088 -0.088)">
      <defs>
       <path id="ArialMT-4c" d="M 469 0 
L 469 4581 
L 1075 4581 
L 1075 541 
L 3331 541 
L 3331 0 
L 469 0 
z
" transform="scale(0.015625)"/>
       <path id="ArialMT-63" d="M 2588 1216 
L 3141 1144 
Q 3050 572 2676 248 
Q 2303 -75 1759 -75 
Q 1078 -75 664 370 
Q 250 816 250 1647 
Q 250 2184 428 2587 
Q 606 2991 970 3192 
Q 1334 3394 1763 3394 
Q 2303 3394 2647 3120 
Q 2991 2847 3088 2344 
L 2541 2259 
Q 2463 2594 2264 2762 
Q 2066 2931 1784 2931 
Q 1359 2931 1093 2626 
Q 828 2322 828 1663 
Q 828 994 1084 691 
Q 1341 388 1753 388 
Q 2084 388 2306 591 
Q 2528 794 2588 1216 
z
" transform="scale(0.015625)"/>
       <path id="ArialMT-73" d="M 197 991 
L 753 1078 
Q 800 744 1014 566 
Q 1228 388 1613 388 
Q 2000 388 2187 545 
Q 2375 703 2375 916 
Q 2375 1106 2209 1216 
Q 2094 1291 1634 1406 
Q 1016 1563 777 1677 
Q 538 1791 414 1992 
Q 291 2194 291 2438 
Q 291 2659 392 2848 
Q 494 3038 669 3163 
Q 800 3259 1026 3326 
Q 1253 3394 1513 3394 
Q 1903 3394 2198 3281 
Q 2494 3169 2634 2976 
Q 2775 2784 2828 2463 
L 2278 2388 
Q 2241 2644 2061 2787 
Q 1881 2931 1553 2931 
Q 1166 2931 1000 2803 
Q 834 2675 834 2503 
Q 834 2394 903 2306 
Q 972 2216 1119 2156 
Q 1203 2125 1616 2013 
Q 2213 1853 2448 1751 
Q 2684 1650 2818 1456 
Q 2953 1263 2953 975 
Q 2953 694 2789 445 
Q 2625 197 2315 61 
Q 2006 -75 1616 -75 
Q 969 -75 630 194 
Q 291 463 197 991 
z
" transform="scale(0.015625)"/>
       <path id="ArialMT-69" d="M 425 3934 
L 425 4581 
L 988 4581 
L 988 3934 
L 425 3934 
z
M 425 0 
L 425 3319 
L 988 3319 
L 988 0 
L 425 0 
z
" transform="scale(0.015625)"/>
       <path id="ArialMT-76" d="M 1344 0 
L 81 3319 
L 675 3319 
L 1388 1331 
Q 1503 1009 1600 663 
Q 1675 925 1809 1294 
L 2547 3319 
L 3125 3319 
L 1869 0 
L 1344 0 
z
" transform="scale(0.015625)"/>
       <path id="ArialMT-79" d="M 397 -1278 
L 334 -750 
Q 519 -800 656 -800 
Q 844 -800 956 -737 
Q 1069 -675 1141 -563 
Q 1194 -478 1313 -144 
Q 1328 -97 1363 -6 
L 103 3319 
L 709 3319 
L 1400 1397 
Q 1534 1031 1641 628 
Q 1738 1016 1872 1384 
L 2581 3319 
L 3144 3319 
L 1881 -56 
Q 1678 -603 1566 -809 
Q 1416 -1088 1222 -1217 
Q 1028 -1347 759 -1347 
Q 597 -1347 397 -1278 
z
" transform="scale(0.015625)"/>
      </defs>
      <use xlink:href="#ArialMT-78"/>
      <use xlink:href="#ArialMT-20" x="50"/>
      <use xlink:href="#ArialMT-28" x="77.783203"/>
      <use xlink:href="#ArialMT-4c" x="111.083984"/>
      <use xlink:href="#ArialMT-6f" x="166.699219"/>
      <use xlink:href="#ArialMT-63" x="222.314453"/>
      <use xlink:href="#ArialMT-61" x="272.314453"/>
      <use xlink:href="#ArialMT-6c" x="327.929688"/>
      <use xlink:href="#ArialMT-20" x="350.146484"/>
      <use xlink:href="#ArialMT-73" x="377.929688"/>
      <use xlink:href="#ArialMT-65" x="427.929688"/>
      <use xlink:href="#ArialMT-6e" x="483.544922"/>
      <use xlink:href="#ArialMT-73" x="539.160156"/>
      <use xlink:href="#ArialMT-69" x="589.160156"/>
      <use xlink:href="#ArialMT-74" x="611.376953"/>
      <use xlink:href="#ArialMT-69" x="639.160156"/>
      <use xlink:href="#ArialMT-76" x="661.376953"/>
      <use xlink:href="#ArialMT-69" x="711.376953"/>
      <use xlink:href="#ArialMT-74" x="733.59375"/>
      <use xlink:href="#ArialMT-79" x="761.376953"/>
      <use xlink:href="#ArialMT-29" x="811.376953"/>
     </g>
    </g>
   </g>
  </g>
 </g>
 <defs>
  <clipPath id="p790f6b6939">
   <rect x="40.741" y="9.177049" width="357.12" height="266.112"/>
  </clipPath>
 </defs>
</svg>