<?xml version="1.0" encoding="utf-8" standalone="no"?>
<!DOCTYPE svg PUBLIC "-//W3C//DTD SVG 1.1//EN"
  "http://www.w3.org/Graphics/SVG/1.1/DTD/svg11.dtd">
<svg xmlns:xlink="http://www.w3.org/1999/xlink" width="409.725125pt" height="322.627875pt" viewBox="0 0 409.725125 322.627875" xmlns="http://www.w3.org/2000/svg" version="1.1">
 <metadata>
  <rdf:RDF xmlns:dc="http://purl.org/dc/elements/1.1/" xmlns:cc="http://creativecommons.org/ns#" xmlns:rdf="http://www.w3.org/1999/02/22-rdf-syntax-ns#">
   <cc:Work>
    <dc:type rdf:resource="http://purl.org/dc/dcmitype/StillImage"/>
    <dc:date>2024-12-17T15:09:47.202046</dc:date>
    <dc:format>image/svg+xml</dc:format>
    <dc:creator>
     <cc:Agent>
      <dc:title>Matplotlib v3.9.0, https://matplotlib.org/</dc:title>
     </cc:Agent>
    </dc:creator>
   </cc:Work>
  </rdf:RDF>
 </metadata>
 <defs>
  <style type="text/css">*{stroke-linejoin: round; stroke-linecap: butt}</style>
 </defs>
 <g id="figure_1">
  <g id="patch_1">
   <path d="M 0 322.627875 
L 409.725125 322.627875 
L 409.725125 0 
L 0 0 
z
" style="fill: #ffffff"/>
  </g>
  <g id="axes_1">
   <g id="patch_2">
    <path d="M 45.405125 286.3005 
L 402.525125 286.3005 
L 402.525125 20.1885 
L 45.405125 20.1885 
z
" style="fill: #ffffff"/>
   </g>
   <g id="matplotlib.axis_1">
    <g id="xtick_1">
     <g id="line2d_1">
      <defs>
       <path id="m2b46534486" d="M 0 0 
L 0 4.8 
" style="stroke: #262626"/>
      </defs>
      <g>
       <use xlink:href="#m2b46534486" x="61.637852" y="286.3005" style="fill: #262626; stroke: #262626"/>
      </g>
     </g>
     <g id="text_1">
      <!-- 0.0 -->
      <g style="fill: #262626" transform="translate(55.521852 300.899375) scale(0.088 -0.088)">
       <defs>
        <path id="ArialMT-30" d="M 266 2259 
Q 266 3072 433 3567 
Q 600 4063 929 4331 
Q 1259 4600 1759 4600 
Q 2128 4600 2406 4451 
Q 2684 4303 2865 4023 
Q 3047 3744 3150 3342 
Q 3253 2941 3253 2259 
Q 3253 1453 3087 958 
Q 2922 463 2592 192 
Q 2263 -78 1759 -78 
Q 1097 -78 719 397 
Q 266 969 266 2259 
z
M 844 2259 
Q 844 1131 1108 757 
Q 1372 384 1759 384 
Q 2147 384 2411 759 
Q 2675 1134 2675 2259 
Q 2675 3391 2411 3762 
Q 2147 4134 1753 4134 
Q 1366 4134 1134 3806 
Q 844 3388 844 2259 
z
" transform="scale(0.015625)"/>
        <path id="ArialMT-2e" d="M 581 0 
L 581 641 
L 1222 641 
L 1222 0 
L 581 0 
z
" transform="scale(0.015625)"/>
       </defs>
       <use xlink:href="#ArialMT-30"/>
       <use xlink:href="#ArialMT-2e" x="55.615234"/>
       <use xlink:href="#ArialMT-30" x="83.398438"/>
      </g>
     </g>
    </g>
    <g id="xtick_2">
     <g id="line2d_2">
      <g>
       <use xlink:href="#m2b46534486" x="126.568761" y="286.3005" style="fill: #262626; stroke: #262626"/>
      </g>
     </g>
     <g id="text_2">
      <!-- 0.2 -->
      <g style="fill: #262626" transform="translate(120.452761 300.899375) scale(0.088 -0.088)">
       <defs>
        <path id="ArialMT-32" d="M 3222 541 
L 3222 0 
L 194 0 
Q 188 203 259 391 
Q 375 700 629 1000 
Q 884 1300 1366 1694 
Q 2113 2306 2375 2664 
Q 2638 3022 2638 3341 
Q 2638 3675 2398 3904 
Q 2159 4134 1775 4134 
Q 1369 4134 1125 3890 
Q 881 3647 878 3216 
L 300 3275 
Q 359 3922 746 4261 
Q 1134 4600 1788 4600 
Q 2447 4600 2831 4234 
Q 3216 3869 3216 3328 
Q 3216 3053 3103 2787 
Q 2991 2522 2730 2228 
Q 2469 1934 1863 1422 
Q 1356 997 1212 845 
Q 1069 694 975 541 
L 3222 541 
z
" transform="scale(0.015625)"/>
       </defs>
       <use xlink:href="#ArialMT-30"/>
       <use xlink:href="#ArialMT-2e" x="55.615234"/>
       <use xlink:href="#ArialMT-32" x="83.398438"/>
      </g>
     </g>
    </g>
    <g id="xtick_3">
     <g id="line2d_3">
      <g>
       <use xlink:href="#m2b46534486" x="191.49967" y="286.3005" style="fill: #262626; stroke: #262626"/>
      </g>
     </g>
     <g id="text_3">
      <!-- 0.4 -->
      <g style="fill: #262626" transform="translate(185.38367 300.899375) scale(0.088 -0.088)">
       <defs>
        <path id="ArialMT-34" d="M 2069 0 
L 2069 1097 
L 81 1097 
L 81 1613 
L 2172 4581 
L 2631 4581 
L 2631 1613 
L 3250 1613 
L 3250 1097 
L 2631 1097 
L 2631 0 
L 2069 0 
z
M 2069 1613 
L 2069 3678 
L 634 1613 
L 2069 1613 
z
" transform="scale(0.015625)"/>
       </defs>
       <use xlink:href="#ArialMT-30"/>
       <use xlink:href="#ArialMT-2e" x="55.615234"/>
       <use xlink:href="#ArialMT-34" x="83.398438"/>
      </g>
     </g>
    </g>
    <g id="xtick_4">
     <g id="line2d_4">
      <g>
       <use xlink:href="#m2b46534486" x="256.43058" y="286.3005" style="fill: #262626; stroke: #262626"/>
      </g>
     </g>
     <g id="text_4">
      <!-- 0.6 -->
      <g style="fill: #262626" transform="translate(250.31458 300.899375) scale(0.088 -0.088)">
       <defs>
        <path id="ArialMT-36" d="M 3184 3459 
L 2625 3416 
Q 2550 3747 2413 3897 
Q 2184 4138 1850 4138 
Q 1581 4138 1378 3988 
Q 1113 3794 959 3422 
Q 806 3050 800 2363 
Q 1003 2672 1297 2822 
Q 1591 2972 1913 2972 
Q 2475 2972 2870 2558 
Q 3266 2144 3266 1488 
Q 3266 1056 3080 686 
Q 2894 316 2569 119 
Q 2244 -78 1831 -78 
Q 1128 -78 684 439 
Q 241 956 241 2144 
Q 241 3472 731 4075 
Q 1159 4600 1884 4600 
Q 2425 4600 2770 4297 
Q 3116 3994 3184 3459 
z
M 888 1484 
Q 888 1194 1011 928 
Q 1134 663 1356 523 
Q 1578 384 1822 384 
Q 2178 384 2434 671 
Q 2691 959 2691 1453 
Q 2691 1928 2437 2201 
Q 2184 2475 1800 2475 
Q 1419 2475 1153 2201 
Q 888 1928 888 1484 
z
" transform="scale(0.015625)"/>
       </defs>
       <use xlink:href="#ArialMT-30"/>
       <use xlink:href="#ArialMT-2e" x="55.615234"/>
       <use xlink:href="#ArialMT-36" x="83.398438"/>
      </g>
     </g>
    </g>
    <g id="xtick_5">
     <g id="line2d_5">
      <g>
       <use xlink:href="#m2b46534486" x="321.361489" y="286.3005" style="fill: #262626; stroke: #262626"/>
      </g>
     </g>
     <g id="text_5">
      <!-- 0.8 -->
      <g style="fill: #262626" transform="translate(315.245489 300.899375) scale(0.088 -0.088)">
       <defs>
        <path id="ArialMT-38" d="M 1131 2484 
Q 781 2613 612 2850 
Q 444 3088 444 3419 
Q 444 3919 803 4259 
Q 1163 4600 1759 4600 
Q 2359 4600 2725 4251 
Q 3091 3903 3091 3403 
Q 3091 3084 2923 2848 
Q 2756 2613 2416 2484 
Q 2838 2347 3058 2040 
Q 3278 1734 3278 1309 
Q 3278 722 2862 322 
Q 2447 -78 1769 -78 
Q 1091 -78 675 323 
Q 259 725 259 1325 
Q 259 1772 486 2073 
Q 713 2375 1131 2484 
z
M 1019 3438 
Q 1019 3113 1228 2906 
Q 1438 2700 1772 2700 
Q 2097 2700 2305 2904 
Q 2513 3109 2513 3406 
Q 2513 3716 2298 3927 
Q 2084 4138 1766 4138 
Q 1444 4138 1231 3931 
Q 1019 3725 1019 3438 
z
M 838 1322 
Q 838 1081 952 856 
Q 1066 631 1291 507 
Q 1516 384 1775 384 
Q 2178 384 2440 643 
Q 2703 903 2703 1303 
Q 2703 1709 2433 1975 
Q 2163 2241 1756 2241 
Q 1359 2241 1098 1978 
Q 838 1716 838 1322 
z
" transform="scale(0.015625)"/>
       </defs>
       <use xlink:href="#ArialMT-30"/>
       <use xlink:href="#ArialMT-2e" x="55.615234"/>
       <use xlink:href="#ArialMT-38" x="83.398438"/>
      </g>
     </g>
    </g>
    <g id="xtick_6">
     <g id="line2d_6">
      <g>
       <use xlink:href="#m2b46534486" x="386.292398" y="286.3005" style="fill: #262626; stroke: #262626"/>
      </g>
     </g>
     <g id="text_6">
      <!-- 1.0 -->
      <g style="fill: #262626" transform="translate(380.176398 300.899375) scale(0.088 -0.088)">
       <defs>
        <path id="ArialMT-31" d="M 2384 0 
L 1822 0 
L 1822 3584 
Q 1619 3391 1289 3197 
Q 959 3003 697 2906 
L 697 3450 
Q 1169 3672 1522 3987 
Q 1875 4303 2022 4600 
L 2384 4600 
L 2384 0 
z
" transform="scale(0.015625)"/>
       </defs>
       <use xlink:href="#ArialMT-31"/>
       <use xlink:href="#ArialMT-2e" x="55.615234"/>
       <use xlink:href="#ArialMT-30" x="83.398438"/>
      </g>
     </g>
    </g>
    <g id="text_7">
     <!-- Time -->
     <g style="fill: #262626" transform="translate(213.479375 313.519875) scale(0.096 -0.096)">
      <defs>
       <path id="ArialMT-54" d="M 1659 0 
L 1659 4041 
L 150 4041 
L 150 4581 
L 3781 4581 
L 3781 4041 
L 2266 4041 
L 2266 0 
L 1659 0 
z
" transform="scale(0.015625)"/>
       <path id="ArialMT-69" d="M 425 3934 
L 425 4581 
L 988 4581 
L 988 3934 
L 425 3934 
z
M 425 0 
L 425 3319 
L 988 3319 
L 988 0 
L 425 0 
z
" transform="scale(0.015625)"/>
       <path id="ArialMT-6d" d="M 422 0 
L 422 3319 
L 925 3319 
L 925 2853 
Q 1081 3097 1340 3245 
Q 1600 3394 1931 3394 
Q 2300 3394 2536 3241 
Q 2772 3088 2869 2813 
Q 3263 3394 3894 3394 
Q 4388 3394 4653 3120 
Q 4919 2847 4919 2278 
L 4919 0 
L 4359 0 
L 4359 2091 
Q 4359 2428 4304 2576 
Q 4250 2725 4106 2815 
Q 3963 2906 3769 2906 
Q 3419 2906 3187 2673 
Q 2956 2441 2956 1928 
L 2956 0 
L 2394 0 
L 2394 2156 
Q 2394 2531 2256 2718 
Q 2119 2906 1806 2906 
Q 1569 2906 1367 2781 
Q 1166 2656 1075 2415 
Q 984 2175 984 1722 
L 984 0 
L 422 0 
z
" transform="scale(0.015625)"/>
       <path id="ArialMT-65" d="M 2694 1069 
L 3275 997 
Q 3138 488 2766 206 
Q 2394 -75 1816 -75 
Q 1088 -75 661 373 
Q 234 822 234 1631 
Q 234 2469 665 2931 
Q 1097 3394 1784 3394 
Q 2450 3394 2872 2941 
Q 3294 2488 3294 1666 
Q 3294 1616 3291 1516 
L 816 1516 
Q 847 969 1125 678 
Q 1403 388 1819 388 
Q 2128 388 2347 550 
Q 2566 713 2694 1069 
z
M 847 1978 
L 2700 1978 
Q 2663 2397 2488 2606 
Q 2219 2931 1791 2931 
Q 1403 2931 1139 2672 
Q 875 2413 847 1978 
z
" transform="scale(0.015625)"/>
      </defs>
      <use xlink:href="#ArialMT-54"/>
      <use xlink:href="#ArialMT-69" x="57.333984"/>
      <use xlink:href="#ArialMT-6d" x="79.550781"/>
      <use xlink:href="#ArialMT-65" x="162.851562"/>
     </g>
    </g>
   </g>
   <g id="matplotlib.axis_2">
    <g id="ytick_1">
     <g id="line2d_7">
      <defs>
       <path id="m771a2f22e9" d="M 0 0 
L -4.8 0 
" style="stroke: #262626"/>
      </defs>
      <g>
       <use xlink:href="#m771a2f22e9" x="45.405125" y="263.238348" style="fill: #262626; stroke: #262626"/>
      </g>
     </g>
     <g id="text_8">
      <!-- 0.00 -->
      <g style="fill: #262626" transform="translate(19.9795 266.387786) scale(0.088 -0.088)">
       <use xlink:href="#ArialMT-30"/>
       <use xlink:href="#ArialMT-2e" x="55.615234"/>
       <use xlink:href="#ArialMT-30" x="83.398438"/>
       <use xlink:href="#ArialMT-30" x="139.013672"/>
      </g>
     </g>
    </g>
    <g id="ytick_2">
     <g id="line2d_8">
      <g>
       <use xlink:href="#m771a2f22e9" x="45.405125" y="219.493011" style="fill: #262626; stroke: #262626"/>
      </g>
     </g>
     <g id="text_9">
      <!-- 0.05 -->
      <g style="fill: #262626" transform="translate(19.9795 222.642448) scale(0.088 -0.088)">
       <defs>
        <path id="ArialMT-35" d="M 266 1200 
L 856 1250 
Q 922 819 1161 601 
Q 1400 384 1738 384 
Q 2144 384 2425 690 
Q 2706 997 2706 1503 
Q 2706 1984 2436 2262 
Q 2166 2541 1728 2541 
Q 1456 2541 1237 2417 
Q 1019 2294 894 2097 
L 366 2166 
L 809 4519 
L 3088 4519 
L 3088 3981 
L 1259 3981 
L 1013 2750 
Q 1425 3038 1878 3038 
Q 2478 3038 2890 2622 
Q 3303 2206 3303 1553 
Q 3303 931 2941 478 
Q 2500 -78 1738 -78 
Q 1113 -78 717 272 
Q 322 622 266 1200 
z
" transform="scale(0.015625)"/>
       </defs>
       <use xlink:href="#ArialMT-30"/>
       <use xlink:href="#ArialMT-2e" x="55.615234"/>
       <use xlink:href="#ArialMT-30" x="83.398438"/>
       <use xlink:href="#ArialMT-35" x="139.013672"/>
      </g>
     </g>
    </g>
    <g id="ytick_3">
     <g id="line2d_9">
      <g>
       <use xlink:href="#m771a2f22e9" x="45.405125" y="175.747673" style="fill: #262626; stroke: #262626"/>
      </g>
     </g>
     <g id="text_10">
      <!-- 0.10 -->
      <g style="fill: #262626" transform="translate(19.9795 178.897111) scale(0.088 -0.088)">
       <use xlink:href="#ArialMT-30"/>
       <use xlink:href="#ArialMT-2e" x="55.615234"/>
       <use xlink:href="#ArialMT-31" x="83.398438"/>
       <use xlink:href="#ArialMT-30" x="139.013672"/>
      </g>
     </g>
    </g>
    <g id="ytick_4">
     <g id="line2d_10">
      <g>
       <use xlink:href="#m771a2f22e9" x="45.405125" y="132.002336" style="fill: #262626; stroke: #262626"/>
      </g>
     </g>
     <g id="text_11">
      <!-- 0.15 -->
      <g style="fill: #262626" transform="translate(19.9795 135.151774) scale(0.088 -0.088)">
       <use xlink:href="#ArialMT-30"/>
       <use xlink:href="#ArialMT-2e" x="55.615234"/>
       <use xlink:href="#ArialMT-31" x="83.398438"/>
       <use xlink:href="#ArialMT-35" x="139.013672"/>
      </g>
     </g>
    </g>
    <g id="ytick_5">
     <g id="line2d_11">
      <g>
       <use xlink:href="#m771a2f22e9" x="45.405125" y="88.256999" style="fill: #262626; stroke: #262626"/>
      </g>
     </g>
     <g id="text_12">
      <!-- 0.20 -->
      <g style="fill: #262626" transform="translate(19.9795 91.406436) scale(0.088 -0.088)">
       <use xlink:href="#ArialMT-30"/>
       <use xlink:href="#ArialMT-2e" x="55.615234"/>
       <use xlink:href="#ArialMT-32" x="83.398438"/>
       <use xlink:href="#ArialMT-30" x="139.013672"/>
      </g>
     </g>
    </g>
    <g id="ytick_6">
     <g id="line2d_12">
      <g>
       <use xlink:href="#m771a2f22e9" x="45.405125" y="44.511661" style="fill: #262626; stroke: #262626"/>
      </g>
     </g>
     <g id="text_13">
      <!-- 0.25 -->
      <g style="fill: #262626" transform="translate(19.9795 47.661099) scale(0.088 -0.088)">
       <use xlink:href="#ArialMT-30"/>
       <use xlink:href="#ArialMT-2e" x="55.615234"/>
       <use xlink:href="#ArialMT-32" x="83.398438"/>
       <use xlink:href="#ArialMT-35" x="139.013672"/>
      </g>
     </g>
    </g>
    <g id="text_14">
     <!-- Value -->
     <g style="fill: #262626" transform="translate(14.0715 165.1665) rotate(-90) scale(0.096 -0.096)">
      <defs>
       <path id="ArialMT-56" d="M 1803 0 
L 28 4581 
L 684 4581 
L 1875 1253 
Q 2019 853 2116 503 
Q 2222 878 2363 1253 
L 3600 4581 
L 4219 4581 
L 2425 0 
L 1803 0 
z
" transform="scale(0.015625)"/>
       <path id="ArialMT-61" d="M 2588 409 
Q 2275 144 1986 34 
Q 1697 -75 1366 -75 
Q 819 -75 525 192 
Q 231 459 231 875 
Q 231 1119 342 1320 
Q 453 1522 633 1644 
Q 813 1766 1038 1828 
Q 1203 1872 1538 1913 
Q 2219 1994 2541 2106 
Q 2544 2222 2544 2253 
Q 2544 2597 2384 2738 
Q 2169 2928 1744 2928 
Q 1347 2928 1158 2789 
Q 969 2650 878 2297 
L 328 2372 
Q 403 2725 575 2942 
Q 747 3159 1072 3276 
Q 1397 3394 1825 3394 
Q 2250 3394 2515 3294 
Q 2781 3194 2906 3042 
Q 3031 2891 3081 2659 
Q 3109 2516 3109 2141 
L 3109 1391 
Q 3109 606 3145 398 
Q 3181 191 3288 0 
L 2700 0 
Q 2613 175 2588 409 
z
M 2541 1666 
Q 2234 1541 1622 1453 
Q 1275 1403 1131 1340 
Q 988 1278 909 1158 
Q 831 1038 831 891 
Q 831 666 1001 516 
Q 1172 366 1500 366 
Q 1825 366 2078 508 
Q 2331 650 2450 897 
Q 2541 1088 2541 1459 
L 2541 1666 
z
" transform="scale(0.015625)"/>
       <path id="ArialMT-6c" d="M 409 0 
L 409 4581 
L 972 4581 
L 972 0 
L 409 0 
z
" transform="scale(0.015625)"/>
       <path id="ArialMT-75" d="M 2597 0 
L 2597 488 
Q 2209 -75 1544 -75 
Q 1250 -75 995 37 
Q 741 150 617 320 
Q 494 491 444 738 
Q 409 903 409 1263 
L 409 3319 
L 972 3319 
L 972 1478 
Q 972 1038 1006 884 
Q 1059 663 1231 536 
Q 1403 409 1656 409 
Q 1909 409 2131 539 
Q 2353 669 2445 892 
Q 2538 1116 2538 1541 
L 2538 3319 
L 3100 3319 
L 3100 0 
L 2597 0 
z
" transform="scale(0.015625)"/>
      </defs>
      <use xlink:href="#ArialMT-56"/>
      <use xlink:href="#ArialMT-61" x="59.324219"/>
      <use xlink:href="#ArialMT-6c" x="114.939453"/>
      <use xlink:href="#ArialMT-75" x="137.15625"/>
      <use xlink:href="#ArialMT-65" x="192.771484"/>
     </g>
    </g>
   </g>
   <g id="line2d_13">
    <path d="M 61.637852 263.238348 
L 61.962832 263.56768 
L 62.287811 262.724675 
L 62.612791 263.215 
L 62.93777 262.52205 
L 63.26275 263.180223 
L 63.587729 262.872736 
L 63.912709 263.268502 
L 64.562668 265.781451 
L 64.887648 265.975129 
L 65.212627 266.003095 
L 65.537607 266.586672 
L 65.862586 268.060895 
L 66.187566 267.414578 
L 66.512545 267.169356 
L 66.837525 267.071904 
L 67.162504 267.487919 
L 67.487484 269.060114 
L 67.812463 268.850773 
L 68.137443 267.264006 
L 68.462422 268.05677 
L 68.787402 269.292223 
L 69.112381 270.048248 
L 69.437361 270.38367 
L 69.76234 270.963866 
L 70.08732 270.734416 
L 70.412299 271.583483 
L 70.737279 271.522856 
L 71.387238 272.814034 
L 71.712218 271.236808 
L 72.362177 271.459254 
L 72.687156 271.04146 
L 73.662095 269.1362 
L 73.987074 269.410282 
L 74.312054 269.968121 
L 74.637033 269.456939 
L 74.962013 268.163309 
L 75.286992 268.481514 
L 75.611972 268.094823 
L 75.936951 267.952864 
L 76.91189 268.090896 
L 77.236869 267.862498 
L 77.561849 267.914266 
L 77.886829 268.156896 
L 78.211808 267.287666 
L 78.536788 268.033744 
L 78.861767 269.131718 
L 79.186747 269.255967 
L 79.511726 268.945699 
L 79.836706 268.948325 
L 80.161685 269.18541 
L 80.486665 268.565239 
L 80.811644 267.34593 
L 81.461603 268.339847 
L 81.786583 267.977088 
L 82.111562 268.644369 
L 82.436542 268.985252 
L 83.086501 268.635327 
L 83.41148 268.592307 
L 83.73646 269.522502 
L 84.386419 268.854463 
L 84.711399 268.692147 
L 85.036378 268.386008 
L 85.361358 267.883425 
L 86.336296 267.789517 
L 86.661276 267.422437 
L 87.311235 269.982849 
L 87.636214 269.746483 
L 87.961194 268.95997 
L 88.286173 268.849939 
L 88.611153 268.567911 
L 88.936132 267.731071 
L 89.261112 268.022966 
L 89.586091 269.327899 
L 89.911071 269.585165 
L 90.23605 268.779797 
L 90.56103 267.462463 
L 90.88601 267.475744 
L 91.210989 268.163473 
L 91.535969 268.208973 
L 92.185928 267.76125 
L 92.835887 267.881028 
L 93.160866 266.754892 
L 93.485846 267.425418 
L 93.810825 267.56255 
L 94.460784 265.130101 
L 94.785764 265.93974 
L 95.110743 265.400178 
L 95.760702 267.321776 
L 96.735641 265.321367 
L 97.06062 266.070913 
L 97.3856 265.829793 
L 97.71058 266.470411 
L 98.035559 265.804798 
L 98.360539 266.498692 
L 98.685518 266.162752 
L 99.010498 266.780791 
L 99.660457 264.892712 
L 99.985436 265.272495 
L 100.310416 263.867616 
L 100.635395 264.956493 
L 100.960375 264.733474 
L 101.610334 263.332623 
L 101.935313 262.25309 
L 102.260293 262.880487 
L 102.585272 262.519948 
L 103.235231 261.433514 
L 103.885191 262.848259 
L 104.21017 263.308695 
L 104.53515 264.495006 
L 104.860129 264.893191 
L 105.185109 266.08663 
L 105.510088 265.473373 
L 105.835068 265.210409 
L 106.160047 264.260535 
L 106.485027 265.275275 
L 106.810006 265.089735 
L 107.134986 264.601371 
L 107.459965 263.904608 
L 107.784945 264.055163 
L 108.109924 262.779129 
L 108.434904 263.782953 
L 108.759883 262.721096 
L 109.084863 262.181185 
L 109.409842 262.555716 
L 109.734822 261.840074 
L 110.059801 259.92528 
L 111.03474 258.300543 
L 111.35972 258.221682 
L 111.684699 257.718828 
L 112.009679 258.134447 
L 112.334658 257.554478 
L 112.659638 257.388152 
L 113.309597 258.094928 
L 113.634576 258.369904 
L 114.284535 256.730162 
L 114.609515 257.116607 
L 114.934494 257.247996 
L 115.259474 258.289586 
L 115.584453 260.038508 
L 115.909433 259.508752 
L 116.234412 259.390231 
L 116.559392 260.126539 
L 116.884372 259.361946 
L 117.534331 259.065769 
L 118.18429 257.059781 
L 118.509269 256.92795 
L 118.834249 257.766161 
L 119.484208 258.317651 
L 119.809187 257.703917 
L 120.134167 256.107921 
L 120.459146 255.512853 
L 121.109105 252.706154 
L 121.434085 252.543038 
L 121.759064 253.539059 
L 122.409023 253.769197 
L 122.734003 253.608506 
L 123.058982 252.486369 
L 123.383962 252.421643 
L 124.033921 252.762394 
L 124.358901 252.47467 
L 124.68388 252.731053 
L 125.00886 253.138398 
L 125.333839 254.477329 
L 125.658819 254.782164 
L 125.983798 254.885821 
L 126.308778 256.110488 
L 126.633757 255.615903 
L 126.958737 255.883822 
L 127.283716 255.416219 
L 127.608696 255.14807 
L 128.258655 256.44746 
L 128.583634 256.221152 
L 128.908614 255.323695 
L 129.558573 256.001845 
L 129.883553 256.709749 
L 130.208532 257.140268 
L 130.858491 255.296184 
L 131.183471 254.908644 
L 131.83343 254.914846 
L 132.158409 254.207772 
L 132.483389 254.065701 
L 132.808368 255.021308 
L 133.133348 255.440644 
L 133.458327 257.078363 
L 133.783307 256.794742 
L 134.108286 255.186423 
L 134.433266 254.618896 
L 134.758245 254.932777 
L 135.083225 254.272219 
L 135.408204 254.831423 
L 136.058163 256.749607 
L 136.383143 257.014272 
L 136.708123 257.505808 
L 137.033102 257.790118 
L 137.358082 259.420803 
L 137.683061 260.376187 
L 138.008041 260.389137 
L 138.33302 260.592378 
L 138.658 259.667543 
L 138.982979 259.476068 
L 139.632938 257.218936 
L 140.282897 259.873793 
L 140.932856 259.110271 
L 141.257836 259.510474 
L 141.582815 259.244896 
L 141.907795 260.807859 
L 142.232774 261.674108 
L 142.882734 264.796026 
L 143.532693 266.187348 
L 143.857672 265.33264 
L 144.182652 265.513118 
L 144.507631 267.313835 
L 144.832611 268.274466 
L 145.15759 267.655536 
L 145.48257 268.71137 
L 146.457508 265.593915 
L 146.782488 264.399472 
L 147.432447 263.399123 
L 147.757426 263.117758 
L 148.732365 261.540604 
L 149.382324 259.471929 
L 149.707304 260.717487 
L 150.357263 261.718514 
L 150.682242 261.834023 
L 151.332201 259.116225 
L 151.657181 259.042689 
L 152.957099 257.401055 
L 153.282078 256.872184 
L 153.607058 256.083339 
L 153.932037 256.483776 
L 154.257017 255.56137 
L 154.581996 255.86416 
L 154.906976 256.379001 
L 155.231955 256.055474 
L 155.556935 257.254763 
L 155.881915 257.177517 
L 156.206894 257.761143 
L 156.856853 260.021275 
L 157.181833 259.941381 
L 157.506812 259.282454 
L 157.831792 259.2408 
L 158.156771 260.455975 
L 158.481751 260.212089 
L 158.80673 259.41482 
L 159.13171 260.191846 
L 159.456689 260.028378 
L 159.781669 259.044866 
L 160.106648 259.475985 
L 160.431628 259.676457 
L 160.756607 260.503242 
L 161.081587 260.591032 
L 161.406566 261.362972 
L 161.731546 260.499413 
L 162.056525 260.826608 
L 162.381505 261.391638 
L 162.706485 262.90665 
L 163.031464 262.957898 
L 163.356444 263.227548 
L 163.681423 262.426454 
L 164.006403 261.994955 
L 164.981341 259.935418 
L 165.306321 259.880255 
L 165.6313 260.154114 
L 165.95628 261.725059 
L 166.281259 262.348203 
L 166.606239 261.204173 
L 166.931218 261.416302 
L 167.256198 259.929162 
L 167.581177 260.662398 
L 167.906157 260.214029 
L 168.556116 257.999424 
L 168.881096 259.112649 
L 169.206075 258.89487 
L 169.531055 258.172047 
L 169.856034 258.161192 
L 170.505993 257.52789 
L 170.830973 257.81655 
L 171.155952 258.506226 
L 171.480932 258.319927 
L 171.805911 257.2175 
L 172.130891 257.513273 
L 172.78085 259.545393 
L 173.105829 259.664431 
L 173.755788 261.793788 
L 174.405747 260.319814 
L 174.730727 258.703744 
L 175.055706 258.208469 
L 175.380686 258.206514 
L 175.705666 258.957388 
L 176.030645 259.058101 
L 176.355625 258.971683 
L 176.680604 259.541613 
L 177.005584 259.072626 
L 177.330563 260.45646 
L 177.655543 262.815946 
L 178.305502 264.476522 
L 178.630481 264.141936 
L 178.955461 265.306656 
L 179.28044 264.942653 
L 179.60542 263.895935 
L 179.930399 264.567103 
L 180.255379 264.082019 
L 180.905338 261.900849 
L 181.230317 260.279281 
L 181.555297 259.949174 
L 182.205256 258.451767 
L 182.530236 258.000075 
L 183.830154 254.514693 
L 184.155133 255.070859 
L 184.480113 255.908165 
L 184.805092 255.539373 
L 185.455051 254.054931 
L 185.780031 255.335495 
L 186.10501 255.043848 
L 186.42999 253.939335 
L 186.754969 254.303004 
L 187.404928 252.877501 
L 187.729908 253.651259 
L 188.054887 253.328128 
L 188.379867 254.041473 
L 189.029826 255.775486 
L 189.354806 256.277782 
L 189.679785 256.023056 
L 190.004765 257.372465 
L 190.329744 256.740411 
L 190.654724 257.502141 
L 190.979703 257.462748 
L 191.304683 257.098074 
L 191.629662 256.963443 
L 191.954642 256.999409 
L 192.279621 256.185287 
L 193.25456 255.66811 
L 193.579539 256.336177 
L 193.904519 255.036212 
L 194.229498 255.401809 
L 194.554478 256.15818 
L 194.879458 255.846184 
L 195.204437 256.060548 
L 195.529417 257.478922 
L 195.854396 257.322233 
L 196.179376 258.593819 
L 196.504355 261.146921 
L 196.829335 261.110262 
L 197.154314 260.934148 
L 197.479294 260.416174 
L 197.804273 260.283067 
L 198.129253 260.953848 
L 198.454232 261.259853 
L 199.104191 259.360303 
L 199.429171 257.98176 
L 199.75415 257.348176 
L 200.404109 257.105733 
L 201.379048 255.676258 
L 201.704028 255.654736 
L 202.029007 253.662796 
L 202.353987 253.985996 
L 203.003946 251.850853 
L 203.328925 251.988707 
L 203.653905 252.470116 
L 203.978884 252.463875 
L 204.303864 253.286762 
L 204.628843 252.502951 
L 204.953823 251.28934 
L 205.278802 251.815163 
L 205.603782 252.609224 
L 206.253741 251.749501 
L 206.9037 251.470985 
L 207.228679 249.859197 
L 207.553659 250.481862 
L 207.878639 250.696927 
L 208.203618 251.061001 
L 208.528598 250.443307 
L 208.853577 252.095364 
L 209.503536 256.339019 
L 209.828516 256.871959 
L 210.478475 256.22502 
L 210.803454 257.2747 
L 211.128434 257.882389 
L 211.453413 257.244502 
L 211.778393 256.336684 
L 212.103372 257.32117 
L 212.428352 256.861579 
L 212.753331 256.712748 
L 213.078311 255.704643 
L 213.40329 255.448876 
L 213.72827 256.102569 
L 214.053249 254.899115 
L 214.378229 254.337851 
L 215.353168 250.912524 
L 215.678147 250.445797 
L 216.328106 250.130492 
L 216.653086 248.617084 
L 216.978065 248.596852 
L 217.628024 249.625375 
L 218.277983 247.178323 
L 218.602963 246.85341 
L 218.927942 245.989104 
L 219.252922 245.456673 
L 219.577901 244.267629 
L 220.55284 243.33362 
L 220.87782 243.822301 
L 221.202799 243.836319 
L 221.527779 243.450448 
L 221.852758 244.123726 
L 222.177738 243.844412 
L 222.502717 244.527196 
L 222.827697 243.455565 
L 223.802635 245.387465 
L 224.127615 246.661727 
L 224.452594 247.363465 
L 224.777574 248.816283 
L 225.102553 248.400851 
L 225.752512 246.785399 
L 226.077492 248.047986 
L 226.402471 247.729264 
L 227.05243 246.160145 
L 227.37741 245.977273 
L 227.70239 244.77792 
L 228.027369 242.986643 
L 228.352349 242.638705 
L 229.002308 244.228008 
L 229.327287 243.691465 
L 229.977246 245.23449 
L 230.302226 245.601092 
L 230.627205 245.583948 
L 230.952185 244.339616 
L 231.602144 244.669157 
L 231.927123 244.672329 
L 232.252103 245.34849 
L 232.577082 247.114371 
L 232.902062 246.57328 
L 233.227041 246.606315 
L 233.552021 245.622934 
L 233.877001 245.64886 
L 234.20198 247.585563 
L 234.52696 248.247288 
L 234.851939 247.905281 
L 235.176919 247.251303 
L 235.501898 247.297299 
L 235.826878 247.618628 
L 236.151857 247.330037 
L 236.801816 249.650602 
L 237.126796 249.790708 
L 237.451775 248.237299 
L 237.776755 247.570521 
L 238.101734 246.065282 
L 238.426714 245.49375 
L 238.751693 243.741269 
L 239.401652 242.073737 
L 239.726632 242.240287 
L 240.051611 242.969599 
L 240.376591 242.278661 
L 240.701571 243.178876 
L 241.02655 242.150134 
L 241.35153 242.689555 
L 241.676509 242.754628 
L 242.326468 245.814625 
L 242.651448 246.775624 
L 242.976427 247.358148 
L 243.301407 247.163098 
L 243.626386 247.677291 
L 244.276345 247.614843 
L 244.601325 246.247457 
L 244.926304 246.798588 
L 245.901243 244.26129 
L 246.226222 243.782318 
L 246.551202 245.174322 
L 246.876182 245.173479 
L 247.201161 245.013309 
L 247.526141 244.025238 
L 248.1761 241.516142 
L 248.501079 241.070751 
L 248.826059 242.75806 
L 249.151038 242.784 
L 249.476018 243.757291 
L 249.800997 243.781616 
L 250.125977 244.507451 
L 250.450956 244.645377 
L 250.775936 243.584187 
L 251.100915 242.963031 
L 251.425895 243.283872 
L 251.750874 241.900313 
L 252.075854 241.961888 
L 252.400833 241.822731 
L 252.725813 242.325182 
L 253.050792 242.493172 
L 253.375772 241.689873 
L 254.025731 242.6856 
L 254.350711 242.198433 
L 254.67569 241.363043 
L 255.00067 241.277998 
L 255.325649 242.491653 
L 255.650629 242.750766 
L 255.975608 241.444999 
L 256.300588 241.973532 
L 256.625567 240.997198 
L 256.950547 241.799889 
L 257.275526 243.14102 
L 257.600506 242.945329 
L 258.250465 241.371075 
L 258.575444 241.954732 
L 258.900424 241.939734 
L 259.875363 241.020157 
L 260.200342 241.357657 
L 260.525322 241.187638 
L 260.850301 241.578096 
L 261.175281 242.379776 
L 261.50026 242.272442 
L 261.82524 241.490001 
L 262.150219 241.89288 
L 262.800178 240.388151 
L 263.125158 240.73743 
L 263.450137 242.471792 
L 263.775117 241.844341 
L 264.425076 243.410196 
L 264.750055 242.863041 
L 265.075035 242.635301 
L 265.400014 244.021519 
L 265.724994 246.067329 
L 266.049973 246.619645 
L 266.374953 246.268043 
L 266.699933 247.647135 
L 267.024912 247.191468 
L 267.349892 247.164519 
L 267.999851 247.92556 
L 268.32483 248.030358 
L 268.64981 247.658072 
L 268.974789 248.11983 
L 269.299769 249.84939 
L 269.624748 250.076397 
L 269.949728 250.502607 
L 270.274707 251.573619 
L 270.599687 251.947934 
L 271.249646 253.181965 
L 271.899605 253.553861 
L 272.224584 254.170461 
L 272.549564 253.279179 
L 272.874544 254.084267 
L 273.199523 254.417117 
L 273.524503 253.888136 
L 274.174462 255.589047 
L 274.499441 255.550341 
L 274.824421 254.783502 
L 275.1494 254.818734 
L 275.47438 255.072959 
L 275.799359 253.656201 
L 276.124339 254.012122 
L 276.449318 254.8249 
L 276.774298 255.003733 
L 277.099277 254.964378 
L 277.424257 253.947162 
L 277.749236 253.62117 
L 278.074216 254.289316 
L 278.399195 255.236731 
L 279.374134 256.565721 
L 279.699114 255.557512 
L 280.024093 255.830613 
L 280.349073 255.929575 
L 280.999032 255.622846 
L 281.324011 255.645313 
L 281.648991 257.212948 
L 281.97397 257.48828 
L 282.29895 256.762368 
L 282.948909 258.243152 
L 283.273888 258.034578 
L 283.598868 258.237957 
L 283.923847 259.835224 
L 284.248827 260.105936 
L 284.573806 259.495183 
L 284.898786 258.408021 
L 285.223765 258.919457 
L 285.548745 258.126193 
L 286.198704 257.598718 
L 286.523684 257.746744 
L 286.848663 258.456968 
L 287.173643 258.872808 
L 287.498622 259.046225 
L 287.823602 257.519636 
L 288.148581 257.579863 
L 288.473561 257.488091 
L 288.79854 256.810708 
L 289.12352 258.885271 
L 289.448499 258.814428 
L 290.098458 261.521123 
L 290.423438 263.250846 
L 290.748417 263.68139 
L 291.073397 263.252178 
L 291.398376 263.111071 
L 291.723356 262.242015 
L 292.048335 262.018952 
L 292.373315 263.076793 
L 292.698295 263.668652 
L 293.023274 263.152857 
L 293.348254 261.763716 
L 293.998213 262.117467 
L 294.323192 260.984266 
L 294.648172 260.572483 
L 295.298131 259.05734 
L 295.62311 258.880898 
L 295.94809 258.340744 
L 296.273069 258.340375 
L 297.248008 257.197635 
L 297.572987 257.496431 
L 297.897967 257.066227 
L 298.222946 256.387926 
L 298.547926 256.522244 
L 298.872906 255.726541 
L 299.197885 253.608183 
L 299.847844 252.72511 
L 300.497803 253.756037 
L 300.822783 255.023967 
L 301.147762 255.751572 
L 301.797721 255.794073 
L 302.122701 256.856877 
L 302.77266 257.718327 
L 303.097639 258.573137 
L 303.422619 258.070448 
L 303.747598 256.837591 
L 304.397557 255.846159 
L 304.722537 255.964593 
L 305.047516 256.727333 
L 305.697476 259.371186 
L 306.022455 259.316087 
L 306.347435 259.576874 
L 306.997394 256.297098 
L 307.322373 255.220858 
L 307.972332 255.308088 
L 308.622291 257.139724 
L 309.27225 260.169563 
L 309.59723 260.239714 
L 309.922209 261.561985 
L 310.247189 261.22589 
L 310.897148 262.509809 
L 311.222127 262.16447 
L 311.547107 262.033926 
L 311.872087 261.291309 
L 312.197066 261.229469 
L 312.522046 261.501291 
L 313.172005 262.643426 
L 313.496984 262.807618 
L 313.821964 264.574981 
L 314.146943 264.453083 
L 314.471923 264.94434 
L 314.796902 264.800976 
L 315.121882 264.453473 
L 315.446861 265.481774 
L 315.771841 265.87657 
L 316.09682 265.677453 
L 316.4218 265.715238 
L 317.071759 267.285834 
L 317.396738 266.54881 
L 317.721718 267.678156 
L 318.046697 268.24129 
L 318.371677 267.775157 
L 318.696657 267.062745 
L 319.021636 268.03292 
L 319.346616 267.111573 
L 319.671595 268.055484 
L 319.996575 268.327387 
L 320.321554 267.233729 
L 320.971513 268.613316 
L 321.296493 268.572537 
L 321.946452 265.69492 
L 322.271431 265.878789 
L 322.596411 266.500956 
L 322.92139 266.459864 
L 323.24637 267.56079 
L 323.571349 267.261563 
L 323.896329 267.162985 
L 324.546288 267.694599 
L 324.871268 268.257709 
L 325.196247 268.439441 
L 325.521227 269.01928 
L 325.846206 269.031571 
L 326.171186 268.561087 
L 326.821145 268.049041 
L 327.146124 267.535278 
L 327.471104 268.63472 
L 327.796083 268.593387 
L 328.771022 267.072589 
L 329.096001 265.672148 
L 329.420981 267.11559 
L 330.395919 267.726845 
L 330.720899 269.123988 
L 331.045878 268.531258 
L 331.370858 269.785969 
L 331.695838 269.815925 
L 332.020817 270.356428 
L 332.345797 268.386096 
L 332.670776 267.509507 
L 332.995756 267.87335 
L 333.645715 269.375702 
L 334.295674 272.535022 
L 334.620653 273.752974 
L 334.945633 273.536125 
L 335.920571 270.573029 
L 336.245551 271.001106 
L 336.57053 272.090091 
L 336.89551 271.722999 
L 337.220489 272.057362 
L 337.545469 272.831559 
L 338.195428 271.672759 
L 338.520408 271.390298 
L 338.845387 269.995375 
L 339.170367 270.179656 
L 339.495346 271.030888 
L 339.820326 271.221744 
L 340.470285 272.181284 
L 340.795264 271.890504 
L 341.120244 272.46884 
L 341.445223 272.430303 
L 341.770203 271.32404 
L 342.095182 271.134559 
L 342.420162 270.564341 
L 342.745141 269.447647 
L 343.070121 270.743459 
L 343.3951 270.480681 
L 344.045059 271.917206 
L 344.370039 271.519403 
L 344.695019 271.90579 
L 345.019998 271.93185 
L 345.344978 272.666372 
L 345.669957 273.023261 
L 345.994937 272.823761 
L 346.319916 273.079901 
L 346.644896 273.801876 
L 347.294855 272.700396 
L 347.619834 273.075043 
L 347.944814 272.374508 
L 348.269793 271.3243 
L 348.594773 271.918553 
L 348.919752 271.970209 
L 349.244732 272.575089 
L 349.569711 272.064121 
L 349.894691 270.930164 
L 350.21967 270.395926 
L 350.54465 271.847597 
L 350.86963 272.661386 
L 351.194609 274.2045 
L 351.519589 273.832934 
L 351.844568 273.013205 
L 352.169548 273.304368 
L 353.144486 269.846397 
L 353.469466 270.002753 
L 353.794445 269.370381 
L 354.119425 269.249683 
L 354.444404 268.871938 
L 355.094363 269.003736 
L 355.419343 269.361543 
L 355.744322 268.552856 
L 356.069302 268.85344 
L 356.394281 270.12152 
L 357.04424 268.369774 
L 357.36922 269.010513 
L 357.6942 269.228923 
L 358.344159 266.716489 
L 358.669138 267.821856 
L 358.994118 270.363109 
L 359.319097 270.830054 
L 359.644077 270.631259 
L 359.969056 270.643557 
L 360.294036 271.988945 
L 360.619015 270.778539 
L 361.268974 271.394456 
L 361.593954 269.979073 
L 361.918933 269.590286 
L 362.243913 269.910496 
L 362.568892 271.236504 
L 362.893872 271.533798 
L 363.218851 270.037083 
L 363.868811 271.915273 
L 364.19379 271.967751 
L 364.51877 270.45835 
L 365.168729 271.80199 
L 365.493708 270.112713 
L 365.818688 270.595307 
L 366.143667 270.012492 
L 366.468647 268.171768 
L 366.793626 267.103636 
L 367.118606 266.991496 
L 367.443585 267.929736 
L 367.768565 267.198313 
L 368.093544 267.463124 
L 368.418524 266.527458 
L 368.743503 265.941157 
L 369.393462 265.263925 
L 369.718442 265.288703 
L 371.01836 261.970753 
L 371.34334 261.681234 
L 371.668319 261.844171 
L 371.993299 261.764012 
L 372.968237 260.468687 
L 373.293217 260.411125 
L 373.618196 259.915371 
L 373.943176 258.587758 
L 374.268155 258.808221 
L 374.593135 258.743026 
L 374.918114 257.856754 
L 375.243094 257.592346 
L 375.568073 258.557341 
L 375.893053 258.948767 
L 376.218032 259.081542 
L 376.543012 259.692896 
L 376.867992 259.461396 
L 377.192971 259.671024 
L 377.517951 260.650184 
L 377.84293 261.23073 
L 378.16791 261.319159 
L 378.492889 260.230275 
L 379.142848 261.481145 
L 379.467828 262.208672 
L 379.792807 262.306354 
L 380.117787 262.048041 
L 380.767746 262.373808 
L 381.092725 262.070196 
L 381.417705 261.429261 
L 381.742684 261.710565 
L 382.392643 264.505653 
L 382.717623 264.622749 
L 383.042602 264.475593 
L 383.367582 262.734571 
L 383.692562 263.042333 
L 384.017541 262.018793 
L 384.342521 263.313126 
L 384.6675 265.709249 
L 384.99248 265.569099 
L 385.317459 265.237502 
L 385.642439 265.290491 
L 385.967418 264.477254 
L 386.292398 263.238348 
L 386.292398 263.238348 
" clip-path="url(#p3652add45b)" style="fill: none; stroke: #1f77b4; stroke-width: 1.2; stroke-linecap: round"/>
   </g>
   <g id="line2d_14">
    <path d="M 61.637852 263.238348 
L 386.292398 263.238348 
L 386.292398 263.238348 
" clip-path="url(#p3652add45b)" style="fill: none; stroke-dasharray: 4.44,1.92; stroke-dashoffset: 0; stroke: #1f77b4; stroke-width: 1.2"/>
   </g>
   <g id="line2d_15">
    <path d="M 61.637852 263.238348 
L 62.93777 259.815421 
L 63.587729 257.809331 
L 64.237688 255.617178 
L 68.787402 243.475761 
L 69.437361 242.458636 
L 70.08732 241.485169 
L 71.062258 238.641459 
L 71.712218 236.701397 
L 72.687156 234.559594 
L 73.337115 232.853315 
L 73.662095 231.526913 
L 73.987074 231.134117 
L 75.936951 224.730818 
L 77.236869 220.340487 
L 78.211808 217.61417 
L 78.536788 216.387573 
L 79.186747 215.256071 
L 79.836706 215.261009 
L 80.811644 213.4529 
L 81.786583 210.640286 
L 82.111562 209.623483 
L 82.761521 208.570888 
L 83.086501 208.596057 
L 83.73646 207.634025 
L 84.061439 207.379194 
L 84.386419 206.153565 
L 84.711399 205.834584 
L 85.036378 205.135021 
L 85.361358 204.732132 
L 85.686337 204.137082 
L 86.011317 203.003412 
L 86.986255 201.614083 
L 87.636214 199.120097 
L 87.961194 198.496328 
L 88.286173 198.306145 
L 88.936132 197.271102 
L 89.586091 194.94242 
L 89.911071 194.214623 
L 90.88601 190.727454 
L 91.535969 187.863918 
L 91.860948 187.569551 
L 92.185928 186.68761 
L 92.510907 186.863332 
L 92.835887 185.79026 
L 93.160866 185.170116 
L 94.785764 181.018568 
L 95.760702 179.829662 
L 96.085682 179.745698 
L 96.410661 179.383805 
L 96.735641 178.774251 
L 97.06062 178.617704 
L 97.3856 177.996593 
L 98.685518 174.001917 
L 99.010498 174.120929 
L 99.985436 171.822475 
L 100.310416 170.279109 
L 100.960375 169.089501 
L 101.285354 168.971079 
L 101.610334 168.370048 
L 101.935313 168.296024 
L 102.260293 166.849374 
L 102.910252 165.819622 
L 103.885191 163.190233 
L 104.53515 161.722198 
L 104.860129 160.328759 
L 105.185109 159.738196 
L 105.510088 160.113148 
L 105.835068 158.748457 
L 106.160047 158.038719 
L 106.485027 157.028167 
L 107.134986 154.244525 
L 107.459965 153.624905 
L 107.784945 153.341307 
L 108.109924 152.874828 
L 108.759883 150.293462 
L 109.084863 149.901507 
L 110.059801 147.448437 
L 111.35972 145.705185 
L 112.009679 145.204791 
L 112.334658 144.613033 
L 112.659638 145.573106 
L 112.984617 145.348259 
L 113.959556 143.349388 
L 114.284535 143.685403 
L 114.609515 143.222285 
L 114.934494 143.801629 
L 115.259474 143.688762 
L 115.584453 142.273636 
L 115.909433 141.370596 
L 116.234412 141.024359 
L 116.884372 138.876189 
L 117.209351 138.833591 
L 117.534331 138.307635 
L 118.834249 134.214393 
L 119.159228 133.297909 
L 119.484208 133.069258 
L 119.809187 133.360132 
L 120.134167 134.106124 
L 120.459146 133.497021 
L 120.784126 131.947135 
L 121.109105 131.207962 
L 121.434085 130.065999 
L 122.084044 129.631079 
L 122.409023 128.790082 
L 122.734003 127.536075 
L 123.058982 127.10553 
L 123.383962 127.421386 
L 123.708942 126.864079 
L 124.033921 126.746749 
L 124.358901 126.234367 
L 124.68388 125.243717 
L 125.00886 124.724781 
L 125.333839 123.80487 
L 125.658819 122.22928 
L 125.983798 121.320008 
L 126.633757 118.728455 
L 126.958737 118.447112 
L 127.283716 117.536268 
L 128.258655 113.736738 
L 128.583634 112.884968 
L 128.908614 112.618686 
L 129.233593 111.563449 
L 129.558573 111.228581 
L 129.883553 111.452107 
L 130.208532 109.935401 
L 130.533512 109.225821 
L 130.858491 107.982451 
L 131.183471 107.578724 
L 131.50845 106.509716 
L 131.83343 106.40519 
L 132.158409 106.52669 
L 132.483389 104.749003 
L 132.808368 103.791992 
L 133.133348 104.286617 
L 134.433266 101.101351 
L 134.758245 100.978842 
L 135.083225 101.623523 
L 135.408204 101.731898 
L 135.733184 101.591288 
L 136.383143 102.721238 
L 136.708123 102.416473 
L 137.358082 102.342558 
L 137.683061 102.70407 
L 138.008041 102.620318 
L 138.33302 101.192365 
L 138.658 100.943543 
L 138.982979 101.445477 
L 139.307959 102.769913 
L 139.957918 101.005138 
L 140.282897 100.923166 
L 140.932856 97.928309 
L 141.257836 97.854561 
L 141.582815 98.321687 
L 141.907795 97.663618 
L 142.232774 97.409403 
L 142.557754 96.964681 
L 143.207713 94.747433 
L 143.532693 93.831825 
L 143.857672 92.542856 
L 144.182652 91.727708 
L 144.507631 91.356971 
L 145.15759 90.019403 
L 145.48257 90.837615 
L 146.132529 89.151082 
L 146.457508 87.133841 
L 146.782488 86.764641 
L 147.107467 85.439557 
L 147.432447 85.359027 
L 148.082406 84.609912 
L 148.407385 83.866653 
L 148.732365 82.574181 
L 149.057344 83.067604 
L 149.382324 81.852579 
L 150.032283 80.125585 
L 150.357263 78.964038 
L 150.682242 79.082919 
L 151.007222 78.52681 
L 151.332201 77.623635 
L 151.657181 77.548645 
L 152.30714 76.234845 
L 152.632119 76.219878 
L 152.957099 75.695876 
L 153.607058 75.225435 
L 153.932037 74.325935 
L 154.257017 74.867586 
L 154.581996 74.842487 
L 155.231955 73.5498 
L 155.556935 73.30453 
L 155.881915 73.52674 
L 156.206894 74.127056 
L 156.856853 71.756446 
L 157.506812 72.037275 
L 157.831792 72.551679 
L 158.156771 70.95233 
L 158.481751 70.576928 
L 158.80673 69.465858 
L 159.13171 69.079059 
L 159.456689 69.070196 
L 159.781669 69.682487 
L 160.106648 69.260426 
L 160.431628 70.553136 
L 160.756607 69.518553 
L 161.406566 66.32176 
L 161.731546 66.107726 
L 162.056525 67.217773 
L 162.381505 66.987383 
L 162.706485 65.415863 
L 163.356444 64.548833 
L 163.681423 64.825429 
L 164.006403 63.051754 
L 164.656362 63.779795 
L 165.306321 60.94412 
L 165.6313 61.82022 
L 165.95628 61.87663 
L 166.281259 60.212356 
L 166.606239 60.101168 
L 166.931218 59.421303 
L 167.581177 56.741872 
L 168.231136 58.59395 
L 168.881096 57.057833 
L 169.206075 57.339189 
L 169.531055 57.27263 
L 169.856034 57.496303 
L 170.505993 55.256273 
L 171.155952 54.047498 
L 171.480932 53.974909 
L 171.805911 54.520432 
L 172.130891 55.739619 
L 172.78085 56.908832 
L 173.105829 57.188364 
L 174.080768 58.625142 
L 174.405747 60.273538 
L 174.730727 60.519748 
L 175.055706 60.013124 
L 175.380686 60.605809 
L 175.705666 60.94313 
L 176.030645 60.541402 
L 176.355625 61.329167 
L 177.330563 58.165406 
L 177.655543 58.051368 
L 177.980522 57.348244 
L 178.305502 57.904502 
L 178.630481 59.035001 
L 179.28044 56.258795 
L 179.60542 54.173315 
L 179.930399 53.23661 
L 180.580358 52.694328 
L 180.905338 51.198123 
L 181.230317 51.221274 
L 181.555297 50.205936 
L 181.880277 48.451896 
L 182.205256 47.537247 
L 182.530236 47.175788 
L 182.855215 47.190149 
L 183.180195 48.120331 
L 183.505174 47.727262 
L 183.830154 47.538386 
L 184.155133 46.943496 
L 184.480113 45.889496 
L 184.805092 45.7369 
L 185.130072 44.807972 
L 185.455051 44.507711 
L 185.780031 44.364633 
L 186.10501 43.676405 
L 186.42999 42.682033 
L 186.754969 42.644114 
L 187.404928 43.577098 
L 187.729908 43.39872 
L 188.054887 42.71341 
L 188.379867 42.677875 
L 188.704847 42.983431 
L 189.029826 44.031805 
L 189.354806 43.988719 
L 189.679785 43.359661 
L 190.004765 43.843072 
L 190.329744 42.605803 
L 190.654724 42.236671 
L 190.979703 42.142257 
L 191.304683 42.222108 
L 191.954642 41.191171 
L 192.279621 41.273148 
L 192.604601 39.625517 
L 193.25456 38.123873 
L 193.579539 36.133057 
L 193.904519 35.958763 
L 194.229498 34.819924 
L 194.554478 34.733211 
L 194.879458 34.9882 
L 195.204437 35.011552 
L 195.529417 34.497756 
L 195.854396 35.609949 
L 196.504355 33.642346 
L 196.829335 33.160161 
L 197.154314 33.538588 
L 197.804273 33.876437 
L 198.129253 35.487885 
L 198.454232 35.94565 
L 198.779212 35.768978 
L 199.104191 35.125757 
L 199.429171 33.882445 
L 199.75415 33.206018 
L 200.07913 32.965306 
L 200.404109 32.2845 
L 200.729089 32.4859 
L 201.054068 33.452052 
L 201.379048 33.542781 
L 201.704028 33.973076 
L 202.029007 33.836576 
L 202.678966 33.801255 
L 203.003946 34.45271 
L 203.328925 34.445127 
L 203.653905 35.821772 
L 203.978884 35.727016 
L 204.303864 36.569093 
L 204.628843 37.743555 
L 205.278802 37.931909 
L 205.603782 38.004005 
L 205.928761 37.24377 
L 206.9037 37.893508 
L 207.878639 37.709041 
L 208.203618 38.197226 
L 208.528598 37.839231 
L 208.853577 37.690824 
L 209.178557 37.12326 
L 209.503536 35.735378 
L 209.828516 36.185384 
L 210.153495 36.344371 
L 210.478475 35.356411 
L 210.803454 35.38832 
L 211.453413 33.787606 
L 212.103372 34.074413 
L 212.428352 35.898964 
L 212.753331 35.713283 
L 213.40329 34.060611 
L 213.72827 34.030516 
L 214.053249 34.727762 
L 214.378229 36.622696 
L 214.703209 36.615923 
L 215.028188 36.378635 
L 215.353168 35.846491 
L 215.678147 34.494646 
L 216.003127 35.190822 
L 216.328106 34.131153 
L 216.653086 34.51129 
L 216.978065 34.623688 
L 217.303045 33.460953 
L 217.628024 33.915411 
L 218.927942 33.03069 
L 219.252922 33.100865 
L 219.902881 35.835594 
L 220.55284 36.931048 
L 220.87782 36.947749 
L 221.527779 38.355509 
L 221.852758 38.395085 
L 222.177738 37.822376 
L 222.502717 39.084663 
L 222.827697 38.191865 
L 223.152676 38.367855 
L 223.477656 39.757933 
L 223.802635 39.306514 
L 224.127615 38.501756 
L 224.452594 39.150338 
L 224.777574 40.053497 
L 225.102553 40.566406 
L 225.427533 39.09878 
L 225.752512 39.014256 
L 226.077492 40.258914 
L 226.402471 39.592061 
L 226.727451 39.412951 
L 227.05243 40.649192 
L 227.37741 40.831545 
L 228.027369 38.701939 
L 228.352349 38.576831 
L 228.677328 38.784589 
L 229.002308 40.236427 
L 229.327287 40.567344 
L 229.652267 39.727378 
L 229.977246 39.885817 
L 230.302226 39.360055 
L 230.627205 37.906663 
L 230.952185 38.461159 
L 231.277164 38.549427 
L 231.602144 38.421217 
L 231.927123 37.478103 
L 232.577082 36.106725 
L 233.227041 37.641895 
L 233.552021 37.340222 
L 234.20198 35.931358 
L 234.52696 35.945297 
L 234.851939 36.935406 
L 235.176919 36.743648 
L 236.151857 35.60207 
L 236.476837 35.909387 
L 236.801816 35.310866 
L 238.751693 37.64498 
L 239.401652 39.388302 
L 240.051611 38.728622 
L 240.376591 38.880666 
L 240.701571 39.991228 
L 241.02655 39.294111 
L 241.676509 40.222349 
L 242.001489 40.107655 
L 242.651448 37.387285 
L 242.976427 36.292695 
L 243.301407 37.370538 
L 243.626386 37.635977 
L 243.951366 39.489892 
L 244.601325 38.781323 
L 244.926304 39.615057 
L 245.251284 41.024651 
L 246.226222 43.488435 
L 246.551202 44.158988 
L 246.876182 44.413691 
L 247.201161 45.255351 
L 247.526141 45.327232 
L 248.1761 47.86191 
L 248.501079 48.565599 
L 248.826059 48.802125 
L 249.151038 50.844602 
L 249.476018 51.960005 
L 249.800997 51.494281 
L 250.125977 52.385302 
L 250.775936 53.480348 
L 251.100915 53.571811 
L 251.750874 52.689753 
L 252.400833 50.975909 
L 252.725813 51.45574 
L 253.050792 52.328684 
L 253.700752 53.116065 
L 254.025731 53.153727 
L 254.350711 54.717619 
L 254.67569 55.368025 
L 255.00067 55.103459 
L 255.650629 55.210265 
L 255.975608 55.453472 
L 256.300588 56.218194 
L 256.625567 55.485099 
L 256.950547 55.250867 
L 257.925485 54.973456 
L 258.250465 56.346931 
L 258.575444 57.083324 
L 258.900424 56.78057 
L 259.225403 57.024974 
L 259.550383 57.5365 
L 259.875363 57.157582 
L 260.525322 58.443062 
L 261.175281 55.73421 
L 261.50026 56.200187 
L 261.82524 56.914359 
L 262.150219 58.255566 
L 262.800178 59.520984 
L 263.125158 59.405443 
L 263.450137 57.595392 
L 263.775117 57.206701 
L 264.100096 57.828767 
L 264.425076 58.064847 
L 265.075035 60.397771 
L 265.400014 61.089406 
L 265.724994 60.63666 
L 266.049973 61.972411 
L 266.374953 61.830143 
L 266.699933 61.923238 
L 267.024912 60.990423 
L 267.349892 61.42497 
L 267.999851 62.951877 
L 268.64981 65.59028 
L 268.974789 66.079667 
L 269.299769 67.454875 
L 269.624748 66.946313 
L 269.949728 67.263571 
L 270.274707 67.224589 
L 270.599687 66.270071 
L 270.924666 66.843353 
L 271.249646 66.11059 
L 271.574625 66.003843 
L 272.549564 67.646753 
L 272.874544 67.702946 
L 273.199523 67.028985 
L 273.524503 67.161887 
L 273.849482 67.871139 
L 274.174462 67.811345 
L 274.499441 67.897477 
L 275.1494 68.674476 
L 275.47438 68.685164 
L 275.799359 70.798259 
L 276.449318 72.016157 
L 277.099277 73.213931 
L 277.424257 74.911432 
L 278.074216 76.0977 
L 278.724175 74.623663 
L 279.049154 75.22934 
L 279.374134 75.467771 
L 279.699114 75.023568 
L 280.349073 77.331708 
L 280.674052 77.679544 
L 280.999032 77.533568 
L 281.324011 76.98767 
L 281.648991 78.003107 
L 281.97397 78.509911 
L 282.29895 79.290086 
L 283.273888 80.596976 
L 283.598868 81.521732 
L 283.923847 81.905777 
L 284.248827 81.093905 
L 284.573806 82.272225 
L 285.223765 82.368799 
L 285.548745 82.996785 
L 285.873725 82.942676 
L 286.523684 82.222142 
L 286.848663 82.257788 
L 287.173643 82.145597 
L 287.823602 82.970018 
L 288.148581 82.697439 
L 289.12352 84.750609 
L 289.448499 84.922478 
L 289.773479 85.828583 
L 290.098458 87.345151 
L 290.423438 86.939508 
L 290.748417 87.415512 
L 291.073397 88.880861 
L 291.398376 89.572473 
L 291.723356 90.831213 
L 292.048335 90.430842 
L 292.698295 92.787652 
L 293.023274 93.390565 
L 293.348254 93.139273 
L 293.673233 93.520319 
L 293.998213 93.48153 
L 294.323192 95.274911 
L 294.648172 95.592708 
L 294.973151 96.119243 
L 295.62311 98.634697 
L 295.94809 98.695391 
L 296.598049 99.286501 
L 296.923028 99.762666 
L 297.897967 98.340261 
L 298.547926 99.617378 
L 298.872906 100.775508 
L 299.197885 100.217665 
L 300.172824 100.110945 
L 300.497803 100.083764 
L 300.822783 100.955684 
L 301.797721 102.481353 
L 302.122701 102.182837 
L 302.44768 102.800492 
L 302.77266 103.139025 
L 303.097639 102.931625 
L 303.422619 103.572647 
L 303.747598 104.701071 
L 304.072578 104.800768 
L 304.397557 105.103135 
L 304.722537 104.964074 
L 305.047516 104.643596 
L 305.372496 105.052196 
L 306.022455 107.958486 
L 306.347435 108.705827 
L 306.672414 108.720398 
L 306.997394 109.872347 
L 307.322373 110.203825 
L 307.647353 110.986026 
L 307.972332 110.467655 
L 308.622291 109.905313 
L 308.947271 110.397833 
L 309.27225 111.094086 
L 309.59723 111.501895 
L 309.922209 111.668198 
L 310.247189 112.318827 
L 310.572168 112.442375 
L 310.897148 112.793202 
L 311.222127 112.924237 
L 311.547107 113.241971 
L 311.872087 113.060396 
L 312.197066 114.224626 
L 312.522046 114.937585 
L 313.172005 116.867326 
L 313.496984 116.815495 
L 313.821964 118.772487 
L 314.146943 118.991982 
L 314.471923 118.74906 
L 314.796902 119.117903 
L 315.121882 119.694903 
L 315.446861 119.886622 
L 315.771841 120.217059 
L 316.09682 120.10738 
L 316.4218 120.554074 
L 317.071759 120.656391 
L 317.396738 121.248773 
L 317.721718 120.609184 
L 318.371677 121.330857 
L 319.021636 122.737612 
L 319.346616 122.640484 
L 319.671595 123.406616 
L 319.996575 124.52133 
L 320.321554 125.181764 
L 320.646534 125.349936 
L 320.971513 124.653181 
L 321.296493 124.39111 
L 322.596411 127.623418 
L 322.92139 128.981664 
L 323.24637 129.309265 
L 323.896329 129.576319 
L 324.221308 130.147847 
L 324.546288 131.642064 
L 324.871268 131.137543 
L 325.196247 131.629134 
L 325.521227 131.901859 
L 325.846206 131.54654 
L 326.171186 132.268154 
L 327.146124 136.282091 
L 327.796083 137.486744 
L 328.121063 138.816574 
L 328.446042 139.322112 
L 328.771022 139.10885 
L 329.096001 140.386004 
L 329.74596 141.530401 
L 330.07094 142.916771 
L 330.395919 143.454856 
L 330.720899 142.639663 
L 331.370858 146.113387 
L 331.695838 146.701061 
L 332.345797 148.591905 
L 332.670776 148.315095 
L 333.320735 148.147948 
L 333.645715 148.732052 
L 334.295674 150.715701 
L 334.620653 150.979504 
L 335.270612 150.956093 
L 335.920571 152.98437 
L 336.245551 153.192408 
L 336.89551 154.018793 
L 337.870449 156.555832 
L 338.195428 156.59208 
L 338.520408 157.242562 
L 338.845387 157.212305 
L 339.170367 156.154632 
L 339.495346 156.588032 
L 339.820326 156.573526 
L 340.145305 157.011924 
L 340.470285 157.696509 
L 340.795264 157.999426 
L 341.120244 158.647418 
L 341.445223 158.90609 
L 341.770203 160.78037 
L 342.095182 161.412812 
L 343.070121 164.011191 
L 343.3951 164.015217 
L 344.045059 165.056696 
L 344.370039 165.285254 
L 344.695019 165.720895 
L 345.019998 165.951711 
L 345.344978 165.777744 
L 345.669957 166.565815 
L 345.994937 167.901362 
L 346.319916 167.95339 
L 346.644896 168.549333 
L 346.969875 169.518389 
L 347.294855 169.621474 
L 347.619834 170.040348 
L 348.269793 171.189659 
L 348.594773 172.820766 
L 348.919752 173.392173 
L 349.244732 174.366487 
L 349.569711 174.678885 
L 349.894691 175.646142 
L 350.21967 175.862752 
L 351.844568 180.052785 
L 352.169548 180.409298 
L 352.494527 180.461905 
L 352.819507 180.972891 
L 353.469466 181.210447 
L 354.119425 182.027171 
L 354.769384 184.212083 
L 355.094363 185.1999 
L 355.419343 184.918257 
L 355.744322 185.852188 
L 356.069302 185.949607 
L 357.04424 188.621549 
L 357.36922 190.093883 
L 358.344159 192.031591 
L 358.669138 193.319027 
L 358.994118 193.892783 
L 359.644077 195.711443 
L 359.969056 196.189748 
L 360.943995 198.682127 
L 361.593954 201.520691 
L 361.918933 201.850836 
L 362.243913 202.395384 
L 362.568892 202.527317 
L 363.218851 204.270627 
L 363.868811 205.313417 
L 364.19379 205.585338 
L 364.51877 206.380816 
L 365.168729 208.818384 
L 365.818688 209.649054 
L 366.468647 211.110652 
L 366.793626 212.37644 
L 367.443585 213.739419 
L 367.768565 214.175515 
L 368.743503 216.69205 
L 369.068483 217.973138 
L 369.393462 218.540535 
L 369.718442 218.712262 
L 370.693381 221.112355 
L 371.01836 221.57524 
L 371.34334 222.818407 
L 371.993299 224.451342 
L 372.318278 224.898448 
L 372.643258 225.850305 
L 372.968237 227.214013 
L 373.293217 227.826329 
L 373.943176 228.178374 
L 374.268155 229.150728 
L 374.593135 229.554851 
L 375.243094 231.832414 
L 375.568073 233.452149 
L 375.893053 233.96301 
L 378.16791 242.051584 
L 378.492889 242.715008 
L 379.142848 244.757474 
L 379.467828 245.574249 
L 380.117787 247.704614 
L 380.767746 249.19925 
L 382.067664 252.069268 
L 383.367582 255.474238 
L 383.692562 256.608446 
L 384.017541 257.29998 
L 384.99248 259.892976 
L 386.292398 263.238348 
L 386.292398 263.238348 
" clip-path="url(#p3652add45b)" style="fill: none; stroke: #ff7f0e; stroke-width: 1.2; stroke-linecap: round"/>
   </g>
   <g id="line2d_16">
    <path d="M 61.637852 263.238348 
L 67.812463 246.914954 
L 73.987074 231.224508 
L 79.836706 216.94373 
L 85.686337 203.231027 
L 91.535969 190.086399 
L 97.06062 178.19364 
L 102.585272 166.807591 
L 108.109924 155.92825 
L 113.634576 145.555619 
L 118.834249 136.256018 
L 124.033921 127.405267 
L 129.233593 119.003365 
L 134.108286 111.534229 
L 138.982979 104.459589 
L 143.857672 97.779446 
L 148.732365 91.4938 
L 153.282078 85.98312 
L 157.831792 80.816091 
L 162.381505 75.992712 
L 166.606239 71.821568 
L 170.830973 67.946734 
L 175.055706 64.368211 
L 179.28044 61.085999 
L 183.505174 58.100098 
L 187.404928 55.606879 
L 191.304683 53.366138 
L 195.204437 51.377875 
L 199.104191 49.64209 
L 203.003946 48.158783 
L 206.9037 46.927953 
L 210.478475 46.021488 
L 214.053249 45.327174 
L 217.628024 44.845011 
L 221.202799 44.575 
L 224.777574 44.51714 
L 228.352349 44.671432 
L 231.927123 45.037876 
L 235.501898 45.616471 
L 239.076673 46.407218 
L 242.651448 47.410116 
L 246.551202 48.746144 
L 250.450956 50.334651 
L 254.350711 52.175635 
L 258.250465 54.269097 
L 262.150219 56.615037 
L 266.049973 59.213455 
L 269.949728 62.064351 
L 274.174462 65.437735 
L 278.399195 69.107431 
L 282.623929 73.073437 
L 286.848663 77.335754 
L 291.398376 82.257319 
L 295.94809 87.522534 
L 300.497803 93.131399 
L 305.047516 99.083915 
L 309.922209 105.842957 
L 314.796902 112.996496 
L 319.671595 120.544532 
L 324.546288 128.487064 
L 329.74596 137.393922 
L 334.945633 146.749628 
L 340.145305 156.554185 
L 345.669957 167.463332 
L 351.194609 178.879188 
L 356.719261 190.801753 
L 362.568892 203.97794 
L 368.418524 217.722203 
L 374.268155 232.034541 
L 380.117787 246.914954 
L 386.292398 263.238348 
L 386.292398 263.238348 
" clip-path="url(#p3652add45b)" style="fill: none; stroke-dasharray: 4.44,1.92; stroke-dashoffset: 0; stroke: #ff7f0e; stroke-width: 1.2"/>
   </g>
   <g id="patch_3">
    <path d="M 45.405125 263.238348 
L 45.405125 44.511661 
" style="fill: none; stroke: #262626; stroke-linejoin: miter; stroke-linecap: square"/>
   </g>
   <g id="patch_4">
    <path d="M 61.637852 286.3005 
L 386.292398 286.3005 
" style="fill: none; stroke: #262626; stroke-linejoin: miter; stroke-linecap: square"/>
   </g>
   <g id="text_15">
    <!-- 1D Brownian bridge sample statistics (KL expansion) -->
    <g style="fill: #262626" transform="translate(111.831875 14.1885) scale(0.096 -0.096)">
     <defs>
      <path id="ArialMT-44" d="M 494 0 
L 494 4581 
L 2072 4581 
Q 2606 4581 2888 4516 
Q 3281 4425 3559 4188 
Q 3922 3881 4101 3404 
Q 4281 2928 4281 2316 
Q 4281 1794 4159 1391 
Q 4038 988 3847 723 
Q 3656 459 3429 307 
Q 3203 156 2883 78 
Q 2563 0 2147 0 
L 494 0 
z
M 1100 541 
L 2078 541 
Q 2531 541 2789 625 
Q 3047 709 3200 863 
Q 3416 1078 3536 1442 
Q 3656 1806 3656 2325 
Q 3656 3044 3420 3430 
Q 3184 3816 2847 3947 
Q 2603 4041 2063 4041 
L 1100 4041 
L 1100 541 
z
" transform="scale(0.015625)"/>
      <path id="ArialMT-20" transform="scale(0.015625)"/>
      <path id="ArialMT-42" d="M 469 0 
L 469 4581 
L 2188 4581 
Q 2713 4581 3030 4442 
Q 3347 4303 3526 4014 
Q 3706 3725 3706 3409 
Q 3706 3116 3547 2856 
Q 3388 2597 3066 2438 
Q 3481 2316 3704 2022 
Q 3928 1728 3928 1328 
Q 3928 1006 3792 729 
Q 3656 453 3456 303 
Q 3256 153 2954 76 
Q 2653 0 2216 0 
L 469 0 
z
M 1075 2656 
L 2066 2656 
Q 2469 2656 2644 2709 
Q 2875 2778 2992 2937 
Q 3109 3097 3109 3338 
Q 3109 3566 3000 3739 
Q 2891 3913 2687 3977 
Q 2484 4041 1991 4041 
L 1075 4041 
L 1075 2656 
z
M 1075 541 
L 2216 541 
Q 2509 541 2628 563 
Q 2838 600 2978 687 
Q 3119 775 3209 942 
Q 3300 1109 3300 1328 
Q 3300 1584 3169 1773 
Q 3038 1963 2805 2039 
Q 2572 2116 2134 2116 
L 1075 2116 
L 1075 541 
z
" transform="scale(0.015625)"/>
      <path id="ArialMT-72" d="M 416 0 
L 416 3319 
L 922 3319 
L 922 2816 
Q 1116 3169 1280 3281 
Q 1444 3394 1641 3394 
Q 1925 3394 2219 3213 
L 2025 2691 
Q 1819 2813 1613 2813 
Q 1428 2813 1281 2702 
Q 1134 2591 1072 2394 
Q 978 2094 978 1738 
L 978 0 
L 416 0 
z
" transform="scale(0.015625)"/>
      <path id="ArialMT-6f" d="M 213 1659 
Q 213 2581 725 3025 
Q 1153 3394 1769 3394 
Q 2453 3394 2887 2945 
Q 3322 2497 3322 1706 
Q 3322 1066 3130 698 
Q 2938 331 2570 128 
Q 2203 -75 1769 -75 
Q 1072 -75 642 372 
Q 213 819 213 1659 
z
M 791 1659 
Q 791 1022 1069 705 
Q 1347 388 1769 388 
Q 2188 388 2466 706 
Q 2744 1025 2744 1678 
Q 2744 2294 2464 2611 
Q 2184 2928 1769 2928 
Q 1347 2928 1069 2612 
Q 791 2297 791 1659 
z
" transform="scale(0.015625)"/>
      <path id="ArialMT-77" d="M 1034 0 
L 19 3319 
L 600 3319 
L 1128 1403 
L 1325 691 
Q 1338 744 1497 1375 
L 2025 3319 
L 2603 3319 
L 3100 1394 
L 3266 759 
L 3456 1400 
L 4025 3319 
L 4572 3319 
L 3534 0 
L 2950 0 
L 2422 1988 
L 2294 2553 
L 1622 0 
L 1034 0 
z
" transform="scale(0.015625)"/>
      <path id="ArialMT-6e" d="M 422 0 
L 422 3319 
L 928 3319 
L 928 2847 
Q 1294 3394 1984 3394 
Q 2284 3394 2536 3286 
Q 2788 3178 2913 3003 
Q 3038 2828 3088 2588 
Q 3119 2431 3119 2041 
L 3119 0 
L 2556 0 
L 2556 2019 
Q 2556 2363 2490 2533 
Q 2425 2703 2258 2804 
Q 2091 2906 1866 2906 
Q 1506 2906 1245 2678 
Q 984 2450 984 1813 
L 984 0 
L 422 0 
z
" transform="scale(0.015625)"/>
      <path id="ArialMT-62" d="M 941 0 
L 419 0 
L 419 4581 
L 981 4581 
L 981 2947 
Q 1338 3394 1891 3394 
Q 2197 3394 2470 3270 
Q 2744 3147 2920 2923 
Q 3097 2700 3197 2384 
Q 3297 2069 3297 1709 
Q 3297 856 2875 390 
Q 2453 -75 1863 -75 
Q 1275 -75 941 416 
L 941 0 
z
M 934 1684 
Q 934 1088 1097 822 
Q 1363 388 1816 388 
Q 2184 388 2453 708 
Q 2722 1028 2722 1663 
Q 2722 2313 2464 2622 
Q 2206 2931 1841 2931 
Q 1472 2931 1203 2611 
Q 934 2291 934 1684 
z
" transform="scale(0.015625)"/>
      <path id="ArialMT-64" d="M 2575 0 
L 2575 419 
Q 2259 -75 1647 -75 
Q 1250 -75 917 144 
Q 584 363 401 755 
Q 219 1147 219 1656 
Q 219 2153 384 2558 
Q 550 2963 881 3178 
Q 1213 3394 1622 3394 
Q 1922 3394 2156 3267 
Q 2391 3141 2538 2938 
L 2538 4581 
L 3097 4581 
L 3097 0 
L 2575 0 
z
M 797 1656 
Q 797 1019 1065 703 
Q 1334 388 1700 388 
Q 2069 388 2326 689 
Q 2584 991 2584 1609 
Q 2584 2291 2321 2609 
Q 2059 2928 1675 2928 
Q 1300 2928 1048 2622 
Q 797 2316 797 1656 
z
" transform="scale(0.015625)"/>
      <path id="ArialMT-67" d="M 319 -275 
L 866 -356 
Q 900 -609 1056 -725 
Q 1266 -881 1628 -881 
Q 2019 -881 2231 -725 
Q 2444 -569 2519 -288 
Q 2563 -116 2559 434 
Q 2191 0 1641 0 
Q 956 0 581 494 
Q 206 988 206 1678 
Q 206 2153 378 2554 
Q 550 2956 876 3175 
Q 1203 3394 1644 3394 
Q 2231 3394 2613 2919 
L 2613 3319 
L 3131 3319 
L 3131 450 
Q 3131 -325 2973 -648 
Q 2816 -972 2473 -1159 
Q 2131 -1347 1631 -1347 
Q 1038 -1347 672 -1080 
Q 306 -813 319 -275 
z
M 784 1719 
Q 784 1066 1043 766 
Q 1303 466 1694 466 
Q 2081 466 2343 764 
Q 2606 1063 2606 1700 
Q 2606 2309 2336 2618 
Q 2066 2928 1684 2928 
Q 1309 2928 1046 2623 
Q 784 2319 784 1719 
z
" transform="scale(0.015625)"/>
      <path id="ArialMT-73" d="M 197 991 
L 753 1078 
Q 800 744 1014 566 
Q 1228 388 1613 388 
Q 2000 388 2187 545 
Q 2375 703 2375 916 
Q 2375 1106 2209 1216 
Q 2094 1291 1634 1406 
Q 1016 1563 777 1677 
Q 538 1791 414 1992 
Q 291 2194 291 2438 
Q 291 2659 392 2848 
Q 494 3038 669 3163 
Q 800 3259 1026 3326 
Q 1253 3394 1513 3394 
Q 1903 3394 2198 3281 
Q 2494 3169 2634 2976 
Q 2775 2784 2828 2463 
L 2278 2388 
Q 2241 2644 2061 2787 
Q 1881 2931 1553 2931 
Q 1166 2931 1000 2803 
Q 834 2675 834 2503 
Q 834 2394 903 2306 
Q 972 2216 1119 2156 
Q 1203 2125 1616 2013 
Q 2213 1853 2448 1751 
Q 2684 1650 2818 1456 
Q 2953 1263 2953 975 
Q 2953 694 2789 445 
Q 2625 197 2315 61 
Q 2006 -75 1616 -75 
Q 969 -75 630 194 
Q 291 463 197 991 
z
" transform="scale(0.015625)"/>
      <path id="ArialMT-70" d="M 422 -1272 
L 422 3319 
L 934 3319 
L 934 2888 
Q 1116 3141 1344 3267 
Q 1572 3394 1897 3394 
Q 2322 3394 2647 3175 
Q 2972 2956 3137 2557 
Q 3303 2159 3303 1684 
Q 3303 1175 3120 767 
Q 2938 359 2589 142 
Q 2241 -75 1856 -75 
Q 1575 -75 1351 44 
Q 1128 163 984 344 
L 984 -1272 
L 422 -1272 
z
M 931 1641 
Q 931 1000 1190 694 
Q 1450 388 1819 388 
Q 2194 388 2461 705 
Q 2728 1022 2728 1688 
Q 2728 2322 2467 2637 
Q 2206 2953 1844 2953 
Q 1484 2953 1207 2617 
Q 931 2281 931 1641 
z
" transform="scale(0.015625)"/>
      <path id="ArialMT-74" d="M 1650 503 
L 1731 6 
Q 1494 -44 1306 -44 
Q 1000 -44 831 53 
Q 663 150 594 308 
Q 525 466 525 972 
L 525 2881 
L 113 2881 
L 113 3319 
L 525 3319 
L 525 4141 
L 1084 4478 
L 1084 3319 
L 1650 3319 
L 1650 2881 
L 1084 2881 
L 1084 941 
Q 1084 700 1114 631 
Q 1144 563 1211 522 
Q 1278 481 1403 481 
Q 1497 481 1650 503 
z
" transform="scale(0.015625)"/>
      <path id="ArialMT-63" d="M 2588 1216 
L 3141 1144 
Q 3050 572 2676 248 
Q 2303 -75 1759 -75 
Q 1078 -75 664 370 
Q 250 816 250 1647 
Q 250 2184 428 2587 
Q 606 2991 970 3192 
Q 1334 3394 1763 3394 
Q 2303 3394 2647 3120 
Q 2991 2847 3088 2344 
L 2541 2259 
Q 2463 2594 2264 2762 
Q 2066 2931 1784 2931 
Q 1359 2931 1093 2626 
Q 828 2322 828 1663 
Q 828 994 1084 691 
Q 1341 388 1753 388 
Q 2084 388 2306 591 
Q 2528 794 2588 1216 
z
" transform="scale(0.015625)"/>
      <path id="ArialMT-28" d="M 1497 -1347 
Q 1031 -759 709 28 
Q 388 816 388 1659 
Q 388 2403 628 3084 
Q 909 3875 1497 4659 
L 1900 4659 
Q 1522 4009 1400 3731 
Q 1209 3300 1100 2831 
Q 966 2247 966 1656 
Q 966 153 1900 -1347 
L 1497 -1347 
z
" transform="scale(0.015625)"/>
      <path id="ArialMT-4b" d="M 469 0 
L 469 4581 
L 1075 4581 
L 1075 2309 
L 3350 4581 
L 4172 4581 
L 2250 2725 
L 4256 0 
L 3456 0 
L 1825 2319 
L 1075 1588 
L 1075 0 
L 469 0 
z
" transform="scale(0.015625)"/>
      <path id="ArialMT-4c" d="M 469 0 
L 469 4581 
L 1075 4581 
L 1075 541 
L 3331 541 
L 3331 0 
L 469 0 
z
" transform="scale(0.015625)"/>
      <path id="ArialMT-78" d="M 47 0 
L 1259 1725 
L 138 3319 
L 841 3319 
L 1350 2541 
Q 1494 2319 1581 2169 
Q 1719 2375 1834 2534 
L 2394 3319 
L 3066 3319 
L 1919 1756 
L 3153 0 
L 2463 0 
L 1781 1031 
L 1600 1309 
L 728 0 
L 47 0 
z
" transform="scale(0.015625)"/>
      <path id="ArialMT-29" d="M 791 -1347 
L 388 -1347 
Q 1322 153 1322 1656 
Q 1322 2244 1188 2822 
Q 1081 3291 891 3722 
Q 769 4003 388 4659 
L 791 4659 
Q 1378 3875 1659 3084 
Q 1900 2403 1900 1659 
Q 1900 816 1576 28 
Q 1253 -759 791 -1347 
z
" transform="scale(0.015625)"/>
     </defs>
     <use xlink:href="#ArialMT-31"/>
     <use xlink:href="#ArialMT-44" x="55.615234"/>
     <use xlink:href="#ArialMT-20" x="127.832031"/>
     <use xlink:href="#ArialMT-42" x="155.615234"/>
     <use xlink:href="#ArialMT-72" x="222.314453"/>
     <use xlink:href="#ArialMT-6f" x="255.615234"/>
     <use xlink:href="#ArialMT-77" x="311.230469"/>
     <use xlink:href="#ArialMT-6e" x="383.447266"/>
     <use xlink:href="#ArialMT-69" x="439.0625"/>
     <use xlink:href="#ArialMT-61" x="461.279297"/>
     <use xlink:href="#ArialMT-6e" x="516.894531"/>
     <use xlink:href="#ArialMT-20" x="572.509766"/>
     <use xlink:href="#ArialMT-62" x="600.292969"/>
     <use xlink:href="#ArialMT-72" x="655.908203"/>
     <use xlink:href="#ArialMT-69" x="689.208984"/>
     <use xlink:href="#ArialMT-64" x="711.425781"/>
     <use xlink:href="#ArialMT-67" x="767.041016"/>
     <use xlink:href="#ArialMT-65" x="822.65625"/>
     <use xlink:href="#ArialMT-20" x="878.271484"/>
     <use xlink:href="#ArialMT-73" x="906.054688"/>
     <use xlink:href="#ArialMT-61" x="956.054688"/>
     <use xlink:href="#ArialMT-6d" x="1011.669922"/>
     <use xlink:href="#ArialMT-70" x="1094.970703"/>
     <use xlink:href="#ArialMT-6c" x="1150.585938"/>
     <use xlink:href="#ArialMT-65" x="1172.802734"/>
     <use xlink:href="#ArialMT-20" x="1228.417969"/>
     <use xlink:href="#ArialMT-73" x="1256.201172"/>
     <use xlink:href="#ArialMT-74" x="1306.201172"/>
     <use xlink:href="#ArialMT-61" x="1333.984375"/>
     <use xlink:href="#ArialMT-74" x="1389.599609"/>
     <use xlink:href="#ArialMT-69" x="1417.382812"/>
     <use xlink:href="#ArialMT-73" x="1439.599609"/>
     <use xlink:href="#ArialMT-74" x="1489.599609"/>
     <use xlink:href="#ArialMT-69" x="1517.382812"/>
     <use xlink:href="#ArialMT-63" x="1539.599609"/>
     <use xlink:href="#ArialMT-73" x="1589.599609"/>
     <use xlink:href="#ArialMT-20" x="1639.599609"/>
     <use xlink:href="#ArialMT-28" x="1667.382812"/>
     <use xlink:href="#ArialMT-4b" x="1700.683594"/>
     <use xlink:href="#ArialMT-4c" x="1767.382812"/>
     <use xlink:href="#ArialMT-20" x="1819.248047"/>
     <use xlink:href="#ArialMT-65" x="1847.03125"/>
     <use xlink:href="#ArialMT-78" x="1902.646484"/>
     <use xlink:href="#ArialMT-70" x="1952.646484"/>
     <use xlink:href="#ArialMT-61" x="2008.261719"/>
     <use xlink:href="#ArialMT-6e" x="2063.876953"/>
     <use xlink:href="#ArialMT-73" x="2119.492188"/>
     <use xlink:href="#ArialMT-69" x="2169.492188"/>
     <use xlink:href="#ArialMT-6f" x="2191.708984"/>
     <use xlink:href="#ArialMT-6e" x="2247.324219"/>
     <use xlink:href="#ArialMT-29" x="2302.939453"/>
    </g>
   </g>
   <g id="legend_1">
    <g id="patch_5">
     <path d="M 314.73825 77.02 
L 396.365125 77.02 
Q 398.125125 77.02 398.125125 75.26 
L 398.125125 26.3485 
Q 398.125125 24.5885 396.365125 24.5885 
L 314.73825 24.5885 
Q 312.97825 24.5885 312.97825 26.3485 
L 312.97825 75.26 
Q 312.97825 77.02 314.73825 77.02 
z
" style="fill: #ffffff; opacity: 0.8; stroke: #cccccc; stroke-width: 0.8; stroke-linejoin: miter"/>
    </g>
    <g id="line2d_17">
     <path d="M 316.49825 31.327375 
L 325.29825 31.327375 
L 334.09825 31.327375 
" style="fill: none; stroke: #1f77b4; stroke-width: 1.2; stroke-linecap: round"/>
    </g>
    <g id="text_16">
     <!-- Mean -->
     <g style="fill: #262626" transform="translate(341.13825 34.407375) scale(0.088 -0.088)">
      <defs>
       <path id="ArialMT-4d" d="M 475 0 
L 475 4581 
L 1388 4581 
L 2472 1338 
Q 2622 884 2691 659 
Q 2769 909 2934 1394 
L 4031 4581 
L 4847 4581 
L 4847 0 
L 4263 0 
L 4263 3834 
L 2931 0 
L 2384 0 
L 1059 3900 
L 1059 0 
L 475 0 
z
" transform="scale(0.015625)"/>
      </defs>
      <use xlink:href="#ArialMT-4d"/>
      <use xlink:href="#ArialMT-65" x="83.300781"/>
      <use xlink:href="#ArialMT-61" x="138.916016"/>
      <use xlink:href="#ArialMT-6e" x="194.53125"/>
     </g>
    </g>
    <g id="line2d_18">
     <path d="M 316.49825 43.77525 
L 325.29825 43.77525 
L 334.09825 43.77525 
" style="fill: none; stroke-dasharray: 4.44,1.92; stroke-dashoffset: 0; stroke: #1f77b4; stroke-width: 1.2"/>
    </g>
    <g id="text_17">
     <!-- True mean -->
     <g style="fill: #262626" transform="translate(341.13825 46.85525) scale(0.088 -0.088)">
      <use xlink:href="#ArialMT-54"/>
      <use xlink:href="#ArialMT-72" x="57.333984"/>
      <use xlink:href="#ArialMT-75" x="90.634766"/>
      <use xlink:href="#ArialMT-65" x="146.25"/>
      <use xlink:href="#ArialMT-20" x="201.865234"/>
      <use xlink:href="#ArialMT-6d" x="229.648438"/>
      <use xlink:href="#ArialMT-65" x="312.949219"/>
      <use xlink:href="#ArialMT-61" x="368.564453"/>
      <use xlink:href="#ArialMT-6e" x="424.179688"/>
     </g>
    </g>
    <g id="line2d_19">
     <path d="M 316.49825 56.223125 
L 325.29825 56.223125 
L 334.09825 56.223125 
" style="fill: none; stroke: #ff7f0e; stroke-width: 1.2; stroke-linecap: round"/>
    </g>
    <g id="text_18">
     <!-- Variance -->
     <g style="fill: #262626" transform="translate(341.13825 59.303125) scale(0.088 -0.088)">
      <use xlink:href="#ArialMT-56"/>
      <use xlink:href="#ArialMT-61" x="59.324219"/>
      <use xlink:href="#ArialMT-72" x="114.939453"/>
      <use xlink:href="#ArialMT-69" x="148.240234"/>
      <use xlink:href="#ArialMT-61" x="170.457031"/>
      <use xlink:href="#ArialMT-6e" x="226.072266"/>
      <use xlink:href="#ArialMT-63" x="281.6875"/>
      <use xlink:href="#ArialMT-65" x="331.6875"/>
     </g>
    </g>
    <g id="line2d_20">
     <path d="M 316.49825 68.671 
L 325.29825 68.671 
L 334.09825 68.671 
" style="fill: none; stroke-dasharray: 4.44,1.92; stroke-dashoffset: 0; stroke: #ff7f0e; stroke-width: 1.2"/>
    </g>
    <g id="text_19">
     <!-- True variance -->
     <g style="fill: #262626" transform="translate(341.13825 71.751) scale(0.088 -0.088)">
      <defs>
       <path id="ArialMT-76" d="M 1344 0 
L 81 3319 
L 675 3319 
L 1388 1331 
Q 1503 1009 1600 663 
Q 1675 925 1809 1294 
L 2547 3319 
L 3125 3319 
L 1869 0 
L 1344 0 
z
" transform="scale(0.015625)"/>
      </defs>
      <use xlink:href="#ArialMT-54"/>
      <use xlink:href="#ArialMT-72" x="57.333984"/>
      <use xlink:href="#ArialMT-75" x="90.634766"/>
      <use xlink:href="#ArialMT-65" x="146.25"/>
      <use xlink:href="#ArialMT-20" x="201.865234"/>
      <use xlink:href="#ArialMT-76" x="229.648438"/>
      <use xlink:href="#ArialMT-61" x="279.648438"/>
      <use xlink:href="#ArialMT-72" x="335.263672"/>
      <use xlink:href="#ArialMT-69" x="368.564453"/>
      <use xlink:href="#ArialMT-61" x="390.78125"/>
      <use xlink:href="#ArialMT-6e" x="446.396484"/>
      <use xlink:href="#ArialMT-63" x="502.011719"/>
      <use xlink:href="#ArialMT-65" x="552.011719"/>
     </g>
    </g>
   </g>
  </g>
 </g>
 <defs>
  <clipPath id="p3652add45b">
   <rect x="45.405125" y="20.1885" width="357.12" height="266.112"/>
  </clipPath>
 </defs>
</svg>