<?xml version="1.0" encoding="utf-8" standalone="no"?>
<!DOCTYPE svg PUBLIC "-//W3C//DTD SVG 1.1//EN"
  "http://www.w3.org/Graphics/SVG/1.1/DTD/svg11.dtd">
<svg xmlns:xlink="http://www.w3.org/1999/xlink" width="402.085375pt" height="309.731375pt" viewBox="0 0 402.085375 309.731375" xmlns="http://www.w3.org/2000/svg" version="1.1">
 <metadata>
  <rdf:RDF xmlns:dc="http://purl.org/dc/elements/1.1/" xmlns:cc="http://creativecommons.org/ns#" xmlns:rdf="http://www.w3.org/1999/02/22-rdf-syntax-ns#">
   <cc:Work>
    <dc:type rdf:resource="http://purl.org/dc/dcmitype/StillImage"/>
    <dc:date>2024-12-05T18:33:18.216355</dc:date>
    <dc:format>image/svg+xml</dc:format>
    <dc:creator>
     <cc:Agent>
      <dc:title>Matplotlib v3.9.2, https://matplotlib.org/</dc:title>
     </cc:Agent>
    </dc:creator>
   </cc:Work>
  </rdf:RDF>
 </metadata>
 <defs>
  <style type="text/css">*{stroke-linejoin: round; stroke-linecap: butt}</style>
 </defs>
 <g id="figure_1">
  <g id="patch_1">
   <path d="M 0 309.731375 
L 402.085375 309.731375 
L 402.085375 0 
L 0 0 
z
" style="fill: #ffffff"/>
  </g>
  <g id="axes_1">
   <g id="patch_2">
    <path d="M 37.765375 286.1835 
L 394.885375 286.1835 
L 394.885375 20.0715 
L 37.765375 20.0715 
z
" style="fill: #ffffff"/>
   </g>
   <g id="matplotlib.axis_1">
    <g id="xtick_1">
     <g id="line2d_1">
      <path d="M 53.998102 286.1835 
L 53.998102 20.0715 
" clip-path="url(#pdb8ad6f175)" style="fill: none; stroke: #cccccc; stroke-width: 0.8; stroke-linecap: round"/>
     </g>
     <g id="line2d_2">
      <defs>
       <path id="meaee223b4f" d="M 0 0 
L 0 4.8 
" style="stroke: #262626"/>
      </defs>
      <g>
       <use xlink:href="#meaee223b4f" x="53.998102" y="286.1835" style="fill: #262626; stroke: #262626"/>
      </g>
     </g>
     <g id="text_1">
      <!-- 0 -->
      <g style="fill: #262626" transform="translate(51.55129 300.782375) scale(0.088 -0.088)">
       <defs>
        <path id="ArialMT-30" d="M 266 2259 
Q 266 3072 433 3567 
Q 600 4063 929 4331 
Q 1259 4600 1759 4600 
Q 2128 4600 2406 4451 
Q 2684 4303 2865 4023 
Q 3047 3744 3150 3342 
Q 3253 2941 3253 2259 
Q 3253 1453 3087 958 
Q 2922 463 2592 192 
Q 2263 -78 1759 -78 
Q 1097 -78 719 397 
Q 266 969 266 2259 
z
M 844 2259 
Q 844 1131 1108 757 
Q 1372 384 1759 384 
Q 2147 384 2411 759 
Q 2675 1134 2675 2259 
Q 2675 3391 2411 3762 
Q 2147 4134 1753 4134 
Q 1366 4134 1134 3806 
Q 844 3388 844 2259 
z
" transform="scale(0.015625)"/>
       </defs>
       <use xlink:href="#ArialMT-30"/>
      </g>
     </g>
    </g>
    <g id="xtick_2">
     <g id="line2d_3">
      <path d="M 133.269143 286.1835 
L 133.269143 20.0715 
" clip-path="url(#pdb8ad6f175)" style="fill: none; stroke: #cccccc; stroke-width: 0.8; stroke-linecap: round"/>
     </g>
     <g id="line2d_4">
      <g>
       <use xlink:href="#meaee223b4f" x="133.269143" y="286.1835" style="fill: #262626; stroke: #262626"/>
      </g>
     </g>
     <g id="text_2">
      <!-- 2000 -->
      <g style="fill: #262626" transform="translate(123.481893 300.782375) scale(0.088 -0.088)">
       <defs>
        <path id="ArialMT-32" d="M 3222 541 
L 3222 0 
L 194 0 
Q 188 203 259 391 
Q 375 700 629 1000 
Q 884 1300 1366 1694 
Q 2113 2306 2375 2664 
Q 2638 3022 2638 3341 
Q 2638 3675 2398 3904 
Q 2159 4134 1775 4134 
Q 1369 4134 1125 3890 
Q 881 3647 878 3216 
L 300 3275 
Q 359 3922 746 4261 
Q 1134 4600 1788 4600 
Q 2447 4600 2831 4234 
Q 3216 3869 3216 3328 
Q 3216 3053 3103 2787 
Q 2991 2522 2730 2228 
Q 2469 1934 1863 1422 
Q 1356 997 1212 845 
Q 1069 694 975 541 
L 3222 541 
z
" transform="scale(0.015625)"/>
       </defs>
       <use xlink:href="#ArialMT-32"/>
       <use xlink:href="#ArialMT-30" x="55.615234"/>
       <use xlink:href="#ArialMT-30" x="111.230469"/>
       <use xlink:href="#ArialMT-30" x="166.845703"/>
      </g>
     </g>
    </g>
    <g id="xtick_3">
     <g id="line2d_5">
      <path d="M 212.540183 286.1835 
L 212.540183 20.0715 
" clip-path="url(#pdb8ad6f175)" style="fill: none; stroke: #cccccc; stroke-width: 0.8; stroke-linecap: round"/>
     </g>
     <g id="line2d_6">
      <g>
       <use xlink:href="#meaee223b4f" x="212.540183" y="286.1835" style="fill: #262626; stroke: #262626"/>
      </g>
     </g>
     <g id="text_3">
      <!-- 4000 -->
      <g style="fill: #262626" transform="translate(202.752933 300.782375) scale(0.088 -0.088)">
       <defs>
        <path id="ArialMT-34" d="M 2069 0 
L 2069 1097 
L 81 1097 
L 81 1613 
L 2172 4581 
L 2631 4581 
L 2631 1613 
L 3250 1613 
L 3250 1097 
L 2631 1097 
L 2631 0 
L 2069 0 
z
M 2069 1613 
L 2069 3678 
L 634 1613 
L 2069 1613 
z
" transform="scale(0.015625)"/>
       </defs>
       <use xlink:href="#ArialMT-34"/>
       <use xlink:href="#ArialMT-30" x="55.615234"/>
       <use xlink:href="#ArialMT-30" x="111.230469"/>
       <use xlink:href="#ArialMT-30" x="166.845703"/>
      </g>
     </g>
    </g>
    <g id="xtick_4">
     <g id="line2d_7">
      <path d="M 291.811223 286.1835 
L 291.811223 20.0715 
" clip-path="url(#pdb8ad6f175)" style="fill: none; stroke: #cccccc; stroke-width: 0.8; stroke-linecap: round"/>
     </g>
     <g id="line2d_8">
      <g>
       <use xlink:href="#meaee223b4f" x="291.811223" y="286.1835" style="fill: #262626; stroke: #262626"/>
      </g>
     </g>
     <g id="text_4">
      <!-- 6000 -->
      <g style="fill: #262626" transform="translate(282.023973 300.782375) scale(0.088 -0.088)">
       <defs>
        <path id="ArialMT-36" d="M 3184 3459 
L 2625 3416 
Q 2550 3747 2413 3897 
Q 2184 4138 1850 4138 
Q 1581 4138 1378 3988 
Q 1113 3794 959 3422 
Q 806 3050 800 2363 
Q 1003 2672 1297 2822 
Q 1591 2972 1913 2972 
Q 2475 2972 2870 2558 
Q 3266 2144 3266 1488 
Q 3266 1056 3080 686 
Q 2894 316 2569 119 
Q 2244 -78 1831 -78 
Q 1128 -78 684 439 
Q 241 956 241 2144 
Q 241 3472 731 4075 
Q 1159 4600 1884 4600 
Q 2425 4600 2770 4297 
Q 3116 3994 3184 3459 
z
M 888 1484 
Q 888 1194 1011 928 
Q 1134 663 1356 523 
Q 1578 384 1822 384 
Q 2178 384 2434 671 
Q 2691 959 2691 1453 
Q 2691 1928 2437 2201 
Q 2184 2475 1800 2475 
Q 1419 2475 1153 2201 
Q 888 1928 888 1484 
z
" transform="scale(0.015625)"/>
       </defs>
       <use xlink:href="#ArialMT-36"/>
       <use xlink:href="#ArialMT-30" x="55.615234"/>
       <use xlink:href="#ArialMT-30" x="111.230469"/>
       <use xlink:href="#ArialMT-30" x="166.845703"/>
      </g>
     </g>
    </g>
    <g id="xtick_5">
     <g id="line2d_9">
      <path d="M 371.082263 286.1835 
L 371.082263 20.0715 
" clip-path="url(#pdb8ad6f175)" style="fill: none; stroke: #cccccc; stroke-width: 0.8; stroke-linecap: round"/>
     </g>
     <g id="line2d_10">
      <g>
       <use xlink:href="#meaee223b4f" x="371.082263" y="286.1835" style="fill: #262626; stroke: #262626"/>
      </g>
     </g>
     <g id="text_5">
      <!-- 8000 -->
      <g style="fill: #262626" transform="translate(361.295013 300.782375) scale(0.088 -0.088)">
       <defs>
        <path id="ArialMT-38" d="M 1131 2484 
Q 781 2613 612 2850 
Q 444 3088 444 3419 
Q 444 3919 803 4259 
Q 1163 4600 1759 4600 
Q 2359 4600 2725 4251 
Q 3091 3903 3091 3403 
Q 3091 3084 2923 2848 
Q 2756 2613 2416 2484 
Q 2838 2347 3058 2040 
Q 3278 1734 3278 1309 
Q 3278 722 2862 322 
Q 2447 -78 1769 -78 
Q 1091 -78 675 323 
Q 259 725 259 1325 
Q 259 1772 486 2073 
Q 713 2375 1131 2484 
z
M 1019 3438 
Q 1019 3113 1228 2906 
Q 1438 2700 1772 2700 
Q 2097 2700 2305 2904 
Q 2513 3109 2513 3406 
Q 2513 3716 2298 3927 
Q 2084 4138 1766 4138 
Q 1444 4138 1231 3931 
Q 1019 3725 1019 3438 
z
M 838 1322 
Q 838 1081 952 856 
Q 1066 631 1291 507 
Q 1516 384 1775 384 
Q 2178 384 2440 643 
Q 2703 903 2703 1303 
Q 2703 1709 2433 1975 
Q 2163 2241 1756 2241 
Q 1359 2241 1098 1978 
Q 838 1716 838 1322 
z
" transform="scale(0.015625)"/>
       </defs>
       <use xlink:href="#ArialMT-38"/>
       <use xlink:href="#ArialMT-30" x="55.615234"/>
       <use xlink:href="#ArialMT-30" x="111.230469"/>
       <use xlink:href="#ArialMT-30" x="166.845703"/>
      </g>
     </g>
    </g>
   </g>
   <g id="matplotlib.axis_2">
    <g id="ytick_1">
     <g id="line2d_11">
      <path d="M 37.765375 278.764588 
L 394.885375 278.764588 
" clip-path="url(#pdb8ad6f175)" style="fill: none; stroke: #cccccc; stroke-width: 0.8; stroke-linecap: round"/>
     </g>
     <g id="line2d_12">
      <defs>
       <path id="m24262a2489" d="M 0 0 
L -4.8 0 
" style="stroke: #262626"/>
      </defs>
      <g>
       <use xlink:href="#m24262a2489" x="37.765375" y="278.764588" style="fill: #262626; stroke: #262626"/>
      </g>
     </g>
     <g id="text_6">
      <!-- −1.00 -->
      <g style="fill: #262626" transform="translate(7.2 281.914025) scale(0.088 -0.088)">
       <defs>
        <path id="ArialMT-2212" d="M 3381 1997 
L 356 1997 
L 356 2522 
L 3381 2522 
L 3381 1997 
z
" transform="scale(0.015625)"/>
        <path id="ArialMT-31" d="M 2384 0 
L 1822 0 
L 1822 3584 
Q 1619 3391 1289 3197 
Q 959 3003 697 2906 
L 697 3450 
Q 1169 3672 1522 3987 
Q 1875 4303 2022 4600 
L 2384 4600 
L 2384 0 
z
" transform="scale(0.015625)"/>
        <path id="ArialMT-2e" d="M 581 0 
L 581 641 
L 1222 641 
L 1222 0 
L 581 0 
z
" transform="scale(0.015625)"/>
       </defs>
       <use xlink:href="#ArialMT-2212"/>
       <use xlink:href="#ArialMT-31" x="58.398438"/>
       <use xlink:href="#ArialMT-2e" x="114.013672"/>
       <use xlink:href="#ArialMT-30" x="141.796875"/>
       <use xlink:href="#ArialMT-30" x="197.412109"/>
      </g>
     </g>
    </g>
    <g id="ytick_2">
     <g id="line2d_13">
      <path d="M 37.765375 245.48691 
L 394.885375 245.48691 
" clip-path="url(#pdb8ad6f175)" style="fill: none; stroke: #cccccc; stroke-width: 0.8; stroke-linecap: round"/>
     </g>
     <g id="line2d_14">
      <g>
       <use xlink:href="#m24262a2489" x="37.765375" y="245.48691" style="fill: #262626; stroke: #262626"/>
      </g>
     </g>
     <g id="text_7">
      <!-- −0.75 -->
      <g style="fill: #262626" transform="translate(7.2 248.636348) scale(0.088 -0.088)">
       <defs>
        <path id="ArialMT-37" d="M 303 3981 
L 303 4522 
L 3269 4522 
L 3269 4084 
Q 2831 3619 2401 2847 
Q 1972 2075 1738 1259 
Q 1569 684 1522 0 
L 944 0 
Q 953 541 1156 1306 
Q 1359 2072 1739 2783 
Q 2119 3494 2547 3981 
L 303 3981 
z
" transform="scale(0.015625)"/>
        <path id="ArialMT-35" d="M 266 1200 
L 856 1250 
Q 922 819 1161 601 
Q 1400 384 1738 384 
Q 2144 384 2425 690 
Q 2706 997 2706 1503 
Q 2706 1984 2436 2262 
Q 2166 2541 1728 2541 
Q 1456 2541 1237 2417 
Q 1019 2294 894 2097 
L 366 2166 
L 809 4519 
L 3088 4519 
L 3088 3981 
L 1259 3981 
L 1013 2750 
Q 1425 3038 1878 3038 
Q 2478 3038 2890 2622 
Q 3303 2206 3303 1553 
Q 3303 931 2941 478 
Q 2500 -78 1738 -78 
Q 1113 -78 717 272 
Q 322 622 266 1200 
z
" transform="scale(0.015625)"/>
       </defs>
       <use xlink:href="#ArialMT-2212"/>
       <use xlink:href="#ArialMT-30" x="58.398438"/>
       <use xlink:href="#ArialMT-2e" x="114.013672"/>
       <use xlink:href="#ArialMT-37" x="141.796875"/>
       <use xlink:href="#ArialMT-35" x="197.412109"/>
      </g>
     </g>
    </g>
    <g id="ytick_3">
     <g id="line2d_15">
      <path d="M 37.765375 212.209233 
L 394.885375 212.209233 
" clip-path="url(#pdb8ad6f175)" style="fill: none; stroke: #cccccc; stroke-width: 0.8; stroke-linecap: round"/>
     </g>
     <g id="line2d_16">
      <g>
       <use xlink:href="#m24262a2489" x="37.765375" y="212.209233" style="fill: #262626; stroke: #262626"/>
      </g>
     </g>
     <g id="text_8">
      <!-- −0.50 -->
      <g style="fill: #262626" transform="translate(7.2 215.35867) scale(0.088 -0.088)">
       <use xlink:href="#ArialMT-2212"/>
       <use xlink:href="#ArialMT-30" x="58.398438"/>
       <use xlink:href="#ArialMT-2e" x="114.013672"/>
       <use xlink:href="#ArialMT-35" x="141.796875"/>
       <use xlink:href="#ArialMT-30" x="197.412109"/>
      </g>
     </g>
    </g>
    <g id="ytick_4">
     <g id="line2d_17">
      <path d="M 37.765375 178.931555 
L 394.885375 178.931555 
" clip-path="url(#pdb8ad6f175)" style="fill: none; stroke: #cccccc; stroke-width: 0.8; stroke-linecap: round"/>
     </g>
     <g id="line2d_18">
      <g>
       <use xlink:href="#m24262a2489" x="37.765375" y="178.931555" style="fill: #262626; stroke: #262626"/>
      </g>
     </g>
     <g id="text_9">
      <!-- −0.25 -->
      <g style="fill: #262626" transform="translate(7.2 182.080993) scale(0.088 -0.088)">
       <use xlink:href="#ArialMT-2212"/>
       <use xlink:href="#ArialMT-30" x="58.398438"/>
       <use xlink:href="#ArialMT-2e" x="114.013672"/>
       <use xlink:href="#ArialMT-32" x="141.796875"/>
       <use xlink:href="#ArialMT-35" x="197.412109"/>
      </g>
     </g>
    </g>
    <g id="ytick_5">
     <g id="line2d_19">
      <path d="M 37.765375 145.653878 
L 394.885375 145.653878 
" clip-path="url(#pdb8ad6f175)" style="fill: none; stroke: #cccccc; stroke-width: 0.8; stroke-linecap: round"/>
     </g>
     <g id="line2d_20">
      <g>
       <use xlink:href="#m24262a2489" x="37.765375" y="145.653878" style="fill: #262626; stroke: #262626"/>
      </g>
     </g>
     <g id="text_10">
      <!-- 0.00 -->
      <g style="fill: #262626" transform="translate(12.33975 148.803315) scale(0.088 -0.088)">
       <use xlink:href="#ArialMT-30"/>
       <use xlink:href="#ArialMT-2e" x="55.615234"/>
       <use xlink:href="#ArialMT-30" x="83.398438"/>
       <use xlink:href="#ArialMT-30" x="139.013672"/>
      </g>
     </g>
    </g>
    <g id="ytick_6">
     <g id="line2d_21">
      <path d="M 37.765375 112.3762 
L 394.885375 112.3762 
" clip-path="url(#pdb8ad6f175)" style="fill: none; stroke: #cccccc; stroke-width: 0.8; stroke-linecap: round"/>
     </g>
     <g id="line2d_22">
      <g>
       <use xlink:href="#m24262a2489" x="37.765375" y="112.3762" style="fill: #262626; stroke: #262626"/>
      </g>
     </g>
     <g id="text_11">
      <!-- 0.25 -->
      <g style="fill: #262626" transform="translate(12.33975 115.525638) scale(0.088 -0.088)">
       <use xlink:href="#ArialMT-30"/>
       <use xlink:href="#ArialMT-2e" x="55.615234"/>
       <use xlink:href="#ArialMT-32" x="83.398438"/>
       <use xlink:href="#ArialMT-35" x="139.013672"/>
      </g>
     </g>
    </g>
    <g id="ytick_7">
     <g id="line2d_23">
      <path d="M 37.765375 79.098523 
L 394.885375 79.098523 
" clip-path="url(#pdb8ad6f175)" style="fill: none; stroke: #cccccc; stroke-width: 0.8; stroke-linecap: round"/>
     </g>
     <g id="line2d_24">
      <g>
       <use xlink:href="#m24262a2489" x="37.765375" y="79.098523" style="fill: #262626; stroke: #262626"/>
      </g>
     </g>
     <g id="text_12">
      <!-- 0.50 -->
      <g style="fill: #262626" transform="translate(12.33975 82.24796) scale(0.088 -0.088)">
       <use xlink:href="#ArialMT-30"/>
       <use xlink:href="#ArialMT-2e" x="55.615234"/>
       <use xlink:href="#ArialMT-35" x="83.398438"/>
       <use xlink:href="#ArialMT-30" x="139.013672"/>
      </g>
     </g>
    </g>
    <g id="ytick_8">
     <g id="line2d_25">
      <path d="M 37.765375 45.820845 
L 394.885375 45.820845 
" clip-path="url(#pdb8ad6f175)" style="fill: none; stroke: #cccccc; stroke-width: 0.8; stroke-linecap: round"/>
     </g>
     <g id="line2d_26">
      <g>
       <use xlink:href="#m24262a2489" x="37.765375" y="45.820845" style="fill: #262626; stroke: #262626"/>
      </g>
     </g>
     <g id="text_13">
      <!-- 0.75 -->
      <g style="fill: #262626" transform="translate(12.33975 48.970283) scale(0.088 -0.088)">
       <use xlink:href="#ArialMT-30"/>
       <use xlink:href="#ArialMT-2e" x="55.615234"/>
       <use xlink:href="#ArialMT-37" x="83.398438"/>
       <use xlink:href="#ArialMT-35" x="139.013672"/>
      </g>
     </g>
    </g>
   </g>
   <g id="line2d_27">
    <path d="M 53.998102 34.451721 
L 55.107897 34.817849 
L 56.296962 35.454445 
L 57.64457 36.445396 
L 59.309262 37.9674 
L 61.687393 40.474364 
L 64.342973 43.579479 
L 66.166207 46.045973 
L 67.672357 48.463823 
L 69.099235 51.189375 
L 70.56575 54.496934 
L 72.15117 58.643399 
L 74.132947 64.491363 
L 80.752078 84.553384 
L 83.328387 91.25283 
L 89.947519 108.118181 
L 94.901959 121.810895 
L 98.389885 131.921409 
L 100.490567 138.70807 
L 102.393072 145.615006 
L 104.493755 154.114752 
L 110.597625 179.471836 
L 112.064139 184.248434 
L 113.332476 187.651086 
L 114.481906 190.133429 
L 115.591701 192.018572 
L 116.66186 193.418375 
L 117.771654 194.517206 
L 119.039991 195.45179 
L 120.704683 196.376225 
L 126.253655 199.267646 
L 129.305591 201.204848 
L 131.208096 202.653993 
L 132.595339 203.982116 
L 133.82404 205.469035 
L 134.97347 207.213527 
L 136.1229 209.368326 
L 137.351601 212.172037 
L 138.699209 215.845355 
L 140.28463 220.86809 
L 142.781667 229.66001 
L 145.159799 237.752082 
L 146.586677 241.85736 
L 147.775743 244.626789 
L 148.806266 246.479444 
L 149.717883 247.681189 
L 150.550229 248.431591 
L 151.34294 248.862773 
L 152.13565 249.051655 
L 153.007632 249.031098 
L 154.117426 248.762515 
L 157.526081 247.766269 
L 158.477333 247.82094 
L 159.349315 248.100269 
L 160.221296 248.623301 
L 161.132913 249.438114 
L 162.163437 250.674751 
L 163.392138 252.527076 
L 165.05683 255.488804 
L 168.703298 262.094324 
L 170.090541 264.090366 
L 171.319242 265.481828 
L 172.468672 266.460537 
L 173.657738 267.184767 
L 175.044981 267.758304 
L 179.999421 269.554261 
L 181.664113 270.580859 
L 186.301468 273.62684 
L 187.411263 273.98823 
L 188.402151 274.087118 
L 189.393039 273.958595 
L 190.423563 273.58913 
L 191.572993 272.928211 
L 193.079142 271.777377 
L 197.280508 268.4136 
L 198.865928 267.525269 
L 203.384378 265.225627 
L 204.414901 264.276302 
L 205.405789 263.050166 
L 206.396677 261.465583 
L 207.466836 259.321267 
L 208.655902 256.41523 
L 210.043145 252.405038 
L 211.906015 246.272772 
L 216.464099 231.000392 
L 218.208062 226.080912 
L 219.91239 221.919455 
L 221.894166 217.679107 
L 234.656803 191.989842 
L 237.986187 185.615231 
L 239.571608 182.043553 
L 240.998486 178.266653 
L 242.425365 173.839093 
L 243.97115 168.274631 
L 245.794384 160.80906 
L 248.806684 147.328594 
L 251.382993 136.224503 
L 253.08732 129.830591 
L 254.514199 125.293233 
L 255.822171 121.842551 
L 257.050872 119.202464 
L 258.279573 117.085401 
L 259.54791 115.350424 
L 260.974788 113.787795 
L 263.471826 111.466404 
L 265.413967 109.504097 
L 266.959752 107.613101 
L 268.545173 105.3093 
L 270.526949 102.003893 
L 274.292323 95.653871 
L 275.639931 93.861688 
L 276.749725 92.737947 
L 277.700978 92.070472 
L 278.572959 91.714653 
L 279.405305 91.606051 
L 280.237651 91.716438 
L 281.149268 92.071099 
L 282.179792 92.730867 
L 283.408493 93.805275 
L 285.073185 95.587953 
L 290.106896 101.163346 
L 292.009401 102.842174 
L 293.832635 104.164316 
L 295.536962 105.133016 
L 297.003476 105.719966 
L 298.271813 105.995348 
L 299.421243 106.017387 
L 300.491402 105.813983 
L 301.561561 105.376834 
L 302.671356 104.673305 
L 303.900057 103.618201 
L 305.406207 102.010697 
L 310.400282 96.414446 
L 311.668619 95.463492 
L 312.89732 94.819281 
L 314.205292 94.391891 
L 316.266339 93.99995 
L 317.891395 93.592382 
L 319.00119 93.088156 
L 320.031713 92.371127 
L 321.062237 91.367822 
L 322.132396 90.000056 
L 323.321462 88.097071 
L 324.708705 85.426441 
L 326.492303 81.470578 
L 338.02624 54.280827 
L 343.059951 42.313534 
L 344.685007 39.102183 
L 346.032615 36.904131 
L 347.261316 35.310795 
L 348.410746 34.173807 
L 349.560176 33.350671 
L 350.749242 32.780094 
L 352.057214 32.408947 
L 353.602999 32.208848 
L 355.664046 32.18055 
L 357.962906 32.367596 
L 359.944682 32.748142 
L 361.807552 33.336474 
L 364.185683 34.346671 
L 366.960169 35.481252 
L 368.426684 35.839262 
L 369.734656 35.937298 
L 371.082263 35.810739 
L 372.667684 35.423093 
L 376.591601 34.353818 
L 377.820302 34.321255 
L 378.652648 34.442824 
L 378.652648 34.442824 
" clip-path="url(#pdb8ad6f175)" style="fill: none; stroke: #1f77b4; stroke-width: 1.2; stroke-linecap: round"/>
   </g>
   <g id="line2d_28">
    <path d="M 53.998102 54.677207 
L 57.604935 52.390494 
L 60.696505 50.685237 
L 63.431356 49.42477 
L 65.849123 48.548973 
L 68.029076 47.991009 
L 70.010852 47.710614 
L 71.834086 47.677113 
L 73.498778 47.865212 
L 75.084199 48.268376 
L 76.590349 48.88337 
L 78.017227 49.703494 
L 79.444106 50.785612 
L 80.831349 52.121198 
L 82.218593 53.771316 
L 83.605836 55.773836 
L 84.993079 58.169392 
L 86.419958 61.088353 
L 87.886472 64.618408 
L 89.392622 68.85514 
L 90.938407 73.89857 
L 92.523828 79.847076 
L 94.18852 86.968063 
L 95.972118 95.592161 
L 97.953894 106.317156 
L 100.252754 120.052055 
L 103.38396 140.254776 
L 108.972569 176.429377 
L 111.429971 190.753057 
L 113.570289 201.943912 
L 115.51243 210.959204 
L 117.375299 218.57815 
L 119.158897 224.964565 
L 120.90286 230.406368 
L 122.607188 235.021758 
L 124.311515 239.008798 
L 126.015842 242.43229 
L 127.680534 245.290419 
L 129.345226 247.720526 
L 131.009918 249.76858 
L 132.67461 251.474969 
L 134.378937 252.904717 
L 136.083264 254.045843 
L 137.827227 254.944106 
L 139.57119 255.595701 
L 141.394424 256.037595 
L 143.257294 256.259279 
L 145.199434 256.265268 
L 147.220846 256.049199 
L 149.361164 255.595543 
L 151.620388 254.888795 
L 154.038155 253.897812 
L 156.654099 252.579544 
L 159.468221 250.90596 
L 162.520156 248.825416 
L 165.84954 246.278939 
L 169.496008 243.202434 
L 173.538831 239.491377 
L 178.017645 235.071066 
L 183.090991 229.742416 
L 188.877777 223.332003 
L 195.615816 215.523961 
L 203.582555 205.93963 
L 213.4518 193.7018 
L 228.434026 174.72118 
L 243.336982 155.945924 
L 251.343357 146.214982 
L 257.724676 138.796788 
L 263.234013 132.723194 
L 268.188453 127.586063 
L 272.746538 123.176678 
L 276.987539 119.377988 
L 281.030362 116.049692 
L 284.954278 113.102812 
L 288.838559 110.46109 
L 292.762476 108.059989 
L 296.844934 105.82266 
L 301.323748 103.626635 
L 306.714179 101.243279 
L 324.034901 93.780862 
L 328.751528 91.383179 
L 333.230342 88.858165 
L 337.709155 86.076723 
L 342.386147 82.905698 
L 347.459493 79.190608 
L 353.404821 74.549825 
L 362.758804 66.919076 
L 371.20117 60.13834 
L 376.195245 56.408332 
L 378.652648 54.703829 
L 378.652648 54.703829 
" clip-path="url(#pdb8ad6f175)" style="fill: none; stroke: #ff7f0e; stroke-width: 1.2; stroke-linecap: round"/>
   </g>
   <g id="patch_3">
    <path d="M 37.765375 286.1835 
L 37.765375 20.0715 
" style="fill: none; stroke: #262626; stroke-linejoin: miter; stroke-linecap: square"/>
   </g>
   <g id="patch_4">
    <path d="M 394.885375 286.1835 
L 394.885375 20.0715 
" style="fill: none; stroke: #262626; stroke-linejoin: miter; stroke-linecap: square"/>
   </g>
   <g id="patch_5">
    <path d="M 37.765375 286.1835 
L 394.885375 286.1835 
" style="fill: none; stroke: #262626; stroke-linejoin: miter; stroke-linecap: square"/>
   </g>
   <g id="patch_6">
    <path d="M 37.765375 20.0715 
L 394.885375 20.0715 
" style="fill: none; stroke: #262626; stroke-linejoin: miter; stroke-linecap: square"/>
   </g>
   <g id="text_14">
    <!-- Initial Condition and Solution -->
    <g style="fill: #262626" transform="translate(155.487625 14.0715) scale(0.096 -0.096)">
     <defs>
      <path id="ArialMT-49" d="M 597 0 
L 597 4581 
L 1203 4581 
L 1203 0 
L 597 0 
z
" transform="scale(0.015625)"/>
      <path id="ArialMT-6e" d="M 422 0 
L 422 3319 
L 928 3319 
L 928 2847 
Q 1294 3394 1984 3394 
Q 2284 3394 2536 3286 
Q 2788 3178 2913 3003 
Q 3038 2828 3088 2588 
Q 3119 2431 3119 2041 
L 3119 0 
L 2556 0 
L 2556 2019 
Q 2556 2363 2490 2533 
Q 2425 2703 2258 2804 
Q 2091 2906 1866 2906 
Q 1506 2906 1245 2678 
Q 984 2450 984 1813 
L 984 0 
L 422 0 
z
" transform="scale(0.015625)"/>
      <path id="ArialMT-69" d="M 425 3934 
L 425 4581 
L 988 4581 
L 988 3934 
L 425 3934 
z
M 425 0 
L 425 3319 
L 988 3319 
L 988 0 
L 425 0 
z
" transform="scale(0.015625)"/>
      <path id="ArialMT-74" d="M 1650 503 
L 1731 6 
Q 1494 -44 1306 -44 
Q 1000 -44 831 53 
Q 663 150 594 308 
Q 525 466 525 972 
L 525 2881 
L 113 2881 
L 113 3319 
L 525 3319 
L 525 4141 
L 1084 4478 
L 1084 3319 
L 1650 3319 
L 1650 2881 
L 1084 2881 
L 1084 941 
Q 1084 700 1114 631 
Q 1144 563 1211 522 
Q 1278 481 1403 481 
Q 1497 481 1650 503 
z
" transform="scale(0.015625)"/>
      <path id="ArialMT-61" d="M 2588 409 
Q 2275 144 1986 34 
Q 1697 -75 1366 -75 
Q 819 -75 525 192 
Q 231 459 231 875 
Q 231 1119 342 1320 
Q 453 1522 633 1644 
Q 813 1766 1038 1828 
Q 1203 1872 1538 1913 
Q 2219 1994 2541 2106 
Q 2544 2222 2544 2253 
Q 2544 2597 2384 2738 
Q 2169 2928 1744 2928 
Q 1347 2928 1158 2789 
Q 969 2650 878 2297 
L 328 2372 
Q 403 2725 575 2942 
Q 747 3159 1072 3276 
Q 1397 3394 1825 3394 
Q 2250 3394 2515 3294 
Q 2781 3194 2906 3042 
Q 3031 2891 3081 2659 
Q 3109 2516 3109 2141 
L 3109 1391 
Q 3109 606 3145 398 
Q 3181 191 3288 0 
L 2700 0 
Q 2613 175 2588 409 
z
M 2541 1666 
Q 2234 1541 1622 1453 
Q 1275 1403 1131 1340 
Q 988 1278 909 1158 
Q 831 1038 831 891 
Q 831 666 1001 516 
Q 1172 366 1500 366 
Q 1825 366 2078 508 
Q 2331 650 2450 897 
Q 2541 1088 2541 1459 
L 2541 1666 
z
" transform="scale(0.015625)"/>
      <path id="ArialMT-6c" d="M 409 0 
L 409 4581 
L 972 4581 
L 972 0 
L 409 0 
z
" transform="scale(0.015625)"/>
      <path id="ArialMT-20" transform="scale(0.015625)"/>
      <path id="ArialMT-43" d="M 3763 1606 
L 4369 1453 
Q 4178 706 3683 314 
Q 3188 -78 2472 -78 
Q 1731 -78 1267 223 
Q 803 525 561 1097 
Q 319 1669 319 2325 
Q 319 3041 592 3573 
Q 866 4106 1370 4382 
Q 1875 4659 2481 4659 
Q 3169 4659 3637 4309 
Q 4106 3959 4291 3325 
L 3694 3184 
Q 3534 3684 3231 3912 
Q 2928 4141 2469 4141 
Q 1941 4141 1586 3887 
Q 1231 3634 1087 3207 
Q 944 2781 944 2328 
Q 944 1744 1114 1308 
Q 1284 872 1643 656 
Q 2003 441 2422 441 
Q 2931 441 3284 734 
Q 3638 1028 3763 1606 
z
" transform="scale(0.015625)"/>
      <path id="ArialMT-6f" d="M 213 1659 
Q 213 2581 725 3025 
Q 1153 3394 1769 3394 
Q 2453 3394 2887 2945 
Q 3322 2497 3322 1706 
Q 3322 1066 3130 698 
Q 2938 331 2570 128 
Q 2203 -75 1769 -75 
Q 1072 -75 642 372 
Q 213 819 213 1659 
z
M 791 1659 
Q 791 1022 1069 705 
Q 1347 388 1769 388 
Q 2188 388 2466 706 
Q 2744 1025 2744 1678 
Q 2744 2294 2464 2611 
Q 2184 2928 1769 2928 
Q 1347 2928 1069 2612 
Q 791 2297 791 1659 
z
" transform="scale(0.015625)"/>
      <path id="ArialMT-64" d="M 2575 0 
L 2575 419 
Q 2259 -75 1647 -75 
Q 1250 -75 917 144 
Q 584 363 401 755 
Q 219 1147 219 1656 
Q 219 2153 384 2558 
Q 550 2963 881 3178 
Q 1213 3394 1622 3394 
Q 1922 3394 2156 3267 
Q 2391 3141 2538 2938 
L 2538 4581 
L 3097 4581 
L 3097 0 
L 2575 0 
z
M 797 1656 
Q 797 1019 1065 703 
Q 1334 388 1700 388 
Q 2069 388 2326 689 
Q 2584 991 2584 1609 
Q 2584 2291 2321 2609 
Q 2059 2928 1675 2928 
Q 1300 2928 1048 2622 
Q 797 2316 797 1656 
z
" transform="scale(0.015625)"/>
      <path id="ArialMT-53" d="M 288 1472 
L 859 1522 
Q 900 1178 1048 958 
Q 1197 738 1509 602 
Q 1822 466 2213 466 
Q 2559 466 2825 569 
Q 3091 672 3220 851 
Q 3350 1031 3350 1244 
Q 3350 1459 3225 1620 
Q 3100 1781 2813 1891 
Q 2628 1963 1997 2114 
Q 1366 2266 1113 2400 
Q 784 2572 623 2826 
Q 463 3081 463 3397 
Q 463 3744 659 4045 
Q 856 4347 1234 4503 
Q 1613 4659 2075 4659 
Q 2584 4659 2973 4495 
Q 3363 4331 3572 4012 
Q 3781 3694 3797 3291 
L 3216 3247 
Q 3169 3681 2898 3903 
Q 2628 4125 2100 4125 
Q 1550 4125 1298 3923 
Q 1047 3722 1047 3438 
Q 1047 3191 1225 3031 
Q 1400 2872 2139 2705 
Q 2878 2538 3153 2413 
Q 3553 2228 3743 1945 
Q 3934 1663 3934 1294 
Q 3934 928 3725 604 
Q 3516 281 3123 101 
Q 2731 -78 2241 -78 
Q 1619 -78 1198 103 
Q 778 284 539 648 
Q 300 1013 288 1472 
z
" transform="scale(0.015625)"/>
      <path id="ArialMT-75" d="M 2597 0 
L 2597 488 
Q 2209 -75 1544 -75 
Q 1250 -75 995 37 
Q 741 150 617 320 
Q 494 491 444 738 
Q 409 903 409 1263 
L 409 3319 
L 972 3319 
L 972 1478 
Q 972 1038 1006 884 
Q 1059 663 1231 536 
Q 1403 409 1656 409 
Q 1909 409 2131 539 
Q 2353 669 2445 892 
Q 2538 1116 2538 1541 
L 2538 3319 
L 3100 3319 
L 3100 0 
L 2597 0 
z
" transform="scale(0.015625)"/>
     </defs>
     <use xlink:href="#ArialMT-49"/>
     <use xlink:href="#ArialMT-6e" x="27.783203"/>
     <use xlink:href="#ArialMT-69" x="83.398438"/>
     <use xlink:href="#ArialMT-74" x="105.615234"/>
     <use xlink:href="#ArialMT-69" x="133.398438"/>
     <use xlink:href="#ArialMT-61" x="155.615234"/>
     <use xlink:href="#ArialMT-6c" x="211.230469"/>
     <use xlink:href="#ArialMT-20" x="233.447266"/>
     <use xlink:href="#ArialMT-43" x="261.230469"/>
     <use xlink:href="#ArialMT-6f" x="333.447266"/>
     <use xlink:href="#ArialMT-6e" x="389.0625"/>
     <use xlink:href="#ArialMT-64" x="444.677734"/>
     <use xlink:href="#ArialMT-69" x="500.292969"/>
     <use xlink:href="#ArialMT-74" x="522.509766"/>
     <use xlink:href="#ArialMT-69" x="550.292969"/>
     <use xlink:href="#ArialMT-6f" x="572.509766"/>
     <use xlink:href="#ArialMT-6e" x="628.125"/>
     <use xlink:href="#ArialMT-20" x="683.740234"/>
     <use xlink:href="#ArialMT-61" x="711.523438"/>
     <use xlink:href="#ArialMT-6e" x="767.138672"/>
     <use xlink:href="#ArialMT-64" x="822.753906"/>
     <use xlink:href="#ArialMT-20" x="878.369141"/>
     <use xlink:href="#ArialMT-53" x="906.152344"/>
     <use xlink:href="#ArialMT-6f" x="972.851562"/>
     <use xlink:href="#ArialMT-6c" x="1028.466797"/>
     <use xlink:href="#ArialMT-75" x="1050.683594"/>
     <use xlink:href="#ArialMT-74" x="1106.298828"/>
     <use xlink:href="#ArialMT-69" x="1134.082031"/>
     <use xlink:href="#ArialMT-6f" x="1156.298828"/>
     <use xlink:href="#ArialMT-6e" x="1211.914062"/>
    </g>
   </g>
   <g id="legend_1">
    <g id="patch_7">
     <path d="M 263.2305 281.7835 
L 388.725375 281.7835 
Q 390.485375 281.7835 390.485375 280.0235 
L 390.485375 255.9005 
Q 390.485375 254.1405 388.725375 254.1405 
L 263.2305 254.1405 
Q 261.4705 254.1405 261.4705 255.9005 
L 261.4705 280.0235 
Q 261.4705 281.7835 263.2305 281.7835 
z
" style="fill: #ffffff; opacity: 0.8; stroke: #cccccc; stroke-width: 0.8; stroke-linejoin: miter"/>
    </g>
    <g id="line2d_29">
     <path d="M 264.9905 260.879375 
L 273.7905 260.879375 
L 282.5905 260.879375 
" style="fill: none; stroke: #1f77b4; stroke-width: 1.2; stroke-linecap: round"/>
    </g>
    <g id="text_15">
     <!-- Initial Condition: $a$ -->
     <g style="fill: #262626" transform="translate(289.6305 263.959375) scale(0.088 -0.088)">
      <defs>
       <path id="ArialMT-3a" d="M 578 2678 
L 578 3319 
L 1219 3319 
L 1219 2678 
L 578 2678 
z
M 578 0 
L 578 641 
L 1219 641 
L 1219 0 
L 578 0 
z
" transform="scale(0.015625)"/>
       <path id="DejaVuSans-Oblique-61" d="M 3438 1997 
L 3047 0 
L 2472 0 
L 2578 531 
Q 2325 219 2001 64 
Q 1678 -91 1281 -91 
Q 834 -91 548 182 
Q 263 456 263 884 
Q 263 1497 752 1853 
Q 1241 2209 2100 2209 
L 2900 2209 
L 2931 2363 
Q 2938 2388 2941 2417 
Q 2944 2447 2944 2509 
Q 2944 2788 2717 2942 
Q 2491 3097 2081 3097 
Q 1800 3097 1504 3025 
Q 1209 2953 897 2809 
L 997 3341 
Q 1322 3463 1633 3523 
Q 1944 3584 2234 3584 
Q 2853 3584 3176 3315 
Q 3500 3047 3500 2534 
Q 3500 2431 3484 2292 
Q 3469 2153 3438 1997 
z
M 2816 1759 
L 2241 1759 
Q 1534 1759 1195 1570 
Q 856 1381 856 984 
Q 856 709 1029 553 
Q 1203 397 1509 397 
Q 1978 397 2328 733 
Q 2678 1069 2791 1631 
L 2816 1759 
z
" transform="scale(0.015625)"/>
      </defs>
      <use xlink:href="#ArialMT-49" transform="translate(0 0.203125)"/>
      <use xlink:href="#ArialMT-6e" transform="translate(27.783203 0.203125)"/>
      <use xlink:href="#ArialMT-69" transform="translate(83.398438 0.203125)"/>
      <use xlink:href="#ArialMT-74" transform="translate(105.615234 0.203125)"/>
      <use xlink:href="#ArialMT-69" transform="translate(133.398438 0.203125)"/>
      <use xlink:href="#ArialMT-61" transform="translate(155.615234 0.203125)"/>
      <use xlink:href="#ArialMT-6c" transform="translate(211.230469 0.203125)"/>
      <use xlink:href="#ArialMT-20" transform="translate(233.447266 0.203125)"/>
      <use xlink:href="#ArialMT-43" transform="translate(261.230469 0.203125)"/>
      <use xlink:href="#ArialMT-6f" transform="translate(333.447266 0.203125)"/>
      <use xlink:href="#ArialMT-6e" transform="translate(389.0625 0.203125)"/>
      <use xlink:href="#ArialMT-64" transform="translate(444.677734 0.203125)"/>
      <use xlink:href="#ArialMT-69" transform="translate(500.292969 0.203125)"/>
      <use xlink:href="#ArialMT-74" transform="translate(522.509766 0.203125)"/>
      <use xlink:href="#ArialMT-69" transform="translate(550.292969 0.203125)"/>
      <use xlink:href="#ArialMT-6f" transform="translate(572.509766 0.203125)"/>
      <use xlink:href="#ArialMT-6e" transform="translate(628.125 0.203125)"/>
      <use xlink:href="#ArialMT-3a" transform="translate(683.740234 0.203125)"/>
      <use xlink:href="#ArialMT-20" transform="translate(711.523438 0.203125)"/>
      <use xlink:href="#DejaVuSans-Oblique-61" transform="translate(739.306641 0.203125)"/>
     </g>
    </g>
    <g id="line2d_30">
     <path d="M 264.9905 273.4345 
L 273.7905 273.4345 
L 282.5905 273.4345 
" style="fill: none; stroke: #ff7f0e; stroke-width: 1.2; stroke-linecap: round"/>
    </g>
    <g id="text_16">
     <!-- Solution after 1 time step -->
     <g style="fill: #262626" transform="translate(289.6305 276.5145) scale(0.088 -0.088)">
      <defs>
       <path id="ArialMT-66" d="M 556 0 
L 556 2881 
L 59 2881 
L 59 3319 
L 556 3319 
L 556 3672 
Q 556 4006 616 4169 
Q 697 4388 901 4523 
Q 1106 4659 1475 4659 
Q 1713 4659 2000 4603 
L 1916 4113 
Q 1741 4144 1584 4144 
Q 1328 4144 1222 4034 
Q 1116 3925 1116 3625 
L 1116 3319 
L 1763 3319 
L 1763 2881 
L 1116 2881 
L 1116 0 
L 556 0 
z
" transform="scale(0.015625)"/>
       <path id="ArialMT-65" d="M 2694 1069 
L 3275 997 
Q 3138 488 2766 206 
Q 2394 -75 1816 -75 
Q 1088 -75 661 373 
Q 234 822 234 1631 
Q 234 2469 665 2931 
Q 1097 3394 1784 3394 
Q 2450 3394 2872 2941 
Q 3294 2488 3294 1666 
Q 3294 1616 3291 1516 
L 816 1516 
Q 847 969 1125 678 
Q 1403 388 1819 388 
Q 2128 388 2347 550 
Q 2566 713 2694 1069 
z
M 847 1978 
L 2700 1978 
Q 2663 2397 2488 2606 
Q 2219 2931 1791 2931 
Q 1403 2931 1139 2672 
Q 875 2413 847 1978 
z
" transform="scale(0.015625)"/>
       <path id="ArialMT-72" d="M 416 0 
L 416 3319 
L 922 3319 
L 922 2816 
Q 1116 3169 1280 3281 
Q 1444 3394 1641 3394 
Q 1925 3394 2219 3213 
L 2025 2691 
Q 1819 2813 1613 2813 
Q 1428 2813 1281 2702 
Q 1134 2591 1072 2394 
Q 978 2094 978 1738 
L 978 0 
L 416 0 
z
" transform="scale(0.015625)"/>
       <path id="ArialMT-6d" d="M 422 0 
L 422 3319 
L 925 3319 
L 925 2853 
Q 1081 3097 1340 3245 
Q 1600 3394 1931 3394 
Q 2300 3394 2536 3241 
Q 2772 3088 2869 2813 
Q 3263 3394 3894 3394 
Q 4388 3394 4653 3120 
Q 4919 2847 4919 2278 
L 4919 0 
L 4359 0 
L 4359 2091 
Q 4359 2428 4304 2576 
Q 4250 2725 4106 2815 
Q 3963 2906 3769 2906 
Q 3419 2906 3187 2673 
Q 2956 2441 2956 1928 
L 2956 0 
L 2394 0 
L 2394 2156 
Q 2394 2531 2256 2718 
Q 2119 2906 1806 2906 
Q 1569 2906 1367 2781 
Q 1166 2656 1075 2415 
Q 984 2175 984 1722 
L 984 0 
L 422 0 
z
" transform="scale(0.015625)"/>
       <path id="ArialMT-73" d="M 197 991 
L 753 1078 
Q 800 744 1014 566 
Q 1228 388 1613 388 
Q 2000 388 2187 545 
Q 2375 703 2375 916 
Q 2375 1106 2209 1216 
Q 2094 1291 1634 1406 
Q 1016 1563 777 1677 
Q 538 1791 414 1992 
Q 291 2194 291 2438 
Q 291 2659 392 2848 
Q 494 3038 669 3163 
Q 800 3259 1026 3326 
Q 1253 3394 1513 3394 
Q 1903 3394 2198 3281 
Q 2494 3169 2634 2976 
Q 2775 2784 2828 2463 
L 2278 2388 
Q 2241 2644 2061 2787 
Q 1881 2931 1553 2931 
Q 1166 2931 1000 2803 
Q 834 2675 834 2503 
Q 834 2394 903 2306 
Q 972 2216 1119 2156 
Q 1203 2125 1616 2013 
Q 2213 1853 2448 1751 
Q 2684 1650 2818 1456 
Q 2953 1263 2953 975 
Q 2953 694 2789 445 
Q 2625 197 2315 61 
Q 2006 -75 1616 -75 
Q 969 -75 630 194 
Q 291 463 197 991 
z
" transform="scale(0.015625)"/>
       <path id="ArialMT-70" d="M 422 -1272 
L 422 3319 
L 934 3319 
L 934 2888 
Q 1116 3141 1344 3267 
Q 1572 3394 1897 3394 
Q 2322 3394 2647 3175 
Q 2972 2956 3137 2557 
Q 3303 2159 3303 1684 
Q 3303 1175 3120 767 
Q 2938 359 2589 142 
Q 2241 -75 1856 -75 
Q 1575 -75 1351 44 
Q 1128 163 984 344 
L 984 -1272 
L 422 -1272 
z
M 931 1641 
Q 931 1000 1190 694 
Q 1450 388 1819 388 
Q 2194 388 2461 705 
Q 2728 1022 2728 1688 
Q 2728 2322 2467 2637 
Q 2206 2953 1844 2953 
Q 1484 2953 1207 2617 
Q 931 2281 931 1641 
z
" transform="scale(0.015625)"/>
      </defs>
      <use xlink:href="#ArialMT-53"/>
      <use xlink:href="#ArialMT-6f" x="66.699219"/>
      <use xlink:href="#ArialMT-6c" x="122.314453"/>
      <use xlink:href="#ArialMT-75" x="144.53125"/>
      <use xlink:href="#ArialMT-74" x="200.146484"/>
      <use xlink:href="#ArialMT-69" x="227.929688"/>
      <use xlink:href="#ArialMT-6f" x="250.146484"/>
      <use xlink:href="#ArialMT-6e" x="305.761719"/>
      <use xlink:href="#ArialMT-20" x="361.376953"/>
      <use xlink:href="#ArialMT-61" x="389.160156"/>
      <use xlink:href="#ArialMT-66" x="444.775391"/>
      <use xlink:href="#ArialMT-74" x="472.558594"/>
      <use xlink:href="#ArialMT-65" x="500.341797"/>
      <use xlink:href="#ArialMT-72" x="555.957031"/>
      <use xlink:href="#ArialMT-20" x="589.257812"/>
      <use xlink:href="#ArialMT-31" x="617.041016"/>
      <use xlink:href="#ArialMT-20" x="672.65625"/>
      <use xlink:href="#ArialMT-74" x="700.439453"/>
      <use xlink:href="#ArialMT-69" x="728.222656"/>
      <use xlink:href="#ArialMT-6d" x="750.439453"/>
      <use xlink:href="#ArialMT-65" x="833.740234"/>
      <use xlink:href="#ArialMT-20" x="889.355469"/>
      <use xlink:href="#ArialMT-73" x="917.138672"/>
      <use xlink:href="#ArialMT-74" x="967.138672"/>
      <use xlink:href="#ArialMT-65" x="994.921875"/>
      <use xlink:href="#ArialMT-70" x="1050.537109"/>
     </g>
    </g>
   </g>
  </g>
 </g>
 <defs>
  <clipPath id="pdb8ad6f175">
   <rect x="37.765375" y="20.0715" width="357.12" height="266.112"/>
  </clipPath>
 </defs>
</svg>