<?xml version="1.0" encoding="utf-8" standalone="no"?>
<!DOCTYPE svg PUBLIC "-//W3C//DTD SVG 1.1//EN"
  "http://www.w3.org/Graphics/SVG/1.1/DTD/svg11.dtd">
<svg xmlns:xlink="http://www.w3.org/1999/xlink" width="490.51525pt" height="139.042875pt" viewBox="0 0 490.51525 139.042875" xmlns="http://www.w3.org/2000/svg" version="1.1">
 <metadata>
  <rdf:RDF xmlns:dc="http://purl.org/dc/elements/1.1/" xmlns:cc="http://creativecommons.org/ns#" xmlns:rdf="http://www.w3.org/1999/02/22-rdf-syntax-ns#">
   <cc:Work>
    <dc:type rdf:resource="http://purl.org/dc/dcmitype/StillImage"/>
    <dc:date>2024-02-25T20:34:09.073073</dc:date>
    <dc:format>image/svg+xml</dc:format>
    <dc:creator>
     <cc:Agent>
      <dc:title>Matplotlib v3.8.0, https://matplotlib.org/</dc:title>
     </cc:Agent>
    </dc:creator>
   </cc:Work>
  </rdf:RDF>
 </metadata>
 <defs>
  <style type="text/css">*{stroke-linejoin: round; stroke-linecap: butt}</style>
 </defs>
 <g id="figure_1">
  <g id="patch_1">
   <path d="M 0 139.042875 
L 490.51525 139.042875 
L 490.51525 0 
L 0 0 
z
" style="fill: #ffffff"/>
  </g>
  <g id="axes_1">
   <g id="patch_2">
    <path d="M 45.65125 102.7155 
L 157.52725 102.7155 
L 157.52725 20.0715 
L 45.65125 20.0715 
z
" style="fill: #ffffff"/>
   </g>
   <g id="matplotlib.axis_1">
    <g id="xtick_1">
     <g id="line2d_1">
      <defs>
       <path id="mb4b8848f65" d="M 0 0 
L 0 4.8 
" style="stroke: #262626"/>
      </defs>
      <g>
       <use xlink:href="#mb4b8848f65" x="50.736523" y="102.7155" style="fill: #262626; stroke: #262626"/>
      </g>
     </g>
     <g id="text_1">
      <!-- −1 -->
      <g style="fill: #262626" transform="translate(45.719835 117.314375) scale(0.088 -0.088)">
       <defs>
        <path id="ArialMT-2212" d="M 3381 1997 
L 356 1997 
L 356 2522 
L 3381 2522 
L 3381 1997 
z
" transform="scale(0.015625)"/>
        <path id="ArialMT-31" d="M 2384 0 
L 1822 0 
L 1822 3584 
Q 1619 3391 1289 3197 
Q 959 3003 697 2906 
L 697 3450 
Q 1169 3672 1522 3987 
Q 1875 4303 2022 4600 
L 2384 4600 
L 2384 0 
z
" transform="scale(0.015625)"/>
       </defs>
       <use xlink:href="#ArialMT-2212"/>
       <use xlink:href="#ArialMT-31" x="58.398438"/>
      </g>
     </g>
    </g>
    <g id="xtick_2">
     <g id="line2d_2">
      <g>
       <use xlink:href="#mb4b8848f65" x="101.688766" y="102.7155" style="fill: #262626; stroke: #262626"/>
      </g>
     </g>
     <g id="text_2">
      <!-- 0 -->
      <g style="fill: #262626" transform="translate(99.241954 117.314375) scale(0.088 -0.088)">
       <defs>
        <path id="ArialMT-30" d="M 266 2259 
Q 266 3072 433 3567 
Q 600 4063 929 4331 
Q 1259 4600 1759 4600 
Q 2128 4600 2406 4451 
Q 2684 4303 2865 4023 
Q 3047 3744 3150 3342 
Q 3253 2941 3253 2259 
Q 3253 1453 3087 958 
Q 2922 463 2592 192 
Q 2263 -78 1759 -78 
Q 1097 -78 719 397 
Q 266 969 266 2259 
z
M 844 2259 
Q 844 1131 1108 757 
Q 1372 384 1759 384 
Q 2147 384 2411 759 
Q 2675 1134 2675 2259 
Q 2675 3391 2411 3762 
Q 2147 4134 1753 4134 
Q 1366 4134 1134 3806 
Q 844 3388 844 2259 
z
" transform="scale(0.015625)"/>
       </defs>
       <use xlink:href="#ArialMT-30"/>
      </g>
     </g>
    </g>
    <g id="xtick_3">
     <g id="line2d_3">
      <g>
       <use xlink:href="#mb4b8848f65" x="152.641009" y="102.7155" style="fill: #262626; stroke: #262626"/>
      </g>
     </g>
     <g id="text_3">
      <!-- 1 -->
      <g style="fill: #262626" transform="translate(150.194197 117.314375) scale(0.088 -0.088)">
       <use xlink:href="#ArialMT-31"/>
      </g>
     </g>
    </g>
    <g id="text_4">
     <!-- $x$ -->
     <g style="fill: #262626" transform="translate(98.70925 129.934875) scale(0.096 -0.096)">
      <defs>
       <path id="DejaVuSans-Oblique-78" d="M 3841 3500 
L 2234 1784 
L 3219 0 
L 2559 0 
L 1819 1388 
L 531 0 
L -166 0 
L 1556 1844 
L 641 3500 
L 1300 3500 
L 1972 2234 
L 3144 3500 
L 3841 3500 
z
" transform="scale(0.015625)"/>
      </defs>
      <use xlink:href="#DejaVuSans-Oblique-78" transform="translate(0 0.3125)"/>
     </g>
    </g>
   </g>
   <g id="matplotlib.axis_2">
    <g id="ytick_1">
     <g id="line2d_4">
      <defs>
       <path id="m299510eaea" d="M 0 0 
L -4.8 0 
" style="stroke: #262626"/>
      </defs>
      <g>
       <use xlink:href="#m299510eaea" x="45.65125" y="98.335575" style="fill: #262626; stroke: #262626"/>
      </g>
     </g>
     <g id="text_5">
      <!-- −1.0 -->
      <g style="fill: #262626" transform="translate(19.9795 101.485012) scale(0.088 -0.088)">
       <defs>
        <path id="ArialMT-2e" d="M 581 0 
L 581 641 
L 1222 641 
L 1222 0 
L 581 0 
z
" transform="scale(0.015625)"/>
       </defs>
       <use xlink:href="#ArialMT-2212"/>
       <use xlink:href="#ArialMT-31" x="58.398438"/>
       <use xlink:href="#ArialMT-2e" x="114.013672"/>
       <use xlink:href="#ArialMT-30" x="141.796875"/>
      </g>
     </g>
    </g>
    <g id="ytick_2">
     <g id="line2d_5">
      <g>
       <use xlink:href="#m299510eaea" x="45.65125" y="65.061502" style="fill: #262626; stroke: #262626"/>
      </g>
     </g>
     <g id="text_6">
      <!-- −0.5 -->
      <g style="fill: #262626" transform="translate(19.9795 68.210939) scale(0.088 -0.088)">
       <defs>
        <path id="ArialMT-35" d="M 266 1200 
L 856 1250 
Q 922 819 1161 601 
Q 1400 384 1738 384 
Q 2144 384 2425 690 
Q 2706 997 2706 1503 
Q 2706 1984 2436 2262 
Q 2166 2541 1728 2541 
Q 1456 2541 1237 2417 
Q 1019 2294 894 2097 
L 366 2166 
L 809 4519 
L 3088 4519 
L 3088 3981 
L 1259 3981 
L 1013 2750 
Q 1425 3038 1878 3038 
Q 2478 3038 2890 2622 
Q 3303 2206 3303 1553 
Q 3303 931 2941 478 
Q 2500 -78 1738 -78 
Q 1113 -78 717 272 
Q 322 622 266 1200 
z
" transform="scale(0.015625)"/>
       </defs>
       <use xlink:href="#ArialMT-2212"/>
       <use xlink:href="#ArialMT-30" x="58.398438"/>
       <use xlink:href="#ArialMT-2e" x="114.013672"/>
       <use xlink:href="#ArialMT-35" x="141.796875"/>
      </g>
     </g>
    </g>
    <g id="ytick_3">
     <g id="line2d_6">
      <g>
       <use xlink:href="#m299510eaea" x="45.65125" y="31.787428" style="fill: #262626; stroke: #262626"/>
      </g>
     </g>
     <g id="text_7">
      <!-- 0.0 -->
      <g style="fill: #262626" transform="translate(25.11925 34.936866) scale(0.088 -0.088)">
       <use xlink:href="#ArialMT-30"/>
       <use xlink:href="#ArialMT-2e" x="55.615234"/>
       <use xlink:href="#ArialMT-30" x="83.398438"/>
      </g>
     </g>
    </g>
    <g id="text_8">
     <!-- $u(t,x)$ -->
     <g style="fill: #262626" transform="translate(14.0715 75.4095) rotate(-90) scale(0.096 -0.096)">
      <defs>
       <path id="DejaVuSans-Oblique-75" d="M 428 1388 
L 838 3500 
L 1416 3500 
L 1006 1409 
Q 975 1256 961 1147 
Q 947 1038 947 966 
Q 947 700 1109 554 
Q 1272 409 1569 409 
Q 2031 409 2368 721 
Q 2706 1034 2809 1563 
L 3194 3500 
L 3769 3500 
L 3091 0 
L 2516 0 
L 2631 550 
Q 2388 244 2052 76 
Q 1716 -91 1338 -91 
Q 878 -91 622 161 
Q 366 413 366 863 
Q 366 956 381 1097 
Q 397 1238 428 1388 
z
" transform="scale(0.015625)"/>
       <path id="DejaVuSans-28" d="M 1984 4856 
Q 1566 4138 1362 3434 
Q 1159 2731 1159 2009 
Q 1159 1288 1364 580 
Q 1569 -128 1984 -844 
L 1484 -844 
Q 1016 -109 783 600 
Q 550 1309 550 2009 
Q 550 2706 781 3412 
Q 1013 4119 1484 4856 
L 1984 4856 
z
" transform="scale(0.015625)"/>
       <path id="DejaVuSans-Oblique-74" d="M 2706 3500 
L 2619 3053 
L 1472 3053 
L 1100 1153 
Q 1081 1047 1072 975 
Q 1063 903 1063 863 
Q 1063 663 1183 572 
Q 1303 481 1569 481 
L 2150 481 
L 2053 0 
L 1503 0 
Q 991 0 739 200 
Q 488 400 488 806 
Q 488 878 497 964 
Q 506 1050 525 1153 
L 897 3053 
L 409 3053 
L 500 3500 
L 978 3500 
L 1172 4494 
L 1747 4494 
L 1556 3500 
L 2706 3500 
z
" transform="scale(0.015625)"/>
       <path id="DejaVuSans-2c" d="M 750 794 
L 1409 794 
L 1409 256 
L 897 -744 
L 494 -744 
L 750 256 
L 750 794 
z
" transform="scale(0.015625)"/>
       <path id="DejaVuSans-29" d="M 513 4856 
L 1013 4856 
Q 1481 4119 1714 3412 
Q 1947 2706 1947 2009 
Q 1947 1309 1714 600 
Q 1481 -109 1013 -844 
L 513 -844 
Q 928 -128 1133 580 
Q 1338 1288 1338 2009 
Q 1338 2731 1133 3434 
Q 928 4138 513 4856 
z
" transform="scale(0.015625)"/>
      </defs>
      <use xlink:href="#DejaVuSans-Oblique-75" transform="translate(0 0.125)"/>
      <use xlink:href="#DejaVuSans-28" transform="translate(63.378906 0.125)"/>
      <use xlink:href="#DejaVuSans-Oblique-74" transform="translate(102.392578 0.125)"/>
      <use xlink:href="#DejaVuSans-2c" transform="translate(141.601562 0.125)"/>
      <use xlink:href="#DejaVuSans-Oblique-78" transform="translate(192.871094 0.125)"/>
      <use xlink:href="#DejaVuSans-29" transform="translate(252.050781 0.125)"/>
     </g>
    </g>
   </g>
   <g id="line2d_7">
    <path d="M 50.736523 98.335575 
L 52.527813 93.361189 
L 54.916199 86.01344 
L 59.095875 72.249327 
L 62.877487 60.076868 
L 65.464906 52.481094 
L 67.65426 46.738793 
L 69.644582 42.157822 
L 71.435872 38.597745 
L 73.028129 35.895299 
L 74.620387 33.628352 
L 76.013612 31.994793 
L 77.406838 30.675583 
L 78.800063 29.654083 
L 80.193288 28.909537 
L 81.586514 28.417687 
L 82.979739 28.151415 
L 84.571997 28.085652 
L 86.363287 28.260592 
L 88.353609 28.685025 
L 91.339092 29.582012 
L 96.314897 31.087434 
L 98.703283 31.562813 
L 100.892637 31.771201 
L 102.882959 31.750971 
L 105.072314 31.500328 
L 107.4607 30.986952 
L 110.446183 30.10122 
L 115.62102 28.537452 
L 117.611342 28.176865 
L 119.402632 28.083162 
L 120.99489 28.239747 
L 122.388115 28.599219 
L 123.78134 29.196198 
L 125.174566 30.056658 
L 126.567791 31.203433 
L 127.961017 32.655587 
L 129.354242 34.427821 
L 130.9465 36.857474 
L 132.538757 39.723713 
L 134.330047 43.46455 
L 136.121337 47.730353 
L 138.111659 53.03653 
L 140.500045 60.076868 
L 143.485528 69.620889 
L 150.451655 92.184959 
L 152.441977 97.811711 
L 152.441977 97.811711 
" clip-path="url(#p29f812393d)" style="fill: none; stroke: #1f77b4; stroke-width: 1.2; stroke-linecap: round"/>
   </g>
   <g id="line2d_8">
    <path d="M 50.736523 98.172699 
L 51.333619 97.106209 
L 51.930716 96.198248 
L 52.129748 95.581107 
L 52.32878 94.529163 
L 52.726845 90.172733 
L 53.124909 81.074568 
L 53.722006 56.751061 
L 54.319102 34.434205 
L 54.717167 28.012595 
L 54.916199 26.861518 
L 55.115231 26.641202 
L 55.314263 27.03518 
L 55.91136 29.594216 
L 56.508457 31.901411 
L 56.906521 32.836444 
L 57.304585 33.237514 
L 57.503618 33.242744 
L 57.901682 32.897574 
L 58.498779 31.737017 
L 59.095875 30.636949 
L 59.294907 30.523253 
L 59.49394 30.608792 
L 59.892004 31.364421 
L 60.688133 33.421362 
L 61.086197 33.833334 
L 61.882326 34.269513 
L 63.275551 35.52908 
L 63.474584 35.478958 
L 63.872648 35.011121 
L 64.270712 34.046583 
L 65.265873 31.150636 
L 65.663938 30.749897 
L 65.86297 30.773888 
L 66.261034 31.128839 
L 66.858131 31.815121 
L 67.256195 31.970023 
L 67.65426 31.73174 
L 68.251356 30.80285 
L 68.848453 29.907285 
L 69.047485 29.791097 
L 69.246517 29.820021 
L 69.44555 30.014502 
L 69.843614 30.924561 
L 70.440711 33.348502 
L 71.236839 36.79127 
L 71.634904 37.698397 
L 71.833936 37.82855 
L 72.032968 37.732172 
L 72.431033 36.912397 
L 73.028129 34.609911 
L 73.824258 31.496727 
L 74.222322 30.65409 
L 74.620387 30.435413 
L 75.018451 30.706261 
L 76.212644 32.046058 
L 76.610709 32.161823 
L 77.207805 32.047433 
L 78.601031 31.658521 
L 79.198127 31.435042 
L 79.596192 31.092629 
L 80.193288 30.218787 
L 81.188449 28.653319 
L 81.586514 28.377531 
L 81.984578 28.354441 
L 82.581675 28.651258 
L 83.377804 29.392835 
L 85.368126 31.64113 
L 85.76619 31.691178 
L 86.164254 31.471378 
L 86.562319 30.982421 
L 87.955544 28.738356 
L 88.353609 28.682701 
L 88.751673 29.072387 
L 89.34877 30.204961 
L 89.945866 31.305733 
L 90.343931 31.690628 
L 90.741995 31.698077 
L 91.140059 31.362366 
L 92.533285 29.536246 
L 92.931349 29.459921 
L 93.329414 29.702802 
L 93.92651 30.482244 
L 94.722639 31.502086 
L 95.120703 31.704365 
L 95.518768 31.653177 
L 97.111025 30.919659 
L 97.708122 31.158724 
L 99.30038 32.205283 
L 99.897476 32.237459 
L 100.892637 31.944081 
L 101.688766 31.780224 
L 103.281024 31.645292 
L 104.077153 31.183035 
L 104.873281 30.769583 
L 105.470378 30.767 
L 106.465539 31.166398 
L 107.261668 31.375267 
L 107.858764 31.324356 
L 108.654893 30.980065 
L 110.048119 30.194945 
L 111.04328 30.025446 
L 112.436505 29.912706 
L 113.033602 30.155614 
L 114.028763 30.96181 
L 114.824891 31.499241 
L 115.421988 31.644852 
L 116.019085 31.525468 
L 117.014246 31.208489 
L 117.41231 31.272374 
L 118.009407 31.633727 
L 119.004568 32.325889 
L 119.402632 32.33179 
L 119.800696 32.03561 
L 120.198761 31.421518 
L 121.591986 28.682991 
L 121.990051 28.470134 
L 122.388115 28.710981 
L 122.786179 29.351088 
L 124.179405 32.039704 
L 124.577469 32.242585 
L 124.975534 32.114548 
L 125.57263 31.499123 
L 126.368759 30.573472 
L 126.766823 30.38259 
L 127.164888 30.54415 
L 127.562952 31.096756 
L 128.558113 32.925609 
L 128.757145 33.04661 
L 128.956178 33.02705 
L 129.354242 32.626246 
L 130.349403 31.224222 
L 130.747467 31.076545 
L 131.344564 31.2363 
L 131.742628 31.33532 
L 132.140693 31.234535 
L 132.737789 30.697386 
L 133.135854 30.415863 
L 133.334886 30.431276 
L 133.533918 30.59237 
L 133.931983 31.331706 
L 134.728111 33.077651 
L 134.927144 33.180302 
L 135.126176 33.042092 
L 135.325208 32.637649 
L 135.723272 31.028287 
L 136.917466 23.999976 
L 137.116498 23.828045 
L 137.31553 24.422835 
L 137.514562 25.963387 
L 137.912627 32.370311 
L 138.509723 49.306571 
L 139.10682 65.046379 
L 139.305852 67.69604 
L 139.504884 68.778805 
L 139.703916 68.420896 
L 139.902949 66.857914 
L 140.301013 61.31394 
L 141.296174 45.637759 
L 141.893271 39.80181 
L 142.888432 33.375306 
L 143.286496 31.721907 
L 143.68456 31.05558 
L 144.082625 30.605631 
L 144.679721 29.746909 
L 144.878754 29.708831 
L 145.077786 29.865055 
L 145.47585 30.650494 
L 146.471011 33.247616 
L 146.869076 33.70524 
L 147.068108 33.715426 
L 147.26714 33.572938 
L 147.665204 32.858714 
L 148.859398 29.660801 
L 149.05843 29.708107 
L 149.257462 30.259506 
L 149.456494 31.526364 
L 149.655526 33.781314 
L 150.053591 42.702457 
L 150.451655 59.369209 
L 151.048752 86.487444 
L 151.446816 95.578842 
L 151.844881 98.653472 
L 152.043913 98.958955 
L 152.242945 98.864288 
L 152.441977 98.561757 
L 152.441977 98.561757 
" clip-path="url(#p29f812393d)" style="fill: none; stroke-dasharray: 4.44,1.92; stroke-dashoffset: 0; stroke: #ff7f0e; stroke-width: 1.2"/>
   </g>
   <g id="patch_3">
    <path d="M 45.65125 98.335575 
L 45.65125 31.787428 
" style="fill: none; stroke: #262626; stroke-linejoin: miter; stroke-linecap: square"/>
   </g>
   <g id="patch_4">
    <path d="M 50.736523 102.7155 
L 152.641009 102.7155 
" style="fill: none; stroke: #262626; stroke-linejoin: miter; stroke-linecap: square"/>
   </g>
   <g id="text_9">
    <!-- t=0 -->
    <g style="fill: #262626" transform="translate(94.783 14.0715) scale(0.096 -0.096)">
     <defs>
      <path id="ArialMT-74" d="M 1650 503 
L 1731 6 
Q 1494 -44 1306 -44 
Q 1000 -44 831 53 
Q 663 150 594 308 
Q 525 466 525 972 
L 525 2881 
L 113 2881 
L 113 3319 
L 525 3319 
L 525 4141 
L 1084 4478 
L 1084 3319 
L 1650 3319 
L 1650 2881 
L 1084 2881 
L 1084 941 
Q 1084 700 1114 631 
Q 1144 563 1211 522 
Q 1278 481 1403 481 
Q 1497 481 1650 503 
z
" transform="scale(0.015625)"/>
      <path id="ArialMT-3d" d="M 3381 2694 
L 356 2694 
L 356 3219 
L 3381 3219 
L 3381 2694 
z
M 3381 1303 
L 356 1303 
L 356 1828 
L 3381 1828 
L 3381 1303 
z
" transform="scale(0.015625)"/>
     </defs>
     <use xlink:href="#ArialMT-74"/>
     <use xlink:href="#ArialMT-3d" x="27.783203"/>
     <use xlink:href="#ArialMT-30" x="86.181641"/>
    </g>
   </g>
  </g>
  <g id="axes_2">
   <g id="patch_5">
    <path d="M 208.54525 102.7155 
L 320.42125 102.7155 
L 320.42125 20.0715 
L 208.54525 20.0715 
z
" style="fill: #ffffff"/>
   </g>
   <g id="matplotlib.axis_3">
    <g id="xtick_4">
     <g id="line2d_9">
      <g>
       <use xlink:href="#mb4b8848f65" x="213.630523" y="102.7155" style="fill: #262626; stroke: #262626"/>
      </g>
     </g>
     <g id="text_10">
      <!-- −1 -->
      <g style="fill: #262626" transform="translate(208.613835 117.314375) scale(0.088 -0.088)">
       <use xlink:href="#ArialMT-2212"/>
       <use xlink:href="#ArialMT-31" x="58.398438"/>
      </g>
     </g>
    </g>
    <g id="xtick_5">
     <g id="line2d_10">
      <g>
       <use xlink:href="#mb4b8848f65" x="264.582766" y="102.7155" style="fill: #262626; stroke: #262626"/>
      </g>
     </g>
     <g id="text_11">
      <!-- 0 -->
      <g style="fill: #262626" transform="translate(262.135954 117.314375) scale(0.088 -0.088)">
       <use xlink:href="#ArialMT-30"/>
      </g>
     </g>
    </g>
    <g id="xtick_6">
     <g id="line2d_11">
      <g>
       <use xlink:href="#mb4b8848f65" x="315.535009" y="102.7155" style="fill: #262626; stroke: #262626"/>
      </g>
     </g>
     <g id="text_12">
      <!-- 1 -->
      <g style="fill: #262626" transform="translate(313.088197 117.314375) scale(0.088 -0.088)">
       <use xlink:href="#ArialMT-31"/>
      </g>
     </g>
    </g>
    <g id="text_13">
     <!-- $x$ -->
     <g style="fill: #262626" transform="translate(261.60325 129.934875) scale(0.096 -0.096)">
      <use xlink:href="#DejaVuSans-Oblique-78" transform="translate(0 0.3125)"/>
     </g>
    </g>
   </g>
   <g id="matplotlib.axis_4">
    <g id="ytick_4">
     <g id="line2d_12">
      <g>
       <use xlink:href="#m299510eaea" x="208.54525" y="97.733569" style="fill: #262626; stroke: #262626"/>
      </g>
     </g>
     <g id="text_14">
      <!-- −1.0 -->
      <g style="fill: #262626" transform="translate(182.8735 100.883007) scale(0.088 -0.088)">
       <use xlink:href="#ArialMT-2212"/>
       <use xlink:href="#ArialMT-31" x="58.398438"/>
       <use xlink:href="#ArialMT-2e" x="114.013672"/>
       <use xlink:href="#ArialMT-30" x="141.796875"/>
      </g>
     </g>
    </g>
    <g id="ytick_5">
     <g id="line2d_13">
      <g>
       <use xlink:href="#m299510eaea" x="208.54525" y="74.059943" style="fill: #262626; stroke: #262626"/>
      </g>
     </g>
     <g id="text_15">
      <!-- −0.5 -->
      <g style="fill: #262626" transform="translate(182.8735 77.20938) scale(0.088 -0.088)">
       <use xlink:href="#ArialMT-2212"/>
       <use xlink:href="#ArialMT-30" x="58.398438"/>
       <use xlink:href="#ArialMT-2e" x="114.013672"/>
       <use xlink:href="#ArialMT-35" x="141.796875"/>
      </g>
     </g>
    </g>
    <g id="ytick_6">
     <g id="line2d_14">
      <g>
       <use xlink:href="#m299510eaea" x="208.54525" y="50.386317" style="fill: #262626; stroke: #262626"/>
      </g>
     </g>
     <g id="text_16">
      <!-- 0.0 -->
      <g style="fill: #262626" transform="translate(188.01325 53.535754) scale(0.088 -0.088)">
       <use xlink:href="#ArialMT-30"/>
       <use xlink:href="#ArialMT-2e" x="55.615234"/>
       <use xlink:href="#ArialMT-30" x="83.398438"/>
      </g>
     </g>
    </g>
    <g id="ytick_7">
     <g id="line2d_15">
      <g>
       <use xlink:href="#m299510eaea" x="208.54525" y="26.71269" style="fill: #262626; stroke: #262626"/>
      </g>
     </g>
     <g id="text_17">
      <!-- 0.5 -->
      <g style="fill: #262626" transform="translate(188.01325 29.862128) scale(0.088 -0.088)">
       <use xlink:href="#ArialMT-30"/>
       <use xlink:href="#ArialMT-2e" x="55.615234"/>
       <use xlink:href="#ArialMT-35" x="83.398438"/>
      </g>
     </g>
    </g>
    <g id="text_18">
     <!-- $u(t,x)$ -->
     <g style="fill: #262626" transform="translate(176.9655 75.4095) rotate(-90) scale(0.096 -0.096)">
      <use xlink:href="#DejaVuSans-Oblique-75" transform="translate(0 0.125)"/>
      <use xlink:href="#DejaVuSans-28" transform="translate(63.378906 0.125)"/>
      <use xlink:href="#DejaVuSans-Oblique-74" transform="translate(102.392578 0.125)"/>
      <use xlink:href="#DejaVuSans-2c" transform="translate(141.601562 0.125)"/>
      <use xlink:href="#DejaVuSans-Oblique-78" transform="translate(192.871094 0.125)"/>
      <use xlink:href="#DejaVuSans-29" transform="translate(252.050781 0.125)"/>
     </g>
    </g>
   </g>
   <g id="line2d_16">
    <path d="M 213.630523 97.728242 
L 219.203424 97.606827 
L 223.383101 97.346983 
L 225.970519 96.984878 
L 227.761809 96.522921 
L 229.155034 95.931801 
L 230.150195 95.299605 
L 231.145356 94.39132 
L 231.941485 93.370464 
L 232.737614 91.970878 
L 233.533743 90.03879 
L 234.329872 87.371022 
L 235.126 83.727703 
L 235.922129 78.889284 
L 236.91729 71.0713 
L 238.70858 54.196135 
L 239.902773 43.993089 
L 240.897934 37.354372 
L 241.694063 33.29874 
L 242.490192 30.204769 
L 243.286321 27.899222 
L 244.082449 26.227214 
L 244.878578 25.065185 
L 245.674707 24.320192 
L 246.470836 23.924703 
L 247.266965 23.830821 
L 248.063093 24.005225 
L 248.859222 24.425018 
L 249.655351 25.074326 
L 250.650512 26.191005 
L 251.645673 27.62783 
L 252.839866 29.740628 
L 254.233092 32.661841 
L 256.422446 37.870134 
L 259.009864 43.913672 
L 260.40309 46.599286 
L 261.597283 48.389562 
L 262.592444 49.458 
L 263.388573 50.013682 
L 264.184702 50.293631 
L 264.980831 50.293631 
L 265.776959 50.013682 
L 266.573088 49.458 
L 267.369217 48.635396 
L 268.364378 47.253792 
L 269.558571 45.133778 
L 270.951797 42.155907 
L 273.539215 35.928348 
L 275.529537 31.357307 
L 276.922763 28.634084 
L 278.116956 26.728492 
L 279.112117 25.481289 
L 280.107278 24.566337 
L 280.903407 24.087885 
L 281.699535 23.850315 
L 282.495664 23.874472 
L 283.092761 24.082149 
L 283.689857 24.471415 
L 284.485986 25.313445 
L 285.282115 26.593134 
L 286.078244 28.41067 
L 286.874373 30.897702 
L 287.670501 34.215761 
L 288.46663 38.537553 
L 289.262759 43.993089 
L 290.25792 52.358398 
L 293.044371 77.478533 
L 293.8405 82.636785 
L 294.636628 86.561274 
L 295.432757 89.449792 
L 296.228886 91.544869 
L 297.025015 93.061262 
L 297.821144 94.164933 
L 298.816305 95.143782 
L 299.811466 95.822418 
L 301.005659 96.380631 
L 302.597916 96.857494 
L 304.588238 97.210407 
L 307.573721 97.488989 
L 312.350494 97.67803 
L 315.335977 97.727803 
L 315.335977 97.727803 
" clip-path="url(#p3258071ee9)" style="fill: none; stroke: #1f77b4; stroke-width: 1.2; stroke-linecap: round"/>
   </g>
   <g id="line2d_17">
    <path d="M 213.630523 97.307345 
L 214.028587 97.063015 
L 214.426652 97.303179 
L 215.22278 98.17028 
L 215.421813 97.975628 
L 215.620845 97.317304 
L 215.819877 95.98077 
L 216.217941 90.292013 
L 216.616006 79.458202 
L 217.412135 55.376306 
L 217.810199 49.800202 
L 218.009231 48.53742 
L 218.208263 48.013921 
L 218.407296 48.014058 
L 218.80536 48.840912 
L 219.601489 50.836369 
L 219.999553 51.363097 
L 220.397618 51.495653 
L 220.795682 51.272014 
L 221.392779 50.504661 
L 221.989875 49.82173 
L 222.38794 49.732303 
L 223.781165 50.111725 
L 224.179229 50.178827 
L 224.577294 50.442974 
L 226.169551 51.919083 
L 226.567616 51.77453 
L 226.96568 51.244575 
L 227.562777 49.844275 
L 228.159873 48.446671 
L 228.557938 48.02223 
L 228.75697 48.015643 
L 229.155034 48.357465 
L 230.349228 50.085823 
L 230.747292 50.251245 
L 231.344389 50.113306 
L 231.742453 50.05447 
L 232.140517 50.297217 
L 232.538582 51.000934 
L 233.135678 52.898647 
L 234.130839 56.396534 
L 234.528904 57.047678 
L 234.727936 57.115452 
L 234.926968 57.005455 
L 235.325033 56.287964 
L 235.922129 54.290881 
L 236.91729 50.701478 
L 237.315355 49.90686 
L 237.713419 49.621943 
L 238.111483 49.739401 
L 239.504709 50.670597 
L 240.101805 50.589314 
L 241.495031 50.156078 
L 242.689224 50.28159 
L 244.480514 50.438765 
L 245.276643 50.588455 
L 246.072771 50.484107 
L 247.465997 50.254674 
L 249.655351 50.061345 
L 250.650512 49.925858 
L 251.247609 50.103784 
L 251.844705 50.585208 
L 252.640834 51.296708 
L 253.038898 51.455219 
L 253.436963 51.41432 
L 254.034059 51.044606 
L 255.228253 50.135152 
L 255.825349 50.021226 
L 256.422446 50.190623 
L 257.417607 50.597414 
L 257.815671 50.588827 
L 258.412768 50.311723 
L 259.407929 49.75486 
L 259.805993 49.759083 
L 260.40309 50.065535 
L 261.597283 50.909903 
L 262.19438 51.014713 
L 262.791476 50.873775 
L 263.985669 50.50977 
L 264.980831 50.51511 
L 265.975992 50.464379 
L 267.966314 50.031817 
L 268.762442 50.359445 
L 269.757603 50.75393 
L 270.553732 50.755353 
L 271.747925 50.415609 
L 272.544054 50.252389 
L 273.141151 50.32254 
L 274.534376 50.671728 
L 275.131473 50.51396 
L 276.126634 50.17841 
L 276.72373 50.244624 
L 278.116956 50.550841 
L 278.714052 50.422742 
L 280.903407 49.626847 
L 281.500503 49.820345 
L 282.893729 50.546459 
L 283.490825 50.419062 
L 284.485986 49.77352 
L 285.083083 49.52984 
L 285.481147 49.585055 
L 286.078244 50.009103 
L 287.073405 50.909586 
L 287.471469 51.066502 
L 288.068566 51.009375 
L 289.063727 50.504012 
L 289.859856 50.183904 
L 290.456952 50.171318 
L 291.452113 50.295174 
L 292.845339 50.12872 
L 293.442435 50.557291 
L 294.039532 51.026042 
L 294.437596 51.080817 
L 294.835661 50.796625 
L 295.432757 49.798936 
L 296.029854 48.742232 
L 296.427918 48.508793 
L 296.62695 48.603966 
L 297.025015 49.167677 
L 297.821144 50.688471 
L 298.219208 50.964122 
L 298.41824 50.888622 
L 298.816305 50.311988 
L 300.010498 47.500213 
L 300.20953 47.485937 
L 300.408562 47.802689 
L 300.607594 48.510912 
L 301.005659 51.15352 
L 301.801788 58.119101 
L 302.00082 59.000744 
L 302.199852 59.245487 
L 302.398884 58.871672 
L 302.796949 56.709623 
L 303.79211 49.776452 
L 304.190174 48.367478 
L 304.389206 48.074281 
L 304.588238 48.035622 
L 304.787271 48.218157 
L 305.185335 49.051544 
L 306.180496 51.458196 
L 306.777593 52.439023 
L 306.976625 52.543298 
L 307.175657 52.445043 
L 307.573721 51.673851 
L 308.170818 50.295337 
L 308.568882 50.028018 
L 308.966947 50.259047 
L 309.763076 50.922415 
L 310.16114 50.831275 
L 310.559204 50.330522 
L 311.554365 48.401577 
L 311.753398 48.372368 
L 311.95243 48.712999 
L 312.151462 49.584367 
L 312.350494 51.179019 
L 312.748559 57.503713 
L 313.146623 69.610535 
L 313.74372 91.012296 
L 314.141784 97.54228 
L 314.340816 98.666188 
L 314.539848 98.958955 
L 314.738881 98.791152 
L 315.335977 97.607042 
L 315.335977 97.607042 
" clip-path="url(#p3258071ee9)" style="fill: none; stroke-dasharray: 4.44,1.92; stroke-dashoffset: 0; stroke: #ff7f0e; stroke-width: 1.2"/>
   </g>
   <g id="patch_6">
    <path d="M 208.54525 97.733569 
L 208.54525 26.71269 
" style="fill: none; stroke: #262626; stroke-linejoin: miter; stroke-linecap: square"/>
   </g>
   <g id="patch_7">
    <path d="M 213.630523 102.7155 
L 315.535009 102.7155 
" style="fill: none; stroke: #262626; stroke-linejoin: miter; stroke-linecap: square"/>
   </g>
   <g id="text_19">
    <!-- t=0.5 -->
    <g style="fill: #262626" transform="translate(253.67425 14.0715) scale(0.096 -0.096)">
     <use xlink:href="#ArialMT-74"/>
     <use xlink:href="#ArialMT-3d" x="27.783203"/>
     <use xlink:href="#ArialMT-30" x="86.181641"/>
     <use xlink:href="#ArialMT-2e" x="141.796875"/>
     <use xlink:href="#ArialMT-35" x="169.580078"/>
    </g>
   </g>
  </g>
  <g id="axes_3">
   <g id="patch_8">
    <path d="M 371.43925 102.7155 
L 483.31525 102.7155 
L 483.31525 20.0715 
L 371.43925 20.0715 
z
" style="fill: #ffffff"/>
   </g>
   <g id="matplotlib.axis_5">
    <g id="xtick_7">
     <g id="line2d_18">
      <g>
       <use xlink:href="#mb4b8848f65" x="376.524523" y="102.7155" style="fill: #262626; stroke: #262626"/>
      </g>
     </g>
     <g id="text_20">
      <!-- −1 -->
      <g style="fill: #262626" transform="translate(371.507835 117.314375) scale(0.088 -0.088)">
       <use xlink:href="#ArialMT-2212"/>
       <use xlink:href="#ArialMT-31" x="58.398438"/>
      </g>
     </g>
    </g>
    <g id="xtick_8">
     <g id="line2d_19">
      <g>
       <use xlink:href="#mb4b8848f65" x="427.476766" y="102.7155" style="fill: #262626; stroke: #262626"/>
      </g>
     </g>
     <g id="text_21">
      <!-- 0 -->
      <g style="fill: #262626" transform="translate(425.029954 117.314375) scale(0.088 -0.088)">
       <use xlink:href="#ArialMT-30"/>
      </g>
     </g>
    </g>
    <g id="xtick_9">
     <g id="line2d_20">
      <g>
       <use xlink:href="#mb4b8848f65" x="478.429009" y="102.7155" style="fill: #262626; stroke: #262626"/>
      </g>
     </g>
     <g id="text_22">
      <!-- 1 -->
      <g style="fill: #262626" transform="translate(475.982197 117.314375) scale(0.088 -0.088)">
       <use xlink:href="#ArialMT-31"/>
      </g>
     </g>
    </g>
    <g id="text_23">
     <!-- $x$ -->
     <g style="fill: #262626" transform="translate(424.49725 129.934875) scale(0.096 -0.096)">
      <use xlink:href="#DejaVuSans-Oblique-78" transform="translate(0 0.3125)"/>
     </g>
    </g>
   </g>
   <g id="matplotlib.axis_6">
    <g id="ytick_8">
     <g id="line2d_21">
      <g>
       <use xlink:href="#m299510eaea" x="371.43925" y="97.577048" style="fill: #262626; stroke: #262626"/>
      </g>
     </g>
     <g id="text_24">
      <!-- −1 -->
      <g style="fill: #262626" transform="translate(353.105875 100.726485) scale(0.088 -0.088)">
       <use xlink:href="#ArialMT-2212"/>
       <use xlink:href="#ArialMT-31" x="58.398438"/>
      </g>
     </g>
    </g>
    <g id="ytick_9">
     <g id="line2d_22">
      <g>
       <use xlink:href="#m299510eaea" x="371.43925" y="60.567396" style="fill: #262626; stroke: #262626"/>
      </g>
     </g>
     <g id="text_25">
      <!-- 0 -->
      <g style="fill: #262626" transform="translate(358.245625 63.716833) scale(0.088 -0.088)">
       <use xlink:href="#ArialMT-30"/>
      </g>
     </g>
    </g>
    <g id="ytick_10">
     <g id="line2d_23">
      <g>
       <use xlink:href="#m299510eaea" x="371.43925" y="23.557744" style="fill: #262626; stroke: #262626"/>
      </g>
     </g>
     <g id="text_26">
      <!-- 1 -->
      <g style="fill: #262626" transform="translate(358.245625 26.707181) scale(0.088 -0.088)">
       <use xlink:href="#ArialMT-31"/>
      </g>
     </g>
    </g>
    <g id="text_27">
     <!-- $u(t,x)$ -->
     <g style="fill: #262626" transform="translate(347.197875 75.4095) rotate(-90) scale(0.096 -0.096)">
      <use xlink:href="#DejaVuSans-Oblique-75" transform="translate(0 0.125)"/>
      <use xlink:href="#DejaVuSans-28" transform="translate(63.378906 0.125)"/>
      <use xlink:href="#DejaVuSans-Oblique-74" transform="translate(102.392578 0.125)"/>
      <use xlink:href="#DejaVuSans-2c" transform="translate(141.601562 0.125)"/>
      <use xlink:href="#DejaVuSans-Oblique-78" transform="translate(192.871094 0.125)"/>
      <use xlink:href="#DejaVuSans-29" transform="translate(252.050781 0.125)"/>
     </g>
    </g>
   </g>
   <g id="line2d_24">
    <path d="M 376.524523 97.577007 
L 397.621936 97.472591 
L 399.015161 97.300492 
L 399.81129 96.988576 
L 400.209355 96.631561 
L 400.607419 95.897428 
L 400.806451 95.221955 
L 401.005483 94.133368 
L 401.204516 92.30204 
L 401.403548 89.125627 
L 401.60258 83.639994 
L 402.000644 62.938886 
L 402.398709 40.712346 
L 402.796773 30.506274 
L 403.194838 26.946722 
L 403.592902 25.548717 
L 403.990966 24.891008 
L 404.588063 24.41373 
L 405.384192 24.126816 
L 406.777417 23.927536 
L 409.364836 23.831089 
L 413.544512 23.907838 
L 416.330963 24.163062 
L 417.92322 24.514143 
L 419.117414 25.016532 
L 419.913542 25.572807 
L 420.709671 26.440198 
L 421.306768 27.413917 
L 421.903864 28.805679 
L 422.500961 30.788048 
L 423.098058 33.553201 
L 423.894186 38.661424 
L 426.282573 56.511983 
L 426.879669 58.725975 
L 427.277734 59.389537 
L 427.476766 59.472661 
L 427.675798 59.389537 
L 428.073863 58.725975 
L 428.471927 57.408408 
L 429.069024 54.275541 
L 429.865153 48.39129 
L 431.45741 35.903741 
L 432.253539 31.613849 
L 432.850636 29.391309 
L 433.447732 27.823684 
L 434.044829 26.727255 
L 434.840958 25.754217 
L 435.637086 25.134144 
L 436.632247 24.649922 
L 438.025473 24.266865 
L 440.015795 24.000921 
L 443.20031 23.846026 
L 447.180954 23.868539 
L 449.171276 24.046407 
L 450.166437 24.318518 
L 450.763534 24.688035 
L 451.161598 25.165471 
L 451.559662 26.104628 
L 451.758695 26.946722 
L 451.957727 28.284227 
L 452.156759 30.506274 
L 452.355791 34.305923 
L 452.753856 50.547736 
L 453.350952 83.639994 
L 453.749017 92.30204 
L 454.147081 95.221955 
L 454.545145 96.335563 
L 454.94321 96.838852 
L 455.540306 97.183914 
L 456.535467 97.401963 
L 458.525789 97.522124 
L 464.695788 97.57106 
L 478.229977 97.577005 
L 478.229977 97.577005 
" clip-path="url(#p58d361c861)" style="fill: none; stroke: #1f77b4; stroke-width: 1.2; stroke-linecap: round"/>
   </g>
   <g id="line2d_25">
    <path d="M 376.524523 96.19811 
L 376.922587 96.474396 
L 377.320652 97.135717 
L 378.11678 98.759528 
L 378.315813 98.958955 
L 378.514845 98.925155 
L 378.713877 98.540257 
L 378.912909 97.652703 
L 379.310974 93.622568 
L 379.709038 85.717214 
L 380.505167 67.71389 
L 380.903231 62.934709 
L 381.301296 60.878655 
L 381.500328 60.570514 
L 381.69936 60.566457 
L 382.097424 61.027706 
L 382.893553 62.062364 
L 383.291618 62.212603 
L 383.689682 62.03803 
L 384.087746 61.566561 
L 385.28194 59.771253 
L 385.879036 59.382226 
L 386.476133 59.260133 
L 387.073229 59.429003 
L 387.869358 60.021081 
L 388.665487 60.519523 
L 389.063551 60.552383 
L 389.461616 60.344142 
L 389.85968 59.832197 
L 390.456777 58.502057 
L 391.252906 56.515457 
L 391.65097 55.969734 
L 392.049034 55.873954 
L 392.447099 56.146489 
L 394.039356 57.808622 
L 394.636453 58.26538 
L 395.034517 58.795263 
L 395.432582 59.631779 
L 396.228711 62.070884 
L 397.024839 64.312859 
L 397.422904 64.860557 
L 397.621936 64.943268 
L 397.820968 64.896031 
L 398.219033 64.435468 
L 398.816129 63.025351 
L 400.010322 59.655037 
L 400.408387 58.979297 
L 400.806451 58.646622 
L 401.204516 58.59212 
L 402.995805 58.910894 
L 404.588063 58.648001 
L 405.18516 58.82748 
L 406.180321 59.398967 
L 407.573546 60.225125 
L 408.170643 60.255503 
L 408.767739 60.003054 
L 410.957093 58.69182 
L 411.753222 58.514221 
L 412.549351 58.603167 
L 413.34548 58.932462 
L 414.340641 59.587386 
L 415.534834 60.372458 
L 416.131931 60.463904 
L 416.928059 60.265201 
L 418.520317 59.7688 
L 420.510639 59.404046 
L 421.306768 58.861437 
L 422.102897 58.357148 
L 422.500961 58.300858 
L 422.899025 58.413697 
L 423.695154 58.972267 
L 424.491283 59.483163 
L 425.08838 59.596591 
L 425.884508 59.459016 
L 427.078702 59.284594 
L 428.073863 59.169723 
L 428.869992 58.829352 
L 430.462249 58.013985 
L 431.059346 58.03782 
L 431.855475 58.367827 
L 433.646764 59.171644 
L 437.428376 60.585633 
L 437.826441 60.488034 
L 438.423537 60.079024 
L 439.418698 59.286613 
L 440.214827 58.993062 
L 441.40902 58.62324 
L 443.20031 57.85132 
L 443.797407 57.919833 
L 444.195471 58.173728 
L 444.9916 59.079036 
L 445.787729 59.912049 
L 446.384825 60.17335 
L 446.981922 60.118675 
L 448.375147 59.735403 
L 448.972244 59.891025 
L 450.166437 60.3312 
L 450.763534 60.268856 
L 451.758695 59.815193 
L 452.554823 59.489066 
L 453.15192 59.433515 
L 453.948049 59.654862 
L 455.540306 60.450899 
L 456.7345 61.240643 
L 457.132564 61.180799 
L 457.530628 60.792518 
L 457.928693 60.0449 
L 459.321918 56.719601 
L 459.52095 56.624053 
L 459.719983 56.692576 
L 460.118047 57.237252 
L 461.113208 59.146234 
L 461.511272 59.442503 
L 461.909337 59.342928 
L 462.307401 58.941132 
L 463.302562 57.688622 
L 463.700627 57.477567 
L 464.098691 57.569388 
L 464.496755 57.754936 
L 464.695788 57.727877 
L 464.89482 57.547944 
L 465.292884 56.71091 
L 466.288045 54.089348 
L 466.487077 53.892336 
L 466.68611 53.879964 
L 466.885142 54.064961 
L 467.283206 55.028314 
L 467.880303 57.636518 
L 468.477399 60.338838 
L 468.875464 61.312758 
L 469.273528 61.597761 
L 470.467721 61.840604 
L 470.865786 61.441062 
L 471.661915 60.330321 
L 472.059979 60.146324 
L 472.856108 60.040457 
L 473.254172 59.713446 
L 474.448365 58.256117 
L 474.647398 58.547687 
L 474.84643 59.276002 
L 475.244494 62.61737 
L 475.642559 69.49117 
L 476.63772 94.493683 
L 477.035784 97.237879 
L 477.234816 97.411692 
L 477.632881 96.935419 
L 478.030945 96.380149 
L 478.229977 96.232291 
L 478.229977 96.232291 
" clip-path="url(#p58d361c861)" style="fill: none; stroke-dasharray: 4.44,1.92; stroke-dashoffset: 0; stroke: #ff7f0e; stroke-width: 1.2"/>
   </g>
   <g id="patch_9">
    <path d="M 371.43925 97.577048 
L 371.43925 23.557744 
" style="fill: none; stroke: #262626; stroke-linejoin: miter; stroke-linecap: square"/>
   </g>
   <g id="patch_10">
    <path d="M 376.524523 102.7155 
L 478.429009 102.7155 
" style="fill: none; stroke: #262626; stroke-linejoin: miter; stroke-linecap: square"/>
   </g>
   <g id="text_28">
    <!-- t=1 -->
    <g style="fill: #262626" transform="translate(420.571 14.0715) scale(0.096 -0.096)">
     <use xlink:href="#ArialMT-74"/>
     <use xlink:href="#ArialMT-3d" x="27.783203"/>
     <use xlink:href="#ArialMT-31" x="86.181641"/>
    </g>
   </g>
  </g>
 </g>
 <defs>
  <clipPath id="p29f812393d">
   <rect x="45.65125" y="20.0715" width="111.876" height="82.644"/>
  </clipPath>
  <clipPath id="p3258071ee9">
   <rect x="208.54525" y="20.0715" width="111.876" height="82.644"/>
  </clipPath>
  <clipPath id="p58d361c861">
   <rect x="371.43925" y="20.0715" width="111.876" height="82.644"/>
  </clipPath>
 </defs>
</svg>