<?xml version="1.0" encoding="utf-8" standalone="no"?>
<!DOCTYPE svg PUBLIC "-//W3C//DTD SVG 1.1//EN"
  "http://www.w3.org/Graphics/SVG/1.1/DTD/svg11.dtd">
<svg xmlns:xlink="http://www.w3.org/1999/xlink" width="397.493125pt" height="325.830937pt" viewBox="0 0 397.493125 325.830937" xmlns="http://www.w3.org/2000/svg" version="1.1">
 <metadata>
  <rdf:RDF xmlns:dc="http://purl.org/dc/elements/1.1/" xmlns:cc="http://creativecommons.org/ns#" xmlns:rdf="http://www.w3.org/1999/02/22-rdf-syntax-ns#">
   <cc:Work>
    <dc:type rdf:resource="http://purl.org/dc/dcmitype/StillImage"/>
    <dc:date>2024-10-23T16:16:53.767855</dc:date>
    <dc:format>image/svg+xml</dc:format>
    <dc:creator>
     <cc:Agent>
      <dc:title>Matplotlib v3.9.2, https://matplotlib.org/</dc:title>
     </cc:Agent>
    </dc:creator>
   </cc:Work>
  </rdf:RDF>
 </metadata>
 <defs>
  <style type="text/css">*{stroke-linejoin: round; stroke-linecap: butt}</style>
 </defs>
 <g id="figure_1">
  <g id="patch_1">
   <path d="M 0 325.830937 
L 397.493125 325.830937 
L 397.493125 0 
L 0 0 
z
" style="fill: #ffffff"/>
  </g>
  <g id="axes_1">
   <g id="patch_2">
    <path d="M 33.173125 289.503562 
L 390.293125 289.503562 
L 390.293125 23.391562 
L 33.173125 23.391562 
z
" style="fill: #ffffff"/>
   </g>
   <g id="matplotlib.axis_1">
    <g id="xtick_1">
     <g id="line2d_1">
      <defs>
       <path id="m94212bbf52" d="M 0 0 
L 0 4.8 
" style="stroke: #262626"/>
      </defs>
      <g>
       <use xlink:href="#m94212bbf52" x="49.405852" y="289.503562" style="fill: #262626; stroke: #262626"/>
      </g>
     </g>
     <g id="text_1">
      <!-- 0.0 -->
      <g style="fill: #262626" transform="translate(43.289852 304.102437) scale(0.088 -0.088)">
       <defs>
        <path id="ArialMT-30" d="M 266 2259 
Q 266 3072 433 3567 
Q 600 4063 929 4331 
Q 1259 4600 1759 4600 
Q 2128 4600 2406 4451 
Q 2684 4303 2865 4023 
Q 3047 3744 3150 3342 
Q 3253 2941 3253 2259 
Q 3253 1453 3087 958 
Q 2922 463 2592 192 
Q 2263 -78 1759 -78 
Q 1097 -78 719 397 
Q 266 969 266 2259 
z
M 844 2259 
Q 844 1131 1108 757 
Q 1372 384 1759 384 
Q 2147 384 2411 759 
Q 2675 1134 2675 2259 
Q 2675 3391 2411 3762 
Q 2147 4134 1753 4134 
Q 1366 4134 1134 3806 
Q 844 3388 844 2259 
z
" transform="scale(0.015625)"/>
        <path id="ArialMT-2e" d="M 581 0 
L 581 641 
L 1222 641 
L 1222 0 
L 581 0 
z
" transform="scale(0.015625)"/>
       </defs>
       <use xlink:href="#ArialMT-30"/>
       <use xlink:href="#ArialMT-2e" x="55.615234"/>
       <use xlink:href="#ArialMT-30" x="83.398438"/>
      </g>
     </g>
    </g>
    <g id="xtick_2">
     <g id="line2d_2">
      <g>
       <use xlink:href="#m94212bbf52" x="114.336761" y="289.503562" style="fill: #262626; stroke: #262626"/>
      </g>
     </g>
     <g id="text_2">
      <!-- 0.2 -->
      <g style="fill: #262626" transform="translate(108.220761 304.102437) scale(0.088 -0.088)">
       <defs>
        <path id="ArialMT-32" d="M 3222 541 
L 3222 0 
L 194 0 
Q 188 203 259 391 
Q 375 700 629 1000 
Q 884 1300 1366 1694 
Q 2113 2306 2375 2664 
Q 2638 3022 2638 3341 
Q 2638 3675 2398 3904 
Q 2159 4134 1775 4134 
Q 1369 4134 1125 3890 
Q 881 3647 878 3216 
L 300 3275 
Q 359 3922 746 4261 
Q 1134 4600 1788 4600 
Q 2447 4600 2831 4234 
Q 3216 3869 3216 3328 
Q 3216 3053 3103 2787 
Q 2991 2522 2730 2228 
Q 2469 1934 1863 1422 
Q 1356 997 1212 845 
Q 1069 694 975 541 
L 3222 541 
z
" transform="scale(0.015625)"/>
       </defs>
       <use xlink:href="#ArialMT-30"/>
       <use xlink:href="#ArialMT-2e" x="55.615234"/>
       <use xlink:href="#ArialMT-32" x="83.398438"/>
      </g>
     </g>
    </g>
    <g id="xtick_3">
     <g id="line2d_3">
      <g>
       <use xlink:href="#m94212bbf52" x="179.26767" y="289.503562" style="fill: #262626; stroke: #262626"/>
      </g>
     </g>
     <g id="text_3">
      <!-- 0.4 -->
      <g style="fill: #262626" transform="translate(173.15167 304.102437) scale(0.088 -0.088)">
       <defs>
        <path id="ArialMT-34" d="M 2069 0 
L 2069 1097 
L 81 1097 
L 81 1613 
L 2172 4581 
L 2631 4581 
L 2631 1613 
L 3250 1613 
L 3250 1097 
L 2631 1097 
L 2631 0 
L 2069 0 
z
M 2069 1613 
L 2069 3678 
L 634 1613 
L 2069 1613 
z
" transform="scale(0.015625)"/>
       </defs>
       <use xlink:href="#ArialMT-30"/>
       <use xlink:href="#ArialMT-2e" x="55.615234"/>
       <use xlink:href="#ArialMT-34" x="83.398438"/>
      </g>
     </g>
    </g>
    <g id="xtick_4">
     <g id="line2d_4">
      <g>
       <use xlink:href="#m94212bbf52" x="244.19858" y="289.503562" style="fill: #262626; stroke: #262626"/>
      </g>
     </g>
     <g id="text_4">
      <!-- 0.6 -->
      <g style="fill: #262626" transform="translate(238.08258 304.102437) scale(0.088 -0.088)">
       <defs>
        <path id="ArialMT-36" d="M 3184 3459 
L 2625 3416 
Q 2550 3747 2413 3897 
Q 2184 4138 1850 4138 
Q 1581 4138 1378 3988 
Q 1113 3794 959 3422 
Q 806 3050 800 2363 
Q 1003 2672 1297 2822 
Q 1591 2972 1913 2972 
Q 2475 2972 2870 2558 
Q 3266 2144 3266 1488 
Q 3266 1056 3080 686 
Q 2894 316 2569 119 
Q 2244 -78 1831 -78 
Q 1128 -78 684 439 
Q 241 956 241 2144 
Q 241 3472 731 4075 
Q 1159 4600 1884 4600 
Q 2425 4600 2770 4297 
Q 3116 3994 3184 3459 
z
M 888 1484 
Q 888 1194 1011 928 
Q 1134 663 1356 523 
Q 1578 384 1822 384 
Q 2178 384 2434 671 
Q 2691 959 2691 1453 
Q 2691 1928 2437 2201 
Q 2184 2475 1800 2475 
Q 1419 2475 1153 2201 
Q 888 1928 888 1484 
z
" transform="scale(0.015625)"/>
       </defs>
       <use xlink:href="#ArialMT-30"/>
       <use xlink:href="#ArialMT-2e" x="55.615234"/>
       <use xlink:href="#ArialMT-36" x="83.398438"/>
      </g>
     </g>
    </g>
    <g id="xtick_5">
     <g id="line2d_5">
      <g>
       <use xlink:href="#m94212bbf52" x="309.129489" y="289.503562" style="fill: #262626; stroke: #262626"/>
      </g>
     </g>
     <g id="text_5">
      <!-- 0.8 -->
      <g style="fill: #262626" transform="translate(303.013489 304.102437) scale(0.088 -0.088)">
       <defs>
        <path id="ArialMT-38" d="M 1131 2484 
Q 781 2613 612 2850 
Q 444 3088 444 3419 
Q 444 3919 803 4259 
Q 1163 4600 1759 4600 
Q 2359 4600 2725 4251 
Q 3091 3903 3091 3403 
Q 3091 3084 2923 2848 
Q 2756 2613 2416 2484 
Q 2838 2347 3058 2040 
Q 3278 1734 3278 1309 
Q 3278 722 2862 322 
Q 2447 -78 1769 -78 
Q 1091 -78 675 323 
Q 259 725 259 1325 
Q 259 1772 486 2073 
Q 713 2375 1131 2484 
z
M 1019 3438 
Q 1019 3113 1228 2906 
Q 1438 2700 1772 2700 
Q 2097 2700 2305 2904 
Q 2513 3109 2513 3406 
Q 2513 3716 2298 3927 
Q 2084 4138 1766 4138 
Q 1444 4138 1231 3931 
Q 1019 3725 1019 3438 
z
M 838 1322 
Q 838 1081 952 856 
Q 1066 631 1291 507 
Q 1516 384 1775 384 
Q 2178 384 2440 643 
Q 2703 903 2703 1303 
Q 2703 1709 2433 1975 
Q 2163 2241 1756 2241 
Q 1359 2241 1098 1978 
Q 838 1716 838 1322 
z
" transform="scale(0.015625)"/>
       </defs>
       <use xlink:href="#ArialMT-30"/>
       <use xlink:href="#ArialMT-2e" x="55.615234"/>
       <use xlink:href="#ArialMT-38" x="83.398438"/>
      </g>
     </g>
    </g>
    <g id="xtick_6">
     <g id="line2d_6">
      <g>
       <use xlink:href="#m94212bbf52" x="374.060398" y="289.503562" style="fill: #262626; stroke: #262626"/>
      </g>
     </g>
     <g id="text_6">
      <!-- 1.0 -->
      <g style="fill: #262626" transform="translate(367.944398 304.102437) scale(0.088 -0.088)">
       <defs>
        <path id="ArialMT-31" d="M 2384 0 
L 1822 0 
L 1822 3584 
Q 1619 3391 1289 3197 
Q 959 3003 697 2906 
L 697 3450 
Q 1169 3672 1522 3987 
Q 1875 4303 2022 4600 
L 2384 4600 
L 2384 0 
z
" transform="scale(0.015625)"/>
       </defs>
       <use xlink:href="#ArialMT-31"/>
       <use xlink:href="#ArialMT-2e" x="55.615234"/>
       <use xlink:href="#ArialMT-30" x="83.398438"/>
      </g>
     </g>
    </g>
    <g id="text_7">
     <!-- $x$ -->
     <g style="fill: #262626" transform="translate(208.853125 316.722937) scale(0.096 -0.096)">
      <defs>
       <path id="DejaVuSans-Oblique-78" d="M 3841 3500 
L 2234 1784 
L 3219 0 
L 2559 0 
L 1819 1388 
L 531 0 
L -166 0 
L 1556 1844 
L 641 3500 
L 1300 3500 
L 1972 2234 
L 3144 3500 
L 3841 3500 
z
" transform="scale(0.015625)"/>
      </defs>
      <use xlink:href="#DejaVuSans-Oblique-78" transform="translate(0 0.3125)"/>
     </g>
    </g>
   </g>
   <g id="matplotlib.axis_2">
    <g id="ytick_1">
     <g id="line2d_7">
      <defs>
       <path id="mf91030de38" d="M 0 0 
L -4.8 0 
" style="stroke: #262626"/>
      </defs>
      <g>
       <use xlink:href="#mf91030de38" x="33.173125" y="289.503562" style="fill: #262626; stroke: #262626"/>
      </g>
     </g>
     <g id="text_8">
      <!-- 0 -->
      <g style="fill: #262626" transform="translate(19.9795 292.653) scale(0.088 -0.088)">
       <use xlink:href="#ArialMT-30"/>
      </g>
     </g>
    </g>
    <g id="ytick_2">
     <g id="line2d_8">
      <g>
       <use xlink:href="#mf91030de38" x="33.173125" y="239.410569" style="fill: #262626; stroke: #262626"/>
      </g>
     </g>
     <g id="text_9">
      <!-- 1 -->
      <g style="fill: #262626" transform="translate(19.9795 242.560007) scale(0.088 -0.088)">
       <use xlink:href="#ArialMT-31"/>
      </g>
     </g>
    </g>
    <g id="ytick_3">
     <g id="line2d_9">
      <g>
       <use xlink:href="#mf91030de38" x="33.173125" y="189.317576" style="fill: #262626; stroke: #262626"/>
      </g>
     </g>
     <g id="text_10">
      <!-- 2 -->
      <g style="fill: #262626" transform="translate(19.9795 192.467014) scale(0.088 -0.088)">
       <use xlink:href="#ArialMT-32"/>
      </g>
     </g>
    </g>
    <g id="ytick_4">
     <g id="line2d_10">
      <g>
       <use xlink:href="#mf91030de38" x="33.173125" y="139.224583" style="fill: #262626; stroke: #262626"/>
      </g>
     </g>
     <g id="text_11">
      <!-- 3 -->
      <g style="fill: #262626" transform="translate(19.9795 142.37402) scale(0.088 -0.088)">
       <defs>
        <path id="ArialMT-33" d="M 269 1209 
L 831 1284 
Q 928 806 1161 595 
Q 1394 384 1728 384 
Q 2125 384 2398 659 
Q 2672 934 2672 1341 
Q 2672 1728 2419 1979 
Q 2166 2231 1775 2231 
Q 1616 2231 1378 2169 
L 1441 2663 
Q 1497 2656 1531 2656 
Q 1891 2656 2178 2843 
Q 2466 3031 2466 3422 
Q 2466 3731 2256 3934 
Q 2047 4138 1716 4138 
Q 1388 4138 1169 3931 
Q 950 3725 888 3313 
L 325 3413 
Q 428 3978 793 4289 
Q 1159 4600 1703 4600 
Q 2078 4600 2393 4439 
Q 2709 4278 2876 4000 
Q 3044 3722 3044 3409 
Q 3044 3113 2884 2869 
Q 2725 2625 2413 2481 
Q 2819 2388 3044 2092 
Q 3269 1797 3269 1353 
Q 3269 753 2831 336 
Q 2394 -81 1725 -81 
Q 1122 -81 723 278 
Q 325 638 269 1209 
z
" transform="scale(0.015625)"/>
       </defs>
       <use xlink:href="#ArialMT-33"/>
      </g>
     </g>
    </g>
    <g id="ytick_5">
     <g id="line2d_11">
      <g>
       <use xlink:href="#mf91030de38" x="33.173125" y="89.13159" style="fill: #262626; stroke: #262626"/>
      </g>
     </g>
     <g id="text_12">
      <!-- 4 -->
      <g style="fill: #262626" transform="translate(19.9795 92.281027) scale(0.088 -0.088)">
       <use xlink:href="#ArialMT-34"/>
      </g>
     </g>
    </g>
    <g id="ytick_6">
     <g id="line2d_12">
      <g>
       <use xlink:href="#mf91030de38" x="33.173125" y="39.038596" style="fill: #262626; stroke: #262626"/>
      </g>
     </g>
     <g id="text_13">
      <!-- 5 -->
      <g style="fill: #262626" transform="translate(19.9795 42.188034) scale(0.088 -0.088)">
       <defs>
        <path id="ArialMT-35" d="M 266 1200 
L 856 1250 
Q 922 819 1161 601 
Q 1400 384 1738 384 
Q 2144 384 2425 690 
Q 2706 997 2706 1503 
Q 2706 1984 2436 2262 
Q 2166 2541 1728 2541 
Q 1456 2541 1237 2417 
Q 1019 2294 894 2097 
L 366 2166 
L 809 4519 
L 3088 4519 
L 3088 3981 
L 1259 3981 
L 1013 2750 
Q 1425 3038 1878 3038 
Q 2478 3038 2890 2622 
Q 3303 2206 3303 1553 
Q 3303 931 2941 478 
Q 2500 -78 1738 -78 
Q 1113 -78 717 272 
Q 322 622 266 1200 
z
" transform="scale(0.015625)"/>
       </defs>
       <use xlink:href="#ArialMT-35"/>
      </g>
     </g>
    </g>
    <g id="text_14">
     <!-- $c$ -->
     <g style="fill: #262626" transform="translate(14.0715 159.087562) rotate(-90) scale(0.096 -0.096)">
      <defs>
       <path id="DejaVuSans-Oblique-63" d="M 3431 3366 
L 3316 2797 
Q 3109 2947 2876 3022 
Q 2644 3097 2394 3097 
Q 2119 3097 1870 3000 
Q 1622 2903 1453 2725 
Q 1184 2453 1037 2087 
Q 891 1722 891 1331 
Q 891 859 1127 628 
Q 1363 397 1844 397 
Q 2081 397 2348 469 
Q 2616 541 2906 684 
L 2797 116 
Q 2547 13 2283 -39 
Q 2019 -91 1741 -91 
Q 1044 -91 669 257 
Q 294 606 294 1253 
Q 294 1797 489 2255 
Q 684 2713 1069 3078 
Q 1331 3328 1684 3456 
Q 2038 3584 2456 3584 
Q 2700 3584 2940 3529 
Q 3181 3475 3431 3366 
z
" transform="scale(0.015625)"/>
      </defs>
      <use xlink:href="#DejaVuSans-Oblique-63"/>
     </g>
    </g>
   </g>
   <g id="line2d_13">
    <path d="M 49.405852 240.463511 
L 53.749057 239.487296 
L 58.092262 238.221182 
L 61.349665 237.070392 
L 65.69287 235.260035 
L 70.036074 233.1356 
L 74.379279 230.712099 
L 78.722483 228.021613 
L 84.151489 224.363045 
L 100.438507 213.019662 
L 104.781711 210.415465 
L 108.039115 208.712938 
L 111.296518 207.269033 
L 114.553922 206.114859 
L 117.811325 205.27224 
L 121.068729 204.752892 
L 124.326132 204.558312 
L 127.583535 204.680377 
L 130.840939 205.102551 
L 134.098342 205.801566 
L 137.355746 206.749382 
L 140.613149 207.91522 
L 144.956354 209.754348 
L 149.299559 211.853349 
L 154.728564 214.746769 
L 161.243371 218.48764 
L 169.929781 223.752267 
L 181.873593 231.269767 
L 197.074809 240.845035 
L 203.589616 244.702263 
L 209.018622 247.671586 
L 213.361827 249.829701 
L 217.705031 251.752544 
L 222.048236 253.404543 
L 225.305639 254.446476 
L 228.563043 255.305866 
L 231.820446 255.971402 
L 235.07785 256.432329 
L 238.335253 256.678102 
L 241.592657 256.698047 
L 244.85006 256.481081 
L 248.107464 256.015542 
L 251.364867 255.289204 
L 254.622271 254.289518 
L 257.879674 253.004158 
L 261.137078 251.421927 
L 264.394481 249.534071 
L 267.651885 247.336043 
L 270.909288 244.829672 
L 274.166691 242.025694 
L 277.424095 238.946444 
L 281.7673 234.47802 
L 287.196305 228.504927 
L 294.796913 220.128281 
L 298.054317 216.830932 
L 301.31172 213.877777 
L 303.483323 212.155689 
L 305.654925 210.665909 
L 307.826527 209.433894 
L 309.99813 208.479977 
L 312.169732 207.818565 
L 314.341334 207.457574 
L 316.512936 207.398152 
L 318.684539 207.634706 
L 320.856141 208.155218 
L 323.027743 208.941834 
L 325.199346 209.971683 
L 327.370948 211.217854 
L 330.628352 213.426843 
L 333.885755 215.947498 
L 338.22896 219.605873 
L 348.00117 227.975284 
L 352.344375 231.356734 
L 355.601778 233.656537 
L 358.859182 235.725093 
L 362.116585 237.548999 
L 365.373988 239.124151 
L 368.631392 240.453795 
L 371.888795 241.546799 
L 374.060398 242.150313 
L 374.060398 242.150313 
" clip-path="url(#pbea65435a2)" style="fill: none; stroke: #1f77b4; stroke-opacity: 0.8; stroke-width: 1.2; stroke-linecap: round"/>
   </g>
   <g id="line2d_14">
    <path d="M 49.405852 244.476275 
L 52.663256 243.879184 
L 55.920659 243.0133 
L 59.178063 241.834509 
L 61.349665 240.850661 
L 63.521267 239.689787 
L 65.69287 238.334416 
L 67.864472 236.765617 
L 70.036074 234.962905 
L 72.207677 232.904166 
L 74.379279 230.565637 
L 76.550881 227.92193 
L 78.722483 224.94615 
L 80.894086 221.61011 
L 83.065688 217.884689 
L 85.23729 213.740341 
L 87.408893 209.147811 
L 89.580495 204.079077 
L 91.752097 198.508546 
L 93.9237 192.414524 
L 96.095302 185.780975 
L 98.266904 178.599542 
L 100.438507 170.871809 
L 103.69591 158.29038 
L 106.953314 144.626723 
L 111.296518 125.093064 
L 121.068729 80.033799 
L 124.326132 66.555709 
L 126.497734 58.529561 
L 128.669337 51.480914 
L 130.840939 45.572981 
L 131.92674 43.09146 
L 133.012541 40.94508 
L 134.098342 39.146325 
L 135.184144 37.705346 
L 136.269945 36.629816 
L 137.355746 35.924825 
L 138.441547 35.592799 
L 139.527348 35.633469 
L 140.613149 36.043873 
L 141.69895 36.81839 
L 142.784752 37.948828 
L 143.870553 39.424528 
L 144.956354 41.232518 
L 146.042155 43.357685 
L 147.127956 45.782978 
L 149.299559 51.457416 
L 151.471161 58.08956 
L 153.642763 65.497743 
L 156.900167 77.651883 
L 168.843979 124.02764 
L 172.101383 135.159405 
L 174.272985 141.923401 
L 176.444587 148.106309 
L 178.61619 153.677072 
L 180.787792 158.616454 
L 182.959394 162.914575 
L 185.130997 166.568621 
L 187.302599 169.580819 
L 189.474201 171.956742 
L 190.560002 172.90842 
L 191.645804 173.703972 
L 192.731605 174.344503 
L 193.817406 174.831148 
L 194.903207 175.165059 
L 195.989008 175.347407 
L 197.074809 175.379383 
L 198.160611 175.26221 
L 199.246412 174.997157 
L 200.332213 174.585564 
L 201.418014 174.028869 
L 202.503815 173.328643 
L 204.675417 171.504792 
L 206.84702 169.130925 
L 209.018622 166.229276 
L 211.190224 162.829484 
L 213.361827 158.970924 
L 215.533429 154.705173 
L 218.790833 147.692494 
L 224.219838 135.156682 
L 227.477242 127.816726 
L 229.648844 123.320473 
L 231.820446 119.344656 
L 233.992049 116.068726 
L 235.07785 114.748479 
L 236.163651 113.668208 
L 237.249452 112.847663 
L 238.335253 112.305111 
L 239.421054 112.057014 
L 240.506856 112.117715 
L 241.592657 112.49915 
L 242.678458 113.210586 
L 243.764259 114.258395 
L 244.85006 115.64587 
L 245.935861 117.373096 
L 247.021663 119.436865 
L 248.107464 121.830666 
L 249.193265 124.544726 
L 251.364867 130.878897 
L 253.536469 138.301403 
L 255.708072 146.634714 
L 258.965475 160.386143 
L 269.823487 208.250515 
L 273.08089 220.896117 
L 275.252493 228.538607 
L 277.424095 235.50168 
L 279.595697 241.774375 
L 281.7673 247.368007 
L 283.938902 252.310958 
L 286.110504 256.643665 
L 288.282106 260.414129 
L 290.453709 263.674134 
L 292.625311 266.47624 
L 294.796913 268.871533 
L 296.968516 270.908067 
L 299.140118 272.62987 
L 301.31172 274.076423 
L 303.483323 275.282467 
L 305.654925 276.278068 
L 307.826527 277.088832 
L 311.083931 278.0043 
L 314.341334 278.608081 
L 317.598738 278.940526 
L 320.856141 279.028085 
L 324.113545 278.885568 
L 327.370948 278.518133 
L 330.628352 277.923122 
L 333.885755 277.091914 
L 337.143158 276.01198 
L 340.400562 274.669304 
L 343.657965 273.051278 
L 346.915369 271.150055 
L 350.172772 268.966179 
L 353.430176 266.512127 
L 356.687579 263.815216 
L 361.030784 259.919636 
L 374.060398 247.770814 
L 374.060398 247.770814 
" clip-path="url(#pbea65435a2)" style="fill: none; stroke: #ff7f0e; stroke-opacity: 0.8; stroke-width: 1.2; stroke-linecap: round"/>
   </g>
   <g id="line2d_15">
    <path d="M 49.405852 238.418888 
L 52.663256 236.7268 
L 55.920659 234.667621 
L 58.092262 233.073803 
L 60.263864 231.291918 
L 62.435466 229.313315 
L 64.607068 227.130652 
L 67.864472 223.462594 
L 71.121875 219.315722 
L 74.379279 214.699792 
L 77.636682 209.648246 
L 80.894086 204.224659 
L 86.323092 194.647682 
L 91.752097 185.045058 
L 95.009501 179.682938 
L 97.181103 176.430359 
L 99.352705 173.527849 
L 101.524308 171.05364 
L 103.69591 169.08163 
L 104.781711 168.305025 
L 105.867512 167.677995 
L 106.953314 167.207056 
L 108.039115 166.897837 
L 109.124916 166.754995 
L 110.210717 166.782145 
L 111.296518 166.981793 
L 112.382319 167.355294 
L 113.46812 167.902817 
L 114.553922 168.623325 
L 115.639723 169.514579 
L 116.725524 170.573151 
L 118.897126 173.172809 
L 121.068729 176.372747 
L 123.240331 180.108061 
L 125.411933 184.301515 
L 128.669337 191.261126 
L 133.012541 201.310627 
L 140.613149 219.09109 
L 143.870553 226.180666 
L 147.127956 232.721675 
L 150.38536 238.626248 
L 152.556962 242.186716 
L 154.728564 245.441863 
L 156.900167 248.394434 
L 159.071769 251.051645 
L 161.243371 253.423933 
L 163.414974 255.52385 
L 165.586576 257.365109 
L 167.758178 258.961792 
L 169.929781 260.327705 
L 172.101383 261.475886 
L 174.272985 262.418225 
L 176.444587 263.165197 
L 178.61619 263.725683 
L 180.787792 264.106853 
L 182.959394 264.314122 
L 185.130997 264.351143 
L 187.302599 264.219846 
L 189.474201 263.920517 
L 191.645804 263.451914 
L 193.817406 262.811429 
L 195.989008 261.995297 
L 198.160611 260.998865 
L 200.332213 259.81693 
L 202.503815 258.444144 
L 204.675417 256.875521 
L 206.84702 255.107019 
L 209.018622 253.13622 
L 212.276026 249.801499 
L 215.533429 246.026625 
L 218.790833 241.848657 
L 222.048236 237.333352 
L 227.477242 229.342347 
L 232.906248 221.368067 
L 236.163651 216.947041 
L 238.335253 214.275194 
L 240.506856 211.891432 
L 242.678458 209.848744 
L 244.85006 208.192946 
L 247.021663 206.960484 
L 249.193265 206.176668 
L 250.279066 205.957556 
L 251.364867 205.854465 
L 252.450668 205.867 
L 253.536469 205.993966 
L 255.708072 206.582555 
L 257.879674 207.595747 
L 260.051276 208.998628 
L 262.222879 210.747761 
L 264.394481 212.793384 
L 267.651885 216.299653 
L 270.909288 220.165472 
L 282.853101 234.740765 
L 286.110504 238.276469 
L 289.367908 241.477138 
L 292.625311 244.306738 
L 295.882715 246.747673 
L 299.140118 248.796015 
L 301.31172 249.945892 
L 303.483323 250.926775 
L 305.654925 251.742621 
L 307.826527 252.397864 
L 309.99813 252.897202 
L 313.255533 253.364407 
L 316.512936 253.507928 
L 319.77034 253.344057 
L 323.027743 252.889436 
L 326.285147 252.161789 
L 329.54255 251.180913 
L 332.799954 249.96978 
L 336.057357 248.555593 
L 340.400562 246.41073 
L 345.829568 243.444913 
L 356.687579 237.402204 
L 361.030784 235.274279 
L 364.288187 233.88598 
L 367.545591 232.712164 
L 370.802994 231.77438 
L 374.060398 231.082766 
L 374.060398 231.082766 
" clip-path="url(#pbea65435a2)" style="fill: none; stroke: #2ca02c; stroke-opacity: 0.8; stroke-width: 1.2; stroke-linecap: round"/>
   </g>
   <g id="line2d_16">
    <path d="M 49.405852 262.505691 
L 54.834858 265.31037 
L 59.178063 267.362044 
L 63.521267 269.196447 
L 67.864472 270.782272 
L 72.207677 272.097932 
L 76.550881 273.128874 
L 80.894086 273.86395 
L 84.151489 274.214095 
L 87.408893 274.384535 
L 90.666296 274.365895 
L 93.9237 274.145054 
L 97.181103 273.704062 
L 100.438507 273.019053 
L 103.69591 272.059185 
L 106.953314 270.785668 
L 109.124916 269.739339 
L 111.296518 268.516419 
L 113.46812 267.098882 
L 115.639723 265.467096 
L 117.811325 263.600083 
L 119.982927 261.475941 
L 122.15453 259.072463 
L 124.326132 256.368002 
L 126.497734 253.3426 
L 128.669337 249.979414 
L 130.840939 246.266441 
L 133.012541 242.198518 
L 135.184144 237.779541 
L 138.441547 230.529938 
L 141.69895 222.63933 
L 147.127956 208.631929 
L 151.471161 197.506238 
L 154.728564 189.848403 
L 156.900167 185.324693 
L 159.071769 181.422323 
L 161.243371 178.263053 
L 162.329172 176.995196 
L 163.414974 175.94992 
L 164.500775 175.136106 
L 165.586576 174.560724 
L 166.672377 174.228711 
L 167.758178 174.142882 
L 168.843979 174.303885 
L 169.929781 174.710185 
L 171.015582 175.358093 
L 172.101383 176.241824 
L 173.187184 177.353597 
L 174.272985 178.683767 
L 175.358786 180.220983 
L 177.530389 183.863746 
L 179.701991 188.164458 
L 181.873593 192.9919 
L 185.130997 200.919721 
L 195.989008 228.240113 
L 199.246412 235.498482 
L 201.418014 239.926876 
L 203.589616 244.002695 
L 205.761219 247.719024 
L 207.932821 251.078596 
L 210.104423 254.091482 
L 212.276026 256.772987 
L 214.447628 259.14181 
L 216.61923 261.21852 
L 218.790833 263.02433 
L 220.962435 264.580159 
L 223.134037 265.905955 
L 225.305639 267.020222 
L 227.477242 267.939735 
L 229.648844 268.679384 
L 231.820446 269.252132 
L 235.07785 269.822069 
L 238.335253 270.071053 
L 241.592657 270.021439 
L 244.85006 269.689588 
L 248.107464 269.087997 
L 251.364867 268.227854 
L 254.622271 267.122043 
L 257.879674 265.788535 
L 262.222879 263.704144 
L 267.651885 260.7526 
L 275.252493 256.546581 
L 278.509896 254.973244 
L 281.7673 253.686997 
L 283.938902 253.037885 
L 286.110504 252.585134 
L 288.282106 252.348686 
L 290.453709 252.342253 
L 292.625311 252.572403 
L 294.796913 253.038066 
L 296.968516 253.730503 
L 299.140118 254.633763 
L 301.31172 255.725576 
L 304.569124 257.656026 
L 308.912328 260.609417 
L 320.856141 269.053054 
L 324.113545 271.06501 
L 327.370948 272.865723 
L 330.628352 274.43951 
L 333.885755 275.783589 
L 337.143158 276.904033 
L 340.400562 277.812116 
L 343.657965 278.521325 
L 346.915369 279.04512 
L 351.258573 279.475276 
L 355.601778 279.617525 
L 359.944983 279.482971 
L 364.288187 279.072849 
L 368.631392 278.379878 
L 371.888795 277.666735 
L 374.060398 277.095615 
L 374.060398 277.095615 
" clip-path="url(#pbea65435a2)" style="fill: none; stroke: #d62728; stroke-opacity: 0.8; stroke-width: 1.2; stroke-linecap: round"/>
   </g>
   <g id="line2d_17">
    <path d="M 49.405852 270.046229 
L 53.749057 271.377548 
L 58.092262 272.414238 
L 61.349665 272.993905 
L 64.607068 273.401096 
L 67.864472 273.632571 
L 71.121875 273.683586 
L 74.379279 273.54713 
L 77.636682 273.213284 
L 80.894086 272.668692 
L 84.151489 271.89619 
L 87.408893 270.87462 
L 90.666296 269.578903 
L 93.9237 267.980462 
L 97.181103 266.048102 
L 100.438507 263.749499 
L 103.69591 261.053414 
L 106.953314 257.932743 
L 110.210717 254.368425 
L 113.46812 250.354125 
L 116.725524 245.901421 
L 119.982927 241.045032 
L 124.326132 234.054211 
L 131.92674 221.126444 
L 136.269945 213.962125 
L 139.527348 209.025981 
L 141.69895 206.048939 
L 143.870553 203.385163 
L 146.042155 201.082771 
L 148.213757 199.18315 
L 150.38536 197.719332 
L 152.556962 196.714719 
L 153.642763 196.389072 
L 154.728564 196.182221 
L 155.814365 196.094075 
L 156.900167 196.123869 
L 157.985968 196.270172 
L 160.15757 196.903413 
L 162.329172 197.970098 
L 164.500775 199.437955 
L 166.672377 201.267622 
L 168.843979 203.41433 
L 171.015582 205.829675 
L 174.272985 209.846294 
L 178.61619 215.674951 
L 188.3884 229.065925 
L 192.731605 234.533792 
L 195.989008 238.291237 
L 199.246412 241.712944 
L 202.503815 244.780105 
L 205.761219 247.486996 
L 209.018622 249.837483 
L 212.276026 251.841949 
L 215.533429 253.514743 
L 218.790833 254.872193 
L 222.048236 255.931145 
L 225.305639 256.707984 
L 228.563043 257.21807 
L 231.820446 257.475511 
L 235.07785 257.493229 
L 238.335253 257.283263 
L 241.592657 256.857261 
L 244.85006 256.227133 
L 248.107464 255.405811 
L 252.450668 254.039236 
L 256.793873 252.402243 
L 262.222879 250.060098 
L 270.909288 245.967834 
L 277.424095 243.002138 
L 281.7673 241.265685 
L 285.024703 240.160024 
L 288.282106 239.262979 
L 291.53951 238.602913 
L 294.796913 238.199152 
L 298.054317 238.060749 
L 301.31172 238.185958 
L 304.569124 238.562494 
L 307.826527 239.168523 
L 311.083931 239.974281 
L 315.427135 241.297103 
L 320.856141 243.217257 
L 334.971556 248.373034 
L 340.400562 250.022261 
L 344.743767 251.106275 
L 349.086971 251.952561 
L 353.430176 252.54746 
L 357.77338 252.88728 
L 362.116585 252.9767 
L 366.45979 252.827533 
L 370.802994 252.457832 
L 374.060398 252.049843 
L 374.060398 252.049843 
" clip-path="url(#pbea65435a2)" style="fill: none; stroke: #9467bd; stroke-opacity: 0.8; stroke-width: 1.2; stroke-linecap: round"/>
   </g>
   <g id="patch_3">
    <path d="M 33.173125 289.503562 
L 33.173125 39.038596 
" style="fill: none; stroke: #262626; stroke-linejoin: miter; stroke-linecap: square"/>
   </g>
   <g id="patch_4">
    <path d="M 49.405852 289.503562 
L 374.060398 289.503562 
" style="fill: none; stroke: #262626; stroke-linejoin: miter; stroke-linecap: square"/>
   </g>
   <g id="text_15">
    <!-- Samples of the thermal conductivity field -->
    <g style="fill: #262626" transform="translate(86.458281 17.391562) scale(0.14 -0.14)">
     <defs>
      <path id="ArialMT-53" d="M 288 1472 
L 859 1522 
Q 900 1178 1048 958 
Q 1197 738 1509 602 
Q 1822 466 2213 466 
Q 2559 466 2825 569 
Q 3091 672 3220 851 
Q 3350 1031 3350 1244 
Q 3350 1459 3225 1620 
Q 3100 1781 2813 1891 
Q 2628 1963 1997 2114 
Q 1366 2266 1113 2400 
Q 784 2572 623 2826 
Q 463 3081 463 3397 
Q 463 3744 659 4045 
Q 856 4347 1234 4503 
Q 1613 4659 2075 4659 
Q 2584 4659 2973 4495 
Q 3363 4331 3572 4012 
Q 3781 3694 3797 3291 
L 3216 3247 
Q 3169 3681 2898 3903 
Q 2628 4125 2100 4125 
Q 1550 4125 1298 3923 
Q 1047 3722 1047 3438 
Q 1047 3191 1225 3031 
Q 1400 2872 2139 2705 
Q 2878 2538 3153 2413 
Q 3553 2228 3743 1945 
Q 3934 1663 3934 1294 
Q 3934 928 3725 604 
Q 3516 281 3123 101 
Q 2731 -78 2241 -78 
Q 1619 -78 1198 103 
Q 778 284 539 648 
Q 300 1013 288 1472 
z
" transform="scale(0.015625)"/>
      <path id="ArialMT-61" d="M 2588 409 
Q 2275 144 1986 34 
Q 1697 -75 1366 -75 
Q 819 -75 525 192 
Q 231 459 231 875 
Q 231 1119 342 1320 
Q 453 1522 633 1644 
Q 813 1766 1038 1828 
Q 1203 1872 1538 1913 
Q 2219 1994 2541 2106 
Q 2544 2222 2544 2253 
Q 2544 2597 2384 2738 
Q 2169 2928 1744 2928 
Q 1347 2928 1158 2789 
Q 969 2650 878 2297 
L 328 2372 
Q 403 2725 575 2942 
Q 747 3159 1072 3276 
Q 1397 3394 1825 3394 
Q 2250 3394 2515 3294 
Q 2781 3194 2906 3042 
Q 3031 2891 3081 2659 
Q 3109 2516 3109 2141 
L 3109 1391 
Q 3109 606 3145 398 
Q 3181 191 3288 0 
L 2700 0 
Q 2613 175 2588 409 
z
M 2541 1666 
Q 2234 1541 1622 1453 
Q 1275 1403 1131 1340 
Q 988 1278 909 1158 
Q 831 1038 831 891 
Q 831 666 1001 516 
Q 1172 366 1500 366 
Q 1825 366 2078 508 
Q 2331 650 2450 897 
Q 2541 1088 2541 1459 
L 2541 1666 
z
" transform="scale(0.015625)"/>
      <path id="ArialMT-6d" d="M 422 0 
L 422 3319 
L 925 3319 
L 925 2853 
Q 1081 3097 1340 3245 
Q 1600 3394 1931 3394 
Q 2300 3394 2536 3241 
Q 2772 3088 2869 2813 
Q 3263 3394 3894 3394 
Q 4388 3394 4653 3120 
Q 4919 2847 4919 2278 
L 4919 0 
L 4359 0 
L 4359 2091 
Q 4359 2428 4304 2576 
Q 4250 2725 4106 2815 
Q 3963 2906 3769 2906 
Q 3419 2906 3187 2673 
Q 2956 2441 2956 1928 
L 2956 0 
L 2394 0 
L 2394 2156 
Q 2394 2531 2256 2718 
Q 2119 2906 1806 2906 
Q 1569 2906 1367 2781 
Q 1166 2656 1075 2415 
Q 984 2175 984 1722 
L 984 0 
L 422 0 
z
" transform="scale(0.015625)"/>
      <path id="ArialMT-70" d="M 422 -1272 
L 422 3319 
L 934 3319 
L 934 2888 
Q 1116 3141 1344 3267 
Q 1572 3394 1897 3394 
Q 2322 3394 2647 3175 
Q 2972 2956 3137 2557 
Q 3303 2159 3303 1684 
Q 3303 1175 3120 767 
Q 2938 359 2589 142 
Q 2241 -75 1856 -75 
Q 1575 -75 1351 44 
Q 1128 163 984 344 
L 984 -1272 
L 422 -1272 
z
M 931 1641 
Q 931 1000 1190 694 
Q 1450 388 1819 388 
Q 2194 388 2461 705 
Q 2728 1022 2728 1688 
Q 2728 2322 2467 2637 
Q 2206 2953 1844 2953 
Q 1484 2953 1207 2617 
Q 931 2281 931 1641 
z
" transform="scale(0.015625)"/>
      <path id="ArialMT-6c" d="M 409 0 
L 409 4581 
L 972 4581 
L 972 0 
L 409 0 
z
" transform="scale(0.015625)"/>
      <path id="ArialMT-65" d="M 2694 1069 
L 3275 997 
Q 3138 488 2766 206 
Q 2394 -75 1816 -75 
Q 1088 -75 661 373 
Q 234 822 234 1631 
Q 234 2469 665 2931 
Q 1097 3394 1784 3394 
Q 2450 3394 2872 2941 
Q 3294 2488 3294 1666 
Q 3294 1616 3291 1516 
L 816 1516 
Q 847 969 1125 678 
Q 1403 388 1819 388 
Q 2128 388 2347 550 
Q 2566 713 2694 1069 
z
M 847 1978 
L 2700 1978 
Q 2663 2397 2488 2606 
Q 2219 2931 1791 2931 
Q 1403 2931 1139 2672 
Q 875 2413 847 1978 
z
" transform="scale(0.015625)"/>
      <path id="ArialMT-73" d="M 197 991 
L 753 1078 
Q 800 744 1014 566 
Q 1228 388 1613 388 
Q 2000 388 2187 545 
Q 2375 703 2375 916 
Q 2375 1106 2209 1216 
Q 2094 1291 1634 1406 
Q 1016 1563 777 1677 
Q 538 1791 414 1992 
Q 291 2194 291 2438 
Q 291 2659 392 2848 
Q 494 3038 669 3163 
Q 800 3259 1026 3326 
Q 1253 3394 1513 3394 
Q 1903 3394 2198 3281 
Q 2494 3169 2634 2976 
Q 2775 2784 2828 2463 
L 2278 2388 
Q 2241 2644 2061 2787 
Q 1881 2931 1553 2931 
Q 1166 2931 1000 2803 
Q 834 2675 834 2503 
Q 834 2394 903 2306 
Q 972 2216 1119 2156 
Q 1203 2125 1616 2013 
Q 2213 1853 2448 1751 
Q 2684 1650 2818 1456 
Q 2953 1263 2953 975 
Q 2953 694 2789 445 
Q 2625 197 2315 61 
Q 2006 -75 1616 -75 
Q 969 -75 630 194 
Q 291 463 197 991 
z
" transform="scale(0.015625)"/>
      <path id="ArialMT-20" transform="scale(0.015625)"/>
      <path id="ArialMT-6f" d="M 213 1659 
Q 213 2581 725 3025 
Q 1153 3394 1769 3394 
Q 2453 3394 2887 2945 
Q 3322 2497 3322 1706 
Q 3322 1066 3130 698 
Q 2938 331 2570 128 
Q 2203 -75 1769 -75 
Q 1072 -75 642 372 
Q 213 819 213 1659 
z
M 791 1659 
Q 791 1022 1069 705 
Q 1347 388 1769 388 
Q 2188 388 2466 706 
Q 2744 1025 2744 1678 
Q 2744 2294 2464 2611 
Q 2184 2928 1769 2928 
Q 1347 2928 1069 2612 
Q 791 2297 791 1659 
z
" transform="scale(0.015625)"/>
      <path id="ArialMT-66" d="M 556 0 
L 556 2881 
L 59 2881 
L 59 3319 
L 556 3319 
L 556 3672 
Q 556 4006 616 4169 
Q 697 4388 901 4523 
Q 1106 4659 1475 4659 
Q 1713 4659 2000 4603 
L 1916 4113 
Q 1741 4144 1584 4144 
Q 1328 4144 1222 4034 
Q 1116 3925 1116 3625 
L 1116 3319 
L 1763 3319 
L 1763 2881 
L 1116 2881 
L 1116 0 
L 556 0 
z
" transform="scale(0.015625)"/>
      <path id="ArialMT-74" d="M 1650 503 
L 1731 6 
Q 1494 -44 1306 -44 
Q 1000 -44 831 53 
Q 663 150 594 308 
Q 525 466 525 972 
L 525 2881 
L 113 2881 
L 113 3319 
L 525 3319 
L 525 4141 
L 1084 4478 
L 1084 3319 
L 1650 3319 
L 1650 2881 
L 1084 2881 
L 1084 941 
Q 1084 700 1114 631 
Q 1144 563 1211 522 
Q 1278 481 1403 481 
Q 1497 481 1650 503 
z
" transform="scale(0.015625)"/>
      <path id="ArialMT-68" d="M 422 0 
L 422 4581 
L 984 4581 
L 984 2938 
Q 1378 3394 1978 3394 
Q 2347 3394 2619 3248 
Q 2891 3103 3008 2847 
Q 3125 2591 3125 2103 
L 3125 0 
L 2563 0 
L 2563 2103 
Q 2563 2525 2380 2717 
Q 2197 2909 1863 2909 
Q 1613 2909 1392 2779 
Q 1172 2650 1078 2428 
Q 984 2206 984 1816 
L 984 0 
L 422 0 
z
" transform="scale(0.015625)"/>
      <path id="ArialMT-72" d="M 416 0 
L 416 3319 
L 922 3319 
L 922 2816 
Q 1116 3169 1280 3281 
Q 1444 3394 1641 3394 
Q 1925 3394 2219 3213 
L 2025 2691 
Q 1819 2813 1613 2813 
Q 1428 2813 1281 2702 
Q 1134 2591 1072 2394 
Q 978 2094 978 1738 
L 978 0 
L 416 0 
z
" transform="scale(0.015625)"/>
      <path id="ArialMT-63" d="M 2588 1216 
L 3141 1144 
Q 3050 572 2676 248 
Q 2303 -75 1759 -75 
Q 1078 -75 664 370 
Q 250 816 250 1647 
Q 250 2184 428 2587 
Q 606 2991 970 3192 
Q 1334 3394 1763 3394 
Q 2303 3394 2647 3120 
Q 2991 2847 3088 2344 
L 2541 2259 
Q 2463 2594 2264 2762 
Q 2066 2931 1784 2931 
Q 1359 2931 1093 2626 
Q 828 2322 828 1663 
Q 828 994 1084 691 
Q 1341 388 1753 388 
Q 2084 388 2306 591 
Q 2528 794 2588 1216 
z
" transform="scale(0.015625)"/>
      <path id="ArialMT-6e" d="M 422 0 
L 422 3319 
L 928 3319 
L 928 2847 
Q 1294 3394 1984 3394 
Q 2284 3394 2536 3286 
Q 2788 3178 2913 3003 
Q 3038 2828 3088 2588 
Q 3119 2431 3119 2041 
L 3119 0 
L 2556 0 
L 2556 2019 
Q 2556 2363 2490 2533 
Q 2425 2703 2258 2804 
Q 2091 2906 1866 2906 
Q 1506 2906 1245 2678 
Q 984 2450 984 1813 
L 984 0 
L 422 0 
z
" transform="scale(0.015625)"/>
      <path id="ArialMT-64" d="M 2575 0 
L 2575 419 
Q 2259 -75 1647 -75 
Q 1250 -75 917 144 
Q 584 363 401 755 
Q 219 1147 219 1656 
Q 219 2153 384 2558 
Q 550 2963 881 3178 
Q 1213 3394 1622 3394 
Q 1922 3394 2156 3267 
Q 2391 3141 2538 2938 
L 2538 4581 
L 3097 4581 
L 3097 0 
L 2575 0 
z
M 797 1656 
Q 797 1019 1065 703 
Q 1334 388 1700 388 
Q 2069 388 2326 689 
Q 2584 991 2584 1609 
Q 2584 2291 2321 2609 
Q 2059 2928 1675 2928 
Q 1300 2928 1048 2622 
Q 797 2316 797 1656 
z
" transform="scale(0.015625)"/>
      <path id="ArialMT-75" d="M 2597 0 
L 2597 488 
Q 2209 -75 1544 -75 
Q 1250 -75 995 37 
Q 741 150 617 320 
Q 494 491 444 738 
Q 409 903 409 1263 
L 409 3319 
L 972 3319 
L 972 1478 
Q 972 1038 1006 884 
Q 1059 663 1231 536 
Q 1403 409 1656 409 
Q 1909 409 2131 539 
Q 2353 669 2445 892 
Q 2538 1116 2538 1541 
L 2538 3319 
L 3100 3319 
L 3100 0 
L 2597 0 
z
" transform="scale(0.015625)"/>
      <path id="ArialMT-69" d="M 425 3934 
L 425 4581 
L 988 4581 
L 988 3934 
L 425 3934 
z
M 425 0 
L 425 3319 
L 988 3319 
L 988 0 
L 425 0 
z
" transform="scale(0.015625)"/>
      <path id="ArialMT-76" d="M 1344 0 
L 81 3319 
L 675 3319 
L 1388 1331 
Q 1503 1009 1600 663 
Q 1675 925 1809 1294 
L 2547 3319 
L 3125 3319 
L 1869 0 
L 1344 0 
z
" transform="scale(0.015625)"/>
      <path id="ArialMT-79" d="M 397 -1278 
L 334 -750 
Q 519 -800 656 -800 
Q 844 -800 956 -737 
Q 1069 -675 1141 -563 
Q 1194 -478 1313 -144 
Q 1328 -97 1363 -6 
L 103 3319 
L 709 3319 
L 1400 1397 
Q 1534 1031 1641 628 
Q 1738 1016 1872 1384 
L 2581 3319 
L 3144 3319 
L 1881 -56 
Q 1678 -603 1566 -809 
Q 1416 -1088 1222 -1217 
Q 1028 -1347 759 -1347 
Q 597 -1347 397 -1278 
z
" transform="scale(0.015625)"/>
     </defs>
     <use xlink:href="#ArialMT-53"/>
     <use xlink:href="#ArialMT-61" x="66.699219"/>
     <use xlink:href="#ArialMT-6d" x="122.314453"/>
     <use xlink:href="#ArialMT-70" x="205.615234"/>
     <use xlink:href="#ArialMT-6c" x="261.230469"/>
     <use xlink:href="#ArialMT-65" x="283.447266"/>
     <use xlink:href="#ArialMT-73" x="339.0625"/>
     <use xlink:href="#ArialMT-20" x="389.0625"/>
     <use xlink:href="#ArialMT-6f" x="416.845703"/>
     <use xlink:href="#ArialMT-66" x="472.460938"/>
     <use xlink:href="#ArialMT-20" x="500.244141"/>
     <use xlink:href="#ArialMT-74" x="528.027344"/>
     <use xlink:href="#ArialMT-68" x="555.810547"/>
     <use xlink:href="#ArialMT-65" x="611.425781"/>
     <use xlink:href="#ArialMT-20" x="667.041016"/>
     <use xlink:href="#ArialMT-74" x="694.824219"/>
     <use xlink:href="#ArialMT-68" x="722.607422"/>
     <use xlink:href="#ArialMT-65" x="778.222656"/>
     <use xlink:href="#ArialMT-72" x="833.837891"/>
     <use xlink:href="#ArialMT-6d" x="867.138672"/>
     <use xlink:href="#ArialMT-61" x="950.439453"/>
     <use xlink:href="#ArialMT-6c" x="1006.054688"/>
     <use xlink:href="#ArialMT-20" x="1028.271484"/>
     <use xlink:href="#ArialMT-63" x="1056.054688"/>
     <use xlink:href="#ArialMT-6f" x="1106.054688"/>
     <use xlink:href="#ArialMT-6e" x="1161.669922"/>
     <use xlink:href="#ArialMT-64" x="1217.285156"/>
     <use xlink:href="#ArialMT-75" x="1272.900391"/>
     <use xlink:href="#ArialMT-63" x="1328.515625"/>
     <use xlink:href="#ArialMT-74" x="1378.515625"/>
     <use xlink:href="#ArialMT-69" x="1406.298828"/>
     <use xlink:href="#ArialMT-76" x="1428.515625"/>
     <use xlink:href="#ArialMT-69" x="1478.515625"/>
     <use xlink:href="#ArialMT-74" x="1500.732422"/>
     <use xlink:href="#ArialMT-79" x="1528.515625"/>
     <use xlink:href="#ArialMT-20" x="1578.515625"/>
     <use xlink:href="#ArialMT-66" x="1606.298828"/>
     <use xlink:href="#ArialMT-69" x="1634.082031"/>
     <use xlink:href="#ArialMT-65" x="1656.298828"/>
     <use xlink:href="#ArialMT-6c" x="1711.914062"/>
     <use xlink:href="#ArialMT-64" x="1734.130859"/>
    </g>
   </g>
  </g>
 </g>
 <defs>
  <clipPath id="pbea65435a2">
   <rect x="33.173125" y="23.391562" width="357.12" height="266.112"/>
  </clipPath>
 </defs>
</svg>