<?xml version="1.0" encoding="utf-8" standalone="no"?>
<!DOCTYPE svg PUBLIC "-//W3C//DTD SVG 1.1//EN"
  "http://www.w3.org/Graphics/SVG/1.1/DTD/svg11.dtd">
<svg xmlns:xlink="http://www.w3.org/1999/xlink" width="402.61625pt" height="322.510875pt" viewBox="0 0 402.61625 322.510875" xmlns="http://www.w3.org/2000/svg" version="1.1">
 <metadata>
  <rdf:RDF xmlns:dc="http://purl.org/dc/elements/1.1/" xmlns:cc="http://creativecommons.org/ns#" xmlns:rdf="http://www.w3.org/1999/02/22-rdf-syntax-ns#">
   <cc:Work>
    <dc:type rdf:resource="http://purl.org/dc/dcmitype/StillImage"/>
    <dc:date>2023-12-09T00:45:13.458324</dc:date>
    <dc:format>image/svg+xml</dc:format>
    <dc:creator>
     <cc:Agent>
      <dc:title>Matplotlib v3.8.0, https://matplotlib.org/</dc:title>
     </cc:Agent>
    </dc:creator>
   </cc:Work>
  </rdf:RDF>
 </metadata>
 <defs>
  <style type="text/css">*{stroke-linejoin: round; stroke-linecap: butt}</style>
 </defs>
 <g id="figure_1">
  <g id="patch_1">
   <path d="M -0 322.510875 
L 402.61625 322.510875 
L 402.61625 0 
L -0 0 
z
" style="fill: #ffffff"/>
  </g>
  <g id="axes_1">
   <g id="patch_2">
    <path d="M 33.402625 286.1835 
L 390.522625 286.1835 
L 390.522625 20.0715 
L 33.402625 20.0715 
z
" style="fill: #ffffff"/>
   </g>
   <g id="matplotlib.axis_1">
    <g id="xtick_1">
     <g id="line2d_1">
      <defs>
       <path id="m7afcf4f1e1" d="M 0 0 
L 0 4.8 
" style="stroke: #262626"/>
      </defs>
      <g>
       <use xlink:href="#m7afcf4f1e1" x="33.402625" y="286.1835" style="fill: #262626; stroke: #262626"/>
      </g>
     </g>
     <g id="text_1">
      <!-- 0 -->
      <g style="fill: #262626" transform="translate(30.955813 300.782375) scale(0.088 -0.088)">
       <defs>
        <path id="ArialMT-30" d="M 266 2259 
Q 266 3072 433 3567 
Q 600 4063 929 4331 
Q 1259 4600 1759 4600 
Q 2128 4600 2406 4451 
Q 2684 4303 2865 4023 
Q 3047 3744 3150 3342 
Q 3253 2941 3253 2259 
Q 3253 1453 3087 958 
Q 2922 463 2592 192 
Q 2263 -78 1759 -78 
Q 1097 -78 719 397 
Q 266 969 266 2259 
z
M 844 2259 
Q 844 1131 1108 757 
Q 1372 384 1759 384 
Q 2147 384 2411 759 
Q 2675 1134 2675 2259 
Q 2675 3391 2411 3762 
Q 2147 4134 1753 4134 
Q 1366 4134 1134 3806 
Q 844 3388 844 2259 
z
" transform="scale(0.015625)"/>
       </defs>
       <use xlink:href="#ArialMT-30"/>
      </g>
     </g>
    </g>
    <g id="xtick_2">
     <g id="line2d_2">
      <g>
       <use xlink:href="#m7afcf4f1e1" x="104.826625" y="286.1835" style="fill: #262626; stroke: #262626"/>
      </g>
     </g>
     <g id="text_2">
      <!-- 2 -->
      <g style="fill: #262626" transform="translate(102.379812 300.782375) scale(0.088 -0.088)">
       <defs>
        <path id="ArialMT-32" d="M 3222 541 
L 3222 0 
L 194 0 
Q 188 203 259 391 
Q 375 700 629 1000 
Q 884 1300 1366 1694 
Q 2113 2306 2375 2664 
Q 2638 3022 2638 3341 
Q 2638 3675 2398 3904 
Q 2159 4134 1775 4134 
Q 1369 4134 1125 3890 
Q 881 3647 878 3216 
L 300 3275 
Q 359 3922 746 4261 
Q 1134 4600 1788 4600 
Q 2447 4600 2831 4234 
Q 3216 3869 3216 3328 
Q 3216 3053 3103 2787 
Q 2991 2522 2730 2228 
Q 2469 1934 1863 1422 
Q 1356 997 1212 845 
Q 1069 694 975 541 
L 3222 541 
z
" transform="scale(0.015625)"/>
       </defs>
       <use xlink:href="#ArialMT-32"/>
      </g>
     </g>
    </g>
    <g id="xtick_3">
     <g id="line2d_3">
      <g>
       <use xlink:href="#m7afcf4f1e1" x="176.250625" y="286.1835" style="fill: #262626; stroke: #262626"/>
      </g>
     </g>
     <g id="text_3">
      <!-- 4 -->
      <g style="fill: #262626" transform="translate(173.803812 300.782375) scale(0.088 -0.088)">
       <defs>
        <path id="ArialMT-34" d="M 2069 0 
L 2069 1097 
L 81 1097 
L 81 1613 
L 2172 4581 
L 2631 4581 
L 2631 1613 
L 3250 1613 
L 3250 1097 
L 2631 1097 
L 2631 0 
L 2069 0 
z
M 2069 1613 
L 2069 3678 
L 634 1613 
L 2069 1613 
z
" transform="scale(0.015625)"/>
       </defs>
       <use xlink:href="#ArialMT-34"/>
      </g>
     </g>
    </g>
    <g id="xtick_4">
     <g id="line2d_4">
      <g>
       <use xlink:href="#m7afcf4f1e1" x="247.674625" y="286.1835" style="fill: #262626; stroke: #262626"/>
      </g>
     </g>
     <g id="text_4">
      <!-- 6 -->
      <g style="fill: #262626" transform="translate(245.227812 300.782375) scale(0.088 -0.088)">
       <defs>
        <path id="ArialMT-36" d="M 3184 3459 
L 2625 3416 
Q 2550 3747 2413 3897 
Q 2184 4138 1850 4138 
Q 1581 4138 1378 3988 
Q 1113 3794 959 3422 
Q 806 3050 800 2363 
Q 1003 2672 1297 2822 
Q 1591 2972 1913 2972 
Q 2475 2972 2870 2558 
Q 3266 2144 3266 1488 
Q 3266 1056 3080 686 
Q 2894 316 2569 119 
Q 2244 -78 1831 -78 
Q 1128 -78 684 439 
Q 241 956 241 2144 
Q 241 3472 731 4075 
Q 1159 4600 1884 4600 
Q 2425 4600 2770 4297 
Q 3116 3994 3184 3459 
z
M 888 1484 
Q 888 1194 1011 928 
Q 1134 663 1356 523 
Q 1578 384 1822 384 
Q 2178 384 2434 671 
Q 2691 959 2691 1453 
Q 2691 1928 2437 2201 
Q 2184 2475 1800 2475 
Q 1419 2475 1153 2201 
Q 888 1928 888 1484 
z
" transform="scale(0.015625)"/>
       </defs>
       <use xlink:href="#ArialMT-36"/>
      </g>
     </g>
    </g>
    <g id="xtick_5">
     <g id="line2d_5">
      <g>
       <use xlink:href="#m7afcf4f1e1" x="319.098625" y="286.1835" style="fill: #262626; stroke: #262626"/>
      </g>
     </g>
     <g id="text_5">
      <!-- 8 -->
      <g style="fill: #262626" transform="translate(316.651812 300.782375) scale(0.088 -0.088)">
       <defs>
        <path id="ArialMT-38" d="M 1131 2484 
Q 781 2613 612 2850 
Q 444 3088 444 3419 
Q 444 3919 803 4259 
Q 1163 4600 1759 4600 
Q 2359 4600 2725 4251 
Q 3091 3903 3091 3403 
Q 3091 3084 2923 2848 
Q 2756 2613 2416 2484 
Q 2838 2347 3058 2040 
Q 3278 1734 3278 1309 
Q 3278 722 2862 322 
Q 2447 -78 1769 -78 
Q 1091 -78 675 323 
Q 259 725 259 1325 
Q 259 1772 486 2073 
Q 713 2375 1131 2484 
z
M 1019 3438 
Q 1019 3113 1228 2906 
Q 1438 2700 1772 2700 
Q 2097 2700 2305 2904 
Q 2513 3109 2513 3406 
Q 2513 3716 2298 3927 
Q 2084 4138 1766 4138 
Q 1444 4138 1231 3931 
Q 1019 3725 1019 3438 
z
M 838 1322 
Q 838 1081 952 856 
Q 1066 631 1291 507 
Q 1516 384 1775 384 
Q 2178 384 2440 643 
Q 2703 903 2703 1303 
Q 2703 1709 2433 1975 
Q 2163 2241 1756 2241 
Q 1359 2241 1098 1978 
Q 838 1716 838 1322 
z
" transform="scale(0.015625)"/>
       </defs>
       <use xlink:href="#ArialMT-38"/>
      </g>
     </g>
    </g>
    <g id="xtick_6">
     <g id="line2d_6">
      <g>
       <use xlink:href="#m7afcf4f1e1" x="390.522625" y="286.1835" style="fill: #262626; stroke: #262626"/>
      </g>
     </g>
     <g id="text_6">
      <!-- 10 -->
      <g style="fill: #262626" transform="translate(385.629 300.782375) scale(0.088 -0.088)">
       <defs>
        <path id="ArialMT-31" d="M 2384 0 
L 1822 0 
L 1822 3584 
Q 1619 3391 1289 3197 
Q 959 3003 697 2906 
L 697 3450 
Q 1169 3672 1522 3987 
Q 1875 4303 2022 4600 
L 2384 4600 
L 2384 0 
z
" transform="scale(0.015625)"/>
       </defs>
       <use xlink:href="#ArialMT-31"/>
       <use xlink:href="#ArialMT-30" x="55.615234"/>
      </g>
     </g>
    </g>
    <g id="text_7">
     <!-- t -->
     <g style="fill: #262626" transform="translate(210.629125 313.402875) scale(0.096 -0.096)">
      <defs>
       <path id="ArialMT-74" d="M 1650 503 
L 1731 6 
Q 1494 -44 1306 -44 
Q 1000 -44 831 53 
Q 663 150 594 308 
Q 525 466 525 972 
L 525 2881 
L 113 2881 
L 113 3319 
L 525 3319 
L 525 4141 
L 1084 4478 
L 1084 3319 
L 1650 3319 
L 1650 2881 
L 1084 2881 
L 1084 941 
Q 1084 700 1114 631 
Q 1144 563 1211 522 
Q 1278 481 1403 481 
Q 1497 481 1650 503 
z
" transform="scale(0.015625)"/>
      </defs>
      <use xlink:href="#ArialMT-74"/>
     </g>
    </g>
   </g>
   <g id="matplotlib.axis_2">
    <g id="ytick_1">
     <g id="line2d_7">
      <defs>
       <path id="ma03aa3eea7" d="M 0 0 
L -4.8 0 
" style="stroke: #262626"/>
      </defs>
      <g>
       <use xlink:href="#ma03aa3eea7" x="33.402625" y="274.0875" style="fill: #262626; stroke: #262626"/>
      </g>
     </g>
     <g id="text_8">
      <!-- 0 -->
      <g style="fill: #262626" transform="translate(20.209 277.236938) scale(0.088 -0.088)">
       <use xlink:href="#ArialMT-30"/>
      </g>
     </g>
    </g>
    <g id="ytick_2">
     <g id="line2d_8">
      <g>
       <use xlink:href="#ma03aa3eea7" x="33.402625" y="218.909197" style="fill: #262626; stroke: #262626"/>
      </g>
     </g>
     <g id="text_9">
      <!-- 2 -->
      <g style="fill: #262626" transform="translate(20.209 222.058635) scale(0.088 -0.088)">
       <use xlink:href="#ArialMT-32"/>
      </g>
     </g>
    </g>
    <g id="ytick_3">
     <g id="line2d_9">
      <g>
       <use xlink:href="#ma03aa3eea7" x="33.402625" y="163.730894" style="fill: #262626; stroke: #262626"/>
      </g>
     </g>
     <g id="text_10">
      <!-- 4 -->
      <g style="fill: #262626" transform="translate(20.209 166.880331) scale(0.088 -0.088)">
       <use xlink:href="#ArialMT-34"/>
      </g>
     </g>
    </g>
    <g id="ytick_4">
     <g id="line2d_10">
      <g>
       <use xlink:href="#ma03aa3eea7" x="33.402625" y="108.552591" style="fill: #262626; stroke: #262626"/>
      </g>
     </g>
     <g id="text_11">
      <!-- 6 -->
      <g style="fill: #262626" transform="translate(20.209 111.702028) scale(0.088 -0.088)">
       <use xlink:href="#ArialMT-36"/>
      </g>
     </g>
    </g>
    <g id="ytick_5">
     <g id="line2d_11">
      <g>
       <use xlink:href="#ma03aa3eea7" x="33.402625" y="53.374288" style="fill: #262626; stroke: #262626"/>
      </g>
     </g>
     <g id="text_12">
      <!-- 8 -->
      <g style="fill: #262626" transform="translate(20.209 56.523725) scale(0.088 -0.088)">
       <use xlink:href="#ArialMT-38"/>
      </g>
     </g>
    </g>
    <g id="text_13">
     <!-- u(t) -->
     <g style="fill: #262626" transform="translate(14.1885 160.32675) rotate(-90) scale(0.096 -0.096)">
      <defs>
       <path id="ArialMT-75" d="M 2597 0 
L 2597 488 
Q 2209 -75 1544 -75 
Q 1250 -75 995 37 
Q 741 150 617 320 
Q 494 491 444 738 
Q 409 903 409 1263 
L 409 3319 
L 972 3319 
L 972 1478 
Q 972 1038 1006 884 
Q 1059 663 1231 536 
Q 1403 409 1656 409 
Q 1909 409 2131 539 
Q 2353 669 2445 892 
Q 2538 1116 2538 1541 
L 2538 3319 
L 3100 3319 
L 3100 0 
L 2597 0 
z
" transform="scale(0.015625)"/>
       <path id="ArialMT-28" d="M 1497 -1347 
Q 1031 -759 709 28 
Q 388 816 388 1659 
Q 388 2403 628 3084 
Q 909 3875 1497 4659 
L 1900 4659 
Q 1522 4009 1400 3731 
Q 1209 3300 1100 2831 
Q 966 2247 966 1656 
Q 966 153 1900 -1347 
L 1497 -1347 
z
" transform="scale(0.015625)"/>
       <path id="ArialMT-29" d="M 791 -1347 
L 388 -1347 
Q 1322 153 1322 1656 
Q 1322 2244 1188 2822 
Q 1081 3291 891 3722 
Q 769 4003 388 4659 
L 791 4659 
Q 1378 3875 1659 3084 
Q 1900 2403 1900 1659 
Q 1900 816 1576 28 
Q 1253 -759 791 -1347 
z
" transform="scale(0.015625)"/>
      </defs>
      <use xlink:href="#ArialMT-75"/>
      <use xlink:href="#ArialMT-28" x="55.615234"/>
      <use xlink:href="#ArialMT-74" x="88.916016"/>
      <use xlink:href="#ArialMT-29" x="116.699219"/>
     </g>
    </g>
   </g>
   <g id="line2d_12">
    <path d="M 33.402625 274.087472 
L 99.476433 273.981075 
L 101.619368 273.944579 
L 105.905238 274.083307 
L 116.977063 274.040405 
L 124.12018 274.008457 
L 125.905957 274.06875 
L 130.191827 273.774918 
L 132.691912 274.039375 
L 136.263474 274.082633 
L 153.406947 273.882751 
L 154.83557 273.79098 
L 156.978501 273.971777 
L 159.478594 274.084681 
L 164.478771 273.999135 
L 168.050326 273.780466 
L 169.836111 273.474108 
L 170.907572 273.128451 
L 171.979042 272.55749 
L 172.693349 271.975458 
L 173.407665 271.149715 
L 174.121973 269.975474 
L 174.836289 268.303325 
L 175.550596 265.925343 
L 176.264912 262.555276 
L 176.97922 257.865974 
L 177.693527 251.346889 
L 178.407852 242.435302 
L 179.122159 230.818644 
L 180.193629 209.062912 
L 181.265098 188.021671 
L 181.622243 183.364487 
L 181.979406 180.968036 
L 182.336551 181.52735 
L 182.693713 185.655641 
L 183.050875 193.747366 
L 183.408021 205.786185 
L 184.47949 254.196221 
L 184.836652 259.832803 
L 185.193798 258.646412 
L 185.55096 252.554995 
L 186.265267 232.426211 
L 186.62243 218.917353 
L 187.693899 166.100264 
L 188.051044 155.707124 
L 188.408207 149.755258 
L 188.765352 147.586595 
L 189.122514 148.511995 
L 189.479676 152.085011 
L 189.836822 158.361213 
L 190.193984 168.044455 
L 191.979761 236.980692 
L 192.694068 252.584626 
L 193.408376 261.681249 
L 194.1227 266.618218 
L 194.479845 268.085641 
L 194.837008 269.018236 
L 195.19417 269.545463 
L 195.551315 269.772327 
L 195.908477 269.781643 
L 196.622785 269.381946 
L 197.337092 268.65355 
L 198.408562 267.177358 
L 199.837194 264.749987 
L 201.265809 261.754351 
L 203.765893 256.093654 
L 204.123055 255.577391 
L 204.480218 255.267782 
L 204.837363 255.225117 
L 205.194525 255.45258 
L 205.55167 255.995883 
L 205.908832 256.918663 
L 206.62314 259.836699 
L 207.69461 265.032082 
L 208.051772 266.202838 
L 208.408917 266.764313 
L 208.766079 266.634177 
L 209.123241 265.693415 
L 209.480387 263.877034 
L 210.194711 258.06196 
L 211.266164 247.911598 
L 211.623326 245.382621 
L 211.980488 243.669478 
L 212.337633 242.909848 
L 212.694796 243.091319 
L 213.051941 244.079678 
L 213.766265 247.779798 
L 215.552042 259.220734 
L 216.26635 262.434094 
L 216.980657 264.439527 
L 217.33782 265.00071 
L 217.694965 265.288665 
L 218.052127 265.326419 
L 218.409289 265.140349 
L 218.766434 264.758151 
L 219.480759 263.493347 
L 220.195066 261.610342 
L 220.909374 259.171014 
L 221.623681 256.145939 
L 222.337989 252.394341 
L 223.052313 247.663743 
L 223.76662 241.711037 
L 224.480928 234.244976 
L 225.195235 224.889699 
L 225.90956 213.174154 
L 226.623867 198.573079 
L 227.695337 170.517682 
L 228.766807 134.774461 
L 229.481114 108.11684 
L 229.481114 108.11684 
" clip-path="url(#pd44c197c7a)" style="fill: none; stroke: #1f77b4; stroke-linecap: round"/>
   </g>
   <g id="line2d_13">
    <path d="M 33.402625 274.087473 
L 99.476433 273.981673 
L 101.619368 273.94543 
L 105.905238 274.083354 
L 117.334217 274.034629 
L 124.12018 274.010932 
L 125.905957 274.068359 
L 129.834665 273.734884 
L 133.049065 274.056326 
L 136.977782 274.077308 
L 150.192546 274.069841 
L 151.978323 274.036047 
L 155.192724 273.801421 
L 160.192901 274.086368 
L 165.907395 273.941383 
L 168.764642 273.680114 
L 170.193265 273.365779 
L 171.264726 272.950864 
L 172.336196 272.26073 
L 173.050512 271.554487 
L 173.764819 270.550633 
L 174.479135 269.120282 
L 175.193443 267.081573 
L 175.907758 264.181617 
L 176.622057 260.092251 
L 177.336382 254.401973 
L 178.050689 246.494567 
L 178.764997 235.85852 
L 179.836466 214.726665 
L 180.907936 191.640869 
L 181.622243 181.139503 
L 181.979406 179.533679 
L 182.336551 181.554919 
L 182.693713 187.986932 
L 183.050875 199.311677 
L 183.408021 215.371878 
L 184.122328 261.942551 
L 184.47949 273.341278 
L 184.836652 271.556706 
L 185.55096 247.201588 
L 186.265267 226.347415 
L 186.62243 217.925312 
L 186.979575 204.073908 
L 187.693899 170.739351 
L 188.051044 161.103252 
L 188.408207 158.222565 
L 188.765352 162.329414 
L 189.122514 172.546615 
L 190.908291 243.525744 
L 191.622599 258.666143 
L 192.336923 267.584369 
L 192.694068 270.306527 
L 193.051231 272.146288 
L 193.408376 273.283785 
L 193.765538 273.881426 
L 194.1227 274.083204 
L 194.479845 274.009969 
L 195.19417 273.339074 
L 196.265622 271.735902 
L 198.051417 268.637754 
L 199.480031 265.658234 
L 200.551501 262.990577 
L 201.622971 259.766843 
L 204.480218 250.458683 
L 204.837363 249.94976 
L 205.194525 249.789049 
L 205.55167 250.085924 
L 205.908832 250.997725 
L 206.265995 252.618186 
L 206.980302 257.961918 
L 208.408917 271.671597 
L 208.766079 273.64253 
L 209.123241 273.991547 
L 209.480387 272.350755 
L 209.837549 268.758551 
L 210.551856 257.371544 
L 211.623326 238.751962 
L 211.980488 234.03548 
L 212.337633 230.886925 
L 212.694796 229.783649 
L 213.051941 230.673101 
L 213.409103 233.331888 
L 214.123411 242.409787 
L 215.552042 263.224836 
L 216.26635 269.737912 
L 216.623512 271.793434 
L 216.980657 273.143189 
L 217.33782 273.876759 
L 217.694965 274.087023 
L 218.052127 273.866211 
L 218.409289 273.300153 
L 219.123597 271.421889 
L 219.837904 268.864622 
L 220.909374 264.17295 
L 221.980843 258.496352 
L 222.695151 253.863118 
L 223.409458 248.135022 
L 224.123783 240.94839 
L 224.83809 231.777127 
L 225.552398 219.832228 
L 226.266705 203.963231 
L 226.981029 182.652436 
L 227.695337 154.033805 
L 228.409644 115.578379 
L 229.123952 64.091154 
L 229.481114 32.1675 
L 229.481114 32.1675 
" clip-path="url(#pd44c197c7a)" style="fill: none; stroke-dasharray: 3.7,1.6; stroke-dashoffset: 0; stroke: #ff7f0e"/>
   </g>
   <g id="patch_3">
    <path d="M 33.402625 274.0875 
L 33.402625 53.374288 
" style="fill: none; stroke: #262626; stroke-linejoin: miter; stroke-linecap: square"/>
   </g>
   <g id="patch_4">
    <path d="M 33.402625 286.1835 
L 390.522625 286.1835 
" style="fill: none; stroke: #262626; stroke-linejoin: miter; stroke-linecap: square"/>
   </g>
   <g id="text_14">
    <!-- Lorenz system -->
    <g style="fill: #262626" transform="translate(180.752875 14.0715) scale(0.096 -0.096)">
     <defs>
      <path id="ArialMT-4c" d="M 469 0 
L 469 4581 
L 1075 4581 
L 1075 541 
L 3331 541 
L 3331 0 
L 469 0 
z
" transform="scale(0.015625)"/>
      <path id="ArialMT-6f" d="M 213 1659 
Q 213 2581 725 3025 
Q 1153 3394 1769 3394 
Q 2453 3394 2887 2945 
Q 3322 2497 3322 1706 
Q 3322 1066 3130 698 
Q 2938 331 2570 128 
Q 2203 -75 1769 -75 
Q 1072 -75 642 372 
Q 213 819 213 1659 
z
M 791 1659 
Q 791 1022 1069 705 
Q 1347 388 1769 388 
Q 2188 388 2466 706 
Q 2744 1025 2744 1678 
Q 2744 2294 2464 2611 
Q 2184 2928 1769 2928 
Q 1347 2928 1069 2612 
Q 791 2297 791 1659 
z
" transform="scale(0.015625)"/>
      <path id="ArialMT-72" d="M 416 0 
L 416 3319 
L 922 3319 
L 922 2816 
Q 1116 3169 1280 3281 
Q 1444 3394 1641 3394 
Q 1925 3394 2219 3213 
L 2025 2691 
Q 1819 2813 1613 2813 
Q 1428 2813 1281 2702 
Q 1134 2591 1072 2394 
Q 978 2094 978 1738 
L 978 0 
L 416 0 
z
" transform="scale(0.015625)"/>
      <path id="ArialMT-65" d="M 2694 1069 
L 3275 997 
Q 3138 488 2766 206 
Q 2394 -75 1816 -75 
Q 1088 -75 661 373 
Q 234 822 234 1631 
Q 234 2469 665 2931 
Q 1097 3394 1784 3394 
Q 2450 3394 2872 2941 
Q 3294 2488 3294 1666 
Q 3294 1616 3291 1516 
L 816 1516 
Q 847 969 1125 678 
Q 1403 388 1819 388 
Q 2128 388 2347 550 
Q 2566 713 2694 1069 
z
M 847 1978 
L 2700 1978 
Q 2663 2397 2488 2606 
Q 2219 2931 1791 2931 
Q 1403 2931 1139 2672 
Q 875 2413 847 1978 
z
" transform="scale(0.015625)"/>
      <path id="ArialMT-6e" d="M 422 0 
L 422 3319 
L 928 3319 
L 928 2847 
Q 1294 3394 1984 3394 
Q 2284 3394 2536 3286 
Q 2788 3178 2913 3003 
Q 3038 2828 3088 2588 
Q 3119 2431 3119 2041 
L 3119 0 
L 2556 0 
L 2556 2019 
Q 2556 2363 2490 2533 
Q 2425 2703 2258 2804 
Q 2091 2906 1866 2906 
Q 1506 2906 1245 2678 
Q 984 2450 984 1813 
L 984 0 
L 422 0 
z
" transform="scale(0.015625)"/>
      <path id="ArialMT-7a" d="M 125 0 
L 125 456 
L 2238 2881 
Q 1878 2863 1603 2863 
L 250 2863 
L 250 3319 
L 2963 3319 
L 2963 2947 
L 1166 841 
L 819 456 
Q 1197 484 1528 484 
L 3063 484 
L 3063 0 
L 125 0 
z
" transform="scale(0.015625)"/>
      <path id="ArialMT-20" transform="scale(0.015625)"/>
      <path id="ArialMT-73" d="M 197 991 
L 753 1078 
Q 800 744 1014 566 
Q 1228 388 1613 388 
Q 2000 388 2187 545 
Q 2375 703 2375 916 
Q 2375 1106 2209 1216 
Q 2094 1291 1634 1406 
Q 1016 1563 777 1677 
Q 538 1791 414 1992 
Q 291 2194 291 2438 
Q 291 2659 392 2848 
Q 494 3038 669 3163 
Q 800 3259 1026 3326 
Q 1253 3394 1513 3394 
Q 1903 3394 2198 3281 
Q 2494 3169 2634 2976 
Q 2775 2784 2828 2463 
L 2278 2388 
Q 2241 2644 2061 2787 
Q 1881 2931 1553 2931 
Q 1166 2931 1000 2803 
Q 834 2675 834 2503 
Q 834 2394 903 2306 
Q 972 2216 1119 2156 
Q 1203 2125 1616 2013 
Q 2213 1853 2448 1751 
Q 2684 1650 2818 1456 
Q 2953 1263 2953 975 
Q 2953 694 2789 445 
Q 2625 197 2315 61 
Q 2006 -75 1616 -75 
Q 969 -75 630 194 
Q 291 463 197 991 
z
" transform="scale(0.015625)"/>
      <path id="ArialMT-79" d="M 397 -1278 
L 334 -750 
Q 519 -800 656 -800 
Q 844 -800 956 -737 
Q 1069 -675 1141 -563 
Q 1194 -478 1313 -144 
Q 1328 -97 1363 -6 
L 103 3319 
L 709 3319 
L 1400 1397 
Q 1534 1031 1641 628 
Q 1738 1016 1872 1384 
L 2581 3319 
L 3144 3319 
L 1881 -56 
Q 1678 -603 1566 -809 
Q 1416 -1088 1222 -1217 
Q 1028 -1347 759 -1347 
Q 597 -1347 397 -1278 
z
" transform="scale(0.015625)"/>
      <path id="ArialMT-6d" d="M 422 0 
L 422 3319 
L 925 3319 
L 925 2853 
Q 1081 3097 1340 3245 
Q 1600 3394 1931 3394 
Q 2300 3394 2536 3241 
Q 2772 3088 2869 2813 
Q 3263 3394 3894 3394 
Q 4388 3394 4653 3120 
Q 4919 2847 4919 2278 
L 4919 0 
L 4359 0 
L 4359 2091 
Q 4359 2428 4304 2576 
Q 4250 2725 4106 2815 
Q 3963 2906 3769 2906 
Q 3419 2906 3187 2673 
Q 2956 2441 2956 1928 
L 2956 0 
L 2394 0 
L 2394 2156 
Q 2394 2531 2256 2718 
Q 2119 2906 1806 2906 
Q 1569 2906 1367 2781 
Q 1166 2656 1075 2415 
Q 984 2175 984 1722 
L 984 0 
L 422 0 
z
" transform="scale(0.015625)"/>
     </defs>
     <use xlink:href="#ArialMT-4c"/>
     <use xlink:href="#ArialMT-6f" x="55.615234"/>
     <use xlink:href="#ArialMT-72" x="111.230469"/>
     <use xlink:href="#ArialMT-65" x="144.53125"/>
     <use xlink:href="#ArialMT-6e" x="200.146484"/>
     <use xlink:href="#ArialMT-7a" x="255.761719"/>
     <use xlink:href="#ArialMT-20" x="305.761719"/>
     <use xlink:href="#ArialMT-73" x="333.544922"/>
     <use xlink:href="#ArialMT-79" x="383.544922"/>
     <use xlink:href="#ArialMT-73" x="433.544922"/>
     <use xlink:href="#ArialMT-74" x="483.544922"/>
     <use xlink:href="#ArialMT-65" x="511.328125"/>
     <use xlink:href="#ArialMT-6d" x="566.943359"/>
    </g>
   </g>
   <g id="legend_1">
    <g id="line2d_14">
     <path d="M 283.63425 31.317625 
L 292.43425 31.317625 
L 301.23425 31.317625 
" style="fill: none; stroke: #1f77b4; stroke-linecap: round"/>
    </g>
    <g id="text_15">
     <!-- x (Monte Carlo) -->
     <g style="fill: #262626" transform="translate(308.27425 34.397625) scale(0.088 -0.088)">
      <defs>
       <path id="ArialMT-78" d="M 47 0 
L 1259 1725 
L 138 3319 
L 841 3319 
L 1350 2541 
Q 1494 2319 1581 2169 
Q 1719 2375 1834 2534 
L 2394 3319 
L 3066 3319 
L 1919 1756 
L 3153 0 
L 2463 0 
L 1781 1031 
L 1600 1309 
L 728 0 
L 47 0 
z
" transform="scale(0.015625)"/>
       <path id="ArialMT-4d" d="M 475 0 
L 475 4581 
L 1388 4581 
L 2472 1338 
Q 2622 884 2691 659 
Q 2769 909 2934 1394 
L 4031 4581 
L 4847 4581 
L 4847 0 
L 4263 0 
L 4263 3834 
L 2931 0 
L 2384 0 
L 1059 3900 
L 1059 0 
L 475 0 
z
" transform="scale(0.015625)"/>
       <path id="ArialMT-43" d="M 3763 1606 
L 4369 1453 
Q 4178 706 3683 314 
Q 3188 -78 2472 -78 
Q 1731 -78 1267 223 
Q 803 525 561 1097 
Q 319 1669 319 2325 
Q 319 3041 592 3573 
Q 866 4106 1370 4382 
Q 1875 4659 2481 4659 
Q 3169 4659 3637 4309 
Q 4106 3959 4291 3325 
L 3694 3184 
Q 3534 3684 3231 3912 
Q 2928 4141 2469 4141 
Q 1941 4141 1586 3887 
Q 1231 3634 1087 3207 
Q 944 2781 944 2328 
Q 944 1744 1114 1308 
Q 1284 872 1643 656 
Q 2003 441 2422 441 
Q 2931 441 3284 734 
Q 3638 1028 3763 1606 
z
" transform="scale(0.015625)"/>
       <path id="ArialMT-61" d="M 2588 409 
Q 2275 144 1986 34 
Q 1697 -75 1366 -75 
Q 819 -75 525 192 
Q 231 459 231 875 
Q 231 1119 342 1320 
Q 453 1522 633 1644 
Q 813 1766 1038 1828 
Q 1203 1872 1538 1913 
Q 2219 1994 2541 2106 
Q 2544 2222 2544 2253 
Q 2544 2597 2384 2738 
Q 2169 2928 1744 2928 
Q 1347 2928 1158 2789 
Q 969 2650 878 2297 
L 328 2372 
Q 403 2725 575 2942 
Q 747 3159 1072 3276 
Q 1397 3394 1825 3394 
Q 2250 3394 2515 3294 
Q 2781 3194 2906 3042 
Q 3031 2891 3081 2659 
Q 3109 2516 3109 2141 
L 3109 1391 
Q 3109 606 3145 398 
Q 3181 191 3288 0 
L 2700 0 
Q 2613 175 2588 409 
z
M 2541 1666 
Q 2234 1541 1622 1453 
Q 1275 1403 1131 1340 
Q 988 1278 909 1158 
Q 831 1038 831 891 
Q 831 666 1001 516 
Q 1172 366 1500 366 
Q 1825 366 2078 508 
Q 2331 650 2450 897 
Q 2541 1088 2541 1459 
L 2541 1666 
z
" transform="scale(0.015625)"/>
       <path id="ArialMT-6c" d="M 409 0 
L 409 4581 
L 972 4581 
L 972 0 
L 409 0 
z
" transform="scale(0.015625)"/>
      </defs>
      <use xlink:href="#ArialMT-78"/>
      <use xlink:href="#ArialMT-20" x="50"/>
      <use xlink:href="#ArialMT-28" x="77.783203"/>
      <use xlink:href="#ArialMT-4d" x="111.083984"/>
      <use xlink:href="#ArialMT-6f" x="194.384766"/>
      <use xlink:href="#ArialMT-6e" x="250"/>
      <use xlink:href="#ArialMT-74" x="305.615234"/>
      <use xlink:href="#ArialMT-65" x="333.398438"/>
      <use xlink:href="#ArialMT-20" x="389.013672"/>
      <use xlink:href="#ArialMT-43" x="416.796875"/>
      <use xlink:href="#ArialMT-61" x="489.013672"/>
      <use xlink:href="#ArialMT-72" x="544.628906"/>
      <use xlink:href="#ArialMT-6c" x="577.929688"/>
      <use xlink:href="#ArialMT-6f" x="600.146484"/>
      <use xlink:href="#ArialMT-29" x="655.761719"/>
     </g>
    </g>
    <g id="line2d_15">
     <path d="M 283.63425 43.975875 
L 292.43425 43.975875 
L 301.23425 43.975875 
" style="fill: none; stroke-dasharray: 3.7,1.6; stroke-dashoffset: 0; stroke: #ff7f0e"/>
    </g>
    <g id="text_16">
     <!-- x (Local sensitivity) -->
     <g style="fill: #262626" transform="translate(308.27425 47.055875) scale(0.088 -0.088)">
      <defs>
       <path id="ArialMT-63" d="M 2588 1216 
L 3141 1144 
Q 3050 572 2676 248 
Q 2303 -75 1759 -75 
Q 1078 -75 664 370 
Q 250 816 250 1647 
Q 250 2184 428 2587 
Q 606 2991 970 3192 
Q 1334 3394 1763 3394 
Q 2303 3394 2647 3120 
Q 2991 2847 3088 2344 
L 2541 2259 
Q 2463 2594 2264 2762 
Q 2066 2931 1784 2931 
Q 1359 2931 1093 2626 
Q 828 2322 828 1663 
Q 828 994 1084 691 
Q 1341 388 1753 388 
Q 2084 388 2306 591 
Q 2528 794 2588 1216 
z
" transform="scale(0.015625)"/>
       <path id="ArialMT-69" d="M 425 3934 
L 425 4581 
L 988 4581 
L 988 3934 
L 425 3934 
z
M 425 0 
L 425 3319 
L 988 3319 
L 988 0 
L 425 0 
z
" transform="scale(0.015625)"/>
       <path id="ArialMT-76" d="M 1344 0 
L 81 3319 
L 675 3319 
L 1388 1331 
Q 1503 1009 1600 663 
Q 1675 925 1809 1294 
L 2547 3319 
L 3125 3319 
L 1869 0 
L 1344 0 
z
" transform="scale(0.015625)"/>
      </defs>
      <use xlink:href="#ArialMT-78"/>
      <use xlink:href="#ArialMT-20" x="50"/>
      <use xlink:href="#ArialMT-28" x="77.783203"/>
      <use xlink:href="#ArialMT-4c" x="111.083984"/>
      <use xlink:href="#ArialMT-6f" x="166.699219"/>
      <use xlink:href="#ArialMT-63" x="222.314453"/>
      <use xlink:href="#ArialMT-61" x="272.314453"/>
      <use xlink:href="#ArialMT-6c" x="327.929688"/>
      <use xlink:href="#ArialMT-20" x="350.146484"/>
      <use xlink:href="#ArialMT-73" x="377.929688"/>
      <use xlink:href="#ArialMT-65" x="427.929688"/>
      <use xlink:href="#ArialMT-6e" x="483.544922"/>
      <use xlink:href="#ArialMT-73" x="539.160156"/>
      <use xlink:href="#ArialMT-69" x="589.160156"/>
      <use xlink:href="#ArialMT-74" x="611.376953"/>
      <use xlink:href="#ArialMT-69" x="639.160156"/>
      <use xlink:href="#ArialMT-76" x="661.376953"/>
      <use xlink:href="#ArialMT-69" x="711.376953"/>
      <use xlink:href="#ArialMT-74" x="733.59375"/>
      <use xlink:href="#ArialMT-79" x="761.376953"/>
      <use xlink:href="#ArialMT-29" x="811.376953"/>
     </g>
    </g>
   </g>
  </g>
 </g>
 <defs>
  <clipPath id="pd44c197c7a">
   <rect x="33.402625" y="20.0715" width="357.12" height="266.112"/>
  </clipPath>
 </defs>
</svg>