<?xml version="1.0" encoding="utf-8" standalone="no"?>
<!DOCTYPE svg PUBLIC "-//W3C//DTD SVG 1.1//EN"
  "http://www.w3.org/Graphics/SVG/1.1/DTD/svg11.dtd">
<svg xmlns:xlink="http://www.w3.org/1999/xlink" width="397.19175pt" height="296.859875pt" viewBox="0 0 397.19175 296.859875" xmlns="http://www.w3.org/2000/svg" version="1.1">
 <metadata>
  <rdf:RDF xmlns:dc="http://purl.org/dc/elements/1.1/" xmlns:cc="http://creativecommons.org/ns#" xmlns:rdf="http://www.w3.org/1999/02/22-rdf-syntax-ns#">
   <cc:Work>
    <dc:type rdf:resource="http://purl.org/dc/dcmitype/StillImage"/>
    <dc:date>2024-12-05T18:49:43.371789</dc:date>
    <dc:format>image/svg+xml</dc:format>
    <dc:creator>
     <cc:Agent>
      <dc:title>Matplotlib v3.9.2, https://matplotlib.org/</dc:title>
     </cc:Agent>
    </dc:creator>
   </cc:Work>
  </rdf:RDF>
 </metadata>
 <defs>
  <style type="text/css">*{stroke-linejoin: round; stroke-linecap: butt}</style>
 </defs>
 <g id="figure_1">
  <g id="patch_1">
   <path d="M 0 296.859875 
L 397.19175 296.859875 
L 397.19175 0 
L 0 0 
z
" style="fill: #ffffff"/>
  </g>
  <g id="axes_1">
   <g id="patch_2">
    <path d="M 32.87175 273.312 
L 389.99175 273.312 
L 389.99175 7.2 
L 32.87175 7.2 
z
" style="fill: #ffffff"/>
   </g>
   <g id="matplotlib.axis_1">
    <g id="xtick_1">
     <g id="line2d_1">
      <path d="M 49.104477 273.312 
L 49.104477 7.2 
" clip-path="url(#p6b0483b5e2)" style="fill: none; stroke: #cccccc; stroke-width: 0.8; stroke-linecap: round"/>
     </g>
     <g id="line2d_2">
      <defs>
       <path id="m1014309c56" d="M 0 0 
L 0 4.8 
" style="stroke: #262626"/>
      </defs>
      <g>
       <use xlink:href="#m1014309c56" x="49.104477" y="273.312" style="fill: #262626; stroke: #262626"/>
      </g>
     </g>
     <g id="text_1">
      <!-- 0 -->
      <g style="fill: #262626" transform="translate(46.657665 287.910875) scale(0.088 -0.088)">
       <defs>
        <path id="ArialMT-30" d="M 266 2259 
Q 266 3072 433 3567 
Q 600 4063 929 4331 
Q 1259 4600 1759 4600 
Q 2128 4600 2406 4451 
Q 2684 4303 2865 4023 
Q 3047 3744 3150 3342 
Q 3253 2941 3253 2259 
Q 3253 1453 3087 958 
Q 2922 463 2592 192 
Q 2263 -78 1759 -78 
Q 1097 -78 719 397 
Q 266 969 266 2259 
z
M 844 2259 
Q 844 1131 1108 757 
Q 1372 384 1759 384 
Q 2147 384 2411 759 
Q 2675 1134 2675 2259 
Q 2675 3391 2411 3762 
Q 2147 4134 1753 4134 
Q 1366 4134 1134 3806 
Q 844 3388 844 2259 
z
" transform="scale(0.015625)"/>
       </defs>
       <use xlink:href="#ArialMT-30"/>
      </g>
     </g>
    </g>
    <g id="xtick_2">
     <g id="line2d_3">
      <path d="M 112.762231 273.312 
L 112.762231 7.2 
" clip-path="url(#p6b0483b5e2)" style="fill: none; stroke: #cccccc; stroke-width: 0.8; stroke-linecap: round"/>
     </g>
     <g id="line2d_4">
      <g>
       <use xlink:href="#m1014309c56" x="112.762231" y="273.312" style="fill: #262626; stroke: #262626"/>
      </g>
     </g>
     <g id="text_2">
      <!-- 50 -->
      <g style="fill: #262626" transform="translate(107.868606 287.910875) scale(0.088 -0.088)">
       <defs>
        <path id="ArialMT-35" d="M 266 1200 
L 856 1250 
Q 922 819 1161 601 
Q 1400 384 1738 384 
Q 2144 384 2425 690 
Q 2706 997 2706 1503 
Q 2706 1984 2436 2262 
Q 2166 2541 1728 2541 
Q 1456 2541 1237 2417 
Q 1019 2294 894 2097 
L 366 2166 
L 809 4519 
L 3088 4519 
L 3088 3981 
L 1259 3981 
L 1013 2750 
Q 1425 3038 1878 3038 
Q 2478 3038 2890 2622 
Q 3303 2206 3303 1553 
Q 3303 931 2941 478 
Q 2500 -78 1738 -78 
Q 1113 -78 717 272 
Q 322 622 266 1200 
z
" transform="scale(0.015625)"/>
       </defs>
       <use xlink:href="#ArialMT-35"/>
       <use xlink:href="#ArialMT-30" x="55.615234"/>
      </g>
     </g>
    </g>
    <g id="xtick_3">
     <g id="line2d_5">
      <path d="M 176.419985 273.312 
L 176.419985 7.2 
" clip-path="url(#p6b0483b5e2)" style="fill: none; stroke: #cccccc; stroke-width: 0.8; stroke-linecap: round"/>
     </g>
     <g id="line2d_6">
      <g>
       <use xlink:href="#m1014309c56" x="176.419985" y="273.312" style="fill: #262626; stroke: #262626"/>
      </g>
     </g>
     <g id="text_3">
      <!-- 100 -->
      <g style="fill: #262626" transform="translate(169.079548 287.910875) scale(0.088 -0.088)">
       <defs>
        <path id="ArialMT-31" d="M 2384 0 
L 1822 0 
L 1822 3584 
Q 1619 3391 1289 3197 
Q 959 3003 697 2906 
L 697 3450 
Q 1169 3672 1522 3987 
Q 1875 4303 2022 4600 
L 2384 4600 
L 2384 0 
z
" transform="scale(0.015625)"/>
       </defs>
       <use xlink:href="#ArialMT-31"/>
       <use xlink:href="#ArialMT-30" x="55.615234"/>
       <use xlink:href="#ArialMT-30" x="111.230469"/>
      </g>
     </g>
    </g>
    <g id="xtick_4">
     <g id="line2d_7">
      <path d="M 240.077739 273.312 
L 240.077739 7.2 
" clip-path="url(#p6b0483b5e2)" style="fill: none; stroke: #cccccc; stroke-width: 0.8; stroke-linecap: round"/>
     </g>
     <g id="line2d_8">
      <g>
       <use xlink:href="#m1014309c56" x="240.077739" y="273.312" style="fill: #262626; stroke: #262626"/>
      </g>
     </g>
     <g id="text_4">
      <!-- 150 -->
      <g style="fill: #262626" transform="translate(232.737302 287.910875) scale(0.088 -0.088)">
       <use xlink:href="#ArialMT-31"/>
       <use xlink:href="#ArialMT-35" x="55.615234"/>
       <use xlink:href="#ArialMT-30" x="111.230469"/>
      </g>
     </g>
    </g>
    <g id="xtick_5">
     <g id="line2d_9">
      <path d="M 303.735493 273.312 
L 303.735493 7.2 
" clip-path="url(#p6b0483b5e2)" style="fill: none; stroke: #cccccc; stroke-width: 0.8; stroke-linecap: round"/>
     </g>
     <g id="line2d_10">
      <g>
       <use xlink:href="#m1014309c56" x="303.735493" y="273.312" style="fill: #262626; stroke: #262626"/>
      </g>
     </g>
     <g id="text_5">
      <!-- 200 -->
      <g style="fill: #262626" transform="translate(296.395056 287.910875) scale(0.088 -0.088)">
       <defs>
        <path id="ArialMT-32" d="M 3222 541 
L 3222 0 
L 194 0 
Q 188 203 259 391 
Q 375 700 629 1000 
Q 884 1300 1366 1694 
Q 2113 2306 2375 2664 
Q 2638 3022 2638 3341 
Q 2638 3675 2398 3904 
Q 2159 4134 1775 4134 
Q 1369 4134 1125 3890 
Q 881 3647 878 3216 
L 300 3275 
Q 359 3922 746 4261 
Q 1134 4600 1788 4600 
Q 2447 4600 2831 4234 
Q 3216 3869 3216 3328 
Q 3216 3053 3103 2787 
Q 2991 2522 2730 2228 
Q 2469 1934 1863 1422 
Q 1356 997 1212 845 
Q 1069 694 975 541 
L 3222 541 
z
" transform="scale(0.015625)"/>
       </defs>
       <use xlink:href="#ArialMT-32"/>
       <use xlink:href="#ArialMT-30" x="55.615234"/>
       <use xlink:href="#ArialMT-30" x="111.230469"/>
      </g>
     </g>
    </g>
    <g id="xtick_6">
     <g id="line2d_11">
      <path d="M 367.393247 273.312 
L 367.393247 7.2 
" clip-path="url(#p6b0483b5e2)" style="fill: none; stroke: #cccccc; stroke-width: 0.8; stroke-linecap: round"/>
     </g>
     <g id="line2d_12">
      <g>
       <use xlink:href="#m1014309c56" x="367.393247" y="273.312" style="fill: #262626; stroke: #262626"/>
      </g>
     </g>
     <g id="text_6">
      <!-- 250 -->
      <g style="fill: #262626" transform="translate(360.05281 287.910875) scale(0.088 -0.088)">
       <use xlink:href="#ArialMT-32"/>
       <use xlink:href="#ArialMT-35" x="55.615234"/>
       <use xlink:href="#ArialMT-30" x="111.230469"/>
      </g>
     </g>
    </g>
   </g>
   <g id="matplotlib.axis_2">
    <g id="ytick_1">
     <g id="line2d_13">
      <path d="M 32.87175 253.604678 
L 389.99175 253.604678 
" clip-path="url(#p6b0483b5e2)" style="fill: none; stroke: #cccccc; stroke-width: 0.8; stroke-linecap: round"/>
     </g>
     <g id="line2d_14">
      <defs>
       <path id="m79a643181e" d="M 0 0 
L -4.8 0 
" style="stroke: #262626"/>
      </defs>
      <g>
       <use xlink:href="#m79a643181e" x="32.87175" y="253.604678" style="fill: #262626; stroke: #262626"/>
      </g>
     </g>
     <g id="text_7">
      <!-- −0.8 -->
      <g style="fill: #262626" transform="translate(7.2 256.754116) scale(0.088 -0.088)">
       <defs>
        <path id="ArialMT-2212" d="M 3381 1997 
L 356 1997 
L 356 2522 
L 3381 2522 
L 3381 1997 
z
" transform="scale(0.015625)"/>
        <path id="ArialMT-2e" d="M 581 0 
L 581 641 
L 1222 641 
L 1222 0 
L 581 0 
z
" transform="scale(0.015625)"/>
        <path id="ArialMT-38" d="M 1131 2484 
Q 781 2613 612 2850 
Q 444 3088 444 3419 
Q 444 3919 803 4259 
Q 1163 4600 1759 4600 
Q 2359 4600 2725 4251 
Q 3091 3903 3091 3403 
Q 3091 3084 2923 2848 
Q 2756 2613 2416 2484 
Q 2838 2347 3058 2040 
Q 3278 1734 3278 1309 
Q 3278 722 2862 322 
Q 2447 -78 1769 -78 
Q 1091 -78 675 323 
Q 259 725 259 1325 
Q 259 1772 486 2073 
Q 713 2375 1131 2484 
z
M 1019 3438 
Q 1019 3113 1228 2906 
Q 1438 2700 1772 2700 
Q 2097 2700 2305 2904 
Q 2513 3109 2513 3406 
Q 2513 3716 2298 3927 
Q 2084 4138 1766 4138 
Q 1444 4138 1231 3931 
Q 1019 3725 1019 3438 
z
M 838 1322 
Q 838 1081 952 856 
Q 1066 631 1291 507 
Q 1516 384 1775 384 
Q 2178 384 2440 643 
Q 2703 903 2703 1303 
Q 2703 1709 2433 1975 
Q 2163 2241 1756 2241 
Q 1359 2241 1098 1978 
Q 838 1716 838 1322 
z
" transform="scale(0.015625)"/>
       </defs>
       <use xlink:href="#ArialMT-2212"/>
       <use xlink:href="#ArialMT-30" x="58.398438"/>
       <use xlink:href="#ArialMT-2e" x="114.013672"/>
       <use xlink:href="#ArialMT-38" x="141.796875"/>
      </g>
     </g>
    </g>
    <g id="ytick_2">
     <g id="line2d_15">
      <path d="M 32.87175 220.25639 
L 389.99175 220.25639 
" clip-path="url(#p6b0483b5e2)" style="fill: none; stroke: #cccccc; stroke-width: 0.8; stroke-linecap: round"/>
     </g>
     <g id="line2d_16">
      <g>
       <use xlink:href="#m79a643181e" x="32.87175" y="220.25639" style="fill: #262626; stroke: #262626"/>
      </g>
     </g>
     <g id="text_8">
      <!-- −0.6 -->
      <g style="fill: #262626" transform="translate(7.2 223.405827) scale(0.088 -0.088)">
       <defs>
        <path id="ArialMT-36" d="M 3184 3459 
L 2625 3416 
Q 2550 3747 2413 3897 
Q 2184 4138 1850 4138 
Q 1581 4138 1378 3988 
Q 1113 3794 959 3422 
Q 806 3050 800 2363 
Q 1003 2672 1297 2822 
Q 1591 2972 1913 2972 
Q 2475 2972 2870 2558 
Q 3266 2144 3266 1488 
Q 3266 1056 3080 686 
Q 2894 316 2569 119 
Q 2244 -78 1831 -78 
Q 1128 -78 684 439 
Q 241 956 241 2144 
Q 241 3472 731 4075 
Q 1159 4600 1884 4600 
Q 2425 4600 2770 4297 
Q 3116 3994 3184 3459 
z
M 888 1484 
Q 888 1194 1011 928 
Q 1134 663 1356 523 
Q 1578 384 1822 384 
Q 2178 384 2434 671 
Q 2691 959 2691 1453 
Q 2691 1928 2437 2201 
Q 2184 2475 1800 2475 
Q 1419 2475 1153 2201 
Q 888 1928 888 1484 
z
" transform="scale(0.015625)"/>
       </defs>
       <use xlink:href="#ArialMT-2212"/>
       <use xlink:href="#ArialMT-30" x="58.398438"/>
       <use xlink:href="#ArialMT-2e" x="114.013672"/>
       <use xlink:href="#ArialMT-36" x="141.796875"/>
      </g>
     </g>
    </g>
    <g id="ytick_3">
     <g id="line2d_17">
      <path d="M 32.87175 186.908101 
L 389.99175 186.908101 
" clip-path="url(#p6b0483b5e2)" style="fill: none; stroke: #cccccc; stroke-width: 0.8; stroke-linecap: round"/>
     </g>
     <g id="line2d_18">
      <g>
       <use xlink:href="#m79a643181e" x="32.87175" y="186.908101" style="fill: #262626; stroke: #262626"/>
      </g>
     </g>
     <g id="text_9">
      <!-- −0.4 -->
      <g style="fill: #262626" transform="translate(7.2 190.057539) scale(0.088 -0.088)">
       <defs>
        <path id="ArialMT-34" d="M 2069 0 
L 2069 1097 
L 81 1097 
L 81 1613 
L 2172 4581 
L 2631 4581 
L 2631 1613 
L 3250 1613 
L 3250 1097 
L 2631 1097 
L 2631 0 
L 2069 0 
z
M 2069 1613 
L 2069 3678 
L 634 1613 
L 2069 1613 
z
" transform="scale(0.015625)"/>
       </defs>
       <use xlink:href="#ArialMT-2212"/>
       <use xlink:href="#ArialMT-30" x="58.398438"/>
       <use xlink:href="#ArialMT-2e" x="114.013672"/>
       <use xlink:href="#ArialMT-34" x="141.796875"/>
      </g>
     </g>
    </g>
    <g id="ytick_4">
     <g id="line2d_19">
      <path d="M 32.87175 153.559812 
L 389.99175 153.559812 
" clip-path="url(#p6b0483b5e2)" style="fill: none; stroke: #cccccc; stroke-width: 0.8; stroke-linecap: round"/>
     </g>
     <g id="line2d_20">
      <g>
       <use xlink:href="#m79a643181e" x="32.87175" y="153.559812" style="fill: #262626; stroke: #262626"/>
      </g>
     </g>
     <g id="text_10">
      <!-- −0.2 -->
      <g style="fill: #262626" transform="translate(7.2 156.70925) scale(0.088 -0.088)">
       <use xlink:href="#ArialMT-2212"/>
       <use xlink:href="#ArialMT-30" x="58.398438"/>
       <use xlink:href="#ArialMT-2e" x="114.013672"/>
       <use xlink:href="#ArialMT-32" x="141.796875"/>
      </g>
     </g>
    </g>
    <g id="ytick_5">
     <g id="line2d_21">
      <path d="M 32.87175 120.211524 
L 389.99175 120.211524 
" clip-path="url(#p6b0483b5e2)" style="fill: none; stroke: #cccccc; stroke-width: 0.8; stroke-linecap: round"/>
     </g>
     <g id="line2d_22">
      <g>
       <use xlink:href="#m79a643181e" x="32.87175" y="120.211524" style="fill: #262626; stroke: #262626"/>
      </g>
     </g>
     <g id="text_11">
      <!-- 0.0 -->
      <g style="fill: #262626" transform="translate(12.33975 123.360961) scale(0.088 -0.088)">
       <use xlink:href="#ArialMT-30"/>
       <use xlink:href="#ArialMT-2e" x="55.615234"/>
       <use xlink:href="#ArialMT-30" x="83.398438"/>
      </g>
     </g>
    </g>
    <g id="ytick_6">
     <g id="line2d_23">
      <path d="M 32.87175 86.863235 
L 389.99175 86.863235 
" clip-path="url(#p6b0483b5e2)" style="fill: none; stroke: #cccccc; stroke-width: 0.8; stroke-linecap: round"/>
     </g>
     <g id="line2d_24">
      <g>
       <use xlink:href="#m79a643181e" x="32.87175" y="86.863235" style="fill: #262626; stroke: #262626"/>
      </g>
     </g>
     <g id="text_12">
      <!-- 0.2 -->
      <g style="fill: #262626" transform="translate(12.33975 90.012673) scale(0.088 -0.088)">
       <use xlink:href="#ArialMT-30"/>
       <use xlink:href="#ArialMT-2e" x="55.615234"/>
       <use xlink:href="#ArialMT-32" x="83.398438"/>
      </g>
     </g>
    </g>
    <g id="ytick_7">
     <g id="line2d_25">
      <path d="M 32.87175 53.514947 
L 389.99175 53.514947 
" clip-path="url(#p6b0483b5e2)" style="fill: none; stroke: #cccccc; stroke-width: 0.8; stroke-linecap: round"/>
     </g>
     <g id="line2d_26">
      <g>
       <use xlink:href="#m79a643181e" x="32.87175" y="53.514947" style="fill: #262626; stroke: #262626"/>
      </g>
     </g>
     <g id="text_13">
      <!-- 0.4 -->
      <g style="fill: #262626" transform="translate(12.33975 56.664384) scale(0.088 -0.088)">
       <use xlink:href="#ArialMT-30"/>
       <use xlink:href="#ArialMT-2e" x="55.615234"/>
       <use xlink:href="#ArialMT-34" x="83.398438"/>
      </g>
     </g>
    </g>
    <g id="ytick_8">
     <g id="line2d_27">
      <path d="M 32.87175 20.166658 
L 389.99175 20.166658 
" clip-path="url(#p6b0483b5e2)" style="fill: none; stroke: #cccccc; stroke-width: 0.8; stroke-linecap: round"/>
     </g>
     <g id="line2d_28">
      <g>
       <use xlink:href="#m79a643181e" x="32.87175" y="20.166658" style="fill: #262626; stroke: #262626"/>
      </g>
     </g>
     <g id="text_14">
      <!-- 0.6 -->
      <g style="fill: #262626" transform="translate(12.33975 23.316096) scale(0.088 -0.088)">
       <use xlink:href="#ArialMT-30"/>
       <use xlink:href="#ArialMT-2e" x="55.615234"/>
       <use xlink:href="#ArialMT-36" x="83.398438"/>
      </g>
     </g>
    </g>
   </g>
   <g id="line2d_29">
    <path d="M 49.104477 156.016061 
L 51.650787 146.769257 
L 54.197098 138.399343 
L 55.470253 134.718786 
L 56.743408 131.473466 
L 58.016563 128.726005 
L 59.289718 126.514281 
L 60.562873 124.838803 
L 61.836028 123.65416 
L 63.109183 122.867372 
L 65.655493 121.926469 
L 66.928648 121.448386 
L 68.201803 120.764781 
L 69.474959 119.770378 
L 70.748114 118.415785 
L 72.021269 116.713721 
L 74.567579 112.591866 
L 77.113889 108.351852 
L 78.387044 106.489535 
L 79.660199 104.892052 
L 80.933354 103.563335 
L 83.479664 101.470434 
L 86.025975 99.40215 
L 87.29913 98.083845 
L 88.572285 96.461299 
L 89.84544 94.496711 
L 91.118595 92.195327 
L 93.664905 86.788586 
L 98.757525 75.238612 
L 100.03068 72.713075 
L 101.303836 70.457213 
L 102.576991 68.499091 
L 103.850146 66.844157 
L 105.123301 65.473864 
L 106.396456 64.344948 
L 108.942766 62.523196 
L 111.489076 60.653275 
L 112.762231 59.464838 
L 114.035386 58.023044 
L 115.308541 56.31632 
L 117.854852 52.331097 
L 120.401162 48.452951 
L 121.674317 46.988676 
L 122.947472 46.063315 
L 124.220627 45.790286 
L 125.493782 46.213538 
L 126.766937 47.295899 
L 128.040092 48.919566 
L 131.859557 54.988518 
L 133.132713 56.62314 
L 134.405868 57.719594 
L 135.679023 58.150333 
L 136.952178 57.856029 
L 138.225333 56.842412 
L 139.498488 55.16815 
L 140.771643 52.92734 
L 142.044798 50.23096 
L 144.591108 43.912594 
L 149.683729 30.21261 
L 150.956884 27.109051 
L 152.230039 24.358339 
L 153.503194 22.089157 
L 154.776349 20.425221 
L 156.049504 19.470667 
L 157.322659 19.296 
L 158.595814 19.928048 
L 159.868969 21.346505 
L 161.142124 23.488063 
L 162.415279 26.257276 
L 163.688434 29.541554 
L 166.234745 37.208816 
L 170.05421 50.128037 
L 172.60052 58.823022 
L 175.14683 66.628957 
L 176.419985 69.824985 
L 177.69314 72.333948 
L 178.966295 74.022406 
L 180.239451 74.811001 
L 181.512606 74.695659 
L 182.785761 73.758259 
L 184.058916 72.163204 
L 186.605226 67.948535 
L 187.878381 65.849869 
L 189.151536 64.060595 
L 190.424691 62.727309 
L 191.697846 61.909797 
L 192.971001 61.582043 
L 194.244156 61.649925 
L 195.517311 61.981603 
L 200.609932 63.895726 
L 201.883087 64.459562 
L 203.156242 65.210599 
L 204.429397 66.251272 
L 205.702552 67.644764 
L 206.975707 69.387094 
L 212.068328 77.22814 
L 213.341483 78.442106 
L 214.614638 79.068797 
L 215.887793 79.116926 
L 217.160948 78.708252 
L 219.707258 77.446313 
L 220.980413 77.143698 
L 222.253568 77.37493 
L 223.526723 78.259579 
L 224.799878 79.784117 
L 226.073033 81.797859 
L 228.619344 86.170479 
L 229.892499 87.865516 
L 231.165654 88.849145 
L 232.438809 88.964168 
L 233.711964 88.201708 
L 234.985119 86.705945 
L 238.804584 80.885783 
L 240.077739 79.671801 
L 241.350894 79.267058 
L 242.624049 79.761604 
L 243.897205 81.107393 
L 245.17036 83.139593 
L 247.71667 88.284601 
L 250.26298 93.330377 
L 251.536135 95.487861 
L 254.082445 99.169952 
L 256.628755 102.701599 
L 259.175066 106.639571 
L 261.721376 110.563034 
L 262.994531 112.176817 
L 264.267686 113.39031 
L 265.540841 114.1603 
L 266.813996 114.545813 
L 269.360306 114.925321 
L 270.633461 115.489242 
L 271.906616 116.716618 
L 273.179771 118.860523 
L 274.452926 122.068457 
L 275.726082 126.352315 
L 276.999237 131.583139 
L 279.545547 143.813632 
L 282.091857 156.194483 
L 283.365012 161.754817 
L 284.638167 166.73273 
L 287.184477 175.214507 
L 289.730787 183.083686 
L 291.003943 187.389054 
L 292.277098 192.173669 
L 293.550253 197.493919 
L 296.096563 209.443791 
L 299.916028 227.739634 
L 301.189183 233.093516 
L 302.462338 237.849076 
L 303.735493 241.975311 
L 305.008648 245.503949 
L 306.281803 248.509035 
L 307.554959 251.08177 
L 308.828114 253.306816 
L 310.101269 255.245231 
L 311.374424 256.927036 
L 312.647579 258.353804 
L 313.920734 259.509095 
L 315.193889 260.372869 
L 316.467044 260.935292 
L 317.740199 261.205952 
L 319.013354 261.216 
L 320.286509 261.012861 
L 321.559664 260.649201 
L 324.105975 259.597625 
L 325.37913 258.930394 
L 326.652285 258.136845 
L 327.92544 257.165979 
L 329.198595 255.959873 
L 330.47175 254.469475 
L 331.744905 252.66915 
L 333.01806 250.566327 
L 335.56437 245.653979 
L 340.656991 235.287929 
L 343.203301 230.690499 
L 348.295921 221.80753 
L 355.934852 207.86979 
L 361.027472 199.584676 
L 362.300627 197.171979 
L 363.573782 194.438038 
L 364.846937 191.32436 
L 366.120092 187.808597 
L 368.666402 179.663789 
L 371.212713 170.453571 
L 373.759023 160.814087 
L 373.759023 160.814087 
" clip-path="url(#p6b0483b5e2)" style="fill: none; stroke: #1f77b4; stroke-width: 1.2; stroke-linecap: round"/>
   </g>
   <g id="line2d_30">
    <path d="M 49.104477 144.959041 
L 56.743408 135.746997 
L 63.109183 128.382723 
L 70.748114 119.916835 
L 78.387044 111.815722 
L 86.025975 104.020687 
L 94.93806 95.252808 
L 102.576991 88.01039 
L 110.215921 81.065492 
L 116.581697 75.563824 
L 122.947472 70.380688 
L 128.040092 66.498167 
L 133.132713 62.873971 
L 138.225333 59.526272 
L 143.317953 56.473759 
L 148.410574 53.742216 
L 152.230039 51.927812 
L 156.049504 50.340872 
L 159.868969 49.013072 
L 163.688434 47.982286 
L 166.234745 47.480561 
L 168.781055 47.141627 
L 171.327365 46.976958 
L 173.873675 46.996324 
L 176.419985 47.206914 
L 178.966295 47.612505 
L 181.512606 48.212753 
L 184.058916 49.002711 
L 186.605226 49.972646 
L 190.424691 51.73251 
L 194.244156 53.799629 
L 199.336777 56.899929 
L 206.975707 61.921615 
L 226.073033 74.795382 
L 229.892499 77.662079 
L 233.711964 80.868225 
L 236.258274 83.286759 
L 238.804584 86.011897 
L 241.350894 89.12804 
L 243.897205 92.732132 
L 246.443515 96.9314 
L 248.989825 101.838074 
L 251.536135 107.559968 
L 254.082445 114.1862 
L 256.628755 121.768304 
L 259.175066 130.298782 
L 261.721376 139.691429 
L 265.540841 154.986447 
L 271.906616 181.182792 
L 274.452926 190.890856 
L 276.999237 199.696311 
L 279.545547 207.394562 
L 282.091857 213.874554 
L 283.365012 216.647107 
L 284.638167 219.111781 
L 285.911322 221.276097 
L 287.184477 223.150492 
L 288.457632 224.747631 
L 289.730787 226.081776 
L 291.003943 227.168219 
L 292.277098 228.022799 
L 293.550253 228.661501 
L 294.823408 229.10013 
L 296.096563 229.35406 
L 297.369718 229.438052 
L 298.642873 229.36612 
L 299.916028 229.151446 
L 301.189183 228.806339 
L 303.735493 227.769605 
L 306.281803 226.336781 
L 308.828114 224.575604 
L 311.374424 222.542133 
L 313.920734 220.282403 
L 317.740199 216.548982 
L 321.559664 212.488808 
L 326.652285 206.691514 
L 333.01806 198.998915 
L 340.656991 189.335141 
L 352.115386 174.394565 
L 366.120092 156.164388 
L 373.759023 146.531956 
L 373.759023 146.531956 
" clip-path="url(#p6b0483b5e2)" style="fill: none; stroke: #ff7f0e; stroke-width: 1.2; stroke-linecap: round"/>
   </g>
   <g id="line2d_31">
    <path d="M 49.104477 145.13872 
L 51.650787 142.662907 
L 52.923943 140.892199 
L 63.109183 128.512286 
L 65.655493 125.774009 
L 66.928648 124.546183 
L 72.021269 119.062067 
L 79.660199 110.672479 
L 82.206509 107.932507 
L 86.025975 104.222279 
L 88.572285 101.941367 
L 92.39175 98.218153 
L 97.48437 92.877176 
L 100.03068 90.228991 
L 103.850146 86.557256 
L 110.215921 80.955845 
L 115.308541 76.859587 
L 124.220627 69.03761 
L 128.040092 66.146717 
L 135.679023 60.984668 
L 140.771643 57.350529 
L 143.317953 55.79346 
L 144.591108 55.073975 
L 150.956884 52.191526 
L 157.322659 49.17402 
L 159.868969 48.232919 
L 162.415279 47.564981 
L 166.234745 46.885767 
L 168.781055 46.59966 
L 172.60052 46.427776 
L 175.14683 46.688418 
L 176.419985 46.918907 
L 178.966295 47.620745 
L 184.058916 48.437589 
L 185.332071 48.771176 
L 187.878381 49.845066 
L 189.151536 50.540656 
L 196.790467 55.533587 
L 205.702552 60.245054 
L 208.248862 62.117157 
L 212.068328 65.420116 
L 214.614638 67.039227 
L 217.160948 68.387091 
L 220.980413 70.161446 
L 222.253568 70.972078 
L 223.526723 71.966268 
L 226.073033 74.410456 
L 229.892499 78.428416 
L 232.438809 80.632801 
L 237.531429 84.416315 
L 238.804584 85.652341 
L 240.077739 87.121187 
L 242.624049 90.538401 
L 243.897205 92.454019 
L 246.443515 97.357096 
L 250.26298 105.202525 
L 252.80929 110.778756 
L 255.3556 117.595008 
L 257.90191 125.299677 
L 259.175066 129.644005 
L 261.721376 139.509826 
L 270.633461 176.432993 
L 275.726082 195.256657 
L 278.272392 203.765072 
L 280.818702 211.27463 
L 282.091857 214.635703 
L 283.365012 217.471336 
L 284.638167 219.837513 
L 285.911322 221.861818 
L 287.184477 223.518023 
L 288.457632 224.849147 
L 289.730787 226.001994 
L 292.277098 227.762935 
L 293.550253 228.489601 
L 294.823408 229.042808 
L 296.096563 229.4175 
L 297.369718 229.647076 
L 298.642873 229.572038 
L 299.916028 229.341426 
L 301.189183 228.986424 
L 302.462338 228.48075 
L 303.735493 227.831565 
L 305.008648 226.996148 
L 307.554959 225.070948 
L 313.920734 220.767056 
L 315.193889 219.638293 
L 317.740199 216.91178 
L 324.105975 209.578281 
L 327.92544 204.734449 
L 330.47175 201.585848 
L 335.56437 195.567839 
L 348.295921 179.07418 
L 354.661697 170.847188 
L 357.208007 167.72184 
L 361.027472 162.462021 
L 371.212713 149.290923 
L 373.759023 146.559035 
L 373.759023 146.559035 
" clip-path="url(#p6b0483b5e2)" style="fill: none; stroke: #2ca02c; stroke-width: 1.2; stroke-linecap: round"/>
   </g>
   <g id="patch_3">
    <path d="M 32.87175 273.312 
L 32.87175 7.2 
" style="fill: none; stroke: #262626; stroke-linejoin: miter; stroke-linecap: square"/>
   </g>
   <g id="patch_4">
    <path d="M 389.99175 273.312 
L 389.99175 7.2 
" style="fill: none; stroke: #262626; stroke-linejoin: miter; stroke-linecap: square"/>
   </g>
   <g id="patch_5">
    <path d="M 32.87175 273.312 
L 389.99175 273.312 
" style="fill: none; stroke: #262626; stroke-linejoin: miter; stroke-linecap: square"/>
   </g>
   <g id="patch_6">
    <path d="M 32.87175 7.2 
L 389.99175 7.2 
" style="fill: none; stroke: #262626; stroke-linejoin: miter; stroke-linecap: square"/>
   </g>
   <g id="legend_1">
    <g id="patch_7">
     <path d="M 296.498625 51.696375 
L 383.83175 51.696375 
Q 385.59175 51.696375 385.59175 49.936375 
L 385.59175 13.36 
Q 385.59175 11.6 383.83175 11.6 
L 296.498625 11.6 
Q 294.738625 11.6 294.738625 13.36 
L 294.738625 49.936375 
Q 294.738625 51.696375 296.498625 51.696375 
z
" style="fill: #ffffff; opacity: 0.8; stroke: #cccccc; stroke-width: 0.8; stroke-linejoin: miter"/>
    </g>
    <g id="line2d_32">
     <path d="M 298.258625 18.338875 
L 307.058625 18.338875 
L 315.858625 18.338875 
" style="fill: none; stroke: #1f77b4; stroke-width: 1.2; stroke-linecap: round"/>
    </g>
    <g id="text_15">
     <!-- Initial condition -->
     <g style="fill: #262626" transform="translate(322.898625 21.418875) scale(0.088 -0.088)">
      <defs>
       <path id="ArialMT-49" d="M 597 0 
L 597 4581 
L 1203 4581 
L 1203 0 
L 597 0 
z
" transform="scale(0.015625)"/>
       <path id="ArialMT-6e" d="M 422 0 
L 422 3319 
L 928 3319 
L 928 2847 
Q 1294 3394 1984 3394 
Q 2284 3394 2536 3286 
Q 2788 3178 2913 3003 
Q 3038 2828 3088 2588 
Q 3119 2431 3119 2041 
L 3119 0 
L 2556 0 
L 2556 2019 
Q 2556 2363 2490 2533 
Q 2425 2703 2258 2804 
Q 2091 2906 1866 2906 
Q 1506 2906 1245 2678 
Q 984 2450 984 1813 
L 984 0 
L 422 0 
z
" transform="scale(0.015625)"/>
       <path id="ArialMT-69" d="M 425 3934 
L 425 4581 
L 988 4581 
L 988 3934 
L 425 3934 
z
M 425 0 
L 425 3319 
L 988 3319 
L 988 0 
L 425 0 
z
" transform="scale(0.015625)"/>
       <path id="ArialMT-74" d="M 1650 503 
L 1731 6 
Q 1494 -44 1306 -44 
Q 1000 -44 831 53 
Q 663 150 594 308 
Q 525 466 525 972 
L 525 2881 
L 113 2881 
L 113 3319 
L 525 3319 
L 525 4141 
L 1084 4478 
L 1084 3319 
L 1650 3319 
L 1650 2881 
L 1084 2881 
L 1084 941 
Q 1084 700 1114 631 
Q 1144 563 1211 522 
Q 1278 481 1403 481 
Q 1497 481 1650 503 
z
" transform="scale(0.015625)"/>
       <path id="ArialMT-61" d="M 2588 409 
Q 2275 144 1986 34 
Q 1697 -75 1366 -75 
Q 819 -75 525 192 
Q 231 459 231 875 
Q 231 1119 342 1320 
Q 453 1522 633 1644 
Q 813 1766 1038 1828 
Q 1203 1872 1538 1913 
Q 2219 1994 2541 2106 
Q 2544 2222 2544 2253 
Q 2544 2597 2384 2738 
Q 2169 2928 1744 2928 
Q 1347 2928 1158 2789 
Q 969 2650 878 2297 
L 328 2372 
Q 403 2725 575 2942 
Q 747 3159 1072 3276 
Q 1397 3394 1825 3394 
Q 2250 3394 2515 3294 
Q 2781 3194 2906 3042 
Q 3031 2891 3081 2659 
Q 3109 2516 3109 2141 
L 3109 1391 
Q 3109 606 3145 398 
Q 3181 191 3288 0 
L 2700 0 
Q 2613 175 2588 409 
z
M 2541 1666 
Q 2234 1541 1622 1453 
Q 1275 1403 1131 1340 
Q 988 1278 909 1158 
Q 831 1038 831 891 
Q 831 666 1001 516 
Q 1172 366 1500 366 
Q 1825 366 2078 508 
Q 2331 650 2450 897 
Q 2541 1088 2541 1459 
L 2541 1666 
z
" transform="scale(0.015625)"/>
       <path id="ArialMT-6c" d="M 409 0 
L 409 4581 
L 972 4581 
L 972 0 
L 409 0 
z
" transform="scale(0.015625)"/>
       <path id="ArialMT-20" transform="scale(0.015625)"/>
       <path id="ArialMT-63" d="M 2588 1216 
L 3141 1144 
Q 3050 572 2676 248 
Q 2303 -75 1759 -75 
Q 1078 -75 664 370 
Q 250 816 250 1647 
Q 250 2184 428 2587 
Q 606 2991 970 3192 
Q 1334 3394 1763 3394 
Q 2303 3394 2647 3120 
Q 2991 2847 3088 2344 
L 2541 2259 
Q 2463 2594 2264 2762 
Q 2066 2931 1784 2931 
Q 1359 2931 1093 2626 
Q 828 2322 828 1663 
Q 828 994 1084 691 
Q 1341 388 1753 388 
Q 2084 388 2306 591 
Q 2528 794 2588 1216 
z
" transform="scale(0.015625)"/>
       <path id="ArialMT-6f" d="M 213 1659 
Q 213 2581 725 3025 
Q 1153 3394 1769 3394 
Q 2453 3394 2887 2945 
Q 3322 2497 3322 1706 
Q 3322 1066 3130 698 
Q 2938 331 2570 128 
Q 2203 -75 1769 -75 
Q 1072 -75 642 372 
Q 213 819 213 1659 
z
M 791 1659 
Q 791 1022 1069 705 
Q 1347 388 1769 388 
Q 2188 388 2466 706 
Q 2744 1025 2744 1678 
Q 2744 2294 2464 2611 
Q 2184 2928 1769 2928 
Q 1347 2928 1069 2612 
Q 791 2297 791 1659 
z
" transform="scale(0.015625)"/>
       <path id="ArialMT-64" d="M 2575 0 
L 2575 419 
Q 2259 -75 1647 -75 
Q 1250 -75 917 144 
Q 584 363 401 755 
Q 219 1147 219 1656 
Q 219 2153 384 2558 
Q 550 2963 881 3178 
Q 1213 3394 1622 3394 
Q 1922 3394 2156 3267 
Q 2391 3141 2538 2938 
L 2538 4581 
L 3097 4581 
L 3097 0 
L 2575 0 
z
M 797 1656 
Q 797 1019 1065 703 
Q 1334 388 1700 388 
Q 2069 388 2326 689 
Q 2584 991 2584 1609 
Q 2584 2291 2321 2609 
Q 2059 2928 1675 2928 
Q 1300 2928 1048 2622 
Q 797 2316 797 1656 
z
" transform="scale(0.015625)"/>
      </defs>
      <use xlink:href="#ArialMT-49"/>
      <use xlink:href="#ArialMT-6e" x="27.783203"/>
      <use xlink:href="#ArialMT-69" x="83.398438"/>
      <use xlink:href="#ArialMT-74" x="105.615234"/>
      <use xlink:href="#ArialMT-69" x="133.398438"/>
      <use xlink:href="#ArialMT-61" x="155.615234"/>
      <use xlink:href="#ArialMT-6c" x="211.230469"/>
      <use xlink:href="#ArialMT-20" x="233.447266"/>
      <use xlink:href="#ArialMT-63" x="261.230469"/>
      <use xlink:href="#ArialMT-6f" x="311.230469"/>
      <use xlink:href="#ArialMT-6e" x="366.845703"/>
      <use xlink:href="#ArialMT-64" x="422.460938"/>
      <use xlink:href="#ArialMT-69" x="478.076172"/>
      <use xlink:href="#ArialMT-74" x="500.292969"/>
      <use xlink:href="#ArialMT-69" x="528.076172"/>
      <use xlink:href="#ArialMT-6f" x="550.292969"/>
      <use xlink:href="#ArialMT-6e" x="605.908203"/>
     </g>
    </g>
    <g id="line2d_33">
     <path d="M 298.258625 30.78675 
L 307.058625 30.78675 
L 315.858625 30.78675 
" style="fill: none; stroke: #ff7f0e; stroke-width: 1.2; stroke-linecap: round"/>
    </g>
    <g id="text_16">
     <!-- Ground Truth -->
     <g style="fill: #262626" transform="translate(322.898625 33.86675) scale(0.088 -0.088)">
      <defs>
       <path id="ArialMT-47" d="M 2638 1797 
L 2638 2334 
L 4578 2338 
L 4578 638 
Q 4131 281 3656 101 
Q 3181 -78 2681 -78 
Q 2006 -78 1454 211 
Q 903 500 622 1047 
Q 341 1594 341 2269 
Q 341 2938 620 3517 
Q 900 4097 1425 4378 
Q 1950 4659 2634 4659 
Q 3131 4659 3532 4498 
Q 3934 4338 4162 4050 
Q 4391 3763 4509 3300 
L 3963 3150 
Q 3859 3500 3706 3700 
Q 3553 3900 3268 4020 
Q 2984 4141 2638 4141 
Q 2222 4141 1919 4014 
Q 1616 3888 1430 3681 
Q 1244 3475 1141 3228 
Q 966 2803 966 2306 
Q 966 1694 1177 1281 
Q 1388 869 1791 669 
Q 2194 469 2647 469 
Q 3041 469 3416 620 
Q 3791 772 3984 944 
L 3984 1797 
L 2638 1797 
z
" transform="scale(0.015625)"/>
       <path id="ArialMT-72" d="M 416 0 
L 416 3319 
L 922 3319 
L 922 2816 
Q 1116 3169 1280 3281 
Q 1444 3394 1641 3394 
Q 1925 3394 2219 3213 
L 2025 2691 
Q 1819 2813 1613 2813 
Q 1428 2813 1281 2702 
Q 1134 2591 1072 2394 
Q 978 2094 978 1738 
L 978 0 
L 416 0 
z
" transform="scale(0.015625)"/>
       <path id="ArialMT-75" d="M 2597 0 
L 2597 488 
Q 2209 -75 1544 -75 
Q 1250 -75 995 37 
Q 741 150 617 320 
Q 494 491 444 738 
Q 409 903 409 1263 
L 409 3319 
L 972 3319 
L 972 1478 
Q 972 1038 1006 884 
Q 1059 663 1231 536 
Q 1403 409 1656 409 
Q 1909 409 2131 539 
Q 2353 669 2445 892 
Q 2538 1116 2538 1541 
L 2538 3319 
L 3100 3319 
L 3100 0 
L 2597 0 
z
" transform="scale(0.015625)"/>
       <path id="ArialMT-54" d="M 1659 0 
L 1659 4041 
L 150 4041 
L 150 4581 
L 3781 4581 
L 3781 4041 
L 2266 4041 
L 2266 0 
L 1659 0 
z
" transform="scale(0.015625)"/>
       <path id="ArialMT-68" d="M 422 0 
L 422 4581 
L 984 4581 
L 984 2938 
Q 1378 3394 1978 3394 
Q 2347 3394 2619 3248 
Q 2891 3103 3008 2847 
Q 3125 2591 3125 2103 
L 3125 0 
L 2563 0 
L 2563 2103 
Q 2563 2525 2380 2717 
Q 2197 2909 1863 2909 
Q 1613 2909 1392 2779 
Q 1172 2650 1078 2428 
Q 984 2206 984 1816 
L 984 0 
L 422 0 
z
" transform="scale(0.015625)"/>
      </defs>
      <use xlink:href="#ArialMT-47"/>
      <use xlink:href="#ArialMT-72" x="77.783203"/>
      <use xlink:href="#ArialMT-6f" x="111.083984"/>
      <use xlink:href="#ArialMT-75" x="166.699219"/>
      <use xlink:href="#ArialMT-6e" x="222.314453"/>
      <use xlink:href="#ArialMT-64" x="277.929688"/>
      <use xlink:href="#ArialMT-20" x="333.544922"/>
      <use xlink:href="#ArialMT-54" x="359.578125"/>
      <use xlink:href="#ArialMT-72" x="416.912109"/>
      <use xlink:href="#ArialMT-75" x="450.212891"/>
      <use xlink:href="#ArialMT-74" x="505.828125"/>
      <use xlink:href="#ArialMT-68" x="533.611328"/>
     </g>
    </g>
    <g id="line2d_34">
     <path d="M 298.258625 43.347375 
L 307.058625 43.347375 
L 315.858625 43.347375 
" style="fill: none; stroke: #2ca02c; stroke-width: 1.2; stroke-linecap: round"/>
    </g>
    <g id="text_17">
     <!-- FNO prediction -->
     <g style="fill: #262626" transform="translate(322.898625 46.427375) scale(0.088 -0.088)">
      <defs>
       <path id="ArialMT-46" d="M 525 0 
L 525 4581 
L 3616 4581 
L 3616 4041 
L 1131 4041 
L 1131 2622 
L 3281 2622 
L 3281 2081 
L 1131 2081 
L 1131 0 
L 525 0 
z
" transform="scale(0.015625)"/>
       <path id="ArialMT-4e" d="M 488 0 
L 488 4581 
L 1109 4581 
L 3516 984 
L 3516 4581 
L 4097 4581 
L 4097 0 
L 3475 0 
L 1069 3600 
L 1069 0 
L 488 0 
z
" transform="scale(0.015625)"/>
       <path id="ArialMT-4f" d="M 309 2231 
Q 309 3372 921 4017 
Q 1534 4663 2503 4663 
Q 3138 4663 3647 4359 
Q 4156 4056 4423 3514 
Q 4691 2972 4691 2284 
Q 4691 1588 4409 1038 
Q 4128 488 3612 205 
Q 3097 -78 2500 -78 
Q 1853 -78 1343 234 
Q 834 547 571 1087 
Q 309 1628 309 2231 
z
M 934 2222 
Q 934 1394 1379 917 
Q 1825 441 2497 441 
Q 3181 441 3623 922 
Q 4066 1403 4066 2288 
Q 4066 2847 3877 3264 
Q 3688 3681 3323 3911 
Q 2959 4141 2506 4141 
Q 1863 4141 1398 3698 
Q 934 3256 934 2222 
z
" transform="scale(0.015625)"/>
       <path id="ArialMT-70" d="M 422 -1272 
L 422 3319 
L 934 3319 
L 934 2888 
Q 1116 3141 1344 3267 
Q 1572 3394 1897 3394 
Q 2322 3394 2647 3175 
Q 2972 2956 3137 2557 
Q 3303 2159 3303 1684 
Q 3303 1175 3120 767 
Q 2938 359 2589 142 
Q 2241 -75 1856 -75 
Q 1575 -75 1351 44 
Q 1128 163 984 344 
L 984 -1272 
L 422 -1272 
z
M 931 1641 
Q 931 1000 1190 694 
Q 1450 388 1819 388 
Q 2194 388 2461 705 
Q 2728 1022 2728 1688 
Q 2728 2322 2467 2637 
Q 2206 2953 1844 2953 
Q 1484 2953 1207 2617 
Q 931 2281 931 1641 
z
" transform="scale(0.015625)"/>
       <path id="ArialMT-65" d="M 2694 1069 
L 3275 997 
Q 3138 488 2766 206 
Q 2394 -75 1816 -75 
Q 1088 -75 661 373 
Q 234 822 234 1631 
Q 234 2469 665 2931 
Q 1097 3394 1784 3394 
Q 2450 3394 2872 2941 
Q 3294 2488 3294 1666 
Q 3294 1616 3291 1516 
L 816 1516 
Q 847 969 1125 678 
Q 1403 388 1819 388 
Q 2128 388 2347 550 
Q 2566 713 2694 1069 
z
M 847 1978 
L 2700 1978 
Q 2663 2397 2488 2606 
Q 2219 2931 1791 2931 
Q 1403 2931 1139 2672 
Q 875 2413 847 1978 
z
" transform="scale(0.015625)"/>
      </defs>
      <use xlink:href="#ArialMT-46"/>
      <use xlink:href="#ArialMT-4e" x="61.083984"/>
      <use xlink:href="#ArialMT-4f" x="133.300781"/>
      <use xlink:href="#ArialMT-20" x="211.083984"/>
      <use xlink:href="#ArialMT-70" x="238.867188"/>
      <use xlink:href="#ArialMT-72" x="294.482422"/>
      <use xlink:href="#ArialMT-65" x="327.783203"/>
      <use xlink:href="#ArialMT-64" x="383.398438"/>
      <use xlink:href="#ArialMT-69" x="439.013672"/>
      <use xlink:href="#ArialMT-63" x="461.230469"/>
      <use xlink:href="#ArialMT-74" x="511.230469"/>
      <use xlink:href="#ArialMT-69" x="539.013672"/>
      <use xlink:href="#ArialMT-6f" x="561.230469"/>
      <use xlink:href="#ArialMT-6e" x="616.845703"/>
     </g>
    </g>
   </g>
  </g>
 </g>
 <defs>
  <clipPath id="p6b0483b5e2">
   <rect x="32.87175" y="7.2" width="357.12" height="266.112"/>
  </clipPath>
 </defs>
</svg>