<?xml version="1.0" encoding="utf-8" standalone="no"?>
<!DOCTYPE svg PUBLIC "-//W3C//DTD SVG 1.1//EN"
  "http://www.w3.org/Graphics/SVG/1.1/DTD/svg11.dtd">
<svg xmlns:xlink="http://www.w3.org/1999/xlink" width="405.061pt" height="311.616549pt" viewBox="0 0 405.061 311.616549" xmlns="http://www.w3.org/2000/svg" version="1.1">
 <metadata>
  <rdf:RDF xmlns:dc="http://purl.org/dc/elements/1.1/" xmlns:cc="http://creativecommons.org/ns#" xmlns:rdf="http://www.w3.org/1999/02/22-rdf-syntax-ns#">
   <cc:Work>
    <dc:type rdf:resource="http://purl.org/dc/dcmitype/StillImage"/>
    <dc:date>2025-02-07T10:00:30.979830</dc:date>
    <dc:format>image/svg+xml</dc:format>
    <dc:creator>
     <cc:Agent>
      <dc:title>Matplotlib v3.9.2, https://matplotlib.org/</dc:title>
     </cc:Agent>
    </dc:creator>
   </cc:Work>
  </rdf:RDF>
 </metadata>
 <defs>
  <style type="text/css">*{stroke-linejoin: round; stroke-linecap: butt}</style>
 </defs>
 <g id="figure_1">
  <g id="patch_1">
   <path d="M 0 311.616549 
L 405.061 311.616549 
L 405.061 0 
L 0 0 
z
" style="fill: #ffffff"/>
  </g>
  <g id="axes_1">
   <g id="patch_2">
    <path d="M 40.741 275.289174 
L 397.861 275.289174 
L 397.861 9.177174 
L 40.741 9.177174 
z
" style="fill: #ffffff"/>
   </g>
   <g id="matplotlib.axis_1">
    <g id="xtick_1">
     <g id="line2d_1">
      <defs>
       <path id="m0777918b79" d="M 0 0 
L 0 4.8 
" style="stroke: #262626"/>
      </defs>
      <g>
       <use xlink:href="#m0777918b79" x="56.973727" y="275.289174" style="fill: #262626; stroke: #262626"/>
      </g>
     </g>
     <g id="text_1">
      <!-- 0 -->
      <g style="fill: #262626" transform="translate(54.526915 289.888049) scale(0.088 -0.088)">
       <defs>
        <path id="ArialMT-30" d="M 266 2259 
Q 266 3072 433 3567 
Q 600 4063 929 4331 
Q 1259 4600 1759 4600 
Q 2128 4600 2406 4451 
Q 2684 4303 2865 4023 
Q 3047 3744 3150 3342 
Q 3253 2941 3253 2259 
Q 3253 1453 3087 958 
Q 2922 463 2592 192 
Q 2263 -78 1759 -78 
Q 1097 -78 719 397 
Q 266 969 266 2259 
z
M 844 2259 
Q 844 1131 1108 757 
Q 1372 384 1759 384 
Q 2147 384 2411 759 
Q 2675 1134 2675 2259 
Q 2675 3391 2411 3762 
Q 2147 4134 1753 4134 
Q 1366 4134 1134 3806 
Q 844 3388 844 2259 
z
" transform="scale(0.015625)"/>
       </defs>
       <use xlink:href="#ArialMT-30"/>
      </g>
     </g>
    </g>
    <g id="xtick_2">
     <g id="line2d_2">
      <g>
       <use xlink:href="#m0777918b79" x="121.937134" y="275.289174" style="fill: #262626; stroke: #262626"/>
      </g>
     </g>
     <g id="text_2">
      <!-- 5 -->
      <g style="fill: #262626" transform="translate(119.490322 289.888049) scale(0.088 -0.088)">
       <defs>
        <path id="ArialMT-35" d="M 266 1200 
L 856 1250 
Q 922 819 1161 601 
Q 1400 384 1738 384 
Q 2144 384 2425 690 
Q 2706 997 2706 1503 
Q 2706 1984 2436 2262 
Q 2166 2541 1728 2541 
Q 1456 2541 1237 2417 
Q 1019 2294 894 2097 
L 366 2166 
L 809 4519 
L 3088 4519 
L 3088 3981 
L 1259 3981 
L 1013 2750 
Q 1425 3038 1878 3038 
Q 2478 3038 2890 2622 
Q 3303 2206 3303 1553 
Q 3303 931 2941 478 
Q 2500 -78 1738 -78 
Q 1113 -78 717 272 
Q 322 622 266 1200 
z
" transform="scale(0.015625)"/>
       </defs>
       <use xlink:href="#ArialMT-35"/>
      </g>
     </g>
    </g>
    <g id="xtick_3">
     <g id="line2d_3">
      <g>
       <use xlink:href="#m0777918b79" x="186.900541" y="275.289174" style="fill: #262626; stroke: #262626"/>
      </g>
     </g>
     <g id="text_3">
      <!-- 10 -->
      <g style="fill: #262626" transform="translate(182.006916 289.888049) scale(0.088 -0.088)">
       <defs>
        <path id="ArialMT-31" d="M 2384 0 
L 1822 0 
L 1822 3584 
Q 1619 3391 1289 3197 
Q 959 3003 697 2906 
L 697 3450 
Q 1169 3672 1522 3987 
Q 1875 4303 2022 4600 
L 2384 4600 
L 2384 0 
z
" transform="scale(0.015625)"/>
       </defs>
       <use xlink:href="#ArialMT-31"/>
       <use xlink:href="#ArialMT-30" x="55.615234"/>
      </g>
     </g>
    </g>
    <g id="xtick_4">
     <g id="line2d_4">
      <g>
       <use xlink:href="#m0777918b79" x="251.863948" y="275.289174" style="fill: #262626; stroke: #262626"/>
      </g>
     </g>
     <g id="text_4">
      <!-- 15 -->
      <g style="fill: #262626" transform="translate(246.970323 289.888049) scale(0.088 -0.088)">
       <use xlink:href="#ArialMT-31"/>
       <use xlink:href="#ArialMT-35" x="55.615234"/>
      </g>
     </g>
    </g>
    <g id="xtick_5">
     <g id="line2d_5">
      <g>
       <use xlink:href="#m0777918b79" x="316.827355" y="275.289174" style="fill: #262626; stroke: #262626"/>
      </g>
     </g>
     <g id="text_5">
      <!-- 20 -->
      <g style="fill: #262626" transform="translate(311.93373 289.888049) scale(0.088 -0.088)">
       <defs>
        <path id="ArialMT-32" d="M 3222 541 
L 3222 0 
L 194 0 
Q 188 203 259 391 
Q 375 700 629 1000 
Q 884 1300 1366 1694 
Q 2113 2306 2375 2664 
Q 2638 3022 2638 3341 
Q 2638 3675 2398 3904 
Q 2159 4134 1775 4134 
Q 1369 4134 1125 3890 
Q 881 3647 878 3216 
L 300 3275 
Q 359 3922 746 4261 
Q 1134 4600 1788 4600 
Q 2447 4600 2831 4234 
Q 3216 3869 3216 3328 
Q 3216 3053 3103 2787 
Q 2991 2522 2730 2228 
Q 2469 1934 1863 1422 
Q 1356 997 1212 845 
Q 1069 694 975 541 
L 3222 541 
z
" transform="scale(0.015625)"/>
       </defs>
       <use xlink:href="#ArialMT-32"/>
       <use xlink:href="#ArialMT-30" x="55.615234"/>
      </g>
     </g>
    </g>
    <g id="xtick_6">
     <g id="line2d_6">
      <g>
       <use xlink:href="#m0777918b79" x="381.790762" y="275.289174" style="fill: #262626; stroke: #262626"/>
      </g>
     </g>
     <g id="text_6">
      <!-- 25 -->
      <g style="fill: #262626" transform="translate(376.897137 289.888049) scale(0.088 -0.088)">
       <use xlink:href="#ArialMT-32"/>
       <use xlink:href="#ArialMT-35" x="55.615234"/>
      </g>
     </g>
    </g>
    <g id="text_7">
     <!-- t -->
     <g style="fill: #262626" transform="translate(217.9675 302.508549) scale(0.096 -0.096)">
      <defs>
       <path id="ArialMT-74" d="M 1650 503 
L 1731 6 
Q 1494 -44 1306 -44 
Q 1000 -44 831 53 
Q 663 150 594 308 
Q 525 466 525 972 
L 525 2881 
L 113 2881 
L 113 3319 
L 525 3319 
L 525 4141 
L 1084 4478 
L 1084 3319 
L 1650 3319 
L 1650 2881 
L 1084 2881 
L 1084 941 
Q 1084 700 1114 631 
Q 1144 563 1211 522 
Q 1278 481 1403 481 
Q 1497 481 1650 503 
z
" transform="scale(0.015625)"/>
      </defs>
      <use xlink:href="#ArialMT-74"/>
     </g>
    </g>
   </g>
   <g id="matplotlib.axis_2">
    <g id="ytick_1">
     <g id="line2d_7">
      <defs>
       <path id="m41d9e18353" d="M 0 0 
L -4.8 0 
" style="stroke: #262626"/>
      </defs>
      <g>
       <use xlink:href="#m41d9e18353" x="40.741" y="263.193174" style="fill: #262626; stroke: #262626"/>
      </g>
     </g>
     <g id="text_8">
      <!-- 0.0 -->
      <g style="fill: #262626" transform="translate(20.209 266.342611) scale(0.088 -0.088)">
       <defs>
        <path id="ArialMT-2e" d="M 581 0 
L 581 641 
L 1222 641 
L 1222 0 
L 581 0 
z
" transform="scale(0.015625)"/>
       </defs>
       <use xlink:href="#ArialMT-30"/>
       <use xlink:href="#ArialMT-2e" x="55.615234"/>
       <use xlink:href="#ArialMT-30" x="83.398438"/>
      </g>
     </g>
    </g>
    <g id="ytick_2">
     <g id="line2d_8">
      <g>
       <use xlink:href="#m41d9e18353" x="40.741" y="212.624427" style="fill: #262626; stroke: #262626"/>
      </g>
     </g>
     <g id="text_9">
      <!-- 0.1 -->
      <g style="fill: #262626" transform="translate(20.209 215.773864) scale(0.088 -0.088)">
       <use xlink:href="#ArialMT-30"/>
       <use xlink:href="#ArialMT-2e" x="55.615234"/>
       <use xlink:href="#ArialMT-31" x="83.398438"/>
      </g>
     </g>
    </g>
    <g id="ytick_3">
     <g id="line2d_9">
      <g>
       <use xlink:href="#m41d9e18353" x="40.741" y="162.055679" style="fill: #262626; stroke: #262626"/>
      </g>
     </g>
     <g id="text_10">
      <!-- 0.2 -->
      <g style="fill: #262626" transform="translate(20.209 165.205117) scale(0.088 -0.088)">
       <use xlink:href="#ArialMT-30"/>
       <use xlink:href="#ArialMT-2e" x="55.615234"/>
       <use xlink:href="#ArialMT-32" x="83.398438"/>
      </g>
     </g>
    </g>
    <g id="ytick_4">
     <g id="line2d_10">
      <g>
       <use xlink:href="#m41d9e18353" x="40.741" y="111.486932" style="fill: #262626; stroke: #262626"/>
      </g>
     </g>
     <g id="text_11">
      <!-- 0.3 -->
      <g style="fill: #262626" transform="translate(20.209 114.63637) scale(0.088 -0.088)">
       <defs>
        <path id="ArialMT-33" d="M 269 1209 
L 831 1284 
Q 928 806 1161 595 
Q 1394 384 1728 384 
Q 2125 384 2398 659 
Q 2672 934 2672 1341 
Q 2672 1728 2419 1979 
Q 2166 2231 1775 2231 
Q 1616 2231 1378 2169 
L 1441 2663 
Q 1497 2656 1531 2656 
Q 1891 2656 2178 2843 
Q 2466 3031 2466 3422 
Q 2466 3731 2256 3934 
Q 2047 4138 1716 4138 
Q 1388 4138 1169 3931 
Q 950 3725 888 3313 
L 325 3413 
Q 428 3978 793 4289 
Q 1159 4600 1703 4600 
Q 2078 4600 2393 4439 
Q 2709 4278 2876 4000 
Q 3044 3722 3044 3409 
Q 3044 3113 2884 2869 
Q 2725 2625 2413 2481 
Q 2819 2388 3044 2092 
Q 3269 1797 3269 1353 
Q 3269 753 2831 336 
Q 2394 -81 1725 -81 
Q 1122 -81 723 278 
Q 325 638 269 1209 
z
" transform="scale(0.015625)"/>
       </defs>
       <use xlink:href="#ArialMT-30"/>
       <use xlink:href="#ArialMT-2e" x="55.615234"/>
       <use xlink:href="#ArialMT-33" x="83.398438"/>
      </g>
     </g>
    </g>
    <g id="ytick_5">
     <g id="line2d_11">
      <g>
       <use xlink:href="#m41d9e18353" x="40.741" y="60.918185" style="fill: #262626; stroke: #262626"/>
      </g>
     </g>
     <g id="text_12">
      <!-- 0.4 -->
      <g style="fill: #262626" transform="translate(20.209 64.067622) scale(0.088 -0.088)">
       <defs>
        <path id="ArialMT-34" d="M 2069 0 
L 2069 1097 
L 81 1097 
L 81 1613 
L 2172 4581 
L 2631 4581 
L 2631 1613 
L 3250 1613 
L 3250 1097 
L 2631 1097 
L 2631 0 
L 2069 0 
z
M 2069 1613 
L 2069 3678 
L 634 1613 
L 2069 1613 
z
" transform="scale(0.015625)"/>
       </defs>
       <use xlink:href="#ArialMT-30"/>
       <use xlink:href="#ArialMT-2e" x="55.615234"/>
       <use xlink:href="#ArialMT-34" x="83.398438"/>
      </g>
     </g>
    </g>
    <g id="ytick_6">
     <g id="line2d_12">
      <g>
       <use xlink:href="#m41d9e18353" x="40.741" y="10.349437" style="fill: #262626; stroke: #262626"/>
      </g>
     </g>
     <g id="text_13">
      <!-- 0.5 -->
      <g style="fill: #262626" transform="translate(20.209 13.498875) scale(0.088 -0.088)">
       <use xlink:href="#ArialMT-30"/>
       <use xlink:href="#ArialMT-2e" x="55.615234"/>
       <use xlink:href="#ArialMT-35" x="83.398438"/>
      </g>
     </g>
    </g>
    <g id="text_14">
     <!-- x(t) -->
     <g style="fill: #262626" transform="translate(14.1885 149.163174) rotate(-90) scale(0.096 -0.096)">
      <defs>
       <path id="ArialMT-78" d="M 47 0 
L 1259 1725 
L 138 3319 
L 841 3319 
L 1350 2541 
Q 1494 2319 1581 2169 
Q 1719 2375 1834 2534 
L 2394 3319 
L 3066 3319 
L 1919 1756 
L 3153 0 
L 2463 0 
L 1781 1031 
L 1600 1309 
L 728 0 
L 47 0 
z
" transform="scale(0.015625)"/>
       <path id="ArialMT-28" d="M 1497 -1347 
Q 1031 -759 709 28 
Q 388 816 388 1659 
Q 388 2403 628 3084 
Q 909 3875 1497 4659 
L 1900 4659 
Q 1522 4009 1400 3731 
Q 1209 3300 1100 2831 
Q 966 2247 966 1656 
Q 966 153 1900 -1347 
L 1497 -1347 
z
" transform="scale(0.015625)"/>
       <path id="ArialMT-29" d="M 791 -1347 
L 388 -1347 
Q 1322 153 1322 1656 
Q 1322 2244 1188 2822 
Q 1081 3291 891 3722 
Q 769 4003 388 4659 
L 791 4659 
Q 1378 3875 1659 3084 
Q 1900 2403 1900 1659 
Q 1900 816 1576 28 
Q 1253 -759 791 -1347 
z
" transform="scale(0.015625)"/>
      </defs>
      <use xlink:href="#ArialMT-78"/>
      <use xlink:href="#ArialMT-28" x="50"/>
      <use xlink:href="#ArialMT-74" x="83.300781"/>
      <use xlink:href="#ArialMT-29" x="111.083984"/>
     </g>
    </g>
   </g>
   <g id="line2d_13">
    <path d="M 56.973727 263.193174 
L 58.923604 263.088793 
L 60.873482 262.782329 
L 63.148338 262.191575 
L 65.748174 261.256714 
L 68.99797 259.807463 
L 79.072335 255.071835 
L 84.272007 253.122237 
L 87.521803 251.780081 
L 90.121639 250.46368 
L 92.721475 248.903115 
L 99.221066 244.823961 
L 100.520984 244.320995 
L 101.495922 244.118509 
L 102.470861 244.108813 
L 103.445799 244.329312 
L 104.420738 244.81101 
L 105.395676 245.571255 
L 106.370615 246.603535 
L 107.670533 248.31776 
L 109.62041 250.944996 
L 110.270369 251.53354 
L 110.920328 251.810912 
L 111.570287 251.696481 
L 112.220247 251.162951 
L 112.870206 250.244607 
L 113.845144 248.31612 
L 115.470042 244.329399 
L 118.394857 237.064543 
L 120.344735 232.900028 
L 122.294612 229.2518 
L 125.544407 223.726635 
L 128.144243 219.627122 
L 129.444161 217.901821 
L 130.4191 216.91004 
L 131.069059 216.456929 
L 131.719018 216.215855 
L 132.368977 216.228119 
L 133.018936 216.535085 
L 133.668895 217.176146 
L 134.318854 218.186039 
L 134.968813 219.592071 
L 135.943752 222.476377 
L 136.91869 226.27817 
L 138.218609 232.560716 
L 140.493465 244.204101 
L 141.143424 246.329317 
L 141.468404 246.898937 
L 141.793383 247.070451 
L 142.118363 246.826965 
L 142.443342 246.187834 
L 143.093301 243.932698 
L 144.06824 239.04697 
L 147.643015 219.560415 
L 148.942933 213.855985 
L 150.242851 209.009359 
L 151.867749 203.914963 
L 153.492646 199.555288 
L 155.442523 194.913223 
L 157.3924 190.805443 
L 158.692319 188.509262 
L 159.667257 187.155623 
L 160.642196 186.238 
L 161.292155 185.926806 
L 161.942114 185.896718 
L 162.592073 186.179978 
L 163.242032 186.804793 
L 163.891991 187.793217 
L 164.54195 189.159734 
L 165.516889 191.926851 
L 166.491827 195.525664 
L 167.791745 201.4534 
L 169.741622 211.861225 
L 171.36652 220.365482 
L 172.341459 224.49221 
L 172.991418 226.519248 
L 173.641377 227.808999 
L 173.966356 228.149287 
L 174.291336 228.280288 
L 174.616315 228.203718 
L 174.941295 227.926267 
L 175.591254 226.816554 
L 176.241213 225.075313 
L 177.216152 221.598839 
L 178.841049 214.572203 
L 182.415824 198.789397 
L 184.365701 191.325358 
L 185.990599 185.890109 
L 187.615496 181.17367 
L 189.240394 177.184549 
L 190.540312 174.535233 
L 191.84023 172.39073 
L 192.815169 171.127417 
L 193.790107 170.168915 
L 194.765046 169.520252 
L 195.739984 169.18242 
L 196.714923 169.151555 
L 197.689862 169.41866 
L 198.6648 169.969576 
L 199.639739 170.785373 
L 200.939657 172.244854 
L 202.239575 174.070717 
L 203.864473 176.762149 
L 206.139329 181.043264 
L 212.963899 194.276488 
L 214.913776 197.438101 
L 216.538674 199.674459 
L 217.838592 201.149692 
L 219.13851 202.304455 
L 220.113449 202.936967 
L 221.088387 203.351331 
L 222.063326 203.532044 
L 223.038265 203.464723 
L 224.013203 203.136763 
L 224.988142 202.538024 
L 225.96308 201.661488 
L 226.938019 200.503764 
L 228.237937 198.524711 
L 229.537855 196.061743 
L 230.837773 193.143362 
L 232.462671 188.921279 
L 234.412548 183.165349 
L 237.337364 173.6587 
L 241.237118 160.9993 
L 243.186995 155.437683 
L 244.811893 151.510571 
L 246.111811 148.949312 
L 247.086749 147.413491 
L 248.061688 146.235651 
L 249.036627 145.436401 
L 249.686586 145.122306 
L 250.336545 144.987966 
L 250.986504 145.036644 
L 251.636463 145.270887 
L 252.286422 145.692519 
L 253.26136 146.678623 
L 254.236299 148.089372 
L 255.211238 149.921 
L 256.186176 152.164343 
L 257.486094 155.766729 
L 258.786012 160.005684 
L 260.41091 166.027083 
L 264.635644 182.297701 
L 265.610582 185.149763 
L 266.260541 186.614594 
L 266.9105 187.648426 
L 267.560459 188.189606 
L 267.885439 188.259865 
L 268.210419 188.190457 
L 268.535398 187.978443 
L 269.185357 187.121684 
L 269.835316 185.694447 
L 270.485275 183.72331 
L 271.460214 179.850414 
L 272.760132 173.310139 
L 274.385029 163.723706 
L 278.609763 138.13089 
L 280.234661 129.933747 
L 281.534579 124.48608 
L 282.509518 121.130778 
L 283.484456 118.443694 
L 284.459395 116.45298 
L 285.109354 115.523572 
L 285.759313 114.91835 
L 286.409272 114.641306 
L 287.059231 114.695379 
L 287.70919 115.082364 
L 288.359149 115.802756 
L 289.009108 116.855291 
L 289.984047 119.049293 
L 290.958985 121.961337 
L 291.933924 125.553173 
L 293.233842 131.294386 
L 294.85874 139.684668 
L 299.083473 162.465577 
L 300.058412 166.397709 
L 300.708371 168.425074 
L 301.35833 169.889694 
L 302.008289 170.734269 
L 302.333269 170.91211 
L 302.658248 170.923714 
L 302.983228 170.768735 
L 303.308207 170.448506 
L 303.958166 169.325493 
L 304.608125 167.595788 
L 305.583064 163.999597 
L 306.558002 159.43171 
L 308.1829 150.41002 
L 312.732613 124.057877 
L 314.032532 117.848327 
L 315.33245 112.640239 
L 316.307388 109.468226 
L 317.282327 106.966692 
L 318.257265 105.158846 
L 318.907224 104.345121 
L 319.557183 103.845588 
L 320.207143 103.658516 
L 320.857102 103.779865 
L 321.507061 104.20326 
L 322.15702 104.919961 
L 322.806979 105.918859 
L 323.781917 107.915782 
L 324.756856 110.460177 
L 326.056774 114.584309 
L 327.681672 120.635149 
L 333.206324 142.334678 
L 334.506242 146.169099 
L 335.48118 148.419646 
L 336.456119 150.067683 
L 337.106078 150.815331 
L 337.756037 151.279281 
L 338.405996 151.46352 
L 339.055955 151.377579 
L 339.705914 151.035905 
L 340.355873 150.457139 
L 341.330812 149.193291 
L 342.30575 147.529716 
L 343.605668 144.844614 
L 345.880525 139.443364 
L 348.805341 132.504892 
L 350.430238 129.150148 
L 351.730156 126.863145 
L 353.030075 124.978333 
L 354.329993 123.517142 
L 355.304931 122.701186 
L 356.27987 122.120046 
L 357.254808 121.764424 
L 358.229747 121.621584 
L 359.204686 121.676095 
L 360.179624 121.910473 
L 361.479542 122.469896 
L 362.77946 123.2684 
L 364.404358 124.530493 
L 366.679215 126.631207 
L 375.128682 134.824568 
L 377.403539 136.55786 
L 379.353416 137.757771 
L 380.978314 138.519887 
L 381.628273 138.756911 
L 381.628273 138.756911 
" clip-path="url(#p0588b2ee8e)" style="fill: none; stroke: #1f77b4; stroke-width: 1.2; stroke-linecap: round"/>
   </g>
   <g id="line2d_14">
    <path d="M 56.973727 263.193174 
L 58.923604 263.088739 
L 60.873482 262.782118 
L 63.148338 262.191089 
L 65.748174 261.25589 
L 68.99797 259.806465 
L 79.072335 255.073914 
L 89.1467 250.959758 
L 91.746536 249.467114 
L 94.996332 247.318792 
L 98.246127 245.209329 
L 99.871025 244.406333 
L 101.170943 244.019575 
L 102.145881 243.940162 
L 103.12082 244.086895 
L 104.095758 244.496777 
L 105.070697 245.196175 
L 106.045636 246.191188 
L 107.345554 247.922143 
L 109.62041 251.229637 
L 110.270369 251.864265 
L 110.920328 252.157209 
L 111.245308 252.145254 
L 111.895267 251.776831 
L 112.545226 250.967991 
L 113.195185 249.793155 
L 114.170124 247.562967 
L 119.369796 234.62258 
L 121.319673 230.769109 
L 123.919509 226.205264 
L 128.469223 218.638865 
L 129.769141 216.81523 
L 130.744079 215.764365 
L 131.394038 215.289015 
L 132.043998 215.04782 
L 132.693957 215.090714 
L 133.343916 215.469258 
L 133.993875 216.234069 
L 134.643834 217.432188 
L 135.293793 219.103458 
L 135.943752 221.276888 
L 136.91869 225.503902 
L 137.893629 230.846582 
L 139.193547 239.349767 
L 140.818445 250.029816 
L 141.143424 251.501458 
L 141.468404 252.397481 
L 141.793383 252.55146 
L 142.118363 251.927434 
L 142.443342 250.647564 
L 143.093301 246.861369 
L 146.993056 220.947628 
L 148.292974 214.529032 
L 149.592892 209.339365 
L 150.89281 205.118122 
L 152.517708 200.743461 
L 154.792564 195.392064 
L 159.017298 186.002365 
L 160.317216 183.605072 
L 161.292155 182.249178 
L 161.942114 181.648006 
L 162.592073 181.352332 
L 163.242032 181.417964 
L 163.891991 181.90056 
L 164.54195 182.852903 
L 165.191909 184.32206 
L 165.841868 186.347411 
L 166.491827 188.957146 
L 167.466766 193.995921 
L 168.441704 200.3597 
L 169.741622 210.686885 
L 171.6915 228.680596 
L 172.991418 240.062527 
L 173.641377 244.13927 
L 173.966356 245.354249 
L 174.291336 245.850515 
L 174.616315 245.580217 
L 174.941295 244.596628 
L 175.591254 241.027342 
L 176.566192 233.62918 
L 179.166029 212.951437 
L 180.465947 204.153011 
L 181.765865 196.659522 
L 183.065783 190.379309 
L 184.365701 185.137101 
L 185.665619 180.729697 
L 187.290517 176.095553 
L 188.915414 172.130096 
L 190.865292 167.919014 
L 193.465128 162.873674 
L 195.739984 158.939483 
L 197.364882 156.515867 
L 198.6648 154.907805 
L 199.964718 153.682962 
L 200.939657 153.069531 
L 201.914595 152.760673 
L 202.564554 152.742726 
L 203.214514 152.888251 
L 203.864473 153.207665 
L 204.514432 153.711286 
L 205.48937 154.832808 
L 206.464309 156.419323 
L 207.439247 158.496669 
L 208.414186 161.085775 
L 209.389124 164.203193 
L 210.689043 169.200522 
L 211.988961 175.168089 
L 213.288879 182.099727 
L 214.913776 192.078253 
L 216.538674 203.420734 
L 218.488551 218.591156 
L 222.713285 252.501113 
L 223.038265 253.757999 
L 223.363244 254.090645 
L 223.688224 253.394208 
L 224.013203 251.850949 
L 224.663162 247.303509 
L 226.28806 233.212682 
L 229.862835 201.648052 
L 231.812712 186.217589 
L 233.437609 174.836544 
L 235.062507 164.982619 
L 236.362425 158.247585 
L 237.662343 152.522723 
L 238.962261 147.758435 
L 240.262179 143.872389 
L 241.562097 140.757263 
L 242.862016 138.29038 
L 244.161934 136.343754 
L 245.461852 134.795837 
L 247.086749 133.265341 
L 248.711647 132.058456 
L 250.336545 131.137612 
L 251.636463 130.663921 
L 252.611401 130.534569 
L 253.58634 130.680908 
L 254.236299 130.979579 
L 254.886258 131.480012 
L 255.536217 132.221787 
L 256.186176 133.249477 
L 256.836135 134.610855 
L 257.486094 136.357268 
L 258.461033 139.8175 
L 259.435971 144.45138 
L 260.41091 150.438738 
L 261.385848 157.938226 
L 262.360787 167.068297 
L 263.660705 181.857509 
L 264.960623 199.470448 
L 267.885439 241.87188 
L 268.210419 244.206356 
L 268.535398 244.724212 
L 268.860378 243.244569 
L 269.185357 240.133909 
L 269.835316 231.122916 
L 274.385029 159.607766 
L 275.684948 144.255226 
L 276.984866 131.884613 
L 277.959804 124.426174 
L 278.934743 118.332599 
L 279.909681 113.387963 
L 280.88462 109.36169 
L 282.184538 105.036104 
L 283.484456 101.478546 
L 285.434333 96.855623 
L 287.70919 92.04677 
L 289.009108 89.812469 
L 289.659067 88.978456 
L 290.309026 88.424052 
L 290.958985 88.23164 
L 291.283965 88.30005 
L 291.608944 88.494577 
L 292.258903 89.315939 
L 292.908862 90.805568 
L 293.558821 93.078735 
L 294.208781 96.250698 
L 294.85874 100.434523 
L 295.508699 105.733887 
L 296.483637 115.968362 
L 297.458576 129.129733 
L 298.433514 145.292009 
L 299.733432 171.292425 
L 301.35833 209.593495 
L 302.983228 248.935881 
L 303.308207 252.688967 
L 303.633187 250.114266 
L 304.283146 235.875315 
L 306.882982 173.422917 
L 308.1829 147.131457 
L 309.482818 125.272505 
L 310.782736 107.819604 
L 311.757675 97.36753 
L 312.732613 88.868059 
L 313.707552 81.999411 
L 314.682491 76.432399 
L 315.982409 70.498004 
L 317.282327 65.685719 
L 318.907224 60.527068 
L 321.182081 54.047652 
L 322.806979 49.961517 
L 323.781917 47.949134 
L 324.756856 46.488686 
L 325.406815 45.937277 
L 326.056774 45.816339 
L 326.381753 45.94391 
L 326.706733 46.21201 
L 327.356692 47.214583 
L 328.006651 48.91697 
L 328.65661 51.411675 
L 329.306569 54.787436 
L 329.956528 59.128141 
L 330.931467 67.605235 
L 331.906405 78.607993 
L 332.881344 92.241148 
L 334.181262 114.485119 
L 335.48118 141.020186 
L 337.106078 178.940631 
L 339.380934 233.934828 
L 339.705914 239.936198 
L 340.030894 243.752509 
L 340.355873 244.052997 
L 340.680853 240.747144 
L 341.330812 228.402744 
L 345.230566 143.304332 
L 346.530484 120.504593 
L 347.830402 101.25099 
L 349.13032 85.395456 
L 350.430238 72.615153 
L 351.730156 62.485975 
L 353.030075 54.544626 
L 354.329993 48.333308 
L 355.629911 43.431064 
L 356.929829 39.473265 
L 358.229747 36.164635 
L 359.854645 32.607482 
L 361.804522 28.850364 
L 363.754399 25.535229 
L 365.054317 23.658933 
L 366.029256 22.519484 
L 367.004194 21.69828 
L 367.654153 21.376352 
L 368.304112 21.273174 
L 368.954071 21.425542 
L 369.60403 21.872362 
L 370.253989 22.655713 
L 370.903948 23.819639 
L 371.553907 25.408958 
L 372.203867 27.4706 
L 373.178805 31.552132 
L 374.153744 36.961369 
L 375.128682 43.852075 
L 376.103621 52.364598 
L 377.078559 62.621247 
L 378.378477 79.168163 
L 379.678396 99.102136 
L 380.978314 122.398701 
L 381.628273 135.252106 
L 381.628273 135.252106 
" clip-path="url(#p0588b2ee8e)" style="fill: none; stroke-dasharray: 4.44,1.92; stroke-dashoffset: 0; stroke: #ff7f0e; stroke-width: 1.2"/>
   </g>
   <g id="patch_3">
    <path d="M 40.741 263.193174 
L 40.741 10.349437 
" style="fill: none; stroke: #262626; stroke-linejoin: miter; stroke-linecap: square"/>
   </g>
   <g id="patch_4">
    <path d="M 56.973727 275.289174 
L 381.790762 275.289174 
" style="fill: none; stroke: #262626; stroke-linejoin: miter; stroke-linecap: square"/>
   </g>
   <g id="legend_1">
    <g id="line2d_15">
     <path d="M 48.661 20.423299 
L 57.461 20.423299 
L 66.261 20.423299 
" style="fill: none; stroke: #1f77b4; stroke-width: 1.2; stroke-linecap: round"/>
    </g>
    <g id="text_15">
     <!-- x (Monte Carlo) -->
     <g style="fill: #262626" transform="translate(73.301 23.503299) scale(0.088 -0.088)">
      <defs>
       <path id="ArialMT-20" transform="scale(0.015625)"/>
       <path id="ArialMT-4d" d="M 475 0 
L 475 4581 
L 1388 4581 
L 2472 1338 
Q 2622 884 2691 659 
Q 2769 909 2934 1394 
L 4031 4581 
L 4847 4581 
L 4847 0 
L 4263 0 
L 4263 3834 
L 2931 0 
L 2384 0 
L 1059 3900 
L 1059 0 
L 475 0 
z
" transform="scale(0.015625)"/>
       <path id="ArialMT-6f" d="M 213 1659 
Q 213 2581 725 3025 
Q 1153 3394 1769 3394 
Q 2453 3394 2887 2945 
Q 3322 2497 3322 1706 
Q 3322 1066 3130 698 
Q 2938 331 2570 128 
Q 2203 -75 1769 -75 
Q 1072 -75 642 372 
Q 213 819 213 1659 
z
M 791 1659 
Q 791 1022 1069 705 
Q 1347 388 1769 388 
Q 2188 388 2466 706 
Q 2744 1025 2744 1678 
Q 2744 2294 2464 2611 
Q 2184 2928 1769 2928 
Q 1347 2928 1069 2612 
Q 791 2297 791 1659 
z
" transform="scale(0.015625)"/>
       <path id="ArialMT-6e" d="M 422 0 
L 422 3319 
L 928 3319 
L 928 2847 
Q 1294 3394 1984 3394 
Q 2284 3394 2536 3286 
Q 2788 3178 2913 3003 
Q 3038 2828 3088 2588 
Q 3119 2431 3119 2041 
L 3119 0 
L 2556 0 
L 2556 2019 
Q 2556 2363 2490 2533 
Q 2425 2703 2258 2804 
Q 2091 2906 1866 2906 
Q 1506 2906 1245 2678 
Q 984 2450 984 1813 
L 984 0 
L 422 0 
z
" transform="scale(0.015625)"/>
       <path id="ArialMT-65" d="M 2694 1069 
L 3275 997 
Q 3138 488 2766 206 
Q 2394 -75 1816 -75 
Q 1088 -75 661 373 
Q 234 822 234 1631 
Q 234 2469 665 2931 
Q 1097 3394 1784 3394 
Q 2450 3394 2872 2941 
Q 3294 2488 3294 1666 
Q 3294 1616 3291 1516 
L 816 1516 
Q 847 969 1125 678 
Q 1403 388 1819 388 
Q 2128 388 2347 550 
Q 2566 713 2694 1069 
z
M 847 1978 
L 2700 1978 
Q 2663 2397 2488 2606 
Q 2219 2931 1791 2931 
Q 1403 2931 1139 2672 
Q 875 2413 847 1978 
z
" transform="scale(0.015625)"/>
       <path id="ArialMT-43" d="M 3763 1606 
L 4369 1453 
Q 4178 706 3683 314 
Q 3188 -78 2472 -78 
Q 1731 -78 1267 223 
Q 803 525 561 1097 
Q 319 1669 319 2325 
Q 319 3041 592 3573 
Q 866 4106 1370 4382 
Q 1875 4659 2481 4659 
Q 3169 4659 3637 4309 
Q 4106 3959 4291 3325 
L 3694 3184 
Q 3534 3684 3231 3912 
Q 2928 4141 2469 4141 
Q 1941 4141 1586 3887 
Q 1231 3634 1087 3207 
Q 944 2781 944 2328 
Q 944 1744 1114 1308 
Q 1284 872 1643 656 
Q 2003 441 2422 441 
Q 2931 441 3284 734 
Q 3638 1028 3763 1606 
z
" transform="scale(0.015625)"/>
       <path id="ArialMT-61" d="M 2588 409 
Q 2275 144 1986 34 
Q 1697 -75 1366 -75 
Q 819 -75 525 192 
Q 231 459 231 875 
Q 231 1119 342 1320 
Q 453 1522 633 1644 
Q 813 1766 1038 1828 
Q 1203 1872 1538 1913 
Q 2219 1994 2541 2106 
Q 2544 2222 2544 2253 
Q 2544 2597 2384 2738 
Q 2169 2928 1744 2928 
Q 1347 2928 1158 2789 
Q 969 2650 878 2297 
L 328 2372 
Q 403 2725 575 2942 
Q 747 3159 1072 3276 
Q 1397 3394 1825 3394 
Q 2250 3394 2515 3294 
Q 2781 3194 2906 3042 
Q 3031 2891 3081 2659 
Q 3109 2516 3109 2141 
L 3109 1391 
Q 3109 606 3145 398 
Q 3181 191 3288 0 
L 2700 0 
Q 2613 175 2588 409 
z
M 2541 1666 
Q 2234 1541 1622 1453 
Q 1275 1403 1131 1340 
Q 988 1278 909 1158 
Q 831 1038 831 891 
Q 831 666 1001 516 
Q 1172 366 1500 366 
Q 1825 366 2078 508 
Q 2331 650 2450 897 
Q 2541 1088 2541 1459 
L 2541 1666 
z
" transform="scale(0.015625)"/>
       <path id="ArialMT-72" d="M 416 0 
L 416 3319 
L 922 3319 
L 922 2816 
Q 1116 3169 1280 3281 
Q 1444 3394 1641 3394 
Q 1925 3394 2219 3213 
L 2025 2691 
Q 1819 2813 1613 2813 
Q 1428 2813 1281 2702 
Q 1134 2591 1072 2394 
Q 978 2094 978 1738 
L 978 0 
L 416 0 
z
" transform="scale(0.015625)"/>
       <path id="ArialMT-6c" d="M 409 0 
L 409 4581 
L 972 4581 
L 972 0 
L 409 0 
z
" transform="scale(0.015625)"/>
      </defs>
      <use xlink:href="#ArialMT-78"/>
      <use xlink:href="#ArialMT-20" x="50"/>
      <use xlink:href="#ArialMT-28" x="77.783203"/>
      <use xlink:href="#ArialMT-4d" x="111.083984"/>
      <use xlink:href="#ArialMT-6f" x="194.384766"/>
      <use xlink:href="#ArialMT-6e" x="250"/>
      <use xlink:href="#ArialMT-74" x="305.615234"/>
      <use xlink:href="#ArialMT-65" x="333.398438"/>
      <use xlink:href="#ArialMT-20" x="389.013672"/>
      <use xlink:href="#ArialMT-43" x="416.796875"/>
      <use xlink:href="#ArialMT-61" x="489.013672"/>
      <use xlink:href="#ArialMT-72" x="544.628906"/>
      <use xlink:href="#ArialMT-6c" x="577.929688"/>
      <use xlink:href="#ArialMT-6f" x="600.146484"/>
      <use xlink:href="#ArialMT-29" x="655.761719"/>
     </g>
    </g>
    <g id="line2d_16">
     <path d="M 48.661 33.081549 
L 57.461 33.081549 
L 66.261 33.081549 
" style="fill: none; stroke-dasharray: 4.44,1.92; stroke-dashoffset: 0; stroke: #ff7f0e; stroke-width: 1.2"/>
    </g>
    <g id="text_16">
     <!-- x (Local sensitivity) -->
     <g style="fill: #262626" transform="translate(73.301 36.161549) scale(0.088 -0.088)">
      <defs>
       <path id="ArialMT-4c" d="M 469 0 
L 469 4581 
L 1075 4581 
L 1075 541 
L 3331 541 
L 3331 0 
L 469 0 
z
" transform="scale(0.015625)"/>
       <path id="ArialMT-63" d="M 2588 1216 
L 3141 1144 
Q 3050 572 2676 248 
Q 2303 -75 1759 -75 
Q 1078 -75 664 370 
Q 250 816 250 1647 
Q 250 2184 428 2587 
Q 606 2991 970 3192 
Q 1334 3394 1763 3394 
Q 2303 3394 2647 3120 
Q 2991 2847 3088 2344 
L 2541 2259 
Q 2463 2594 2264 2762 
Q 2066 2931 1784 2931 
Q 1359 2931 1093 2626 
Q 828 2322 828 1663 
Q 828 994 1084 691 
Q 1341 388 1753 388 
Q 2084 388 2306 591 
Q 2528 794 2588 1216 
z
" transform="scale(0.015625)"/>
       <path id="ArialMT-73" d="M 197 991 
L 753 1078 
Q 800 744 1014 566 
Q 1228 388 1613 388 
Q 2000 388 2187 545 
Q 2375 703 2375 916 
Q 2375 1106 2209 1216 
Q 2094 1291 1634 1406 
Q 1016 1563 777 1677 
Q 538 1791 414 1992 
Q 291 2194 291 2438 
Q 291 2659 392 2848 
Q 494 3038 669 3163 
Q 800 3259 1026 3326 
Q 1253 3394 1513 3394 
Q 1903 3394 2198 3281 
Q 2494 3169 2634 2976 
Q 2775 2784 2828 2463 
L 2278 2388 
Q 2241 2644 2061 2787 
Q 1881 2931 1553 2931 
Q 1166 2931 1000 2803 
Q 834 2675 834 2503 
Q 834 2394 903 2306 
Q 972 2216 1119 2156 
Q 1203 2125 1616 2013 
Q 2213 1853 2448 1751 
Q 2684 1650 2818 1456 
Q 2953 1263 2953 975 
Q 2953 694 2789 445 
Q 2625 197 2315 61 
Q 2006 -75 1616 -75 
Q 969 -75 630 194 
Q 291 463 197 991 
z
" transform="scale(0.015625)"/>
       <path id="ArialMT-69" d="M 425 3934 
L 425 4581 
L 988 4581 
L 988 3934 
L 425 3934 
z
M 425 0 
L 425 3319 
L 988 3319 
L 988 0 
L 425 0 
z
" transform="scale(0.015625)"/>
       <path id="ArialMT-76" d="M 1344 0 
L 81 3319 
L 675 3319 
L 1388 1331 
Q 1503 1009 1600 663 
Q 1675 925 1809 1294 
L 2547 3319 
L 3125 3319 
L 1869 0 
L 1344 0 
z
" transform="scale(0.015625)"/>
       <path id="ArialMT-79" d="M 397 -1278 
L 334 -750 
Q 519 -800 656 -800 
Q 844 -800 956 -737 
Q 1069 -675 1141 -563 
Q 1194 -478 1313 -144 
Q 1328 -97 1363 -6 
L 103 3319 
L 709 3319 
L 1400 1397 
Q 1534 1031 1641 628 
Q 1738 1016 1872 1384 
L 2581 3319 
L 3144 3319 
L 1881 -56 
Q 1678 -603 1566 -809 
Q 1416 -1088 1222 -1217 
Q 1028 -1347 759 -1347 
Q 597 -1347 397 -1278 
z
" transform="scale(0.015625)"/>
      </defs>
      <use xlink:href="#ArialMT-78"/>
      <use xlink:href="#ArialMT-20" x="50"/>
      <use xlink:href="#ArialMT-28" x="77.783203"/>
      <use xlink:href="#ArialMT-4c" x="111.083984"/>
      <use xlink:href="#ArialMT-6f" x="166.699219"/>
      <use xlink:href="#ArialMT-63" x="222.314453"/>
      <use xlink:href="#ArialMT-61" x="272.314453"/>
      <use xlink:href="#ArialMT-6c" x="327.929688"/>
      <use xlink:href="#ArialMT-20" x="350.146484"/>
      <use xlink:href="#ArialMT-73" x="377.929688"/>
      <use xlink:href="#ArialMT-65" x="427.929688"/>
      <use xlink:href="#ArialMT-6e" x="483.544922"/>
      <use xlink:href="#ArialMT-73" x="539.160156"/>
      <use xlink:href="#ArialMT-69" x="589.160156"/>
      <use xlink:href="#ArialMT-74" x="611.376953"/>
      <use xlink:href="#ArialMT-69" x="639.160156"/>
      <use xlink:href="#ArialMT-76" x="661.376953"/>
      <use xlink:href="#ArialMT-69" x="711.376953"/>
      <use xlink:href="#ArialMT-74" x="733.59375"/>
      <use xlink:href="#ArialMT-79" x="761.376953"/>
      <use xlink:href="#ArialMT-29" x="811.376953"/>
     </g>
    </g>
   </g>
  </g>
 </g>
 <defs>
  <clipPath id="p0588b2ee8e">
   <rect x="40.741" y="9.177174" width="357.12" height="266.112"/>
  </clipPath>
 </defs>
</svg>