<?xml version="1.0" encoding="utf-8" standalone="no"?>
<!DOCTYPE svg PUBLIC "-//W3C//DTD SVG 1.1//EN"
  "http://www.w3.org/Graphics/SVG/1.1/DTD/svg11.dtd">
<svg xmlns:xlink="http://www.w3.org/1999/xlink" width="410.20075pt" height="309.639375pt" viewBox="0 0 410.20075 309.639375" xmlns="http://www.w3.org/2000/svg" version="1.1">
 <metadata>
  <rdf:RDF xmlns:dc="http://purl.org/dc/elements/1.1/" xmlns:cc="http://creativecommons.org/ns#" xmlns:rdf="http://www.w3.org/1999/02/22-rdf-syntax-ns#">
   <cc:Work>
    <dc:type rdf:resource="http://purl.org/dc/dcmitype/StillImage"/>
    <dc:date>2025-02-07T07:00:13.698169</dc:date>
    <dc:format>image/svg+xml</dc:format>
    <dc:creator>
     <cc:Agent>
      <dc:title>Matplotlib v3.9.2, https://matplotlib.org/</dc:title>
     </cc:Agent>
    </dc:creator>
   </cc:Work>
  </rdf:RDF>
 </metadata>
 <defs>
  <style type="text/css">*{stroke-linejoin: round; stroke-linecap: butt}</style>
 </defs>
 <g id="figure_1">
  <g id="patch_1">
   <path d="M 0 309.639375 
L 410.20075 309.639375 
L 410.20075 0 
L 0 0 
z
" style="fill: #ffffff"/>
  </g>
  <g id="axes_1">
   <g id="patch_2">
    <path d="M 45.88075 273.312 
L 403.00075 273.312 
L 403.00075 7.2 
L 45.88075 7.2 
z
" style="fill: #ffffff"/>
   </g>
   <g id="matplotlib.axis_1">
    <g id="xtick_1">
     <g id="line2d_1">
      <defs>
       <path id="m717b2389b7" d="M 0 0 
L 0 4.8 
" style="stroke: #262626"/>
      </defs>
      <g>
       <use xlink:href="#m717b2389b7" x="62.113477" y="273.312" style="fill: #262626; stroke: #262626"/>
      </g>
     </g>
     <g id="text_1">
      <!-- 0 -->
      <g style="fill: #262626" transform="translate(59.666665 287.910875) scale(0.088 -0.088)">
       <defs>
        <path id="ArialMT-30" d="M 266 2259 
Q 266 3072 433 3567 
Q 600 4063 929 4331 
Q 1259 4600 1759 4600 
Q 2128 4600 2406 4451 
Q 2684 4303 2865 4023 
Q 3047 3744 3150 3342 
Q 3253 2941 3253 2259 
Q 3253 1453 3087 958 
Q 2922 463 2592 192 
Q 2263 -78 1759 -78 
Q 1097 -78 719 397 
Q 266 969 266 2259 
z
M 844 2259 
Q 844 1131 1108 757 
Q 1372 384 1759 384 
Q 2147 384 2411 759 
Q 2675 1134 2675 2259 
Q 2675 3391 2411 3762 
Q 2147 4134 1753 4134 
Q 1366 4134 1134 3806 
Q 844 3388 844 2259 
z
" transform="scale(0.015625)"/>
       </defs>
       <use xlink:href="#ArialMT-30"/>
      </g>
     </g>
    </g>
    <g id="xtick_2">
     <g id="line2d_2">
      <g>
       <use xlink:href="#m717b2389b7" x="127.338044" y="273.312" style="fill: #262626; stroke: #262626"/>
      </g>
     </g>
     <g id="text_2">
      <!-- 1 -->
      <g style="fill: #262626" transform="translate(124.891231 287.910875) scale(0.088 -0.088)">
       <defs>
        <path id="ArialMT-31" d="M 2384 0 
L 1822 0 
L 1822 3584 
Q 1619 3391 1289 3197 
Q 959 3003 697 2906 
L 697 3450 
Q 1169 3672 1522 3987 
Q 1875 4303 2022 4600 
L 2384 4600 
L 2384 0 
z
" transform="scale(0.015625)"/>
       </defs>
       <use xlink:href="#ArialMT-31"/>
      </g>
     </g>
    </g>
    <g id="xtick_3">
     <g id="line2d_3">
      <g>
       <use xlink:href="#m717b2389b7" x="192.56261" y="273.312" style="fill: #262626; stroke: #262626"/>
      </g>
     </g>
     <g id="text_3">
      <!-- 2 -->
      <g style="fill: #262626" transform="translate(190.115798 287.910875) scale(0.088 -0.088)">
       <defs>
        <path id="ArialMT-32" d="M 3222 541 
L 3222 0 
L 194 0 
Q 188 203 259 391 
Q 375 700 629 1000 
Q 884 1300 1366 1694 
Q 2113 2306 2375 2664 
Q 2638 3022 2638 3341 
Q 2638 3675 2398 3904 
Q 2159 4134 1775 4134 
Q 1369 4134 1125 3890 
Q 881 3647 878 3216 
L 300 3275 
Q 359 3922 746 4261 
Q 1134 4600 1788 4600 
Q 2447 4600 2831 4234 
Q 3216 3869 3216 3328 
Q 3216 3053 3103 2787 
Q 2991 2522 2730 2228 
Q 2469 1934 1863 1422 
Q 1356 997 1212 845 
Q 1069 694 975 541 
L 3222 541 
z
" transform="scale(0.015625)"/>
       </defs>
       <use xlink:href="#ArialMT-32"/>
      </g>
     </g>
    </g>
    <g id="xtick_4">
     <g id="line2d_4">
      <g>
       <use xlink:href="#m717b2389b7" x="257.787177" y="273.312" style="fill: #262626; stroke: #262626"/>
      </g>
     </g>
     <g id="text_4">
      <!-- 3 -->
      <g style="fill: #262626" transform="translate(255.340364 287.910875) scale(0.088 -0.088)">
       <defs>
        <path id="ArialMT-33" d="M 269 1209 
L 831 1284 
Q 928 806 1161 595 
Q 1394 384 1728 384 
Q 2125 384 2398 659 
Q 2672 934 2672 1341 
Q 2672 1728 2419 1979 
Q 2166 2231 1775 2231 
Q 1616 2231 1378 2169 
L 1441 2663 
Q 1497 2656 1531 2656 
Q 1891 2656 2178 2843 
Q 2466 3031 2466 3422 
Q 2466 3731 2256 3934 
Q 2047 4138 1716 4138 
Q 1388 4138 1169 3931 
Q 950 3725 888 3313 
L 325 3413 
Q 428 3978 793 4289 
Q 1159 4600 1703 4600 
Q 2078 4600 2393 4439 
Q 2709 4278 2876 4000 
Q 3044 3722 3044 3409 
Q 3044 3113 2884 2869 
Q 2725 2625 2413 2481 
Q 2819 2388 3044 2092 
Q 3269 1797 3269 1353 
Q 3269 753 2831 336 
Q 2394 -81 1725 -81 
Q 1122 -81 723 278 
Q 325 638 269 1209 
z
" transform="scale(0.015625)"/>
       </defs>
       <use xlink:href="#ArialMT-33"/>
      </g>
     </g>
    </g>
    <g id="xtick_5">
     <g id="line2d_5">
      <g>
       <use xlink:href="#m717b2389b7" x="323.011743" y="273.312" style="fill: #262626; stroke: #262626"/>
      </g>
     </g>
     <g id="text_5">
      <!-- 4 -->
      <g style="fill: #262626" transform="translate(320.564931 287.910875) scale(0.088 -0.088)">
       <defs>
        <path id="ArialMT-34" d="M 2069 0 
L 2069 1097 
L 81 1097 
L 81 1613 
L 2172 4581 
L 2631 4581 
L 2631 1613 
L 3250 1613 
L 3250 1097 
L 2631 1097 
L 2631 0 
L 2069 0 
z
M 2069 1613 
L 2069 3678 
L 634 1613 
L 2069 1613 
z
" transform="scale(0.015625)"/>
       </defs>
       <use xlink:href="#ArialMT-34"/>
      </g>
     </g>
    </g>
    <g id="xtick_6">
     <g id="line2d_6">
      <g>
       <use xlink:href="#m717b2389b7" x="388.23631" y="273.312" style="fill: #262626; stroke: #262626"/>
      </g>
     </g>
     <g id="text_6">
      <!-- 5 -->
      <g style="fill: #262626" transform="translate(385.789497 287.910875) scale(0.088 -0.088)">
       <defs>
        <path id="ArialMT-35" d="M 266 1200 
L 856 1250 
Q 922 819 1161 601 
Q 1400 384 1738 384 
Q 2144 384 2425 690 
Q 2706 997 2706 1503 
Q 2706 1984 2436 2262 
Q 2166 2541 1728 2541 
Q 1456 2541 1237 2417 
Q 1019 2294 894 2097 
L 366 2166 
L 809 4519 
L 3088 4519 
L 3088 3981 
L 1259 3981 
L 1013 2750 
Q 1425 3038 1878 3038 
Q 2478 3038 2890 2622 
Q 3303 2206 3303 1553 
Q 3303 931 2941 478 
Q 2500 -78 1738 -78 
Q 1113 -78 717 272 
Q 322 622 266 1200 
z
" transform="scale(0.015625)"/>
       </defs>
       <use xlink:href="#ArialMT-35"/>
      </g>
     </g>
    </g>
    <g id="text_7">
     <!-- t -->
     <g style="fill: #262626" transform="translate(223.10725 300.531375) scale(0.096 -0.096)">
      <defs>
       <path id="ArialMT-74" d="M 1650 503 
L 1731 6 
Q 1494 -44 1306 -44 
Q 1000 -44 831 53 
Q 663 150 594 308 
Q 525 466 525 972 
L 525 2881 
L 113 2881 
L 113 3319 
L 525 3319 
L 525 4141 
L 1084 4478 
L 1084 3319 
L 1650 3319 
L 1650 2881 
L 1084 2881 
L 1084 941 
Q 1084 700 1114 631 
Q 1144 563 1211 522 
Q 1278 481 1403 481 
Q 1497 481 1650 503 
z
" transform="scale(0.015625)"/>
      </defs>
      <use xlink:href="#ArialMT-74"/>
     </g>
    </g>
   </g>
   <g id="matplotlib.axis_2">
    <g id="ytick_1">
     <g id="line2d_7">
      <defs>
       <path id="m8b7354c870" d="M 0 0 
L -4.8 0 
" style="stroke: #262626"/>
      </defs>
      <g>
       <use xlink:href="#m8b7354c870" x="45.88075" y="259.658258" style="fill: #262626; stroke: #262626"/>
      </g>
     </g>
     <g id="text_8">
      <!-- −0.6 -->
      <g style="fill: #262626" transform="translate(20.209 262.807695) scale(0.088 -0.088)">
       <defs>
        <path id="ArialMT-2212" d="M 3381 1997 
L 356 1997 
L 356 2522 
L 3381 2522 
L 3381 1997 
z
" transform="scale(0.015625)"/>
        <path id="ArialMT-2e" d="M 581 0 
L 581 641 
L 1222 641 
L 1222 0 
L 581 0 
z
" transform="scale(0.015625)"/>
        <path id="ArialMT-36" d="M 3184 3459 
L 2625 3416 
Q 2550 3747 2413 3897 
Q 2184 4138 1850 4138 
Q 1581 4138 1378 3988 
Q 1113 3794 959 3422 
Q 806 3050 800 2363 
Q 1003 2672 1297 2822 
Q 1591 2972 1913 2972 
Q 2475 2972 2870 2558 
Q 3266 2144 3266 1488 
Q 3266 1056 3080 686 
Q 2894 316 2569 119 
Q 2244 -78 1831 -78 
Q 1128 -78 684 439 
Q 241 956 241 2144 
Q 241 3472 731 4075 
Q 1159 4600 1884 4600 
Q 2425 4600 2770 4297 
Q 3116 3994 3184 3459 
z
M 888 1484 
Q 888 1194 1011 928 
Q 1134 663 1356 523 
Q 1578 384 1822 384 
Q 2178 384 2434 671 
Q 2691 959 2691 1453 
Q 2691 1928 2437 2201 
Q 2184 2475 1800 2475 
Q 1419 2475 1153 2201 
Q 888 1928 888 1484 
z
" transform="scale(0.015625)"/>
       </defs>
       <use xlink:href="#ArialMT-2212"/>
       <use xlink:href="#ArialMT-30" x="58.398438"/>
       <use xlink:href="#ArialMT-2e" x="114.013672"/>
       <use xlink:href="#ArialMT-36" x="141.796875"/>
      </g>
     </g>
    </g>
    <g id="ytick_2">
     <g id="line2d_8">
      <g>
       <use xlink:href="#m8b7354c870" x="45.88075" y="207.6131" style="fill: #262626; stroke: #262626"/>
      </g>
     </g>
     <g id="text_9">
      <!-- −0.4 -->
      <g style="fill: #262626" transform="translate(20.209 210.762537) scale(0.088 -0.088)">
       <use xlink:href="#ArialMT-2212"/>
       <use xlink:href="#ArialMT-30" x="58.398438"/>
       <use xlink:href="#ArialMT-2e" x="114.013672"/>
       <use xlink:href="#ArialMT-34" x="141.796875"/>
      </g>
     </g>
    </g>
    <g id="ytick_3">
     <g id="line2d_9">
      <g>
       <use xlink:href="#m8b7354c870" x="45.88075" y="155.567942" style="fill: #262626; stroke: #262626"/>
      </g>
     </g>
     <g id="text_10">
      <!-- −0.2 -->
      <g style="fill: #262626" transform="translate(20.209 158.71738) scale(0.088 -0.088)">
       <use xlink:href="#ArialMT-2212"/>
       <use xlink:href="#ArialMT-30" x="58.398438"/>
       <use xlink:href="#ArialMT-2e" x="114.013672"/>
       <use xlink:href="#ArialMT-32" x="141.796875"/>
      </g>
     </g>
    </g>
    <g id="ytick_4">
     <g id="line2d_10">
      <g>
       <use xlink:href="#m8b7354c870" x="45.88075" y="103.522785" style="fill: #262626; stroke: #262626"/>
      </g>
     </g>
     <g id="text_11">
      <!-- 0.0 -->
      <g style="fill: #262626" transform="translate(25.34875 106.672222) scale(0.088 -0.088)">
       <use xlink:href="#ArialMT-30"/>
       <use xlink:href="#ArialMT-2e" x="55.615234"/>
       <use xlink:href="#ArialMT-30" x="83.398438"/>
      </g>
     </g>
    </g>
    <g id="ytick_5">
     <g id="line2d_11">
      <g>
       <use xlink:href="#m8b7354c870" x="45.88075" y="51.477627" style="fill: #262626; stroke: #262626"/>
      </g>
     </g>
     <g id="text_12">
      <!-- 0.2 -->
      <g style="fill: #262626" transform="translate(25.34875 54.627064) scale(0.088 -0.088)">
       <use xlink:href="#ArialMT-30"/>
       <use xlink:href="#ArialMT-2e" x="55.615234"/>
       <use xlink:href="#ArialMT-32" x="83.398438"/>
      </g>
     </g>
    </g>
    <g id="text_13">
     <!-- x(t) -->
     <g style="fill: #262626" transform="translate(14.1885 147.186) rotate(-90) scale(0.096 -0.096)">
      <defs>
       <path id="ArialMT-78" d="M 47 0 
L 1259 1725 
L 138 3319 
L 841 3319 
L 1350 2541 
Q 1494 2319 1581 2169 
Q 1719 2375 1834 2534 
L 2394 3319 
L 3066 3319 
L 1919 1756 
L 3153 0 
L 2463 0 
L 1781 1031 
L 1600 1309 
L 728 0 
L 47 0 
z
" transform="scale(0.015625)"/>
       <path id="ArialMT-28" d="M 1497 -1347 
Q 1031 -759 709 28 
Q 388 816 388 1659 
Q 388 2403 628 3084 
Q 909 3875 1497 4659 
L 1900 4659 
Q 1522 4009 1400 3731 
Q 1209 3300 1100 2831 
Q 966 2247 966 1656 
Q 966 153 1900 -1347 
L 1497 -1347 
z
" transform="scale(0.015625)"/>
       <path id="ArialMT-29" d="M 791 -1347 
L 388 -1347 
Q 1322 153 1322 1656 
Q 1322 2244 1188 2822 
Q 1081 3291 891 3722 
Q 769 4003 388 4659 
L 791 4659 
Q 1378 3875 1659 3084 
Q 1900 2403 1900 1659 
Q 1900 816 1576 28 
Q 1253 -759 791 -1347 
z
" transform="scale(0.015625)"/>
      </defs>
      <use xlink:href="#ArialMT-78"/>
      <use xlink:href="#ArialMT-28" x="50"/>
      <use xlink:href="#ArialMT-74" x="83.300781"/>
      <use xlink:href="#ArialMT-29" x="111.083984"/>
     </g>
    </g>
   </g>
   <g id="PolyCollection_1">
    <defs>
     <path id="m6fd332751b" d="M 62.113477 -206.11659 
L 62.113477 -206.11659 
L 63.744907 -206.143672 
L 65.376337 -206.224794 
L 67.007767 -206.359718 
L 68.639197 -206.548142 
L 70.270627 -206.789694 
L 71.902057 -207.083939 
L 73.533486 -207.430374 
L 75.164916 -207.828431 
L 76.796346 -208.277479 
L 78.427776 -208.776821 
L 80.059206 -209.325698 
L 81.690636 -209.923283 
L 83.322066 -210.568695 
L 84.953496 -211.260987 
L 86.584925 -211.999149 
L 88.216355 -212.782113 
L 89.847785 -213.608751 
L 91.479215 -214.477878 
L 93.110645 -215.388248 
L 94.742075 -216.338557 
L 96.373505 -217.327443 
L 98.004935 -218.353495 
L 99.636364 -219.415232 
L 101.267794 -220.511135 
L 102.899224 -221.639612 
L 104.530654 -222.799038 
L 106.162084 -223.987716 
L 107.793514 -225.203899 
L 109.424944 -226.445796 
L 111.056374 -227.711567 
L 112.687803 -228.999297 
L 114.319233 -230.307044 
L 115.950663 -231.632807 
L 117.582093 -232.974541 
L 119.213523 -234.330152 
L 120.844953 -235.697475 
L 122.476383 -237.074336 
L 124.107813 -238.458498 
L 125.739242 -239.847666 
L 127.370672 -241.2395 
L 129.002102 -242.631664 
L 130.633532 -244.021722 
L 132.264962 -245.407239 
L 133.896392 -246.785734 
L 135.527822 -248.154667 
L 137.159252 -249.511478 
L 138.790681 -250.853612 
L 140.422111 -252.178428 
L 142.053541 -253.483309 
L 143.684971 -254.765584 
L 145.316401 -256.022576 
L 146.947831 -257.251606 
L 148.579261 -258.449964 
L 150.210691 -259.614939 
L 151.84212 -260.74384 
L 153.47355 -261.83393 
L 155.10498 -262.882544 
L 156.73641 -263.886976 
L 158.36784 -264.844577 
L 159.99927 -265.752704 
L 161.6307 -266.608729 
L 163.26213 -267.410084 
L 164.89356 -268.154259 
L 166.524989 -268.838756 
L 168.156419 -269.461137 
L 169.787849 -270.019036 
L 171.419279 -270.510158 
L 173.050709 -270.932258 
L 174.682139 -271.283218 
L 176.313569 -271.560936 
L 177.944999 -271.763436 
L 179.576428 -271.888863 
L 181.207858 -271.935418 
L 182.839288 -271.901434 
L 184.470718 -271.785329 
L 186.102148 -271.585691 
L 187.733578 -271.301156 
L 189.365008 -270.930521 
L 190.996438 -270.472715 
L 192.627867 -269.926763 
L 194.259297 -269.291834 
L 195.890727 -268.567257 
L 197.522157 -267.752416 
L 199.153587 -266.846888 
L 200.785017 -265.850378 
L 202.416447 -264.7627 
L 204.047877 -263.583785 
L 205.679306 -262.313694 
L 207.310736 -260.952649 
L 208.942166 -259.500936 
L 210.573596 -257.959005 
L 212.205026 -256.327368 
L 213.836456 -254.606669 
L 215.467886 -252.797653 
L 217.099316 -250.901171 
L 218.730745 -248.918133 
L 220.362175 -246.849568 
L 221.993605 -244.696548 
L 223.625035 -242.460263 
L 225.256465 -240.141954 
L 226.887895 -237.742919 
L 228.519325 -235.264528 
L 230.150755 -232.708209 
L 231.782184 -230.075447 
L 233.413614 -227.367734 
L 235.045044 -224.586724 
L 236.676474 -221.734012 
L 238.307904 -218.811292 
L 239.939334 -215.820299 
L 241.570764 -212.762816 
L 243.202194 -209.640684 
L 244.833623 -206.455817 
L 246.465053 -203.210175 
L 248.096483 -199.905792 
L 249.727913 -196.544785 
L 251.359343 -193.129357 
L 252.990773 -189.661794 
L 254.622203 -186.144483 
L 256.253633 -182.579939 
L 257.885062 -178.970768 
L 259.516492 -175.319793 
L 261.147922 -171.629897 
L 262.779352 -167.904181 
L 264.410782 -164.145881 
L 266.042212 -160.358452 
L 267.673642 -156.545546 
L 269.305072 -152.71103 
L 270.936501 -148.858999 
L 272.567931 -144.993795 
L 274.199361 -141.120014 
L 275.830791 -137.242503 
L 277.462221 -133.366419 
L 279.093651 -129.497159 
L 280.725081 -125.640432 
L 282.356511 -121.802209 
L 283.98794 -117.988773 
L 285.61937 -114.206636 
L 287.2508 -110.462703 
L 288.88223 -106.764037 
L 290.51366 -103.117961 
L 292.14509 -99.532027 
L 293.77652 -96.01399 
L 295.40795 -92.571732 
L 297.03938 -89.213277 
L 298.670809 -85.946715 
L 300.302239 -82.780104 
L 301.933669 -79.72151 
L 303.565099 -76.778787 
L 305.196529 -73.959639 
L 306.827959 -71.271423 
L 308.459389 -68.721082 
L 310.090819 -66.315021 
L 311.722248 -64.05901 
L 313.353678 -61.957982 
L 314.985108 -60.015876 
L 316.616538 -58.235546 
L 318.247968 -56.618497 
L 319.879398 -55.164745 
L 321.510828 -53.87266 
L 323.142258 -52.738768 
L 324.773687 -51.75778 
L 326.405117 -50.922609 
L 328.036547 -50.224691 
L 329.667977 -49.654332 
L 331.299407 -49.201716 
L 332.930837 -48.85786 
L 334.562267 -48.615707 
L 336.193697 -48.471039 
L 337.825126 -48.423375 
L 339.456556 -48.475584 
L 341.087986 -48.633576 
L 342.719416 -48.905307 
L 344.350846 -49.299759 
L 345.982276 -49.826082 
L 347.613706 -50.492622 
L 349.245136 -51.306792 
L 350.876565 -52.274379 
L 352.507995 -53.399864 
L 354.139425 -54.686101 
L 355.770855 -56.134627 
L 357.402285 -57.745688 
L 359.033715 -59.518232 
L 360.665145 -61.450302 
L 362.296575 -63.539031 
L 363.928004 -65.780694 
L 365.559434 -68.170965 
L 367.190864 -70.704989 
L 368.822294 -73.377415 
L 370.453724 -76.18255 
L 372.085154 -79.114477 
L 373.716584 -82.167022 
L 375.348014 -85.33399 
L 376.979443 -88.609028 
L 378.610873 -91.985878 
L 380.242303 -95.458305 
L 381.873733 -99.020206 
L 383.505163 -102.665608 
L 385.136593 -106.388734 
L 386.768023 -110.184038 
L 386.768023 -177.635801 
L 386.768023 -177.635801 
L 385.136593 -172.603796 
L 383.505163 -167.620568 
L 381.873733 -162.689305 
L 380.242303 -157.813477 
L 378.610873 -152.996942 
L 376.979443 -148.243889 
L 375.348014 -143.558966 
L 373.716584 -138.94718 
L 372.085154 -134.414063 
L 370.453724 -129.965519 
L 368.822294 -125.60803 
L 367.190864 -121.34846 
L 365.559434 -117.19427 
L 363.928004 -113.153385 
L 362.296575 -109.234266 
L 360.665145 -105.445887 
L 359.033715 -101.797848 
L 357.402285 -98.300232 
L 355.770855 -94.963678 
L 354.139425 -91.79958 
L 352.507995 -88.81981 
L 350.876565 -86.036941 
L 349.245136 -83.464218 
L 347.613706 -81.11543 
L 345.982276 -79.005126 
L 344.350846 -77.147887 
L 342.719416 -75.558525 
L 341.087986 -74.251146 
L 339.456556 -73.238517 
L 337.825126 -72.531044 
L 336.193697 -72.135755 
L 334.562267 -72.055208 
L 332.930837 -72.28703 
L 331.299407 -72.823963 
L 329.667977 -73.65442 
L 328.036547 -74.763525 
L 326.405117 -76.134164 
L 324.773687 -77.748351 
L 323.142258 -79.587823 
L 321.510828 -81.634766 
L 319.879398 -83.872156 
L 318.247968 -86.283917 
L 316.616538 -88.854988 
L 314.985108 -91.571216 
L 313.353678 -94.419432 
L 311.722248 -97.38722 
L 310.090819 -100.463 
L 308.459389 -103.635893 
L 306.827959 -106.895591 
L 305.196529 -110.232455 
L 303.565099 -113.637403 
L 301.933669 -117.101873 
L 300.302239 -120.617799 
L 298.670809 -124.177652 
L 297.03938 -127.77425 
L 295.40795 -131.400962 
L 293.77652 -135.051513 
L 292.14509 -138.720034 
L 290.51366 -142.401064 
L 288.88223 -146.089484 
L 287.2508 -149.780534 
L 285.61937 -153.469777 
L 283.98794 -157.153099 
L 282.356511 -160.826614 
L 280.725081 -164.486782 
L 279.093651 -168.130264 
L 277.462221 -171.754025 
L 275.830791 -175.355169 
L 274.199361 -178.931056 
L 272.567931 -182.479197 
L 270.936501 -185.997272 
L 269.305072 -189.483127 
L 267.673642 -192.934735 
L 266.042212 -196.350187 
L 264.410782 -199.727685 
L 262.779352 -203.06552 
L 261.147922 -206.362072 
L 259.516492 -209.615787 
L 257.885062 -212.825169 
L 256.253633 -215.9888 
L 254.622203 -219.105227 
L 252.990773 -222.173101 
L 251.359343 -225.191074 
L 249.727913 -228.157824 
L 248.096483 -231.072034 
L 246.465053 -233.932397 
L 244.833623 -236.737611 
L 243.202194 -239.486365 
L 241.570764 -242.17736 
L 239.939334 -244.80928 
L 238.307904 -247.380797 
L 236.676474 -249.890597 
L 235.045044 -252.337343 
L 233.413614 -254.719676 
L 231.782184 -257.036295 
L 230.150755 -259.285787 
L 228.519325 -261.46682 
L 226.887895 -263.57805 
L 225.256465 -265.618114 
L 223.625035 -267.58568 
L 221.993605 -269.47942 
L 220.362175 -271.29803 
L 218.730745 -273.040196 
L 217.099316 -274.704692 
L 215.467886 -276.290278 
L 213.836456 -277.795782 
L 212.205026 -279.220072 
L 210.573596 -280.56207 
L 208.942166 -281.820753 
L 207.310736 -282.995213 
L 205.679306 -284.084558 
L 204.047877 -285.088036 
L 202.416447 -286.004941 
L 200.785017 -286.834684 
L 199.153587 -287.576831 
L 197.522157 -288.231008 
L 195.890727 -288.796954 
L 194.259297 -289.274566 
L 192.627867 -289.663899 
L 190.996438 -289.965062 
L 189.365008 -290.178373 
L 187.733578 -290.304296 
L 186.102148 -290.343375 
L 184.470718 -290.296347 
L 182.839288 -290.164126 
L 181.207858 -289.947721 
L 179.576428 -289.648311 
L 177.944999 -289.267206 
L 176.313569 -288.805911 
L 174.682139 -288.265985 
L 173.050709 -287.649157 
L 171.419279 -286.957358 
L 169.787849 -286.192535 
L 168.156419 -285.356812 
L 166.524989 -284.452416 
L 164.89356 -283.481681 
L 163.26213 -282.447035 
L 161.6307 -281.351012 
L 159.99927 -280.196204 
L 158.36784 -278.985279 
L 156.73641 -277.721005 
L 155.10498 -276.406189 
L 153.47355 -275.043678 
L 151.84212 -273.636395 
L 150.210691 -272.187257 
L 148.579261 -270.699257 
L 146.947831 -269.175369 
L 145.316401 -267.618606 
L 143.684971 -266.031989 
L 142.053541 -264.41853 
L 140.422111 -262.781248 
L 138.790681 -261.123154 
L 137.159252 -259.44723 
L 135.527822 -257.756467 
L 133.896392 -256.053791 
L 132.264962 -254.342143 
L 130.633532 -252.624418 
L 129.002102 -250.903486 
L 127.370672 -249.182155 
L 125.739242 -247.463232 
L 124.107813 -245.749432 
L 122.476383 -244.043456 
L 120.844953 -242.347982 
L 119.213523 -240.665606 
L 117.582093 -238.99886 
L 115.950663 -237.350282 
L 114.319233 -235.722314 
L 112.687803 -234.117355 
L 111.056374 -232.537753 
L 109.424944 -230.985791 
L 107.793514 -229.463717 
L 106.162084 -227.973709 
L 104.530654 -226.51788 
L 102.899224 -225.098297 
L 101.267794 -223.716969 
L 99.636364 -222.375832 
L 98.004935 -221.076772 
L 96.373505 -219.821604 
L 94.742075 -218.612095 
L 93.110645 -217.449931 
L 91.479215 -216.336746 
L 89.847785 -215.274099 
L 88.216355 -214.263492 
L 86.584925 -213.30635 
L 84.953496 -212.404032 
L 83.322066 -211.557829 
L 81.690636 -210.768963 
L 80.059206 -210.038578 
L 78.427776 -209.367744 
L 76.796346 -208.757464 
L 75.164916 -208.208661 
L 73.533486 -207.722182 
L 71.902057 -207.298795 
L 70.270627 -206.939195 
L 68.639197 -206.643991 
L 67.007767 -206.413718 
L 65.376337 -206.248826 
L 63.744907 -206.149687 
L 62.113477 -206.11659 
z
" style="stroke: #ffffff; stroke-opacity: 0.5; stroke-width: 0.8"/>
    </defs>
    <g clip-path="url(#p2e3670548c)">
     <use xlink:href="#m6fd332751b" x="0" y="309.639375" style="fill: #1f77b4; fill-opacity: 0.5; stroke: #ffffff; stroke-opacity: 0.5; stroke-width: 0.8"/>
    </g>
   </g>
   <g id="line2d_12">
    <path d="M 62.113477 103.522785 
L 65.376337 103.402565 
L 68.639197 103.043309 
L 71.902057 102.448008 
L 75.164916 101.620829 
L 78.427776 100.567092 
L 81.690636 99.293252 
L 84.953496 97.806866 
L 88.216355 96.116572 
L 91.479215 94.232063 
L 94.742075 92.164049 
L 99.636364 88.743843 
L 104.530654 84.980916 
L 109.424944 80.923582 
L 115.950663 75.147831 
L 124.107813 67.535411 
L 140.422111 52.159537 
L 145.316401 47.818784 
L 150.210691 43.738277 
L 155.10498 39.99501 
L 158.36784 37.724447 
L 161.6307 35.659504 
L 164.89356 33.821405 
L 168.156419 32.230398 
L 171.419279 30.905617 
L 174.682139 29.864774 
L 177.944999 29.124054 
L 181.207858 28.697806 
L 184.470718 28.598537 
L 187.733578 28.836649 
L 190.996438 29.420486 
L 194.259297 30.356175 
L 197.522157 31.647663 
L 200.785017 33.296842 
L 204.047877 35.303465 
L 207.310736 37.665444 
L 210.573596 40.378837 
L 213.836456 43.438149 
L 217.099316 46.836443 
L 220.362175 50.565576 
L 223.625035 54.616403 
L 226.887895 58.97889 
L 230.150755 63.642378 
L 233.413614 68.59567 
L 238.307904 76.543331 
L 243.202194 85.075851 
L 248.096483 94.150462 
L 252.990773 103.721928 
L 257.885062 113.741407 
L 264.410782 127.702592 
L 270.936501 142.21124 
L 282.356511 168.324965 
L 292.14509 190.513345 
L 297.03938 201.145611 
L 301.933669 211.227684 
L 305.196529 217.543332 
L 308.459389 223.460884 
L 311.722248 228.916264 
L 314.985108 233.845833 
L 318.247968 238.188168 
L 321.510828 241.885662 
L 323.142258 243.476079 
L 324.773687 244.886309 
L 326.405117 246.110985 
L 328.036547 247.145267 
L 329.667977 247.984999 
L 331.299407 248.626536 
L 332.930837 249.06693 
L 334.562267 249.303917 
L 336.193697 249.335978 
L 337.825126 249.162165 
L 339.456556 248.782325 
L 341.087986 248.197014 
L 342.719416 247.407459 
L 344.350846 246.415552 
L 345.982276 245.223775 
L 347.613706 243.835353 
L 349.245136 242.25387 
L 350.876565 240.483715 
L 352.507995 238.529542 
L 355.770855 234.090219 
L 359.033715 228.981339 
L 362.296575 223.252723 
L 365.559434 216.956758 
L 368.822294 210.146652 
L 372.085154 202.875105 
L 375.348014 195.192897 
L 380.242303 183.003484 
L 385.136593 170.14311 
L 386.768023 165.729457 
L 386.768023 165.729457 
" clip-path="url(#p2e3670548c)" style="fill: none; stroke: #1f77b4; stroke-width: 1.2; stroke-linecap: round"/>
   </g>
   <g id="patch_3">
    <path d="M 45.88075 259.658258 
L 45.88075 51.477627 
" style="fill: none; stroke: #262626; stroke-linejoin: miter; stroke-linecap: square"/>
   </g>
   <g id="patch_4">
    <path d="M 62.113477 273.312 
L 388.23631 273.312 
" style="fill: none; stroke: #262626; stroke-linejoin: miter; stroke-linecap: square"/>
   </g>
  </g>
 </g>
 <defs>
  <clipPath id="p2e3670548c">
   <rect x="45.88075" y="7.2" width="357.12" height="266.112"/>
  </clipPath>
 </defs>
</svg>