<?xml version="1.0" encoding="utf-8" standalone="no"?>
<!DOCTYPE svg PUBLIC "-//W3C//DTD SVG 1.1//EN"
  "http://www.w3.org/Graphics/SVG/1.1/DTD/svg11.dtd">
<svg xmlns:xlink="http://www.w3.org/1999/xlink" width="410.21575pt" height="322.968375pt" viewBox="0 0 410.21575 322.968375" xmlns="http://www.w3.org/2000/svg" version="1.1">
 <metadata>
  <rdf:RDF xmlns:dc="http://purl.org/dc/elements/1.1/" xmlns:cc="http://creativecommons.org/ns#" xmlns:rdf="http://www.w3.org/1999/02/22-rdf-syntax-ns#">
   <cc:Work>
    <dc:type rdf:resource="http://purl.org/dc/dcmitype/StillImage"/>
    <dc:date>2023-12-02T07:05:09.636590</dc:date>
    <dc:format>image/svg+xml</dc:format>
    <dc:creator>
     <cc:Agent>
      <dc:title>Matplotlib v3.8.0, https://matplotlib.org/</dc:title>
     </cc:Agent>
    </dc:creator>
   </cc:Work>
  </rdf:RDF>
 </metadata>
 <defs>
  <style type="text/css">*{stroke-linejoin: round; stroke-linecap: butt}</style>
 </defs>
 <g id="figure_1">
  <g id="patch_1">
   <path d="M 0 322.968375 
L 410.21575 322.968375 
L 410.21575 0 
L 0 0 
z
" style="fill: #ffffff"/>
  </g>
  <g id="axes_1">
   <g id="patch_2">
    <path d="M 45.89575 286.3005 
L 403.01575 286.3005 
L 403.01575 20.1885 
L 45.89575 20.1885 
z
" style="fill: #ffffff"/>
   </g>
   <g id="matplotlib.axis_1">
    <g id="xtick_1">
     <g id="line2d_1">
      <defs>
       <path id="mf3aa643dc6" d="M 0 0 
L 0 4.8 
" style="stroke: #262626"/>
      </defs>
      <g>
       <use xlink:href="#mf3aa643dc6" x="62.128477" y="286.3005" style="fill: #262626; stroke: #262626"/>
      </g>
     </g>
     <g id="text_1">
      <!-- −2.0 -->
      <g style="fill: #262626" transform="translate(53.442602 300.899375) scale(0.088 -0.088)">
       <defs>
        <path id="ArialMT-2212" d="M 3381 1997 
L 356 1997 
L 356 2522 
L 3381 2522 
L 3381 1997 
z
" transform="scale(0.015625)"/>
        <path id="ArialMT-32" d="M 3222 541 
L 3222 0 
L 194 0 
Q 188 203 259 391 
Q 375 700 629 1000 
Q 884 1300 1366 1694 
Q 2113 2306 2375 2664 
Q 2638 3022 2638 3341 
Q 2638 3675 2398 3904 
Q 2159 4134 1775 4134 
Q 1369 4134 1125 3890 
Q 881 3647 878 3216 
L 300 3275 
Q 359 3922 746 4261 
Q 1134 4600 1788 4600 
Q 2447 4600 2831 4234 
Q 3216 3869 3216 3328 
Q 3216 3053 3103 2787 
Q 2991 2522 2730 2228 
Q 2469 1934 1863 1422 
Q 1356 997 1212 845 
Q 1069 694 975 541 
L 3222 541 
z
" transform="scale(0.015625)"/>
        <path id="ArialMT-2e" d="M 581 0 
L 581 641 
L 1222 641 
L 1222 0 
L 581 0 
z
" transform="scale(0.015625)"/>
        <path id="ArialMT-30" d="M 266 2259 
Q 266 3072 433 3567 
Q 600 4063 929 4331 
Q 1259 4600 1759 4600 
Q 2128 4600 2406 4451 
Q 2684 4303 2865 4023 
Q 3047 3744 3150 3342 
Q 3253 2941 3253 2259 
Q 3253 1453 3087 958 
Q 2922 463 2592 192 
Q 2263 -78 1759 -78 
Q 1097 -78 719 397 
Q 266 969 266 2259 
z
M 844 2259 
Q 844 1131 1108 757 
Q 1372 384 1759 384 
Q 2147 384 2411 759 
Q 2675 1134 2675 2259 
Q 2675 3391 2411 3762 
Q 2147 4134 1753 4134 
Q 1366 4134 1134 3806 
Q 844 3388 844 2259 
z
" transform="scale(0.015625)"/>
       </defs>
       <use xlink:href="#ArialMT-2212"/>
       <use xlink:href="#ArialMT-32" x="58.398438"/>
       <use xlink:href="#ArialMT-2e" x="114.013672"/>
       <use xlink:href="#ArialMT-30" x="141.796875"/>
      </g>
     </g>
    </g>
    <g id="xtick_2">
     <g id="line2d_2">
      <g>
       <use xlink:href="#mf3aa643dc6" x="115.16153" y="286.3005" style="fill: #262626; stroke: #262626"/>
      </g>
     </g>
     <g id="text_2">
      <!-- −1.8 -->
      <g style="fill: #262626" transform="translate(106.475655 300.899375) scale(0.088 -0.088)">
       <defs>
        <path id="ArialMT-31" d="M 2384 0 
L 1822 0 
L 1822 3584 
Q 1619 3391 1289 3197 
Q 959 3003 697 2906 
L 697 3450 
Q 1169 3672 1522 3987 
Q 1875 4303 2022 4600 
L 2384 4600 
L 2384 0 
z
" transform="scale(0.015625)"/>
        <path id="ArialMT-38" d="M 1131 2484 
Q 781 2613 612 2850 
Q 444 3088 444 3419 
Q 444 3919 803 4259 
Q 1163 4600 1759 4600 
Q 2359 4600 2725 4251 
Q 3091 3903 3091 3403 
Q 3091 3084 2923 2848 
Q 2756 2613 2416 2484 
Q 2838 2347 3058 2040 
Q 3278 1734 3278 1309 
Q 3278 722 2862 322 
Q 2447 -78 1769 -78 
Q 1091 -78 675 323 
Q 259 725 259 1325 
Q 259 1772 486 2073 
Q 713 2375 1131 2484 
z
M 1019 3438 
Q 1019 3113 1228 2906 
Q 1438 2700 1772 2700 
Q 2097 2700 2305 2904 
Q 2513 3109 2513 3406 
Q 2513 3716 2298 3927 
Q 2084 4138 1766 4138 
Q 1444 4138 1231 3931 
Q 1019 3725 1019 3438 
z
M 838 1322 
Q 838 1081 952 856 
Q 1066 631 1291 507 
Q 1516 384 1775 384 
Q 2178 384 2440 643 
Q 2703 903 2703 1303 
Q 2703 1709 2433 1975 
Q 2163 2241 1756 2241 
Q 1359 2241 1098 1978 
Q 838 1716 838 1322 
z
" transform="scale(0.015625)"/>
       </defs>
       <use xlink:href="#ArialMT-2212"/>
       <use xlink:href="#ArialMT-31" x="58.398438"/>
       <use xlink:href="#ArialMT-2e" x="114.013672"/>
       <use xlink:href="#ArialMT-38" x="141.796875"/>
      </g>
     </g>
    </g>
    <g id="xtick_3">
     <g id="line2d_3">
      <g>
       <use xlink:href="#mf3aa643dc6" x="168.194582" y="286.3005" style="fill: #262626; stroke: #262626"/>
      </g>
     </g>
     <g id="text_3">
      <!-- −1.6 -->
      <g style="fill: #262626" transform="translate(159.508707 300.899375) scale(0.088 -0.088)">
       <defs>
        <path id="ArialMT-36" d="M 3184 3459 
L 2625 3416 
Q 2550 3747 2413 3897 
Q 2184 4138 1850 4138 
Q 1581 4138 1378 3988 
Q 1113 3794 959 3422 
Q 806 3050 800 2363 
Q 1003 2672 1297 2822 
Q 1591 2972 1913 2972 
Q 2475 2972 2870 2558 
Q 3266 2144 3266 1488 
Q 3266 1056 3080 686 
Q 2894 316 2569 119 
Q 2244 -78 1831 -78 
Q 1128 -78 684 439 
Q 241 956 241 2144 
Q 241 3472 731 4075 
Q 1159 4600 1884 4600 
Q 2425 4600 2770 4297 
Q 3116 3994 3184 3459 
z
M 888 1484 
Q 888 1194 1011 928 
Q 1134 663 1356 523 
Q 1578 384 1822 384 
Q 2178 384 2434 671 
Q 2691 959 2691 1453 
Q 2691 1928 2437 2201 
Q 2184 2475 1800 2475 
Q 1419 2475 1153 2201 
Q 888 1928 888 1484 
z
" transform="scale(0.015625)"/>
       </defs>
       <use xlink:href="#ArialMT-2212"/>
       <use xlink:href="#ArialMT-31" x="58.398438"/>
       <use xlink:href="#ArialMT-2e" x="114.013672"/>
       <use xlink:href="#ArialMT-36" x="141.796875"/>
      </g>
     </g>
    </g>
    <g id="xtick_4">
     <g id="line2d_4">
      <g>
       <use xlink:href="#mf3aa643dc6" x="221.227635" y="286.3005" style="fill: #262626; stroke: #262626"/>
      </g>
     </g>
     <g id="text_4">
      <!-- −1.4 -->
      <g style="fill: #262626" transform="translate(212.54176 300.899375) scale(0.088 -0.088)">
       <defs>
        <path id="ArialMT-34" d="M 2069 0 
L 2069 1097 
L 81 1097 
L 81 1613 
L 2172 4581 
L 2631 4581 
L 2631 1613 
L 3250 1613 
L 3250 1097 
L 2631 1097 
L 2631 0 
L 2069 0 
z
M 2069 1613 
L 2069 3678 
L 634 1613 
L 2069 1613 
z
" transform="scale(0.015625)"/>
       </defs>
       <use xlink:href="#ArialMT-2212"/>
       <use xlink:href="#ArialMT-31" x="58.398438"/>
       <use xlink:href="#ArialMT-2e" x="114.013672"/>
       <use xlink:href="#ArialMT-34" x="141.796875"/>
      </g>
     </g>
    </g>
    <g id="xtick_5">
     <g id="line2d_5">
      <g>
       <use xlink:href="#mf3aa643dc6" x="274.260687" y="286.3005" style="fill: #262626; stroke: #262626"/>
      </g>
     </g>
     <g id="text_5">
      <!-- −1.2 -->
      <g style="fill: #262626" transform="translate(265.574812 300.899375) scale(0.088 -0.088)">
       <use xlink:href="#ArialMT-2212"/>
       <use xlink:href="#ArialMT-31" x="58.398438"/>
       <use xlink:href="#ArialMT-2e" x="114.013672"/>
       <use xlink:href="#ArialMT-32" x="141.796875"/>
      </g>
     </g>
    </g>
    <g id="xtick_6">
     <g id="line2d_6">
      <g>
       <use xlink:href="#mf3aa643dc6" x="327.29374" y="286.3005" style="fill: #262626; stroke: #262626"/>
      </g>
     </g>
     <g id="text_6">
      <!-- −1.0 -->
      <g style="fill: #262626" transform="translate(318.607865 300.899375) scale(0.088 -0.088)">
       <use xlink:href="#ArialMT-2212"/>
       <use xlink:href="#ArialMT-31" x="58.398438"/>
       <use xlink:href="#ArialMT-2e" x="114.013672"/>
       <use xlink:href="#ArialMT-30" x="141.796875"/>
      </g>
     </g>
    </g>
    <g id="xtick_7">
     <g id="line2d_7">
      <g>
       <use xlink:href="#mf3aa643dc6" x="380.326792" y="286.3005" style="fill: #262626; stroke: #262626"/>
      </g>
     </g>
     <g id="text_7">
      <!-- −0.8 -->
      <g style="fill: #262626" transform="translate(371.640917 300.899375) scale(0.088 -0.088)">
       <use xlink:href="#ArialMT-2212"/>
       <use xlink:href="#ArialMT-30" x="58.398438"/>
       <use xlink:href="#ArialMT-2e" x="114.013672"/>
       <use xlink:href="#ArialMT-38" x="141.796875"/>
      </g>
     </g>
    </g>
    <g id="text_8">
     <!-- $\theta_0$ -->
     <g style="fill: #262626" transform="translate(219.22375 313.860375) scale(0.096 -0.096)">
      <defs>
       <path id="DejaVuSans-Oblique-3b8" d="M 2913 2219 
L 925 2219 
Q 791 1284 928 888 
Q 1100 400 1566 400 
Q 2034 400 2391 891 
Q 2703 1322 2913 2219 
z
M 3009 2750 
Q 3094 3638 2984 3950 
Q 2813 4444 2353 4444 
Q 1875 4444 1525 3956 
Q 1250 3563 1034 2750 
L 3009 2750 
z
M 2444 4913 
Q 3194 4913 3494 4250 
Q 3794 3591 3566 2422 
Q 3341 1256 2781 594 
Q 2225 -72 1475 -72 
Q 722 -72 425 594 
Q 128 1256 353 2422 
Q 581 3591 1134 4250 
Q 1691 4913 2444 4913 
z
" transform="scale(0.015625)"/>
       <path id="DejaVuSans-30" d="M 2034 4250 
Q 1547 4250 1301 3770 
Q 1056 3291 1056 2328 
Q 1056 1369 1301 889 
Q 1547 409 2034 409 
Q 2525 409 2770 889 
Q 3016 1369 3016 2328 
Q 3016 3291 2770 3770 
Q 2525 4250 2034 4250 
z
M 2034 4750 
Q 2819 4750 3233 4129 
Q 3647 3509 3647 2328 
Q 3647 1150 3233 529 
Q 2819 -91 2034 -91 
Q 1250 -91 836 529 
Q 422 1150 422 2328 
Q 422 3509 836 4129 
Q 1250 4750 2034 4750 
z
" transform="scale(0.015625)"/>
      </defs>
      <use xlink:href="#DejaVuSans-Oblique-3b8" transform="translate(0 0.234375)"/>
      <use xlink:href="#DejaVuSans-30" transform="translate(61.181641 -16.171875) scale(0.7)"/>
     </g>
    </g>
   </g>
   <g id="matplotlib.axis_2">
    <g id="ytick_1">
     <g id="line2d_8">
      <defs>
       <path id="mf05ae91326" d="M 0 0 
L -4.8 0 
" style="stroke: #262626"/>
      </defs>
      <g>
       <use xlink:href="#mf05ae91326" x="45.89575" y="258.765759" style="fill: #262626; stroke: #262626"/>
      </g>
     </g>
     <g id="text_9">
      <!-- −0.5 -->
      <g style="fill: #262626" transform="translate(20.224 261.915196) scale(0.088 -0.088)">
       <defs>
        <path id="ArialMT-35" d="M 266 1200 
L 856 1250 
Q 922 819 1161 601 
Q 1400 384 1738 384 
Q 2144 384 2425 690 
Q 2706 997 2706 1503 
Q 2706 1984 2436 2262 
Q 2166 2541 1728 2541 
Q 1456 2541 1237 2417 
Q 1019 2294 894 2097 
L 366 2166 
L 809 4519 
L 3088 4519 
L 3088 3981 
L 1259 3981 
L 1013 2750 
Q 1425 3038 1878 3038 
Q 2478 3038 2890 2622 
Q 3303 2206 3303 1553 
Q 3303 931 2941 478 
Q 2500 -78 1738 -78 
Q 1113 -78 717 272 
Q 322 622 266 1200 
z
" transform="scale(0.015625)"/>
       </defs>
       <use xlink:href="#ArialMT-2212"/>
       <use xlink:href="#ArialMT-30" x="58.398438"/>
       <use xlink:href="#ArialMT-2e" x="114.013672"/>
       <use xlink:href="#ArialMT-35" x="141.796875"/>
      </g>
     </g>
    </g>
    <g id="ytick_2">
     <g id="line2d_9">
      <g>
       <use xlink:href="#mf05ae91326" x="45.89575" y="203.051417" style="fill: #262626; stroke: #262626"/>
      </g>
     </g>
     <g id="text_10">
      <!-- 0.0 -->
      <g style="fill: #262626" transform="translate(25.36375 206.200855) scale(0.088 -0.088)">
       <use xlink:href="#ArialMT-30"/>
       <use xlink:href="#ArialMT-2e" x="55.615234"/>
       <use xlink:href="#ArialMT-30" x="83.398438"/>
      </g>
     </g>
    </g>
    <g id="ytick_3">
     <g id="line2d_10">
      <g>
       <use xlink:href="#mf05ae91326" x="45.89575" y="147.337076" style="fill: #262626; stroke: #262626"/>
      </g>
     </g>
     <g id="text_11">
      <!-- 0.5 -->
      <g style="fill: #262626" transform="translate(25.36375 150.486513) scale(0.088 -0.088)">
       <use xlink:href="#ArialMT-30"/>
       <use xlink:href="#ArialMT-2e" x="55.615234"/>
       <use xlink:href="#ArialMT-35" x="83.398438"/>
      </g>
     </g>
    </g>
    <g id="ytick_4">
     <g id="line2d_11">
      <g>
       <use xlink:href="#mf05ae91326" x="45.89575" y="91.622734" style="fill: #262626; stroke: #262626"/>
      </g>
     </g>
     <g id="text_12">
      <!-- 1.0 -->
      <g style="fill: #262626" transform="translate(25.36375 94.772172) scale(0.088 -0.088)">
       <use xlink:href="#ArialMT-31"/>
       <use xlink:href="#ArialMT-2e" x="55.615234"/>
       <use xlink:href="#ArialMT-30" x="83.398438"/>
      </g>
     </g>
    </g>
    <g id="ytick_5">
     <g id="line2d_12">
      <g>
       <use xlink:href="#mf05ae91326" x="45.89575" y="35.908393" style="fill: #262626; stroke: #262626"/>
      </g>
     </g>
     <g id="text_13">
      <!-- 1.5 -->
      <g style="fill: #262626" transform="translate(25.36375 39.05783) scale(0.088 -0.088)">
       <use xlink:href="#ArialMT-31"/>
       <use xlink:href="#ArialMT-2e" x="55.615234"/>
       <use xlink:href="#ArialMT-35" x="83.398438"/>
      </g>
     </g>
    </g>
    <g id="text_14">
     <!-- $\theta_1$ -->
     <g style="fill: #262626" transform="translate(14.316 158.4765) rotate(-90) scale(0.096 -0.096)">
      <defs>
       <path id="DejaVuSans-31" d="M 794 531 
L 1825 531 
L 1825 4091 
L 703 3866 
L 703 4441 
L 1819 4666 
L 2450 4666 
L 2450 531 
L 3481 531 
L 3481 0 
L 794 0 
L 794 531 
z
" transform="scale(0.015625)"/>
      </defs>
      <use xlink:href="#DejaVuSans-Oblique-3b8" transform="translate(0 0.234375)"/>
      <use xlink:href="#DejaVuSans-31" transform="translate(61.181641 -16.171875) scale(0.7)"/>
     </g>
    </g>
   </g>
   <g id="PathCollection_1">
    <defs>
     <path id="m06261ffc2b" d="M 0 2.4 
C 0.636487 2.4 1.246992 2.147121 1.697056 1.697056 
C 2.147121 1.246992 2.4 0.636487 2.4 0 
C 2.4 -0.636487 2.147121 -1.246992 1.697056 -1.697056 
C 1.246992 -2.147121 0.636487 -2.4 0 -2.4 
C -0.636487 -2.4 -1.246992 -2.147121 -1.697056 -1.697056 
C -2.147121 -1.246992 -2.4 -0.636487 -2.4 0 
C -2.4 0.636487 -2.147121 1.246992 -1.697056 1.697056 
C -1.246992 2.147121 -0.636487 2.4 0 2.4 
z
" style="stroke: #000000; stroke-width: 0.8"/>
    </defs>
    <g clip-path="url(#pc300215b57)">
     <use xlink:href="#m06261ffc2b" x="62.128477" y="35.908393" style="stroke: #000000; stroke-width: 0.8"/>
    </g>
   </g>
   <g id="line2d_13">
    <path d="M 375.514616 274.2045 
L 386.783023 252.567224 
L 381.95917 238.22013 
L 382.179398 223.480154 
L 378.07967 215.100647 
L 378.901866 211.581064 
L 373.900965 207.311656 
L 366.223362 197.339054 
L 346.625867 179.823665 
L 352.879606 168.822792 
L 340.409681 155.57531 
L 332.180971 149.530393 
L 321.394904 133.178496 
L 318.13479 129.286313 
L 316.833431 126.933695 
L 313.725078 124.299331 
L 309.865951 121.249518 
L 311.329565 107.930803 
L 304.132405 99.981578 
L 287.42204 76.916875 
L 279.127502 68.333755 
L 272.75208 64.168354 
L 269.96871 61.51627 
L 267.756062 60.242651 
L 265.696533 59.87356 
L 259.830604 60.773253 
L 254.34504 58.715266 
L 251.526899 58.282296 
L 249.039527 57.330466 
L 246.169735 55.925926 
L 243.260904 56.024183 
L 241.105028 55.458777 
L 238.860201 54.992333 
L 234.735486 54.804733 
L 231.21484 53.853832 
L 227.953399 54.709651 
L 224.522337 54.607077 
L 219.243598 50.423584 
L 214.029786 46.434412 
L 212.268341 45.375186 
L 209.252352 44.113176 
L 207.655028 43.803754 
L 206.234056 43.083359 
L 202.290846 41.995985 
L 200.562055 41.710234 
L 198.37539 40.706293 
L 197.051651 40.822947 
L 195.209 41.204551 
L 193.721268 41.263317 
L 192.835899 40.863249 
L 190.430176 40.70551 
L 187.515118 40.390973 
L 186.174595 40.389924 
L 183.670848 39.291817 
L 180.811583 37.528442 
L 177.012484 33.471552 
L 175.016207 32.2845 
L 170.95231 34.458543 
L 169.038251 34.994473 
L 168.138183 35.106292 
L 165.873726 33.579173 
L 162.77318 33.127686 
L 161.497394 32.684474 
L 159.46347 33.626861 
L 156.001872 34.548697 
L 153.883644 34.672259 
L 153.700716 34.954384 
L 150.516182 36.527622 
L 148.408037 36.233755 
L 146.862173 36.89468 
L 145.626627 37.861481 
L 143.643026 38.187906 
L 141.447479 37.484274 
L 138.797346 36.302616 
L 138.556002 36.363958 
L 134.523083 36.27484 
L 133.225486 36.566117 
L 131.943409 36.605316 
L 130.671164 37.239861 
L 129.962116 37.284918 
L 129.508573 37.428803 
L 128.754039 37.544209 
L 128.007122 37.48911 
L 125.232856 35.421984 
L 124.382037 35.417999 
L 122.90148 35.178195 
L 122.076392 34.751906 
L 121.192825 35.158867 
L 118.703999 34.50032 
L 117.018639 34.307299 
L 115.720853 34.395753 
L 115.211423 34.319015 
L 114.381593 34.536092 
L 113.849721 34.364551 
L 112.572006 34.58508 
L 111.82098 34.404865 
L 110.790394 34.488285 
L 109.717703 34.279365 
L 109.020699 33.93352 
L 109.076207 33.716563 
L 108.461136 34.177216 
L 107.670693 34.184628 
L 106.71066 33.423785 
L 104.061665 33.203627 
L 102.699868 32.863082 
L 102.273036 33.424795 
L 101.719321 33.72533 
L 100.006303 35.319197 
L 99.375585 35.271762 
L 98.139312 35.438309 
L 97.460326 35.151309 
L 97.417273 35.35129 
L 96.669123 35.224328 
L 95.935072 35.453053 
L 95.769624 35.289496 
L 95.860756 35.857717 
L 95.422734 36.354939 
L 95.984637 36.156446 
L 95.612648 36.558054 
L 94.620563 36.105332 
L 92.615404 33.742984 
L 91.894661 33.247967 
L 90.034972 34.394279 
L 89.757182 35.000158 
L 90.115072 34.916566 
L 90.316808 35.533497 
L 89.457012 35.269876 
L 89.145114 34.869424 
L 89.337968 34.750006 
L 88.763706 34.445951 
L 88.869821 34.194418 
L 87.656307 34.145376 
L 86.845886 34.268844 
L 86.307122 34.151938 
L 87.047654 33.93356 
L 83.340793 35.085185 
L 82.006054 35.893688 
L 82.163093 35.828879 
L 82.497971 35.992543 
L 82.770672 35.835374 
L 83.197725 36.235668 
L 82.344915 37.263705 
L 82.127563 36.002545 
L 80.234051 36.773789 
L 79.08695 37.025627 
L 78.765412 37.843668 
L 78.379673 37.756609 
L 78.415203 38.469606 
L 78.455506 38.464956 
L 77.824535 38.050237 
L 78.257089 37.672048 
L 78.301943 37.100027 
L 77.003714 36.292799 
L 76.933698 35.777539 
L 76.916944 35.974491 
L 76.231604 36.826935 
L 75.865179 36.555105 
L 75.852598 36.740023 
L 77.613126 34.965263 
L 77.789385 34.722643 
L 77.986506 35.411556 
L 77.317951 36.606392 
L 76.83264 36.864687 
L 75.328818 35.84175 
L 75.112794 35.205425 
L 74.631529 35.14213 
L 74.218543 35.588118 
L 73.346355 35.235379 
L 73.697607 35.429927 
L 73.175628 35.52404 
L 73.063318 35.337236 
L 73.671782 35.012246 
L 73.275833 34.931709 
L 69.888519 36.677139 
L 69.325226 36.317719 
L 68.822467 36.82752 
L 69.002392 36.613392 
L 68.35078 35.806496 
L 67.435255 35.497353 
L 66.351279 35.651374 
L 67.283779 36.110552 
L 67.299647 36.29183 
L 67.29892 35.991042 
L 67.39002 36.02777 
L 67.376902 35.946463 
L 67.655451 36.273286 
L 67.944684 36.386208 
L 68.798064 36.199776 
L 67.747721 36.337378 
L 66.363891 34.911492 
L 66.373438 35.262531 
L 65.920432 34.875428 
L 65.799176 34.922889 
L 66.723046 35.729692 
L 67.688136 35.750627 
L 68.088953 36.32966 
L 68.652183 36.751513 
L 69.195277 36.873029 
L 69.512516 36.567406 
L 68.653226 35.188688 
L 68.608466 35.275296 
L 68.992719 35.395829 
L 68.730007 35.267738 
L 69.663897 35.010147 
L 68.951879 34.467669 
L 68.197376 35.247733 
L 67.8013 35.299246 
L 67.059726 35.122949 
L 66.026832 35.656873 
L 65.7761 35.93488 
L 65.633096 36.369019 
L 64.71874 36.213166 
L 63.984373 36.506196 
L 63.386909 36.649603 
L 63.736297 36.038118 
L 64.588285 35.157818 
L 64.430803 34.822693 
L 64.172706 35.099597 
L 64.236875 34.714912 
L 64.308188 34.858637 
L 65.145225 34.926622 
L 64.814235 34.661858 
L 64.93331 34.830915 
L 66.065144 34.879785 
L 65.971135 34.929212 
L 65.835117 35.092557 
L 66.234795 34.873382 
L 67.007443 35.054952 
L 66.945929 35.057848 
L 67.29696 35.323089 
L 67.888987 35.013388 
L 67.984829 36.065482 
L 68.842191 36.178709 
L 69.493708 35.941601 
L 68.547427 36.32003 
L 68.950172 36.516876 
L 68.792121 36.525962 
L 69.898951 37.561623 
L 69.538089 37.678742 
L 71.028066 36.807754 
L 70.053872 36.585936 
L 69.65609 36.264957 
L 70.371712 36.397366 
L 70.176678 36.146483 
L 69.876318 36.19526 
L 70.178037 36.356081 
L 70.60607 36.450154 
L 70.173422 36.754608 
L 69.613637 37.199586 
L 69.749561 37.222646 
L 70.31592 36.808339 
L 70.18085 36.675864 
L 70.877823 36.166501 
L 72.126867 34.909991 
L 71.630713 34.666374 
L 72.003903 34.554887 
L 72.090357 34.405158 
L 72.797445 34.772415 
L 71.893425 34.847174 
L 71.411623 34.613812 
L 71.075639 34.670532 
L 71.123149 34.651484 
L 71.17755 34.852049 
L 71.375809 34.983448 
L 71.725512 34.75706 
L 71.379918 34.788223 
L 72.383193 35.354345 
L 72.437152 35.641185 
L 71.883373 35.548268 
L 72.281314 35.560476 
L 72.918764 35.580414 
L 72.867303 35.530575 
L 73.970561 35.395603 
L 74.631719 34.944687 
L 74.460234 34.800124 
L 75.557391 34.780837 
L 75.167322 35.306113 
L 74.752249 35.494511 
L 74.278349 35.333131 
L 74.973488 35.9153 
L 74.906253 36.076467 
L 75.862303 36.763906 
L 75.01082 37.486466 
L 75.225516 37.744269 
L 74.261153 38.478187 
L 75.105302 39.018991 
L 74.364771 39.550896 
L 73.192793 39.192378 
L 73.67292 38.816726 
L 73.558554 38.466511 
L 72.837115 38.034111 
L 71.431917 37.713837 
L 71.126278 37.548473 
L 71.141104 37.158846 
L 71.826886 36.843274 
L 70.771233 37.34189 
L 70.049668 36.729569 
L 69.694117 36.969598 
L 69.784364 37.064627 
L 68.491824 36.20238 
L 68.357987 36.389329 
L 68.731493 36.298099 
L 68.679336 36.388625 
L 69.154753 36.684844 
L 68.675827 37.151288 
L 68.26382 36.786262 
L 68.149644 36.417158 
L 68.82215 35.85781 
L 68.750079 35.452668 
L 68.124261 36.234472 
L 68.121985 36.072163 
L 67.023627 34.773691 
L 66.278038 35.218523 
L 66.602327 35.352963 
L 66.979373 35.38143 
L 66.591706 35.30343 
L 65.87444 35.724352 
L 66.335316 34.800842 
L 65.566272 34.93248 
L 65.578916 35.021066 
L 64.808987 35.387248 
L 64.968239 36.003382 
L 64.097917 35.079141 
L 64.634183 34.839695 
L 65.558148 34.265072 
L 65.246251 34.002102 
L 64.844517 34.025122 
L 65.034969 34.245904 
L 64.982685 34.26907 
L 65.245745 34.152442 
L 65.357266 34.442072 
L 64.411616 34.659002 
L 64.728982 34.804774 
L 64.34691 35.750906 
L 64.014434 35.934495 
L 64.528194 35.870217 
L 65.030069 36.815605 
L 65.470304 37.285038 
L 65.290695 37.672619 
L 65.511334 37.714129 
L 65.982515 37.095485 
L 67.283747 36.911444 
L 67.719651 37.256293 
L 67.449922 37.796645 
L 67.047904 37.915531 
L 66.794643 38.151217 
L 66.082498 37.902792 
L 65.990891 37.731318 
L 65.584227 37.524709 
L 65.250329 37.565183 
L 64.938684 37.370636 
L 64.775196 37.415812 
L 64.797197 37.308377 
L 64.954552 37.216748 
L 65.902446 37.253623 
L 65.081214 36.526506 
L 65.562732 37.82199 
L 66.023924 38.323529 
L 66.328014 37.974735 
L 65.415049 38.329785 
L 64.906315 38.065792 
L 64.885041 37.398557 
L 64.487133 37.116711 
L 65.039995 36.839262 
L 64.813128 36.915442 
L 65.357234 35.593538 
L 64.697277 34.339538 
L 64.793467 34.452473 
L 65.34067 34.29929 
L 65.443214 34.464999 
L 65.632843 34.112871 
L 66.019246 33.927383 
L 65.752899 34.491154 
L 66.016717 34.362903 
L 65.886768 34.87556 
L 65.628734 35.133868 
L 66.795591 34.918001 
L 67.249861 35.335815 
L 66.764297 35.032277 
L 67.069051 35.007876 
L 66.170564 34.846364 
L 66.220697 35.196008 
L 66.092455 35.469432 
L 66.566228 35.502162 
L 66.443991 35.620795 
L 66.272032 35.764415 
L 66.532974 36.091078 
L 66.826854 35.970506 
L 66.469659 35.546541 
L 65.803664 35.493554 
L 64.782372 35.958803 
L 64.652991 35.7082 
L 64.283627 35.428625 
L 64.402765 36.04298 
L 64.551807 35.992649 
L 64.281856 36.043896 
L 63.680789 36.140386 
L 63.861378 36.06766 
L 64.055053 36.287061 
L 64.658175 36.168268 
L 65.366591 36.711503 
L 65.177056 36.783791 
L 64.66279 37.389511 
L 64.989703 37.015824 
L 64.955248 37.351361 
L 64.562586 37.197567 
L 64.276008 37.576487 
L 64.403998 37.443999 
L 64.931603 37.533742 
L 66.368001 36.639906 
L 66.701899 36.914911 
L 66.497887 37.210704 
L 65.482885 37.256837 
L 64.642339 37.065996 
L 64.738971 36.917196 
L 65.325339 37.132479 
L 65.744016 36.945848 
L 65.451306 36.818753 
L 65.529383 36.643267 
L 65.965224 37.037596 
L 65.386632 37.072611 
L 64.887159 36.794112 
L 65.492368 37.344667 
L 66.729874 37.525333 
L 66.837475 37.770371 
L 67.244171 38.216877 
L 68.440173 37.880662 
L 68.717869 37.99547 
L 69.251891 37.77162 
L 68.673678 36.300344 
L 68.795219 36.180157 
L 69.052936 36.084729 
L 68.167314 36.469401 
L 67.407311 36.544678 
L 66.859697 36.923359 
L 66.801534 36.756932 
L 67.253085 37.259507 
L 67.415625 37.087329 
L 67.30559 37.163216 
L 67.378009 37.298746 
L 67.6087 37.218913 
L 66.986137 37.392912 
L 66.610545 37.293207 
L 66.940018 37.013433 
L 66.543564 37.039788 
L 66.979973 36.79374 
L 66.849518 36.956807 
L 66.671648 36.772168 
L 67.479035 35.134386 
L 67.037441 34.40557 
L 67.401021 34.070909 
L 67.277994 34.040384 
L 67.046576 34.21688 
L 67.726827 34.963642 
L 67.592136 35.334659 
L 67.486305 35.524465 
L 67.898912 36.011365 
L 67.523542 35.875556 
L 67.971553 35.945533 
L 67.991088 35.750241 
L 67.707987 35.544961 
L 67.247111 35.856707 
L 66.71527 35.379171 
L 66.245859 35.121023 
L 66.044597 34.762347 
L 65.94158 34.961251 
L 65.603161 35.220529 
L 65.46139 35.488573 
L 64.74229 35.173957 
L 65.728906 35.532581 
L 66.150807 35.263766 
L 65.693029 34.642637 
L 65.43999 34.686632 
L 64.504898 34.499297 
L 64.059321 34.881897 
L 63.865013 34.659002 
L 63.217131 34.822733 
L 63.097929 34.629115 
L 62.699957 34.508675 
L 62.79463 34.62853 
L 64.061755 35.594508 
L 64.257453 35.295978 
L 64.093966 35.694651 
L 63.871904 35.637054 
L 64.271962 35.55928 
L 64.0652 35.127997 
L 64.343465 35.524252 
L 63.907624 36.155038 
L 64.226602 36.34297 
L 64.845655 36.336687 
L 64.673317 36.162237 
L 65.016224 36.770641 
L 65.439168 36.800435 
L 65.848235 36.513555 
L 65.773951 36.570447 
L 64.551776 36.634925 
L 64.886432 36.319671 
L 64.713841 36.275358 
L 64.023032 36.53267 
L 64.315268 36.455281 
L 64.793878 35.677024 
L 64.832442 35.273941 
L 65.417768 35.531266 
L 65.905418 35.461781 
L 65.693503 35.779518 
L 65.914932 35.7417 
L 66.214217 35.963187 
L 66.757343 35.869884 
L 66.710623 35.981863 
L 66.525862 36.34669 
L 66.322798 35.873312 
L 66.418198 35.927016 
L 66.271843 36.103618 
L 66.633052 36.506634 
L 66.338951 36.726553 
L 66.787878 37.094488 
L 67.204058 37.136291 
L 66.91198 37.12326 
L 67.390337 36.857434 
L 66.930851 36.733407 
L 67.359295 37.036719 
L 67.280965 37.160334 
L 67.792386 37.033013 
L 67.837146 35.780182 
L 67.093422 36.228973 
L 67.128288 36.293437 
L 67.02546 36.537013 
L 67.089345 36.571895 
L 66.836937 36.727696 
L 66.425436 36.591223 
L 66.205019 36.980172 
L 65.827246 36.87275 
L 65.596997 36.988607 
L 66.800238 36.426762 
L 66.235586 36.555809 
L 66.284044 36.20938 
L 65.828162 36.246135 
L 65.807047 35.462392 
L 65.593583 35.409896 
L 65.922898 35.399801 
L 66.337971 35.196898 
L 65.576988 35.588703 
L 65.637427 35.372357 
L 65.467427 35.360349 
L 65.549993 35.332295 
L 65.277008 35.61236 
L 64.646796 35.452602 
L 64.70793 35.498974 
L 64.030682 34.653662 
L 64.630896 34.555618 
L 64.514539 34.526262 
L 64.412406 34.679897 
L 64.818818 34.51707 
L 65.311779 35.204655 
L 65.299862 35.388908 
L 65.684146 35.770937 
L 65.612834 35.978197 
L 64.826531 35.558257 
L 64.857604 35.534215 
L 65.210026 35.192355 
L 65.250929 35.259475 
L 64.858679 35.323793 
L 65.280263 35.677728 
L 65.549076 36.552807 
L 64.999091 36.619689 
L 64.821663 36.665888 
L 65.956152 35.934667 
L 65.827846 35.864385 
L 65.020997 35.792708 
L 65.762856 36.622159 
L 66.894974 37.301854 
L 67.350887 37.324476 
L 66.63498 37.753063 
L 66.334083 37.389126 
L 66.553173 37.439549 
L 66.404985 37.358747 
L 66.593982 37.24192 
L 67.527778 36.951533 
L 68.538133 36.423361 
L 68.437644 36.285241 
L 68.690083 36.289757 
L 68.194752 36.631245 
L 67.436867 35.816167 
L 67.459563 35.44321 
L 67.162427 35.316116 
L 66.915678 35.557646 
L 67.091462 35.695421 
L 66.445003 35.760217 
L 66.785097 35.646366 
L 65.949261 35.550394 
L 65.595006 35.261282 
L 65.30277 35.415262 
L 65.821714 35.245249 
L 65.802779 35.30796 
L 66.236344 35.135622 
L 66.618891 35.726132 
L 66.420695 35.941907 
L 65.553786 36.577315 
L 65.625478 36.607415 
L 65.497236 36.856039 
L 66.316634 35.284501 
L 66.295993 35.310802 
L 66.633494 35.574184 
L 66.726081 35.926644 
L 66.567208 35.858408 
L 66.798784 35.592263 
L 67.198273 35.397396 
L 66.331048 35.553409 
L 65.981946 35.635952 
L 65.726346 35.374257 
L 65.996265 35.181582 
L 65.400066 35.719305 
L 65.109885 35.661482 
L 65.159797 35.900423 
L 64.857857 35.770073 
L 65.022925 35.759314 
L 65.352872 35.669319 
L 66.073457 35.88787 
L 65.47416 35.375266 
L 65.266165 35.432743 
L 65.622759 35.520148 
L 65.605437 35.796162 
L 65.174654 36.493099 
L 65.801009 36.993801 
L 65.525432 36.904205 
L 64.994602 36.861645 
L 63.679525 35.497592 
L 63.242103 34.955367 
L 63.968157 35.517956 
L 63.896718 35.867148 
L 64.062672 35.847396 
L 64.131171 36.176942 
L 64.035013 36.416175 
L 63.141488 36.382369 
L 63.44346 36.037055 
L 62.996587 35.818677 
L 62.848114 35.674367 
L 63.030536 35.756206 
L 63.222315 35.727979 
L 63.787758 35.886993 
L 63.206605 35.623731 
L 63.349388 35.798991 
L 64.127725 35.563146 
L 64.196351 35.829862 
L 64.020535 35.740784 
L 64.234789 35.673809 
L 64.20536 35.63562 
L 64.659819 35.942026 
L 65.119937 35.904713 
L 64.800611 36.36704 
L 64.917758 36.62382 
L 65.327552 36.570328 
L 65.065472 36.60865 
L 65.683072 37.155831 
L 65.457944 37.17812 
L 65.502831 37.268341 
L 65.841122 37.500865 
L 65.7333 37.454932 
L 65.864198 37.156854 
L 65.473496 37.058065 
L 65.021281 37.420315 
L 65.199784 37.227973 
L 64.957935 37.11974 
L 64.84496 37.20462 
L 65.05561 37.267092 
L 65.610273 36.302642 
L 65.900044 36.199683 
L 66.12024 36.081554 
L 66.481418 36.077304 
L 66.47772 36.110432 
L 66.509235 35.890713 
L 66.581685 35.996926 
L 66.325137 35.955283 
L 67.435571 35.439518 
L 67.328602 35.484176 
L 66.887229 35.517757 
L 67.411737 36.056462 
L 67.271419 36.093682 
L 67.371212 36.169835 
L 67.504007 36.231324 
L 67.300121 36.490774 
L 67.904982 36.452106 
L 67.505303 35.200843 
L 67.087543 35.308305 
L 67.054384 35.547179 
L 67.981763 34.389297 
L 67.697113 34.333773 
L 67.451502 34.136569 
L 67.04784 34.095178 
L 66.656981 33.688163 
L 66.802388 33.720269 
L 66.508824 33.910154 
L 66.882361 33.737458 
L 66.982249 33.870477 
L 66.773085 33.970102 
L 66.945487 34.237403 
L 66.761358 34.295318 
L 66.951145 34.379176 
L 66.854449 34.397799 
L 66.721592 34.454585 
L 66.501079 34.272989 
L 66.67326 34.430648 
L 67.558218 34.117055 
L 67.54412 34.165221 
L 68.143354 34.442962 
L 69.073546 35.257735 
L 68.781974 35.346587 
L 68.79427 35.118367 
L 68.956399 35.014889 
L 68.986239 35.291966 
L 68.683477 35.77447 
L 68.811909 35.684967 
L 68.502919 35.70537 
L 67.813344 35.303988 
L 67.451439 35.69934 
L 67.532835 35.613715 
L 67.091115 35.83123 
L 66.988603 35.674859 
L 67.326642 35.677369 
L 67.088459 35.542304 
L 67.505777 35.692685 
L 67.566279 35.594973 
L 67.4491 35.811092 
L 67.632976 35.692193 
L 67.716711 35.650988 
L 67.500024 35.509787 
L 67.278689 35.509508 
L 67.158065 35.767882 
L 66.519097 35.66997 
L 66.786582 35.514303 
L 66.820152 35.339122 
L 67.304989 35.748289 
L 67.948351 35.803295 
L 67.778825 36.033163 
L 67.526355 35.978542 
L 67.939437 36.218359 
L 67.808255 36.442609 
L 67.809867 36.216433 
L 67.663069 36.364078 
L 67.803703 36.395745 
L 67.201877 36.291418 
L 67.553919 36.038025 
L 67.166126 36.324347 
L 66.435931 36.648925 
L 66.158362 36.852904 
L 66.208812 37.090915 
L 66.096058 37.202468 
L 66.18817 37.453284 
L 66.388452 37.309094 
L 66.329152 37.306318 
L 66.134117 37.323267 
L 66.102033 36.998304 
L 66.28651 36.90989 
L 66.548937 37.184616 
L 66.523523 37.096162 
L 66.578366 37.042976 
L 66.788353 37.832298 
L 66.97441 38.025716 
L 67.451723 37.867193 
L 67.430355 37.874047 
L 67.567543 38.045323 
L 67.401368 37.841304 
L 67.548956 37.781795 
L 68.08791 38.12295 
L 68.410744 37.97864 
L 67.564066 38.323409 
L 67.623209 38.488056 
L 66.724121 37.402263 
L 66.670194 37.441449 
L 66.27592 37.495525 
L 66.171765 37.178997 
L 66.288153 36.670869 
L 66.41393 36.86652 
L 66.681257 36.796968 
L 65.988932 36.338056 
L 66.135381 36.464287 
L 66.006665 36.775954 
L 66.015737 36.620074 
L 66.528485 36.724255 
L 66.51739 36.798429 
L 67.148108 36.80191 
L 67.681182 36.368063 
L 67.629942 36.352667 
L 67.809424 36.545754 
L 67.7475 36.437255 
L 66.886344 35.847834 
L 67.055869 35.576456 
L 66.776752 35.365715 
L 66.682142 35.0901 
L 66.736259 35.207431 
L 66.578145 35.245979 
L 66.582128 35.202237 
L 66.321945 35.447687 
L 66.563004 35.406323 
L 66.508792 35.514303 
L 66.520046 35.2972 
L 67.534985 34.880542 
L 67.205227 34.969952 
L 67.064246 34.90311 
L 66.627457 35.045335 
L 66.723267 34.999906 
L 66.370593 34.751893 
L 66.505378 34.744852 
L 65.696917 35.110397 
L 66.139364 35.217606 
L 66.056166 35.274233 
L 66.484863 34.573723 
L 66.170342 34.720956 
L 66.40745 35.134307 
L 66.373912 35.125008 
L 66.68524 35.236415 
L 66.536167 35.411888 
L 66.190257 35.479208 
L 65.986055 35.729559 
L 65.813495 35.769316 
L 65.534472 35.9774 
L 64.806553 36.015337 
L 64.641706 36.115786 
L 64.22597 35.903797 
L 64.719626 36.066093 
L 64.81708 35.971289 
L 64.6143 36.087983 
L 64.844201 36.308845 
L 64.936503 36.22791 
L 65.209994 36.166448 
L 64.879257 35.600419 
L 64.928948 35.669691 
L 65.331725 35.466563 
L 65.078527 35.392056 
L 65.150124 35.45575 
L 64.265925 36.257253 
L 64.331864 36.112757 
L 64.17552 36.124645 
L 64.182569 35.894392 
L 63.710598 35.818 
L 63.551978 35.787328 
L 63.654869 35.694425 
L 63.91167 36.043033 
L 63.759024 36.053194 
L 63.547331 35.924519 
L 63.739047 35.566838 
L 64.061755 35.384232 
L 64.257864 35.082395 
L 64.530059 35.078277 
L 64.484762 35.196592 
L 64.943457 35.673118 
L 64.925977 35.818611 
L 65.370068 36.469561 
L 65.802716 36.581021 
L 65.798733 36.365446 
L 65.281939 36.368009 
L 65.726757 36.278599 
L 65.766491 36.314478 
L 65.684589 35.878731 
L 65.217169 35.548521 
L 65.637174 35.83378 
L 66.155802 35.743161 
L 66.438175 35.708691 
L 66.337592 35.640853 
L 65.844031 35.574383 
L 66.157983 35.721735 
L 66.452147 35.46712 
L 66.193892 35.522857 
L 65.748094 35.574317 
L 66.058 35.995266 
L 66.811428 36.090454 
L 66.739452 36.084131 
L 66.855524 36.200746 
L 67.223877 36.353743 
L 67.433358 35.985861 
L 67.720694 35.989049 
L 67.665756 36.057432 
L 67.821499 36.189362 
L 67.775759 36.170898 
L 67.903338 36.48736 
L 68.191148 36.575362 
L 68.074475 36.45281 
L 68.382453 36.263749 
L 68.409037 35.990112 
L 68.483732 35.972418 
L 68.296979 35.863229 
L 68.492267 35.69659 
L 68.122776 35.900967 
L 68.088226 35.629496 
L 67.857724 35.713659 
L 67.106161 35.469538 
L 67.085615 35.60269 
L 67.264117 35.563358 
L 68.050515 35.977015 
L 67.790047 35.968487 
L 67.489245 36.169942 
L 67.58907 36.42538 
L 67.49307 36.491717 
L 67.292946 36.485859 
L 66.800364 36.718132 
L 66.866366 36.852187 
L 66.594582 36.946485 
L 66.899494 37.552577 
L 67.057545 37.682209 
L 66.988856 37.826945 
L 67.00229 37.67679 
L 67.307391 37.461852 
L 67.160088 37.434236 
L 67.444643 37.475056 
L 67.21961 37.650011 
L 67.323133 37.5803 
L 67.148171 37.512648 
L 66.946435 37.326043 
L 66.463305 37.324463 
L 66.194461 37.49615 
L 66.215197 37.603798 
L 65.944962 37.611409 
L 66.060434 37.569514 
L 65.785773 36.798735 
L 66.207168 36.223699 
L 66.303927 36.222039 
L 66.144359 36.164124 
L 66.162345 36.14817 
L 66.166043 36.07571 
L 66.562182 35.622761 
L 67.002164 35.391366 
L 66.743024 35.430498 
L 66.380265 35.147484 
L 66.079526 35.100833 
L 65.841439 35.238753 
L 65.348478 35.286573 
L 65.568611 35.559732 
L 65.48535 35.568565 
L 65.068633 35.785947 
L 64.899424 35.853121 
L 64.316975 35.379636 
L 64.191894 35.095679 
L 64.256853 35.095785 
L 64.210512 35.806749 
L 64.377951 35.91882 
L 64.254229 36.059982 
L 64.346025 35.921929 
L 64.72364 36.151239 
L 65.457533 36.08898 
L 66.253856 35.352738 
L 66.25 35.280569 
L 66.2237 35.288619 
L 66.423919 35.388735 
L 66.651417 35.359286 
L 66.363259 34.996997 
L 66.395786 34.846032 
L 66.208749 34.824008 
L 66.719664 35.183933 
L 66.927311 35.168006 
L 66.954559 35.053371 
L 66.842027 35.07327 
L 66.42885 35.130747 
L 66.483251 35.286959 
L 66.72352 35.330661 
L 67.074235 35.136259 
L 66.914193 35.07226 
L 66.372331 35.152638 
L 66.642029 35.467758 
L 66.564047 35.59221 
L 66.780292 35.585395 
L 66.503008 35.866258 
L 66.032775 35.752274 
L 65.846465 35.472328 
L 66.519445 35.445681 
L 66.278544 35.731007 
L 66.389053 35.723781 
L 66.688812 35.781338 
L 66.109809 35.749511 
L 65.857844 35.85854 
L 65.112445 35.69845 
L 65.127966 35.797437 
L 65.196844 35.786478 
L 65.422983 35.669532 
L 65.377528 35.765491 
L 65.415586 35.827697 
L 65.240245 35.645609 
L 65.166688 35.923801 
L 65.257662 36.148914 
L 65.323885 36.051202 
L 65.860658 35.786093 
L 65.871026 35.919059 
L 65.571741 35.807453 
L 66.244595 35.986725 
L 66.592528 35.912285 
L 66.361584 35.955894 
L 65.948344 35.743733 
L 65.891477 35.930231 
L 66.021743 35.993951 
L 65.986403 35.886807 
L 66.473579 35.224341 
L 67.717723 36.090122 
L 67.465063 36.030772 
L 67.345766 36.07122 
L 67.415467 36.306189 
L 67.296107 36.282119 
L 67.079451 36.417131 
L 66.926932 36.368102 
L 66.605804 35.788989 
L 66.431442 35.752473 
L 66.168319 35.610394 
L 66.012418 35.584731 
L 65.795952 35.809817 
L 65.121169 35.586179 
L 64.280339 35.937111 
L 64.277968 35.980853 
L 64.18219 35.945108 
L 64.083218 35.780102 
L 63.759688 35.92165 
L 64.025182 36.016253 
L 64.024012 35.997869 
L 64.147671 35.93832 
L 63.744895 35.853772 
L 63.652909 36.028155 
L 63.970212 36.546365 
L 63.873959 36.6008 
L 64.115871 36.333898 
L 64.170304 36.442343 
L 64.380227 36.311143 
L 64.46706 36.368647 
L 64.526993 36.225997 
L 64.720005 36.134834 
L 64.694179 36.321518 
L 64.366382 36.515919 
L 64.664719 36.772142 
L 65.159102 36.726088 
L 65.504664 36.42546 
L 65.436228 36.477584 
L 65.058739 36.144929 
L 65.627691 35.998294 
L 65.740476 35.813762 
L 65.332989 35.758942 
L 66.139965 36.234817 
L 65.860752 36.208663 
L 65.946637 36.17471 
L 65.816972 36.399185 
L 66.194935 36.343289 
L 66.276647 36.214959 
L 66.679582 36.037361 
L 66.340595 35.536805 
L 66.522859 35.51595 
L 66.451388 35.608083 
L 66.687548 35.872793 
L 66.907871 35.865953 
L 66.989298 35.990869 
L 66.986327 35.979724 
L 67.235447 35.904421 
L 67.163281 35.866019 
L 66.829066 35.812806 
L 66.836685 35.672096 
L 67.117478 35.713327 
L 67.526608 35.903066 
L 68.007683 35.416989 
L 68.21198 35.658175 
L 67.941555 35.782759 
L 68.37651 35.993951 
L 68.431828 35.988664 
L 68.364815 36.056303 
L 68.188999 35.816738 
L 68.419058 35.752579 
L 68.303428 35.690148 
L 68.197565 35.596434 
L 68.538923 35.485943 
L 68.870672 35.611271 
L 68.729406 35.571182 
L 68.927634 35.916748 
L 68.870577 35.95685 
L 68.672887 35.889105 
L 68.813679 35.89948 
L 68.159507 35.443609 
L 67.548387 35.735178 
L 67.550695 35.669266 
L 67.359169 35.925276 
L 66.751811 36.008549 
L 66.843165 35.910372 
L 66.802767 35.727912 
L 66.13829 36.1048 
L 66.107659 36.04104 
L 65.903837 35.991852 
L 65.345285 36.251608 
L 65.45276 36.379685 
L 65.917587 36.140041 
L 65.903173 36.104428 
L 65.906176 36.217111 
L 65.591118 36.243518 
L 65.42134 36.039645 
L 65.478364 36.015523 
L 65.692523 35.929287 
L 65.514179 35.552479 
L 65.700647 35.264045 
L 65.449662 34.776958 
L 65.789598 34.657554 
L 66.10807 34.75884 
L 65.862175 34.77927 
L 65.821587 34.919077 
L 65.670048 34.919024 
L 65.98144 35.471836 
L 65.963043 35.559373 
L 65.995728 35.48419 
L 65.642516 35.441165 
L 65.690595 35.354252 
L 65.390393 35.750095 
L 65.215178 35.783808 
L 65.260286 35.810813 
L 65.373893 35.929992 
L 65.544682 35.840409 
L 64.792582 36.158797 
L 64.880901 36.153723 
L 64.66279 36.706004 
L 64.794794 37.097145 
L 65.019227 37.171691 
L 64.825014 37.406182 
L 64.467534 37.313783 
L 64.710553 37.197514 
L 64.855581 37.066912 
L 65.157932 37.004268 
L 65.427978 36.603324 
L 65.824464 36.729834 
L 65.227759 36.403423 
L 65.536559 36.260999 
L 65.7486 36.436538 
L 65.877316 36.249814 
L 65.662019 36.546405 
L 65.469482 36.518789 
L 65.502262 36.38545 
L 65.427124 36.405668 
L 65.386031 36.350077 
L 65.513578 36.511536 
L 65.420202 36.505492 
L 65.163432 36.622611 
L 65.088927 36.506594 
L 64.970831 36.55727 
L 64.93252 36.453541 
L 64.99337 36.318383 
L 64.874642 36.289292 
L 64.779622 36.276447 
L 64.709637 36.422019 
L 65.241667 36.36619 
L 64.973898 36.275318 
L 65.093226 36.119863 
L 65.094743 36.343807 
L 65.19264 36.187051 
L 65.716989 36.654611 
L 65.715346 36.714465 
L 65.797026 36.598847 
L 66.156307 36.490668 
L 66.149764 36.517739 
L 66.262739 36.881463 
L 65.916702 36.857089 
L 66.161397 36.782503 
L 66.501712 36.349506 
L 66.231508 35.851195 
L 66.008245 35.988332 
L 65.909717 36.455215 
L 65.89369 36.400089 
L 65.428389 36.513993 
L 65.523914 36.486231 
L 65.400825 36.417822 
L 65.452033 36.401483 
L 65.349174 36.206218 
L 65.440116 36.064326 
L 65.511492 35.958431 
L 65.947649 36.055479 
L 65.96633 35.984945 
L 65.859267 36.068324 
L 65.723975 36.196402 
L 65.526633 36.172479 
L 65.566557 36.101918 
L 65.481146 36.009173 
L 65.643812 35.798128 
L 65.952485 36.140639 
L 65.514874 36.363745 
L 65.498879 36.212143 
L 65.50479 36.057246 
L 65.700552 36.138128 
L 65.797342 36.080611 
L 65.574333 36.091211 
L 64.928664 36.05694 
L 64.870532 36.236252 
L 64.974814 36.231922 
L 65.438662 36.047748 
L 65.556315 36.125828 
L 65.142127 36.289532 
L 65.284942 36.301101 
L 65.500365 35.884722 
L 65.76393 35.892214 
L 65.80142 36.069294 
L 65.964371 36.033296 
L 65.816593 35.990231 
L 65.962095 35.887604 
L 66.181596 35.971409 
L 66.121315 35.946729 
L 65.921476 35.669612 
L 65.98046 35.635686 
L 66.235839 35.600963 
L 66.026611 35.745034 
L 65.894891 35.730927 
L 66.51031 36.461484 
L 66.423034 36.595673 
L 66.194998 36.664852 
L 66.441336 36.386845 
L 66.495548 36.435502 
L 66.480217 36.531288 
L 66.463242 36.502477 
L 66.664567 36.426948 
L 66.913908 36.222119 
L 66.81108 36.275039 
L 66.442537 36.23058 
L 66.416459 36.38739 
L 66.607637 36.469481 
L 66.356874 36.432181 
L 66.526273 36.342838 
L 66.818035 36.1739 
L 66.752949 36.119385 
L 66.637193 36.113859 
L 66.743561 36.307809 
L 66.96812 36.451628 
L 66.843323 36.500258 
L 66.629259 36.560551 
L 66.65442 36.49448 
L 66.671016 36.301792 
L 66.522385 36.276328 
L 66.671205 36.236584 
L 66.557598 35.968912 
L 66.81756 35.759261 
L 66.724437 35.783662 
L 66.798373 35.740173 
L 66.656127 35.932502 
L 66.727851 35.890288 
L 66.517264 35.970931 
L 66.69172 35.834059 
L 66.902845 35.829211 
L 66.898893 35.897275 
L 66.391329 36.017489 
L 66.334968 36.040535 
L 66.441115 36.2076 
L 66.252624 36.313495 
L 66.241686 36.291604 
L 65.934309 35.87015 
L 66.351469 35.791181 
L 66.156592 35.540099 
L 65.971989 35.690254 
L 65.995096 35.857 
L 65.704946 36.04371 
L 65.401204 36.047775 
L 65.449536 36.05613 
L 65.252099 36.122002 
L 65.293318 36.116184 
L 65.420929 36.229185 
L 65.591244 36.190225 
L 65.341935 36.174524 
L 65.469324 36.193068 
L 65.385019 36.104322 
L 65.580844 36.290435 
L 65.711837 36.205767 
L 65.915438 36.219143 
L 66.122832 36.223009 
L 65.716958 36.317121 
L 65.681396 36.401988 
L 65.488511 36.305379 
L 65.598325 36.240463 
L 65.685917 36.06867 
L 65.579137 35.931479 
L 65.650861 36.087001 
L 66.010806 35.756219 
L 66.345368 35.74542 
L 66.101495 35.688474 
L 65.843778 35.723608 
L 65.991903 35.758995 
L 66.358581 35.982647 
L 66.284012 35.93747 
L 66.058253 36.049542 
L 66.074816 36.053553 
L 66.309048 35.638568 
L 66.480217 35.776051 
L 66.437543 35.685047 
L 66.314232 35.722798 
L 66.573309 35.762768 
L 66.387283 35.823512 
L 66.599577 35.767085 
L 66.490553 35.746947 
L 66.048801 35.621738 
L 66.459291 35.849402 
L 66.16304 35.519709 
L 65.812484 35.790171 
L 65.706242 35.777552 
L 65.792949 35.827125 
L 65.88073 36.072442 
L 65.899949 36.028275 
L 66.331523 35.827816 
L 66.242413 35.760257 
L 65.911234 35.847422 
L 66.028792 35.754585 
L 65.807205 35.717817 
L 65.802337 35.741727 
L 65.597914 35.789653 
L 65.491988 36.018459 
L 65.942718 36.144504 
L 66.271274 36.290036 
L 66.264572 36.313588 
L 66.072224 36.286078 
L 66.064701 36.15982 
L 66.374702 35.798141 
L 66.35542 35.87735 
L 66.774191 35.852815 
L 66.705218 35.974411 
L 66.610229 35.946582 
L 67.043858 36.020969 
L 67.103253 36.219396 
L 66.987339 36.260401 
L 67.15503 36.207069 
L 66.971154 36.154108 
L 66.970933 36.096697 
L 66.904931 36.102422 
L 66.64459 36.12252 
L 66.260621 35.913201 
L 66.140913 35.917718 
L 66.108734 35.608203 
L 66.363228 35.61078 
L 66.206473 35.736413 
L 66.355957 35.999131 
L 66.403499 35.919989 
L 66.229864 36.031795 
L 66.017918 36.035328 
L 66.050097 36.068218 
L 65.893374 36.177314 
L 66.093277 36.248951 
L 66.525704 36.371915 
L 65.913921 36.191208 
L 66.41431 36.44318 
L 66.187507 36.709444 
L 66.533448 36.756627 
L 66.466561 36.575309 
L 66.450693 36.571484 
L 66.545776 36.636771 
L 66.25727 36.737392 
L 66.244405 36.720496 
L 66.386619 36.70449 
L 66.302062 36.646362 
L 66.283191 36.547826 
L 66.191616 36.502238 
L 66.255816 36.364835 
L 66.171164 36.381784 
L 65.827309 35.938041 
L 65.579359 35.989421 
L 65.796552 36.322886 
L 65.926217 36.115892 
L 66.038654 36.018193 
L 65.959123 36.214149 
L 66.129186 36.298405 
L 66.245227 36.329634 
L 66.234732 36.242987 
L 66.287837 36.196176 
L 66.137815 36.211266 
L 66.043206 36.071273 
L 66.126942 36.251661 
L 66.100832 36.028142 
L 66.206978 35.979073 
L 66.216145 36.042169 
L 66.358423 36.031078 
L 66.729052 35.9933 
L 66.884827 36.016878 
L 66.866461 36.002917 
L 66.781367 35.758079 
L 66.85053 35.777964 
L 66.87664 35.762396 
L 66.694028 35.800931 
L 66.713721 35.781072 
L 66.683565 35.734474 
L 66.891402 35.890474 
L 66.936636 35.857637 
L 66.857358 35.839346 
L 66.741317 35.730556 
L 66.906954 35.848525 
L 66.820532 35.69404 
L 67.013132 35.696138 
L 66.980511 35.734527 
L 67.021699 35.797477 
L 66.630555 36.085712 
L 66.201573 36.090494 
L 66.230086 36.059172 
L 66.102254 36.300623 
L 66.090558 36.258834 
L 65.91057 36.13862 
L 66.343376 36.358512 
L 66.302315 36.225918 
L 66.204797 36.123397 
L 66.262612 36.089484 
L 66.368064 36.133147 
L 66.079431 36.152222 
L 66.31262 35.986353 
L 66.399864 36.046566 
L 66.075006 36.259352 
L 65.687434 35.971621 
L 66.050477 36.096697 
L 65.956911 35.860095 
L 65.980397 35.827086 
L 65.791621 35.936128 
L 66.024493 36.107829 
L 66.017539 36.111548 
L 66.078704 36.081528 
L 65.646277 36.266033 
L 65.887178 36.083042 
L 65.797248 35.940485 
L 65.85266 35.881361 
L 65.809986 36.009519 
L 65.838815 36.243651 
L 65.641884 36.261663 
L 65.794592 36.293317 
L 65.833915 36.481343 
L 65.764626 36.483747 
L 65.692523 36.514392 
L 66.051962 36.38836 
L 65.942433 36.525284 
L 66.104814 36.494666 
L 66.100389 36.474595 
L 66.177075 36.034757 
L 65.644286 36.164695 
L 66.209349 36.016174 
L 65.872069 36.247503 
L 65.818395 36.263403 
L 65.55091 36.177885 
L 65.814538 36.34835 
L 65.766364 36.321212 
L 65.679436 36.397127 
L 65.755807 36.20489 
L 65.740855 36.173369 
L 65.840522 36.293437 
L 66.095205 36.399478 
L 66.089484 36.327641 
L 66.16323 36.128378 
L 65.993515 36.161108 
L 65.918093 36.027969 
L 65.957669 36.045503 
L 66.057273 36.029869 
L 66.014536 36.102794 
L 65.927924 36.194051 
L 66.045356 36.090746 
L 65.939019 36.133572 
L 65.804613 36.121298 
L 65.87817 36.179798 
L 65.851585 36.274853 
L 65.869319 36.17216 
L 65.80123 36.226582 
L 65.528972 36.253175 
L 65.843778 36.297156 
L 65.614162 36.220644 
L 65.490692 36.336342 
L 65.632053 36.108958 
L 65.623518 36.121683 
L 65.559128 36.083666 
L 65.793581 36.169822 
L 65.955204 36.113886 
L 65.907567 36.066066 
L 65.760232 35.885081 
L 65.98261 36.113567 
L 65.998636 36.03489 
L 66.163009 35.953503 
L 65.911107 35.706632 
L 65.932033 35.77006 
L 65.757261 36.158478 
L 65.814696 36.08619 
L 65.933582 36.063941 
L 65.649913 36.219528 
L 65.856991 36.415989 
L 65.840838 36.418752 
L 65.920179 36.42271 
L 65.858034 36.33767 
L 66.133516 36.240755 
L 66.17638 36.240184 
L 66.028824 36.239639 
L 66.041183 36.210549 
L 65.946922 36.104468 
L 65.832177 36.068709 
L 66.01403 36.078818 
L 65.960925 36.034053 
L 66.115025 35.921769 
L 66.055123 36.053832 
L 66.125804 36.093191 
L 66.042795 36.134621 
L 65.79788 36.204558 
L 66.175274 36.100377 
L 66.161934 36.194901 
L 66.323114 36.233144 
L 66.248736 36.33787 
L 66.290714 36.433722 
L 66.177391 36.301075 
L 66.061603 36.356586 
L 66.109967 36.332755 
L 66.036378 36.093084 
L 66.053037 36.077848 
L 65.581066 36.399664 
L 65.840522 36.386872 
L 65.901308 36.383551 
L 65.877158 36.366907 
L 65.9626 36.093562 
L 65.820987 35.969443 
L 66.027654 36.270669 
L 65.962189 36.368089 
L 65.93943 36.306056 
L 65.850289 36.271201 
L 65.880098 36.266538 
L 65.959281 36.144385 
L 65.884334 36.346902 
L 65.928398 36.362909 
L 66.068368 36.272994 
L 65.992029 36.245564 
L 65.958934 36.221122 
L 66.085374 36.184792 
L 66.189435 36.095382 
L 66.082276 36.02696 
L 66.049908 36.00402 
L 66.177613 35.978622 
L 66.204861 35.872023 
L 66.129976 36.114763 
L 66.052057 36.057113 
L 65.951695 36.034651 
L 66.16206 36.005866 
L 66.071529 36.158717 
L 66.155422 36.143083 
L 66.053543 36.163871 
L 66.159626 36.119624 
L 66.209128 36.070024 
L 66.07096 36.07025 
L 66.07586 36.05706 
L 66.061951 36.047058 
L 66.101653 36.209433 
L 65.815139 36.13769 
L 66.040646 36.104123 
L 66.23625 35.948841 
L 66.020036 36.191859 
L 66.089863 36.199643 
L 66.068431 36.168959 
L 66.15185 36.084742 
L 66.081707 36.072376 
L 66.189277 36.155543 
L 66.144833 36.196389 
L 66.121441 36.204027 
L 66.177202 36.122254 
L 65.981914 36.068417 
L 65.815992 36.005401 
L 66.264351 35.989859 
L 66.000627 35.952042 
L 65.989659 35.926259 
L 66.040298 36.207348 
L 66.110346 36.047655 
L 66.135508 35.966614 
L 66.017855 36.105557 
L 66.037264 35.97279 
L 66.013809 35.954805 
L 66.182101 36.086429 
L 65.968132 36.056861 
L 65.833726 36.090574 
L 66.074026 36.07385 
L 66.056546 36.113859 
L 66.204639 36.143468 
L 66.034134 36.094413 
L 66.137563 36.040363 
L 66.155264 36.007991 
L 66.017697 36.194051 
L 66.067198 36.101373 
" clip-path="url(#pc300215b57)" style="fill: none; stroke: #1f77b4; stroke-opacity: 0.5; stroke-width: 0.5; stroke-linecap: round"/>
   </g>
   <g id="patch_3">
    <path d="M 45.89575 258.765759 
L 45.89575 35.908393 
" style="fill: none; stroke: #262626; stroke-linejoin: miter; stroke-linecap: square"/>
   </g>
   <g id="patch_4">
    <path d="M 62.128477 286.3005 
L 380.326792 286.3005 
" style="fill: none; stroke: #262626; stroke-linejoin: miter; stroke-linecap: square"/>
   </g>
   <g id="text_15">
    <!-- SGD path -->
    <g style="fill: #262626" transform="translate(203.37925 14.1885) scale(0.096 -0.096)">
     <defs>
      <path id="ArialMT-53" d="M 288 1472 
L 859 1522 
Q 900 1178 1048 958 
Q 1197 738 1509 602 
Q 1822 466 2213 466 
Q 2559 466 2825 569 
Q 3091 672 3220 851 
Q 3350 1031 3350 1244 
Q 3350 1459 3225 1620 
Q 3100 1781 2813 1891 
Q 2628 1963 1997 2114 
Q 1366 2266 1113 2400 
Q 784 2572 623 2826 
Q 463 3081 463 3397 
Q 463 3744 659 4045 
Q 856 4347 1234 4503 
Q 1613 4659 2075 4659 
Q 2584 4659 2973 4495 
Q 3363 4331 3572 4012 
Q 3781 3694 3797 3291 
L 3216 3247 
Q 3169 3681 2898 3903 
Q 2628 4125 2100 4125 
Q 1550 4125 1298 3923 
Q 1047 3722 1047 3438 
Q 1047 3191 1225 3031 
Q 1400 2872 2139 2705 
Q 2878 2538 3153 2413 
Q 3553 2228 3743 1945 
Q 3934 1663 3934 1294 
Q 3934 928 3725 604 
Q 3516 281 3123 101 
Q 2731 -78 2241 -78 
Q 1619 -78 1198 103 
Q 778 284 539 648 
Q 300 1013 288 1472 
z
" transform="scale(0.015625)"/>
      <path id="ArialMT-47" d="M 2638 1797 
L 2638 2334 
L 4578 2338 
L 4578 638 
Q 4131 281 3656 101 
Q 3181 -78 2681 -78 
Q 2006 -78 1454 211 
Q 903 500 622 1047 
Q 341 1594 341 2269 
Q 341 2938 620 3517 
Q 900 4097 1425 4378 
Q 1950 4659 2634 4659 
Q 3131 4659 3532 4498 
Q 3934 4338 4162 4050 
Q 4391 3763 4509 3300 
L 3963 3150 
Q 3859 3500 3706 3700 
Q 3553 3900 3268 4020 
Q 2984 4141 2638 4141 
Q 2222 4141 1919 4014 
Q 1616 3888 1430 3681 
Q 1244 3475 1141 3228 
Q 966 2803 966 2306 
Q 966 1694 1177 1281 
Q 1388 869 1791 669 
Q 2194 469 2647 469 
Q 3041 469 3416 620 
Q 3791 772 3984 944 
L 3984 1797 
L 2638 1797 
z
" transform="scale(0.015625)"/>
      <path id="ArialMT-44" d="M 494 0 
L 494 4581 
L 2072 4581 
Q 2606 4581 2888 4516 
Q 3281 4425 3559 4188 
Q 3922 3881 4101 3404 
Q 4281 2928 4281 2316 
Q 4281 1794 4159 1391 
Q 4038 988 3847 723 
Q 3656 459 3429 307 
Q 3203 156 2883 78 
Q 2563 0 2147 0 
L 494 0 
z
M 1100 541 
L 2078 541 
Q 2531 541 2789 625 
Q 3047 709 3200 863 
Q 3416 1078 3536 1442 
Q 3656 1806 3656 2325 
Q 3656 3044 3420 3430 
Q 3184 3816 2847 3947 
Q 2603 4041 2063 4041 
L 1100 4041 
L 1100 541 
z
" transform="scale(0.015625)"/>
      <path id="ArialMT-20" transform="scale(0.015625)"/>
      <path id="ArialMT-70" d="M 422 -1272 
L 422 3319 
L 934 3319 
L 934 2888 
Q 1116 3141 1344 3267 
Q 1572 3394 1897 3394 
Q 2322 3394 2647 3175 
Q 2972 2956 3137 2557 
Q 3303 2159 3303 1684 
Q 3303 1175 3120 767 
Q 2938 359 2589 142 
Q 2241 -75 1856 -75 
Q 1575 -75 1351 44 
Q 1128 163 984 344 
L 984 -1272 
L 422 -1272 
z
M 931 1641 
Q 931 1000 1190 694 
Q 1450 388 1819 388 
Q 2194 388 2461 705 
Q 2728 1022 2728 1688 
Q 2728 2322 2467 2637 
Q 2206 2953 1844 2953 
Q 1484 2953 1207 2617 
Q 931 2281 931 1641 
z
" transform="scale(0.015625)"/>
      <path id="ArialMT-61" d="M 2588 409 
Q 2275 144 1986 34 
Q 1697 -75 1366 -75 
Q 819 -75 525 192 
Q 231 459 231 875 
Q 231 1119 342 1320 
Q 453 1522 633 1644 
Q 813 1766 1038 1828 
Q 1203 1872 1538 1913 
Q 2219 1994 2541 2106 
Q 2544 2222 2544 2253 
Q 2544 2597 2384 2738 
Q 2169 2928 1744 2928 
Q 1347 2928 1158 2789 
Q 969 2650 878 2297 
L 328 2372 
Q 403 2725 575 2942 
Q 747 3159 1072 3276 
Q 1397 3394 1825 3394 
Q 2250 3394 2515 3294 
Q 2781 3194 2906 3042 
Q 3031 2891 3081 2659 
Q 3109 2516 3109 2141 
L 3109 1391 
Q 3109 606 3145 398 
Q 3181 191 3288 0 
L 2700 0 
Q 2613 175 2588 409 
z
M 2541 1666 
Q 2234 1541 1622 1453 
Q 1275 1403 1131 1340 
Q 988 1278 909 1158 
Q 831 1038 831 891 
Q 831 666 1001 516 
Q 1172 366 1500 366 
Q 1825 366 2078 508 
Q 2331 650 2450 897 
Q 2541 1088 2541 1459 
L 2541 1666 
z
" transform="scale(0.015625)"/>
      <path id="ArialMT-74" d="M 1650 503 
L 1731 6 
Q 1494 -44 1306 -44 
Q 1000 -44 831 53 
Q 663 150 594 308 
Q 525 466 525 972 
L 525 2881 
L 113 2881 
L 113 3319 
L 525 3319 
L 525 4141 
L 1084 4478 
L 1084 3319 
L 1650 3319 
L 1650 2881 
L 1084 2881 
L 1084 941 
Q 1084 700 1114 631 
Q 1144 563 1211 522 
Q 1278 481 1403 481 
Q 1497 481 1650 503 
z
" transform="scale(0.015625)"/>
      <path id="ArialMT-68" d="M 422 0 
L 422 4581 
L 984 4581 
L 984 2938 
Q 1378 3394 1978 3394 
Q 2347 3394 2619 3248 
Q 2891 3103 3008 2847 
Q 3125 2591 3125 2103 
L 3125 0 
L 2563 0 
L 2563 2103 
Q 2563 2525 2380 2717 
Q 2197 2909 1863 2909 
Q 1613 2909 1392 2779 
Q 1172 2650 1078 2428 
Q 984 2206 984 1816 
L 984 0 
L 422 0 
z
" transform="scale(0.015625)"/>
     </defs>
     <use xlink:href="#ArialMT-53"/>
     <use xlink:href="#ArialMT-47" x="66.699219"/>
     <use xlink:href="#ArialMT-44" x="144.482422"/>
     <use xlink:href="#ArialMT-20" x="216.699219"/>
     <use xlink:href="#ArialMT-70" x="244.482422"/>
     <use xlink:href="#ArialMT-61" x="300.097656"/>
     <use xlink:href="#ArialMT-74" x="355.712891"/>
     <use xlink:href="#ArialMT-68" x="383.496094"/>
    </g>
   </g>
   <g id="legend_1">
    <g id="line2d_14">
     <path d="M 329.212625 31.434625 
L 338.012625 31.434625 
L 346.812625 31.434625 
" style="fill: none; stroke: #1f77b4; stroke-opacity: 0.5; stroke-width: 0.5; stroke-linecap: round"/>
    </g>
    <g id="text_16">
     <!-- SGD path -->
     <g style="fill: #262626" transform="translate(353.852625 34.514625) scale(0.088 -0.088)">
      <use xlink:href="#ArialMT-53"/>
      <use xlink:href="#ArialMT-47" x="66.699219"/>
      <use xlink:href="#ArialMT-44" x="144.482422"/>
      <use xlink:href="#ArialMT-20" x="216.699219"/>
      <use xlink:href="#ArialMT-70" x="244.482422"/>
      <use xlink:href="#ArialMT-61" x="300.097656"/>
      <use xlink:href="#ArialMT-74" x="355.712891"/>
      <use xlink:href="#ArialMT-68" x="383.496094"/>
     </g>
    </g>
    <g id="PathCollection_2">
     <g>
      <use xlink:href="#m06261ffc2b" x="338.012625" y="44.6525" style="stroke: #000000; stroke-width: 0.8"/>
     </g>
    </g>
    <g id="text_17">
     <!-- True value -->
     <g style="fill: #262626" transform="translate(353.852625 46.9625) scale(0.088 -0.088)">
      <defs>
       <path id="ArialMT-54" d="M 1659 0 
L 1659 4041 
L 150 4041 
L 150 4581 
L 3781 4581 
L 3781 4041 
L 2266 4041 
L 2266 0 
L 1659 0 
z
" transform="scale(0.015625)"/>
       <path id="ArialMT-72" d="M 416 0 
L 416 3319 
L 922 3319 
L 922 2816 
Q 1116 3169 1280 3281 
Q 1444 3394 1641 3394 
Q 1925 3394 2219 3213 
L 2025 2691 
Q 1819 2813 1613 2813 
Q 1428 2813 1281 2702 
Q 1134 2591 1072 2394 
Q 978 2094 978 1738 
L 978 0 
L 416 0 
z
" transform="scale(0.015625)"/>
       <path id="ArialMT-75" d="M 2597 0 
L 2597 488 
Q 2209 -75 1544 -75 
Q 1250 -75 995 37 
Q 741 150 617 320 
Q 494 491 444 738 
Q 409 903 409 1263 
L 409 3319 
L 972 3319 
L 972 1478 
Q 972 1038 1006 884 
Q 1059 663 1231 536 
Q 1403 409 1656 409 
Q 1909 409 2131 539 
Q 2353 669 2445 892 
Q 2538 1116 2538 1541 
L 2538 3319 
L 3100 3319 
L 3100 0 
L 2597 0 
z
" transform="scale(0.015625)"/>
       <path id="ArialMT-65" d="M 2694 1069 
L 3275 997 
Q 3138 488 2766 206 
Q 2394 -75 1816 -75 
Q 1088 -75 661 373 
Q 234 822 234 1631 
Q 234 2469 665 2931 
Q 1097 3394 1784 3394 
Q 2450 3394 2872 2941 
Q 3294 2488 3294 1666 
Q 3294 1616 3291 1516 
L 816 1516 
Q 847 969 1125 678 
Q 1403 388 1819 388 
Q 2128 388 2347 550 
Q 2566 713 2694 1069 
z
M 847 1978 
L 2700 1978 
Q 2663 2397 2488 2606 
Q 2219 2931 1791 2931 
Q 1403 2931 1139 2672 
Q 875 2413 847 1978 
z
" transform="scale(0.015625)"/>
       <path id="ArialMT-76" d="M 1344 0 
L 81 3319 
L 675 3319 
L 1388 1331 
Q 1503 1009 1600 663 
Q 1675 925 1809 1294 
L 2547 3319 
L 3125 3319 
L 1869 0 
L 1344 0 
z
" transform="scale(0.015625)"/>
       <path id="ArialMT-6c" d="M 409 0 
L 409 4581 
L 972 4581 
L 972 0 
L 409 0 
z
" transform="scale(0.015625)"/>
      </defs>
      <use xlink:href="#ArialMT-54"/>
      <use xlink:href="#ArialMT-72" x="57.333984"/>
      <use xlink:href="#ArialMT-75" x="90.634766"/>
      <use xlink:href="#ArialMT-65" x="146.25"/>
      <use xlink:href="#ArialMT-20" x="201.865234"/>
      <use xlink:href="#ArialMT-76" x="229.648438"/>
      <use xlink:href="#ArialMT-61" x="279.648438"/>
      <use xlink:href="#ArialMT-6c" x="335.263672"/>
      <use xlink:href="#ArialMT-75" x="357.480469"/>
      <use xlink:href="#ArialMT-65" x="413.095703"/>
     </g>
    </g>
   </g>
  </g>
 </g>
 <defs>
  <clipPath id="pc300215b57">
   <rect x="45.89575" y="20.1885" width="357.12" height="266.112"/>
  </clipPath>
 </defs>
</svg>