<?xml version="1.0" encoding="utf-8" standalone="no"?>
<!DOCTYPE svg PUBLIC "-//W3C//DTD SVG 1.1//EN"
  "http://www.w3.org/Graphics/SVG/1.1/DTD/svg11.dtd">
<svg xmlns:xlink="http://www.w3.org/1999/xlink" width="403.165375pt" height="311.949577pt" viewBox="0 0 403.165375 311.949577" xmlns="http://www.w3.org/2000/svg" version="1.1">
 <metadata>
  <rdf:RDF xmlns:dc="http://purl.org/dc/elements/1.1/" xmlns:cc="http://creativecommons.org/ns#" xmlns:rdf="http://www.w3.org/1999/02/22-rdf-syntax-ns#">
   <cc:Work>
    <dc:type rdf:resource="http://purl.org/dc/dcmitype/StillImage"/>
    <dc:date>2024-01-22T00:02:36.560545</dc:date>
    <dc:format>image/svg+xml</dc:format>
    <dc:creator>
     <cc:Agent>
      <dc:title>Matplotlib v3.8.0, https://matplotlib.org/</dc:title>
     </cc:Agent>
    </dc:creator>
   </cc:Work>
  </rdf:RDF>
 </metadata>
 <defs>
  <style type="text/css">*{stroke-linejoin: round; stroke-linecap: butt}</style>
 </defs>
 <g id="figure_1">
  <g id="patch_1">
   <path d="M 0 311.949577 
L 403.165375 311.949577 
L 403.165375 0 
L 0 0 
z
" style="fill: #ffffff"/>
  </g>
  <g id="axes_1">
   <g id="patch_2">
    <path d="M 38.845375 275.089702 
L 395.965375 275.089702 
L 395.965375 8.977702 
L 38.845375 8.977702 
z
" style="fill: #ffffff"/>
   </g>
   <g id="matplotlib.axis_1">
    <g id="xtick_1">
     <g id="line2d_1">
      <defs>
       <path id="me6274cfbb5" d="M 0 0 
L 0 4.8 
" style="stroke: #262626"/>
      </defs>
      <g>
       <use xlink:href="#me6274cfbb5" x="55.078102" y="275.089702" style="fill: #262626; stroke: #262626"/>
      </g>
     </g>
     <g id="text_1">
      <!-- −3 -->
      <g style="fill: #262626" transform="translate(50.061415 289.688577) scale(0.088 -0.088)">
       <defs>
        <path id="ArialMT-2212" d="M 3381 1997 
L 356 1997 
L 356 2522 
L 3381 2522 
L 3381 1997 
z
" transform="scale(0.015625)"/>
        <path id="ArialMT-33" d="M 269 1209 
L 831 1284 
Q 928 806 1161 595 
Q 1394 384 1728 384 
Q 2125 384 2398 659 
Q 2672 934 2672 1341 
Q 2672 1728 2419 1979 
Q 2166 2231 1775 2231 
Q 1616 2231 1378 2169 
L 1441 2663 
Q 1497 2656 1531 2656 
Q 1891 2656 2178 2843 
Q 2466 3031 2466 3422 
Q 2466 3731 2256 3934 
Q 2047 4138 1716 4138 
Q 1388 4138 1169 3931 
Q 950 3725 888 3313 
L 325 3413 
Q 428 3978 793 4289 
Q 1159 4600 1703 4600 
Q 2078 4600 2393 4439 
Q 2709 4278 2876 4000 
Q 3044 3722 3044 3409 
Q 3044 3113 2884 2869 
Q 2725 2625 2413 2481 
Q 2819 2388 3044 2092 
Q 3269 1797 3269 1353 
Q 3269 753 2831 336 
Q 2394 -81 1725 -81 
Q 1122 -81 723 278 
Q 325 638 269 1209 
z
" transform="scale(0.015625)"/>
       </defs>
       <use xlink:href="#ArialMT-2212"/>
       <use xlink:href="#ArialMT-33" x="58.398438"/>
      </g>
     </g>
    </g>
    <g id="xtick_2">
     <g id="line2d_2">
      <g>
       <use xlink:href="#me6274cfbb5" x="109.187193" y="275.089702" style="fill: #262626; stroke: #262626"/>
      </g>
     </g>
     <g id="text_2">
      <!-- −2 -->
      <g style="fill: #262626" transform="translate(104.170506 289.688577) scale(0.088 -0.088)">
       <defs>
        <path id="ArialMT-32" d="M 3222 541 
L 3222 0 
L 194 0 
Q 188 203 259 391 
Q 375 700 629 1000 
Q 884 1300 1366 1694 
Q 2113 2306 2375 2664 
Q 2638 3022 2638 3341 
Q 2638 3675 2398 3904 
Q 2159 4134 1775 4134 
Q 1369 4134 1125 3890 
Q 881 3647 878 3216 
L 300 3275 
Q 359 3922 746 4261 
Q 1134 4600 1788 4600 
Q 2447 4600 2831 4234 
Q 3216 3869 3216 3328 
Q 3216 3053 3103 2787 
Q 2991 2522 2730 2228 
Q 2469 1934 1863 1422 
Q 1356 997 1212 845 
Q 1069 694 975 541 
L 3222 541 
z
" transform="scale(0.015625)"/>
       </defs>
       <use xlink:href="#ArialMT-2212"/>
       <use xlink:href="#ArialMT-32" x="58.398438"/>
      </g>
     </g>
    </g>
    <g id="xtick_3">
     <g id="line2d_3">
      <g>
       <use xlink:href="#me6274cfbb5" x="163.296284" y="275.089702" style="fill: #262626; stroke: #262626"/>
      </g>
     </g>
     <g id="text_3">
      <!-- −1 -->
      <g style="fill: #262626" transform="translate(158.279597 289.688577) scale(0.088 -0.088)">
       <defs>
        <path id="ArialMT-31" d="M 2384 0 
L 1822 0 
L 1822 3584 
Q 1619 3391 1289 3197 
Q 959 3003 697 2906 
L 697 3450 
Q 1169 3672 1522 3987 
Q 1875 4303 2022 4600 
L 2384 4600 
L 2384 0 
z
" transform="scale(0.015625)"/>
       </defs>
       <use xlink:href="#ArialMT-2212"/>
       <use xlink:href="#ArialMT-31" x="58.398438"/>
      </g>
     </g>
    </g>
    <g id="xtick_4">
     <g id="line2d_4">
      <g>
       <use xlink:href="#me6274cfbb5" x="217.405375" y="275.089702" style="fill: #262626; stroke: #262626"/>
      </g>
     </g>
     <g id="text_4">
      <!-- 0 -->
      <g style="fill: #262626" transform="translate(214.958563 289.688577) scale(0.088 -0.088)">
       <defs>
        <path id="ArialMT-30" d="M 266 2259 
Q 266 3072 433 3567 
Q 600 4063 929 4331 
Q 1259 4600 1759 4600 
Q 2128 4600 2406 4451 
Q 2684 4303 2865 4023 
Q 3047 3744 3150 3342 
Q 3253 2941 3253 2259 
Q 3253 1453 3087 958 
Q 2922 463 2592 192 
Q 2263 -78 1759 -78 
Q 1097 -78 719 397 
Q 266 969 266 2259 
z
M 844 2259 
Q 844 1131 1108 757 
Q 1372 384 1759 384 
Q 2147 384 2411 759 
Q 2675 1134 2675 2259 
Q 2675 3391 2411 3762 
Q 2147 4134 1753 4134 
Q 1366 4134 1134 3806 
Q 844 3388 844 2259 
z
" transform="scale(0.015625)"/>
       </defs>
       <use xlink:href="#ArialMT-30"/>
      </g>
     </g>
    </g>
    <g id="xtick_5">
     <g id="line2d_5">
      <g>
       <use xlink:href="#me6274cfbb5" x="271.514466" y="275.089702" style="fill: #262626; stroke: #262626"/>
      </g>
     </g>
     <g id="text_5">
      <!-- 1 -->
      <g style="fill: #262626" transform="translate(269.067653 289.688577) scale(0.088 -0.088)">
       <use xlink:href="#ArialMT-31"/>
      </g>
     </g>
    </g>
    <g id="xtick_6">
     <g id="line2d_6">
      <g>
       <use xlink:href="#me6274cfbb5" x="325.623557" y="275.089702" style="fill: #262626; stroke: #262626"/>
      </g>
     </g>
     <g id="text_6">
      <!-- 2 -->
      <g style="fill: #262626" transform="translate(323.176744 289.688577) scale(0.088 -0.088)">
       <use xlink:href="#ArialMT-32"/>
      </g>
     </g>
    </g>
    <g id="xtick_7">
     <g id="line2d_7">
      <g>
       <use xlink:href="#me6274cfbb5" x="379.732648" y="275.089702" style="fill: #262626; stroke: #262626"/>
      </g>
     </g>
     <g id="text_7">
      <!-- 3 -->
      <g style="fill: #262626" transform="translate(377.285835 289.688577) scale(0.088 -0.088)">
       <use xlink:href="#ArialMT-33"/>
      </g>
     </g>
    </g>
    <g id="text_8">
     <!-- $\xi$ -->
     <g style="fill: #262626" transform="translate(214.717375 302.733577) scale(0.096 -0.096)">
      <defs>
       <path id="DejaVuSans-Oblique-3be" d="M 2016 397 
Q 2428 394 2628 159 
Q 2844 -88 2772 -463 
Q 2700 -822 2422 -1072 
Q 2119 -1344 1609 -1344 
Q 1656 -1109 1700 -872 
Q 1913 -888 2072 -750 
Q 2194 -641 2216 -525 
Q 2247 -359 2175 -222 
Q 2100 -91 1922 -91 
Q -25 -91 241 1275 
Q 422 2213 1516 2488 
Q 663 2600 822 3413 
Q 941 4028 1678 4284 
L 1028 4284 
L 1141 4863 
L 3606 4863 
L 3494 4284 
Q 1528 4284 1350 3375 
Q 1234 2778 2881 2750 
L 2778 2219 
Q 1009 2288 819 1275 
Q 659 428 2016 397 
z
" transform="scale(0.015625)"/>
      </defs>
      <use xlink:href="#DejaVuSans-Oblique-3be" transform="translate(0 0.015625)"/>
     </g>
    </g>
   </g>
   <g id="matplotlib.axis_2">
    <g id="ytick_1">
     <g id="line2d_8">
      <defs>
       <path id="md41c825b2c" d="M 0 0 
L -4.8 0 
" style="stroke: #262626"/>
      </defs>
      <g>
       <use xlink:href="#md41c825b2c" x="38.845375" y="273.718069" style="fill: #262626; stroke: #262626"/>
      </g>
     </g>
     <g id="text_9">
      <!-- −8 -->
      <g style="fill: #262626" transform="translate(20.512 276.867507) scale(0.088 -0.088)">
       <defs>
        <path id="ArialMT-38" d="M 1131 2484 
Q 781 2613 612 2850 
Q 444 3088 444 3419 
Q 444 3919 803 4259 
Q 1163 4600 1759 4600 
Q 2359 4600 2725 4251 
Q 3091 3903 3091 3403 
Q 3091 3084 2923 2848 
Q 2756 2613 2416 2484 
Q 2838 2347 3058 2040 
Q 3278 1734 3278 1309 
Q 3278 722 2862 322 
Q 2447 -78 1769 -78 
Q 1091 -78 675 323 
Q 259 725 259 1325 
Q 259 1772 486 2073 
Q 713 2375 1131 2484 
z
M 1019 3438 
Q 1019 3113 1228 2906 
Q 1438 2700 1772 2700 
Q 2097 2700 2305 2904 
Q 2513 3109 2513 3406 
Q 2513 3716 2298 3927 
Q 2084 4138 1766 4138 
Q 1444 4138 1231 3931 
Q 1019 3725 1019 3438 
z
M 838 1322 
Q 838 1081 952 856 
Q 1066 631 1291 507 
Q 1516 384 1775 384 
Q 2178 384 2440 643 
Q 2703 903 2703 1303 
Q 2703 1709 2433 1975 
Q 2163 2241 1756 2241 
Q 1359 2241 1098 1978 
Q 838 1716 838 1322 
z
" transform="scale(0.015625)"/>
       </defs>
       <use xlink:href="#ArialMT-2212"/>
       <use xlink:href="#ArialMT-38" x="58.398438"/>
      </g>
     </g>
    </g>
    <g id="ytick_2">
     <g id="line2d_9">
      <g>
       <use xlink:href="#md41c825b2c" x="38.845375" y="240.79699" style="fill: #262626; stroke: #262626"/>
      </g>
     </g>
     <g id="text_10">
      <!-- −6 -->
      <g style="fill: #262626" transform="translate(20.512 243.946428) scale(0.088 -0.088)">
       <defs>
        <path id="ArialMT-36" d="M 3184 3459 
L 2625 3416 
Q 2550 3747 2413 3897 
Q 2184 4138 1850 4138 
Q 1581 4138 1378 3988 
Q 1113 3794 959 3422 
Q 806 3050 800 2363 
Q 1003 2672 1297 2822 
Q 1591 2972 1913 2972 
Q 2475 2972 2870 2558 
Q 3266 2144 3266 1488 
Q 3266 1056 3080 686 
Q 2894 316 2569 119 
Q 2244 -78 1831 -78 
Q 1128 -78 684 439 
Q 241 956 241 2144 
Q 241 3472 731 4075 
Q 1159 4600 1884 4600 
Q 2425 4600 2770 4297 
Q 3116 3994 3184 3459 
z
M 888 1484 
Q 888 1194 1011 928 
Q 1134 663 1356 523 
Q 1578 384 1822 384 
Q 2178 384 2434 671 
Q 2691 959 2691 1453 
Q 2691 1928 2437 2201 
Q 2184 2475 1800 2475 
Q 1419 2475 1153 2201 
Q 888 1928 888 1484 
z
" transform="scale(0.015625)"/>
       </defs>
       <use xlink:href="#ArialMT-2212"/>
       <use xlink:href="#ArialMT-36" x="58.398438"/>
      </g>
     </g>
    </g>
    <g id="ytick_3">
     <g id="line2d_10">
      <g>
       <use xlink:href="#md41c825b2c" x="38.845375" y="207.875911" style="fill: #262626; stroke: #262626"/>
      </g>
     </g>
     <g id="text_11">
      <!-- −4 -->
      <g style="fill: #262626" transform="translate(20.512 211.025349) scale(0.088 -0.088)">
       <defs>
        <path id="ArialMT-34" d="M 2069 0 
L 2069 1097 
L 81 1097 
L 81 1613 
L 2172 4581 
L 2631 4581 
L 2631 1613 
L 3250 1613 
L 3250 1097 
L 2631 1097 
L 2631 0 
L 2069 0 
z
M 2069 1613 
L 2069 3678 
L 634 1613 
L 2069 1613 
z
" transform="scale(0.015625)"/>
       </defs>
       <use xlink:href="#ArialMT-2212"/>
       <use xlink:href="#ArialMT-34" x="58.398438"/>
      </g>
     </g>
    </g>
    <g id="ytick_4">
     <g id="line2d_11">
      <g>
       <use xlink:href="#md41c825b2c" x="38.845375" y="174.954832" style="fill: #262626; stroke: #262626"/>
      </g>
     </g>
     <g id="text_12">
      <!-- −2 -->
      <g style="fill: #262626" transform="translate(20.512 178.10427) scale(0.088 -0.088)">
       <use xlink:href="#ArialMT-2212"/>
       <use xlink:href="#ArialMT-32" x="58.398438"/>
      </g>
     </g>
    </g>
    <g id="ytick_5">
     <g id="line2d_12">
      <g>
       <use xlink:href="#md41c825b2c" x="38.845375" y="142.033753" style="fill: #262626; stroke: #262626"/>
      </g>
     </g>
     <g id="text_13">
      <!-- 0 -->
      <g style="fill: #262626" transform="translate(25.65175 145.183191) scale(0.088 -0.088)">
       <use xlink:href="#ArialMT-30"/>
      </g>
     </g>
    </g>
    <g id="ytick_6">
     <g id="line2d_13">
      <g>
       <use xlink:href="#md41c825b2c" x="38.845375" y="109.112674" style="fill: #262626; stroke: #262626"/>
      </g>
     </g>
     <g id="text_14">
      <!-- 2 -->
      <g style="fill: #262626" transform="translate(25.65175 112.262112) scale(0.088 -0.088)">
       <use xlink:href="#ArialMT-32"/>
      </g>
     </g>
    </g>
    <g id="ytick_7">
     <g id="line2d_14">
      <g>
       <use xlink:href="#md41c825b2c" x="38.845375" y="76.191595" style="fill: #262626; stroke: #262626"/>
      </g>
     </g>
     <g id="text_15">
      <!-- 4 -->
      <g style="fill: #262626" transform="translate(25.65175 79.341033) scale(0.088 -0.088)">
       <use xlink:href="#ArialMT-34"/>
      </g>
     </g>
    </g>
    <g id="ytick_8">
     <g id="line2d_15">
      <g>
       <use xlink:href="#md41c825b2c" x="38.845375" y="43.270516" style="fill: #262626; stroke: #262626"/>
      </g>
     </g>
     <g id="text_16">
      <!-- 6 -->
      <g style="fill: #262626" transform="translate(25.65175 46.419954) scale(0.088 -0.088)">
       <use xlink:href="#ArialMT-36"/>
      </g>
     </g>
    </g>
    <g id="ytick_9">
     <g id="line2d_16">
      <g>
       <use xlink:href="#md41c825b2c" x="38.845375" y="10.349437" style="fill: #262626; stroke: #262626"/>
      </g>
     </g>
     <g id="text_17">
      <!-- 8 -->
      <g style="fill: #262626" transform="translate(25.65175 13.498875) scale(0.088 -0.088)">
       <use xlink:href="#ArialMT-38"/>
      </g>
     </g>
    </g>
    <g id="text_18">
     <!-- $\phi_i(\xi)$ -->
     <g style="fill: #262626" transform="translate(14.496 152.689702) rotate(-90) scale(0.096 -0.096)">
      <defs>
       <path id="DejaVuSans-Oblique-3d5" d="M 2991 4863 
L 2738 3572 
Q 3363 3572 3684 3094 
Q 4016 2606 3850 1747 
Q 3681 888 3159 400 
Q 2653 -78 2028 -78 
L 1784 -1331 
L 1213 -1331 
L 1456 -78 
Q 834 -78 509 400 
Q 178 888 347 1747 
Q 513 2606 1034 3094 
Q 1544 3572 2166 3572 
L 2419 4863 
L 2991 4863 
z
M 2128 434 
Q 2481 434 2784 756 
Q 3116 1116 3244 1747 
Q 3369 2372 3169 2738 
Q 2991 3059 2638 3059 
L 2128 434 
z
M 1556 434 
L 2066 3059 
Q 1716 3059 1413 2738 
Q 1072 2372 953 1747 
Q 834 1116 1028 756 
Q 1203 434 1556 434 
z
" transform="scale(0.015625)"/>
       <path id="DejaVuSans-Oblique-69" d="M 1172 4863 
L 1747 4863 
L 1606 4134 
L 1031 4134 
L 1172 4863 
z
M 909 3500 
L 1484 3500 
L 800 0 
L 225 0 
L 909 3500 
z
" transform="scale(0.015625)"/>
       <path id="DejaVuSans-28" d="M 1984 4856 
Q 1566 4138 1362 3434 
Q 1159 2731 1159 2009 
Q 1159 1288 1364 580 
Q 1569 -128 1984 -844 
L 1484 -844 
Q 1016 -109 783 600 
Q 550 1309 550 2009 
Q 550 2706 781 3412 
Q 1013 4119 1484 4856 
L 1984 4856 
z
" transform="scale(0.015625)"/>
       <path id="DejaVuSans-29" d="M 513 4856 
L 1013 4856 
Q 1481 4119 1714 3412 
Q 1947 2706 1947 2009 
Q 1947 1309 1714 600 
Q 1481 -109 1013 -844 
L 513 -844 
Q 928 -128 1133 580 
Q 1338 1288 1338 2009 
Q 1338 2731 1133 3434 
Q 928 4138 513 4856 
z
" transform="scale(0.015625)"/>
      </defs>
      <use xlink:href="#DejaVuSans-Oblique-3d5" transform="translate(0 0.015625)"/>
      <use xlink:href="#DejaVuSans-Oblique-69" transform="translate(65.966797 -16.390625) scale(0.7)"/>
      <use xlink:href="#DejaVuSans-28" transform="translate(88.149414 0.015625)"/>
      <use xlink:href="#DejaVuSans-Oblique-3be" transform="translate(127.163086 0.015625)"/>
      <use xlink:href="#DejaVuSans-29" transform="translate(182.924805 0.015625)"/>
     </g>
    </g>
   </g>
   <g id="line2d_17">
    <path d="M 55.078102 125.573212 
L 58.357441 125.573212 
L 61.63678 125.573212 
L 64.916119 125.573212 
L 68.195458 125.573212 
L 71.474796 125.573212 
L 74.754135 125.573212 
L 78.033474 125.573212 
L 81.312813 125.573212 
L 84.592152 125.573212 
L 87.871491 125.573212 
L 91.15083 125.573212 
L 94.430168 125.573212 
L 97.709507 125.573212 
L 100.988846 125.573212 
L 104.268185 125.573212 
L 107.547524 125.573212 
L 110.826863 125.573212 
L 114.106201 125.573212 
L 117.38554 125.573212 
L 120.664879 125.573212 
L 123.944218 125.573212 
L 127.223557 125.573212 
L 130.502896 125.573212 
L 133.782235 125.573212 
L 137.061573 125.573212 
L 140.340912 125.573212 
L 143.620251 125.573212 
L 146.89959 125.573212 
L 150.178929 125.573212 
L 153.458268 125.573212 
L 156.737606 125.573212 
L 160.016945 125.573212 
L 163.296284 125.573212 
L 166.575623 125.573212 
L 169.854962 125.573212 
L 173.134301 125.573212 
L 176.413639 125.573212 
L 179.692978 125.573212 
L 182.972317 125.573212 
L 186.251656 125.573212 
L 189.530995 125.573212 
L 192.810334 125.573212 
L 196.089673 125.573212 
L 199.369011 125.573212 
L 202.64835 125.573212 
L 205.927689 125.573212 
L 209.207028 125.573212 
L 212.486367 125.573212 
L 215.765706 125.573212 
L 219.045044 125.573212 
L 222.324383 125.573212 
L 225.603722 125.573212 
L 228.883061 125.573212 
L 232.1624 125.573212 
L 235.441739 125.573212 
L 238.721077 125.573212 
L 242.000416 125.573212 
L 245.279755 125.573212 
L 248.559094 125.573212 
L 251.838433 125.573212 
L 255.117772 125.573212 
L 258.397111 125.573212 
L 261.676449 125.573212 
L 264.955788 125.573212 
L 268.235127 125.573212 
L 271.514466 125.573212 
L 274.793805 125.573212 
L 278.073144 125.573212 
L 281.352482 125.573212 
L 284.631821 125.573212 
L 287.91116 125.573212 
L 291.190499 125.573212 
L 294.469838 125.573212 
L 297.749177 125.573212 
L 301.028515 125.573212 
L 304.307854 125.573212 
L 307.587193 125.573212 
L 310.866532 125.573212 
L 314.145871 125.573212 
L 317.42521 125.573212 
L 320.704549 125.573212 
L 323.983887 125.573212 
L 327.263226 125.573212 
L 330.542565 125.573212 
L 333.821904 125.573212 
L 337.101243 125.573212 
L 340.380582 125.573212 
L 343.65992 125.573212 
L 346.939259 125.573212 
L 350.218598 125.573212 
L 353.497937 125.573212 
L 356.777276 125.573212 
L 360.056615 125.573212 
L 363.335954 125.573212 
L 366.615292 125.573212 
L 369.894631 125.573212 
L 373.17397 125.573212 
L 376.453309 125.573212 
L 379.732648 125.573212 
" clip-path="url(#p6c05e92a06)" style="fill: none; stroke: #1f77b4; stroke-width: 1.2; stroke-linecap: round"/>
   </g>
   <g id="line2d_18">
    <path d="M 55.078102 191.415525 
L 58.357441 190.417914 
L 61.63678 189.420302 
L 64.916119 188.422691 
L 68.195458 187.425079 
L 71.474796 186.427468 
L 74.754135 185.429856 
L 78.033474 184.432241 
L 81.312813 183.434634 
L 84.592152 182.437022 
L 87.871491 181.439411 
L 91.15083 180.441795 
L 94.430168 179.444188 
L 97.709507 178.446576 
L 100.988846 177.448965 
L 104.268185 176.45135 
L 107.547524 175.453738 
L 110.826863 174.456131 
L 114.106201 173.458519 
L 117.38554 172.460908 
L 120.664879 171.463295 
L 123.944218 170.465685 
L 127.223557 169.468072 
L 130.502896 168.470462 
L 133.782235 167.472849 
L 137.061573 166.475239 
L 140.340912 165.477626 
L 143.620251 164.480015 
L 146.89959 163.482403 
L 150.178929 162.484792 
L 153.458268 161.48718 
L 156.737606 160.489569 
L 160.016945 159.491957 
L 163.296284 158.494346 
L 166.575623 157.496734 
L 169.854962 156.499122 
L 173.134301 155.501511 
L 176.413639 154.503898 
L 179.692978 153.506287 
L 182.972317 152.508675 
L 186.251656 151.511064 
L 189.530995 150.513453 
L 192.810334 149.515841 
L 196.089673 148.51823 
L 199.369011 147.520618 
L 202.64835 146.523006 
L 205.927689 145.525395 
L 209.207028 144.527784 
L 212.486367 143.530172 
L 215.765706 142.53256 
L 219.045044 141.534949 
L 222.324383 140.537337 
L 225.603722 139.539726 
L 228.883061 138.542114 
L 232.1624 137.544503 
L 235.441739 136.546891 
L 238.721077 135.549279 
L 242.000416 134.551668 
L 245.279755 133.554056 
L 248.559094 132.556445 
L 251.838433 131.558833 
L 255.117772 130.561222 
L 258.397111 129.563611 
L 261.676449 128.565998 
L 264.955788 127.568387 
L 268.235127 126.570775 
L 271.514466 125.573165 
L 274.793805 124.575553 
L 278.073144 123.577942 
L 281.352482 122.580331 
L 284.631821 121.582719 
L 287.91116 120.585108 
L 291.190499 119.587496 
L 294.469838 118.589885 
L 297.749177 117.592272 
L 301.028515 116.594662 
L 304.307854 115.597049 
L 307.587193 114.599439 
L 310.866532 113.601826 
L 314.145871 112.604216 
L 317.42521 111.606603 
L 320.704549 110.608992 
L 323.983887 109.61138 
L 327.263226 108.613769 
L 330.542565 107.616157 
L 333.821904 106.618542 
L 337.101243 105.62093 
L 340.380582 104.623319 
L 343.65992 103.625712 
L 346.939259 102.628096 
L 350.218598 101.630485 
L 353.497937 100.632873 
L 356.777276 99.635266 
L 360.056615 98.63765 
L 363.335954 97.640039 
L 366.615292 96.642428 
L 369.894631 95.644816 
L 373.17397 94.647205 
L 376.453309 93.649593 
L 379.732648 92.651982 
" clip-path="url(#p6c05e92a06)" style="fill: none; stroke: #ff7f0e; stroke-width: 1.2; stroke-linecap: round"/>
   </g>
   <g id="line2d_19">
    <path d="M 55.078102 48.919071 
L 58.357441 53.108795 
L 61.63678 57.213019 
L 64.916119 61.231745 
L 68.195458 65.164956 
L 71.474796 69.012667 
L 74.754135 72.774872 
L 78.033474 76.451586 
L 81.312813 80.042773 
L 84.592152 83.548464 
L 87.871491 86.968653 
L 91.15083 90.303346 
L 94.430168 93.552513 
L 97.709507 96.716189 
L 100.988846 99.794353 
L 104.268185 102.787031 
L 107.547524 105.694185 
L 110.826863 108.515833 
L 114.106201 111.251983 
L 117.38554 113.902627 
L 120.664879 116.467771 
L 123.944218 118.947403 
L 127.223557 121.341539 
L 130.502896 123.650163 
L 133.782235 125.873288 
L 137.061573 128.010902 
L 140.340912 130.063018 
L 143.620251 132.029625 
L 146.89959 133.910729 
L 150.178929 135.706327 
L 153.458268 137.416422 
L 156.737606 139.04101 
L 160.016945 140.580096 
L 163.296284 142.033675 
L 166.575623 143.401752 
L 169.854962 144.684322 
L 173.134301 145.881388 
L 176.413639 146.99295 
L 179.692978 148.019007 
L 182.972317 148.959559 
L 186.251656 149.814605 
L 189.530995 150.584148 
L 192.810334 151.268186 
L 196.089673 151.866719 
L 199.369011 152.379747 
L 202.64835 152.807271 
L 205.927689 153.149291 
L 209.207028 153.405805 
L 212.486367 153.576815 
L 215.765706 153.66232 
L 219.045044 153.66232 
L 222.324383 153.576816 
L 225.603722 153.405807 
L 228.883061 153.149293 
L 232.1624 152.807275 
L 235.441739 152.379752 
L 238.721077 151.866725 
L 242.000416 151.268192 
L 245.279755 150.584155 
L 248.559094 149.814614 
L 251.838433 148.959567 
L 255.117772 148.019016 
L 258.397111 146.992961 
L 261.676449 145.8814 
L 264.955788 144.684335 
L 268.235127 143.401765 
L 271.514466 142.033691 
L 274.793805 140.580113 
L 278.073144 139.041029 
L 281.352482 137.416441 
L 284.631821 135.706348 
L 287.91116 133.910751 
L 291.190499 132.029648 
L 294.469838 130.063041 
L 297.749177 128.010927 
L 301.028515 125.873314 
L 304.307854 123.650188 
L 307.587193 121.341567 
L 310.866532 118.947432 
L 314.145871 116.467803 
L 317.42521 113.902658 
L 320.704549 111.252015 
L 323.983887 108.515864 
L 327.263226 105.694209 
L 330.542565 102.78705 
L 333.821904 99.794377 
L 337.101243 96.716212 
L 340.380582 93.552541 
L 343.65992 90.30337 
L 346.939259 86.96868 
L 350.218598 83.548492 
L 353.497937 80.0428 
L 356.777276 76.451617 
L 360.056615 72.774904 
L 363.335954 69.012699 
L 366.615292 65.164987 
L 369.894631 61.231776 
L 373.17397 57.213051 
L 376.453309 53.108826 
L 379.732648 48.919102 
" clip-path="url(#p6c05e92a06)" style="fill: none; stroke: #2ca02c; stroke-width: 1.2; stroke-linecap: round"/>
   </g>
   <g id="line2d_20">
    <path d="M 55.078102 262.993702 
L 58.357441 253.439817 
L 61.63678 244.321221 
L 64.916119 235.62896 
L 68.195458 227.3541 
L 71.474796 219.487631 
L 74.754135 212.020574 
L 78.033474 204.943946 
L 81.312813 198.248819 
L 84.592152 191.926177 
L 87.871491 185.967042 
L 91.15083 180.362438 
L 94.430168 175.10343 
L 97.709507 170.180992 
L 100.988846 165.586181 
L 104.268185 161.309983 
L 107.547524 157.343473 
L 110.826863 153.677646 
L 114.106201 150.303525 
L 117.38554 147.212143 
L 120.664879 144.394517 
L 123.944218 141.841681 
L 127.223557 139.544645 
L 130.502896 137.494448 
L 133.782235 135.682103 
L 137.061573 134.098644 
L 140.340912 132.735089 
L 143.620251 131.582465 
L 146.89959 130.631791 
L 150.178929 129.874098 
L 153.458268 129.300407 
L 156.737606 128.901744 
L 160.016945 128.669129 
L 163.296284 128.593593 
L 166.575623 128.666155 
L 169.854962 128.877841 
L 173.134301 129.219675 
L 176.413639 129.682682 
L 179.692978 130.257885 
L 182.972317 130.936308 
L 186.251656 131.708977 
L 189.530995 132.566915 
L 192.810334 133.501148 
L 196.089673 134.502698 
L 199.369011 135.562591 
L 202.64835 136.67185 
L 205.927689 137.821499 
L 209.207028 139.002563 
L 212.486367 140.206068 
L 215.765706 141.423035 
L 219.045044 142.644491 
L 222.324383 143.861458 
L 225.603722 145.064962 
L 228.883061 146.246026 
L 232.1624 147.395676 
L 235.441739 148.504934 
L 238.721077 149.564827 
L 242.000416 150.566375 
L 245.279755 151.500607 
L 248.559094 152.358545 
L 251.838433 153.131213 
L 255.117772 153.809636 
L 258.397111 154.384838 
L 261.676449 154.847842 
L 264.955788 155.189675 
L 268.235127 155.40136 
L 271.514466 155.47392 
L 274.793805 155.398382 
L 278.073144 155.165767 
L 281.352482 154.767101 
L 284.631821 154.193409 
L 287.91116 153.435714 
L 291.190499 152.485039 
L 294.469838 151.332413 
L 297.749177 149.968854 
L 301.028515 148.385393 
L 304.307854 146.573048 
L 307.587193 144.522849 
L 310.866532 142.225812 
L 314.145871 139.672974 
L 317.42521 136.855342 
L 320.704549 133.763958 
L 323.983887 130.389834 
L 327.263226 126.724001 
L 330.542565 122.757483 
L 333.821904 118.481284 
L 337.101243 113.886468 
L 340.380582 108.964038 
L 343.65992 103.705018 
L 346.939259 98.10041 
L 350.218598 92.141275 
L 353.497937 85.818626 
L 356.777276 79.123494 
L 360.056615 72.046862 
L 363.335954 64.579805 
L 366.615292 56.713329 
L 369.894631 48.438461 
L 373.17397 39.746199 
L 376.453309 30.627603 
L 379.732648 21.073702 
" clip-path="url(#p6c05e92a06)" style="fill: none; stroke: #d62728; stroke-width: 1.2; stroke-linecap: round"/>
   </g>
   <g id="line2d_21">
    <path d="M 55.078102 41.233615 
L 58.357441 55.31189 
L 61.63678 68.258646 
L 64.916119 80.126066 
L 68.195458 90.96524 
L 71.474796 100.826245 
L 74.754135 109.758058 
L 78.033474 117.808549 
L 81.312813 125.024455 
L 84.592152 131.451504 
L 87.871491 137.134306 
L 91.15083 142.116383 
L 94.430168 146.440133 
L 97.709507 150.146929 
L 100.988846 153.277009 
L 104.268185 155.869559 
L 107.547524 157.962632 
L 110.826863 159.593239 
L 114.106201 160.797273 
L 117.38554 161.60955 
L 120.664879 162.063797 
L 123.944218 162.192652 
L 127.223557 162.027668 
L 130.502896 161.599307 
L 133.782235 160.936942 
L 137.061573 160.068863 
L 140.340912 159.022264 
L 143.620251 157.823262 
L 146.89959 156.496877 
L 150.178929 155.067045 
L 153.458268 153.556612 
L 156.737606 151.987337 
L 160.016945 150.379893 
L 163.296284 148.753862 
L 166.575623 147.127737 
L 169.854962 145.51893 
L 173.134301 143.943757 
L 176.413639 142.417451 
L 179.692978 140.954155 
L 182.972317 139.566925 
L 186.251656 138.267729 
L 189.530995 137.067444 
L 192.810334 135.975864 
L 196.089673 135.001692 
L 199.369011 134.152544 
L 202.64835 133.434948 
L 205.927689 132.85434 
L 209.207028 132.415078 
L 212.486367 132.120421 
L 215.765706 131.972548 
L 219.045044 131.972547 
L 222.324383 132.120415 
L 225.603722 132.415067 
L 228.883061 132.854326 
L 232.1624 133.434927 
L 235.441739 134.15252 
L 238.721077 135.001664 
L 242.000416 135.975833 
L 245.279755 137.06741 
L 248.559094 138.267691 
L 251.838433 139.566885 
L 255.117772 140.954112 
L 258.397111 142.417404 
L 261.676449 143.943708 
L 264.955788 145.518878 
L 268.235127 147.127684 
L 271.514466 148.753805 
L 274.793805 150.379833 
L 278.073144 151.987278 
L 281.352482 153.556551 
L 284.631821 155.066985 
L 287.91116 156.496817 
L 291.190499 157.823205 
L 294.469838 159.022209 
L 297.749177 160.068808 
L 301.028515 160.936889 
L 304.307854 161.59926 
L 307.587193 162.027625 
L 310.866532 162.192615 
L 314.145871 162.063764 
L 317.42521 161.609521 
L 320.704549 160.797251 
L 323.983887 159.593225 
L 327.263226 157.96263 
L 330.542565 155.869565 
L 333.821904 153.27702 
L 337.101243 150.146952 
L 340.380582 146.440175 
L 343.65992 142.116432 
L 346.939259 137.134364 
L 350.218598 131.45158 
L 353.497937 125.02454 
L 356.777276 117.808645 
L 360.056615 109.75817 
L 363.335954 100.826379 
L 366.615292 90.965386 
L 369.894631 80.126235 
L 373.17397 68.258826 
L 376.453309 55.31211 
L 379.732648 41.233843 
" clip-path="url(#p6c05e92a06)" style="fill: none; stroke: #9467bd; stroke-width: 1.2; stroke-linecap: round"/>
   </g>
   <g id="line2d_22">
    <path d="M 55.078102 169.080506 
L 58.357441 156.387252 
L 61.63678 145.524587 
L 64.916119 136.342736 
L 68.195458 128.698929 
L 71.474796 122.457209 
L 74.754135 117.488331 
L 78.033474 113.669627 
L 81.312813 110.884856 
L 84.592152 109.024016 
L 87.871491 107.983243 
L 91.15083 107.664621 
L 94.430168 107.976085 
L 97.709507 108.831237 
L 100.988846 110.149195 
L 104.268185 111.85449 
L 107.547524 113.876843 
L 110.826863 116.151088 
L 114.106201 118.617013 
L 117.38554 121.219165 
L 120.664879 123.90676 
L 123.944218 126.633492 
L 127.223557 129.357428 
L 130.502896 132.040807 
L 133.782235 134.649955 
L 137.061573 137.155073 
L 140.340912 139.530151 
L 143.620251 141.752769 
L 146.89959 143.803989 
L 150.178929 145.668176 
L 153.458268 147.332874 
L 156.737606 148.788646 
L 160.016945 150.028934 
L 163.296284 151.049899 
L 166.575623 151.850293 
L 169.854962 152.431294 
L 173.134301 152.796367 
L 176.413639 152.951114 
L 179.692978 152.903128 
L 182.972317 152.661848 
L 186.251656 152.238402 
L 189.530995 151.645474 
L 192.810334 150.897142 
L 196.089673 150.00874 
L 199.369011 148.996709 
L 202.64835 147.878447 
L 205.927689 146.672164 
L 209.207028 145.39673 
L 212.486367 144.071534 
L 215.765706 142.716335 
L 219.045044 141.351109 
L 222.324383 139.995911 
L 225.603722 138.670717 
L 228.883061 137.395284 
L 232.1624 136.189001 
L 235.441739 135.070742 
L 238.721077 134.058713 
L 242.000416 133.170316 
L 245.279755 132.421989 
L 248.559094 131.829065 
L 251.838433 131.405624 
L 255.117772 131.164349 
L 258.397111 131.116368 
L 261.676449 131.271123 
L 264.955788 131.6362 
L 268.235127 132.217206 
L 271.514466 133.017608 
L 274.793805 134.038579 
L 278.073144 135.278873 
L 281.352482 136.734652 
L 284.631821 138.399358 
L 287.91116 140.263551 
L 291.190499 142.314778 
L 294.469838 144.537403 
L 297.749177 146.912487 
L 301.028515 149.417612 
L 304.307854 152.026766 
L 307.587193 154.71015 
L 310.866532 157.434091 
L 314.145871 160.160825 
L 317.42521 162.848428 
L 320.704549 165.450584 
L 323.983887 167.916509 
L 327.263226 170.190764 
L 330.542565 172.213123 
L 333.821904 173.91841 
L 337.101243 175.236372 
L 340.380582 176.091516 
L 343.65992 176.402984 
L 346.939259 176.084354 
L 350.218598 175.043573 
L 353.497937 173.182729 
L 356.777276 170.39794 
L 360.056615 166.579227 
L 363.335954 161.610337 
L 366.615292 155.368599 
L 369.894631 147.724783 
L 373.17397 138.542899 
L 376.453309 127.680231 
L 379.732648 114.986944 
" clip-path="url(#p6c05e92a06)" style="fill: none; stroke: #8c564b; stroke-width: 1.2; stroke-linecap: round"/>
   </g>
   <g id="line2d_23">
    <path d="M 55.078102 200.924283 
L 58.357441 203.973908 
L 61.63678 205.276936 
L 64.916119 205.093917 
L 68.195458 203.663692 
L 71.474796 201.204413 
L 74.754135 197.914542 
L 78.033474 193.973855 
L 81.312813 189.544411 
L 84.592152 184.771443 
L 87.871491 179.784316 
L 91.15083 174.697442 
L 94.430168 169.611147 
L 97.709507 164.612453 
L 100.988846 159.77603 
L 104.268185 155.164871 
L 107.547524 150.831255 
L 110.826863 146.817321 
L 114.106201 143.155934 
L 117.38554 139.871388 
L 120.664879 136.980069 
L 123.944218 134.491183 
L 127.223557 132.407359 
L 130.502896 130.725346 
L 133.782235 129.436562 
L 137.061573 128.527736 
L 140.340912 127.981449 
L 143.620251 127.776684 
L 146.89959 127.889363 
L 150.178929 128.292844 
L 153.458268 128.958397 
L 156.737606 129.855672 
L 160.016945 130.953129 
L 163.296284 132.218468 
L 166.575623 133.619003 
L 169.854962 135.122047 
L 173.134301 136.695262 
L 176.413639 138.306983 
L 179.692978 139.926529 
L 182.972317 141.524479 
L 186.251656 143.072948 
L 189.530995 144.545814 
L 192.810334 145.918946 
L 196.089673 147.170399 
L 199.369011 148.280586 
L 202.64835 149.232433 
L 205.927689 150.011517 
L 209.207028 150.606158 
L 212.486367 151.007529 
L 215.765706 151.209704 
L 219.045044 151.209708 
L 222.324383 151.007545 
L 225.603722 150.606185 
L 228.883061 150.011552 
L 232.1624 149.232481 
L 235.441739 148.280641 
L 238.721077 147.170463 
L 242.000416 145.919019 
L 245.279755 144.545893 
L 248.559094 143.073034 
L 251.838433 141.524571 
L 255.117772 139.926624 
L 258.397111 138.307083 
L 261.676449 136.695364 
L 264.955788 135.122151 
L 268.235127 133.619106 
L 271.514466 132.218573 
L 274.793805 130.953234 
L 278.073144 129.855771 
L 281.352482 128.958493 
L 284.631821 128.292934 
L 287.91116 127.889447 
L 291.190499 127.776756 
L 294.469838 127.98151 
L 297.749177 128.52779 
L 301.028515 129.436604 
L 304.307854 130.725373 
L 307.587193 132.407373 
L 310.866532 134.49118 
L 314.145871 136.980049 
L 317.42521 139.871355 
L 320.704549 143.155886 
L 323.983887 146.817253 
L 327.263226 150.831168 
L 330.542565 155.164775 
L 333.821904 159.775913 
L 337.101243 164.612325 
L 340.380582 169.61099 
L 343.65992 174.697283 
L 346.939259 179.784148 
L 350.218598 184.771255 
L 353.497937 189.544226 
L 356.777276 193.973658 
L 360.056615 197.914349 
L 363.335954 201.204221 
L 366.615292 203.6635 
L 369.894631 205.093736 
L 373.17397 205.276775 
L 376.453309 203.973767 
L 379.732648 200.924161 
" clip-path="url(#p6c05e92a06)" style="fill: none; stroke: #e377c2; stroke-width: 1.2; stroke-linecap: round"/>
   </g>
   <g id="line2d_24">
    <path d="M 55.078102 50.21669 
L 58.357441 59.929502 
L 61.63678 69.987646 
L 64.916119 80.132235 
L 68.195458 90.144388 
L 71.474796 99.841891 
L 74.754135 109.075929 
L 78.033474 117.727975 
L 81.312813 125.706855 
L 84.592152 132.94609 
L 87.871491 139.401185 
L 91.15083 145.047172 
L 94.430168 149.87625 
L 97.709507 153.895689 
L 100.988846 157.125674 
L 104.268185 159.597446 
L 107.547524 161.351434 
L 110.826863 162.435669 
L 114.106201 162.904154 
L 117.38554 162.815486 
L 120.664879 162.231505 
L 123.944218 161.216099 
L 127.223557 159.834083 
L 130.502896 158.150237 
L 133.782235 156.22836 
L 137.061573 154.130511 
L 140.340912 151.91626 
L 143.620251 149.642112 
L 146.89959 147.360928 
L 150.178929 145.121511 
L 153.458268 142.968208 
L 156.737606 140.940631 
L 160.016945 139.073417 
L 163.296284 137.396088 
L 166.575623 135.932942 
L 169.854962 134.703032 
L 173.134301 133.7202 
L 176.413639 132.993143 
L 179.692978 132.525566 
L 182.972317 132.316339 
L 186.251656 132.359746 
L 189.530995 132.645729 
L 192.810334 133.160203 
L 196.089673 133.885387 
L 199.369011 134.800163 
L 202.64835 135.880476 
L 205.927689 137.09974 
L 209.207028 138.429284 
L 212.486367 139.838782 
L 215.765706 141.296728 
L 219.045044 142.770902 
L 222.324383 144.228847 
L 225.603722 145.638341 
L 228.883061 146.967879 
L 232.1624 148.187141 
L 235.441739 149.267447 
L 238.721077 150.182216 
L 242.000416 150.907388 
L 245.279755 151.421852 
L 248.559094 151.707825 
L 251.838433 151.751219 
L 255.117772 151.541979 
L 258.397111 151.074389 
L 261.676449 150.347318 
L 264.955788 149.364472 
L 268.235127 148.13455 
L 271.514466 146.671389 
L 274.793805 144.994048 
L 278.073144 143.12682 
L 281.352482 141.099232 
L 284.631821 138.945917 
L 287.91116 136.70649 
L 291.190499 134.425295 
L 294.469838 132.151137 
L 297.749177 129.936882 
L 301.028515 127.839028 
L 304.307854 125.917145 
L 307.587193 124.233298 
L 310.866532 122.851284 
L 314.145871 121.835881 
L 317.42521 121.251904 
L 320.704549 121.163243 
L 323.983887 121.631738 
L 327.263226 122.715977 
L 330.542565 124.469979 
L 333.821904 126.941772 
L 337.101243 130.171774 
L 340.380582 134.19123 
L 343.65992 139.020333 
L 346.939259 144.666351 
L 350.218598 151.121465 
L 353.497937 158.360739 
L 356.777276 166.33965 
L 360.056615 174.991731 
L 363.335954 184.225797 
L 366.615292 193.923331 
L 369.894631 203.935507 
L 373.17397 214.080151 
L 376.453309 224.138311 
L 379.732648 233.851146 
" clip-path="url(#p6c05e92a06)" style="fill: none; stroke: #7f7f7f; stroke-width: 1.2; stroke-linecap: round"/>
   </g>
   <g id="line2d_25">
    <path d="M 55.078102 184.332994 
L 58.357441 169.419535 
L 61.63678 156.204557 
L 64.916119 144.724481 
L 68.195458 134.974861 
L 71.474796 126.91686 
L 74.754135 120.483324 
L 78.033474 115.584243 
L 81.312813 112.11169 
L 84.592152 109.94424 
L 87.871491 108.951005 
L 91.15083 108.995148 
L 94.430168 109.937094 
L 97.709507 111.637253 
L 100.988846 113.95837 
L 104.268185 116.767695 
L 107.547524 119.938562 
L 110.826863 123.351969 
L 114.106201 126.897677 
L 117.38554 130.475083 
L 120.664879 133.993962 
L 123.944218 137.374845 
L 127.223557 140.549353 
L 130.502896 143.460177 
L 133.782235 146.061083 
L 137.061573 148.316605 
L 140.340912 150.20173 
L 143.620251 151.701392 
L 146.89959 152.809914 
L 150.178929 153.530321 
L 153.458268 153.873648 
L 156.737606 153.858116 
L 160.016945 153.508314 
L 163.296284 152.854333 
L 166.575623 151.930879 
L 169.854962 150.776375 
L 173.134301 149.432058 
L 176.413639 147.941098 
L 179.692978 146.347725 
L 182.972317 144.696388 
L 186.251656 143.030944 
L 189.530995 141.393896 
L 192.810334 139.825671 
L 196.089673 138.363963 
L 199.369011 137.043123 
L 202.64835 135.89363 
L 205.927689 134.941609 
L 209.207028 134.208453 
L 212.486367 133.710482 
L 215.765706 133.458717 
L 219.045044 133.458708 
L 222.324383 133.710453 
L 225.603722 134.208405 
L 228.883061 134.941544 
L 232.1624 135.893546 
L 235.441739 137.043025 
L 238.721077 138.36385 
L 242.000416 139.825545 
L 245.279755 141.393759 
L 248.559094 143.030798 
L 251.838433 144.696236 
L 255.117772 146.347569 
L 258.397111 147.940938 
L 261.676449 149.431898 
L 264.955788 150.776217 
L 268.235127 151.930729 
L 271.514466 152.854186 
L 274.793805 153.508177 
L 278.073144 153.857991 
L 281.352482 153.873539 
L 284.631821 153.530229 
L 287.91116 152.809838 
L 291.190499 151.701338 
L 294.469838 150.201698 
L 297.749177 148.316592 
L 301.028515 146.061094 
L 304.307854 143.460211 
L 307.587193 140.54941 
L 310.866532 137.374928 
L 314.145871 133.994067 
L 317.42521 130.475205 
L 320.704549 126.897816 
L 323.983887 123.352128 
L 327.263226 119.938729 
L 330.542565 116.767866 
L 333.821904 113.958557 
L 337.101243 111.637432 
L 340.380582 109.937284 
L 343.65992 108.99532 
L 346.939259 108.951166 
L 350.218598 109.944384 
L 353.497937 112.11181 
L 356.777276 115.584337 
L 360.056615 120.483379 
L 363.335954 126.916869 
L 366.615292 134.974825 
L 369.894631 144.724386 
L 373.17397 156.20442 
L 376.453309 169.419324 
L 379.732648 184.332712 
" clip-path="url(#p6c05e92a06)" style="fill: none; stroke: #bcbd22; stroke-width: 1.2; stroke-linecap: round"/>
   </g>
   <g id="line2d_26">
    <path d="M 55.078102 186.305353 
L 58.357441 192.61462 
L 61.63678 196.36577 
L 64.916119 197.871643 
L 68.195458 197.447848 
L 71.474796 195.405983 
L 74.754135 192.047915 
L 78.033474 187.661134 
L 81.312813 182.515096 
L 84.592152 176.858293 
L 87.871491 170.916229 
L 91.15083 164.890046 
L 94.430168 158.955716 
L 97.709507 153.263735 
L 100.988846 147.939459 
L 104.268185 143.083592 
L 107.547524 138.773336 
L 110.826863 135.063447 
L 114.106201 131.987863 
L 117.38554 129.561341 
L 120.664879 127.781267 
L 123.944218 126.629614 
L 127.223557 126.074892 
L 130.502896 126.074197 
L 133.782235 126.575209 
L 137.061573 127.518186 
L 140.340912 128.837904 
L 143.620251 130.465479 
L 146.89959 132.33018 
L 150.178929 134.361029 
L 153.458268 136.488343 
L 156.737606 138.645107 
L 160.016945 140.76822 
L 163.296284 142.799556 
L 166.575623 144.686902 
L 169.854962 146.384704 
L 173.134301 147.854662 
L 176.413639 149.066168 
L 179.692978 149.996566 
L 182.972317 150.631287 
L 186.251656 150.963788 
L 189.530995 150.9954 
L 192.810334 150.734996 
L 196.089673 150.198569 
L 199.369011 149.408666 
L 202.64835 148.393734 
L 205.927689 147.187381 
L 209.207028 145.827526 
L 212.486367 144.355535 
L 215.765706 142.815257 
L 219.045044 141.252049 
L 222.324383 139.711774 
L 225.603722 138.23979 
L 228.883061 136.879946 
L 232.1624 135.6736 
L 235.441739 134.658684 
L 238.721077 133.868797 
L 242.000416 133.33239 
L 245.279755 133.072008 
L 248.559094 133.103642 
L 251.838433 133.436165 
L 255.117772 134.07091 
L 258.397111 135.001333 
L 261.676449 136.212865 
L 264.955788 137.682846 
L 268.235127 139.38067 
L 271.514466 141.268037 
L 274.793805 143.299391 
L 278.073144 145.422522 
L 281.352482 147.579301 
L 284.631821 149.706627 
L 287.91116 151.737483 
L 291.190499 153.602193 
L 294.469838 155.229772 
L 297.749177 156.549483 
L 301.028515 157.492455 
L 304.307854 157.993459 
L 307.587193 157.992749 
L 310.866532 157.43801 
L 314.145871 156.286336 
L 317.42521 154.506237 
L 320.704549 152.079687 
L 323.983887 149.004074 
L 327.263226 145.294157 
L 330.542565 140.983863 
L 333.821904 136.127963 
L 337.101243 130.803646 
L 340.380582 125.111644 
L 343.65992 119.177272 
L 346.939259 113.151052 
L 350.218598 107.208967 
L 353.497937 101.552136 
L 356.777276 96.406086 
L 360.056615 92.019286 
L 363.335954 88.66121 
L 366.615292 86.619357 
L 369.894631 86.195578 
L 373.17397 87.70147 
L 376.453309 91.452663 
L 379.732648 97.761973 
" clip-path="url(#p6c05e92a06)" style="fill: none; stroke: #17becf; stroke-width: 1.2; stroke-linecap: round"/>
   </g>
   <g id="line2d_27">
    <path d="M 55.078102 59.892557 
L 58.357441 69.025579 
L 61.63678 79.118157 
L 64.916119 89.709778 
L 68.195458 100.400272 
L 71.474796 110.849724 
L 74.754135 120.777094 
L 78.033474 129.957887 
L 81.312813 138.220991 
L 84.592152 145.445042 
L 87.871491 151.554107 
L 91.15083 156.513181 
L 94.430168 160.323351 
L 97.709507 163.017056 
L 100.988846 164.653154 
L 104.268185 165.312144 
L 107.547524 165.091575 
L 110.826863 164.101614 
L 114.106201 162.460895 
L 117.38554 160.292718 
L 120.664879 157.721492 
L 123.944218 154.869639 
L 127.223557 151.854776 
L 130.502896 148.787404 
L 133.782235 145.768818 
L 137.061573 142.889581 
L 140.340912 140.228221 
L 143.620251 137.850406 
L 146.89959 135.80838 
L 150.178929 134.140798 
L 153.458268 132.872793 
L 156.737606 132.016388 
L 160.016945 131.571116 
L 163.296284 131.524871 
L 166.575623 131.854964 
L 169.854962 132.529321 
L 173.134301 133.507823 
L 176.413639 134.743746 
L 179.692978 136.185253 
L 182.972317 137.776939 
L 186.251656 139.46138 
L 189.530995 141.180653 
L 192.810334 142.87782 
L 196.089673 144.498334 
L 199.369011 145.99135 
L 202.64835 147.310919 
L 205.927689 148.41706 
L 209.207028 149.276647 
L 212.486367 149.864181 
L 215.765706 150.162335 
L 219.045044 150.16235 
L 222.324383 149.864228 
L 225.603722 149.276726 
L 228.883061 148.417168 
L 232.1624 147.311056 
L 235.441739 145.991509 
L 238.721077 144.498515 
L 242.000416 142.878021 
L 245.279755 141.180868 
L 248.559094 139.461605 
L 251.838433 137.77717 
L 255.117772 136.185485 
L 258.397111 134.743976 
L 261.676449 133.508047 
L 264.955788 132.529531 
L 268.235127 131.855157 
L 271.514466 131.525046 
L 274.793805 131.571264 
L 278.073144 132.016511 
L 281.352482 132.872885 
L 284.631821 134.140858 
L 287.91116 135.808408 
L 291.190499 137.850399 
L 294.469838 140.228179 
L 297.749177 142.889507 
L 301.028515 145.768711 
L 304.307854 148.787268 
L 307.587193 151.854614 
L 310.866532 154.869451 
L 314.145871 157.721285 
L 317.42521 160.292504 
L 320.704549 162.460678 
L 323.983887 164.101395 
L 327.263226 165.091369 
L 330.542565 165.311959 
L 333.821904 164.652985 
L 337.101243 163.016922 
L 340.380582 160.323256 
L 343.65992 156.513136 
L 346.939259 151.554109 
L 350.218598 145.445107 
L 353.497937 138.221116 
L 356.777276 129.958082 
L 360.056615 120.777351 
L 363.335954 110.850052 
L 366.615292 100.400669 
L 369.894631 89.710245 
L 373.17397 79.118659 
L 376.453309 69.026144 
L 379.732648 59.893153 
" clip-path="url(#p6c05e92a06)" style="fill: none; stroke: #1f77b4; stroke-width: 1.2; stroke-linecap: round"/>
   </g>
   <g id="patch_3">
    <path d="M 38.845375 273.718069 
L 38.845375 10.349437 
" style="fill: none; stroke: #262626; stroke-linejoin: miter; stroke-linecap: square"/>
   </g>
   <g id="patch_4">
    <path d="M 55.078102 275.089702 
L 379.732648 275.089702 
" style="fill: none; stroke: #262626; stroke-linejoin: miter; stroke-linecap: square"/>
   </g>
  </g>
 </g>
 <defs>
  <clipPath id="p6c05e92a06">
   <rect x="38.845375" y="8.977702" width="357.12" height="266.112"/>
  </clipPath>
 </defs>
</svg>