<?xml version="1.0" encoding="UTF-8" standalone="no"?>
<!DOCTYPE svg PUBLIC "-//W3C//DTD SVG 1.1//EN"
 "http://www.w3.org/Graphics/SVG/1.1/DTD/svg11.dtd">
<!-- Generated by graphviz version 9.0.0 (20230911.1827)
 -->
<!-- Pages: 1 -->
<svg width="134pt" height="188pt"
 viewBox="0.00 0.00 134.00 188.00" xmlns="http://www.w3.org/2000/svg" xmlns:xlink="http://www.w3.org/1999/xlink">
<g id="graph0" class="graph" transform="scale(1 1) rotate(0) translate(4 184)">
<polygon fill="white" stroke="none" points="-4,4 -4,-184 130,-184 130,4 -4,4"/>
<!-- + -->
<g id="node1" class="node">
<title>+</title>
<ellipse fill="none" stroke="red" cx="63" cy="-162" rx="27" ry="18"/>
<text text-anchor="middle" x="63" y="-156.95" font-family="Times,serif" font-size="14.00">+</text>
</g>
<!-- sqr -->
<g id="node2" class="node">
<title>sqr</title>
<ellipse fill="none" stroke="red" cx="27" cy="-90" rx="27" ry="18"/>
<text text-anchor="middle" x="27" y="-84.95" font-family="Times,serif" font-size="14.00">sqr</text>
</g>
<!-- +&#45;&gt;sqr -->
<g id="edge2" class="edge">
<title>+&#45;&gt;sqr</title>
<path fill="none" stroke="black" d="M54.65,-144.76C48.83,-133.46 41.11,-118.44 35.3,-107.15"/>
</g>
<!-- 1 -->
<g id="node3" class="node">
<title>1</title>
<ellipse fill="none" stroke="blue" cx="99" cy="-90" rx="27" ry="18"/>
<text text-anchor="middle" x="99" y="-84.95" font-family="Times,serif" font-size="14.00">1</text>
</g>
<!-- +&#45;&gt;1 -->
<g id="edge1" class="edge">
<title>+&#45;&gt;1</title>
<path fill="none" stroke="black" d="M71.35,-144.76C77.17,-133.46 84.89,-118.44 90.7,-107.15"/>
</g>
<!-- x -->
<g id="node4" class="node">
<title>x</title>
<ellipse fill="none" stroke="blue" cx="27" cy="-18" rx="27" ry="18"/>
<text text-anchor="middle" x="27" y="-12.95" font-family="Times,serif" font-size="14.00">x</text>
</g>
<!-- sqr&#45;&gt;x -->
<g id="edge3" class="edge">
<title>sqr&#45;&gt;x</title>
<path fill="none" stroke="black" d="M27,-71.7C27,-60.85 27,-46.92 27,-36.1"/>
</g>
</g>
</svg>