<?xml version="1.0" encoding="utf-8" standalone="no"?>
<!DOCTYPE svg PUBLIC "-//W3C//DTD SVG 1.1//EN"
  "http://www.w3.org/Graphics/SVG/1.1/DTD/svg11.dtd">
<svg xmlns:xlink="http://www.w3.org/1999/xlink" width="409.97125pt" height="309.639375pt" viewBox="0 0 409.97125 309.639375" xmlns="http://www.w3.org/2000/svg" version="1.1">
 <metadata>
  <rdf:RDF xmlns:dc="http://purl.org/dc/elements/1.1/" xmlns:cc="http://creativecommons.org/ns#" xmlns:rdf="http://www.w3.org/1999/02/22-rdf-syntax-ns#">
   <cc:Work>
    <dc:type rdf:resource="http://purl.org/dc/dcmitype/StillImage"/>
    <dc:date>2024-03-21T13:28:45.922897</dc:date>
    <dc:format>image/svg+xml</dc:format>
    <dc:creator>
     <cc:Agent>
      <dc:title>Matplotlib v3.8.0, https://matplotlib.org/</dc:title>
     </cc:Agent>
    </dc:creator>
   </cc:Work>
  </rdf:RDF>
 </metadata>
 <defs>
  <style type="text/css">*{stroke-linejoin: round; stroke-linecap: butt}</style>
 </defs>
 <g id="figure_1">
  <g id="patch_1">
   <path d="M 0 309.639375 
L 409.97125 309.639375 
L 409.97125 0 
L 0 0 
z
" style="fill: #ffffff"/>
  </g>
  <g id="axes_1">
   <g id="patch_2">
    <path d="M 45.65125 273.312 
L 402.77125 273.312 
L 402.77125 7.2 
L 45.65125 7.2 
z
" style="fill: #ffffff"/>
   </g>
   <g id="matplotlib.axis_1">
    <g id="xtick_1">
     <g id="line2d_1">
      <defs>
       <path id="m332914c519" d="M 0 0 
L 0 4.8 
" style="stroke: #262626"/>
      </defs>
      <g>
       <use xlink:href="#m332914c519" x="61.883977" y="273.312" style="fill: #262626; stroke: #262626"/>
      </g>
     </g>
     <g id="text_1">
      <!-- 0 -->
      <g style="fill: #262626" transform="translate(59.437165 287.910875) scale(0.088 -0.088)">
       <defs>
        <path id="ArialMT-30" d="M 266 2259 
Q 266 3072 433 3567 
Q 600 4063 929 4331 
Q 1259 4600 1759 4600 
Q 2128 4600 2406 4451 
Q 2684 4303 2865 4023 
Q 3047 3744 3150 3342 
Q 3253 2941 3253 2259 
Q 3253 1453 3087 958 
Q 2922 463 2592 192 
Q 2263 -78 1759 -78 
Q 1097 -78 719 397 
Q 266 969 266 2259 
z
M 844 2259 
Q 844 1131 1108 757 
Q 1372 384 1759 384 
Q 2147 384 2411 759 
Q 2675 1134 2675 2259 
Q 2675 3391 2411 3762 
Q 2147 4134 1753 4134 
Q 1366 4134 1134 3806 
Q 844 3388 844 2259 
z
" transform="scale(0.015625)"/>
       </defs>
       <use xlink:href="#ArialMT-30"/>
      </g>
     </g>
    </g>
    <g id="xtick_2">
     <g id="line2d_2">
      <g>
       <use xlink:href="#m332914c519" x="126.814886" y="273.312" style="fill: #262626; stroke: #262626"/>
      </g>
     </g>
     <g id="text_2">
      <!-- 10 -->
      <g style="fill: #262626" transform="translate(121.921261 287.910875) scale(0.088 -0.088)">
       <defs>
        <path id="ArialMT-31" d="M 2384 0 
L 1822 0 
L 1822 3584 
Q 1619 3391 1289 3197 
Q 959 3003 697 2906 
L 697 3450 
Q 1169 3672 1522 3987 
Q 1875 4303 2022 4600 
L 2384 4600 
L 2384 0 
z
" transform="scale(0.015625)"/>
       </defs>
       <use xlink:href="#ArialMT-31"/>
       <use xlink:href="#ArialMT-30" x="55.615234"/>
      </g>
     </g>
    </g>
    <g id="xtick_3">
     <g id="line2d_3">
      <g>
       <use xlink:href="#m332914c519" x="191.745795" y="273.312" style="fill: #262626; stroke: #262626"/>
      </g>
     </g>
     <g id="text_3">
      <!-- 20 -->
      <g style="fill: #262626" transform="translate(186.85217 287.910875) scale(0.088 -0.088)">
       <defs>
        <path id="ArialMT-32" d="M 3222 541 
L 3222 0 
L 194 0 
Q 188 203 259 391 
Q 375 700 629 1000 
Q 884 1300 1366 1694 
Q 2113 2306 2375 2664 
Q 2638 3022 2638 3341 
Q 2638 3675 2398 3904 
Q 2159 4134 1775 4134 
Q 1369 4134 1125 3890 
Q 881 3647 878 3216 
L 300 3275 
Q 359 3922 746 4261 
Q 1134 4600 1788 4600 
Q 2447 4600 2831 4234 
Q 3216 3869 3216 3328 
Q 3216 3053 3103 2787 
Q 2991 2522 2730 2228 
Q 2469 1934 1863 1422 
Q 1356 997 1212 845 
Q 1069 694 975 541 
L 3222 541 
z
" transform="scale(0.015625)"/>
       </defs>
       <use xlink:href="#ArialMT-32"/>
       <use xlink:href="#ArialMT-30" x="55.615234"/>
      </g>
     </g>
    </g>
    <g id="xtick_4">
     <g id="line2d_4">
      <g>
       <use xlink:href="#m332914c519" x="256.676705" y="273.312" style="fill: #262626; stroke: #262626"/>
      </g>
     </g>
     <g id="text_4">
      <!-- 30 -->
      <g style="fill: #262626" transform="translate(251.78308 287.910875) scale(0.088 -0.088)">
       <defs>
        <path id="ArialMT-33" d="M 269 1209 
L 831 1284 
Q 928 806 1161 595 
Q 1394 384 1728 384 
Q 2125 384 2398 659 
Q 2672 934 2672 1341 
Q 2672 1728 2419 1979 
Q 2166 2231 1775 2231 
Q 1616 2231 1378 2169 
L 1441 2663 
Q 1497 2656 1531 2656 
Q 1891 2656 2178 2843 
Q 2466 3031 2466 3422 
Q 2466 3731 2256 3934 
Q 2047 4138 1716 4138 
Q 1388 4138 1169 3931 
Q 950 3725 888 3313 
L 325 3413 
Q 428 3978 793 4289 
Q 1159 4600 1703 4600 
Q 2078 4600 2393 4439 
Q 2709 4278 2876 4000 
Q 3044 3722 3044 3409 
Q 3044 3113 2884 2869 
Q 2725 2625 2413 2481 
Q 2819 2388 3044 2092 
Q 3269 1797 3269 1353 
Q 3269 753 2831 336 
Q 2394 -81 1725 -81 
Q 1122 -81 723 278 
Q 325 638 269 1209 
z
" transform="scale(0.015625)"/>
       </defs>
       <use xlink:href="#ArialMT-33"/>
       <use xlink:href="#ArialMT-30" x="55.615234"/>
      </g>
     </g>
    </g>
    <g id="xtick_5">
     <g id="line2d_5">
      <g>
       <use xlink:href="#m332914c519" x="321.607614" y="273.312" style="fill: #262626; stroke: #262626"/>
      </g>
     </g>
     <g id="text_5">
      <!-- 40 -->
      <g style="fill: #262626" transform="translate(316.713989 287.910875) scale(0.088 -0.088)">
       <defs>
        <path id="ArialMT-34" d="M 2069 0 
L 2069 1097 
L 81 1097 
L 81 1613 
L 2172 4581 
L 2631 4581 
L 2631 1613 
L 3250 1613 
L 3250 1097 
L 2631 1097 
L 2631 0 
L 2069 0 
z
M 2069 1613 
L 2069 3678 
L 634 1613 
L 2069 1613 
z
" transform="scale(0.015625)"/>
       </defs>
       <use xlink:href="#ArialMT-34"/>
       <use xlink:href="#ArialMT-30" x="55.615234"/>
      </g>
     </g>
    </g>
    <g id="xtick_6">
     <g id="line2d_6">
      <g>
       <use xlink:href="#m332914c519" x="386.538523" y="273.312" style="fill: #262626; stroke: #262626"/>
      </g>
     </g>
     <g id="text_6">
      <!-- 50 -->
      <g style="fill: #262626" transform="translate(381.644898 287.910875) scale(0.088 -0.088)">
       <defs>
        <path id="ArialMT-35" d="M 266 1200 
L 856 1250 
Q 922 819 1161 601 
Q 1400 384 1738 384 
Q 2144 384 2425 690 
Q 2706 997 2706 1503 
Q 2706 1984 2436 2262 
Q 2166 2541 1728 2541 
Q 1456 2541 1237 2417 
Q 1019 2294 894 2097 
L 366 2166 
L 809 4519 
L 3088 4519 
L 3088 3981 
L 1259 3981 
L 1013 2750 
Q 1425 3038 1878 3038 
Q 2478 3038 2890 2622 
Q 3303 2206 3303 1553 
Q 3303 931 2941 478 
Q 2500 -78 1738 -78 
Q 1113 -78 717 272 
Q 322 622 266 1200 
z
" transform="scale(0.015625)"/>
       </defs>
       <use xlink:href="#ArialMT-35"/>
       <use xlink:href="#ArialMT-30" x="55.615234"/>
      </g>
     </g>
    </g>
    <g id="text_7">
     <!-- Time -->
     <g style="fill: #262626" transform="translate(213.7255 300.531375) scale(0.096 -0.096)">
      <defs>
       <path id="ArialMT-54" d="M 1659 0 
L 1659 4041 
L 150 4041 
L 150 4581 
L 3781 4581 
L 3781 4041 
L 2266 4041 
L 2266 0 
L 1659 0 
z
" transform="scale(0.015625)"/>
       <path id="ArialMT-69" d="M 425 3934 
L 425 4581 
L 988 4581 
L 988 3934 
L 425 3934 
z
M 425 0 
L 425 3319 
L 988 3319 
L 988 0 
L 425 0 
z
" transform="scale(0.015625)"/>
       <path id="ArialMT-6d" d="M 422 0 
L 422 3319 
L 925 3319 
L 925 2853 
Q 1081 3097 1340 3245 
Q 1600 3394 1931 3394 
Q 2300 3394 2536 3241 
Q 2772 3088 2869 2813 
Q 3263 3394 3894 3394 
Q 4388 3394 4653 3120 
Q 4919 2847 4919 2278 
L 4919 0 
L 4359 0 
L 4359 2091 
Q 4359 2428 4304 2576 
Q 4250 2725 4106 2815 
Q 3963 2906 3769 2906 
Q 3419 2906 3187 2673 
Q 2956 2441 2956 1928 
L 2956 0 
L 2394 0 
L 2394 2156 
Q 2394 2531 2256 2718 
Q 2119 2906 1806 2906 
Q 1569 2906 1367 2781 
Q 1166 2656 1075 2415 
Q 984 2175 984 1722 
L 984 0 
L 422 0 
z
" transform="scale(0.015625)"/>
       <path id="ArialMT-65" d="M 2694 1069 
L 3275 997 
Q 3138 488 2766 206 
Q 2394 -75 1816 -75 
Q 1088 -75 661 373 
Q 234 822 234 1631 
Q 234 2469 665 2931 
Q 1097 3394 1784 3394 
Q 2450 3394 2872 2941 
Q 3294 2488 3294 1666 
Q 3294 1616 3291 1516 
L 816 1516 
Q 847 969 1125 678 
Q 1403 388 1819 388 
Q 2128 388 2347 550 
Q 2566 713 2694 1069 
z
M 847 1978 
L 2700 1978 
Q 2663 2397 2488 2606 
Q 2219 2931 1791 2931 
Q 1403 2931 1139 2672 
Q 875 2413 847 1978 
z
" transform="scale(0.015625)"/>
      </defs>
      <use xlink:href="#ArialMT-54"/>
      <use xlink:href="#ArialMT-69" x="57.333984"/>
      <use xlink:href="#ArialMT-6d" x="79.550781"/>
      <use xlink:href="#ArialMT-65" x="162.851562"/>
     </g>
    </g>
   </g>
   <g id="matplotlib.axis_2">
    <g id="ytick_1">
     <g id="line2d_7">
      <defs>
       <path id="mde3c08216d" d="M 0 0 
L -4.8 0 
" style="stroke: #262626"/>
      </defs>
      <g>
       <use xlink:href="#mde3c08216d" x="45.65125" y="247.440951" style="fill: #262626; stroke: #262626"/>
      </g>
     </g>
     <g id="text_8">
      <!-- −1.5 -->
      <g style="fill: #262626" transform="translate(19.9795 250.590389) scale(0.088 -0.088)">
       <defs>
        <path id="ArialMT-2212" d="M 3381 1997 
L 356 1997 
L 356 2522 
L 3381 2522 
L 3381 1997 
z
" transform="scale(0.015625)"/>
        <path id="ArialMT-2e" d="M 581 0 
L 581 641 
L 1222 641 
L 1222 0 
L 581 0 
z
" transform="scale(0.015625)"/>
       </defs>
       <use xlink:href="#ArialMT-2212"/>
       <use xlink:href="#ArialMT-31" x="58.398438"/>
       <use xlink:href="#ArialMT-2e" x="114.013672"/>
       <use xlink:href="#ArialMT-35" x="141.796875"/>
      </g>
     </g>
    </g>
    <g id="ytick_2">
     <g id="line2d_8">
      <g>
       <use xlink:href="#mde3c08216d" x="45.65125" y="214.848815" style="fill: #262626; stroke: #262626"/>
      </g>
     </g>
     <g id="text_9">
      <!-- −1.0 -->
      <g style="fill: #262626" transform="translate(19.9795 217.998253) scale(0.088 -0.088)">
       <use xlink:href="#ArialMT-2212"/>
       <use xlink:href="#ArialMT-31" x="58.398438"/>
       <use xlink:href="#ArialMT-2e" x="114.013672"/>
       <use xlink:href="#ArialMT-30" x="141.796875"/>
      </g>
     </g>
    </g>
    <g id="ytick_3">
     <g id="line2d_9">
      <g>
       <use xlink:href="#mde3c08216d" x="45.65125" y="182.25668" style="fill: #262626; stroke: #262626"/>
      </g>
     </g>
     <g id="text_10">
      <!-- −0.5 -->
      <g style="fill: #262626" transform="translate(19.9795 185.406117) scale(0.088 -0.088)">
       <use xlink:href="#ArialMT-2212"/>
       <use xlink:href="#ArialMT-30" x="58.398438"/>
       <use xlink:href="#ArialMT-2e" x="114.013672"/>
       <use xlink:href="#ArialMT-35" x="141.796875"/>
      </g>
     </g>
    </g>
    <g id="ytick_4">
     <g id="line2d_10">
      <g>
       <use xlink:href="#mde3c08216d" x="45.65125" y="149.664544" style="fill: #262626; stroke: #262626"/>
      </g>
     </g>
     <g id="text_11">
      <!-- 0.0 -->
      <g style="fill: #262626" transform="translate(25.11925 152.813981) scale(0.088 -0.088)">
       <use xlink:href="#ArialMT-30"/>
       <use xlink:href="#ArialMT-2e" x="55.615234"/>
       <use xlink:href="#ArialMT-30" x="83.398438"/>
      </g>
     </g>
    </g>
    <g id="ytick_5">
     <g id="line2d_11">
      <g>
       <use xlink:href="#mde3c08216d" x="45.65125" y="117.072408" style="fill: #262626; stroke: #262626"/>
      </g>
     </g>
     <g id="text_12">
      <!-- 0.5 -->
      <g style="fill: #262626" transform="translate(25.11925 120.221845) scale(0.088 -0.088)">
       <use xlink:href="#ArialMT-30"/>
       <use xlink:href="#ArialMT-2e" x="55.615234"/>
       <use xlink:href="#ArialMT-35" x="83.398438"/>
      </g>
     </g>
    </g>
    <g id="ytick_6">
     <g id="line2d_12">
      <g>
       <use xlink:href="#mde3c08216d" x="45.65125" y="84.480272" style="fill: #262626; stroke: #262626"/>
      </g>
     </g>
     <g id="text_13">
      <!-- 1.0 -->
      <g style="fill: #262626" transform="translate(25.11925 87.629709) scale(0.088 -0.088)">
       <use xlink:href="#ArialMT-31"/>
       <use xlink:href="#ArialMT-2e" x="55.615234"/>
       <use xlink:href="#ArialMT-30" x="83.398438"/>
      </g>
     </g>
    </g>
    <g id="ytick_7">
     <g id="line2d_13">
      <g>
       <use xlink:href="#mde3c08216d" x="45.65125" y="51.888136" style="fill: #262626; stroke: #262626"/>
      </g>
     </g>
     <g id="text_14">
      <!-- 1.5 -->
      <g style="fill: #262626" transform="translate(25.11925 55.037573) scale(0.088 -0.088)">
       <use xlink:href="#ArialMT-31"/>
       <use xlink:href="#ArialMT-2e" x="55.615234"/>
       <use xlink:href="#ArialMT-35" x="83.398438"/>
      </g>
     </g>
    </g>
    <g id="ytick_8">
     <g id="line2d_14">
      <g>
       <use xlink:href="#mde3c08216d" x="45.65125" y="19.296" style="fill: #262626; stroke: #262626"/>
      </g>
     </g>
     <g id="text_15">
      <!-- 2.0 -->
      <g style="fill: #262626" transform="translate(25.11925 22.445438) scale(0.088 -0.088)">
       <use xlink:href="#ArialMT-32"/>
       <use xlink:href="#ArialMT-2e" x="55.615234"/>
       <use xlink:href="#ArialMT-30" x="83.398438"/>
      </g>
     </g>
    </g>
    <g id="text_16">
     <!-- $x_j$ -->
     <g style="fill: #262626" transform="translate(13.0035 144.192) rotate(-90) scale(0.096 -0.096)">
      <defs>
       <path id="DejaVuSans-Oblique-78" d="M 3841 3500 
L 2234 1784 
L 3219 0 
L 2559 0 
L 1819 1388 
L 531 0 
L -166 0 
L 1556 1844 
L 641 3500 
L 1300 3500 
L 1972 2234 
L 3144 3500 
L 3841 3500 
z
" transform="scale(0.015625)"/>
       <path id="DejaVuSans-Oblique-6a" d="M 928 3500 
L 1503 3500 
L 813 -63 
L 809 -78 
Q 694 -675 544 -897 
Q 403 -1106 132 -1218 
Q -138 -1331 -506 -1331 
L -722 -1331 
L -628 -844 
L -481 -844 
Q -144 -844 -1 -703 
Q 141 -563 238 -63 
L 928 3500 
z
M 1197 4863 
L 1772 4863 
L 1631 4134 
L 1056 4134 
L 1197 4863 
z
" transform="scale(0.015625)"/>
      </defs>
      <use xlink:href="#DejaVuSans-Oblique-78" transform="translate(0 0.3125)"/>
      <use xlink:href="#DejaVuSans-Oblique-6a" transform="translate(59.179688 -16.09375) scale(0.7)"/>
     </g>
    </g>
   </g>
   <g id="line2d_15">
    <path d="M 61.883977 19.296 
L 62.208794 20.595238 
L 62.533611 23.169221 
L 63.020837 29.333125 
L 63.670471 41.556667 
L 64.482513 62.435057 
L 65.456964 93.756517 
L 69.354767 227.185077 
L 70.16681 244.999104 
L 70.816444 254.736723 
L 71.303669 259.192225 
L 71.628486 260.766158 
L 71.790894 261.131434 
L 71.953303 261.216 
L 72.115711 261.021046 
L 72.440528 259.800792 
L 72.765345 257.493895 
L 73.252571 252.072896 
L 73.902205 241.441155 
L 74.714247 223.406577 
L 75.851106 191.595806 
L 79.261684 90.067465 
L 80.073727 73.08449 
L 80.723361 63.1635 
L 81.210586 58.087824 
L 81.697811 55.13615 
L 82.022628 54.367365 
L 82.185037 54.342864 
L 82.347445 54.556979 
L 82.672262 55.69356 
L 82.997079 57.756342 
L 83.484305 62.519579 
L 84.133939 71.762943 
L 84.945981 87.337607 
L 86.08284 114.670406 
L 89.493418 201.252577 
L 90.305461 215.605199 
L 90.955095 223.935169 
L 91.44232 228.154022 
L 91.929546 230.554372 
L 92.254362 231.129468 
L 92.416771 231.109616 
L 92.579179 230.886091 
L 92.903996 229.834817 
L 93.228813 227.994179 
L 93.716039 223.812542 
L 94.365673 215.779492 
L 95.177715 202.332127 
L 96.314574 178.850067 
L 99.562744 107.847609 
L 100.374786 95.033962 
L 101.02442 87.408229 
L 101.674054 82.399447 
L 102.16128 80.452606 
L 102.486097 80.031115 
L 102.648505 80.082905 
L 102.973322 80.706551 
L 103.298139 82.011959 
L 103.785364 85.203278 
L 104.434998 91.606825 
L 105.247041 102.623316 
L 106.221491 119.232205 
L 110.119295 190.573305 
L 110.931337 200.203397 
L 111.580971 205.511944 
L 112.068197 207.978311 
L 112.393014 208.878445 
L 112.717831 209.178861 
L 112.880239 209.104871 
L 113.205056 208.513142 
L 113.529873 207.340192 
L 114.017098 204.53073 
L 114.666732 198.958636 
L 115.478775 189.440503 
L 116.453226 175.160776 
L 120.351029 114.324092 
L 121.163071 106.20082 
L 121.812705 101.760012 
L 122.299931 99.727749 
L 122.624748 99.009573 
L 122.949565 98.803913 
L 123.111973 98.892522 
L 123.43679 99.448335 
L 123.761607 100.499603 
L 124.248832 102.970481 
L 124.898466 107.816977 
L 125.710509 116.03868 
L 126.847368 130.541565 
L 130.257946 176.833291 
L 131.069988 184.57742 
L 131.719622 189.101647 
L 132.206848 191.416537 
L 132.694073 192.763032 
L 133.01889 193.11403 
L 133.343707 193.028053 
L 133.668524 192.51031 
L 133.993341 191.570263 
L 134.480566 189.39917 
L 135.1302 185.185549 
L 135.942243 178.085267 
L 137.079102 165.623921 
L 140.48968 126.146838 
L 141.301723 119.602118 
L 141.951356 115.803421 
L 142.438582 113.879289 
L 142.925807 112.784267 
L 143.250624 112.52165 
L 143.575441 112.632209 
L 143.900258 113.111126 
L 144.387484 114.500737 
L 144.874709 116.656197 
L 145.524343 120.616232 
L 146.336385 127.048802 
L 147.473245 138.017394 
L 150.396597 167.384505 
L 151.371048 174.570509 
L 152.020682 178.047997 
L 152.670316 180.332367 
L 153.157541 181.220528 
L 153.482358 181.413052 
L 153.807175 181.286915 
L 154.131992 180.846548 
L 154.619218 179.614091 
L 155.106443 177.730077 
L 155.756077 174.295989 
L 156.568119 168.748745 
L 157.704979 159.332694 
L 160.628331 134.287767 
L 161.602782 128.207934 
L 162.252416 125.284804 
L 162.90205 123.385228 
L 163.389275 122.666961 
L 163.714092 122.529691 
L 164.038909 122.664503 
L 164.363726 123.067342 
L 164.850952 124.158828 
L 165.338177 125.80457 
L 165.987811 128.781605 
L 166.799853 133.564471 
L 168.099121 142.882002 
L 170.697657 161.999624 
L 171.672108 167.4039 
L 172.48415 170.602615 
L 173.133784 172.18088 
L 173.621009 172.759852 
L 173.945826 172.853875 
L 174.270643 172.715611 
L 174.59546 172.34875 
L 175.082686 171.38342 
L 175.73232 169.369471 
L 176.544362 165.824567 
L 177.518813 160.397339 
L 179.305306 148.814938 
L 180.766982 139.831518 
L 181.741433 135.041589 
L 182.553476 132.131921 
L 183.20311 130.628822 
L 183.690335 130.014578 
L 184.015152 129.854326 
L 184.339969 129.89331 
L 184.664786 130.129156 
L 185.152011 130.842092 
L 185.639237 131.965432 
L 186.288871 134.046455 
L 187.100913 137.446387 
L 188.237772 143.27094 
L 191.323533 159.69219 
L 192.297984 163.370041 
L 192.947618 165.102352 
L 193.597252 166.188877 
L 194.084478 166.560751 
L 194.409294 166.595432 
L 194.734111 166.460854 
L 195.221337 165.948697 
L 195.708562 165.079923 
L 196.358196 163.41062 
L 197.170239 160.615805 
L 198.307098 155.734913 
L 201.555267 140.974274 
L 202.529718 137.865048 
L 203.179352 136.411118 
L 203.828986 135.510941 
L 204.316212 135.214936 
L 204.803437 135.246551 
L 205.290662 135.600198 
L 205.777888 136.263171 
L 206.427522 137.593807 
L 207.239564 139.88336 
L 208.376423 143.964812 
L 211.94941 157.69135 
L 212.761452 159.821479 
L 213.411086 161.041254 
L 214.06072 161.786249 
L 214.547946 162.020577 
L 215.035171 161.975033 
L 215.522396 161.654805 
L 216.009622 161.071147 
L 216.659256 159.913273 
L 217.471298 157.935113 
L 218.608158 154.427235 
L 222.181144 142.721915 
L 222.993186 140.92289 
L 223.64282 139.900002 
L 224.292454 139.284137 
L 224.77968 139.099815 
L 225.266905 139.15455 
L 225.754131 139.443559 
L 226.403764 140.175417 
L 227.053398 141.268624 
L 227.865441 143.065298 
L 229.0023 146.157861 
L 232.088061 154.937652 
L 233.062512 156.92102 
L 233.874554 158.044353 
L 234.524188 158.552852 
L 235.011414 158.696754 
L 235.498639 158.636479 
L 235.985865 158.376417 
L 236.635498 157.734688 
L 237.447541 156.505792 
L 238.421992 154.524077 
L 239.883668 150.924589 
L 241.994978 145.764177 
L 242.969429 143.91393 
L 243.781471 142.796909 
L 244.431105 142.225969 
L 245.080739 141.960971 
L 245.567965 141.966133 
L 246.217599 142.23974 
L 246.867233 142.80201 
L 247.679275 143.86719 
L 248.653726 145.574174 
L 250.115402 148.659131 
L 252.226712 153.057011 
L 253.201163 154.624154 
L 254.013206 155.564234 
L 254.662839 156.03939 
L 255.312473 156.252634 
L 255.962107 156.200709 
L 256.611741 155.890927 
L 257.261375 155.340663 
L 258.073417 154.355898 
L 259.210277 152.550796 
L 263.270489 145.582642 
L 264.082531 144.729705 
L 264.894573 144.201912 
L 265.544207 144.030981 
L 266.193841 144.086574 
L 266.843475 144.362 
L 267.655518 144.991412 
L 268.629968 146.101024 
L 269.929236 147.996685 
L 272.852589 152.436533 
L 273.82704 153.505892 
L 274.639082 154.116371 
L 275.451124 154.437457 
L 276.100758 154.476832 
L 276.750392 154.32482 
L 277.562435 153.881293 
L 278.536886 153.024625 
L 279.673745 151.689515 
L 283.571548 146.772529 
L 284.545999 146.020289 
L 285.358042 145.654727 
L 286.170084 145.545273 
L 286.982126 145.692343 
L 287.794169 146.08054 
L 288.76862 146.821702 
L 290.067887 148.150709 
L 293.640874 152.030534 
L 294.615325 152.709474 
L 295.427367 153.055974 
L 296.23941 153.184942 
L 297.051452 153.093804 
L 297.863494 152.793613 
L 298.837945 152.191538 
L 300.137213 151.082383 
L 304.035016 147.508585 
L 305.009467 146.974795 
L 305.983918 146.694309 
L 306.795961 146.66727 
L 307.770411 146.878418 
L 308.744862 147.329353 
L 310.04413 148.22016 
L 314.591567 151.697684 
L 315.566018 152.077544 
L 316.540469 152.23309 
L 317.51492 152.157219 
L 318.489371 151.863475 
L 319.62623 151.289502 
L 321.250315 150.190071 
L 323.848851 148.40089 
L 325.148118 147.786808 
L 326.284978 147.506754 
L 327.259429 147.479671 
L 328.396288 147.691732 
L 329.533147 148.132384 
L 331.157232 149.034309 
L 334.405402 150.91221 
L 335.704669 151.368432 
L 336.841529 151.536892 
L 337.978388 151.475679 
L 339.115247 151.200017 
L 340.576924 150.597759 
L 345.449178 148.319289 
L 346.748446 148.082658 
L 347.885305 148.084795 
L 349.184573 148.31698 
L 350.646249 148.813949 
L 356.005729 150.890837 
L 357.304997 151.03406 
L 358.604265 150.958985 
L 360.065941 150.63999 
L 362.014843 149.957654 
L 365.100604 148.858999 
L 366.724689 148.545273 
L 368.186365 148.504955 
L 369.648041 148.69295 
L 371.434534 149.161637 
L 375.981972 150.492895 
L 377.606056 150.662549 
L 379.230141 150.584771 
L 381.016635 150.251695 
L 386.538523 148.907063 
L 386.538523 148.907063 
" clip-path="url(#p5db16af76c)" style="fill: none; stroke: #1f77b4; stroke-width: 1.2; stroke-linecap: round"/>
   </g>
   <g id="line2d_16">
    <path d="M 61.883977 149.664544 
L 63.508062 88.678571 
L 64.482513 59.777756 
L 65.294555 42.33414 
L 65.944189 33.42199 
L 66.431415 29.86813 
L 66.756232 29.017094 
L 66.91864 29.046825 
L 67.081049 29.378189 
L 67.405865 30.935744 
L 67.730682 33.662309 
L 68.217908 39.856097 
L 68.867542 51.753902 
L 69.679584 71.670184 
L 70.816444 106.447453 
L 74.064613 211.598951 
L 74.876655 230.57452 
L 75.526289 241.867004 
L 76.175923 249.283776 
L 76.663149 252.166143 
L 76.987966 252.789792 
L 77.150374 252.71281 
L 77.312783 252.378388 
L 77.6376 250.946339 
L 78.124825 246.940699 
L 78.61205 240.818841 
L 79.261684 229.66164 
L 80.073727 211.64052 
L 81.210586 181.053221 
L 84.133939 99.705539 
L 85.108389 79.960408 
L 85.758023 70.46815 
L 86.245249 65.518746 
L 86.732474 62.525247 
L 87.057291 61.636738 
L 87.2197 61.525479 
L 87.382108 61.635297 
L 87.706925 62.512107 
L 88.031742 64.249678 
L 88.518967 68.411078 
L 89.168601 76.663999 
L 89.980644 90.760924 
L 90.955095 111.90949 
L 94.852898 202.00583 
L 95.66494 214.035303 
L 96.314574 220.611236 
L 96.8018 223.620348 
L 97.126617 224.683532 
L 97.451434 224.987695 
L 97.613842 224.856262 
L 97.938659 224.032713 
L 98.263476 222.475418 
L 98.750702 218.815552 
L 99.400335 211.637343 
L 100.212378 199.460524 
L 101.349237 177.981513 
L 104.759815 109.425535 
L 105.571858 97.957389 
L 106.221491 91.257775 
L 106.708717 87.830002 
L 107.195942 85.836408 
L 107.520759 85.316944 
L 107.683168 85.300225 
L 107.845576 85.444626 
L 108.170393 86.211736 
L 108.49521 87.604256 
L 108.982436 90.820065 
L 109.63207 97.060901 
L 110.444112 107.576817 
L 111.580971 126.032263 
L 114.991549 184.496026 
L 115.803592 194.187976 
L 116.453226 199.81319 
L 116.940451 202.662336 
L 117.427676 204.283582 
L 117.752493 204.672207 
L 117.914902 204.658954 
L 118.239719 204.220925 
L 118.564536 203.242967 
L 119.051761 200.798161 
L 119.701395 195.831828 
L 120.513437 187.224658 
L 121.487888 174.182855 
L 123.599199 141.638264 
L 124.898466 123.419552 
L 125.872917 112.77786 
L 126.522551 107.628259 
L 127.172185 104.24567 
L 127.65941 102.930714 
L 127.984227 102.64585 
L 128.146636 102.680692 
L 128.471453 103.101544 
L 128.79627 103.982749 
L 129.283495 106.137273 
L 129.933129 110.460722 
L 130.745172 117.898961 
L 131.719622 129.113443 
L 135.617426 177.285804 
L 136.429468 183.788811 
L 137.079102 187.373726 
L 137.566328 189.039423 
L 137.891144 189.647443 
L 138.215961 189.850515 
L 138.540778 189.650644 
L 138.865595 189.053835 
L 139.352821 187.437065 
L 139.840046 184.999478 
L 140.48968 180.590232 
L 141.301723 173.5066 
L 142.60099 159.707293 
L 145.199526 131.394975 
L 146.173977 123.391804 
L 146.823611 119.446252 
L 147.473245 116.775765 
L 147.96047 115.660167 
L 148.285287 115.348118 
L 148.610104 115.381538 
L 148.934921 115.756655 
L 149.259738 116.466325 
L 149.746963 118.134483 
L 150.396597 121.406681 
L 151.20864 126.957918 
L 152.345499 136.750439 
L 155.756077 168.008455 
L 156.568119 173.237856 
L 157.217753 176.293052 
L 157.704979 177.856374 
L 158.192204 178.765811 
L 158.517021 179.002978 
L 158.841838 178.945084 
L 159.166655 178.595645 
L 159.65388 177.539577 
L 160.141106 175.875728 
L 160.79074 172.793536 
L 161.602782 167.758074 
L 162.739641 159.131852 
L 165.825403 134.812731 
L 166.637445 130.147966 
L 167.287079 127.355286 
L 167.936713 125.501568 
L 168.423938 124.761967 
L 168.748755 124.584502 
L 169.073572 124.659018 
L 169.398389 124.982263 
L 169.885614 125.920378 
L 170.37284 127.375632 
L 171.022474 130.049359 
L 171.834516 134.392619 
L 172.971376 141.79878 
L 175.894728 161.628619 
L 176.869179 166.481104 
L 177.518813 168.829425 
L 178.168447 170.372133 
L 178.655672 170.972024 
L 178.980489 171.10214 
L 179.305306 171.017086 
L 179.630123 170.719851 
L 180.117349 169.887822 
L 180.604574 168.61583 
L 181.254208 166.297207 
L 182.06625 162.551713 
L 183.20311 156.193847 
L 186.126462 139.282508 
L 187.100913 135.176981 
L 187.750547 133.203009 
L 188.400181 131.920159 
L 188.887406 131.435011 
L 189.212223 131.342222 
L 189.53704 131.433151 
L 190.024266 131.907545 
L 190.511491 132.772064 
L 191.161125 134.487011 
L 191.973167 137.416784 
L 193.110027 142.612012 
L 196.683013 159.94705 
L 197.495056 162.611181 
L 198.144689 164.12589 
L 198.631915 164.868089 
L 199.11914 165.259159 
L 199.443957 165.322733 
L 199.768774 165.229457 
L 200.256 164.801318 
L 200.743225 164.040976 
L 201.392859 162.549339 
L 202.204901 160.01861 
L 203.341761 155.55409 
L 206.752339 141.302033 
L 207.564381 138.917459 
L 208.214015 137.524211 
L 208.863649 136.639424 
L 209.350874 136.325347 
L 209.8381 136.31432 
L 210.325325 136.602077 
L 210.812551 137.177731 
L 211.462185 138.362594 
L 212.274227 140.432022 
L 213.248678 143.584014 
L 215.359988 151.494215 
L 216.659256 155.947347 
L 217.633707 158.562095 
L 218.445749 160.088387 
L 219.095383 160.822166 
L 219.582608 161.073362 
L 220.069834 161.065623 
L 220.557059 160.802978 
L 221.044285 160.2951 
L 221.693919 159.263122 
L 222.505961 157.474306 
L 223.64282 154.268301 
L 227.378215 143.021085 
L 228.190258 141.418447 
L 228.839892 140.527665 
L 229.489526 140.016428 
L 229.976751 139.89033 
L 230.463976 139.984741 
L 230.951202 140.294264 
L 231.600836 141.023431 
L 232.412878 142.390454 
L 233.387329 144.56771 
L 234.849005 148.482988 
L 236.797907 153.655922 
L 237.772358 155.710048 
L 238.5844 156.973125 
L 239.234034 157.639088 
L 239.883668 157.975997 
L 240.370893 158.008124 
L 240.858119 157.853142 
L 241.507753 157.366825 
L 242.157387 156.585067 
L 242.969429 155.249429 
L 244.106288 152.880869 
L 247.679275 144.976961 
L 248.491317 143.762121 
L 249.30336 142.940986 
L 249.952994 142.595939 
L 250.602628 142.537704 
L 251.252261 142.762906 
L 251.901895 143.257009 
L 252.713938 144.213956 
L 253.688389 145.767104 
L 255.150065 148.602608 
L 257.261375 152.690876 
L 258.235826 154.165736 
L 259.047868 155.061739 
L 259.697502 155.524683 
L 260.347136 155.746345 
L 260.99677 155.722725 
L 261.646404 155.459617 
L 262.296038 154.972188 
L 263.10808 154.084363 
L 264.24494 152.437462 
L 268.46756 145.781739 
L 269.279602 145.027427 
L 270.091645 144.577478 
L 270.741279 144.450929 
L 271.390913 144.533389 
L 272.040546 144.817453 
L 272.852589 145.432125 
L 273.82704 146.488941 
L 275.126308 148.264759 
L 277.887252 152.150795 
L 278.861702 153.15975 
L 279.673745 153.744505 
L 280.485787 154.063415 
L 281.29783 154.103398 
L 282.109872 153.868879 
L 282.921914 153.381092 
L 283.896365 152.513472 
L 285.195633 151.022736 
L 288.281394 147.347154 
L 289.255845 146.537948 
L 290.067887 146.090887 
L 290.87993 145.875071 
L 291.691972 145.898087 
L 292.504015 146.152615 
L 293.478465 146.732612 
L 294.615325 147.709451 
L 296.564226 149.768162 
L 298.35072 151.53613 
L 299.487579 152.355483 
L 300.46203 152.781448 
L 301.274072 152.917029 
L 302.086115 152.848849 
L 303.060566 152.511915 
L 304.035016 151.933504 
L 305.334284 150.889492 
L 308.907271 147.816668 
L 310.04413 147.203897 
L 311.018581 146.92823 
L 311.993032 146.902347 
L 312.967483 147.121147 
L 314.104342 147.649171 
L 315.40361 148.519978 
L 319.301413 151.350693 
L 320.438273 151.831237 
L 321.412723 152.02473 
L 322.387174 152.004083 
L 323.361625 151.777452 
L 324.498485 151.288408 
L 326.122569 150.302997 
L 329.20833 148.36267 
L 330.507598 147.848388 
L 331.644458 147.645082 
L 332.781317 147.690236 
L 333.918176 147.969904 
L 335.217444 148.522381 
L 337.491163 149.794275 
L 339.440064 150.790873 
L 340.739332 151.224524 
L 341.876192 151.392293 
L 343.013051 151.347703 
L 344.312319 151.054034 
L 345.773995 150.483521 
L 350.483841 148.437733 
L 351.783109 148.207549 
L 353.082376 148.212661 
L 354.381644 148.443042 
L 356.005729 148.977173 
L 360.715575 150.72025 
L 362.177251 150.922058 
L 363.476519 150.8875 
L 364.938195 150.625054 
L 366.887097 150.016801 
L 370.460084 148.857547 
L 372.084168 148.607095 
L 373.545845 148.608754 
L 375.169929 148.850592 
L 377.28124 149.422959 
L 380.691818 150.360541 
L 382.315902 150.570285 
L 383.939987 150.552752 
L 385.72648 150.290784 
L 386.538523 150.109347 
L 386.538523 150.109347 
" clip-path="url(#p5db16af76c)" style="fill: none; stroke: #ff7f0e; stroke-width: 1.2; stroke-linecap: round"/>
   </g>
   <g id="line2d_17">
    <path d="M 61.883977 84.480272 
L 64.157696 90.980628 
L 66.431415 96.83275 
L 68.705133 102.101283 
L 70.978852 106.844423 
L 73.414979 111.402751 
L 75.851106 115.475831 
L 78.287233 119.11532 
L 80.723361 122.367375 
L 83.321896 125.45558 
L 85.920432 128.194408 
L 88.518967 130.623385 
L 91.279912 132.903806 
L 94.203264 135.021409 
L 97.126617 136.871468 
L 100.212378 138.571339 
L 103.622956 140.188622 
L 107.195942 141.630633 
L 111.093746 142.954661 
L 115.316366 144.143959 
L 119.863804 145.190114 
L 124.898466 146.118748 
L 130.582763 146.937737 
L 137.079102 147.644779 
L 144.712301 148.245044 
L 153.969584 148.739032 
L 165.500586 149.121288 
L 181.091799 149.400208 
L 204.47862 149.574825 
L 250.440219 149.653813 
L 386.538523 149.664524 
L 386.538523 149.664524 
" clip-path="url(#p5db16af76c)" style="fill: none; stroke: #2ca02c; stroke-width: 1.2; stroke-linecap: round"/>
   </g>
   <g id="line2d_18">
    <path d="M 61.883977 19.296 
L 62.208794 20.596887 
L 62.533611 23.172123 
L 63.020837 29.336908 
L 63.670471 41.559887 
L 64.482513 62.436823 
L 65.456964 93.759063 
L 69.354767 227.186435 
L 70.16681 245.000072 
L 70.816444 254.735791 
L 71.303669 259.18862 
L 71.628486 260.76038 
L 71.790894 261.124531 
L 71.953303 261.207989 
L 72.115711 261.011973 
L 72.440528 259.789848 
L 72.765345 257.481565 
L 73.252571 252.059588 
L 73.902205 241.428368 
L 74.714247 223.395751 
L 75.851106 191.587173 
L 79.261684 90.062887 
L 80.073727 73.077307 
L 80.723361 63.155604 
L 81.210586 58.08095 
L 81.697811 55.131467 
L 82.022628 54.364457 
L 82.185037 54.340834 
L 82.347445 54.55577 
L 82.672262 55.693691 
L 82.997079 57.757221 
L 83.484305 62.520201 
L 84.133939 71.760869 
L 84.945981 87.330737 
L 86.08284 114.661077 
L 89.493418 201.265995 
L 90.305461 215.629372 
L 90.955095 223.97078 
L 91.44232 228.19937 
L 91.929546 230.609646 
L 92.254362 231.191 
L 92.416771 231.174058 
L 92.579179 230.953246 
L 92.903996 229.906674 
L 93.228813 228.069558 
L 93.716039 223.890566 
L 94.365673 215.855593 
L 95.177715 202.397454 
L 96.314574 178.889655 
L 99.562744 107.801842 
L 100.374786 94.968169 
L 101.02442 87.328508 
L 101.674054 82.308678 
L 102.16128 80.355762 
L 102.486097 79.931304 
L 102.648505 79.981932 
L 102.973322 80.603886 
L 103.298139 81.908434 
L 103.785364 85.100024 
L 104.434998 91.506998 
L 105.247041 102.533236 
L 106.221491 119.16228 
L 110.119295 190.61822 
L 110.931337 200.26839 
L 111.580971 205.591302 
L 112.068197 208.067104 
L 112.393014 208.972691 
L 112.717831 209.277749 
L 112.880239 209.205739 
L 113.205056 208.617212 
L 113.529873 207.446378 
L 114.017098 204.637908 
L 114.666732 199.06297 
L 115.478775 189.535134 
L 116.453226 175.237044 
L 120.351029 114.303153 
L 121.163071 106.159181 
L 121.812705 101.703036 
L 122.299931 99.660399 
L 122.624748 98.93598 
L 122.949565 98.724689 
L 123.111973 98.810731 
L 123.43679 99.361937 
L 123.761607 100.409349 
L 124.248832 102.875952 
L 124.898466 107.719789 
L 125.710509 115.94336 
L 126.847368 130.458258 
L 130.257946 176.82077 
L 131.069988 184.582878 
L 131.719622 189.121032 
L 132.206848 191.44594 
L 132.694073 192.801922 
L 133.01889 193.158862 
L 133.343707 193.078456 
L 133.668524 192.565862 
L 133.993341 191.630497 
L 134.480566 189.465473 
L 135.1302 185.258065 
L 135.942243 178.162548 
L 137.079102 165.702773 
L 140.48968 126.197035 
L 141.301723 119.637494 
L 141.951356 115.8251 
L 142.438582 113.889914 
L 142.925807 112.783424 
L 143.250624 112.513057 
L 143.575441 112.615872 
L 143.900258 113.087131 
L 144.387484 114.46559 
L 144.874709 116.610532 
L 145.524343 120.557943 
L 146.336385 126.977642 
L 147.473245 137.934652 
L 150.396597 167.307101 
L 151.371048 174.50531 
L 152.020682 177.993614 
L 152.670316 180.290738 
L 153.157541 181.18956 
L 153.482358 181.389623 
L 153.807175 181.271309 
L 154.131992 180.838991 
L 154.619218 179.618894 
L 155.106443 177.7474 
L 155.756077 174.329893 
L 156.568119 168.802505 
L 157.704979 159.410876 
L 160.628331 134.392374 
L 161.602782 128.304939 
L 162.252416 125.371882 
L 162.90205 123.458827 
L 163.389275 122.728411 
L 163.714092 122.582215 
L 164.038909 122.707539 
L 164.363726 123.100425 
L 164.850952 124.176326 
L 165.338177 125.806007 
L 165.987811 128.761494 
L 166.799853 133.518356 
L 168.099121 142.799787 
L 170.697657 161.881433 
L 171.672108 167.288305 
L 172.48415 170.49638 
L 173.133784 172.086651 
L 173.621009 172.677056 
L 173.945826 172.77975 
L 174.270643 172.650916 
L 174.59546 172.294167 
L 175.082686 171.34509 
L 175.73232 169.354346 
L 176.544362 165.839751 
L 177.518813 160.448531 
L 179.305306 148.921383 
L 180.766982 139.962753 
L 181.741433 135.175584 
L 182.553476 132.259202 
L 183.20311 130.745025 
L 183.690335 130.1194 
L 184.015152 129.950232 
L 184.339969 129.979339 
L 184.664786 130.204446 
L 185.152011 130.899895 
L 185.639237 132.004442 
L 186.288871 134.0591 
L 187.100913 137.425422 
L 188.237772 143.20526 
L 191.323533 159.553528 
L 192.297984 163.230487 
L 192.947618 164.968842 
L 193.597252 166.066547 
L 194.084478 166.44996 
L 194.409294 166.493712 
L 194.734111 166.369216 
L 195.221337 165.87387 
L 195.708562 165.023622 
L 196.358196 163.381008 
L 197.170239 160.621315 
L 198.307098 155.789085 
L 201.555267 141.117977 
L 202.529718 138.011215 
L 203.179352 136.55171 
L 203.828986 135.640405 
L 204.316212 135.332674 
L 204.803437 135.349958 
L 205.290662 135.686996 
L 205.777888 136.33146 
L 206.427522 137.635188 
L 207.239564 139.889037 
L 208.214015 143.298237 
L 212.274227 158.472508 
L 213.086269 160.344502 
L 213.735903 161.338198 
L 214.223129 161.768072 
L 214.710354 161.920893 
L 215.19758 161.797419 
L 215.684805 161.404576 
L 216.334439 160.484767 
L 216.984073 159.155084 
L 217.958524 156.528674 
L 219.257791 152.256907 
L 221.693919 144.178129 
L 222.668369 141.722173 
L 223.480412 140.260589 
L 224.130046 139.532126 
L 224.617271 139.258031 
L 225.104497 139.220693 
L 225.591722 139.417392 
L 226.078947 139.840218 
L 226.728581 140.732865 
L 227.540624 142.31455 
L 228.515075 144.746592 
L 230.463976 150.437617 
L 231.925653 154.418097 
L 232.900104 156.495809 
L 233.712146 157.72458 
L 234.36178 158.330086 
L 234.849005 158.551548 
L 235.336231 158.571005 
L 235.823456 158.391066 
L 236.47309 157.853732 
L 237.122724 157.003009 
L 237.934766 155.56075 
L 239.071626 153.017959 
L 242.482204 144.907001 
L 243.456655 143.32663 
L 244.268697 142.469295 
L 244.918331 142.116791 
L 245.405556 142.053134 
L 245.892782 142.160588 
L 246.542416 142.56091 
L 247.192049 143.234427 
L 248.004092 144.410694 
L 249.140951 146.530201 
L 252.876346 154.026154 
L 253.688389 155.105624 
L 254.500431 155.823077 
L 255.150065 156.111928 
L 255.799699 156.139781 
L 256.449333 155.910762 
L 257.098967 155.439085 
L 257.911009 154.544899 
L 258.88546 153.111422 
L 260.509545 150.218946 
L 262.458446 146.824341 
L 263.432897 145.506494 
L 264.24494 144.715215 
L 265.056982 144.248445 
L 265.706616 144.123283 
L 266.35625 144.219974 
L 267.005884 144.530252 
L 267.817926 145.192513 
L 268.792377 146.32359 
L 270.091645 148.215548 
L 272.852589 152.332926 
L 273.82704 153.395307 
L 274.639082 154.0075 
L 275.451124 154.336973 
L 276.100758 154.387477 
L 276.750392 154.25002 
L 277.562435 153.828568 
L 278.536886 153.0022 
L 279.673745 151.704206 
L 283.733957 146.726703 
L 284.708408 146.028899 
L 285.52045 145.707088 
L 286.332492 145.637001 
L 287.144535 145.816676 
L 287.956577 146.228819 
L 288.931028 146.9855 
L 290.230296 148.311435 
L 293.478465 151.802816 
L 294.615325 152.615338 
L 295.589776 153.010678 
L 296.401818 153.105824 
L 297.21386 152.986688 
L 298.188311 152.579608 
L 299.325171 151.799253 
L 300.786847 150.478675 
L 303.547791 147.939572 
L 304.68465 147.212469 
L 305.659101 146.840647 
L 306.633552 146.729133 
L 307.608003 146.879993 
L 308.582454 147.272081 
L 309.719313 147.977669 
L 311.505806 149.401512 
L 313.617117 151.048873 
L 314.916384 151.769397 
L 315.890835 152.080105 
L 316.865286 152.168365 
L 317.839737 152.033036 
L 318.976596 151.618417 
L 320.275864 150.880999 
L 324.98571 147.918897 
L 326.122569 147.598627 
L 327.09702 147.529157 
L 328.233879 147.687987 
L 329.370739 148.077473 
L 330.832415 148.827013 
L 334.730219 150.986771 
L 336.029486 151.376811 
L 337.166346 151.48809 
L 338.303205 151.377613 
L 339.602473 151.007756 
L 341.226558 150.283703 
L 344.799544 148.582697 
L 346.098812 148.227228 
L 347.39808 148.108899 
L 348.697348 148.236677 
L 350.159024 148.63644 
L 352.107926 149.433388 
L 354.86887 150.54652 
L 356.330546 150.895518 
L 357.629814 150.991651 
L 358.929082 150.878032 
L 360.390758 150.532929 
L 362.664477 149.727605 
L 365.263012 148.861978 
L 366.887097 148.574076 
L 368.348773 148.550116 
L 369.81045 148.744782 
L 371.759351 149.25713 
L 375.819563 150.421308 
L 377.443648 150.61794 
L 379.067733 150.576597 
L 380.854226 150.283684 
L 383.939987 149.474899 
L 386.213706 148.989144 
L 386.538523 148.944493 
L 386.538523 148.944493 
" clip-path="url(#p5db16af76c)" style="fill: none; stroke-dasharray: 4.44,1.92; stroke-dashoffset: 0; stroke: #000000; stroke-width: 1.2"/>
   </g>
   <g id="line2d_19">
    <path d="M 61.883977 149.664544 
L 63.508062 88.679921 
L 64.482513 59.778211 
L 65.294555 42.334593 
L 65.944189 33.423485 
L 66.431415 29.870799 
L 66.756232 29.020555 
L 66.91864 29.050644 
L 67.081049 29.382327 
L 67.405865 30.94037 
L 67.730682 33.667194 
L 68.217908 39.860954 
L 68.867542 51.758234 
L 69.679584 71.673903 
L 70.816444 106.451314 
L 74.064613 211.600494 
L 74.876655 230.574025 
L 75.526289 241.864354 
L 76.175923 249.278821 
L 76.663149 252.159725 
L 76.987966 252.782676 
L 77.150374 252.705451 
L 77.312783 252.370863 
L 77.6376 250.93871 
L 78.124825 246.933423 
L 78.61205 240.812299 
L 79.261684 229.656027 
L 80.073727 211.634872 
L 81.210586 181.04463 
L 84.133939 99.689225 
L 85.108389 79.942779 
L 85.758023 70.449636 
L 86.245249 65.499559 
L 86.732474 62.505375 
L 87.057291 61.616394 
L 87.2197 61.504892 
L 87.382108 61.614464 
L 87.706925 62.490773 
L 88.031742 64.227847 
L 88.518967 68.388585 
L 89.168601 76.641106 
L 89.980644 90.739329 
L 90.955095 111.89418 
L 94.852898 202.066573 
L 95.66494 214.109808 
L 96.314574 220.693483 
L 96.8018 223.706476 
L 97.126617 224.771381 
L 97.451434 225.076603 
L 97.613842 224.94546 
L 97.938659 224.122017 
L 98.263476 222.564192 
L 98.750702 218.902296 
L 99.400335 211.718888 
L 100.212378 199.531158 
L 101.349237 178.028554 
L 104.759815 109.374599 
L 105.571858 97.886164 
L 106.221491 91.173081 
L 106.708717 87.737112 
L 107.195942 85.737093 
L 107.520759 85.214364 
L 107.683168 85.19632 
L 107.845576 85.339604 
L 108.170393 86.105099 
L 108.49521 87.496828 
L 108.982436 90.712988 
L 109.63207 96.95715 
L 110.444112 107.481802 
L 111.580971 125.95782 
L 114.991549 184.518165 
L 115.803592 194.23161 
L 116.453226 199.871622 
L 116.940451 202.730303 
L 117.427676 204.359705 
L 117.752493 204.752996 
L 117.914902 204.741841 
L 118.239719 204.307537 
L 118.564536 203.332662 
L 119.051761 200.89123 
L 119.701395 195.926926 
L 120.513437 187.318008 
L 121.487888 174.267501 
L 123.599199 141.682181 
L 124.898466 123.429396 
L 125.872917 112.761434 
L 126.522551 107.595146 
L 127.172185 104.197143 
L 127.65941 102.871717 
L 127.984227 102.58047 
L 128.146636 102.612313 
L 128.471453 103.027569 
L 128.79627 103.903739 
L 129.283495 106.051812 
L 129.933129 110.368819 
L 130.745172 117.80267 
L 131.719622 129.017486 
L 135.617426 177.244278 
L 136.429468 183.765214 
L 137.079102 187.365088 
L 137.566328 189.042195 
L 137.891144 189.657849 
L 138.215961 189.868533 
L 138.540778 189.676208 
L 138.865595 189.086832 
L 139.352821 187.480877 
L 139.840046 185.053523 
L 140.48968 180.656634 
L 141.301723 173.585644 
L 142.438582 161.626645 
L 145.199526 131.472176 
L 146.173977 123.452147 
L 146.986019 118.697603 
L 147.473245 116.806458 
L 147.96047 115.678273 
L 148.285287 115.357549 
L 148.610104 115.382142 
L 148.934921 115.748343 
L 149.259738 116.449072 
L 149.746963 118.103921 
L 150.396597 121.358918 
L 151.20864 126.890301 
L 152.345499 136.659959 
L 155.756077 167.903583 
L 156.568119 173.143514 
L 157.217753 176.210878 
L 157.704979 177.785345 
L 158.192204 178.707489 
L 158.517021 178.953897 
L 158.841838 178.905782 
L 159.166655 178.566581 
L 159.65388 177.526542 
L 160.141106 175.879241 
L 160.79074 172.81932 
L 161.602782 167.810806 
L 162.739641 159.217645 
L 165.825403 134.934488 
L 166.799853 129.478916 
L 167.449487 126.902242 
L 167.936713 125.591673 
L 168.423938 124.838966 
L 168.748755 124.651787 
L 169.073572 124.715903 
L 169.398389 125.028151 
L 169.885614 125.948859 
L 170.37284 127.385917 
L 171.022474 130.034785 
L 171.834516 134.347275 
L 172.971376 141.714082 
L 175.894728 161.489931 
L 176.869179 166.345497 
L 177.518813 168.702228 
L 178.168447 170.258204 
L 178.655672 170.870997 
L 178.980489 171.010988 
L 179.305306 170.936729 
L 179.630123 170.651114 
L 180.117349 169.837822 
L 180.604574 168.58578 
L 181.254208 166.294896 
L 182.06625 162.584372 
L 183.20311 156.272156 
L 186.126462 139.427525 
L 187.100913 135.321055 
L 187.750547 133.33951 
L 188.400181 132.04382 
L 188.887406 131.54586 
L 189.212223 131.443156 
L 189.53704 131.523178 
L 190.024266 131.979577 
L 190.511491 132.824475 
L 191.161125 134.511455 
L 191.973167 137.404863 
L 192.947618 141.757806 
L 196.845422 160.390139 
L 197.657464 162.894814 
L 198.307098 164.271592 
L 198.794323 164.908089 
L 199.281549 165.19425 
L 199.606366 165.189513 
L 200.093591 164.89318 
L 200.580817 164.26088 
L 201.230451 162.929348 
L 202.042493 160.573299 
L 203.016944 156.953838 
L 204.803437 149.203586 
L 206.427522 142.577781 
L 207.401973 139.493367 
L 208.214015 137.671162 
L 208.863649 136.775012 
L 209.350874 136.44893 
L 209.8381 136.423204 
L 210.325325 136.693889 
L 210.812551 137.250475 
L 211.462185 138.407539 
L 212.274227 140.439937 
L 213.248678 143.547122 
L 215.19758 150.775561 
L 216.659256 155.801732 
L 217.633707 158.410408 
L 218.445749 159.941818 
L 219.095383 160.686165 
L 219.582608 160.948807 
L 220.069834 160.955251 
L 220.557059 160.709208 
L 221.044285 160.219978 
L 221.693919 159.215318 
L 222.505961 157.463042 
L 223.480412 154.796637 
L 225.591722 148.111816 
L 226.89099 144.351842 
L 227.865441 142.145537 
L 228.677483 140.858633 
L 229.327117 140.240712 
L 229.814342 140.029858 
L 230.301568 140.037575 
L 230.788793 140.2604 
L 231.438427 140.877253 
L 232.088061 141.829619 
L 232.900104 143.423177 
L 234.036963 146.204829 
L 237.285132 154.611491 
L 238.259583 156.381497 
L 239.071626 157.36754 
L 239.72126 157.798465 
L 240.208485 157.9048 
L 240.69571 157.825339 
L 241.345344 157.438855 
L 241.994978 156.752392 
L 242.807021 155.523973 
L 243.781471 153.623014 
L 245.567965 149.523943 
L 247.192049 145.993902 
L 248.1665 144.338308 
L 248.978543 143.351234 
L 249.628177 142.857649 
L 250.277811 142.643412 
L 250.927444 142.711414 
L 251.577078 143.053313 
L 252.226712 143.650091 
L 253.038755 144.709904 
L 254.175614 146.642179 
L 258.073417 153.823902 
L 258.88546 154.784473 
L 259.697502 155.405824 
L 260.347136 155.637861 
L 260.99677 155.62883 
L 261.646404 155.383916 
L 262.296038 154.917534 
L 263.10808 154.058715 
L 264.24494 152.454166 
L 266.518658 148.647125 
L 267.817926 146.690279 
L 268.792377 145.563674 
L 269.604419 144.924293 
L 270.416462 144.592804 
L 271.066096 144.558529 
L 271.71573 144.727082 
L 272.527772 145.205935 
L 273.339814 145.947426 
L 274.476674 147.325011 
L 278.699294 152.905714 
L 279.673745 153.637949 
L 280.485787 153.96494 
L 281.29783 154.018997 
L 282.109872 153.803604 
L 282.921914 153.338751 
L 283.896365 152.501609 
L 285.195633 151.051995 
L 288.281394 147.44296 
L 289.418254 146.531635 
L 290.230296 146.125586 
L 291.042338 145.947634 
L 291.854381 146.003045 
L 292.666423 146.282582 
L 293.640874 146.880898 
L 294.777733 147.861481 
L 297.21386 150.387302 
L 298.675537 151.71352 
L 299.812396 152.437273 
L 300.786847 152.775683 
L 301.598889 152.840444 
L 302.410932 152.708062 
L 303.385383 152.308174 
L 304.522242 151.566051 
L 306.146327 150.185932 
L 308.582454 148.120423 
L 309.719313 147.433208 
L 310.693764 147.073599 
L 311.668215 146.953434 
L 312.642666 147.076162 
L 313.617117 147.423696 
L 314.753976 148.062502 
L 316.540469 149.369274 
L 318.814188 151.000975 
L 320.113456 151.645202 
L 321.250315 151.937665 
L 322.224766 151.964185 
L 323.199217 151.787035 
L 324.336076 151.352805 
L 325.797752 150.53134 
L 329.533147 148.276867 
L 330.832415 147.833388 
L 331.969274 147.692122 
L 333.106134 147.791523 
L 334.242993 148.111345 
L 335.704669 148.770247 
L 340.252107 151.028621 
L 341.551375 151.308338 
L 342.688234 151.334942 
L 343.987502 151.12126 
L 345.449178 150.624395 
L 348.047714 149.4205 
L 349.996615 148.635699 
L 351.458292 148.298066 
L 352.75756 148.234156 
L 354.056827 148.394853 
L 355.518504 148.80081 
L 357.954631 149.755617 
L 360.228349 150.551468 
L 361.690026 150.834979 
L 363.151702 150.877518 
L 364.613378 150.681501 
L 366.399872 150.192284 
L 370.947309 148.801678 
L 372.571394 148.623855 
L 374.03307 148.68494 
L 375.657155 148.971858 
L 378.25569 149.700502 
L 380.854226 150.351887 
L 382.478311 150.542362 
L 384.102396 150.513411 
L 385.888889 150.250809 
L 386.538523 150.110788 
L 386.538523 150.110788 
" clip-path="url(#p5db16af76c)" style="fill: none; stroke-dasharray: 4.44,1.92; stroke-dashoffset: 0; stroke: #000000; stroke-width: 1.2"/>
   </g>
   <g id="line2d_20">
    <path d="M 61.883977 84.480272 
L 64.157696 90.981091 
L 66.431415 96.83301 
L 68.705133 102.102345 
L 70.978852 106.845289 
L 73.414979 111.403895 
L 75.851106 115.476189 
L 78.287233 119.11412 
L 80.723361 122.366389 
L 83.321896 125.455173 
L 85.920432 128.192725 
L 88.518967 130.619916 
L 91.279912 132.898669 
L 94.203264 135.016717 
L 97.289025 136.966574 
L 100.374786 138.658271 
L 103.785364 140.262552 
L 107.358351 141.691688 
L 111.256154 143.003505 
L 115.316366 144.142495 
L 120.026212 145.223087 
L 125.223283 146.171211 
L 130.90758 146.979119 
L 137.403919 147.674586 
L 145.199526 148.274835 
L 154.456809 148.763021 
L 166.150219 149.136348 
L 180.929391 149.39761 
L 206.265113 149.581338 
L 249.790585 149.653892 
L 386.538523 149.664403 
L 386.538523 149.664403 
" clip-path="url(#p5db16af76c)" style="fill: none; stroke-dasharray: 4.44,1.92; stroke-dashoffset: 0; stroke: #000000; stroke-width: 1.2"/>
   </g>
   <g id="patch_3">
    <path d="M 45.65125 273.312 
L 45.65125 7.2 
" style="fill: none; stroke: #262626; stroke-linejoin: miter; stroke-linecap: square"/>
   </g>
   <g id="patch_4">
    <path d="M 45.65125 273.312 
L 402.77125 273.312 
" style="fill: none; stroke: #262626; stroke-linejoin: miter; stroke-linecap: square"/>
   </g>
   <g id="legend_1">
    <g id="line2d_21">
     <path d="M 346.245 18.338875 
L 355.045 18.338875 
L 363.845 18.338875 
" style="fill: none; stroke: #1f77b4; stroke-width: 1.2; stroke-linecap: round"/>
    </g>
    <g id="text_17">
     <!-- $x_1$ -->
     <g style="fill: #262626" transform="translate(370.885 21.418875) scale(0.088 -0.088)">
      <defs>
       <path id="DejaVuSans-31" d="M 794 531 
L 1825 531 
L 1825 4091 
L 703 3866 
L 703 4441 
L 1819 4666 
L 2450 4666 
L 2450 531 
L 3481 531 
L 3481 0 
L 794 0 
L 794 531 
z
" transform="scale(0.015625)"/>
      </defs>
      <use xlink:href="#DejaVuSans-Oblique-78" transform="translate(0 0.3125)"/>
      <use xlink:href="#DejaVuSans-31" transform="translate(59.179688 -16.09375) scale(0.7)"/>
     </g>
    </g>
    <g id="line2d_22">
     <path d="M 346.245 30.78675 
L 355.045 30.78675 
L 363.845 30.78675 
" style="fill: none; stroke: #ff7f0e; stroke-width: 1.2; stroke-linecap: round"/>
    </g>
    <g id="text_18">
     <!-- $x_2$ -->
     <g style="fill: #262626" transform="translate(370.885 33.86675) scale(0.088 -0.088)">
      <defs>
       <path id="DejaVuSans-32" d="M 1228 531 
L 3431 531 
L 3431 0 
L 469 0 
L 469 531 
Q 828 903 1448 1529 
Q 2069 2156 2228 2338 
Q 2531 2678 2651 2914 
Q 2772 3150 2772 3378 
Q 2772 3750 2511 3984 
Q 2250 4219 1831 4219 
Q 1534 4219 1204 4116 
Q 875 4013 500 3803 
L 500 4441 
Q 881 4594 1212 4672 
Q 1544 4750 1819 4750 
Q 2544 4750 2975 4387 
Q 3406 4025 3406 3419 
Q 3406 3131 3298 2873 
Q 3191 2616 2906 2266 
Q 2828 2175 2409 1742 
Q 1991 1309 1228 531 
z
" transform="scale(0.015625)"/>
      </defs>
      <use xlink:href="#DejaVuSans-Oblique-78" transform="translate(0 0.3125)"/>
      <use xlink:href="#DejaVuSans-32" transform="translate(59.179688 -16.09375) scale(0.7)"/>
     </g>
    </g>
    <g id="line2d_23">
     <path d="M 346.245 43.234625 
L 355.045 43.234625 
L 363.845 43.234625 
" style="fill: none; stroke: #2ca02c; stroke-width: 1.2; stroke-linecap: round"/>
    </g>
    <g id="text_19">
     <!-- $x_3$ -->
     <g style="fill: #262626" transform="translate(370.885 46.314625) scale(0.088 -0.088)">
      <defs>
       <path id="DejaVuSans-33" d="M 2597 2516 
Q 3050 2419 3304 2112 
Q 3559 1806 3559 1356 
Q 3559 666 3084 287 
Q 2609 -91 1734 -91 
Q 1441 -91 1130 -33 
Q 819 25 488 141 
L 488 750 
Q 750 597 1062 519 
Q 1375 441 1716 441 
Q 2309 441 2620 675 
Q 2931 909 2931 1356 
Q 2931 1769 2642 2001 
Q 2353 2234 1838 2234 
L 1294 2234 
L 1294 2753 
L 1863 2753 
Q 2328 2753 2575 2939 
Q 2822 3125 2822 3475 
Q 2822 3834 2567 4026 
Q 2313 4219 1838 4219 
Q 1578 4219 1281 4162 
Q 984 4106 628 3988 
L 628 4550 
Q 988 4650 1302 4700 
Q 1616 4750 1894 4750 
Q 2613 4750 3031 4423 
Q 3450 4097 3450 3541 
Q 3450 3153 3228 2886 
Q 3006 2619 2597 2516 
z
" transform="scale(0.015625)"/>
      </defs>
      <use xlink:href="#DejaVuSans-Oblique-78" transform="translate(0 0.3125)"/>
      <use xlink:href="#DejaVuSans-33" transform="translate(59.179688 -16.09375) scale(0.7)"/>
     </g>
    </g>
    <g id="line2d_24">
     <path d="M 346.245 55.6825 
L 355.045 55.6825 
L 363.845 55.6825 
" style="fill: none; stroke-dasharray: 4.44,1.92; stroke-dashoffset: 0; stroke: #000000; stroke-width: 1.2"/>
    </g>
    <g id="text_20">
     <!-- model -->
     <g style="fill: #262626" transform="translate(370.885 58.7625) scale(0.088 -0.088)">
      <defs>
       <path id="ArialMT-6f" d="M 213 1659 
Q 213 2581 725 3025 
Q 1153 3394 1769 3394 
Q 2453 3394 2887 2945 
Q 3322 2497 3322 1706 
Q 3322 1066 3130 698 
Q 2938 331 2570 128 
Q 2203 -75 1769 -75 
Q 1072 -75 642 372 
Q 213 819 213 1659 
z
M 791 1659 
Q 791 1022 1069 705 
Q 1347 388 1769 388 
Q 2188 388 2466 706 
Q 2744 1025 2744 1678 
Q 2744 2294 2464 2611 
Q 2184 2928 1769 2928 
Q 1347 2928 1069 2612 
Q 791 2297 791 1659 
z
" transform="scale(0.015625)"/>
       <path id="ArialMT-64" d="M 2575 0 
L 2575 419 
Q 2259 -75 1647 -75 
Q 1250 -75 917 144 
Q 584 363 401 755 
Q 219 1147 219 1656 
Q 219 2153 384 2558 
Q 550 2963 881 3178 
Q 1213 3394 1622 3394 
Q 1922 3394 2156 3267 
Q 2391 3141 2538 2938 
L 2538 4581 
L 3097 4581 
L 3097 0 
L 2575 0 
z
M 797 1656 
Q 797 1019 1065 703 
Q 1334 388 1700 388 
Q 2069 388 2326 689 
Q 2584 991 2584 1609 
Q 2584 2291 2321 2609 
Q 2059 2928 1675 2928 
Q 1300 2928 1048 2622 
Q 797 2316 797 1656 
z
" transform="scale(0.015625)"/>
       <path id="ArialMT-6c" d="M 409 0 
L 409 4581 
L 972 4581 
L 972 0 
L 409 0 
z
" transform="scale(0.015625)"/>
      </defs>
      <use xlink:href="#ArialMT-6d"/>
      <use xlink:href="#ArialMT-6f" x="83.300781"/>
      <use xlink:href="#ArialMT-64" x="138.916016"/>
      <use xlink:href="#ArialMT-65" x="194.53125"/>
      <use xlink:href="#ArialMT-6c" x="250.146484"/>
     </g>
    </g>
   </g>
  </g>
 </g>
 <defs>
  <clipPath id="p5db16af76c">
   <rect x="45.65125" y="7.2" width="357.12" height="266.112"/>
  </clipPath>
 </defs>
</svg>