<?xml version="1.0" encoding="utf-8" standalone="no"?>
<!DOCTYPE svg PUBLIC "-//W3C//DTD SVG 1.1//EN"
  "http://www.w3.org/Graphics/SVG/1.1/DTD/svg11.dtd">
<svg xmlns:xlink="http://www.w3.org/1999/xlink" width="410.20075pt" height="322.510875pt" viewBox="0 0 410.20075 322.510875" xmlns="http://www.w3.org/2000/svg" version="1.1">
 <metadata>
  <rdf:RDF xmlns:dc="http://purl.org/dc/elements/1.1/" xmlns:cc="http://creativecommons.org/ns#" xmlns:rdf="http://www.w3.org/1999/02/22-rdf-syntax-ns#">
   <cc:Work>
    <dc:type rdf:resource="http://purl.org/dc/dcmitype/StillImage"/>
    <dc:date>2024-09-27T20:17:03.556567</dc:date>
    <dc:format>image/svg+xml</dc:format>
    <dc:creator>
     <cc:Agent>
      <dc:title>Matplotlib v3.9.0, https://matplotlib.org/</dc:title>
     </cc:Agent>
    </dc:creator>
   </cc:Work>
  </rdf:RDF>
 </metadata>
 <defs>
  <style type="text/css">*{stroke-linejoin: round; stroke-linecap: butt}</style>
 </defs>
 <g id="figure_1">
  <g id="patch_1">
   <path d="M 0 322.510875 
L 410.20075 322.510875 
L 410.20075 0 
L 0 0 
z
" style="fill: #ffffff"/>
  </g>
  <g id="axes_1">
   <g id="patch_2">
    <path d="M 45.88075 286.1835 
L 403.00075 286.1835 
L 403.00075 20.0715 
L 45.88075 20.0715 
z
" style="fill: #ffffff"/>
   </g>
   <g id="matplotlib.axis_1">
    <g id="xtick_1">
     <g id="line2d_1">
      <defs>
       <path id="m98f985b6b6" d="M 0 0 
L 0 4.8 
" style="stroke: #262626"/>
      </defs>
      <g>
       <use xlink:href="#m98f985b6b6" x="62.113477" y="286.1835" style="fill: #262626; stroke: #262626"/>
      </g>
     </g>
     <g id="text_1">
      <!-- 0 -->
      <g style="fill: #262626" transform="translate(59.666665 300.782375) scale(0.088 -0.088)">
       <defs>
        <path id="ArialMT-30" d="M 266 2259 
Q 266 3072 433 3567 
Q 600 4063 929 4331 
Q 1259 4600 1759 4600 
Q 2128 4600 2406 4451 
Q 2684 4303 2865 4023 
Q 3047 3744 3150 3342 
Q 3253 2941 3253 2259 
Q 3253 1453 3087 958 
Q 2922 463 2592 192 
Q 2263 -78 1759 -78 
Q 1097 -78 719 397 
Q 266 969 266 2259 
z
M 844 2259 
Q 844 1131 1108 757 
Q 1372 384 1759 384 
Q 2147 384 2411 759 
Q 2675 1134 2675 2259 
Q 2675 3391 2411 3762 
Q 2147 4134 1753 4134 
Q 1366 4134 1134 3806 
Q 844 3388 844 2259 
z
" transform="scale(0.015625)"/>
       </defs>
       <use xlink:href="#ArialMT-30"/>
      </g>
     </g>
    </g>
    <g id="xtick_2">
     <g id="line2d_2">
      <g>
       <use xlink:href="#m98f985b6b6" x="127.044386" y="286.1835" style="fill: #262626; stroke: #262626"/>
      </g>
     </g>
     <g id="text_2">
      <!-- 10 -->
      <g style="fill: #262626" transform="translate(122.150761 300.782375) scale(0.088 -0.088)">
       <defs>
        <path id="ArialMT-31" d="M 2384 0 
L 1822 0 
L 1822 3584 
Q 1619 3391 1289 3197 
Q 959 3003 697 2906 
L 697 3450 
Q 1169 3672 1522 3987 
Q 1875 4303 2022 4600 
L 2384 4600 
L 2384 0 
z
" transform="scale(0.015625)"/>
       </defs>
       <use xlink:href="#ArialMT-31"/>
       <use xlink:href="#ArialMT-30" x="55.615234"/>
      </g>
     </g>
    </g>
    <g id="xtick_3">
     <g id="line2d_3">
      <g>
       <use xlink:href="#m98f985b6b6" x="191.975295" y="286.1835" style="fill: #262626; stroke: #262626"/>
      </g>
     </g>
     <g id="text_3">
      <!-- 20 -->
      <g style="fill: #262626" transform="translate(187.08167 300.782375) scale(0.088 -0.088)">
       <defs>
        <path id="ArialMT-32" d="M 3222 541 
L 3222 0 
L 194 0 
Q 188 203 259 391 
Q 375 700 629 1000 
Q 884 1300 1366 1694 
Q 2113 2306 2375 2664 
Q 2638 3022 2638 3341 
Q 2638 3675 2398 3904 
Q 2159 4134 1775 4134 
Q 1369 4134 1125 3890 
Q 881 3647 878 3216 
L 300 3275 
Q 359 3922 746 4261 
Q 1134 4600 1788 4600 
Q 2447 4600 2831 4234 
Q 3216 3869 3216 3328 
Q 3216 3053 3103 2787 
Q 2991 2522 2730 2228 
Q 2469 1934 1863 1422 
Q 1356 997 1212 845 
Q 1069 694 975 541 
L 3222 541 
z
" transform="scale(0.015625)"/>
       </defs>
       <use xlink:href="#ArialMT-32"/>
       <use xlink:href="#ArialMT-30" x="55.615234"/>
      </g>
     </g>
    </g>
    <g id="xtick_4">
     <g id="line2d_4">
      <g>
       <use xlink:href="#m98f985b6b6" x="256.906205" y="286.1835" style="fill: #262626; stroke: #262626"/>
      </g>
     </g>
     <g id="text_4">
      <!-- 30 -->
      <g style="fill: #262626" transform="translate(252.01258 300.782375) scale(0.088 -0.088)">
       <defs>
        <path id="ArialMT-33" d="M 269 1209 
L 831 1284 
Q 928 806 1161 595 
Q 1394 384 1728 384 
Q 2125 384 2398 659 
Q 2672 934 2672 1341 
Q 2672 1728 2419 1979 
Q 2166 2231 1775 2231 
Q 1616 2231 1378 2169 
L 1441 2663 
Q 1497 2656 1531 2656 
Q 1891 2656 2178 2843 
Q 2466 3031 2466 3422 
Q 2466 3731 2256 3934 
Q 2047 4138 1716 4138 
Q 1388 4138 1169 3931 
Q 950 3725 888 3313 
L 325 3413 
Q 428 3978 793 4289 
Q 1159 4600 1703 4600 
Q 2078 4600 2393 4439 
Q 2709 4278 2876 4000 
Q 3044 3722 3044 3409 
Q 3044 3113 2884 2869 
Q 2725 2625 2413 2481 
Q 2819 2388 3044 2092 
Q 3269 1797 3269 1353 
Q 3269 753 2831 336 
Q 2394 -81 1725 -81 
Q 1122 -81 723 278 
Q 325 638 269 1209 
z
" transform="scale(0.015625)"/>
       </defs>
       <use xlink:href="#ArialMT-33"/>
       <use xlink:href="#ArialMT-30" x="55.615234"/>
      </g>
     </g>
    </g>
    <g id="xtick_5">
     <g id="line2d_5">
      <g>
       <use xlink:href="#m98f985b6b6" x="321.837114" y="286.1835" style="fill: #262626; stroke: #262626"/>
      </g>
     </g>
     <g id="text_5">
      <!-- 40 -->
      <g style="fill: #262626" transform="translate(316.943489 300.782375) scale(0.088 -0.088)">
       <defs>
        <path id="ArialMT-34" d="M 2069 0 
L 2069 1097 
L 81 1097 
L 81 1613 
L 2172 4581 
L 2631 4581 
L 2631 1613 
L 3250 1613 
L 3250 1097 
L 2631 1097 
L 2631 0 
L 2069 0 
z
M 2069 1613 
L 2069 3678 
L 634 1613 
L 2069 1613 
z
" transform="scale(0.015625)"/>
       </defs>
       <use xlink:href="#ArialMT-34"/>
       <use xlink:href="#ArialMT-30" x="55.615234"/>
      </g>
     </g>
    </g>
    <g id="xtick_6">
     <g id="line2d_6">
      <g>
       <use xlink:href="#m98f985b6b6" x="386.768023" y="286.1835" style="fill: #262626; stroke: #262626"/>
      </g>
     </g>
     <g id="text_6">
      <!-- 50 -->
      <g style="fill: #262626" transform="translate(381.874398 300.782375) scale(0.088 -0.088)">
       <defs>
        <path id="ArialMT-35" d="M 266 1200 
L 856 1250 
Q 922 819 1161 601 
Q 1400 384 1738 384 
Q 2144 384 2425 690 
Q 2706 997 2706 1503 
Q 2706 1984 2436 2262 
Q 2166 2541 1728 2541 
Q 1456 2541 1237 2417 
Q 1019 2294 894 2097 
L 366 2166 
L 809 4519 
L 3088 4519 
L 3088 3981 
L 1259 3981 
L 1013 2750 
Q 1425 3038 1878 3038 
Q 2478 3038 2890 2622 
Q 3303 2206 3303 1553 
Q 3303 931 2941 478 
Q 2500 -78 1738 -78 
Q 1113 -78 717 272 
Q 322 622 266 1200 
z
" transform="scale(0.015625)"/>
       </defs>
       <use xlink:href="#ArialMT-35"/>
       <use xlink:href="#ArialMT-30" x="55.615234"/>
      </g>
     </g>
    </g>
    <g id="text_7">
     <!-- t -->
     <g style="fill: #262626" transform="translate(223.10725 313.402875) scale(0.096 -0.096)">
      <defs>
       <path id="ArialMT-74" d="M 1650 503 
L 1731 6 
Q 1494 -44 1306 -44 
Q 1000 -44 831 53 
Q 663 150 594 308 
Q 525 466 525 972 
L 525 2881 
L 113 2881 
L 113 3319 
L 525 3319 
L 525 4141 
L 1084 4478 
L 1084 3319 
L 1650 3319 
L 1650 2881 
L 1084 2881 
L 1084 941 
Q 1084 700 1114 631 
Q 1144 563 1211 522 
Q 1278 481 1403 481 
Q 1497 481 1650 503 
z
" transform="scale(0.015625)"/>
      </defs>
      <use xlink:href="#ArialMT-74"/>
     </g>
    </g>
   </g>
   <g id="matplotlib.axis_2">
    <g id="ytick_1">
     <g id="line2d_7">
      <defs>
       <path id="mf05e35120f" d="M 0 0 
L -4.8 0 
" style="stroke: #262626"/>
      </defs>
      <g>
       <use xlink:href="#mf05e35120f" x="45.88075" y="284.545614" style="fill: #262626; stroke: #262626"/>
      </g>
     </g>
     <g id="text_8">
      <!-- −0.8 -->
      <g style="fill: #262626" transform="translate(20.209 287.695052) scale(0.088 -0.088)">
       <defs>
        <path id="ArialMT-2212" d="M 3381 1997 
L 356 1997 
L 356 2522 
L 3381 2522 
L 3381 1997 
z
" transform="scale(0.015625)"/>
        <path id="ArialMT-2e" d="M 581 0 
L 581 641 
L 1222 641 
L 1222 0 
L 581 0 
z
" transform="scale(0.015625)"/>
        <path id="ArialMT-38" d="M 1131 2484 
Q 781 2613 612 2850 
Q 444 3088 444 3419 
Q 444 3919 803 4259 
Q 1163 4600 1759 4600 
Q 2359 4600 2725 4251 
Q 3091 3903 3091 3403 
Q 3091 3084 2923 2848 
Q 2756 2613 2416 2484 
Q 2838 2347 3058 2040 
Q 3278 1734 3278 1309 
Q 3278 722 2862 322 
Q 2447 -78 1769 -78 
Q 1091 -78 675 323 
Q 259 725 259 1325 
Q 259 1772 486 2073 
Q 713 2375 1131 2484 
z
M 1019 3438 
Q 1019 3113 1228 2906 
Q 1438 2700 1772 2700 
Q 2097 2700 2305 2904 
Q 2513 3109 2513 3406 
Q 2513 3716 2298 3927 
Q 2084 4138 1766 4138 
Q 1444 4138 1231 3931 
Q 1019 3725 1019 3438 
z
M 838 1322 
Q 838 1081 952 856 
Q 1066 631 1291 507 
Q 1516 384 1775 384 
Q 2178 384 2440 643 
Q 2703 903 2703 1303 
Q 2703 1709 2433 1975 
Q 2163 2241 1756 2241 
Q 1359 2241 1098 1978 
Q 838 1716 838 1322 
z
" transform="scale(0.015625)"/>
       </defs>
       <use xlink:href="#ArialMT-2212"/>
       <use xlink:href="#ArialMT-30" x="58.398438"/>
       <use xlink:href="#ArialMT-2e" x="114.013672"/>
       <use xlink:href="#ArialMT-38" x="141.796875"/>
      </g>
     </g>
    </g>
    <g id="ytick_2">
     <g id="line2d_8">
      <g>
       <use xlink:href="#mf05e35120f" x="45.88075" y="252.511613" style="fill: #262626; stroke: #262626"/>
      </g>
     </g>
     <g id="text_9">
      <!-- −0.6 -->
      <g style="fill: #262626" transform="translate(20.209 255.661051) scale(0.088 -0.088)">
       <defs>
        <path id="ArialMT-36" d="M 3184 3459 
L 2625 3416 
Q 2550 3747 2413 3897 
Q 2184 4138 1850 4138 
Q 1581 4138 1378 3988 
Q 1113 3794 959 3422 
Q 806 3050 800 2363 
Q 1003 2672 1297 2822 
Q 1591 2972 1913 2972 
Q 2475 2972 2870 2558 
Q 3266 2144 3266 1488 
Q 3266 1056 3080 686 
Q 2894 316 2569 119 
Q 2244 -78 1831 -78 
Q 1128 -78 684 439 
Q 241 956 241 2144 
Q 241 3472 731 4075 
Q 1159 4600 1884 4600 
Q 2425 4600 2770 4297 
Q 3116 3994 3184 3459 
z
M 888 1484 
Q 888 1194 1011 928 
Q 1134 663 1356 523 
Q 1578 384 1822 384 
Q 2178 384 2434 671 
Q 2691 959 2691 1453 
Q 2691 1928 2437 2201 
Q 2184 2475 1800 2475 
Q 1419 2475 1153 2201 
Q 888 1928 888 1484 
z
" transform="scale(0.015625)"/>
       </defs>
       <use xlink:href="#ArialMT-2212"/>
       <use xlink:href="#ArialMT-30" x="58.398438"/>
       <use xlink:href="#ArialMT-2e" x="114.013672"/>
       <use xlink:href="#ArialMT-36" x="141.796875"/>
      </g>
     </g>
    </g>
    <g id="ytick_3">
     <g id="line2d_9">
      <g>
       <use xlink:href="#mf05e35120f" x="45.88075" y="220.477613" style="fill: #262626; stroke: #262626"/>
      </g>
     </g>
     <g id="text_10">
      <!-- −0.4 -->
      <g style="fill: #262626" transform="translate(20.209 223.62705) scale(0.088 -0.088)">
       <use xlink:href="#ArialMT-2212"/>
       <use xlink:href="#ArialMT-30" x="58.398438"/>
       <use xlink:href="#ArialMT-2e" x="114.013672"/>
       <use xlink:href="#ArialMT-34" x="141.796875"/>
      </g>
     </g>
    </g>
    <g id="ytick_4">
     <g id="line2d_10">
      <g>
       <use xlink:href="#mf05e35120f" x="45.88075" y="188.443612" style="fill: #262626; stroke: #262626"/>
      </g>
     </g>
     <g id="text_11">
      <!-- −0.2 -->
      <g style="fill: #262626" transform="translate(20.209 191.593049) scale(0.088 -0.088)">
       <use xlink:href="#ArialMT-2212"/>
       <use xlink:href="#ArialMT-30" x="58.398438"/>
       <use xlink:href="#ArialMT-2e" x="114.013672"/>
       <use xlink:href="#ArialMT-32" x="141.796875"/>
      </g>
     </g>
    </g>
    <g id="ytick_5">
     <g id="line2d_11">
      <g>
       <use xlink:href="#mf05e35120f" x="45.88075" y="156.409611" style="fill: #262626; stroke: #262626"/>
      </g>
     </g>
     <g id="text_12">
      <!-- 0.0 -->
      <g style="fill: #262626" transform="translate(25.34875 159.559049) scale(0.088 -0.088)">
       <use xlink:href="#ArialMT-30"/>
       <use xlink:href="#ArialMT-2e" x="55.615234"/>
       <use xlink:href="#ArialMT-30" x="83.398438"/>
      </g>
     </g>
    </g>
    <g id="ytick_6">
     <g id="line2d_12">
      <g>
       <use xlink:href="#mf05e35120f" x="45.88075" y="124.37561" style="fill: #262626; stroke: #262626"/>
      </g>
     </g>
     <g id="text_13">
      <!-- 0.2 -->
      <g style="fill: #262626" transform="translate(25.34875 127.525048) scale(0.088 -0.088)">
       <use xlink:href="#ArialMT-30"/>
       <use xlink:href="#ArialMT-2e" x="55.615234"/>
       <use xlink:href="#ArialMT-32" x="83.398438"/>
      </g>
     </g>
    </g>
    <g id="ytick_7">
     <g id="line2d_13">
      <g>
       <use xlink:href="#mf05e35120f" x="45.88075" y="92.341609" style="fill: #262626; stroke: #262626"/>
      </g>
     </g>
     <g id="text_14">
      <!-- 0.4 -->
      <g style="fill: #262626" transform="translate(25.34875 95.491047) scale(0.088 -0.088)">
       <use xlink:href="#ArialMT-30"/>
       <use xlink:href="#ArialMT-2e" x="55.615234"/>
       <use xlink:href="#ArialMT-34" x="83.398438"/>
      </g>
     </g>
    </g>
    <g id="ytick_8">
     <g id="line2d_14">
      <g>
       <use xlink:href="#mf05e35120f" x="45.88075" y="60.307609" style="fill: #262626; stroke: #262626"/>
      </g>
     </g>
     <g id="text_15">
      <!-- 0.6 -->
      <g style="fill: #262626" transform="translate(25.34875 63.457046) scale(0.088 -0.088)">
       <use xlink:href="#ArialMT-30"/>
       <use xlink:href="#ArialMT-2e" x="55.615234"/>
       <use xlink:href="#ArialMT-36" x="83.398438"/>
      </g>
     </g>
    </g>
    <g id="ytick_9">
     <g id="line2d_15">
      <g>
       <use xlink:href="#mf05e35120f" x="45.88075" y="28.273608" style="fill: #262626; stroke: #262626"/>
      </g>
     </g>
     <g id="text_16">
      <!-- 0.8 -->
      <g style="fill: #262626" transform="translate(25.34875 31.423045) scale(0.088 -0.088)">
       <use xlink:href="#ArialMT-30"/>
       <use xlink:href="#ArialMT-2e" x="55.615234"/>
       <use xlink:href="#ArialMT-38" x="83.398438"/>
      </g>
     </g>
    </g>
    <g id="text_17">
     <!-- x(t), v(t) -->
     <g style="fill: #262626" transform="translate(14.1885 169.6545) rotate(-90) scale(0.096 -0.096)">
      <defs>
       <path id="ArialMT-78" d="M 47 0 
L 1259 1725 
L 138 3319 
L 841 3319 
L 1350 2541 
Q 1494 2319 1581 2169 
Q 1719 2375 1834 2534 
L 2394 3319 
L 3066 3319 
L 1919 1756 
L 3153 0 
L 2463 0 
L 1781 1031 
L 1600 1309 
L 728 0 
L 47 0 
z
" transform="scale(0.015625)"/>
       <path id="ArialMT-28" d="M 1497 -1347 
Q 1031 -759 709 28 
Q 388 816 388 1659 
Q 388 2403 628 3084 
Q 909 3875 1497 4659 
L 1900 4659 
Q 1522 4009 1400 3731 
Q 1209 3300 1100 2831 
Q 966 2247 966 1656 
Q 966 153 1900 -1347 
L 1497 -1347 
z
" transform="scale(0.015625)"/>
       <path id="ArialMT-29" d="M 791 -1347 
L 388 -1347 
Q 1322 153 1322 1656 
Q 1322 2244 1188 2822 
Q 1081 3291 891 3722 
Q 769 4003 388 4659 
L 791 4659 
Q 1378 3875 1659 3084 
Q 1900 2403 1900 1659 
Q 1900 816 1576 28 
Q 1253 -759 791 -1347 
z
" transform="scale(0.015625)"/>
       <path id="ArialMT-2c" d="M 569 0 
L 569 641 
L 1209 641 
L 1209 0 
Q 1209 -353 1084 -570 
Q 959 -788 688 -906 
L 531 -666 
Q 709 -588 793 -436 
Q 878 -284 888 0 
L 569 0 
z
" transform="scale(0.015625)"/>
       <path id="ArialMT-20" transform="scale(0.015625)"/>
       <path id="ArialMT-76" d="M 1344 0 
L 81 3319 
L 675 3319 
L 1388 1331 
Q 1503 1009 1600 663 
Q 1675 925 1809 1294 
L 2547 3319 
L 3125 3319 
L 1869 0 
L 1344 0 
z
" transform="scale(0.015625)"/>
      </defs>
      <use xlink:href="#ArialMT-78"/>
      <use xlink:href="#ArialMT-28" x="50"/>
      <use xlink:href="#ArialMT-74" x="83.300781"/>
      <use xlink:href="#ArialMT-29" x="111.083984"/>
      <use xlink:href="#ArialMT-2c" x="144.384766"/>
      <use xlink:href="#ArialMT-20" x="172.167969"/>
      <use xlink:href="#ArialMT-76" x="199.951172"/>
      <use xlink:href="#ArialMT-28" x="249.951172"/>
      <use xlink:href="#ArialMT-74" x="283.251953"/>
      <use xlink:href="#ArialMT-29" x="311.035156"/>
     </g>
    </g>
   </g>
   <g id="line2d_16">
    <path d="M 62.113477 156.409611 
L 62.438457 156.335539 
L 62.763436 156.114184 
L 63.413395 155.237734 
L 64.063354 153.803617 
L 64.713313 151.846332 
L 65.688252 148.030983 
L 66.98817 141.617277 
L 68.938047 130.404794 
L 70.887925 119.575395 
L 71.862863 115.218354 
L 72.512822 112.957472 
L 73.162781 111.329066 
L 73.81274 110.420256 
L 74.137719 110.258541 
L 74.4627 110.301789 
L 74.787679 110.555812 
L 75.112658 111.02507 
L 75.762617 112.620501 
L 76.412577 115.097528 
L 77.062536 118.44614 
L 78.037474 125.041552 
L 79.012412 133.395231 
L 80.312331 146.956731 
L 81.937229 167.109243 
L 84.212084 198.968902 
L 86.161962 225.303617 
L 87.136901 235.905618 
L 87.78686 241.305981 
L 88.43682 245.028518 
L 88.761798 246.186544 
L 89.086779 246.847274 
L 89.411757 246.997513 
L 89.736737 246.631257 
L 90.061715 245.74987 
L 90.386696 244.361649 
L 91.036655 240.130808 
L 91.686613 234.123245 
L 92.661553 222.324127 
L 93.96147 202.777376 
L 95.911346 168.729529 
L 101.111022 73.78873 
L 102.085958 61.270608 
L 102.735917 55.472389 
L 103.385876 52.134581 
L 103.710856 51.461126 
L 104.035837 51.4682 
L 104.360815 52.153437 
L 104.685796 53.502248 
L 105.335755 58.07691 
L 105.985713 64.874859 
L 106.960653 78.316474 
L 108.26057 99.993912 
L 113.460243 190.406903 
L 115.085141 213.957975 
L 116.06008 225.673343 
L 117.03502 234.796854 
L 117.684975 239.121999 
L 118.334937 241.867709 
L 118.659915 242.620213 
L 118.984893 242.953638 
L 119.309877 242.870361 
L 119.634855 242.378009 
L 119.959832 241.489281 
L 120.609794 238.596797 
L 121.25975 234.379684 
L 122.234689 226.084193 
L 123.534606 212.668087 
L 127.109381 174.180209 
L 128.734282 159.561062 
L 130.034199 149.73256 
L 131.334117 141.557626 
L 132.634034 134.926913 
L 133.933951 129.668405 
L 135.233869 125.566237 
L 136.533786 122.377282 
L 137.833709 119.850949 
L 139.458605 117.271469 
L 142.058439 113.704935 
L 144.333296 110.84882 
L 145.633213 109.495173 
L 146.608153 108.757185 
L 147.258115 108.454965 
L 147.90807 108.343519 
L 148.558032 108.456678 
L 149.207988 108.827407 
L 149.857949 109.486719 
L 150.507905 110.462711 
L 151.157867 111.779855 
L 152.132806 114.438445 
L 153.107746 117.959445 
L 154.082685 122.371938 
L 155.057619 127.686934 
L 156.357542 136.17115 
L 157.657459 146.218146 
L 159.282355 160.861675 
L 161.232234 181.060621 
L 165.131986 223.076455 
L 166.106925 231.121154 
L 166.756881 235.2259 
L 167.406849 238.098144 
L 167.73182 239.023389 
L 168.056804 239.588946 
L 168.381776 239.785421 
L 168.70676 239.607821 
L 169.031744 239.055572 
L 169.356715 238.132513 
L 170.006683 235.209747 
L 170.656639 230.946942 
L 171.631578 222.379771 
L 172.606518 211.742866 
L 174.231413 190.961961 
L 176.506276 158.50976 
L 181.055978 92.303049 
L 182.030917 80.693599 
L 183.005857 71.614438 
L 183.655825 67.395626 
L 184.30578 64.88474 
L 184.630764 64.311135 
L 184.955736 64.202377 
L 185.28072 64.558084 
L 185.605691 65.371335 
L 186.255659 68.312279 
L 186.905615 72.855475 
L 187.880554 82.149612 
L 189.180465 97.74694 
L 191.780313 133.117992 
L 194.705119 171.6946 
L 196.654998 194.795493 
L 198.279893 211.365726 
L 199.254832 219.533399 
L 200.229772 225.92655 
L 200.87974 229.033266 
L 201.529696 231.124094 
L 201.854667 231.773286 
L 202.179651 232.154741 
L 202.504635 232.268827 
L 202.829607 232.118497 
L 203.154591 231.709198 
L 203.804546 230.147406 
L 204.454514 227.671762 
L 205.429454 222.503494 
L 206.404381 215.997904 
L 208.029288 203.427494 
L 211.929034 172.555866 
L 214.203897 156.718672 
L 216.803732 140.372925 
L 220.378506 119.396649 
L 222.653357 107.229017 
L 223.95328 101.327596 
L 224.92822 97.727202 
L 225.903159 95.04979 
L 226.553115 93.865018 
L 227.20307 93.210217 
L 227.528054 93.09154 
L 227.853038 93.115755 
L 228.17801 93.284611 
L 228.827978 94.058929 
L 229.477934 95.411182 
L 230.127889 97.325355 
L 231.102829 101.188976 
L 232.077768 106.131914 
L 233.377692 114.157782 
L 235.002587 126.058261 
L 236.627482 139.614516 
L 238.577361 157.718221 
L 240.852212 180.964009 
L 244.426986 217.886329 
L 245.401925 226.103745 
L 246.376865 232.489135 
L 247.026833 235.448901 
L 247.676788 237.213836 
L 248.00176 237.619493 
L 248.326744 237.698589 
L 248.651728 237.448995 
L 248.9767 236.872345 
L 249.626668 234.761635 
L 250.276623 231.445977 
L 250.926579 227.04691 
L 251.901518 218.746211 
L 253.201442 205.3336 
L 255.151321 182.365627 
L 262.625841 91.310083 
L 263.60078 82.704691 
L 264.250736 78.203807 
L 264.900704 74.88706 
L 265.550659 72.883991 
L 265.875643 72.401635 
L 266.200615 72.271989 
L 266.525599 72.494908 
L 266.850583 73.066041 
L 267.500538 75.216026 
L 268.150494 78.612981 
L 269.125434 85.700448 
L 270.100373 94.619703 
L 271.725281 111.885515 
L 277.249922 172.757335 
L 279.524772 195.10048 
L 281.14968 209.041473 
L 282.449591 218.17515 
L 283.42453 223.394747 
L 284.074498 225.943372 
L 284.724441 227.671948 
L 285.049438 228.215347 
L 285.374409 228.540824 
L 285.699381 228.647701 
L 286.024377 228.537072 
L 286.349349 228.211862 
L 286.999317 226.938147 
L 287.64926 224.883301 
L 288.299228 222.12528 
L 289.274168 216.875673 
L 290.574079 208.327977 
L 292.523958 193.667544 
L 303.898236 105.23941 
L 305.198172 96.947938 
L 306.173111 91.922954 
L 306.823055 89.314509 
L 307.473023 87.395811 
L 308.122966 86.232863 
L 308.447962 85.949674 
L 308.772934 85.870316 
L 309.097905 85.996449 
L 309.422902 86.328141 
L 310.072845 87.60009 
L 310.722813 89.655079 
L 311.372781 92.440514 
L 312.34772 97.835139 
L 313.647631 106.878685 
L 315.272539 120.291972 
L 317.54739 141.442794 
L 320.472208 171.070421 
L 324.696938 214.489078 
L 325.996849 225.248168 
L 326.971789 231.311876 
L 327.621757 234.121904 
L 328.2717 235.810474 
L 328.596696 236.210078 
L 328.921668 236.306143 
L 329.246639 236.097477 
L 329.571636 235.585979 
L 330.221579 233.678141 
L 330.871547 230.657634 
L 331.521515 226.637353 
L 332.49643 219.037567 
L 333.796365 206.749535 
L 335.746244 185.764458 
L 343.545736 99.407299 
L 344.845672 88.448784 
L 345.820612 82.274175 
L 346.470555 79.383147 
L 347.120523 77.593279 
L 347.445494 77.132284 
L 347.770491 76.966092 
L 348.095462 77.09509 
L 348.420434 77.516551 
L 348.74543 78.224838 
L 349.395373 80.46476 
L 350.045341 83.717333 
L 351.020281 90.209447 
L 352.320192 101.102132 
L 354.270071 120.018852 
L 360.119708 178.09065 
L 362.719531 201.570116 
L 364.344438 214.116625 
L 365.319378 220.231357 
L 366.294317 224.902376 
L 366.94426 227.074142 
L 367.594228 228.417741 
L 367.9192 228.766245 
L 368.244196 228.89593 
L 368.569168 228.806533 
L 368.894139 228.499753 
L 369.544107 227.249461 
L 370.194075 225.19273 
L 370.844018 222.400149 
L 371.818958 217.024208 
L 373.118894 208.149078 
L 374.743777 195.329523 
L 377.993567 167.445722 
L 385.793083 99.688827 
L 386.768023 93.061371 
L 386.768023 93.061371 
" clip-path="url(#p94c3df4ab3)" style="fill: none; stroke: #1f77b4; stroke-width: 1.2; stroke-linecap: round"/>
   </g>
   <g id="line2d_17">
    <path d="M 62.113477 156.409611 
L 64.063354 139.403078 
L 65.363273 129.868875 
L 66.338211 124.250056 
L 66.98817 121.408407 
L 67.638129 119.391506 
L 68.288088 118.280679 
L 68.613068 118.088717 
L 68.938047 118.150583 
L 69.263027 118.474001 
L 69.588007 119.06573 
L 70.237965 121.075193 
L 70.887925 124.205828 
L 71.537883 128.454632 
L 72.512822 136.825796 
L 73.487761 147.300981 
L 75.112658 167.958715 
L 78.037474 206.372204 
L 79.337393 220.956685 
L 80.63731 233.207122 
L 81.61225 240.641165 
L 82.587188 246.187041 
L 83.237146 248.504459 
L 83.562126 249.140376 
L 83.887105 249.367268 
L 84.212084 249.134114 
L 84.537065 248.386488 
L 84.862044 247.068122 
L 85.187024 245.122717 
L 85.836982 239.140415 
L 86.486941 230.089957 
L 87.136901 217.808851 
L 88.111839 193.693148 
L 89.411757 154.259576 
L 91.036655 104.899173 
L 92.011594 80.978582 
L 92.986531 63.068075 
L 93.636493 54.28724 
L 94.286451 47.604703 
L 94.93641 42.568392 
L 95.586369 38.76042 
L 96.236327 35.870886 
L 96.886286 33.750258 
L 97.536245 32.443491 
L 97.861225 32.1675 
L 98.186203 32.208857 
L 98.511184 32.633292 
L 98.836165 33.518526 
L 99.161143 34.952543 
L 99.486124 37.031013 
L 100.136082 43.520617 
L 100.786041 53.750133 
L 101.436 68.285452 
L 102.085958 87.279621 
L 103.060898 122.974785 
L 105.660732 224.498027 
L 106.310691 242.55264 
L 106.960653 256.074234 
L 107.610612 265.301749 
L 108.26057 270.855071 
L 108.585548 272.498814 
L 108.910529 273.522497 
L 109.23551 274.022543 
L 109.560488 274.0875 
L 109.885468 273.796024 
L 110.210446 273.215479 
L 110.860405 271.396092 
L 111.835344 267.488403 
L 112.810284 262.312641 
L 113.460243 257.926796 
L 114.110201 252.473955 
L 114.760163 245.623011 
L 115.410119 237.058614 
L 116.385058 220.543797 
L 117.359998 199.67899 
L 119.309877 150.624806 
L 120.609794 120.540601 
L 121.584727 103.258533 
L 122.234689 94.87239 
L 122.884651 89.007305 
L 123.534606 85.471199 
L 123.859584 84.484501 
L 124.184568 83.961404 
L 124.509546 83.856861 
L 124.834524 84.125796 
L 125.159508 84.724304 
L 125.809463 86.744552 
L 126.459425 89.614419 
L 127.434365 94.969601 
L 129.384238 107.320547 
L 131.659094 121.46444 
L 133.283996 130.18866 
L 134.583913 135.970336 
L 135.558853 139.510927 
L 136.533786 142.341728 
L 137.508725 144.476972 
L 138.483665 145.97066 
L 139.458605 146.91711 
L 140.433544 147.447801 
L 141.733461 147.792594 
L 143.033379 148.12864 
L 144.008318 148.650424 
L 144.658274 149.228408 
L 145.308236 150.046165 
L 145.958197 151.143252 
L 146.933131 153.376452 
L 147.90807 156.362147 
L 148.88301 160.10023 
L 150.182927 166.149595 
L 151.807828 175.040988 
L 154.732641 192.811229 
L 157.982437 212.253605 
L 159.607332 220.878186 
L 160.582272 225.164834 
L 161.232234 227.384673 
L 161.882189 228.872459 
L 162.207173 229.268874 
L 162.532151 229.389809 
L 162.857129 229.199993 
L 163.182107 228.662905 
L 163.507091 227.741655 
L 164.157046 224.603539 
L 164.807008 219.52664 
L 165.456963 212.330305 
L 166.106925 202.963225 
L 167.081865 185.165781 
L 168.70676 149.113049 
L 170.331655 113.759791 
L 171.306595 96.598069 
L 172.281534 83.501473 
L 173.256474 74.249882 
L 173.906429 69.84461 
L 174.556397 66.522364 
L 175.206353 64.017531 
L 175.856308 62.116452 
L 176.506276 60.682033 
L 177.156232 59.670131 
L 177.806187 59.139096 
L 178.131171 59.101309 
L 178.456143 59.25384 
L 178.781127 59.633443 
L 179.106111 60.282506 
L 179.431082 61.248287 
L 180.08105 64.337217 
L 180.731006 69.327484 
L 181.380962 76.620715 
L 182.030917 86.510544 
L 183.005857 106.346021 
L 184.30578 140.335574 
L 186.255659 194.139632 
L 187.230599 215.566653 
L 187.880554 226.529235 
L 188.53051 234.743601 
L 189.180465 240.413777 
L 189.830433 243.900698 
L 190.155405 244.959207 
L 190.480389 245.634649 
L 190.805373 245.980026 
L 191.130345 246.045165 
L 191.455329 245.875669 
L 192.105284 244.990283 
L 192.755252 243.5842 
L 193.730179 240.851129 
L 194.705119 237.541256 
L 195.680058 233.520188 
L 196.654998 228.386332 
L 197.629937 221.597873 
L 198.604877 212.639876 
L 199.579816 201.223789 
L 200.87974 182.473688 
L 204.454514 127.481462 
L 205.429454 117.00899 
L 206.079409 111.773802 
L 206.729365 107.919137 
L 207.37932 105.342836 
L 208.029288 103.890317 
L 208.35426 103.528748 
L 208.679244 103.378208 
L 209.004228 103.414534 
L 209.329199 103.613939 
L 209.979155 104.410884 
L 210.954095 106.29086 
L 214.528869 114.214323 
L 215.503808 115.702772 
L 216.478748 116.796956 
L 217.453687 117.573031 
L 220.053522 119.355848 
L 220.70349 120.114541 
L 221.353446 121.162353 
L 222.003401 122.582926 
L 222.653357 124.4534 
L 223.303325 126.838573 
L 224.278264 131.475882 
L 225.253204 137.417267 
L 226.553115 147.160144 
L 228.502994 164.14623 
L 230.452873 180.891601 
L 231.752784 190.477357 
L 233.052708 198.388786 
L 234.352631 204.767479 
L 235.652542 210.019875 
L 237.277437 215.672017 
L 238.902333 220.712304 
L 239.877272 223.295202 
L 240.52724 224.658348 
L 241.177196 225.568862 
L 241.50218 225.79761 
L 241.827151 225.840442 
L 242.152135 225.668727 
L 242.477119 225.252283 
L 242.802091 224.560034 
L 243.452046 222.22284 
L 244.102014 218.418013 
L 244.75197 212.949157 
L 245.401925 205.700882 
L 246.376865 191.541901 
L 247.676788 167.745745 
L 250.276623 117.643885 
L 251.251563 103.059777 
L 252.226502 92.060496 
L 252.876458 86.647885 
L 253.526413 82.57209 
L 254.176381 79.602219 
L 254.826337 77.496144 
L 255.476292 76.030088 
L 256.126248 75.020458 
L 256.776216 74.337923 
L 257.426171 73.915875 
L 258.076127 73.75481 
L 258.726095 73.923818 
L 259.376051 74.558733 
L 260.026006 75.856297 
L 260.675962 78.062355 
L 261.32593 81.451625 
L 261.975885 86.296956 
L 262.625841 92.828981 
L 263.275809 101.188054 
L 264.250736 117.109411 
L 265.550659 143.268048 
L 267.825522 190.410634 
L 268.80045 206.122873 
L 269.775389 217.602958 
L 270.425345 222.915766 
L 271.075313 226.556334 
L 271.725281 228.781945 
L 272.375224 229.877387 
L 272.70022 230.089046 
L 273.025192 230.12024 
L 273.350163 230.000575 
L 274.000131 229.412931 
L 274.975071 227.967606 
L 276.274982 225.507882 
L 277.574893 222.591306 
L 278.549833 219.858508 
L 279.524772 216.268148 
L 280.499712 211.386014 
L 281.474651 204.80455 
L 282.449591 196.263917 
L 283.42453 185.77422 
L 285.049438 165.094809 
L 287.324289 135.848325 
L 288.299228 125.646261 
L 289.274168 117.62973 
L 290.249107 111.880498 
L 290.899075 109.210032 
L 291.549018 107.34093 
L 292.198986 106.137289 
L 292.848929 105.456248 
L 293.498897 105.158667 
L 294.148865 105.117415 
L 295.448776 105.38435 
L 296.748688 105.629977 
L 297.723627 105.623189 
L 300.648446 105.287216 
L 301.298414 105.571331 
L 301.948357 106.209348 
L 302.598325 107.329125 
L 303.248293 109.061459 
L 303.898236 111.530381 
L 304.548204 114.841462 
L 305.198172 119.067697 
L 306.173111 127.166625 
L 307.148051 137.214553 
L 308.772934 156.874074 
L 311.047784 184.264441 
L 312.34772 196.708512 
L 313.32266 203.91648 
L 314.297599 209.400755 
L 315.272539 213.463438 
L 316.247454 216.488599 
L 317.222393 218.846205 
L 318.522329 221.420191 
L 319.82224 223.568548 
L 320.79718 224.751616 
L 321.447148 225.159225 
L 321.772119 225.194539 
L 322.097091 225.087967 
L 322.422087 224.81486 
L 322.747059 224.348857 
L 323.397027 222.727254 
L 324.04697 219.99857 
L 324.696938 215.950905 
L 325.346881 210.415659 
L 325.996849 203.300163 
L 326.971789 189.737054 
L 328.2717 167.400653 
L 330.871547 121.028067 
L 331.846486 107.574389 
L 332.821426 97.44956 
L 333.471369 92.501218 
L 334.121337 88.823752 
L 334.771305 86.212504 
L 335.421248 84.445908 
L 336.071216 83.311543 
L 336.721184 82.625347 
L 337.371127 82.243648 
L 338.021095 82.070397 
L 338.671063 82.060811 
L 339.321006 82.22245 
L 339.970974 82.614602 
L 340.620942 83.345726 
L 341.270885 84.568346 
L 341.920853 86.470323 
L 342.570797 89.260612 
L 343.220764 93.14957 
L 343.870732 98.321609 
L 344.520676 104.903756 
L 345.495615 117.472361 
L 346.795551 138.503504 
L 349.720345 188.956234 
L 350.695284 201.67991 
L 351.670224 211.059692 
L 352.320192 215.493504 
L 352.97016 218.631104 
L 353.620103 220.669019 
L 354.270071 221.824449 
L 354.920039 222.310943 
L 355.569982 222.321688 
L 356.21995 222.018704 
L 357.19489 221.238953 
L 358.819772 219.587759 
L 359.794712 218.392146 
L 360.769651 216.804844 
L 361.419619 215.357228 
L 362.069587 213.449556 
L 362.719531 210.944528 
L 363.369498 207.708652 
L 364.019466 203.627673 
L 364.994406 195.763083 
L 365.969321 185.799875 
L 367.269257 169.847512 
L 370.194075 132.053671 
L 371.169015 121.98728 
L 372.143954 114.070996 
L 373.118894 108.320926 
L 373.768837 105.570004 
L 374.418805 103.54724 
L 375.068748 102.11549 
L 375.718716 101.135451 
L 376.368684 100.476707 
L 377.343624 99.847258 
L 380.268442 98.527445 
L 381.243382 98.199997 
L 381.893325 98.164945 
L 382.543293 98.40007 
L 383.193236 99.037191 
L 383.843204 100.225323 
L 384.493172 102.121939 
L 385.143115 104.880633 
L 385.793083 108.635549 
L 386.443051 113.48214 
L 386.768023 116.32929 
L 386.768023 116.32929 
" clip-path="url(#p94c3df4ab3)" style="fill: none; stroke: #ff7f0e; stroke-width: 1.2; stroke-linecap: round"/>
   </g>
   <g id="patch_3">
    <path d="M 45.88075 284.545614 
L 45.88075 28.273608 
" style="fill: none; stroke: #262626; stroke-linejoin: miter; stroke-linecap: square"/>
   </g>
   <g id="patch_4">
    <path d="M 62.113477 286.1835 
L 386.768023 286.1835 
" style="fill: none; stroke: #262626; stroke-linejoin: miter; stroke-linecap: square"/>
   </g>
   <g id="text_18">
    <!-- Solution -->
    <g style="fill: #262626" transform="translate(207.0955 14.0715) scale(0.096 -0.096)">
     <defs>
      <path id="ArialMT-53" d="M 288 1472 
L 859 1522 
Q 900 1178 1048 958 
Q 1197 738 1509 602 
Q 1822 466 2213 466 
Q 2559 466 2825 569 
Q 3091 672 3220 851 
Q 3350 1031 3350 1244 
Q 3350 1459 3225 1620 
Q 3100 1781 2813 1891 
Q 2628 1963 1997 2114 
Q 1366 2266 1113 2400 
Q 784 2572 623 2826 
Q 463 3081 463 3397 
Q 463 3744 659 4045 
Q 856 4347 1234 4503 
Q 1613 4659 2075 4659 
Q 2584 4659 2973 4495 
Q 3363 4331 3572 4012 
Q 3781 3694 3797 3291 
L 3216 3247 
Q 3169 3681 2898 3903 
Q 2628 4125 2100 4125 
Q 1550 4125 1298 3923 
Q 1047 3722 1047 3438 
Q 1047 3191 1225 3031 
Q 1400 2872 2139 2705 
Q 2878 2538 3153 2413 
Q 3553 2228 3743 1945 
Q 3934 1663 3934 1294 
Q 3934 928 3725 604 
Q 3516 281 3123 101 
Q 2731 -78 2241 -78 
Q 1619 -78 1198 103 
Q 778 284 539 648 
Q 300 1013 288 1472 
z
" transform="scale(0.015625)"/>
      <path id="ArialMT-6f" d="M 213 1659 
Q 213 2581 725 3025 
Q 1153 3394 1769 3394 
Q 2453 3394 2887 2945 
Q 3322 2497 3322 1706 
Q 3322 1066 3130 698 
Q 2938 331 2570 128 
Q 2203 -75 1769 -75 
Q 1072 -75 642 372 
Q 213 819 213 1659 
z
M 791 1659 
Q 791 1022 1069 705 
Q 1347 388 1769 388 
Q 2188 388 2466 706 
Q 2744 1025 2744 1678 
Q 2744 2294 2464 2611 
Q 2184 2928 1769 2928 
Q 1347 2928 1069 2612 
Q 791 2297 791 1659 
z
" transform="scale(0.015625)"/>
      <path id="ArialMT-6c" d="M 409 0 
L 409 4581 
L 972 4581 
L 972 0 
L 409 0 
z
" transform="scale(0.015625)"/>
      <path id="ArialMT-75" d="M 2597 0 
L 2597 488 
Q 2209 -75 1544 -75 
Q 1250 -75 995 37 
Q 741 150 617 320 
Q 494 491 444 738 
Q 409 903 409 1263 
L 409 3319 
L 972 3319 
L 972 1478 
Q 972 1038 1006 884 
Q 1059 663 1231 536 
Q 1403 409 1656 409 
Q 1909 409 2131 539 
Q 2353 669 2445 892 
Q 2538 1116 2538 1541 
L 2538 3319 
L 3100 3319 
L 3100 0 
L 2597 0 
z
" transform="scale(0.015625)"/>
      <path id="ArialMT-69" d="M 425 3934 
L 425 4581 
L 988 4581 
L 988 3934 
L 425 3934 
z
M 425 0 
L 425 3319 
L 988 3319 
L 988 0 
L 425 0 
z
" transform="scale(0.015625)"/>
      <path id="ArialMT-6e" d="M 422 0 
L 422 3319 
L 928 3319 
L 928 2847 
Q 1294 3394 1984 3394 
Q 2284 3394 2536 3286 
Q 2788 3178 2913 3003 
Q 3038 2828 3088 2588 
Q 3119 2431 3119 2041 
L 3119 0 
L 2556 0 
L 2556 2019 
Q 2556 2363 2490 2533 
Q 2425 2703 2258 2804 
Q 2091 2906 1866 2906 
Q 1506 2906 1245 2678 
Q 984 2450 984 1813 
L 984 0 
L 422 0 
z
" transform="scale(0.015625)"/>
     </defs>
     <use xlink:href="#ArialMT-53"/>
     <use xlink:href="#ArialMT-6f" x="66.699219"/>
     <use xlink:href="#ArialMT-6c" x="122.314453"/>
     <use xlink:href="#ArialMT-75" x="144.53125"/>
     <use xlink:href="#ArialMT-74" x="200.146484"/>
     <use xlink:href="#ArialMT-69" x="227.929688"/>
     <use xlink:href="#ArialMT-6f" x="250.146484"/>
     <use xlink:href="#ArialMT-6e" x="305.761719"/>
    </g>
   </g>
   <g id="legend_1">
    <g id="line2d_18">
     <path d="M 366.04075 31.210375 
L 374.84075 31.210375 
L 383.64075 31.210375 
" style="fill: none; stroke: #1f77b4; stroke-width: 1.2; stroke-linecap: round"/>
    </g>
    <g id="text_19">
     <!-- x -->
     <g style="fill: #262626" transform="translate(390.68075 34.290375) scale(0.088 -0.088)">
      <use xlink:href="#ArialMT-78"/>
     </g>
    </g>
    <g id="line2d_19">
     <path d="M 366.04075 43.65825 
L 374.84075 43.65825 
L 383.64075 43.65825 
" style="fill: none; stroke: #ff7f0e; stroke-width: 1.2; stroke-linecap: round"/>
    </g>
    <g id="text_20">
     <!-- v -->
     <g style="fill: #262626" transform="translate(390.68075 46.73825) scale(0.088 -0.088)">
      <use xlink:href="#ArialMT-76"/>
     </g>
    </g>
   </g>
  </g>
 </g>
 <defs>
  <clipPath id="p94c3df4ab3">
   <rect x="45.88075" y="20.0715" width="357.12" height="266.112"/>
  </clipPath>
 </defs>
</svg>