<?xml version="1.0" encoding="utf-8" standalone="no"?>
<!DOCTYPE svg PUBLIC "-//W3C//DTD SVG 1.1//EN"
  "http://www.w3.org/Graphics/SVG/1.1/DTD/svg11.dtd">
<svg xmlns:xlink="http://www.w3.org/1999/xlink" width="569.659231pt" height="145.152pt" viewBox="0 0 569.659231 145.152" xmlns="http://www.w3.org/2000/svg" version="1.1">
 <metadata>
  <rdf:RDF xmlns:dc="http://purl.org/dc/elements/1.1/" xmlns:cc="http://creativecommons.org/ns#" xmlns:rdf="http://www.w3.org/1999/02/22-rdf-syntax-ns#">
   <cc:Work>
    <dc:type rdf:resource="http://purl.org/dc/dcmitype/StillImage"/>
    <dc:date>2024-10-08T15:20:26.836648</dc:date>
    <dc:format>image/svg+xml</dc:format>
    <dc:creator>
     <cc:Agent>
      <dc:title>Matplotlib v3.9.2, https://matplotlib.org/</dc:title>
     </cc:Agent>
    </dc:creator>
   </cc:Work>
  </rdf:RDF>
 </metadata>
 <defs>
  <style type="text/css">*{stroke-linejoin: round; stroke-linecap: butt}</style>
 </defs>
 <g id="figure_1">
  <g id="patch_1">
   <path d="M 0 145.152 
L 569.659231 145.152 
L 569.659231 0 
L 0 0 
z
" style="fill: #ffffff"/>
  </g>
  <g id="axes_1">
   <g id="patch_2">
    <path d="M 17.679398 121.604125 
L 141.58427 121.604125 
L 141.58427 48.639 
L 17.679398 48.639 
z
" style="fill: #ffffff"/>
   </g>
   <g id="matplotlib.axis_1">
    <g id="xtick_1">
     <g id="line2d_1">
      <defs>
       <path id="md3c667cdf3" d="M 0 0 
L 0 4.8 
" style="stroke: #262626"/>
      </defs>
      <g>
       <use xlink:href="#md3c667cdf3" x="18.209625" y="121.604125" style="fill: #262626; stroke: #262626"/>
      </g>
     </g>
     <g id="text_1">
      <!-- 0.000 -->
      <g style="fill: #262626" transform="translate(7.2 136.203) scale(0.088 -0.088)">
       <defs>
        <path id="ArialMT-30" d="M 266 2259 
Q 266 3072 433 3567 
Q 600 4063 929 4331 
Q 1259 4600 1759 4600 
Q 2128 4600 2406 4451 
Q 2684 4303 2865 4023 
Q 3047 3744 3150 3342 
Q 3253 2941 3253 2259 
Q 3253 1453 3087 958 
Q 2922 463 2592 192 
Q 2263 -78 1759 -78 
Q 1097 -78 719 397 
Q 266 969 266 2259 
z
M 844 2259 
Q 844 1131 1108 757 
Q 1372 384 1759 384 
Q 2147 384 2411 759 
Q 2675 1134 2675 2259 
Q 2675 3391 2411 3762 
Q 2147 4134 1753 4134 
Q 1366 4134 1134 3806 
Q 844 3388 844 2259 
z
" transform="scale(0.015625)"/>
        <path id="ArialMT-2e" d="M 581 0 
L 581 641 
L 1222 641 
L 1222 0 
L 581 0 
z
" transform="scale(0.015625)"/>
       </defs>
       <use xlink:href="#ArialMT-30"/>
       <use xlink:href="#ArialMT-2e" x="55.615234"/>
       <use xlink:href="#ArialMT-30" x="83.398438"/>
       <use xlink:href="#ArialMT-30" x="139.013672"/>
       <use xlink:href="#ArialMT-30" x="194.628906"/>
      </g>
     </g>
    </g>
    <g id="xtick_2">
     <g id="line2d_2">
      <g>
       <use xlink:href="#md3c667cdf3" x="72.474898" y="121.604125" style="fill: #262626; stroke: #262626"/>
      </g>
     </g>
     <g id="text_2">
      <!-- 0.005 -->
      <g style="fill: #262626" transform="translate(61.465273 136.203) scale(0.088 -0.088)">
       <defs>
        <path id="ArialMT-35" d="M 266 1200 
L 856 1250 
Q 922 819 1161 601 
Q 1400 384 1738 384 
Q 2144 384 2425 690 
Q 2706 997 2706 1503 
Q 2706 1984 2436 2262 
Q 2166 2541 1728 2541 
Q 1456 2541 1237 2417 
Q 1019 2294 894 2097 
L 366 2166 
L 809 4519 
L 3088 4519 
L 3088 3981 
L 1259 3981 
L 1013 2750 
Q 1425 3038 1878 3038 
Q 2478 3038 2890 2622 
Q 3303 2206 3303 1553 
Q 3303 931 2941 478 
Q 2500 -78 1738 -78 
Q 1113 -78 717 272 
Q 322 622 266 1200 
z
" transform="scale(0.015625)"/>
       </defs>
       <use xlink:href="#ArialMT-30"/>
       <use xlink:href="#ArialMT-2e" x="55.615234"/>
       <use xlink:href="#ArialMT-30" x="83.398438"/>
       <use xlink:href="#ArialMT-30" x="139.013672"/>
       <use xlink:href="#ArialMT-35" x="194.628906"/>
      </g>
     </g>
    </g>
    <g id="xtick_3">
     <g id="line2d_3">
      <g>
       <use xlink:href="#md3c667cdf3" x="126.740171" y="121.604125" style="fill: #262626; stroke: #262626"/>
      </g>
     </g>
     <g id="text_3">
      <!-- 0.010 -->
      <g style="fill: #262626" transform="translate(115.730546 136.203) scale(0.088 -0.088)">
       <defs>
        <path id="ArialMT-31" d="M 2384 0 
L 1822 0 
L 1822 3584 
Q 1619 3391 1289 3197 
Q 959 3003 697 2906 
L 697 3450 
Q 1169 3672 1522 3987 
Q 1875 4303 2022 4600 
L 2384 4600 
L 2384 0 
z
" transform="scale(0.015625)"/>
       </defs>
       <use xlink:href="#ArialMT-30"/>
       <use xlink:href="#ArialMT-2e" x="55.615234"/>
       <use xlink:href="#ArialMT-30" x="83.398438"/>
       <use xlink:href="#ArialMT-31" x="139.013672"/>
       <use xlink:href="#ArialMT-30" x="194.628906"/>
      </g>
     </g>
    </g>
   </g>
   <g id="matplotlib.axis_2"/>
   <g id="patch_3">
    <path d="M 23.311438 121.604125 
L 28.943477 121.604125 
L 28.943477 113.430205 
L 23.311438 113.430205 
z
" clip-path="url(#p5c3c4598b0)" style="fill: #1f77b4; stroke: #ffffff; stroke-width: 0.8; stroke-linejoin: miter"/>
   </g>
   <g id="patch_4">
    <path d="M 28.943477 121.604125 
L 34.575517 121.604125 
L 34.575517 104.937183 
L 28.943477 104.937183 
z
" clip-path="url(#p5c3c4598b0)" style="fill: #1f77b4; stroke: #ffffff; stroke-width: 0.8; stroke-linejoin: miter"/>
   </g>
   <g id="patch_5">
    <path d="M 34.575517 121.604125 
L 40.207557 121.604125 
L 40.207557 104.42171 
L 34.575517 104.42171 
z
" clip-path="url(#p5c3c4598b0)" style="fill: #1f77b4; stroke: #ffffff; stroke-width: 0.8; stroke-linejoin: miter"/>
   </g>
   <g id="patch_6">
    <path d="M 40.207557 121.604125 
L 45.839596 121.604125 
L 45.839596 107.023619 
L 40.207557 107.023619 
z
" clip-path="url(#p5c3c4598b0)" style="fill: #1f77b4; stroke: #ffffff; stroke-width: 0.8; stroke-linejoin: miter"/>
   </g>
   <g id="patch_7">
    <path d="M 45.839596 121.604125 
L 51.471636 121.604125 
L 51.471636 109.993722 
L 45.839596 109.993722 
z
" clip-path="url(#p5c3c4598b0)" style="fill: #1f77b4; stroke: #ffffff; stroke-width: 0.8; stroke-linejoin: miter"/>
   </g>
   <g id="patch_8">
    <path d="M 51.471636 121.604125 
L 57.103675 121.604125 
L 57.103675 111.4665 
L 51.471636 111.4665 
z
" clip-path="url(#p5c3c4598b0)" style="fill: #1f77b4; stroke: #ffffff; stroke-width: 0.8; stroke-linejoin: miter"/>
   </g>
   <g id="patch_9">
    <path d="M 57.103675 121.604125 
L 62.735715 121.604125 
L 62.735715 113.209288 
L 57.103675 113.209288 
z
" clip-path="url(#p5c3c4598b0)" style="fill: #1f77b4; stroke: #ffffff; stroke-width: 0.8; stroke-linejoin: miter"/>
   </g>
   <g id="patch_10">
    <path d="M 62.735715 121.604125 
L 68.367755 121.604125 
L 68.367755 114.534789 
L 62.735715 114.534789 
z
" clip-path="url(#p5c3c4598b0)" style="fill: #1f77b4; stroke: #ffffff; stroke-width: 0.8; stroke-linejoin: miter"/>
   </g>
   <g id="patch_11">
    <path d="M 68.367755 121.604125 
L 73.999794 121.604125 
L 73.999794 116.228484 
L 68.367755 116.228484 
z
" clip-path="url(#p5c3c4598b0)" style="fill: #1f77b4; stroke: #ffffff; stroke-width: 0.8; stroke-linejoin: miter"/>
   </g>
   <g id="patch_12">
    <path d="M 73.999794 121.604125 
L 79.631834 121.604125 
L 79.631834 117.283975 
L 73.999794 117.283975 
z
" clip-path="url(#p5c3c4598b0)" style="fill: #1f77b4; stroke: #ffffff; stroke-width: 0.8; stroke-linejoin: miter"/>
   </g>
   <g id="patch_13">
    <path d="M 79.631834 121.604125 
L 85.263874 121.604125 
L 85.263874 117.480345 
L 79.631834 117.480345 
z
" clip-path="url(#p5c3c4598b0)" style="fill: #1f77b4; stroke: #ffffff; stroke-width: 0.8; stroke-linejoin: miter"/>
   </g>
   <g id="patch_14">
    <path d="M 85.263874 121.604125 
L 90.895913 121.604125 
L 90.895913 118.413105 
L 85.263874 118.413105 
z
" clip-path="url(#p5c3c4598b0)" style="fill: #1f77b4; stroke: #ffffff; stroke-width: 0.8; stroke-linejoin: miter"/>
   </g>
   <g id="patch_15">
    <path d="M 90.895913 121.604125 
L 96.527953 121.604125 
L 96.527953 117.946725 
L 90.895913 117.946725 
z
" clip-path="url(#p5c3c4598b0)" style="fill: #1f77b4; stroke: #ffffff; stroke-width: 0.8; stroke-linejoin: miter"/>
   </g>
   <g id="patch_16">
    <path d="M 96.527953 121.604125 
L 102.159993 121.604125 
L 102.159993 118.118549 
L 96.527953 118.118549 
z
" clip-path="url(#p5c3c4598b0)" style="fill: #1f77b4; stroke: #ffffff; stroke-width: 0.8; stroke-linejoin: miter"/>
   </g>
   <g id="patch_17">
    <path d="M 102.159993 121.604125 
L 107.792032 121.604125 
L 107.792032 118.658568 
L 102.159993 118.658568 
z
" clip-path="url(#p5c3c4598b0)" style="fill: #1f77b4; stroke: #ffffff; stroke-width: 0.8; stroke-linejoin: miter"/>
   </g>
   <g id="patch_18">
    <path d="M 107.792032 121.604125 
L 113.424072 121.604125 
L 113.424072 118.97767 
L 107.792032 118.97767 
z
" clip-path="url(#p5c3c4598b0)" style="fill: #1f77b4; stroke: #ffffff; stroke-width: 0.8; stroke-linejoin: miter"/>
   </g>
   <g id="patch_19">
    <path d="M 113.424072 121.604125 
L 119.056112 121.604125 
L 119.056112 118.020364 
L 113.424072 118.020364 
z
" clip-path="url(#p5c3c4598b0)" style="fill: #1f77b4; stroke: #ffffff; stroke-width: 0.8; stroke-linejoin: miter"/>
   </g>
   <g id="patch_20">
    <path d="M 119.056112 121.604125 
L 124.688151 121.604125 
L 124.688151 108.570036 
L 119.056112 108.570036 
z
" clip-path="url(#p5c3c4598b0)" style="fill: #1f77b4; stroke: #ffffff; stroke-width: 0.8; stroke-linejoin: miter"/>
   </g>
   <g id="patch_21">
    <path d="M 124.688151 121.604125 
L 130.320191 121.604125 
L 130.320191 58.618301 
L 124.688151 58.618301 
z
" clip-path="url(#p5c3c4598b0)" style="fill: #1f77b4; stroke: #ffffff; stroke-width: 0.8; stroke-linejoin: miter"/>
   </g>
   <g id="patch_22">
    <path d="M 130.320191 121.604125 
L 135.952231 121.604125 
L 135.952231 79.286292 
L 130.320191 79.286292 
z
" clip-path="url(#p5c3c4598b0)" style="fill: #1f77b4; stroke: #ffffff; stroke-width: 0.8; stroke-linejoin: miter"/>
   </g>
   <g id="patch_23">
    <path d="M 18.209625 121.604125 
L 126.740171 121.604125 
" style="fill: none; stroke: #262626; stroke-linejoin: miter; stroke-linecap: square"/>
   </g>
   <g id="text_4">
    <!-- needle_displacement_m -->
    <g style="fill: #262626" transform="translate(27.602084 42.639) scale(0.096 -0.096)">
     <defs>
      <path id="ArialMT-6e" d="M 422 0 
L 422 3319 
L 928 3319 
L 928 2847 
Q 1294 3394 1984 3394 
Q 2284 3394 2536 3286 
Q 2788 3178 2913 3003 
Q 3038 2828 3088 2588 
Q 3119 2431 3119 2041 
L 3119 0 
L 2556 0 
L 2556 2019 
Q 2556 2363 2490 2533 
Q 2425 2703 2258 2804 
Q 2091 2906 1866 2906 
Q 1506 2906 1245 2678 
Q 984 2450 984 1813 
L 984 0 
L 422 0 
z
" transform="scale(0.015625)"/>
      <path id="ArialMT-65" d="M 2694 1069 
L 3275 997 
Q 3138 488 2766 206 
Q 2394 -75 1816 -75 
Q 1088 -75 661 373 
Q 234 822 234 1631 
Q 234 2469 665 2931 
Q 1097 3394 1784 3394 
Q 2450 3394 2872 2941 
Q 3294 2488 3294 1666 
Q 3294 1616 3291 1516 
L 816 1516 
Q 847 969 1125 678 
Q 1403 388 1819 388 
Q 2128 388 2347 550 
Q 2566 713 2694 1069 
z
M 847 1978 
L 2700 1978 
Q 2663 2397 2488 2606 
Q 2219 2931 1791 2931 
Q 1403 2931 1139 2672 
Q 875 2413 847 1978 
z
" transform="scale(0.015625)"/>
      <path id="ArialMT-64" d="M 2575 0 
L 2575 419 
Q 2259 -75 1647 -75 
Q 1250 -75 917 144 
Q 584 363 401 755 
Q 219 1147 219 1656 
Q 219 2153 384 2558 
Q 550 2963 881 3178 
Q 1213 3394 1622 3394 
Q 1922 3394 2156 3267 
Q 2391 3141 2538 2938 
L 2538 4581 
L 3097 4581 
L 3097 0 
L 2575 0 
z
M 797 1656 
Q 797 1019 1065 703 
Q 1334 388 1700 388 
Q 2069 388 2326 689 
Q 2584 991 2584 1609 
Q 2584 2291 2321 2609 
Q 2059 2928 1675 2928 
Q 1300 2928 1048 2622 
Q 797 2316 797 1656 
z
" transform="scale(0.015625)"/>
      <path id="ArialMT-6c" d="M 409 0 
L 409 4581 
L 972 4581 
L 972 0 
L 409 0 
z
" transform="scale(0.015625)"/>
      <path id="ArialMT-5f" d="M -97 -1272 
L -97 -866 
L 3631 -866 
L 3631 -1272 
L -97 -1272 
z
" transform="scale(0.015625)"/>
      <path id="ArialMT-69" d="M 425 3934 
L 425 4581 
L 988 4581 
L 988 3934 
L 425 3934 
z
M 425 0 
L 425 3319 
L 988 3319 
L 988 0 
L 425 0 
z
" transform="scale(0.015625)"/>
      <path id="ArialMT-73" d="M 197 991 
L 753 1078 
Q 800 744 1014 566 
Q 1228 388 1613 388 
Q 2000 388 2187 545 
Q 2375 703 2375 916 
Q 2375 1106 2209 1216 
Q 2094 1291 1634 1406 
Q 1016 1563 777 1677 
Q 538 1791 414 1992 
Q 291 2194 291 2438 
Q 291 2659 392 2848 
Q 494 3038 669 3163 
Q 800 3259 1026 3326 
Q 1253 3394 1513 3394 
Q 1903 3394 2198 3281 
Q 2494 3169 2634 2976 
Q 2775 2784 2828 2463 
L 2278 2388 
Q 2241 2644 2061 2787 
Q 1881 2931 1553 2931 
Q 1166 2931 1000 2803 
Q 834 2675 834 2503 
Q 834 2394 903 2306 
Q 972 2216 1119 2156 
Q 1203 2125 1616 2013 
Q 2213 1853 2448 1751 
Q 2684 1650 2818 1456 
Q 2953 1263 2953 975 
Q 2953 694 2789 445 
Q 2625 197 2315 61 
Q 2006 -75 1616 -75 
Q 969 -75 630 194 
Q 291 463 197 991 
z
" transform="scale(0.015625)"/>
      <path id="ArialMT-70" d="M 422 -1272 
L 422 3319 
L 934 3319 
L 934 2888 
Q 1116 3141 1344 3267 
Q 1572 3394 1897 3394 
Q 2322 3394 2647 3175 
Q 2972 2956 3137 2557 
Q 3303 2159 3303 1684 
Q 3303 1175 3120 767 
Q 2938 359 2589 142 
Q 2241 -75 1856 -75 
Q 1575 -75 1351 44 
Q 1128 163 984 344 
L 984 -1272 
L 422 -1272 
z
M 931 1641 
Q 931 1000 1190 694 
Q 1450 388 1819 388 
Q 2194 388 2461 705 
Q 2728 1022 2728 1688 
Q 2728 2322 2467 2637 
Q 2206 2953 1844 2953 
Q 1484 2953 1207 2617 
Q 931 2281 931 1641 
z
" transform="scale(0.015625)"/>
      <path id="ArialMT-61" d="M 2588 409 
Q 2275 144 1986 34 
Q 1697 -75 1366 -75 
Q 819 -75 525 192 
Q 231 459 231 875 
Q 231 1119 342 1320 
Q 453 1522 633 1644 
Q 813 1766 1038 1828 
Q 1203 1872 1538 1913 
Q 2219 1994 2541 2106 
Q 2544 2222 2544 2253 
Q 2544 2597 2384 2738 
Q 2169 2928 1744 2928 
Q 1347 2928 1158 2789 
Q 969 2650 878 2297 
L 328 2372 
Q 403 2725 575 2942 
Q 747 3159 1072 3276 
Q 1397 3394 1825 3394 
Q 2250 3394 2515 3294 
Q 2781 3194 2906 3042 
Q 3031 2891 3081 2659 
Q 3109 2516 3109 2141 
L 3109 1391 
Q 3109 606 3145 398 
Q 3181 191 3288 0 
L 2700 0 
Q 2613 175 2588 409 
z
M 2541 1666 
Q 2234 1541 1622 1453 
Q 1275 1403 1131 1340 
Q 988 1278 909 1158 
Q 831 1038 831 891 
Q 831 666 1001 516 
Q 1172 366 1500 366 
Q 1825 366 2078 508 
Q 2331 650 2450 897 
Q 2541 1088 2541 1459 
L 2541 1666 
z
" transform="scale(0.015625)"/>
      <path id="ArialMT-63" d="M 2588 1216 
L 3141 1144 
Q 3050 572 2676 248 
Q 2303 -75 1759 -75 
Q 1078 -75 664 370 
Q 250 816 250 1647 
Q 250 2184 428 2587 
Q 606 2991 970 3192 
Q 1334 3394 1763 3394 
Q 2303 3394 2647 3120 
Q 2991 2847 3088 2344 
L 2541 2259 
Q 2463 2594 2264 2762 
Q 2066 2931 1784 2931 
Q 1359 2931 1093 2626 
Q 828 2322 828 1663 
Q 828 994 1084 691 
Q 1341 388 1753 388 
Q 2084 388 2306 591 
Q 2528 794 2588 1216 
z
" transform="scale(0.015625)"/>
      <path id="ArialMT-6d" d="M 422 0 
L 422 3319 
L 925 3319 
L 925 2853 
Q 1081 3097 1340 3245 
Q 1600 3394 1931 3394 
Q 2300 3394 2536 3241 
Q 2772 3088 2869 2813 
Q 3263 3394 3894 3394 
Q 4388 3394 4653 3120 
Q 4919 2847 4919 2278 
L 4919 0 
L 4359 0 
L 4359 2091 
Q 4359 2428 4304 2576 
Q 4250 2725 4106 2815 
Q 3963 2906 3769 2906 
Q 3419 2906 3187 2673 
Q 2956 2441 2956 1928 
L 2956 0 
L 2394 0 
L 2394 2156 
Q 2394 2531 2256 2718 
Q 2119 2906 1806 2906 
Q 1569 2906 1367 2781 
Q 1166 2656 1075 2415 
Q 984 2175 984 1722 
L 984 0 
L 422 0 
z
" transform="scale(0.015625)"/>
      <path id="ArialMT-74" d="M 1650 503 
L 1731 6 
Q 1494 -44 1306 -44 
Q 1000 -44 831 53 
Q 663 150 594 308 
Q 525 466 525 972 
L 525 2881 
L 113 2881 
L 113 3319 
L 525 3319 
L 525 4141 
L 1084 4478 
L 1084 3319 
L 1650 3319 
L 1650 2881 
L 1084 2881 
L 1084 941 
Q 1084 700 1114 631 
Q 1144 563 1211 522 
Q 1278 481 1403 481 
Q 1497 481 1650 503 
z
" transform="scale(0.015625)"/>
     </defs>
     <use xlink:href="#ArialMT-6e"/>
     <use xlink:href="#ArialMT-65" x="55.615234"/>
     <use xlink:href="#ArialMT-65" x="111.230469"/>
     <use xlink:href="#ArialMT-64" x="166.845703"/>
     <use xlink:href="#ArialMT-6c" x="222.460938"/>
     <use xlink:href="#ArialMT-65" x="244.677734"/>
     <use xlink:href="#ArialMT-5f" x="300.292969"/>
     <use xlink:href="#ArialMT-64" x="355.908203"/>
     <use xlink:href="#ArialMT-69" x="411.523438"/>
     <use xlink:href="#ArialMT-73" x="433.740234"/>
     <use xlink:href="#ArialMT-70" x="483.740234"/>
     <use xlink:href="#ArialMT-6c" x="539.355469"/>
     <use xlink:href="#ArialMT-61" x="561.572266"/>
     <use xlink:href="#ArialMT-63" x="617.1875"/>
     <use xlink:href="#ArialMT-65" x="667.1875"/>
     <use xlink:href="#ArialMT-6d" x="722.802734"/>
     <use xlink:href="#ArialMT-65" x="806.103516"/>
     <use xlink:href="#ArialMT-6e" x="861.71875"/>
     <use xlink:href="#ArialMT-74" x="917.333984"/>
     <use xlink:href="#ArialMT-5f" x="945.117188"/>
     <use xlink:href="#ArialMT-6d" x="1000.732422"/>
    </g>
   </g>
  </g>
  <g id="axes_2">
   <g id="patch_24">
    <path d="M 157.971051 121.604125 
L 281.875924 121.604125 
L 281.875924 48.639 
L 157.971051 48.639 
z
" style="fill: #ffffff"/>
   </g>
   <g id="matplotlib.axis_3">
    <g id="xtick_4">
     <g id="line2d_4">
      <g>
       <use xlink:href="#md3c667cdf3" x="162.977913" y="121.604125" style="fill: #262626; stroke: #262626"/>
      </g>
     </g>
     <g id="text_5">
      <!-- 0 -->
      <g style="fill: #262626" transform="translate(160.5311 136.203) scale(0.088 -0.088)">
       <use xlink:href="#ArialMT-30"/>
      </g>
     </g>
    </g>
    <g id="xtick_5">
     <g id="line2d_5">
      <g>
       <use xlink:href="#md3c667cdf3" x="219.606368" y="121.604125" style="fill: #262626; stroke: #262626"/>
      </g>
     </g>
     <g id="text_6">
      <!-- 50 -->
      <g style="fill: #262626" transform="translate(214.712743 136.203) scale(0.088 -0.088)">
       <use xlink:href="#ArialMT-35"/>
       <use xlink:href="#ArialMT-30" x="55.615234"/>
      </g>
     </g>
    </g>
    <g id="xtick_6">
     <g id="line2d_6">
      <g>
       <use xlink:href="#md3c667cdf3" x="276.234823" y="121.604125" style="fill: #262626; stroke: #262626"/>
      </g>
     </g>
     <g id="text_7">
      <!-- 100 -->
      <g style="fill: #262626" transform="translate(268.894386 136.203) scale(0.088 -0.088)">
       <use xlink:href="#ArialMT-31"/>
       <use xlink:href="#ArialMT-30" x="55.615234"/>
       <use xlink:href="#ArialMT-30" x="111.230469"/>
      </g>
     </g>
    </g>
   </g>
   <g id="matplotlib.axis_4"/>
   <g id="patch_25">
    <path d="M 163.603091 121.604125 
L 169.235131 121.604125 
L 169.235131 52.604456 
L 163.603091 52.604456 
z
" clip-path="url(#p4c3fa860a2)" style="fill: #1f77b4; stroke: #ffffff; stroke-width: 0.8; stroke-linejoin: miter"/>
   </g>
   <g id="patch_26">
    <path d="M 169.235131 121.604125 
L 174.86717 121.604125 
L 174.86717 52.11353 
L 169.235131 52.11353 
z
" clip-path="url(#p4c3fa860a2)" style="fill: #1f77b4; stroke: #ffffff; stroke-width: 0.8; stroke-linejoin: miter"/>
   </g>
   <g id="patch_27">
    <path d="M 174.86717 121.604125 
L 180.49921 121.604125 
L 180.49921 81.8882 
L 174.86717 81.8882 
z
" clip-path="url(#p4c3fa860a2)" style="fill: #1f77b4; stroke: #ffffff; stroke-width: 0.8; stroke-linejoin: miter"/>
   </g>
   <g id="patch_28">
    <path d="M 180.49921 121.604125 
L 186.13125 121.604125 
L 186.13125 98.015124 
L 180.49921 98.015124 
z
" clip-path="url(#p4c3fa860a2)" style="fill: #1f77b4; stroke: #ffffff; stroke-width: 0.8; stroke-linejoin: miter"/>
   </g>
   <g id="patch_29">
    <path d="M 186.13125 121.604125 
L 191.763289 121.604125 
L 191.763289 106.753609 
L 186.13125 106.753609 
z
" clip-path="url(#p4c3fa860a2)" style="fill: #1f77b4; stroke: #ffffff; stroke-width: 0.8; stroke-linejoin: miter"/>
   </g>
   <g id="patch_30">
    <path d="M 191.763289 121.604125 
L 197.395329 121.604125 
L 197.395329 111.122852 
L 191.763289 111.122852 
z
" clip-path="url(#p4c3fa860a2)" style="fill: #1f77b4; stroke: #ffffff; stroke-width: 0.8; stroke-linejoin: miter"/>
   </g>
   <g id="patch_31">
    <path d="M 197.395329 121.604125 
L 203.027369 121.604125 
L 203.027369 115.295724 
L 197.395329 115.295724 
z
" clip-path="url(#p4c3fa860a2)" style="fill: #1f77b4; stroke: #ffffff; stroke-width: 0.8; stroke-linejoin: miter"/>
   </g>
   <g id="patch_32">
    <path d="M 203.027369 121.604125 
L 208.659408 121.604125 
L 208.659408 117.578531 
L 203.027369 117.578531 
z
" clip-path="url(#p4c3fa860a2)" style="fill: #1f77b4; stroke: #ffffff; stroke-width: 0.8; stroke-linejoin: miter"/>
   </g>
   <g id="patch_33">
    <path d="M 208.659408 121.604125 
L 214.291448 121.604125 
L 214.291448 119.272226 
L 208.659408 119.272226 
z
" clip-path="url(#p4c3fa860a2)" style="fill: #1f77b4; stroke: #ffffff; stroke-width: 0.8; stroke-linejoin: miter"/>
   </g>
   <g id="patch_34">
    <path d="M 214.291448 121.604125 
L 219.923488 121.604125 
L 219.923488 119.64042 
L 214.291448 119.64042 
z
" clip-path="url(#p4c3fa860a2)" style="fill: #1f77b4; stroke: #ffffff; stroke-width: 0.8; stroke-linejoin: miter"/>
   </g>
   <g id="patch_35">
    <path d="M 219.923488 121.604125 
L 225.555527 121.604125 
L 225.555527 120.450449 
L 219.923488 120.450449 
z
" clip-path="url(#p4c3fa860a2)" style="fill: #1f77b4; stroke: #ffffff; stroke-width: 0.8; stroke-linejoin: miter"/>
   </g>
   <g id="patch_36">
    <path d="M 225.555527 121.604125 
L 231.187567 121.604125 
L 231.187567 120.671365 
L 225.555527 120.671365 
z
" clip-path="url(#p4c3fa860a2)" style="fill: #1f77b4; stroke: #ffffff; stroke-width: 0.8; stroke-linejoin: miter"/>
   </g>
   <g id="patch_37">
    <path d="M 231.187567 121.604125 
L 236.819606 121.604125 
L 236.819606 121.23593 
L 231.187567 121.23593 
z
" clip-path="url(#p4c3fa860a2)" style="fill: #1f77b4; stroke: #ffffff; stroke-width: 0.8; stroke-linejoin: miter"/>
   </g>
   <g id="patch_38">
    <path d="M 236.819606 121.604125 
L 242.451646 121.604125 
L 242.451646 121.03956 
L 236.819606 121.03956 
z
" clip-path="url(#p4c3fa860a2)" style="fill: #1f77b4; stroke: #ffffff; stroke-width: 0.8; stroke-linejoin: miter"/>
   </g>
   <g id="patch_39">
    <path d="M 242.451646 121.604125 
L 248.083686 121.604125 
L 248.083686 121.260477 
L 242.451646 121.260477 
z
" clip-path="url(#p4c3fa860a2)" style="fill: #1f77b4; stroke: #ffffff; stroke-width: 0.8; stroke-linejoin: miter"/>
   </g>
   <g id="patch_40">
    <path d="M 248.083686 121.604125 
L 253.715725 121.604125 
L 253.715725 121.456847 
L 248.083686 121.456847 
z
" clip-path="url(#p4c3fa860a2)" style="fill: #1f77b4; stroke: #ffffff; stroke-width: 0.8; stroke-linejoin: miter"/>
   </g>
   <g id="patch_41">
    <path d="M 253.715725 121.604125 
L 259.347765 121.604125 
L 259.347765 121.555032 
L 253.715725 121.555032 
z
" clip-path="url(#p4c3fa860a2)" style="fill: #1f77b4; stroke: #ffffff; stroke-width: 0.8; stroke-linejoin: miter"/>
   </g>
   <g id="patch_42">
    <path d="M 259.347765 121.604125 
L 264.979805 121.604125 
L 264.979805 121.530486 
L 259.347765 121.530486 
z
" clip-path="url(#p4c3fa860a2)" style="fill: #1f77b4; stroke: #ffffff; stroke-width: 0.8; stroke-linejoin: miter"/>
   </g>
   <g id="patch_43">
    <path d="M 264.979805 121.604125 
L 270.611844 121.604125 
L 270.611844 121.579579 
L 264.979805 121.579579 
z
" clip-path="url(#p4c3fa860a2)" style="fill: #1f77b4; stroke: #ffffff; stroke-width: 0.8; stroke-linejoin: miter"/>
   </g>
   <g id="patch_44">
    <path d="M 270.611844 121.604125 
L 276.243884 121.604125 
L 276.243884 121.555032 
L 270.611844 121.555032 
z
" clip-path="url(#p4c3fa860a2)" style="fill: #1f77b4; stroke: #ffffff; stroke-width: 0.8; stroke-linejoin: miter"/>
   </g>
   <g id="patch_45">
    <path d="M 162.977913 121.604125 
L 276.234823 121.604125 
" style="fill: none; stroke: #262626; stroke-linejoin: miter; stroke-linecap: square"/>
   </g>
   <g id="text_8">
    <!-- injection_time_s -->
    <g style="fill: #262626" transform="translate(185.507488 42.639) scale(0.096 -0.096)">
     <defs>
      <path id="ArialMT-6a" d="M 419 3928 
L 419 4581 
L 981 4581 
L 981 3928 
L 419 3928 
z
M -294 -1288 
L -188 -809 
Q -19 -853 78 -853 
Q 250 -853 334 -739 
Q 419 -625 419 -169 
L 419 3319 
L 981 3319 
L 981 -181 
Q 981 -794 822 -1034 
Q 619 -1347 147 -1347 
Q -81 -1347 -294 -1288 
z
" transform="scale(0.015625)"/>
      <path id="ArialMT-6f" d="M 213 1659 
Q 213 2581 725 3025 
Q 1153 3394 1769 3394 
Q 2453 3394 2887 2945 
Q 3322 2497 3322 1706 
Q 3322 1066 3130 698 
Q 2938 331 2570 128 
Q 2203 -75 1769 -75 
Q 1072 -75 642 372 
Q 213 819 213 1659 
z
M 791 1659 
Q 791 1022 1069 705 
Q 1347 388 1769 388 
Q 2188 388 2466 706 
Q 2744 1025 2744 1678 
Q 2744 2294 2464 2611 
Q 2184 2928 1769 2928 
Q 1347 2928 1069 2612 
Q 791 2297 791 1659 
z
" transform="scale(0.015625)"/>
     </defs>
     <use xlink:href="#ArialMT-69"/>
     <use xlink:href="#ArialMT-6e" x="22.216797"/>
     <use xlink:href="#ArialMT-6a" x="77.832031"/>
     <use xlink:href="#ArialMT-65" x="100.048828"/>
     <use xlink:href="#ArialMT-63" x="155.664062"/>
     <use xlink:href="#ArialMT-74" x="205.664062"/>
     <use xlink:href="#ArialMT-69" x="233.447266"/>
     <use xlink:href="#ArialMT-6f" x="255.664062"/>
     <use xlink:href="#ArialMT-6e" x="311.279297"/>
     <use xlink:href="#ArialMT-5f" x="366.894531"/>
     <use xlink:href="#ArialMT-74" x="422.509766"/>
     <use xlink:href="#ArialMT-69" x="450.292969"/>
     <use xlink:href="#ArialMT-6d" x="472.509766"/>
     <use xlink:href="#ArialMT-65" x="555.810547"/>
     <use xlink:href="#ArialMT-5f" x="611.425781"/>
     <use xlink:href="#ArialMT-73" x="667.041016"/>
    </g>
   </g>
  </g>
  <g id="axes_3">
   <g id="patch_46">
    <path d="M 298.262705 121.604125 
L 422.167577 121.604125 
L 422.167577 48.639 
L 298.262705 48.639 
z
" style="fill: #ffffff"/>
   </g>
   <g id="matplotlib.axis_5">
    <g id="xtick_7">
     <g id="line2d_7">
      <g>
       <use xlink:href="#md3c667cdf3" x="299.63678" y="121.604125" style="fill: #262626; stroke: #262626"/>
      </g>
     </g>
     <g id="text_9">
      <!-- 0 -->
      <g style="fill: #262626" transform="translate(297.189968 136.203) scale(0.088 -0.088)">
       <use xlink:href="#ArialMT-30"/>
      </g>
     </g>
    </g>
    <g id="xtick_8">
     <g id="line2d_8">
      <g>
       <use xlink:href="#md3c667cdf3" x="365.834437" y="121.604125" style="fill: #262626; stroke: #262626"/>
      </g>
     </g>
     <g id="text_10">
      <!-- 100000 -->
      <g style="fill: #262626" transform="translate(351.153562 136.203) scale(0.088 -0.088)">
       <use xlink:href="#ArialMT-31"/>
       <use xlink:href="#ArialMT-30" x="55.615234"/>
       <use xlink:href="#ArialMT-30" x="111.230469"/>
       <use xlink:href="#ArialMT-30" x="166.845703"/>
       <use xlink:href="#ArialMT-30" x="222.460938"/>
       <use xlink:href="#ArialMT-30" x="278.076172"/>
      </g>
     </g>
    </g>
   </g>
   <g id="matplotlib.axis_6"/>
   <g id="patch_47">
    <path d="M 303.894745 121.604125 
L 309.526784 121.604125 
L 309.526784 89.816657 
L 303.894745 89.816657 
z
" clip-path="url(#p01b15baba2)" style="fill: #1f77b4; stroke: #ffffff; stroke-width: 0.8; stroke-linejoin: miter"/>
   </g>
   <g id="patch_48">
    <path d="M 309.526784 121.604125 
L 315.158824 121.604125 
L 315.158824 88.392972 
L 309.526784 88.392972 
z
" clip-path="url(#p01b15baba2)" style="fill: #1f77b4; stroke: #ffffff; stroke-width: 0.8; stroke-linejoin: miter"/>
   </g>
   <g id="patch_49">
    <path d="M 315.158824 121.604125 
L 320.790863 121.604125 
L 320.790863 91.583991 
L 315.158824 91.583991 
z
" clip-path="url(#p01b15baba2)" style="fill: #1f77b4; stroke: #ffffff; stroke-width: 0.8; stroke-linejoin: miter"/>
   </g>
   <g id="patch_50">
    <path d="M 320.790863 121.604125 
L 326.422903 121.604125 
L 326.422903 91.093065 
L 320.790863 91.093065 
z
" clip-path="url(#p01b15baba2)" style="fill: #1f77b4; stroke: #ffffff; stroke-width: 0.8; stroke-linejoin: miter"/>
   </g>
   <g id="patch_51">
    <path d="M 326.422903 121.604125 
L 332.054943 121.604125 
L 332.054943 93.498603 
L 326.422903 93.498603 
z
" clip-path="url(#p01b15baba2)" style="fill: #1f77b4; stroke: #ffffff; stroke-width: 0.8; stroke-linejoin: miter"/>
   </g>
   <g id="patch_52">
    <path d="M 332.054943 121.604125 
L 337.686982 121.604125 
L 337.686982 98.260587 
L 332.054943 98.260587 
z
" clip-path="url(#p01b15baba2)" style="fill: #1f77b4; stroke: #ffffff; stroke-width: 0.8; stroke-linejoin: miter"/>
   </g>
   <g id="patch_53">
    <path d="M 337.686982 121.604125 
L 343.319022 121.604125 
L 343.319022 102.899839 
L 337.686982 102.899839 
z
" clip-path="url(#p01b15baba2)" style="fill: #1f77b4; stroke: #ffffff; stroke-width: 0.8; stroke-linejoin: miter"/>
   </g>
   <g id="patch_54">
    <path d="M 343.319022 121.604125 
L 348.951062 121.604125 
L 348.951062 106.21359 
L 343.319022 106.21359 
z
" clip-path="url(#p01b15baba2)" style="fill: #1f77b4; stroke: #ffffff; stroke-width: 0.8; stroke-linejoin: miter"/>
   </g>
   <g id="patch_55">
    <path d="M 348.951062 121.604125 
L 354.583101 121.604125 
L 354.583101 110.116453 
L 348.951062 110.116453 
z
" clip-path="url(#p01b15baba2)" style="fill: #1f77b4; stroke: #ffffff; stroke-width: 0.8; stroke-linejoin: miter"/>
   </g>
   <g id="patch_56">
    <path d="M 354.583101 121.604125 
L 360.215141 121.604125 
L 360.215141 114.412057 
L 354.583101 114.412057 
z
" clip-path="url(#p01b15baba2)" style="fill: #1f77b4; stroke: #ffffff; stroke-width: 0.8; stroke-linejoin: miter"/>
   </g>
   <g id="patch_57">
    <path d="M 360.215141 121.604125 
L 365.847181 121.604125 
L 365.847181 115.099354 
L 360.215141 115.099354 
z
" clip-path="url(#p01b15baba2)" style="fill: #1f77b4; stroke: #ffffff; stroke-width: 0.8; stroke-linejoin: miter"/>
   </g>
   <g id="patch_58">
    <path d="M 365.847181 121.604125 
L 371.47922 121.604125 
L 371.47922 118.290374 
L 365.847181 118.290374 
z
" clip-path="url(#p01b15baba2)" style="fill: #1f77b4; stroke: #ffffff; stroke-width: 0.8; stroke-linejoin: miter"/>
   </g>
   <g id="patch_59">
    <path d="M 371.47922 121.604125 
L 377.11126 121.604125 
L 377.11126 119.149494 
L 371.47922 119.149494 
z
" clip-path="url(#p01b15baba2)" style="fill: #1f77b4; stroke: #ffffff; stroke-width: 0.8; stroke-linejoin: miter"/>
   </g>
   <g id="patch_60">
    <path d="M 377.11126 121.604125 
L 382.7433 121.604125 
L 382.7433 119.984069 
L 377.11126 119.984069 
z
" clip-path="url(#p01b15baba2)" style="fill: #1f77b4; stroke: #ffffff; stroke-width: 0.8; stroke-linejoin: miter"/>
   </g>
   <g id="patch_61">
    <path d="M 382.7433 121.604125 
L 388.375339 121.604125 
L 388.375339 120.695912 
L 382.7433 120.695912 
z
" clip-path="url(#p01b15baba2)" style="fill: #1f77b4; stroke: #ffffff; stroke-width: 0.8; stroke-linejoin: miter"/>
   </g>
   <g id="patch_62">
    <path d="M 388.375339 121.604125 
L 394.007379 121.604125 
L 394.007379 121.064106 
L 388.375339 121.064106 
z
" clip-path="url(#p01b15baba2)" style="fill: #1f77b4; stroke: #ffffff; stroke-width: 0.8; stroke-linejoin: miter"/>
   </g>
   <g id="patch_63">
    <path d="M 394.007379 121.604125 
L 399.639419 121.604125 
L 399.639419 121.383208 
L 394.007379 121.383208 
z
" clip-path="url(#p01b15baba2)" style="fill: #1f77b4; stroke: #ffffff; stroke-width: 0.8; stroke-linejoin: miter"/>
   </g>
   <g id="patch_64">
    <path d="M 399.639419 121.604125 
L 405.271458 121.604125 
L 405.271458 121.50594 
L 399.639419 121.50594 
z
" clip-path="url(#p01b15baba2)" style="fill: #1f77b4; stroke: #ffffff; stroke-width: 0.8; stroke-linejoin: miter"/>
   </g>
   <g id="patch_65">
    <path d="M 405.271458 121.604125 
L 410.903498 121.604125 
L 410.903498 121.579579 
L 405.271458 121.579579 
z
" clip-path="url(#p01b15baba2)" style="fill: #1f77b4; stroke: #ffffff; stroke-width: 0.8; stroke-linejoin: miter"/>
   </g>
   <g id="patch_66">
    <path d="M 410.903498 121.604125 
L 416.535538 121.604125 
L 416.535538 121.579579 
L 410.903498 121.579579 
z
" clip-path="url(#p01b15baba2)" style="fill: #1f77b4; stroke: #ffffff; stroke-width: 0.8; stroke-linejoin: miter"/>
   </g>
   <g id="patch_67">
    <path d="M 299.63678 121.604125 
L 365.834437 121.604125 
" style="fill: none; stroke: #262626; stroke-linejoin: miter; stroke-linecap: square"/>
   </g>
   <g id="text_11">
    <!-- max_acceleration_m_per_s2 -->
    <g style="fill: #262626" transform="translate(298.586141 42.639) scale(0.096 -0.096)">
     <defs>
      <path id="ArialMT-78" d="M 47 0 
L 1259 1725 
L 138 3319 
L 841 3319 
L 1350 2541 
Q 1494 2319 1581 2169 
Q 1719 2375 1834 2534 
L 2394 3319 
L 3066 3319 
L 1919 1756 
L 3153 0 
L 2463 0 
L 1781 1031 
L 1600 1309 
L 728 0 
L 47 0 
z
" transform="scale(0.015625)"/>
      <path id="ArialMT-72" d="M 416 0 
L 416 3319 
L 922 3319 
L 922 2816 
Q 1116 3169 1280 3281 
Q 1444 3394 1641 3394 
Q 1925 3394 2219 3213 
L 2025 2691 
Q 1819 2813 1613 2813 
Q 1428 2813 1281 2702 
Q 1134 2591 1072 2394 
Q 978 2094 978 1738 
L 978 0 
L 416 0 
z
" transform="scale(0.015625)"/>
      <path id="ArialMT-32" d="M 3222 541 
L 3222 0 
L 194 0 
Q 188 203 259 391 
Q 375 700 629 1000 
Q 884 1300 1366 1694 
Q 2113 2306 2375 2664 
Q 2638 3022 2638 3341 
Q 2638 3675 2398 3904 
Q 2159 4134 1775 4134 
Q 1369 4134 1125 3890 
Q 881 3647 878 3216 
L 300 3275 
Q 359 3922 746 4261 
Q 1134 4600 1788 4600 
Q 2447 4600 2831 4234 
Q 3216 3869 3216 3328 
Q 3216 3053 3103 2787 
Q 2991 2522 2730 2228 
Q 2469 1934 1863 1422 
Q 1356 997 1212 845 
Q 1069 694 975 541 
L 3222 541 
z
" transform="scale(0.015625)"/>
     </defs>
     <use xlink:href="#ArialMT-6d"/>
     <use xlink:href="#ArialMT-61" x="83.300781"/>
     <use xlink:href="#ArialMT-78" x="138.916016"/>
     <use xlink:href="#ArialMT-5f" x="188.916016"/>
     <use xlink:href="#ArialMT-61" x="244.53125"/>
     <use xlink:href="#ArialMT-63" x="300.146484"/>
     <use xlink:href="#ArialMT-63" x="350.146484"/>
     <use xlink:href="#ArialMT-65" x="400.146484"/>
     <use xlink:href="#ArialMT-6c" x="455.761719"/>
     <use xlink:href="#ArialMT-65" x="477.978516"/>
     <use xlink:href="#ArialMT-72" x="533.59375"/>
     <use xlink:href="#ArialMT-61" x="566.894531"/>
     <use xlink:href="#ArialMT-74" x="622.509766"/>
     <use xlink:href="#ArialMT-69" x="650.292969"/>
     <use xlink:href="#ArialMT-6f" x="672.509766"/>
     <use xlink:href="#ArialMT-6e" x="728.125"/>
     <use xlink:href="#ArialMT-5f" x="783.740234"/>
     <use xlink:href="#ArialMT-6d" x="839.355469"/>
     <use xlink:href="#ArialMT-5f" x="922.65625"/>
     <use xlink:href="#ArialMT-70" x="978.271484"/>
     <use xlink:href="#ArialMT-65" x="1033.886719"/>
     <use xlink:href="#ArialMT-72" x="1089.501953"/>
     <use xlink:href="#ArialMT-5f" x="1122.802734"/>
     <use xlink:href="#ArialMT-73" x="1178.417969"/>
     <use xlink:href="#ArialMT-32" x="1228.417969"/>
    </g>
   </g>
  </g>
  <g id="axes_4">
   <g id="patch_68">
    <path d="M 438.554358 121.604125 
L 562.459231 121.604125 
L 562.459231 48.639 
L 438.554358 48.639 
z
" style="fill: #ffffff"/>
   </g>
   <g id="matplotlib.axis_7">
    <g id="xtick_9">
     <g id="line2d_9">
      <g>
       <use xlink:href="#md3c667cdf3" x="444.826053" y="121.604125" style="fill: #262626; stroke: #262626"/>
      </g>
     </g>
     <g id="text_12">
      <!-- 30000 -->
      <g style="fill: #262626" transform="translate(432.591991 136.203) scale(0.088 -0.088)">
       <defs>
        <path id="ArialMT-33" d="M 269 1209 
L 831 1284 
Q 928 806 1161 595 
Q 1394 384 1728 384 
Q 2125 384 2398 659 
Q 2672 934 2672 1341 
Q 2672 1728 2419 1979 
Q 2166 2231 1775 2231 
Q 1616 2231 1378 2169 
L 1441 2663 
Q 1497 2656 1531 2656 
Q 1891 2656 2178 2843 
Q 2466 3031 2466 3422 
Q 2466 3731 2256 3934 
Q 2047 4138 1716 4138 
Q 1388 4138 1169 3931 
Q 950 3725 888 3313 
L 325 3413 
Q 428 3978 793 4289 
Q 1159 4600 1703 4600 
Q 2078 4600 2393 4439 
Q 2709 4278 2876 4000 
Q 3044 3722 3044 3409 
Q 3044 3113 2884 2869 
Q 2725 2625 2413 2481 
Q 2819 2388 3044 2092 
Q 3269 1797 3269 1353 
Q 3269 753 2831 336 
Q 2394 -81 1725 -81 
Q 1122 -81 723 278 
Q 325 638 269 1209 
z
" transform="scale(0.015625)"/>
       </defs>
       <use xlink:href="#ArialMT-33"/>
       <use xlink:href="#ArialMT-30" x="55.615234"/>
       <use xlink:href="#ArialMT-30" x="111.230469"/>
       <use xlink:href="#ArialMT-30" x="166.845703"/>
       <use xlink:href="#ArialMT-30" x="222.460938"/>
      </g>
     </g>
    </g>
    <g id="xtick_10">
     <g id="line2d_10">
      <g>
       <use xlink:href="#md3c667cdf3" x="504.316022" y="121.604125" style="fill: #262626; stroke: #262626"/>
      </g>
     </g>
     <g id="text_13">
      <!-- 40000 -->
      <g style="fill: #262626" transform="translate(492.081959 136.203) scale(0.088 -0.088)">
       <defs>
        <path id="ArialMT-34" d="M 2069 0 
L 2069 1097 
L 81 1097 
L 81 1613 
L 2172 4581 
L 2631 4581 
L 2631 1613 
L 3250 1613 
L 3250 1097 
L 2631 1097 
L 2631 0 
L 2069 0 
z
M 2069 1613 
L 2069 3678 
L 634 1613 
L 2069 1613 
z
" transform="scale(0.015625)"/>
       </defs>
       <use xlink:href="#ArialMT-34"/>
       <use xlink:href="#ArialMT-30" x="55.615234"/>
       <use xlink:href="#ArialMT-30" x="111.230469"/>
       <use xlink:href="#ArialMT-30" x="166.845703"/>
       <use xlink:href="#ArialMT-30" x="222.460938"/>
      </g>
     </g>
    </g>
   </g>
   <g id="matplotlib.axis_8"/>
   <g id="patch_69">
    <path d="M 444.186398 121.604125 
L 449.818438 121.604125 
L 449.818438 120.254078 
L 444.186398 120.254078 
z
" clip-path="url(#pea2ea876c6)" style="fill: #1f77b4; stroke: #ffffff; stroke-width: 0.8; stroke-linejoin: miter"/>
   </g>
   <g id="patch_70">
    <path d="M 449.818438 121.604125 
L 455.450477 121.604125 
L 455.450477 114.313872 
L 449.818438 114.313872 
z
" clip-path="url(#pea2ea876c6)" style="fill: #1f77b4; stroke: #ffffff; stroke-width: 0.8; stroke-linejoin: miter"/>
   </g>
   <g id="patch_71">
    <path d="M 455.450477 121.604125 
L 461.082517 121.604125 
L 461.082517 109.527342 
L 455.450477 109.527342 
z
" clip-path="url(#pea2ea876c6)" style="fill: #1f77b4; stroke: #ffffff; stroke-width: 0.8; stroke-linejoin: miter"/>
   </g>
   <g id="patch_72">
    <path d="M 461.082517 121.604125 
L 466.714557 121.604125 
L 466.714557 109.380064 
L 461.082517 109.380064 
z
" clip-path="url(#pea2ea876c6)" style="fill: #1f77b4; stroke: #ffffff; stroke-width: 0.8; stroke-linejoin: miter"/>
   </g>
   <g id="patch_73">
    <path d="M 466.714557 121.604125 
L 472.346596 121.604125 
L 472.346596 109.576435 
L 466.714557 109.576435 
z
" clip-path="url(#pea2ea876c6)" style="fill: #1f77b4; stroke: #ffffff; stroke-width: 0.8; stroke-linejoin: miter"/>
   </g>
   <g id="patch_74">
    <path d="M 472.346596 121.604125 
L 477.978636 121.604125 
L 477.978636 108.422758 
L 472.346596 108.422758 
z
" clip-path="url(#pea2ea876c6)" style="fill: #1f77b4; stroke: #ffffff; stroke-width: 0.8; stroke-linejoin: miter"/>
   </g>
   <g id="patch_75">
    <path d="M 477.978636 121.604125 
L 483.610676 121.604125 
L 483.610676 108.226388 
L 477.978636 108.226388 
z
" clip-path="url(#pea2ea876c6)" style="fill: #1f77b4; stroke: #ffffff; stroke-width: 0.8; stroke-linejoin: miter"/>
   </g>
   <g id="patch_76">
    <path d="M 483.610676 121.604125 
L 489.242715 121.604125 
L 489.242715 106.385415 
L 483.610676 106.385415 
z
" clip-path="url(#pea2ea876c6)" style="fill: #1f77b4; stroke: #ffffff; stroke-width: 0.8; stroke-linejoin: miter"/>
   </g>
   <g id="patch_77">
    <path d="M 489.242715 121.604125 
L 494.874755 121.604125 
L 494.874755 106.704517 
L 489.242715 106.704517 
z
" clip-path="url(#pea2ea876c6)" style="fill: #1f77b4; stroke: #ffffff; stroke-width: 0.8; stroke-linejoin: miter"/>
   </g>
   <g id="patch_78">
    <path d="M 494.874755 121.604125 
L 500.506795 121.604125 
L 500.506795 106.876341 
L 494.874755 106.876341 
z
" clip-path="url(#pea2ea876c6)" style="fill: #1f77b4; stroke: #ffffff; stroke-width: 0.8; stroke-linejoin: miter"/>
   </g>
   <g id="patch_79">
    <path d="M 500.506795 121.604125 
L 506.138834 121.604125 
L 506.138834 104.544442 
L 500.506795 104.544442 
z
" clip-path="url(#pea2ea876c6)" style="fill: #1f77b4; stroke: #ffffff; stroke-width: 0.8; stroke-linejoin: miter"/>
   </g>
   <g id="patch_80">
    <path d="M 506.138834 121.604125 
L 511.770874 121.604125 
L 511.770874 105.329923 
L 506.138834 105.329923 
z
" clip-path="url(#pea2ea876c6)" style="fill: #1f77b4; stroke: #ffffff; stroke-width: 0.8; stroke-linejoin: miter"/>
   </g>
   <g id="patch_81">
    <path d="M 511.770874 121.604125 
L 517.402913 121.604125 
L 517.402913 103.709867 
L 511.770874 103.709867 
z
" clip-path="url(#pea2ea876c6)" style="fill: #1f77b4; stroke: #ffffff; stroke-width: 0.8; stroke-linejoin: miter"/>
   </g>
   <g id="patch_82">
    <path d="M 517.402913 121.604125 
L 523.034953 121.604125 
L 523.034953 103.366219 
L 517.402913 103.366219 
z
" clip-path="url(#pea2ea876c6)" style="fill: #1f77b4; stroke: #ffffff; stroke-width: 0.8; stroke-linejoin: miter"/>
   </g>
   <g id="patch_83">
    <path d="M 523.034953 121.604125 
L 528.666993 121.604125 
L 528.666993 103.808052 
L 523.034953 103.808052 
z
" clip-path="url(#pea2ea876c6)" style="fill: #1f77b4; stroke: #ffffff; stroke-width: 0.8; stroke-linejoin: miter"/>
   </g>
   <g id="patch_84">
    <path d="M 528.666993 121.604125 
L 534.299032 121.604125 
L 534.299032 104.765358 
L 528.666993 104.765358 
z
" clip-path="url(#pea2ea876c6)" style="fill: #1f77b4; stroke: #ffffff; stroke-width: 0.8; stroke-linejoin: miter"/>
   </g>
   <g id="patch_85">
    <path d="M 534.299032 121.604125 
L 539.931072 121.604125 
L 539.931072 108.324573 
L 534.299032 108.324573 
z
" clip-path="url(#pea2ea876c6)" style="fill: #1f77b4; stroke: #ffffff; stroke-width: 0.8; stroke-linejoin: miter"/>
   </g>
   <g id="patch_86">
    <path d="M 539.931072 121.604125 
L 545.563112 121.604125 
L 545.563112 113.602029 
L 539.931072 113.602029 
z
" clip-path="url(#pea2ea876c6)" style="fill: #1f77b4; stroke: #ffffff; stroke-width: 0.8; stroke-linejoin: miter"/>
   </g>
   <g id="patch_87">
    <path d="M 545.563112 121.604125 
L 551.195151 121.604125 
L 551.195151 118.167642 
L 545.563112 118.167642 
z
" clip-path="url(#pea2ea876c6)" style="fill: #1f77b4; stroke: #ffffff; stroke-width: 0.8; stroke-linejoin: miter"/>
   </g>
   <g id="patch_88">
    <path d="M 551.195151 121.604125 
L 556.827191 121.604125 
L 556.827191 121.334116 
L 551.195151 121.334116 
z
" clip-path="url(#pea2ea876c6)" style="fill: #1f77b4; stroke: #ffffff; stroke-width: 0.8; stroke-linejoin: miter"/>
   </g>
   <g id="patch_89">
    <path d="M 444.826053 121.604125 
L 504.316022 121.604125 
" style="fill: none; stroke: #262626; stroke-linejoin: miter; stroke-linecap: square"/>
   </g>
   <g id="text_14">
    <!-- max_deceleration_m_per_s2 -->
    <g style="fill: #262626" transform="translate(438.608545 42.639) scale(0.096 -0.096)">
     <use xlink:href="#ArialMT-6d"/>
     <use xlink:href="#ArialMT-61" x="83.300781"/>
     <use xlink:href="#ArialMT-78" x="138.916016"/>
     <use xlink:href="#ArialMT-5f" x="188.916016"/>
     <use xlink:href="#ArialMT-64" x="244.53125"/>
     <use xlink:href="#ArialMT-65" x="300.146484"/>
     <use xlink:href="#ArialMT-63" x="355.761719"/>
     <use xlink:href="#ArialMT-65" x="405.761719"/>
     <use xlink:href="#ArialMT-6c" x="461.376953"/>
     <use xlink:href="#ArialMT-65" x="483.59375"/>
     <use xlink:href="#ArialMT-72" x="539.208984"/>
     <use xlink:href="#ArialMT-61" x="572.509766"/>
     <use xlink:href="#ArialMT-74" x="628.125"/>
     <use xlink:href="#ArialMT-69" x="655.908203"/>
     <use xlink:href="#ArialMT-6f" x="678.125"/>
     <use xlink:href="#ArialMT-6e" x="733.740234"/>
     <use xlink:href="#ArialMT-5f" x="789.355469"/>
     <use xlink:href="#ArialMT-6d" x="844.970703"/>
     <use xlink:href="#ArialMT-5f" x="928.271484"/>
     <use xlink:href="#ArialMT-70" x="983.886719"/>
     <use xlink:href="#ArialMT-65" x="1039.501953"/>
     <use xlink:href="#ArialMT-72" x="1095.117188"/>
     <use xlink:href="#ArialMT-5f" x="1128.417969"/>
     <use xlink:href="#ArialMT-73" x="1184.033203"/>
     <use xlink:href="#ArialMT-32" x="1234.033203"/>
    </g>
   </g>
  </g>
  <g id="text_15">
   <!-- Output data -->
   <g style="fill: #262626" transform="translate(254.727631 15.5934) scale(0.1152 -0.1152)">
    <defs>
     <path id="ArialMT-4f" d="M 309 2231 
Q 309 3372 921 4017 
Q 1534 4663 2503 4663 
Q 3138 4663 3647 4359 
Q 4156 4056 4423 3514 
Q 4691 2972 4691 2284 
Q 4691 1588 4409 1038 
Q 4128 488 3612 205 
Q 3097 -78 2500 -78 
Q 1853 -78 1343 234 
Q 834 547 571 1087 
Q 309 1628 309 2231 
z
M 934 2222 
Q 934 1394 1379 917 
Q 1825 441 2497 441 
Q 3181 441 3623 922 
Q 4066 1403 4066 2288 
Q 4066 2847 3877 3264 
Q 3688 3681 3323 3911 
Q 2959 4141 2506 4141 
Q 1863 4141 1398 3698 
Q 934 3256 934 2222 
z
" transform="scale(0.015625)"/>
     <path id="ArialMT-75" d="M 2597 0 
L 2597 488 
Q 2209 -75 1544 -75 
Q 1250 -75 995 37 
Q 741 150 617 320 
Q 494 491 444 738 
Q 409 903 409 1263 
L 409 3319 
L 972 3319 
L 972 1478 
Q 972 1038 1006 884 
Q 1059 663 1231 536 
Q 1403 409 1656 409 
Q 1909 409 2131 539 
Q 2353 669 2445 892 
Q 2538 1116 2538 1541 
L 2538 3319 
L 3100 3319 
L 3100 0 
L 2597 0 
z
" transform="scale(0.015625)"/>
     <path id="ArialMT-20" transform="scale(0.015625)"/>
    </defs>
    <use xlink:href="#ArialMT-4f"/>
    <use xlink:href="#ArialMT-75" x="77.783203"/>
    <use xlink:href="#ArialMT-74" x="133.398438"/>
    <use xlink:href="#ArialMT-70" x="161.181641"/>
    <use xlink:href="#ArialMT-75" x="216.796875"/>
    <use xlink:href="#ArialMT-74" x="272.412109"/>
    <use xlink:href="#ArialMT-20" x="300.195312"/>
    <use xlink:href="#ArialMT-64" x="327.978516"/>
    <use xlink:href="#ArialMT-61" x="383.59375"/>
    <use xlink:href="#ArialMT-74" x="439.208984"/>
    <use xlink:href="#ArialMT-61" x="466.992188"/>
   </g>
  </g>
 </g>
 <defs>
  <clipPath id="p5c3c4598b0">
   <rect x="17.679398" y="48.639" width="123.904872" height="72.965125"/>
  </clipPath>
  <clipPath id="p4c3fa860a2">
   <rect x="157.971051" y="48.639" width="123.904872" height="72.965125"/>
  </clipPath>
  <clipPath id="p01b15baba2">
   <rect x="298.262705" y="48.639" width="123.904872" height="72.965125"/>
  </clipPath>
  <clipPath id="pea2ea876c6">
   <rect x="438.554358" y="48.639" width="123.904872" height="72.965125"/>
  </clipPath>
 </defs>
</svg>