<?xml version="1.0" encoding="utf-8" standalone="no"?>
<!DOCTYPE svg PUBLIC "-//W3C//DTD SVG 1.1//EN"
  "http://www.w3.org/Graphics/SVG/1.1/DTD/svg11.dtd">
<svg xmlns:xlink="http://www.w3.org/1999/xlink" width="410.50375pt" height="309.639375pt" viewBox="0 0 410.50375 309.639375" xmlns="http://www.w3.org/2000/svg" version="1.1">
 <metadata>
  <rdf:RDF xmlns:dc="http://purl.org/dc/elements/1.1/" xmlns:cc="http://creativecommons.org/ns#" xmlns:rdf="http://www.w3.org/1999/02/22-rdf-syntax-ns#">
   <cc:Work>
    <dc:type rdf:resource="http://purl.org/dc/dcmitype/StillImage"/>
    <dc:date>2024-10-23T11:16:14.508578</dc:date>
    <dc:format>image/svg+xml</dc:format>
    <dc:creator>
     <cc:Agent>
      <dc:title>Matplotlib v3.9.2, https://matplotlib.org/</dc:title>
     </cc:Agent>
    </dc:creator>
   </cc:Work>
  </rdf:RDF>
 </metadata>
 <defs>
  <style type="text/css">*{stroke-linejoin: round; stroke-linecap: butt}</style>
 </defs>
 <g id="figure_1">
  <g id="patch_1">
   <path d="M 0 309.639375 
L 410.50375 309.639375 
L 410.50375 0 
L 0 0 
z
" style="fill: #ffffff"/>
  </g>
  <g id="axes_1">
   <g id="patch_2">
    <path d="M 46.18375 273.312 
L 403.30375 273.312 
L 403.30375 7.2 
L 46.18375 7.2 
z
" style="fill: #ffffff"/>
   </g>
   <g id="matplotlib.axis_1">
    <g id="xtick_1">
     <g id="line2d_1">
      <defs>
       <path id="m54f0e4a697" d="M 0 0 
L 0 4.8 
" style="stroke: #262626"/>
      </defs>
      <g>
       <use xlink:href="#m54f0e4a697" x="62.416477" y="273.312" style="fill: #262626; stroke: #262626"/>
      </g>
     </g>
     <g id="text_1">
      <!-- 0.0 -->
      <g style="fill: #262626" transform="translate(56.300477 287.910875) scale(0.088 -0.088)">
       <defs>
        <path id="ArialMT-30" d="M 266 2259 
Q 266 3072 433 3567 
Q 600 4063 929 4331 
Q 1259 4600 1759 4600 
Q 2128 4600 2406 4451 
Q 2684 4303 2865 4023 
Q 3047 3744 3150 3342 
Q 3253 2941 3253 2259 
Q 3253 1453 3087 958 
Q 2922 463 2592 192 
Q 2263 -78 1759 -78 
Q 1097 -78 719 397 
Q 266 969 266 2259 
z
M 844 2259 
Q 844 1131 1108 757 
Q 1372 384 1759 384 
Q 2147 384 2411 759 
Q 2675 1134 2675 2259 
Q 2675 3391 2411 3762 
Q 2147 4134 1753 4134 
Q 1366 4134 1134 3806 
Q 844 3388 844 2259 
z
" transform="scale(0.015625)"/>
        <path id="ArialMT-2e" d="M 581 0 
L 581 641 
L 1222 641 
L 1222 0 
L 581 0 
z
" transform="scale(0.015625)"/>
       </defs>
       <use xlink:href="#ArialMT-30"/>
       <use xlink:href="#ArialMT-2e" x="55.615234"/>
       <use xlink:href="#ArialMT-30" x="83.398438"/>
      </g>
     </g>
    </g>
    <g id="xtick_2">
     <g id="line2d_2">
      <g>
       <use xlink:href="#m54f0e4a697" x="127.347386" y="273.312" style="fill: #262626; stroke: #262626"/>
      </g>
     </g>
     <g id="text_2">
      <!-- 0.2 -->
      <g style="fill: #262626" transform="translate(121.231386 287.910875) scale(0.088 -0.088)">
       <defs>
        <path id="ArialMT-32" d="M 3222 541 
L 3222 0 
L 194 0 
Q 188 203 259 391 
Q 375 700 629 1000 
Q 884 1300 1366 1694 
Q 2113 2306 2375 2664 
Q 2638 3022 2638 3341 
Q 2638 3675 2398 3904 
Q 2159 4134 1775 4134 
Q 1369 4134 1125 3890 
Q 881 3647 878 3216 
L 300 3275 
Q 359 3922 746 4261 
Q 1134 4600 1788 4600 
Q 2447 4600 2831 4234 
Q 3216 3869 3216 3328 
Q 3216 3053 3103 2787 
Q 2991 2522 2730 2228 
Q 2469 1934 1863 1422 
Q 1356 997 1212 845 
Q 1069 694 975 541 
L 3222 541 
z
" transform="scale(0.015625)"/>
       </defs>
       <use xlink:href="#ArialMT-30"/>
       <use xlink:href="#ArialMT-2e" x="55.615234"/>
       <use xlink:href="#ArialMT-32" x="83.398438"/>
      </g>
     </g>
    </g>
    <g id="xtick_3">
     <g id="line2d_3">
      <g>
       <use xlink:href="#m54f0e4a697" x="192.278295" y="273.312" style="fill: #262626; stroke: #262626"/>
      </g>
     </g>
     <g id="text_3">
      <!-- 0.4 -->
      <g style="fill: #262626" transform="translate(186.162295 287.910875) scale(0.088 -0.088)">
       <defs>
        <path id="ArialMT-34" d="M 2069 0 
L 2069 1097 
L 81 1097 
L 81 1613 
L 2172 4581 
L 2631 4581 
L 2631 1613 
L 3250 1613 
L 3250 1097 
L 2631 1097 
L 2631 0 
L 2069 0 
z
M 2069 1613 
L 2069 3678 
L 634 1613 
L 2069 1613 
z
" transform="scale(0.015625)"/>
       </defs>
       <use xlink:href="#ArialMT-30"/>
       <use xlink:href="#ArialMT-2e" x="55.615234"/>
       <use xlink:href="#ArialMT-34" x="83.398438"/>
      </g>
     </g>
    </g>
    <g id="xtick_4">
     <g id="line2d_4">
      <g>
       <use xlink:href="#m54f0e4a697" x="257.209205" y="273.312" style="fill: #262626; stroke: #262626"/>
      </g>
     </g>
     <g id="text_4">
      <!-- 0.6 -->
      <g style="fill: #262626" transform="translate(251.093205 287.910875) scale(0.088 -0.088)">
       <defs>
        <path id="ArialMT-36" d="M 3184 3459 
L 2625 3416 
Q 2550 3747 2413 3897 
Q 2184 4138 1850 4138 
Q 1581 4138 1378 3988 
Q 1113 3794 959 3422 
Q 806 3050 800 2363 
Q 1003 2672 1297 2822 
Q 1591 2972 1913 2972 
Q 2475 2972 2870 2558 
Q 3266 2144 3266 1488 
Q 3266 1056 3080 686 
Q 2894 316 2569 119 
Q 2244 -78 1831 -78 
Q 1128 -78 684 439 
Q 241 956 241 2144 
Q 241 3472 731 4075 
Q 1159 4600 1884 4600 
Q 2425 4600 2770 4297 
Q 3116 3994 3184 3459 
z
M 888 1484 
Q 888 1194 1011 928 
Q 1134 663 1356 523 
Q 1578 384 1822 384 
Q 2178 384 2434 671 
Q 2691 959 2691 1453 
Q 2691 1928 2437 2201 
Q 2184 2475 1800 2475 
Q 1419 2475 1153 2201 
Q 888 1928 888 1484 
z
" transform="scale(0.015625)"/>
       </defs>
       <use xlink:href="#ArialMT-30"/>
       <use xlink:href="#ArialMT-2e" x="55.615234"/>
       <use xlink:href="#ArialMT-36" x="83.398438"/>
      </g>
     </g>
    </g>
    <g id="xtick_5">
     <g id="line2d_5">
      <g>
       <use xlink:href="#m54f0e4a697" x="322.140114" y="273.312" style="fill: #262626; stroke: #262626"/>
      </g>
     </g>
     <g id="text_5">
      <!-- 0.8 -->
      <g style="fill: #262626" transform="translate(316.024114 287.910875) scale(0.088 -0.088)">
       <defs>
        <path id="ArialMT-38" d="M 1131 2484 
Q 781 2613 612 2850 
Q 444 3088 444 3419 
Q 444 3919 803 4259 
Q 1163 4600 1759 4600 
Q 2359 4600 2725 4251 
Q 3091 3903 3091 3403 
Q 3091 3084 2923 2848 
Q 2756 2613 2416 2484 
Q 2838 2347 3058 2040 
Q 3278 1734 3278 1309 
Q 3278 722 2862 322 
Q 2447 -78 1769 -78 
Q 1091 -78 675 323 
Q 259 725 259 1325 
Q 259 1772 486 2073 
Q 713 2375 1131 2484 
z
M 1019 3438 
Q 1019 3113 1228 2906 
Q 1438 2700 1772 2700 
Q 2097 2700 2305 2904 
Q 2513 3109 2513 3406 
Q 2513 3716 2298 3927 
Q 2084 4138 1766 4138 
Q 1444 4138 1231 3931 
Q 1019 3725 1019 3438 
z
M 838 1322 
Q 838 1081 952 856 
Q 1066 631 1291 507 
Q 1516 384 1775 384 
Q 2178 384 2440 643 
Q 2703 903 2703 1303 
Q 2703 1709 2433 1975 
Q 2163 2241 1756 2241 
Q 1359 2241 1098 1978 
Q 838 1716 838 1322 
z
" transform="scale(0.015625)"/>
       </defs>
       <use xlink:href="#ArialMT-30"/>
       <use xlink:href="#ArialMT-2e" x="55.615234"/>
       <use xlink:href="#ArialMT-38" x="83.398438"/>
      </g>
     </g>
    </g>
    <g id="xtick_6">
     <g id="line2d_6">
      <g>
       <use xlink:href="#m54f0e4a697" x="387.071023" y="273.312" style="fill: #262626; stroke: #262626"/>
      </g>
     </g>
     <g id="text_6">
      <!-- 1.0 -->
      <g style="fill: #262626" transform="translate(380.955023 287.910875) scale(0.088 -0.088)">
       <defs>
        <path id="ArialMT-31" d="M 2384 0 
L 1822 0 
L 1822 3584 
Q 1619 3391 1289 3197 
Q 959 3003 697 2906 
L 697 3450 
Q 1169 3672 1522 3987 
Q 1875 4303 2022 4600 
L 2384 4600 
L 2384 0 
z
" transform="scale(0.015625)"/>
       </defs>
       <use xlink:href="#ArialMT-31"/>
       <use xlink:href="#ArialMT-2e" x="55.615234"/>
       <use xlink:href="#ArialMT-30" x="83.398438"/>
      </g>
     </g>
    </g>
    <g id="text_7">
     <!-- $x$ -->
     <g style="fill: #262626" transform="translate(221.86375 300.531375) scale(0.096 -0.096)">
      <defs>
       <path id="DejaVuSans-Oblique-78" d="M 3841 3500 
L 2234 1784 
L 3219 0 
L 2559 0 
L 1819 1388 
L 531 0 
L -166 0 
L 1556 1844 
L 641 3500 
L 1300 3500 
L 1972 2234 
L 3144 3500 
L 3841 3500 
z
" transform="scale(0.015625)"/>
      </defs>
      <use xlink:href="#DejaVuSans-Oblique-78" transform="translate(0 0.3125)"/>
     </g>
    </g>
   </g>
   <g id="matplotlib.axis_2">
    <g id="ytick_1">
     <g id="line2d_7">
      <defs>
       <path id="mc1953b9ba9" d="M 0 0 
L -4.8 0 
" style="stroke: #262626"/>
      </defs>
      <g>
       <use xlink:href="#mc1953b9ba9" x="46.18375" y="245.791205" style="fill: #262626; stroke: #262626"/>
      </g>
     </g>
     <g id="text_8">
      <!-- −1.5 -->
      <g style="fill: #262626" transform="translate(20.512 248.940643) scale(0.088 -0.088)">
       <defs>
        <path id="ArialMT-2212" d="M 3381 1997 
L 356 1997 
L 356 2522 
L 3381 2522 
L 3381 1997 
z
" transform="scale(0.015625)"/>
        <path id="ArialMT-35" d="M 266 1200 
L 856 1250 
Q 922 819 1161 601 
Q 1400 384 1738 384 
Q 2144 384 2425 690 
Q 2706 997 2706 1503 
Q 2706 1984 2436 2262 
Q 2166 2541 1728 2541 
Q 1456 2541 1237 2417 
Q 1019 2294 894 2097 
L 366 2166 
L 809 4519 
L 3088 4519 
L 3088 3981 
L 1259 3981 
L 1013 2750 
Q 1425 3038 1878 3038 
Q 2478 3038 2890 2622 
Q 3303 2206 3303 1553 
Q 3303 931 2941 478 
Q 2500 -78 1738 -78 
Q 1113 -78 717 272 
Q 322 622 266 1200 
z
" transform="scale(0.015625)"/>
       </defs>
       <use xlink:href="#ArialMT-2212"/>
       <use xlink:href="#ArialMT-31" x="58.398438"/>
       <use xlink:href="#ArialMT-2e" x="114.013672"/>
       <use xlink:href="#ArialMT-35" x="141.796875"/>
      </g>
     </g>
    </g>
    <g id="ytick_2">
     <g id="line2d_8">
      <g>
       <use xlink:href="#mc1953b9ba9" x="46.18375" y="213.874064" style="fill: #262626; stroke: #262626"/>
      </g>
     </g>
     <g id="text_9">
      <!-- −1.0 -->
      <g style="fill: #262626" transform="translate(20.512 217.023502) scale(0.088 -0.088)">
       <use xlink:href="#ArialMT-2212"/>
       <use xlink:href="#ArialMT-31" x="58.398438"/>
       <use xlink:href="#ArialMT-2e" x="114.013672"/>
       <use xlink:href="#ArialMT-30" x="141.796875"/>
      </g>
     </g>
    </g>
    <g id="ytick_3">
     <g id="line2d_9">
      <g>
       <use xlink:href="#mc1953b9ba9" x="46.18375" y="181.956923" style="fill: #262626; stroke: #262626"/>
      </g>
     </g>
     <g id="text_10">
      <!-- −0.5 -->
      <g style="fill: #262626" transform="translate(20.512 185.106361) scale(0.088 -0.088)">
       <use xlink:href="#ArialMT-2212"/>
       <use xlink:href="#ArialMT-30" x="58.398438"/>
       <use xlink:href="#ArialMT-2e" x="114.013672"/>
       <use xlink:href="#ArialMT-35" x="141.796875"/>
      </g>
     </g>
    </g>
    <g id="ytick_4">
     <g id="line2d_10">
      <g>
       <use xlink:href="#mc1953b9ba9" x="46.18375" y="150.039782" style="fill: #262626; stroke: #262626"/>
      </g>
     </g>
     <g id="text_11">
      <!-- 0.0 -->
      <g style="fill: #262626" transform="translate(25.65175 153.18922) scale(0.088 -0.088)">
       <use xlink:href="#ArialMT-30"/>
       <use xlink:href="#ArialMT-2e" x="55.615234"/>
       <use xlink:href="#ArialMT-30" x="83.398438"/>
      </g>
     </g>
    </g>
    <g id="ytick_5">
     <g id="line2d_11">
      <g>
       <use xlink:href="#mc1953b9ba9" x="46.18375" y="118.122641" style="fill: #262626; stroke: #262626"/>
      </g>
     </g>
     <g id="text_12">
      <!-- 0.5 -->
      <g style="fill: #262626" transform="translate(25.65175 121.272079) scale(0.088 -0.088)">
       <use xlink:href="#ArialMT-30"/>
       <use xlink:href="#ArialMT-2e" x="55.615234"/>
       <use xlink:href="#ArialMT-35" x="83.398438"/>
      </g>
     </g>
    </g>
    <g id="ytick_6">
     <g id="line2d_12">
      <g>
       <use xlink:href="#mc1953b9ba9" x="46.18375" y="86.2055" style="fill: #262626; stroke: #262626"/>
      </g>
     </g>
     <g id="text_13">
      <!-- 1.0 -->
      <g style="fill: #262626" transform="translate(25.65175 89.354938) scale(0.088 -0.088)">
       <use xlink:href="#ArialMT-31"/>
       <use xlink:href="#ArialMT-2e" x="55.615234"/>
       <use xlink:href="#ArialMT-30" x="83.398438"/>
      </g>
     </g>
    </g>
    <g id="ytick_7">
     <g id="line2d_13">
      <g>
       <use xlink:href="#mc1953b9ba9" x="46.18375" y="54.288359" style="fill: #262626; stroke: #262626"/>
      </g>
     </g>
     <g id="text_14">
      <!-- 1.5 -->
      <g style="fill: #262626" transform="translate(25.65175 57.437797) scale(0.088 -0.088)">
       <use xlink:href="#ArialMT-31"/>
       <use xlink:href="#ArialMT-2e" x="55.615234"/>
       <use xlink:href="#ArialMT-35" x="83.398438"/>
      </g>
     </g>
    </g>
    <g id="ytick_8">
     <g id="line2d_14">
      <g>
       <use xlink:href="#mc1953b9ba9" x="46.18375" y="22.371218" style="fill: #262626; stroke: #262626"/>
      </g>
     </g>
     <g id="text_15">
      <!-- 2.0 -->
      <g style="fill: #262626" transform="translate(25.65175 25.520656) scale(0.088 -0.088)">
       <use xlink:href="#ArialMT-32"/>
       <use xlink:href="#ArialMT-2e" x="55.615234"/>
       <use xlink:href="#ArialMT-30" x="83.398438"/>
      </g>
     </g>
    </g>
    <g id="text_16">
     <!-- $\phi_i(x)$ -->
     <g style="fill: #262626" transform="translate(14.496 151.104) rotate(-90) scale(0.096 -0.096)">
      <defs>
       <path id="DejaVuSans-Oblique-3d5" d="M 2991 4863 
L 2738 3572 
Q 3363 3572 3684 3094 
Q 4016 2606 3850 1747 
Q 3681 888 3159 400 
Q 2653 -78 2028 -78 
L 1784 -1331 
L 1213 -1331 
L 1456 -78 
Q 834 -78 509 400 
Q 178 888 347 1747 
Q 513 2606 1034 3094 
Q 1544 3572 2166 3572 
L 2419 4863 
L 2991 4863 
z
M 2128 434 
Q 2481 434 2784 756 
Q 3116 1116 3244 1747 
Q 3369 2372 3169 2738 
Q 2991 3059 2638 3059 
L 2128 434 
z
M 1556 434 
L 2066 3059 
Q 1716 3059 1413 2738 
Q 1072 2372 953 1747 
Q 834 1116 1028 756 
Q 1203 434 1556 434 
z
" transform="scale(0.015625)"/>
       <path id="DejaVuSans-Oblique-69" d="M 1172 4863 
L 1747 4863 
L 1606 4134 
L 1031 4134 
L 1172 4863 
z
M 909 3500 
L 1484 3500 
L 800 0 
L 225 0 
L 909 3500 
z
" transform="scale(0.015625)"/>
       <path id="DejaVuSans-28" d="M 1984 4856 
Q 1566 4138 1362 3434 
Q 1159 2731 1159 2009 
Q 1159 1288 1364 580 
Q 1569 -128 1984 -844 
L 1484 -844 
Q 1016 -109 783 600 
Q 550 1309 550 2009 
Q 550 2706 781 3412 
Q 1013 4119 1484 4856 
L 1984 4856 
z
" transform="scale(0.015625)"/>
       <path id="DejaVuSans-29" d="M 513 4856 
L 1013 4856 
Q 1481 4119 1714 3412 
Q 1947 2706 1947 2009 
Q 1947 1309 1714 600 
Q 1481 -109 1013 -844 
L 513 -844 
Q 928 -128 1133 580 
Q 1338 1288 1338 2009 
Q 1338 2731 1133 3434 
Q 928 4138 513 4856 
z
" transform="scale(0.015625)"/>
      </defs>
      <use xlink:href="#DejaVuSans-Oblique-3d5" transform="translate(0 0.015625)"/>
      <use xlink:href="#DejaVuSans-Oblique-69" transform="translate(65.966797 -16.390625) scale(0.7)"/>
      <use xlink:href="#DejaVuSans-28" transform="translate(88.149414 0.015625)"/>
      <use xlink:href="#DejaVuSans-Oblique-78" transform="translate(127.163086 0.015625)"/>
      <use xlink:href="#DejaVuSans-29" transform="translate(186.342773 0.015625)"/>
     </g>
    </g>
   </g>
   <g id="line2d_15">
    <path d="M 62.416477 189.1854 
L 65.695816 192.987572 
L 68.975155 196.890741 
L 72.254494 200.868 
L 75.533833 204.891438 
L 78.813171 208.93273 
L 82.09251 212.963702 
L 85.371849 216.956846 
L 88.651188 220.885767 
L 91.930527 224.725551 
L 95.209866 228.45304 
L 98.489205 232.047024 
L 101.768543 235.488343 
L 105.047882 238.759914 
L 108.327221 241.846695 
L 111.60656 244.735588 
L 114.885899 247.415312 
L 118.165238 249.87625 
L 121.444576 252.110284 
L 124.723915 254.110623 
L 128.003254 255.871655 
L 131.282593 257.388797 
L 134.561932 258.658371 
L 137.841271 259.677505 
L 141.12061 260.444041 
L 144.399948 260.956476 
L 147.679287 261.213908 
L 150.958626 261.216 
L 154.237965 260.962953 
L 157.517304 260.455483 
L 160.796643 259.694807 
L 164.075981 258.682627 
L 167.35532 257.421121 
L 170.634659 255.912932 
L 173.913998 254.161167 
L 177.193337 252.169402 
L 180.472676 249.941699 
L 183.752014 247.482646 
L 187.031353 244.797414 
L 190.310692 241.891852 
L 193.590031 238.772606 
L 196.86937 235.44729 
L 200.148709 231.924681 
L 203.428048 228.214964 
L 206.707386 224.329999 
L 209.986725 220.283615 
L 213.266064 216.091895 
L 216.545403 211.773461 
L 219.824742 207.349702 
L 223.104081 202.844945 
L 226.383419 198.286515 
L 229.662758 193.704689 
L 232.942097 189.132486 
L 236.221436 184.605299 
L 239.500775 180.160363 
L 242.780114 175.83604 
L 246.059452 171.670963 
L 249.338791 167.703052 
L 252.61813 163.968436 
L 255.897469 160.500348 
L 259.176808 157.328029 
L 262.456147 154.475713 
L 265.735486 151.961744 
L 269.014824 149.797878 
L 272.294163 147.988814 
L 275.573502 146.531983 
L 278.852841 145.417615 
L 282.13218 144.629079 
L 285.411519 144.143479 
L 288.690857 143.932491 
L 291.970196 143.963376 
L 295.249535 144.200142 
L 298.528874 144.604786 
L 301.808213 145.138558 
L 305.087552 145.763206 
L 308.36689 146.442131 
L 311.646229 147.141422 
L 314.925568 147.83073 
L 318.204907 148.483951 
L 321.484246 149.079714 
L 324.763585 149.601646 
L 328.042924 150.038439 
L 331.322262 150.383716 
L 334.601601 150.635717 
L 337.88094 150.796836 
L 341.160279 150.87303 
L 344.439618 150.873143 
L 347.718957 150.808174 
L 350.998295 150.690534 
L 354.277634 150.533312 
L 357.556973 150.3496 
L 360.836312 150.151894 
L 364.115651 149.951589 
L 367.39499 149.758594 
L 370.674329 149.581065 
L 373.953667 149.425263 
L 377.233006 149.29552 
L 380.512345 149.194315 
L 383.791684 149.122432 
L 387.071023 149.079179 
" clip-path="url(#pc36139d123)" style="fill: none; stroke: #1f77b4; stroke-width: 1.2; stroke-linecap: round"/>
   </g>
   <g id="line2d_16">
    <path d="M 62.416477 226.209915 
L 65.695816 231.795849 
L 68.975155 237.134422 
L 72.254494 242.130725 
L 75.533833 246.69115 
L 78.813171 250.725593 
L 82.09251 254.149543 
L 85.371849 256.885968 
L 88.651188 258.866963 
L 91.930527 260.035103 
L 95.209866 260.344468 
L 98.489205 259.761357 
L 101.768543 258.264675 
L 105.047882 255.846021 
L 108.327221 252.509519 
L 111.60656 248.271409 
L 114.885899 243.159459 
L 118.165238 237.21222 
L 121.444576 230.478189 
L 124.723915 223.014875 
L 128.003254 214.887846 
L 131.282593 206.169731 
L 134.561932 196.939236 
L 137.841271 187.280158 
L 141.12061 177.280419 
L 144.399948 167.03112 
L 147.679287 156.625616 
L 150.958626 146.158619 
L 154.237965 135.725322 
L 157.517304 125.42055 
L 160.796643 115.337931 
L 164.075981 105.569094 
L 167.35532 96.202893 
L 170.634659 87.324649 
L 173.913998 79.01542 
L 177.193337 71.351281 
L 180.472676 64.402627 
L 183.752014 58.233476 
L 187.031353 52.900778 
L 190.310692 48.45372 
L 193.590031 44.933016 
L 196.86937 42.370188 
L 200.148709 40.786841 
L 203.428048 40.193933 
L 206.707386 40.591065 
L 209.986725 41.965816 
L 213.266064 44.29316 
L 216.545403 47.535015 
L 219.824742 51.639973 
L 223.104081 56.543273 
L 226.383419 62.167085 
L 229.662758 68.421141 
L 232.942097 75.203791 
L 236.221436 82.403472 
L 239.500775 89.900636 
L 242.780114 97.570094 
L 246.059452 105.28374 
L 249.338791 112.913573 
L 252.61813 120.334916 
L 255.897469 127.429703 
L 259.176808 134.089704 
L 262.456147 140.219519 
L 265.735486 145.739217 
L 269.014824 150.586475 
L 272.294163 154.718117 
L 275.573502 158.110962 
L 278.852841 160.761952 
L 282.13218 162.687546 
L 285.411519 163.922417 
L 288.690857 164.517516 
L 291.970196 164.537609 
L 295.249535 164.0584 
L 298.528874 163.163387 
L 301.808213 161.940582 
L 305.087552 160.479248 
L 308.36689 158.866779 
L 311.646229 157.185849 
L 314.925568 155.511921 
L 318.204907 153.911211 
L 321.484246 152.439143 
L 324.763585 151.139342 
L 328.042924 150.043168 
L 331.322262 149.169768 
L 334.601601 148.526616 
L 337.88094 148.11049 
L 341.160279 147.908799 
L 344.439618 147.901187 
L 347.718957 148.061322 
L 350.998295 148.358769 
L 354.277634 148.760852 
L 357.556973 149.234424 
L 360.836312 149.747464 
L 364.115651 150.270427 
L 367.39499 150.777328 
L 370.674329 151.246504 
L 373.953667 151.661067 
L 377.233006 152.009057 
L 380.512345 152.283316 
L 383.791684 152.48113 
L 387.071023 152.603698 
" clip-path="url(#pc36139d123)" style="fill: none; stroke: #ff7f0e; stroke-width: 1.2; stroke-linecap: round"/>
   </g>
   <g id="line2d_17">
    <path d="M 62.416477 41.430181 
L 65.695816 37.818862 
L 68.975155 35.423364 
L 72.254494 34.395716 
L 75.533833 34.863411 
L 78.813171 36.923894 
L 82.09251 40.639902 
L 85.371849 46.035841 
L 88.651188 53.095381 
L 91.930527 61.76035 
L 95.209866 71.930973 
L 98.489205 83.467435 
L 101.768543 96.192684 
L 105.047882 109.896372 
L 108.327221 124.339761 
L 111.60656 139.261412 
L 114.885899 154.383467 
L 118.165238 169.418306 
L 121.444576 184.075391 
L 124.723915 198.068093 
L 128.003254 211.120334 
L 131.282593 222.972881 
L 134.561932 233.389166 
L 137.841271 242.160501 
L 141.12061 249.110611 
L 144.399948 254.099403 
L 147.679287 257.025922 
L 150.958626 257.830455 
L 154.237965 256.495767 
L 157.517304 253.047459 
L 160.796643 247.553467 
L 164.075981 240.122714 
L 167.35532 230.902951 
L 170.634659 220.077836 
L 173.913998 207.863299 
L 177.193337 194.50326 
L 180.472676 180.26476 
L 183.752014 165.432596 
L 187.031353 150.303533 
L 190.310692 135.180191 
L 193.590031 120.364702 
L 196.86937 106.152241 
L 200.148709 92.824554 
L 203.428048 80.643611 
L 206.707386 69.845503 
L 209.986725 60.634758 
L 213.266064 53.179205 
L 216.545403 47.605576 
L 219.824742 43.995983 
L 223.104081 42.385448 
L 226.383419 42.760627 
L 229.662758 45.059839 
L 232.942097 49.174493 
L 236.221436 54.951952 
L 239.500775 62.199813 
L 242.780114 70.691537 
L 246.059452 80.173267 
L 249.338791 90.371651 
L 252.61813 101.002381 
L 255.897469 111.779155 
L 259.176808 122.422692 
L 262.456147 132.669467 
L 265.735486 142.279775 
L 269.014824 151.044822 
L 272.294163 158.792533 
L 275.573502 165.391863 
L 278.852841 170.755457 
L 282.13218 174.840577 
L 285.411519 177.648319 
L 288.690857 179.221187 
L 291.970196 179.639215 
L 295.249535 179.014822 
L 298.528874 177.486687 
L 301.808213 175.212941 
L 305.087552 172.36397 
L 308.36689 169.115169 
L 311.646229 165.639926 
L 314.925568 162.103129 
L 318.204907 158.655428 
L 321.484246 155.428467 
L 324.763585 152.531216 
L 328.042924 150.047524 
L 331.322262 148.034909 
L 334.601601 146.524585 
L 337.88094 145.522638 
L 341.160279 145.012229 
L 344.439618 144.956657 
L 347.718957 145.303062 
L 350.998295 145.986564 
L 354.277634 146.934562 
L 357.556973 148.071002 
L 360.836312 149.320363 
L 364.115651 150.611194 
L 367.39499 151.879051 
L 370.674329 153.068738 
L 373.953667 154.1358 
L 377.233006 155.047277 
L 380.512345 155.781754 
L 383.791684 156.328802 
L 387.071023 156.687905 
" clip-path="url(#pc36139d123)" style="fill: none; stroke: #2ca02c; stroke-width: 1.2; stroke-linecap: round"/>
   </g>
   <g id="line2d_18">
    <path d="M 62.416477 19.296 
L 65.695816 22.178496 
L 68.975155 27.473772 
L 72.254494 35.223461 
L 75.533833 45.387905 
L 78.813171 57.841409 
L 82.09251 72.37107 
L 85.371849 88.679452 
L 88.651188 106.391162 
L 91.930527 125.06316 
L 95.209866 144.198467 
L 98.489205 163.262733 
L 101.768543 181.702963 
L 105.047882 198.967631 
L 108.327221 214.52729 
L 111.60656 227.894789 
L 114.885899 238.644248 
L 118.165238 246.427957 
L 121.444576 250.990513 
L 124.723915 252.179602 
L 128.003254 249.95301 
L 131.282593 244.381571 
L 134.561932 235.647973 
L 137.841271 224.041459 
L 141.12061 209.948654 
L 144.399948 193.840863 
L 147.679287 176.258317 
L 150.958626 157.791956 
L 154.237965 139.063396 
L 157.517304 120.7038 
L 160.796643 103.332393 
L 164.075981 87.535368 
L 167.35532 73.845905 
L 170.634659 62.726002 
L 173.913998 54.550724 
L 177.193337 49.595417 
L 180.472676 48.02633 
L 183.752014 49.894969 
L 187.031353 55.136388 
L 190.310692 63.571493 
L 193.590031 74.913303 
L 196.86937 88.776962 
L 200.148709 104.693196 
L 203.428048 122.124751 
L 206.707386 140.485259 
L 209.986725 159.159894 
L 213.266064 177.527062 
L 216.545403 194.980371 
L 219.824742 210.950067 
L 223.104081 224.923131 
L 226.383419 236.461281 
L 229.662758 245.21618 
L 232.942097 250.941242 
L 236.221436 253.499572 
L 239.500775 252.867717 
L 242.780114 249.135056 
L 246.059452 242.498868 
L 249.338791 233.255269 
L 252.61813 221.786404 
L 255.897469 208.544421 
L 259.176808 194.032912 
L 262.456147 178.786596 
L 265.735486 163.350098 
L 269.014824 148.256714 
L 272.294163 134.008041 
L 275.573502 121.055313 
L 278.852841 109.783193 
L 282.13218 100.496675 
L 285.411519 93.411593 
L 288.690857 88.649082 
L 291.970196 86.234169 
L 295.249535 86.098468 
L 298.528874 88.086807 
L 301.808213 91.96739 
L 305.087552 97.444993 
L 308.36689 104.176509 
L 311.646229 111.788082 
L 314.925568 119.892972 
L 318.204907 128.109293 
L 321.484246 136.076746 
L 324.763585 143.471572 
L 328.042924 150.019016 
L 331.322262 155.502785 
L 334.601601 159.771105 
L 337.88094 162.739245 
L 341.160279 164.388534 
L 344.439618 164.762114 
L 347.718957 163.957865 
L 350.998295 162.119056 
L 354.277634 159.423407 
L 357.556973 156.071293 
L 360.836312 152.273811 
L 364.115651 148.241401 
L 367.39499 144.173628 
L 370.674329 140.250585 
L 373.953667 136.626253 
L 377.233006 133.423994 
L 380.512345 130.734195 
L 383.791684 128.61395 
L 387.071023 127.088548 
" clip-path="url(#pc36139d123)" style="fill: none; stroke: #d62728; stroke-width: 1.2; stroke-linecap: round"/>
   </g>
   <g id="patch_3">
    <path d="M 46.18375 245.791205 
L 46.18375 22.371218 
" style="fill: none; stroke: #262626; stroke-linejoin: miter; stroke-linecap: square"/>
   </g>
   <g id="patch_4">
    <path d="M 62.416477 273.312 
L 387.071023 273.312 
" style="fill: none; stroke: #262626; stroke-linejoin: miter; stroke-linecap: square"/>
   </g>
  </g>
 </g>
 <defs>
  <clipPath id="pc36139d123">
   <rect x="46.18375" y="7.2" width="357.12" height="266.112"/>
  </clipPath>
 </defs>
</svg>