<?xml version="1.0" encoding="utf-8" standalone="no"?>
<!DOCTYPE svg PUBLIC "-//W3C//DTD SVG 1.1//EN"
  "http://www.w3.org/Graphics/SVG/1.1/DTD/svg11.dtd">
<svg xmlns:xlink="http://www.w3.org/1999/xlink" width="215.1115pt" height="154.407375pt" viewBox="0 0 215.1115 154.407375" xmlns="http://www.w3.org/2000/svg" version="1.1">
 <metadata>
  <rdf:RDF xmlns:dc="http://purl.org/dc/elements/1.1/" xmlns:cc="http://creativecommons.org/ns#" xmlns:rdf="http://www.w3.org/1999/02/22-rdf-syntax-ns#">
   <cc:Work>
    <dc:type rdf:resource="http://purl.org/dc/dcmitype/StillImage"/>
    <dc:date>2024-10-17T14:55:28.286283</dc:date>
    <dc:format>image/svg+xml</dc:format>
    <dc:creator>
     <cc:Agent>
      <dc:title>Matplotlib v3.9.2, https://matplotlib.org/</dc:title>
     </cc:Agent>
    </dc:creator>
   </cc:Work>
  </rdf:RDF>
 </metadata>
 <defs>
  <style type="text/css">*{stroke-linejoin: round; stroke-linecap: butt}</style>
 </defs>
 <g id="figure_1">
  <g id="patch_1">
   <path d="M 0 154.407375 
L 215.1115 154.407375 
L 215.1115 0 
L 0 0 
z
" style="fill: #ffffff"/>
  </g>
  <g id="axes_1">
   <g id="patch_2">
    <path d="M 40.5115 118.08 
L 207.9115 118.08 
L 207.9115 7.2 
L 40.5115 7.2 
z
" style="fill: #ffffff"/>
   </g>
   <g id="matplotlib.axis_1">
    <g id="xtick_1">
     <g id="line2d_1">
      <defs>
       <path id="m073d9b9911" d="M 0 0 
L 0 4.8 
" style="stroke: #262626"/>
      </defs>
      <g>
       <use xlink:href="#m073d9b9911" x="48.120591" y="118.08" style="fill: #262626; stroke: #262626"/>
      </g>
     </g>
     <g id="text_1">
      <!-- 0.0 -->
      <g style="fill: #262626" transform="translate(42.004591 132.678875) scale(0.088 -0.088)">
       <defs>
        <path id="ArialMT-30" d="M 266 2259 
Q 266 3072 433 3567 
Q 600 4063 929 4331 
Q 1259 4600 1759 4600 
Q 2128 4600 2406 4451 
Q 2684 4303 2865 4023 
Q 3047 3744 3150 3342 
Q 3253 2941 3253 2259 
Q 3253 1453 3087 958 
Q 2922 463 2592 192 
Q 2263 -78 1759 -78 
Q 1097 -78 719 397 
Q 266 969 266 2259 
z
M 844 2259 
Q 844 1131 1108 757 
Q 1372 384 1759 384 
Q 2147 384 2411 759 
Q 2675 1134 2675 2259 
Q 2675 3391 2411 3762 
Q 2147 4134 1753 4134 
Q 1366 4134 1134 3806 
Q 844 3388 844 2259 
z
" transform="scale(0.015625)"/>
        <path id="ArialMT-2e" d="M 581 0 
L 581 641 
L 1222 641 
L 1222 0 
L 581 0 
z
" transform="scale(0.015625)"/>
       </defs>
       <use xlink:href="#ArialMT-30"/>
       <use xlink:href="#ArialMT-2e" x="55.615234"/>
       <use xlink:href="#ArialMT-30" x="83.398438"/>
      </g>
     </g>
    </g>
    <g id="xtick_2">
     <g id="line2d_2">
      <g>
       <use xlink:href="#m073d9b9911" x="78.556955" y="118.08" style="fill: #262626; stroke: #262626"/>
      </g>
     </g>
     <g id="text_2">
      <!-- 0.2 -->
      <g style="fill: #262626" transform="translate(72.440955 132.678875) scale(0.088 -0.088)">
       <defs>
        <path id="ArialMT-32" d="M 3222 541 
L 3222 0 
L 194 0 
Q 188 203 259 391 
Q 375 700 629 1000 
Q 884 1300 1366 1694 
Q 2113 2306 2375 2664 
Q 2638 3022 2638 3341 
Q 2638 3675 2398 3904 
Q 2159 4134 1775 4134 
Q 1369 4134 1125 3890 
Q 881 3647 878 3216 
L 300 3275 
Q 359 3922 746 4261 
Q 1134 4600 1788 4600 
Q 2447 4600 2831 4234 
Q 3216 3869 3216 3328 
Q 3216 3053 3103 2787 
Q 2991 2522 2730 2228 
Q 2469 1934 1863 1422 
Q 1356 997 1212 845 
Q 1069 694 975 541 
L 3222 541 
z
" transform="scale(0.015625)"/>
       </defs>
       <use xlink:href="#ArialMT-30"/>
       <use xlink:href="#ArialMT-2e" x="55.615234"/>
       <use xlink:href="#ArialMT-32" x="83.398438"/>
      </g>
     </g>
    </g>
    <g id="xtick_3">
     <g id="line2d_3">
      <g>
       <use xlink:href="#m073d9b9911" x="108.993318" y="118.08" style="fill: #262626; stroke: #262626"/>
      </g>
     </g>
     <g id="text_3">
      <!-- 0.4 -->
      <g style="fill: #262626" transform="translate(102.877318 132.678875) scale(0.088 -0.088)">
       <defs>
        <path id="ArialMT-34" d="M 2069 0 
L 2069 1097 
L 81 1097 
L 81 1613 
L 2172 4581 
L 2631 4581 
L 2631 1613 
L 3250 1613 
L 3250 1097 
L 2631 1097 
L 2631 0 
L 2069 0 
z
M 2069 1613 
L 2069 3678 
L 634 1613 
L 2069 1613 
z
" transform="scale(0.015625)"/>
       </defs>
       <use xlink:href="#ArialMT-30"/>
       <use xlink:href="#ArialMT-2e" x="55.615234"/>
       <use xlink:href="#ArialMT-34" x="83.398438"/>
      </g>
     </g>
    </g>
    <g id="xtick_4">
     <g id="line2d_4">
      <g>
       <use xlink:href="#m073d9b9911" x="139.429682" y="118.08" style="fill: #262626; stroke: #262626"/>
      </g>
     </g>
     <g id="text_4">
      <!-- 0.6 -->
      <g style="fill: #262626" transform="translate(133.313682 132.678875) scale(0.088 -0.088)">
       <defs>
        <path id="ArialMT-36" d="M 3184 3459 
L 2625 3416 
Q 2550 3747 2413 3897 
Q 2184 4138 1850 4138 
Q 1581 4138 1378 3988 
Q 1113 3794 959 3422 
Q 806 3050 800 2363 
Q 1003 2672 1297 2822 
Q 1591 2972 1913 2972 
Q 2475 2972 2870 2558 
Q 3266 2144 3266 1488 
Q 3266 1056 3080 686 
Q 2894 316 2569 119 
Q 2244 -78 1831 -78 
Q 1128 -78 684 439 
Q 241 956 241 2144 
Q 241 3472 731 4075 
Q 1159 4600 1884 4600 
Q 2425 4600 2770 4297 
Q 3116 3994 3184 3459 
z
M 888 1484 
Q 888 1194 1011 928 
Q 1134 663 1356 523 
Q 1578 384 1822 384 
Q 2178 384 2434 671 
Q 2691 959 2691 1453 
Q 2691 1928 2437 2201 
Q 2184 2475 1800 2475 
Q 1419 2475 1153 2201 
Q 888 1928 888 1484 
z
" transform="scale(0.015625)"/>
       </defs>
       <use xlink:href="#ArialMT-30"/>
       <use xlink:href="#ArialMT-2e" x="55.615234"/>
       <use xlink:href="#ArialMT-36" x="83.398438"/>
      </g>
     </g>
    </g>
    <g id="xtick_5">
     <g id="line2d_5">
      <g>
       <use xlink:href="#m073d9b9911" x="169.866045" y="118.08" style="fill: #262626; stroke: #262626"/>
      </g>
     </g>
     <g id="text_5">
      <!-- 0.8 -->
      <g style="fill: #262626" transform="translate(163.750045 132.678875) scale(0.088 -0.088)">
       <defs>
        <path id="ArialMT-38" d="M 1131 2484 
Q 781 2613 612 2850 
Q 444 3088 444 3419 
Q 444 3919 803 4259 
Q 1163 4600 1759 4600 
Q 2359 4600 2725 4251 
Q 3091 3903 3091 3403 
Q 3091 3084 2923 2848 
Q 2756 2613 2416 2484 
Q 2838 2347 3058 2040 
Q 3278 1734 3278 1309 
Q 3278 722 2862 322 
Q 2447 -78 1769 -78 
Q 1091 -78 675 323 
Q 259 725 259 1325 
Q 259 1772 486 2073 
Q 713 2375 1131 2484 
z
M 1019 3438 
Q 1019 3113 1228 2906 
Q 1438 2700 1772 2700 
Q 2097 2700 2305 2904 
Q 2513 3109 2513 3406 
Q 2513 3716 2298 3927 
Q 2084 4138 1766 4138 
Q 1444 4138 1231 3931 
Q 1019 3725 1019 3438 
z
M 838 1322 
Q 838 1081 952 856 
Q 1066 631 1291 507 
Q 1516 384 1775 384 
Q 2178 384 2440 643 
Q 2703 903 2703 1303 
Q 2703 1709 2433 1975 
Q 2163 2241 1756 2241 
Q 1359 2241 1098 1978 
Q 838 1716 838 1322 
z
" transform="scale(0.015625)"/>
       </defs>
       <use xlink:href="#ArialMT-30"/>
       <use xlink:href="#ArialMT-2e" x="55.615234"/>
       <use xlink:href="#ArialMT-38" x="83.398438"/>
      </g>
     </g>
    </g>
    <g id="xtick_6">
     <g id="line2d_6">
      <g>
       <use xlink:href="#m073d9b9911" x="200.302409" y="118.08" style="fill: #262626; stroke: #262626"/>
      </g>
     </g>
     <g id="text_6">
      <!-- 1.0 -->
      <g style="fill: #262626" transform="translate(194.186409 132.678875) scale(0.088 -0.088)">
       <defs>
        <path id="ArialMT-31" d="M 2384 0 
L 1822 0 
L 1822 3584 
Q 1619 3391 1289 3197 
Q 959 3003 697 2906 
L 697 3450 
Q 1169 3672 1522 3987 
Q 1875 4303 2022 4600 
L 2384 4600 
L 2384 0 
z
" transform="scale(0.015625)"/>
       </defs>
       <use xlink:href="#ArialMT-31"/>
       <use xlink:href="#ArialMT-2e" x="55.615234"/>
       <use xlink:href="#ArialMT-30" x="83.398438"/>
      </g>
     </g>
    </g>
    <g id="text_7">
     <!-- $x$ -->
     <g style="fill: #262626" transform="translate(121.3315 145.299375) scale(0.096 -0.096)">
      <defs>
       <path id="DejaVuSans-Oblique-78" d="M 3841 3500 
L 2234 1784 
L 3219 0 
L 2559 0 
L 1819 1388 
L 531 0 
L -166 0 
L 1556 1844 
L 641 3500 
L 1300 3500 
L 1972 2234 
L 3144 3500 
L 3841 3500 
z
" transform="scale(0.015625)"/>
      </defs>
      <use xlink:href="#DejaVuSans-Oblique-78" transform="translate(0 0.3125)"/>
     </g>
    </g>
   </g>
   <g id="matplotlib.axis_2">
    <g id="ytick_1">
     <g id="line2d_7">
      <defs>
       <path id="mb0001aa874" d="M 0 0 
L -4.8 0 
" style="stroke: #262626"/>
      </defs>
      <g>
       <use xlink:href="#mb0001aa874" x="40.5115" y="99.993981" style="fill: #262626; stroke: #262626"/>
      </g>
     </g>
     <g id="text_8">
      <!-- 1.0 -->
      <g style="fill: #262626" transform="translate(19.9795 103.143418) scale(0.088 -0.088)">
       <use xlink:href="#ArialMT-31"/>
       <use xlink:href="#ArialMT-2e" x="55.615234"/>
       <use xlink:href="#ArialMT-30" x="83.398438"/>
      </g>
     </g>
    </g>
    <g id="ytick_2">
     <g id="line2d_8">
      <g>
       <use xlink:href="#mb0001aa874" x="40.5115" y="80.825467" style="fill: #262626; stroke: #262626"/>
      </g>
     </g>
     <g id="text_9">
      <!-- 1.1 -->
      <g style="fill: #262626" transform="translate(19.9795 83.974904) scale(0.088 -0.088)">
       <use xlink:href="#ArialMT-31"/>
       <use xlink:href="#ArialMT-2e" x="55.615234"/>
       <use xlink:href="#ArialMT-31" x="83.398438"/>
      </g>
     </g>
    </g>
    <g id="ytick_3">
     <g id="line2d_9">
      <g>
       <use xlink:href="#mb0001aa874" x="40.5115" y="61.656953" style="fill: #262626; stroke: #262626"/>
      </g>
     </g>
     <g id="text_10">
      <!-- 1.2 -->
      <g style="fill: #262626" transform="translate(19.9795 64.80639) scale(0.088 -0.088)">
       <use xlink:href="#ArialMT-31"/>
       <use xlink:href="#ArialMT-2e" x="55.615234"/>
       <use xlink:href="#ArialMT-32" x="83.398438"/>
      </g>
     </g>
    </g>
    <g id="ytick_4">
     <g id="line2d_10">
      <g>
       <use xlink:href="#mb0001aa874" x="40.5115" y="42.488439" style="fill: #262626; stroke: #262626"/>
      </g>
     </g>
     <g id="text_11">
      <!-- 1.3 -->
      <g style="fill: #262626" transform="translate(19.9795 45.637876) scale(0.088 -0.088)">
       <defs>
        <path id="ArialMT-33" d="M 269 1209 
L 831 1284 
Q 928 806 1161 595 
Q 1394 384 1728 384 
Q 2125 384 2398 659 
Q 2672 934 2672 1341 
Q 2672 1728 2419 1979 
Q 2166 2231 1775 2231 
Q 1616 2231 1378 2169 
L 1441 2663 
Q 1497 2656 1531 2656 
Q 1891 2656 2178 2843 
Q 2466 3031 2466 3422 
Q 2466 3731 2256 3934 
Q 2047 4138 1716 4138 
Q 1388 4138 1169 3931 
Q 950 3725 888 3313 
L 325 3413 
Q 428 3978 793 4289 
Q 1159 4600 1703 4600 
Q 2078 4600 2393 4439 
Q 2709 4278 2876 4000 
Q 3044 3722 3044 3409 
Q 3044 3113 2884 2869 
Q 2725 2625 2413 2481 
Q 2819 2388 3044 2092 
Q 3269 1797 3269 1353 
Q 3269 753 2831 336 
Q 2394 -81 1725 -81 
Q 1122 -81 723 278 
Q 325 638 269 1209 
z
" transform="scale(0.015625)"/>
       </defs>
       <use xlink:href="#ArialMT-31"/>
       <use xlink:href="#ArialMT-2e" x="55.615234"/>
       <use xlink:href="#ArialMT-33" x="83.398438"/>
      </g>
     </g>
    </g>
    <g id="ytick_5">
     <g id="line2d_11">
      <g>
       <use xlink:href="#mb0001aa874" x="40.5115" y="23.319925" style="fill: #262626; stroke: #262626"/>
      </g>
     </g>
     <g id="text_12">
      <!-- 1.4 -->
      <g style="fill: #262626" transform="translate(19.9795 26.469362) scale(0.088 -0.088)">
       <use xlink:href="#ArialMT-31"/>
       <use xlink:href="#ArialMT-2e" x="55.615234"/>
       <use xlink:href="#ArialMT-34" x="83.398438"/>
      </g>
     </g>
    </g>
    <g id="text_13">
     <!-- $y$ -->
     <g style="fill: #262626" transform="translate(13.9635 65.52) rotate(-90) scale(0.096 -0.096)">
      <defs>
       <path id="DejaVuSans-Oblique-79" d="M 1588 -325 
Q 1188 -997 936 -1164 
Q 684 -1331 294 -1331 
L -159 -1331 
L -63 -850 
L 269 -850 
Q 509 -850 678 -719 
Q 847 -588 1056 -206 
L 1234 128 
L 459 3500 
L 1069 3500 
L 1650 819 
L 3256 3500 
L 3859 3500 
L 1588 -325 
z
" transform="scale(0.015625)"/>
      </defs>
      <use xlink:href="#DejaVuSans-Oblique-79" transform="translate(0 0.3125)"/>
     </g>
    </g>
   </g>
   <g id="PolyCollection_1">
    <defs>
     <path id="m4211fe5e21" d="M 48.120591 -124.787257 
L 48.120591 -58.75868 
L 49.657781 -59.136764 
L 51.194971 -59.507867 
L 52.732161 -59.871527 
L 54.269351 -60.227271 
L 55.806541 -60.574615 
L 57.343731 -60.91307 
L 58.880921 -61.242138 
L 60.418112 -61.561313 
L 61.955302 -61.870088 
L 63.492492 -62.16795 
L 65.029682 -62.454388 
L 66.566872 -62.728888 
L 68.104062 -62.990944 
L 69.641252 -63.240053 
L 71.178442 -63.47572 
L 72.715632 -63.697465 
L 74.252822 -63.904819 
L 75.790012 -64.097331 
L 77.327202 -64.274573 
L 78.864393 -64.436139 
L 80.401583 -64.58165 
L 81.938773 -64.710759 
L 83.475963 -64.82315 
L 85.013153 -64.918544 
L 86.550343 -64.996701 
L 88.087533 -65.057423 
L 89.624723 -65.100553 
L 91.161913 -65.125979 
L 92.699103 -65.133635 
L 94.236293 -65.1235 
L 95.773483 -65.095603 
L 97.310674 -65.050014 
L 98.847864 -64.986852 
L 100.385054 -64.906279 
L 101.922244 -64.808501 
L 103.459434 -64.693764 
L 104.996624 -64.56235 
L 106.533814 -64.41458 
L 108.071004 -64.250806 
L 109.608194 -64.071412 
L 111.145384 -63.876805 
L 112.682574 -63.667418 
L 114.219764 -63.443705 
L 115.756955 -63.206135 
L 117.294145 -62.955192 
L 118.831335 -62.691372 
L 120.368525 -62.415178 
L 121.905715 -62.127117 
L 123.442905 -61.827704 
L 124.980095 -61.517449 
L 126.517285 -61.196865 
L 128.054475 -60.866459 
L 129.591665 -60.526735 
L 131.128855 -60.178191 
L 132.666045 -59.821316 
L 134.203236 -59.456591 
L 135.740426 -59.084487 
L 137.277616 -58.705466 
L 138.814806 -58.319979 
L 140.351996 -57.928463 
L 141.889186 -57.531346 
L 143.426376 -57.129044 
L 144.963566 -56.721959 
L 146.500756 -56.310481 
L 148.037946 -55.89499 
L 149.575136 -55.475851 
L 151.112326 -55.053418 
L 152.649517 -54.628034 
L 154.186707 -54.200027 
L 155.723897 -53.769718 
L 157.261087 -53.337413 
L 158.798277 -52.903409 
L 160.335467 -52.46799 
L 161.872657 -52.031431 
L 163.409847 -51.593996 
L 164.947037 -51.155941 
L 166.484227 -50.717509 
L 168.021417 -50.278936 
L 169.558607 -49.840448 
L 171.095798 -49.402263 
L 172.632988 -48.964589 
L 174.170178 -48.527627 
L 175.707368 -48.091569 
L 177.244558 -47.6566 
L 178.781748 -47.222897 
L 180.318938 -46.790631 
L 181.856128 -46.359964 
L 183.393318 -45.931052 
L 184.930508 -45.504045 
L 186.467698 -45.079087 
L 188.004888 -44.656314 
L 189.542079 -44.235857 
L 191.079269 -43.817843 
L 192.616459 -43.40239 
L 194.153649 -42.989613 
L 195.690839 -42.579622 
L 197.228029 -42.17252 
L 198.765219 -41.768406 
L 200.302409 -41.367375 
L 200.302409 -142.167375 
L 200.302409 -142.167375 
L 198.765219 -141.766689 
L 197.228029 -141.362918 
L 195.690839 -140.956156 
L 194.153649 -140.546501 
L 192.616459 -140.134059 
L 191.079269 -139.718938 
L 189.542079 -139.301251 
L 188.004888 -138.88112 
L 186.467698 -138.45867 
L 184.930508 -138.03403 
L 183.393318 -137.607339 
L 181.856128 -137.178739 
L 180.318938 -136.748381 
L 178.781748 -136.31642 
L 177.244558 -135.883018 
L 175.707368 -135.448347 
L 174.170178 -135.012583 
L 172.632988 -134.575911 
L 171.095798 -134.138522 
L 169.558607 -133.700619 
L 168.021417 -133.262409 
L 166.484227 -132.824109 
L 164.947037 -132.385947 
L 163.409847 -131.948156 
L 161.872657 -131.510982 
L 160.335467 -131.074678 
L 158.798277 -130.63951 
L 157.261087 -130.205752 
L 155.723897 -129.773689 
L 154.186707 -129.343617 
L 152.649517 -128.915843 
L 151.112326 -128.490685 
L 149.575136 -128.068474 
L 148.037946 -127.649552 
L 146.500756 -127.234273 
L 144.963566 -126.823002 
L 143.426376 -126.416118 
L 141.889186 -126.014011 
L 140.351996 -125.617085 
L 138.814806 -125.225754 
L 137.277616 -124.840446 
L 135.740426 -124.461599 
L 134.203236 -124.089664 
L 132.666045 -123.725102 
L 131.128855 -123.368383 
L 129.591665 -123.01999 
L 128.054475 -122.680412 
L 126.517285 -122.350146 
L 124.980095 -122.029696 
L 123.442905 -121.719569 
L 121.905715 -121.420277 
L 120.368525 -121.132333 
L 118.831335 -120.856248 
L 117.294145 -120.592531 
L 115.756955 -120.341687 
L 114.219764 -120.104208 
L 112.682574 -119.88058 
L 111.145384 -119.671273 
L 109.608194 -119.476739 
L 108.071004 -119.297411 
L 106.533814 -119.133698 
L 104.996624 -118.985982 
L 103.459434 -118.854616 
L 101.922244 -118.73992 
L 100.385054 -118.642177 
L 98.847864 -118.561634 
L 97.310674 -118.498495 
L 95.773483 -118.452922 
L 94.236293 -118.425034 
L 92.699103 -118.414903 
L 91.161913 -118.422557 
L 89.624723 -118.447973 
L 88.087533 -118.491088 
L 86.550343 -118.551788 
L 85.013153 -118.629917 
L 83.475963 -118.725277 
L 81.938773 -118.837627 
L 80.401583 -118.966688 
L 78.864393 -119.112146 
L 77.327202 -119.273652 
L 75.790012 -119.450829 
L 74.252822 -119.643269 
L 72.715632 -119.850545 
L 71.178442 -120.072205 
L 69.641252 -120.307782 
L 68.104062 -120.556794 
L 66.566872 -120.818747 
L 65.029682 -121.093138 
L 63.492492 -121.379461 
L 61.955302 -121.677202 
L 60.418112 -121.98585 
L 58.880921 -122.304892 
L 57.343731 -122.633821 
L 55.806541 -122.972131 
L 54.269351 -123.319326 
L 52.732161 -123.674913 
L 51.194971 -124.03841 
L 49.657781 -124.409346 
L 48.120591 -124.787257 
z
" style="stroke: #ffffff; stroke-opacity: 0.2; stroke-width: 0.8"/>
    </defs>
    <g clip-path="url(#pf42da0d1a2)">
     <use xlink:href="#m4211fe5e21" x="0" y="154.407375" style="fill: #1f77b4; fill-opacity: 0.2; stroke: #ffffff; stroke-opacity: 0.2; stroke-width: 0.8"/>
    </g>
   </g>
   <g id="PathCollection_1">
    <defs>
     <path id="meee9f0eaa3" d="M 0 2.4 
C 0.636487 2.4 1.246992 2.147121 1.697056 1.697056 
C 2.147121 1.246992 2.4 0.636487 2.4 0 
C 2.4 -0.636487 2.147121 -1.246992 1.697056 -1.697056 
C 1.246992 -2.147121 0.636487 -2.4 0 -2.4 
C -0.636487 -2.4 -1.246992 -2.147121 -1.697056 -1.697056 
C -2.147121 -1.246992 -2.4 -0.636487 -2.4 0 
C -2.4 0.636487 -2.147121 1.246992 -1.697056 1.697056 
C -1.246992 2.147121 -0.636487 2.4 0 2.4 
z
" style="stroke: #ff7f0e; stroke-width: 0.8"/>
    </defs>
    <g clip-path="url(#pf42da0d1a2)">
     <use xlink:href="#meee9f0eaa3" x="92.592002" y="62.630813" style="fill: #ff7f0e; stroke: #ff7f0e; stroke-width: 0.8"/>
    </g>
   </g>
   <g id="line2d_12">
    <path d="M 48.120591 62.634406 
L 49.657781 62.63432 
L 51.194971 62.634236 
L 52.732161 62.634155 
L 54.269351 62.634077 
L 55.806541 62.634002 
L 57.343731 62.633929 
L 58.880921 62.63386 
L 60.418112 62.633794 
L 61.955302 62.63373 
L 63.492492 62.63367 
L 65.029682 62.633612 
L 66.566872 62.633558 
L 68.104062 62.633506 
L 69.641252 62.633458 
L 71.178442 62.633412 
L 72.715632 62.63337 
L 74.252822 62.633331 
L 75.790012 62.633295 
L 77.327202 62.633262 
L 78.864393 62.633232 
L 80.401583 62.633206 
L 81.938773 62.633182 
L 83.475963 62.633162 
L 85.013153 62.633144 
L 86.550343 62.63313 
L 88.087533 62.63312 
L 89.624723 62.633112 
L 91.161913 62.633107 
L 92.699103 62.633106 
L 94.236293 62.633108 
L 95.773483 62.633113 
L 97.310674 62.633121 
L 98.847864 62.633132 
L 100.385054 62.633147 
L 101.922244 62.633164 
L 103.459434 62.633185 
L 104.996624 62.633209 
L 106.533814 62.633236 
L 108.071004 62.633266 
L 109.608194 62.6333 
L 111.145384 62.633336 
L 112.682574 62.633376 
L 114.219764 62.633419 
L 115.756955 62.633464 
L 117.294145 62.633513 
L 118.831335 62.633565 
L 120.368525 62.63362 
L 121.905715 62.633678 
L 123.442905 62.633739 
L 124.980095 62.633803 
L 126.517285 62.63387 
L 128.054475 62.633939 
L 129.591665 62.634012 
L 131.128855 62.634088 
L 132.666045 62.634166 
L 134.203236 62.634248 
L 135.740426 62.634332 
L 137.277616 62.634419 
L 138.814806 62.634509 
L 140.351996 62.634601 
L 141.889186 62.634696 
L 143.426376 62.634794 
L 144.963566 62.634895 
L 146.500756 62.634998 
L 148.037946 62.635104 
L 149.575136 62.635212 
L 151.112326 62.635323 
L 152.649517 62.635437 
L 154.186707 62.635553 
L 155.723897 62.635671 
L 157.261087 62.635792 
L 158.798277 62.635915 
L 160.335467 62.636041 
L 161.872657 62.636169 
L 163.409847 62.636299 
L 164.947037 62.636431 
L 166.484227 62.636566 
L 168.021417 62.636703 
L 169.558607 62.636841 
L 171.095798 62.636982 
L 172.632988 62.637125 
L 174.170178 62.63727 
L 175.707368 62.637417 
L 177.244558 62.637566 
L 178.781748 62.637717 
L 180.318938 62.637869 
L 181.856128 62.638023 
L 183.393318 62.63818 
L 184.930508 62.638337 
L 186.467698 62.638497 
L 188.004888 62.638658 
L 189.542079 62.638821 
L 191.079269 62.638985 
L 192.616459 62.639151 
L 194.153649 62.639318 
L 195.690839 62.639486 
L 197.228029 62.639656 
L 198.765219 62.639827 
L 200.302409 62.64 
" clip-path="url(#pf42da0d1a2)" style="fill: none; stroke: #1f77b4; stroke-width: 1.2; stroke-linecap: round"/>
   </g>
   <g id="line2d_13">
    <path d="M 200.29898 118.08 
L 200.29898 7.2 
" clip-path="url(#pf42da0d1a2)" style="fill: none; stroke-dasharray: 4.44,1.92; stroke-dashoffset: 0; stroke: #ff0000; stroke-width: 1.2"/>
   </g>
   <g id="patch_3">
    <path d="M 40.5115 99.993981 
L 40.5115 23.319925 
" style="fill: none; stroke: #262626; stroke-linejoin: miter; stroke-linecap: square"/>
   </g>
   <g id="patch_4">
    <path d="M 48.120591 118.08 
L 200.302409 118.08 
" style="fill: none; stroke: #262626; stroke-linejoin: miter; stroke-linecap: square"/>
   </g>
   <g id="legend_1">
    <g id="patch_5">
     <path d="M 147.8075 26.687875 
L 201.7515 26.687875 
Q 203.5115 26.687875 203.5115 24.927875 
L 203.5115 13.36 
Q 203.5115 11.6 201.7515 11.6 
L 147.8075 11.6 
Q 146.0475 11.6 146.0475 13.36 
L 146.0475 24.927875 
Q 146.0475 26.687875 147.8075 26.687875 
z
" style="fill: #ffffff; opacity: 0.8; stroke: #cccccc; stroke-width: 0.8; stroke-linejoin: miter"/>
    </g>
    <g id="line2d_14">
     <path d="M 149.5675 18.338875 
L 158.3675 18.338875 
L 167.1675 18.338875 
" style="fill: none; stroke-dasharray: 4.44,1.92; stroke-dashoffset: 0; stroke: #ff0000; stroke-width: 1.2"/>
    </g>
    <g id="text_14">
     <!-- Next $x$ -->
     <g style="fill: #262626" transform="translate(174.2075 21.418875) scale(0.088 -0.088)">
      <defs>
       <path id="ArialMT-4e" d="M 488 0 
L 488 4581 
L 1109 4581 
L 3516 984 
L 3516 4581 
L 4097 4581 
L 4097 0 
L 3475 0 
L 1069 3600 
L 1069 0 
L 488 0 
z
" transform="scale(0.015625)"/>
       <path id="ArialMT-65" d="M 2694 1069 
L 3275 997 
Q 3138 488 2766 206 
Q 2394 -75 1816 -75 
Q 1088 -75 661 373 
Q 234 822 234 1631 
Q 234 2469 665 2931 
Q 1097 3394 1784 3394 
Q 2450 3394 2872 2941 
Q 3294 2488 3294 1666 
Q 3294 1616 3291 1516 
L 816 1516 
Q 847 969 1125 678 
Q 1403 388 1819 388 
Q 2128 388 2347 550 
Q 2566 713 2694 1069 
z
M 847 1978 
L 2700 1978 
Q 2663 2397 2488 2606 
Q 2219 2931 1791 2931 
Q 1403 2931 1139 2672 
Q 875 2413 847 1978 
z
" transform="scale(0.015625)"/>
       <path id="ArialMT-78" d="M 47 0 
L 1259 1725 
L 138 3319 
L 841 3319 
L 1350 2541 
Q 1494 2319 1581 2169 
Q 1719 2375 1834 2534 
L 2394 3319 
L 3066 3319 
L 1919 1756 
L 3153 0 
L 2463 0 
L 1781 1031 
L 1600 1309 
L 728 0 
L 47 0 
z
" transform="scale(0.015625)"/>
       <path id="ArialMT-74" d="M 1650 503 
L 1731 6 
Q 1494 -44 1306 -44 
Q 1000 -44 831 53 
Q 663 150 594 308 
Q 525 466 525 972 
L 525 2881 
L 113 2881 
L 113 3319 
L 525 3319 
L 525 4141 
L 1084 4478 
L 1084 3319 
L 1650 3319 
L 1650 2881 
L 1084 2881 
L 1084 941 
Q 1084 700 1114 631 
Q 1144 563 1211 522 
Q 1278 481 1403 481 
Q 1497 481 1650 503 
z
" transform="scale(0.015625)"/>
       <path id="ArialMT-20" transform="scale(0.015625)"/>
      </defs>
      <use xlink:href="#ArialMT-4e" transform="translate(0 0.421875)"/>
      <use xlink:href="#ArialMT-65" transform="translate(72.216797 0.421875)"/>
      <use xlink:href="#ArialMT-78" transform="translate(127.832031 0.421875)"/>
      <use xlink:href="#ArialMT-74" transform="translate(177.832031 0.421875)"/>
      <use xlink:href="#ArialMT-20" transform="translate(205.615234 0.421875)"/>
      <use xlink:href="#DejaVuSans-Oblique-78" transform="translate(233.398438 0.421875)"/>
     </g>
    </g>
   </g>
  </g>
 </g>
 <defs>
  <clipPath id="pf42da0d1a2">
   <rect x="40.5115" y="7.2" width="167.4" height="110.88"/>
  </clipPath>
 </defs>
</svg>