<?xml version="1.0" encoding="utf-8" standalone="no"?>
<!DOCTYPE svg PUBLIC "-//W3C//DTD SVG 1.1//EN"
  "http://www.w3.org/Graphics/SVG/1.1/DTD/svg11.dtd">
<svg xmlns:xlink="http://www.w3.org/1999/xlink" width="415.109375pt" height="322.851375pt" viewBox="0 0 415.109375 322.851375" xmlns="http://www.w3.org/2000/svg" version="1.1">
 <metadata>
  <rdf:RDF xmlns:dc="http://purl.org/dc/elements/1.1/" xmlns:cc="http://creativecommons.org/ns#" xmlns:rdf="http://www.w3.org/1999/02/22-rdf-syntax-ns#">
   <cc:Work>
    <dc:type rdf:resource="http://purl.org/dc/dcmitype/StillImage"/>
    <dc:date>2023-12-05T10:19:49.042451</dc:date>
    <dc:format>image/svg+xml</dc:format>
    <dc:creator>
     <cc:Agent>
      <dc:title>Matplotlib v3.8.0, https://matplotlib.org/</dc:title>
     </cc:Agent>
    </dc:creator>
   </cc:Work>
  </rdf:RDF>
 </metadata>
 <defs>
  <style type="text/css">*{stroke-linejoin: round; stroke-linecap: butt}</style>
 </defs>
 <g id="figure_1">
  <g id="patch_1">
   <path d="M 0 322.851375 
L 415.109375 322.851375 
L 415.109375 0 
L 0 0 
z
" style="fill: #ffffff"/>
  </g>
  <g id="axes_1">
   <g id="patch_2">
    <path d="M 50.789375 286.1835 
L 407.909375 286.1835 
L 407.909375 20.0715 
L 50.789375 20.0715 
z
" style="fill: #ffffff"/>
   </g>
   <g id="matplotlib.axis_1">
    <g id="xtick_1">
     <g id="line2d_1">
      <defs>
       <path id="m700a51342a" d="M 0 0 
L 0 4.8 
" style="stroke: #262626"/>
      </defs>
      <g>
       <use xlink:href="#m700a51342a" x="67.022102" y="286.1835" style="fill: #262626; stroke: #262626"/>
      </g>
     </g>
     <g id="text_1">
      <!-- −2.0 -->
      <g style="fill: #262626" transform="translate(58.336227 300.782375) scale(0.088 -0.088)">
       <defs>
        <path id="ArialMT-2212" d="M 3381 1997 
L 356 1997 
L 356 2522 
L 3381 2522 
L 3381 1997 
z
" transform="scale(0.015625)"/>
        <path id="ArialMT-32" d="M 3222 541 
L 3222 0 
L 194 0 
Q 188 203 259 391 
Q 375 700 629 1000 
Q 884 1300 1366 1694 
Q 2113 2306 2375 2664 
Q 2638 3022 2638 3341 
Q 2638 3675 2398 3904 
Q 2159 4134 1775 4134 
Q 1369 4134 1125 3890 
Q 881 3647 878 3216 
L 300 3275 
Q 359 3922 746 4261 
Q 1134 4600 1788 4600 
Q 2447 4600 2831 4234 
Q 3216 3869 3216 3328 
Q 3216 3053 3103 2787 
Q 2991 2522 2730 2228 
Q 2469 1934 1863 1422 
Q 1356 997 1212 845 
Q 1069 694 975 541 
L 3222 541 
z
" transform="scale(0.015625)"/>
        <path id="ArialMT-2e" d="M 581 0 
L 581 641 
L 1222 641 
L 1222 0 
L 581 0 
z
" transform="scale(0.015625)"/>
        <path id="ArialMT-30" d="M 266 2259 
Q 266 3072 433 3567 
Q 600 4063 929 4331 
Q 1259 4600 1759 4600 
Q 2128 4600 2406 4451 
Q 2684 4303 2865 4023 
Q 3047 3744 3150 3342 
Q 3253 2941 3253 2259 
Q 3253 1453 3087 958 
Q 2922 463 2592 192 
Q 2263 -78 1759 -78 
Q 1097 -78 719 397 
Q 266 969 266 2259 
z
M 844 2259 
Q 844 1131 1108 757 
Q 1372 384 1759 384 
Q 2147 384 2411 759 
Q 2675 1134 2675 2259 
Q 2675 3391 2411 3762 
Q 2147 4134 1753 4134 
Q 1366 4134 1134 3806 
Q 844 3388 844 2259 
z
" transform="scale(0.015625)"/>
       </defs>
       <use xlink:href="#ArialMT-2212"/>
       <use xlink:href="#ArialMT-32" x="58.398438"/>
       <use xlink:href="#ArialMT-2e" x="114.013672"/>
       <use xlink:href="#ArialMT-30" x="141.796875"/>
      </g>
     </g>
    </g>
    <g id="xtick_2">
     <g id="line2d_2">
      <g>
       <use xlink:href="#m700a51342a" x="126.964933" y="286.1835" style="fill: #262626; stroke: #262626"/>
      </g>
     </g>
     <g id="text_2">
      <!-- −1.8 -->
      <g style="fill: #262626" transform="translate(118.279058 300.782375) scale(0.088 -0.088)">
       <defs>
        <path id="ArialMT-31" d="M 2384 0 
L 1822 0 
L 1822 3584 
Q 1619 3391 1289 3197 
Q 959 3003 697 2906 
L 697 3450 
Q 1169 3672 1522 3987 
Q 1875 4303 2022 4600 
L 2384 4600 
L 2384 0 
z
" transform="scale(0.015625)"/>
        <path id="ArialMT-38" d="M 1131 2484 
Q 781 2613 612 2850 
Q 444 3088 444 3419 
Q 444 3919 803 4259 
Q 1163 4600 1759 4600 
Q 2359 4600 2725 4251 
Q 3091 3903 3091 3403 
Q 3091 3084 2923 2848 
Q 2756 2613 2416 2484 
Q 2838 2347 3058 2040 
Q 3278 1734 3278 1309 
Q 3278 722 2862 322 
Q 2447 -78 1769 -78 
Q 1091 -78 675 323 
Q 259 725 259 1325 
Q 259 1772 486 2073 
Q 713 2375 1131 2484 
z
M 1019 3438 
Q 1019 3113 1228 2906 
Q 1438 2700 1772 2700 
Q 2097 2700 2305 2904 
Q 2513 3109 2513 3406 
Q 2513 3716 2298 3927 
Q 2084 4138 1766 4138 
Q 1444 4138 1231 3931 
Q 1019 3725 1019 3438 
z
M 838 1322 
Q 838 1081 952 856 
Q 1066 631 1291 507 
Q 1516 384 1775 384 
Q 2178 384 2440 643 
Q 2703 903 2703 1303 
Q 2703 1709 2433 1975 
Q 2163 2241 1756 2241 
Q 1359 2241 1098 1978 
Q 838 1716 838 1322 
z
" transform="scale(0.015625)"/>
       </defs>
       <use xlink:href="#ArialMT-2212"/>
       <use xlink:href="#ArialMT-31" x="58.398438"/>
       <use xlink:href="#ArialMT-2e" x="114.013672"/>
       <use xlink:href="#ArialMT-38" x="141.796875"/>
      </g>
     </g>
    </g>
    <g id="xtick_3">
     <g id="line2d_3">
      <g>
       <use xlink:href="#m700a51342a" x="186.907764" y="286.1835" style="fill: #262626; stroke: #262626"/>
      </g>
     </g>
     <g id="text_3">
      <!-- −1.6 -->
      <g style="fill: #262626" transform="translate(178.221889 300.782375) scale(0.088 -0.088)">
       <defs>
        <path id="ArialMT-36" d="M 3184 3459 
L 2625 3416 
Q 2550 3747 2413 3897 
Q 2184 4138 1850 4138 
Q 1581 4138 1378 3988 
Q 1113 3794 959 3422 
Q 806 3050 800 2363 
Q 1003 2672 1297 2822 
Q 1591 2972 1913 2972 
Q 2475 2972 2870 2558 
Q 3266 2144 3266 1488 
Q 3266 1056 3080 686 
Q 2894 316 2569 119 
Q 2244 -78 1831 -78 
Q 1128 -78 684 439 
Q 241 956 241 2144 
Q 241 3472 731 4075 
Q 1159 4600 1884 4600 
Q 2425 4600 2770 4297 
Q 3116 3994 3184 3459 
z
M 888 1484 
Q 888 1194 1011 928 
Q 1134 663 1356 523 
Q 1578 384 1822 384 
Q 2178 384 2434 671 
Q 2691 959 2691 1453 
Q 2691 1928 2437 2201 
Q 2184 2475 1800 2475 
Q 1419 2475 1153 2201 
Q 888 1928 888 1484 
z
" transform="scale(0.015625)"/>
       </defs>
       <use xlink:href="#ArialMT-2212"/>
       <use xlink:href="#ArialMT-31" x="58.398438"/>
       <use xlink:href="#ArialMT-2e" x="114.013672"/>
       <use xlink:href="#ArialMT-36" x="141.796875"/>
      </g>
     </g>
    </g>
    <g id="xtick_4">
     <g id="line2d_4">
      <g>
       <use xlink:href="#m700a51342a" x="246.850595" y="286.1835" style="fill: #262626; stroke: #262626"/>
      </g>
     </g>
     <g id="text_4">
      <!-- −1.4 -->
      <g style="fill: #262626" transform="translate(238.16472 300.782375) scale(0.088 -0.088)">
       <defs>
        <path id="ArialMT-34" d="M 2069 0 
L 2069 1097 
L 81 1097 
L 81 1613 
L 2172 4581 
L 2631 4581 
L 2631 1613 
L 3250 1613 
L 3250 1097 
L 2631 1097 
L 2631 0 
L 2069 0 
z
M 2069 1613 
L 2069 3678 
L 634 1613 
L 2069 1613 
z
" transform="scale(0.015625)"/>
       </defs>
       <use xlink:href="#ArialMT-2212"/>
       <use xlink:href="#ArialMT-31" x="58.398438"/>
       <use xlink:href="#ArialMT-2e" x="114.013672"/>
       <use xlink:href="#ArialMT-34" x="141.796875"/>
      </g>
     </g>
    </g>
    <g id="xtick_5">
     <g id="line2d_5">
      <g>
       <use xlink:href="#m700a51342a" x="306.793426" y="286.1835" style="fill: #262626; stroke: #262626"/>
      </g>
     </g>
     <g id="text_5">
      <!-- −1.2 -->
      <g style="fill: #262626" transform="translate(298.107551 300.782375) scale(0.088 -0.088)">
       <use xlink:href="#ArialMT-2212"/>
       <use xlink:href="#ArialMT-31" x="58.398438"/>
       <use xlink:href="#ArialMT-2e" x="114.013672"/>
       <use xlink:href="#ArialMT-32" x="141.796875"/>
      </g>
     </g>
    </g>
    <g id="xtick_6">
     <g id="line2d_6">
      <g>
       <use xlink:href="#m700a51342a" x="366.736256" y="286.1835" style="fill: #262626; stroke: #262626"/>
      </g>
     </g>
     <g id="text_6">
      <!-- −1.0 -->
      <g style="fill: #262626" transform="translate(358.050381 300.782375) scale(0.088 -0.088)">
       <use xlink:href="#ArialMT-2212"/>
       <use xlink:href="#ArialMT-31" x="58.398438"/>
       <use xlink:href="#ArialMT-2e" x="114.013672"/>
       <use xlink:href="#ArialMT-30" x="141.796875"/>
      </g>
     </g>
    </g>
    <g id="text_7">
     <!-- $\theta_0$ -->
     <g style="fill: #262626" transform="translate(224.117375 313.743375) scale(0.096 -0.096)">
      <defs>
       <path id="DejaVuSans-Oblique-3b8" d="M 2913 2219 
L 925 2219 
Q 791 1284 928 888 
Q 1100 400 1566 400 
Q 2034 400 2391 891 
Q 2703 1322 2913 2219 
z
M 3009 2750 
Q 3094 3638 2984 3950 
Q 2813 4444 2353 4444 
Q 1875 4444 1525 3956 
Q 1250 3563 1034 2750 
L 3009 2750 
z
M 2444 4913 
Q 3194 4913 3494 4250 
Q 3794 3591 3566 2422 
Q 3341 1256 2781 594 
Q 2225 -72 1475 -72 
Q 722 -72 425 594 
Q 128 1256 353 2422 
Q 581 3591 1134 4250 
Q 1691 4913 2444 4913 
z
" transform="scale(0.015625)"/>
       <path id="DejaVuSans-30" d="M 2034 4250 
Q 1547 4250 1301 3770 
Q 1056 3291 1056 2328 
Q 1056 1369 1301 889 
Q 1547 409 2034 409 
Q 2525 409 2770 889 
Q 3016 1369 3016 2328 
Q 3016 3291 2770 3770 
Q 2525 4250 2034 4250 
z
M 2034 4750 
Q 2819 4750 3233 4129 
Q 3647 3509 3647 2328 
Q 3647 1150 3233 529 
Q 2819 -91 2034 -91 
Q 1250 -91 836 529 
Q 422 1150 422 2328 
Q 422 3509 836 4129 
Q 1250 4750 2034 4750 
z
" transform="scale(0.015625)"/>
      </defs>
      <use xlink:href="#DejaVuSans-Oblique-3b8" transform="translate(0 0.234375)"/>
      <use xlink:href="#DejaVuSans-30" transform="translate(61.181641 -16.171875) scale(0.7)"/>
     </g>
    </g>
   </g>
   <g id="matplotlib.axis_2">
    <g id="ytick_1">
     <g id="line2d_7">
      <defs>
       <path id="m6cf12b2e60" d="M 0 0 
L -4.8 0 
" style="stroke: #262626"/>
      </defs>
      <g>
       <use xlink:href="#m6cf12b2e60" x="50.789375" y="274.023058" style="fill: #262626; stroke: #262626"/>
      </g>
     </g>
     <g id="text_8">
      <!-- −0.50 -->
      <g style="fill: #262626" transform="translate(20.224 277.172496) scale(0.088 -0.088)">
       <defs>
        <path id="ArialMT-35" d="M 266 1200 
L 856 1250 
Q 922 819 1161 601 
Q 1400 384 1738 384 
Q 2144 384 2425 690 
Q 2706 997 2706 1503 
Q 2706 1984 2436 2262 
Q 2166 2541 1728 2541 
Q 1456 2541 1237 2417 
Q 1019 2294 894 2097 
L 366 2166 
L 809 4519 
L 3088 4519 
L 3088 3981 
L 1259 3981 
L 1013 2750 
Q 1425 3038 1878 3038 
Q 2478 3038 2890 2622 
Q 3303 2206 3303 1553 
Q 3303 931 2941 478 
Q 2500 -78 1738 -78 
Q 1113 -78 717 272 
Q 322 622 266 1200 
z
" transform="scale(0.015625)"/>
       </defs>
       <use xlink:href="#ArialMT-2212"/>
       <use xlink:href="#ArialMT-30" x="58.398438"/>
       <use xlink:href="#ArialMT-2e" x="114.013672"/>
       <use xlink:href="#ArialMT-35" x="141.796875"/>
       <use xlink:href="#ArialMT-30" x="197.412109"/>
      </g>
     </g>
    </g>
    <g id="ytick_2">
     <g id="line2d_8">
      <g>
       <use xlink:href="#m6cf12b2e60" x="50.789375" y="243.883978" style="fill: #262626; stroke: #262626"/>
      </g>
     </g>
     <g id="text_9">
      <!-- −0.25 -->
      <g style="fill: #262626" transform="translate(20.224 247.033416) scale(0.088 -0.088)">
       <use xlink:href="#ArialMT-2212"/>
       <use xlink:href="#ArialMT-30" x="58.398438"/>
       <use xlink:href="#ArialMT-2e" x="114.013672"/>
       <use xlink:href="#ArialMT-32" x="141.796875"/>
       <use xlink:href="#ArialMT-35" x="197.412109"/>
      </g>
     </g>
    </g>
    <g id="ytick_3">
     <g id="line2d_9">
      <g>
       <use xlink:href="#m6cf12b2e60" x="50.789375" y="213.744898" style="fill: #262626; stroke: #262626"/>
      </g>
     </g>
     <g id="text_10">
      <!-- 0.00 -->
      <g style="fill: #262626" transform="translate(25.36375 216.894336) scale(0.088 -0.088)">
       <use xlink:href="#ArialMT-30"/>
       <use xlink:href="#ArialMT-2e" x="55.615234"/>
       <use xlink:href="#ArialMT-30" x="83.398438"/>
       <use xlink:href="#ArialMT-30" x="139.013672"/>
      </g>
     </g>
    </g>
    <g id="ytick_4">
     <g id="line2d_10">
      <g>
       <use xlink:href="#m6cf12b2e60" x="50.789375" y="183.605818" style="fill: #262626; stroke: #262626"/>
      </g>
     </g>
     <g id="text_11">
      <!-- 0.25 -->
      <g style="fill: #262626" transform="translate(25.36375 186.755255) scale(0.088 -0.088)">
       <use xlink:href="#ArialMT-30"/>
       <use xlink:href="#ArialMT-2e" x="55.615234"/>
       <use xlink:href="#ArialMT-32" x="83.398438"/>
       <use xlink:href="#ArialMT-35" x="139.013672"/>
      </g>
     </g>
    </g>
    <g id="ytick_5">
     <g id="line2d_11">
      <g>
       <use xlink:href="#m6cf12b2e60" x="50.789375" y="153.466738" style="fill: #262626; stroke: #262626"/>
      </g>
     </g>
     <g id="text_12">
      <!-- 0.50 -->
      <g style="fill: #262626" transform="translate(25.36375 156.616175) scale(0.088 -0.088)">
       <use xlink:href="#ArialMT-30"/>
       <use xlink:href="#ArialMT-2e" x="55.615234"/>
       <use xlink:href="#ArialMT-35" x="83.398438"/>
       <use xlink:href="#ArialMT-30" x="139.013672"/>
      </g>
     </g>
    </g>
    <g id="ytick_6">
     <g id="line2d_12">
      <g>
       <use xlink:href="#m6cf12b2e60" x="50.789375" y="123.327657" style="fill: #262626; stroke: #262626"/>
      </g>
     </g>
     <g id="text_13">
      <!-- 0.75 -->
      <g style="fill: #262626" transform="translate(25.36375 126.477095) scale(0.088 -0.088)">
       <defs>
        <path id="ArialMT-37" d="M 303 3981 
L 303 4522 
L 3269 4522 
L 3269 4084 
Q 2831 3619 2401 2847 
Q 1972 2075 1738 1259 
Q 1569 684 1522 0 
L 944 0 
Q 953 541 1156 1306 
Q 1359 2072 1739 2783 
Q 2119 3494 2547 3981 
L 303 3981 
z
" transform="scale(0.015625)"/>
       </defs>
       <use xlink:href="#ArialMT-30"/>
       <use xlink:href="#ArialMT-2e" x="55.615234"/>
       <use xlink:href="#ArialMT-37" x="83.398438"/>
       <use xlink:href="#ArialMT-35" x="139.013672"/>
      </g>
     </g>
    </g>
    <g id="ytick_7">
     <g id="line2d_13">
      <g>
       <use xlink:href="#m6cf12b2e60" x="50.789375" y="93.188577" style="fill: #262626; stroke: #262626"/>
      </g>
     </g>
     <g id="text_14">
      <!-- 1.00 -->
      <g style="fill: #262626" transform="translate(25.36375 96.338015) scale(0.088 -0.088)">
       <use xlink:href="#ArialMT-31"/>
       <use xlink:href="#ArialMT-2e" x="55.615234"/>
       <use xlink:href="#ArialMT-30" x="83.398438"/>
       <use xlink:href="#ArialMT-30" x="139.013672"/>
      </g>
     </g>
    </g>
    <g id="ytick_8">
     <g id="line2d_14">
      <g>
       <use xlink:href="#m6cf12b2e60" x="50.789375" y="63.049497" style="fill: #262626; stroke: #262626"/>
      </g>
     </g>
     <g id="text_15">
      <!-- 1.25 -->
      <g style="fill: #262626" transform="translate(25.36375 66.198935) scale(0.088 -0.088)">
       <use xlink:href="#ArialMT-31"/>
       <use xlink:href="#ArialMT-2e" x="55.615234"/>
       <use xlink:href="#ArialMT-32" x="83.398438"/>
       <use xlink:href="#ArialMT-35" x="139.013672"/>
      </g>
     </g>
    </g>
    <g id="ytick_9">
     <g id="line2d_15">
      <g>
       <use xlink:href="#m6cf12b2e60" x="50.789375" y="32.910417" style="fill: #262626; stroke: #262626"/>
      </g>
     </g>
     <g id="text_16">
      <!-- 1.50 -->
      <g style="fill: #262626" transform="translate(25.36375 36.059854) scale(0.088 -0.088)">
       <use xlink:href="#ArialMT-31"/>
       <use xlink:href="#ArialMT-2e" x="55.615234"/>
       <use xlink:href="#ArialMT-35" x="83.398438"/>
       <use xlink:href="#ArialMT-30" x="139.013672"/>
      </g>
     </g>
    </g>
    <g id="text_17">
     <!-- $\theta_1$ -->
     <g style="fill: #262626" transform="translate(14.316 158.3595) rotate(-90) scale(0.096 -0.096)">
      <defs>
       <path id="DejaVuSans-31" d="M 794 531 
L 1825 531 
L 1825 4091 
L 703 3866 
L 703 4441 
L 1819 4666 
L 2450 4666 
L 2450 531 
L 3481 531 
L 3481 0 
L 794 0 
L 794 531 
z
" transform="scale(0.015625)"/>
      </defs>
      <use xlink:href="#DejaVuSans-Oblique-3b8" transform="translate(0 0.234375)"/>
      <use xlink:href="#DejaVuSans-31" transform="translate(61.181641 -16.171875) scale(0.7)"/>
     </g>
    </g>
   </g>
   <g id="PathCollection_1">
    <defs>
     <path id="m3877c63ce8" d="M 0 2.4 
C 0.636487 2.4 1.246992 2.147121 1.697056 1.697056 
C 2.147121 1.246992 2.4 0.636487 2.4 0 
C 2.4 -0.636487 2.147121 -1.246992 1.697056 -1.697056 
C 1.246992 -2.147121 0.636487 -2.4 0 -2.4 
C -0.636487 -2.4 -1.246992 -2.147121 -1.697056 -1.697056 
C -2.147121 -1.246992 -2.4 -0.636487 -2.4 0 
C -2.4 0.636487 -2.147121 1.246992 -1.697056 1.697056 
C -1.246992 2.147121 -0.636487 2.4 0 2.4 
z
" style="stroke: #000000; stroke-width: 0.8"/>
    </defs>
    <g clip-path="url(#p862df9b8fc)">
     <use xlink:href="#m3877c63ce8" x="67.022102" y="32.910417" style="stroke: #000000; stroke-width: 0.8"/>
    </g>
   </g>
   <g id="line2d_16">
    <path d="M 391.676648 274.0875 
L 386.429833 271.815998 
L 384.114166 270.751384 
L 380.562928 268.564907 
L 379.102875 267.572207 
L 378.100506 266.595959 
L 374.971314 264.955737 
L 374.330287 264.078296 
L 373.885304 263.133464 
L 372.185957 261.343833 
L 371.785867 260.432756 
L 370.631311 258.74722 
L 369.807639 257.934199 
L 368.771775 257.151028 
L 366.008641 254.735467 
L 357.562767 250.171908 
L 352.88327 247.265393 
L 352.080732 246.550666 
L 349.846759 243.561191 
L 347.503134 241.863288 
L 341.218739 237.811992 
L 340.09993 236.505551 
L 337.435962 233.887924 
L 335.669677 232.363444 
L 335.258547 231.876322 
L 334.000718 230.917356 
L 331.704326 229.48601 
L 331.304379 228.99003 
L 330.764197 228.054961 
L 329.563212 226.38267 
L 327.546648 224.68713 
L 325.178334 223.107966 
L 323.849262 222.189818 
L 323.359779 221.707007 
L 322.582643 220.37889 
L 322.371451 219.969484 
L 321.258645 219.044071 
L 318.409852 216.763396 
L 317.280003 215.472702 
L 315.115379 213.604018 
L 313.114642 211.931772 
L 309.67779 209.739093 
L 308.520859 209.124104 
L 306.062116 207.294353 
L 302.071719 204.488324 
L 301.50692 203.905167 
L 300.570327 202.433227 
L 297.111181 199.055279 
L 295.639336 197.047215 
L 294.602418 195.888354 
L 294.239343 194.714587 
L 293.408936 192.008409 
L 292.247503 190.802437 
L 287.328874 186.382584 
L 285.377229 185.157764 
L 284.583301 184.583172 
L 284.126045 183.969598 
L 282.741986 182.815759 
L 281.832833 182.260813 
L 281.232805 181.701344 
L 278.460114 180.040513 
L 273.440195 177.382531 
L 272.350469 176.41759 
L 270.999281 175.146304 
L 268.20233 173.753015 
L 259.416747 169.863821 
L 253.957757 167.677682 
L 252.953923 167.10738 
L 251.510626 165.983735 
L 248.936658 164.364348 
L 246.656488 162.881474 
L 245.527639 162.20758 
L 242.914084 160.255106 
L 238.692451 157.806134 
L 237.347765 156.387627 
L 234.179557 153.423307 
L 233.73595 152.908752 
L 230.81159 150.851834 
L 226.096615 148.313537 
L 225.580657 147.914586 
L 223.867072 147.017248 
L 222.255314 146.210371 
L 218.082737 143.757828 
L 210.856319 140.37544 
L 209.522924 139.560493 
L 207.457054 138.420084 
L 204.337473 137.156059 
L 196.698424 134.306096 
L 194.647203 132.98534 
L 192.98789 131.851793 
L 192.254916 131.181552 
L 190.877753 130.25854 
L 189.525278 129.481951 
L 188.253479 127.805696 
L 186.697065 126.260192 
L 187.266652 124.932566 
L 186.729328 123.928096 
L 185.247801 122.92405 
L 181.081797 120.438892 
L 171.429579 115.718681 
L 169.807102 114.181684 
L 169.615239 113.659829 
L 168.196666 112.335394 
L 166.729181 110.572888 
L 165.662215 108.664405 
L 165.077085 107.897948 
L 163.840872 106.601565 
L 162.815172 105.780619 
L 162.589795 105.537088 
L 159.294501 103.632054 
L 154.076894 101.101093 
L 151.957467 99.991985 
L 147.7945 96.463151 
L 147.035372 95.843297 
L 145.825134 94.709643 
L 144.568591 93.934879 
L 138.79283 90.56227 
L 137.52146 89.721656 
L 136.988566 89.11567 
L 136.243622 88.296829 
L 133.810426 86.668804 
L 131.962144 85.693645 
L 128.646662 84.045946 
L 127.635968 83.484583 
L 125.349688 82.485366 
L 123.825215 81.512707 
L 122.722163 80.394294 
L 123.050831 79.63107 
L 122.974193 79.302453 
L 122.516759 78.421268 
L 121.437144 77.787201 
L 119.485713 77.047791 
L 112.833635 74.579856 
L 112.009445 74.014225 
L 109.720842 72.07207 
L 109.08312 71.472192 
L 108.54694 71.009446 
L 107.268531 69.643729 
L 102.799619 67.341971 
L 101.978359 66.960884 
L 101.588666 66.622566 
L 101.668412 65.88386 
L 101.674736 65.510562 
L 101.535251 64.662576 
L 100.481469 63.236484 
L 99.797443 62.67206 
L 98.10333 61.077823 
L 97.332733 60.692223 
L 96.568853 60.345828 
L 95.423963 59.53058 
L 94.825257 59.194906 
L 94.030757 58.732204 
L 93.22654 57.957123 
L 89.449086 55.870449 
L 88.062169 55.113692 
L 88.005574 54.946797 
L 86.259905 53.462529 
L 85.319276 53.067258 
L 84.616742 52.673868 
L 84.433204 52.595975 
L 83.363843 52.22913 
L 82.29534 51.77127 
L 81.866096 51.566822 
L 81.618639 51.331849 
L 81.756587 51.255767 
L 82.673993 50.698457 
L 81.941054 50.199409 
L 81.097107 49.675786 
L 80.232579 48.798539 
L 79.826737 48.524103 
L 79.570597 48.250629 
L 79.286983 47.956977 
L 78.788925 47.672782 
L 78.629753 47.446087 
L 77.792201 47.106044 
L 76.719482 46.781595 
L 76.339543 46.546521 
L 74.995643 45.603181 
L 75.034659 45.547534 
L 75.153921 45.31443 
L 74.997072 45.083165 
L 74.565791 44.837873 
L 74.026966 44.606191 
L 74.094315 44.555891 
L 74.381502 44.196591 
L 73.830172 44.014979 
L 72.975577 43.696695 
L 72.341 43.596871 
L 71.530744 43.495121 
L 71.549609 43.416007 
L 71.665906 43.19552 
L 72.63862 42.909629 
L 72.613038 42.858596 
L 72.409885 42.725818 
L 72.21845 42.517605 
L 72.272687 42.110391 
L 72.458047 41.898656 
L 73.010627 41.580257 
L 72.978829 41.461592 
L 71.617315 41.104908 
L 70.373134 40.830471 
L 70.402717 40.805536 
L 70.710985 40.684083 
L 71.491371 40.465839 
L 71.514452 40.381608 
L 72.241031 40.080483 
L 71.979675 40.084737 
L 71.524956 39.9612 
L 71.597092 39.908543 
L 71.974923 39.833136 
L 71.522884 39.874181 
L 71.552824 39.847335 
L 71.196145 39.635141 
L 71.308333 39.33873 
L 71.185033 39.03111 
L 70.821315 38.871831 
L 70.44577 38.690104 
L 70.523695 38.657381 
L 70.658428 38.553375 
L 70.623163 38.530208 
L 70.649031 38.478313 
L 70.555636 38.435213 
L 70.182843 38.298325 
L 69.519003 38.067433 
L 69.584065 38.060736 
L 69.734483 38.045517 
L 69.578813 37.962349 
L 68.527317 37.936021 
L 69.116305 37.830491 
L 70.632524 37.579193 
L 70.886341 37.475014 
L 72.23903 37.230628 
L 72.155139 37.202589 
L 71.870846 37.121606 
L 71.919973 37.037102 
L 71.907789 36.931415 
L 71.88035 36.889393 
L 71.952129 36.850805 
L 71.98507 36.819504 
L 71.969743 36.816817 
L 71.537318 36.647277 
L 70.402324 36.403537 
L 68.857272 36.275804 
L 68.716179 36.205528 
L 68.784385 36.165072 
L 68.921834 36.13758 
L 68.821972 36.083845 
L 69.017086 35.786529 
L 69.824412 35.614546 
L 69.959431 35.636663 
L 71.485762 35.673684 
L 71.387901 35.554243 
L 71.52392 35.492963 
L 71.383256 35.44972 
L 71.363319 35.430103 
L 71.456178 35.37759 
L 71.486298 35.347295 
L 71.384113 35.338269 
L 71.211472 35.221401 
L 71.18096 35.182598 
L 71.284073 35.152533 
L 71.801925 35.069753 
L 73.082728 35.071521 
L 73.343726 34.964195 
L 73.954294 35.036383 
L 74.265134 35.071507 
L 73.346942 35.05886 
L 73.302424 35.079066 
L 71.322696 34.782785 
L 70.921248 34.620043 
L 69.524077 34.826301 
L 69.812336 34.956392 
L 70.313074 34.97598 
L 73.472385 34.417592 
L 73.076583 34.3853 
L 71.726966 34.185838 
L 69.146067 33.827645 
L 70.272986 34.052141 
L 70.013381 34.07252 
L 69.812372 34.039638 
L 70.103775 33.967594 
L 71.964562 33.90686 
L 72.622685 33.948422 
L 71.282894 33.935445 
L 71.079348 33.946497 
L 71.143802 33.860699 
L 71.03165 33.744549 
L 71.075918 33.684879 
L 71.308547 33.622421 
L 72.250928 33.447319 
L 72.245854 33.423017 
L 72.000041 33.384099 
L 71.675195 33.366221 
L 73.663069 33.269128 
L 74.078559 33.028823 
L 73.994453 32.982691 
L 73.34637 32.990998 
L 71.645862 33.19957 
L 71.431275 33.367989 
L 69.374624 33.828967 
L 67.528164 34.015451 
L 70.610015 33.578803 
L 72.003471 33.235959 
L 72.863854 33.245329 
L 73.09459 33.063803 
L 73.790514 32.914728 
L 73.778473 32.878311 
L 73.451913 32.631525 
L 73.573676 32.428068 
L 74.182708 32.16806 
L 74.046903 32.273518 
L 74.987568 32.552913 
L 74.961772 32.694745 
L 74.965202 32.821918 
L 74.291144 33.066289 
L 70.271057 33.696577 
L 70.856793 33.756262 
L 70.996671 33.842103 
L 70.97209 33.882558 
L 70.704375 34.007575 
L 69.980547 34.036476 
L 69.527078 34.060979 
L 69.912769 33.9351 
L 69.740664 33.713334 
L 69.689393 33.602804 
L 69.505819 33.414696 
L 69.265437 33.231877 
L 69.284766 33.210536 
L 69.685035 33.175412 
L 69.467518 33.099818 
L 69.235675 33.109634 
L 69.274726 33.174205 
L 69.136635 33.224893 
L 68.729613 33.240256 
L 68.746441 33.160839 
L 69.064856 33.010945 
L 69.682212 33.017139 
L 69.622438 32.971424 
L 72.250106 33.204672 
L 72.228026 33.250718 
L 72.316454 33.251566 
L 72.402739 33.248562 
L 72.275045 33.163871 
L 72.461977 33.056603 
L 73.90213 32.77682 
L 76.316712 32.622241 
L 75.758916 32.568147 
L 74.73761 32.590897 
L 71.630999 32.739541 
L 71.354351 32.932491 
L 71.203005 33.126764 
L 71.278857 33.267188 
L 70.796162 33.49062 
L 70.103704 33.449317 
L 69.32003 33.134942 
L 69.735912 33.194986 
L 72.53615 33.443583 
L 73.87662 33.460081 
L 73.876798 33.430792 
L 74.082131 33.21055 
L 73.95951 33.031582 
L 72.238494 32.544491 
L 72.217486 32.51355 
L 72.307272 32.495528 
L 72.383446 32.414042 
L 72.284227 32.404729 
L 71.628391 32.436907 
L 71.698848 32.583496 
L 72.065281 32.866081 
L 72.004828 32.913981 
L 71.314728 33.007352 
L 70.899811 33.027918 
L 70.964087 33.070587 
L 71.037759 33.118889 
L 71.345348 33.152518 
L 71.213366 33.219302 
L 71.51463 33.33916 
L 71.379433 33.393886 
L 71.082099 33.489586 
L 71.198681 33.532068 
L 71.673159 33.618612 
L 72.0049 33.640816 
L 72.004793 33.67229 
L 71.923796 33.707284 
L 72.005007 33.750786 
L 71.485869 33.786859 
L 70.343979 33.378653 
L 69.886473 33.398931 
L 70.400573 33.463545 
L 69.954322 33.310043 
L 69.985692 33.164561 
L 69.699112 32.984027 
L 69.85689 32.722798 
L 71.245629 32.281796 
L 71.52685 32.236109 
L 71.129975 32.347775 
L 71.212115 32.384667 
L 71.367107 32.510072 
L 71.488477 32.738017 
L 71.409588 32.893617 
L 71.123437 33.148451 
L 71.090566 33.285986 
L 71.147732 33.350786 
L 71.147732 33.350786 
" clip-path="url(#p862df9b8fc)" style="fill: none; stroke: #1f77b4; stroke-opacity: 0.5; stroke-width: 0.5; stroke-linecap: round"/>
   </g>
   <g id="patch_3">
    <path d="M 50.789375 274.023058 
L 50.789375 32.910417 
" style="fill: none; stroke: #262626; stroke-linejoin: miter; stroke-linecap: square"/>
   </g>
   <g id="patch_4">
    <path d="M 67.022102 286.1835 
L 366.736256 286.1835 
" style="fill: none; stroke: #262626; stroke-linejoin: miter; stroke-linecap: square"/>
   </g>
   <g id="text_18">
    <!-- Adam path -->
    <g style="fill: #262626" transform="translate(206.136125 14.0715) scale(0.096 -0.096)">
     <defs>
      <path id="ArialMT-41" d="M -9 0 
L 1750 4581 
L 2403 4581 
L 4278 0 
L 3588 0 
L 3053 1388 
L 1138 1388 
L 634 0 
L -9 0 
z
M 1313 1881 
L 2866 1881 
L 2388 3150 
Q 2169 3728 2063 4100 
Q 1975 3659 1816 3225 
L 1313 1881 
z
" transform="scale(0.015625)"/>
      <path id="ArialMT-64" d="M 2575 0 
L 2575 419 
Q 2259 -75 1647 -75 
Q 1250 -75 917 144 
Q 584 363 401 755 
Q 219 1147 219 1656 
Q 219 2153 384 2558 
Q 550 2963 881 3178 
Q 1213 3394 1622 3394 
Q 1922 3394 2156 3267 
Q 2391 3141 2538 2938 
L 2538 4581 
L 3097 4581 
L 3097 0 
L 2575 0 
z
M 797 1656 
Q 797 1019 1065 703 
Q 1334 388 1700 388 
Q 2069 388 2326 689 
Q 2584 991 2584 1609 
Q 2584 2291 2321 2609 
Q 2059 2928 1675 2928 
Q 1300 2928 1048 2622 
Q 797 2316 797 1656 
z
" transform="scale(0.015625)"/>
      <path id="ArialMT-61" d="M 2588 409 
Q 2275 144 1986 34 
Q 1697 -75 1366 -75 
Q 819 -75 525 192 
Q 231 459 231 875 
Q 231 1119 342 1320 
Q 453 1522 633 1644 
Q 813 1766 1038 1828 
Q 1203 1872 1538 1913 
Q 2219 1994 2541 2106 
Q 2544 2222 2544 2253 
Q 2544 2597 2384 2738 
Q 2169 2928 1744 2928 
Q 1347 2928 1158 2789 
Q 969 2650 878 2297 
L 328 2372 
Q 403 2725 575 2942 
Q 747 3159 1072 3276 
Q 1397 3394 1825 3394 
Q 2250 3394 2515 3294 
Q 2781 3194 2906 3042 
Q 3031 2891 3081 2659 
Q 3109 2516 3109 2141 
L 3109 1391 
Q 3109 606 3145 398 
Q 3181 191 3288 0 
L 2700 0 
Q 2613 175 2588 409 
z
M 2541 1666 
Q 2234 1541 1622 1453 
Q 1275 1403 1131 1340 
Q 988 1278 909 1158 
Q 831 1038 831 891 
Q 831 666 1001 516 
Q 1172 366 1500 366 
Q 1825 366 2078 508 
Q 2331 650 2450 897 
Q 2541 1088 2541 1459 
L 2541 1666 
z
" transform="scale(0.015625)"/>
      <path id="ArialMT-6d" d="M 422 0 
L 422 3319 
L 925 3319 
L 925 2853 
Q 1081 3097 1340 3245 
Q 1600 3394 1931 3394 
Q 2300 3394 2536 3241 
Q 2772 3088 2869 2813 
Q 3263 3394 3894 3394 
Q 4388 3394 4653 3120 
Q 4919 2847 4919 2278 
L 4919 0 
L 4359 0 
L 4359 2091 
Q 4359 2428 4304 2576 
Q 4250 2725 4106 2815 
Q 3963 2906 3769 2906 
Q 3419 2906 3187 2673 
Q 2956 2441 2956 1928 
L 2956 0 
L 2394 0 
L 2394 2156 
Q 2394 2531 2256 2718 
Q 2119 2906 1806 2906 
Q 1569 2906 1367 2781 
Q 1166 2656 1075 2415 
Q 984 2175 984 1722 
L 984 0 
L 422 0 
z
" transform="scale(0.015625)"/>
      <path id="ArialMT-20" transform="scale(0.015625)"/>
      <path id="ArialMT-70" d="M 422 -1272 
L 422 3319 
L 934 3319 
L 934 2888 
Q 1116 3141 1344 3267 
Q 1572 3394 1897 3394 
Q 2322 3394 2647 3175 
Q 2972 2956 3137 2557 
Q 3303 2159 3303 1684 
Q 3303 1175 3120 767 
Q 2938 359 2589 142 
Q 2241 -75 1856 -75 
Q 1575 -75 1351 44 
Q 1128 163 984 344 
L 984 -1272 
L 422 -1272 
z
M 931 1641 
Q 931 1000 1190 694 
Q 1450 388 1819 388 
Q 2194 388 2461 705 
Q 2728 1022 2728 1688 
Q 2728 2322 2467 2637 
Q 2206 2953 1844 2953 
Q 1484 2953 1207 2617 
Q 931 2281 931 1641 
z
" transform="scale(0.015625)"/>
      <path id="ArialMT-74" d="M 1650 503 
L 1731 6 
Q 1494 -44 1306 -44 
Q 1000 -44 831 53 
Q 663 150 594 308 
Q 525 466 525 972 
L 525 2881 
L 113 2881 
L 113 3319 
L 525 3319 
L 525 4141 
L 1084 4478 
L 1084 3319 
L 1650 3319 
L 1650 2881 
L 1084 2881 
L 1084 941 
Q 1084 700 1114 631 
Q 1144 563 1211 522 
Q 1278 481 1403 481 
Q 1497 481 1650 503 
z
" transform="scale(0.015625)"/>
      <path id="ArialMT-68" d="M 422 0 
L 422 4581 
L 984 4581 
L 984 2938 
Q 1378 3394 1978 3394 
Q 2347 3394 2619 3248 
Q 2891 3103 3008 2847 
Q 3125 2591 3125 2103 
L 3125 0 
L 2563 0 
L 2563 2103 
Q 2563 2525 2380 2717 
Q 2197 2909 1863 2909 
Q 1613 2909 1392 2779 
Q 1172 2650 1078 2428 
Q 984 2206 984 1816 
L 984 0 
L 422 0 
z
" transform="scale(0.015625)"/>
     </defs>
     <use xlink:href="#ArialMT-41"/>
     <use xlink:href="#ArialMT-64" x="66.699219"/>
     <use xlink:href="#ArialMT-61" x="122.314453"/>
     <use xlink:href="#ArialMT-6d" x="177.929688"/>
     <use xlink:href="#ArialMT-20" x="261.230469"/>
     <use xlink:href="#ArialMT-70" x="289.013672"/>
     <use xlink:href="#ArialMT-61" x="344.628906"/>
     <use xlink:href="#ArialMT-74" x="400.244141"/>
     <use xlink:href="#ArialMT-68" x="428.027344"/>
    </g>
   </g>
   <g id="legend_1">
    <g id="line2d_17">
     <path d="M 332.79175 31.210375 
L 341.59175 31.210375 
L 350.39175 31.210375 
" style="fill: none; stroke: #1f77b4; stroke-opacity: 0.5; stroke-width: 0.5; stroke-linecap: round"/>
    </g>
    <g id="text_19">
     <!-- Adam path -->
     <g style="fill: #262626" transform="translate(357.43175 34.290375) scale(0.088 -0.088)">
      <use xlink:href="#ArialMT-41"/>
      <use xlink:href="#ArialMT-64" x="66.699219"/>
      <use xlink:href="#ArialMT-61" x="122.314453"/>
      <use xlink:href="#ArialMT-6d" x="177.929688"/>
      <use xlink:href="#ArialMT-20" x="261.230469"/>
      <use xlink:href="#ArialMT-70" x="289.013672"/>
      <use xlink:href="#ArialMT-61" x="344.628906"/>
      <use xlink:href="#ArialMT-74" x="400.244141"/>
      <use xlink:href="#ArialMT-68" x="428.027344"/>
     </g>
    </g>
    <g id="PathCollection_2">
     <g>
      <use xlink:href="#m3877c63ce8" x="341.59175" y="44.42825" style="stroke: #000000; stroke-width: 0.8"/>
     </g>
    </g>
    <g id="text_20">
     <!-- True value -->
     <g style="fill: #262626" transform="translate(357.43175 46.73825) scale(0.088 -0.088)">
      <defs>
       <path id="ArialMT-54" d="M 1659 0 
L 1659 4041 
L 150 4041 
L 150 4581 
L 3781 4581 
L 3781 4041 
L 2266 4041 
L 2266 0 
L 1659 0 
z
" transform="scale(0.015625)"/>
       <path id="ArialMT-72" d="M 416 0 
L 416 3319 
L 922 3319 
L 922 2816 
Q 1116 3169 1280 3281 
Q 1444 3394 1641 3394 
Q 1925 3394 2219 3213 
L 2025 2691 
Q 1819 2813 1613 2813 
Q 1428 2813 1281 2702 
Q 1134 2591 1072 2394 
Q 978 2094 978 1738 
L 978 0 
L 416 0 
z
" transform="scale(0.015625)"/>
       <path id="ArialMT-75" d="M 2597 0 
L 2597 488 
Q 2209 -75 1544 -75 
Q 1250 -75 995 37 
Q 741 150 617 320 
Q 494 491 444 738 
Q 409 903 409 1263 
L 409 3319 
L 972 3319 
L 972 1478 
Q 972 1038 1006 884 
Q 1059 663 1231 536 
Q 1403 409 1656 409 
Q 1909 409 2131 539 
Q 2353 669 2445 892 
Q 2538 1116 2538 1541 
L 2538 3319 
L 3100 3319 
L 3100 0 
L 2597 0 
z
" transform="scale(0.015625)"/>
       <path id="ArialMT-65" d="M 2694 1069 
L 3275 997 
Q 3138 488 2766 206 
Q 2394 -75 1816 -75 
Q 1088 -75 661 373 
Q 234 822 234 1631 
Q 234 2469 665 2931 
Q 1097 3394 1784 3394 
Q 2450 3394 2872 2941 
Q 3294 2488 3294 1666 
Q 3294 1616 3291 1516 
L 816 1516 
Q 847 969 1125 678 
Q 1403 388 1819 388 
Q 2128 388 2347 550 
Q 2566 713 2694 1069 
z
M 847 1978 
L 2700 1978 
Q 2663 2397 2488 2606 
Q 2219 2931 1791 2931 
Q 1403 2931 1139 2672 
Q 875 2413 847 1978 
z
" transform="scale(0.015625)"/>
       <path id="ArialMT-76" d="M 1344 0 
L 81 3319 
L 675 3319 
L 1388 1331 
Q 1503 1009 1600 663 
Q 1675 925 1809 1294 
L 2547 3319 
L 3125 3319 
L 1869 0 
L 1344 0 
z
" transform="scale(0.015625)"/>
       <path id="ArialMT-6c" d="M 409 0 
L 409 4581 
L 972 4581 
L 972 0 
L 409 0 
z
" transform="scale(0.015625)"/>
      </defs>
      <use xlink:href="#ArialMT-54"/>
      <use xlink:href="#ArialMT-72" x="57.333984"/>
      <use xlink:href="#ArialMT-75" x="90.634766"/>
      <use xlink:href="#ArialMT-65" x="146.25"/>
      <use xlink:href="#ArialMT-20" x="201.865234"/>
      <use xlink:href="#ArialMT-76" x="229.648438"/>
      <use xlink:href="#ArialMT-61" x="279.648438"/>
      <use xlink:href="#ArialMT-6c" x="335.263672"/>
      <use xlink:href="#ArialMT-75" x="357.480469"/>
      <use xlink:href="#ArialMT-65" x="413.095703"/>
     </g>
    </g>
   </g>
  </g>
 </g>
 <defs>
  <clipPath id="p862df9b8fc">
   <rect x="50.789375" y="20.0715" width="357.12" height="266.112"/>
  </clipPath>
 </defs>
</svg>