<?xml version="1.0" encoding="utf-8" standalone="no"?>
<!DOCTYPE svg PUBLIC "-//W3C//DTD SVG 1.1//EN"
  "http://www.w3.org/Graphics/SVG/1.1/DTD/svg11.dtd">
<svg xmlns:xlink="http://www.w3.org/1999/xlink" width="403.165375pt" height="311.949872pt" viewBox="0 0 403.165375 311.949872" xmlns="http://www.w3.org/2000/svg" version="1.1">
 <metadata>
  <rdf:RDF xmlns:dc="http://purl.org/dc/elements/1.1/" xmlns:cc="http://creativecommons.org/ns#" xmlns:rdf="http://www.w3.org/1999/02/22-rdf-syntax-ns#">
   <cc:Work>
    <dc:type rdf:resource="http://purl.org/dc/dcmitype/StillImage"/>
    <dc:date>2024-01-22T00:01:54.503878</dc:date>
    <dc:format>image/svg+xml</dc:format>
    <dc:creator>
     <cc:Agent>
      <dc:title>Matplotlib v3.8.0, https://matplotlib.org/</dc:title>
     </cc:Agent>
    </dc:creator>
   </cc:Work>
  </rdf:RDF>
 </metadata>
 <defs>
  <style type="text/css">*{stroke-linejoin: round; stroke-linecap: butt}</style>
 </defs>
 <g id="figure_1">
  <g id="patch_1">
   <path d="M 0 311.949872 
L 403.165375 311.949872 
L 403.165375 0 
L 0 0 
z
" style="fill: #ffffff"/>
  </g>
  <g id="axes_1">
   <g id="patch_2">
    <path d="M 38.845375 275.089997 
L 395.965375 275.089997 
L 395.965375 8.977997 
L 38.845375 8.977997 
z
" style="fill: #ffffff"/>
   </g>
   <g id="matplotlib.axis_1">
    <g id="xtick_1">
     <g id="line2d_1">
      <defs>
       <path id="m3401834782" d="M 0 0 
L 0 4.8 
" style="stroke: #262626"/>
      </defs>
      <g>
       <use xlink:href="#m3401834782" x="55.078102" y="275.089997" style="fill: #262626; stroke: #262626"/>
      </g>
     </g>
     <g id="text_1">
      <!-- −3 -->
      <g style="fill: #262626" transform="translate(50.061415 289.688872) scale(0.088 -0.088)">
       <defs>
        <path id="ArialMT-2212" d="M 3381 1997 
L 356 1997 
L 356 2522 
L 3381 2522 
L 3381 1997 
z
" transform="scale(0.015625)"/>
        <path id="ArialMT-33" d="M 269 1209 
L 831 1284 
Q 928 806 1161 595 
Q 1394 384 1728 384 
Q 2125 384 2398 659 
Q 2672 934 2672 1341 
Q 2672 1728 2419 1979 
Q 2166 2231 1775 2231 
Q 1616 2231 1378 2169 
L 1441 2663 
Q 1497 2656 1531 2656 
Q 1891 2656 2178 2843 
Q 2466 3031 2466 3422 
Q 2466 3731 2256 3934 
Q 2047 4138 1716 4138 
Q 1388 4138 1169 3931 
Q 950 3725 888 3313 
L 325 3413 
Q 428 3978 793 4289 
Q 1159 4600 1703 4600 
Q 2078 4600 2393 4439 
Q 2709 4278 2876 4000 
Q 3044 3722 3044 3409 
Q 3044 3113 2884 2869 
Q 2725 2625 2413 2481 
Q 2819 2388 3044 2092 
Q 3269 1797 3269 1353 
Q 3269 753 2831 336 
Q 2394 -81 1725 -81 
Q 1122 -81 723 278 
Q 325 638 269 1209 
z
" transform="scale(0.015625)"/>
       </defs>
       <use xlink:href="#ArialMT-2212"/>
       <use xlink:href="#ArialMT-33" x="58.398438"/>
      </g>
     </g>
    </g>
    <g id="xtick_2">
     <g id="line2d_2">
      <g>
       <use xlink:href="#m3401834782" x="109.187193" y="275.089997" style="fill: #262626; stroke: #262626"/>
      </g>
     </g>
     <g id="text_2">
      <!-- −2 -->
      <g style="fill: #262626" transform="translate(104.170506 289.688872) scale(0.088 -0.088)">
       <defs>
        <path id="ArialMT-32" d="M 3222 541 
L 3222 0 
L 194 0 
Q 188 203 259 391 
Q 375 700 629 1000 
Q 884 1300 1366 1694 
Q 2113 2306 2375 2664 
Q 2638 3022 2638 3341 
Q 2638 3675 2398 3904 
Q 2159 4134 1775 4134 
Q 1369 4134 1125 3890 
Q 881 3647 878 3216 
L 300 3275 
Q 359 3922 746 4261 
Q 1134 4600 1788 4600 
Q 2447 4600 2831 4234 
Q 3216 3869 3216 3328 
Q 3216 3053 3103 2787 
Q 2991 2522 2730 2228 
Q 2469 1934 1863 1422 
Q 1356 997 1212 845 
Q 1069 694 975 541 
L 3222 541 
z
" transform="scale(0.015625)"/>
       </defs>
       <use xlink:href="#ArialMT-2212"/>
       <use xlink:href="#ArialMT-32" x="58.398438"/>
      </g>
     </g>
    </g>
    <g id="xtick_3">
     <g id="line2d_3">
      <g>
       <use xlink:href="#m3401834782" x="163.296284" y="275.089997" style="fill: #262626; stroke: #262626"/>
      </g>
     </g>
     <g id="text_3">
      <!-- −1 -->
      <g style="fill: #262626" transform="translate(158.279597 289.688872) scale(0.088 -0.088)">
       <defs>
        <path id="ArialMT-31" d="M 2384 0 
L 1822 0 
L 1822 3584 
Q 1619 3391 1289 3197 
Q 959 3003 697 2906 
L 697 3450 
Q 1169 3672 1522 3987 
Q 1875 4303 2022 4600 
L 2384 4600 
L 2384 0 
z
" transform="scale(0.015625)"/>
       </defs>
       <use xlink:href="#ArialMT-2212"/>
       <use xlink:href="#ArialMT-31" x="58.398438"/>
      </g>
     </g>
    </g>
    <g id="xtick_4">
     <g id="line2d_4">
      <g>
       <use xlink:href="#m3401834782" x="217.405375" y="275.089997" style="fill: #262626; stroke: #262626"/>
      </g>
     </g>
     <g id="text_4">
      <!-- 0 -->
      <g style="fill: #262626" transform="translate(214.958563 289.688872) scale(0.088 -0.088)">
       <defs>
        <path id="ArialMT-30" d="M 266 2259 
Q 266 3072 433 3567 
Q 600 4063 929 4331 
Q 1259 4600 1759 4600 
Q 2128 4600 2406 4451 
Q 2684 4303 2865 4023 
Q 3047 3744 3150 3342 
Q 3253 2941 3253 2259 
Q 3253 1453 3087 958 
Q 2922 463 2592 192 
Q 2263 -78 1759 -78 
Q 1097 -78 719 397 
Q 266 969 266 2259 
z
M 844 2259 
Q 844 1131 1108 757 
Q 1372 384 1759 384 
Q 2147 384 2411 759 
Q 2675 1134 2675 2259 
Q 2675 3391 2411 3762 
Q 2147 4134 1753 4134 
Q 1366 4134 1134 3806 
Q 844 3388 844 2259 
z
" transform="scale(0.015625)"/>
       </defs>
       <use xlink:href="#ArialMT-30"/>
      </g>
     </g>
    </g>
    <g id="xtick_5">
     <g id="line2d_5">
      <g>
       <use xlink:href="#m3401834782" x="271.514466" y="275.089997" style="fill: #262626; stroke: #262626"/>
      </g>
     </g>
     <g id="text_5">
      <!-- 1 -->
      <g style="fill: #262626" transform="translate(269.067653 289.688872) scale(0.088 -0.088)">
       <use xlink:href="#ArialMT-31"/>
      </g>
     </g>
    </g>
    <g id="xtick_6">
     <g id="line2d_6">
      <g>
       <use xlink:href="#m3401834782" x="325.623557" y="275.089997" style="fill: #262626; stroke: #262626"/>
      </g>
     </g>
     <g id="text_6">
      <!-- 2 -->
      <g style="fill: #262626" transform="translate(323.176744 289.688872) scale(0.088 -0.088)">
       <use xlink:href="#ArialMT-32"/>
      </g>
     </g>
    </g>
    <g id="xtick_7">
     <g id="line2d_7">
      <g>
       <use xlink:href="#m3401834782" x="379.732648" y="275.089997" style="fill: #262626; stroke: #262626"/>
      </g>
     </g>
     <g id="text_7">
      <!-- 3 -->
      <g style="fill: #262626" transform="translate(377.285835 289.688872) scale(0.088 -0.088)">
       <use xlink:href="#ArialMT-33"/>
      </g>
     </g>
    </g>
    <g id="text_8">
     <!-- $\xi$ -->
     <g style="fill: #262626" transform="translate(214.717375 302.733872) scale(0.096 -0.096)">
      <defs>
       <path id="DejaVuSans-Oblique-3be" d="M 2016 397 
Q 2428 394 2628 159 
Q 2844 -88 2772 -463 
Q 2700 -822 2422 -1072 
Q 2119 -1344 1609 -1344 
Q 1656 -1109 1700 -872 
Q 1913 -888 2072 -750 
Q 2194 -641 2216 -525 
Q 2247 -359 2175 -222 
Q 2100 -91 1922 -91 
Q -25 -91 241 1275 
Q 422 2213 1516 2488 
Q 663 2600 822 3413 
Q 941 4028 1678 4284 
L 1028 4284 
L 1141 4863 
L 3606 4863 
L 3494 4284 
Q 1528 4284 1350 3375 
Q 1234 2778 2881 2750 
L 2778 2219 
Q 1009 2288 819 1275 
Q 659 428 2016 397 
z
" transform="scale(0.015625)"/>
      </defs>
      <use xlink:href="#DejaVuSans-Oblique-3be" transform="translate(0 0.015625)"/>
     </g>
    </g>
   </g>
   <g id="matplotlib.axis_2">
    <g id="ytick_1">
     <g id="line2d_8">
      <defs>
       <path id="m14fcd54bd3" d="M 0 0 
L -4.8 0 
" style="stroke: #262626"/>
      </defs>
      <g>
       <use xlink:href="#m14fcd54bd3" x="38.845375" y="273.718557" style="fill: #262626; stroke: #262626"/>
      </g>
     </g>
     <g id="text_9">
      <!-- −8 -->
      <g style="fill: #262626" transform="translate(20.512 276.867994) scale(0.088 -0.088)">
       <defs>
        <path id="ArialMT-38" d="M 1131 2484 
Q 781 2613 612 2850 
Q 444 3088 444 3419 
Q 444 3919 803 4259 
Q 1163 4600 1759 4600 
Q 2359 4600 2725 4251 
Q 3091 3903 3091 3403 
Q 3091 3084 2923 2848 
Q 2756 2613 2416 2484 
Q 2838 2347 3058 2040 
Q 3278 1734 3278 1309 
Q 3278 722 2862 322 
Q 2447 -78 1769 -78 
Q 1091 -78 675 323 
Q 259 725 259 1325 
Q 259 1772 486 2073 
Q 713 2375 1131 2484 
z
M 1019 3438 
Q 1019 3113 1228 2906 
Q 1438 2700 1772 2700 
Q 2097 2700 2305 2904 
Q 2513 3109 2513 3406 
Q 2513 3716 2298 3927 
Q 2084 4138 1766 4138 
Q 1444 4138 1231 3931 
Q 1019 3725 1019 3438 
z
M 838 1322 
Q 838 1081 952 856 
Q 1066 631 1291 507 
Q 1516 384 1775 384 
Q 2178 384 2440 643 
Q 2703 903 2703 1303 
Q 2703 1709 2433 1975 
Q 2163 2241 1756 2241 
Q 1359 2241 1098 1978 
Q 838 1716 838 1322 
z
" transform="scale(0.015625)"/>
       </defs>
       <use xlink:href="#ArialMT-2212"/>
       <use xlink:href="#ArialMT-38" x="58.398438"/>
      </g>
     </g>
    </g>
    <g id="ytick_2">
     <g id="line2d_9">
      <g>
       <use xlink:href="#m14fcd54bd3" x="38.845375" y="240.797417" style="fill: #262626; stroke: #262626"/>
      </g>
     </g>
     <g id="text_10">
      <!-- −6 -->
      <g style="fill: #262626" transform="translate(20.512 243.946854) scale(0.088 -0.088)">
       <defs>
        <path id="ArialMT-36" d="M 3184 3459 
L 2625 3416 
Q 2550 3747 2413 3897 
Q 2184 4138 1850 4138 
Q 1581 4138 1378 3988 
Q 1113 3794 959 3422 
Q 806 3050 800 2363 
Q 1003 2672 1297 2822 
Q 1591 2972 1913 2972 
Q 2475 2972 2870 2558 
Q 3266 2144 3266 1488 
Q 3266 1056 3080 686 
Q 2894 316 2569 119 
Q 2244 -78 1831 -78 
Q 1128 -78 684 439 
Q 241 956 241 2144 
Q 241 3472 731 4075 
Q 1159 4600 1884 4600 
Q 2425 4600 2770 4297 
Q 3116 3994 3184 3459 
z
M 888 1484 
Q 888 1194 1011 928 
Q 1134 663 1356 523 
Q 1578 384 1822 384 
Q 2178 384 2434 671 
Q 2691 959 2691 1453 
Q 2691 1928 2437 2201 
Q 2184 2475 1800 2475 
Q 1419 2475 1153 2201 
Q 888 1928 888 1484 
z
" transform="scale(0.015625)"/>
       </defs>
       <use xlink:href="#ArialMT-2212"/>
       <use xlink:href="#ArialMT-36" x="58.398438"/>
      </g>
     </g>
    </g>
    <g id="ytick_3">
     <g id="line2d_10">
      <g>
       <use xlink:href="#m14fcd54bd3" x="38.845375" y="207.876277" style="fill: #262626; stroke: #262626"/>
      </g>
     </g>
     <g id="text_11">
      <!-- −4 -->
      <g style="fill: #262626" transform="translate(20.512 211.025714) scale(0.088 -0.088)">
       <defs>
        <path id="ArialMT-34" d="M 2069 0 
L 2069 1097 
L 81 1097 
L 81 1613 
L 2172 4581 
L 2631 4581 
L 2631 1613 
L 3250 1613 
L 3250 1097 
L 2631 1097 
L 2631 0 
L 2069 0 
z
M 2069 1613 
L 2069 3678 
L 634 1613 
L 2069 1613 
z
" transform="scale(0.015625)"/>
       </defs>
       <use xlink:href="#ArialMT-2212"/>
       <use xlink:href="#ArialMT-34" x="58.398438"/>
      </g>
     </g>
    </g>
    <g id="ytick_4">
     <g id="line2d_11">
      <g>
       <use xlink:href="#m14fcd54bd3" x="38.845375" y="174.955137" style="fill: #262626; stroke: #262626"/>
      </g>
     </g>
     <g id="text_12">
      <!-- −2 -->
      <g style="fill: #262626" transform="translate(20.512 178.104574) scale(0.088 -0.088)">
       <use xlink:href="#ArialMT-2212"/>
       <use xlink:href="#ArialMT-32" x="58.398438"/>
      </g>
     </g>
    </g>
    <g id="ytick_5">
     <g id="line2d_12">
      <g>
       <use xlink:href="#m14fcd54bd3" x="38.845375" y="142.033997" style="fill: #262626; stroke: #262626"/>
      </g>
     </g>
     <g id="text_13">
      <!-- 0 -->
      <g style="fill: #262626" transform="translate(25.65175 145.183435) scale(0.088 -0.088)">
       <use xlink:href="#ArialMT-30"/>
      </g>
     </g>
    </g>
    <g id="ytick_6">
     <g id="line2d_13">
      <g>
       <use xlink:href="#m14fcd54bd3" x="38.845375" y="109.112857" style="fill: #262626; stroke: #262626"/>
      </g>
     </g>
     <g id="text_14">
      <!-- 2 -->
      <g style="fill: #262626" transform="translate(25.65175 112.262295) scale(0.088 -0.088)">
       <use xlink:href="#ArialMT-32"/>
      </g>
     </g>
    </g>
    <g id="ytick_7">
     <g id="line2d_14">
      <g>
       <use xlink:href="#m14fcd54bd3" x="38.845375" y="76.191717" style="fill: #262626; stroke: #262626"/>
      </g>
     </g>
     <g id="text_15">
      <!-- 4 -->
      <g style="fill: #262626" transform="translate(25.65175 79.341155) scale(0.088 -0.088)">
       <use xlink:href="#ArialMT-34"/>
      </g>
     </g>
    </g>
    <g id="ytick_8">
     <g id="line2d_15">
      <g>
       <use xlink:href="#m14fcd54bd3" x="38.845375" y="43.270577" style="fill: #262626; stroke: #262626"/>
      </g>
     </g>
     <g id="text_16">
      <!-- 6 -->
      <g style="fill: #262626" transform="translate(25.65175 46.420015) scale(0.088 -0.088)">
       <use xlink:href="#ArialMT-36"/>
      </g>
     </g>
    </g>
    <g id="ytick_9">
     <g id="line2d_16">
      <g>
       <use xlink:href="#m14fcd54bd3" x="38.845375" y="10.349437" style="fill: #262626; stroke: #262626"/>
      </g>
     </g>
     <g id="text_17">
      <!-- 8 -->
      <g style="fill: #262626" transform="translate(25.65175 13.498875) scale(0.088 -0.088)">
       <use xlink:href="#ArialMT-38"/>
      </g>
     </g>
    </g>
    <g id="text_18">
     <!-- $e_i(\xi)$ -->
     <g style="fill: #262626" transform="translate(14.496 152.497997) rotate(-90) scale(0.096 -0.096)">
      <defs>
       <path id="DejaVuSans-Oblique-65" d="M 3078 2063 
Q 3088 2113 3092 2166 
Q 3097 2219 3097 2272 
Q 3097 2653 2873 2875 
Q 2650 3097 2266 3097 
Q 1838 3097 1509 2826 
Q 1181 2556 1013 2059 
L 3078 2063 
z
M 3578 1613 
L 903 1613 
Q 884 1494 878 1425 
Q 872 1356 872 1306 
Q 872 872 1139 634 
Q 1406 397 1894 397 
Q 2269 397 2603 481 
Q 2938 566 3225 728 
L 3116 159 
Q 2806 34 2476 -28 
Q 2147 -91 1806 -91 
Q 1078 -91 686 257 
Q 294 606 294 1247 
Q 294 1794 489 2264 
Q 684 2734 1063 3103 
Q 1306 3334 1642 3459 
Q 1978 3584 2356 3584 
Q 2950 3584 3301 3228 
Q 3653 2872 3653 2272 
Q 3653 2128 3634 1964 
Q 3616 1800 3578 1613 
z
" transform="scale(0.015625)"/>
       <path id="DejaVuSans-Oblique-69" d="M 1172 4863 
L 1747 4863 
L 1606 4134 
L 1031 4134 
L 1172 4863 
z
M 909 3500 
L 1484 3500 
L 800 0 
L 225 0 
L 909 3500 
z
" transform="scale(0.015625)"/>
       <path id="DejaVuSans-28" d="M 1984 4856 
Q 1566 4138 1362 3434 
Q 1159 2731 1159 2009 
Q 1159 1288 1364 580 
Q 1569 -128 1984 -844 
L 1484 -844 
Q 1016 -109 783 600 
Q 550 1309 550 2009 
Q 550 2706 781 3412 
Q 1013 4119 1484 4856 
L 1984 4856 
z
" transform="scale(0.015625)"/>
       <path id="DejaVuSans-29" d="M 513 4856 
L 1013 4856 
Q 1481 4119 1714 3412 
Q 1947 2706 1947 2009 
Q 1947 1309 1714 600 
Q 1481 -109 1013 -844 
L 513 -844 
Q 928 -128 1133 580 
Q 1338 1288 1338 2009 
Q 1338 2731 1133 3434 
Q 928 4138 513 4856 
z
" transform="scale(0.015625)"/>
      </defs>
      <use xlink:href="#DejaVuSans-Oblique-65" transform="translate(0 0.015625)"/>
      <use xlink:href="#DejaVuSans-Oblique-69" transform="translate(61.523438 -16.390625) scale(0.7)"/>
      <use xlink:href="#DejaVuSans-28" transform="translate(83.706055 0.015625)"/>
      <use xlink:href="#DejaVuSans-Oblique-3be" transform="translate(122.719727 0.015625)"/>
      <use xlink:href="#DejaVuSans-29" transform="translate(178.481445 0.015625)"/>
     </g>
    </g>
   </g>
   <g id="line2d_17">
    <path d="M 55.078102 125.573427 
L 379.732648 125.573427 
L 379.732648 125.573427 
" clip-path="url(#p45397b4e6e)" style="fill: none; stroke: #1f77b4; stroke-width: 1.2; stroke-linecap: round"/>
   </g>
   <g id="line2d_18">
    <path d="M 55.078102 191.415707 
L 379.732648 92.652287 
L 379.732648 92.652287 
" clip-path="url(#p45397b4e6e)" style="fill: none; stroke: #ff7f0e; stroke-width: 1.2; stroke-linecap: round"/>
   </g>
   <g id="line2d_19">
    <path d="M 55.078102 48.918954 
L 61.902668 57.541972 
L 68.727234 65.794673 
L 75.226834 73.310125 
L 81.72642 80.489675 
L 88.22602 87.333358 
L 94.400627 93.52372 
L 100.575234 99.410953 
L 106.749855 104.995062 
L 112.924462 110.276018 
L 119.099069 115.253841 
L 124.948697 119.690046 
L 130.798325 123.854186 
L 136.64796 127.746261 
L 142.497594 131.36627 
L 148.347228 134.714212 
L 153.871883 137.626341 
L 159.396532 140.29579 
L 164.921178 142.722561 
L 170.445833 144.906658 
L 175.970491 146.848079 
L 181.49514 148.546819 
L 187.019788 150.002882 
L 192.544443 151.21627 
L 197.744113 152.136596 
L 202.943782 152.841955 
L 208.143461 153.332349 
L 213.343137 153.607774 
L 218.542806 153.668234 
L 223.742475 153.513727 
L 228.942144 153.144253 
L 234.141825 152.559811 
L 239.341494 151.760404 
L 244.541162 150.74603 
L 249.740838 149.516688 
L 255.265493 147.974973 
L 260.790142 146.190581 
L 266.314797 144.163511 
L 271.839452 141.893762 
L 277.364094 139.381342 
L 282.888755 136.626236 
L 288.413404 133.628458 
L 293.938053 130.388004 
L 299.787681 126.692425 
L 305.637321 122.724772 
L 311.486956 118.485052 
L 317.336584 113.973271 
L 323.186212 109.189424 
L 329.360826 103.84464 
L 335.535433 98.196731 
L 341.71004 92.245681 
L 347.88466 85.991479 
L 354.384247 79.080636 
L 360.883834 71.833915 
L 367.383433 64.251283 
L 373.88302 56.332784 
L 379.732648 48.918954 
L 379.732648 48.918954 
" clip-path="url(#p45397b4e6e)" style="fill: none; stroke: #2ca02c; stroke-width: 1.2; stroke-linecap: round"/>
   </g>
   <g id="line2d_20">
    <path d="M 55.078102 262.993997 
L 59.302834 250.767066 
L 63.527565 239.258335 
L 67.427317 229.255775 
L 71.327069 219.833704 
L 75.226834 210.977029 
L 79.126586 202.670699 
L 83.026338 194.899616 
L 86.926103 187.648629 
L 90.500875 181.445951 
L 94.075648 175.656014 
L 97.65042 170.267205 
L 101.225193 165.267889 
L 104.799966 160.646438 
L 108.374751 156.39121 
L 111.949524 152.490612 
L 115.524297 148.933004 
L 119.099069 145.70675 
L 122.673842 142.800233 
L 126.248615 140.201823 
L 129.823387 137.899897 
L 133.398166 135.882814 
L 136.972939 134.138962 
L 140.547718 132.656713 
L 144.122497 131.424435 
L 147.69727 130.430505 
L 151.272042 129.663298 
L 154.846821 129.111182 
L 158.746573 128.740527 
L 162.646325 128.596917 
L 166.546074 128.665263 
L 170.770812 128.96098 
L 175.320532 129.515809 
L 179.870243 130.292357 
L 184.744933 131.343179 
L 190.269581 132.771316 
L 196.444195 134.614933 
L 203.593741 136.999811 
L 213.018157 140.402987 
L 232.841908 147.62932 
L 239.991453 149.960389 
L 246.166059 151.74052 
L 251.690714 153.098492 
L 256.56541 154.076922 
L 261.115121 154.777036 
L 265.664838 155.24687 
L 269.889569 155.455998 
L 273.789328 155.437863 
L 277.68908 155.201486 
L 281.588838 154.731771 
L 285.163611 154.083326 
L 288.738383 153.214506 
L 292.313156 152.11368 
L 295.887929 150.769219 
L 299.462708 149.169498 
L 303.037474 147.3029 
L 306.28728 145.364604 
L 309.53708 143.187399 
L 312.786873 140.762555 
L 316.036667 138.081329 
L 319.28646 135.134985 
L 322.861226 131.577382 
L 326.436012 127.676768 
L 330.010784 123.421556 
L 333.585557 118.800105 
L 337.16033 113.800789 
L 340.735102 108.41198 
L 344.309888 102.622015 
L 347.88466 96.419338 
L 351.459433 89.792284 
L 355.359185 82.065113 
L 359.258937 73.803969 
L 363.158689 64.993768 
L 367.058454 55.619356 
L 370.958206 45.665742 
L 374.857958 35.117762 
L 378.75771 23.960345 
L 379.732648 21.073997 
L 379.732648 21.073997 
" clip-path="url(#p45397b4e6e)" style="fill: none; stroke: #d62728; stroke-width: 1.2; stroke-linecap: round"/>
   </g>
   <g id="line2d_21">
    <path d="M 55.078102 41.234002 
L 58.002916 53.845872 
L 60.92773 65.553049 
L 63.852544 76.392766 
L 66.777358 86.401456 
L 69.702172 95.614971 
L 72.626999 104.068415 
L 75.551813 111.796167 
L 78.151648 118.083359 
L 80.751482 123.847092 
L 83.351317 129.110139 
L 85.951152 133.894914 
L 88.550986 138.223338 
L 91.150834 142.116961 
L 93.750668 145.59683 
L 96.350503 148.683612 
L 98.950338 151.397535 
L 101.550172 153.758396 
L 104.150007 155.785576 
L 106.749855 157.498001 
L 109.349689 158.914173 
L 111.949524 160.05218 
L 114.549359 160.929664 
L 117.149193 161.563848 
L 119.749028 161.971518 
L 122.348863 162.169035 
L 125.273677 162.159853 
L 128.198491 161.926879 
L 131.448284 161.431469 
L 134.698084 160.714367 
L 138.272856 159.701982 
L 142.172615 158.370002 
L 146.722332 156.571682 
L 151.922001 154.273045 
L 159.071553 150.846212 
L 176.62045 142.323223 
L 182.795057 139.63979 
L 187.994726 137.616784 
L 192.869423 135.957237 
L 197.419133 134.641958 
L 201.643865 133.640396 
L 205.868606 132.863523 
L 210.093337 132.321029 
L 213.993095 132.03412 
L 217.892847 131.955634 
L 221.792599 132.086387 
L 225.692351 132.425019 
L 229.917087 133.022305 
L 234.141825 133.851996 
L 238.366556 134.903719 
L 242.916267 136.269249 
L 247.790962 137.977341 
L 252.990638 140.044924 
L 258.840266 142.62039 
L 265.989817 146.023435 
L 285.48859 155.44953 
L 290.688259 157.628051 
L 294.912991 159.173477 
L 298.812749 160.371591 
L 302.387515 161.238352 
L 305.637321 161.803192 
L 308.562129 162.105991 
L 311.486956 162.192189 
L 314.411763 162.039973 
L 317.011598 161.686358 
L 319.611433 161.110354 
L 322.211267 160.295297 
L 324.811102 159.224062 
L 327.41095 157.879099 
L 329.685805 156.463614 
L 331.96066 154.812502 
L 334.235516 152.913211 
L 336.510371 150.752912 
L 338.785226 148.318558 
L 341.385061 145.183762 
L 343.984895 141.653327 
L 346.584743 137.706504 
L 349.184578 133.322213 
L 351.784412 128.478872 
L 354.384247 123.15445 
L 356.984082 117.326551 
L 359.583916 110.972311 
L 362.183751 104.068415 
L 364.783586 96.591172 
L 367.708412 87.463812 
L 370.633226 77.545216 
L 373.55804 66.799622 
L 376.482854 55.190659 
L 379.407668 42.681172 
L 379.732648 41.234002 
L 379.732648 41.234002 
" clip-path="url(#p45397b4e6e)" style="fill: none; stroke: #9467bd; stroke-width: 1.2; stroke-linecap: round"/>
   </g>
   <g id="line2d_22">
    <path d="M 55.078102 169.081472 
L 57.352958 160.074585 
L 59.627813 151.971254 
L 61.902668 144.720333 
L 64.177524 138.272406 
L 66.1274 133.348392 
L 68.077276 128.950018 
L 70.027152 125.048891 
L 71.97704 121.617484 
L 73.926916 118.629232 
L 75.876792 116.058178 
L 77.826668 113.879332 
L 79.776544 112.068422 
L 81.72642 110.601997 
L 83.676309 109.457338 
L 85.626185 108.612561 
L 87.576061 108.046451 
L 89.525937 107.738566 
L 91.475813 107.669216 
L 93.425689 107.819411 
L 95.375565 108.170846 
L 97.65042 108.811804 
L 99.925276 109.676053 
L 102.52511 110.904492 
L 105.449937 112.550449 
L 108.699731 114.65057 
L 112.599483 117.463997 
L 117.474173 121.290975 
L 125.923635 128.280519 
L 133.398166 134.349179 
L 138.597842 138.285297 
L 143.147553 141.44248 
L 147.047311 143.892006 
L 150.947063 146.076303 
L 154.521842 147.828196 
L 158.096615 149.328981 
L 161.671387 150.571483 
L 164.921178 151.473968 
L 168.170971 152.16012 
L 171.420771 152.632198 
L 174.670574 152.894593 
L 178.245346 152.948722 
L 181.820119 152.767987 
L 185.394892 152.365952 
L 189.294643 151.693631 
L 193.194402 150.800107 
L 197.419133 149.612507 
L 202.293823 148.004066 
L 208.143461 145.816979 
L 216.267951 142.50766 
L 228.292186 137.620906 
L 234.141825 135.50271 
L 239.016515 133.973799 
L 243.241246 132.870307 
L 247.141003 132.06595 
L 251.040755 131.492826 
L 254.615534 131.18955 
L 258.190307 131.114033 
L 261.76508 131.278743 
L 265.014879 131.645303 
L 268.264673 132.223996 
L 271.514466 133.018171 
L 274.764259 134.028963 
L 278.014053 135.255165 
L 281.588838 136.848302 
L 285.163611 138.688951 
L 289.063363 140.964212 
L 292.963115 143.496558 
L 297.187846 146.496544 
L 302.062542 150.230883 
L 308.562129 155.517768 
L 320.586377 165.359144 
L 324.811102 168.51079 
L 328.385888 170.914837 
L 331.310702 172.643648 
L 334.235516 174.10761 
L 336.83535 175.145774 
L 339.110206 175.820247 
L 341.385061 176.248583 
L 343.334937 176.398778 
L 345.284813 176.329428 
L 347.234702 176.021535 
L 349.184578 175.455429 
L 350.809474 174.771684 
L 352.434371 173.882199 
L 354.059268 172.774397 
L 355.684164 171.43536 
L 357.309061 169.851725 
L 359.258937 167.609196 
L 361.208813 164.970411 
L 363.158689 161.910076 
L 365.108565 158.402318 
L 367.058454 154.420181 
L 369.00833 149.936185 
L 370.958206 144.921776 
L 372.908082 139.347661 
L 375.182937 132.09674 
L 377.457792 123.993409 
L 379.732648 114.986522 
L 379.732648 114.986522 
" clip-path="url(#p45397b4e6e)" style="fill: none; stroke: #8c564b; stroke-width: 1.2; stroke-linecap: round"/>
   </g>
   <g id="line2d_23">
    <path d="M 55.078102 200.925122 
L 56.37802 202.360486 
L 57.677937 203.495206 
L 58.977854 204.346839 
L 60.277772 204.932321 
L 61.577689 205.267956 
L 62.877606 205.369664 
L 64.177524 205.252694 
L 65.477441 204.931779 
L 67.102338 204.265602 
L 68.727234 203.329764 
L 70.352131 202.149807 
L 72.30202 200.445794 
L 74.576875 198.110808 
L 76.85173 195.458572 
L 79.776544 191.67089 
L 83.026338 187.08483 
L 87.576061 180.239295 
L 100.900214 159.903933 
L 105.124958 154.00389 
L 108.699731 149.382515 
L 111.949524 145.522661 
L 115.199317 142.018125 
L 118.124131 139.185337 
L 121.048945 136.66757 
L 123.64878 134.698711 
L 126.248615 132.984584 
L 128.848449 131.524085 
L 131.448284 130.313944 
L 134.048125 129.348934 
L 136.64796 128.622014 
L 139.247801 128.124541 
L 141.847635 127.846427 
L 144.447476 127.776289 
L 147.37229 127.930388 
L 150.297104 128.312634 
L 153.546898 128.979962 
L 156.796697 129.874034 
L 160.37147 131.082717 
L 164.596198 132.759639 
L 169.470895 134.942183 
L 176.945429 138.570369 
L 186.694809 143.27754 
L 191.894485 145.547429 
L 196.444195 147.298205 
L 200.668927 148.67837 
L 204.568679 149.711109 
L 208.143461 150.434799 
L 211.71824 150.931901 
L 215.293013 151.193685 
L 218.867785 151.215576 
L 222.442558 150.99719 
L 226.017331 150.542345 
L 229.592103 149.859021 
L 233.166887 148.959289 
L 237.066639 147.749936 
L 241.29137 146.201184 
L 246.166059 144.157209 
L 252.015693 141.439677 
L 270.539528 132.622553 
L 274.764259 130.964134 
L 278.664011 129.67854 
L 281.913805 128.827393 
L 285.163611 128.209006 
L 288.088425 127.875728 
L 291.013239 127.77499 
L 293.613073 127.895994 
L 296.212908 128.22793 
L 298.812749 128.78187 
L 301.412584 129.567559 
L 304.012418 130.593259 
L 306.612253 131.865571 
L 309.212094 133.389261 
L 311.811929 135.167059 
L 314.411763 137.19949 
L 317.336584 139.787908 
L 320.261391 142.689492 
L 323.186212 145.893076 
L 326.436012 149.787014 
L 330.010784 154.441937 
L 333.910536 159.903933 
L 338.460247 166.668221 
L 347.234702 180.239331 
L 352.434371 188.027591 
L 356.009144 192.974721 
L 358.933958 196.630472 
L 361.208813 199.153725 
L 363.483668 201.334797 
L 365.433544 202.885699 
L 367.058454 203.922157 
L 368.68335 204.699346 
L 370.308247 205.19102 
L 371.608164 205.360355 
L 372.908082 205.314756 
L 374.207999 205.039004 
L 375.507916 204.517551 
L 376.807834 203.733988 
L 378.107751 202.671637 
L 379.407668 201.313161 
L 379.732648 200.925122 
L 379.732648 200.925122 
" clip-path="url(#p45397b4e6e)" style="fill: none; stroke: #e377c2; stroke-width: 1.2; stroke-linecap: round"/>
   </g>
   <g id="line2d_24">
    <path d="M 55.078102 50.216638 
L 58.977854 61.814228 
L 72.626999 103.145642 
L 76.201772 112.972803 
L 79.451565 121.265118 
L 82.376379 128.138105 
L 84.976227 133.743135 
L 87.576061 138.852417 
L 90.175896 143.453807 
L 92.450751 147.058912 
L 94.725606 150.271253 
L 97.000462 153.09435 
L 99.275317 155.534714 
L 101.225193 157.328729 
L 103.175069 158.855453 
L 105.124958 160.123178 
L 107.074834 161.141218 
L 109.02471 161.919726 
L 110.974586 162.469716 
L 112.924462 162.80285 
L 114.874338 162.931319 
L 117.149193 162.839428 
L 119.424049 162.506958 
L 121.698904 161.955155 
L 124.298739 161.08355 
L 126.898573 159.985952 
L 129.823387 158.521212 
L 133.398166 156.464185 
L 137.622898 153.758666 
L 144.122497 149.292514 
L 152.24698 143.751567 
L 156.796697 140.90613 
L 160.696449 138.710054 
L 164.271219 136.938435 
L 167.521012 135.554406 
L 170.770812 134.403871 
L 174.020615 133.498873 
L 176.945429 132.900295 
L 179.870243 132.508294 
L 182.795057 132.32171 
L 186.04485 132.350278 
L 189.294643 132.617819 
L 192.544443 133.110877 
L 196.119216 133.893273 
L 199.693989 134.900661 
L 203.91872 136.338206 
L 208.793419 138.256845 
L 215.293013 141.085022 
L 226.992268 146.212906 
L 231.866963 148.082583 
L 236.091701 149.462669 
L 239.666474 150.41164 
L 243.241246 151.127766 
L 246.491045 151.554801 
L 249.740838 151.751891 
L 252.990638 151.70672 
L 255.915452 151.451976 
L 258.840266 150.991096 
L 261.76508 150.323919 
L 265.014879 149.344291 
L 268.264673 148.122221 
L 271.514466 146.671238 
L 275.089245 144.833071 
L 278.988997 142.575191 
L 283.538714 139.675236 
L 290.038301 135.228583 
L 298.812749 129.241017 
L 303.037474 126.637027 
L 306.28728 124.86845 
L 309.212094 123.507012 
L 311.811929 122.518378 
L 314.411763 121.771915 
L 316.686625 121.34282 
L 318.961474 121.145262 
L 320.91135 121.176105 
L 322.861226 121.405329 
L 324.811102 121.84541 
L 326.760991 122.508284 
L 328.710867 123.405212 
L 330.660743 124.546876 
L 332.610619 125.942959 
L 334.560495 127.602384 
L 336.510371 129.532842 
L 338.460247 131.740881 
L 340.735102 134.674623 
L 343.009957 137.998968 
L 345.284813 141.716543 
L 347.559681 145.826651 
L 350.159516 150.998752 
L 352.75935 156.664388 
L 355.684164 163.602013 
L 358.933958 171.959679 
L 362.50873 181.848111 
L 366.733474 194.280109 
L 373.233061 214.263214 
L 378.75771 231.016858 
L 379.732648 233.851356 
L 379.732648 233.851356 
" clip-path="url(#p45397b4e6e)" style="fill: none; stroke: #7f7f7f; stroke-width: 1.2; stroke-linecap: round"/>
   </g>
   <g id="line2d_25">
    <path d="M 55.078102 184.33341 
L 57.677937 172.372378 
L 60.277772 161.471591 
L 62.552627 152.823158 
L 64.827482 145.011474 
L 67.102338 138.033752 
L 69.052214 132.708029 
L 71.00209 127.975593 
L 72.951978 123.821948 
L 74.901854 120.229538 
L 76.526751 117.650345 
L 78.151648 115.434229 
L 79.776544 113.567516 
L 81.401441 112.035719 
L 83.026338 110.823663 
L 84.651234 109.915621 
L 86.276144 109.29527 
L 87.901028 108.946293 
L 89.525937 108.851654 
L 91.150834 108.994553 
L 92.775731 109.357786 
L 94.400627 109.924504 
L 96.350503 110.849084 
L 98.300379 112.013151 
L 100.575234 113.63572 
L 103.175069 115.784746 
L 106.099896 118.501941 
L 109.674669 122.132159 
L 115.524297 128.446544 
L 122.348863 135.752351 
L 126.573594 139.939999 
L 130.148366 143.160313 
L 133.398166 145.774405 
L 136.32298 147.840881 
L 139.247801 149.616351 
L 141.847635 150.9399 
L 144.447476 152.01865 
L 147.047311 152.851353 
L 149.647146 153.440175 
L 152.24698 153.790391 
L 154.846821 153.910198 
L 157.446656 153.810416 
L 160.046491 153.504245 
L 162.971305 152.932221 
L 165.896116 152.142907 
L 169.145909 151.043837 
L 173.045677 149.470711 
L 177.595388 147.376459 
L 184.744933 143.795034 
L 192.544443 139.949041 
L 197.094154 137.942534 
L 200.993906 136.449949 
L 204.568679 135.310197 
L 207.818482 134.490475 
L 211.068281 133.895577 
L 214.318075 133.538462 
L 217.567868 133.426869 
L 220.492682 133.538463 
L 223.742475 133.895579 
L 226.992268 134.490475 
L 230.242067 135.310196 
L 233.816846 136.449949 
L 237.716598 137.942535 
L 241.941329 139.797975 
L 247.465982 142.479881 
L 260.465162 148.896249 
L 264.6899 150.674155 
L 268.264673 151.940658 
L 271.514466 152.854777 
L 274.439286 153.452203 
L 277.364094 153.810416 
L 279.963929 153.910198 
L 282.563763 153.790393 
L 285.163611 153.440173 
L 287.763445 152.851354 
L 290.36328 152.018646 
L 292.963115 150.9399 
L 295.562949 149.616351 
L 298.16279 148.052812 
L 301.087598 146.017854 
L 304.012418 143.708426 
L 307.262212 140.850996 
L 310.836997 137.404949 
L 315.386708 132.675033 
L 329.035846 118.186952 
L 331.96066 115.501005 
L 334.560495 113.388049 
L 336.83535 111.803742 
L 338.785226 110.677599 
L 340.735102 109.795688 
L 342.684978 109.187164 
L 344.309888 108.909984 
L 345.934771 108.860056 
L 347.559681 109.054429 
L 349.184578 109.509913 
L 350.809474 110.243354 
L 352.434371 111.271141 
L 354.059268 112.609223 
L 355.684164 114.273154 
L 357.309061 116.277965 
L 358.933958 118.63776 
L 360.558854 121.365933 
L 362.183751 124.474811 
L 364.133627 128.723748 
L 366.083516 133.55408 
L 368.033392 138.979887 
L 369.983268 145.011474 
L 372.258123 152.823158 
L 374.532978 161.471591 
L 376.807834 170.951027 
L 379.407668 182.781516 
L 379.732648 184.33341 
L 379.732648 184.33341 
" clip-path="url(#p45397b4e6e)" style="fill: none; stroke: #bcbd22; stroke-width: 1.2; stroke-linecap: round"/>
   </g>
   <g id="line2d_26">
    <path d="M 55.078102 186.300824 
L 56.702999 189.766245 
L 58.002916 192.057238 
L 59.302834 193.941012 
L 60.602751 195.436771 
L 61.902668 196.56383 
L 63.202586 197.342177 
L 64.502503 197.791667 
L 65.80242 197.931513 
L 67.102338 197.781655 
L 68.402255 197.361251 
L 69.702172 196.689897 
L 71.00209 195.786464 
L 72.626999 194.359172 
L 74.251896 192.63447 
L 76.201772 190.220601 
L 78.476627 187.003546 
L 81.076462 182.905401 
L 84.326268 177.330362 
L 89.525937 167.875285 
L 96.025524 156.148967 
L 99.600296 150.143122 
L 102.85009 145.121806 
L 105.774917 141.033034 
L 108.374751 137.780635 
L 110.649607 135.249445 
L 112.924462 133.023216 
L 115.199317 131.108152 
L 117.474173 129.506206 
L 119.424049 128.381015 
L 121.373925 127.481248 
L 123.323801 126.801879 
L 125.273677 126.336195 
L 127.223553 126.076041 
L 129.173429 126.011937 
L 131.448284 126.170644 
L 133.723146 126.562955 
L 135.998001 127.16859 
L 138.597842 128.094285 
L 141.522656 129.393093 
L 144.772456 131.097596 
L 148.672208 133.411925 
L 154.521842 137.18762 
L 162.646325 142.406392 
L 166.871054 144.847696 
L 170.445833 146.66676 
L 173.695636 148.080437 
L 176.62045 149.132652 
L 179.545264 149.960242 
L 182.470078 150.552917 
L 185.394892 150.905481 
L 188.319705 151.017742 
L 191.244526 150.894341 
L 194.16934 150.544539 
L 197.094154 149.981921 
L 200.343947 149.128692 
L 203.91872 147.946936 
L 207.818482 146.419424 
L 212.693178 144.260096 
L 228.617165 136.9858 
L 232.516928 135.55492 
L 236.091701 134.484278 
L 239.341494 133.74819 
L 242.266308 133.301881 
L 245.191121 133.07645 
L 248.115941 133.083118 
L 251.040755 133.328611 
L 253.965576 133.814915 
L 256.89039 134.539064 
L 259.815204 135.493045 
L 263.064997 136.806432 
L 266.314797 138.361844 
L 269.889569 140.312766 
L 274.114301 142.869883 
L 280.938879 147.308018 
L 287.438466 151.453476 
L 291.338218 153.681078 
L 294.588011 155.282865 
L 297.512832 156.465791 
L 300.112666 157.270381 
L 302.387515 157.756672 
L 304.662377 158.01788 
L 306.937239 158.034595 
L 308.887121 157.840925 
L 310.836997 157.444702 
L 312.786873 156.837413 
L 314.736749 156.011738 
L 316.686625 154.962144 
L 318.636501 153.684715 
L 320.91135 151.903832 
L 323.186212 149.810429 
L 325.461061 147.408931 
L 327.735929 144.70792 
L 330.335764 141.271667 
L 333.260578 136.994119 
L 336.510371 131.792894 
L 340.085144 125.636175 
L 345.284813 116.192709 
L 351.784412 104.460081 
L 355.034206 99.06451 
L 357.63404 95.177926 
L 359.908896 92.198964 
L 361.858772 90.031008 
L 363.483668 88.541446 
L 365.108565 87.378081 
L 366.408482 86.706712 
L 367.708412 86.286339 
L 369.00833 86.136481 
L 369.983268 86.213292 
L 370.958206 86.461117 
L 371.933144 86.888829 
L 372.908082 87.504164 
L 374.207999 88.631223 
L 375.507916 90.126982 
L 376.807834 92.010756 
L 378.107751 94.301749 
L 379.407668 97.018967 
L 379.732648 97.76717 
L 379.732648 97.76717 
" clip-path="url(#p45397b4e6e)" style="fill: none; stroke: #17becf; stroke-width: 1.2; stroke-linecap: round"/>
   </g>
   <g id="patch_3">
    <path d="M 38.845375 275.089997 
L 38.845375 8.977997 
" style="fill: none; stroke: #262626; stroke-linejoin: miter; stroke-linecap: square"/>
   </g>
   <g id="patch_4">
    <path d="M 395.965375 275.089997 
L 395.965375 8.977997 
" style="fill: none; stroke: #262626; stroke-linejoin: miter; stroke-linecap: square"/>
   </g>
   <g id="patch_5">
    <path d="M 38.845375 275.089997 
L 395.965375 275.089997 
" style="fill: none; stroke: #262626; stroke-linejoin: miter; stroke-linecap: square"/>
   </g>
   <g id="patch_6">
    <path d="M 38.845375 8.977997 
L 395.965375 8.977997 
" style="fill: none; stroke: #262626; stroke-linejoin: miter; stroke-linecap: square"/>
   </g>
  </g>
 </g>
 <defs>
  <clipPath id="p45397b4e6e">
   <rect x="38.845375" y="8.977997" width="357.12" height="266.112"/>
  </clipPath>
 </defs>
</svg>