<?xml version="1.0" encoding="utf-8" standalone="no"?>
<!DOCTYPE svg PUBLIC "-//W3C//DTD SVG 1.1//EN"
  "http://www.w3.org/Graphics/SVG/1.1/DTD/svg11.dtd">
<svg xmlns:xlink="http://www.w3.org/1999/xlink" width="409.97125pt" height="309.639375pt" viewBox="0 0 409.97125 309.639375" xmlns="http://www.w3.org/2000/svg" version="1.1">
 <metadata>
  <rdf:RDF xmlns:dc="http://purl.org/dc/elements/1.1/" xmlns:cc="http://creativecommons.org/ns#" xmlns:rdf="http://www.w3.org/1999/02/22-rdf-syntax-ns#">
   <cc:Work>
    <dc:type rdf:resource="http://purl.org/dc/dcmitype/StillImage"/>
    <dc:date>2024-03-18T13:01:56.719857</dc:date>
    <dc:format>image/svg+xml</dc:format>
    <dc:creator>
     <cc:Agent>
      <dc:title>Matplotlib v3.8.0, https://matplotlib.org/</dc:title>
     </cc:Agent>
    </dc:creator>
   </cc:Work>
  </rdf:RDF>
 </metadata>
 <defs>
  <style type="text/css">*{stroke-linejoin: round; stroke-linecap: butt}</style>
 </defs>
 <g id="figure_1">
  <g id="patch_1">
   <path d="M 0 309.639375 
L 409.97125 309.639375 
L 409.97125 0 
L 0 0 
z
" style="fill: #ffffff"/>
  </g>
  <g id="axes_1">
   <g id="patch_2">
    <path d="M 45.65125 273.312 
L 402.77125 273.312 
L 402.77125 7.2 
L 45.65125 7.2 
z
" style="fill: #ffffff"/>
   </g>
   <g id="matplotlib.axis_1">
    <g id="xtick_1">
     <g id="line2d_1">
      <defs>
       <path id="m4ffae5118e" d="M 0 0 
L 0 4.8 
" style="stroke: #262626"/>
      </defs>
      <g>
       <use xlink:href="#m4ffae5118e" x="61.883977" y="273.312" style="fill: #262626; stroke: #262626"/>
      </g>
     </g>
     <g id="text_1">
      <!-- −1.00 -->
      <g style="fill: #262626" transform="translate(50.75129 287.910875) scale(0.088 -0.088)">
       <defs>
        <path id="ArialMT-2212" d="M 3381 1997 
L 356 1997 
L 356 2522 
L 3381 2522 
L 3381 1997 
z
" transform="scale(0.015625)"/>
        <path id="ArialMT-31" d="M 2384 0 
L 1822 0 
L 1822 3584 
Q 1619 3391 1289 3197 
Q 959 3003 697 2906 
L 697 3450 
Q 1169 3672 1522 3987 
Q 1875 4303 2022 4600 
L 2384 4600 
L 2384 0 
z
" transform="scale(0.015625)"/>
        <path id="ArialMT-2e" d="M 581 0 
L 581 641 
L 1222 641 
L 1222 0 
L 581 0 
z
" transform="scale(0.015625)"/>
        <path id="ArialMT-30" d="M 266 2259 
Q 266 3072 433 3567 
Q 600 4063 929 4331 
Q 1259 4600 1759 4600 
Q 2128 4600 2406 4451 
Q 2684 4303 2865 4023 
Q 3047 3744 3150 3342 
Q 3253 2941 3253 2259 
Q 3253 1453 3087 958 
Q 2922 463 2592 192 
Q 2263 -78 1759 -78 
Q 1097 -78 719 397 
Q 266 969 266 2259 
z
M 844 2259 
Q 844 1131 1108 757 
Q 1372 384 1759 384 
Q 2147 384 2411 759 
Q 2675 1134 2675 2259 
Q 2675 3391 2411 3762 
Q 2147 4134 1753 4134 
Q 1366 4134 1134 3806 
Q 844 3388 844 2259 
z
" transform="scale(0.015625)"/>
       </defs>
       <use xlink:href="#ArialMT-2212"/>
       <use xlink:href="#ArialMT-31" x="58.398438"/>
       <use xlink:href="#ArialMT-2e" x="114.013672"/>
       <use xlink:href="#ArialMT-30" x="141.796875"/>
       <use xlink:href="#ArialMT-30" x="197.412109"/>
      </g>
     </g>
    </g>
    <g id="xtick_2">
     <g id="line2d_2">
      <g>
       <use xlink:href="#m4ffae5118e" x="102.465795" y="273.312" style="fill: #262626; stroke: #262626"/>
      </g>
     </g>
     <g id="text_2">
      <!-- −0.75 -->
      <g style="fill: #262626" transform="translate(91.333108 287.910875) scale(0.088 -0.088)">
       <defs>
        <path id="ArialMT-37" d="M 303 3981 
L 303 4522 
L 3269 4522 
L 3269 4084 
Q 2831 3619 2401 2847 
Q 1972 2075 1738 1259 
Q 1569 684 1522 0 
L 944 0 
Q 953 541 1156 1306 
Q 1359 2072 1739 2783 
Q 2119 3494 2547 3981 
L 303 3981 
z
" transform="scale(0.015625)"/>
        <path id="ArialMT-35" d="M 266 1200 
L 856 1250 
Q 922 819 1161 601 
Q 1400 384 1738 384 
Q 2144 384 2425 690 
Q 2706 997 2706 1503 
Q 2706 1984 2436 2262 
Q 2166 2541 1728 2541 
Q 1456 2541 1237 2417 
Q 1019 2294 894 2097 
L 366 2166 
L 809 4519 
L 3088 4519 
L 3088 3981 
L 1259 3981 
L 1013 2750 
Q 1425 3038 1878 3038 
Q 2478 3038 2890 2622 
Q 3303 2206 3303 1553 
Q 3303 931 2941 478 
Q 2500 -78 1738 -78 
Q 1113 -78 717 272 
Q 322 622 266 1200 
z
" transform="scale(0.015625)"/>
       </defs>
       <use xlink:href="#ArialMT-2212"/>
       <use xlink:href="#ArialMT-30" x="58.398438"/>
       <use xlink:href="#ArialMT-2e" x="114.013672"/>
       <use xlink:href="#ArialMT-37" x="141.796875"/>
       <use xlink:href="#ArialMT-35" x="197.412109"/>
      </g>
     </g>
    </g>
    <g id="xtick_3">
     <g id="line2d_3">
      <g>
       <use xlink:href="#m4ffae5118e" x="143.047614" y="273.312" style="fill: #262626; stroke: #262626"/>
      </g>
     </g>
     <g id="text_3">
      <!-- −0.50 -->
      <g style="fill: #262626" transform="translate(131.914926 287.910875) scale(0.088 -0.088)">
       <use xlink:href="#ArialMT-2212"/>
       <use xlink:href="#ArialMT-30" x="58.398438"/>
       <use xlink:href="#ArialMT-2e" x="114.013672"/>
       <use xlink:href="#ArialMT-35" x="141.796875"/>
       <use xlink:href="#ArialMT-30" x="197.412109"/>
      </g>
     </g>
    </g>
    <g id="xtick_4">
     <g id="line2d_4">
      <g>
       <use xlink:href="#m4ffae5118e" x="183.629432" y="273.312" style="fill: #262626; stroke: #262626"/>
      </g>
     </g>
     <g id="text_4">
      <!-- −0.25 -->
      <g style="fill: #262626" transform="translate(172.496744 287.910875) scale(0.088 -0.088)">
       <defs>
        <path id="ArialMT-32" d="M 3222 541 
L 3222 0 
L 194 0 
Q 188 203 259 391 
Q 375 700 629 1000 
Q 884 1300 1366 1694 
Q 2113 2306 2375 2664 
Q 2638 3022 2638 3341 
Q 2638 3675 2398 3904 
Q 2159 4134 1775 4134 
Q 1369 4134 1125 3890 
Q 881 3647 878 3216 
L 300 3275 
Q 359 3922 746 4261 
Q 1134 4600 1788 4600 
Q 2447 4600 2831 4234 
Q 3216 3869 3216 3328 
Q 3216 3053 3103 2787 
Q 2991 2522 2730 2228 
Q 2469 1934 1863 1422 
Q 1356 997 1212 845 
Q 1069 694 975 541 
L 3222 541 
z
" transform="scale(0.015625)"/>
       </defs>
       <use xlink:href="#ArialMT-2212"/>
       <use xlink:href="#ArialMT-30" x="58.398438"/>
       <use xlink:href="#ArialMT-2e" x="114.013672"/>
       <use xlink:href="#ArialMT-32" x="141.796875"/>
       <use xlink:href="#ArialMT-35" x="197.412109"/>
      </g>
     </g>
    </g>
    <g id="xtick_5">
     <g id="line2d_5">
      <g>
       <use xlink:href="#m4ffae5118e" x="224.21125" y="273.312" style="fill: #262626; stroke: #262626"/>
      </g>
     </g>
     <g id="text_5">
      <!-- 0.00 -->
      <g style="fill: #262626" transform="translate(215.648438 287.910875) scale(0.088 -0.088)">
       <use xlink:href="#ArialMT-30"/>
       <use xlink:href="#ArialMT-2e" x="55.615234"/>
       <use xlink:href="#ArialMT-30" x="83.398438"/>
       <use xlink:href="#ArialMT-30" x="139.013672"/>
      </g>
     </g>
    </g>
    <g id="xtick_6">
     <g id="line2d_6">
      <g>
       <use xlink:href="#m4ffae5118e" x="264.793068" y="273.312" style="fill: #262626; stroke: #262626"/>
      </g>
     </g>
     <g id="text_6">
      <!-- 0.25 -->
      <g style="fill: #262626" transform="translate(256.230256 287.910875) scale(0.088 -0.088)">
       <use xlink:href="#ArialMT-30"/>
       <use xlink:href="#ArialMT-2e" x="55.615234"/>
       <use xlink:href="#ArialMT-32" x="83.398438"/>
       <use xlink:href="#ArialMT-35" x="139.013672"/>
      </g>
     </g>
    </g>
    <g id="xtick_7">
     <g id="line2d_7">
      <g>
       <use xlink:href="#m4ffae5118e" x="305.374886" y="273.312" style="fill: #262626; stroke: #262626"/>
      </g>
     </g>
     <g id="text_7">
      <!-- 0.50 -->
      <g style="fill: #262626" transform="translate(296.812074 287.910875) scale(0.088 -0.088)">
       <use xlink:href="#ArialMT-30"/>
       <use xlink:href="#ArialMT-2e" x="55.615234"/>
       <use xlink:href="#ArialMT-35" x="83.398438"/>
       <use xlink:href="#ArialMT-30" x="139.013672"/>
      </g>
     </g>
    </g>
    <g id="xtick_8">
     <g id="line2d_8">
      <g>
       <use xlink:href="#m4ffae5118e" x="345.956705" y="273.312" style="fill: #262626; stroke: #262626"/>
      </g>
     </g>
     <g id="text_8">
      <!-- 0.75 -->
      <g style="fill: #262626" transform="translate(337.393892 287.910875) scale(0.088 -0.088)">
       <use xlink:href="#ArialMT-30"/>
       <use xlink:href="#ArialMT-2e" x="55.615234"/>
       <use xlink:href="#ArialMT-37" x="83.398438"/>
       <use xlink:href="#ArialMT-35" x="139.013672"/>
      </g>
     </g>
    </g>
    <g id="xtick_9">
     <g id="line2d_9">
      <g>
       <use xlink:href="#m4ffae5118e" x="386.538523" y="273.312" style="fill: #262626; stroke: #262626"/>
      </g>
     </g>
     <g id="text_9">
      <!-- 1.00 -->
      <g style="fill: #262626" transform="translate(377.97571 287.910875) scale(0.088 -0.088)">
       <use xlink:href="#ArialMT-31"/>
       <use xlink:href="#ArialMT-2e" x="55.615234"/>
       <use xlink:href="#ArialMT-30" x="83.398438"/>
       <use xlink:href="#ArialMT-30" x="139.013672"/>
      </g>
     </g>
    </g>
    <g id="text_10">
     <!-- x -->
     <g style="fill: #262626" transform="translate(221.81125 300.531375) scale(0.096 -0.096)">
      <defs>
       <path id="ArialMT-78" d="M 47 0 
L 1259 1725 
L 138 3319 
L 841 3319 
L 1350 2541 
Q 1494 2319 1581 2169 
Q 1719 2375 1834 2534 
L 2394 3319 
L 3066 3319 
L 1919 1756 
L 3153 0 
L 2463 0 
L 1781 1031 
L 1600 1309 
L 728 0 
L 47 0 
z
" transform="scale(0.015625)"/>
      </defs>
      <use xlink:href="#ArialMT-78"/>
     </g>
    </g>
   </g>
   <g id="matplotlib.axis_2">
    <g id="ytick_1">
     <g id="line2d_10">
      <defs>
       <path id="m0f56c3522c" d="M 0 0 
L -4.8 0 
" style="stroke: #262626"/>
      </defs>
      <g>
       <use xlink:href="#m0f56c3522c" x="45.65125" y="264.823666" style="fill: #262626; stroke: #262626"/>
      </g>
     </g>
     <g id="text_11">
      <!-- −0.4 -->
      <g style="fill: #262626" transform="translate(19.9795 267.973104) scale(0.088 -0.088)">
       <defs>
        <path id="ArialMT-34" d="M 2069 0 
L 2069 1097 
L 81 1097 
L 81 1613 
L 2172 4581 
L 2631 4581 
L 2631 1613 
L 3250 1613 
L 3250 1097 
L 2631 1097 
L 2631 0 
L 2069 0 
z
M 2069 1613 
L 2069 3678 
L 634 1613 
L 2069 1613 
z
" transform="scale(0.015625)"/>
       </defs>
       <use xlink:href="#ArialMT-2212"/>
       <use xlink:href="#ArialMT-30" x="58.398438"/>
       <use xlink:href="#ArialMT-2e" x="114.013672"/>
       <use xlink:href="#ArialMT-34" x="141.796875"/>
      </g>
     </g>
    </g>
    <g id="ytick_2">
     <g id="line2d_11">
      <g>
       <use xlink:href="#m0f56c3522c" x="45.65125" y="227.376655" style="fill: #262626; stroke: #262626"/>
      </g>
     </g>
     <g id="text_12">
      <!-- −0.2 -->
      <g style="fill: #262626" transform="translate(19.9795 230.526093) scale(0.088 -0.088)">
       <use xlink:href="#ArialMT-2212"/>
       <use xlink:href="#ArialMT-30" x="58.398438"/>
       <use xlink:href="#ArialMT-2e" x="114.013672"/>
       <use xlink:href="#ArialMT-32" x="141.796875"/>
      </g>
     </g>
    </g>
    <g id="ytick_3">
     <g id="line2d_12">
      <g>
       <use xlink:href="#m0f56c3522c" x="45.65125" y="189.929644" style="fill: #262626; stroke: #262626"/>
      </g>
     </g>
     <g id="text_13">
      <!-- 0.0 -->
      <g style="fill: #262626" transform="translate(25.11925 193.079082) scale(0.088 -0.088)">
       <use xlink:href="#ArialMT-30"/>
       <use xlink:href="#ArialMT-2e" x="55.615234"/>
       <use xlink:href="#ArialMT-30" x="83.398438"/>
      </g>
     </g>
    </g>
    <g id="ytick_4">
     <g id="line2d_13">
      <g>
       <use xlink:href="#m0f56c3522c" x="45.65125" y="152.482633" style="fill: #262626; stroke: #262626"/>
      </g>
     </g>
     <g id="text_14">
      <!-- 0.2 -->
      <g style="fill: #262626" transform="translate(25.11925 155.632071) scale(0.088 -0.088)">
       <use xlink:href="#ArialMT-30"/>
       <use xlink:href="#ArialMT-2e" x="55.615234"/>
       <use xlink:href="#ArialMT-32" x="83.398438"/>
      </g>
     </g>
    </g>
    <g id="ytick_5">
     <g id="line2d_14">
      <g>
       <use xlink:href="#m0f56c3522c" x="45.65125" y="115.035622" style="fill: #262626; stroke: #262626"/>
      </g>
     </g>
     <g id="text_15">
      <!-- 0.4 -->
      <g style="fill: #262626" transform="translate(25.11925 118.18506) scale(0.088 -0.088)">
       <use xlink:href="#ArialMT-30"/>
       <use xlink:href="#ArialMT-2e" x="55.615234"/>
       <use xlink:href="#ArialMT-34" x="83.398438"/>
      </g>
     </g>
    </g>
    <g id="ytick_6">
     <g id="line2d_15">
      <g>
       <use xlink:href="#m0f56c3522c" x="45.65125" y="77.588611" style="fill: #262626; stroke: #262626"/>
      </g>
     </g>
     <g id="text_16">
      <!-- 0.6 -->
      <g style="fill: #262626" transform="translate(25.11925 80.738049) scale(0.088 -0.088)">
       <defs>
        <path id="ArialMT-36" d="M 3184 3459 
L 2625 3416 
Q 2550 3747 2413 3897 
Q 2184 4138 1850 4138 
Q 1581 4138 1378 3988 
Q 1113 3794 959 3422 
Q 806 3050 800 2363 
Q 1003 2672 1297 2822 
Q 1591 2972 1913 2972 
Q 2475 2972 2870 2558 
Q 3266 2144 3266 1488 
Q 3266 1056 3080 686 
Q 2894 316 2569 119 
Q 2244 -78 1831 -78 
Q 1128 -78 684 439 
Q 241 956 241 2144 
Q 241 3472 731 4075 
Q 1159 4600 1884 4600 
Q 2425 4600 2770 4297 
Q 3116 3994 3184 3459 
z
M 888 1484 
Q 888 1194 1011 928 
Q 1134 663 1356 523 
Q 1578 384 1822 384 
Q 2178 384 2434 671 
Q 2691 959 2691 1453 
Q 2691 1928 2437 2201 
Q 2184 2475 1800 2475 
Q 1419 2475 1153 2201 
Q 888 1928 888 1484 
z
" transform="scale(0.015625)"/>
       </defs>
       <use xlink:href="#ArialMT-30"/>
       <use xlink:href="#ArialMT-2e" x="55.615234"/>
       <use xlink:href="#ArialMT-36" x="83.398438"/>
      </g>
     </g>
    </g>
    <g id="ytick_7">
     <g id="line2d_16">
      <g>
       <use xlink:href="#m0f56c3522c" x="45.65125" y="40.1416" style="fill: #262626; stroke: #262626"/>
      </g>
     </g>
     <g id="text_17">
      <!-- 0.8 -->
      <g style="fill: #262626" transform="translate(25.11925 43.291038) scale(0.088 -0.088)">
       <defs>
        <path id="ArialMT-38" d="M 1131 2484 
Q 781 2613 612 2850 
Q 444 3088 444 3419 
Q 444 3919 803 4259 
Q 1163 4600 1759 4600 
Q 2359 4600 2725 4251 
Q 3091 3903 3091 3403 
Q 3091 3084 2923 2848 
Q 2756 2613 2416 2484 
Q 2838 2347 3058 2040 
Q 3278 1734 3278 1309 
Q 3278 722 2862 322 
Q 2447 -78 1769 -78 
Q 1091 -78 675 323 
Q 259 725 259 1325 
Q 259 1772 486 2073 
Q 713 2375 1131 2484 
z
M 1019 3438 
Q 1019 3113 1228 2906 
Q 1438 2700 1772 2700 
Q 2097 2700 2305 2904 
Q 2513 3109 2513 3406 
Q 2513 3716 2298 3927 
Q 2084 4138 1766 4138 
Q 1444 4138 1231 3931 
Q 1019 3725 1019 3438 
z
M 838 1322 
Q 838 1081 952 856 
Q 1066 631 1291 507 
Q 1516 384 1775 384 
Q 2178 384 2440 643 
Q 2703 903 2703 1303 
Q 2703 1709 2433 1975 
Q 2163 2241 1756 2241 
Q 1359 2241 1098 1978 
Q 838 1716 838 1322 
z
" transform="scale(0.015625)"/>
       </defs>
       <use xlink:href="#ArialMT-30"/>
       <use xlink:href="#ArialMT-2e" x="55.615234"/>
       <use xlink:href="#ArialMT-38" x="83.398438"/>
      </g>
     </g>
    </g>
    <g id="text_18">
     <!-- y -->
     <g style="fill: #262626" transform="translate(13.959 142.656) rotate(-90) scale(0.096 -0.096)">
      <defs>
       <path id="ArialMT-79" d="M 397 -1278 
L 334 -750 
Q 519 -800 656 -800 
Q 844 -800 956 -737 
Q 1069 -675 1141 -563 
Q 1194 -478 1313 -144 
Q 1328 -97 1363 -6 
L 103 3319 
L 709 3319 
L 1400 1397 
Q 1534 1031 1641 628 
Q 1738 1016 1872 1384 
L 2581 3319 
L 3144 3319 
L 1881 -56 
Q 1678 -603 1566 -809 
Q 1416 -1088 1222 -1217 
Q 1028 -1347 759 -1347 
Q 597 -1347 397 -1278 
z
" transform="scale(0.015625)"/>
      </defs>
      <use xlink:href="#ArialMT-79"/>
     </g>
    </g>
   </g>
   <g id="line2d_17">
    <defs>
     <path id="m1224a6c3ea" d="M 0 1.2 
C 0.318244 1.2 0.623496 1.07356 0.848528 0.848528 
C 1.07356 0.623496 1.2 0.318244 1.2 0 
C 1.2 -0.318244 1.07356 -0.623496 0.848528 -0.848528 
C 0.623496 -1.07356 0.318244 -1.2 0 -1.2 
C -0.318244 -1.2 -0.623496 -1.07356 -0.848528 -0.848528 
C -1.07356 -0.623496 -1.2 -0.318244 -1.2 0 
C -1.2 0.318244 -1.07356 0.623496 -0.848528 0.848528 
C -0.623496 1.07356 -0.318244 1.2 0 1.2 
z
" style="stroke: #000000"/>
    </defs>
    <g clip-path="url(#p8f80395a27)">
     <use xlink:href="#m1224a6c3ea" x="275.953907" y="173.914813" style="stroke: #000000"/>
     <use xlink:href="#m1224a6c3ea" x="272.90164" y="173.329839" style="stroke: #000000"/>
     <use xlink:href="#m1224a6c3ea" x="186.644811" y="193.535734" style="stroke: #000000"/>
     <use xlink:href="#m1224a6c3ea" x="315.017663" y="140.146996" style="stroke: #000000"/>
     <use xlink:href="#m1224a6c3ea" x="149.613486" y="199.431878" style="stroke: #000000"/>
     <use xlink:href="#m1224a6c3ea" x="208.434981" y="189.284971" style="stroke: #000000"/>
     <use xlink:href="#m1224a6c3ea" x="161.67756" y="200.520008" style="stroke: #000000"/>
     <use xlink:href="#m1224a6c3ea" x="330.250494" y="121.358387" style="stroke: #000000"/>
     <use xlink:href="#m1224a6c3ea" x="93.983897" y="222.850101" style="stroke: #000000"/>
     <use xlink:href="#m1224a6c3ea" x="229.667673" y="188.678162" style="stroke: #000000"/>
     <use xlink:href="#m1224a6c3ea" x="302.592145" y="151.675554" style="stroke: #000000"/>
     <use xlink:href="#m1224a6c3ea" x="227.653692" y="189.321288" style="stroke: #000000"/>
     <use xlink:href="#m1224a6c3ea" x="361.281518" y="73.460482" style="stroke: #000000"/>
     <use xlink:href="#m1224a6c3ea" x="117.023309" y="211.519097" style="stroke: #000000"/>
     <use xlink:href="#m1224a6c3ea" x="384.491093" y="25.7123" style="stroke: #000000"/>
     <use xlink:href="#m1224a6c3ea" x="198.20051" y="193.863296" style="stroke: #000000"/>
     <use xlink:href="#m1224a6c3ea" x="147.202911" y="205.176426" style="stroke: #000000"/>
     <use xlink:href="#m1224a6c3ea" x="197.672006" y="193.518779" style="stroke: #000000"/>
     <use xlink:href="#m1224a6c3ea" x="111.865362" y="214.429005" style="stroke: #000000"/>
     <use xlink:href="#m1224a6c3ea" x="254.108265" y="179.128222" style="stroke: #000000"/>
     <use xlink:href="#m1224a6c3ea" x="306.034086" y="148.240857" style="stroke: #000000"/>
     <use xlink:href="#m1224a6c3ea" x="186.249062" y="199.102945" style="stroke: #000000"/>
     <use xlink:href="#m1224a6c3ea" x="296.176963" y="153.308655" style="stroke: #000000"/>
     <use xlink:href="#m1224a6c3ea" x="324.673257" y="127.074759" style="stroke: #000000"/>
     <use xlink:href="#m1224a6c3ea" x="236.792014" y="188.853562" style="stroke: #000000"/>
     <use xlink:href="#m1224a6c3ea" x="209.200001" y="193.157865" style="stroke: #000000"/>
     <use xlink:href="#m1224a6c3ea" x="62.905153" y="243.0847" style="stroke: #000000"/>
     <use xlink:href="#m1224a6c3ea" x="123.485559" y="209.149312" style="stroke: #000000"/>
     <use xlink:href="#m1224a6c3ea" x="149.206086" y="202.458379" style="stroke: #000000"/>
     <use xlink:href="#m1224a6c3ea" x="237.148989" y="184.782194" style="stroke: #000000"/>
     <use xlink:href="#m1224a6c3ea" x="102.133055" y="220.520237" style="stroke: #000000"/>
     <use xlink:href="#m1224a6c3ea" x="187.598702" y="194.484522" style="stroke: #000000"/>
     <use xlink:href="#m1224a6c3ea" x="385.054227" y="22.96626" style="stroke: #000000"/>
     <use xlink:href="#m1224a6c3ea" x="257.051793" y="183.105223" style="stroke: #000000"/>
     <use xlink:href="#m1224a6c3ea" x="137.22142" y="205.178984" style="stroke: #000000"/>
     <use xlink:href="#m1224a6c3ea" x="86.131041" y="230.756127" style="stroke: #000000"/>
     <use xlink:href="#m1224a6c3ea" x="274.333353" y="170.694386" style="stroke: #000000"/>
     <use xlink:href="#m1224a6c3ea" x="274.867427" y="172.421266" style="stroke: #000000"/>
     <use xlink:href="#m1224a6c3ea" x="360.526673" y="77.373373" style="stroke: #000000"/>
     <use xlink:href="#m1224a6c3ea" x="91.067267" y="223.775291" style="stroke: #000000"/>
     <use xlink:href="#m1224a6c3ea" x="278.8338" y="168.26405" style="stroke: #000000"/>
     <use xlink:href="#m1224a6c3ea" x="63.881124" y="246.241311" style="stroke: #000000"/>
     <use xlink:href="#m1224a6c3ea" x="332.110714" y="115.330029" style="stroke: #000000"/>
     <use xlink:href="#m1224a6c3ea" x="273.602916" y="170.754918" style="stroke: #000000"/>
     <use xlink:href="#m1224a6c3ea" x="315.301169" y="138.76326" style="stroke: #000000"/>
     <use xlink:href="#m1224a6c3ea" x="181.429112" y="199.035913" style="stroke: #000000"/>
     <use xlink:href="#m1224a6c3ea" x="291.461131" y="159.640105" style="stroke: #000000"/>
     <use xlink:href="#m1224a6c3ea" x="204.951592" y="195.603619" style="stroke: #000000"/>
     <use xlink:href="#m1224a6c3ea" x="204.32312" y="192.879443" style="stroke: #000000"/>
     <use xlink:href="#m1224a6c3ea" x="306.197425" y="147.80644" style="stroke: #000000"/>
     <use xlink:href="#m1224a6c3ea" x="364.76807" y="69.907504" style="stroke: #000000"/>
     <use xlink:href="#m1224a6c3ea" x="74.983671" y="235.950589" style="stroke: #000000"/>
     <use xlink:href="#m1224a6c3ea" x="131.411858" y="203.884457" style="stroke: #000000"/>
     <use xlink:href="#m1224a6c3ea" x="304.932389" y="145.950876" style="stroke: #000000"/>
     <use xlink:href="#m1224a6c3ea" x="239.683666" y="184.958412" style="stroke: #000000"/>
     <use xlink:href="#m1224a6c3ea" x="148.162309" y="205.067866" style="stroke: #000000"/>
     <use xlink:href="#m1224a6c3ea" x="236.109953" y="187.390006" style="stroke: #000000"/>
     <use xlink:href="#m1224a6c3ea" x="113.926618" y="211.027505" style="stroke: #000000"/>
     <use xlink:href="#m1224a6c3ea" x="214.058245" y="190.440646" style="stroke: #000000"/>
     <use xlink:href="#m1224a6c3ea" x="70.081555" y="240.978205" style="stroke: #000000"/>
     <use xlink:href="#m1224a6c3ea" x="320.30329" y="130.982243" style="stroke: #000000"/>
     <use xlink:href="#m1224a6c3ea" x="348.851858" y="92.27147" style="stroke: #000000"/>
     <use xlink:href="#m1224a6c3ea" x="226.849766" y="186.580162" style="stroke: #000000"/>
     <use xlink:href="#m1224a6c3ea" x="259.397421" y="176.578359" style="stroke: #000000"/>
     <use xlink:href="#m1224a6c3ea" x="70.461136" y="235.88985" style="stroke: #000000"/>
     <use xlink:href="#m1224a6c3ea" x="378.938756" y="36.485301" style="stroke: #000000"/>
     <use xlink:href="#m1224a6c3ea" x="75.663379" y="233.271628" style="stroke: #000000"/>
     <use xlink:href="#m1224a6c3ea" x="82.639455" y="229.577709" style="stroke: #000000"/>
     <use xlink:href="#m1224a6c3ea" x="86.535137" y="223.905901" style="stroke: #000000"/>
     <use xlink:href="#m1224a6c3ea" x="217.875851" y="192.47423" style="stroke: #000000"/>
     <use xlink:href="#m1224a6c3ea" x="173.648551" y="197.422133" style="stroke: #000000"/>
     <use xlink:href="#m1224a6c3ea" x="108.597737" y="217.179837" style="stroke: #000000"/>
     <use xlink:href="#m1224a6c3ea" x="295.448627" y="154.043913" style="stroke: #000000"/>
     <use xlink:href="#m1224a6c3ea" x="157.246997" y="200.435668" style="stroke: #000000"/>
     <use xlink:href="#m1224a6c3ea" x="362.863985" y="69.826801" style="stroke: #000000"/>
     <use xlink:href="#m1224a6c3ea" x="173.059948" y="201.038003" style="stroke: #000000"/>
     <use xlink:href="#m1224a6c3ea" x="302.320295" y="151.557879" style="stroke: #000000"/>
     <use xlink:href="#m1224a6c3ea" x="67.152584" y="239.443455" style="stroke: #000000"/>
     <use xlink:href="#m1224a6c3ea" x="117.525818" y="215.731084" style="stroke: #000000"/>
     <use xlink:href="#m1224a6c3ea" x="346.537359" y="98.163817" style="stroke: #000000"/>
     <use xlink:href="#m1224a6c3ea" x="274.312982" y="172.633542" style="stroke: #000000"/>
     <use xlink:href="#m1224a6c3ea" x="275.585722" y="170.843997" style="stroke: #000000"/>
     <use xlink:href="#m1224a6c3ea" x="113.710336" y="213.062766" style="stroke: #000000"/>
     <use xlink:href="#m1224a6c3ea" x="325.759354" y="127.596281" style="stroke: #000000"/>
     <use xlink:href="#m1224a6c3ea" x="319.990528" y="135.846904" style="stroke: #000000"/>
     <use xlink:href="#m1224a6c3ea" x="316.526217" y="135.621531" style="stroke: #000000"/>
     <use xlink:href="#m1224a6c3ea" x="201.211953" y="192.773365" style="stroke: #000000"/>
     <use xlink:href="#m1224a6c3ea" x="134.405139" y="208.546796" style="stroke: #000000"/>
     <use xlink:href="#m1224a6c3ea" x="155.193885" y="198.367598" style="stroke: #000000"/>
     <use xlink:href="#m1224a6c3ea" x="224.272823" y="189.832835" style="stroke: #000000"/>
     <use xlink:href="#m1224a6c3ea" x="245.661635" y="180.797436" style="stroke: #000000"/>
     <use xlink:href="#m1224a6c3ea" x="195.278093" y="194.035909" style="stroke: #000000"/>
     <use xlink:href="#m1224a6c3ea" x="307.344883" y="146.845807" style="stroke: #000000"/>
     <use xlink:href="#m1224a6c3ea" x="353.165635" y="90.104564" style="stroke: #000000"/>
     <use xlink:href="#m1224a6c3ea" x="317.880302" y="137.987098" style="stroke: #000000"/>
     <use xlink:href="#m1224a6c3ea" x="346.543074" y="99.957033" style="stroke: #000000"/>
     <use xlink:href="#m1224a6c3ea" x="286.643067" y="165.962111" style="stroke: #000000"/>
     <use xlink:href="#m1224a6c3ea" x="344.575407" y="99.809408" style="stroke: #000000"/>
     <use xlink:href="#m1224a6c3ea" x="174.145957" y="198.343256" style="stroke: #000000"/>
     <use xlink:href="#m1224a6c3ea" x="189.969684" y="194.895624" style="stroke: #000000"/>
    </g>
   </g>
   <g id="line2d_18">
    <path d="M 61.883977 246.100163 
L 66.77827 241.735071 
L 71.672562 237.664036 
L 76.566855 233.874759 
L 81.461128 230.354912 
L 86.35542 227.092166 
L 91.249713 224.074213 
L 96.144005 221.288735 
L 101.038298 218.723418 
L 105.93259 216.365946 
L 110.826882 214.204002 
L 117.352593 211.604278 
L 123.878303 209.301065 
L 130.404033 207.265162 
L 136.929743 205.46739 
L 143.455473 203.878537 
L 151.612621 202.141805 
L 159.769768 200.628879 
L 169.558348 199.028512 
L 185.872648 196.627334 
L 202.186944 194.163432 
L 211.975529 192.465215 
L 220.132676 190.836251 
L 228.289824 188.952116 
L 234.815539 187.222767 
L 241.341264 185.264417 
L 247.866979 183.047876 
L 254.392704 180.543942 
L 259.286992 178.459834 
L 264.181284 176.185328 
L 269.075567 173.708115 
L 273.969854 171.015872 
L 278.864147 168.096279 
L 283.758439 164.937024 
L 288.652732 161.525795 
L 293.547019 157.850271 
L 298.441302 153.898138 
L 303.335595 149.657071 
L 308.229882 145.114762 
L 313.124175 140.258889 
L 318.018467 135.077136 
L 322.91276 129.557188 
L 327.807052 123.68673 
L 332.701325 117.453463 
L 337.595618 110.845028 
L 342.48991 103.849143 
L 347.384202 96.45347 
L 352.278495 88.6457 
L 357.172787 80.413513 
L 362.06708 71.744609 
L 366.961353 62.626691 
L 371.855645 53.04737 
L 376.749938 42.994371 
L 381.64423 32.455395 
L 386.538523 21.418099 
L 386.538523 21.418099 
" clip-path="url(#p8f80395a27)" style="fill: none; stroke: #1f77b4; stroke-width: 2; stroke-linecap: round"/>
   </g>
   <g id="line2d_19">
    <path d="M 61.883977 245.106614 
L 81.461128 230.164005 
L 84.724002 227.957577 
L 87.986857 225.983638 
L 92.88115 223.352088 
L 104.301153 217.621935 
L 109.195445 215.452332 
L 114.089738 213.589675 
L 122.246885 210.564892 
L 132.03547 206.722557 
L 135.298325 205.69936 
L 138.561181 204.888205 
L 143.455473 203.966768 
L 149.981188 202.791457 
L 154.875476 201.634017 
L 164.664061 199.094899 
L 167.926916 198.479996 
L 172.821208 197.803482 
L 180.978356 196.696958 
L 190.766941 195.227749 
L 200.555511 194.046441 
L 205.449804 193.098102 
L 216.869816 190.533554 
L 221.764099 189.801064 
L 228.289824 188.877896 
L 231.552679 188.217698 
L 234.815539 187.343864 
L 239.709831 185.683275 
L 249.498412 182.124579 
L 257.655559 179.26609 
L 260.918419 177.913171 
L 265.812707 175.600885 
L 273.969854 171.429768 
L 278.864147 168.739408 
L 282.127007 166.715422 
L 285.389872 164.442136 
L 290.284155 160.626117 
L 308.229882 145.785065 
L 311.492737 142.760734 
L 314.755612 139.442496 
L 318.018467 135.821731 
L 322.91276 129.958092 
L 332.701325 117.693226 
L 337.595618 111.305884 
L 340.858492 106.787056 
L 345.752765 99.547357 
L 352.278495 89.281658 
L 357.172787 81.260507 
L 362.06708 72.763881 
L 365.329935 66.703892 
L 370.224227 56.999734 
L 376.749938 43.317611 
L 384.907085 25.716783 
L 386.538523 22.099489 
L 386.538523 22.099489 
" clip-path="url(#p8f80395a27)" style="fill: none; stroke-dasharray: 7.4,3.2; stroke-dashoffset: 0; stroke: #ff7f0e; stroke-width: 2"/>
   </g>
   <g id="line2d_20">
    <path d="M 61.883977 261.216 
L 65.146832 254.132729 
L 66.77827 251.018273 
L 68.409688 248.240421 
L 70.041125 245.845406 
L 71.672562 243.867187 
L 73.30398 242.305993 
L 74.935417 241.110273 
L 79.82971 238.397984 
L 81.461128 237.219691 
L 83.092565 235.681649 
L 84.724002 233.76013 
L 87.986857 229.144322 
L 89.618275 226.814512 
L 91.249713 224.746687 
L 92.88115 223.099776 
L 94.512568 221.946718 
L 96.144005 221.259721 
L 97.775442 220.921903 
L 101.038298 220.598583 
L 102.669715 220.291121 
L 104.301153 219.766565 
L 105.93259 219.031203 
L 112.4583 215.600321 
L 117.352593 213.427034 
L 118.98403 212.441023 
L 120.615448 211.209277 
L 123.878303 208.173113 
L 125.50974 206.619227 
L 127.141178 205.261889 
L 128.772596 204.241664 
L 130.404033 203.63141 
L 132.03547 203.416228 
L 133.666888 203.498195 
L 136.929743 203.93343 
L 138.561181 203.99589 
L 140.192618 203.853933 
L 143.455473 203.117738 
L 145.086896 202.739888 
L 146.718328 202.510752 
L 148.349761 202.490982 
L 151.612621 202.932027 
L 153.244053 203.146816 
L 154.875476 203.144634 
L 156.506913 202.796216 
L 158.138336 202.043728 
L 159.769768 200.918054 
L 166.295493 195.404715 
L 167.926916 194.445754 
L 169.558348 193.734123 
L 180.978356 190.005831 
L 182.609788 189.762629 
L 184.241216 189.783375 
L 185.872648 190.038774 
L 189.135504 190.772194 
L 190.766941 190.910165 
L 192.398364 190.691055 
L 194.029796 190.044161 
L 195.661228 188.997223 
L 200.555511 185.007056 
L 202.186944 184.075299 
L 203.818376 183.601506 
L 205.449804 183.617578 
L 207.081236 184.061433 
L 208.712669 184.798708 
L 211.975529 186.477672 
L 213.606951 187.126352 
L 215.238384 187.534194 
L 216.869816 187.687561 
L 218.501239 187.617042 
L 221.764099 187.024324 
L 229.921256 185.049009 
L 231.552679 184.905163 
L 233.184116 184.966826 
L 234.815539 185.264553 
L 236.446971 185.78468 
L 241.341264 187.704128 
L 242.972696 187.945164 
L 244.604119 187.739702 
L 246.235552 187.025587 
L 247.866979 185.834645 
L 249.498412 184.291998 
L 252.761267 180.952851 
L 254.392704 179.570367 
L 256.024127 178.568601 
L 257.655559 177.975165 
L 259.286992 177.719251 
L 262.549852 177.605746 
L 264.181284 177.407848 
L 265.812707 176.955239 
L 267.444144 176.218479 
L 269.075567 175.242058 
L 278.864147 168.45778 
L 280.495579 167.085807 
L 282.127007 165.444985 
L 283.758439 163.521235 
L 290.284155 155.068651 
L 291.915587 153.502082 
L 293.547019 152.317074 
L 295.178447 151.455668 
L 300.072735 149.396896 
L 301.704167 148.426296 
L 303.335595 147.223223 
L 309.861319 141.839479 
L 313.124175 139.907271 
L 314.755612 138.99773 
L 316.38703 137.920406 
L 318.018467 136.523027 
L 319.649904 134.707835 
L 321.281322 132.460138 
L 322.91276 129.852984 
L 327.807052 121.382429 
L 329.43847 118.81469 
L 332.701325 114.305772 
L 337.595618 107.906759 
L 344.121347 98.615881 
L 345.752765 96.580994 
L 349.01564 93.054447 
L 350.647058 91.350932 
L 352.278495 89.461966 
L 353.909913 87.217448 
L 355.54135 84.502186 
L 357.172787 81.290315 
L 360.435643 73.762727 
L 363.698498 66.03206 
L 365.329935 62.565049 
L 366.961353 59.493208 
L 368.59279 56.795698 
L 375.118501 47.023987 
L 376.749938 44.068583 
L 378.381375 40.733043 
L 380.012793 37.022142 
L 383.275668 28.6414 
L 386.538523 19.296 
L 386.538523 19.296 
" clip-path="url(#p8f80395a27)" style="fill: none; stroke-dasharray: 12.8,3.2,2,3.2; stroke-dashoffset: 0; stroke: #2ca02c; stroke-width: 2"/>
   </g>
   <g id="patch_3">
    <path d="M 45.65125 273.312 
L 45.65125 7.2 
" style="fill: none; stroke: #262626; stroke-linejoin: miter; stroke-linecap: square"/>
   </g>
   <g id="patch_4">
    <path d="M 45.65125 273.312 
L 402.77125 273.312 
" style="fill: none; stroke: #262626; stroke-linejoin: miter; stroke-linecap: square"/>
   </g>
   <g id="legend_1">
    <g id="patch_5">
     <path d="M 51.81125 51.68675 
L 103.452125 51.68675 
Q 105.212125 51.68675 105.212125 49.92675 
L 105.212125 13.36 
Q 105.212125 11.6 103.452125 11.6 
L 51.81125 11.6 
Q 50.05125 11.6 50.05125 13.36 
L 50.05125 49.92675 
Q 50.05125 51.68675 51.81125 51.68675 
z
" style="fill: #ffffff; opacity: 0.8; stroke: #cccccc; stroke-width: 0.8; stroke-linejoin: miter"/>
    </g>
    <g id="line2d_21">
     <path d="M 53.57125 18.338875 
L 62.37125 18.338875 
L 71.17125 18.338875 
" style="fill: none; stroke: #1f77b4; stroke-width: 2; stroke-linecap: round"/>
    </g>
    <g id="text_19">
     <!-- true -->
     <g style="fill: #262626" transform="translate(78.21125 21.418875) scale(0.088 -0.088)">
      <defs>
       <path id="ArialMT-74" d="M 1650 503 
L 1731 6 
Q 1494 -44 1306 -44 
Q 1000 -44 831 53 
Q 663 150 594 308 
Q 525 466 525 972 
L 525 2881 
L 113 2881 
L 113 3319 
L 525 3319 
L 525 4141 
L 1084 4478 
L 1084 3319 
L 1650 3319 
L 1650 2881 
L 1084 2881 
L 1084 941 
Q 1084 700 1114 631 
Q 1144 563 1211 522 
Q 1278 481 1403 481 
Q 1497 481 1650 503 
z
" transform="scale(0.015625)"/>
       <path id="ArialMT-72" d="M 416 0 
L 416 3319 
L 922 3319 
L 922 2816 
Q 1116 3169 1280 3281 
Q 1444 3394 1641 3394 
Q 1925 3394 2219 3213 
L 2025 2691 
Q 1819 2813 1613 2813 
Q 1428 2813 1281 2702 
Q 1134 2591 1072 2394 
Q 978 2094 978 1738 
L 978 0 
L 416 0 
z
" transform="scale(0.015625)"/>
       <path id="ArialMT-75" d="M 2597 0 
L 2597 488 
Q 2209 -75 1544 -75 
Q 1250 -75 995 37 
Q 741 150 617 320 
Q 494 491 444 738 
Q 409 903 409 1263 
L 409 3319 
L 972 3319 
L 972 1478 
Q 972 1038 1006 884 
Q 1059 663 1231 536 
Q 1403 409 1656 409 
Q 1909 409 2131 539 
Q 2353 669 2445 892 
Q 2538 1116 2538 1541 
L 2538 3319 
L 3100 3319 
L 3100 0 
L 2597 0 
z
" transform="scale(0.015625)"/>
       <path id="ArialMT-65" d="M 2694 1069 
L 3275 997 
Q 3138 488 2766 206 
Q 2394 -75 1816 -75 
Q 1088 -75 661 373 
Q 234 822 234 1631 
Q 234 2469 665 2931 
Q 1097 3394 1784 3394 
Q 2450 3394 2872 2941 
Q 3294 2488 3294 1666 
Q 3294 1616 3291 1516 
L 816 1516 
Q 847 969 1125 678 
Q 1403 388 1819 388 
Q 2128 388 2347 550 
Q 2566 713 2694 1069 
z
M 847 1978 
L 2700 1978 
Q 2663 2397 2488 2606 
Q 2219 2931 1791 2931 
Q 1403 2931 1139 2672 
Q 875 2413 847 1978 
z
" transform="scale(0.015625)"/>
      </defs>
      <use xlink:href="#ArialMT-74"/>
      <use xlink:href="#ArialMT-72" x="27.783203"/>
      <use xlink:href="#ArialMT-75" x="61.083984"/>
      <use xlink:href="#ArialMT-65" x="116.699219"/>
     </g>
    </g>
    <g id="line2d_22">
     <path d="M 53.57125 30.78675 
L 62.37125 30.78675 
L 71.17125 30.78675 
" style="fill: none; stroke-dasharray: 7.4,3.2; stroke-dashoffset: 0; stroke: #ff7f0e; stroke-width: 2"/>
    </g>
    <g id="text_20">
     <!-- Lasso -->
     <g style="fill: #262626" transform="translate(78.21125 33.86675) scale(0.088 -0.088)">
      <defs>
       <path id="ArialMT-4c" d="M 469 0 
L 469 4581 
L 1075 4581 
L 1075 541 
L 3331 541 
L 3331 0 
L 469 0 
z
" transform="scale(0.015625)"/>
       <path id="ArialMT-61" d="M 2588 409 
Q 2275 144 1986 34 
Q 1697 -75 1366 -75 
Q 819 -75 525 192 
Q 231 459 231 875 
Q 231 1119 342 1320 
Q 453 1522 633 1644 
Q 813 1766 1038 1828 
Q 1203 1872 1538 1913 
Q 2219 1994 2541 2106 
Q 2544 2222 2544 2253 
Q 2544 2597 2384 2738 
Q 2169 2928 1744 2928 
Q 1347 2928 1158 2789 
Q 969 2650 878 2297 
L 328 2372 
Q 403 2725 575 2942 
Q 747 3159 1072 3276 
Q 1397 3394 1825 3394 
Q 2250 3394 2515 3294 
Q 2781 3194 2906 3042 
Q 3031 2891 3081 2659 
Q 3109 2516 3109 2141 
L 3109 1391 
Q 3109 606 3145 398 
Q 3181 191 3288 0 
L 2700 0 
Q 2613 175 2588 409 
z
M 2541 1666 
Q 2234 1541 1622 1453 
Q 1275 1403 1131 1340 
Q 988 1278 909 1158 
Q 831 1038 831 891 
Q 831 666 1001 516 
Q 1172 366 1500 366 
Q 1825 366 2078 508 
Q 2331 650 2450 897 
Q 2541 1088 2541 1459 
L 2541 1666 
z
" transform="scale(0.015625)"/>
       <path id="ArialMT-73" d="M 197 991 
L 753 1078 
Q 800 744 1014 566 
Q 1228 388 1613 388 
Q 2000 388 2187 545 
Q 2375 703 2375 916 
Q 2375 1106 2209 1216 
Q 2094 1291 1634 1406 
Q 1016 1563 777 1677 
Q 538 1791 414 1992 
Q 291 2194 291 2438 
Q 291 2659 392 2848 
Q 494 3038 669 3163 
Q 800 3259 1026 3326 
Q 1253 3394 1513 3394 
Q 1903 3394 2198 3281 
Q 2494 3169 2634 2976 
Q 2775 2784 2828 2463 
L 2278 2388 
Q 2241 2644 2061 2787 
Q 1881 2931 1553 2931 
Q 1166 2931 1000 2803 
Q 834 2675 834 2503 
Q 834 2394 903 2306 
Q 972 2216 1119 2156 
Q 1203 2125 1616 2013 
Q 2213 1853 2448 1751 
Q 2684 1650 2818 1456 
Q 2953 1263 2953 975 
Q 2953 694 2789 445 
Q 2625 197 2315 61 
Q 2006 -75 1616 -75 
Q 969 -75 630 194 
Q 291 463 197 991 
z
" transform="scale(0.015625)"/>
       <path id="ArialMT-6f" d="M 213 1659 
Q 213 2581 725 3025 
Q 1153 3394 1769 3394 
Q 2453 3394 2887 2945 
Q 3322 2497 3322 1706 
Q 3322 1066 3130 698 
Q 2938 331 2570 128 
Q 2203 -75 1769 -75 
Q 1072 -75 642 372 
Q 213 819 213 1659 
z
M 791 1659 
Q 791 1022 1069 705 
Q 1347 388 1769 388 
Q 2188 388 2466 706 
Q 2744 1025 2744 1678 
Q 2744 2294 2464 2611 
Q 2184 2928 1769 2928 
Q 1347 2928 1069 2612 
Q 791 2297 791 1659 
z
" transform="scale(0.015625)"/>
      </defs>
      <use xlink:href="#ArialMT-4c"/>
      <use xlink:href="#ArialMT-61" x="55.615234"/>
      <use xlink:href="#ArialMT-73" x="111.230469"/>
      <use xlink:href="#ArialMT-73" x="161.230469"/>
      <use xlink:href="#ArialMT-6f" x="211.230469"/>
     </g>
    </g>
    <g id="line2d_23">
     <path d="M 53.57125 43.234625 
L 62.37125 43.234625 
L 71.17125 43.234625 
" style="fill: none; stroke-dasharray: 12.8,3.2,2,3.2; stroke-dashoffset: 0; stroke: #2ca02c; stroke-width: 2"/>
    </g>
    <g id="text_21">
     <!-- Ridge -->
     <g style="fill: #262626" transform="translate(78.21125 46.314625) scale(0.088 -0.088)">
      <defs>
       <path id="ArialMT-52" d="M 503 0 
L 503 4581 
L 2534 4581 
Q 3147 4581 3465 4457 
Q 3784 4334 3975 4021 
Q 4166 3709 4166 3331 
Q 4166 2844 3850 2509 
Q 3534 2175 2875 2084 
Q 3116 1969 3241 1856 
Q 3506 1613 3744 1247 
L 4541 0 
L 3778 0 
L 3172 953 
Q 2906 1366 2734 1584 
Q 2563 1803 2427 1890 
Q 2291 1978 2150 2013 
Q 2047 2034 1813 2034 
L 1109 2034 
L 1109 0 
L 503 0 
z
M 1109 2559 
L 2413 2559 
Q 2828 2559 3062 2645 
Q 3297 2731 3419 2920 
Q 3541 3109 3541 3331 
Q 3541 3656 3305 3865 
Q 3069 4075 2559 4075 
L 1109 4075 
L 1109 2559 
z
" transform="scale(0.015625)"/>
       <path id="ArialMT-69" d="M 425 3934 
L 425 4581 
L 988 4581 
L 988 3934 
L 425 3934 
z
M 425 0 
L 425 3319 
L 988 3319 
L 988 0 
L 425 0 
z
" transform="scale(0.015625)"/>
       <path id="ArialMT-64" d="M 2575 0 
L 2575 419 
Q 2259 -75 1647 -75 
Q 1250 -75 917 144 
Q 584 363 401 755 
Q 219 1147 219 1656 
Q 219 2153 384 2558 
Q 550 2963 881 3178 
Q 1213 3394 1622 3394 
Q 1922 3394 2156 3267 
Q 2391 3141 2538 2938 
L 2538 4581 
L 3097 4581 
L 3097 0 
L 2575 0 
z
M 797 1656 
Q 797 1019 1065 703 
Q 1334 388 1700 388 
Q 2069 388 2326 689 
Q 2584 991 2584 1609 
Q 2584 2291 2321 2609 
Q 2059 2928 1675 2928 
Q 1300 2928 1048 2622 
Q 797 2316 797 1656 
z
" transform="scale(0.015625)"/>
       <path id="ArialMT-67" d="M 319 -275 
L 866 -356 
Q 900 -609 1056 -725 
Q 1266 -881 1628 -881 
Q 2019 -881 2231 -725 
Q 2444 -569 2519 -288 
Q 2563 -116 2559 434 
Q 2191 0 1641 0 
Q 956 0 581 494 
Q 206 988 206 1678 
Q 206 2153 378 2554 
Q 550 2956 876 3175 
Q 1203 3394 1644 3394 
Q 2231 3394 2613 2919 
L 2613 3319 
L 3131 3319 
L 3131 450 
Q 3131 -325 2973 -648 
Q 2816 -972 2473 -1159 
Q 2131 -1347 1631 -1347 
Q 1038 -1347 672 -1080 
Q 306 -813 319 -275 
z
M 784 1719 
Q 784 1066 1043 766 
Q 1303 466 1694 466 
Q 2081 466 2343 764 
Q 2606 1063 2606 1700 
Q 2606 2309 2336 2618 
Q 2066 2928 1684 2928 
Q 1309 2928 1046 2623 
Q 784 2319 784 1719 
z
" transform="scale(0.015625)"/>
      </defs>
      <use xlink:href="#ArialMT-52"/>
      <use xlink:href="#ArialMT-69" x="72.216797"/>
      <use xlink:href="#ArialMT-64" x="94.433594"/>
      <use xlink:href="#ArialMT-67" x="150.048828"/>
      <use xlink:href="#ArialMT-65" x="205.664062"/>
     </g>
    </g>
   </g>
  </g>
 </g>
 <defs>
  <clipPath id="p8f80395a27">
   <rect x="45.65125" y="7.2" width="357.12" height="266.112"/>
  </clipPath>
 </defs>
</svg>