<?xml version="1.0" encoding="utf-8" standalone="no"?>
<!DOCTYPE svg PUBLIC "-//W3C//DTD SVG 1.1//EN"
  "http://www.w3.org/Graphics/SVG/1.1/DTD/svg11.dtd">
<svg xmlns:xlink="http://www.w3.org/1999/xlink" width="281.146937pt" height="224.8125pt" viewBox="0 0 281.146937 224.8125" xmlns="http://www.w3.org/2000/svg" version="1.1">
 <metadata>
  <rdf:RDF xmlns:dc="http://purl.org/dc/elements/1.1/" xmlns:cc="http://creativecommons.org/ns#" xmlns:rdf="http://www.w3.org/1999/02/22-rdf-syntax-ns#">
   <cc:Work>
    <dc:type rdf:resource="http://purl.org/dc/dcmitype/StillImage"/>
    <dc:date>2024-10-05T10:33:45.474883</dc:date>
    <dc:format>image/svg+xml</dc:format>
    <dc:creator>
     <cc:Agent>
      <dc:title>Matplotlib v3.9.2, https://matplotlib.org/</dc:title>
     </cc:Agent>
    </dc:creator>
   </cc:Work>
  </rdf:RDF>
 </metadata>
 <defs>
  <style type="text/css">*{stroke-linejoin: round; stroke-linecap: butt}</style>
 </defs>
 <g id="figure_1">
  <g id="patch_1">
   <path d="M 0 224.8125 
L 281.146937 224.8125 
L 281.146937 0 
L 0 0 
z
" style="fill: #ffffff"/>
  </g>
  <g id="axes_1">
   <g id="patch_2">
    <path d="M 40.741 188.255625 
L 263.941 188.255625 
L 263.941 21.935625 
L 40.741 21.935625 
z
" style="fill: #ffffff"/>
   </g>
   <g id="matplotlib.axis_1">
    <g id="xtick_1">
     <g id="line2d_1">
      <defs>
       <path id="m589115dd54" d="M 0 0 
L 0 4.8 
" style="stroke: #262626"/>
      </defs>
      <g>
       <use xlink:href="#m589115dd54" x="59.403187" y="188.255625" style="fill: #262626; stroke: #262626"/>
      </g>
     </g>
     <g id="text_1">
      <!-- 0.5 -->
      <g style="fill: #262626" transform="translate(53.287187 202.8545) scale(0.088 -0.088)">
       <defs>
        <path id="ArialMT-30" d="M 266 2259 
Q 266 3072 433 3567 
Q 600 4063 929 4331 
Q 1259 4600 1759 4600 
Q 2128 4600 2406 4451 
Q 2684 4303 2865 4023 
Q 3047 3744 3150 3342 
Q 3253 2941 3253 2259 
Q 3253 1453 3087 958 
Q 2922 463 2592 192 
Q 2263 -78 1759 -78 
Q 1097 -78 719 397 
Q 266 969 266 2259 
z
M 844 2259 
Q 844 1131 1108 757 
Q 1372 384 1759 384 
Q 2147 384 2411 759 
Q 2675 1134 2675 2259 
Q 2675 3391 2411 3762 
Q 2147 4134 1753 4134 
Q 1366 4134 1134 3806 
Q 844 3388 844 2259 
z
" transform="scale(0.015625)"/>
        <path id="ArialMT-2e" d="M 581 0 
L 581 641 
L 1222 641 
L 1222 0 
L 581 0 
z
" transform="scale(0.015625)"/>
        <path id="ArialMT-35" d="M 266 1200 
L 856 1250 
Q 922 819 1161 601 
Q 1400 384 1738 384 
Q 2144 384 2425 690 
Q 2706 997 2706 1503 
Q 2706 1984 2436 2262 
Q 2166 2541 1728 2541 
Q 1456 2541 1237 2417 
Q 1019 2294 894 2097 
L 366 2166 
L 809 4519 
L 3088 4519 
L 3088 3981 
L 1259 3981 
L 1013 2750 
Q 1425 3038 1878 3038 
Q 2478 3038 2890 2622 
Q 3303 2206 3303 1553 
Q 3303 931 2941 478 
Q 2500 -78 1738 -78 
Q 1113 -78 717 272 
Q 322 622 266 1200 
z
" transform="scale(0.015625)"/>
       </defs>
       <use xlink:href="#ArialMT-30"/>
       <use xlink:href="#ArialMT-2e" x="55.615234"/>
       <use xlink:href="#ArialMT-35" x="83.398438"/>
      </g>
     </g>
    </g>
    <g id="xtick_2">
     <g id="line2d_2">
      <g>
       <use xlink:href="#m589115dd54" x="98.302959" y="188.255625" style="fill: #262626; stroke: #262626"/>
      </g>
     </g>
     <g id="text_2">
      <!-- 1.0 -->
      <g style="fill: #262626" transform="translate(92.186959 202.8545) scale(0.088 -0.088)">
       <defs>
        <path id="ArialMT-31" d="M 2384 0 
L 1822 0 
L 1822 3584 
Q 1619 3391 1289 3197 
Q 959 3003 697 2906 
L 697 3450 
Q 1169 3672 1522 3987 
Q 1875 4303 2022 4600 
L 2384 4600 
L 2384 0 
z
" transform="scale(0.015625)"/>
       </defs>
       <use xlink:href="#ArialMT-31"/>
       <use xlink:href="#ArialMT-2e" x="55.615234"/>
       <use xlink:href="#ArialMT-30" x="83.398438"/>
      </g>
     </g>
    </g>
    <g id="xtick_3">
     <g id="line2d_3">
      <g>
       <use xlink:href="#m589115dd54" x="137.202731" y="188.255625" style="fill: #262626; stroke: #262626"/>
      </g>
     </g>
     <g id="text_3">
      <!-- 1.5 -->
      <g style="fill: #262626" transform="translate(131.086731 202.8545) scale(0.088 -0.088)">
       <use xlink:href="#ArialMT-31"/>
       <use xlink:href="#ArialMT-2e" x="55.615234"/>
       <use xlink:href="#ArialMT-35" x="83.398438"/>
      </g>
     </g>
    </g>
    <g id="xtick_4">
     <g id="line2d_4">
      <g>
       <use xlink:href="#m589115dd54" x="176.102503" y="188.255625" style="fill: #262626; stroke: #262626"/>
      </g>
     </g>
     <g id="text_4">
      <!-- 2.0 -->
      <g style="fill: #262626" transform="translate(169.986503 202.8545) scale(0.088 -0.088)">
       <defs>
        <path id="ArialMT-32" d="M 3222 541 
L 3222 0 
L 194 0 
Q 188 203 259 391 
Q 375 700 629 1000 
Q 884 1300 1366 1694 
Q 2113 2306 2375 2664 
Q 2638 3022 2638 3341 
Q 2638 3675 2398 3904 
Q 2159 4134 1775 4134 
Q 1369 4134 1125 3890 
Q 881 3647 878 3216 
L 300 3275 
Q 359 3922 746 4261 
Q 1134 4600 1788 4600 
Q 2447 4600 2831 4234 
Q 3216 3869 3216 3328 
Q 3216 3053 3103 2787 
Q 2991 2522 2730 2228 
Q 2469 1934 1863 1422 
Q 1356 997 1212 845 
Q 1069 694 975 541 
L 3222 541 
z
" transform="scale(0.015625)"/>
       </defs>
       <use xlink:href="#ArialMT-32"/>
       <use xlink:href="#ArialMT-2e" x="55.615234"/>
       <use xlink:href="#ArialMT-30" x="83.398438"/>
      </g>
     </g>
    </g>
    <g id="xtick_5">
     <g id="line2d_5">
      <g>
       <use xlink:href="#m589115dd54" x="215.002275" y="188.255625" style="fill: #262626; stroke: #262626"/>
      </g>
     </g>
     <g id="text_5">
      <!-- 2.5 -->
      <g style="fill: #262626" transform="translate(208.886275 202.8545) scale(0.088 -0.088)">
       <use xlink:href="#ArialMT-32"/>
       <use xlink:href="#ArialMT-2e" x="55.615234"/>
       <use xlink:href="#ArialMT-35" x="83.398438"/>
      </g>
     </g>
    </g>
    <g id="xtick_6">
     <g id="line2d_6">
      <g>
       <use xlink:href="#m589115dd54" x="253.902047" y="188.255625" style="fill: #262626; stroke: #262626"/>
      </g>
     </g>
     <g id="text_6">
      <!-- 3.0 -->
      <g style="fill: #262626" transform="translate(247.786047 202.8545) scale(0.088 -0.088)">
       <defs>
        <path id="ArialMT-33" d="M 269 1209 
L 831 1284 
Q 928 806 1161 595 
Q 1394 384 1728 384 
Q 2125 384 2398 659 
Q 2672 934 2672 1341 
Q 2672 1728 2419 1979 
Q 2166 2231 1775 2231 
Q 1616 2231 1378 2169 
L 1441 2663 
Q 1497 2656 1531 2656 
Q 1891 2656 2178 2843 
Q 2466 3031 2466 3422 
Q 2466 3731 2256 3934 
Q 2047 4138 1716 4138 
Q 1388 4138 1169 3931 
Q 950 3725 888 3313 
L 325 3413 
Q 428 3978 793 4289 
Q 1159 4600 1703 4600 
Q 2078 4600 2393 4439 
Q 2709 4278 2876 4000 
Q 3044 3722 3044 3409 
Q 3044 3113 2884 2869 
Q 2725 2625 2413 2481 
Q 2819 2388 3044 2092 
Q 3269 1797 3269 1353 
Q 3269 753 2831 336 
Q 2394 -81 1725 -81 
Q 1122 -81 723 278 
Q 325 638 269 1209 
z
" transform="scale(0.015625)"/>
       </defs>
       <use xlink:href="#ArialMT-33"/>
       <use xlink:href="#ArialMT-2e" x="55.615234"/>
       <use xlink:href="#ArialMT-30" x="83.398438"/>
      </g>
     </g>
    </g>
    <g id="text_7">
     <!-- Model (low-fidelity) -->
     <g style="fill: #262626" transform="translate(112.333 215.592) scale(0.096 -0.096)">
      <defs>
       <path id="ArialMT-4d" d="M 475 0 
L 475 4581 
L 1388 4581 
L 2472 1338 
Q 2622 884 2691 659 
Q 2769 909 2934 1394 
L 4031 4581 
L 4847 4581 
L 4847 0 
L 4263 0 
L 4263 3834 
L 2931 0 
L 2384 0 
L 1059 3900 
L 1059 0 
L 475 0 
z
" transform="scale(0.015625)"/>
       <path id="ArialMT-6f" d="M 213 1659 
Q 213 2581 725 3025 
Q 1153 3394 1769 3394 
Q 2453 3394 2887 2945 
Q 3322 2497 3322 1706 
Q 3322 1066 3130 698 
Q 2938 331 2570 128 
Q 2203 -75 1769 -75 
Q 1072 -75 642 372 
Q 213 819 213 1659 
z
M 791 1659 
Q 791 1022 1069 705 
Q 1347 388 1769 388 
Q 2188 388 2466 706 
Q 2744 1025 2744 1678 
Q 2744 2294 2464 2611 
Q 2184 2928 1769 2928 
Q 1347 2928 1069 2612 
Q 791 2297 791 1659 
z
" transform="scale(0.015625)"/>
       <path id="ArialMT-64" d="M 2575 0 
L 2575 419 
Q 2259 -75 1647 -75 
Q 1250 -75 917 144 
Q 584 363 401 755 
Q 219 1147 219 1656 
Q 219 2153 384 2558 
Q 550 2963 881 3178 
Q 1213 3394 1622 3394 
Q 1922 3394 2156 3267 
Q 2391 3141 2538 2938 
L 2538 4581 
L 3097 4581 
L 3097 0 
L 2575 0 
z
M 797 1656 
Q 797 1019 1065 703 
Q 1334 388 1700 388 
Q 2069 388 2326 689 
Q 2584 991 2584 1609 
Q 2584 2291 2321 2609 
Q 2059 2928 1675 2928 
Q 1300 2928 1048 2622 
Q 797 2316 797 1656 
z
" transform="scale(0.015625)"/>
       <path id="ArialMT-65" d="M 2694 1069 
L 3275 997 
Q 3138 488 2766 206 
Q 2394 -75 1816 -75 
Q 1088 -75 661 373 
Q 234 822 234 1631 
Q 234 2469 665 2931 
Q 1097 3394 1784 3394 
Q 2450 3394 2872 2941 
Q 3294 2488 3294 1666 
Q 3294 1616 3291 1516 
L 816 1516 
Q 847 969 1125 678 
Q 1403 388 1819 388 
Q 2128 388 2347 550 
Q 2566 713 2694 1069 
z
M 847 1978 
L 2700 1978 
Q 2663 2397 2488 2606 
Q 2219 2931 1791 2931 
Q 1403 2931 1139 2672 
Q 875 2413 847 1978 
z
" transform="scale(0.015625)"/>
       <path id="ArialMT-6c" d="M 409 0 
L 409 4581 
L 972 4581 
L 972 0 
L 409 0 
z
" transform="scale(0.015625)"/>
       <path id="ArialMT-20" transform="scale(0.015625)"/>
       <path id="ArialMT-28" d="M 1497 -1347 
Q 1031 -759 709 28 
Q 388 816 388 1659 
Q 388 2403 628 3084 
Q 909 3875 1497 4659 
L 1900 4659 
Q 1522 4009 1400 3731 
Q 1209 3300 1100 2831 
Q 966 2247 966 1656 
Q 966 153 1900 -1347 
L 1497 -1347 
z
" transform="scale(0.015625)"/>
       <path id="ArialMT-77" d="M 1034 0 
L 19 3319 
L 600 3319 
L 1128 1403 
L 1325 691 
Q 1338 744 1497 1375 
L 2025 3319 
L 2603 3319 
L 3100 1394 
L 3266 759 
L 3456 1400 
L 4025 3319 
L 4572 3319 
L 3534 0 
L 2950 0 
L 2422 1988 
L 2294 2553 
L 1622 0 
L 1034 0 
z
" transform="scale(0.015625)"/>
       <path id="ArialMT-2d" d="M 203 1375 
L 203 1941 
L 1931 1941 
L 1931 1375 
L 203 1375 
z
" transform="scale(0.015625)"/>
       <path id="ArialMT-66" d="M 556 0 
L 556 2881 
L 59 2881 
L 59 3319 
L 556 3319 
L 556 3672 
Q 556 4006 616 4169 
Q 697 4388 901 4523 
Q 1106 4659 1475 4659 
Q 1713 4659 2000 4603 
L 1916 4113 
Q 1741 4144 1584 4144 
Q 1328 4144 1222 4034 
Q 1116 3925 1116 3625 
L 1116 3319 
L 1763 3319 
L 1763 2881 
L 1116 2881 
L 1116 0 
L 556 0 
z
" transform="scale(0.015625)"/>
       <path id="ArialMT-69" d="M 425 3934 
L 425 4581 
L 988 4581 
L 988 3934 
L 425 3934 
z
M 425 0 
L 425 3319 
L 988 3319 
L 988 0 
L 425 0 
z
" transform="scale(0.015625)"/>
       <path id="ArialMT-74" d="M 1650 503 
L 1731 6 
Q 1494 -44 1306 -44 
Q 1000 -44 831 53 
Q 663 150 594 308 
Q 525 466 525 972 
L 525 2881 
L 113 2881 
L 113 3319 
L 525 3319 
L 525 4141 
L 1084 4478 
L 1084 3319 
L 1650 3319 
L 1650 2881 
L 1084 2881 
L 1084 941 
Q 1084 700 1114 631 
Q 1144 563 1211 522 
Q 1278 481 1403 481 
Q 1497 481 1650 503 
z
" transform="scale(0.015625)"/>
       <path id="ArialMT-79" d="M 397 -1278 
L 334 -750 
Q 519 -800 656 -800 
Q 844 -800 956 -737 
Q 1069 -675 1141 -563 
Q 1194 -478 1313 -144 
Q 1328 -97 1363 -6 
L 103 3319 
L 709 3319 
L 1400 1397 
Q 1534 1031 1641 628 
Q 1738 1016 1872 1384 
L 2581 3319 
L 3144 3319 
L 1881 -56 
Q 1678 -603 1566 -809 
Q 1416 -1088 1222 -1217 
Q 1028 -1347 759 -1347 
Q 597 -1347 397 -1278 
z
" transform="scale(0.015625)"/>
       <path id="ArialMT-29" d="M 791 -1347 
L 388 -1347 
Q 1322 153 1322 1656 
Q 1322 2244 1188 2822 
Q 1081 3291 891 3722 
Q 769 4003 388 4659 
L 791 4659 
Q 1378 3875 1659 3084 
Q 1900 2403 1900 1659 
Q 1900 816 1576 28 
Q 1253 -759 791 -1347 
z
" transform="scale(0.015625)"/>
      </defs>
      <use xlink:href="#ArialMT-4d"/>
      <use xlink:href="#ArialMT-6f" x="83.300781"/>
      <use xlink:href="#ArialMT-64" x="138.916016"/>
      <use xlink:href="#ArialMT-65" x="194.53125"/>
      <use xlink:href="#ArialMT-6c" x="250.146484"/>
      <use xlink:href="#ArialMT-20" x="272.363281"/>
      <use xlink:href="#ArialMT-28" x="300.146484"/>
      <use xlink:href="#ArialMT-6c" x="333.447266"/>
      <use xlink:href="#ArialMT-6f" x="355.664062"/>
      <use xlink:href="#ArialMT-77" x="411.279297"/>
      <use xlink:href="#ArialMT-2d" x="483.496094"/>
      <use xlink:href="#ArialMT-66" x="516.796875"/>
      <use xlink:href="#ArialMT-69" x="544.580078"/>
      <use xlink:href="#ArialMT-64" x="566.796875"/>
      <use xlink:href="#ArialMT-65" x="622.412109"/>
      <use xlink:href="#ArialMT-6c" x="678.027344"/>
      <use xlink:href="#ArialMT-69" x="700.244141"/>
      <use xlink:href="#ArialMT-74" x="722.460938"/>
      <use xlink:href="#ArialMT-79" x="750.244141"/>
      <use xlink:href="#ArialMT-29" x="800.244141"/>
     </g>
    </g>
   </g>
   <g id="matplotlib.axis_2">
    <g id="ytick_1">
     <g id="line2d_7">
      <defs>
       <path id="m9f1ede83ea" d="M 0 0 
L -4.8 0 
" style="stroke: #262626"/>
      </defs>
      <g>
       <use xlink:href="#m9f1ede83ea" x="40.741" y="173.031549" style="fill: #262626; stroke: #262626"/>
      </g>
     </g>
     <g id="text_8">
      <!-- 0.5 -->
      <g style="fill: #262626" transform="translate(20.209 176.180987) scale(0.088 -0.088)">
       <use xlink:href="#ArialMT-30"/>
       <use xlink:href="#ArialMT-2e" x="55.615234"/>
       <use xlink:href="#ArialMT-35" x="83.398438"/>
      </g>
     </g>
    </g>
    <g id="ytick_2">
     <g id="line2d_8">
      <g>
       <use xlink:href="#m9f1ede83ea" x="40.741" y="144.34074" style="fill: #262626; stroke: #262626"/>
      </g>
     </g>
     <g id="text_9">
      <!-- 1.0 -->
      <g style="fill: #262626" transform="translate(20.209 147.490178) scale(0.088 -0.088)">
       <use xlink:href="#ArialMT-31"/>
       <use xlink:href="#ArialMT-2e" x="55.615234"/>
       <use xlink:href="#ArialMT-30" x="83.398438"/>
      </g>
     </g>
    </g>
    <g id="ytick_3">
     <g id="line2d_9">
      <g>
       <use xlink:href="#m9f1ede83ea" x="40.741" y="115.649931" style="fill: #262626; stroke: #262626"/>
      </g>
     </g>
     <g id="text_10">
      <!-- 1.5 -->
      <g style="fill: #262626" transform="translate(20.209 118.799369) scale(0.088 -0.088)">
       <use xlink:href="#ArialMT-31"/>
       <use xlink:href="#ArialMT-2e" x="55.615234"/>
       <use xlink:href="#ArialMT-35" x="83.398438"/>
      </g>
     </g>
    </g>
    <g id="ytick_4">
     <g id="line2d_10">
      <g>
       <use xlink:href="#m9f1ede83ea" x="40.741" y="86.959122" style="fill: #262626; stroke: #262626"/>
      </g>
     </g>
     <g id="text_11">
      <!-- 2.0 -->
      <g style="fill: #262626" transform="translate(20.209 90.108559) scale(0.088 -0.088)">
       <use xlink:href="#ArialMT-32"/>
       <use xlink:href="#ArialMT-2e" x="55.615234"/>
       <use xlink:href="#ArialMT-30" x="83.398438"/>
      </g>
     </g>
    </g>
    <g id="ytick_5">
     <g id="line2d_11">
      <g>
       <use xlink:href="#m9f1ede83ea" x="40.741" y="58.268313" style="fill: #262626; stroke: #262626"/>
      </g>
     </g>
     <g id="text_12">
      <!-- 2.5 -->
      <g style="fill: #262626" transform="translate(20.209 61.41775) scale(0.088 -0.088)">
       <use xlink:href="#ArialMT-32"/>
       <use xlink:href="#ArialMT-2e" x="55.615234"/>
       <use xlink:href="#ArialMT-35" x="83.398438"/>
      </g>
     </g>
    </g>
    <g id="ytick_6">
     <g id="line2d_12">
      <g>
       <use xlink:href="#m9f1ede83ea" x="40.741" y="29.577504" style="fill: #262626; stroke: #262626"/>
      </g>
     </g>
     <g id="text_13">
      <!-- 3.0 -->
      <g style="fill: #262626" transform="translate(20.209 32.726941) scale(0.088 -0.088)">
       <use xlink:href="#ArialMT-33"/>
       <use xlink:href="#ArialMT-2e" x="55.615234"/>
       <use xlink:href="#ArialMT-30" x="83.398438"/>
      </g>
     </g>
    </g>
    <g id="text_14">
     <!-- Surrogate (low-fidelity) -->
     <g style="fill: #262626" transform="translate(14.1885 153.109125) rotate(-90) scale(0.096 -0.096)">
      <defs>
       <path id="ArialMT-53" d="M 288 1472 
L 859 1522 
Q 900 1178 1048 958 
Q 1197 738 1509 602 
Q 1822 466 2213 466 
Q 2559 466 2825 569 
Q 3091 672 3220 851 
Q 3350 1031 3350 1244 
Q 3350 1459 3225 1620 
Q 3100 1781 2813 1891 
Q 2628 1963 1997 2114 
Q 1366 2266 1113 2400 
Q 784 2572 623 2826 
Q 463 3081 463 3397 
Q 463 3744 659 4045 
Q 856 4347 1234 4503 
Q 1613 4659 2075 4659 
Q 2584 4659 2973 4495 
Q 3363 4331 3572 4012 
Q 3781 3694 3797 3291 
L 3216 3247 
Q 3169 3681 2898 3903 
Q 2628 4125 2100 4125 
Q 1550 4125 1298 3923 
Q 1047 3722 1047 3438 
Q 1047 3191 1225 3031 
Q 1400 2872 2139 2705 
Q 2878 2538 3153 2413 
Q 3553 2228 3743 1945 
Q 3934 1663 3934 1294 
Q 3934 928 3725 604 
Q 3516 281 3123 101 
Q 2731 -78 2241 -78 
Q 1619 -78 1198 103 
Q 778 284 539 648 
Q 300 1013 288 1472 
z
" transform="scale(0.015625)"/>
       <path id="ArialMT-75" d="M 2597 0 
L 2597 488 
Q 2209 -75 1544 -75 
Q 1250 -75 995 37 
Q 741 150 617 320 
Q 494 491 444 738 
Q 409 903 409 1263 
L 409 3319 
L 972 3319 
L 972 1478 
Q 972 1038 1006 884 
Q 1059 663 1231 536 
Q 1403 409 1656 409 
Q 1909 409 2131 539 
Q 2353 669 2445 892 
Q 2538 1116 2538 1541 
L 2538 3319 
L 3100 3319 
L 3100 0 
L 2597 0 
z
" transform="scale(0.015625)"/>
       <path id="ArialMT-72" d="M 416 0 
L 416 3319 
L 922 3319 
L 922 2816 
Q 1116 3169 1280 3281 
Q 1444 3394 1641 3394 
Q 1925 3394 2219 3213 
L 2025 2691 
Q 1819 2813 1613 2813 
Q 1428 2813 1281 2702 
Q 1134 2591 1072 2394 
Q 978 2094 978 1738 
L 978 0 
L 416 0 
z
" transform="scale(0.015625)"/>
       <path id="ArialMT-67" d="M 319 -275 
L 866 -356 
Q 900 -609 1056 -725 
Q 1266 -881 1628 -881 
Q 2019 -881 2231 -725 
Q 2444 -569 2519 -288 
Q 2563 -116 2559 434 
Q 2191 0 1641 0 
Q 956 0 581 494 
Q 206 988 206 1678 
Q 206 2153 378 2554 
Q 550 2956 876 3175 
Q 1203 3394 1644 3394 
Q 2231 3394 2613 2919 
L 2613 3319 
L 3131 3319 
L 3131 450 
Q 3131 -325 2973 -648 
Q 2816 -972 2473 -1159 
Q 2131 -1347 1631 -1347 
Q 1038 -1347 672 -1080 
Q 306 -813 319 -275 
z
M 784 1719 
Q 784 1066 1043 766 
Q 1303 466 1694 466 
Q 2081 466 2343 764 
Q 2606 1063 2606 1700 
Q 2606 2309 2336 2618 
Q 2066 2928 1684 2928 
Q 1309 2928 1046 2623 
Q 784 2319 784 1719 
z
" transform="scale(0.015625)"/>
       <path id="ArialMT-61" d="M 2588 409 
Q 2275 144 1986 34 
Q 1697 -75 1366 -75 
Q 819 -75 525 192 
Q 231 459 231 875 
Q 231 1119 342 1320 
Q 453 1522 633 1644 
Q 813 1766 1038 1828 
Q 1203 1872 1538 1913 
Q 2219 1994 2541 2106 
Q 2544 2222 2544 2253 
Q 2544 2597 2384 2738 
Q 2169 2928 1744 2928 
Q 1347 2928 1158 2789 
Q 969 2650 878 2297 
L 328 2372 
Q 403 2725 575 2942 
Q 747 3159 1072 3276 
Q 1397 3394 1825 3394 
Q 2250 3394 2515 3294 
Q 2781 3194 2906 3042 
Q 3031 2891 3081 2659 
Q 3109 2516 3109 2141 
L 3109 1391 
Q 3109 606 3145 398 
Q 3181 191 3288 0 
L 2700 0 
Q 2613 175 2588 409 
z
M 2541 1666 
Q 2234 1541 1622 1453 
Q 1275 1403 1131 1340 
Q 988 1278 909 1158 
Q 831 1038 831 891 
Q 831 666 1001 516 
Q 1172 366 1500 366 
Q 1825 366 2078 508 
Q 2331 650 2450 897 
Q 2541 1088 2541 1459 
L 2541 1666 
z
" transform="scale(0.015625)"/>
      </defs>
      <use xlink:href="#ArialMT-53"/>
      <use xlink:href="#ArialMT-75" x="66.699219"/>
      <use xlink:href="#ArialMT-72" x="122.314453"/>
      <use xlink:href="#ArialMT-72" x="155.615234"/>
      <use xlink:href="#ArialMT-6f" x="188.916016"/>
      <use xlink:href="#ArialMT-67" x="244.53125"/>
      <use xlink:href="#ArialMT-61" x="300.146484"/>
      <use xlink:href="#ArialMT-74" x="355.761719"/>
      <use xlink:href="#ArialMT-65" x="383.544922"/>
      <use xlink:href="#ArialMT-20" x="439.160156"/>
      <use xlink:href="#ArialMT-28" x="466.943359"/>
      <use xlink:href="#ArialMT-6c" x="500.244141"/>
      <use xlink:href="#ArialMT-6f" x="522.460938"/>
      <use xlink:href="#ArialMT-77" x="578.076172"/>
      <use xlink:href="#ArialMT-2d" x="650.292969"/>
      <use xlink:href="#ArialMT-66" x="683.59375"/>
      <use xlink:href="#ArialMT-69" x="711.376953"/>
      <use xlink:href="#ArialMT-64" x="733.59375"/>
      <use xlink:href="#ArialMT-65" x="789.208984"/>
      <use xlink:href="#ArialMT-6c" x="844.824219"/>
      <use xlink:href="#ArialMT-69" x="867.041016"/>
      <use xlink:href="#ArialMT-74" x="889.257812"/>
      <use xlink:href="#ArialMT-79" x="917.041016"/>
      <use xlink:href="#ArialMT-29" x="967.041016"/>
     </g>
    </g>
   </g>
   <g id="LineCollection_1">
    <path d="M 248.912165 33.397267 
L 248.912165 33.091624 
" clip-path="url(#pd64125ce7f)" style="fill: none; stroke: #1f77b4; stroke-width: 1.2"/>
    <path d="M 141.636957 112.899178 
L 141.636957 112.285385 
" clip-path="url(#pd64125ce7f)" style="fill: none; stroke: #1f77b4; stroke-width: 1.2"/>
    <path d="M 112.374627 134.574928 
L 112.374627 132.44955 
" clip-path="url(#pd64125ce7f)" style="fill: none; stroke: #1f77b4; stroke-width: 1.2"/>
    <path d="M 160.198665 98.863891 
L 160.198665 98.51278 
" clip-path="url(#pd64125ce7f)" style="fill: none; stroke: #1f77b4; stroke-width: 1.2"/>
    <path d="M 152.517443 104.65562 
L 152.517443 104.093237 
" clip-path="url(#pd64125ce7f)" style="fill: none; stroke: #1f77b4; stroke-width: 1.2"/>
    <path d="M 128.105946 122.593695 
L 128.105946 122.235586 
" clip-path="url(#pd64125ce7f)" style="fill: none; stroke: #1f77b4; stroke-width: 1.2"/>
    <path d="M 51.565434 179.692654 
L 51.565434 177.659923 
" clip-path="url(#pd64125ce7f)" style="fill: none; stroke: #1f77b4; stroke-width: 1.2"/>
    <path d="M 249.244604 33.147256 
L 249.244604 32.863701 
" clip-path="url(#pd64125ce7f)" style="fill: none; stroke: #1f77b4; stroke-width: 1.2"/>
    <path d="M 105.848283 139.130804 
L 105.848283 138.626197 
" clip-path="url(#pd64125ce7f)" style="fill: none; stroke: #1f77b4; stroke-width: 1.2"/>
    <path d="M 184.466343 81.04687 
L 184.466343 80.602238 
" clip-path="url(#pd64125ce7f)" style="fill: none; stroke: #1f77b4; stroke-width: 1.2"/>
    <path d="M 129.400541 122.038968 
L 129.400541 120.710031 
" clip-path="url(#pd64125ce7f)" style="fill: none; stroke: #1f77b4; stroke-width: 1.2"/>
    <path d="M 163.924629 96.22407 
L 163.924629 95.70149 
" clip-path="url(#pd64125ce7f)" style="fill: none; stroke: #1f77b4; stroke-width: 1.2"/>
    <path d="M 102.201013 141.609181 
L 102.201013 141.318683 
" clip-path="url(#pd64125ce7f)" style="fill: none; stroke: #1f77b4; stroke-width: 1.2"/>
    <path d="M 169.768714 92.645249 
L 169.768714 90.955481 
" clip-path="url(#pd64125ce7f)" style="fill: none; stroke: #1f77b4; stroke-width: 1.2"/>
    <path d="M 246.507666 35.229935 
L 246.507666 34.847716 
" clip-path="url(#pd64125ce7f)" style="fill: none; stroke: #1f77b4; stroke-width: 1.2"/>
    <path d="M 107.0396 138.057933 
L 107.0396 137.75816 
" clip-path="url(#pd64125ce7f)" style="fill: none; stroke: #1f77b4; stroke-width: 1.2"/>
    <path d="M 227.874089 48.93241 
L 227.874089 48.638245 
" clip-path="url(#pd64125ce7f)" style="fill: none; stroke: #1f77b4; stroke-width: 1.2"/>
    <path d="M 235.113881 43.608261 
L 235.113881 43.287004 
" clip-path="url(#pd64125ce7f)" style="fill: none; stroke: #1f77b4; stroke-width: 1.2"/>
    <path d="M 248.929506 33.434901 
L 248.929506 33.081651 
" clip-path="url(#pd64125ce7f)" style="fill: none; stroke: #1f77b4; stroke-width: 1.2"/>
    <path d="M 98.058317 145.037426 
L 98.058317 144.387804 
" clip-path="url(#pd64125ce7f)" style="fill: none; stroke: #1f77b4; stroke-width: 1.2"/>
    <path d="M 97.245015 145.543085 
L 97.245015 145.020092 
" clip-path="url(#pd64125ce7f)" style="fill: none; stroke: #1f77b4; stroke-width: 1.2"/>
    <path d="M 112.451904 134.060813 
L 112.451904 133.734936 
" clip-path="url(#pd64125ce7f)" style="fill: none; stroke: #1f77b4; stroke-width: 1.2"/>
    <path d="M 119.128342 129.137708 
L 119.128342 128.850602 
" clip-path="url(#pd64125ce7f)" style="fill: none; stroke: #1f77b4; stroke-width: 1.2"/>
    <path d="M 170.927059 91.183605 
L 170.927059 90.345737 
" clip-path="url(#pd64125ce7f)" style="fill: none; stroke: #1f77b4; stroke-width: 1.2"/>
    <path d="M 120.851807 127.853038 
L 120.851807 126.622086 
" clip-path="url(#pd64125ce7f)" style="fill: none; stroke: #1f77b4; stroke-width: 1.2"/>
    <path d="M 149.631844 106.694054 
L 149.631844 106.354386 
" clip-path="url(#pd64125ce7f)" style="fill: none; stroke: #1f77b4; stroke-width: 1.2"/>
    <path d="M 246.011985 35.622697 
L 246.011985 35.204076 
" clip-path="url(#pd64125ce7f)" style="fill: none; stroke: #1f77b4; stroke-width: 1.2"/>
    <path d="M 176.949609 86.701161 
L 176.949609 86.177266 
" clip-path="url(#pd64125ce7f)" style="fill: none; stroke: #1f77b4; stroke-width: 1.2"/>
    <path d="M 177.891246 85.832911 
L 177.891246 85.413298 
" clip-path="url(#pd64125ce7f)" style="fill: none; stroke: #1f77b4; stroke-width: 1.2"/>
    <path d="M 82.374132 157.37927 
L 82.374132 155.401804 
" clip-path="url(#pd64125ce7f)" style="fill: none; stroke: #1f77b4; stroke-width: 1.2"/>
    <path d="M 248.425615 33.8258 
L 248.425615 33.430898 
" clip-path="url(#pd64125ce7f)" style="fill: none; stroke: #1f77b4; stroke-width: 1.2"/>
    <path d="M 140.281222 113.532518 
L 140.281222 113.21811 
" clip-path="url(#pd64125ce7f)" style="fill: none; stroke: #1f77b4; stroke-width: 1.2"/>
    <path d="M 222.602366 52.955554 
L 222.602366 52.514495 
" clip-path="url(#pd64125ce7f)" style="fill: none; stroke: #1f77b4; stroke-width: 1.2"/>
    <path d="M 250.521354 32.201735 
L 250.521354 31.925386 
" clip-path="url(#pd64125ce7f)" style="fill: none; stroke: #1f77b4; stroke-width: 1.2"/>
    <path d="M 214.167505 59.00238 
L 214.167505 58.730192 
" clip-path="url(#pd64125ce7f)" style="fill: none; stroke: #1f77b4; stroke-width: 1.2"/>
    <path d="M 252.791271 30.521545 
L 252.791271 30.241592 
" clip-path="url(#pd64125ce7f)" style="fill: none; stroke: #1f77b4; stroke-width: 1.2"/>
    <path d="M 92.709428 148.811906 
L 92.709428 148.260037 
" clip-path="url(#pd64125ce7f)" style="fill: none; stroke: #1f77b4; stroke-width: 1.2"/>
    <path d="M 95.35966 146.996273 
L 95.35966 146.35453 
" clip-path="url(#pd64125ce7f)" style="fill: none; stroke: #1f77b4; stroke-width: 1.2"/>
    <path d="M 129.110871 122.014996 
L 129.110871 121.551809 
" clip-path="url(#pd64125ce7f)" style="fill: none; stroke: #1f77b4; stroke-width: 1.2"/>
    <path d="M 237.448008 41.84364 
L 237.448008 41.570116 
" clip-path="url(#pd64125ce7f)" style="fill: none; stroke: #1f77b4; stroke-width: 1.2"/>
    <path d="M 249.707636 32.858041 
L 249.707636 32.513789 
" clip-path="url(#pd64125ce7f)" style="fill: none; stroke: #1f77b4; stroke-width: 1.2"/>
    <path d="M 56.239317 175.890582 
L 56.239317 174.735124 
" clip-path="url(#pd64125ce7f)" style="fill: none; stroke: #1f77b4; stroke-width: 1.2"/>
    <path d="M 50.886455 180.695625 
L 50.886455 177.520644 
" clip-path="url(#pd64125ce7f)" style="fill: none; stroke: #1f77b4; stroke-width: 1.2"/>
    <path d="M 212.719985 60.098968 
L 212.719985 59.793507 
" clip-path="url(#pd64125ce7f)" style="fill: none; stroke: #1f77b4; stroke-width: 1.2"/>
    <path d="M 131.937631 119.697206 
L 131.937631 119.387141 
" clip-path="url(#pd64125ce7f)" style="fill: none; stroke: #1f77b4; stroke-width: 1.2"/>
    <path d="M 90.051946 150.586361 
L 90.051946 149.974908 
" clip-path="url(#pd64125ce7f)" style="fill: none; stroke: #1f77b4; stroke-width: 1.2"/>
    <path d="M 166.573396 94.334483 
L 166.573396 93.838271 
" clip-path="url(#pd64125ce7f)" style="fill: none; stroke: #1f77b4; stroke-width: 1.2"/>
    <path d="M 190.721231 76.303487 
L 190.721231 76.006218 
" clip-path="url(#pd64125ce7f)" style="fill: none; stroke: #1f77b4; stroke-width: 1.2"/>
    <path d="M 108.879028 136.75868 
L 108.879028 136.081071 
" clip-path="url(#pd64125ce7f)" style="fill: none; stroke: #1f77b4; stroke-width: 1.2"/>
    <path d="M 94.307261 147.607641 
L 94.307261 146.762878 
" clip-path="url(#pd64125ce7f)" style="fill: none; stroke: #1f77b4; stroke-width: 1.2"/>
    <path d="M 125.597028 125.339211 
L 125.597028 123.341521 
" clip-path="url(#pd64125ce7f)" style="fill: none; stroke: #1f77b4; stroke-width: 1.2"/>
    <path d="M 114.90616 132.249853 
L 114.90616 131.733483 
" clip-path="url(#pd64125ce7f)" style="fill: none; stroke: #1f77b4; stroke-width: 1.2"/>
    <path d="M 155.387017 102.651887 
L 155.387017 101.783674 
" clip-path="url(#pd64125ce7f)" style="fill: none; stroke: #1f77b4; stroke-width: 1.2"/>
    <path d="M 252.389326 30.840739 
L 252.389326 30.525367 
" clip-path="url(#pd64125ce7f)" style="fill: none; stroke: #1f77b4; stroke-width: 1.2"/>
    <path d="M 133.076914 118.976917 
L 133.076914 118.588675 
" clip-path="url(#pd64125ce7f)" style="fill: none; stroke: #1f77b4; stroke-width: 1.2"/>
    <path d="M 197.568834 71.420527 
L 197.568834 70.912389 
" clip-path="url(#pd64125ce7f)" style="fill: none; stroke: #1f77b4; stroke-width: 1.2"/>
    <path d="M 251.238405 31.674378 
L 251.238405 31.387708 
" clip-path="url(#pd64125ce7f)" style="fill: none; stroke: #1f77b4; stroke-width: 1.2"/>
    <path d="M 155.371871 102.55561 
L 155.371871 102.115076 
" clip-path="url(#pd64125ce7f)" style="fill: none; stroke: #1f77b4; stroke-width: 1.2"/>
    <path d="M 98.492498 144.748324 
L 98.492498 143.96106 
" clip-path="url(#pd64125ce7f)" style="fill: none; stroke: #1f77b4; stroke-width: 1.2"/>
    <path d="M 166.738609 94.18723 
L 166.738609 93.606394 
" clip-path="url(#pd64125ce7f)" style="fill: none; stroke: #1f77b4; stroke-width: 1.2"/>
    <path d="M 174.910989 87.970738 
L 174.910989 87.656913 
" clip-path="url(#pd64125ce7f)" style="fill: none; stroke: #1f77b4; stroke-width: 1.2"/>
    <path d="M 85.467111 154.124712 
L 85.467111 153.335189 
" clip-path="url(#pd64125ce7f)" style="fill: none; stroke: #1f77b4; stroke-width: 1.2"/>
    <path d="M 180.401026 83.940633 
L 180.401026 83.616125 
" clip-path="url(#pd64125ce7f)" style="fill: none; stroke: #1f77b4; stroke-width: 1.2"/>
    <path d="M 122.014709 126.953241 
L 122.014709 126.58814 
" clip-path="url(#pd64125ce7f)" style="fill: none; stroke: #1f77b4; stroke-width: 1.2"/>
    <path d="M 112.737592 133.932115 
L 112.737592 133.255486 
" clip-path="url(#pd64125ce7f)" style="fill: none; stroke: #1f77b4; stroke-width: 1.2"/>
    <path d="M 123.621883 125.905299 
L 123.621883 125.466016 
" clip-path="url(#pd64125ce7f)" style="fill: none; stroke: #1f77b4; stroke-width: 1.2"/>
    <path d="M 188.756917 77.748979 
L 188.756917 77.464321 
" clip-path="url(#pd64125ce7f)" style="fill: none; stroke: #1f77b4; stroke-width: 1.2"/>
    <path d="M 218.901241 55.635597 
L 218.901241 55.211522 
" clip-path="url(#pd64125ce7f)" style="fill: none; stroke: #1f77b4; stroke-width: 1.2"/>
    <path d="M 197.126789 71.715729 
L 197.126789 71.229866 
" clip-path="url(#pd64125ce7f)" style="fill: none; stroke: #1f77b4; stroke-width: 1.2"/>
    <path d="M 70.338648 165.205631 
L 70.338648 164.492091 
" clip-path="url(#pd64125ce7f)" style="fill: none; stroke: #1f77b4; stroke-width: 1.2"/>
    <path d="M 252.478301 30.747791 
L 252.478301 30.471376 
" clip-path="url(#pd64125ce7f)" style="fill: none; stroke: #1f77b4; stroke-width: 1.2"/>
    <path d="M 246.242227 35.374114 
L 246.242227 35.07584 
" clip-path="url(#pd64125ce7f)" style="fill: none; stroke: #1f77b4; stroke-width: 1.2"/>
    <path d="M 142.978186 111.535637 
L 142.978186 111.210748 
" clip-path="url(#pd64125ce7f)" style="fill: none; stroke: #1f77b4; stroke-width: 1.2"/>
    <path d="M 141.344647 112.911925 
L 141.344647 112.28945 
" clip-path="url(#pd64125ce7f)" style="fill: none; stroke: #1f77b4; stroke-width: 1.2"/>
    <path d="M 253.795545 29.785942 
L 253.795545 29.495625 
" clip-path="url(#pd64125ce7f)" style="fill: none; stroke: #1f77b4; stroke-width: 1.2"/>
    <path d="M 119.49273 128.867154 
L 119.49273 128.379967 
" clip-path="url(#pd64125ce7f)" style="fill: none; stroke: #1f77b4; stroke-width: 1.2"/>
    <path d="M 72.886244 163.719173 
L 72.886244 162.758136 
" clip-path="url(#pd64125ce7f)" style="fill: none; stroke: #1f77b4; stroke-width: 1.2"/>
    <path d="M 55.791994 176.43627 
L 55.791994 175.072651 
" clip-path="url(#pd64125ce7f)" style="fill: none; stroke: #1f77b4; stroke-width: 1.2"/>
    <path d="M 92.406268 148.928321 
L 92.406268 148.535667 
" clip-path="url(#pd64125ce7f)" style="fill: none; stroke: #1f77b4; stroke-width: 1.2"/>
    <path d="M 236.555088 42.582557 
L 236.555088 42.198754 
" clip-path="url(#pd64125ce7f)" style="fill: none; stroke: #1f77b4; stroke-width: 1.2"/>
    <path d="M 174.159442 88.751668 
L 174.159442 88.196128 
" clip-path="url(#pd64125ce7f)" style="fill: none; stroke: #1f77b4; stroke-width: 1.2"/>
    <path d="M 175.776542 87.366457 
L 175.776542 87.050579 
" clip-path="url(#pd64125ce7f)" style="fill: none; stroke: #1f77b4; stroke-width: 1.2"/>
    <path d="M 162.648764 97.005759 
L 162.648764 96.574523 
" clip-path="url(#pd64125ce7f)" style="fill: none; stroke: #1f77b4; stroke-width: 1.2"/>
    <path d="M 248.012739 34.081567 
L 248.012739 33.796019 
" clip-path="url(#pd64125ce7f)" style="fill: none; stroke: #1f77b4; stroke-width: 1.2"/>
    <path d="M 113.212109 133.740422 
L 113.212109 132.545167 
" clip-path="url(#pd64125ce7f)" style="fill: none; stroke: #1f77b4; stroke-width: 1.2"/>
    <path d="M 130.667952 120.841471 
L 130.667952 120.394636 
" clip-path="url(#pd64125ce7f)" style="fill: none; stroke: #1f77b4; stroke-width: 1.2"/>
    <path d="M 238.558127 41.074939 
L 238.558127 40.706084 
" clip-path="url(#pd64125ce7f)" style="fill: none; stroke: #1f77b4; stroke-width: 1.2"/>
    <path d="M 111.979805 134.453805 
L 111.979805 134.126462 
" clip-path="url(#pd64125ce7f)" style="fill: none; stroke: #1f77b4; stroke-width: 1.2"/>
    <path d="M 246.887617 34.953397 
L 246.887617 34.547749 
" clip-path="url(#pd64125ce7f)" style="fill: none; stroke: #1f77b4; stroke-width: 1.2"/>
    <path d="M 204.355564 66.494256 
L 204.355564 65.851756 
" clip-path="url(#pd64125ce7f)" style="fill: none; stroke: #1f77b4; stroke-width: 1.2"/>
    <path d="M 96.611615 145.723006 
L 96.611615 145.431531 
" clip-path="url(#pd64125ce7f)" style="fill: none; stroke: #1f77b4; stroke-width: 1.2"/>
    <path d="M 142.915902 111.948922 
L 142.915902 111.415143 
" clip-path="url(#pd64125ce7f)" style="fill: none; stroke: #1f77b4; stroke-width: 1.2"/>
    <path d="M 139.40347 114.145911 
L 139.40347 113.850545 
" clip-path="url(#pd64125ce7f)" style="fill: none; stroke: #1f77b4; stroke-width: 1.2"/>
    <path d="M 248.875128 33.449324 
L 248.875128 33.164568 
" clip-path="url(#pd64125ce7f)" style="fill: none; stroke: #1f77b4; stroke-width: 1.2"/>
    <path d="M 106.055285 138.865229 
L 106.055285 138.289255 
" clip-path="url(#pd64125ce7f)" style="fill: none; stroke: #1f77b4; stroke-width: 1.2"/>
    <path d="M 223.824909 52.011739 
L 223.824909 51.560896 
" clip-path="url(#pd64125ce7f)" style="fill: none; stroke: #1f77b4; stroke-width: 1.2"/>
    <path d="M 225.245616 50.831078 
L 225.245616 50.566832 
" clip-path="url(#pd64125ce7f)" style="fill: none; stroke: #1f77b4; stroke-width: 1.2"/>
    <path d="M 139.142586 114.482571 
L 139.142586 114.09665 
" clip-path="url(#pd64125ce7f)" style="fill: none; stroke: #1f77b4; stroke-width: 1.2"/>
    <path d="M 169.075102 92.272056 
L 169.075102 91.949977 
" clip-path="url(#pd64125ce7f)" style="fill: none; stroke: #1f77b4; stroke-width: 1.2"/>
    <path d="M 113.830995 133.029822 
L 113.830995 132.748995 
" clip-path="url(#pd64125ce7f)" style="fill: none; stroke: #1f77b4; stroke-width: 1.2"/>
   </g>
   <g id="line2d_13">
    <path d="M 248.912165 33.257827 
L 141.636957 112.379435 
L 112.374627 133.962079 
L 160.198665 98.689113 
L 152.517443 104.354454 
L 128.105946 122.359331 
L 51.565434 178.812341 
L 249.244604 33.012635 
L 105.848283 138.775632 
L 184.466343 80.790311 
L 129.400541 121.404493 
L 163.924629 95.941001 
L 102.201013 141.465702 
L 169.768714 91.630654 
L 246.507666 35.031283 
L 107.0396 137.896967 
L 227.874089 48.774613 
L 235.113881 43.434852 
L 248.929506 33.245038 
L 98.058317 144.521178 
L 97.245015 145.121035 
L 112.451904 133.905083 
L 119.128342 128.980828 
L 170.927059 90.776308 
L 120.851807 127.709673 
L 149.631844 106.482749 
L 246.011985 35.396877 
L 176.949609 86.334333 
L 177.891246 85.639821 
L 82.374132 156.089162 
L 248.425615 33.616686 
L 140.281222 113.379367 
L 222.602366 52.662811 
L 250.521354 32.070958 
L 214.167505 58.884003 
L 252.791271 30.396765 
L 92.709428 148.466289 
L 95.35966 146.511592 
L 129.110871 121.618141 
L 237.448008 41.713299 
L 249.707636 32.671122 
L 56.239317 175.365085 
L 50.886455 179.313127 
L 212.719985 59.951632 
L 131.937631 119.533244 
L 90.051946 150.426334 
L 166.573396 93.987384 
L 190.721231 76.176973 
L 108.879028 136.540284 
L 94.307261 147.287796 
L 125.597028 124.209801 
L 114.90616 132.094929 
L 155.387017 102.237979 
L 252.389326 30.693222 
L 133.076914 118.692958 
L 197.568834 71.126474 
L 251.238405 31.542092 
L 155.371871 102.24915 
L 98.492498 144.200944 
L 166.738609 93.86553 
L 174.910989 87.837932 
L 85.467111 153.807913 
L 180.401026 83.788715 
L 122.014709 126.851967 
L 112.737592 133.694372 
L 123.621883 125.666584 
L 188.756917 77.625767 
L 218.901241 55.392602 
L 197.126789 71.452507 
L 70.338648 164.96602 
L 252.478301 30.627598 
L 246.242227 35.22706 
L 142.978186 111.390202 
L 141.344647 112.595031 
L 253.795545 29.656055 
L 119.49273 128.712071 
L 72.886244 163.087023 
L 55.791994 175.69501 
L 92.406268 148.689888 
L 236.555088 42.37188 
L 174.159442 88.39224 
L 175.776542 87.199537 
L 162.648764 96.882025 
L 248.012739 33.921206 
L 113.212109 133.344388 
L 130.667952 120.469705 
L 238.558127 40.894523 
L 111.979805 134.253283 
L 246.887617 34.751048 
L 204.355564 66.120872 
L 96.611615 145.588203 
L 142.915902 111.43614 
L 139.40347 114.02676 
L 248.875128 33.285144 
L 106.055285 138.622956 
L 223.824909 51.761115 
L 225.245616 50.713263 
L 139.142586 114.219177 
L 169.075102 92.142233 
L 113.830995 132.887925 
" clip-path="url(#pd64125ce7f)" style="fill: none; stroke-dasharray: 4.44,1.92; stroke-dashoffset: 0; stroke: #000000; stroke-width: 1.2"/>
   </g>
   <g id="line2d_14">
    <defs>
     <path id="mc5f9720fd6" d="M 0 2.4 
C 0.636487 2.4 1.246992 2.147121 1.697056 1.697056 
C 2.147121 1.246992 2.4 0.636487 2.4 0 
C 2.4 -0.636487 2.147121 -1.246992 1.697056 -1.697056 
C 1.246992 -2.147121 0.636487 -2.4 0 -2.4 
C -0.636487 -2.4 -1.246992 -2.147121 -1.697056 -1.697056 
C -2.147121 -1.246992 -2.4 -0.636487 -2.4 0 
C -2.4 0.636487 -2.147121 1.246992 -1.697056 1.697056 
C -1.246992 2.147121 -0.636487 2.4 0 2.4 
z
" style="stroke: #1f77b4"/>
    </defs>
    <g clip-path="url(#pd64125ce7f)">
     <use xlink:href="#mc5f9720fd6" x="248.912165" y="33.244446" style="fill: #1f77b4; stroke: #1f77b4"/>
     <use xlink:href="#mc5f9720fd6" x="141.636957" y="112.592281" style="fill: #1f77b4; stroke: #1f77b4"/>
     <use xlink:href="#mc5f9720fd6" x="112.374627" y="133.512239" style="fill: #1f77b4; stroke: #1f77b4"/>
     <use xlink:href="#mc5f9720fd6" x="160.198665" y="98.688335" style="fill: #1f77b4; stroke: #1f77b4"/>
     <use xlink:href="#mc5f9720fd6" x="152.517443" y="104.374428" style="fill: #1f77b4; stroke: #1f77b4"/>
     <use xlink:href="#mc5f9720fd6" x="128.105946" y="122.414641" style="fill: #1f77b4; stroke: #1f77b4"/>
     <use xlink:href="#mc5f9720fd6" x="51.565434" y="178.676288" style="fill: #1f77b4; stroke: #1f77b4"/>
     <use xlink:href="#mc5f9720fd6" x="249.244604" y="33.005479" style="fill: #1f77b4; stroke: #1f77b4"/>
     <use xlink:href="#mc5f9720fd6" x="105.848283" y="138.878501" style="fill: #1f77b4; stroke: #1f77b4"/>
     <use xlink:href="#mc5f9720fd6" x="184.466343" y="80.824554" style="fill: #1f77b4; stroke: #1f77b4"/>
     <use xlink:href="#mc5f9720fd6" x="129.400541" y="121.374499" style="fill: #1f77b4; stroke: #1f77b4"/>
     <use xlink:href="#mc5f9720fd6" x="163.924629" y="95.96278" style="fill: #1f77b4; stroke: #1f77b4"/>
     <use xlink:href="#mc5f9720fd6" x="102.201013" y="141.463932" style="fill: #1f77b4; stroke: #1f77b4"/>
     <use xlink:href="#mc5f9720fd6" x="169.768714" y="91.800365" style="fill: #1f77b4; stroke: #1f77b4"/>
     <use xlink:href="#mc5f9720fd6" x="246.507666" y="35.038825" style="fill: #1f77b4; stroke: #1f77b4"/>
     <use xlink:href="#mc5f9720fd6" x="107.0396" y="137.908047" style="fill: #1f77b4; stroke: #1f77b4"/>
     <use xlink:href="#mc5f9720fd6" x="227.874089" y="48.785328" style="fill: #1f77b4; stroke: #1f77b4"/>
     <use xlink:href="#mc5f9720fd6" x="235.113881" y="43.447632" style="fill: #1f77b4; stroke: #1f77b4"/>
     <use xlink:href="#mc5f9720fd6" x="248.929506" y="33.258276" style="fill: #1f77b4; stroke: #1f77b4"/>
     <use xlink:href="#mc5f9720fd6" x="98.058317" y="144.712615" style="fill: #1f77b4; stroke: #1f77b4"/>
     <use xlink:href="#mc5f9720fd6" x="97.245015" y="145.281588" style="fill: #1f77b4; stroke: #1f77b4"/>
     <use xlink:href="#mc5f9720fd6" x="112.451904" y="133.897874" style="fill: #1f77b4; stroke: #1f77b4"/>
     <use xlink:href="#mc5f9720fd6" x="119.128342" y="128.994155" style="fill: #1f77b4; stroke: #1f77b4"/>
     <use xlink:href="#mc5f9720fd6" x="170.927059" y="90.764671" style="fill: #1f77b4; stroke: #1f77b4"/>
     <use xlink:href="#mc5f9720fd6" x="120.851807" y="127.237562" style="fill: #1f77b4; stroke: #1f77b4"/>
     <use xlink:href="#mc5f9720fd6" x="149.631844" y="106.52422" style="fill: #1f77b4; stroke: #1f77b4"/>
     <use xlink:href="#mc5f9720fd6" x="246.011985" y="35.413387" style="fill: #1f77b4; stroke: #1f77b4"/>
     <use xlink:href="#mc5f9720fd6" x="176.949609" y="86.439214" style="fill: #1f77b4; stroke: #1f77b4"/>
     <use xlink:href="#mc5f9720fd6" x="177.891246" y="85.623105" style="fill: #1f77b4; stroke: #1f77b4"/>
     <use xlink:href="#mc5f9720fd6" x="82.374132" y="156.390537" style="fill: #1f77b4; stroke: #1f77b4"/>
     <use xlink:href="#mc5f9720fd6" x="248.425615" y="33.628349" style="fill: #1f77b4; stroke: #1f77b4"/>
     <use xlink:href="#mc5f9720fd6" x="140.281222" y="113.375314" style="fill: #1f77b4; stroke: #1f77b4"/>
     <use xlink:href="#mc5f9720fd6" x="222.602366" y="52.735024" style="fill: #1f77b4; stroke: #1f77b4"/>
     <use xlink:href="#mc5f9720fd6" x="250.521354" y="32.063561" style="fill: #1f77b4; stroke: #1f77b4"/>
     <use xlink:href="#mc5f9720fd6" x="214.167505" y="58.866286" style="fill: #1f77b4; stroke: #1f77b4"/>
     <use xlink:href="#mc5f9720fd6" x="252.791271" y="30.381568" style="fill: #1f77b4; stroke: #1f77b4"/>
     <use xlink:href="#mc5f9720fd6" x="92.709428" y="148.535971" style="fill: #1f77b4; stroke: #1f77b4"/>
     <use xlink:href="#mc5f9720fd6" x="95.35966" y="146.675401" style="fill: #1f77b4; stroke: #1f77b4"/>
     <use xlink:href="#mc5f9720fd6" x="129.110871" y="121.783402" style="fill: #1f77b4; stroke: #1f77b4"/>
     <use xlink:href="#mc5f9720fd6" x="237.448008" y="41.706878" style="fill: #1f77b4; stroke: #1f77b4"/>
     <use xlink:href="#mc5f9720fd6" x="249.707636" y="32.685915" style="fill: #1f77b4; stroke: #1f77b4"/>
     <use xlink:href="#mc5f9720fd6" x="56.239317" y="175.312853" style="fill: #1f77b4; stroke: #1f77b4"/>
     <use xlink:href="#mc5f9720fd6" x="50.886455" y="179.108134" style="fill: #1f77b4; stroke: #1f77b4"/>
     <use xlink:href="#mc5f9720fd6" x="212.719985" y="59.946237" style="fill: #1f77b4; stroke: #1f77b4"/>
     <use xlink:href="#mc5f9720fd6" x="131.937631" y="119.542173" style="fill: #1f77b4; stroke: #1f77b4"/>
     <use xlink:href="#mc5f9720fd6" x="90.051946" y="150.280635" style="fill: #1f77b4; stroke: #1f77b4"/>
     <use xlink:href="#mc5f9720fd6" x="166.573396" y="94.086377" style="fill: #1f77b4; stroke: #1f77b4"/>
     <use xlink:href="#mc5f9720fd6" x="190.721231" y="76.154853" style="fill: #1f77b4; stroke: #1f77b4"/>
     <use xlink:href="#mc5f9720fd6" x="108.879028" y="136.419876" style="fill: #1f77b4; stroke: #1f77b4"/>
     <use xlink:href="#mc5f9720fd6" x="94.307261" y="147.185259" style="fill: #1f77b4; stroke: #1f77b4"/>
     <use xlink:href="#mc5f9720fd6" x="125.597028" y="124.340366" style="fill: #1f77b4; stroke: #1f77b4"/>
     <use xlink:href="#mc5f9720fd6" x="114.90616" y="131.991668" style="fill: #1f77b4; stroke: #1f77b4"/>
     <use xlink:href="#mc5f9720fd6" x="155.387017" y="102.217781" style="fill: #1f77b4; stroke: #1f77b4"/>
     <use xlink:href="#mc5f9720fd6" x="252.389326" y="30.683053" style="fill: #1f77b4; stroke: #1f77b4"/>
     <use xlink:href="#mc5f9720fd6" x="133.076914" y="118.782796" style="fill: #1f77b4; stroke: #1f77b4"/>
     <use xlink:href="#mc5f9720fd6" x="197.568834" y="71.166458" style="fill: #1f77b4; stroke: #1f77b4"/>
     <use xlink:href="#mc5f9720fd6" x="251.238405" y="31.531043" style="fill: #1f77b4; stroke: #1f77b4"/>
     <use xlink:href="#mc5f9720fd6" x="155.371871" y="102.335343" style="fill: #1f77b4; stroke: #1f77b4"/>
     <use xlink:href="#mc5f9720fd6" x="98.492498" y="144.354692" style="fill: #1f77b4; stroke: #1f77b4"/>
     <use xlink:href="#mc5f9720fd6" x="166.738609" y="93.896812" style="fill: #1f77b4; stroke: #1f77b4"/>
     <use xlink:href="#mc5f9720fd6" x="174.910989" y="87.813825" style="fill: #1f77b4; stroke: #1f77b4"/>
     <use xlink:href="#mc5f9720fd6" x="85.467111" y="153.72995" style="fill: #1f77b4; stroke: #1f77b4"/>
     <use xlink:href="#mc5f9720fd6" x="180.401026" y="83.778379" style="fill: #1f77b4; stroke: #1f77b4"/>
     <use xlink:href="#mc5f9720fd6" x="122.014709" y="126.770691" style="fill: #1f77b4; stroke: #1f77b4"/>
     <use xlink:href="#mc5f9720fd6" x="112.737592" y="133.5938" style="fill: #1f77b4; stroke: #1f77b4"/>
     <use xlink:href="#mc5f9720fd6" x="123.621883" y="125.685657" style="fill: #1f77b4; stroke: #1f77b4"/>
     <use xlink:href="#mc5f9720fd6" x="188.756917" y="77.60665" style="fill: #1f77b4; stroke: #1f77b4"/>
     <use xlink:href="#mc5f9720fd6" x="218.901241" y="55.42356" style="fill: #1f77b4; stroke: #1f77b4"/>
     <use xlink:href="#mc5f9720fd6" x="197.126789" y="71.472798" style="fill: #1f77b4; stroke: #1f77b4"/>
     <use xlink:href="#mc5f9720fd6" x="70.338648" y="164.848861" style="fill: #1f77b4; stroke: #1f77b4"/>
     <use xlink:href="#mc5f9720fd6" x="252.478301" y="30.609583" style="fill: #1f77b4; stroke: #1f77b4"/>
     <use xlink:href="#mc5f9720fd6" x="246.242227" y="35.224977" style="fill: #1f77b4; stroke: #1f77b4"/>
     <use xlink:href="#mc5f9720fd6" x="142.978186" y="111.373193" style="fill: #1f77b4; stroke: #1f77b4"/>
     <use xlink:href="#mc5f9720fd6" x="141.344647" y="112.600687" style="fill: #1f77b4; stroke: #1f77b4"/>
     <use xlink:href="#mc5f9720fd6" x="253.795545" y="29.640784" style="fill: #1f77b4; stroke: #1f77b4"/>
     <use xlink:href="#mc5f9720fd6" x="119.49273" y="128.623561" style="fill: #1f77b4; stroke: #1f77b4"/>
     <use xlink:href="#mc5f9720fd6" x="72.886244" y="163.238654" style="fill: #1f77b4; stroke: #1f77b4"/>
     <use xlink:href="#mc5f9720fd6" x="55.791994" y="175.75446" style="fill: #1f77b4; stroke: #1f77b4"/>
     <use xlink:href="#mc5f9720fd6" x="92.406268" y="148.731994" style="fill: #1f77b4; stroke: #1f77b4"/>
     <use xlink:href="#mc5f9720fd6" x="236.555088" y="42.390656" style="fill: #1f77b4; stroke: #1f77b4"/>
     <use xlink:href="#mc5f9720fd6" x="174.159442" y="88.473898" style="fill: #1f77b4; stroke: #1f77b4"/>
     <use xlink:href="#mc5f9720fd6" x="175.776542" y="87.208518" style="fill: #1f77b4; stroke: #1f77b4"/>
     <use xlink:href="#mc5f9720fd6" x="162.648764" y="96.790141" style="fill: #1f77b4; stroke: #1f77b4"/>
     <use xlink:href="#mc5f9720fd6" x="248.012739" y="33.938793" style="fill: #1f77b4; stroke: #1f77b4"/>
     <use xlink:href="#mc5f9720fd6" x="113.212109" y="133.142795" style="fill: #1f77b4; stroke: #1f77b4"/>
     <use xlink:href="#mc5f9720fd6" x="130.667952" y="120.618054" style="fill: #1f77b4; stroke: #1f77b4"/>
     <use xlink:href="#mc5f9720fd6" x="238.558127" y="40.890512" style="fill: #1f77b4; stroke: #1f77b4"/>
     <use xlink:href="#mc5f9720fd6" x="111.979805" y="134.290133" style="fill: #1f77b4; stroke: #1f77b4"/>
     <use xlink:href="#mc5f9720fd6" x="246.887617" y="34.750573" style="fill: #1f77b4; stroke: #1f77b4"/>
     <use xlink:href="#mc5f9720fd6" x="204.355564" y="66.173006" style="fill: #1f77b4; stroke: #1f77b4"/>
     <use xlink:href="#mc5f9720fd6" x="96.611615" y="145.577269" style="fill: #1f77b4; stroke: #1f77b4"/>
     <use xlink:href="#mc5f9720fd6" x="142.915902" y="111.682032" style="fill: #1f77b4; stroke: #1f77b4"/>
     <use xlink:href="#mc5f9720fd6" x="139.40347" y="113.998228" style="fill: #1f77b4; stroke: #1f77b4"/>
     <use xlink:href="#mc5f9720fd6" x="248.875128" y="33.306946" style="fill: #1f77b4; stroke: #1f77b4"/>
     <use xlink:href="#mc5f9720fd6" x="106.055285" y="138.577242" style="fill: #1f77b4; stroke: #1f77b4"/>
     <use xlink:href="#mc5f9720fd6" x="223.824909" y="51.786318" style="fill: #1f77b4; stroke: #1f77b4"/>
     <use xlink:href="#mc5f9720fd6" x="225.245616" y="50.698955" style="fill: #1f77b4; stroke: #1f77b4"/>
     <use xlink:href="#mc5f9720fd6" x="139.142586" y="114.289611" style="fill: #1f77b4; stroke: #1f77b4"/>
     <use xlink:href="#mc5f9720fd6" x="169.075102" y="92.111017" style="fill: #1f77b4; stroke: #1f77b4"/>
     <use xlink:href="#mc5f9720fd6" x="113.830995" y="132.889408" style="fill: #1f77b4; stroke: #1f77b4"/>
    </g>
   </g>
   <g id="patch_3">
    <path d="M 40.741 188.255625 
L 40.741 21.935625 
" style="fill: none; stroke: #262626; stroke-linejoin: miter; stroke-linecap: square"/>
   </g>
   <g id="patch_4">
    <path d="M 263.941 188.255625 
L 263.941 21.935625 
" style="fill: none; stroke: #262626; stroke-linejoin: miter; stroke-linecap: square"/>
   </g>
   <g id="patch_5">
    <path d="M 40.741 188.255625 
L 263.941 188.255625 
" style="fill: none; stroke: #262626; stroke-linejoin: miter; stroke-linecap: square"/>
   </g>
   <g id="patch_6">
    <path d="M 40.741 21.935625 
L 263.941 21.935625 
" style="fill: none; stroke: #262626; stroke-linejoin: miter; stroke-linecap: square"/>
   </g>
   <g id="text_15">
    <!-- Low-fidelity GP predictions vs low-fidelity data -->
    <g style="fill: #262626" transform="translate(30.735062 15.935625) scale(0.12 -0.12)">
     <defs>
      <path id="ArialMT-4c" d="M 469 0 
L 469 4581 
L 1075 4581 
L 1075 541 
L 3331 541 
L 3331 0 
L 469 0 
z
" transform="scale(0.015625)"/>
      <path id="ArialMT-47" d="M 2638 1797 
L 2638 2334 
L 4578 2338 
L 4578 638 
Q 4131 281 3656 101 
Q 3181 -78 2681 -78 
Q 2006 -78 1454 211 
Q 903 500 622 1047 
Q 341 1594 341 2269 
Q 341 2938 620 3517 
Q 900 4097 1425 4378 
Q 1950 4659 2634 4659 
Q 3131 4659 3532 4498 
Q 3934 4338 4162 4050 
Q 4391 3763 4509 3300 
L 3963 3150 
Q 3859 3500 3706 3700 
Q 3553 3900 3268 4020 
Q 2984 4141 2638 4141 
Q 2222 4141 1919 4014 
Q 1616 3888 1430 3681 
Q 1244 3475 1141 3228 
Q 966 2803 966 2306 
Q 966 1694 1177 1281 
Q 1388 869 1791 669 
Q 2194 469 2647 469 
Q 3041 469 3416 620 
Q 3791 772 3984 944 
L 3984 1797 
L 2638 1797 
z
" transform="scale(0.015625)"/>
      <path id="ArialMT-50" d="M 494 0 
L 494 4581 
L 2222 4581 
Q 2678 4581 2919 4538 
Q 3256 4481 3484 4323 
Q 3713 4166 3852 3881 
Q 3991 3597 3991 3256 
Q 3991 2672 3619 2267 
Q 3247 1863 2275 1863 
L 1100 1863 
L 1100 0 
L 494 0 
z
M 1100 2403 
L 2284 2403 
Q 2872 2403 3119 2622 
Q 3366 2841 3366 3238 
Q 3366 3525 3220 3729 
Q 3075 3934 2838 4000 
Q 2684 4041 2272 4041 
L 1100 4041 
L 1100 2403 
z
" transform="scale(0.015625)"/>
      <path id="ArialMT-70" d="M 422 -1272 
L 422 3319 
L 934 3319 
L 934 2888 
Q 1116 3141 1344 3267 
Q 1572 3394 1897 3394 
Q 2322 3394 2647 3175 
Q 2972 2956 3137 2557 
Q 3303 2159 3303 1684 
Q 3303 1175 3120 767 
Q 2938 359 2589 142 
Q 2241 -75 1856 -75 
Q 1575 -75 1351 44 
Q 1128 163 984 344 
L 984 -1272 
L 422 -1272 
z
M 931 1641 
Q 931 1000 1190 694 
Q 1450 388 1819 388 
Q 2194 388 2461 705 
Q 2728 1022 2728 1688 
Q 2728 2322 2467 2637 
Q 2206 2953 1844 2953 
Q 1484 2953 1207 2617 
Q 931 2281 931 1641 
z
" transform="scale(0.015625)"/>
      <path id="ArialMT-63" d="M 2588 1216 
L 3141 1144 
Q 3050 572 2676 248 
Q 2303 -75 1759 -75 
Q 1078 -75 664 370 
Q 250 816 250 1647 
Q 250 2184 428 2587 
Q 606 2991 970 3192 
Q 1334 3394 1763 3394 
Q 2303 3394 2647 3120 
Q 2991 2847 3088 2344 
L 2541 2259 
Q 2463 2594 2264 2762 
Q 2066 2931 1784 2931 
Q 1359 2931 1093 2626 
Q 828 2322 828 1663 
Q 828 994 1084 691 
Q 1341 388 1753 388 
Q 2084 388 2306 591 
Q 2528 794 2588 1216 
z
" transform="scale(0.015625)"/>
      <path id="ArialMT-6e" d="M 422 0 
L 422 3319 
L 928 3319 
L 928 2847 
Q 1294 3394 1984 3394 
Q 2284 3394 2536 3286 
Q 2788 3178 2913 3003 
Q 3038 2828 3088 2588 
Q 3119 2431 3119 2041 
L 3119 0 
L 2556 0 
L 2556 2019 
Q 2556 2363 2490 2533 
Q 2425 2703 2258 2804 
Q 2091 2906 1866 2906 
Q 1506 2906 1245 2678 
Q 984 2450 984 1813 
L 984 0 
L 422 0 
z
" transform="scale(0.015625)"/>
      <path id="ArialMT-73" d="M 197 991 
L 753 1078 
Q 800 744 1014 566 
Q 1228 388 1613 388 
Q 2000 388 2187 545 
Q 2375 703 2375 916 
Q 2375 1106 2209 1216 
Q 2094 1291 1634 1406 
Q 1016 1563 777 1677 
Q 538 1791 414 1992 
Q 291 2194 291 2438 
Q 291 2659 392 2848 
Q 494 3038 669 3163 
Q 800 3259 1026 3326 
Q 1253 3394 1513 3394 
Q 1903 3394 2198 3281 
Q 2494 3169 2634 2976 
Q 2775 2784 2828 2463 
L 2278 2388 
Q 2241 2644 2061 2787 
Q 1881 2931 1553 2931 
Q 1166 2931 1000 2803 
Q 834 2675 834 2503 
Q 834 2394 903 2306 
Q 972 2216 1119 2156 
Q 1203 2125 1616 2013 
Q 2213 1853 2448 1751 
Q 2684 1650 2818 1456 
Q 2953 1263 2953 975 
Q 2953 694 2789 445 
Q 2625 197 2315 61 
Q 2006 -75 1616 -75 
Q 969 -75 630 194 
Q 291 463 197 991 
z
" transform="scale(0.015625)"/>
      <path id="ArialMT-76" d="M 1344 0 
L 81 3319 
L 675 3319 
L 1388 1331 
Q 1503 1009 1600 663 
Q 1675 925 1809 1294 
L 2547 3319 
L 3125 3319 
L 1869 0 
L 1344 0 
z
" transform="scale(0.015625)"/>
     </defs>
     <use xlink:href="#ArialMT-4c"/>
     <use xlink:href="#ArialMT-6f" x="55.615234"/>
     <use xlink:href="#ArialMT-77" x="111.230469"/>
     <use xlink:href="#ArialMT-2d" x="183.447266"/>
     <use xlink:href="#ArialMT-66" x="216.748047"/>
     <use xlink:href="#ArialMT-69" x="244.53125"/>
     <use xlink:href="#ArialMT-64" x="266.748047"/>
     <use xlink:href="#ArialMT-65" x="322.363281"/>
     <use xlink:href="#ArialMT-6c" x="377.978516"/>
     <use xlink:href="#ArialMT-69" x="400.195312"/>
     <use xlink:href="#ArialMT-74" x="422.412109"/>
     <use xlink:href="#ArialMT-79" x="450.195312"/>
     <use xlink:href="#ArialMT-20" x="500.195312"/>
     <use xlink:href="#ArialMT-47" x="527.978516"/>
     <use xlink:href="#ArialMT-50" x="605.761719"/>
     <use xlink:href="#ArialMT-20" x="670.710938"/>
     <use xlink:href="#ArialMT-70" x="698.494141"/>
     <use xlink:href="#ArialMT-72" x="754.109375"/>
     <use xlink:href="#ArialMT-65" x="787.410156"/>
     <use xlink:href="#ArialMT-64" x="843.025391"/>
     <use xlink:href="#ArialMT-69" x="898.640625"/>
     <use xlink:href="#ArialMT-63" x="920.857422"/>
     <use xlink:href="#ArialMT-74" x="970.857422"/>
     <use xlink:href="#ArialMT-69" x="998.640625"/>
     <use xlink:href="#ArialMT-6f" x="1020.857422"/>
     <use xlink:href="#ArialMT-6e" x="1076.472656"/>
     <use xlink:href="#ArialMT-73" x="1132.087891"/>
     <use xlink:href="#ArialMT-20" x="1182.087891"/>
     <use xlink:href="#ArialMT-76" x="1209.871094"/>
     <use xlink:href="#ArialMT-73" x="1259.871094"/>
     <use xlink:href="#ArialMT-20" x="1309.871094"/>
     <use xlink:href="#ArialMT-6c" x="1337.654297"/>
     <use xlink:href="#ArialMT-6f" x="1359.871094"/>
     <use xlink:href="#ArialMT-77" x="1415.486328"/>
     <use xlink:href="#ArialMT-2d" x="1487.703125"/>
     <use xlink:href="#ArialMT-66" x="1521.003906"/>
     <use xlink:href="#ArialMT-69" x="1548.787109"/>
     <use xlink:href="#ArialMT-64" x="1571.003906"/>
     <use xlink:href="#ArialMT-65" x="1626.619141"/>
     <use xlink:href="#ArialMT-6c" x="1682.234375"/>
     <use xlink:href="#ArialMT-69" x="1704.451172"/>
     <use xlink:href="#ArialMT-74" x="1726.667969"/>
     <use xlink:href="#ArialMT-79" x="1754.451172"/>
     <use xlink:href="#ArialMT-20" x="1804.451172"/>
     <use xlink:href="#ArialMT-64" x="1832.234375"/>
     <use xlink:href="#ArialMT-61" x="1887.849609"/>
     <use xlink:href="#ArialMT-74" x="1943.464844"/>
     <use xlink:href="#ArialMT-61" x="1971.248047"/>
    </g>
   </g>
  </g>
 </g>
 <defs>
  <clipPath id="pd64125ce7f">
   <rect x="40.741" y="21.935625" width="223.2" height="166.32"/>
  </clipPath>
 </defs>
</svg>