<?xml version="1.0" encoding="utf-8" standalone="no"?>
<!DOCTYPE svg PUBLIC "-//W3C//DTD SVG 1.1//EN"
  "http://www.w3.org/Graphics/SVG/1.1/DTD/svg11.dtd">
<svg xmlns:xlink="http://www.w3.org/1999/xlink" width="413.791pt" height="310.61975pt" viewBox="0 0 413.791 310.61975" xmlns="http://www.w3.org/2000/svg" version="1.1">
 <metadata>
  <rdf:RDF xmlns:dc="http://purl.org/dc/elements/1.1/" xmlns:cc="http://creativecommons.org/ns#" xmlns:rdf="http://www.w3.org/1999/02/22-rdf-syntax-ns#">
   <cc:Work>
    <dc:type rdf:resource="http://purl.org/dc/dcmitype/StillImage"/>
    <dc:date>2024-12-18T19:36:36.292107</dc:date>
    <dc:format>image/svg+xml</dc:format>
    <dc:creator>
     <cc:Agent>
      <dc:title>Matplotlib v3.8.0, https://matplotlib.org/</dc:title>
     </cc:Agent>
    </dc:creator>
   </cc:Work>
  </rdf:RDF>
 </metadata>
 <defs>
  <style type="text/css">*{stroke-linejoin: round; stroke-linecap: butt}</style>
 </defs>
 <g id="figure_1">
  <g id="patch_1">
   <path d="M 0 310.61975 
L 413.791 310.61975 
L 413.791 0 
L 0 0 
z
" style="fill: #ffffff"/>
  </g>
  <g id="axes_1">
   <g id="patch_2">
    <path d="M 49.471 273.312 
L 406.591 273.312 
L 406.591 7.2 
L 49.471 7.2 
z
" style="fill: #ffffff"/>
   </g>
   <g id="matplotlib.axis_1">
    <g id="xtick_1">
     <g id="line2d_1">
      <defs>
       <path id="mbae2499fa6" d="M 0 0 
L 0 4.8 
" style="stroke: #262626"/>
      </defs>
      <g>
       <use xlink:href="#mbae2499fa6" x="65.703727" y="273.312" style="fill: #262626; stroke: #262626"/>
      </g>
     </g>
     <g id="text_1">
      <!-- 0 -->
      <g style="fill: #262626" transform="translate(62.904227 288.298625) scale(0.088 -0.088)">
       <defs>
        <path id="DejaVuSans-30" d="M 2034 4250 
Q 1547 4250 1301 3770 
Q 1056 3291 1056 2328 
Q 1056 1369 1301 889 
Q 1547 409 2034 409 
Q 2525 409 2770 889 
Q 3016 1369 3016 2328 
Q 3016 3291 2770 3770 
Q 2525 4250 2034 4250 
z
M 2034 4750 
Q 2819 4750 3233 4129 
Q 3647 3509 3647 2328 
Q 3647 1150 3233 529 
Q 2819 -91 2034 -91 
Q 1250 -91 836 529 
Q 422 1150 422 2328 
Q 422 3509 836 4129 
Q 1250 4750 2034 4750 
z
" transform="scale(0.015625)"/>
       </defs>
       <use xlink:href="#DejaVuSans-30"/>
      </g>
     </g>
    </g>
    <g id="xtick_2">
     <g id="line2d_2">
      <g>
       <use xlink:href="#mbae2499fa6" x="130.64113" y="273.312" style="fill: #262626; stroke: #262626"/>
      </g>
     </g>
     <g id="text_2">
      <!-- 2000 -->
      <g style="fill: #262626" transform="translate(119.44313 288.298625) scale(0.088 -0.088)">
       <defs>
        <path id="DejaVuSans-32" d="M 1228 531 
L 3431 531 
L 3431 0 
L 469 0 
L 469 531 
Q 828 903 1448 1529 
Q 2069 2156 2228 2338 
Q 2531 2678 2651 2914 
Q 2772 3150 2772 3378 
Q 2772 3750 2511 3984 
Q 2250 4219 1831 4219 
Q 1534 4219 1204 4116 
Q 875 4013 500 3803 
L 500 4441 
Q 881 4594 1212 4672 
Q 1544 4750 1819 4750 
Q 2544 4750 2975 4387 
Q 3406 4025 3406 3419 
Q 3406 3131 3298 2873 
Q 3191 2616 2906 2266 
Q 2828 2175 2409 1742 
Q 1991 1309 1228 531 
z
" transform="scale(0.015625)"/>
       </defs>
       <use xlink:href="#DejaVuSans-32"/>
       <use xlink:href="#DejaVuSans-30" x="63.623047"/>
       <use xlink:href="#DejaVuSans-30" x="127.246094"/>
       <use xlink:href="#DejaVuSans-30" x="190.869141"/>
      </g>
     </g>
    </g>
    <g id="xtick_3">
     <g id="line2d_3">
      <g>
       <use xlink:href="#mbae2499fa6" x="195.578533" y="273.312" style="fill: #262626; stroke: #262626"/>
      </g>
     </g>
     <g id="text_3">
      <!-- 4000 -->
      <g style="fill: #262626" transform="translate(184.380533 288.298625) scale(0.088 -0.088)">
       <defs>
        <path id="DejaVuSans-34" d="M 2419 4116 
L 825 1625 
L 2419 1625 
L 2419 4116 
z
M 2253 4666 
L 3047 4666 
L 3047 1625 
L 3713 1625 
L 3713 1100 
L 3047 1100 
L 3047 0 
L 2419 0 
L 2419 1100 
L 313 1100 
L 313 1709 
L 2253 4666 
z
" transform="scale(0.015625)"/>
       </defs>
       <use xlink:href="#DejaVuSans-34"/>
       <use xlink:href="#DejaVuSans-30" x="63.623047"/>
       <use xlink:href="#DejaVuSans-30" x="127.246094"/>
       <use xlink:href="#DejaVuSans-30" x="190.869141"/>
      </g>
     </g>
    </g>
    <g id="xtick_4">
     <g id="line2d_4">
      <g>
       <use xlink:href="#mbae2499fa6" x="260.515936" y="273.312" style="fill: #262626; stroke: #262626"/>
      </g>
     </g>
     <g id="text_4">
      <!-- 6000 -->
      <g style="fill: #262626" transform="translate(249.317936 288.298625) scale(0.088 -0.088)">
       <defs>
        <path id="DejaVuSans-36" d="M 2113 2584 
Q 1688 2584 1439 2293 
Q 1191 2003 1191 1497 
Q 1191 994 1439 701 
Q 1688 409 2113 409 
Q 2538 409 2786 701 
Q 3034 994 3034 1497 
Q 3034 2003 2786 2293 
Q 2538 2584 2113 2584 
z
M 3366 4563 
L 3366 3988 
Q 3128 4100 2886 4159 
Q 2644 4219 2406 4219 
Q 1781 4219 1451 3797 
Q 1122 3375 1075 2522 
Q 1259 2794 1537 2939 
Q 1816 3084 2150 3084 
Q 2853 3084 3261 2657 
Q 3669 2231 3669 1497 
Q 3669 778 3244 343 
Q 2819 -91 2113 -91 
Q 1303 -91 875 529 
Q 447 1150 447 2328 
Q 447 3434 972 4092 
Q 1497 4750 2381 4750 
Q 2619 4750 2861 4703 
Q 3103 4656 3366 4563 
z
" transform="scale(0.015625)"/>
       </defs>
       <use xlink:href="#DejaVuSans-36"/>
       <use xlink:href="#DejaVuSans-30" x="63.623047"/>
       <use xlink:href="#DejaVuSans-30" x="127.246094"/>
       <use xlink:href="#DejaVuSans-30" x="190.869141"/>
      </g>
     </g>
    </g>
    <g id="xtick_5">
     <g id="line2d_5">
      <g>
       <use xlink:href="#mbae2499fa6" x="325.453339" y="273.312" style="fill: #262626; stroke: #262626"/>
      </g>
     </g>
     <g id="text_5">
      <!-- 8000 -->
      <g style="fill: #262626" transform="translate(314.255339 288.298625) scale(0.088 -0.088)">
       <defs>
        <path id="DejaVuSans-38" d="M 2034 2216 
Q 1584 2216 1326 1975 
Q 1069 1734 1069 1313 
Q 1069 891 1326 650 
Q 1584 409 2034 409 
Q 2484 409 2743 651 
Q 3003 894 3003 1313 
Q 3003 1734 2745 1975 
Q 2488 2216 2034 2216 
z
M 1403 2484 
Q 997 2584 770 2862 
Q 544 3141 544 3541 
Q 544 4100 942 4425 
Q 1341 4750 2034 4750 
Q 2731 4750 3128 4425 
Q 3525 4100 3525 3541 
Q 3525 3141 3298 2862 
Q 3072 2584 2669 2484 
Q 3125 2378 3379 2068 
Q 3634 1759 3634 1313 
Q 3634 634 3220 271 
Q 2806 -91 2034 -91 
Q 1263 -91 848 271 
Q 434 634 434 1313 
Q 434 1759 690 2068 
Q 947 2378 1403 2484 
z
M 1172 3481 
Q 1172 3119 1398 2916 
Q 1625 2713 2034 2713 
Q 2441 2713 2670 2916 
Q 2900 3119 2900 3481 
Q 2900 3844 2670 4047 
Q 2441 4250 2034 4250 
Q 1625 4250 1398 4047 
Q 1172 3844 1172 3481 
z
" transform="scale(0.015625)"/>
       </defs>
       <use xlink:href="#DejaVuSans-38"/>
       <use xlink:href="#DejaVuSans-30" x="63.623047"/>
       <use xlink:href="#DejaVuSans-30" x="127.246094"/>
       <use xlink:href="#DejaVuSans-30" x="190.869141"/>
      </g>
     </g>
    </g>
    <g id="xtick_6">
     <g id="line2d_6">
      <g>
       <use xlink:href="#mbae2499fa6" x="390.390741" y="273.312" style="fill: #262626; stroke: #262626"/>
      </g>
     </g>
     <g id="text_6">
      <!-- 10000 -->
      <g style="fill: #262626" transform="translate(376.393241 288.298625) scale(0.088 -0.088)">
       <defs>
        <path id="DejaVuSans-31" d="M 794 531 
L 1825 531 
L 1825 4091 
L 703 3866 
L 703 4441 
L 1819 4666 
L 2450 4666 
L 2450 531 
L 3481 531 
L 3481 0 
L 794 0 
L 794 531 
z
" transform="scale(0.015625)"/>
       </defs>
       <use xlink:href="#DejaVuSans-31"/>
       <use xlink:href="#DejaVuSans-30" x="63.623047"/>
       <use xlink:href="#DejaVuSans-30" x="127.246094"/>
       <use xlink:href="#DejaVuSans-30" x="190.869141"/>
       <use xlink:href="#DejaVuSans-30" x="254.492188"/>
      </g>
     </g>
    </g>
    <g id="text_7">
     <!-- Epochs -->
     <g style="fill: #262626" transform="translate(210.832 301.42325) scale(0.096 -0.096)">
      <defs>
       <path id="DejaVuSans-45" d="M 628 4666 
L 3578 4666 
L 3578 4134 
L 1259 4134 
L 1259 2753 
L 3481 2753 
L 3481 2222 
L 1259 2222 
L 1259 531 
L 3634 531 
L 3634 0 
L 628 0 
L 628 4666 
z
" transform="scale(0.015625)"/>
       <path id="DejaVuSans-70" d="M 1159 525 
L 1159 -1331 
L 581 -1331 
L 581 3500 
L 1159 3500 
L 1159 2969 
Q 1341 3281 1617 3432 
Q 1894 3584 2278 3584 
Q 2916 3584 3314 3078 
Q 3713 2572 3713 1747 
Q 3713 922 3314 415 
Q 2916 -91 2278 -91 
Q 1894 -91 1617 61 
Q 1341 213 1159 525 
z
M 3116 1747 
Q 3116 2381 2855 2742 
Q 2594 3103 2138 3103 
Q 1681 3103 1420 2742 
Q 1159 2381 1159 1747 
Q 1159 1113 1420 752 
Q 1681 391 2138 391 
Q 2594 391 2855 752 
Q 3116 1113 3116 1747 
z
" transform="scale(0.015625)"/>
       <path id="DejaVuSans-6f" d="M 1959 3097 
Q 1497 3097 1228 2736 
Q 959 2375 959 1747 
Q 959 1119 1226 758 
Q 1494 397 1959 397 
Q 2419 397 2687 759 
Q 2956 1122 2956 1747 
Q 2956 2369 2687 2733 
Q 2419 3097 1959 3097 
z
M 1959 3584 
Q 2709 3584 3137 3096 
Q 3566 2609 3566 1747 
Q 3566 888 3137 398 
Q 2709 -91 1959 -91 
Q 1206 -91 779 398 
Q 353 888 353 1747 
Q 353 2609 779 3096 
Q 1206 3584 1959 3584 
z
" transform="scale(0.015625)"/>
       <path id="DejaVuSans-63" d="M 3122 3366 
L 3122 2828 
Q 2878 2963 2633 3030 
Q 2388 3097 2138 3097 
Q 1578 3097 1268 2742 
Q 959 2388 959 1747 
Q 959 1106 1268 751 
Q 1578 397 2138 397 
Q 2388 397 2633 464 
Q 2878 531 3122 666 
L 3122 134 
Q 2881 22 2623 -34 
Q 2366 -91 2075 -91 
Q 1284 -91 818 406 
Q 353 903 353 1747 
Q 353 2603 823 3093 
Q 1294 3584 2113 3584 
Q 2378 3584 2631 3529 
Q 2884 3475 3122 3366 
z
" transform="scale(0.015625)"/>
       <path id="DejaVuSans-68" d="M 3513 2113 
L 3513 0 
L 2938 0 
L 2938 2094 
Q 2938 2591 2744 2837 
Q 2550 3084 2163 3084 
Q 1697 3084 1428 2787 
Q 1159 2491 1159 1978 
L 1159 0 
L 581 0 
L 581 4863 
L 1159 4863 
L 1159 2956 
Q 1366 3272 1645 3428 
Q 1925 3584 2291 3584 
Q 2894 3584 3203 3211 
Q 3513 2838 3513 2113 
z
" transform="scale(0.015625)"/>
       <path id="DejaVuSans-73" d="M 2834 3397 
L 2834 2853 
Q 2591 2978 2328 3040 
Q 2066 3103 1784 3103 
Q 1356 3103 1142 2972 
Q 928 2841 928 2578 
Q 928 2378 1081 2264 
Q 1234 2150 1697 2047 
L 1894 2003 
Q 2506 1872 2764 1633 
Q 3022 1394 3022 966 
Q 3022 478 2636 193 
Q 2250 -91 1575 -91 
Q 1294 -91 989 -36 
Q 684 19 347 128 
L 347 722 
Q 666 556 975 473 
Q 1284 391 1588 391 
Q 1994 391 2212 530 
Q 2431 669 2431 922 
Q 2431 1156 2273 1281 
Q 2116 1406 1581 1522 
L 1381 1569 
Q 847 1681 609 1914 
Q 372 2147 372 2553 
Q 372 3047 722 3315 
Q 1072 3584 1716 3584 
Q 2034 3584 2315 3537 
Q 2597 3491 2834 3397 
z
" transform="scale(0.015625)"/>
      </defs>
      <use xlink:href="#DejaVuSans-45"/>
      <use xlink:href="#DejaVuSans-70" x="63.183594"/>
      <use xlink:href="#DejaVuSans-6f" x="126.660156"/>
      <use xlink:href="#DejaVuSans-63" x="187.841797"/>
      <use xlink:href="#DejaVuSans-68" x="242.822266"/>
      <use xlink:href="#DejaVuSans-73" x="306.201172"/>
     </g>
    </g>
   </g>
   <g id="matplotlib.axis_2">
    <g id="ytick_1">
     <g id="line2d_7">
      <defs>
       <path id="m4fcded8a5a" d="M 0 0 
L -4.8 0 
" style="stroke: #262626"/>
      </defs>
      <g>
       <use xlink:href="#m4fcded8a5a" x="49.471" y="237.879391" style="fill: #262626; stroke: #262626"/>
      </g>
     </g>
     <g id="text_8">
      <!-- $\mathdefault{10^{-5}}$ -->
      <g style="fill: #262626" transform="translate(20.491 241.222704) scale(0.088 -0.088)">
       <defs>
        <path id="DejaVuSans-2212" d="M 678 2272 
L 4684 2272 
L 4684 1741 
L 678 1741 
L 678 2272 
z
" transform="scale(0.015625)"/>
        <path id="DejaVuSans-35" d="M 691 4666 
L 3169 4666 
L 3169 4134 
L 1269 4134 
L 1269 2991 
Q 1406 3038 1543 3061 
Q 1681 3084 1819 3084 
Q 2600 3084 3056 2656 
Q 3513 2228 3513 1497 
Q 3513 744 3044 326 
Q 2575 -91 1722 -91 
Q 1428 -91 1123 -41 
Q 819 9 494 109 
L 494 744 
Q 775 591 1075 516 
Q 1375 441 1709 441 
Q 2250 441 2565 725 
Q 2881 1009 2881 1497 
Q 2881 1984 2565 2268 
Q 2250 2553 1709 2553 
Q 1456 2553 1204 2497 
Q 953 2441 691 2322 
L 691 4666 
z
" transform="scale(0.015625)"/>
       </defs>
       <use xlink:href="#DejaVuSans-31" transform="translate(0 0.684375)"/>
       <use xlink:href="#DejaVuSans-30" transform="translate(63.623047 0.684375)"/>
       <use xlink:href="#DejaVuSans-2212" transform="translate(128.203125 38.965625) scale(0.7)"/>
       <use xlink:href="#DejaVuSans-35" transform="translate(186.855469 38.965625) scale(0.7)"/>
      </g>
     </g>
    </g>
    <g id="ytick_2">
     <g id="line2d_8">
      <g>
       <use xlink:href="#m4fcded8a5a" x="49.471" y="191.634363" style="fill: #262626; stroke: #262626"/>
      </g>
     </g>
     <g id="text_9">
      <!-- $\mathdefault{10^{-4}}$ -->
      <g style="fill: #262626" transform="translate(20.491 194.977675) scale(0.088 -0.088)">
       <use xlink:href="#DejaVuSans-31" transform="translate(0 0.684375)"/>
       <use xlink:href="#DejaVuSans-30" transform="translate(63.623047 0.684375)"/>
       <use xlink:href="#DejaVuSans-2212" transform="translate(128.203125 38.965625) scale(0.7)"/>
       <use xlink:href="#DejaVuSans-34" transform="translate(186.855469 38.965625) scale(0.7)"/>
      </g>
     </g>
    </g>
    <g id="ytick_3">
     <g id="line2d_9">
      <g>
       <use xlink:href="#m4fcded8a5a" x="49.471" y="145.389334" style="fill: #262626; stroke: #262626"/>
      </g>
     </g>
     <g id="text_10">
      <!-- $\mathdefault{10^{-3}}$ -->
      <g style="fill: #262626" transform="translate(20.491 148.732647) scale(0.088 -0.088)">
       <defs>
        <path id="DejaVuSans-33" d="M 2597 2516 
Q 3050 2419 3304 2112 
Q 3559 1806 3559 1356 
Q 3559 666 3084 287 
Q 2609 -91 1734 -91 
Q 1441 -91 1130 -33 
Q 819 25 488 141 
L 488 750 
Q 750 597 1062 519 
Q 1375 441 1716 441 
Q 2309 441 2620 675 
Q 2931 909 2931 1356 
Q 2931 1769 2642 2001 
Q 2353 2234 1838 2234 
L 1294 2234 
L 1294 2753 
L 1863 2753 
Q 2328 2753 2575 2939 
Q 2822 3125 2822 3475 
Q 2822 3834 2567 4026 
Q 2313 4219 1838 4219 
Q 1578 4219 1281 4162 
Q 984 4106 628 3988 
L 628 4550 
Q 988 4650 1302 4700 
Q 1616 4750 1894 4750 
Q 2613 4750 3031 4423 
Q 3450 4097 3450 3541 
Q 3450 3153 3228 2886 
Q 3006 2619 2597 2516 
z
" transform="scale(0.015625)"/>
       </defs>
       <use xlink:href="#DejaVuSans-31" transform="translate(0 0.765625)"/>
       <use xlink:href="#DejaVuSans-30" transform="translate(63.623047 0.765625)"/>
       <use xlink:href="#DejaVuSans-2212" transform="translate(128.203125 39.046875) scale(0.7)"/>
       <use xlink:href="#DejaVuSans-33" transform="translate(186.855469 39.046875) scale(0.7)"/>
      </g>
     </g>
    </g>
    <g id="ytick_4">
     <g id="line2d_10">
      <g>
       <use xlink:href="#m4fcded8a5a" x="49.471" y="99.144306" style="fill: #262626; stroke: #262626"/>
      </g>
     </g>
     <g id="text_11">
      <!-- $\mathdefault{10^{-2}}$ -->
      <g style="fill: #262626" transform="translate(20.491 102.487618) scale(0.088 -0.088)">
       <use xlink:href="#DejaVuSans-31" transform="translate(0 0.765625)"/>
       <use xlink:href="#DejaVuSans-30" transform="translate(63.623047 0.765625)"/>
       <use xlink:href="#DejaVuSans-2212" transform="translate(128.203125 39.046875) scale(0.7)"/>
       <use xlink:href="#DejaVuSans-32" transform="translate(186.855469 39.046875) scale(0.7)"/>
      </g>
     </g>
    </g>
    <g id="ytick_5">
     <g id="line2d_11">
      <g>
       <use xlink:href="#m4fcded8a5a" x="49.471" y="52.899277" style="fill: #262626; stroke: #262626"/>
      </g>
     </g>
     <g id="text_12">
      <!-- $\mathdefault{10^{-1}}$ -->
      <g style="fill: #262626" transform="translate(20.491 56.242589) scale(0.088 -0.088)">
       <use xlink:href="#DejaVuSans-31" transform="translate(0 0.684375)"/>
       <use xlink:href="#DejaVuSans-30" transform="translate(63.623047 0.684375)"/>
       <use xlink:href="#DejaVuSans-2212" transform="translate(128.203125 38.965625) scale(0.7)"/>
       <use xlink:href="#DejaVuSans-31" transform="translate(186.855469 38.965625) scale(0.7)"/>
      </g>
     </g>
    </g>
    <g id="ytick_6">
     <g id="line2d_12">
      <defs>
       <path id="m730f566143" d="M 0 0 
L -3.2 0 
" style="stroke: #262626; stroke-width: 0.8"/>
      </defs>
      <g>
       <use xlink:href="#m730f566143" x="49.471" y="270.203279" style="fill: #262626; stroke: #262626; stroke-width: 0.8"/>
      </g>
     </g>
    </g>
    <g id="ytick_7">
     <g id="line2d_13">
      <g>
       <use xlink:href="#m730f566143" x="49.471" y="262.059934" style="fill: #262626; stroke: #262626; stroke-width: 0.8"/>
      </g>
     </g>
    </g>
    <g id="ytick_8">
     <g id="line2d_14">
      <g>
       <use xlink:href="#m730f566143" x="49.471" y="256.282138" style="fill: #262626; stroke: #262626; stroke-width: 0.8"/>
      </g>
     </g>
    </g>
    <g id="ytick_9">
     <g id="line2d_15">
      <g>
       <use xlink:href="#m730f566143" x="49.471" y="251.800532" style="fill: #262626; stroke: #262626; stroke-width: 0.8"/>
      </g>
     </g>
    </g>
    <g id="ytick_10">
     <g id="line2d_16">
      <g>
       <use xlink:href="#m730f566143" x="49.471" y="248.138793" style="fill: #262626; stroke: #262626; stroke-width: 0.8"/>
      </g>
     </g>
    </g>
    <g id="ytick_11">
     <g id="line2d_17">
      <g>
       <use xlink:href="#m730f566143" x="49.471" y="245.042837" style="fill: #262626; stroke: #262626; stroke-width: 0.8"/>
      </g>
     </g>
    </g>
    <g id="ytick_12">
     <g id="line2d_18">
      <g>
       <use xlink:href="#m730f566143" x="49.471" y="242.360998" style="fill: #262626; stroke: #262626; stroke-width: 0.8"/>
      </g>
     </g>
    </g>
    <g id="ytick_13">
     <g id="line2d_19">
      <g>
       <use xlink:href="#m730f566143" x="49.471" y="239.995448" style="fill: #262626; stroke: #262626; stroke-width: 0.8"/>
      </g>
     </g>
    </g>
    <g id="ytick_14">
     <g id="line2d_20">
      <g>
       <use xlink:href="#m730f566143" x="49.471" y="223.95825" style="fill: #262626; stroke: #262626; stroke-width: 0.8"/>
      </g>
     </g>
    </g>
    <g id="ytick_15">
     <g id="line2d_21">
      <g>
       <use xlink:href="#m730f566143" x="49.471" y="215.814905" style="fill: #262626; stroke: #262626; stroke-width: 0.8"/>
      </g>
     </g>
    </g>
    <g id="ytick_16">
     <g id="line2d_22">
      <g>
       <use xlink:href="#m730f566143" x="49.471" y="210.03711" style="fill: #262626; stroke: #262626; stroke-width: 0.8"/>
      </g>
     </g>
    </g>
    <g id="ytick_17">
     <g id="line2d_23">
      <g>
       <use xlink:href="#m730f566143" x="49.471" y="205.555503" style="fill: #262626; stroke: #262626; stroke-width: 0.8"/>
      </g>
     </g>
    </g>
    <g id="ytick_18">
     <g id="line2d_24">
      <g>
       <use xlink:href="#m730f566143" x="49.471" y="201.893764" style="fill: #262626; stroke: #262626; stroke-width: 0.8"/>
      </g>
     </g>
    </g>
    <g id="ytick_19">
     <g id="line2d_25">
      <g>
       <use xlink:href="#m730f566143" x="49.471" y="198.797808" style="fill: #262626; stroke: #262626; stroke-width: 0.8"/>
      </g>
     </g>
    </g>
    <g id="ytick_20">
     <g id="line2d_26">
      <g>
       <use xlink:href="#m730f566143" x="49.471" y="196.115969" style="fill: #262626; stroke: #262626; stroke-width: 0.8"/>
      </g>
     </g>
    </g>
    <g id="ytick_21">
     <g id="line2d_27">
      <g>
       <use xlink:href="#m730f566143" x="49.471" y="193.750419" style="fill: #262626; stroke: #262626; stroke-width: 0.8"/>
      </g>
     </g>
    </g>
    <g id="ytick_22">
     <g id="line2d_28">
      <g>
       <use xlink:href="#m730f566143" x="49.471" y="177.713222" style="fill: #262626; stroke: #262626; stroke-width: 0.8"/>
      </g>
     </g>
    </g>
    <g id="ytick_23">
     <g id="line2d_29">
      <g>
       <use xlink:href="#m730f566143" x="49.471" y="169.569877" style="fill: #262626; stroke: #262626; stroke-width: 0.8"/>
      </g>
     </g>
    </g>
    <g id="ytick_24">
     <g id="line2d_30">
      <g>
       <use xlink:href="#m730f566143" x="49.471" y="163.792081" style="fill: #262626; stroke: #262626; stroke-width: 0.8"/>
      </g>
     </g>
    </g>
    <g id="ytick_25">
     <g id="line2d_31">
      <g>
       <use xlink:href="#m730f566143" x="49.471" y="159.310475" style="fill: #262626; stroke: #262626; stroke-width: 0.8"/>
      </g>
     </g>
    </g>
    <g id="ytick_26">
     <g id="line2d_32">
      <g>
       <use xlink:href="#m730f566143" x="49.471" y="155.648736" style="fill: #262626; stroke: #262626; stroke-width: 0.8"/>
      </g>
     </g>
    </g>
    <g id="ytick_27">
     <g id="line2d_33">
      <g>
       <use xlink:href="#m730f566143" x="49.471" y="152.55278" style="fill: #262626; stroke: #262626; stroke-width: 0.8"/>
      </g>
     </g>
    </g>
    <g id="ytick_28">
     <g id="line2d_34">
      <g>
       <use xlink:href="#m730f566143" x="49.471" y="149.87094" style="fill: #262626; stroke: #262626; stroke-width: 0.8"/>
      </g>
     </g>
    </g>
    <g id="ytick_29">
     <g id="line2d_35">
      <g>
       <use xlink:href="#m730f566143" x="49.471" y="147.505391" style="fill: #262626; stroke: #262626; stroke-width: 0.8"/>
      </g>
     </g>
    </g>
    <g id="ytick_30">
     <g id="line2d_36">
      <g>
       <use xlink:href="#m730f566143" x="49.471" y="131.468193" style="fill: #262626; stroke: #262626; stroke-width: 0.8"/>
      </g>
     </g>
    </g>
    <g id="ytick_31">
     <g id="line2d_37">
      <g>
       <use xlink:href="#m730f566143" x="49.471" y="123.324848" style="fill: #262626; stroke: #262626; stroke-width: 0.8"/>
      </g>
     </g>
    </g>
    <g id="ytick_32">
     <g id="line2d_38">
      <g>
       <use xlink:href="#m730f566143" x="49.471" y="117.547053" style="fill: #262626; stroke: #262626; stroke-width: 0.8"/>
      </g>
     </g>
    </g>
    <g id="ytick_33">
     <g id="line2d_39">
      <g>
       <use xlink:href="#m730f566143" x="49.471" y="113.065446" style="fill: #262626; stroke: #262626; stroke-width: 0.8"/>
      </g>
     </g>
    </g>
    <g id="ytick_34">
     <g id="line2d_40">
      <g>
       <use xlink:href="#m730f566143" x="49.471" y="109.403707" style="fill: #262626; stroke: #262626; stroke-width: 0.8"/>
      </g>
     </g>
    </g>
    <g id="ytick_35">
     <g id="line2d_41">
      <g>
       <use xlink:href="#m730f566143" x="49.471" y="106.307751" style="fill: #262626; stroke: #262626; stroke-width: 0.8"/>
      </g>
     </g>
    </g>
    <g id="ytick_36">
     <g id="line2d_42">
      <g>
       <use xlink:href="#m730f566143" x="49.471" y="103.625912" style="fill: #262626; stroke: #262626; stroke-width: 0.8"/>
      </g>
     </g>
    </g>
    <g id="ytick_37">
     <g id="line2d_43">
      <g>
       <use xlink:href="#m730f566143" x="49.471" y="101.260362" style="fill: #262626; stroke: #262626; stroke-width: 0.8"/>
      </g>
     </g>
    </g>
    <g id="ytick_38">
     <g id="line2d_44">
      <g>
       <use xlink:href="#m730f566143" x="49.471" y="85.223165" style="fill: #262626; stroke: #262626; stroke-width: 0.8"/>
      </g>
     </g>
    </g>
    <g id="ytick_39">
     <g id="line2d_45">
      <g>
       <use xlink:href="#m730f566143" x="49.471" y="77.079819" style="fill: #262626; stroke: #262626; stroke-width: 0.8"/>
      </g>
     </g>
    </g>
    <g id="ytick_40">
     <g id="line2d_46">
      <g>
       <use xlink:href="#m730f566143" x="49.471" y="71.302024" style="fill: #262626; stroke: #262626; stroke-width: 0.8"/>
      </g>
     </g>
    </g>
    <g id="ytick_41">
     <g id="line2d_47">
      <g>
       <use xlink:href="#m730f566143" x="49.471" y="66.820418" style="fill: #262626; stroke: #262626; stroke-width: 0.8"/>
      </g>
     </g>
    </g>
    <g id="ytick_42">
     <g id="line2d_48">
      <g>
       <use xlink:href="#m730f566143" x="49.471" y="63.158679" style="fill: #262626; stroke: #262626; stroke-width: 0.8"/>
      </g>
     </g>
    </g>
    <g id="ytick_43">
     <g id="line2d_49">
      <g>
       <use xlink:href="#m730f566143" x="49.471" y="60.062723" style="fill: #262626; stroke: #262626; stroke-width: 0.8"/>
      </g>
     </g>
    </g>
    <g id="ytick_44">
     <g id="line2d_50">
      <g>
       <use xlink:href="#m730f566143" x="49.471" y="57.380883" style="fill: #262626; stroke: #262626; stroke-width: 0.8"/>
      </g>
     </g>
    </g>
    <g id="ytick_45">
     <g id="line2d_51">
      <g>
       <use xlink:href="#m730f566143" x="49.471" y="55.015333" style="fill: #262626; stroke: #262626; stroke-width: 0.8"/>
      </g>
     </g>
    </g>
    <g id="ytick_46">
     <g id="line2d_52">
      <g>
       <use xlink:href="#m730f566143" x="49.471" y="38.978136" style="fill: #262626; stroke: #262626; stroke-width: 0.8"/>
      </g>
     </g>
    </g>
    <g id="ytick_47">
     <g id="line2d_53">
      <g>
       <use xlink:href="#m730f566143" x="49.471" y="30.834791" style="fill: #262626; stroke: #262626; stroke-width: 0.8"/>
      </g>
     </g>
    </g>
    <g id="ytick_48">
     <g id="line2d_54">
      <g>
       <use xlink:href="#m730f566143" x="49.471" y="25.056995" style="fill: #262626; stroke: #262626; stroke-width: 0.8"/>
      </g>
     </g>
    </g>
    <g id="ytick_49">
     <g id="line2d_55">
      <g>
       <use xlink:href="#m730f566143" x="49.471" y="20.575389" style="fill: #262626; stroke: #262626; stroke-width: 0.8"/>
      </g>
     </g>
    </g>
    <g id="ytick_50">
     <g id="line2d_56">
      <g>
       <use xlink:href="#m730f566143" x="49.471" y="16.91365" style="fill: #262626; stroke: #262626; stroke-width: 0.8"/>
      </g>
     </g>
    </g>
    <g id="ytick_51">
     <g id="line2d_57">
      <g>
       <use xlink:href="#m730f566143" x="49.471" y="13.817694" style="fill: #262626; stroke: #262626; stroke-width: 0.8"/>
      </g>
     </g>
    </g>
    <g id="ytick_52">
     <g id="line2d_58">
      <g>
       <use xlink:href="#m730f566143" x="49.471" y="11.135855" style="fill: #262626; stroke: #262626; stroke-width: 0.8"/>
      </g>
     </g>
    </g>
    <g id="ytick_53">
     <g id="line2d_59">
      <g>
       <use xlink:href="#m730f566143" x="49.471" y="8.770305" style="fill: #262626; stroke: #262626; stroke-width: 0.8"/>
      </g>
     </g>
    </g>
    <g id="text_13">
     <!-- Loss -->
     <g style="fill: #262626" transform="translate(14.4945 150.7845) rotate(-90) scale(0.096 -0.096)">
      <defs>
       <path id="DejaVuSans-4c" d="M 628 4666 
L 1259 4666 
L 1259 531 
L 3531 531 
L 3531 0 
L 628 0 
L 628 4666 
z
" transform="scale(0.015625)"/>
      </defs>
      <use xlink:href="#DejaVuSans-4c"/>
      <use xlink:href="#DejaVuSans-6f" x="53.962891"/>
      <use xlink:href="#DejaVuSans-73" x="115.144531"/>
      <use xlink:href="#DejaVuSans-73" x="167.244141"/>
     </g>
    </g>
   </g>
   <g id="line2d_60">
    <path d="M 65.703727 19.296 
L 65.801133 60.218012 
L 65.866071 47.98779 
L 65.898539 47.986922 
L 66.060883 75.970417 
L 66.158289 72.068765 
L 66.190758 71.961719 
L 66.255695 76.1413 
L 66.38557 99.511517 
L 66.450507 94.02199 
L 66.515445 89.761111 
L 66.547914 91.443459 
L 66.677788 101.995313 
L 66.710257 100.495082 
L 66.742726 99.280042 
L 66.807663 100.773816 
L 66.970007 112.290034 
L 67.034944 110.572551 
L 67.067413 110.246348 
L 67.099881 110.820177 
L 67.262225 115.44519 
L 67.294694 115.243726 
L 67.327162 115.205199 
L 67.424568 117.388068 
L 67.619381 120.478457 
L 68.333692 128.355161 
L 68.723317 132.464897 
L 70.963657 155.749331 
L 71.677968 159.671881 
L 72.489686 162.921989 
L 73.366341 165.521697 
L 74.307933 167.650021 
L 75.346932 169.461724 
L 76.613211 171.198023 
L 78.269115 173.093501 
L 83.236826 178.570661 
L 85.314823 181.273739 
L 87.295414 184.223583 
L 89.698098 188.22759 
L 95.38012 197.936857 
L 97.230836 200.538026 
L 99.243896 203.020603 
L 101.38683 205.320362 
L 103.821983 207.588549 
L 106.224667 209.459837 
L 109.211787 211.505377 
L 112.036564 213.178637 
L 115.608121 215.055249 
L 118.822523 216.52981 
L 124.017515 218.66604 
L 129.764475 220.816876 
L 135.933528 222.710017 
L 139.277805 223.584328 
L 139.375211 223.374783 
L 139.472617 222.463335 
L 139.570023 219.216364 
L 139.764835 205.3172 
L 139.829773 208.543114 
L 139.927179 223.41746 
L 139.992116 219.650944 
L 140.057054 215.170044 
L 140.089522 216.07675 
L 140.186928 223.834007 
L 140.251866 221.415226 
L 140.316803 219.63342 
L 140.349272 220.641936 
L 140.446678 223.937305 
L 140.479147 223.261482 
L 140.544084 221.879512 
L 140.576553 222.102446 
L 140.673959 224.028538 
L 140.738896 223.515527 
L 140.803834 223.063911 
L 140.836302 223.284333 
L 140.933708 224.12035 
L 140.966177 224.033435 
L 141.063583 223.670295 
L 141.096052 223.775727 
L 141.193458 224.187595 
L 141.258395 224.111036 
L 141.323333 224.010386 
L 141.355802 224.03378 
L 141.518145 224.265452 
L 141.550614 224.243974 
L 141.680489 224.251541 
L 141.907769 224.349916 
L 142.362331 224.487936 
L 142.946768 224.669468 
L 143.920829 224.840036 
L 144.050704 224.605704 
L 144.14811 223.914269 
L 144.245516 221.770904 
L 144.375391 213.0009 
L 144.537734 197.762844 
L 144.570203 198.542593 
L 144.667609 217.228511 
L 144.700078 224.396273 
L 144.765015 217.375727 
L 144.829953 211.015049 
L 144.862421 213.049679 
L 144.959827 225.135384 
L 144.992296 222.765983 
L 145.057234 217.58723 
L 145.089702 218.319373 
L 145.187108 225.222852 
L 145.219577 224.198318 
L 145.284514 221.26364 
L 145.349452 223.026968 
L 145.414389 225.28068 
L 145.446858 224.827352 
L 145.511795 223.287379 
L 145.576733 224.108333 
L 145.64167 225.329191 
L 145.706608 224.759191 
L 145.771545 224.377066 
L 145.804014 224.662513 
L 145.90142 225.391226 
L 145.933888 225.232601 
L 145.998826 224.94084 
L 146.031295 225.004197 
L 146.161169 225.454779 
L 146.193638 225.378852 
L 146.258575 225.26869 
L 146.291044 225.304744 
L 146.420919 225.536198 
L 146.453388 225.514409 
L 146.583262 225.503499 
L 146.778075 225.598397 
L 147.005356 225.684352 
L 149.14829 226.07139 
L 149.245696 225.848867 
L 149.343102 225.071427 
L 149.440508 222.556125 
L 149.570383 211.742269 
L 149.765195 189.418398 
L 149.797664 191.463349 
L 149.927539 223.675676 
L 149.960007 212.949284 
L 150.024945 204.626539 
L 150.057414 209.244128 
L 150.122351 226.003016 
L 150.187288 216.216072 
L 150.219757 212.947622 
L 150.252226 214.475306 
L 150.317163 225.586775 
L 150.382101 221.316048 
L 150.414569 218.483756 
L 150.479507 222.450547 
L 150.544444 226.109288 
L 150.576913 223.787834 
L 150.609381 221.959488 
L 150.674319 224.132042 
L 150.739256 226.394267 
L 150.771725 225.181472 
L 150.804194 224.046431 
L 150.869131 225.09893 
L 150.934068 226.559404 
L 150.966537 225.995327 
L 151.031475 225.182064 
L 151.063943 225.670178 
L 151.128881 226.639234 
L 151.193818 226.062894 
L 151.226287 225.881293 
L 151.258756 226.043391 
L 151.356162 226.672192 
L 151.38863 226.498752 
L 151.453568 226.331719 
L 151.486036 226.47855 
L 151.550974 226.754644 
L 151.615911 226.634275 
L 151.64838 226.574629 
L 151.713317 226.683618 
L 151.778255 226.817052 
L 151.843192 226.762797 
L 151.90813 226.752435 
L 151.940598 226.797054 
L 152.102942 226.853885 
L 152.719847 227.05306 
L 153.88872 227.3735 
L 155.544624 227.676346 
L 155.64203 227.491545 
L 155.739436 226.808173 
L 155.836842 224.439752 
L 155.966717 213.07029 
L 156.161529 182.393604 
L 156.226467 186.192073 
L 156.323873 227.515159 
L 156.356342 213.874321 
L 156.421279 198.409528 
L 156.453748 202.642715 
L 156.518685 227.404055 
L 156.583623 211.02459 
L 156.616091 207.821888 
L 156.64856 212.329871 
L 156.713497 227.802655 
L 156.745966 221.739896 
L 156.810903 215.46678 
L 156.843372 220.606044 
L 156.875841 226.959328 
L 156.940778 222.016574 
L 156.973247 219.660523 
L 157.005716 221.52309 
L 157.070653 227.976705 
L 157.103122 225.884575 
L 157.168059 223.204644 
L 157.200528 225.481857 
L 157.232997 227.762904 
L 157.297934 225.970928 
L 157.330403 225.008482 
L 157.362871 225.75028 
L 157.427809 228.118649 
L 157.460277 227.519768 
L 157.525215 226.414623 
L 157.557684 227.134592 
L 157.622621 228.137977 
L 157.65509 227.657585 
L 157.687558 227.214689 
L 157.752496 227.773642 
L 157.784964 228.180087 
L 157.849902 227.885281 
L 157.882371 227.683303 
L 157.914839 227.775672 
L 157.979777 228.261965 
L 158.044714 228.091128 
L 158.077183 227.988809 
L 158.109652 228.042276 
L 158.207058 228.319872 
L 158.239526 228.244489 
L 158.271995 228.184975 
L 158.336932 228.283109 
L 158.40187 228.381522 
L 158.466807 228.318606 
L 158.564213 228.400763 
L 158.823963 228.482041 
L 159.310993 228.589061 
L 160.739616 228.900368 
L 162.785145 229.256783 
L 162.882551 229.083496 
L 162.979957 228.410442 
L 163.077363 226.01271 
L 163.207238 214.142205 
L 163.434519 176.842943 
L 163.466987 178.126963 
L 163.564393 225.565547 
L 163.629331 200.440396 
L 163.661799 193.82183 
L 163.694268 196.16516 
L 163.759206 226.760757 
L 163.824143 208.053908 
L 163.856612 203.633689 
L 163.88908 209.021085 
L 163.954018 228.725052 
L 163.986486 218.757569 
L 164.018955 211.89475 
L 164.051424 213.562982 
L 164.116361 229.260781 
L 164.14883 224.538412 
L 164.213767 218.176726 
L 164.246236 223.54873 
L 164.278705 229.051107 
L 164.343642 222.803415 
L 164.376111 221.865144 
L 164.441048 228.880299 
L 164.505986 225.854791 
L 164.538454 224.606756 
L 164.570923 226.192996 
L 164.63586 229.394775 
L 164.668329 227.789432 
L 164.700798 226.580288 
L 164.733267 227.153747 
L 164.798204 229.602986 
L 164.830673 228.929809 
L 164.89561 227.950896 
L 164.928079 228.815168 
L 164.960548 229.585434 
L 165.025485 228.92165 
L 165.057954 228.625137 
L 165.090422 228.941898 
L 165.15536 229.717076 
L 165.187828 229.490438 
L 165.252766 229.169183 
L 165.285235 229.445278 
L 165.350172 229.749559 
L 165.382641 229.580805 
L 165.415109 229.448799 
L 165.447578 229.500893 
L 165.512515 229.805935 
L 165.577453 229.698866 
L 165.609922 229.644564 
L 165.64239 229.690727 
L 165.739796 229.851035 
L 165.772265 229.803487 
L 165.837202 229.805735 
L 165.869671 229.862529 
L 165.999546 229.872706 
L 166.90867 230.125228 
L 169.278885 230.615111 
L 170.350352 230.717785 
L 170.480227 230.400625 
L 170.577633 229.426005 
L 170.675039 226.226683 
L 170.804914 212.487093 
L 171.032195 175.825658 
L 171.064663 178.251809 
L 171.129601 200.683628 
L 171.162069 225.370168 
L 171.227007 202.402409 
L 171.259476 194.03773 
L 171.324413 205.818553 
L 171.38935 226.639937 
L 171.421819 211.288146 
L 171.454288 204.591162 
L 171.486756 206.98085 
L 171.551694 230.031286 
L 171.616631 214.682364 
L 171.6491 212.740274 
L 171.746506 229.238931 
L 171.778975 222.347205 
L 171.811443 218.646595 
L 171.843912 221.026698 
L 171.90885 230.480917 
L 171.941318 227.203723 
L 171.973787 223.511361 
L 172.038724 227.15184 
L 172.071193 230.4388 
L 172.136131 227.094665 
L 172.168599 226.098022 
L 172.201068 227.624867 
L 172.266005 230.793458 
L 172.298474 229.432625 
L 172.330943 228.146689 
L 172.39588 229.807846 
L 172.428349 230.916901 
L 172.493286 229.719654 
L 172.525755 229.296092 
L 172.558224 229.819101 
L 172.623161 231.067051 
L 172.65563 230.710673 
L 172.720567 230.132785 
L 172.753036 230.540527 
L 172.817973 231.108982 
L 172.850442 230.868327 
L 172.882911 230.620436 
L 172.947848 230.874392 
L 173.012785 231.161735 
L 173.045254 231.03675 
L 173.110192 230.914401 
L 173.14266 231.040062 
L 173.207598 231.218458 
L 173.240066 231.167822 
L 173.305004 231.084875 
L 173.337472 231.141062 
L 173.434879 231.256168 
L 173.467347 231.221388 
L 173.564753 231.263587 
L 173.727097 231.29151 
L 174.14919 231.41225 
L 176.844092 231.904963 
L 177.65581 231.961094 
L 177.753216 231.780239 
L 177.850622 231.068597 
L 177.948028 228.443136 
L 178.077903 215.237824 
L 178.305184 171.319719 
L 178.370121 176.230159 
L 178.467527 222.667075 
L 178.499996 200.235659 
L 178.532465 189.591118 
L 178.597402 201.769671 
L 178.629871 223.298737 
L 178.694808 204.26321 
L 178.727277 199.916926 
L 178.759746 206.172253 
L 178.824683 226.850245 
L 178.857152 213.692245 
L 178.88962 208.495864 
L 178.922089 213.219741 
L 178.987027 228.485612 
L 179.019495 219.075923 
L 179.051964 215.244894 
L 179.084433 219.659973 
L 179.14937 229.233696 
L 179.181839 222.64324 
L 179.214307 220.475799 
L 179.246776 224.452946 
L 179.279245 230.369904 
L 179.344182 225.441023 
L 179.376651 224.388609 
L 179.441588 231.250235 
L 179.506526 227.635255 
L 179.538994 227.157265 
L 179.603932 231.655087 
L 179.668869 229.269781 
L 179.701338 228.981305 
L 179.766275 231.853711 
L 179.831213 230.423859 
L 179.863681 230.152621 
L 179.928619 231.947517 
L 179.993556 231.217274 
L 180.026025 230.928826 
L 180.058494 231.369172 
L 180.123431 232.099511 
L 180.1559 231.72839 
L 180.188368 231.456866 
L 180.220837 231.621012 
L 180.285775 232.191713 
L 180.318243 232.040038 
L 180.383181 231.829774 
L 180.415649 232.03939 
L 180.448118 232.220721 
L 180.513055 232.080319 
L 180.545524 232.015789 
L 180.577993 232.093733 
L 180.64293 232.284687 
L 180.707868 232.174146 
L 180.772805 232.241372 
L 180.837742 232.324654 
L 180.90268 232.267293 
L 181.681929 232.505282 
L 185.740516 233.197202 
L 185.870391 233.045872 
L 185.967797 232.496583 
L 186.065203 230.356049 
L 186.16261 223.176821 
L 186.454828 176.934368 
L 186.519765 186.902728 
L 186.552234 190.44984 
L 186.584703 186.401554 
L 186.617171 182.187016 
L 186.64964 182.37532 
L 186.747046 232.268605 
L 186.811984 197.335645 
L 186.844452 196.43068 
L 186.90939 218.921589 
L 186.974327 211.064848 
L 187.006796 209.865072 
L 187.201608 226.552002 
L 187.299014 218.573571 
L 187.331483 224.743327 
L 187.363951 232.157545 
L 187.428889 223.329028 
L 187.461358 222.477301 
L 187.526295 232.255317 
L 187.591232 227.529747 
L 187.623701 226.877719 
L 187.688638 231.355431 
L 187.753576 230.068597 
L 187.980857 232.845676 
L 188.013326 232.451991 
L 188.078263 231.459428 
L 188.110732 232.348057 
L 188.1432 233.229662 
L 188.208138 232.514528 
L 188.240606 232.185453 
L 188.273075 232.526847 
L 188.338013 233.264962 
L 188.40295 232.888543 
L 188.6627 233.376185 
L 188.727637 233.234614 
L 188.760106 233.317245 
L 188.825043 233.51309 
L 188.88998 233.399806 
L 188.954918 233.443825 
L 189.117261 233.522751 
L 189.40948 233.608356 
L 189.831573 233.702289 
L 191.16279 233.934839 
L 192.429069 234.05251 
L 192.526475 233.855629 
L 192.623881 233.098917 
L 192.721287 230.343217 
L 192.851162 216.906919 
L 193.078443 174.577036 
L 193.14338 182.257572 
L 193.208318 210.417221 
L 193.273255 197.549029 
L 193.305724 195.304278 
L 193.370661 217.04465 
L 193.435599 205.014362 
L 193.468067 201.205294 
L 193.500536 208.3689 
L 193.565473 231.343133 
L 193.597942 216.65881 
L 193.630411 210.371526 
L 193.66288 214.565363 
L 193.727817 226.762522 
L 193.760286 220.686313 
L 193.792754 219.384192 
L 193.857692 230.825529 
L 193.89016 226.535369 
L 193.922629 221.718996 
L 193.955098 223.032486 
L 194.020035 233.710439 
L 194.052504 229.783641 
L 194.084973 226.420977 
L 194.14991 231.110646 
L 194.182379 231.766665 
L 194.247316 229.472712 
L 194.279785 231.759403 
L 194.312254 233.707837 
L 194.344722 232.602847 
L 194.40966 230.627956 
L 194.442128 232.446192 
L 194.474597 233.788962 
L 194.539534 232.381991 
L 194.572003 232.56382 
L 194.636941 233.719417 
L 194.669409 233.146234 
L 194.701878 232.750696 
L 194.734347 233.19208 
L 194.799284 234.208371 
L 194.831753 233.804555 
L 194.864222 233.457198 
L 194.89669 233.599395 
L 194.961628 234.068309 
L 195.026565 233.810256 
L 195.123971 234.29855 
L 195.15644 234.144321 
L 195.188909 234.015934 
L 195.221377 234.067756 
L 195.286315 234.292393 
L 195.351252 234.213497 
L 195.64347 234.417622 
L 195.773345 234.472164 
L 196.357782 234.606911 
L 197.559124 234.621948 
L 197.65653 234.209858 
L 197.753936 232.790754 
L 197.883811 225.270063 
L 198.176029 177.948424 
L 198.240966 186.078583 
L 198.338373 224.300411 
L 198.370841 206.604723 
L 198.40331 197.675106 
L 198.468247 206.412275 
L 198.533185 223.970189 
L 198.565653 214.580077 
L 198.598122 209.576012 
L 198.630591 211.653986 
L 198.695528 226.528171 
L 198.760466 217.249792 
L 198.792934 217.542684 
L 198.857872 230.972281 
L 198.922809 223.282886 
L 198.955278 221.280484 
L 198.987747 224.927398 
L 199.052684 234.349056 
L 199.085153 230.068981 
L 199.117621 226.148913 
L 199.182559 230.239493 
L 199.215027 234.105989 
L 199.279965 231.066435 
L 199.312434 229.663337 
L 199.344902 230.767384 
L 199.40984 234.186573 
L 199.474777 232.248132 
L 199.507246 232.296329 
L 199.572183 234.376808 
L 199.637121 233.52351 
L 199.669589 233.154669 
L 199.702058 233.629071 
L 199.766995 234.93713 
L 199.799464 234.652462 
L 199.864402 233.887738 
L 199.89687 234.213229 
L 199.961808 235.050507 
L 200.026745 234.627386 
L 200.059214 234.486665 
L 200.091682 234.616099 
L 200.15662 235.028766 
L 200.221557 234.89527 
L 200.254026 234.845825 
L 200.286495 234.910375 
L 200.351432 235.098514 
L 200.416369 235.020811 
L 200.448838 234.994093 
L 200.481307 235.035656 
L 200.578713 235.187669 
L 200.611182 235.153839 
L 200.676119 235.118208 
L 200.708588 235.152897 
L 200.870931 235.215237 
L 203.500896 235.654821 
L 203.598302 235.449714 
L 203.695708 234.509832 
L 203.793114 230.558939 
L 203.922989 211.100394 
L 204.117801 169.110889 
L 204.15027 171.50861 
L 204.41002 224.394327 
L 204.474957 193.971894 
L 204.507426 200.331365 
L 204.572363 220.257176 
L 204.604832 208.186361 
L 204.637301 209.000316 
L 204.702238 223.095667 
L 204.734707 212.550201 
L 204.767175 210.804679 
L 204.832113 234.730111 
L 204.864582 223.955988 
L 204.89705 217.460123 
L 204.929519 221.62501 
L 205.091862 234.385219 
L 205.1568 225.261645 
L 205.189269 226.659056 
L 205.254206 233.241683 
L 205.319143 230.520239 
L 205.384081 233.773569 
L 205.416549 231.015469 
L 205.449018 230.805173 
L 205.513956 235.462865 
L 205.578893 232.89545 
L 205.64383 234.941668 
L 205.708768 233.556064 
L 205.773705 235.664933 
L 205.838643 234.705345 
L 205.871111 234.585005 
L 205.936049 235.513528 
L 206.000986 235.074982 
L 206.065923 235.936117 
L 206.130861 235.400655 
L 206.16333 235.452743 
L 206.228267 235.84143 
L 206.293204 235.69428 
L 206.358142 236.03766 
L 206.423079 235.829331 
L 206.617891 236.045941 
L 206.682829 236.114339 
L 206.715298 236.065778 
L 206.91011 236.147001 
L 207.104922 236.229623 
L 209.020575 236.583331 
L 209.15045 236.339249 
L 209.247856 235.481524 
L 209.345262 232.301527 
L 209.475137 217.131936 
L 209.702418 173.537954 
L 209.767355 181.821194 
L 209.832293 228.869482 
L 209.89723 197.478934 
L 209.929699 190.951468 
L 209.962168 194.093673 
L 210.027105 232.074346 
L 210.092042 204.753642 
L 210.124511 202.507507 
L 210.189449 228.969373 
L 210.254386 214.694371 
L 210.286855 211.344611 
L 210.319323 218.322613 
L 210.351792 230.3448 
L 210.416729 221.042854 
L 210.449198 218.528466 
L 210.481667 224.285886 
L 210.514136 232.867145 
L 210.579073 225.527628 
L 210.611542 223.908013 
L 210.676479 234.893182 
L 210.741416 229.103671 
L 210.773885 227.812697 
L 210.838823 235.800894 
L 210.90376 232.071458 
L 210.936229 230.778437 
L 210.968697 232.919481 
L 211.033635 236.336313 
L 211.066104 234.265314 
L 211.098572 233.036781 
L 211.131041 234.02489 
L 211.195978 236.653897 
L 211.228447 235.641708 
L 211.260916 234.666496 
L 211.325853 236.036317 
L 211.358322 236.70601 
L 211.390791 236.353113 
L 211.455728 235.63963 
L 211.488197 236.188519 
L 211.520665 236.718128 
L 211.585603 236.328501 
L 211.618071 236.141564 
L 211.65054 236.356681 
L 211.715478 236.871599 
L 211.747946 236.711856 
L 211.780415 236.513076 
L 211.845352 236.72661 
L 211.91029 236.928137 
L 211.942758 236.806412 
L 211.975227 236.719034 
L 212.007696 236.767087 
L 212.072633 236.992531 
L 212.137571 236.915605 
L 212.170039 236.880568 
L 212.202508 236.918085 
L 212.299914 237.037147 
L 212.332383 237.006838 
L 212.429789 237.058309 
L 212.689539 237.139047 
L 213.046694 237.218602 
L 214.053224 237.426838 
L 216.196158 237.75445 
L 216.293564 237.575184 
L 216.390971 236.747159 
L 216.488377 233.243342 
L 216.618251 215.212464 
L 216.845532 169.825934 
L 216.878001 175.418845 
L 216.942938 193.909784 
L 217.007876 181.776638 
L 217.040345 183.762632 
L 217.105282 228.129241 
L 217.170219 198.316806 
L 217.202688 196.872223 
L 217.3975 234.531402 
L 217.462438 210.696704 
L 217.527375 223.577411 
L 217.559844 227.084554 
L 217.592312 220.042285 
L 217.624781 221.286471 
L 217.689719 231.517014 
L 217.722187 222.709374 
L 217.754656 221.116247 
L 217.819593 235.324003 
L 217.884531 227.900909 
L 217.949468 234.296607 
L 217.981937 231.337801 
L 218.014406 228.894901 
L 218.046874 231.878363 
L 218.079343 236.707213 
L 218.14428 233.100321 
L 218.176749 233.007053 
L 218.241687 235.669168 
L 218.274155 234.161858 
L 218.306624 234.285856 
L 218.371561 237.686947 
L 218.40403 236.483418 
L 218.436499 235.344868 
L 218.501436 236.916486 
L 218.533905 236.827382 
L 218.566374 236.273947 
L 218.598842 236.584318 
L 218.66378 237.801849 
L 218.696248 237.217744 
L 218.728717 236.831869 
L 218.761186 237.133951 
L 218.923529 237.811362 
L 218.955998 237.95507 
L 218.988467 237.752095 
L 219.020935 237.579669 
L 219.053404 237.674071 
L 219.118341 237.858207 
L 219.183279 237.780245 
L 219.248216 238.05065 
L 219.313154 237.955086 
L 219.540435 238.101109 
L 219.767715 238.174552 
L 219.994996 238.233732 
L 220.384621 238.339856 
L 221.098932 238.369201 
L 221.228807 238.090502 
L 221.326213 237.328972 
L 221.423619 234.976455 
L 221.553494 224.736836 
L 221.845712 177.984081 
L 221.91065 185.713415 
L 222.008056 233.547197 
L 222.040525 210.673963 
L 222.105462 195.902148 
L 222.137931 202.253248 
L 222.202868 235.460907 
L 222.267805 212.643958 
L 222.300274 208.359907 
L 222.332743 211.819231 
L 222.39768 235.232259 
L 222.462618 221.204249 
L 222.495086 217.764405 
L 222.527555 221.459472 
L 222.592493 235.681403 
L 222.65743 227.010956 
L 222.689899 225.697381 
L 222.722367 228.585198 
L 222.787305 235.972756 
L 222.852242 231.553548 
L 222.884711 231.166956 
L 222.982117 236.46159 
L 223.047054 234.740171 
L 223.079523 234.767415 
L 223.176929 236.999655 
L 223.241867 236.690691 
L 223.306804 237.120903 
L 223.501616 237.999087 
L 223.599022 237.990444 
L 223.696428 238.490876 
L 223.761366 238.369611 
L 223.793834 238.309518 
L 223.826303 238.376639 
L 223.923709 238.751827 
L 223.956178 238.698374 
L 224.021115 238.574892 
L 224.053584 238.631143 
L 224.15099 238.879308 
L 224.183459 238.846913 
L 224.248396 238.765952 
L 224.280865 238.792245 
L 224.41074 238.949666 
L 224.443208 238.924937 
L 224.573083 238.970946 
L 224.767896 239.010907 
L 225.384801 239.174188 
L 227.462798 239.524954 
L 227.592673 239.332847 
L 227.690079 238.653859 
L 227.787485 236.105924 
L 227.91736 223.105495 
L 228.209578 164.591906 
L 228.242047 169.526878 
L 228.339453 213.85467 
L 228.40439 186.257336 
L 228.436859 186.720753 
L 228.501796 213.529268 
L 228.566734 197.774218 
L 228.599202 199.051186 
L 228.66414 223.062878 
L 228.696608 209.947913 
L 228.729077 203.996066 
L 228.761546 210.244175 
L 228.794014 229.812255 
L 228.858952 213.317897 
L 228.891421 211.307346 
L 228.956358 237.626195 
L 229.021295 218.317627 
L 229.248576 236.739191 
L 229.313514 228.159753 
L 229.345982 231.575462 
L 229.378451 238.026757 
L 229.443389 232.267351 
L 229.475857 231.740432 
L 229.540795 238.922883 
L 229.605732 234.495142 
L 229.833013 239.197123 
L 229.89795 237.279236 
L 229.930419 237.575843 
L 229.995356 239.489837 
L 230.027825 238.817897 
L 230.060294 238.183631 
L 230.092763 238.480049 
L 230.1577 239.413194 
L 230.190169 239.038875 
L 230.222637 238.836406 
L 230.255106 239.13166 
L 230.287575 239.509514 
L 230.352512 239.210968 
L 230.384981 239.143213 
L 230.449918 239.665156 
L 230.514856 239.469448 
L 230.547324 239.402675 
L 230.579793 239.536207 
L 230.64473 239.714331 
L 230.677199 239.635487 
L 230.709668 239.60924 
L 230.742137 239.685399 
L 230.807074 239.779318 
L 230.839543 239.728924 
L 230.90448 239.762599 
L 230.969417 239.856466 
L 231.034355 239.811845 
L 231.683729 240.044231 
L 232.852602 240.302452 
L 234.118882 240.482758 
L 234.216288 240.290787 
L 234.313694 239.481586 
L 234.4111 236.308217 
L 234.540975 220.362714 
L 234.800724 168.4551 
L 234.833193 171.51667 
L 234.930599 225.920977 
L 234.963068 198.017734 
L 234.995536 186.178579 
L 235.060474 202.388567 
L 235.092943 229.093916 
L 235.15788 199.032025 
L 235.190349 198.323901 
L 235.255286 235.656459 
L 235.320223 207.295784 
L 235.352692 207.150951 
L 235.41763 239.03715 
L 235.482567 214.58356 
L 235.515036 216.369685 
L 235.579973 237.736372 
L 235.612442 227.09742 
L 235.64491 220.835531 
L 235.677379 225.223642 
L 235.742317 237.398481 
L 235.774785 228.885577 
L 235.807254 226.125712 
L 235.839723 231.546514 
L 235.872191 239.332258 
L 235.937129 231.878118 
L 235.969597 230.906131 
L 236.034535 239.831118 
L 236.099472 234.560012 
L 236.131941 234.758468 
L 236.196878 240.152875 
L 236.229347 238.385133 
L 236.261816 236.386147 
L 236.294285 236.965481 
L 236.359222 240.514736 
L 236.391691 239.299187 
L 236.424159 237.986825 
L 236.489097 239.772596 
L 236.521565 240.49224 
L 236.554034 239.869204 
L 236.586503 239.119364 
L 236.65144 240.16955 
L 236.683909 240.619643 
L 236.716378 240.262328 
L 236.748846 239.755444 
L 236.813784 240.331384 
L 236.846252 240.716853 
L 236.91119 240.283524 
L 236.943659 240.205073 
L 237.041065 240.739567 
L 237.073533 240.573784 
L 237.106002 240.482156 
L 237.138471 240.591121 
L 237.203408 240.855041 
L 237.268346 240.689497 
L 237.333283 240.796358 
L 237.39822 240.894158 
L 237.430689 240.846986 
L 237.495626 240.86003 
L 237.593033 240.948571 
L 237.625501 240.922927 
L 237.852782 241.006071 
L 238.177469 241.113022 
L 239.054124 241.308906 
L 239.541155 241.316335 
L 239.671029 241.017858 
L 239.768436 240.080794 
L 239.865842 236.928249 
L 239.995716 222.983716 
L 240.222997 180.740641 
L 240.287935 186.496647 
L 240.385341 228.622456 
L 240.41781 210.201936 
L 240.450278 200.598108 
L 240.515216 211.763713 
L 240.547684 227.352579 
L 240.612622 213.393144 
L 240.64509 210.373508 
L 240.677559 216.564272 
L 240.742497 238.182281 
L 240.774965 224.87014 
L 240.807434 217.851935 
L 240.839903 219.98125 
L 240.90484 238.524179 
L 240.969778 226.745197 
L 241.002246 227.262413 
L 241.067184 238.627303 
L 241.099652 234.999967 
L 241.132121 230.503741 
L 241.197058 235.908949 
L 241.229527 240.857157 
L 241.294465 235.528075 
L 241.326933 234.222769 
L 241.359402 236.52954 
L 241.424339 239.953528 
L 241.456808 238.055784 
L 241.489277 237.093567 
L 241.521745 238.379958 
L 241.586683 241.253742 
L 241.619152 239.998676 
L 241.65162 238.701547 
L 241.716558 240.042901 
L 241.749026 241.111045 
L 241.813964 240.355545 
L 241.846432 240.073037 
L 241.878901 240.534694 
L 241.943839 241.470473 
L 241.976307 241.097839 
L 242.041245 240.633019 
L 242.073713 241.026914 
L 242.138651 241.550617 
L 242.171119 241.371581 
L 242.203588 241.202523 
L 242.236057 241.254466 
L 242.300994 241.65169 
L 242.365932 241.510139 
L 242.3984 241.406957 
L 242.463338 241.569208 
L 242.528275 241.716194 
L 242.593213 241.630383 
L 243.372461 241.96256 
L 243.891961 241.948119 
L 244.021835 241.6049 
L 244.119242 240.671317 
L 244.216648 237.805726 
L 244.346522 225.779341 
L 244.638741 174.054788 
L 244.703678 181.677832 
L 244.801084 227.785009 
L 244.833553 208.130593 
L 244.89849 195.477536 
L 244.930959 201.159706 
L 244.995896 226.352856 
L 245.060834 209.407628 
L 245.093303 208.405309 
L 245.190709 230.782063 
L 245.223177 220.812937 
L 245.255646 215.647034 
L 245.288115 218.753038 
L 245.353052 239.97816 
L 245.41799 225.390605 
L 245.450458 222.745602 
L 245.482927 227.052216 
L 245.547864 241.570858 
L 245.580333 236.326694 
L 245.645271 229.998875 
L 245.677739 234.029925 
L 245.742677 240.307312 
L 245.775145 237.149626 
L 245.807614 234.851016 
L 245.840083 235.755462 
L 245.90502 241.10826 
L 245.969958 238.233403 
L 246.002426 237.387984 
L 246.034895 238.563696 
L 246.099832 242.102008 
L 246.16477 239.982262 
L 246.197238 239.318116 
L 246.229707 239.959256 
L 246.294645 242.108724 
L 246.359582 241.264401 
L 246.392051 240.840155 
L 246.424519 241.032705 
L 246.521925 242.075977 
L 246.554394 241.778562 
L 246.586863 241.555975 
L 246.619332 241.641862 
L 246.716738 242.349195 
L 246.749206 242.19651 
L 246.814144 241.934187 
L 246.846612 242.049642 
L 246.944019 242.423906 
L 246.976487 242.353477 
L 247.041425 242.268301 
L 247.073893 242.330099 
L 247.171299 242.473213 
L 247.203768 242.439819 
L 247.268706 242.41955 
L 247.301174 242.462022 
L 247.463518 242.545465 
L 247.755736 242.626444 
L 248.502516 242.823583 
L 248.827203 242.793285 
L 248.924609 242.594059 
L 249.022015 241.883734 
L 249.119422 239.468804 
L 249.249296 228.044327 
L 249.509046 181.321993 
L 249.573983 186.159793 
L 249.671389 216.056309 
L 249.703858 206.446399 
L 249.736327 200.156359 
L 249.768796 202.7498 
L 249.833733 234.207798 
L 249.89867 216.054883 
L 249.931139 209.361096 
L 249.963608 211.652574 
L 250.028545 233.028737 
L 250.093483 221.494673 
L 250.125951 221.495052 
L 250.190889 240.193279 
L 250.255826 227.881685 
L 250.288295 224.970313 
L 250.320764 229.116166 
L 250.385701 238.608142 
L 250.41817 234.583189 
L 250.450638 232.147266 
L 250.483107 234.614258 
L 250.548044 242.276831 
L 250.580513 239.040031 
L 250.645451 235.46235 
L 250.677919 238.155323 
L 250.710388 240.821605 
L 250.775325 238.921937 
L 250.807794 238.407937 
L 250.9052 242.894841 
L 250.937669 241.825913 
L 251.002606 240.509364 
L 251.035075 241.455598 
L 251.067544 242.30499 
L 251.132481 241.500965 
L 251.16495 241.083407 
L 251.197418 241.412499 
L 251.262356 242.693257 
L 251.327293 242.332537 
L 251.359762 242.21677 
L 251.392231 242.472643 
L 251.457168 243.132522 
L 251.522105 242.840594 
L 251.554574 242.734404 
L 251.587043 242.834634 
L 251.65198 243.144642 
L 251.716918 242.97195 
L 251.749386 242.887524 
L 251.814324 242.998943 
L 251.879261 243.050226 
L 251.91173 242.97084 
L 252.203948 241.884316 
L 252.333823 239.408591 
L 252.463698 231.919082 
L 252.65851 204.643942 
L 252.853322 184.323908 
L 252.950728 209.834922 
L 253.015666 239.847212 
L 253.048134 222.70208 
L 253.113072 205.242727 
L 253.178009 212.049397 
L 253.242947 237.042005 
L 253.307884 226.778026 
L 253.372821 218.561762 
L 253.40529 222.164601 
L 253.502696 238.203926 
L 253.535165 234.386023 
L 253.600102 229.370438 
L 253.632571 231.085614 
L 253.729977 238.840992 
L 253.794915 237.322554 
L 253.827383 236.860929 
L 253.859852 237.297008 
L 254.087133 241.214776 
L 254.184539 240.824874 
L 254.217008 241.087555 
L 254.346882 243.083125 
L 254.379351 242.795752 
L 254.444289 242.076783 
L 254.509226 242.498075 
L 254.606632 243.696126 
L 254.67157 243.366595 
L 254.736507 242.977593 
L 254.801444 243.216717 
L 254.931319 243.80114 
L 254.963788 243.737649 
L 255.061194 243.567918 
L 255.093663 243.594097 
L 255.385881 243.889385 
L 256.392411 244.177651 
L 256.749566 244.146832 
L 256.846973 243.941605 
L 256.944379 243.212194 
L 257.041785 240.793033 
L 257.17166 229.541005 
L 257.463878 174.020146 
L 257.561284 183.835443 
L 257.788565 214.217428 
L 257.853502 200.979923 
L 257.885971 202.113666 
L 257.983377 236.083159 
L 258.015846 217.255942 
L 258.048314 210.089243 
L 258.080783 213.109078 
L 258.145721 236.601865 
L 258.210658 223.511712 
L 258.243127 223.850634 
L 258.308064 232.737321 
L 258.373001 228.465958 
L 258.470408 239.844837 
L 258.502876 233.730485 
L 258.535345 230.668132 
L 258.567814 233.131988 
L 258.632751 243.66623 
L 258.66522 240.583623 
L 258.730157 236.512281 
L 258.762626 239.113593 
L 258.795095 241.364465 
L 258.892501 240.692686 
L 258.957438 242.772578 
L 258.989907 241.812127 
L 259.022376 240.74157 
L 259.054844 241.030056 
L 259.119782 244.015606 
L 259.184719 242.909539 
L 259.217188 242.22332 
L 259.249656 242.499634 
L 259.314594 243.79316 
L 259.379531 243.519484 
L 259.412 243.577257 
L 259.476937 244.038502 
L 259.509406 243.91346 
L 259.574343 243.650998 
L 259.606812 243.903103 
L 259.67175 244.40869 
L 259.736687 244.151232 
L 259.769156 244.072875 
L 259.801624 244.145324 
L 259.963968 244.362919 
L 260.061374 244.505514 
L 260.093843 244.464147 
L 260.15878 244.428936 
L 260.191249 244.476536 
L 260.353592 244.582194 
L 260.90556 244.763318 
L 262.139371 245.051344 
L 262.431589 245.027467 
L 262.528995 244.816826 
L 262.626401 243.951479 
L 262.723807 240.610276 
L 262.853682 224.195668 
L 263.113432 167.993087 
L 263.145901 171.823121 
L 263.210838 203.287082 
L 263.243307 235.301923 
L 263.275775 204.775237 
L 263.340713 186.458777 
L 263.373181 198.327242 
L 263.438119 229.065792 
L 263.470588 204.079084 
L 263.503056 197.014429 
L 263.535525 205.550261 
L 263.600462 235.855825 
L 263.632931 213.588404 
L 263.6654 206.990529 
L 263.697869 215.559518 
L 263.730337 236.706672 
L 263.795275 219.387293 
L 263.827743 215.424179 
L 263.860212 224.903049 
L 263.892681 241.9442 
L 263.957618 225.100634 
L 263.990087 223.496174 
L 264.055024 243.651863 
L 264.119962 229.876422 
L 264.15243 230.119146 
L 264.217368 244.709883 
L 264.249836 239.749712 
L 264.282305 234.370289 
L 264.347243 241.054622 
L 264.379711 244.688155 
L 264.41218 241.325579 
L 264.444649 237.889714 
L 264.509586 242.773911 
L 264.542055 245.035729 
L 264.574523 242.938643 
L 264.606992 240.602424 
L 264.67193 243.533621 
L 264.704398 245.052443 
L 264.736867 243.969644 
L 264.769336 242.436218 
L 264.834273 244.032367 
L 264.866742 245.186704 
L 264.931679 243.766488 
L 264.964148 243.559574 
L 265.029085 245.177252 
L 265.094023 244.562281 
L 265.126491 244.261814 
L 265.15896 244.607153 
L 265.223897 245.35799 
L 265.256366 245.089438 
L 265.288835 244.811562 
L 265.353772 245.202346 
L 265.386241 245.432222 
L 265.451178 245.18377 
L 265.483647 245.116282 
L 265.516116 245.247163 
L 265.581053 245.492202 
L 265.613522 245.413114 
L 265.645991 245.324047 
L 265.710928 245.437163 
L 265.775865 245.534599 
L 265.808334 245.483881 
L 265.873271 245.475697 
L 265.90574 245.537012 
L 266.035615 245.528949 
L 266.230427 245.507031 
L 266.360302 245.279461 
L 266.490177 244.213947 
L 266.620052 240.053905 
L 266.782395 222.218091 
L 267.009676 191.204911 
L 267.042145 192.269688 
L 267.17202 242.062589 
L 267.236957 214.10957 
L 267.269426 209.515922 
L 267.301894 212.546972 
L 267.3993 239.903346 
L 267.431769 232.420452 
L 267.496707 223.057574 
L 267.529175 226.341206 
L 267.626581 238.114011 
L 267.65905 235.274818 
L 267.691519 233.691719 
L 267.723987 234.207127 
L 267.9188 240.683104 
L 267.951268 241.153121 
L 267.983737 240.927344 
L 268.016206 240.414975 
L 268.048674 240.599343 
L 268.146081 244.535863 
L 268.211018 243.170126 
L 268.243487 242.26974 
L 268.308424 243.477114 
L 268.373362 245.758117 
L 268.438299 244.706268 
L 268.503236 243.912209 
L 268.535705 244.463924 
L 268.633111 245.949678 
L 268.66558 245.623388 
L 268.730517 245.06078 
L 268.762986 245.182536 
L 268.860392 245.943841 
L 268.925329 245.831077 
L 268.990267 245.758641 
L 269.022736 245.830041 
L 269.185079 245.987988 
L 269.704578 246.260861 
L 269.931859 246.336334 
L 270.938389 246.517525 
L 271.100732 246.340463 
L 271.230607 245.649594 
L 271.360482 242.850296 
L 271.490357 233.080327 
L 271.717638 191.49265 
L 271.815044 176.196727 
L 271.879981 177.706713 
L 272.009856 219.700145 
L 272.074793 200.558705 
L 272.107262 198.766574 
L 272.204668 220.368022 
L 272.302074 214.615964 
L 272.367012 224.746987 
L 272.431949 221.180684 
L 272.464418 221.116589 
L 272.561824 236.820096 
L 272.594293 230.979366 
L 272.626761 226.053939 
L 272.65923 226.404852 
L 272.756636 244.289398 
L 272.789105 237.282703 
L 272.821574 232.083689 
L 272.886511 237.351942 
L 272.951448 245.686105 
L 272.983917 241.745707 
L 273.048855 238.11812 
L 273.081323 240.832846 
L 273.146261 244.889036 
L 273.178729 243.515509 
L 273.211198 242.219918 
L 273.276135 243.904753 
L 273.308604 245.140688 
L 273.373542 244.278596 
L 273.40601 243.807951 
L 273.438479 244.282414 
L 273.503416 246.313085 
L 273.568354 245.557568 
L 273.600822 244.924489 
L 273.66576 245.550491 
L 273.730697 246.741515 
L 273.795635 246.191595 
L 273.828103 245.891429 
L 273.893041 246.214747 
L 273.957978 246.716681 
L 274.022916 246.565594 
L 274.055384 246.496171 
L 274.087853 246.541898 
L 274.185259 246.805751 
L 274.250196 246.721608 
L 274.315134 246.767709 
L 274.41254 246.969661 
L 274.477477 246.916106 
L 274.574883 246.920802 
L 274.769696 247.045843 
L 276.295725 247.320826 
L 276.393131 247.067789 
L 276.490537 246.250961 
L 276.587943 243.712018 
L 276.717818 232.612487 
L 277.010036 176.811541 
L 277.074973 178.964577 
L 277.17238 243.067374 
L 277.237317 202.241353 
L 277.269786 195.344187 
L 277.302254 196.493279 
L 277.399661 239.455853 
L 277.432129 217.190361 
L 277.464598 207.256643 
L 277.529535 219.931388 
L 277.594473 240.723282 
L 277.626941 224.049945 
L 277.65941 217.631588 
L 277.691879 220.223509 
L 277.756816 246.261038 
L 277.821754 229.441408 
L 277.854222 225.834503 
L 277.886691 230.421216 
L 277.951628 247.148185 
L 277.984097 241.157006 
L 278.049035 233.186137 
L 278.081503 237.422806 
L 278.146441 247.165134 
L 278.178909 243.022572 
L 278.243847 238.467386 
L 278.276315 241.734572 
L 278.341253 247.345302 
L 278.373722 244.978391 
L 278.438659 242.134391 
L 278.471128 244.010177 
L 278.536065 247.493585 
L 278.568534 246.362846 
L 278.633471 244.337826 
L 278.66594 245.218922 
L 278.730877 247.33188 
L 278.763346 246.899467 
L 278.828283 245.272681 
L 278.893221 245.661366 
L 278.925689 245.767316 
L 279.023096 242.280627 
L 279.15297 232.136295 
L 279.41272 192.423363 
L 279.477657 194.182695 
L 279.607532 243.290554 
L 279.67247 216.172904 
L 279.704938 211.307331 
L 279.737407 213.612537 
L 279.834813 240.786524 
L 279.899751 229.253862 
L 279.932219 225.602733 
L 279.964688 226.97812 
L 280.062094 239.539258 
L 280.127031 237.233596 
L 280.1595 236.627845 
L 280.191969 237.492503 
L 280.386781 243.766384 
L 280.451718 242.864789 
L 280.484187 242.117058 
L 280.516656 242.2462 
L 280.646531 247.007896 
L 280.678999 245.924091 
L 280.743937 244.29297 
L 280.776405 244.888634 
L 280.873812 247.960416 
L 280.938749 246.900359 
L 281.003686 246.2063 
L 281.036155 246.589125 
L 281.133561 247.968272 
L 281.198499 247.625902 
L 281.263436 247.402156 
L 281.295905 247.517025 
L 281.425779 247.933759 
L 281.458248 247.919028 
L 281.555654 248.020533 
L 281.65306 248.094868 
L 281.685529 248.071035 
L 281.782935 248.0939 
L 282.010216 248.261208 
L 282.17256 248.306436 
L 282.529715 248.44313 
L 283.146621 248.523147 
L 283.276495 248.38407 
L 283.40637 247.742853 
L 283.503776 246.037089 
L 283.633651 238.21119 
L 283.795995 211.04955 
L 284.023276 173.10666 
L 284.120682 200.675363 
L 284.15315 217.174968 
L 284.218088 201.529059 
L 284.250557 195.5973 
L 284.283025 198.651568 
L 284.380431 217.780519 
L 284.445369 211.144759 
L 284.705118 237.357256 
L 284.770056 223.521863 
L 284.802524 224.566912 
L 284.867462 245.52771 
L 284.932399 233.964938 
L 284.964868 229.659989 
L 284.997337 232.656483 
L 285.062274 247.32206 
L 285.127211 238.596931 
L 285.15968 237.152206 
L 285.192149 239.865827 
L 285.257086 245.849448 
L 285.289555 243.98662 
L 285.322024 242.393525 
L 285.354492 242.976553 
L 285.41943 246.610785 
L 285.484367 244.586678 
L 285.516836 244.358641 
L 285.614242 248.273578 
L 285.646711 247.356597 
L 285.711648 245.800963 
L 285.744117 246.634968 
L 285.809054 248.667011 
L 285.873992 247.689999 
L 285.90646 247.277367 
L 285.938929 247.477496 
L 286.036335 248.56492 
L 286.068804 248.371819 
L 286.101272 248.210697 
L 286.133741 248.260652 
L 286.231147 248.699679 
L 286.263616 248.601159 
L 286.296085 248.50807 
L 286.328553 248.534773 
L 286.425959 248.950733 
L 286.490897 248.83617 
L 286.555834 248.769072 
L 286.588303 248.846204 
L 286.685709 249.036544 
L 286.750647 248.992301 
L 286.880521 249.083423 
L 287.91952 249.382263 
L 288.698769 249.470547 
L 288.828643 249.247142 
L 288.92605 248.604827 
L 289.023456 246.565222 
L 289.15333 237.052583 
L 289.41308 185.284319 
L 289.510486 176.685904 
L 289.575424 194.538205 
L 289.640361 238.574399 
L 289.67283 212.105518 
L 289.737767 193.926487 
L 289.770236 200.456181 
L 289.835173 243.774239 
L 289.900111 212.127119 
L 289.932579 207.613514 
L 289.965048 212.293307 
L 290.029985 247.255476 
L 290.062454 233.346512 
L 290.127391 217.390998 
L 290.15986 224.435072 
L 290.224798 246.850286 
L 290.257266 235.412957 
L 290.289735 227.253437 
L 290.354672 235.73136 
L 290.41961 247.118321 
L 290.452078 238.379011 
L 290.484547 233.966251 
L 290.517016 235.639698 
L 290.581953 248.449181 
L 290.646891 241.366212 
L 290.679359 239.09565 
L 290.711828 241.234109 
L 290.776765 249.17328 
L 290.841703 244.641524 
L 290.874172 243.45415 
L 290.90664 244.903072 
L 290.971578 249.625301 
L 291.036515 247.037258 
L 291.068984 246.154268 
L 291.101452 246.895581 
L 291.16639 249.633617 
L 291.231327 248.433107 
L 291.263796 247.764804 
L 291.296265 247.949276 
L 291.393671 249.591914 
L 291.42614 249.129729 
L 291.491077 248.477777 
L 291.523546 248.720274 
L 291.588483 249.142059 
L 291.620952 248.843357 
L 291.815764 244.644113 
L 291.978107 229.040872 
L 292.237857 192.761759 
L 292.270326 195.729606 
L 292.335263 212.536971 
L 292.400201 242.872061 
L 292.432669 232.084694 
L 292.530075 214.19882 
L 292.562544 219.456819 
L 292.65995 237.414767 
L 292.692419 233.757839 
L 292.757356 230.03424 
L 292.789825 231.757811 
L 292.984637 242.510726 
L 293.017106 241.982544 
L 293.082043 239.168378 
L 293.114512 239.717023 
L 293.211918 248.568007 
L 293.276855 245.797149 
L 293.341793 242.996467 
L 293.374262 244.244104 
L 293.471668 250.016533 
L 293.504136 249.303469 
L 293.601543 246.720846 
L 293.634011 247.396095 
L 293.731417 249.624288 
L 293.796355 249.173047 
L 293.828823 249.001497 
L 293.861292 249.060075 
L 293.958698 249.593078 
L 294.023636 249.515576 
L 294.056104 249.516477 
L 294.218448 250.206895 
L 294.283385 250.006132 
L 294.348323 249.880156 
L 294.380791 249.930982 
L 294.575604 250.327247 
L 294.608072 250.310024 
L 294.770416 250.370127 
L 295.452258 250.526513 
L 295.647071 250.408437 
L 295.776946 249.931916 
L 295.90682 248.009053 
L 296.036695 240.95162 
L 296.231507 209.368467 
L 296.458788 176.262188 
L 296.556194 207.168645 
L 296.588663 221.53759 
L 296.6536 204.089239 
L 296.686069 198.885814 
L 296.718538 201.818793 
L 296.815944 220.502611 
L 296.880881 215.522226 
L 297.140631 238.667785 
L 297.1731 234.290149 
L 297.238037 226.522753 
L 297.270506 231.74743 
L 297.335443 248.673971 
L 297.367912 242.614888 
L 297.432849 233.11835 
L 297.465318 236.631366 
L 297.530255 249.782972 
L 297.595193 242.170962 
L 297.627661 239.909797 
L 297.66013 241.537202 
L 297.725068 248.387718 
L 297.790005 246.340848 
L 297.822474 245.319811 
L 297.854942 245.883628 
L 297.91988 248.481428 
L 297.984817 247.799288 
L 298.017286 247.644501 
L 298.114692 249.816278 
L 298.179629 248.893686 
L 298.212098 248.557227 
L 298.244567 248.852784 
L 298.341973 250.610784 
L 298.374442 250.295213 
L 298.439379 249.523855 
L 298.471848 249.649834 
L 298.569254 250.742611 
L 298.634191 250.485283 
L 298.699129 250.306665 
L 298.731597 250.427671 
L 298.829003 250.757044 
L 298.893941 250.705302 
L 298.991347 250.809519 
L 299.15369 250.83622 
L 299.510846 251.019178 
L 299.803064 251.118566 
L 300.842063 251.350691 
L 301.101813 251.305407 
L 301.199219 251.115719 
L 301.296625 250.456878 
L 301.394031 248.229652 
L 301.523906 237.385611 
L 301.848593 174.743042 
L 301.91353 185.189796 
L 301.978467 240.302285 
L 302.043405 202.435208 
L 302.075874 193.294975 
L 302.108342 196.082851 
L 302.205748 236.866882 
L 302.238217 213.603322 
L 302.270686 205.859253 
L 302.303154 208.213101 
L 302.368092 244.715421 
L 302.433029 219.139347 
L 302.465498 215.497704 
L 302.497967 222.890507 
L 302.562904 246.080091 
L 302.595373 232.592918 
L 302.627842 224.722764 
L 302.66031 226.800563 
L 302.725248 248.308621 
L 302.790185 234.824515 
L 302.822654 232.496972 
L 302.855122 237.127601 
L 302.92006 249.91221 
L 302.952529 243.919696 
L 302.984997 239.077433 
L 303.049935 244.510991 
L 303.082403 249.876672 
L 303.147341 245.245979 
L 303.179809 242.927103 
L 303.212278 244.264339 
L 303.277216 250.033228 
L 303.309684 248.760101 
L 303.374622 244.856229 
L 303.439559 246.720734 
L 303.472028 246.625405 
L 303.699309 227.239534 
L 303.92659 199.205566 
L 303.959058 200.762286 
L 304.023996 211.645339 
L 304.121402 248.791593 
L 304.15387 237.087979 
L 304.251277 220.135811 
L 304.283745 223.437233 
L 304.381151 248.939384 
L 304.446089 237.8491 
L 304.511026 232.06194 
L 304.543495 234.799045 
L 304.640901 250.605584 
L 304.705838 244.449169 
L 304.770776 240.204306 
L 304.803244 241.589039 
L 304.900651 251.348602 
L 304.965588 249.080465 
L 305.030525 245.812564 
L 305.095463 247.304138 
L 305.192869 251.585387 
L 305.257806 250.705173 
L 305.355212 249.153383 
L 305.387681 249.415966 
L 305.550025 251.798838 
L 305.582493 251.66378 
L 305.712368 250.829134 
L 305.744837 250.904437 
L 305.939649 251.935599 
L 306.004586 251.880481 
L 306.199399 251.673334 
L 306.783835 252.114525 
L 307.043585 252.008255 
L 307.17346 251.683434 
L 307.303335 250.484787 
L 307.433209 246.026265 
L 307.595553 227.759243 
L 307.855302 188.266013 
L 307.887771 188.478837 
L 308.179989 230.642026 
L 308.212458 228.57624 
L 308.277396 215.058213 
L 308.342333 221.266237 
L 308.40727 248.647666 
L 308.472208 235.355238 
L 308.537145 228.399429 
L 308.569614 232.218975 
L 308.634551 241.041816 
L 308.699489 239.429517 
L 308.764426 243.432709 
L 308.829363 246.796754 
L 308.861832 243.940216 
L 308.92677 240.621701 
L 308.959238 242.662844 
L 309.056644 251.830609 
L 309.089113 250.220193 
L 309.15405 246.858866 
L 309.218988 248.132782 
L 309.283925 249.535163 
L 309.348863 249.314811 
L 309.478738 252.129424 
L 309.576144 250.761365 
L 309.608612 250.413731 
L 309.67355 250.860875 
L 309.770956 251.779839 
L 309.835893 251.734359 
L 309.900831 251.959746 
L 309.998237 252.444494 
L 310.063174 252.30355 
L 310.16058 252.092986 
L 310.193049 252.128558 
L 310.290455 252.225936 
L 310.322924 252.199361 
L 310.712548 251.478208 
L 310.842423 250.042078 
L 310.972298 245.752738 
L 311.134641 230.350453 
L 311.459328 184.734456 
L 311.491797 187.534713 
L 311.556734 201.709971 
L 311.621672 232.577028 
L 311.686609 218.552315 
L 311.751547 208.16457 
L 311.784015 211.638015 
L 311.881421 235.653247 
L 311.946359 225.615528 
L 311.978828 222.741545 
L 312.011296 224.975352 
L 312.108702 242.217193 
L 312.141171 238.806353 
L 312.206108 231.758776 
L 312.238577 233.624126 
L 312.335983 249.45849 
L 312.400921 242.29887 
L 312.433389 239.233753 
L 312.498327 242.047876 
L 312.595733 252.367167 
L 312.628202 250.020718 
L 312.693139 245.165944 
L 312.758076 246.998588 
L 312.855482 252.287308 
L 312.887951 251.558467 
L 312.985357 249.450876 
L 313.017826 250.097452 
L 313.115232 252.278615 
L 313.147701 252.084751 
L 313.245107 251.116914 
L 313.277576 251.360524 
L 313.40745 252.859243 
L 313.439919 252.754602 
L 313.569794 252.166219 
L 313.602263 252.282298 
L 313.732137 252.79053 
L 313.764606 252.767671 
L 313.894481 252.629563 
L 313.92695 252.672897 
L 314.121762 252.939816 
L 314.154231 252.921943 
L 314.41398 252.643974 
L 314.511386 252.150133 
L 314.641261 249.797015 
L 314.771136 241.60303 
L 314.998417 204.479082 
L 315.095823 192.127215 
L 315.128292 193.713453 
L 315.193229 206.053515 
L 315.258166 225.993228 
L 315.290635 219.468565 
L 315.355572 206.901202 
L 315.388041 208.122041 
L 315.485447 240.64976 
L 315.550385 226.576244 
L 315.582853 223.868045 
L 315.615322 227.125478 
L 315.680259 249.156029 
L 315.745197 237.296733 
L 315.777666 231.234507 
L 315.842603 235.549261 
L 315.90754 244.554359 
L 315.940009 241.513305 
L 316.004946 236.997633 
L 316.037415 239.790786 
L 316.134821 249.697867 
L 316.16729 247.033271 
L 316.199759 245.095159 
L 316.232227 245.372462 
L 316.329633 252.907144 
L 316.394571 250.214543 
L 316.42704 249.028423 
L 316.491977 250.559814 
L 316.556914 252.771921 
L 316.589383 252.298324 
L 316.686789 250.240653 
L 316.719258 250.605543 
L 316.784195 251.20595 
L 316.816664 250.720255 
L 317.011476 242.273352 
L 317.206288 216.893306 
L 317.433569 187.927609 
L 317.530975 206.174495 
L 317.595913 243.720968 
L 317.66085 223.19779 
L 317.725788 209.956318 
L 317.758256 212.418002 
L 317.855662 242.655956 
L 317.9206 233.793765 
L 317.985537 225.864183 
L 318.018006 228.06886 
L 318.115412 244.781806 
L 318.180349 239.59593 
L 318.212818 237.720042 
L 318.245287 238.024579 
L 318.375162 246.411832 
L 318.440099 244.833974 
L 318.472568 245.15125 
L 318.602443 249.786766 
L 318.634911 249.035271 
L 318.699849 248.003466 
L 318.732317 248.687579 
L 318.862192 252.53027 
L 318.894661 251.847484 
L 318.992067 250.372613 
L 319.024536 250.898155 
L 319.154411 253.467713 
L 319.186879 253.239354 
L 319.284285 252.201567 
L 319.349223 252.424066 
L 319.511566 253.389041 
L 319.544035 253.340064 
L 319.641441 253.253364 
L 319.67391 253.299171 
L 319.836253 253.496108 
L 319.868722 253.471643 
L 320.031065 253.417351 
L 320.323284 253.554555 
L 320.485627 253.363759 
L 320.615502 252.853878 
L 320.745377 251.047858 
L 320.875252 244.966735 
L 321.070064 218.577981 
L 321.297345 188.143626 
L 321.557094 211.950215 
L 321.654501 234.559689 
L 321.686969 224.199321 
L 321.751907 213.213387 
L 321.784375 216.404997 
L 321.881781 251.575621 
L 321.946719 232.106157 
L 321.979188 227.942571 
L 322.011656 229.246889 
L 322.109062 243.239466 
L 322.174 240.361906 
L 322.206468 241.037141 
L 322.271406 247.00186 
L 322.336343 244.442561 
L 322.368812 242.076029 
L 322.433749 244.480444 
L 322.531155 253.518219 
L 322.563624 251.35768 
L 322.628562 247.310983 
L 322.693499 248.977173 
L 322.790905 251.897902 
L 322.823374 251.630306 
L 322.855842 251.542379 
L 322.985717 253.177981 
L 323.018186 252.798519 
L 323.115592 251.861636 
L 323.148061 252.242862 
L 323.277936 253.849454 
L 323.310404 253.75458 
L 323.375342 253.555529 
L 323.40781 253.598571 
L 323.505217 253.896268 
L 323.570154 253.787727 
L 323.66756 253.584378 
L 323.700029 253.61826 
L 323.862372 253.862189 
L 323.894841 253.842351 
L 324.187059 253.536563 
L 324.316934 252.575766 
L 324.446809 249.669068 
L 324.576684 241.328192 
L 324.836433 200.757753 
L 324.966308 187.0254 
L 324.998777 187.270524 
L 325.128652 228.742303 
L 325.226058 210.027548 
L 325.258526 209.321719 
L 325.323464 223.336605 
L 325.388401 240.644708 
L 325.42087 230.750632 
L 325.485807 220.079899 
L 325.518276 222.897945 
L 325.615682 253.685257 
L 325.648151 245.247043 
L 325.713088 231.405487 
L 325.778026 237.266797 
L 325.842963 251.150679 
L 325.9079 244.866353 
L 325.972838 241.286485 
L 326.005307 244.233729 
L 326.102713 252.536795 
L 326.135181 249.754655 
L 326.200119 245.896011 
L 326.232587 246.872503 
L 326.329994 253.888226 
L 326.394931 252.506774 
L 326.459868 250.696122 
L 326.492337 251.109299 
L 326.589743 253.981113 
L 326.654681 253.294494 
L 326.719618 252.267287 
L 326.784555 252.763066 
L 326.881961 254.068599 
L 326.946899 253.811611 
L 327.011836 253.450712 
L 327.076774 253.634966 
L 327.17418 254.144849 
L 327.239117 254.022989 
L 327.466398 252.444636 
L 327.596273 248.492212 
L 327.758616 233.680229 
L 328.050835 198.486482 
L 328.148241 221.434578 
L 328.213178 240.568958 
L 328.245647 230.910479 
L 328.310584 219.246491 
L 328.343053 220.656744 
L 328.440459 250.704415 
L 328.505397 236.343581 
L 328.570334 229.341576 
L 328.602803 233.112919 
L 328.700209 250.648033 
L 328.732677 246.22031 
L 328.797615 239.6984 
L 328.830084 241.488416 
L 328.92749 254.45476 
L 328.992427 249.424049 
L 329.057364 246.065685 
L 329.089833 247.290807 
L 329.187239 252.958131 
L 329.219708 252.11019 
L 329.317114 249.060993 
L 329.349583 249.694854 
L 329.446989 252.614628 
L 329.511926 251.744683 
L 329.901551 238.743029 
L 330.323644 195.936663 
L 330.356113 199.368019 
L 330.453519 225.580667 
L 330.518456 247.418902 
L 330.550925 237.590993 
L 330.648331 220.001593 
L 330.6808 221.205609 
L 330.810674 245.128588 
L 330.875612 239.629507 
L 330.940549 235.90977 
L 330.973018 237.149357 
L 331.102893 247.825572 
L 331.135361 246.859342 
L 331.200299 244.477061 
L 331.232767 244.814448 
L 331.395111 252.784903 
L 331.460048 250.488873 
L 331.524986 248.742947 
L 331.557454 248.947437 
L 331.752267 255.172482 
L 331.817204 254.381137 
L 331.947079 253.071841 
L 331.979548 253.24068 
L 332.141891 254.383202 
L 332.17436 254.348776 
L 332.369172 253.186658 
L 332.531516 251.59972 
L 332.66139 247.60711 
L 332.823734 234.487757 
L 333.115952 199.903762 
L 333.18089 201.265462 
L 333.310764 211.956829 
L 333.343233 211.65646 
L 333.375702 210.417436 
L 333.40817 210.973599 
L 333.473108 219.73259 
L 333.570514 254.42196 
L 333.635451 237.248584 
L 333.700389 227.065356 
L 333.765326 230.779908 
L 333.895201 243.49304 
L 333.92767 242.411202 
L 333.960138 242.362721 
L 334.090013 251.280604 
L 334.154951 248.094851 
L 334.252357 243.955276 
L 334.284825 244.99864 
L 334.447169 253.150987 
L 334.479638 252.900289 
L 334.512106 252.609269 
L 334.577044 252.96487 
L 334.706919 254.80389 
L 334.739387 254.547171 
L 334.999137 252.031381 
L 335.096543 250.783282 
L 335.258886 244.478582 
L 335.486167 222.139227 
L 335.745917 196.562996 
L 335.778386 198.853239 
L 335.843323 208.724389 
L 335.940729 238.693317 
L 336.005667 230.78763 
L 336.070604 221.953466 
L 336.135541 225.806182 
L 336.232947 245.670424 
L 336.297885 240.272219 
L 336.362822 233.435915 
L 336.42776 236.565499 
L 336.557634 255.447281 
L 336.590103 252.788324 
L 336.687509 243.75966 
L 336.752447 245.269105 
L 336.882321 253.691367 
L 336.947259 252.281818 
L 337.044665 250.067322 
L 337.077134 250.502207 
L 337.271946 255.183816 
L 337.336883 254.513292 
L 337.531696 253.179532 
L 337.596633 252.983564 
L 337.694039 251.087814 
L 337.823914 242.978696 
L 338.051195 211.804133 
L 338.18107 199.901556 
L 338.213538 200.187025 
L 338.343413 229.144723 
L 338.40835 221.269322 
L 338.473288 215.314332 
L 338.505757 218.0816 
L 338.603163 247.842801 
L 338.6681 238.509178 
L 338.733037 233.04225 
L 338.765506 237.324154 
L 338.862912 252.001492 
L 338.895381 246.150033 
L 338.960318 238.332536 
L 339.025256 241.925924 
L 339.090193 247.967489 
L 339.155131 245.109512 
L 339.220068 242.575806 
L 339.252537 243.488878 
L 339.349943 248.180732 
L 339.41488 246.436902 
L 339.869442 224.173036 
L 340.129192 207.000461 
L 340.16166 208.710119 
L 340.226598 215.449558 
L 340.388941 255.550186 
L 340.453879 242.47418 
L 340.551285 231.180761 
L 340.583753 231.836832 
L 340.68116 242.361574 
L 340.778566 255.213768 
L 340.843503 252.939482 
L 341.005847 245.314806 
L 341.038315 245.783662 
L 341.363002 255.465758 
L 341.395471 255.395009 
L 341.590283 254.059563 
L 341.785095 251.615322 
L 341.947439 246.858221 
L 342.142251 233.236955 
L 342.499407 198.723422 
L 342.531876 199.864779 
L 342.596813 205.184036 
L 342.759156 233.332132 
L 342.824094 226.108987 
L 342.856563 223.796243 
L 342.889031 224.730664 
L 343.051375 243.467514 
L 343.116312 237.025581 
L 343.148781 234.840728 
L 343.213718 237.268164 
L 343.343593 254.977732 
L 343.40853 250.113821 
L 343.505937 244.370628 
L 343.538405 245.445439 
L 343.700749 256.303301 
L 343.765686 254.74354 
L 343.863092 251.923856 
L 343.92803 252.353327 
L 344.122842 256.188138 
L 344.155311 256.107707 
L 344.609872 251.926899 
L 344.739747 247.046963 
L 344.902091 231.298255 
L 345.194309 193.642156 
L 345.226778 195.20837 
L 345.291715 205.388069 
L 345.389121 233.416069 
L 345.42159 224.323378 
L 345.518996 207.834987 
L 345.551465 209.073437 
L 345.68134 229.125442 
L 345.746277 224.856089 
L 345.778746 225.793204 
L 345.90862 254.710386 
L 345.973558 240.198722 
L 346.038495 234.439148 
L 346.070964 236.59849 
L 346.200839 249.736375 
L 346.233308 247.724011 
L 346.265776 246.250136 
L 346.330714 248.260119 
L 346.42812 255.987023 
L 346.460588 255.108752 
L 346.590463 249.544397 
L 346.622932 250.414911 
L 346.720338 253.377526 
L 346.785275 252.758457 
L 346.850213 251.834807 
L 346.91515 252.208438 
L 347.012556 253.5108 
L 347.077494 253.157842 
L 347.272306 248.647209 
L 347.434649 237.973152 
L 347.759336 206.449813 
L 347.824274 210.038865 
L 347.986617 236.449012 
L 348.084023 234.360428 
L 348.213898 243.934094 
L 348.278836 240.624971 
L 348.343773 237.158898 
L 348.376242 237.768893 
L 348.538585 256.808837 
L 348.635991 251.04406 
L 348.700929 248.358206 
L 348.765866 249.499404 
L 348.895741 252.992898 
L 348.92821 252.703325 
L 349.058085 251.391812 
L 349.090553 251.707588 
L 349.285365 254.409978 
L 349.350303 253.97362 
L 349.545115 249.708286 
L 349.707459 239.647006 
L 349.999677 200.197931 
L 350.097083 191.443772 
L 350.129552 192.81978 
L 350.194489 201.526032 
L 350.291895 248.744237 
L 350.356833 228.790591 
L 350.42177 214.618824 
L 350.486707 220.968943 
L 350.584113 254.905072 
L 350.616582 245.333561 
L 350.713988 228.822171 
L 350.746457 232.048756 
L 350.843863 256.419673 
L 350.908801 246.854962 
L 350.973738 239.437703 
L 351.006207 240.519533 
L 351.136081 257.144809 
L 351.201019 252.258767 
L 351.265956 247.94451 
L 351.330894 249.866319 
L 351.460768 257.324599 
L 351.493237 256.493928 
L 351.623112 253.312315 
L 351.655581 253.923085 
L 351.817924 257.497245 
L 351.850393 257.268085 
L 351.980268 255.968204 
L 352.045205 256.181808 
L 352.272486 257.644984 
L 352.304955 257.602174 
L 352.597173 256.627521 
L 352.694579 255.499446 
L 352.824454 249.617477 
L 352.986797 225.356602 
L 353.18161 190.331265 
L 353.246547 193.923184 
L 353.343953 217.16205 
L 353.376422 209.585055 
L 353.441359 199.392727 
L 353.473828 201.542148 
L 353.571234 224.405737 
L 353.636171 218.502854 
L 353.733578 252.054815 
L 353.766046 238.474374 
L 353.830984 223.986264 
L 353.863452 227.785602 
L 353.92839 239.776181 
L 353.993327 234.716143 
L 354.058265 246.098684 
L 354.090733 255.912279 
L 354.155671 246.544197 
L 354.188139 242.010495 
L 354.253077 246.151933 
L 354.285545 248.596627 
L 354.318014 247.213804 
L 354.382952 244.679277 
L 354.41542 247.507593 
L 354.480358 255.22982 
L 354.545295 253.263725 
L 354.577764 252.691065 
L 354.610232 254.028948 
L 354.67517 256.965188 
L 354.707639 255.925095 
L 354.772576 253.173361 
L 354.837513 254.223216 
L 354.869982 254.874787 
L 354.934919 254.128531 
L 354.967388 253.639971 
L 355.032326 254.220041 
L 355.097263 255.120004 
L 355.1622 254.644892 
L 355.194669 254.408503 
L 355.259606 254.568767 
L 355.292075 254.637493 
L 355.389481 253.323749 
L 355.551825 248.421455 
L 355.746637 231.207194 
L 356.038855 197.695586 
L 356.071324 199.082349 
L 356.136261 207.357797 
L 356.266136 253.393448 
L 356.298605 240.343392 
L 356.396011 220.553112 
L 356.42848 222.573589 
L 356.558355 254.815667 
L 356.655761 239.574882 
L 356.720698 236.253309 
L 356.753167 238.445678 
L 356.883042 257.216491 
L 356.947979 251.90573 
L 357.045385 246.430576 
L 357.077854 247.701951 
L 357.240197 258.066857 
L 357.272666 257.17301 
L 357.402541 253.076083 
L 357.435009 253.389619 
L 357.629822 258.308263 
L 357.727228 257.625924 
L 357.889571 256.544763 
L 358.019446 257.231776 
L 358.279196 258.431564 
L 358.474008 258.536195 
L 358.733758 258.441284 
L 358.863632 258.132948 
L 358.993507 256.913391 
L 359.123382 252.169696 
L 359.285725 231.815727 
L 359.610412 178.867241 
L 359.67535 199.793405 
L 359.740287 249.585241 
L 359.772756 215.033696 
L 359.837693 197.317983 
L 359.870162 204.308828 
L 359.9351 252.252044 
L 360.000037 216.126671 
L 360.032506 211.116672 
L 360.064974 215.121346 
L 360.129912 253.412386 
L 360.194849 226.134504 
L 360.227318 221.401387 
L 360.259787 227.127797 
L 360.324724 255.952372 
L 360.357193 245.40531 
L 360.42213 231.361136 
L 360.454599 236.410049 
L 360.519536 257.202326 
L 360.552005 249.840811 
L 360.616942 239.181128 
L 360.649411 243.391535 
L 360.714348 257.361251 
L 360.746817 253.92815 
L 360.811754 245.991125 
L 360.844223 248.051521 
L 360.909161 257.262077 
L 360.974098 253.156933 
L 361.006567 250.879072 
L 361.071504 253.982873 
L 361.136441 257.95543 
L 361.16891 256.590631 
L 361.233848 253.978023 
L 361.266316 254.777807 
L 361.363722 258.146867 
L 361.396191 257.356802 
L 361.461128 256.088087 
L 361.493597 256.530527 
L 361.591003 258.357374 
L 361.623472 258.049151 
L 361.688409 257.32814 
L 361.720878 257.443067 
L 361.818284 258.492461 
L 361.883222 258.297614 
L 361.948159 258.02846 
L 361.980628 258.106554 
L 362.110502 258.613299 
L 362.142971 258.549857 
L 362.207909 258.421312 
L 362.272846 258.505898 
L 362.402721 258.726744 
L 362.43519 258.705779 
L 362.565064 258.697289 
L 362.792345 258.820278 
L 363.441719 258.78409 
L 363.539125 258.364361 
L 363.636531 256.942481 
L 363.733938 252.46998 
L 363.896281 228.449276 
L 364.156031 182.529341 
L 364.188499 186.303123 
L 364.285905 216.64705 
L 364.350843 205.601421 
L 364.383312 206.328912 
L 364.448249 229.738571 
L 364.513186 213.340884 
L 364.545655 209.648038 
L 364.578124 217.730209 
L 364.643061 255.788826 
L 364.67553 234.096765 
L 364.707999 222.368911 
L 364.772936 232.420448 
L 364.805405 241.874814 
L 364.870342 232.513291 
L 364.93528 246.061171 
L 364.967748 253.496504 
L 365.000217 244.411417 
L 365.032686 236.650914 
L 365.097623 244.435923 
L 365.130092 253.706979 
L 365.195029 247.233921 
L 365.227498 246.018903 
L 365.292435 253.929959 
L 365.357373 248.72848 
L 365.389841 247.904937 
L 365.487247 258.20724 
L 365.552185 253.086304 
L 365.584654 253.225702 
L 365.649591 256.638309 
L 365.714528 254.714787 
L 365.746997 254.823462 
L 365.844403 258.692597 
L 365.876872 257.691475 
L 365.909341 256.731507 
L 365.974278 257.464733 
L 366.006747 258.060989 
L 366.071684 257.532726 
L 366.104153 257.394946 
L 366.201559 258.896038 
L 366.266496 258.500823 
L 366.298965 258.332855 
L 366.331434 258.45469 
L 366.396371 258.812213 
L 366.42884 258.718172 
L 366.493777 258.485661 
L 366.526246 258.597788 
L 366.623652 258.967948 
L 366.656121 258.922749 
L 366.688589 258.897891 
L 366.721058 258.947026 
L 366.818464 259.161377 
L 366.883402 259.098416 
L 366.980808 259.168714 
L 367.110683 259.153843 
L 367.43537 259.096481 
L 367.565244 258.742181 
L 367.695119 257.454377 
L 367.824994 252.822469 
L 367.987337 234.570299 
L 368.279556 184.433981 
L 368.312024 186.367897 
L 368.376962 200.580937 
L 368.441899 242.858661 
L 368.506837 216.182647 
L 368.571774 206.273353 
L 368.604243 212.379994 
L 368.701649 240.485214 
L 368.734118 229.286908 
L 368.799055 222.083777 
L 368.831524 227.647211 
L 368.896461 243.875134 
L 368.961398 236.995733 
L 368.993867 234.510901 
L 369.026336 235.422119 
L 369.123742 247.68126 
L 369.188679 245.061462 
L 369.221148 244.618478 
L 369.253617 245.575811 
L 369.448429 252.205149 
L 369.708179 256.978829 
L 369.773116 255.987432 
L 369.805585 255.367961 
L 369.870522 256.192524 
L 369.967928 258.895615 
L 370.000397 258.516239 
L 370.097803 257.150228 
L 370.130272 257.598444 
L 370.227678 259.427018 
L 370.292615 259.000713 
L 370.357553 258.421552 
L 370.42249 258.73075 
L 370.552365 259.498637 
L 370.584834 259.404676 
L 370.68224 259.224386 
L 370.714708 259.277414 
L 370.941989 259.553089 
L 371.234208 259.632974 
L 371.461489 259.752358 
L 372.045925 259.880798 
L 372.695299 259.909298 
L 372.792705 259.691401 
L 372.890111 258.746066 
L 372.987517 254.983009 
L 373.117392 236.614213 
L 373.409611 173.40151 
L 373.442079 178.869844 
L 373.66936 218.760176 
L 373.734298 195.659016 
L 373.766766 200.708936 
L 373.831704 251.957937 
L 373.864172 219.781482 
L 373.896641 208.067879 
L 373.92911 212.942828 
L 374.091453 236.979157 
L 374.123922 235.268255 
L 374.156391 224.161376 
L 374.221328 237.908171 
L 374.253797 255.737495 
L 374.318734 231.44513 
L 374.513546 249.512814 
L 374.546015 249.031814 
L 374.610953 242.96766 
L 374.643421 250.15858 
L 374.67589 257.976996 
L 374.740827 247.970983 
L 374.773296 248.306928 
L 374.838233 255.241857 
L 374.903171 252.9662 
L 374.968108 257.086191 
L 375.000577 255.025593 
L 375.033046 253.154857 
L 375.065514 254.455122 
L 375.130452 258.960554 
L 375.16292 257.195319 
L 375.195389 255.880001 
L 375.227858 256.490736 
L 375.390201 258.624823 
L 375.42267 259.020772 
L 375.455139 258.453424 
L 375.487607 257.842504 
L 375.520076 258.021628 
L 375.585014 259.283854 
L 375.649951 258.875951 
L 375.68242 258.857167 
L 375.747357 259.206214 
L 375.812294 259.047373 
L 375.909701 259.588366 
L 375.974638 259.316018 
L 376.007107 259.315215 
L 376.201919 259.66996 
L 376.234388 259.716135 
L 376.299325 259.633128 
L 376.364262 259.696238 
L 376.526606 259.805315 
L 376.851293 259.925933 
L 377.92276 260.201646 
L 378.831884 260.293798 
L 378.92929 260.099891 
L 379.026696 259.354539 
L 379.124102 256.680869 
L 379.253977 243.638565 
L 379.546195 178.906585 
L 379.611133 181.159762 
L 379.708539 240.783927 
L 379.773476 200.704966 
L 379.805945 198.228333 
L 379.838413 203.890487 
L 379.903351 237.850626 
L 379.93582 221.889638 
L 380.000757 210.93448 
L 380.033226 223.379564 
L 380.065694 246.102141 
L 380.130632 223.621678 
L 380.1631 218.531446 
L 380.195569 225.442151 
L 380.260507 257.717573 
L 380.292975 239.27209 
L 380.325444 228.870929 
L 380.390381 240.98985 
L 380.42285 256.095753 
L 380.487787 240.058107 
L 380.520256 237.523411 
L 380.552725 243.150879 
L 380.617662 256.605549 
L 380.650131 248.591742 
L 380.6826 244.047552 
L 380.715068 245.995117 
L 380.780006 259.497332 
L 380.844943 250.652034 
L 380.877412 249.143013 
L 380.909881 252.500894 
L 380.974818 259.589999 
L 381.007287 256.713055 
L 381.039755 253.895758 
L 381.104693 256.633103 
L 381.16963 259.298208 
L 381.202099 257.429451 
L 381.234568 256.209151 
L 381.267036 256.808563 
L 381.331974 260.09328 
L 381.396911 258.666558 
L 381.42938 257.913264 
L 381.461849 258.26706 
L 381.526786 260.121253 
L 381.591723 259.518088 
L 381.624192 259.123755 
L 381.656661 259.279496 
L 381.754067 260.289903 
L 381.786536 259.987888 
L 381.819004 259.719063 
L 381.883942 260.003454 
L 381.948879 260.429066 
L 382.013816 260.17897 
L 382.046285 260.1148 
L 382.078754 260.197852 
L 382.17616 260.465965 
L 382.208629 260.394069 
L 382.273566 260.326963 
L 382.306035 260.394518 
L 382.403441 260.539409 
L 382.43591 260.507565 
L 382.533316 260.519828 
L 382.695659 260.572317 
L 383.18269 260.699285 
L 383.637252 260.666095 
L 383.767126 260.323715 
L 383.864532 259.363721 
L 383.994407 254.515467 
L 384.156751 232.42448 
L 384.4165 191.683499 
L 384.741187 240.128323 
L 384.806125 220.178202 
L 384.871062 229.290509 
L 384.936 254.379586 
L 384.968468 242.885948 
L 385.033406 234.651618 
L 385.065874 241.024082 
L 385.098343 248.61334 
L 385.163281 241.992875 
L 385.195749 239.332709 
L 385.228218 242.891458 
L 385.293155 259.317783 
L 385.358093 250.55818 
L 385.390561 247.263797 
L 385.42303 248.167238 
L 385.487968 255.074199 
L 385.552905 252.512472 
L 385.585374 251.915031 
L 385.68278 260.142377 
L 385.747717 257.470677 
L 385.812655 255.814568 
L 385.845123 257.106127 
L 385.910061 258.917433 
L 385.942529 258.325255 
L 385.974998 257.626679 
L 386.039935 258.480914 
L 386.137342 260.593438 
L 386.16981 260.144057 
L 386.234748 259.641925 
L 386.267216 259.948461 
L 386.332154 260.574966 
L 386.364622 260.462559 
L 386.462029 259.847168 
L 386.494497 259.997899 
L 386.591903 260.431039 
L 386.624372 260.342426 
L 386.689309 260.170998 
L 386.721778 260.202084 
L 386.819184 260.409002 
L 386.851653 260.355173 
L 387.046465 259.489667 
L 387.17634 257.345627 
L 387.306215 251.392775 
L 387.468558 233.126692 
L 387.760777 193.200922 
L 387.793245 195.920265 
L 387.858183 209.690097 
L 387.955589 245.939277 
L 387.988058 231.644302 
L 388.052995 216.980726 
L 388.117932 222.452222 
L 388.215338 245.143191 
L 388.247807 240.897172 
L 388.312745 233.7004 
L 388.345213 234.628453 
L 388.442619 247.779201 
L 388.507557 245.794505 
L 388.540025 244.395814 
L 388.572494 244.734423 
L 388.702369 253.823213 
L 388.734838 252.447958 
L 388.799775 250.016351 
L 388.832244 250.886507 
L 388.962119 259.528395 
L 388.994587 258.504016 
L 389.091993 254.711829 
L 389.124462 255.248505 
L 389.254337 261.107801 
L 389.319274 260.257305 
L 389.41668 258.41946 
L 389.449149 258.653646 
L 389.611493 261.052816 
L 389.67643 260.764894 
L 389.741367 260.481234 
L 389.806305 260.609595 
L 389.968648 261.216 
L 390.001117 261.178543 
L 390.163461 260.905055 
L 390.195929 260.923439 
L 390.358273 261.123507 
L 390.358273 261.123507 
" clip-path="url(#p7316847325)" style="fill: none; stroke: #1f77b4; stroke-width: 1.2; stroke-linecap: round"/>
   </g>
   <g id="patch_3">
    <path d="M 49.471 273.312 
L 49.471 7.2 
" style="fill: none; stroke: #262626; stroke-linejoin: miter; stroke-linecap: square"/>
   </g>
   <g id="patch_4">
    <path d="M 406.591 273.312 
L 406.591 7.2 
" style="fill: none; stroke: #262626; stroke-linejoin: miter; stroke-linecap: square"/>
   </g>
   <g id="patch_5">
    <path d="M 49.471 273.312 
L 406.591 273.312 
" style="fill: none; stroke: #262626; stroke-linejoin: miter; stroke-linecap: square"/>
   </g>
   <g id="patch_6">
    <path d="M 49.471 7.2 
L 406.591 7.2 
" style="fill: none; stroke: #262626; stroke-linejoin: miter; stroke-linecap: square"/>
   </g>
   <g id="legend_1">
    <g id="patch_7">
     <path d="M 315.454625 27.15675 
L 400.431 27.15675 
Q 402.191 27.15675 402.191 25.39675 
L 402.191 13.36 
Q 402.191 11.6 400.431 11.6 
L 315.454625 11.6 
Q 313.694625 11.6 313.694625 13.36 
L 313.694625 25.39675 
Q 313.694625 27.15675 315.454625 27.15675 
z
" style="fill: #ffffff; opacity: 0.8; stroke: #cccccc; stroke-width: 0.8; stroke-linejoin: miter"/>
    </g>
    <g id="line2d_61">
     <path d="M 317.214625 18.726625 
L 326.014625 18.726625 
L 334.814625 18.726625 
" style="fill: none; stroke: #1f77b4; stroke-width: 1.2; stroke-linecap: round"/>
    </g>
    <g id="text_14">
     <!-- Training Loss -->
     <g style="fill: #262626" transform="translate(341.854625 21.806625) scale(0.088 -0.088)">
      <defs>
       <path id="DejaVuSans-54" d="M -19 4666 
L 3928 4666 
L 3928 4134 
L 2272 4134 
L 2272 0 
L 1638 0 
L 1638 4134 
L -19 4134 
L -19 4666 
z
" transform="scale(0.015625)"/>
       <path id="DejaVuSans-72" d="M 2631 2963 
Q 2534 3019 2420 3045 
Q 2306 3072 2169 3072 
Q 1681 3072 1420 2755 
Q 1159 2438 1159 1844 
L 1159 0 
L 581 0 
L 581 3500 
L 1159 3500 
L 1159 2956 
Q 1341 3275 1631 3429 
Q 1922 3584 2338 3584 
Q 2397 3584 2469 3576 
Q 2541 3569 2628 3553 
L 2631 2963 
z
" transform="scale(0.015625)"/>
       <path id="DejaVuSans-61" d="M 2194 1759 
Q 1497 1759 1228 1600 
Q 959 1441 959 1056 
Q 959 750 1161 570 
Q 1363 391 1709 391 
Q 2188 391 2477 730 
Q 2766 1069 2766 1631 
L 2766 1759 
L 2194 1759 
z
M 3341 1997 
L 3341 0 
L 2766 0 
L 2766 531 
Q 2569 213 2275 61 
Q 1981 -91 1556 -91 
Q 1019 -91 701 211 
Q 384 513 384 1019 
Q 384 1609 779 1909 
Q 1175 2209 1959 2209 
L 2766 2209 
L 2766 2266 
Q 2766 2663 2505 2880 
Q 2244 3097 1772 3097 
Q 1472 3097 1187 3025 
Q 903 2953 641 2809 
L 641 3341 
Q 956 3463 1253 3523 
Q 1550 3584 1831 3584 
Q 2591 3584 2966 3190 
Q 3341 2797 3341 1997 
z
" transform="scale(0.015625)"/>
       <path id="DejaVuSans-69" d="M 603 3500 
L 1178 3500 
L 1178 0 
L 603 0 
L 603 3500 
z
M 603 4863 
L 1178 4863 
L 1178 4134 
L 603 4134 
L 603 4863 
z
" transform="scale(0.015625)"/>
       <path id="DejaVuSans-6e" d="M 3513 2113 
L 3513 0 
L 2938 0 
L 2938 2094 
Q 2938 2591 2744 2837 
Q 2550 3084 2163 3084 
Q 1697 3084 1428 2787 
Q 1159 2491 1159 1978 
L 1159 0 
L 581 0 
L 581 3500 
L 1159 3500 
L 1159 2956 
Q 1366 3272 1645 3428 
Q 1925 3584 2291 3584 
Q 2894 3584 3203 3211 
Q 3513 2838 3513 2113 
z
" transform="scale(0.015625)"/>
       <path id="DejaVuSans-67" d="M 2906 1791 
Q 2906 2416 2648 2759 
Q 2391 3103 1925 3103 
Q 1463 3103 1205 2759 
Q 947 2416 947 1791 
Q 947 1169 1205 825 
Q 1463 481 1925 481 
Q 2391 481 2648 825 
Q 2906 1169 2906 1791 
z
M 3481 434 
Q 3481 -459 3084 -895 
Q 2688 -1331 1869 -1331 
Q 1566 -1331 1297 -1286 
Q 1028 -1241 775 -1147 
L 775 -588 
Q 1028 -725 1275 -790 
Q 1522 -856 1778 -856 
Q 2344 -856 2625 -561 
Q 2906 -266 2906 331 
L 2906 616 
Q 2728 306 2450 153 
Q 2172 0 1784 0 
Q 1141 0 747 490 
Q 353 981 353 1791 
Q 353 2603 747 3093 
Q 1141 3584 1784 3584 
Q 2172 3584 2450 3431 
Q 2728 3278 2906 2969 
L 2906 3500 
L 3481 3500 
L 3481 434 
z
" transform="scale(0.015625)"/>
       <path id="DejaVuSans-20" transform="scale(0.015625)"/>
      </defs>
      <use xlink:href="#DejaVuSans-54"/>
      <use xlink:href="#DejaVuSans-72" x="46.333984"/>
      <use xlink:href="#DejaVuSans-61" x="87.447266"/>
      <use xlink:href="#DejaVuSans-69" x="148.726562"/>
      <use xlink:href="#DejaVuSans-6e" x="176.509766"/>
      <use xlink:href="#DejaVuSans-69" x="239.888672"/>
      <use xlink:href="#DejaVuSans-6e" x="267.671875"/>
      <use xlink:href="#DejaVuSans-67" x="331.050781"/>
      <use xlink:href="#DejaVuSans-20" x="394.527344"/>
      <use xlink:href="#DejaVuSans-4c" x="426.314453"/>
      <use xlink:href="#DejaVuSans-6f" x="480.277344"/>
      <use xlink:href="#DejaVuSans-73" x="541.458984"/>
      <use xlink:href="#DejaVuSans-73" x="593.558594"/>
     </g>
    </g>
   </g>
  </g>
 </g>
 <defs>
  <clipPath id="p7316847325">
   <rect x="49.471" y="7.2" width="357.12" height="266.112"/>
  </clipPath>
 </defs>
</svg>