<?xml version="1.0" encoding="utf-8" standalone="no"?>
<!DOCTYPE svg PUBLIC "-//W3C//DTD SVG 1.1//EN"
  "http://www.w3.org/Graphics/SVG/1.1/DTD/svg11.dtd">
<svg xmlns:xlink="http://www.w3.org/1999/xlink" width="400.0281pt" height="312.788812pt" viewBox="0 0 400.0281 312.788812" xmlns="http://www.w3.org/2000/svg" version="1.1">
 <metadata>
  <rdf:RDF xmlns:dc="http://purl.org/dc/elements/1.1/" xmlns:cc="http://creativecommons.org/ns#" xmlns:rdf="http://www.w3.org/1999/02/22-rdf-syntax-ns#">
   <cc:Work>
    <dc:type rdf:resource="http://purl.org/dc/dcmitype/StillImage"/>
    <dc:date>2024-03-18T13:25:11.305051</dc:date>
    <dc:format>image/svg+xml</dc:format>
    <dc:creator>
     <cc:Agent>
      <dc:title>Matplotlib v3.8.0, https://matplotlib.org/</dc:title>
     </cc:Agent>
    </dc:creator>
   </cc:Work>
  </rdf:RDF>
 </metadata>
 <defs>
  <style type="text/css">*{stroke-linejoin: round; stroke-linecap: butt}</style>
 </defs>
 <g id="figure_1">
  <g id="patch_1">
   <path d="M 0 312.788812 
L 400.0281 312.788812 
L 400.0281 0 
L 0 0 
z
" style="fill: #ffffff"/>
  </g>
  <g id="axes_1">
   <g id="patch_2">
    <path d="M 50.544875 276.461437 
L 336.240875 276.461437 
L 336.240875 10.349437 
L 50.544875 10.349437 
z
" style="fill: #ffffff"/>
   </g>
   <g id="matplotlib.axis_1">
    <g id="xtick_1">
     <g id="line2d_1">
      <defs>
       <path id="m5cffeae1a0" d="M 0 0 
L 0 4.8 
" style="stroke: #262626"/>
      </defs>
      <g>
       <use xlink:href="#m5cffeae1a0" x="50.544875" y="276.461437" style="fill: #262626; stroke: #262626"/>
      </g>
     </g>
     <g id="text_1">
      <!-- −1.00 -->
      <g style="fill: #262626" transform="translate(39.412188 291.060312) scale(0.088 -0.088)">
       <defs>
        <path id="ArialMT-2212" d="M 3381 1997 
L 356 1997 
L 356 2522 
L 3381 2522 
L 3381 1997 
z
" transform="scale(0.015625)"/>
        <path id="ArialMT-31" d="M 2384 0 
L 1822 0 
L 1822 3584 
Q 1619 3391 1289 3197 
Q 959 3003 697 2906 
L 697 3450 
Q 1169 3672 1522 3987 
Q 1875 4303 2022 4600 
L 2384 4600 
L 2384 0 
z
" transform="scale(0.015625)"/>
        <path id="ArialMT-2e" d="M 581 0 
L 581 641 
L 1222 641 
L 1222 0 
L 581 0 
z
" transform="scale(0.015625)"/>
        <path id="ArialMT-30" d="M 266 2259 
Q 266 3072 433 3567 
Q 600 4063 929 4331 
Q 1259 4600 1759 4600 
Q 2128 4600 2406 4451 
Q 2684 4303 2865 4023 
Q 3047 3744 3150 3342 
Q 3253 2941 3253 2259 
Q 3253 1453 3087 958 
Q 2922 463 2592 192 
Q 2263 -78 1759 -78 
Q 1097 -78 719 397 
Q 266 969 266 2259 
z
M 844 2259 
Q 844 1131 1108 757 
Q 1372 384 1759 384 
Q 2147 384 2411 759 
Q 2675 1134 2675 2259 
Q 2675 3391 2411 3762 
Q 2147 4134 1753 4134 
Q 1366 4134 1134 3806 
Q 844 3388 844 2259 
z
" transform="scale(0.015625)"/>
       </defs>
       <use xlink:href="#ArialMT-2212"/>
       <use xlink:href="#ArialMT-31" x="58.398438"/>
       <use xlink:href="#ArialMT-2e" x="114.013672"/>
       <use xlink:href="#ArialMT-30" x="141.796875"/>
       <use xlink:href="#ArialMT-30" x="197.412109"/>
      </g>
     </g>
    </g>
    <g id="xtick_2">
     <g id="line2d_2">
      <g>
       <use xlink:href="#m5cffeae1a0" x="86.256875" y="276.461437" style="fill: #262626; stroke: #262626"/>
      </g>
     </g>
     <g id="text_2">
      <!-- −0.75 -->
      <g style="fill: #262626" transform="translate(75.124188 291.060312) scale(0.088 -0.088)">
       <defs>
        <path id="ArialMT-37" d="M 303 3981 
L 303 4522 
L 3269 4522 
L 3269 4084 
Q 2831 3619 2401 2847 
Q 1972 2075 1738 1259 
Q 1569 684 1522 0 
L 944 0 
Q 953 541 1156 1306 
Q 1359 2072 1739 2783 
Q 2119 3494 2547 3981 
L 303 3981 
z
" transform="scale(0.015625)"/>
        <path id="ArialMT-35" d="M 266 1200 
L 856 1250 
Q 922 819 1161 601 
Q 1400 384 1738 384 
Q 2144 384 2425 690 
Q 2706 997 2706 1503 
Q 2706 1984 2436 2262 
Q 2166 2541 1728 2541 
Q 1456 2541 1237 2417 
Q 1019 2294 894 2097 
L 366 2166 
L 809 4519 
L 3088 4519 
L 3088 3981 
L 1259 3981 
L 1013 2750 
Q 1425 3038 1878 3038 
Q 2478 3038 2890 2622 
Q 3303 2206 3303 1553 
Q 3303 931 2941 478 
Q 2500 -78 1738 -78 
Q 1113 -78 717 272 
Q 322 622 266 1200 
z
" transform="scale(0.015625)"/>
       </defs>
       <use xlink:href="#ArialMT-2212"/>
       <use xlink:href="#ArialMT-30" x="58.398438"/>
       <use xlink:href="#ArialMT-2e" x="114.013672"/>
       <use xlink:href="#ArialMT-37" x="141.796875"/>
       <use xlink:href="#ArialMT-35" x="197.412109"/>
      </g>
     </g>
    </g>
    <g id="xtick_3">
     <g id="line2d_3">
      <g>
       <use xlink:href="#m5cffeae1a0" x="121.968875" y="276.461437" style="fill: #262626; stroke: #262626"/>
      </g>
     </g>
     <g id="text_3">
      <!-- −0.50 -->
      <g style="fill: #262626" transform="translate(110.836188 291.060312) scale(0.088 -0.088)">
       <use xlink:href="#ArialMT-2212"/>
       <use xlink:href="#ArialMT-30" x="58.398438"/>
       <use xlink:href="#ArialMT-2e" x="114.013672"/>
       <use xlink:href="#ArialMT-35" x="141.796875"/>
       <use xlink:href="#ArialMT-30" x="197.412109"/>
      </g>
     </g>
    </g>
    <g id="xtick_4">
     <g id="line2d_4">
      <g>
       <use xlink:href="#m5cffeae1a0" x="157.680875" y="276.461437" style="fill: #262626; stroke: #262626"/>
      </g>
     </g>
     <g id="text_4">
      <!-- −0.25 -->
      <g style="fill: #262626" transform="translate(146.548188 291.060312) scale(0.088 -0.088)">
       <defs>
        <path id="ArialMT-32" d="M 3222 541 
L 3222 0 
L 194 0 
Q 188 203 259 391 
Q 375 700 629 1000 
Q 884 1300 1366 1694 
Q 2113 2306 2375 2664 
Q 2638 3022 2638 3341 
Q 2638 3675 2398 3904 
Q 2159 4134 1775 4134 
Q 1369 4134 1125 3890 
Q 881 3647 878 3216 
L 300 3275 
Q 359 3922 746 4261 
Q 1134 4600 1788 4600 
Q 2447 4600 2831 4234 
Q 3216 3869 3216 3328 
Q 3216 3053 3103 2787 
Q 2991 2522 2730 2228 
Q 2469 1934 1863 1422 
Q 1356 997 1212 845 
Q 1069 694 975 541 
L 3222 541 
z
" transform="scale(0.015625)"/>
       </defs>
       <use xlink:href="#ArialMT-2212"/>
       <use xlink:href="#ArialMT-30" x="58.398438"/>
       <use xlink:href="#ArialMT-2e" x="114.013672"/>
       <use xlink:href="#ArialMT-32" x="141.796875"/>
       <use xlink:href="#ArialMT-35" x="197.412109"/>
      </g>
     </g>
    </g>
    <g id="xtick_5">
     <g id="line2d_5">
      <g>
       <use xlink:href="#m5cffeae1a0" x="193.392875" y="276.461437" style="fill: #262626; stroke: #262626"/>
      </g>
     </g>
     <g id="text_5">
      <!-- 0.00 -->
      <g style="fill: #262626" transform="translate(184.830063 291.060312) scale(0.088 -0.088)">
       <use xlink:href="#ArialMT-30"/>
       <use xlink:href="#ArialMT-2e" x="55.615234"/>
       <use xlink:href="#ArialMT-30" x="83.398438"/>
       <use xlink:href="#ArialMT-30" x="139.013672"/>
      </g>
     </g>
    </g>
    <g id="xtick_6">
     <g id="line2d_6">
      <g>
       <use xlink:href="#m5cffeae1a0" x="229.104875" y="276.461437" style="fill: #262626; stroke: #262626"/>
      </g>
     </g>
     <g id="text_6">
      <!-- 0.25 -->
      <g style="fill: #262626" transform="translate(220.542063 291.060312) scale(0.088 -0.088)">
       <use xlink:href="#ArialMT-30"/>
       <use xlink:href="#ArialMT-2e" x="55.615234"/>
       <use xlink:href="#ArialMT-32" x="83.398438"/>
       <use xlink:href="#ArialMT-35" x="139.013672"/>
      </g>
     </g>
    </g>
    <g id="xtick_7">
     <g id="line2d_7">
      <g>
       <use xlink:href="#m5cffeae1a0" x="264.816875" y="276.461437" style="fill: #262626; stroke: #262626"/>
      </g>
     </g>
     <g id="text_7">
      <!-- 0.50 -->
      <g style="fill: #262626" transform="translate(256.254063 291.060312) scale(0.088 -0.088)">
       <use xlink:href="#ArialMT-30"/>
       <use xlink:href="#ArialMT-2e" x="55.615234"/>
       <use xlink:href="#ArialMT-35" x="83.398438"/>
       <use xlink:href="#ArialMT-30" x="139.013672"/>
      </g>
     </g>
    </g>
    <g id="xtick_8">
     <g id="line2d_8">
      <g>
       <use xlink:href="#m5cffeae1a0" x="300.528875" y="276.461437" style="fill: #262626; stroke: #262626"/>
      </g>
     </g>
     <g id="text_8">
      <!-- 0.75 -->
      <g style="fill: #262626" transform="translate(291.966063 291.060312) scale(0.088 -0.088)">
       <use xlink:href="#ArialMT-30"/>
       <use xlink:href="#ArialMT-2e" x="55.615234"/>
       <use xlink:href="#ArialMT-37" x="83.398438"/>
       <use xlink:href="#ArialMT-35" x="139.013672"/>
      </g>
     </g>
    </g>
    <g id="xtick_9">
     <g id="line2d_9">
      <g>
       <use xlink:href="#m5cffeae1a0" x="336.240875" y="276.461437" style="fill: #262626; stroke: #262626"/>
      </g>
     </g>
     <g id="text_9">
      <!-- 1.00 -->
      <g style="fill: #262626" transform="translate(327.678063 291.060312) scale(0.088 -0.088)">
       <use xlink:href="#ArialMT-31"/>
       <use xlink:href="#ArialMT-2e" x="55.615234"/>
       <use xlink:href="#ArialMT-30" x="83.398438"/>
       <use xlink:href="#ArialMT-30" x="139.013672"/>
      </g>
     </g>
    </g>
    <g id="text_10">
     <!-- $w_1$ -->
     <g style="fill: #262626" transform="translate(187.152875 303.680812) scale(0.096 -0.096)">
      <defs>
       <path id="DejaVuSans-Oblique-77" d="M 544 3500 
L 1113 3500 
L 1259 684 
L 2566 3500 
L 3231 3500 
L 3425 684 
L 4666 3500 
L 5241 3500 
L 3641 0 
L 2969 0 
L 2797 2900 
L 1459 0 
L 781 0 
L 544 3500 
z
" transform="scale(0.015625)"/>
       <path id="DejaVuSans-31" d="M 794 531 
L 1825 531 
L 1825 4091 
L 703 3866 
L 703 4441 
L 1819 4666 
L 2450 4666 
L 2450 531 
L 3481 531 
L 3481 0 
L 794 0 
L 794 531 
z
" transform="scale(0.015625)"/>
      </defs>
      <use xlink:href="#DejaVuSans-Oblique-77" transform="translate(0 0.3125)"/>
      <use xlink:href="#DejaVuSans-31" transform="translate(81.787109 -16.09375) scale(0.7)"/>
     </g>
    </g>
   </g>
   <g id="matplotlib.axis_2">
    <g id="ytick_1">
     <g id="line2d_10">
      <defs>
       <path id="m444c07d346" d="M 0 0 
L -4.8 0 
" style="stroke: #262626"/>
      </defs>
      <g>
       <use xlink:href="#m444c07d346" x="50.544875" y="276.461437" style="fill: #262626; stroke: #262626"/>
      </g>
     </g>
     <g id="text_11">
      <!-- −1.00 -->
      <g style="fill: #262626" transform="translate(19.9795 279.610875) scale(0.088 -0.088)">
       <use xlink:href="#ArialMT-2212"/>
       <use xlink:href="#ArialMT-31" x="58.398438"/>
       <use xlink:href="#ArialMT-2e" x="114.013672"/>
       <use xlink:href="#ArialMT-30" x="141.796875"/>
       <use xlink:href="#ArialMT-30" x="197.412109"/>
      </g>
     </g>
    </g>
    <g id="ytick_2">
     <g id="line2d_11">
      <g>
       <use xlink:href="#m444c07d346" x="50.544875" y="243.197437" style="fill: #262626; stroke: #262626"/>
      </g>
     </g>
     <g id="text_12">
      <!-- −0.75 -->
      <g style="fill: #262626" transform="translate(19.9795 246.346875) scale(0.088 -0.088)">
       <use xlink:href="#ArialMT-2212"/>
       <use xlink:href="#ArialMT-30" x="58.398438"/>
       <use xlink:href="#ArialMT-2e" x="114.013672"/>
       <use xlink:href="#ArialMT-37" x="141.796875"/>
       <use xlink:href="#ArialMT-35" x="197.412109"/>
      </g>
     </g>
    </g>
    <g id="ytick_3">
     <g id="line2d_12">
      <g>
       <use xlink:href="#m444c07d346" x="50.544875" y="209.933437" style="fill: #262626; stroke: #262626"/>
      </g>
     </g>
     <g id="text_13">
      <!-- −0.50 -->
      <g style="fill: #262626" transform="translate(19.9795 213.082875) scale(0.088 -0.088)">
       <use xlink:href="#ArialMT-2212"/>
       <use xlink:href="#ArialMT-30" x="58.398438"/>
       <use xlink:href="#ArialMT-2e" x="114.013672"/>
       <use xlink:href="#ArialMT-35" x="141.796875"/>
       <use xlink:href="#ArialMT-30" x="197.412109"/>
      </g>
     </g>
    </g>
    <g id="ytick_4">
     <g id="line2d_13">
      <g>
       <use xlink:href="#m444c07d346" x="50.544875" y="176.669437" style="fill: #262626; stroke: #262626"/>
      </g>
     </g>
     <g id="text_14">
      <!-- −0.25 -->
      <g style="fill: #262626" transform="translate(19.9795 179.818875) scale(0.088 -0.088)">
       <use xlink:href="#ArialMT-2212"/>
       <use xlink:href="#ArialMT-30" x="58.398438"/>
       <use xlink:href="#ArialMT-2e" x="114.013672"/>
       <use xlink:href="#ArialMT-32" x="141.796875"/>
       <use xlink:href="#ArialMT-35" x="197.412109"/>
      </g>
     </g>
    </g>
    <g id="ytick_5">
     <g id="line2d_14">
      <g>
       <use xlink:href="#m444c07d346" x="50.544875" y="143.405437" style="fill: #262626; stroke: #262626"/>
      </g>
     </g>
     <g id="text_15">
      <!-- 0.00 -->
      <g style="fill: #262626" transform="translate(25.11925 146.554875) scale(0.088 -0.088)">
       <use xlink:href="#ArialMT-30"/>
       <use xlink:href="#ArialMT-2e" x="55.615234"/>
       <use xlink:href="#ArialMT-30" x="83.398438"/>
       <use xlink:href="#ArialMT-30" x="139.013672"/>
      </g>
     </g>
    </g>
    <g id="ytick_6">
     <g id="line2d_15">
      <g>
       <use xlink:href="#m444c07d346" x="50.544875" y="110.141437" style="fill: #262626; stroke: #262626"/>
      </g>
     </g>
     <g id="text_16">
      <!-- 0.25 -->
      <g style="fill: #262626" transform="translate(25.11925 113.290875) scale(0.088 -0.088)">
       <use xlink:href="#ArialMT-30"/>
       <use xlink:href="#ArialMT-2e" x="55.615234"/>
       <use xlink:href="#ArialMT-32" x="83.398438"/>
       <use xlink:href="#ArialMT-35" x="139.013672"/>
      </g>
     </g>
    </g>
    <g id="ytick_7">
     <g id="line2d_16">
      <g>
       <use xlink:href="#m444c07d346" x="50.544875" y="76.877437" style="fill: #262626; stroke: #262626"/>
      </g>
     </g>
     <g id="text_17">
      <!-- 0.50 -->
      <g style="fill: #262626" transform="translate(25.11925 80.026875) scale(0.088 -0.088)">
       <use xlink:href="#ArialMT-30"/>
       <use xlink:href="#ArialMT-2e" x="55.615234"/>
       <use xlink:href="#ArialMT-35" x="83.398438"/>
       <use xlink:href="#ArialMT-30" x="139.013672"/>
      </g>
     </g>
    </g>
    <g id="ytick_8">
     <g id="line2d_17">
      <g>
       <use xlink:href="#m444c07d346" x="50.544875" y="43.613437" style="fill: #262626; stroke: #262626"/>
      </g>
     </g>
     <g id="text_18">
      <!-- 0.75 -->
      <g style="fill: #262626" transform="translate(25.11925 46.762875) scale(0.088 -0.088)">
       <use xlink:href="#ArialMT-30"/>
       <use xlink:href="#ArialMT-2e" x="55.615234"/>
       <use xlink:href="#ArialMT-37" x="83.398438"/>
       <use xlink:href="#ArialMT-35" x="139.013672"/>
      </g>
     </g>
    </g>
    <g id="ytick_9">
     <g id="line2d_18">
      <g>
       <use xlink:href="#m444c07d346" x="50.544875" y="10.349437" style="fill: #262626; stroke: #262626"/>
      </g>
     </g>
     <g id="text_19">
      <!-- 1.00 -->
      <g style="fill: #262626" transform="translate(25.11925 13.498875) scale(0.088 -0.088)">
       <use xlink:href="#ArialMT-31"/>
       <use xlink:href="#ArialMT-2e" x="55.615234"/>
       <use xlink:href="#ArialMT-30" x="83.398438"/>
       <use xlink:href="#ArialMT-30" x="139.013672"/>
      </g>
     </g>
    </g>
    <g id="text_20">
     <!-- $w_2$ -->
     <g style="fill: #262626" transform="translate(14.0715 149.645437) rotate(-90) scale(0.096 -0.096)">
      <defs>
       <path id="DejaVuSans-32" d="M 1228 531 
L 3431 531 
L 3431 0 
L 469 0 
L 469 531 
Q 828 903 1448 1529 
Q 2069 2156 2228 2338 
Q 2531 2678 2651 2914 
Q 2772 3150 2772 3378 
Q 2772 3750 2511 3984 
Q 2250 4219 1831 4219 
Q 1534 4219 1204 4116 
Q 875 4013 500 3803 
L 500 4441 
Q 881 4594 1212 4672 
Q 1544 4750 1819 4750 
Q 2544 4750 2975 4387 
Q 3406 4025 3406 3419 
Q 3406 3131 3298 2873 
Q 3191 2616 2906 2266 
Q 2828 2175 2409 1742 
Q 1991 1309 1228 531 
z
" transform="scale(0.015625)"/>
      </defs>
      <use xlink:href="#DejaVuSans-Oblique-77" transform="translate(0 0.3125)"/>
      <use xlink:href="#DejaVuSans-32" transform="translate(81.787109 -16.09375) scale(0.7)"/>
     </g>
    </g>
   </g>
   <g id="QuadContourSet_1">
    <path d="M 255.844008 131.002478 
L 254.796374 130.7016 
L 254.408352 130.567874 
L 252.972692 129.832387 
L 252.30809 129.364352 
L 251.537031 128.675151 
L 250.970859 128.027104 
L 250.11618 126.689863 
L 250.101379 126.65643 
L 249.622825 125.352615 
L 249.344273 124.015371 
L 249.250204 122.678122 
L 249.31704 121.340874 
L 249.525061 120.003633 
L 249.85764 118.666381 
L 250.101379 117.943428 
L 250.32144 117.329141 
L 250.916209 115.991892 
L 251.537031 114.788378 
L 251.610424 114.654644 
L 252.457967 113.3174 
L 252.972692 112.584005 
L 253.424168 111.980151 
L 254.408352 110.77663 
L 254.525346 110.642903 
L 255.797695 109.305663 
L 255.844008 109.260568 
L 257.265981 107.96841 
L 257.279669 107.956783 
L 258.715321 106.833277 
L 258.996533 106.63117 
L 260.150981 105.854427 
L 261.064793 105.293922 
L 261.586642 104.99304 
L 263.022298 104.257556 
L 263.697906 103.956673 
L 264.457959 103.638095 
L 265.893624 103.135221 
L 267.329271 102.731814 
L 267.899181 102.619433 
L 268.764936 102.458958 
L 270.200584 102.314369 
L 271.636249 102.302558 
L 273.071914 102.441634 
L 273.90762 102.619433 
L 274.507561 102.77122 
L 275.943226 103.354912 
L 276.968697 103.956673 
L 277.378891 104.257559 
L 278.451307 105.293922 
L 278.814539 105.761949 
L 279.358144 106.63117 
L 279.933262 107.96841 
L 280.250203 109.216517 
L 280.269323 109.305663 
L 280.390563 110.642903 
L 280.355571 111.980151 
L 280.250203 112.782486 
L 280.175379 113.3174 
L 279.849831 114.654644 
L 279.406877 115.991892 
L 278.860051 117.329141 
L 278.814539 117.421081 
L 278.160376 118.666381 
L 277.378891 119.988759 
L 277.369528 120.003633 
L 276.413812 121.340874 
L 275.943226 121.942636 
L 275.329764 122.678122 
L 274.507561 123.586048 
L 274.091036 124.015371 
L 273.071914 124.988944 
L 272.661982 125.352615 
L 271.636249 126.200551 
L 270.995079 126.689863 
L 270.200584 127.257484 
L 269.025573 128.027104 
L 268.764936 128.187575 
L 267.329271 128.975718 
L 266.529779 129.364352 
L 265.893624 129.655397 
L 264.457959 130.214459 
L 263.022298 130.678837 
L 262.926977 130.7016 
L 261.586642 131.002479 
L 260.150981 131.211423 
L 258.715321 131.293184 
L 257.279669 131.230418 
L 255.844008 131.002478 
" clip-path="url(#p22d657713c)" style="fill: none; stroke: #03051a; stroke-width: 1.2"/>
    <path d="M 248.665714 145.568375 
L 247.745957 145.411312 
L 247.230062 145.315506 
L 245.794402 144.953878 
L 244.358741 144.48524 
L 243.340557 144.074064 
L 242.923085 143.888371 
L 241.487424 143.125388 
L 240.865617 142.736815 
L 240.051764 142.168898 
L 239.097832 141.399571 
L 238.616112 140.959761 
L 237.749877 140.062323 
L 237.180447 139.382609 
L 236.688066 138.725074 
L 235.83631 137.387834 
L 235.744795 137.217477 
L 235.176492 136.050582 
L 234.650211 134.713341 
L 234.309134 133.602123 
L 234.245542 133.376093 
L 233.963062 132.038845 
L 233.77505 130.7016 
L 233.6752 129.364352 
L 233.657763 128.027104 
L 233.717472 126.689863 
L 233.849506 125.352615 
L 234.049431 124.015371 
L 234.309134 122.69902 
L 234.313387 122.678122 
L 234.653891 121.340874 
L 235.05317 120.003633 
L 235.507741 118.666381 
L 235.744795 118.047208 
L 236.028131 117.329141 
L 236.611377 115.991892 
L 237.180447 114.787811 
L 237.245332 114.654644 
L 237.954956 113.3174 
L 238.616112 112.145537 
L 238.712338 111.980151 
L 239.545826 110.642903 
L 240.051764 109.873579 
L 240.437047 109.305663 
L 241.391638 107.96841 
L 241.487424 107.841206 
L 242.427689 106.63117 
L 242.923085 106.020577 
L 243.532094 105.293922 
L 244.358741 104.347572 
L 244.711843 103.956673 
L 245.794402 102.804928 
L 245.974911 102.619433 
L 247.230062 101.377982 
L 247.330466 101.282181 
L 248.665714 100.054194 
L 248.789026 99.94494 
L 250.101379 98.822754 
L 250.362821 98.607692 
L 251.537031 97.674344 
L 252.066059 97.270444 
L 252.972692 96.600822 
L 253.915385 95.933199 
L 254.408352 95.595102 
L 255.844008 94.653917 
L 255.937431 94.595951 
L 257.279669 93.789162 
L 258.207095 93.258703 
L 258.715321 92.976822 
L 260.150981 92.227251 
L 260.775993 91.921462 
L 261.586642 91.536749 
L 263.022298 90.901894 
L 263.800509 90.58421 
L 264.457959 90.323796 
L 265.893624 89.805922 
L 267.329271 89.335627 
L 267.637541 89.24697 
L 268.764936 88.932461 
L 270.200584 88.585593 
L 271.636249 88.293916 
L 273.071914 88.060958 
L 274.349111 87.909721 
L 274.507561 87.891539 
L 275.943226 87.793325 
L 277.378891 87.762782 
L 278.814539 87.804373 
L 280.093072 87.909721 
L 280.250203 87.923748 
L 281.685851 88.136906 
L 283.121516 88.444302 
L 284.557181 88.853185 
L 285.654538 89.24697 
L 285.992829 89.380333 
L 287.428493 90.063484 
L 288.345837 90.58421 
L 288.864141 90.91164 
L 290.234508 91.921462 
L 290.299806 91.975704 
L 291.651421 93.258703 
L 291.735471 93.35012 
L 292.753721 94.595951 
L 293.171118 95.193825 
L 293.63572 95.933199 
L 294.340154 97.270444 
L 294.606783 97.887471 
L 294.890446 98.607692 
L 295.308562 99.94494 
L 295.620108 101.282181 
L 295.832601 102.619433 
L 295.952869 103.956673 
L 295.987124 105.293922 
L 295.941036 106.63117 
L 295.819784 107.96841 
L 295.628115 109.305663 
L 295.370379 110.642903 
L 295.050581 111.980151 
L 294.672404 113.3174 
L 294.606783 113.516639 
L 294.220507 114.654644 
L 293.711649 115.991892 
L 293.171118 117.283508 
L 293.151431 117.329141 
L 292.514083 118.666381 
L 291.830921 120.003633 
L 291.735471 120.176404 
L 291.072455 121.340874 
L 290.299806 122.623876 
L 290.266107 122.678122 
L 289.379222 124.015371 
L 288.864141 124.754449 
L 288.433968 125.352615 
L 287.428493 126.6872 
L 287.426421 126.689863 
L 286.331018 128.027104 
L 285.992829 128.423204 
L 285.162508 129.364352 
L 284.557181 130.023744 
L 283.913458 130.7016 
L 283.121516 131.504261 
L 282.575246 132.038845 
L 281.685851 132.877752 
L 281.137964 133.376093 
L 280.250203 134.155404 
L 279.590192 134.713341 
L 278.814539 135.346935 
L 277.918692 136.050582 
L 277.378891 136.460745 
L 276.107982 137.387834 
L 275.943226 137.504223 
L 274.507561 138.470841 
L 274.111251 138.725074 
L 273.071914 139.370973 
L 271.904775 140.062323 
L 271.636249 140.216563 
L 270.200584 140.992454 
L 269.401402 141.399571 
L 268.764936 141.714071 
L 267.329271 142.376152 
L 266.486961 142.736815 
L 265.893624 142.983326 
L 264.457959 143.529284 
L 263.022298 144.028826 
L 262.87531 144.074064 
L 261.586642 144.45877 
L 260.150981 144.835729 
L 258.715321 145.158746 
L 257.348879 145.411312 
L 257.279669 145.423717 
L 255.844008 145.617667 
L 254.408352 145.749402 
L 252.972692 145.814908 
L 251.537031 145.809817 
L 250.101379 145.729373 
L 248.665714 145.568375 
z
" clip-path="url(#p22d657713c)" style="fill: none; stroke: #841e5a; stroke-width: 1.2"/>
    <path d="M 242.923085 154.783029 
L 240.051764 154.161196 
L 237.180447 153.213823 
L 234.309134 151.839883 
L 232.593244 150.760293 
L 230.876741 149.423045 
L 229.472541 148.085805 
L 228.302501 146.748552 
L 227.130844 145.115248 
L 225.808022 142.736815 
L 225.236995 141.399571 
L 224.373519 138.725074 
L 223.852528 136.050582 
L 223.612758 133.376093 
L 223.622122 130.7016 
L 223.857075 128.027104 
L 224.298425 125.352615 
L 224.949047 122.678122 
L 225.778268 120.003633 
L 227.130844 116.559905 
L 228.566505 113.527023 
L 230.1549 110.642903 
L 231.829815 107.96841 
L 234.309134 104.484927 
L 236.908067 101.282181 
L 239.345545 98.607692 
L 242.049054 95.933199 
L 245.064661 93.258703 
L 248.449713 90.58421 
L 251.537031 88.420491 
L 254.471314 86.572473 
L 258.715321 84.256785 
L 262.39396 82.56074 
L 265.893624 81.202155 
L 270.201107 79.886243 
L 273.071914 79.234332 
L 275.943226 78.754528 
L 278.814539 78.467405 
L 281.685851 78.3891 
L 284.709224 78.548999 
L 287.428493 78.936826 
L 290.299806 79.627864 
L 291.735471 80.101325 
L 294.606783 81.356648 
L 296.642243 82.56074 
L 298.442435 83.89798 
L 299.902291 85.235229 
L 301.10998 86.572473 
L 302.125649 87.909721 
L 303.220738 89.678377 
L 304.290958 91.921462 
L 304.78889 93.258703 
L 305.501579 95.933199 
L 305.912516 98.607692 
L 306.052376 101.282181 
L 305.947808 103.956673 
L 305.622087 106.63117 
L 305.095617 109.305663 
L 304.375908 111.980151 
L 303.220738 115.290869 
L 301.785073 118.615943 
L 301.093674 120.003633 
L 299.631173 122.678122 
L 297.478096 126.105447 
L 295.124993 129.364352 
L 292.95632 132.038845 
L 290.299806 134.971716 
L 287.428493 137.802105 
L 284.557181 140.342197 
L 281.543688 142.736815 
L 277.729326 145.411312 
L 274.507561 147.394588 
L 270.733203 149.423045 
L 267.329271 150.992427 
L 264.457959 152.129345 
L 260.150981 153.508561 
L 257.279669 154.206423 
L 254.13293 154.772034 
L 251.537031 155.065351 
L 248.665714 155.196634 
L 245.794402 155.110168 
L 242.923085 154.783029 
L 242.923085 154.783029 
" clip-path="url(#p22d657713c)" style="fill: none; stroke: #f06043; stroke-width: 1.2"/>
    <path d="M 235.744795 161.600345 
L 232.873474 160.73176 
L 230.002157 159.541612 
L 228.523922 158.783771 
L 225.695184 156.954644 
L 224.259528 155.80697 
L 222.823867 154.460935 
L 221.388207 152.860236 
L 219.84275 150.760293 
L 218.329 148.085805 
L 217.081238 145.03675 
L 216.414434 142.736815 
L 215.887736 140.062323 
L 215.601327 137.387834 
L 215.534142 134.713341 
L 215.661255 132.038845 
L 215.976786 129.364352 
L 216.462431 126.689863 
L 217.106051 124.015371 
L 218.378645 120.003633 
L 219.423042 117.329141 
L 220.617956 114.654644 
L 221.966284 111.980151 
L 224.277423 107.96841 
L 227.130844 103.722898 
L 230.033011 99.94494 
L 232.873474 96.659702 
L 236.144506 93.258703 
L 238.990806 90.58421 
L 242.923085 87.26048 
L 245.794402 85.068241 
L 250.101379 82.124965 
L 253.811523 79.886243 
L 257.279669 78.026471 
L 261.586642 76.014216 
L 265.322212 74.537262 
L 268.764936 73.385015 
L 271.636249 72.587482 
L 275.943226 71.661695 
L 278.814539 71.241025 
L 281.685851 70.9794 
L 284.557181 70.890164 
L 287.428493 70.988204 
L 290.299806 71.290164 
L 293.369586 71.862773 
L 296.042448 72.612432 
L 298.913761 73.714718 
L 301.785073 75.200656 
L 303.220738 76.117745 
L 304.696747 77.211751 
L 306.225166 78.548999 
L 307.530796 79.886243 
L 308.963363 81.646823 
L 310.451639 83.89798 
L 311.834676 86.659928 
L 312.776748 89.24697 
L 313.463188 91.921462 
L 313.88398 94.595951 
L 314.078943 97.270444 
L 314.066627 99.94494 
L 313.86361 102.619433 
L 313.484748 105.293922 
L 312.93271 107.96841 
L 311.80725 111.980151 
L 310.325932 115.991892 
L 308.495602 120.003633 
L 306.322927 124.015371 
L 304.656386 126.722331 
L 301.785073 130.845498 
L 298.708079 134.713341 
L 296.042448 137.709701 
L 293.171118 140.639794 
L 290.299806 143.309419 
L 287.428493 145.751841 
L 284.430255 148.085805 
L 280.250203 151.000786 
L 275.943226 153.635859 
L 271.636249 155.922202 
L 268.337651 157.446523 
L 264.457959 158.999965 
L 260.150981 160.416024 
L 255.844008 161.509421 
L 251.537031 162.256678 
L 248.665714 162.561319 
L 245.794402 162.695973 
L 242.923085 162.645968 
L 240.051764 162.39489 
L 237.180447 161.924319 
L 235.744795 161.600345 
L 235.744795 161.600345 
" clip-path="url(#p22d657713c)" style="fill: none; stroke: #faebdd; stroke-width: 1.2"/>
   </g>
   <g id="QuadContourSet_2">
    <path clip-path="url(#p22d657713c)" style="fill: none; stroke: #000000; stroke-width: 1.2"/>
    <path d="M 192.675043 186.645291 
L 146.970867 144.074064 
L 146.970863 142.736815 
L 192.675043 100.165584 
L 194.110703 100.16558 
L 239.814887 142.736815 
L 239.814883 144.074064 
L 194.110703 186.645295 
L 192.675043 186.645291 
L 192.675043 186.645291 
" clip-path="url(#p22d657713c)" style="fill: none; stroke: #000000; stroke-width: 1.2"/>
   </g>
   <g id="patch_3">
    <path d="M 50.544875 276.461437 
L 50.544875 10.349437 
" style="fill: none; stroke: #262626; stroke-linejoin: miter; stroke-linecap: square"/>
   </g>
   <g id="patch_4">
    <path d="M 50.544875 276.461437 
L 336.240875 276.461437 
" style="fill: none; stroke: #262626; stroke-linejoin: miter; stroke-linecap: square"/>
   </g>
  </g>
  <g id="axes_2">
   <g id="patch_5">
    <path d="M 354.096875 276.461437 
L 367.402475 276.461437 
L 367.402475 10.349437 
L 354.096875 10.349437 
z
" style="fill: #ffffff"/>
   </g>
   <g id="matplotlib.axis_3"/>
   <g id="matplotlib.axis_4">
    <g id="ytick_10">
     <g id="line2d_19">
      <defs>
       <path id="m489da0f1dc" d="M 0 0 
L 4.8 0 
" style="stroke: #262626"/>
      </defs>
      <g>
       <use xlink:href="#m489da0f1dc" x="367.402475" y="276.461437" style="fill: #262626; stroke: #262626"/>
      </g>
     </g>
     <g id="text_21">
      <!-- 0.01 -->
      <g style="fill: #262626" transform="translate(375.702475 279.610875) scale(0.088 -0.088)">
       <use xlink:href="#ArialMT-30"/>
       <use xlink:href="#ArialMT-2e" x="55.615234"/>
       <use xlink:href="#ArialMT-30" x="83.398438"/>
       <use xlink:href="#ArialMT-31" x="139.013672"/>
      </g>
     </g>
    </g>
    <g id="ytick_11">
     <g id="line2d_20">
      <g>
       <use xlink:href="#m489da0f1dc" x="367.402475" y="187.757437" style="fill: #262626; stroke: #262626"/>
      </g>
     </g>
     <g id="text_22">
      <!-- 0.04 -->
      <g style="fill: #262626" transform="translate(375.702475 190.906875) scale(0.088 -0.088)">
       <defs>
        <path id="ArialMT-34" d="M 2069 0 
L 2069 1097 
L 81 1097 
L 81 1613 
L 2172 4581 
L 2631 4581 
L 2631 1613 
L 3250 1613 
L 3250 1097 
L 2631 1097 
L 2631 0 
L 2069 0 
z
M 2069 1613 
L 2069 3678 
L 634 1613 
L 2069 1613 
z
" transform="scale(0.015625)"/>
       </defs>
       <use xlink:href="#ArialMT-30"/>
       <use xlink:href="#ArialMT-2e" x="55.615234"/>
       <use xlink:href="#ArialMT-30" x="83.398438"/>
       <use xlink:href="#ArialMT-34" x="139.013672"/>
      </g>
     </g>
    </g>
    <g id="ytick_12">
     <g id="line2d_21">
      <g>
       <use xlink:href="#m489da0f1dc" x="367.402475" y="99.053437" style="fill: #262626; stroke: #262626"/>
      </g>
     </g>
     <g id="text_23">
      <!-- 0.07 -->
      <g style="fill: #262626" transform="translate(375.702475 102.202875) scale(0.088 -0.088)">
       <use xlink:href="#ArialMT-30"/>
       <use xlink:href="#ArialMT-2e" x="55.615234"/>
       <use xlink:href="#ArialMT-30" x="83.398438"/>
       <use xlink:href="#ArialMT-37" x="139.013672"/>
      </g>
     </g>
    </g>
    <g id="ytick_13">
     <g id="line2d_22">
      <g>
       <use xlink:href="#m489da0f1dc" x="367.402475" y="10.349437" style="fill: #262626; stroke: #262626"/>
      </g>
     </g>
     <g id="text_24">
      <!-- 0.10 -->
      <g style="fill: #262626" transform="translate(375.702475 13.498875) scale(0.088 -0.088)">
       <use xlink:href="#ArialMT-30"/>
       <use xlink:href="#ArialMT-2e" x="55.615234"/>
       <use xlink:href="#ArialMT-31" x="83.398438"/>
       <use xlink:href="#ArialMT-30" x="139.013672"/>
      </g>
     </g>
    </g>
   </g>
   <g id="LineCollection_1"/>
   <g id="LineCollection_2">
    <path d="M 354.096875 276.461437 
L 367.402475 276.461437 
" clip-path="url(#p3bdc91c77d)" style="fill: none; stroke: #03051a; stroke-width: 1.2"/>
    <path d="M 354.096875 187.757437 
L 367.402475 187.757437 
" clip-path="url(#p3bdc91c77d)" style="fill: none; stroke: #841e5a; stroke-width: 1.2"/>
    <path d="M 354.096875 99.053437 
L 367.402475 99.053437 
" clip-path="url(#p3bdc91c77d)" style="fill: none; stroke: #f06043; stroke-width: 1.2"/>
    <path d="M 354.096875 10.349437 
L 367.402475 10.349437 
" clip-path="url(#p3bdc91c77d)" style="fill: none; stroke: #faebdd; stroke-width: 1.2"/>
   </g>
   <g id="patch_6">
    <path d="M 354.096875 276.461437 
L 354.096875 10.349437 
" style="fill: none; stroke: #262626; stroke-linejoin: miter; stroke-linecap: square"/>
   </g>
   <g id="patch_7">
    <path d="M 354.096875 276.461437 
L 367.402475 276.461437 
" style="fill: none; stroke: #262626; stroke-linejoin: miter; stroke-linecap: square"/>
   </g>
   <g id="patch_8">
    <path d="M 354.096875 276.461437 
L 360.749675 276.461437 
L 367.402475 276.461437 
L 367.402475 10.349437 
L 360.749675 10.349437 
L 354.096875 10.349437 
L 354.096875 276.461437 
z
" style="fill: none; stroke: #262626; stroke-linejoin: miter; stroke-linecap: square"/>
   </g>
  </g>
 </g>
 <defs>
  <clipPath id="p22d657713c">
   <rect x="50.544875" y="10.349437" width="285.696" height="266.112"/>
  </clipPath>
  <clipPath id="p3bdc91c77d">
   <path d="M 354.096875 277.661437 
L 367.402475 277.661437 
L 367.402475 9.149437 
L 354.096875 9.149437 
z
"/>
  </clipPath>
 </defs>
</svg>