<?xml version="1.0" encoding="utf-8" standalone="no"?>
<!DOCTYPE svg PUBLIC "-//W3C//DTD SVG 1.1//EN"
  "http://www.w3.org/Graphics/SVG/1.1/DTD/svg11.dtd">
<svg xmlns:xlink="http://www.w3.org/1999/xlink" width="229.248pt" height="132.831562pt" viewBox="0 0 229.248 132.831562" xmlns="http://www.w3.org/2000/svg" version="1.1">
 <metadata>
  <rdf:RDF xmlns:dc="http://purl.org/dc/elements/1.1/" xmlns:cc="http://creativecommons.org/ns#" xmlns:rdf="http://www.w3.org/1999/02/22-rdf-syntax-ns#">
   <cc:Work>
    <dc:type rdf:resource="http://purl.org/dc/dcmitype/StillImage"/>
    <dc:date>2024-10-11T13:26:53.899164</dc:date>
    <dc:format>image/svg+xml</dc:format>
    <dc:creator>
     <cc:Agent>
      <dc:title>Matplotlib v3.9.0, https://matplotlib.org/</dc:title>
     </cc:Agent>
    </dc:creator>
   </cc:Work>
  </rdf:RDF>
 </metadata>
 <defs>
  <style type="text/css">*{stroke-linejoin: round; stroke-linecap: butt}</style>
 </defs>
 <g id="figure_1">
  <g id="patch_1">
   <path d="M 0 132.831563 
L 229.248 132.831563 
L 229.248 0 
L 0 0 
z
" style="fill: #ffffff"/>
  </g>
  <g id="patch_2">
   <path d="M 7.2 125.631562 
L 109.44 125.631562 
L 109.44 23.391562 
L 7.2 23.391562 
z
" style="fill: #f5f5f5"/>
  </g>
  <g id="axes_1">
   <g id="Path3DCollection_1">
    <defs>
     <path id="C0_0_842a8900b3" d="M 0 5 
C 1.326016 5 2.597899 4.473168 3.535534 3.535534 
C 4.473168 2.597899 5 1.326016 5 -0 
C 5 -1.326016 4.473168 -2.597899 3.535534 -3.535534 
C 2.597899 -4.473168 1.326016 -5 0 -5 
C -1.326016 -5 -2.597899 -4.473168 -3.535534 -3.535534 
C -4.473168 -2.597899 -5 -1.326016 -5 0 
C -5 1.326016 -4.473168 2.597899 -3.535534 3.535534 
C -2.597899 4.473168 -1.326016 5 0 5 
z
"/>
    </defs>
    <g clip-path="url(#pd373b5e709)">
     <use xlink:href="#C0_0_842a8900b3" x="45.862178" y="92.922144" style="fill: #8b0000; fill-opacity: 0.3; stroke: #000000; stroke-opacity: 0.3; stroke-width: 0.8"/>
    </g>
    <g clip-path="url(#pd373b5e709)">
     <use xlink:href="#C0_0_842a8900b3" x="45.653781" y="70.355978" style="fill: #8b0000; fill-opacity: 0.540387; stroke: #000000; stroke-opacity: 0.540387; stroke-width: 0.8"/>
    </g>
    <g clip-path="url(#pd373b5e709)">
     <use xlink:href="#C0_0_842a8900b3" x="45.439012" y="47.099811" style="fill: #8b0000; fill-opacity: 0.788125; stroke: #000000; stroke-opacity: 0.788125; stroke-width: 0.8"/>
    </g>
    <g clip-path="url(#pd373b5e709)">
     <use xlink:href="#C0_0_842a8900b3" x="74.14791" y="75.982583" style="fill: #8b0000; stroke: #000000; stroke-width: 0.8"/>
    </g>
   </g>
   <g id="line2d_1">
    <path d="M 45.862178 92.922144 
L 45.653781 70.355978 
" clip-path="url(#pd373b5e709)" style="fill: none; stroke: #000080; stroke-width: 2; stroke-linecap: round"/>
   </g>
   <g id="line2d_2">
    <path d="M 45.653781 70.355978 
L 45.862178 92.922144 
" clip-path="url(#pd373b5e709)" style="fill: none; stroke: #000080; stroke-width: 2; stroke-linecap: round"/>
   </g>
   <g id="line2d_3">
    <path d="M 45.653781 70.355978 
L 45.439012 47.099811 
" clip-path="url(#pd373b5e709)" style="fill: none; stroke: #000080; stroke-width: 2; stroke-linecap: round"/>
   </g>
   <g id="line2d_4">
    <path d="M 45.653781 70.355978 
L 74.14791 75.982583 
" clip-path="url(#pd373b5e709)" style="fill: none; stroke: #000080; stroke-width: 2; stroke-linecap: round"/>
   </g>
   <g id="line2d_5">
    <path d="M 45.439012 47.099811 
L 45.653781 70.355978 
" clip-path="url(#pd373b5e709)" style="fill: none; stroke: #000080; stroke-width: 2; stroke-linecap: round"/>
   </g>
   <g id="line2d_6">
    <path d="M 74.14791 75.982583 
L 45.653781 70.355978 
" clip-path="url(#pd373b5e709)" style="fill: none; stroke: #000080; stroke-width: 2; stroke-linecap: round"/>
   </g>
   <g id="text_1">
    <!-- Original -->
    <g style="fill: #262626" transform="translate(31.873125 17.391562) scale(0.14 -0.14)">
     <defs>
      <path id="Arial-BoldMT-4f" d="M 278 2263 
Q 278 2963 488 3438 
Q 644 3788 914 4066 
Q 1184 4344 1506 4478 
Q 1934 4659 2494 4659 
Q 3506 4659 4114 4031 
Q 4722 3403 4722 2284 
Q 4722 1175 4119 548 
Q 3516 -78 2506 -78 
Q 1484 -78 881 545 
Q 278 1169 278 2263 
z
M 1231 2294 
Q 1231 1516 1590 1114 
Q 1950 713 2503 713 
Q 3056 713 3411 1111 
Q 3766 1509 3766 2306 
Q 3766 3094 3420 3481 
Q 3075 3869 2503 3869 
Q 1931 3869 1581 3476 
Q 1231 3084 1231 2294 
z
" transform="scale(0.015625)"/>
      <path id="Arial-BoldMT-72" d="M 1300 0 
L 422 0 
L 422 3319 
L 1238 3319 
L 1238 2847 
Q 1447 3181 1614 3287 
Q 1781 3394 1994 3394 
Q 2294 3394 2572 3228 
L 2300 2463 
Q 2078 2606 1888 2606 
Q 1703 2606 1575 2504 
Q 1447 2403 1373 2137 
Q 1300 1872 1300 1025 
L 1300 0 
z
" transform="scale(0.015625)"/>
      <path id="Arial-BoldMT-69" d="M 459 3769 
L 459 4581 
L 1338 4581 
L 1338 3769 
L 459 3769 
z
M 459 0 
L 459 3319 
L 1338 3319 
L 1338 0 
L 459 0 
z
" transform="scale(0.015625)"/>
      <path id="Arial-BoldMT-67" d="M 378 -219 
L 1381 -341 
Q 1406 -516 1497 -581 
Q 1622 -675 1891 -675 
Q 2234 -675 2406 -572 
Q 2522 -503 2581 -350 
Q 2622 -241 2622 53 
L 2622 538 
Q 2228 0 1628 0 
Q 959 0 569 566 
Q 263 1013 263 1678 
Q 263 2513 664 2953 
Q 1066 3394 1663 3394 
Q 2278 3394 2678 2853 
L 2678 3319 
L 3500 3319 
L 3500 341 
Q 3500 -247 3403 -537 
Q 3306 -828 3131 -993 
Q 2956 -1159 2664 -1253 
Q 2372 -1347 1925 -1347 
Q 1081 -1347 728 -1058 
Q 375 -769 375 -325 
Q 375 -281 378 -219 
z
M 1163 1728 
Q 1163 1200 1367 954 
Q 1572 709 1872 709 
Q 2194 709 2416 961 
Q 2638 1213 2638 1706 
Q 2638 2222 2425 2472 
Q 2213 2722 1888 2722 
Q 1572 2722 1367 2476 
Q 1163 2231 1163 1728 
z
" transform="scale(0.015625)"/>
      <path id="Arial-BoldMT-6e" d="M 3478 0 
L 2600 0 
L 2600 1694 
Q 2600 2231 2544 2389 
Q 2488 2547 2361 2634 
Q 2234 2722 2056 2722 
Q 1828 2722 1647 2597 
Q 1466 2472 1398 2265 
Q 1331 2059 1331 1503 
L 1331 0 
L 453 0 
L 453 3319 
L 1269 3319 
L 1269 2831 
Q 1703 3394 2363 3394 
Q 2653 3394 2893 3289 
Q 3134 3184 3257 3021 
Q 3381 2859 3429 2653 
Q 3478 2447 3478 2063 
L 3478 0 
z
" transform="scale(0.015625)"/>
      <path id="Arial-BoldMT-61" d="M 1116 2306 
L 319 2450 
Q 453 2931 781 3162 
Q 1109 3394 1756 3394 
Q 2344 3394 2631 3255 
Q 2919 3116 3036 2902 
Q 3153 2688 3153 2116 
L 3144 1091 
Q 3144 653 3186 445 
Q 3228 238 3344 0 
L 2475 0 
Q 2441 88 2391 259 
Q 2369 338 2359 363 
Q 2134 144 1878 34 
Q 1622 -75 1331 -75 
Q 819 -75 523 203 
Q 228 481 228 906 
Q 228 1188 362 1408 
Q 497 1628 739 1745 
Q 981 1863 1438 1950 
Q 2053 2066 2291 2166 
L 2291 2253 
Q 2291 2506 2166 2614 
Q 2041 2722 1694 2722 
Q 1459 2722 1328 2630 
Q 1197 2538 1116 2306 
z
M 2291 1594 
Q 2122 1538 1756 1459 
Q 1391 1381 1278 1306 
Q 1106 1184 1106 997 
Q 1106 813 1243 678 
Q 1381 544 1594 544 
Q 1831 544 2047 700 
Q 2206 819 2256 991 
Q 2291 1103 2291 1419 
L 2291 1594 
z
" transform="scale(0.015625)"/>
      <path id="Arial-BoldMT-6c" d="M 459 0 
L 459 4581 
L 1338 4581 
L 1338 0 
L 459 0 
z
" transform="scale(0.015625)"/>
     </defs>
     <use xlink:href="#Arial-BoldMT-4f"/>
     <use xlink:href="#Arial-BoldMT-72" x="77.783203"/>
     <use xlink:href="#Arial-BoldMT-69" x="116.699219"/>
     <use xlink:href="#Arial-BoldMT-67" x="144.482422"/>
     <use xlink:href="#Arial-BoldMT-69" x="205.566406"/>
     <use xlink:href="#Arial-BoldMT-6e" x="233.349609"/>
     <use xlink:href="#Arial-BoldMT-61" x="294.433594"/>
     <use xlink:href="#Arial-BoldMT-6c" x="350.048828"/>
    </g>
   </g>
  </g>
  <g id="patch_3">
   <path d="M 119.808 125.631562 
L 222.048 125.631562 
L 222.048 23.391562 
L 119.808 23.391562 
z
" style="fill: #f5f5f5"/>
  </g>
  <g id="axes_2">
   <g id="Path3DCollection_2">
    <defs>
     <path id="C1_0_072e507ded" d="M 0 5 
C 1.326016 5 2.597899 4.473168 3.535534 3.535534 
C 4.473168 2.597899 5 1.326016 5 -0 
C 5 -1.326016 4.473168 -2.597899 3.535534 -3.535534 
C 2.597899 -4.473168 1.326016 -5 0 -5 
C -1.326016 -5 -2.597899 -4.473168 -3.535534 -3.535534 
C -4.473168 -2.597899 -5 -1.326016 -5 0 
C -5 1.326016 -4.473168 2.597899 -3.535534 3.535534 
C -2.597899 4.473168 -1.326016 5 0 5 
z
"/>
    </defs>
    <g clip-path="url(#pdd4e16b4a4)">
     <use xlink:href="#C1_0_072e507ded" x="158.261781" y="70.355978" style="fill: #8b0000; fill-opacity: 0.3; stroke: #000000; stroke-opacity: 0.3; stroke-width: 0.8"/>
    </g>
    <g clip-path="url(#pdd4e16b4a4)">
     <use xlink:href="#C1_0_072e507ded" x="186.535617" y="99.093247" style="fill: #8b0000; fill-opacity: 0.499319; stroke: #000000; stroke-opacity: 0.499319; stroke-width: 0.8"/>
    </g>
    <g clip-path="url(#pdd4e16b4a4)">
     <use xlink:href="#C1_0_072e507ded" x="186.75591" y="75.982583" style="fill: #8b0000; fill-opacity: 0.745783; stroke: #000000; stroke-opacity: 0.745783; stroke-width: 0.8"/>
    </g>
    <g clip-path="url(#pdd4e16b4a4)">
     <use xlink:href="#C1_0_072e507ded" x="186.983134" y="52.144911" style="fill: #8b0000; stroke: #000000; stroke-width: 0.8"/>
    </g>
   </g>
   <g id="line2d_7">
    <path d="M 186.535617 99.093247 
L 186.75591 75.982583 
" clip-path="url(#pdd4e16b4a4)" style="fill: none; stroke: #000080; stroke-width: 2; stroke-linecap: round"/>
   </g>
   <g id="line2d_8">
    <path d="M 186.75591 75.982583 
L 186.535617 99.093247 
" clip-path="url(#pdd4e16b4a4)" style="fill: none; stroke: #000080; stroke-width: 2; stroke-linecap: round"/>
   </g>
   <g id="line2d_9">
    <path d="M 186.75591 75.982583 
L 186.983134 52.144911 
" clip-path="url(#pdd4e16b4a4)" style="fill: none; stroke: #000080; stroke-width: 2; stroke-linecap: round"/>
   </g>
   <g id="line2d_10">
    <path d="M 186.75591 75.982583 
L 158.261781 70.355978 
" clip-path="url(#pdd4e16b4a4)" style="fill: none; stroke: #000080; stroke-width: 2; stroke-linecap: round"/>
   </g>
   <g id="line2d_11">
    <path d="M 186.983134 52.144911 
L 186.75591 75.982583 
" clip-path="url(#pdd4e16b4a4)" style="fill: none; stroke: #000080; stroke-width: 2; stroke-linecap: round"/>
   </g>
   <g id="line2d_12">
    <path d="M 158.261781 70.355978 
L 186.75591 75.982583 
" clip-path="url(#pdd4e16b4a4)" style="fill: none; stroke: #000080; stroke-width: 2; stroke-linecap: round"/>
   </g>
   <g id="text_2">
    <!-- Transformed -->
    <g style="fill: #262626" transform="translate(128.528781 17.391562) scale(0.14 -0.14)">
     <defs>
      <path id="Arial-BoldMT-54" d="M 1497 0 
L 1497 3806 
L 138 3806 
L 138 4581 
L 3778 4581 
L 3778 3806 
L 2422 3806 
L 2422 0 
L 1497 0 
z
" transform="scale(0.015625)"/>
      <path id="Arial-BoldMT-73" d="M 150 947 
L 1031 1081 
Q 1088 825 1259 692 
Q 1431 559 1741 559 
Q 2081 559 2253 684 
Q 2369 772 2369 919 
Q 2369 1019 2306 1084 
Q 2241 1147 2013 1200 
Q 950 1434 666 1628 
Q 272 1897 272 2375 
Q 272 2806 612 3100 
Q 953 3394 1669 3394 
Q 2350 3394 2681 3172 
Q 3013 2950 3138 2516 
L 2309 2363 
Q 2256 2556 2107 2659 
Q 1959 2763 1684 2763 
Q 1338 2763 1188 2666 
Q 1088 2597 1088 2488 
Q 1088 2394 1175 2328 
Q 1294 2241 1995 2081 
Q 2697 1922 2975 1691 
Q 3250 1456 3250 1038 
Q 3250 581 2869 253 
Q 2488 -75 1741 -75 
Q 1063 -75 667 200 
Q 272 475 150 947 
z
" transform="scale(0.015625)"/>
      <path id="Arial-BoldMT-66" d="M 75 3319 
L 563 3319 
L 563 3569 
Q 563 3988 652 4194 
Q 741 4400 980 4529 
Q 1219 4659 1584 4659 
Q 1959 4659 2319 4547 
L 2200 3934 
Q 1991 3984 1797 3984 
Q 1606 3984 1523 3895 
Q 1441 3806 1441 3553 
L 1441 3319 
L 2097 3319 
L 2097 2628 
L 1441 2628 
L 1441 0 
L 563 0 
L 563 2628 
L 75 2628 
L 75 3319 
z
" transform="scale(0.015625)"/>
      <path id="Arial-BoldMT-6f" d="M 256 1706 
Q 256 2144 472 2553 
Q 688 2963 1083 3178 
Q 1478 3394 1966 3394 
Q 2719 3394 3200 2905 
Q 3681 2416 3681 1669 
Q 3681 916 3195 420 
Q 2709 -75 1972 -75 
Q 1516 -75 1102 131 
Q 688 338 472 736 
Q 256 1134 256 1706 
z
M 1156 1659 
Q 1156 1166 1390 903 
Q 1625 641 1969 641 
Q 2313 641 2545 903 
Q 2778 1166 2778 1666 
Q 2778 2153 2545 2415 
Q 2313 2678 1969 2678 
Q 1625 2678 1390 2415 
Q 1156 2153 1156 1659 
z
" transform="scale(0.015625)"/>
      <path id="Arial-BoldMT-6d" d="M 394 3319 
L 1203 3319 
L 1203 2866 
Q 1638 3394 2238 3394 
Q 2556 3394 2790 3262 
Q 3025 3131 3175 2866 
Q 3394 3131 3647 3262 
Q 3900 3394 4188 3394 
Q 4553 3394 4806 3245 
Q 5059 3097 5184 2809 
Q 5275 2597 5275 2122 
L 5275 0 
L 4397 0 
L 4397 1897 
Q 4397 2391 4306 2534 
Q 4184 2722 3931 2722 
Q 3747 2722 3584 2609 
Q 3422 2497 3350 2280 
Q 3278 2063 3278 1594 
L 3278 0 
L 2400 0 
L 2400 1819 
Q 2400 2303 2353 2443 
Q 2306 2584 2207 2653 
Q 2109 2722 1941 2722 
Q 1738 2722 1575 2612 
Q 1413 2503 1342 2297 
Q 1272 2091 1272 1613 
L 1272 0 
L 394 0 
L 394 3319 
z
" transform="scale(0.015625)"/>
      <path id="Arial-BoldMT-65" d="M 2381 1056 
L 3256 909 
Q 3088 428 2723 176 
Q 2359 -75 1813 -75 
Q 947 -75 531 491 
Q 203 944 203 1634 
Q 203 2459 634 2926 
Q 1066 3394 1725 3394 
Q 2466 3394 2894 2905 
Q 3322 2416 3303 1406 
L 1103 1406 
Q 1113 1016 1316 798 
Q 1519 581 1822 581 
Q 2028 581 2168 693 
Q 2309 806 2381 1056 
z
M 2431 1944 
Q 2422 2325 2234 2523 
Q 2047 2722 1778 2722 
Q 1491 2722 1303 2513 
Q 1116 2303 1119 1944 
L 2431 1944 
z
" transform="scale(0.015625)"/>
      <path id="Arial-BoldMT-64" d="M 3503 0 
L 2688 0 
L 2688 488 
Q 2484 203 2207 64 
Q 1931 -75 1650 -75 
Q 1078 -75 670 386 
Q 263 847 263 1672 
Q 263 2516 659 2955 
Q 1056 3394 1663 3394 
Q 2219 3394 2625 2931 
L 2625 4581 
L 3503 4581 
L 3503 0 
z
M 1159 1731 
Q 1159 1200 1306 963 
Q 1519 619 1900 619 
Q 2203 619 2415 876 
Q 2628 1134 2628 1647 
Q 2628 2219 2422 2470 
Q 2216 2722 1894 2722 
Q 1581 2722 1370 2473 
Q 1159 2225 1159 1731 
z
" transform="scale(0.015625)"/>
     </defs>
     <use xlink:href="#Arial-BoldMT-54"/>
     <use xlink:href="#Arial-BoldMT-72" x="55.583984"/>
     <use xlink:href="#Arial-BoldMT-61" x="94.5"/>
     <use xlink:href="#Arial-BoldMT-6e" x="150.115234"/>
     <use xlink:href="#Arial-BoldMT-73" x="211.199219"/>
     <use xlink:href="#Arial-BoldMT-66" x="266.814453"/>
     <use xlink:href="#Arial-BoldMT-6f" x="300.115234"/>
     <use xlink:href="#Arial-BoldMT-72" x="361.199219"/>
     <use xlink:href="#Arial-BoldMT-6d" x="400.115234"/>
     <use xlink:href="#Arial-BoldMT-65" x="489.03125"/>
     <use xlink:href="#Arial-BoldMT-64" x="544.646484"/>
    </g>
   </g>
  </g>
 </g>
 <defs>
  <clipPath id="pd373b5e709">
   <rect x="7.2" y="23.391562" width="102.24" height="102.24"/>
  </clipPath>
  <clipPath id="pdd4e16b4a4">
   <rect x="119.808" y="23.391562" width="102.24" height="102.24"/>
  </clipPath>
 </defs>
</svg>