<?xml version="1.0" encoding="utf-8" standalone="no"?>
<!DOCTYPE svg PUBLIC "-//W3C//DTD SVG 1.1//EN"
  "http://www.w3.org/Graphics/SVG/1.1/DTD/svg11.dtd">
<svg xmlns:xlink="http://www.w3.org/1999/xlink" width="220.130514pt" height="167.395875pt" viewBox="0 0 220.130514 167.395875" xmlns="http://www.w3.org/2000/svg" version="1.1">
 <metadata>
  <rdf:RDF xmlns:dc="http://purl.org/dc/elements/1.1/" xmlns:cc="http://creativecommons.org/ns#" xmlns:rdf="http://www.w3.org/1999/02/22-rdf-syntax-ns#">
   <cc:Work>
    <dc:type rdf:resource="http://purl.org/dc/dcmitype/StillImage"/>
    <dc:date>2025-04-08T16:32:22.961074</dc:date>
    <dc:format>image/svg+xml</dc:format>
    <dc:creator>
     <cc:Agent>
      <dc:title>Matplotlib v3.10.1, https://matplotlib.org/</dc:title>
     </cc:Agent>
    </dc:creator>
   </cc:Work>
  </rdf:RDF>
 </metadata>
 <defs>
  <style type="text/css">*{stroke-linejoin: round; stroke-linecap: butt}</style>
 </defs>
 <g id="figure_1">
  <g id="patch_1">
   <path d="M 0 167.395875 
L 220.130514 167.395875 
L 220.130514 0 
L 0 0 
z
" style="fill: #ffffff"/>
  </g>
  <g id="axes_1">
   <g id="patch_2">
    <path d="M 42.331 131.0685 
L 209.731 131.0685 
L 209.731 20.1885 
L 42.331 20.1885 
z
" style="fill: #ffffff"/>
   </g>
   <g id="matplotlib.axis_1">
    <g id="xtick_1">
     <g id="line2d_1">
      <defs>
       <path id="mace2334677" d="M 0 0 
L 0 4.8 
" style="stroke: #262626"/>
      </defs>
      <g>
       <use xlink:href="#mace2334677" x="49.940091" y="131.0685" style="fill: #262626; stroke: #262626"/>
      </g>
     </g>
     <g id="text_1">
      <!-- 0 -->
      <g style="fill: #262626" transform="translate(47.493278 145.667375) scale(0.088 -0.088)">
       <defs>
        <path id="ArialMT-30" d="M 266 2259 
Q 266 3072 433 3567 
Q 600 4063 929 4331 
Q 1259 4600 1759 4600 
Q 2128 4600 2406 4451 
Q 2684 4303 2865 4023 
Q 3047 3744 3150 3342 
Q 3253 2941 3253 2259 
Q 3253 1453 3087 958 
Q 2922 463 2592 192 
Q 2263 -78 1759 -78 
Q 1097 -78 719 397 
Q 266 969 266 2259 
z
M 844 2259 
Q 844 1131 1108 757 
Q 1372 384 1759 384 
Q 2147 384 2411 759 
Q 2675 1134 2675 2259 
Q 2675 3391 2411 3762 
Q 2147 4134 1753 4134 
Q 1366 4134 1134 3806 
Q 844 3388 844 2259 
z
" transform="scale(0.015625)"/>
       </defs>
       <use xlink:href="#ArialMT-30"/>
      </g>
     </g>
    </g>
    <g id="xtick_2">
     <g id="line2d_2">
      <g>
       <use xlink:href="#mace2334677" x="101.007815" y="131.0685" style="fill: #262626; stroke: #262626"/>
      </g>
     </g>
     <g id="text_2">
      <!-- 1000 -->
      <g style="fill: #262626" transform="translate(91.220565 145.667375) scale(0.088 -0.088)">
       <defs>
        <path id="ArialMT-31" d="M 2384 0 
L 1822 0 
L 1822 3584 
Q 1619 3391 1289 3197 
Q 959 3003 697 2906 
L 697 3450 
Q 1169 3672 1522 3987 
Q 1875 4303 2022 4600 
L 2384 4600 
L 2384 0 
z
" transform="scale(0.015625)"/>
       </defs>
       <use xlink:href="#ArialMT-31"/>
       <use xlink:href="#ArialMT-30" transform="translate(55.615234 0)"/>
       <use xlink:href="#ArialMT-30" transform="translate(111.230469 0)"/>
       <use xlink:href="#ArialMT-30" transform="translate(166.845703 0)"/>
      </g>
     </g>
    </g>
    <g id="xtick_3">
     <g id="line2d_3">
      <g>
       <use xlink:href="#mace2334677" x="152.075539" y="131.0685" style="fill: #262626; stroke: #262626"/>
      </g>
     </g>
     <g id="text_3">
      <!-- 2000 -->
      <g style="fill: #262626" transform="translate(142.288289 145.667375) scale(0.088 -0.088)">
       <defs>
        <path id="ArialMT-32" d="M 3222 541 
L 3222 0 
L 194 0 
Q 188 203 259 391 
Q 375 700 629 1000 
Q 884 1300 1366 1694 
Q 2113 2306 2375 2664 
Q 2638 3022 2638 3341 
Q 2638 3675 2398 3904 
Q 2159 4134 1775 4134 
Q 1369 4134 1125 3890 
Q 881 3647 878 3216 
L 300 3275 
Q 359 3922 746 4261 
Q 1134 4600 1788 4600 
Q 2447 4600 2831 4234 
Q 3216 3869 3216 3328 
Q 3216 3053 3103 2787 
Q 2991 2522 2730 2228 
Q 2469 1934 1863 1422 
Q 1356 997 1212 845 
Q 1069 694 975 541 
L 3222 541 
z
" transform="scale(0.015625)"/>
       </defs>
       <use xlink:href="#ArialMT-32"/>
       <use xlink:href="#ArialMT-30" transform="translate(55.615234 0)"/>
       <use xlink:href="#ArialMT-30" transform="translate(111.230469 0)"/>
       <use xlink:href="#ArialMT-30" transform="translate(166.845703 0)"/>
      </g>
     </g>
    </g>
    <g id="xtick_4">
     <g id="line2d_4">
      <g>
       <use xlink:href="#mace2334677" x="203.143264" y="131.0685" style="fill: #262626; stroke: #262626"/>
      </g>
     </g>
     <g id="text_4">
      <!-- 3000 -->
      <g style="fill: #262626" transform="translate(193.356014 145.667375) scale(0.088 -0.088)">
       <defs>
        <path id="ArialMT-33" d="M 269 1209 
L 831 1284 
Q 928 806 1161 595 
Q 1394 384 1728 384 
Q 2125 384 2398 659 
Q 2672 934 2672 1341 
Q 2672 1728 2419 1979 
Q 2166 2231 1775 2231 
Q 1616 2231 1378 2169 
L 1441 2663 
Q 1497 2656 1531 2656 
Q 1891 2656 2178 2843 
Q 2466 3031 2466 3422 
Q 2466 3731 2256 3934 
Q 2047 4138 1716 4138 
Q 1388 4138 1169 3931 
Q 950 3725 888 3313 
L 325 3413 
Q 428 3978 793 4289 
Q 1159 4600 1703 4600 
Q 2078 4600 2393 4439 
Q 2709 4278 2876 4000 
Q 3044 3722 3044 3409 
Q 3044 3113 2884 2869 
Q 2725 2625 2413 2481 
Q 2819 2388 3044 2092 
Q 3269 1797 3269 1353 
Q 3269 753 2831 336 
Q 2394 -81 1725 -81 
Q 1122 -81 723 278 
Q 325 638 269 1209 
z
" transform="scale(0.015625)"/>
       </defs>
       <use xlink:href="#ArialMT-33"/>
       <use xlink:href="#ArialMT-30" transform="translate(55.615234 0)"/>
       <use xlink:href="#ArialMT-30" transform="translate(111.230469 0)"/>
       <use xlink:href="#ArialMT-30" transform="translate(166.845703 0)"/>
      </g>
     </g>
    </g>
    <g id="text_5">
     <!-- Iteration -->
     <g style="fill: #262626" transform="translate(108.68875 158.287875) scale(0.096 -0.096)">
      <defs>
       <path id="ArialMT-49" d="M 597 0 
L 597 4581 
L 1203 4581 
L 1203 0 
L 597 0 
z
" transform="scale(0.015625)"/>
       <path id="ArialMT-74" d="M 1650 503 
L 1731 6 
Q 1494 -44 1306 -44 
Q 1000 -44 831 53 
Q 663 150 594 308 
Q 525 466 525 972 
L 525 2881 
L 113 2881 
L 113 3319 
L 525 3319 
L 525 4141 
L 1084 4478 
L 1084 3319 
L 1650 3319 
L 1650 2881 
L 1084 2881 
L 1084 941 
Q 1084 700 1114 631 
Q 1144 563 1211 522 
Q 1278 481 1403 481 
Q 1497 481 1650 503 
z
" transform="scale(0.015625)"/>
       <path id="ArialMT-65" d="M 2694 1069 
L 3275 997 
Q 3138 488 2766 206 
Q 2394 -75 1816 -75 
Q 1088 -75 661 373 
Q 234 822 234 1631 
Q 234 2469 665 2931 
Q 1097 3394 1784 3394 
Q 2450 3394 2872 2941 
Q 3294 2488 3294 1666 
Q 3294 1616 3291 1516 
L 816 1516 
Q 847 969 1125 678 
Q 1403 388 1819 388 
Q 2128 388 2347 550 
Q 2566 713 2694 1069 
z
M 847 1978 
L 2700 1978 
Q 2663 2397 2488 2606 
Q 2219 2931 1791 2931 
Q 1403 2931 1139 2672 
Q 875 2413 847 1978 
z
" transform="scale(0.015625)"/>
       <path id="ArialMT-72" d="M 416 0 
L 416 3319 
L 922 3319 
L 922 2816 
Q 1116 3169 1280 3281 
Q 1444 3394 1641 3394 
Q 1925 3394 2219 3213 
L 2025 2691 
Q 1819 2813 1613 2813 
Q 1428 2813 1281 2702 
Q 1134 2591 1072 2394 
Q 978 2094 978 1738 
L 978 0 
L 416 0 
z
" transform="scale(0.015625)"/>
       <path id="ArialMT-61" d="M 2588 409 
Q 2275 144 1986 34 
Q 1697 -75 1366 -75 
Q 819 -75 525 192 
Q 231 459 231 875 
Q 231 1119 342 1320 
Q 453 1522 633 1644 
Q 813 1766 1038 1828 
Q 1203 1872 1538 1913 
Q 2219 1994 2541 2106 
Q 2544 2222 2544 2253 
Q 2544 2597 2384 2738 
Q 2169 2928 1744 2928 
Q 1347 2928 1158 2789 
Q 969 2650 878 2297 
L 328 2372 
Q 403 2725 575 2942 
Q 747 3159 1072 3276 
Q 1397 3394 1825 3394 
Q 2250 3394 2515 3294 
Q 2781 3194 2906 3042 
Q 3031 2891 3081 2659 
Q 3109 2516 3109 2141 
L 3109 1391 
Q 3109 606 3145 398 
Q 3181 191 3288 0 
L 2700 0 
Q 2613 175 2588 409 
z
M 2541 1666 
Q 2234 1541 1622 1453 
Q 1275 1403 1131 1340 
Q 988 1278 909 1158 
Q 831 1038 831 891 
Q 831 666 1001 516 
Q 1172 366 1500 366 
Q 1825 366 2078 508 
Q 2331 650 2450 897 
Q 2541 1088 2541 1459 
L 2541 1666 
z
" transform="scale(0.015625)"/>
       <path id="ArialMT-69" d="M 425 3934 
L 425 4581 
L 988 4581 
L 988 3934 
L 425 3934 
z
M 425 0 
L 425 3319 
L 988 3319 
L 988 0 
L 425 0 
z
" transform="scale(0.015625)"/>
       <path id="ArialMT-6f" d="M 213 1659 
Q 213 2581 725 3025 
Q 1153 3394 1769 3394 
Q 2453 3394 2887 2945 
Q 3322 2497 3322 1706 
Q 3322 1066 3130 698 
Q 2938 331 2570 128 
Q 2203 -75 1769 -75 
Q 1072 -75 642 372 
Q 213 819 213 1659 
z
M 791 1659 
Q 791 1022 1069 705 
Q 1347 388 1769 388 
Q 2188 388 2466 706 
Q 2744 1025 2744 1678 
Q 2744 2294 2464 2611 
Q 2184 2928 1769 2928 
Q 1347 2928 1069 2612 
Q 791 2297 791 1659 
z
" transform="scale(0.015625)"/>
       <path id="ArialMT-6e" d="M 422 0 
L 422 3319 
L 928 3319 
L 928 2847 
Q 1294 3394 1984 3394 
Q 2284 3394 2536 3286 
Q 2788 3178 2913 3003 
Q 3038 2828 3088 2588 
Q 3119 2431 3119 2041 
L 3119 0 
L 2556 0 
L 2556 2019 
Q 2556 2363 2490 2533 
Q 2425 2703 2258 2804 
Q 2091 2906 1866 2906 
Q 1506 2906 1245 2678 
Q 984 2450 984 1813 
L 984 0 
L 422 0 
z
" transform="scale(0.015625)"/>
      </defs>
      <use xlink:href="#ArialMT-49"/>
      <use xlink:href="#ArialMT-74" transform="translate(27.783203 0)"/>
      <use xlink:href="#ArialMT-65" transform="translate(55.566406 0)"/>
      <use xlink:href="#ArialMT-72" transform="translate(111.181641 0)"/>
      <use xlink:href="#ArialMT-61" transform="translate(144.482422 0)"/>
      <use xlink:href="#ArialMT-74" transform="translate(200.097656 0)"/>
      <use xlink:href="#ArialMT-69" transform="translate(227.880859 0)"/>
      <use xlink:href="#ArialMT-6f" transform="translate(250.097656 0)"/>
      <use xlink:href="#ArialMT-6e" transform="translate(305.712891 0)"/>
     </g>
    </g>
   </g>
   <g id="matplotlib.axis_2">
    <g id="ytick_1">
     <g id="line2d_5">
      <defs>
       <path id="mbf8997a943" d="M 0 0 
L -4.8 0 
" style="stroke: #262626"/>
      </defs>
      <g>
       <use xlink:href="#mbf8997a943" x="42.331" y="120.966948" style="fill: #262626; stroke: #262626"/>
      </g>
     </g>
     <g id="text_6">
      <!-- $\mathdefault{10^{1}}$ -->
      <g style="fill: #262626" transform="translate(20.215 125.504448) scale(0.088 -0.088)">
       <use xlink:href="#ArialMT-31" transform="translate(0 0.99375)"/>
       <use xlink:href="#ArialMT-30" transform="translate(55.615234 0.99375)"/>
       <use xlink:href="#ArialMT-31" transform="translate(112.972813 70.6875) scale(0.7)"/>
      </g>
     </g>
    </g>
    <g id="ytick_2">
     <g id="line2d_6">
      <g>
       <use xlink:href="#mbf8997a943" x="42.331" y="82.468966" style="fill: #262626; stroke: #262626"/>
      </g>
     </g>
     <g id="text_7">
      <!-- $\mathdefault{10^{2}}$ -->
      <g style="fill: #262626" transform="translate(20.215 87.006466) scale(0.088 -0.088)">
       <use xlink:href="#ArialMT-31" transform="translate(0 0.99375)"/>
       <use xlink:href="#ArialMT-30" transform="translate(55.615234 0.99375)"/>
       <use xlink:href="#ArialMT-32" transform="translate(112.972813 70.6875) scale(0.7)"/>
      </g>
     </g>
    </g>
    <g id="ytick_3">
     <g id="line2d_7">
      <g>
       <use xlink:href="#mbf8997a943" x="42.331" y="43.970984" style="fill: #262626; stroke: #262626"/>
      </g>
     </g>
     <g id="text_8">
      <!-- $\mathdefault{10^{3}}$ -->
      <g style="fill: #262626" transform="translate(20.215 48.508484) scale(0.088 -0.088)">
       <use xlink:href="#ArialMT-31" transform="translate(0 0.99375)"/>
       <use xlink:href="#ArialMT-30" transform="translate(55.615234 0.99375)"/>
       <use xlink:href="#ArialMT-33" transform="translate(112.972813 70.6875) scale(0.7)"/>
      </g>
     </g>
    </g>
    <g id="ytick_4">
     <g id="line2d_8">
      <defs>
       <path id="mb2cc937336" d="M 0 0 
L -3.2 0 
" style="stroke: #262626; stroke-width: 0.8"/>
      </defs>
      <g>
       <use xlink:href="#mb2cc937336" x="42.331" y="129.507677" style="fill: #262626; stroke: #262626; stroke-width: 0.8"/>
      </g>
     </g>
    </g>
    <g id="ytick_5">
     <g id="line2d_9">
      <g>
       <use xlink:href="#mb2cc937336" x="42.331" y="126.930361" style="fill: #262626; stroke: #262626; stroke-width: 0.8"/>
      </g>
     </g>
    </g>
    <g id="ytick_6">
     <g id="line2d_10">
      <g>
       <use xlink:href="#mb2cc937336" x="42.331" y="124.697788" style="fill: #262626; stroke: #262626; stroke-width: 0.8"/>
      </g>
     </g>
    </g>
    <g id="ytick_7">
     <g id="line2d_11">
      <g>
       <use xlink:href="#mb2cc937336" x="42.331" y="122.728519" style="fill: #262626; stroke: #262626; stroke-width: 0.8"/>
      </g>
     </g>
    </g>
    <g id="ytick_8">
     <g id="line2d_12">
      <g>
       <use xlink:href="#mb2cc937336" x="42.331" y="109.377901" style="fill: #262626; stroke: #262626; stroke-width: 0.8"/>
      </g>
     </g>
    </g>
    <g id="ytick_9">
     <g id="line2d_13">
      <g>
       <use xlink:href="#mb2cc937336" x="42.331" y="102.598743" style="fill: #262626; stroke: #262626; stroke-width: 0.8"/>
      </g>
     </g>
    </g>
    <g id="ytick_10">
     <g id="line2d_14">
      <g>
       <use xlink:href="#mb2cc937336" x="42.331" y="97.788854" style="fill: #262626; stroke: #262626; stroke-width: 0.8"/>
      </g>
     </g>
    </g>
    <g id="ytick_11">
     <g id="line2d_15">
      <g>
       <use xlink:href="#mb2cc937336" x="42.331" y="94.058014" style="fill: #262626; stroke: #262626; stroke-width: 0.8"/>
      </g>
     </g>
    </g>
    <g id="ytick_12">
     <g id="line2d_16">
      <g>
       <use xlink:href="#mb2cc937336" x="42.331" y="91.009696" style="fill: #262626; stroke: #262626; stroke-width: 0.8"/>
      </g>
     </g>
    </g>
    <g id="ytick_13">
     <g id="line2d_17">
      <g>
       <use xlink:href="#mb2cc937336" x="42.331" y="88.432379" style="fill: #262626; stroke: #262626; stroke-width: 0.8"/>
      </g>
     </g>
    </g>
    <g id="ytick_14">
     <g id="line2d_18">
      <g>
       <use xlink:href="#mb2cc937336" x="42.331" y="86.199806" style="fill: #262626; stroke: #262626; stroke-width: 0.8"/>
      </g>
     </g>
    </g>
    <g id="ytick_15">
     <g id="line2d_19">
      <g>
       <use xlink:href="#mb2cc937336" x="42.331" y="84.230537" style="fill: #262626; stroke: #262626; stroke-width: 0.8"/>
      </g>
     </g>
    </g>
    <g id="ytick_16">
     <g id="line2d_20">
      <g>
       <use xlink:href="#mb2cc937336" x="42.331" y="70.879919" style="fill: #262626; stroke: #262626; stroke-width: 0.8"/>
      </g>
     </g>
    </g>
    <g id="ytick_17">
     <g id="line2d_21">
      <g>
       <use xlink:href="#mb2cc937336" x="42.331" y="64.100761" style="fill: #262626; stroke: #262626; stroke-width: 0.8"/>
      </g>
     </g>
    </g>
    <g id="ytick_18">
     <g id="line2d_22">
      <g>
       <use xlink:href="#mb2cc937336" x="42.331" y="59.290872" style="fill: #262626; stroke: #262626; stroke-width: 0.8"/>
      </g>
     </g>
    </g>
    <g id="ytick_19">
     <g id="line2d_23">
      <g>
       <use xlink:href="#mb2cc937336" x="42.331" y="55.560032" style="fill: #262626; stroke: #262626; stroke-width: 0.8"/>
      </g>
     </g>
    </g>
    <g id="ytick_20">
     <g id="line2d_24">
      <g>
       <use xlink:href="#mb2cc937336" x="42.331" y="52.511714" style="fill: #262626; stroke: #262626; stroke-width: 0.8"/>
      </g>
     </g>
    </g>
    <g id="ytick_21">
     <g id="line2d_25">
      <g>
       <use xlink:href="#mb2cc937336" x="42.331" y="49.934397" style="fill: #262626; stroke: #262626; stroke-width: 0.8"/>
      </g>
     </g>
    </g>
    <g id="ytick_22">
     <g id="line2d_26">
      <g>
       <use xlink:href="#mb2cc937336" x="42.331" y="47.701824" style="fill: #262626; stroke: #262626; stroke-width: 0.8"/>
      </g>
     </g>
    </g>
    <g id="ytick_23">
     <g id="line2d_27">
      <g>
       <use xlink:href="#mb2cc937336" x="42.331" y="45.732555" style="fill: #262626; stroke: #262626; stroke-width: 0.8"/>
      </g>
     </g>
    </g>
    <g id="ytick_24">
     <g id="line2d_28">
      <g>
       <use xlink:href="#mb2cc937336" x="42.331" y="32.381937" style="fill: #262626; stroke: #262626; stroke-width: 0.8"/>
      </g>
     </g>
    </g>
    <g id="ytick_25">
     <g id="line2d_29">
      <g>
       <use xlink:href="#mb2cc937336" x="42.331" y="25.602779" style="fill: #262626; stroke: #262626; stroke-width: 0.8"/>
      </g>
     </g>
    </g>
    <g id="ytick_26">
     <g id="line2d_30">
      <g>
       <use xlink:href="#mb2cc937336" x="42.331" y="20.79289" style="fill: #262626; stroke: #262626; stroke-width: 0.8"/>
      </g>
     </g>
    </g>
    <g id="text_9">
     <!-- Negative ELBO -->
     <g style="fill: #262626" transform="translate(14.1945 108.71175) rotate(-90) scale(0.096 -0.096)">
      <defs>
       <path id="ArialMT-4e" d="M 488 0 
L 488 4581 
L 1109 4581 
L 3516 984 
L 3516 4581 
L 4097 4581 
L 4097 0 
L 3475 0 
L 1069 3600 
L 1069 0 
L 488 0 
z
" transform="scale(0.015625)"/>
       <path id="ArialMT-67" d="M 319 -275 
L 866 -356 
Q 900 -609 1056 -725 
Q 1266 -881 1628 -881 
Q 2019 -881 2231 -725 
Q 2444 -569 2519 -288 
Q 2563 -116 2559 434 
Q 2191 0 1641 0 
Q 956 0 581 494 
Q 206 988 206 1678 
Q 206 2153 378 2554 
Q 550 2956 876 3175 
Q 1203 3394 1644 3394 
Q 2231 3394 2613 2919 
L 2613 3319 
L 3131 3319 
L 3131 450 
Q 3131 -325 2973 -648 
Q 2816 -972 2473 -1159 
Q 2131 -1347 1631 -1347 
Q 1038 -1347 672 -1080 
Q 306 -813 319 -275 
z
M 784 1719 
Q 784 1066 1043 766 
Q 1303 466 1694 466 
Q 2081 466 2343 764 
Q 2606 1063 2606 1700 
Q 2606 2309 2336 2618 
Q 2066 2928 1684 2928 
Q 1309 2928 1046 2623 
Q 784 2319 784 1719 
z
" transform="scale(0.015625)"/>
       <path id="ArialMT-76" d="M 1344 0 
L 81 3319 
L 675 3319 
L 1388 1331 
Q 1503 1009 1600 663 
Q 1675 925 1809 1294 
L 2547 3319 
L 3125 3319 
L 1869 0 
L 1344 0 
z
" transform="scale(0.015625)"/>
       <path id="ArialMT-20" transform="scale(0.015625)"/>
       <path id="ArialMT-45" d="M 506 0 
L 506 4581 
L 3819 4581 
L 3819 4041 
L 1113 4041 
L 1113 2638 
L 3647 2638 
L 3647 2100 
L 1113 2100 
L 1113 541 
L 3925 541 
L 3925 0 
L 506 0 
z
" transform="scale(0.015625)"/>
       <path id="ArialMT-4c" d="M 469 0 
L 469 4581 
L 1075 4581 
L 1075 541 
L 3331 541 
L 3331 0 
L 469 0 
z
" transform="scale(0.015625)"/>
       <path id="ArialMT-42" d="M 469 0 
L 469 4581 
L 2188 4581 
Q 2713 4581 3030 4442 
Q 3347 4303 3526 4014 
Q 3706 3725 3706 3409 
Q 3706 3116 3547 2856 
Q 3388 2597 3066 2438 
Q 3481 2316 3704 2022 
Q 3928 1728 3928 1328 
Q 3928 1006 3792 729 
Q 3656 453 3456 303 
Q 3256 153 2954 76 
Q 2653 0 2216 0 
L 469 0 
z
M 1075 2656 
L 2066 2656 
Q 2469 2656 2644 2709 
Q 2875 2778 2992 2937 
Q 3109 3097 3109 3338 
Q 3109 3566 3000 3739 
Q 2891 3913 2687 3977 
Q 2484 4041 1991 4041 
L 1075 4041 
L 1075 2656 
z
M 1075 541 
L 2216 541 
Q 2509 541 2628 563 
Q 2838 600 2978 687 
Q 3119 775 3209 942 
Q 3300 1109 3300 1328 
Q 3300 1584 3169 1773 
Q 3038 1963 2805 2039 
Q 2572 2116 2134 2116 
L 1075 2116 
L 1075 541 
z
" transform="scale(0.015625)"/>
       <path id="ArialMT-4f" d="M 309 2231 
Q 309 3372 921 4017 
Q 1534 4663 2503 4663 
Q 3138 4663 3647 4359 
Q 4156 4056 4423 3514 
Q 4691 2972 4691 2284 
Q 4691 1588 4409 1038 
Q 4128 488 3612 205 
Q 3097 -78 2500 -78 
Q 1853 -78 1343 234 
Q 834 547 571 1087 
Q 309 1628 309 2231 
z
M 934 2222 
Q 934 1394 1379 917 
Q 1825 441 2497 441 
Q 3181 441 3623 922 
Q 4066 1403 4066 2288 
Q 4066 2847 3877 3264 
Q 3688 3681 3323 3911 
Q 2959 4141 2506 4141 
Q 1863 4141 1398 3698 
Q 934 3256 934 2222 
z
" transform="scale(0.015625)"/>
      </defs>
      <use xlink:href="#ArialMT-4e"/>
      <use xlink:href="#ArialMT-65" transform="translate(72.216797 0)"/>
      <use xlink:href="#ArialMT-67" transform="translate(127.832031 0)"/>
      <use xlink:href="#ArialMT-61" transform="translate(183.447266 0)"/>
      <use xlink:href="#ArialMT-74" transform="translate(239.0625 0)"/>
      <use xlink:href="#ArialMT-69" transform="translate(266.845703 0)"/>
      <use xlink:href="#ArialMT-76" transform="translate(289.0625 0)"/>
      <use xlink:href="#ArialMT-65" transform="translate(339.0625 0)"/>
      <use xlink:href="#ArialMT-20" transform="translate(394.677734 0)"/>
      <use xlink:href="#ArialMT-45" transform="translate(422.460938 0)"/>
      <use xlink:href="#ArialMT-4c" transform="translate(489.160156 0)"/>
      <use xlink:href="#ArialMT-42" transform="translate(544.775391 0)"/>
      <use xlink:href="#ArialMT-4f" transform="translate(611.474609 0)"/>
     </g>
    </g>
   </g>
   <g id="line2d_31">
    <path d="M 49.940091 25.2285 
L 50.093294 31.817314 
L 50.144362 32.236566 
L 50.19543 30.272129 
L 50.297565 30.590487 
L 50.3997 31.044008 
L 50.706107 39.44876 
L 50.757174 39.696334 
L 51.114649 46.377979 
L 51.165716 46.390434 
L 51.318919 56.317845 
L 52.033868 63.811023 
L 52.084935 63.660648 
L 52.136003 63.353022 
L 52.442409 67.741539 
L 52.595613 71.122917 
L 52.748816 70.849436 
L 52.799883 70.876811 
L 52.850951 71.844319 
L 53.004154 76.337975 
L 53.055222 76.044387 
L 53.157358 78.448621 
L 53.310561 75.814149 
L 53.514832 77.765171 
L 53.668035 83.717807 
L 53.821238 81.656901 
L 53.872306 82.075808 
L 53.923373 82.29891 
L 53.974441 82.108651 
L 54.025509 81.824421 
L 54.178712 83.369793 
L 54.331915 87.977936 
L 54.382983 88.127324 
L 54.536186 87.449482 
L 54.587254 86.358684 
L 54.638322 86.911523 
L 54.689389 87.000091 
L 54.89366 91.270975 
L 54.944728 91.250304 
L 55.046863 91.883761 
L 55.097931 91.875574 
L 55.251134 90.562216 
L 55.35327 91.992061 
L 55.404337 91.739208 
L 55.506473 89.352179 
L 55.557541 89.983587 
L 55.608608 90.901292 
L 55.659676 90.241102 
L 55.710744 89.615273 
L 55.761811 87.221874 
L 55.812879 87.739671 
L 55.915015 87.528308 
L 55.966082 85.324244 
L 56.01715 85.742329 
L 56.068218 85.784464 
L 56.170353 86.137487 
L 56.323556 85.494109 
L 56.425692 85.708678 
L 56.527827 88.176729 
L 56.578895 87.627096 
L 56.732098 88.805147 
L 56.783166 91.848958 
L 56.834234 91.008615 
L 56.885301 91.229044 
L 56.936369 90.91267 
L 56.987437 94.166598 
L 57.038505 93.57782 
L 57.089572 93.170087 
L 57.191708 93.240301 
L 57.344911 94.036616 
L 57.498114 92.932956 
L 57.651317 91.290785 
L 57.702385 90.994618 
L 57.855588 91.920317 
L 58.059859 91.521967 
L 58.110927 92.093798 
L 58.213062 90.931963 
L 58.26413 91.280917 
L 58.417333 92.218482 
L 58.468401 92.344851 
L 58.519469 90.557563 
L 58.570536 92.475331 
L 58.621604 92.557732 
L 58.774807 91.42488 
L 58.876943 91.598381 
L 59.030146 93.269435 
L 59.081214 92.447316 
L 59.132281 92.496275 
L 59.234417 94.156896 
L 59.336552 92.959138 
L 59.38762 93.806434 
L 59.438688 93.223727 
L 59.489755 93.399004 
L 59.591891 95.93166 
L 59.642959 95.782785 
L 59.847229 98.594728 
L 60.0515 98.937621 
L 60.153636 101.550633 
L 60.204703 101.154015 
L 60.255771 100.769014 
L 60.460042 103.325951 
L 60.664313 106.077867 
L 60.766448 103.483262 
L 60.868584 104.017385 
L 60.970719 105.11184 
L 61.021787 104.402739 
L 61.072855 104.356789 
L 61.123923 104.588131 
L 61.226058 104.154332 
L 61.379261 105.103966 
L 61.430329 105.019523 
L 61.583532 106.506481 
L 61.6346 105.693798 
L 61.685667 105.572523 
L 61.889938 109.391968 
L 61.992074 108.275519 
L 62.043142 108.806246 
L 62.094209 108.763152 
L 62.145277 107.754276 
L 62.196345 108.616941 
L 62.247412 109.584486 
L 62.29848 109.081378 
L 62.502751 110.229092 
L 62.553819 110.080797 
L 62.604887 108.969397 
L 62.655954 109.390552 
L 62.707022 110.134707 
L 62.75809 109.904143 
L 62.809157 108.852931 
L 62.860225 109.513435 
L 62.911293 109.161975 
L 62.962361 110.096753 
L 63.013428 109.376725 
L 63.064496 109.520163 
L 63.473038 104.484333 
L 63.677309 104.935559 
L 63.779444 103.497584 
L 63.830512 104.011813 
L 63.88158 103.941242 
L 63.983715 103.518213 
L 64.136918 104.51081 
L 64.187986 104.472563 
L 64.290121 107.598519 
L 64.341189 107.473047 
L 64.392257 107.669672 
L 64.54546 108.76058 
L 64.647595 109.348017 
L 64.698663 109.613368 
L 64.749731 111.130135 
L 64.800799 110.215936 
L 64.902934 110.587343 
L 64.954002 110.529826 
L 65.00507 108.667952 
L 65.107205 108.824666 
L 65.158273 109.448638 
L 65.260408 108.388489 
L 65.311476 108.602213 
L 65.362544 109.136083 
L 65.413611 108.709155 
L 65.464679 108.963198 
L 65.566815 107.09673 
L 65.617882 107.10278 
L 65.771085 105.583024 
L 65.822153 106.732836 
L 65.873221 106.548796 
L 65.924289 106.322737 
L 66.026424 108.490334 
L 66.179627 105.470172 
L 66.230695 106.422759 
L 66.281763 106.244761 
L 66.383898 103.97597 
L 66.434966 104.142854 
L 66.486034 103.859112 
L 66.588169 105.029801 
L 66.639237 105.019484 
L 66.945643 106.63066 
L 66.996711 106.42459 
L 67.047779 106.753482 
L 67.098846 109.460811 
L 67.200982 109.297618 
L 67.252049 108.304782 
L 67.303117 108.50877 
L 67.45632 111.434614 
L 67.507388 111.462842 
L 67.660591 112.264777 
L 67.711659 112.100286 
L 67.762727 112.017028 
L 67.813794 112.150769 
L 67.864862 111.975014 
L 68.120201 110.469922 
L 68.171268 110.576857 
L 68.222336 110.298528 
L 68.375539 112.144522 
L 68.426607 112.233157 
L 68.477675 111.352375 
L 68.630878 112.689872 
L 68.681946 112.163474 
L 68.835149 112.973052 
L 68.886217 112.987499 
L 68.937284 113.152924 
L 68.988352 113.873607 
L 69.03942 113.230675 
L 69.090487 113.048627 
L 69.243691 114.966308 
L 69.447962 113.706511 
L 69.499029 115.034361 
L 69.550097 114.688396 
L 69.652232 113.14138 
L 69.754368 113.985771 
L 69.805436 114.366543 
L 69.856503 114.085839 
L 69.958639 114.402693 
L 70.009707 114.136793 
L 70.060774 114.746898 
L 70.111842 114.223244 
L 70.16291 114.422625 
L 70.213977 114.397292 
L 70.316113 113.942062 
L 70.418248 114.895378 
L 70.622519 113.279637 
L 70.673587 113.93506 
L 70.724655 113.251838 
L 70.775722 113.09237 
L 70.82679 113.399893 
L 70.877858 112.679324 
L 70.979993 112.701256 
L 71.031061 112.826673 
L 71.082129 112.698062 
L 71.133196 114.087472 
L 71.184264 113.596322 
L 71.235332 113.472592 
L 71.388535 111.832141 
L 71.439603 111.807617 
L 71.490671 111.640829 
L 71.899212 114.268225 
L 71.95028 113.608389 
L 72.001348 114.034983 
L 72.103483 114.861249 
L 72.154551 114.554224 
L 72.256686 114.848507 
L 72.40989 116.943994 
L 72.460957 115.951282 
L 72.512025 116.747151 
L 72.61416 117.389124 
L 72.665228 116.055508 
L 72.716296 116.79505 
L 72.818431 116.649268 
L 72.869499 116.732072 
L 73.022702 117.609257 
L 73.07377 117.374398 
L 73.175905 117.006126 
L 73.226973 117.372253 
L 73.431244 115.972665 
L 73.482312 115.952924 
L 73.635515 115.375138 
L 73.788718 116.156038 
L 73.839786 116.469875 
L 73.890854 116.223997 
L 73.992989 115.471614 
L 74.146192 114.264467 
L 74.401531 115.675834 
L 74.452599 113.371778 
L 74.503666 113.505972 
L 74.554734 114.315909 
L 74.605802 113.997899 
L 74.656869 113.899963 
L 74.707937 114.049817 
L 74.912208 113.047075 
L 74.963276 113.046341 
L 75.065411 114.234627 
L 75.167547 114.212217 
L 75.218614 113.692259 
L 75.32075 113.746739 
L 75.371818 113.760351 
L 75.422885 114.279051 
L 75.525021 117.31431 
L 75.576088 116.562056 
L 75.678224 117.305347 
L 75.780359 116.489959 
L 75.831427 116.533266 
L 75.882495 116.598993 
L 76.035698 115.961701 
L 76.086766 116.302974 
L 76.239969 116.780792 
L 76.44424 115.94734 
L 76.495308 116.727486 
L 76.546375 115.96096 
L 76.597443 116.252011 
L 76.648511 116.069396 
L 76.699578 116.095919 
L 76.750646 116.348155 
L 76.903849 114.890697 
L 76.954917 114.875233 
L 77.005985 115.457822 
L 77.057052 115.290525 
L 77.210256 114.906684 
L 77.261323 115.293143 
L 77.465594 113.903461 
L 77.516662 113.649511 
L 77.56773 113.95945 
L 77.669865 113.201922 
L 77.720933 113.307857 
L 77.976272 115.990841 
L 78.078407 115.969573 
L 78.129475 115.9628 
L 78.282678 115.451583 
L 78.69122 118.637732 
L 78.793355 116.779826 
L 78.844423 116.891323 
L 79.099761 117.374423 
L 79.304032 118.005724 
L 79.3551 117.759694 
L 79.406168 117.801145 
L 79.457236 117.849769 
L 79.712574 119.384944 
L 79.81471 120.386243 
L 79.916845 119.160202 
L 79.967913 119.79676 
L 80.070048 119.158357 
L 80.121116 119.460747 
L 80.172184 119.50465 
L 80.427522 118.633647 
L 80.529658 118.901619 
L 80.580725 118.832076 
L 80.784996 118.055119 
L 80.836064 118.068804 
L 81.040335 119.586982 
L 81.091403 119.743138 
L 81.14247 119.57906 
L 81.193538 119.676344 
L 81.244606 120.141194 
L 81.295674 119.971475 
L 81.346741 120.034039 
L 81.448877 121.465668 
L 81.60208 120.531306 
L 81.653148 120.759351 
L 81.704215 120.617388 
L 81.755283 120.237778 
L 81.857419 120.987942 
L 81.908486 120.779093 
L 81.959554 120.750036 
L 82.163825 118.833929 
L 82.419164 118.410589 
L 82.470231 116.784492 
L 82.521299 117.057656 
L 82.623434 117.314223 
L 82.878773 115.811206 
L 82.980908 115.092384 
L 83.236247 116.439002 
L 83.287315 116.322549 
L 83.38945 116.615729 
L 83.440518 116.807176 
L 83.542653 117.992465 
L 83.593721 117.881978 
L 83.644789 117.724768 
L 83.746924 116.709629 
L 84.053331 119.45453 
L 84.104398 119.218912 
L 84.257602 118.778759 
L 84.359737 118.841232 
L 84.461872 117.624959 
L 84.51294 118.166805 
L 84.564008 117.585257 
L 84.615076 117.912258 
L 84.666143 117.91658 
L 84.819347 118.853672 
L 84.870414 118.774733 
L 84.921482 119.415327 
L 84.97255 118.888719 
L 85.074685 118.460231 
L 85.125753 118.625825 
L 85.176821 119.042174 
L 85.227888 118.812686 
L 85.278956 118.882961 
L 85.891769 122.491559 
L 85.942836 122.176373 
L 86.09604 124.213641 
L 86.147107 124.228773 
L 86.198175 124.028157 
L 86.249243 124.108846 
L 86.300311 124.344743 
L 86.402446 123.100936 
L 86.453514 123.13473 
L 86.606717 122.549557 
L 86.708852 122.680121 
L 87.117394 120.884758 
L 87.270597 119.320577 
L 87.321665 119.001988 
L 87.474868 119.808002 
L 87.525936 119.741513 
L 87.577004 119.810216 
L 87.628071 120.339863 
L 87.679139 120.27282 
L 87.730207 119.677194 
L 87.781275 119.724152 
L 87.88341 120.064725 
L 87.934478 120.45509 
L 88.036613 120.416034 
L 88.087681 120.397156 
L 88.138749 120.138203 
L 88.189816 121.333641 
L 88.240884 120.156112 
L 88.291952 120.171197 
L 88.394087 121.076892 
L 88.445155 120.658502 
L 88.700494 118.921696 
L 88.802629 119.336177 
L 88.955832 117.723493 
L 89.0069 117.829967 
L 89.160103 117.118668 
L 89.211171 117.272578 
L 89.262239 118.504203 
L 89.364374 118.308979 
L 89.517577 119.064921 
L 89.619713 118.854905 
L 89.67078 118.899866 
L 89.772916 120.231884 
L 89.823984 120.036164 
L 90.028254 120.92108 
L 90.079322 120.781682 
L 90.181458 121.411841 
L 90.232525 121.211411 
L 90.283593 121.169396 
L 90.334661 121.367471 
L 90.487864 119.22392 
L 90.538932 118.995131 
L 90.641067 119.405892 
L 90.79427 119.108868 
L 90.845338 118.449185 
L 90.896406 118.593924 
L 90.947473 119.022916 
L 91.049609 118.123924 
L 91.100677 118.554674 
L 91.356015 119.237841 
L 91.509218 120.698288 
L 91.560286 120.844946 
L 91.611354 120.725761 
L 91.662422 119.95893 
L 91.713489 120.362888 
L 91.815625 120.310637 
L 91.91776 121.233528 
L 91.968828 121.056078 
L 92.070963 121.382158 
L 92.173099 120.821031 
L 92.224167 120.98045 
L 92.275234 121.318896 
L 92.37737 120.168986 
L 92.428437 120.177453 
L 92.479505 119.67779 
L 92.530573 120.305577 
L 92.581641 120.150047 
L 92.632708 119.974993 
L 92.683776 120.480534 
L 92.836979 119.12206 
L 92.888047 118.932057 
L 92.939115 119.025735 
L 93.194453 120.038624 
L 93.245521 119.974393 
L 93.296589 119.898288 
L 93.347656 120.56642 
L 93.398724 120.425312 
L 93.551927 119.339669 
L 93.705131 118.863522 
L 93.756198 119.592302 
L 93.807266 119.244017 
L 93.858334 118.876671 
L 93.909401 119.305034 
L 93.960469 119.261705 
L 94.113672 118.08551 
L 94.16474 118.268294 
L 94.215808 118.149426 
L 94.420079 116.717046 
L 94.522214 117.669992 
L 94.62435 117.177919 
L 94.879688 118.506914 
L 94.981824 117.824684 
L 95.135027 118.793652 
L 95.237162 118.239717 
L 95.441433 119.793721 
L 95.492501 119.463496 
L 95.543569 119.527772 
L 95.696772 120.23142 
L 95.849975 119.659927 
L 95.95211 120.525656 
L 96.003178 120.504217 
L 96.156381 120.206954 
L 96.207449 120.583017 
L 96.360652 120.092921 
L 96.41172 120.150555 
L 96.462788 119.881429 
L 96.513855 120.228149 
L 96.564923 120.074317 
L 96.615991 119.814718 
L 96.769194 120.933334 
L 96.820262 120.870939 
L 96.871329 121.279787 
L 96.922397 120.79843 
L 96.973465 120.657945 
L 97.024533 120.944035 
L 97.177736 120.043583 
L 97.228804 120.234546 
L 97.279871 121.088013 
L 97.330939 120.782057 
L 97.382007 120.532846 
L 97.433074 120.669257 
L 97.586278 121.336864 
L 97.637345 121.292715 
L 97.790549 120.417755 
L 97.841616 120.482959 
L 97.892684 120.319253 
L 97.943752 120.91503 
L 97.994819 120.854348 
L 98.045887 120.623474 
L 98.096955 121.334939 
L 98.148023 121.16944 
L 98.19909 121.180545 
L 98.301226 120.034824 
L 98.352293 120.128232 
L 98.454429 119.730969 
L 98.556564 120.095809 
L 98.607632 120.061748 
L 98.6587 120.111848 
L 98.709768 120.055625 
L 98.760835 120.008118 
L 98.811903 120.084357 
L 98.914038 120.864292 
L 98.965106 120.701928 
L 99.067242 121.065899 
L 99.118309 120.899646 
L 99.169377 120.911618 
L 99.373648 122.166029 
L 99.424716 122.929354 
L 99.475783 122.310801 
L 99.628987 121.196993 
L 99.680054 121.83791 
L 99.731122 121.679122 
L 99.78219 121.300881 
L 99.935393 118.933772 
L 100.088596 119.297716 
L 100.139664 118.979867 
L 100.190732 119.009554 
L 100.241799 119.049137 
L 100.44607 117.384633 
L 100.497138 117.972763 
L 100.548206 118.590751 
L 100.650341 118.539267 
L 100.803544 118.095176 
L 100.956747 119.437246 
L 101.109951 118.478698 
L 101.212086 119.351668 
L 101.263154 119.021127 
L 101.314221 118.604736 
L 101.365289 118.793052 
L 101.416357 118.968352 
L 101.620628 117.381916 
L 101.722763 117.489354 
L 101.824899 117.947255 
L 101.978102 118.361985 
L 102.02917 118.13538 
L 102.131305 118.158596 
L 102.182373 118.044552 
L 102.641982 122.497938 
L 102.69305 122.189112 
L 102.897321 121.325708 
L 103.101592 122.235681 
L 103.35693 120.17 
L 103.407998 119.892601 
L 103.459066 120.027514 
L 103.510134 120.361827 
L 103.561201 120.270707 
L 103.612269 120.069453 
L 103.663337 120.139946 
L 103.714405 120.262257 
L 103.81654 121.290159 
L 103.918675 121.270944 
L 104.122946 120.357695 
L 104.174014 120.882872 
L 104.225082 120.388818 
L 104.378285 121.435991 
L 104.48042 121.06196 
L 104.837894 118.429164 
L 104.991098 118.701022 
L 105.195369 119.083896 
L 105.246436 119.146441 
L 105.297504 118.998846 
L 105.348572 119.251101 
L 105.450707 118.736028 
L 105.501775 119.274614 
L 105.552843 119.101906 
L 105.60391 119.000373 
L 105.654978 120.116805 
L 105.757113 120.063337 
L 105.910317 119.59038 
L 106.06352 119.893636 
L 106.114588 119.849393 
L 106.165655 119.576182 
L 106.216723 119.898439 
L 106.267791 120.105791 
L 106.318858 120.035136 
L 106.369926 119.896644 
L 106.420994 120.150244 
L 106.472062 119.849476 
L 106.523129 118.335828 
L 106.574197 118.471881 
L 106.625265 118.784362 
L 106.676333 118.246056 
L 106.7274 118.340625 
L 106.880603 119.123958 
L 106.931671 118.852954 
L 106.982739 119.090242 
L 107.033807 119.12169 
L 107.084874 115.842541 
L 107.18701 116.358602 
L 107.238077 116.296112 
L 107.289145 115.902006 
L 107.340213 115.934022 
L 107.493416 116.279535 
L 107.646619 117.838533 
L 107.748755 117.857435 
L 107.85089 118.037944 
L 107.901958 117.82829 
L 108.004093 118.403636 
L 108.055161 118.261571 
L 108.106229 121.869715 
L 108.157297 120.92683 
L 108.259432 120.753535 
L 108.361567 121.479705 
L 108.412635 121.388376 
L 108.463703 120.968887 
L 108.514771 121.508831 
L 108.565838 121.162554 
L 108.719041 120.112921 
L 108.770109 120.23768 
L 108.821177 120.275299 
L 108.872245 120.090203 
L 108.923312 120.369062 
L 108.97438 120.356116 
L 109.127583 119.593919 
L 109.178651 120.322426 
L 109.229719 120.289942 
L 109.43399 119.504071 
L 109.740396 120.659304 
L 109.791464 120.627352 
L 109.842531 120.634261 
L 109.893599 121.071496 
L 109.944667 120.810749 
L 109.995735 120.893999 
L 110.09787 120.334793 
L 110.148938 120.921044 
L 110.200005 120.13513 
L 110.251073 120.202753 
L 110.353209 120.765198 
L 110.710683 118.30237 
L 110.863886 118.854635 
L 110.914954 118.558464 
L 110.966021 118.825026 
L 111.017089 118.753119 
L 111.272428 120.340024 
L 111.374563 119.844641 
L 111.783105 122.237155 
L 111.88524 121.053194 
L 111.936308 121.358436 
L 112.089511 121.273378 
L 112.191647 120.658734 
L 112.34485 121.062397 
L 112.395918 121.191552 
L 112.498053 120.345481 
L 112.549121 120.448754 
L 112.753392 121.105812 
L 112.804459 121.080198 
L 112.855527 121.333862 
L 112.906595 122.227927 
L 112.957663 122.019335 
L 113.110866 121.783195 
L 113.264069 122.078769 
L 113.315137 122.191254 
L 113.366204 121.292585 
L 113.46834 121.355155 
L 113.570475 121.865076 
L 113.621543 121.620828 
L 113.927949 120.166222 
L 114.081153 119.780475 
L 114.183288 120.079932 
L 114.234356 119.967494 
L 114.336491 119.420888 
L 114.489694 120.95567 
L 114.540762 120.971739 
L 114.642897 120.165199 
L 114.693965 120.331261 
L 114.847168 120.43737 
L 114.898236 120.322666 
L 115.102507 121.342525 
L 115.153575 121.280751 
L 115.306778 121.139547 
L 115.357846 121.243142 
L 115.408913 121.212307 
L 115.459981 121.138159 
L 115.511049 120.682337 
L 115.562117 120.853224 
L 115.664252 121.906172 
L 115.817455 121.854102 
L 115.868523 121.994042 
L 115.919591 121.826554 
L 116.123862 121.175193 
L 116.174929 120.940148 
L 116.225997 120.980621 
L 116.634539 122.184991 
L 116.685606 122.145716 
L 116.787742 122.163981 
L 116.940945 121.032952 
L 116.992013 121.565619 
L 117.094148 121.554971 
L 117.196284 121.934911 
L 117.247351 121.694433 
L 117.298419 121.770695 
L 117.349487 121.951881 
L 117.400555 121.827078 
L 117.604826 120.674849 
L 117.655893 120.645686 
L 117.809096 119.842987 
L 117.9623 121.435248 
L 118.013367 120.956078 
L 118.064435 121.005871 
L 118.115503 121.055262 
L 118.217638 120.352804 
L 118.268706 120.59533 
L 118.472977 121.293684 
L 118.677248 122.279415 
L 118.830451 123.954919 
L 118.881519 123.850015 
L 118.932586 123.715603 
L 118.983654 124.040522 
L 119.034722 123.758061 
L 119.08579 123.560217 
L 119.238993 123.993043 
L 119.29006 123.935597 
L 119.392196 123.213763 
L 119.494331 123.84608 
L 119.545399 123.695614 
L 119.596467 123.729923 
L 119.647534 123.780499 
L 119.902873 122.22894 
L 119.953941 122.272155 
L 120.005009 122.006045 
L 120.056076 122.460895 
L 120.107144 122.116185 
L 120.158212 121.932723 
L 120.209279 122.749522 
L 120.260347 122.727626 
L 120.617821 121.703448 
L 120.668889 121.772845 
L 120.719957 121.777687 
L 120.771024 122.048219 
L 120.822092 121.923333 
L 120.87316 121.665769 
L 121.026363 122.427879 
L 121.128498 122.95735 
L 121.179566 122.905487 
L 121.230634 122.30988 
L 121.281702 122.567137 
L 121.332769 122.736281 
L 121.383837 122.606806 
L 121.53704 122.252421 
L 121.639176 122.998214 
L 121.690243 122.948473 
L 121.843447 123.253604 
L 121.894514 122.560942 
L 121.945582 122.668957 
L 122.047718 123.018986 
L 122.098785 122.874317 
L 122.149853 121.397839 
L 122.251988 121.506656 
L 122.354124 121.44142 
L 122.609462 121.928496 
L 122.66053 121.698314 
L 122.711598 121.730147 
L 122.915869 123.092186 
L 122.966937 122.72708 
L 123.069072 122.302054 
L 123.12014 122.542048 
L 123.171207 124.095527 
L 123.222275 123.630931 
L 123.273343 123.331482 
L 123.324411 123.390149 
L 123.375478 123.480357 
L 123.426546 124.091231 
L 123.477614 123.60865 
L 123.630817 122.502622 
L 123.78402 121.076388 
L 124.039359 120.132468 
L 124.090426 120.131486 
L 124.141494 119.779012 
L 124.396833 121.674699 
L 124.447901 121.187346 
L 124.498968 121.626437 
L 124.652171 120.973938 
L 124.754307 122.208738 
L 124.805375 121.764631 
L 124.856442 121.859183 
L 125.060713 122.950241 
L 125.264984 121.432999 
L 125.418187 120.581537 
L 125.469255 120.633689 
L 125.57139 120.860897 
L 125.673526 121.895778 
L 125.826729 121.170461 
L 126.082068 120.472493 
L 126.133135 121.093144 
L 126.184203 120.953153 
L 126.235271 120.36018 
L 126.337406 120.458933 
L 126.439542 120.646554 
L 126.541677 120.356996 
L 126.592745 120.516407 
L 126.643813 120.38086 
L 126.69488 120.196269 
L 126.848084 120.8201 
L 126.899151 120.73573 
L 127.001287 120.669985 
L 127.15449 120.24637 
L 127.205558 120.35729 
L 127.307693 119.102354 
L 127.358761 119.564426 
L 127.409829 119.644546 
L 127.563032 118.91866 
L 127.614099 118.995942 
L 127.767303 119.327982 
L 127.81837 119.49806 
L 127.869438 119.45765 
L 127.971574 119.035583 
L 128.022641 119.339916 
L 128.175844 119.853434 
L 128.226912 119.583429 
L 128.380115 121.597447 
L 128.431183 121.37135 
L 128.482251 121.634081 
L 128.737589 122.536355 
L 128.788657 122.488328 
L 128.839725 122.103655 
L 128.890793 122.237663 
L 128.992928 122.8431 
L 129.095063 121.930898 
L 129.146131 122.014422 
L 129.197199 122.076162 
L 129.248267 122.340206 
L 129.350402 121.814424 
L 129.40147 121.855389 
L 129.503605 121.621962 
L 129.554673 121.880159 
L 129.605741 121.825807 
L 129.656808 121.822279 
L 129.758944 121.401 
L 129.810012 121.601928 
L 130.167486 123.46461 
L 130.320689 122.578268 
L 130.371757 123.105224 
L 130.422824 122.990629 
L 130.473892 123.000171 
L 130.627095 123.906528 
L 130.729231 123.682837 
L 131.18884 121.980636 
L 131.342043 123.085613 
L 131.495246 122.157135 
L 131.546314 122.499331 
L 131.597382 122.447024 
L 131.750585 121.350855 
L 131.801653 121.41494 
L 131.852721 121.951273 
L 131.903788 121.855443 
L 132.005924 121.681557 
L 132.056991 121.975845 
L 132.261262 120.932304 
L 132.31233 121.069598 
L 132.465533 120.621303 
L 132.516601 121.059566 
L 132.567669 120.607899 
L 132.618736 120.559014 
L 132.720872 120.509998 
L 132.823007 121.51249 
L 132.874075 121.087462 
L 132.925143 121.208683 
L 133.384752 122.824506 
L 133.43582 122.293936 
L 133.486888 122.787016 
L 133.589023 123.806572 
L 133.640091 123.701517 
L 133.691159 123.575249 
L 133.742226 123.603473 
L 133.89543 124.48417 
L 134.0997 124.949885 
L 134.201836 124.448469 
L 134.252904 124.481139 
L 134.457174 125.459261 
L 134.508242 125.252914 
L 134.610378 125.076255 
L 134.763581 122.73158 
L 134.865716 121.952536 
L 134.916784 122.046003 
L 135.121055 120.747216 
L 135.172123 120.933309 
L 135.22319 121.05718 
L 135.478529 119.816823 
L 135.580664 119.853199 
L 135.631732 119.662698 
L 135.784935 121.223833 
L 135.887071 120.193897 
L 135.938138 120.271886 
L 135.989206 120.266387 
L 136.040274 120.004098 
L 136.091342 120.124524 
L 136.193477 120.854945 
L 136.244545 119.870277 
L 136.295613 120.162205 
L 136.397748 120.16425 
L 136.704154 119.262453 
L 136.755222 119.229026 
L 136.80629 119.43059 
L 136.908425 121.285105 
L 136.959493 120.773601 
L 137.163764 121.025396 
L 137.214832 120.519604 
L 137.368035 121.392654 
L 137.419103 121.103711 
L 137.572306 121.932581 
L 137.623373 121.875033 
L 137.827644 122.517277 
L 137.92978 122.011074 
L 137.980847 122.252476 
L 138.031915 122.20767 
L 138.082983 122.315277 
L 138.236186 121.896115 
L 138.287254 122.04419 
L 138.338322 121.983999 
L 138.389389 121.31499 
L 138.440457 121.995742 
L 138.848999 120.42738 
L 138.951134 120.56887 
L 139.155405 121.854122 
L 139.308608 121.688494 
L 139.768218 123.293529 
L 139.921421 124.149287 
L 140.074624 123.332687 
L 140.17676 123.527331 
L 140.227827 123.600381 
L 140.329963 124.446335 
L 140.483166 123.844231 
L 140.534234 123.953582 
L 140.687437 123.049159 
L 140.738505 123.00189 
L 140.993843 121.624262 
L 141.095979 121.920211 
L 141.30025 120.956324 
L 141.351317 121.048848 
L 141.453453 122.100774 
L 141.50452 121.946073 
L 141.657724 121.677149 
L 141.861995 122.760241 
L 141.913062 122.501177 
L 141.96413 122.654289 
L 142.015198 122.837463 
L 142.066265 122.700355 
L 142.219469 121.13399 
L 142.321604 121.959365 
L 142.372672 121.906491 
L 142.423739 121.883302 
L 142.474807 121.497027 
L 142.525875 121.798609 
L 142.576943 122.352264 
L 142.679078 122.293853 
L 142.883349 121.61527 
L 143.036552 121.8905 
L 143.08762 121.864549 
L 143.240823 123.649091 
L 143.342959 123.312039 
L 143.445094 123.778319 
L 143.496162 123.722509 
L 143.598297 123.641968 
L 143.904703 125.22014 
L 143.955771 125.096993 
L 144.006839 126.0285 
L 144.057907 125.701314 
L 144.160042 124.591456 
L 144.21111 124.689234 
L 144.262178 124.930094 
L 144.364313 124.88813 
L 144.466448 124.159416 
L 144.517516 124.322413 
L 144.619652 121.659979 
L 144.670719 121.830652 
L 144.772855 122.350569 
L 144.823923 121.575377 
L 144.926058 121.63327 
L 144.977126 121.868822 
L 145.028193 120.893072 
L 145.079261 120.915389 
L 145.181397 121.447625 
L 145.232464 121.374703 
L 145.283532 121.317854 
L 145.3346 121.045453 
L 145.385667 121.110961 
L 145.487803 121.303286 
L 145.538871 120.954253 
L 145.589938 123.290868 
L 145.692074 123.05159 
L 145.896345 121.234094 
L 145.947412 121.461293 
L 146.049548 121.005888 
L 146.151683 121.378293 
L 146.202751 121.30475 
L 146.509157 120.033241 
L 146.611293 120.435577 
L 146.713428 119.935639 
L 146.917699 121.138078 
L 146.968767 120.660374 
L 147.019835 121.169652 
L 147.173038 121.893165 
L 147.224106 122.057052 
L 147.326241 122.973227 
L 147.377309 122.89827 
L 147.530512 123.195661 
L 147.683715 123.073394 
L 147.734783 123.277642 
L 147.785851 123.264213 
L 147.887986 123.017728 
L 147.990121 123.845052 
L 148.041189 123.293304 
L 148.143325 122.081823 
L 148.194392 122.639161 
L 148.24546 122.589027 
L 148.347595 122.154993 
L 148.398663 122.686262 
L 148.449731 122.60633 
L 148.551866 122.480121 
L 148.602934 122.248276 
L 148.654002 122.377955 
L 148.756137 122.678871 
L 149.062544 121.409204 
L 149.164679 121.957186 
L 149.471085 119.181299 
L 149.522153 119.191507 
L 149.573221 119.313495 
L 149.624289 119.226663 
L 149.777492 118.895118 
L 149.828559 119.031683 
L 149.879627 119.675995 
L 149.930695 119.44554 
L 149.981763 119.21514 
L 150.083898 120.121612 
L 150.134966 120.043967 
L 150.186034 120.07392 
L 150.339237 119.241586 
L 150.49244 121.510597 
L 150.849914 122.568225 
L 150.900982 122.484325 
L 151.003117 122.960305 
L 151.054185 122.677189 
L 151.105253 122.253535 
L 151.207388 122.285211 
L 151.258456 122.249548 
L 151.309523 121.987089 
L 151.360591 122.450036 
L 151.411659 122.438733 
L 151.564862 121.975099 
L 151.718065 121.444522 
L 151.769133 121.784079 
L 151.820201 121.426852 
L 151.871268 121.373274 
L 152.024472 120.671369 
L 152.433013 122.69799 
L 152.586217 121.966429 
L 152.637284 122.111516 
L 152.688352 121.994113 
L 152.841555 122.653428 
L 152.943691 122.437132 
L 153.199029 123.117182 
L 153.250097 122.683892 
L 153.301165 123.002118 
L 153.352232 123.129013 
L 153.4033 123.00144 
L 153.454368 122.973475 
L 153.556503 124.115408 
L 153.607571 123.981625 
L 153.658639 123.983416 
L 153.709707 124.10455 
L 153.760774 123.851336 
L 153.965045 124.930676 
L 154.016113 124.840138 
L 154.424655 123.283242 
L 154.475722 123.277554 
L 154.577858 122.734226 
L 154.731061 123.235269 
L 154.782129 123.264901 
L 154.9864 122.108419 
L 155.037467 122.160773 
L 155.139603 122.558037 
L 155.241738 121.619312 
L 155.292806 122.51587 
L 155.343874 122.217783 
L 155.394941 122.263561 
L 155.599212 121.397759 
L 155.803483 121.851364 
L 155.854551 121.993552 
L 155.956686 121.488944 
L 156.058822 121.915465 
L 156.10989 121.860355 
L 156.160957 121.863119 
L 156.263093 122.788117 
L 156.31416 122.735444 
L 156.365228 122.152733 
L 156.416296 122.542056 
L 156.722702 123.988312 
L 156.824838 123.463013 
L 156.875905 123.551789 
L 157.131244 125.335305 
L 157.182312 125.489186 
L 157.335515 123.784809 
L 157.488718 124.524342 
L 157.539786 124.72593 
L 157.692989 123.983577 
L 157.744057 124.141777 
L 157.795124 124.101305 
L 157.846192 124.557104 
L 157.89726 124.057211 
L 158.050463 123.615715 
L 158.152599 123.99066 
L 158.203666 123.842349 
L 158.305802 124.072665 
L 158.356869 125.177284 
L 158.407937 124.938694 
L 158.56114 118.269457 
L 158.612208 118.290995 
L 158.714344 118.621832 
L 159.02075 117.037556 
L 159.071818 116.933833 
L 159.225021 115.047906 
L 159.276088 115.024718 
L 159.429292 114.029075 
L 159.480359 117.224296 
L 159.582495 117.209822 
L 159.633563 117.392771 
L 159.68463 117.208398 
L 159.786766 116.51301 
L 159.837833 116.566192 
L 159.939969 116.555073 
L 160.14424 117.543662 
L 160.195308 117.52867 
L 160.297443 117.111767 
L 160.348511 117.198653 
L 160.399578 117.627883 
L 160.450646 117.283279 
L 160.501714 117.49965 
L 160.603849 117.466354 
L 160.705985 117.073949 
L 160.757052 117.248756 
L 160.859188 117.8805 
L 160.910256 117.39968 
L 160.961323 117.410112 
L 161.063459 117.664477 
L 161.114527 117.575823 
L 161.216662 117.732805 
L 161.369865 118.639486 
L 161.420933 118.473837 
L 161.778407 121.008582 
L 161.880542 120.783307 
L 162.084813 122.482107 
L 162.135881 122.258532 
L 162.289084 120.96694 
L 162.442287 121.318377 
L 162.544423 121.572576 
L 162.748694 120.087155 
L 162.952965 120.435294 
L 163.106168 119.77473 
L 163.157236 120.040257 
L 163.259371 121.879478 
L 163.310439 121.751718 
L 163.361506 121.510171 
L 163.412574 121.780184 
L 163.51471 121.171176 
L 163.565777 121.224762 
L 163.770048 122.636396 
L 163.974319 121.126983 
L 164.025387 121.186928 
L 164.17859 122.017192 
L 164.229658 121.663069 
L 164.280725 121.882956 
L 164.587132 122.895677 
L 164.740335 122.272159 
L 164.791403 122.32978 
L 164.995674 123.722918 
L 165.046741 123.496847 
L 165.199944 122.218859 
L 165.251012 122.385005 
L 165.30208 121.336906 
L 165.353148 121.570147 
L 165.404215 121.613668 
L 165.506351 121.021948 
L 165.557419 121.242587 
L 165.608486 121.503232 
L 165.710622 121.462045 
L 165.863825 122.042387 
L 165.914893 121.961281 
L 166.068096 121.69306 
L 166.527705 123.566767 
L 166.578773 123.425099 
L 166.680908 122.950825 
L 166.731976 123.55402 
L 166.885179 122.375406 
L 166.936247 122.130752 
L 166.987315 122.368822 
L 167.140518 122.180137 
L 167.395857 119.450711 
L 167.497992 119.604799 
L 167.600128 119.424569 
L 167.702263 119.795133 
L 167.753331 119.32985 
L 167.804398 119.542047 
L 167.855466 119.515988 
L 168.264008 122.418665 
L 168.315076 122.407811 
L 168.417211 123.520211 
L 168.468279 123.283214 
L 168.519347 123.080707 
L 168.570414 123.119915 
L 168.621482 123.720826 
L 168.67255 123.461836 
L 168.723617 122.771003 
L 168.774685 123.015679 
L 168.876821 123.933639 
L 168.927888 123.658 
L 168.978956 123.746302 
L 169.030024 123.557978 
L 169.234295 122.150403 
L 169.33643 121.846385 
L 169.591769 123.34012 
L 169.693904 122.846576 
L 169.79604 124.035302 
L 169.847107 123.788423 
L 170.051378 123.597625 
L 170.102446 123.705424 
L 170.153514 123.675464 
L 170.204581 123.532004 
L 170.306717 124.883377 
L 170.357785 124.342481 
L 170.562056 123.09458 
L 170.91953 124.690376 
L 170.970597 124.315824 
L 171.174868 123.14819 
L 171.225936 123.128384 
L 171.277004 122.905312 
L 171.328071 123.067186 
L 171.430207 124.5961 
L 171.481275 124.203656 
L 171.58341 124.481686 
L 171.838749 122.139331 
L 171.940884 121.2898 
L 172.04302 121.660741 
L 172.094087 121.832667 
L 172.145155 120.746362 
L 172.196223 121.058841 
L 172.24729 121.448309 
L 172.298358 121.397605 
L 172.502629 120.293597 
L 172.7069 121.351861 
L 172.757968 120.771353 
L 172.809035 120.916339 
L 172.911171 121.637206 
L 172.962239 121.472121 
L 173.064374 120.476203 
L 173.115442 120.933738 
L 173.166509 122.139191 
L 173.217577 121.931911 
L 173.319713 120.689208 
L 173.37078 120.836583 
L 173.523984 121.532318 
L 173.575051 121.534487 
L 173.677187 120.733629 
L 173.728254 120.860257 
L 173.779322 121.359877 
L 173.83039 121.118259 
L 173.932525 120.904841 
L 174.085728 122.420711 
L 174.136796 122.01196 
L 174.187864 121.650528 
L 174.238932 121.861374 
L 174.341067 123.082383 
L 174.392135 122.838243 
L 174.596406 121.681736 
L 174.698541 122.68554 
L 174.749609 122.340047 
L 174.851744 123.066504 
L 174.95388 122.997128 
L 175.260286 121.416057 
L 175.311354 121.568537 
L 175.362422 121.023352 
L 175.413489 121.177076 
L 175.464557 121.2366 
L 175.515625 121.168333 
L 175.566692 121.165116 
L 175.61776 121.296087 
L 175.668828 121.169842 
L 175.873099 120.363712 
L 176.07737 121.879234 
L 176.128437 121.784803 
L 176.179505 121.560652 
L 176.383776 122.513999 
L 176.485912 121.654138 
L 176.588047 122.766651 
L 176.639115 122.751825 
L 176.690182 122.680744 
L 176.74125 121.475958 
L 176.792318 121.577899 
L 176.894453 121.924613 
L 177.098724 121.010094 
L 177.20086 122.134491 
L 177.456198 120.807187 
L 177.609401 121.0659 
L 177.711537 121.08428 
L 177.86474 122.993964 
L 177.966876 123.304745 
L 178.069011 123.994451 
L 178.120079 123.678424 
L 178.222214 123.000372 
L 178.273282 123.082814 
L 178.477553 124.51278 
L 178.528621 124.988046 
L 178.579688 124.732821 
L 178.630756 124.669434 
L 178.732891 125.613725 
L 178.783959 125.427329 
L 178.835027 125.40636 
L 179.090365 124.566109 
L 179.141433 125.000165 
L 179.192501 124.950788 
L 179.396772 124.16899 
L 179.549975 125.195736 
L 179.805314 121.572961 
L 179.856381 121.493361 
L 179.907449 120.063756 
L 180.009585 120.137792 
L 180.213855 119.41246 
L 180.418126 120.025431 
L 180.571329 118.519443 
L 180.673465 119.409453 
L 180.724533 119.318097 
L 180.7756 119.606031 
L 180.826668 118.860594 
L 180.877736 119.05966 
L 181.030939 120.419477 
L 181.082007 120.597872 
L 181.184142 119.947562 
L 181.337345 121.048063 
L 181.439481 120.59067 
L 181.541616 121.378231 
L 181.592684 121.255246 
L 181.694819 120.900051 
L 181.796955 120.999491 
L 181.848023 123.391107 
L 181.950158 122.979882 
L 182.103361 122.339601 
L 182.205497 122.484484 
L 182.256564 122.103641 
L 182.307632 122.364202 
L 182.3587 122.481775 
L 182.409768 122.349907 
L 182.460835 122.372851 
L 182.511903 122.21004 
L 182.665106 123.312769 
L 182.716174 123.2469 
L 182.767242 122.731197 
L 182.818309 123.211997 
L 182.971513 122.755014 
L 183.073648 122.543088 
L 183.277919 123.305779 
L 183.380054 123.087129 
L 183.431122 123.449952 
L 183.686461 121.221197 
L 183.839664 121.051694 
L 184.043935 122.040869 
L 184.299273 120.327343 
L 184.350341 120.319482 
L 184.401409 120.621582 
L 184.452477 120.011954 
L 184.60568 121.400783 
L 184.758883 121.182891 
L 184.861018 120.583665 
L 185.014221 119.660779 
L 185.065289 119.706619 
L 185.26956 120.705076 
L 185.422763 119.385043 
L 185.473831 119.933772 
L 185.524899 119.510296 
L 185.627034 118.755564 
L 185.780237 120.100983 
L 185.831305 119.742602 
L 185.882373 119.842318 
L 185.933441 119.982841 
L 185.984508 119.769309 
L 186.035576 120.463017 
L 186.086644 120.41347 
L 186.137711 120.28552 
L 186.188779 120.307008 
L 186.239847 120.350573 
L 186.444118 121.806798 
L 186.495185 121.667237 
L 186.546253 121.70339 
L 186.648389 122.268927 
L 186.801592 120.999836 
L 186.954795 122.395895 
L 187.312269 121.113574 
L 187.618675 122.492384 
L 187.720811 122.263715 
L 187.771879 122.048772 
L 187.822946 122.708925 
L 187.874014 122.659603 
L 187.976149 122.168771 
L 188.027217 122.37959 
L 188.078285 122.160243 
L 188.129353 122.111473 
L 188.282556 121.539437 
L 188.333624 121.693008 
L 188.384691 121.662257 
L 188.537894 121.034006 
L 188.588962 121.39573 
L 188.691098 121.349492 
L 188.997504 122.464376 
L 189.048572 122.444173 
L 189.30391 124.223548 
L 189.610317 122.743547 
L 189.814588 121.928896 
L 190.069926 122.46932 
L 190.120994 122.442983 
L 190.172062 122.296962 
L 190.223129 122.453606 
L 190.274197 122.449201 
L 190.529536 124.354567 
L 190.631671 123.689202 
L 190.682739 124.170629 
L 190.733807 124.050239 
L 190.88701 123.75168 
L 190.989145 123.724506 
L 191.244484 121.987137 
L 191.295552 122.239942 
L 191.346619 122.129133 
L 191.499822 122.86759 
L 191.55089 122.677114 
L 191.653026 123.727364 
L 191.755161 122.475311 
L 191.908364 123.327432 
L 191.959432 123.322261 
L 192.112635 123.682581 
L 192.214771 123.357742 
L 192.367974 124.199814 
L 192.470109 123.938452 
L 192.521177 122.94909 
L 192.572245 123.7148 
L 192.67438 123.106086 
L 192.776516 124.628885 
L 192.827583 124.182072 
L 192.929719 123.680775 
L 192.980786 123.24464 
L 193.031854 123.363038 
L 193.082922 123.506579 
L 193.13399 123.386592 
L 193.185057 123.031839 
L 193.236125 123.349267 
L 193.593599 121.702093 
L 193.644667 122.32436 
L 193.746802 122.29759 
L 193.79787 122.228142 
L 193.848938 122.567194 
L 193.900005 122.05867 
L 193.951073 122.140755 
L 194.410683 123.483137 
L 194.46175 123.276101 
L 194.512818 123.315073 
L 194.563886 123.663225 
L 194.614954 123.638691 
L 194.768157 122.962521 
L 194.870292 122.509818 
L 195.023495 123.979624 
L 195.074563 123.89665 
L 195.125631 123.872206 
L 195.227766 122.981628 
L 195.278834 123.115703 
L 195.329902 123.148478 
L 195.534173 122.084617 
L 195.687376 122.695332 
L 195.840579 122.290458 
L 195.891647 122.205439 
L 195.942714 122.495486 
L 195.993782 122.169172 
L 196.04485 122.362685 
L 196.095918 122.299439 
L 196.146985 122.251056 
L 196.198053 122.418127 
L 196.249121 122.287082 
L 196.300189 122.051236 
L 196.504459 123.478853 
L 196.606595 123.374106 
L 196.861933 124.395203 
L 196.913001 124.434204 
L 197.117272 122.639839 
L 197.321543 123.269698 
L 197.525814 120.728095 
L 197.576882 121.019205 
L 197.627949 121.127948 
L 197.781153 120.920083 
L 197.83222 120.839201 
L 197.883288 121.036634 
L 197.934356 120.573828 
L 198.036491 121.503087 
L 198.087559 120.857204 
L 198.138627 121.176962 
L 198.189694 121.320309 
L 198.240762 120.740497 
L 198.29183 121.31226 
L 198.342897 121.174863 
L 198.393965 121.264941 
L 198.496101 122.61469 
L 198.547168 122.064168 
L 198.598236 121.984855 
L 198.751439 121.092887 
L 198.802507 120.920711 
L 198.904642 119.540199 
L 198.95571 119.720729 
L 199.006778 119.38153 
L 199.057846 119.402754 
L 199.159981 120.13664 
L 199.211049 119.615539 
L 199.262117 120.349007 
L 199.313184 119.95733 
L 199.517455 119.564102 
L 199.670658 121.334252 
L 199.721726 121.282823 
L 199.823862 119.788832 
L 199.977065 121.157914 
L 200.181336 120.633797 
L 200.232403 120.930147 
L 200.283471 120.423906 
L 200.334539 120.500086 
L 200.385606 120.927318 
L 200.436674 120.681975 
L 200.589877 120.558098 
L 200.640945 119.663787 
L 200.692013 119.84963 
L 200.743081 119.863052 
L 200.896284 121.712037 
L 201.049487 121.564469 
L 201.100555 121.475013 
L 201.151622 121.939854 
L 201.304826 120.563834 
L 201.406961 120.314589 
L 201.560164 121.271631 
L 201.611232 120.791032 
L 201.6623 121.553354 
L 201.815503 120.290248 
L 201.86657 119.927735 
L 201.917638 120.045189 
L 201.968706 120.394812 
L 202.019774 120.250935 
L 202.121909 120.028202 
L 202.121909 120.028202 
" clip-path="url(#p0d94e16f0e)" style="fill: none; stroke: #1f77b4; stroke-width: 1.2; stroke-linecap: round"/>
   </g>
   <g id="patch_3">
    <path d="M 42.331 120.966948 
L 42.331 43.970984 
" style="fill: none; stroke: #262626; stroke-linejoin: miter; stroke-linecap: square"/>
   </g>
   <g id="patch_4">
    <path d="M 49.940091 131.0685 
L 203.143264 131.0685 
" style="fill: none; stroke: #262626; stroke-linejoin: miter; stroke-linecap: square"/>
   </g>
   <g id="text_10">
    <!-- Variational inference convergence -->
    <g style="fill: #262626" transform="translate(53.81125 14.1885) scale(0.096 -0.096)">
     <defs>
      <path id="ArialMT-56" d="M 1803 0 
L 28 4581 
L 684 4581 
L 1875 1253 
Q 2019 853 2116 503 
Q 2222 878 2363 1253 
L 3600 4581 
L 4219 4581 
L 2425 0 
L 1803 0 
z
" transform="scale(0.015625)"/>
      <path id="ArialMT-6c" d="M 409 0 
L 409 4581 
L 972 4581 
L 972 0 
L 409 0 
z
" transform="scale(0.015625)"/>
      <path id="ArialMT-66" d="M 556 0 
L 556 2881 
L 59 2881 
L 59 3319 
L 556 3319 
L 556 3672 
Q 556 4006 616 4169 
Q 697 4388 901 4523 
Q 1106 4659 1475 4659 
Q 1713 4659 2000 4603 
L 1916 4113 
Q 1741 4144 1584 4144 
Q 1328 4144 1222 4034 
Q 1116 3925 1116 3625 
L 1116 3319 
L 1763 3319 
L 1763 2881 
L 1116 2881 
L 1116 0 
L 556 0 
z
" transform="scale(0.015625)"/>
      <path id="ArialMT-63" d="M 2588 1216 
L 3141 1144 
Q 3050 572 2676 248 
Q 2303 -75 1759 -75 
Q 1078 -75 664 370 
Q 250 816 250 1647 
Q 250 2184 428 2587 
Q 606 2991 970 3192 
Q 1334 3394 1763 3394 
Q 2303 3394 2647 3120 
Q 2991 2847 3088 2344 
L 2541 2259 
Q 2463 2594 2264 2762 
Q 2066 2931 1784 2931 
Q 1359 2931 1093 2626 
Q 828 2322 828 1663 
Q 828 994 1084 691 
Q 1341 388 1753 388 
Q 2084 388 2306 591 
Q 2528 794 2588 1216 
z
" transform="scale(0.015625)"/>
     </defs>
     <use xlink:href="#ArialMT-56"/>
     <use xlink:href="#ArialMT-61" transform="translate(59.324219 0)"/>
     <use xlink:href="#ArialMT-72" transform="translate(114.939453 0)"/>
     <use xlink:href="#ArialMT-69" transform="translate(148.240234 0)"/>
     <use xlink:href="#ArialMT-61" transform="translate(170.457031 0)"/>
     <use xlink:href="#ArialMT-74" transform="translate(226.072266 0)"/>
     <use xlink:href="#ArialMT-69" transform="translate(253.855469 0)"/>
     <use xlink:href="#ArialMT-6f" transform="translate(276.072266 0)"/>
     <use xlink:href="#ArialMT-6e" transform="translate(331.6875 0)"/>
     <use xlink:href="#ArialMT-61" transform="translate(387.302734 0)"/>
     <use xlink:href="#ArialMT-6c" transform="translate(442.917969 0)"/>
     <use xlink:href="#ArialMT-20" transform="translate(465.134766 0)"/>
     <use xlink:href="#ArialMT-69" transform="translate(492.917969 0)"/>
     <use xlink:href="#ArialMT-6e" transform="translate(515.134766 0)"/>
     <use xlink:href="#ArialMT-66" transform="translate(570.75 0)"/>
     <use xlink:href="#ArialMT-65" transform="translate(598.533203 0)"/>
     <use xlink:href="#ArialMT-72" transform="translate(654.148438 0)"/>
     <use xlink:href="#ArialMT-65" transform="translate(687.449219 0)"/>
     <use xlink:href="#ArialMT-6e" transform="translate(743.064453 0)"/>
     <use xlink:href="#ArialMT-63" transform="translate(798.679688 0)"/>
     <use xlink:href="#ArialMT-65" transform="translate(848.679688 0)"/>
     <use xlink:href="#ArialMT-20" transform="translate(904.294922 0)"/>
     <use xlink:href="#ArialMT-63" transform="translate(932.078125 0)"/>
     <use xlink:href="#ArialMT-6f" transform="translate(982.078125 0)"/>
     <use xlink:href="#ArialMT-6e" transform="translate(1037.693359 0)"/>
     <use xlink:href="#ArialMT-76" transform="translate(1093.308594 0)"/>
     <use xlink:href="#ArialMT-65" transform="translate(1143.308594 0)"/>
     <use xlink:href="#ArialMT-72" transform="translate(1198.923828 0)"/>
     <use xlink:href="#ArialMT-67" transform="translate(1232.224609 0)"/>
     <use xlink:href="#ArialMT-65" transform="translate(1287.839844 0)"/>
     <use xlink:href="#ArialMT-6e" transform="translate(1343.455078 0)"/>
     <use xlink:href="#ArialMT-63" transform="translate(1399.070312 0)"/>
     <use xlink:href="#ArialMT-65" transform="translate(1449.070312 0)"/>
    </g>
   </g>
  </g>
 </g>
 <defs>
  <clipPath id="p0d94e16f0e">
   <rect x="42.331" y="20.1885" width="167.4" height="110.88"/>
  </clipPath>
 </defs>
</svg>