<?xml version="1.0" encoding="utf-8" standalone="no"?>
<!DOCTYPE svg PUBLIC "-//W3C//DTD SVG 1.1//EN"
  "http://www.w3.org/Graphics/SVG/1.1/DTD/svg11.dtd">
<svg xmlns:xlink="http://www.w3.org/1999/xlink" width="425.507375pt" height="570.878625pt" viewBox="0 0 425.507375 570.878625" xmlns="http://www.w3.org/2000/svg" version="1.1">
 <metadata>
  <rdf:RDF xmlns:dc="http://purl.org/dc/elements/1.1/" xmlns:cc="http://creativecommons.org/ns#" xmlns:rdf="http://www.w3.org/1999/02/22-rdf-syntax-ns#">
   <cc:Work>
    <dc:type rdf:resource="http://purl.org/dc/dcmitype/StillImage"/>
    <dc:date>2024-09-27T20:18:26.018577</dc:date>
    <dc:format>image/svg+xml</dc:format>
    <dc:creator>
     <cc:Agent>
      <dc:title>Matplotlib v3.9.0, https://matplotlib.org/</dc:title>
     </cc:Agent>
    </dc:creator>
   </cc:Work>
  </rdf:RDF>
 </metadata>
 <defs>
  <style type="text/css">*{stroke-linejoin: round; stroke-linecap: butt}</style>
 </defs>
 <g id="figure_1">
  <g id="patch_1">
   <path d="M 0 570.878625 
L 425.507375 570.878625 
L 425.507375 0 
L 0 0 
z
" style="fill: #ffffff"/>
  </g>
  <g id="axes_1">
   <g id="patch_2">
    <path d="M 45.634625 263.40525 
L 418.307375 263.40525 
L 418.307375 20.1885 
L 45.634625 20.1885 
z
" style="fill: #ffffff"/>
   </g>
   <g id="matplotlib.axis_1">
    <g id="xtick_1">
     <g id="line2d_1">
      <defs>
       <path id="mde1823cf2c" d="M 0 0 
L 0 4.8 
" style="stroke: #262626"/>
      </defs>
      <g>
       <use xlink:href="#mde1823cf2c" x="62.234823" y="263.40525" style="fill: #262626; stroke: #262626"/>
      </g>
     </g>
    </g>
    <g id="xtick_2">
     <g id="line2d_2">
      <g>
       <use xlink:href="#mde1823cf2c" x="130.061399" y="263.40525" style="fill: #262626; stroke: #262626"/>
      </g>
     </g>
    </g>
    <g id="xtick_3">
     <g id="line2d_3">
      <g>
       <use xlink:href="#mde1823cf2c" x="197.887976" y="263.40525" style="fill: #262626; stroke: #262626"/>
      </g>
     </g>
    </g>
    <g id="xtick_4">
     <g id="line2d_4">
      <g>
       <use xlink:href="#mde1823cf2c" x="265.714552" y="263.40525" style="fill: #262626; stroke: #262626"/>
      </g>
     </g>
    </g>
    <g id="xtick_5">
     <g id="line2d_5">
      <g>
       <use xlink:href="#mde1823cf2c" x="333.541128" y="263.40525" style="fill: #262626; stroke: #262626"/>
      </g>
     </g>
    </g>
    <g id="xtick_6">
     <g id="line2d_6">
      <g>
       <use xlink:href="#mde1823cf2c" x="401.367705" y="263.40525" style="fill: #262626; stroke: #262626"/>
      </g>
     </g>
    </g>
   </g>
   <g id="matplotlib.axis_2">
    <g id="ytick_1">
     <g id="line2d_7">
      <defs>
       <path id="m402151d6be" d="M 0 0 
L -4.8 0 
" style="stroke: #262626"/>
      </defs>
      <g>
       <use xlink:href="#m402151d6be" x="45.634625" y="242.251265" style="fill: #262626; stroke: #262626"/>
      </g>
     </g>
     <g id="text_1">
      <!-- 0.94 -->
      <g style="fill: #262626" transform="translate(20.209 245.400703) scale(0.088 -0.088)">
       <defs>
        <path id="ArialMT-30" d="M 266 2259 
Q 266 3072 433 3567 
Q 600 4063 929 4331 
Q 1259 4600 1759 4600 
Q 2128 4600 2406 4451 
Q 2684 4303 2865 4023 
Q 3047 3744 3150 3342 
Q 3253 2941 3253 2259 
Q 3253 1453 3087 958 
Q 2922 463 2592 192 
Q 2263 -78 1759 -78 
Q 1097 -78 719 397 
Q 266 969 266 2259 
z
M 844 2259 
Q 844 1131 1108 757 
Q 1372 384 1759 384 
Q 2147 384 2411 759 
Q 2675 1134 2675 2259 
Q 2675 3391 2411 3762 
Q 2147 4134 1753 4134 
Q 1366 4134 1134 3806 
Q 844 3388 844 2259 
z
" transform="scale(0.015625)"/>
        <path id="ArialMT-2e" d="M 581 0 
L 581 641 
L 1222 641 
L 1222 0 
L 581 0 
z
" transform="scale(0.015625)"/>
        <path id="ArialMT-39" d="M 350 1059 
L 891 1109 
Q 959 728 1153 556 
Q 1347 384 1650 384 
Q 1909 384 2104 503 
Q 2300 622 2425 820 
Q 2550 1019 2634 1356 
Q 2719 1694 2719 2044 
Q 2719 2081 2716 2156 
Q 2547 1888 2255 1720 
Q 1963 1553 1622 1553 
Q 1053 1553 659 1965 
Q 266 2378 266 3053 
Q 266 3750 677 4175 
Q 1088 4600 1706 4600 
Q 2153 4600 2523 4359 
Q 2894 4119 3086 3673 
Q 3278 3228 3278 2384 
Q 3278 1506 3087 986 
Q 2897 466 2520 194 
Q 2144 -78 1638 -78 
Q 1100 -78 759 220 
Q 419 519 350 1059 
z
M 2653 3081 
Q 2653 3566 2395 3850 
Q 2138 4134 1775 4134 
Q 1400 4134 1122 3828 
Q 844 3522 844 3034 
Q 844 2597 1108 2323 
Q 1372 2050 1759 2050 
Q 2150 2050 2401 2323 
Q 2653 2597 2653 3081 
z
" transform="scale(0.015625)"/>
        <path id="ArialMT-34" d="M 2069 0 
L 2069 1097 
L 81 1097 
L 81 1613 
L 2172 4581 
L 2631 4581 
L 2631 1613 
L 3250 1613 
L 3250 1097 
L 2631 1097 
L 2631 0 
L 2069 0 
z
M 2069 1613 
L 2069 3678 
L 634 1613 
L 2069 1613 
z
" transform="scale(0.015625)"/>
       </defs>
       <use xlink:href="#ArialMT-30"/>
       <use xlink:href="#ArialMT-2e" x="55.615234"/>
       <use xlink:href="#ArialMT-39" x="83.398438"/>
       <use xlink:href="#ArialMT-34" x="139.013672"/>
      </g>
     </g>
    </g>
    <g id="ytick_2">
     <g id="line2d_8">
      <g>
       <use xlink:href="#m402151d6be" x="45.634625" y="208.672117" style="fill: #262626; stroke: #262626"/>
      </g>
     </g>
     <g id="text_2">
      <!-- 0.96 -->
      <g style="fill: #262626" transform="translate(20.209 211.821554) scale(0.088 -0.088)">
       <defs>
        <path id="ArialMT-36" d="M 3184 3459 
L 2625 3416 
Q 2550 3747 2413 3897 
Q 2184 4138 1850 4138 
Q 1581 4138 1378 3988 
Q 1113 3794 959 3422 
Q 806 3050 800 2363 
Q 1003 2672 1297 2822 
Q 1591 2972 1913 2972 
Q 2475 2972 2870 2558 
Q 3266 2144 3266 1488 
Q 3266 1056 3080 686 
Q 2894 316 2569 119 
Q 2244 -78 1831 -78 
Q 1128 -78 684 439 
Q 241 956 241 2144 
Q 241 3472 731 4075 
Q 1159 4600 1884 4600 
Q 2425 4600 2770 4297 
Q 3116 3994 3184 3459 
z
M 888 1484 
Q 888 1194 1011 928 
Q 1134 663 1356 523 
Q 1578 384 1822 384 
Q 2178 384 2434 671 
Q 2691 959 2691 1453 
Q 2691 1928 2437 2201 
Q 2184 2475 1800 2475 
Q 1419 2475 1153 2201 
Q 888 1928 888 1484 
z
" transform="scale(0.015625)"/>
       </defs>
       <use xlink:href="#ArialMT-30"/>
       <use xlink:href="#ArialMT-2e" x="55.615234"/>
       <use xlink:href="#ArialMT-39" x="83.398438"/>
       <use xlink:href="#ArialMT-36" x="139.013672"/>
      </g>
     </g>
    </g>
    <g id="ytick_3">
     <g id="line2d_9">
      <g>
       <use xlink:href="#m402151d6be" x="45.634625" y="175.092968" style="fill: #262626; stroke: #262626"/>
      </g>
     </g>
     <g id="text_3">
      <!-- 0.98 -->
      <g style="fill: #262626" transform="translate(20.209 178.242406) scale(0.088 -0.088)">
       <defs>
        <path id="ArialMT-38" d="M 1131 2484 
Q 781 2613 612 2850 
Q 444 3088 444 3419 
Q 444 3919 803 4259 
Q 1163 4600 1759 4600 
Q 2359 4600 2725 4251 
Q 3091 3903 3091 3403 
Q 3091 3084 2923 2848 
Q 2756 2613 2416 2484 
Q 2838 2347 3058 2040 
Q 3278 1734 3278 1309 
Q 3278 722 2862 322 
Q 2447 -78 1769 -78 
Q 1091 -78 675 323 
Q 259 725 259 1325 
Q 259 1772 486 2073 
Q 713 2375 1131 2484 
z
M 1019 3438 
Q 1019 3113 1228 2906 
Q 1438 2700 1772 2700 
Q 2097 2700 2305 2904 
Q 2513 3109 2513 3406 
Q 2513 3716 2298 3927 
Q 2084 4138 1766 4138 
Q 1444 4138 1231 3931 
Q 1019 3725 1019 3438 
z
M 838 1322 
Q 838 1081 952 856 
Q 1066 631 1291 507 
Q 1516 384 1775 384 
Q 2178 384 2440 643 
Q 2703 903 2703 1303 
Q 2703 1709 2433 1975 
Q 2163 2241 1756 2241 
Q 1359 2241 1098 1978 
Q 838 1716 838 1322 
z
" transform="scale(0.015625)"/>
       </defs>
       <use xlink:href="#ArialMT-30"/>
       <use xlink:href="#ArialMT-2e" x="55.615234"/>
       <use xlink:href="#ArialMT-39" x="83.398438"/>
       <use xlink:href="#ArialMT-38" x="139.013672"/>
      </g>
     </g>
    </g>
    <g id="ytick_4">
     <g id="line2d_10">
      <g>
       <use xlink:href="#m402151d6be" x="45.634625" y="141.51382" style="fill: #262626; stroke: #262626"/>
      </g>
     </g>
     <g id="text_4">
      <!-- 1.00 -->
      <g style="fill: #262626" transform="translate(20.209 144.663257) scale(0.088 -0.088)">
       <defs>
        <path id="ArialMT-31" d="M 2384 0 
L 1822 0 
L 1822 3584 
Q 1619 3391 1289 3197 
Q 959 3003 697 2906 
L 697 3450 
Q 1169 3672 1522 3987 
Q 1875 4303 2022 4600 
L 2384 4600 
L 2384 0 
z
" transform="scale(0.015625)"/>
       </defs>
       <use xlink:href="#ArialMT-31"/>
       <use xlink:href="#ArialMT-2e" x="55.615234"/>
       <use xlink:href="#ArialMT-30" x="83.398438"/>
       <use xlink:href="#ArialMT-30" x="139.013672"/>
      </g>
     </g>
    </g>
    <g id="ytick_5">
     <g id="line2d_11">
      <g>
       <use xlink:href="#m402151d6be" x="45.634625" y="107.934671" style="fill: #262626; stroke: #262626"/>
      </g>
     </g>
     <g id="text_5">
      <!-- 1.02 -->
      <g style="fill: #262626" transform="translate(20.209 111.084109) scale(0.088 -0.088)">
       <defs>
        <path id="ArialMT-32" d="M 3222 541 
L 3222 0 
L 194 0 
Q 188 203 259 391 
Q 375 700 629 1000 
Q 884 1300 1366 1694 
Q 2113 2306 2375 2664 
Q 2638 3022 2638 3341 
Q 2638 3675 2398 3904 
Q 2159 4134 1775 4134 
Q 1369 4134 1125 3890 
Q 881 3647 878 3216 
L 300 3275 
Q 359 3922 746 4261 
Q 1134 4600 1788 4600 
Q 2447 4600 2831 4234 
Q 3216 3869 3216 3328 
Q 3216 3053 3103 2787 
Q 2991 2522 2730 2228 
Q 2469 1934 1863 1422 
Q 1356 997 1212 845 
Q 1069 694 975 541 
L 3222 541 
z
" transform="scale(0.015625)"/>
       </defs>
       <use xlink:href="#ArialMT-31"/>
       <use xlink:href="#ArialMT-2e" x="55.615234"/>
       <use xlink:href="#ArialMT-30" x="83.398438"/>
       <use xlink:href="#ArialMT-32" x="139.013672"/>
      </g>
     </g>
    </g>
    <g id="ytick_6">
     <g id="line2d_12">
      <g>
       <use xlink:href="#m402151d6be" x="45.634625" y="74.355523" style="fill: #262626; stroke: #262626"/>
      </g>
     </g>
     <g id="text_6">
      <!-- 1.04 -->
      <g style="fill: #262626" transform="translate(20.209 77.50496) scale(0.088 -0.088)">
       <use xlink:href="#ArialMT-31"/>
       <use xlink:href="#ArialMT-2e" x="55.615234"/>
       <use xlink:href="#ArialMT-30" x="83.398438"/>
       <use xlink:href="#ArialMT-34" x="139.013672"/>
      </g>
     </g>
    </g>
    <g id="ytick_7">
     <g id="line2d_13">
      <g>
       <use xlink:href="#m402151d6be" x="45.634625" y="40.776374" style="fill: #262626; stroke: #262626"/>
      </g>
     </g>
     <g id="text_7">
      <!-- 1.06 -->
      <g style="fill: #262626" transform="translate(20.209 43.925812) scale(0.088 -0.088)">
       <use xlink:href="#ArialMT-31"/>
       <use xlink:href="#ArialMT-2e" x="55.615234"/>
       <use xlink:href="#ArialMT-30" x="83.398438"/>
       <use xlink:href="#ArialMT-36" x="139.013672"/>
      </g>
     </g>
    </g>
    <g id="text_8">
     <!-- Sensitivity Indices -->
     <g style="fill: #262626" transform="translate(14.1885 179.944875) rotate(-90) scale(0.096 -0.096)">
      <defs>
       <path id="ArialMT-53" d="M 288 1472 
L 859 1522 
Q 900 1178 1048 958 
Q 1197 738 1509 602 
Q 1822 466 2213 466 
Q 2559 466 2825 569 
Q 3091 672 3220 851 
Q 3350 1031 3350 1244 
Q 3350 1459 3225 1620 
Q 3100 1781 2813 1891 
Q 2628 1963 1997 2114 
Q 1366 2266 1113 2400 
Q 784 2572 623 2826 
Q 463 3081 463 3397 
Q 463 3744 659 4045 
Q 856 4347 1234 4503 
Q 1613 4659 2075 4659 
Q 2584 4659 2973 4495 
Q 3363 4331 3572 4012 
Q 3781 3694 3797 3291 
L 3216 3247 
Q 3169 3681 2898 3903 
Q 2628 4125 2100 4125 
Q 1550 4125 1298 3923 
Q 1047 3722 1047 3438 
Q 1047 3191 1225 3031 
Q 1400 2872 2139 2705 
Q 2878 2538 3153 2413 
Q 3553 2228 3743 1945 
Q 3934 1663 3934 1294 
Q 3934 928 3725 604 
Q 3516 281 3123 101 
Q 2731 -78 2241 -78 
Q 1619 -78 1198 103 
Q 778 284 539 648 
Q 300 1013 288 1472 
z
" transform="scale(0.015625)"/>
       <path id="ArialMT-65" d="M 2694 1069 
L 3275 997 
Q 3138 488 2766 206 
Q 2394 -75 1816 -75 
Q 1088 -75 661 373 
Q 234 822 234 1631 
Q 234 2469 665 2931 
Q 1097 3394 1784 3394 
Q 2450 3394 2872 2941 
Q 3294 2488 3294 1666 
Q 3294 1616 3291 1516 
L 816 1516 
Q 847 969 1125 678 
Q 1403 388 1819 388 
Q 2128 388 2347 550 
Q 2566 713 2694 1069 
z
M 847 1978 
L 2700 1978 
Q 2663 2397 2488 2606 
Q 2219 2931 1791 2931 
Q 1403 2931 1139 2672 
Q 875 2413 847 1978 
z
" transform="scale(0.015625)"/>
       <path id="ArialMT-6e" d="M 422 0 
L 422 3319 
L 928 3319 
L 928 2847 
Q 1294 3394 1984 3394 
Q 2284 3394 2536 3286 
Q 2788 3178 2913 3003 
Q 3038 2828 3088 2588 
Q 3119 2431 3119 2041 
L 3119 0 
L 2556 0 
L 2556 2019 
Q 2556 2363 2490 2533 
Q 2425 2703 2258 2804 
Q 2091 2906 1866 2906 
Q 1506 2906 1245 2678 
Q 984 2450 984 1813 
L 984 0 
L 422 0 
z
" transform="scale(0.015625)"/>
       <path id="ArialMT-73" d="M 197 991 
L 753 1078 
Q 800 744 1014 566 
Q 1228 388 1613 388 
Q 2000 388 2187 545 
Q 2375 703 2375 916 
Q 2375 1106 2209 1216 
Q 2094 1291 1634 1406 
Q 1016 1563 777 1677 
Q 538 1791 414 1992 
Q 291 2194 291 2438 
Q 291 2659 392 2848 
Q 494 3038 669 3163 
Q 800 3259 1026 3326 
Q 1253 3394 1513 3394 
Q 1903 3394 2198 3281 
Q 2494 3169 2634 2976 
Q 2775 2784 2828 2463 
L 2278 2388 
Q 2241 2644 2061 2787 
Q 1881 2931 1553 2931 
Q 1166 2931 1000 2803 
Q 834 2675 834 2503 
Q 834 2394 903 2306 
Q 972 2216 1119 2156 
Q 1203 2125 1616 2013 
Q 2213 1853 2448 1751 
Q 2684 1650 2818 1456 
Q 2953 1263 2953 975 
Q 2953 694 2789 445 
Q 2625 197 2315 61 
Q 2006 -75 1616 -75 
Q 969 -75 630 194 
Q 291 463 197 991 
z
" transform="scale(0.015625)"/>
       <path id="ArialMT-69" d="M 425 3934 
L 425 4581 
L 988 4581 
L 988 3934 
L 425 3934 
z
M 425 0 
L 425 3319 
L 988 3319 
L 988 0 
L 425 0 
z
" transform="scale(0.015625)"/>
       <path id="ArialMT-74" d="M 1650 503 
L 1731 6 
Q 1494 -44 1306 -44 
Q 1000 -44 831 53 
Q 663 150 594 308 
Q 525 466 525 972 
L 525 2881 
L 113 2881 
L 113 3319 
L 525 3319 
L 525 4141 
L 1084 4478 
L 1084 3319 
L 1650 3319 
L 1650 2881 
L 1084 2881 
L 1084 941 
Q 1084 700 1114 631 
Q 1144 563 1211 522 
Q 1278 481 1403 481 
Q 1497 481 1650 503 
z
" transform="scale(0.015625)"/>
       <path id="ArialMT-76" d="M 1344 0 
L 81 3319 
L 675 3319 
L 1388 1331 
Q 1503 1009 1600 663 
Q 1675 925 1809 1294 
L 2547 3319 
L 3125 3319 
L 1869 0 
L 1344 0 
z
" transform="scale(0.015625)"/>
       <path id="ArialMT-79" d="M 397 -1278 
L 334 -750 
Q 519 -800 656 -800 
Q 844 -800 956 -737 
Q 1069 -675 1141 -563 
Q 1194 -478 1313 -144 
Q 1328 -97 1363 -6 
L 103 3319 
L 709 3319 
L 1400 1397 
Q 1534 1031 1641 628 
Q 1738 1016 1872 1384 
L 2581 3319 
L 3144 3319 
L 1881 -56 
Q 1678 -603 1566 -809 
Q 1416 -1088 1222 -1217 
Q 1028 -1347 759 -1347 
Q 597 -1347 397 -1278 
z
" transform="scale(0.015625)"/>
       <path id="ArialMT-20" transform="scale(0.015625)"/>
       <path id="ArialMT-49" d="M 597 0 
L 597 4581 
L 1203 4581 
L 1203 0 
L 597 0 
z
" transform="scale(0.015625)"/>
       <path id="ArialMT-64" d="M 2575 0 
L 2575 419 
Q 2259 -75 1647 -75 
Q 1250 -75 917 144 
Q 584 363 401 755 
Q 219 1147 219 1656 
Q 219 2153 384 2558 
Q 550 2963 881 3178 
Q 1213 3394 1622 3394 
Q 1922 3394 2156 3267 
Q 2391 3141 2538 2938 
L 2538 4581 
L 3097 4581 
L 3097 0 
L 2575 0 
z
M 797 1656 
Q 797 1019 1065 703 
Q 1334 388 1700 388 
Q 2069 388 2326 689 
Q 2584 991 2584 1609 
Q 2584 2291 2321 2609 
Q 2059 2928 1675 2928 
Q 1300 2928 1048 2622 
Q 797 2316 797 1656 
z
" transform="scale(0.015625)"/>
       <path id="ArialMT-63" d="M 2588 1216 
L 3141 1144 
Q 3050 572 2676 248 
Q 2303 -75 1759 -75 
Q 1078 -75 664 370 
Q 250 816 250 1647 
Q 250 2184 428 2587 
Q 606 2991 970 3192 
Q 1334 3394 1763 3394 
Q 2303 3394 2647 3120 
Q 2991 2847 3088 2344 
L 2541 2259 
Q 2463 2594 2264 2762 
Q 2066 2931 1784 2931 
Q 1359 2931 1093 2626 
Q 828 2322 828 1663 
Q 828 994 1084 691 
Q 1341 388 1753 388 
Q 2084 388 2306 591 
Q 2528 794 2588 1216 
z
" transform="scale(0.015625)"/>
      </defs>
      <use xlink:href="#ArialMT-53"/>
      <use xlink:href="#ArialMT-65" x="66.699219"/>
      <use xlink:href="#ArialMT-6e" x="122.314453"/>
      <use xlink:href="#ArialMT-73" x="177.929688"/>
      <use xlink:href="#ArialMT-69" x="227.929688"/>
      <use xlink:href="#ArialMT-74" x="250.146484"/>
      <use xlink:href="#ArialMT-69" x="277.929688"/>
      <use xlink:href="#ArialMT-76" x="300.146484"/>
      <use xlink:href="#ArialMT-69" x="350.146484"/>
      <use xlink:href="#ArialMT-74" x="372.363281"/>
      <use xlink:href="#ArialMT-79" x="400.146484"/>
      <use xlink:href="#ArialMT-20" x="450.146484"/>
      <use xlink:href="#ArialMT-49" x="477.929688"/>
      <use xlink:href="#ArialMT-6e" x="505.712891"/>
      <use xlink:href="#ArialMT-64" x="561.328125"/>
      <use xlink:href="#ArialMT-69" x="616.943359"/>
      <use xlink:href="#ArialMT-63" x="639.160156"/>
      <use xlink:href="#ArialMT-65" x="689.160156"/>
      <use xlink:href="#ArialMT-73" x="744.775391"/>
     </g>
    </g>
   </g>
   <g id="line2d_14">
    <path d="M 62.574295 141.899177 
L 62.913768 141.535797 
L 63.592713 141.62055 
L 65.290074 141.659802 
L 68.684798 141.777898 
L 71.740049 142.093009 
L 77.171607 142.831521 
L 79.547913 142.710331 
L 85.658416 142.146308 
L 87.016305 141.673066 
L 88.374195 141.104063 
L 88.713667 141.047102 
L 89.053139 141.115801 
L 89.392611 141.386517 
L 89.732085 141.966627 
L 90.411029 144.117407 
L 91.089974 146.152174 
L 91.429444 146.496495 
L 91.768918 146.439106 
L 92.447862 145.753166 
L 93.46628 144.583617 
L 94.484695 143.785741 
L 95.503113 143.348995 
L 96.521531 143.187496 
L 97.87942 143.23887 
L 99.916253 143.366651 
L 100.934671 143.178483 
L 101.613615 142.864946 
L 102.29256 142.342415 
L 102.971507 141.545838 
L 103.650451 140.371983 
L 104.329396 138.672301 
L 105.00834 136.220205 
L 105.687284 133.711513 
L 106.026758 135.438788 
L 106.705702 157.228685 
L 107.045173 159.122107 
L 108.063591 151.798486 
L 108.742535 148.887961 
L 109.42148 147.086856 
L 110.100424 145.923343 
L 110.779368 145.164101 
L 111.458316 144.683663 
L 112.476731 144.308808 
L 113.834622 144.136665 
L 115.531982 143.88525 
L 116.5504 143.478274 
L 117.568818 142.772877 
L 118.587236 141.719497 
L 119.605654 140.278815 
L 120.624065 138.384906 
L 122.321431 134.492506 
L 122.660902 134.714634 
L 123.000372 137.290511 
L 123.67932 151.667007 
L 124.01879 154.47185 
L 124.358261 153.459797 
L 125.376679 148.144383 
L 126.055626 145.990038 
L 126.734567 144.595515 
L 127.413515 143.654784 
L 128.431933 142.740923 
L 129.450351 142.169766 
L 130.80824 141.689773 
L 132.505599 141.334331 
L 134.202964 141.21235 
L 135.560853 141.35645 
L 136.579271 141.665469 
L 137.597683 142.196346 
L 138.616101 142.999425 
L 139.634519 144.129449 
L 140.652937 145.65542 
L 141.671355 147.673132 
L 142.689773 150.329546 
L 143.708191 153.882387 
L 144.387132 156.974904 
L 145.06608 160.943851 
L 145.745021 166.269162 
L 146.423968 173.897502 
L 147.102909 185.880452 
L 147.442386 194.828812 
L 147.781857 207.034916 
L 148.800275 252.349943 
L 149.139746 213.530459 
L 149.479216 153.85621 
L 149.818693 124.960329 
L 150.158164 117.461791 
L 150.497634 117.516711 
L 151.176582 122.469251 
L 152.195 129.606192 
L 152.873941 133.146506 
L 153.892359 137.066204 
L 154.910777 139.787233 
L 155.929195 141.63951 
L 156.608136 142.498343 
L 157.287084 143.109901 
L 157.966025 143.516079 
L 158.984443 143.818762 
L 160.002861 143.856471 
L 161.70022 143.607879 
L 166.79231 142.537136 
L 167.810722 141.960124 
L 168.48967 141.320803 
L 169.168617 140.366528 
L 169.847558 138.947856 
L 170.526506 136.831902 
L 171.205453 133.74697 
L 171.544917 132.006623 
L 171.884394 131.274693 
L 172.223871 136.328847 
L 172.902812 177.019953 
L 173.242276 174.463808 
L 173.92123 161.989207 
L 174.600172 155.116616 
L 175.279113 151.080922 
L 175.958067 148.375231 
L 176.637008 146.414563 
L 177.315949 144.946649 
L 177.99489 143.847654 
L 178.673844 143.04732 
L 179.352785 142.496964 
L 180.031726 142.153607 
L 181.050144 141.931506 
L 184.105398 141.685454 
L 184.784339 141.327828 
L 185.463293 140.723677 
L 186.142234 139.804998 
L 186.821175 138.491849 
L 187.500117 136.670974 
L 188.179071 134.153945 
L 188.858012 130.580876 
L 189.536953 125.339893 
L 189.87643 122.190473 
L 190.215907 121.233208 
L 190.555371 143.811231 
L 190.894848 250.183592 
L 191.234312 227.137768 
L 191.573789 191.264758 
L 191.913266 174.145285 
L 192.25273 164.866734 
L 192.931684 155.251266 
L 193.610625 150.336269 
L 194.289566 147.386595 
L 194.968507 145.482572 
L 195.647461 144.224577 
L 196.326402 143.403195 
L 197.005343 142.89067 
L 197.684297 142.595986 
L 198.702715 142.414128 
L 202.436911 142.100582 
L 203.794793 141.649034 
L 206.51057 140.624084 
L 207.189524 140.563839 
L 207.868465 140.75365 
L 208.207929 141.018531 
L 208.547406 141.484306 
L 208.886883 142.292852 
L 209.226347 143.718924 
L 209.905301 148.852487 
L 210.244765 146.414177 
L 210.584242 141.534936 
L 210.923719 139.281999 
L 211.263183 138.511585 
L 211.60266 138.290167 
L 212.281601 138.361873 
L 213.639496 138.96141 
L 216.355274 140.187109 
L 218.052633 140.66292 
L 220.089469 140.937819 
L 222.126305 141.202472 
L 223.484187 141.630652 
L 224.502605 142.20931 
L 225.521023 143.095084 
L 226.539441 144.373949 
L 227.55786 146.149505 
L 228.576278 148.570449 
L 229.255219 150.657893 
L 229.93416 153.259952 
L 230.613114 156.582433 
L 231.292055 160.996198 
L 231.970996 167.231826 
L 232.64995 176.853836 
L 233.328891 193.175155 
L 234.007832 213.76856 
L 234.347309 200.074037 
L 234.686773 154.581322 
L 235.02625 124.030599 
L 235.365727 116.71259 
L 235.705191 117.88923 
L 237.063086 129.67816 
L 237.742027 133.637233 
L 238.420968 136.543356 
L 239.099922 138.701726 
L 239.778863 140.308691 
L 240.457804 141.494345 
L 241.136758 142.352185 
L 241.8157 142.952755 
L 242.834118 143.493885 
L 243.852536 143.742857 
L 245.549895 143.837053 
L 249.623567 143.730652 
L 250.641985 143.462804 
L 251.320926 143.107536 
L 251.999867 142.53475 
L 252.678808 141.65145 
L 253.357762 140.31399 
L 254.036703 138.280298 
L 254.715645 135.135003 
L 255.394599 130.77218 
L 255.734063 130.367323 
L 256.07354 141.321689 
L 256.413004 172.082796 
L 256.752481 180.540559 
L 257.431422 166.233673 
L 258.110376 157.961794 
L 258.789317 153.401926 
L 259.468258 150.448172 
L 260.147199 148.328485 
L 261.165617 146.064438 
L 262.184035 144.527692 
L 263.202453 143.52022 
L 264.220871 142.916346 
L 265.239289 142.596657 
L 268.294544 141.928667 
L 269.312962 141.293361 
L 269.991903 140.62877 
L 270.670844 139.723529 
L 271.349798 138.530043 
L 272.028739 136.985286 
L 272.70768 134.988977 
L 273.386621 132.374832 
L 274.065575 128.926825 
L 274.744516 125.423255 
L 275.083993 127.069008 
L 275.423457 143.519982 
L 275.762934 186.775146 
L 276.102411 196.67497 
L 276.781352 170.091963 
L 277.120829 162.571595 
L 277.79977 154.10957 
L 278.478711 149.6042 
L 279.157652 146.854983 
L 279.836593 145.046654 
L 280.515547 143.812604 
L 281.194501 142.961973 
L 281.87343 142.379677 
L 282.891848 141.849195 
L 283.910266 141.58167 
L 285.607638 141.41972 
L 288.662892 141.410733 
L 290.020774 141.618334 
L 291.039192 142.028538 
L 291.718146 142.511075 
L 292.397074 143.24827 
L 293.076028 144.36527 
L 293.754957 146.079236 
L 294.433911 148.808273 
L 295.112865 153.35103 
L 295.791793 159.712071 
L 296.131283 159.332135 
L 296.470747 148.745737 
L 296.810211 134.257446 
L 297.149701 127.8679 
L 297.489165 127.110437 
L 297.828629 128.131596 
L 298.847047 132.021811 
L 299.865465 134.828854 
L 300.883883 136.839465 
L 301.902301 138.337306 
L 302.920719 139.453853 
L 303.939137 140.259811 
L 304.957555 140.811262 
L 306.315437 141.258295 
L 309.710182 142.106207 
L 310.728574 142.634605 
L 311.746992 143.429968 
L 312.76541 144.564048 
L 313.783828 146.118687 
L 314.802246 148.216399 
L 315.4812 150.02318 
L 316.160154 152.296972 
L 316.839082 155.264471 
L 317.518036 159.323536 
L 318.875918 169.438919 
L 319.215382 164.44754 
L 319.894336 131.283251 
L 320.233801 124.933208 
L 320.57329 125.229655 
L 321.931173 133.878962 
L 322.610127 136.671486 
L 323.289055 138.627988 
L 323.968009 140.015274 
L 324.646963 141.000616 
L 325.325891 141.693098 
L 326.344309 142.341548 
L 327.362727 142.678541 
L 328.720609 142.863978 
L 332.794281 143.034453 
L 334.152189 142.936058 
L 335.170608 142.646191 
L 335.849536 142.281236 
L 336.52849 141.721196 
L 337.207418 140.896328 
L 337.886372 139.703136 
L 338.565326 137.982962 
L 339.244254 135.571793 
L 339.583744 134.231701 
L 339.923208 133.457437 
L 340.262672 135.473968 
L 340.602162 144.993993 
L 340.941626 158.71139 
L 341.28109 163.278446 
L 341.62058 161.283189 
L 342.299508 155.542242 
L 342.978462 151.730918 
L 343.657416 149.230996 
L 344.336344 147.461807 
L 345.354762 145.601314 
L 346.37318 144.343115 
L 347.391599 143.50169 
L 348.410017 142.97017 
L 349.767899 142.593815 
L 353.162643 141.981781 
L 354.181035 141.527566 
L 355.199453 140.826453 
L 356.217871 139.834121 
L 357.236289 138.503412 
L 358.254707 136.759194 
L 359.612615 134.022865 
L 359.952079 133.993872 
L 360.291543 135.717612 
L 360.631033 141.672094 
L 360.970497 151.917749 
L 361.309962 157.827931 
L 361.649452 156.854528 
L 362.32838 151.170469 
L 363.007334 147.473289 
L 363.686262 145.306849 
L 364.365216 143.963225 
L 365.04417 143.092225 
L 365.723098 142.516606 
L 366.741516 141.997456 
L 367.759934 141.727974 
L 369.457306 141.550587 
L 372.17307 141.523933 
L 373.870442 141.684153 
L 374.888861 141.941207 
L 375.907279 142.408663 
L 376.925697 143.194245 
L 377.604651 143.973317 
L 378.283579 145.040783 
L 378.962533 146.515904 
L 379.641461 148.587948 
L 380.320415 151.549031 
L 381.338833 157.582053 
L 381.678297 158.212417 
L 382.017787 154.785084 
L 383.036205 129.242494 
L 383.375669 127.683983 
L 383.715133 128.124559 
L 386.091459 135.603113 
L 387.109877 137.604231 
L 388.128295 139.078673 
L 389.146688 140.149421 
L 390.165106 140.898424 
L 391.183524 141.397918 
L 392.541432 141.808183 
L 395.596686 142.589264 
L 396.954568 143.252284 
L 397.972986 143.97709 
L 398.991404 144.934033 
L 400.009822 146.165766 
L 401.02824 147.754905 
L 401.367705 148.388702 
L 401.367705 148.388702 
" clip-path="url(#pd8064b26ee)" style="fill: none; stroke: #1f77b4; stroke-width: 1.2; stroke-linecap: round"/>
   </g>
   <g id="line2d_15">
    <path d="M 62.574295 141.49049 
L 63.592713 141.519997 
L 77.171607 141.497871 
L 87.695249 141.755844 
L 88.713667 141.617472 
L 89.392611 141.290225 
L 90.071556 140.640939 
L 90.7505 140.001959 
L 91.089974 139.907958 
L 91.768918 140.148153 
L 93.126807 140.902944 
L 94.484695 141.328494 
L 96.182058 141.549271 
L 99.237309 141.628964 
L 101.953089 141.810814 
L 103.989922 141.979884 
L 104.329396 141.911761 
L 104.668866 141.727706 
L 105.00834 141.310429 
L 105.347811 140.391383 
L 105.687284 138.321495 
L 106.026758 133.791781 
L 106.366229 127.169544 
L 106.705702 126.432761 
L 107.384647 134.945405 
L 107.724117 137.215198 
L 108.063591 138.580472 
L 108.742535 140.039634 
L 109.42148 140.75312 
L 110.100424 141.147322 
L 111.118842 141.454859 
L 112.476731 141.61862 
L 117.229347 141.772821 
L 119.605654 141.791258 
L 120.624065 141.600507 
L 121.303013 141.229869 
L 121.642484 140.879413 
L 121.981961 140.315588 
L 122.321431 139.381392 
L 122.660902 137.819964 
L 123.339849 133.023413 
L 123.67932 133.016207 
L 124.358261 137.567302 
L 124.697738 139.073899 
L 125.037208 140.004068 
L 125.716156 140.963616 
L 126.395097 141.389558 
L 127.413515 141.658909 
L 129.110874 141.773307 
L 132.845069 141.688789 
L 142.010826 141.30487 
L 143.029244 141.017896 
L 144.047662 140.470931 
L 144.726603 139.845673 
L 145.40555 138.84139 
L 146.084491 137.133146 
L 146.423968 135.806777 
L 146.763439 133.94334 
L 147.102909 131.220033 
L 147.442386 127.044473 
L 147.781857 120.269814 
L 148.121328 108.637776 
L 148.460798 88.35231 
L 148.800275 59.429724 
L 149.139746 48.416092 
L 150.158164 119.240208 
L 150.497634 128.012935 
L 150.837105 132.93557 
L 151.176582 135.864498 
L 151.516052 137.699482 
L 152.195 139.705772 
L 152.873941 140.652946 
L 153.552888 141.123559 
L 154.5713 141.420549 
L 155.929195 141.504704 
L 170.526506 141.366785 
L 170.865976 141.174128 
L 171.205453 140.775224 
L 171.544917 139.911109 
L 171.884394 137.910964 
L 172.223871 133.224432 
L 172.563335 126.041275 
L 172.902812 126.421941 
L 173.242276 131.871228 
L 173.581753 135.491677 
L 173.92123 137.490687 
L 174.260695 138.657943 
L 174.939649 139.899786 
L 175.61859 140.530842 
L 176.637008 141.039255 
L 177.99489 141.37756 
L 180.031726 141.594762 
L 186.821175 141.865008 
L 187.839594 141.738705 
L 188.518535 141.323451 
L 188.858012 140.84453 
L 189.197489 139.957745 
L 189.536953 138.19704 
L 189.87643 134.248816 
L 190.215907 123.478593 
L 190.555371 86.084515 
L 190.894848 31.243807 
L 191.234312 94.072895 
L 191.573789 122.012554 
L 191.913266 131.504457 
L 192.25273 135.623143 
L 192.592207 137.762096 
L 192.931684 139.014014 
L 193.610625 140.343962 
L 194.289566 140.989806 
L 194.968507 141.339704 
L 195.986925 141.606627 
L 197.684297 141.762316 
L 201.757957 141.785665 
L 207.528988 141.746366 
L 208.207929 141.57273 
L 208.547406 141.383534 
L 208.886883 141.02843 
L 209.226347 140.306552 
L 209.565824 138.743437 
L 209.905301 135.980525 
L 210.244765 135.197319 
L 210.923719 139.396598 
L 211.263183 140.330802 
L 211.60266 140.830663 
L 212.281601 141.302951 
L 213.300019 141.567212 
L 214.997379 141.694283 
L 218.39211 141.674016 
L 227.55786 141.360846 
L 228.915755 141.094005 
L 229.93416 140.66506 
L 230.613114 140.159832 
L 231.292055 139.318189 
L 231.631532 138.680391 
L 231.970996 137.805342 
L 232.310473 136.563372 
L 232.64995 134.724027 
L 232.989414 131.855267 
L 233.328891 127.10613 
L 233.668368 118.84299 
L 234.347309 90.668343 
L 234.686773 96.046071 
L 235.365727 126.476223 
L 235.705191 133.011871 
L 236.044668 136.476769 
L 236.384145 138.420151 
L 236.723609 139.570949 
L 237.063086 140.282627 
L 237.742027 141.030183 
L 238.420968 141.347401 
L 239.439386 141.503445 
L 241.476223 141.488438 
L 246.907777 141.423646 
L 253.357762 141.349211 
L 254.036703 141.186224 
L 254.37618 140.993759 
L 254.715645 140.627974 
L 255.055122 139.892192 
L 255.394599 138.27928 
L 255.734063 134.394921 
L 256.413004 118.873373 
L 257.091958 132.787631 
L 257.431422 136.127584 
L 257.770899 137.889964 
L 258.110376 138.919741 
L 258.789317 140.028559 
L 259.468258 140.598286 
L 260.486676 141.059867 
L 261.844571 141.365705 
L 263.881407 141.561599 
L 268.634021 141.703607 
L 271.689262 141.706702 
L 272.70768 141.44696 
L 273.386621 140.917898 
L 273.726098 140.38905 
L 274.065575 139.489603 
L 274.405039 137.856258 
L 274.744516 134.604527 
L 275.083993 127.398846 
L 275.762934 97.131669 
L 276.441875 126.677041 
L 276.781352 133.426565 
L 277.120829 136.696501 
L 277.460293 138.460367 
L 277.79977 139.503542 
L 278.478711 140.605979 
L 279.157652 141.130869 
L 280.176083 141.496725 
L 281.533966 141.681984 
L 284.24973 141.754428 
L 293.754957 141.653434 
L 294.433911 141.376648 
L 294.773375 141.087397 
L 295.112865 140.581036 
L 295.452329 139.654351 
L 295.791793 137.925838 
L 296.470747 132.819731 
L 296.810211 133.985092 
L 297.489165 138.388453 
L 297.828629 139.511873 
L 298.507583 140.636313 
L 299.186537 141.1347 
L 300.204955 141.469512 
L 301.562837 141.631059 
L 304.278601 141.653415 
L 312.76541 141.36937 
L 314.802246 141.095099 
L 315.820664 140.787272 
L 316.499618 140.431992 
L 317.178572 139.827685 
L 317.518036 139.351567 
L 317.8575 138.670838 
L 318.19699 137.65971 
L 318.536454 136.115423 
L 319.215382 131.192444 
L 319.554872 130.606681 
L 320.57329 139.059945 
L 320.912755 140.21022 
L 321.252219 140.828188 
L 321.931173 141.358864 
L 322.610127 141.523888 
L 323.968009 141.559611 
L 331.096935 141.475193 
L 337.207418 141.393153 
L 338.225836 141.214485 
L 338.90479 140.835309 
L 339.244254 140.421627 
L 339.583744 139.663825 
L 339.923208 138.208947 
L 340.262672 135.47315 
L 340.602162 131.759551 
L 340.941626 130.96551 
L 341.62058 136.540495 
L 341.960044 138.22809 
L 342.299508 139.240194 
L 342.978462 140.297145 
L 343.657416 140.806353 
L 344.675808 141.190298 
L 346.033716 141.428512 
L 348.410017 141.590833 
L 355.199453 141.729185 
L 357.236289 141.639925 
L 358.254707 141.357888 
L 358.933661 140.857935 
L 359.273125 140.382962 
L 359.612615 139.605446 
L 359.952079 138.282727 
L 360.291543 136.034571 
L 360.631033 132.831802 
L 360.970497 130.931623 
L 361.309962 132.91114 
L 361.988916 138.237032 
L 362.32838 139.527437 
L 362.667844 140.291027 
L 363.346798 141.063109 
L 364.025752 141.400713 
L 365.04417 141.611261 
L 367.081006 141.712168 
L 377.265161 141.713524 
L 378.962533 141.558911 
L 379.641461 141.35741 
L 380.320415 140.927246 
L 380.659879 140.537239 
L 380.999369 139.933761 
L 381.338833 138.995191 
L 382.357251 135.195805 
L 382.696715 135.995671 
L 383.375669 138.896384 
L 384.054623 140.427932 
L 384.733551 141.095917 
L 385.412505 141.40967 
L 386.430923 141.609972 
L 388.128295 141.680829 
L 394.238778 141.535868 
L 399.330868 141.294775 
L 401.367705 141.002759 
L 401.367705 141.002759 
" clip-path="url(#pd8064b26ee)" style="fill: none; stroke: #ff7f0e; stroke-width: 1.2; stroke-linecap: round"/>
   </g>
   <g id="patch_3">
    <path d="M 45.634625 242.251265 
L 45.634625 40.776374 
" style="fill: none; stroke: #262626; stroke-linejoin: miter; stroke-linecap: square"/>
   </g>
   <g id="patch_4">
    <path d="M 62.234823 263.40525 
L 401.367705 263.40525 
" style="fill: none; stroke: #262626; stroke-linejoin: miter; stroke-linecap: square"/>
   </g>
   <g id="text_9">
    <!-- Sensitivity Indices for x(t) -->
    <g style="fill: #262626" transform="translate(178.625 14.1885) scale(0.096 -0.096)">
     <defs>
      <path id="ArialMT-66" d="M 556 0 
L 556 2881 
L 59 2881 
L 59 3319 
L 556 3319 
L 556 3672 
Q 556 4006 616 4169 
Q 697 4388 901 4523 
Q 1106 4659 1475 4659 
Q 1713 4659 2000 4603 
L 1916 4113 
Q 1741 4144 1584 4144 
Q 1328 4144 1222 4034 
Q 1116 3925 1116 3625 
L 1116 3319 
L 1763 3319 
L 1763 2881 
L 1116 2881 
L 1116 0 
L 556 0 
z
" transform="scale(0.015625)"/>
      <path id="ArialMT-6f" d="M 213 1659 
Q 213 2581 725 3025 
Q 1153 3394 1769 3394 
Q 2453 3394 2887 2945 
Q 3322 2497 3322 1706 
Q 3322 1066 3130 698 
Q 2938 331 2570 128 
Q 2203 -75 1769 -75 
Q 1072 -75 642 372 
Q 213 819 213 1659 
z
M 791 1659 
Q 791 1022 1069 705 
Q 1347 388 1769 388 
Q 2188 388 2466 706 
Q 2744 1025 2744 1678 
Q 2744 2294 2464 2611 
Q 2184 2928 1769 2928 
Q 1347 2928 1069 2612 
Q 791 2297 791 1659 
z
" transform="scale(0.015625)"/>
      <path id="ArialMT-72" d="M 416 0 
L 416 3319 
L 922 3319 
L 922 2816 
Q 1116 3169 1280 3281 
Q 1444 3394 1641 3394 
Q 1925 3394 2219 3213 
L 2025 2691 
Q 1819 2813 1613 2813 
Q 1428 2813 1281 2702 
Q 1134 2591 1072 2394 
Q 978 2094 978 1738 
L 978 0 
L 416 0 
z
" transform="scale(0.015625)"/>
      <path id="ArialMT-78" d="M 47 0 
L 1259 1725 
L 138 3319 
L 841 3319 
L 1350 2541 
Q 1494 2319 1581 2169 
Q 1719 2375 1834 2534 
L 2394 3319 
L 3066 3319 
L 1919 1756 
L 3153 0 
L 2463 0 
L 1781 1031 
L 1600 1309 
L 728 0 
L 47 0 
z
" transform="scale(0.015625)"/>
      <path id="ArialMT-28" d="M 1497 -1347 
Q 1031 -759 709 28 
Q 388 816 388 1659 
Q 388 2403 628 3084 
Q 909 3875 1497 4659 
L 1900 4659 
Q 1522 4009 1400 3731 
Q 1209 3300 1100 2831 
Q 966 2247 966 1656 
Q 966 153 1900 -1347 
L 1497 -1347 
z
" transform="scale(0.015625)"/>
      <path id="ArialMT-29" d="M 791 -1347 
L 388 -1347 
Q 1322 153 1322 1656 
Q 1322 2244 1188 2822 
Q 1081 3291 891 3722 
Q 769 4003 388 4659 
L 791 4659 
Q 1378 3875 1659 3084 
Q 1900 2403 1900 1659 
Q 1900 816 1576 28 
Q 1253 -759 791 -1347 
z
" transform="scale(0.015625)"/>
     </defs>
     <use xlink:href="#ArialMT-53"/>
     <use xlink:href="#ArialMT-65" x="66.699219"/>
     <use xlink:href="#ArialMT-6e" x="122.314453"/>
     <use xlink:href="#ArialMT-73" x="177.929688"/>
     <use xlink:href="#ArialMT-69" x="227.929688"/>
     <use xlink:href="#ArialMT-74" x="250.146484"/>
     <use xlink:href="#ArialMT-69" x="277.929688"/>
     <use xlink:href="#ArialMT-76" x="300.146484"/>
     <use xlink:href="#ArialMT-69" x="350.146484"/>
     <use xlink:href="#ArialMT-74" x="372.363281"/>
     <use xlink:href="#ArialMT-79" x="400.146484"/>
     <use xlink:href="#ArialMT-20" x="450.146484"/>
     <use xlink:href="#ArialMT-49" x="477.929688"/>
     <use xlink:href="#ArialMT-6e" x="505.712891"/>
     <use xlink:href="#ArialMT-64" x="561.328125"/>
     <use xlink:href="#ArialMT-69" x="616.943359"/>
     <use xlink:href="#ArialMT-63" x="639.160156"/>
     <use xlink:href="#ArialMT-65" x="689.160156"/>
     <use xlink:href="#ArialMT-73" x="744.775391"/>
     <use xlink:href="#ArialMT-20" x="794.775391"/>
     <use xlink:href="#ArialMT-66" x="822.558594"/>
     <use xlink:href="#ArialMT-6f" x="850.341797"/>
     <use xlink:href="#ArialMT-72" x="905.957031"/>
     <use xlink:href="#ArialMT-20" x="939.257812"/>
     <use xlink:href="#ArialMT-78" x="967.041016"/>
     <use xlink:href="#ArialMT-28" x="1017.041016"/>
     <use xlink:href="#ArialMT-74" x="1050.341797"/>
     <use xlink:href="#ArialMT-29" x="1078.125"/>
    </g>
   </g>
   <g id="legend_1">
    <g id="line2d_16">
     <path d="M 285.51675 31.440125 
L 294.31675 31.440125 
L 303.11675 31.440125 
" style="fill: none; stroke: #1f77b4; stroke-width: 1.2; stroke-linecap: round"/>
    </g>
    <g id="text_10">
     <!-- First Order Indices for x(t) -->
     <g style="fill: #262626" transform="translate(310.15675 34.520125) scale(0.088 -0.088)">
      <defs>
       <path id="ArialMT-46" d="M 525 0 
L 525 4581 
L 3616 4581 
L 3616 4041 
L 1131 4041 
L 1131 2622 
L 3281 2622 
L 3281 2081 
L 1131 2081 
L 1131 0 
L 525 0 
z
" transform="scale(0.015625)"/>
       <path id="ArialMT-4f" d="M 309 2231 
Q 309 3372 921 4017 
Q 1534 4663 2503 4663 
Q 3138 4663 3647 4359 
Q 4156 4056 4423 3514 
Q 4691 2972 4691 2284 
Q 4691 1588 4409 1038 
Q 4128 488 3612 205 
Q 3097 -78 2500 -78 
Q 1853 -78 1343 234 
Q 834 547 571 1087 
Q 309 1628 309 2231 
z
M 934 2222 
Q 934 1394 1379 917 
Q 1825 441 2497 441 
Q 3181 441 3623 922 
Q 4066 1403 4066 2288 
Q 4066 2847 3877 3264 
Q 3688 3681 3323 3911 
Q 2959 4141 2506 4141 
Q 1863 4141 1398 3698 
Q 934 3256 934 2222 
z
" transform="scale(0.015625)"/>
      </defs>
      <use xlink:href="#ArialMT-46"/>
      <use xlink:href="#ArialMT-69" x="61.083984"/>
      <use xlink:href="#ArialMT-72" x="83.300781"/>
      <use xlink:href="#ArialMT-73" x="116.601562"/>
      <use xlink:href="#ArialMT-74" x="166.601562"/>
      <use xlink:href="#ArialMT-20" x="194.384766"/>
      <use xlink:href="#ArialMT-4f" x="222.167969"/>
      <use xlink:href="#ArialMT-72" x="299.951172"/>
      <use xlink:href="#ArialMT-64" x="333.251953"/>
      <use xlink:href="#ArialMT-65" x="388.867188"/>
      <use xlink:href="#ArialMT-72" x="444.482422"/>
      <use xlink:href="#ArialMT-20" x="477.783203"/>
      <use xlink:href="#ArialMT-49" x="505.566406"/>
      <use xlink:href="#ArialMT-6e" x="533.349609"/>
      <use xlink:href="#ArialMT-64" x="588.964844"/>
      <use xlink:href="#ArialMT-69" x="644.580078"/>
      <use xlink:href="#ArialMT-63" x="666.796875"/>
      <use xlink:href="#ArialMT-65" x="716.796875"/>
      <use xlink:href="#ArialMT-73" x="772.412109"/>
      <use xlink:href="#ArialMT-20" x="822.412109"/>
      <use xlink:href="#ArialMT-66" x="850.195312"/>
      <use xlink:href="#ArialMT-6f" x="877.978516"/>
      <use xlink:href="#ArialMT-72" x="933.59375"/>
      <use xlink:href="#ArialMT-20" x="966.894531"/>
      <use xlink:href="#ArialMT-78" x="994.677734"/>
      <use xlink:href="#ArialMT-28" x="1044.677734"/>
      <use xlink:href="#ArialMT-74" x="1077.978516"/>
      <use xlink:href="#ArialMT-29" x="1105.761719"/>
     </g>
    </g>
    <g id="line2d_17">
     <path d="M 285.51675 44.098375 
L 294.31675 44.098375 
L 303.11675 44.098375 
" style="fill: none; stroke: #ff7f0e; stroke-width: 1.2; stroke-linecap: round"/>
    </g>
    <g id="text_11">
     <!-- Total Indices for x(t) -->
     <g style="fill: #262626" transform="translate(310.15675 47.178375) scale(0.088 -0.088)">
      <defs>
       <path id="ArialMT-54" d="M 1659 0 
L 1659 4041 
L 150 4041 
L 150 4581 
L 3781 4581 
L 3781 4041 
L 2266 4041 
L 2266 0 
L 1659 0 
z
" transform="scale(0.015625)"/>
       <path id="ArialMT-61" d="M 2588 409 
Q 2275 144 1986 34 
Q 1697 -75 1366 -75 
Q 819 -75 525 192 
Q 231 459 231 875 
Q 231 1119 342 1320 
Q 453 1522 633 1644 
Q 813 1766 1038 1828 
Q 1203 1872 1538 1913 
Q 2219 1994 2541 2106 
Q 2544 2222 2544 2253 
Q 2544 2597 2384 2738 
Q 2169 2928 1744 2928 
Q 1347 2928 1158 2789 
Q 969 2650 878 2297 
L 328 2372 
Q 403 2725 575 2942 
Q 747 3159 1072 3276 
Q 1397 3394 1825 3394 
Q 2250 3394 2515 3294 
Q 2781 3194 2906 3042 
Q 3031 2891 3081 2659 
Q 3109 2516 3109 2141 
L 3109 1391 
Q 3109 606 3145 398 
Q 3181 191 3288 0 
L 2700 0 
Q 2613 175 2588 409 
z
M 2541 1666 
Q 2234 1541 1622 1453 
Q 1275 1403 1131 1340 
Q 988 1278 909 1158 
Q 831 1038 831 891 
Q 831 666 1001 516 
Q 1172 366 1500 366 
Q 1825 366 2078 508 
Q 2331 650 2450 897 
Q 2541 1088 2541 1459 
L 2541 1666 
z
" transform="scale(0.015625)"/>
       <path id="ArialMT-6c" d="M 409 0 
L 409 4581 
L 972 4581 
L 972 0 
L 409 0 
z
" transform="scale(0.015625)"/>
      </defs>
      <use xlink:href="#ArialMT-54"/>
      <use xlink:href="#ArialMT-6f" x="49.958984"/>
      <use xlink:href="#ArialMT-74" x="105.574219"/>
      <use xlink:href="#ArialMT-61" x="133.357422"/>
      <use xlink:href="#ArialMT-6c" x="188.972656"/>
      <use xlink:href="#ArialMT-20" x="211.189453"/>
      <use xlink:href="#ArialMT-49" x="238.972656"/>
      <use xlink:href="#ArialMT-6e" x="266.755859"/>
      <use xlink:href="#ArialMT-64" x="322.371094"/>
      <use xlink:href="#ArialMT-69" x="377.986328"/>
      <use xlink:href="#ArialMT-63" x="400.203125"/>
      <use xlink:href="#ArialMT-65" x="450.203125"/>
      <use xlink:href="#ArialMT-73" x="505.818359"/>
      <use xlink:href="#ArialMT-20" x="555.818359"/>
      <use xlink:href="#ArialMT-66" x="583.601562"/>
      <use xlink:href="#ArialMT-6f" x="611.384766"/>
      <use xlink:href="#ArialMT-72" x="667"/>
      <use xlink:href="#ArialMT-20" x="700.300781"/>
      <use xlink:href="#ArialMT-78" x="728.083984"/>
      <use xlink:href="#ArialMT-28" x="778.083984"/>
      <use xlink:href="#ArialMT-74" x="811.384766"/>
      <use xlink:href="#ArialMT-29" x="839.167969"/>
     </g>
    </g>
   </g>
  </g>
  <g id="axes_2">
   <g id="patch_5">
    <path d="M 45.634625 534.55125 
L 418.307375 534.55125 
L 418.307375 291.3345 
L 45.634625 291.3345 
z
" style="fill: #ffffff"/>
   </g>
   <g id="matplotlib.axis_3">
    <g id="xtick_7">
     <g id="line2d_18">
      <g>
       <use xlink:href="#mde1823cf2c" x="62.234823" y="534.55125" style="fill: #262626; stroke: #262626"/>
      </g>
     </g>
     <g id="text_12">
      <!-- 0 -->
      <g style="fill: #262626" transform="translate(59.788011 549.150125) scale(0.088 -0.088)">
       <use xlink:href="#ArialMT-30"/>
      </g>
     </g>
    </g>
    <g id="xtick_8">
     <g id="line2d_19">
      <g>
       <use xlink:href="#mde1823cf2c" x="130.061399" y="534.55125" style="fill: #262626; stroke: #262626"/>
      </g>
     </g>
     <g id="text_13">
      <!-- 10 -->
      <g style="fill: #262626" transform="translate(125.167774 549.150125) scale(0.088 -0.088)">
       <use xlink:href="#ArialMT-31"/>
       <use xlink:href="#ArialMT-30" x="55.615234"/>
      </g>
     </g>
    </g>
    <g id="xtick_9">
     <g id="line2d_20">
      <g>
       <use xlink:href="#mde1823cf2c" x="197.887976" y="534.55125" style="fill: #262626; stroke: #262626"/>
      </g>
     </g>
     <g id="text_14">
      <!-- 20 -->
      <g style="fill: #262626" transform="translate(192.994351 549.150125) scale(0.088 -0.088)">
       <use xlink:href="#ArialMT-32"/>
       <use xlink:href="#ArialMT-30" x="55.615234"/>
      </g>
     </g>
    </g>
    <g id="xtick_10">
     <g id="line2d_21">
      <g>
       <use xlink:href="#mde1823cf2c" x="265.714552" y="534.55125" style="fill: #262626; stroke: #262626"/>
      </g>
     </g>
     <g id="text_15">
      <!-- 30 -->
      <g style="fill: #262626" transform="translate(260.820927 549.150125) scale(0.088 -0.088)">
       <defs>
        <path id="ArialMT-33" d="M 269 1209 
L 831 1284 
Q 928 806 1161 595 
Q 1394 384 1728 384 
Q 2125 384 2398 659 
Q 2672 934 2672 1341 
Q 2672 1728 2419 1979 
Q 2166 2231 1775 2231 
Q 1616 2231 1378 2169 
L 1441 2663 
Q 1497 2656 1531 2656 
Q 1891 2656 2178 2843 
Q 2466 3031 2466 3422 
Q 2466 3731 2256 3934 
Q 2047 4138 1716 4138 
Q 1388 4138 1169 3931 
Q 950 3725 888 3313 
L 325 3413 
Q 428 3978 793 4289 
Q 1159 4600 1703 4600 
Q 2078 4600 2393 4439 
Q 2709 4278 2876 4000 
Q 3044 3722 3044 3409 
Q 3044 3113 2884 2869 
Q 2725 2625 2413 2481 
Q 2819 2388 3044 2092 
Q 3269 1797 3269 1353 
Q 3269 753 2831 336 
Q 2394 -81 1725 -81 
Q 1122 -81 723 278 
Q 325 638 269 1209 
z
" transform="scale(0.015625)"/>
       </defs>
       <use xlink:href="#ArialMT-33"/>
       <use xlink:href="#ArialMT-30" x="55.615234"/>
      </g>
     </g>
    </g>
    <g id="xtick_11">
     <g id="line2d_22">
      <g>
       <use xlink:href="#mde1823cf2c" x="333.541128" y="534.55125" style="fill: #262626; stroke: #262626"/>
      </g>
     </g>
     <g id="text_16">
      <!-- 40 -->
      <g style="fill: #262626" transform="translate(328.647503 549.150125) scale(0.088 -0.088)">
       <use xlink:href="#ArialMT-34"/>
       <use xlink:href="#ArialMT-30" x="55.615234"/>
      </g>
     </g>
    </g>
    <g id="xtick_12">
     <g id="line2d_23">
      <g>
       <use xlink:href="#mde1823cf2c" x="401.367705" y="534.55125" style="fill: #262626; stroke: #262626"/>
      </g>
     </g>
     <g id="text_17">
      <!-- 50 -->
      <g style="fill: #262626" transform="translate(396.47408 549.150125) scale(0.088 -0.088)">
       <defs>
        <path id="ArialMT-35" d="M 266 1200 
L 856 1250 
Q 922 819 1161 601 
Q 1400 384 1738 384 
Q 2144 384 2425 690 
Q 2706 997 2706 1503 
Q 2706 1984 2436 2262 
Q 2166 2541 1728 2541 
Q 1456 2541 1237 2417 
Q 1019 2294 894 2097 
L 366 2166 
L 809 4519 
L 3088 4519 
L 3088 3981 
L 1259 3981 
L 1013 2750 
Q 1425 3038 1878 3038 
Q 2478 3038 2890 2622 
Q 3303 2206 3303 1553 
Q 3303 931 2941 478 
Q 2500 -78 1738 -78 
Q 1113 -78 717 272 
Q 322 622 266 1200 
z
" transform="scale(0.015625)"/>
       </defs>
       <use xlink:href="#ArialMT-35"/>
       <use xlink:href="#ArialMT-30" x="55.615234"/>
      </g>
     </g>
    </g>
    <g id="text_18">
     <!-- t -->
     <g style="fill: #262626" transform="translate(230.6375 561.770625) scale(0.096 -0.096)">
      <use xlink:href="#ArialMT-74"/>
     </g>
    </g>
   </g>
   <g id="matplotlib.axis_4">
    <g id="ytick_8">
     <g id="line2d_24">
      <g>
       <use xlink:href="#m402151d6be" x="45.634625" y="495.981184" style="fill: #262626; stroke: #262626"/>
      </g>
     </g>
     <g id="text_19">
      <!-- 0.96 -->
      <g style="fill: #262626" transform="translate(20.209 499.130622) scale(0.088 -0.088)">
       <use xlink:href="#ArialMT-30"/>
       <use xlink:href="#ArialMT-2e" x="55.615234"/>
       <use xlink:href="#ArialMT-39" x="83.398438"/>
       <use xlink:href="#ArialMT-36" x="139.013672"/>
      </g>
     </g>
    </g>
    <g id="ytick_9">
     <g id="line2d_25">
      <g>
       <use xlink:href="#m402151d6be" x="45.634625" y="449.879901" style="fill: #262626; stroke: #262626"/>
      </g>
     </g>
     <g id="text_20">
      <!-- 0.98 -->
      <g style="fill: #262626" transform="translate(20.209 453.029338) scale(0.088 -0.088)">
       <use xlink:href="#ArialMT-30"/>
       <use xlink:href="#ArialMT-2e" x="55.615234"/>
       <use xlink:href="#ArialMT-39" x="83.398438"/>
       <use xlink:href="#ArialMT-38" x="139.013672"/>
      </g>
     </g>
    </g>
    <g id="ytick_10">
     <g id="line2d_26">
      <g>
       <use xlink:href="#m402151d6be" x="45.634625" y="403.778617" style="fill: #262626; stroke: #262626"/>
      </g>
     </g>
     <g id="text_21">
      <!-- 1.00 -->
      <g style="fill: #262626" transform="translate(20.209 406.928055) scale(0.088 -0.088)">
       <use xlink:href="#ArialMT-31"/>
       <use xlink:href="#ArialMT-2e" x="55.615234"/>
       <use xlink:href="#ArialMT-30" x="83.398438"/>
       <use xlink:href="#ArialMT-30" x="139.013672"/>
      </g>
     </g>
    </g>
    <g id="ytick_11">
     <g id="line2d_27">
      <g>
       <use xlink:href="#m402151d6be" x="45.634625" y="357.677333" style="fill: #262626; stroke: #262626"/>
      </g>
     </g>
     <g id="text_22">
      <!-- 1.02 -->
      <g style="fill: #262626" transform="translate(20.209 360.826771) scale(0.088 -0.088)">
       <use xlink:href="#ArialMT-31"/>
       <use xlink:href="#ArialMT-2e" x="55.615234"/>
       <use xlink:href="#ArialMT-30" x="83.398438"/>
       <use xlink:href="#ArialMT-32" x="139.013672"/>
      </g>
     </g>
    </g>
    <g id="ytick_12">
     <g id="line2d_28">
      <g>
       <use xlink:href="#m402151d6be" x="45.634625" y="311.57605" style="fill: #262626; stroke: #262626"/>
      </g>
     </g>
     <g id="text_23">
      <!-- 1.04 -->
      <g style="fill: #262626" transform="translate(20.209 314.725487) scale(0.088 -0.088)">
       <use xlink:href="#ArialMT-31"/>
       <use xlink:href="#ArialMT-2e" x="55.615234"/>
       <use xlink:href="#ArialMT-30" x="83.398438"/>
       <use xlink:href="#ArialMT-34" x="139.013672"/>
      </g>
     </g>
    </g>
    <g id="text_24">
     <!-- Sensitivity Indices -->
     <g style="fill: #262626" transform="translate(14.1885 451.090875) rotate(-90) scale(0.096 -0.096)">
      <use xlink:href="#ArialMT-53"/>
      <use xlink:href="#ArialMT-65" x="66.699219"/>
      <use xlink:href="#ArialMT-6e" x="122.314453"/>
      <use xlink:href="#ArialMT-73" x="177.929688"/>
      <use xlink:href="#ArialMT-69" x="227.929688"/>
      <use xlink:href="#ArialMT-74" x="250.146484"/>
      <use xlink:href="#ArialMT-69" x="277.929688"/>
      <use xlink:href="#ArialMT-76" x="300.146484"/>
      <use xlink:href="#ArialMT-69" x="350.146484"/>
      <use xlink:href="#ArialMT-74" x="372.363281"/>
      <use xlink:href="#ArialMT-79" x="400.146484"/>
      <use xlink:href="#ArialMT-20" x="450.146484"/>
      <use xlink:href="#ArialMT-49" x="477.929688"/>
      <use xlink:href="#ArialMT-6e" x="505.712891"/>
      <use xlink:href="#ArialMT-64" x="561.328125"/>
      <use xlink:href="#ArialMT-69" x="616.943359"/>
      <use xlink:href="#ArialMT-63" x="639.160156"/>
      <use xlink:href="#ArialMT-65" x="689.160156"/>
      <use xlink:href="#ArialMT-73" x="744.775391"/>
     </g>
    </g>
   </g>
   <g id="line2d_29">
    <path d="M 62.574295 403.984472 
L 66.987436 404.189874 
L 68.345325 404.475357 
L 69.703215 404.992115 
L 72.079521 406.08312 
L 72.758466 406.144445 
L 73.437411 405.998035 
L 74.455828 405.482359 
L 76.153189 404.513733 
L 77.171607 404.175394 
L 78.190024 404.029959 
L 79.547913 404.053623 
L 82.263691 404.212203 
L 84.300526 404.180635 
L 84.639998 404.394739 
L 84.97947 404.788435 
L 85.658416 406.325713 
L 86.676833 409.156926 
L 87.016305 409.673067 
L 87.355777 409.902875 
L 87.695249 409.888364 
L 88.374195 409.366978 
L 89.392611 408.008508 
L 91.768918 404.533121 
L 92.787336 403.522066 
L 93.46628 403.150973 
L 94.145225 403.064163 
L 94.824169 403.280576 
L 95.503113 403.802475 
L 96.182058 404.616644 
L 97.87942 406.959904 
L 98.218894 407.20463 
L 98.558364 407.278612 
L 98.897838 407.150292 
L 99.237309 406.790828 
L 99.576782 406.153054 
L 100.255727 403.925535 
L 100.934671 401.461548 
L 101.274145 403.185317 
L 101.953089 417.933913 
L 102.29256 421.157047 
L 102.632033 421.145561 
L 103.310978 418.58529 
L 105.00834 411.919179 
L 107.045173 404.99146 
L 108.063591 402.068048 
L 109.082009 399.855147 
L 109.760953 399.042236 
L 110.100424 398.927558 
L 110.439898 399.046366 
L 110.779368 399.419988 
L 111.458316 400.878538 
L 112.816204 404.624586 
L 113.155675 405.216876 
L 113.495149 405.562973 
L 113.834622 405.648254 
L 114.174093 405.467407 
L 114.513567 405.032278 
L 115.192511 403.456919 
L 116.210926 400.117048 
L 116.5504 399.522842 
L 116.88987 400.189832 
L 117.229347 403.204797 
L 118.247759 419.950388 
L 118.587236 421.487858 
L 118.926706 421.034651 
L 119.605654 417.882355 
L 120.963542 411.131128 
L 121.981961 407.110353 
L 123.000372 403.916431 
L 124.01879 401.472988 
L 125.037208 399.748192 
L 125.716156 398.98597 
L 126.395097 398.53265 
L 127.074044 398.386794 
L 127.752986 398.536663 
L 128.431933 398.948992 
L 129.450351 399.898655 
L 133.184546 403.872006 
L 133.863487 405.044889 
L 134.542435 406.687138 
L 135.221376 408.994523 
L 135.900324 412.178487 
L 137.258212 419.843016 
L 137.597683 419.771159 
L 137.93716 416.356783 
L 138.27663 407.946918 
L 139.295048 373.636207 
L 139.634519 369.176295 
L 139.973989 367.872834 
L 140.313466 368.324429 
L 140.992408 371.280372 
L 143.368714 383.310978 
L 151.855523 422.793347 
L 152.873941 426.090001 
L 153.552888 427.718004 
L 154.23183 428.758358 
L 154.5713 429.013802 
L 154.910777 429.064585 
L 155.250248 428.886611 
L 155.589718 428.452791 
L 155.929195 427.736335 
L 156.608136 425.34303 
L 157.287084 421.577837 
L 158.305502 413.880359 
L 159.323913 406.378419 
L 160.002861 403.175745 
L 160.342331 402.235227 
L 160.681808 401.672713 
L 161.021279 401.410639 
L 161.36075 401.373248 
L 162.039697 401.729705 
L 162.718638 402.396248 
L 163.737056 403.753281 
L 164.416004 405.023351 
L 165.094945 406.981665 
L 165.773892 409.864824 
L 166.79231 414.275438 
L 167.471252 416.04308 
L 168.150199 416.874166 
L 168.48967 417.022013 
L 168.82914 417.022867 
L 169.168617 416.891158 
L 169.847558 416.262555 
L 170.526506 415.176896 
L 171.205453 413.656345 
L 172.223871 410.623167 
L 173.242276 406.829435 
L 175.279113 398.021998 
L 176.637008 392.612227 
L 177.315949 390.685577 
L 177.655426 390.065179 
L 177.99489 389.73832 
L 178.334367 389.752419 
L 178.673844 390.138587 
L 179.013308 390.915743 
L 179.692262 393.564643 
L 180.71068 399.558421 
L 181.389621 403.530906 
L 181.729098 404.903587 
L 182.068562 405.564753 
L 182.408039 405.306592 
L 182.747503 403.937842 
L 183.08698 401.296969 
L 183.426457 397.541297 
L 183.765921 395.370074 
L 184.105398 412.484426 
L 184.444875 466.339788 
L 184.784339 475.172729 
L 185.463293 451.948502 
L 186.142234 439.166953 
L 186.821175 431.307727 
L 187.839594 422.760849 
L 189.197489 413.498471 
L 190.894848 403.558407 
L 192.25273 396.991973 
L 193.271148 393.087758 
L 193.950102 391.067891 
L 194.629043 389.629106 
L 194.968507 389.182386 
L 195.307984 388.960193 
L 195.647461 389.010798 
L 195.986925 389.382862 
L 196.326402 390.124694 
L 196.665879 391.271231 
L 197.34482 394.684582 
L 198.702715 402.281514 
L 199.042179 403.413218 
L 199.381656 404.080233 
L 199.72112 404.293175 
L 200.060597 404.092731 
L 200.400074 403.541179 
L 201.757957 400.48941 
L 202.097434 401.426696 
L 202.436911 404.610499 
L 203.115852 414.38269 
L 203.455316 416.38416 
L 203.794793 416.123618 
L 204.473734 413.046054 
L 205.492152 408.262338 
L 206.51057 404.739971 
L 207.189524 403.007726 
L 207.868465 401.70106 
L 208.547406 400.787331 
L 209.226347 400.248091 
L 209.905301 400.067509 
L 210.584242 400.230616 
L 211.263183 400.7186 
L 211.942137 401.507138 
L 212.960542 403.182636 
L 214.318438 406.066439 
L 215.676333 409.024031 
L 216.355274 410.147134 
L 217.034215 410.785994 
L 217.373692 410.881635 
L 217.713156 410.830338 
L 218.39211 410.359898 
L 219.410528 409.462323 
L 219.749992 409.367947 
L 220.089469 409.490963 
L 220.428946 409.929174 
L 220.76841 410.783915 
L 221.107887 412.195219 
L 221.447351 414.343622 
L 221.786828 417.486304 
L 222.126305 422.013637 
L 222.465769 428.505091 
L 222.805246 437.877108 
L 223.144723 451.584572 
L 223.484187 471.654366 
L 224.163141 523.495943 
L 224.502605 509.37473 
L 225.181559 404.273423 
L 225.521023 381.447581 
L 225.8605 372.225661 
L 226.199964 369.069152 
L 226.539441 368.587219 
L 226.878918 369.32705 
L 227.55786 372.248902 
L 229.255219 381.426963 
L 235.365727 415.201892 
L 236.723609 421.19193 
L 237.742027 424.752753 
L 238.420968 426.568618 
L 239.099922 427.852786 
L 239.778863 428.505973 
L 240.11834 428.553488 
L 240.457804 428.386234 
L 240.797281 427.974029 
L 241.136758 427.284538 
L 241.476223 426.278441 
L 242.155177 423.175449 
L 242.834118 418.576737 
L 244.192 408.176757 
L 244.870954 405.119332 
L 245.210418 404.323448 
L 245.549895 403.902724 
L 245.889372 403.745491 
L 246.568313 403.864356 
L 247.586731 404.361339 
L 247.926195 404.752231 
L 248.265672 405.50387 
L 248.944613 408.294308 
L 249.963031 413.066531 
L 250.641985 415.2407 
L 251.320926 416.607903 
L 251.999867 417.321213 
L 252.339344 417.464199 
L 252.678808 417.475404 
L 253.018285 417.360632 
L 253.697226 416.76915 
L 254.37618 415.719138 
L 255.055122 414.241941 
L 256.07354 411.308465 
L 257.091958 407.663094 
L 258.789317 400.557909 
L 261.165617 390.447352 
L 261.844571 388.177328 
L 262.523512 386.633888 
L 262.862989 386.246994 
L 263.202453 386.176476 
L 263.54193 386.456441 
L 263.881407 387.111785 
L 264.560348 389.480069 
L 265.578766 393.92343 
L 265.91823 394.611813 
L 266.257707 394.319959 
L 266.597184 392.75385 
L 267.276125 387.143593 
L 267.615602 393.47155 
L 268.294544 470.676327 
L 268.634021 470.315152 
L 269.312962 452.260257 
L 269.991903 440.735625 
L 270.670844 433.111206 
L 271.689262 424.758818 
L 273.047157 416.016317 
L 274.405039 408.650084 
L 275.762934 402.42293 
L 276.781352 398.553679 
L 277.79977 395.420117 
L 278.818188 393.05033 
L 279.497129 391.915942 
L 280.176083 391.172583 
L 280.855012 390.879983 
L 281.194501 390.935383 
L 281.533966 391.146802 
L 281.87343 391.530262 
L 282.552384 392.876633 
L 283.231338 394.96803 
L 284.58922 399.631605 
L 285.268148 401.109306 
L 285.947102 401.878307 
L 287.304984 402.873308 
L 287.644474 403.228309 
L 287.983938 403.21985 
L 288.323402 402.535473 
L 289.34182 399.34397 
L 290.020774 397.963687 
L 290.699728 397.048045 
L 291.378656 396.443111 
L 292.05761 396.100328 
L 292.736538 396.006232 
L 293.415492 396.166333 
L 294.094446 396.58909 
L 294.773375 397.283677 
L 295.452329 398.25623 
L 296.470747 400.236718 
L 297.489165 402.824651 
L 298.847047 407.125407 
L 300.544419 413.513603 
L 302.920719 422.556225 
L 303.599673 424.515502 
L 304.278601 425.840301 
L 304.618091 426.207387 
L 304.957555 426.361122 
L 305.297019 426.32536 
L 306.315437 425.860504 
L 306.654927 426.152948 
L 306.994391 427.156124 
L 307.333856 429.330861 
L 307.673345 433.286403 
L 308.01281 439.898248 
L 308.352274 450.302454 
L 309.370692 495.682255 
L 309.710182 476.44602 
L 310.38911 404.629207 
L 310.728574 388.450136 
L 311.068064 381.189172 
L 311.407528 378.338952 
L 311.746992 377.636792 
L 312.086482 378.015147 
L 312.76541 380.205317 
L 314.123318 386.268608 
L 317.178572 400.171727 
L 318.875918 406.892562 
L 320.233801 411.370003 
L 321.252219 414.05386 
L 322.270637 416.05396 
L 322.949591 416.964398 
L 323.628545 417.505561 
L 324.307473 417.65352 
L 324.986427 417.381365 
L 325.665381 416.658119 
L 326.344309 415.45472 
L 327.023263 413.769036 
L 329.399563 406.999603 
L 329.739027 406.71301 
L 330.078517 406.669637 
L 330.757445 406.846937 
L 331.096935 406.639162 
L 331.436399 405.920533 
L 332.115353 403.872687 
L 332.454817 403.982814 
L 332.794281 405.070667 
L 334.152189 410.76059 
L 334.831118 412.551991 
L 335.510072 413.65592 
L 336.189 414.196634 
L 336.867954 414.261702 
L 337.546908 413.913665 
L 338.225836 413.204351 
L 338.90479 412.180996 
L 339.923208 410.157158 
L 341.28109 406.790264 
L 346.033716 394.098883 
L 346.712644 392.932238 
L 347.391599 392.196327 
L 347.731063 392.024585 
L 348.070553 391.998219 
L 348.410017 392.117158 
L 349.088971 392.762907 
L 349.767899 393.613693 
L 350.107389 393.800643 
L 350.446853 393.520118 
L 350.786317 392.469439 
L 351.465271 387.986065 
L 351.804735 388.548069 
L 352.144225 400.41815 
L 352.483689 419.715485 
L 352.823153 429.846815 
L 353.162643 431.672392 
L 353.502107 430.535257 
L 355.538943 419.710289 
L 356.896825 413.994192 
L 358.254707 409.09552 
L 359.612615 405.007445 
L 360.631033 402.552845 
L 361.649452 400.676939 
L 362.32838 399.760253 
L 363.007334 399.11235 
L 363.686262 398.730464 
L 364.365216 398.608573 
L 365.04417 398.741006 
L 365.723098 399.120012 
L 366.402052 399.735571 
L 367.42047 401.049149 
L 369.117842 403.50966 
L 369.79677 404.068206 
L 371.154652 404.571434 
L 371.494142 404.951322 
L 372.17307 406.241341 
L 372.51256 406.412757 
L 372.852024 404.945847 
L 373.870442 395.851764 
L 374.209907 394.500252 
L 374.549396 393.782223 
L 374.888861 393.410235 
L 375.567815 393.169602 
L 376.246743 393.260025 
L 376.925697 393.548654 
L 377.944115 394.287469 
L 378.962533 395.389518 
L 379.980951 396.87357 
L 380.999369 398.757613 
L 382.017787 401.052355 
L 383.375669 404.737861 
L 385.073041 410.199472 
L 388.807224 422.844388 
L 389.825642 425.431852 
L 390.504596 426.692596 
L 391.183524 427.568838 
L 391.862478 428.363301 
L 392.201942 429.033144 
L 392.541432 430.223706 
L 392.880896 432.332721 
L 393.22036 435.82136 
L 393.899314 446.52688 
L 394.238778 447.23287 
L 394.578268 435.271459 
L 395.257196 399.889359 
L 395.596686 391.715099 
L 395.93615 388.094378 
L 396.275614 386.804574 
L 396.615104 386.673342 
L 396.954568 387.13748 
L 397.633496 388.871323 
L 399.670332 395.509875 
L 401.367705 400.675842 
L 401.367705 400.675842 
" clip-path="url(#p905ee13229)" style="fill: none; stroke: #1f77b4; stroke-width: 1.2; stroke-linecap: round"/>
   </g>
   <g id="line2d_30">
    <path d="M 62.574295 403.781693 
L 71.740049 403.694351 
L 80.566331 403.96893 
L 83.621582 403.783123 
L 84.639998 403.530832 
L 85.658416 402.988974 
L 86.33736 402.647706 
L 87.016305 402.554831 
L 88.034723 402.78603 
L 92.787336 404.352055 
L 94.145225 404.433412 
L 96.182058 404.248019 
L 98.558364 404.049396 
L 99.576782 403.983057 
L 99.916253 403.844224 
L 100.255727 403.494886 
L 100.5952 402.655049 
L 100.934671 400.758079 
L 101.613615 393.014445 
L 101.953089 392.130477 
L 103.310978 399.324149 
L 103.989922 401.053703 
L 104.668866 402.194047 
L 105.687284 403.369857 
L 106.705702 404.151745 
L 107.724117 404.600343 
L 108.742535 404.7245 
L 109.760953 404.544975 
L 112.13726 403.846997 
L 114.513567 403.4571 
L 115.192511 403.131909 
L 115.531982 402.832824 
L 115.871455 402.36407 
L 116.210926 401.637495 
L 116.5504 400.526253 
L 117.568818 395.366814 
L 117.908288 394.992117 
L 118.247759 395.961946 
L 119.266177 400.270073 
L 119.945124 401.962124 
L 120.624065 402.968494 
L 121.303013 403.586341 
L 121.981961 403.967481 
L 123.000372 404.256288 
L 124.01879 404.315865 
L 125.376679 404.146582 
L 127.074044 403.647332 
L 129.789822 402.712276 
L 131.14771 402.561415 
L 132.505599 402.65767 
L 134.202964 403.063203 
L 135.560853 403.400028 
L 135.900324 403.369874 
L 136.239794 403.204333 
L 136.579271 402.796115 
L 136.918742 401.976096 
L 137.258212 400.479788 
L 137.597683 397.953672 
L 138.27663 389.421389 
L 138.616101 385.235022 
L 138.955578 383.228868 
L 139.295048 383.614782 
L 139.973989 387.619744 
L 140.652937 391.648285 
L 141.331885 394.662916 
L 142.010826 396.891069 
L 143.029244 399.308166 
L 144.047662 401.032096 
L 145.06608 402.277053 
L 146.084491 403.128703 
L 147.102909 403.623439 
L 148.121328 403.786332 
L 149.139746 403.645564 
L 150.158164 403.244793 
L 151.516052 402.40946 
L 154.910777 400.018607 
L 155.929195 399.636366 
L 156.608136 399.597001 
L 157.287084 399.79338 
L 157.966025 400.261361 
L 158.984443 401.37867 
L 160.342331 402.875961 
L 161.36075 403.556728 
L 162.379168 403.881403 
L 163.397586 403.934369 
L 164.416004 403.739905 
L 165.434422 403.303692 
L 166.79231 402.694365 
L 167.810722 402.476059 
L 169.168617 402.42583 
L 170.526506 402.617174 
L 172.223871 403.143922 
L 174.260695 403.824517 
L 175.279113 403.96362 
L 176.297531 403.867674 
L 178.334367 403.377975 
L 179.013308 403.580481 
L 180.031726 404.412169 
L 180.71068 404.828972 
L 181.389621 404.825519 
L 182.068562 404.552588 
L 182.408039 404.333256 
L 182.747503 403.935372 
L 183.08698 402.985927 
L 183.426457 400.328072 
L 183.765921 392.053933 
L 184.444875 344.452041 
L 185.123816 378.794863 
L 185.463293 386.974779 
L 185.802757 391.528028 
L 186.481698 396.311162 
L 187.160652 398.866067 
L 187.839594 400.544564 
L 188.858012 402.276849 
L 189.87643 403.427015 
L 190.555371 403.92968 
L 191.234312 404.233772 
L 191.913266 404.347913 
L 192.592207 404.288057 
L 193.610625 403.925111 
L 196.326402 402.619219 
L 197.005343 402.721265 
L 198.702715 403.348779 
L 199.72112 403.341288 
L 200.400074 403.160054 
L 200.739539 402.967339 
L 201.079016 402.640631 
L 201.418493 402.100466 
L 201.757957 401.237677 
L 202.776375 397.465448 
L 203.115852 397.583544 
L 204.473734 401.609731 
L 205.152688 402.644011 
L 205.831629 403.242248 
L 206.850047 403.736131 
L 208.207929 404.043348 
L 210.244765 404.209067 
L 212.621078 404.207589 
L 214.318438 403.992904 
L 215.676333 403.590994 
L 219.410528 402.174476 
L 221.107887 401.783553 
L 221.447351 401.539724 
L 221.786828 401.094212 
L 222.126305 400.279925 
L 222.465769 398.800611 
L 222.805246 396.088645 
L 223.144723 391.004701 
L 223.484187 381.21009 
L 223.823664 362.31635 
L 224.502605 302.389807 
L 224.842082 308.943765 
L 225.521023 355.06048 
L 225.8605 368.774038 
L 226.539441 383.660482 
L 227.218383 390.98848 
L 227.897337 395.211773 
L 228.576278 397.926726 
L 229.255219 399.801884 
L 229.93416 401.148226 
L 230.613114 402.127489 
L 231.292055 402.827994 
L 231.970996 403.301202 
L 232.64995 403.579212 
L 233.328891 403.685716 
L 234.347309 403.563547 
L 235.365727 403.16121 
L 236.723609 402.316117 
L 240.797281 399.44936 
L 241.8157 399.055598 
L 242.494641 399.031704 
L 243.173582 399.336863 
L 243.852536 400.032647 
L 245.210418 401.788714 
L 245.889372 402.305813 
L 246.568313 402.44922 
L 247.247254 402.291432 
L 247.926195 402.087635 
L 248.605149 402.198442 
L 249.623567 402.63697 
L 250.302508 402.718619 
L 254.036703 402.653231 
L 255.734063 403.066364 
L 258.110376 403.695735 
L 259.128794 403.709566 
L 259.807735 403.550651 
L 260.486676 403.223943 
L 261.505094 402.406226 
L 262.862989 401.160032 
L 263.202453 401.032986 
L 263.54193 401.075976 
L 263.881407 401.318028 
L 264.560348 402.277855 
L 265.239289 403.209793 
L 265.578766 403.385975 
L 265.91823 403.260788 
L 266.257707 402.716234 
L 266.597184 401.459204 
L 266.936648 398.638951 
L 267.276125 391.833633 
L 267.615602 375.093152 
L 267.955067 349.606438 
L 268.294544 352.234594 
L 268.634021 370.133024 
L 268.973485 381.708508 
L 269.312962 388.201908 
L 269.652426 392.096844 
L 270.33138 396.43544 
L 271.010321 398.823352 
L 271.689262 400.38778 
L 272.368216 401.52274 
L 273.386621 402.742053 
L 274.405039 403.548022 
L 275.423457 404.004747 
L 276.441875 404.144831 
L 277.460293 404.011161 
L 278.478711 403.662652 
L 280.176083 402.797273 
L 281.87343 401.965556 
L 282.552384 401.816399 
L 283.231338 401.858896 
L 284.24973 402.238628 
L 285.607638 403.049564 
L 286.96552 403.979721 
L 287.304984 404.053124 
L 287.644474 403.871969 
L 288.662892 402.42388 
L 289.002356 402.331756 
L 289.68131 402.524898 
L 291.718146 403.286352 
L 294.094446 403.851139 
L 296.470747 404.196314 
L 298.168119 404.213197 
L 299.526001 403.975401 
L 300.544419 403.594126 
L 301.562837 403.010271 
L 302.920719 401.933041 
L 305.975973 399.101732 
L 306.654927 398.134485 
L 306.994391 397.36526 
L 307.333856 396.235284 
L 307.673345 394.53032 
L 308.01281 391.814817 
L 308.352274 387.322961 
L 308.691764 379.772477 
L 309.710182 346.919707 
L 310.049646 356.921919 
L 310.728574 381.266644 
L 311.068064 387.95028 
L 311.407528 392.257284 
L 312.086482 397.147136 
L 312.76541 399.690168 
L 313.444364 401.186068 
L 314.123318 402.136627 
L 314.802246 402.769061 
L 315.820664 403.345826 
L 316.839082 403.63078 
L 317.8575 403.709832 
L 319.215382 403.578337 
L 320.912755 403.169801 
L 323.968009 402.391574 
L 326.004845 402.166577 
L 329.060099 401.834009 
L 329.739027 401.660048 
L 330.078517 401.475107 
L 330.757445 400.701584 
L 331.436399 399.513052 
L 331.775863 399.239769 
L 332.115353 399.588505 
L 333.133771 402.017871 
L 333.473235 402.456217 
L 334.152189 402.851492 
L 335.170608 402.95496 
L 337.886372 403.039109 
L 340.262672 403.433926 
L 342.299508 403.714574 
L 343.657416 403.663447 
L 344.675808 403.427456 
L 346.033716 402.822651 
L 347.731063 401.957097 
L 348.410017 401.915701 
L 349.088971 402.233728 
L 350.107389 402.904869 
L 350.446853 402.888056 
L 350.786317 402.528824 
L 351.125807 401.519949 
L 351.465271 399.093477 
L 351.804735 393.974879 
L 352.144225 387.072467 
L 352.483689 385.179717 
L 353.502107 395.016947 
L 354.181035 398.193131 
L 354.859989 399.954613 
L 355.538943 401.104171 
L 356.557361 402.280997 
L 357.575779 403.094172 
L 358.594197 403.659184 
L 359.612615 404.013475 
L 360.631033 404.175203 
L 361.988916 404.140518 
L 364.025752 403.782778 
L 366.402052 403.411541 
L 368.778352 403.142711 
L 370.815188 402.522977 
L 371.154652 402.664761 
L 371.494142 402.969757 
L 372.17307 404.072764 
L 372.51256 404.667414 
L 372.852024 404.817267 
L 373.191488 404.258895 
L 373.870442 402.83311 
L 374.209907 402.522845 
L 374.888861 402.41528 
L 375.907279 402.686701 
L 379.301997 403.773388 
L 380.999369 404.112987 
L 382.696715 404.210204 
L 384.054623 404.063932 
L 385.412505 403.696012 
L 386.770387 403.113362 
L 388.46776 402.13723 
L 390.165106 400.954569 
L 391.183524 399.965968 
L 391.862478 398.857863 
L 392.201942 398.011424 
L 392.541432 396.850262 
L 392.880896 395.199679 
L 393.22036 392.832215 
L 393.899314 385.009391 
L 394.238778 381.075067 
L 394.578268 381.547943 
L 395.596686 397.283905 
L 395.93615 399.750558 
L 396.275614 401.21703 
L 396.615104 402.115653 
L 397.294032 403.072818 
L 397.972986 403.522298 
L 398.991404 403.821256 
L 400.349286 403.941477 
L 401.367705 403.934514 
L 401.367705 403.934514 
" clip-path="url(#p905ee13229)" style="fill: none; stroke: #ff7f0e; stroke-width: 1.2; stroke-linecap: round"/>
   </g>
   <g id="patch_6">
    <path d="M 45.634625 495.981184 
L 45.634625 311.57605 
" style="fill: none; stroke: #262626; stroke-linejoin: miter; stroke-linecap: square"/>
   </g>
   <g id="patch_7">
    <path d="M 62.234823 534.55125 
L 401.367705 534.55125 
" style="fill: none; stroke: #262626; stroke-linejoin: miter; stroke-linecap: square"/>
   </g>
   <g id="text_25">
    <!-- Sensitivity Indices for v(t) -->
    <g style="fill: #262626" transform="translate(178.625 285.3345) scale(0.096 -0.096)">
     <use xlink:href="#ArialMT-53"/>
     <use xlink:href="#ArialMT-65" x="66.699219"/>
     <use xlink:href="#ArialMT-6e" x="122.314453"/>
     <use xlink:href="#ArialMT-73" x="177.929688"/>
     <use xlink:href="#ArialMT-69" x="227.929688"/>
     <use xlink:href="#ArialMT-74" x="250.146484"/>
     <use xlink:href="#ArialMT-69" x="277.929688"/>
     <use xlink:href="#ArialMT-76" x="300.146484"/>
     <use xlink:href="#ArialMT-69" x="350.146484"/>
     <use xlink:href="#ArialMT-74" x="372.363281"/>
     <use xlink:href="#ArialMT-79" x="400.146484"/>
     <use xlink:href="#ArialMT-20" x="450.146484"/>
     <use xlink:href="#ArialMT-49" x="477.929688"/>
     <use xlink:href="#ArialMT-6e" x="505.712891"/>
     <use xlink:href="#ArialMT-64" x="561.328125"/>
     <use xlink:href="#ArialMT-69" x="616.943359"/>
     <use xlink:href="#ArialMT-63" x="639.160156"/>
     <use xlink:href="#ArialMT-65" x="689.160156"/>
     <use xlink:href="#ArialMT-73" x="744.775391"/>
     <use xlink:href="#ArialMT-20" x="794.775391"/>
     <use xlink:href="#ArialMT-66" x="822.558594"/>
     <use xlink:href="#ArialMT-6f" x="850.341797"/>
     <use xlink:href="#ArialMT-72" x="905.957031"/>
     <use xlink:href="#ArialMT-20" x="939.257812"/>
     <use xlink:href="#ArialMT-76" x="967.041016"/>
     <use xlink:href="#ArialMT-28" x="1017.041016"/>
     <use xlink:href="#ArialMT-74" x="1050.341797"/>
     <use xlink:href="#ArialMT-29" x="1078.125"/>
    </g>
   </g>
   <g id="legend_2">
    <g id="line2d_31">
     <path d="M 285.51675 302.586125 
L 294.31675 302.586125 
L 303.11675 302.586125 
" style="fill: none; stroke: #1f77b4; stroke-width: 1.2; stroke-linecap: round"/>
    </g>
    <g id="text_26">
     <!-- First Order Indices for v(t) -->
     <g style="fill: #262626" transform="translate(310.15675 305.666125) scale(0.088 -0.088)">
      <use xlink:href="#ArialMT-46"/>
      <use xlink:href="#ArialMT-69" x="61.083984"/>
      <use xlink:href="#ArialMT-72" x="83.300781"/>
      <use xlink:href="#ArialMT-73" x="116.601562"/>
      <use xlink:href="#ArialMT-74" x="166.601562"/>
      <use xlink:href="#ArialMT-20" x="194.384766"/>
      <use xlink:href="#ArialMT-4f" x="222.167969"/>
      <use xlink:href="#ArialMT-72" x="299.951172"/>
      <use xlink:href="#ArialMT-64" x="333.251953"/>
      <use xlink:href="#ArialMT-65" x="388.867188"/>
      <use xlink:href="#ArialMT-72" x="444.482422"/>
      <use xlink:href="#ArialMT-20" x="477.783203"/>
      <use xlink:href="#ArialMT-49" x="505.566406"/>
      <use xlink:href="#ArialMT-6e" x="533.349609"/>
      <use xlink:href="#ArialMT-64" x="588.964844"/>
      <use xlink:href="#ArialMT-69" x="644.580078"/>
      <use xlink:href="#ArialMT-63" x="666.796875"/>
      <use xlink:href="#ArialMT-65" x="716.796875"/>
      <use xlink:href="#ArialMT-73" x="772.412109"/>
      <use xlink:href="#ArialMT-20" x="822.412109"/>
      <use xlink:href="#ArialMT-66" x="850.195312"/>
      <use xlink:href="#ArialMT-6f" x="877.978516"/>
      <use xlink:href="#ArialMT-72" x="933.59375"/>
      <use xlink:href="#ArialMT-20" x="966.894531"/>
      <use xlink:href="#ArialMT-76" x="994.677734"/>
      <use xlink:href="#ArialMT-28" x="1044.677734"/>
      <use xlink:href="#ArialMT-74" x="1077.978516"/>
      <use xlink:href="#ArialMT-29" x="1105.761719"/>
     </g>
    </g>
    <g id="line2d_32">
     <path d="M 285.51675 315.244375 
L 294.31675 315.244375 
L 303.11675 315.244375 
" style="fill: none; stroke: #ff7f0e; stroke-width: 1.2; stroke-linecap: round"/>
    </g>
    <g id="text_27">
     <!-- Total Indices for v(t) -->
     <g style="fill: #262626" transform="translate(310.15675 318.324375) scale(0.088 -0.088)">
      <use xlink:href="#ArialMT-54"/>
      <use xlink:href="#ArialMT-6f" x="49.958984"/>
      <use xlink:href="#ArialMT-74" x="105.574219"/>
      <use xlink:href="#ArialMT-61" x="133.357422"/>
      <use xlink:href="#ArialMT-6c" x="188.972656"/>
      <use xlink:href="#ArialMT-20" x="211.189453"/>
      <use xlink:href="#ArialMT-49" x="238.972656"/>
      <use xlink:href="#ArialMT-6e" x="266.755859"/>
      <use xlink:href="#ArialMT-64" x="322.371094"/>
      <use xlink:href="#ArialMT-69" x="377.986328"/>
      <use xlink:href="#ArialMT-63" x="400.203125"/>
      <use xlink:href="#ArialMT-65" x="450.203125"/>
      <use xlink:href="#ArialMT-73" x="505.818359"/>
      <use xlink:href="#ArialMT-20" x="555.818359"/>
      <use xlink:href="#ArialMT-66" x="583.601562"/>
      <use xlink:href="#ArialMT-6f" x="611.384766"/>
      <use xlink:href="#ArialMT-72" x="667"/>
      <use xlink:href="#ArialMT-20" x="700.300781"/>
      <use xlink:href="#ArialMT-76" x="728.083984"/>
      <use xlink:href="#ArialMT-28" x="778.083984"/>
      <use xlink:href="#ArialMT-74" x="811.384766"/>
      <use xlink:href="#ArialMT-29" x="839.167969"/>
     </g>
    </g>
   </g>
  </g>
 </g>
 <defs>
  <clipPath id="pd8064b26ee">
   <rect x="45.634625" y="20.1885" width="372.67275" height="243.21675"/>
  </clipPath>
  <clipPath id="p905ee13229">
   <rect x="45.634625" y="291.3345" width="372.67275" height="243.21675"/>
  </clipPath>
 </defs>
</svg>