<?xml version="1.0" encoding="utf-8" standalone="no"?>
<!DOCTYPE svg PUBLIC "-//W3C//DTD SVG 1.1//EN"
  "http://www.w3.org/Graphics/SVG/1.1/DTD/svg11.dtd">
<svg xmlns:xlink="http://www.w3.org/1999/xlink" width="202.580187pt" height="210.363875pt" viewBox="0 0 202.580187 210.363875" xmlns="http://www.w3.org/2000/svg" version="1.1">
 <metadata>
  <rdf:RDF xmlns:dc="http://purl.org/dc/elements/1.1/" xmlns:cc="http://creativecommons.org/ns#" xmlns:rdf="http://www.w3.org/1999/02/22-rdf-syntax-ns#">
   <cc:Work>
    <dc:type rdf:resource="http://purl.org/dc/dcmitype/StillImage"/>
    <dc:date>2024-01-22T16:18:25.910219</dc:date>
    <dc:format>image/svg+xml</dc:format>
    <dc:creator>
     <cc:Agent>
      <dc:title>Matplotlib v3.8.0, https://matplotlib.org/</dc:title>
     </cc:Agent>
    </dc:creator>
   </cc:Work>
  </rdf:RDF>
 </metadata>
 <defs>
  <style type="text/css">*{stroke-linejoin: round; stroke-linecap: butt}</style>
 </defs>
 <g id="figure_1">
  <g id="patch_1">
   <path d="M 0 210.363875 
L 202.580187 210.363875 
L 202.580187 0 
L 0 0 
z
" style="fill: #ffffff"/>
  </g>
  <g id="axes_1">
   <g id="patch_2">
    <path d="M 25.533375 186.816 
L 192.933375 186.816 
L 192.933375 20.496 
L 25.533375 20.496 
z
" style="fill: #ffffff"/>
   </g>
   <g id="matplotlib.axis_1">
    <g id="xtick_1">
     <g id="line2d_1">
      <defs>
       <path id="m3eac459089" d="M 0 0 
L 0 4.8 
" style="stroke: #262626"/>
      </defs>
      <g>
       <use xlink:href="#m3eac459089" x="25.533375" y="186.816" style="fill: #262626; stroke: #262626"/>
      </g>
     </g>
     <g id="text_1">
      <!-- −3 -->
      <g style="fill: #262626" transform="translate(20.516688 201.414875) scale(0.088 -0.088)">
       <defs>
        <path id="ArialMT-2212" d="M 3381 1997 
L 356 1997 
L 356 2522 
L 3381 2522 
L 3381 1997 
z
" transform="scale(0.015625)"/>
        <path id="ArialMT-33" d="M 269 1209 
L 831 1284 
Q 928 806 1161 595 
Q 1394 384 1728 384 
Q 2125 384 2398 659 
Q 2672 934 2672 1341 
Q 2672 1728 2419 1979 
Q 2166 2231 1775 2231 
Q 1616 2231 1378 2169 
L 1441 2663 
Q 1497 2656 1531 2656 
Q 1891 2656 2178 2843 
Q 2466 3031 2466 3422 
Q 2466 3731 2256 3934 
Q 2047 4138 1716 4138 
Q 1388 4138 1169 3931 
Q 950 3725 888 3313 
L 325 3413 
Q 428 3978 793 4289 
Q 1159 4600 1703 4600 
Q 2078 4600 2393 4439 
Q 2709 4278 2876 4000 
Q 3044 3722 3044 3409 
Q 3044 3113 2884 2869 
Q 2725 2625 2413 2481 
Q 2819 2388 3044 2092 
Q 3269 1797 3269 1353 
Q 3269 753 2831 336 
Q 2394 -81 1725 -81 
Q 1122 -81 723 278 
Q 325 638 269 1209 
z
" transform="scale(0.015625)"/>
       </defs>
       <use xlink:href="#ArialMT-2212"/>
       <use xlink:href="#ArialMT-33" x="58.398438"/>
      </g>
     </g>
    </g>
    <g id="xtick_2">
     <g id="line2d_2">
      <g>
       <use xlink:href="#m3eac459089" x="53.433375" y="186.816" style="fill: #262626; stroke: #262626"/>
      </g>
     </g>
     <g id="text_2">
      <!-- −2 -->
      <g style="fill: #262626" transform="translate(48.416688 201.414875) scale(0.088 -0.088)">
       <defs>
        <path id="ArialMT-32" d="M 3222 541 
L 3222 0 
L 194 0 
Q 188 203 259 391 
Q 375 700 629 1000 
Q 884 1300 1366 1694 
Q 2113 2306 2375 2664 
Q 2638 3022 2638 3341 
Q 2638 3675 2398 3904 
Q 2159 4134 1775 4134 
Q 1369 4134 1125 3890 
Q 881 3647 878 3216 
L 300 3275 
Q 359 3922 746 4261 
Q 1134 4600 1788 4600 
Q 2447 4600 2831 4234 
Q 3216 3869 3216 3328 
Q 3216 3053 3103 2787 
Q 2991 2522 2730 2228 
Q 2469 1934 1863 1422 
Q 1356 997 1212 845 
Q 1069 694 975 541 
L 3222 541 
z
" transform="scale(0.015625)"/>
       </defs>
       <use xlink:href="#ArialMT-2212"/>
       <use xlink:href="#ArialMT-32" x="58.398438"/>
      </g>
     </g>
    </g>
    <g id="xtick_3">
     <g id="line2d_3">
      <g>
       <use xlink:href="#m3eac459089" x="81.333375" y="186.816" style="fill: #262626; stroke: #262626"/>
      </g>
     </g>
     <g id="text_3">
      <!-- −1 -->
      <g style="fill: #262626" transform="translate(76.316688 201.414875) scale(0.088 -0.088)">
       <defs>
        <path id="ArialMT-31" d="M 2384 0 
L 1822 0 
L 1822 3584 
Q 1619 3391 1289 3197 
Q 959 3003 697 2906 
L 697 3450 
Q 1169 3672 1522 3987 
Q 1875 4303 2022 4600 
L 2384 4600 
L 2384 0 
z
" transform="scale(0.015625)"/>
       </defs>
       <use xlink:href="#ArialMT-2212"/>
       <use xlink:href="#ArialMT-31" x="58.398438"/>
      </g>
     </g>
    </g>
    <g id="xtick_4">
     <g id="line2d_4">
      <g>
       <use xlink:href="#m3eac459089" x="109.233375" y="186.816" style="fill: #262626; stroke: #262626"/>
      </g>
     </g>
     <g id="text_4">
      <!-- 0 -->
      <g style="fill: #262626" transform="translate(106.786563 201.414875) scale(0.088 -0.088)">
       <defs>
        <path id="ArialMT-30" d="M 266 2259 
Q 266 3072 433 3567 
Q 600 4063 929 4331 
Q 1259 4600 1759 4600 
Q 2128 4600 2406 4451 
Q 2684 4303 2865 4023 
Q 3047 3744 3150 3342 
Q 3253 2941 3253 2259 
Q 3253 1453 3087 958 
Q 2922 463 2592 192 
Q 2263 -78 1759 -78 
Q 1097 -78 719 397 
Q 266 969 266 2259 
z
M 844 2259 
Q 844 1131 1108 757 
Q 1372 384 1759 384 
Q 2147 384 2411 759 
Q 2675 1134 2675 2259 
Q 2675 3391 2411 3762 
Q 2147 4134 1753 4134 
Q 1366 4134 1134 3806 
Q 844 3388 844 2259 
z
" transform="scale(0.015625)"/>
       </defs>
       <use xlink:href="#ArialMT-30"/>
      </g>
     </g>
    </g>
    <g id="xtick_5">
     <g id="line2d_5">
      <g>
       <use xlink:href="#m3eac459089" x="137.133375" y="186.816" style="fill: #262626; stroke: #262626"/>
      </g>
     </g>
     <g id="text_5">
      <!-- 1 -->
      <g style="fill: #262626" transform="translate(134.686563 201.414875) scale(0.088 -0.088)">
       <use xlink:href="#ArialMT-31"/>
      </g>
     </g>
    </g>
    <g id="xtick_6">
     <g id="line2d_6">
      <g>
       <use xlink:href="#m3eac459089" x="165.033375" y="186.816" style="fill: #262626; stroke: #262626"/>
      </g>
     </g>
     <g id="text_6">
      <!-- 2 -->
      <g style="fill: #262626" transform="translate(162.586563 201.414875) scale(0.088 -0.088)">
       <use xlink:href="#ArialMT-32"/>
      </g>
     </g>
    </g>
    <g id="xtick_7">
     <g id="line2d_7">
      <g>
       <use xlink:href="#m3eac459089" x="192.933375" y="186.816" style="fill: #262626; stroke: #262626"/>
      </g>
     </g>
     <g id="text_7">
      <!-- 3 -->
      <g style="fill: #262626" transform="translate(190.486563 201.414875) scale(0.088 -0.088)">
       <use xlink:href="#ArialMT-33"/>
      </g>
     </g>
    </g>
   </g>
   <g id="matplotlib.axis_2">
    <g id="ytick_1">
     <g id="line2d_8">
      <defs>
       <path id="mbbdfaacd96" d="M 0 0 
L -4.8 0 
" style="stroke: #262626"/>
      </defs>
      <g>
       <use xlink:href="#mbbdfaacd96" x="25.533375" y="186.816" style="fill: #262626; stroke: #262626"/>
      </g>
     </g>
     <g id="text_8">
      <!-- −3 -->
      <g style="fill: #262626" transform="translate(7.2 189.965438) scale(0.088 -0.088)">
       <use xlink:href="#ArialMT-2212"/>
       <use xlink:href="#ArialMT-33" x="58.398438"/>
      </g>
     </g>
    </g>
    <g id="ytick_2">
     <g id="line2d_9">
      <g>
       <use xlink:href="#mbbdfaacd96" x="25.533375" y="159.096" style="fill: #262626; stroke: #262626"/>
      </g>
     </g>
     <g id="text_9">
      <!-- −2 -->
      <g style="fill: #262626" transform="translate(7.2 162.245437) scale(0.088 -0.088)">
       <use xlink:href="#ArialMT-2212"/>
       <use xlink:href="#ArialMT-32" x="58.398438"/>
      </g>
     </g>
    </g>
    <g id="ytick_3">
     <g id="line2d_10">
      <g>
       <use xlink:href="#mbbdfaacd96" x="25.533375" y="131.376" style="fill: #262626; stroke: #262626"/>
      </g>
     </g>
     <g id="text_10">
      <!-- −1 -->
      <g style="fill: #262626" transform="translate(7.2 134.525438) scale(0.088 -0.088)">
       <use xlink:href="#ArialMT-2212"/>
       <use xlink:href="#ArialMT-31" x="58.398438"/>
      </g>
     </g>
    </g>
    <g id="ytick_4">
     <g id="line2d_11">
      <g>
       <use xlink:href="#mbbdfaacd96" x="25.533375" y="103.656" style="fill: #262626; stroke: #262626"/>
      </g>
     </g>
     <g id="text_11">
      <!-- 0 -->
      <g style="fill: #262626" transform="translate(12.33975 106.805437) scale(0.088 -0.088)">
       <use xlink:href="#ArialMT-30"/>
      </g>
     </g>
    </g>
    <g id="ytick_5">
     <g id="line2d_12">
      <g>
       <use xlink:href="#mbbdfaacd96" x="25.533375" y="75.936" style="fill: #262626; stroke: #262626"/>
      </g>
     </g>
     <g id="text_12">
      <!-- 1 -->
      <g style="fill: #262626" transform="translate(12.33975 79.085437) scale(0.088 -0.088)">
       <use xlink:href="#ArialMT-31"/>
      </g>
     </g>
    </g>
    <g id="ytick_6">
     <g id="line2d_13">
      <g>
       <use xlink:href="#mbbdfaacd96" x="25.533375" y="48.216" style="fill: #262626; stroke: #262626"/>
      </g>
     </g>
     <g id="text_13">
      <!-- 2 -->
      <g style="fill: #262626" transform="translate(12.33975 51.365437) scale(0.088 -0.088)">
       <use xlink:href="#ArialMT-32"/>
      </g>
     </g>
    </g>
    <g id="ytick_7">
     <g id="line2d_14">
      <g>
       <use xlink:href="#mbbdfaacd96" x="25.533375" y="20.496" style="fill: #262626; stroke: #262626"/>
      </g>
     </g>
     <g id="text_14">
      <!-- 3 -->
      <g style="fill: #262626" transform="translate(12.33975 23.645437) scale(0.088 -0.088)">
       <use xlink:href="#ArialMT-33"/>
      </g>
     </g>
    </g>
   </g>
   <g id="QuadContourSet_1">
    <path d="M 192.933375 186.816 
L 192.933375 186.815919 
L 192.933293 186.816 
z
M 25.533457 20.496 
L 25.533375 20.496 
L 25.533375 20.496081 
z
" clip-path="url(#p01b88ac07b)" style="fill: #0a091f"/>
    <path d="M 191.242466 186.816 
L 192.933293 186.816 
L 192.933375 186.815919 
L 192.933375 185.136 
L 192.933375 184.419952 
L 192.186525 185.136 
L 191.242466 186.073969 
L 190.521769 186.816 
z
M 26.280224 22.176 
L 27.224284 21.238032 
L 27.944982 20.496 
L 27.224284 20.496 
L 25.533457 20.496 
L 25.533375 20.496081 
L 25.533375 22.176 
L 25.533375 22.892047 
z
" clip-path="url(#p01b88ac07b)" style="fill: #1d112c"/>
    <path d="M 189.551557 186.816 
L 190.521769 186.816 
L 191.242466 186.073969 
L 192.186525 185.136 
L 192.933375 184.419952 
L 192.933375 183.456 
L 192.933375 181.869621 
L 191.242466 183.42897 
L 191.214221 183.456 
L 189.551557 185.107937 
L 189.524351 185.136 
L 187.954875 186.816 
z
M 27.224284 23.88303 
L 27.252529 23.856 
L 28.915193 22.204063 
L 28.942399 22.176 
L 30.511873 20.496 
L 28.915193 20.496 
L 27.944982 20.496 
L 27.224284 21.238032 
L 26.280224 22.176 
L 25.533375 22.892047 
L 25.533375 23.856 
L 25.533375 25.44238 
z
" clip-path="url(#p01b88ac07b)" style="fill: #30173a"/>
    <path d="M 186.169739 186.816 
L 187.860648 186.816 
L 187.954875 186.816 
L 189.524351 185.136 
L 189.551557 185.107937 
L 191.214221 183.456 
L 191.242466 183.42897 
L 192.933375 181.869621 
L 192.933375 181.776 
L 192.933375 180.096 
L 192.933375 179.09637 
L 191.758914 180.096 
L 191.242466 180.549711 
L 189.909276 181.776 
L 189.551557 182.117159 
L 188.204021 183.456 
L 187.860648 183.811409 
L 186.626392 185.136 
L 186.169739 185.649112 
L 185.163616 186.816 
z
M 26.70784 27.216 
L 27.224284 26.762293 
L 28.557476 25.536 
L 28.915193 25.194842 
L 30.262728 23.856 
L 30.606102 23.500588 
L 31.840354 22.176 
L 32.297011 21.662884 
L 33.303132 20.496 
L 32.297011 20.496 
L 30.606102 20.496 
L 30.511873 20.496 
L 28.942399 22.176 
L 28.915193 22.204063 
L 27.252529 23.856 
L 27.224284 23.88303 
L 25.533375 25.44238 
L 25.533375 25.536 
L 25.533375 27.216 
L 25.533375 28.215632 
z
" clip-path="url(#p01b88ac07b)" style="fill: #421b45"/>
    <path d="M 182.78792 186.816 
L 184.47883 186.816 
L 185.163616 186.816 
L 186.169739 185.649112 
L 186.626392 185.136 
L 187.860648 183.811409 
L 188.204021 183.456 
L 189.551557 182.117159 
L 189.909276 181.776 
L 191.242466 180.549711 
L 191.758914 180.096 
L 192.933375 179.09637 
L 192.933375 178.416 
L 192.933375 176.736 
L 192.933375 176.074337 
L 192.080827 176.736 
L 191.242466 177.405512 
L 190.044541 178.416 
L 189.551557 178.845923 
L 188.186455 180.096 
L 187.860648 180.405971 
L 186.481722 181.776 
L 186.169739 182.099705 
L 184.911543 183.456 
L 184.47883 183.945802 
L 183.461777 185.136 
L 182.78792 185.968948 
L 182.121958 186.816 
z
M 26.385927 30.576 
L 27.224284 29.906491 
L 28.42221 28.896 
L 28.915193 28.466078 
L 30.280295 27.216 
L 30.606102 26.906029 
L 31.985028 25.536 
L 32.297011 25.212295 
L 33.555205 23.856 
L 33.98792 23.366196 
L 35.00497 22.176 
L 35.67883 21.343047 
L 36.344789 20.496 
L 35.67883 20.496 
L 33.98792 20.496 
L 33.303132 20.496 
L 32.297011 21.662884 
L 31.840354 22.176 
L 30.606102 23.500588 
L 30.262728 23.856 
L 28.915193 25.194842 
L 28.557476 25.536 
L 27.224284 26.762293 
L 26.70784 27.216 
L 25.533375 28.215632 
L 25.533375 28.896 
L 25.533375 30.576 
L 25.533375 31.237666 
z
" clip-path="url(#p01b88ac07b)" style="fill: #561e4f"/>
    <path d="M 179.406102 186.816 
L 181.097011 186.816 
L 182.121958 186.816 
L 182.78792 185.968948 
L 183.461777 185.136 
L 184.47883 183.945802 
L 184.911543 183.456 
L 186.169739 182.099705 
L 186.481722 181.776 
L 187.860648 180.405971 
L 188.186455 180.096 
L 189.551557 178.845923 
L 190.044541 178.416 
L 191.242466 177.405512 
L 192.080827 176.736 
L 192.933375 176.074337 
L 192.933375 175.056 
L 192.933375 173.376 
L 192.933375 172.723599 
L 191.99833 173.376 
L 191.242466 173.916753 
L 189.751567 175.056 
L 189.551557 175.213485 
L 187.860648 176.615132 
L 187.721516 176.736 
L 186.169739 178.1375 
L 185.876639 178.416 
L 184.47883 179.804791 
L 184.198521 180.096 
L 182.78792 181.637763 
L 182.666265 181.776 
L 181.255517 183.456 
L 181.097011 183.654716 
L 179.950362 185.136 
L 179.406102 185.886982 
L 178.749462 186.816 
z
M 26.468426 33.936 
L 27.224284 33.395252 
L 28.715187 32.256 
L 28.915193 32.098517 
L 30.606102 30.69687 
L 30.745237 30.576 
L 32.297011 29.1745 
L 32.590111 28.896 
L 33.98792 27.507209 
L 34.268229 27.216 
L 35.67883 25.674234 
L 35.800482 25.536 
L 37.211231 23.856 
L 37.369739 23.657281 
L 38.516384 22.176 
L 39.060648 21.425012 
L 39.717285 20.496 
L 39.060648 20.496 
L 37.369739 20.496 
L 36.344789 20.496 
L 35.67883 21.343047 
L 35.00497 22.176 
L 33.98792 23.366196 
L 33.555205 23.856 
L 32.297011 25.212295 
L 31.985028 25.536 
L 30.606102 26.906029 
L 30.280295 27.216 
L 28.915193 28.466078 
L 28.42221 28.896 
L 27.224284 29.906491 
L 26.385927 30.576 
L 25.533375 31.237666 
L 25.533375 32.256 
L 25.533375 33.936 
L 25.533375 34.588404 
z
" clip-path="url(#p01b88ac07b)" style="fill: #6b1f56"/>
    <path d="M 176.024284 186.816 
L 177.715193 186.816 
L 178.749462 186.816 
L 179.406102 185.886982 
L 179.950362 185.136 
L 181.097011 183.654716 
L 181.255517 183.456 
L 182.666265 181.776 
L 182.78792 181.637763 
L 184.198521 180.096 
L 184.47883 179.804791 
L 185.876639 178.416 
L 186.169739 178.1375 
L 187.721516 176.736 
L 187.860648 176.615132 
L 189.551557 175.213485 
L 189.751567 175.056 
L 191.242466 173.916753 
L 191.99833 173.376 
L 192.933375 172.723599 
L 192.933375 171.696 
L 192.933375 170.016 
L 192.933375 168.932852 
L 191.242466 169.969318 
L 191.169235 170.016 
L 189.551557 171.072323 
L 188.66927 171.696 
L 187.860648 172.284775 
L 186.463431 173.376 
L 186.169739 173.61362 
L 184.494019 175.056 
L 184.47883 175.069626 
L 182.78792 176.664523 
L 182.715979 176.736 
L 181.110724 178.416 
L 181.097011 178.43109 
L 179.645262 180.096 
L 179.406102 180.387793 
L 178.30779 181.776 
L 177.715193 182.579402 
L 177.087462 183.456 
L 176.024284 185.063231 
L 175.977292 185.136 
L 174.934098 186.816 
z
M 27.224284 37.342689 
L 27.297526 37.296 
L 28.915193 36.239682 
L 29.797484 35.616 
L 30.606102 35.027227 
L 32.003323 33.936 
L 32.297011 33.698383 
L 33.972733 32.256 
L 33.98792 32.242376 
L 35.67883 30.647477 
L 35.750771 30.576 
L 37.356025 28.896 
L 37.369739 28.880909 
L 38.821485 27.216 
L 39.060648 26.924203 
L 40.158958 25.536 
L 40.751557 24.732594 
L 41.379284 23.856 
L 42.442466 22.248758 
L 42.489451 22.176 
L 43.532647 20.496 
L 42.442466 20.496 
L 40.751557 20.496 
L 39.717285 20.496 
L 39.060648 21.425012 
L 38.516384 22.176 
L 37.369739 23.657281 
L 37.211231 23.856 
L 35.800482 25.536 
L 35.67883 25.674234 
L 34.268229 27.216 
L 33.98792 27.507209 
L 32.590111 28.896 
L 32.297011 29.1745 
L 30.745237 30.576 
L 30.606102 30.69687 
L 28.915193 32.098517 
L 28.715187 32.256 
L 27.224284 33.395252 
L 26.468426 33.936 
L 25.533375 34.588404 
L 25.533375 35.616 
L 25.533375 37.296 
L 25.533375 38.379153 
z
" clip-path="url(#p01b88ac07b)" style="fill: #811e5a"/>
    <path d="M 170.951557 186.816 
L 172.642466 186.816 
L 174.333375 186.816 
L 174.934098 186.816 
L 175.977292 185.136 
L 176.024284 185.063231 
L 177.087462 183.456 
L 177.715193 182.579402 
L 178.30779 181.776 
L 179.406102 180.387793 
L 179.645262 180.096 
L 181.097011 178.43109 
L 181.110724 178.416 
L 182.715979 176.736 
L 182.78792 176.664523 
L 184.47883 175.069626 
L 184.494019 175.056 
L 186.169739 173.61362 
L 186.463431 173.376 
L 187.860648 172.284775 
L 188.66927 171.696 
L 189.551557 171.072323 
L 191.169235 170.016 
L 191.242466 169.969318 
L 192.933375 168.932852 
L 192.933375 168.336 
L 192.933375 166.656 
L 192.933375 164.976 
L 192.933375 164.512618 
L 191.96945 164.976 
L 191.242466 165.330194 
L 189.551557 166.218156 
L 188.779639 166.656 
L 187.860648 167.189219 
L 186.169739 168.265508 
L 186.064153 168.336 
L 184.47883 169.430013 
L 183.698381 170.016 
L 182.78792 170.727531 
L 181.636496 171.696 
L 181.097011 172.171783 
L 179.816086 173.376 
L 179.406102 173.783339 
L 178.194065 175.056 
L 177.715193 175.592003 
L 176.740433 176.736 
L 176.024284 177.640582 
L 175.434488 178.416 
L 174.333375 179.991088 
L 174.26242 180.096 
L 173.179144 181.776 
L 172.642466 182.689057 
L 172.201774 183.456 
L 171.308043 185.136 
L 170.951557 185.858276 
L 170.485157 186.816 
z
M 26.497318 42.336 
L 27.224284 41.981814 
L 28.915193 41.093849 
L 29.687116 40.656 
L 30.606102 40.122785 
L 32.297011 39.046497 
L 32.402604 38.976 
L 33.98792 37.881991 
L 34.768373 37.296 
L 35.67883 36.584471 
L 36.830255 35.616 
L 37.369739 35.140218 
L 38.650664 33.936 
L 39.060648 33.528661 
L 40.272684 32.256 
L 40.751557 31.719996 
L 41.726315 30.576 
L 42.442466 29.671413 
L 43.032258 28.896 
L 44.133375 27.320905 
L 44.204325 27.216 
L 45.287603 25.536 
L 45.824284 24.622937 
L 46.264971 23.856 
L 47.158699 22.176 
L 47.515193 21.453707 
L 47.981585 20.496 
L 47.515193 20.496 
L 45.824284 20.496 
L 44.133375 20.496 
L 43.532647 20.496 
L 42.489451 22.176 
L 42.442466 22.248758 
L 41.379284 23.856 
L 40.751557 24.732594 
L 40.158958 25.536 
L 39.060648 26.924203 
L 38.821485 27.216 
L 37.369739 28.880909 
L 37.356025 28.896 
L 35.750771 30.576 
L 35.67883 30.647477 
L 33.98792 32.242376 
L 33.972733 32.256 
L 32.297011 33.698383 
L 32.003323 33.936 
L 30.606102 35.027227 
L 29.797484 35.616 
L 28.915193 36.239682 
L 27.297526 37.296 
L 27.224284 37.342689 
L 25.533375 38.379153 
L 25.533375 38.976 
L 25.533375 40.656 
L 25.533375 42.336 
L 25.533375 42.799391 
z
" clip-path="url(#p01b88ac07b)" style="fill: #971c5b"/>
    <path d="M 81.333375 186.816 
L 81.338179 186.816 
L 81.333375 186.815674 
L 81.32876 186.816 
z
M 165.87883 186.816 
L 167.569739 186.816 
L 169.260648 186.816 
L 170.485157 186.816 
L 170.951557 185.858276 
L 171.308043 185.136 
L 172.201774 183.456 
L 172.642466 182.689057 
L 173.179144 181.776 
L 174.26242 180.096 
L 174.333375 179.991088 
L 175.434488 178.416 
L 176.024284 177.640582 
L 176.740433 176.736 
L 177.715193 175.592003 
L 178.194065 175.056 
L 179.406102 173.783339 
L 179.816086 173.376 
L 181.097011 172.171783 
L 181.636496 171.696 
L 182.78792 170.727531 
L 183.698381 170.016 
L 184.47883 169.430013 
L 186.064153 168.336 
L 186.169739 168.265508 
L 187.860648 167.189219 
L 188.779639 166.656 
L 189.551557 166.218156 
L 191.242466 165.330194 
L 191.96945 164.976 
L 192.933375 164.512618 
L 192.933375 163.296 
L 192.933375 161.616 
L 192.933375 159.936 
L 192.933375 159.079106 
L 191.242466 159.607316 
L 190.274687 159.936 
L 189.551557 160.183212 
L 187.860648 160.808379 
L 186.169739 161.52188 
L 185.958315 161.616 
L 184.47883 162.288977 
L 182.78792 163.168769 
L 182.55798 163.296 
L 181.097011 164.132957 
L 179.795479 164.976 
L 179.406102 165.239464 
L 177.715193 166.490239 
L 177.507273 166.656 
L 176.024284 167.91273 
L 175.566082 168.336 
L 174.333375 169.560753 
L 173.907356 170.016 
L 172.642466 171.489421 
L 172.475627 171.696 
L 171.216727 173.376 
L 170.951557 173.762856 
L 170.103033 175.056 
L 169.260648 176.507532 
L 169.132584 176.736 
L 168.247077 178.416 
L 167.569739 179.885917 
L 167.474997 180.096 
L 166.756864 181.776 
L 166.127638 183.456 
L 165.87883 184.174438 
L 165.548001 185.136 
L 165.016363 186.816 
z
M 25.533703 131.376 
L 25.533375 131.371227 
L 25.533375 131.376 
L 25.533375 131.380585 
z
M 192.933375 75.941169 
L 192.933375 75.936 
L 192.933375 75.931035 
L 192.933019 75.936 
z
M 27.224284 47.704694 
L 28.19209 47.376 
L 28.915193 47.128797 
L 30.606102 46.50363 
L 32.297011 45.790131 
L 32.508458 45.696 
L 33.98792 45.023031 
L 35.67883 44.143237 
L 35.908781 44.016 
L 37.369739 43.179049 
L 38.671279 42.336 
L 39.060648 42.072541 
L 40.751557 40.821763 
L 40.959478 40.656 
L 42.442466 39.39927 
L 42.900669 38.976 
L 44.133375 37.751246 
L 44.559393 37.296 
L 45.824284 35.822579 
L 45.991122 35.616 
L 47.250019 33.936 
L 47.515193 33.549135 
L 48.36371 32.256 
L 49.206102 30.804457 
L 49.334159 30.576 
L 50.219664 28.896 
L 50.897011 27.42606 
L 50.991743 27.216 
L 51.709876 25.536 
L 52.339103 23.856 
L 52.58792 23.137535 
L 52.918739 22.176 
L 53.450379 20.496 
L 52.58792 20.496 
L 50.897011 20.496 
L 49.206102 20.496 
L 47.981585 20.496 
L 47.515193 21.453707 
L 47.158699 22.176 
L 46.264971 23.856 
L 45.824284 24.622937 
L 45.287603 25.536 
L 44.204325 27.216 
L 44.133375 27.320905 
L 43.032258 28.896 
L 42.442466 29.671413 
L 41.726315 30.576 
L 40.751557 31.719996 
L 40.272684 32.256 
L 39.060648 33.528661 
L 38.650664 33.936 
L 37.369739 35.140218 
L 36.830255 35.616 
L 35.67883 36.584471 
L 34.768373 37.296 
L 33.98792 37.881991 
L 32.402604 38.976 
L 32.297011 39.046497 
L 30.606102 40.122785 
L 29.687116 40.656 
L 28.915193 41.093849 
L 27.224284 41.981814 
L 26.497318 42.336 
L 25.533375 42.799391 
L 25.533375 44.016 
L 25.533375 45.696 
L 25.533375 47.376 
L 25.533375 48.232902 
z
M 137.133375 20.496353 
L 137.138372 20.496 
L 137.133375 20.496 
L 137.128173 20.496 
z
" clip-path="url(#p01b88ac07b)" style="fill: #ab185a"/>
    <path d="M 61.042466 186.816 
L 62.733375 186.816 
L 64.424284 186.816 
L 66.115193 186.816 
L 67.806102 186.816 
L 69.497011 186.816 
L 71.18792 186.816 
L 72.87883 186.816 
L 74.569739 186.816 
L 76.260648 186.816 
L 77.951557 186.816 
L 79.642466 186.816 
L 81.32876 186.816 
L 81.333375 186.815674 
L 81.338179 186.816 
L 83.024284 186.816 
L 84.715193 186.816 
L 86.406102 186.816 
L 88.097011 186.816 
L 89.78792 186.816 
L 91.47883 186.816 
L 93.169739 186.816 
L 94.860648 186.816 
L 96.551557 186.816 
L 98.242466 186.816 
L 99.933375 186.816 
L 101.624284 186.816 
L 103.315193 186.816 
L 105.006102 186.816 
L 106.697011 186.816 
L 108.38792 186.816 
L 109.233362 186.816 
L 109.233362 185.136 
L 109.233362 183.456 
L 109.233362 181.776 
L 109.233362 180.096 
L 109.233362 178.416 
L 109.233362 176.736 
L 109.233362 175.056 
L 109.233362 173.376 
L 109.233362 171.696 
L 109.233362 170.016 
L 109.233362 168.336 
L 109.233362 166.656 
L 109.233362 164.976 
L 109.233362 163.296 
L 109.233362 161.616 
L 109.233362 159.936 
L 109.233362 158.256 
L 109.233362 156.576 
L 109.233362 154.896 
L 109.233362 153.216 
L 108.38792 151.662401 
L 106.697011 151.662401 
L 105.006102 151.662401 
L 103.315193 151.662401 
L 101.624284 151.662401 
L 99.933375 151.662401 
L 98.242466 151.662401 
L 96.551557 151.662401 
L 94.860648 151.662401 
L 93.169739 151.662401 
L 91.47883 151.662401 
L 89.78792 151.662401 
L 88.097011 151.662401 
L 86.406102 151.662401 
L 84.715193 151.662401 
L 83.024284 151.662401 
L 81.333375 151.662401 
L 79.642466 151.662401 
L 77.951557 151.662401 
L 76.260648 151.662401 
L 74.569739 151.662401 
L 72.87883 151.662401 
L 71.18792 151.662401 
L 69.497011 151.662401 
L 67.806102 151.662401 
L 66.115193 151.662401 
L 64.424284 151.662401 
L 62.733375 151.662401 
L 61.042466 151.662401 
L 60.915244 153.216 
L 60.915244 154.896 
L 60.915244 156.576 
L 60.915244 158.256 
L 60.915244 159.936 
L 60.915244 161.616 
L 60.915244 163.296 
L 60.915244 164.976 
L 60.915244 166.656 
L 60.915244 168.336 
L 60.915244 170.016 
L 60.915244 171.696 
L 60.915244 173.376 
L 60.915244 175.056 
L 60.915244 176.736 
L 60.915244 178.416 
L 60.915244 180.096 
L 60.915244 181.776 
L 60.915244 183.456 
L 60.915244 185.136 
L 60.915244 186.816 
z
M 159.115193 186.816 
L 160.806102 186.816 
L 162.497011 186.816 
L 164.18792 186.816 
L 165.016363 186.816 
L 165.548001 185.136 
L 165.87883 184.174438 
L 166.127638 183.456 
L 166.756864 181.776 
L 167.474997 180.096 
L 167.569739 179.885917 
L 168.247077 178.416 
L 169.132584 176.736 
L 169.260648 176.507532 
L 170.103033 175.056 
L 170.951557 173.762856 
L 171.216727 173.376 
L 172.475627 171.696 
L 172.642466 171.489421 
L 173.907356 170.016 
L 174.333375 169.560753 
L 175.566082 168.336 
L 176.024284 167.91273 
L 177.507273 166.656 
L 177.715193 166.490239 
L 179.406102 165.239464 
L 179.795479 164.976 
L 181.097011 164.132957 
L 182.55798 163.296 
L 182.78792 163.168769 
L 184.47883 162.288977 
L 185.958315 161.616 
L 186.169739 161.52188 
L 187.860648 160.808379 
L 189.551557 160.183212 
L 190.274687 159.936 
L 191.242466 159.607316 
L 192.933375 159.079106 
L 192.933375 158.256 
L 192.933375 156.576 
L 192.933375 154.896 
L 192.933375 153.216 
L 192.933375 151.662401 
L 191.242466 151.662401 
L 189.551557 151.662401 
L 187.860648 151.662401 
L 186.169739 151.662401 
L 184.47883 151.662401 
L 182.78792 151.662401 
L 181.097011 151.662401 
L 179.406102 151.662401 
L 177.715193 151.662401 
L 176.024284 151.662401 
L 174.333375 151.662401 
L 172.642466 151.662401 
L 170.951557 151.662401 
L 169.260648 151.662401 
L 167.569739 151.662401 
L 165.87883 151.662401 
L 164.18792 151.662401 
L 162.497011 151.662401 
L 160.806102 151.662401 
L 159.115193 151.662401 
L 157.551497 151.536 
L 157.551497 149.856 
L 157.551497 148.176 
L 157.551497 146.496 
L 157.551497 144.816 
L 157.551497 143.136 
L 157.551497 141.456 
L 157.551497 139.776 
L 157.551497 138.096 
L 157.551497 136.416 
L 157.551497 134.736 
L 157.551497 133.056 
L 157.551497 131.376 
L 157.551497 129.696 
L 157.551497 128.016 
L 157.551497 126.336 
L 157.551497 124.656 
L 157.551497 122.976 
L 157.551497 121.296 
L 157.551497 119.616 
L 157.551497 117.936 
L 157.551497 116.256 
L 157.551497 114.576 
L 157.551497 112.896 
L 157.551497 111.216 
L 157.551497 109.536 
L 157.551497 107.856 
L 157.551497 106.176 
L 157.551497 104.496 
L 159.115193 103.656013 
L 160.806102 103.656013 
L 162.497011 103.656013 
L 164.18792 103.656013 
L 165.87883 103.656013 
L 167.569739 103.656013 
L 169.260648 103.656013 
L 170.951557 103.656013 
L 172.642466 103.656013 
L 174.333375 103.656013 
L 176.024284 103.656013 
L 177.715193 103.656013 
L 179.406102 103.656013 
L 181.097011 103.656013 
L 182.78792 103.656013 
L 184.47883 103.656013 
L 186.169739 103.656013 
L 187.860648 103.656013 
L 189.551557 103.656013 
L 191.242466 103.656013 
L 192.933375 103.656013 
L 192.933375 102.816 
L 192.933375 101.136 
L 192.933375 99.456 
L 192.933375 97.776 
L 192.933375 96.096 
L 192.933375 94.416 
L 192.933375 92.736 
L 192.933375 91.056 
L 192.933375 89.376 
L 192.933375 87.696 
L 192.933375 86.016 
L 192.933375 84.336 
L 192.933375 82.656 
L 192.933375 80.976 
L 192.933375 79.296 
L 192.933375 77.616 
L 192.933375 75.941169 
L 192.933019 75.936 
L 192.933375 75.931035 
L 192.933375 74.256 
L 192.933375 72.576 
L 192.933375 70.896 
L 192.933375 69.216 
L 192.933375 67.536 
L 192.933375 65.856 
L 192.933375 64.176 
L 192.933375 62.496 
L 192.933375 60.816 
L 192.933375 59.136 
L 192.933375 57.456 
L 192.933375 55.776 
L 192.933375 55.649608 
L 191.242466 55.649608 
L 189.551557 55.649608 
L 187.860648 55.649608 
L 186.169739 55.649608 
L 184.47883 55.649608 
L 182.78792 55.649608 
L 181.097011 55.649608 
L 179.406102 55.649608 
L 177.715193 55.649608 
L 176.024284 55.649608 
L 174.333375 55.649608 
L 172.642466 55.649608 
L 170.951557 55.649608 
L 169.260648 55.649608 
L 167.569739 55.649608 
L 165.87883 55.649608 
L 164.18792 55.649608 
L 162.497011 55.649608 
L 160.806102 55.649608 
L 159.115193 55.649608 
L 157.551497 55.776 
L 157.551497 57.456 
L 157.551497 59.136 
L 157.551497 60.816 
L 157.551497 62.496 
L 157.551497 64.176 
L 157.551497 65.856 
L 157.551497 67.536 
L 157.551497 69.216 
L 157.551497 70.896 
L 157.551497 72.576 
L 157.551497 74.256 
L 157.551497 75.936 
L 157.551497 77.616 
L 157.551497 79.296 
L 157.551497 80.976 
L 157.551497 82.656 
L 157.551497 84.336 
L 157.551497 86.016 
L 157.551497 87.696 
L 157.551497 89.376 
L 157.551497 91.056 
L 157.551497 92.736 
L 157.551497 94.416 
L 157.551497 96.096 
L 157.551497 97.776 
L 157.551497 99.456 
L 157.551497 101.136 
L 157.551497 102.816 
L 157.424284 103.656013 
L 155.733375 103.656013 
L 154.042466 103.656013 
L 152.351557 103.656013 
L 150.660648 103.656013 
L 148.969739 103.656013 
L 147.27883 103.656013 
L 145.58792 103.656013 
L 143.897011 103.656013 
L 142.206102 103.656013 
L 140.515193 103.656013 
L 138.824284 103.656013 
L 137.133375 103.656013 
L 135.442466 103.656013 
L 133.751557 103.656013 
L 132.060648 103.656013 
L 130.369739 103.656013 
L 128.67883 103.656013 
L 126.98792 103.656013 
L 125.297011 103.656013 
L 123.606102 103.656013 
L 121.915193 103.656013 
L 120.224284 103.656013 
L 118.533375 103.656013 
L 116.842466 103.656013 
L 115.151557 103.656013 
L 113.460648 103.656013 
L 111.769739 103.656013 
L 110.07883 103.656013 
L 109.233362 102.816 
L 109.233362 101.136 
L 109.233362 99.456 
L 109.233362 97.776 
L 109.233362 96.096 
L 109.233362 94.416 
L 109.233362 92.736 
L 109.233362 91.056 
L 109.233362 89.376 
L 109.233362 87.696 
L 109.233362 86.016 
L 109.233362 84.336 
L 109.233362 82.656 
L 109.233362 80.976 
L 109.233362 79.296 
L 109.233362 77.616 
L 109.233362 75.936 
L 109.233362 74.256 
L 109.233362 72.576 
L 109.233362 70.896 
L 109.233362 69.216 
L 109.233362 67.536 
L 109.233362 65.856 
L 109.233362 64.176 
L 109.233362 62.496 
L 109.233362 60.816 
L 109.233362 59.136 
L 109.233362 57.456 
L 109.233362 55.776 
L 110.07883 55.649608 
L 111.769739 55.649608 
L 113.460648 55.649608 
L 115.151557 55.649608 
L 116.842466 55.649608 
L 118.533375 55.649608 
L 120.224284 55.649608 
L 121.915193 55.649608 
L 123.606102 55.649608 
L 125.297011 55.649608 
L 126.98792 55.649608 
L 128.67883 55.649608 
L 130.369739 55.649608 
L 132.060648 55.649608 
L 133.751557 55.649608 
L 135.442466 55.649608 
L 137.133375 55.649608 
L 138.824284 55.649608 
L 140.515193 55.649608 
L 142.206102 55.649608 
L 143.897011 55.649608 
L 145.58792 55.649608 
L 147.27883 55.649608 
L 148.969739 55.649608 
L 150.660648 55.649608 
L 152.351557 55.649608 
L 154.042466 55.649608 
L 155.733375 55.649608 
L 157.424284 55.649608 
L 157.551497 54.096 
L 157.551497 52.416 
L 157.551497 50.736 
L 157.551497 49.056 
L 157.551497 47.376 
L 157.551497 45.696 
L 157.551497 44.016 
L 157.551497 42.336 
L 157.551497 40.656 
L 157.551497 38.976 
L 157.551497 37.296 
L 157.551497 35.616 
L 157.551497 33.936 
L 157.551497 32.256 
L 157.551497 30.576 
L 157.551497 28.896 
L 157.551497 27.216 
L 157.551497 25.536 
L 157.551497 23.856 
L 157.551497 22.176 
L 157.551497 20.496 
L 157.424284 20.496 
L 155.733375 20.496 
L 154.042466 20.496 
L 152.351557 20.496 
L 150.660648 20.496 
L 148.969739 20.496 
L 147.27883 20.496 
L 145.58792 20.496 
L 143.897011 20.496 
L 142.206102 20.496 
L 140.515193 20.496 
L 138.824284 20.496 
L 137.138372 20.496 
L 137.133375 20.496353 
L 137.128173 20.496 
L 135.442466 20.496 
L 133.751557 20.496 
L 132.060648 20.496 
L 130.369739 20.496 
L 128.67883 20.496 
L 126.98792 20.496 
L 125.297011 20.496 
L 123.606102 20.496 
L 121.915193 20.496 
L 120.224284 20.496 
L 118.533375 20.496 
L 116.842466 20.496 
L 115.151557 20.496 
L 113.460648 20.496 
L 111.769739 20.496 
L 110.07883 20.496 
L 109.233362 20.496 
L 109.233362 22.176 
L 109.233362 23.856 
L 109.233362 25.536 
L 109.233362 27.216 
L 109.233362 28.896 
L 109.233362 30.576 
L 109.233362 32.256 
L 109.233362 33.936 
L 109.233362 35.616 
L 109.233362 37.296 
L 109.233362 38.976 
L 109.233362 40.656 
L 109.233362 42.336 
L 109.233362 44.016 
L 109.233362 45.696 
L 109.233362 47.376 
L 109.233362 49.056 
L 109.233362 50.736 
L 109.233362 52.416 
L 109.233362 54.096 
L 108.38792 55.649608 
L 106.697011 55.649608 
L 105.006102 55.649608 
L 103.315193 55.649608 
L 101.624284 55.649608 
L 99.933375 55.649608 
L 98.242466 55.649608 
L 96.551557 55.649608 
L 94.860648 55.649608 
L 93.169739 55.649608 
L 91.47883 55.649608 
L 89.78792 55.649608 
L 88.097011 55.649608 
L 86.406102 55.649608 
L 84.715193 55.649608 
L 83.024284 55.649608 
L 81.333375 55.649608 
L 79.642466 55.649608 
L 77.951557 55.649608 
L 76.260648 55.649608 
L 74.569739 55.649608 
L 72.87883 55.649608 
L 71.18792 55.649608 
L 69.497011 55.649608 
L 67.806102 55.649608 
L 66.115193 55.649608 
L 64.424284 55.649608 
L 62.733375 55.649608 
L 61.042466 55.649608 
L 60.915244 54.096 
L 60.915244 52.416 
L 60.915244 50.736 
L 60.915244 49.056 
L 60.915244 47.376 
L 60.915244 45.696 
L 60.915244 44.016 
L 60.915244 42.336 
L 60.915244 40.656 
L 60.915244 38.976 
L 60.915244 37.296 
L 60.915244 35.616 
L 60.915244 33.936 
L 60.915244 32.256 
L 60.915244 30.576 
L 60.915244 28.896 
L 60.915244 27.216 
L 60.915244 25.536 
L 60.915244 23.856 
L 60.915244 22.176 
L 60.915244 20.496 
L 59.351557 20.496 
L 57.660648 20.496 
L 55.969739 20.496 
L 54.27883 20.496 
L 53.450379 20.496 
L 52.918739 22.176 
L 52.58792 23.137535 
L 52.339103 23.856 
L 51.709876 25.536 
L 50.991743 27.216 
L 50.897011 27.42606 
L 50.219664 28.896 
L 49.334159 30.576 
L 49.206102 30.804457 
L 48.36371 32.256 
L 47.515193 33.549135 
L 47.250019 33.936 
L 45.991122 35.616 
L 45.824284 35.822579 
L 44.559393 37.296 
L 44.133375 37.751246 
L 42.900669 38.976 
L 42.442466 39.39927 
L 40.959478 40.656 
L 40.751557 40.821763 
L 39.060648 42.072541 
L 38.671279 42.336 
L 37.369739 43.179049 
L 35.908781 44.016 
L 35.67883 44.143237 
L 33.98792 45.023031 
L 32.508458 45.696 
L 32.297011 45.790131 
L 30.606102 46.50363 
L 28.915193 47.128797 
L 28.19209 47.376 
L 27.224284 47.704694 
L 25.533375 48.232902 
L 25.533375 49.056 
L 25.533375 50.736 
L 25.533375 52.416 
L 25.533375 54.096 
L 25.533375 55.649608 
L 27.224284 55.649608 
L 28.915193 55.649608 
L 30.606102 55.649608 
L 32.297011 55.649608 
L 33.98792 55.649608 
L 35.67883 55.649608 
L 37.369739 55.649608 
L 39.060648 55.649608 
L 40.751557 55.649608 
L 42.442466 55.649608 
L 44.133375 55.649608 
L 45.824284 55.649608 
L 47.515193 55.649608 
L 49.206102 55.649608 
L 50.897011 55.649608 
L 52.58792 55.649608 
L 54.27883 55.649608 
L 55.969739 55.649608 
L 57.660648 55.649608 
L 59.351557 55.649608 
L 60.915244 55.776 
L 60.915244 57.456 
L 60.915244 59.136 
L 60.915244 60.816 
L 60.915244 62.496 
L 60.915244 64.176 
L 60.915244 65.856 
L 60.915244 67.536 
L 60.915244 69.216 
L 60.915244 70.896 
L 60.915244 72.576 
L 60.915244 74.256 
L 60.915244 75.936 
L 60.915244 77.616 
L 60.915244 79.296 
L 60.915244 80.976 
L 60.915244 82.656 
L 60.915244 84.336 
L 60.915244 86.016 
L 60.915244 87.696 
L 60.915244 89.376 
L 60.915244 91.056 
L 60.915244 92.736 
L 60.915244 94.416 
L 60.915244 96.096 
L 60.915244 97.776 
L 60.915244 99.456 
L 60.915244 101.136 
L 60.915244 102.816 
L 61.042466 103.656013 
L 62.733375 103.656013 
L 64.424284 103.656013 
L 66.115193 103.656013 
L 67.806102 103.656013 
L 69.497011 103.656013 
L 71.18792 103.656013 
L 72.87883 103.656013 
L 74.569739 103.656013 
L 76.260648 103.656013 
L 77.951557 103.656013 
L 79.642466 103.656013 
L 81.333375 103.656013 
L 83.024284 103.656013 
L 84.715193 103.656013 
L 86.406102 103.656013 
L 88.097011 103.656013 
L 89.78792 103.656013 
L 91.47883 103.656013 
L 93.169739 103.656013 
L 94.860648 103.656013 
L 96.551557 103.656013 
L 98.242466 103.656013 
L 99.933375 103.656013 
L 101.624284 103.656013 
L 103.315193 103.656013 
L 105.006102 103.656013 
L 106.697011 103.656013 
L 108.38792 103.656013 
L 109.233362 104.496 
L 109.233362 106.176 
L 109.233362 107.856 
L 109.233362 109.536 
L 109.233362 111.216 
L 109.233362 112.896 
L 109.233362 114.576 
L 109.233362 116.256 
L 109.233362 117.936 
L 109.233362 119.616 
L 109.233362 121.296 
L 109.233362 122.976 
L 109.233362 124.656 
L 109.233362 126.336 
L 109.233362 128.016 
L 109.233362 129.696 
L 109.233362 131.376 
L 109.233362 133.056 
L 109.233362 134.736 
L 109.233362 136.416 
L 109.233362 138.096 
L 109.233362 139.776 
L 109.233362 141.456 
L 109.233362 143.136 
L 109.233362 144.816 
L 109.233362 146.496 
L 109.233362 148.176 
L 109.233362 149.856 
L 109.233362 151.536 
L 110.07883 151.662401 
L 111.769739 151.662401 
L 113.460648 151.662401 
L 115.151557 151.662401 
L 116.842466 151.662401 
L 118.533375 151.662401 
L 120.224284 151.662401 
L 121.915193 151.662401 
L 123.606102 151.662401 
L 125.297011 151.662401 
L 126.98792 151.662401 
L 128.67883 151.662401 
L 130.369739 151.662401 
L 132.060648 151.662401 
L 133.751557 151.662401 
L 135.442466 151.662401 
L 137.133375 151.662401 
L 138.824284 151.662401 
L 140.515193 151.662401 
L 142.206102 151.662401 
L 143.897011 151.662401 
L 145.58792 151.662401 
L 147.27883 151.662401 
L 148.969739 151.662401 
L 150.660648 151.662401 
L 152.351557 151.662401 
L 154.042466 151.662401 
L 155.733375 151.662401 
L 157.424284 151.662401 
L 157.551497 153.216 
L 157.551497 154.896 
L 157.551497 156.576 
L 157.551497 158.256 
L 157.551497 159.936 
L 157.551497 161.616 
L 157.551497 163.296 
L 157.551497 164.976 
L 157.551497 166.656 
L 157.551497 168.336 
L 157.551497 170.016 
L 157.551497 171.696 
L 157.551497 173.376 
L 157.551497 175.056 
L 157.551497 176.736 
L 157.551497 178.416 
L 157.551497 180.096 
L 157.551497 181.776 
L 157.551497 183.456 
L 157.551497 185.136 
L 157.551497 186.816 
z
M 27.224284 151.662401 
L 28.915193 151.662401 
L 30.606102 151.662401 
L 32.297011 151.662401 
L 33.98792 151.662401 
L 35.67883 151.662401 
L 37.369739 151.662401 
L 39.060648 151.662401 
L 40.751557 151.662401 
L 42.442466 151.662401 
L 44.133375 151.662401 
L 45.824284 151.662401 
L 47.515193 151.662401 
L 49.206102 151.662401 
L 50.897011 151.662401 
L 52.58792 151.662401 
L 54.27883 151.662401 
L 55.969739 151.662401 
L 57.660648 151.662401 
L 59.351557 151.662401 
L 60.915244 151.536 
L 60.915244 149.856 
L 60.915244 148.176 
L 60.915244 146.496 
L 60.915244 144.816 
L 60.915244 143.136 
L 60.915244 141.456 
L 60.915244 139.776 
L 60.915244 138.096 
L 60.915244 136.416 
L 60.915244 134.736 
L 60.915244 133.056 
L 60.915244 131.376 
L 60.915244 129.696 
L 60.915244 128.016 
L 60.915244 126.336 
L 60.915244 124.656 
L 60.915244 122.976 
L 60.915244 121.296 
L 60.915244 119.616 
L 60.915244 117.936 
L 60.915244 116.256 
L 60.915244 114.576 
L 60.915244 112.896 
L 60.915244 111.216 
L 60.915244 109.536 
L 60.915244 107.856 
L 60.915244 106.176 
L 60.915244 104.496 
L 59.351557 103.656013 
L 57.660648 103.656013 
L 55.969739 103.656013 
L 54.27883 103.656013 
L 52.58792 103.656013 
L 50.897011 103.656013 
L 49.206102 103.656013 
L 47.515193 103.656013 
L 45.824284 103.656013 
L 44.133375 103.656013 
L 42.442466 103.656013 
L 40.751557 103.656013 
L 39.060648 103.656013 
L 37.369739 103.656013 
L 35.67883 103.656013 
L 33.98792 103.656013 
L 32.297011 103.656013 
L 30.606102 103.656013 
L 28.915193 103.656013 
L 27.224284 103.656013 
L 25.533375 103.656013 
L 25.533375 104.496 
L 25.533375 106.176 
L 25.533375 107.856 
L 25.533375 109.536 
L 25.533375 111.216 
L 25.533375 112.896 
L 25.533375 114.576 
L 25.533375 116.256 
L 25.533375 117.936 
L 25.533375 119.616 
L 25.533375 121.296 
L 25.533375 122.976 
L 25.533375 124.656 
L 25.533375 126.336 
L 25.533375 128.016 
L 25.533375 129.696 
L 25.533375 131.371227 
L 25.533703 131.376 
L 25.533375 131.380585 
L 25.533375 133.056 
L 25.533375 134.736 
L 25.533375 136.416 
L 25.533375 138.096 
L 25.533375 139.776 
L 25.533375 141.456 
L 25.533375 143.136 
L 25.533375 144.816 
L 25.533375 146.496 
L 25.533375 148.176 
L 25.533375 149.856 
L 25.533375 151.536 
L 25.533375 151.662401 
z
" clip-path="url(#p01b88ac07b)" style="fill: #c11754"/>
    <path d="M 54.27883 186.816 
L 55.969739 186.816 
L 57.660648 186.816 
L 59.351557 186.816 
L 60.915244 186.816 
L 60.915244 185.136 
L 60.915244 183.456 
L 60.915244 181.776 
L 60.915244 180.096 
L 60.915244 178.416 
L 60.915244 176.736 
L 60.915244 175.056 
L 60.915244 173.376 
L 60.915244 171.696 
L 60.915244 170.016 
L 60.915244 168.336 
L 60.915244 166.656 
L 60.915244 164.976 
L 60.915244 163.296 
L 60.915244 161.616 
L 60.915244 159.936 
L 60.915244 158.256 
L 60.915244 156.576 
L 60.915244 154.896 
L 60.915244 153.216 
L 61.042466 151.662401 
L 62.733375 151.662401 
L 64.424284 151.662401 
L 66.115193 151.662401 
L 67.806102 151.662401 
L 69.497011 151.662401 
L 71.18792 151.662401 
L 72.87883 151.662401 
L 74.569739 151.662401 
L 76.260648 151.662401 
L 77.951557 151.662401 
L 79.642466 151.662401 
L 81.333375 151.662401 
L 83.024284 151.662401 
L 84.715193 151.662401 
L 86.406102 151.662401 
L 88.097011 151.662401 
L 89.78792 151.662401 
L 91.47883 151.662401 
L 93.169739 151.662401 
L 94.860648 151.662401 
L 96.551557 151.662401 
L 98.242466 151.662401 
L 99.933375 151.662401 
L 101.624284 151.662401 
L 103.315193 151.662401 
L 105.006102 151.662401 
L 106.697011 151.662401 
L 108.38792 151.662401 
L 109.233362 153.216 
L 109.233362 154.896 
L 109.233362 156.576 
L 109.233362 158.256 
L 109.233362 159.936 
L 109.233362 161.616 
L 109.233362 163.296 
L 109.233362 164.976 
L 109.233362 166.656 
L 109.233362 168.336 
L 109.233362 170.016 
L 109.233362 171.696 
L 109.233362 173.376 
L 109.233362 175.056 
L 109.233362 176.736 
L 109.233362 178.416 
L 109.233362 180.096 
L 109.233362 181.776 
L 109.233362 183.456 
L 109.233362 185.136 
L 109.233362 186.816 
L 110.07883 186.816 
L 111.769739 186.816 
L 113.460648 186.816 
L 115.151557 186.816 
L 116.842466 186.816 
L 118.533375 186.816 
L 120.224284 186.816 
L 121.915193 186.816 
L 123.606102 186.816 
L 125.297011 186.816 
L 126.98792 186.816 
L 128.67883 186.816 
L 130.369739 186.816 
L 132.060648 186.816 
L 133.751557 186.816 
L 135.442466 186.816 
L 137.128447 186.816 
L 137.133375 186.815665 
L 137.138109 186.816 
L 138.824284 186.816 
L 140.515193 186.816 
L 142.206102 186.816 
L 143.897011 186.816 
L 145.58792 186.816 
L 147.27883 186.816 
L 148.969739 186.816 
L 150.660648 186.816 
L 152.351557 186.816 
L 154.042466 186.816 
L 155.733375 186.816 
L 157.424284 186.816 
L 157.551497 186.816 
L 157.551497 185.136 
L 157.551497 183.456 
L 157.551497 181.776 
L 157.551497 180.096 
L 157.551497 178.416 
L 157.551497 176.736 
L 157.551497 175.056 
L 157.551497 173.376 
L 157.551497 171.696 
L 157.551497 170.016 
L 157.551497 168.336 
L 157.551497 166.656 
L 157.551497 164.976 
L 157.551497 163.296 
L 157.551497 161.616 
L 157.551497 159.936 
L 157.551497 158.256 
L 157.551497 156.576 
L 157.551497 154.896 
L 157.551497 153.216 
L 157.424284 151.662401 
L 155.733375 151.662401 
L 154.042466 151.662401 
L 152.351557 151.662401 
L 150.660648 151.662401 
L 148.969739 151.662401 
L 147.27883 151.662401 
L 145.58792 151.662401 
L 143.897011 151.662401 
L 142.206102 151.662401 
L 140.515193 151.662401 
L 138.824284 151.662401 
L 137.133375 151.662401 
L 135.442466 151.662401 
L 133.751557 151.662401 
L 132.060648 151.662401 
L 130.369739 151.662401 
L 128.67883 151.662401 
L 126.98792 151.662401 
L 125.297011 151.662401 
L 123.606102 151.662401 
L 121.915193 151.662401 
L 120.224284 151.662401 
L 118.533375 151.662401 
L 116.842466 151.662401 
L 115.151557 151.662401 
L 113.460648 151.662401 
L 111.769739 151.662401 
L 110.07883 151.662401 
L 109.233362 151.536 
L 109.233362 149.856 
L 109.233362 148.176 
L 109.233362 146.496 
L 109.233362 144.816 
L 109.233362 143.136 
L 109.233362 141.456 
L 109.233362 139.776 
L 109.233362 138.096 
L 109.233362 136.416 
L 109.233362 134.736 
L 109.233362 133.056 
L 109.233362 131.376 
L 109.233362 129.696 
L 109.233362 128.016 
L 109.233362 126.336 
L 109.233362 124.656 
L 109.233362 122.976 
L 109.233362 121.296 
L 109.233362 119.616 
L 109.233362 117.936 
L 109.233362 116.256 
L 109.233362 114.576 
L 109.233362 112.896 
L 109.233362 111.216 
L 109.233362 109.536 
L 109.233362 107.856 
L 109.233362 106.176 
L 109.233362 104.496 
L 108.38792 103.656013 
L 106.697011 103.656013 
L 105.006102 103.656013 
L 103.315193 103.656013 
L 101.624284 103.656013 
L 99.933375 103.656013 
L 98.242466 103.656013 
L 96.551557 103.656013 
L 94.860648 103.656013 
L 93.169739 103.656013 
L 91.47883 103.656013 
L 89.78792 103.656013 
L 88.097011 103.656013 
L 86.406102 103.656013 
L 84.715193 103.656013 
L 83.024284 103.656013 
L 81.333375 103.656013 
L 79.642466 103.656013 
L 77.951557 103.656013 
L 76.260648 103.656013 
L 74.569739 103.656013 
L 72.87883 103.656013 
L 71.18792 103.656013 
L 69.497011 103.656013 
L 67.806102 103.656013 
L 66.115193 103.656013 
L 64.424284 103.656013 
L 62.733375 103.656013 
L 61.042466 103.656013 
L 60.915244 102.816 
L 60.915244 101.136 
L 60.915244 99.456 
L 60.915244 97.776 
L 60.915244 96.096 
L 60.915244 94.416 
L 60.915244 92.736 
L 60.915244 91.056 
L 60.915244 89.376 
L 60.915244 87.696 
L 60.915244 86.016 
L 60.915244 84.336 
L 60.915244 82.656 
L 60.915244 80.976 
L 60.915244 79.296 
L 60.915244 77.616 
L 60.915244 75.936 
L 60.915244 74.256 
L 60.915244 72.576 
L 60.915244 70.896 
L 60.915244 69.216 
L 60.915244 67.536 
L 60.915244 65.856 
L 60.915244 64.176 
L 60.915244 62.496 
L 60.915244 60.816 
L 60.915244 59.136 
L 60.915244 57.456 
L 60.915244 55.776 
L 59.351557 55.649608 
L 57.660648 55.649608 
L 55.969739 55.649608 
L 54.27883 55.649608 
L 52.58792 55.649608 
L 50.897011 55.649608 
L 49.206102 55.649608 
L 47.515193 55.649608 
L 45.824284 55.649608 
L 44.133375 55.649608 
L 42.442466 55.649608 
L 40.751557 55.649608 
L 39.060648 55.649608 
L 37.369739 55.649608 
L 35.67883 55.649608 
L 33.98792 55.649608 
L 32.297011 55.649608 
L 30.606102 55.649608 
L 28.915193 55.649608 
L 27.224284 55.649608 
L 25.533375 55.649608 
L 25.533375 55.776 
L 25.533375 57.456 
L 25.533375 59.136 
L 25.533375 60.816 
L 25.533375 62.496 
L 25.533375 64.176 
L 25.533375 65.856 
L 25.533375 67.536 
L 25.533375 69.216 
L 25.533375 70.896 
L 25.533375 72.576 
L 25.533375 74.256 
L 25.533375 75.931296 
L 25.533712 75.936 
L 25.533375 75.940897 
L 25.533375 77.616 
L 25.533375 79.296 
L 25.533375 80.976 
L 25.533375 82.656 
L 25.533375 84.336 
L 25.533375 86.016 
L 25.533375 87.696 
L 25.533375 89.376 
L 25.533375 91.056 
L 25.533375 92.736 
L 25.533375 94.416 
L 25.533375 96.096 
L 25.533375 97.776 
L 25.533375 99.456 
L 25.533375 101.136 
L 25.533375 102.816 
L 25.533375 103.656013 
L 27.224284 103.656013 
L 28.915193 103.656013 
L 30.606102 103.656013 
L 32.297011 103.656013 
L 33.98792 103.656013 
L 35.67883 103.656013 
L 37.369739 103.656013 
L 39.060648 103.656013 
L 40.751557 103.656013 
L 42.442466 103.656013 
L 44.133375 103.656013 
L 45.824284 103.656013 
L 47.515193 103.656013 
L 49.206102 103.656013 
L 50.897011 103.656013 
L 52.58792 103.656013 
L 54.27883 103.656013 
L 55.969739 103.656013 
L 57.660648 103.656013 
L 59.351557 103.656013 
L 60.915244 104.496 
L 60.915244 106.176 
L 60.915244 107.856 
L 60.915244 109.536 
L 60.915244 111.216 
L 60.915244 112.896 
L 60.915244 114.576 
L 60.915244 116.256 
L 60.915244 117.936 
L 60.915244 119.616 
L 60.915244 121.296 
L 60.915244 122.976 
L 60.915244 124.656 
L 60.915244 126.336 
L 60.915244 128.016 
L 60.915244 129.696 
L 60.915244 131.376 
L 60.915244 133.056 
L 60.915244 134.736 
L 60.915244 136.416 
L 60.915244 138.096 
L 60.915244 139.776 
L 60.915244 141.456 
L 60.915244 143.136 
L 60.915244 144.816 
L 60.915244 146.496 
L 60.915244 148.176 
L 60.915244 149.856 
L 60.915244 151.536 
L 59.351557 151.662401 
L 57.660648 151.662401 
L 55.969739 151.662401 
L 54.27883 151.662401 
L 52.58792 151.662401 
L 50.897011 151.662401 
L 49.206102 151.662401 
L 47.515193 151.662401 
L 45.824284 151.662401 
L 44.133375 151.662401 
L 42.442466 151.662401 
L 40.751557 151.662401 
L 39.060648 151.662401 
L 37.369739 151.662401 
L 35.67883 151.662401 
L 33.98792 151.662401 
L 32.297011 151.662401 
L 30.606102 151.662401 
L 28.915193 151.662401 
L 27.224284 151.662401 
L 25.533375 151.662401 
L 25.533375 153.216 
L 25.533375 154.896 
L 25.533375 156.576 
L 25.533375 158.256 
L 25.533375 159.079111 
L 27.224284 159.607321 
L 28.192046 159.936 
L 28.915193 160.183218 
L 30.606102 160.808386 
L 32.297011 161.521887 
L 32.50842 161.616 
L 33.98792 162.288985 
L 35.67883 163.168779 
L 35.908753 163.296 
L 37.369739 164.132967 
L 38.671254 164.976 
L 39.060648 165.239475 
L 40.751557 166.490252 
L 40.95946 166.656 
L 42.442466 167.912746 
L 42.900651 168.336 
L 44.133375 169.560771 
L 44.559378 170.016 
L 45.824284 171.489438 
L 45.991109 171.696 
L 47.250007 173.376 
L 47.515193 173.762881 
L 48.3637 175.056 
L 49.206102 176.50756 
L 49.33415 176.736 
L 50.219657 178.416 
L 50.897011 179.885956 
L 50.991736 180.096 
L 51.70987 181.776 
L 52.339097 183.456 
L 52.58792 184.174481 
L 52.918734 185.136 
L 53.450373 186.816 
z
M 159.115193 151.662401 
L 160.806102 151.662401 
L 162.497011 151.662401 
L 164.18792 151.662401 
L 165.87883 151.662401 
L 167.569739 151.662401 
L 169.260648 151.662401 
L 170.951557 151.662401 
L 172.642466 151.662401 
L 174.333375 151.662401 
L 176.024284 151.662401 
L 177.715193 151.662401 
L 179.406102 151.662401 
L 181.097011 151.662401 
L 182.78792 151.662401 
L 184.47883 151.662401 
L 186.169739 151.662401 
L 187.860648 151.662401 
L 189.551557 151.662401 
L 191.242466 151.662401 
L 192.933375 151.662401 
L 192.933375 151.536 
L 192.933375 149.856 
L 192.933375 148.176 
L 192.933375 146.496 
L 192.933375 144.816 
L 192.933375 143.136 
L 192.933375 141.456 
L 192.933375 139.776 
L 192.933375 138.096 
L 192.933375 136.416 
L 192.933375 134.736 
L 192.933375 133.056 
L 192.933375 131.380846 
L 192.933028 131.376 
L 192.933375 131.370955 
L 192.933375 129.696 
L 192.933375 128.016 
L 192.933375 126.336 
L 192.933375 124.656 
L 192.933375 122.976 
L 192.933375 121.296 
L 192.933375 119.616 
L 192.933375 117.936 
L 192.933375 116.256 
L 192.933375 114.576 
L 192.933375 112.896 
L 192.933375 111.216 
L 192.933375 109.536 
L 192.933375 107.856 
L 192.933375 106.176 
L 192.933375 104.496 
L 192.933375 103.656013 
L 191.242466 103.656013 
L 189.551557 103.656013 
L 187.860648 103.656013 
L 186.169739 103.656013 
L 184.47883 103.656013 
L 182.78792 103.656013 
L 181.097011 103.656013 
L 179.406102 103.656013 
L 177.715193 103.656013 
L 176.024284 103.656013 
L 174.333375 103.656013 
L 172.642466 103.656013 
L 170.951557 103.656013 
L 169.260648 103.656013 
L 167.569739 103.656013 
L 165.87883 103.656013 
L 164.18792 103.656013 
L 162.497011 103.656013 
L 160.806102 103.656013 
L 159.115193 103.656013 
L 157.551497 104.496 
L 157.551497 106.176 
L 157.551497 107.856 
L 157.551497 109.536 
L 157.551497 111.216 
L 157.551497 112.896 
L 157.551497 114.576 
L 157.551497 116.256 
L 157.551497 117.936 
L 157.551497 119.616 
L 157.551497 121.296 
L 157.551497 122.976 
L 157.551497 124.656 
L 157.551497 126.336 
L 157.551497 128.016 
L 157.551497 129.696 
L 157.551497 131.376 
L 157.551497 133.056 
L 157.551497 134.736 
L 157.551497 136.416 
L 157.551497 138.096 
L 157.551497 139.776 
L 157.551497 141.456 
L 157.551497 143.136 
L 157.551497 144.816 
L 157.551497 146.496 
L 157.551497 148.176 
L 157.551497 149.856 
L 157.551497 151.536 
z
M 110.07883 103.656013 
L 111.769739 103.656013 
L 113.460648 103.656013 
L 115.151557 103.656013 
L 116.842466 103.656013 
L 118.533375 103.656013 
L 120.224284 103.656013 
L 121.915193 103.656013 
L 123.606102 103.656013 
L 125.297011 103.656013 
L 126.98792 103.656013 
L 128.67883 103.656013 
L 130.369739 103.656013 
L 132.060648 103.656013 
L 133.751557 103.656013 
L 135.442466 103.656013 
L 137.133375 103.656013 
L 138.824284 103.656013 
L 140.515193 103.656013 
L 142.206102 103.656013 
L 143.897011 103.656013 
L 145.58792 103.656013 
L 147.27883 103.656013 
L 148.969739 103.656013 
L 150.660648 103.656013 
L 152.351557 103.656013 
L 154.042466 103.656013 
L 155.733375 103.656013 
L 157.424284 103.656013 
L 157.551497 102.816 
L 157.551497 101.136 
L 157.551497 99.456 
L 157.551497 97.776 
L 157.551497 96.096 
L 157.551497 94.416 
L 157.551497 92.736 
L 157.551497 91.056 
L 157.551497 89.376 
L 157.551497 87.696 
L 157.551497 86.016 
L 157.551497 84.336 
L 157.551497 82.656 
L 157.551497 80.976 
L 157.551497 79.296 
L 157.551497 77.616 
L 157.551497 75.936 
L 157.551497 74.256 
L 157.551497 72.576 
L 157.551497 70.896 
L 157.551497 69.216 
L 157.551497 67.536 
L 157.551497 65.856 
L 157.551497 64.176 
L 157.551497 62.496 
L 157.551497 60.816 
L 157.551497 59.136 
L 157.551497 57.456 
L 157.551497 55.776 
L 159.115193 55.649608 
L 160.806102 55.649608 
L 162.497011 55.649608 
L 164.18792 55.649608 
L 165.87883 55.649608 
L 167.569739 55.649608 
L 169.260648 55.649608 
L 170.951557 55.649608 
L 172.642466 55.649608 
L 174.333375 55.649608 
L 176.024284 55.649608 
L 177.715193 55.649608 
L 179.406102 55.649608 
L 181.097011 55.649608 
L 182.78792 55.649608 
L 184.47883 55.649608 
L 186.169739 55.649608 
L 187.860648 55.649608 
L 189.551557 55.649608 
L 191.242466 55.649608 
L 192.933375 55.649608 
L 192.933375 54.096 
L 192.933375 52.416 
L 192.933375 50.736 
L 192.933375 49.056 
L 192.933375 48.232908 
L 191.242466 47.704699 
L 190.274644 47.376 
L 189.551557 47.128803 
L 187.860648 46.503637 
L 186.169739 45.790138 
L 185.958275 45.696 
L 184.47883 45.023039 
L 182.78792 44.143247 
L 182.557952 44.016 
L 181.097011 43.179059 
L 179.795455 42.336 
L 179.406102 42.072552 
L 177.715193 40.821775 
L 177.507257 40.656 
L 176.024284 39.399285 
L 175.566065 38.976 
L 174.333375 37.751263 
L 173.907342 37.296 
L 172.642466 35.822595 
L 172.475615 35.616 
L 171.216716 33.936 
L 170.951557 33.549159 
L 170.103024 32.256 
L 169.260648 30.804485 
L 169.132575 30.576 
L 168.24707 28.896 
L 167.569739 27.426099 
L 167.474989 27.216 
L 166.756858 25.536 
L 166.127632 23.856 
L 165.87883 23.137577 
L 165.547996 22.176 
L 165.016358 20.496 
L 164.18792 20.496 
L 162.497011 20.496 
L 160.806102 20.496 
L 159.115193 20.496 
L 157.551497 20.496 
L 157.551497 22.176 
L 157.551497 23.856 
L 157.551497 25.536 
L 157.551497 27.216 
L 157.551497 28.896 
L 157.551497 30.576 
L 157.551497 32.256 
L 157.551497 33.936 
L 157.551497 35.616 
L 157.551497 37.296 
L 157.551497 38.976 
L 157.551497 40.656 
L 157.551497 42.336 
L 157.551497 44.016 
L 157.551497 45.696 
L 157.551497 47.376 
L 157.551497 49.056 
L 157.551497 50.736 
L 157.551497 52.416 
L 157.551497 54.096 
L 157.424284 55.649608 
L 155.733375 55.649608 
L 154.042466 55.649608 
L 152.351557 55.649608 
L 150.660648 55.649608 
L 148.969739 55.649608 
L 147.27883 55.649608 
L 145.58792 55.649608 
L 143.897011 55.649608 
L 142.206102 55.649608 
L 140.515193 55.649608 
L 138.824284 55.649608 
L 137.133375 55.649608 
L 135.442466 55.649608 
L 133.751557 55.649608 
L 132.060648 55.649608 
L 130.369739 55.649608 
L 128.67883 55.649608 
L 126.98792 55.649608 
L 125.297011 55.649608 
L 123.606102 55.649608 
L 121.915193 55.649608 
L 120.224284 55.649608 
L 118.533375 55.649608 
L 116.842466 55.649608 
L 115.151557 55.649608 
L 113.460648 55.649608 
L 111.769739 55.649608 
L 110.07883 55.649608 
L 109.233362 55.776 
L 109.233362 57.456 
L 109.233362 59.136 
L 109.233362 60.816 
L 109.233362 62.496 
L 109.233362 64.176 
L 109.233362 65.856 
L 109.233362 67.536 
L 109.233362 69.216 
L 109.233362 70.896 
L 109.233362 72.576 
L 109.233362 74.256 
L 109.233362 75.936 
L 109.233362 77.616 
L 109.233362 79.296 
L 109.233362 80.976 
L 109.233362 82.656 
L 109.233362 84.336 
L 109.233362 86.016 
L 109.233362 87.696 
L 109.233362 89.376 
L 109.233362 91.056 
L 109.233362 92.736 
L 109.233362 94.416 
L 109.233362 96.096 
L 109.233362 97.776 
L 109.233362 99.456 
L 109.233362 101.136 
L 109.233362 102.816 
z
M 61.042466 55.649608 
L 62.733375 55.649608 
L 64.424284 55.649608 
L 66.115193 55.649608 
L 67.806102 55.649608 
L 69.497011 55.649608 
L 71.18792 55.649608 
L 72.87883 55.649608 
L 74.569739 55.649608 
L 76.260648 55.649608 
L 77.951557 55.649608 
L 79.642466 55.649608 
L 81.333375 55.649608 
L 83.024284 55.649608 
L 84.715193 55.649608 
L 86.406102 55.649608 
L 88.097011 55.649608 
L 89.78792 55.649608 
L 91.47883 55.649608 
L 93.169739 55.649608 
L 94.860648 55.649608 
L 96.551557 55.649608 
L 98.242466 55.649608 
L 99.933375 55.649608 
L 101.624284 55.649608 
L 103.315193 55.649608 
L 105.006102 55.649608 
L 106.697011 55.649608 
L 108.38792 55.649608 
L 109.233362 54.096 
L 109.233362 52.416 
L 109.233362 50.736 
L 109.233362 49.056 
L 109.233362 47.376 
L 109.233362 45.696 
L 109.233362 44.016 
L 109.233362 42.336 
L 109.233362 40.656 
L 109.233362 38.976 
L 109.233362 37.296 
L 109.233362 35.616 
L 109.233362 33.936 
L 109.233362 32.256 
L 109.233362 30.576 
L 109.233362 28.896 
L 109.233362 27.216 
L 109.233362 25.536 
L 109.233362 23.856 
L 109.233362 22.176 
L 109.233362 20.496 
L 108.38792 20.496 
L 106.697011 20.496 
L 105.006102 20.496 
L 103.315193 20.496 
L 101.624284 20.496 
L 99.933375 20.496 
L 98.242466 20.496 
L 96.551557 20.496 
L 94.860648 20.496 
L 93.169739 20.496 
L 91.47883 20.496 
L 89.78792 20.496 
L 88.097011 20.496 
L 86.406102 20.496 
L 84.715193 20.496 
L 83.024284 20.496 
L 81.338453 20.496 
L 81.333375 20.496345 
L 81.328497 20.496 
L 79.642466 20.496 
L 77.951557 20.496 
L 76.260648 20.496 
L 74.569739 20.496 
L 72.87883 20.496 
L 71.18792 20.496 
L 69.497011 20.496 
L 67.806102 20.496 
L 66.115193 20.496 
L 64.424284 20.496 
L 62.733375 20.496 
L 61.042466 20.496 
L 60.915244 20.496 
L 60.915244 22.176 
L 60.915244 23.856 
L 60.915244 25.536 
L 60.915244 27.216 
L 60.915244 28.896 
L 60.915244 30.576 
L 60.915244 32.256 
L 60.915244 33.936 
L 60.915244 35.616 
L 60.915244 37.296 
L 60.915244 38.976 
L 60.915244 40.656 
L 60.915244 42.336 
L 60.915244 44.016 
L 60.915244 45.696 
L 60.915244 47.376 
L 60.915244 49.056 
L 60.915244 50.736 
L 60.915244 52.416 
L 60.915244 54.096 
z
" clip-path="url(#p01b88ac07b)" style="fill: #d3214b"/>
    <path d="M 47.515193 185.858309 
L 47.981576 186.816 
L 49.206102 186.816 
L 50.897011 186.816 
L 52.58792 186.816 
L 53.450373 186.816 
L 52.918734 185.136 
L 52.58792 184.174481 
L 52.339097 183.456 
L 51.70987 181.776 
L 50.991736 180.096 
L 50.897011 179.885956 
L 50.219657 178.416 
L 49.33415 176.736 
L 49.206102 176.50756 
L 48.3637 175.056 
L 47.515193 173.762881 
L 47.250007 173.376 
L 45.991109 171.696 
L 45.824284 171.489438 
L 44.559378 170.016 
L 44.133375 169.560771 
L 42.900651 168.336 
L 42.442466 167.912746 
L 40.95946 166.656 
L 40.751557 166.490252 
L 39.060648 165.239475 
L 38.671254 164.976 
L 37.369739 164.132967 
L 35.908753 163.296 
L 35.67883 163.168779 
L 33.98792 162.288985 
L 32.50842 161.616 
L 32.297011 161.521887 
L 30.606102 160.808386 
L 28.915193 160.183218 
L 28.192046 159.936 
L 27.224284 159.607321 
L 25.533375 159.079111 
L 25.533375 159.936 
L 25.533375 161.616 
L 25.533375 163.296 
L 25.533375 164.512626 
L 26.497284 164.976 
L 27.224284 165.330201 
L 28.915193 166.218165 
L 29.687094 166.656 
L 30.606102 167.189229 
L 32.297011 168.265519 
L 32.40258 168.336 
L 33.98792 169.430025 
L 34.768352 170.016 
L 35.67883 170.727544 
L 36.830238 171.696 
L 37.369739 172.171798 
L 38.650648 173.376 
L 39.060648 173.783354 
L 40.272669 175.056 
L 40.751557 175.59202 
L 41.726301 176.736 
L 42.442466 177.640604 
L 43.032246 178.416 
L 44.133375 179.991113 
L 44.204313 180.096 
L 45.287592 181.776 
L 45.824284 182.689079 
L 46.264962 183.456 
L 47.158692 185.136 
z
M 137.133375 186.816 
L 137.138109 186.816 
L 137.133375 186.815665 
L 137.128447 186.816 
z
M 192.933375 131.380846 
L 192.933375 131.376 
L 192.933375 131.370955 
L 192.933028 131.376 
z
M 25.533712 75.936 
L 25.533375 75.931296 
L 25.533375 75.936 
L 25.533375 75.940897 
z
M 191.242466 47.704699 
L 192.933375 48.232908 
L 192.933375 47.376 
L 192.933375 45.696 
L 192.933375 44.016 
L 192.933375 42.799399 
L 191.969416 42.336 
L 191.242466 41.981822 
L 189.551557 41.093858 
L 188.779617 40.656 
L 187.860648 40.122794 
L 186.169739 39.046509 
L 186.064128 38.976 
L 184.47883 37.882003 
L 183.698361 37.296 
L 182.78792 36.584485 
L 181.636478 35.616 
L 181.097011 35.140233 
L 179.816069 33.936 
L 179.406102 33.528678 
L 178.19405 32.256 
L 177.715193 31.720014 
L 176.74042 30.576 
L 176.024284 29.671434 
L 175.434476 28.896 
L 174.333375 27.320929 
L 174.262409 27.216 
L 173.179134 25.536 
L 172.642466 24.622959 
L 172.201765 23.856 
L 171.308035 22.176 
L 170.951557 21.45374 
L 170.485149 20.496 
L 169.260648 20.496 
L 167.569739 20.496 
L 165.87883 20.496 
L 165.016358 20.496 
L 165.547996 22.176 
L 165.87883 23.137577 
L 166.127632 23.856 
L 166.756858 25.536 
L 167.474989 27.216 
L 167.569739 27.426099 
L 168.24707 28.896 
L 169.132575 30.576 
L 169.260648 30.804485 
L 170.103024 32.256 
L 170.951557 33.549159 
L 171.216716 33.936 
L 172.475615 35.616 
L 172.642466 35.822595 
L 173.907342 37.296 
L 174.333375 37.751263 
L 175.566065 38.976 
L 176.024284 39.399285 
L 177.507257 40.656 
L 177.715193 40.821775 
L 179.406102 42.072552 
L 179.795455 42.336 
L 181.097011 43.179059 
L 182.557952 44.016 
L 182.78792 44.143247 
L 184.47883 45.023039 
L 185.958275 45.696 
L 186.169739 45.790138 
L 187.860648 46.503637 
L 189.551557 47.128803 
L 190.274644 47.376 
z
M 81.333375 20.496345 
L 81.338453 20.496 
L 81.333375 20.496 
L 81.328497 20.496 
z
" clip-path="url(#p01b88ac07b)" style="fill: #e23442"/>
    <path d="M 44.133375 186.816 
L 45.824284 186.816 
L 47.515193 186.816 
L 47.981576 186.816 
L 47.515193 185.858309 
L 47.158692 185.136 
L 46.264962 183.456 
L 45.824284 182.689079 
L 45.287592 181.776 
L 44.204313 180.096 
L 44.133375 179.991113 
L 43.032246 178.416 
L 42.442466 177.640604 
L 41.726301 176.736 
L 40.751557 175.59202 
L 40.272669 175.056 
L 39.060648 173.783354 
L 38.650648 173.376 
L 37.369739 172.171798 
L 36.830238 171.696 
L 35.67883 170.727544 
L 34.768352 170.016 
L 33.98792 169.430025 
L 32.40258 168.336 
L 32.297011 168.265519 
L 30.606102 167.189229 
L 29.687094 166.656 
L 28.915193 166.218165 
L 27.224284 165.330201 
L 26.497284 164.976 
L 25.533375 164.512626 
L 25.533375 164.976 
L 25.533375 166.656 
L 25.533375 168.336 
L 25.533375 168.932863 
L 27.224284 169.969328 
L 27.2975 170.016 
L 28.915193 171.072334 
L 29.797462 171.696 
L 30.606102 172.284789 
L 32.003302 173.376 
L 32.297011 173.613634 
L 33.972715 175.056 
L 33.98792 175.06964 
L 35.67883 176.66454 
L 35.750753 176.736 
L 37.35601 178.416 
L 37.369739 178.431107 
L 38.821471 180.096 
L 39.060648 180.387814 
L 40.158945 181.776 
L 40.751557 182.579423 
L 41.379272 183.456 
L 42.442466 185.063257 
L 42.489441 185.136 
L 43.532637 186.816 
z
M 192.933375 42.799399 
L 192.933375 42.336 
L 192.933375 40.656 
L 192.933375 38.976 
L 192.933375 38.379164 
L 191.242466 37.342699 
L 191.169209 37.296 
L 189.551557 36.239693 
L 188.669249 35.616 
L 187.860648 35.02724 
L 186.463411 33.936 
L 186.169739 33.698395 
L 184.494001 32.256 
L 184.47883 32.24239 
L 182.78792 30.647493 
L 182.715963 30.576 
L 181.11071 28.896 
L 181.097011 28.880926 
L 179.64525 27.216 
L 179.406102 26.924222 
L 178.307776 25.536 
L 177.715193 24.732615 
L 177.08745 23.856 
L 176.024284 22.248784 
L 175.977282 22.176 
L 174.934087 20.496 
L 174.333375 20.496 
L 172.642466 20.496 
L 170.951557 20.496 
L 170.485149 20.496 
L 170.951557 21.45374 
L 171.308035 22.176 
L 172.201765 23.856 
L 172.642466 24.622959 
L 173.179134 25.536 
L 174.262409 27.216 
L 174.333375 27.320929 
L 175.434476 28.896 
L 176.024284 29.671434 
L 176.74042 30.576 
L 177.715193 31.720014 
L 178.19405 32.256 
L 179.406102 33.528678 
L 179.816069 33.936 
L 181.097011 35.140233 
L 181.636478 35.616 
L 182.78792 36.584485 
L 183.698361 37.296 
L 184.47883 37.882003 
L 186.064128 38.976 
L 186.169739 39.046509 
L 187.860648 40.122794 
L 188.779617 40.656 
L 189.551557 41.093858 
L 191.242466 41.981822 
L 191.969416 42.336 
z
" clip-path="url(#p01b88ac07b)" style="fill: #ec4c3e"/>
    <path d="M 39.060648 185.887004 
L 39.717272 186.816 
L 40.751557 186.816 
L 42.442466 186.816 
L 43.532637 186.816 
L 42.489441 185.136 
L 42.442466 185.063257 
L 41.379272 183.456 
L 40.751557 182.579423 
L 40.158945 181.776 
L 39.060648 180.387814 
L 38.821471 180.096 
L 37.369739 178.431107 
L 37.35601 178.416 
L 35.750753 176.736 
L 35.67883 176.66454 
L 33.98792 175.06964 
L 33.972715 175.056 
L 32.297011 173.613634 
L 32.003302 173.376 
L 30.606102 172.284789 
L 29.797462 171.696 
L 28.915193 171.072334 
L 27.2975 170.016 
L 27.224284 169.969328 
L 25.533375 168.932863 
L 25.533375 170.016 
L 25.533375 171.696 
L 25.533375 172.723612 
L 26.468403 173.376 
L 27.224284 173.916763 
L 28.715167 175.056 
L 28.915193 175.213499 
L 30.606102 176.615146 
L 30.745217 176.736 
L 32.297011 178.137516 
L 32.590094 178.416 
L 33.98792 179.804808 
L 34.268213 180.096 
L 35.67883 181.637783 
L 35.800468 181.776 
L 37.211217 183.456 
L 37.369739 183.654736 
L 38.516373 185.136 
z
M 191.242466 37.342699 
L 192.933375 38.379164 
L 192.933375 37.296 
L 192.933375 35.616 
L 192.933375 34.588416 
L 191.998307 33.936 
L 191.242466 33.395264 
L 189.751546 32.256 
L 189.551557 32.09853 
L 187.860648 30.696885 
L 187.721497 30.576 
L 186.169739 29.174515 
L 185.876623 28.896 
L 184.47883 27.507224 
L 184.198506 27.216 
L 182.78792 25.674253 
L 182.666251 25.536 
L 181.255503 23.856 
L 181.097011 23.657301 
L 179.950349 22.176 
L 179.406102 21.425035 
L 178.74945 20.496 
L 177.715193 20.496 
L 176.024284 20.496 
L 174.934087 20.496 
L 175.977282 22.176 
L 176.024284 22.248784 
L 177.08745 23.856 
L 177.715193 24.732615 
L 178.307776 25.536 
L 179.406102 26.924222 
L 179.64525 27.216 
L 181.097011 28.880926 
L 181.11071 28.896 
L 182.715963 30.576 
L 182.78792 30.647493 
L 184.47883 32.24239 
L 184.494001 32.256 
L 186.169739 33.698395 
L 186.463411 33.936 
L 187.860648 35.02724 
L 188.669249 35.616 
L 189.551557 36.239693 
L 191.169209 37.296 
z
" clip-path="url(#p01b88ac07b)" style="fill: #f16445"/>
    <path d="M 35.67883 185.968969 
L 36.344775 186.816 
L 37.369739 186.816 
L 39.060648 186.816 
L 39.717272 186.816 
L 39.060648 185.887004 
L 38.516373 185.136 
L 37.369739 183.654736 
L 37.211217 183.456 
L 35.800468 181.776 
L 35.67883 181.637783 
L 34.268213 180.096 
L 33.98792 179.804808 
L 32.590094 178.416 
L 32.297011 178.137516 
L 30.745217 176.736 
L 30.606102 176.615146 
L 28.915193 175.213499 
L 28.715167 175.056 
L 27.224284 173.916763 
L 26.468403 173.376 
L 25.533375 172.723612 
L 25.533375 173.376 
L 25.533375 175.056 
L 25.533375 176.074351 
L 26.385906 176.736 
L 27.224284 177.405525 
L 28.422193 178.416 
L 28.915193 178.845938 
L 30.280278 180.096 
L 30.606102 180.405987 
L 31.985012 181.776 
L 32.297011 182.099722 
L 33.555191 183.456 
L 33.98792 183.94582 
L 35.004957 185.136 
z
M 192.933375 34.588416 
L 192.933375 33.936 
L 192.933375 32.256 
L 192.933375 31.237679 
L 192.080806 30.576 
L 191.242466 29.906504 
L 190.044524 28.896 
L 189.551557 28.466092 
L 188.186438 27.216 
L 187.860648 26.906045 
L 186.481706 25.536 
L 186.169739 25.212311 
L 184.911529 23.856 
L 184.47883 23.366214 
L 183.461764 22.176 
L 182.78792 21.343069 
L 182.121945 20.496 
L 181.097011 20.496 
L 179.406102 20.496 
L 178.74945 20.496 
L 179.406102 21.425035 
L 179.950349 22.176 
L 181.097011 23.657301 
L 181.255503 23.856 
L 182.666251 25.536 
L 182.78792 25.674253 
L 184.198506 27.216 
L 184.47883 27.507224 
L 185.876623 28.896 
L 186.169739 29.174515 
L 187.721497 30.576 
L 187.860648 30.696885 
L 189.551557 32.09853 
L 189.751546 32.256 
L 191.242466 33.395264 
L 191.998307 33.936 
z
" clip-path="url(#p01b88ac07b)" style="fill: #f47c55"/>
    <path d="M 32.297011 185.649132 
L 33.303118 186.816 
L 33.98792 186.816 
L 35.67883 186.816 
L 36.344775 186.816 
L 35.67883 185.968969 
L 35.004957 185.136 
L 33.98792 183.94582 
L 33.555191 183.456 
L 32.297011 182.099722 
L 31.985012 181.776 
L 30.606102 180.405987 
L 30.280278 180.096 
L 28.915193 178.845938 
L 28.422193 178.416 
L 27.224284 177.405525 
L 26.385906 176.736 
L 25.533375 176.074351 
L 25.533375 176.736 
L 25.533375 178.416 
L 25.533375 179.096384 
L 26.70782 180.096 
L 27.224284 180.549724 
L 28.557459 181.776 
L 28.915193 182.117173 
L 30.262713 183.456 
L 30.606102 183.811426 
L 31.840341 185.136 
z
M 192.933375 31.237679 
L 192.933375 30.576 
L 192.933375 28.896 
L 192.933375 28.215646 
L 191.758895 27.216 
L 191.242466 26.762306 
L 189.909257 25.536 
L 189.551557 25.194858 
L 188.204005 23.856 
L 187.860648 23.500607 
L 186.626378 22.176 
L 186.169739 21.662903 
L 185.163601 20.496 
L 184.47883 20.496 
L 182.78792 20.496 
L 182.121945 20.496 
L 182.78792 21.343069 
L 183.461764 22.176 
L 184.47883 23.366214 
L 184.911529 23.856 
L 186.169739 25.212311 
L 186.481706 25.536 
L 187.860648 26.906045 
L 188.186438 27.216 
L 189.551557 28.466092 
L 190.044524 28.896 
L 191.242466 29.906504 
L 192.080806 30.576 
z
" clip-path="url(#p01b88ac07b)" style="fill: #f59269"/>
    <path d="M 30.606102 186.816 
L 32.297011 186.816 
L 33.303118 186.816 
L 32.297011 185.649132 
L 31.840341 185.136 
L 30.606102 183.811426 
L 30.262713 183.456 
L 28.915193 182.117173 
L 28.557459 181.776 
L 27.224284 180.549724 
L 26.70782 180.096 
L 25.533375 179.096384 
L 25.533375 180.096 
L 25.533375 181.776 
L 25.533375 181.869636 
L 27.224284 183.428986 
L 27.252513 183.456 
L 28.915193 185.107954 
L 28.942382 185.136 
L 30.511858 186.816 
z
M 192.933375 28.215646 
L 192.933375 27.216 
L 192.933375 25.536 
L 192.933375 25.442395 
L 191.242466 23.883046 
L 191.214204 23.856 
L 189.551557 22.20408 
L 189.524335 22.176 
L 187.95486 20.496 
L 187.860648 20.496 
L 186.169739 20.496 
L 185.163601 20.496 
L 186.169739 21.662903 
L 186.626378 22.176 
L 187.860648 23.500607 
L 188.204005 23.856 
L 189.551557 25.194858 
L 189.909257 25.536 
L 191.242466 26.762306 
L 191.758895 27.216 
z
" clip-path="url(#p01b88ac07b)" style="fill: #f6a880"/>
    <path d="M 27.224284 186.073985 
L 27.944965 186.816 
L 28.915193 186.816 
L 30.511858 186.816 
L 28.942382 185.136 
L 28.915193 185.107954 
L 27.252513 183.456 
L 27.224284 183.428986 
L 25.533375 181.869636 
L 25.533375 183.456 
L 25.533375 184.419968 
L 26.280209 185.136 
z
M 191.242466 23.883046 
L 192.933375 25.442395 
L 192.933375 23.856 
L 192.933375 22.892064 
L 192.186508 22.176 
L 191.242466 21.238048 
L 190.521752 20.496 
L 189.551557 20.496 
L 187.95486 20.496 
L 189.524335 22.176 
L 189.551557 22.20408 
L 191.214204 23.856 
z
" clip-path="url(#p01b88ac07b)" style="fill: #f6bc99"/>
    <path d="M 27.224284 186.816 
L 27.944965 186.816 
L 27.224284 186.073985 
L 26.280209 185.136 
L 25.533375 184.419968 
L 25.533375 185.136 
L 25.533375 186.815937 
L 25.533439 186.816 
z
M 192.933375 22.892064 
L 192.933375 22.176 
L 192.933375 20.496099 
L 192.933275 20.496 
L 191.242466 20.496 
L 190.521752 20.496 
L 191.242466 21.238048 
L 192.186508 22.176 
z
" clip-path="url(#p01b88ac07b)" style="fill: #f7cfb3"/>
    <path d="M 25.533375 186.815937 
L 25.533375 186.816 
L 25.533439 186.816 
z
M 192.933375 20.496099 
L 192.933375 20.496 
L 192.933275 20.496 
z
" clip-path="url(#p01b88ac07b)" style="fill: #f9e2d0"/>
   </g>
   <g id="patch_3">
    <path d="M 25.533375 186.816 
L 25.533375 20.496 
" style="fill: none; stroke: #262626; stroke-linejoin: miter; stroke-linecap: square"/>
   </g>
   <g id="patch_4">
    <path d="M 192.933375 186.816 
L 192.933375 20.496 
" style="fill: none; stroke: #262626; stroke-linejoin: miter; stroke-linecap: square"/>
   </g>
   <g id="patch_5">
    <path d="M 25.533375 186.816 
L 192.933375 186.816 
" style="fill: none; stroke: #262626; stroke-linejoin: miter; stroke-linecap: square"/>
   </g>
   <g id="patch_6">
    <path d="M 25.533375 20.496 
L 192.933375 20.496 
" style="fill: none; stroke: #262626; stroke-linejoin: miter; stroke-linecap: square"/>
   </g>
   <g id="text_15">
    <!-- $\psi_{15} = \phi_{13}\otimes \phi_{23}$ -->
    <g style="fill: #262626" transform="translate(74.721375 14.496) scale(0.096 -0.096)">
     <defs>
      <path id="DejaVuSans-Oblique-3c8" d="M 1591 -78 
Q 891 38 616 341 
Q 278 713 425 1472 
L 819 3500 
L 1400 3500 
L 1009 1494 
Q 900 922 1119 684 
Q 1313 478 1691 434 
L 2284 3500 
L 2856 3500 
L 2263 438 
Q 2681 481 2928 688 
Q 3247 950 3353 1497 
L 3741 3500 
L 4322 3500 
L 3928 1475 
Q 3775 688 3300 344 
Q 2872 34 2163 -75 
L 1919 -1331 
L 1347 -1331 
L 1591 -78 
z
" transform="scale(0.015625)"/>
      <path id="DejaVuSans-31" d="M 794 531 
L 1825 531 
L 1825 4091 
L 703 3866 
L 703 4441 
L 1819 4666 
L 2450 4666 
L 2450 531 
L 3481 531 
L 3481 0 
L 794 0 
L 794 531 
z
" transform="scale(0.015625)"/>
      <path id="DejaVuSans-35" d="M 691 4666 
L 3169 4666 
L 3169 4134 
L 1269 4134 
L 1269 2991 
Q 1406 3038 1543 3061 
Q 1681 3084 1819 3084 
Q 2600 3084 3056 2656 
Q 3513 2228 3513 1497 
Q 3513 744 3044 326 
Q 2575 -91 1722 -91 
Q 1428 -91 1123 -41 
Q 819 9 494 109 
L 494 744 
Q 775 591 1075 516 
Q 1375 441 1709 441 
Q 2250 441 2565 725 
Q 2881 1009 2881 1497 
Q 2881 1984 2565 2268 
Q 2250 2553 1709 2553 
Q 1456 2553 1204 2497 
Q 953 2441 691 2322 
L 691 4666 
z
" transform="scale(0.015625)"/>
      <path id="DejaVuSans-3d" d="M 678 2906 
L 4684 2906 
L 4684 2381 
L 678 2381 
L 678 2906 
z
M 678 1631 
L 4684 1631 
L 4684 1100 
L 678 1100 
L 678 1631 
z
" transform="scale(0.015625)"/>
      <path id="DejaVuSans-Oblique-3d5" d="M 2991 4863 
L 2738 3572 
Q 3363 3572 3684 3094 
Q 4016 2606 3850 1747 
Q 3681 888 3159 400 
Q 2653 -78 2028 -78 
L 1784 -1331 
L 1213 -1331 
L 1456 -78 
Q 834 -78 509 400 
Q 178 888 347 1747 
Q 513 2606 1034 3094 
Q 1544 3572 2166 3572 
L 2419 4863 
L 2991 4863 
z
M 2128 434 
Q 2481 434 2784 756 
Q 3116 1116 3244 1747 
Q 3369 2372 3169 2738 
Q 2991 3059 2638 3059 
L 2128 434 
z
M 1556 434 
L 2066 3059 
Q 1716 3059 1413 2738 
Q 1072 2372 953 1747 
Q 834 1116 1028 756 
Q 1203 434 1556 434 
z
" transform="scale(0.015625)"/>
      <path id="DejaVuSans-33" d="M 2597 2516 
Q 3050 2419 3304 2112 
Q 3559 1806 3559 1356 
Q 3559 666 3084 287 
Q 2609 -91 1734 -91 
Q 1441 -91 1130 -33 
Q 819 25 488 141 
L 488 750 
Q 750 597 1062 519 
Q 1375 441 1716 441 
Q 2309 441 2620 675 
Q 2931 909 2931 1356 
Q 2931 1769 2642 2001 
Q 2353 2234 1838 2234 
L 1294 2234 
L 1294 2753 
L 1863 2753 
Q 2328 2753 2575 2939 
Q 2822 3125 2822 3475 
Q 2822 3834 2567 4026 
Q 2313 4219 1838 4219 
Q 1578 4219 1281 4162 
Q 984 4106 628 3988 
L 628 4550 
Q 988 4650 1302 4700 
Q 1616 4750 1894 4750 
Q 2613 4750 3031 4423 
Q 3450 4097 3450 3541 
Q 3450 3153 3228 2886 
Q 3006 2619 2597 2516 
z
" transform="scale(0.015625)"/>
      <path id="DejaVuSans-2297" d="M 3306 3522 
Q 3016 3644 2681 3644 
Q 2347 3644 2056 3522 
Q 1769 3400 1531 3163 
Q 1291 2922 1172 2634 
Q 1053 2347 1053 2006 
Q 1053 1675 1172 1387 
Q 1291 1100 1531 859 
Q 1769 622 2056 500 
Q 2347 378 2681 378 
Q 3016 378 3306 500 
Q 3594 622 3831 859 
Q 4072 1100 4190 1387 
Q 4309 1675 4309 2006 
Q 4309 2347 4190 2634 
Q 4072 2922 3831 3163 
Q 3594 3400 3306 3522 
z
M 1878 3956 
Q 2250 4113 2681 4113 
Q 3113 4113 3484 3956 
Q 3856 3800 4163 3494 
Q 4472 3184 4625 2813 
Q 4778 2444 4778 2006 
Q 4778 1578 4625 1206 
Q 4472 838 4163 528 
Q 3856 222 3484 65 
Q 3113 -91 2681 -91 
Q 2250 -91 1878 65 
Q 1506 222 1200 528 
Q 891 838 738 1206 
Q 584 1578 584 2006 
Q 584 2444 738 2813 
Q 891 3184 1200 3494 
Q 1506 3800 1878 3956 
z
M 3847 2794 
L 3056 2006 
L 3844 1219 
L 3469 844 
L 2681 1631 
L 1894 841 
L 1516 1219 
L 2306 2006 
L 1519 2794 
L 1894 3169 
L 2681 2381 
L 3469 3172 
L 3847 2794 
z
" transform="scale(0.015625)"/>
      <path id="DejaVuSans-32" d="M 1228 531 
L 3431 531 
L 3431 0 
L 469 0 
L 469 531 
Q 828 903 1448 1529 
Q 2069 2156 2228 2338 
Q 2531 2678 2651 2914 
Q 2772 3150 2772 3378 
Q 2772 3750 2511 3984 
Q 2250 4219 1831 4219 
Q 1534 4219 1204 4116 
Q 875 4013 500 3803 
L 500 4441 
Q 881 4594 1212 4672 
Q 1544 4750 1819 4750 
Q 2544 4750 2975 4387 
Q 3406 4025 3406 3419 
Q 3406 3131 3298 2873 
Q 3191 2616 2906 2266 
Q 2828 2175 2409 1742 
Q 1991 1309 1228 531 
z
" transform="scale(0.015625)"/>
     </defs>
     <use xlink:href="#DejaVuSans-Oblique-3c8" transform="translate(0 0.015625)"/>
     <use xlink:href="#DejaVuSans-31" transform="translate(65.966797 -16.390625) scale(0.7)"/>
     <use xlink:href="#DejaVuSans-35" transform="translate(110.50293 -16.390625) scale(0.7)"/>
     <use xlink:href="#DejaVuSans-3d" transform="translate(177.255859 0.015625)"/>
     <use xlink:href="#DejaVuSans-Oblique-3d5" transform="translate(280.527344 0.015625)"/>
     <use xlink:href="#DejaVuSans-31" transform="translate(346.494141 -16.390625) scale(0.7)"/>
     <use xlink:href="#DejaVuSans-33" transform="translate(391.030273 -16.390625) scale(0.7)"/>
     <use xlink:href="#DejaVuSans-2297" transform="translate(457.783203 0.015625)"/>
     <use xlink:href="#DejaVuSans-Oblique-3d5" transform="translate(561.054688 0.015625)"/>
     <use xlink:href="#DejaVuSans-32" transform="translate(627.021484 -16.390625) scale(0.7)"/>
     <use xlink:href="#DejaVuSans-33" transform="translate(671.557617 -16.390625) scale(0.7)"/>
    </g>
   </g>
  </g>
 </g>
 <defs>
  <clipPath id="p01b88ac07b">
   <rect x="25.533375" y="20.496" width="167.4" height="166.32"/>
  </clipPath>
 </defs>
</svg>