<?xml version="1.0" encoding="utf-8" standalone="no"?>
<!DOCTYPE svg PUBLIC "-//W3C//DTD SVG 1.1//EN"
  "http://www.w3.org/Graphics/SVG/1.1/DTD/svg11.dtd">
<svg xmlns:xlink="http://www.w3.org/1999/xlink" width="610.24pt" height="332.919375pt" viewBox="0 0 610.24 332.919375" xmlns="http://www.w3.org/2000/svg" version="1.1">
 <metadata>
  <rdf:RDF xmlns:dc="http://purl.org/dc/elements/1.1/" xmlns:cc="http://creativecommons.org/ns#" xmlns:rdf="http://www.w3.org/1999/02/22-rdf-syntax-ns#">
   <cc:Work>
    <dc:type rdf:resource="http://purl.org/dc/dcmitype/StillImage"/>
    <dc:date>2025-04-02T11:32:06.838443</dc:date>
    <dc:format>image/svg+xml</dc:format>
    <dc:creator>
     <cc:Agent>
      <dc:title>Matplotlib v3.9.2, https://matplotlib.org/</dc:title>
     </cc:Agent>
    </dc:creator>
   </cc:Work>
  </rdf:RDF>
 </metadata>
 <defs>
  <style type="text/css">*{stroke-linejoin: round; stroke-linecap: butt}</style>
 </defs>
 <g id="figure_1">
  <g id="patch_1">
   <path d="M 0 332.919375 
L 610.24 332.919375 
L 610.24 0 
L 0 0 
z
" style="fill: #ffffff"/>
  </g>
  <g id="axes_1">
   <g id="patch_2">
    <path d="M 126.56 296.592 
L 483.68 296.592 
L 483.68 30.48 
L 126.56 30.48 
z
" style="fill: #ffffff"/>
   </g>
   <g id="matplotlib.axis_1">
    <g id="xtick_1">
     <g id="line2d_1">
      <defs>
       <path id="m2c582036ae" d="M 0 0 
L 0 4.8 
" style="stroke: #262626"/>
      </defs>
      <g>
       <use xlink:href="#m2c582036ae" x="142.792727" y="296.592" style="fill: #262626; stroke: #262626"/>
      </g>
     </g>
     <g id="text_1">
      <!-- 0.0 -->
      <g style="fill: #262626" transform="translate(136.676727 311.190875) scale(0.088 -0.088)">
       <defs>
        <path id="ArialMT-30" d="M 266 2259 
Q 266 3072 433 3567 
Q 600 4063 929 4331 
Q 1259 4600 1759 4600 
Q 2128 4600 2406 4451 
Q 2684 4303 2865 4023 
Q 3047 3744 3150 3342 
Q 3253 2941 3253 2259 
Q 3253 1453 3087 958 
Q 2922 463 2592 192 
Q 2263 -78 1759 -78 
Q 1097 -78 719 397 
Q 266 969 266 2259 
z
M 844 2259 
Q 844 1131 1108 757 
Q 1372 384 1759 384 
Q 2147 384 2411 759 
Q 2675 1134 2675 2259 
Q 2675 3391 2411 3762 
Q 2147 4134 1753 4134 
Q 1366 4134 1134 3806 
Q 844 3388 844 2259 
z
" transform="scale(0.015625)"/>
        <path id="ArialMT-2e" d="M 581 0 
L 581 641 
L 1222 641 
L 1222 0 
L 581 0 
z
" transform="scale(0.015625)"/>
       </defs>
       <use xlink:href="#ArialMT-30"/>
       <use xlink:href="#ArialMT-2e" x="55.615234"/>
       <use xlink:href="#ArialMT-30" x="83.398438"/>
      </g>
     </g>
    </g>
    <g id="xtick_2">
     <g id="line2d_2">
      <g>
       <use xlink:href="#m2c582036ae" x="183.374545" y="296.592" style="fill: #262626; stroke: #262626"/>
      </g>
     </g>
     <g id="text_2">
      <!-- 0.5 -->
      <g style="fill: #262626" transform="translate(177.258545 311.190875) scale(0.088 -0.088)">
       <defs>
        <path id="ArialMT-35" d="M 266 1200 
L 856 1250 
Q 922 819 1161 601 
Q 1400 384 1738 384 
Q 2144 384 2425 690 
Q 2706 997 2706 1503 
Q 2706 1984 2436 2262 
Q 2166 2541 1728 2541 
Q 1456 2541 1237 2417 
Q 1019 2294 894 2097 
L 366 2166 
L 809 4519 
L 3088 4519 
L 3088 3981 
L 1259 3981 
L 1013 2750 
Q 1425 3038 1878 3038 
Q 2478 3038 2890 2622 
Q 3303 2206 3303 1553 
Q 3303 931 2941 478 
Q 2500 -78 1738 -78 
Q 1113 -78 717 272 
Q 322 622 266 1200 
z
" transform="scale(0.015625)"/>
       </defs>
       <use xlink:href="#ArialMT-30"/>
       <use xlink:href="#ArialMT-2e" x="55.615234"/>
       <use xlink:href="#ArialMT-35" x="83.398438"/>
      </g>
     </g>
    </g>
    <g id="xtick_3">
     <g id="line2d_3">
      <g>
       <use xlink:href="#m2c582036ae" x="223.956364" y="296.592" style="fill: #262626; stroke: #262626"/>
      </g>
     </g>
     <g id="text_3">
      <!-- 1.0 -->
      <g style="fill: #262626" transform="translate(217.840364 311.190875) scale(0.088 -0.088)">
       <defs>
        <path id="ArialMT-31" d="M 2384 0 
L 1822 0 
L 1822 3584 
Q 1619 3391 1289 3197 
Q 959 3003 697 2906 
L 697 3450 
Q 1169 3672 1522 3987 
Q 1875 4303 2022 4600 
L 2384 4600 
L 2384 0 
z
" transform="scale(0.015625)"/>
       </defs>
       <use xlink:href="#ArialMT-31"/>
       <use xlink:href="#ArialMT-2e" x="55.615234"/>
       <use xlink:href="#ArialMT-30" x="83.398438"/>
      </g>
     </g>
    </g>
    <g id="xtick_4">
     <g id="line2d_4">
      <g>
       <use xlink:href="#m2c582036ae" x="264.538182" y="296.592" style="fill: #262626; stroke: #262626"/>
      </g>
     </g>
     <g id="text_4">
      <!-- 1.5 -->
      <g style="fill: #262626" transform="translate(258.422182 311.190875) scale(0.088 -0.088)">
       <use xlink:href="#ArialMT-31"/>
       <use xlink:href="#ArialMT-2e" x="55.615234"/>
       <use xlink:href="#ArialMT-35" x="83.398438"/>
      </g>
     </g>
    </g>
    <g id="xtick_5">
     <g id="line2d_5">
      <g>
       <use xlink:href="#m2c582036ae" x="305.12" y="296.592" style="fill: #262626; stroke: #262626"/>
      </g>
     </g>
     <g id="text_5">
      <!-- 2.0 -->
      <g style="fill: #262626" transform="translate(299.004 311.190875) scale(0.088 -0.088)">
       <defs>
        <path id="ArialMT-32" d="M 3222 541 
L 3222 0 
L 194 0 
Q 188 203 259 391 
Q 375 700 629 1000 
Q 884 1300 1366 1694 
Q 2113 2306 2375 2664 
Q 2638 3022 2638 3341 
Q 2638 3675 2398 3904 
Q 2159 4134 1775 4134 
Q 1369 4134 1125 3890 
Q 881 3647 878 3216 
L 300 3275 
Q 359 3922 746 4261 
Q 1134 4600 1788 4600 
Q 2447 4600 2831 4234 
Q 3216 3869 3216 3328 
Q 3216 3053 3103 2787 
Q 2991 2522 2730 2228 
Q 2469 1934 1863 1422 
Q 1356 997 1212 845 
Q 1069 694 975 541 
L 3222 541 
z
" transform="scale(0.015625)"/>
       </defs>
       <use xlink:href="#ArialMT-32"/>
       <use xlink:href="#ArialMT-2e" x="55.615234"/>
       <use xlink:href="#ArialMT-30" x="83.398438"/>
      </g>
     </g>
    </g>
    <g id="xtick_6">
     <g id="line2d_6">
      <g>
       <use xlink:href="#m2c582036ae" x="345.701818" y="296.592" style="fill: #262626; stroke: #262626"/>
      </g>
     </g>
     <g id="text_6">
      <!-- 2.5 -->
      <g style="fill: #262626" transform="translate(339.585818 311.190875) scale(0.088 -0.088)">
       <use xlink:href="#ArialMT-32"/>
       <use xlink:href="#ArialMT-2e" x="55.615234"/>
       <use xlink:href="#ArialMT-35" x="83.398438"/>
      </g>
     </g>
    </g>
    <g id="xtick_7">
     <g id="line2d_7">
      <g>
       <use xlink:href="#m2c582036ae" x="386.283636" y="296.592" style="fill: #262626; stroke: #262626"/>
      </g>
     </g>
     <g id="text_7">
      <!-- 3.0 -->
      <g style="fill: #262626" transform="translate(380.167636 311.190875) scale(0.088 -0.088)">
       <defs>
        <path id="ArialMT-33" d="M 269 1209 
L 831 1284 
Q 928 806 1161 595 
Q 1394 384 1728 384 
Q 2125 384 2398 659 
Q 2672 934 2672 1341 
Q 2672 1728 2419 1979 
Q 2166 2231 1775 2231 
Q 1616 2231 1378 2169 
L 1441 2663 
Q 1497 2656 1531 2656 
Q 1891 2656 2178 2843 
Q 2466 3031 2466 3422 
Q 2466 3731 2256 3934 
Q 2047 4138 1716 4138 
Q 1388 4138 1169 3931 
Q 950 3725 888 3313 
L 325 3413 
Q 428 3978 793 4289 
Q 1159 4600 1703 4600 
Q 2078 4600 2393 4439 
Q 2709 4278 2876 4000 
Q 3044 3722 3044 3409 
Q 3044 3113 2884 2869 
Q 2725 2625 2413 2481 
Q 2819 2388 3044 2092 
Q 3269 1797 3269 1353 
Q 3269 753 2831 336 
Q 2394 -81 1725 -81 
Q 1122 -81 723 278 
Q 325 638 269 1209 
z
" transform="scale(0.015625)"/>
       </defs>
       <use xlink:href="#ArialMT-33"/>
       <use xlink:href="#ArialMT-2e" x="55.615234"/>
       <use xlink:href="#ArialMT-30" x="83.398438"/>
      </g>
     </g>
    </g>
    <g id="xtick_8">
     <g id="line2d_8">
      <g>
       <use xlink:href="#m2c582036ae" x="426.865455" y="296.592" style="fill: #262626; stroke: #262626"/>
      </g>
     </g>
     <g id="text_8">
      <!-- 3.5 -->
      <g style="fill: #262626" transform="translate(420.749455 311.190875) scale(0.088 -0.088)">
       <use xlink:href="#ArialMT-33"/>
       <use xlink:href="#ArialMT-2e" x="55.615234"/>
       <use xlink:href="#ArialMT-35" x="83.398438"/>
      </g>
     </g>
    </g>
    <g id="xtick_9">
     <g id="line2d_9">
      <g>
       <use xlink:href="#m2c582036ae" x="467.447273" y="296.592" style="fill: #262626; stroke: #262626"/>
      </g>
     </g>
     <g id="text_9">
      <!-- 4.0 -->
      <g style="fill: #262626" transform="translate(461.331273 311.190875) scale(0.088 -0.088)">
       <defs>
        <path id="ArialMT-34" d="M 2069 0 
L 2069 1097 
L 81 1097 
L 81 1613 
L 2172 4581 
L 2631 4581 
L 2631 1613 
L 3250 1613 
L 3250 1097 
L 2631 1097 
L 2631 0 
L 2069 0 
z
M 2069 1613 
L 2069 3678 
L 634 1613 
L 2069 1613 
z
" transform="scale(0.015625)"/>
       </defs>
       <use xlink:href="#ArialMT-34"/>
       <use xlink:href="#ArialMT-2e" x="55.615234"/>
       <use xlink:href="#ArialMT-30" x="83.398438"/>
      </g>
     </g>
    </g>
    <g id="text_10">
     <!-- Time -->
     <g style="fill: #262626" transform="translate(294.63425 323.811375) scale(0.096 -0.096)">
      <defs>
       <path id="ArialMT-54" d="M 1659 0 
L 1659 4041 
L 150 4041 
L 150 4581 
L 3781 4581 
L 3781 4041 
L 2266 4041 
L 2266 0 
L 1659 0 
z
" transform="scale(0.015625)"/>
       <path id="ArialMT-69" d="M 425 3934 
L 425 4581 
L 988 4581 
L 988 3934 
L 425 3934 
z
M 425 0 
L 425 3319 
L 988 3319 
L 988 0 
L 425 0 
z
" transform="scale(0.015625)"/>
       <path id="ArialMT-6d" d="M 422 0 
L 422 3319 
L 925 3319 
L 925 2853 
Q 1081 3097 1340 3245 
Q 1600 3394 1931 3394 
Q 2300 3394 2536 3241 
Q 2772 3088 2869 2813 
Q 3263 3394 3894 3394 
Q 4388 3394 4653 3120 
Q 4919 2847 4919 2278 
L 4919 0 
L 4359 0 
L 4359 2091 
Q 4359 2428 4304 2576 
Q 4250 2725 4106 2815 
Q 3963 2906 3769 2906 
Q 3419 2906 3187 2673 
Q 2956 2441 2956 1928 
L 2956 0 
L 2394 0 
L 2394 2156 
Q 2394 2531 2256 2718 
Q 2119 2906 1806 2906 
Q 1569 2906 1367 2781 
Q 1166 2656 1075 2415 
Q 984 2175 984 1722 
L 984 0 
L 422 0 
z
" transform="scale(0.015625)"/>
       <path id="ArialMT-65" d="M 2694 1069 
L 3275 997 
Q 3138 488 2766 206 
Q 2394 -75 1816 -75 
Q 1088 -75 661 373 
Q 234 822 234 1631 
Q 234 2469 665 2931 
Q 1097 3394 1784 3394 
Q 2450 3394 2872 2941 
Q 3294 2488 3294 1666 
Q 3294 1616 3291 1516 
L 816 1516 
Q 847 969 1125 678 
Q 1403 388 1819 388 
Q 2128 388 2347 550 
Q 2566 713 2694 1069 
z
M 847 1978 
L 2700 1978 
Q 2663 2397 2488 2606 
Q 2219 2931 1791 2931 
Q 1403 2931 1139 2672 
Q 875 2413 847 1978 
z
" transform="scale(0.015625)"/>
      </defs>
      <use xlink:href="#ArialMT-54"/>
      <use xlink:href="#ArialMT-69" x="57.333984"/>
      <use xlink:href="#ArialMT-6d" x="79.550781"/>
      <use xlink:href="#ArialMT-65" x="162.851562"/>
     </g>
    </g>
   </g>
   <g id="matplotlib.axis_2">
    <g id="ytick_1">
     <g id="line2d_10">
      <defs>
       <path id="m755ee6464a" d="M 0 0 
L -4.8 0 
" style="stroke: #262626"/>
      </defs>
      <g>
       <use xlink:href="#m755ee6464a" x="126.56" y="294.513991" style="fill: #262626; stroke: #262626"/>
      </g>
     </g>
     <g id="text_11">
      <!-- −2 -->
      <g style="fill: #262626" transform="translate(108.226625 297.663428) scale(0.088 -0.088)">
       <defs>
        <path id="ArialMT-2212" d="M 3381 1997 
L 356 1997 
L 356 2522 
L 3381 2522 
L 3381 1997 
z
" transform="scale(0.015625)"/>
       </defs>
       <use xlink:href="#ArialMT-2212"/>
       <use xlink:href="#ArialMT-32" x="58.398438"/>
      </g>
     </g>
    </g>
    <g id="ytick_2">
     <g id="line2d_11">
      <g>
       <use xlink:href="#m755ee6464a" x="126.56" y="249.934244" style="fill: #262626; stroke: #262626"/>
      </g>
     </g>
     <g id="text_12">
      <!-- −1 -->
      <g style="fill: #262626" transform="translate(108.226625 253.083681) scale(0.088 -0.088)">
       <use xlink:href="#ArialMT-2212"/>
       <use xlink:href="#ArialMT-31" x="58.398438"/>
      </g>
     </g>
    </g>
    <g id="ytick_3">
     <g id="line2d_12">
      <g>
       <use xlink:href="#m755ee6464a" x="126.56" y="205.354496" style="fill: #262626; stroke: #262626"/>
      </g>
     </g>
     <g id="text_13">
      <!-- 0 -->
      <g style="fill: #262626" transform="translate(113.366375 208.503934) scale(0.088 -0.088)">
       <use xlink:href="#ArialMT-30"/>
      </g>
     </g>
    </g>
    <g id="ytick_4">
     <g id="line2d_13">
      <g>
       <use xlink:href="#m755ee6464a" x="126.56" y="160.774749" style="fill: #262626; stroke: #262626"/>
      </g>
     </g>
     <g id="text_14">
      <!-- 1 -->
      <g style="fill: #262626" transform="translate(113.366375 163.924186) scale(0.088 -0.088)">
       <use xlink:href="#ArialMT-31"/>
      </g>
     </g>
    </g>
    <g id="ytick_5">
     <g id="line2d_14">
      <g>
       <use xlink:href="#m755ee6464a" x="126.56" y="116.195001" style="fill: #262626; stroke: #262626"/>
      </g>
     </g>
     <g id="text_15">
      <!-- 2 -->
      <g style="fill: #262626" transform="translate(113.366375 119.344439) scale(0.088 -0.088)">
       <use xlink:href="#ArialMT-32"/>
      </g>
     </g>
    </g>
    <g id="ytick_6">
     <g id="line2d_15">
      <g>
       <use xlink:href="#m755ee6464a" x="126.56" y="71.615254" style="fill: #262626; stroke: #262626"/>
      </g>
     </g>
     <g id="text_16">
      <!-- 3 -->
      <g style="fill: #262626" transform="translate(113.366375 74.764691) scale(0.088 -0.088)">
       <use xlink:href="#ArialMT-33"/>
      </g>
     </g>
    </g>
    <g id="text_17">
     <!-- Position -->
     <g style="fill: #262626" transform="translate(102.318625 180.612) rotate(-90) scale(0.096 -0.096)">
      <defs>
       <path id="ArialMT-50" d="M 494 0 
L 494 4581 
L 2222 4581 
Q 2678 4581 2919 4538 
Q 3256 4481 3484 4323 
Q 3713 4166 3852 3881 
Q 3991 3597 3991 3256 
Q 3991 2672 3619 2267 
Q 3247 1863 2275 1863 
L 1100 1863 
L 1100 0 
L 494 0 
z
M 1100 2403 
L 2284 2403 
Q 2872 2403 3119 2622 
Q 3366 2841 3366 3238 
Q 3366 3525 3220 3729 
Q 3075 3934 2838 4000 
Q 2684 4041 2272 4041 
L 1100 4041 
L 1100 2403 
z
" transform="scale(0.015625)"/>
       <path id="ArialMT-6f" d="M 213 1659 
Q 213 2581 725 3025 
Q 1153 3394 1769 3394 
Q 2453 3394 2887 2945 
Q 3322 2497 3322 1706 
Q 3322 1066 3130 698 
Q 2938 331 2570 128 
Q 2203 -75 1769 -75 
Q 1072 -75 642 372 
Q 213 819 213 1659 
z
M 791 1659 
Q 791 1022 1069 705 
Q 1347 388 1769 388 
Q 2188 388 2466 706 
Q 2744 1025 2744 1678 
Q 2744 2294 2464 2611 
Q 2184 2928 1769 2928 
Q 1347 2928 1069 2612 
Q 791 2297 791 1659 
z
" transform="scale(0.015625)"/>
       <path id="ArialMT-73" d="M 197 991 
L 753 1078 
Q 800 744 1014 566 
Q 1228 388 1613 388 
Q 2000 388 2187 545 
Q 2375 703 2375 916 
Q 2375 1106 2209 1216 
Q 2094 1291 1634 1406 
Q 1016 1563 777 1677 
Q 538 1791 414 1992 
Q 291 2194 291 2438 
Q 291 2659 392 2848 
Q 494 3038 669 3163 
Q 800 3259 1026 3326 
Q 1253 3394 1513 3394 
Q 1903 3394 2198 3281 
Q 2494 3169 2634 2976 
Q 2775 2784 2828 2463 
L 2278 2388 
Q 2241 2644 2061 2787 
Q 1881 2931 1553 2931 
Q 1166 2931 1000 2803 
Q 834 2675 834 2503 
Q 834 2394 903 2306 
Q 972 2216 1119 2156 
Q 1203 2125 1616 2013 
Q 2213 1853 2448 1751 
Q 2684 1650 2818 1456 
Q 2953 1263 2953 975 
Q 2953 694 2789 445 
Q 2625 197 2315 61 
Q 2006 -75 1616 -75 
Q 969 -75 630 194 
Q 291 463 197 991 
z
" transform="scale(0.015625)"/>
       <path id="ArialMT-74" d="M 1650 503 
L 1731 6 
Q 1494 -44 1306 -44 
Q 1000 -44 831 53 
Q 663 150 594 308 
Q 525 466 525 972 
L 525 2881 
L 113 2881 
L 113 3319 
L 525 3319 
L 525 4141 
L 1084 4478 
L 1084 3319 
L 1650 3319 
L 1650 2881 
L 1084 2881 
L 1084 941 
Q 1084 700 1114 631 
Q 1144 563 1211 522 
Q 1278 481 1403 481 
Q 1497 481 1650 503 
z
" transform="scale(0.015625)"/>
       <path id="ArialMT-6e" d="M 422 0 
L 422 3319 
L 928 3319 
L 928 2847 
Q 1294 3394 1984 3394 
Q 2284 3394 2536 3286 
Q 2788 3178 2913 3003 
Q 3038 2828 3088 2588 
Q 3119 2431 3119 2041 
L 3119 0 
L 2556 0 
L 2556 2019 
Q 2556 2363 2490 2533 
Q 2425 2703 2258 2804 
Q 2091 2906 1866 2906 
Q 1506 2906 1245 2678 
Q 984 2450 984 1813 
L 984 0 
L 422 0 
z
" transform="scale(0.015625)"/>
      </defs>
      <use xlink:href="#ArialMT-50"/>
      <use xlink:href="#ArialMT-6f" x="66.699219"/>
      <use xlink:href="#ArialMT-73" x="122.314453"/>
      <use xlink:href="#ArialMT-69" x="172.314453"/>
      <use xlink:href="#ArialMT-74" x="194.53125"/>
      <use xlink:href="#ArialMT-69" x="222.314453"/>
      <use xlink:href="#ArialMT-6f" x="244.53125"/>
      <use xlink:href="#ArialMT-6e" x="300.146484"/>
     </g>
    </g>
   </g>
   <g id="PolyCollection_1">
    <defs>
     <path id="m7ddf6eb4a7" d="M 142.792727 -283.608465 
L 142.792727 -282.547744 
L 144.424157 -281.865833 
L 146.055587 -279.846685 
L 147.687017 -276.595098 
L 149.318447 -272.147544 
L 150.949877 -266.592415 
L 152.581307 -260.017315 
L 154.212736 -252.515972 
L 155.844166 -244.242203 
L 157.475596 -235.258705 
L 159.107026 -225.720387 
L 160.738456 -215.722395 
L 162.369886 -205.368907 
L 164.001316 -194.783501 
L 165.632746 -184.058135 
L 167.264175 -173.307685 
L 168.895605 -162.646115 
L 170.527035 -152.12635 
L 172.158465 -141.836543 
L 173.789895 -131.903768 
L 175.421325 -122.363485 
L 177.052755 -113.174217 
L 178.684185 -104.551395 
L 180.315614 -96.507895 
L 181.947044 -89.068874 
L 183.578474 -82.332072 
L 185.209904 -76.288284 
L 186.841334 -70.926626 
L 188.472764 -66.20764 
L 190.104194 -62.25765 
L 191.735624 -58.969978 
L 193.367053 -56.418299 
L 194.998483 -54.545847 
L 196.629913 -53.373301 
L 198.261343 -52.954619 
L 199.892773 -53.176642 
L 201.524203 -53.897987 
L 203.155633 -55.236396 
L 204.787063 -57.124615 
L 206.418492 -59.461336 
L 208.049922 -62.303778 
L 209.681352 -65.545961 
L 211.312782 -69.13757 
L 212.944212 -73.056139 
L 214.575642 -77.228108 
L 216.207072 -81.678145 
L 217.838502 -86.29767 
L 219.469931 -91.025036 
L 221.101361 -95.771235 
L 222.732791 -100.621859 
L 224.364221 -105.470155 
L 225.995651 -110.289844 
L 227.627081 -114.957753 
L 229.258511 -119.462412 
L 230.889941 -123.850906 
L 232.52137 -128.046143 
L 234.1528 -132.02613 
L 235.78423 -135.711054 
L 237.41566 -139.186254 
L 239.04709 -142.359395 
L 240.67852 -145.2275 
L 242.30995 -147.765186 
L 243.94138 -150.069109 
L 245.57281 -151.992203 
L 247.204239 -153.57927 
L 248.835669 -154.831316 
L 250.467099 -155.728566 
L 252.098529 -156.249548 
L 253.729959 -156.494639 
L 255.361389 -156.509065 
L 256.992819 -156.26171 
L 258.624249 -155.70332 
L 260.255678 -154.885591 
L 261.887108 -153.903209 
L 263.518538 -152.655197 
L 265.149968 -151.26836 
L 266.781398 -149.659419 
L 268.412828 -147.9201 
L 270.044258 -146.107206 
L 271.675688 -144.147727 
L 273.307117 -142.081817 
L 274.938547 -139.990421 
L 276.569977 -137.908567 
L 278.201407 -135.785458 
L 279.832837 -133.638432 
L 281.464267 -131.500092 
L 283.095697 -129.405396 
L 284.727127 -127.382032 
L 286.358556 -125.394949 
L 287.989986 -123.534222 
L 289.621416 -121.788372 
L 291.252846 -120.148431 
L 292.884276 -118.550826 
L 294.515706 -117.101418 
L 296.147136 -115.790925 
L 297.778566 -114.671162 
L 299.409995 -113.652862 
L 301.041425 -112.763372 
L 302.672855 -112.030989 
L 304.304285 -111.393283 
L 305.935715 -110.941093 
L 307.567145 -110.573846 
L 309.198575 -110.428373 
L 310.830005 -110.448092 
L 312.461434 -110.553394 
L 314.092864 -110.779887 
L 315.724294 -111.134876 
L 317.355724 -111.5735 
L 318.987154 -112.115948 
L 320.618584 -112.736982 
L 322.250014 -113.467774 
L 323.881444 -114.287179 
L 325.512873 -115.169706 
L 327.144303 -116.125204 
L 328.775733 -117.086163 
L 330.407163 -118.0858 
L 332.038593 -119.154479 
L 333.670023 -120.25004 
L 335.301453 -121.299676 
L 336.932883 -122.321952 
L 338.564312 -123.386263 
L 340.195742 -124.405403 
L 341.827172 -125.407611 
L 343.458602 -126.346139 
L 345.090032 -127.216563 
L 346.721462 -128.060201 
L 348.352892 -128.845777 
L 349.984322 -129.555194 
L 351.615751 -130.215919 
L 353.247181 -130.801023 
L 354.878611 -131.325425 
L 356.510041 -131.768374 
L 358.141471 -132.161118 
L 359.772901 -132.461973 
L 361.404331 -132.700227 
L 363.035761 -132.841412 
L 364.66719 -132.91189 
L 366.29862 -132.932817 
L 367.93005 -132.922455 
L 369.56148 -132.832771 
L 371.19291 -132.693623 
L 372.82434 -132.500071 
L 374.45577 -132.286167 
L 376.0872 -132.02618 
L 377.71863 -131.712421 
L 379.350059 -131.369069 
L 380.981489 -131.027617 
L 382.612919 -130.645178 
L 384.244349 -130.235752 
L 385.875779 -129.822205 
L 387.507209 -129.415429 
L 389.138639 -128.991677 
L 390.770069 -128.567048 
L 392.401498 -128.136887 
L 394.032928 -127.706567 
L 395.664358 -127.294044 
L 397.295788 -126.886575 
L 398.927218 -126.508357 
L 400.558648 -126.15323 
L 402.190078 -125.814759 
L 403.821508 -125.48198 
L 405.452937 -125.164356 
L 407.084367 -124.888256 
L 408.715797 -124.642018 
L 410.347227 -124.418125 
L 411.978657 -124.22528 
L 413.610087 -124.062451 
L 415.241517 -123.905031 
L 416.872947 -123.803508 
L 418.504376 -123.707883 
L 420.135806 -123.642404 
L 421.767236 -123.63245 
L 423.398666 -123.656161 
L 425.030096 -123.688801 
L 426.661526 -123.749381 
L 428.292956 -123.831826 
L 429.924386 -123.940615 
L 431.555815 -124.065873 
L 433.187245 -124.201943 
L 434.818675 -124.372123 
L 436.450105 -124.558425 
L 438.081535 -124.756077 
L 439.712965 -124.971161 
L 441.344395 -125.180269 
L 442.975825 -125.405146 
L 444.607254 -125.631731 
L 446.238684 -125.874024 
L 447.870114 -126.117885 
L 449.501544 -126.347 
L 451.132974 -126.563981 
L 452.764404 -126.78836 
L 454.395834 -127.002115 
L 456.027264 -127.214595 
L 457.658693 -127.403703 
L 459.290123 -127.577498 
L 460.921553 -127.743783 
L 462.552983 -127.895648 
L 464.184413 -128.024818 
L 465.815843 -128.150432 
L 467.447273 -128.259625 
L 467.447273 -129.150143 
L 467.447273 -129.150143 
L 465.815843 -129.059131 
L 464.184413 -128.947742 
L 462.552983 -128.83883 
L 460.921553 -128.715812 
L 459.290123 -128.565027 
L 457.658693 -128.412812 
L 456.027264 -128.257245 
L 454.395834 -128.09426 
L 452.764404 -127.92414 
L 451.132974 -127.741871 
L 449.501544 -127.551585 
L 447.870114 -127.361364 
L 446.238684 -127.169192 
L 444.607254 -126.973925 
L 442.975825 -126.789579 
L 441.344395 -126.607295 
L 439.712965 -126.421499 
L 438.081535 -126.238478 
L 436.450105 -126.073257 
L 434.818675 -125.924327 
L 433.187245 -125.772131 
L 431.555815 -125.633262 
L 429.924386 -125.52396 
L 428.292956 -125.425534 
L 426.661526 -125.350731 
L 425.030096 -125.289406 
L 423.398666 -125.261828 
L 421.767236 -125.258308 
L 420.135806 -125.273039 
L 418.504376 -125.309902 
L 416.872947 -125.381427 
L 415.241517 -125.502705 
L 413.610087 -125.661197 
L 411.978657 -125.848797 
L 410.347227 -126.061373 
L 408.715797 -126.311659 
L 407.084367 -126.610939 
L 405.452937 -126.911298 
L 403.821508 -127.254441 
L 402.190078 -127.631219 
L 400.558648 -128.018021 
L 398.927218 -128.443434 
L 397.295788 -128.901454 
L 395.664358 -129.373686 
L 394.032928 -129.858333 
L 392.401498 -130.330852 
L 390.770069 -130.827134 
L 389.138639 -131.346068 
L 387.507209 -131.853782 
L 385.875779 -132.331977 
L 384.244349 -132.800005 
L 382.612919 -133.24987 
L 380.981489 -133.683783 
L 379.350059 -134.097892 
L 377.71863 -134.457125 
L 376.0872 -134.779996 
L 374.45577 -135.050196 
L 372.82434 -135.290623 
L 371.19291 -135.497349 
L 369.56148 -135.620547 
L 367.93005 -135.714998 
L 366.29862 -135.772325 
L 364.66719 -135.767803 
L 363.035761 -135.66332 
L 361.404331 -135.472759 
L 359.772901 -135.256247 
L 358.141471 -134.955062 
L 356.510041 -134.595309 
L 354.878611 -134.182865 
L 353.247181 -133.705385 
L 351.615751 -133.176201 
L 349.984322 -132.583811 
L 348.352892 -131.898361 
L 346.721462 -131.177464 
L 345.090032 -130.436834 
L 343.458602 -129.640315 
L 341.827172 -128.806631 
L 340.195742 -127.907531 
L 338.564312 -126.984089 
L 336.932883 -126.039118 
L 335.301453 -125.086056 
L 333.670023 -124.131492 
L 332.038593 -123.180948 
L 330.407163 -122.26536 
L 328.775733 -121.331109 
L 327.144303 -120.420005 
L 325.512873 -119.545326 
L 323.881444 -118.76103 
L 322.250014 -117.991268 
L 320.618584 -117.28679 
L 318.987154 -116.682901 
L 317.355724 -116.164646 
L 315.724294 -115.725941 
L 314.092864 -115.390555 
L 312.461434 -115.14992 
L 310.830005 -115.100684 
L 309.198575 -115.119187 
L 307.567145 -115.249762 
L 305.935715 -115.526966 
L 304.304285 -115.961971 
L 302.672855 -116.593423 
L 301.041425 -117.370986 
L 299.409995 -118.321976 
L 297.778566 -119.395588 
L 296.147136 -120.614307 
L 294.515706 -121.985734 
L 292.884276 -123.511938 
L 291.252846 -125.135934 
L 289.621416 -126.908015 
L 287.989986 -128.783283 
L 286.358556 -130.735971 
L 284.727127 -132.803009 
L 283.095697 -134.996929 
L 281.464267 -137.187723 
L 279.832837 -139.473367 
L 278.201407 -141.69248 
L 276.569977 -143.927528 
L 274.938547 -146.210867 
L 273.307117 -148.462699 
L 271.675688 -150.557393 
L 270.044258 -152.564116 
L 268.412828 -154.50008 
L 266.781398 -156.307496 
L 265.149968 -157.932661 
L 263.518538 -159.351427 
L 261.887108 -160.612032 
L 260.255678 -161.641 
L 258.624249 -162.446362 
L 256.992819 -162.977274 
L 255.361389 -163.262371 
L 253.729959 -163.341207 
L 252.098529 -163.108958 
L 250.467099 -162.420778 
L 248.835669 -161.503464 
L 247.204239 -160.21471 
L 245.57281 -158.65295 
L 243.94138 -156.795181 
L 242.30995 -154.604711 
L 240.67852 -152.171845 
L 239.04709 -149.337031 
L 237.41566 -146.237104 
L 235.78423 -142.724537 
L 234.1528 -139.087341 
L 232.52137 -135.244729 
L 230.889941 -131.130432 
L 229.258511 -126.798153 
L 227.627081 -122.2744 
L 225.995651 -117.633655 
L 224.364221 -112.85872 
L 222.732791 -108.053263 
L 221.101361 -103.264147 
L 219.469931 -98.48978 
L 217.838502 -93.874116 
L 216.207072 -89.22797 
L 214.575642 -84.79662 
L 212.944212 -80.58765 
L 211.312782 -76.68232 
L 209.681352 -73.043564 
L 208.049922 -69.786683 
L 206.418492 -66.916969 
L 204.787063 -64.549156 
L 203.155633 -62.66836 
L 201.524203 -61.346943 
L 199.892773 -60.566853 
L 198.261343 -60.430746 
L 196.629913 -60.889912 
L 194.998483 -61.967271 
L 193.367053 -63.770747 
L 191.735624 -66.274232 
L 190.104194 -69.50784 
L 188.472764 -73.479784 
L 186.841334 -78.151031 
L 185.209904 -83.57013 
L 183.578474 -89.66277 
L 181.947044 -96.331513 
L 180.315614 -103.651504 
L 178.684185 -111.52281 
L 177.052755 -119.956152 
L 175.421325 -128.876464 
L 173.789895 -138.228801 
L 172.158465 -147.936843 
L 170.527035 -157.905406 
L 168.895605 -168.090035 
L 167.264175 -178.406865 
L 165.632746 -188.772798 
L 164.001316 -199.077683 
L 162.369886 -209.244048 
L 160.738456 -219.144489 
L 159.107026 -228.710076 
L 157.475596 -237.859936 
L 155.844166 -246.433725 
L 154.212736 -254.36653 
L 152.581307 -261.543129 
L 150.949877 -267.89076 
L 149.318447 -273.301382 
L 147.687017 -277.678504 
L 146.055587 -280.919521 
L 144.424157 -282.924281 
L 142.792727 -283.608465 
z
"/>
    </defs>
    <g clip-path="url(#p762db32e01)">
     <use xlink:href="#m7ddf6eb4a7" x="0" y="332.919375" style="fill: #1f77b4; fill-opacity: 0.5"/>
    </g>
   </g>
   <g id="PolyCollection_2">
    <defs>
     <path id="m587b0aa3d7" d="M 142.792727 -282.547744 
L 142.792727 -275.529393 
L 144.424157 -275.20788 
L 146.055587 -272.706402 
L 147.687017 -269.865613 
L 149.318447 -265.276927 
L 150.949877 -259.920411 
L 152.581307 -253.399975 
L 154.212736 -246.016493 
L 155.844166 -238.188012 
L 157.475596 -229.353212 
L 159.107026 -219.833396 
L 160.738456 -209.868977 
L 162.369886 -199.644161 
L 164.001316 -189.232576 
L 165.632746 -178.745248 
L 167.264175 -168.574387 
L 168.895605 -158.03287 
L 170.527035 -146.864988 
L 172.158465 -136.981621 
L 173.789895 -126.90776 
L 175.421325 -117.670377 
L 177.052755 -108.461711 
L 178.684185 -100.026089 
L 180.315614 -92.079235 
L 181.947044 -84.635006 
L 183.578474 -77.488484 
L 185.209904 -71.752623 
L 186.841334 -66.447686 
L 188.472764 -61.467842 
L 190.104194 -57.906019 
L 191.735624 -54.536409 
L 193.367053 -52.088016 
L 194.998483 -50.27594 
L 196.629913 -48.83549 
L 198.261343 -48.423375 
L 199.892773 -48.748643 
L 201.524203 -49.433873 
L 203.155633 -50.956726 
L 204.787063 -52.440376 
L 206.418492 -54.899036 
L 208.049922 -57.970584 
L 209.681352 -60.989763 
L 211.312782 -64.643937 
L 212.944212 -68.592155 
L 214.575642 -73.089168 
L 216.207072 -76.890459 
L 217.838502 -81.786549 
L 219.469931 -86.639201 
L 221.101361 -91.373591 
L 222.732791 -96.43072 
L 224.364221 -100.891035 
L 225.995651 -105.490105 
L 227.627081 -110.209725 
L 229.258511 -115.197124 
L 230.889941 -119.444261 
L 232.52137 -123.222574 
L 234.1528 -127.345275 
L 235.78423 -131.162371 
L 237.41566 -134.807495 
L 239.04709 -137.688252 
L 240.67852 -140.701902 
L 242.30995 -143.003574 
L 243.94138 -145.324368 
L 245.57281 -147.43683 
L 247.204239 -148.570441 
L 248.835669 -149.912885 
L 250.467099 -151.178199 
L 252.098529 -151.3983 
L 253.729959 -151.74249 
L 255.361389 -151.988799 
L 256.992819 -151.735382 
L 258.624249 -150.906033 
L 260.255678 -150.112107 
L 261.887108 -149.235623 
L 263.518538 -147.8443 
L 265.149968 -146.54716 
L 266.781398 -144.929379 
L 268.412828 -143.134239 
L 270.044258 -141.494678 
L 271.675688 -139.122185 
L 273.307117 -137.118115 
L 274.938547 -135.288738 
L 276.569977 -132.825607 
L 278.201407 -130.409622 
L 279.832837 -128.523574 
L 281.464267 -126.360425 
L 283.095697 -124.357932 
L 284.727127 -122.188894 
L 286.358556 -120.35076 
L 287.989986 -118.033768 
L 289.621416 -116.706513 
L 291.252846 -114.89321 
L 292.884276 -113.095746 
L 294.515706 -111.925447 
L 296.147136 -110.867299 
L 297.778566 -109.174768 
L 299.409995 -108.451537 
L 301.041425 -107.5208 
L 302.672855 -106.666659 
L 304.304285 -105.76148 
L 305.935715 -105.400872 
L 307.567145 -105.260116 
L 309.198575 -105.118918 
L 310.830005 -105.219798 
L 312.461434 -105.279855 
L 314.092864 -105.457359 
L 315.724294 -105.521173 
L 317.355724 -106.337858 
L 318.987154 -107.108892 
L 320.618584 -107.330799 
L 322.250014 -107.902139 
L 323.881444 -109.021999 
L 325.512873 -110.073109 
L 327.144303 -110.823804 
L 328.775733 -111.659599 
L 330.407163 -112.935924 
L 332.038593 -113.639146 
L 333.670023 -114.482065 
L 335.301453 -115.744936 
L 336.932883 -116.195772 
L 338.564312 -118.015352 
L 340.195742 -118.40719 
L 341.827172 -119.78524 
L 343.458602 -120.82568 
L 345.090032 -121.628731 
L 346.721462 -121.794958 
L 348.352892 -122.958089 
L 349.984322 -123.776128 
L 351.615751 -124.130476 
L 353.247181 -125.04942 
L 354.878611 -125.370129 
L 356.510041 -125.544037 
L 358.141471 -126.377445 
L 359.772901 -126.554195 
L 361.404331 -126.325209 
L 363.035761 -126.652509 
L 364.66719 -126.712295 
L 366.29862 -126.604923 
L 367.93005 -127.216926 
L 369.56148 -126.609292 
L 371.19291 -126.931661 
L 372.82434 -126.581499 
L 374.45577 -126.130751 
L 376.0872 -125.74787 
L 377.71863 -125.565055 
L 379.350059 -125.262699 
L 380.981489 -124.941542 
L 382.612919 -124.202419 
L 384.244349 -123.97793 
L 385.875779 -123.431085 
L 387.507209 -123.063485 
L 389.138639 -122.93349 
L 390.770069 -122.004642 
L 392.401498 -121.95181 
L 394.032928 -121.569351 
L 395.664358 -120.847879 
L 397.295788 -120.582686 
L 398.927218 -120.152902 
L 400.558648 -119.42129 
L 402.190078 -119.336297 
L 403.821508 -118.682216 
L 405.452937 -118.6288 
L 407.084367 -118.244359 
L 408.715797 -118.139928 
L 410.347227 -117.960028 
L 411.978657 -117.893487 
L 413.610087 -117.343689 
L 415.241517 -117.479234 
L 416.872947 -117.312937 
L 418.504376 -117.356588 
L 420.135806 -117.144921 
L 421.767236 -117.062747 
L 423.398666 -117.368867 
L 425.030096 -117.192355 
L 426.661526 -117.051559 
L 428.292956 -117.421616 
L 429.924386 -117.62146 
L 431.555815 -117.528384 
L 433.187245 -117.512824 
L 434.818675 -118.006241 
L 436.450105 -118.067288 
L 438.081535 -117.814922 
L 439.712965 -118.454509 
L 441.344395 -118.466218 
L 442.975825 -118.745969 
L 444.607254 -119.229953 
L 446.238684 -119.388914 
L 447.870114 -119.1419 
L 449.501544 -119.576301 
L 451.132974 -119.758936 
L 452.764404 -120.013479 
L 454.395834 -120.46579 
L 456.027264 -120.618441 
L 457.658693 -120.281294 
L 459.290123 -121.060887 
L 460.921553 -120.993312 
L 462.552983 -120.847926 
L 464.184413 -121.177166 
L 465.815843 -121.056353 
L 467.447273 -121.213963 
L 467.447273 -128.259625 
L 467.447273 -128.259625 
L 465.815843 -128.150432 
L 464.184413 -128.024818 
L 462.552983 -127.895648 
L 460.921553 -127.743783 
L 459.290123 -127.577498 
L 457.658693 -127.403703 
L 456.027264 -127.214595 
L 454.395834 -127.002115 
L 452.764404 -126.78836 
L 451.132974 -126.563981 
L 449.501544 -126.347 
L 447.870114 -126.117885 
L 446.238684 -125.874024 
L 444.607254 -125.631731 
L 442.975825 -125.405146 
L 441.344395 -125.180269 
L 439.712965 -124.971161 
L 438.081535 -124.756077 
L 436.450105 -124.558425 
L 434.818675 -124.372123 
L 433.187245 -124.201943 
L 431.555815 -124.065873 
L 429.924386 -123.940615 
L 428.292956 -123.831826 
L 426.661526 -123.749381 
L 425.030096 -123.688801 
L 423.398666 -123.656161 
L 421.767236 -123.63245 
L 420.135806 -123.642404 
L 418.504376 -123.707883 
L 416.872947 -123.803508 
L 415.241517 -123.905031 
L 413.610087 -124.062451 
L 411.978657 -124.22528 
L 410.347227 -124.418125 
L 408.715797 -124.642018 
L 407.084367 -124.888256 
L 405.452937 -125.164356 
L 403.821508 -125.48198 
L 402.190078 -125.814759 
L 400.558648 -126.15323 
L 398.927218 -126.508357 
L 397.295788 -126.886575 
L 395.664358 -127.294044 
L 394.032928 -127.706567 
L 392.401498 -128.136887 
L 390.770069 -128.567048 
L 389.138639 -128.991677 
L 387.507209 -129.415429 
L 385.875779 -129.822205 
L 384.244349 -130.235752 
L 382.612919 -130.645178 
L 380.981489 -131.027617 
L 379.350059 -131.369069 
L 377.71863 -131.712421 
L 376.0872 -132.02618 
L 374.45577 -132.286167 
L 372.82434 -132.500071 
L 371.19291 -132.693623 
L 369.56148 -132.832771 
L 367.93005 -132.922455 
L 366.29862 -132.932817 
L 364.66719 -132.91189 
L 363.035761 -132.841412 
L 361.404331 -132.700227 
L 359.772901 -132.461973 
L 358.141471 -132.161118 
L 356.510041 -131.768374 
L 354.878611 -131.325425 
L 353.247181 -130.801023 
L 351.615751 -130.215919 
L 349.984322 -129.555194 
L 348.352892 -128.845777 
L 346.721462 -128.060201 
L 345.090032 -127.216563 
L 343.458602 -126.346139 
L 341.827172 -125.407611 
L 340.195742 -124.405403 
L 338.564312 -123.386263 
L 336.932883 -122.321952 
L 335.301453 -121.299676 
L 333.670023 -120.25004 
L 332.038593 -119.154479 
L 330.407163 -118.0858 
L 328.775733 -117.086163 
L 327.144303 -116.125204 
L 325.512873 -115.169706 
L 323.881444 -114.287179 
L 322.250014 -113.467774 
L 320.618584 -112.736982 
L 318.987154 -112.115948 
L 317.355724 -111.5735 
L 315.724294 -111.134876 
L 314.092864 -110.779887 
L 312.461434 -110.553394 
L 310.830005 -110.448092 
L 309.198575 -110.428373 
L 307.567145 -110.573846 
L 305.935715 -110.941093 
L 304.304285 -111.393283 
L 302.672855 -112.030989 
L 301.041425 -112.763372 
L 299.409995 -113.652862 
L 297.778566 -114.671162 
L 296.147136 -115.790925 
L 294.515706 -117.101418 
L 292.884276 -118.550826 
L 291.252846 -120.148431 
L 289.621416 -121.788372 
L 287.989986 -123.534222 
L 286.358556 -125.394949 
L 284.727127 -127.382032 
L 283.095697 -129.405396 
L 281.464267 -131.500092 
L 279.832837 -133.638432 
L 278.201407 -135.785458 
L 276.569977 -137.908567 
L 274.938547 -139.990421 
L 273.307117 -142.081817 
L 271.675688 -144.147727 
L 270.044258 -146.107206 
L 268.412828 -147.9201 
L 266.781398 -149.659419 
L 265.149968 -151.26836 
L 263.518538 -152.655197 
L 261.887108 -153.903209 
L 260.255678 -154.885591 
L 258.624249 -155.70332 
L 256.992819 -156.26171 
L 255.361389 -156.509065 
L 253.729959 -156.494639 
L 252.098529 -156.249548 
L 250.467099 -155.728566 
L 248.835669 -154.831316 
L 247.204239 -153.57927 
L 245.57281 -151.992203 
L 243.94138 -150.069109 
L 242.30995 -147.765186 
L 240.67852 -145.2275 
L 239.04709 -142.359395 
L 237.41566 -139.186254 
L 235.78423 -135.711054 
L 234.1528 -132.02613 
L 232.52137 -128.046143 
L 230.889941 -123.850906 
L 229.258511 -119.462412 
L 227.627081 -114.957753 
L 225.995651 -110.289844 
L 224.364221 -105.470155 
L 222.732791 -100.621859 
L 221.101361 -95.771235 
L 219.469931 -91.025036 
L 217.838502 -86.29767 
L 216.207072 -81.678145 
L 214.575642 -77.228108 
L 212.944212 -73.056139 
L 211.312782 -69.13757 
L 209.681352 -65.545961 
L 208.049922 -62.303778 
L 206.418492 -59.461336 
L 204.787063 -57.124615 
L 203.155633 -55.236396 
L 201.524203 -53.897987 
L 199.892773 -53.176642 
L 198.261343 -52.954619 
L 196.629913 -53.373301 
L 194.998483 -54.545847 
L 193.367053 -56.418299 
L 191.735624 -58.969978 
L 190.104194 -62.25765 
L 188.472764 -66.20764 
L 186.841334 -70.926626 
L 185.209904 -76.288284 
L 183.578474 -82.332072 
L 181.947044 -89.068874 
L 180.315614 -96.507895 
L 178.684185 -104.551395 
L 177.052755 -113.174217 
L 175.421325 -122.363485 
L 173.789895 -131.903768 
L 172.158465 -141.836543 
L 170.527035 -152.12635 
L 168.895605 -162.646115 
L 167.264175 -173.307685 
L 165.632746 -184.058135 
L 164.001316 -194.783501 
L 162.369886 -205.368907 
L 160.738456 -215.722395 
L 159.107026 -225.720387 
L 157.475596 -235.258705 
L 155.844166 -244.242203 
L 154.212736 -252.515972 
L 152.581307 -260.017315 
L 150.949877 -266.592415 
L 149.318447 -272.147544 
L 147.687017 -276.595098 
L 146.055587 -279.846685 
L 144.424157 -281.865833 
L 142.792727 -282.547744 
z
"/>
    </defs>
    <g clip-path="url(#p762db32e01)">
     <use xlink:href="#m587b0aa3d7" x="0" y="332.919375" style="fill: #ff7f0e; fill-opacity: 0.5"/>
    </g>
   </g>
   <g id="PolyCollection_3">
    <defs>
     <path id="m3db8825807" d="M 142.792727 -290.343375 
L 142.792727 -283.608465 
L 144.424157 -282.924281 
L 146.055587 -280.919521 
L 147.687017 -277.678504 
L 149.318447 -273.301382 
L 150.949877 -267.89076 
L 152.581307 -261.543129 
L 154.212736 -254.36653 
L 155.844166 -246.433725 
L 157.475596 -237.859936 
L 159.107026 -228.710076 
L 160.738456 -219.144489 
L 162.369886 -209.244048 
L 164.001316 -199.077683 
L 165.632746 -188.772798 
L 167.264175 -178.406865 
L 168.895605 -168.090035 
L 170.527035 -157.905406 
L 172.158465 -147.936843 
L 173.789895 -138.228801 
L 175.421325 -128.876464 
L 177.052755 -119.956152 
L 178.684185 -111.52281 
L 180.315614 -103.651504 
L 181.947044 -96.331513 
L 183.578474 -89.66277 
L 185.209904 -83.57013 
L 186.841334 -78.151031 
L 188.472764 -73.479784 
L 190.104194 -69.50784 
L 191.735624 -66.274232 
L 193.367053 -63.770747 
L 194.998483 -61.967271 
L 196.629913 -60.889912 
L 198.261343 -60.430746 
L 199.892773 -60.566853 
L 201.524203 -61.346943 
L 203.155633 -62.66836 
L 204.787063 -64.549156 
L 206.418492 -66.916969 
L 208.049922 -69.786683 
L 209.681352 -73.043564 
L 211.312782 -76.68232 
L 212.944212 -80.58765 
L 214.575642 -84.79662 
L 216.207072 -89.22797 
L 217.838502 -93.874116 
L 219.469931 -98.48978 
L 221.101361 -103.264147 
L 222.732791 -108.053263 
L 224.364221 -112.85872 
L 225.995651 -117.633655 
L 227.627081 -122.2744 
L 229.258511 -126.798153 
L 230.889941 -131.130432 
L 232.52137 -135.244729 
L 234.1528 -139.087341 
L 235.78423 -142.724537 
L 237.41566 -146.237104 
L 239.04709 -149.337031 
L 240.67852 -152.171845 
L 242.30995 -154.604711 
L 243.94138 -156.795181 
L 245.57281 -158.65295 
L 247.204239 -160.21471 
L 248.835669 -161.503464 
L 250.467099 -162.420778 
L 252.098529 -163.108958 
L 253.729959 -163.341207 
L 255.361389 -163.262371 
L 256.992819 -162.977274 
L 258.624249 -162.446362 
L 260.255678 -161.641 
L 261.887108 -160.612032 
L 263.518538 -159.351427 
L 265.149968 -157.932661 
L 266.781398 -156.307496 
L 268.412828 -154.50008 
L 270.044258 -152.564116 
L 271.675688 -150.557393 
L 273.307117 -148.462699 
L 274.938547 -146.210867 
L 276.569977 -143.927528 
L 278.201407 -141.69248 
L 279.832837 -139.473367 
L 281.464267 -137.187723 
L 283.095697 -134.996929 
L 284.727127 -132.803009 
L 286.358556 -130.735971 
L 287.989986 -128.783283 
L 289.621416 -126.908015 
L 291.252846 -125.135934 
L 292.884276 -123.511938 
L 294.515706 -121.985734 
L 296.147136 -120.614307 
L 297.778566 -119.395588 
L 299.409995 -118.321976 
L 301.041425 -117.370986 
L 302.672855 -116.593423 
L 304.304285 -115.961971 
L 305.935715 -115.526966 
L 307.567145 -115.249762 
L 309.198575 -115.119187 
L 310.830005 -115.100684 
L 312.461434 -115.14992 
L 314.092864 -115.390555 
L 315.724294 -115.725941 
L 317.355724 -116.164646 
L 318.987154 -116.682901 
L 320.618584 -117.28679 
L 322.250014 -117.991268 
L 323.881444 -118.76103 
L 325.512873 -119.545326 
L 327.144303 -120.420005 
L 328.775733 -121.331109 
L 330.407163 -122.26536 
L 332.038593 -123.180948 
L 333.670023 -124.131492 
L 335.301453 -125.086056 
L 336.932883 -126.039118 
L 338.564312 -126.984089 
L 340.195742 -127.907531 
L 341.827172 -128.806631 
L 343.458602 -129.640315 
L 345.090032 -130.436834 
L 346.721462 -131.177464 
L 348.352892 -131.898361 
L 349.984322 -132.583811 
L 351.615751 -133.176201 
L 353.247181 -133.705385 
L 354.878611 -134.182865 
L 356.510041 -134.595309 
L 358.141471 -134.955062 
L 359.772901 -135.256247 
L 361.404331 -135.472759 
L 363.035761 -135.66332 
L 364.66719 -135.767803 
L 366.29862 -135.772325 
L 367.93005 -135.714998 
L 369.56148 -135.620547 
L 371.19291 -135.497349 
L 372.82434 -135.290623 
L 374.45577 -135.050196 
L 376.0872 -134.779996 
L 377.71863 -134.457125 
L 379.350059 -134.097892 
L 380.981489 -133.683783 
L 382.612919 -133.24987 
L 384.244349 -132.800005 
L 385.875779 -132.331977 
L 387.507209 -131.853782 
L 389.138639 -131.346068 
L 390.770069 -130.827134 
L 392.401498 -130.330852 
L 394.032928 -129.858333 
L 395.664358 -129.373686 
L 397.295788 -128.901454 
L 398.927218 -128.443434 
L 400.558648 -128.018021 
L 402.190078 -127.631219 
L 403.821508 -127.254441 
L 405.452937 -126.911298 
L 407.084367 -126.610939 
L 408.715797 -126.311659 
L 410.347227 -126.061373 
L 411.978657 -125.848797 
L 413.610087 -125.661197 
L 415.241517 -125.502705 
L 416.872947 -125.381427 
L 418.504376 -125.309902 
L 420.135806 -125.273039 
L 421.767236 -125.258308 
L 423.398666 -125.261828 
L 425.030096 -125.289406 
L 426.661526 -125.350731 
L 428.292956 -125.425534 
L 429.924386 -125.52396 
L 431.555815 -125.633262 
L 433.187245 -125.772131 
L 434.818675 -125.924327 
L 436.450105 -126.073257 
L 438.081535 -126.238478 
L 439.712965 -126.421499 
L 441.344395 -126.607295 
L 442.975825 -126.789579 
L 444.607254 -126.973925 
L 446.238684 -127.169192 
L 447.870114 -127.361364 
L 449.501544 -127.551585 
L 451.132974 -127.741871 
L 452.764404 -127.92414 
L 454.395834 -128.09426 
L 456.027264 -128.257245 
L 457.658693 -128.412812 
L 459.290123 -128.565027 
L 460.921553 -128.715812 
L 462.552983 -128.83883 
L 464.184413 -128.947742 
L 465.815843 -129.059131 
L 467.447273 -129.150143 
L 467.447273 -135.873459 
L 467.447273 -135.873459 
L 465.815843 -135.73771 
L 464.184413 -135.920967 
L 462.552983 -135.652895 
L 460.921553 -135.456379 
L 459.290123 -135.436866 
L 457.658693 -135.216876 
L 456.027264 -135.318408 
L 454.395834 -134.971004 
L 452.764404 -134.894547 
L 451.132974 -134.277796 
L 449.501544 -134.115081 
L 447.870114 -133.915847 
L 446.238684 -133.657387 
L 444.607254 -133.758438 
L 442.975825 -133.59286 
L 441.344395 -133.38035 
L 439.712965 -133.191534 
L 438.081535 -132.736428 
L 436.450105 -132.620627 
L 434.818675 -132.46321 
L 433.187245 -132.411315 
L 431.555815 -132.076948 
L 429.924386 -132.161179 
L 428.292956 -132.077339 
L 426.661526 -132.050942 
L 425.030096 -131.897318 
L 423.398666 -131.92904 
L 421.767236 -131.599305 
L 420.135806 -131.663668 
L 418.504376 -131.901088 
L 416.872947 -132.207777 
L 415.241517 -132.085875 
L 413.610087 -132.060791 
L 411.978657 -132.485469 
L 410.347227 -132.773814 
L 408.715797 -132.956492 
L 407.084367 -132.987114 
L 405.452937 -133.318054 
L 403.821508 -133.591688 
L 402.190078 -134.170676 
L 400.558648 -134.306617 
L 398.927218 -134.838021 
L 397.295788 -135.09766 
L 395.664358 -135.447984 
L 394.032928 -136.08628 
L 392.401498 -136.278194 
L 390.770069 -136.930332 
L 389.138639 -137.336102 
L 387.507209 -138.341195 
L 385.875779 -138.41445 
L 384.244349 -138.95563 
L 382.612919 -139.290332 
L 380.981489 -139.560619 
L 379.350059 -139.81552 
L 377.71863 -140.250062 
L 376.0872 -140.899363 
L 374.45577 -141.015015 
L 372.82434 -141.429883 
L 371.19291 -141.623631 
L 369.56148 -141.334481 
L 367.93005 -141.916176 
L 366.29862 -141.677575 
L 364.66719 -141.528404 
L 363.035761 -141.592696 
L 361.404331 -141.545709 
L 359.772901 -141.362545 
L 358.141471 -140.885537 
L 356.510041 -140.590464 
L 354.878611 -140.029929 
L 353.247181 -139.660993 
L 351.615751 -139.066365 
L 349.984322 -138.21831 
L 348.352892 -137.74405 
L 346.721462 -136.945233 
L 345.090032 -136.382721 
L 343.458602 -135.578289 
L 341.827172 -134.522077 
L 340.195742 -133.846558 
L 338.564312 -132.764369 
L 336.932883 -131.821012 
L 335.301453 -130.601373 
L 333.670023 -129.723584 
L 332.038593 -128.754732 
L 330.407163 -128.106741 
L 328.775733 -126.698203 
L 327.144303 -126.009958 
L 325.512873 -125.145705 
L 323.881444 -124.058166 
L 322.250014 -123.551798 
L 320.618584 -122.819393 
L 318.987154 -121.958598 
L 317.355724 -121.490506 
L 315.724294 -120.837959 
L 314.092864 -120.817746 
L 312.461434 -120.584835 
L 310.830005 -120.550299 
L 309.198575 -120.557965 
L 307.567145 -120.711222 
L 305.935715 -120.749255 
L 304.304285 -121.67277 
L 302.672855 -121.842677 
L 301.041425 -123.026852 
L 299.409995 -123.834035 
L 297.778566 -124.82395 
L 296.147136 -125.947765 
L 294.515706 -127.550717 
L 292.884276 -129.019851 
L 291.252846 -130.182551 
L 289.621416 -131.94819 
L 287.989986 -133.89631 
L 286.358556 -136.20456 
L 284.727127 -137.768015 
L 283.095697 -140.298874 
L 281.464267 -142.255818 
L 279.832837 -144.527779 
L 278.201407 -146.425554 
L 276.569977 -149.218314 
L 274.938547 -151.279598 
L 273.307117 -153.315631 
L 271.675688 -155.148248 
L 270.044258 -156.934598 
L 268.412828 -159.143477 
L 266.781398 -160.948771 
L 265.149968 -162.424134 
L 263.518538 -163.99591 
L 261.887108 -165.111888 
L 260.255678 -166.316921 
L 258.624249 -167.287038 
L 256.992819 -167.755329 
L 255.361389 -167.984051 
L 253.729959 -167.936301 
L 252.098529 -168.230783 
L 250.467099 -166.901198 
L 248.835669 -165.923428 
L 247.204239 -165.137251 
L 245.57281 -163.533617 
L 243.94138 -161.663525 
L 242.30995 -159.269897 
L 240.67852 -156.832352 
L 239.04709 -153.618419 
L 237.41566 -150.408785 
L 235.78423 -147.164531 
L 234.1528 -143.387761 
L 232.52137 -140.077312 
L 230.889941 -135.746295 
L 229.258511 -131.218342 
L 227.627081 -126.569333 
L 225.995651 -122.229891 
L 224.364221 -117.718242 
L 222.732791 -112.397972 
L 221.101361 -107.561597 
L 219.469931 -102.87616 
L 217.838502 -98.242759 
L 216.207072 -93.446289 
L 214.575642 -89.128244 
L 212.944212 -85.046707 
L 211.312782 -81.101227 
L 209.681352 -77.733715 
L 208.049922 -74.195134 
L 206.418492 -71.671857 
L 204.787063 -68.530098 
L 203.155633 -67.034212 
L 201.524203 -65.76687 
L 199.892773 -64.629291 
L 198.261343 -64.810172 
L 196.629913 -64.938136 
L 194.998483 -66.322565 
L 193.367053 -68.361273 
L 191.735624 -70.990225 
L 190.104194 -74.053032 
L 188.472764 -78.499117 
L 186.841334 -82.781919 
L 185.209904 -88.126785 
L 183.578474 -94.294214 
L 181.947044 -100.744789 
L 180.315614 -108.220167 
L 178.684185 -116.117357 
L 177.052755 -124.56084 
L 175.421325 -133.241835 
L 173.789895 -142.770318 
L 172.158465 -152.944427 
L 170.527035 -162.795549 
L 168.895605 -172.911012 
L 167.264175 -183.849878 
L 165.632746 -194.352016 
L 164.001316 -204.489055 
L 162.369886 -215.227123 
L 160.738456 -225.282734 
L 159.107026 -234.590145 
L 157.475596 -244.006911 
L 155.844166 -252.844263 
L 154.212736 -260.503356 
L 152.581307 -267.980191 
L 150.949877 -274.567716 
L 149.318447 -279.974926 
L 147.687017 -284.320977 
L 146.055587 -287.775516 
L 144.424157 -289.765853 
L 142.792727 -290.343375 
z
"/>
    </defs>
    <g clip-path="url(#p762db32e01)">
     <use xlink:href="#m3db8825807" x="0" y="332.919375" style="fill: #ff7f0e; fill-opacity: 0.5"/>
    </g>
   </g>
   <g id="patch_3">
    <path d="M 126.56 294.513991 
L 126.56 71.615254 
" style="fill: none; stroke: #262626; stroke-linejoin: miter; stroke-linecap: square"/>
   </g>
   <g id="patch_4">
    <path d="M 142.792727 296.592 
L 467.447273 296.592 
" style="fill: none; stroke: #262626; stroke-linejoin: miter; stroke-linecap: square"/>
   </g>
   <g id="text_18">
    <!-- Posterior predictive distribution, $~\int p(x(t; x_0, \zeta_i, \omega_i)| \zeta_i, \omega_i) p_\text{pop}(\zeta_i, \omega_i) d\zeta_i d\omega_i, ~i=$20 -->
    <g style="fill: #262626" transform="translate(7.2 24.48) scale(0.16 -0.16)">
     <defs>
      <path id="ArialMT-72" d="M 416 0 
L 416 3319 
L 922 3319 
L 922 2816 
Q 1116 3169 1280 3281 
Q 1444 3394 1641 3394 
Q 1925 3394 2219 3213 
L 2025 2691 
Q 1819 2813 1613 2813 
Q 1428 2813 1281 2702 
Q 1134 2591 1072 2394 
Q 978 2094 978 1738 
L 978 0 
L 416 0 
z
" transform="scale(0.015625)"/>
      <path id="ArialMT-20" transform="scale(0.015625)"/>
      <path id="ArialMT-70" d="M 422 -1272 
L 422 3319 
L 934 3319 
L 934 2888 
Q 1116 3141 1344 3267 
Q 1572 3394 1897 3394 
Q 2322 3394 2647 3175 
Q 2972 2956 3137 2557 
Q 3303 2159 3303 1684 
Q 3303 1175 3120 767 
Q 2938 359 2589 142 
Q 2241 -75 1856 -75 
Q 1575 -75 1351 44 
Q 1128 163 984 344 
L 984 -1272 
L 422 -1272 
z
M 931 1641 
Q 931 1000 1190 694 
Q 1450 388 1819 388 
Q 2194 388 2461 705 
Q 2728 1022 2728 1688 
Q 2728 2322 2467 2637 
Q 2206 2953 1844 2953 
Q 1484 2953 1207 2617 
Q 931 2281 931 1641 
z
" transform="scale(0.015625)"/>
      <path id="ArialMT-64" d="M 2575 0 
L 2575 419 
Q 2259 -75 1647 -75 
Q 1250 -75 917 144 
Q 584 363 401 755 
Q 219 1147 219 1656 
Q 219 2153 384 2558 
Q 550 2963 881 3178 
Q 1213 3394 1622 3394 
Q 1922 3394 2156 3267 
Q 2391 3141 2538 2938 
L 2538 4581 
L 3097 4581 
L 3097 0 
L 2575 0 
z
M 797 1656 
Q 797 1019 1065 703 
Q 1334 388 1700 388 
Q 2069 388 2326 689 
Q 2584 991 2584 1609 
Q 2584 2291 2321 2609 
Q 2059 2928 1675 2928 
Q 1300 2928 1048 2622 
Q 797 2316 797 1656 
z
" transform="scale(0.015625)"/>
      <path id="ArialMT-63" d="M 2588 1216 
L 3141 1144 
Q 3050 572 2676 248 
Q 2303 -75 1759 -75 
Q 1078 -75 664 370 
Q 250 816 250 1647 
Q 250 2184 428 2587 
Q 606 2991 970 3192 
Q 1334 3394 1763 3394 
Q 2303 3394 2647 3120 
Q 2991 2847 3088 2344 
L 2541 2259 
Q 2463 2594 2264 2762 
Q 2066 2931 1784 2931 
Q 1359 2931 1093 2626 
Q 828 2322 828 1663 
Q 828 994 1084 691 
Q 1341 388 1753 388 
Q 2084 388 2306 591 
Q 2528 794 2588 1216 
z
" transform="scale(0.015625)"/>
      <path id="ArialMT-76" d="M 1344 0 
L 81 3319 
L 675 3319 
L 1388 1331 
Q 1503 1009 1600 663 
Q 1675 925 1809 1294 
L 2547 3319 
L 3125 3319 
L 1869 0 
L 1344 0 
z
" transform="scale(0.015625)"/>
      <path id="ArialMT-62" d="M 941 0 
L 419 0 
L 419 4581 
L 981 4581 
L 981 2947 
Q 1338 3394 1891 3394 
Q 2197 3394 2470 3270 
Q 2744 3147 2920 2923 
Q 3097 2700 3197 2384 
Q 3297 2069 3297 1709 
Q 3297 856 2875 390 
Q 2453 -75 1863 -75 
Q 1275 -75 941 416 
L 941 0 
z
M 934 1684 
Q 934 1088 1097 822 
Q 1363 388 1816 388 
Q 2184 388 2453 708 
Q 2722 1028 2722 1663 
Q 2722 2313 2464 2622 
Q 2206 2931 1841 2931 
Q 1472 2931 1203 2611 
Q 934 2291 934 1684 
z
" transform="scale(0.015625)"/>
      <path id="ArialMT-75" d="M 2597 0 
L 2597 488 
Q 2209 -75 1544 -75 
Q 1250 -75 995 37 
Q 741 150 617 320 
Q 494 491 444 738 
Q 409 903 409 1263 
L 409 3319 
L 972 3319 
L 972 1478 
Q 972 1038 1006 884 
Q 1059 663 1231 536 
Q 1403 409 1656 409 
Q 1909 409 2131 539 
Q 2353 669 2445 892 
Q 2538 1116 2538 1541 
L 2538 3319 
L 3100 3319 
L 3100 0 
L 2597 0 
z
" transform="scale(0.015625)"/>
      <path id="ArialMT-2c" d="M 569 0 
L 569 641 
L 1209 641 
L 1209 0 
Q 1209 -353 1084 -570 
Q 959 -788 688 -906 
L 531 -666 
Q 709 -588 793 -436 
Q 878 -284 888 0 
L 569 0 
z
" transform="scale(0.015625)"/>
      <path id="DejaVuSansDisplay-222b" d="M 2134 5525 
Q 2172 6263 2528 6556 
Q 2884 6850 3218 6850 
Q 3553 6850 3833 6575 
Q 4113 6300 4200 5678 
L 3544 5613 
Q 3469 6188 3219 6188 
Q 2906 6188 2869 5413 
L 2581 -597 
Q 2547 -1334 2187 -1628 
Q 1828 -1922 1497 -1922 
Q 1163 -1922 883 -1647 
Q 603 -1372 516 -750 
L 1172 -684 
Q 1247 -1259 1497 -1259 
Q 1809 -1259 1847 -488 
L 2134 5525 
z
" transform="scale(0.015625)"/>
      <path id="DejaVuSans-Oblique-70" d="M 3175 2156 
Q 3175 2616 2975 2859 
Q 2775 3103 2400 3103 
Q 2144 3103 1911 2972 
Q 1678 2841 1497 2591 
Q 1319 2344 1212 1994 
Q 1106 1644 1106 1300 
Q 1106 863 1306 627 
Q 1506 391 1875 391 
Q 2147 391 2380 519 
Q 2613 647 2778 891 
Q 2956 1147 3065 1494 
Q 3175 1841 3175 2156 
z
M 1394 2969 
Q 1625 3272 1939 3428 
Q 2253 3584 2638 3584 
Q 3175 3584 3472 3232 
Q 3769 2881 3769 2247 
Q 3769 1728 3584 1258 
Q 3400 788 3053 416 
Q 2822 169 2531 39 
Q 2241 -91 1919 -91 
Q 1547 -91 1294 64 
Q 1041 219 916 525 
L 556 -1331 
L -19 -1331 
L 922 3500 
L 1497 3500 
L 1394 2969 
z
" transform="scale(0.015625)"/>
      <path id="DejaVuSans-28" d="M 1984 4856 
Q 1566 4138 1362 3434 
Q 1159 2731 1159 2009 
Q 1159 1288 1364 580 
Q 1569 -128 1984 -844 
L 1484 -844 
Q 1016 -109 783 600 
Q 550 1309 550 2009 
Q 550 2706 781 3412 
Q 1013 4119 1484 4856 
L 1984 4856 
z
" transform="scale(0.015625)"/>
      <path id="DejaVuSans-Oblique-78" d="M 3841 3500 
L 2234 1784 
L 3219 0 
L 2559 0 
L 1819 1388 
L 531 0 
L -166 0 
L 1556 1844 
L 641 3500 
L 1300 3500 
L 1972 2234 
L 3144 3500 
L 3841 3500 
z
" transform="scale(0.015625)"/>
      <path id="DejaVuSans-Oblique-74" d="M 2706 3500 
L 2619 3053 
L 1472 3053 
L 1100 1153 
Q 1081 1047 1072 975 
Q 1063 903 1063 863 
Q 1063 663 1183 572 
Q 1303 481 1569 481 
L 2150 481 
L 2053 0 
L 1503 0 
Q 991 0 739 200 
Q 488 400 488 806 
Q 488 878 497 964 
Q 506 1050 525 1153 
L 897 3053 
L 409 3053 
L 500 3500 
L 978 3500 
L 1172 4494 
L 1747 4494 
L 1556 3500 
L 2706 3500 
z
" transform="scale(0.015625)"/>
      <path id="DejaVuSans-3b" d="M 750 3309 
L 1409 3309 
L 1409 2516 
L 750 2516 
L 750 3309 
z
M 750 794 
L 1409 794 
L 1409 256 
L 897 -744 
L 494 -744 
L 750 256 
L 750 794 
z
" transform="scale(0.015625)"/>
      <path id="DejaVuSans-30" d="M 2034 4250 
Q 1547 4250 1301 3770 
Q 1056 3291 1056 2328 
Q 1056 1369 1301 889 
Q 1547 409 2034 409 
Q 2525 409 2770 889 
Q 3016 1369 3016 2328 
Q 3016 3291 2770 3770 
Q 2525 4250 2034 4250 
z
M 2034 4750 
Q 2819 4750 3233 4129 
Q 3647 3509 3647 2328 
Q 3647 1150 3233 529 
Q 2819 -91 2034 -91 
Q 1250 -91 836 529 
Q 422 1150 422 2328 
Q 422 3509 836 4129 
Q 1250 4750 2034 4750 
z
" transform="scale(0.015625)"/>
      <path id="DejaVuSans-2c" d="M 750 794 
L 1409 794 
L 1409 256 
L 897 -744 
L 494 -744 
L 750 256 
L 750 794 
z
" transform="scale(0.015625)"/>
      <path id="DejaVuSans-Oblique-3b6" d="M 1966 397 
Q 2378 394 2578 159 
Q 2794 -88 2722 -463 
Q 2650 -822 2372 -1072 
Q 2069 -1344 1559 -1344 
Q 1606 -1109 1650 -872 
Q 1863 -888 2022 -750 
Q 2144 -641 2166 -525 
Q 2197 -359 2125 -222 
Q 2050 -91 1872 -91 
Q -22 -91 316 1669 
Q 616 3206 2609 4284 
L 947 4284 
L 1059 4863 
L 3778 4863 
L 3666 4284 
Q 1181 3147 894 1669 
Q 647 397 1966 397 
z
" transform="scale(0.015625)"/>
      <path id="DejaVuSans-Oblique-69" d="M 1172 4863 
L 1747 4863 
L 1606 4134 
L 1031 4134 
L 1172 4863 
z
M 909 3500 
L 1484 3500 
L 800 0 
L 225 0 
L 909 3500 
z
" transform="scale(0.015625)"/>
      <path id="DejaVuSans-Oblique-3c9" d="M 1369 -91 
Q 72 -91 434 1766 
Q 575 2500 1256 3500 
L 1875 3500 
Q 1231 2500 1088 1750 
Q 819 397 1519 397 
Q 2166 397 2478 2078 
L 3009 2078 
Q 2669 388 3316 397 
Q 4013 403 4275 1750 
Q 4419 2500 4169 3500 
L 4788 3500 
Q 5075 2500 4934 1766 
Q 4578 -94 3278 -91 
Q 2428 -88 2503 844 
Q 2194 -91 1369 -91 
z
" transform="scale(0.015625)"/>
      <path id="DejaVuSans-29" d="M 513 4856 
L 1013 4856 
Q 1481 4119 1714 3412 
Q 1947 2706 1947 2009 
Q 1947 1309 1714 600 
Q 1481 -109 1013 -844 
L 513 -844 
Q 928 -128 1133 580 
Q 1338 1288 1338 2009 
Q 1338 2731 1133 3434 
Q 928 4138 513 4856 
z
" transform="scale(0.015625)"/>
      <path id="DejaVuSans-7c" d="M 1344 4891 
L 1344 -1509 
L 813 -1509 
L 813 4891 
L 1344 4891 
z
" transform="scale(0.015625)"/>
      <path id="DejaVuSans-70" d="M 1159 525 
L 1159 -1331 
L 581 -1331 
L 581 3500 
L 1159 3500 
L 1159 2969 
Q 1341 3281 1617 3432 
Q 1894 3584 2278 3584 
Q 2916 3584 3314 3078 
Q 3713 2572 3713 1747 
Q 3713 922 3314 415 
Q 2916 -91 2278 -91 
Q 1894 -91 1617 61 
Q 1341 213 1159 525 
z
M 3116 1747 
Q 3116 2381 2855 2742 
Q 2594 3103 2138 3103 
Q 1681 3103 1420 2742 
Q 1159 2381 1159 1747 
Q 1159 1113 1420 752 
Q 1681 391 2138 391 
Q 2594 391 2855 752 
Q 3116 1113 3116 1747 
z
" transform="scale(0.015625)"/>
      <path id="DejaVuSans-6f" d="M 1959 3097 
Q 1497 3097 1228 2736 
Q 959 2375 959 1747 
Q 959 1119 1226 758 
Q 1494 397 1959 397 
Q 2419 397 2687 759 
Q 2956 1122 2956 1747 
Q 2956 2369 2687 2733 
Q 2419 3097 1959 3097 
z
M 1959 3584 
Q 2709 3584 3137 3096 
Q 3566 2609 3566 1747 
Q 3566 888 3137 398 
Q 2709 -91 1959 -91 
Q 1206 -91 779 398 
Q 353 888 353 1747 
Q 353 2609 779 3096 
Q 1206 3584 1959 3584 
z
" transform="scale(0.015625)"/>
      <path id="DejaVuSans-Oblique-64" d="M 2675 525 
Q 2444 222 2128 65 
Q 1813 -91 1428 -91 
Q 903 -91 598 267 
Q 294 625 294 1247 
Q 294 1766 478 2236 
Q 663 2706 1013 3078 
Q 1244 3325 1534 3454 
Q 1825 3584 2144 3584 
Q 2481 3584 2739 3421 
Q 2997 3259 3138 2956 
L 3513 4863 
L 4091 4863 
L 3144 0 
L 2566 0 
L 2675 525 
z
M 891 1350 
Q 891 897 1095 644 
Q 1300 391 1663 391 
Q 1931 391 2161 520 
Q 2391 650 2566 903 
Q 2750 1166 2856 1509 
Q 2963 1853 2963 2188 
Q 2963 2622 2758 2865 
Q 2553 3109 2194 3109 
Q 1922 3109 1687 2981 
Q 1453 2853 1288 2613 
Q 1106 2353 998 2009 
Q 891 1666 891 1350 
z
" transform="scale(0.015625)"/>
      <path id="DejaVuSans-3d" d="M 678 2906 
L 4684 2906 
L 4684 2381 
L 678 2381 
L 678 2906 
z
M 678 1631 
L 4684 1631 
L 4684 1100 
L 678 1100 
L 678 1631 
z
" transform="scale(0.015625)"/>
     </defs>
     <use xlink:href="#ArialMT-50" transform="translate(0 0.96875)"/>
     <use xlink:href="#ArialMT-6f" transform="translate(66.699219 0.96875)"/>
     <use xlink:href="#ArialMT-73" transform="translate(122.314453 0.96875)"/>
     <use xlink:href="#ArialMT-74" transform="translate(172.314453 0.96875)"/>
     <use xlink:href="#ArialMT-65" transform="translate(200.097656 0.96875)"/>
     <use xlink:href="#ArialMT-72" transform="translate(255.712891 0.96875)"/>
     <use xlink:href="#ArialMT-69" transform="translate(289.013672 0.96875)"/>
     <use xlink:href="#ArialMT-6f" transform="translate(311.230469 0.96875)"/>
     <use xlink:href="#ArialMT-72" transform="translate(366.845703 0.96875)"/>
     <use xlink:href="#ArialMT-20" transform="translate(400.146484 0.96875)"/>
     <use xlink:href="#ArialMT-70" transform="translate(427.929688 0.96875)"/>
     <use xlink:href="#ArialMT-72" transform="translate(483.544922 0.96875)"/>
     <use xlink:href="#ArialMT-65" transform="translate(516.845703 0.96875)"/>
     <use xlink:href="#ArialMT-64" transform="translate(572.460938 0.96875)"/>
     <use xlink:href="#ArialMT-69" transform="translate(628.076172 0.96875)"/>
     <use xlink:href="#ArialMT-63" transform="translate(650.292969 0.96875)"/>
     <use xlink:href="#ArialMT-74" transform="translate(700.292969 0.96875)"/>
     <use xlink:href="#ArialMT-69" transform="translate(728.076172 0.96875)"/>
     <use xlink:href="#ArialMT-76" transform="translate(750.292969 0.96875)"/>
     <use xlink:href="#ArialMT-65" transform="translate(800.292969 0.96875)"/>
     <use xlink:href="#ArialMT-20" transform="translate(855.908203 0.96875)"/>
     <use xlink:href="#ArialMT-64" transform="translate(883.691406 0.96875)"/>
     <use xlink:href="#ArialMT-69" transform="translate(939.306641 0.96875)"/>
     <use xlink:href="#ArialMT-73" transform="translate(961.523438 0.96875)"/>
     <use xlink:href="#ArialMT-74" transform="translate(1011.523438 0.96875)"/>
     <use xlink:href="#ArialMT-72" transform="translate(1039.306641 0.96875)"/>
     <use xlink:href="#ArialMT-69" transform="translate(1072.607422 0.96875)"/>
     <use xlink:href="#ArialMT-62" transform="translate(1094.824219 0.96875)"/>
     <use xlink:href="#ArialMT-75" transform="translate(1150.439453 0.96875)"/>
     <use xlink:href="#ArialMT-74" transform="translate(1206.054688 0.96875)"/>
     <use xlink:href="#ArialMT-69" transform="translate(1233.837891 0.96875)"/>
     <use xlink:href="#ArialMT-6f" transform="translate(1256.054688 0.96875)"/>
     <use xlink:href="#ArialMT-6e" transform="translate(1311.669922 0.96875)"/>
     <use xlink:href="#ArialMT-2c" transform="translate(1367.285156 0.96875)"/>
     <use xlink:href="#ArialMT-20" transform="translate(1395.068359 0.96875)"/>
     <use xlink:href="#DejaVuSansDisplay-222b" transform="translate(1455.321941 0.96875)"/>
     <use xlink:href="#DejaVuSans-Oblique-70" transform="translate(1528.954753 0.96875)"/>
     <use xlink:href="#DejaVuSans-28" transform="translate(1592.431316 0.96875)"/>
     <use xlink:href="#DejaVuSans-Oblique-78" transform="translate(1631.444988 0.96875)"/>
     <use xlink:href="#DejaVuSans-28" transform="translate(1690.624675 0.96875)"/>
     <use xlink:href="#DejaVuSans-Oblique-74" transform="translate(1729.638347 0.96875)"/>
     <use xlink:href="#DejaVuSans-3b" transform="translate(1768.847332 0.96875)"/>
     <use xlink:href="#DejaVuSans-Oblique-78" transform="translate(1822.02116 0.96875)"/>
     <use xlink:href="#DejaVuSans-30" transform="translate(1881.200847 -15.4375) scale(0.7)"/>
     <use xlink:href="#DejaVuSans-2c" transform="translate(1928.471355 0.96875)"/>
     <use xlink:href="#DejaVuSans-Oblique-3b6" transform="translate(1979.740886 0.96875)"/>
     <use xlink:href="#DejaVuSans-Oblique-69" transform="translate(2034.135417 -15.4375) scale(0.7)"/>
     <use xlink:href="#DejaVuSans-2c" transform="translate(2056.318035 0.96875)"/>
     <use xlink:href="#DejaVuSans-Oblique-3c9" transform="translate(2107.587566 0.96875)"/>
     <use xlink:href="#DejaVuSans-Oblique-69" transform="translate(2191.3278 -15.4375) scale(0.7)"/>
     <use xlink:href="#DejaVuSans-29" transform="translate(2213.510417 0.96875)"/>
     <use xlink:href="#DejaVuSans-7c" transform="translate(2252.524089 0.96875)"/>
     <use xlink:href="#DejaVuSans-Oblique-3b6" transform="translate(2286.215496 0.96875)"/>
     <use xlink:href="#DejaVuSans-Oblique-69" transform="translate(2340.610027 -15.4375) scale(0.7)"/>
     <use xlink:href="#DejaVuSans-2c" transform="translate(2362.792644 0.96875)"/>
     <use xlink:href="#DejaVuSans-Oblique-3c9" transform="translate(2414.062175 0.96875)"/>
     <use xlink:href="#DejaVuSans-Oblique-69" transform="translate(2497.80241 -15.4375) scale(0.7)"/>
     <use xlink:href="#DejaVuSans-29" transform="translate(2519.985027 0.96875)"/>
     <use xlink:href="#DejaVuSans-Oblique-70" transform="translate(2558.998699 0.96875)"/>
     <use xlink:href="#DejaVuSans-70" transform="translate(2622.475261 -15.4375) scale(0.7)"/>
     <use xlink:href="#DejaVuSans-6f" transform="translate(2666.908855 -15.4375) scale(0.7)"/>
     <use xlink:href="#DejaVuSans-70" transform="translate(2709.736003 -15.4375) scale(0.7)"/>
     <use xlink:href="#DejaVuSans-28" transform="translate(2756.903972 0.96875)"/>
     <use xlink:href="#DejaVuSans-Oblique-3b6" transform="translate(2795.917644 0.96875)"/>
     <use xlink:href="#DejaVuSans-Oblique-69" transform="translate(2850.312175 -15.4375) scale(0.7)"/>
     <use xlink:href="#DejaVuSans-2c" transform="translate(2872.494792 0.96875)"/>
     <use xlink:href="#DejaVuSans-Oblique-3c9" transform="translate(2923.764324 0.96875)"/>
     <use xlink:href="#DejaVuSans-Oblique-69" transform="translate(3007.504558 -15.4375) scale(0.7)"/>
     <use xlink:href="#DejaVuSans-29" transform="translate(3029.687175 0.96875)"/>
     <use xlink:href="#DejaVuSans-Oblique-64" transform="translate(3068.700847 0.96875)"/>
     <use xlink:href="#DejaVuSans-Oblique-3b6" transform="translate(3132.17741 0.96875)"/>
     <use xlink:href="#DejaVuSans-Oblique-69" transform="translate(3186.571941 -15.4375) scale(0.7)"/>
     <use xlink:href="#DejaVuSans-Oblique-64" transform="translate(3208.754558 0.96875)"/>
     <use xlink:href="#DejaVuSans-Oblique-3c9" transform="translate(3272.231121 0.96875)"/>
     <use xlink:href="#DejaVuSans-Oblique-69" transform="translate(3355.971355 -15.4375) scale(0.7)"/>
     <use xlink:href="#DejaVuSans-2c" transform="translate(3378.153972 0.96875)"/>
     <use xlink:href="#DejaVuSans-Oblique-69" transform="translate(3461.893882 0.96875)"/>
     <use xlink:href="#DejaVuSans-3d" transform="translate(3509.159507 0.96875)"/>
     <use xlink:href="#ArialMT-32" transform="translate(3612.430991 0.96875)"/>
     <use xlink:href="#ArialMT-30" transform="translate(3668.046226 0.96875)"/>
    </g>
   </g>
   <g id="legend_1">
    <g id="patch_5">
     <path d="M 365.72975 75.069875 
L 477.52 75.069875 
Q 479.28 75.069875 479.28 73.309875 
L 479.28 36.64 
Q 479.28 34.88 477.52 34.88 
L 365.72975 34.88 
Q 363.96975 34.88 363.96975 36.64 
L 363.96975 73.309875 
Q 363.96975 75.069875 365.72975 75.069875 
z
" style="fill: #ffffff; opacity: 0.8; stroke: #cccccc; stroke-width: 0.8; stroke-linejoin: miter"/>
    </g>
    <g id="patch_6">
     <path d="M 367.48975 44.698875 
L 385.08975 44.698875 
L 385.08975 38.538875 
L 367.48975 38.538875 
z
" style="fill: #1f77b4; fill-opacity: 0.5"/>
    </g>
    <g id="text_19">
     <!-- Epistemic uncertainty -->
     <g style="fill: #262626" transform="translate(392.12975 44.698875) scale(0.088 -0.088)">
      <defs>
       <path id="ArialMT-45" d="M 506 0 
L 506 4581 
L 3819 4581 
L 3819 4041 
L 1113 4041 
L 1113 2638 
L 3647 2638 
L 3647 2100 
L 1113 2100 
L 1113 541 
L 3925 541 
L 3925 0 
L 506 0 
z
" transform="scale(0.015625)"/>
       <path id="ArialMT-61" d="M 2588 409 
Q 2275 144 1986 34 
Q 1697 -75 1366 -75 
Q 819 -75 525 192 
Q 231 459 231 875 
Q 231 1119 342 1320 
Q 453 1522 633 1644 
Q 813 1766 1038 1828 
Q 1203 1872 1538 1913 
Q 2219 1994 2541 2106 
Q 2544 2222 2544 2253 
Q 2544 2597 2384 2738 
Q 2169 2928 1744 2928 
Q 1347 2928 1158 2789 
Q 969 2650 878 2297 
L 328 2372 
Q 403 2725 575 2942 
Q 747 3159 1072 3276 
Q 1397 3394 1825 3394 
Q 2250 3394 2515 3294 
Q 2781 3194 2906 3042 
Q 3031 2891 3081 2659 
Q 3109 2516 3109 2141 
L 3109 1391 
Q 3109 606 3145 398 
Q 3181 191 3288 0 
L 2700 0 
Q 2613 175 2588 409 
z
M 2541 1666 
Q 2234 1541 1622 1453 
Q 1275 1403 1131 1340 
Q 988 1278 909 1158 
Q 831 1038 831 891 
Q 831 666 1001 516 
Q 1172 366 1500 366 
Q 1825 366 2078 508 
Q 2331 650 2450 897 
Q 2541 1088 2541 1459 
L 2541 1666 
z
" transform="scale(0.015625)"/>
       <path id="ArialMT-79" d="M 397 -1278 
L 334 -750 
Q 519 -800 656 -800 
Q 844 -800 956 -737 
Q 1069 -675 1141 -563 
Q 1194 -478 1313 -144 
Q 1328 -97 1363 -6 
L 103 3319 
L 709 3319 
L 1400 1397 
Q 1534 1031 1641 628 
Q 1738 1016 1872 1384 
L 2581 3319 
L 3144 3319 
L 1881 -56 
Q 1678 -603 1566 -809 
Q 1416 -1088 1222 -1217 
Q 1028 -1347 759 -1347 
Q 597 -1347 397 -1278 
z
" transform="scale(0.015625)"/>
      </defs>
      <use xlink:href="#ArialMT-45"/>
      <use xlink:href="#ArialMT-70" x="66.699219"/>
      <use xlink:href="#ArialMT-69" x="122.314453"/>
      <use xlink:href="#ArialMT-73" x="144.53125"/>
      <use xlink:href="#ArialMT-74" x="194.53125"/>
      <use xlink:href="#ArialMT-65" x="222.314453"/>
      <use xlink:href="#ArialMT-6d" x="277.929688"/>
      <use xlink:href="#ArialMT-69" x="361.230469"/>
      <use xlink:href="#ArialMT-63" x="383.447266"/>
      <use xlink:href="#ArialMT-20" x="433.447266"/>
      <use xlink:href="#ArialMT-75" x="461.230469"/>
      <use xlink:href="#ArialMT-6e" x="516.845703"/>
      <use xlink:href="#ArialMT-63" x="572.460938"/>
      <use xlink:href="#ArialMT-65" x="622.460938"/>
      <use xlink:href="#ArialMT-72" x="678.076172"/>
      <use xlink:href="#ArialMT-74" x="711.376953"/>
      <use xlink:href="#ArialMT-61" x="739.160156"/>
      <use xlink:href="#ArialMT-69" x="794.775391"/>
      <use xlink:href="#ArialMT-6e" x="816.992188"/>
      <use xlink:href="#ArialMT-74" x="872.607422"/>
      <use xlink:href="#ArialMT-79" x="900.390625"/>
     </g>
    </g>
    <g id="patch_7">
     <path d="M 367.48975 57.249875 
L 385.08975 57.249875 
L 385.08975 51.089875 
L 367.48975 51.089875 
z
" style="fill: #ff7f0e; fill-opacity: 0.5"/>
    </g>
    <g id="text_20">
     <!-- Aleatoric uncertainty -->
     <g style="fill: #262626" transform="translate(392.12975 57.249875) scale(0.088 -0.088)">
      <defs>
       <path id="ArialMT-41" d="M -9 0 
L 1750 4581 
L 2403 4581 
L 4278 0 
L 3588 0 
L 3053 1388 
L 1138 1388 
L 634 0 
L -9 0 
z
M 1313 1881 
L 2866 1881 
L 2388 3150 
Q 2169 3728 2063 4100 
Q 1975 3659 1816 3225 
L 1313 1881 
z
" transform="scale(0.015625)"/>
       <path id="ArialMT-6c" d="M 409 0 
L 409 4581 
L 972 4581 
L 972 0 
L 409 0 
z
" transform="scale(0.015625)"/>
      </defs>
      <use xlink:href="#ArialMT-41"/>
      <use xlink:href="#ArialMT-6c" x="66.699219"/>
      <use xlink:href="#ArialMT-65" x="88.916016"/>
      <use xlink:href="#ArialMT-61" x="144.53125"/>
      <use xlink:href="#ArialMT-74" x="200.146484"/>
      <use xlink:href="#ArialMT-6f" x="227.929688"/>
      <use xlink:href="#ArialMT-72" x="283.544922"/>
      <use xlink:href="#ArialMT-69" x="316.845703"/>
      <use xlink:href="#ArialMT-63" x="339.0625"/>
      <use xlink:href="#ArialMT-20" x="389.0625"/>
      <use xlink:href="#ArialMT-75" x="416.845703"/>
      <use xlink:href="#ArialMT-6e" x="472.460938"/>
      <use xlink:href="#ArialMT-63" x="528.076172"/>
      <use xlink:href="#ArialMT-65" x="578.076172"/>
      <use xlink:href="#ArialMT-72" x="633.691406"/>
      <use xlink:href="#ArialMT-74" x="666.992188"/>
      <use xlink:href="#ArialMT-61" x="694.775391"/>
      <use xlink:href="#ArialMT-69" x="750.390625"/>
      <use xlink:href="#ArialMT-6e" x="772.607422"/>
      <use xlink:href="#ArialMT-74" x="828.222656"/>
      <use xlink:href="#ArialMT-79" x="856.005859"/>
     </g>
    </g>
    <g id="PathCollection_1">
     <defs>
      <path id="mf78db5a535" d="M 0 1.414214 
C 0.375054 1.414214 0.734797 1.265203 1 1 
C 1.265203 0.734797 1.414214 0.375054 1.414214 0 
C 1.414214 -0.375054 1.265203 -0.734797 1 -1 
C 0.734797 -1.265203 0.375054 -1.414214 0 -1.414214 
C -0.375054 -1.414214 -0.734797 -1.265203 -1 -1 
C -1.265203 -0.734797 -1.414214 -0.375054 -1.414214 0 
C -1.414214 0.375054 -1.265203 0.734797 -1 1 
C -0.734797 1.265203 -0.375054 1.414214 0 1.414214 
z
" style="stroke: #000000; stroke-opacity: 0.8; stroke-width: 0.8"/>
     </defs>
     <g>
      <use xlink:href="#mf78db5a535" x="376.28975" y="67.490875" style="fill-opacity: 0.8; stroke: #000000; stroke-opacity: 0.8; stroke-width: 0.8"/>
     </g>
    </g>
    <g id="text_21">
     <!-- Data -->
     <g style="fill: #262626" transform="translate(392.12975 69.800875) scale(0.088 -0.088)">
      <defs>
       <path id="ArialMT-44" d="M 494 0 
L 494 4581 
L 2072 4581 
Q 2606 4581 2888 4516 
Q 3281 4425 3559 4188 
Q 3922 3881 4101 3404 
Q 4281 2928 4281 2316 
Q 4281 1794 4159 1391 
Q 4038 988 3847 723 
Q 3656 459 3429 307 
Q 3203 156 2883 78 
Q 2563 0 2147 0 
L 494 0 
z
M 1100 541 
L 2078 541 
Q 2531 541 2789 625 
Q 3047 709 3200 863 
Q 3416 1078 3536 1442 
Q 3656 1806 3656 2325 
Q 3656 3044 3420 3430 
Q 3184 3816 2847 3947 
Q 2603 4041 2063 4041 
L 1100 4041 
L 1100 541 
z
" transform="scale(0.015625)"/>
      </defs>
      <use xlink:href="#ArialMT-44"/>
      <use xlink:href="#ArialMT-61" x="72.216797"/>
      <use xlink:href="#ArialMT-74" x="127.832031"/>
      <use xlink:href="#ArialMT-61" x="155.615234"/>
     </g>
    </g>
   </g>
   <g id="PathCollection_2">
    <g clip-path="url(#p762db32e01)">
     <use xlink:href="#mf78db5a535" x="142.792727" y="54.327802" style="fill-opacity: 0.8; stroke: #000000; stroke-opacity: 0.8; stroke-width: 0.8"/>
     <use xlink:href="#mf78db5a535" x="159.879809" y="106.047716" style="fill-opacity: 0.8; stroke: #000000; stroke-opacity: 0.8; stroke-width: 0.8"/>
     <use xlink:href="#mf78db5a535" x="176.96689" y="214.98519" style="fill-opacity: 0.8; stroke: #000000; stroke-opacity: 0.8; stroke-width: 0.8"/>
     <use xlink:href="#mf78db5a535" x="194.053971" y="271.744487" style="fill-opacity: 0.8; stroke: #000000; stroke-opacity: 0.8; stroke-width: 0.8"/>
     <use xlink:href="#mf78db5a535" x="211.141053" y="264.149461" style="fill-opacity: 0.8; stroke: #000000; stroke-opacity: 0.8; stroke-width: 0.8"/>
     <use xlink:href="#mf78db5a535" x="228.228134" y="204.36702" style="fill-opacity: 0.8; stroke: #000000; stroke-opacity: 0.8; stroke-width: 0.8"/>
     <use xlink:href="#mf78db5a535" x="245.315215" y="183.19028" style="fill-opacity: 0.8; stroke: #000000; stroke-opacity: 0.8; stroke-width: 0.8"/>
     <use xlink:href="#mf78db5a535" x="262.402297" y="177.301208" style="fill-opacity: 0.8; stroke: #000000; stroke-opacity: 0.8; stroke-width: 0.8"/>
     <use xlink:href="#mf78db5a535" x="279.489378" y="197.832912" style="fill-opacity: 0.8; stroke: #000000; stroke-opacity: 0.8; stroke-width: 0.8"/>
     <use xlink:href="#mf78db5a535" x="296.576459" y="211.781112" style="fill-opacity: 0.8; stroke: #000000; stroke-opacity: 0.8; stroke-width: 0.8"/>
     <use xlink:href="#mf78db5a535" x="313.663541" y="223.643666" style="fill-opacity: 0.8; stroke: #000000; stroke-opacity: 0.8; stroke-width: 0.8"/>
     <use xlink:href="#mf78db5a535" x="330.750622" y="211.836139" style="fill-opacity: 0.8; stroke: #000000; stroke-opacity: 0.8; stroke-width: 0.8"/>
     <use xlink:href="#mf78db5a535" x="347.837703" y="204.21939" style="fill-opacity: 0.8; stroke: #000000; stroke-opacity: 0.8; stroke-width: 0.8"/>
     <use xlink:href="#mf78db5a535" x="364.924785" y="191.802837" style="fill-opacity: 0.8; stroke: #000000; stroke-opacity: 0.8; stroke-width: 0.8"/>
     <use xlink:href="#mf78db5a535" x="382.011866" y="197.298351" style="fill-opacity: 0.8; stroke: #000000; stroke-opacity: 0.8; stroke-width: 0.8"/>
     <use xlink:href="#mf78db5a535" x="399.098947" y="207.737301" style="fill-opacity: 0.8; stroke: #000000; stroke-opacity: 0.8; stroke-width: 0.8"/>
     <use xlink:href="#mf78db5a535" x="416.186029" y="209.884264" style="fill-opacity: 0.8; stroke: #000000; stroke-opacity: 0.8; stroke-width: 0.8"/>
     <use xlink:href="#mf78db5a535" x="433.27311" y="209.806023" style="fill-opacity: 0.8; stroke: #000000; stroke-opacity: 0.8; stroke-width: 0.8"/>
     <use xlink:href="#mf78db5a535" x="450.360191" y="204.8424" style="fill-opacity: 0.8; stroke: #000000; stroke-opacity: 0.8; stroke-width: 0.8"/>
     <use xlink:href="#mf78db5a535" x="467.447273" y="201.843338" style="fill-opacity: 0.8; stroke: #000000; stroke-opacity: 0.8; stroke-width: 0.8"/>
    </g>
   </g>
  </g>
 </g>
 <defs>
  <clipPath id="p762db32e01">
   <rect x="126.56" y="30.48" width="357.12" height="266.112"/>
  </clipPath>
 </defs>
</svg>