<?xml version="1.0" encoding="utf-8" standalone="no"?>
<!DOCTYPE svg PUBLIC "-//W3C//DTD SVG 1.1//EN"
  "http://www.w3.org/Graphics/SVG/1.1/DTD/svg11.dtd">
<svg xmlns:xlink="http://www.w3.org/1999/xlink" width="409.97125pt" height="309.639375pt" viewBox="0 0 409.97125 309.639375" xmlns="http://www.w3.org/2000/svg" version="1.1">
 <metadata>
  <rdf:RDF xmlns:dc="http://purl.org/dc/elements/1.1/" xmlns:cc="http://creativecommons.org/ns#" xmlns:rdf="http://www.w3.org/1999/02/22-rdf-syntax-ns#">
   <cc:Work>
    <dc:type rdf:resource="http://purl.org/dc/dcmitype/StillImage"/>
    <dc:date>2024-03-18T12:53:11.116149</dc:date>
    <dc:format>image/svg+xml</dc:format>
    <dc:creator>
     <cc:Agent>
      <dc:title>Matplotlib v3.8.0, https://matplotlib.org/</dc:title>
     </cc:Agent>
    </dc:creator>
   </cc:Work>
  </rdf:RDF>
 </metadata>
 <defs>
  <style type="text/css">*{stroke-linejoin: round; stroke-linecap: butt}</style>
 </defs>
 <g id="figure_1">
  <g id="patch_1">
   <path d="M 0 309.639375 
L 409.97125 309.639375 
L 409.97125 0 
L 0 0 
z
" style="fill: #ffffff"/>
  </g>
  <g id="axes_1">
   <g id="patch_2">
    <path d="M 45.65125 273.312 
L 402.77125 273.312 
L 402.77125 7.2 
L 45.65125 7.2 
z
" style="fill: #ffffff"/>
   </g>
   <g id="matplotlib.axis_1">
    <g id="xtick_1">
     <g id="line2d_1">
      <defs>
       <path id="m7c07e4dc54" d="M 0 0 
L 0 4.8 
" style="stroke: #262626"/>
      </defs>
      <g>
       <use xlink:href="#m7c07e4dc54" x="60.85486" y="273.312" style="fill: #262626; stroke: #262626"/>
      </g>
     </g>
     <g id="text_1">
      <!-- −1.00 -->
      <g style="fill: #262626" transform="translate(49.722172 287.910875) scale(0.088 -0.088)">
       <defs>
        <path id="ArialMT-2212" d="M 3381 1997 
L 356 1997 
L 356 2522 
L 3381 2522 
L 3381 1997 
z
" transform="scale(0.015625)"/>
        <path id="ArialMT-31" d="M 2384 0 
L 1822 0 
L 1822 3584 
Q 1619 3391 1289 3197 
Q 959 3003 697 2906 
L 697 3450 
Q 1169 3672 1522 3987 
Q 1875 4303 2022 4600 
L 2384 4600 
L 2384 0 
z
" transform="scale(0.015625)"/>
        <path id="ArialMT-2e" d="M 581 0 
L 581 641 
L 1222 641 
L 1222 0 
L 581 0 
z
" transform="scale(0.015625)"/>
        <path id="ArialMT-30" d="M 266 2259 
Q 266 3072 433 3567 
Q 600 4063 929 4331 
Q 1259 4600 1759 4600 
Q 2128 4600 2406 4451 
Q 2684 4303 2865 4023 
Q 3047 3744 3150 3342 
Q 3253 2941 3253 2259 
Q 3253 1453 3087 958 
Q 2922 463 2592 192 
Q 2263 -78 1759 -78 
Q 1097 -78 719 397 
Q 266 969 266 2259 
z
M 844 2259 
Q 844 1131 1108 757 
Q 1372 384 1759 384 
Q 2147 384 2411 759 
Q 2675 1134 2675 2259 
Q 2675 3391 2411 3762 
Q 2147 4134 1753 4134 
Q 1366 4134 1134 3806 
Q 844 3388 844 2259 
z
" transform="scale(0.015625)"/>
       </defs>
       <use xlink:href="#ArialMT-2212"/>
       <use xlink:href="#ArialMT-31" x="58.398438"/>
       <use xlink:href="#ArialMT-2e" x="114.013672"/>
       <use xlink:href="#ArialMT-30" x="141.796875"/>
       <use xlink:href="#ArialMT-30" x="197.412109"/>
      </g>
     </g>
    </g>
    <g id="xtick_2">
     <g id="line2d_2">
      <g>
       <use xlink:href="#m7c07e4dc54" x="101.752298" y="273.312" style="fill: #262626; stroke: #262626"/>
      </g>
     </g>
     <g id="text_2">
      <!-- −0.75 -->
      <g style="fill: #262626" transform="translate(90.61961 287.910875) scale(0.088 -0.088)">
       <defs>
        <path id="ArialMT-37" d="M 303 3981 
L 303 4522 
L 3269 4522 
L 3269 4084 
Q 2831 3619 2401 2847 
Q 1972 2075 1738 1259 
Q 1569 684 1522 0 
L 944 0 
Q 953 541 1156 1306 
Q 1359 2072 1739 2783 
Q 2119 3494 2547 3981 
L 303 3981 
z
" transform="scale(0.015625)"/>
        <path id="ArialMT-35" d="M 266 1200 
L 856 1250 
Q 922 819 1161 601 
Q 1400 384 1738 384 
Q 2144 384 2425 690 
Q 2706 997 2706 1503 
Q 2706 1984 2436 2262 
Q 2166 2541 1728 2541 
Q 1456 2541 1237 2417 
Q 1019 2294 894 2097 
L 366 2166 
L 809 4519 
L 3088 4519 
L 3088 3981 
L 1259 3981 
L 1013 2750 
Q 1425 3038 1878 3038 
Q 2478 3038 2890 2622 
Q 3303 2206 3303 1553 
Q 3303 931 2941 478 
Q 2500 -78 1738 -78 
Q 1113 -78 717 272 
Q 322 622 266 1200 
z
" transform="scale(0.015625)"/>
       </defs>
       <use xlink:href="#ArialMT-2212"/>
       <use xlink:href="#ArialMT-30" x="58.398438"/>
       <use xlink:href="#ArialMT-2e" x="114.013672"/>
       <use xlink:href="#ArialMT-37" x="141.796875"/>
       <use xlink:href="#ArialMT-35" x="197.412109"/>
      </g>
     </g>
    </g>
    <g id="xtick_3">
     <g id="line2d_3">
      <g>
       <use xlink:href="#m7c07e4dc54" x="142.649735" y="273.312" style="fill: #262626; stroke: #262626"/>
      </g>
     </g>
     <g id="text_3">
      <!-- −0.50 -->
      <g style="fill: #262626" transform="translate(131.517048 287.910875) scale(0.088 -0.088)">
       <use xlink:href="#ArialMT-2212"/>
       <use xlink:href="#ArialMT-30" x="58.398438"/>
       <use xlink:href="#ArialMT-2e" x="114.013672"/>
       <use xlink:href="#ArialMT-35" x="141.796875"/>
       <use xlink:href="#ArialMT-30" x="197.412109"/>
      </g>
     </g>
    </g>
    <g id="xtick_4">
     <g id="line2d_4">
      <g>
       <use xlink:href="#m7c07e4dc54" x="183.547173" y="273.312" style="fill: #262626; stroke: #262626"/>
      </g>
     </g>
     <g id="text_4">
      <!-- −0.25 -->
      <g style="fill: #262626" transform="translate(172.414486 287.910875) scale(0.088 -0.088)">
       <defs>
        <path id="ArialMT-32" d="M 3222 541 
L 3222 0 
L 194 0 
Q 188 203 259 391 
Q 375 700 629 1000 
Q 884 1300 1366 1694 
Q 2113 2306 2375 2664 
Q 2638 3022 2638 3341 
Q 2638 3675 2398 3904 
Q 2159 4134 1775 4134 
Q 1369 4134 1125 3890 
Q 881 3647 878 3216 
L 300 3275 
Q 359 3922 746 4261 
Q 1134 4600 1788 4600 
Q 2447 4600 2831 4234 
Q 3216 3869 3216 3328 
Q 3216 3053 3103 2787 
Q 2991 2522 2730 2228 
Q 2469 1934 1863 1422 
Q 1356 997 1212 845 
Q 1069 694 975 541 
L 3222 541 
z
" transform="scale(0.015625)"/>
       </defs>
       <use xlink:href="#ArialMT-2212"/>
       <use xlink:href="#ArialMT-30" x="58.398438"/>
       <use xlink:href="#ArialMT-2e" x="114.013672"/>
       <use xlink:href="#ArialMT-32" x="141.796875"/>
       <use xlink:href="#ArialMT-35" x="197.412109"/>
      </g>
     </g>
    </g>
    <g id="xtick_5">
     <g id="line2d_5">
      <g>
       <use xlink:href="#m7c07e4dc54" x="224.444611" y="273.312" style="fill: #262626; stroke: #262626"/>
      </g>
     </g>
     <g id="text_5">
      <!-- 0.00 -->
      <g style="fill: #262626" transform="translate(215.881798 287.910875) scale(0.088 -0.088)">
       <use xlink:href="#ArialMT-30"/>
       <use xlink:href="#ArialMT-2e" x="55.615234"/>
       <use xlink:href="#ArialMT-30" x="83.398438"/>
       <use xlink:href="#ArialMT-30" x="139.013672"/>
      </g>
     </g>
    </g>
    <g id="xtick_6">
     <g id="line2d_6">
      <g>
       <use xlink:href="#m7c07e4dc54" x="265.342049" y="273.312" style="fill: #262626; stroke: #262626"/>
      </g>
     </g>
     <g id="text_6">
      <!-- 0.25 -->
      <g style="fill: #262626" transform="translate(256.779236 287.910875) scale(0.088 -0.088)">
       <use xlink:href="#ArialMT-30"/>
       <use xlink:href="#ArialMT-2e" x="55.615234"/>
       <use xlink:href="#ArialMT-32" x="83.398438"/>
       <use xlink:href="#ArialMT-35" x="139.013672"/>
      </g>
     </g>
    </g>
    <g id="xtick_7">
     <g id="line2d_7">
      <g>
       <use xlink:href="#m7c07e4dc54" x="306.239486" y="273.312" style="fill: #262626; stroke: #262626"/>
      </g>
     </g>
     <g id="text_7">
      <!-- 0.50 -->
      <g style="fill: #262626" transform="translate(297.676674 287.910875) scale(0.088 -0.088)">
       <use xlink:href="#ArialMT-30"/>
       <use xlink:href="#ArialMT-2e" x="55.615234"/>
       <use xlink:href="#ArialMT-35" x="83.398438"/>
       <use xlink:href="#ArialMT-30" x="139.013672"/>
      </g>
     </g>
    </g>
    <g id="xtick_8">
     <g id="line2d_8">
      <g>
       <use xlink:href="#m7c07e4dc54" x="347.136924" y="273.312" style="fill: #262626; stroke: #262626"/>
      </g>
     </g>
     <g id="text_8">
      <!-- 0.75 -->
      <g style="fill: #262626" transform="translate(338.574112 287.910875) scale(0.088 -0.088)">
       <use xlink:href="#ArialMT-30"/>
       <use xlink:href="#ArialMT-2e" x="55.615234"/>
       <use xlink:href="#ArialMT-37" x="83.398438"/>
       <use xlink:href="#ArialMT-35" x="139.013672"/>
      </g>
     </g>
    </g>
    <g id="xtick_9">
     <g id="line2d_9">
      <g>
       <use xlink:href="#m7c07e4dc54" x="388.034362" y="273.312" style="fill: #262626; stroke: #262626"/>
      </g>
     </g>
     <g id="text_9">
      <!-- 1.00 -->
      <g style="fill: #262626" transform="translate(379.471549 287.910875) scale(0.088 -0.088)">
       <use xlink:href="#ArialMT-31"/>
       <use xlink:href="#ArialMT-2e" x="55.615234"/>
       <use xlink:href="#ArialMT-30" x="83.398438"/>
       <use xlink:href="#ArialMT-30" x="139.013672"/>
      </g>
     </g>
    </g>
    <g id="text_10">
     <!-- x -->
     <g style="fill: #262626" transform="translate(221.81125 300.531375) scale(0.096 -0.096)">
      <defs>
       <path id="ArialMT-78" d="M 47 0 
L 1259 1725 
L 138 3319 
L 841 3319 
L 1350 2541 
Q 1494 2319 1581 2169 
Q 1719 2375 1834 2534 
L 2394 3319 
L 3066 3319 
L 1919 1756 
L 3153 0 
L 2463 0 
L 1781 1031 
L 1600 1309 
L 728 0 
L 47 0 
z
" transform="scale(0.015625)"/>
      </defs>
      <use xlink:href="#ArialMT-78"/>
     </g>
    </g>
   </g>
   <g id="matplotlib.axis_2">
    <g id="ytick_1">
     <g id="line2d_10">
      <defs>
       <path id="m2052e64df1" d="M 0 0 
L -4.8 0 
" style="stroke: #262626"/>
      </defs>
      <g>
       <use xlink:href="#m2052e64df1" x="45.65125" y="240.77602" style="fill: #262626; stroke: #262626"/>
      </g>
     </g>
     <g id="text_11">
      <!-- −0.2 -->
      <g style="fill: #262626" transform="translate(19.9795 243.925457) scale(0.088 -0.088)">
       <use xlink:href="#ArialMT-2212"/>
       <use xlink:href="#ArialMT-30" x="58.398438"/>
       <use xlink:href="#ArialMT-2e" x="114.013672"/>
       <use xlink:href="#ArialMT-32" x="141.796875"/>
      </g>
     </g>
    </g>
    <g id="ytick_2">
     <g id="line2d_11">
      <g>
       <use xlink:href="#m2052e64df1" x="45.65125" y="200.201935" style="fill: #262626; stroke: #262626"/>
      </g>
     </g>
     <g id="text_12">
      <!-- 0.0 -->
      <g style="fill: #262626" transform="translate(25.11925 203.351372) scale(0.088 -0.088)">
       <use xlink:href="#ArialMT-30"/>
       <use xlink:href="#ArialMT-2e" x="55.615234"/>
       <use xlink:href="#ArialMT-30" x="83.398438"/>
      </g>
     </g>
    </g>
    <g id="ytick_3">
     <g id="line2d_12">
      <g>
       <use xlink:href="#m2052e64df1" x="45.65125" y="159.62785" style="fill: #262626; stroke: #262626"/>
      </g>
     </g>
     <g id="text_13">
      <!-- 0.2 -->
      <g style="fill: #262626" transform="translate(25.11925 162.777288) scale(0.088 -0.088)">
       <use xlink:href="#ArialMT-30"/>
       <use xlink:href="#ArialMT-2e" x="55.615234"/>
       <use xlink:href="#ArialMT-32" x="83.398438"/>
      </g>
     </g>
    </g>
    <g id="ytick_4">
     <g id="line2d_13">
      <g>
       <use xlink:href="#m2052e64df1" x="45.65125" y="119.053765" style="fill: #262626; stroke: #262626"/>
      </g>
     </g>
     <g id="text_14">
      <!-- 0.4 -->
      <g style="fill: #262626" transform="translate(25.11925 122.203203) scale(0.088 -0.088)">
       <defs>
        <path id="ArialMT-34" d="M 2069 0 
L 2069 1097 
L 81 1097 
L 81 1613 
L 2172 4581 
L 2631 4581 
L 2631 1613 
L 3250 1613 
L 3250 1097 
L 2631 1097 
L 2631 0 
L 2069 0 
z
M 2069 1613 
L 2069 3678 
L 634 1613 
L 2069 1613 
z
" transform="scale(0.015625)"/>
       </defs>
       <use xlink:href="#ArialMT-30"/>
       <use xlink:href="#ArialMT-2e" x="55.615234"/>
       <use xlink:href="#ArialMT-34" x="83.398438"/>
      </g>
     </g>
    </g>
    <g id="ytick_5">
     <g id="line2d_14">
      <g>
       <use xlink:href="#m2052e64df1" x="45.65125" y="78.47968" style="fill: #262626; stroke: #262626"/>
      </g>
     </g>
     <g id="text_15">
      <!-- 0.6 -->
      <g style="fill: #262626" transform="translate(25.11925 81.629118) scale(0.088 -0.088)">
       <defs>
        <path id="ArialMT-36" d="M 3184 3459 
L 2625 3416 
Q 2550 3747 2413 3897 
Q 2184 4138 1850 4138 
Q 1581 4138 1378 3988 
Q 1113 3794 959 3422 
Q 806 3050 800 2363 
Q 1003 2672 1297 2822 
Q 1591 2972 1913 2972 
Q 2475 2972 2870 2558 
Q 3266 2144 3266 1488 
Q 3266 1056 3080 686 
Q 2894 316 2569 119 
Q 2244 -78 1831 -78 
Q 1128 -78 684 439 
Q 241 956 241 2144 
Q 241 3472 731 4075 
Q 1159 4600 1884 4600 
Q 2425 4600 2770 4297 
Q 3116 3994 3184 3459 
z
M 888 1484 
Q 888 1194 1011 928 
Q 1134 663 1356 523 
Q 1578 384 1822 384 
Q 2178 384 2434 671 
Q 2691 959 2691 1453 
Q 2691 1928 2437 2201 
Q 2184 2475 1800 2475 
Q 1419 2475 1153 2201 
Q 888 1928 888 1484 
z
" transform="scale(0.015625)"/>
       </defs>
       <use xlink:href="#ArialMT-30"/>
       <use xlink:href="#ArialMT-2e" x="55.615234"/>
       <use xlink:href="#ArialMT-36" x="83.398438"/>
      </g>
     </g>
    </g>
    <g id="ytick_6">
     <g id="line2d_15">
      <g>
       <use xlink:href="#m2052e64df1" x="45.65125" y="37.905595" style="fill: #262626; stroke: #262626"/>
      </g>
     </g>
     <g id="text_16">
      <!-- 0.8 -->
      <g style="fill: #262626" transform="translate(25.11925 41.055033) scale(0.088 -0.088)">
       <defs>
        <path id="ArialMT-38" d="M 1131 2484 
Q 781 2613 612 2850 
Q 444 3088 444 3419 
Q 444 3919 803 4259 
Q 1163 4600 1759 4600 
Q 2359 4600 2725 4251 
Q 3091 3903 3091 3403 
Q 3091 3084 2923 2848 
Q 2756 2613 2416 2484 
Q 2838 2347 3058 2040 
Q 3278 1734 3278 1309 
Q 3278 722 2862 322 
Q 2447 -78 1769 -78 
Q 1091 -78 675 323 
Q 259 725 259 1325 
Q 259 1772 486 2073 
Q 713 2375 1131 2484 
z
M 1019 3438 
Q 1019 3113 1228 2906 
Q 1438 2700 1772 2700 
Q 2097 2700 2305 2904 
Q 2513 3109 2513 3406 
Q 2513 3716 2298 3927 
Q 2084 4138 1766 4138 
Q 1444 4138 1231 3931 
Q 1019 3725 1019 3438 
z
M 838 1322 
Q 838 1081 952 856 
Q 1066 631 1291 507 
Q 1516 384 1775 384 
Q 2178 384 2440 643 
Q 2703 903 2703 1303 
Q 2703 1709 2433 1975 
Q 2163 2241 1756 2241 
Q 1359 2241 1098 1978 
Q 838 1716 838 1322 
z
" transform="scale(0.015625)"/>
       </defs>
       <use xlink:href="#ArialMT-30"/>
       <use xlink:href="#ArialMT-2e" x="55.615234"/>
       <use xlink:href="#ArialMT-38" x="83.398438"/>
      </g>
     </g>
    </g>
    <g id="text_17">
     <!-- y -->
     <g style="fill: #262626" transform="translate(13.959 142.656) rotate(-90) scale(0.096 -0.096)">
      <defs>
       <path id="ArialMT-79" d="M 397 -1278 
L 334 -750 
Q 519 -800 656 -800 
Q 844 -800 956 -737 
Q 1069 -675 1141 -563 
Q 1194 -478 1313 -144 
Q 1328 -97 1363 -6 
L 103 3319 
L 709 3319 
L 1400 1397 
Q 1534 1031 1641 628 
Q 1738 1016 1872 1384 
L 2581 3319 
L 3144 3319 
L 1881 -56 
Q 1678 -603 1566 -809 
Q 1416 -1088 1222 -1217 
Q 1028 -1347 759 -1347 
Q 597 -1347 397 -1278 
z
" transform="scale(0.015625)"/>
      </defs>
      <use xlink:href="#ArialMT-79"/>
     </g>
    </g>
   </g>
   <g id="line2d_16">
    <defs>
     <path id="m149c7e007a" d="M 0 1.2 
C 0.318244 1.2 0.623496 1.07356 0.848528 0.848528 
C 1.07356 0.623496 1.2 0.318244 1.2 0 
C 1.2 -0.318244 1.07356 -0.623496 0.848528 -0.848528 
C 0.623496 -1.07356 0.318244 -1.2 0 -1.2 
C -0.318244 -1.2 -0.623496 -1.07356 -0.848528 -0.848528 
C -1.07356 -0.623496 -1.2 -0.318244 -1.2 0 
C -1.2 0.318244 -1.07356 0.623496 -0.848528 0.848528 
C -0.623496 1.07356 -0.318244 1.2 0 1.2 
z
" style="stroke: #000000"/>
    </defs>
    <g clip-path="url(#p8fc7a7123f)">
     <use xlink:href="#m149c7e007a" x="276.58969" y="182.849759" style="stroke: #000000"/>
     <use xlink:href="#m149c7e007a" x="273.513684" y="182.215936" style="stroke: #000000"/>
     <use xlink:href="#m149c7e007a" x="186.586004" y="204.109157" style="stroke: #000000"/>
     <use xlink:href="#m149c7e007a" x="315.957259" y="146.262105" style="stroke: #000000"/>
     <use xlink:href="#m149c7e007a" x="149.266673" y="210.497669" style="stroke: #000000"/>
     <use xlink:href="#m149c7e007a" x="208.545644" y="199.503427" style="stroke: #000000"/>
     <use xlink:href="#m149c7e007a" x="161.424574" y="211.676664" style="stroke: #000000"/>
     <use xlink:href="#m149c7e007a" x="331.308561" y="125.904523" style="stroke: #000000"/>
     <use xlink:href="#m149c7e007a" x="93.204432" y="235.871469" style="stroke: #000000"/>
     <use xlink:href="#m149c7e007a" x="229.943471" y="198.845946" style="stroke: #000000"/>
     <use xlink:href="#m149c7e007a" x="303.435102" y="158.753374" style="stroke: #000000"/>
     <use xlink:href="#m149c7e007a" x="227.913826" y="199.542777" style="stroke: #000000"/>
     <use xlink:href="#m149c7e007a" x="362.580925" y="74.006825" style="stroke: #000000"/>
     <use xlink:href="#m149c7e007a" x="116.42303" y="223.59425" style="stroke: #000000"/>
     <use xlink:href="#m149c7e007a" x="385.971009" y="22.271352" style="stroke: #000000"/>
     <use xlink:href="#m149c7e007a" x="198.231576" y="204.464073" style="stroke: #000000"/>
     <use xlink:href="#m149c7e007a" x="146.83735" y="216.721924" style="stroke: #000000"/>
     <use xlink:href="#m149c7e007a" x="197.698962" y="204.090787" style="stroke: #000000"/>
     <use xlink:href="#m149c7e007a" x="111.224968" y="226.747156" style="stroke: #000000"/>
     <use xlink:href="#m149c7e007a" x="254.574145" y="188.498523" style="stroke: #000000"/>
     <use xlink:href="#m149c7e007a" x="306.903813" y="155.031857" style="stroke: #000000"/>
     <use xlink:href="#m149c7e007a" x="186.187177" y="210.141268" style="stroke: #000000"/>
     <use xlink:href="#m149c7e007a" x="296.970027" y="160.52285" style="stroke: #000000"/>
     <use xlink:href="#m149c7e007a" x="325.687948" y="132.098249" style="stroke: #000000"/>
     <use xlink:href="#m149c7e007a" x="237.12322" y="199.035993" style="stroke: #000000"/>
     <use xlink:href="#m149c7e007a" x="209.316614" y="203.699734" style="stroke: #000000"/>
     <use xlink:href="#m149c7e007a" x="61.883977" y="257.795791" style="stroke: #000000"/>
     <use xlink:href="#m149c7e007a" x="122.935539" y="221.026573" style="stroke: #000000"/>
     <use xlink:href="#m149c7e007a" x="148.856105" y="213.776902" style="stroke: #000000"/>
     <use xlink:href="#m149c7e007a" x="237.482971" y="194.624638" style="stroke: #000000"/>
     <use xlink:href="#m149c7e007a" x="101.416969" y="233.347046" style="stroke: #000000"/>
     <use xlink:href="#m149c7e007a" x="187.547314" y="205.137175" style="stroke: #000000"/>
     <use xlink:href="#m149c7e007a" x="386.538523" y="19.296" style="stroke: #000000"/>
     <use xlink:href="#m149c7e007a" x="257.540566" y="192.807629" style="stroke: #000000"/>
     <use xlink:href="#m149c7e007a" x="136.77823" y="216.724696" style="stroke: #000000"/>
     <use xlink:href="#m149c7e007a" x="85.290502" y="244.4377" style="stroke: #000000"/>
     <use xlink:href="#m149c7e007a" x="274.956532" y="179.360406" style="stroke: #000000"/>
     <use xlink:href="#m149c7e007a" x="275.494759" y="181.231491" style="stroke: #000000"/>
     <use xlink:href="#m149c7e007a" x="361.820208" y="78.246468" style="stroke: #000000"/>
     <use xlink:href="#m149c7e007a" x="90.265119" y="236.873918" style="stroke: #000000"/>
     <use xlink:href="#m149c7e007a" x="279.491981" y="176.72712" style="stroke: #000000"/>
     <use xlink:href="#m149c7e007a" x="62.867539" y="261.216" style="stroke: #000000"/>
     <use xlink:href="#m149c7e007a" x="333.183248" y="119.372757" style="stroke: #000000"/>
     <use xlink:href="#m149c7e007a" x="274.220414" y="179.425992" style="stroke: #000000"/>
     <use xlink:href="#m149c7e007a" x="316.242969" y="144.762818" style="stroke: #000000"/>
     <use xlink:href="#m149c7e007a" x="181.329741" y="210.068638" style="stroke: #000000"/>
     <use xlink:href="#m149c7e007a" x="292.217518" y="167.383019" style="stroke: #000000"/>
     <use xlink:href="#m149c7e007a" x="205.035163" y="206.349725" style="stroke: #000000"/>
     <use xlink:href="#m149c7e007a" x="204.401803" y="203.398062" style="stroke: #000000"/>
     <use xlink:href="#m149c7e007a" x="307.068422" y="154.561164" style="stroke: #000000"/>
     <use xlink:href="#m149c7e007a" x="366.094592" y="70.157149" style="stroke: #000000"/>
     <use xlink:href="#m149c7e007a" x="74.056435" y="250.065934" style="stroke: #000000"/>
     <use xlink:href="#m149c7e007a" x="130.923485" y="215.322067" style="stroke: #000000"/>
     <use xlink:href="#m149c7e007a" x="305.793548" y="152.550648" style="stroke: #000000"/>
     <use xlink:href="#m149c7e007a" x="240.037361" y="194.815572" style="stroke: #000000"/>
     <use xlink:href="#m149c7e007a" x="147.804209" y="216.604298" style="stroke: #000000"/>
     <use xlink:href="#m149c7e007a" x="236.435855" y="197.450221" style="stroke: #000000"/>
     <use xlink:href="#m149c7e007a" x="113.302255" y="223.061608" style="stroke: #000000"/>
     <use xlink:href="#m149c7e007a" x="214.212642" y="200.755609" style="stroke: #000000"/>
     <use xlink:href="#m149c7e007a" x="69.116193" y="255.51339" style="stroke: #000000"/>
     <use xlink:href="#m149c7e007a" x="321.283994" y="136.332035" style="stroke: #000000"/>
     <use xlink:href="#m149c7e007a" x="350.054594" y="94.388655" style="stroke: #000000"/>
     <use xlink:href="#m149c7e007a" x="227.103648" y="196.572749" style="stroke: #000000"/>
     <use xlink:href="#m149c7e007a" x="259.904438" y="185.735729" style="stroke: #000000"/>
     <use xlink:href="#m149c7e007a" x="69.498726" y="250.000123" style="stroke: #000000"/>
     <use xlink:href="#m149c7e007a" x="380.375489" y="33.94397" style="stroke: #000000"/>
     <use xlink:href="#m149c7e007a" x="74.741429" y="247.163263" style="stroke: #000000"/>
     <use xlink:href="#m149c7e007a" x="81.77176" y="243.160877" style="stroke: #000000"/>
     <use xlink:href="#m149c7e007a" x="85.697741" y="237.015435" style="stroke: #000000"/>
     <use xlink:href="#m149c7e007a" x="218.059939" y="202.959011" style="stroke: #000000"/>
     <use xlink:href="#m149c7e007a" x="173.488667" y="208.320096" style="stroke: #000000"/>
     <use xlink:href="#m149c7e007a" x="107.931929" y="229.7277" style="stroke: #000000"/>
     <use xlink:href="#m149c7e007a" x="296.236026" y="161.319507" style="stroke: #000000"/>
     <use xlink:href="#m149c7e007a" x="156.959552" y="211.585281" style="stroke: #000000"/>
     <use xlink:href="#m149c7e007a" x="364.175699" y="70.069707" style="stroke: #000000"/>
     <use xlink:href="#m149c7e007a" x="172.895487" y="212.237915" style="stroke: #000000"/>
     <use xlink:href="#m149c7e007a" x="303.161138" y="158.625873" style="stroke: #000000"/>
     <use xlink:href="#m149c7e007a" x="66.164442" y="253.850478" style="stroke: #000000"/>
     <use xlink:href="#m149c7e007a" x="116.929448" y="228.157967" style="stroke: #000000"/>
     <use xlink:href="#m149c7e007a" x="347.722094" y="100.773052" style="stroke: #000000"/>
     <use xlink:href="#m149c7e007a" x="274.936002" y="181.461494" style="stroke: #000000"/>
     <use xlink:href="#m149c7e007a" x="276.21864" y="179.52251" style="stroke: #000000"/>
     <use xlink:href="#m149c7e007a" x="113.084291" y="225.266826" style="stroke: #000000"/>
     <use xlink:href="#m149c7e007a" x="326.782491" y="132.663322" style="stroke: #000000"/>
     <use xlink:href="#m149c7e007a" x="320.968799" y="141.602927" style="stroke: #000000"/>
     <use xlink:href="#m149c7e007a" x="317.477545" y="141.358734" style="stroke: #000000"/>
     <use xlink:href="#m149c7e007a" x="201.26644" y="203.283126" style="stroke: #000000"/>
     <use xlink:href="#m149c7e007a" x="133.940045" y="220.373742" style="stroke: #000000"/>
     <use xlink:href="#m149c7e007a" x="154.890473" y="209.344514" style="stroke: #000000"/>
     <use xlink:href="#m149c7e007a" x="224.506662" y="200.097041" style="stroke: #000000"/>
     <use xlink:href="#m149c7e007a" x="246.061823" y="190.307127" style="stroke: #000000"/>
     <use xlink:href="#m149c7e007a" x="195.28643" y="204.6511" style="stroke: #000000"/>
     <use xlink:href="#m149c7e007a" x="308.224805" y="153.520311" style="stroke: #000000"/>
     <use xlink:href="#m149c7e007a" x="354.401921" y="92.040798" style="stroke: #000000"/>
     <use xlink:href="#m149c7e007a" x="318.842161" y="143.921841" style="stroke: #000000"/>
     <use xlink:href="#m149c7e007a" x="347.727854" y="102.716014" style="stroke: #000000"/>
     <use xlink:href="#m149c7e007a" x="287.361983" y="174.232953" style="stroke: #000000"/>
     <use xlink:href="#m149c7e007a" x="345.744884" y="102.556061" style="stroke: #000000"/>
     <use xlink:href="#m149c7e007a" x="173.989942" y="209.318139" style="stroke: #000000"/>
     <use xlink:href="#m149c7e007a" x="189.936736" y="205.582607" style="stroke: #000000"/>
    </g>
   </g>
   <g id="patch_3">
    <path d="M 45.65125 273.312 
L 45.65125 7.2 
" style="fill: none; stroke: #262626; stroke-linejoin: miter; stroke-linecap: square"/>
   </g>
   <g id="patch_4">
    <path d="M 45.65125 273.312 
L 402.77125 273.312 
" style="fill: none; stroke: #262626; stroke-linejoin: miter; stroke-linecap: square"/>
   </g>
  </g>
 </g>
 <defs>
  <clipPath id="p8fc7a7123f">
   <rect x="45.65125" y="7.2" width="357.12" height="266.112"/>
  </clipPath>
 </defs>
</svg>