<?xml version="1.0" encoding="utf-8" standalone="no"?>
<!DOCTYPE svg PUBLIC "-//W3C//DTD SVG 1.1//EN"
  "http://www.w3.org/Graphics/SVG/1.1/DTD/svg11.dtd">
<svg xmlns:xlink="http://www.w3.org/1999/xlink" width="212.912875pt" height="167.278875pt" viewBox="0 0 212.912875 167.278875" xmlns="http://www.w3.org/2000/svg" version="1.1">
 <metadata>
  <rdf:RDF xmlns:dc="http://purl.org/dc/elements/1.1/" xmlns:cc="http://creativecommons.org/ns#" xmlns:rdf="http://www.w3.org/1999/02/22-rdf-syntax-ns#">
   <cc:Work>
    <dc:type rdf:resource="http://purl.org/dc/dcmitype/StillImage"/>
    <dc:date>2025-02-27T12:25:13.111746</dc:date>
    <dc:format>image/svg+xml</dc:format>
    <dc:creator>
     <cc:Agent>
      <dc:title>Matplotlib v3.9.2, https://matplotlib.org/</dc:title>
     </cc:Agent>
    </dc:creator>
   </cc:Work>
  </rdf:RDF>
 </metadata>
 <defs>
  <style type="text/css">*{stroke-linejoin: round; stroke-linecap: butt}</style>
 </defs>
 <g id="figure_1">
  <g id="patch_1">
   <path d="M 0 167.278875 
L 212.912875 167.278875 
L 212.912875 0 
L 0 0 
z
" style="fill: #ffffff"/>
  </g>
  <g id="axes_1">
   <g id="patch_2">
    <path d="M 38.312875 130.9515 
L 205.712875 130.9515 
L 205.712875 20.0715 
L 38.312875 20.0715 
z
" style="fill: #ffffff"/>
   </g>
   <g id="matplotlib.axis_1">
    <g id="xtick_1">
     <g id="line2d_1">
      <defs>
       <path id="m8df11e0911" d="M 0 0 
L 0 4.8 
" style="stroke: #262626"/>
      </defs>
      <g>
       <use xlink:href="#m8df11e0911" x="45.921966" y="130.9515" style="fill: #262626; stroke: #262626"/>
      </g>
     </g>
     <g id="text_1">
      <!-- 0.0 -->
      <g style="fill: #262626" transform="translate(39.805966 145.550375) scale(0.088 -0.088)">
       <defs>
        <path id="ArialMT-30" d="M 266 2259 
Q 266 3072 433 3567 
Q 600 4063 929 4331 
Q 1259 4600 1759 4600 
Q 2128 4600 2406 4451 
Q 2684 4303 2865 4023 
Q 3047 3744 3150 3342 
Q 3253 2941 3253 2259 
Q 3253 1453 3087 958 
Q 2922 463 2592 192 
Q 2263 -78 1759 -78 
Q 1097 -78 719 397 
Q 266 969 266 2259 
z
M 844 2259 
Q 844 1131 1108 757 
Q 1372 384 1759 384 
Q 2147 384 2411 759 
Q 2675 1134 2675 2259 
Q 2675 3391 2411 3762 
Q 2147 4134 1753 4134 
Q 1366 4134 1134 3806 
Q 844 3388 844 2259 
z
" transform="scale(0.015625)"/>
        <path id="ArialMT-2e" d="M 581 0 
L 581 641 
L 1222 641 
L 1222 0 
L 581 0 
z
" transform="scale(0.015625)"/>
       </defs>
       <use xlink:href="#ArialMT-30"/>
       <use xlink:href="#ArialMT-2e" x="55.615234"/>
       <use xlink:href="#ArialMT-30" x="83.398438"/>
      </g>
     </g>
    </g>
    <g id="xtick_2">
     <g id="line2d_2">
      <g>
       <use xlink:href="#m8df11e0911" x="76.35833" y="130.9515" style="fill: #262626; stroke: #262626"/>
      </g>
     </g>
     <g id="text_2">
      <!-- 0.2 -->
      <g style="fill: #262626" transform="translate(70.24233 145.550375) scale(0.088 -0.088)">
       <defs>
        <path id="ArialMT-32" d="M 3222 541 
L 3222 0 
L 194 0 
Q 188 203 259 391 
Q 375 700 629 1000 
Q 884 1300 1366 1694 
Q 2113 2306 2375 2664 
Q 2638 3022 2638 3341 
Q 2638 3675 2398 3904 
Q 2159 4134 1775 4134 
Q 1369 4134 1125 3890 
Q 881 3647 878 3216 
L 300 3275 
Q 359 3922 746 4261 
Q 1134 4600 1788 4600 
Q 2447 4600 2831 4234 
Q 3216 3869 3216 3328 
Q 3216 3053 3103 2787 
Q 2991 2522 2730 2228 
Q 2469 1934 1863 1422 
Q 1356 997 1212 845 
Q 1069 694 975 541 
L 3222 541 
z
" transform="scale(0.015625)"/>
       </defs>
       <use xlink:href="#ArialMT-30"/>
       <use xlink:href="#ArialMT-2e" x="55.615234"/>
       <use xlink:href="#ArialMT-32" x="83.398438"/>
      </g>
     </g>
    </g>
    <g id="xtick_3">
     <g id="line2d_3">
      <g>
       <use xlink:href="#m8df11e0911" x="106.794693" y="130.9515" style="fill: #262626; stroke: #262626"/>
      </g>
     </g>
     <g id="text_3">
      <!-- 0.4 -->
      <g style="fill: #262626" transform="translate(100.678693 145.550375) scale(0.088 -0.088)">
       <defs>
        <path id="ArialMT-34" d="M 2069 0 
L 2069 1097 
L 81 1097 
L 81 1613 
L 2172 4581 
L 2631 4581 
L 2631 1613 
L 3250 1613 
L 3250 1097 
L 2631 1097 
L 2631 0 
L 2069 0 
z
M 2069 1613 
L 2069 3678 
L 634 1613 
L 2069 1613 
z
" transform="scale(0.015625)"/>
       </defs>
       <use xlink:href="#ArialMT-30"/>
       <use xlink:href="#ArialMT-2e" x="55.615234"/>
       <use xlink:href="#ArialMT-34" x="83.398438"/>
      </g>
     </g>
    </g>
    <g id="xtick_4">
     <g id="line2d_4">
      <g>
       <use xlink:href="#m8df11e0911" x="137.231057" y="130.9515" style="fill: #262626; stroke: #262626"/>
      </g>
     </g>
     <g id="text_4">
      <!-- 0.6 -->
      <g style="fill: #262626" transform="translate(131.115057 145.550375) scale(0.088 -0.088)">
       <defs>
        <path id="ArialMT-36" d="M 3184 3459 
L 2625 3416 
Q 2550 3747 2413 3897 
Q 2184 4138 1850 4138 
Q 1581 4138 1378 3988 
Q 1113 3794 959 3422 
Q 806 3050 800 2363 
Q 1003 2672 1297 2822 
Q 1591 2972 1913 2972 
Q 2475 2972 2870 2558 
Q 3266 2144 3266 1488 
Q 3266 1056 3080 686 
Q 2894 316 2569 119 
Q 2244 -78 1831 -78 
Q 1128 -78 684 439 
Q 241 956 241 2144 
Q 241 3472 731 4075 
Q 1159 4600 1884 4600 
Q 2425 4600 2770 4297 
Q 3116 3994 3184 3459 
z
M 888 1484 
Q 888 1194 1011 928 
Q 1134 663 1356 523 
Q 1578 384 1822 384 
Q 2178 384 2434 671 
Q 2691 959 2691 1453 
Q 2691 1928 2437 2201 
Q 2184 2475 1800 2475 
Q 1419 2475 1153 2201 
Q 888 1928 888 1484 
z
" transform="scale(0.015625)"/>
       </defs>
       <use xlink:href="#ArialMT-30"/>
       <use xlink:href="#ArialMT-2e" x="55.615234"/>
       <use xlink:href="#ArialMT-36" x="83.398438"/>
      </g>
     </g>
    </g>
    <g id="xtick_5">
     <g id="line2d_5">
      <g>
       <use xlink:href="#m8df11e0911" x="167.66742" y="130.9515" style="fill: #262626; stroke: #262626"/>
      </g>
     </g>
     <g id="text_5">
      <!-- 0.8 -->
      <g style="fill: #262626" transform="translate(161.55142 145.550375) scale(0.088 -0.088)">
       <defs>
        <path id="ArialMT-38" d="M 1131 2484 
Q 781 2613 612 2850 
Q 444 3088 444 3419 
Q 444 3919 803 4259 
Q 1163 4600 1759 4600 
Q 2359 4600 2725 4251 
Q 3091 3903 3091 3403 
Q 3091 3084 2923 2848 
Q 2756 2613 2416 2484 
Q 2838 2347 3058 2040 
Q 3278 1734 3278 1309 
Q 3278 722 2862 322 
Q 2447 -78 1769 -78 
Q 1091 -78 675 323 
Q 259 725 259 1325 
Q 259 1772 486 2073 
Q 713 2375 1131 2484 
z
M 1019 3438 
Q 1019 3113 1228 2906 
Q 1438 2700 1772 2700 
Q 2097 2700 2305 2904 
Q 2513 3109 2513 3406 
Q 2513 3716 2298 3927 
Q 2084 4138 1766 4138 
Q 1444 4138 1231 3931 
Q 1019 3725 1019 3438 
z
M 838 1322 
Q 838 1081 952 856 
Q 1066 631 1291 507 
Q 1516 384 1775 384 
Q 2178 384 2440 643 
Q 2703 903 2703 1303 
Q 2703 1709 2433 1975 
Q 2163 2241 1756 2241 
Q 1359 2241 1098 1978 
Q 838 1716 838 1322 
z
" transform="scale(0.015625)"/>
       </defs>
       <use xlink:href="#ArialMT-30"/>
       <use xlink:href="#ArialMT-2e" x="55.615234"/>
       <use xlink:href="#ArialMT-38" x="83.398438"/>
      </g>
     </g>
    </g>
    <g id="xtick_6">
     <g id="line2d_6">
      <g>
       <use xlink:href="#m8df11e0911" x="198.103784" y="130.9515" style="fill: #262626; stroke: #262626"/>
      </g>
     </g>
     <g id="text_6">
      <!-- 1.0 -->
      <g style="fill: #262626" transform="translate(191.987784 145.550375) scale(0.088 -0.088)">
       <defs>
        <path id="ArialMT-31" d="M 2384 0 
L 1822 0 
L 1822 3584 
Q 1619 3391 1289 3197 
Q 959 3003 697 2906 
L 697 3450 
Q 1169 3672 1522 3987 
Q 1875 4303 2022 4600 
L 2384 4600 
L 2384 0 
z
" transform="scale(0.015625)"/>
       </defs>
       <use xlink:href="#ArialMT-31"/>
       <use xlink:href="#ArialMT-2e" x="55.615234"/>
       <use xlink:href="#ArialMT-30" x="83.398438"/>
      </g>
     </g>
    </g>
    <g id="text_7">
     <!-- $x$ -->
     <g style="fill: #262626" transform="translate(119.132875 158.170875) scale(0.096 -0.096)">
      <defs>
       <path id="DejaVuSans-Oblique-78" d="M 3841 3500 
L 2234 1784 
L 3219 0 
L 2559 0 
L 1819 1388 
L 531 0 
L -166 0 
L 1556 1844 
L 641 3500 
L 1300 3500 
L 1972 2234 
L 3144 3500 
L 3841 3500 
z
" transform="scale(0.015625)"/>
      </defs>
      <use xlink:href="#DejaVuSans-Oblique-78" transform="translate(0 0.3125)"/>
     </g>
    </g>
   </g>
   <g id="matplotlib.axis_2">
    <g id="ytick_1">
     <g id="line2d_7">
      <defs>
       <path id="m0fdc96f021" d="M 0 0 
L -4.8 0 
" style="stroke: #262626"/>
      </defs>
      <g>
       <use xlink:href="#m0fdc96f021" x="38.312875" y="130.9515" style="fill: #262626; stroke: #262626"/>
      </g>
     </g>
     <g id="text_8">
      <!-- −2 -->
      <g style="fill: #262626" transform="translate(19.9795 134.100937) scale(0.088 -0.088)">
       <defs>
        <path id="ArialMT-2212" d="M 3381 1997 
L 356 1997 
L 356 2522 
L 3381 2522 
L 3381 1997 
z
" transform="scale(0.015625)"/>
       </defs>
       <use xlink:href="#ArialMT-2212"/>
       <use xlink:href="#ArialMT-32" x="58.398438"/>
      </g>
     </g>
    </g>
    <g id="ytick_2">
     <g id="line2d_8">
      <g>
       <use xlink:href="#m0fdc96f021" x="38.312875" y="112.4715" style="fill: #262626; stroke: #262626"/>
      </g>
     </g>
     <g id="text_9">
      <!-- −1 -->
      <g style="fill: #262626" transform="translate(19.9795 115.620937) scale(0.088 -0.088)">
       <use xlink:href="#ArialMT-2212"/>
       <use xlink:href="#ArialMT-31" x="58.398438"/>
      </g>
     </g>
    </g>
    <g id="ytick_3">
     <g id="line2d_9">
      <g>
       <use xlink:href="#m0fdc96f021" x="38.312875" y="93.9915" style="fill: #262626; stroke: #262626"/>
      </g>
     </g>
     <g id="text_10">
      <!-- 0 -->
      <g style="fill: #262626" transform="translate(25.11925 97.140938) scale(0.088 -0.088)">
       <use xlink:href="#ArialMT-30"/>
      </g>
     </g>
    </g>
    <g id="ytick_4">
     <g id="line2d_10">
      <g>
       <use xlink:href="#m0fdc96f021" x="38.312875" y="75.5115" style="fill: #262626; stroke: #262626"/>
      </g>
     </g>
     <g id="text_11">
      <!-- 1 -->
      <g style="fill: #262626" transform="translate(25.11925 78.660938) scale(0.088 -0.088)">
       <use xlink:href="#ArialMT-31"/>
      </g>
     </g>
    </g>
    <g id="ytick_5">
     <g id="line2d_11">
      <g>
       <use xlink:href="#m0fdc96f021" x="38.312875" y="57.0315" style="fill: #262626; stroke: #262626"/>
      </g>
     </g>
     <g id="text_12">
      <!-- 2 -->
      <g style="fill: #262626" transform="translate(25.11925 60.180937) scale(0.088 -0.088)">
       <use xlink:href="#ArialMT-32"/>
      </g>
     </g>
    </g>
    <g id="ytick_6">
     <g id="line2d_12">
      <g>
       <use xlink:href="#m0fdc96f021" x="38.312875" y="38.5515" style="fill: #262626; stroke: #262626"/>
      </g>
     </g>
     <g id="text_13">
      <!-- 3 -->
      <g style="fill: #262626" transform="translate(25.11925 41.700938) scale(0.088 -0.088)">
       <defs>
        <path id="ArialMT-33" d="M 269 1209 
L 831 1284 
Q 928 806 1161 595 
Q 1394 384 1728 384 
Q 2125 384 2398 659 
Q 2672 934 2672 1341 
Q 2672 1728 2419 1979 
Q 2166 2231 1775 2231 
Q 1616 2231 1378 2169 
L 1441 2663 
Q 1497 2656 1531 2656 
Q 1891 2656 2178 2843 
Q 2466 3031 2466 3422 
Q 2466 3731 2256 3934 
Q 2047 4138 1716 4138 
Q 1388 4138 1169 3931 
Q 950 3725 888 3313 
L 325 3413 
Q 428 3978 793 4289 
Q 1159 4600 1703 4600 
Q 2078 4600 2393 4439 
Q 2709 4278 2876 4000 
Q 3044 3722 3044 3409 
Q 3044 3113 2884 2869 
Q 2725 2625 2413 2481 
Q 2819 2388 3044 2092 
Q 3269 1797 3269 1353 
Q 3269 753 2831 336 
Q 2394 -81 1725 -81 
Q 1122 -81 723 278 
Q 325 638 269 1209 
z
" transform="scale(0.015625)"/>
       </defs>
       <use xlink:href="#ArialMT-33"/>
      </g>
     </g>
    </g>
    <g id="ytick_7">
     <g id="line2d_13">
      <g>
       <use xlink:href="#m0fdc96f021" x="38.312875" y="20.0715" style="fill: #262626; stroke: #262626"/>
      </g>
     </g>
     <g id="text_14">
      <!-- 4 -->
      <g style="fill: #262626" transform="translate(25.11925 23.220937) scale(0.088 -0.088)">
       <use xlink:href="#ArialMT-34"/>
      </g>
     </g>
    </g>
    <g id="text_15">
     <!-- $y$ -->
     <g style="fill: #262626" transform="translate(13.9635 78.3915) rotate(-90) scale(0.096 -0.096)">
      <defs>
       <path id="DejaVuSans-Oblique-79" d="M 1588 -325 
Q 1188 -997 936 -1164 
Q 684 -1331 294 -1331 
L -159 -1331 
L -63 -850 
L 269 -850 
Q 509 -850 678 -719 
Q 847 -588 1056 -206 
L 1234 128 
L 459 3500 
L 1069 3500 
L 1650 819 
L 3256 3500 
L 3859 3500 
L 1588 -325 
z
" transform="scale(0.015625)"/>
      </defs>
      <use xlink:href="#DejaVuSans-Oblique-79" transform="translate(0 0.3125)"/>
     </g>
    </g>
   </g>
   <g id="PolyCollection_1">
    <defs>
     <path id="m8a7b7936d0" d="M 45.921966 -77.118336 
L 45.921966 -69.733387 
L 47.459156 -67.999495 
L 48.996346 -64.519685 
L 50.533536 -60.886979 
L 52.070726 -57.397515 
L 53.607916 -54.155796 
L 55.145106 -51.223286 
L 56.682296 -48.645768 
L 58.219487 -46.46038 
L 59.756677 -44.697726 
L 61.293867 -43.382485 
L 62.831057 -42.533524 
L 64.368247 -42.16383 
L 65.905437 -42.280425 
L 67.442627 -42.884295 
L 68.979817 -43.970381 
L 70.517007 -45.52763 
L 72.054197 -47.539113 
L 73.591387 -49.982216 
L 75.128577 -52.828873 
L 76.665768 -56.045855 
L 78.202958 -59.595055 
L 79.740148 -63.433718 
L 81.277338 -67.51447 
L 82.814528 -71.78476 
L 84.351718 -76.184686 
L 85.888908 -80.639442 
L 87.426098 -85.029516 
L 88.963288 -89.026245 
L 90.500478 -90.920129 
L 92.037668 -88.176993 
L 93.574858 -83.680203 
L 95.112049 -78.78696 
L 96.649239 -73.76675 
L 98.186429 -68.725482 
L 99.723619 -63.732022 
L 101.260809 -58.842717 
L 102.797999 -54.108003 
L 104.335189 -49.574528 
L 105.872379 -45.285864 
L 107.409569 -41.282701 
L 108.946759 -37.602835 
L 110.483949 -34.281057 
L 112.021139 -31.348997 
L 113.55833 -28.834932 
L 115.09552 -26.763563 
L 116.63271 -25.155767 
L 118.1699 -24.028318 
L 119.70709 -23.393577 
L 121.24428 -23.259169 
L 122.78147 -23.627638 
L 124.31866 -24.496104 
L 125.85585 -25.855932 
L 127.39304 -27.692427 
L 128.93023 -29.984559 
L 130.46742 -32.704741 
L 132.004611 -35.818623 
L 133.541801 -39.284848 
L 135.078991 -43.054618 
L 136.616181 -47.070606 
L 138.153371 -51.263952 
L 139.690561 -55.545032 
L 141.227751 -59.770534 
L 142.764941 -63.599087 
L 144.302131 -65.955918 
L 145.839321 -65.921854 
L 147.376511 -65.029404 
L 148.913701 -64.246548 
L 150.450892 -63.82844 
L 151.988082 -63.854078 
L 153.525272 -64.348809 
L 155.062462 -65.31294 
L 156.599652 -66.730285 
L 158.136842 -68.57135 
L 159.674032 -70.794773 
L 161.211222 -73.348 
L 162.748412 -76.167249 
L 164.285602 -79.176008 
L 165.822792 -82.279513 
L 167.359982 -85.34659 
L 168.897173 -88.147185 
L 170.434363 -90.159689 
L 171.971553 -90.563147 
L 173.508743 -89.502288 
L 175.045933 -87.787318 
L 176.583123 -85.84134 
L 178.120313 -83.853085 
L 179.657503 -81.933872 
L 181.194693 -80.165069 
L 182.731883 -78.612121 
L 184.269073 -77.328856 
L 185.806263 -76.358627 
L 187.343454 -75.734268 
L 188.880644 -75.477405 
L 190.417834 -75.596967 
L 191.955024 -76.085705 
L 193.492214 -76.910334 
L 195.029404 -77.976917 
L 196.566594 -78.974956 
L 198.103784 -78.729601 
L 198.103784 -86.150295 
L 198.103784 -86.150295 
L 196.566594 -88.321446 
L 195.029404 -91.781249 
L 193.492214 -95.324521 
L 191.955024 -98.60773 
L 190.417834 -101.501723 
L 188.880644 -103.936423 
L 187.343454 -105.866902 
L 185.806263 -107.264287 
L 184.269073 -108.11308 
L 182.731883 -108.410505 
L 181.194693 -108.166668 
L 179.657503 -107.405337 
L 178.120313 -106.165867 
L 176.583123 -104.508239 
L 175.045933 -102.52771 
L 173.508743 -100.402816 
L 171.971553 -98.552726 
L 170.434363 -97.790241 
L 168.897173 -98.269327 
L 167.359982 -99.184866 
L 165.822792 -100.03749 
L 164.285602 -100.625432 
L 162.748412 -100.851365 
L 161.211222 -100.659297 
L 159.674032 -100.015679 
L 158.136842 -98.903045 
L 156.599652 -97.317604 
L 155.062462 -95.268255 
L 153.525272 -92.776295 
L 151.988082 -89.875895 
L 150.450892 -86.616346 
L 148.913701 -83.069732 
L 147.376511 -79.358737 
L 145.839321 -75.778434 
L 144.302131 -73.332349 
L 142.764941 -73.583674 
L 141.227751 -75.638683 
L 139.690561 -78.442568 
L 138.153371 -81.668313 
L 136.616181 -85.18134 
L 135.078991 -88.895232 
L 133.541801 -92.738997 
L 132.004611 -96.648114 
L 130.46742 -100.56186 
L 128.93023 -104.422626 
L 127.39304 -108.175911 
L 125.85585 -111.770537 
L 124.31866 -115.158925 
L 122.78147 -118.297337 
L 121.24428 -121.146082 
L 119.70709 -123.669665 
L 118.1699 -125.836896 
L 116.63271 -127.620966 
L 115.09552 -128.999505 
L 113.55833 -129.954622 
L 112.021139 -130.472957 
L 110.483949 -130.545731 
L 108.946759 -130.168808 
L 107.409569 -129.342774 
L 105.872379 -128.073018 
L 104.335189 -126.369847 
L 102.797999 -124.248617 
L 101.260809 -121.729956 
L 99.723619 -118.840171 
L 98.186429 -115.612146 
L 96.649239 -112.087631 
L 95.112049 -108.323985 
L 93.574858 -104.418798 
L 92.037668 -100.636491 
L 90.500478 -98.332472 
L 88.963288 -100.391561 
L 87.426098 -104.284221 
L 85.888908 -108.308647 
L 84.351718 -112.146768 
L 82.814528 -115.692355 
L 81.277338 -118.886322 
L 79.740148 -121.686634 
L 78.202958 -124.060443 
L 76.665768 -125.981562 
L 75.128577 -127.429549 
L 73.591387 -128.389369 
L 72.054197 -128.851248 
L 70.517007 -128.810601 
L 68.979817 -128.267959 
L 67.442627 -127.228887 
L 65.905437 -125.703866 
L 64.368247 -123.708147 
L 62.831057 -121.261571 
L 61.293867 -118.388364 
L 59.756677 -115.116925 
L 58.219487 -111.479623 
L 56.682296 -107.512671 
L 55.145106 -103.256205 
L 53.607916 -98.754905 
L 52.070726 -94.06015 
L 50.533536 -89.237132 
L 48.996346 -84.392301 
L 47.459156 -79.822099 
L 45.921966 -77.118336 
z
" style="stroke: #ffffff; stroke-opacity: 0.2; stroke-width: 0.8"/>
    </defs>
    <g clip-path="url(#p2bec093c2d)">
     <use xlink:href="#m8a7b7936d0" x="0" y="167.278875" style="fill: #1f77b4; fill-opacity: 0.2; stroke: #ffffff; stroke-opacity: 0.2; stroke-width: 0.8"/>
    </g>
   </g>
   <g id="PathCollection_1">
    <defs>
     <path id="m850ee30cb1" d="M 0 2.4 
C 0.636487 2.4 1.246992 2.147121 1.697056 1.697056 
C 2.147121 1.246992 2.4 0.636487 2.4 0 
C 2.4 -0.636487 2.147121 -1.246992 1.697056 -1.697056 
C 1.246992 -2.147121 0.636487 -2.4 0 -2.4 
C -0.636487 -2.4 -1.246992 -2.147121 -1.697056 -1.697056 
C -2.147121 -1.246992 -2.4 -0.636487 -2.4 0 
C -2.4 0.636487 -2.147121 1.246992 -1.697056 1.697056 
C -1.246992 2.147121 -0.636487 2.4 0 2.4 
z
" style="stroke: #ff7f0e; stroke-width: 0.8"/>
    </defs>
    <g clip-path="url(#p2bec093c2d)">
     <use xlink:href="#m850ee30cb1" x="90.393377" y="72.584426" style="fill: #ff7f0e; stroke: #ff7f0e; stroke-width: 0.8"/>
     <use xlink:href="#m850ee30cb1" x="197.974647" y="84.756626" style="fill: #ff7f0e; stroke: #ff7f0e; stroke-width: 0.8"/>
     <use xlink:href="#m850ee30cb1" x="144.205343" y="97.762372" style="fill: #ff7f0e; stroke: #ff7f0e; stroke-width: 0.8"/>
     <use xlink:href="#m850ee30cb1" x="45.949617" y="93.853156" style="fill: #ff7f0e; stroke: #ff7f0e; stroke-width: 0.8"/>
     <use xlink:href="#m850ee30cb1" x="171.033959" y="72.964727" style="fill: #ff7f0e; stroke: #ff7f0e; stroke-width: 0.8"/>
    </g>
   </g>
   <g id="line2d_14">
    <path d="M 45.921966 93.853014 
L 47.459156 93.368078 
L 48.996346 92.822882 
L 50.533536 92.21682 
L 52.070726 91.550042 
L 53.607916 90.823525 
L 55.145106 90.03913 
L 56.682296 89.199655 
L 58.219487 88.308873 
L 59.756677 87.371549 
L 61.293867 86.39345 
L 62.831057 85.381328 
L 64.368247 84.342886 
L 65.905437 83.28673 
L 67.442627 82.222284 
L 68.979817 81.159705 
L 70.517007 80.10976 
L 72.054197 79.083694 
L 73.591387 78.093083 
L 75.128577 77.149664 
L 76.665768 76.265167 
L 78.202958 75.451126 
L 79.740148 74.718699 
L 81.277338 74.078479 
L 82.814528 73.540317 
L 84.351718 73.113148 
L 85.888908 72.804831 
L 87.426098 72.622006 
L 88.963288 72.569972 
L 90.500478 72.652575 
L 92.037668 72.872133 
L 93.574858 73.229375 
L 95.112049 73.723403 
L 96.649239 74.351685 
L 98.186429 75.110061 
L 99.723619 75.992778 
L 101.260809 76.992538 
L 102.797999 78.100565 
L 104.335189 79.306687 
L 105.872379 80.599434 
L 107.409569 81.966137 
L 108.946759 83.393053 
L 110.483949 84.865481 
L 112.021139 86.367898 
L 113.55833 87.884098 
L 115.09552 89.397341 
L 116.63271 90.890508 
L 118.1699 92.346268 
L 119.70709 93.747254 
L 121.24428 95.076249 
L 122.78147 96.316387 
L 124.31866 97.45136 
L 125.85585 98.46564 
L 127.39304 99.344706 
L 128.93023 100.075282 
L 130.46742 100.645574 
L 132.004611 101.045506 
L 133.541801 101.266952 
L 135.078991 101.30395 
L 136.616181 101.152902 
L 138.153371 100.812743 
L 139.690561 100.285075 
L 141.227751 99.574267 
L 142.764941 98.687494 
L 144.302131 97.634741 
L 145.839321 96.428731 
L 147.376511 95.084804 
L 148.913701 93.620735 
L 150.450892 92.056482 
L 151.988082 90.413888 
L 153.525272 88.716323 
L 155.062462 86.988278 
L 156.599652 85.254931 
L 158.136842 83.541678 
L 159.674032 81.873649 
L 161.211222 80.275226 
L 162.748412 78.769568 
L 164.285602 77.378155 
L 165.822792 76.120374 
L 167.359982 75.013147 
L 168.897173 74.070619 
L 170.434363 73.30391 
L 171.971553 72.720938 
L 173.508743 72.326323 
L 175.045933 72.121361 
L 176.583123 72.104086 
L 178.120313 72.269399 
L 179.657503 72.609271 
L 181.194693 73.113006 
L 182.731883 73.767562 
L 184.269073 74.557907 
L 185.806263 75.467418 
L 187.343454 76.47829 
L 188.880644 77.571961 
L 190.417834 78.72953 
L 191.955024 79.932158 
L 193.492214 81.161448 
L 195.029404 82.399792 
L 196.566594 83.630674 
L 198.103784 84.838927 
" clip-path="url(#p2bec093c2d)" style="fill: none; stroke: #1f77b4; stroke-width: 1.2; stroke-linecap: round"/>
   </g>
   <g id="line2d_15">
    <path d="M 45.921966 97.920329 
L 47.459156 94.936676 
L 48.996346 91.945185 
L 50.533536 89.00557 
L 52.070726 86.148027 
L 53.607916 83.409866 
L 55.145106 80.830708 
L 56.682296 78.447183 
L 58.219487 76.29359 
L 59.756677 74.379235 
L 61.293867 72.728037 
L 62.831057 71.355738 
L 64.368247 70.256643 
L 65.905437 69.410657 
L 67.442627 68.819892 
L 68.979817 68.456742 
L 70.517007 68.289301 
L 72.054197 68.295857 
L 73.591387 68.447756 
L 75.128577 68.710526 
L 76.665768 69.056849 
L 78.202958 69.473795 
L 79.740148 69.925382 
L 81.277338 70.39473 
L 82.814528 70.879317 
L 84.351718 71.368952 
L 85.888908 71.853638 
L 87.426098 72.349267 
L 88.963288 72.850192 
L 90.500478 73.36017 
L 92.037668 73.895431 
L 93.574858 74.459528 
L 95.112049 75.054035 
L 96.649239 75.684548 
L 98.186429 76.363822 
L 99.723619 77.083643 
L 101.260809 77.841686 
L 102.797999 78.635883 
L 104.335189 79.453967 
L 105.872379 80.291085 
L 107.409569 81.128275 
L 108.946759 81.95523 
L 110.483949 82.758906 
L 112.021139 83.528493 
L 113.55833 84.250033 
L 115.09552 84.922745 
L 116.63271 85.537109 
L 118.1699 86.099248 
L 119.70709 86.60684 
L 121.24428 87.083063 
L 122.78147 87.527489 
L 124.31866 87.962376 
L 125.85585 88.40775 
L 127.39304 88.88107 
L 128.93023 89.408506 
L 130.46742 89.998866 
L 132.004611 90.669436 
L 133.541801 91.42361 
L 135.078991 92.273189 
L 136.616181 93.198117 
L 138.153371 94.202028 
L 139.690561 95.232151 
L 141.227751 96.288374 
L 142.764941 97.312436 
L 144.302131 98.270947 
L 145.839321 99.101738 
L 147.376511 99.766994 
L 148.913701 100.217314 
L 150.450892 100.391032 
L 151.988082 100.265136 
L 153.525272 99.800441 
L 155.062462 98.966107 
L 156.599652 97.761963 
L 158.136842 96.186005 
L 159.674032 94.255077 
L 161.211222 92.009294 
L 162.748412 89.481024 
L 164.285602 86.738809 
L 165.822792 83.849026 
L 167.359982 80.89376 
L 168.897173 77.956763 
L 170.434363 75.126789 
L 171.971553 72.4947 
L 173.508743 70.140809 
L 175.045933 68.134192 
L 176.583123 66.551451 
L 178.120313 65.42809 
L 179.657503 64.806979 
L 181.194693 64.697377 
L 182.731883 65.086682 
L 184.269073 65.964221 
L 185.806263 67.278172 
L 187.343454 68.964546 
L 188.880644 70.952051 
L 190.417834 73.162384 
L 191.955024 75.497264 
L 193.492214 77.864884 
L 195.029404 80.171459 
L 196.566594 82.311561 
L 198.103784 84.229634 
" clip-path="url(#p2bec093c2d)" style="fill: none; stroke: #d62728; stroke-opacity: 0.5; stroke-width: 0.5; stroke-linecap: round"/>
   </g>
   <g id="line2d_16">
    <path d="M 45.921966 91.598128 
L 47.459156 92.37994 
L 48.996346 93.079097 
L 50.533536 93.663258 
L 52.070726 94.115085 
L 53.607916 94.410324 
L 55.145106 94.537822 
L 56.682296 94.492076 
L 58.219487 94.26303 
L 59.756677 93.850086 
L 61.293867 93.266339 
L 62.831057 92.511249 
L 64.368247 91.602836 
L 65.905437 90.557312 
L 67.442627 89.395183 
L 68.979817 88.148124 
L 70.517007 86.827599 
L 72.054197 85.470524 
L 73.591387 84.103609 
L 75.128577 82.748516 
L 76.665768 81.431864 
L 78.202958 80.184554 
L 79.740148 79.019663 
L 81.277338 77.97004 
L 82.814528 77.052845 
L 84.351718 76.287984 
L 85.888908 75.694748 
L 87.426098 75.291264 
L 88.963288 75.095958 
L 90.500478 75.130477 
L 92.037668 75.404654 
L 93.574858 75.934894 
L 95.112049 76.744202 
L 96.649239 77.829367 
L 98.186429 79.208196 
L 99.723619 80.880219 
L 101.260809 82.843589 
L 102.797999 85.099243 
L 104.335189 87.622934 
L 105.872379 90.394379 
L 107.409569 93.38961 
L 108.946759 96.565969 
L 110.483949 99.874234 
L 112.021139 103.26922 
L 113.55833 106.681792 
L 115.09552 110.05524 
L 116.63271 113.301549 
L 118.1699 116.355952 
L 119.70709 119.148186 
L 121.24428 121.599164 
L 122.78147 123.648263 
L 124.31866 125.225916 
L 125.85585 126.284098 
L 127.39304 126.77482 
L 128.93023 126.687829 
L 130.46742 125.998425 
L 132.004611 124.710542 
L 133.541801 122.846303 
L 135.078991 120.451918 
L 136.616181 117.572774 
L 138.153371 114.273868 
L 139.690561 110.640307 
L 141.227751 106.752522 
L 142.764941 102.710594 
L 144.302131 98.597844 
L 145.839321 94.520754 
L 147.376511 90.556651 
L 148.913701 86.790977 
L 150.450892 83.292973 
L 151.988082 80.123905 
L 153.525272 77.315744 
L 155.062462 74.912821 
L 156.599652 72.909324 
L 158.136842 71.313819 
L 159.674032 70.118023 
L 161.211222 69.288964 
L 162.748412 68.799437 
L 164.285602 68.618623 
L 165.822792 68.69175 
L 167.359982 68.982934 
L 168.897173 69.465437 
L 170.434363 70.076953 
L 171.971553 70.804229 
L 173.508743 71.613026 
L 175.045933 72.474947 
L 176.583123 73.372095 
L 178.120313 74.305398 
L 179.657503 75.2529 
L 181.194693 76.213566 
L 182.731883 77.1705 
L 184.269073 78.144011 
L 185.806263 79.111654 
L 187.343454 80.079651 
L 188.880644 81.041833 
L 190.417834 81.990277 
L 191.955024 82.928504 
L 193.492214 83.836973 
L 195.029404 84.714761 
L 196.566594 85.556644 
L 198.103784 86.347713 
" clip-path="url(#p2bec093c2d)" style="fill: none; stroke: #d62728; stroke-opacity: 0.5; stroke-width: 0.5; stroke-linecap: round"/>
   </g>
   <g id="line2d_17">
    <path d="M 45.921966 94.334746 
L 47.459156 94.379663 
L 48.996346 94.013847 
L 50.533536 93.226126 
L 52.070726 92.025556 
L 53.607916 90.449542 
L 55.145106 88.513597 
L 56.682296 86.283912 
L 58.219487 83.817936 
L 59.756677 81.185263 
L 61.293867 78.457023 
L 62.831057 75.701397 
L 64.368247 73.006147 
L 65.905437 70.438679 
L 67.442627 68.069957 
L 68.979817 65.955698 
L 70.517007 64.147186 
L 72.054197 62.687821 
L 73.591387 61.600101 
L 75.128577 60.908926 
L 76.665768 60.618896 
L 78.202958 60.721456 
L 79.740148 61.204495 
L 81.277338 62.036888 
L 82.814528 63.199065 
L 84.351718 64.644637 
L 85.888908 66.342465 
L 87.426098 68.243153 
L 88.963288 70.309796 
L 90.500478 72.508693 
L 92.037668 74.787696 
L 93.574858 77.130203 
L 95.112049 79.504177 
L 96.649239 81.886434 
L 98.186429 84.259841 
L 99.723619 86.616716 
L 101.260809 88.946061 
L 102.797999 91.239185 
L 104.335189 93.497769 
L 105.872379 95.718974 
L 107.409569 97.9052 
L 108.946759 100.034428 
L 110.483949 102.119697 
L 112.021139 104.135778 
L 113.55833 106.073715 
L 115.09552 107.912207 
L 116.63271 109.626883 
L 118.1699 111.190604 
L 119.70709 112.570899 
L 121.24428 113.734162 
L 122.78147 114.658449 
L 124.31866 115.296745 
L 125.85585 115.631296 
L 127.39304 115.638433 
L 128.93023 115.286904 
L 130.46742 114.583347 
L 132.004611 113.511015 
L 133.541801 112.085072 
L 135.078991 110.311023 
L 136.616181 108.219205 
L 138.153371 105.840948 
L 139.690561 103.222237 
L 141.227751 100.407901 
L 142.764941 97.466687 
L 144.302131 94.449338 
L 145.839321 91.424176 
L 147.376511 88.458328 
L 148.913701 85.609699 
L 150.450892 82.94728 
L 151.988082 80.514828 
L 153.525272 78.366699 
L 155.062462 76.526521 
L 156.599652 75.028144 
L 158.136842 73.882433 
L 159.674032 73.092088 
L 161.211222 72.643085 
L 162.748412 72.506486 
L 164.285602 72.655258 
L 165.822792 73.047305 
L 167.359982 73.635052 
L 168.897173 74.376259 
L 170.434363 75.21322 
L 171.971553 76.105939 
L 173.508743 77.006964 
L 175.045933 77.883147 
L 176.583123 78.716808 
L 178.120313 79.4759 
L 179.657503 80.172828 
L 181.194693 80.793227 
L 182.731883 81.357128 
L 184.269073 81.877529 
L 185.806263 82.385477 
L 187.343454 82.910776 
L 188.880644 83.471078 
L 190.417834 84.101479 
L 191.955024 84.808602 
L 193.492214 85.625302 
L 195.029404 86.544212 
L 196.566594 87.572976 
L 198.103784 88.703933 
" clip-path="url(#p2bec093c2d)" style="fill: none; stroke: #d62728; stroke-opacity: 0.5; stroke-width: 0.5; stroke-linecap: round"/>
   </g>
   <g id="line2d_18">
    <path d="M 45.921966 93.348199 
L 47.459156 92.911505 
L 48.996346 92.321732 
L 50.533536 91.586392 
L 52.070726 90.67971 
L 53.607916 89.611876 
L 55.145106 88.39102 
L 56.682296 87.033934 
L 58.219487 85.544112 
L 59.756677 83.964909 
L 61.293867 82.310015 
L 62.831057 80.628689 
L 64.368247 78.946609 
L 65.905437 77.30356 
L 67.442627 75.745607 
L 68.979817 74.296214 
L 70.517007 72.993185 
L 72.054197 71.857769 
L 73.591387 70.908696 
L 75.128577 70.171319 
L 76.665768 69.637201 
L 78.202958 69.302743 
L 79.740148 69.17338 
L 81.277338 69.225799 
L 82.814528 69.445453 
L 84.351718 69.812285 
L 85.888908 70.30688 
L 87.426098 70.905211 
L 88.963288 71.597461 
L 90.500478 72.366367 
L 92.037668 73.20424 
L 93.574858 74.117689 
L 95.112049 75.099913 
L 96.649239 76.165329 
L 98.186429 77.333746 
L 99.723619 78.623467 
L 101.260809 80.051997 
L 102.797999 81.634314 
L 104.335189 83.393871 
L 105.872379 85.345414 
L 107.409569 87.500407 
L 108.946759 89.835225 
L 110.483949 92.343154 
L 112.021139 95.006275 
L 113.55833 97.774836 
L 115.09552 100.61134 
L 116.63271 103.445145 
L 118.1699 106.215378 
L 119.70709 108.838315 
L 121.24428 111.25032 
L 122.78147 113.361139 
L 124.31866 115.112221 
L 125.85585 116.432419 
L 127.39304 117.265846 
L 128.93023 117.578077 
L 130.46742 117.355682 
L 132.004611 116.573842 
L 133.541801 115.2616 
L 135.078991 113.453132 
L 136.616181 111.191668 
L 138.153371 108.546625 
L 139.690561 105.574875 
L 141.227751 102.391015 
L 142.764941 99.063734 
L 144.302131 95.695002 
L 145.839321 92.371853 
L 147.376511 89.176859 
L 148.913701 86.172488 
L 150.450892 83.424658 
L 151.988082 80.984939 
L 153.525272 78.861404 
L 155.062462 77.097318 
L 156.599652 75.663409 
L 158.136842 74.566534 
L 159.674032 73.758215 
L 161.211222 73.21157 
L 162.748412 72.879414 
L 164.285602 72.721372 
L 165.822792 72.681853 
L 167.359982 72.705725 
L 168.897173 72.785009 
L 170.434363 72.858329 
L 171.971553 72.906004 
L 173.508743 72.926889 
L 175.045933 72.910192 
L 176.583123 72.848837 
L 178.120313 72.779444 
L 179.657503 72.708519 
L 181.194693 72.673482 
L 182.731883 72.703471 
L 184.269073 72.83539 
L 185.806263 73.112394 
L 187.343454 73.568381 
L 188.880644 74.236535 
L 190.417834 75.147974 
L 191.955024 76.326604 
L 193.492214 77.807403 
L 195.029404 79.597986 
L 196.566594 81.71275 
L 198.103784 84.155305 
" clip-path="url(#p2bec093c2d)" style="fill: none; stroke: #d62728; stroke-opacity: 0.5; stroke-width: 0.5; stroke-linecap: round"/>
   </g>
   <g id="line2d_19">
    <path d="M 45.921966 93.92451 
L 47.459156 93.130596 
L 48.996346 92.505126 
L 50.533536 92.073113 
L 52.070726 91.847919 
L 53.607916 91.8256 
L 55.145106 92.019845 
L 56.682296 92.415843 
L 58.219487 93.002831 
L 59.756677 93.757335 
L 61.293867 94.656153 
L 62.831057 95.661809 
L 64.368247 96.729639 
L 65.905437 97.815985 
L 67.442627 98.865721 
L 68.979817 99.821853 
L 70.517007 100.620405 
L 72.054197 101.203203 
L 73.591387 101.497428 
L 75.128577 101.45871 
L 76.665768 101.018729 
L 78.202958 100.122981 
L 79.740148 98.73311 
L 81.277338 96.825374 
L 82.814528 94.36107 
L 84.351718 91.3493 
L 85.888908 87.793844 
L 87.426098 83.72486 
L 88.963288 79.192149 
L 90.500478 74.25168 
L 92.037668 68.986123 
L 93.574858 63.487618 
L 95.112049 57.87074 
L 96.649239 52.243143 
L 98.186429 46.740087 
L 99.723619 41.47402 
L 101.260809 36.577906 
L 102.797999 32.162006 
L 104.335189 28.331042 
L 105.872379 25.176289 
L 107.409569 22.771568 
L 108.946759 21.163381 
L 110.483949 20.391001 
L 112.021139 20.453578 
L 113.55833 21.330905 
L 115.09552 22.999612 
L 116.63271 25.401276 
L 118.1699 28.465564 
L 119.70709 32.108548 
L 121.24428 36.238931 
L 122.78147 40.753844 
L 124.31866 45.565439 
L 125.85585 50.564108 
L 127.39304 55.650164 
L 128.93023 60.746269 
L 130.46742 65.74875 
L 132.004611 70.598435 
L 133.541801 75.228417 
L 135.078991 79.573157 
L 136.616181 83.599562 
L 138.153371 87.264438 
L 139.690561 90.526061 
L 141.227751 93.37458 
L 142.764941 95.791947 
L 144.302131 97.766756 
L 145.839321 99.294906 
L 147.376511 100.374306 
L 148.913701 101.019272 
L 150.450892 101.237785 
L 151.988082 101.037159 
L 153.525272 100.437329 
L 155.062462 99.469121 
L 156.599652 98.152102 
L 158.136842 96.526942 
L 159.674032 94.624149 
L 161.211222 92.500235 
L 162.748412 90.191619 
L 164.285602 87.754675 
L 165.822792 85.247177 
L 167.359982 82.718187 
L 168.897173 80.24046 
L 170.434363 77.86716 
L 171.971553 75.646306 
L 173.508743 73.647304 
L 175.045933 71.905974 
L 176.583123 70.463094 
L 178.120313 69.353106 
L 179.657503 68.616312 
L 181.194693 68.247092 
L 182.731883 68.256701 
L 184.269073 68.656039 
L 185.806263 69.421481 
L 187.343454 70.526853 
L 188.880644 71.948042 
L 190.417834 73.662975 
L 191.955024 75.608165 
L 193.492214 77.752504 
L 195.029404 80.040183 
L 196.566594 82.430383 
L 198.103784 84.858579 
" clip-path="url(#p2bec093c2d)" style="fill: none; stroke: #d62728; stroke-opacity: 0.5; stroke-width: 0.5; stroke-linecap: round"/>
   </g>
   <g id="line2d_20">
    <path d="M 116.302669 130.9515 
L 116.302669 20.0715 
" clip-path="url(#p2bec093c2d)" style="fill: none; stroke-dasharray: 4.44,1.92; stroke-dashoffset: 0; stroke: #ff0000; stroke-width: 1.2"/>
   </g>
   <g id="patch_3">
    <path d="M 38.312875 130.9515 
L 38.312875 20.0715 
" style="fill: none; stroke: #262626; stroke-linejoin: miter; stroke-linecap: square"/>
   </g>
   <g id="patch_4">
    <path d="M 45.921966 130.9515 
L 198.103784 130.9515 
" style="fill: none; stroke: #262626; stroke-linejoin: miter; stroke-linecap: square"/>
   </g>
   <g id="text_16">
    <!-- $N=5$ -->
    <g style="fill: #262626" transform="translate(109.436875 14.0715) scale(0.096 -0.096)">
     <defs>
      <path id="DejaVuSans-Oblique-4e" d="M 1081 4666 
L 1931 4666 
L 3219 666 
L 4000 4666 
L 4616 4666 
L 3706 0 
L 2853 0 
L 1569 4025 
L 788 0 
L 172 0 
L 1081 4666 
z
" transform="scale(0.015625)"/>
      <path id="DejaVuSans-3d" d="M 678 2906 
L 4684 2906 
L 4684 2381 
L 678 2381 
L 678 2906 
z
M 678 1631 
L 4684 1631 
L 4684 1100 
L 678 1100 
L 678 1631 
z
" transform="scale(0.015625)"/>
      <path id="DejaVuSans-35" d="M 691 4666 
L 3169 4666 
L 3169 4134 
L 1269 4134 
L 1269 2991 
Q 1406 3038 1543 3061 
Q 1681 3084 1819 3084 
Q 2600 3084 3056 2656 
Q 3513 2228 3513 1497 
Q 3513 744 3044 326 
Q 2575 -91 1722 -91 
Q 1428 -91 1123 -41 
Q 819 9 494 109 
L 494 744 
Q 775 591 1075 516 
Q 1375 441 1709 441 
Q 2250 441 2565 725 
Q 2881 1009 2881 1497 
Q 2881 1984 2565 2268 
Q 2250 2553 1709 2553 
Q 1456 2553 1204 2497 
Q 953 2441 691 2322 
L 691 4666 
z
" transform="scale(0.015625)"/>
     </defs>
     <use xlink:href="#DejaVuSans-Oblique-4e" transform="translate(0 0.09375)"/>
     <use xlink:href="#DejaVuSans-3d" transform="translate(94.287109 0.09375)"/>
     <use xlink:href="#DejaVuSans-35" transform="translate(197.558594 0.09375)"/>
    </g>
   </g>
  </g>
 </g>
 <defs>
  <clipPath id="p2bec093c2d">
   <rect x="38.312875" y="20.0715" width="167.4" height="110.88"/>
  </clipPath>
 </defs>
</svg>