<?xml version="1.0" encoding="utf-8" standalone="no"?>
<!DOCTYPE svg PUBLIC "-//W3C//DTD SVG 1.1//EN"
  "http://www.w3.org/Graphics/SVG/1.1/DTD/svg11.dtd">
<svg xmlns:xlink="http://www.w3.org/1999/xlink" width="239.30494pt" height="164.880703pt" viewBox="0 0 239.30494 164.880703" xmlns="http://www.w3.org/2000/svg" version="1.1">
 <metadata>
  <rdf:RDF xmlns:dc="http://purl.org/dc/elements/1.1/" xmlns:cc="http://creativecommons.org/ns#" xmlns:rdf="http://www.w3.org/1999/02/22-rdf-syntax-ns#">
   <cc:Work>
    <dc:type rdf:resource="http://purl.org/dc/dcmitype/StillImage"/>
    <dc:date>2026-09-22T15:48:24.743302</dc:date>
    <dc:format>image/svg+xml</dc:format>
    <dc:creator>
     <cc:Agent>
      <dc:title>Matplotlib v3.11.0, https://matplotlib.org/</dc:title>
     </cc:Agent>
    </dc:creator>
   </cc:Work>
  </rdf:RDF>
 </metadata>
 <defs>
  <style type="text/css">*{stroke-linejoin: round; stroke-linecap: butt}</style>
 </defs>
 <g id="figure_1">
  <g id="patch_1">
   <path d="M 0 164.880703 
L 239.30494 164.880703 
L 239.30494 0 
L 0 0 
z
" style="fill: #ffffff"/>
  </g>
  <g id="axes_1">
   <g id="patch_2">
    <path d="M 46.89 135.44 
L 236.113829 135.44 
L 236.113829 4.479062 
L 46.89 4.479062 
z
" style="fill: #ffffff"/>
   </g>
   <g id="matplotlib.axis_1">
    <g id="xtick_1">
     <g id="line2d_1">
      <defs>
       <path id="mab88461f79" d="M 0 0 
L 0 3.5 
" style="stroke: #000000; stroke-width: 0.8"/>
      </defs>
      <g>
       <use xlink:href="#mab88461f79" x="55.491083" y="135.44" style="stroke: #000000; stroke-width: 0.8"/>
      </g>
     </g>
     <g id="text_1">
      <!-- 0 -->
      <g transform="translate(52.946083 148.518125) scale(0.08 -0.08)">
       <defs>
        <path id="DejaVuSans-13" d="M 2034 4250 
Q 1547 4250 1301 3770 
Q 1056 3291 1056 2328 
Q 1056 1369 1301 889 
Q 1547 409 2034 409 
Q 2525 409 2770 889 
Q 3016 1369 3016 2328 
Q 3016 3291 2770 3770 
Q 2525 4250 2034 4250 
z
M 2034 4750 
Q 2819 4750 3233 4129 
Q 3647 3509 3647 2328 
Q 3647 1150 3233 529 
Q 2819 -91 2034 -91 
Q 1250 -91 836 529 
Q 422 1150 422 2328 
Q 422 3509 836 4129 
Q 1250 4750 2034 4750 
z
" transform="scale(0.015625)"/>
       </defs>
       <use xlink:href="#DejaVuSans-13"/>
      </g>
     </g>
    </g>
    <g id="xtick_2">
     <g id="line2d_2">
      <g>
       <use xlink:href="#mab88461f79" x="89.929854" y="135.44" style="stroke: #000000; stroke-width: 0.8"/>
      </g>
     </g>
     <g id="text_2">
      <!-- 200 -->
      <g transform="translate(82.294854 148.518125) scale(0.08 -0.08)">
       <defs>
        <path id="DejaVuSans-15" d="M 1228 531 
L 3431 531 
L 3431 0 
L 469 0 
L 469 531 
Q 828 903 1448 1529 
Q 2069 2156 2228 2338 
Q 2531 2678 2651 2914 
Q 2772 3150 2772 3378 
Q 2772 3750 2511 3984 
Q 2250 4219 1831 4219 
Q 1534 4219 1204 4116 
Q 875 4013 500 3803 
L 500 4441 
Q 881 4594 1212 4672 
Q 1544 4750 1819 4750 
Q 2544 4750 2975 4387 
Q 3406 4025 3406 3419 
Q 3406 3131 3298 2873 
Q 3191 2616 2906 2266 
Q 2828 2175 2409 1742 
Q 1991 1309 1228 531 
z
" transform="scale(0.015625)"/>
       </defs>
       <use xlink:href="#DejaVuSans-15"/>
       <use xlink:href="#DejaVuSans-13" transform="translate(63.625 0)"/>
       <use xlink:href="#DejaVuSans-13" transform="translate(127.25 0)"/>
      </g>
     </g>
    </g>
    <g id="xtick_3">
     <g id="line2d_3">
      <g>
       <use xlink:href="#mab88461f79" x="124.368626" y="135.44" style="stroke: #000000; stroke-width: 0.8"/>
      </g>
     </g>
     <g id="text_3">
      <!-- 400 -->
      <g transform="translate(116.733626 148.518125) scale(0.08 -0.08)">
       <defs>
        <path id="DejaVuSans-17" d="M 2419 4116 
L 825 1625 
L 2419 1625 
L 2419 4116 
z
M 2253 4666 
L 3047 4666 
L 3047 1625 
L 3713 1625 
L 3713 1100 
L 3047 1100 
L 3047 0 
L 2419 0 
L 2419 1100 
L 313 1100 
L 313 1709 
L 2253 4666 
z
" transform="scale(0.015625)"/>
       </defs>
       <use xlink:href="#DejaVuSans-17"/>
       <use xlink:href="#DejaVuSans-13" transform="translate(63.625 0)"/>
       <use xlink:href="#DejaVuSans-13" transform="translate(127.25 0)"/>
      </g>
     </g>
    </g>
    <g id="xtick_4">
     <g id="line2d_4">
      <g>
       <use xlink:href="#mab88461f79" x="158.807397" y="135.44" style="stroke: #000000; stroke-width: 0.8"/>
      </g>
     </g>
     <g id="text_4">
      <!-- 600 -->
      <g transform="translate(151.172397 148.518125) scale(0.08 -0.08)">
       <defs>
        <path id="DejaVuSans-19" d="M 2113 2584 
Q 1688 2584 1439 2293 
Q 1191 2003 1191 1497 
Q 1191 994 1439 701 
Q 1688 409 2113 409 
Q 2538 409 2786 701 
Q 3034 994 3034 1497 
Q 3034 2003 2786 2293 
Q 2538 2584 2113 2584 
z
M 3366 4563 
L 3366 3988 
Q 3128 4100 2886 4159 
Q 2644 4219 2406 4219 
Q 1781 4219 1451 3797 
Q 1122 3375 1075 2522 
Q 1259 2794 1537 2939 
Q 1816 3084 2150 3084 
Q 2853 3084 3261 2657 
Q 3669 2231 3669 1497 
Q 3669 778 3244 343 
Q 2819 -91 2113 -91 
Q 1303 -91 875 529 
Q 447 1150 447 2328 
Q 447 3434 972 4092 
Q 1497 4750 2381 4750 
Q 2619 4750 2861 4703 
Q 3103 4656 3366 4563 
z
" transform="scale(0.015625)"/>
       </defs>
       <use xlink:href="#DejaVuSans-19"/>
       <use xlink:href="#DejaVuSans-13" transform="translate(63.625 0)"/>
       <use xlink:href="#DejaVuSans-13" transform="translate(127.25 0)"/>
      </g>
     </g>
    </g>
    <g id="xtick_5">
     <g id="line2d_5">
      <g>
       <use xlink:href="#mab88461f79" x="193.246168" y="135.44" style="stroke: #000000; stroke-width: 0.8"/>
      </g>
     </g>
     <g id="text_5">
      <!-- 800 -->
      <g transform="translate(185.611168 148.518125) scale(0.08 -0.08)">
       <defs>
        <path id="DejaVuSans-1b" d="M 2034 2216 
Q 1584 2216 1326 1975 
Q 1069 1734 1069 1313 
Q 1069 891 1326 650 
Q 1584 409 2034 409 
Q 2484 409 2743 651 
Q 3003 894 3003 1313 
Q 3003 1734 2745 1975 
Q 2488 2216 2034 2216 
z
M 1403 2484 
Q 997 2584 770 2862 
Q 544 3141 544 3541 
Q 544 4100 942 4425 
Q 1341 4750 2034 4750 
Q 2731 4750 3128 4425 
Q 3525 4100 3525 3541 
Q 3525 3141 3298 2862 
Q 3072 2584 2669 2484 
Q 3125 2378 3379 2068 
Q 3634 1759 3634 1313 
Q 3634 634 3220 271 
Q 2806 -91 2034 -91 
Q 1263 -91 848 271 
Q 434 634 434 1313 
Q 434 1759 690 2068 
Q 947 2378 1403 2484 
z
M 1172 3481 
Q 1172 3119 1398 2916 
Q 1625 2713 2034 2713 
Q 2441 2713 2670 2916 
Q 2900 3119 2900 3481 
Q 2900 3844 2670 4047 
Q 2441 4250 2034 4250 
Q 1625 4250 1398 4047 
Q 1172 3844 1172 3481 
z
" transform="scale(0.015625)"/>
       </defs>
       <use xlink:href="#DejaVuSans-1b"/>
       <use xlink:href="#DejaVuSans-13" transform="translate(63.625 0)"/>
       <use xlink:href="#DejaVuSans-13" transform="translate(127.25 0)"/>
      </g>
     </g>
    </g>
    <g id="xtick_6">
     <g id="line2d_6">
      <g>
       <use xlink:href="#mab88461f79" x="227.68494" y="135.44" style="stroke: #000000; stroke-width: 0.8"/>
      </g>
     </g>
     <g id="text_6">
      <!-- 1000 -->
      <g transform="translate(217.50494 148.518125) scale(0.08 -0.08)">
       <defs>
        <path id="DejaVuSans-14" d="M 794 531 
L 1825 531 
L 1825 4091 
L 703 3866 
L 703 4441 
L 1819 4666 
L 2450 4666 
L 2450 531 
L 3481 531 
L 3481 0 
L 794 0 
L 794 531 
z
" transform="scale(0.015625)"/>
       </defs>
       <use xlink:href="#DejaVuSans-14"/>
       <use xlink:href="#DejaVuSans-13" transform="translate(63.625 0)"/>
       <use xlink:href="#DejaVuSans-13" transform="translate(127.25 0)"/>
       <use xlink:href="#DejaVuSans-13" transform="translate(190.875 0)"/>
      </g>
     </g>
    </g>
    <g id="text_7">
     <!-- Optimization Step -->
     <g transform="translate(101.03918 161.278594) scale(0.09 -0.09)">
      <defs>
       <path id="DejaVuSans-32" d="M 2522 4238 
Q 1834 4238 1429 3725 
Q 1025 3213 1025 2328 
Q 1025 1447 1429 934 
Q 1834 422 2522 422 
Q 3209 422 3611 934 
Q 4013 1447 4013 2328 
Q 4013 3213 3611 3725 
Q 3209 4238 2522 4238 
z
M 2522 4750 
Q 3503 4750 4090 4092 
Q 4678 3434 4678 2328 
Q 4678 1225 4090 567 
Q 3503 -91 2522 -91 
Q 1538 -91 948 565 
Q 359 1222 359 2328 
Q 359 3434 948 4092 
Q 1538 4750 2522 4750 
z
" transform="scale(0.015625)"/>
       <path id="DejaVuSans-53" d="M 1159 525 
L 1159 -1331 
L 581 -1331 
L 581 3500 
L 1159 3500 
L 1159 2969 
Q 1341 3281 1617 3432 
Q 1894 3584 2278 3584 
Q 2916 3584 3314 3078 
Q 3713 2572 3713 1747 
Q 3713 922 3314 415 
Q 2916 -91 2278 -91 
Q 1894 -91 1617 61 
Q 1341 213 1159 525 
z
M 3116 1747 
Q 3116 2381 2855 2742 
Q 2594 3103 2138 3103 
Q 1681 3103 1420 2742 
Q 1159 2381 1159 1747 
Q 1159 1113 1420 752 
Q 1681 391 2138 391 
Q 2594 391 2855 752 
Q 3116 1113 3116 1747 
z
" transform="scale(0.015625)"/>
       <path id="DejaVuSans-57" d="M 1172 4494 
L 1172 3500 
L 2356 3500 
L 2356 3053 
L 1172 3053 
L 1172 1153 
Q 1172 725 1289 603 
Q 1406 481 1766 481 
L 2356 481 
L 2356 0 
L 1766 0 
Q 1100 0 847 248 
Q 594 497 594 1153 
L 594 3053 
L 172 3053 
L 172 3500 
L 594 3500 
L 594 4494 
L 1172 4494 
z
" transform="scale(0.015625)"/>
       <path id="DejaVuSans-4c" d="M 603 3500 
L 1178 3500 
L 1178 0 
L 603 0 
L 603 3500 
z
M 603 4863 
L 1178 4863 
L 1178 4134 
L 603 4134 
L 603 4863 
z
" transform="scale(0.015625)"/>
       <path id="DejaVuSans-50" d="M 3328 2828 
Q 3544 3216 3844 3400 
Q 4144 3584 4550 3584 
Q 5097 3584 5394 3201 
Q 5691 2819 5691 2113 
L 5691 0 
L 5113 0 
L 5113 2094 
Q 5113 2597 4934 2840 
Q 4756 3084 4391 3084 
Q 3944 3084 3684 2787 
Q 3425 2491 3425 1978 
L 3425 0 
L 2847 0 
L 2847 2094 
Q 2847 2600 2669 2842 
Q 2491 3084 2119 3084 
Q 1678 3084 1418 2786 
Q 1159 2488 1159 1978 
L 1159 0 
L 581 0 
L 581 3500 
L 1159 3500 
L 1159 2956 
Q 1356 3278 1631 3431 
Q 1906 3584 2284 3584 
Q 2666 3584 2933 3390 
Q 3200 3197 3328 2828 
z
" transform="scale(0.015625)"/>
       <path id="DejaVuSans-5d" d="M 353 3500 
L 3084 3500 
L 3084 2975 
L 922 459 
L 3084 459 
L 3084 0 
L 275 0 
L 275 525 
L 2438 3041 
L 353 3041 
L 353 3500 
z
" transform="scale(0.015625)"/>
       <path id="DejaVuSans-44" d="M 2194 1759 
Q 1497 1759 1228 1600 
Q 959 1441 959 1056 
Q 959 750 1161 570 
Q 1363 391 1709 391 
Q 2188 391 2477 730 
Q 2766 1069 2766 1631 
L 2766 1759 
L 2194 1759 
z
M 3341 1997 
L 3341 0 
L 2766 0 
L 2766 531 
Q 2569 213 2275 61 
Q 1981 -91 1556 -91 
Q 1019 -91 701 211 
Q 384 513 384 1019 
Q 384 1609 779 1909 
Q 1175 2209 1959 2209 
L 2766 2209 
L 2766 2266 
Q 2766 2663 2505 2880 
Q 2244 3097 1772 3097 
Q 1472 3097 1187 3025 
Q 903 2953 641 2809 
L 641 3341 
Q 956 3463 1253 3523 
Q 1550 3584 1831 3584 
Q 2591 3584 2966 3190 
Q 3341 2797 3341 1997 
z
" transform="scale(0.015625)"/>
       <path id="DejaVuSans-52" d="M 1959 3097 
Q 1497 3097 1228 2736 
Q 959 2375 959 1747 
Q 959 1119 1226 758 
Q 1494 397 1959 397 
Q 2419 397 2687 759 
Q 2956 1122 2956 1747 
Q 2956 2369 2687 2733 
Q 2419 3097 1959 3097 
z
M 1959 3584 
Q 2709 3584 3137 3096 
Q 3566 2609 3566 1747 
Q 3566 888 3137 398 
Q 2709 -91 1959 -91 
Q 1206 -91 779 398 
Q 353 888 353 1747 
Q 353 2609 779 3096 
Q 1206 3584 1959 3584 
z
" transform="scale(0.015625)"/>
       <path id="DejaVuSans-51" d="M 3513 2113 
L 3513 0 
L 2938 0 
L 2938 2094 
Q 2938 2591 2744 2837 
Q 2550 3084 2163 3084 
Q 1697 3084 1428 2787 
Q 1159 2491 1159 1978 
L 1159 0 
L 581 0 
L 581 3500 
L 1159 3500 
L 1159 2956 
Q 1366 3272 1645 3428 
Q 1925 3584 2291 3584 
Q 2894 3584 3203 3211 
Q 3513 2838 3513 2113 
z
" transform="scale(0.015625)"/>
       <path id="DejaVuSans-3" transform="scale(0.015625)"/>
       <path id="DejaVuSans-36" d="M 3425 4513 
L 3425 3897 
Q 3066 4069 2747 4153 
Q 2428 4238 2131 4238 
Q 1616 4238 1336 4038 
Q 1056 3838 1056 3469 
Q 1056 3159 1242 3001 
Q 1428 2844 1947 2747 
L 2328 2669 
Q 3034 2534 3370 2195 
Q 3706 1856 3706 1288 
Q 3706 609 3251 259 
Q 2797 -91 1919 -91 
Q 1588 -91 1214 -16 
Q 841 59 441 206 
L 441 856 
Q 825 641 1194 531 
Q 1563 422 1919 422 
Q 2459 422 2753 634 
Q 3047 847 3047 1241 
Q 3047 1584 2836 1778 
Q 2625 1972 2144 2069 
L 1759 2144 
Q 1053 2284 737 2584 
Q 422 2884 422 3419 
Q 422 4038 858 4394 
Q 1294 4750 2059 4750 
Q 2388 4750 2728 4690 
Q 3069 4631 3425 4513 
z
" transform="scale(0.015625)"/>
       <path id="DejaVuSans-48" d="M 3597 1894 
L 3597 1613 
L 953 1613 
Q 991 1019 1311 708 
Q 1631 397 2203 397 
Q 2534 397 2845 478 
Q 3156 559 3463 722 
L 3463 178 
Q 3153 47 2828 -22 
Q 2503 -91 2169 -91 
Q 1331 -91 842 396 
Q 353 884 353 1716 
Q 353 2575 817 3079 
Q 1281 3584 2069 3584 
Q 2775 3584 3186 3129 
Q 3597 2675 3597 1894 
z
M 3022 2063 
Q 3016 2534 2758 2815 
Q 2500 3097 2075 3097 
Q 1594 3097 1305 2825 
Q 1016 2553 972 2059 
L 3022 2063 
z
" transform="scale(0.015625)"/>
      </defs>
      <use xlink:href="#DejaVuSans-32"/>
      <use xlink:href="#DejaVuSans-53" transform="translate(78.71875 0)"/>
      <use xlink:href="#DejaVuSans-57" transform="translate(142.203125 0)"/>
      <use xlink:href="#DejaVuSans-4c" transform="translate(181.40625 0)"/>
      <use xlink:href="#DejaVuSans-50" transform="translate(209.1875 0)"/>
      <use xlink:href="#DejaVuSans-4c" transform="translate(306.59375 0)"/>
      <use xlink:href="#DejaVuSans-5d" transform="translate(334.375 0)"/>
      <use xlink:href="#DejaVuSans-44" transform="translate(386.859375 0)"/>
      <use xlink:href="#DejaVuSans-57" transform="translate(448.140625 0)"/>
      <use xlink:href="#DejaVuSans-4c" transform="translate(487.34375 0)"/>
      <use xlink:href="#DejaVuSans-52" transform="translate(515.125 0)"/>
      <use xlink:href="#DejaVuSans-51" transform="translate(576.3125 0)"/>
      <use xlink:href="#DejaVuSans-3" transform="translate(639.6875 0)"/>
      <use xlink:href="#DejaVuSans-36" transform="translate(671.46875 0)"/>
      <use xlink:href="#DejaVuSans-57" transform="translate(734.953125 0)"/>
      <use xlink:href="#DejaVuSans-48" transform="translate(774.15625 0)"/>
      <use xlink:href="#DejaVuSans-53" transform="translate(835.6875 0)"/>
     </g>
    </g>
   </g>
   <g id="matplotlib.axis_2">
    <g id="ytick_1">
     <g id="line2d_7">
      <defs>
       <path id="ma7f4a531e1" d="M 0 0 
L -3.5 0 
" style="stroke: #000000; stroke-width: 0.8"/>
      </defs>
      <g>
       <use xlink:href="#ma7f4a531e1" x="46.89" y="135.44" style="stroke: #000000; stroke-width: 0.8"/>
      </g>
     </g>
     <g id="text_8">
      <!-- 0 -->
      <g transform="translate(34.8 138.479062) scale(0.08 -0.08)">
       <use xlink:href="#DejaVuSans-13"/>
      </g>
     </g>
    </g>
    <g id="ytick_2">
     <g id="line2d_8">
      <g>
       <use xlink:href="#ma7f4a531e1" x="46.89" y="119.069883" style="stroke: #000000; stroke-width: 0.8"/>
      </g>
     </g>
     <g id="text_9">
      <!-- 2500 -->
      <g transform="translate(19.53 122.108945) scale(0.08 -0.08)">
       <defs>
        <path id="DejaVuSans-18" d="M 691 4666 
L 3169 4666 
L 3169 4134 
L 1269 4134 
L 1269 2991 
Q 1406 3038 1543 3061 
Q 1681 3084 1819 3084 
Q 2600 3084 3056 2656 
Q 3513 2228 3513 1497 
Q 3513 744 3044 326 
Q 2575 -91 1722 -91 
Q 1428 -91 1123 -41 
Q 819 9 494 109 
L 494 744 
Q 775 591 1075 516 
Q 1375 441 1709 441 
Q 2250 441 2565 725 
Q 2881 1009 2881 1497 
Q 2881 1984 2565 2268 
Q 2250 2553 1709 2553 
Q 1456 2553 1204 2497 
Q 953 2441 691 2322 
L 691 4666 
z
" transform="scale(0.015625)"/>
       </defs>
       <use xlink:href="#DejaVuSans-15"/>
       <use xlink:href="#DejaVuSans-18" transform="translate(63.625 0)"/>
       <use xlink:href="#DejaVuSans-13" transform="translate(127.25 0)"/>
       <use xlink:href="#DejaVuSans-13" transform="translate(190.875 0)"/>
      </g>
     </g>
    </g>
    <g id="ytick_3">
     <g id="line2d_9">
      <g>
       <use xlink:href="#ma7f4a531e1" x="46.89" y="102.699766" style="stroke: #000000; stroke-width: 0.8"/>
      </g>
     </g>
     <g id="text_10">
      <!-- 5000 -->
      <g transform="translate(19.53 105.738828) scale(0.08 -0.08)">
       <use xlink:href="#DejaVuSans-18"/>
       <use xlink:href="#DejaVuSans-13" transform="translate(63.625 0)"/>
       <use xlink:href="#DejaVuSans-13" transform="translate(127.25 0)"/>
       <use xlink:href="#DejaVuSans-13" transform="translate(190.875 0)"/>
      </g>
     </g>
    </g>
    <g id="ytick_4">
     <g id="line2d_10">
      <g>
       <use xlink:href="#ma7f4a531e1" x="46.89" y="86.329648" style="stroke: #000000; stroke-width: 0.8"/>
      </g>
     </g>
     <g id="text_11">
      <!-- 7500 -->
      <g transform="translate(19.53 89.368711) scale(0.08 -0.08)">
       <defs>
        <path id="DejaVuSans-1a" d="M 525 4666 
L 3525 4666 
L 3525 4397 
L 1831 0 
L 1172 0 
L 2766 4134 
L 525 4134 
L 525 4666 
z
" transform="scale(0.015625)"/>
       </defs>
       <use xlink:href="#DejaVuSans-1a"/>
       <use xlink:href="#DejaVuSans-18" transform="translate(63.625 0)"/>
       <use xlink:href="#DejaVuSans-13" transform="translate(127.25 0)"/>
       <use xlink:href="#DejaVuSans-13" transform="translate(190.875 0)"/>
      </g>
     </g>
    </g>
    <g id="ytick_5">
     <g id="line2d_11">
      <g>
       <use xlink:href="#ma7f4a531e1" x="46.89" y="69.959531" style="stroke: #000000; stroke-width: 0.8"/>
      </g>
     </g>
     <g id="text_12">
      <!-- 10000 -->
      <g transform="translate(14.44 72.998594) scale(0.08 -0.08)">
       <use xlink:href="#DejaVuSans-14"/>
       <use xlink:href="#DejaVuSans-13" transform="translate(63.625 0)"/>
       <use xlink:href="#DejaVuSans-13" transform="translate(127.25 0)"/>
       <use xlink:href="#DejaVuSans-13" transform="translate(190.875 0)"/>
       <use xlink:href="#DejaVuSans-13" transform="translate(254.5 0)"/>
      </g>
     </g>
    </g>
    <g id="ytick_6">
     <g id="line2d_12">
      <g>
       <use xlink:href="#ma7f4a531e1" x="46.89" y="53.589414" style="stroke: #000000; stroke-width: 0.8"/>
      </g>
     </g>
     <g id="text_13">
      <!-- 12500 -->
      <g transform="translate(14.44 56.628477) scale(0.08 -0.08)">
       <use xlink:href="#DejaVuSans-14"/>
       <use xlink:href="#DejaVuSans-15" transform="translate(63.625 0)"/>
       <use xlink:href="#DejaVuSans-18" transform="translate(127.25 0)"/>
       <use xlink:href="#DejaVuSans-13" transform="translate(190.875 0)"/>
       <use xlink:href="#DejaVuSans-13" transform="translate(254.5 0)"/>
      </g>
     </g>
    </g>
    <g id="ytick_7">
     <g id="line2d_13">
      <g>
       <use xlink:href="#ma7f4a531e1" x="46.89" y="37.219297" style="stroke: #000000; stroke-width: 0.8"/>
      </g>
     </g>
     <g id="text_14">
      <!-- 15000 -->
      <g transform="translate(14.44 40.258359) scale(0.08 -0.08)">
       <use xlink:href="#DejaVuSans-14"/>
       <use xlink:href="#DejaVuSans-18" transform="translate(63.625 0)"/>
       <use xlink:href="#DejaVuSans-13" transform="translate(127.25 0)"/>
       <use xlink:href="#DejaVuSans-13" transform="translate(190.875 0)"/>
       <use xlink:href="#DejaVuSans-13" transform="translate(254.5 0)"/>
      </g>
     </g>
    </g>
    <g id="ytick_8">
     <g id="line2d_14">
      <g>
       <use xlink:href="#ma7f4a531e1" x="46.89" y="20.84918" style="stroke: #000000; stroke-width: 0.8"/>
      </g>
     </g>
     <g id="text_15">
      <!-- 17500 -->
      <g transform="translate(14.44 23.888242) scale(0.08 -0.08)">
       <use xlink:href="#DejaVuSans-14"/>
       <use xlink:href="#DejaVuSans-1a" transform="translate(63.625 0)"/>
       <use xlink:href="#DejaVuSans-18" transform="translate(127.25 0)"/>
       <use xlink:href="#DejaVuSans-13" transform="translate(190.875 0)"/>
       <use xlink:href="#DejaVuSans-13" transform="translate(254.5 0)"/>
      </g>
     </g>
    </g>
    <g id="ytick_9">
     <g id="line2d_15">
      <g>
       <use xlink:href="#ma7f4a531e1" x="46.89" y="4.479062" style="stroke: #000000; stroke-width: 0.8"/>
      </g>
     </g>
     <g id="text_16">
      <!-- 20000 -->
      <g transform="translate(14.44 7.518125) scale(0.08 -0.08)">
       <use xlink:href="#DejaVuSans-15"/>
       <use xlink:href="#DejaVuSans-13" transform="translate(63.625 0)"/>
       <use xlink:href="#DejaVuSans-13" transform="translate(127.25 0)"/>
       <use xlink:href="#DejaVuSans-13" transform="translate(190.875 0)"/>
       <use xlink:href="#DejaVuSans-13" transform="translate(254.5 0)"/>
      </g>
     </g>
    </g>
    <g id="text_17">
     <!-- -ELBO -->
     <g transform="translate(8.277891 83.484844) rotate(-90) scale(0.09 -0.09)">
      <defs>
       <path id="DejaVuSans-10" d="M 313 2009 
L 1997 2009 
L 1997 1497 
L 313 1497 
L 313 2009 
z
" transform="scale(0.015625)"/>
       <path id="DejaVuSans-28" d="M 628 4666 
L 3578 4666 
L 3578 4134 
L 1259 4134 
L 1259 2753 
L 3481 2753 
L 3481 2222 
L 1259 2222 
L 1259 531 
L 3634 531 
L 3634 0 
L 628 0 
L 628 4666 
z
" transform="scale(0.015625)"/>
       <path id="DejaVuSans-2f" d="M 628 4666 
L 1259 4666 
L 1259 531 
L 3531 531 
L 3531 0 
L 628 0 
L 628 4666 
z
" transform="scale(0.015625)"/>
       <path id="DejaVuSans-25" d="M 1259 2228 
L 1259 519 
L 2272 519 
Q 2781 519 3026 730 
Q 3272 941 3272 1375 
Q 3272 1813 3026 2020 
Q 2781 2228 2272 2228 
L 1259 2228 
z
M 1259 4147 
L 1259 2741 
L 2194 2741 
Q 2656 2741 2882 2914 
Q 3109 3088 3109 3444 
Q 3109 3797 2882 3972 
Q 2656 4147 2194 4147 
L 1259 4147 
z
M 628 4666 
L 2241 4666 
Q 2963 4666 3353 4366 
Q 3744 4066 3744 3513 
Q 3744 3084 3544 2831 
Q 3344 2578 2956 2516 
Q 3422 2416 3680 2098 
Q 3938 1781 3938 1306 
Q 3938 681 3513 340 
Q 3088 0 2303 0 
L 628 0 
L 628 4666 
z
" transform="scale(0.015625)"/>
      </defs>
      <use xlink:href="#DejaVuSans-10"/>
      <use xlink:href="#DejaVuSans-28" transform="translate(36.078125 0)"/>
      <use xlink:href="#DejaVuSans-2f" transform="translate(99.265625 0)"/>
      <use xlink:href="#DejaVuSans-25" transform="translate(154.984375 0)"/>
      <use xlink:href="#DejaVuSans-32" transform="translate(221.84375 0)"/>
     </g>
    </g>
   </g>
   <g id="line2d_16">
    <path d="M 55.491083 119.976225 
L 55.491179 -1 
M 55.835375 -1 
L 55.835471 120.68431 
L 56.007665 119.490796 
L 56.352052 119.417748 
L 56.524246 120.716427 
L 56.69644 126.122849 
L 56.868634 122.559071 
L 57.040828 121.948085 
L 57.213022 119.064622 
L 57.385216 120.482824 
L 57.557409 117.076736 
L 57.557503 -1 
M 57.901705 -1 
L 57.901797 116.389426 
L 58.073991 122.533672 
L 58.246185 119.450832 
L 58.418379 120.161814 
L 58.762766 122.496036 
L 58.93496 114.730787 
L 59.107154 124.354824 
L 59.279348 123.788789 
L 59.451542 95.217052 
L 59.623736 119.585786 
L 59.79593 125.957316 
L 59.968123 123.447339 
L 60.140317 126.855483 
L 60.312511 124.124528 
L 60.484705 124.484843 
L 60.656899 109.628737 
L 60.829093 128.067324 
L 61.001287 127.009458 
L 61.17348 126.855817 
L 61.345674 119.350234 
L 61.517868 120.956438 
L 61.690062 128.422469 
L 62.03445 112.771971 
L 62.206644 123.984783 
L 62.378837 120.136602 
L 62.378933 -1 
M 62.72313 -1 
L 62.723225 119.979532 
L 62.895419 119.065907 
L 63.067613 127.645623 
L 63.067714 -1 
M 63.584094 -1 
L 63.584194 126.411245 
L 63.756388 129.047186 
L 63.928582 122.186709 
L 64.100776 122.972651 
L 64.100874 -1 
M 64.445063 -1 
L 64.445164 126.185067 
L 64.617358 130.353367 
L 64.789551 130.017799 
L 64.961745 129.184806 
L 65.133939 122.55782 
L 65.306133 101.753439 
L 65.306214 -1 
M 65.650419 -1 
L 65.650521 127.8072 
L 65.822715 129.88001 
L 65.994908 128.765308 
L 66.167102 122.106574 
L 66.339296 128.607848 
L 66.51149 127.484802 
L 66.855878 122.514239 
L 67.200265 130.055809 
L 67.372459 121.756193 
L 67.544653 127.079072 
L 67.716847 115.879726 
L 67.889041 126.728544 
L 68.061235 118.106059 
L 68.233429 129.08087 
L 68.405622 120.689298 
L 68.577816 122.316505 
L 68.75001 126.546067 
L 68.922204 123.036962 
L 69.094398 130.786362 
L 69.266592 129.30911 
L 69.438785 126.609611 
L 69.610979 129.689267 
L 69.783173 114.628122 
L 70.127561 126.421183 
L 70.299755 126.663095 
L 70.471949 123.295098 
L 70.644142 127.560234 
L 70.816336 123.103075 
L 71.160724 127.643295 
L 71.332918 121.943352 
L 71.505112 121.731576 
L 71.677306 126.276538 
L 71.849499 124.359465 
L 72.021693 124.606491 
L 72.193887 131.093698 
L 72.366081 121.120902 
L 72.538275 127.50138 
L 72.710469 126.455917 
L 72.882663 128.975511 
L 73.054856 129.095866 
L 73.22705 127.52063 
L 73.399244 130.679196 
L 73.571438 130.087018 
L 73.743632 108.967572 
L 73.915826 129.739915 
L 74.08802 129.100615 
L 74.260213 127.643071 
L 74.432407 127.755275 
L 74.604601 130.073658 
L 74.776795 126.509795 
L 74.948989 130.683748 
L 75.121183 122.21831 
L 75.293377 129.250934 
L 75.46557 126.043141 
L 75.637764 128.711238 
L 75.809958 114.813828 
L 75.982152 129.015119 
L 76.154346 123.256591 
L 76.32654 128.22576 
L 76.498734 126.875773 
L 76.670927 126.531951 
L 76.843121 130.449767 
L 77.015315 130.468752 
L 77.187509 126.862409 
L 77.359703 105.291334 
L 77.531897 130.940268 
L 77.704091 130.827186 
L 77.876284 124.156776 
L 78.048478 131.041211 
L 78.220672 130.364404 
L 78.392866 130.295909 
L 78.56506 127.87592 
L 78.737254 128.858241 
L 78.909448 122.80214 
L 79.081641 130.886511 
L 79.253835 114.402988 
L 79.598223 129.994352 
L 79.770417 129.105141 
L 79.942611 130.415414 
L 80.286998 130.249324 
L 80.459192 124.510227 
L 80.631386 128.337485 
L 80.80358 128.7869 
L 81.147968 127.433505 
L 81.320162 131.247837 
L 81.492355 125.808753 
L 81.664549 130.469028 
L 81.836743 125.745454 
L 82.008937 125.937434 
L 82.181131 130.357663 
L 82.353325 124.524061 
L 82.525519 130.446948 
L 82.697712 129.284557 
L 82.869906 130.142929 
L 83.0421 128.928527 
L 83.214294 130.360648 
L 83.386488 129.411324 
L 83.558682 130.008497 
L 83.730876 131.606955 
L 83.903069 130.215548 
L 84.075263 125.518898 
L 84.419651 130.970839 
L 84.591845 130.713166 
L 84.764039 128.781705 
L 84.936233 131.160802 
L 85.108426 130.64999 
L 85.28062 128.699104 
L 85.797202 131.312058 
L 85.969396 128.254376 
L 86.14159 130.238148 
L 86.313783 126.205853 
L 86.485977 128.948387 
L 86.658171 129.488024 
L 86.830365 131.482587 
L 87.174753 127.921064 
L 87.346947 130.686691 
L 87.691334 128.054794 
L 87.863528 129.983209 
L 88.035722 130.025955 
L 88.207916 128.616609 
L 88.38011 131.086839 
L 88.724497 130.799469 
L 88.896691 126.626218 
L 89.068885 131.492859 
L 89.241079 126.981258 
L 89.413273 129.425043 
L 89.757661 130.357847 
L 89.929854 130.139557 
L 90.102048 129.439488 
L 90.274242 61.947798 
L 90.446436 121.222419 
L 90.61863 128.166036 
L 90.790824 126.374763 
L 90.963018 130.260591 
L 91.135211 128.818736 
L 91.307405 130.938562 
L 91.479599 129.53387 
L 91.651793 129.76354 
L 91.823987 116.700937 
L 91.996181 130.485031 
L 92.168375 128.869095 
L 92.340568 124.444619 
L 92.512762 129.782011 
L 92.684956 127.183301 
L 92.85715 128.61749 
L 93.029344 110.70035 
L 93.201538 127.213544 
L 93.373732 125.166739 
L 93.545925 131.569192 
L 93.718119 129.047657 
L 93.890313 128.709857 
L 94.062507 129.288812 
L 94.234701 128.887454 
L 94.406895 129.752923 
L 94.579089 128.936987 
L 94.751282 129.165398 
L 94.923476 130.560343 
L 95.267864 128.193213 
L 95.440058 130.654186 
L 95.612252 126.794788 
L 95.784446 129.861242 
L 95.956639 127.188695 
L 96.128833 129.129046 
L 96.301027 89.500201 
L 96.473221 121.276563 
L 96.645415 127.045555 
L 96.817609 127.68726 
L 96.989803 131.33046 
L 97.161996 129.091348 
L 97.33419 130.869396 
L 97.678578 131.086102 
L 97.850772 128.569555 
L 98.022966 119.279307 
L 98.19516 130.93938 
L 98.367353 131.258037 
L 98.539547 115.612573 
L 98.711741 130.294465 
L 98.883935 130.993765 
L 99.056129 130.129711 
L 99.400517 125.412786 
L 99.57271 130.908476 
L 99.744904 130.178498 
L 99.917098 128.129742 
L 100.089292 131.087613 
L 100.261486 129.595333 
L 100.43368 123.596688 
L 100.605874 129.980639 
L 100.950261 128.541915 
L 101.122455 127.498093 
L 101.294649 130.764201 
L 101.466843 129.389165 
L 101.639037 130.26479 
L 101.811231 128.657247 
L 101.983424 130.519395 
L 102.155618 130.404463 
L 102.327812 129.273072 
L 102.500006 130.289529 
L 102.6722 128.728124 
L 102.844394 130.306303 
L 103.016588 127.490327 
L 103.188781 130.706095 
L 103.360975 127.713403 
L 103.533169 129.692066 
L 103.705363 114.803762 
L 104.049751 131.15108 
L 104.221944 121.002163 
L 104.394138 131.135822 
L 104.566332 130.780206 
L 104.91072 127.378965 
L 105.082914 131.234472 
L 105.255108 131.213912 
L 105.427301 121.191432 
L 105.599495 131.388751 
L 105.771689 131.009703 
L 105.943883 128.344083 
L 106.116077 130.992624 
L 106.288271 130.376646 
L 106.460465 130.935538 
L 106.632658 130.968498 
L 106.804852 123.260989 
L 106.977046 131.016728 
L 107.493628 128.202017 
L 107.665822 130.588742 
L 107.838015 130.97381 
L 108.010209 128.344788 
L 108.182403 129.292282 
L 108.354597 131.357008 
L 108.698985 130.416035 
L 108.871179 120.760839 
L 109.043372 131.034015 
L 109.215566 121.33254 
L 109.38776 130.99316 
L 109.559954 129.048771 
L 109.732148 130.910913 
L 109.904342 130.810461 
L 110.076536 130.070112 
L 110.248729 130.536124 
L 110.420923 128.547493 
L 110.593117 128.648835 
L 110.765311 127.899958 
L 110.937505 130.527657 
L 111.109699 126.324221 
L 111.281893 131.290662 
L 111.454086 130.835889 
L 111.62628 131.514736 
L 111.798474 126.77177 
L 111.970668 126.040459 
L 112.142862 131.597294 
L 112.315056 131.203134 
L 112.48725 126.077418 
L 112.659443 128.900247 
L 112.831637 126.930457 
L 113.003831 130.67853 
L 113.176025 130.251873 
L 113.348219 129.34527 
L 113.520413 131.536345 
L 113.692607 131.406236 
L 113.8648 131.010853 
L 114.036994 128.803627 
L 114.209188 129.715563 
L 114.381382 131.344693 
L 114.553576 131.039416 
L 114.72577 123.181098 
L 114.897964 130.481612 
L 115.070157 127.573067 
L 115.242351 131.193092 
L 115.414545 131.376127 
L 115.586739 127.50214 
L 115.758933 131.280979 
L 115.931127 130.957801 
L 116.275514 116.833087 
L 116.619902 131.642333 
L 116.792096 130.621018 
L 116.96429 131.106673 
L 117.136484 130.600409 
L 117.480871 116.444022 
L 117.653065 130.812839 
L 117.825259 126.935138 
L 117.997453 130.699969 
L 118.169647 130.03108 
L 118.341841 116.492083 
L 118.514035 129.790462 
L 118.686228 119.976602 
L 118.858422 119.460246 
L 119.030616 130.987698 
L 119.20281 131.64401 
L 119.375004 127.724126 
L 119.547198 131.298982 
L 119.719392 130.115932 
L 119.891585 131.34566 
L 120.063779 129.923829 
L 120.235973 126.882159 
L 120.580361 129.501413 
L 120.924749 130.472203 
L 121.096942 128.308186 
L 121.269136 130.74833 
L 121.44133 129.942774 
L 121.785718 131.425101 
L 121.957912 130.852131 
L 122.130106 122.287935 
L 122.302299 129.532632 
L 122.474493 116.357533 
L 122.646687 130.797029 
L 122.818881 128.950207 
L 122.991075 130.555851 
L 123.163269 129.663452 
L 123.335463 130.310791 
L 123.507656 130.220417 
L 123.67985 129.294556 
L 123.852044 130.401648 
L 124.024238 130.041092 
L 124.196432 129.046442 
L 124.368626 130.445325 
L 124.54082 130.54436 
L 124.713013 131.116459 
L 124.885207 131.056441 
L 125.057401 128.619973 
L 125.229595 128.430329 
L 125.401789 117.305725 
L 125.573983 129.07615 
L 125.746177 129.122612 
L 125.91837 125.89177 
L 126.090564 130.353863 
L 126.262758 127.07432 
L 126.434952 126.916781 
L 126.607146 126.131266 
L 126.77934 130.038194 
L 126.779357 -1 
M 127.12371 -1 
L 127.123727 130.803866 
L 127.468115 123.528509 
L 127.640309 130.41005 
L 127.812503 130.721878 
L 127.984697 127.117839 
L 128.156891 130.254909 
L 128.329084 128.608613 
L 128.501278 131.070301 
L 128.673472 131.055258 
L 128.845666 127.86666 
L 129.01786 119.979444 
L 129.190054 129.1856 
L 129.362248 129.904287 
L 129.534441 120.67679 
L 129.706635 131.464907 
L 129.878829 124.926582 
L 130.051023 129.682148 
L 130.223217 130.580659 
L 130.395411 130.73674 
L 130.567605 124.62618 
L 130.739798 131.162557 
L 131.084186 129.689448 
L 131.25638 131.097018 
L 131.428574 130.181627 
L 131.772962 125.759902 
L 131.945155 129.902479 
L 132.117349 127.714477 
L 132.289543 127.818193 
L 132.461737 129.852514 
L 132.633931 103.924388 
L 132.806125 128.099241 
L 132.978319 130.886389 
L 133.150512 129.507762 
L 133.322706 131.49578 
L 133.4949 127.673921 
L 133.667094 130.707693 
L 133.839288 124.693566 
L 134.011482 131.190845 
L 134.183676 126.607212 
L 134.355869 131.058681 
L 134.528063 129.323864 
L 134.700257 124.259977 
L 134.872451 122.53433 
L 135.044645 130.077396 
L 135.216839 125.737003 
L 135.389033 130.180744 
L 135.561226 127.447382 
L 135.73342 115.799579 
L 135.905614 128.333241 
L 136.077808 129.299979 
L 136.250002 128.630416 
L 136.422196 131.139154 
L 136.59439 131.7483 
L 136.766583 129.700297 
L 136.938777 130.598275 
L 137.110971 110.642973 
L 137.283165 130.780798 
L 137.455359 130.751791 
L 137.627553 128.798426 
L 137.799747 131.149219 
L 137.97194 131.235218 
L 138.144134 130.734437 
L 138.316328 128.551784 
L 138.488522 131.321613 
L 138.660716 131.150547 
L 138.83291 126.216708 
L 139.005103 130.605111 
L 139.177297 129.239271 
L 139.349491 129.368531 
L 139.521685 126.843758 
L 139.693879 126.81308 
L 139.866073 131.456073 
L 140.038267 131.223587 
L 140.21046 130.634157 
L 140.382654 131.232681 
L 140.727042 130.492312 
L 140.899236 131.518049 
L 141.07143 121.020825 
L 141.243624 128.887006 
L 141.415817 129.738214 
L 141.588011 118.282229 
L 141.760205 129.083018 
L 141.932399 130.93531 
L 142.104593 126.517361 
L 142.276787 125.112682 
L 142.448981 129.813701 
L 142.621174 123.461781 
L 142.793368 130.971056 
L 142.965562 130.554585 
L 143.137756 131.318334 
L 143.30995 121.393714 
L 143.482144 126.491383 
L 143.654338 122.522524 
L 143.826531 130.959026 
L 143.998725 128.33778 
L 144.170919 131.525359 
L 144.343113 130.551669 
L 144.515307 130.657159 
L 144.687501 128.757744 
L 144.859695 118.018705 
L 145.204082 130.670501 
L 145.376276 129.694953 
L 145.720664 130.820935 
L 145.892858 124.295711 
L 146.065052 129.869673 
L 146.237245 131.084554 
L 146.409439 130.898571 
L 146.581633 131.46465 
L 146.753827 131.573646 
L 147.098215 130.340387 
L 147.270409 131.390182 
L 147.442602 130.859531 
L 147.614796 130.942716 
L 147.78699 130.784262 
L 147.959184 127.425587 
L 148.131378 131.026363 
L 148.303572 131.375885 
L 148.475766 126.130853 
L 148.647959 131.271555 
L 148.820153 119.90746 
L 148.992347 131.108449 
L 149.164541 130.657417 
L 149.336735 130.91507 
L 149.336752 -1 
M 149.681106 -1 
L 149.681123 126.590471 
L 149.853316 131.059673 
L 150.02551 130.859264 
L 150.197704 130.299042 
L 150.369898 130.745 
L 150.542092 130.101389 
L 150.714286 131.521912 
L 150.88648 130.710054 
L 151.230867 131.136101 
L 151.403061 128.687957 
L 151.575255 120.969951 
L 151.747449 130.781421 
L 151.919643 130.460865 
L 152.091837 119.110215 
L 152.26403 131.420331 
L 152.436224 129.130201 
L 152.608418 131.513526 
L 152.780612 131.071607 
L 152.952806 131.15435 
L 153.125 129.119638 
L 153.297194 129.607414 
L 153.469387 124.722533 
L 153.813775 131.449712 
L 153.985969 131.561484 
L 154.158163 131.308625 
L 154.330357 130.670858 
L 154.502551 128.110336 
L 154.674744 131.068922 
L 154.846938 129.660927 
L 155.019132 125.280637 
L 155.191326 130.786333 
L 155.535714 129.108104 
L 155.707908 130.826124 
L 155.880101 130.698616 
L 156.052295 131.375378 
L 156.224489 130.103462 
L 156.568877 131.624967 
L 157.085458 126.478769 
L 157.429846 131.353205 
L 157.60204 130.147116 
L 157.774234 131.105731 
L 157.946428 130.644723 
L 158.118622 131.383356 
L 158.290815 131.182937 
L 158.463009 119.174026 
L 158.635203 130.429525 
L 158.807397 130.974611 
L 158.979591 130.775935 
L 159.151785 126.265554 
L 159.323979 127.728739 
L 159.496172 130.201251 
L 159.668366 130.659805 
L 159.84056 124.277384 
L 160.012754 131.145257 
L 160.184948 105.071175 
L 160.357142 129.933485 
L 160.529336 131.389157 
L 160.701529 131.534116 
L 160.873723 130.616079 
L 161.045917 126.345989 
L 161.218111 129.679399 
L 161.390305 127.915135 
L 161.562499 131.05964 
L 161.734693 131.201155 
L 161.906886 127.087531 
L 162.251274 131.210541 
L 162.423468 119.803282 
L 162.595662 127.418348 
L 162.767856 102.565198 
L 162.94005 131.307885 
L 163.112243 131.217349 
L 163.456631 125.800102 
L 163.973213 130.801145 
L 164.145407 121.774153 
L 164.3176 130.978418 
L 164.489794 131.19218 
L 164.661988 129.219437 
L 164.834182 130.265647 
L 165.006376 98.498685 
L 165.17857 130.770004 
L 165.350764 120.258227 
L 165.522957 130.217334 
L 165.695151 129.481978 
L 165.867345 131.378181 
L 166.039539 129.528042 
L 166.211733 129.564417 
L 166.383927 128.333014 
L 166.556121 129.201933 
L 166.728314 131.340479 
L 167.072702 130.417853 
L 167.244896 128.321205 
L 167.589284 131.283093 
L 168.105865 131.29697 
L 168.278059 129.667739 
L 168.450253 131.32905 
L 168.622447 130.187376 
L 168.794641 131.010315 
L 168.966835 125.30036 
L 169.139028 130.600691 
L 169.311222 130.084769 
L 169.483416 131.66461 
L 169.65561 124.284477 
L 169.827804 126.269297 
L 169.999998 122.883753 
L 170.172192 131.507976 
L 170.344385 110.138293 
L 170.516579 131.340479 
L 170.688773 127.849152 
L 170.860967 131.182148 
L 171.033161 118.852894 
L 171.205355 130.096277 
L 171.377549 111.712351 
L 171.549742 131.096925 
L 171.721936 131.282861 
L 171.89413 121.387138 
L 172.066324 128.850009 
L 172.238518 130.892812 
L 172.582905 130.784387 
L 172.755099 125.114466 
L 172.927293 131.148606 
L 173.099487 125.584556 
L 173.271681 130.789794 
L 173.443875 131.51388 
L 173.616069 131.472541 
L 173.960456 127.435191 
L 174.13265 130.44262 
L 174.304844 129.370882 
L 174.477038 129.553097 
L 174.821426 131.294992 
L 174.993619 131.746878 
L 175.165813 131.437813 
L 175.338007 129.520508 
L 175.510201 131.300749 
L 175.854589 126.380361 
L 176.026783 130.580372 
L 176.37117 131.626721 
L 176.543364 131.10451 
L 176.887752 124.612671 
L 177.059946 131.44564 
L 177.404333 131.550493 
L 177.748721 130.826782 
L 177.920915 129.494177 
L 178.093109 130.255907 
L 178.265303 115.84093 
L 178.437497 121.008854 
L 178.60969 130.833205 
L 178.781884 131.268014 
L 178.954078 130.878745 
L 179.126272 129.835445 
L 179.298466 131.311426 
L 179.47066 131.171741 
L 179.642854 131.331536 
L 179.815047 123.847557 
L 179.987241 130.901248 
L 180.159435 130.224989 
L 180.331629 131.057192 
L 180.676017 127.531786 
L 180.848211 128.860394 
L 181.020404 126.681081 
L 181.192598 130.897408 
L 181.364792 131.489244 
L 181.70918 130.53689 
L 181.881374 130.391242 
L 182.053568 130.665445 
L 182.225761 130.354834 
L 182.397955 124.335766 
L 182.570149 128.787023 
L 182.742343 130.174803 
L 182.914537 129.130936 
L 183.086731 130.778672 
L 183.258925 129.719721 
L 183.431118 131.394468 
L 183.603312 129.669893 
L 183.775506 131.118415 
L 184.119894 129.657415 
L 184.292088 105.787071 
L 184.464282 131.675208 
L 184.808669 131.448389 
L 184.980863 130.070124 
L 185.153057 130.820594 
L 185.325251 130.8233 
L 185.669639 128.279962 
L 186.014026 131.218432 
L 186.18622 130.817798 
L 186.358414 130.855181 
L 186.530608 128.430665 
L 186.702802 131.342935 
L 186.874996 128.047528 
L 187.047189 127.416436 
L 187.219383 131.095473 
L 187.391577 130.176266 
L 187.563771 117.790266 
L 187.735965 129.103219 
L 187.908159 126.118004 
L 188.080353 129.907936 
L 188.252546 131.029636 
L 188.42474 131.270705 
L 188.596934 129.950678 
L 188.769128 131.413165 
L 188.941322 131.357668 
L 189.113516 92.152672 
L 189.28571 127.433189 
L 189.457903 128.422629 
L 189.630097 127.554535 
L 189.974485 129.632174 
L 190.318873 127.819404 
L 190.491067 129.603666 
L 190.66326 129.868865 
L 190.835454 131.746955 
L 191.007648 131.331101 
L 191.179842 124.857659 
L 191.352036 130.865495 
L 191.52423 130.789591 
L 191.696424 128.854343 
L 191.868617 131.532004 
L 192.213005 130.99936 
L 192.385199 131.366485 
L 192.557393 131.385658 
L 192.729587 131.520967 
L 192.901781 130.859778 
L 193.073974 131.51383 
L 193.246168 131.198925 
L 193.246186 -1 
M 193.590539 -1 
L 193.590556 128.928272 
L 193.76275 131.395237 
L 193.934944 129.83655 
L 194.107138 131.511547 
L 194.451525 129.565112 
L 194.623719 131.21849 
L 194.795913 121.364299 
L 194.968107 129.343319 
L 195.656882 131.471993 
L 196.00127 128.780989 
L 196.173464 129.368417 
L 196.345658 131.12321 
L 196.517852 131.156163 
L 196.690045 130.900407 
L 196.862239 130.229099 
L 197.034433 131.118032 
L 197.206627 128.929847 
L 197.378821 110.474881 
L 197.551015 130.24149 
L 197.723209 128.835721 
L 197.895402 130.66872 
L 198.067596 129.957909 
L 198.23979 129.911818 
L 198.411984 124.586561 
L 198.584178 131.027744 
L 198.756372 131.33653 
L 198.928566 130.835994 
L 199.100759 131.404743 
L 199.272953 131.576357 
L 199.445147 118.91175 
L 199.617341 121.964793 
L 199.789535 131.25219 
L 199.961729 124.96717 
L 200.133923 131.527662 
L 200.47831 130.024912 
L 200.650504 131.643441 
L 200.822698 130.37196 
L 200.994892 131.012672 
L 201.167086 126.692108 
L 201.33928 131.533884 
L 201.511473 102.200893 
L 201.683667 131.076367 
L 201.855861 130.675636 
L 202.028055 127.646644 
L 202.200249 131.591936 
L 202.372443 129.876209 
L 202.544637 131.324003 
L 202.71683 129.053743 
L 202.889024 131.204739 
L 203.061218 128.351347 
L 203.233412 130.945878 
L 203.405606 130.986688 
L 203.5778 131.159474 
L 203.749994 122.637923 
L 204.094381 130.610431 
L 204.266575 130.153995 
L 204.438769 131.395167 
L 204.610963 130.74001 
L 204.783157 131.159043 
L 204.955351 127.122768 
L 205.127544 130.827028 
L 205.299738 130.73897 
L 205.471932 130.857696 
L 205.81632 130.806979 
L 205.988514 130.188305 
L 206.160708 129.068997 
L 206.332901 131.33679 
L 206.505095 131.246014 
L 206.677289 127.98481 
L 206.849483 130.775643 
L 207.021677 118.241988 
L 207.193871 131.025644 
L 207.538258 130.877783 
L 207.710452 131.403901 
L 207.882646 130.963013 
L 208.05484 129.483602 
L 208.227034 131.485238 
L 208.399228 129.627341 
L 208.571421 131.355789 
L 208.743615 130.220584 
L 208.915809 112.515032 
L 209.088003 131.340077 
L 209.260197 129.796675 
L 209.432391 131.706378 
L 209.604585 129.46944 
L 209.776778 129.962178 
L 209.948972 131.073486 
L 210.121166 131.168282 
L 210.29336 126.109184 
L 210.465554 129.435659 
L 210.637748 129.235752 
L 210.982135 131.738396 
L 211.154329 131.721821 
L 211.326523 131.048955 
L 211.498717 131.423503 
L 211.670911 129.196699 
L 211.843105 130.537358 
L 212.187492 131.693613 
L 212.53188 128.224381 
L 212.704074 131.117955 
L 213.048462 128.098261 
L 213.392849 131.563205 
L 213.565043 131.149336 
L 213.737237 126.903452 
L 213.909431 131.4568 
L 214.081625 129.944931 
L 214.253819 131.605966 
L 214.598206 130.971003 
L 214.942594 128.193116 
L 215.459176 131.085084 
L 215.63137 129.978584 
L 215.803563 131.287686 
L 215.975757 131.241479 
L 216.147951 130.620681 
L 216.320145 131.492655 
L 216.492339 130.908768 
L 216.664533 130.833833 
L 216.836727 130.118353 
L 217.00892 131.520644 
L 217.353308 131.626512 
L 217.525502 131.336132 
L 217.697696 131.693331 
L 217.86989 126.141607 
L 218.042084 130.704041 
L 218.214277 129.479071 
L 218.386471 126.829281 
L 218.558665 131.656732 
L 218.730859 131.137542 
L 218.903053 130.093672 
L 219.075247 122.115392 
L 219.419634 130.65501 
L 219.591828 131.47289 
L 219.764022 130.590293 
L 219.936216 131.31621 
L 220.10841 130.564943 
L 220.452798 131.43642 
L 220.624991 130.287516 
L 220.797185 125.736569 
L 220.969379 130.932062 
L 221.141573 131.644006 
L 221.313767 131.189691 
L 221.485961 129.487649 
L 221.658155 131.376619 
L 221.830348 131.180581 
L 222.002542 130.477786 
L 222.174736 131.534873 
L 222.34693 130.4068 
L 222.519124 130.635664 
L 222.691318 126.543972 
L 222.863512 131.101325 
L 223.035705 131.13337 
L 223.207899 126.839697 
L 223.380093 131.124854 
L 223.552287 130.304171 
L 223.724481 127.313453 
L 224.068869 130.863275 
L 224.241062 131.578423 
L 224.413256 127.802476 
L 224.58545 131.553663 
L 224.757644 131.639865 
L 224.929838 131.093279 
L 225.102032 128.941587 
L 225.274226 130.96595 
L 225.446419 119.564774 
L 225.618613 131.35169 
L 225.790807 130.940599 
L 225.963001 131.605077 
L 226.135195 120.745204 
L 226.307389 131.057173 
L 226.479583 128.483378 
L 226.651776 131.276487 
L 226.82397 126.821682 
L 226.996164 130.646642 
L 227.168358 130.644979 
L 227.340552 129.876798 
L 227.512746 130.381791 
L 227.512746 130.381791 
" clip-path="url(#p124eb44130)" style="fill: none; stroke: #262626; stroke-width: 2; stroke-linecap: square"/>
   </g>
   <g id="patch_3">
    <path d="M 46.89 135.44 
L 46.89 4.479062 
" style="fill: none; stroke: #000000; stroke-width: 0.8; stroke-linejoin: miter; stroke-linecap: square"/>
   </g>
   <g id="patch_4">
    <path d="M 46.89 135.44 
L 236.113829 135.44 
" style="fill: none; stroke: #000000; stroke-width: 0.8; stroke-linejoin: miter; stroke-linecap: square"/>
   </g>
   <g id="legend_1">
    <g id="line2d_17">
     <path d="M 106.220079 14.957812 
L 114.220079 14.957812 
L 122.220079 14.957812 
" style="fill: none; stroke: #262626; stroke-width: 2; stroke-linecap: square"/>
    </g>
    <g id="text_18">
     <!-- training_time = 2.89 min -->
     <g transform="translate(128.620079 17.757812) scale(0.08 -0.08)">
      <defs>
       <path id="DejaVuSans-55" d="M 2631 2963 
Q 2534 3019 2420 3045 
Q 2306 3072 2169 3072 
Q 1681 3072 1420 2755 
Q 1159 2438 1159 1844 
L 1159 0 
L 581 0 
L 581 3500 
L 1159 3500 
L 1159 2956 
Q 1341 3275 1631 3429 
Q 1922 3584 2338 3584 
Q 2397 3584 2469 3576 
Q 2541 3569 2628 3553 
L 2631 2963 
z
" transform="scale(0.015625)"/>
       <path id="DejaVuSans-4a" d="M 2906 1791 
Q 2906 2416 2648 2759 
Q 2391 3103 1925 3103 
Q 1463 3103 1205 2759 
Q 947 2416 947 1791 
Q 947 1169 1205 825 
Q 1463 481 1925 481 
Q 2391 481 2648 825 
Q 2906 1169 2906 1791 
z
M 3481 434 
Q 3481 -459 3084 -895 
Q 2688 -1331 1869 -1331 
Q 1566 -1331 1297 -1286 
Q 1028 -1241 775 -1147 
L 775 -588 
Q 1028 -725 1275 -790 
Q 1522 -856 1778 -856 
Q 2344 -856 2625 -561 
Q 2906 -266 2906 331 
L 2906 616 
Q 2728 306 2450 153 
Q 2172 0 1784 0 
Q 1141 0 747 490 
Q 353 981 353 1791 
Q 353 2603 747 3093 
Q 1141 3584 1784 3584 
Q 2172 3584 2450 3431 
Q 2728 3278 2906 2969 
L 2906 3500 
L 3481 3500 
L 3481 434 
z
" transform="scale(0.015625)"/>
       <path id="DejaVuSans-42" d="M 3263 -1063 
L 3263 -1509 
L -63 -1509 
L -63 -1063 
L 3263 -1063 
z
" transform="scale(0.015625)"/>
       <path id="DejaVuSans-20" d="M 678 2906 
L 4684 2906 
L 4684 2381 
L 678 2381 
L 678 2906 
z
M 678 1631 
L 4684 1631 
L 4684 1100 
L 678 1100 
L 678 1631 
z
" transform="scale(0.015625)"/>
       <path id="DejaVuSans-11" d="M 684 794 
L 1344 794 
L 1344 0 
L 684 0 
L 684 794 
z
" transform="scale(0.015625)"/>
       <path id="DejaVuSans-1c" d="M 703 97 
L 703 672 
Q 941 559 1184 500 
Q 1428 441 1663 441 
Q 2288 441 2617 861 
Q 2947 1281 2994 2138 
Q 2813 1869 2534 1725 
Q 2256 1581 1919 1581 
Q 1219 1581 811 2004 
Q 403 2428 403 3163 
Q 403 3881 828 4315 
Q 1253 4750 1959 4750 
Q 2769 4750 3195 4129 
Q 3622 3509 3622 2328 
Q 3622 1225 3098 567 
Q 2575 -91 1691 -91 
Q 1453 -91 1209 -44 
Q 966 3 703 97 
z
M 1959 2075 
Q 2384 2075 2632 2365 
Q 2881 2656 2881 3163 
Q 2881 3666 2632 3958 
Q 2384 4250 1959 4250 
Q 1534 4250 1286 3958 
Q 1038 3666 1038 3163 
Q 1038 2656 1286 2365 
Q 1534 2075 1959 2075 
z
" transform="scale(0.015625)"/>
      </defs>
      <use xlink:href="#DejaVuSans-57"/>
      <use xlink:href="#DejaVuSans-55" transform="translate(39.203125 0)"/>
      <use xlink:href="#DejaVuSans-44" transform="translate(80.3125 0)"/>
      <use xlink:href="#DejaVuSans-4c" transform="translate(141.59375 0)"/>
      <use xlink:href="#DejaVuSans-51" transform="translate(169.375 0)"/>
      <use xlink:href="#DejaVuSans-4c" transform="translate(232.75 0)"/>
      <use xlink:href="#DejaVuSans-51" transform="translate(260.53125 0)"/>
      <use xlink:href="#DejaVuSans-4a" transform="translate(323.90625 0)"/>
      <use xlink:href="#DejaVuSans-42" transform="translate(387.390625 0)"/>
      <use xlink:href="#DejaVuSans-57" transform="translate(437.390625 0)"/>
      <use xlink:href="#DejaVuSans-4c" transform="translate(476.59375 0)"/>
      <use xlink:href="#DejaVuSans-50" transform="translate(504.375 0)"/>
      <use xlink:href="#DejaVuSans-48" transform="translate(601.78125 0)"/>
      <use xlink:href="#DejaVuSans-3" transform="translate(663.3125 0)"/>
      <use xlink:href="#DejaVuSans-20" transform="translate(695.09375 0)"/>
      <use xlink:href="#DejaVuSans-3" transform="translate(778.890625 0)"/>
      <use xlink:href="#DejaVuSans-15" transform="translate(810.671875 0)"/>
      <use xlink:href="#DejaVuSans-11" transform="translate(874.296875 0)"/>
      <use xlink:href="#DejaVuSans-1b" transform="translate(906.078125 0)"/>
      <use xlink:href="#DejaVuSans-1c" transform="translate(969.703125 0)"/>
      <use xlink:href="#DejaVuSans-3" transform="translate(1033.328125 0)"/>
      <use xlink:href="#DejaVuSans-50" transform="translate(1065.109375 0)"/>
      <use xlink:href="#DejaVuSans-4c" transform="translate(1162.515625 0)"/>
      <use xlink:href="#DejaVuSans-51" transform="translate(1190.296875 0)"/>
     </g>
    </g>
   </g>
  </g>
 </g>
 <defs>
  <clipPath id="p124eb44130">
   <rect x="46.89" y="4.479062" width="189.223829" height="130.960937"/>
  </clipPath>
 </defs>
</svg>