<?xml version="1.0" encoding="utf-8" standalone="no"?>
<!DOCTYPE svg PUBLIC "-//W3C//DTD SVG 1.1//EN"
  "http://www.w3.org/Graphics/SVG/1.1/DTD/svg11.dtd">
<svg xmlns:xlink="http://www.w3.org/1999/xlink" width="405.061pt" height="322.633875pt" viewBox="0 0 405.061 322.633875" xmlns="http://www.w3.org/2000/svg" version="1.1">
 <metadata>
  <rdf:RDF xmlns:dc="http://purl.org/dc/elements/1.1/" xmlns:cc="http://creativecommons.org/ns#" xmlns:rdf="http://www.w3.org/1999/02/22-rdf-syntax-ns#">
   <cc:Work>
    <dc:type rdf:resource="http://purl.org/dc/dcmitype/StillImage"/>
    <dc:date>2024-09-27T20:17:28.260105</dc:date>
    <dc:format>image/svg+xml</dc:format>
    <dc:creator>
     <cc:Agent>
      <dc:title>Matplotlib v3.9.0, https://matplotlib.org/</dc:title>
     </cc:Agent>
    </dc:creator>
   </cc:Work>
  </rdf:RDF>
 </metadata>
 <defs>
  <style type="text/css">*{stroke-linejoin: round; stroke-linecap: butt}</style>
 </defs>
 <g id="figure_1">
  <g id="patch_1">
   <path d="M 0 322.633875 
L 405.061 322.633875 
L 405.061 0 
L 0 0 
z
" style="fill: #ffffff"/>
  </g>
  <g id="axes_1">
   <g id="patch_2">
    <path d="M 40.741 286.3065 
L 397.861 286.3065 
L 397.861 20.1945 
L 40.741 20.1945 
z
" style="fill: #ffffff"/>
   </g>
   <g id="matplotlib.axis_1">
    <g id="xtick_1">
     <g id="line2d_1">
      <defs>
       <path id="m0abf65ef78" d="M 0 0 
L 0 4.8 
" style="stroke: #262626"/>
      </defs>
      <g>
       <use xlink:href="#m0abf65ef78" x="56.648422" y="286.3065" style="fill: #262626; stroke: #262626"/>
      </g>
     </g>
     <g id="text_1">
      <!-- 0 -->
      <g style="fill: #262626" transform="translate(54.20161 300.905375) scale(0.088 -0.088)">
       <defs>
        <path id="ArialMT-30" d="M 266 2259 
Q 266 3072 433 3567 
Q 600 4063 929 4331 
Q 1259 4600 1759 4600 
Q 2128 4600 2406 4451 
Q 2684 4303 2865 4023 
Q 3047 3744 3150 3342 
Q 3253 2941 3253 2259 
Q 3253 1453 3087 958 
Q 2922 463 2592 192 
Q 2263 -78 1759 -78 
Q 1097 -78 719 397 
Q 266 969 266 2259 
z
M 844 2259 
Q 844 1131 1108 757 
Q 1372 384 1759 384 
Q 2147 384 2411 759 
Q 2675 1134 2675 2259 
Q 2675 3391 2411 3762 
Q 2147 4134 1753 4134 
Q 1366 4134 1134 3806 
Q 844 3388 844 2259 
z
" transform="scale(0.015625)"/>
       </defs>
       <use xlink:href="#ArialMT-30"/>
      </g>
     </g>
    </g>
    <g id="xtick_2">
     <g id="line2d_2">
      <g>
       <use xlink:href="#m0abf65ef78" x="121.644392" y="286.3065" style="fill: #262626; stroke: #262626"/>
      </g>
     </g>
     <g id="text_2">
      <!-- 10 -->
      <g style="fill: #262626" transform="translate(116.750767 300.905375) scale(0.088 -0.088)">
       <defs>
        <path id="ArialMT-31" d="M 2384 0 
L 1822 0 
L 1822 3584 
Q 1619 3391 1289 3197 
Q 959 3003 697 2906 
L 697 3450 
Q 1169 3672 1522 3987 
Q 1875 4303 2022 4600 
L 2384 4600 
L 2384 0 
z
" transform="scale(0.015625)"/>
       </defs>
       <use xlink:href="#ArialMT-31"/>
       <use xlink:href="#ArialMT-30" x="55.615234"/>
      </g>
     </g>
    </g>
    <g id="xtick_3">
     <g id="line2d_3">
      <g>
       <use xlink:href="#m0abf65ef78" x="186.640362" y="286.3065" style="fill: #262626; stroke: #262626"/>
      </g>
     </g>
     <g id="text_3">
      <!-- 20 -->
      <g style="fill: #262626" transform="translate(181.746737 300.905375) scale(0.088 -0.088)">
       <defs>
        <path id="ArialMT-32" d="M 3222 541 
L 3222 0 
L 194 0 
Q 188 203 259 391 
Q 375 700 629 1000 
Q 884 1300 1366 1694 
Q 2113 2306 2375 2664 
Q 2638 3022 2638 3341 
Q 2638 3675 2398 3904 
Q 2159 4134 1775 4134 
Q 1369 4134 1125 3890 
Q 881 3647 878 3216 
L 300 3275 
Q 359 3922 746 4261 
Q 1134 4600 1788 4600 
Q 2447 4600 2831 4234 
Q 3216 3869 3216 3328 
Q 3216 3053 3103 2787 
Q 2991 2522 2730 2228 
Q 2469 1934 1863 1422 
Q 1356 997 1212 845 
Q 1069 694 975 541 
L 3222 541 
z
" transform="scale(0.015625)"/>
       </defs>
       <use xlink:href="#ArialMT-32"/>
       <use xlink:href="#ArialMT-30" x="55.615234"/>
      </g>
     </g>
    </g>
    <g id="xtick_4">
     <g id="line2d_4">
      <g>
       <use xlink:href="#m0abf65ef78" x="251.636332" y="286.3065" style="fill: #262626; stroke: #262626"/>
      </g>
     </g>
     <g id="text_4">
      <!-- 30 -->
      <g style="fill: #262626" transform="translate(246.742707 300.905375) scale(0.088 -0.088)">
       <defs>
        <path id="ArialMT-33" d="M 269 1209 
L 831 1284 
Q 928 806 1161 595 
Q 1394 384 1728 384 
Q 2125 384 2398 659 
Q 2672 934 2672 1341 
Q 2672 1728 2419 1979 
Q 2166 2231 1775 2231 
Q 1616 2231 1378 2169 
L 1441 2663 
Q 1497 2656 1531 2656 
Q 1891 2656 2178 2843 
Q 2466 3031 2466 3422 
Q 2466 3731 2256 3934 
Q 2047 4138 1716 4138 
Q 1388 4138 1169 3931 
Q 950 3725 888 3313 
L 325 3413 
Q 428 3978 793 4289 
Q 1159 4600 1703 4600 
Q 2078 4600 2393 4439 
Q 2709 4278 2876 4000 
Q 3044 3722 3044 3409 
Q 3044 3113 2884 2869 
Q 2725 2625 2413 2481 
Q 2819 2388 3044 2092 
Q 3269 1797 3269 1353 
Q 3269 753 2831 336 
Q 2394 -81 1725 -81 
Q 1122 -81 723 278 
Q 325 638 269 1209 
z
" transform="scale(0.015625)"/>
       </defs>
       <use xlink:href="#ArialMT-33"/>
       <use xlink:href="#ArialMT-30" x="55.615234"/>
      </g>
     </g>
    </g>
    <g id="xtick_5">
     <g id="line2d_5">
      <g>
       <use xlink:href="#m0abf65ef78" x="316.632303" y="286.3065" style="fill: #262626; stroke: #262626"/>
      </g>
     </g>
     <g id="text_5">
      <!-- 40 -->
      <g style="fill: #262626" transform="translate(311.738678 300.905375) scale(0.088 -0.088)">
       <defs>
        <path id="ArialMT-34" d="M 2069 0 
L 2069 1097 
L 81 1097 
L 81 1613 
L 2172 4581 
L 2631 4581 
L 2631 1613 
L 3250 1613 
L 3250 1097 
L 2631 1097 
L 2631 0 
L 2069 0 
z
M 2069 1613 
L 2069 3678 
L 634 1613 
L 2069 1613 
z
" transform="scale(0.015625)"/>
       </defs>
       <use xlink:href="#ArialMT-34"/>
       <use xlink:href="#ArialMT-30" x="55.615234"/>
      </g>
     </g>
    </g>
    <g id="xtick_6">
     <g id="line2d_6">
      <g>
       <use xlink:href="#m0abf65ef78" x="381.628273" y="286.3065" style="fill: #262626; stroke: #262626"/>
      </g>
     </g>
     <g id="text_6">
      <!-- 50 -->
      <g style="fill: #262626" transform="translate(376.734648 300.905375) scale(0.088 -0.088)">
       <defs>
        <path id="ArialMT-35" d="M 266 1200 
L 856 1250 
Q 922 819 1161 601 
Q 1400 384 1738 384 
Q 2144 384 2425 690 
Q 2706 997 2706 1503 
Q 2706 1984 2436 2262 
Q 2166 2541 1728 2541 
Q 1456 2541 1237 2417 
Q 1019 2294 894 2097 
L 366 2166 
L 809 4519 
L 3088 4519 
L 3088 3981 
L 1259 3981 
L 1013 2750 
Q 1425 3038 1878 3038 
Q 2478 3038 2890 2622 
Q 3303 2206 3303 1553 
Q 3303 931 2941 478 
Q 2500 -78 1738 -78 
Q 1113 -78 717 272 
Q 322 622 266 1200 
z
" transform="scale(0.015625)"/>
       </defs>
       <use xlink:href="#ArialMT-35"/>
       <use xlink:href="#ArialMT-30" x="55.615234"/>
      </g>
     </g>
    </g>
    <g id="text_7">
     <!-- t -->
     <g style="fill: #262626" transform="translate(217.9675 313.525875) scale(0.096 -0.096)">
      <defs>
       <path id="ArialMT-74" d="M 1650 503 
L 1731 6 
Q 1494 -44 1306 -44 
Q 1000 -44 831 53 
Q 663 150 594 308 
Q 525 466 525 972 
L 525 2881 
L 113 2881 
L 113 3319 
L 525 3319 
L 525 4141 
L 1084 4478 
L 1084 3319 
L 1650 3319 
L 1650 2881 
L 1084 2881 
L 1084 941 
Q 1084 700 1114 631 
Q 1144 563 1211 522 
Q 1278 481 1403 481 
Q 1497 481 1650 503 
z
" transform="scale(0.015625)"/>
      </defs>
      <use xlink:href="#ArialMT-74"/>
     </g>
    </g>
   </g>
   <g id="matplotlib.axis_2">
    <g id="ytick_1">
     <g id="line2d_7">
      <defs>
       <path id="md1871b61af" d="M 0 0 
L -4.8 0 
" style="stroke: #262626"/>
      </defs>
      <g>
       <use xlink:href="#md1871b61af" x="40.741" y="272.772337" style="fill: #262626; stroke: #262626"/>
      </g>
     </g>
     <g id="text_8">
      <!-- 0.0 -->
      <g style="fill: #262626" transform="translate(20.209 275.921775) scale(0.088 -0.088)">
       <defs>
        <path id="ArialMT-2e" d="M 581 0 
L 581 641 
L 1222 641 
L 1222 0 
L 581 0 
z
" transform="scale(0.015625)"/>
       </defs>
       <use xlink:href="#ArialMT-30"/>
       <use xlink:href="#ArialMT-2e" x="55.615234"/>
       <use xlink:href="#ArialMT-30" x="83.398438"/>
      </g>
     </g>
    </g>
    <g id="ytick_2">
     <g id="line2d_8">
      <g>
       <use xlink:href="#md1871b61af" x="40.741" y="224.794179" style="fill: #262626; stroke: #262626"/>
      </g>
     </g>
     <g id="text_9">
      <!-- 0.2 -->
      <g style="fill: #262626" transform="translate(20.209 227.943617) scale(0.088 -0.088)">
       <use xlink:href="#ArialMT-30"/>
       <use xlink:href="#ArialMT-2e" x="55.615234"/>
       <use xlink:href="#ArialMT-32" x="83.398438"/>
      </g>
     </g>
    </g>
    <g id="ytick_3">
     <g id="line2d_9">
      <g>
       <use xlink:href="#md1871b61af" x="40.741" y="176.816021" style="fill: #262626; stroke: #262626"/>
      </g>
     </g>
     <g id="text_10">
      <!-- 0.4 -->
      <g style="fill: #262626" transform="translate(20.209 179.965459) scale(0.088 -0.088)">
       <use xlink:href="#ArialMT-30"/>
       <use xlink:href="#ArialMT-2e" x="55.615234"/>
       <use xlink:href="#ArialMT-34" x="83.398438"/>
      </g>
     </g>
    </g>
    <g id="ytick_4">
     <g id="line2d_10">
      <g>
       <use xlink:href="#md1871b61af" x="40.741" y="128.837863" style="fill: #262626; stroke: #262626"/>
      </g>
     </g>
     <g id="text_11">
      <!-- 0.6 -->
      <g style="fill: #262626" transform="translate(20.209 131.987301) scale(0.088 -0.088)">
       <defs>
        <path id="ArialMT-36" d="M 3184 3459 
L 2625 3416 
Q 2550 3747 2413 3897 
Q 2184 4138 1850 4138 
Q 1581 4138 1378 3988 
Q 1113 3794 959 3422 
Q 806 3050 800 2363 
Q 1003 2672 1297 2822 
Q 1591 2972 1913 2972 
Q 2475 2972 2870 2558 
Q 3266 2144 3266 1488 
Q 3266 1056 3080 686 
Q 2894 316 2569 119 
Q 2244 -78 1831 -78 
Q 1128 -78 684 439 
Q 241 956 241 2144 
Q 241 3472 731 4075 
Q 1159 4600 1884 4600 
Q 2425 4600 2770 4297 
Q 3116 3994 3184 3459 
z
M 888 1484 
Q 888 1194 1011 928 
Q 1134 663 1356 523 
Q 1578 384 1822 384 
Q 2178 384 2434 671 
Q 2691 959 2691 1453 
Q 2691 1928 2437 2201 
Q 2184 2475 1800 2475 
Q 1419 2475 1153 2201 
Q 888 1928 888 1484 
z
" transform="scale(0.015625)"/>
       </defs>
       <use xlink:href="#ArialMT-30"/>
       <use xlink:href="#ArialMT-2e" x="55.615234"/>
       <use xlink:href="#ArialMT-36" x="83.398438"/>
      </g>
     </g>
    </g>
    <g id="ytick_5">
     <g id="line2d_11">
      <g>
       <use xlink:href="#md1871b61af" x="40.741" y="80.859705" style="fill: #262626; stroke: #262626"/>
      </g>
     </g>
     <g id="text_12">
      <!-- 0.8 -->
      <g style="fill: #262626" transform="translate(20.209 84.009143) scale(0.088 -0.088)">
       <defs>
        <path id="ArialMT-38" d="M 1131 2484 
Q 781 2613 612 2850 
Q 444 3088 444 3419 
Q 444 3919 803 4259 
Q 1163 4600 1759 4600 
Q 2359 4600 2725 4251 
Q 3091 3903 3091 3403 
Q 3091 3084 2923 2848 
Q 2756 2613 2416 2484 
Q 2838 2347 3058 2040 
Q 3278 1734 3278 1309 
Q 3278 722 2862 322 
Q 2447 -78 1769 -78 
Q 1091 -78 675 323 
Q 259 725 259 1325 
Q 259 1772 486 2073 
Q 713 2375 1131 2484 
z
M 1019 3438 
Q 1019 3113 1228 2906 
Q 1438 2700 1772 2700 
Q 2097 2700 2305 2904 
Q 2513 3109 2513 3406 
Q 2513 3716 2298 3927 
Q 2084 4138 1766 4138 
Q 1444 4138 1231 3931 
Q 1019 3725 1019 3438 
z
M 838 1322 
Q 838 1081 952 856 
Q 1066 631 1291 507 
Q 1516 384 1775 384 
Q 2178 384 2440 643 
Q 2703 903 2703 1303 
Q 2703 1709 2433 1975 
Q 2163 2241 1756 2241 
Q 1359 2241 1098 1978 
Q 838 1716 838 1322 
z
" transform="scale(0.015625)"/>
       </defs>
       <use xlink:href="#ArialMT-30"/>
       <use xlink:href="#ArialMT-2e" x="55.615234"/>
       <use xlink:href="#ArialMT-38" x="83.398438"/>
      </g>
     </g>
    </g>
    <g id="ytick_6">
     <g id="line2d_12">
      <g>
       <use xlink:href="#md1871b61af" x="40.741" y="32.881547" style="fill: #262626; stroke: #262626"/>
      </g>
     </g>
     <g id="text_13">
      <!-- 1.0 -->
      <g style="fill: #262626" transform="translate(20.209 36.030985) scale(0.088 -0.088)">
       <use xlink:href="#ArialMT-31"/>
       <use xlink:href="#ArialMT-2e" x="55.615234"/>
       <use xlink:href="#ArialMT-30" x="83.398438"/>
      </g>
     </g>
    </g>
    <g id="text_14">
     <!-- Sensitivity Indices for v(t) -->
     <g style="fill: #262626" transform="translate(14.1885 206.5965) rotate(-90) scale(0.096 -0.096)">
      <defs>
       <path id="ArialMT-53" d="M 288 1472 
L 859 1522 
Q 900 1178 1048 958 
Q 1197 738 1509 602 
Q 1822 466 2213 466 
Q 2559 466 2825 569 
Q 3091 672 3220 851 
Q 3350 1031 3350 1244 
Q 3350 1459 3225 1620 
Q 3100 1781 2813 1891 
Q 2628 1963 1997 2114 
Q 1366 2266 1113 2400 
Q 784 2572 623 2826 
Q 463 3081 463 3397 
Q 463 3744 659 4045 
Q 856 4347 1234 4503 
Q 1613 4659 2075 4659 
Q 2584 4659 2973 4495 
Q 3363 4331 3572 4012 
Q 3781 3694 3797 3291 
L 3216 3247 
Q 3169 3681 2898 3903 
Q 2628 4125 2100 4125 
Q 1550 4125 1298 3923 
Q 1047 3722 1047 3438 
Q 1047 3191 1225 3031 
Q 1400 2872 2139 2705 
Q 2878 2538 3153 2413 
Q 3553 2228 3743 1945 
Q 3934 1663 3934 1294 
Q 3934 928 3725 604 
Q 3516 281 3123 101 
Q 2731 -78 2241 -78 
Q 1619 -78 1198 103 
Q 778 284 539 648 
Q 300 1013 288 1472 
z
" transform="scale(0.015625)"/>
       <path id="ArialMT-65" d="M 2694 1069 
L 3275 997 
Q 3138 488 2766 206 
Q 2394 -75 1816 -75 
Q 1088 -75 661 373 
Q 234 822 234 1631 
Q 234 2469 665 2931 
Q 1097 3394 1784 3394 
Q 2450 3394 2872 2941 
Q 3294 2488 3294 1666 
Q 3294 1616 3291 1516 
L 816 1516 
Q 847 969 1125 678 
Q 1403 388 1819 388 
Q 2128 388 2347 550 
Q 2566 713 2694 1069 
z
M 847 1978 
L 2700 1978 
Q 2663 2397 2488 2606 
Q 2219 2931 1791 2931 
Q 1403 2931 1139 2672 
Q 875 2413 847 1978 
z
" transform="scale(0.015625)"/>
       <path id="ArialMT-6e" d="M 422 0 
L 422 3319 
L 928 3319 
L 928 2847 
Q 1294 3394 1984 3394 
Q 2284 3394 2536 3286 
Q 2788 3178 2913 3003 
Q 3038 2828 3088 2588 
Q 3119 2431 3119 2041 
L 3119 0 
L 2556 0 
L 2556 2019 
Q 2556 2363 2490 2533 
Q 2425 2703 2258 2804 
Q 2091 2906 1866 2906 
Q 1506 2906 1245 2678 
Q 984 2450 984 1813 
L 984 0 
L 422 0 
z
" transform="scale(0.015625)"/>
       <path id="ArialMT-73" d="M 197 991 
L 753 1078 
Q 800 744 1014 566 
Q 1228 388 1613 388 
Q 2000 388 2187 545 
Q 2375 703 2375 916 
Q 2375 1106 2209 1216 
Q 2094 1291 1634 1406 
Q 1016 1563 777 1677 
Q 538 1791 414 1992 
Q 291 2194 291 2438 
Q 291 2659 392 2848 
Q 494 3038 669 3163 
Q 800 3259 1026 3326 
Q 1253 3394 1513 3394 
Q 1903 3394 2198 3281 
Q 2494 3169 2634 2976 
Q 2775 2784 2828 2463 
L 2278 2388 
Q 2241 2644 2061 2787 
Q 1881 2931 1553 2931 
Q 1166 2931 1000 2803 
Q 834 2675 834 2503 
Q 834 2394 903 2306 
Q 972 2216 1119 2156 
Q 1203 2125 1616 2013 
Q 2213 1853 2448 1751 
Q 2684 1650 2818 1456 
Q 2953 1263 2953 975 
Q 2953 694 2789 445 
Q 2625 197 2315 61 
Q 2006 -75 1616 -75 
Q 969 -75 630 194 
Q 291 463 197 991 
z
" transform="scale(0.015625)"/>
       <path id="ArialMT-69" d="M 425 3934 
L 425 4581 
L 988 4581 
L 988 3934 
L 425 3934 
z
M 425 0 
L 425 3319 
L 988 3319 
L 988 0 
L 425 0 
z
" transform="scale(0.015625)"/>
       <path id="ArialMT-76" d="M 1344 0 
L 81 3319 
L 675 3319 
L 1388 1331 
Q 1503 1009 1600 663 
Q 1675 925 1809 1294 
L 2547 3319 
L 3125 3319 
L 1869 0 
L 1344 0 
z
" transform="scale(0.015625)"/>
       <path id="ArialMT-79" d="M 397 -1278 
L 334 -750 
Q 519 -800 656 -800 
Q 844 -800 956 -737 
Q 1069 -675 1141 -563 
Q 1194 -478 1313 -144 
Q 1328 -97 1363 -6 
L 103 3319 
L 709 3319 
L 1400 1397 
Q 1534 1031 1641 628 
Q 1738 1016 1872 1384 
L 2581 3319 
L 3144 3319 
L 1881 -56 
Q 1678 -603 1566 -809 
Q 1416 -1088 1222 -1217 
Q 1028 -1347 759 -1347 
Q 597 -1347 397 -1278 
z
" transform="scale(0.015625)"/>
       <path id="ArialMT-20" transform="scale(0.015625)"/>
       <path id="ArialMT-49" d="M 597 0 
L 597 4581 
L 1203 4581 
L 1203 0 
L 597 0 
z
" transform="scale(0.015625)"/>
       <path id="ArialMT-64" d="M 2575 0 
L 2575 419 
Q 2259 -75 1647 -75 
Q 1250 -75 917 144 
Q 584 363 401 755 
Q 219 1147 219 1656 
Q 219 2153 384 2558 
Q 550 2963 881 3178 
Q 1213 3394 1622 3394 
Q 1922 3394 2156 3267 
Q 2391 3141 2538 2938 
L 2538 4581 
L 3097 4581 
L 3097 0 
L 2575 0 
z
M 797 1656 
Q 797 1019 1065 703 
Q 1334 388 1700 388 
Q 2069 388 2326 689 
Q 2584 991 2584 1609 
Q 2584 2291 2321 2609 
Q 2059 2928 1675 2928 
Q 1300 2928 1048 2622 
Q 797 2316 797 1656 
z
" transform="scale(0.015625)"/>
       <path id="ArialMT-63" d="M 2588 1216 
L 3141 1144 
Q 3050 572 2676 248 
Q 2303 -75 1759 -75 
Q 1078 -75 664 370 
Q 250 816 250 1647 
Q 250 2184 428 2587 
Q 606 2991 970 3192 
Q 1334 3394 1763 3394 
Q 2303 3394 2647 3120 
Q 2991 2847 3088 2344 
L 2541 2259 
Q 2463 2594 2264 2762 
Q 2066 2931 1784 2931 
Q 1359 2931 1093 2626 
Q 828 2322 828 1663 
Q 828 994 1084 691 
Q 1341 388 1753 388 
Q 2084 388 2306 591 
Q 2528 794 2588 1216 
z
" transform="scale(0.015625)"/>
       <path id="ArialMT-66" d="M 556 0 
L 556 2881 
L 59 2881 
L 59 3319 
L 556 3319 
L 556 3672 
Q 556 4006 616 4169 
Q 697 4388 901 4523 
Q 1106 4659 1475 4659 
Q 1713 4659 2000 4603 
L 1916 4113 
Q 1741 4144 1584 4144 
Q 1328 4144 1222 4034 
Q 1116 3925 1116 3625 
L 1116 3319 
L 1763 3319 
L 1763 2881 
L 1116 2881 
L 1116 0 
L 556 0 
z
" transform="scale(0.015625)"/>
       <path id="ArialMT-6f" d="M 213 1659 
Q 213 2581 725 3025 
Q 1153 3394 1769 3394 
Q 2453 3394 2887 2945 
Q 3322 2497 3322 1706 
Q 3322 1066 3130 698 
Q 2938 331 2570 128 
Q 2203 -75 1769 -75 
Q 1072 -75 642 372 
Q 213 819 213 1659 
z
M 791 1659 
Q 791 1022 1069 705 
Q 1347 388 1769 388 
Q 2188 388 2466 706 
Q 2744 1025 2744 1678 
Q 2744 2294 2464 2611 
Q 2184 2928 1769 2928 
Q 1347 2928 1069 2612 
Q 791 2297 791 1659 
z
" transform="scale(0.015625)"/>
       <path id="ArialMT-72" d="M 416 0 
L 416 3319 
L 922 3319 
L 922 2816 
Q 1116 3169 1280 3281 
Q 1444 3394 1641 3394 
Q 1925 3394 2219 3213 
L 2025 2691 
Q 1819 2813 1613 2813 
Q 1428 2813 1281 2702 
Q 1134 2591 1072 2394 
Q 978 2094 978 1738 
L 978 0 
L 416 0 
z
" transform="scale(0.015625)"/>
       <path id="ArialMT-28" d="M 1497 -1347 
Q 1031 -759 709 28 
Q 388 816 388 1659 
Q 388 2403 628 3084 
Q 909 3875 1497 4659 
L 1900 4659 
Q 1522 4009 1400 3731 
Q 1209 3300 1100 2831 
Q 966 2247 966 1656 
Q 966 153 1900 -1347 
L 1497 -1347 
z
" transform="scale(0.015625)"/>
       <path id="ArialMT-29" d="M 791 -1347 
L 388 -1347 
Q 1322 153 1322 1656 
Q 1322 2244 1188 2822 
Q 1081 3291 891 3722 
Q 769 4003 388 4659 
L 791 4659 
Q 1378 3875 1659 3084 
Q 1900 2403 1900 1659 
Q 1900 816 1576 28 
Q 1253 -759 791 -1347 
z
" transform="scale(0.015625)"/>
      </defs>
      <use xlink:href="#ArialMT-53"/>
      <use xlink:href="#ArialMT-65" x="66.699219"/>
      <use xlink:href="#ArialMT-6e" x="122.314453"/>
      <use xlink:href="#ArialMT-73" x="177.929688"/>
      <use xlink:href="#ArialMT-69" x="227.929688"/>
      <use xlink:href="#ArialMT-74" x="250.146484"/>
      <use xlink:href="#ArialMT-69" x="277.929688"/>
      <use xlink:href="#ArialMT-76" x="300.146484"/>
      <use xlink:href="#ArialMT-69" x="350.146484"/>
      <use xlink:href="#ArialMT-74" x="372.363281"/>
      <use xlink:href="#ArialMT-79" x="400.146484"/>
      <use xlink:href="#ArialMT-20" x="450.146484"/>
      <use xlink:href="#ArialMT-49" x="477.929688"/>
      <use xlink:href="#ArialMT-6e" x="505.712891"/>
      <use xlink:href="#ArialMT-64" x="561.328125"/>
      <use xlink:href="#ArialMT-69" x="616.943359"/>
      <use xlink:href="#ArialMT-63" x="639.160156"/>
      <use xlink:href="#ArialMT-65" x="689.160156"/>
      <use xlink:href="#ArialMT-73" x="744.775391"/>
      <use xlink:href="#ArialMT-20" x="794.775391"/>
      <use xlink:href="#ArialMT-66" x="822.558594"/>
      <use xlink:href="#ArialMT-6f" x="850.341797"/>
      <use xlink:href="#ArialMT-72" x="905.957031"/>
      <use xlink:href="#ArialMT-20" x="939.257812"/>
      <use xlink:href="#ArialMT-76" x="967.041016"/>
      <use xlink:href="#ArialMT-28" x="1017.041016"/>
      <use xlink:href="#ArialMT-74" x="1050.341797"/>
      <use xlink:href="#ArialMT-29" x="1078.125"/>
     </g>
    </g>
   </g>
   <g id="line2d_13">
    <path d="M 56.973727 272.77228 
L 58.925558 272.6674 
L 59.576169 272.477546 
L 60.226779 272.093187 
L 60.877389 271.398455 
L 61.528 270.240541 
L 62.17861 268.428183 
L 62.82922 265.740926 
L 63.47983 261.96304 
L 64.130441 256.957031 
L 65.106356 247.421085 
L 66.407577 234.687423 
L 67.058187 231.006862 
L 67.383492 230.270745 
L 67.708797 230.304153 
L 68.034103 231.057518 
L 68.359408 232.434202 
L 69.010018 236.547493 
L 71.61246 255.927515 
L 72.588375 261.190632 
L 73.564289 265.29121 
L 74.540206 268.555794 
L 75.516121 271.168631 
L 76.166732 272.400593 
L 76.492037 272.724515 
L 76.817342 272.717996 
L 77.142647 272.212739 
L 77.467952 270.967248 
L 77.793257 268.662571 
L 78.118562 264.934649 
L 78.769172 252.344338 
L 79.745088 229.433579 
L 80.070393 225.356082 
L 80.395698 223.827064 
L 80.721003 224.321581 
L 81.046308 226.143896 
L 82.022225 234.580802 
L 83.323444 245.656879 
L 84.624664 254.92284 
L 85.925887 262.915678 
L 86.901801 267.945743 
L 87.552411 270.507097 
L 88.203024 272.151733 
L 88.528327 272.583755 
L 88.853633 272.759675 
L 89.178937 272.703488 
L 89.504243 272.451084 
L 90.154853 271.506117 
L 90.805463 270.081395 
L 91.456073 267.896886 
L 91.78138 266.221753 
L 92.106683 263.815982 
L 92.43199 260.181137 
L 92.757293 254.411239 
L 93.0826 244.795536 
L 93.407906 228.115609 
L 93.733209 199.286507 
L 94.383819 126.72561 
L 94.709126 142.088175 
L 95.359736 207.85757 
L 95.685042 226.897564 
L 96.335652 247.151063 
L 96.986262 256.807378 
L 97.636872 262.248112 
L 98.287482 265.741386 
L 98.938092 268.208476 
L 99.588702 270.057091 
L 100.239312 271.452807 
L 100.889922 272.402972 
L 101.215228 272.672623 
L 101.540535 272.765148 
L 101.865838 272.63933 
L 102.191145 272.249378 
L 102.516448 271.555127 
L 103.167058 269.215601 
L 104.793584 261.84768 
L 105.444194 260.294828 
L 106.420111 258.6298 
L 106.745417 257.828492 
L 107.070721 256.711781 
L 107.396027 255.138695 
L 107.721331 252.929348 
L 108.046637 249.85111 
L 108.697247 240.068692 
L 109.34786 227.539454 
L 109.673163 225.859596 
L 109.998467 230.954086 
L 110.974383 257.079091 
L 111.624996 265.484061 
L 112.275603 269.329462 
L 112.926216 271.183897 
L 113.576823 272.118987 
L 114.227436 272.578494 
L 114.878043 272.754661 
L 115.528656 272.730184 
L 116.179263 272.532934 
L 116.829876 272.158393 
L 117.480489 271.580099 
L 118.131096 270.758804 
L 118.781709 269.658538 
L 119.757625 267.499651 
L 121.384148 263.605775 
L 122.034761 262.506582 
L 122.685368 261.798071 
L 123.335981 261.398311 
L 125.613117 260.454154 
L 126.263724 259.793661 
L 126.914337 258.707838 
L 127.564944 256.993594 
L 128.215557 254.474309 
L 128.866164 251.74232 
L 129.191474 251.351863 
L 129.516777 252.800222 
L 130.16739 261.43689 
L 130.817997 268.98189 
L 131.1433 270.864858 
L 131.46861 271.907086 
L 131.793913 272.441022 
L 132.119217 272.683701 
L 132.76983 272.754927 
L 134.07105 272.446373 
L 136.022882 272.038423 
L 137.974709 271.873873 
L 140.251845 271.907453 
L 142.854291 272.166282 
L 147.083254 272.75902 
L 147.733867 272.605544 
L 148.384474 272.201757 
L 149.035087 271.495393 
L 151.312223 268.484994 
L 151.96283 268.108691 
L 152.613443 268.010406 
L 153.264056 268.166597 
L 153.914663 268.58464 
L 154.565276 269.322877 
L 155.215883 270.425748 
L 156.191799 272.162902 
L 156.842412 272.700835 
L 157.493019 272.776396 
L 162.372595 272.267995 
L 165.950951 272.289712 
L 167.577475 272.463285 
L 169.529307 272.767525 
L 170.179927 272.622955 
L 170.830533 272.166169 
L 171.155843 271.764091 
L 171.48114 271.175471 
L 171.80645 270.27539 
L 172.131747 268.796299 
L 172.457057 266.115119 
L 172.782366 260.607373 
L 173.107664 247.63513 
L 173.432973 218.410034 
L 173.758283 206.096954 
L 174.08358 236.119428 
L 174.40889 254.031347 
L 174.734199 261.859074 
L 175.059496 265.668777 
L 175.384806 267.765989 
L 176.035413 269.869685 
L 176.68602 270.863967 
L 177.336639 271.425732 
L 178.312555 271.921934 
L 179.613769 272.31289 
L 181.565602 272.673883 
L 182.866828 272.769762 
L 183.517435 272.695883 
L 184.168042 272.425506 
L 184.818648 271.789484 
L 185.469268 270.593775 
L 186.445184 267.861069 
L 187.4211 265.364558 
L 189.047624 262.119277 
L 189.372921 260.975257 
L 189.698231 259.397181 
L 190.348837 254.425098 
L 190.999457 249.068585 
L 191.324754 249.934385 
L 192.62598 267.088728 
L 192.951277 269.00331 
L 193.601896 271.023666 
L 194.252503 271.916164 
L 194.90311 272.34767 
L 195.879026 272.638054 
L 197.180252 272.7595 
L 199.132085 272.706927 
L 200.758609 272.477854 
L 202.059822 272.075864 
L 203.035739 271.532616 
L 204.011655 270.6527 
L 204.987572 269.352599 
L 206.939404 266.377052 
L 207.590011 265.75795 
L 208.24063 265.391047 
L 209.541844 264.829765 
L 209.867154 264.53899 
L 210.192451 264.082529 
L 210.517761 263.366491 
L 210.84307 262.250907 
L 211.168367 260.552475 
L 211.818987 256.285586 
L 212.144284 258.172558 
L 212.794903 268.776131 
L 213.1202 271.060055 
L 213.44551 272.050214 
L 213.770807 272.477527 
L 214.421426 272.740557 
L 215.72264 272.76294 
L 221.903436 272.683311 
L 229.710767 272.619197 
L 230.686684 272.209574 
L 231.987897 271.535589 
L 232.963814 271.334881 
L 233.614421 271.402282 
L 234.26504 271.674968 
L 235.891563 272.702406 
L 236.867479 272.778528 
L 243.373585 272.702451 
L 249.87969 272.645069 
L 250.530297 272.345689 
L 251.180904 271.722549 
L 251.831511 270.567984 
L 252.15682 269.602706 
L 252.48213 268.086214 
L 252.807427 265.442368 
L 253.132737 260.326502 
L 253.783344 240.39573 
L 254.108653 248.584552 
L 254.433963 260.043728 
L 254.75926 265.868344 
L 255.08457 268.641797 
L 255.409867 270.083083 
L 255.735177 270.904471 
L 256.385783 271.739839 
L 257.036403 272.12886 
L 258.012319 272.411871 
L 259.638842 272.614969 
L 262.891889 272.763546 
L 265.169019 272.705244 
L 266.144935 272.497524 
L 266.795555 272.1746 
L 267.446174 271.580109 
L 268.096768 270.614647 
L 270.69922 265.48358 
L 271.349815 263.69895 
L 272.000434 260.680277 
L 272.651053 257.402304 
L 272.97635 257.999692 
L 274.277564 269.50632 
L 274.602886 270.68205 
L 275.25348 271.856786 
L 275.9041 272.340167 
L 276.880016 272.622981 
L 278.506527 272.751162 
L 282.084896 272.734856 
L 285.337942 272.53191 
L 286.964478 272.232121 
L 288.265691 271.734581 
L 289.241608 271.127048 
L 292.169357 268.857384 
L 292.819976 267.885387 
L 293.145274 267.265554 
L 293.470571 267.107353 
L 293.795893 268.251528 
L 294.446487 271.468602 
L 294.771784 272.150618 
L 295.097106 272.471487 
L 295.747701 272.699768 
L 297.048939 272.774544 
L 307.783995 272.756725 
L 329.904751 272.704145 
L 330.880668 272.491734 
L 331.531287 272.109286 
L 332.181881 271.334624 
L 332.507203 270.714194 
L 332.832501 269.848984 
L 333.157798 268.59331 
L 333.48312 266.663867 
L 333.808417 263.597633 
L 334.133714 259.25637 
L 334.459036 256.452222 
L 334.784333 259.643353 
L 335.109631 264.827028 
L 335.434953 268.201576 
L 335.76025 270.025383 
L 336.085547 271.021275 
L 336.736166 271.945032 
L 337.386761 272.319745 
L 338.362677 272.554372 
L 340.31451 272.704179 
L 345.194092 272.769043 
L 347.796544 272.662619 
L 349.097758 272.384973 
L 349.748377 272.066535 
L 350.398972 271.525745 
L 351.049591 270.687188 
L 351.70021 269.531183 
L 352.350804 268.036584 
L 353.001424 265.945084 
L 353.97734 261.374052 
L 354.302637 261.375213 
L 354.627935 263.552138 
L 355.278554 268.951779 
L 355.603851 270.450349 
L 355.929173 271.334039 
L 356.579767 272.171372 
L 357.230387 272.494873 
L 358.206303 272.67434 
L 360.483433 272.763215 
L 367.314848 272.712724 
L 370.242598 272.544991 
L 371.869108 272.25139 
L 373.170347 271.758376 
L 373.820941 271.320971 
L 374.796858 270.441257 
L 375.12218 270.699709 
L 375.772774 271.952196 
L 376.423393 272.510932 
L 377.074013 272.678769 
L 378.700523 272.765111 
L 381.628273 272.777815 
L 381.628273 272.777815 
" clip-path="url(#p055f5d03f1)" style="fill: none; stroke: #1f77b4; stroke-width: 1.2; stroke-linecap: round"/>
   </g>
   <g id="line2d_14">
    <path d="M 56.973727 272.772314 
L 63.805136 272.696357 
L 64.781051 272.48407 
L 65.431662 272.166556 
L 66.082271 271.641468 
L 67.058187 270.470658 
L 68.359408 268.798457 
L 69.010018 268.267389 
L 69.660628 268.06146 
L 70.311238 268.179602 
L 70.96185 268.569021 
L 71.937765 269.479232 
L 73.889596 271.420168 
L 74.865511 272.079105 
L 75.841426 272.495925 
L 77.142647 272.769068 
L 77.793257 272.708689 
L 78.118562 272.54843 
L 78.443867 272.231198 
L 78.769172 271.697158 
L 79.419783 269.896033 
L 80.721003 265.655418 
L 81.371615 264.210494 
L 82.34753 262.649256 
L 83.323444 261.549893 
L 83.974054 261.102966 
L 84.624664 260.98332 
L 84.949971 261.08361 
L 85.275277 261.312734 
L 85.925887 262.220582 
L 86.576497 263.793259 
L 87.552411 267.233289 
L 88.528327 270.823335 
L 89.178937 272.338524 
L 89.504243 272.689899 
L 89.829547 272.775997 
L 90.154853 272.634501 
L 90.805463 271.847512 
L 91.456073 270.520903 
L 91.78138 269.570081 
L 92.106683 268.261685 
L 92.43199 266.325588 
L 92.757293 263.2507 
L 93.0826 258.038543 
L 93.407906 248.728414 
L 93.733209 231.969276 
L 94.383819 184.136863 
L 94.709126 188.817869 
L 95.359736 225.123039 
L 95.685042 236.498599 
L 96.335652 248.985183 
L 96.986262 255.133204 
L 97.636872 258.736688 
L 98.612789 262.273883 
L 101.865838 271.886823 
L 102.191145 272.526669 
L 102.516448 272.814927 
L 102.841755 272.605079 
L 103.167058 271.773894 
L 103.492365 270.271395 
L 104.142974 265.64055 
L 105.118891 258.104879 
L 105.769501 254.535682 
L 106.745417 250.169215 
L 107.396027 245.754551 
L 107.721331 242.310521 
L 108.046637 237.525185 
L 108.37194 230.898117 
L 109.02255 211.090299 
L 109.34786 200.636495 
L 109.673163 196.27783 
L 109.998467 202.583479 
L 110.974383 242.714953 
L 111.624996 256.848075 
L 112.275603 263.791088 
L 112.926216 267.48231 
L 113.576823 269.642673 
L 114.227436 271.0092 
L 114.878043 271.910256 
L 115.528656 272.486844 
L 116.179263 272.776784 
L 116.829876 272.741699 
L 117.155179 272.570409 
L 117.480489 272.27004 
L 118.131096 271.172734 
L 118.781709 269.194664 
L 119.432315 266.079805 
L 120.082928 261.721474 
L 121.384148 250.614536 
L 122.360065 243.006244 
L 123.010672 239.308321 
L 123.661285 236.740492 
L 124.311891 235.014425 
L 126.263724 231.024113 
L 126.914337 228.819175 
L 127.564944 225.569753 
L 128.540861 219.374174 
L 128.866164 218.61396 
L 129.191474 220.736699 
L 129.516777 227.653818 
L 130.492693 262.252607 
L 130.817997 268.379053 
L 131.1433 271.44217 
L 131.46861 272.665286 
L 131.793913 272.915977 
L 132.119217 272.69655 
L 134.396353 269.800856 
L 135.372269 269.180635 
L 136.348186 268.895593 
L 137.324102 268.858777 
L 138.625322 269.090489 
L 139.926542 269.5569 
L 141.553065 270.380404 
L 145.456731 272.633019 
L 146.107338 272.663977 
L 146.432647 272.539189 
L 146.757951 272.279829 
L 147.083254 271.847986 
L 147.408558 271.202166 
L 148.059171 269.113916 
L 148.709784 265.853553 
L 150.66161 254.093195 
L 151.312223 251.827865 
L 151.96283 250.579862 
L 152.613443 250.014432 
L 153.264056 249.854876 
L 153.58936 249.899364 
L 153.914663 250.059148 
L 154.239966 250.404884 
L 154.565276 251.055001 
L 154.890579 252.169209 
L 155.215883 253.905349 
L 155.866496 259.287917 
L 156.842412 267.787143 
L 157.493019 270.853192 
L 157.818323 271.680515 
L 158.143632 272.196693 
L 158.794239 272.656833 
L 159.444852 272.719621 
L 160.420768 272.517621 
L 162.047298 271.910033 
L 163.673821 271.106194 
L 165.300344 270.031706 
L 167.577475 268.373712 
L 167.902784 268.318282 
L 168.228094 268.391712 
L 168.553391 268.623589 
L 169.20401 269.591956 
L 170.505224 272.232687 
L 170.830533 272.61033 
L 171.155843 272.764578 
L 171.48114 272.65246 
L 171.80645 272.187786 
L 172.131747 271.154998 
L 172.457057 268.98982 
L 172.782366 264.100501 
L 173.107664 251.59865 
L 173.432973 220.572022 
L 173.758283 201.402279 
L 174.40889 248.775335 
L 174.734199 257.655679 
L 175.059496 262.173618 
L 175.384806 264.750317 
L 176.035413 267.437702 
L 176.68602 268.764989 
L 177.336639 269.542925 
L 178.312555 270.265974 
L 179.939079 271.054097 
L 182.216209 272.146731 
L 183.517435 272.79674 
L 183.842732 272.854072 
L 184.168042 272.78772 
L 184.493351 272.520818 
L 184.818648 271.951312 
L 185.143958 270.959777 
L 185.469268 269.433701 
L 186.119874 264.625193 
L 187.746398 249.783671 
L 189.047624 240.449761 
L 189.698231 232.532334 
L 190.348837 218.78198 
L 190.674147 210.378543 
L 190.999457 204.983822 
L 191.324754 208.416939 
L 192.62598 257.524299 
L 192.951277 262.740534 
L 193.276587 266.036942 
L 193.927194 269.562214 
L 194.577813 271.172583 
L 195.22842 271.977563 
L 195.879026 272.405753 
L 196.854943 272.709089 
L 198.156169 272.799721 
L 199.457383 272.64539 
L 200.433299 272.32679 
L 201.083906 271.959711 
L 201.734525 271.39878 
L 202.385132 270.546219 
L 203.035739 269.258204 
L 203.686358 267.341637 
L 204.336965 264.582177 
L 204.987572 260.839157 
L 206.288798 251.214273 
L 207.264714 244.726277 
L 207.915321 241.980816 
L 208.565928 240.598645 
L 209.216534 240.133444 
L 209.867154 239.807875 
L 210.192451 239.374299 
L 210.517761 238.542967 
L 210.84307 237.139005 
L 211.493677 233.219904 
L 211.818987 234.986582 
L 212.144284 246.494016 
L 212.469593 261.98447 
L 212.794903 270.231787 
L 213.1202 272.727569 
L 213.44551 273.086899 
L 214.096117 272.513275 
L 214.746723 271.981135 
L 215.397343 271.69761 
L 216.373259 271.561043 
L 217.999782 271.648993 
L 223.204662 272.32673 
L 226.457708 272.70208 
L 227.433625 272.559238 
L 228.084244 272.156099 
L 228.409541 271.77567 
L 228.734851 271.215226 
L 229.06016 270.417981 
L 229.710767 267.893105 
L 230.361374 264.036731 
L 231.6626 255.582926 
L 232.313207 252.830546 
L 232.963814 251.066118 
L 233.289123 250.466794 
L 233.614421 250.103312 
L 233.93973 250.134507 
L 234.26504 250.844284 
L 234.590337 252.566333 
L 235.240956 259.128771 
L 235.891563 266.101283 
L 236.54217 270.083756 
L 236.867479 271.12506 
L 237.192789 271.779482 
L 237.843396 272.429207 
L 238.494003 272.657391 
L 239.469919 272.717392 
L 241.747062 272.555397 
L 245.000108 272.144386 
L 248.903774 271.51351 
L 249.554381 271.786739 
L 250.855594 272.789178 
L 251.180904 272.794097 
L 251.506214 272.527681 
L 251.831511 271.891249 
L 252.15682 270.723817 
L 252.48213 268.672485 
L 252.807427 264.877854 
L 253.132737 257.186736 
L 253.783344 222.99194 
L 254.108653 232.671599 
L 254.433963 250.244066 
L 254.75926 259.809311 
L 255.08457 264.576472 
L 255.409867 267.146027 
L 255.735177 268.6569 
L 256.385783 270.252664 
L 257.036403 271.032895 
L 257.687009 271.477304 
L 258.662926 271.868512 
L 260.289449 272.235259 
L 264.193115 272.800038 
L 265.169019 272.835145 
L 265.819638 272.684063 
L 266.144935 272.489692 
L 266.470257 272.161635 
L 266.795555 271.639721 
L 267.120852 270.846914 
L 267.446174 269.694291 
L 268.096768 265.997912 
L 268.747387 260.423487 
L 271.349815 234.891972 
L 272.000434 223.730327 
L 272.325731 217.197362 
L 272.651053 213.370801 
L 272.97635 217.38956 
L 273.952267 255.458934 
L 274.277564 262.338142 
L 274.602886 266.42271 
L 274.928183 268.842262 
L 275.25348 270.302133 
L 275.578802 271.204328 
L 276.229397 272.142879 
L 276.880016 272.543483 
L 277.855933 272.763815 
L 279.482443 272.804981 
L 282.084896 272.62842 
L 284.036728 272.319043 
L 285.337942 271.918307 
L 286.313858 271.399301 
L 286.964478 270.873771 
L 287.615072 270.133915 
L 288.265691 269.111513 
L 289.241608 266.993596 
L 290.542821 263.980487 
L 290.868143 263.518264 
L 291.193441 263.265499 
L 291.518738 263.232633 
L 291.84406 263.407657 
L 292.169357 263.771134 
L 292.494654 264.329777 
L 292.819976 265.179346 
L 293.145274 266.603306 
L 294.12119 273.067907 
L 294.446487 273.163337 
L 295.422404 272.455529 
L 296.073023 272.310923 
L 297.374236 272.331005 
L 303.555032 272.666744 
L 308.109317 272.712008 
L 309.085234 272.559903 
L 309.735828 272.303774 
L 310.386447 271.791478 
L 311.037042 270.834843 
L 311.687661 269.236846 
L 312.663577 265.703646 
L 314.290113 259.413624 
L 314.61541 259.043727 
L 314.940708 260.031445 
L 316.241946 270.336051 
L 316.567243 271.395106 
L 316.89254 271.993842 
L 317.54316 272.514665 
L 318.193779 272.674337 
L 319.82029 272.718319 
L 329.254132 272.66626 
L 331.205965 272.783554 
L 331.531287 272.615471 
L 331.856584 272.252544 
L 332.181881 271.596077 
L 332.507203 270.520315 
L 332.832501 268.842558 
L 333.157798 266.240875 
L 333.48312 262.092209 
L 333.808417 255.32171 
L 334.459036 238.041118 
L 334.784333 243.75456 
L 335.434953 262.087827 
L 335.76025 266.202118 
L 336.085547 268.491842 
L 336.410844 269.83131 
L 337.061464 271.195601 
L 337.712083 271.814753 
L 338.687999 272.245608 
L 339.989213 272.497476 
L 342.591665 272.706556 
L 346.495306 272.802158 
L 347.796544 272.62745 
L 348.447139 272.343297 
L 349.097758 271.740631 
L 349.748377 270.528031 
L 350.398972 268.265598 
L 351.049591 264.513476 
L 351.70021 259.160003 
L 352.350804 252.329553 
L 353.001424 243.391862 
L 353.97734 226.63324 
L 354.302637 228.251292 
L 355.603851 265.541126 
L 355.929173 268.647438 
L 356.25447 270.385659 
L 356.579767 271.377233 
L 356.905089 271.956439 
L 357.555684 272.51151 
L 358.206303 272.718514 
L 359.507517 272.816637 
L 363.411182 272.733742 
L 368.290765 272.474662 
L 370.242598 272.19692 
L 373.170347 271.693153 
L 373.820941 271.902442 
L 374.47156 272.427986 
L 375.12218 273.002884 
L 375.772774 272.817311 
L 376.423393 272.64538 
L 377.724607 272.630834 
L 381.628273 272.728519 
L 381.628273 272.728519 
" clip-path="url(#p055f5d03f1)" style="fill: none; stroke: #ff7f0e; stroke-width: 1.2; stroke-linecap: round"/>
   </g>
   <g id="line2d_15">
    <path d="M 56.973727 32.904168 
L 57.949643 32.98321 
L 58.600253 33.242959 
L 59.250863 33.924616 
L 59.576169 34.530248 
L 59.901474 35.387506 
L 60.552084 38.14718 
L 61.202694 42.908601 
L 61.853305 50.589126 
L 62.503915 62.312324 
L 63.154525 79.319628 
L 63.805136 102.717251 
L 64.781051 150.365323 
L 66.407577 241.289765 
L 67.058187 264.704233 
L 67.383492 270.796479 
L 67.708797 272.876337 
L 68.034103 271.135439 
L 68.359408 266.020301 
L 69.010018 248.176518 
L 70.636543 187.405095 
L 71.61246 154.628073 
L 72.588375 128.31094 
L 73.564289 107.49453 
L 76.817342 48.625556 
L 77.467952 39.966792 
L 77.793257 39.642214 
L 78.118562 44.59139 
L 78.443867 57.343029 
L 78.769172 79.979137 
L 79.419783 151.630792 
L 80.070393 224.634156 
L 80.395698 249.029587 
L 80.721003 264.034841 
L 81.046308 271.31748 
L 81.371615 273.016303 
L 81.69692 270.992101 
L 82.34753 260.812006 
L 83.648751 232.180763 
L 86.901801 158.922338 
L 87.552411 148.447608 
L 87.877717 144.831677 
L 88.203024 142.62413 
L 88.528327 142.025547 
L 88.853633 143.152477 
L 89.178937 145.998801 
L 89.829547 156.122992 
L 93.0826 222.179475 
L 93.407906 231.469193 
L 94.383819 272.511697 
L 94.709126 265.713111 
L 95.359736 242.258163 
L 95.685042 236.295376 
L 96.010346 232.850806 
L 96.335652 230.842853 
L 96.660956 229.664709 
L 96.986262 228.986176 
L 97.311566 228.6251 
L 97.636872 228.479405 
L 97.962176 228.491769 
L 98.612789 228.886747 
L 99.263398 229.747973 
L 99.914008 231.185262 
L 100.564618 233.456799 
L 101.215228 236.976708 
L 101.865838 242.256215 
L 102.516448 249.598395 
L 103.817671 266.507772 
L 104.468281 271.524357 
L 104.793584 272.57615 
L 105.118891 272.78757 
L 105.444194 272.338386 
L 105.769501 271.390035 
L 106.420111 268.314664 
L 107.070721 263.348187 
L 107.396027 259.650338 
L 107.721331 254.577911 
L 108.046637 247.408619 
L 108.37194 237.083487 
L 108.697247 222.273992 
L 109.673163 160.7023 
L 109.998467 158.26719 
L 110.32377 171.429213 
L 111.299687 222.436771 
L 111.9503 240.985276 
L 112.600907 251.650236 
L 113.25152 258.272746 
L 113.902133 262.735809 
L 114.552739 265.957361 
L 115.203352 268.396562 
L 115.853959 270.269927 
L 116.504572 271.635111 
L 117.155179 272.408433 
L 117.480489 272.503888 
L 117.805792 272.345094 
L 118.131096 271.870931 
L 118.456399 271.007655 
L 118.781709 269.671408 
L 119.432315 265.230929 
L 120.082928 257.979637 
L 120.733535 247.878004 
L 123.661285 196.629726 
L 124.637201 185.70813 
L 126.589028 166.602362 
L 127.239641 158.276977 
L 128.540861 139.057628 
L 128.866164 138.794892 
L 129.191474 146.390482 
L 129.516777 166.023254 
L 130.492693 251.055634 
L 130.817997 263.865364 
L 131.1433 269.204998 
L 131.46861 270.340562 
L 131.793913 269.438235 
L 133.745746 259.004982 
L 134.396353 256.931869 
L 135.046966 255.601264 
L 135.697573 254.883202 
L 136.348186 254.668419 
L 136.998793 254.870732 
L 137.649406 255.423034 
L 138.300019 256.272721 
L 139.275929 258.016064 
L 140.251845 260.228041 
L 141.553065 263.758238 
L 144.806118 273.18973 
L 145.131421 273.690671 
L 145.456731 273.915377 
L 145.782034 273.756943 
L 146.107338 273.076262 
L 146.432647 271.695836 
L 146.757951 269.395775 
L 147.083254 265.914772 
L 147.408558 260.961291 
L 148.059171 245.504154 
L 148.709784 221.644199 
L 151.312223 108.231308 
L 151.96283 92.36935 
L 152.938747 75.0894 
L 153.914663 62.026495 
L 154.239966 59.744837 
L 154.565276 60.158639 
L 154.890579 65.069381 
L 155.215883 76.486931 
L 155.541193 95.690244 
L 157.167716 228.536263 
L 157.818323 254.325573 
L 158.468936 266.422884 
L 158.794239 269.547988 
L 159.119549 271.494835 
L 159.444852 272.629232 
L 159.770155 273.20102 
L 160.095459 273.379171 
L 160.420768 273.27735 
L 160.746072 272.971619 
L 161.396679 271.932105 
L 162.047298 270.48037 
L 163.023202 267.648494 
L 163.999118 263.876587 
L 164.649738 260.602482 
L 165.300344 256.426939 
L 165.950951 250.970446 
L 166.601571 243.745556 
L 167.252177 234.291552 
L 169.20401 200.360211 
L 169.529307 197.858705 
L 169.854617 197.487006 
L 170.179927 199.290239 
L 170.505224 202.976477 
L 172.457057 232.976152 
L 173.107664 239.695967 
L 173.432973 250.416111 
L 173.758283 270.959671 
L 174.08358 273.259875 
L 174.40889 269.468419 
L 174.734199 267.066172 
L 175.059496 265.813919 
L 175.384806 265.17714 
L 175.710103 264.863406 
L 176.360722 264.677202 
L 177.336639 264.769507 
L 179.613769 265.283658 
L 180.589685 265.653979 
L 181.565602 266.271514 
L 182.216209 266.916397 
L 182.866828 267.83182 
L 183.842732 269.787714 
L 184.493351 271.218086 
L 184.818648 271.715607 
L 185.143958 271.82966 
L 185.469268 271.317057 
L 185.794565 269.93437 
L 186.119874 267.521756 
L 186.770481 259.835289 
L 188.722314 230.160871 
L 189.372921 216.256803 
L 190.02354 193.118346 
L 190.999457 142.723405 
L 191.324754 145.336232 
L 191.975361 197.690854 
L 192.62598 239.206919 
L 192.951277 250.191079 
L 193.276587 257.282169 
L 193.927194 265.062672 
L 194.577813 268.726604 
L 195.22842 270.600868 
L 195.879026 271.615654 
L 196.529633 272.176993 
L 197.180252 272.474641 
L 198.156169 272.609642 
L 199.132085 272.448686 
L 199.782692 272.157584 
L 200.433299 271.663644 
L 201.083906 270.87591 
L 201.734525 269.647244 
L 202.385132 267.750582 
L 203.035739 264.853932 
L 203.686358 260.51701 
L 204.336965 254.264807 
L 204.987572 245.822551 
L 207.264714 211.789529 
L 207.590011 209.245836 
L 207.915321 207.748822 
L 208.24063 207.286155 
L 208.565928 207.784897 
L 208.891237 209.130382 
L 209.541844 213.820542 
L 210.192451 220.418684 
L 210.84307 228.966469 
L 211.168367 234.87052 
L 211.493677 243.40857 
L 212.144284 268.344195 
L 212.469593 270.556627 
L 213.1202 262.379533 
L 213.44551 260.261242 
L 213.770807 259.362581 
L 214.096117 259.176812 
L 214.421426 259.390915 
L 215.072033 260.376795 
L 217.999782 265.690366 
L 219.626306 268.007732 
L 221.578139 270.327219 
L 223.529971 272.309591 
L 224.831185 273.384947 
L 225.481792 273.73701 
L 226.132411 273.802979 
L 226.457708 273.647723 
L 226.783018 273.294451 
L 227.108328 272.659396 
L 227.433625 271.624045 
L 227.758934 270.022216 
L 228.084244 267.625261 
L 228.409541 264.127407 
L 228.734851 259.137816 
L 229.06016 252.194825 
L 229.710767 230.645132 
L 230.361374 198.026435 
L 231.6626 124.801247 
L 232.313207 98.651257 
L 232.963814 79.376294 
L 233.614421 65.572992 
L 233.93973 62.784206 
L 234.26504 66.054955 
L 234.590337 78.890327 
L 234.915647 103.210167 
L 236.216873 226.441971 
L 236.867479 254.001781 
L 237.192789 261.187466 
L 237.518086 265.824427 
L 237.843396 268.804643 
L 238.168693 270.712084 
L 238.494003 271.922039 
L 238.819312 272.674145 
L 239.14461 273.122112 
L 239.469919 273.365157 
L 240.120526 273.472409 
L 240.771145 273.289324 
L 241.747062 272.726579 
L 242.722966 271.934061 
L 243.698882 270.914425 
L 244.674799 269.582292 
L 245.650715 267.74617 
L 246.301322 266.067566 
L 246.951941 263.819233 
L 247.602548 260.736552 
L 248.253155 256.504248 
L 249.229071 247.815759 
L 249.87969 241.842871 
L 250.204988 239.757458 
L 250.530297 238.821321 
L 250.855594 239.287535 
L 251.180904 241.134639 
L 251.831511 247.615863 
L 253.783344 271.157772 
L 254.108653 271.826161 
L 254.433963 270.478004 
L 254.75926 269.857153 
L 255.08457 269.747947 
L 255.735177 269.998431 
L 257.036403 270.572317 
L 258.337616 270.862361 
L 260.289449 271.005132 
L 262.891889 271.187068 
L 264.518412 271.557431 
L 265.819638 271.834218 
L 266.144935 271.76151 
L 266.470257 271.529736 
L 266.795555 271.041532 
L 267.120852 270.162914 
L 267.446174 268.725564 
L 267.771471 266.54596 
L 268.42209 259.424552 
L 269.397982 243.018865 
L 271.024518 212.226766 
L 271.675137 193.646072 
L 272.651053 159.059175 
L 272.97635 165.762154 
L 273.952267 238.582288 
L 274.277564 252.023056 
L 274.602886 260.037288 
L 274.928183 264.794671 
L 275.25348 267.664887 
L 275.578802 269.433975 
L 275.9041 270.546317 
L 276.554719 271.716985 
L 277.205313 272.209066 
L 277.855933 272.409502 
L 279.157146 272.481796 
L 281.434276 272.321933 
L 283.386109 272.00837 
L 284.687348 271.571376 
L 285.663264 270.992131 
L 286.639156 270.052115 
L 287.289775 269.151186 
L 288.265691 267.371235 
L 289.241608 265.548612 
L 289.566905 265.179528 
L 289.892227 265.071718 
L 290.217524 265.313382 
L 290.542821 265.968092 
L 291.193441 268.515973 
L 292.169357 273.538485 
L 292.494654 274.2105 
L 292.819976 272.847598 
L 293.145274 267.106751 
L 293.795893 240.698303 
L 294.12119 236.874109 
L 294.771784 247.567444 
L 295.422404 256.560632 
L 296.073023 261.703085 
L 296.723617 264.801252 
L 297.374236 266.819031 
L 298.024856 268.22417 
L 299.000772 269.68029 
L 299.976689 270.690975 
L 301.277902 271.655895 
L 302.579116 272.358377 
L 304.205652 272.984444 
L 305.506865 273.28963 
L 306.482782 273.345608 
L 307.133401 273.232737 
L 307.783995 272.89835 
L 308.434614 272.159006 
L 308.759912 271.534627 
L 309.085234 270.650157 
L 309.410531 269.403776 
L 309.735828 267.654594 
L 310.06115 265.212163 
L 310.386447 261.828891 
L 310.711745 257.199546 
L 311.362364 242.847773 
L 312.012958 220.140841 
L 312.988875 173.027133 
L 314.290113 101.712417 
L 314.61541 92.753397 
L 314.940708 101.277768 
L 315.26603 131.906081 
L 315.916624 210.275357 
L 316.241946 235.5058 
L 316.567243 251.004691 
L 316.89254 260.151247 
L 317.217862 265.52296 
L 317.54316 268.706187 
L 317.868457 270.616807 
L 318.193779 271.775773 
L 318.519076 272.481906 
L 319.16967 273.162964 
L 319.82029 273.372753 
L 320.796206 273.341318 
L 322.422742 272.963534 
L 324.374575 272.266974 
L 326.001086 271.473627 
L 327.302299 270.61294 
L 328.278216 269.750379 
L 329.254132 268.62324 
L 330.880668 266.54596 
L 331.205965 266.383759 
L 331.531287 266.459176 
L 331.856584 266.832497 
L 332.507203 268.457898 
L 333.48312 271.309129 
L 333.808417 271.367405 
L 334.133714 270.00939 
L 334.459036 267.170655 
L 334.784333 265.80196 
L 335.109631 266.908748 
L 335.76025 269.668372 
L 336.410844 271.100926 
L 337.061464 271.81447 
L 337.712083 272.188383 
L 338.687999 272.446262 
L 339.989213 272.537114 
L 342.916962 272.439401 
L 347.796544 272.152877 
L 348.447139 271.819632 
L 349.097758 271.049787 
L 349.423055 270.371494 
L 349.748377 269.394592 
L 350.073674 268.021743 
L 350.724294 263.682711 
L 351.374888 256.79087 
L 352.025507 247.431087 
L 352.676102 235.547867 
L 353.326721 219.545007 
L 353.97734 203.38962 
L 354.302637 206.265013 
L 355.278554 254.092386 
L 355.603851 262.20144 
L 355.929173 266.685874 
L 356.25447 269.153975 
L 356.579767 270.534216 
L 356.905089 271.321415 
L 357.555684 272.045743 
L 358.206303 272.296921 
L 359.507517 272.411928 
L 364.712396 272.618423 
L 370.567895 273.092373 
L 372.19443 273.353795 
L 372.519728 273.184046 
L 372.845025 272.725862 
L 373.170347 271.754144 
L 373.495644 269.894665 
L 373.820941 266.514018 
L 374.146263 260.58544 
L 375.12218 231.240862 
L 375.447477 235.175181 
L 376.098096 252.615397 
L 376.748691 262.189325 
L 377.39931 266.603753 
L 378.049904 268.859474 
L 378.700523 270.14916 
L 379.351143 270.959739 
L 380.327059 271.723525 
L 381.628273 272.331948 
L 381.628273 272.331948 
" clip-path="url(#p055f5d03f1)" style="fill: none; stroke: #2ca02c; stroke-width: 1.2; stroke-linecap: round"/>
   </g>
   <g id="line2d_16">
    <path d="M 56.973727 272.771313 
L 59.901474 272.618402 
L 62.82922 272.225786 
L 64.781051 272.007277 
L 66.082271 272.097741 
L 69.985933 272.765991 
L 71.61246 272.585873 
L 73.889596 272.071873 
L 75.841426 271.424881 
L 77.467952 270.628283 
L 78.118562 270.330632 
L 78.769172 270.308611 
L 79.094478 270.492594 
L 79.745088 271.222551 
L 80.721003 272.307713 
L 81.371615 272.650183 
L 82.022225 272.7646 
L 82.998141 272.714683 
L 84.624664 272.357029 
L 86.251191 271.732739 
L 87.877717 270.804096 
L 89.178937 270.072442 
L 90.154853 269.803787 
L 91.456073 269.79058 
L 92.43199 269.74258 
L 93.733209 269.523777 
L 94.058516 269.997937 
L 94.709126 272.330323 
L 95.034429 272.741332 
L 95.359736 272.716195 
L 96.986262 272.072156 
L 98.938092 271.680745 
L 102.841755 271.09952 
L 103.817671 271.236001 
L 105.118891 271.748265 
L 107.070721 272.455888 
L 108.37194 272.760703 
L 108.697247 272.735024 
L 109.02255 272.57189 
L 109.34786 272.188947 
L 110.32377 270.603098 
L 110.64908 270.499933 
L 111.299687 270.682554 
L 112.926216 271.270897 
L 114.878043 271.686832 
L 121.384148 272.765077 
L 122.360065 272.618109 
L 123.335981 272.277999 
L 124.311891 271.732092 
L 125.287808 270.876932 
L 125.938421 270.001814 
L 126.589028 268.680914 
L 127.239641 266.55507 
L 127.890254 262.908834 
L 128.540861 256.483137 
L 129.516777 243.016228 
L 129.84208 242.311557 
L 130.16739 245.412542 
L 131.1433 260.060654 
L 131.793913 265.603672 
L 132.444526 268.5679 
L 133.095133 270.217138 
L 133.745746 271.188249 
L 134.396353 271.787869 
L 135.372269 272.308072 
L 136.673489 272.636547 
L 138.300019 272.765962 
L 140.577155 272.691336 
L 142.854291 272.416127 
L 144.806118 271.986341 
L 146.757951 271.305081 
L 148.059171 270.852077 
L 148.709784 270.781169 
L 149.36039 270.90634 
L 150.336307 271.425373 
L 151.96283 272.372201 
L 152.938747 272.66852 
L 153.914663 272.731116 
L 154.890579 272.540781 
L 156.191799 272.122218 
L 157.167716 272.137093 
L 160.420768 272.546084 
L 164.975035 272.75632 
L 166.926868 272.704562 
L 167.577475 272.548403 
L 168.228094 272.20374 
L 168.878701 271.574213 
L 169.854617 270.111828 
L 171.80645 266.712788 
L 172.131747 265.637975 
L 172.457057 263.856839 
L 172.782366 260.555566 
L 173.107664 253.814683 
L 173.432973 242.020516 
L 173.758283 244.58639 
L 174.08358 261.268122 
L 174.40889 268.448268 
L 174.734199 270.948103 
L 175.059496 271.930072 
L 175.384806 272.363957 
L 176.035413 272.676941 
L 177.011329 272.769495 
L 180.264376 272.693127 
L 182.866828 272.492808 
L 184.493351 272.144578 
L 186.445184 271.552831 
L 187.095791 271.580734 
L 188.397005 271.958224 
L 190.999457 272.764257 
L 191.650063 272.707843 
L 192.62598 272.515891 
L 194.577813 272.497281 
L 203.035739 272.756711 
L 204.662262 272.757091 
L 205.638178 272.520416 
L 206.288798 272.148888 
L 206.939404 271.555556 
L 207.590011 270.726876 
L 208.24063 269.649466 
L 208.891237 268.248534 
L 209.541844 266.276732 
L 210.192451 263.046033 
L 210.517761 260.440383 
L 210.84307 256.564446 
L 211.168367 250.545272 
L 211.818987 229.924064 
L 212.144284 226.558905 
L 213.1202 261.481908 
L 213.44551 266.159106 
L 213.770807 268.712247 
L 214.096117 270.173845 
L 214.421426 271.052462 
L 215.072033 271.962054 
L 215.72264 272.366516 
L 216.698556 272.622032 
L 218.32508 272.746894 
L 222.228745 272.750129 
L 226.783018 272.579032 
L 231.011981 272.294235 
L 233.289123 272.694534 
L 234.26504 272.620616 
L 235.566253 272.431806 
L 237.843396 272.624709 
L 241.421752 272.736457 
L 247.277238 272.730847 
L 248.253155 272.599409 
L 248.903774 272.36744 
L 249.554381 271.898101 
L 250.204988 271.087295 
L 251.180904 269.348572 
L 251.831511 268.001379 
L 252.15682 267.153987 
L 252.48213 265.976341 
L 252.807427 264.103072 
L 253.132737 260.826241 
L 253.458046 255.443958 
L 253.783344 252.714107 
L 254.433963 267.870929 
L 254.75926 270.718124 
L 255.08457 271.840275 
L 255.409867 272.323565 
L 256.060486 272.662463 
L 257.036403 272.766947 
L 260.940056 272.746842 
L 266.470257 272.56811 
L 269.072685 272.409922 
L 271.349815 272.688674 
L 272.651053 272.734421 
L 273.952267 272.592319 
L 285.988561 272.785343 
L 287.940394 272.681666 
L 288.916311 272.382256 
L 289.566905 271.938298 
L 290.217524 271.180133 
L 290.868143 270.01579 
L 291.518738 268.326762 
L 292.169357 265.718386 
L 292.494654 263.737721 
L 293.470571 254.788293 
L 293.795893 256.341849 
L 294.446487 266.548739 
L 294.771784 269.346957 
L 295.097106 270.836798 
L 295.422404 271.636744 
L 296.073023 272.340326 
L 296.723617 272.591012 
L 298.024856 272.734113 
L 301.928521 272.766681 
L 313.639494 272.641148 
L 314.61541 272.352818 
L 315.26603 272.197762 
L 316.241946 272.441344 
L 317.54316 272.658339 
L 320.145587 272.750946 
L 328.278216 272.742029 
L 329.904751 272.604479 
L 330.880668 272.306161 
L 331.531287 271.899858 
L 332.181881 271.273216 
L 332.832501 270.39614 
L 333.48312 269.015934 
L 334.133714 266.744074 
L 334.459036 266.699591 
L 335.109631 270.827636 
L 335.434953 271.900209 
L 335.76025 272.379694 
L 336.410844 272.69701 
L 337.712083 272.784578 
L 353.001424 272.741252 
L 353.97734 272.49187 
L 354.627935 272.374435 
L 356.905089 272.706376 
L 361.134052 272.753734 
L 370.893192 272.677537 
L 371.869108 272.474558 
L 372.519728 272.193549 
L 373.170347 271.708417 
L 373.820941 270.871861 
L 374.796858 268.965476 
L 375.12218 269.244338 
L 375.772774 271.325289 
L 376.098096 271.965036 
L 376.748691 272.508239 
L 377.724607 272.709487 
L 380.001737 272.764335 
L 381.628273 272.767428 
L 381.628273 272.767428 
" clip-path="url(#p055f5d03f1)" style="fill: none; stroke: #d62728; stroke-width: 1.2; stroke-linecap: round"/>
   </g>
   <g id="line2d_17">
    <path d="M 56.973727 272.772246 
L 58.274948 272.664907 
L 58.925558 272.346853 
L 59.576169 271.569733 
L 59.901474 270.905314 
L 60.552084 268.742915 
L 61.202694 264.976732 
L 61.853305 258.861538 
L 62.503915 249.48271 
L 63.154525 235.825907 
L 63.805136 216.981428 
L 64.781051 178.492088 
L 66.407577 104.782527 
L 67.058187 85.708417 
L 67.383492 80.701345 
L 67.708797 78.929748 
L 68.034103 80.235268 
L 68.359408 84.252719 
L 69.010018 98.376323 
L 72.26307 185.742017 
L 73.238984 202.940823 
L 76.817342 258.956987 
L 77.467952 269.673529 
L 77.793257 272.536125 
L 78.118562 271.629917 
L 78.443867 264.746151 
L 78.769172 249.81494 
L 79.419783 196.018318 
L 80.070393 135.284284 
L 80.721003 98.288701 
L 81.046308 89.752191 
L 81.371615 86.004898 
L 81.69692 85.605853 
L 82.022225 87.437304 
L 82.672835 94.89437 
L 83.974054 115.470635 
L 86.251191 152.398242 
L 86.901801 160.813007 
L 87.552411 166.7082 
L 87.877717 168.318895 
L 88.203024 168.833645 
L 88.528327 168.134779 
L 88.853633 166.16363 
L 89.178937 162.944857 
L 89.829547 153.362389 
L 91.456073 125.263978 
L 91.78138 121.567689 
L 92.106683 119.287104 
L 92.43199 118.985904 
L 92.757293 121.686639 
L 93.0826 129.389012 
L 93.407906 146.025768 
L 93.733209 178.236279 
L 94.383819 270.072928 
L 94.709126 256.494578 
L 95.359736 177.823328 
L 96.010346 137.211235 
L 96.660956 118.109185 
L 97.311566 107.334671 
L 97.962176 100.112274 
L 98.938092 91.931198 
L 100.564618 78.912575 
L 101.540535 69.161727 
L 102.841755 55.328713 
L 103.167058 53.0322 
L 103.492365 51.785104 
L 103.817671 51.745268 
L 104.142974 52.868567 
L 104.793584 57.550559 
L 106.094807 69.649853 
L 106.745417 77.610015 
L 107.070721 83.246626 
L 107.396027 90.841544 
L 107.721331 101.365647 
L 108.046637 116.200865 
L 108.37194 137.217541 
L 109.02255 204.327995 
L 109.34786 244.729823 
L 109.673163 270.078856 
L 109.998467 262.406677 
L 111.299687 119.348645 
L 111.9503 84.645759 
L 112.600907 65.751753 
L 113.25152 54.534083 
L 113.902133 47.28855 
L 114.552739 42.300096 
L 115.203352 38.752354 
L 115.853959 36.286002 
L 116.504572 34.828703 
L 116.829876 34.521754 
L 117.155179 34.549751 
L 117.480489 34.974277 
L 117.805792 35.874531 
L 118.131096 37.347631 
L 118.456399 39.505834 
L 119.107012 46.362201 
L 119.757625 57.296287 
L 120.408232 72.523144 
L 123.335981 151.221952 
L 124.311891 167.070612 
L 126.263724 193.992613 
L 126.914337 206.720216 
L 127.564944 224.090709 
L 128.866164 264.572407 
L 129.191474 259.884411 
L 129.516777 234.911175 
L 130.817997 63.342324 
L 131.1433 48.661459 
L 131.46861 42.105063 
L 131.793913 40.01718 
L 132.119217 40.209268 
L 132.76983 43.18069 
L 133.745746 48.323197 
L 134.396353 50.958573 
L 135.046966 52.845231 
L 135.697573 54.05864 
L 136.348186 54.694827 
L 136.998793 54.841531 
L 137.649406 54.571674 
L 138.300019 53.944022 
L 138.950626 53.005304 
L 139.926542 51.092351 
L 140.902458 48.656398 
L 142.203678 44.740339 
L 144.806118 36.522758 
L 145.131421 35.934971 
L 145.456731 35.650429 
L 145.782034 35.792186 
L 146.107338 36.520471 
L 146.432647 38.040212 
L 146.757951 40.605096 
L 147.083254 44.51708 
L 147.408558 50.113254 
L 148.059171 67.66698 
L 148.709784 94.85768 
L 150.98692 212.00857 
L 151.637527 232.462714 
L 152.28814 246.995509 
L 153.264056 262.915971 
L 153.914663 270.566863 
L 154.239966 272.272897 
L 154.565276 270.930601 
L 154.890579 264.578531 
L 155.215883 251.060191 
L 155.541193 229.064321 
L 157.167716 82.1247 
L 157.818323 54.317716 
L 158.468936 41.467674 
L 158.794239 38.198684 
L 159.119549 36.188357 
L 159.444852 35.038277 
L 159.770155 34.477758 
L 160.095459 34.324548 
L 160.420768 34.45671 
L 161.071382 35.280968 
L 161.721988 36.587631 
L 162.697905 39.199658 
L 163.673821 42.665039 
L 164.324428 45.651246 
L 164.975035 49.438217 
L 165.625654 54.364186 
L 166.276261 60.879975 
L 166.926868 69.483117 
L 167.902784 86.635195 
L 168.878701 104.790949 
L 169.20401 109.05385 
L 169.529307 111.551802 
L 169.854617 111.988224 
L 170.179927 110.376599 
L 170.830533 102.649004 
L 171.48114 93.490962 
L 171.80645 90.26807 
L 172.131747 89.146445 
L 172.457057 91.7747 
L 172.782366 102.030704 
L 173.107664 130.351379 
L 173.432973 193.458238 
L 173.758283 207.436419 
L 174.08358 131.093963 
L 174.40889 89.347226 
L 174.734199 71.454966 
L 175.059496 62.632741 
L 175.384806 57.596401 
L 176.035413 52.128628 
L 176.68602 49.147812 
L 177.336639 47.179209 
L 178.312555 45.074654 
L 179.613769 42.912791 
L 181.565602 39.750654 
L 182.541518 37.784324 
L 183.842732 34.896006 
L 184.168042 34.445228 
L 184.493351 34.384259 
L 184.818648 34.979195 
L 185.143958 36.570401 
L 185.469268 39.524122 
L 185.794565 44.125684 
L 186.445184 58.201017 
L 188.397005 107.545847 
L 189.047624 125.257187 
L 189.698231 153.173104 
L 190.348837 201.632729 
L 190.999457 254.517403 
L 191.324754 248.133878 
L 192.62598 88.77777 
L 192.951277 70.504724 
L 193.276587 58.722544 
L 193.927194 45.770639 
L 194.577813 39.614317 
L 195.22842 36.4108 
L 195.879026 34.636315 
L 196.529633 33.630937 
L 197.180252 33.088334 
L 197.830859 32.863245 
L 198.481466 32.893529 
L 199.132085 33.168463 
L 199.782692 33.719374 
L 200.433299 34.62276 
L 201.083906 36.014443 
L 201.734525 38.115123 
L 202.385132 41.266035 
L 203.035739 45.96733 
L 203.686358 52.884195 
L 204.336965 62.740452 
L 204.987572 75.974784 
L 207.264714 130.84348 
L 207.915321 139.065822 
L 208.24063 141.146269 
L 208.565928 142.050355 
L 208.891237 142.021772 
L 209.216534 141.369484 
L 209.867154 139.709001 
L 210.192451 139.622666 
L 210.517761 140.811524 
L 210.84307 144.025293 
L 211.493677 157.738206 
L 211.818987 159.250791 
L 212.144284 135.390737 
L 212.794903 65.991469 
L 213.1202 53.997813 
L 213.44551 49.129682 
L 213.770807 46.95525 
L 214.421426 44.988062 
L 215.397343 43.214434 
L 216.698556 41.249963 
L 217.999782 39.658257 
L 219.300996 38.4069 
L 220.927532 37.178021 
L 223.855269 35.350973 
L 225.156495 34.69288 
L 225.807101 34.569855 
L 226.132411 34.633355 
L 226.457708 34.835595 
L 226.783018 35.241332 
L 227.108328 35.94305 
L 227.433625 37.072268 
L 227.758934 38.813638 
L 228.084244 41.42219 
L 228.409541 45.239431 
L 228.734851 50.703071 
L 229.06016 58.331606 
L 229.710767 82.119767 
L 230.361374 118.28267 
L 231.6626 199.613094 
L 232.313207 228.489407 
L 232.963814 249.516408 
L 233.614421 264.222823 
L 233.93973 266.913874 
L 234.26504 262.836718 
L 234.590337 248.160909 
L 234.915647 220.854048 
L 236.216873 84.641197 
L 236.867479 54.613769 
L 237.192789 46.8531 
L 237.518086 41.877343 
L 237.843396 38.702095 
L 238.168693 36.684847 
L 238.494003 35.414002 
L 238.819312 34.627364 
L 239.14461 34.157254 
L 239.795229 33.773151 
L 240.445836 33.77714 
L 241.421752 34.094741 
L 242.722966 34.794143 
L 243.698882 35.518782 
L 244.674799 36.533168 
L 245.325418 37.475417 
L 245.976025 38.752211 
L 246.626631 40.527312 
L 247.277238 43.041092 
L 247.927857 46.611955 
L 248.578464 51.547661 
L 250.204988 66.648033 
L 250.530297 68.157708 
L 250.855594 68.516345 
L 251.180904 67.809251 
L 251.831511 64.940422 
L 252.15682 64.152411 
L 252.48213 65.107029 
L 252.807427 69.671987 
L 253.132737 81.948126 
L 253.783344 139.671539 
L 254.108653 116.960035 
L 254.433963 82.258706 
L 254.75926 63.638176 
L 255.08457 54.209947 
L 255.409867 48.95022 
L 256.060486 43.537869 
L 256.711093 40.827025 
L 257.3617 39.179825 
L 258.012319 38.042557 
L 258.988223 36.822414 
L 260.289449 35.648342 
L 261.915972 34.512861 
L 264.518412 32.974631 
L 265.169019 32.757149 
L 265.494341 32.762583 
L 265.819638 32.911202 
L 266.144935 33.286798 
L 266.470257 34.012452 
L 266.795555 35.260406 
L 267.120852 37.258107 
L 267.446174 40.278859 
L 267.771471 44.601528 
L 268.42209 57.820188 
L 269.397982 86.026074 
L 271.024518 135.329353 
L 271.675137 165.179529 
L 272.651053 221.346924 
L 272.97635 210.07735 
L 273.952267 89.378997 
L 274.277564 67.041344 
L 274.602886 53.674579 
L 274.928183 45.698488 
L 275.25348 40.851575 
L 275.578802 37.835957 
L 275.9041 35.916884 
L 276.554719 33.853781 
L 277.205313 32.954985 
L 277.855933 32.57936 
L 278.506527 32.463856 
L 279.482443 32.543328 
L 280.783682 32.917236 
L 282.084896 33.529131 
L 283.386109 34.423966 
L 284.362026 35.367017 
L 285.337942 36.675968 
L 285.988561 37.851742 
L 286.639156 39.372456 
L 287.289775 41.348867 
L 287.940394 43.884596 
L 288.916311 48.713521 
L 289.892227 53.62788 
L 290.217524 54.801195 
L 290.542821 55.552586 
L 290.868143 55.841118 
L 291.193441 55.729689 
L 291.518738 55.416507 
L 291.84406 55.261281 
L 292.169357 55.844521 
L 292.494654 58.090932 
L 292.819976 63.494346 
L 293.145274 73.889261 
L 293.470571 88.035286 
L 293.795893 94.561055 
L 294.12119 85.450799 
L 294.771784 60.426195 
L 295.422404 48.046105 
L 296.073023 42.197074 
L 296.723617 39.059045 
L 297.374236 37.203401 
L 298.024856 36.033203 
L 298.67545 35.264024 
L 299.651367 34.55038 
L 300.627283 34.14287 
L 301.928521 33.85441 
L 303.88033 33.679066 
L 305.832162 33.674562 
L 306.808079 33.817677 
L 307.458698 34.073951 
L 308.109317 34.611493 
L 308.434614 35.064601 
L 308.759912 35.709997 
L 309.085234 36.627138 
L 309.410531 37.926581 
L 309.735828 39.76175 
L 310.06115 42.340089 
L 310.386447 45.930898 
L 310.711745 50.866033 
L 311.362364 66.24547 
L 312.012958 90.673035 
L 312.988875 141.428852 
L 314.290113 217.901783 
L 314.61541 227.265467 
L 314.940708 217.740691 
L 315.26603 184.49989 
L 315.916624 100.210563 
L 316.241946 73.261538 
L 316.567243 56.79219 
L 316.89254 47.134883 
L 317.217862 41.508411 
L 317.54316 38.207477 
L 317.868457 36.250041 
L 318.193779 35.079086 
L 318.519076 34.375909 
L 319.16967 33.707249 
L 319.82029 33.490496 
L 320.796206 33.452533 
L 323.723955 33.678509 
L 325.675788 33.984685 
L 326.977002 34.401646 
L 327.952918 34.930938 
L 328.928835 35.756525 
L 329.904751 36.983202 
L 331.205965 39.151471 
L 331.856584 40.385527 
L 332.181881 41.191882 
L 332.507203 42.368186 
L 332.832501 44.284742 
L 333.157798 47.594512 
L 333.48312 53.502638 
L 333.808417 64.102523 
L 334.459036 95.257583 
L 334.784333 87.662879 
L 335.434953 56.220789 
L 335.76025 48.479924 
L 336.085547 43.937229 
L 336.410844 41.12894 
L 337.061464 38.021152 
L 337.712083 36.417006 
L 338.362677 35.454267 
L 339.338594 34.556143 
L 340.31451 33.974504 
L 341.615748 33.447057 
L 343.242259 33.024976 
L 345.194092 32.773678 
L 346.495306 32.807366 
L 347.145925 32.963249 
L 347.796544 33.329794 
L 348.447139 34.120779 
L 348.772461 34.797088 
L 349.097758 35.765104 
L 349.423055 37.136369 
L 349.748377 39.053111 
L 350.398972 45.194734 
L 351.049591 55.430862 
L 351.70021 70.131688 
L 352.350804 89.013067 
L 353.001424 113.826996 
L 353.97734 160.356252 
L 354.302637 155.808638 
L 355.603851 52.226402 
L 355.929173 43.629165 
L 356.25447 38.829281 
L 356.579767 36.10022 
L 356.905089 34.514291 
L 357.230387 33.575816 
L 357.555684 33.014067 
L 358.206303 32.479127 
L 358.856922 32.31069 
L 359.832839 32.315179 
L 361.784647 32.610617 
L 364.387099 33.250365 
L 366.664229 34.032885 
L 369.266681 35.169067 
L 371.543811 36.297713 
L 372.19443 36.87672 
L 372.519728 37.412861 
L 372.845025 38.302549 
L 373.170347 39.808978 
L 373.495644 42.368243 
L 373.820941 46.696331 
L 374.146263 53.877834 
L 374.796858 77.667996 
L 375.12218 83.060601 
L 375.447477 75.365635 
L 376.098096 53.115904 
L 376.423393 46.518699 
L 376.748691 42.267767 
L 377.39931 37.62581 
L 378.049904 35.43688 
L 378.700523 34.311293 
L 379.351143 33.699656 
L 380.001737 33.358735 
L 380.977654 33.111497 
L 381.628273 33.042278 
L 381.628273 33.042278 
" clip-path="url(#p055f5d03f1)" style="fill: none; stroke: #9467bd; stroke-width: 1.2; stroke-linecap: round"/>
   </g>
   <g id="patch_3">
    <path d="M 40.741 272.772337 
L 40.741 32.881547 
" style="fill: none; stroke: #262626; stroke-linejoin: miter; stroke-linecap: square"/>
   </g>
   <g id="patch_4">
    <path d="M 56.648422 286.3065 
L 381.628273 286.3065 
" style="fill: none; stroke: #262626; stroke-linejoin: miter; stroke-linecap: square"/>
   </g>
   <g id="text_15">
    <!-- First Order Indices for v(t) -->
    <g style="fill: #262626" transform="translate(164.62975 14.1945) scale(0.096 -0.096)">
     <defs>
      <path id="ArialMT-46" d="M 525 0 
L 525 4581 
L 3616 4581 
L 3616 4041 
L 1131 4041 
L 1131 2622 
L 3281 2622 
L 3281 2081 
L 1131 2081 
L 1131 0 
L 525 0 
z
" transform="scale(0.015625)"/>
      <path id="ArialMT-4f" d="M 309 2231 
Q 309 3372 921 4017 
Q 1534 4663 2503 4663 
Q 3138 4663 3647 4359 
Q 4156 4056 4423 3514 
Q 4691 2972 4691 2284 
Q 4691 1588 4409 1038 
Q 4128 488 3612 205 
Q 3097 -78 2500 -78 
Q 1853 -78 1343 234 
Q 834 547 571 1087 
Q 309 1628 309 2231 
z
M 934 2222 
Q 934 1394 1379 917 
Q 1825 441 2497 441 
Q 3181 441 3623 922 
Q 4066 1403 4066 2288 
Q 4066 2847 3877 3264 
Q 3688 3681 3323 3911 
Q 2959 4141 2506 4141 
Q 1863 4141 1398 3698 
Q 934 3256 934 2222 
z
" transform="scale(0.015625)"/>
     </defs>
     <use xlink:href="#ArialMT-46"/>
     <use xlink:href="#ArialMT-69" x="61.083984"/>
     <use xlink:href="#ArialMT-72" x="83.300781"/>
     <use xlink:href="#ArialMT-73" x="116.601562"/>
     <use xlink:href="#ArialMT-74" x="166.601562"/>
     <use xlink:href="#ArialMT-20" x="194.384766"/>
     <use xlink:href="#ArialMT-4f" x="222.167969"/>
     <use xlink:href="#ArialMT-72" x="299.951172"/>
     <use xlink:href="#ArialMT-64" x="333.251953"/>
     <use xlink:href="#ArialMT-65" x="388.867188"/>
     <use xlink:href="#ArialMT-72" x="444.482422"/>
     <use xlink:href="#ArialMT-20" x="477.783203"/>
     <use xlink:href="#ArialMT-49" x="505.566406"/>
     <use xlink:href="#ArialMT-6e" x="533.349609"/>
     <use xlink:href="#ArialMT-64" x="588.964844"/>
     <use xlink:href="#ArialMT-69" x="644.580078"/>
     <use xlink:href="#ArialMT-63" x="666.796875"/>
     <use xlink:href="#ArialMT-65" x="716.796875"/>
     <use xlink:href="#ArialMT-73" x="772.412109"/>
     <use xlink:href="#ArialMT-20" x="822.412109"/>
     <use xlink:href="#ArialMT-66" x="850.195312"/>
     <use xlink:href="#ArialMT-6f" x="877.978516"/>
     <use xlink:href="#ArialMT-72" x="933.59375"/>
     <use xlink:href="#ArialMT-20" x="966.894531"/>
     <use xlink:href="#ArialMT-76" x="994.677734"/>
     <use xlink:href="#ArialMT-28" x="1044.677734"/>
     <use xlink:href="#ArialMT-74" x="1077.978516"/>
     <use xlink:href="#ArialMT-29" x="1105.761719"/>
    </g>
   </g>
   <g id="legend_1">
    <g id="line2d_18">
     <path d="M 335.959875 127.446562 
L 344.759875 127.446562 
L 353.559875 127.446562 
" style="fill: none; stroke: #1f77b4; stroke-width: 1.2; stroke-linecap: round"/>
    </g>
    <g id="text_16">
     <!-- alpha -->
     <g style="fill: #262626" transform="translate(360.599875 130.526562) scale(0.088 -0.088)">
      <defs>
       <path id="ArialMT-61" d="M 2588 409 
Q 2275 144 1986 34 
Q 1697 -75 1366 -75 
Q 819 -75 525 192 
Q 231 459 231 875 
Q 231 1119 342 1320 
Q 453 1522 633 1644 
Q 813 1766 1038 1828 
Q 1203 1872 1538 1913 
Q 2219 1994 2541 2106 
Q 2544 2222 2544 2253 
Q 2544 2597 2384 2738 
Q 2169 2928 1744 2928 
Q 1347 2928 1158 2789 
Q 969 2650 878 2297 
L 328 2372 
Q 403 2725 575 2942 
Q 747 3159 1072 3276 
Q 1397 3394 1825 3394 
Q 2250 3394 2515 3294 
Q 2781 3194 2906 3042 
Q 3031 2891 3081 2659 
Q 3109 2516 3109 2141 
L 3109 1391 
Q 3109 606 3145 398 
Q 3181 191 3288 0 
L 2700 0 
Q 2613 175 2588 409 
z
M 2541 1666 
Q 2234 1541 1622 1453 
Q 1275 1403 1131 1340 
Q 988 1278 909 1158 
Q 831 1038 831 891 
Q 831 666 1001 516 
Q 1172 366 1500 366 
Q 1825 366 2078 508 
Q 2331 650 2450 897 
Q 2541 1088 2541 1459 
L 2541 1666 
z
" transform="scale(0.015625)"/>
       <path id="ArialMT-6c" d="M 409 0 
L 409 4581 
L 972 4581 
L 972 0 
L 409 0 
z
" transform="scale(0.015625)"/>
       <path id="ArialMT-70" d="M 422 -1272 
L 422 3319 
L 934 3319 
L 934 2888 
Q 1116 3141 1344 3267 
Q 1572 3394 1897 3394 
Q 2322 3394 2647 3175 
Q 2972 2956 3137 2557 
Q 3303 2159 3303 1684 
Q 3303 1175 3120 767 
Q 2938 359 2589 142 
Q 2241 -75 1856 -75 
Q 1575 -75 1351 44 
Q 1128 163 984 344 
L 984 -1272 
L 422 -1272 
z
M 931 1641 
Q 931 1000 1190 694 
Q 1450 388 1819 388 
Q 2194 388 2461 705 
Q 2728 1022 2728 1688 
Q 2728 2322 2467 2637 
Q 2206 2953 1844 2953 
Q 1484 2953 1207 2617 
Q 931 2281 931 1641 
z
" transform="scale(0.015625)"/>
       <path id="ArialMT-68" d="M 422 0 
L 422 4581 
L 984 4581 
L 984 2938 
Q 1378 3394 1978 3394 
Q 2347 3394 2619 3248 
Q 2891 3103 3008 2847 
Q 3125 2591 3125 2103 
L 3125 0 
L 2563 0 
L 2563 2103 
Q 2563 2525 2380 2717 
Q 2197 2909 1863 2909 
Q 1613 2909 1392 2779 
Q 1172 2650 1078 2428 
Q 984 2206 984 1816 
L 984 0 
L 422 0 
z
" transform="scale(0.015625)"/>
      </defs>
      <use xlink:href="#ArialMT-61"/>
      <use xlink:href="#ArialMT-6c" x="55.615234"/>
      <use xlink:href="#ArialMT-70" x="77.832031"/>
      <use xlink:href="#ArialMT-68" x="133.447266"/>
      <use xlink:href="#ArialMT-61" x="189.0625"/>
     </g>
    </g>
    <g id="line2d_19">
     <path d="M 335.959875 139.894437 
L 344.759875 139.894437 
L 353.559875 139.894437 
" style="fill: none; stroke: #ff7f0e; stroke-width: 1.2; stroke-linecap: round"/>
    </g>
    <g id="text_17">
     <!-- beta -->
     <g style="fill: #262626" transform="translate(360.599875 142.974437) scale(0.088 -0.088)">
      <defs>
       <path id="ArialMT-62" d="M 941 0 
L 419 0 
L 419 4581 
L 981 4581 
L 981 2947 
Q 1338 3394 1891 3394 
Q 2197 3394 2470 3270 
Q 2744 3147 2920 2923 
Q 3097 2700 3197 2384 
Q 3297 2069 3297 1709 
Q 3297 856 2875 390 
Q 2453 -75 1863 -75 
Q 1275 -75 941 416 
L 941 0 
z
M 934 1684 
Q 934 1088 1097 822 
Q 1363 388 1816 388 
Q 2184 388 2453 708 
Q 2722 1028 2722 1663 
Q 2722 2313 2464 2622 
Q 2206 2931 1841 2931 
Q 1472 2931 1203 2611 
Q 934 2291 934 1684 
z
" transform="scale(0.015625)"/>
      </defs>
      <use xlink:href="#ArialMT-62"/>
      <use xlink:href="#ArialMT-65" x="55.615234"/>
      <use xlink:href="#ArialMT-74" x="111.230469"/>
      <use xlink:href="#ArialMT-61" x="139.013672"/>
     </g>
    </g>
    <g id="line2d_20">
     <path d="M 335.959875 152.342312 
L 344.759875 152.342312 
L 353.559875 152.342312 
" style="fill: none; stroke: #2ca02c; stroke-width: 1.2; stroke-linecap: round"/>
    </g>
    <g id="text_18">
     <!-- gamma -->
     <g style="fill: #262626" transform="translate(360.599875 155.422312) scale(0.088 -0.088)">
      <defs>
       <path id="ArialMT-67" d="M 319 -275 
L 866 -356 
Q 900 -609 1056 -725 
Q 1266 -881 1628 -881 
Q 2019 -881 2231 -725 
Q 2444 -569 2519 -288 
Q 2563 -116 2559 434 
Q 2191 0 1641 0 
Q 956 0 581 494 
Q 206 988 206 1678 
Q 206 2153 378 2554 
Q 550 2956 876 3175 
Q 1203 3394 1644 3394 
Q 2231 3394 2613 2919 
L 2613 3319 
L 3131 3319 
L 3131 450 
Q 3131 -325 2973 -648 
Q 2816 -972 2473 -1159 
Q 2131 -1347 1631 -1347 
Q 1038 -1347 672 -1080 
Q 306 -813 319 -275 
z
M 784 1719 
Q 784 1066 1043 766 
Q 1303 466 1694 466 
Q 2081 466 2343 764 
Q 2606 1063 2606 1700 
Q 2606 2309 2336 2618 
Q 2066 2928 1684 2928 
Q 1309 2928 1046 2623 
Q 784 2319 784 1719 
z
" transform="scale(0.015625)"/>
       <path id="ArialMT-6d" d="M 422 0 
L 422 3319 
L 925 3319 
L 925 2853 
Q 1081 3097 1340 3245 
Q 1600 3394 1931 3394 
Q 2300 3394 2536 3241 
Q 2772 3088 2869 2813 
Q 3263 3394 3894 3394 
Q 4388 3394 4653 3120 
Q 4919 2847 4919 2278 
L 4919 0 
L 4359 0 
L 4359 2091 
Q 4359 2428 4304 2576 
Q 4250 2725 4106 2815 
Q 3963 2906 3769 2906 
Q 3419 2906 3187 2673 
Q 2956 2441 2956 1928 
L 2956 0 
L 2394 0 
L 2394 2156 
Q 2394 2531 2256 2718 
Q 2119 2906 1806 2906 
Q 1569 2906 1367 2781 
Q 1166 2656 1075 2415 
Q 984 2175 984 1722 
L 984 0 
L 422 0 
z
" transform="scale(0.015625)"/>
      </defs>
      <use xlink:href="#ArialMT-67"/>
      <use xlink:href="#ArialMT-61" x="55.615234"/>
      <use xlink:href="#ArialMT-6d" x="111.230469"/>
      <use xlink:href="#ArialMT-6d" x="194.53125"/>
      <use xlink:href="#ArialMT-61" x="277.832031"/>
     </g>
    </g>
    <g id="line2d_21">
     <path d="M 335.959875 164.893312 
L 344.759875 164.893312 
L 353.559875 164.893312 
" style="fill: none; stroke: #d62728; stroke-width: 1.2; stroke-linecap: round"/>
    </g>
    <g id="text_19">
     <!-- delta -->
     <g style="fill: #262626" transform="translate(360.599875 167.973312) scale(0.088 -0.088)">
      <use xlink:href="#ArialMT-64"/>
      <use xlink:href="#ArialMT-65" x="55.615234"/>
      <use xlink:href="#ArialMT-6c" x="111.230469"/>
      <use xlink:href="#ArialMT-74" x="133.447266"/>
      <use xlink:href="#ArialMT-61" x="161.230469"/>
     </g>
    </g>
    <g id="line2d_22">
     <path d="M 335.959875 177.341187 
L 344.759875 177.341187 
L 353.559875 177.341187 
" style="fill: none; stroke: #9467bd; stroke-width: 1.2; stroke-linecap: round"/>
    </g>
    <g id="text_20">
     <!-- omega -->
     <g style="fill: #262626" transform="translate(360.599875 180.421187) scale(0.088 -0.088)">
      <use xlink:href="#ArialMT-6f"/>
      <use xlink:href="#ArialMT-6d" x="55.615234"/>
      <use xlink:href="#ArialMT-65" x="138.916016"/>
      <use xlink:href="#ArialMT-67" x="194.53125"/>
      <use xlink:href="#ArialMT-61" x="250.146484"/>
     </g>
    </g>
   </g>
  </g>
 </g>
 <defs>
  <clipPath id="p055f5d03f1">
   <rect x="40.741" y="20.1945" width="357.12" height="266.112"/>
  </clipPath>
 </defs>
</svg>