<?xml version="1.0" encoding="utf-8" standalone="no"?>
<!DOCTYPE svg PUBLIC "-//W3C//DTD SVG 1.1//EN"
  "http://www.w3.org/Graphics/SVG/1.1/DTD/svg11.dtd">
<svg xmlns:xlink="http://www.w3.org/1999/xlink" width="405.061pt" height="322.633875pt" viewBox="0 0 405.061 322.633875" xmlns="http://www.w3.org/2000/svg" version="1.1">
 <metadata>
  <rdf:RDF xmlns:dc="http://purl.org/dc/elements/1.1/" xmlns:cc="http://creativecommons.org/ns#" xmlns:rdf="http://www.w3.org/1999/02/22-rdf-syntax-ns#">
   <cc:Work>
    <dc:type rdf:resource="http://purl.org/dc/dcmitype/StillImage"/>
    <dc:date>2025-01-08T13:30:17.799002</dc:date>
    <dc:format>image/svg+xml</dc:format>
    <dc:creator>
     <cc:Agent>
      <dc:title>Matplotlib v3.9.0, https://matplotlib.org/</dc:title>
     </cc:Agent>
    </dc:creator>
   </cc:Work>
  </rdf:RDF>
 </metadata>
 <defs>
  <style type="text/css">*{stroke-linejoin: round; stroke-linecap: butt}</style>
 </defs>
 <g id="figure_1">
  <g id="patch_1">
   <path d="M 0 322.633875 
L 405.061 322.633875 
L 405.061 0 
L 0 0 
z
" style="fill: #ffffff"/>
  </g>
  <g id="axes_1">
   <g id="patch_2">
    <path d="M 40.741 286.3065 
L 397.861 286.3065 
L 397.861 20.1945 
L 40.741 20.1945 
z
" style="fill: #ffffff"/>
   </g>
   <g id="matplotlib.axis_1">
    <g id="xtick_1">
     <g id="line2d_1">
      <defs>
       <path id="m9244b8d6f1" d="M 0 0 
L 0 4.8 
" style="stroke: #262626"/>
      </defs>
      <g>
       <use xlink:href="#m9244b8d6f1" x="56.321811" y="286.3065" style="fill: #262626; stroke: #262626"/>
      </g>
     </g>
     <g id="text_1">
      <!-- 0 -->
      <g style="fill: #262626" transform="translate(53.874998 300.905375) scale(0.088 -0.088)">
       <defs>
        <path id="ArialMT-30" d="M 266 2259 
Q 266 3072 433 3567 
Q 600 4063 929 4331 
Q 1259 4600 1759 4600 
Q 2128 4600 2406 4451 
Q 2684 4303 2865 4023 
Q 3047 3744 3150 3342 
Q 3253 2941 3253 2259 
Q 3253 1453 3087 958 
Q 2922 463 2592 192 
Q 2263 -78 1759 -78 
Q 1097 -78 719 397 
Q 266 969 266 2259 
z
M 844 2259 
Q 844 1131 1108 757 
Q 1372 384 1759 384 
Q 2147 384 2411 759 
Q 2675 1134 2675 2259 
Q 2675 3391 2411 3762 
Q 2147 4134 1753 4134 
Q 1366 4134 1134 3806 
Q 844 3388 844 2259 
z
" transform="scale(0.015625)"/>
       </defs>
       <use xlink:href="#ArialMT-30"/>
      </g>
     </g>
    </g>
    <g id="xtick_2">
     <g id="line2d_2">
      <g>
       <use xlink:href="#m9244b8d6f1" x="121.383103" y="286.3065" style="fill: #262626; stroke: #262626"/>
      </g>
     </g>
     <g id="text_2">
      <!-- 10 -->
      <g style="fill: #262626" transform="translate(116.489478 300.905375) scale(0.088 -0.088)">
       <defs>
        <path id="ArialMT-31" d="M 2384 0 
L 1822 0 
L 1822 3584 
Q 1619 3391 1289 3197 
Q 959 3003 697 2906 
L 697 3450 
Q 1169 3672 1522 3987 
Q 1875 4303 2022 4600 
L 2384 4600 
L 2384 0 
z
" transform="scale(0.015625)"/>
       </defs>
       <use xlink:href="#ArialMT-31"/>
       <use xlink:href="#ArialMT-30" x="55.615234"/>
      </g>
     </g>
    </g>
    <g id="xtick_3">
     <g id="line2d_3">
      <g>
       <use xlink:href="#m9244b8d6f1" x="186.444395" y="286.3065" style="fill: #262626; stroke: #262626"/>
      </g>
     </g>
     <g id="text_3">
      <!-- 20 -->
      <g style="fill: #262626" transform="translate(181.55077 300.905375) scale(0.088 -0.088)">
       <defs>
        <path id="ArialMT-32" d="M 3222 541 
L 3222 0 
L 194 0 
Q 188 203 259 391 
Q 375 700 629 1000 
Q 884 1300 1366 1694 
Q 2113 2306 2375 2664 
Q 2638 3022 2638 3341 
Q 2638 3675 2398 3904 
Q 2159 4134 1775 4134 
Q 1369 4134 1125 3890 
Q 881 3647 878 3216 
L 300 3275 
Q 359 3922 746 4261 
Q 1134 4600 1788 4600 
Q 2447 4600 2831 4234 
Q 3216 3869 3216 3328 
Q 3216 3053 3103 2787 
Q 2991 2522 2730 2228 
Q 2469 1934 1863 1422 
Q 1356 997 1212 845 
Q 1069 694 975 541 
L 3222 541 
z
" transform="scale(0.015625)"/>
       </defs>
       <use xlink:href="#ArialMT-32"/>
       <use xlink:href="#ArialMT-30" x="55.615234"/>
      </g>
     </g>
    </g>
    <g id="xtick_4">
     <g id="line2d_4">
      <g>
       <use xlink:href="#m9244b8d6f1" x="251.505688" y="286.3065" style="fill: #262626; stroke: #262626"/>
      </g>
     </g>
     <g id="text_4">
      <!-- 30 -->
      <g style="fill: #262626" transform="translate(246.612063 300.905375) scale(0.088 -0.088)">
       <defs>
        <path id="ArialMT-33" d="M 269 1209 
L 831 1284 
Q 928 806 1161 595 
Q 1394 384 1728 384 
Q 2125 384 2398 659 
Q 2672 934 2672 1341 
Q 2672 1728 2419 1979 
Q 2166 2231 1775 2231 
Q 1616 2231 1378 2169 
L 1441 2663 
Q 1497 2656 1531 2656 
Q 1891 2656 2178 2843 
Q 2466 3031 2466 3422 
Q 2466 3731 2256 3934 
Q 2047 4138 1716 4138 
Q 1388 4138 1169 3931 
Q 950 3725 888 3313 
L 325 3413 
Q 428 3978 793 4289 
Q 1159 4600 1703 4600 
Q 2078 4600 2393 4439 
Q 2709 4278 2876 4000 
Q 3044 3722 3044 3409 
Q 3044 3113 2884 2869 
Q 2725 2625 2413 2481 
Q 2819 2388 3044 2092 
Q 3269 1797 3269 1353 
Q 3269 753 2831 336 
Q 2394 -81 1725 -81 
Q 1122 -81 723 278 
Q 325 638 269 1209 
z
" transform="scale(0.015625)"/>
       </defs>
       <use xlink:href="#ArialMT-33"/>
       <use xlink:href="#ArialMT-30" x="55.615234"/>
      </g>
     </g>
    </g>
    <g id="xtick_5">
     <g id="line2d_5">
      <g>
       <use xlink:href="#m9244b8d6f1" x="316.56698" y="286.3065" style="fill: #262626; stroke: #262626"/>
      </g>
     </g>
     <g id="text_5">
      <!-- 40 -->
      <g style="fill: #262626" transform="translate(311.673355 300.905375) scale(0.088 -0.088)">
       <defs>
        <path id="ArialMT-34" d="M 2069 0 
L 2069 1097 
L 81 1097 
L 81 1613 
L 2172 4581 
L 2631 4581 
L 2631 1613 
L 3250 1613 
L 3250 1097 
L 2631 1097 
L 2631 0 
L 2069 0 
z
M 2069 1613 
L 2069 3678 
L 634 1613 
L 2069 1613 
z
" transform="scale(0.015625)"/>
       </defs>
       <use xlink:href="#ArialMT-34"/>
       <use xlink:href="#ArialMT-30" x="55.615234"/>
      </g>
     </g>
    </g>
    <g id="xtick_6">
     <g id="line2d_6">
      <g>
       <use xlink:href="#m9244b8d6f1" x="381.628273" y="286.3065" style="fill: #262626; stroke: #262626"/>
      </g>
     </g>
     <g id="text_6">
      <!-- 50 -->
      <g style="fill: #262626" transform="translate(376.734648 300.905375) scale(0.088 -0.088)">
       <defs>
        <path id="ArialMT-35" d="M 266 1200 
L 856 1250 
Q 922 819 1161 601 
Q 1400 384 1738 384 
Q 2144 384 2425 690 
Q 2706 997 2706 1503 
Q 2706 1984 2436 2262 
Q 2166 2541 1728 2541 
Q 1456 2541 1237 2417 
Q 1019 2294 894 2097 
L 366 2166 
L 809 4519 
L 3088 4519 
L 3088 3981 
L 1259 3981 
L 1013 2750 
Q 1425 3038 1878 3038 
Q 2478 3038 2890 2622 
Q 3303 2206 3303 1553 
Q 3303 931 2941 478 
Q 2500 -78 1738 -78 
Q 1113 -78 717 272 
Q 322 622 266 1200 
z
" transform="scale(0.015625)"/>
       </defs>
       <use xlink:href="#ArialMT-35"/>
       <use xlink:href="#ArialMT-30" x="55.615234"/>
      </g>
     </g>
    </g>
    <g id="text_7">
     <!-- t -->
     <g style="fill: #262626" transform="translate(217.9675 313.525875) scale(0.096 -0.096)">
      <defs>
       <path id="ArialMT-74" d="M 1650 503 
L 1731 6 
Q 1494 -44 1306 -44 
Q 1000 -44 831 53 
Q 663 150 594 308 
Q 525 466 525 972 
L 525 2881 
L 113 2881 
L 113 3319 
L 525 3319 
L 525 4141 
L 1084 4478 
L 1084 3319 
L 1650 3319 
L 1650 2881 
L 1084 2881 
L 1084 941 
Q 1084 700 1114 631 
Q 1144 563 1211 522 
Q 1278 481 1403 481 
Q 1497 481 1650 503 
z
" transform="scale(0.015625)"/>
      </defs>
      <use xlink:href="#ArialMT-74"/>
     </g>
    </g>
   </g>
   <g id="matplotlib.axis_2">
    <g id="ytick_1">
     <g id="line2d_7">
      <defs>
       <path id="m29391e29a8" d="M 0 0 
L -4.8 0 
" style="stroke: #262626"/>
      </defs>
      <g>
       <use xlink:href="#m29391e29a8" x="40.741" y="273.47046" style="fill: #262626; stroke: #262626"/>
      </g>
     </g>
     <g id="text_8">
      <!-- 0.0 -->
      <g style="fill: #262626" transform="translate(20.209 276.619898) scale(0.088 -0.088)">
       <defs>
        <path id="ArialMT-2e" d="M 581 0 
L 581 641 
L 1222 641 
L 1222 0 
L 581 0 
z
" transform="scale(0.015625)"/>
       </defs>
       <use xlink:href="#ArialMT-30"/>
       <use xlink:href="#ArialMT-2e" x="55.615234"/>
       <use xlink:href="#ArialMT-30" x="83.398438"/>
      </g>
     </g>
    </g>
    <g id="ytick_2">
     <g id="line2d_8">
      <g>
       <use xlink:href="#m29391e29a8" x="40.741" y="225.231512" style="fill: #262626; stroke: #262626"/>
      </g>
     </g>
     <g id="text_9">
      <!-- 0.2 -->
      <g style="fill: #262626" transform="translate(20.209 228.38095) scale(0.088 -0.088)">
       <use xlink:href="#ArialMT-30"/>
       <use xlink:href="#ArialMT-2e" x="55.615234"/>
       <use xlink:href="#ArialMT-32" x="83.398438"/>
      </g>
     </g>
    </g>
    <g id="ytick_3">
     <g id="line2d_9">
      <g>
       <use xlink:href="#m29391e29a8" x="40.741" y="176.992565" style="fill: #262626; stroke: #262626"/>
      </g>
     </g>
     <g id="text_10">
      <!-- 0.4 -->
      <g style="fill: #262626" transform="translate(20.209 180.142002) scale(0.088 -0.088)">
       <use xlink:href="#ArialMT-30"/>
       <use xlink:href="#ArialMT-2e" x="55.615234"/>
       <use xlink:href="#ArialMT-34" x="83.398438"/>
      </g>
     </g>
    </g>
    <g id="ytick_4">
     <g id="line2d_10">
      <g>
       <use xlink:href="#m29391e29a8" x="40.741" y="128.753617" style="fill: #262626; stroke: #262626"/>
      </g>
     </g>
     <g id="text_11">
      <!-- 0.6 -->
      <g style="fill: #262626" transform="translate(20.209 131.903054) scale(0.088 -0.088)">
       <defs>
        <path id="ArialMT-36" d="M 3184 3459 
L 2625 3416 
Q 2550 3747 2413 3897 
Q 2184 4138 1850 4138 
Q 1581 4138 1378 3988 
Q 1113 3794 959 3422 
Q 806 3050 800 2363 
Q 1003 2672 1297 2822 
Q 1591 2972 1913 2972 
Q 2475 2972 2870 2558 
Q 3266 2144 3266 1488 
Q 3266 1056 3080 686 
Q 2894 316 2569 119 
Q 2244 -78 1831 -78 
Q 1128 -78 684 439 
Q 241 956 241 2144 
Q 241 3472 731 4075 
Q 1159 4600 1884 4600 
Q 2425 4600 2770 4297 
Q 3116 3994 3184 3459 
z
M 888 1484 
Q 888 1194 1011 928 
Q 1134 663 1356 523 
Q 1578 384 1822 384 
Q 2178 384 2434 671 
Q 2691 959 2691 1453 
Q 2691 1928 2437 2201 
Q 2184 2475 1800 2475 
Q 1419 2475 1153 2201 
Q 888 1928 888 1484 
z
" transform="scale(0.015625)"/>
       </defs>
       <use xlink:href="#ArialMT-30"/>
       <use xlink:href="#ArialMT-2e" x="55.615234"/>
       <use xlink:href="#ArialMT-36" x="83.398438"/>
      </g>
     </g>
    </g>
    <g id="ytick_5">
     <g id="line2d_11">
      <g>
       <use xlink:href="#m29391e29a8" x="40.741" y="80.514669" style="fill: #262626; stroke: #262626"/>
      </g>
     </g>
     <g id="text_12">
      <!-- 0.8 -->
      <g style="fill: #262626" transform="translate(20.209 83.664106) scale(0.088 -0.088)">
       <defs>
        <path id="ArialMT-38" d="M 1131 2484 
Q 781 2613 612 2850 
Q 444 3088 444 3419 
Q 444 3919 803 4259 
Q 1163 4600 1759 4600 
Q 2359 4600 2725 4251 
Q 3091 3903 3091 3403 
Q 3091 3084 2923 2848 
Q 2756 2613 2416 2484 
Q 2838 2347 3058 2040 
Q 3278 1734 3278 1309 
Q 3278 722 2862 322 
Q 2447 -78 1769 -78 
Q 1091 -78 675 323 
Q 259 725 259 1325 
Q 259 1772 486 2073 
Q 713 2375 1131 2484 
z
M 1019 3438 
Q 1019 3113 1228 2906 
Q 1438 2700 1772 2700 
Q 2097 2700 2305 2904 
Q 2513 3109 2513 3406 
Q 2513 3716 2298 3927 
Q 2084 4138 1766 4138 
Q 1444 4138 1231 3931 
Q 1019 3725 1019 3438 
z
M 838 1322 
Q 838 1081 952 856 
Q 1066 631 1291 507 
Q 1516 384 1775 384 
Q 2178 384 2440 643 
Q 2703 903 2703 1303 
Q 2703 1709 2433 1975 
Q 2163 2241 1756 2241 
Q 1359 2241 1098 1978 
Q 838 1716 838 1322 
z
" transform="scale(0.015625)"/>
       </defs>
       <use xlink:href="#ArialMT-30"/>
       <use xlink:href="#ArialMT-2e" x="55.615234"/>
       <use xlink:href="#ArialMT-38" x="83.398438"/>
      </g>
     </g>
    </g>
    <g id="ytick_6">
     <g id="line2d_12">
      <g>
       <use xlink:href="#m29391e29a8" x="40.741" y="32.275721" style="fill: #262626; stroke: #262626"/>
      </g>
     </g>
     <g id="text_13">
      <!-- 1.0 -->
      <g style="fill: #262626" transform="translate(20.209 35.425159) scale(0.088 -0.088)">
       <use xlink:href="#ArialMT-31"/>
       <use xlink:href="#ArialMT-2e" x="55.615234"/>
       <use xlink:href="#ArialMT-30" x="83.398438"/>
      </g>
     </g>
    </g>
    <g id="text_14">
     <!-- Sensitivity indices for x(t) -->
     <g style="fill: #262626" transform="translate(14.1885 206.3295) rotate(-90) scale(0.096 -0.096)">
      <defs>
       <path id="ArialMT-53" d="M 288 1472 
L 859 1522 
Q 900 1178 1048 958 
Q 1197 738 1509 602 
Q 1822 466 2213 466 
Q 2559 466 2825 569 
Q 3091 672 3220 851 
Q 3350 1031 3350 1244 
Q 3350 1459 3225 1620 
Q 3100 1781 2813 1891 
Q 2628 1963 1997 2114 
Q 1366 2266 1113 2400 
Q 784 2572 623 2826 
Q 463 3081 463 3397 
Q 463 3744 659 4045 
Q 856 4347 1234 4503 
Q 1613 4659 2075 4659 
Q 2584 4659 2973 4495 
Q 3363 4331 3572 4012 
Q 3781 3694 3797 3291 
L 3216 3247 
Q 3169 3681 2898 3903 
Q 2628 4125 2100 4125 
Q 1550 4125 1298 3923 
Q 1047 3722 1047 3438 
Q 1047 3191 1225 3031 
Q 1400 2872 2139 2705 
Q 2878 2538 3153 2413 
Q 3553 2228 3743 1945 
Q 3934 1663 3934 1294 
Q 3934 928 3725 604 
Q 3516 281 3123 101 
Q 2731 -78 2241 -78 
Q 1619 -78 1198 103 
Q 778 284 539 648 
Q 300 1013 288 1472 
z
" transform="scale(0.015625)"/>
       <path id="ArialMT-65" d="M 2694 1069 
L 3275 997 
Q 3138 488 2766 206 
Q 2394 -75 1816 -75 
Q 1088 -75 661 373 
Q 234 822 234 1631 
Q 234 2469 665 2931 
Q 1097 3394 1784 3394 
Q 2450 3394 2872 2941 
Q 3294 2488 3294 1666 
Q 3294 1616 3291 1516 
L 816 1516 
Q 847 969 1125 678 
Q 1403 388 1819 388 
Q 2128 388 2347 550 
Q 2566 713 2694 1069 
z
M 847 1978 
L 2700 1978 
Q 2663 2397 2488 2606 
Q 2219 2931 1791 2931 
Q 1403 2931 1139 2672 
Q 875 2413 847 1978 
z
" transform="scale(0.015625)"/>
       <path id="ArialMT-6e" d="M 422 0 
L 422 3319 
L 928 3319 
L 928 2847 
Q 1294 3394 1984 3394 
Q 2284 3394 2536 3286 
Q 2788 3178 2913 3003 
Q 3038 2828 3088 2588 
Q 3119 2431 3119 2041 
L 3119 0 
L 2556 0 
L 2556 2019 
Q 2556 2363 2490 2533 
Q 2425 2703 2258 2804 
Q 2091 2906 1866 2906 
Q 1506 2906 1245 2678 
Q 984 2450 984 1813 
L 984 0 
L 422 0 
z
" transform="scale(0.015625)"/>
       <path id="ArialMT-73" d="M 197 991 
L 753 1078 
Q 800 744 1014 566 
Q 1228 388 1613 388 
Q 2000 388 2187 545 
Q 2375 703 2375 916 
Q 2375 1106 2209 1216 
Q 2094 1291 1634 1406 
Q 1016 1563 777 1677 
Q 538 1791 414 1992 
Q 291 2194 291 2438 
Q 291 2659 392 2848 
Q 494 3038 669 3163 
Q 800 3259 1026 3326 
Q 1253 3394 1513 3394 
Q 1903 3394 2198 3281 
Q 2494 3169 2634 2976 
Q 2775 2784 2828 2463 
L 2278 2388 
Q 2241 2644 2061 2787 
Q 1881 2931 1553 2931 
Q 1166 2931 1000 2803 
Q 834 2675 834 2503 
Q 834 2394 903 2306 
Q 972 2216 1119 2156 
Q 1203 2125 1616 2013 
Q 2213 1853 2448 1751 
Q 2684 1650 2818 1456 
Q 2953 1263 2953 975 
Q 2953 694 2789 445 
Q 2625 197 2315 61 
Q 2006 -75 1616 -75 
Q 969 -75 630 194 
Q 291 463 197 991 
z
" transform="scale(0.015625)"/>
       <path id="ArialMT-69" d="M 425 3934 
L 425 4581 
L 988 4581 
L 988 3934 
L 425 3934 
z
M 425 0 
L 425 3319 
L 988 3319 
L 988 0 
L 425 0 
z
" transform="scale(0.015625)"/>
       <path id="ArialMT-76" d="M 1344 0 
L 81 3319 
L 675 3319 
L 1388 1331 
Q 1503 1009 1600 663 
Q 1675 925 1809 1294 
L 2547 3319 
L 3125 3319 
L 1869 0 
L 1344 0 
z
" transform="scale(0.015625)"/>
       <path id="ArialMT-79" d="M 397 -1278 
L 334 -750 
Q 519 -800 656 -800 
Q 844 -800 956 -737 
Q 1069 -675 1141 -563 
Q 1194 -478 1313 -144 
Q 1328 -97 1363 -6 
L 103 3319 
L 709 3319 
L 1400 1397 
Q 1534 1031 1641 628 
Q 1738 1016 1872 1384 
L 2581 3319 
L 3144 3319 
L 1881 -56 
Q 1678 -603 1566 -809 
Q 1416 -1088 1222 -1217 
Q 1028 -1347 759 -1347 
Q 597 -1347 397 -1278 
z
" transform="scale(0.015625)"/>
       <path id="ArialMT-20" transform="scale(0.015625)"/>
       <path id="ArialMT-64" d="M 2575 0 
L 2575 419 
Q 2259 -75 1647 -75 
Q 1250 -75 917 144 
Q 584 363 401 755 
Q 219 1147 219 1656 
Q 219 2153 384 2558 
Q 550 2963 881 3178 
Q 1213 3394 1622 3394 
Q 1922 3394 2156 3267 
Q 2391 3141 2538 2938 
L 2538 4581 
L 3097 4581 
L 3097 0 
L 2575 0 
z
M 797 1656 
Q 797 1019 1065 703 
Q 1334 388 1700 388 
Q 2069 388 2326 689 
Q 2584 991 2584 1609 
Q 2584 2291 2321 2609 
Q 2059 2928 1675 2928 
Q 1300 2928 1048 2622 
Q 797 2316 797 1656 
z
" transform="scale(0.015625)"/>
       <path id="ArialMT-63" d="M 2588 1216 
L 3141 1144 
Q 3050 572 2676 248 
Q 2303 -75 1759 -75 
Q 1078 -75 664 370 
Q 250 816 250 1647 
Q 250 2184 428 2587 
Q 606 2991 970 3192 
Q 1334 3394 1763 3394 
Q 2303 3394 2647 3120 
Q 2991 2847 3088 2344 
L 2541 2259 
Q 2463 2594 2264 2762 
Q 2066 2931 1784 2931 
Q 1359 2931 1093 2626 
Q 828 2322 828 1663 
Q 828 994 1084 691 
Q 1341 388 1753 388 
Q 2084 388 2306 591 
Q 2528 794 2588 1216 
z
" transform="scale(0.015625)"/>
       <path id="ArialMT-66" d="M 556 0 
L 556 2881 
L 59 2881 
L 59 3319 
L 556 3319 
L 556 3672 
Q 556 4006 616 4169 
Q 697 4388 901 4523 
Q 1106 4659 1475 4659 
Q 1713 4659 2000 4603 
L 1916 4113 
Q 1741 4144 1584 4144 
Q 1328 4144 1222 4034 
Q 1116 3925 1116 3625 
L 1116 3319 
L 1763 3319 
L 1763 2881 
L 1116 2881 
L 1116 0 
L 556 0 
z
" transform="scale(0.015625)"/>
       <path id="ArialMT-6f" d="M 213 1659 
Q 213 2581 725 3025 
Q 1153 3394 1769 3394 
Q 2453 3394 2887 2945 
Q 3322 2497 3322 1706 
Q 3322 1066 3130 698 
Q 2938 331 2570 128 
Q 2203 -75 1769 -75 
Q 1072 -75 642 372 
Q 213 819 213 1659 
z
M 791 1659 
Q 791 1022 1069 705 
Q 1347 388 1769 388 
Q 2188 388 2466 706 
Q 2744 1025 2744 1678 
Q 2744 2294 2464 2611 
Q 2184 2928 1769 2928 
Q 1347 2928 1069 2612 
Q 791 2297 791 1659 
z
" transform="scale(0.015625)"/>
       <path id="ArialMT-72" d="M 416 0 
L 416 3319 
L 922 3319 
L 922 2816 
Q 1116 3169 1280 3281 
Q 1444 3394 1641 3394 
Q 1925 3394 2219 3213 
L 2025 2691 
Q 1819 2813 1613 2813 
Q 1428 2813 1281 2702 
Q 1134 2591 1072 2394 
Q 978 2094 978 1738 
L 978 0 
L 416 0 
z
" transform="scale(0.015625)"/>
       <path id="ArialMT-78" d="M 47 0 
L 1259 1725 
L 138 3319 
L 841 3319 
L 1350 2541 
Q 1494 2319 1581 2169 
Q 1719 2375 1834 2534 
L 2394 3319 
L 3066 3319 
L 1919 1756 
L 3153 0 
L 2463 0 
L 1781 1031 
L 1600 1309 
L 728 0 
L 47 0 
z
" transform="scale(0.015625)"/>
       <path id="ArialMT-28" d="M 1497 -1347 
Q 1031 -759 709 28 
Q 388 816 388 1659 
Q 388 2403 628 3084 
Q 909 3875 1497 4659 
L 1900 4659 
Q 1522 4009 1400 3731 
Q 1209 3300 1100 2831 
Q 966 2247 966 1656 
Q 966 153 1900 -1347 
L 1497 -1347 
z
" transform="scale(0.015625)"/>
       <path id="ArialMT-29" d="M 791 -1347 
L 388 -1347 
Q 1322 153 1322 1656 
Q 1322 2244 1188 2822 
Q 1081 3291 891 3722 
Q 769 4003 388 4659 
L 791 4659 
Q 1378 3875 1659 3084 
Q 1900 2403 1900 1659 
Q 1900 816 1576 28 
Q 1253 -759 791 -1347 
z
" transform="scale(0.015625)"/>
      </defs>
      <use xlink:href="#ArialMT-53"/>
      <use xlink:href="#ArialMT-65" x="66.699219"/>
      <use xlink:href="#ArialMT-6e" x="122.314453"/>
      <use xlink:href="#ArialMT-73" x="177.929688"/>
      <use xlink:href="#ArialMT-69" x="227.929688"/>
      <use xlink:href="#ArialMT-74" x="250.146484"/>
      <use xlink:href="#ArialMT-69" x="277.929688"/>
      <use xlink:href="#ArialMT-76" x="300.146484"/>
      <use xlink:href="#ArialMT-69" x="350.146484"/>
      <use xlink:href="#ArialMT-74" x="372.363281"/>
      <use xlink:href="#ArialMT-79" x="400.146484"/>
      <use xlink:href="#ArialMT-20" x="450.146484"/>
      <use xlink:href="#ArialMT-69" x="477.929688"/>
      <use xlink:href="#ArialMT-6e" x="500.146484"/>
      <use xlink:href="#ArialMT-64" x="555.761719"/>
      <use xlink:href="#ArialMT-69" x="611.376953"/>
      <use xlink:href="#ArialMT-63" x="633.59375"/>
      <use xlink:href="#ArialMT-65" x="683.59375"/>
      <use xlink:href="#ArialMT-73" x="739.208984"/>
      <use xlink:href="#ArialMT-20" x="789.208984"/>
      <use xlink:href="#ArialMT-66" x="816.992188"/>
      <use xlink:href="#ArialMT-6f" x="844.775391"/>
      <use xlink:href="#ArialMT-72" x="900.390625"/>
      <use xlink:href="#ArialMT-20" x="933.691406"/>
      <use xlink:href="#ArialMT-78" x="961.474609"/>
      <use xlink:href="#ArialMT-28" x="1011.474609"/>
      <use xlink:href="#ArialMT-74" x="1044.775391"/>
      <use xlink:href="#ArialMT-29" x="1072.558594"/>
     </g>
    </g>
   </g>
   <g id="line2d_13">
    <path d="M 56.973727 273.470503 
L 59.581394 273.35558 
L 60.885228 273.031489 
L 61.537145 272.716378 
L 62.189061 272.250285 
L 62.840978 271.588882 
L 63.492895 270.682258 
L 64.144811 269.475488 
L 64.796728 267.913066 
L 65.448645 265.942464 
L 66.100562 263.522534 
L 67.404395 257.297803 
L 70.66398 238.690424 
L 71.315896 236.227914 
L 71.967812 234.689546 
L 72.619729 234.127065 
L 73.271645 234.485967 
L 73.923562 235.637956 
L 74.575479 237.420444 
L 75.879313 242.261726 
L 77.183147 248.095796 
L 79.138897 258.107375 
L 81.746564 273.036276 
L 82.398481 272.649272 
L 83.050397 262.855719 
L 83.702315 243.716607 
L 84.35423 231.155022 
L 85.006149 230.246816 
L 85.658064 234.200406 
L 86.961898 243.429627 
L 88.265731 250.814367 
L 89.569565 256.634671 
L 90.873399 261.382495 
L 92.177233 265.32061 
L 93.481066 268.617723 
L 94.7849 271.391108 
L 95.436815 272.548081 
L 96.088734 273.376952 
L 96.740649 273.281193 
L 97.392567 269.752793 
L 98.044483 249.330787 
L 98.696398 171.95177 
L 99.348316 199.633776 
L 100.000232 237.379019 
L 100.65215 252.110128 
L 101.304065 259.17178 
L 101.955984 263.25018 
L 102.607899 265.922463 
L 103.259817 267.828237 
L 103.911733 269.265148 
L 104.563651 270.385556 
L 105.867485 271.975905 
L 107.171318 272.938745 
L 108.475152 273.411965 
L 109.127064 273.47934 
L 109.778983 273.424028 
L 110.430901 273.217826 
L 111.08282 272.798576 
L 111.734732 272.033199 
L 112.38665 270.621125 
L 113.038569 267.806709 
L 113.690487 261.402367 
L 114.342399 244.763662 
L 114.994318 217.820091 
L 116.298154 258.182405 
L 116.950067 266.34656 
L 117.601985 269.797753 
L 118.253903 271.483485 
L 118.905816 272.393854 
L 119.557734 272.913777 
L 120.209652 273.2143 
L 121.513483 273.457027 
L 122.81732 273.441386 
L 124.773069 273.180213 
L 129.988403 272.106061 
L 133.899901 271.214871 
L 135.203738 270.73799 
L 135.855657 270.381249 
L 136.507569 269.862643 
L 137.159487 269.031735 
L 137.811406 267.519089 
L 138.463324 264.254587 
L 139.115236 256.429079 
L 139.767155 255.45229 
L 140.419073 268.694127 
L 141.070985 272.298938 
L 141.722904 273.131583 
L 142.374822 273.349678 
L 144.330571 273.407852 
L 159.976575 273.385305 
L 161.280412 273.675362 
L 161.932318 273.546395 
L 162.584237 271.935449 
L 165.19191 272.566945 
L 169.103408 272.773898 
L 173.014906 273.075966 
L 177.578323 273.479111 
L 178.230241 273.154903 
L 178.882159 270.954844 
L 179.534078 244.385548 
L 180.185996 258.634435 
L 180.837915 268.673149 
L 181.489821 270.91701 
L 182.141739 271.808718 
L 182.793657 272.280336 
L 184.097494 272.780531 
L 186.053249 273.155862 
L 188.660911 273.407695 
L 191.268584 273.472556 
L 193.224327 273.368446 
L 194.528164 273.135013 
L 195.180082 272.889887 
L 195.832 272.431239 
L 196.483906 271.426687 
L 197.135825 268.588962 
L 197.787743 258.042457 
L 198.439662 256.302725 
L 199.09158 268.542148 
L 199.743498 271.663729 
L 200.395417 272.65667 
L 201.047335 273.067556 
L 202.35116 273.369862 
L 204.306915 273.464945 
L 208.870331 273.373185 
L 218.649082 273.018144 
L 219.301001 272.894722 
L 219.952919 272.647961 
L 220.604838 272.05084 
L 221.256744 270.673531 
L 221.908662 271.620846 
L 222.56058 272.97745 
L 223.212499 273.30973 
L 224.516336 273.435946 
L 231.687413 273.468069 
L 241.466164 273.491081 
L 242.118083 273.159241 
L 242.770001 272.35704 
L 243.42192 272.891986 
L 244.073838 273.107404 
L 246.029581 273.274903 
L 255.156414 273.446959 
L 258.416006 273.466393 
L 259.067924 273.401547 
L 259.719842 273.169715 
L 260.371748 272.116918 
L 261.023667 267.029117 
L 261.675585 269.92282 
L 262.327503 272.119991 
L 262.979422 272.759116 
L 263.63134 273.025256 
L 264.935177 273.25086 
L 267.542826 273.406061 
L 272.758173 273.469431 
L 276.669683 273.363721 
L 277.973495 273.226378 
L 278.625414 273.07889 
L 279.277332 272.782213 
L 279.929251 272.059518 
L 280.581169 270.120636 
L 281.233087 269.602401 
L 281.885006 272.041072 
L 282.536924 272.930403 
L 283.188843 273.230258 
L 284.492679 273.410722 
L 287.752247 273.464896 
L 300.79059 273.334207 
L 302.094427 273.114411 
L 302.746345 272.772951 
L 303.398263 272.783589 
L 304.050182 273.201441 
L 305.354019 273.416553 
L 309.265504 273.464097 
L 322.303847 273.429128 
L 322.955766 273.235835 
L 323.607684 272.830499 
L 324.911521 273.243822 
L 326.867251 273.383024 
L 334.690272 273.462522 
L 340.557513 273.416008 
L 341.209431 273.326807 
L 341.86135 273.065673 
L 342.513268 272.280874 
L 343.165186 271.99842 
L 343.817105 272.774554 
L 344.469023 273.126204 
L 345.77286 273.344749 
L 349.032427 273.450892 
L 358.15926 273.438067 
L 360.766934 273.334751 
L 362.07077 273.086734 
L 363.374607 272.431641 
L 364.678444 273.201365 
L 365.982256 273.404812 
L 369.241848 273.464966 
L 381.628273 273.435365 
L 381.628273 273.435365 
" clip-path="url(#pd62b4b2b11)" style="fill: none; stroke: #1f77b4; stroke-width: 1.2; stroke-linecap: round"/>
   </g>
   <g id="line2d_14">
    <path d="M 56.973727 273.470464 
L 66.100562 273.365821 
L 67.404395 273.127244 
L 68.708229 272.602512 
L 70.012063 271.750188 
L 71.967812 270.348209 
L 72.619729 270.034149 
L 73.271645 269.848313 
L 74.575479 269.843481 
L 75.879313 270.166816 
L 78.48698 271.139243 
L 79.790814 271.869377 
L 81.746564 273.475692 
L 82.398481 272.688385 
L 83.050397 268.029627 
L 83.702315 258.741697 
L 84.35423 251.406564 
L 85.006149 249.141728 
L 85.658064 249.48038 
L 86.309982 250.667097 
L 87.613813 253.725593 
L 89.569565 259.033436 
L 91.525314 264.222088 
L 92.829148 267.086717 
L 94.7849 270.666814 
L 96.088734 272.893723 
L 96.740649 273.491091 
L 97.392567 271.317173 
L 98.044483 252.051971 
L 98.696398 161.183255 
L 99.348316 177.556777 
L 100.000232 219.863032 
L 100.65215 237.757756 
L 101.304065 246.861161 
L 101.955984 252.490941 
L 102.607899 256.508379 
L 103.911733 262.316651 
L 105.215566 266.565106 
L 106.5194 269.676539 
L 107.171318 270.843047 
L 107.823234 271.774041 
L 108.475152 272.49164 
L 109.127064 273.014393 
L 109.778983 273.348702 
L 110.430901 273.475384 
L 111.08282 273.324889 
L 111.734732 272.719667 
L 112.38665 271.218995 
L 113.038569 267.634887 
L 113.690487 258.280065 
L 114.342399 230.756906 
L 114.994318 177.307671 
L 115.646236 201.304024 
L 116.298154 238.652097 
L 116.950067 254.884517 
L 117.601985 262.448548 
L 118.253903 266.543748 
L 118.905816 269.026864 
L 119.557734 270.648668 
L 120.209652 271.751269 
L 120.861571 272.506264 
L 121.513483 273.007204 
L 122.165401 273.309885 
L 122.81732 273.451626 
L 124.12115 273.362027 
L 125.424987 272.928413 
L 128.032655 271.64961 
L 129.988403 270.758993 
L 131.944152 270.132611 
L 133.899901 269.821503 
L 135.203738 269.793816 
L 136.507569 269.928518 
L 137.159487 270.08358 
L 137.811406 270.353044 
L 138.463324 270.899845 
L 139.115236 272.266284 
L 139.767155 273.230523 
L 140.419073 271.468862 
L 141.070985 270.937138 
L 141.722904 270.903079 
L 143.02674 271.178431 
L 150.197824 273.238988 
L 152.153573 273.454695 
L 154.109322 273.429746 
L 156.065071 273.199287 
L 158.020826 272.771602 
L 159.324657 272.301094 
L 159.976575 271.937533 
L 160.628494 271.372021 
L 161.280412 270.323106 
L 161.932318 268.735622 
L 162.584237 272.553081 
L 163.236155 273.482855 
L 165.843829 272.319971 
L 167.799571 271.827315 
L 169.755327 271.651627 
L 171.711069 271.78849 
L 174.318743 272.289962 
L 176.274498 272.853501 
L 178.230241 273.46722 
L 178.882159 271.832668 
L 179.534078 238.519759 
L 180.185996 249.014603 
L 180.837915 263.715114 
L 181.489821 267.386657 
L 182.141739 268.967275 
L 182.793657 269.872396 
L 184.097494 270.969558 
L 186.053249 272.043279 
L 188.008992 272.826556 
L 189.964747 273.311527 
L 191.92049 273.471524 
L 193.224327 273.376825 
L 194.528164 272.995592 
L 195.180082 272.561181 
L 195.832 271.721004 
L 196.483906 269.833851 
L 197.135825 264.386582 
L 197.787743 243.668391 
L 198.439662 239.254583 
L 199.09158 263.396943 
L 199.743498 269.710165 
L 200.395417 271.763077 
L 201.047335 272.63163 
L 201.699241 273.059407 
L 203.003078 273.40424 
L 204.306915 273.467904 
L 206.262658 273.337441 
L 213.433748 272.578845 
L 216.041409 272.611432 
L 218.649082 272.814055 
L 219.952919 273.023836 
L 221.256744 273.338678 
L 221.908662 272.769559 
L 222.56058 272.674104 
L 226.472078 273.137956 
L 231.035495 273.433901 
L 234.947005 273.447525 
L 238.858503 273.243835 
L 240.814246 272.978342 
L 241.466164 272.767377 
L 242.118083 272.402408 
L 242.770001 273.26662 
L 243.42192 273.485386 
L 246.029581 273.130819 
L 249.289173 272.950858 
L 252.548752 273.006024 
L 257.112169 273.341038 
L 259.067924 273.480734 
L 259.719842 273.334347 
L 260.371748 272.10312 
L 261.023667 263.869045 
L 261.675585 266.666888 
L 262.327503 270.348522 
L 262.979422 271.559935 
L 263.63134 272.113407 
L 264.935177 272.645619 
L 266.890932 273.041609 
L 269.498581 273.347648 
L 272.106255 273.468383 
L 274.713928 273.405645 
L 276.669683 273.2153 
L 277.973495 272.913931 
L 278.625414 272.609257 
L 279.277332 272.02262 
L 279.929251 270.659834 
L 280.581169 267.2343 
L 281.233087 266.863141 
L 281.885006 271.28976 
L 282.536924 272.764798 
L 283.188843 273.219682 
L 284.492679 273.446245 
L 287.100328 273.433365 
L 295.575267 273.241206 
L 319.696174 273.410101 
L 322.955766 273.473587 
L 323.607684 273.520204 
L 324.911521 273.349467 
L 329.474925 273.286321 
L 335.994109 273.405019 
L 340.557513 273.453459 
L 341.209431 273.357614 
L 341.86135 272.997884 
L 342.513268 271.690662 
L 343.165186 270.832231 
L 343.817105 272.031281 
L 344.469023 272.667912 
L 345.120942 272.958181 
L 346.424754 273.210423 
L 349.032427 273.392846 
L 353.595856 273.468485 
L 358.811178 273.339722 
L 360.766934 273.168053 
L 362.07077 272.793507 
L 362.722689 272.354192 
L 363.374607 272.151679 
L 364.026526 272.846568 
L 364.678444 273.269539 
L 365.982256 273.452778 
L 370.545685 273.439147 
L 381.628273 273.436636 
L 381.628273 273.436636 
" clip-path="url(#pd62b4b2b11)" style="fill: none; stroke: #ff7f0e; stroke-width: 1.2; stroke-linecap: round"/>
   </g>
   <g id="line2d_15">
    <path d="M 56.973727 32.2905 
L 58.277561 32.372388 
L 58.929478 32.540849 
L 59.581394 32.887995 
L 60.233311 33.519848 
L 60.885228 34.569708 
L 61.537145 36.206396 
L 62.189061 38.631093 
L 62.840978 42.083266 
L 63.492895 46.835864 
L 64.144811 53.192227 
L 64.796728 61.472948 
L 65.448645 71.995082 
L 66.100562 85.034253 
L 66.752479 100.769415 
L 68.056312 140.080762 
L 70.66398 230.404944 
L 71.315896 248.062475 
L 71.967812 261.313375 
L 72.619729 269.685147 
L 73.271645 273.263614 
L 73.923562 272.562365 
L 74.575479 268.319663 
L 75.227396 261.304994 
L 75.879313 252.17996 
L 77.183147 229.290146 
L 78.48698 200.827528 
L 79.790814 164.135268 
L 80.442731 140.598094 
L 81.094648 112.024987 
L 82.398481 48.227995 
L 83.050397 52.631177 
L 83.702315 127.009144 
L 84.35423 216.722351 
L 85.006149 261.688148 
L 85.658064 273.238831 
L 86.309982 271.032013 
L 87.613813 256.691709 
L 88.917647 242.967989 
L 89.569565 237.534542 
L 90.22148 233.127677 
L 90.873399 229.691562 
L 91.525314 227.122498 
L 92.177233 225.287062 
L 92.829148 224.039215 
L 93.481066 223.235546 
L 94.132982 222.74674 
L 94.7849 222.465406 
L 96.088734 222.254142 
L 96.740649 222.400497 
L 97.392567 223.53186 
L 98.044483 230.904482 
L 98.696398 266.21448 
L 99.348316 263.041285 
L 100.000232 248.376163 
L 100.65215 242.875897 
L 101.304065 240.95922 
L 101.955984 240.666748 
L 102.607899 241.313672 
L 103.259817 242.613925 
L 103.911733 244.415793 
L 105.215566 249.08816 
L 109.127064 264.597125 
L 110.430901 268.709884 
L 111.734732 272.068774 
L 112.38665 273.213658 
L 113.038569 273.283067 
L 113.690487 269.82138 
L 114.342399 252.697283 
L 114.994318 204.904741 
L 115.646236 207.892364 
L 116.298154 236.067118 
L 116.950067 250.913704 
L 117.601985 258.797123 
L 118.253903 263.558902 
L 118.905816 266.737161 
L 119.557734 268.995689 
L 120.209652 270.647713 
L 120.861571 271.851204 
L 121.513483 272.690163 
L 122.165401 273.2128 
L 122.81732 273.451613 
L 123.469238 273.434403 
L 124.12115 273.190223 
L 124.773069 272.751883 
L 126.076906 271.443097 
L 129.988403 266.848129 
L 131.292234 265.93574 
L 131.944152 265.696451 
L 132.596071 265.625042 
L 133.247989 265.73976 
L 133.899901 266.061682 
L 134.55182 266.616701 
L 135.203738 267.438092 
L 135.855657 268.566927 
L 136.507569 270.04318 
L 137.811406 273.585036 
L 138.463324 272.492354 
L 139.115236 249.286183 
L 139.767155 174.961009 
L 140.419073 197.100983 
L 141.070985 223.758607 
L 141.722904 237.095644 
L 142.374822 244.725097 
L 143.02674 249.764111 
L 143.678653 253.471293 
L 144.982489 258.902437 
L 146.28632 263.020272 
L 147.590157 266.414109 
L 148.893987 269.226411 
L 150.197824 271.412497 
L 150.849736 272.234674 
L 151.501655 272.855686 
L 152.153573 273.263105 
L 152.805492 273.448559 
L 153.457404 273.407834 
L 154.109322 273.139617 
L 154.761241 272.64264 
L 155.413159 271.911194 
L 156.065071 270.928516 
L 156.71699 269.656521 
L 157.368908 268.018882 
L 158.020826 265.86846 
L 158.672739 262.916938 
L 159.324657 258.56089 
L 159.976575 251.381551 
L 160.628494 237.38661 
L 161.280412 202.164793 
L 161.932318 98.620255 
L 162.584237 165.029382 
L 163.236155 253.309375 
L 163.888073 269.617148 
L 164.539992 273.024588 
L 165.19191 273.418648 
L 165.843829 272.905314 
L 167.147653 271.156043 
L 169.103408 268.456071 
L 170.407245 267.023724 
L 171.711069 266.031378 
L 173.014906 265.490544 
L 174.318743 265.328166 
L 175.62258 265.447262 
L 176.926404 265.800546 
L 177.578323 266.095534 
L 178.230241 266.566742 
L 178.882159 267.595633 
L 179.534078 270.935705 
L 180.185996 265.538727 
L 180.837915 265.678381 
L 185.401331 268.689556 
L 189.964747 272.292453 
L 191.268584 272.964622 
L 192.572409 273.369277 
L 193.876245 273.451417 
L 194.528164 273.311771 
L 195.180082 272.952316 
L 195.832 272.152989 
L 196.483906 270.250216 
L 197.135825 264.630588 
L 197.787743 243.054139 
L 198.439662 238.21841 
L 199.09158 263.377695 
L 199.743498 269.965297 
L 200.395417 272.081302 
L 201.047335 272.939121 
L 201.699241 273.317138 
L 202.35116 273.465845 
L 203.654996 273.415358 
L 204.958833 273.104606 
L 206.914576 272.378429 
L 209.52225 271.365941 
L 210.826086 271.02988 
L 212.129911 270.884821 
L 213.433748 270.950231 
L 214.737584 271.223385 
L 216.041409 271.696482 
L 217.345246 272.371844 
L 219.301001 273.657723 
L 219.952919 273.687821 
L 220.604838 271.3478 
L 221.908662 242.45148 
L 222.56058 255.502142 
L 223.212499 262.238899 
L 223.864417 265.525071 
L 224.516336 267.436002 
L 225.168254 268.70996 
L 225.82016 269.64582 
L 227.123997 270.988688 
L 228.427834 271.948428 
L 229.73167 272.662006 
L 231.035495 273.156466 
L 232.339332 273.422289 
L 233.643168 273.448346 
L 234.947005 273.23442 
L 236.25083 272.777245 
L 237.554666 272.022726 
L 238.206585 271.475644 
L 238.858503 270.735064 
L 239.510422 269.658349 
L 240.16234 267.914023 
L 240.814246 264.581029 
L 241.466164 256.307013 
L 242.118083 228.138574 
L 242.770001 233.40518 
L 243.42192 266.714116 
L 244.073838 272.202422 
L 244.725756 273.27672 
L 245.377662 273.412988 
L 246.681499 273.062234 
L 249.941091 271.892925 
L 251.896834 271.467173 
L 253.852589 271.348822 
L 255.808332 271.489534 
L 257.764087 271.822108 
L 259.067924 272.173985 
L 260.371748 272.565812 
L 261.023667 270.215506 
L 261.675585 269.318365 
L 262.327503 270.580527 
L 262.979422 271.166538 
L 264.283259 271.755323 
L 266.890932 272.475748 
L 270.150499 273.187511 
L 272.106255 273.4243 
L 274.06201 273.46419 
L 276.017765 273.310629 
L 277.321577 273.071465 
L 278.625414 272.584524 
L 279.277332 272.090165 
L 279.929251 271.116541 
L 280.581169 269.24995 
L 281.233087 270.400947 
L 281.885006 273.048988 
L 282.536924 273.56821 
L 283.840761 273.51826 
L 289.708002 272.755261 
L 292.315675 272.663256 
L 294.923349 272.822044 
L 298.182916 273.272835 
L 300.138671 273.567365 
L 300.79059 273.58676 
L 301.442508 273.382797 
L 302.094427 272.314984 
L 303.398263 263.448918 
L 304.050182 267.222803 
L 304.7021 269.829377 
L 305.354019 271.10926 
L 306.005937 271.823595 
L 306.657831 272.275897 
L 307.961667 272.82213 
L 309.917423 273.251807 
L 311.873178 273.443098 
L 314.480851 273.426369 
L 317.0885 273.155667 
L 319.044255 272.766937 
L 320.348092 272.285117 
L 321.000011 271.857381 
L 321.651929 271.110947 
L 322.303847 269.553033 
L 322.955766 265.854926 
L 323.607684 264.731296 
L 324.259603 271.095236 
L 324.911521 272.936062 
L 325.563439 273.328534 
L 326.867251 273.358145 
L 332.734517 272.913975 
L 335.994109 272.97667 
L 341.209431 273.222855 
L 341.86135 273.065806 
L 343.165186 271.692728 
L 343.817105 272.367176 
L 344.469023 272.771157 
L 345.77286 273.089018 
L 348.380509 273.320067 
L 352.943938 273.471439 
L 357.507342 273.376044 
L 361.418852 273.280299 
L 362.07077 273.363022 
L 362.722689 273.665881 
L 363.374607 274.2105 
L 364.026526 274.076197 
L 364.678444 273.725911 
L 365.982256 273.411632 
L 368.58993 273.239368 
L 373.153358 273.228942 
L 381.628273 273.504369 
L 381.628273 273.504369 
" clip-path="url(#pd62b4b2b11)" style="fill: none; stroke: #2ca02c; stroke-width: 1.2; stroke-linecap: round"/>
   </g>
   <g id="line2d_16">
    <path d="M 56.973727 273.468177 
L 61.537145 273.303081 
L 68.708229 272.93638 
L 71.315896 273.187866 
L 73.923562 273.448136 
L 75.879313 273.445198 
L 77.835063 273.251155 
L 79.790814 272.810097 
L 81.094648 272.23818 
L 83.050397 271.026113 
L 83.702315 271.550581 
L 84.35423 272.520344 
L 85.006149 273.154124 
L 85.658064 273.411299 
L 86.961898 273.438227 
L 89.569565 273.059478 
L 97.392567 271.717488 
L 98.044483 271.472676 
L 99.348316 273.447231 
L 100.65215 272.854348 
L 101.955984 272.562632 
L 103.911733 272.353714 
L 106.5194 272.310773 
L 109.127064 272.490198 
L 111.734732 272.864631 
L 114.342399 273.350835 
L 115.646236 270.299221 
L 116.950067 271.268624 
L 118.253903 271.812724 
L 120.209652 272.238691 
L 125.424987 273.016506 
L 129.336485 273.398266 
L 131.944152 273.463961 
L 133.899901 273.362125 
L 135.203738 273.1534 
L 135.855657 272.960399 
L 136.507569 272.649238 
L 137.159487 272.104078 
L 137.811406 271.016701 
L 138.463324 268.388016 
L 139.115236 260.815403 
L 139.767155 255.180619 
L 140.419073 266.688421 
L 141.070985 271.081932 
L 141.722904 272.476934 
L 142.374822 273.022981 
L 143.02674 273.268592 
L 144.330571 273.440853 
L 146.938238 273.438779 
L 154.761241 273.302367 
L 161.280412 273.467553 
L 162.584237 272.648691 
L 163.236155 273.014246 
L 164.539992 273.268013 
L 167.799571 273.424796 
L 173.014906 273.456757 
L 176.926404 273.319325 
L 178.230241 273.101198 
L 178.882159 272.657319 
L 179.534078 270.102581 
L 180.185996 272.898614 
L 180.837915 273.436436 
L 182.793657 273.448957 
L 191.92049 273.287585 
L 196.483906 273.397883 
L 197.787743 273.38446 
L 198.439662 272.83641 
L 200.395417 273.1321 
L 204.958833 273.302224 
L 214.085666 273.46884 
L 218.649082 273.37271 
L 219.952919 273.184567 
L 220.604838 272.865726 
L 221.256744 272.045163 
L 221.908662 272.378581 
L 222.56058 273.149737 
L 223.212499 273.364455 
L 225.168254 273.464648 
L 241.466164 273.463316 
L 242.770001 273.090732 
L 243.42192 273.304539 
L 245.377662 273.431167 
L 253.200671 273.463702 
L 259.719842 273.318665 
L 261.023667 272.956287 
L 261.675585 273.407096 
L 262.979422 273.480713 
L 274.713928 273.418394 
L 280.581169 273.43159 
L 281.233087 273.296003 
L 291.663757 273.463426 
L 302.094427 273.394532 
L 303.398263 273.338029 
L 304.7021 273.454273 
L 313.177015 273.464634 
L 322.955766 273.414282 
L 323.607684 273.34826 
L 325.563439 273.457092 
L 335.994109 273.458143 
L 367.286093 273.456828 
L 381.628273 273.467916 
L 381.628273 273.467916 
" clip-path="url(#pd62b4b2b11)" style="fill: none; stroke: #d62728; stroke-width: 1.2; stroke-linecap: round"/>
   </g>
   <g id="line2d_17">
    <path d="M 56.973727 273.469409 
L 58.277561 273.413953 
L 58.929478 273.291639 
L 59.581394 273.028233 
L 60.233311 272.539325 
L 60.885228 271.71495 
L 61.537145 270.420363 
L 62.189061 268.490023 
L 62.840978 265.729897 
L 63.492895 261.91661 
L 64.144811 256.802184 
L 64.796728 250.123976 
L 65.448645 241.62194 
L 66.100562 231.069016 
L 66.752479 218.316348 
L 68.056312 186.388104 
L 70.66398 112.37472 
L 71.315896 97.589961 
L 71.967812 86.23009 
L 72.619729 78.681699 
L 73.271645 74.894845 
L 73.923562 74.487276 
L 74.575479 76.901852 
L 75.227396 81.55682 
L 75.879313 87.953495 
L 77.183147 104.715415 
L 78.48698 126.416639 
L 79.138897 139.724157 
L 79.790814 155.499789 
L 80.442731 174.8192 
L 81.094648 199.128225 
L 82.398481 261.429332 
L 83.050397 271.672698 
L 83.702315 225.025143 
L 84.35423 154.111676 
L 85.006149 111.659468 
L 85.658064 95.581517 
L 86.309982 91.792938 
L 86.961898 92.636253 
L 88.265731 97.085712 
L 88.917647 98.787581 
L 89.569565 99.758328 
L 90.22148 99.976733 
L 90.873399 99.515627 
L 91.525314 98.49521 
L 92.177233 97.050921 
L 93.481066 93.378158 
L 96.088734 85.530739 
L 96.740649 85.101304 
L 97.392567 90.024894 
L 98.044483 122.943088 
L 98.696398 255.547377 
L 99.348316 212.798286 
L 100.000232 147.408965 
L 100.65215 120.472631 
L 101.304065 106.376327 
L 101.955984 97.076827 
L 103.259817 83.531797 
L 105.215566 66.837 
L 106.5194 57.091044 
L 107.823234 48.913257 
L 109.127064 42.550496 
L 109.778983 40.073268 
L 110.430901 38.114753 
L 111.08282 36.813278 
L 111.734732 36.52936 
L 112.38665 38.193477 
L 113.038569 44.410692 
L 113.690487 63.565624 
L 114.342399 125.183739 
L 114.994318 255.317444 
L 115.646236 209.901988 
L 116.298154 122.56351 
L 116.950067 82.744478 
L 117.601985 63.498357 
L 118.253903 52.726377 
L 118.905816 45.987531 
L 119.557734 41.454804 
L 120.209652 38.286837 
L 120.861571 36.061094 
L 121.513483 34.549423 
L 122.165401 33.618082 
L 122.81732 33.178914 
L 123.469238 33.163531 
L 124.12115 33.510245 
L 124.773069 34.157841 
L 126.076906 36.105876 
L 129.988403 43.103122 
L 131.292234 44.726166 
L 131.944152 45.297266 
L 132.596071 45.692356 
L 133.247989 45.903717 
L 133.899901 45.92669 
L 134.55182 45.761391 
L 135.203738 45.417711 
L 136.507569 44.411052 
L 137.159487 44.202034 
L 137.811406 45.532031 
L 138.463324 53.720341 
L 139.115236 95.875886 
L 139.767155 179.145821 
L 140.419073 126.454535 
L 141.070985 89.554716 
L 141.722904 73.168823 
L 142.374822 64.339947 
L 143.02674 58.69353 
L 143.678653 54.603048 
L 144.982489 48.636844 
L 146.28632 44.081604 
L 147.590157 40.293715 
L 148.893987 37.14172 
L 150.197824 34.698003 
L 150.849736 33.785926 
L 151.501655 33.103697 
L 152.153573 32.664443 
L 152.805492 32.475868 
L 153.457404 32.540418 
L 154.109322 32.856913 
L 154.761241 33.423843 
L 155.413159 34.244272 
L 156.065071 35.333048 
L 156.71699 36.727538 
L 157.368908 38.505199 
L 158.020826 40.817157 
L 158.672739 43.961159 
L 159.324657 48.560822 
L 159.976575 56.083033 
L 160.628494 70.655899 
L 161.280412 107.182838 
L 161.932318 214.393048 
L 162.584237 145.914374 
L 163.236155 54.724183 
L 163.888073 37.969149 
L 164.539992 34.561327 
L 165.19191 34.268884 
L 165.843829 34.907912 
L 169.755327 40.484029 
L 171.059163 41.549789 
L 171.711069 41.862416 
L 172.362988 42.035666 
L 173.666825 42.01909 
L 174.970661 41.623223 
L 176.274498 40.954681 
L 177.578323 40.229812 
L 178.230241 40.433424 
L 178.882159 44.83166 
L 179.534078 112.55277 
L 180.837915 55.198544 
L 181.489821 48.425526 
L 182.141739 45.457303 
L 182.793657 43.669377 
L 184.097494 41.25079 
L 186.053249 38.358791 
L 188.008992 35.775882 
L 189.312829 34.371416 
L 190.616666 33.346398 
L 191.92049 32.756437 
L 192.572409 32.643108 
L 193.224327 32.675944 
L 193.876245 32.900703 
L 194.528164 33.414714 
L 195.180082 34.436239 
L 195.832 36.512281 
L 196.483906 41.28433 
L 197.135825 55.205905 
L 197.787743 108.480115 
L 198.439662 120.359245 
L 199.09158 58.241121 
L 199.743498 41.94255 
L 200.395417 36.652838 
L 201.047335 34.441817 
L 201.699241 33.387773 
L 202.35116 32.871419 
L 203.003078 32.648844 
L 203.654996 32.60918 
L 204.958833 32.874639 
L 206.262658 33.426647 
L 210.174168 35.436932 
L 211.477992 35.840245 
L 212.781829 35.997695 
L 214.085666 35.906879 
L 215.389503 35.594453 
L 217.345246 34.811303 
L 218.649082 34.271745 
L 219.301001 34.255931 
L 219.952919 35.106664 
L 220.604838 39.787266 
L 221.256744 61.726432 
L 221.908662 72.596502 
L 222.56058 53.582702 
L 223.212499 45.095106 
L 223.864417 41.200847 
L 224.516336 39.015357 
L 225.168254 37.588565 
L 225.82016 36.552089 
L 227.123997 35.071902 
L 228.427834 34.010369 
L 229.73167 33.215976 
L 231.035495 32.66243 
L 232.339332 32.362799 
L 233.643168 32.329618 
L 234.947005 32.561321 
L 236.25083 33.057693 
L 237.554666 33.871422 
L 238.206585 34.457113 
L 238.858503 35.245712 
L 239.510422 36.386617 
L 240.16234 38.228915 
L 240.814246 41.74604 
L 241.466164 50.500418 
L 242.118083 80.568333 
L 242.770001 75.905228 
L 243.42192 40.242665 
L 244.073838 34.249605 
L 244.725756 33.045113 
L 245.377662 32.876062 
L 246.681499 33.242515 
L 249.941091 34.463841 
L 251.244916 34.748449 
L 252.548752 34.863273 
L 254.504508 34.745847 
L 256.46025 34.384829 
L 258.416006 33.951052 
L 259.067924 33.928237 
L 259.719842 34.369044 
L 260.371748 37.483776 
L 261.023667 56.355091 
L 262.327503 40.049475 
L 262.979422 37.333155 
L 263.63134 36.087144 
L 264.283259 35.354483 
L 265.587095 34.448243 
L 267.542826 33.544719 
L 269.498581 32.874625 
L 271.454336 32.46546 
L 273.410091 32.367341 
L 275.365847 32.582886 
L 276.669683 32.94977 
L 277.321577 33.252938 
L 277.973495 33.708394 
L 278.625414 34.458306 
L 279.277332 35.875323 
L 279.929251 39.10797 
L 280.581169 47.077141 
L 281.233087 47.652525 
L 281.885006 37.346208 
L 282.536924 34.009003 
L 283.188843 33.026625 
L 283.840761 32.706163 
L 285.144598 32.621587 
L 287.752247 32.920571 
L 291.011839 33.292429 
L 293.619512 33.326674 
L 296.227186 33.101296 
L 300.138671 32.724665 
L 300.79059 32.851579 
L 301.442508 33.340389 
L 302.094427 35.043883 
L 302.746345 40.738748 
L 303.398263 45.001876 
L 304.050182 39.514331 
L 304.7021 36.301251 
L 305.354019 34.823997 
L 306.005937 34.032508 
L 306.657831 33.544576 
L 307.961667 32.967352 
L 309.917423 32.518149 
L 311.873178 32.319051 
L 313.828933 32.307996 
L 316.436607 32.537802 
L 318.392337 32.882417 
L 319.696174 33.260744 
L 320.348092 33.555243 
L 321.000011 34.005998 
L 321.651929 34.798723 
L 322.303847 36.480092 
L 322.955766 40.603323 
L 323.607684 42.352577 
L 324.259603 35.410666 
L 324.911521 33.249415 
L 325.563439 32.738394 
L 326.215358 32.625713 
L 328.171088 32.739142 
L 331.43068 32.974569 
L 334.038354 32.957145 
L 340.557513 32.619689 
L 341.209431 32.8435 
L 341.86135 33.696979 
L 342.513268 36.735603 
L 343.165186 38.551692 
L 343.817105 35.688359 
L 344.469023 34.207598 
L 345.120942 33.53641 
L 345.77286 33.174975 
L 347.076672 32.793082 
L 349.032427 32.506835 
L 351.640101 32.326901 
L 354.899693 32.342542 
L 358.811178 32.631578 
L 360.766934 32.996104 
L 361.418852 33.260543 
L 362.07077 33.744105 
L 362.722689 34.639807 
L 363.374607 35.157657 
L 364.026526 33.864233 
L 364.678444 33.015613 
L 365.330362 32.722293 
L 366.634174 32.586394 
L 380.976354 32.432768 
L 381.628273 32.485961 
L 381.628273 32.485961 
" clip-path="url(#pd62b4b2b11)" style="fill: none; stroke: #9467bd; stroke-width: 1.2; stroke-linecap: round"/>
   </g>
   <g id="patch_3">
    <path d="M 40.741 273.47046 
L 40.741 32.275721 
" style="fill: none; stroke: #262626; stroke-linejoin: miter; stroke-linecap: square"/>
   </g>
   <g id="patch_4">
    <path d="M 56.321811 286.3065 
L 381.628273 286.3065 
" style="fill: none; stroke: #262626; stroke-linejoin: miter; stroke-linecap: square"/>
   </g>
   <g id="text_15">
    <!-- First Order Indices for x(t) -->
    <g style="fill: #262626" transform="translate(164.62975 14.1945) scale(0.096 -0.096)">
     <defs>
      <path id="ArialMT-46" d="M 525 0 
L 525 4581 
L 3616 4581 
L 3616 4041 
L 1131 4041 
L 1131 2622 
L 3281 2622 
L 3281 2081 
L 1131 2081 
L 1131 0 
L 525 0 
z
" transform="scale(0.015625)"/>
      <path id="ArialMT-4f" d="M 309 2231 
Q 309 3372 921 4017 
Q 1534 4663 2503 4663 
Q 3138 4663 3647 4359 
Q 4156 4056 4423 3514 
Q 4691 2972 4691 2284 
Q 4691 1588 4409 1038 
Q 4128 488 3612 205 
Q 3097 -78 2500 -78 
Q 1853 -78 1343 234 
Q 834 547 571 1087 
Q 309 1628 309 2231 
z
M 934 2222 
Q 934 1394 1379 917 
Q 1825 441 2497 441 
Q 3181 441 3623 922 
Q 4066 1403 4066 2288 
Q 4066 2847 3877 3264 
Q 3688 3681 3323 3911 
Q 2959 4141 2506 4141 
Q 1863 4141 1398 3698 
Q 934 3256 934 2222 
z
" transform="scale(0.015625)"/>
      <path id="ArialMT-49" d="M 597 0 
L 597 4581 
L 1203 4581 
L 1203 0 
L 597 0 
z
" transform="scale(0.015625)"/>
     </defs>
     <use xlink:href="#ArialMT-46"/>
     <use xlink:href="#ArialMT-69" x="61.083984"/>
     <use xlink:href="#ArialMT-72" x="83.300781"/>
     <use xlink:href="#ArialMT-73" x="116.601562"/>
     <use xlink:href="#ArialMT-74" x="166.601562"/>
     <use xlink:href="#ArialMT-20" x="194.384766"/>
     <use xlink:href="#ArialMT-4f" x="222.167969"/>
     <use xlink:href="#ArialMT-72" x="299.951172"/>
     <use xlink:href="#ArialMT-64" x="333.251953"/>
     <use xlink:href="#ArialMT-65" x="388.867188"/>
     <use xlink:href="#ArialMT-72" x="444.482422"/>
     <use xlink:href="#ArialMT-20" x="477.783203"/>
     <use xlink:href="#ArialMT-49" x="505.566406"/>
     <use xlink:href="#ArialMT-6e" x="533.349609"/>
     <use xlink:href="#ArialMT-64" x="588.964844"/>
     <use xlink:href="#ArialMT-69" x="644.580078"/>
     <use xlink:href="#ArialMT-63" x="666.796875"/>
     <use xlink:href="#ArialMT-65" x="716.796875"/>
     <use xlink:href="#ArialMT-73" x="772.412109"/>
     <use xlink:href="#ArialMT-20" x="822.412109"/>
     <use xlink:href="#ArialMT-66" x="850.195312"/>
     <use xlink:href="#ArialMT-6f" x="877.978516"/>
     <use xlink:href="#ArialMT-72" x="933.59375"/>
     <use xlink:href="#ArialMT-20" x="966.894531"/>
     <use xlink:href="#ArialMT-78" x="994.677734"/>
     <use xlink:href="#ArialMT-28" x="1044.677734"/>
     <use xlink:href="#ArialMT-74" x="1077.978516"/>
     <use xlink:href="#ArialMT-29" x="1105.761719"/>
    </g>
   </g>
   <g id="legend_1">
    <g id="line2d_18">
     <path d="M 335.959875 127.446562 
L 344.759875 127.446562 
L 353.559875 127.446562 
" style="fill: none; stroke: #1f77b4; stroke-width: 1.2; stroke-linecap: round"/>
    </g>
    <g id="text_16">
     <!-- alpha -->
     <g style="fill: #262626" transform="translate(360.599875 130.526562) scale(0.088 -0.088)">
      <defs>
       <path id="ArialMT-61" d="M 2588 409 
Q 2275 144 1986 34 
Q 1697 -75 1366 -75 
Q 819 -75 525 192 
Q 231 459 231 875 
Q 231 1119 342 1320 
Q 453 1522 633 1644 
Q 813 1766 1038 1828 
Q 1203 1872 1538 1913 
Q 2219 1994 2541 2106 
Q 2544 2222 2544 2253 
Q 2544 2597 2384 2738 
Q 2169 2928 1744 2928 
Q 1347 2928 1158 2789 
Q 969 2650 878 2297 
L 328 2372 
Q 403 2725 575 2942 
Q 747 3159 1072 3276 
Q 1397 3394 1825 3394 
Q 2250 3394 2515 3294 
Q 2781 3194 2906 3042 
Q 3031 2891 3081 2659 
Q 3109 2516 3109 2141 
L 3109 1391 
Q 3109 606 3145 398 
Q 3181 191 3288 0 
L 2700 0 
Q 2613 175 2588 409 
z
M 2541 1666 
Q 2234 1541 1622 1453 
Q 1275 1403 1131 1340 
Q 988 1278 909 1158 
Q 831 1038 831 891 
Q 831 666 1001 516 
Q 1172 366 1500 366 
Q 1825 366 2078 508 
Q 2331 650 2450 897 
Q 2541 1088 2541 1459 
L 2541 1666 
z
" transform="scale(0.015625)"/>
       <path id="ArialMT-6c" d="M 409 0 
L 409 4581 
L 972 4581 
L 972 0 
L 409 0 
z
" transform="scale(0.015625)"/>
       <path id="ArialMT-70" d="M 422 -1272 
L 422 3319 
L 934 3319 
L 934 2888 
Q 1116 3141 1344 3267 
Q 1572 3394 1897 3394 
Q 2322 3394 2647 3175 
Q 2972 2956 3137 2557 
Q 3303 2159 3303 1684 
Q 3303 1175 3120 767 
Q 2938 359 2589 142 
Q 2241 -75 1856 -75 
Q 1575 -75 1351 44 
Q 1128 163 984 344 
L 984 -1272 
L 422 -1272 
z
M 931 1641 
Q 931 1000 1190 694 
Q 1450 388 1819 388 
Q 2194 388 2461 705 
Q 2728 1022 2728 1688 
Q 2728 2322 2467 2637 
Q 2206 2953 1844 2953 
Q 1484 2953 1207 2617 
Q 931 2281 931 1641 
z
" transform="scale(0.015625)"/>
       <path id="ArialMT-68" d="M 422 0 
L 422 4581 
L 984 4581 
L 984 2938 
Q 1378 3394 1978 3394 
Q 2347 3394 2619 3248 
Q 2891 3103 3008 2847 
Q 3125 2591 3125 2103 
L 3125 0 
L 2563 0 
L 2563 2103 
Q 2563 2525 2380 2717 
Q 2197 2909 1863 2909 
Q 1613 2909 1392 2779 
Q 1172 2650 1078 2428 
Q 984 2206 984 1816 
L 984 0 
L 422 0 
z
" transform="scale(0.015625)"/>
      </defs>
      <use xlink:href="#ArialMT-61"/>
      <use xlink:href="#ArialMT-6c" x="55.615234"/>
      <use xlink:href="#ArialMT-70" x="77.832031"/>
      <use xlink:href="#ArialMT-68" x="133.447266"/>
      <use xlink:href="#ArialMT-61" x="189.0625"/>
     </g>
    </g>
    <g id="line2d_19">
     <path d="M 335.959875 139.894437 
L 344.759875 139.894437 
L 353.559875 139.894437 
" style="fill: none; stroke: #ff7f0e; stroke-width: 1.2; stroke-linecap: round"/>
    </g>
    <g id="text_17">
     <!-- beta -->
     <g style="fill: #262626" transform="translate(360.599875 142.974437) scale(0.088 -0.088)">
      <defs>
       <path id="ArialMT-62" d="M 941 0 
L 419 0 
L 419 4581 
L 981 4581 
L 981 2947 
Q 1338 3394 1891 3394 
Q 2197 3394 2470 3270 
Q 2744 3147 2920 2923 
Q 3097 2700 3197 2384 
Q 3297 2069 3297 1709 
Q 3297 856 2875 390 
Q 2453 -75 1863 -75 
Q 1275 -75 941 416 
L 941 0 
z
M 934 1684 
Q 934 1088 1097 822 
Q 1363 388 1816 388 
Q 2184 388 2453 708 
Q 2722 1028 2722 1663 
Q 2722 2313 2464 2622 
Q 2206 2931 1841 2931 
Q 1472 2931 1203 2611 
Q 934 2291 934 1684 
z
" transform="scale(0.015625)"/>
      </defs>
      <use xlink:href="#ArialMT-62"/>
      <use xlink:href="#ArialMT-65" x="55.615234"/>
      <use xlink:href="#ArialMT-74" x="111.230469"/>
      <use xlink:href="#ArialMT-61" x="139.013672"/>
     </g>
    </g>
    <g id="line2d_20">
     <path d="M 335.959875 152.342312 
L 344.759875 152.342312 
L 353.559875 152.342312 
" style="fill: none; stroke: #2ca02c; stroke-width: 1.2; stroke-linecap: round"/>
    </g>
    <g id="text_18">
     <!-- gamma -->
     <g style="fill: #262626" transform="translate(360.599875 155.422312) scale(0.088 -0.088)">
      <defs>
       <path id="ArialMT-67" d="M 319 -275 
L 866 -356 
Q 900 -609 1056 -725 
Q 1266 -881 1628 -881 
Q 2019 -881 2231 -725 
Q 2444 -569 2519 -288 
Q 2563 -116 2559 434 
Q 2191 0 1641 0 
Q 956 0 581 494 
Q 206 988 206 1678 
Q 206 2153 378 2554 
Q 550 2956 876 3175 
Q 1203 3394 1644 3394 
Q 2231 3394 2613 2919 
L 2613 3319 
L 3131 3319 
L 3131 450 
Q 3131 -325 2973 -648 
Q 2816 -972 2473 -1159 
Q 2131 -1347 1631 -1347 
Q 1038 -1347 672 -1080 
Q 306 -813 319 -275 
z
M 784 1719 
Q 784 1066 1043 766 
Q 1303 466 1694 466 
Q 2081 466 2343 764 
Q 2606 1063 2606 1700 
Q 2606 2309 2336 2618 
Q 2066 2928 1684 2928 
Q 1309 2928 1046 2623 
Q 784 2319 784 1719 
z
" transform="scale(0.015625)"/>
       <path id="ArialMT-6d" d="M 422 0 
L 422 3319 
L 925 3319 
L 925 2853 
Q 1081 3097 1340 3245 
Q 1600 3394 1931 3394 
Q 2300 3394 2536 3241 
Q 2772 3088 2869 2813 
Q 3263 3394 3894 3394 
Q 4388 3394 4653 3120 
Q 4919 2847 4919 2278 
L 4919 0 
L 4359 0 
L 4359 2091 
Q 4359 2428 4304 2576 
Q 4250 2725 4106 2815 
Q 3963 2906 3769 2906 
Q 3419 2906 3187 2673 
Q 2956 2441 2956 1928 
L 2956 0 
L 2394 0 
L 2394 2156 
Q 2394 2531 2256 2718 
Q 2119 2906 1806 2906 
Q 1569 2906 1367 2781 
Q 1166 2656 1075 2415 
Q 984 2175 984 1722 
L 984 0 
L 422 0 
z
" transform="scale(0.015625)"/>
      </defs>
      <use xlink:href="#ArialMT-67"/>
      <use xlink:href="#ArialMT-61" x="55.615234"/>
      <use xlink:href="#ArialMT-6d" x="111.230469"/>
      <use xlink:href="#ArialMT-6d" x="194.53125"/>
      <use xlink:href="#ArialMT-61" x="277.832031"/>
     </g>
    </g>
    <g id="line2d_21">
     <path d="M 335.959875 164.893312 
L 344.759875 164.893312 
L 353.559875 164.893312 
" style="fill: none; stroke: #d62728; stroke-width: 1.2; stroke-linecap: round"/>
    </g>
    <g id="text_19">
     <!-- delta -->
     <g style="fill: #262626" transform="translate(360.599875 167.973312) scale(0.088 -0.088)">
      <use xlink:href="#ArialMT-64"/>
      <use xlink:href="#ArialMT-65" x="55.615234"/>
      <use xlink:href="#ArialMT-6c" x="111.230469"/>
      <use xlink:href="#ArialMT-74" x="133.447266"/>
      <use xlink:href="#ArialMT-61" x="161.230469"/>
     </g>
    </g>
    <g id="line2d_22">
     <path d="M 335.959875 177.341187 
L 344.759875 177.341187 
L 353.559875 177.341187 
" style="fill: none; stroke: #9467bd; stroke-width: 1.2; stroke-linecap: round"/>
    </g>
    <g id="text_20">
     <!-- omega -->
     <g style="fill: #262626" transform="translate(360.599875 180.421187) scale(0.088 -0.088)">
      <use xlink:href="#ArialMT-6f"/>
      <use xlink:href="#ArialMT-6d" x="55.615234"/>
      <use xlink:href="#ArialMT-65" x="138.916016"/>
      <use xlink:href="#ArialMT-67" x="194.53125"/>
      <use xlink:href="#ArialMT-61" x="250.146484"/>
     </g>
    </g>
   </g>
  </g>
 </g>
 <defs>
  <clipPath id="pd62b4b2b11">
   <rect x="40.741" y="20.1945" width="357.12" height="266.112"/>
  </clipPath>
 </defs>
</svg>