<?xml version="1.0" encoding="utf-8" standalone="no"?>
<!DOCTYPE svg PUBLIC "-//W3C//DTD SVG 1.1//EN"
  "http://www.w3.org/Graphics/SVG/1.1/DTD/svg11.dtd">
<svg xmlns:xlink="http://www.w3.org/1999/xlink" width="404.8315pt" height="322.510875pt" viewBox="0 0 404.8315 322.510875" xmlns="http://www.w3.org/2000/svg" version="1.1">
 <metadata>
  <rdf:RDF xmlns:dc="http://purl.org/dc/elements/1.1/" xmlns:cc="http://creativecommons.org/ns#" xmlns:rdf="http://www.w3.org/1999/02/22-rdf-syntax-ns#">
   <cc:Work>
    <dc:type rdf:resource="http://purl.org/dc/dcmitype/StillImage"/>
    <dc:date>2024-01-22T16:56:20.864473</dc:date>
    <dc:format>image/svg+xml</dc:format>
    <dc:creator>
     <cc:Agent>
      <dc:title>Matplotlib v3.8.0, https://matplotlib.org/</dc:title>
     </cc:Agent>
    </dc:creator>
   </cc:Work>
  </rdf:RDF>
 </metadata>
 <defs>
  <style type="text/css">*{stroke-linejoin: round; stroke-linecap: butt}</style>
 </defs>
 <g id="figure_1">
  <g id="patch_1">
   <path d="M 0 322.510875 
L 404.8315 322.510875 
L 404.8315 0 
L 0 0 
z
" style="fill: #ffffff"/>
  </g>
  <g id="axes_1">
   <g id="patch_2">
    <path d="M 40.5115 286.1835 
L 397.6315 286.1835 
L 397.6315 20.0715 
L 40.5115 20.0715 
z
" style="fill: #ffffff"/>
   </g>
   <g id="matplotlib.axis_1">
    <g id="xtick_1">
     <g id="line2d_1">
      <defs>
       <path id="mafb3a7f97d" d="M 0 0 
L 0 4.8 
" style="stroke: #262626"/>
      </defs>
      <g>
       <use xlink:href="#mafb3a7f97d" x="56.744227" y="286.1835" style="fill: #262626; stroke: #262626"/>
      </g>
     </g>
     <g id="text_1">
      <!-- 0 -->
      <g style="fill: #262626" transform="translate(54.297415 300.782375) scale(0.088 -0.088)">
       <defs>
        <path id="ArialMT-30" d="M 266 2259 
Q 266 3072 433 3567 
Q 600 4063 929 4331 
Q 1259 4600 1759 4600 
Q 2128 4600 2406 4451 
Q 2684 4303 2865 4023 
Q 3047 3744 3150 3342 
Q 3253 2941 3253 2259 
Q 3253 1453 3087 958 
Q 2922 463 2592 192 
Q 2263 -78 1759 -78 
Q 1097 -78 719 397 
Q 266 969 266 2259 
z
M 844 2259 
Q 844 1131 1108 757 
Q 1372 384 1759 384 
Q 2147 384 2411 759 
Q 2675 1134 2675 2259 
Q 2675 3391 2411 3762 
Q 2147 4134 1753 4134 
Q 1366 4134 1134 3806 
Q 844 3388 844 2259 
z
" transform="scale(0.015625)"/>
       </defs>
       <use xlink:href="#ArialMT-30"/>
      </g>
     </g>
    </g>
    <g id="xtick_2">
     <g id="line2d_2">
      <g>
       <use xlink:href="#mafb3a7f97d" x="121.675136" y="286.1835" style="fill: #262626; stroke: #262626"/>
      </g>
     </g>
     <g id="text_2">
      <!-- 2 -->
      <g style="fill: #262626" transform="translate(119.228324 300.782375) scale(0.088 -0.088)">
       <defs>
        <path id="ArialMT-32" d="M 3222 541 
L 3222 0 
L 194 0 
Q 188 203 259 391 
Q 375 700 629 1000 
Q 884 1300 1366 1694 
Q 2113 2306 2375 2664 
Q 2638 3022 2638 3341 
Q 2638 3675 2398 3904 
Q 2159 4134 1775 4134 
Q 1369 4134 1125 3890 
Q 881 3647 878 3216 
L 300 3275 
Q 359 3922 746 4261 
Q 1134 4600 1788 4600 
Q 2447 4600 2831 4234 
Q 3216 3869 3216 3328 
Q 3216 3053 3103 2787 
Q 2991 2522 2730 2228 
Q 2469 1934 1863 1422 
Q 1356 997 1212 845 
Q 1069 694 975 541 
L 3222 541 
z
" transform="scale(0.015625)"/>
       </defs>
       <use xlink:href="#ArialMT-32"/>
      </g>
     </g>
    </g>
    <g id="xtick_3">
     <g id="line2d_3">
      <g>
       <use xlink:href="#mafb3a7f97d" x="186.606045" y="286.1835" style="fill: #262626; stroke: #262626"/>
      </g>
     </g>
     <g id="text_3">
      <!-- 4 -->
      <g style="fill: #262626" transform="translate(184.159233 300.782375) scale(0.088 -0.088)">
       <defs>
        <path id="ArialMT-34" d="M 2069 0 
L 2069 1097 
L 81 1097 
L 81 1613 
L 2172 4581 
L 2631 4581 
L 2631 1613 
L 3250 1613 
L 3250 1097 
L 2631 1097 
L 2631 0 
L 2069 0 
z
M 2069 1613 
L 2069 3678 
L 634 1613 
L 2069 1613 
z
" transform="scale(0.015625)"/>
       </defs>
       <use xlink:href="#ArialMT-34"/>
      </g>
     </g>
    </g>
    <g id="xtick_4">
     <g id="line2d_4">
      <g>
       <use xlink:href="#mafb3a7f97d" x="251.536955" y="286.1835" style="fill: #262626; stroke: #262626"/>
      </g>
     </g>
     <g id="text_4">
      <!-- 6 -->
      <g style="fill: #262626" transform="translate(249.090142 300.782375) scale(0.088 -0.088)">
       <defs>
        <path id="ArialMT-36" d="M 3184 3459 
L 2625 3416 
Q 2550 3747 2413 3897 
Q 2184 4138 1850 4138 
Q 1581 4138 1378 3988 
Q 1113 3794 959 3422 
Q 806 3050 800 2363 
Q 1003 2672 1297 2822 
Q 1591 2972 1913 2972 
Q 2475 2972 2870 2558 
Q 3266 2144 3266 1488 
Q 3266 1056 3080 686 
Q 2894 316 2569 119 
Q 2244 -78 1831 -78 
Q 1128 -78 684 439 
Q 241 956 241 2144 
Q 241 3472 731 4075 
Q 1159 4600 1884 4600 
Q 2425 4600 2770 4297 
Q 3116 3994 3184 3459 
z
M 888 1484 
Q 888 1194 1011 928 
Q 1134 663 1356 523 
Q 1578 384 1822 384 
Q 2178 384 2434 671 
Q 2691 959 2691 1453 
Q 2691 1928 2437 2201 
Q 2184 2475 1800 2475 
Q 1419 2475 1153 2201 
Q 888 1928 888 1484 
z
" transform="scale(0.015625)"/>
       </defs>
       <use xlink:href="#ArialMT-36"/>
      </g>
     </g>
    </g>
    <g id="xtick_5">
     <g id="line2d_5">
      <g>
       <use xlink:href="#mafb3a7f97d" x="316.467864" y="286.1835" style="fill: #262626; stroke: #262626"/>
      </g>
     </g>
     <g id="text_5">
      <!-- 8 -->
      <g style="fill: #262626" transform="translate(314.021051 300.782375) scale(0.088 -0.088)">
       <defs>
        <path id="ArialMT-38" d="M 1131 2484 
Q 781 2613 612 2850 
Q 444 3088 444 3419 
Q 444 3919 803 4259 
Q 1163 4600 1759 4600 
Q 2359 4600 2725 4251 
Q 3091 3903 3091 3403 
Q 3091 3084 2923 2848 
Q 2756 2613 2416 2484 
Q 2838 2347 3058 2040 
Q 3278 1734 3278 1309 
Q 3278 722 2862 322 
Q 2447 -78 1769 -78 
Q 1091 -78 675 323 
Q 259 725 259 1325 
Q 259 1772 486 2073 
Q 713 2375 1131 2484 
z
M 1019 3438 
Q 1019 3113 1228 2906 
Q 1438 2700 1772 2700 
Q 2097 2700 2305 2904 
Q 2513 3109 2513 3406 
Q 2513 3716 2298 3927 
Q 2084 4138 1766 4138 
Q 1444 4138 1231 3931 
Q 1019 3725 1019 3438 
z
M 838 1322 
Q 838 1081 952 856 
Q 1066 631 1291 507 
Q 1516 384 1775 384 
Q 2178 384 2440 643 
Q 2703 903 2703 1303 
Q 2703 1709 2433 1975 
Q 2163 2241 1756 2241 
Q 1359 2241 1098 1978 
Q 838 1716 838 1322 
z
" transform="scale(0.015625)"/>
       </defs>
       <use xlink:href="#ArialMT-38"/>
      </g>
     </g>
    </g>
    <g id="xtick_6">
     <g id="line2d_6">
      <g>
       <use xlink:href="#mafb3a7f97d" x="381.398773" y="286.1835" style="fill: #262626; stroke: #262626"/>
      </g>
     </g>
     <g id="text_6">
      <!-- 10 -->
      <g style="fill: #262626" transform="translate(376.505148 300.782375) scale(0.088 -0.088)">
       <defs>
        <path id="ArialMT-31" d="M 2384 0 
L 1822 0 
L 1822 3584 
Q 1619 3391 1289 3197 
Q 959 3003 697 2906 
L 697 3450 
Q 1169 3672 1522 3987 
Q 1875 4303 2022 4600 
L 2384 4600 
L 2384 0 
z
" transform="scale(0.015625)"/>
       </defs>
       <use xlink:href="#ArialMT-31"/>
       <use xlink:href="#ArialMT-30" x="55.615234"/>
      </g>
     </g>
    </g>
    <g id="text_7">
     <!-- $t$ -->
     <g style="fill: #262626" transform="translate(217.1515 313.402875) scale(0.096 -0.096)">
      <defs>
       <path id="DejaVuSans-Oblique-74" d="M 2706 3500 
L 2619 3053 
L 1472 3053 
L 1100 1153 
Q 1081 1047 1072 975 
Q 1063 903 1063 863 
Q 1063 663 1183 572 
Q 1303 481 1569 481 
L 2150 481 
L 2053 0 
L 1503 0 
Q 991 0 739 200 
Q 488 400 488 806 
Q 488 878 497 964 
Q 506 1050 525 1153 
L 897 3053 
L 409 3053 
L 500 3500 
L 978 3500 
L 1172 4494 
L 1747 4494 
L 1556 3500 
L 2706 3500 
z
" transform="scale(0.015625)"/>
      </defs>
      <use xlink:href="#DejaVuSans-Oblique-74" transform="translate(0 0.78125)"/>
     </g>
    </g>
   </g>
   <g id="matplotlib.axis_2">
    <g id="ytick_1">
     <g id="line2d_7">
      <defs>
       <path id="m76c6867785" d="M 0 0 
L -4.8 0 
" style="stroke: #262626"/>
      </defs>
      <g>
       <use xlink:href="#m76c6867785" x="40.5115" y="275.156106" style="fill: #262626; stroke: #262626"/>
      </g>
     </g>
     <g id="text_8">
      <!-- 0.0 -->
      <g style="fill: #262626" transform="translate(19.9795 278.305544) scale(0.088 -0.088)">
       <defs>
        <path id="ArialMT-2e" d="M 581 0 
L 581 641 
L 1222 641 
L 1222 0 
L 581 0 
z
" transform="scale(0.015625)"/>
       </defs>
       <use xlink:href="#ArialMT-30"/>
       <use xlink:href="#ArialMT-2e" x="55.615234"/>
       <use xlink:href="#ArialMT-30" x="83.398438"/>
      </g>
     </g>
    </g>
    <g id="ytick_2">
     <g id="line2d_8">
      <g>
       <use xlink:href="#m76c6867785" x="40.5115" y="226.565185" style="fill: #262626; stroke: #262626"/>
      </g>
     </g>
     <g id="text_9">
      <!-- 0.2 -->
      <g style="fill: #262626" transform="translate(19.9795 229.714623) scale(0.088 -0.088)">
       <use xlink:href="#ArialMT-30"/>
       <use xlink:href="#ArialMT-2e" x="55.615234"/>
       <use xlink:href="#ArialMT-32" x="83.398438"/>
      </g>
     </g>
    </g>
    <g id="ytick_3">
     <g id="line2d_9">
      <g>
       <use xlink:href="#m76c6867785" x="40.5115" y="177.974265" style="fill: #262626; stroke: #262626"/>
      </g>
     </g>
     <g id="text_10">
      <!-- 0.4 -->
      <g style="fill: #262626" transform="translate(19.9795 181.123702) scale(0.088 -0.088)">
       <use xlink:href="#ArialMT-30"/>
       <use xlink:href="#ArialMT-2e" x="55.615234"/>
       <use xlink:href="#ArialMT-34" x="83.398438"/>
      </g>
     </g>
    </g>
    <g id="ytick_4">
     <g id="line2d_10">
      <g>
       <use xlink:href="#m76c6867785" x="40.5115" y="129.383344" style="fill: #262626; stroke: #262626"/>
      </g>
     </g>
     <g id="text_11">
      <!-- 0.6 -->
      <g style="fill: #262626" transform="translate(19.9795 132.532781) scale(0.088 -0.088)">
       <use xlink:href="#ArialMT-30"/>
       <use xlink:href="#ArialMT-2e" x="55.615234"/>
       <use xlink:href="#ArialMT-36" x="83.398438"/>
      </g>
     </g>
    </g>
    <g id="ytick_5">
     <g id="line2d_11">
      <g>
       <use xlink:href="#m76c6867785" x="40.5115" y="80.792423" style="fill: #262626; stroke: #262626"/>
      </g>
     </g>
     <g id="text_12">
      <!-- 0.8 -->
      <g style="fill: #262626" transform="translate(19.9795 83.94186) scale(0.088 -0.088)">
       <use xlink:href="#ArialMT-30"/>
       <use xlink:href="#ArialMT-2e" x="55.615234"/>
       <use xlink:href="#ArialMT-38" x="83.398438"/>
      </g>
     </g>
    </g>
    <g id="ytick_6">
     <g id="line2d_12">
      <g>
       <use xlink:href="#m76c6867785" x="40.5115" y="32.201502" style="fill: #262626; stroke: #262626"/>
      </g>
     </g>
     <g id="text_13">
      <!-- 1.0 -->
      <g style="fill: #262626" transform="translate(19.9795 35.350939) scale(0.088 -0.088)">
       <use xlink:href="#ArialMT-31"/>
       <use xlink:href="#ArialMT-2e" x="55.615234"/>
       <use xlink:href="#ArialMT-30" x="83.398438"/>
      </g>
     </g>
    </g>
    <g id="text_14">
     <!-- $x(t)$ -->
     <g style="fill: #262626" transform="translate(14.0715 161.6235) rotate(-90) scale(0.096 -0.096)">
      <defs>
       <path id="DejaVuSans-Oblique-78" d="M 3841 3500 
L 2234 1784 
L 3219 0 
L 2559 0 
L 1819 1388 
L 531 0 
L -166 0 
L 1556 1844 
L 641 3500 
L 1300 3500 
L 1972 2234 
L 3144 3500 
L 3841 3500 
z
" transform="scale(0.015625)"/>
       <path id="DejaVuSans-28" d="M 1984 4856 
Q 1566 4138 1362 3434 
Q 1159 2731 1159 2009 
Q 1159 1288 1364 580 
Q 1569 -128 1984 -844 
L 1484 -844 
Q 1016 -109 783 600 
Q 550 1309 550 2009 
Q 550 2706 781 3412 
Q 1013 4119 1484 4856 
L 1984 4856 
z
" transform="scale(0.015625)"/>
       <path id="DejaVuSans-29" d="M 513 4856 
L 1013 4856 
Q 1481 4119 1714 3412 
Q 1947 2706 1947 2009 
Q 1947 1309 1714 600 
Q 1481 -109 1013 -844 
L 513 -844 
Q 928 -128 1133 580 
Q 1338 1288 1338 2009 
Q 1338 2731 1133 3434 
Q 928 4138 513 4856 
z
" transform="scale(0.015625)"/>
      </defs>
      <use xlink:href="#DejaVuSans-Oblique-78" transform="translate(0 0.125)"/>
      <use xlink:href="#DejaVuSans-28" transform="translate(59.179688 0.125)"/>
      <use xlink:href="#DejaVuSans-Oblique-74" transform="translate(98.193359 0.125)"/>
      <use xlink:href="#DejaVuSans-29" transform="translate(137.402344 0.125)"/>
     </g>
    </g>
   </g>
   <g id="line2d_13">
    <path d="M 56.744227 32.221558 
L 60.642031 46.78683 
L 64.539834 60.478812 
L 68.437638 73.349868 
L 72.335442 85.449263 
L 76.233246 96.823221 
L 80.131049 107.515214 
L 84.028853 117.566139 
L 87.926656 127.014456 
L 91.824459 135.896297 
L 95.722265 144.245649 
L 99.782474 152.410988 
L 103.842688 160.067036 
L 107.902898 167.245545 
L 111.963111 173.976302 
L 116.023325 180.287204 
L 120.245943 186.433325 
L 124.468565 192.181299 
L 128.691184 197.556852 
L 132.913802 202.584146 
L 137.298836 207.460372 
L 141.683863 212.008931 
L 146.231298 216.403421 
L 150.77874 220.492078 
L 155.488584 224.427047 
L 160.198427 228.078766 
L 165.070687 231.58001 
L 170.105347 234.924623 
L 175.302423 238.108099 
L 180.6619 241.127426 
L 186.183785 243.981096 
L 191.868087 246.668929 
L 197.714789 249.191992 
L 203.886308 251.613202 
L 210.382659 253.91833 
L 217.203811 256.096198 
L 224.34978 258.138633 
L 231.820566 260.040274 
L 239.778593 261.832778 
L 248.22383 263.50312 
L 257.156291 265.042505 
L 266.738402 266.468517 
L 277.132539 267.788957 
L 288.501126 269.004515 
L 300.844179 270.098289 
L 314.648893 271.09288 
L 330.07769 271.974899 
L 347.455403 272.741262 
L 367.594075 273.401542 
L 381.398773 273.746558 
L 381.398773 273.746558 
" clip-path="url(#p7221d0d3d8)" style="fill: none; stroke: #ff0000; stroke-width: 0.5; stroke-linecap: round"/>
   </g>
   <g id="line2d_14">
    <path d="M 56.744227 32.1675 
L 60.966848 45.25085 
L 65.189468 57.629733 
L 69.412089 69.342102 
L 73.63471 80.423786 
L 78.019738 91.300589 
L 82.404767 101.569803 
L 86.789797 111.265474 
L 91.174826 120.419533 
L 95.559856 129.062289 
L 99.944883 137.222284 
L 104.329913 144.926498 
L 108.877352 152.46186 
L 113.424787 159.561149 
L 117.972226 166.249664 
L 122.519665 172.551139 
L 127.229508 178.693596 
L 131.939351 184.468295 
L 136.649202 189.897269 
L 141.521454 195.1717 
L 146.393706 200.119796 
L 151.428374 204.911495 
L 156.463034 209.39717 
L 161.66011 213.727287 
L 166.857179 217.77228 
L 172.216656 221.664895 
L 177.738549 225.399468 
L 183.422843 228.971707 
L 189.269552 232.378639 
L 195.278663 235.61849 
L 201.450182 238.690649 
L 207.784109 241.595612 
L 214.442869 244.40036 
L 221.264021 247.030621 
L 228.40999 249.545202 
L 235.880776 251.934035 
L 243.676395 254.189493 
L 251.796814 256.306295 
L 260.404459 258.317253 
L 269.499344 260.209423 
L 279.081439 261.973412 
L 289.313168 263.627786 
L 300.194546 265.160009 
L 311.88795 266.580338 
L 324.555805 267.892211 
L 338.360533 269.09439 
L 353.464529 270.18301 
L 370.192609 271.162043 
L 381.398773 271.707588 
L 381.398773 271.707588 
" clip-path="url(#p7221d0d3d8)" style="fill: none; stroke: #ff0000; stroke-width: 0.5; stroke-linecap: round"/>
   </g>
   <g id="line2d_15">
    <path d="M 56.744227 32.2299 
L 60.642031 46.511788 
L 64.539834 59.954042 
L 68.437638 72.606011 
L 72.335442 84.514167 
L 76.233246 95.722242 
L 80.131049 106.271335 
L 84.028853 116.200226 
L 87.926656 125.545379 
L 91.986868 134.696194 
L 96.047081 143.287281 
L 100.107291 151.352917 
L 104.167505 158.925221 
L 108.227715 166.034357 
L 112.287928 172.70868 
L 116.51055 179.217266 
L 120.733168 185.312355 
L 124.955791 191.020216 
L 129.178409 196.365452 
L 133.563443 201.557145 
L 137.94847 206.406732 
L 142.495905 211.098678 
L 147.043347 215.470418 
L 151.753191 219.684015 
L 156.463034 223.600151 
L 161.335294 227.360624 
L 166.369954 230.958531 
L 171.404614 234.285592 
L 176.60169 237.457504 
L 181.961167 240.470909 
L 187.48306 243.323902 
L 193.167354 246.015887 
L 199.176464 248.614563 
L 205.347983 251.042441 
L 211.844334 253.358568 
L 218.665487 255.551458 
L 225.811456 257.612537 
L 233.282242 259.535995 
L 241.240269 261.353497 
L 249.685505 263.051544 
L 258.617967 264.620775 
L 268.200077 266.078704 
L 278.594214 267.432976 
L 289.800393 268.667618 
L 302.143447 269.800371 
L 315.785751 270.82375 
L 330.889747 271.730303 
L 348.105037 272.534613 
L 367.756468 273.224625 
L 381.398773 273.593684 
L 381.398773 273.593684 
" clip-path="url(#p7221d0d3d8)" style="fill: none; stroke: #ff0000; stroke-width: 0.5; stroke-linecap: round"/>
   </g>
   <g id="line2d_16">
    <path d="M 56.744227 32.189164 
L 60.479622 46.895599 
L 64.215018 60.711858 
L 67.950412 73.691871 
L 71.685808 85.886219 
L 75.421202 97.342401 
L 79.156597 108.105223 
L 82.891994 118.216534 
L 86.627389 127.715883 
L 90.525192 137.015695 
L 94.422994 145.728902 
L 98.320799 153.892583 
L 102.218604 161.541304 
L 106.116405 168.707598 
L 110.014211 175.421868 
L 114.074421 181.96594 
L 118.134634 188.080614 
L 122.194848 193.79408 
L 126.255058 199.132655 
L 130.477676 204.313529 
L 134.700302 209.14133 
L 138.92292 213.640081 
L 143.307947 217.987678 
L 147.692981 222.028015 
L 152.240416 225.916643 
L 156.950259 229.644367 
L 161.66011 233.089877 
L 166.532362 236.379942 
L 171.567022 239.509581 
L 176.764098 242.475469 
L 182.123575 245.275812 
L 187.645468 247.910257 
L 193.492171 250.446942 
L 199.501281 252.808205 
L 205.835208 255.053255 
L 212.493968 257.170686 
L 219.477529 259.152208 
L 226.785906 260.992518 
L 234.581509 262.722879 
L 242.864353 264.330366 
L 251.796814 265.831817 
L 261.378909 267.211761 
L 271.773062 268.47873 
L 283.141649 269.634313 
L 295.647111 270.675861 
L 309.451824 271.59904 
L 325.043045 272.415079 
L 342.907968 273.122673 
L 363.858666 273.723439 
L 381.398773 274.0875 
L 381.398773 274.0875 
" clip-path="url(#p7221d0d3d8)" style="fill: none; stroke: #ff0000; stroke-width: 0.5; stroke-linecap: round"/>
   </g>
   <g id="line2d_17">
    <path d="M 56.744227 32.232637 
L 60.642031 46.055615 
L 64.539834 59.092047 
L 68.437638 71.386692 
L 72.49785 83.450318 
L 76.558063 94.79973 
L 80.618274 105.47717 
L 84.678486 115.522592 
L 88.738698 124.973255 
L 92.79891 133.864393 
L 96.859123 142.229225 
L 100.919333 150.098814 
L 104.979547 157.502499 
L 109.202169 164.737774 
L 113.424787 171.528077 
L 117.647409 177.900822 
L 121.870031 183.881654 
L 126.255058 189.703561 
L 130.640084 195.154142 
L 135.025119 200.257035 
L 139.572554 205.205414 
L 144.119988 209.826835 
L 148.82984 214.291744 
L 153.539683 218.451489 
L 158.411935 222.455732 
L 163.284194 226.177229 
L 168.318854 229.746901 
L 173.515923 233.159079 
L 178.875408 236.409549 
L 184.397293 239.495595 
L 190.081594 242.415879 
L 195.928296 245.170298 
L 202.099815 247.826748 
L 208.433743 250.308596 
L 215.092502 252.675096 
L 222.076063 254.915259 
L 229.384441 257.020963 
L 237.017651 258.986742 
L 245.13807 260.844634 
L 253.745715 262.581476 
L 262.840585 264.188157 
L 272.585104 265.68251 
L 283.141649 267.072533 
L 294.510252 268.34228 
L 306.85329 269.496094 
L 320.49561 270.545456 
L 335.761999 271.49084 
L 352.814896 272.319581 
L 372.303903 273.039865 
L 381.398773 273.31026 
L 381.398773 273.31026 
" clip-path="url(#p7221d0d3d8)" style="fill: none; stroke: #ff0000; stroke-width: 0.5; stroke-linecap: round"/>
   </g>
   <g id="patch_3">
    <path d="M 40.5115 275.156106 
L 40.5115 32.201502 
" style="fill: none; stroke: #262626; stroke-linejoin: miter; stroke-linecap: square"/>
   </g>
   <g id="patch_4">
    <path d="M 56.744227 286.1835 
L 381.398773 286.1835 
" style="fill: none; stroke: #262626; stroke-linejoin: miter; stroke-linecap: square"/>
   </g>
   <g id="text_15">
    <!-- PC solution -->
    <g style="fill: #262626" transform="translate(194.52625 14.0715) scale(0.096 -0.096)">
     <defs>
      <path id="ArialMT-50" d="M 494 0 
L 494 4581 
L 2222 4581 
Q 2678 4581 2919 4538 
Q 3256 4481 3484 4323 
Q 3713 4166 3852 3881 
Q 3991 3597 3991 3256 
Q 3991 2672 3619 2267 
Q 3247 1863 2275 1863 
L 1100 1863 
L 1100 0 
L 494 0 
z
M 1100 2403 
L 2284 2403 
Q 2872 2403 3119 2622 
Q 3366 2841 3366 3238 
Q 3366 3525 3220 3729 
Q 3075 3934 2838 4000 
Q 2684 4041 2272 4041 
L 1100 4041 
L 1100 2403 
z
" transform="scale(0.015625)"/>
      <path id="ArialMT-43" d="M 3763 1606 
L 4369 1453 
Q 4178 706 3683 314 
Q 3188 -78 2472 -78 
Q 1731 -78 1267 223 
Q 803 525 561 1097 
Q 319 1669 319 2325 
Q 319 3041 592 3573 
Q 866 4106 1370 4382 
Q 1875 4659 2481 4659 
Q 3169 4659 3637 4309 
Q 4106 3959 4291 3325 
L 3694 3184 
Q 3534 3684 3231 3912 
Q 2928 4141 2469 4141 
Q 1941 4141 1586 3887 
Q 1231 3634 1087 3207 
Q 944 2781 944 2328 
Q 944 1744 1114 1308 
Q 1284 872 1643 656 
Q 2003 441 2422 441 
Q 2931 441 3284 734 
Q 3638 1028 3763 1606 
z
" transform="scale(0.015625)"/>
      <path id="ArialMT-20" transform="scale(0.015625)"/>
      <path id="ArialMT-73" d="M 197 991 
L 753 1078 
Q 800 744 1014 566 
Q 1228 388 1613 388 
Q 2000 388 2187 545 
Q 2375 703 2375 916 
Q 2375 1106 2209 1216 
Q 2094 1291 1634 1406 
Q 1016 1563 777 1677 
Q 538 1791 414 1992 
Q 291 2194 291 2438 
Q 291 2659 392 2848 
Q 494 3038 669 3163 
Q 800 3259 1026 3326 
Q 1253 3394 1513 3394 
Q 1903 3394 2198 3281 
Q 2494 3169 2634 2976 
Q 2775 2784 2828 2463 
L 2278 2388 
Q 2241 2644 2061 2787 
Q 1881 2931 1553 2931 
Q 1166 2931 1000 2803 
Q 834 2675 834 2503 
Q 834 2394 903 2306 
Q 972 2216 1119 2156 
Q 1203 2125 1616 2013 
Q 2213 1853 2448 1751 
Q 2684 1650 2818 1456 
Q 2953 1263 2953 975 
Q 2953 694 2789 445 
Q 2625 197 2315 61 
Q 2006 -75 1616 -75 
Q 969 -75 630 194 
Q 291 463 197 991 
z
" transform="scale(0.015625)"/>
      <path id="ArialMT-6f" d="M 213 1659 
Q 213 2581 725 3025 
Q 1153 3394 1769 3394 
Q 2453 3394 2887 2945 
Q 3322 2497 3322 1706 
Q 3322 1066 3130 698 
Q 2938 331 2570 128 
Q 2203 -75 1769 -75 
Q 1072 -75 642 372 
Q 213 819 213 1659 
z
M 791 1659 
Q 791 1022 1069 705 
Q 1347 388 1769 388 
Q 2188 388 2466 706 
Q 2744 1025 2744 1678 
Q 2744 2294 2464 2611 
Q 2184 2928 1769 2928 
Q 1347 2928 1069 2612 
Q 791 2297 791 1659 
z
" transform="scale(0.015625)"/>
      <path id="ArialMT-6c" d="M 409 0 
L 409 4581 
L 972 4581 
L 972 0 
L 409 0 
z
" transform="scale(0.015625)"/>
      <path id="ArialMT-75" d="M 2597 0 
L 2597 488 
Q 2209 -75 1544 -75 
Q 1250 -75 995 37 
Q 741 150 617 320 
Q 494 491 444 738 
Q 409 903 409 1263 
L 409 3319 
L 972 3319 
L 972 1478 
Q 972 1038 1006 884 
Q 1059 663 1231 536 
Q 1403 409 1656 409 
Q 1909 409 2131 539 
Q 2353 669 2445 892 
Q 2538 1116 2538 1541 
L 2538 3319 
L 3100 3319 
L 3100 0 
L 2597 0 
z
" transform="scale(0.015625)"/>
      <path id="ArialMT-74" d="M 1650 503 
L 1731 6 
Q 1494 -44 1306 -44 
Q 1000 -44 831 53 
Q 663 150 594 308 
Q 525 466 525 972 
L 525 2881 
L 113 2881 
L 113 3319 
L 525 3319 
L 525 4141 
L 1084 4478 
L 1084 3319 
L 1650 3319 
L 1650 2881 
L 1084 2881 
L 1084 941 
Q 1084 700 1114 631 
Q 1144 563 1211 522 
Q 1278 481 1403 481 
Q 1497 481 1650 503 
z
" transform="scale(0.015625)"/>
      <path id="ArialMT-69" d="M 425 3934 
L 425 4581 
L 988 4581 
L 988 3934 
L 425 3934 
z
M 425 0 
L 425 3319 
L 988 3319 
L 988 0 
L 425 0 
z
" transform="scale(0.015625)"/>
      <path id="ArialMT-6e" d="M 422 0 
L 422 3319 
L 928 3319 
L 928 2847 
Q 1294 3394 1984 3394 
Q 2284 3394 2536 3286 
Q 2788 3178 2913 3003 
Q 3038 2828 3088 2588 
Q 3119 2431 3119 2041 
L 3119 0 
L 2556 0 
L 2556 2019 
Q 2556 2363 2490 2533 
Q 2425 2703 2258 2804 
Q 2091 2906 1866 2906 
Q 1506 2906 1245 2678 
Q 984 2450 984 1813 
L 984 0 
L 422 0 
z
" transform="scale(0.015625)"/>
     </defs>
     <use xlink:href="#ArialMT-50"/>
     <use xlink:href="#ArialMT-43" x="66.699219"/>
     <use xlink:href="#ArialMT-20" x="138.916016"/>
     <use xlink:href="#ArialMT-73" x="166.699219"/>
     <use xlink:href="#ArialMT-6f" x="216.699219"/>
     <use xlink:href="#ArialMT-6c" x="272.314453"/>
     <use xlink:href="#ArialMT-75" x="294.53125"/>
     <use xlink:href="#ArialMT-74" x="350.146484"/>
     <use xlink:href="#ArialMT-69" x="377.929688"/>
     <use xlink:href="#ArialMT-6f" x="400.146484"/>
     <use xlink:href="#ArialMT-6e" x="455.761719"/>
    </g>
   </g>
   <g id="legend_1"/>
  </g>
 </g>
 <defs>
  <clipPath id="p7221d0d3d8">
   <rect x="40.5115" y="20.0715" width="357.12" height="266.112"/>
  </clipPath>
 </defs>
</svg>