<?xml version="1.0" encoding="utf-8" standalone="no"?>
<!DOCTYPE svg PUBLIC "-//W3C//DTD SVG 1.1//EN"
  "http://www.w3.org/Graphics/SVG/1.1/DTD/svg11.dtd">
<svg xmlns:xlink="http://www.w3.org/1999/xlink" width="397.19175pt" height="296.859875pt" viewBox="0 0 397.19175 296.859875" xmlns="http://www.w3.org/2000/svg" version="1.1">
 <metadata>
  <rdf:RDF xmlns:dc="http://purl.org/dc/elements/1.1/" xmlns:cc="http://creativecommons.org/ns#" xmlns:rdf="http://www.w3.org/1999/02/22-rdf-syntax-ns#">
   <cc:Work>
    <dc:type rdf:resource="http://purl.org/dc/dcmitype/StillImage"/>
    <dc:date>2024-10-22T06:43:26.054630</dc:date>
    <dc:format>image/svg+xml</dc:format>
    <dc:creator>
     <cc:Agent>
      <dc:title>Matplotlib v3.9.2, https://matplotlib.org/</dc:title>
     </cc:Agent>
    </dc:creator>
   </cc:Work>
  </rdf:RDF>
 </metadata>
 <defs>
  <style type="text/css">*{stroke-linejoin: round; stroke-linecap: butt}</style>
 </defs>
 <g id="figure_1">
  <g id="patch_1">
   <path d="M 0 296.859875 
L 397.19175 296.859875 
L 397.19175 0 
L 0 0 
z
" style="fill: #ffffff"/>
  </g>
  <g id="axes_1">
   <g id="patch_2">
    <path d="M 32.87175 273.312 
L 389.99175 273.312 
L 389.99175 7.2 
L 32.87175 7.2 
z
" style="fill: #ffffff"/>
   </g>
   <g id="matplotlib.axis_1">
    <g id="xtick_1">
     <g id="line2d_1">
      <defs>
       <path id="m0777dbe9d8" d="M 0 0 
L 0 4.8 
" style="stroke: #262626"/>
      </defs>
      <g>
       <use xlink:href="#m0777dbe9d8" x="49.104477" y="273.312" style="fill: #262626; stroke: #262626"/>
      </g>
     </g>
     <g id="text_1">
      <!-- 0.0 -->
      <g style="fill: #262626" transform="translate(42.988477 287.910875) scale(0.088 -0.088)">
       <defs>
        <path id="ArialMT-30" d="M 266 2259 
Q 266 3072 433 3567 
Q 600 4063 929 4331 
Q 1259 4600 1759 4600 
Q 2128 4600 2406 4451 
Q 2684 4303 2865 4023 
Q 3047 3744 3150 3342 
Q 3253 2941 3253 2259 
Q 3253 1453 3087 958 
Q 2922 463 2592 192 
Q 2263 -78 1759 -78 
Q 1097 -78 719 397 
Q 266 969 266 2259 
z
M 844 2259 
Q 844 1131 1108 757 
Q 1372 384 1759 384 
Q 2147 384 2411 759 
Q 2675 1134 2675 2259 
Q 2675 3391 2411 3762 
Q 2147 4134 1753 4134 
Q 1366 4134 1134 3806 
Q 844 3388 844 2259 
z
" transform="scale(0.015625)"/>
        <path id="ArialMT-2e" d="M 581 0 
L 581 641 
L 1222 641 
L 1222 0 
L 581 0 
z
" transform="scale(0.015625)"/>
       </defs>
       <use xlink:href="#ArialMT-30"/>
       <use xlink:href="#ArialMT-2e" x="55.615234"/>
       <use xlink:href="#ArialMT-30" x="83.398438"/>
      </g>
     </g>
    </g>
    <g id="xtick_2">
     <g id="line2d_2">
      <g>
       <use xlink:href="#m0777dbe9d8" x="114.035386" y="273.312" style="fill: #262626; stroke: #262626"/>
      </g>
     </g>
     <g id="text_2">
      <!-- 0.2 -->
      <g style="fill: #262626" transform="translate(107.919386 287.910875) scale(0.088 -0.088)">
       <defs>
        <path id="ArialMT-32" d="M 3222 541 
L 3222 0 
L 194 0 
Q 188 203 259 391 
Q 375 700 629 1000 
Q 884 1300 1366 1694 
Q 2113 2306 2375 2664 
Q 2638 3022 2638 3341 
Q 2638 3675 2398 3904 
Q 2159 4134 1775 4134 
Q 1369 4134 1125 3890 
Q 881 3647 878 3216 
L 300 3275 
Q 359 3922 746 4261 
Q 1134 4600 1788 4600 
Q 2447 4600 2831 4234 
Q 3216 3869 3216 3328 
Q 3216 3053 3103 2787 
Q 2991 2522 2730 2228 
Q 2469 1934 1863 1422 
Q 1356 997 1212 845 
Q 1069 694 975 541 
L 3222 541 
z
" transform="scale(0.015625)"/>
       </defs>
       <use xlink:href="#ArialMT-30"/>
       <use xlink:href="#ArialMT-2e" x="55.615234"/>
       <use xlink:href="#ArialMT-32" x="83.398438"/>
      </g>
     </g>
    </g>
    <g id="xtick_3">
     <g id="line2d_3">
      <g>
       <use xlink:href="#m0777dbe9d8" x="178.966295" y="273.312" style="fill: #262626; stroke: #262626"/>
      </g>
     </g>
     <g id="text_3">
      <!-- 0.4 -->
      <g style="fill: #262626" transform="translate(172.850295 287.910875) scale(0.088 -0.088)">
       <defs>
        <path id="ArialMT-34" d="M 2069 0 
L 2069 1097 
L 81 1097 
L 81 1613 
L 2172 4581 
L 2631 4581 
L 2631 1613 
L 3250 1613 
L 3250 1097 
L 2631 1097 
L 2631 0 
L 2069 0 
z
M 2069 1613 
L 2069 3678 
L 634 1613 
L 2069 1613 
z
" transform="scale(0.015625)"/>
       </defs>
       <use xlink:href="#ArialMT-30"/>
       <use xlink:href="#ArialMT-2e" x="55.615234"/>
       <use xlink:href="#ArialMT-34" x="83.398438"/>
      </g>
     </g>
    </g>
    <g id="xtick_4">
     <g id="line2d_4">
      <g>
       <use xlink:href="#m0777dbe9d8" x="243.897205" y="273.312" style="fill: #262626; stroke: #262626"/>
      </g>
     </g>
     <g id="text_4">
      <!-- 0.6 -->
      <g style="fill: #262626" transform="translate(237.781205 287.910875) scale(0.088 -0.088)">
       <defs>
        <path id="ArialMT-36" d="M 3184 3459 
L 2625 3416 
Q 2550 3747 2413 3897 
Q 2184 4138 1850 4138 
Q 1581 4138 1378 3988 
Q 1113 3794 959 3422 
Q 806 3050 800 2363 
Q 1003 2672 1297 2822 
Q 1591 2972 1913 2972 
Q 2475 2972 2870 2558 
Q 3266 2144 3266 1488 
Q 3266 1056 3080 686 
Q 2894 316 2569 119 
Q 2244 -78 1831 -78 
Q 1128 -78 684 439 
Q 241 956 241 2144 
Q 241 3472 731 4075 
Q 1159 4600 1884 4600 
Q 2425 4600 2770 4297 
Q 3116 3994 3184 3459 
z
M 888 1484 
Q 888 1194 1011 928 
Q 1134 663 1356 523 
Q 1578 384 1822 384 
Q 2178 384 2434 671 
Q 2691 959 2691 1453 
Q 2691 1928 2437 2201 
Q 2184 2475 1800 2475 
Q 1419 2475 1153 2201 
Q 888 1928 888 1484 
z
" transform="scale(0.015625)"/>
       </defs>
       <use xlink:href="#ArialMT-30"/>
       <use xlink:href="#ArialMT-2e" x="55.615234"/>
       <use xlink:href="#ArialMT-36" x="83.398438"/>
      </g>
     </g>
    </g>
    <g id="xtick_5">
     <g id="line2d_5">
      <g>
       <use xlink:href="#m0777dbe9d8" x="308.828114" y="273.312" style="fill: #262626; stroke: #262626"/>
      </g>
     </g>
     <g id="text_5">
      <!-- 0.8 -->
      <g style="fill: #262626" transform="translate(302.712114 287.910875) scale(0.088 -0.088)">
       <defs>
        <path id="ArialMT-38" d="M 1131 2484 
Q 781 2613 612 2850 
Q 444 3088 444 3419 
Q 444 3919 803 4259 
Q 1163 4600 1759 4600 
Q 2359 4600 2725 4251 
Q 3091 3903 3091 3403 
Q 3091 3084 2923 2848 
Q 2756 2613 2416 2484 
Q 2838 2347 3058 2040 
Q 3278 1734 3278 1309 
Q 3278 722 2862 322 
Q 2447 -78 1769 -78 
Q 1091 -78 675 323 
Q 259 725 259 1325 
Q 259 1772 486 2073 
Q 713 2375 1131 2484 
z
M 1019 3438 
Q 1019 3113 1228 2906 
Q 1438 2700 1772 2700 
Q 2097 2700 2305 2904 
Q 2513 3109 2513 3406 
Q 2513 3716 2298 3927 
Q 2084 4138 1766 4138 
Q 1444 4138 1231 3931 
Q 1019 3725 1019 3438 
z
M 838 1322 
Q 838 1081 952 856 
Q 1066 631 1291 507 
Q 1516 384 1775 384 
Q 2178 384 2440 643 
Q 2703 903 2703 1303 
Q 2703 1709 2433 1975 
Q 2163 2241 1756 2241 
Q 1359 2241 1098 1978 
Q 838 1716 838 1322 
z
" transform="scale(0.015625)"/>
       </defs>
       <use xlink:href="#ArialMT-30"/>
       <use xlink:href="#ArialMT-2e" x="55.615234"/>
       <use xlink:href="#ArialMT-38" x="83.398438"/>
      </g>
     </g>
    </g>
    <g id="xtick_6">
     <g id="line2d_6">
      <g>
       <use xlink:href="#m0777dbe9d8" x="373.759023" y="273.312" style="fill: #262626; stroke: #262626"/>
      </g>
     </g>
     <g id="text_6">
      <!-- 1.0 -->
      <g style="fill: #262626" transform="translate(367.643023 287.910875) scale(0.088 -0.088)">
       <defs>
        <path id="ArialMT-31" d="M 2384 0 
L 1822 0 
L 1822 3584 
Q 1619 3391 1289 3197 
Q 959 3003 697 2906 
L 697 3450 
Q 1169 3672 1522 3987 
Q 1875 4303 2022 4600 
L 2384 4600 
L 2384 0 
z
" transform="scale(0.015625)"/>
       </defs>
       <use xlink:href="#ArialMT-31"/>
       <use xlink:href="#ArialMT-2e" x="55.615234"/>
       <use xlink:href="#ArialMT-30" x="83.398438"/>
      </g>
     </g>
    </g>
   </g>
   <g id="matplotlib.axis_2">
    <g id="ytick_1">
     <g id="line2d_7">
      <defs>
       <path id="m583bbf8fcc" d="M 0 0 
L -4.8 0 
" style="stroke: #262626"/>
      </defs>
      <g>
       <use xlink:href="#m583bbf8fcc" x="32.87175" y="257.607853" style="fill: #262626; stroke: #262626"/>
      </g>
     </g>
     <g id="text_7">
      <!-- −1.5 -->
      <g style="fill: #262626" transform="translate(7.2 260.757291) scale(0.088 -0.088)">
       <defs>
        <path id="ArialMT-2212" d="M 3381 1997 
L 356 1997 
L 356 2522 
L 3381 2522 
L 3381 1997 
z
" transform="scale(0.015625)"/>
        <path id="ArialMT-35" d="M 266 1200 
L 856 1250 
Q 922 819 1161 601 
Q 1400 384 1738 384 
Q 2144 384 2425 690 
Q 2706 997 2706 1503 
Q 2706 1984 2436 2262 
Q 2166 2541 1728 2541 
Q 1456 2541 1237 2417 
Q 1019 2294 894 2097 
L 366 2166 
L 809 4519 
L 3088 4519 
L 3088 3981 
L 1259 3981 
L 1013 2750 
Q 1425 3038 1878 3038 
Q 2478 3038 2890 2622 
Q 3303 2206 3303 1553 
Q 3303 931 2941 478 
Q 2500 -78 1738 -78 
Q 1113 -78 717 272 
Q 322 622 266 1200 
z
" transform="scale(0.015625)"/>
       </defs>
       <use xlink:href="#ArialMT-2212"/>
       <use xlink:href="#ArialMT-31" x="58.398438"/>
       <use xlink:href="#ArialMT-2e" x="114.013672"/>
       <use xlink:href="#ArialMT-35" x="141.796875"/>
      </g>
     </g>
    </g>
    <g id="ytick_2">
     <g id="line2d_8">
      <g>
       <use xlink:href="#m583bbf8fcc" x="32.87175" y="208.607406" style="fill: #262626; stroke: #262626"/>
      </g>
     </g>
     <g id="text_8">
      <!-- −1.0 -->
      <g style="fill: #262626" transform="translate(7.2 211.756843) scale(0.088 -0.088)">
       <use xlink:href="#ArialMT-2212"/>
       <use xlink:href="#ArialMT-31" x="58.398438"/>
       <use xlink:href="#ArialMT-2e" x="114.013672"/>
       <use xlink:href="#ArialMT-30" x="141.796875"/>
      </g>
     </g>
    </g>
    <g id="ytick_3">
     <g id="line2d_9">
      <g>
       <use xlink:href="#m583bbf8fcc" x="32.87175" y="159.606959" style="fill: #262626; stroke: #262626"/>
      </g>
     </g>
     <g id="text_9">
      <!-- −0.5 -->
      <g style="fill: #262626" transform="translate(7.2 162.756396) scale(0.088 -0.088)">
       <use xlink:href="#ArialMT-2212"/>
       <use xlink:href="#ArialMT-30" x="58.398438"/>
       <use xlink:href="#ArialMT-2e" x="114.013672"/>
       <use xlink:href="#ArialMT-35" x="141.796875"/>
      </g>
     </g>
    </g>
    <g id="ytick_4">
     <g id="line2d_10">
      <g>
       <use xlink:href="#m583bbf8fcc" x="32.87175" y="110.606511" style="fill: #262626; stroke: #262626"/>
      </g>
     </g>
     <g id="text_10">
      <!-- 0.0 -->
      <g style="fill: #262626" transform="translate(12.33975 113.755949) scale(0.088 -0.088)">
       <use xlink:href="#ArialMT-30"/>
       <use xlink:href="#ArialMT-2e" x="55.615234"/>
       <use xlink:href="#ArialMT-30" x="83.398438"/>
      </g>
     </g>
    </g>
    <g id="ytick_5">
     <g id="line2d_11">
      <g>
       <use xlink:href="#m583bbf8fcc" x="32.87175" y="61.606064" style="fill: #262626; stroke: #262626"/>
      </g>
     </g>
     <g id="text_11">
      <!-- 0.5 -->
      <g style="fill: #262626" transform="translate(12.33975 64.755501) scale(0.088 -0.088)">
       <use xlink:href="#ArialMT-30"/>
       <use xlink:href="#ArialMT-2e" x="55.615234"/>
       <use xlink:href="#ArialMT-35" x="83.398438"/>
      </g>
     </g>
    </g>
    <g id="ytick_6">
     <g id="line2d_12">
      <g>
       <use xlink:href="#m583bbf8fcc" x="32.87175" y="12.605616" style="fill: #262626; stroke: #262626"/>
      </g>
     </g>
     <g id="text_12">
      <!-- 1.0 -->
      <g style="fill: #262626" transform="translate(12.33975 15.755054) scale(0.088 -0.088)">
       <use xlink:href="#ArialMT-31"/>
       <use xlink:href="#ArialMT-2e" x="55.615234"/>
       <use xlink:href="#ArialMT-30" x="83.398438"/>
      </g>
     </g>
    </g>
   </g>
   <g id="line2d_13">
    <defs>
     <path id="macf29a299f" d="M -2.4 2.4 
L 2.4 -2.4 
M -2.4 -2.4 
L 2.4 2.4 
" style="stroke: #000000; stroke-width: 2"/>
    </defs>
    <g clip-path="url(#p9103be3042)">
     <use xlink:href="#macf29a299f" x="350.908567" y="79.622547" style="stroke: #000000; stroke-width: 2"/>
     <use xlink:href="#macf29a299f" x="151.817239" y="245.76915" style="stroke: #000000; stroke-width: 2"/>
     <use xlink:href="#macf29a299f" x="108.814555" y="66.451775" style="stroke: #000000; stroke-width: 2"/>
    </g>
   </g>
   <g id="line2d_14">
    <path d="M 49.104477 163.919242 
L 52.383816 160.858594 
L 55.663155 156.372473 
L 58.942494 150.455658 
L 62.221833 143.165409 
L 65.501171 134.627623 
L 68.78051 125.04005 
L 72.059849 114.671925 
L 75.339188 103.859559 
L 78.618527 92.9976 
L 81.897866 82.525973 
L 85.177205 72.912752 
L 88.456543 64.633568 
L 91.735882 58.148434 
L 95.015221 53.877136 
L 98.29456 52.174575 
L 101.573899 53.307552 
L 104.853238 57.434556 
L 108.132576 64.590014 
L 111.411915 74.674295 
L 114.691254 87.45046 
L 117.970593 102.548362 
L 121.249932 119.47624 
L 124.529271 137.639478 
L 127.80861 156.365695 
L 131.087948 174.934884 
L 134.367287 192.612958 
L 137.646626 208.686786 
L 140.925965 222.498678 
L 144.205304 233.478288 
L 147.484643 241.170062 
L 150.763981 245.254662 
L 154.04332 245.563172 
L 157.322659 242.083411 
L 160.601998 234.95816 
L 163.881337 224.475635 
L 167.160676 211.053031 
L 170.440014 195.214331 
L 173.719353 177.563866 
L 176.998692 158.757311 
L 180.278031 139.471808 
L 183.55737 120.376861 
L 186.836709 102.10745 
L 190.116048 85.240567 
L 193.395386 70.276054 
L 196.674725 57.622274 
L 199.954064 47.586848 
L 203.233403 40.372353 
L 206.512742 36.076628 
L 209.792081 34.697158 
L 213.071419 36.138844 
L 216.350758 40.22441 
L 219.630097 46.706707 
L 222.909436 55.282154 
L 226.188775 65.604693 
L 229.468114 77.299664 
L 232.747452 89.977158 
L 236.026791 103.244466 
L 239.30613 116.71738 
L 242.585469 130.030147 
L 245.864808 142.843979 
L 249.144147 154.854056 
L 252.423486 165.79503 
L 255.702824 175.445036 
L 258.982163 183.628273 
L 262.261502 190.216229 
L 265.540841 195.127629 
L 268.82018 198.327215 
L 272.099519 199.82348 
L 275.378857 199.665473 
L 278.658196 197.938834 
L 281.937535 194.7612 
L 285.216874 190.27714 
L 288.496213 184.652784 
L 291.775552 178.070296 
L 295.05489 170.722358 
L 298.334229 162.806778 
L 301.613568 154.521376 
L 304.892907 146.059235 
L 308.172246 137.604405 
L 311.451585 129.328135 
L 314.730924 121.38567 
L 318.010262 113.913645 
L 321.289601 107.028092 
L 324.56894 100.823054 
L 327.848279 95.369804 
L 331.127618 90.716653 
L 334.406957 86.889322 
L 337.686295 83.891841 
L 340.965634 81.707957 
L 344.244973 80.30299 
L 347.524312 79.626092 
L 350.803651 79.612833 
L 354.08299 80.188043 
L 357.362329 81.268827 
L 360.641667 82.767626 
L 363.921006 84.595257 
L 367.200345 86.663788 
L 370.479684 88.889169 
L 373.759023 91.19352 
" clip-path="url(#p9103be3042)" style="fill: none; stroke: #1f77b4; stroke-width: 1.2; stroke-linecap: round"/>
   </g>
   <g id="line2d_15">
    <path d="M 49.104477 63.839256 
L 52.383816 58.695163 
L 55.663155 53.389244 
L 58.942494 48.006863 
L 62.221833 42.654798 
L 65.501171 37.461996 
L 68.78051 32.579287 
L 72.059849 28.177787 
L 75.339188 24.445802 
L 78.618527 21.58406 
L 81.897866 19.799258 
L 85.177205 19.296 
L 88.456543 20.267352 
L 91.735882 22.884388 
L 95.015221 27.285249 
L 98.29456 33.564341 
L 101.573899 41.762399 
L 104.853238 51.858172 
L 108.132576 63.762465 
L 111.411915 77.3152 
L 114.691254 92.285997 
L 117.970593 108.378609 
L 121.249932 125.239261 
L 124.529271 142.468719 
L 127.80861 159.637597 
L 131.087948 176.304195 
L 134.367287 192.033909 
L 137.646626 206.419119 
L 140.925965 219.098375 
L 144.205304 229.7737 
L 147.484643 238.224931 
L 150.763981 244.320188 
L 154.04332 248.021815 
L 157.322659 249.387414 
L 160.601998 248.565942 
L 163.881337 245.789127 
L 167.160676 241.35879 
L 170.440014 235.630887 
L 173.719353 228.997256 
L 176.998692 221.866186 
L 180.278031 214.642924 
L 183.55737 207.71118 
L 186.836709 201.416565 
L 190.116048 196.052735 
L 193.395386 191.850755 
L 196.674725 188.972024 
L 199.954064 187.504814 
L 203.233403 187.464318 
L 206.512742 188.795897 
L 209.792081 191.381088 
L 213.071419 195.045853 
L 216.350758 199.570495 
L 219.630097 204.70066 
L 222.909436 210.15888 
L 226.188775 215.656152 
L 229.468114 220.903131 
L 232.747452 225.620567 
L 236.026791 229.548725 
L 239.30613 232.455577 
L 242.585469 234.143617 
L 245.864808 234.455243 
L 249.144147 233.276643 
L 252.423486 230.540217 
L 255.702824 226.225539 
L 258.982163 220.358956 
L 262.261502 213.011864 
L 265.540841 204.297796 
L 268.82018 194.368416 
L 272.099519 183.408558 
L 275.378857 171.630455 
L 278.658196 159.267327 
L 281.937535 146.566493 
L 285.216874 133.782207 
L 288.496213 121.168401 
L 291.775552 108.971547 
L 295.05489 97.423832 
L 298.334229 86.736857 
L 301.613568 77.096023 
L 304.892907 68.655807 
L 308.172246 61.536038 
L 311.451585 55.819327 
L 314.730924 51.549705 
L 318.010262 48.732522 
L 321.289601 47.335601 
L 324.56894 47.291602 
L 327.848279 48.501492 
L 331.127618 50.838975 
L 334.406957 54.155719 
L 337.686295 58.287141 
L 340.965634 63.058533 
L 344.244973 68.291252 
L 347.524312 73.808752 
L 350.803651 79.442189 
L 354.08299 85.035401 
L 357.362329 90.449071 
L 360.641667 95.563954 
L 363.921006 100.283067 
L 367.200345 104.532823 
L 370.479684 108.263141 
L 373.759023 111.446589 
" clip-path="url(#p9103be3042)" style="fill: none; stroke: #1f77b4; stroke-width: 1.2; stroke-linecap: round"/>
   </g>
   <g id="line2d_16">
    <path d="M 49.104477 188.142434 
L 52.383816 186.932114 
L 55.663155 184.172813 
L 58.942494 179.805047 
L 62.221833 173.828453 
L 65.501171 166.309273 
L 68.78051 157.385229 
L 72.059849 147.267176 
L 75.339188 136.237036 
L 78.618527 124.641728 
L 81.897866 112.883011 
L 85.177205 101.403442 
L 88.456543 90.668907 
L 91.735882 81.148446 
L 95.015221 73.29237 
L 98.29456 67.509801 
L 101.573899 64.146949 
L 104.853238 63.467439 
L 108.132576 65.635969 
L 111.411915 70.706412 
L 114.691254 78.615274 
L 117.970593 89.181058 
L 121.249932 102.109775 
L 124.529271 117.006385 
L 127.80861 133.39164 
L 131.087948 150.723351 
L 134.367287 168.420904 
L 137.646626 185.891557 
L 140.925965 202.556998 
L 144.205304 217.878635 
L 147.484643 231.380189 
L 150.763981 242.666401 
L 154.04332 251.436942 
L 157.322659 257.494955 
L 160.601998 260.750061 
L 163.881337 261.216 
L 167.160676 259.00342 
L 170.440014 254.308602 
L 173.719353 247.399108 
L 176.998692 238.59744 
L 180.278031 228.263826 
L 183.55737 216.779179 
L 186.836709 204.529143 
L 190.116048 191.889962 
L 193.395386 179.216683 
L 196.674725 166.83397 
L 199.954064 155.029623 
L 203.233403 144.050642 
L 206.512742 134.101609 
L 209.792081 125.344964 
L 213.071419 117.902768 
L 216.350758 111.859481 
L 219.630097 107.265337 
L 222.909436 104.139931 
L 226.188775 102.475722 
L 229.468114 102.241246 
L 232.747452 103.383877 
L 236.026791 105.832128 
L 239.30613 109.49746 
L 242.585469 114.275705 
L 245.864808 120.048184 
L 249.144147 126.68265 
L 252.423486 134.034199 
L 255.702824 141.946261 
L 258.982163 150.251795 
L 262.261502 158.774798 
L 265.540841 167.332169 
L 268.82018 175.736024 
L 272.099519 183.796442 
L 275.378857 191.324675 
L 278.658196 198.136775 
L 281.937535 204.057577 
L 285.216874 208.924976 
L 288.496213 212.594354 
L 291.775552 214.943037 
L 295.05489 215.874597 
L 298.334229 215.322814 
L 301.613568 213.255097 
L 304.892907 209.67512 
L 308.172246 204.624504 
L 311.451585 198.183324 
L 314.730924 190.469294 
L 318.010262 181.635549 
L 321.289601 171.866966 
L 324.56894 161.375085 
L 327.848279 150.391767 
L 331.127618 139.1618 
L 334.406957 127.934752 
L 337.686295 116.95645 
L 340.965634 106.460478 
L 344.244973 96.660136 
L 347.524312 87.741271 
L 350.803651 79.856353 
L 354.08299 73.120111 
L 357.362329 67.606932 
L 360.641667 63.350124 
L 363.921006 60.343039 
L 367.200345 58.54192 
L 370.479684 57.870239 
L 373.759023 58.224214 
" clip-path="url(#p9103be3042)" style="fill: none; stroke: #1f77b4; stroke-width: 1.2; stroke-linecap: round"/>
   </g>
   <g id="patch_3">
    <path d="M 32.87175 273.312 
L 32.87175 7.2 
" style="fill: none; stroke: #262626; stroke-linejoin: miter; stroke-linecap: square"/>
   </g>
   <g id="patch_4">
    <path d="M 389.99175 273.312 
L 389.99175 7.2 
" style="fill: none; stroke: #262626; stroke-linejoin: miter; stroke-linecap: square"/>
   </g>
   <g id="patch_5">
    <path d="M 32.87175 273.312 
L 389.99175 273.312 
" style="fill: none; stroke: #262626; stroke-linejoin: miter; stroke-linecap: square"/>
   </g>
   <g id="patch_6">
    <path d="M 32.87175 7.2 
L 389.99175 7.2 
" style="fill: none; stroke: #262626; stroke-linejoin: miter; stroke-linecap: square"/>
   </g>
  </g>
 </g>
 <defs>
  <clipPath id="p9103be3042">
   <rect x="32.87175" y="7.2" width="357.12" height="266.112"/>
  </clipPath>
 </defs>
</svg>