<?xml version="1.0" encoding="utf-8" standalone="no"?>
<!DOCTYPE svg PUBLIC "-//W3C//DTD SVG 1.1//EN"
  "http://www.w3.org/Graphics/SVG/1.1/DTD/svg11.dtd">
<svg xmlns:xlink="http://www.w3.org/1999/xlink" width="404.8315pt" height="325.830937pt" viewBox="0 0 404.8315 325.830937" xmlns="http://www.w3.org/2000/svg" version="1.1">
 <metadata>
  <rdf:RDF xmlns:dc="http://purl.org/dc/elements/1.1/" xmlns:cc="http://creativecommons.org/ns#" xmlns:rdf="http://www.w3.org/1999/02/22-rdf-syntax-ns#">
   <cc:Work>
    <dc:type rdf:resource="http://purl.org/dc/dcmitype/StillImage"/>
    <dc:date>2025-03-14T11:30:35.391260</dc:date>
    <dc:format>image/svg+xml</dc:format>
    <dc:creator>
     <cc:Agent>
      <dc:title>Matplotlib v3.9.2, https://matplotlib.org/</dc:title>
     </cc:Agent>
    </dc:creator>
   </cc:Work>
  </rdf:RDF>
 </metadata>
 <defs>
  <style type="text/css">*{stroke-linejoin: round; stroke-linecap: butt}</style>
 </defs>
 <g id="figure_1">
  <g id="patch_1">
   <path d="M 0 325.830937 
L 404.8315 325.830937 
L 404.8315 0 
L 0 0 
z
" style="fill: #ffffff"/>
  </g>
  <g id="axes_1">
   <g id="patch_2">
    <path d="M 40.5115 289.503562 
L 397.6315 289.503562 
L 397.6315 23.391562 
L 40.5115 23.391562 
z
" style="fill: #ffffff"/>
   </g>
   <g id="matplotlib.axis_1">
    <g id="xtick_1">
     <g id="line2d_1">
      <defs>
       <path id="m994e73cd53" d="M 0 0 
L 0 4.8 
" style="stroke: #262626"/>
      </defs>
      <g>
       <use xlink:href="#m994e73cd53" x="56.744227" y="289.503562" style="fill: #262626; stroke: #262626"/>
      </g>
     </g>
     <g id="text_1">
      <!-- 0.0 -->
      <g style="fill: #262626" transform="translate(50.628227 304.102437) scale(0.088 -0.088)">
       <defs>
        <path id="ArialMT-30" d="M 266 2259 
Q 266 3072 433 3567 
Q 600 4063 929 4331 
Q 1259 4600 1759 4600 
Q 2128 4600 2406 4451 
Q 2684 4303 2865 4023 
Q 3047 3744 3150 3342 
Q 3253 2941 3253 2259 
Q 3253 1453 3087 958 
Q 2922 463 2592 192 
Q 2263 -78 1759 -78 
Q 1097 -78 719 397 
Q 266 969 266 2259 
z
M 844 2259 
Q 844 1131 1108 757 
Q 1372 384 1759 384 
Q 2147 384 2411 759 
Q 2675 1134 2675 2259 
Q 2675 3391 2411 3762 
Q 2147 4134 1753 4134 
Q 1366 4134 1134 3806 
Q 844 3388 844 2259 
z
" transform="scale(0.015625)"/>
        <path id="ArialMT-2e" d="M 581 0 
L 581 641 
L 1222 641 
L 1222 0 
L 581 0 
z
" transform="scale(0.015625)"/>
       </defs>
       <use xlink:href="#ArialMT-30"/>
       <use xlink:href="#ArialMT-2e" x="55.615234"/>
       <use xlink:href="#ArialMT-30" x="83.398438"/>
      </g>
     </g>
    </g>
    <g id="xtick_2">
     <g id="line2d_2">
      <g>
       <use xlink:href="#m994e73cd53" x="121.675136" y="289.503562" style="fill: #262626; stroke: #262626"/>
      </g>
     </g>
     <g id="text_2">
      <!-- 0.2 -->
      <g style="fill: #262626" transform="translate(115.559136 304.102437) scale(0.088 -0.088)">
       <defs>
        <path id="ArialMT-32" d="M 3222 541 
L 3222 0 
L 194 0 
Q 188 203 259 391 
Q 375 700 629 1000 
Q 884 1300 1366 1694 
Q 2113 2306 2375 2664 
Q 2638 3022 2638 3341 
Q 2638 3675 2398 3904 
Q 2159 4134 1775 4134 
Q 1369 4134 1125 3890 
Q 881 3647 878 3216 
L 300 3275 
Q 359 3922 746 4261 
Q 1134 4600 1788 4600 
Q 2447 4600 2831 4234 
Q 3216 3869 3216 3328 
Q 3216 3053 3103 2787 
Q 2991 2522 2730 2228 
Q 2469 1934 1863 1422 
Q 1356 997 1212 845 
Q 1069 694 975 541 
L 3222 541 
z
" transform="scale(0.015625)"/>
       </defs>
       <use xlink:href="#ArialMT-30"/>
       <use xlink:href="#ArialMT-2e" x="55.615234"/>
       <use xlink:href="#ArialMT-32" x="83.398438"/>
      </g>
     </g>
    </g>
    <g id="xtick_3">
     <g id="line2d_3">
      <g>
       <use xlink:href="#m994e73cd53" x="186.606045" y="289.503562" style="fill: #262626; stroke: #262626"/>
      </g>
     </g>
     <g id="text_3">
      <!-- 0.4 -->
      <g style="fill: #262626" transform="translate(180.490045 304.102437) scale(0.088 -0.088)">
       <defs>
        <path id="ArialMT-34" d="M 2069 0 
L 2069 1097 
L 81 1097 
L 81 1613 
L 2172 4581 
L 2631 4581 
L 2631 1613 
L 3250 1613 
L 3250 1097 
L 2631 1097 
L 2631 0 
L 2069 0 
z
M 2069 1613 
L 2069 3678 
L 634 1613 
L 2069 1613 
z
" transform="scale(0.015625)"/>
       </defs>
       <use xlink:href="#ArialMT-30"/>
       <use xlink:href="#ArialMT-2e" x="55.615234"/>
       <use xlink:href="#ArialMT-34" x="83.398438"/>
      </g>
     </g>
    </g>
    <g id="xtick_4">
     <g id="line2d_4">
      <g>
       <use xlink:href="#m994e73cd53" x="251.536955" y="289.503562" style="fill: #262626; stroke: #262626"/>
      </g>
     </g>
     <g id="text_4">
      <!-- 0.6 -->
      <g style="fill: #262626" transform="translate(245.420955 304.102437) scale(0.088 -0.088)">
       <defs>
        <path id="ArialMT-36" d="M 3184 3459 
L 2625 3416 
Q 2550 3747 2413 3897 
Q 2184 4138 1850 4138 
Q 1581 4138 1378 3988 
Q 1113 3794 959 3422 
Q 806 3050 800 2363 
Q 1003 2672 1297 2822 
Q 1591 2972 1913 2972 
Q 2475 2972 2870 2558 
Q 3266 2144 3266 1488 
Q 3266 1056 3080 686 
Q 2894 316 2569 119 
Q 2244 -78 1831 -78 
Q 1128 -78 684 439 
Q 241 956 241 2144 
Q 241 3472 731 4075 
Q 1159 4600 1884 4600 
Q 2425 4600 2770 4297 
Q 3116 3994 3184 3459 
z
M 888 1484 
Q 888 1194 1011 928 
Q 1134 663 1356 523 
Q 1578 384 1822 384 
Q 2178 384 2434 671 
Q 2691 959 2691 1453 
Q 2691 1928 2437 2201 
Q 2184 2475 1800 2475 
Q 1419 2475 1153 2201 
Q 888 1928 888 1484 
z
" transform="scale(0.015625)"/>
       </defs>
       <use xlink:href="#ArialMT-30"/>
       <use xlink:href="#ArialMT-2e" x="55.615234"/>
       <use xlink:href="#ArialMT-36" x="83.398438"/>
      </g>
     </g>
    </g>
    <g id="xtick_5">
     <g id="line2d_5">
      <g>
       <use xlink:href="#m994e73cd53" x="316.467864" y="289.503562" style="fill: #262626; stroke: #262626"/>
      </g>
     </g>
     <g id="text_5">
      <!-- 0.8 -->
      <g style="fill: #262626" transform="translate(310.351864 304.102437) scale(0.088 -0.088)">
       <defs>
        <path id="ArialMT-38" d="M 1131 2484 
Q 781 2613 612 2850 
Q 444 3088 444 3419 
Q 444 3919 803 4259 
Q 1163 4600 1759 4600 
Q 2359 4600 2725 4251 
Q 3091 3903 3091 3403 
Q 3091 3084 2923 2848 
Q 2756 2613 2416 2484 
Q 2838 2347 3058 2040 
Q 3278 1734 3278 1309 
Q 3278 722 2862 322 
Q 2447 -78 1769 -78 
Q 1091 -78 675 323 
Q 259 725 259 1325 
Q 259 1772 486 2073 
Q 713 2375 1131 2484 
z
M 1019 3438 
Q 1019 3113 1228 2906 
Q 1438 2700 1772 2700 
Q 2097 2700 2305 2904 
Q 2513 3109 2513 3406 
Q 2513 3716 2298 3927 
Q 2084 4138 1766 4138 
Q 1444 4138 1231 3931 
Q 1019 3725 1019 3438 
z
M 838 1322 
Q 838 1081 952 856 
Q 1066 631 1291 507 
Q 1516 384 1775 384 
Q 2178 384 2440 643 
Q 2703 903 2703 1303 
Q 2703 1709 2433 1975 
Q 2163 2241 1756 2241 
Q 1359 2241 1098 1978 
Q 838 1716 838 1322 
z
" transform="scale(0.015625)"/>
       </defs>
       <use xlink:href="#ArialMT-30"/>
       <use xlink:href="#ArialMT-2e" x="55.615234"/>
       <use xlink:href="#ArialMT-38" x="83.398438"/>
      </g>
     </g>
    </g>
    <g id="xtick_6">
     <g id="line2d_6">
      <g>
       <use xlink:href="#m994e73cd53" x="381.398773" y="289.503562" style="fill: #262626; stroke: #262626"/>
      </g>
     </g>
     <g id="text_6">
      <!-- 1.0 -->
      <g style="fill: #262626" transform="translate(375.282773 304.102437) scale(0.088 -0.088)">
       <defs>
        <path id="ArialMT-31" d="M 2384 0 
L 1822 0 
L 1822 3584 
Q 1619 3391 1289 3197 
Q 959 3003 697 2906 
L 697 3450 
Q 1169 3672 1522 3987 
Q 1875 4303 2022 4600 
L 2384 4600 
L 2384 0 
z
" transform="scale(0.015625)"/>
       </defs>
       <use xlink:href="#ArialMT-31"/>
       <use xlink:href="#ArialMT-2e" x="55.615234"/>
       <use xlink:href="#ArialMT-30" x="83.398438"/>
      </g>
     </g>
    </g>
    <g id="text_7">
     <!-- $x$ -->
     <g style="fill: #262626" transform="translate(216.1915 316.722937) scale(0.096 -0.096)">
      <defs>
       <path id="DejaVuSans-Oblique-78" d="M 3841 3500 
L 2234 1784 
L 3219 0 
L 2559 0 
L 1819 1388 
L 531 0 
L -166 0 
L 1556 1844 
L 641 3500 
L 1300 3500 
L 1972 2234 
L 3144 3500 
L 3841 3500 
z
" transform="scale(0.015625)"/>
      </defs>
      <use xlink:href="#DejaVuSans-Oblique-78" transform="translate(0 0.3125)"/>
     </g>
    </g>
   </g>
   <g id="matplotlib.axis_2">
    <g id="ytick_1">
     <g id="line2d_7">
      <defs>
       <path id="m7be79986be" d="M 0 0 
L -4.8 0 
" style="stroke: #262626"/>
      </defs>
      <g>
       <use xlink:href="#m7be79986be" x="40.5115" y="289.503562" style="fill: #262626; stroke: #262626"/>
      </g>
     </g>
     <g id="text_8">
      <!-- 0.0 -->
      <g style="fill: #262626" transform="translate(19.9795 292.653) scale(0.088 -0.088)">
       <use xlink:href="#ArialMT-30"/>
       <use xlink:href="#ArialMT-2e" x="55.615234"/>
       <use xlink:href="#ArialMT-30" x="83.398438"/>
      </g>
     </g>
    </g>
    <g id="ytick_2">
     <g id="line2d_8">
      <g>
       <use xlink:href="#m7be79986be" x="40.5115" y="256.712829" style="fill: #262626; stroke: #262626"/>
      </g>
     </g>
     <g id="text_9">
      <!-- 0.5 -->
      <g style="fill: #262626" transform="translate(19.9795 259.862267) scale(0.088 -0.088)">
       <defs>
        <path id="ArialMT-35" d="M 266 1200 
L 856 1250 
Q 922 819 1161 601 
Q 1400 384 1738 384 
Q 2144 384 2425 690 
Q 2706 997 2706 1503 
Q 2706 1984 2436 2262 
Q 2166 2541 1728 2541 
Q 1456 2541 1237 2417 
Q 1019 2294 894 2097 
L 366 2166 
L 809 4519 
L 3088 4519 
L 3088 3981 
L 1259 3981 
L 1013 2750 
Q 1425 3038 1878 3038 
Q 2478 3038 2890 2622 
Q 3303 2206 3303 1553 
Q 3303 931 2941 478 
Q 2500 -78 1738 -78 
Q 1113 -78 717 272 
Q 322 622 266 1200 
z
" transform="scale(0.015625)"/>
       </defs>
       <use xlink:href="#ArialMT-30"/>
       <use xlink:href="#ArialMT-2e" x="55.615234"/>
       <use xlink:href="#ArialMT-35" x="83.398438"/>
      </g>
     </g>
    </g>
    <g id="ytick_3">
     <g id="line2d_9">
      <g>
       <use xlink:href="#m7be79986be" x="40.5115" y="223.922096" style="fill: #262626; stroke: #262626"/>
      </g>
     </g>
     <g id="text_10">
      <!-- 1.0 -->
      <g style="fill: #262626" transform="translate(19.9795 227.071533) scale(0.088 -0.088)">
       <use xlink:href="#ArialMT-31"/>
       <use xlink:href="#ArialMT-2e" x="55.615234"/>
       <use xlink:href="#ArialMT-30" x="83.398438"/>
      </g>
     </g>
    </g>
    <g id="ytick_4">
     <g id="line2d_10">
      <g>
       <use xlink:href="#m7be79986be" x="40.5115" y="191.131362" style="fill: #262626; stroke: #262626"/>
      </g>
     </g>
     <g id="text_11">
      <!-- 1.5 -->
      <g style="fill: #262626" transform="translate(19.9795 194.2808) scale(0.088 -0.088)">
       <use xlink:href="#ArialMT-31"/>
       <use xlink:href="#ArialMT-2e" x="55.615234"/>
       <use xlink:href="#ArialMT-35" x="83.398438"/>
      </g>
     </g>
    </g>
    <g id="ytick_5">
     <g id="line2d_11">
      <g>
       <use xlink:href="#m7be79986be" x="40.5115" y="158.340629" style="fill: #262626; stroke: #262626"/>
      </g>
     </g>
     <g id="text_12">
      <!-- 2.0 -->
      <g style="fill: #262626" transform="translate(19.9795 161.490066) scale(0.088 -0.088)">
       <use xlink:href="#ArialMT-32"/>
       <use xlink:href="#ArialMT-2e" x="55.615234"/>
       <use xlink:href="#ArialMT-30" x="83.398438"/>
      </g>
     </g>
    </g>
    <g id="ytick_6">
     <g id="line2d_12">
      <g>
       <use xlink:href="#m7be79986be" x="40.5115" y="125.549895" style="fill: #262626; stroke: #262626"/>
      </g>
     </g>
     <g id="text_13">
      <!-- 2.5 -->
      <g style="fill: #262626" transform="translate(19.9795 128.699333) scale(0.088 -0.088)">
       <use xlink:href="#ArialMT-32"/>
       <use xlink:href="#ArialMT-2e" x="55.615234"/>
       <use xlink:href="#ArialMT-35" x="83.398438"/>
      </g>
     </g>
    </g>
    <g id="ytick_7">
     <g id="line2d_13">
      <g>
       <use xlink:href="#m7be79986be" x="40.5115" y="92.759162" style="fill: #262626; stroke: #262626"/>
      </g>
     </g>
     <g id="text_14">
      <!-- 3.0 -->
      <g style="fill: #262626" transform="translate(19.9795 95.908599) scale(0.088 -0.088)">
       <defs>
        <path id="ArialMT-33" d="M 269 1209 
L 831 1284 
Q 928 806 1161 595 
Q 1394 384 1728 384 
Q 2125 384 2398 659 
Q 2672 934 2672 1341 
Q 2672 1728 2419 1979 
Q 2166 2231 1775 2231 
Q 1616 2231 1378 2169 
L 1441 2663 
Q 1497 2656 1531 2656 
Q 1891 2656 2178 2843 
Q 2466 3031 2466 3422 
Q 2466 3731 2256 3934 
Q 2047 4138 1716 4138 
Q 1388 4138 1169 3931 
Q 950 3725 888 3313 
L 325 3413 
Q 428 3978 793 4289 
Q 1159 4600 1703 4600 
Q 2078 4600 2393 4439 
Q 2709 4278 2876 4000 
Q 3044 3722 3044 3409 
Q 3044 3113 2884 2869 
Q 2725 2625 2413 2481 
Q 2819 2388 3044 2092 
Q 3269 1797 3269 1353 
Q 3269 753 2831 336 
Q 2394 -81 1725 -81 
Q 1122 -81 723 278 
Q 325 638 269 1209 
z
" transform="scale(0.015625)"/>
       </defs>
       <use xlink:href="#ArialMT-33"/>
       <use xlink:href="#ArialMT-2e" x="55.615234"/>
       <use xlink:href="#ArialMT-30" x="83.398438"/>
      </g>
     </g>
    </g>
    <g id="ytick_8">
     <g id="line2d_14">
      <g>
       <use xlink:href="#m7be79986be" x="40.5115" y="59.968428" style="fill: #262626; stroke: #262626"/>
      </g>
     </g>
     <g id="text_15">
      <!-- 3.5 -->
      <g style="fill: #262626" transform="translate(19.9795 63.117866) scale(0.088 -0.088)">
       <use xlink:href="#ArialMT-33"/>
       <use xlink:href="#ArialMT-2e" x="55.615234"/>
       <use xlink:href="#ArialMT-35" x="83.398438"/>
      </g>
     </g>
    </g>
    <g id="ytick_9">
     <g id="line2d_15">
      <g>
       <use xlink:href="#m7be79986be" x="40.5115" y="27.177695" style="fill: #262626; stroke: #262626"/>
      </g>
     </g>
     <g id="text_16">
      <!-- 4.0 -->
      <g style="fill: #262626" transform="translate(19.9795 30.327132) scale(0.088 -0.088)">
       <use xlink:href="#ArialMT-34"/>
       <use xlink:href="#ArialMT-2e" x="55.615234"/>
       <use xlink:href="#ArialMT-30" x="83.398438"/>
      </g>
     </g>
    </g>
    <g id="text_17">
     <!-- $c$ -->
     <g style="fill: #262626" transform="translate(14.0715 159.087562) rotate(-90) scale(0.096 -0.096)">
      <defs>
       <path id="DejaVuSans-Oblique-63" d="M 3431 3366 
L 3316 2797 
Q 3109 2947 2876 3022 
Q 2644 3097 2394 3097 
Q 2119 3097 1870 3000 
Q 1622 2903 1453 2725 
Q 1184 2453 1037 2087 
Q 891 1722 891 1331 
Q 891 859 1127 628 
Q 1363 397 1844 397 
Q 2081 397 2348 469 
Q 2616 541 2906 684 
L 2797 116 
Q 2547 13 2283 -39 
Q 2019 -91 1741 -91 
Q 1044 -91 669 257 
Q 294 606 294 1253 
Q 294 1797 489 2255 
Q 684 2713 1069 3078 
Q 1331 3328 1684 3456 
Q 2038 3584 2456 3584 
Q 2700 3584 2940 3529 
Q 3181 3475 3431 3366 
z
" transform="scale(0.015625)"/>
      </defs>
      <use xlink:href="#DejaVuSans-Oblique-63"/>
     </g>
    </g>
   </g>
   <g id="line2d_16">
    <path d="M 56.744227 216.05677 
L 60.001631 216.569122 
L 63.259034 217.261786 
L 67.602239 218.443574 
L 71.945443 219.872075 
L 78.46025 222.31266 
L 88.232461 226.02308 
L 92.575665 227.445299 
L 96.91887 228.607086 
L 100.176273 229.266163 
L 103.433677 229.717732 
L 106.69108 229.944702 
L 109.948484 229.935651 
L 113.205887 229.684995 
L 116.463291 229.19323 
L 119.720694 228.467244 
L 122.978098 227.520703 
L 126.235501 226.374439 
L 130.578706 224.585348 
L 136.007712 222.056954 
L 146.865723 216.888179 
L 151.208928 215.132895 
L 154.466331 214.042114 
L 157.723735 213.184079 
L 160.981138 212.579739 
L 164.238542 212.234399 
L 167.495945 212.136757 
L 170.753349 212.259229 
L 175.096553 212.689895 
L 182.697161 213.785656 
L 187.040366 214.325604 
L 190.297769 214.556841 
L 193.555173 214.558845 
L 196.812576 214.261851 
L 198.984179 213.864605 
L 201.155781 213.285626 
L 203.327383 212.50642 
L 205.498986 211.509049 
L 207.670588 210.27613 
L 209.84219 208.790868 
L 212.013792 207.037141 
L 214.185395 204.999646 
L 216.356997 202.664134 
L 218.528599 200.017739 
L 220.700202 197.049404 
L 222.871804 193.750427 
L 225.043406 190.115105 
L 227.215009 186.141489 
L 229.386611 181.832219 
L 232.644014 174.758426 
L 235.901418 167.004343 
L 239.158821 158.66363 
L 243.502026 146.872852 
L 253.274236 119.94428 
L 256.53164 111.762165 
L 258.703242 106.765791 
L 260.874844 102.224233 
L 263.046447 98.203654 
L 265.218049 94.758825 
L 267.389651 91.930791 
L 269.561254 89.745108 
L 270.647055 88.896623 
L 271.732856 88.210784 
L 272.818657 87.686086 
L 273.904458 87.319993 
L 274.99026 87.108978 
L 276.076061 87.048561 
L 277.161862 87.133367 
L 278.247663 87.357183 
L 279.333464 87.713034 
L 281.505066 88.789558 
L 283.676669 90.294792 
L 285.848271 92.15354 
L 288.019873 94.286281 
L 291.277277 97.821522 
L 298.877885 106.278256 
L 302.135288 109.430423 
L 304.306891 111.231252 
L 306.478493 112.739137 
L 308.650095 113.917177 
L 310.821698 114.735484 
L 312.9933 115.171009 
L 315.164902 115.207384 
L 317.336505 114.834842 
L 319.508107 114.050229 
L 321.679709 112.857142 
L 323.851311 111.266183 
L 326.022914 109.295319 
L 328.194516 106.970321 
L 330.366118 104.325219 
L 333.623522 99.85327 
L 336.880925 94.941502 
L 345.567335 81.550861 
L 347.738937 78.604628 
L 349.910539 76.006291 
L 352.082142 73.848635 
L 354.253744 72.218814 
L 355.339545 71.626678 
L 356.425346 71.194866 
L 357.511147 70.931156 
L 358.596948 70.842355 
L 359.68275 70.934215 
L 360.768551 71.211365 
L 361.854352 71.677248 
L 362.940153 72.334085 
L 364.025954 73.182835 
L 365.111755 74.223191 
L 366.197557 75.453576 
L 367.283358 76.871165 
L 369.45496 80.250616 
L 371.626562 84.3156 
L 373.798165 89.003828 
L 375.969767 94.239599 
L 379.22717 102.930648 
L 381.398773 109.147646 
L 381.398773 109.147646 
" clip-path="url(#p5cd4df21a2)" style="fill: none; stroke: #1f77b4; stroke-opacity: 0.8; stroke-width: 1.2; stroke-linecap: round"/>
   </g>
   <g id="line2d_17">
    <path d="M 56.744227 266.95004 
L 60.001631 268.49732 
L 63.259034 269.845997 
L 66.516438 270.997821 
L 69.773841 271.956997 
L 73.031245 272.729044 
L 76.288648 273.319801 
L 79.546052 273.734589 
L 82.803455 273.977551 
L 86.060858 274.051179 
L 89.318262 273.955991 
L 92.575665 273.69037 
L 95.833069 273.250532 
L 99.090472 272.630643 
L 102.347876 271.823057 
L 105.605279 270.818712 
L 108.862683 269.607666 
L 112.120086 268.179788 
L 115.37749 266.525597 
L 118.634893 264.637222 
L 121.892297 262.509441 
L 125.1497 260.140749 
L 128.407104 257.534347 
L 131.664507 254.698977 
L 136.007712 250.588893 
L 140.350916 246.151491 
L 145.779922 240.254411 
L 156.637934 227.963 
L 163.15274 220.772087 
L 168.581746 215.141535 
L 172.924951 210.96455 
L 177.268156 207.128592 
L 181.61136 203.665678 
L 184.868764 201.327239 
L 188.126167 199.219322 
L 191.383571 197.349423 
L 194.640974 195.725775 
L 197.898377 194.358112 
L 201.155781 193.258113 
L 204.413184 192.439468 
L 207.670588 191.917535 
L 210.927991 191.708583 
L 213.099594 191.751137 
L 215.271196 191.94437 
L 217.442798 192.292152 
L 219.614401 192.797584 
L 221.786003 193.462774 
L 223.957605 194.288613 
L 227.215009 195.827003 
L 230.472412 197.716662 
L 233.729816 199.940014 
L 236.987219 202.470166 
L 240.244623 205.271175 
L 244.587827 209.35002 
L 250.016833 214.827516 
L 263.046447 228.19281 
L 267.389651 232.278263 
L 271.732856 236.011458 
L 274.99026 238.537674 
L 278.247663 240.804612 
L 281.505066 242.796264 
L 284.76247 244.501361 
L 288.019873 245.912304 
L 291.277277 247.024099 
L 294.53468 247.833355 
L 297.792084 248.337443 
L 301.049487 248.533836 
L 304.306891 248.419696 
L 307.564294 247.991733 
L 310.821698 247.24636 
L 314.079101 246.180174 
L 317.336505 244.790783 
L 320.593908 243.077968 
L 323.851311 241.045183 
L 327.108715 238.701313 
L 330.366118 236.062594 
L 333.623522 233.154531 
L 337.966727 228.922857 
L 343.395732 223.239564 
L 352.082142 214.021311 
L 356.425346 209.78624 
L 359.68275 206.944535 
L 362.940153 204.475963 
L 365.111755 203.068985 
L 367.283358 201.86975 
L 369.45496 200.887991 
L 371.626562 200.129064 
L 373.798165 199.593891 
L 375.969767 199.279082 
L 378.141369 199.177203 
L 380.312972 199.277193 
L 381.398773 199.398567 
L 381.398773 199.398567 
" clip-path="url(#p5cd4df21a2)" style="fill: none; stroke: #ff7f0e; stroke-opacity: 0.8; stroke-width: 1.2; stroke-linecap: round"/>
   </g>
   <g id="line2d_18">
    <path d="M 56.744227 221.80808 
L 61.087432 223.075305 
L 66.516438 224.93637 
L 81.717654 230.443595 
L 86.060858 231.664717 
L 89.318262 232.362878 
L 92.575665 232.832634 
L 95.833069 233.040045 
L 99.090472 232.954829 
L 102.347876 232.550554 
L 104.519478 232.092589 
L 106.69108 231.47734 
L 108.862683 230.700366 
L 111.034285 229.758418 
L 113.205887 228.649646 
L 116.463291 226.673765 
L 119.720694 224.330384 
L 122.978098 221.639826 
L 126.235501 218.637667 
L 130.578706 214.245307 
L 138.179314 206.042797 
L 142.522519 201.516667 
L 145.779922 198.438755 
L 147.951524 196.613874 
L 150.123127 195.015479 
L 152.294729 193.677956 
L 154.466331 192.630452 
L 156.637934 191.895537 
L 158.809536 191.488103 
L 160.981138 191.414595 
L 163.15274 191.672633 
L 165.324343 192.25105 
L 167.495945 193.130349 
L 169.667547 194.283539 
L 171.83915 195.677283 
L 175.096553 198.134142 
L 178.353957 200.902846 
L 189.211968 210.515977 
L 192.469372 213.014846 
L 195.726775 215.151081 
L 197.898377 216.335606 
L 200.06998 217.306308 
L 202.241582 218.047311 
L 204.413184 218.545061 
L 206.584787 218.78799 
L 208.756389 218.766222 
L 210.927991 218.47137 
L 213.099594 217.896447 
L 215.271196 217.035895 
L 217.442798 215.885757 
L 219.614401 214.444002 
L 221.786003 212.711008 
L 223.957605 210.69019 
L 226.129208 208.388784 
L 228.30081 205.818741 
L 231.558213 201.500381 
L 234.815617 196.707668 
L 239.158821 189.809857 
L 245.673628 179.308242 
L 248.931032 174.52802 
L 251.102634 171.709132 
L 253.274236 169.285663 
L 255.445839 167.339855 
L 256.53164 166.569628 
L 257.617441 165.945697 
L 258.703242 165.475375 
L 259.789043 165.16498 
L 260.874844 165.019743 
L 261.960646 165.043719 
L 263.046447 165.239721 
L 264.132248 165.609262 
L 265.218049 166.152528 
L 266.30385 166.868358 
L 267.389651 167.754253 
L 268.475453 168.806403 
L 270.647055 171.387959 
L 272.818657 174.558516 
L 274.99026 178.247358 
L 277.161862 182.371277 
L 280.419265 189.171676 
L 284.76247 198.887376 
L 291.277277 213.435208 
L 294.53468 220.190233 
L 297.792084 226.387277 
L 301.049487 231.936409 
L 303.22109 235.252686 
L 305.392692 238.257096 
L 307.564294 240.951482 
L 309.735896 243.341876 
L 311.907499 245.437249 
L 314.079101 247.248431 
L 316.250703 248.787213 
L 318.422306 250.06563 
L 320.593908 251.09542 
L 322.76551 251.887639 
L 324.937113 252.452416 
L 327.108715 252.798828 
L 329.280317 252.934886 
L 331.45192 252.867608 
L 333.623522 252.60317 
L 335.795124 252.147127 
L 337.966727 251.504693 
L 340.138329 250.681069 
L 342.309931 249.681805 
L 345.567335 247.867658 
L 348.824738 245.699231 
L 352.082142 243.211657 
L 355.339545 240.451091 
L 359.68275 236.448769 
L 372.712363 224.025992 
L 375.969767 221.289923 
L 379.22717 218.863915 
L 381.398773 217.447935 
L 381.398773 217.447935 
" clip-path="url(#p5cd4df21a2)" style="fill: none; stroke: #2ca02c; stroke-opacity: 0.8; stroke-width: 1.2; stroke-linecap: round"/>
   </g>
   <g id="line2d_19">
    <path d="M 56.744227 184.503351 
L 62.173233 177.516755 
L 79.546052 154.707301 
L 83.889256 149.630116 
L 87.14666 146.16408 
L 90.404063 143.046566 
L 93.661467 140.318581 
L 95.833069 138.732247 
L 98.004671 137.339961 
L 100.176273 136.146407 
L 102.347876 135.15421 
L 104.519478 134.363997 
L 106.69108 133.774504 
L 108.862683 133.382703 
L 111.034285 133.18397 
L 113.205887 133.172258 
L 115.37749 133.340285 
L 117.549092 133.67973 
L 119.720694 134.181421 
L 122.978098 135.216504 
L 126.235501 136.559249 
L 129.492905 138.173155 
L 132.750308 140.021329 
L 137.093513 142.787017 
L 141.436717 145.820777 
L 147.951524 150.703171 
L 167.495945 165.677776 
L 172.924951 169.483449 
L 178.353957 173.009759 
L 183.782962 176.223138 
L 188.126167 178.559882 
L 193.555173 181.19537 
L 198.984179 183.541249 
L 204.413184 185.647396 
L 212.013792 188.328272 
L 225.043406 192.852922 
L 230.472412 194.969528 
L 235.901418 197.341352 
L 240.244623 199.457104 
L 244.587827 201.778569 
L 250.016833 204.959076 
L 255.445839 208.403734 
L 263.046447 213.508623 
L 273.904458 220.799819 
L 279.333464 224.171475 
L 283.676669 226.632445 
L 288.019873 228.830355 
L 292.363078 230.725658 
L 295.620481 231.929893 
L 298.877885 232.937021 
L 302.135288 233.740108 
L 305.392692 234.334715 
L 308.650095 234.718772 
L 311.907499 234.892505 
L 315.164902 234.85842 
L 318.422306 234.621376 
L 321.679709 234.188718 
L 324.937113 233.570468 
L 329.280317 232.480214 
L 333.623522 231.122633 
L 337.966727 229.547328 
L 344.481533 226.909231 
L 356.425346 221.952765 
L 361.854352 219.991055 
L 366.197557 218.674784 
L 370.540761 217.631858 
L 373.798165 217.044632 
L 377.055568 216.628411 
L 381.398773 216.333045 
L 381.398773 216.333045 
" clip-path="url(#p5cd4df21a2)" style="fill: none; stroke: #d62728; stroke-opacity: 0.8; stroke-width: 1.2; stroke-linecap: round"/>
   </g>
   <g id="line2d_20">
    <path d="M 56.744227 41.369748 
L 57.830028 39.223609 
L 58.91583 37.523796 
L 60.001631 36.295099 
L 61.087432 35.558791 
L 62.173233 35.332162 
L 63.259034 35.628131 
L 64.344835 36.454907 
L 65.430637 37.815741 
L 66.516438 39.708765 
L 67.602239 42.126925 
L 68.68804 45.058018 
L 69.773841 48.484829 
L 70.859642 52.385368 
L 73.031245 61.497861 
L 75.202847 72.138682 
L 77.374449 84.003623 
L 80.631853 103.366781 
L 89.318262 156.524536 
L 92.575665 174.558368 
L 94.747268 185.559716 
L 96.91887 195.656517 
L 99.090472 204.81896 
L 101.262075 213.04972 
L 103.433677 220.376524 
L 105.605279 226.845072 
L 107.776882 232.51273 
L 109.948484 237.443238 
L 112.120086 241.702515 
L 114.291689 245.355499 
L 116.463291 248.463947 
L 118.634893 251.085002 
L 120.806495 253.27041 
L 122.978098 255.066208 
L 125.1497 256.512768 
L 127.321302 257.645094 
L 129.492905 258.493276 
L 131.664507 259.083059 
L 133.836109 259.436477 
L 136.007712 259.572518 
L 138.179314 259.507816 
L 140.350916 259.257349 
L 142.522519 258.835134 
L 145.779922 257.909907 
L 149.037325 256.677775 
L 152.294729 255.193479 
L 156.637934 252.934862 
L 166.410144 247.634202 
L 169.667547 246.131266 
L 172.924951 244.911626 
L 175.096553 244.292124 
L 177.268156 243.846459 
L 179.439758 243.584942 
L 181.61136 243.512123 
L 183.782962 243.626699 
L 185.954565 243.921741 
L 188.126167 244.385234 
L 191.383571 245.359655 
L 194.640974 246.607388 
L 198.984179 248.562373 
L 213.099594 255.261935 
L 217.442798 256.977151 
L 221.786003 258.422289 
L 226.129208 259.589482 
L 230.472412 260.496192 
L 234.815617 261.179645 
L 240.244623 261.800977 
L 258.703242 263.664108 
L 264.132248 264.600623 
L 269.561254 265.808676 
L 276.076061 267.548646 
L 291.277277 271.774841 
L 295.620481 272.728229 
L 299.963686 273.467486 
L 304.306891 273.951588 
L 307.564294 274.125296 
L 310.821698 274.119798 
L 314.079101 273.918523 
L 317.336505 273.502375 
L 320.593908 272.848731 
L 323.851311 271.930705 
L 327.108715 270.716833 
L 330.366118 269.171325 
L 332.537721 267.937533 
L 334.709323 266.52702 
L 336.880925 264.927947 
L 339.052528 263.129152 
L 341.22413 261.120811 
L 343.395732 258.895213 
L 345.567335 256.447635 
L 348.824738 252.35965 
L 352.082142 247.790568 
L 355.339545 242.790672 
L 359.68275 235.608154 
L 370.540761 217.205128 
L 373.798165 212.293084 
L 375.969767 209.339415 
L 378.141369 206.692368 
L 380.312972 204.385145 
L 381.398773 203.366691 
L 381.398773 203.366691 
" clip-path="url(#p5cd4df21a2)" style="fill: none; stroke: #9467bd; stroke-opacity: 0.8; stroke-width: 1.2; stroke-linecap: round"/>
   </g>
   <g id="patch_3">
    <path d="M 40.5115 289.503562 
L 40.5115 27.177695 
" style="fill: none; stroke: #262626; stroke-linejoin: miter; stroke-linecap: square"/>
   </g>
   <g id="patch_4">
    <path d="M 56.744227 289.503562 
L 381.398773 289.503562 
" style="fill: none; stroke: #262626; stroke-linejoin: miter; stroke-linecap: square"/>
   </g>
   <g id="text_18">
    <!-- Samples of the thermal conductivity field -->
    <g style="fill: #262626" transform="translate(93.796656 17.391562) scale(0.14 -0.14)">
     <defs>
      <path id="ArialMT-53" d="M 288 1472 
L 859 1522 
Q 900 1178 1048 958 
Q 1197 738 1509 602 
Q 1822 466 2213 466 
Q 2559 466 2825 569 
Q 3091 672 3220 851 
Q 3350 1031 3350 1244 
Q 3350 1459 3225 1620 
Q 3100 1781 2813 1891 
Q 2628 1963 1997 2114 
Q 1366 2266 1113 2400 
Q 784 2572 623 2826 
Q 463 3081 463 3397 
Q 463 3744 659 4045 
Q 856 4347 1234 4503 
Q 1613 4659 2075 4659 
Q 2584 4659 2973 4495 
Q 3363 4331 3572 4012 
Q 3781 3694 3797 3291 
L 3216 3247 
Q 3169 3681 2898 3903 
Q 2628 4125 2100 4125 
Q 1550 4125 1298 3923 
Q 1047 3722 1047 3438 
Q 1047 3191 1225 3031 
Q 1400 2872 2139 2705 
Q 2878 2538 3153 2413 
Q 3553 2228 3743 1945 
Q 3934 1663 3934 1294 
Q 3934 928 3725 604 
Q 3516 281 3123 101 
Q 2731 -78 2241 -78 
Q 1619 -78 1198 103 
Q 778 284 539 648 
Q 300 1013 288 1472 
z
" transform="scale(0.015625)"/>
      <path id="ArialMT-61" d="M 2588 409 
Q 2275 144 1986 34 
Q 1697 -75 1366 -75 
Q 819 -75 525 192 
Q 231 459 231 875 
Q 231 1119 342 1320 
Q 453 1522 633 1644 
Q 813 1766 1038 1828 
Q 1203 1872 1538 1913 
Q 2219 1994 2541 2106 
Q 2544 2222 2544 2253 
Q 2544 2597 2384 2738 
Q 2169 2928 1744 2928 
Q 1347 2928 1158 2789 
Q 969 2650 878 2297 
L 328 2372 
Q 403 2725 575 2942 
Q 747 3159 1072 3276 
Q 1397 3394 1825 3394 
Q 2250 3394 2515 3294 
Q 2781 3194 2906 3042 
Q 3031 2891 3081 2659 
Q 3109 2516 3109 2141 
L 3109 1391 
Q 3109 606 3145 398 
Q 3181 191 3288 0 
L 2700 0 
Q 2613 175 2588 409 
z
M 2541 1666 
Q 2234 1541 1622 1453 
Q 1275 1403 1131 1340 
Q 988 1278 909 1158 
Q 831 1038 831 891 
Q 831 666 1001 516 
Q 1172 366 1500 366 
Q 1825 366 2078 508 
Q 2331 650 2450 897 
Q 2541 1088 2541 1459 
L 2541 1666 
z
" transform="scale(0.015625)"/>
      <path id="ArialMT-6d" d="M 422 0 
L 422 3319 
L 925 3319 
L 925 2853 
Q 1081 3097 1340 3245 
Q 1600 3394 1931 3394 
Q 2300 3394 2536 3241 
Q 2772 3088 2869 2813 
Q 3263 3394 3894 3394 
Q 4388 3394 4653 3120 
Q 4919 2847 4919 2278 
L 4919 0 
L 4359 0 
L 4359 2091 
Q 4359 2428 4304 2576 
Q 4250 2725 4106 2815 
Q 3963 2906 3769 2906 
Q 3419 2906 3187 2673 
Q 2956 2441 2956 1928 
L 2956 0 
L 2394 0 
L 2394 2156 
Q 2394 2531 2256 2718 
Q 2119 2906 1806 2906 
Q 1569 2906 1367 2781 
Q 1166 2656 1075 2415 
Q 984 2175 984 1722 
L 984 0 
L 422 0 
z
" transform="scale(0.015625)"/>
      <path id="ArialMT-70" d="M 422 -1272 
L 422 3319 
L 934 3319 
L 934 2888 
Q 1116 3141 1344 3267 
Q 1572 3394 1897 3394 
Q 2322 3394 2647 3175 
Q 2972 2956 3137 2557 
Q 3303 2159 3303 1684 
Q 3303 1175 3120 767 
Q 2938 359 2589 142 
Q 2241 -75 1856 -75 
Q 1575 -75 1351 44 
Q 1128 163 984 344 
L 984 -1272 
L 422 -1272 
z
M 931 1641 
Q 931 1000 1190 694 
Q 1450 388 1819 388 
Q 2194 388 2461 705 
Q 2728 1022 2728 1688 
Q 2728 2322 2467 2637 
Q 2206 2953 1844 2953 
Q 1484 2953 1207 2617 
Q 931 2281 931 1641 
z
" transform="scale(0.015625)"/>
      <path id="ArialMT-6c" d="M 409 0 
L 409 4581 
L 972 4581 
L 972 0 
L 409 0 
z
" transform="scale(0.015625)"/>
      <path id="ArialMT-65" d="M 2694 1069 
L 3275 997 
Q 3138 488 2766 206 
Q 2394 -75 1816 -75 
Q 1088 -75 661 373 
Q 234 822 234 1631 
Q 234 2469 665 2931 
Q 1097 3394 1784 3394 
Q 2450 3394 2872 2941 
Q 3294 2488 3294 1666 
Q 3294 1616 3291 1516 
L 816 1516 
Q 847 969 1125 678 
Q 1403 388 1819 388 
Q 2128 388 2347 550 
Q 2566 713 2694 1069 
z
M 847 1978 
L 2700 1978 
Q 2663 2397 2488 2606 
Q 2219 2931 1791 2931 
Q 1403 2931 1139 2672 
Q 875 2413 847 1978 
z
" transform="scale(0.015625)"/>
      <path id="ArialMT-73" d="M 197 991 
L 753 1078 
Q 800 744 1014 566 
Q 1228 388 1613 388 
Q 2000 388 2187 545 
Q 2375 703 2375 916 
Q 2375 1106 2209 1216 
Q 2094 1291 1634 1406 
Q 1016 1563 777 1677 
Q 538 1791 414 1992 
Q 291 2194 291 2438 
Q 291 2659 392 2848 
Q 494 3038 669 3163 
Q 800 3259 1026 3326 
Q 1253 3394 1513 3394 
Q 1903 3394 2198 3281 
Q 2494 3169 2634 2976 
Q 2775 2784 2828 2463 
L 2278 2388 
Q 2241 2644 2061 2787 
Q 1881 2931 1553 2931 
Q 1166 2931 1000 2803 
Q 834 2675 834 2503 
Q 834 2394 903 2306 
Q 972 2216 1119 2156 
Q 1203 2125 1616 2013 
Q 2213 1853 2448 1751 
Q 2684 1650 2818 1456 
Q 2953 1263 2953 975 
Q 2953 694 2789 445 
Q 2625 197 2315 61 
Q 2006 -75 1616 -75 
Q 969 -75 630 194 
Q 291 463 197 991 
z
" transform="scale(0.015625)"/>
      <path id="ArialMT-20" transform="scale(0.015625)"/>
      <path id="ArialMT-6f" d="M 213 1659 
Q 213 2581 725 3025 
Q 1153 3394 1769 3394 
Q 2453 3394 2887 2945 
Q 3322 2497 3322 1706 
Q 3322 1066 3130 698 
Q 2938 331 2570 128 
Q 2203 -75 1769 -75 
Q 1072 -75 642 372 
Q 213 819 213 1659 
z
M 791 1659 
Q 791 1022 1069 705 
Q 1347 388 1769 388 
Q 2188 388 2466 706 
Q 2744 1025 2744 1678 
Q 2744 2294 2464 2611 
Q 2184 2928 1769 2928 
Q 1347 2928 1069 2612 
Q 791 2297 791 1659 
z
" transform="scale(0.015625)"/>
      <path id="ArialMT-66" d="M 556 0 
L 556 2881 
L 59 2881 
L 59 3319 
L 556 3319 
L 556 3672 
Q 556 4006 616 4169 
Q 697 4388 901 4523 
Q 1106 4659 1475 4659 
Q 1713 4659 2000 4603 
L 1916 4113 
Q 1741 4144 1584 4144 
Q 1328 4144 1222 4034 
Q 1116 3925 1116 3625 
L 1116 3319 
L 1763 3319 
L 1763 2881 
L 1116 2881 
L 1116 0 
L 556 0 
z
" transform="scale(0.015625)"/>
      <path id="ArialMT-74" d="M 1650 503 
L 1731 6 
Q 1494 -44 1306 -44 
Q 1000 -44 831 53 
Q 663 150 594 308 
Q 525 466 525 972 
L 525 2881 
L 113 2881 
L 113 3319 
L 525 3319 
L 525 4141 
L 1084 4478 
L 1084 3319 
L 1650 3319 
L 1650 2881 
L 1084 2881 
L 1084 941 
Q 1084 700 1114 631 
Q 1144 563 1211 522 
Q 1278 481 1403 481 
Q 1497 481 1650 503 
z
" transform="scale(0.015625)"/>
      <path id="ArialMT-68" d="M 422 0 
L 422 4581 
L 984 4581 
L 984 2938 
Q 1378 3394 1978 3394 
Q 2347 3394 2619 3248 
Q 2891 3103 3008 2847 
Q 3125 2591 3125 2103 
L 3125 0 
L 2563 0 
L 2563 2103 
Q 2563 2525 2380 2717 
Q 2197 2909 1863 2909 
Q 1613 2909 1392 2779 
Q 1172 2650 1078 2428 
Q 984 2206 984 1816 
L 984 0 
L 422 0 
z
" transform="scale(0.015625)"/>
      <path id="ArialMT-72" d="M 416 0 
L 416 3319 
L 922 3319 
L 922 2816 
Q 1116 3169 1280 3281 
Q 1444 3394 1641 3394 
Q 1925 3394 2219 3213 
L 2025 2691 
Q 1819 2813 1613 2813 
Q 1428 2813 1281 2702 
Q 1134 2591 1072 2394 
Q 978 2094 978 1738 
L 978 0 
L 416 0 
z
" transform="scale(0.015625)"/>
      <path id="ArialMT-63" d="M 2588 1216 
L 3141 1144 
Q 3050 572 2676 248 
Q 2303 -75 1759 -75 
Q 1078 -75 664 370 
Q 250 816 250 1647 
Q 250 2184 428 2587 
Q 606 2991 970 3192 
Q 1334 3394 1763 3394 
Q 2303 3394 2647 3120 
Q 2991 2847 3088 2344 
L 2541 2259 
Q 2463 2594 2264 2762 
Q 2066 2931 1784 2931 
Q 1359 2931 1093 2626 
Q 828 2322 828 1663 
Q 828 994 1084 691 
Q 1341 388 1753 388 
Q 2084 388 2306 591 
Q 2528 794 2588 1216 
z
" transform="scale(0.015625)"/>
      <path id="ArialMT-6e" d="M 422 0 
L 422 3319 
L 928 3319 
L 928 2847 
Q 1294 3394 1984 3394 
Q 2284 3394 2536 3286 
Q 2788 3178 2913 3003 
Q 3038 2828 3088 2588 
Q 3119 2431 3119 2041 
L 3119 0 
L 2556 0 
L 2556 2019 
Q 2556 2363 2490 2533 
Q 2425 2703 2258 2804 
Q 2091 2906 1866 2906 
Q 1506 2906 1245 2678 
Q 984 2450 984 1813 
L 984 0 
L 422 0 
z
" transform="scale(0.015625)"/>
      <path id="ArialMT-64" d="M 2575 0 
L 2575 419 
Q 2259 -75 1647 -75 
Q 1250 -75 917 144 
Q 584 363 401 755 
Q 219 1147 219 1656 
Q 219 2153 384 2558 
Q 550 2963 881 3178 
Q 1213 3394 1622 3394 
Q 1922 3394 2156 3267 
Q 2391 3141 2538 2938 
L 2538 4581 
L 3097 4581 
L 3097 0 
L 2575 0 
z
M 797 1656 
Q 797 1019 1065 703 
Q 1334 388 1700 388 
Q 2069 388 2326 689 
Q 2584 991 2584 1609 
Q 2584 2291 2321 2609 
Q 2059 2928 1675 2928 
Q 1300 2928 1048 2622 
Q 797 2316 797 1656 
z
" transform="scale(0.015625)"/>
      <path id="ArialMT-75" d="M 2597 0 
L 2597 488 
Q 2209 -75 1544 -75 
Q 1250 -75 995 37 
Q 741 150 617 320 
Q 494 491 444 738 
Q 409 903 409 1263 
L 409 3319 
L 972 3319 
L 972 1478 
Q 972 1038 1006 884 
Q 1059 663 1231 536 
Q 1403 409 1656 409 
Q 1909 409 2131 539 
Q 2353 669 2445 892 
Q 2538 1116 2538 1541 
L 2538 3319 
L 3100 3319 
L 3100 0 
L 2597 0 
z
" transform="scale(0.015625)"/>
      <path id="ArialMT-69" d="M 425 3934 
L 425 4581 
L 988 4581 
L 988 3934 
L 425 3934 
z
M 425 0 
L 425 3319 
L 988 3319 
L 988 0 
L 425 0 
z
" transform="scale(0.015625)"/>
      <path id="ArialMT-76" d="M 1344 0 
L 81 3319 
L 675 3319 
L 1388 1331 
Q 1503 1009 1600 663 
Q 1675 925 1809 1294 
L 2547 3319 
L 3125 3319 
L 1869 0 
L 1344 0 
z
" transform="scale(0.015625)"/>
      <path id="ArialMT-79" d="M 397 -1278 
L 334 -750 
Q 519 -800 656 -800 
Q 844 -800 956 -737 
Q 1069 -675 1141 -563 
Q 1194 -478 1313 -144 
Q 1328 -97 1363 -6 
L 103 3319 
L 709 3319 
L 1400 1397 
Q 1534 1031 1641 628 
Q 1738 1016 1872 1384 
L 2581 3319 
L 3144 3319 
L 1881 -56 
Q 1678 -603 1566 -809 
Q 1416 -1088 1222 -1217 
Q 1028 -1347 759 -1347 
Q 597 -1347 397 -1278 
z
" transform="scale(0.015625)"/>
     </defs>
     <use xlink:href="#ArialMT-53"/>
     <use xlink:href="#ArialMT-61" x="66.699219"/>
     <use xlink:href="#ArialMT-6d" x="122.314453"/>
     <use xlink:href="#ArialMT-70" x="205.615234"/>
     <use xlink:href="#ArialMT-6c" x="261.230469"/>
     <use xlink:href="#ArialMT-65" x="283.447266"/>
     <use xlink:href="#ArialMT-73" x="339.0625"/>
     <use xlink:href="#ArialMT-20" x="389.0625"/>
     <use xlink:href="#ArialMT-6f" x="416.845703"/>
     <use xlink:href="#ArialMT-66" x="472.460938"/>
     <use xlink:href="#ArialMT-20" x="500.244141"/>
     <use xlink:href="#ArialMT-74" x="528.027344"/>
     <use xlink:href="#ArialMT-68" x="555.810547"/>
     <use xlink:href="#ArialMT-65" x="611.425781"/>
     <use xlink:href="#ArialMT-20" x="667.041016"/>
     <use xlink:href="#ArialMT-74" x="694.824219"/>
     <use xlink:href="#ArialMT-68" x="722.607422"/>
     <use xlink:href="#ArialMT-65" x="778.222656"/>
     <use xlink:href="#ArialMT-72" x="833.837891"/>
     <use xlink:href="#ArialMT-6d" x="867.138672"/>
     <use xlink:href="#ArialMT-61" x="950.439453"/>
     <use xlink:href="#ArialMT-6c" x="1006.054688"/>
     <use xlink:href="#ArialMT-20" x="1028.271484"/>
     <use xlink:href="#ArialMT-63" x="1056.054688"/>
     <use xlink:href="#ArialMT-6f" x="1106.054688"/>
     <use xlink:href="#ArialMT-6e" x="1161.669922"/>
     <use xlink:href="#ArialMT-64" x="1217.285156"/>
     <use xlink:href="#ArialMT-75" x="1272.900391"/>
     <use xlink:href="#ArialMT-63" x="1328.515625"/>
     <use xlink:href="#ArialMT-74" x="1378.515625"/>
     <use xlink:href="#ArialMT-69" x="1406.298828"/>
     <use xlink:href="#ArialMT-76" x="1428.515625"/>
     <use xlink:href="#ArialMT-69" x="1478.515625"/>
     <use xlink:href="#ArialMT-74" x="1500.732422"/>
     <use xlink:href="#ArialMT-79" x="1528.515625"/>
     <use xlink:href="#ArialMT-20" x="1578.515625"/>
     <use xlink:href="#ArialMT-66" x="1606.298828"/>
     <use xlink:href="#ArialMT-69" x="1634.082031"/>
     <use xlink:href="#ArialMT-65" x="1656.298828"/>
     <use xlink:href="#ArialMT-6c" x="1711.914062"/>
     <use xlink:href="#ArialMT-64" x="1734.130859"/>
    </g>
   </g>
  </g>
 </g>
 <defs>
  <clipPath id="p5cd4df21a2">
   <rect x="40.5115" y="23.391562" width="357.12" height="266.112"/>
  </clipPath>
 </defs>
</svg>