<?xml version="1.0" encoding="utf-8" standalone="no"?>
<!DOCTYPE svg PUBLIC "-//W3C//DTD SVG 1.1//EN"
  "http://www.w3.org/Graphics/SVG/1.1/DTD/svg11.dtd">
<svg xmlns:xlink="http://www.w3.org/1999/xlink" width="403.165375pt" height="310.171875pt" viewBox="0 0 403.165375 310.171875" xmlns="http://www.w3.org/2000/svg" version="1.1">
 <metadata>
  <rdf:RDF xmlns:dc="http://purl.org/dc/elements/1.1/" xmlns:cc="http://creativecommons.org/ns#" xmlns:rdf="http://www.w3.org/1999/02/22-rdf-syntax-ns#">
   <cc:Work>
    <dc:type rdf:resource="http://purl.org/dc/dcmitype/StillImage"/>
    <dc:date>2024-01-22T00:02:37.436381</dc:date>
    <dc:format>image/svg+xml</dc:format>
    <dc:creator>
     <cc:Agent>
      <dc:title>Matplotlib v3.8.0, https://matplotlib.org/</dc:title>
     </cc:Agent>
    </dc:creator>
   </cc:Work>
  </rdf:RDF>
 </metadata>
 <defs>
  <style type="text/css">*{stroke-linejoin: round; stroke-linecap: butt}</style>
 </defs>
 <g id="figure_1">
  <g id="patch_1">
   <path d="M 0 310.171875 
L 403.165375 310.171875 
L 403.165375 0 
L 0 0 
z
" style="fill: #ffffff"/>
  </g>
  <g id="axes_1">
   <g id="patch_2">
    <path d="M 38.845375 273.312 
L 395.965375 273.312 
L 395.965375 7.2 
L 38.845375 7.2 
z
" style="fill: #ffffff"/>
   </g>
   <g id="matplotlib.axis_1">
    <g id="xtick_1">
     <g id="line2d_1">
      <defs>
       <path id="m4824691e54" d="M 0 0 
L 0 4.8 
" style="stroke: #262626"/>
      </defs>
      <g>
       <use xlink:href="#m4824691e54" x="55.078102" y="273.312" style="fill: #262626; stroke: #262626"/>
      </g>
     </g>
     <g id="text_1">
      <!-- −2.0 -->
      <g style="fill: #262626" transform="translate(46.392227 287.910875) scale(0.088 -0.088)">
       <defs>
        <path id="ArialMT-2212" d="M 3381 1997 
L 356 1997 
L 356 2522 
L 3381 2522 
L 3381 1997 
z
" transform="scale(0.015625)"/>
        <path id="ArialMT-32" d="M 3222 541 
L 3222 0 
L 194 0 
Q 188 203 259 391 
Q 375 700 629 1000 
Q 884 1300 1366 1694 
Q 2113 2306 2375 2664 
Q 2638 3022 2638 3341 
Q 2638 3675 2398 3904 
Q 2159 4134 1775 4134 
Q 1369 4134 1125 3890 
Q 881 3647 878 3216 
L 300 3275 
Q 359 3922 746 4261 
Q 1134 4600 1788 4600 
Q 2447 4600 2831 4234 
Q 3216 3869 3216 3328 
Q 3216 3053 3103 2787 
Q 2991 2522 2730 2228 
Q 2469 1934 1863 1422 
Q 1356 997 1212 845 
Q 1069 694 975 541 
L 3222 541 
z
" transform="scale(0.015625)"/>
        <path id="ArialMT-2e" d="M 581 0 
L 581 641 
L 1222 641 
L 1222 0 
L 581 0 
z
" transform="scale(0.015625)"/>
        <path id="ArialMT-30" d="M 266 2259 
Q 266 3072 433 3567 
Q 600 4063 929 4331 
Q 1259 4600 1759 4600 
Q 2128 4600 2406 4451 
Q 2684 4303 2865 4023 
Q 3047 3744 3150 3342 
Q 3253 2941 3253 2259 
Q 3253 1453 3087 958 
Q 2922 463 2592 192 
Q 2263 -78 1759 -78 
Q 1097 -78 719 397 
Q 266 969 266 2259 
z
M 844 2259 
Q 844 1131 1108 757 
Q 1372 384 1759 384 
Q 2147 384 2411 759 
Q 2675 1134 2675 2259 
Q 2675 3391 2411 3762 
Q 2147 4134 1753 4134 
Q 1366 4134 1134 3806 
Q 844 3388 844 2259 
z
" transform="scale(0.015625)"/>
       </defs>
       <use xlink:href="#ArialMT-2212"/>
       <use xlink:href="#ArialMT-32" x="58.398438"/>
       <use xlink:href="#ArialMT-2e" x="114.013672"/>
       <use xlink:href="#ArialMT-30" x="141.796875"/>
      </g>
     </g>
    </g>
    <g id="xtick_2">
     <g id="line2d_2">
      <g>
       <use xlink:href="#m4824691e54" x="95.65992" y="273.312" style="fill: #262626; stroke: #262626"/>
      </g>
     </g>
     <g id="text_2">
      <!-- −1.5 -->
      <g style="fill: #262626" transform="translate(86.974045 287.910875) scale(0.088 -0.088)">
       <defs>
        <path id="ArialMT-31" d="M 2384 0 
L 1822 0 
L 1822 3584 
Q 1619 3391 1289 3197 
Q 959 3003 697 2906 
L 697 3450 
Q 1169 3672 1522 3987 
Q 1875 4303 2022 4600 
L 2384 4600 
L 2384 0 
z
" transform="scale(0.015625)"/>
        <path id="ArialMT-35" d="M 266 1200 
L 856 1250 
Q 922 819 1161 601 
Q 1400 384 1738 384 
Q 2144 384 2425 690 
Q 2706 997 2706 1503 
Q 2706 1984 2436 2262 
Q 2166 2541 1728 2541 
Q 1456 2541 1237 2417 
Q 1019 2294 894 2097 
L 366 2166 
L 809 4519 
L 3088 4519 
L 3088 3981 
L 1259 3981 
L 1013 2750 
Q 1425 3038 1878 3038 
Q 2478 3038 2890 2622 
Q 3303 2206 3303 1553 
Q 3303 931 2941 478 
Q 2500 -78 1738 -78 
Q 1113 -78 717 272 
Q 322 622 266 1200 
z
" transform="scale(0.015625)"/>
       </defs>
       <use xlink:href="#ArialMT-2212"/>
       <use xlink:href="#ArialMT-31" x="58.398438"/>
       <use xlink:href="#ArialMT-2e" x="114.013672"/>
       <use xlink:href="#ArialMT-35" x="141.796875"/>
      </g>
     </g>
    </g>
    <g id="xtick_3">
     <g id="line2d_3">
      <g>
       <use xlink:href="#m4824691e54" x="136.241739" y="273.312" style="fill: #262626; stroke: #262626"/>
      </g>
     </g>
     <g id="text_3">
      <!-- −1.0 -->
      <g style="fill: #262626" transform="translate(127.555864 287.910875) scale(0.088 -0.088)">
       <use xlink:href="#ArialMT-2212"/>
       <use xlink:href="#ArialMT-31" x="58.398438"/>
       <use xlink:href="#ArialMT-2e" x="114.013672"/>
       <use xlink:href="#ArialMT-30" x="141.796875"/>
      </g>
     </g>
    </g>
    <g id="xtick_4">
     <g id="line2d_4">
      <g>
       <use xlink:href="#m4824691e54" x="176.823557" y="273.312" style="fill: #262626; stroke: #262626"/>
      </g>
     </g>
     <g id="text_4">
      <!-- −0.5 -->
      <g style="fill: #262626" transform="translate(168.137682 287.910875) scale(0.088 -0.088)">
       <use xlink:href="#ArialMT-2212"/>
       <use xlink:href="#ArialMT-30" x="58.398438"/>
       <use xlink:href="#ArialMT-2e" x="114.013672"/>
       <use xlink:href="#ArialMT-35" x="141.796875"/>
      </g>
     </g>
    </g>
    <g id="xtick_5">
     <g id="line2d_5">
      <g>
       <use xlink:href="#m4824691e54" x="217.405375" y="273.312" style="fill: #262626; stroke: #262626"/>
      </g>
     </g>
     <g id="text_5">
      <!-- 0.0 -->
      <g style="fill: #262626" transform="translate(211.289375 287.910875) scale(0.088 -0.088)">
       <use xlink:href="#ArialMT-30"/>
       <use xlink:href="#ArialMT-2e" x="55.615234"/>
       <use xlink:href="#ArialMT-30" x="83.398438"/>
      </g>
     </g>
    </g>
    <g id="xtick_6">
     <g id="line2d_6">
      <g>
       <use xlink:href="#m4824691e54" x="257.987193" y="273.312" style="fill: #262626; stroke: #262626"/>
      </g>
     </g>
     <g id="text_6">
      <!-- 0.5 -->
      <g style="fill: #262626" transform="translate(251.871193 287.910875) scale(0.088 -0.088)">
       <use xlink:href="#ArialMT-30"/>
       <use xlink:href="#ArialMT-2e" x="55.615234"/>
       <use xlink:href="#ArialMT-35" x="83.398438"/>
      </g>
     </g>
    </g>
    <g id="xtick_7">
     <g id="line2d_7">
      <g>
       <use xlink:href="#m4824691e54" x="298.569011" y="273.312" style="fill: #262626; stroke: #262626"/>
      </g>
     </g>
     <g id="text_7">
      <!-- 1.0 -->
      <g style="fill: #262626" transform="translate(292.453011 287.910875) scale(0.088 -0.088)">
       <use xlink:href="#ArialMT-31"/>
       <use xlink:href="#ArialMT-2e" x="55.615234"/>
       <use xlink:href="#ArialMT-30" x="83.398438"/>
      </g>
     </g>
    </g>
    <g id="xtick_8">
     <g id="line2d_8">
      <g>
       <use xlink:href="#m4824691e54" x="339.15083" y="273.312" style="fill: #262626; stroke: #262626"/>
      </g>
     </g>
     <g id="text_8">
      <!-- 1.5 -->
      <g style="fill: #262626" transform="translate(333.03483 287.910875) scale(0.088 -0.088)">
       <use xlink:href="#ArialMT-31"/>
       <use xlink:href="#ArialMT-2e" x="55.615234"/>
       <use xlink:href="#ArialMT-35" x="83.398438"/>
      </g>
     </g>
    </g>
    <g id="xtick_9">
     <g id="line2d_9">
      <g>
       <use xlink:href="#m4824691e54" x="379.732648" y="273.312" style="fill: #262626; stroke: #262626"/>
      </g>
     </g>
     <g id="text_9">
      <!-- 2.0 -->
      <g style="fill: #262626" transform="translate(373.616648 287.910875) scale(0.088 -0.088)">
       <use xlink:href="#ArialMT-32"/>
       <use xlink:href="#ArialMT-2e" x="55.615234"/>
       <use xlink:href="#ArialMT-30" x="83.398438"/>
      </g>
     </g>
    </g>
    <g id="text_10">
     <!-- $\xi$ -->
     <g style="fill: #262626" transform="translate(214.717375 300.955875) scale(0.096 -0.096)">
      <defs>
       <path id="DejaVuSans-Oblique-3be" d="M 2016 397 
Q 2428 394 2628 159 
Q 2844 -88 2772 -463 
Q 2700 -822 2422 -1072 
Q 2119 -1344 1609 -1344 
Q 1656 -1109 1700 -872 
Q 1913 -888 2072 -750 
Q 2194 -641 2216 -525 
Q 2247 -359 2175 -222 
Q 2100 -91 1922 -91 
Q -25 -91 241 1275 
Q 422 2213 1516 2488 
Q 663 2600 822 3413 
Q 941 4028 1678 4284 
L 1028 4284 
L 1141 4863 
L 3606 4863 
L 3494 4284 
Q 1528 4284 1350 3375 
Q 1234 2778 2881 2750 
L 2778 2219 
Q 1009 2288 819 1275 
Q 659 428 2016 397 
z
" transform="scale(0.015625)"/>
      </defs>
      <use xlink:href="#DejaVuSans-Oblique-3be" transform="translate(0 0.015625)"/>
     </g>
    </g>
   </g>
   <g id="matplotlib.axis_2">
    <g id="ytick_1">
     <g id="line2d_10">
      <defs>
       <path id="m43b59e72aa" d="M 0 0 
L -4.8 0 
" style="stroke: #262626"/>
      </defs>
      <g>
       <use xlink:href="#m43b59e72aa" x="38.845375" y="233.155038" style="fill: #262626; stroke: #262626"/>
      </g>
     </g>
     <g id="text_11">
      <!-- −2 -->
      <g style="fill: #262626" transform="translate(20.512 236.304476) scale(0.088 -0.088)">
       <use xlink:href="#ArialMT-2212"/>
       <use xlink:href="#ArialMT-32" x="58.398438"/>
      </g>
     </g>
    </g>
    <g id="ytick_2">
     <g id="line2d_11">
      <g>
       <use xlink:href="#m43b59e72aa" x="38.845375" y="186.705538" style="fill: #262626; stroke: #262626"/>
      </g>
     </g>
     <g id="text_12">
      <!-- −1 -->
      <g style="fill: #262626" transform="translate(20.512 189.854976) scale(0.088 -0.088)">
       <use xlink:href="#ArialMT-2212"/>
       <use xlink:href="#ArialMT-31" x="58.398438"/>
      </g>
     </g>
    </g>
    <g id="ytick_3">
     <g id="line2d_12">
      <g>
       <use xlink:href="#m43b59e72aa" x="38.845375" y="140.256039" style="fill: #262626; stroke: #262626"/>
      </g>
     </g>
     <g id="text_13">
      <!-- 0 -->
      <g style="fill: #262626" transform="translate(25.65175 143.405476) scale(0.088 -0.088)">
       <use xlink:href="#ArialMT-30"/>
      </g>
     </g>
    </g>
    <g id="ytick_4">
     <g id="line2d_13">
      <g>
       <use xlink:href="#m43b59e72aa" x="38.845375" y="93.806539" style="fill: #262626; stroke: #262626"/>
      </g>
     </g>
     <g id="text_14">
      <!-- 1 -->
      <g style="fill: #262626" transform="translate(25.65175 96.955977) scale(0.088 -0.088)">
       <use xlink:href="#ArialMT-31"/>
      </g>
     </g>
    </g>
    <g id="ytick_5">
     <g id="line2d_14">
      <g>
       <use xlink:href="#m43b59e72aa" x="38.845375" y="47.357039" style="fill: #262626; stroke: #262626"/>
      </g>
     </g>
     <g id="text_15">
      <!-- 2 -->
      <g style="fill: #262626" transform="translate(25.65175 50.506477) scale(0.088 -0.088)">
       <use xlink:href="#ArialMT-32"/>
      </g>
     </g>
    </g>
    <g id="text_16">
     <!-- $\phi_i(\xi)$ -->
     <g style="fill: #262626" transform="translate(14.496 150.912) rotate(-90) scale(0.096 -0.096)">
      <defs>
       <path id="DejaVuSans-Oblique-3d5" d="M 2991 4863 
L 2738 3572 
Q 3363 3572 3684 3094 
Q 4016 2606 3850 1747 
Q 3681 888 3159 400 
Q 2653 -78 2028 -78 
L 1784 -1331 
L 1213 -1331 
L 1456 -78 
Q 834 -78 509 400 
Q 178 888 347 1747 
Q 513 2606 1034 3094 
Q 1544 3572 2166 3572 
L 2419 4863 
L 2991 4863 
z
M 2128 434 
Q 2481 434 2784 756 
Q 3116 1116 3244 1747 
Q 3369 2372 3169 2738 
Q 2991 3059 2638 3059 
L 2128 434 
z
M 1556 434 
L 2066 3059 
Q 1716 3059 1413 2738 
Q 1072 2372 953 1747 
Q 834 1116 1028 756 
Q 1203 434 1556 434 
z
" transform="scale(0.015625)"/>
       <path id="DejaVuSans-Oblique-69" d="M 1172 4863 
L 1747 4863 
L 1606 4134 
L 1031 4134 
L 1172 4863 
z
M 909 3500 
L 1484 3500 
L 800 0 
L 225 0 
L 909 3500 
z
" transform="scale(0.015625)"/>
       <path id="DejaVuSans-28" d="M 1984 4856 
Q 1566 4138 1362 3434 
Q 1159 2731 1159 2009 
Q 1159 1288 1364 580 
Q 1569 -128 1984 -844 
L 1484 -844 
Q 1016 -109 783 600 
Q 550 1309 550 2009 
Q 550 2706 781 3412 
Q 1013 4119 1484 4856 
L 1984 4856 
z
" transform="scale(0.015625)"/>
       <path id="DejaVuSans-29" d="M 513 4856 
L 1013 4856 
Q 1481 4119 1714 3412 
Q 1947 2706 1947 2009 
Q 1947 1309 1714 600 
Q 1481 -109 1013 -844 
L 513 -844 
Q 928 -128 1133 580 
Q 1338 1288 1338 2009 
Q 1338 2731 1133 3434 
Q 928 4138 513 4856 
z
" transform="scale(0.015625)"/>
      </defs>
      <use xlink:href="#DejaVuSans-Oblique-3d5" transform="translate(0 0.015625)"/>
      <use xlink:href="#DejaVuSans-Oblique-69" transform="translate(65.966797 -16.390625) scale(0.7)"/>
      <use xlink:href="#DejaVuSans-28" transform="translate(88.149414 0.015625)"/>
      <use xlink:href="#DejaVuSans-Oblique-3be" transform="translate(127.163086 0.015625)"/>
      <use xlink:href="#DejaVuSans-29" transform="translate(182.924805 0.015625)"/>
     </g>
    </g>
   </g>
   <g id="line2d_15">
    <path d="M 55.078102 93.806533 
L 58.357441 93.806533 
L 61.63678 93.806533 
L 64.916119 93.806533 
L 68.195458 93.806533 
L 71.474796 93.806533 
L 74.754135 93.806533 
L 78.033474 93.806533 
L 81.312813 93.806533 
L 84.592152 93.806533 
L 87.871491 93.806533 
L 91.15083 93.806533 
L 94.430168 93.806533 
L 97.709507 93.806533 
L 100.988846 93.806533 
L 104.268185 93.806533 
L 107.547524 93.806533 
L 110.826863 93.806533 
L 114.106201 93.806533 
L 117.38554 93.806533 
L 120.664879 93.806533 
L 123.944218 93.806533 
L 127.223557 93.806533 
L 130.502896 93.806533 
L 133.782235 93.806533 
L 137.061573 93.806533 
L 140.340912 93.806533 
L 143.620251 93.806533 
L 146.89959 93.806533 
L 150.178929 93.806533 
L 153.458268 93.806533 
L 156.737606 93.806533 
L 160.016945 93.806533 
L 163.296284 93.806533 
L 166.575623 93.806533 
L 169.854962 93.806533 
L 173.134301 93.806533 
L 176.413639 93.806533 
L 179.692978 93.806533 
L 182.972317 93.806533 
L 186.251656 93.806533 
L 189.530995 93.806533 
L 192.810334 93.806533 
L 196.089673 93.806533 
L 199.369011 93.806533 
L 202.64835 93.806533 
L 205.927689 93.806533 
L 209.207028 93.806533 
L 212.486367 93.806533 
L 215.765706 93.806533 
L 219.045044 93.806533 
L 222.324383 93.806533 
L 225.603722 93.806533 
L 228.883061 93.806533 
L 232.1624 93.806533 
L 235.441739 93.806533 
L 238.721077 93.806533 
L 242.000416 93.806533 
L 245.279755 93.806533 
L 248.559094 93.806533 
L 251.838433 93.806533 
L 255.117772 93.806533 
L 258.397111 93.806533 
L 261.676449 93.806533 
L 264.955788 93.806533 
L 268.235127 93.806533 
L 271.514466 93.806533 
L 274.793805 93.806533 
L 278.073144 93.806533 
L 281.352482 93.806533 
L 284.631821 93.806533 
L 287.91116 93.806533 
L 291.190499 93.806533 
L 294.469838 93.806533 
L 297.749177 93.806533 
L 301.028515 93.806533 
L 304.307854 93.806533 
L 307.587193 93.806533 
L 310.866532 93.806533 
L 314.145871 93.806533 
L 317.42521 93.806533 
L 320.704549 93.806533 
L 323.983887 93.806533 
L 327.263226 93.806533 
L 330.542565 93.806533 
L 333.821904 93.806533 
L 337.101243 93.806533 
L 340.380582 93.806533 
L 343.65992 93.806533 
L 346.939259 93.806533 
L 350.218598 93.806533 
L 353.497937 93.806533 
L 356.777276 93.806533 
L 360.056615 93.806533 
L 363.335954 93.806533 
L 366.615292 93.806533 
L 369.894631 93.806533 
L 373.17397 93.806533 
L 376.453309 93.806533 
L 379.732648 93.806533 
" clip-path="url(#p31d4630a46)" style="fill: none; stroke: #1f77b4; stroke-width: 1.2; stroke-linecap: round"/>
   </g>
   <g id="line2d_16">
    <path d="M 55.078102 223.347501 
L 58.357441 221.668884 
L 61.63678 219.990273 
L 64.916119 218.311656 
L 68.195458 216.633039 
L 71.474796 214.954428 
L 74.754135 213.275811 
L 78.033474 211.597188 
L 81.312813 209.918577 
L 84.592152 208.23996 
L 87.871491 206.561343 
L 91.15083 204.882732 
L 94.430168 203.204115 
L 97.709507 201.525498 
L 100.988846 199.846887 
L 104.268185 198.16827 
L 107.547524 196.489653 
L 110.826863 194.811042 
L 114.106201 193.132425 
L 117.38554 191.453808 
L 120.664879 189.775192 
L 123.944218 188.096575 
L 127.223557 186.417963 
L 130.502896 184.739347 
L 133.782235 183.06073 
L 137.061573 181.382118 
L 140.340912 179.703504 
L 143.620251 178.024887 
L 146.89959 176.346271 
L 150.178929 174.667657 
L 153.458268 172.989042 
L 156.737606 171.310426 
L 160.016945 169.631811 
L 163.296284 167.953197 
L 166.575623 166.274578 
L 169.854962 164.595964 
L 173.134301 162.91735 
L 176.413639 161.238733 
L 179.692978 159.560119 
L 182.972317 157.881503 
L 186.251656 156.202888 
L 189.530995 154.524272 
L 192.810334 152.845657 
L 196.089673 151.167041 
L 199.369011 149.488425 
L 202.64835 147.80981 
L 205.927689 146.131194 
L 209.207028 144.452579 
L 212.486367 142.773964 
L 215.765706 141.095348 
L 219.045044 139.416733 
L 222.324383 137.738117 
L 225.603722 136.059502 
L 228.883061 134.380887 
L 232.1624 132.702271 
L 235.441739 131.023656 
L 238.721077 129.345041 
L 242.000416 127.666425 
L 245.279755 125.987811 
L 248.559094 124.309195 
L 251.838433 122.630578 
L 255.117772 120.951964 
L 258.397111 119.27335 
L 261.676449 117.594732 
L 264.955788 115.916119 
L 268.235127 114.237502 
L 271.514466 112.558886 
L 274.793805 110.880272 
L 278.073144 109.201657 
L 281.352482 107.523041 
L 284.631821 105.844427 
L 287.91116 104.16581 
L 291.190499 102.487193 
L 294.469838 100.808579 
L 297.749177 99.129965 
L 301.028515 97.451348 
L 304.307854 95.772731 
L 307.587193 94.094114 
L 310.866532 92.415503 
L 314.145871 90.736886 
L 317.42521 89.058269 
L 320.704549 87.379652 
L 323.983887 85.701035 
L 327.263226 84.022424 
L 330.542565 82.343807 
L 333.821904 80.66519 
L 337.101243 78.986579 
L 340.380582 77.307962 
L 343.65992 75.629345 
L 346.939259 73.950734 
L 350.218598 72.272117 
L 353.497937 70.5935 
L 356.777276 68.914889 
L 360.056615 67.236267 
L 363.335954 65.55765 
L 366.615292 63.879039 
L 369.894631 62.200422 
L 373.17397 60.521805 
L 376.453309 58.843193 
L 379.732648 57.164577 
" clip-path="url(#p31d4630a46)" style="fill: none; stroke: #ff7f0e; stroke-width: 1.2; stroke-linecap: round"/>
   </g>
   <g id="line2d_17">
    <path d="M 55.078102 19.82538 
L 58.357441 26.831536 
L 61.63678 33.6947 
L 64.916119 40.414893 
L 68.195458 46.992115 
L 71.474796 53.426322 
L 74.754135 59.717564 
L 78.033474 65.86584 
L 81.312813 71.871101 
L 84.592152 77.733403 
L 87.871491 83.452711 
L 91.15083 89.029027 
L 94.430168 94.46238 
L 97.709507 99.752746 
L 100.988846 104.900113 
L 104.268185 109.904512 
L 107.547524 114.765932 
L 110.826863 119.484353 
L 114.106201 124.059805 
L 117.38554 128.492267 
L 120.664879 132.781754 
L 123.944218 136.928257 
L 127.223557 140.931765 
L 130.502896 144.792303 
L 133.782235 148.509858 
L 137.061573 152.084422 
L 140.340912 155.516005 
L 143.620251 158.804609 
L 146.89959 161.950231 
L 150.178929 164.952867 
L 153.458268 167.812522 
L 156.737606 170.529194 
L 160.016945 173.102885 
L 163.296284 175.533588 
L 166.575623 177.821317 
L 169.854962 179.966057 
L 173.134301 181.967817 
L 176.413639 183.826595 
L 179.692978 185.542386 
L 182.972317 187.115192 
L 186.251656 188.545022 
L 189.530995 189.831865 
L 192.810334 190.975731 
L 196.089673 191.97661 
L 199.369011 192.834507 
L 202.64835 193.549416 
L 205.927689 194.121355 
L 209.207028 194.5503 
L 212.486367 194.83627 
L 215.765706 194.979252 
L 219.045044 194.979252 
L 222.324383 194.83627 
L 225.603722 194.550306 
L 228.883061 194.121355 
L 232.1624 193.549422 
L 235.441739 192.834507 
L 238.721077 191.976615 
L 242.000416 190.975737 
L 245.279755 189.83187 
L 248.559094 188.545028 
L 251.838433 187.115198 
L 255.117772 185.542395 
L 258.397111 183.826601 
L 261.676449 181.967825 
L 264.955788 179.966065 
L 268.235127 177.821326 
L 271.514466 175.533602 
L 274.793805 173.102896 
L 278.073144 170.529211 
L 281.352482 167.812536 
L 284.631821 164.952881 
L 287.91116 161.950244 
L 291.190499 158.804622 
L 294.469838 155.51602 
L 297.749177 152.084437 
L 301.028515 148.509868 
L 304.307854 144.792314 
L 307.587193 140.931776 
L 310.866532 136.928269 
L 314.145871 132.781766 
L 317.42521 128.492279 
L 320.704549 124.059817 
L 323.983887 119.484365 
L 327.263226 114.765944 
L 330.542565 109.904526 
L 333.821904 104.900127 
L 337.101243 99.75276 
L 340.380582 94.462394 
L 343.65992 89.029044 
L 346.939259 83.452734 
L 350.218598 77.733419 
L 353.497937 71.871118 
L 356.777276 65.865857 
L 360.056615 59.717586 
L 363.335954 53.426338 
L 366.615292 46.992126 
L 369.894631 40.414915 
L 373.17397 33.694722 
L 376.453309 26.831569 
L 379.732648 19.825402 
" clip-path="url(#p31d4630a46)" style="fill: none; stroke: #2ca02c; stroke-width: 1.2; stroke-linecap: round"/>
   </g>
   <g id="line2d_18">
    <path d="M 55.078102 261.216 
L 58.357441 248.523326 
L 61.63678 236.458173 
L 64.916119 225.007535 
L 68.195458 214.158503 
L 71.474796 203.898205 
L 74.754135 194.21361 
L 78.033474 185.091809 
L 81.312813 176.519904 
L 84.592152 168.484897 
L 87.871491 160.973891 
L 91.15083 153.973947 
L 94.430168 147.47209 
L 97.709507 141.455413 
L 100.988846 135.910989 
L 104.268185 130.825848 
L 107.547524 126.187063 
L 110.826863 121.981718 
L 114.106201 118.196843 
L 117.38554 114.819522 
L 120.664879 111.836803 
L 123.944218 109.235753 
L 127.223557 107.003443 
L 130.502896 105.12692 
L 133.782235 103.593256 
L 137.061573 102.389508 
L 140.340912 101.502746 
L 143.620251 100.920023 
L 146.89959 100.628403 
L 150.178929 100.614954 
L 153.458268 100.866731 
L 156.737606 101.370797 
L 160.016945 102.114215 
L 163.296284 103.084046 
L 166.575623 104.267359 
L 169.854962 105.651208 
L 173.134301 107.222655 
L 176.413639 108.968771 
L 179.692978 110.876606 
L 182.972317 112.933229 
L 186.251656 115.125702 
L 189.530995 117.441085 
L 192.810334 119.866438 
L 196.089673 122.388829 
L 199.369011 124.995318 
L 202.64835 127.672964 
L 205.927689 130.40883 
L 209.207028 133.189981 
L 212.486367 136.003475 
L 215.765706 138.836377 
L 219.045044 141.675747 
L 222.324383 144.508649 
L 225.603722 147.322143 
L 228.883061 150.103292 
L 232.1624 152.839159 
L 235.441739 155.516804 
L 238.721077 158.123291 
L 242.000416 160.645681 
L 245.279755 163.071034 
L 248.559094 165.386417 
L 251.838433 167.57889 
L 255.117772 169.63551 
L 258.397111 171.543346 
L 261.676449 173.289458 
L 264.955788 174.860902 
L 268.235127 176.244751 
L 271.514466 177.428065 
L 274.793805 178.397896 
L 278.073144 179.141314 
L 281.352482 179.645377 
L 284.631821 179.897149 
L 287.91116 179.883699 
L 291.190499 179.592079 
L 294.469838 179.009354 
L 297.749177 178.122586 
L 301.028515 176.918838 
L 304.307854 175.385171 
L 307.587193 173.508646 
L 310.866532 171.27633 
L 314.145871 168.67528 
L 317.42521 165.692556 
L 320.704549 162.315233 
L 323.983887 158.530354 
L 327.263226 154.325002 
L 330.542565 149.686216 
L 333.821904 144.601072 
L 337.101243 139.056643 
L 340.380582 133.039963 
L 343.65992 126.538106 
L 346.939259 119.538163 
L 350.218598 112.027144 
L 353.497937 103.992132 
L 356.777276 95.420224 
L 360.056615 86.298418 
L 363.335954 76.613817 
L 366.615292 66.353497 
L 369.894631 55.504487 
L 373.17397 44.053849 
L 376.453309 31.988696 
L 379.732648 19.296 
" clip-path="url(#p31d4630a46)" style="fill: none; stroke: #d62728; stroke-width: 1.2; stroke-linecap: round"/>
   </g>
   <g id="line2d_19">
    <path d="M 55.078102 77.891723 
L 58.357441 93.657455 
L 61.63678 107.845846 
L 64.916119 120.53465 
L 68.195458 131.79984 
L 71.474796 141.715813 
L 74.754135 150.355458 
L 78.033474 157.789914 
L 81.312813 164.088763 
L 84.592152 169.319986 
L 87.871491 173.549893 
L 91.15083 176.843213 
L 94.430168 179.263055 
L 97.709507 180.87089 
L 100.988846 181.726588 
L 104.268185 181.888402 
L 107.547524 181.412955 
L 110.826863 180.355267 
L 114.106201 178.76872 
L 117.38554 176.705101 
L 120.664879 174.214555 
L 123.944218 171.345631 
L 127.223557 168.145261 
L 130.502896 164.658728 
L 133.782235 160.929722 
L 137.061573 157.000327 
L 140.340912 152.910977 
L 143.620251 148.700507 
L 146.89959 144.406131 
L 150.178929 140.063448 
L 153.458268 135.706433 
L 156.737606 131.367445 
L 160.016945 127.077228 
L 163.296284 122.864913 
L 166.575623 118.757985 
L 169.854962 114.782353 
L 173.134301 110.962278 
L 176.413639 107.320409 
L 179.692978 103.877789 
L 182.972317 100.653828 
L 186.251656 97.666322 
L 189.530995 94.931454 
L 192.810334 92.463787 
L 196.089673 90.276262 
L 199.369011 88.38021 
L 202.64835 86.785338 
L 205.927689 85.499713 
L 209.207028 84.529843 
L 212.486367 83.880566 
L 215.765706 83.555117 
L 219.045044 83.555111 
L 222.324383 83.880561 
L 225.603722 84.529832 
L 228.883061 85.499697 
L 232.1624 86.78531 
L 235.441739 88.380188 
L 238.721077 90.276234 
L 242.000416 92.463754 
L 245.279755 94.931421 
L 248.559094 97.66628 
L 251.838433 100.653786 
L 255.117772 103.877739 
L 258.397111 107.320354 
L 261.676449 110.962222 
L 264.955788 114.782292 
L 268.235127 118.757923 
L 271.514466 122.864847 
L 274.793805 127.077162 
L 278.073144 131.367372 
L 281.352482 135.70636 
L 284.631821 140.063372 
L 287.91116 144.406058 
L 291.190499 148.700435 
L 294.469838 152.910902 
L 297.749177 157.00025 
L 301.028515 160.929648 
L 304.307854 164.658653 
L 307.587193 168.145192 
L 310.866532 171.345562 
L 314.145871 174.214488 
L 317.42521 176.705032 
L 320.704549 178.768662 
L 323.983887 180.355209 
L 327.263226 181.412905 
L 330.542565 181.888352 
L 333.821904 181.72655 
L 337.101243 180.870857 
L 340.380582 179.263022 
L 343.65992 176.843191 
L 346.939259 173.549887 
L 350.218598 169.319983 
L 353.497937 164.088766 
L 356.777276 157.789929 
L 360.056615 150.355475 
L 363.335954 141.715848 
L 366.615292 131.799871 
L 369.894631 120.534713 
L 373.17397 107.845943 
L 376.453309 93.657555 
L 379.732648 77.891817 
" clip-path="url(#p31d4630a46)" style="fill: none; stroke: #9467bd; stroke-width: 1.2; stroke-linecap: round"/>
   </g>
   <g id="line2d_20">
    <path d="M 55.078102 119.686424 
L 58.357441 108.610593 
L 61.63678 99.807249 
L 64.916119 93.067748 
L 68.195458 88.193656 
L 71.474796 84.996359 
L 74.754135 83.296933 
L 78.033474 82.925973 
L 81.312813 83.723254 
L 84.592152 85.537649 
L 87.871491 88.226873 
L 91.15083 91.657204 
L 94.430168 95.703394 
L 97.709507 100.248351 
L 100.988846 105.182946 
L 104.268185 110.405868 
L 107.547524 115.823335 
L 110.826863 121.348869 
L 114.106201 126.903207 
L 117.38554 132.413923 
L 120.664879 137.815352 
L 123.944218 143.048281 
L 127.223557 148.059775 
L 130.502896 152.803008 
L 133.782235 157.236961 
L 137.061573 161.326272 
L 140.340912 165.041001 
L 143.620251 168.356434 
L 146.89959 171.252858 
L 150.178929 173.715323 
L 153.458268 175.733478 
L 156.737606 177.301343 
L 160.016945 178.41706 
L 163.296284 179.082725 
L 166.575623 179.304161 
L 169.854962 179.090696 
L 173.134301 178.454957 
L 176.413639 177.412663 
L 179.692978 175.982395 
L 182.972317 174.185407 
L 186.251656 172.045388 
L 189.530995 169.588272 
L 192.810334 166.842015 
L 196.089673 163.836369 
L 199.369011 160.602693 
L 202.64835 157.173731 
L 205.927689 153.583395 
L 209.207028 149.866547 
L 212.486367 146.058805 
L 215.765706 142.196313 
L 219.045044 138.315537 
L 222.324383 134.453046 
L 225.603722 130.645305 
L 228.883061 126.928463 
L 232.1624 123.338126 
L 235.441739 119.909172 
L 238.721077 116.675501 
L 242.000416 113.669864 
L 245.279755 110.923611 
L 248.559094 108.466504 
L 251.838433 106.326496 
L 255.117772 104.529513 
L 258.397111 103.099257 
L 261.676449 102.056971 
L 264.955788 101.421246 
L 268.235127 101.20779 
L 271.514466 101.429237 
L 274.793805 102.094917 
L 278.073144 103.210641 
L 281.352482 104.778522 
L 284.631821 106.796694 
L 287.91116 109.259172 
L 291.190499 112.155605 
L 294.469838 115.471055 
L 297.749177 119.185799 
L 301.028515 123.275121 
L 304.307854 127.709088 
L 307.587193 132.452334 
L 310.866532 137.46384 
L 314.145871 142.696779 
L 317.42521 148.098218 
L 320.704549 153.608949 
L 323.983887 159.163294 
L 327.263226 164.688845 
L 330.542565 170.106309 
L 333.821904 175.329245 
L 337.101243 180.263842 
L 340.380582 184.808797 
L 343.65992 188.854996 
L 346.939259 192.285326 
L 350.218598 194.974545 
L 353.497937 196.78894 
L 356.777276 197.586215 
L 360.056615 197.215239 
L 363.335954 195.515813 
L 366.615292 192.318499 
L 369.894631 187.444385 
L 373.17397 180.704884 
L 376.453309 171.901509 
L 379.732648 160.825633 
" clip-path="url(#p31d4630a46)" style="fill: none; stroke: #8c564b; stroke-width: 1.2; stroke-linecap: round"/>
   </g>
   <g id="line2d_21">
    <path d="M 55.078102 229.199199 
L 58.357441 227.028938 
L 61.63678 223.017893 
L 64.916119 217.522061 
L 68.195458 210.865114 
L 71.474796 203.339998 
L 74.754135 195.210286 
L 78.033474 186.711923 
L 81.312813 178.054608 
L 84.592152 169.423133 
L 87.871491 160.978942 
L 91.15083 152.861461 
L 94.430168 145.189354 
L 97.709507 138.061949 
L 100.988846 131.560475 
L 104.268185 125.749219 
L 107.547524 120.676859 
L 110.826863 116.37758 
L 114.106201 112.872164 
L 117.38554 110.169194 
L 120.664879 108.26604 
L 123.944218 107.149957 
L 127.223557 106.799064 
L 130.502896 107.183311 
L 133.782235 108.265445 
L 137.061573 110.001859 
L 140.340912 112.343552 
L 143.620251 115.236872 
L 146.89959 118.624382 
L 150.178929 122.445613 
L 153.458268 126.637801 
L 156.737606 131.136578 
L 160.016945 135.876672 
L 163.296284 140.792511 
L 166.575623 145.81887 
L 169.854962 150.891369 
L 173.134301 155.947087 
L 176.413639 160.925025 
L 179.692978 165.766564 
L 182.972317 170.415939 
L 186.251656 174.820611 
L 189.530995 178.931639 
L 192.810334 182.704025 
L 196.089673 186.097016 
L 199.369011 189.074352 
L 202.64835 191.604531 
L 205.927689 193.661013 
L 209.207028 195.222313 
L 212.486367 196.272235 
L 215.765706 196.799926 
L 219.045044 196.799937 
L 222.324383 196.272262 
L 225.603722 195.222357 
L 228.883061 193.661079 
L 232.1624 191.60462 
L 235.441739 189.074446 
L 238.721077 186.097126 
L 242.000416 182.704153 
L 245.279755 178.93178 
L 248.559094 174.820769 
L 251.838433 170.416105 
L 255.117772 165.766746 
L 258.397111 160.925217 
L 261.676449 155.947285 
L 264.955788 150.891576 
L 268.235127 145.81908 
L 271.514466 140.792725 
L 274.793805 135.876888 
L 278.073144 131.136795 
L 281.352482 126.638014 
L 284.631821 122.445827 
L 287.91116 118.624587 
L 291.190499 115.237063 
L 294.469838 112.343737 
L 297.749177 110.002037 
L 301.028515 108.265606 
L 304.307854 107.18346 
L 307.587193 106.799194 
L 310.866532 107.150073 
L 314.145871 108.266134 
L 317.42521 110.169271 
L 320.704549 112.87222 
L 323.983887 116.377613 
L 327.263226 120.676874 
L 330.542565 125.749208 
L 333.821904 131.560441 
L 337.101243 138.061888 
L 340.380582 145.189271 
L 343.65992 152.861359 
L 346.939259 160.978808 
L 350.218598 169.422978 
L 353.497937 178.054442 
L 356.777276 186.71174 
L 360.056615 195.210087 
L 363.335954 203.339788 
L 366.615292 210.864903 
L 369.894631 217.521822 
L 373.17397 223.017655 
L 376.453309 227.0287 
L 379.732648 229.198966 
" clip-path="url(#p31d4630a46)" style="fill: none; stroke: #e377c2; stroke-width: 1.2; stroke-linecap: round"/>
   </g>
   <g id="line2d_22">
    <path d="M 55.078102 54.861102 
L 58.357441 69.401394 
L 61.63678 83.859381 
L 64.916119 97.901734 
L 68.195458 111.254227 
L 71.474796 123.696636 
L 74.754135 135.05783 
L 78.033474 145.210688 
L 81.312813 154.067815 
L 84.592152 161.577242 
L 87.871491 167.718237 
L 91.15083 172.497618 
L 94.430168 175.946121 
L 97.709507 178.114992 
L 100.988846 179.072866 
L 104.268185 178.902793 
L 107.547524 177.699479 
L 110.826863 175.566761 
L 114.106201 172.615178 
L 117.38554 168.959868 
L 120.664879 164.718499 
L 123.944218 160.009501 
L 127.223557 154.950382 
L 130.502896 149.656195 
L 133.782235 144.238276 
L 137.061573 138.803031 
L 140.340912 133.450868 
L 143.620251 128.275337 
L 146.89959 123.36235 
L 150.178929 118.789582 
L 153.458268 114.625924 
L 156.737606 110.931109 
L 160.016945 107.755462 
L 163.296284 105.139717 
L 166.575623 103.11493 
L 169.854962 101.70257 
L 173.134301 100.914586 
L 176.413639 100.753661 
L 179.692978 101.213482 
L 182.972317 102.279107 
L 186.251656 103.927408 
L 189.530995 106.127566 
L 192.810334 108.84162 
L 196.089673 112.025098 
L 199.369011 115.627664 
L 202.64835 119.593787 
L 205.927689 123.863527 
L 209.207028 128.373268 
L 212.486367 133.056509 
L 215.765706 137.844683 
L 219.045044 142.667972 
L 222.324383 147.456142 
L 225.603722 152.139377 
L 228.883061 156.649105 
L 232.1624 160.918836 
L 235.441739 164.88494 
L 238.721077 168.487483 
L 242.000416 171.670937 
L 245.279755 174.384968 
L 248.559094 176.585099 
L 251.838433 178.233369 
L 255.117772 179.298964 
L 258.397111 179.758752 
L 261.676449 179.597796 
L 264.955788 178.809773 
L 268.235127 177.39738 
L 271.514466 175.372555 
L 274.793805 172.756767 
L 278.073144 169.581091 
L 281.352482 165.886234 
L 284.631821 161.722536 
L 287.91116 157.14973 
L 291.190499 152.23671 
L 294.469838 147.061148 
L 297.749177 141.708955 
L 301.028515 136.273686 
L 304.307854 130.855743 
L 307.587193 125.561533 
L 310.866532 120.5024 
L 314.145871 115.793387 
L 317.42521 111.55201 
L 320.704549 107.896692 
L 323.983887 104.945109 
L 327.263226 102.812391 
L 330.542565 101.609088 
L 333.821904 101.439026 
L 337.101243 102.396914 
L 340.380582 104.565815 
L 343.65992 108.014338 
L 346.939259 112.793744 
L 350.218598 118.934775 
L 353.497937 126.444243 
L 356.777276 135.30141 
L 360.056615 145.454319 
L 363.335954 156.81555 
L 366.615292 169.258014 
L 369.894631 182.610538 
L 373.17397 196.652918 
L 376.453309 211.110955 
L 379.732648 225.651308 
" clip-path="url(#p31d4630a46)" style="fill: none; stroke: #7f7f7f; stroke-width: 1.2; stroke-linecap: round"/>
   </g>
   <g id="line2d_23">
    <path d="M 55.078102 150.884911 
L 58.357441 134.662873 
L 61.63678 121.018246 
L 64.916119 109.954884 
L 68.195458 101.415072 
L 71.474796 95.290025 
L 74.754135 91.42984 
L 78.033474 89.652473 
L 81.312813 89.751617 
L 84.592152 91.504045 
L 87.871491 94.676025 
L 91.15083 99.028941 
L 94.430168 104.324404 
L 97.709507 110.328538 
L 100.988846 116.815689 
L 104.268185 123.571716 
L 107.547524 130.396474 
L 110.826863 137.105986 
L 114.106201 143.534214 
L 117.38554 149.534123 
L 120.664879 154.978681 
L 123.944218 159.761232 
L 127.223557 163.795695 
L 130.502896 167.016462 
L 133.782235 169.377883 
L 137.061573 170.853725 
L 140.340912 171.436212 
L 143.620251 171.135037 
L 146.89959 169.976146 
L 150.178929 168.000352 
L 153.458268 165.26193 
L 156.737606 161.827049 
L 160.016945 157.772154 
L 163.296284 153.18233 
L 166.575623 148.149582 
L 169.854962 142.771202 
L 173.134301 137.14802 
L 176.413639 131.382775 
L 179.692978 125.578519 
L 182.972317 119.837009 
L 186.251656 114.257248 
L 189.530995 108.934066 
L 192.810334 103.956799 
L 196.089673 99.408057 
L 199.369011 95.362642 
L 202.64835 91.886561 
L 205.927689 89.03612 
L 209.207028 86.85731 
L 212.486367 85.385099 
L 215.765706 84.643046 
L 219.045044 84.643013 
L 222.324383 85.385016 
L 225.603722 86.857178 
L 228.883061 89.035938 
L 232.1624 91.886317 
L 235.441739 95.362365 
L 238.721077 99.407731 
L 242.000416 103.956434 
L 245.279755 108.93367 
L 248.559094 114.256819 
L 251.838433 119.836557 
L 255.117772 125.57804 
L 258.397111 131.38228 
L 261.676449 137.147519 
L 264.955788 142.770693 
L 268.235127 148.14908 
L 271.514466 153.181835 
L 274.793805 157.771673 
L 278.073144 161.826587 
L 281.352482 165.261492 
L 284.631821 167.99994 
L 287.91116 169.975772 
L 291.190499 171.13471 
L 294.469838 171.435921 
L 297.749177 170.853487 
L 301.028515 169.377698 
L 304.307854 167.016323 
L 307.587193 163.795615 
L 310.866532 159.761203 
L 314.145871 154.978709 
L 317.42521 149.5342 
L 320.704549 143.53434 
L 323.983887 137.10616 
L 327.263226 130.396681 
L 330.542565 123.571965 
L 333.821904 116.815969 
L 337.101243 110.32884 
L 340.380582 104.324728 
L 343.65992 99.029262 
L 346.939259 94.676352 
L 350.218598 91.50436 
L 353.497937 89.751899 
L 356.777276 89.652722 
L 360.056615 91.430051 
L 363.335954 95.290169 
L 366.615292 101.41515 
L 369.894631 109.954895 
L 373.17397 121.018146 
L 376.453309 134.662686 
L 379.732648 150.88465 
" clip-path="url(#p31d4630a46)" style="fill: none; stroke: #bcbd22; stroke-width: 1.2; stroke-linecap: round"/>
   </g>
   <g id="line2d_24">
    <path d="M 55.078102 208.243609 
L 58.357441 211.936675 
L 61.63678 212.365227 
L 64.916119 210.001896 
L 68.195458 205.325155 
L 71.474796 198.807359 
L 74.754135 190.904445 
L 78.033474 182.048001 
L 81.312813 172.638728 
L 84.592152 163.041373 
L 87.871491 153.581364 
L 91.15083 144.542426 
L 94.430168 136.165275 
L 97.709507 128.647453 
L 100.988846 122.143877 
L 104.268185 116.768011 
L 107.547524 112.593922 
L 110.826863 109.658566 
L 114.106201 107.964617 
L 117.38554 107.483646 
L 120.664879 108.159452 
L 123.944218 109.911636 
L 127.223557 112.63925 
L 130.502896 116.224495 
L 133.782235 120.536383 
L 137.061573 125.434303 
L 140.340912 130.771601 
L 143.620251 136.398838 
L 146.89959 142.166977 
L 150.178929 147.93029 
L 153.458268 153.549077 
L 156.737606 158.892076 
L 160.016945 163.8386 
L 163.296284 168.280391 
L 166.575623 172.123216 
L 169.854962 175.288029 
L 173.134301 177.711991 
L 176.413639 179.349067 
L 179.692978 180.170366 
L 182.972317 180.164189 
L 186.251656 179.335797 
L 189.530995 177.70691 
L 192.810334 175.31494 
L 196.089673 172.212008 
L 199.369011 168.463748 
L 202.64835 164.147909 
L 205.927689 159.352778 
L 209.207028 154.175467 
L 212.486367 148.720098 
L 215.765706 143.095849 
L 219.045044 137.414967 
L 222.324383 131.790728 
L 225.603722 126.335379 
L 228.883061 121.158102 
L 232.1624 116.363008 
L 235.441739 112.047222 
L 238.721077 108.29902 
L 242.000416 105.196157 
L 245.279755 102.804262 
L 248.559094 101.175452 
L 251.838433 100.347149 
L 255.117772 100.341061 
L 258.397111 101.162448 
L 261.676449 102.799619 
L 264.955788 105.223677 
L 268.235127 108.388579 
L 271.514466 112.231498 
L 274.793805 116.673383 
L 278.073144 121.619985 
L 281.352482 126.963067 
L 284.631821 132.581928 
L 287.91116 138.345312 
L 291.190499 144.113512 
L 294.469838 149.740794 
L 297.749177 155.078133 
L 301.028515 159.97608 
L 304.307854 164.287981 
L 307.587193 167.873237 
L 310.866532 170.60084 
L 314.145871 172.353013 
L 317.42521 173.028786 
L 320.704549 172.547779 
L 323.983887 170.853788 
L 327.263226 167.918371 
L 330.542565 163.744216 
L 333.821904 158.368285 
L 337.101243 151.864633 
L 340.380582 144.346731 
L 343.65992 135.969495 
L 346.939259 126.930488 
L 350.218598 117.470404 
L 353.497937 107.872965 
L 356.777276 98.463628 
L 360.056615 89.607129 
L 363.335954 81.704176 
L 366.615292 75.186341 
L 369.894631 70.509617 
L 373.17397 68.146291 
L 376.453309 68.574882 
L 379.732648 72.268025 
" clip-path="url(#p31d4630a46)" style="fill: none; stroke: #17becf; stroke-width: 1.2; stroke-linecap: round"/>
   </g>
   <g id="line2d_25">
    <path d="M 55.078102 58.76266 
L 58.357441 72.298901 
L 61.63678 86.742917 
L 64.916119 101.419851 
L 68.195458 115.749444 
L 71.474796 129.247612 
L 74.754135 141.525538 
L 78.033474 152.286246 
L 81.312813 161.320065 
L 84.592152 168.498502 
L 87.871491 173.766968 
L 91.15083 177.137073 
L 94.430168 178.67824 
L 97.709507 178.509097 
L 100.988846 176.788885 
L 104.268185 173.708852 
L 107.547524 169.484023 
L 110.826863 164.345322 
L 114.106201 158.532029 
L 117.38554 152.2851 
L 120.664879 145.840798 
L 123.944218 139.425257 
L 127.223557 133.249607 
L 130.502896 127.50584 
L 133.782235 122.363549 
L 137.061573 117.967238 
L 140.340912 114.43445 
L 143.620251 111.854566 
L 146.89959 110.288233 
L 150.178929 109.767522 
L 153.458268 110.296533 
L 156.737606 111.852606 
L 160.016945 114.388032 
L 163.296284 117.832105 
L 166.575623 122.093614 
L 169.854962 127.063547 
L 173.134301 132.618137 
L 176.413639 138.621998 
L 179.692978 144.931379 
L 182.972317 151.397551 
L 186.251656 157.870086 
L 189.530995 164.200125 
L 192.810334 170.243554 
L 196.089673 175.863966 
L 199.369011 180.935443 
L 202.64835 185.345079 
L 205.927689 188.995237 
L 209.207028 191.805394 
L 212.486367 193.713794 
L 215.765706 194.678592 
L 219.045044 194.678653 
L 222.324383 193.713971 
L 225.603722 191.805682 
L 228.883061 188.995635 
L 232.1624 185.345588 
L 235.441739 180.936041 
L 238.721077 175.864655 
L 242.000416 170.244318 
L 245.279755 164.200953 
L 248.559094 157.870967 
L 251.838433 151.398472 
L 255.117772 144.932332 
L 258.397111 138.622963 
L 261.676449 132.619097 
L 264.955788 127.064495 
L 268.235127 122.094526 
L 271.514466 117.832975 
L 274.793805 114.388846 
L 278.073144 111.853351 
L 281.352482 110.297203 
L 284.631821 109.768111 
L 287.91116 110.288726 
L 291.190499 111.854954 
L 294.469838 114.434744 
L 297.749177 117.96742 
L 301.028515 122.363621 
L 304.307854 127.505812 
L 307.587193 133.249481 
L 310.866532 139.425038 
L 314.145871 145.840496 
L 317.42521 152.284726 
L 320.704549 158.531598 
L 323.983887 164.344848 
L 327.263226 169.483531 
L 330.542565 173.70834 
L 333.821904 176.788381 
L 337.101243 178.508621 
L 340.380582 178.677802 
L 343.65992 177.136697 
L 346.939259 173.766672 
L 350.218598 168.498303 
L 353.497937 161.319971 
L 356.777276 152.286272 
L 360.056615 141.525684 
L 363.335954 129.247905 
L 366.615292 115.749859 
L 369.894631 101.42041 
L 373.17397 86.743609 
L 376.453309 72.299704 
L 379.732648 58.763541 
" clip-path="url(#p31d4630a46)" style="fill: none; stroke: #1f77b4; stroke-width: 1.2; stroke-linecap: round"/>
   </g>
   <g id="patch_3">
    <path d="M 38.845375 233.155038 
L 38.845375 47.357039 
" style="fill: none; stroke: #262626; stroke-linejoin: miter; stroke-linecap: square"/>
   </g>
   <g id="patch_4">
    <path d="M 55.078102 273.312 
L 379.732648 273.312 
" style="fill: none; stroke: #262626; stroke-linejoin: miter; stroke-linecap: square"/>
   </g>
  </g>
 </g>
 <defs>
  <clipPath id="p31d4630a46">
   <rect x="38.845375" y="7.2" width="357.12" height="266.112"/>
  </clipPath>
 </defs>
</svg>