<?xml version="1.0" encoding="utf-8" standalone="no"?>
<!DOCTYPE svg PUBLIC "-//W3C//DTD SVG 1.1//EN"
  "http://www.w3.org/Graphics/SVG/1.1/DTD/svg11.dtd">
<svg xmlns:xlink="http://www.w3.org/1999/xlink" width="212.912875pt" height="157.556812pt" viewBox="0 0 212.912875 157.556812" xmlns="http://www.w3.org/2000/svg" version="1.1">
 <metadata>
  <rdf:RDF xmlns:dc="http://purl.org/dc/elements/1.1/" xmlns:cc="http://creativecommons.org/ns#" xmlns:rdf="http://www.w3.org/1999/02/22-rdf-syntax-ns#">
   <cc:Work>
    <dc:type rdf:resource="http://purl.org/dc/dcmitype/StillImage"/>
    <dc:date>2025-02-27T12:25:04.007306</dc:date>
    <dc:format>image/svg+xml</dc:format>
    <dc:creator>
     <cc:Agent>
      <dc:title>Matplotlib v3.9.2, https://matplotlib.org/</dc:title>
     </cc:Agent>
    </dc:creator>
   </cc:Work>
  </rdf:RDF>
 </metadata>
 <defs>
  <style type="text/css">*{stroke-linejoin: round; stroke-linecap: butt}</style>
 </defs>
 <g id="figure_1">
  <g id="patch_1">
   <path d="M 0 157.556812 
L 212.912875 157.556812 
L 212.912875 0 
L 0 0 
z
" style="fill: #ffffff"/>
  </g>
  <g id="axes_1">
   <g id="patch_2">
    <path d="M 38.312875 121.229437 
L 205.712875 121.229437 
L 205.712875 10.349437 
L 38.312875 10.349437 
z
" style="fill: #ffffff"/>
   </g>
   <g id="matplotlib.axis_1">
    <g id="xtick_1">
     <g id="line2d_1">
      <defs>
       <path id="mc7b69a8040" d="M 0 0 
L 0 4.8 
" style="stroke: #262626"/>
      </defs>
      <g>
       <use xlink:href="#mc7b69a8040" x="45.921966" y="121.229437" style="fill: #262626; stroke: #262626"/>
      </g>
     </g>
     <g id="text_1">
      <!-- 0.0 -->
      <g style="fill: #262626" transform="translate(39.805966 135.828312) scale(0.088 -0.088)">
       <defs>
        <path id="ArialMT-30" d="M 266 2259 
Q 266 3072 433 3567 
Q 600 4063 929 4331 
Q 1259 4600 1759 4600 
Q 2128 4600 2406 4451 
Q 2684 4303 2865 4023 
Q 3047 3744 3150 3342 
Q 3253 2941 3253 2259 
Q 3253 1453 3087 958 
Q 2922 463 2592 192 
Q 2263 -78 1759 -78 
Q 1097 -78 719 397 
Q 266 969 266 2259 
z
M 844 2259 
Q 844 1131 1108 757 
Q 1372 384 1759 384 
Q 2147 384 2411 759 
Q 2675 1134 2675 2259 
Q 2675 3391 2411 3762 
Q 2147 4134 1753 4134 
Q 1366 4134 1134 3806 
Q 844 3388 844 2259 
z
" transform="scale(0.015625)"/>
        <path id="ArialMT-2e" d="M 581 0 
L 581 641 
L 1222 641 
L 1222 0 
L 581 0 
z
" transform="scale(0.015625)"/>
       </defs>
       <use xlink:href="#ArialMT-30"/>
       <use xlink:href="#ArialMT-2e" x="55.615234"/>
       <use xlink:href="#ArialMT-30" x="83.398438"/>
      </g>
     </g>
    </g>
    <g id="xtick_2">
     <g id="line2d_2">
      <g>
       <use xlink:href="#mc7b69a8040" x="76.35833" y="121.229437" style="fill: #262626; stroke: #262626"/>
      </g>
     </g>
     <g id="text_2">
      <!-- 0.2 -->
      <g style="fill: #262626" transform="translate(70.24233 135.828312) scale(0.088 -0.088)">
       <defs>
        <path id="ArialMT-32" d="M 3222 541 
L 3222 0 
L 194 0 
Q 188 203 259 391 
Q 375 700 629 1000 
Q 884 1300 1366 1694 
Q 2113 2306 2375 2664 
Q 2638 3022 2638 3341 
Q 2638 3675 2398 3904 
Q 2159 4134 1775 4134 
Q 1369 4134 1125 3890 
Q 881 3647 878 3216 
L 300 3275 
Q 359 3922 746 4261 
Q 1134 4600 1788 4600 
Q 2447 4600 2831 4234 
Q 3216 3869 3216 3328 
Q 3216 3053 3103 2787 
Q 2991 2522 2730 2228 
Q 2469 1934 1863 1422 
Q 1356 997 1212 845 
Q 1069 694 975 541 
L 3222 541 
z
" transform="scale(0.015625)"/>
       </defs>
       <use xlink:href="#ArialMT-30"/>
       <use xlink:href="#ArialMT-2e" x="55.615234"/>
       <use xlink:href="#ArialMT-32" x="83.398438"/>
      </g>
     </g>
    </g>
    <g id="xtick_3">
     <g id="line2d_3">
      <g>
       <use xlink:href="#mc7b69a8040" x="106.794693" y="121.229437" style="fill: #262626; stroke: #262626"/>
      </g>
     </g>
     <g id="text_3">
      <!-- 0.4 -->
      <g style="fill: #262626" transform="translate(100.678693 135.828312) scale(0.088 -0.088)">
       <defs>
        <path id="ArialMT-34" d="M 2069 0 
L 2069 1097 
L 81 1097 
L 81 1613 
L 2172 4581 
L 2631 4581 
L 2631 1613 
L 3250 1613 
L 3250 1097 
L 2631 1097 
L 2631 0 
L 2069 0 
z
M 2069 1613 
L 2069 3678 
L 634 1613 
L 2069 1613 
z
" transform="scale(0.015625)"/>
       </defs>
       <use xlink:href="#ArialMT-30"/>
       <use xlink:href="#ArialMT-2e" x="55.615234"/>
       <use xlink:href="#ArialMT-34" x="83.398438"/>
      </g>
     </g>
    </g>
    <g id="xtick_4">
     <g id="line2d_4">
      <g>
       <use xlink:href="#mc7b69a8040" x="137.231057" y="121.229437" style="fill: #262626; stroke: #262626"/>
      </g>
     </g>
     <g id="text_4">
      <!-- 0.6 -->
      <g style="fill: #262626" transform="translate(131.115057 135.828312) scale(0.088 -0.088)">
       <defs>
        <path id="ArialMT-36" d="M 3184 3459 
L 2625 3416 
Q 2550 3747 2413 3897 
Q 2184 4138 1850 4138 
Q 1581 4138 1378 3988 
Q 1113 3794 959 3422 
Q 806 3050 800 2363 
Q 1003 2672 1297 2822 
Q 1591 2972 1913 2972 
Q 2475 2972 2870 2558 
Q 3266 2144 3266 1488 
Q 3266 1056 3080 686 
Q 2894 316 2569 119 
Q 2244 -78 1831 -78 
Q 1128 -78 684 439 
Q 241 956 241 2144 
Q 241 3472 731 4075 
Q 1159 4600 1884 4600 
Q 2425 4600 2770 4297 
Q 3116 3994 3184 3459 
z
M 888 1484 
Q 888 1194 1011 928 
Q 1134 663 1356 523 
Q 1578 384 1822 384 
Q 2178 384 2434 671 
Q 2691 959 2691 1453 
Q 2691 1928 2437 2201 
Q 2184 2475 1800 2475 
Q 1419 2475 1153 2201 
Q 888 1928 888 1484 
z
" transform="scale(0.015625)"/>
       </defs>
       <use xlink:href="#ArialMT-30"/>
       <use xlink:href="#ArialMT-2e" x="55.615234"/>
       <use xlink:href="#ArialMT-36" x="83.398438"/>
      </g>
     </g>
    </g>
    <g id="xtick_5">
     <g id="line2d_5">
      <g>
       <use xlink:href="#mc7b69a8040" x="167.66742" y="121.229437" style="fill: #262626; stroke: #262626"/>
      </g>
     </g>
     <g id="text_5">
      <!-- 0.8 -->
      <g style="fill: #262626" transform="translate(161.55142 135.828312) scale(0.088 -0.088)">
       <defs>
        <path id="ArialMT-38" d="M 1131 2484 
Q 781 2613 612 2850 
Q 444 3088 444 3419 
Q 444 3919 803 4259 
Q 1163 4600 1759 4600 
Q 2359 4600 2725 4251 
Q 3091 3903 3091 3403 
Q 3091 3084 2923 2848 
Q 2756 2613 2416 2484 
Q 2838 2347 3058 2040 
Q 3278 1734 3278 1309 
Q 3278 722 2862 322 
Q 2447 -78 1769 -78 
Q 1091 -78 675 323 
Q 259 725 259 1325 
Q 259 1772 486 2073 
Q 713 2375 1131 2484 
z
M 1019 3438 
Q 1019 3113 1228 2906 
Q 1438 2700 1772 2700 
Q 2097 2700 2305 2904 
Q 2513 3109 2513 3406 
Q 2513 3716 2298 3927 
Q 2084 4138 1766 4138 
Q 1444 4138 1231 3931 
Q 1019 3725 1019 3438 
z
M 838 1322 
Q 838 1081 952 856 
Q 1066 631 1291 507 
Q 1516 384 1775 384 
Q 2178 384 2440 643 
Q 2703 903 2703 1303 
Q 2703 1709 2433 1975 
Q 2163 2241 1756 2241 
Q 1359 2241 1098 1978 
Q 838 1716 838 1322 
z
" transform="scale(0.015625)"/>
       </defs>
       <use xlink:href="#ArialMT-30"/>
       <use xlink:href="#ArialMT-2e" x="55.615234"/>
       <use xlink:href="#ArialMT-38" x="83.398438"/>
      </g>
     </g>
    </g>
    <g id="xtick_6">
     <g id="line2d_6">
      <g>
       <use xlink:href="#mc7b69a8040" x="198.103784" y="121.229437" style="fill: #262626; stroke: #262626"/>
      </g>
     </g>
     <g id="text_6">
      <!-- 1.0 -->
      <g style="fill: #262626" transform="translate(191.987784 135.828312) scale(0.088 -0.088)">
       <defs>
        <path id="ArialMT-31" d="M 2384 0 
L 1822 0 
L 1822 3584 
Q 1619 3391 1289 3197 
Q 959 3003 697 2906 
L 697 3450 
Q 1169 3672 1522 3987 
Q 1875 4303 2022 4600 
L 2384 4600 
L 2384 0 
z
" transform="scale(0.015625)"/>
       </defs>
       <use xlink:href="#ArialMT-31"/>
       <use xlink:href="#ArialMT-2e" x="55.615234"/>
       <use xlink:href="#ArialMT-30" x="83.398438"/>
      </g>
     </g>
    </g>
    <g id="text_7">
     <!-- $x$ -->
     <g style="fill: #262626" transform="translate(119.132875 148.448812) scale(0.096 -0.096)">
      <defs>
       <path id="DejaVuSans-Oblique-78" d="M 3841 3500 
L 2234 1784 
L 3219 0 
L 2559 0 
L 1819 1388 
L 531 0 
L -166 0 
L 1556 1844 
L 641 3500 
L 1300 3500 
L 1972 2234 
L 3144 3500 
L 3841 3500 
z
" transform="scale(0.015625)"/>
      </defs>
      <use xlink:href="#DejaVuSans-Oblique-78" transform="translate(0 0.3125)"/>
     </g>
    </g>
   </g>
   <g id="matplotlib.axis_2">
    <g id="ytick_1">
     <g id="line2d_7">
      <defs>
       <path id="m88e088306b" d="M 0 0 
L -4.8 0 
" style="stroke: #262626"/>
      </defs>
      <g>
       <use xlink:href="#m88e088306b" x="38.312875" y="121.229437" style="fill: #262626; stroke: #262626"/>
      </g>
     </g>
     <g id="text_8">
      <!-- −2 -->
      <g style="fill: #262626" transform="translate(19.9795 124.378875) scale(0.088 -0.088)">
       <defs>
        <path id="ArialMT-2212" d="M 3381 1997 
L 356 1997 
L 356 2522 
L 3381 2522 
L 3381 1997 
z
" transform="scale(0.015625)"/>
       </defs>
       <use xlink:href="#ArialMT-2212"/>
       <use xlink:href="#ArialMT-32" x="58.398438"/>
      </g>
     </g>
    </g>
    <g id="ytick_2">
     <g id="line2d_8">
      <g>
       <use xlink:href="#m88e088306b" x="38.312875" y="102.749437" style="fill: #262626; stroke: #262626"/>
      </g>
     </g>
     <g id="text_9">
      <!-- −1 -->
      <g style="fill: #262626" transform="translate(19.9795 105.898875) scale(0.088 -0.088)">
       <use xlink:href="#ArialMT-2212"/>
       <use xlink:href="#ArialMT-31" x="58.398438"/>
      </g>
     </g>
    </g>
    <g id="ytick_3">
     <g id="line2d_9">
      <g>
       <use xlink:href="#m88e088306b" x="38.312875" y="84.269437" style="fill: #262626; stroke: #262626"/>
      </g>
     </g>
     <g id="text_10">
      <!-- 0 -->
      <g style="fill: #262626" transform="translate(25.11925 87.418875) scale(0.088 -0.088)">
       <use xlink:href="#ArialMT-30"/>
      </g>
     </g>
    </g>
    <g id="ytick_4">
     <g id="line2d_10">
      <g>
       <use xlink:href="#m88e088306b" x="38.312875" y="65.789437" style="fill: #262626; stroke: #262626"/>
      </g>
     </g>
     <g id="text_11">
      <!-- 1 -->
      <g style="fill: #262626" transform="translate(25.11925 68.938875) scale(0.088 -0.088)">
       <use xlink:href="#ArialMT-31"/>
      </g>
     </g>
    </g>
    <g id="ytick_5">
     <g id="line2d_11">
      <g>
       <use xlink:href="#m88e088306b" x="38.312875" y="47.309437" style="fill: #262626; stroke: #262626"/>
      </g>
     </g>
     <g id="text_12">
      <!-- 2 -->
      <g style="fill: #262626" transform="translate(25.11925 50.458875) scale(0.088 -0.088)">
       <use xlink:href="#ArialMT-32"/>
      </g>
     </g>
    </g>
    <g id="ytick_6">
     <g id="line2d_12">
      <g>
       <use xlink:href="#m88e088306b" x="38.312875" y="28.829437" style="fill: #262626; stroke: #262626"/>
      </g>
     </g>
     <g id="text_13">
      <!-- 3 -->
      <g style="fill: #262626" transform="translate(25.11925 31.978875) scale(0.088 -0.088)">
       <defs>
        <path id="ArialMT-33" d="M 269 1209 
L 831 1284 
Q 928 806 1161 595 
Q 1394 384 1728 384 
Q 2125 384 2398 659 
Q 2672 934 2672 1341 
Q 2672 1728 2419 1979 
Q 2166 2231 1775 2231 
Q 1616 2231 1378 2169 
L 1441 2663 
Q 1497 2656 1531 2656 
Q 1891 2656 2178 2843 
Q 2466 3031 2466 3422 
Q 2466 3731 2256 3934 
Q 2047 4138 1716 4138 
Q 1388 4138 1169 3931 
Q 950 3725 888 3313 
L 325 3413 
Q 428 3978 793 4289 
Q 1159 4600 1703 4600 
Q 2078 4600 2393 4439 
Q 2709 4278 2876 4000 
Q 3044 3722 3044 3409 
Q 3044 3113 2884 2869 
Q 2725 2625 2413 2481 
Q 2819 2388 3044 2092 
Q 3269 1797 3269 1353 
Q 3269 753 2831 336 
Q 2394 -81 1725 -81 
Q 1122 -81 723 278 
Q 325 638 269 1209 
z
" transform="scale(0.015625)"/>
       </defs>
       <use xlink:href="#ArialMT-33"/>
      </g>
     </g>
    </g>
    <g id="ytick_7">
     <g id="line2d_13">
      <g>
       <use xlink:href="#m88e088306b" x="38.312875" y="10.349437" style="fill: #262626; stroke: #262626"/>
      </g>
     </g>
     <g id="text_14">
      <!-- 4 -->
      <g style="fill: #262626" transform="translate(25.11925 13.498875) scale(0.088 -0.088)">
       <use xlink:href="#ArialMT-34"/>
      </g>
     </g>
    </g>
    <g id="text_15">
     <!-- $y$ -->
     <g style="fill: #262626" transform="translate(13.9635 68.669437) rotate(-90) scale(0.096 -0.096)">
      <defs>
       <path id="DejaVuSans-Oblique-79" d="M 1588 -325 
Q 1188 -997 936 -1164 
Q 684 -1331 294 -1331 
L -159 -1331 
L -63 -850 
L 269 -850 
Q 509 -850 678 -719 
Q 847 -588 1056 -206 
L 1234 128 
L 459 3500 
L 1069 3500 
L 1650 819 
L 3256 3500 
L 3859 3500 
L 1588 -325 
z
" transform="scale(0.015625)"/>
      </defs>
      <use xlink:href="#DejaVuSans-Oblique-79" transform="translate(0 0.3125)"/>
     </g>
    </g>
   </g>
   <g id="PolyCollection_1">
    <defs>
     <path id="m057782ac06" d="M 45.921966 -149.575336 
L 45.921966 -3.401913 
L 47.459156 -4.089328 
L 48.996346 -4.879718 
L 50.533536 -5.785482 
L 52.070726 -6.819739 
L 53.607916 -7.996169 
L 55.145106 -9.328805 
L 56.682296 -10.831777 
L 58.219487 -12.519002 
L 59.756677 -14.403846 
L 61.293867 -16.498738 
L 62.831057 -18.81477 
L 64.368247 -21.361282 
L 65.905437 -24.145448 
L 67.442627 -27.171881 
L 68.979817 -30.442265 
L 70.517007 -33.95503 
L 72.054197 -37.705083 
L 73.591387 -41.683602 
L 75.128577 -45.877894 
L 76.665768 -50.271313 
L 78.202958 -54.843219 
L 79.740148 -59.568913 
L 81.277338 -64.419427 
L 82.814528 -69.360806 
L 84.351718 -74.351884 
L 85.888908 -79.336958 
L 87.426098 -84.216897 
L 88.963288 -88.685088 
L 90.500478 -90.933222 
L 92.037668 -88.117836 
L 93.574858 -83.549871 
L 95.112049 -78.645507 
L 96.649239 -73.655241 
L 98.186429 -68.668219 
L 99.723619 -63.737238 
L 101.260809 -58.902208 
L 102.797999 -54.196308 
L 104.335189 -49.647886 
L 105.872379 -45.281069 
L 107.409569 -41.115937 
L 108.946759 -37.168582 
L 110.483949 -33.451152 
L 112.021139 -29.97194 
L 113.55833 -26.735533 
L 115.09552 -23.74303 
L 116.63271 -20.992319 
L 118.1699 -18.478408 
L 119.70709 -16.193796 
L 121.24428 -14.128874 
L 122.78147 -12.272338 
L 124.31866 -10.611606 
L 125.85585 -9.133213 
L 127.39304 -7.823191 
L 128.93023 -6.667409 
L 130.46742 -5.651867 
L 132.004611 -4.762951 
L 133.541801 -3.987636 
L 135.078991 -3.313632 
L 136.616181 -2.729497 
L 138.153371 -2.224692 
L 139.690561 -1.789616 
L 141.227751 -1.415592 
L 142.764941 -1.094844 
L 144.302131 -0.820448 
L 145.839321 -0.586271 
L 147.376511 -0.386908 
L 148.913701 -0.217613 
L 150.450892 -0.07423 
L 151.988082 0.04687 
L 153.525272 0.148851 
L 155.062462 0.234467 
L 156.599652 0.306109 
L 158.136842 0.365853 
L 159.674032 0.415496 
L 161.211222 0.456591 
L 162.748412 0.490478 
L 164.285602 0.518309 
L 165.822792 0.541072 
L 167.359982 0.55961 
L 168.897173 0.574642 
L 170.434363 0.586777 
L 171.971553 0.59653 
L 173.508743 0.604332 
L 175.045933 0.610545 
L 176.583123 0.61547 
L 178.120313 0.619356 
L 179.657503 0.622407 
L 181.194693 0.624792 
L 182.731883 0.626647 
L 184.269073 0.628084 
L 185.806263 0.62919 
L 187.343454 0.630039 
L 188.880644 0.630687 
L 190.417834 0.631179 
L 191.955024 0.631551 
L 193.492214 0.631831 
L 195.029404 0.63204 
L 196.566594 0.632197 
L 198.103784 0.632313 
L 198.103784 -147.207688 
L 198.103784 -147.207688 
L 196.566594 -147.207804 
L 195.029404 -147.20796 
L 193.492214 -147.208169 
L 191.955024 -147.208449 
L 190.417834 -147.208821 
L 188.880644 -147.209313 
L 187.343454 -147.20996 
L 185.806263 -147.210808 
L 184.269073 -147.211913 
L 182.731883 -147.213347 
L 181.194693 -147.215198 
L 179.657503 -147.217576 
L 178.120313 -147.220616 
L 176.583123 -147.224482 
L 175.045933 -147.229376 
L 173.508743 -147.235539 
L 171.971553 -147.243261 
L 170.434363 -147.252886 
L 168.897173 -147.26482 
L 167.359982 -147.279538 
L 165.822792 -147.297593 
L 164.285602 -147.319616 
L 162.748412 -147.346327 
L 161.211222 -147.378536 
L 159.674032 -147.417137 
L 158.136842 -147.46311 
L 156.599652 -147.517505 
L 155.062462 -147.581425 
L 153.525272 -147.655999 
L 151.988082 -147.742344 
L 150.450892 -147.841514 
L 148.913701 -147.954433 
L 147.376511 -148.081819 
L 145.839321 -148.224082 
L 144.302131 -148.381212 
L 142.764941 -148.552649 
L 141.227751 -148.737139 
L 139.690561 -148.932576 
L 138.153371 -149.135844 
L 136.616181 -149.342648 
L 135.078991 -149.547359 
L 133.541801 -149.742875 
L 132.004611 -149.920498 
L 130.46742 -150.069853 
L 128.93023 -150.178841 
L 127.39304 -150.233653 
L 125.85585 -150.218833 
L 124.31866 -150.117412 
L 122.78147 -149.911102 
L 121.24428 -149.580562 
L 119.70709 -149.105721 
L 118.1699 -148.466168 
L 116.63271 -147.641584 
L 115.09552 -146.61222 
L 113.55833 -145.359396 
L 112.021139 -143.866025 
L 110.483949 -142.117123 
L 108.946759 -140.100316 
L 107.409569 -137.806317 
L 105.872379 -135.229362 
L 104.335189 -132.367619 
L 102.797999 -129.223563 
L 101.260809 -125.804369 
L 99.723619 -122.12243 
L 98.186429 -118.196293 
L 96.649239 -114.052867 
L 95.112049 -109.73386 
L 93.574858 -105.31948 
L 92.037668 -101.053641 
L 90.500478 -98.348437 
L 88.963288 -100.513314 
L 87.426098 -104.705939 
L 85.888908 -109.121733 
L 84.351718 -113.460324 
L 82.814528 -117.631203 
L 81.277338 -121.589468 
L 79.740148 -125.306705 
L 78.202958 -128.763383 
L 76.665768 -131.946321 
L 75.128577 -134.847654 
L 73.591387 -137.464278 
L 72.054197 -139.797446 
L 70.517007 -141.852397 
L 68.979817 -143.637954 
L 67.442627 -145.166089 
L 65.905437 -146.45145 
L 64.368247 -147.510864 
L 62.831057 -148.362818 
L 61.293867 -149.026944 
L 59.756677 -149.52351 
L 58.219487 -149.872943 
L 56.682296 -150.095383 
L 55.145106 -150.210297 
L 53.607916 -150.236134 
L 52.070726 -150.190063 
L 50.533536 -150.087757 
L 48.996346 -149.943263 
L 47.459156 -149.768918 
L 45.921966 -149.575336 
z
" style="stroke: #ffffff; stroke-opacity: 0.2; stroke-width: 0.8"/>
    </defs>
    <g clip-path="url(#p006c4e8a49)">
     <use xlink:href="#m057782ac06" x="0" y="157.556812" style="fill: #1f77b4; fill-opacity: 0.2; stroke: #ffffff; stroke-opacity: 0.2; stroke-width: 0.8"/>
    </g>
   </g>
   <g id="PathCollection_1">
    <defs>
     <path id="ma23665a8f1" d="M 0 2.4 
C 0.636487 2.4 1.246992 2.147121 1.697056 1.697056 
C 2.147121 1.246992 2.4 0.636487 2.4 0 
C 2.4 -0.636487 2.147121 -1.246992 1.697056 -1.697056 
C 1.246992 -2.147121 0.636487 -2.4 0 -2.4 
C -0.636487 -2.4 -1.246992 -2.147121 -1.697056 -1.697056 
C -2.147121 -1.246992 -2.4 -0.636487 -2.4 0 
C -2.4 0.636487 -2.147121 1.246992 -1.697056 1.697056 
C -1.246992 2.147121 -0.636487 2.4 0 2.4 
z
" style="stroke: #ff7f0e; stroke-width: 0.8"/>
    </defs>
    <g clip-path="url(#p006c4e8a49)">
     <use xlink:href="#ma23665a8f1" x="90.393377" y="62.862364" style="fill: #ff7f0e; stroke: #ff7f0e; stroke-width: 0.8"/>
    </g>
   </g>
   <g id="line2d_14">
    <path d="M 45.921966 81.068188 
L 47.459156 80.62769 
L 48.996346 80.145322 
L 50.533536 79.620193 
L 52.070726 79.051912 
L 53.607916 78.440661 
L 55.145106 77.787262 
L 56.682296 77.093232 
L 58.219487 76.36084 
L 59.756677 75.593134 
L 61.293867 74.793971 
L 62.831057 73.968018 
L 64.368247 73.12074 
L 65.905437 72.258364 
L 67.442627 71.387827 
L 68.979817 70.516703 
L 70.517007 69.653099 
L 72.054197 68.805548 
L 73.591387 67.982873 
L 75.128577 67.194038 
L 76.665768 66.447996 
L 78.202958 65.753512 
L 79.740148 65.119003 
L 81.277338 64.552365 
L 82.814528 64.060808 
L 84.351718 63.650708 
L 85.888908 63.327467 
L 87.426098 63.095394 
L 88.963288 62.957611 
L 90.500478 62.915983 
L 92.037668 62.971074 
L 93.574858 63.122137 
L 95.112049 63.367129 
L 96.649239 63.702758 
L 98.186429 64.124556 
L 99.723619 64.626978 
L 101.260809 65.203524 
L 102.797999 65.846877 
L 104.335189 66.54906 
L 105.872379 67.301597 
L 107.409569 68.095686 
L 108.946759 68.922363 
L 110.483949 69.772675 
L 112.021139 70.63783 
L 113.55833 71.509348 
L 115.09552 72.379188 
L 116.63271 73.239861 
L 118.1699 74.084524 
L 119.70709 74.907054 
L 121.24428 75.702095 
L 122.78147 76.465092 
L 124.31866 77.192304 
L 125.85585 77.88079 
L 127.39304 78.528391 
L 128.93023 79.133688 
L 130.46742 79.695953 
L 132.004611 80.215088 
L 133.541801 80.691557 
L 135.078991 81.126317 
L 136.616181 81.52074 
L 138.153371 81.876544 
L 139.690561 82.195716 
L 141.227751 82.480447 
L 142.764941 82.733066 
L 144.302131 82.955983 
L 145.839321 83.151636 
L 147.376511 83.322449 
L 148.913701 83.470789 
L 150.450892 83.598941 
L 151.988082 83.709075 
L 153.525272 83.803239 
L 155.062462 83.883333 
L 156.599652 83.951114 
L 158.136842 84.008184 
L 159.674032 84.055992 
L 161.211222 84.09584 
L 162.748412 84.128888 
L 164.285602 84.156159 
L 165.822792 84.178552 
L 167.359982 84.196848 
L 168.897173 84.211724 
L 170.434363 84.223758 
L 171.971553 84.233447 
L 173.508743 84.241209 
L 175.045933 84.247397 
L 176.583123 84.252306 
L 178.120313 84.256183 
L 179.657503 84.259228 
L 181.194693 84.261609 
L 182.731883 84.263463 
L 184.269073 84.264898 
L 185.806263 84.266004 
L 187.343454 84.266852 
L 188.880644 84.267499 
L 190.417834 84.267991 
L 191.955024 84.268363 
L 193.492214 84.268643 
L 195.029404 84.268853 
L 196.566594 84.269009 
L 198.103784 84.269125 
" clip-path="url(#p006c4e8a49)" style="fill: none; stroke: #1f77b4; stroke-width: 1.2; stroke-linecap: round"/>
   </g>
   <g id="line2d_15">
    <path d="M 45.921966 43.40749 
L 47.459156 46.62217 
L 48.996346 49.810848 
L 50.533536 52.853789 
L 52.070726 55.67816 
L 53.607916 58.187496 
L 55.145106 60.334174 
L 56.682296 62.071538 
L 58.219487 63.368547 
L 59.756677 64.213 
L 61.293867 64.614095 
L 62.831057 64.58867 
L 64.368247 64.18984 
L 65.905437 63.443352 
L 67.442627 62.422025 
L 68.979817 61.188289 
L 70.517007 59.818796 
L 72.054197 58.374957 
L 73.591387 56.960873 
L 75.128577 55.631798 
L 76.665768 54.475023 
L 78.202958 53.555174 
L 79.740148 52.935791 
L 81.277338 52.665642 
L 82.814528 52.803737 
L 84.351718 53.371718 
L 85.888908 54.390845 
L 87.426098 55.860532 
L 88.963288 57.773778 
L 90.500478 60.11447 
L 92.037668 62.830257 
L 93.574858 65.881872 
L 95.112049 69.202991 
L 96.649239 72.707179 
L 98.186429 76.334653 
L 99.723619 79.99561 
L 101.260809 83.597436 
L 102.797999 87.062209 
L 104.335189 90.316495 
L 105.872379 93.286235 
L 107.409569 95.923053 
L 108.946759 98.172341 
L 110.483949 100.0059 
L 112.021139 101.401806 
L 113.55833 102.370486 
L 115.09552 102.926595 
L 116.63271 103.081082 
L 118.1699 102.878976 
L 119.70709 102.370771 
L 121.24428 101.600296 
L 122.78147 100.628057 
L 124.31866 99.518138 
L 125.85585 98.314337 
L 127.39304 97.08172 
L 128.93023 95.860227 
L 130.46742 94.691186 
L 132.004611 93.611386 
L 133.541801 92.652687 
L 135.078991 91.827965 
L 136.616181 91.128897 
L 138.153371 90.580563 
L 139.690561 90.171343 
L 141.227751 89.866162 
L 142.764941 89.673335 
L 144.302131 89.566575 
L 145.839321 89.517357 
L 147.376511 89.515279 
L 148.913701 89.532549 
L 150.450892 89.559666 
L 151.988082 89.595168 
L 153.525272 89.620625 
L 155.062462 89.645788 
L 156.599652 89.673079 
L 158.136842 89.720698 
L 159.674032 89.796016 
L 161.211222 89.924594 
L 162.748412 90.109134 
L 164.285602 90.382953 
L 165.822792 90.743005 
L 167.359982 91.20693 
L 168.897173 91.75365 
L 170.434363 92.392462 
L 171.971553 93.076055 
L 173.508743 93.791013 
L 175.045933 94.484464 
L 176.583123 95.120148 
L 178.120313 95.618228 
L 179.657503 95.952329 
L 181.194693 96.03776 
L 182.731883 95.824874 
L 184.269073 95.263012 
L 185.806263 94.313365 
L 187.343454 92.944111 
L 188.880644 91.141078 
L 190.417834 88.889519 
L 191.955024 86.210413 
L 193.492214 83.136702 
L 195.029404 79.705124 
L 196.566594 75.972808 
L 198.103784 72.005415 
" clip-path="url(#p006c4e8a49)" style="fill: none; stroke: #d62728; stroke-opacity: 0.5; stroke-width: 0.5; stroke-linecap: round"/>
   </g>
   <g id="line2d_16">
    <path d="M 45.921966 46.373833 
L 47.459156 51.023296 
L 48.996346 55.917221 
L 50.533536 60.967791 
L 52.070726 66.092878 
L 53.607916 71.184612 
L 55.145106 76.136033 
L 56.682296 80.843927 
L 58.219487 85.207359 
L 59.756677 89.149871 
L 61.293867 92.584605 
L 62.831057 95.447875 
L 64.368247 97.697179 
L 65.905437 99.305737 
L 67.442627 100.256125 
L 68.979817 100.556652 
L 70.517007 100.221127 
L 72.054197 99.286808 
L 73.591387 97.796671 
L 75.128577 95.808904 
L 76.665768 93.381408 
L 78.202958 90.591993 
L 79.740148 87.491298 
L 81.277338 84.17277 
L 82.814528 80.693198 
L 84.351718 77.12165 
L 85.888908 73.519666 
L 87.426098 69.943775 
L 88.963288 66.454832 
L 90.500478 63.080735 
L 92.037668 59.867652 
L 93.574858 56.846145 
L 95.112049 54.035223 
L 96.649239 51.450429 
L 98.186429 49.097019 
L 99.723619 46.985633 
L 101.260809 45.108792 
L 102.797999 43.446061 
L 104.335189 42.003821 
L 105.872379 40.760611 
L 107.409569 39.693579 
L 108.946759 38.784805 
L 110.483949 38.026636 
L 112.021139 37.398684 
L 113.55833 36.893912 
L 115.09552 36.498205 
L 116.63271 36.225261 
L 118.1699 36.067257 
L 119.70709 36.04533 
L 121.24428 36.165759 
L 122.78147 36.463978 
L 124.31866 36.967197 
L 125.85585 37.699369 
L 127.39304 38.699294 
L 128.93023 39.988472 
L 130.46742 41.602924 
L 132.004611 43.57887 
L 133.541801 45.920883 
L 135.078991 48.64081 
L 136.616181 51.749766 
L 138.153371 55.231008 
L 139.690561 59.069988 
L 141.227751 63.23545 
L 142.764941 67.680906 
L 144.302131 72.37318 
L 145.839321 77.245115 
L 147.376511 82.237443 
L 148.913701 87.291978 
L 150.450892 92.332667 
L 151.988082 97.308434 
L 153.525272 102.159734 
L 155.062462 106.833853 
L 156.599652 111.303617 
L 158.136842 115.521264 
L 159.674032 119.471123 
L 161.211222 123.155787 
L 162.748412 126.566399 
L 164.285602 129.714975 
L 165.822792 132.619733 
L 167.359982 135.304909 
L 168.897173 137.781179 
L 170.434363 140.077359 
L 171.971553 142.20336 
L 173.508743 144.172824 
L 175.045933 145.990144 
L 176.583123 147.633232 
L 178.120313 149.089601 
L 179.657503 150.313582 
L 181.194693 151.277823 
L 182.731883 151.919514 
L 184.269073 152.184622 
L 185.806263 152.020849 
L 187.343454 151.358749 
L 188.880644 150.163863 
L 190.417834 148.382894 
L 191.955024 145.976916 
L 193.492214 142.943902 
L 195.029404 139.283836 
L 196.566594 135.008595 
L 198.103784 130.172674 
" clip-path="url(#p006c4e8a49)" style="fill: none; stroke: #d62728; stroke-opacity: 0.5; stroke-width: 0.5; stroke-linecap: round"/>
   </g>
   <g id="line2d_17">
    <path d="M 45.921966 81.847591 
L 47.459156 80.697498 
L 48.996346 79.846558 
L 50.533536 79.305235 
L 52.070726 79.062031 
L 53.607916 79.096554 
L 55.145106 79.390451 
L 56.682296 79.888523 
L 58.219487 80.564011 
L 59.756677 81.355692 
L 61.293867 82.207553 
L 62.831057 83.065816 
L 64.368247 83.86139 
L 65.905437 84.546875 
L 67.442627 85.060138 
L 68.979817 85.368139 
L 70.517007 85.428247 
L 72.054197 85.223574 
L 73.591387 84.723623 
L 75.128577 83.943804 
L 76.665768 82.883403 
L 78.202958 81.557402 
L 79.740148 80.004472 
L 81.277338 78.264276 
L 82.814528 76.371121 
L 84.351718 74.375442 
L 85.888908 72.329284 
L 87.426098 70.268477 
L 88.963288 68.245777 
L 90.500478 66.294342 
L 92.037668 64.441707 
L 93.574858 62.715243 
L 95.112049 61.128504 
L 96.649239 59.684318 
L 98.186429 58.386499 
L 99.723619 57.217121 
L 101.260809 56.165838 
L 102.797999 55.215834 
L 104.335189 54.336955 
L 105.872379 53.529385 
L 107.409569 52.736482 
L 108.946759 51.967338 
L 110.483949 51.205252 
L 112.021139 50.423195 
L 113.55833 49.651546 
L 115.09552 48.869665 
L 116.63271 48.095878 
L 118.1699 47.35571 
L 119.70709 46.674407 
L 121.24428 46.088495 
L 122.78147 45.619164 
L 124.31866 45.335555 
L 125.85585 45.258409 
L 127.39304 45.439783 
L 128.93023 45.922883 
L 130.46742 46.737764 
L 132.004611 47.923327 
L 133.541801 49.498662 
L 135.078991 51.466944 
L 136.616181 53.837312 
L 138.153371 56.585707 
L 139.690561 59.69248 
L 141.227751 63.11967 
L 142.764941 66.801467 
L 144.302131 70.684486 
L 145.839321 74.685594 
L 147.376511 78.728266 
L 148.913701 82.72303 
L 150.450892 86.573399 
L 151.988082 90.193195 
L 153.525272 93.497517 
L 155.062462 96.402518 
L 156.599652 98.833457 
L 158.136842 100.734849 
L 159.674032 102.056484 
L 161.211222 102.758406 
L 162.748412 102.834806 
L 164.285602 102.260387 
L 165.822792 101.06077 
L 167.359982 99.24867 
L 168.897173 96.867652 
L 170.434363 93.951807 
L 171.971553 90.564068 
L 173.508743 86.774176 
L 175.045933 82.640939 
L 176.583123 78.240989 
L 178.120313 73.65853 
L 179.657503 68.96194 
L 181.194693 64.229504 
L 182.731883 59.538674 
L 184.269073 54.962361 
L 185.806263 50.564146 
L 187.343454 46.415755 
L 188.880644 42.568809 
L 190.417834 39.080196 
L 191.955024 35.989206 
L 193.492214 33.353903 
L 195.029404 31.191221 
L 196.566594 29.537128 
L 198.103784 28.406185 
" clip-path="url(#p006c4e8a49)" style="fill: none; stroke: #d62728; stroke-opacity: 0.5; stroke-width: 0.5; stroke-linecap: round"/>
   </g>
   <g id="line2d_18">
    <path d="M 64.04627 -1 
L 64.368247 -0.092316 
L 65.905437 4.513335 
L 67.442627 9.334376 
L 68.979817 14.280964 
L 70.517007 19.28543 
L 72.054197 24.256522 
L 73.591387 29.135758 
L 75.128577 33.847996 
L 76.665768 38.33329 
L 78.202958 42.538955 
L 79.740148 46.42332 
L 81.277338 49.953574 
L 82.814528 53.098181 
L 84.351718 55.858646 
L 85.888908 58.22658 
L 87.426098 60.209214 
L 88.963288 61.816798 
L 90.500478 63.080347 
L 92.037668 64.028644 
L 93.574858 64.687672 
L 95.112049 65.103009 
L 96.649239 65.303014 
L 98.186429 65.336964 
L 99.723619 65.240132 
L 101.260809 65.057692 
L 102.797999 64.822307 
L 104.335189 64.57733 
L 105.872379 64.355994 
L 107.409569 64.190622 
L 108.946759 64.117097 
L 110.483949 64.159933 
L 112.021139 64.350049 
L 113.55833 64.717132 
L 115.09552 65.274464 
L 116.63271 66.049187 
L 118.1699 67.062108 
L 119.70709 68.328766 
L 121.24428 69.864348 
L 122.78147 71.681611 
L 124.31866 73.796839 
L 125.85585 76.211658 
L 127.39304 78.932927 
L 128.93023 81.959529 
L 130.46742 85.290568 
L 132.004611 88.897549 
L 133.541801 92.776345 
L 135.078991 96.895996 
L 136.616181 101.212091 
L 138.153371 105.680365 
L 139.690561 110.25629 
L 141.227751 114.874332 
L 142.764941 119.455281 
L 144.302131 123.947794 
L 145.839321 128.257168 
L 147.376511 132.322036 
L 148.913701 136.066944 
L 150.450892 139.424888 
L 151.988082 142.333651 
L 153.525272 144.749678 
L 155.062462 146.622194 
L 156.599652 147.941658 
L 158.136842 148.670421 
L 159.674032 148.835895 
L 161.211222 148.435187 
L 162.748412 147.494709 
L 164.285602 146.052946 
L 165.822792 144.158159 
L 167.359982 141.846737 
L 168.897173 139.192312 
L 170.434363 136.258162 
L 171.971553 133.09479 
L 173.508743 129.773819 
L 175.045933 126.351957 
L 176.583123 122.883952 
L 178.120313 119.42991 
L 179.657503 116.03297 
L 181.194693 112.732403 
L 182.731883 109.571386 
L 184.269073 106.566579 
L 185.806263 103.758763 
L 187.343454 101.149345 
L 188.880644 98.761434 
L 190.417834 96.597161 
L 191.955024 94.658598 
L 193.492214 92.951201 
L 195.029404 91.463524 
L 196.566594 90.196002 
L 198.103784 89.151691 
" clip-path="url(#p006c4e8a49)" style="fill: none; stroke: #d62728; stroke-opacity: 0.5; stroke-width: 0.5; stroke-linecap: round"/>
   </g>
   <g id="line2d_19">
    <path d="M 45.921966 60.692558 
L 47.459156 65.108436 
L 48.996346 69.662523 
L 50.533536 74.283173 
L 52.070726 78.912136 
L 53.607916 83.460996 
L 55.145106 87.871465 
L 56.682296 92.064283 
L 58.219487 95.966361 
L 59.756677 99.516619 
L 61.293867 102.649503 
L 62.831057 105.313513 
L 64.368247 107.457635 
L 65.905437 109.052715 
L 67.442627 110.073578 
L 68.979817 110.503213 
L 70.517007 110.334783 
L 72.054197 109.584778 
L 73.591387 108.250261 
L 75.128577 106.374723 
L 76.665768 103.975446 
L 78.202958 101.094514 
L 79.740148 97.78397 
L 81.277338 94.082775 
L 82.814528 90.055016 
L 84.351718 85.745381 
L 85.888908 81.215469 
L 87.426098 76.530847 
L 88.963288 71.738391 
L 90.500478 66.912287 
L 92.037668 62.101575 
L 93.574858 57.364704 
L 95.112049 52.746746 
L 96.649239 48.30418 
L 98.186429 44.078138 
L 99.723619 40.100788 
L 101.260809 36.407154 
L 102.797999 33.020645 
L 104.335189 29.953853 
L 105.872379 27.221292 
L 107.409569 24.822209 
L 108.946759 22.755308 
L 110.483949 21.005354 
L 112.021139 19.56207 
L 113.55833 18.399212 
L 115.09552 17.505617 
L 116.63271 16.855687 
L 118.1699 16.42712 
L 119.70709 16.204278 
L 121.24428 16.167714 
L 122.78147 16.314816 
L 124.31866 16.629533 
L 125.85585 17.119471 
L 127.39304 17.788319 
L 128.93023 18.650906 
L 130.46742 19.716248 
L 132.004611 21.017453 
L 133.541801 22.562764 
L 135.078991 24.39311 
L 136.616181 26.529207 
L 138.153371 28.98524 
L 139.690561 31.794528 
L 141.227751 34.959668 
L 142.764941 38.492189 
L 144.302131 42.385995 
L 145.839321 46.632306 
L 147.376511 51.209823 
L 148.913701 56.078737 
L 150.450892 61.192633 
L 151.988082 66.502038 
L 153.525272 71.935408 
L 155.062462 77.430004 
L 156.599652 82.915334 
L 158.136842 88.311929 
L 159.674032 93.535827 
L 161.211222 98.537788 
L 162.748412 103.236814 
L 164.285602 107.572143 
L 165.822792 111.512479 
L 167.359982 115.015746 
L 168.897173 118.051943 
L 170.434363 120.615981 
L 171.971553 122.700889 
L 173.508743 124.318419 
L 175.045933 125.482195 
L 176.583123 126.220698 
L 178.120313 126.564048 
L 179.657503 126.540871 
L 181.194693 126.194827 
L 182.731883 125.554455 
L 184.269073 124.661893 
L 185.806263 123.543341 
L 187.343454 122.231326 
L 188.880644 120.764498 
L 190.417834 119.172898 
L 191.955024 117.468261 
L 193.492214 115.693475 
L 195.029404 113.870992 
L 196.566594 112.027547 
L 198.103784 110.193246 
" clip-path="url(#p006c4e8a49)" style="fill: none; stroke: #d62728; stroke-opacity: 0.5; stroke-width: 0.5; stroke-linecap: round"/>
   </g>
   <g id="line2d_20">
    <path d="M 197.974647 121.229437 
L 197.974647 10.349437 
" clip-path="url(#p006c4e8a49)" style="fill: none; stroke-dasharray: 4.44,1.92; stroke-dashoffset: 0; stroke: #ff0000; stroke-width: 1.2"/>
   </g>
   <g id="patch_3">
    <path d="M 38.312875 121.229437 
L 38.312875 10.349437 
" style="fill: none; stroke: #262626; stroke-linejoin: miter; stroke-linecap: square"/>
   </g>
   <g id="patch_4">
    <path d="M 45.921966 121.229437 
L 198.103784 121.229437 
" style="fill: none; stroke: #262626; stroke-linejoin: miter; stroke-linecap: square"/>
   </g>
   <g id="legend_1">
    <g id="patch_5">
     <path d="M 145.608875 29.837312 
L 199.552875 29.837312 
Q 201.312875 29.837312 201.312875 28.077312 
L 201.312875 16.509437 
Q 201.312875 14.749437 199.552875 14.749437 
L 145.608875 14.749437 
Q 143.848875 14.749437 143.848875 16.509437 
L 143.848875 28.077312 
Q 143.848875 29.837312 145.608875 29.837312 
z
" style="fill: #ffffff; opacity: 0.8; stroke: #cccccc; stroke-width: 0.8; stroke-linejoin: miter"/>
    </g>
    <g id="line2d_21">
     <path d="M 147.368875 21.488312 
L 156.168875 21.488312 
L 164.968875 21.488312 
" style="fill: none; stroke-dasharray: 4.44,1.92; stroke-dashoffset: 0; stroke: #ff0000; stroke-width: 1.2"/>
    </g>
    <g id="text_16">
     <!-- Next $x$ -->
     <g style="fill: #262626" transform="translate(172.008875 24.568312) scale(0.088 -0.088)">
      <defs>
       <path id="ArialMT-4e" d="M 488 0 
L 488 4581 
L 1109 4581 
L 3516 984 
L 3516 4581 
L 4097 4581 
L 4097 0 
L 3475 0 
L 1069 3600 
L 1069 0 
L 488 0 
z
" transform="scale(0.015625)"/>
       <path id="ArialMT-65" d="M 2694 1069 
L 3275 997 
Q 3138 488 2766 206 
Q 2394 -75 1816 -75 
Q 1088 -75 661 373 
Q 234 822 234 1631 
Q 234 2469 665 2931 
Q 1097 3394 1784 3394 
Q 2450 3394 2872 2941 
Q 3294 2488 3294 1666 
Q 3294 1616 3291 1516 
L 816 1516 
Q 847 969 1125 678 
Q 1403 388 1819 388 
Q 2128 388 2347 550 
Q 2566 713 2694 1069 
z
M 847 1978 
L 2700 1978 
Q 2663 2397 2488 2606 
Q 2219 2931 1791 2931 
Q 1403 2931 1139 2672 
Q 875 2413 847 1978 
z
" transform="scale(0.015625)"/>
       <path id="ArialMT-78" d="M 47 0 
L 1259 1725 
L 138 3319 
L 841 3319 
L 1350 2541 
Q 1494 2319 1581 2169 
Q 1719 2375 1834 2534 
L 2394 3319 
L 3066 3319 
L 1919 1756 
L 3153 0 
L 2463 0 
L 1781 1031 
L 1600 1309 
L 728 0 
L 47 0 
z
" transform="scale(0.015625)"/>
       <path id="ArialMT-74" d="M 1650 503 
L 1731 6 
Q 1494 -44 1306 -44 
Q 1000 -44 831 53 
Q 663 150 594 308 
Q 525 466 525 972 
L 525 2881 
L 113 2881 
L 113 3319 
L 525 3319 
L 525 4141 
L 1084 4478 
L 1084 3319 
L 1650 3319 
L 1650 2881 
L 1084 2881 
L 1084 941 
Q 1084 700 1114 631 
Q 1144 563 1211 522 
Q 1278 481 1403 481 
Q 1497 481 1650 503 
z
" transform="scale(0.015625)"/>
       <path id="ArialMT-20" transform="scale(0.015625)"/>
      </defs>
      <use xlink:href="#ArialMT-4e" transform="translate(0 0.421875)"/>
      <use xlink:href="#ArialMT-65" transform="translate(72.216797 0.421875)"/>
      <use xlink:href="#ArialMT-78" transform="translate(127.832031 0.421875)"/>
      <use xlink:href="#ArialMT-74" transform="translate(177.832031 0.421875)"/>
      <use xlink:href="#ArialMT-20" transform="translate(205.615234 0.421875)"/>
      <use xlink:href="#DejaVuSans-Oblique-78" transform="translate(233.398438 0.421875)"/>
     </g>
    </g>
   </g>
  </g>
 </g>
 <defs>
  <clipPath id="p006c4e8a49">
   <rect x="38.312875" y="10.349437" width="167.4" height="110.88"/>
  </clipPath>
 </defs>
</svg>