<?xml version="1.0" encoding="utf-8" standalone="no"?>
<!DOCTYPE svg PUBLIC "-//W3C//DTD SVG 1.1//EN"
  "http://www.w3.org/Graphics/SVG/1.1/DTD/svg11.dtd">
<svg xmlns:xlink="http://www.w3.org/1999/xlink" width="399.918181pt" height="351.980053pt" viewBox="0 0 399.918181 351.980053" xmlns="http://www.w3.org/2000/svg" version="1.1">
 <metadata>
  <rdf:RDF xmlns:dc="http://purl.org/dc/elements/1.1/" xmlns:cc="http://creativecommons.org/ns#" xmlns:rdf="http://www.w3.org/1999/02/22-rdf-syntax-ns#">
   <cc:Work>
    <dc:type rdf:resource="http://purl.org/dc/dcmitype/StillImage"/>
    <dc:date>2024-12-20T12:48:54.516752</dc:date>
    <dc:format>image/svg+xml</dc:format>
    <dc:creator>
     <cc:Agent>
      <dc:title>Matplotlib v3.9.0, https://matplotlib.org/</dc:title>
     </cc:Agent>
    </dc:creator>
   </cc:Work>
  </rdf:RDF>
 </metadata>
 <defs>
  <style type="text/css">*{stroke-linejoin: round; stroke-linecap: butt}</style>
 </defs>
 <g id="figure_1">
  <g id="patch_1">
   <path d="M 0 351.980053 
L 399.918181 351.980053 
L 399.918181 0 
L 0 0 
z
" style="fill: #ffffff"/>
  </g>
  <g id="axes_1">
   <g id="patch_2">
    <path d="M 33.290125 286.1835 
L 390.410125 286.1835 
L 390.410125 20.0715 
L 33.290125 20.0715 
z
" style="fill: #ffffff"/>
   </g>
   <g id="matplotlib.axis_1">
    <g id="xtick_1">
     <g id="line2d_1">
      <defs>
       <path id="mea216c0b77" d="M 0 0 
L 0 4.8 
" style="stroke: #262626"/>
      </defs>
      <g>
       <use xlink:href="#mea216c0b77" x="49.522852" y="286.1835" style="fill: #262626; stroke: #262626"/>
      </g>
     </g>
     <g id="text_1">
      <!-- 2019-01-02 -->
      <g style="fill: #262626" transform="translate(35.218303 330.763823) rotate(-45) scale(0.088 -0.088)">
       <defs>
        <path id="ArialMT-32" d="M 3222 541 
L 3222 0 
L 194 0 
Q 188 203 259 391 
Q 375 700 629 1000 
Q 884 1300 1366 1694 
Q 2113 2306 2375 2664 
Q 2638 3022 2638 3341 
Q 2638 3675 2398 3904 
Q 2159 4134 1775 4134 
Q 1369 4134 1125 3890 
Q 881 3647 878 3216 
L 300 3275 
Q 359 3922 746 4261 
Q 1134 4600 1788 4600 
Q 2447 4600 2831 4234 
Q 3216 3869 3216 3328 
Q 3216 3053 3103 2787 
Q 2991 2522 2730 2228 
Q 2469 1934 1863 1422 
Q 1356 997 1212 845 
Q 1069 694 975 541 
L 3222 541 
z
" transform="scale(0.015625)"/>
        <path id="ArialMT-30" d="M 266 2259 
Q 266 3072 433 3567 
Q 600 4063 929 4331 
Q 1259 4600 1759 4600 
Q 2128 4600 2406 4451 
Q 2684 4303 2865 4023 
Q 3047 3744 3150 3342 
Q 3253 2941 3253 2259 
Q 3253 1453 3087 958 
Q 2922 463 2592 192 
Q 2263 -78 1759 -78 
Q 1097 -78 719 397 
Q 266 969 266 2259 
z
M 844 2259 
Q 844 1131 1108 757 
Q 1372 384 1759 384 
Q 2147 384 2411 759 
Q 2675 1134 2675 2259 
Q 2675 3391 2411 3762 
Q 2147 4134 1753 4134 
Q 1366 4134 1134 3806 
Q 844 3388 844 2259 
z
" transform="scale(0.015625)"/>
        <path id="ArialMT-31" d="M 2384 0 
L 1822 0 
L 1822 3584 
Q 1619 3391 1289 3197 
Q 959 3003 697 2906 
L 697 3450 
Q 1169 3672 1522 3987 
Q 1875 4303 2022 4600 
L 2384 4600 
L 2384 0 
z
" transform="scale(0.015625)"/>
        <path id="ArialMT-39" d="M 350 1059 
L 891 1109 
Q 959 728 1153 556 
Q 1347 384 1650 384 
Q 1909 384 2104 503 
Q 2300 622 2425 820 
Q 2550 1019 2634 1356 
Q 2719 1694 2719 2044 
Q 2719 2081 2716 2156 
Q 2547 1888 2255 1720 
Q 1963 1553 1622 1553 
Q 1053 1553 659 1965 
Q 266 2378 266 3053 
Q 266 3750 677 4175 
Q 1088 4600 1706 4600 
Q 2153 4600 2523 4359 
Q 2894 4119 3086 3673 
Q 3278 3228 3278 2384 
Q 3278 1506 3087 986 
Q 2897 466 2520 194 
Q 2144 -78 1638 -78 
Q 1100 -78 759 220 
Q 419 519 350 1059 
z
M 2653 3081 
Q 2653 3566 2395 3850 
Q 2138 4134 1775 4134 
Q 1400 4134 1122 3828 
Q 844 3522 844 3034 
Q 844 2597 1108 2323 
Q 1372 2050 1759 2050 
Q 2150 2050 2401 2323 
Q 2653 2597 2653 3081 
z
" transform="scale(0.015625)"/>
        <path id="ArialMT-2d" d="M 203 1375 
L 203 1941 
L 1931 1941 
L 1931 1375 
L 203 1375 
z
" transform="scale(0.015625)"/>
       </defs>
       <use xlink:href="#ArialMT-32"/>
       <use xlink:href="#ArialMT-30" x="55.615234"/>
       <use xlink:href="#ArialMT-31" x="111.230469"/>
       <use xlink:href="#ArialMT-39" x="166.845703"/>
       <use xlink:href="#ArialMT-2d" x="222.460938"/>
       <use xlink:href="#ArialMT-30" x="255.761719"/>
       <use xlink:href="#ArialMT-31" x="311.376953"/>
       <use xlink:href="#ArialMT-2d" x="366.992188"/>
       <use xlink:href="#ArialMT-30" x="400.292969"/>
       <use xlink:href="#ArialMT-32" x="455.908203"/>
      </g>
     </g>
    </g>
    <g id="xtick_2">
     <g id="line2d_2">
      <g>
       <use xlink:href="#mea216c0b77" x="81.966533" y="286.1835" style="fill: #262626; stroke: #262626"/>
      </g>
     </g>
     <g id="text_2">
      <!-- 2019-08-06 -->
      <g style="fill: #262626" transform="translate(67.661983 330.763823) rotate(-45) scale(0.088 -0.088)">
       <defs>
        <path id="ArialMT-38" d="M 1131 2484 
Q 781 2613 612 2850 
Q 444 3088 444 3419 
Q 444 3919 803 4259 
Q 1163 4600 1759 4600 
Q 2359 4600 2725 4251 
Q 3091 3903 3091 3403 
Q 3091 3084 2923 2848 
Q 2756 2613 2416 2484 
Q 2838 2347 3058 2040 
Q 3278 1734 3278 1309 
Q 3278 722 2862 322 
Q 2447 -78 1769 -78 
Q 1091 -78 675 323 
Q 259 725 259 1325 
Q 259 1772 486 2073 
Q 713 2375 1131 2484 
z
M 1019 3438 
Q 1019 3113 1228 2906 
Q 1438 2700 1772 2700 
Q 2097 2700 2305 2904 
Q 2513 3109 2513 3406 
Q 2513 3716 2298 3927 
Q 2084 4138 1766 4138 
Q 1444 4138 1231 3931 
Q 1019 3725 1019 3438 
z
M 838 1322 
Q 838 1081 952 856 
Q 1066 631 1291 507 
Q 1516 384 1775 384 
Q 2178 384 2440 643 
Q 2703 903 2703 1303 
Q 2703 1709 2433 1975 
Q 2163 2241 1756 2241 
Q 1359 2241 1098 1978 
Q 838 1716 838 1322 
z
" transform="scale(0.015625)"/>
        <path id="ArialMT-36" d="M 3184 3459 
L 2625 3416 
Q 2550 3747 2413 3897 
Q 2184 4138 1850 4138 
Q 1581 4138 1378 3988 
Q 1113 3794 959 3422 
Q 806 3050 800 2363 
Q 1003 2672 1297 2822 
Q 1591 2972 1913 2972 
Q 2475 2972 2870 2558 
Q 3266 2144 3266 1488 
Q 3266 1056 3080 686 
Q 2894 316 2569 119 
Q 2244 -78 1831 -78 
Q 1128 -78 684 439 
Q 241 956 241 2144 
Q 241 3472 731 4075 
Q 1159 4600 1884 4600 
Q 2425 4600 2770 4297 
Q 3116 3994 3184 3459 
z
M 888 1484 
Q 888 1194 1011 928 
Q 1134 663 1356 523 
Q 1578 384 1822 384 
Q 2178 384 2434 671 
Q 2691 959 2691 1453 
Q 2691 1928 2437 2201 
Q 2184 2475 1800 2475 
Q 1419 2475 1153 2201 
Q 888 1928 888 1484 
z
" transform="scale(0.015625)"/>
       </defs>
       <use xlink:href="#ArialMT-32"/>
       <use xlink:href="#ArialMT-30" x="55.615234"/>
       <use xlink:href="#ArialMT-31" x="111.230469"/>
       <use xlink:href="#ArialMT-39" x="166.845703"/>
       <use xlink:href="#ArialMT-2d" x="222.460938"/>
       <use xlink:href="#ArialMT-30" x="255.761719"/>
       <use xlink:href="#ArialMT-38" x="311.376953"/>
       <use xlink:href="#ArialMT-2d" x="366.992188"/>
       <use xlink:href="#ArialMT-30" x="400.292969"/>
       <use xlink:href="#ArialMT-36" x="455.908203"/>
      </g>
     </g>
    </g>
    <g id="xtick_3">
     <g id="line2d_3">
      <g>
       <use xlink:href="#mea216c0b77" x="114.410213" y="286.1835" style="fill: #262626; stroke: #262626"/>
      </g>
     </g>
     <g id="text_3">
      <!-- 2020-03-12 -->
      <g style="fill: #262626" transform="translate(100.105664 330.763823) rotate(-45) scale(0.088 -0.088)">
       <defs>
        <path id="ArialMT-33" d="M 269 1209 
L 831 1284 
Q 928 806 1161 595 
Q 1394 384 1728 384 
Q 2125 384 2398 659 
Q 2672 934 2672 1341 
Q 2672 1728 2419 1979 
Q 2166 2231 1775 2231 
Q 1616 2231 1378 2169 
L 1441 2663 
Q 1497 2656 1531 2656 
Q 1891 2656 2178 2843 
Q 2466 3031 2466 3422 
Q 2466 3731 2256 3934 
Q 2047 4138 1716 4138 
Q 1388 4138 1169 3931 
Q 950 3725 888 3313 
L 325 3413 
Q 428 3978 793 4289 
Q 1159 4600 1703 4600 
Q 2078 4600 2393 4439 
Q 2709 4278 2876 4000 
Q 3044 3722 3044 3409 
Q 3044 3113 2884 2869 
Q 2725 2625 2413 2481 
Q 2819 2388 3044 2092 
Q 3269 1797 3269 1353 
Q 3269 753 2831 336 
Q 2394 -81 1725 -81 
Q 1122 -81 723 278 
Q 325 638 269 1209 
z
" transform="scale(0.015625)"/>
       </defs>
       <use xlink:href="#ArialMT-32"/>
       <use xlink:href="#ArialMT-30" x="55.615234"/>
       <use xlink:href="#ArialMT-32" x="111.230469"/>
       <use xlink:href="#ArialMT-30" x="166.845703"/>
       <use xlink:href="#ArialMT-2d" x="222.460938"/>
       <use xlink:href="#ArialMT-30" x="255.761719"/>
       <use xlink:href="#ArialMT-33" x="311.376953"/>
       <use xlink:href="#ArialMT-2d" x="366.992188"/>
       <use xlink:href="#ArialMT-31" x="400.292969"/>
       <use xlink:href="#ArialMT-32" x="455.908203"/>
      </g>
     </g>
    </g>
    <g id="xtick_4">
     <g id="line2d_4">
      <g>
       <use xlink:href="#mea216c0b77" x="146.853893" y="286.1835" style="fill: #262626; stroke: #262626"/>
      </g>
     </g>
     <g id="text_4">
      <!-- 2020-10-14 -->
      <g style="fill: #262626" transform="translate(132.549344 330.763823) rotate(-45) scale(0.088 -0.088)">
       <defs>
        <path id="ArialMT-34" d="M 2069 0 
L 2069 1097 
L 81 1097 
L 81 1613 
L 2172 4581 
L 2631 4581 
L 2631 1613 
L 3250 1613 
L 3250 1097 
L 2631 1097 
L 2631 0 
L 2069 0 
z
M 2069 1613 
L 2069 3678 
L 634 1613 
L 2069 1613 
z
" transform="scale(0.015625)"/>
       </defs>
       <use xlink:href="#ArialMT-32"/>
       <use xlink:href="#ArialMT-30" x="55.615234"/>
       <use xlink:href="#ArialMT-32" x="111.230469"/>
       <use xlink:href="#ArialMT-30" x="166.845703"/>
       <use xlink:href="#ArialMT-2d" x="222.460938"/>
       <use xlink:href="#ArialMT-31" x="255.761719"/>
       <use xlink:href="#ArialMT-30" x="311.376953"/>
       <use xlink:href="#ArialMT-2d" x="366.992188"/>
       <use xlink:href="#ArialMT-31" x="400.292969"/>
       <use xlink:href="#ArialMT-34" x="455.908203"/>
      </g>
     </g>
    </g>
    <g id="xtick_5">
     <g id="line2d_5">
      <g>
       <use xlink:href="#mea216c0b77" x="179.297573" y="286.1835" style="fill: #262626; stroke: #262626"/>
      </g>
     </g>
     <g id="text_5">
      <!-- 2021-05-19 -->
      <g style="fill: #262626" transform="translate(164.993024 330.763823) rotate(-45) scale(0.088 -0.088)">
       <defs>
        <path id="ArialMT-35" d="M 266 1200 
L 856 1250 
Q 922 819 1161 601 
Q 1400 384 1738 384 
Q 2144 384 2425 690 
Q 2706 997 2706 1503 
Q 2706 1984 2436 2262 
Q 2166 2541 1728 2541 
Q 1456 2541 1237 2417 
Q 1019 2294 894 2097 
L 366 2166 
L 809 4519 
L 3088 4519 
L 3088 3981 
L 1259 3981 
L 1013 2750 
Q 1425 3038 1878 3038 
Q 2478 3038 2890 2622 
Q 3303 2206 3303 1553 
Q 3303 931 2941 478 
Q 2500 -78 1738 -78 
Q 1113 -78 717 272 
Q 322 622 266 1200 
z
" transform="scale(0.015625)"/>
       </defs>
       <use xlink:href="#ArialMT-32"/>
       <use xlink:href="#ArialMT-30" x="55.615234"/>
       <use xlink:href="#ArialMT-32" x="111.230469"/>
       <use xlink:href="#ArialMT-31" x="166.845703"/>
       <use xlink:href="#ArialMT-2d" x="222.460938"/>
       <use xlink:href="#ArialMT-30" x="255.761719"/>
       <use xlink:href="#ArialMT-35" x="311.376953"/>
       <use xlink:href="#ArialMT-2d" x="366.992188"/>
       <use xlink:href="#ArialMT-31" x="400.292969"/>
       <use xlink:href="#ArialMT-39" x="455.908203"/>
      </g>
     </g>
    </g>
    <g id="xtick_6">
     <g id="line2d_6">
      <g>
       <use xlink:href="#mea216c0b77" x="211.741254" y="286.1835" style="fill: #262626; stroke: #262626"/>
      </g>
     </g>
     <g id="text_6">
      <!-- 2021-12-22 -->
      <g style="fill: #262626" transform="translate(197.436704 330.763823) rotate(-45) scale(0.088 -0.088)">
       <use xlink:href="#ArialMT-32"/>
       <use xlink:href="#ArialMT-30" x="55.615234"/>
       <use xlink:href="#ArialMT-32" x="111.230469"/>
       <use xlink:href="#ArialMT-31" x="166.845703"/>
       <use xlink:href="#ArialMT-2d" x="222.460938"/>
       <use xlink:href="#ArialMT-31" x="255.761719"/>
       <use xlink:href="#ArialMT-32" x="311.376953"/>
       <use xlink:href="#ArialMT-2d" x="366.992188"/>
       <use xlink:href="#ArialMT-32" x="400.292969"/>
       <use xlink:href="#ArialMT-32" x="455.908203"/>
      </g>
     </g>
    </g>
    <g id="xtick_7">
     <g id="line2d_7">
      <g>
       <use xlink:href="#mea216c0b77" x="244.184934" y="286.1835" style="fill: #262626; stroke: #262626"/>
      </g>
     </g>
     <g id="text_7">
      <!-- 2022-07-28 -->
      <g style="fill: #262626" transform="translate(229.880385 330.763823) rotate(-45) scale(0.088 -0.088)">
       <defs>
        <path id="ArialMT-37" d="M 303 3981 
L 303 4522 
L 3269 4522 
L 3269 4084 
Q 2831 3619 2401 2847 
Q 1972 2075 1738 1259 
Q 1569 684 1522 0 
L 944 0 
Q 953 541 1156 1306 
Q 1359 2072 1739 2783 
Q 2119 3494 2547 3981 
L 303 3981 
z
" transform="scale(0.015625)"/>
       </defs>
       <use xlink:href="#ArialMT-32"/>
       <use xlink:href="#ArialMT-30" x="55.615234"/>
       <use xlink:href="#ArialMT-32" x="111.230469"/>
       <use xlink:href="#ArialMT-32" x="166.845703"/>
       <use xlink:href="#ArialMT-2d" x="222.460938"/>
       <use xlink:href="#ArialMT-30" x="255.761719"/>
       <use xlink:href="#ArialMT-37" x="311.376953"/>
       <use xlink:href="#ArialMT-2d" x="366.992188"/>
       <use xlink:href="#ArialMT-32" x="400.292969"/>
       <use xlink:href="#ArialMT-38" x="455.908203"/>
      </g>
     </g>
    </g>
    <g id="xtick_8">
     <g id="line2d_8">
      <g>
       <use xlink:href="#mea216c0b77" x="276.628614" y="286.1835" style="fill: #262626; stroke: #262626"/>
      </g>
     </g>
     <g id="text_8">
      <!-- 2023-03-06 -->
      <g style="fill: #262626" transform="translate(262.324065 330.763823) rotate(-45) scale(0.088 -0.088)">
       <use xlink:href="#ArialMT-32"/>
       <use xlink:href="#ArialMT-30" x="55.615234"/>
       <use xlink:href="#ArialMT-32" x="111.230469"/>
       <use xlink:href="#ArialMT-33" x="166.845703"/>
       <use xlink:href="#ArialMT-2d" x="222.460938"/>
       <use xlink:href="#ArialMT-30" x="255.761719"/>
       <use xlink:href="#ArialMT-33" x="311.376953"/>
       <use xlink:href="#ArialMT-2d" x="366.992188"/>
       <use xlink:href="#ArialMT-30" x="400.292969"/>
       <use xlink:href="#ArialMT-36" x="455.908203"/>
      </g>
     </g>
    </g>
    <g id="xtick_9">
     <g id="line2d_9">
      <g>
       <use xlink:href="#mea216c0b77" x="309.072294" y="286.1835" style="fill: #262626; stroke: #262626"/>
      </g>
     </g>
     <g id="text_9">
      <!-- 2023-10-05 -->
      <g style="fill: #262626" transform="translate(294.767745 330.763823) rotate(-45) scale(0.088 -0.088)">
       <use xlink:href="#ArialMT-32"/>
       <use xlink:href="#ArialMT-30" x="55.615234"/>
       <use xlink:href="#ArialMT-32" x="111.230469"/>
       <use xlink:href="#ArialMT-33" x="166.845703"/>
       <use xlink:href="#ArialMT-2d" x="222.460938"/>
       <use xlink:href="#ArialMT-31" x="255.761719"/>
       <use xlink:href="#ArialMT-30" x="311.376953"/>
       <use xlink:href="#ArialMT-2d" x="366.992188"/>
       <use xlink:href="#ArialMT-30" x="400.292969"/>
       <use xlink:href="#ArialMT-35" x="455.908203"/>
      </g>
     </g>
    </g>
    <g id="xtick_10">
     <g id="line2d_10">
      <g>
       <use xlink:href="#mea216c0b77" x="341.515975" y="286.1835" style="fill: #262626; stroke: #262626"/>
      </g>
     </g>
     <g id="text_10">
      <!-- 2024-05-10 -->
      <g style="fill: #262626" transform="translate(327.211425 330.763823) rotate(-45) scale(0.088 -0.088)">
       <use xlink:href="#ArialMT-32"/>
       <use xlink:href="#ArialMT-30" x="55.615234"/>
       <use xlink:href="#ArialMT-32" x="111.230469"/>
       <use xlink:href="#ArialMT-34" x="166.845703"/>
       <use xlink:href="#ArialMT-2d" x="222.460938"/>
       <use xlink:href="#ArialMT-30" x="255.761719"/>
       <use xlink:href="#ArialMT-35" x="311.376953"/>
       <use xlink:href="#ArialMT-2d" x="366.992188"/>
       <use xlink:href="#ArialMT-31" x="400.292969"/>
       <use xlink:href="#ArialMT-30" x="455.908203"/>
      </g>
     </g>
    </g>
    <g id="xtick_11">
     <g id="line2d_11">
      <g>
       <use xlink:href="#mea216c0b77" x="373.959655" y="286.1835" style="fill: #262626; stroke: #262626"/>
      </g>
     </g>
     <g id="text_11">
      <!-- 2024-12-16 -->
      <g style="fill: #262626" transform="translate(359.655106 330.763823) rotate(-45) scale(0.088 -0.088)">
       <use xlink:href="#ArialMT-32"/>
       <use xlink:href="#ArialMT-30" x="55.615234"/>
       <use xlink:href="#ArialMT-32" x="111.230469"/>
       <use xlink:href="#ArialMT-34" x="166.845703"/>
       <use xlink:href="#ArialMT-2d" x="222.460938"/>
       <use xlink:href="#ArialMT-31" x="255.761719"/>
       <use xlink:href="#ArialMT-32" x="311.376953"/>
       <use xlink:href="#ArialMT-2d" x="366.992188"/>
       <use xlink:href="#ArialMT-31" x="400.292969"/>
       <use xlink:href="#ArialMT-36" x="455.908203"/>
      </g>
     </g>
    </g>
    <g id="text_12">
     <!-- Date -->
     <g style="fill: #262626" transform="translate(201.711625 342.872053) scale(0.096 -0.096)">
      <defs>
       <path id="ArialMT-44" d="M 494 0 
L 494 4581 
L 2072 4581 
Q 2606 4581 2888 4516 
Q 3281 4425 3559 4188 
Q 3922 3881 4101 3404 
Q 4281 2928 4281 2316 
Q 4281 1794 4159 1391 
Q 4038 988 3847 723 
Q 3656 459 3429 307 
Q 3203 156 2883 78 
Q 2563 0 2147 0 
L 494 0 
z
M 1100 541 
L 2078 541 
Q 2531 541 2789 625 
Q 3047 709 3200 863 
Q 3416 1078 3536 1442 
Q 3656 1806 3656 2325 
Q 3656 3044 3420 3430 
Q 3184 3816 2847 3947 
Q 2603 4041 2063 4041 
L 1100 4041 
L 1100 541 
z
" transform="scale(0.015625)"/>
       <path id="ArialMT-61" d="M 2588 409 
Q 2275 144 1986 34 
Q 1697 -75 1366 -75 
Q 819 -75 525 192 
Q 231 459 231 875 
Q 231 1119 342 1320 
Q 453 1522 633 1644 
Q 813 1766 1038 1828 
Q 1203 1872 1538 1913 
Q 2219 1994 2541 2106 
Q 2544 2222 2544 2253 
Q 2544 2597 2384 2738 
Q 2169 2928 1744 2928 
Q 1347 2928 1158 2789 
Q 969 2650 878 2297 
L 328 2372 
Q 403 2725 575 2942 
Q 747 3159 1072 3276 
Q 1397 3394 1825 3394 
Q 2250 3394 2515 3294 
Q 2781 3194 2906 3042 
Q 3031 2891 3081 2659 
Q 3109 2516 3109 2141 
L 3109 1391 
Q 3109 606 3145 398 
Q 3181 191 3288 0 
L 2700 0 
Q 2613 175 2588 409 
z
M 2541 1666 
Q 2234 1541 1622 1453 
Q 1275 1403 1131 1340 
Q 988 1278 909 1158 
Q 831 1038 831 891 
Q 831 666 1001 516 
Q 1172 366 1500 366 
Q 1825 366 2078 508 
Q 2331 650 2450 897 
Q 2541 1088 2541 1459 
L 2541 1666 
z
" transform="scale(0.015625)"/>
       <path id="ArialMT-74" d="M 1650 503 
L 1731 6 
Q 1494 -44 1306 -44 
Q 1000 -44 831 53 
Q 663 150 594 308 
Q 525 466 525 972 
L 525 2881 
L 113 2881 
L 113 3319 
L 525 3319 
L 525 4141 
L 1084 4478 
L 1084 3319 
L 1650 3319 
L 1650 2881 
L 1084 2881 
L 1084 941 
Q 1084 700 1114 631 
Q 1144 563 1211 522 
Q 1278 481 1403 481 
Q 1497 481 1650 503 
z
" transform="scale(0.015625)"/>
       <path id="ArialMT-65" d="M 2694 1069 
L 3275 997 
Q 3138 488 2766 206 
Q 2394 -75 1816 -75 
Q 1088 -75 661 373 
Q 234 822 234 1631 
Q 234 2469 665 2931 
Q 1097 3394 1784 3394 
Q 2450 3394 2872 2941 
Q 3294 2488 3294 1666 
Q 3294 1616 3291 1516 
L 816 1516 
Q 847 969 1125 678 
Q 1403 388 1819 388 
Q 2128 388 2347 550 
Q 2566 713 2694 1069 
z
M 847 1978 
L 2700 1978 
Q 2663 2397 2488 2606 
Q 2219 2931 1791 2931 
Q 1403 2931 1139 2672 
Q 875 2413 847 1978 
z
" transform="scale(0.015625)"/>
      </defs>
      <use xlink:href="#ArialMT-44"/>
      <use xlink:href="#ArialMT-61" x="72.216797"/>
      <use xlink:href="#ArialMT-74" x="127.832031"/>
      <use xlink:href="#ArialMT-65" x="155.615234"/>
     </g>
    </g>
   </g>
   <g id="matplotlib.axis_2">
    <g id="ytick_1">
     <g id="line2d_12">
      <defs>
       <path id="m2ff3240471" d="M 0 0 
L -4.8 0 
" style="stroke: #262626"/>
      </defs>
      <g>
       <use xlink:href="#m2ff3240471" x="33.290125" y="278.356676" style="fill: #262626; stroke: #262626"/>
      </g>
     </g>
     <g id="text_13">
      <!-- 0 -->
      <g style="fill: #262626" transform="translate(20.0965 281.506114) scale(0.088 -0.088)">
       <use xlink:href="#ArialMT-30"/>
      </g>
     </g>
    </g>
    <g id="ytick_2">
     <g id="line2d_13">
      <g>
       <use xlink:href="#m2ff3240471" x="33.290125" y="230.921382" style="fill: #262626; stroke: #262626"/>
      </g>
     </g>
     <g id="text_14">
      <!-- 1 -->
      <g style="fill: #262626" transform="translate(20.0965 234.07082) scale(0.088 -0.088)">
       <use xlink:href="#ArialMT-31"/>
      </g>
     </g>
    </g>
    <g id="ytick_3">
     <g id="line2d_14">
      <g>
       <use xlink:href="#m2ff3240471" x="33.290125" y="183.486088" style="fill: #262626; stroke: #262626"/>
      </g>
     </g>
     <g id="text_15">
      <!-- 2 -->
      <g style="fill: #262626" transform="translate(20.0965 186.635526) scale(0.088 -0.088)">
       <use xlink:href="#ArialMT-32"/>
      </g>
     </g>
    </g>
    <g id="ytick_4">
     <g id="line2d_15">
      <g>
       <use xlink:href="#m2ff3240471" x="33.290125" y="136.050794" style="fill: #262626; stroke: #262626"/>
      </g>
     </g>
     <g id="text_16">
      <!-- 3 -->
      <g style="fill: #262626" transform="translate(20.0965 139.200232) scale(0.088 -0.088)">
       <use xlink:href="#ArialMT-33"/>
      </g>
     </g>
    </g>
    <g id="ytick_5">
     <g id="line2d_16">
      <g>
       <use xlink:href="#m2ff3240471" x="33.290125" y="88.6155" style="fill: #262626; stroke: #262626"/>
      </g>
     </g>
     <g id="text_17">
      <!-- 4 -->
      <g style="fill: #262626" transform="translate(20.0965 91.764937) scale(0.088 -0.088)">
       <use xlink:href="#ArialMT-34"/>
      </g>
     </g>
    </g>
    <g id="ytick_6">
     <g id="line2d_17">
      <g>
       <use xlink:href="#m2ff3240471" x="33.290125" y="41.180206" style="fill: #262626; stroke: #262626"/>
      </g>
     </g>
     <g id="text_18">
      <!-- 5 -->
      <g style="fill: #262626" transform="translate(20.0965 44.329643) scale(0.088 -0.088)">
       <use xlink:href="#ArialMT-35"/>
      </g>
     </g>
    </g>
    <g id="text_19">
     <!-- Yield rate [%] -->
     <g style="fill: #262626" transform="translate(14.1885 181.49325) rotate(-90) scale(0.096 -0.096)">
      <defs>
       <path id="ArialMT-59" d="M 1784 0 
L 1784 1941 
L 19 4581 
L 756 4581 
L 1659 3200 
Q 1909 2813 2125 2425 
Q 2331 2784 2625 3234 
L 3513 4581 
L 4219 4581 
L 2391 1941 
L 2391 0 
L 1784 0 
z
" transform="scale(0.015625)"/>
       <path id="ArialMT-69" d="M 425 3934 
L 425 4581 
L 988 4581 
L 988 3934 
L 425 3934 
z
M 425 0 
L 425 3319 
L 988 3319 
L 988 0 
L 425 0 
z
" transform="scale(0.015625)"/>
       <path id="ArialMT-6c" d="M 409 0 
L 409 4581 
L 972 4581 
L 972 0 
L 409 0 
z
" transform="scale(0.015625)"/>
       <path id="ArialMT-64" d="M 2575 0 
L 2575 419 
Q 2259 -75 1647 -75 
Q 1250 -75 917 144 
Q 584 363 401 755 
Q 219 1147 219 1656 
Q 219 2153 384 2558 
Q 550 2963 881 3178 
Q 1213 3394 1622 3394 
Q 1922 3394 2156 3267 
Q 2391 3141 2538 2938 
L 2538 4581 
L 3097 4581 
L 3097 0 
L 2575 0 
z
M 797 1656 
Q 797 1019 1065 703 
Q 1334 388 1700 388 
Q 2069 388 2326 689 
Q 2584 991 2584 1609 
Q 2584 2291 2321 2609 
Q 2059 2928 1675 2928 
Q 1300 2928 1048 2622 
Q 797 2316 797 1656 
z
" transform="scale(0.015625)"/>
       <path id="ArialMT-20" transform="scale(0.015625)"/>
       <path id="ArialMT-72" d="M 416 0 
L 416 3319 
L 922 3319 
L 922 2816 
Q 1116 3169 1280 3281 
Q 1444 3394 1641 3394 
Q 1925 3394 2219 3213 
L 2025 2691 
Q 1819 2813 1613 2813 
Q 1428 2813 1281 2702 
Q 1134 2591 1072 2394 
Q 978 2094 978 1738 
L 978 0 
L 416 0 
z
" transform="scale(0.015625)"/>
       <path id="ArialMT-5b" d="M 434 -1272 
L 434 4581 
L 1675 4581 
L 1675 4116 
L 997 4116 
L 997 -806 
L 1675 -806 
L 1675 -1272 
L 434 -1272 
z
" transform="scale(0.015625)"/>
       <path id="ArialMT-25" d="M 372 3481 
Q 372 3972 619 4315 
Q 866 4659 1334 4659 
Q 1766 4659 2048 4351 
Q 2331 4044 2331 3447 
Q 2331 2866 2045 2552 
Q 1759 2238 1341 2238 
Q 925 2238 648 2547 
Q 372 2856 372 3481 
z
M 1350 4272 
Q 1141 4272 1002 4090 
Q 863 3909 863 3425 
Q 863 2984 1003 2804 
Q 1144 2625 1350 2625 
Q 1563 2625 1702 2806 
Q 1841 2988 1841 3469 
Q 1841 3913 1700 4092 
Q 1559 4272 1350 4272 
z
M 1353 -169 
L 3859 4659 
L 4316 4659 
L 1819 -169 
L 1353 -169 
z
M 3334 1075 
Q 3334 1569 3581 1911 
Q 3828 2253 4300 2253 
Q 4731 2253 5014 1945 
Q 5297 1638 5297 1041 
Q 5297 459 5011 145 
Q 4725 -169 4303 -169 
Q 3888 -169 3611 142 
Q 3334 453 3334 1075 
z
M 4316 1866 
Q 4103 1866 3964 1684 
Q 3825 1503 3825 1019 
Q 3825 581 3965 400 
Q 4106 219 4313 219 
Q 4528 219 4667 400 
Q 4806 581 4806 1063 
Q 4806 1506 4665 1686 
Q 4525 1866 4316 1866 
z
" transform="scale(0.015625)"/>
       <path id="ArialMT-5d" d="M 1363 -1272 
L 122 -1272 
L 122 -806 
L 800 -806 
L 800 4116 
L 122 4116 
L 122 4581 
L 1363 4581 
L 1363 -1272 
z
" transform="scale(0.015625)"/>
      </defs>
      <use xlink:href="#ArialMT-59"/>
      <use xlink:href="#ArialMT-69" x="62.949219"/>
      <use xlink:href="#ArialMT-65" x="85.166016"/>
      <use xlink:href="#ArialMT-6c" x="140.78125"/>
      <use xlink:href="#ArialMT-64" x="162.998047"/>
      <use xlink:href="#ArialMT-20" x="218.613281"/>
      <use xlink:href="#ArialMT-72" x="246.396484"/>
      <use xlink:href="#ArialMT-61" x="279.697266"/>
      <use xlink:href="#ArialMT-74" x="335.3125"/>
      <use xlink:href="#ArialMT-65" x="363.095703"/>
      <use xlink:href="#ArialMT-20" x="418.710938"/>
      <use xlink:href="#ArialMT-5b" x="446.494141"/>
      <use xlink:href="#ArialMT-25" x="474.277344"/>
      <use xlink:href="#ArialMT-5d" x="563.193359"/>
     </g>
    </g>
   </g>
   <g id="line2d_18">
    <path d="M 49.522852 159.768441 
L 49.740595 164.986324 
L 49.958338 159.768441 
L 50.176081 158.345382 
L 50.393824 155.973618 
L 50.611566 156.922324 
L 50.829309 156.922324 
L 51.047052 157.396676 
L 51.264795 158.345382 
L 51.482538 158.345382 
L 51.918023 156.922324 
L 52.135766 154.076206 
L 52.353509 155.973618 
L 52.571252 155.973618 
L 52.788995 156.922324 
L 53.006737 155.024912 
L 53.22448 155.024912 
L 53.659966 158.819735 
L 53.877709 162.140206 
L 54.095452 158.819735 
L 54.313194 158.345382 
L 54.530937 158.345382 
L 54.74868 158.819735 
L 55.184166 162.140206 
L 55.837394 158.345382 
L 56.055137 159.768441 
L 56.27288 158.819735 
L 56.490623 159.768441 
L 56.708365 159.768441 
L 56.926108 158.345382 
L 57.143851 160.717147 
L 57.361594 159.294088 
L 57.579337 160.717147 
L 58.450308 157.396676 
L 58.668051 157.396676 
L 58.885794 158.819735 
L 59.103536 161.1915 
L 59.321279 162.140206 
L 59.539022 161.1915 
L 59.756765 162.140206 
L 59.974508 162.140206 
L 60.19225 161.665853 
L 60.409993 163.088912 
L 60.845479 161.665853 
L 61.063222 164.511971 
L 61.280965 164.037618 
L 61.71645 171.152912 
L 62.151936 173.050324 
L 62.369679 172.575971 
L 62.805164 167.832441 
L 63.022907 169.2555 
L 63.24065 167.832441 
L 63.458393 167.832441 
L 63.893878 166.409382 
L 64.111621 166.883735 
L 64.329364 168.781147 
L 64.76485 164.511971 
L 64.982593 164.511971 
L 65.200335 164.037618 
L 65.418078 164.511971 
L 65.635821 165.460676 
L 65.853564 165.460676 
L 66.071307 166.409382 
L 66.289049 168.306794 
L 66.506792 167.832441 
L 66.724535 170.204206 
L 66.942278 169.2555 
L 67.160021 170.678559 
L 67.595506 166.883735 
L 68.248735 170.204206 
L 68.466478 169.2555 
L 68.68422 171.152912 
L 68.901963 171.152912 
L 69.119706 174.947735 
L 69.337449 173.999029 
L 69.555192 175.896441 
L 69.772935 173.999029 
L 69.990677 173.999029 
L 70.20842 173.524676 
L 70.426163 171.152912 
L 70.643906 172.575971 
L 70.861649 177.793853 
L 71.079392 175.896441 
L 71.73262 180.639971 
L 72.168106 192.024441 
L 72.385848 189.178324 
L 72.603591 191.550088 
L 72.821334 189.178324 
L 73.039077 190.601382 
L 73.474563 186.806559 
L 73.910048 191.550088 
L 74.127791 191.075735 
L 74.345534 190.127029 
L 74.563277 190.127029 
L 74.781019 195.819265 
L 74.998762 196.767971 
L 75.216505 194.396206 
L 75.434248 196.767971 
L 75.651991 197.242324 
L 75.869734 194.396206 
L 76.087476 195.819265 
L 76.305219 195.344912 
L 76.522962 193.921853 
L 76.740705 194.396206 
L 76.958448 194.396206 
L 77.17619 189.652676 
L 77.393933 189.178324 
L 77.611676 187.280912 
L 77.829419 192.024441 
L 78.047162 190.601382 
L 78.482647 191.550088 
L 78.70039 189.652676 
L 79.135876 194.396206 
L 79.353619 192.973147 
L 79.571362 192.973147 
L 79.789104 191.550088 
L 80.006847 191.550088 
L 80.22459 190.127029 
L 80.442333 190.127029 
L 80.660076 190.601382 
L 80.877818 190.601382 
L 81.095561 188.703971 
L 81.313304 196.293618 
L 81.531047 196.767971 
L 81.74879 202.934559 
L 81.966533 202.460206 
L 82.184275 202.934559 
L 82.402018 201.5115 
L 82.619761 201.037147 
L 82.837504 203.408912 
L 83.055247 199.614088 
L 83.490732 208.152441 
L 83.708475 208.152441 
L 83.926218 205.780676 
L 84.143961 207.203735 
L 84.579446 201.985853 
L 84.797189 206.729382 
L 85.014932 205.306324 
L 85.232675 205.780676 
L 85.450418 207.203735 
L 85.66816 205.780676 
L 86.321389 210.524206 
L 86.539132 204.831971 
L 86.756875 205.780676 
L 86.974617 203.408912 
L 87.19236 199.139735 
L 87.410103 198.665382 
L 87.627846 196.767971 
L 87.845589 193.4475 
L 88.063332 195.819265 
L 88.281074 196.767971 
L 88.498817 194.396206 
L 88.71656 195.819265 
L 88.934303 198.191029 
L 89.152046 198.665382 
L 89.369788 202.460206 
L 89.587531 198.665382 
L 90.24076 201.037147 
L 90.893988 212.421618 
L 91.111731 211.947265 
L 91.329474 209.101147 
L 91.547217 210.998559 
L 91.982702 205.780676 
L 92.200445 201.037147 
L 92.635931 203.408912 
L 92.853674 202.460206 
L 93.071416 203.408912 
L 93.289159 201.5115 
L 93.724645 203.408912 
L 93.942388 203.408912 
L 94.16013 201.037147 
L 94.377873 200.562794 
L 94.595616 200.562794 
L 94.813359 201.985853 
L 95.031102 206.255029 
L 95.68433 201.037147 
L 95.902073 201.985853 
L 96.119816 198.665382 
L 96.337559 198.665382 
L 96.773044 201.037147 
L 96.990787 203.408912 
L 97.20853 201.985853 
L 97.426273 202.460206 
L 97.644016 202.460206 
L 97.861758 204.357618 
L 98.079501 202.460206 
L 98.297244 201.985853 
L 98.514987 201.985853 
L 98.73273 203.408912 
L 98.950473 201.037147 
L 99.168215 201.985853 
L 99.385958 201.985853 
L 99.603701 205.780676 
L 99.821444 203.408912 
L 100.039187 203.408912 
L 100.474672 201.037147 
L 100.692415 200.088441 
L 100.910158 201.985853 
L 101.127901 199.614088 
L 101.345644 201.985853 
L 101.563386 200.088441 
L 101.781129 201.037147 
L 101.998872 201.037147 
L 102.216615 201.5115 
L 102.6521 200.562794 
L 102.869843 201.5115 
L 103.087586 200.562794 
L 103.305329 202.934559 
L 103.523072 203.408912 
L 103.958557 203.408912 
L 104.1763 205.780676 
L 104.394043 205.306324 
L 104.611786 205.306324 
L 104.829529 203.408912 
L 105.047272 203.408912 
L 105.265014 204.357618 
L 105.482757 203.408912 
L 105.7005 203.408912 
L 105.918243 204.357618 
L 106.135986 203.408912 
L 106.353728 203.408912 
L 106.571471 205.780676 
L 106.789214 205.780676 
L 107.2247 207.678088 
L 107.442443 210.049853 
L 107.660185 209.5755 
L 107.877928 210.998559 
L 108.095671 211.472912 
L 108.313414 215.267735 
L 108.531157 213.844676 
L 108.966642 210.049853 
L 109.184385 210.049853 
L 109.619871 213.370324 
L 110.055356 210.049853 
L 110.273099 210.049853 
L 110.708585 211.472912 
L 110.926328 210.998559 
L 111.14407 212.421618 
L 111.361813 214.793382 
L 111.797299 221.434324 
L 112.232785 225.7035 
L 112.450527 237.562324 
L 112.66827 238.511029 
L 112.886013 244.677618 
L 113.103756 246.575029 
L 113.539242 255.113382 
L 113.756984 260.331265 
L 113.974727 254.639029 
L 114.410213 254.639029 
L 114.627956 255.113382 
L 114.845698 261.279971 
L 115.281184 252.741618 
L 115.934413 265.074794 
L 116.152155 260.331265 
L 117.023127 267.446559 
L 117.894098 267.446559 
L 118.111841 265.549147 
L 118.329584 265.074794 
L 118.547326 265.549147 
L 118.765069 267.446559 
L 118.982812 266.497853 
L 119.63604 268.869618 
L 120.289269 268.869618 
L 120.507012 267.920912 
L 120.942497 267.920912 
L 121.16024 266.972206 
L 121.377983 268.869618 
L 122.031212 268.869618 
L 122.248954 269.343971 
L 122.466697 269.343971 
L 122.68444 270.292676 
L 122.902183 272.190088 
L 123.119926 270.767029 
L 123.337668 270.292676 
L 123.555411 270.292676 
L 123.773154 270.767029 
L 124.20864 270.767029 
L 124.426383 269.818324 
L 124.861868 270.767029 
L 125.079611 270.292676 
L 125.297354 270.292676 
L 125.732839 269.343971 
L 126.386068 271.715735 
L 126.821554 269.343971 
L 127.039296 269.343971 
L 127.257039 267.920912 
L 127.474782 267.920912 
L 127.910268 270.292676 
L 128.12801 269.343971 
L 128.563496 269.343971 
L 128.781239 268.395265 
L 128.998982 269.343971 
L 129.65221 269.343971 
L 129.869953 269.818324 
L 130.087696 269.343971 
L 130.305439 270.292676 
L 130.523182 270.292676 
L 130.740924 270.767029 
L 130.958667 270.767029 
L 131.17641 270.292676 
L 131.394153 270.767029 
L 132.70061 270.767029 
L 132.918353 271.715735 
L 133.136095 270.767029 
L 133.353838 270.767029 
L 133.571581 271.715735 
L 133.789324 270.767029 
L 134.007067 271.715735 
L 134.224809 271.715735 
L 134.442552 270.767029 
L 134.660295 271.715735 
L 134.878038 271.241382 
L 135.095781 271.715735 
L 135.531266 273.138794 
L 136.61998 273.138794 
L 137.273209 270.767029 
L 137.708695 270.767029 
L 137.926437 271.715735 
L 138.579666 271.715735 
L 138.797409 272.190088 
L 139.015152 270.767029 
L 139.232894 271.715735 
L 139.66838 270.767029 
L 139.886123 270.767029 
L 140.103866 271.715735 
L 140.321608 271.715735 
L 140.539351 272.190088 
L 140.757094 271.715735 
L 140.974837 272.190088 
L 141.19258 271.715735 
L 141.845808 271.715735 
L 142.063551 272.190088 
L 142.281294 271.715735 
L 142.716779 271.715735 
L 142.934522 272.190088 
L 143.152265 271.715735 
L 143.370008 271.715735 
L 143.587751 272.190088 
L 143.805494 271.715735 
L 144.023236 271.715735 
L 144.240979 272.664441 
L 144.458722 271.715735 
L 144.676465 273.138794 
L 145.11195 271.715735 
L 145.329693 272.190088 
L 145.547436 271.715735 
L 145.765179 271.715735 
L 145.982922 270.767029 
L 146.200665 272.190088 
L 146.418407 270.767029 
L 146.63615 270.767029 
L 146.853893 271.715735 
L 147.289379 271.715735 
L 147.507122 270.767029 
L 147.724864 271.715735 
L 147.942607 271.715735 
L 148.378093 269.818324 
L 148.595836 270.767029 
L 149.249064 270.767029 
L 149.466807 271.715735 
L 149.902293 270.292676 
L 150.120035 271.715735 
L 150.337778 271.715735 
L 150.991007 269.343971 
L 151.208749 270.292676 
L 151.426492 270.292676 
L 151.644235 269.343971 
L 151.861978 269.818324 
L 152.079721 270.767029 
L 152.297464 269.818324 
L 152.515206 270.767029 
L 152.950692 270.767029 
L 153.168435 270.292676 
L 153.386178 270.767029 
L 153.603921 270.767029 
L 153.821663 270.292676 
L 154.039406 270.767029 
L 154.474892 270.767029 
L 154.692635 271.715735 
L 154.910377 271.715735 
L 155.12812 270.767029 
L 155.563606 273.138794 
L 155.781349 272.190088 
L 155.999092 273.138794 
L 156.216834 272.190088 
L 157.741034 272.190088 
L 157.958777 272.664441 
L 158.17652 272.664441 
L 158.394263 272.190088 
L 158.612005 273.138794 
L 159.047491 271.715735 
L 160.136205 271.715735 
L 160.353948 270.767029 
L 160.571691 272.190088 
L 160.789434 271.715735 
L 161.007176 272.190088 
L 161.660405 272.190088 
L 161.878148 273.138794 
L 162.095891 272.664441 
L 162.313633 272.664441 
L 162.531376 273.138794 
L 163.402347 273.138794 
L 163.62009 274.0875 
L 163.837833 273.138794 
L 164.708804 273.138794 
L 164.926547 272.190088 
L 165.14429 273.138794 
L 166.015261 273.138794 
L 166.233004 272.664441 
L 166.450747 270.292676 
L 166.66849 271.715735 
L 166.886233 272.190088 
L 167.103975 272.190088 
L 167.321718 271.715735 
L 167.757204 271.715735 
L 167.974947 270.292676 
L 168.192689 270.292676 
L 168.410432 270.767029 
L 168.628175 271.715735 
L 169.063661 271.715735 
L 169.281404 271.241382 
L 169.499146 272.190088 
L 169.716889 270.767029 
L 169.934632 270.767029 
L 170.152375 271.241382 
L 170.370118 271.241382 
L 170.587861 271.715735 
L 171.241089 271.715735 
L 171.458832 270.767029 
L 171.676575 270.767029 
L 171.894317 270.292676 
L 172.11206 269.343971 
L 172.547546 270.767029 
L 172.765289 270.767029 
L 172.983032 271.715735 
L 173.418517 269.818324 
L 173.63626 270.767029 
L 174.507231 270.767029 
L 174.724974 271.241382 
L 174.942717 271.241382 
L 175.16046 270.767029 
L 175.378203 270.767029 
L 175.595945 269.818324 
L 175.813688 270.292676 
L 176.031431 270.292676 
L 176.249174 270.767029 
L 177.337888 270.767029 
L 177.555631 271.715735 
L 177.773374 270.767029 
L 179.297573 270.767029 
L 179.515316 271.241382 
L 179.733059 270.292676 
L 179.950802 271.241382 
L 180.168545 271.241382 
L 180.386287 271.715735 
L 180.821773 271.715735 
L 181.039516 270.767029 
L 181.257259 272.190088 
L 181.475002 270.767029 
L 181.692744 271.715735 
L 181.910487 270.767029 
L 182.12823 271.715735 
L 182.345973 270.767029 
L 182.563716 271.715735 
L 182.781458 270.767029 
L 183.216944 270.767029 
L 183.434687 268.395265 
L 184.087915 265.549147 
L 184.305658 266.497853 
L 184.523401 266.0235 
L 184.741144 266.0235 
L 184.958887 265.074794 
L 185.176629 266.497853 
L 185.394372 265.549147 
L 185.612115 266.497853 
L 185.829858 266.497853 
L 186.047601 266.972206 
L 186.265344 267.920912 
L 186.483086 267.920912 
L 186.700829 269.343971 
L 186.918572 267.446559 
L 187.136315 267.446559 
L 187.354058 266.0235 
L 187.571801 267.446559 
L 187.789543 267.446559 
L 188.007286 266.497853 
L 188.225029 268.395265 
L 188.442772 268.869618 
L 188.660515 267.920912 
L 188.878257 268.869618 
L 189.096 267.920912 
L 189.313743 267.920912 
L 189.531486 268.869618 
L 189.966972 268.869618 
L 190.184714 269.343971 
L 190.402457 270.292676 
L 190.837943 270.292676 
L 191.055686 268.395265 
L 191.273428 268.395265 
L 191.708914 266.972206 
L 191.926657 267.446559 
L 192.362143 267.446559 
L 192.579885 268.395265 
L 192.797628 267.446559 
L 193.015371 267.446559 
L 193.233114 267.920912 
L 193.450857 267.446559 
L 193.668599 267.446559 
L 193.886342 266.972206 
L 194.104085 267.446559 
L 194.321828 266.497853 
L 194.757314 268.869618 
L 195.410542 268.869618 
L 195.846028 267.920912 
L 196.063771 267.920912 
L 196.281513 267.446559 
L 196.499256 267.446559 
L 196.716999 268.395265 
L 197.152485 268.395265 
L 197.370227 267.446559 
L 197.805713 267.446559 
L 198.023456 267.920912 
L 198.458942 265.549147 
L 198.894427 263.651735 
L 199.11217 263.651735 
L 199.329913 264.126088 
L 199.765398 265.549147 
L 199.983141 265.549147 
L 200.200884 265.074794 
L 200.63637 263.177382 
L 200.854113 263.177382 
L 201.289598 260.805618 
L 201.507341 261.279971 
L 201.942827 257.485147 
L 202.160569 258.908206 
L 202.378312 259.382559 
L 202.813798 255.587735 
L 203.031541 256.062088 
L 203.249284 256.062088 
L 203.467026 254.639029 
L 203.684769 254.639029 
L 203.902512 255.587735 
L 204.120255 254.639029 
L 204.337998 256.536441 
L 204.555741 256.062088 
L 204.773483 258.908206 
L 204.991226 259.856912 
L 205.208969 257.010794 
L 205.426712 258.908206 
L 205.644455 254.164676 
L 205.862197 253.215971 
L 206.07994 253.215971 
L 206.297683 252.741618 
L 206.515426 253.690324 
L 206.950912 253.690324 
L 207.168654 248.472441 
L 207.386397 249.8955 
L 207.60414 247.998088 
L 207.821883 254.639029 
L 208.257368 253.690324 
L 208.475111 251.792912 
L 208.692854 248.472441 
L 208.910597 249.8955 
L 209.346083 245.151971 
L 209.563825 246.100676 
L 209.781568 245.151971 
L 209.999311 246.575029 
L 210.217054 247.049382 
L 210.434797 246.575029 
L 210.652539 245.626324 
L 210.870282 247.998088 
L 211.088025 247.049382 
L 211.305768 247.523735 
L 211.523511 245.151971 
L 211.741254 246.100676 
L 211.958996 244.677618 
L 212.176739 242.305853 
L 212.394482 243.254559 
L 212.612225 242.780206 
L 212.829968 243.728912 
L 213.047711 243.728912 
L 213.265453 241.357147 
L 213.483196 241.8315 
L 213.918682 236.613618 
L 214.136425 237.087971 
L 214.354167 234.716206 
L 214.57191 235.664912 
L 214.789653 234.716206 
L 215.007396 235.190559 
L 215.442882 228.075265 
L 215.660624 229.023971 
L 215.878367 227.126559 
L 216.09611 230.447029 
L 216.313853 231.395735 
L 216.531596 229.972676 
L 216.749338 224.754794 
L 216.967081 222.383029 
L 217.184824 223.806088 
L 217.402567 222.383029 
L 217.62031 222.383029 
L 217.838053 223.331735 
L 218.055795 221.908676 
L 218.273538 216.216441 
L 218.491281 216.690794 
L 218.709024 214.319029 
L 218.926767 213.844676 
L 219.144509 201.985853 
L 219.362252 207.203735 
L 219.579995 203.408912 
L 219.797738 203.408912 
L 220.233224 207.678088 
L 220.450966 208.626794 
L 220.668709 204.357618 
L 220.886452 203.408912 
L 221.104195 205.306324 
L 221.321938 204.831971 
L 221.757423 216.216441 
L 221.975166 207.203735 
L 222.192909 205.780676 
L 222.410652 207.203735 
L 222.628395 204.831971 
L 223.06388 198.665382 
L 223.499366 195.344912 
L 223.717109 189.652676 
L 223.934852 190.601382 
L 224.152594 185.857853 
L 224.370337 186.332206 
L 224.58808 184.909147 
L 224.805823 176.845147 
L 225.023566 174.947735 
L 225.241308 177.3195 
L 225.459051 177.3195 
L 225.676794 169.2555 
L 225.894537 166.883735 
L 226.11228 166.883735 
L 226.547765 170.204206 
L 226.765508 162.614559 
L 226.983251 163.088912 
L 227.200994 159.294088 
L 227.418737 159.768441 
L 227.636479 161.1915 
L 227.854222 158.345382 
L 228.071965 159.768441 
L 228.289708 164.986324 
L 228.507451 165.935029 
L 228.725194 161.1915 
L 228.942936 161.665853 
L 229.160679 154.550559 
L 229.378422 155.024912 
L 229.813908 149.332676 
L 230.249393 157.871029 
L 230.684879 153.601853 
L 230.902622 150.281382 
L 231.120365 148.858324 
L 231.338107 146.486559 
L 231.55585 152.178794 
L 231.773593 149.807029 
L 231.991336 149.332676 
L 232.209079 154.550559 
L 232.426822 154.076206 
L 232.644564 152.178794 
L 232.862307 156.922324 
L 233.08005 154.550559 
L 233.297793 155.973618 
L 233.515536 149.807029 
L 233.733278 151.230088 
L 234.168764 155.024912 
L 234.386507 152.653147 
L 234.60425 159.768441 
L 235.039735 161.665853 
L 235.257478 161.1915 
L 235.475221 158.345382 
L 235.692964 152.178794 
L 235.910707 152.653147 
L 236.128449 152.178794 
L 236.346192 148.858324 
L 236.781678 146.486559 
L 236.999421 144.114794 
L 237.652649 114.704912 
L 237.870392 126.563735 
L 238.088135 129.409853 
L 238.523621 126.089382 
L 238.741363 133.204676 
L 238.959106 135.576441 
L 239.612335 131.307265 
L 239.830077 133.204676 
L 240.265563 143.640441 
L 240.483306 144.589147 
L 240.701049 137.473853 
L 241.136534 130.358559 
L 241.57202 134.627735 
L 241.789763 129.884206 
L 242.007506 128.9355 
L 242.225248 129.884206 
L 242.442991 128.9355 
L 242.660734 125.140676 
L 242.878477 124.191971 
L 243.313963 136.9995 
L 243.749448 135.102088 
L 243.967191 137.948206 
L 244.184934 143.166088 
L 244.402677 141.268676 
L 244.620419 140.794324 
L 244.838162 133.204676 
L 245.055905 131.307265 
L 245.273648 134.627735 
L 245.491391 124.666324 
L 245.709134 126.089382 
L 245.926876 122.768912 
L 246.144619 125.140676 
L 246.362362 125.140676 
L 246.580105 124.191971 
L 246.797848 126.563735 
L 247.233333 122.768912 
L 247.451076 125.615029 
L 247.668819 124.191971 
L 247.886562 120.8715 
L 248.104305 122.294559 
L 248.322047 118.974088 
L 248.53979 119.448441 
L 248.757533 118.499735 
L 249.193019 114.230559 
L 249.410762 114.704912 
L 249.628504 111.858794 
L 249.846247 117.076676 
L 250.06399 112.333147 
L 250.281733 114.704912 
L 250.499476 113.281853 
L 250.717218 109.487029 
L 250.934961 108.538324 
L 251.152704 100.474324 
L 251.370447 99.051265 
L 251.58819 94.782088 
L 251.805933 95.730794 
L 252.023675 90.987265 
L 252.241418 90.512912 
L 252.676904 83.397618 
L 253.112389 75.807971 
L 253.330132 74.384912 
L 253.547875 85.295029 
L 253.983361 78.179735 
L 254.201104 82.923265 
L 254.418846 83.871971 
L 254.636589 81.500206 
L 255.072075 74.384912 
L 255.289818 74.384912 
L 255.507561 75.333618 
L 255.725303 66.320912 
L 255.943046 65.846559 
L 256.378532 68.218324 
L 256.814017 59.205618 
L 257.03176 65.372206 
L 257.249503 64.897853 
L 257.467246 68.692676 
L 257.684989 70.115735 
L 257.902732 74.384912 
L 258.338217 64.4235 
L 258.55596 63.000441 
L 258.991446 54.936441 
L 259.209188 57.308206 
L 259.426931 54.462088 
L 259.862417 59.679971 
L 260.08016 72.4875 
L 260.297903 69.641382 
L 260.733388 72.013147 
L 261.168874 64.4235 
L 261.386617 65.846559 
L 261.822102 66.795265 
L 262.039845 68.692676 
L 262.475331 65.846559 
L 262.910816 76.756676 
L 263.128559 75.333618 
L 263.346302 69.167029 
L 263.781788 76.282324 
L 263.999531 73.910559 
L 264.217273 72.961853 
L 264.435016 70.115735 
L 264.652759 78.179735 
L 264.870502 77.705382 
L 265.088245 77.705382 
L 265.305987 80.5515 
L 265.52373 76.756676 
L 265.741473 76.756676 
L 265.959216 78.654088 
L 266.176959 77.231029 
L 266.394702 73.910559 
L 266.612444 73.436206 
L 266.830187 73.910559 
L 267.04793 72.4875 
L 267.265673 69.167029 
L 267.483416 69.641382 
L 267.701158 71.538794 
L 267.918901 67.269618 
L 268.136644 77.231029 
L 268.354387 79.602794 
L 268.57213 77.231029 
L 268.789873 79.128441 
L 269.007615 82.923265 
L 269.225358 78.179735 
L 269.443101 80.077147 
L 269.660844 85.769382 
L 269.878587 84.346324 
L 270.314072 78.654088 
L 270.531815 82.923265 
L 270.749558 83.397618 
L 270.967301 80.5515 
L 271.185044 79.602794 
L 271.402786 76.756676 
L 271.620529 78.654088 
L 271.838272 84.346324 
L 272.056015 84.346324 
L 272.491501 67.743971 
L 272.709243 66.320912 
L 272.926986 67.269618 
L 273.362472 64.897853 
L 273.580215 63.949147 
L 273.797957 60.154324 
L 274.0157 59.205618 
L 274.233443 59.205618 
L 274.451186 60.154324 
L 274.668929 56.833853 
L 274.886672 57.308206 
L 275.104414 57.308206 
L 275.322157 51.615971 
L 275.5399 51.615971 
L 275.757643 50.192912 
L 275.975386 46.398088 
L 276.193128 46.398088 
L 276.410871 47.821147 
L 276.628614 46.398088 
L 276.846357 41.180206 
L 277.0641 38.808441 
L 277.281843 45.923735 
L 277.499585 60.154324 
L 277.717328 87.192441 
L 277.935071 79.128441 
L 278.152814 91.935971 
L 278.370557 81.974559 
L 278.5883 97.628206 
L 278.806042 92.410324 
L 279.023785 80.5515 
L 279.459271 99.999971 
L 279.677014 99.999971 
L 279.894756 91.461618 
L 280.330242 84.820676 
L 280.547985 83.871971 
L 280.765728 85.769382 
L 281.418956 98.576912 
L 281.636699 97.153853 
L 281.854442 90.038559 
L 282.289927 87.192441 
L 282.50767 90.987265 
L 282.725413 90.512912 
L 283.160899 80.077147 
L 283.378642 79.602794 
L 283.596384 77.231029 
L 283.814127 81.974559 
L 284.03187 80.5515 
L 284.249613 82.923265 
L 284.467356 95.256441 
L 284.685098 93.359029 
L 284.902841 85.295029 
L 285.120584 86.718088 
L 285.338327 81.974559 
L 285.55607 90.038559 
L 285.773813 93.833382 
L 285.991555 100.474324 
L 286.209298 92.410324 
L 286.427041 88.6155 
L 286.644784 88.141147 
L 286.862527 93.359029 
L 287.08027 93.833382 
L 287.298012 89.564206 
L 287.515755 89.089853 
L 287.951241 82.923265 
L 288.168984 77.231029 
L 288.386726 75.333618 
L 288.604469 74.859265 
L 288.822212 76.282324 
L 289.039955 73.910559 
L 289.257698 64.897853 
L 289.475441 63.000441 
L 290.128669 72.961853 
L 290.346412 64.897853 
L 290.564155 66.795265 
L 290.99964 62.051735 
L 291.217383 63.949147 
L 291.435126 60.628676 
L 291.652869 62.526088 
L 292.088354 53.513382 
L 292.306097 59.205618 
L 292.52384 55.410794 
L 292.741583 56.3595 
L 292.959326 56.3595 
L 293.177068 52.090324 
L 293.612554 57.782559 
L 293.830297 53.513382 
L 294.04804 54.936441 
L 294.265783 47.346794 
L 294.483525 47.346794 
L 294.701268 44.026324 
L 294.919011 44.026324 
L 295.136754 41.654559 
L 295.354497 44.026324 
L 295.57224 48.2955 
L 295.789982 46.872441 
L 296.225468 60.628676 
L 296.443211 53.513382 
L 297.096439 53.513382 
L 297.314182 50.667265 
L 297.531925 49.718559 
L 297.749668 50.192912 
L 297.967411 48.2955 
L 298.185153 49.718559 
L 298.402896 45.449382 
L 298.620639 47.346794 
L 298.838382 46.872441 
L 299.056125 44.975029 
L 299.273867 46.872441 
L 299.49161 45.923735 
L 299.709353 51.615971 
L 300.144839 53.513382 
L 301.01581 43.077618 
L 301.233553 44.975029 
L 301.451296 42.603265 
L 301.886781 44.975029 
L 302.322267 40.2315 
L 302.54001 43.551971 
L 302.757753 42.128912 
L 302.975495 39.757147 
L 303.193238 42.128912 
L 303.410981 47.346794 
L 303.628724 45.923735 
L 303.846467 48.2955 
L 304.06421 47.346794 
L 304.499695 40.705853 
L 304.717438 44.026324 
L 304.935181 42.128912 
L 305.152924 42.603265 
L 305.370666 42.128912 
L 305.588409 43.077618 
L 306.023895 40.2315 
L 306.677123 35.487971 
L 306.894866 35.487971 
L 307.330352 36.911029 
L 307.548095 39.282794 
L 307.765837 36.436676 
L 307.98358 39.282794 
L 308.201323 39.757147 
L 308.419066 35.487971 
L 308.636809 34.064912 
L 308.854552 38.808441 
L 309.072294 39.757147 
L 309.290037 37.385382 
L 309.50778 43.077618 
L 309.725523 41.654559 
L 309.943266 38.334088 
L 310.161008 39.282794 
L 310.378751 36.911029 
L 310.596494 32.1675 
L 310.814237 32.1675 
L 311.467465 38.808441 
L 311.685208 40.2315 
L 311.902951 37.385382 
L 312.338437 41.654559 
L 312.773922 37.859735 
L 312.991665 43.551971 
L 313.209408 42.128912 
L 313.427151 49.244206 
L 313.644894 44.500676 
L 313.862636 45.449382 
L 314.080379 44.500676 
L 314.298122 39.757147 
L 314.515865 39.282794 
L 314.733608 40.2315 
L 314.951351 50.667265 
L 315.169093 45.923735 
L 315.386836 49.244206 
L 315.604579 46.872441 
L 315.822322 46.398088 
L 316.040065 47.821147 
L 316.47555 44.975029 
L 317.128779 58.256912 
L 317.346522 53.987735 
L 317.564264 62.051735 
L 317.782007 58.256912 
L 317.99975 61.577382 
L 318.217493 60.154324 
L 318.435236 61.103029 
L 318.652978 54.936441 
L 318.870721 54.936441 
L 319.088464 53.987735 
L 319.306207 66.795265 
L 319.52395 71.064441 
L 319.741693 67.743971 
L 319.959435 68.218324 
L 320.177178 69.167029 
L 320.394921 72.4875 
L 320.612664 72.961853 
L 320.830407 73.910559 
L 321.265892 79.128441 
L 321.483635 76.282324 
L 321.701378 77.705382 
L 321.919121 72.961853 
L 322.136864 72.961853 
L 322.354606 70.590088 
L 322.572349 69.641382 
L 322.790092 71.538794 
L 323.007835 71.538794 
L 323.225578 71.064441 
L 323.661063 81.974559 
L 324.314292 72.4875 
L 324.532035 70.115735 
L 324.749777 71.064441 
L 324.96752 73.910559 
L 325.185263 72.4875 
L 325.403006 75.333618 
L 325.620749 72.4875 
L 325.838492 74.859265 
L 326.056234 71.538794 
L 326.49172 79.128441 
L 326.927206 66.795265 
L 327.144948 70.115735 
L 327.362691 69.167029 
L 327.580434 66.795265 
L 327.798177 65.846559 
L 328.01592 66.795265 
L 328.233663 58.256912 
L 328.451405 62.051735 
L 328.669148 62.051735 
L 328.886891 58.256912 
L 329.104634 60.628676 
L 329.54012 55.885147 
L 329.757862 56.833853 
L 330.193348 55.410794 
L 330.411091 58.256912 
L 330.628834 58.256912 
L 330.846576 63.000441 
L 331.064319 59.679971 
L 331.282062 63.000441 
L 331.499805 62.526088 
L 331.717548 64.897853 
L 331.935291 65.846559 
L 332.153033 64.4235 
L 332.370776 61.103029 
L 332.588519 59.679971 
L 333.024005 54.462088 
L 333.241747 53.987735 
L 333.45949 56.3595 
L 333.677233 60.628676 
L 333.894976 59.205618 
L 334.112719 60.628676 
L 334.330462 63.000441 
L 334.548204 62.051735 
L 334.765947 63.000441 
L 334.98369 60.628676 
L 335.201433 54.462088 
L 335.854661 57.782559 
L 336.290147 51.615971 
L 336.50789 53.513382 
L 336.725633 42.603265 
L 337.161118 46.872441 
L 337.596604 42.603265 
L 337.814347 44.500676 
L 338.03209 42.128912 
L 338.249832 42.603265 
L 338.467575 42.603265 
L 338.685318 47.821147 
L 338.903061 46.398088 
L 339.120804 43.077618 
L 339.338546 43.077618 
L 339.556289 42.603265 
L 339.774032 39.282794 
L 340.427261 50.192912 
L 340.645003 49.718559 
L 340.862746 49.718559 
L 341.080489 48.769853 
L 341.298232 50.667265 
L 341.515975 47.346794 
L 341.733717 48.2955 
L 341.95146 50.192912 
L 342.169203 53.987735 
L 342.604689 49.244206 
L 342.822432 49.718559 
L 343.040174 49.718559 
L 343.693403 44.500676 
L 343.911146 44.026324 
L 344.128888 43.077618 
L 344.782117 49.718559 
L 345.217603 54.462088 
L 345.435345 54.462088 
L 345.653088 47.346794 
L 345.870831 47.346794 
L 346.52406 56.3595 
L 346.741802 56.833853 
L 346.959545 53.039029 
L 347.177288 55.885147 
L 347.395031 55.410794 
L 347.612774 55.410794 
L 347.830516 54.936441 
L 348.048259 57.782559 
L 348.266002 54.936441 
L 348.483745 55.410794 
L 348.701488 54.936441 
L 348.919231 52.090324 
L 349.354716 54.936441 
L 349.572459 60.154324 
L 349.790202 59.205618 
L 350.225687 59.205618 
L 350.44343 64.897853 
L 350.661173 67.269618 
L 351.314402 68.692676 
L 351.749887 65.372206 
L 351.96763 64.897853 
L 352.185373 69.641382 
L 352.403116 71.064441 
L 352.620858 69.167029 
L 352.838601 71.538794 
L 353.056344 71.538794 
L 353.274087 72.013147 
L 353.49183 74.859265 
L 353.709573 81.025853 
L 353.927315 94.307735 
L 354.145058 93.833382 
L 354.362801 89.089853 
L 354.580544 88.6155 
L 354.798287 86.718088 
L 355.01603 86.243735 
L 355.233772 88.141147 
L 355.451515 91.935971 
L 355.669258 91.461618 
L 355.887001 84.820676 
L 356.104744 85.769382 
L 356.322486 85.769382 
L 356.757972 92.410324 
L 356.975715 89.089853 
L 357.193458 93.359029 
L 357.411201 92.884676 
L 357.628943 96.6795 
L 357.846686 96.6795 
L 358.282172 92.884676 
L 358.499915 94.307735 
L 358.717657 99.999971 
L 358.9354 100.474324 
L 359.153143 104.7435 
L 359.370886 103.794794 
L 359.588629 108.063971 
L 360.024114 105.692206 
L 360.241857 109.012676 
L 360.4596 109.487029 
L 360.895086 107.115265 
L 361.112828 108.063971 
L 361.330571 109.961382 
L 361.548314 109.012676 
L 361.766057 112.8075 
L 361.9838 110.910088 
L 362.201543 107.589618 
L 362.419285 109.961382 
L 362.637028 104.7435 
L 362.854771 107.115265 
L 363.072514 106.166559 
L 363.290257 102.846088 
L 363.508 91.935971 
L 363.725742 89.089853 
L 363.943485 89.564206 
L 364.161228 89.089853 
L 364.378971 89.564206 
L 364.596714 90.987265 
L 364.814456 90.987265 
L 365.032199 91.935971 
L 365.249942 90.512912 
L 365.467685 90.987265 
L 365.685428 87.666794 
L 365.903171 87.192441 
L 366.120913 85.295029 
L 366.338656 85.295029 
L 366.556399 83.397618 
L 366.774142 82.923265 
L 366.991885 83.397618 
L 367.209627 81.500206 
L 367.42737 81.025853 
L 367.645113 78.654088 
L 367.862856 80.5515 
L 368.080599 79.602794 
L 368.298342 75.807971 
L 368.516084 78.654088 
L 368.733827 76.282324 
L 368.95157 72.4875 
L 369.169313 75.807971 
L 369.387056 72.4875 
L 369.822541 74.859265 
L 370.040284 75.807971 
L 370.693513 71.064441 
L 370.911255 78.654088 
L 371.128998 78.654088 
L 371.346741 79.602794 
L 371.564484 82.448912 
L 371.782227 80.5515 
L 371.99997 80.5515 
L 372.217712 82.448912 
L 372.435455 81.500206 
L 372.653198 83.871971 
L 373.088684 81.500206 
L 373.306426 81.500206 
L 373.524169 80.077147 
L 373.741912 76.756676 
L 374.177398 76.756676 
L 374.177398 76.756676 
" clip-path="url(#pa78611f761)" style="fill: none; stroke: #1f77b4; stroke-width: 1.2; stroke-linecap: round"/>
   </g>
   <g id="patch_3">
    <path d="M 33.290125 278.356676 
L 33.290125 41.180206 
" style="fill: none; stroke: #262626; stroke-linejoin: miter; stroke-linecap: square"/>
   </g>
   <g id="patch_4">
    <path d="M 49.522852 286.1835 
L 373.959655 286.1835 
" style="fill: none; stroke: #262626; stroke-linejoin: miter; stroke-linecap: square"/>
   </g>
   <g id="text_20">
    <!-- Two year treasury note yield rate -->
    <g style="fill: #262626" transform="translate(142.221625 14.0715) scale(0.096 -0.096)">
     <defs>
      <path id="ArialMT-54" d="M 1659 0 
L 1659 4041 
L 150 4041 
L 150 4581 
L 3781 4581 
L 3781 4041 
L 2266 4041 
L 2266 0 
L 1659 0 
z
" transform="scale(0.015625)"/>
      <path id="ArialMT-77" d="M 1034 0 
L 19 3319 
L 600 3319 
L 1128 1403 
L 1325 691 
Q 1338 744 1497 1375 
L 2025 3319 
L 2603 3319 
L 3100 1394 
L 3266 759 
L 3456 1400 
L 4025 3319 
L 4572 3319 
L 3534 0 
L 2950 0 
L 2422 1988 
L 2294 2553 
L 1622 0 
L 1034 0 
z
" transform="scale(0.015625)"/>
      <path id="ArialMT-6f" d="M 213 1659 
Q 213 2581 725 3025 
Q 1153 3394 1769 3394 
Q 2453 3394 2887 2945 
Q 3322 2497 3322 1706 
Q 3322 1066 3130 698 
Q 2938 331 2570 128 
Q 2203 -75 1769 -75 
Q 1072 -75 642 372 
Q 213 819 213 1659 
z
M 791 1659 
Q 791 1022 1069 705 
Q 1347 388 1769 388 
Q 2188 388 2466 706 
Q 2744 1025 2744 1678 
Q 2744 2294 2464 2611 
Q 2184 2928 1769 2928 
Q 1347 2928 1069 2612 
Q 791 2297 791 1659 
z
" transform="scale(0.015625)"/>
      <path id="ArialMT-79" d="M 397 -1278 
L 334 -750 
Q 519 -800 656 -800 
Q 844 -800 956 -737 
Q 1069 -675 1141 -563 
Q 1194 -478 1313 -144 
Q 1328 -97 1363 -6 
L 103 3319 
L 709 3319 
L 1400 1397 
Q 1534 1031 1641 628 
Q 1738 1016 1872 1384 
L 2581 3319 
L 3144 3319 
L 1881 -56 
Q 1678 -603 1566 -809 
Q 1416 -1088 1222 -1217 
Q 1028 -1347 759 -1347 
Q 597 -1347 397 -1278 
z
" transform="scale(0.015625)"/>
      <path id="ArialMT-73" d="M 197 991 
L 753 1078 
Q 800 744 1014 566 
Q 1228 388 1613 388 
Q 2000 388 2187 545 
Q 2375 703 2375 916 
Q 2375 1106 2209 1216 
Q 2094 1291 1634 1406 
Q 1016 1563 777 1677 
Q 538 1791 414 1992 
Q 291 2194 291 2438 
Q 291 2659 392 2848 
Q 494 3038 669 3163 
Q 800 3259 1026 3326 
Q 1253 3394 1513 3394 
Q 1903 3394 2198 3281 
Q 2494 3169 2634 2976 
Q 2775 2784 2828 2463 
L 2278 2388 
Q 2241 2644 2061 2787 
Q 1881 2931 1553 2931 
Q 1166 2931 1000 2803 
Q 834 2675 834 2503 
Q 834 2394 903 2306 
Q 972 2216 1119 2156 
Q 1203 2125 1616 2013 
Q 2213 1853 2448 1751 
Q 2684 1650 2818 1456 
Q 2953 1263 2953 975 
Q 2953 694 2789 445 
Q 2625 197 2315 61 
Q 2006 -75 1616 -75 
Q 969 -75 630 194 
Q 291 463 197 991 
z
" transform="scale(0.015625)"/>
      <path id="ArialMT-75" d="M 2597 0 
L 2597 488 
Q 2209 -75 1544 -75 
Q 1250 -75 995 37 
Q 741 150 617 320 
Q 494 491 444 738 
Q 409 903 409 1263 
L 409 3319 
L 972 3319 
L 972 1478 
Q 972 1038 1006 884 
Q 1059 663 1231 536 
Q 1403 409 1656 409 
Q 1909 409 2131 539 
Q 2353 669 2445 892 
Q 2538 1116 2538 1541 
L 2538 3319 
L 3100 3319 
L 3100 0 
L 2597 0 
z
" transform="scale(0.015625)"/>
      <path id="ArialMT-6e" d="M 422 0 
L 422 3319 
L 928 3319 
L 928 2847 
Q 1294 3394 1984 3394 
Q 2284 3394 2536 3286 
Q 2788 3178 2913 3003 
Q 3038 2828 3088 2588 
Q 3119 2431 3119 2041 
L 3119 0 
L 2556 0 
L 2556 2019 
Q 2556 2363 2490 2533 
Q 2425 2703 2258 2804 
Q 2091 2906 1866 2906 
Q 1506 2906 1245 2678 
Q 984 2450 984 1813 
L 984 0 
L 422 0 
z
" transform="scale(0.015625)"/>
     </defs>
     <use xlink:href="#ArialMT-54"/>
     <use xlink:href="#ArialMT-77" x="55.583984"/>
     <use xlink:href="#ArialMT-6f" x="127.800781"/>
     <use xlink:href="#ArialMT-20" x="183.416016"/>
     <use xlink:href="#ArialMT-79" x="211.199219"/>
     <use xlink:href="#ArialMT-65" x="261.199219"/>
     <use xlink:href="#ArialMT-61" x="316.814453"/>
     <use xlink:href="#ArialMT-72" x="372.429688"/>
     <use xlink:href="#ArialMT-20" x="405.730469"/>
     <use xlink:href="#ArialMT-74" x="433.513672"/>
     <use xlink:href="#ArialMT-72" x="461.296875"/>
     <use xlink:href="#ArialMT-65" x="494.597656"/>
     <use xlink:href="#ArialMT-61" x="550.212891"/>
     <use xlink:href="#ArialMT-73" x="605.828125"/>
     <use xlink:href="#ArialMT-75" x="655.828125"/>
     <use xlink:href="#ArialMT-72" x="711.443359"/>
     <use xlink:href="#ArialMT-79" x="744.744141"/>
     <use xlink:href="#ArialMT-20" x="794.744141"/>
     <use xlink:href="#ArialMT-6e" x="822.527344"/>
     <use xlink:href="#ArialMT-6f" x="878.142578"/>
     <use xlink:href="#ArialMT-74" x="933.757812"/>
     <use xlink:href="#ArialMT-65" x="961.541016"/>
     <use xlink:href="#ArialMT-20" x="1017.15625"/>
     <use xlink:href="#ArialMT-79" x="1044.939453"/>
     <use xlink:href="#ArialMT-69" x="1094.939453"/>
     <use xlink:href="#ArialMT-65" x="1117.15625"/>
     <use xlink:href="#ArialMT-6c" x="1172.771484"/>
     <use xlink:href="#ArialMT-64" x="1194.988281"/>
     <use xlink:href="#ArialMT-20" x="1250.603516"/>
     <use xlink:href="#ArialMT-72" x="1278.386719"/>
     <use xlink:href="#ArialMT-61" x="1311.6875"/>
     <use xlink:href="#ArialMT-74" x="1367.302734"/>
     <use xlink:href="#ArialMT-65" x="1395.085938"/>
    </g>
   </g>
  </g>
 </g>
 <defs>
  <clipPath id="pa78611f761">
   <rect x="33.290125" y="20.0715" width="357.12" height="266.112"/>
  </clipPath>
 </defs>
</svg>