<?xml version="1.0" encoding="utf-8" standalone="no"?>
<!DOCTYPE svg PUBLIC "-//W3C//DTD SVG 1.1//EN"
  "http://www.w3.org/Graphics/SVG/1.1/DTD/svg11.dtd">
<svg xmlns:xlink="http://www.w3.org/1999/xlink" width="454.464pt" height="286.695891pt" viewBox="0 0 454.464 286.695891" xmlns="http://www.w3.org/2000/svg" version="1.1">
 <metadata>
  <rdf:RDF xmlns:dc="http://purl.org/dc/elements/1.1/" xmlns:cc="http://creativecommons.org/ns#" xmlns:rdf="http://www.w3.org/1999/02/22-rdf-syntax-ns#">
   <cc:Work>
    <dc:type rdf:resource="http://purl.org/dc/dcmitype/StillImage"/>
    <dc:date>2024-10-11T13:26:45.035306</dc:date>
    <dc:format>image/svg+xml</dc:format>
    <dc:creator>
     <cc:Agent>
      <dc:title>Matplotlib v3.9.0, https://matplotlib.org/</dc:title>
     </cc:Agent>
    </dc:creator>
   </cc:Work>
  </rdf:RDF>
 </metadata>
 <defs>
  <style type="text/css">*{stroke-linejoin: round; stroke-linecap: butt}</style>
 </defs>
 <g id="figure_1">
  <g id="patch_1">
   <path d="M 0 286.695891 
L 454.464 286.695891 
L 454.464 0 
L 0 0 
z
" style="fill: #ffffff"/>
  </g>
  <g id="patch_2">
   <path d="M 7.2 125.5025 
L 109.44 125.5025 
L 109.44 23.2625 
L 7.2 23.2625 
z
" style="fill: #f5f5f5"/>
  </g>
  <g id="axes_1">
   <g id="Path3DCollection_1">
    <defs>
     <path id="C0_0_f6932ed3f7" d="M 0 5 
C 1.326016 5 2.597899 4.473168 3.535534 3.535534 
C 4.473168 2.597899 5 1.326016 5 -0 
C 5 -1.326016 4.473168 -2.597899 3.535534 -3.535534 
C 2.597899 -4.473168 1.326016 -5 0 -5 
C -1.326016 -5 -2.597899 -4.473168 -3.535534 -3.535534 
C -4.473168 -2.597899 -5 -1.326016 -5 0 
C -5 1.326016 -4.473168 2.597899 -3.535534 3.535534 
C -2.597899 4.473168 -1.326016 5 0 5 
z
"/>
    </defs>
    <g clip-path="url(#p928a75faf6)">
     <use xlink:href="#C0_0_f6932ed3f7" x="48.672086" y="80.159372" style="fill: #8b0000; fill-opacity: 0.3; stroke: #000000; stroke-opacity: 0.3; stroke-width: 0.8"/>
    </g>
    <g clip-path="url(#p928a75faf6)">
     <use xlink:href="#C0_0_f6932ed3f7" x="48.354677" y="36.669067" style="fill: #8b0000; fill-opacity: 0.423764; stroke: #000000; stroke-opacity: 0.423764; stroke-width: 0.8"/>
    </g>
    <g clip-path="url(#p928a75faf6)">
     <use xlink:href="#C0_0_f6932ed3f7" x="14.53009" y="100.445794" style="fill: #8b0000; fill-opacity: 0.71883; stroke: #000000; stroke-opacity: 0.71883; stroke-width: 0.8"/>
    </g>
    <g clip-path="url(#p928a75faf6)">
     <use xlink:href="#C0_0_f6932ed3f7" x="72.526392" y="114.064542" style="fill: #8b0000; stroke: #000000; stroke-width: 0.8"/>
    </g>
   </g>
   <g id="line2d_1">
    <path d="M 48.672086 80.159372 
L 48.354677 36.669067 
" clip-path="url(#p928a75faf6)" style="fill: none; stroke: #000080; stroke-width: 2; stroke-linecap: round"/>
   </g>
   <g id="line2d_2">
    <path d="M 48.672086 80.159372 
L 14.53009 100.445794 
" clip-path="url(#p928a75faf6)" style="fill: none; stroke: #000080; stroke-width: 2; stroke-linecap: round"/>
   </g>
   <g id="line2d_3">
    <path d="M 48.354677 36.669067 
L 48.672086 80.159372 
" clip-path="url(#p928a75faf6)" style="fill: none; stroke: #000080; stroke-width: 2; stroke-linecap: round"/>
   </g>
   <g id="line2d_4">
    <path d="M 14.53009 100.445794 
L 48.672086 80.159372 
" clip-path="url(#p928a75faf6)" style="fill: none; stroke: #000080; stroke-width: 2; stroke-linecap: round"/>
   </g>
   <g id="line2d_5">
    <path d="M 14.53009 100.445794 
L 72.526392 114.064542 
" clip-path="url(#p928a75faf6)" style="fill: none; stroke: #000080; stroke-width: 2; stroke-linecap: round"/>
   </g>
   <g id="line2d_6">
    <path d="M 72.526392 114.064542 
L 14.53009 100.445794 
" clip-path="url(#p928a75faf6)" style="fill: none; stroke: #000080; stroke-width: 2; stroke-linecap: round"/>
   </g>
   <g id="text_1">
    <!-- chiral_shape_1 -->
    <g style="fill: #262626" transform="translate(7.738437 17.2625) scale(0.14 -0.14)">
     <defs>
      <path id="Arial-BoldMT-63" d="M 3353 2338 
L 2488 2181 
Q 2444 2441 2289 2572 
Q 2134 2703 1888 2703 
Q 1559 2703 1364 2476 
Q 1169 2250 1169 1719 
Q 1169 1128 1367 884 
Q 1566 641 1900 641 
Q 2150 641 2309 783 
Q 2469 925 2534 1272 
L 3397 1125 
Q 3263 531 2881 228 
Q 2500 -75 1859 -75 
Q 1131 -75 698 384 
Q 266 844 266 1656 
Q 266 2478 700 2936 
Q 1134 3394 1875 3394 
Q 2481 3394 2839 3133 
Q 3197 2872 3353 2338 
z
" transform="scale(0.015625)"/>
      <path id="Arial-BoldMT-68" d="M 1334 4581 
L 1334 2897 
Q 1759 3394 2350 3394 
Q 2653 3394 2897 3281 
Q 3141 3169 3264 2994 
Q 3388 2819 3433 2606 
Q 3478 2394 3478 1947 
L 3478 0 
L 2600 0 
L 2600 1753 
Q 2600 2275 2550 2415 
Q 2500 2556 2373 2639 
Q 2247 2722 2056 2722 
Q 1838 2722 1666 2615 
Q 1494 2509 1414 2295 
Q 1334 2081 1334 1663 
L 1334 0 
L 456 0 
L 456 4581 
L 1334 4581 
z
" transform="scale(0.015625)"/>
      <path id="Arial-BoldMT-69" d="M 459 3769 
L 459 4581 
L 1338 4581 
L 1338 3769 
L 459 3769 
z
M 459 0 
L 459 3319 
L 1338 3319 
L 1338 0 
L 459 0 
z
" transform="scale(0.015625)"/>
      <path id="Arial-BoldMT-72" d="M 1300 0 
L 422 0 
L 422 3319 
L 1238 3319 
L 1238 2847 
Q 1447 3181 1614 3287 
Q 1781 3394 1994 3394 
Q 2294 3394 2572 3228 
L 2300 2463 
Q 2078 2606 1888 2606 
Q 1703 2606 1575 2504 
Q 1447 2403 1373 2137 
Q 1300 1872 1300 1025 
L 1300 0 
z
" transform="scale(0.015625)"/>
      <path id="Arial-BoldMT-61" d="M 1116 2306 
L 319 2450 
Q 453 2931 781 3162 
Q 1109 3394 1756 3394 
Q 2344 3394 2631 3255 
Q 2919 3116 3036 2902 
Q 3153 2688 3153 2116 
L 3144 1091 
Q 3144 653 3186 445 
Q 3228 238 3344 0 
L 2475 0 
Q 2441 88 2391 259 
Q 2369 338 2359 363 
Q 2134 144 1878 34 
Q 1622 -75 1331 -75 
Q 819 -75 523 203 
Q 228 481 228 906 
Q 228 1188 362 1408 
Q 497 1628 739 1745 
Q 981 1863 1438 1950 
Q 2053 2066 2291 2166 
L 2291 2253 
Q 2291 2506 2166 2614 
Q 2041 2722 1694 2722 
Q 1459 2722 1328 2630 
Q 1197 2538 1116 2306 
z
M 2291 1594 
Q 2122 1538 1756 1459 
Q 1391 1381 1278 1306 
Q 1106 1184 1106 997 
Q 1106 813 1243 678 
Q 1381 544 1594 544 
Q 1831 544 2047 700 
Q 2206 819 2256 991 
Q 2291 1103 2291 1419 
L 2291 1594 
z
" transform="scale(0.015625)"/>
      <path id="Arial-BoldMT-6c" d="M 459 0 
L 459 4581 
L 1338 4581 
L 1338 0 
L 459 0 
z
" transform="scale(0.015625)"/>
      <path id="Arial-BoldMT-5f" d="M -59 -1266 
L -59 -697 
L 3591 -697 
L 3591 -1266 
L -59 -1266 
z
" transform="scale(0.015625)"/>
      <path id="Arial-BoldMT-73" d="M 150 947 
L 1031 1081 
Q 1088 825 1259 692 
Q 1431 559 1741 559 
Q 2081 559 2253 684 
Q 2369 772 2369 919 
Q 2369 1019 2306 1084 
Q 2241 1147 2013 1200 
Q 950 1434 666 1628 
Q 272 1897 272 2375 
Q 272 2806 612 3100 
Q 953 3394 1669 3394 
Q 2350 3394 2681 3172 
Q 3013 2950 3138 2516 
L 2309 2363 
Q 2256 2556 2107 2659 
Q 1959 2763 1684 2763 
Q 1338 2763 1188 2666 
Q 1088 2597 1088 2488 
Q 1088 2394 1175 2328 
Q 1294 2241 1995 2081 
Q 2697 1922 2975 1691 
Q 3250 1456 3250 1038 
Q 3250 581 2869 253 
Q 2488 -75 1741 -75 
Q 1063 -75 667 200 
Q 272 475 150 947 
z
" transform="scale(0.015625)"/>
      <path id="Arial-BoldMT-70" d="M 434 3319 
L 1253 3319 
L 1253 2831 
Q 1413 3081 1684 3237 
Q 1956 3394 2288 3394 
Q 2866 3394 3269 2941 
Q 3672 2488 3672 1678 
Q 3672 847 3265 386 
Q 2859 -75 2281 -75 
Q 2006 -75 1782 34 
Q 1559 144 1313 409 
L 1313 -1263 
L 434 -1263 
L 434 3319 
z
M 1303 1716 
Q 1303 1156 1525 889 
Q 1747 622 2066 622 
Q 2372 622 2575 867 
Q 2778 1113 2778 1672 
Q 2778 2194 2568 2447 
Q 2359 2700 2050 2700 
Q 1728 2700 1515 2451 
Q 1303 2203 1303 1716 
z
" transform="scale(0.015625)"/>
      <path id="Arial-BoldMT-65" d="M 2381 1056 
L 3256 909 
Q 3088 428 2723 176 
Q 2359 -75 1813 -75 
Q 947 -75 531 491 
Q 203 944 203 1634 
Q 203 2459 634 2926 
Q 1066 3394 1725 3394 
Q 2466 3394 2894 2905 
Q 3322 2416 3303 1406 
L 1103 1406 
Q 1113 1016 1316 798 
Q 1519 581 1822 581 
Q 2028 581 2168 693 
Q 2309 806 2381 1056 
z
M 2431 1944 
Q 2422 2325 2234 2523 
Q 2047 2722 1778 2722 
Q 1491 2722 1303 2513 
Q 1116 2303 1119 1944 
L 2431 1944 
z
" transform="scale(0.015625)"/>
      <path id="Arial-BoldMT-31" d="M 2519 0 
L 1641 0 
L 1641 3309 
Q 1159 2859 506 2644 
L 506 3441 
Q 850 3553 1253 3867 
Q 1656 4181 1806 4600 
L 2519 4600 
L 2519 0 
z
" transform="scale(0.015625)"/>
     </defs>
     <use xlink:href="#Arial-BoldMT-63"/>
     <use xlink:href="#Arial-BoldMT-68" x="55.615234"/>
     <use xlink:href="#Arial-BoldMT-69" x="116.699219"/>
     <use xlink:href="#Arial-BoldMT-72" x="144.482422"/>
     <use xlink:href="#Arial-BoldMT-61" x="183.398438"/>
     <use xlink:href="#Arial-BoldMT-6c" x="239.013672"/>
     <use xlink:href="#Arial-BoldMT-5f" x="266.796875"/>
     <use xlink:href="#Arial-BoldMT-73" x="322.412109"/>
     <use xlink:href="#Arial-BoldMT-68" x="378.027344"/>
     <use xlink:href="#Arial-BoldMT-61" x="439.111328"/>
     <use xlink:href="#Arial-BoldMT-70" x="494.726562"/>
     <use xlink:href="#Arial-BoldMT-65" x="555.810547"/>
     <use xlink:href="#Arial-BoldMT-5f" x="611.425781"/>
     <use xlink:href="#Arial-BoldMT-31" x="667.041016"/>
    </g>
   </g>
  </g>
  <g id="patch_3">
   <path d="M 119.808 125.5025 
L 222.048 125.5025 
L 222.048 23.2625 
L 119.808 23.2625 
z
" style="fill: #f5f5f5"/>
  </g>
  <g id="axes_2">
   <g id="Path3DCollection_2">
    <defs>
     <path id="C1_0_08823fff6e" d="M 0 5 
C 1.326016 5 2.597899 4.473168 3.535534 3.535534 
C 4.473168 2.597899 5 1.326016 5 -0 
C 5 -1.326016 4.473168 -2.597899 3.535534 -3.535534 
C 2.597899 -4.473168 1.326016 -5 0 -5 
C -1.326016 -5 -2.597899 -4.473168 -3.535534 -3.535534 
C -4.473168 -2.597899 -5 -1.326016 -5 0 
C -5 1.326016 -4.473168 2.597899 -3.535534 3.535534 
C -2.597899 4.473168 -1.326016 5 0 5 
z
"/>
    </defs>
    <g clip-path="url(#pbd3f629387)">
     <use xlink:href="#C1_0_08823fff6e" x="215.695361" y="91.408711" style="fill: #8b0000; fill-opacity: 0.3; stroke: #000000; stroke-opacity: 0.3; stroke-width: 0.8"/>
    </g>
    <g clip-path="url(#pbd3f629387)">
     <use xlink:href="#C1_0_08823fff6e" x="217.013393" y="45.84016" style="fill: #8b0000; fill-opacity: 0.506083; stroke: #000000; stroke-opacity: 0.506083; stroke-width: 0.8"/>
    </g>
    <g clip-path="url(#pbd3f629387)">
     <use xlink:href="#C1_0_08823fff6e" x="127.13809" y="100.445794" style="fill: #8b0000; fill-opacity: 0.57922; stroke: #000000; stroke-opacity: 0.57922; stroke-width: 0.8"/>
    </g>
    <g clip-path="url(#pbd3f629387)">
     <use xlink:href="#C1_0_08823fff6e" x="185.134392" y="114.064542" style="fill: #8b0000; stroke: #000000; stroke-width: 0.8"/>
    </g>
   </g>
   <g id="line2d_7">
    <path d="M 215.695361 91.408711 
L 217.013393 45.84016 
" clip-path="url(#pbd3f629387)" style="fill: none; stroke: #000080; stroke-width: 2; stroke-linecap: round"/>
   </g>
   <g id="line2d_8">
    <path d="M 215.695361 91.408711 
L 185.134392 114.064542 
" clip-path="url(#pbd3f629387)" style="fill: none; stroke: #000080; stroke-width: 2; stroke-linecap: round"/>
   </g>
   <g id="line2d_9">
    <path d="M 217.013393 45.84016 
L 215.695361 91.408711 
" clip-path="url(#pbd3f629387)" style="fill: none; stroke: #000080; stroke-width: 2; stroke-linecap: round"/>
   </g>
   <g id="line2d_10">
    <path d="M 185.134392 114.064542 
L 215.695361 91.408711 
" clip-path="url(#pbd3f629387)" style="fill: none; stroke: #000080; stroke-width: 2; stroke-linecap: round"/>
   </g>
   <g id="line2d_11">
    <path d="M 185.134392 114.064542 
L 127.13809 100.445794 
" clip-path="url(#pbd3f629387)" style="fill: none; stroke: #000080; stroke-width: 2; stroke-linecap: round"/>
   </g>
   <g id="line2d_12">
    <path d="M 127.13809 100.445794 
L 185.134392 114.064542 
" clip-path="url(#pbd3f629387)" style="fill: none; stroke: #000080; stroke-width: 2; stroke-linecap: round"/>
   </g>
   <g id="text_2">
    <!-- chiral_shape_2 -->
    <g style="fill: #262626" transform="translate(120.346437 17.2625) scale(0.14 -0.14)">
     <defs>
      <path id="Arial-BoldMT-32" d="M 3238 816 
L 3238 0 
L 159 0 
Q 209 463 459 877 
Q 709 1291 1447 1975 
Q 2041 2528 2175 2725 
Q 2356 2997 2356 3263 
Q 2356 3556 2198 3714 
Q 2041 3872 1763 3872 
Q 1488 3872 1325 3706 
Q 1163 3541 1138 3156 
L 263 3244 
Q 341 3969 753 4284 
Q 1166 4600 1784 4600 
Q 2463 4600 2850 4234 
Q 3238 3869 3238 3325 
Q 3238 3016 3127 2736 
Q 3016 2456 2775 2150 
Q 2616 1947 2200 1565 
Q 1784 1184 1673 1059 
Q 1563 934 1494 816 
L 3238 816 
z
" transform="scale(0.015625)"/>
     </defs>
     <use xlink:href="#Arial-BoldMT-63"/>
     <use xlink:href="#Arial-BoldMT-68" x="55.615234"/>
     <use xlink:href="#Arial-BoldMT-69" x="116.699219"/>
     <use xlink:href="#Arial-BoldMT-72" x="144.482422"/>
     <use xlink:href="#Arial-BoldMT-61" x="183.398438"/>
     <use xlink:href="#Arial-BoldMT-6c" x="239.013672"/>
     <use xlink:href="#Arial-BoldMT-5f" x="266.796875"/>
     <use xlink:href="#Arial-BoldMT-73" x="322.412109"/>
     <use xlink:href="#Arial-BoldMT-68" x="378.027344"/>
     <use xlink:href="#Arial-BoldMT-61" x="439.111328"/>
     <use xlink:href="#Arial-BoldMT-70" x="494.726562"/>
     <use xlink:href="#Arial-BoldMT-65" x="555.810547"/>
     <use xlink:href="#Arial-BoldMT-5f" x="611.425781"/>
     <use xlink:href="#Arial-BoldMT-32" x="667.041016"/>
    </g>
   </g>
  </g>
  <g id="patch_4">
   <path d="M 232.416 125.5025 
L 334.656 125.5025 
L 334.656 23.2625 
L 232.416 23.2625 
z
" style="fill: #f5f5f5"/>
  </g>
  <g id="axes_3">
   <g id="Path3DCollection_3">
    <defs>
     <path id="C2_0_925d844662" d="M 0 5 
C 1.326016 5 2.597899 4.473168 3.535534 3.535534 
C 4.473168 2.597899 5 1.326016 5 -0 
C 5 -1.326016 4.473168 -2.597899 3.535534 -3.535534 
C 2.597899 -4.473168 1.326016 -5 0 -5 
C -1.326016 -5 -2.597899 -4.473168 -3.535534 -3.535534 
C -4.473168 -2.597899 -5 -1.326016 -5 0 
C -5 1.326016 -4.473168 2.597899 -3.535534 3.535534 
C -2.597899 4.473168 -1.326016 5 0 5 
z
"/>
    </defs>
    <g clip-path="url(#pad2ef45c1b)">
     <use xlink:href="#C2_0_925d844662" x="273.731632" y="58.722673" style="fill: #8b0000; fill-opacity: 0.3; stroke: #000000; stroke-opacity: 0.3; stroke-width: 0.8"/>
    </g>
    <g clip-path="url(#pad2ef45c1b)">
     <use xlink:href="#C2_0_925d844662" x="328.952516" y="68.965344" style="fill: #8b0000; fill-opacity: 0.531893; stroke: #000000; stroke-opacity: 0.531893; stroke-width: 0.8"/>
    </g>
    <g clip-path="url(#pad2ef45c1b)">
     <use xlink:href="#C2_0_925d844662" x="239.041961" y="77.205108" style="fill: #8b0000; fill-opacity: 0.718441; stroke: #000000; stroke-opacity: 0.718441; stroke-width: 0.8"/>
    </g>
    <g clip-path="url(#pad2ef45c1b)">
     <use xlink:href="#C2_0_925d844662" x="297.95441" y="89.641511" style="fill: #8b0000; stroke: #000000; stroke-width: 0.8"/>
    </g>
   </g>
   <g id="line2d_13">
    <path d="M 273.731632 58.722673 
L 239.041961 77.205108 
" clip-path="url(#pad2ef45c1b)" style="fill: none; stroke: #000080; stroke-width: 2; stroke-linecap: round"/>
   </g>
   <g id="line2d_14">
    <path d="M 273.731632 58.722673 
L 328.952516 68.965344 
" clip-path="url(#pad2ef45c1b)" style="fill: none; stroke: #000080; stroke-width: 2; stroke-linecap: round"/>
   </g>
   <g id="line2d_15">
    <path d="M 239.041961 77.205108 
L 273.731632 58.722673 
" clip-path="url(#pad2ef45c1b)" style="fill: none; stroke: #000080; stroke-width: 2; stroke-linecap: round"/>
   </g>
   <g id="line2d_16">
    <path d="M 239.041961 77.205108 
L 297.95441 89.641511 
" clip-path="url(#pad2ef45c1b)" style="fill: none; stroke: #000080; stroke-width: 2; stroke-linecap: round"/>
   </g>
   <g id="line2d_17">
    <path d="M 328.952516 68.965344 
L 273.731632 58.722673 
" clip-path="url(#pad2ef45c1b)" style="fill: none; stroke: #000080; stroke-width: 2; stroke-linecap: round"/>
   </g>
   <g id="line2d_18">
    <path d="M 328.952516 68.965344 
L 297.95441 89.641511 
" clip-path="url(#pad2ef45c1b)" style="fill: none; stroke: #000080; stroke-width: 2; stroke-linecap: round"/>
   </g>
   <g id="line2d_19">
    <path d="M 297.95441 89.641511 
L 239.041961 77.205108 
" clip-path="url(#pad2ef45c1b)" style="fill: none; stroke: #000080; stroke-width: 2; stroke-linecap: round"/>
   </g>
   <g id="line2d_20">
    <path d="M 297.95441 89.641511 
L 328.952516 68.965344 
" clip-path="url(#pad2ef45c1b)" style="fill: none; stroke: #000080; stroke-width: 2; stroke-linecap: round"/>
   </g>
   <g id="text_3">
    <!-- square -->
    <g style="fill: #262626" transform="translate(260.582562 17.2625) scale(0.14 -0.14)">
     <defs>
      <path id="Arial-BoldMT-71" d="M 2628 -1263 
L 2628 406 
Q 2456 184 2200 54 
Q 1944 -75 1647 -75 
Q 1081 -75 716 350 
Q 284 847 284 1697 
Q 284 2497 689 2945 
Q 1094 3394 1694 3394 
Q 2025 3394 2267 3253 
Q 2509 3113 2697 2828 
L 2697 3319 
L 3506 3319 
L 3506 -1263 
L 2628 -1263 
z
M 2656 1700 
Q 2656 2209 2448 2457 
Q 2241 2706 1928 2706 
Q 1609 2706 1395 2453 
Q 1181 2200 1181 1650 
Q 1181 1103 1387 861 
Q 1594 619 1897 619 
Q 2200 619 2428 891 
Q 2656 1163 2656 1700 
z
" transform="scale(0.015625)"/>
      <path id="Arial-BoldMT-75" d="M 2644 0 
L 2644 497 
Q 2463 231 2167 78 
Q 1872 -75 1544 -75 
Q 1209 -75 943 72 
Q 678 219 559 484 
Q 441 750 441 1219 
L 441 3319 
L 1319 3319 
L 1319 1794 
Q 1319 1094 1367 936 
Q 1416 778 1544 686 
Q 1672 594 1869 594 
Q 2094 594 2272 717 
Q 2450 841 2515 1023 
Q 2581 1206 2581 1919 
L 2581 3319 
L 3459 3319 
L 3459 0 
L 2644 0 
z
" transform="scale(0.015625)"/>
     </defs>
     <use xlink:href="#Arial-BoldMT-73"/>
     <use xlink:href="#Arial-BoldMT-71" x="55.615234"/>
     <use xlink:href="#Arial-BoldMT-75" x="116.699219"/>
     <use xlink:href="#Arial-BoldMT-61" x="177.783203"/>
     <use xlink:href="#Arial-BoldMT-72" x="233.398438"/>
     <use xlink:href="#Arial-BoldMT-65" x="272.314453"/>
    </g>
   </g>
  </g>
  <g id="patch_5">
   <path d="M 345.024 125.5025 
L 447.264 125.5025 
L 447.264 23.2625 
L 345.024 23.2625 
z
" style="fill: #f5f5f5"/>
  </g>
  <g id="axes_4">
   <g id="Path3DCollection_4">
    <defs>
     <path id="C3_0_faec24027c" d="M 0 5 
C 1.326016 5 2.597899 4.473168 3.535534 3.535534 
C 4.473168 2.597899 5 1.326016 5 -0 
C 5 -1.326016 4.473168 -2.597899 3.535534 -3.535534 
C 2.597899 -4.473168 1.326016 -5 0 -5 
C -1.326016 -5 -2.597899 -4.473168 -3.535534 -3.535534 
C -4.473168 -2.597899 -5 -1.326016 -5 0 
C -5 1.326016 -4.473168 2.597899 -3.535534 3.535534 
C -2.597899 4.473168 -1.326016 5 0 5 
z
"/>
    </defs>
    <g clip-path="url(#p0328632c39)">
     <use xlink:href="#C3_0_faec24027c" x="397.525622" y="95.836135" style="fill: #8b0000; fill-opacity: 0.3; stroke: #000000; stroke-opacity: 0.3; stroke-width: 0.8"/>
    </g>
    <g clip-path="url(#p0328632c39)">
     <use xlink:href="#C3_0_faec24027c" x="397.525622" y="80.689719" style="fill: #8b0000; fill-opacity: 0.528607; stroke: #000000; stroke-opacity: 0.528607; stroke-width: 0.8"/>
    </g>
    <g clip-path="url(#p0328632c39)">
     <use xlink:href="#C3_0_faec24027c" x="397.525622" y="65.233371" style="fill: #8b0000; fill-opacity: 0.761892; stroke: #000000; stroke-opacity: 0.761892; stroke-width: 0.8"/>
    </g>
    <g clip-path="url(#p0328632c39)">
     <use xlink:href="#C3_0_faec24027c" x="397.525622" y="49.457478" style="fill: #8b0000; stroke: #000000; stroke-width: 0.8"/>
    </g>
   </g>
   <g id="line2d_21">
    <path d="M 397.525622 95.836135 
L 397.525622 80.689719 
" clip-path="url(#p0328632c39)" style="fill: none; stroke: #000080; stroke-width: 2; stroke-linecap: round"/>
   </g>
   <g id="line2d_22">
    <path d="M 397.525622 80.689719 
L 397.525622 95.836135 
" clip-path="url(#p0328632c39)" style="fill: none; stroke: #000080; stroke-width: 2; stroke-linecap: round"/>
   </g>
   <g id="line2d_23">
    <path d="M 397.525622 80.689719 
L 397.525622 65.233371 
" clip-path="url(#p0328632c39)" style="fill: none; stroke: #000080; stroke-width: 2; stroke-linecap: round"/>
   </g>
   <g id="line2d_24">
    <path d="M 397.525622 65.233371 
L 397.525622 80.689719 
" clip-path="url(#p0328632c39)" style="fill: none; stroke: #000080; stroke-width: 2; stroke-linecap: round"/>
   </g>
   <g id="line2d_25">
    <path d="M 397.525622 65.233371 
L 397.525622 49.457478 
" clip-path="url(#p0328632c39)" style="fill: none; stroke: #000080; stroke-width: 2; stroke-linecap: round"/>
   </g>
   <g id="line2d_26">
    <path d="M 397.525622 49.457478 
L 397.525622 65.233371 
" clip-path="url(#p0328632c39)" style="fill: none; stroke: #000080; stroke-width: 2; stroke-linecap: round"/>
   </g>
   <g id="text_4">
    <!-- line -->
    <g style="fill: #262626" transform="translate(384.0865 17.2625) scale(0.14 -0.14)">
     <defs>
      <path id="Arial-BoldMT-6e" d="M 3478 0 
L 2600 0 
L 2600 1694 
Q 2600 2231 2544 2389 
Q 2488 2547 2361 2634 
Q 2234 2722 2056 2722 
Q 1828 2722 1647 2597 
Q 1466 2472 1398 2265 
Q 1331 2059 1331 1503 
L 1331 0 
L 453 0 
L 453 3319 
L 1269 3319 
L 1269 2831 
Q 1703 3394 2363 3394 
Q 2653 3394 2893 3289 
Q 3134 3184 3257 3021 
Q 3381 2859 3429 2653 
Q 3478 2447 3478 2063 
L 3478 0 
z
" transform="scale(0.015625)"/>
     </defs>
     <use xlink:href="#Arial-BoldMT-6c"/>
     <use xlink:href="#Arial-BoldMT-69" x="27.783203"/>
     <use xlink:href="#Arial-BoldMT-6e" x="55.566406"/>
     <use xlink:href="#Arial-BoldMT-65" x="116.650391"/>
    </g>
   </g>
  </g>
  <g id="patch_6">
   <path d="M 7.2 279.495891 
L 109.44 279.495891 
L 109.44 177.255891 
L 7.2 177.255891 
z
" style="fill: #f5f5f5"/>
  </g>
  <g id="axes_5">
   <g id="Path3DCollection_5">
    <defs>
     <path id="C4_0_452e304e35" d="M 0 5 
C 1.326016 5 2.597899 4.473168 3.535534 3.535534 
C 4.473168 2.597899 5 1.326016 5 -0 
C 5 -1.326016 4.473168 -2.597899 3.535534 -3.535534 
C 2.597899 -4.473168 1.326016 -5 0 -5 
C -1.326016 -5 -2.597899 -4.473168 -3.535534 -3.535534 
C -4.473168 -2.597899 -5 -1.326016 -5 0 
C -5 1.326016 -4.473168 2.597899 -3.535534 3.535534 
C -2.597899 4.473168 -1.326016 5 0 5 
z
"/>
    </defs>
    <g clip-path="url(#p448f910824)">
     <use xlink:href="#C4_0_452e304e35" x="48.672086" y="234.152763" style="fill: #8b0000; fill-opacity: 0.3; stroke: #000000; stroke-opacity: 0.3; stroke-width: 0.8"/>
    </g>
    <g clip-path="url(#p448f910824)">
     <use xlink:href="#C4_0_452e304e35" x="48.354677" y="190.662459" style="fill: #8b0000; fill-opacity: 0.50685; stroke: #000000; stroke-opacity: 0.50685; stroke-width: 0.8"/>
    </g>
    <g clip-path="url(#p448f910824)">
     <use xlink:href="#C4_0_452e304e35" x="103.087361" y="245.402103" style="fill: #8b0000; fill-opacity: 0.688168; stroke: #000000; stroke-opacity: 0.688168; stroke-width: 0.8"/>
    </g>
    <g clip-path="url(#p448f910824)">
     <use xlink:href="#C4_0_452e304e35" x="14.53009" y="254.439186" style="fill: #8b0000; stroke: #000000; stroke-width: 0.8"/>
    </g>
   </g>
   <g id="line2d_27">
    <path d="M 48.672086 234.152763 
L 48.354677 190.662459 
" clip-path="url(#p448f910824)" style="fill: none; stroke: #000080; stroke-width: 2; stroke-linecap: round"/>
   </g>
   <g id="line2d_28">
    <path d="M 48.672086 234.152763 
L 103.087361 245.402103 
" clip-path="url(#p448f910824)" style="fill: none; stroke: #000080; stroke-width: 2; stroke-linecap: round"/>
   </g>
   <g id="line2d_29">
    <path d="M 48.672086 234.152763 
L 14.53009 254.439186 
" clip-path="url(#p448f910824)" style="fill: none; stroke: #000080; stroke-width: 2; stroke-linecap: round"/>
   </g>
   <g id="line2d_30">
    <path d="M 48.354677 190.662459 
L 48.672086 234.152763 
" clip-path="url(#p448f910824)" style="fill: none; stroke: #000080; stroke-width: 2; stroke-linecap: round"/>
   </g>
   <g id="line2d_31">
    <path d="M 103.087361 245.402103 
L 48.672086 234.152763 
" clip-path="url(#p448f910824)" style="fill: none; stroke: #000080; stroke-width: 2; stroke-linecap: round"/>
   </g>
   <g id="line2d_32">
    <path d="M 14.53009 254.439186 
L 48.672086 234.152763 
" clip-path="url(#p448f910824)" style="fill: none; stroke: #000080; stroke-width: 2; stroke-linecap: round"/>
   </g>
   <g id="text_5">
    <!-- corner -->
    <g style="fill: #262626" transform="translate(36.534687 171.255891) scale(0.14 -0.14)">
     <defs>
      <path id="Arial-BoldMT-6f" d="M 256 1706 
Q 256 2144 472 2553 
Q 688 2963 1083 3178 
Q 1478 3394 1966 3394 
Q 2719 3394 3200 2905 
Q 3681 2416 3681 1669 
Q 3681 916 3195 420 
Q 2709 -75 1972 -75 
Q 1516 -75 1102 131 
Q 688 338 472 736 
Q 256 1134 256 1706 
z
M 1156 1659 
Q 1156 1166 1390 903 
Q 1625 641 1969 641 
Q 2313 641 2545 903 
Q 2778 1166 2778 1666 
Q 2778 2153 2545 2415 
Q 2313 2678 1969 2678 
Q 1625 2678 1390 2415 
Q 1156 2153 1156 1659 
z
" transform="scale(0.015625)"/>
     </defs>
     <use xlink:href="#Arial-BoldMT-63"/>
     <use xlink:href="#Arial-BoldMT-6f" x="55.615234"/>
     <use xlink:href="#Arial-BoldMT-72" x="116.699219"/>
     <use xlink:href="#Arial-BoldMT-6e" x="155.615234"/>
     <use xlink:href="#Arial-BoldMT-65" x="216.699219"/>
     <use xlink:href="#Arial-BoldMT-72" x="272.314453"/>
    </g>
   </g>
  </g>
  <g id="patch_7">
   <path d="M 119.808 279.495891 
L 222.048 279.495891 
L 222.048 177.255891 
L 119.808 177.255891 
z
" style="fill: #f5f5f5"/>
  </g>
  <g id="axes_6">
   <g id="Path3DCollection_6">
    <defs>
     <path id="C5_0_eb8ce4d55b" d="M 0 5 
C 1.326016 5 2.597899 4.473168 3.535534 3.535534 
C 4.473168 2.597899 5 1.326016 5 -0 
C 5 -1.326016 4.473168 -2.597899 3.535534 -3.535534 
C 2.597899 -4.473168 1.326016 -5 0 -5 
C -1.326016 -5 -2.597899 -4.473168 -3.535534 -3.535534 
C -4.473168 -2.597899 -5 -1.326016 -5 0 
C -5 1.326016 -4.473168 2.597899 -3.535534 3.535534 
C -2.597899 4.473168 -1.326016 5 0 5 
z
"/>
    </defs>
    <g clip-path="url(#p83d8a29541)">
     <use xlink:href="#C5_0_eb8ce4d55b" x="158.470178" y="246.786472" style="fill: #8b0000; fill-opacity: 0.3; stroke: #000000; stroke-opacity: 0.3; stroke-width: 0.8"/>
    </g>
    <g clip-path="url(#p83d8a29541)">
     <use xlink:href="#C5_0_eb8ce4d55b" x="158.261781" y="224.220307" style="fill: #8b0000; fill-opacity: 0.64473; stroke: #000000; stroke-opacity: 0.64473; stroke-width: 0.8"/>
    </g>
    <g clip-path="url(#p83d8a29541)">
     <use xlink:href="#C5_0_eb8ce4d55b" x="186.535617" y="252.957576" style="fill: #8b0000; fill-opacity: 0.939432; stroke: #000000; stroke-opacity: 0.939432; stroke-width: 0.8"/>
    </g>
    <g clip-path="url(#p83d8a29541)">
     <use xlink:href="#C5_0_eb8ce4d55b" x="158.047012" y="200.96414" style="fill: #8b0000; stroke: #000000; stroke-width: 0.8"/>
    </g>
   </g>
   <g id="line2d_33">
    <path d="M 158.470178 246.786472 
L 158.261781 224.220307 
" clip-path="url(#p83d8a29541)" style="fill: none; stroke: #000080; stroke-width: 2; stroke-linecap: round"/>
   </g>
   <g id="line2d_34">
    <path d="M 158.470178 246.786472 
L 186.535617 252.957576 
" clip-path="url(#p83d8a29541)" style="fill: none; stroke: #000080; stroke-width: 2; stroke-linecap: round"/>
   </g>
   <g id="line2d_35">
    <path d="M 158.261781 224.220307 
L 158.470178 246.786472 
" clip-path="url(#p83d8a29541)" style="fill: none; stroke: #000080; stroke-width: 2; stroke-linecap: round"/>
   </g>
   <g id="line2d_36">
    <path d="M 158.261781 224.220307 
L 158.047012 200.96414 
" clip-path="url(#p83d8a29541)" style="fill: none; stroke: #000080; stroke-width: 2; stroke-linecap: round"/>
   </g>
   <g id="line2d_37">
    <path d="M 158.047012 200.96414 
L 158.261781 224.220307 
" clip-path="url(#p83d8a29541)" style="fill: none; stroke: #000080; stroke-width: 2; stroke-linecap: round"/>
   </g>
   <g id="line2d_38">
    <path d="M 186.535617 252.957576 
L 158.470178 246.786472 
" clip-path="url(#p83d8a29541)" style="fill: none; stroke: #000080; stroke-width: 2; stroke-linecap: round"/>
   </g>
   <g id="text_6">
    <!-- L -->
    <g style="fill: #262626" transform="translate(166.652531 171.255891) scale(0.14 -0.14)">
     <defs>
      <path id="Arial-BoldMT-4c" d="M 491 0 
L 491 4544 
L 1416 4544 
L 1416 772 
L 3716 772 
L 3716 0 
L 491 0 
z
" transform="scale(0.015625)"/>
     </defs>
     <use xlink:href="#Arial-BoldMT-4c"/>
    </g>
   </g>
  </g>
  <g id="patch_8">
   <path d="M 232.416 279.495891 
L 334.656 279.495891 
L 334.656 177.255891 
L 232.416 177.255891 
z
" style="fill: #f5f5f5"/>
  </g>
  <g id="axes_7">
   <g id="Path3DCollection_7">
    <defs>
     <path id="C6_0_548b22d878" d="M 0 5 
C 1.326016 5 2.597899 4.473168 3.535534 3.535534 
C 4.473168 2.597899 5 1.326016 5 -0 
C 5 -1.326016 4.473168 -2.597899 3.535534 -3.535534 
C 2.597899 -4.473168 1.326016 -5 0 -5 
C -1.326016 -5 -2.597899 -4.473168 -3.535534 -3.535534 
C -4.473168 -2.597899 -5 -1.326016 -5 0 
C -5 1.326016 -4.473168 2.597899 -3.535534 3.535534 
C -2.597899 4.473168 -1.326016 5 0 5 
z
"/>
    </defs>
    <g clip-path="url(#p5c32a79d12)">
     <use xlink:href="#C6_0_548b22d878" x="271.078178" y="246.786472" style="fill: #8b0000; fill-opacity: 0.3; stroke: #000000; stroke-opacity: 0.3; stroke-width: 0.8"/>
    </g>
    <g clip-path="url(#p5c32a79d12)">
     <use xlink:href="#C6_0_548b22d878" x="270.869781" y="224.220307" style="fill: #8b0000; fill-opacity: 0.540387; stroke: #000000; stroke-opacity: 0.540387; stroke-width: 0.8"/>
    </g>
    <g clip-path="url(#p5c32a79d12)">
     <use xlink:href="#C6_0_548b22d878" x="270.655012" y="200.96414" style="fill: #8b0000; fill-opacity: 0.788125; stroke: #000000; stroke-opacity: 0.788125; stroke-width: 0.8"/>
    </g>
    <g clip-path="url(#p5c32a79d12)">
     <use xlink:href="#C6_0_548b22d878" x="299.36391" y="229.846912" style="fill: #8b0000; stroke: #000000; stroke-width: 0.8"/>
    </g>
   </g>
   <g id="line2d_39">
    <path d="M 271.078178 246.786472 
L 270.869781 224.220307 
" clip-path="url(#p5c32a79d12)" style="fill: none; stroke: #000080; stroke-width: 2; stroke-linecap: round"/>
   </g>
   <g id="line2d_40">
    <path d="M 270.869781 224.220307 
L 271.078178 246.786472 
" clip-path="url(#p5c32a79d12)" style="fill: none; stroke: #000080; stroke-width: 2; stroke-linecap: round"/>
   </g>
   <g id="line2d_41">
    <path d="M 270.869781 224.220307 
L 270.655012 200.96414 
" clip-path="url(#p5c32a79d12)" style="fill: none; stroke: #000080; stroke-width: 2; stroke-linecap: round"/>
   </g>
   <g id="line2d_42">
    <path d="M 270.869781 224.220307 
L 299.36391 229.846912 
" clip-path="url(#p5c32a79d12)" style="fill: none; stroke: #000080; stroke-width: 2; stroke-linecap: round"/>
   </g>
   <g id="line2d_43">
    <path d="M 270.655012 200.96414 
L 270.869781 224.220307 
" clip-path="url(#p5c32a79d12)" style="fill: none; stroke: #000080; stroke-width: 2; stroke-linecap: round"/>
   </g>
   <g id="line2d_44">
    <path d="M 299.36391 229.846912 
L 270.869781 224.220307 
" clip-path="url(#p5c32a79d12)" style="fill: none; stroke: #000080; stroke-width: 2; stroke-linecap: round"/>
   </g>
   <g id="text_7">
    <!-- T -->
    <g style="fill: #262626" transform="translate(279.260531 171.255891) scale(0.14 -0.14)">
     <defs>
      <path id="Arial-BoldMT-54" d="M 1497 0 
L 1497 3806 
L 138 3806 
L 138 4581 
L 3778 4581 
L 3778 3806 
L 2422 3806 
L 2422 0 
L 1497 0 
z
" transform="scale(0.015625)"/>
     </defs>
     <use xlink:href="#Arial-BoldMT-54"/>
    </g>
   </g>
  </g>
  <g id="patch_9">
   <path d="M 345.024 279.495891 
L 447.264 279.495891 
L 447.264 177.255891 
L 345.024 177.255891 
z
" style="fill: #f5f5f5"/>
  </g>
  <g id="axes_8">
   <g id="Path3DCollection_8">
    <defs>
     <path id="C7_0_57bf575bc4" d="M 0 5 
C 1.326016 5 2.597899 4.473168 3.535534 3.535534 
C 4.473168 2.597899 5 1.326016 5 -0 
C 5 -1.326016 4.473168 -2.597899 3.535534 -3.535534 
C 2.597899 -4.473168 1.326016 -5 0 -5 
C -1.326016 -5 -2.597899 -4.473168 -3.535534 -3.535534 
C -4.473168 -2.597899 -5 -1.326016 -5 0 
C -5 1.326016 -4.473168 2.597899 -3.535534 3.535534 
C -2.597899 4.473168 -1.326016 5 0 5 
z
"/>
    </defs>
    <g clip-path="url(#p417f4b3945)">
     <use xlink:href="#C7_0_57bf575bc4" x="399.599744" y="215.175622" style="fill: #8b0000; fill-opacity: 0.3; stroke: #000000; stroke-opacity: 0.3; stroke-width: 0.8"/>
    </g>
    <g clip-path="url(#p417f4b3945)">
     <use xlink:href="#C7_0_57bf575bc4" x="383.477781" y="224.220307" style="fill: #8b0000; fill-opacity: 0.551131; stroke: #000000; stroke-opacity: 0.551131; stroke-width: 0.8"/>
    </g>
    <g clip-path="url(#p417f4b3945)">
     <use xlink:href="#C7_0_57bf575bc4" x="411.97191" y="229.846912" style="fill: #8b0000; fill-opacity: 0.707357; stroke: #000000; stroke-opacity: 0.707357; stroke-width: 0.8"/>
    </g>
    <g clip-path="url(#p417f4b3945)">
     <use xlink:href="#C7_0_57bf575bc4" x="395.175308" y="240.386689" style="fill: #8b0000; stroke: #000000; stroke-width: 0.8"/>
    </g>
   </g>
   <g id="line2d_45">
    <path d="M 399.599744 215.175622 
L 383.477781 224.220307 
" clip-path="url(#p417f4b3945)" style="fill: none; stroke: #000080; stroke-width: 2; stroke-linecap: round"/>
   </g>
   <g id="line2d_46">
    <path d="M 383.477781 224.220307 
L 399.599744 215.175622 
" clip-path="url(#p417f4b3945)" style="fill: none; stroke: #000080; stroke-width: 2; stroke-linecap: round"/>
   </g>
   <g id="line2d_47">
    <path d="M 383.477781 224.220307 
L 411.97191 229.846912 
" clip-path="url(#p417f4b3945)" style="fill: none; stroke: #000080; stroke-width: 2; stroke-linecap: round"/>
   </g>
   <g id="line2d_48">
    <path d="M 411.97191 229.846912 
L 383.477781 224.220307 
" clip-path="url(#p417f4b3945)" style="fill: none; stroke: #000080; stroke-width: 2; stroke-linecap: round"/>
   </g>
   <g id="line2d_49">
    <path d="M 411.97191 229.846912 
L 395.175308 240.386689 
" clip-path="url(#p417f4b3945)" style="fill: none; stroke: #000080; stroke-width: 2; stroke-linecap: round"/>
   </g>
   <g id="line2d_50">
    <path d="M 395.175308 240.386689 
L 411.97191 229.846912 
" clip-path="url(#p417f4b3945)" style="fill: none; stroke: #000080; stroke-width: 2; stroke-linecap: round"/>
   </g>
   <g id="text_8">
    <!-- zigzag -->
    <g style="fill: #262626" transform="translate(374.755719 171.255891) scale(0.14 -0.14)">
     <defs>
      <path id="Arial-BoldMT-7a" d="M 106 0 
L 106 684 
L 1350 2113 
Q 1656 2463 1803 2609 
Q 1650 2600 1400 2597 
L 228 2591 
L 228 3319 
L 2972 3319 
L 2972 2697 
L 1703 1234 
L 1256 750 
Q 1622 772 1709 772 
L 3069 772 
L 3069 0 
L 106 0 
z
" transform="scale(0.015625)"/>
      <path id="Arial-BoldMT-67" d="M 378 -219 
L 1381 -341 
Q 1406 -516 1497 -581 
Q 1622 -675 1891 -675 
Q 2234 -675 2406 -572 
Q 2522 -503 2581 -350 
Q 2622 -241 2622 53 
L 2622 538 
Q 2228 0 1628 0 
Q 959 0 569 566 
Q 263 1013 263 1678 
Q 263 2513 664 2953 
Q 1066 3394 1663 3394 
Q 2278 3394 2678 2853 
L 2678 3319 
L 3500 3319 
L 3500 341 
Q 3500 -247 3403 -537 
Q 3306 -828 3131 -993 
Q 2956 -1159 2664 -1253 
Q 2372 -1347 1925 -1347 
Q 1081 -1347 728 -1058 
Q 375 -769 375 -325 
Q 375 -281 378 -219 
z
M 1163 1728 
Q 1163 1200 1367 954 
Q 1572 709 1872 709 
Q 2194 709 2416 961 
Q 2638 1213 2638 1706 
Q 2638 2222 2425 2472 
Q 2213 2722 1888 2722 
Q 1572 2722 1367 2476 
Q 1163 2231 1163 1728 
z
" transform="scale(0.015625)"/>
     </defs>
     <use xlink:href="#Arial-BoldMT-7a"/>
     <use xlink:href="#Arial-BoldMT-69" x="50"/>
     <use xlink:href="#Arial-BoldMT-67" x="77.783203"/>
     <use xlink:href="#Arial-BoldMT-7a" x="138.867188"/>
     <use xlink:href="#Arial-BoldMT-61" x="188.867188"/>
     <use xlink:href="#Arial-BoldMT-67" x="244.482422"/>
    </g>
   </g>
  </g>
 </g>
 <defs>
  <clipPath id="p928a75faf6">
   <rect x="7.2" y="23.2625" width="102.24" height="102.24"/>
  </clipPath>
  <clipPath id="pbd3f629387">
   <rect x="119.808" y="23.2625" width="102.24" height="102.24"/>
  </clipPath>
  <clipPath id="pad2ef45c1b">
   <rect x="232.416" y="23.2625" width="102.24" height="102.24"/>
  </clipPath>
  <clipPath id="p0328632c39">
   <rect x="345.024" y="23.2625" width="102.24" height="102.24"/>
  </clipPath>
  <clipPath id="p448f910824">
   <rect x="7.2" y="177.255891" width="102.24" height="102.24"/>
  </clipPath>
  <clipPath id="p83d8a29541">
   <rect x="119.808" y="177.255891" width="102.24" height="102.24"/>
  </clipPath>
  <clipPath id="p5c32a79d12">
   <rect x="232.416" y="177.255891" width="102.24" height="102.24"/>
  </clipPath>
  <clipPath id="p417f4b3945">
   <rect x="345.024" y="177.255891" width="102.24" height="102.24"/>
  </clipPath>
 </defs>
</svg>