<?xml version="1.0" encoding="utf-8" standalone="no"?>
<!DOCTYPE svg PUBLIC "-//W3C//DTD SVG 1.1//EN"
  "http://www.w3.org/Graphics/SVG/1.1/DTD/svg11.dtd">
<svg xmlns:xlink="http://www.w3.org/1999/xlink" width="405.061pt" height="322.627875pt" viewBox="0 0 405.061 322.627875" xmlns="http://www.w3.org/2000/svg" version="1.1">
 <metadata>
  <rdf:RDF xmlns:dc="http://purl.org/dc/elements/1.1/" xmlns:cc="http://creativecommons.org/ns#" xmlns:rdf="http://www.w3.org/1999/02/22-rdf-syntax-ns#">
   <cc:Work>
    <dc:type rdf:resource="http://purl.org/dc/dcmitype/StillImage"/>
    <dc:date>2024-09-27T20:18:25.899779</dc:date>
    <dc:format>image/svg+xml</dc:format>
    <dc:creator>
     <cc:Agent>
      <dc:title>Matplotlib v3.9.0, https://matplotlib.org/</dc:title>
     </cc:Agent>
    </dc:creator>
   </cc:Work>
  </rdf:RDF>
 </metadata>
 <defs>
  <style type="text/css">*{stroke-linejoin: round; stroke-linecap: butt}</style>
 </defs>
 <g id="figure_1">
  <g id="patch_1">
   <path d="M 0 322.627875 
L 405.061 322.627875 
L 405.061 0 
L 0 0 
z
" style="fill: #ffffff"/>
  </g>
  <g id="axes_1">
   <g id="patch_2">
    <path d="M 40.741 286.3005 
L 397.861 286.3005 
L 397.861 20.1885 
L 40.741 20.1885 
z
" style="fill: #ffffff"/>
   </g>
   <g id="matplotlib.axis_1">
    <g id="xtick_1">
     <g id="line2d_1">
      <defs>
       <path id="m17bfd113dc" d="M 0 0 
L 0 4.8 
" style="stroke: #262626"/>
      </defs>
      <g>
       <use xlink:href="#m17bfd113dc" x="56.648422" y="286.3005" style="fill: #262626; stroke: #262626"/>
      </g>
     </g>
     <g id="text_1">
      <!-- 0 -->
      <g style="fill: #262626" transform="translate(54.20161 300.899375) scale(0.088 -0.088)">
       <defs>
        <path id="ArialMT-30" d="M 266 2259 
Q 266 3072 433 3567 
Q 600 4063 929 4331 
Q 1259 4600 1759 4600 
Q 2128 4600 2406 4451 
Q 2684 4303 2865 4023 
Q 3047 3744 3150 3342 
Q 3253 2941 3253 2259 
Q 3253 1453 3087 958 
Q 2922 463 2592 192 
Q 2263 -78 1759 -78 
Q 1097 -78 719 397 
Q 266 969 266 2259 
z
M 844 2259 
Q 844 1131 1108 757 
Q 1372 384 1759 384 
Q 2147 384 2411 759 
Q 2675 1134 2675 2259 
Q 2675 3391 2411 3762 
Q 2147 4134 1753 4134 
Q 1366 4134 1134 3806 
Q 844 3388 844 2259 
z
" transform="scale(0.015625)"/>
       </defs>
       <use xlink:href="#ArialMT-30"/>
      </g>
     </g>
    </g>
    <g id="xtick_2">
     <g id="line2d_2">
      <g>
       <use xlink:href="#m17bfd113dc" x="121.644392" y="286.3005" style="fill: #262626; stroke: #262626"/>
      </g>
     </g>
     <g id="text_2">
      <!-- 10 -->
      <g style="fill: #262626" transform="translate(116.750767 300.899375) scale(0.088 -0.088)">
       <defs>
        <path id="ArialMT-31" d="M 2384 0 
L 1822 0 
L 1822 3584 
Q 1619 3391 1289 3197 
Q 959 3003 697 2906 
L 697 3450 
Q 1169 3672 1522 3987 
Q 1875 4303 2022 4600 
L 2384 4600 
L 2384 0 
z
" transform="scale(0.015625)"/>
       </defs>
       <use xlink:href="#ArialMT-31"/>
       <use xlink:href="#ArialMT-30" x="55.615234"/>
      </g>
     </g>
    </g>
    <g id="xtick_3">
     <g id="line2d_3">
      <g>
       <use xlink:href="#m17bfd113dc" x="186.640362" y="286.3005" style="fill: #262626; stroke: #262626"/>
      </g>
     </g>
     <g id="text_3">
      <!-- 20 -->
      <g style="fill: #262626" transform="translate(181.746737 300.899375) scale(0.088 -0.088)">
       <defs>
        <path id="ArialMT-32" d="M 3222 541 
L 3222 0 
L 194 0 
Q 188 203 259 391 
Q 375 700 629 1000 
Q 884 1300 1366 1694 
Q 2113 2306 2375 2664 
Q 2638 3022 2638 3341 
Q 2638 3675 2398 3904 
Q 2159 4134 1775 4134 
Q 1369 4134 1125 3890 
Q 881 3647 878 3216 
L 300 3275 
Q 359 3922 746 4261 
Q 1134 4600 1788 4600 
Q 2447 4600 2831 4234 
Q 3216 3869 3216 3328 
Q 3216 3053 3103 2787 
Q 2991 2522 2730 2228 
Q 2469 1934 1863 1422 
Q 1356 997 1212 845 
Q 1069 694 975 541 
L 3222 541 
z
" transform="scale(0.015625)"/>
       </defs>
       <use xlink:href="#ArialMT-32"/>
       <use xlink:href="#ArialMT-30" x="55.615234"/>
      </g>
     </g>
    </g>
    <g id="xtick_4">
     <g id="line2d_4">
      <g>
       <use xlink:href="#m17bfd113dc" x="251.636332" y="286.3005" style="fill: #262626; stroke: #262626"/>
      </g>
     </g>
     <g id="text_4">
      <!-- 30 -->
      <g style="fill: #262626" transform="translate(246.742707 300.899375) scale(0.088 -0.088)">
       <defs>
        <path id="ArialMT-33" d="M 269 1209 
L 831 1284 
Q 928 806 1161 595 
Q 1394 384 1728 384 
Q 2125 384 2398 659 
Q 2672 934 2672 1341 
Q 2672 1728 2419 1979 
Q 2166 2231 1775 2231 
Q 1616 2231 1378 2169 
L 1441 2663 
Q 1497 2656 1531 2656 
Q 1891 2656 2178 2843 
Q 2466 3031 2466 3422 
Q 2466 3731 2256 3934 
Q 2047 4138 1716 4138 
Q 1388 4138 1169 3931 
Q 950 3725 888 3313 
L 325 3413 
Q 428 3978 793 4289 
Q 1159 4600 1703 4600 
Q 2078 4600 2393 4439 
Q 2709 4278 2876 4000 
Q 3044 3722 3044 3409 
Q 3044 3113 2884 2869 
Q 2725 2625 2413 2481 
Q 2819 2388 3044 2092 
Q 3269 1797 3269 1353 
Q 3269 753 2831 336 
Q 2394 -81 1725 -81 
Q 1122 -81 723 278 
Q 325 638 269 1209 
z
" transform="scale(0.015625)"/>
       </defs>
       <use xlink:href="#ArialMT-33"/>
       <use xlink:href="#ArialMT-30" x="55.615234"/>
      </g>
     </g>
    </g>
    <g id="xtick_5">
     <g id="line2d_5">
      <g>
       <use xlink:href="#m17bfd113dc" x="316.632303" y="286.3005" style="fill: #262626; stroke: #262626"/>
      </g>
     </g>
     <g id="text_5">
      <!-- 40 -->
      <g style="fill: #262626" transform="translate(311.738678 300.899375) scale(0.088 -0.088)">
       <defs>
        <path id="ArialMT-34" d="M 2069 0 
L 2069 1097 
L 81 1097 
L 81 1613 
L 2172 4581 
L 2631 4581 
L 2631 1613 
L 3250 1613 
L 3250 1097 
L 2631 1097 
L 2631 0 
L 2069 0 
z
M 2069 1613 
L 2069 3678 
L 634 1613 
L 2069 1613 
z
" transform="scale(0.015625)"/>
       </defs>
       <use xlink:href="#ArialMT-34"/>
       <use xlink:href="#ArialMT-30" x="55.615234"/>
      </g>
     </g>
    </g>
    <g id="xtick_6">
     <g id="line2d_6">
      <g>
       <use xlink:href="#m17bfd113dc" x="381.628273" y="286.3005" style="fill: #262626; stroke: #262626"/>
      </g>
     </g>
     <g id="text_6">
      <!-- 50 -->
      <g style="fill: #262626" transform="translate(376.734648 300.899375) scale(0.088 -0.088)">
       <defs>
        <path id="ArialMT-35" d="M 266 1200 
L 856 1250 
Q 922 819 1161 601 
Q 1400 384 1738 384 
Q 2144 384 2425 690 
Q 2706 997 2706 1503 
Q 2706 1984 2436 2262 
Q 2166 2541 1728 2541 
Q 1456 2541 1237 2417 
Q 1019 2294 894 2097 
L 366 2166 
L 809 4519 
L 3088 4519 
L 3088 3981 
L 1259 3981 
L 1013 2750 
Q 1425 3038 1878 3038 
Q 2478 3038 2890 2622 
Q 3303 2206 3303 1553 
Q 3303 931 2941 478 
Q 2500 -78 1738 -78 
Q 1113 -78 717 272 
Q 322 622 266 1200 
z
" transform="scale(0.015625)"/>
       </defs>
       <use xlink:href="#ArialMT-35"/>
       <use xlink:href="#ArialMT-30" x="55.615234"/>
      </g>
     </g>
    </g>
    <g id="text_7">
     <!-- t -->
     <g style="fill: #262626" transform="translate(217.9675 313.519875) scale(0.096 -0.096)">
      <defs>
       <path id="ArialMT-74" d="M 1650 503 
L 1731 6 
Q 1494 -44 1306 -44 
Q 1000 -44 831 53 
Q 663 150 594 308 
Q 525 466 525 972 
L 525 2881 
L 113 2881 
L 113 3319 
L 525 3319 
L 525 4141 
L 1084 4478 
L 1084 3319 
L 1650 3319 
L 1650 2881 
L 1084 2881 
L 1084 941 
Q 1084 700 1114 631 
Q 1144 563 1211 522 
Q 1278 481 1403 481 
Q 1497 481 1650 503 
z
" transform="scale(0.015625)"/>
      </defs>
      <use xlink:href="#ArialMT-74"/>
     </g>
    </g>
   </g>
   <g id="matplotlib.axis_2">
    <g id="ytick_1">
     <g id="line2d_7">
      <defs>
       <path id="m7fe2ab8c12" d="M 0 0 
L -4.8 0 
" style="stroke: #262626"/>
      </defs>
      <g>
       <use xlink:href="#m7fe2ab8c12" x="40.741" y="274.2045" style="fill: #262626; stroke: #262626"/>
      </g>
     </g>
     <g id="text_8">
      <!-- 0.0 -->
      <g style="fill: #262626" transform="translate(20.209 277.353937) scale(0.088 -0.088)">
       <defs>
        <path id="ArialMT-2e" d="M 581 0 
L 581 641 
L 1222 641 
L 1222 0 
L 581 0 
z
" transform="scale(0.015625)"/>
       </defs>
       <use xlink:href="#ArialMT-30"/>
       <use xlink:href="#ArialMT-2e" x="55.615234"/>
       <use xlink:href="#ArialMT-30" x="83.398438"/>
      </g>
     </g>
    </g>
    <g id="ytick_2">
     <g id="line2d_8">
      <g>
       <use xlink:href="#m7fe2ab8c12" x="40.741" y="225.821008" style="fill: #262626; stroke: #262626"/>
      </g>
     </g>
     <g id="text_9">
      <!-- 0.2 -->
      <g style="fill: #262626" transform="translate(20.209 228.970445) scale(0.088 -0.088)">
       <use xlink:href="#ArialMT-30"/>
       <use xlink:href="#ArialMT-2e" x="55.615234"/>
       <use xlink:href="#ArialMT-32" x="83.398438"/>
      </g>
     </g>
    </g>
    <g id="ytick_3">
     <g id="line2d_9">
      <g>
       <use xlink:href="#m7fe2ab8c12" x="40.741" y="177.437515" style="fill: #262626; stroke: #262626"/>
      </g>
     </g>
     <g id="text_10">
      <!-- 0.4 -->
      <g style="fill: #262626" transform="translate(20.209 180.586953) scale(0.088 -0.088)">
       <use xlink:href="#ArialMT-30"/>
       <use xlink:href="#ArialMT-2e" x="55.615234"/>
       <use xlink:href="#ArialMT-34" x="83.398438"/>
      </g>
     </g>
    </g>
    <g id="ytick_4">
     <g id="line2d_10">
      <g>
       <use xlink:href="#m7fe2ab8c12" x="40.741" y="129.054023" style="fill: #262626; stroke: #262626"/>
      </g>
     </g>
     <g id="text_11">
      <!-- 0.6 -->
      <g style="fill: #262626" transform="translate(20.209 132.20346) scale(0.088 -0.088)">
       <defs>
        <path id="ArialMT-36" d="M 3184 3459 
L 2625 3416 
Q 2550 3747 2413 3897 
Q 2184 4138 1850 4138 
Q 1581 4138 1378 3988 
Q 1113 3794 959 3422 
Q 806 3050 800 2363 
Q 1003 2672 1297 2822 
Q 1591 2972 1913 2972 
Q 2475 2972 2870 2558 
Q 3266 2144 3266 1488 
Q 3266 1056 3080 686 
Q 2894 316 2569 119 
Q 2244 -78 1831 -78 
Q 1128 -78 684 439 
Q 241 956 241 2144 
Q 241 3472 731 4075 
Q 1159 4600 1884 4600 
Q 2425 4600 2770 4297 
Q 3116 3994 3184 3459 
z
M 888 1484 
Q 888 1194 1011 928 
Q 1134 663 1356 523 
Q 1578 384 1822 384 
Q 2178 384 2434 671 
Q 2691 959 2691 1453 
Q 2691 1928 2437 2201 
Q 2184 2475 1800 2475 
Q 1419 2475 1153 2201 
Q 888 1928 888 1484 
z
" transform="scale(0.015625)"/>
       </defs>
       <use xlink:href="#ArialMT-30"/>
       <use xlink:href="#ArialMT-2e" x="55.615234"/>
       <use xlink:href="#ArialMT-36" x="83.398438"/>
      </g>
     </g>
    </g>
    <g id="ytick_5">
     <g id="line2d_11">
      <g>
       <use xlink:href="#m7fe2ab8c12" x="40.741" y="80.67053" style="fill: #262626; stroke: #262626"/>
      </g>
     </g>
     <g id="text_12">
      <!-- 0.8 -->
      <g style="fill: #262626" transform="translate(20.209 83.819968) scale(0.088 -0.088)">
       <defs>
        <path id="ArialMT-38" d="M 1131 2484 
Q 781 2613 612 2850 
Q 444 3088 444 3419 
Q 444 3919 803 4259 
Q 1163 4600 1759 4600 
Q 2359 4600 2725 4251 
Q 3091 3903 3091 3403 
Q 3091 3084 2923 2848 
Q 2756 2613 2416 2484 
Q 2838 2347 3058 2040 
Q 3278 1734 3278 1309 
Q 3278 722 2862 322 
Q 2447 -78 1769 -78 
Q 1091 -78 675 323 
Q 259 725 259 1325 
Q 259 1772 486 2073 
Q 713 2375 1131 2484 
z
M 1019 3438 
Q 1019 3113 1228 2906 
Q 1438 2700 1772 2700 
Q 2097 2700 2305 2904 
Q 2513 3109 2513 3406 
Q 2513 3716 2298 3927 
Q 2084 4138 1766 4138 
Q 1444 4138 1231 3931 
Q 1019 3725 1019 3438 
z
M 838 1322 
Q 838 1081 952 856 
Q 1066 631 1291 507 
Q 1516 384 1775 384 
Q 2178 384 2440 643 
Q 2703 903 2703 1303 
Q 2703 1709 2433 1975 
Q 2163 2241 1756 2241 
Q 1359 2241 1098 1978 
Q 838 1716 838 1322 
z
" transform="scale(0.015625)"/>
       </defs>
       <use xlink:href="#ArialMT-30"/>
       <use xlink:href="#ArialMT-2e" x="55.615234"/>
       <use xlink:href="#ArialMT-38" x="83.398438"/>
      </g>
     </g>
    </g>
    <g id="ytick_6">
     <g id="line2d_12">
      <g>
       <use xlink:href="#m7fe2ab8c12" x="40.741" y="32.287038" style="fill: #262626; stroke: #262626"/>
      </g>
     </g>
     <g id="text_13">
      <!-- 1.0 -->
      <g style="fill: #262626" transform="translate(20.209 35.436475) scale(0.088 -0.088)">
       <use xlink:href="#ArialMT-31"/>
       <use xlink:href="#ArialMT-2e" x="55.615234"/>
       <use xlink:href="#ArialMT-30" x="83.398438"/>
      </g>
     </g>
    </g>
    <g id="text_14">
     <!-- Sensitivity indices for x(t) -->
     <g style="fill: #262626" transform="translate(14.1885 206.3235) rotate(-90) scale(0.096 -0.096)">
      <defs>
       <path id="ArialMT-53" d="M 288 1472 
L 859 1522 
Q 900 1178 1048 958 
Q 1197 738 1509 602 
Q 1822 466 2213 466 
Q 2559 466 2825 569 
Q 3091 672 3220 851 
Q 3350 1031 3350 1244 
Q 3350 1459 3225 1620 
Q 3100 1781 2813 1891 
Q 2628 1963 1997 2114 
Q 1366 2266 1113 2400 
Q 784 2572 623 2826 
Q 463 3081 463 3397 
Q 463 3744 659 4045 
Q 856 4347 1234 4503 
Q 1613 4659 2075 4659 
Q 2584 4659 2973 4495 
Q 3363 4331 3572 4012 
Q 3781 3694 3797 3291 
L 3216 3247 
Q 3169 3681 2898 3903 
Q 2628 4125 2100 4125 
Q 1550 4125 1298 3923 
Q 1047 3722 1047 3438 
Q 1047 3191 1225 3031 
Q 1400 2872 2139 2705 
Q 2878 2538 3153 2413 
Q 3553 2228 3743 1945 
Q 3934 1663 3934 1294 
Q 3934 928 3725 604 
Q 3516 281 3123 101 
Q 2731 -78 2241 -78 
Q 1619 -78 1198 103 
Q 778 284 539 648 
Q 300 1013 288 1472 
z
" transform="scale(0.015625)"/>
       <path id="ArialMT-65" d="M 2694 1069 
L 3275 997 
Q 3138 488 2766 206 
Q 2394 -75 1816 -75 
Q 1088 -75 661 373 
Q 234 822 234 1631 
Q 234 2469 665 2931 
Q 1097 3394 1784 3394 
Q 2450 3394 2872 2941 
Q 3294 2488 3294 1666 
Q 3294 1616 3291 1516 
L 816 1516 
Q 847 969 1125 678 
Q 1403 388 1819 388 
Q 2128 388 2347 550 
Q 2566 713 2694 1069 
z
M 847 1978 
L 2700 1978 
Q 2663 2397 2488 2606 
Q 2219 2931 1791 2931 
Q 1403 2931 1139 2672 
Q 875 2413 847 1978 
z
" transform="scale(0.015625)"/>
       <path id="ArialMT-6e" d="M 422 0 
L 422 3319 
L 928 3319 
L 928 2847 
Q 1294 3394 1984 3394 
Q 2284 3394 2536 3286 
Q 2788 3178 2913 3003 
Q 3038 2828 3088 2588 
Q 3119 2431 3119 2041 
L 3119 0 
L 2556 0 
L 2556 2019 
Q 2556 2363 2490 2533 
Q 2425 2703 2258 2804 
Q 2091 2906 1866 2906 
Q 1506 2906 1245 2678 
Q 984 2450 984 1813 
L 984 0 
L 422 0 
z
" transform="scale(0.015625)"/>
       <path id="ArialMT-73" d="M 197 991 
L 753 1078 
Q 800 744 1014 566 
Q 1228 388 1613 388 
Q 2000 388 2187 545 
Q 2375 703 2375 916 
Q 2375 1106 2209 1216 
Q 2094 1291 1634 1406 
Q 1016 1563 777 1677 
Q 538 1791 414 1992 
Q 291 2194 291 2438 
Q 291 2659 392 2848 
Q 494 3038 669 3163 
Q 800 3259 1026 3326 
Q 1253 3394 1513 3394 
Q 1903 3394 2198 3281 
Q 2494 3169 2634 2976 
Q 2775 2784 2828 2463 
L 2278 2388 
Q 2241 2644 2061 2787 
Q 1881 2931 1553 2931 
Q 1166 2931 1000 2803 
Q 834 2675 834 2503 
Q 834 2394 903 2306 
Q 972 2216 1119 2156 
Q 1203 2125 1616 2013 
Q 2213 1853 2448 1751 
Q 2684 1650 2818 1456 
Q 2953 1263 2953 975 
Q 2953 694 2789 445 
Q 2625 197 2315 61 
Q 2006 -75 1616 -75 
Q 969 -75 630 194 
Q 291 463 197 991 
z
" transform="scale(0.015625)"/>
       <path id="ArialMT-69" d="M 425 3934 
L 425 4581 
L 988 4581 
L 988 3934 
L 425 3934 
z
M 425 0 
L 425 3319 
L 988 3319 
L 988 0 
L 425 0 
z
" transform="scale(0.015625)"/>
       <path id="ArialMT-76" d="M 1344 0 
L 81 3319 
L 675 3319 
L 1388 1331 
Q 1503 1009 1600 663 
Q 1675 925 1809 1294 
L 2547 3319 
L 3125 3319 
L 1869 0 
L 1344 0 
z
" transform="scale(0.015625)"/>
       <path id="ArialMT-79" d="M 397 -1278 
L 334 -750 
Q 519 -800 656 -800 
Q 844 -800 956 -737 
Q 1069 -675 1141 -563 
Q 1194 -478 1313 -144 
Q 1328 -97 1363 -6 
L 103 3319 
L 709 3319 
L 1400 1397 
Q 1534 1031 1641 628 
Q 1738 1016 1872 1384 
L 2581 3319 
L 3144 3319 
L 1881 -56 
Q 1678 -603 1566 -809 
Q 1416 -1088 1222 -1217 
Q 1028 -1347 759 -1347 
Q 597 -1347 397 -1278 
z
" transform="scale(0.015625)"/>
       <path id="ArialMT-20" transform="scale(0.015625)"/>
       <path id="ArialMT-64" d="M 2575 0 
L 2575 419 
Q 2259 -75 1647 -75 
Q 1250 -75 917 144 
Q 584 363 401 755 
Q 219 1147 219 1656 
Q 219 2153 384 2558 
Q 550 2963 881 3178 
Q 1213 3394 1622 3394 
Q 1922 3394 2156 3267 
Q 2391 3141 2538 2938 
L 2538 4581 
L 3097 4581 
L 3097 0 
L 2575 0 
z
M 797 1656 
Q 797 1019 1065 703 
Q 1334 388 1700 388 
Q 2069 388 2326 689 
Q 2584 991 2584 1609 
Q 2584 2291 2321 2609 
Q 2059 2928 1675 2928 
Q 1300 2928 1048 2622 
Q 797 2316 797 1656 
z
" transform="scale(0.015625)"/>
       <path id="ArialMT-63" d="M 2588 1216 
L 3141 1144 
Q 3050 572 2676 248 
Q 2303 -75 1759 -75 
Q 1078 -75 664 370 
Q 250 816 250 1647 
Q 250 2184 428 2587 
Q 606 2991 970 3192 
Q 1334 3394 1763 3394 
Q 2303 3394 2647 3120 
Q 2991 2847 3088 2344 
L 2541 2259 
Q 2463 2594 2264 2762 
Q 2066 2931 1784 2931 
Q 1359 2931 1093 2626 
Q 828 2322 828 1663 
Q 828 994 1084 691 
Q 1341 388 1753 388 
Q 2084 388 2306 591 
Q 2528 794 2588 1216 
z
" transform="scale(0.015625)"/>
       <path id="ArialMT-66" d="M 556 0 
L 556 2881 
L 59 2881 
L 59 3319 
L 556 3319 
L 556 3672 
Q 556 4006 616 4169 
Q 697 4388 901 4523 
Q 1106 4659 1475 4659 
Q 1713 4659 2000 4603 
L 1916 4113 
Q 1741 4144 1584 4144 
Q 1328 4144 1222 4034 
Q 1116 3925 1116 3625 
L 1116 3319 
L 1763 3319 
L 1763 2881 
L 1116 2881 
L 1116 0 
L 556 0 
z
" transform="scale(0.015625)"/>
       <path id="ArialMT-6f" d="M 213 1659 
Q 213 2581 725 3025 
Q 1153 3394 1769 3394 
Q 2453 3394 2887 2945 
Q 3322 2497 3322 1706 
Q 3322 1066 3130 698 
Q 2938 331 2570 128 
Q 2203 -75 1769 -75 
Q 1072 -75 642 372 
Q 213 819 213 1659 
z
M 791 1659 
Q 791 1022 1069 705 
Q 1347 388 1769 388 
Q 2188 388 2466 706 
Q 2744 1025 2744 1678 
Q 2744 2294 2464 2611 
Q 2184 2928 1769 2928 
Q 1347 2928 1069 2612 
Q 791 2297 791 1659 
z
" transform="scale(0.015625)"/>
       <path id="ArialMT-72" d="M 416 0 
L 416 3319 
L 922 3319 
L 922 2816 
Q 1116 3169 1280 3281 
Q 1444 3394 1641 3394 
Q 1925 3394 2219 3213 
L 2025 2691 
Q 1819 2813 1613 2813 
Q 1428 2813 1281 2702 
Q 1134 2591 1072 2394 
Q 978 2094 978 1738 
L 978 0 
L 416 0 
z
" transform="scale(0.015625)"/>
       <path id="ArialMT-78" d="M 47 0 
L 1259 1725 
L 138 3319 
L 841 3319 
L 1350 2541 
Q 1494 2319 1581 2169 
Q 1719 2375 1834 2534 
L 2394 3319 
L 3066 3319 
L 1919 1756 
L 3153 0 
L 2463 0 
L 1781 1031 
L 1600 1309 
L 728 0 
L 47 0 
z
" transform="scale(0.015625)"/>
       <path id="ArialMT-28" d="M 1497 -1347 
Q 1031 -759 709 28 
Q 388 816 388 1659 
Q 388 2403 628 3084 
Q 909 3875 1497 4659 
L 1900 4659 
Q 1522 4009 1400 3731 
Q 1209 3300 1100 2831 
Q 966 2247 966 1656 
Q 966 153 1900 -1347 
L 1497 -1347 
z
" transform="scale(0.015625)"/>
       <path id="ArialMT-29" d="M 791 -1347 
L 388 -1347 
Q 1322 153 1322 1656 
Q 1322 2244 1188 2822 
Q 1081 3291 891 3722 
Q 769 4003 388 4659 
L 791 4659 
Q 1378 3875 1659 3084 
Q 1900 2403 1900 1659 
Q 1900 816 1576 28 
Q 1253 -759 791 -1347 
z
" transform="scale(0.015625)"/>
      </defs>
      <use xlink:href="#ArialMT-53"/>
      <use xlink:href="#ArialMT-65" x="66.699219"/>
      <use xlink:href="#ArialMT-6e" x="122.314453"/>
      <use xlink:href="#ArialMT-73" x="177.929688"/>
      <use xlink:href="#ArialMT-69" x="227.929688"/>
      <use xlink:href="#ArialMT-74" x="250.146484"/>
      <use xlink:href="#ArialMT-69" x="277.929688"/>
      <use xlink:href="#ArialMT-76" x="300.146484"/>
      <use xlink:href="#ArialMT-69" x="350.146484"/>
      <use xlink:href="#ArialMT-74" x="372.363281"/>
      <use xlink:href="#ArialMT-79" x="400.146484"/>
      <use xlink:href="#ArialMT-20" x="450.146484"/>
      <use xlink:href="#ArialMT-69" x="477.929688"/>
      <use xlink:href="#ArialMT-6e" x="500.146484"/>
      <use xlink:href="#ArialMT-64" x="555.761719"/>
      <use xlink:href="#ArialMT-69" x="611.376953"/>
      <use xlink:href="#ArialMT-63" x="633.59375"/>
      <use xlink:href="#ArialMT-65" x="683.59375"/>
      <use xlink:href="#ArialMT-73" x="739.208984"/>
      <use xlink:href="#ArialMT-20" x="789.208984"/>
      <use xlink:href="#ArialMT-66" x="816.992188"/>
      <use xlink:href="#ArialMT-6f" x="844.775391"/>
      <use xlink:href="#ArialMT-72" x="900.390625"/>
      <use xlink:href="#ArialMT-20" x="933.691406"/>
      <use xlink:href="#ArialMT-78" x="961.474609"/>
      <use xlink:href="#ArialMT-28" x="1011.474609"/>
      <use xlink:href="#ArialMT-74" x="1044.775391"/>
      <use xlink:href="#ArialMT-29" x="1072.558594"/>
     </g>
    </g>
   </g>
   <g id="line2d_13">
    <path d="M 56.973727 274.204486 
L 59.901474 274.096424 
L 60.877389 273.890266 
L 61.853305 273.468166 
L 62.503915 273.007224 
L 63.154525 272.351792 
L 63.805136 271.451683 
L 64.455746 270.252361 
L 65.106356 268.697769 
L 66.082271 265.587285 
L 67.058187 261.442144 
L 68.034103 256.294434 
L 70.96185 239.436508 
L 71.61246 236.938433 
L 72.26307 235.361216 
L 72.588375 234.939586 
L 72.91368 234.759999 
L 73.238984 234.812915 
L 73.564289 235.08391 
L 74.214901 236.206359 
L 74.865511 237.965696 
L 75.841426 241.454028 
L 77.142647 247.076305 
L 78.769172 255.075495 
L 80.395698 264.281383 
L 81.69692 272.117142 
L 82.022225 273.549972 
L 82.34753 274.191222 
L 82.672835 273.390911 
L 82.998141 270.272351 
L 83.323444 264.083274 
L 84.299361 236.874562 
L 84.624664 231.995093 
L 84.949971 230.278773 
L 85.275277 230.729232 
L 85.925887 234.590211 
L 87.552411 245.890938 
L 88.528327 251.28548 
L 89.829547 257.147635 
L 91.13077 261.93081 
L 92.43199 265.898647 
L 93.733209 269.218056 
L 95.034429 272.006759 
L 96.010346 273.656746 
L 96.335652 274.024387 
L 96.660956 274.195015 
L 96.986262 274.008976 
L 97.311566 273.135133 
L 97.636872 270.841115 
L 97.962176 265.386997 
L 98.287482 252.449667 
L 98.612789 222.817503 
L 98.938092 176.656335 
L 99.263398 166.986553 
L 99.914008 220.973628 
L 100.239312 236.372554 
L 100.564618 245.861919 
L 101.215228 256.336385 
L 101.865838 261.824394 
L 102.516448 265.193077 
L 103.167058 267.493232 
L 103.817671 269.179667 
L 104.793584 271.012525 
L 105.769501 272.301088 
L 106.745417 273.202576 
L 107.721331 273.796057 
L 108.697247 274.123947 
L 109.673163 274.195987 
L 110.32377 274.083002 
L 110.974383 273.798556 
L 111.624996 273.257495 
L 112.275603 272.274763 
L 112.600907 271.50029 
L 112.926216 270.415848 
L 113.25152 268.854061 
L 113.576823 266.525082 
L 113.902133 262.910211 
L 114.227436 257.078937 
L 114.552739 247.538485 
L 115.203352 219.366222 
L 115.528656 220.324777 
L 116.179263 248.497489 
L 116.504572 257.525418 
L 116.829876 263.05361 
L 117.155179 266.502173 
L 117.805792 270.248243 
L 118.456399 272.059839 
L 119.107012 273.033133 
L 119.757625 273.588651 
L 120.733535 274.015765 
L 121.709452 274.179491 
L 123.010672 274.177421 
L 124.962504 273.926681 
L 129.191474 273.061585 
L 134.396353 271.870604 
L 135.697573 271.343526 
L 136.673489 270.661573 
L 137.324102 269.879946 
L 137.974709 268.486896 
L 138.300019 267.322047 
L 138.625322 265.560329 
L 138.950626 262.785333 
L 139.601239 253.66975 
L 139.926542 254.617893 
L 140.577155 268.629295 
L 140.902458 271.59124 
L 141.227762 272.942992 
L 141.553065 273.581287 
L 141.878375 273.894407 
L 142.528982 274.128294 
L 143.830201 274.178524 
L 149.36039 274.193445 
L 153.914663 274.146176 
L 159.770155 274.037998 
L 161.721988 274.091968 
L 162.047298 273.743776 
L 162.697905 272.02817 
L 164.324428 273.107344 
L 165.625654 273.312464 
L 169.20401 273.495721 
L 173.107664 273.786229 
L 177.661936 274.166793 
L 178.312555 273.902538 
L 178.637853 273.45303 
L 178.963162 272.299327 
L 179.288472 268.78391 
L 179.613769 255.236869 
L 179.939079 231.384554 
L 180.264376 253.309339 
L 180.589685 264.442521 
L 180.914995 268.485488 
L 181.240292 270.338568 
L 181.565602 271.351866 
L 182.216209 272.397146 
L 182.866828 272.924697 
L 183.842732 273.363903 
L 185.469268 273.755344 
L 187.746398 274.049099 
L 190.674147 274.200109 
L 193.276587 274.110731 
L 194.577813 273.900599 
L 195.553729 273.517045 
L 196.204336 272.953617 
L 196.529633 272.450225 
L 196.854943 271.640367 
L 197.180252 270.233514 
L 197.50555 267.563205 
L 197.830859 262.196408 
L 198.156169 253.675531 
L 198.481466 253.040426 
L 199.132085 267.695192 
L 199.457383 270.522056 
L 199.782692 271.951847 
L 200.108002 272.74254 
L 200.758609 273.516077 
L 201.409215 273.855322 
L 202.385132 274.077641 
L 204.011655 274.190235 
L 207.590011 274.153166 
L 218.975699 273.738743 
L 219.951615 273.484853 
L 220.602222 273.040542 
L 220.927532 272.596282 
L 221.578139 271.392756 
L 221.903436 271.972198 
L 222.228745 273.004119 
L 222.554055 273.61525 
L 222.879352 273.904484 
L 223.529971 274.113574 
L 225.156495 274.195021 
L 240.445836 274.195104 
L 241.421752 274.136816 
L 241.747062 274.043658 
L 242.072359 273.789666 
L 242.722966 272.468801 
L 243.698882 273.610803 
L 244.349501 273.839791 
L 245.650715 273.981694 
L 249.554381 274.074127 
L 258.988223 274.125522 
L 259.638842 273.948307 
L 259.96414 273.726724 
L 260.289449 273.25778 
L 260.614759 272.152418 
L 261.265366 266.738404 
L 262.241282 272.395173 
L 262.566592 272.994925 
L 263.217198 273.542504 
L 264.193115 273.853234 
L 265.819638 274.043631 
L 269.397982 274.179269 
L 274.928183 274.171427 
L 277.855933 273.99324 
L 278.831849 273.78082 
L 279.482443 273.446925 
L 279.807765 273.130729 
L 280.133063 272.605452 
L 280.45836 271.720767 
L 280.783682 270.456505 
L 281.108979 269.769104 
L 281.434276 270.761821 
L 281.759598 272.118231 
L 282.084896 272.980068 
L 282.410193 273.45664 
L 283.060812 273.885977 
L 284.036728 274.09668 
L 285.988561 274.191258 
L 293.145274 274.175022 
L 301.277902 274.043764 
L 302.253819 273.848135 
L 303.229735 273.474213 
L 304.530949 274.077975 
L 305.832162 274.176189 
L 312.012958 274.202031 
L 322.09742 274.134124 
L 322.748039 273.971728 
L 323.723955 273.348167 
L 324.699872 273.881911 
L 325.675788 274.049244 
L 328.278216 274.142173 
L 339.338594 274.186999 
L 340.965129 274.081808 
L 341.615748 273.905665 
L 341.941046 273.710911 
L 342.266343 273.36506 
L 342.916962 272.464007 
L 343.242259 272.695164 
L 343.892879 273.510102 
L 344.543473 273.859068 
L 345.519389 274.045217 
L 347.796544 274.160468 
L 354.627935 274.200822 
L 360.80873 274.06926 
L 362.109969 273.826389 
L 363.411182 273.210123 
L 365.363015 274.086534 
L 367.314848 274.185984 
L 375.772774 274.197401 
L 381.628273 274.170214 
L 381.628273 274.170214 
" clip-path="url(#paa0c138e97)" style="fill: none; stroke: #1f77b4; stroke-width: 1.2; stroke-linecap: round"/>
   </g>
   <g id="line2d_14">
    <path d="M 56.973727 274.2045 
L 66.407577 274.097368 
L 67.708797 273.858318 
L 68.684713 273.497616 
L 69.985933 272.721243 
L 72.588375 270.909535 
L 73.564289 270.579661 
L 74.540206 270.534392 
L 75.841426 270.796418 
L 78.118562 271.596411 
L 79.419783 272.189332 
L 80.395698 272.836062 
L 82.022225 274.189468 
L 82.34753 274.098116 
L 82.672835 273.464751 
L 82.998141 271.890172 
L 83.323444 268.976087 
L 84.624664 252.202978 
L 84.949971 250.476141 
L 85.275277 249.788305 
L 85.600581 249.751452 
L 85.925887 250.085474 
L 86.576497 251.26945 
L 87.877717 254.334343 
L 89.829547 259.645772 
L 91.78138 264.853785 
L 93.0826 267.735727 
L 94.709126 270.753871 
L 96.660956 273.981977 
L 96.986262 274.187777 
L 97.311566 273.867298 
L 97.636872 272.302348 
L 97.962176 267.669028 
L 98.287482 255.111934 
L 98.612789 223.16633 
L 98.938092 167.162823 
L 99.263398 146.076484 
L 99.914008 200.651226 
L 100.239312 218.453153 
L 100.889922 237.481201 
L 101.540535 247.00733 
L 102.191145 252.824966 
L 102.841755 256.938554 
L 103.817671 261.552404 
L 104.793584 265.144655 
L 105.769501 268.03215 
L 106.745417 270.298007 
L 107.721331 271.98865 
L 108.697247 273.169779 
L 109.673163 273.906079 
L 110.32377 274.156323 
L 110.974383 274.176616 
L 111.624996 273.861825 
L 111.9503 273.508376 
L 112.275603 272.952577 
L 112.600907 272.0992 
L 112.926216 270.790216 
L 113.25152 268.753929 
L 113.576823 265.503858 
L 113.902133 260.13609 
L 114.227436 250.946669 
L 114.552739 234.962062 
L 115.203352 180.617973 
L 115.528656 175.596552 
L 116.504572 236.868852 
L 116.829876 247.537715 
L 117.480489 259.2664 
L 118.131096 265.088839 
L 118.781709 268.405026 
L 119.432315 270.485677 
L 120.082928 271.871875 
L 120.733535 272.820612 
L 121.384148 273.465279 
L 122.034761 273.881105 
L 123.010672 274.174189 
L 123.986588 274.161923 
L 124.962504 273.926365 
L 126.589028 273.232411 
L 130.492693 271.380433 
L 132.119217 270.873625 
L 133.745746 270.585706 
L 135.372269 270.513553 
L 136.998793 270.658291 
L 138.300019 270.997644 
L 138.950626 271.355932 
L 139.601239 271.918723 
L 139.926542 271.871485 
L 140.577155 271.273207 
L 141.227762 271.252907 
L 142.854291 271.703787 
L 149.685694 273.820805 
L 151.637527 274.130028 
L 153.58936 274.197311 
L 155.541193 274.043894 
L 157.818323 273.623627 
L 159.444852 273.088743 
L 160.420768 272.515355 
L 161.071382 271.821134 
L 161.396679 271.254602 
L 162.047298 269.425233 
L 162.372595 269.667702 
L 162.697905 272.265403 
L 163.023202 273.777236 
L 163.348512 274.086557 
L 163.999118 273.886323 
L 165.625654 273.188288 
L 167.252177 272.713793 
L 168.878701 272.443725 
L 170.505224 272.397402 
L 172.457057 272.605198 
L 175.059496 273.158904 
L 177.011329 273.764486 
L 177.987246 274.087701 
L 178.312555 274.100577 
L 178.637853 273.883935 
L 178.963162 272.934047 
L 179.288472 269.179301 
L 179.613769 251.930129 
L 179.939079 214.141906 
L 180.264376 240.495599 
L 180.589685 256.546764 
L 180.914995 262.810873 
L 181.240292 265.831377 
L 181.565602 267.553063 
L 182.216209 269.423066 
L 182.866828 270.439016 
L 183.842732 271.375501 
L 185.143958 272.214123 
L 187.095791 273.149246 
L 188.722314 273.719985 
L 190.348837 274.073969 
L 191.975361 274.200897 
L 193.276587 274.122169 
L 194.252503 273.902568 
L 194.90311 273.612048 
L 195.553729 273.086819 
L 195.879026 272.660467 
L 196.204336 272.03907 
L 196.529633 271.089883 
L 196.854943 269.5496 
L 197.180252 266.851976 
L 197.50555 261.689739 
L 197.830859 251.2192 
L 198.156169 234.357929 
L 198.481466 232.618624 
L 199.132085 261.163151 
L 199.457383 266.775285 
L 199.782692 269.637964 
L 200.108002 271.234025 
L 200.758609 272.81298 
L 201.409215 273.515835 
L 202.059822 273.871095 
L 203.035739 274.116941 
L 204.336965 274.199546 
L 206.288798 274.081829 
L 214.096117 273.29957 
L 217.023866 273.389109 
L 220.927532 273.55022 
L 221.252829 273.304417 
L 221.903436 272.504731 
L 223.855269 273.483226 
L 225.807101 273.776221 
L 229.710767 274.095884 
L 233.614421 274.203002 
L 237.518086 274.083001 
L 240.445836 273.807719 
L 241.421752 273.534771 
L 242.072359 273.038938 
L 242.397668 272.671182 
L 242.722966 272.984149 
L 243.048275 273.729804 
L 243.373585 274.000824 
L 244.024192 274.040718 
L 249.554381 273.683118 
L 252.807427 273.748205 
L 259.638842 274.024699 
L 259.96414 273.783734 
L 260.289449 273.178785 
L 260.614759 271.55466 
L 261.265366 261.548951 
L 261.590675 264.108357 
L 261.915972 268.008539 
L 262.241282 270.131255 
L 262.566592 271.271488 
L 263.217198 272.378373 
L 263.867805 272.899229 
L 264.843722 273.315073 
L 266.470257 273.688468 
L 269.072685 274.032734 
L 272.000434 274.197214 
L 274.928183 274.127824 
L 277.205313 273.868274 
L 278.18123 273.602792 
L 278.831849 273.269064 
L 279.482443 272.609373 
L 279.807765 272.005181 
L 280.133063 271.027996 
L 280.45836 269.435469 
L 280.783682 267.275659 
L 281.108979 266.345948 
L 282.084896 272.364317 
L 282.410193 273.158583 
L 282.735515 273.588911 
L 283.386109 273.978781 
L 284.362026 274.157374 
L 286.313858 274.186077 
L 298.024856 274.015237 
L 302.579116 274.035368 
L 303.555032 273.830549 
L 305.506865 274.079823 
L 309.735828 274.187845 
L 317.868457 274.166506 
L 323.073336 274.005395 
L 323.723955 273.897318 
L 325.675788 274.026785 
L 341.290426 273.999039 
L 341.615748 273.836273 
L 341.941046 273.528272 
L 342.266343 272.942392 
L 342.916962 271.147326 
L 343.242259 271.372652 
L 343.892879 272.743746 
L 344.543473 273.404074 
L 345.194092 273.69895 
L 346.495306 273.95067 
L 349.097758 274.128621 
L 353.652018 274.200055 
L 359.18222 274.052959 
L 361.134052 273.84382 
L 362.109969 273.52092 
L 363.085885 272.8462 
L 363.411182 272.865017 
L 364.387099 273.826686 
L 365.037718 274.075018 
L 366.338932 274.185985 
L 371.218514 274.164077 
L 381.628273 274.180432 
L 381.628273 274.180432 
" clip-path="url(#paa0c138e97)" style="fill: none; stroke: #ff7f0e; stroke-width: 1.2; stroke-linecap: round"/>
   </g>
   <g id="line2d_15">
    <path d="M 56.973727 32.2845 
L 58.600253 32.380591 
L 59.576169 32.698279 
L 60.226779 33.175634 
L 60.877389 34.001577 
L 61.528 35.325942 
L 62.17861 37.333094 
L 62.82922 40.243521 
L 63.47983 44.31298 
L 64.130441 49.829642 
L 64.781051 57.107923 
L 65.431662 66.469332 
L 66.082271 78.216258 
L 67.058187 100.793311 
L 68.034103 129.390263 
L 69.660628 186.404328 
L 70.96185 230.636497 
L 71.937765 255.684249 
L 72.588375 266.642017 
L 73.238984 272.692939 
L 73.564289 273.960586 
L 73.889596 274.149888 
L 74.214901 273.35051 
L 74.540206 271.659791 
L 75.190816 265.99741 
L 75.841426 257.894744 
L 76.817342 242.3805 
L 78.118562 216.823518 
L 79.094478 193.683352 
L 80.070393 165.31458 
L 81.046308 128.404033 
L 82.022225 80.161695 
L 82.672835 49.304559 
L 82.998141 43.103249 
L 83.323444 51.365222 
L 83.648751 79.056275 
L 84.949971 243.64865 
L 85.275277 261.294458 
L 85.600581 270.355901 
L 85.925887 273.827056 
L 86.251191 273.888811 
L 86.576497 271.964429 
L 87.227107 265.357072 
L 88.853633 247.01249 
L 89.829547 238.397391 
L 90.805463 232.080254 
L 91.456073 229.049879 
L 92.106683 226.830776 
L 92.757293 225.282125 
L 93.407906 224.257421 
L 94.058516 223.618774 
L 94.709126 223.24591 
L 95.685042 222.982756 
L 96.660956 222.958669 
L 96.986262 223.064273 
L 97.311566 223.3473 
L 97.636872 224.053195 
L 97.962176 225.824532 
L 98.287482 230.422592 
L 98.612789 242.172601 
L 98.938092 263.500991 
L 99.263398 273.131066 
L 100.239312 249.365474 
L 100.564618 245.780779 
L 100.889922 243.614408 
L 101.215228 242.323543 
L 101.540535 241.60599 
L 101.865838 241.288839 
L 102.191145 241.269001 
L 102.516448 241.482297 
L 103.167058 242.454796 
L 103.817671 244.000581 
L 104.793584 247.127337 
L 106.094807 252.25505 
L 108.697247 262.836519 
L 109.998467 267.319426 
L 111.299687 271.108236 
L 112.275603 273.347949 
L 112.600907 273.866095 
L 112.926216 274.154563 
L 113.25152 274.048571 
L 113.576823 273.226795 
L 113.902133 271.038398 
L 114.227436 266.131107 
L 114.552739 255.79804 
L 114.878043 236.081458 
L 115.203352 209.036615 
L 115.528656 195.438936 
L 115.853959 205.131573 
L 116.504572 234.617842 
L 117.155179 250.5667 
L 117.805792 258.926561 
L 118.456399 263.914063 
L 119.107012 267.214234 
L 119.757625 269.546922 
L 120.408232 271.249348 
L 121.058845 272.490657 
L 121.709452 273.360264 
L 122.360065 273.90908 
L 123.010672 274.170718 
L 123.661285 274.173261 
L 124.311891 273.945574 
L 124.962504 273.520142 
L 125.938421 272.592105 
L 127.564944 270.606886 
L 129.516777 268.23316 
L 130.817997 267.037148 
L 131.793913 266.468393 
L 132.444526 266.277534 
L 133.095133 266.255726 
L 133.745746 266.419556 
L 134.396353 266.787919 
L 135.046966 267.383372 
L 135.697573 268.23212 
L 136.673489 270.025979 
L 137.974709 272.754242 
L 138.300019 272.697189 
L 138.625322 271.105907 
L 138.950626 265.5007 
L 139.275929 249.587186 
L 139.926542 169.414535 
L 140.251845 166.663544 
L 140.902458 207.019484 
L 141.553065 229.270644 
L 142.203678 240.507062 
L 142.854291 247.20368 
L 143.504898 251.772726 
L 144.480815 256.671488 
L 145.456731 260.374308 
L 146.757951 264.355021 
L 148.059171 267.652955 
L 149.36039 270.371161 
L 150.336307 271.993858 
L 151.312223 273.203442 
L 151.96283 273.754963 
L 152.613443 274.089027 
L 153.264056 274.198715 
L 153.914663 274.08104 
L 154.565276 273.735119 
L 155.215883 273.158802 
L 155.866496 272.343459 
L 156.517103 271.266387 
L 157.167716 269.878774 
L 157.818323 268.084786 
L 158.468936 265.699588 
L 159.119549 262.35478 
L 159.770155 257.253046 
L 160.095459 253.518291 
L 160.420768 248.41692 
L 160.746072 241.079938 
L 161.071382 229.830867 
L 161.396679 211.214889 
L 161.721988 178.018846 
L 162.372595 71.835528 
L 163.348512 247.315636 
L 163.673821 262.268049 
L 163.999118 268.906929 
L 164.324428 271.993396 
L 164.649738 273.417515 
L 164.975035 274.000359 
L 165.300344 274.130367 
L 165.625654 274.004897 
L 166.276261 273.367389 
L 167.577475 271.573815 
L 169.529307 268.930229 
L 170.830533 267.567021 
L 171.80645 266.836688 
L 172.782366 266.362898 
L 173.758283 266.119207 
L 175.059496 266.078886 
L 176.360722 266.278045 
L 177.661936 266.676458 
L 178.637853 267.151865 
L 179.288472 267.450392 
L 179.613769 266.564626 
L 179.939079 262.159762 
L 180.264376 263.24918 
L 180.589685 264.854139 
L 180.914995 265.668184 
L 181.565602 266.507714 
L 182.541518 267.257345 
L 185.469268 269.31949 
L 190.348837 273.144564 
L 191.650063 273.77605 
L 192.951277 274.136689 
L 193.927194 274.194843 
L 194.577813 274.088748 
L 195.22842 273.788894 
L 195.879026 273.11691 
L 196.204336 272.509241 
L 196.529633 271.557906 
L 196.854943 269.988874 
L 197.180252 267.210943 
L 197.50555 261.854052 
L 197.830859 250.918442 
L 198.156169 233.160379 
L 198.481466 231.043773 
L 199.132085 260.828625 
L 199.457383 266.738105 
L 199.782692 269.756949 
L 200.108002 271.437037 
L 200.433299 272.443025 
L 201.083906 273.495549 
L 201.734525 273.959598 
L 202.385132 274.154035 
L 203.361048 274.184791 
L 204.662262 273.953342 
L 206.288798 273.411211 
L 210.517761 271.834058 
L 211.818987 271.611943 
L 213.1202 271.593974 
L 214.421426 271.779047 
L 216.04795 272.267828 
L 217.999782 273.156364 
L 219.300996 273.682028 
L 219.626306 273.657684 
L 219.951615 273.41782 
L 220.276912 272.717366 
L 220.602222 270.981688 
L 220.927532 266.816148 
L 221.252829 257.289439 
L 221.578139 241.550706 
L 221.903436 234.636111 
L 222.879352 257.133145 
L 223.529971 263.493772 
L 224.180578 266.60097 
L 224.831185 268.422206 
L 225.481792 269.642089 
L 226.457708 270.913549 
L 227.433625 271.834133 
L 228.734851 272.761657 
L 230.036064 273.450738 
L 231.33729 273.922836 
L 232.638517 274.165833 
L 233.93973 274.168404 
L 235.240956 273.930353 
L 236.54217 273.445589 
L 237.518086 272.886369 
L 238.494003 272.067371 
L 239.14461 271.269227 
L 239.795229 270.085428 
L 240.445836 268.108165 
L 240.771145 266.518328 
L 241.096442 264.14453 
L 241.421752 260.315751 
L 241.747062 253.532699 
L 242.072359 240.455841 
L 242.397668 218.376784 
L 242.722966 216.189321 
L 243.048275 245.79721 
L 243.373585 262.67319 
L 243.698882 269.272146 
L 244.024192 271.993796 
L 244.349501 273.206818 
L 244.674799 273.764759 
L 245.000108 274.009236 
L 245.650715 274.085972 
L 246.626631 273.840326 
L 251.180904 272.357472 
L 252.807427 272.128273 
L 254.433963 272.104068 
L 256.385783 272.28529 
L 258.662926 272.70711 
L 259.96414 272.981599 
L 260.289449 272.927102 
L 260.614759 272.515426 
L 260.940056 270.898597 
L 261.265366 267.929292 
L 261.590675 268.148424 
L 261.915972 269.650734 
L 262.241282 270.625764 
L 262.891889 271.593074 
L 263.542496 272.067665 
L 264.843722 272.603868 
L 267.446174 273.317587 
L 270.373898 273.940123 
L 272.651053 274.180983 
L 274.928183 274.15927 
L 276.880016 273.92391 
L 278.18123 273.561809 
L 278.831849 273.220863 
L 279.482443 272.602188 
L 279.807765 272.072835 
L 280.133063 271.263596 
L 280.783682 268.567821 
L 281.108979 268.35581 
L 281.759598 272.266778 
L 282.084896 273.304328 
L 282.410193 273.790171 
L 283.060812 274.11156 
L 284.036728 274.133513 
L 286.964478 273.78603 
L 290.542821 273.424953 
L 293.145274 273.403605 
L 295.747701 273.619108 
L 300.301986 274.105324 
L 300.952605 273.989142 
L 301.277902 273.82128 
L 301.603199 273.49901 
L 301.928521 272.883689 
L 302.253819 271.694516 
L 302.579116 269.425458 
L 303.229735 262.364985 
L 303.555032 262.771909 
L 304.205652 267.845418 
L 304.856246 270.605286 
L 305.506865 271.904804 
L 306.157484 272.615085 
L 307.133401 273.222057 
L 308.434614 273.673963 
L 310.06115 273.993012 
L 312.33828 274.188557 
L 314.61541 274.154278 
L 317.217862 273.877508 
L 319.16967 273.478011 
L 320.470909 272.981895 
L 321.121503 272.539735 
L 321.772123 271.761787 
L 322.09742 271.10969 
L 322.422742 270.1174 
L 322.748039 268.558321 
L 323.398658 264.471916 
L 323.723955 266.279496 
L 324.049253 269.912692 
L 324.374575 272.173385 
L 324.699872 273.238727 
L 325.025169 273.727812 
L 325.675788 274.056968 
L 326.651705 274.090877 
L 334.459036 273.65924 
L 338.687999 273.871599 
L 341.615748 273.988235 
L 341.941046 273.902184 
L 342.266343 273.68179 
L 342.916962 272.691155 
L 343.242259 272.601034 
L 344.218176 273.355405 
L 345.194092 273.691385 
L 346.820628 273.922944 
L 350.398972 274.148959 
L 354.302637 274.19599 
L 359.832839 274.002921 
L 362.109969 273.753537 
L 363.085885 273.549349 
L 363.73648 273.767169 
L 364.387099 273.988125 
L 365.688313 274.034829 
L 373.495644 273.967095 
L 381.628273 274.140687 
L 381.628273 274.140687 
" clip-path="url(#paa0c138e97)" style="fill: none; stroke: #2ca02c; stroke-width: 1.2; stroke-linecap: round"/>
   </g>
   <g id="line2d_16">
    <path d="M 56.973727 274.203771 
L 61.202694 274.074586 
L 69.335323 273.675382 
L 71.937765 273.953914 
L 74.540206 274.192812 
L 76.492037 274.162932 
L 78.443867 273.938959 
L 80.070393 273.553038 
L 81.046308 273.158652 
L 82.022225 272.546098 
L 82.998141 271.816588 
L 83.323444 271.72996 
L 83.648751 271.857052 
L 84.299361 272.708342 
L 84.949971 273.584724 
L 85.600581 274.032967 
L 86.251191 274.186367 
L 87.552411 274.145034 
L 90.805463 273.643368 
L 97.636872 272.467431 
L 98.287482 272.211416 
L 98.612789 272.272869 
L 98.938092 272.95985 
L 99.263398 273.937354 
L 99.588702 274.183865 
L 101.865838 273.361976 
L 103.817671 273.116762 
L 106.094807 273.034089 
L 108.697247 273.161161 
L 111.624996 273.533953 
L 113.25152 273.917081 
L 114.227436 274.174776 
L 114.552739 274.102331 
L 114.878043 273.661663 
L 115.528656 271.377556 
L 115.853959 270.949056 
L 116.179263 271.113522 
L 117.155179 271.944484 
L 118.131096 272.415406 
L 119.757625 272.841459 
L 123.335981 273.426395 
L 128.215557 274.037009 
L 131.46861 274.202068 
L 134.07105 274.102764 
L 135.697573 273.818066 
L 136.673489 273.420065 
L 137.324102 272.910539 
L 137.649406 272.504261 
L 137.974709 271.916094 
L 138.300019 271.021679 
L 138.625322 269.581579 
L 138.950626 267.127489 
L 139.275929 262.88442 
L 139.601239 256.914075 
L 139.926542 254.806551 
L 140.577155 266.344246 
L 140.902458 269.720085 
L 141.227762 271.521464 
L 141.553065 272.524453 
L 142.203678 273.484934 
L 142.854291 273.88277 
L 143.830201 274.117991 
L 145.456731 274.203137 
L 149.685694 274.08841 
L 154.890579 274.03057 
L 161.721988 274.137428 
L 162.047298 273.936143 
L 162.372595 273.487343 
L 162.697905 273.302461 
L 163.673821 273.815099 
L 164.975035 274.018556 
L 168.228094 274.162787 
L 173.758283 274.184761 
L 177.661936 274.003485 
L 178.637853 273.757881 
L 178.963162 273.532613 
L 179.288472 273.023888 
L 179.939079 270.559698 
L 180.264376 273.127646 
L 180.589685 273.917195 
L 180.914995 274.117847 
L 181.890911 274.20142 
L 197.830859 274.011559 
L 198.481466 273.264773 
L 198.806776 273.334186 
L 199.457383 273.647131 
L 200.433299 273.830158 
L 203.035739 273.975063 
L 213.1202 274.202559 
L 218.650389 274.113248 
L 219.951615 273.952252 
L 220.602222 273.702383 
L 220.927532 273.440323 
L 221.578139 272.607149 
L 221.903436 272.82944 
L 222.554055 273.787462 
L 223.204662 274.0797 
L 224.505888 274.192265 
L 229.710767 274.182004 
L 242.072359 274.111962 
L 242.722966 273.768247 
L 244.024192 274.099339 
L 246.626631 274.181409 
L 256.385783 274.175862 
L 259.96414 274.039448 
L 260.614759 273.857931 
L 260.940056 273.66035 
L 261.265366 273.621467 
L 261.915972 274.111195 
L 262.891889 274.197825 
L 280.133063 274.157808 
L 280.783682 274.004276 
L 281.434276 273.853341 
L 283.060812 274.081097 
L 286.964478 274.165157 
L 299.976689 274.185835 
L 308.759912 274.200076 
L 377.724607 274.203824 
L 381.628273 274.200399 
L 381.628273 274.200399 
" clip-path="url(#paa0c138e97)" style="fill: none; stroke: #d62728; stroke-width: 1.2; stroke-linecap: round"/>
   </g>
   <g id="line2d_17">
    <path d="M 56.973727 274.204419 
L 58.925558 274.100658 
L 59.576169 273.917159 
L 60.226779 273.553816 
L 60.877389 272.914261 
L 61.528 271.876405 
L 62.17861 270.290561 
L 62.82922 267.977706 
L 63.47983 264.72924 
L 64.130441 260.309402 
L 64.781051 254.461707 
L 65.431662 246.9225 
L 66.082271 237.443404 
L 67.058187 219.187007 
L 68.034103 196.009375 
L 69.660628 149.599116 
L 70.96185 113.213883 
L 71.937765 92.159592 
L 72.588375 82.585309 
L 73.238984 76.847107 
L 73.564289 75.358174 
L 73.889596 74.71961 
L 74.214901 74.864237 
L 74.540206 75.718226 
L 74.865511 77.206871 
L 75.516121 81.804253 
L 76.166732 88.15489 
L 77.142647 100.224826 
L 78.118562 114.966475 
L 79.094478 132.812911 
L 80.070393 155.355191 
L 80.721003 174.518997 
L 81.371615 198.610967 
L 82.34753 245.246511 
L 82.998141 271.949312 
L 83.323444 272.824724 
L 83.648751 258.268389 
L 84.299361 191.552842 
L 84.949971 130.919974 
L 85.275277 113.268013 
L 85.600581 102.444563 
L 85.925887 96.356172 
L 86.251191 93.336215 
L 86.576497 92.225085 
L 86.901801 92.260167 
L 87.227107 92.949357 
L 89.178937 99.118483 
L 89.829547 100.121338 
L 90.154853 100.336648 
L 90.480157 100.368486 
L 90.805463 100.227998 
L 91.456073 99.48847 
L 92.106683 98.248733 
L 93.0826 95.741227 
L 94.709126 90.699872 
L 96.010346 86.65135 
L 96.660956 85.27558 
L 96.986262 85.221421 
L 97.311566 86.202676 
L 97.636872 89.411642 
L 97.962176 97.729908 
L 98.287482 118.449453 
L 98.612789 167.563084 
L 98.938092 246.758202 
L 99.263398 266.800582 
L 99.914008 177.182153 
L 100.239312 150.421325 
L 100.889922 122.056612 
L 101.540535 107.455105 
L 102.191145 97.94147 
L 103.167058 87.329307 
L 104.793584 72.778211 
L 106.420111 59.922634 
L 107.721331 51.215808 
L 108.697247 45.846858 
L 109.673163 41.521369 
L 110.64908 38.300578 
L 111.299687 36.921233 
L 111.624996 36.559435 
L 111.9503 36.508722 
L 112.275603 36.892307 
L 112.600907 37.912696 
L 112.926216 39.912264 
L 113.25152 43.490482 
L 113.576823 49.740617 
L 113.902133 60.733509 
L 114.227436 80.466291 
L 114.552739 116.17188 
L 115.203352 246.273393 
L 115.528656 265.142814 
L 116.504572 128.318973 
L 117.155179 85.437741 
L 117.805792 64.975063 
L 118.456399 53.6525 
L 119.107012 46.622853 
L 119.757625 41.914095 
L 120.408232 38.626183 
L 121.058845 36.310008 
L 121.709452 34.724797 
L 122.360065 33.730737 
L 123.010672 33.236772 
L 123.661285 33.173687 
L 124.311891 33.479638 
L 124.962504 34.093573 
L 125.938421 35.455933 
L 127.239641 37.771127 
L 129.84208 42.499321 
L 130.817997 43.895898 
L 131.793913 44.952668 
L 132.76983 45.617359 
L 133.420437 45.823629 
L 134.07105 45.830045 
L 134.721663 45.630437 
L 135.372269 45.223998 
L 136.348186 44.269073 
L 137.324102 43.264011 
L 137.649406 43.193039 
L 137.974709 43.582348 
L 138.300019 44.981622 
L 138.625322 48.647092 
L 138.950626 57.598543 
L 139.275929 78.841585 
L 139.926542 164.980316 
L 140.251845 158.340346 
L 140.902458 106.343989 
L 141.553065 81.171126 
L 142.203678 69.011069 
L 142.854291 61.889916 
L 143.504898 57.044766 
L 144.480815 51.80957 
L 145.456731 47.791286 
L 146.757951 43.400433 
L 148.059171 39.721034 
L 149.36039 36.681121 
L 150.336307 34.875364 
L 151.312223 33.543905 
L 151.96283 32.947706 
L 152.613443 32.598237 
L 153.264056 32.50118 
L 153.914663 32.657141 
L 154.565276 33.064258 
L 155.215883 33.721653 
L 155.866496 34.635454 
L 156.517103 35.826641 
L 157.167716 37.343663 
L 157.818323 39.283852 
L 158.468936 41.836187 
L 159.119549 45.377867 
L 159.770155 50.724308 
L 160.095459 54.610482 
L 160.420768 59.89417 
L 160.746072 67.460406 
L 161.071382 79.014502 
L 161.396679 98.064006 
L 161.721988 131.909535 
L 162.372595 239.152013 
L 163.348512 60.533007 
L 163.673821 45.56705 
L 163.999118 39.005312 
L 164.324428 36.021865 
L 164.649738 34.706023 
L 164.975035 34.229591 
L 165.300344 34.20169 
L 165.625654 34.423835 
L 166.276261 35.236714 
L 169.529307 40.087373 
L 170.505224 41.089248 
L 171.48114 41.762677 
L 172.457057 42.109406 
L 173.432973 42.166233 
L 174.40889 41.986265 
L 175.710103 41.459423 
L 177.011329 40.670407 
L 177.987246 40.063278 
L 178.312555 40.027807 
L 178.637853 40.380419 
L 178.963162 41.945616 
L 179.288472 48.068888 
L 179.613769 75.772832 
L 179.939079 134.970544 
L 180.264376 92.08761 
L 180.589685 66.534522 
L 180.914995 56.580418 
L 181.240292 51.748432 
L 181.565602 48.953605 
L 182.216209 45.809238 
L 182.866828 43.968933 
L 183.842732 42.060957 
L 185.469268 39.553221 
L 187.746398 36.40434 
L 189.047624 34.878868 
L 190.348837 33.704912 
L 191.324754 33.099946 
L 192.30067 32.752568 
L 193.276587 32.701221 
L 193.927194 32.88279 
L 194.577813 33.325826 
L 195.22842 34.211538 
L 195.553729 34.938478 
L 195.879026 35.980857 
L 196.204336 37.521339 
L 196.529633 39.896734 
L 196.854943 43.776434 
L 197.180252 50.601397 
L 197.50555 63.705017 
L 197.830859 90.360252 
L 198.156169 133.453219 
L 198.481466 138.22731 
L 199.132085 65.595747 
L 199.457383 51.252001 
L 199.782692 43.928183 
L 200.108002 39.845891 
L 200.433299 37.38995 
L 201.083906 34.778682 
L 201.734525 33.560632 
L 202.385132 32.963539 
L 203.035739 32.694559 
L 204.011655 32.642361 
L 204.987572 32.850346 
L 206.288798 33.377664 
L 211.168367 35.723326 
L 212.469593 35.960799 
L 213.770807 35.94005 
L 215.072033 35.672858 
L 216.373259 35.18381 
L 217.999782 34.3061 
L 219.300996 33.582333 
L 219.626306 33.52317 
L 219.951615 33.650465 
L 220.276912 34.189635 
L 220.602222 35.677011 
L 220.927532 39.435472 
L 221.252829 48.314206 
L 221.578139 63.416311 
L 221.903436 70.611205 
L 222.879352 49.709514 
L 223.529971 43.517086 
L 224.180578 40.423273 
L 224.831185 38.56875 
L 225.481792 37.299035 
L 226.457708 35.943756 
L 227.433625 34.940237 
L 228.734851 33.913979 
L 230.036064 33.146708 
L 231.33729 32.6219 
L 232.638517 32.353742 
L 233.93973 32.352588 
L 235.240956 32.614748 
L 236.54217 33.142267 
L 237.518086 33.744883 
L 238.494003 34.618511 
L 239.14461 35.461268 
L 239.795229 36.69913 
L 240.445836 38.744624 
L 240.771145 40.376626 
L 241.096442 42.80037 
L 241.421752 46.689427 
L 241.747062 53.543489 
L 242.072359 66.682883 
L 242.397668 88.681141 
L 242.722966 90.432306 
L 243.048275 60.628348 
L 243.373585 43.832006 
L 243.698882 37.334392 
L 244.024192 34.694992 
L 244.349501 33.547611 
L 244.674799 33.04384 
L 245.000108 32.845674 
L 245.650715 32.845516 
L 246.626631 33.180089 
L 249.87969 34.462465 
L 251.506214 34.824824 
L 253.132737 34.922645 
L 254.75926 34.789223 
L 257.036403 34.33938 
L 259.313533 33.79401 
L 259.638842 33.826655 
L 259.96414 34.046522 
L 260.289449 34.770477 
L 260.614759 36.990806 
L 260.940056 43.490641 
L 261.265366 52.871992 
L 261.590675 49.854429 
L 261.915972 43.982285 
L 262.241282 40.616133 
L 262.566592 38.74099 
L 263.217198 36.833058 
L 263.867805 35.866987 
L 264.843722 35.014641 
L 266.144935 34.268783 
L 268.096768 33.428766 
L 270.048601 32.801162 
L 271.675137 32.488232 
L 273.301648 32.397591 
L 274.928183 32.527914 
L 276.229397 32.810433 
L 277.205313 33.184516 
L 277.855933 33.577099 
L 278.506527 34.194451 
L 279.157146 35.288062 
L 279.482443 36.200882 
L 279.807765 37.584554 
L 280.133063 39.782259 
L 281.108979 49.506835 
L 282.084896 36.023524 
L 282.410193 34.383201 
L 282.735515 33.528231 
L 283.060812 33.066435 
L 283.711431 32.671301 
L 284.687348 32.563213 
L 286.313858 32.714083 
L 291.518738 33.336987 
L 293.795893 33.323058 
L 296.39832 33.045008 
L 300.627283 32.487713 
L 301.277902 32.666355 
L 301.603199 32.937959 
L 301.928521 33.48666 
L 302.253819 34.587322 
L 302.579116 36.747796 
L 303.229735 43.798265 
L 303.555032 43.60914 
L 304.205652 38.780701 
L 304.856246 36.047503 
L 305.506865 34.729526 
L 306.157484 33.994122 
L 307.133401 33.352012 
L 308.434614 32.863886 
L 310.06115 32.51658 
L 312.012958 32.321154 
L 314.290113 32.32969 
L 316.89254 32.594013 
L 318.844373 32.972378 
L 320.145587 33.405609 
L 320.796206 33.759547 
L 321.446825 34.329604 
L 321.772123 34.772251 
L 322.09742 35.408377 
L 322.422742 36.370483 
L 322.748039 37.873057 
L 323.398658 41.756852 
L 323.723955 39.983525 
L 324.049253 36.49661 
L 324.374575 34.347571 
L 324.699872 33.346504 
L 325.025169 32.895306 
L 325.675788 32.60761 
L 326.651705 32.605245 
L 332.507203 33.030373 
L 335.434953 32.926683 
L 340.965129 32.664019 
L 341.615748 32.953157 
L 341.941046 33.365379 
L 342.266343 34.212735 
L 342.916962 37.175331 
L 343.242259 37.057626 
L 343.892879 35.046422 
L 344.543473 33.969018 
L 345.194092 33.451563 
L 346.170009 33.051785 
L 347.796544 32.713376 
L 350.398972 32.435731 
L 353.326721 32.338977 
L 356.579767 32.459292 
L 359.832839 32.780931 
L 361.134052 33.076716 
L 361.784647 33.365422 
L 362.435266 33.880007 
L 363.085885 34.504685 
L 363.411182 34.397678 
L 364.387099 32.951455 
L 365.037718 32.639203 
L 366.013635 32.545188 
L 370.567895 32.61681 
L 375.12218 32.538829 
L 381.628273 32.339669 
L 381.628273 32.339669 
" clip-path="url(#paa0c138e97)" style="fill: none; stroke: #9467bd; stroke-width: 1.2; stroke-linecap: round"/>
   </g>
   <g id="patch_3">
    <path d="M 40.741 274.2045 
L 40.741 32.287038 
" style="fill: none; stroke: #262626; stroke-linejoin: miter; stroke-linecap: square"/>
   </g>
   <g id="patch_4">
    <path d="M 56.648422 286.3005 
L 381.628273 286.3005 
" style="fill: none; stroke: #262626; stroke-linejoin: miter; stroke-linecap: square"/>
   </g>
   <g id="text_15">
    <!-- Total Sobol Indices for x(t) -->
    <g style="fill: #262626" transform="translate(163.816 14.1885) scale(0.096 -0.096)">
     <defs>
      <path id="ArialMT-54" d="M 1659 0 
L 1659 4041 
L 150 4041 
L 150 4581 
L 3781 4581 
L 3781 4041 
L 2266 4041 
L 2266 0 
L 1659 0 
z
" transform="scale(0.015625)"/>
      <path id="ArialMT-61" d="M 2588 409 
Q 2275 144 1986 34 
Q 1697 -75 1366 -75 
Q 819 -75 525 192 
Q 231 459 231 875 
Q 231 1119 342 1320 
Q 453 1522 633 1644 
Q 813 1766 1038 1828 
Q 1203 1872 1538 1913 
Q 2219 1994 2541 2106 
Q 2544 2222 2544 2253 
Q 2544 2597 2384 2738 
Q 2169 2928 1744 2928 
Q 1347 2928 1158 2789 
Q 969 2650 878 2297 
L 328 2372 
Q 403 2725 575 2942 
Q 747 3159 1072 3276 
Q 1397 3394 1825 3394 
Q 2250 3394 2515 3294 
Q 2781 3194 2906 3042 
Q 3031 2891 3081 2659 
Q 3109 2516 3109 2141 
L 3109 1391 
Q 3109 606 3145 398 
Q 3181 191 3288 0 
L 2700 0 
Q 2613 175 2588 409 
z
M 2541 1666 
Q 2234 1541 1622 1453 
Q 1275 1403 1131 1340 
Q 988 1278 909 1158 
Q 831 1038 831 891 
Q 831 666 1001 516 
Q 1172 366 1500 366 
Q 1825 366 2078 508 
Q 2331 650 2450 897 
Q 2541 1088 2541 1459 
L 2541 1666 
z
" transform="scale(0.015625)"/>
      <path id="ArialMT-6c" d="M 409 0 
L 409 4581 
L 972 4581 
L 972 0 
L 409 0 
z
" transform="scale(0.015625)"/>
      <path id="ArialMT-62" d="M 941 0 
L 419 0 
L 419 4581 
L 981 4581 
L 981 2947 
Q 1338 3394 1891 3394 
Q 2197 3394 2470 3270 
Q 2744 3147 2920 2923 
Q 3097 2700 3197 2384 
Q 3297 2069 3297 1709 
Q 3297 856 2875 390 
Q 2453 -75 1863 -75 
Q 1275 -75 941 416 
L 941 0 
z
M 934 1684 
Q 934 1088 1097 822 
Q 1363 388 1816 388 
Q 2184 388 2453 708 
Q 2722 1028 2722 1663 
Q 2722 2313 2464 2622 
Q 2206 2931 1841 2931 
Q 1472 2931 1203 2611 
Q 934 2291 934 1684 
z
" transform="scale(0.015625)"/>
      <path id="ArialMT-49" d="M 597 0 
L 597 4581 
L 1203 4581 
L 1203 0 
L 597 0 
z
" transform="scale(0.015625)"/>
     </defs>
     <use xlink:href="#ArialMT-54"/>
     <use xlink:href="#ArialMT-6f" x="49.958984"/>
     <use xlink:href="#ArialMT-74" x="105.574219"/>
     <use xlink:href="#ArialMT-61" x="133.357422"/>
     <use xlink:href="#ArialMT-6c" x="188.972656"/>
     <use xlink:href="#ArialMT-20" x="211.189453"/>
     <use xlink:href="#ArialMT-53" x="238.972656"/>
     <use xlink:href="#ArialMT-6f" x="305.671875"/>
     <use xlink:href="#ArialMT-62" x="361.287109"/>
     <use xlink:href="#ArialMT-6f" x="416.902344"/>
     <use xlink:href="#ArialMT-6c" x="472.517578"/>
     <use xlink:href="#ArialMT-20" x="494.734375"/>
     <use xlink:href="#ArialMT-49" x="522.517578"/>
     <use xlink:href="#ArialMT-6e" x="550.300781"/>
     <use xlink:href="#ArialMT-64" x="605.916016"/>
     <use xlink:href="#ArialMT-69" x="661.53125"/>
     <use xlink:href="#ArialMT-63" x="683.748047"/>
     <use xlink:href="#ArialMT-65" x="733.748047"/>
     <use xlink:href="#ArialMT-73" x="789.363281"/>
     <use xlink:href="#ArialMT-20" x="839.363281"/>
     <use xlink:href="#ArialMT-66" x="867.146484"/>
     <use xlink:href="#ArialMT-6f" x="894.929688"/>
     <use xlink:href="#ArialMT-72" x="950.544922"/>
     <use xlink:href="#ArialMT-20" x="983.845703"/>
     <use xlink:href="#ArialMT-78" x="1011.628906"/>
     <use xlink:href="#ArialMT-28" x="1061.628906"/>
     <use xlink:href="#ArialMT-74" x="1094.929688"/>
     <use xlink:href="#ArialMT-29" x="1122.712891"/>
    </g>
   </g>
   <g id="legend_1">
    <g id="line2d_18">
     <path d="M 335.959875 127.440562 
L 344.759875 127.440562 
L 353.559875 127.440562 
" style="fill: none; stroke: #1f77b4; stroke-width: 1.2; stroke-linecap: round"/>
    </g>
    <g id="text_16">
     <!-- alpha -->
     <g style="fill: #262626" transform="translate(360.599875 130.520562) scale(0.088 -0.088)">
      <defs>
       <path id="ArialMT-70" d="M 422 -1272 
L 422 3319 
L 934 3319 
L 934 2888 
Q 1116 3141 1344 3267 
Q 1572 3394 1897 3394 
Q 2322 3394 2647 3175 
Q 2972 2956 3137 2557 
Q 3303 2159 3303 1684 
Q 3303 1175 3120 767 
Q 2938 359 2589 142 
Q 2241 -75 1856 -75 
Q 1575 -75 1351 44 
Q 1128 163 984 344 
L 984 -1272 
L 422 -1272 
z
M 931 1641 
Q 931 1000 1190 694 
Q 1450 388 1819 388 
Q 2194 388 2461 705 
Q 2728 1022 2728 1688 
Q 2728 2322 2467 2637 
Q 2206 2953 1844 2953 
Q 1484 2953 1207 2617 
Q 931 2281 931 1641 
z
" transform="scale(0.015625)"/>
       <path id="ArialMT-68" d="M 422 0 
L 422 4581 
L 984 4581 
L 984 2938 
Q 1378 3394 1978 3394 
Q 2347 3394 2619 3248 
Q 2891 3103 3008 2847 
Q 3125 2591 3125 2103 
L 3125 0 
L 2563 0 
L 2563 2103 
Q 2563 2525 2380 2717 
Q 2197 2909 1863 2909 
Q 1613 2909 1392 2779 
Q 1172 2650 1078 2428 
Q 984 2206 984 1816 
L 984 0 
L 422 0 
z
" transform="scale(0.015625)"/>
      </defs>
      <use xlink:href="#ArialMT-61"/>
      <use xlink:href="#ArialMT-6c" x="55.615234"/>
      <use xlink:href="#ArialMT-70" x="77.832031"/>
      <use xlink:href="#ArialMT-68" x="133.447266"/>
      <use xlink:href="#ArialMT-61" x="189.0625"/>
     </g>
    </g>
    <g id="line2d_19">
     <path d="M 335.959875 139.888437 
L 344.759875 139.888437 
L 353.559875 139.888437 
" style="fill: none; stroke: #ff7f0e; stroke-width: 1.2; stroke-linecap: round"/>
    </g>
    <g id="text_17">
     <!-- beta -->
     <g style="fill: #262626" transform="translate(360.599875 142.968437) scale(0.088 -0.088)">
      <use xlink:href="#ArialMT-62"/>
      <use xlink:href="#ArialMT-65" x="55.615234"/>
      <use xlink:href="#ArialMT-74" x="111.230469"/>
      <use xlink:href="#ArialMT-61" x="139.013672"/>
     </g>
    </g>
    <g id="line2d_20">
     <path d="M 335.959875 152.336312 
L 344.759875 152.336312 
L 353.559875 152.336312 
" style="fill: none; stroke: #2ca02c; stroke-width: 1.2; stroke-linecap: round"/>
    </g>
    <g id="text_18">
     <!-- gamma -->
     <g style="fill: #262626" transform="translate(360.599875 155.416312) scale(0.088 -0.088)">
      <defs>
       <path id="ArialMT-67" d="M 319 -275 
L 866 -356 
Q 900 -609 1056 -725 
Q 1266 -881 1628 -881 
Q 2019 -881 2231 -725 
Q 2444 -569 2519 -288 
Q 2563 -116 2559 434 
Q 2191 0 1641 0 
Q 956 0 581 494 
Q 206 988 206 1678 
Q 206 2153 378 2554 
Q 550 2956 876 3175 
Q 1203 3394 1644 3394 
Q 2231 3394 2613 2919 
L 2613 3319 
L 3131 3319 
L 3131 450 
Q 3131 -325 2973 -648 
Q 2816 -972 2473 -1159 
Q 2131 -1347 1631 -1347 
Q 1038 -1347 672 -1080 
Q 306 -813 319 -275 
z
M 784 1719 
Q 784 1066 1043 766 
Q 1303 466 1694 466 
Q 2081 466 2343 764 
Q 2606 1063 2606 1700 
Q 2606 2309 2336 2618 
Q 2066 2928 1684 2928 
Q 1309 2928 1046 2623 
Q 784 2319 784 1719 
z
" transform="scale(0.015625)"/>
       <path id="ArialMT-6d" d="M 422 0 
L 422 3319 
L 925 3319 
L 925 2853 
Q 1081 3097 1340 3245 
Q 1600 3394 1931 3394 
Q 2300 3394 2536 3241 
Q 2772 3088 2869 2813 
Q 3263 3394 3894 3394 
Q 4388 3394 4653 3120 
Q 4919 2847 4919 2278 
L 4919 0 
L 4359 0 
L 4359 2091 
Q 4359 2428 4304 2576 
Q 4250 2725 4106 2815 
Q 3963 2906 3769 2906 
Q 3419 2906 3187 2673 
Q 2956 2441 2956 1928 
L 2956 0 
L 2394 0 
L 2394 2156 
Q 2394 2531 2256 2718 
Q 2119 2906 1806 2906 
Q 1569 2906 1367 2781 
Q 1166 2656 1075 2415 
Q 984 2175 984 1722 
L 984 0 
L 422 0 
z
" transform="scale(0.015625)"/>
      </defs>
      <use xlink:href="#ArialMT-67"/>
      <use xlink:href="#ArialMT-61" x="55.615234"/>
      <use xlink:href="#ArialMT-6d" x="111.230469"/>
      <use xlink:href="#ArialMT-6d" x="194.53125"/>
      <use xlink:href="#ArialMT-61" x="277.832031"/>
     </g>
    </g>
    <g id="line2d_21">
     <path d="M 335.959875 164.887312 
L 344.759875 164.887312 
L 353.559875 164.887312 
" style="fill: none; stroke: #d62728; stroke-width: 1.2; stroke-linecap: round"/>
    </g>
    <g id="text_19">
     <!-- delta -->
     <g style="fill: #262626" transform="translate(360.599875 167.967312) scale(0.088 -0.088)">
      <use xlink:href="#ArialMT-64"/>
      <use xlink:href="#ArialMT-65" x="55.615234"/>
      <use xlink:href="#ArialMT-6c" x="111.230469"/>
      <use xlink:href="#ArialMT-74" x="133.447266"/>
      <use xlink:href="#ArialMT-61" x="161.230469"/>
     </g>
    </g>
    <g id="line2d_22">
     <path d="M 335.959875 177.335187 
L 344.759875 177.335187 
L 353.559875 177.335187 
" style="fill: none; stroke: #9467bd; stroke-width: 1.2; stroke-linecap: round"/>
    </g>
    <g id="text_20">
     <!-- omega -->
     <g style="fill: #262626" transform="translate(360.599875 180.415187) scale(0.088 -0.088)">
      <use xlink:href="#ArialMT-6f"/>
      <use xlink:href="#ArialMT-6d" x="55.615234"/>
      <use xlink:href="#ArialMT-65" x="138.916016"/>
      <use xlink:href="#ArialMT-67" x="194.53125"/>
      <use xlink:href="#ArialMT-61" x="250.146484"/>
     </g>
    </g>
   </g>
  </g>
 </g>
 <defs>
  <clipPath id="paa0c138e97">
   <rect x="40.741" y="20.1885" width="357.12" height="266.112"/>
  </clipPath>
 </defs>
</svg>