<?xml version="1.0" encoding="utf-8" standalone="no"?>
<!DOCTYPE svg PUBLIC "-//W3C//DTD SVG 1.1//EN"
  "http://www.w3.org/Graphics/SVG/1.1/DTD/svg11.dtd">
<svg xmlns:xlink="http://www.w3.org/1999/xlink" width="259.362156pt" height="226.038937pt" viewBox="0 0 259.362156 226.038937" xmlns="http://www.w3.org/2000/svg" version="1.1">
 <metadata>
  <rdf:RDF xmlns:dc="http://purl.org/dc/elements/1.1/" xmlns:cc="http://creativecommons.org/ns#" xmlns:rdf="http://www.w3.org/1999/02/22-rdf-syntax-ns#">
   <cc:Work>
    <dc:type rdf:resource="http://purl.org/dc/dcmitype/StillImage"/>
    <dc:date>2024-10-09T18:03:26.132945</dc:date>
    <dc:format>image/svg+xml</dc:format>
    <dc:creator>
     <cc:Agent>
      <dc:title>Matplotlib v3.9.2, https://matplotlib.org/</dc:title>
     </cc:Agent>
    </dc:creator>
   </cc:Work>
  </rdf:RDF>
 </metadata>
 <defs>
  <style type="text/css">*{stroke-linejoin: round; stroke-linecap: butt}</style>
 </defs>
 <g id="figure_1">
  <g id="patch_1">
   <path d="M 0 226.038937 
L 259.362156 226.038937 
L 259.362156 0 
L 0 0 
z
" style="fill: #ffffff"/>
  </g>
  <g id="axes_1">
   <g id="patch_2">
    <path d="M 27.732 189.711562 
L 250.932 189.711562 
L 250.932 23.391562 
L 27.732 23.391562 
z
" style="fill: #ffffff"/>
   </g>
   <g id="matplotlib.axis_1">
    <g id="xtick_1">
     <g id="line2d_1">
      <defs>
       <path id="m35ed5ce59d" d="M 0 0 
L 0 4.8 
" style="stroke: #262626"/>
      </defs>
      <g>
       <use xlink:href="#m35ed5ce59d" x="37.877455" y="189.711562" style="fill: #262626; stroke: #262626"/>
      </g>
     </g>
     <g id="text_1">
      <!-- 0.0 -->
      <g style="fill: #262626" transform="translate(31.761455 204.310437) scale(0.088 -0.088)">
       <defs>
        <path id="ArialMT-30" d="M 266 2259 
Q 266 3072 433 3567 
Q 600 4063 929 4331 
Q 1259 4600 1759 4600 
Q 2128 4600 2406 4451 
Q 2684 4303 2865 4023 
Q 3047 3744 3150 3342 
Q 3253 2941 3253 2259 
Q 3253 1453 3087 958 
Q 2922 463 2592 192 
Q 2263 -78 1759 -78 
Q 1097 -78 719 397 
Q 266 969 266 2259 
z
M 844 2259 
Q 844 1131 1108 757 
Q 1372 384 1759 384 
Q 2147 384 2411 759 
Q 2675 1134 2675 2259 
Q 2675 3391 2411 3762 
Q 2147 4134 1753 4134 
Q 1366 4134 1134 3806 
Q 844 3388 844 2259 
z
" transform="scale(0.015625)"/>
        <path id="ArialMT-2e" d="M 581 0 
L 581 641 
L 1222 641 
L 1222 0 
L 581 0 
z
" transform="scale(0.015625)"/>
       </defs>
       <use xlink:href="#ArialMT-30"/>
       <use xlink:href="#ArialMT-2e" x="55.615234"/>
       <use xlink:href="#ArialMT-30" x="83.398438"/>
      </g>
     </g>
    </g>
    <g id="xtick_2">
     <g id="line2d_2">
      <g>
       <use xlink:href="#m35ed5ce59d" x="78.459273" y="189.711562" style="fill: #262626; stroke: #262626"/>
      </g>
     </g>
     <g id="text_2">
      <!-- 0.2 -->
      <g style="fill: #262626" transform="translate(72.343273 204.310437) scale(0.088 -0.088)">
       <defs>
        <path id="ArialMT-32" d="M 3222 541 
L 3222 0 
L 194 0 
Q 188 203 259 391 
Q 375 700 629 1000 
Q 884 1300 1366 1694 
Q 2113 2306 2375 2664 
Q 2638 3022 2638 3341 
Q 2638 3675 2398 3904 
Q 2159 4134 1775 4134 
Q 1369 4134 1125 3890 
Q 881 3647 878 3216 
L 300 3275 
Q 359 3922 746 4261 
Q 1134 4600 1788 4600 
Q 2447 4600 2831 4234 
Q 3216 3869 3216 3328 
Q 3216 3053 3103 2787 
Q 2991 2522 2730 2228 
Q 2469 1934 1863 1422 
Q 1356 997 1212 845 
Q 1069 694 975 541 
L 3222 541 
z
" transform="scale(0.015625)"/>
       </defs>
       <use xlink:href="#ArialMT-30"/>
       <use xlink:href="#ArialMT-2e" x="55.615234"/>
       <use xlink:href="#ArialMT-32" x="83.398438"/>
      </g>
     </g>
    </g>
    <g id="xtick_3">
     <g id="line2d_3">
      <g>
       <use xlink:href="#m35ed5ce59d" x="119.041091" y="189.711562" style="fill: #262626; stroke: #262626"/>
      </g>
     </g>
     <g id="text_3">
      <!-- 0.4 -->
      <g style="fill: #262626" transform="translate(112.925091 204.310437) scale(0.088 -0.088)">
       <defs>
        <path id="ArialMT-34" d="M 2069 0 
L 2069 1097 
L 81 1097 
L 81 1613 
L 2172 4581 
L 2631 4581 
L 2631 1613 
L 3250 1613 
L 3250 1097 
L 2631 1097 
L 2631 0 
L 2069 0 
z
M 2069 1613 
L 2069 3678 
L 634 1613 
L 2069 1613 
z
" transform="scale(0.015625)"/>
       </defs>
       <use xlink:href="#ArialMT-30"/>
       <use xlink:href="#ArialMT-2e" x="55.615234"/>
       <use xlink:href="#ArialMT-34" x="83.398438"/>
      </g>
     </g>
    </g>
    <g id="xtick_4">
     <g id="line2d_4">
      <g>
       <use xlink:href="#m35ed5ce59d" x="159.622909" y="189.711562" style="fill: #262626; stroke: #262626"/>
      </g>
     </g>
     <g id="text_4">
      <!-- 0.6 -->
      <g style="fill: #262626" transform="translate(153.506909 204.310437) scale(0.088 -0.088)">
       <defs>
        <path id="ArialMT-36" d="M 3184 3459 
L 2625 3416 
Q 2550 3747 2413 3897 
Q 2184 4138 1850 4138 
Q 1581 4138 1378 3988 
Q 1113 3794 959 3422 
Q 806 3050 800 2363 
Q 1003 2672 1297 2822 
Q 1591 2972 1913 2972 
Q 2475 2972 2870 2558 
Q 3266 2144 3266 1488 
Q 3266 1056 3080 686 
Q 2894 316 2569 119 
Q 2244 -78 1831 -78 
Q 1128 -78 684 439 
Q 241 956 241 2144 
Q 241 3472 731 4075 
Q 1159 4600 1884 4600 
Q 2425 4600 2770 4297 
Q 3116 3994 3184 3459 
z
M 888 1484 
Q 888 1194 1011 928 
Q 1134 663 1356 523 
Q 1578 384 1822 384 
Q 2178 384 2434 671 
Q 2691 959 2691 1453 
Q 2691 1928 2437 2201 
Q 2184 2475 1800 2475 
Q 1419 2475 1153 2201 
Q 888 1928 888 1484 
z
" transform="scale(0.015625)"/>
       </defs>
       <use xlink:href="#ArialMT-30"/>
       <use xlink:href="#ArialMT-2e" x="55.615234"/>
       <use xlink:href="#ArialMT-36" x="83.398438"/>
      </g>
     </g>
    </g>
    <g id="xtick_5">
     <g id="line2d_5">
      <g>
       <use xlink:href="#m35ed5ce59d" x="200.204727" y="189.711562" style="fill: #262626; stroke: #262626"/>
      </g>
     </g>
     <g id="text_5">
      <!-- 0.8 -->
      <g style="fill: #262626" transform="translate(194.088727 204.310437) scale(0.088 -0.088)">
       <defs>
        <path id="ArialMT-38" d="M 1131 2484 
Q 781 2613 612 2850 
Q 444 3088 444 3419 
Q 444 3919 803 4259 
Q 1163 4600 1759 4600 
Q 2359 4600 2725 4251 
Q 3091 3903 3091 3403 
Q 3091 3084 2923 2848 
Q 2756 2613 2416 2484 
Q 2838 2347 3058 2040 
Q 3278 1734 3278 1309 
Q 3278 722 2862 322 
Q 2447 -78 1769 -78 
Q 1091 -78 675 323 
Q 259 725 259 1325 
Q 259 1772 486 2073 
Q 713 2375 1131 2484 
z
M 1019 3438 
Q 1019 3113 1228 2906 
Q 1438 2700 1772 2700 
Q 2097 2700 2305 2904 
Q 2513 3109 2513 3406 
Q 2513 3716 2298 3927 
Q 2084 4138 1766 4138 
Q 1444 4138 1231 3931 
Q 1019 3725 1019 3438 
z
M 838 1322 
Q 838 1081 952 856 
Q 1066 631 1291 507 
Q 1516 384 1775 384 
Q 2178 384 2440 643 
Q 2703 903 2703 1303 
Q 2703 1709 2433 1975 
Q 2163 2241 1756 2241 
Q 1359 2241 1098 1978 
Q 838 1716 838 1322 
z
" transform="scale(0.015625)"/>
       </defs>
       <use xlink:href="#ArialMT-30"/>
       <use xlink:href="#ArialMT-2e" x="55.615234"/>
       <use xlink:href="#ArialMT-38" x="83.398438"/>
      </g>
     </g>
    </g>
    <g id="xtick_6">
     <g id="line2d_6">
      <g>
       <use xlink:href="#m35ed5ce59d" x="240.786545" y="189.711562" style="fill: #262626; stroke: #262626"/>
      </g>
     </g>
     <g id="text_6">
      <!-- 1.0 -->
      <g style="fill: #262626" transform="translate(234.670545 204.310437) scale(0.088 -0.088)">
       <defs>
        <path id="ArialMT-31" d="M 2384 0 
L 1822 0 
L 1822 3584 
Q 1619 3391 1289 3197 
Q 959 3003 697 2906 
L 697 3450 
Q 1169 3672 1522 3987 
Q 1875 4303 2022 4600 
L 2384 4600 
L 2384 0 
z
" transform="scale(0.015625)"/>
       </defs>
       <use xlink:href="#ArialMT-31"/>
       <use xlink:href="#ArialMT-2e" x="55.615234"/>
       <use xlink:href="#ArialMT-30" x="83.398438"/>
      </g>
     </g>
    </g>
    <g id="text_7">
     <!-- $x_1$ -->
     <g style="fill: #262626" transform="translate(134.196 216.930937) scale(0.096 -0.096)">
      <defs>
       <path id="DejaVuSans-Oblique-78" d="M 3841 3500 
L 2234 1784 
L 3219 0 
L 2559 0 
L 1819 1388 
L 531 0 
L -166 0 
L 1556 1844 
L 641 3500 
L 1300 3500 
L 1972 2234 
L 3144 3500 
L 3841 3500 
z
" transform="scale(0.015625)"/>
       <path id="DejaVuSans-31" d="M 794 531 
L 1825 531 
L 1825 4091 
L 703 3866 
L 703 4441 
L 1819 4666 
L 2450 4666 
L 2450 531 
L 3481 531 
L 3481 0 
L 794 0 
L 794 531 
z
" transform="scale(0.015625)"/>
      </defs>
      <use xlink:href="#DejaVuSans-Oblique-78" transform="translate(0 0.3125)"/>
      <use xlink:href="#DejaVuSans-31" transform="translate(59.179688 -16.09375) scale(0.7)"/>
     </g>
    </g>
   </g>
   <g id="matplotlib.axis_2">
    <g id="ytick_1">
     <g id="line2d_7">
      <defs>
       <path id="mec61650720" d="M 0 0 
L -4.8 0 
" style="stroke: #262626"/>
      </defs>
      <g>
       <use xlink:href="#mec61650720" x="27.732" y="185.299605" style="fill: #262626; stroke: #262626"/>
      </g>
     </g>
     <g id="text_8">
      <!-- 0.0 -->
      <g style="fill: #262626" transform="translate(7.2 188.449043) scale(0.088 -0.088)">
       <use xlink:href="#ArialMT-30"/>
       <use xlink:href="#ArialMT-2e" x="55.615234"/>
       <use xlink:href="#ArialMT-30" x="83.398438"/>
      </g>
     </g>
    </g>
    <g id="ytick_2">
     <g id="line2d_8">
      <g>
       <use xlink:href="#mec61650720" x="27.732" y="159.668021" style="fill: #262626; stroke: #262626"/>
      </g>
     </g>
     <g id="text_9">
      <!-- 0.5 -->
      <g style="fill: #262626" transform="translate(7.2 162.817459) scale(0.088 -0.088)">
       <defs>
        <path id="ArialMT-35" d="M 266 1200 
L 856 1250 
Q 922 819 1161 601 
Q 1400 384 1738 384 
Q 2144 384 2425 690 
Q 2706 997 2706 1503 
Q 2706 1984 2436 2262 
Q 2166 2541 1728 2541 
Q 1456 2541 1237 2417 
Q 1019 2294 894 2097 
L 366 2166 
L 809 4519 
L 3088 4519 
L 3088 3981 
L 1259 3981 
L 1013 2750 
Q 1425 3038 1878 3038 
Q 2478 3038 2890 2622 
Q 3303 2206 3303 1553 
Q 3303 931 2941 478 
Q 2500 -78 1738 -78 
Q 1113 -78 717 272 
Q 322 622 266 1200 
z
" transform="scale(0.015625)"/>
       </defs>
       <use xlink:href="#ArialMT-30"/>
       <use xlink:href="#ArialMT-2e" x="55.615234"/>
       <use xlink:href="#ArialMT-35" x="83.398438"/>
      </g>
     </g>
    </g>
    <g id="ytick_3">
     <g id="line2d_9">
      <g>
       <use xlink:href="#mec61650720" x="27.732" y="134.036438" style="fill: #262626; stroke: #262626"/>
      </g>
     </g>
     <g id="text_10">
      <!-- 1.0 -->
      <g style="fill: #262626" transform="translate(7.2 137.185875) scale(0.088 -0.088)">
       <use xlink:href="#ArialMT-31"/>
       <use xlink:href="#ArialMT-2e" x="55.615234"/>
       <use xlink:href="#ArialMT-30" x="83.398438"/>
      </g>
     </g>
    </g>
    <g id="ytick_4">
     <g id="line2d_10">
      <g>
       <use xlink:href="#mec61650720" x="27.732" y="108.404854" style="fill: #262626; stroke: #262626"/>
      </g>
     </g>
     <g id="text_11">
      <!-- 1.5 -->
      <g style="fill: #262626" transform="translate(7.2 111.554292) scale(0.088 -0.088)">
       <use xlink:href="#ArialMT-31"/>
       <use xlink:href="#ArialMT-2e" x="55.615234"/>
       <use xlink:href="#ArialMT-35" x="83.398438"/>
      </g>
     </g>
    </g>
    <g id="ytick_5">
     <g id="line2d_11">
      <g>
       <use xlink:href="#mec61650720" x="27.732" y="82.77327" style="fill: #262626; stroke: #262626"/>
      </g>
     </g>
     <g id="text_12">
      <!-- 2.0 -->
      <g style="fill: #262626" transform="translate(7.2 85.922708) scale(0.088 -0.088)">
       <use xlink:href="#ArialMT-32"/>
       <use xlink:href="#ArialMT-2e" x="55.615234"/>
       <use xlink:href="#ArialMT-30" x="83.398438"/>
      </g>
     </g>
    </g>
    <g id="ytick_6">
     <g id="line2d_12">
      <g>
       <use xlink:href="#mec61650720" x="27.732" y="57.141687" style="fill: #262626; stroke: #262626"/>
      </g>
     </g>
     <g id="text_13">
      <!-- 2.5 -->
      <g style="fill: #262626" transform="translate(7.2 60.291124) scale(0.088 -0.088)">
       <use xlink:href="#ArialMT-32"/>
       <use xlink:href="#ArialMT-2e" x="55.615234"/>
       <use xlink:href="#ArialMT-35" x="83.398438"/>
      </g>
     </g>
    </g>
    <g id="ytick_7">
     <g id="line2d_13">
      <g>
       <use xlink:href="#mec61650720" x="27.732" y="31.510103" style="fill: #262626; stroke: #262626"/>
      </g>
     </g>
     <g id="text_14">
      <!-- 3.0 -->
      <g style="fill: #262626" transform="translate(7.2 34.65954) scale(0.088 -0.088)">
       <defs>
        <path id="ArialMT-33" d="M 269 1209 
L 831 1284 
Q 928 806 1161 595 
Q 1394 384 1728 384 
Q 2125 384 2398 659 
Q 2672 934 2672 1341 
Q 2672 1728 2419 1979 
Q 2166 2231 1775 2231 
Q 1616 2231 1378 2169 
L 1441 2663 
Q 1497 2656 1531 2656 
Q 1891 2656 2178 2843 
Q 2466 3031 2466 3422 
Q 2466 3731 2256 3934 
Q 2047 4138 1716 4138 
Q 1388 4138 1169 3931 
Q 950 3725 888 3313 
L 325 3413 
Q 428 3978 793 4289 
Q 1159 4600 1703 4600 
Q 2078 4600 2393 4439 
Q 2709 4278 2876 4000 
Q 3044 3722 3044 3409 
Q 3044 3113 2884 2869 
Q 2725 2625 2413 2481 
Q 2819 2388 3044 2092 
Q 3269 1797 3269 1353 
Q 3269 753 2831 336 
Q 2394 -81 1725 -81 
Q 1122 -81 723 278 
Q 325 638 269 1209 
z
" transform="scale(0.015625)"/>
       </defs>
       <use xlink:href="#ArialMT-33"/>
       <use xlink:href="#ArialMT-2e" x="55.615234"/>
       <use xlink:href="#ArialMT-30" x="83.398438"/>
      </g>
     </g>
    </g>
   </g>
   <g id="PolyCollection_1">
    <defs>
     <path id="m10f0b35c6d" d="M 37.877455 -127.705589 
L 37.877455 -125.873933 
L 43.080252 -121.811444 
L 48.283049 -117.084198 
L 53.485846 -112.076258 
L 58.688643 -107.071129 
L 63.891441 -102.333238 
L 69.094238 -98.239295 
L 74.297035 -95.019237 
L 79.499832 -92.977544 
L 84.702629 -92.294095 
L 89.905427 -93.151224 
L 95.108224 -95.582147 
L 100.311021 -99.607471 
L 105.513818 -105.165784 
L 110.716615 -112.106043 
L 115.919413 -120.224986 
L 121.12221 -129.275804 
L 126.325007 -138.911427 
L 131.527804 -148.81172 
L 136.730601 -158.590297 
L 141.933399 -167.841862 
L 147.136196 -176.215905 
L 152.338993 -183.36811 
L 157.54179 -188.973281 
L 162.744587 -192.816064 
L 167.947385 -194.724652 
L 173.150182 -194.499894 
L 178.352979 -192.146455 
L 183.555776 -187.667121 
L 188.758573 -181.115492 
L 193.961371 -172.783728 
L 199.164168 -162.841255 
L 204.366965 -151.638199 
L 209.569762 -139.612797 
L 214.772559 -127.129935 
L 219.975357 -114.58492 
L 225.178154 -102.393606 
L 230.380951 -90.912218 
L 235.583748 -80.384437 
L 240.786545 -71.168666 
L 240.786545 -73.006041 
L 240.786545 -73.006041 
L 235.583748 -81.419634 
L 230.380951 -91.390062 
L 225.178154 -102.685921 
L 219.975357 -114.847822 
L 214.772559 -127.417323 
L 209.569762 -139.949549 
L 204.366965 -152.015079 
L 199.164168 -163.162324 
L 193.961371 -173.066361 
L 188.758573 -181.415769 
L 183.555776 -187.93384 
L 178.352979 -192.48095 
L 173.150182 -194.879415 
L 167.947385 -195.087375 
L 162.744587 -193.203477 
L 157.54179 -189.347151 
L 152.338993 -183.660872 
L 147.136196 -176.474617 
L 141.933399 -168.087754 
L 136.730601 -158.867338 
L 131.527804 -149.134896 
L 126.325007 -139.287091 
L 121.12221 -129.675264 
L 115.919413 -120.645261 
L 110.716615 -112.528051 
L 105.513818 -105.55155 
L 100.311021 -99.973368 
L 95.108224 -95.911118 
L 89.905427 -93.462386 
L 84.702629 -92.588485 
L 79.499832 -93.241893 
L 74.297035 -95.27324 
L 69.094238 -98.487624 
L 63.891441 -102.656042 
L 58.688643 -107.458081 
L 53.485846 -112.66876 
L 48.283049 -117.929676 
L 43.080252 -123.03038 
L 37.877455 -127.705589 
z
" style="stroke: #ffffff; stroke-opacity: 0.2; stroke-width: 0.8"/>
    </defs>
    <g clip-path="url(#p80d8d3dd6d)">
     <use xlink:href="#m10f0b35c6d" x="0" y="226.038937" style="fill: #1f77b4; fill-opacity: 0.2; stroke: #ffffff; stroke-opacity: 0.2; stroke-width: 0.8"/>
    </g>
   </g>
   <g id="PolyCollection_2">
    <defs>
     <path id="m9dab0311fa" d="M 37.877455 -82.406802 
L 37.877455 -61.790272 
L 43.080252 -63.381701 
L 48.283049 -60.916431 
L 53.485846 -56.534078 
L 58.688643 -52.326457 
L 63.891441 -48.895805 
L 69.094238 -46.375778 
L 74.297035 -44.674461 
L 79.499832 -43.887375 
L 84.702629 -44.087828 
L 89.905427 -45.18672 
L 95.108224 -46.910383 
L 100.311021 -49.268326 
L 105.513818 -52.446611 
L 110.716615 -56.450069 
L 115.919413 -61.050867 
L 121.12221 -66.099167 
L 126.325007 -71.299007 
L 131.527804 -76.549575 
L 136.730601 -81.761658 
L 141.933399 -86.173437 
L 147.136196 -81.167562 
L 152.338993 -74.700091 
L 157.54179 -68.769824 
L 162.744587 -63.567603 
L 167.947385 -59.164537 
L 173.150182 -55.694604 
L 178.352979 -53.171631 
L 183.555776 -51.420034 
L 188.758573 -50.29175 
L 193.961371 -50.115161 
L 199.164168 -51.365076 
L 204.366965 -54.367201 
L 209.569762 -59.266405 
L 214.772559 -65.737067 
L 219.975357 -64.469697 
L 225.178154 -59.99814 
L 230.380951 -56.573259 
L 235.583748 -54.326844 
L 240.786545 -53.265953 
L 240.786545 -92.163351 
L 240.786545 -92.163351 
L 235.583748 -90.142919 
L 230.380951 -86.16958 
L 225.178154 -80.432142 
L 219.975357 -73.382932 
L 214.772559 -69.822213 
L 209.569762 -74.980544 
L 204.366965 -80.054486 
L 199.164168 -84.746405 
L 193.961371 -88.7809 
L 188.758573 -91.878383 
L 183.555776 -94.076314 
L 178.352979 -95.551249 
L 173.150182 -96.393948 
L 167.947385 -96.616669 
L 162.744587 -96.275378 
L 157.54179 -95.416393 
L 152.338993 -93.739235 
L 147.136196 -90.963035 
L 141.933399 -88.406688 
L 136.730601 -93.490564 
L 131.527804 -97.224919 
L 126.325007 -98.695679 
L 121.12221 -97.797491 
L 115.919413 -94.822535 
L 110.716615 -90.333916 
L 105.513818 -85.312463 
L 100.311021 -80.887397 
L 95.108224 -78.066153 
L 89.905427 -77.495386 
L 84.702629 -78.87396 
L 79.499832 -81.168279 
L 74.297035 -83.358348 
L 69.094238 -84.991078 
L 63.891441 -85.854224 
L 58.688643 -85.712041 
L 53.485846 -84.41428 
L 48.283049 -82.194406 
L 43.080252 -80.833714 
L 37.877455 -82.406802 
z
" style="stroke: #ffffff; stroke-opacity: 0.2; stroke-width: 0.8"/>
    </defs>
    <g clip-path="url(#p80d8d3dd6d)">
     <use xlink:href="#m9dab0311fa" x="0" y="226.038937" style="fill: #ff7f0e; fill-opacity: 0.2; stroke: #ffffff; stroke-opacity: 0.2; stroke-width: 0.8"/>
    </g>
   </g>
   <g id="PolyCollection_3">
    <defs>
     <path id="md7f56e025b" d="M 37.877455 -69.379619 
L 37.877455 -68.28662 
L 43.080252 -66.843386 
L 48.283049 -65.013671 
L 53.485846 -63.095064 
L 58.688643 -61.182498 
L 63.891441 -59.39944 
L 69.094238 -57.949297 
L 74.297035 -56.879163 
L 79.499832 -56.332154 
L 84.702629 -56.348769 
L 89.905427 -57.010341 
L 95.108224 -58.31939 
L 100.311021 -60.281821 
L 105.513818 -62.845785 
L 110.716615 -65.925441 
L 115.919413 -69.381262 
L 121.12221 -73.124335 
L 126.325007 -76.908737 
L 131.527804 -80.584702 
L 136.730601 -83.953412 
L 141.933399 -86.837314 
L 147.136196 -89.151627 
L 152.338993 -90.872534 
L 157.54179 -91.952399 
L 162.744587 -92.464129 
L 167.947385 -92.495121 
L 173.150182 -91.982295 
L 178.352979 -90.994845 
L 183.555776 -89.491206 
L 188.758573 -87.401649 
L 193.961371 -84.796267 
L 199.164168 -81.545478 
L 204.366965 -77.722957 
L 209.569762 -73.505199 
L 214.772559 -69.040192 
L 219.975357 -64.526541 
L 225.178154 -60.238292 
L 230.380951 -56.324507 
L 235.583748 -52.843436 
L 240.786545 -49.96811 
L 240.786545 -50.577376 
L 240.786545 -50.577376 
L 235.583748 -53.319443 
L 230.380951 -56.632703 
L 225.178154 -60.525741 
L 219.975357 -64.828748 
L 214.772559 -69.317782 
L 209.569762 -73.798536 
L 204.366965 -78.046774 
L 199.164168 -81.830955 
L 193.961371 -85.062081 
L 188.758573 -87.697563 
L 183.555776 -89.732207 
L 178.352979 -91.252372 
L 173.150182 -92.249941 
L 167.947385 -92.73757 
L 162.744587 -92.75272 
L 157.54179 -92.252738 
L 152.338993 -91.139518 
L 147.136196 -89.440605 
L 141.933399 -87.11071 
L 136.730601 -84.2479 
L 131.527804 -80.886395 
L 126.325007 -77.223142 
L 121.12221 -73.435915 
L 115.919413 -69.717652 
L 110.716615 -66.254447 
L 105.513818 -63.176604 
L 100.311021 -60.633886 
L 95.108224 -58.677983 
L 89.905427 -57.373901 
L 84.702629 -56.669439 
L 79.499832 -56.628082 
L 74.297035 -57.173651 
L 69.094238 -58.245198 
L 63.891441 -59.745945 
L 58.688643 -61.515702 
L 53.485846 -63.502704 
L 48.283049 -65.519631 
L 43.080252 -67.523529 
L 37.877455 -69.379619 
z
" style="stroke: #ffffff; stroke-opacity: 0.2; stroke-width: 0.8"/>
    </defs>
    <g clip-path="url(#p80d8d3dd6d)">
     <use xlink:href="#md7f56e025b" x="0" y="226.038937" style="fill: #2ca02c; fill-opacity: 0.2; stroke: #ffffff; stroke-opacity: 0.2; stroke-width: 0.8"/>
    </g>
   </g>
   <g id="line2d_14">
    <path d="M 37.877455 99.249176 
L 43.080252 103.618025 
L 48.283049 108.532001 
L 53.485846 113.666429 
L 58.688643 118.774333 
L 63.891441 123.544298 
L 69.094238 127.675478 
L 74.297035 130.892699 
L 79.499832 132.929219 
L 84.702629 133.597647 
L 89.905427 132.732132 
L 95.108224 130.292305 
L 100.311021 126.248518 
L 105.513818 120.680271 
L 110.716615 113.72189 
L 115.919413 105.603814 
L 121.12221 96.563404 
L 126.325007 86.939679 
L 131.527804 77.06563 
L 136.730601 67.31012 
L 141.933399 58.074129 
L 147.136196 49.693676 
L 152.338993 42.524447 
L 157.54179 36.878722 
L 162.744587 33.029167 
L 167.947385 31.132924 
L 173.150182 31.349283 
L 178.352979 33.725235 
L 183.555776 38.238457 
L 188.758573 44.773307 
L 193.961371 53.113893 
L 199.164168 63.037148 
L 204.366965 74.212299 
L 209.569762 86.257765 
L 214.772559 98.765308 
L 219.975357 111.322567 
L 225.178154 123.499174 
L 230.380951 134.887798 
L 235.583748 145.136902 
L 240.786545 153.951584 
" clip-path="url(#p80d8d3dd6d)" style="fill: none; stroke: #1f77b4; stroke-width: 2; stroke-linecap: round"/>
   </g>
   <g id="line2d_15">
    <path d="M 37.877455 153.9404 
L 43.080252 153.93123 
L 48.283049 154.483519 
L 53.485846 155.564758 
L 58.688643 157.019688 
L 63.891441 158.663923 
L 69.094238 160.355509 
L 74.297035 162.022533 
L 79.499832 163.511111 
L 84.702629 164.558044 
L 89.905427 164.697884 
L 95.108224 163.55067 
L 100.311021 160.961076 
L 105.513818 157.159401 
L 110.716615 152.646945 
L 115.919413 148.102237 
L 121.12221 144.090608 
L 126.325007 141.041595 
L 131.527804 139.151691 
L 136.730601 138.412826 
L 141.933399 138.748875 
L 147.136196 139.973639 
L 152.338993 141.819274 
L 157.54179 143.945829 
L 162.744587 146.117447 
L 167.947385 148.148335 
L 173.150182 149.994662 
L 178.352979 151.677497 
L 183.555776 153.290764 
L 188.758573 154.953871 
L 193.961371 156.590907 
L 199.164168 157.983197 
L 204.366965 158.828094 
L 209.569762 158.915463 
L 214.772559 158.259297 
L 219.975357 157.112623 
L 225.178154 155.823797 
L 230.380951 154.667518 
L 235.583748 153.804056 
L 240.786545 153.324285 
" clip-path="url(#p80d8d3dd6d)" style="fill: none; stroke: #ff7f0e; stroke-width: 2; stroke-linecap: round"/>
   </g>
   <g id="line2d_16">
    <path d="M 37.877455 157.205818 
L 43.080252 158.85548 
L 48.283049 160.772287 
L 53.485846 162.740053 
L 58.688643 164.689838 
L 63.891441 166.466245 
L 69.094238 167.94169 
L 74.297035 169.012531 
L 79.499832 169.558819 
L 84.702629 169.529833 
L 89.905427 168.846817 
L 95.108224 167.540251 
L 100.311021 165.581084 
L 105.513818 163.027743 
L 110.716615 159.948994 
L 115.919413 156.489481 
L 121.12221 152.758813 
L 126.325007 148.972998 
L 131.527804 145.303389 
L 136.730601 141.938282 
L 141.933399 139.064925 
L 147.136196 136.742821 
L 152.338993 135.032911 
L 157.54179 133.936369 
L 162.744587 133.430513 
L 167.947385 133.422592 
L 173.150182 133.922819 
L 178.352979 134.915329 
L 183.555776 136.427231 
L 188.758573 138.489331 
L 193.961371 141.109763 
L 199.164168 144.350721 
L 204.366965 148.154072 
L 209.569762 152.38707 
L 214.772559 156.85995 
L 219.975357 161.361293 
L 225.178154 165.656921 
L 230.380951 169.560333 
L 235.583748 172.957498 
L 240.786545 175.766194 
" clip-path="url(#p80d8d3dd6d)" style="fill: none; stroke: #2ca02c; stroke-width: 2; stroke-linecap: round"/>
   </g>
   <g id="line2d_17">
    <path d="M 37.877455 154.526858 
L 43.080252 156.356418 
L 48.283049 158.402413 
L 53.485846 160.551273 
L 58.688643 162.681405 
L 63.891441 164.668815 
L 69.094238 166.39288 
L 74.297035 167.742017 
L 79.499832 168.619009 
L 84.702629 168.945747 
L 89.905427 168.667177 
L 95.108224 167.754284 
L 100.311021 166.205972 
L 105.513818 164.04975 
L 110.716615 161.341184 
L 115.919413 158.162137 
L 121.12221 154.617846 
L 126.325007 150.832972 
L 131.527804 146.946757 
L 136.730601 143.107506 
L 141.933399 139.466612 
L 147.136196 136.17236 
L 152.338993 133.363793 
L 157.54179 131.164866 
L 162.744587 129.679161 
L 167.947385 128.98536 
L 173.150182 129.13369 
L 178.352979 130.14348 
L 183.555776 132.001948 
L 188.758573 134.664256 
L 193.961371 138.054866 
L 199.164168 142.070122 
L 204.366965 146.581979 
L 209.569762 151.442716 
L 214.772559 156.490459 
L 219.975357 161.555287 
L 225.178154 166.465677 
L 230.380951 171.055025 
L 235.583748 175.167993 
L 240.786545 178.666407 
" clip-path="url(#p80d8d3dd6d)" style="fill: none; stroke-dasharray: 4.44,1.92; stroke-dashoffset: 0; stroke: #000000; stroke-width: 1.2"/>
   </g>
   <g id="patch_3">
    <path d="M 27.732 185.299605 
L 27.732 31.510103 
" style="fill: none; stroke: #262626; stroke-linejoin: miter; stroke-linecap: square"/>
   </g>
   <g id="patch_4">
    <path d="M 37.877455 189.711562 
L 240.786545 189.711562 
" style="fill: none; stroke: #262626; stroke-linejoin: miter; stroke-linecap: square"/>
   </g>
   <g id="text_15">
    <!-- Slice through the predictive surfaces -->
    <g style="fill: #262626" transform="translate(26.501844 17.391562) scale(0.14 -0.14)">
     <defs>
      <path id="ArialMT-53" d="M 288 1472 
L 859 1522 
Q 900 1178 1048 958 
Q 1197 738 1509 602 
Q 1822 466 2213 466 
Q 2559 466 2825 569 
Q 3091 672 3220 851 
Q 3350 1031 3350 1244 
Q 3350 1459 3225 1620 
Q 3100 1781 2813 1891 
Q 2628 1963 1997 2114 
Q 1366 2266 1113 2400 
Q 784 2572 623 2826 
Q 463 3081 463 3397 
Q 463 3744 659 4045 
Q 856 4347 1234 4503 
Q 1613 4659 2075 4659 
Q 2584 4659 2973 4495 
Q 3363 4331 3572 4012 
Q 3781 3694 3797 3291 
L 3216 3247 
Q 3169 3681 2898 3903 
Q 2628 4125 2100 4125 
Q 1550 4125 1298 3923 
Q 1047 3722 1047 3438 
Q 1047 3191 1225 3031 
Q 1400 2872 2139 2705 
Q 2878 2538 3153 2413 
Q 3553 2228 3743 1945 
Q 3934 1663 3934 1294 
Q 3934 928 3725 604 
Q 3516 281 3123 101 
Q 2731 -78 2241 -78 
Q 1619 -78 1198 103 
Q 778 284 539 648 
Q 300 1013 288 1472 
z
" transform="scale(0.015625)"/>
      <path id="ArialMT-6c" d="M 409 0 
L 409 4581 
L 972 4581 
L 972 0 
L 409 0 
z
" transform="scale(0.015625)"/>
      <path id="ArialMT-69" d="M 425 3934 
L 425 4581 
L 988 4581 
L 988 3934 
L 425 3934 
z
M 425 0 
L 425 3319 
L 988 3319 
L 988 0 
L 425 0 
z
" transform="scale(0.015625)"/>
      <path id="ArialMT-63" d="M 2588 1216 
L 3141 1144 
Q 3050 572 2676 248 
Q 2303 -75 1759 -75 
Q 1078 -75 664 370 
Q 250 816 250 1647 
Q 250 2184 428 2587 
Q 606 2991 970 3192 
Q 1334 3394 1763 3394 
Q 2303 3394 2647 3120 
Q 2991 2847 3088 2344 
L 2541 2259 
Q 2463 2594 2264 2762 
Q 2066 2931 1784 2931 
Q 1359 2931 1093 2626 
Q 828 2322 828 1663 
Q 828 994 1084 691 
Q 1341 388 1753 388 
Q 2084 388 2306 591 
Q 2528 794 2588 1216 
z
" transform="scale(0.015625)"/>
      <path id="ArialMT-65" d="M 2694 1069 
L 3275 997 
Q 3138 488 2766 206 
Q 2394 -75 1816 -75 
Q 1088 -75 661 373 
Q 234 822 234 1631 
Q 234 2469 665 2931 
Q 1097 3394 1784 3394 
Q 2450 3394 2872 2941 
Q 3294 2488 3294 1666 
Q 3294 1616 3291 1516 
L 816 1516 
Q 847 969 1125 678 
Q 1403 388 1819 388 
Q 2128 388 2347 550 
Q 2566 713 2694 1069 
z
M 847 1978 
L 2700 1978 
Q 2663 2397 2488 2606 
Q 2219 2931 1791 2931 
Q 1403 2931 1139 2672 
Q 875 2413 847 1978 
z
" transform="scale(0.015625)"/>
      <path id="ArialMT-20" transform="scale(0.015625)"/>
      <path id="ArialMT-74" d="M 1650 503 
L 1731 6 
Q 1494 -44 1306 -44 
Q 1000 -44 831 53 
Q 663 150 594 308 
Q 525 466 525 972 
L 525 2881 
L 113 2881 
L 113 3319 
L 525 3319 
L 525 4141 
L 1084 4478 
L 1084 3319 
L 1650 3319 
L 1650 2881 
L 1084 2881 
L 1084 941 
Q 1084 700 1114 631 
Q 1144 563 1211 522 
Q 1278 481 1403 481 
Q 1497 481 1650 503 
z
" transform="scale(0.015625)"/>
      <path id="ArialMT-68" d="M 422 0 
L 422 4581 
L 984 4581 
L 984 2938 
Q 1378 3394 1978 3394 
Q 2347 3394 2619 3248 
Q 2891 3103 3008 2847 
Q 3125 2591 3125 2103 
L 3125 0 
L 2563 0 
L 2563 2103 
Q 2563 2525 2380 2717 
Q 2197 2909 1863 2909 
Q 1613 2909 1392 2779 
Q 1172 2650 1078 2428 
Q 984 2206 984 1816 
L 984 0 
L 422 0 
z
" transform="scale(0.015625)"/>
      <path id="ArialMT-72" d="M 416 0 
L 416 3319 
L 922 3319 
L 922 2816 
Q 1116 3169 1280 3281 
Q 1444 3394 1641 3394 
Q 1925 3394 2219 3213 
L 2025 2691 
Q 1819 2813 1613 2813 
Q 1428 2813 1281 2702 
Q 1134 2591 1072 2394 
Q 978 2094 978 1738 
L 978 0 
L 416 0 
z
" transform="scale(0.015625)"/>
      <path id="ArialMT-6f" d="M 213 1659 
Q 213 2581 725 3025 
Q 1153 3394 1769 3394 
Q 2453 3394 2887 2945 
Q 3322 2497 3322 1706 
Q 3322 1066 3130 698 
Q 2938 331 2570 128 
Q 2203 -75 1769 -75 
Q 1072 -75 642 372 
Q 213 819 213 1659 
z
M 791 1659 
Q 791 1022 1069 705 
Q 1347 388 1769 388 
Q 2188 388 2466 706 
Q 2744 1025 2744 1678 
Q 2744 2294 2464 2611 
Q 2184 2928 1769 2928 
Q 1347 2928 1069 2612 
Q 791 2297 791 1659 
z
" transform="scale(0.015625)"/>
      <path id="ArialMT-75" d="M 2597 0 
L 2597 488 
Q 2209 -75 1544 -75 
Q 1250 -75 995 37 
Q 741 150 617 320 
Q 494 491 444 738 
Q 409 903 409 1263 
L 409 3319 
L 972 3319 
L 972 1478 
Q 972 1038 1006 884 
Q 1059 663 1231 536 
Q 1403 409 1656 409 
Q 1909 409 2131 539 
Q 2353 669 2445 892 
Q 2538 1116 2538 1541 
L 2538 3319 
L 3100 3319 
L 3100 0 
L 2597 0 
z
" transform="scale(0.015625)"/>
      <path id="ArialMT-67" d="M 319 -275 
L 866 -356 
Q 900 -609 1056 -725 
Q 1266 -881 1628 -881 
Q 2019 -881 2231 -725 
Q 2444 -569 2519 -288 
Q 2563 -116 2559 434 
Q 2191 0 1641 0 
Q 956 0 581 494 
Q 206 988 206 1678 
Q 206 2153 378 2554 
Q 550 2956 876 3175 
Q 1203 3394 1644 3394 
Q 2231 3394 2613 2919 
L 2613 3319 
L 3131 3319 
L 3131 450 
Q 3131 -325 2973 -648 
Q 2816 -972 2473 -1159 
Q 2131 -1347 1631 -1347 
Q 1038 -1347 672 -1080 
Q 306 -813 319 -275 
z
M 784 1719 
Q 784 1066 1043 766 
Q 1303 466 1694 466 
Q 2081 466 2343 764 
Q 2606 1063 2606 1700 
Q 2606 2309 2336 2618 
Q 2066 2928 1684 2928 
Q 1309 2928 1046 2623 
Q 784 2319 784 1719 
z
" transform="scale(0.015625)"/>
      <path id="ArialMT-70" d="M 422 -1272 
L 422 3319 
L 934 3319 
L 934 2888 
Q 1116 3141 1344 3267 
Q 1572 3394 1897 3394 
Q 2322 3394 2647 3175 
Q 2972 2956 3137 2557 
Q 3303 2159 3303 1684 
Q 3303 1175 3120 767 
Q 2938 359 2589 142 
Q 2241 -75 1856 -75 
Q 1575 -75 1351 44 
Q 1128 163 984 344 
L 984 -1272 
L 422 -1272 
z
M 931 1641 
Q 931 1000 1190 694 
Q 1450 388 1819 388 
Q 2194 388 2461 705 
Q 2728 1022 2728 1688 
Q 2728 2322 2467 2637 
Q 2206 2953 1844 2953 
Q 1484 2953 1207 2617 
Q 931 2281 931 1641 
z
" transform="scale(0.015625)"/>
      <path id="ArialMT-64" d="M 2575 0 
L 2575 419 
Q 2259 -75 1647 -75 
Q 1250 -75 917 144 
Q 584 363 401 755 
Q 219 1147 219 1656 
Q 219 2153 384 2558 
Q 550 2963 881 3178 
Q 1213 3394 1622 3394 
Q 1922 3394 2156 3267 
Q 2391 3141 2538 2938 
L 2538 4581 
L 3097 4581 
L 3097 0 
L 2575 0 
z
M 797 1656 
Q 797 1019 1065 703 
Q 1334 388 1700 388 
Q 2069 388 2326 689 
Q 2584 991 2584 1609 
Q 2584 2291 2321 2609 
Q 2059 2928 1675 2928 
Q 1300 2928 1048 2622 
Q 797 2316 797 1656 
z
" transform="scale(0.015625)"/>
      <path id="ArialMT-76" d="M 1344 0 
L 81 3319 
L 675 3319 
L 1388 1331 
Q 1503 1009 1600 663 
Q 1675 925 1809 1294 
L 2547 3319 
L 3125 3319 
L 1869 0 
L 1344 0 
z
" transform="scale(0.015625)"/>
      <path id="ArialMT-73" d="M 197 991 
L 753 1078 
Q 800 744 1014 566 
Q 1228 388 1613 388 
Q 2000 388 2187 545 
Q 2375 703 2375 916 
Q 2375 1106 2209 1216 
Q 2094 1291 1634 1406 
Q 1016 1563 777 1677 
Q 538 1791 414 1992 
Q 291 2194 291 2438 
Q 291 2659 392 2848 
Q 494 3038 669 3163 
Q 800 3259 1026 3326 
Q 1253 3394 1513 3394 
Q 1903 3394 2198 3281 
Q 2494 3169 2634 2976 
Q 2775 2784 2828 2463 
L 2278 2388 
Q 2241 2644 2061 2787 
Q 1881 2931 1553 2931 
Q 1166 2931 1000 2803 
Q 834 2675 834 2503 
Q 834 2394 903 2306 
Q 972 2216 1119 2156 
Q 1203 2125 1616 2013 
Q 2213 1853 2448 1751 
Q 2684 1650 2818 1456 
Q 2953 1263 2953 975 
Q 2953 694 2789 445 
Q 2625 197 2315 61 
Q 2006 -75 1616 -75 
Q 969 -75 630 194 
Q 291 463 197 991 
z
" transform="scale(0.015625)"/>
      <path id="ArialMT-66" d="M 556 0 
L 556 2881 
L 59 2881 
L 59 3319 
L 556 3319 
L 556 3672 
Q 556 4006 616 4169 
Q 697 4388 901 4523 
Q 1106 4659 1475 4659 
Q 1713 4659 2000 4603 
L 1916 4113 
Q 1741 4144 1584 4144 
Q 1328 4144 1222 4034 
Q 1116 3925 1116 3625 
L 1116 3319 
L 1763 3319 
L 1763 2881 
L 1116 2881 
L 1116 0 
L 556 0 
z
" transform="scale(0.015625)"/>
      <path id="ArialMT-61" d="M 2588 409 
Q 2275 144 1986 34 
Q 1697 -75 1366 -75 
Q 819 -75 525 192 
Q 231 459 231 875 
Q 231 1119 342 1320 
Q 453 1522 633 1644 
Q 813 1766 1038 1828 
Q 1203 1872 1538 1913 
Q 2219 1994 2541 2106 
Q 2544 2222 2544 2253 
Q 2544 2597 2384 2738 
Q 2169 2928 1744 2928 
Q 1347 2928 1158 2789 
Q 969 2650 878 2297 
L 328 2372 
Q 403 2725 575 2942 
Q 747 3159 1072 3276 
Q 1397 3394 1825 3394 
Q 2250 3394 2515 3294 
Q 2781 3194 2906 3042 
Q 3031 2891 3081 2659 
Q 3109 2516 3109 2141 
L 3109 1391 
Q 3109 606 3145 398 
Q 3181 191 3288 0 
L 2700 0 
Q 2613 175 2588 409 
z
M 2541 1666 
Q 2234 1541 1622 1453 
Q 1275 1403 1131 1340 
Q 988 1278 909 1158 
Q 831 1038 831 891 
Q 831 666 1001 516 
Q 1172 366 1500 366 
Q 1825 366 2078 508 
Q 2331 650 2450 897 
Q 2541 1088 2541 1459 
L 2541 1666 
z
" transform="scale(0.015625)"/>
     </defs>
     <use xlink:href="#ArialMT-53"/>
     <use xlink:href="#ArialMT-6c" x="66.699219"/>
     <use xlink:href="#ArialMT-69" x="88.916016"/>
     <use xlink:href="#ArialMT-63" x="111.132812"/>
     <use xlink:href="#ArialMT-65" x="161.132812"/>
     <use xlink:href="#ArialMT-20" x="216.748047"/>
     <use xlink:href="#ArialMT-74" x="244.53125"/>
     <use xlink:href="#ArialMT-68" x="272.314453"/>
     <use xlink:href="#ArialMT-72" x="327.929688"/>
     <use xlink:href="#ArialMT-6f" x="361.230469"/>
     <use xlink:href="#ArialMT-75" x="416.845703"/>
     <use xlink:href="#ArialMT-67" x="472.460938"/>
     <use xlink:href="#ArialMT-68" x="528.076172"/>
     <use xlink:href="#ArialMT-20" x="583.691406"/>
     <use xlink:href="#ArialMT-74" x="611.474609"/>
     <use xlink:href="#ArialMT-68" x="639.257812"/>
     <use xlink:href="#ArialMT-65" x="694.873047"/>
     <use xlink:href="#ArialMT-20" x="750.488281"/>
     <use xlink:href="#ArialMT-70" x="778.271484"/>
     <use xlink:href="#ArialMT-72" x="833.886719"/>
     <use xlink:href="#ArialMT-65" x="867.1875"/>
     <use xlink:href="#ArialMT-64" x="922.802734"/>
     <use xlink:href="#ArialMT-69" x="978.417969"/>
     <use xlink:href="#ArialMT-63" x="1000.634766"/>
     <use xlink:href="#ArialMT-74" x="1050.634766"/>
     <use xlink:href="#ArialMT-69" x="1078.417969"/>
     <use xlink:href="#ArialMT-76" x="1100.634766"/>
     <use xlink:href="#ArialMT-65" x="1150.634766"/>
     <use xlink:href="#ArialMT-20" x="1206.25"/>
     <use xlink:href="#ArialMT-73" x="1234.033203"/>
     <use xlink:href="#ArialMT-75" x="1284.033203"/>
     <use xlink:href="#ArialMT-72" x="1339.648438"/>
     <use xlink:href="#ArialMT-66" x="1372.949219"/>
     <use xlink:href="#ArialMT-61" x="1400.732422"/>
     <use xlink:href="#ArialMT-63" x="1456.347656"/>
     <use xlink:href="#ArialMT-65" x="1506.347656"/>
     <use xlink:href="#ArialMT-73" x="1561.962891"/>
    </g>
   </g>
   <g id="legend_1">
    <g id="patch_5">
     <path d="M 33.892 91.855562 
L 137.996 91.855562 
Q 139.756 91.855562 139.756 90.095562 
L 139.756 29.551562 
Q 139.756 27.791562 137.996 27.791562 
L 33.892 27.791562 
Q 32.132 27.791562 32.132 29.551562 
L 32.132 90.095562 
Q 32.132 91.855562 33.892 91.855562 
z
" style="fill: #ffffff; opacity: 0.8; stroke: #cccccc; stroke-width: 0.8; stroke-linejoin: miter"/>
    </g>
    <g id="line2d_18">
     <path d="M 35.652 38.175562 
L 44.452 38.175562 
L 53.252 38.175562 
" style="fill: none; stroke: #1f77b4; stroke-width: 2; stroke-linecap: round"/>
    </g>
    <g id="text_16">
     <!-- Low-fidelity GP, $\hat{f}_\ell$ -->
     <g style="fill: #262626" transform="translate(60.292 41.255562) scale(0.088 -0.088)">
      <defs>
       <path id="ArialMT-4c" d="M 469 0 
L 469 4581 
L 1075 4581 
L 1075 541 
L 3331 541 
L 3331 0 
L 469 0 
z
" transform="scale(0.015625)"/>
       <path id="ArialMT-77" d="M 1034 0 
L 19 3319 
L 600 3319 
L 1128 1403 
L 1325 691 
Q 1338 744 1497 1375 
L 2025 3319 
L 2603 3319 
L 3100 1394 
L 3266 759 
L 3456 1400 
L 4025 3319 
L 4572 3319 
L 3534 0 
L 2950 0 
L 2422 1988 
L 2294 2553 
L 1622 0 
L 1034 0 
z
" transform="scale(0.015625)"/>
       <path id="ArialMT-2d" d="M 203 1375 
L 203 1941 
L 1931 1941 
L 1931 1375 
L 203 1375 
z
" transform="scale(0.015625)"/>
       <path id="ArialMT-79" d="M 397 -1278 
L 334 -750 
Q 519 -800 656 -800 
Q 844 -800 956 -737 
Q 1069 -675 1141 -563 
Q 1194 -478 1313 -144 
Q 1328 -97 1363 -6 
L 103 3319 
L 709 3319 
L 1400 1397 
Q 1534 1031 1641 628 
Q 1738 1016 1872 1384 
L 2581 3319 
L 3144 3319 
L 1881 -56 
Q 1678 -603 1566 -809 
Q 1416 -1088 1222 -1217 
Q 1028 -1347 759 -1347 
Q 597 -1347 397 -1278 
z
" transform="scale(0.015625)"/>
       <path id="ArialMT-47" d="M 2638 1797 
L 2638 2334 
L 4578 2338 
L 4578 638 
Q 4131 281 3656 101 
Q 3181 -78 2681 -78 
Q 2006 -78 1454 211 
Q 903 500 622 1047 
Q 341 1594 341 2269 
Q 341 2938 620 3517 
Q 900 4097 1425 4378 
Q 1950 4659 2634 4659 
Q 3131 4659 3532 4498 
Q 3934 4338 4162 4050 
Q 4391 3763 4509 3300 
L 3963 3150 
Q 3859 3500 3706 3700 
Q 3553 3900 3268 4020 
Q 2984 4141 2638 4141 
Q 2222 4141 1919 4014 
Q 1616 3888 1430 3681 
Q 1244 3475 1141 3228 
Q 966 2803 966 2306 
Q 966 1694 1177 1281 
Q 1388 869 1791 669 
Q 2194 469 2647 469 
Q 3041 469 3416 620 
Q 3791 772 3984 944 
L 3984 1797 
L 2638 1797 
z
" transform="scale(0.015625)"/>
       <path id="ArialMT-50" d="M 494 0 
L 494 4581 
L 2222 4581 
Q 2678 4581 2919 4538 
Q 3256 4481 3484 4323 
Q 3713 4166 3852 3881 
Q 3991 3597 3991 3256 
Q 3991 2672 3619 2267 
Q 3247 1863 2275 1863 
L 1100 1863 
L 1100 0 
L 494 0 
z
M 1100 2403 
L 2284 2403 
Q 2872 2403 3119 2622 
Q 3366 2841 3366 3238 
Q 3366 3525 3220 3729 
Q 3075 3934 2838 4000 
Q 2684 4041 2272 4041 
L 1100 4041 
L 1100 2403 
z
" transform="scale(0.015625)"/>
       <path id="ArialMT-2c" d="M 569 0 
L 569 641 
L 1209 641 
L 1209 0 
Q 1209 -353 1084 -570 
Q 959 -788 688 -906 
L 531 -666 
Q 709 -588 793 -436 
Q 878 -284 888 0 
L 569 0 
z
" transform="scale(0.015625)"/>
       <path id="DejaVuSans-302" d="M -1831 5119 
L -1369 5119 
L -603 3944 
L -1038 3944 
L -1600 4709 
L -2163 3944 
L -2597 3944 
L -1831 5119 
z
M -1600 3584 
L -1600 3584 
z
" transform="scale(0.015625)"/>
       <path id="DejaVuSans-Oblique-66" d="M 3059 4863 
L 2969 4384 
L 2419 4384 
Q 2106 4384 1964 4261 
Q 1822 4138 1753 3809 
L 1691 3500 
L 2638 3500 
L 2553 3053 
L 1606 3053 
L 1013 0 
L 434 0 
L 1031 3053 
L 481 3053 
L 563 3500 
L 1113 3500 
L 1159 3744 
Q 1278 4363 1576 4613 
Q 1875 4863 2516 4863 
L 3059 4863 
z
" transform="scale(0.015625)"/>
       <path id="DejaVuSans-Oblique-2113" d="M 950 838 
Q 1078 213 1350 213 
Q 1531 213 1766 572 
L 2181 572 
Q 1994 253 1775 88 
Q 1538 -91 1319 -91 
Q 831 -91 634 344 
L 400 0 
L -88 0 
Q 250 459 500 888 
Q 469 1131 469 1397 
Q 469 1872 566 2347 
Q 931 4131 1256 4497 
Q 1481 4750 1866 4750 
Q 2256 4750 2256 4209 
Q 2253 3966 2197 3675 
Q 1972 2484 950 838 
z
M 947 1656 
Q 1531 2744 1709 3613 
Q 1803 4072 1803 4191 
Q 1803 4406 1725 4406 
Q 1384 4134 1081 2516 
Q 997 2063 947 1656 
z
" transform="scale(0.015625)"/>
      </defs>
      <use xlink:href="#ArialMT-4c" transform="translate(0 0.53125)"/>
      <use xlink:href="#ArialMT-6f" transform="translate(55.615234 0.53125)"/>
      <use xlink:href="#ArialMT-77" transform="translate(111.230469 0.53125)"/>
      <use xlink:href="#ArialMT-2d" transform="translate(183.447266 0.53125)"/>
      <use xlink:href="#ArialMT-66" transform="translate(216.748047 0.53125)"/>
      <use xlink:href="#ArialMT-69" transform="translate(244.53125 0.53125)"/>
      <use xlink:href="#ArialMT-64" transform="translate(266.748047 0.53125)"/>
      <use xlink:href="#ArialMT-65" transform="translate(322.363281 0.53125)"/>
      <use xlink:href="#ArialMT-6c" transform="translate(377.978516 0.53125)"/>
      <use xlink:href="#ArialMT-69" transform="translate(400.195312 0.53125)"/>
      <use xlink:href="#ArialMT-74" transform="translate(422.412109 0.53125)"/>
      <use xlink:href="#ArialMT-79" transform="translate(450.195312 0.53125)"/>
      <use xlink:href="#ArialMT-20" transform="translate(500.195312 0.53125)"/>
      <use xlink:href="#ArialMT-47" transform="translate(527.978516 0.53125)"/>
      <use xlink:href="#ArialMT-50" transform="translate(605.761719 0.53125)"/>
      <use xlink:href="#ArialMT-2c" transform="translate(672.460938 0.53125)"/>
      <use xlink:href="#ArialMT-20" transform="translate(700.244141 0.53125)"/>
      <use xlink:href="#DejaVuSans-302" transform="translate(775.406738 33.015625)"/>
      <use xlink:href="#DejaVuSans-Oblique-66" transform="translate(728.027344 0.53125)"/>
      <use xlink:href="#DejaVuSans-Oblique-2113" transform="translate(764.189453 -15.875) scale(0.7)"/>
     </g>
    </g>
    <g id="line2d_19">
     <path d="M 35.652 54.455562 
L 44.452 54.455562 
L 53.252 54.455562 
" style="fill: none; stroke: #ff7f0e; stroke-width: 2; stroke-linecap: round"/>
    </g>
    <g id="text_17">
     <!-- High-fidelity GP, $\hat{f}_h$ -->
     <g style="fill: #262626" transform="translate(60.292 57.535562) scale(0.088 -0.088)">
      <defs>
       <path id="ArialMT-48" d="M 513 0 
L 513 4581 
L 1119 4581 
L 1119 2700 
L 3500 2700 
L 3500 4581 
L 4106 4581 
L 4106 0 
L 3500 0 
L 3500 2159 
L 1119 2159 
L 1119 0 
L 513 0 
z
" transform="scale(0.015625)"/>
       <path id="DejaVuSans-Oblique-68" d="M 3566 2113 
L 3156 0 
L 2578 0 
L 2988 2091 
Q 3016 2238 3031 2350 
Q 3047 2463 3047 2528 
Q 3047 2791 2881 2937 
Q 2716 3084 2419 3084 
Q 1956 3084 1617 2771 
Q 1278 2459 1178 1941 
L 800 0 
L 225 0 
L 1172 4863 
L 1747 4863 
L 1375 2950 
Q 1594 3244 1934 3414 
Q 2275 3584 2650 3584 
Q 3113 3584 3367 3334 
Q 3622 3084 3622 2631 
Q 3622 2519 3608 2391 
Q 3594 2263 3566 2113 
z
" transform="scale(0.015625)"/>
      </defs>
      <use xlink:href="#ArialMT-48" transform="translate(0 0.53125)"/>
      <use xlink:href="#ArialMT-69" transform="translate(72.216797 0.53125)"/>
      <use xlink:href="#ArialMT-67" transform="translate(94.433594 0.53125)"/>
      <use xlink:href="#ArialMT-68" transform="translate(150.048828 0.53125)"/>
      <use xlink:href="#ArialMT-2d" transform="translate(205.664062 0.53125)"/>
      <use xlink:href="#ArialMT-66" transform="translate(238.964844 0.53125)"/>
      <use xlink:href="#ArialMT-69" transform="translate(266.748047 0.53125)"/>
      <use xlink:href="#ArialMT-64" transform="translate(288.964844 0.53125)"/>
      <use xlink:href="#ArialMT-65" transform="translate(344.580078 0.53125)"/>
      <use xlink:href="#ArialMT-6c" transform="translate(400.195312 0.53125)"/>
      <use xlink:href="#ArialMT-69" transform="translate(422.412109 0.53125)"/>
      <use xlink:href="#ArialMT-74" transform="translate(444.628906 0.53125)"/>
      <use xlink:href="#ArialMT-79" transform="translate(472.412109 0.53125)"/>
      <use xlink:href="#ArialMT-20" transform="translate(522.412109 0.53125)"/>
      <use xlink:href="#ArialMT-47" transform="translate(550.195312 0.53125)"/>
      <use xlink:href="#ArialMT-50" transform="translate(627.978516 0.53125)"/>
      <use xlink:href="#ArialMT-2c" transform="translate(694.677734 0.53125)"/>
      <use xlink:href="#ArialMT-20" transform="translate(722.460938 0.53125)"/>
      <use xlink:href="#DejaVuSans-302" transform="translate(797.623535 33.015625)"/>
      <use xlink:href="#DejaVuSans-Oblique-66" transform="translate(750.244141 0.53125)"/>
      <use xlink:href="#DejaVuSans-Oblique-68" transform="translate(786.40625 -15.875) scale(0.7)"/>
     </g>
    </g>
    <g id="line2d_20">
     <path d="M 35.652 70.735562 
L 44.452 70.735562 
L 53.252 70.735562 
" style="fill: none; stroke: #2ca02c; stroke-width: 2; stroke-linecap: round"/>
    </g>
    <g id="text_18">
     <!-- Multi-fidelity GP, $\hat{f}_m$ -->
     <g style="fill: #262626" transform="translate(60.292 73.815562) scale(0.088 -0.088)">
      <defs>
       <path id="ArialMT-4d" d="M 475 0 
L 475 4581 
L 1388 4581 
L 2472 1338 
Q 2622 884 2691 659 
Q 2769 909 2934 1394 
L 4031 4581 
L 4847 4581 
L 4847 0 
L 4263 0 
L 4263 3834 
L 2931 0 
L 2384 0 
L 1059 3900 
L 1059 0 
L 475 0 
z
" transform="scale(0.015625)"/>
       <path id="DejaVuSans-Oblique-6d" d="M 5747 2113 
L 5338 0 
L 4763 0 
L 5166 2094 
Q 5191 2228 5203 2325 
Q 5216 2422 5216 2491 
Q 5216 2772 5059 2928 
Q 4903 3084 4622 3084 
Q 4203 3084 3875 2770 
Q 3547 2456 3450 1953 
L 3066 0 
L 2491 0 
L 2900 2094 
Q 2925 2209 2937 2307 
Q 2950 2406 2950 2484 
Q 2950 2769 2794 2926 
Q 2638 3084 2363 3084 
Q 1938 3084 1609 2770 
Q 1281 2456 1184 1953 
L 800 0 
L 225 0 
L 909 3500 
L 1484 3500 
L 1375 2956 
Q 1609 3263 1923 3423 
Q 2238 3584 2597 3584 
Q 2978 3584 3223 3384 
Q 3469 3184 3519 2828 
Q 3781 3197 4126 3390 
Q 4472 3584 4856 3584 
Q 5306 3584 5551 3325 
Q 5797 3066 5797 2591 
Q 5797 2488 5784 2364 
Q 5772 2241 5747 2113 
z
" transform="scale(0.015625)"/>
      </defs>
      <use xlink:href="#ArialMT-4d" transform="translate(0 0.53125)"/>
      <use xlink:href="#ArialMT-75" transform="translate(83.300781 0.53125)"/>
      <use xlink:href="#ArialMT-6c" transform="translate(138.916016 0.53125)"/>
      <use xlink:href="#ArialMT-74" transform="translate(161.132812 0.53125)"/>
      <use xlink:href="#ArialMT-69" transform="translate(188.916016 0.53125)"/>
      <use xlink:href="#ArialMT-2d" transform="translate(211.132812 0.53125)"/>
      <use xlink:href="#ArialMT-66" transform="translate(244.433594 0.53125)"/>
      <use xlink:href="#ArialMT-69" transform="translate(272.216797 0.53125)"/>
      <use xlink:href="#ArialMT-64" transform="translate(294.433594 0.53125)"/>
      <use xlink:href="#ArialMT-65" transform="translate(350.048828 0.53125)"/>
      <use xlink:href="#ArialMT-6c" transform="translate(405.664062 0.53125)"/>
      <use xlink:href="#ArialMT-69" transform="translate(427.880859 0.53125)"/>
      <use xlink:href="#ArialMT-74" transform="translate(450.097656 0.53125)"/>
      <use xlink:href="#ArialMT-79" transform="translate(477.880859 0.53125)"/>
      <use xlink:href="#ArialMT-20" transform="translate(527.880859 0.53125)"/>
      <use xlink:href="#ArialMT-47" transform="translate(555.664062 0.53125)"/>
      <use xlink:href="#ArialMT-50" transform="translate(633.447266 0.53125)"/>
      <use xlink:href="#ArialMT-2c" transform="translate(700.146484 0.53125)"/>
      <use xlink:href="#ArialMT-20" transform="translate(727.929688 0.53125)"/>
      <use xlink:href="#DejaVuSans-302" transform="translate(803.092285 33.015625)"/>
      <use xlink:href="#DejaVuSans-Oblique-66" transform="translate(755.712891 0.53125)"/>
      <use xlink:href="#DejaVuSans-Oblique-6d" transform="translate(791.875 -15.875) scale(0.7)"/>
     </g>
    </g>
    <g id="line2d_21">
     <path d="M 35.652 83.506562 
L 44.452 83.506562 
L 53.252 83.506562 
" style="fill: none; stroke-dasharray: 4.44,1.92; stroke-dashoffset: 0; stroke: #000000; stroke-width: 1.2"/>
    </g>
    <g id="text_19">
     <!-- True function, $f_h$ -->
     <g style="fill: #262626" transform="translate(60.292 86.586562) scale(0.088 -0.088)">
      <defs>
       <path id="ArialMT-54" d="M 1659 0 
L 1659 4041 
L 150 4041 
L 150 4581 
L 3781 4581 
L 3781 4041 
L 2266 4041 
L 2266 0 
L 1659 0 
z
" transform="scale(0.015625)"/>
       <path id="ArialMT-6e" d="M 422 0 
L 422 3319 
L 928 3319 
L 928 2847 
Q 1294 3394 1984 3394 
Q 2284 3394 2536 3286 
Q 2788 3178 2913 3003 
Q 3038 2828 3088 2588 
Q 3119 2431 3119 2041 
L 3119 0 
L 2556 0 
L 2556 2019 
Q 2556 2363 2490 2533 
Q 2425 2703 2258 2804 
Q 2091 2906 1866 2906 
Q 1506 2906 1245 2678 
Q 984 2450 984 1813 
L 984 0 
L 422 0 
z
" transform="scale(0.015625)"/>
      </defs>
      <use xlink:href="#ArialMT-54" transform="translate(0 0.015625)"/>
      <use xlink:href="#ArialMT-72" transform="translate(61.083984 0.015625)"/>
      <use xlink:href="#ArialMT-75" transform="translate(94.384766 0.015625)"/>
      <use xlink:href="#ArialMT-65" transform="translate(150 0.015625)"/>
      <use xlink:href="#ArialMT-20" transform="translate(205.615234 0.015625)"/>
      <use xlink:href="#ArialMT-66" transform="translate(233.398438 0.015625)"/>
      <use xlink:href="#ArialMT-75" transform="translate(261.181641 0.015625)"/>
      <use xlink:href="#ArialMT-6e" transform="translate(316.796875 0.015625)"/>
      <use xlink:href="#ArialMT-63" transform="translate(372.412109 0.015625)"/>
      <use xlink:href="#ArialMT-74" transform="translate(422.412109 0.015625)"/>
      <use xlink:href="#ArialMT-69" transform="translate(450.195312 0.015625)"/>
      <use xlink:href="#ArialMT-6f" transform="translate(472.412109 0.015625)"/>
      <use xlink:href="#ArialMT-6e" transform="translate(528.027344 0.015625)"/>
      <use xlink:href="#ArialMT-2c" transform="translate(583.642578 0.015625)"/>
      <use xlink:href="#ArialMT-20" transform="translate(611.425781 0.015625)"/>
      <use xlink:href="#DejaVuSans-Oblique-66" transform="translate(639.208984 0.015625)"/>
      <use xlink:href="#DejaVuSans-Oblique-68" transform="translate(674.414062 -16.390625) scale(0.7)"/>
     </g>
    </g>
   </g>
  </g>
 </g>
 <defs>
  <clipPath id="p80d8d3dd6d">
   <rect x="27.732" y="23.391562" width="223.2" height="166.32"/>
  </clipPath>
 </defs>
</svg>