<?xml version="1.0" encoding="utf-8" standalone="no"?>
<!DOCTYPE svg PUBLIC "-//W3C//DTD SVG 1.1//EN"
  "http://www.w3.org/Graphics/SVG/1.1/DTD/svg11.dtd">
<svg xmlns:xlink="http://www.w3.org/1999/xlink" width="409.97125pt" height="309.639375pt" viewBox="0 0 409.97125 309.639375" xmlns="http://www.w3.org/2000/svg" version="1.1">
 <metadata>
  <rdf:RDF xmlns:dc="http://purl.org/dc/elements/1.1/" xmlns:cc="http://creativecommons.org/ns#" xmlns:rdf="http://www.w3.org/1999/02/22-rdf-syntax-ns#">
   <cc:Work>
    <dc:type rdf:resource="http://purl.org/dc/dcmitype/StillImage"/>
    <dc:date>2025-02-07T06:01:55.762426</dc:date>
    <dc:format>image/svg+xml</dc:format>
    <dc:creator>
     <cc:Agent>
      <dc:title>Matplotlib v3.9.2, https://matplotlib.org/</dc:title>
     </cc:Agent>
    </dc:creator>
   </cc:Work>
  </rdf:RDF>
 </metadata>
 <defs>
  <style type="text/css">*{stroke-linejoin: round; stroke-linecap: butt}</style>
 </defs>
 <g id="figure_1">
  <g id="patch_1">
   <path d="M 0 309.639375 
L 409.97125 309.639375 
L 409.97125 0 
L 0 0 
z
" style="fill: #ffffff"/>
  </g>
  <g id="axes_1">
   <g id="patch_2">
    <path d="M 45.65125 273.312 
L 402.77125 273.312 
L 402.77125 7.2 
L 45.65125 7.2 
z
" style="fill: #ffffff"/>
   </g>
   <g id="matplotlib.axis_1">
    <g id="xtick_1">
     <g id="line2d_1">
      <defs>
       <path id="mefd7cfdd3f" d="M 0 0 
L 0 4.8 
" style="stroke: #262626"/>
      </defs>
      <g>
       <use xlink:href="#mefd7cfdd3f" x="52.739465" y="273.312" style="fill: #262626; stroke: #262626"/>
      </g>
     </g>
     <g id="text_1">
      <!-- −0.6 -->
      <g style="fill: #262626" transform="translate(44.05359 287.910875) scale(0.088 -0.088)">
       <defs>
        <path id="ArialMT-2212" d="M 3381 1997 
L 356 1997 
L 356 2522 
L 3381 2522 
L 3381 1997 
z
" transform="scale(0.015625)"/>
        <path id="ArialMT-30" d="M 266 2259 
Q 266 3072 433 3567 
Q 600 4063 929 4331 
Q 1259 4600 1759 4600 
Q 2128 4600 2406 4451 
Q 2684 4303 2865 4023 
Q 3047 3744 3150 3342 
Q 3253 2941 3253 2259 
Q 3253 1453 3087 958 
Q 2922 463 2592 192 
Q 2263 -78 1759 -78 
Q 1097 -78 719 397 
Q 266 969 266 2259 
z
M 844 2259 
Q 844 1131 1108 757 
Q 1372 384 1759 384 
Q 2147 384 2411 759 
Q 2675 1134 2675 2259 
Q 2675 3391 2411 3762 
Q 2147 4134 1753 4134 
Q 1366 4134 1134 3806 
Q 844 3388 844 2259 
z
" transform="scale(0.015625)"/>
        <path id="ArialMT-2e" d="M 581 0 
L 581 641 
L 1222 641 
L 1222 0 
L 581 0 
z
" transform="scale(0.015625)"/>
        <path id="ArialMT-36" d="M 3184 3459 
L 2625 3416 
Q 2550 3747 2413 3897 
Q 2184 4138 1850 4138 
Q 1581 4138 1378 3988 
Q 1113 3794 959 3422 
Q 806 3050 800 2363 
Q 1003 2672 1297 2822 
Q 1591 2972 1913 2972 
Q 2475 2972 2870 2558 
Q 3266 2144 3266 1488 
Q 3266 1056 3080 686 
Q 2894 316 2569 119 
Q 2244 -78 1831 -78 
Q 1128 -78 684 439 
Q 241 956 241 2144 
Q 241 3472 731 4075 
Q 1159 4600 1884 4600 
Q 2425 4600 2770 4297 
Q 3116 3994 3184 3459 
z
M 888 1484 
Q 888 1194 1011 928 
Q 1134 663 1356 523 
Q 1578 384 1822 384 
Q 2178 384 2434 671 
Q 2691 959 2691 1453 
Q 2691 1928 2437 2201 
Q 2184 2475 1800 2475 
Q 1419 2475 1153 2201 
Q 888 1928 888 1484 
z
" transform="scale(0.015625)"/>
       </defs>
       <use xlink:href="#ArialMT-2212"/>
       <use xlink:href="#ArialMT-30" x="58.398438"/>
       <use xlink:href="#ArialMT-2e" x="114.013672"/>
       <use xlink:href="#ArialMT-36" x="141.796875"/>
      </g>
     </g>
    </g>
    <g id="xtick_2">
     <g id="line2d_2">
      <g>
       <use xlink:href="#mefd7cfdd3f" x="105.903359" y="273.312" style="fill: #262626; stroke: #262626"/>
      </g>
     </g>
     <g id="text_2">
      <!-- −0.4 -->
      <g style="fill: #262626" transform="translate(97.217484 287.910875) scale(0.088 -0.088)">
       <defs>
        <path id="ArialMT-34" d="M 2069 0 
L 2069 1097 
L 81 1097 
L 81 1613 
L 2172 4581 
L 2631 4581 
L 2631 1613 
L 3250 1613 
L 3250 1097 
L 2631 1097 
L 2631 0 
L 2069 0 
z
M 2069 1613 
L 2069 3678 
L 634 1613 
L 2069 1613 
z
" transform="scale(0.015625)"/>
       </defs>
       <use xlink:href="#ArialMT-2212"/>
       <use xlink:href="#ArialMT-30" x="58.398438"/>
       <use xlink:href="#ArialMT-2e" x="114.013672"/>
       <use xlink:href="#ArialMT-34" x="141.796875"/>
      </g>
     </g>
    </g>
    <g id="xtick_3">
     <g id="line2d_3">
      <g>
       <use xlink:href="#mefd7cfdd3f" x="159.067254" y="273.312" style="fill: #262626; stroke: #262626"/>
      </g>
     </g>
     <g id="text_3">
      <!-- −0.2 -->
      <g style="fill: #262626" transform="translate(150.381379 287.910875) scale(0.088 -0.088)">
       <defs>
        <path id="ArialMT-32" d="M 3222 541 
L 3222 0 
L 194 0 
Q 188 203 259 391 
Q 375 700 629 1000 
Q 884 1300 1366 1694 
Q 2113 2306 2375 2664 
Q 2638 3022 2638 3341 
Q 2638 3675 2398 3904 
Q 2159 4134 1775 4134 
Q 1369 4134 1125 3890 
Q 881 3647 878 3216 
L 300 3275 
Q 359 3922 746 4261 
Q 1134 4600 1788 4600 
Q 2447 4600 2831 4234 
Q 3216 3869 3216 3328 
Q 3216 3053 3103 2787 
Q 2991 2522 2730 2228 
Q 2469 1934 1863 1422 
Q 1356 997 1212 845 
Q 1069 694 975 541 
L 3222 541 
z
" transform="scale(0.015625)"/>
       </defs>
       <use xlink:href="#ArialMT-2212"/>
       <use xlink:href="#ArialMT-30" x="58.398438"/>
       <use xlink:href="#ArialMT-2e" x="114.013672"/>
       <use xlink:href="#ArialMT-32" x="141.796875"/>
      </g>
     </g>
    </g>
    <g id="xtick_4">
     <g id="line2d_4">
      <g>
       <use xlink:href="#mefd7cfdd3f" x="212.231149" y="273.312" style="fill: #262626; stroke: #262626"/>
      </g>
     </g>
     <g id="text_4">
      <!-- 0.0 -->
      <g style="fill: #262626" transform="translate(206.115149 287.910875) scale(0.088 -0.088)">
       <use xlink:href="#ArialMT-30"/>
       <use xlink:href="#ArialMT-2e" x="55.615234"/>
       <use xlink:href="#ArialMT-30" x="83.398438"/>
      </g>
     </g>
    </g>
    <g id="xtick_5">
     <g id="line2d_5">
      <g>
       <use xlink:href="#mefd7cfdd3f" x="265.395043" y="273.312" style="fill: #262626; stroke: #262626"/>
      </g>
     </g>
     <g id="text_5">
      <!-- 0.2 -->
      <g style="fill: #262626" transform="translate(259.279043 287.910875) scale(0.088 -0.088)">
       <use xlink:href="#ArialMT-30"/>
       <use xlink:href="#ArialMT-2e" x="55.615234"/>
       <use xlink:href="#ArialMT-32" x="83.398438"/>
      </g>
     </g>
    </g>
    <g id="xtick_6">
     <g id="line2d_6">
      <g>
       <use xlink:href="#mefd7cfdd3f" x="318.558938" y="273.312" style="fill: #262626; stroke: #262626"/>
      </g>
     </g>
     <g id="text_6">
      <!-- 0.4 -->
      <g style="fill: #262626" transform="translate(312.442938 287.910875) scale(0.088 -0.088)">
       <use xlink:href="#ArialMT-30"/>
       <use xlink:href="#ArialMT-2e" x="55.615234"/>
       <use xlink:href="#ArialMT-34" x="83.398438"/>
      </g>
     </g>
    </g>
    <g id="xtick_7">
     <g id="line2d_7">
      <g>
       <use xlink:href="#mefd7cfdd3f" x="371.722833" y="273.312" style="fill: #262626; stroke: #262626"/>
      </g>
     </g>
     <g id="text_7">
      <!-- 0.6 -->
      <g style="fill: #262626" transform="translate(365.606833 287.910875) scale(0.088 -0.088)">
       <use xlink:href="#ArialMT-30"/>
       <use xlink:href="#ArialMT-2e" x="55.615234"/>
       <use xlink:href="#ArialMT-36" x="83.398438"/>
      </g>
     </g>
    </g>
    <g id="text_8">
     <!-- x -->
     <g style="fill: #262626" transform="translate(221.81125 300.531375) scale(0.096 -0.096)">
      <defs>
       <path id="ArialMT-78" d="M 47 0 
L 1259 1725 
L 138 3319 
L 841 3319 
L 1350 2541 
Q 1494 2319 1581 2169 
Q 1719 2375 1834 2534 
L 2394 3319 
L 3066 3319 
L 1919 1756 
L 3153 0 
L 2463 0 
L 1781 1031 
L 1600 1309 
L 728 0 
L 47 0 
z
" transform="scale(0.015625)"/>
      </defs>
      <use xlink:href="#ArialMT-78"/>
     </g>
    </g>
   </g>
   <g id="matplotlib.axis_2">
    <g id="ytick_1">
     <g id="line2d_8">
      <defs>
       <path id="mae212efb75" d="M 0 0 
L -4.8 0 
" style="stroke: #262626"/>
      </defs>
      <g>
       <use xlink:href="#mae212efb75" x="45.65125" y="271.661387" style="fill: #262626; stroke: #262626"/>
      </g>
     </g>
     <g id="text_9">
      <!-- −0.8 -->
      <g style="fill: #262626" transform="translate(19.9795 274.810825) scale(0.088 -0.088)">
       <defs>
        <path id="ArialMT-38" d="M 1131 2484 
Q 781 2613 612 2850 
Q 444 3088 444 3419 
Q 444 3919 803 4259 
Q 1163 4600 1759 4600 
Q 2359 4600 2725 4251 
Q 3091 3903 3091 3403 
Q 3091 3084 2923 2848 
Q 2756 2613 2416 2484 
Q 2838 2347 3058 2040 
Q 3278 1734 3278 1309 
Q 3278 722 2862 322 
Q 2447 -78 1769 -78 
Q 1091 -78 675 323 
Q 259 725 259 1325 
Q 259 1772 486 2073 
Q 713 2375 1131 2484 
z
M 1019 3438 
Q 1019 3113 1228 2906 
Q 1438 2700 1772 2700 
Q 2097 2700 2305 2904 
Q 2513 3109 2513 3406 
Q 2513 3716 2298 3927 
Q 2084 4138 1766 4138 
Q 1444 4138 1231 3931 
Q 1019 3725 1019 3438 
z
M 838 1322 
Q 838 1081 952 856 
Q 1066 631 1291 507 
Q 1516 384 1775 384 
Q 2178 384 2440 643 
Q 2703 903 2703 1303 
Q 2703 1709 2433 1975 
Q 2163 2241 1756 2241 
Q 1359 2241 1098 1978 
Q 838 1716 838 1322 
z
" transform="scale(0.015625)"/>
       </defs>
       <use xlink:href="#ArialMT-2212"/>
       <use xlink:href="#ArialMT-30" x="58.398438"/>
       <use xlink:href="#ArialMT-2e" x="114.013672"/>
       <use xlink:href="#ArialMT-38" x="141.796875"/>
      </g>
     </g>
    </g>
    <g id="ytick_2">
     <g id="line2d_9">
      <g>
       <use xlink:href="#mae212efb75" x="45.65125" y="239.632102" style="fill: #262626; stroke: #262626"/>
      </g>
     </g>
     <g id="text_10">
      <!-- −0.6 -->
      <g style="fill: #262626" transform="translate(19.9795 242.78154) scale(0.088 -0.088)">
       <use xlink:href="#ArialMT-2212"/>
       <use xlink:href="#ArialMT-30" x="58.398438"/>
       <use xlink:href="#ArialMT-2e" x="114.013672"/>
       <use xlink:href="#ArialMT-36" x="141.796875"/>
      </g>
     </g>
    </g>
    <g id="ytick_3">
     <g id="line2d_10">
      <g>
       <use xlink:href="#mae212efb75" x="45.65125" y="207.602817" style="fill: #262626; stroke: #262626"/>
      </g>
     </g>
     <g id="text_11">
      <!-- −0.4 -->
      <g style="fill: #262626" transform="translate(19.9795 210.752255) scale(0.088 -0.088)">
       <use xlink:href="#ArialMT-2212"/>
       <use xlink:href="#ArialMT-30" x="58.398438"/>
       <use xlink:href="#ArialMT-2e" x="114.013672"/>
       <use xlink:href="#ArialMT-34" x="141.796875"/>
      </g>
     </g>
    </g>
    <g id="ytick_4">
     <g id="line2d_11">
      <g>
       <use xlink:href="#mae212efb75" x="45.65125" y="175.573533" style="fill: #262626; stroke: #262626"/>
      </g>
     </g>
     <g id="text_12">
      <!-- −0.2 -->
      <g style="fill: #262626" transform="translate(19.9795 178.72297) scale(0.088 -0.088)">
       <use xlink:href="#ArialMT-2212"/>
       <use xlink:href="#ArialMT-30" x="58.398438"/>
       <use xlink:href="#ArialMT-2e" x="114.013672"/>
       <use xlink:href="#ArialMT-32" x="141.796875"/>
      </g>
     </g>
    </g>
    <g id="ytick_5">
     <g id="line2d_12">
      <g>
       <use xlink:href="#mae212efb75" x="45.65125" y="143.544248" style="fill: #262626; stroke: #262626"/>
      </g>
     </g>
     <g id="text_13">
      <!-- 0.0 -->
      <g style="fill: #262626" transform="translate(25.11925 146.693685) scale(0.088 -0.088)">
       <use xlink:href="#ArialMT-30"/>
       <use xlink:href="#ArialMT-2e" x="55.615234"/>
       <use xlink:href="#ArialMT-30" x="83.398438"/>
      </g>
     </g>
    </g>
    <g id="ytick_6">
     <g id="line2d_13">
      <g>
       <use xlink:href="#mae212efb75" x="45.65125" y="111.514963" style="fill: #262626; stroke: #262626"/>
      </g>
     </g>
     <g id="text_14">
      <!-- 0.2 -->
      <g style="fill: #262626" transform="translate(25.11925 114.6644) scale(0.088 -0.088)">
       <use xlink:href="#ArialMT-30"/>
       <use xlink:href="#ArialMT-2e" x="55.615234"/>
       <use xlink:href="#ArialMT-32" x="83.398438"/>
      </g>
     </g>
    </g>
    <g id="ytick_7">
     <g id="line2d_14">
      <g>
       <use xlink:href="#mae212efb75" x="45.65125" y="79.485678" style="fill: #262626; stroke: #262626"/>
      </g>
     </g>
     <g id="text_15">
      <!-- 0.4 -->
      <g style="fill: #262626" transform="translate(25.11925 82.635115) scale(0.088 -0.088)">
       <use xlink:href="#ArialMT-30"/>
       <use xlink:href="#ArialMT-2e" x="55.615234"/>
       <use xlink:href="#ArialMT-34" x="83.398438"/>
      </g>
     </g>
    </g>
    <g id="ytick_8">
     <g id="line2d_15">
      <g>
       <use xlink:href="#mae212efb75" x="45.65125" y="47.456393" style="fill: #262626; stroke: #262626"/>
      </g>
     </g>
     <g id="text_16">
      <!-- 0.6 -->
      <g style="fill: #262626" transform="translate(25.11925 50.60583) scale(0.088 -0.088)">
       <use xlink:href="#ArialMT-30"/>
       <use xlink:href="#ArialMT-2e" x="55.615234"/>
       <use xlink:href="#ArialMT-36" x="83.398438"/>
      </g>
     </g>
    </g>
    <g id="ytick_9">
     <g id="line2d_16">
      <g>
       <use xlink:href="#mae212efb75" x="45.65125" y="15.427108" style="fill: #262626; stroke: #262626"/>
      </g>
     </g>
     <g id="text_17">
      <!-- 0.8 -->
      <g style="fill: #262626" transform="translate(25.11925 18.576546) scale(0.088 -0.088)">
       <use xlink:href="#ArialMT-30"/>
       <use xlink:href="#ArialMT-2e" x="55.615234"/>
       <use xlink:href="#ArialMT-38" x="83.398438"/>
      </g>
     </g>
    </g>
    <g id="text_18">
     <!-- v -->
     <g style="fill: #262626" transform="translate(14.0715 142.656) rotate(-90) scale(0.096 -0.096)">
      <defs>
       <path id="ArialMT-76" d="M 1344 0 
L 81 3319 
L 675 3319 
L 1388 1331 
Q 1503 1009 1600 663 
Q 1675 925 1809 1294 
L 2547 3319 
L 3125 3319 
L 1869 0 
L 1344 0 
z
" transform="scale(0.015625)"/>
      </defs>
      <use xlink:href="#ArialMT-76"/>
     </g>
    </g>
   </g>
   <g id="line2d_17">
    <path d="M 212.231149 143.544248 
L 212.353956 140.589927 
L 212.720953 137.665114 
L 213.329077 134.784343 
L 214.17408 131.961927 
L 215.250531 129.211915 
L 216.551839 126.548075 
L 218.070296 123.983835 
L 219.797087 121.532292 
L 221.722316 119.206211 
L 223.835044 117.018005 
L 226.123332 114.979753 
L 228.574224 113.103231 
L 231.173824 111.399915 
L 233.907275 109.880988 
L 236.758819 108.557365 
L 239.711786 107.439693 
L 242.74865 106.5383 
L 245.85104 105.863187 
L 248.999753 105.423942 
L 252.174831 105.229673 
L 255.355576 105.288862 
L 258.520621 105.609213 
L 261.647976 106.197507 
L 264.715155 107.059356 
L 267.699268 108.198999 
L 270.577114 109.619065 
L 273.32538 111.320299 
L 275.920739 113.301373 
L 278.340121 115.558624 
L 280.560799 118.085916 
L 282.560701 120.874442 
L 284.318609 123.912707 
L 285.814353 127.186491 
L 287.029055 130.678918 
L 287.94535 134.370649 
L 288.547575 138.240062 
L 288.821947 142.263642 
L 288.75667 146.416374 
L 288.342125 150.672143 
L 287.570836 155.004339 
L 286.437588 159.38629 
L 284.939333 163.79184 
L 283.075166 168.195853 
L 280.846174 172.574649 
L 278.255434 176.906336 
L 275.30766 181.171212 
L 272.009122 185.351939 
L 268.367472 189.433573 
L 264.39146 193.403625 
L 260.090784 197.251877 
L 255.475924 200.970181 
L 250.557927 204.552105 
L 245.348348 207.992541 
L 239.85913 211.287112 
L 234.102552 214.431744 
L 228.091243 217.421929 
L 221.838244 220.252152 
L 215.357126 222.915114 
L 208.662159 225.401165 
L 201.768506 227.697557 
L 194.692639 229.787824 
L 187.452467 231.651186 
L 180.067854 233.262127 
L 172.561018 234.589921 
L 164.9569 235.598553 
L 157.283701 236.246643 
L 149.573246 236.487771 
L 145.715083 236.440015 
L 141.861399 236.271174 
L 138.017326 235.974358 
L 134.188391 235.542578 
L 130.380283 234.968771 
L 126.599095 234.245836 
L 122.851115 233.366784 
L 119.142992 232.324743 
L 115.481664 231.113012 
L 111.874261 229.725311 
L 108.328214 228.155692 
L 104.851208 226.398714 
L 101.451125 224.449634 
L 98.136006 222.304342 
L 94.914097 219.959616 
L 91.793725 217.413109 
L 88.783288 214.663551 
L 85.891189 211.710783 
L 83.125891 208.555895 
L 80.495759 205.201197 
L 78.009 201.650401 
L 75.673615 197.90861 
L 73.497463 193.982324 
L 71.48799 189.879504 
L 69.652375 185.609534 
L 67.997287 181.183182 
L 66.529048 176.612522 
L 65.253299 171.910967 
L 64.175268 167.093 
L 63.29936 162.174151 
L 62.629536 157.170849 
L 62.168854 152.100299 
L 61.919769 146.980197 
L 61.883977 141.828603 
L 62.062413 136.66377 
L 62.45522 131.503992 
L 63.061842 126.367257 
L 63.880917 121.271147 
L 64.910465 116.232701 
L 66.147681 111.268159 
L 67.589239 106.392801 
L 69.231176 101.620764 
L 71.068756 96.965329 
L 73.097004 92.438103 
L 75.310389 88.049434 
L 77.702924 83.808286 
L 80.268357 79.722137 
L 83.000113 75.796987 
L 85.891403 72.037389 
L 88.935288 68.446469 
L 92.124716 65.025959 
L 95.452614 61.776266 
L 98.911906 58.696677 
L 102.495535 55.785261 
L 106.196608 53.038991 
L 110.00832 50.454011 
L 113.924096 48.025633 
L 117.937519 45.748494 
L 122.042466 43.616552 
L 126.233017 41.623352 
L 130.50355 39.762119 
L 134.84874 38.025817 
L 139.263534 36.40722 
L 143.743232 34.899103 
L 152.879797 32.185707 
L 162.226439 29.830334 
L 171.755569 27.782334 
L 181.443524 25.997913 
L 191.269956 24.441887 
L 201.217121 23.089046 
L 211.268596 21.925577 
L 221.408926 20.949772 
L 231.622148 20.172828 
L 241.890824 19.619448 
L 252.194889 19.327882 
L 262.510543 19.350085 
L 272.809132 19.750928 
L 277.94146 20.116968 
L 283.056082 20.607433 
L 288.147544 21.233501 
L 293.209995 22.006885 
L 298.237075 22.939716 
L 303.221914 24.044414 
L 308.157106 25.333558 
L 313.03472 26.819654 
L 317.846328 28.515197 
L 322.582986 30.432271 
L 327.235258 32.582446 
L 331.793218 34.976564 
L 336.24656 37.624545 
L 340.584533 40.535226 
L 344.796086 43.715958 
L 348.869963 47.172583 
L 352.794445 50.908995 
L 356.557952 54.927219 
L 360.148774 59.226985 
L 363.555281 63.805647 
L 366.766036 68.658035 
L 369.76974 73.776349 
L 372.555588 79.15013 
L 375.113281 84.76615 
L 377.433075 90.608556 
L 379.505876 96.658776 
L 381.323556 102.895901 
L 382.878779 109.296647 
L 384.165365 115.835693 
L 385.178024 122.485834 
L 385.912745 129.218567 
L 386.366773 136.004234 
L 386.538523 142.812393 
L 386.427662 149.612234 
L 386.03522 156.373165 
L 385.363368 163.065075 
L 384.41567 169.658634 
L 383.19677 176.125762 
L 381.712402 182.440079 
L 379.969506 188.577092 
L 377.975909 194.514422 
L 375.740342 200.232054 
L 373.272183 205.712538 
L 370.581685 210.941127 
L 367.679589 215.905693 
L 364.577002 220.596886 
L 361.285443 225.007958 
L 357.8167 229.134837 
L 354.182418 232.975973 
L 350.394685 236.531938 
L 346.465196 239.805576 
L 342.405548 242.801737 
L 338.22718 245.526912 
L 333.941152 247.989233 
L 329.55819 250.198007 
L 325.088592 252.163639 
L 320.542277 253.897478 
L 315.928569 255.411476 
L 311.256342 256.71805 
L 306.533968 257.829868 
L 301.769258 258.759759 
L 296.969486 259.520543 
L 292.141431 260.124771 
L 287.29133 260.584758 
L 282.424918 260.912425 
L 272.663696 261.216 
L 262.894433 261.119848 
L 253.147126 260.697815 
L 243.446215 260.012078 
L 233.811423 259.112627 
L 224.25884 258.037311 
L 214.801903 256.811987 
L 200.821311 254.721348 
L 191.65366 253.160787 
L 182.621493 251.455308 
L 173.737607 249.585359 
L 165.016731 247.523948 
L 156.476097 245.237922 
L 148.135903 242.689377 
L 140.019644 239.837248 
L 132.154265 236.639171 
L 128.32499 234.897247 
L 124.570269 233.053492 
L 120.894142 231.102989 
L 117.301427 229.041483 
L 113.796559 226.864839 
L 110.384617 224.569735 
L 107.070377 222.15297 
L 103.859123 219.612409 
L 100.755863 216.946211 
L 97.766007 214.153722 
L 94.894609 211.234698 
L 92.147128 208.190165 
L 89.528506 205.021623 
L 87.044068 201.732053 
L 84.698558 198.324912 
L 82.496961 194.805153 
L 80.443648 191.178204 
L 78.543119 187.451051 
L 76.799162 183.631115 
L 75.215673 179.727259 
L 73.795775 175.748678 
L 72.542509 171.705961 
L 71.458156 167.60984 
L 70.544808 163.472329 
L 69.803876 159.305314 
L 69.236341 155.121737 
L 68.8426 150.934257 
L 68.622558 146.756375 
L 68.575564 142.600961 
L 68.700384 138.481358 
L 68.995274 134.41071 
L 69.457921 130.40139 
L 70.085536 126.465923 
L 70.874856 122.615731 
L 71.821983 118.862204 
L 72.92283 115.215431 
L 74.172626 111.685237 
L 75.566509 108.280057 
L 77.098932 105.007939 
L 78.764382 101.875466 
L 80.556838 98.88875 
L 82.470232 96.052443 
L 84.498123 93.370647 
L 86.634174 90.846066 
L 88.87165 88.480894 
L 91.204104 86.276024 
L 93.624643 84.231795 
L 96.126842 82.347452 
L 98.703865 80.621765 
L 101.349398 79.052508 
L 104.056762 77.637091 
L 106.819858 76.372107 
L 109.632293 75.253879 
L 112.488314 74.27805 
L 115.381854 73.440096 
L 118.307502 72.735025 
L 121.259657 72.157714 
L 124.233329 71.702739 
L 127.22332 71.364639 
L 133.234079 71.016501 
L 139.256934 71.06818 
L 145.26035 71.475018 
L 151.21672 72.193844 
L 157.101875 73.183719 
L 162.894916 74.406389 
L 168.578008 75.826678 
L 174.136082 77.41251 
L 179.556609 79.135024 
L 187.407592 81.919404 
L 194.900238 84.879035 
L 202.016542 87.951941 
L 208.745816 91.087567 
L 215.082751 94.244397 
L 222.921718 98.428912 
L 230.07209 102.526887 
L 236.552723 106.487002 
L 243.752653 111.179978 
L 250.013509 115.524931 
L 257.351732 120.920819 
L 269.719649 130.178936 
L 272.31387 131.838638 
L 274.609887 133.059435 
L 276.693418 133.896912 
L 278.636663 134.424678 
L 280.859824 134.775821 
L 286.13945 135.461006 
L 287.449628 135.87816 
L 288.674455 136.497117 
L 289.514856 137.121511 
L 290.267925 137.901757 
L 290.913373 138.851482 
L 291.429422 139.981171 
L 291.793179 141.297781 
L 291.981105 142.804754 
L 291.969499 144.50172 
L 291.734865 146.384753 
L 291.254488 148.446355 
L 290.506767 150.675952 
L 289.471554 153.060127 
L 288.130559 155.583334 
L 286.46751 158.228282 
L 284.468423 160.976733 
L 282.121511 163.810201 
L 279.417364 166.710349 
L 276.348735 169.659882 
L 272.910531 172.642692 
L 269.099448 175.644456 
L 264.914038 178.652496 
L 260.354097 181.656122 
L 255.420866 184.646047 
L 250.116444 187.614307 
L 244.444061 190.5533 
L 238.407918 193.455166 
L 232.013043 196.310779 
L 225.266066 199.10829 
L 218.174968 201.831966 
L 210.750401 204.46044 
L 203.005722 206.96521 
L 194.958775 209.308618 
L 186.632351 211.442441 
L 180.940575 212.719181 
L 175.14849 213.85493 
L 169.26877 214.825685 
L 163.31621 215.604724 
L 157.307931 216.162614 
L 151.263598 216.467435 
L 145.20564 216.485079 
L 139.159382 216.179849 
L 133.153147 215.515026 
L 127.218297 214.453908 
L 124.288244 213.763484 
L 121.389286 212.960763 
L 118.525921 212.041615 
L 115.703322 211.002252 
L 112.926315 209.839012 
L 110.200334 208.548765 
L 107.53052 207.12858 
L 104.922483 205.576162 
L 102.381608 203.889473 
L 99.913648 202.067285 
L 97.5241 200.108688 
L 95.218771 198.013706 
L 93.003159 195.78271 
L 90.883071 193.417146 
L 88.863855 190.918829 
L 86.951079 188.290627 
L 85.150059 185.536115 
L 83.466056 182.659895 
L 81.903814 179.666664 
L 80.468159 176.562594 
L 79.163573 173.354409 
L 77.994265 170.049796 
L 76.963972 166.656393 
L 76.076228 163.183226 
L 75.334219 159.639649 
L 74.740652 156.035809 
L 74.297731 152.381459 
L 74.00742 148.687536 
L 73.871066 144.964952 
L 73.889667 141.225028 
L 74.06373 137.478366 
L 74.393287 133.736336 
L 74.877941 130.009967 
L 75.516727 126.310263 
L 76.308423 122.647048 
L 77.251288 119.030629 
L 78.343151 115.470579 
L 79.581389 111.976106 
L 80.963326 108.555022 
L 82.485632 105.215247 
L 84.144784 101.963728 
L 85.936836 98.806846 
L 87.858057 95.749489 
L 89.90405 92.796487 
L 92.070418 89.951579 
L 94.352441 87.217928 
L 96.745775 84.597286 
L 99.245551 82.091218 
L 101.846981 79.700407 
L 104.545275 77.424819 
L 107.335448 75.263863 
L 110.213192 73.215897 
L 113.173673 71.279178 
L 116.212274 69.451368 
L 119.324311 67.72969 
L 122.505936 66.110649 
L 125.752688 64.590786 
L 132.425413 61.832975 
L 139.312721 59.422591 
L 146.386685 57.324411 
L 153.623447 55.502457 
L 161.000943 53.921956 
L 168.501085 52.550034 
L 176.107219 51.35726 
L 183.806169 50.31794 
L 195.502243 49.002813 
L 207.346378 47.940144 
L 219.307895 47.112733 
L 231.357211 46.535518 
L 243.460469 46.257153 
L 251.539222 46.276874 
L 259.607912 46.497852 
L 267.648907 46.958621 
L 275.639879 47.703149 
L 283.555868 48.780079 
L 291.366561 50.241309 
L 295.222177 51.132913 
L 299.038389 52.140877 
L 302.810198 53.271939 
L 306.532114 54.53258 
L 310.199178 55.929417 
L 313.805313 57.468385 
L 317.344491 59.155223 
L 320.810224 60.995017 
L 324.19657 62.992741 
L 327.496638 65.15226 
L 330.703621 67.476821 
L 333.810636 69.968876 
L 336.810451 72.629733 
L 339.696489 75.460276 
L 342.461517 78.459663 
L 345.098542 81.626201 
L 347.600472 84.956687 
L 349.96097 88.447433 
L 352.17331 92.092681 
L 354.231249 95.885722 
L 356.128625 99.818212 
L 357.860097 103.881485 
L 359.420358 108.064792 
L 360.804671 112.356512 
L 362.008646 116.74363 
L 363.028799 121.213225 
L 363.861975 125.750493 
L 364.505625 130.34027 
L 364.957831 134.966475 
L 365.217563 139.613742 
L 365.284155 144.26533 
L 365.157846 148.904836 
L 364.83946 153.515535 
L 364.3305 158.082116 
L 363.633108 162.588648 
L 362.750165 167.020068 
L 361.685126 171.361728 
L 360.44181 175.600881 
L 359.024858 179.724708 
L 357.43931 183.721816 
L 355.690742 187.581671 
L 353.784763 191.295856 
L 351.727774 194.856274 
L 349.526288 198.256433 
L 347.187037 201.491111 
L 344.717167 204.556133 
L 342.123421 207.44927 
L 339.413165 210.168746 
L 336.593617 212.714227 
L 333.672231 215.086195 
L 330.655693 217.286722 
L 327.551308 219.318223 
L 324.366047 221.184152 
L 321.106912 222.888553 
L 317.780037 224.436499 
L 314.392074 225.833231 
L 310.949133 227.084623 
L 307.457416 228.196756 
L 303.922064 229.176322 
L 300.348655 230.029993 
L 296.742297 230.764583 
L 289.449935 231.904246 
L 282.079398 232.65053 
L 274.661642 233.056833 
L 267.222203 233.173717 
L 259.783754 233.047583 
L 252.364116 232.720049 
L 241.303189 231.929236 
L 230.35865 230.865355 
L 219.559499 229.599711 
L 205.425096 227.670934 
L 195.045807 226.062427 
L 184.875947 224.304199 
L 174.935938 222.365046 
L 165.250839 220.197571 
L 158.951639 218.596657 
L 152.79111 216.847798 
L 146.782898 214.930256 
L 140.941429 212.822602 
L 135.283795 210.504307 
L 129.82788 207.955757 
L 124.593932 205.159918 
L 119.602716 202.102379 
L 114.8768 198.773096 
L 110.438661 195.166292 
L 106.311683 191.28223 
L 102.518422 187.126614 
L 99.081208 182.712383 
L 97.502536 180.4139 
L 96.020497 178.058486 
L 94.637349 175.649608 
L 93.355381 173.191315 
L 92.17632 170.687481 
L 91.102076 168.142888 
L 90.134249 165.562522 
L 89.274272 162.95183 
L 87.881879 157.66089 
L 86.931385 152.317514 
L 86.425016 146.970935 
L 86.360982 141.672071 
L 86.733199 136.471591 
L 87.531495 131.417779 
L 88.741673 126.556603 
L 90.346147 121.928916 
L 91.289702 119.714333 
L 92.323821 117.571015 
L 93.445391 115.502673 
L 95.937886 111.603153 
L 98.740608 108.035514 
L 101.825188 104.813333 
L 105.162853 101.943163 
L 108.724031 99.425783 
L 112.479901 97.256084 
L 116.401658 95.424246 
L 120.46213 93.916028 
L 124.634849 92.713976 
L 128.895527 91.797797 
L 133.221158 91.14535 
L 137.590653 90.733248 
L 141.985387 90.53739 
L 146.388091 90.533633 
L 150.784121 90.698059 
L 157.337262 91.209629 
L 163.810229 91.973797 
L 172.270359 93.269809 
L 182.515322 95.14253 
L 212.66047 100.928842 
L 221.361706 102.280046 
L 229.811814 103.349277 
L 238.067377 104.160034 
L 247.784513 104.875183 
L 268.301089 106.270635 
L 274.438181 106.943157 
L 278.956919 107.611621 
L 283.381527 108.460595 
L 287.687464 109.524975 
L 291.845575 110.837317 
L 294.519556 111.864453 
L 297.102964 113.022204 
L 299.584606 114.316687 
L 301.95282 115.752626 
L 304.195897 117.33332 
L 306.30159 119.060118 
L 308.257898 120.932722 
L 310.052675 122.948601 
L 311.674324 125.103498 
L 313.111437 127.390753 
L 314.353462 129.802069 
L 315.390441 132.326832 
L 316.213517 134.953032 
L 316.814768 137.666673 
L 317.187579 140.452824 
L 317.326595 143.295054 
L 317.227871 146.176665 
L 316.888847 149.080108 
L 316.308399 151.988247 
L 315.486924 154.883825 
L 314.426036 157.750724 
L 313.128913 160.573346 
L 311.599659 163.337859 
L 309.843795 166.031499 
L 307.867492 168.64366 
L 305.678079 171.165177 
L 303.283239 173.589247 
L 300.691425 175.910631 
L 297.911123 178.126445 
L 294.951378 180.235283 
L 291.82085 182.237887 
L 288.528499 184.136243 
L 285.082571 185.934099 
L 279.643886 188.453034 
L 273.903697 190.777027 
L 267.885135 192.929597 
L 261.607831 194.936031 
L 255.088406 196.821553 
L 246.042219 199.187822 
L 236.614145 201.427195 
L 224.31943 204.092996 
L 211.48547 206.619592 
L 200.851917 208.506698 
L 189.919349 210.206966 
L 181.546471 211.299946 
L 173.050204 212.174106 
L 164.46249 212.759286 
L 158.706297 212.948678 
L 152.94193 212.946129 
L 147.186973 212.72267 
L 141.460552 212.247912 
L 135.785292 211.490674 
L 130.185488 210.419572 
L 124.688925 209.004093 
L 119.325016 207.215272 
L 116.70283 206.172597 
L 114.12606 205.02715 
L 111.599208 203.776383 
L 109.126328 202.417871 
L 106.712111 200.949802 
L 104.361143 199.370699 
L 102.078241 197.679643 
L 99.867716 195.875859 
L 97.734406 193.959429 
L 95.683018 191.930888 
L 93.718289 189.791519 
L 91.844514 187.542701 
L 90.066325 185.186927 
L 88.388113 182.727171 
L 86.814265 180.167193 
L 85.34857 177.510846 
L 83.995089 174.763201 
L 82.757477 171.929705 
L 81.639266 169.016618 
L 80.643457 166.030107 
L 79.773047 162.977493 
L 79.030626 159.86639 
L 78.418474 156.705031 
L 77.938462 153.501282 
L 77.592174 150.264045 
L 77.380798 147.002213 
L 77.305253 143.725079 
L 77.365873 140.441247 
L 77.562846 137.160115 
L 77.895857 133.890754 
L 78.364145 130.642332 
L 78.966727 127.423051 
L 79.702256 124.241605 
L 80.568927 121.10607 
L 81.564664 118.024136 
L 82.687058 115.003235 
L 83.933583 112.049595 
L 85.301219 109.169619 
L 86.786808 106.36888 
L 88.386806 103.652549 
L 90.097894 101.024545 
L 91.916176 98.48879 
L 93.837785 96.048343 
L 95.858531 93.705799 
L 97.974634 91.462594 
L 100.181785 89.320099 
L 102.475769 87.278919 
L 104.852222 85.339227 
L 107.307277 83.500235 
L 109.836634 81.761088 
L 112.436139 80.120341 
L 115.101548 78.576237 
L 120.615326 75.767988 
L 126.347198 73.314731 
L 132.269127 71.190338 
L 138.354567 69.366332 
L 144.580259 67.81232 
L 150.924603 66.497794 
L 157.36943 65.39252 
L 163.898373 64.467859 
L 173.819398 63.361969 
L 183.860686 62.525012 
L 193.99276 61.895594 
L 207.604366 61.308872 
L 221.292281 60.974723 
L 231.582886 60.902015 
L 241.870932 61.019291 
L 252.129699 61.383193 
L 258.935779 61.799795 
L 265.700138 62.386603 
L 272.407925 63.173818 
L 279.040671 64.193904 
L 285.578102 65.481245 
L 291.996102 67.070785 
L 298.268573 68.997553 
L 304.365674 71.294761 
L 307.338744 72.592052 
L 310.255796 73.993127 
L 313.112491 75.501097 
L 315.90409 77.118586 
L 318.626419 78.848197 
L 321.274582 80.691637 
L 323.843842 82.650249 
L 326.329175 84.724666 
L 328.726162 86.915408 
L 331.029787 89.221818 
L 333.235283 91.642765 
L 335.337768 94.176209 
L 337.332901 96.81997 
L 339.216065 99.570555 
L 340.982885 102.423901 
L 342.629053 105.374981 
L 344.150876 108.418719 
L 345.544513 111.548667 
L 346.806541 114.757883 
L 347.933831 118.038807 
L 348.923484 121.383008 
L 349.773154 124.782305 
L 350.480735 128.227243 
L 351.04453 131.708242 
L 351.463178 135.215114 
L 351.735886 138.738245 
L 351.862132 142.267039 
L 351.841963 145.791102 
L 351.67579 149.299809 
L 351.364422 152.783447 
L 350.909095 156.231661 
L 350.311536 159.634675 
L 349.573851 162.982836 
L 348.698371 166.267689 
L 347.687995 169.480475 
L 346.545843 172.613289 
L 345.275544 175.658636 
L 343.880608 178.610346 
L 342.365185 181.462265 
L 340.733523 184.209189 
L 338.990207 186.84645 
L 337.139588 189.370726 
L 335.186583 191.778843 
L 333.136027 194.068539 
L 330.993092 196.238148 
L 328.762397 198.287155 
L 326.449146 200.215197 
L 324.058355 202.022765 
L 321.595187 203.710739 
L 319.064199 205.280969 
L 316.470453 206.735417 
L 313.818646 208.076598 
L 311.113476 209.307487 
L 308.359443 210.431347 
L 302.722501 212.37248 
L 296.940024 213.931986 
L 291.04274 215.143945 
L 285.057981 216.044246 
L 279.010638 216.668715 
L 272.92121 217.052896 
L 266.808696 217.230414 
L 260.688886 217.233096 
L 251.524463 216.972118 
L 242.408012 216.468389 
L 230.371836 215.537462 
L 215.57056 214.116481 
L 201.084169 212.518688 
L 186.945698 210.752943 
L 175.914029 209.16168 
L 167.823612 207.810867 
L 159.912832 206.275268 
L 152.207093 204.503032 
L 147.200025 203.162929 
L 142.310191 201.67647 
L 137.550773 200.027666 
L 132.935212 198.200735 
L 128.479224 196.181854 
L 124.199272 193.958775 
L 120.113045 191.522079 
L 116.237957 188.864601 
L 112.592813 185.983339 
L 109.196208 182.878908 
L 106.066726 179.556552 
L 103.221637 176.025167 
L 100.677966 172.299138 
L 98.451144 168.397036 
L 96.554997 164.342234 
L 95.000836 160.161124 
L 93.798048 155.884553 
L 92.953187 151.54575 
L 92.469982 147.180384 
L 92.349116 142.824119 
L 92.588306 138.513882 
L 93.182245 134.285385 
L 94.122725 130.172722 
L 95.398688 126.207705 
L 96.99688 122.418026 
L 98.901607 118.828437 
L 101.095378 115.459132 
L 103.559005 112.326015 
L 106.272818 109.439622 
L 109.215791 106.806709 
L 112.366782 104.429345 
L 115.704376 102.305747 
L 119.208198 100.429862 
L 122.857817 98.793071 
L 126.633793 97.383654 
L 130.517549 96.187969 
L 134.492558 95.190167 
L 138.542779 94.373676 
L 142.653865 93.720833 
L 148.906634 93.009347 
L 155.231042 92.565578 
L 161.597081 92.331566 
L 170.111219 92.25325 
L 182.872113 92.414015 
L 206.127993 92.775783 
L 220.881359 92.741152 
L 256.900128 92.439587 
L 265.366109 92.743109 
L 271.667111 93.201172 
L 277.895944 93.916314 
L 281.990988 94.563211 
L 286.025682 95.365164 
L 289.987097 96.338277 
L 293.860102 97.497484 
L 297.628623 98.85673 
L 301.275271 100.428058 
L 304.782532 102.221933 
L 308.131351 104.24586 
L 311.302369 106.504576 
L 314.275819 108.999263 
L 317.0326 111.728067 
L 319.553274 114.684619 
L 321.819333 117.858715 
L 323.813263 121.236051 
L 325.518822 124.798021 
L 326.921823 128.523094 
L 328.009621 132.385511 
L 328.771959 136.356929 
L 329.20104 140.406361 
L 329.291756 144.502254 
L 329.04157 148.611307 
L 328.450808 152.700659 
L 327.522487 156.737895 
L 326.262044 160.69329 
L 324.677565 164.538425 
L 322.77927 168.248291 
L 320.579471 171.800893 
L 318.091634 175.179004 
L 315.331058 178.368452 
L 312.313831 181.359556 
L 309.056939 184.146265 
L 305.576946 186.727241 
L 301.891139 189.103763 
L 298.016335 191.280808 
L 293.969101 193.265741 
L 289.764369 195.068947 
L 285.417047 196.701958 
L 280.94074 198.178131 
L 276.348232 199.511371 
L 269.264718 201.275851 
L 261.9768 202.801552 
L 254.51163 204.135679 
L 244.317029 205.689992 
L 233.880772 207.062626 
L 220.531953 208.607164 
L 206.878989 209.996927 
L 192.956221 211.187386 
L 181.659712 211.905912 
L 173.122291 212.235235 
L 164.559079 212.315193 
L 158.852629 212.193197 
L 153.163129 211.902327 
L 147.505709 211.416057 
L 141.898158 210.706929 
L 136.359299 209.746507 
L 130.911591 208.506727 
L 125.579378 206.960141 
L 120.389612 205.081358 
L 115.370074 202.847146 
L 110.551463 200.238607 
L 108.227375 198.789275 
L 105.965514 197.241477 
L 103.769969 195.594378 
L 101.645199 193.847871 
L 99.594683 192.001438 
L 97.622887 190.055938 
L 95.733917 188.01242 
L 93.931788 185.872497 
L 92.220462 183.638294 
L 90.603812 181.312523 
L 89.085577 178.898402 
L 87.669521 176.400142 
L 86.358677 173.821326 
L 85.1565 171.167198 
L 84.065952 168.44314 
L 83.089878 165.655001 
L 82.230772 162.809121 
L 81.490902 159.912211 
L 80.872262 156.971341 
L 80.376485 153.993924 
L 80.005013 150.988099 
L 79.75874 147.960811 
L 79.63846 144.920515 
L 79.644544 141.875307 
L 79.777016 138.833311 
L 80.03556 135.8026 
L 80.419565 132.791119 
L 80.928073 129.806644 
L 81.559704 126.857192 
L 82.313027 123.949125 
L 83.186115 121.089821 
L 84.176789 118.285815 
L 85.282626 115.543251 
L 86.500933 112.867751 
L 87.828849 110.264472 
L 89.263292 107.738039 
L 90.800698 105.292948 
L 92.438112 102.931973 
L 94.171763 100.658452 
L 95.997927 98.474835 
L 97.91285 96.383021 
L 99.912705 94.384348 
L 101.993571 92.479578 
L 104.151597 90.669074 
L 106.382451 88.952913 
L 108.682987 87.32994 
L 113.476628 84.359733 
L 118.50198 81.745944 
L 123.730168 79.470442 
L 129.133616 77.511339 
L 134.687883 75.843221 
L 140.36949 74.439426 
L 146.157671 73.271981 
L 152.033482 72.31321 
L 157.981649 71.535607 
L 167.008739 70.653186 
L 176.127635 70.041894 
L 185.309777 69.634775 
L 197.613141 69.320982 
L 213.03849 69.191316 
L 228.464562 69.317059 
L 240.767255 69.652272 
L 249.944904 70.100976 
L 259.052387 70.782351 
L 265.069571 71.400615 
L 271.028999 72.17745 
L 276.916016 73.13812 
L 282.715173 74.30913 
L 288.407427 75.717235 
L 293.971993 77.388928 
L 299.385937 79.349544 
L 304.623846 81.622101 
L 309.659814 84.227089 
L 314.465116 87.180305 
L 316.772084 88.791112 
L 319.010321 90.492535 
L 321.175684 92.284683 
L 323.265097 94.168043 
L 325.274427 96.141803 
L 327.19995 98.204951 
L 329.037981 100.355947 
L 330.784941 102.592761 
L 332.437288 104.912811 
L 333.991615 107.313013 
L 335.444493 109.78937 
L 336.793236 112.338512 
L 338.03473 114.955441 
L 339.166267 117.635046 
L 340.185326 120.371754 
L 341.089714 123.159568 
L 341.87737 125.99211 
L 342.54664 128.862634 
L 343.095962 131.763699 
L 343.524425 134.688898 
L 343.831055 137.630327 
L 344.015362 140.580385 
L 344.077154 143.531369 
L 344.016526 146.47555 
L 343.833947 149.405264 
L 343.530169 152.312952 
L 343.106244 155.191178 
L 342.563648 158.032295 
L 341.903893 160.830224 
L 341.128991 163.577912 
L 340.241168 166.269093 
L 339.242881 168.897858 
L 338.136845 171.458798 
L 336.925986 173.94693 
L 335.613399 176.357767 
L 334.202651 178.686965 
L 332.696687 180.931785 
L 331.099351 183.088933 
L 329.414294 185.15598 
L 327.645358 187.131005 
L 325.796347 189.012661 
L 323.871173 190.800088 
L 321.87375 192.492844 
L 319.808316 194.090742 
L 315.487542 197.005671 
L 310.940078 199.55329 
L 306.195823 201.747937 
L 301.283748 203.60833 
L 296.2299 205.157221 
L 291.059527 206.419423 
L 285.795333 207.421579 
L 280.457781 208.191048 
L 275.065448 208.755248 
L 269.633445 209.141057 
L 261.441306 209.441009 
L 253.22948 209.476733 
L 242.29648 209.232507 
L 228.718303 208.639266 
L 209.952952 207.56026 
L 188.921371 206.130076 
L 176.039387 205.026911 
L 165.918627 203.905194 
L 158.463816 202.852367 
L 151.154552 201.558664 
L 146.379203 200.534149 
L 141.69468 199.359622 
L 137.114491 198.018144 
L 132.653203 196.493251 
L 128.326994 194.769988 
L 124.152286 192.834524 
L 120.14749 190.675802 
L 116.331508 188.285248 
L 112.724105 185.657967 
L 109.344509 182.792011 
L 106.212729 179.690342 
L 103.348025 176.360046 
L 100.769148 172.813231 
L 98.493036 169.065763 
L 96.535715 165.138945 
L 94.911039 161.058026 
L 93.630711 156.852447 
L 92.703619 152.55384 
L 92.1361 148.197291 
L 91.93149 143.819133 
L 92.09001 139.456699 
L 92.608871 135.146068 
L 93.482268 130.923032 
L 94.701533 126.820973 
L 96.25533 122.870278 
L 98.129803 119.098101 
L 100.309448 115.526558 
L 102.776664 112.174256 
L 105.512667 109.054763 
L 108.497453 106.177328 
L 111.711194 103.545871 
L 115.133213 101.160835 
L 118.743151 99.018383 
L 122.520869 97.111489 
L 126.447792 95.429534 
L 130.505467 93.960095 
L 134.676832 92.688414 
L 138.945796 91.598631 
L 143.298615 90.67346 
L 149.956569 89.556382 
L 156.735734 88.711632 
L 163.606482 88.082151 
L 172.869732 87.487402 
L 184.561361 86.987725 
L 215.346684 86.033192 
L 239.369798 85.379972 
L 249.038726 85.296215 
L 258.702796 85.453252 
L 265.918817 85.80432 
L 273.074782 86.422146 
L 277.794463 87.014151 
L 282.458182 87.773293 
L 287.051253 88.719369 
L 291.557316 89.87176 
L 295.958142 91.24877 
L 300.235068 92.867534 
L 304.367021 94.742814 
L 308.332151 96.88675 
L 312.107533 99.307992 
L 315.670414 102.011823 
L 317.364494 103.46976 
L 317.364494 103.46976 
" clip-path="url(#pee6482102a)" style="fill: none; stroke: #1f77b4; stroke-linecap: round"/>
   </g>
   <g id="patch_3">
    <path d="M 45.65125 271.661387 
L 45.65125 15.427108 
" style="fill: none; stroke: #262626; stroke-linejoin: miter; stroke-linecap: square"/>
   </g>
   <g id="patch_4">
    <path d="M 52.739465 273.312 
L 371.722833 273.312 
" style="fill: none; stroke: #262626; stroke-linejoin: miter; stroke-linecap: square"/>
   </g>
  </g>
 </g>
 <defs>
  <clipPath id="pee6482102a">
   <rect x="45.65125" y="7.2" width="357.12" height="266.112"/>
  </clipPath>
 </defs>
</svg>