<?xml version="1.0" encoding="utf-8" standalone="no"?>
<!DOCTYPE svg PUBLIC "-//W3C//DTD SVG 1.1//EN"
  "http://www.w3.org/Graphics/SVG/1.1/DTD/svg11.dtd">
<svg xmlns:xlink="http://www.w3.org/1999/xlink" width="409.97125pt" height="309.639375pt" viewBox="0 0 409.97125 309.639375" xmlns="http://www.w3.org/2000/svg" version="1.1">
 <metadata>
  <rdf:RDF xmlns:dc="http://purl.org/dc/elements/1.1/" xmlns:cc="http://creativecommons.org/ns#" xmlns:rdf="http://www.w3.org/1999/02/22-rdf-syntax-ns#">
   <cc:Work>
    <dc:type rdf:resource="http://purl.org/dc/dcmitype/StillImage"/>
    <dc:date>2024-01-22T21:38:41.556500</dc:date>
    <dc:format>image/svg+xml</dc:format>
    <dc:creator>
     <cc:Agent>
      <dc:title>Matplotlib v3.8.0, https://matplotlib.org/</dc:title>
     </cc:Agent>
    </dc:creator>
   </cc:Work>
  </rdf:RDF>
 </metadata>
 <defs>
  <style type="text/css">*{stroke-linejoin: round; stroke-linecap: butt}</style>
 </defs>
 <g id="figure_1">
  <g id="patch_1">
   <path d="M 0 309.639375 
L 409.97125 309.639375 
L 409.97125 0 
L 0 0 
z
" style="fill: #ffffff"/>
  </g>
  <g id="axes_1">
   <g id="patch_2">
    <path d="M 45.65125 273.312 
L 207.978523 273.312 
L 207.978523 7.2 
L 45.65125 7.2 
z
" style="fill: #ffffff"/>
   </g>
   <g id="matplotlib.axis_1">
    <g id="xtick_1">
     <g id="line2d_1">
      <defs>
       <path id="md4b854be5f" d="M 0 0 
L 0 4.8 
" style="stroke: #262626"/>
      </defs>
      <g>
       <use xlink:href="#md4b854be5f" x="53.029762" y="273.312" style="fill: #262626; stroke: #262626"/>
      </g>
     </g>
     <g id="text_1">
      <!-- 0 -->
      <g style="fill: #262626" transform="translate(50.58295 287.910875) scale(0.088 -0.088)">
       <defs>
        <path id="ArialMT-30" d="M 266 2259 
Q 266 3072 433 3567 
Q 600 4063 929 4331 
Q 1259 4600 1759 4600 
Q 2128 4600 2406 4451 
Q 2684 4303 2865 4023 
Q 3047 3744 3150 3342 
Q 3253 2941 3253 2259 
Q 3253 1453 3087 958 
Q 2922 463 2592 192 
Q 2263 -78 1759 -78 
Q 1097 -78 719 397 
Q 266 969 266 2259 
z
M 844 2259 
Q 844 1131 1108 757 
Q 1372 384 1759 384 
Q 2147 384 2411 759 
Q 2675 1134 2675 2259 
Q 2675 3391 2411 3762 
Q 2147 4134 1753 4134 
Q 1366 4134 1134 3806 
Q 844 3388 844 2259 
z
" transform="scale(0.015625)"/>
       </defs>
       <use xlink:href="#ArialMT-30"/>
      </g>
     </g>
    </g>
    <g id="xtick_2">
     <g id="line2d_2">
      <g>
       <use xlink:href="#md4b854be5f" x="82.543812" y="273.312" style="fill: #262626; stroke: #262626"/>
      </g>
     </g>
     <g id="text_2">
      <!-- 2 -->
      <g style="fill: #262626" transform="translate(80.096999 287.910875) scale(0.088 -0.088)">
       <defs>
        <path id="ArialMT-32" d="M 3222 541 
L 3222 0 
L 194 0 
Q 188 203 259 391 
Q 375 700 629 1000 
Q 884 1300 1366 1694 
Q 2113 2306 2375 2664 
Q 2638 3022 2638 3341 
Q 2638 3675 2398 3904 
Q 2159 4134 1775 4134 
Q 1369 4134 1125 3890 
Q 881 3647 878 3216 
L 300 3275 
Q 359 3922 746 4261 
Q 1134 4600 1788 4600 
Q 2447 4600 2831 4234 
Q 3216 3869 3216 3328 
Q 3216 3053 3103 2787 
Q 2991 2522 2730 2228 
Q 2469 1934 1863 1422 
Q 1356 997 1212 845 
Q 1069 694 975 541 
L 3222 541 
z
" transform="scale(0.015625)"/>
       </defs>
       <use xlink:href="#ArialMT-32"/>
      </g>
     </g>
    </g>
    <g id="xtick_3">
     <g id="line2d_3">
      <g>
       <use xlink:href="#md4b854be5f" x="112.057862" y="273.312" style="fill: #262626; stroke: #262626"/>
      </g>
     </g>
     <g id="text_3">
      <!-- 4 -->
      <g style="fill: #262626" transform="translate(109.611049 287.910875) scale(0.088 -0.088)">
       <defs>
        <path id="ArialMT-34" d="M 2069 0 
L 2069 1097 
L 81 1097 
L 81 1613 
L 2172 4581 
L 2631 4581 
L 2631 1613 
L 3250 1613 
L 3250 1097 
L 2631 1097 
L 2631 0 
L 2069 0 
z
M 2069 1613 
L 2069 3678 
L 634 1613 
L 2069 1613 
z
" transform="scale(0.015625)"/>
       </defs>
       <use xlink:href="#ArialMT-34"/>
      </g>
     </g>
    </g>
    <g id="xtick_4">
     <g id="line2d_4">
      <g>
       <use xlink:href="#md4b854be5f" x="141.571911" y="273.312" style="fill: #262626; stroke: #262626"/>
      </g>
     </g>
     <g id="text_4">
      <!-- 6 -->
      <g style="fill: #262626" transform="translate(139.125099 287.910875) scale(0.088 -0.088)">
       <defs>
        <path id="ArialMT-36" d="M 3184 3459 
L 2625 3416 
Q 2550 3747 2413 3897 
Q 2184 4138 1850 4138 
Q 1581 4138 1378 3988 
Q 1113 3794 959 3422 
Q 806 3050 800 2363 
Q 1003 2672 1297 2822 
Q 1591 2972 1913 2972 
Q 2475 2972 2870 2558 
Q 3266 2144 3266 1488 
Q 3266 1056 3080 686 
Q 2894 316 2569 119 
Q 2244 -78 1831 -78 
Q 1128 -78 684 439 
Q 241 956 241 2144 
Q 241 3472 731 4075 
Q 1159 4600 1884 4600 
Q 2425 4600 2770 4297 
Q 3116 3994 3184 3459 
z
M 888 1484 
Q 888 1194 1011 928 
Q 1134 663 1356 523 
Q 1578 384 1822 384 
Q 2178 384 2434 671 
Q 2691 959 2691 1453 
Q 2691 1928 2437 2201 
Q 2184 2475 1800 2475 
Q 1419 2475 1153 2201 
Q 888 1928 888 1484 
z
" transform="scale(0.015625)"/>
       </defs>
       <use xlink:href="#ArialMT-36"/>
      </g>
     </g>
    </g>
    <g id="xtick_5">
     <g id="line2d_5">
      <g>
       <use xlink:href="#md4b854be5f" x="171.085961" y="273.312" style="fill: #262626; stroke: #262626"/>
      </g>
     </g>
     <g id="text_5">
      <!-- 8 -->
      <g style="fill: #262626" transform="translate(168.639148 287.910875) scale(0.088 -0.088)">
       <defs>
        <path id="ArialMT-38" d="M 1131 2484 
Q 781 2613 612 2850 
Q 444 3088 444 3419 
Q 444 3919 803 4259 
Q 1163 4600 1759 4600 
Q 2359 4600 2725 4251 
Q 3091 3903 3091 3403 
Q 3091 3084 2923 2848 
Q 2756 2613 2416 2484 
Q 2838 2347 3058 2040 
Q 3278 1734 3278 1309 
Q 3278 722 2862 322 
Q 2447 -78 1769 -78 
Q 1091 -78 675 323 
Q 259 725 259 1325 
Q 259 1772 486 2073 
Q 713 2375 1131 2484 
z
M 1019 3438 
Q 1019 3113 1228 2906 
Q 1438 2700 1772 2700 
Q 2097 2700 2305 2904 
Q 2513 3109 2513 3406 
Q 2513 3716 2298 3927 
Q 2084 4138 1766 4138 
Q 1444 4138 1231 3931 
Q 1019 3725 1019 3438 
z
M 838 1322 
Q 838 1081 952 856 
Q 1066 631 1291 507 
Q 1516 384 1775 384 
Q 2178 384 2440 643 
Q 2703 903 2703 1303 
Q 2703 1709 2433 1975 
Q 2163 2241 1756 2241 
Q 1359 2241 1098 1978 
Q 838 1716 838 1322 
z
" transform="scale(0.015625)"/>
       </defs>
       <use xlink:href="#ArialMT-38"/>
      </g>
     </g>
    </g>
    <g id="xtick_6">
     <g id="line2d_6">
      <g>
       <use xlink:href="#md4b854be5f" x="200.60001" y="273.312" style="fill: #262626; stroke: #262626"/>
      </g>
     </g>
     <g id="text_6">
      <!-- 10 -->
      <g style="fill: #262626" transform="translate(195.706385 287.910875) scale(0.088 -0.088)">
       <defs>
        <path id="ArialMT-31" d="M 2384 0 
L 1822 0 
L 1822 3584 
Q 1619 3391 1289 3197 
Q 959 3003 697 2906 
L 697 3450 
Q 1169 3672 1522 3987 
Q 1875 4303 2022 4600 
L 2384 4600 
L 2384 0 
z
" transform="scale(0.015625)"/>
       </defs>
       <use xlink:href="#ArialMT-31"/>
       <use xlink:href="#ArialMT-30" x="55.615234"/>
      </g>
     </g>
    </g>
    <g id="text_7">
     <!-- $t$ -->
     <g style="fill: #262626" transform="translate(124.894886 300.531375) scale(0.096 -0.096)">
      <defs>
       <path id="DejaVuSans-Oblique-74" d="M 2706 3500 
L 2619 3053 
L 1472 3053 
L 1100 1153 
Q 1081 1047 1072 975 
Q 1063 903 1063 863 
Q 1063 663 1183 572 
Q 1303 481 1569 481 
L 2150 481 
L 2053 0 
L 1503 0 
Q 991 0 739 200 
Q 488 400 488 806 
Q 488 878 497 964 
Q 506 1050 525 1153 
L 897 3053 
L 409 3053 
L 500 3500 
L 978 3500 
L 1172 4494 
L 1747 4494 
L 1556 3500 
L 2706 3500 
z
" transform="scale(0.015625)"/>
      </defs>
      <use xlink:href="#DejaVuSans-Oblique-74" transform="translate(0 0.78125)"/>
     </g>
    </g>
   </g>
   <g id="matplotlib.axis_2">
    <g id="ytick_1">
     <g id="line2d_7">
      <defs>
       <path id="me3dd7b2c52" d="M 0 0 
L -4.8 0 
" style="stroke: #262626"/>
      </defs>
      <g>
       <use xlink:href="#me3dd7b2c52" x="45.65125" y="261.195304" style="fill: #262626; stroke: #262626"/>
      </g>
     </g>
     <g id="text_8">
      <!-- −0.6 -->
      <g style="fill: #262626" transform="translate(19.9795 264.344741) scale(0.088 -0.088)">
       <defs>
        <path id="ArialMT-2212" d="M 3381 1997 
L 356 1997 
L 356 2522 
L 3381 2522 
L 3381 1997 
z
" transform="scale(0.015625)"/>
        <path id="ArialMT-2e" d="M 581 0 
L 581 641 
L 1222 641 
L 1222 0 
L 581 0 
z
" transform="scale(0.015625)"/>
       </defs>
       <use xlink:href="#ArialMT-2212"/>
       <use xlink:href="#ArialMT-30" x="58.398438"/>
       <use xlink:href="#ArialMT-2e" x="114.013672"/>
       <use xlink:href="#ArialMT-36" x="141.796875"/>
      </g>
     </g>
    </g>
    <g id="ytick_2">
     <g id="line2d_8">
      <g>
       <use xlink:href="#me3dd7b2c52" x="45.65125" y="223.110181" style="fill: #262626; stroke: #262626"/>
      </g>
     </g>
     <g id="text_9">
      <!-- −0.4 -->
      <g style="fill: #262626" transform="translate(19.9795 226.259619) scale(0.088 -0.088)">
       <use xlink:href="#ArialMT-2212"/>
       <use xlink:href="#ArialMT-30" x="58.398438"/>
       <use xlink:href="#ArialMT-2e" x="114.013672"/>
       <use xlink:href="#ArialMT-34" x="141.796875"/>
      </g>
     </g>
    </g>
    <g id="ytick_3">
     <g id="line2d_9">
      <g>
       <use xlink:href="#me3dd7b2c52" x="45.65125" y="185.025059" style="fill: #262626; stroke: #262626"/>
      </g>
     </g>
     <g id="text_10">
      <!-- −0.2 -->
      <g style="fill: #262626" transform="translate(19.9795 188.174496) scale(0.088 -0.088)">
       <use xlink:href="#ArialMT-2212"/>
       <use xlink:href="#ArialMT-30" x="58.398438"/>
       <use xlink:href="#ArialMT-2e" x="114.013672"/>
       <use xlink:href="#ArialMT-32" x="141.796875"/>
      </g>
     </g>
    </g>
    <g id="ytick_4">
     <g id="line2d_10">
      <g>
       <use xlink:href="#me3dd7b2c52" x="45.65125" y="146.939936" style="fill: #262626; stroke: #262626"/>
      </g>
     </g>
     <g id="text_11">
      <!-- 0.0 -->
      <g style="fill: #262626" transform="translate(25.11925 150.089373) scale(0.088 -0.088)">
       <use xlink:href="#ArialMT-30"/>
       <use xlink:href="#ArialMT-2e" x="55.615234"/>
       <use xlink:href="#ArialMT-30" x="83.398438"/>
      </g>
     </g>
    </g>
    <g id="ytick_5">
     <g id="line2d_11">
      <g>
       <use xlink:href="#me3dd7b2c52" x="45.65125" y="108.854813" style="fill: #262626; stroke: #262626"/>
      </g>
     </g>
     <g id="text_12">
      <!-- 0.2 -->
      <g style="fill: #262626" transform="translate(25.11925 112.004251) scale(0.088 -0.088)">
       <use xlink:href="#ArialMT-30"/>
       <use xlink:href="#ArialMT-2e" x="55.615234"/>
       <use xlink:href="#ArialMT-32" x="83.398438"/>
      </g>
     </g>
    </g>
    <g id="ytick_6">
     <g id="line2d_12">
      <g>
       <use xlink:href="#me3dd7b2c52" x="45.65125" y="70.76969" style="fill: #262626; stroke: #262626"/>
      </g>
     </g>
     <g id="text_13">
      <!-- 0.4 -->
      <g style="fill: #262626" transform="translate(25.11925 73.919128) scale(0.088 -0.088)">
       <use xlink:href="#ArialMT-30"/>
       <use xlink:href="#ArialMT-2e" x="55.615234"/>
       <use xlink:href="#ArialMT-34" x="83.398438"/>
      </g>
     </g>
    </g>
    <g id="ytick_7">
     <g id="line2d_13">
      <g>
       <use xlink:href="#me3dd7b2c52" x="45.65125" y="32.684568" style="fill: #262626; stroke: #262626"/>
      </g>
     </g>
     <g id="text_14">
      <!-- 0.6 -->
      <g style="fill: #262626" transform="translate(25.11925 35.834005) scale(0.088 -0.088)">
       <use xlink:href="#ArialMT-30"/>
       <use xlink:href="#ArialMT-2e" x="55.615234"/>
       <use xlink:href="#ArialMT-36" x="83.398438"/>
      </g>
     </g>
    </g>
    <g id="text_15">
     <!-- $x$ -->
     <g style="fill: #262626" transform="translate(14.0715 143.136) rotate(-90) scale(0.096 -0.096)">
      <defs>
       <path id="DejaVuSans-Oblique-78" d="M 3841 3500 
L 2234 1784 
L 3219 0 
L 2559 0 
L 1819 1388 
L 531 0 
L -166 0 
L 1556 1844 
L 641 3500 
L 1300 3500 
L 1972 2234 
L 3144 3500 
L 3841 3500 
z
" transform="scale(0.015625)"/>
      </defs>
      <use xlink:href="#DejaVuSans-Oblique-78" transform="translate(0 0.3125)"/>
     </g>
    </g>
   </g>
   <g id="line2d_14">
    <path d="M 53.029762 160.915345 
L 53.915627 160.062075 
L 54.875313 158.805417 
L 55.908822 157.07633 
L 57.089974 154.642356 
L 58.418771 151.354123 
L 59.895212 147.074037 
L 61.593118 141.434318 
L 63.586314 134.011828 
L 66.243907 123.194869 
L 72.002026 99.513613 
L 73.847578 92.983215 
L 75.324018 88.512566 
L 76.578992 85.373155 
L 77.686323 83.186949 
L 78.646009 81.781811 
L 79.458051 80.973378 
L 80.196273 80.555955 
L 80.860671 80.447458 
L 81.451247 80.568355 
L 82.115645 80.952664 
L 82.780044 81.602403 
L 83.518264 82.63691 
L 84.330306 84.153877 
L 85.289992 86.452899 
L 86.3235 89.528573 
L 87.504652 93.778175 
L 88.833452 99.447041 
L 90.309892 106.770898 
L 92.007798 116.405017 
L 93.927169 128.676987 
L 96.068011 143.846496 
L 98.651781 163.827993 
L 102.416706 194.945715 
L 106.033984 224.356105 
L 107.879537 237.662152 
L 109.282155 246.324845 
L 110.463307 252.328878 
L 111.422993 256.175683 
L 112.235039 258.62585 
L 112.899437 260.044132 
L 113.490013 260.843326 
L 114.006766 261.177965 
L 114.449698 261.190587 
L 114.89263 260.949122 
L 115.409384 260.347036 
L 115.99996 259.24075 
L 116.664358 257.47397 
L 117.4764 254.590711 
L 118.362264 250.588068 
L 119.395772 244.881945 
L 120.650746 236.632077 
L 122.127186 225.38475 
L 123.972743 209.534062 
L 126.408869 186.546376 
L 129.878503 151.495324 
L 138.958615 58.614666 
L 140.656521 44.197077 
L 141.985317 34.68198 
L 143.092647 28.266977 
L 143.978511 24.284197 
L 144.790553 21.617331 
L 145.454951 20.174305 
L 145.971705 19.525389 
L 146.414637 19.303003 
L 146.783747 19.353705 
L 147.152857 19.618177 
L 147.595796 20.215314 
L 148.11255 21.291136 
L 148.776948 23.256943 
L 149.515168 26.173662 
L 150.401032 30.61657 
L 151.43454 36.959295 
L 152.689514 46.070164 
L 154.313598 59.600299 
L 156.602079 80.712804 
L 165.386904 163.512995 
L 168.265962 187.848494 
L 170.628266 205.980889 
L 172.547638 219.047604 
L 174.097907 228.194811 
L 175.426703 234.828823 
L 176.607855 239.65882 
L 177.641362 242.98324 
L 178.527226 245.122558 
L 179.265446 246.387623 
L 179.929851 247.117456 
L 180.520427 247.440178 
L 181.037174 247.472163 
L 181.553935 247.273227 
L 182.144511 246.768379 
L 182.808902 245.85667 
L 183.547122 244.434393 
L 184.432986 242.193411 
L 185.466494 238.906843 
L 186.647646 234.376112 
L 188.124086 227.765363 
L 190.043458 218.045195 
L 193.29164 200.21924 
L 197.204199 179.10392 
L 199.640331 167.144993 
L 200.60001 162.774209 
L 200.60001 162.774209 
" clip-path="url(#pe415411f13)" style="fill: none; stroke: #1f77b4; stroke-width: 1.2; stroke-linecap: round"/>
   </g>
   <g id="line2d_15">
    <path d="M 53.029762 161.508783 
L 53.915627 160.649056 
L 54.875313 159.381739 
L 55.908822 157.637238 
L 57.089974 155.181133 
L 58.418771 151.863002 
L 59.895212 147.544523 
L 61.593118 141.855332 
L 63.586314 134.369512 
L 66.243907 123.463098 
L 71.928204 99.87824 
L 73.773756 93.266256 
L 75.250196 88.729549 
L 76.50517 85.534976 
L 77.612501 83.301791 
L 78.572187 81.857812 
L 79.384229 81.018211 
L 80.122451 80.573996 
L 80.786849 80.44277 
L 81.377425 80.544616 
L 82.041823 80.908863 
L 82.706222 81.540039 
L 83.444442 82.555694 
L 84.256484 84.054131 
L 85.21617 86.334152 
L 86.249678 89.392892 
L 87.43083 93.627324 
L 88.75963 99.28413 
L 90.23607 106.600034 
L 91.933976 116.230915 
L 93.853347 128.504884 
L 95.994189 143.68064 
L 98.577959 163.669596 
L 102.342884 194.780608 
L 105.960162 224.143435 
L 107.805715 237.410415 
L 109.208333 246.042349 
L 110.389485 252.024135 
L 111.349171 255.857819 
L 112.161217 258.301687 
L 112.899437 259.842586 
L 113.490013 260.588933 
L 113.932944 260.858467 
L 114.375876 260.87648 
L 114.818808 260.642018 
L 115.26174 260.155569 
L 115.852316 259.11836 
L 116.516714 257.430385 
L 117.254934 254.928665 
L 118.140798 251.101054 
L 119.174306 245.585093 
L 120.42928 237.540665 
L 121.90572 226.495145 
L 123.751277 210.837218 
L 126.113581 188.738373 
L 129.435571 155.397892 
L 139.032437 57.71164 
L 140.656521 44.139191 
L 141.985317 34.781863 
L 143.092647 28.500304 
L 143.978511 24.621299 
L 144.716731 22.238246 
L 145.381129 20.788717 
L 145.897883 20.129596 
L 146.340815 19.894998 
L 146.709925 19.933135 
L 147.079035 20.183045 
L 147.521974 20.760103 
L 148.038728 21.809366 
L 148.703126 23.736502 
L 149.441346 26.605357 
L 150.32721 30.985953 
L 151.360718 37.251779 
L 152.615692 46.267817 
L 154.239776 59.680403 
L 156.528257 80.650071 
L 165.60837 165.750761 
L 168.413606 189.221165 
L 170.702088 206.592673 
L 172.547638 219.029398 
L 174.097907 228.090071 
L 175.426703 234.648859 
L 176.607855 239.413791 
L 177.641362 242.68457 
L 178.527226 244.781654 
L 179.265446 246.014949 
L 179.929851 246.719369 
L 180.520427 247.022205 
L 181.037174 247.039094 
L 181.553935 246.827287 
L 182.144511 246.310589 
L 182.808902 245.389199 
L 183.547122 243.960735 
L 184.432986 241.718431 
L 185.466494 238.438072 
L 186.647646 233.923391 
L 188.124086 227.343173 
L 190.043458 217.67398 
L 193.29164 199.944876 
L 197.204199 178.942687 
L 199.640331 167.049491 
L 200.60001 162.7038 
L 200.60001 162.7038 
" clip-path="url(#pe415411f13)" style="fill: none; stroke-dasharray: 4.44,1.92; stroke-dashoffset: 0; stroke: #ff7f0e; stroke-width: 1.2"/>
   </g>
   <g id="line2d_16">
    <path d="M 53.029762 152.111108 
L 54.137093 153.781739 
L 55.170601 154.938026 
L 56.056466 155.619063 
L 56.868508 155.993534 
L 57.680551 156.132027 
L 58.492593 156.038806 
L 59.304636 155.719456 
L 60.1905 155.121266 
L 61.150186 154.191118 
L 62.183695 152.878942 
L 63.364848 151.013316 
L 64.693644 148.493259 
L 66.243907 145.067318 
L 68.16328 140.252744 
L 70.894696 132.721373 
L 75.471662 120.08327 
L 77.391035 115.469137 
L 78.941297 112.297301 
L 80.270095 110.076718 
L 81.377425 108.633335 
L 82.337111 107.713355 
L 83.222976 107.157005 
L 84.035018 106.907348 
L 84.773238 106.905129 
L 85.511458 107.123485 
L 86.249678 107.567453 
L 87.06172 108.320959 
L 87.947588 109.463626 
L 88.907274 111.081306 
L 89.940782 113.264544 
L 91.121934 116.313851 
L 92.376908 120.187527 
L 93.779525 125.262612 
L 95.329791 131.740695 
L 97.027697 139.80619 
L 98.947069 150.018812 
L 101.235554 163.471179 
L 104.188434 182.266659 
L 109.503621 216.300429 
L 111.349171 226.572315 
L 112.825615 233.576453 
L 114.006766 238.177453 
L 115.040274 241.34713 
L 115.926138 243.360001 
L 116.664358 244.507352 
L 117.254934 245.064003 
L 117.771688 245.281462 
L 118.288442 245.243836 
L 118.805196 244.949444 
L 119.32195 244.398208 
L 119.912526 243.455468 
L 120.650746 241.814619 
L 121.462788 239.431679 
L 122.422481 235.868563 
L 123.529811 230.816736 
L 124.784785 223.985973 
L 126.261225 214.637436 
L 128.032953 201.864204 
L 130.173791 184.662132 
L 132.757561 162.013292 
L 136.153379 130.140072 
L 143.314113 62.226911 
L 145.085841 47.973431 
L 146.414637 38.90189 
L 147.521974 32.706038 
L 148.48166 28.50674 
L 149.293702 25.889588 
L 149.9581 24.425894 
L 150.474854 23.723302 
L 150.917786 23.429682 
L 151.286896 23.40403 
L 151.656006 23.577644 
L 152.098938 24.047669 
L 152.615692 24.952942 
L 153.206268 26.448293 
L 153.944488 28.984268 
L 154.830352 32.948979 
L 155.863859 38.731171 
L 157.045011 46.663362 
L 158.521451 58.181438 
L 160.44083 75.052485 
L 163.39371 103.253481 
L 171.440315 180.850196 
L 174.319366 206.311754 
L 176.460211 223.409982 
L 178.158109 235.275433 
L 179.560734 243.578663 
L 180.741886 249.301959 
L 181.775394 253.232358 
L 182.661258 255.734362 
L 183.399478 257.178284 
L 183.990054 257.903259 
L 184.506815 258.220918 
L 184.949747 258.257864 
L 185.392679 258.078813 
L 185.909426 257.600048 
L 186.500002 256.704332 
L 187.164407 255.266164 
L 187.976442 252.919772 
L 188.936135 249.37367 
L 190.043458 244.356099 
L 191.372254 237.237142 
L 193.070167 226.822804 
L 195.5063 210.336695 
L 200.60001 175.065089 
L 200.60001 175.065089 
" clip-path="url(#pe415411f13)" style="fill: none; stroke: #2ca02c; stroke-width: 1.2; stroke-linecap: round"/>
   </g>
   <g id="line2d_17">
    <path d="M 53.029762 151.484326 
L 54.137093 153.140259 
L 55.170601 154.287873 
L 56.056466 154.965305 
L 56.94233 155.361918 
L 57.754373 155.481962 
L 58.566415 155.373457 
L 59.378458 155.041978 
L 60.264322 154.434134 
L 61.224008 153.497641 
L 62.331339 152.07778 
L 63.512492 150.19224 
L 64.915111 147.506811 
L 66.539196 143.880267 
L 68.53239 138.842203 
L 71.485272 130.689414 
L 75.39784 119.97517 
L 77.317213 115.343865 
L 78.867475 112.140846 
L 80.196273 109.882104 
L 81.303603 108.39967 
L 82.337111 107.380719 
L 83.222976 106.809469 
L 84.035018 106.544872 
L 84.773238 106.528281 
L 85.511458 106.7317 
L 86.249678 107.160413 
L 87.06172 107.897036 
L 87.947588 109.021443 
L 88.907274 110.619964 
L 89.940782 112.783691 
L 91.121934 115.812673 
L 92.376908 119.66757 
L 93.779525 124.725633 
L 95.329791 131.190313 
L 97.027697 139.248562 
L 98.947069 149.464234 
L 101.161732 162.488081 
L 104.04079 180.851898 
L 109.872731 218.438311 
L 111.644459 228.247056 
L 113.047081 234.859741 
L 114.228232 239.420431 
L 115.187918 242.337059 
L 115.99996 244.196446 
L 116.73818 245.371538 
L 117.328756 245.94401 
L 117.84551 246.170289 
L 118.362264 246.136669 
L 118.879018 245.841393 
L 119.395772 245.284277 
L 119.986348 244.328835 
L 120.724568 242.663345 
L 121.53661 240.242807 
L 122.496303 236.622333 
L 123.603633 231.490027 
L 124.858607 224.554354 
L 126.335047 215.071401 
L 128.106775 202.131922 
L 130.247613 184.73329 
L 132.905205 161.17866 
L 136.301023 128.948471 
L 143.461757 60.208678 
L 145.159663 46.38393 
L 146.488459 37.19874 
L 147.595796 30.95567 
L 148.555482 26.758972 
L 149.367524 24.179423 
L 150.031922 22.771651 
L 150.548676 22.128183 
L 150.991608 21.895832 
L 151.360718 21.928407 
L 151.729828 22.166388 
L 152.17276 22.721313 
L 152.689514 23.735129 
L 153.353912 25.603823 
L 154.092132 28.394759 
L 154.977996 32.67109 
L 156.011503 38.812416 
L 157.266477 47.693556 
L 158.816739 60.355562 
L 160.883762 79.198335 
L 164.50104 114.599858 
L 170.628266 174.334408 
L 173.802619 203.149875 
L 176.017279 221.400585 
L 177.789006 234.250306 
L 179.191631 242.925581 
L 180.372783 248.974856 
L 181.406291 253.192292 
L 182.292155 255.936374 
L 183.030375 257.575827 
L 183.694766 258.533357 
L 184.211527 258.934531 
L 184.654459 259.038591 
L 185.097391 258.922341 
L 185.614138 258.511281 
L 186.204714 257.68513 
L 186.869119 256.315245 
L 187.607339 254.271201 
L 188.493203 251.142005 
L 189.526711 246.650177 
L 190.781678 240.154389 
L 192.331947 230.892874 
L 194.472792 216.627259 
L 200.60001 173.919446 
L 200.60001 173.919446 
" clip-path="url(#pe415411f13)" style="fill: none; stroke-dasharray: 4.44,1.92; stroke-dashoffset: 0; stroke: #d62728; stroke-width: 1.2"/>
   </g>
   <g id="patch_3">
    <path d="M 45.65125 261.195304 
L 45.65125 32.684568 
" style="fill: none; stroke: #262626; stroke-linejoin: miter; stroke-linecap: square"/>
   </g>
   <g id="patch_4">
    <path d="M 53.029762 273.312 
L 200.60001 273.312 
" style="fill: none; stroke: #262626; stroke-linejoin: miter; stroke-linecap: square"/>
   </g>
   <g id="legend_1">
    <g id="patch_5">
     <path d="M 51.81125 64.0315 
L 111.916625 64.0315 
Q 113.676625 64.0315 113.676625 62.2715 
L 113.676625 13.36 
Q 113.676625 11.6 111.916625 11.6 
L 51.81125 11.6 
Q 50.05125 11.6 50.05125 13.36 
L 50.05125 62.2715 
Q 50.05125 64.0315 51.81125 64.0315 
z
" style="fill: #ffffff; opacity: 0.8; stroke: #cccccc; stroke-width: 0.8; stroke-linejoin: miter"/>
    </g>
    <g id="line2d_18">
     <path d="M 53.57125 18.338875 
L 62.37125 18.338875 
L 71.17125 18.338875 
" style="fill: none; stroke: #1f77b4; stroke-width: 1.2; stroke-linecap: round"/>
    </g>
    <g id="text_16">
     <!-- PC 1 x -->
     <g style="fill: #262626" transform="translate(78.21125 21.418875) scale(0.088 -0.088)">
      <defs>
       <path id="ArialMT-50" d="M 494 0 
L 494 4581 
L 2222 4581 
Q 2678 4581 2919 4538 
Q 3256 4481 3484 4323 
Q 3713 4166 3852 3881 
Q 3991 3597 3991 3256 
Q 3991 2672 3619 2267 
Q 3247 1863 2275 1863 
L 1100 1863 
L 1100 0 
L 494 0 
z
M 1100 2403 
L 2284 2403 
Q 2872 2403 3119 2622 
Q 3366 2841 3366 3238 
Q 3366 3525 3220 3729 
Q 3075 3934 2838 4000 
Q 2684 4041 2272 4041 
L 1100 4041 
L 1100 2403 
z
" transform="scale(0.015625)"/>
       <path id="ArialMT-43" d="M 3763 1606 
L 4369 1453 
Q 4178 706 3683 314 
Q 3188 -78 2472 -78 
Q 1731 -78 1267 223 
Q 803 525 561 1097 
Q 319 1669 319 2325 
Q 319 3041 592 3573 
Q 866 4106 1370 4382 
Q 1875 4659 2481 4659 
Q 3169 4659 3637 4309 
Q 4106 3959 4291 3325 
L 3694 3184 
Q 3534 3684 3231 3912 
Q 2928 4141 2469 4141 
Q 1941 4141 1586 3887 
Q 1231 3634 1087 3207 
Q 944 2781 944 2328 
Q 944 1744 1114 1308 
Q 1284 872 1643 656 
Q 2003 441 2422 441 
Q 2931 441 3284 734 
Q 3638 1028 3763 1606 
z
" transform="scale(0.015625)"/>
       <path id="ArialMT-20" transform="scale(0.015625)"/>
       <path id="ArialMT-78" d="M 47 0 
L 1259 1725 
L 138 3319 
L 841 3319 
L 1350 2541 
Q 1494 2319 1581 2169 
Q 1719 2375 1834 2534 
L 2394 3319 
L 3066 3319 
L 1919 1756 
L 3153 0 
L 2463 0 
L 1781 1031 
L 1600 1309 
L 728 0 
L 47 0 
z
" transform="scale(0.015625)"/>
      </defs>
      <use xlink:href="#ArialMT-50"/>
      <use xlink:href="#ArialMT-43" x="66.699219"/>
      <use xlink:href="#ArialMT-20" x="138.916016"/>
      <use xlink:href="#ArialMT-31" x="166.699219"/>
      <use xlink:href="#ArialMT-20" x="222.314453"/>
      <use xlink:href="#ArialMT-78" x="250.097656"/>
     </g>
    </g>
    <g id="line2d_19">
     <path d="M 53.57125 30.78675 
L 62.37125 30.78675 
L 71.17125 30.78675 
" style="fill: none; stroke-dasharray: 4.44,1.92; stroke-dashoffset: 0; stroke: #ff7f0e; stroke-width: 1.2"/>
    </g>
    <g id="text_17">
     <!-- True 1 x -->
     <g style="fill: #262626" transform="translate(78.21125 33.86675) scale(0.088 -0.088)">
      <defs>
       <path id="ArialMT-54" d="M 1659 0 
L 1659 4041 
L 150 4041 
L 150 4581 
L 3781 4581 
L 3781 4041 
L 2266 4041 
L 2266 0 
L 1659 0 
z
" transform="scale(0.015625)"/>
       <path id="ArialMT-72" d="M 416 0 
L 416 3319 
L 922 3319 
L 922 2816 
Q 1116 3169 1280 3281 
Q 1444 3394 1641 3394 
Q 1925 3394 2219 3213 
L 2025 2691 
Q 1819 2813 1613 2813 
Q 1428 2813 1281 2702 
Q 1134 2591 1072 2394 
Q 978 2094 978 1738 
L 978 0 
L 416 0 
z
" transform="scale(0.015625)"/>
       <path id="ArialMT-75" d="M 2597 0 
L 2597 488 
Q 2209 -75 1544 -75 
Q 1250 -75 995 37 
Q 741 150 617 320 
Q 494 491 444 738 
Q 409 903 409 1263 
L 409 3319 
L 972 3319 
L 972 1478 
Q 972 1038 1006 884 
Q 1059 663 1231 536 
Q 1403 409 1656 409 
Q 1909 409 2131 539 
Q 2353 669 2445 892 
Q 2538 1116 2538 1541 
L 2538 3319 
L 3100 3319 
L 3100 0 
L 2597 0 
z
" transform="scale(0.015625)"/>
       <path id="ArialMT-65" d="M 2694 1069 
L 3275 997 
Q 3138 488 2766 206 
Q 2394 -75 1816 -75 
Q 1088 -75 661 373 
Q 234 822 234 1631 
Q 234 2469 665 2931 
Q 1097 3394 1784 3394 
Q 2450 3394 2872 2941 
Q 3294 2488 3294 1666 
Q 3294 1616 3291 1516 
L 816 1516 
Q 847 969 1125 678 
Q 1403 388 1819 388 
Q 2128 388 2347 550 
Q 2566 713 2694 1069 
z
M 847 1978 
L 2700 1978 
Q 2663 2397 2488 2606 
Q 2219 2931 1791 2931 
Q 1403 2931 1139 2672 
Q 875 2413 847 1978 
z
" transform="scale(0.015625)"/>
      </defs>
      <use xlink:href="#ArialMT-54"/>
      <use xlink:href="#ArialMT-72" x="57.333984"/>
      <use xlink:href="#ArialMT-75" x="90.634766"/>
      <use xlink:href="#ArialMT-65" x="146.25"/>
      <use xlink:href="#ArialMT-20" x="201.865234"/>
      <use xlink:href="#ArialMT-31" x="229.648438"/>
      <use xlink:href="#ArialMT-20" x="285.263672"/>
      <use xlink:href="#ArialMT-78" x="313.046875"/>
     </g>
    </g>
    <g id="line2d_20">
     <path d="M 53.57125 43.234625 
L 62.37125 43.234625 
L 71.17125 43.234625 
" style="fill: none; stroke: #2ca02c; stroke-width: 1.2; stroke-linecap: round"/>
    </g>
    <g id="text_18">
     <!-- PC 2 x -->
     <g style="fill: #262626" transform="translate(78.21125 46.314625) scale(0.088 -0.088)">
      <use xlink:href="#ArialMT-50"/>
      <use xlink:href="#ArialMT-43" x="66.699219"/>
      <use xlink:href="#ArialMT-20" x="138.916016"/>
      <use xlink:href="#ArialMT-32" x="166.699219"/>
      <use xlink:href="#ArialMT-20" x="222.314453"/>
      <use xlink:href="#ArialMT-78" x="250.097656"/>
     </g>
    </g>
    <g id="line2d_21">
     <path d="M 53.57125 55.6825 
L 62.37125 55.6825 
L 71.17125 55.6825 
" style="fill: none; stroke-dasharray: 4.44,1.92; stroke-dashoffset: 0; stroke: #d62728; stroke-width: 1.2"/>
    </g>
    <g id="text_19">
     <!-- True 2 x -->
     <g style="fill: #262626" transform="translate(78.21125 58.7625) scale(0.088 -0.088)">
      <use xlink:href="#ArialMT-54"/>
      <use xlink:href="#ArialMT-72" x="57.333984"/>
      <use xlink:href="#ArialMT-75" x="90.634766"/>
      <use xlink:href="#ArialMT-65" x="146.25"/>
      <use xlink:href="#ArialMT-20" x="201.865234"/>
      <use xlink:href="#ArialMT-32" x="229.648438"/>
      <use xlink:href="#ArialMT-20" x="285.263672"/>
      <use xlink:href="#ArialMT-78" x="313.046875"/>
     </g>
    </g>
   </g>
  </g>
  <g id="axes_2">
   <g id="patch_6">
    <path d="M 240.443977 273.312 
L 402.77125 273.312 
L 402.77125 7.2 
L 240.443977 7.2 
z
" style="fill: #ffffff"/>
   </g>
   <g id="matplotlib.axis_3">
    <g id="xtick_7">
     <g id="line2d_22">
      <g>
       <use xlink:href="#md4b854be5f" x="247.82249" y="273.312" style="fill: #262626; stroke: #262626"/>
      </g>
     </g>
     <g id="text_20">
      <!-- 0 -->
      <g style="fill: #262626" transform="translate(245.375677 287.910875) scale(0.088 -0.088)">
       <use xlink:href="#ArialMT-30"/>
      </g>
     </g>
    </g>
    <g id="xtick_8">
     <g id="line2d_23">
      <g>
       <use xlink:href="#md4b854be5f" x="277.336539" y="273.312" style="fill: #262626; stroke: #262626"/>
      </g>
     </g>
     <g id="text_21">
      <!-- 2 -->
      <g style="fill: #262626" transform="translate(274.889727 287.910875) scale(0.088 -0.088)">
       <use xlink:href="#ArialMT-32"/>
      </g>
     </g>
    </g>
    <g id="xtick_9">
     <g id="line2d_24">
      <g>
       <use xlink:href="#md4b854be5f" x="306.850589" y="273.312" style="fill: #262626; stroke: #262626"/>
      </g>
     </g>
     <g id="text_22">
      <!-- 4 -->
      <g style="fill: #262626" transform="translate(304.403776 287.910875) scale(0.088 -0.088)">
       <use xlink:href="#ArialMT-34"/>
      </g>
     </g>
    </g>
    <g id="xtick_10">
     <g id="line2d_25">
      <g>
       <use xlink:href="#md4b854be5f" x="336.364638" y="273.312" style="fill: #262626; stroke: #262626"/>
      </g>
     </g>
     <g id="text_23">
      <!-- 6 -->
      <g style="fill: #262626" transform="translate(333.917826 287.910875) scale(0.088 -0.088)">
       <use xlink:href="#ArialMT-36"/>
      </g>
     </g>
    </g>
    <g id="xtick_11">
     <g id="line2d_26">
      <g>
       <use xlink:href="#md4b854be5f" x="365.878688" y="273.312" style="fill: #262626; stroke: #262626"/>
      </g>
     </g>
     <g id="text_24">
      <!-- 8 -->
      <g style="fill: #262626" transform="translate(363.431876 287.910875) scale(0.088 -0.088)">
       <use xlink:href="#ArialMT-38"/>
      </g>
     </g>
    </g>
    <g id="xtick_12">
     <g id="line2d_27">
      <g>
       <use xlink:href="#md4b854be5f" x="395.392738" y="273.312" style="fill: #262626; stroke: #262626"/>
      </g>
     </g>
     <g id="text_25">
      <!-- 10 -->
      <g style="fill: #262626" transform="translate(390.499113 287.910875) scale(0.088 -0.088)">
       <use xlink:href="#ArialMT-31"/>
       <use xlink:href="#ArialMT-30" x="55.615234"/>
      </g>
     </g>
    </g>
    <g id="text_26">
     <!-- $t$ -->
     <g style="fill: #262626" transform="translate(319.687614 300.531375) scale(0.096 -0.096)">
      <use xlink:href="#DejaVuSans-Oblique-74" transform="translate(0 0.78125)"/>
     </g>
    </g>
   </g>
   <g id="matplotlib.axis_4">
    <g id="ytick_8">
     <g id="line2d_28">
      <g>
       <use xlink:href="#me3dd7b2c52" x="240.443977" y="265.906023" style="fill: #262626; stroke: #262626"/>
      </g>
     </g>
     <g id="text_27">
      <!-- −0.8 -->
      <g style="fill: #262626" transform="translate(214.772227 269.05546) scale(0.088 -0.088)">
       <use xlink:href="#ArialMT-2212"/>
       <use xlink:href="#ArialMT-30" x="58.398438"/>
       <use xlink:href="#ArialMT-2e" x="114.013672"/>
       <use xlink:href="#ArialMT-38" x="141.796875"/>
      </g>
     </g>
    </g>
    <g id="ytick_9">
     <g id="line2d_29">
      <g>
       <use xlink:href="#me3dd7b2c52" x="240.443977" y="235.378164" style="fill: #262626; stroke: #262626"/>
      </g>
     </g>
     <g id="text_28">
      <!-- −0.6 -->
      <g style="fill: #262626" transform="translate(214.772227 238.527602) scale(0.088 -0.088)">
       <use xlink:href="#ArialMT-2212"/>
       <use xlink:href="#ArialMT-30" x="58.398438"/>
       <use xlink:href="#ArialMT-2e" x="114.013672"/>
       <use xlink:href="#ArialMT-36" x="141.796875"/>
      </g>
     </g>
    </g>
    <g id="ytick_10">
     <g id="line2d_30">
      <g>
       <use xlink:href="#me3dd7b2c52" x="240.443977" y="204.850306" style="fill: #262626; stroke: #262626"/>
      </g>
     </g>
     <g id="text_29">
      <!-- −0.4 -->
      <g style="fill: #262626" transform="translate(214.772227 207.999744) scale(0.088 -0.088)">
       <use xlink:href="#ArialMT-2212"/>
       <use xlink:href="#ArialMT-30" x="58.398438"/>
       <use xlink:href="#ArialMT-2e" x="114.013672"/>
       <use xlink:href="#ArialMT-34" x="141.796875"/>
      </g>
     </g>
    </g>
    <g id="ytick_11">
     <g id="line2d_31">
      <g>
       <use xlink:href="#me3dd7b2c52" x="240.443977" y="174.322448" style="fill: #262626; stroke: #262626"/>
      </g>
     </g>
     <g id="text_30">
      <!-- −0.2 -->
      <g style="fill: #262626" transform="translate(214.772227 177.471885) scale(0.088 -0.088)">
       <use xlink:href="#ArialMT-2212"/>
       <use xlink:href="#ArialMT-30" x="58.398438"/>
       <use xlink:href="#ArialMT-2e" x="114.013672"/>
       <use xlink:href="#ArialMT-32" x="141.796875"/>
      </g>
     </g>
    </g>
    <g id="ytick_12">
     <g id="line2d_32">
      <g>
       <use xlink:href="#me3dd7b2c52" x="240.443977" y="143.794589" style="fill: #262626; stroke: #262626"/>
      </g>
     </g>
     <g id="text_31">
      <!-- 0.0 -->
      <g style="fill: #262626" transform="translate(219.911977 146.944027) scale(0.088 -0.088)">
       <use xlink:href="#ArialMT-30"/>
       <use xlink:href="#ArialMT-2e" x="55.615234"/>
       <use xlink:href="#ArialMT-30" x="83.398438"/>
      </g>
     </g>
    </g>
    <g id="ytick_13">
     <g id="line2d_33">
      <g>
       <use xlink:href="#me3dd7b2c52" x="240.443977" y="113.266731" style="fill: #262626; stroke: #262626"/>
      </g>
     </g>
     <g id="text_32">
      <!-- 0.2 -->
      <g style="fill: #262626" transform="translate(219.911977 116.416169) scale(0.088 -0.088)">
       <use xlink:href="#ArialMT-30"/>
       <use xlink:href="#ArialMT-2e" x="55.615234"/>
       <use xlink:href="#ArialMT-32" x="83.398438"/>
      </g>
     </g>
    </g>
    <g id="ytick_14">
     <g id="line2d_34">
      <g>
       <use xlink:href="#me3dd7b2c52" x="240.443977" y="82.738873" style="fill: #262626; stroke: #262626"/>
      </g>
     </g>
     <g id="text_33">
      <!-- 0.4 -->
      <g style="fill: #262626" transform="translate(219.911977 85.88831) scale(0.088 -0.088)">
       <use xlink:href="#ArialMT-30"/>
       <use xlink:href="#ArialMT-2e" x="55.615234"/>
       <use xlink:href="#ArialMT-34" x="83.398438"/>
      </g>
     </g>
    </g>
    <g id="ytick_15">
     <g id="line2d_35">
      <g>
       <use xlink:href="#me3dd7b2c52" x="240.443977" y="52.211014" style="fill: #262626; stroke: #262626"/>
      </g>
     </g>
     <g id="text_34">
      <!-- 0.6 -->
      <g style="fill: #262626" transform="translate(219.911977 55.360452) scale(0.088 -0.088)">
       <use xlink:href="#ArialMT-30"/>
       <use xlink:href="#ArialMT-2e" x="55.615234"/>
       <use xlink:href="#ArialMT-36" x="83.398438"/>
      </g>
     </g>
    </g>
    <g id="ytick_16">
     <g id="line2d_36">
      <g>
       <use xlink:href="#me3dd7b2c52" x="240.443977" y="21.683156" style="fill: #262626; stroke: #262626"/>
      </g>
     </g>
     <g id="text_35">
      <!-- 0.8 -->
      <g style="fill: #262626" transform="translate(219.911977 24.832594) scale(0.088 -0.088)">
       <use xlink:href="#ArialMT-30"/>
       <use xlink:href="#ArialMT-2e" x="55.615234"/>
       <use xlink:href="#ArialMT-38" x="83.398438"/>
      </g>
     </g>
    </g>
    <g id="text_36">
     <!-- $v$ -->
     <g style="fill: #262626" transform="translate(208.864227 143.136) rotate(-90) scale(0.096 -0.096)">
      <defs>
       <path id="DejaVuSans-Oblique-76" d="M 459 3500 
L 1069 3500 
L 1581 525 
L 3256 3500 
L 3866 3500 
L 1875 0 
L 1100 0 
L 459 3500 
z
" transform="scale(0.015625)"/>
      </defs>
      <use xlink:href="#DejaVuSans-Oblique-76" transform="translate(0 0.3125)"/>
     </g>
    </g>
   </g>
   <g id="line2d_37">
    <path d="M 247.82249 134.397028 
L 250.849193 121.221337 
L 252.990032 112.868645 
L 254.761761 106.823915 
L 256.238202 102.514049 
L 257.566998 99.280265 
L 258.748151 96.973506 
L 259.78166 95.431543 
L 260.667524 94.489185 
L 261.479567 93.951497 
L 262.143965 93.755144 
L 262.808364 93.78736 
L 263.472762 94.056743 
L 264.13716 94.571504 
L 264.87538 95.440677 
L 265.687423 96.769114 
L 266.573287 98.675098 
L 267.532973 101.288442 
L 268.566483 104.746105 
L 269.747635 109.506416 
L 271.076431 115.852444 
L 272.552872 124.027467 
L 274.3246 135.137282 
L 276.83455 152.466438 
L 281.706804 186.361343 
L 283.847645 199.545098 
L 285.767017 210.008411 
L 287.538745 218.484518 
L 289.236654 225.568575 
L 290.860738 231.407742 
L 292.263356 235.678766 
L 293.51833 238.816261 
L 294.551838 240.828968 
L 295.363883 241.982369 
L 296.028281 242.601279 
L 296.618857 242.873346 
L 297.135611 242.872709 
L 297.652365 242.626999 
L 298.169119 242.113689 
L 298.759695 241.169352 
L 299.424093 239.608297 
L 300.162313 237.195186 
L 300.900533 234.004123 
L 301.712579 229.52529 
L 302.598443 223.412701 
L 303.631951 214.606723 
L 304.73928 203.183206 
L 306.068076 186.967084 
L 307.692164 164.196558 
L 313.302636 82.861531 
L 314.705253 67.077042 
L 315.960227 55.393595 
L 317.141386 46.466909 
L 318.248716 39.76516 
L 319.282224 34.777275 
L 320.315732 30.814455 
L 321.34924 27.683374 
L 322.382748 25.209061 
L 323.490078 23.125371 
L 324.597408 21.510956 
L 325.630916 20.377717 
L 326.51678 19.700598 
L 327.328822 19.354528 
L 327.99322 19.305835 
L 328.583796 19.475358 
L 329.174372 19.882012 
L 329.764955 20.567101 
L 330.429353 21.728289 
L 331.093751 23.372391 
L 331.831971 25.858832 
L 332.570191 29.143805 
L 333.382233 33.805007 
L 334.268097 40.285475 
L 335.227783 49.093186 
L 336.26129 60.753306 
L 337.442442 76.799609 
L 338.84506 99.185537 
L 340.838254 135.104004 
L 343.791141 188.142866 
L 345.267581 210.56177 
L 346.448733 225.391664 
L 347.556063 236.560673 
L 348.515749 244.123112 
L 349.401613 249.467484 
L 350.213655 253.113448 
L 350.951875 255.503277 
L 351.616273 256.992285 
L 352.206849 257.855377 
L 352.797425 258.340665 
L 353.314179 258.495176 
L 353.830933 258.430871 
L 354.421509 258.126325 
L 355.159736 257.455465 
L 356.0456 256.308406 
L 357.152929 254.472591 
L 358.481725 251.82265 
L 360.031987 248.210912 
L 361.508427 244.206896 
L 362.911045 239.738026 
L 364.239841 234.706607 
L 365.494815 229.047144 
L 366.749789 222.330065 
L 368.078585 213.914419 
L 369.48121 203.491383 
L 371.031465 190.193671 
L 372.950837 171.623153 
L 378.635137 115.107602 
L 380.111577 103.411668 
L 381.366558 95.176585 
L 382.473881 89.305302 
L 383.507389 85.009026 
L 384.393253 82.205528 
L 385.205302 80.309098 
L 385.943522 79.106678 
L 386.607927 78.417831 
L 387.198503 78.094456 
L 387.789079 78.021621 
L 388.379655 78.178671 
L 389.044046 78.604849 
L 389.782266 79.355317 
L 390.66813 80.590613 
L 391.775467 82.563439 
L 393.104263 85.424054 
L 394.875991 89.827455 
L 395.392738 91.19974 
L 395.392738 91.19974 
" clip-path="url(#pdbd0f32baa)" style="fill: none; stroke: #1f77b4; stroke-width: 1.2; stroke-linecap: round"/>
   </g>
   <g id="line2d_38">
    <path d="M 247.82249 134.330946 
L 250.775371 121.320281 
L 252.91621 112.854825 
L 254.687939 106.724328 
L 256.238202 102.148154 
L 257.566998 98.893491 
L 258.748151 96.573307 
L 259.78166 95.023565 
L 260.667524 94.077682 
L 261.405745 93.574998 
L 262.070143 93.355309 
L 262.734542 93.365317 
L 263.39894 93.613779 
L 264.063338 94.109165 
L 264.801558 94.958897 
L 265.613601 96.268833 
L 266.499465 98.158613 
L 267.459151 100.75967 
L 268.492661 104.210787 
L 269.673813 108.972695 
L 271.002609 115.332272 
L 272.47905 123.536331 
L 274.250778 134.69777 
L 276.686906 151.594303 
L 281.706804 186.699471 
L 283.847645 199.905802 
L 285.767017 210.371348 
L 287.538745 218.837056 
L 289.236654 225.899806 
L 290.786916 231.461957 
L 292.189534 235.729433 
L 293.370686 238.68998 
L 294.404194 240.724396 
L 295.216239 241.894982 
L 295.880637 242.528777 
L 296.471213 242.815364 
L 296.987967 242.828793 
L 297.504721 242.59885 
L 298.021475 242.103518 
L 298.612051 241.183026 
L 299.276449 239.653933 
L 299.940847 237.554749 
L 300.679067 234.496271 
L 301.491113 230.182376 
L 302.376977 224.271717 
L 303.410485 215.726569 
L 304.517814 204.60235 
L 305.772788 189.693226 
L 307.323054 168.503258 
L 310.12829 126.338914 
L 312.34295 94.600804 
L 313.893212 75.455855 
L 315.222007 61.700709 
L 316.403159 51.629439 
L 317.510496 43.944394 
L 318.617826 37.786579 
L 319.651334 33.223353 
L 320.684842 29.606503 
L 321.71835 26.751574 
L 322.751858 24.49837 
L 323.859188 22.612225 
L 324.892696 21.263308 
L 325.852382 20.3441 
L 326.664424 19.833865 
L 327.402644 19.616168 
L 328.067042 19.658447 
L 328.657618 19.921061 
L 329.248194 20.432915 
L 329.838777 21.235441 
L 330.503175 22.54298 
L 331.167573 24.347398 
L 331.905793 27.025879 
L 332.717835 30.910903 
L 333.529877 35.907503 
L 334.415741 42.762108 
L 335.375426 51.965455 
L 336.482756 64.957797 
L 337.73773 82.647118 
L 339.21417 106.865186 
L 341.79794 153.832923 
L 343.938785 190.985193 
L 345.341403 211.718272 
L 346.522555 226.15385 
L 347.556063 236.344759 
L 348.515749 243.798523 
L 349.401613 249.069719 
L 350.213655 252.670348 
L 350.951875 255.035094 
L 351.616273 256.512883 
L 352.206849 257.373401 
L 352.797425 257.8617 
L 353.314179 258.022398 
L 353.830933 257.966527 
L 354.421509 257.673471 
L 355.159736 257.017878 
L 356.0456 255.888105 
L 357.152929 254.068484 
L 358.481725 251.425676 
L 359.958165 247.987975 
L 361.434605 243.984668 
L 362.837223 239.512313 
L 364.166019 234.481514 
L 365.420993 228.832313 
L 366.675974 222.139653 
L 368.00477 213.768946 
L 369.407381 203.416601 
L 370.95765 190.222625 
L 372.877022 171.808088 
L 378.561322 115.699293 
L 380.037762 104.03732 
L 381.292729 95.799917 
L 382.400066 89.904779 
L 383.433574 85.571483 
L 384.319438 82.72785 
L 385.131473 80.790155 
L 385.869693 79.548163 
L 386.534098 78.823188 
L 387.124674 78.467988 
L 387.71525 78.364116 
L 388.305826 78.491375 
L 388.970231 78.88591 
L 389.708451 79.603879 
L 390.594315 80.804307 
L 391.627823 82.597903 
L 392.956619 85.396719 
L 394.654518 89.552104 
L 395.392738 91.498805 
L 395.392738 91.498805 
" clip-path="url(#pdbd0f32baa)" style="fill: none; stroke-dasharray: 4.44,1.92; stroke-dashoffset: 0; stroke: #ff7f0e; stroke-width: 1.2"/>
   </g>
   <g id="line2d_39">
    <path d="M 247.82249 164.015646 
L 254.614117 135.520008 
L 256.681134 128.009842 
L 258.379041 122.615701 
L 259.855482 118.604527 
L 261.184278 115.600652 
L 262.365431 113.452903 
L 263.39894 112.000931 
L 264.358626 111.025408 
L 265.170669 110.489292 
L 265.908889 110.237566 
L 266.647109 110.214307 
L 267.385329 110.422649 
L 268.123549 110.864967 
L 268.935593 111.623548 
L 269.821457 112.776814 
L 270.781143 114.408315 
L 271.814653 116.604186 
L 272.995804 119.656971 
L 274.3246 123.752766 
L 275.801042 129.06285 
L 277.49895 136.034602 
L 279.565966 145.509238 
L 282.666493 160.920265 
L 287.464923 184.712092 
L 289.901052 195.616549 
L 291.894246 203.57362 
L 293.592152 209.507938 
L 295.068595 213.914892 
L 296.323569 217.008597 
L 297.357077 219.029866 
L 298.242941 220.327402 
L 298.981161 221.063422 
L 299.645559 221.42888 
L 300.236135 221.496232 
L 300.752889 221.341157 
L 301.343465 220.901977 
L 301.934045 220.164893 
L 302.598443 218.955604 
L 303.336663 217.109039 
L 304.148704 214.428006 
L 305.034568 210.684347 
L 305.994254 205.625794 
L 307.101588 198.471714 
L 308.28274 189.31922 
L 309.685358 176.585328 
L 311.383264 159.003815 
L 314.779075 120.775157 
L 316.993735 97.262645 
L 318.691648 81.53591 
L 320.168088 69.878734 
L 321.496884 61.031378 
L 322.82568 53.64069 
L 324.080654 47.841227 
L 325.335628 43.012576 
L 326.664424 38.773549 
L 327.99322 35.28065 
L 329.248194 32.589003 
L 330.355531 30.704323 
L 331.315217 29.487237 
L 332.127259 28.814084 
L 332.791657 28.551643 
L 333.382233 28.572423 
L 333.898987 28.814621 
L 334.415741 29.292539 
L 335.006317 30.162409 
L 335.670714 31.605754 
L 336.335112 33.603222 
L 337.073332 36.551296 
L 337.885374 40.779024 
L 338.771238 46.683642 
L 339.730924 54.71653 
L 340.764432 65.344672 
L 341.945584 79.964074 
L 343.348209 100.389613 
L 345.193759 130.861193 
L 348.884859 192.405024 
L 350.361299 212.886712 
L 351.616273 227.260131 
L 352.723603 237.469027 
L 353.757111 244.959765 
L 354.716797 250.289553 
L 355.602668 253.9722 
L 356.41471 256.440545 
L 357.152929 258.038338 
L 357.891149 259.114041 
L 358.555547 259.705603 
L 359.219945 259.997986 
L 359.884343 260.040018 
L 360.622563 259.842892 
L 361.434605 259.380886 
L 362.394291 258.558362 
L 363.427799 257.375711 
L 364.535129 255.767028 
L 365.642459 253.752392 
L 366.675974 251.415368 
L 367.709482 248.518425 
L 368.74299 244.921754 
L 369.776498 240.473718 
L 370.810006 235.023901 
L 371.917329 227.922676 
L 373.098481 218.780904 
L 374.353462 207.241523 
L 375.756087 192.235055 
L 377.527815 170.723948 
L 382.842998 104.305047 
L 384.245609 90.455723 
L 385.426761 80.851949 
L 386.460283 74.079995 
L 387.419962 69.14149 
L 388.305826 65.682044 
L 389.117875 63.372541 
L 389.856095 61.927613 
L 390.520486 61.110949 
L 391.111062 60.733281 
L 391.627823 60.646513 
L 392.14457 60.766116 
L 392.735146 61.1306 
L 393.473366 61.887337 
L 394.35923 63.171202 
L 395.392738 65.089754 
L 395.392738 65.089754 
" clip-path="url(#pdbd0f32baa)" style="fill: none; stroke: #2ca02c; stroke-width: 1.2; stroke-linecap: round"/>
   </g>
   <g id="line2d_40">
    <path d="M 247.82249 163.825837 
L 254.614117 135.672302 
L 256.681134 128.240858 
L 258.452863 122.681316 
L 259.929304 118.732083 
L 261.258101 115.774136 
L 262.439253 113.658227 
L 263.472762 112.226698 
L 264.432448 111.263874 
L 265.244491 110.733915 
L 266.056533 110.471713 
L 266.794753 110.4703 
L 267.532973 110.698098 
L 268.271193 111.157784 
L 269.083237 111.933451 
L 269.969101 113.103467 
L 270.928787 114.751469 
L 272.036119 117.139096 
L 273.21727 120.245521 
L 274.546066 124.398943 
L 276.022508 129.768836 
L 277.720416 136.80202 
L 279.861254 146.693777 
L 283.109425 162.934006 
L 287.538745 184.908636 
L 289.974874 195.847493 
L 291.968068 203.836388 
L 293.739796 210.047386 
L 295.216239 214.462319 
L 296.471213 217.571118 
L 297.578543 219.736772 
L 298.464407 221.018423 
L 299.202627 221.73934 
L 299.867025 222.088449 
L 300.457601 222.138024 
L 300.974355 221.963925 
L 301.564935 221.498179 
L 302.155511 220.728105 
L 302.819909 219.47263 
L 303.558129 217.561524 
L 304.37017 214.79123 
L 305.256034 210.926022 
L 306.21572 205.705875 
L 307.323054 198.327347 
L 308.504206 188.895831 
L 309.906824 175.793071 
L 311.678552 156.923776 
L 317.879606 88.577907 
L 319.429868 75.022853 
L 320.832486 64.659737 
L 322.161282 56.46111 
L 323.416256 50.023667 
L 324.67123 44.672763 
L 326.000026 39.98091 
L 327.328822 36.09555 
L 328.657618 32.877265 
L 329.912599 30.402015 
L 330.946107 28.803239 
L 331.831971 27.805934 
L 332.570191 27.292897 
L 333.160767 27.130388 
L 333.677521 27.197968 
L 334.194275 27.48834 
L 334.711029 28.029763 
L 335.301604 28.994889 
L 335.966002 30.579562 
L 336.6304 32.76011 
L 337.36862 35.96735 
L 338.180662 40.554512 
L 339.066526 46.945273 
L 340.026212 55.614868 
L 341.05972 67.043334 
L 342.240872 82.681613 
L 343.643497 104.357933 
L 345.710513 140.223603 
L 348.589571 189.715766 
L 350.066011 211.268121 
L 351.320985 226.44535 
L 352.428315 237.242842 
L 353.461823 245.170876 
L 354.421509 250.81338 
L 355.30738 254.713242 
L 356.119422 257.329257 
L 356.857641 259.026209 
L 357.595861 260.174451 
L 358.260259 260.813759 
L 358.924657 261.141888 
L 359.589055 261.211578 
L 360.327275 261.040099 
L 361.139317 260.605032 
L 362.099003 259.819037 
L 363.206333 258.596601 
L 364.313663 257.040641 
L 365.420993 255.09817 
L 366.454501 252.843401 
L 367.488009 250.038138 
L 368.521517 246.53575 
L 369.555025 242.175547 
L 370.588533 236.796866 
L 371.69587 229.741104 
L 372.803193 221.221536 
L 374.058174 209.729793 
L 375.460799 194.676711 
L 377.158697 173.896841 
L 382.842998 101.970902 
L 384.171794 88.942737 
L 385.352946 79.431126 
L 386.386454 72.773343 
L 387.346147 67.956606 
L 388.232011 64.615066 
L 389.044046 62.413193 
L 389.708451 61.171705 
L 390.372842 60.387884 
L 390.963418 60.039521 
L 391.480179 59.978228 
L 391.996926 60.122941 
L 392.587502 60.515493 
L 393.325722 61.30641 
L 394.211586 62.630044 
L 395.245094 64.593631 
L 395.392738 64.905101 
L 395.392738 64.905101 
" clip-path="url(#pdbd0f32baa)" style="fill: none; stroke-dasharray: 4.44,1.92; stroke-dashoffset: 0; stroke: #d62728; stroke-width: 1.2"/>
   </g>
   <g id="patch_7">
    <path d="M 240.443977 265.906023 
L 240.443977 21.683156 
" style="fill: none; stroke: #262626; stroke-linejoin: miter; stroke-linecap: square"/>
   </g>
   <g id="patch_8">
    <path d="M 247.82249 273.312 
L 395.392738 273.312 
" style="fill: none; stroke: #262626; stroke-linejoin: miter; stroke-linecap: square"/>
   </g>
   <g id="legend_2">
    <g id="patch_9">
     <path d="M 246.603977 64.0315 
L 306.709352 64.0315 
Q 308.469352 64.0315 308.469352 62.2715 
L 308.469352 13.36 
Q 308.469352 11.6 306.709352 11.6 
L 246.603977 11.6 
Q 244.843977 11.6 244.843977 13.36 
L 244.843977 62.2715 
Q 244.843977 64.0315 246.603977 64.0315 
z
" style="fill: #ffffff; opacity: 0.8; stroke: #cccccc; stroke-width: 0.8; stroke-linejoin: miter"/>
    </g>
    <g id="line2d_41">
     <path d="M 248.363977 18.338875 
L 257.163977 18.338875 
L 265.963977 18.338875 
" style="fill: none; stroke: #1f77b4; stroke-width: 1.2; stroke-linecap: round"/>
    </g>
    <g id="text_37">
     <!-- PC 1 v -->
     <g style="fill: #262626" transform="translate(273.003977 21.418875) scale(0.088 -0.088)">
      <defs>
       <path id="ArialMT-76" d="M 1344 0 
L 81 3319 
L 675 3319 
L 1388 1331 
Q 1503 1009 1600 663 
Q 1675 925 1809 1294 
L 2547 3319 
L 3125 3319 
L 1869 0 
L 1344 0 
z
" transform="scale(0.015625)"/>
      </defs>
      <use xlink:href="#ArialMT-50"/>
      <use xlink:href="#ArialMT-43" x="66.699219"/>
      <use xlink:href="#ArialMT-20" x="138.916016"/>
      <use xlink:href="#ArialMT-31" x="166.699219"/>
      <use xlink:href="#ArialMT-20" x="222.314453"/>
      <use xlink:href="#ArialMT-76" x="250.097656"/>
     </g>
    </g>
    <g id="line2d_42">
     <path d="M 248.363977 30.78675 
L 257.163977 30.78675 
L 265.963977 30.78675 
" style="fill: none; stroke-dasharray: 4.44,1.92; stroke-dashoffset: 0; stroke: #ff7f0e; stroke-width: 1.2"/>
    </g>
    <g id="text_38">
     <!-- True 1 v -->
     <g style="fill: #262626" transform="translate(273.003977 33.86675) scale(0.088 -0.088)">
      <use xlink:href="#ArialMT-54"/>
      <use xlink:href="#ArialMT-72" x="57.333984"/>
      <use xlink:href="#ArialMT-75" x="90.634766"/>
      <use xlink:href="#ArialMT-65" x="146.25"/>
      <use xlink:href="#ArialMT-20" x="201.865234"/>
      <use xlink:href="#ArialMT-31" x="229.648438"/>
      <use xlink:href="#ArialMT-20" x="285.263672"/>
      <use xlink:href="#ArialMT-76" x="313.046875"/>
     </g>
    </g>
    <g id="line2d_43">
     <path d="M 248.363977 43.234625 
L 257.163977 43.234625 
L 265.963977 43.234625 
" style="fill: none; stroke: #2ca02c; stroke-width: 1.2; stroke-linecap: round"/>
    </g>
    <g id="text_39">
     <!-- PC 2 v -->
     <g style="fill: #262626" transform="translate(273.003977 46.314625) scale(0.088 -0.088)">
      <use xlink:href="#ArialMT-50"/>
      <use xlink:href="#ArialMT-43" x="66.699219"/>
      <use xlink:href="#ArialMT-20" x="138.916016"/>
      <use xlink:href="#ArialMT-32" x="166.699219"/>
      <use xlink:href="#ArialMT-20" x="222.314453"/>
      <use xlink:href="#ArialMT-76" x="250.097656"/>
     </g>
    </g>
    <g id="line2d_44">
     <path d="M 248.363977 55.6825 
L 257.163977 55.6825 
L 265.963977 55.6825 
" style="fill: none; stroke-dasharray: 4.44,1.92; stroke-dashoffset: 0; stroke: #d62728; stroke-width: 1.2"/>
    </g>
    <g id="text_40">
     <!-- True 2 v -->
     <g style="fill: #262626" transform="translate(273.003977 58.7625) scale(0.088 -0.088)">
      <use xlink:href="#ArialMT-54"/>
      <use xlink:href="#ArialMT-72" x="57.333984"/>
      <use xlink:href="#ArialMT-75" x="90.634766"/>
      <use xlink:href="#ArialMT-65" x="146.25"/>
      <use xlink:href="#ArialMT-20" x="201.865234"/>
      <use xlink:href="#ArialMT-32" x="229.648438"/>
      <use xlink:href="#ArialMT-20" x="285.263672"/>
      <use xlink:href="#ArialMT-76" x="313.046875"/>
     </g>
    </g>
   </g>
  </g>
 </g>
 <defs>
  <clipPath id="pe415411f13">
   <rect x="45.65125" y="7.2" width="162.327273" height="266.112"/>
  </clipPath>
  <clipPath id="pdbd0f32baa">
   <rect x="240.443977" y="7.2" width="162.327273" height="266.112"/>
  </clipPath>
 </defs>
</svg>