<?xml version="1.0" encoding="utf-8" standalone="no"?>
<!DOCTYPE svg PUBLIC "-//W3C//DTD SVG 1.1//EN"
  "http://www.w3.org/Graphics/SVG/1.1/DTD/svg11.dtd">
<svg xmlns:xlink="http://www.w3.org/1999/xlink" width="409.97125pt" height="322.510875pt" viewBox="0 0 409.97125 322.510875" xmlns="http://www.w3.org/2000/svg" version="1.1">
 <metadata>
  <rdf:RDF xmlns:dc="http://purl.org/dc/elements/1.1/" xmlns:cc="http://creativecommons.org/ns#" xmlns:rdf="http://www.w3.org/1999/02/22-rdf-syntax-ns#">
   <cc:Work>
    <dc:type rdf:resource="http://purl.org/dc/dcmitype/StillImage"/>
    <dc:date>2025-01-08T13:30:04.635112</dc:date>
    <dc:format>image/svg+xml</dc:format>
    <dc:creator>
     <cc:Agent>
      <dc:title>Matplotlib v3.9.0, https://matplotlib.org/</dc:title>
     </cc:Agent>
    </dc:creator>
   </cc:Work>
  </rdf:RDF>
 </metadata>
 <defs>
  <style type="text/css">*{stroke-linejoin: round; stroke-linecap: butt}</style>
 </defs>
 <g id="figure_1">
  <g id="patch_1">
   <path d="M 0 322.510875 
L 409.97125 322.510875 
L 409.97125 0 
L 0 0 
z
" style="fill: #ffffff"/>
  </g>
  <g id="axes_1">
   <g id="patch_2">
    <path d="M 45.65125 286.1835 
L 402.77125 286.1835 
L 402.77125 20.0715 
L 45.65125 20.0715 
z
" style="fill: #ffffff"/>
   </g>
   <g id="matplotlib.axis_1">
    <g id="xtick_1">
     <g id="line2d_1">
      <defs>
       <path id="maeed530fd8" d="M 0 0 
L 0 4.8 
" style="stroke: #262626"/>
      </defs>
      <g>
       <use xlink:href="#maeed530fd8" x="52.711895" y="286.1835" style="fill: #262626; stroke: #262626"/>
      </g>
     </g>
     <g id="text_1">
      <!-- −0.6 -->
      <g style="fill: #262626" transform="translate(44.02602 300.782375) scale(0.088 -0.088)">
       <defs>
        <path id="ArialMT-2212" d="M 3381 1997 
L 356 1997 
L 356 2522 
L 3381 2522 
L 3381 1997 
z
" transform="scale(0.015625)"/>
        <path id="ArialMT-30" d="M 266 2259 
Q 266 3072 433 3567 
Q 600 4063 929 4331 
Q 1259 4600 1759 4600 
Q 2128 4600 2406 4451 
Q 2684 4303 2865 4023 
Q 3047 3744 3150 3342 
Q 3253 2941 3253 2259 
Q 3253 1453 3087 958 
Q 2922 463 2592 192 
Q 2263 -78 1759 -78 
Q 1097 -78 719 397 
Q 266 969 266 2259 
z
M 844 2259 
Q 844 1131 1108 757 
Q 1372 384 1759 384 
Q 2147 384 2411 759 
Q 2675 1134 2675 2259 
Q 2675 3391 2411 3762 
Q 2147 4134 1753 4134 
Q 1366 4134 1134 3806 
Q 844 3388 844 2259 
z
" transform="scale(0.015625)"/>
        <path id="ArialMT-2e" d="M 581 0 
L 581 641 
L 1222 641 
L 1222 0 
L 581 0 
z
" transform="scale(0.015625)"/>
        <path id="ArialMT-36" d="M 3184 3459 
L 2625 3416 
Q 2550 3747 2413 3897 
Q 2184 4138 1850 4138 
Q 1581 4138 1378 3988 
Q 1113 3794 959 3422 
Q 806 3050 800 2363 
Q 1003 2672 1297 2822 
Q 1591 2972 1913 2972 
Q 2475 2972 2870 2558 
Q 3266 2144 3266 1488 
Q 3266 1056 3080 686 
Q 2894 316 2569 119 
Q 2244 -78 1831 -78 
Q 1128 -78 684 439 
Q 241 956 241 2144 
Q 241 3472 731 4075 
Q 1159 4600 1884 4600 
Q 2425 4600 2770 4297 
Q 3116 3994 3184 3459 
z
M 888 1484 
Q 888 1194 1011 928 
Q 1134 663 1356 523 
Q 1578 384 1822 384 
Q 2178 384 2434 671 
Q 2691 959 2691 1453 
Q 2691 1928 2437 2201 
Q 2184 2475 1800 2475 
Q 1419 2475 1153 2201 
Q 888 1928 888 1484 
z
" transform="scale(0.015625)"/>
       </defs>
       <use xlink:href="#ArialMT-2212"/>
       <use xlink:href="#ArialMT-30" x="58.398438"/>
       <use xlink:href="#ArialMT-2e" x="114.013672"/>
       <use xlink:href="#ArialMT-36" x="141.796875"/>
      </g>
     </g>
    </g>
    <g id="xtick_2">
     <g id="line2d_2">
      <g>
       <use xlink:href="#maeed530fd8" x="105.891686" y="286.1835" style="fill: #262626; stroke: #262626"/>
      </g>
     </g>
     <g id="text_2">
      <!-- −0.4 -->
      <g style="fill: #262626" transform="translate(97.205811 300.782375) scale(0.088 -0.088)">
       <defs>
        <path id="ArialMT-34" d="M 2069 0 
L 2069 1097 
L 81 1097 
L 81 1613 
L 2172 4581 
L 2631 4581 
L 2631 1613 
L 3250 1613 
L 3250 1097 
L 2631 1097 
L 2631 0 
L 2069 0 
z
M 2069 1613 
L 2069 3678 
L 634 1613 
L 2069 1613 
z
" transform="scale(0.015625)"/>
       </defs>
       <use xlink:href="#ArialMT-2212"/>
       <use xlink:href="#ArialMT-30" x="58.398438"/>
       <use xlink:href="#ArialMT-2e" x="114.013672"/>
       <use xlink:href="#ArialMT-34" x="141.796875"/>
      </g>
     </g>
    </g>
    <g id="xtick_3">
     <g id="line2d_3">
      <g>
       <use xlink:href="#maeed530fd8" x="159.071477" y="286.1835" style="fill: #262626; stroke: #262626"/>
      </g>
     </g>
     <g id="text_3">
      <!-- −0.2 -->
      <g style="fill: #262626" transform="translate(150.385602 300.782375) scale(0.088 -0.088)">
       <defs>
        <path id="ArialMT-32" d="M 3222 541 
L 3222 0 
L 194 0 
Q 188 203 259 391 
Q 375 700 629 1000 
Q 884 1300 1366 1694 
Q 2113 2306 2375 2664 
Q 2638 3022 2638 3341 
Q 2638 3675 2398 3904 
Q 2159 4134 1775 4134 
Q 1369 4134 1125 3890 
Q 881 3647 878 3216 
L 300 3275 
Q 359 3922 746 4261 
Q 1134 4600 1788 4600 
Q 2447 4600 2831 4234 
Q 3216 3869 3216 3328 
Q 3216 3053 3103 2787 
Q 2991 2522 2730 2228 
Q 2469 1934 1863 1422 
Q 1356 997 1212 845 
Q 1069 694 975 541 
L 3222 541 
z
" transform="scale(0.015625)"/>
       </defs>
       <use xlink:href="#ArialMT-2212"/>
       <use xlink:href="#ArialMT-30" x="58.398438"/>
       <use xlink:href="#ArialMT-2e" x="114.013672"/>
       <use xlink:href="#ArialMT-32" x="141.796875"/>
      </g>
     </g>
    </g>
    <g id="xtick_4">
     <g id="line2d_4">
      <g>
       <use xlink:href="#maeed530fd8" x="212.251268" y="286.1835" style="fill: #262626; stroke: #262626"/>
      </g>
     </g>
     <g id="text_4">
      <!-- 0.0 -->
      <g style="fill: #262626" transform="translate(206.135268 300.782375) scale(0.088 -0.088)">
       <use xlink:href="#ArialMT-30"/>
       <use xlink:href="#ArialMT-2e" x="55.615234"/>
       <use xlink:href="#ArialMT-30" x="83.398438"/>
      </g>
     </g>
    </g>
    <g id="xtick_5">
     <g id="line2d_5">
      <g>
       <use xlink:href="#maeed530fd8" x="265.431059" y="286.1835" style="fill: #262626; stroke: #262626"/>
      </g>
     </g>
     <g id="text_5">
      <!-- 0.2 -->
      <g style="fill: #262626" transform="translate(259.315059 300.782375) scale(0.088 -0.088)">
       <use xlink:href="#ArialMT-30"/>
       <use xlink:href="#ArialMT-2e" x="55.615234"/>
       <use xlink:href="#ArialMT-32" x="83.398438"/>
      </g>
     </g>
    </g>
    <g id="xtick_6">
     <g id="line2d_6">
      <g>
       <use xlink:href="#maeed530fd8" x="318.61085" y="286.1835" style="fill: #262626; stroke: #262626"/>
      </g>
     </g>
     <g id="text_6">
      <!-- 0.4 -->
      <g style="fill: #262626" transform="translate(312.49485 300.782375) scale(0.088 -0.088)">
       <use xlink:href="#ArialMT-30"/>
       <use xlink:href="#ArialMT-2e" x="55.615234"/>
       <use xlink:href="#ArialMT-34" x="83.398438"/>
      </g>
     </g>
    </g>
    <g id="xtick_7">
     <g id="line2d_7">
      <g>
       <use xlink:href="#maeed530fd8" x="371.790641" y="286.1835" style="fill: #262626; stroke: #262626"/>
      </g>
     </g>
     <g id="text_7">
      <!-- 0.6 -->
      <g style="fill: #262626" transform="translate(365.674641 300.782375) scale(0.088 -0.088)">
       <use xlink:href="#ArialMT-30"/>
       <use xlink:href="#ArialMT-2e" x="55.615234"/>
       <use xlink:href="#ArialMT-36" x="83.398438"/>
      </g>
     </g>
    </g>
    <g id="text_8">
     <!-- x -->
     <g style="fill: #262626" transform="translate(221.81125 313.402875) scale(0.096 -0.096)">
      <defs>
       <path id="ArialMT-78" d="M 47 0 
L 1259 1725 
L 138 3319 
L 841 3319 
L 1350 2541 
Q 1494 2319 1581 2169 
Q 1719 2375 1834 2534 
L 2394 3319 
L 3066 3319 
L 1919 1756 
L 3153 0 
L 2463 0 
L 1781 1031 
L 1600 1309 
L 728 0 
L 47 0 
z
" transform="scale(0.015625)"/>
      </defs>
      <use xlink:href="#ArialMT-78"/>
     </g>
    </g>
   </g>
   <g id="matplotlib.axis_2">
    <g id="ytick_1">
     <g id="line2d_8">
      <defs>
       <path id="m827ba0fb3e" d="M 0 0 
L -4.8 0 
" style="stroke: #262626"/>
      </defs>
      <g>
       <use xlink:href="#m827ba0fb3e" x="45.65125" y="284.568159" style="fill: #262626; stroke: #262626"/>
      </g>
     </g>
     <g id="text_9">
      <!-- −0.8 -->
      <g style="fill: #262626" transform="translate(19.9795 287.717597) scale(0.088 -0.088)">
       <defs>
        <path id="ArialMT-38" d="M 1131 2484 
Q 781 2613 612 2850 
Q 444 3088 444 3419 
Q 444 3919 803 4259 
Q 1163 4600 1759 4600 
Q 2359 4600 2725 4251 
Q 3091 3903 3091 3403 
Q 3091 3084 2923 2848 
Q 2756 2613 2416 2484 
Q 2838 2347 3058 2040 
Q 3278 1734 3278 1309 
Q 3278 722 2862 322 
Q 2447 -78 1769 -78 
Q 1091 -78 675 323 
Q 259 725 259 1325 
Q 259 1772 486 2073 
Q 713 2375 1131 2484 
z
M 1019 3438 
Q 1019 3113 1228 2906 
Q 1438 2700 1772 2700 
Q 2097 2700 2305 2904 
Q 2513 3109 2513 3406 
Q 2513 3716 2298 3927 
Q 2084 4138 1766 4138 
Q 1444 4138 1231 3931 
Q 1019 3725 1019 3438 
z
M 838 1322 
Q 838 1081 952 856 
Q 1066 631 1291 507 
Q 1516 384 1775 384 
Q 2178 384 2440 643 
Q 2703 903 2703 1303 
Q 2703 1709 2433 1975 
Q 2163 2241 1756 2241 
Q 1359 2241 1098 1978 
Q 838 1716 838 1322 
z
" transform="scale(0.015625)"/>
       </defs>
       <use xlink:href="#ArialMT-2212"/>
       <use xlink:href="#ArialMT-30" x="58.398438"/>
       <use xlink:href="#ArialMT-2e" x="114.013672"/>
       <use xlink:href="#ArialMT-38" x="141.796875"/>
      </g>
     </g>
    </g>
    <g id="ytick_2">
     <g id="line2d_9">
      <g>
       <use xlink:href="#m827ba0fb3e" x="45.65125" y="252.53283" style="fill: #262626; stroke: #262626"/>
      </g>
     </g>
     <g id="text_10">
      <!-- −0.6 -->
      <g style="fill: #262626" transform="translate(19.9795 255.682267) scale(0.088 -0.088)">
       <use xlink:href="#ArialMT-2212"/>
       <use xlink:href="#ArialMT-30" x="58.398438"/>
       <use xlink:href="#ArialMT-2e" x="114.013672"/>
       <use xlink:href="#ArialMT-36" x="141.796875"/>
      </g>
     </g>
    </g>
    <g id="ytick_3">
     <g id="line2d_10">
      <g>
       <use xlink:href="#m827ba0fb3e" x="45.65125" y="220.4975" style="fill: #262626; stroke: #262626"/>
      </g>
     </g>
     <g id="text_11">
      <!-- −0.4 -->
      <g style="fill: #262626" transform="translate(19.9795 223.646938) scale(0.088 -0.088)">
       <use xlink:href="#ArialMT-2212"/>
       <use xlink:href="#ArialMT-30" x="58.398438"/>
       <use xlink:href="#ArialMT-2e" x="114.013672"/>
       <use xlink:href="#ArialMT-34" x="141.796875"/>
      </g>
     </g>
    </g>
    <g id="ytick_4">
     <g id="line2d_11">
      <g>
       <use xlink:href="#m827ba0fb3e" x="45.65125" y="188.462171" style="fill: #262626; stroke: #262626"/>
      </g>
     </g>
     <g id="text_12">
      <!-- −0.2 -->
      <g style="fill: #262626" transform="translate(19.9795 191.611608) scale(0.088 -0.088)">
       <use xlink:href="#ArialMT-2212"/>
       <use xlink:href="#ArialMT-30" x="58.398438"/>
       <use xlink:href="#ArialMT-2e" x="114.013672"/>
       <use xlink:href="#ArialMT-32" x="141.796875"/>
      </g>
     </g>
    </g>
    <g id="ytick_5">
     <g id="line2d_12">
      <g>
       <use xlink:href="#m827ba0fb3e" x="45.65125" y="156.426842" style="fill: #262626; stroke: #262626"/>
      </g>
     </g>
     <g id="text_13">
      <!-- 0.0 -->
      <g style="fill: #262626" transform="translate(25.11925 159.576279) scale(0.088 -0.088)">
       <use xlink:href="#ArialMT-30"/>
       <use xlink:href="#ArialMT-2e" x="55.615234"/>
       <use xlink:href="#ArialMT-30" x="83.398438"/>
      </g>
     </g>
    </g>
    <g id="ytick_6">
     <g id="line2d_13">
      <g>
       <use xlink:href="#m827ba0fb3e" x="45.65125" y="124.391512" style="fill: #262626; stroke: #262626"/>
      </g>
     </g>
     <g id="text_14">
      <!-- 0.2 -->
      <g style="fill: #262626" transform="translate(25.11925 127.54095) scale(0.088 -0.088)">
       <use xlink:href="#ArialMT-30"/>
       <use xlink:href="#ArialMT-2e" x="55.615234"/>
       <use xlink:href="#ArialMT-32" x="83.398438"/>
      </g>
     </g>
    </g>
    <g id="ytick_7">
     <g id="line2d_14">
      <g>
       <use xlink:href="#m827ba0fb3e" x="45.65125" y="92.356183" style="fill: #262626; stroke: #262626"/>
      </g>
     </g>
     <g id="text_15">
      <!-- 0.4 -->
      <g style="fill: #262626" transform="translate(25.11925 95.50562) scale(0.088 -0.088)">
       <use xlink:href="#ArialMT-30"/>
       <use xlink:href="#ArialMT-2e" x="55.615234"/>
       <use xlink:href="#ArialMT-34" x="83.398438"/>
      </g>
     </g>
    </g>
    <g id="ytick_8">
     <g id="line2d_15">
      <g>
       <use xlink:href="#m827ba0fb3e" x="45.65125" y="60.320853" style="fill: #262626; stroke: #262626"/>
      </g>
     </g>
     <g id="text_16">
      <!-- 0.6 -->
      <g style="fill: #262626" transform="translate(25.11925 63.470291) scale(0.088 -0.088)">
       <use xlink:href="#ArialMT-30"/>
       <use xlink:href="#ArialMT-2e" x="55.615234"/>
       <use xlink:href="#ArialMT-36" x="83.398438"/>
      </g>
     </g>
    </g>
    <g id="ytick_9">
     <g id="line2d_16">
      <g>
       <use xlink:href="#m827ba0fb3e" x="45.65125" y="28.285524" style="fill: #262626; stroke: #262626"/>
      </g>
     </g>
     <g id="text_17">
      <!-- 0.8 -->
      <g style="fill: #262626" transform="translate(25.11925 31.434961) scale(0.088 -0.088)">
       <use xlink:href="#ArialMT-30"/>
       <use xlink:href="#ArialMT-2e" x="55.615234"/>
       <use xlink:href="#ArialMT-38" x="83.398438"/>
      </g>
     </g>
    </g>
    <g id="text_18">
     <!-- v -->
     <g style="fill: #262626" transform="translate(14.0715 155.5275) rotate(-90) scale(0.096 -0.096)">
      <defs>
       <path id="ArialMT-76" d="M 1344 0 
L 81 3319 
L 675 3319 
L 1388 1331 
Q 1503 1009 1600 663 
Q 1675 925 1809 1294 
L 2547 3319 
L 3125 3319 
L 1869 0 
L 1344 0 
z
" transform="scale(0.015625)"/>
      </defs>
      <use xlink:href="#ArialMT-76"/>
     </g>
    </g>
   </g>
   <g id="line2d_17">
    <path d="M 212.251268 156.426842 
L 212.742688 150.537864 
L 214.200569 144.825569 
L 216.585989 139.403869 
L 219.841466 134.381992 
L 223.891767 129.863812 
L 228.644854 125.947789 
L 233.992733 122.727324 
L 239.812261 120.291221 
L 245.965901 118.723635 
L 252.302553 118.103079 
L 258.658744 118.499787 
L 264.860218 119.971332 
L 270.724686 122.556471 
L 276.065455 126.267732 
L 280.696458 131.083904 
L 284.438395 136.943806 
L 287.125759 143.743113 
L 288.613883 151.335668 
L 288.78547 159.540083 
L 287.555603 168.15144 
L 284.8743 176.956615 
L 280.726579 185.750906 
L 275.129733 194.352896 
L 268.128552 202.615146 
L 259.789105 210.428681 
L 250.192593 217.7203 
L 239.429989 224.443384 
L 227.598801 230.562961 
L 214.802696 236.036622 
L 201.154471 240.793269 
L 186.78264 244.711622 
L 171.84142 247.601219 
L 156.523407 249.189646 
L 141.073513 249.121202 
L 125.801756 246.973753 
L 111.091213 242.300001 
L 97.396769 234.69747 
L 85.230126 223.903118 
L 75.127943 209.897003 
L 67.603798 192.98618 
L 63.090532 173.833944 
L 61.883977 153.406912 
L 64.102874 132.840518 
L 69.675903 113.251891 
L 78.36026 95.558408 
L 89.786581 80.351656 
L 103.517295 67.858545 
L 119.10522 57.982656 
L 136.139651 50.399658 
L 154.274691 44.671629 
L 173.239539 40.353331 
L 192.831617 37.077576 
L 212.898897 34.617034 
L 233.312102 32.92625 
L 253.932877 32.1675 
L 274.577442 32.72022 
L 294.981912 35.167702 
L 314.7712 40.247175 
L 333.441783 48.74861 
L 350.364749 61.352604 
L 364.821782 78.421666 
L 376.075343 99.790261 
L 383.469289 124.635168 
L 386.538523 151.504491 
L 385.097422 178.541701 
L 379.278055 203.849651 
L 369.504678 225.868935 
L 356.413464 243.638795 
L 340.744583 256.866216 
L 323.237422 265.824135 
L 304.552638 271.152564 
L 285.228434 273.646884 
L 265.670369 274.0875 
L 246.163104 273.130367 
L 226.896992 271.252619 
L 207.998721 268.737457 
L 189.563939 265.682721 
L 171.68559 262.022851 
L 154.479394 257.559673 
L 138.102067 252.001977 
L 122.763435 245.016629 
L 108.727418 236.291325 
L 96.303502 225.608543 
L 85.824219 212.91901 
L 77.61207 198.400612 
L 71.938876 182.481567 
L 68.986068 165.815441 
L 68.812682 149.202087 
L 71.340314 133.473046 
L 76.358349 119.368322 
L 83.547624 107.439344 
L 92.516864 97.997173 
L 102.843308 91.112778 
L 114.110071 86.65741 
L 125.933681 84.364786 
L 137.981988 83.895184 
L 149.981794 84.889551 
L 161.718292 87.007609 
L 173.03012 89.949763 
L 183.801605 93.465895 
L 193.954812 97.355401 
L 203.44115 101.461601 
L 212.23499 105.664244 
L 220.328218 109.871421 
L 227.726356 114.012417 
L 234.445145 118.031506 
L 240.508731 121.883668 
L 245.948031 125.531384 
L 255.105769 132.091594 
L 270.136802 143.31618 
L 272.20411 144.631417 
L 274.07658 145.662727 
L 275.799302 146.437147 
L 277.412204 146.98938 
L 278.948905 147.36112 
L 281.889787 147.758913 
L 284.7267 148.061824 
L 286.098162 148.321542 
L 287.414921 148.728644 
L 288.648061 149.33519 
L 289.760482 150.187494 
L 290.707947 151.324154 
L 291.440575 152.774449 
L 291.904556 154.557072 
L 292.043757 156.679206 
L 291.801983 159.136346 
L 291.12466 161.912672 
L 289.960723 164.982333 
L 288.264108 168.311118 
L 285.994986 171.858853 
L 283.120574 175.582108 
L 279.615276 179.437032 
L 275.460728 183.38177 
L 270.645209 187.378578 
L 265.162882 191.395079 
L 259.012652 195.404731 
L 252.197567 199.385838 
L 244.724022 203.31982 
L 236.601228 207.18816 
L 227.841978 210.968006 
L 218.463508 214.627056 
L 208.489741 218.117109 
L 197.954141 221.367186 
L 186.904674 224.275997 
L 175.409055 226.705119 
L 163.561623 228.473789 
L 151.490078 229.357451 
L 139.363197 229.092314 
L 127.395932 227.389233 
L 115.851816 223.959213 
L 105.039629 218.55149 
L 95.303632 211.001851 
L 87.00452 201.284151 
L 80.492813 189.552596 
L 76.076906 176.161146 
L 73.99041 161.645616 
L 74.366375 146.669659 
L 77.222775 131.937432 
L 82.463669 118.097198 
L 89.895969 105.657814 
L 99.257443 94.937573 
L 110.249672 86.053144 
L 122.569961 78.944035 
L 135.937888 73.41965 
L 150.11095 69.216243 
L 164.893066 66.04991 
L 180.133937 63.660963 
L 195.722072 61.847 
L 211.573198 60.485864 
L 227.615335 59.550776 
L 243.773277 59.11901 
L 259.949114 59.375001 
L 276.005982 60.605005 
L 291.751988 63.180439 
L 306.928518 67.524123 
L 321.206111 74.055154 
L 334.191019 83.112203 
L 345.445895 94.862603 
L 354.526584 109.217003 
L 361.028686 125.773262 
L 364.641042 143.821171 
L 365.191567 162.418754 
L 362.674791 180.530694 
L 357.253657 197.193412 
L 349.235346 211.659243 
L 339.026508 223.483616 
L 327.081496 232.536817 
L 313.853046 238.957195 
L 299.754077 243.06847 
L 285.134538 245.289547 
L 270.27231 246.057702 
L 255.374981 245.772811 
L 240.589504 244.764333 
L 226.01419 243.275684 
L 211.715094 241.46155 
L 197.739424 239.392178 
L 184.129066 237.062367 
L 170.932332 234.402626 
L 158.213501 231.292927 
L 146.059855 227.579143 
L 134.586063 223.093228 
L 123.933601 217.676774 
L 114.268282 211.208421 
L 105.770869 203.631257 
L 98.624537 194.976991 
L 92.99866 185.3812 
L 89.031187 175.084797 
L 86.812298 164.418555 
L 86.371621 153.770556 
L 87.672524 143.544284 
L 90.613128 134.112148 
L 95.035058 125.775959 
L 100.7375 118.74092 
L 107.494325 113.106113 
L 115.071428 108.870561 
L 123.241824 105.950757 
L 131.798233 104.203683 
L 140.559901 103.451219 
L 149.377328 103.501075 
L 158.132969 104.163207 
L 166.739897 105.261292 
L 175.138896 106.639359 
L 191.192034 109.730112 
L 206.227145 112.662179 
L 213.399582 113.923842 
L 220.376472 115.010866 
L 227.18769 115.91589 
L 233.86304 116.647063 
L 246.910078 117.691759 
L 265.939264 118.937193 
L 272.128035 119.534251 
L 278.199961 120.356484 
L 284.110364 121.489215 
L 289.800841 123.015289 
L 295.199509 125.009561 
L 300.223162 127.532987 
L 304.780076 130.626372 
L 308.773811 134.304664 
L 312.10791 138.552457 
L 314.691163 143.321843 
L 316.442996 148.533027 
L 317.298554 154.078981 
L 317.212567 159.832135 
L 316.161862 165.654778 
L 314.146416 171.410249 
L 311.187965 176.973982 
L 307.327337 182.242821 
L 302.620343 187.141614 
L 297.132438 191.626519 
L 290.934078 195.684215 
L 284.095506 199.328898 
L 276.682632 202.596629 
L 268.754128 205.538606 
L 260.35927 208.213828 
L 251.537456 210.681894 
L 242.318737 212.996191 
L 232.724717 215.197906 
L 222.772099 217.310001 
L 212.47545 219.332219 
L 201.851673 221.235945 
L 190.9251 222.959628 
L 179.73336 224.404727 
L 168.333939 225.432973 
L 156.810005 225.866176 
L 145.278164 225.489861 
L 133.892812 224.063131 
L 122.84951 221.336401 
L 112.384143 217.078174 
L 102.767384 211.110079 
L 94.292295 203.3465 
L 87.255977 193.831906 
L 81.935142 182.764794 
L 78.560637 170.501308 
L 77.292431 157.528699 
L 78.202105 144.412225 
L 81.265482 131.724382 
L 86.36781 119.97218 
L 93.319392 109.539238 
L 101.879875 100.653062 
L 111.783956 93.383363 
L 122.766676 87.663048 
L 134.583068 83.325264 
L 147.021375 80.145321 
L 159.909209 77.879863 
L 173.113992 76.298658 
L 186.538365 75.208064 
L 200.113828 74.466489 
L 213.789603 73.994004 
L 227.522969 73.7775 
L 241.267685 73.872572 
L 254.962575 74.40256 
L 268.520636 75.553474 
L 281.819157 77.563576 
L 294.693393 80.704796 
L 306.931727 85.254138 
L 318.278946 91.4547 
L 328.445468 99.468298 
L 337.124936 109.326868 
L 344.019336 120.892961 
L 348.86908 133.842533 
L 351.483025 147.680077 
L 351.763628 161.790492 
L 349.720146 175.516119 
L 345.468591 188.246129 
L 339.217249 199.493507 
L 331.241429 208.944238 
L 321.853139 216.470514 
L 311.371209 222.112551 
L 300.096522 226.038829 
L 288.294546 228.498106 
L 276.185934 229.773999 
L 263.944323 230.148218 
L 251.697097 229.874698 
L 239.534302 229.164233 
L 227.514561 228.177036 
L 215.674198 227.021009 
L 204.035861 225.753399 
L 192.616644 224.384315 
L 181.435562 222.881522 
L 170.520136 221.17595 
L 159.911947 219.168597 
L 149.671027 216.738845 
L 139.878465 213.755223 
L 130.6373 210.088559 
L 122.070763 205.627716 
L 114.317825 200.296571 
L 107.526411 194.071051 
L 101.842353 186.991724 
L 97.399447 179.172518 
L 94.306361 170.798121 
L 92.635849 162.112279 
L 92.416652 153.396214 
L 93.629569 144.94072 
L 96.208234 137.016441 
L 100.044868 129.847856 
L 104.999452 123.594995 
L 110.911384 118.345145 
L 117.611565 114.114477 
L 124.933502 110.857459 
L 132.722393 108.481243 
L 140.84174 106.861615 
L 149.176932 105.858416 
L 157.637967 105.328461 
L 166.157322 105.135745 
L 174.689245 105.158396 
L 208.613373 105.660434 
L 225.510804 105.558331 
L 250.987264 105.251467 
L 259.492538 105.373372 
L 267.955974 105.773899 
L 276.320894 106.575397 
L 284.510443 107.908215 
L 292.425055 109.90233 
L 299.94462 112.676758 
L 306.930943 116.326809 
L 313.232985 120.910065 
L 318.694209 126.433315 
L 323.161791 132.842573 
L 326.497419 140.018947 
L 328.587624 147.782328 
L 329.353296 155.903836 
L 328.756034 164.125857 
L 326.800987 172.186892 
L 323.535379 179.847088 
L 319.042914 186.910064 
L 313.435533 193.237514 
L 306.842158 198.756234 
L 299.399286 203.454379 
L 291.240626 207.373458 
L 282.489442 210.594732 
L 273.253234 213.224533 
L 263.620682 215.379729 
L 253.661098 217.175132 
L 243.42559 218.712963 
L 232.949871 220.074839 
L 222.258259 221.315497 
L 211.36853 222.457996 
L 200.297516 223.490084 
L 189.067233 224.361273 
L 177.711424 224.980967 
L 166.282254 225.218155 
L 154.857356 224.903615 
L 143.544018 223.836034 
L 132.486175 221.793787 
L 121.864641 218.553557 
L 111.895817 213.916371 
L 102.824939 207.739768 
L 94.913838 199.97194 
L 88.423313 190.681669 
L 83.591391 180.075485 
L 80.610293 168.494617 
L 79.606017 156.38788 
L 80.624271 144.262719 
L 83.625616 132.623604 
L 88.491376 121.910973 
L 95.038259 112.453844 
L 103.03916 104.444957 
L 112.247407 97.938691 
L 122.416632 92.871935 
L 133.318911 89.093998 
L 144.756223 86.402121 
L 156.566346 84.57431 
L 168.623671 83.3961 
L 180.836164 82.680079 
L 193.139884 82.27864 
L 205.491495 82.091637 
L 217.860133 82.070199 
L 230.218675 82.217991 
L 242.535053 82.590707 
L 254.763755 83.293696 
L 266.837928 84.477061 
L 278.662148 86.326955 
L 290.10929 89.052353 
L 301.01554 92.864669 
L 311.183948 97.951685 
L 320.390491 104.445897 
L 328.395917 112.391848 
L 334.962944 121.718292 
L 339.876955 132.222905 
L 342.967704 143.576423 
L 344.128605 155.349268 
L 343.329746 167.058141 
L 340.622087 178.223932 
L 336.131921 188.428851 
L 330.046713 197.360475 
L 322.59541 204.835168 
L 314.026876 210.799096 
L 304.588163 215.311805 
L 294.510046 218.516342 
L 283.994374 220.608021 
L 273.208314 221.804122 
L 262.2828 222.319584 
L 251.314431 222.349476 
L 240.369854 222.057989 
L 218.703452 220.981047 
L 197.446126 219.638748 
L 186.993951 218.874374 
L 176.678541 217.982082 
L 166.528046 216.874861 
L 156.58754 215.441266 
L 146.921159 213.551932 
L 137.616467 211.069179 
L 128.783472 207.858894 
L 120.553215 203.805414 
L 113.07321 198.828125 
L 106.50039 192.898025 
L 100.991176 186.05164 
L 96.689872 178.398681 
L 93.716468 170.121181 
L 92.15536 161.462095 
L 92.046883 152.704177 
L 93.382922 144.142001 
L 96.10746 136.051836 
L 100.122035 128.664859 
L 105.294557 122.148237 
L 111.471854 116.595073 
L 118.49077 112.0271 
L 126.190052 108.402898 
L 134.419651 105.63269 
L 143.047277 103.594849 
L 151.962452 102.151869 
L 161.077885 101.164037 
L 170.328956 100.500277 
L 179.671581 100.045812 
L 208.044655 99.130611 
L 236.852402 98.300352 
L 246.533903 98.171206 
L 256.220764 98.254157 
L 265.867952 98.670409 
L 275.408482 99.561546 
L 284.750593 101.082522 
L 293.776365 103.39121 
L 302.342291 106.634118 
L 310.282665 110.928886 
L 317.41597 116.344858 
L 317.41597 116.344858 
" clip-path="url(#pfc9ac75319)" style="fill: none; stroke: #1f77b4; stroke-linecap: round"/>
   </g>
   <g id="patch_3">
    <path d="M 45.65125 284.568159 
L 45.65125 28.285524 
" style="fill: none; stroke: #262626; stroke-linejoin: miter; stroke-linecap: square"/>
   </g>
   <g id="patch_4">
    <path d="M 52.711895 286.1835 
L 371.790641 286.1835 
" style="fill: none; stroke: #262626; stroke-linejoin: miter; stroke-linecap: square"/>
   </g>
   <g id="text_19">
    <!-- Phase space -->
    <g style="fill: #262626" transform="translate(196.4605 14.0715) scale(0.096 -0.096)">
     <defs>
      <path id="ArialMT-50" d="M 494 0 
L 494 4581 
L 2222 4581 
Q 2678 4581 2919 4538 
Q 3256 4481 3484 4323 
Q 3713 4166 3852 3881 
Q 3991 3597 3991 3256 
Q 3991 2672 3619 2267 
Q 3247 1863 2275 1863 
L 1100 1863 
L 1100 0 
L 494 0 
z
M 1100 2403 
L 2284 2403 
Q 2872 2403 3119 2622 
Q 3366 2841 3366 3238 
Q 3366 3525 3220 3729 
Q 3075 3934 2838 4000 
Q 2684 4041 2272 4041 
L 1100 4041 
L 1100 2403 
z
" transform="scale(0.015625)"/>
      <path id="ArialMT-68" d="M 422 0 
L 422 4581 
L 984 4581 
L 984 2938 
Q 1378 3394 1978 3394 
Q 2347 3394 2619 3248 
Q 2891 3103 3008 2847 
Q 3125 2591 3125 2103 
L 3125 0 
L 2563 0 
L 2563 2103 
Q 2563 2525 2380 2717 
Q 2197 2909 1863 2909 
Q 1613 2909 1392 2779 
Q 1172 2650 1078 2428 
Q 984 2206 984 1816 
L 984 0 
L 422 0 
z
" transform="scale(0.015625)"/>
      <path id="ArialMT-61" d="M 2588 409 
Q 2275 144 1986 34 
Q 1697 -75 1366 -75 
Q 819 -75 525 192 
Q 231 459 231 875 
Q 231 1119 342 1320 
Q 453 1522 633 1644 
Q 813 1766 1038 1828 
Q 1203 1872 1538 1913 
Q 2219 1994 2541 2106 
Q 2544 2222 2544 2253 
Q 2544 2597 2384 2738 
Q 2169 2928 1744 2928 
Q 1347 2928 1158 2789 
Q 969 2650 878 2297 
L 328 2372 
Q 403 2725 575 2942 
Q 747 3159 1072 3276 
Q 1397 3394 1825 3394 
Q 2250 3394 2515 3294 
Q 2781 3194 2906 3042 
Q 3031 2891 3081 2659 
Q 3109 2516 3109 2141 
L 3109 1391 
Q 3109 606 3145 398 
Q 3181 191 3288 0 
L 2700 0 
Q 2613 175 2588 409 
z
M 2541 1666 
Q 2234 1541 1622 1453 
Q 1275 1403 1131 1340 
Q 988 1278 909 1158 
Q 831 1038 831 891 
Q 831 666 1001 516 
Q 1172 366 1500 366 
Q 1825 366 2078 508 
Q 2331 650 2450 897 
Q 2541 1088 2541 1459 
L 2541 1666 
z
" transform="scale(0.015625)"/>
      <path id="ArialMT-73" d="M 197 991 
L 753 1078 
Q 800 744 1014 566 
Q 1228 388 1613 388 
Q 2000 388 2187 545 
Q 2375 703 2375 916 
Q 2375 1106 2209 1216 
Q 2094 1291 1634 1406 
Q 1016 1563 777 1677 
Q 538 1791 414 1992 
Q 291 2194 291 2438 
Q 291 2659 392 2848 
Q 494 3038 669 3163 
Q 800 3259 1026 3326 
Q 1253 3394 1513 3394 
Q 1903 3394 2198 3281 
Q 2494 3169 2634 2976 
Q 2775 2784 2828 2463 
L 2278 2388 
Q 2241 2644 2061 2787 
Q 1881 2931 1553 2931 
Q 1166 2931 1000 2803 
Q 834 2675 834 2503 
Q 834 2394 903 2306 
Q 972 2216 1119 2156 
Q 1203 2125 1616 2013 
Q 2213 1853 2448 1751 
Q 2684 1650 2818 1456 
Q 2953 1263 2953 975 
Q 2953 694 2789 445 
Q 2625 197 2315 61 
Q 2006 -75 1616 -75 
Q 969 -75 630 194 
Q 291 463 197 991 
z
" transform="scale(0.015625)"/>
      <path id="ArialMT-65" d="M 2694 1069 
L 3275 997 
Q 3138 488 2766 206 
Q 2394 -75 1816 -75 
Q 1088 -75 661 373 
Q 234 822 234 1631 
Q 234 2469 665 2931 
Q 1097 3394 1784 3394 
Q 2450 3394 2872 2941 
Q 3294 2488 3294 1666 
Q 3294 1616 3291 1516 
L 816 1516 
Q 847 969 1125 678 
Q 1403 388 1819 388 
Q 2128 388 2347 550 
Q 2566 713 2694 1069 
z
M 847 1978 
L 2700 1978 
Q 2663 2397 2488 2606 
Q 2219 2931 1791 2931 
Q 1403 2931 1139 2672 
Q 875 2413 847 1978 
z
" transform="scale(0.015625)"/>
      <path id="ArialMT-20" transform="scale(0.015625)"/>
      <path id="ArialMT-70" d="M 422 -1272 
L 422 3319 
L 934 3319 
L 934 2888 
Q 1116 3141 1344 3267 
Q 1572 3394 1897 3394 
Q 2322 3394 2647 3175 
Q 2972 2956 3137 2557 
Q 3303 2159 3303 1684 
Q 3303 1175 3120 767 
Q 2938 359 2589 142 
Q 2241 -75 1856 -75 
Q 1575 -75 1351 44 
Q 1128 163 984 344 
L 984 -1272 
L 422 -1272 
z
M 931 1641 
Q 931 1000 1190 694 
Q 1450 388 1819 388 
Q 2194 388 2461 705 
Q 2728 1022 2728 1688 
Q 2728 2322 2467 2637 
Q 2206 2953 1844 2953 
Q 1484 2953 1207 2617 
Q 931 2281 931 1641 
z
" transform="scale(0.015625)"/>
      <path id="ArialMT-63" d="M 2588 1216 
L 3141 1144 
Q 3050 572 2676 248 
Q 2303 -75 1759 -75 
Q 1078 -75 664 370 
Q 250 816 250 1647 
Q 250 2184 428 2587 
Q 606 2991 970 3192 
Q 1334 3394 1763 3394 
Q 2303 3394 2647 3120 
Q 2991 2847 3088 2344 
L 2541 2259 
Q 2463 2594 2264 2762 
Q 2066 2931 1784 2931 
Q 1359 2931 1093 2626 
Q 828 2322 828 1663 
Q 828 994 1084 691 
Q 1341 388 1753 388 
Q 2084 388 2306 591 
Q 2528 794 2588 1216 
z
" transform="scale(0.015625)"/>
     </defs>
     <use xlink:href="#ArialMT-50"/>
     <use xlink:href="#ArialMT-68" x="66.699219"/>
     <use xlink:href="#ArialMT-61" x="122.314453"/>
     <use xlink:href="#ArialMT-73" x="177.929688"/>
     <use xlink:href="#ArialMT-65" x="227.929688"/>
     <use xlink:href="#ArialMT-20" x="283.544922"/>
     <use xlink:href="#ArialMT-73" x="311.328125"/>
     <use xlink:href="#ArialMT-70" x="361.328125"/>
     <use xlink:href="#ArialMT-61" x="416.943359"/>
     <use xlink:href="#ArialMT-63" x="472.558594"/>
     <use xlink:href="#ArialMT-65" x="522.558594"/>
    </g>
   </g>
  </g>
 </g>
 <defs>
  <clipPath id="pfc9ac75319">
   <rect x="45.65125" y="20.0715" width="357.12" height="266.112"/>
  </clipPath>
 </defs>
</svg>