<?xml version="1.0" encoding="utf-8" standalone="no"?>
<!DOCTYPE svg PUBLIC "-//W3C//DTD SVG 1.1//EN"
  "http://www.w3.org/Graphics/SVG/1.1/DTD/svg11.dtd">
<svg xmlns:xlink="http://www.w3.org/1999/xlink" width="409.97125pt" height="309.639375pt" viewBox="0 0 409.97125 309.639375" xmlns="http://www.w3.org/2000/svg" version="1.1">
 <metadata>
  <rdf:RDF xmlns:dc="http://purl.org/dc/elements/1.1/" xmlns:cc="http://creativecommons.org/ns#" xmlns:rdf="http://www.w3.org/1999/02/22-rdf-syntax-ns#">
   <cc:Work>
    <dc:type rdf:resource="http://purl.org/dc/dcmitype/StillImage"/>
    <dc:date>2024-01-22T21:32:09.973802</dc:date>
    <dc:format>image/svg+xml</dc:format>
    <dc:creator>
     <cc:Agent>
      <dc:title>Matplotlib v3.8.0, https://matplotlib.org/</dc:title>
     </cc:Agent>
    </dc:creator>
   </cc:Work>
  </rdf:RDF>
 </metadata>
 <defs>
  <style type="text/css">*{stroke-linejoin: round; stroke-linecap: butt}</style>
 </defs>
 <g id="figure_1">
  <g id="patch_1">
   <path d="M 0 309.639375 
L 409.97125 309.639375 
L 409.97125 0 
L 0 0 
z
" style="fill: #ffffff"/>
  </g>
  <g id="axes_1">
   <g id="patch_2">
    <path d="M 45.65125 273.312 
L 207.978523 273.312 
L 207.978523 7.2 
L 45.65125 7.2 
z
" style="fill: #ffffff"/>
   </g>
   <g id="matplotlib.axis_1">
    <g id="xtick_1">
     <g id="line2d_1">
      <defs>
       <path id="m21fc3ed578" d="M 0 0 
L 0 4.8 
" style="stroke: #262626"/>
      </defs>
      <g>
       <use xlink:href="#m21fc3ed578" x="53.029762" y="273.312" style="fill: #262626; stroke: #262626"/>
      </g>
     </g>
     <g id="text_1">
      <!-- 0 -->
      <g style="fill: #262626" transform="translate(50.58295 287.910875) scale(0.088 -0.088)">
       <defs>
        <path id="ArialMT-30" d="M 266 2259 
Q 266 3072 433 3567 
Q 600 4063 929 4331 
Q 1259 4600 1759 4600 
Q 2128 4600 2406 4451 
Q 2684 4303 2865 4023 
Q 3047 3744 3150 3342 
Q 3253 2941 3253 2259 
Q 3253 1453 3087 958 
Q 2922 463 2592 192 
Q 2263 -78 1759 -78 
Q 1097 -78 719 397 
Q 266 969 266 2259 
z
M 844 2259 
Q 844 1131 1108 757 
Q 1372 384 1759 384 
Q 2147 384 2411 759 
Q 2675 1134 2675 2259 
Q 2675 3391 2411 3762 
Q 2147 4134 1753 4134 
Q 1366 4134 1134 3806 
Q 844 3388 844 2259 
z
" transform="scale(0.015625)"/>
       </defs>
       <use xlink:href="#ArialMT-30"/>
      </g>
     </g>
    </g>
    <g id="xtick_2">
     <g id="line2d_2">
      <g>
       <use xlink:href="#m21fc3ed578" x="82.543812" y="273.312" style="fill: #262626; stroke: #262626"/>
      </g>
     </g>
     <g id="text_2">
      <!-- 2 -->
      <g style="fill: #262626" transform="translate(80.096999 287.910875) scale(0.088 -0.088)">
       <defs>
        <path id="ArialMT-32" d="M 3222 541 
L 3222 0 
L 194 0 
Q 188 203 259 391 
Q 375 700 629 1000 
Q 884 1300 1366 1694 
Q 2113 2306 2375 2664 
Q 2638 3022 2638 3341 
Q 2638 3675 2398 3904 
Q 2159 4134 1775 4134 
Q 1369 4134 1125 3890 
Q 881 3647 878 3216 
L 300 3275 
Q 359 3922 746 4261 
Q 1134 4600 1788 4600 
Q 2447 4600 2831 4234 
Q 3216 3869 3216 3328 
Q 3216 3053 3103 2787 
Q 2991 2522 2730 2228 
Q 2469 1934 1863 1422 
Q 1356 997 1212 845 
Q 1069 694 975 541 
L 3222 541 
z
" transform="scale(0.015625)"/>
       </defs>
       <use xlink:href="#ArialMT-32"/>
      </g>
     </g>
    </g>
    <g id="xtick_3">
     <g id="line2d_3">
      <g>
       <use xlink:href="#m21fc3ed578" x="112.057862" y="273.312" style="fill: #262626; stroke: #262626"/>
      </g>
     </g>
     <g id="text_3">
      <!-- 4 -->
      <g style="fill: #262626" transform="translate(109.611049 287.910875) scale(0.088 -0.088)">
       <defs>
        <path id="ArialMT-34" d="M 2069 0 
L 2069 1097 
L 81 1097 
L 81 1613 
L 2172 4581 
L 2631 4581 
L 2631 1613 
L 3250 1613 
L 3250 1097 
L 2631 1097 
L 2631 0 
L 2069 0 
z
M 2069 1613 
L 2069 3678 
L 634 1613 
L 2069 1613 
z
" transform="scale(0.015625)"/>
       </defs>
       <use xlink:href="#ArialMT-34"/>
      </g>
     </g>
    </g>
    <g id="xtick_4">
     <g id="line2d_4">
      <g>
       <use xlink:href="#m21fc3ed578" x="141.571911" y="273.312" style="fill: #262626; stroke: #262626"/>
      </g>
     </g>
     <g id="text_4">
      <!-- 6 -->
      <g style="fill: #262626" transform="translate(139.125099 287.910875) scale(0.088 -0.088)">
       <defs>
        <path id="ArialMT-36" d="M 3184 3459 
L 2625 3416 
Q 2550 3747 2413 3897 
Q 2184 4138 1850 4138 
Q 1581 4138 1378 3988 
Q 1113 3794 959 3422 
Q 806 3050 800 2363 
Q 1003 2672 1297 2822 
Q 1591 2972 1913 2972 
Q 2475 2972 2870 2558 
Q 3266 2144 3266 1488 
Q 3266 1056 3080 686 
Q 2894 316 2569 119 
Q 2244 -78 1831 -78 
Q 1128 -78 684 439 
Q 241 956 241 2144 
Q 241 3472 731 4075 
Q 1159 4600 1884 4600 
Q 2425 4600 2770 4297 
Q 3116 3994 3184 3459 
z
M 888 1484 
Q 888 1194 1011 928 
Q 1134 663 1356 523 
Q 1578 384 1822 384 
Q 2178 384 2434 671 
Q 2691 959 2691 1453 
Q 2691 1928 2437 2201 
Q 2184 2475 1800 2475 
Q 1419 2475 1153 2201 
Q 888 1928 888 1484 
z
" transform="scale(0.015625)"/>
       </defs>
       <use xlink:href="#ArialMT-36"/>
      </g>
     </g>
    </g>
    <g id="xtick_5">
     <g id="line2d_5">
      <g>
       <use xlink:href="#m21fc3ed578" x="171.085961" y="273.312" style="fill: #262626; stroke: #262626"/>
      </g>
     </g>
     <g id="text_5">
      <!-- 8 -->
      <g style="fill: #262626" transform="translate(168.639148 287.910875) scale(0.088 -0.088)">
       <defs>
        <path id="ArialMT-38" d="M 1131 2484 
Q 781 2613 612 2850 
Q 444 3088 444 3419 
Q 444 3919 803 4259 
Q 1163 4600 1759 4600 
Q 2359 4600 2725 4251 
Q 3091 3903 3091 3403 
Q 3091 3084 2923 2848 
Q 2756 2613 2416 2484 
Q 2838 2347 3058 2040 
Q 3278 1734 3278 1309 
Q 3278 722 2862 322 
Q 2447 -78 1769 -78 
Q 1091 -78 675 323 
Q 259 725 259 1325 
Q 259 1772 486 2073 
Q 713 2375 1131 2484 
z
M 1019 3438 
Q 1019 3113 1228 2906 
Q 1438 2700 1772 2700 
Q 2097 2700 2305 2904 
Q 2513 3109 2513 3406 
Q 2513 3716 2298 3927 
Q 2084 4138 1766 4138 
Q 1444 4138 1231 3931 
Q 1019 3725 1019 3438 
z
M 838 1322 
Q 838 1081 952 856 
Q 1066 631 1291 507 
Q 1516 384 1775 384 
Q 2178 384 2440 643 
Q 2703 903 2703 1303 
Q 2703 1709 2433 1975 
Q 2163 2241 1756 2241 
Q 1359 2241 1098 1978 
Q 838 1716 838 1322 
z
" transform="scale(0.015625)"/>
       </defs>
       <use xlink:href="#ArialMT-38"/>
      </g>
     </g>
    </g>
    <g id="xtick_6">
     <g id="line2d_6">
      <g>
       <use xlink:href="#m21fc3ed578" x="200.60001" y="273.312" style="fill: #262626; stroke: #262626"/>
      </g>
     </g>
     <g id="text_6">
      <!-- 10 -->
      <g style="fill: #262626" transform="translate(195.706385 287.910875) scale(0.088 -0.088)">
       <defs>
        <path id="ArialMT-31" d="M 2384 0 
L 1822 0 
L 1822 3584 
Q 1619 3391 1289 3197 
Q 959 3003 697 2906 
L 697 3450 
Q 1169 3672 1522 3987 
Q 1875 4303 2022 4600 
L 2384 4600 
L 2384 0 
z
" transform="scale(0.015625)"/>
       </defs>
       <use xlink:href="#ArialMT-31"/>
       <use xlink:href="#ArialMT-30" x="55.615234"/>
      </g>
     </g>
    </g>
    <g id="text_7">
     <!-- $t$ -->
     <g style="fill: #262626" transform="translate(124.894886 300.531375) scale(0.096 -0.096)">
      <defs>
       <path id="DejaVuSans-Oblique-74" d="M 2706 3500 
L 2619 3053 
L 1472 3053 
L 1100 1153 
Q 1081 1047 1072 975 
Q 1063 903 1063 863 
Q 1063 663 1183 572 
Q 1303 481 1569 481 
L 2150 481 
L 2053 0 
L 1503 0 
Q 991 0 739 200 
Q 488 400 488 806 
Q 488 878 497 964 
Q 506 1050 525 1153 
L 897 3053 
L 409 3053 
L 500 3500 
L 978 3500 
L 1172 4494 
L 1747 4494 
L 1556 3500 
L 2706 3500 
z
" transform="scale(0.015625)"/>
      </defs>
      <use xlink:href="#DejaVuSans-Oblique-74" transform="translate(0 0.78125)"/>
     </g>
    </g>
   </g>
   <g id="matplotlib.axis_2">
    <g id="ytick_1">
     <g id="line2d_7">
      <defs>
       <path id="me489d47c18" d="M 0 0 
L -4.8 0 
" style="stroke: #262626"/>
      </defs>
      <g>
       <use xlink:href="#me489d47c18" x="45.65125" y="264.341052" style="fill: #262626; stroke: #262626"/>
      </g>
     </g>
     <g id="text_8">
      <!-- −0.6 -->
      <g style="fill: #262626" transform="translate(19.9795 267.490489) scale(0.088 -0.088)">
       <defs>
        <path id="ArialMT-2212" d="M 3381 1997 
L 356 1997 
L 356 2522 
L 3381 2522 
L 3381 1997 
z
" transform="scale(0.015625)"/>
        <path id="ArialMT-2e" d="M 581 0 
L 581 641 
L 1222 641 
L 1222 0 
L 581 0 
z
" transform="scale(0.015625)"/>
       </defs>
       <use xlink:href="#ArialMT-2212"/>
       <use xlink:href="#ArialMT-30" x="58.398438"/>
       <use xlink:href="#ArialMT-2e" x="114.013672"/>
       <use xlink:href="#ArialMT-36" x="141.796875"/>
      </g>
     </g>
    </g>
    <g id="ytick_2">
     <g id="line2d_8">
      <g>
       <use xlink:href="#me489d47c18" x="45.65125" y="226.25423" style="fill: #262626; stroke: #262626"/>
      </g>
     </g>
     <g id="text_9">
      <!-- −0.4 -->
      <g style="fill: #262626" transform="translate(19.9795 229.403667) scale(0.088 -0.088)">
       <use xlink:href="#ArialMT-2212"/>
       <use xlink:href="#ArialMT-30" x="58.398438"/>
       <use xlink:href="#ArialMT-2e" x="114.013672"/>
       <use xlink:href="#ArialMT-34" x="141.796875"/>
      </g>
     </g>
    </g>
    <g id="ytick_3">
     <g id="line2d_9">
      <g>
       <use xlink:href="#me489d47c18" x="45.65125" y="188.167408" style="fill: #262626; stroke: #262626"/>
      </g>
     </g>
     <g id="text_10">
      <!-- −0.2 -->
      <g style="fill: #262626" transform="translate(19.9795 191.316845) scale(0.088 -0.088)">
       <use xlink:href="#ArialMT-2212"/>
       <use xlink:href="#ArialMT-30" x="58.398438"/>
       <use xlink:href="#ArialMT-2e" x="114.013672"/>
       <use xlink:href="#ArialMT-32" x="141.796875"/>
      </g>
     </g>
    </g>
    <g id="ytick_4">
     <g id="line2d_10">
      <g>
       <use xlink:href="#me489d47c18" x="45.65125" y="150.080586" style="fill: #262626; stroke: #262626"/>
      </g>
     </g>
     <g id="text_11">
      <!-- 0.0 -->
      <g style="fill: #262626" transform="translate(25.11925 153.230023) scale(0.088 -0.088)">
       <use xlink:href="#ArialMT-30"/>
       <use xlink:href="#ArialMT-2e" x="55.615234"/>
       <use xlink:href="#ArialMT-30" x="83.398438"/>
      </g>
     </g>
    </g>
    <g id="ytick_5">
     <g id="line2d_11">
      <g>
       <use xlink:href="#me489d47c18" x="45.65125" y="111.993764" style="fill: #262626; stroke: #262626"/>
      </g>
     </g>
     <g id="text_12">
      <!-- 0.2 -->
      <g style="fill: #262626" transform="translate(25.11925 115.143201) scale(0.088 -0.088)">
       <use xlink:href="#ArialMT-30"/>
       <use xlink:href="#ArialMT-2e" x="55.615234"/>
       <use xlink:href="#ArialMT-32" x="83.398438"/>
      </g>
     </g>
    </g>
    <g id="ytick_6">
     <g id="line2d_12">
      <g>
       <use xlink:href="#me489d47c18" x="45.65125" y="73.906942" style="fill: #262626; stroke: #262626"/>
      </g>
     </g>
     <g id="text_13">
      <!-- 0.4 -->
      <g style="fill: #262626" transform="translate(25.11925 77.056379) scale(0.088 -0.088)">
       <use xlink:href="#ArialMT-30"/>
       <use xlink:href="#ArialMT-2e" x="55.615234"/>
       <use xlink:href="#ArialMT-34" x="83.398438"/>
      </g>
     </g>
    </g>
    <g id="ytick_7">
     <g id="line2d_13">
      <g>
       <use xlink:href="#me489d47c18" x="45.65125" y="35.820119" style="fill: #262626; stroke: #262626"/>
      </g>
     </g>
     <g id="text_14">
      <!-- 0.6 -->
      <g style="fill: #262626" transform="translate(25.11925 38.969557) scale(0.088 -0.088)">
       <use xlink:href="#ArialMT-30"/>
       <use xlink:href="#ArialMT-2e" x="55.615234"/>
       <use xlink:href="#ArialMT-36" x="83.398438"/>
      </g>
     </g>
    </g>
    <g id="text_15">
     <!-- $x$ -->
     <g style="fill: #262626" transform="translate(14.0715 143.136) rotate(-90) scale(0.096 -0.096)">
      <defs>
       <path id="DejaVuSans-Oblique-78" d="M 3841 3500 
L 2234 1784 
L 3219 0 
L 2559 0 
L 1819 1388 
L 531 0 
L -166 0 
L 1556 1844 
L 641 3500 
L 1300 3500 
L 1972 2234 
L 3144 3500 
L 3841 3500 
z
" transform="scale(0.015625)"/>
      </defs>
      <use xlink:href="#DejaVuSans-Oblique-78" transform="translate(0 0.3125)"/>
     </g>
    </g>
   </g>
   <g id="line2d_14">
    <path d="M 53.029762 179.896605 
L 53.767983 180.303328 
L 54.432381 180.44351 
L 55.096779 180.370763 
L 55.761178 180.087068 
L 56.499398 179.527952 
L 57.31144 178.622429 
L 58.197305 177.297404 
L 59.230814 175.324574 
L 60.411966 172.537949 
L 61.740763 168.776647 
L 63.217203 163.90073 
L 64.988933 157.223388 
L 67.129772 148.214704 
L 70.156474 134.403806 
L 74.881086 112.868617 
L 76.874281 104.819327 
L 78.498365 99.134232 
L 79.827163 95.233323 
L 81.008315 92.432449 
L 81.968001 90.671135 
L 82.853866 89.486474 
L 83.592086 88.8396 
L 84.256484 88.531506 
L 84.84706 88.480882 
L 85.437636 88.643799 
L 86.102034 89.085111 
L 86.766432 89.801162 
L 87.504652 90.919127 
L 88.39052 92.705475 
L 89.350206 95.17935 
L 90.457536 98.710201 
L 91.638688 103.241259 
L 92.967483 109.226568 
L 94.517749 117.303681 
L 96.215655 127.364112 
L 98.208849 140.581157 
L 100.497334 157.306423 
L 103.450214 180.656811 
L 109.503621 229.013668 
L 111.201527 240.573836 
L 112.530327 248.25264 
L 113.637657 253.481412 
L 114.597342 257.011838 
L 115.409384 259.198993 
L 116.073782 260.408859 
L 116.590536 260.976238 
L 117.033468 261.197249 
L 117.4764 261.170858 
L 117.919332 260.896283 
L 118.436086 260.26282 
L 119.026662 259.129833 
L 119.69106 257.343927 
L 120.503102 254.45079 
L 121.462788 250.079726 
L 122.570125 243.862434 
L 123.825099 235.478242 
L 125.375361 223.487529 
L 127.220911 207.390555 
L 129.583215 184.75669 
L 132.757561 152.079271 
L 142.280605 52.419145 
L 143.757045 40.175934 
L 144.938197 32.030608 
L 145.971705 26.376251 
L 146.783747 23.025666 
L 147.521974 20.880452 
L 148.11255 19.809349 
L 148.555482 19.390767 
L 148.924592 19.296 
L 149.293702 19.432323 
L 149.736634 19.899599 
L 150.253388 20.858239 
L 150.843964 22.486403 
L 151.582184 25.288701 
L 152.394226 29.294156 
L 153.353912 35.156368 
L 154.535064 43.81501 
L 156.011503 56.407812 
L 158.004697 75.51137 
L 161.621982 112.812993 
L 166.641878 164.015059 
L 169.816224 194.191803 
L 172.25235 215.341783 
L 174.171722 230.12329 
L 175.721991 240.398018 
L 176.976957 247.360732 
L 178.084294 252.338868 
L 179.043987 255.680281 
L 179.856022 257.757753 
L 180.520427 258.928618 
L 181.111003 259.563352 
L 181.62775 259.804023 
L 182.070682 259.777462 
L 182.513614 259.538142 
L 183.030375 258.994203 
L 183.620951 258.031897 
L 184.359171 256.337615 
L 185.171206 253.879222 
L 186.130899 250.237979 
L 187.312051 244.796528 
L 188.714662 237.208603 
L 190.560219 225.884162 
L 193.586928 205.664644 
L 197.794774 177.815864 
L 200.304722 162.686536 
L 200.60001 161.006321 
L 200.60001 161.006321 
" clip-path="url(#pde3ac94813)" style="fill: none; stroke: #1f77b4; stroke-width: 1.2; stroke-linecap: round"/>
   </g>
   <g id="line2d_15">
    <path d="M 53.029762 178.643606 
L 53.767983 179.045074 
L 54.506203 179.188309 
L 55.170601 179.097622 
L 55.908822 178.755338 
L 56.647042 178.162621 
L 57.459085 177.227554 
L 58.418771 175.751561 
L 59.45228 173.731278 
L 60.633432 170.906775 
L 61.962229 167.123025 
L 63.512492 161.985545 
L 65.284221 155.307279 
L 67.498882 146.034382 
L 70.968518 130.379673 
L 74.733442 113.66546 
L 76.800459 105.491785 
L 78.424543 99.942275 
L 79.753339 96.136406 
L 80.934493 93.403955 
L 81.894179 91.684877 
L 82.780044 90.527196 
L 83.518264 89.893359 
L 84.182662 89.589295 
L 84.773238 89.535969 
L 85.363814 89.690208 
L 86.028212 90.11463 
L 86.69261 90.806397 
L 87.43083 91.888896 
L 88.316698 93.621526 
L 89.276384 96.024612 
L 90.383714 99.459425 
L 91.564866 103.874081 
L 92.893661 109.715343 
L 94.370105 117.211956 
L 96.068011 127.016902 
L 97.987383 139.437923 
L 100.275868 155.793959 
L 103.154926 178.128989 
L 109.651265 229.214015 
L 111.349171 240.462933 
L 112.677971 247.890483 
L 113.785301 252.914442 
L 114.744986 256.277376 
L 115.557028 258.334168 
L 116.221426 259.447268 
L 116.73818 259.946543 
L 117.181112 260.114636 
L 117.624044 260.040765 
L 118.066976 259.724261 
L 118.58373 259.049254 
L 119.174306 257.878696 
L 119.838704 256.063074 
L 120.650746 253.151525 
L 121.610432 248.782516 
L 122.717769 242.596138 
L 123.972743 234.277463 
L 125.523005 222.399809 
L 127.368555 206.463482 
L 129.730859 184.047838 
L 132.905205 151.659915 
L 142.354427 53.629794 
L 143.904689 40.87253 
L 145.085841 32.816341 
L 146.119349 27.216695 
L 146.931391 23.890968 
L 147.669618 21.75311 
L 148.260194 20.677035 
L 148.703126 20.248317 
L 149.072236 20.14095 
L 149.441346 20.261041 
L 149.810456 20.607682 
L 150.253388 21.319817 
L 150.843964 22.762465 
L 151.508362 25.036975 
L 152.320404 28.702725 
L 153.28009 34.185163 
L 154.38742 41.863814 
L 155.790037 53.278987 
L 157.635587 70.350635 
L 160.514652 99.422007 
L 167.306276 168.456662 
L 170.4068 197.540674 
L 172.769111 217.714988 
L 174.614654 231.660597 
L 176.091093 241.263326 
L 177.346074 248.087952 
L 178.453397 252.933829 
L 179.41309 256.154186 
L 180.225139 258.125858 
L 180.88953 259.208653 
L 181.480106 259.764692 
L 181.996867 259.936645 
L 182.439799 259.851594 
L 182.882731 259.554351 
L 183.399478 258.943942 
L 183.990054 257.907572 
L 184.728274 256.124232 
L 185.614138 253.312479 
L 186.647646 249.191496 
L 187.828798 243.522195 
L 189.305238 235.280796 
L 191.298439 222.749055 
L 195.432471 194.84469 
L 198.680638 173.77183 
L 200.60001 162.319222 
L 200.60001 162.319222 
" clip-path="url(#pde3ac94813)" style="fill: none; stroke-dasharray: 4.44,1.92; stroke-dashoffset: 0; stroke: #ff7f0e; stroke-width: 1.2"/>
   </g>
   <g id="line2d_16">
    <path d="M 53.029762 127.598401 
L 54.137093 128.351588 
L 55.244424 128.835234 
L 56.277932 129.04524 
L 57.31144 129.027082 
L 58.344949 128.788513 
L 59.45228 128.300399 
L 60.633432 127.532842 
L 61.962229 126.394498 
L 63.512492 124.751436 
L 65.358043 122.453239 
L 68.237102 118.458369 
L 71.485272 114.049189 
L 73.257 112.018167 
L 74.65962 110.733696 
L 75.840772 109.934895 
L 76.874281 109.484156 
L 77.833967 109.297646 
L 78.719831 109.341315 
L 79.605695 109.606611 
L 80.491561 110.105987 
L 81.451247 110.923551 
L 82.410933 112.039711 
L 83.444442 113.585735 
L 84.551772 115.646468 
L 85.732924 118.311237 
L 87.06172 121.886056 
L 88.464342 126.315895 
L 90.014604 131.978056 
L 91.71251 139.065943 
L 93.558059 147.757803 
L 95.625079 158.602021 
L 97.987383 172.215858 
L 101.161732 191.930003 
L 105.960162 221.756289 
L 107.879537 232.210246 
L 109.355977 239.064747 
L 110.537129 243.577019 
L 111.570637 246.692036 
L 112.456505 248.675286 
L 113.194725 249.810135 
L 113.785301 250.365005 
L 114.302054 250.586878 
L 114.818808 250.559443 
L 115.335562 250.281134 
L 115.926138 249.655991 
L 116.590536 248.564344 
L 117.328756 246.877825 
L 118.21462 244.217321 
L 119.174306 240.590845 
L 120.281636 235.516211 
L 121.610432 228.300006 
L 123.160701 218.554297 
L 125.006251 205.453429 
L 127.294733 187.515764 
L 130.173791 163.104354 
L 134.012535 128.538578 
L 140.287411 71.80444 
L 142.206783 56.620764 
L 143.683223 46.598817 
L 144.864375 39.967205 
L 145.897883 35.370023 
L 146.783747 32.430007 
L 147.521974 30.735373 
L 148.11255 29.893499 
L 148.629304 29.538753 
L 149.072236 29.520297 
L 149.515168 29.765314 
L 149.9581 30.271865 
L 150.474854 31.188699 
L 151.139252 32.870269 
L 151.877472 35.37537 
L 152.763336 39.209304 
L 153.796844 44.715567 
L 155.051818 52.687284 
L 156.602079 64.07677 
L 158.669095 81.073553 
L 162.212558 112.416448 
L 167.970674 163.090132 
L 171.366486 190.994076 
L 173.950263 210.461059 
L 175.94345 223.88207 
L 177.567533 233.405112 
L 178.970158 240.353603 
L 180.15131 245.13549 
L 181.184818 248.430109 
L 182.070682 250.548365 
L 182.808902 251.796279 
L 183.473307 252.509345 
L 184.063883 252.814952 
L 184.58063 252.829561 
L 185.097391 252.610593 
L 185.687967 252.078969 
L 186.352358 251.131522 
L 187.090578 249.661837 
L 187.976442 247.352321 
L 189.00995 243.96866 
L 190.191102 239.303459 
L 191.667556 232.488368 
L 193.513099 222.846353 
L 196.465979 206.043078 
L 200.60001 182.409405 
L 200.60001 182.409405 
" clip-path="url(#pde3ac94813)" style="fill: none; stroke: #2ca02c; stroke-width: 1.2; stroke-linecap: round"/>
   </g>
   <g id="line2d_17">
    <path d="M 53.029762 127.28276 
L 54.137093 128.043209 
L 55.244424 128.536069 
L 56.277932 128.756367 
L 57.31144 128.750055 
L 58.344949 128.524829 
L 59.45228 128.052618 
L 60.633432 127.303889 
L 61.962229 126.189037 
L 63.512492 124.576759 
L 65.358043 122.320696 
L 68.310924 118.304066 
L 71.337628 114.29371 
L 73.109356 112.306286 
L 74.511976 111.051996 
L 75.693128 110.274731 
L 76.726637 109.839125 
L 77.686323 109.662928 
L 78.572187 109.712383 
L 79.458051 109.979401 
L 80.343917 110.475988 
L 81.303603 111.285022 
L 82.263289 112.386601 
L 83.296798 113.909904 
L 84.404128 115.938211 
L 85.58528 118.559436 
L 86.914076 122.075043 
L 88.316698 126.43207 
L 89.86696 132.003811 
L 91.564866 138.984032 
L 93.410415 147.552919 
L 95.477435 158.257254 
L 97.839739 171.714805 
L 100.940266 190.771624 
L 105.960162 221.709898 
L 107.805715 231.662861 
L 109.282155 238.476505 
L 110.463307 242.972609 
L 111.496815 246.088028 
L 112.382683 248.083616 
L 113.120903 249.237625 
L 113.711479 249.813608 
L 114.228232 250.058149 
L 114.744986 250.057116 
L 115.26174 249.808818 
L 115.778494 249.313028 
L 116.36907 248.445058 
L 117.10729 246.914522 
L 117.919332 244.674297 
L 118.879018 241.308037 
L 119.986348 236.520849 
L 121.241322 230.038125 
L 122.717769 221.164614 
L 124.489497 209.056301 
L 126.630335 192.79793 
L 129.361749 170.226153 
L 132.905205 138.954836 
L 141.025631 66.460316 
L 142.797359 53.169578 
L 144.199977 44.280788 
L 145.307307 38.566181 
L 146.266993 34.694449 
L 147.079035 32.278701 
L 147.74344 30.922763 
L 148.334016 30.201581 
L 148.776948 29.964236 
L 149.21988 29.988414 
L 149.662812 30.273579 
L 150.179566 30.933251 
L 150.770142 32.110846 
L 151.43454 33.959703 
L 152.246582 36.936973 
L 153.206268 41.398013 
L 154.313598 47.673768 
L 155.642393 56.542909 
L 157.340299 69.493556 
L 159.702603 89.412563 
L 171.145027 188.342718 
L 173.802619 208.570971 
L 175.869635 222.683056 
L 177.567533 232.788329 
L 178.970158 239.855407 
L 180.15131 244.750909 
L 181.184818 248.153276 
L 182.070682 250.368376 
L 182.808902 251.69906 
L 183.473307 252.487381 
L 184.063883 252.859845 
L 184.58063 252.932558 
L 185.097391 252.770889 
L 185.614138 252.378141 
L 186.204714 251.652419 
L 186.942934 250.343677 
L 187.754983 248.414105 
L 188.714662 245.520411 
L 189.821999 241.44193 
L 191.150795 235.660014 
L 192.848708 227.181338 
L 195.211012 214.09581 
L 200.60001 183.140453 
L 200.60001 183.140453 
" clip-path="url(#pde3ac94813)" style="fill: none; stroke-dasharray: 4.44,1.92; stroke-dashoffset: 0; stroke: #d62728; stroke-width: 1.2"/>
   </g>
   <g id="patch_3">
    <path d="M 45.65125 264.341052 
L 45.65125 35.820119 
" style="fill: none; stroke: #262626; stroke-linejoin: miter; stroke-linecap: square"/>
   </g>
   <g id="patch_4">
    <path d="M 53.029762 273.312 
L 200.60001 273.312 
" style="fill: none; stroke: #262626; stroke-linejoin: miter; stroke-linecap: square"/>
   </g>
   <g id="legend_1">
    <g id="patch_5">
     <path d="M 51.81125 64.0315 
L 111.916625 64.0315 
Q 113.676625 64.0315 113.676625 62.2715 
L 113.676625 13.36 
Q 113.676625 11.6 111.916625 11.6 
L 51.81125 11.6 
Q 50.05125 11.6 50.05125 13.36 
L 50.05125 62.2715 
Q 50.05125 64.0315 51.81125 64.0315 
z
" style="fill: #ffffff; opacity: 0.8; stroke: #cccccc; stroke-width: 0.8; stroke-linejoin: miter"/>
    </g>
    <g id="line2d_18">
     <path d="M 53.57125 18.338875 
L 62.37125 18.338875 
L 71.17125 18.338875 
" style="fill: none; stroke: #1f77b4; stroke-width: 1.2; stroke-linecap: round"/>
    </g>
    <g id="text_16">
     <!-- PC 1 x -->
     <g style="fill: #262626" transform="translate(78.21125 21.418875) scale(0.088 -0.088)">
      <defs>
       <path id="ArialMT-50" d="M 494 0 
L 494 4581 
L 2222 4581 
Q 2678 4581 2919 4538 
Q 3256 4481 3484 4323 
Q 3713 4166 3852 3881 
Q 3991 3597 3991 3256 
Q 3991 2672 3619 2267 
Q 3247 1863 2275 1863 
L 1100 1863 
L 1100 0 
L 494 0 
z
M 1100 2403 
L 2284 2403 
Q 2872 2403 3119 2622 
Q 3366 2841 3366 3238 
Q 3366 3525 3220 3729 
Q 3075 3934 2838 4000 
Q 2684 4041 2272 4041 
L 1100 4041 
L 1100 2403 
z
" transform="scale(0.015625)"/>
       <path id="ArialMT-43" d="M 3763 1606 
L 4369 1453 
Q 4178 706 3683 314 
Q 3188 -78 2472 -78 
Q 1731 -78 1267 223 
Q 803 525 561 1097 
Q 319 1669 319 2325 
Q 319 3041 592 3573 
Q 866 4106 1370 4382 
Q 1875 4659 2481 4659 
Q 3169 4659 3637 4309 
Q 4106 3959 4291 3325 
L 3694 3184 
Q 3534 3684 3231 3912 
Q 2928 4141 2469 4141 
Q 1941 4141 1586 3887 
Q 1231 3634 1087 3207 
Q 944 2781 944 2328 
Q 944 1744 1114 1308 
Q 1284 872 1643 656 
Q 2003 441 2422 441 
Q 2931 441 3284 734 
Q 3638 1028 3763 1606 
z
" transform="scale(0.015625)"/>
       <path id="ArialMT-20" transform="scale(0.015625)"/>
       <path id="ArialMT-78" d="M 47 0 
L 1259 1725 
L 138 3319 
L 841 3319 
L 1350 2541 
Q 1494 2319 1581 2169 
Q 1719 2375 1834 2534 
L 2394 3319 
L 3066 3319 
L 1919 1756 
L 3153 0 
L 2463 0 
L 1781 1031 
L 1600 1309 
L 728 0 
L 47 0 
z
" transform="scale(0.015625)"/>
      </defs>
      <use xlink:href="#ArialMT-50"/>
      <use xlink:href="#ArialMT-43" x="66.699219"/>
      <use xlink:href="#ArialMT-20" x="138.916016"/>
      <use xlink:href="#ArialMT-31" x="166.699219"/>
      <use xlink:href="#ArialMT-20" x="222.314453"/>
      <use xlink:href="#ArialMT-78" x="250.097656"/>
     </g>
    </g>
    <g id="line2d_19">
     <path d="M 53.57125 30.78675 
L 62.37125 30.78675 
L 71.17125 30.78675 
" style="fill: none; stroke-dasharray: 4.44,1.92; stroke-dashoffset: 0; stroke: #ff7f0e; stroke-width: 1.2"/>
    </g>
    <g id="text_17">
     <!-- True 1 x -->
     <g style="fill: #262626" transform="translate(78.21125 33.86675) scale(0.088 -0.088)">
      <defs>
       <path id="ArialMT-54" d="M 1659 0 
L 1659 4041 
L 150 4041 
L 150 4581 
L 3781 4581 
L 3781 4041 
L 2266 4041 
L 2266 0 
L 1659 0 
z
" transform="scale(0.015625)"/>
       <path id="ArialMT-72" d="M 416 0 
L 416 3319 
L 922 3319 
L 922 2816 
Q 1116 3169 1280 3281 
Q 1444 3394 1641 3394 
Q 1925 3394 2219 3213 
L 2025 2691 
Q 1819 2813 1613 2813 
Q 1428 2813 1281 2702 
Q 1134 2591 1072 2394 
Q 978 2094 978 1738 
L 978 0 
L 416 0 
z
" transform="scale(0.015625)"/>
       <path id="ArialMT-75" d="M 2597 0 
L 2597 488 
Q 2209 -75 1544 -75 
Q 1250 -75 995 37 
Q 741 150 617 320 
Q 494 491 444 738 
Q 409 903 409 1263 
L 409 3319 
L 972 3319 
L 972 1478 
Q 972 1038 1006 884 
Q 1059 663 1231 536 
Q 1403 409 1656 409 
Q 1909 409 2131 539 
Q 2353 669 2445 892 
Q 2538 1116 2538 1541 
L 2538 3319 
L 3100 3319 
L 3100 0 
L 2597 0 
z
" transform="scale(0.015625)"/>
       <path id="ArialMT-65" d="M 2694 1069 
L 3275 997 
Q 3138 488 2766 206 
Q 2394 -75 1816 -75 
Q 1088 -75 661 373 
Q 234 822 234 1631 
Q 234 2469 665 2931 
Q 1097 3394 1784 3394 
Q 2450 3394 2872 2941 
Q 3294 2488 3294 1666 
Q 3294 1616 3291 1516 
L 816 1516 
Q 847 969 1125 678 
Q 1403 388 1819 388 
Q 2128 388 2347 550 
Q 2566 713 2694 1069 
z
M 847 1978 
L 2700 1978 
Q 2663 2397 2488 2606 
Q 2219 2931 1791 2931 
Q 1403 2931 1139 2672 
Q 875 2413 847 1978 
z
" transform="scale(0.015625)"/>
      </defs>
      <use xlink:href="#ArialMT-54"/>
      <use xlink:href="#ArialMT-72" x="57.333984"/>
      <use xlink:href="#ArialMT-75" x="90.634766"/>
      <use xlink:href="#ArialMT-65" x="146.25"/>
      <use xlink:href="#ArialMT-20" x="201.865234"/>
      <use xlink:href="#ArialMT-31" x="229.648438"/>
      <use xlink:href="#ArialMT-20" x="285.263672"/>
      <use xlink:href="#ArialMT-78" x="313.046875"/>
     </g>
    </g>
    <g id="line2d_20">
     <path d="M 53.57125 43.234625 
L 62.37125 43.234625 
L 71.17125 43.234625 
" style="fill: none; stroke: #2ca02c; stroke-width: 1.2; stroke-linecap: round"/>
    </g>
    <g id="text_18">
     <!-- PC 2 x -->
     <g style="fill: #262626" transform="translate(78.21125 46.314625) scale(0.088 -0.088)">
      <use xlink:href="#ArialMT-50"/>
      <use xlink:href="#ArialMT-43" x="66.699219"/>
      <use xlink:href="#ArialMT-20" x="138.916016"/>
      <use xlink:href="#ArialMT-32" x="166.699219"/>
      <use xlink:href="#ArialMT-20" x="222.314453"/>
      <use xlink:href="#ArialMT-78" x="250.097656"/>
     </g>
    </g>
    <g id="line2d_21">
     <path d="M 53.57125 55.6825 
L 62.37125 55.6825 
L 71.17125 55.6825 
" style="fill: none; stroke-dasharray: 4.44,1.92; stroke-dashoffset: 0; stroke: #d62728; stroke-width: 1.2"/>
    </g>
    <g id="text_19">
     <!-- True 2 x -->
     <g style="fill: #262626" transform="translate(78.21125 58.7625) scale(0.088 -0.088)">
      <use xlink:href="#ArialMT-54"/>
      <use xlink:href="#ArialMT-72" x="57.333984"/>
      <use xlink:href="#ArialMT-75" x="90.634766"/>
      <use xlink:href="#ArialMT-65" x="146.25"/>
      <use xlink:href="#ArialMT-20" x="201.865234"/>
      <use xlink:href="#ArialMT-32" x="229.648438"/>
      <use xlink:href="#ArialMT-20" x="285.263672"/>
      <use xlink:href="#ArialMT-78" x="313.046875"/>
     </g>
    </g>
   </g>
  </g>
  <g id="axes_2">
   <g id="patch_6">
    <path d="M 240.443977 273.312 
L 402.77125 273.312 
L 402.77125 7.2 
L 240.443977 7.2 
z
" style="fill: #ffffff"/>
   </g>
   <g id="matplotlib.axis_3">
    <g id="xtick_7">
     <g id="line2d_22">
      <g>
       <use xlink:href="#m21fc3ed578" x="247.82249" y="273.312" style="fill: #262626; stroke: #262626"/>
      </g>
     </g>
     <g id="text_20">
      <!-- 0 -->
      <g style="fill: #262626" transform="translate(245.375677 287.910875) scale(0.088 -0.088)">
       <use xlink:href="#ArialMT-30"/>
      </g>
     </g>
    </g>
    <g id="xtick_8">
     <g id="line2d_23">
      <g>
       <use xlink:href="#m21fc3ed578" x="277.336539" y="273.312" style="fill: #262626; stroke: #262626"/>
      </g>
     </g>
     <g id="text_21">
      <!-- 2 -->
      <g style="fill: #262626" transform="translate(274.889727 287.910875) scale(0.088 -0.088)">
       <use xlink:href="#ArialMT-32"/>
      </g>
     </g>
    </g>
    <g id="xtick_9">
     <g id="line2d_24">
      <g>
       <use xlink:href="#m21fc3ed578" x="306.850589" y="273.312" style="fill: #262626; stroke: #262626"/>
      </g>
     </g>
     <g id="text_22">
      <!-- 4 -->
      <g style="fill: #262626" transform="translate(304.403776 287.910875) scale(0.088 -0.088)">
       <use xlink:href="#ArialMT-34"/>
      </g>
     </g>
    </g>
    <g id="xtick_10">
     <g id="line2d_25">
      <g>
       <use xlink:href="#m21fc3ed578" x="336.364638" y="273.312" style="fill: #262626; stroke: #262626"/>
      </g>
     </g>
     <g id="text_23">
      <!-- 6 -->
      <g style="fill: #262626" transform="translate(333.917826 287.910875) scale(0.088 -0.088)">
       <use xlink:href="#ArialMT-36"/>
      </g>
     </g>
    </g>
    <g id="xtick_11">
     <g id="line2d_26">
      <g>
       <use xlink:href="#m21fc3ed578" x="365.878688" y="273.312" style="fill: #262626; stroke: #262626"/>
      </g>
     </g>
     <g id="text_24">
      <!-- 8 -->
      <g style="fill: #262626" transform="translate(363.431876 287.910875) scale(0.088 -0.088)">
       <use xlink:href="#ArialMT-38"/>
      </g>
     </g>
    </g>
    <g id="xtick_12">
     <g id="line2d_27">
      <g>
       <use xlink:href="#m21fc3ed578" x="395.392738" y="273.312" style="fill: #262626; stroke: #262626"/>
      </g>
     </g>
     <g id="text_25">
      <!-- 10 -->
      <g style="fill: #262626" transform="translate(390.499113 287.910875) scale(0.088 -0.088)">
       <use xlink:href="#ArialMT-31"/>
       <use xlink:href="#ArialMT-30" x="55.615234"/>
      </g>
     </g>
    </g>
    <g id="text_26">
     <!-- $t$ -->
     <g style="fill: #262626" transform="translate(319.687614 300.531375) scale(0.096 -0.096)">
      <use xlink:href="#DejaVuSans-Oblique-74" transform="translate(0 0.78125)"/>
     </g>
    </g>
   </g>
   <g id="matplotlib.axis_4">
    <g id="ytick_8">
     <g id="line2d_28">
      <g>
       <use xlink:href="#me489d47c18" x="240.443977" y="252.661904" style="fill: #262626; stroke: #262626"/>
      </g>
     </g>
     <g id="text_27">
      <!-- −0.75 -->
      <g style="fill: #262626" transform="translate(209.878602 255.811342) scale(0.088 -0.088)">
       <defs>
        <path id="ArialMT-37" d="M 303 3981 
L 303 4522 
L 3269 4522 
L 3269 4084 
Q 2831 3619 2401 2847 
Q 1972 2075 1738 1259 
Q 1569 684 1522 0 
L 944 0 
Q 953 541 1156 1306 
Q 1359 2072 1739 2783 
Q 2119 3494 2547 3981 
L 303 3981 
z
" transform="scale(0.015625)"/>
        <path id="ArialMT-35" d="M 266 1200 
L 856 1250 
Q 922 819 1161 601 
Q 1400 384 1738 384 
Q 2144 384 2425 690 
Q 2706 997 2706 1503 
Q 2706 1984 2436 2262 
Q 2166 2541 1728 2541 
Q 1456 2541 1237 2417 
Q 1019 2294 894 2097 
L 366 2166 
L 809 4519 
L 3088 4519 
L 3088 3981 
L 1259 3981 
L 1013 2750 
Q 1425 3038 1878 3038 
Q 2478 3038 2890 2622 
Q 3303 2206 3303 1553 
Q 3303 931 2941 478 
Q 2500 -78 1738 -78 
Q 1113 -78 717 272 
Q 322 622 266 1200 
z
" transform="scale(0.015625)"/>
       </defs>
       <use xlink:href="#ArialMT-2212"/>
       <use xlink:href="#ArialMT-30" x="58.398438"/>
       <use xlink:href="#ArialMT-2e" x="114.013672"/>
       <use xlink:href="#ArialMT-37" x="141.796875"/>
       <use xlink:href="#ArialMT-35" x="197.412109"/>
      </g>
     </g>
    </g>
    <g id="ytick_9">
     <g id="line2d_29">
      <g>
       <use xlink:href="#me489d47c18" x="240.443977" y="216.01082" style="fill: #262626; stroke: #262626"/>
      </g>
     </g>
     <g id="text_28">
      <!-- −0.50 -->
      <g style="fill: #262626" transform="translate(209.878602 219.160258) scale(0.088 -0.088)">
       <use xlink:href="#ArialMT-2212"/>
       <use xlink:href="#ArialMT-30" x="58.398438"/>
       <use xlink:href="#ArialMT-2e" x="114.013672"/>
       <use xlink:href="#ArialMT-35" x="141.796875"/>
       <use xlink:href="#ArialMT-30" x="197.412109"/>
      </g>
     </g>
    </g>
    <g id="ytick_10">
     <g id="line2d_30">
      <g>
       <use xlink:href="#me489d47c18" x="240.443977" y="179.359737" style="fill: #262626; stroke: #262626"/>
      </g>
     </g>
     <g id="text_29">
      <!-- −0.25 -->
      <g style="fill: #262626" transform="translate(209.878602 182.509174) scale(0.088 -0.088)">
       <use xlink:href="#ArialMT-2212"/>
       <use xlink:href="#ArialMT-30" x="58.398438"/>
       <use xlink:href="#ArialMT-2e" x="114.013672"/>
       <use xlink:href="#ArialMT-32" x="141.796875"/>
       <use xlink:href="#ArialMT-35" x="197.412109"/>
      </g>
     </g>
    </g>
    <g id="ytick_11">
     <g id="line2d_31">
      <g>
       <use xlink:href="#me489d47c18" x="240.443977" y="142.708653" style="fill: #262626; stroke: #262626"/>
      </g>
     </g>
     <g id="text_30">
      <!-- 0.00 -->
      <g style="fill: #262626" transform="translate(215.018352 145.85809) scale(0.088 -0.088)">
       <use xlink:href="#ArialMT-30"/>
       <use xlink:href="#ArialMT-2e" x="55.615234"/>
       <use xlink:href="#ArialMT-30" x="83.398438"/>
       <use xlink:href="#ArialMT-30" x="139.013672"/>
      </g>
     </g>
    </g>
    <g id="ytick_12">
     <g id="line2d_32">
      <g>
       <use xlink:href="#me489d47c18" x="240.443977" y="106.057569" style="fill: #262626; stroke: #262626"/>
      </g>
     </g>
     <g id="text_31">
      <!-- 0.25 -->
      <g style="fill: #262626" transform="translate(215.018352 109.207006) scale(0.088 -0.088)">
       <use xlink:href="#ArialMT-30"/>
       <use xlink:href="#ArialMT-2e" x="55.615234"/>
       <use xlink:href="#ArialMT-32" x="83.398438"/>
       <use xlink:href="#ArialMT-35" x="139.013672"/>
      </g>
     </g>
    </g>
    <g id="ytick_13">
     <g id="line2d_33">
      <g>
       <use xlink:href="#me489d47c18" x="240.443977" y="69.406485" style="fill: #262626; stroke: #262626"/>
      </g>
     </g>
     <g id="text_32">
      <!-- 0.50 -->
      <g style="fill: #262626" transform="translate(215.018352 72.555923) scale(0.088 -0.088)">
       <use xlink:href="#ArialMT-30"/>
       <use xlink:href="#ArialMT-2e" x="55.615234"/>
       <use xlink:href="#ArialMT-35" x="83.398438"/>
       <use xlink:href="#ArialMT-30" x="139.013672"/>
      </g>
     </g>
    </g>
    <g id="ytick_14">
     <g id="line2d_34">
      <g>
       <use xlink:href="#me489d47c18" x="240.443977" y="32.755401" style="fill: #262626; stroke: #262626"/>
      </g>
     </g>
     <g id="text_33">
      <!-- 0.75 -->
      <g style="fill: #262626" transform="translate(215.018352 35.904839) scale(0.088 -0.088)">
       <use xlink:href="#ArialMT-30"/>
       <use xlink:href="#ArialMT-2e" x="55.615234"/>
       <use xlink:href="#ArialMT-37" x="83.398438"/>
       <use xlink:href="#ArialMT-35" x="139.013672"/>
      </g>
     </g>
    </g>
    <g id="text_34">
     <!-- $v$ -->
     <g style="fill: #262626" transform="translate(203.970602 143.136) rotate(-90) scale(0.096 -0.096)">
      <defs>
       <path id="DejaVuSans-Oblique-76" d="M 459 3500 
L 1069 3500 
L 1581 525 
L 3256 3500 
L 3866 3500 
L 1875 0 
L 1100 0 
L 459 3500 
z
" transform="scale(0.015625)"/>
      </defs>
      <use xlink:href="#DejaVuSans-Oblique-76" transform="translate(0 0.3125)"/>
     </g>
    </g>
   </g>
   <g id="line2d_35">
    <path d="M 247.82249 151.000904 
L 252.251812 127.195908 
L 254.466473 116.551117 
L 256.312024 108.756725 
L 257.862286 103.10831 
L 259.264905 98.775424 
L 260.51988 95.563841 
L 261.627211 93.275967 
L 262.66072 91.620627 
L 263.546584 90.584073 
L 264.358626 89.954679 
L 265.096846 89.657494 
L 265.761245 89.620854 
L 266.425643 89.809339 
L 267.090041 90.229341 
L 267.828261 90.975326 
L 268.640305 92.145257 
L 269.526169 93.850659 
L 270.485855 96.215758 
L 271.519365 99.374614 
L 272.700516 103.763612 
L 273.95549 109.318418 
L 275.35811 116.550864 
L 276.982194 126.115568 
L 279.049212 139.701303 
L 286.800525 192.166024 
L 288.719897 202.909139 
L 290.491628 211.606595 
L 292.189534 218.834977 
L 293.739796 224.491034 
L 295.142417 228.803096 
L 296.323569 231.783494 
L 297.357077 233.833962 
L 298.242941 235.112297 
L 298.981161 235.78879 
L 299.571737 236.042384 
L 300.088491 236.03195 
L 300.605245 235.784543 
L 301.121999 235.279819 
L 301.712579 234.360899 
L 302.376977 232.852739 
L 303.115197 230.535167 
L 303.927238 227.138223 
L 304.813102 222.343457 
L 305.772788 215.794962 
L 306.806296 207.128073 
L 307.987452 195.217653 
L 309.39007 178.57533 
L 311.161798 154.663738 
L 315.812583 90.470361 
L 317.28903 73.708922 
L 318.617826 61.031323 
L 319.8728 51.188687 
L 321.053952 43.683204 
L 322.161282 38.002112 
L 323.268612 33.417992 
L 324.375942 29.718711 
L 325.557094 26.53638 
L 326.738246 23.972642 
L 327.919398 21.92961 
L 328.952906 20.561218 
L 329.838777 19.742903 
L 330.576997 19.364639 
L 331.167573 19.302886 
L 331.684327 19.456339 
L 332.201081 19.833973 
L 332.791657 20.581832 
L 333.382233 21.717671 
L 334.046631 23.529654 
L 334.711029 25.987781 
L 335.449248 29.578759 
L 336.26129 34.70011 
L 337.147154 41.829741 
L 338.10684 51.501631 
L 339.140348 64.245506 
L 340.3215 81.646662 
L 341.79794 106.975256 
L 344.455539 157.51556 
L 346.448733 193.383903 
L 347.851351 214.770074 
L 349.032503 229.508513 
L 350.066011 239.802352 
L 351.025697 247.250616 
L 351.911561 252.462636 
L 352.723603 255.989116 
L 353.461823 258.287621 
L 354.126221 259.717906 
L 354.790619 260.630403 
L 355.381202 261.070892 
L 355.971778 261.216 
L 356.562353 261.111708 
L 357.226751 260.746369 
L 358.038793 260.010228 
L 358.998479 258.815327 
L 360.179631 256.959819 
L 361.434605 254.57387 
L 362.689579 251.720772 
L 363.870731 248.49266 
L 364.978061 244.837666 
L 366.085398 240.403215 
L 367.192721 235.010295 
L 368.300058 228.489173 
L 369.48121 220.137115 
L 370.736177 209.586344 
L 372.138802 195.785406 
L 373.836715 176.655008 
L 376.86341 139.285585 
L 379.078069 113.371888 
L 380.554509 98.532832 
L 381.80949 88.004007 
L 382.916813 80.461579 
L 383.950321 74.918277 
L 384.836185 71.278736 
L 385.648234 68.791003 
L 386.386454 67.182448 
L 387.050859 66.22342 
L 387.641435 65.726883 
L 388.158182 65.544498 
L 388.674943 65.577861 
L 389.265519 65.857075 
L 389.92991 66.447269 
L 390.741959 67.516356 
L 391.701638 69.197229 
L 392.88279 71.766337 
L 394.35923 75.562316 
L 395.392738 78.501788 
L 395.392738 78.501788 
" clip-path="url(#p65991159a0)" style="fill: none; stroke: #1f77b4; stroke-width: 1.2; stroke-linecap: round"/>
   </g>
   <g id="line2d_36">
    <path d="M 247.82249 150.876351 
L 252.251812 127.588598 
L 254.466473 117.142023 
L 256.312024 109.47164 
L 257.936108 103.659286 
L 259.338727 99.425217 
L 260.593702 96.298798 
L 261.701033 94.086811 
L 262.734542 92.504921 
L 263.620406 91.534131 
L 264.432448 90.967448 
L 265.170669 90.729028 
L 265.835067 90.746308 
L 266.499465 90.989115 
L 267.163863 91.463093 
L 267.902083 92.267536 
L 268.714127 93.498308 
L 269.599991 95.263502 
L 270.559677 97.682294 
L 271.667009 101.13397 
L 272.84816 105.591599 
L 274.176956 111.533754 
L 275.653398 119.204421 
L 277.425128 129.679405 
L 279.71361 144.670672 
L 285.988483 186.543287 
L 288.055499 198.450299 
L 289.901052 207.832563 
L 291.598958 215.377141 
L 293.223042 221.606163 
L 294.699482 226.399077 
L 295.954459 229.762946 
L 297.061789 232.115331 
L 297.947653 233.518527 
L 298.685873 234.315661 
L 299.276449 234.679812 
L 299.793203 234.778424 
L 300.309957 234.653309 
L 300.826711 234.285846 
L 301.417291 233.544209 
L 302.007867 232.43088 
L 302.672265 230.696913 
L 303.410485 228.123938 
L 304.222526 224.447849 
L 305.10839 219.361303 
L 306.068076 212.527223 
L 307.17541 202.910541 
L 308.430384 189.862521 
L 309.906824 171.983924 
L 311.97384 143.922693 
L 315.443473 96.812863 
L 317.067557 77.992013 
L 318.470182 64.305389 
L 319.725156 54.178373 
L 320.906308 46.37952 
L 322.08746 40.072198 
L 323.19479 35.305657 
L 324.30212 31.443678 
L 325.483272 28.116195 
L 326.664424 25.437032 
L 327.845576 23.302003 
L 328.879084 21.862473 
L 329.764955 20.980491 
L 330.503175 20.540054 
L 331.093751 20.418059 
L 331.610505 20.508256 
L 332.127259 20.810225 
L 332.644013 21.353983 
L 333.234589 22.313737 
L 333.898987 23.88809 
L 334.563385 26.062659 
L 335.301604 29.281115 
L 336.113646 33.921659 
L 336.99951 40.445804 
L 337.959196 49.381239 
L 338.992704 61.270464 
L 340.173856 77.681856 
L 341.576474 100.601261 
L 343.643497 138.703445 
L 346.374911 188.559899 
L 347.851351 211.376699 
L 349.032503 226.430753 
L 350.066011 237.073818 
L 351.025697 244.877268 
L 351.911561 250.422191 
L 352.723603 254.24427 
L 353.461823 256.795679 
L 354.200043 258.584348 
L 354.864441 259.634578 
L 355.455024 260.188516 
L 356.0456 260.438047 
L 356.636175 260.429186 
L 357.300573 260.160885 
L 358.038793 259.599371 
L 358.924657 258.631963 
L 360.031987 257.06342 
L 361.286961 254.873428 
L 362.541935 252.235213 
L 363.723087 249.251477 
L 364.904239 245.630684 
L 366.011569 241.486275 
L 367.118906 236.435171 
L 368.226229 230.302859 
L 369.407381 222.402589 
L 370.662362 212.34582 
L 371.991158 199.81516 
L 373.541413 182.992418 
L 375.756087 156.172173 
L 379.078069 116.060204 
L 380.628338 100.086278 
L 381.883305 89.242005 
L 382.990642 81.410685 
L 384.02415 75.604849 
L 384.983829 71.478498 
L 385.795878 68.884984 
L 386.534098 67.190042 
L 387.198503 66.161404 
L 387.789079 65.609415 
L 388.305826 65.383136 
L 388.822587 65.376731 
L 389.413163 65.614998 
L 390.077554 66.164331 
L 390.815774 67.081888 
L 391.701638 68.547624 
L 392.808975 70.837661 
L 394.211586 74.297504 
L 395.392738 77.564994 
L 395.392738 77.564994 
" clip-path="url(#p65991159a0)" style="fill: none; stroke-dasharray: 4.44,1.92; stroke-dashoffset: 0; stroke: #ff7f0e; stroke-width: 1.2"/>
   </g>
   <g id="line2d_37">
    <path d="M 247.82249 151.812625 
L 253.137676 138.91074 
L 255.130871 134.737627 
L 256.754956 131.839037 
L 258.157575 129.781315 
L 259.338727 128.413773 
L 260.446058 127.464216 
L 261.405745 126.919316 
L 262.291609 126.657086 
L 263.177474 126.634707 
L 263.989516 126.830843 
L 264.87538 127.286109 
L 265.761245 127.996618 
L 266.720931 129.056181 
L 267.754439 130.533333 
L 268.935593 132.641581 
L 270.190567 135.356171 
L 271.593187 138.934644 
L 273.21727 143.726367 
L 275.136644 150.142308 
L 277.572772 159.134848 
L 286.948169 194.630159 
L 289.08901 201.46877 
L 290.860738 206.41771 
L 292.337178 209.904877 
L 293.51833 212.170788 
L 294.551838 213.688442 
L 295.363883 214.523107 
L 296.102103 214.969324 
L 296.692679 215.087562 
L 297.283255 214.973034 
L 297.873831 214.606112 
L 298.464407 213.966858 
L 299.128805 212.897439 
L 299.867025 211.242116 
L 300.679067 208.813297 
L 301.564935 205.392196 
L 302.524621 200.73553 
L 303.558129 194.591352 
L 304.73928 186.158684 
L 306.068076 175.010163 
L 307.692164 159.433873 
L 310.423578 130.677376 
L 313.08117 103.562321 
L 314.779075 88.452295 
L 316.255515 77.247073 
L 317.584318 68.785629 
L 318.839292 62.142582 
L 320.094266 56.672511 
L 321.34924 52.20073 
L 322.604214 48.542852 
L 323.859188 45.530734 
L 325.187984 42.900855 
L 326.51678 40.760287 
L 327.697932 39.262874 
L 328.657618 38.36753 
L 329.46966 37.883743 
L 330.134065 37.714299 
L 330.724641 37.766388 
L 331.315217 38.040272 
L 331.905793 38.569141 
L 332.496369 39.38923 
L 333.160767 40.707769 
L 333.898987 42.730992 
L 334.637207 45.417319 
L 335.449248 49.227297 
L 336.335112 54.505762 
L 337.294798 61.643756 
L 338.328306 71.046083 
L 339.509458 83.938216 
L 340.912076 101.916908 
L 342.757633 128.74374 
L 346.596377 185.248114 
L 348.072817 203.300977 
L 349.327791 215.990311 
L 350.435121 225.017088 
L 351.468629 231.644957 
L 352.428315 236.355469 
L 353.314179 239.595682 
L 354.126221 241.746047 
L 354.864441 243.111852 
L 355.528846 243.928323 
L 356.193244 244.410118 
L 356.857641 244.607586 
L 357.522039 244.566132 
L 358.260259 244.28814 
L 359.146123 243.694128 
L 360.179631 242.717658 
L 361.434605 241.205373 
L 362.763401 239.257432 
L 364.092197 236.922401 
L 365.347171 234.268308 
L 366.52833 231.248064 
L 367.709482 227.578537 
L 368.816805 223.413628 
L 369.997957 218.058929 
L 371.179109 211.642138 
L 372.43409 203.572961 
L 373.836715 193.015606 
L 375.460799 178.944796 
L 377.601629 158.234521 
L 381.588017 119.422208 
L 383.212101 106.033438 
L 384.540897 96.851709 
L 385.722049 90.184073 
L 386.755571 85.527944 
L 387.71525 82.16369 
L 388.601114 79.834164 
L 389.413163 78.306325 
L 390.151383 77.380175 
L 390.815774 76.890314 
L 391.40635 76.703752 
L 391.996926 76.730045 
L 392.661331 76.988983 
L 393.399551 77.528975 
L 394.285415 78.478277 
L 395.318923 79.9287 
L 395.392738 80.044342 
L 395.392738 80.044342 
" clip-path="url(#p65991159a0)" style="fill: none; stroke: #2ca02c; stroke-width: 1.2; stroke-linecap: round"/>
   </g>
   <g id="line2d_38">
    <path d="M 247.82249 151.879607 
L 253.137676 139.065818 
L 255.057049 135.064912 
L 256.681134 132.168833 
L 258.083753 130.112349 
L 259.264905 128.746443 
L 260.372236 127.799692 
L 261.331923 127.258606 
L 262.217787 127.001145 
L 263.103652 126.98467 
L 263.915694 127.187005 
L 264.801558 127.649489 
L 265.687423 128.367073 
L 266.647109 129.43318 
L 267.680617 130.914684 
L 268.861771 133.022294 
L 270.116745 135.726803 
L 271.519365 139.279167 
L 273.143448 144.017846 
L 275.062822 150.339054 
L 277.572772 159.449659 
L 287.021991 194.623557 
L 289.162832 201.361258 
L 290.93456 206.227604 
L 292.337178 209.484005 
L 293.51833 211.711664 
L 294.478016 213.102382 
L 295.290061 213.935535 
L 296.028281 214.381639 
L 296.618857 214.501065 
L 297.209433 214.389285 
L 297.800009 214.027156 
L 298.390585 213.395321 
L 299.054983 212.338218 
L 299.793203 210.702828 
L 300.605245 208.305261 
L 301.491113 204.931771 
L 302.450799 200.345121 
L 303.484307 194.299926 
L 304.665458 186.010565 
L 305.994254 175.056876 
L 307.618342 159.747862 
L 310.275934 132.195907 
L 313.08117 103.872583 
L 314.779075 88.91881 
L 316.255515 77.803349 
L 317.584318 69.390424 
L 318.839292 62.771582 
L 320.094266 57.311499 
L 321.34924 52.841868 
L 322.604214 49.183789 
L 323.859188 46.173182 
L 325.187984 43.549491 
L 326.51678 41.420369 
L 327.697932 39.935915 
L 328.657618 39.050498 
L 329.46966 38.572531 
L 330.134065 38.404301 
L 330.724641 38.453542 
L 331.315217 38.719745 
L 331.905793 39.234955 
L 332.496369 40.034116 
L 333.160767 41.318961 
L 333.898987 43.290409 
L 334.637207 45.908237 
L 335.449248 49.622311 
L 336.335112 54.771241 
L 337.294798 61.741747 
L 338.328306 70.93778 
L 339.509458 83.573973 
L 340.912076 101.24686 
L 342.757633 127.723948 
L 346.744021 185.8484 
L 348.220461 203.627121 
L 349.475435 216.097871 
L 350.582765 224.955798 
L 351.616273 231.452697 
L 352.575959 236.066825 
L 353.461823 239.23964 
L 354.273865 241.345326 
L 355.012092 242.683422 
L 355.67649 243.484261 
L 356.340888 243.958173 
L 357.005285 244.154401 
L 357.669683 244.11735 
L 358.407903 243.849705 
L 359.293767 243.274008 
L 360.327275 242.324985 
L 361.582249 240.851769 
L 362.911045 238.948707 
L 364.239841 236.659422 
L 365.494815 234.046871 
L 366.675974 231.062252 
L 367.783297 227.672439 
L 368.890634 223.580486 
L 370.071786 218.303505 
L 371.252938 211.961309 
L 372.507905 203.964349 
L 373.91053 193.474646 
L 375.460799 180.134828 
L 377.527815 160.25631 
L 381.80949 118.58116 
L 383.359745 105.866515 
L 384.688541 96.704836 
L 385.869693 90.054619 
L 386.903215 85.412284 
L 387.862894 82.059093 
L 388.748758 79.738004 
L 389.560807 78.216294 
L 390.299027 77.294281 
L 390.963418 76.806938 
L 391.553994 76.621603 
L 392.14457 76.64818 
L 392.808975 76.906249 
L 393.547195 77.443754 
L 394.433059 78.38798 
L 395.392738 79.716071 
L 395.392738 79.716071 
" clip-path="url(#p65991159a0)" style="fill: none; stroke-dasharray: 4.44,1.92; stroke-dashoffset: 0; stroke: #d62728; stroke-width: 1.2"/>
   </g>
   <g id="patch_7">
    <path d="M 240.443977 252.661904 
L 240.443977 32.755401 
" style="fill: none; stroke: #262626; stroke-linejoin: miter; stroke-linecap: square"/>
   </g>
   <g id="patch_8">
    <path d="M 247.82249 273.312 
L 395.392738 273.312 
" style="fill: none; stroke: #262626; stroke-linejoin: miter; stroke-linecap: square"/>
   </g>
   <g id="legend_2">
    <g id="patch_9">
     <path d="M 246.603977 64.0315 
L 306.709352 64.0315 
Q 308.469352 64.0315 308.469352 62.2715 
L 308.469352 13.36 
Q 308.469352 11.6 306.709352 11.6 
L 246.603977 11.6 
Q 244.843977 11.6 244.843977 13.36 
L 244.843977 62.2715 
Q 244.843977 64.0315 246.603977 64.0315 
z
" style="fill: #ffffff; opacity: 0.8; stroke: #cccccc; stroke-width: 0.8; stroke-linejoin: miter"/>
    </g>
    <g id="line2d_39">
     <path d="M 248.363977 18.338875 
L 257.163977 18.338875 
L 265.963977 18.338875 
" style="fill: none; stroke: #1f77b4; stroke-width: 1.2; stroke-linecap: round"/>
    </g>
    <g id="text_35">
     <!-- PC 1 v -->
     <g style="fill: #262626" transform="translate(273.003977 21.418875) scale(0.088 -0.088)">
      <defs>
       <path id="ArialMT-76" d="M 1344 0 
L 81 3319 
L 675 3319 
L 1388 1331 
Q 1503 1009 1600 663 
Q 1675 925 1809 1294 
L 2547 3319 
L 3125 3319 
L 1869 0 
L 1344 0 
z
" transform="scale(0.015625)"/>
      </defs>
      <use xlink:href="#ArialMT-50"/>
      <use xlink:href="#ArialMT-43" x="66.699219"/>
      <use xlink:href="#ArialMT-20" x="138.916016"/>
      <use xlink:href="#ArialMT-31" x="166.699219"/>
      <use xlink:href="#ArialMT-20" x="222.314453"/>
      <use xlink:href="#ArialMT-76" x="250.097656"/>
     </g>
    </g>
    <g id="line2d_40">
     <path d="M 248.363977 30.78675 
L 257.163977 30.78675 
L 265.963977 30.78675 
" style="fill: none; stroke-dasharray: 4.44,1.92; stroke-dashoffset: 0; stroke: #ff7f0e; stroke-width: 1.2"/>
    </g>
    <g id="text_36">
     <!-- True 1 v -->
     <g style="fill: #262626" transform="translate(273.003977 33.86675) scale(0.088 -0.088)">
      <use xlink:href="#ArialMT-54"/>
      <use xlink:href="#ArialMT-72" x="57.333984"/>
      <use xlink:href="#ArialMT-75" x="90.634766"/>
      <use xlink:href="#ArialMT-65" x="146.25"/>
      <use xlink:href="#ArialMT-20" x="201.865234"/>
      <use xlink:href="#ArialMT-31" x="229.648438"/>
      <use xlink:href="#ArialMT-20" x="285.263672"/>
      <use xlink:href="#ArialMT-76" x="313.046875"/>
     </g>
    </g>
    <g id="line2d_41">
     <path d="M 248.363977 43.234625 
L 257.163977 43.234625 
L 265.963977 43.234625 
" style="fill: none; stroke: #2ca02c; stroke-width: 1.2; stroke-linecap: round"/>
    </g>
    <g id="text_37">
     <!-- PC 2 v -->
     <g style="fill: #262626" transform="translate(273.003977 46.314625) scale(0.088 -0.088)">
      <use xlink:href="#ArialMT-50"/>
      <use xlink:href="#ArialMT-43" x="66.699219"/>
      <use xlink:href="#ArialMT-20" x="138.916016"/>
      <use xlink:href="#ArialMT-32" x="166.699219"/>
      <use xlink:href="#ArialMT-20" x="222.314453"/>
      <use xlink:href="#ArialMT-76" x="250.097656"/>
     </g>
    </g>
    <g id="line2d_42">
     <path d="M 248.363977 55.6825 
L 257.163977 55.6825 
L 265.963977 55.6825 
" style="fill: none; stroke-dasharray: 4.44,1.92; stroke-dashoffset: 0; stroke: #d62728; stroke-width: 1.2"/>
    </g>
    <g id="text_38">
     <!-- True 2 v -->
     <g style="fill: #262626" transform="translate(273.003977 58.7625) scale(0.088 -0.088)">
      <use xlink:href="#ArialMT-54"/>
      <use xlink:href="#ArialMT-72" x="57.333984"/>
      <use xlink:href="#ArialMT-75" x="90.634766"/>
      <use xlink:href="#ArialMT-65" x="146.25"/>
      <use xlink:href="#ArialMT-20" x="201.865234"/>
      <use xlink:href="#ArialMT-32" x="229.648438"/>
      <use xlink:href="#ArialMT-20" x="285.263672"/>
      <use xlink:href="#ArialMT-76" x="313.046875"/>
     </g>
    </g>
   </g>
  </g>
 </g>
 <defs>
  <clipPath id="pde3ac94813">
   <rect x="45.65125" y="7.2" width="162.327273" height="266.112"/>
  </clipPath>
  <clipPath id="p65991159a0">
   <rect x="240.443977" y="7.2" width="162.327273" height="266.112"/>
  </clipPath>
 </defs>
</svg>