<?xml version="1.0" encoding="utf-8" standalone="no"?>
<!DOCTYPE svg PUBLIC "-//W3C//DTD SVG 1.1//EN"
  "http://www.w3.org/Graphics/SVG/1.1/DTD/svg11.dtd">
<svg xmlns:xlink="http://www.w3.org/1999/xlink" width="202.580187pt" height="210.363875pt" viewBox="0 0 202.580187 210.363875" xmlns="http://www.w3.org/2000/svg" version="1.1">
 <metadata>
  <rdf:RDF xmlns:dc="http://purl.org/dc/elements/1.1/" xmlns:cc="http://creativecommons.org/ns#" xmlns:rdf="http://www.w3.org/1999/02/22-rdf-syntax-ns#">
   <cc:Work>
    <dc:type rdf:resource="http://purl.org/dc/dcmitype/StillImage"/>
    <dc:date>2024-01-22T16:18:25.861416</dc:date>
    <dc:format>image/svg+xml</dc:format>
    <dc:creator>
     <cc:Agent>
      <dc:title>Matplotlib v3.8.0, https://matplotlib.org/</dc:title>
     </cc:Agent>
    </dc:creator>
   </cc:Work>
  </rdf:RDF>
 </metadata>
 <defs>
  <style type="text/css">*{stroke-linejoin: round; stroke-linecap: butt}</style>
 </defs>
 <g id="figure_1">
  <g id="patch_1">
   <path d="M 0 210.363875 
L 202.580187 210.363875 
L 202.580187 0 
L 0 0 
z
" style="fill: #ffffff"/>
  </g>
  <g id="axes_1">
   <g id="patch_2">
    <path d="M 25.533375 186.816 
L 192.933375 186.816 
L 192.933375 20.496 
L 25.533375 20.496 
z
" style="fill: #ffffff"/>
   </g>
   <g id="matplotlib.axis_1">
    <g id="xtick_1">
     <g id="line2d_1">
      <defs>
       <path id="mc4bdb53a6a" d="M 0 0 
L 0 4.8 
" style="stroke: #262626"/>
      </defs>
      <g>
       <use xlink:href="#mc4bdb53a6a" x="25.533375" y="186.816" style="fill: #262626; stroke: #262626"/>
      </g>
     </g>
     <g id="text_1">
      <!-- −3 -->
      <g style="fill: #262626" transform="translate(20.516688 201.414875) scale(0.088 -0.088)">
       <defs>
        <path id="ArialMT-2212" d="M 3381 1997 
L 356 1997 
L 356 2522 
L 3381 2522 
L 3381 1997 
z
" transform="scale(0.015625)"/>
        <path id="ArialMT-33" d="M 269 1209 
L 831 1284 
Q 928 806 1161 595 
Q 1394 384 1728 384 
Q 2125 384 2398 659 
Q 2672 934 2672 1341 
Q 2672 1728 2419 1979 
Q 2166 2231 1775 2231 
Q 1616 2231 1378 2169 
L 1441 2663 
Q 1497 2656 1531 2656 
Q 1891 2656 2178 2843 
Q 2466 3031 2466 3422 
Q 2466 3731 2256 3934 
Q 2047 4138 1716 4138 
Q 1388 4138 1169 3931 
Q 950 3725 888 3313 
L 325 3413 
Q 428 3978 793 4289 
Q 1159 4600 1703 4600 
Q 2078 4600 2393 4439 
Q 2709 4278 2876 4000 
Q 3044 3722 3044 3409 
Q 3044 3113 2884 2869 
Q 2725 2625 2413 2481 
Q 2819 2388 3044 2092 
Q 3269 1797 3269 1353 
Q 3269 753 2831 336 
Q 2394 -81 1725 -81 
Q 1122 -81 723 278 
Q 325 638 269 1209 
z
" transform="scale(0.015625)"/>
       </defs>
       <use xlink:href="#ArialMT-2212"/>
       <use xlink:href="#ArialMT-33" x="58.398438"/>
      </g>
     </g>
    </g>
    <g id="xtick_2">
     <g id="line2d_2">
      <g>
       <use xlink:href="#mc4bdb53a6a" x="53.433375" y="186.816" style="fill: #262626; stroke: #262626"/>
      </g>
     </g>
     <g id="text_2">
      <!-- −2 -->
      <g style="fill: #262626" transform="translate(48.416688 201.414875) scale(0.088 -0.088)">
       <defs>
        <path id="ArialMT-32" d="M 3222 541 
L 3222 0 
L 194 0 
Q 188 203 259 391 
Q 375 700 629 1000 
Q 884 1300 1366 1694 
Q 2113 2306 2375 2664 
Q 2638 3022 2638 3341 
Q 2638 3675 2398 3904 
Q 2159 4134 1775 4134 
Q 1369 4134 1125 3890 
Q 881 3647 878 3216 
L 300 3275 
Q 359 3922 746 4261 
Q 1134 4600 1788 4600 
Q 2447 4600 2831 4234 
Q 3216 3869 3216 3328 
Q 3216 3053 3103 2787 
Q 2991 2522 2730 2228 
Q 2469 1934 1863 1422 
Q 1356 997 1212 845 
Q 1069 694 975 541 
L 3222 541 
z
" transform="scale(0.015625)"/>
       </defs>
       <use xlink:href="#ArialMT-2212"/>
       <use xlink:href="#ArialMT-32" x="58.398438"/>
      </g>
     </g>
    </g>
    <g id="xtick_3">
     <g id="line2d_3">
      <g>
       <use xlink:href="#mc4bdb53a6a" x="81.333375" y="186.816" style="fill: #262626; stroke: #262626"/>
      </g>
     </g>
     <g id="text_3">
      <!-- −1 -->
      <g style="fill: #262626" transform="translate(76.316688 201.414875) scale(0.088 -0.088)">
       <defs>
        <path id="ArialMT-31" d="M 2384 0 
L 1822 0 
L 1822 3584 
Q 1619 3391 1289 3197 
Q 959 3003 697 2906 
L 697 3450 
Q 1169 3672 1522 3987 
Q 1875 4303 2022 4600 
L 2384 4600 
L 2384 0 
z
" transform="scale(0.015625)"/>
       </defs>
       <use xlink:href="#ArialMT-2212"/>
       <use xlink:href="#ArialMT-31" x="58.398438"/>
      </g>
     </g>
    </g>
    <g id="xtick_4">
     <g id="line2d_4">
      <g>
       <use xlink:href="#mc4bdb53a6a" x="109.233375" y="186.816" style="fill: #262626; stroke: #262626"/>
      </g>
     </g>
     <g id="text_4">
      <!-- 0 -->
      <g style="fill: #262626" transform="translate(106.786563 201.414875) scale(0.088 -0.088)">
       <defs>
        <path id="ArialMT-30" d="M 266 2259 
Q 266 3072 433 3567 
Q 600 4063 929 4331 
Q 1259 4600 1759 4600 
Q 2128 4600 2406 4451 
Q 2684 4303 2865 4023 
Q 3047 3744 3150 3342 
Q 3253 2941 3253 2259 
Q 3253 1453 3087 958 
Q 2922 463 2592 192 
Q 2263 -78 1759 -78 
Q 1097 -78 719 397 
Q 266 969 266 2259 
z
M 844 2259 
Q 844 1131 1108 757 
Q 1372 384 1759 384 
Q 2147 384 2411 759 
Q 2675 1134 2675 2259 
Q 2675 3391 2411 3762 
Q 2147 4134 1753 4134 
Q 1366 4134 1134 3806 
Q 844 3388 844 2259 
z
" transform="scale(0.015625)"/>
       </defs>
       <use xlink:href="#ArialMT-30"/>
      </g>
     </g>
    </g>
    <g id="xtick_5">
     <g id="line2d_5">
      <g>
       <use xlink:href="#mc4bdb53a6a" x="137.133375" y="186.816" style="fill: #262626; stroke: #262626"/>
      </g>
     </g>
     <g id="text_5">
      <!-- 1 -->
      <g style="fill: #262626" transform="translate(134.686563 201.414875) scale(0.088 -0.088)">
       <use xlink:href="#ArialMT-31"/>
      </g>
     </g>
    </g>
    <g id="xtick_6">
     <g id="line2d_6">
      <g>
       <use xlink:href="#mc4bdb53a6a" x="165.033375" y="186.816" style="fill: #262626; stroke: #262626"/>
      </g>
     </g>
     <g id="text_6">
      <!-- 2 -->
      <g style="fill: #262626" transform="translate(162.586563 201.414875) scale(0.088 -0.088)">
       <use xlink:href="#ArialMT-32"/>
      </g>
     </g>
    </g>
    <g id="xtick_7">
     <g id="line2d_7">
      <g>
       <use xlink:href="#mc4bdb53a6a" x="192.933375" y="186.816" style="fill: #262626; stroke: #262626"/>
      </g>
     </g>
     <g id="text_7">
      <!-- 3 -->
      <g style="fill: #262626" transform="translate(190.486563 201.414875) scale(0.088 -0.088)">
       <use xlink:href="#ArialMT-33"/>
      </g>
     </g>
    </g>
   </g>
   <g id="matplotlib.axis_2">
    <g id="ytick_1">
     <g id="line2d_8">
      <defs>
       <path id="m47686e4664" d="M 0 0 
L -4.8 0 
" style="stroke: #262626"/>
      </defs>
      <g>
       <use xlink:href="#m47686e4664" x="25.533375" y="186.816" style="fill: #262626; stroke: #262626"/>
      </g>
     </g>
     <g id="text_8">
      <!-- −3 -->
      <g style="fill: #262626" transform="translate(7.2 189.965438) scale(0.088 -0.088)">
       <use xlink:href="#ArialMT-2212"/>
       <use xlink:href="#ArialMT-33" x="58.398438"/>
      </g>
     </g>
    </g>
    <g id="ytick_2">
     <g id="line2d_9">
      <g>
       <use xlink:href="#m47686e4664" x="25.533375" y="159.096" style="fill: #262626; stroke: #262626"/>
      </g>
     </g>
     <g id="text_9">
      <!-- −2 -->
      <g style="fill: #262626" transform="translate(7.2 162.245437) scale(0.088 -0.088)">
       <use xlink:href="#ArialMT-2212"/>
       <use xlink:href="#ArialMT-32" x="58.398438"/>
      </g>
     </g>
    </g>
    <g id="ytick_3">
     <g id="line2d_10">
      <g>
       <use xlink:href="#m47686e4664" x="25.533375" y="131.376" style="fill: #262626; stroke: #262626"/>
      </g>
     </g>
     <g id="text_10">
      <!-- −1 -->
      <g style="fill: #262626" transform="translate(7.2 134.525438) scale(0.088 -0.088)">
       <use xlink:href="#ArialMT-2212"/>
       <use xlink:href="#ArialMT-31" x="58.398438"/>
      </g>
     </g>
    </g>
    <g id="ytick_4">
     <g id="line2d_11">
      <g>
       <use xlink:href="#m47686e4664" x="25.533375" y="103.656" style="fill: #262626; stroke: #262626"/>
      </g>
     </g>
     <g id="text_11">
      <!-- 0 -->
      <g style="fill: #262626" transform="translate(12.33975 106.805437) scale(0.088 -0.088)">
       <use xlink:href="#ArialMT-30"/>
      </g>
     </g>
    </g>
    <g id="ytick_5">
     <g id="line2d_12">
      <g>
       <use xlink:href="#m47686e4664" x="25.533375" y="75.936" style="fill: #262626; stroke: #262626"/>
      </g>
     </g>
     <g id="text_12">
      <!-- 1 -->
      <g style="fill: #262626" transform="translate(12.33975 79.085437) scale(0.088 -0.088)">
       <use xlink:href="#ArialMT-31"/>
      </g>
     </g>
    </g>
    <g id="ytick_6">
     <g id="line2d_13">
      <g>
       <use xlink:href="#m47686e4664" x="25.533375" y="48.216" style="fill: #262626; stroke: #262626"/>
      </g>
     </g>
     <g id="text_13">
      <!-- 2 -->
      <g style="fill: #262626" transform="translate(12.33975 51.365437) scale(0.088 -0.088)">
       <use xlink:href="#ArialMT-32"/>
      </g>
     </g>
    </g>
    <g id="ytick_7">
     <g id="line2d_14">
      <g>
       <use xlink:href="#m47686e4664" x="25.533375" y="20.496" style="fill: #262626; stroke: #262626"/>
      </g>
     </g>
     <g id="text_14">
      <!-- 3 -->
      <g style="fill: #262626" transform="translate(12.33975 23.645437) scale(0.088 -0.088)">
       <use xlink:href="#ArialMT-33"/>
      </g>
     </g>
    </g>
   </g>
   <g id="QuadContourSet_1">
    <path d="M 25.533375 186.013072 
L 25.533375 186.816 
L 26.95197 186.816 
z
M 192.933375 186.816 
L 192.933375 186.013078 
L 191.514791 186.816 
z
" clip-path="url(#pe299a9a600)" style="fill: #08081e"/>
    <path d="M 27.224284 186.816 
L 28.915193 186.816 
L 30.606102 186.816 
L 30.675869 186.816 
L 30.606102 186.77328 
L 28.915193 185.767545 
L 27.788625 185.136 
L 27.224284 184.819831 
L 25.533375 183.910514 
L 25.533375 185.136 
L 25.533375 186.013072 
L 26.95197 186.816 
z
M 187.860648 186.816 
L 189.551557 186.816 
L 191.242466 186.816 
L 191.514791 186.816 
L 192.933375 186.013078 
L 192.933375 185.136 
L 192.933375 183.91052 
L 191.242466 184.819838 
L 190.678136 185.136 
L 189.551557 185.767551 
L 187.860648 186.773289 
L 187.790895 186.816 
z
" clip-path="url(#pe299a9a600)" style="fill: #1a102a"/>
    <path d="M 28.915193 185.767545 
L 30.606102 186.77328 
L 30.675869 186.816 
L 32.297011 186.816 
L 33.98792 186.816 
L 34.590778 186.816 
L 33.98792 186.425286 
L 32.297011 185.380154 
L 31.885153 185.136 
L 30.606102 184.380241 
L 28.938718 183.456 
L 28.915193 183.442969 
L 27.224284 182.531127 
L 25.726157 181.776 
L 25.533375 181.67852 
L 25.533375 181.776 
L 25.533375 183.456 
L 25.533375 183.910514 
L 27.224284 184.819831 
L 27.788625 185.136 
z
M 184.47883 186.816 
L 186.169739 186.816 
L 187.790895 186.816 
L 187.860648 186.773289 
L 189.551557 185.767551 
L 190.678136 185.136 
L 191.242466 184.819838 
L 192.933375 183.91052 
L 192.933375 183.456 
L 192.933375 181.776 
L 192.933375 181.678525 
L 192.740602 181.776 
L 191.242466 182.531133 
L 189.551557 183.442976 
L 189.528045 183.456 
L 187.860648 184.38025 
L 186.58161 185.136 
L 186.169739 185.380161 
L 184.47883 186.425295 
L 183.875987 186.816 
z
" clip-path="url(#pe299a9a600)" style="fill: #2b1637"/>
    <path d="M 32.297011 185.380154 
L 33.98792 186.425286 
L 34.590778 186.816 
L 35.67883 186.816 
L 37.369739 186.816 
L 38.717489 186.816 
L 37.369739 185.887648 
L 36.212501 185.136 
L 35.67883 184.792103 
L 33.98792 183.752312 
L 33.483362 183.456 
L 32.297011 182.761705 
L 30.606102 181.833171 
L 30.498654 181.776 
L 28.915193 180.932908 
L 27.226824 180.096 
L 27.224284 180.094737 
L 25.533375 179.274915 
L 25.533375 180.096 
L 25.533375 181.67852 
L 25.726157 181.776 
L 27.224284 182.531127 
L 28.915193 183.442969 
L 28.938718 183.456 
L 30.606102 184.380241 
L 31.885153 185.136 
z
M 181.097011 186.816 
L 182.78792 186.816 
L 183.875987 186.816 
L 184.47883 186.425295 
L 186.169739 185.380161 
L 186.58161 185.136 
L 187.860648 184.38025 
L 189.528045 183.456 
L 189.551557 183.442976 
L 191.242466 182.531133 
L 192.740602 181.776 
L 192.933375 181.678525 
L 192.933375 180.096 
L 192.933375 179.274921 
L 191.242466 180.094743 
L 191.239938 180.096 
L 189.551557 180.932914 
L 187.96811 181.776 
L 187.860648 181.833178 
L 186.169739 182.761713 
L 184.983402 183.456 
L 184.47883 183.75232 
L 182.78792 184.792113 
L 182.254264 185.136 
L 181.097011 185.887658 
L 179.749273 186.816 
z
" clip-path="url(#pe299a9a600)" style="fill: #3c1a42"/>
    <path d="M 37.369739 185.887648 
L 38.717489 186.816 
L 39.060648 186.816 
L 40.751557 186.816 
L 42.442466 186.816 
L 43.104331 186.816 
L 42.442466 186.311804 
L 40.808497 185.136 
L 40.751557 185.09558 
L 39.060648 183.937124 
L 38.315463 183.456 
L 37.369739 182.850526 
L 35.67883 181.833167 
L 35.580459 181.776 
L 33.98792 180.853926 
L 32.583841 180.096 
L 32.297011 179.941283 
L 30.606102 179.061847 
L 29.278673 178.416 
L 28.915193 178.23852 
L 27.224284 177.442425 
L 25.614199 176.736 
L 25.533375 176.700265 
L 25.533375 176.736 
L 25.533375 178.416 
L 25.533375 179.274915 
L 27.224284 180.094737 
L 27.226824 180.096 
L 28.915193 180.932908 
L 30.498654 181.776 
L 30.606102 181.833171 
L 32.297011 182.761705 
L 33.483362 183.456 
L 33.98792 183.752312 
L 35.67883 184.792103 
L 36.212501 185.136 
z
M 176.024284 186.816 
L 177.715193 186.816 
L 179.406102 186.816 
L 179.749273 186.816 
L 181.097011 185.887658 
L 182.254264 185.136 
L 182.78792 184.792113 
L 184.47883 183.75232 
L 184.983402 183.456 
L 186.169739 182.761713 
L 187.860648 181.833178 
L 187.96811 181.776 
L 189.551557 180.932914 
L 191.239938 180.096 
L 191.242466 180.094743 
L 192.933375 179.274921 
L 192.933375 178.416 
L 192.933375 176.736 
L 192.933375 176.700271 
L 192.852563 176.736 
L 191.242466 177.442432 
L 189.551557 178.238526 
L 189.188089 178.416 
L 187.860648 179.061854 
L 186.169739 179.94129 
L 185.882922 180.096 
L 184.47883 180.853934 
L 182.886306 181.776 
L 182.78792 181.833175 
L 181.097011 182.850535 
L 180.151301 183.456 
L 179.406102 183.937133 
L 177.715193 185.095588 
L 177.658264 185.136 
L 176.024284 186.311814 
L 175.362432 186.816 
z
" clip-path="url(#pe299a9a600)" style="fill: #4e1d4b"/>
    <path d="M 42.442466 186.311804 
L 43.104331 186.816 
L 44.133375 186.816 
L 45.824284 186.816 
L 47.515193 186.816 
L 47.799588 186.816 
L 47.515193 186.573005 
L 45.824284 185.200863 
L 45.740746 185.136 
L 44.133375 183.910503 
L 43.500755 183.456 
L 42.442466 182.706689 
L 41.041844 181.776 
L 40.751557 181.585229 
L 39.060648 180.521416 
L 38.343806 180.096 
L 37.369739 179.521218 
L 35.67883 178.58442 
L 35.361891 178.416 
L 33.98792 177.68645 
L 32.297011 176.850689 
L 32.056315 176.736 
L 30.606102 176.042358 
L 28.915193 175.288021 
L 28.372299 175.056 
L 27.224284 174.561341 
L 25.533375 173.873303 
L 25.533375 175.056 
L 25.533375 176.700265 
L 25.614199 176.736 
L 27.224284 177.442425 
L 28.915193 178.23852 
L 29.278673 178.416 
L 30.606102 179.061847 
L 32.297011 179.941283 
L 32.583841 180.096 
L 33.98792 180.853926 
L 35.580459 181.776 
L 35.67883 181.833167 
L 37.369739 182.850526 
L 38.315463 183.456 
L 39.060648 183.937124 
L 40.751557 185.09558 
L 40.808497 185.136 
z
M 170.951557 186.816 
L 172.642466 186.816 
L 174.333375 186.816 
L 175.362432 186.816 
L 176.024284 186.311814 
L 177.658264 185.136 
L 177.715193 185.095588 
L 179.406102 183.937133 
L 180.151301 183.456 
L 181.097011 182.850535 
L 182.78792 181.833175 
L 182.886306 181.776 
L 184.47883 180.853934 
L 185.882922 180.096 
L 186.169739 179.94129 
L 187.860648 179.061854 
L 189.188089 178.416 
L 189.551557 178.238526 
L 191.242466 177.442432 
L 192.852563 176.736 
L 192.933375 176.700271 
L 192.933375 175.056 
L 192.933375 173.873308 
L 191.242466 174.561345 
L 190.094464 175.056 
L 189.551557 175.288027 
L 187.860648 176.042364 
L 186.410448 176.736 
L 186.169739 176.850695 
L 184.47883 177.686457 
L 183.104871 178.416 
L 182.78792 178.584427 
L 181.097011 179.521226 
L 180.122956 180.096 
L 179.406102 180.521423 
L 177.715193 181.585238 
L 177.42492 181.776 
L 176.024284 182.706698 
L 174.966008 183.456 
L 174.333375 183.910512 
L 172.726018 185.136 
L 172.642466 185.200875 
L 170.951557 186.573017 
L 170.667176 186.816 
z
" clip-path="url(#pe299a9a600)" style="fill: #611f53"/>
    <path d="M 45.824284 185.200863 
L 47.515193 186.573005 
L 47.799588 186.816 
L 49.206102 186.816 
L 50.897011 186.816 
L 52.58792 186.816 
L 52.887367 186.816 
L 52.58792 186.523522 
L 51.090879 185.136 
L 50.897011 184.961682 
L 49.206102 183.519806 
L 49.127542 183.456 
L 47.515193 182.175549 
L 46.980216 181.776 
L 45.824284 180.928319 
L 44.611983 180.096 
L 44.133375 179.772058 
L 42.442466 178.688202 
L 41.994478 178.416 
L 40.751557 177.666917 
L 39.083816 176.736 
L 39.060648 176.723126 
L 37.369739 175.814019 
L 35.838925 175.056 
L 35.67883 174.976656 
L 33.98792 174.167416 
L 32.297011 173.421719 
L 32.189905 173.376 
L 30.606102 172.694965 
L 28.915193 172.019531 
L 28.062364 171.696 
L 27.224284 171.374239 
L 25.533375 170.755827 
L 25.533375 171.696 
L 25.533375 173.376 
L 25.533375 173.873303 
L 27.224284 174.561341 
L 28.372299 175.056 
L 28.915193 175.288021 
L 30.606102 176.042358 
L 32.056315 176.736 
L 32.297011 176.850689 
L 33.98792 177.68645 
L 35.361891 178.416 
L 35.67883 178.58442 
L 37.369739 179.521218 
L 38.343806 180.096 
L 39.060648 180.521416 
L 40.751557 181.585229 
L 41.041844 181.776 
L 42.442466 182.706689 
L 43.500755 183.456 
L 44.133375 183.910503 
L 45.740746 185.136 
z
M 165.87883 186.816 
L 167.569739 186.816 
L 169.260648 186.816 
L 170.667176 186.816 
L 170.951557 186.573017 
L 172.642466 185.200875 
L 172.726018 185.136 
L 174.333375 183.910512 
L 174.966008 183.456 
L 176.024284 182.706698 
L 177.42492 181.776 
L 177.715193 181.585238 
L 179.406102 180.521423 
L 180.122956 180.096 
L 181.097011 179.521226 
L 182.78792 178.584427 
L 183.104871 178.416 
L 184.47883 177.686457 
L 186.169739 176.850695 
L 186.410448 176.736 
L 187.860648 176.042364 
L 189.551557 175.288027 
L 190.094464 175.056 
L 191.242466 174.561345 
L 192.933375 173.873308 
L 192.933375 173.376 
L 192.933375 171.696 
L 192.933375 170.755831 
L 191.242466 171.374244 
L 190.404398 171.696 
L 189.551557 172.019536 
L 187.860648 172.69497 
L 186.276857 173.376 
L 186.169739 173.421724 
L 184.47883 174.167423 
L 182.78792 174.976664 
L 182.627841 175.056 
L 181.097011 175.814026 
L 179.406102 176.723132 
L 179.382945 176.736 
L 177.715193 177.666925 
L 176.472286 178.416 
L 176.024284 178.688211 
L 174.333375 179.772066 
L 173.85478 180.096 
L 172.642466 180.92833 
L 171.486547 181.776 
L 170.951557 182.175559 
L 169.339222 183.456 
L 169.260648 183.519817 
L 167.569739 184.961692 
L 167.375882 185.136 
L 165.87883 186.523536 
L 165.579399 186.816 
z
" clip-path="url(#pe299a9a600)" style="fill: #731f58"/>
    <path d="M 52.58792 186.523522 
L 52.887367 186.816 
L 54.27883 186.816 
L 55.969739 186.816 
L 57.660648 186.816 
L 58.485434 186.816 
L 57.660648 185.869944 
L 56.98832 185.136 
L 55.969739 184.071309 
L 55.348636 183.456 
L 54.27883 182.434951 
L 53.547155 181.776 
L 52.58792 180.938991 
L 51.559304 180.096 
L 50.897011 179.56734 
L 49.353553 178.416 
L 49.206102 178.308336 
L 47.515193 177.131985 
L 46.906081 176.736 
L 45.824284 176.042346 
L 44.158006 175.056 
L 44.133375 175.041557 
L 42.442466 174.086447 
L 41.071347 173.376 
L 40.751557 173.2108 
L 39.060648 172.37543 
L 37.564722 171.696 
L 37.369739 171.607184 
L 35.67883 170.865201 
L 33.98792 170.183311 
L 33.554438 170.016 
L 32.297011 169.5258 
L 30.606102 168.908625 
L 28.915193 168.337149 
L 28.911699 168.336 
L 27.224284 167.772053 
L 25.533375 167.246498 
L 25.533375 168.336 
L 25.533375 170.016 
L 25.533375 170.755827 
L 27.224284 171.374239 
L 28.062364 171.696 
L 28.915193 172.019531 
L 30.606102 172.694965 
L 32.189905 173.376 
L 32.297011 173.421719 
L 33.98792 174.167416 
L 35.67883 174.976656 
L 35.838925 175.056 
L 37.369739 175.814019 
L 39.060648 176.723126 
L 39.083816 176.736 
L 40.751557 177.666917 
L 41.994478 178.416 
L 42.442466 178.688202 
L 44.133375 179.772058 
L 44.611983 180.096 
L 45.824284 180.928319 
L 46.980216 181.776 
L 47.515193 182.175549 
L 49.127542 183.456 
L 49.206102 183.519806 
L 50.897011 184.961682 
L 51.090879 185.136 
z
M 160.806102 186.816 
L 162.497011 186.816 
L 164.18792 186.816 
L 165.579399 186.816 
L 165.87883 186.523536 
L 167.375882 185.136 
L 167.569739 184.961692 
L 169.260648 183.519817 
L 169.339222 183.456 
L 170.951557 182.175559 
L 171.486547 181.776 
L 172.642466 180.92833 
L 173.85478 180.096 
L 174.333375 179.772066 
L 176.024284 178.688211 
L 176.472286 178.416 
L 177.715193 177.666925 
L 179.382945 176.736 
L 179.406102 176.723132 
L 181.097011 175.814026 
L 182.627841 175.056 
L 182.78792 174.976664 
L 184.47883 174.167423 
L 186.169739 173.421724 
L 186.276857 173.376 
L 187.860648 172.69497 
L 189.551557 172.019536 
L 190.404398 171.696 
L 191.242466 171.374244 
L 192.933375 170.755831 
L 192.933375 170.016 
L 192.933375 168.336 
L 192.933375 167.246502 
L 191.242466 167.772057 
L 189.555065 168.336 
L 189.551557 168.337153 
L 187.860648 168.90863 
L 186.169739 169.525805 
L 184.912327 170.016 
L 184.47883 170.183317 
L 182.78792 170.865207 
L 181.097011 171.607191 
L 180.902042 171.696 
L 179.406102 172.375436 
L 177.715193 173.210806 
L 177.395417 173.376 
L 176.024284 174.086454 
L 174.333375 175.041564 
L 174.308757 175.056 
L 172.642466 176.042355 
L 171.560682 176.736 
L 170.951557 177.131993 
L 169.260648 178.308346 
L 169.11321 178.416 
L 167.569739 179.567349 
L 166.907459 180.096 
L 165.87883 180.939003 
L 164.919611 181.776 
L 164.18792 182.434969 
L 163.118134 183.456 
L 162.497011 184.071329 
L 161.47845 185.136 
L 160.806102 185.869967 
L 159.981336 186.816 
z
" clip-path="url(#pe299a9a600)" style="fill: #871e5b"/>
    <path d="M 57.660648 185.869944 
L 58.485434 186.816 
L 59.351557 186.816 
L 61.042466 186.816 
L 62.733375 186.816 
L 64.424284 186.816 
L 64.776938 186.816 
L 64.424284 186.279546 
L 63.638301 185.136 
L 62.733375 183.910455 
L 62.380951 183.456 
L 61.042466 181.833122 
L 60.992754 181.776 
L 59.461082 180.096 
L 59.351557 179.981527 
L 57.756563 178.416 
L 57.660648 178.325864 
L 55.969739 176.833041 
L 55.852505 176.736 
L 54.27883 175.473716 
L 53.717043 175.056 
L 52.58792 174.237507 
L 51.297035 173.376 
L 50.897011 173.114246 
L 49.206102 172.074499 
L 48.543634 171.696 
L 47.515193 171.114908 
L 45.824284 170.234963 
L 45.378246 170.016 
L 44.133375 169.407041 
L 42.442466 168.646406 
L 41.706956 168.336 
L 40.751557 167.931426 
L 39.060648 167.261878 
L 37.386626 166.656 
L 37.369739 166.649828 
L 35.67883 166.050994 
L 33.98792 165.500661 
L 32.297011 164.99354 
L 32.236673 164.976 
L 30.606102 164.492917 
L 28.915193 164.028205 
L 27.224284 163.596959 
L 25.970022 163.296 
L 25.533375 163.188486 
L 25.533375 163.296 
L 25.533375 164.976 
L 25.533375 166.656 
L 25.533375 167.246498 
L 27.224284 167.772053 
L 28.911699 168.336 
L 28.915193 168.337149 
L 30.606102 168.908625 
L 32.297011 169.5258 
L 33.554438 170.016 
L 33.98792 170.183311 
L 35.67883 170.865201 
L 37.369739 171.607184 
L 37.564722 171.696 
L 39.060648 172.37543 
L 40.751557 173.2108 
L 41.071347 173.376 
L 42.442466 174.086447 
L 44.133375 175.041557 
L 44.158006 175.056 
L 45.824284 176.042346 
L 46.906081 176.736 
L 47.515193 177.131985 
L 49.206102 178.308336 
L 49.353553 178.416 
L 50.897011 179.56734 
L 51.559304 180.096 
L 52.58792 180.938991 
L 53.547155 181.776 
L 54.27883 182.434951 
L 55.348636 183.456 
L 55.969739 184.071309 
L 56.98832 185.136 
z
M 154.042466 186.816 
L 155.733375 186.816 
L 157.424284 186.816 
L 159.115193 186.816 
L 159.981336 186.816 
L 160.806102 185.869967 
L 161.47845 185.136 
L 162.497011 184.071329 
L 163.118134 183.456 
L 164.18792 182.434969 
L 164.919611 181.776 
L 165.87883 180.939003 
L 166.907459 180.096 
L 167.569739 179.567349 
L 169.11321 178.416 
L 169.260648 178.308346 
L 170.951557 177.131993 
L 171.560682 176.736 
L 172.642466 176.042355 
L 174.308757 175.056 
L 174.333375 175.041564 
L 176.024284 174.086454 
L 177.395417 173.376 
L 177.715193 173.210806 
L 179.406102 172.375436 
L 180.902042 171.696 
L 181.097011 171.607191 
L 182.78792 170.865207 
L 184.47883 170.183317 
L 184.912327 170.016 
L 186.169739 169.525805 
L 187.860648 168.90863 
L 189.551557 168.337153 
L 189.555065 168.336 
L 191.242466 167.772057 
L 192.933375 167.246502 
L 192.933375 166.656 
L 192.933375 164.976 
L 192.933375 163.296 
L 192.933375 163.188488 
L 192.496737 163.296 
L 191.242466 163.596961 
L 189.551557 164.028208 
L 187.860648 164.49292 
L 186.23009 164.976 
L 186.169739 164.993544 
L 184.47883 165.500665 
L 182.78792 166.050999 
L 181.097011 166.649833 
L 181.080139 166.656 
L 179.406102 167.261883 
L 177.715193 167.931432 
L 176.759807 168.336 
L 176.024284 168.646412 
L 174.333375 169.407047 
L 173.088518 170.016 
L 172.642466 170.23497 
L 170.951557 171.114915 
L 169.92313 171.696 
L 169.260648 172.074507 
L 167.569739 173.114253 
L 167.169726 173.376 
L 165.87883 174.237517 
L 164.749726 175.056 
L 164.18792 175.473731 
L 162.614265 176.736 
L 162.497011 176.833058 
L 160.806102 178.325885 
L 160.710209 178.416 
L 159.115193 179.981549 
L 159.005688 180.096 
L 157.474016 181.776 
L 157.424284 181.833145 
L 156.085818 183.456 
L 155.733375 183.91048 
L 154.828468 185.136 
L 154.042466 186.279575 
L 153.689832 186.816 
z
" clip-path="url(#pe299a9a600)" style="fill: #9a1b5b"/>
    <path d="M 64.424284 186.279546 
L 64.776938 186.816 
L 66.115193 186.816 
L 67.806102 186.816 
L 69.497011 186.816 
L 71.18792 186.816 
L 72.126506 186.816 
L 71.435813 185.136 
L 71.18792 184.570195 
L 70.679364 183.456 
L 69.833292 181.776 
L 69.497011 181.155159 
L 68.893898 180.096 
L 67.830855 178.416 
L 67.806102 178.378669 
L 66.648922 176.736 
L 66.115193 176.042295 
L 65.30346 175.056 
L 64.424284 174.063431 
L 63.768104 173.376 
L 62.733375 172.356198 
L 62.005583 171.696 
L 61.042466 170.865168 
L 59.963115 170.016 
L 59.351557 169.554044 
L 57.660648 168.395334 
L 57.567971 168.336 
L 55.969739 167.339433 
L 54.739089 166.656 
L 54.27883 166.405214 
L 52.58792 165.548327 
L 51.328673 164.976 
L 50.897011 164.78139 
L 49.206102 164.066024 
L 47.515193 163.428792 
L 47.141694 163.296 
L 45.824284 162.825558 
L 44.133375 162.273923 
L 42.442466 161.77546 
L 41.869243 161.616 
L 40.751557 161.300408 
L 39.060648 160.856547 
L 37.369739 160.451064 
L 35.67883 160.079488 
L 34.990017 159.936 
L 33.98792 159.721766 
L 32.297011 159.381288 
L 30.606102 159.066759 
L 28.915193 158.77552 
L 27.224284 158.505254 
L 25.547929 158.256 
L 25.533375 158.253755 
L 25.533375 158.256 
L 25.533375 159.936 
L 25.533375 161.616 
L 25.533375 163.188486 
L 25.970022 163.296 
L 27.224284 163.596959 
L 28.915193 164.028205 
L 30.606102 164.492917 
L 32.236673 164.976 
L 32.297011 164.99354 
L 33.98792 165.500661 
L 35.67883 166.050994 
L 37.369739 166.649828 
L 37.386626 166.656 
L 39.060648 167.261878 
L 40.751557 167.931426 
L 41.706956 168.336 
L 42.442466 168.646406 
L 44.133375 169.407041 
L 45.378246 170.016 
L 45.824284 170.234963 
L 47.515193 171.114908 
L 48.543634 171.696 
L 49.206102 172.074499 
L 50.897011 173.114246 
L 51.297035 173.376 
L 52.58792 174.237507 
L 53.717043 175.056 
L 54.27883 175.473716 
L 55.852505 176.736 
L 55.969739 176.833041 
L 57.660648 178.325864 
L 57.756563 178.416 
L 59.351557 179.981527 
L 59.461082 180.096 
L 60.992754 181.776 
L 61.042466 181.833122 
L 62.380951 183.456 
L 62.733375 183.910455 
L 63.638301 185.136 
z
M 147.27883 186.816 
L 148.969739 186.816 
L 150.660648 186.816 
L 152.351557 186.816 
L 153.689832 186.816 
L 154.042466 186.279575 
L 154.828468 185.136 
L 155.733375 183.91048 
L 156.085818 183.456 
L 157.424284 181.833145 
L 157.474016 181.776 
L 159.005688 180.096 
L 159.115193 179.981549 
L 160.710209 178.416 
L 160.806102 178.325885 
L 162.497011 176.833058 
L 162.614265 176.736 
L 164.18792 175.473731 
L 164.749726 175.056 
L 165.87883 174.237517 
L 167.169726 173.376 
L 167.569739 173.114253 
L 169.260648 172.074507 
L 169.92313 171.696 
L 170.951557 171.114915 
L 172.642466 170.23497 
L 173.088518 170.016 
L 174.333375 169.407047 
L 176.024284 168.646412 
L 176.759807 168.336 
L 177.715193 167.931432 
L 179.406102 167.261883 
L 181.080139 166.656 
L 181.097011 166.649833 
L 182.78792 166.050999 
L 184.47883 165.500665 
L 186.169739 164.993544 
L 186.23009 164.976 
L 187.860648 164.49292 
L 189.551557 164.028208 
L 191.242466 163.596961 
L 192.496737 163.296 
L 192.933375 163.188488 
L 192.933375 161.616 
L 192.933375 159.936 
L 192.933375 158.256 
L 192.933375 158.253757 
L 192.918835 158.256 
L 191.242466 158.505256 
L 189.551557 158.775522 
L 187.860648 159.066762 
L 186.169739 159.381291 
L 184.47883 159.721769 
L 183.476747 159.936 
L 182.78792 160.079491 
L 181.097011 160.451067 
L 179.406102 160.85655 
L 177.715193 161.300412 
L 176.59752 161.616 
L 176.024284 161.775463 
L 174.333375 162.273927 
L 172.642466 162.825563 
L 171.325069 163.296 
L 170.951557 163.428797 
L 169.260648 164.066029 
L 167.569739 164.781395 
L 167.13809 164.976 
L 165.87883 165.548334 
L 164.18792 166.405224 
L 163.727681 166.656 
L 162.497011 167.339444 
L 160.898799 168.336 
L 160.806102 168.395347 
L 159.115193 169.554059 
L 158.503655 170.016 
L 157.424284 170.865185 
L 156.461188 171.696 
L 155.733375 172.356217 
L 154.698665 173.376 
L 154.042466 174.063452 
L 153.163309 175.056 
L 152.351557 176.04232 
L 151.817848 176.736 
L 150.660648 178.3787 
L 150.635916 178.416 
L 149.572872 180.096 
L 148.969739 181.155195 
L 148.633478 181.776 
L 147.787405 183.456 
L 147.27883 184.570239 
L 147.030957 185.136 
L 146.340263 186.816 
z
M 25.968976 84.336 
L 27.224284 83.132977 
L 27.708698 82.656 
L 28.915193 81.108739 
L 29.017081 80.976 
L 29.941746 79.296 
L 30.49065 77.616 
L 30.606102 76.564959 
L 30.676312 75.936 
L 30.606102 75.331844 
L 30.483047 74.256 
L 29.878641 72.576 
L 28.915193 71.082088 
L 28.794003 70.896 
L 27.224284 69.298347 
L 27.141289 69.216 
L 25.533375 68.062425 
L 25.533375 69.216 
L 25.533375 70.896 
L 25.533375 72.576 
L 25.533375 74.256 
L 25.533375 75.936 
L 25.533375 77.616 
L 25.533375 79.296 
L 25.533375 80.976 
L 25.533375 82.656 
L 25.533375 84.336 
L 25.533375 84.674017 
z
M 192.933375 84.674009 
L 192.933375 84.336 
L 192.933375 82.656 
L 192.933375 80.976 
L 192.933375 79.296 
L 192.933375 77.616 
L 192.933375 75.936 
L 192.933375 74.256 
L 192.933375 72.576 
L 192.933375 70.896 
L 192.933375 69.216 
L 192.933375 68.062435 
L 191.325474 69.216 
L 191.242466 69.29836 
L 189.67276 70.896 
L 189.551557 71.082108 
L 188.588123 72.576 
L 187.983716 74.256 
L 187.860648 75.331951 
L 187.790451 75.936 
L 187.860648 76.564848 
L 187.976112 77.616 
L 188.525016 79.296 
L 189.449682 80.976 
L 189.551557 81.108723 
L 190.758065 82.656 
L 191.242466 83.132965 
L 192.497784 84.336 
z
M 108.38792 25.615991 
L 110.07883 25.615991 
L 111.046888 25.536 
L 111.769739 25.478717 
L 113.460648 25.205829 
L 115.151557 24.780754 
L 116.842466 24.1825 
L 117.54619 23.856 
L 118.533375 23.401358 
L 120.224284 22.394398 
L 120.519864 22.176 
L 121.915193 21.128217 
L 122.593688 20.496 
L 121.915193 20.496 
L 120.224284 20.496 
L 118.533375 20.496 
L 116.842466 20.496 
L 115.151557 20.496 
L 113.460648 20.496 
L 111.769739 20.496 
L 110.07883 20.496 
L 108.38792 20.496 
L 106.697011 20.496 
L 105.006102 20.496 
L 103.315193 20.496 
L 101.624284 20.496 
L 99.933375 20.496 
L 98.242466 20.496 
L 96.551557 20.496 
L 95.873079 20.496 
L 96.551557 21.128202 
L 97.946903 22.176 
L 98.242466 22.394386 
L 99.933375 23.401349 
L 100.920577 23.856 
L 101.624284 24.182493 
L 103.315193 24.780751 
L 105.006102 25.205826 
L 106.697011 25.478715 
L 107.419877 25.536 
z
" clip-path="url(#pe299a9a600)" style="fill: #af1759"/>
    <path d="M 72.87883 186.816 
L 74.569739 186.816 
L 76.260648 186.816 
L 77.951557 186.816 
L 79.642466 186.816 
L 81.333375 186.816 
L 81.333472 186.816 
L 81.333472 185.136 
L 81.333472 183.456 
L 81.333472 181.776 
L 81.333472 180.096 
L 81.333472 178.416 
L 81.333472 176.736 
L 81.333472 175.056 
L 81.333472 173.376 
L 81.333472 171.696 
L 81.333472 170.016 
L 81.333472 168.336 
L 81.333472 166.656 
L 81.333472 164.976 
L 81.333472 163.296 
L 81.333472 161.616 
L 81.333472 159.936 
L 81.333472 158.256 
L 81.333472 156.576 
L 81.333472 154.896 
L 81.333472 153.216 
L 81.333375 151.662401 
L 79.642466 151.662401 
L 77.951557 151.662401 
L 76.260648 151.662401 
L 74.569739 151.662401 
L 72.87883 151.662401 
L 71.18792 151.662401 
L 69.497011 151.662401 
L 67.806102 151.662401 
L 66.115193 151.662401 
L 64.424284 151.662401 
L 62.733375 151.662401 
L 61.042466 151.662401 
L 59.351557 151.662401 
L 57.660648 151.662401 
L 55.969739 151.662401 
L 54.27883 151.662401 
L 52.58792 151.662401 
L 50.897011 151.662401 
L 49.206102 151.662401 
L 47.515193 151.662401 
L 45.824284 151.662401 
L 44.133375 151.662401 
L 42.442466 151.662401 
L 40.751557 151.662401 
L 39.060648 151.662401 
L 37.369739 151.662401 
L 35.67883 151.662401 
L 33.98792 151.662401 
L 32.297011 151.662401 
L 30.606102 151.662401 
L 28.915193 151.662401 
L 27.224284 151.662401 
L 25.533375 151.662401 
L 25.533375 153.216 
L 25.533375 154.896 
L 25.533375 156.576 
L 25.533375 158.253755 
L 25.547929 158.256 
L 27.224284 158.505254 
L 28.915193 158.77552 
L 30.606102 159.066759 
L 32.297011 159.381288 
L 33.98792 159.721766 
L 34.990017 159.936 
L 35.67883 160.079488 
L 37.369739 160.451064 
L 39.060648 160.856547 
L 40.751557 161.300408 
L 41.869243 161.616 
L 42.442466 161.77546 
L 44.133375 162.273923 
L 45.824284 162.825558 
L 47.141694 163.296 
L 47.515193 163.428792 
L 49.206102 164.066024 
L 50.897011 164.78139 
L 51.328673 164.976 
L 52.58792 165.548327 
L 54.27883 166.405214 
L 54.739089 166.656 
L 55.969739 167.339433 
L 57.567971 168.336 
L 57.660648 168.395334 
L 59.351557 169.554044 
L 59.963115 170.016 
L 61.042466 170.865168 
L 62.005583 171.696 
L 62.733375 172.356198 
L 63.768104 173.376 
L 64.424284 174.063431 
L 65.30346 175.056 
L 66.115193 176.042295 
L 66.648922 176.736 
L 67.806102 178.378669 
L 67.830855 178.416 
L 68.893898 180.096 
L 69.497011 181.155159 
L 69.833292 181.776 
L 70.679364 183.456 
L 71.18792 184.570195 
L 71.435813 185.136 
L 72.126506 186.816 
z
M 137.133375 186.816 
L 138.824284 186.816 
L 140.515193 186.816 
L 142.206102 186.816 
L 143.897011 186.816 
L 145.58792 186.816 
L 146.340263 186.816 
L 147.030957 185.136 
L 147.27883 184.570239 
L 147.787405 183.456 
L 148.633478 181.776 
L 148.969739 181.155195 
L 149.572872 180.096 
L 150.635916 178.416 
L 150.660648 178.3787 
L 151.817848 176.736 
L 152.351557 176.04232 
L 153.163309 175.056 
L 154.042466 174.063452 
L 154.698665 173.376 
L 155.733375 172.356217 
L 156.461188 171.696 
L 157.424284 170.865185 
L 158.503655 170.016 
L 159.115193 169.554059 
L 160.806102 168.395347 
L 160.898799 168.336 
L 162.497011 167.339444 
L 163.727681 166.656 
L 164.18792 166.405224 
L 165.87883 165.548334 
L 167.13809 164.976 
L 167.569739 164.781395 
L 169.260648 164.066029 
L 170.951557 163.428797 
L 171.325069 163.296 
L 172.642466 162.825563 
L 174.333375 162.273927 
L 176.024284 161.775463 
L 176.59752 161.616 
L 177.715193 161.300412 
L 179.406102 160.85655 
L 181.097011 160.451067 
L 182.78792 160.079491 
L 183.476747 159.936 
L 184.47883 159.721769 
L 186.169739 159.381291 
L 187.860648 159.066762 
L 189.551557 158.775522 
L 191.242466 158.505256 
L 192.918835 158.256 
L 192.933375 158.253757 
L 192.933375 156.576 
L 192.933375 154.896 
L 192.933375 153.216 
L 192.933375 151.662401 
L 191.242466 151.662401 
L 189.551557 151.662401 
L 187.860648 151.662401 
L 186.169739 151.662401 
L 184.47883 151.662401 
L 182.78792 151.662401 
L 181.097011 151.662401 
L 179.406102 151.662401 
L 177.715193 151.662401 
L 176.024284 151.662401 
L 174.333375 151.662401 
L 172.642466 151.662401 
L 170.951557 151.662401 
L 169.260648 151.662401 
L 167.569739 151.662401 
L 165.87883 151.662401 
L 164.18792 151.662401 
L 162.497011 151.662401 
L 160.806102 151.662401 
L 159.115193 151.662401 
L 157.424284 151.662401 
L 155.733375 151.662401 
L 154.042466 151.662401 
L 152.351557 151.662401 
L 150.660648 151.662401 
L 148.969739 151.662401 
L 147.27883 151.662401 
L 145.58792 151.662401 
L 143.897011 151.662401 
L 142.206102 151.662401 
L 140.515193 151.662401 
L 138.824284 151.662401 
L 137.133375 151.662401 
L 137.133298 153.216 
L 137.133298 154.896 
L 137.133298 156.576 
L 137.133298 158.256 
L 137.133298 159.936 
L 137.133298 161.616 
L 137.133298 163.296 
L 137.133298 164.976 
L 137.133298 166.656 
L 137.133298 168.336 
L 137.133298 170.016 
L 137.133298 171.696 
L 137.133298 173.376 
L 137.133298 175.056 
L 137.133298 176.736 
L 137.133298 178.416 
L 137.133298 180.096 
L 137.133298 181.776 
L 137.133298 183.456 
L 137.133298 185.136 
L 137.133298 186.816 
z
M 83.024284 151.662401 
L 84.715193 151.662401 
L 86.406102 151.662401 
L 88.097011 151.662401 
L 89.78792 151.662401 
L 91.47883 151.662401 
L 93.169739 151.662401 
L 94.860648 151.662401 
L 96.551557 151.662401 
L 98.242466 151.662401 
L 99.933375 151.662401 
L 101.624284 151.662401 
L 103.315193 151.662401 
L 105.006102 151.662401 
L 106.697011 151.662401 
L 108.38792 151.662401 
L 110.07883 151.662401 
L 111.769739 151.662401 
L 113.460648 151.662401 
L 115.151557 151.662401 
L 116.842466 151.662401 
L 118.533375 151.662401 
L 120.224284 151.662401 
L 121.915193 151.662401 
L 123.606102 151.662401 
L 125.297011 151.662401 
L 126.98792 151.662401 
L 128.67883 151.662401 
L 130.369739 151.662401 
L 132.060648 151.662401 
L 133.751557 151.662401 
L 135.442466 151.662401 
L 137.133298 151.536 
L 137.133298 149.856 
L 137.133298 148.176 
L 137.133298 146.496 
L 137.133298 144.816 
L 137.133298 143.136 
L 137.133298 141.456 
L 137.133298 139.776 
L 137.133298 138.096 
L 137.133298 136.416 
L 137.133298 134.736 
L 137.133298 133.056 
L 137.133298 131.376 
L 137.133298 129.696 
L 137.133298 128.016 
L 137.133298 126.336 
L 137.133298 124.656 
L 137.133298 122.976 
L 137.133298 121.296 
L 137.133298 119.616 
L 137.133298 117.936 
L 137.133298 116.256 
L 137.133298 114.576 
L 137.133298 112.896 
L 137.133298 111.216 
L 137.133298 109.536 
L 137.133298 107.856 
L 137.133298 106.176 
L 137.133298 104.496 
L 135.442466 103.656013 
L 133.751557 103.656013 
L 132.060648 103.656013 
L 130.369739 103.656013 
L 128.67883 103.656013 
L 126.98792 103.656013 
L 125.297011 103.656013 
L 123.606102 103.656013 
L 121.915193 103.656013 
L 120.224284 103.656013 
L 118.533375 103.656013 
L 116.842466 103.656013 
L 115.151557 103.656013 
L 113.460648 103.656013 
L 111.769739 103.656013 
L 110.07883 103.656013 
L 108.38792 103.656013 
L 106.697011 103.656013 
L 105.006102 103.656013 
L 103.315193 103.656013 
L 101.624284 103.656013 
L 99.933375 103.656013 
L 98.242466 103.656013 
L 96.551557 103.656013 
L 94.860648 103.656013 
L 93.169739 103.656013 
L 91.47883 103.656013 
L 89.78792 103.656013 
L 88.097011 103.656013 
L 86.406102 103.656013 
L 84.715193 103.656013 
L 83.024284 103.656013 
L 81.333472 104.496 
L 81.333472 106.176 
L 81.333472 107.856 
L 81.333472 109.536 
L 81.333472 111.216 
L 81.333472 112.896 
L 81.333472 114.576 
L 81.333472 116.256 
L 81.333472 117.936 
L 81.333472 119.616 
L 81.333472 121.296 
L 81.333472 122.976 
L 81.333472 124.656 
L 81.333472 126.336 
L 81.333472 128.016 
L 81.333472 129.696 
L 81.333472 131.376 
L 81.333472 133.056 
L 81.333472 134.736 
L 81.333472 136.416 
L 81.333472 138.096 
L 81.333472 139.776 
L 81.333472 141.456 
L 81.333472 143.136 
L 81.333472 144.816 
L 81.333472 146.496 
L 81.333472 148.176 
L 81.333472 149.856 
L 81.333472 151.536 
z
M 27.224284 103.656013 
L 28.915193 103.656013 
L 30.606102 103.656013 
L 32.297011 103.656013 
L 33.98792 103.656013 
L 35.67883 103.656013 
L 37.369739 103.656013 
L 39.060648 103.656013 
L 40.751557 103.656013 
L 42.442466 103.656013 
L 44.133375 103.656013 
L 45.824284 103.656013 
L 47.515193 103.656013 
L 49.206102 103.656013 
L 50.897011 103.656013 
L 52.58792 103.656013 
L 54.27883 103.656013 
L 55.969739 103.656013 
L 57.660648 103.656013 
L 59.351557 103.656013 
L 61.042466 103.656013 
L 62.733375 103.656013 
L 64.424284 103.656013 
L 66.115193 103.656013 
L 67.806102 103.656013 
L 69.497011 103.656013 
L 71.18792 103.656013 
L 72.87883 103.656013 
L 74.569739 103.656013 
L 76.260648 103.656013 
L 77.951557 103.656013 
L 79.642466 103.656013 
L 81.333375 103.656013 
L 81.333472 102.816 
L 81.333472 101.136 
L 81.333472 99.456 
L 81.333472 97.776 
L 81.333472 96.096 
L 81.333472 94.416 
L 81.333472 92.736 
L 81.333472 91.056 
L 81.333472 89.376 
L 81.333472 87.696 
L 81.333472 86.016 
L 81.333472 84.336 
L 81.333472 82.656 
L 81.333472 80.976 
L 81.333472 79.296 
L 81.333472 77.616 
L 81.333472 75.936 
L 81.333472 74.256 
L 81.333472 72.576 
L 81.333472 70.896 
L 81.333472 69.216 
L 81.333472 67.536 
L 81.333472 65.856 
L 81.333472 64.176 
L 81.333472 62.496 
L 81.333472 60.816 
L 81.333472 59.136 
L 81.333472 57.456 
L 81.333472 55.776 
L 83.024284 55.649608 
L 84.715193 55.649608 
L 86.406102 55.649608 
L 88.097011 55.649608 
L 89.78792 55.649608 
L 91.47883 55.649608 
L 93.169739 55.649608 
L 94.860648 55.649608 
L 96.551557 55.649608 
L 98.242466 55.649608 
L 99.933375 55.649608 
L 101.624284 55.649608 
L 103.315193 55.649608 
L 105.006102 55.649608 
L 106.697011 55.649608 
L 108.38792 55.649608 
L 110.07883 55.649608 
L 111.769739 55.649608 
L 113.460648 55.649608 
L 115.151557 55.649608 
L 116.842466 55.649608 
L 118.533375 55.649608 
L 120.224284 55.649608 
L 121.915193 55.649608 
L 123.606102 55.649608 
L 125.297011 55.649608 
L 126.98792 55.649608 
L 128.67883 55.649608 
L 130.369739 55.649608 
L 132.060648 55.649608 
L 133.751557 55.649608 
L 135.442466 55.649608 
L 137.133298 55.776 
L 137.133298 57.456 
L 137.133298 59.136 
L 137.133298 60.816 
L 137.133298 62.496 
L 137.133298 64.176 
L 137.133298 65.856 
L 137.133298 67.536 
L 137.133298 69.216 
L 137.133298 70.896 
L 137.133298 72.576 
L 137.133298 74.256 
L 137.133298 75.936 
L 137.133298 77.616 
L 137.133298 79.296 
L 137.133298 80.976 
L 137.133298 82.656 
L 137.133298 84.336 
L 137.133298 86.016 
L 137.133298 87.696 
L 137.133298 89.376 
L 137.133298 91.056 
L 137.133298 92.736 
L 137.133298 94.416 
L 137.133298 96.096 
L 137.133298 97.776 
L 137.133298 99.456 
L 137.133298 101.136 
L 137.133298 102.816 
L 137.133375 103.656013 
L 138.824284 103.656013 
L 140.515193 103.656013 
L 142.206102 103.656013 
L 143.897011 103.656013 
L 145.58792 103.656013 
L 147.27883 103.656013 
L 148.969739 103.656013 
L 150.660648 103.656013 
L 152.351557 103.656013 
L 154.042466 103.656013 
L 155.733375 103.656013 
L 157.424284 103.656013 
L 159.115193 103.656013 
L 160.806102 103.656013 
L 162.497011 103.656013 
L 164.18792 103.656013 
L 165.87883 103.656013 
L 167.569739 103.656013 
L 169.260648 103.656013 
L 170.951557 103.656013 
L 172.642466 103.656013 
L 174.333375 103.656013 
L 176.024284 103.656013 
L 177.715193 103.656013 
L 179.406102 103.656013 
L 181.097011 103.656013 
L 182.78792 103.656013 
L 184.47883 103.656013 
L 186.169739 103.656013 
L 187.860648 103.656013 
L 189.551557 103.656013 
L 191.242466 103.656013 
L 192.933375 103.656013 
L 192.933375 102.816 
L 192.933375 101.136 
L 192.933375 99.456 
L 192.933375 97.776 
L 192.933375 96.096 
L 192.933375 94.416 
L 192.933375 92.736 
L 192.933375 91.056 
L 192.933375 89.376 
L 192.933375 87.696 
L 192.933375 86.016 
L 192.933375 84.674009 
L 192.497784 84.336 
L 191.242466 83.132965 
L 190.758065 82.656 
L 189.551557 81.108723 
L 189.449682 80.976 
L 188.525016 79.296 
L 187.976112 77.616 
L 187.860648 76.564848 
L 187.790451 75.936 
L 187.860648 75.331951 
L 187.983716 74.256 
L 188.588123 72.576 
L 189.551557 71.082108 
L 189.67276 70.896 
L 191.242466 69.29836 
L 191.325474 69.216 
L 192.933375 68.062435 
L 192.933375 67.536 
L 192.933375 65.856 
L 192.933375 64.176 
L 192.933375 62.496 
L 192.933375 60.816 
L 192.933375 59.136 
L 192.933375 57.456 
L 192.933375 55.776 
L 192.933375 55.649608 
L 191.242466 55.649608 
L 189.551557 55.649608 
L 187.860648 55.649608 
L 186.169739 55.649608 
L 184.47883 55.649608 
L 182.78792 55.649608 
L 181.097011 55.649608 
L 179.406102 55.649608 
L 177.715193 55.649608 
L 176.024284 55.649608 
L 174.333375 55.649608 
L 172.642466 55.649608 
L 170.951557 55.649608 
L 169.260648 55.649608 
L 167.569739 55.649608 
L 165.87883 55.649608 
L 164.18792 55.649608 
L 162.497011 55.649608 
L 160.806102 55.649608 
L 159.115193 55.649608 
L 157.424284 55.649608 
L 155.733375 55.649608 
L 154.042466 55.649608 
L 152.351557 55.649608 
L 150.660648 55.649608 
L 148.969739 55.649608 
L 147.27883 55.649608 
L 145.58792 55.649608 
L 143.897011 55.649608 
L 142.206102 55.649608 
L 140.515193 55.649608 
L 138.824284 55.649608 
L 137.133375 55.649608 
L 137.133298 54.096 
L 137.133298 52.416 
L 137.133298 50.736 
L 137.133298 49.056 
L 137.133298 47.376 
L 137.133298 45.696 
L 137.133298 44.016 
L 137.133298 42.336 
L 137.133298 40.656 
L 137.133298 38.976 
L 137.133298 37.296 
L 137.133298 35.616 
L 137.133298 33.936 
L 137.133298 32.256 
L 137.133298 30.576 
L 137.133298 28.896 
L 137.133298 27.216 
L 137.133298 25.536 
L 137.133298 23.856 
L 137.133298 22.176 
L 137.133298 20.496 
L 135.442466 20.496 
L 133.751557 20.496 
L 132.060648 20.496 
L 130.369739 20.496 
L 128.67883 20.496 
L 126.98792 20.496 
L 125.297011 20.496 
L 123.606102 20.496 
L 122.593688 20.496 
L 121.915193 21.128217 
L 120.519864 22.176 
L 120.224284 22.394398 
L 118.533375 23.401358 
L 117.54619 23.856 
L 116.842466 24.1825 
L 115.151557 24.780754 
L 113.460648 25.205829 
L 111.769739 25.478717 
L 111.046888 25.536 
L 110.07883 25.615991 
L 108.38792 25.615991 
L 107.419877 25.536 
L 106.697011 25.478715 
L 105.006102 25.205826 
L 103.315193 24.780751 
L 101.624284 24.182493 
L 100.920577 23.856 
L 99.933375 23.401349 
L 98.242466 22.394386 
L 97.946903 22.176 
L 96.551557 21.128202 
L 95.873079 20.496 
L 94.860648 20.496 
L 93.169739 20.496 
L 91.47883 20.496 
L 89.78792 20.496 
L 88.097011 20.496 
L 86.406102 20.496 
L 84.715193 20.496 
L 83.024284 20.496 
L 81.333472 20.496 
L 81.333472 22.176 
L 81.333472 23.856 
L 81.333472 25.536 
L 81.333472 27.216 
L 81.333472 28.896 
L 81.333472 30.576 
L 81.333472 32.256 
L 81.333472 33.936 
L 81.333472 35.616 
L 81.333472 37.296 
L 81.333472 38.976 
L 81.333472 40.656 
L 81.333472 42.336 
L 81.333472 44.016 
L 81.333472 45.696 
L 81.333472 47.376 
L 81.333472 49.056 
L 81.333472 50.736 
L 81.333472 52.416 
L 81.333472 54.096 
L 81.333375 55.649608 
L 79.642466 55.649608 
L 77.951557 55.649608 
L 76.260648 55.649608 
L 74.569739 55.649608 
L 72.87883 55.649608 
L 71.18792 55.649608 
L 69.497011 55.649608 
L 67.806102 55.649608 
L 66.115193 55.649608 
L 64.424284 55.649608 
L 62.733375 55.649608 
L 61.042466 55.649608 
L 59.351557 55.649608 
L 57.660648 55.649608 
L 55.969739 55.649608 
L 54.27883 55.649608 
L 52.58792 55.649608 
L 50.897011 55.649608 
L 49.206102 55.649608 
L 47.515193 55.649608 
L 45.824284 55.649608 
L 44.133375 55.649608 
L 42.442466 55.649608 
L 40.751557 55.649608 
L 39.060648 55.649608 
L 37.369739 55.649608 
L 35.67883 55.649608 
L 33.98792 55.649608 
L 32.297011 55.649608 
L 30.606102 55.649608 
L 28.915193 55.649608 
L 27.224284 55.649608 
L 25.533375 55.649608 
L 25.533375 55.776 
L 25.533375 57.456 
L 25.533375 59.136 
L 25.533375 60.816 
L 25.533375 62.496 
L 25.533375 64.176 
L 25.533375 65.856 
L 25.533375 67.536 
L 25.533375 68.062425 
L 27.141289 69.216 
L 27.224284 69.298347 
L 28.794003 70.896 
L 28.915193 71.082088 
L 29.878641 72.576 
L 30.483047 74.256 
L 30.606102 75.331844 
L 30.676312 75.936 
L 30.606102 76.564959 
L 30.49065 77.616 
L 29.941746 79.296 
L 29.017081 80.976 
L 28.915193 81.108739 
L 27.708698 82.656 
L 27.224284 83.132977 
L 25.968976 84.336 
L 25.533375 84.674017 
L 25.533375 86.016 
L 25.533375 87.696 
L 25.533375 89.376 
L 25.533375 91.056 
L 25.533375 92.736 
L 25.533375 94.416 
L 25.533375 96.096 
L 25.533375 97.776 
L 25.533375 99.456 
L 25.533375 101.136 
L 25.533375 102.816 
L 25.533375 103.656013 
z
" clip-path="url(#pe299a9a600)" style="fill: #c21753"/>
    <path d="M 83.024284 186.816 
L 84.715193 186.816 
L 86.406102 186.816 
L 88.097011 186.816 
L 89.78792 186.816 
L 91.47883 186.816 
L 93.169739 186.816 
L 94.860648 186.816 
L 95.873098 186.816 
L 96.551557 186.183815 
L 97.946926 185.136 
L 98.242466 184.917631 
L 99.933375 183.910668 
L 100.920612 183.456 
L 101.624284 183.129523 
L 103.315193 182.531266 
L 105.006102 182.10619 
L 106.697011 181.833301 
L 107.420088 181.776 
L 108.38792 181.696027 
L 110.07883 181.696027 
L 111.04667 181.776 
L 111.769739 181.8333 
L 113.460648 182.106187 
L 115.151557 182.531262 
L 116.842466 183.129516 
L 117.546155 183.456 
L 118.533375 183.910658 
L 120.224284 184.917619 
L 120.519841 185.136 
L 121.915193 186.1838 
L 122.59367 186.816 
L 123.606102 186.816 
L 125.297011 186.816 
L 126.98792 186.816 
L 128.67883 186.816 
L 130.369739 186.816 
L 132.060648 186.816 
L 133.751557 186.816 
L 135.442466 186.816 
L 137.133298 186.816 
L 137.133298 185.136 
L 137.133298 183.456 
L 137.133298 181.776 
L 137.133298 180.096 
L 137.133298 178.416 
L 137.133298 176.736 
L 137.133298 175.056 
L 137.133298 173.376 
L 137.133298 171.696 
L 137.133298 170.016 
L 137.133298 168.336 
L 137.133298 166.656 
L 137.133298 164.976 
L 137.133298 163.296 
L 137.133298 161.616 
L 137.133298 159.936 
L 137.133298 158.256 
L 137.133298 156.576 
L 137.133298 154.896 
L 137.133298 153.216 
L 137.133375 151.662401 
L 138.824284 151.662401 
L 140.515193 151.662401 
L 142.206102 151.662401 
L 143.897011 151.662401 
L 145.58792 151.662401 
L 147.27883 151.662401 
L 148.969739 151.662401 
L 150.660648 151.662401 
L 152.351557 151.662401 
L 154.042466 151.662401 
L 155.733375 151.662401 
L 157.424284 151.662401 
L 159.115193 151.662401 
L 160.806102 151.662401 
L 162.497011 151.662401 
L 164.18792 151.662401 
L 165.87883 151.662401 
L 167.569739 151.662401 
L 169.260648 151.662401 
L 170.951557 151.662401 
L 172.642466 151.662401 
L 174.333375 151.662401 
L 176.024284 151.662401 
L 177.715193 151.662401 
L 179.406102 151.662401 
L 181.097011 151.662401 
L 182.78792 151.662401 
L 184.47883 151.662401 
L 186.169739 151.662401 
L 187.860648 151.662401 
L 189.551557 151.662401 
L 191.242466 151.662401 
L 192.933375 151.662401 
L 192.933375 151.536 
L 192.933375 149.856 
L 192.933375 148.176 
L 192.933375 146.496 
L 192.933375 144.816 
L 192.933375 143.136 
L 192.933375 141.456 
L 192.933375 139.776 
L 192.933375 139.249569 
L 191.325474 138.096 
L 191.242466 138.01364 
L 189.672762 136.416 
L 189.551557 136.229887 
L 188.588134 134.736 
L 187.983726 133.056 
L 187.860648 131.979926 
L 187.790467 131.376 
L 187.860648 130.747328 
L 187.976137 129.696 
L 188.525039 128.016 
L 189.449712 126.336 
L 189.551557 126.203317 
L 190.758103 124.656 
L 191.242466 124.179074 
L 192.497827 122.976 
L 192.933375 122.638025 
L 192.933375 121.296 
L 192.933375 119.616 
L 192.933375 117.936 
L 192.933375 116.256 
L 192.933375 114.576 
L 192.933375 112.896 
L 192.933375 111.216 
L 192.933375 109.536 
L 192.933375 107.856 
L 192.933375 106.176 
L 192.933375 104.496 
L 192.933375 103.656013 
L 191.242466 103.656013 
L 189.551557 103.656013 
L 187.860648 103.656013 
L 186.169739 103.656013 
L 184.47883 103.656013 
L 182.78792 103.656013 
L 181.097011 103.656013 
L 179.406102 103.656013 
L 177.715193 103.656013 
L 176.024284 103.656013 
L 174.333375 103.656013 
L 172.642466 103.656013 
L 170.951557 103.656013 
L 169.260648 103.656013 
L 167.569739 103.656013 
L 165.87883 103.656013 
L 164.18792 103.656013 
L 162.497011 103.656013 
L 160.806102 103.656013 
L 159.115193 103.656013 
L 157.424284 103.656013 
L 155.733375 103.656013 
L 154.042466 103.656013 
L 152.351557 103.656013 
L 150.660648 103.656013 
L 148.969739 103.656013 
L 147.27883 103.656013 
L 145.58792 103.656013 
L 143.897011 103.656013 
L 142.206102 103.656013 
L 140.515193 103.656013 
L 138.824284 103.656013 
L 137.133375 103.656013 
L 137.133298 102.816 
L 137.133298 101.136 
L 137.133298 99.456 
L 137.133298 97.776 
L 137.133298 96.096 
L 137.133298 94.416 
L 137.133298 92.736 
L 137.133298 91.056 
L 137.133298 89.376 
L 137.133298 87.696 
L 137.133298 86.016 
L 137.133298 84.336 
L 137.133298 82.656 
L 137.133298 80.976 
L 137.133298 79.296 
L 137.133298 77.616 
L 137.133298 75.936 
L 137.133298 74.256 
L 137.133298 72.576 
L 137.133298 70.896 
L 137.133298 69.216 
L 137.133298 67.536 
L 137.133298 65.856 
L 137.133298 64.176 
L 137.133298 62.496 
L 137.133298 60.816 
L 137.133298 59.136 
L 137.133298 57.456 
L 137.133298 55.776 
L 135.442466 55.649608 
L 133.751557 55.649608 
L 132.060648 55.649608 
L 130.369739 55.649608 
L 128.67883 55.649608 
L 126.98792 55.649608 
L 125.297011 55.649608 
L 123.606102 55.649608 
L 121.915193 55.649608 
L 120.224284 55.649608 
L 118.533375 55.649608 
L 116.842466 55.649608 
L 115.151557 55.649608 
L 113.460648 55.649608 
L 111.769739 55.649608 
L 110.07883 55.649608 
L 108.38792 55.649608 
L 106.697011 55.649608 
L 105.006102 55.649608 
L 103.315193 55.649608 
L 101.624284 55.649608 
L 99.933375 55.649608 
L 98.242466 55.649608 
L 96.551557 55.649608 
L 94.860648 55.649608 
L 93.169739 55.649608 
L 91.47883 55.649608 
L 89.78792 55.649608 
L 88.097011 55.649608 
L 86.406102 55.649608 
L 84.715193 55.649608 
L 83.024284 55.649608 
L 81.333472 55.776 
L 81.333472 57.456 
L 81.333472 59.136 
L 81.333472 60.816 
L 81.333472 62.496 
L 81.333472 64.176 
L 81.333472 65.856 
L 81.333472 67.536 
L 81.333472 69.216 
L 81.333472 70.896 
L 81.333472 72.576 
L 81.333472 74.256 
L 81.333472 75.936 
L 81.333472 77.616 
L 81.333472 79.296 
L 81.333472 80.976 
L 81.333472 82.656 
L 81.333472 84.336 
L 81.333472 86.016 
L 81.333472 87.696 
L 81.333472 89.376 
L 81.333472 91.056 
L 81.333472 92.736 
L 81.333472 94.416 
L 81.333472 96.096 
L 81.333472 97.776 
L 81.333472 99.456 
L 81.333472 101.136 
L 81.333472 102.816 
L 81.333375 103.656013 
L 79.642466 103.656013 
L 77.951557 103.656013 
L 76.260648 103.656013 
L 74.569739 103.656013 
L 72.87883 103.656013 
L 71.18792 103.656013 
L 69.497011 103.656013 
L 67.806102 103.656013 
L 66.115193 103.656013 
L 64.424284 103.656013 
L 62.733375 103.656013 
L 61.042466 103.656013 
L 59.351557 103.656013 
L 57.660648 103.656013 
L 55.969739 103.656013 
L 54.27883 103.656013 
L 52.58792 103.656013 
L 50.897011 103.656013 
L 49.206102 103.656013 
L 47.515193 103.656013 
L 45.824284 103.656013 
L 44.133375 103.656013 
L 42.442466 103.656013 
L 40.751557 103.656013 
L 39.060648 103.656013 
L 37.369739 103.656013 
L 35.67883 103.656013 
L 33.98792 103.656013 
L 32.297011 103.656013 
L 30.606102 103.656013 
L 28.915193 103.656013 
L 27.224284 103.656013 
L 25.533375 103.656013 
L 25.533375 104.496 
L 25.533375 106.176 
L 25.533375 107.856 
L 25.533375 109.536 
L 25.533375 111.216 
L 25.533375 112.896 
L 25.533375 114.576 
L 25.533375 116.256 
L 25.533375 117.936 
L 25.533375 119.616 
L 25.533375 121.296 
L 25.533375 122.638015 
L 25.968936 122.976 
L 27.224284 124.179061 
L 27.70866 124.656 
L 28.915193 126.2033 
L 29.017051 126.336 
L 29.941723 128.016 
L 30.490628 129.696 
L 30.606102 130.74721 
L 30.676295 131.376 
L 30.606102 131.980033 
L 30.483036 133.056 
L 29.87863 134.736 
L 28.915193 136.229907 
L 28.794001 136.416 
L 27.224284 138.013653 
L 27.141289 138.096 
L 25.533375 139.249577 
L 25.533375 139.776 
L 25.533375 141.456 
L 25.533375 143.136 
L 25.533375 144.816 
L 25.533375 146.496 
L 25.533375 148.176 
L 25.533375 149.856 
L 25.533375 151.536 
L 25.533375 151.662401 
L 27.224284 151.662401 
L 28.915193 151.662401 
L 30.606102 151.662401 
L 32.297011 151.662401 
L 33.98792 151.662401 
L 35.67883 151.662401 
L 37.369739 151.662401 
L 39.060648 151.662401 
L 40.751557 151.662401 
L 42.442466 151.662401 
L 44.133375 151.662401 
L 45.824284 151.662401 
L 47.515193 151.662401 
L 49.206102 151.662401 
L 50.897011 151.662401 
L 52.58792 151.662401 
L 54.27883 151.662401 
L 55.969739 151.662401 
L 57.660648 151.662401 
L 59.351557 151.662401 
L 61.042466 151.662401 
L 62.733375 151.662401 
L 64.424284 151.662401 
L 66.115193 151.662401 
L 67.806102 151.662401 
L 69.497011 151.662401 
L 71.18792 151.662401 
L 72.87883 151.662401 
L 74.569739 151.662401 
L 76.260648 151.662401 
L 77.951557 151.662401 
L 79.642466 151.662401 
L 81.333375 151.662401 
L 81.333472 153.216 
L 81.333472 154.896 
L 81.333472 156.576 
L 81.333472 158.256 
L 81.333472 159.936 
L 81.333472 161.616 
L 81.333472 163.296 
L 81.333472 164.976 
L 81.333472 166.656 
L 81.333472 168.336 
L 81.333472 170.016 
L 81.333472 171.696 
L 81.333472 173.376 
L 81.333472 175.056 
L 81.333472 176.736 
L 81.333472 178.416 
L 81.333472 180.096 
L 81.333472 181.776 
L 81.333472 183.456 
L 81.333472 185.136 
L 81.333472 186.816 
z
M 81.333472 151.536 
L 81.333472 149.856 
L 81.333472 148.176 
L 81.333472 146.496 
L 81.333472 144.816 
L 81.333472 143.136 
L 81.333472 141.456 
L 81.333472 139.776 
L 81.333472 138.096 
L 81.333472 136.416 
L 81.333472 134.736 
L 81.333472 133.056 
L 81.333472 131.376 
L 81.333472 129.696 
L 81.333472 128.016 
L 81.333472 126.336 
L 81.333472 124.656 
L 81.333472 122.976 
L 81.333472 121.296 
L 81.333472 119.616 
L 81.333472 117.936 
L 81.333472 116.256 
L 81.333472 114.576 
L 81.333472 112.896 
L 81.333472 111.216 
L 81.333472 109.536 
L 81.333472 107.856 
L 81.333472 106.176 
L 81.333472 104.496 
L 83.024284 103.656013 
L 84.715193 103.656013 
L 86.406102 103.656013 
L 88.097011 103.656013 
L 89.78792 103.656013 
L 91.47883 103.656013 
L 93.169739 103.656013 
L 94.860648 103.656013 
L 96.551557 103.656013 
L 98.242466 103.656013 
L 99.933375 103.656013 
L 101.624284 103.656013 
L 103.315193 103.656013 
L 105.006102 103.656013 
L 106.697011 103.656013 
L 108.38792 103.656013 
L 110.07883 103.656013 
L 111.769739 103.656013 
L 113.460648 103.656013 
L 115.151557 103.656013 
L 116.842466 103.656013 
L 118.533375 103.656013 
L 120.224284 103.656013 
L 121.915193 103.656013 
L 123.606102 103.656013 
L 125.297011 103.656013 
L 126.98792 103.656013 
L 128.67883 103.656013 
L 130.369739 103.656013 
L 132.060648 103.656013 
L 133.751557 103.656013 
L 135.442466 103.656013 
L 137.133298 104.496 
L 137.133298 106.176 
L 137.133298 107.856 
L 137.133298 109.536 
L 137.133298 111.216 
L 137.133298 112.896 
L 137.133298 114.576 
L 137.133298 116.256 
L 137.133298 117.936 
L 137.133298 119.616 
L 137.133298 121.296 
L 137.133298 122.976 
L 137.133298 124.656 
L 137.133298 126.336 
L 137.133298 128.016 
L 137.133298 129.696 
L 137.133298 131.376 
L 137.133298 133.056 
L 137.133298 134.736 
L 137.133298 136.416 
L 137.133298 138.096 
L 137.133298 139.776 
L 137.133298 141.456 
L 137.133298 143.136 
L 137.133298 144.816 
L 137.133298 146.496 
L 137.133298 148.176 
L 137.133298 149.856 
L 137.133298 151.536 
L 135.442466 151.662401 
L 133.751557 151.662401 
L 132.060648 151.662401 
L 130.369739 151.662401 
L 128.67883 151.662401 
L 126.98792 151.662401 
L 125.297011 151.662401 
L 123.606102 151.662401 
L 121.915193 151.662401 
L 120.224284 151.662401 
L 118.533375 151.662401 
L 116.842466 151.662401 
L 115.151557 151.662401 
L 113.460648 151.662401 
L 111.769739 151.662401 
L 110.07883 151.662401 
L 108.38792 151.662401 
L 106.697011 151.662401 
L 105.006102 151.662401 
L 103.315193 151.662401 
L 101.624284 151.662401 
L 99.933375 151.662401 
L 98.242466 151.662401 
L 96.551557 151.662401 
L 94.860648 151.662401 
L 93.169739 151.662401 
L 91.47883 151.662401 
L 89.78792 151.662401 
L 88.097011 151.662401 
L 86.406102 151.662401 
L 84.715193 151.662401 
L 83.024284 151.662401 
z
M 27.224284 55.649608 
L 28.915193 55.649608 
L 30.606102 55.649608 
L 32.297011 55.649608 
L 33.98792 55.649608 
L 35.67883 55.649608 
L 37.369739 55.649608 
L 39.060648 55.649608 
L 40.751557 55.649608 
L 42.442466 55.649608 
L 44.133375 55.649608 
L 45.824284 55.649608 
L 47.515193 55.649608 
L 49.206102 55.649608 
L 50.897011 55.649608 
L 52.58792 55.649608 
L 54.27883 55.649608 
L 55.969739 55.649608 
L 57.660648 55.649608 
L 59.351557 55.649608 
L 61.042466 55.649608 
L 62.733375 55.649608 
L 64.424284 55.649608 
L 66.115193 55.649608 
L 67.806102 55.649608 
L 69.497011 55.649608 
L 71.18792 55.649608 
L 72.87883 55.649608 
L 74.569739 55.649608 
L 76.260648 55.649608 
L 77.951557 55.649608 
L 79.642466 55.649608 
L 81.333375 55.649608 
L 81.333472 54.096 
L 81.333472 52.416 
L 81.333472 50.736 
L 81.333472 49.056 
L 81.333472 47.376 
L 81.333472 45.696 
L 81.333472 44.016 
L 81.333472 42.336 
L 81.333472 40.656 
L 81.333472 38.976 
L 81.333472 37.296 
L 81.333472 35.616 
L 81.333472 33.936 
L 81.333472 32.256 
L 81.333472 30.576 
L 81.333472 28.896 
L 81.333472 27.216 
L 81.333472 25.536 
L 81.333472 23.856 
L 81.333472 22.176 
L 81.333472 20.496 
L 81.333375 20.496 
L 79.642466 20.496 
L 77.951557 20.496 
L 76.260648 20.496 
L 74.569739 20.496 
L 72.87883 20.496 
L 72.126513 20.496 
L 71.43582 22.176 
L 71.18792 22.741822 
L 70.679372 23.856 
L 69.833301 25.536 
L 69.497011 26.156858 
L 68.893907 27.216 
L 67.830866 28.896 
L 67.806102 28.933348 
L 66.648934 30.576 
L 66.115193 31.269721 
L 65.303474 32.256 
L 64.424284 33.248585 
L 63.76812 33.936 
L 62.733375 34.955817 
L 62.0056 35.616 
L 61.042466 36.446847 
L 59.963136 37.296 
L 59.351557 37.757972 
L 57.660648 38.916681 
L 57.567995 38.976 
L 55.969739 39.972581 
L 54.739114 40.656 
L 54.27883 40.906801 
L 52.58792 41.763688 
L 51.32871 42.336 
L 50.897011 42.530627 
L 49.206102 43.245993 
L 47.515193 43.883223 
L 47.141737 44.016 
L 45.824284 44.486458 
L 44.133375 45.038093 
L 42.442466 45.536557 
L 41.869302 45.696 
L 40.751557 46.011608 
L 39.060648 46.455469 
L 37.369739 46.860951 
L 35.67883 47.232526 
L 34.990087 47.376 
L 33.98792 47.590249 
L 32.297011 47.930727 
L 30.606102 48.245255 
L 28.915193 48.536493 
L 27.224284 48.806758 
L 25.548014 49.056 
L 25.533375 49.058258 
L 25.533375 50.736 
L 25.533375 52.416 
L 25.533375 54.096 
L 25.533375 55.649608 
z
M 137.133375 55.649608 
L 138.824284 55.649608 
L 140.515193 55.649608 
L 142.206102 55.649608 
L 143.897011 55.649608 
L 145.58792 55.649608 
L 147.27883 55.649608 
L 148.969739 55.649608 
L 150.660648 55.649608 
L 152.351557 55.649608 
L 154.042466 55.649608 
L 155.733375 55.649608 
L 157.424284 55.649608 
L 159.115193 55.649608 
L 160.806102 55.649608 
L 162.497011 55.649608 
L 164.18792 55.649608 
L 165.87883 55.649608 
L 167.569739 55.649608 
L 169.260648 55.649608 
L 170.951557 55.649608 
L 172.642466 55.649608 
L 174.333375 55.649608 
L 176.024284 55.649608 
L 177.715193 55.649608 
L 179.406102 55.649608 
L 181.097011 55.649608 
L 182.78792 55.649608 
L 184.47883 55.649608 
L 186.169739 55.649608 
L 187.860648 55.649608 
L 189.551557 55.649608 
L 191.242466 55.649608 
L 192.933375 55.649608 
L 192.933375 54.096 
L 192.933375 52.416 
L 192.933375 50.736 
L 192.933375 49.058257 
L 192.918745 49.056 
L 191.242466 48.806756 
L 189.551557 48.536491 
L 187.860648 48.245252 
L 186.169739 47.930724 
L 184.47883 47.590246 
L 183.476678 47.376 
L 182.78792 47.232523 
L 181.097011 46.860948 
L 179.406102 46.455466 
L 177.715193 46.011605 
L 176.597462 45.696 
L 176.024284 45.536553 
L 174.333375 45.03809 
L 172.642466 44.486453 
L 171.325027 44.016 
L 170.951557 43.883219 
L 169.260648 43.245987 
L 167.569739 42.530622 
L 167.138051 42.336 
L 165.87883 41.763682 
L 164.18792 40.906791 
L 163.727655 40.656 
L 162.497011 39.97257 
L 160.898776 38.976 
L 160.806102 38.916668 
L 159.115193 37.757957 
L 158.503634 37.296 
L 157.424284 36.44683 
L 156.46117 35.616 
L 155.733375 34.955799 
L 154.69865 33.936 
L 154.042466 33.248565 
L 153.163295 32.256 
L 152.351557 31.269696 
L 151.817836 30.576 
L 150.660648 28.933317 
L 150.635905 28.896 
L 149.572862 27.216 
L 148.969739 26.156822 
L 148.633469 25.536 
L 147.787398 23.856 
L 147.27883 22.741777 
L 147.03095 22.176 
L 146.340256 20.496 
L 145.58792 20.496 
L 143.897011 20.496 
L 142.206102 20.496 
L 140.515193 20.496 
L 138.824284 20.496 
L 137.133375 20.496 
L 137.133298 20.496 
L 137.133298 22.176 
L 137.133298 23.856 
L 137.133298 25.536 
L 137.133298 27.216 
L 137.133298 28.896 
L 137.133298 30.576 
L 137.133298 32.256 
L 137.133298 33.936 
L 137.133298 35.616 
L 137.133298 37.296 
L 137.133298 38.976 
L 137.133298 40.656 
L 137.133298 42.336 
L 137.133298 44.016 
L 137.133298 45.696 
L 137.133298 47.376 
L 137.133298 49.056 
L 137.133298 50.736 
L 137.133298 52.416 
L 137.133298 54.096 
z
" clip-path="url(#pe299a9a600)" style="fill: #d2204c"/>
    <path d="M 96.551557 186.816 
L 98.242466 186.816 
L 99.933375 186.816 
L 101.624284 186.816 
L 103.315193 186.816 
L 105.006102 186.816 
L 106.697011 186.816 
L 108.38792 186.816 
L 110.07883 186.816 
L 111.769739 186.816 
L 113.460648 186.816 
L 115.151557 186.816 
L 116.842466 186.816 
L 118.533375 186.816 
L 120.224284 186.816 
L 121.915193 186.816 
L 122.59367 186.816 
L 121.915193 186.1838 
L 120.519841 185.136 
L 120.224284 184.917619 
L 118.533375 183.910658 
L 117.546155 183.456 
L 116.842466 183.129516 
L 115.151557 182.531262 
L 113.460648 182.106187 
L 111.769739 181.8333 
L 111.04667 181.776 
L 110.07883 181.696027 
L 108.38792 181.696027 
L 107.420088 181.776 
L 106.697011 181.833301 
L 105.006102 182.10619 
L 103.315193 182.531266 
L 101.624284 183.129523 
L 100.920612 183.456 
L 99.933375 183.910668 
L 98.242466 184.917631 
L 97.946926 185.136 
L 96.551557 186.183815 
L 95.873098 186.816 
z
M 27.141289 138.096 
L 27.224284 138.013653 
L 28.794001 136.416 
L 28.915193 136.229907 
L 29.87863 134.736 
L 30.483036 133.056 
L 30.606102 131.980033 
L 30.676295 131.376 
L 30.606102 130.74721 
L 30.490628 129.696 
L 29.941723 128.016 
L 29.017051 126.336 
L 28.915193 126.2033 
L 27.70866 124.656 
L 27.224284 124.179061 
L 25.968936 122.976 
L 25.533375 122.638015 
L 25.533375 122.976 
L 25.533375 124.656 
L 25.533375 126.336 
L 25.533375 128.016 
L 25.533375 129.696 
L 25.533375 131.376 
L 25.533375 133.056 
L 25.533375 134.736 
L 25.533375 136.416 
L 25.533375 138.096 
L 25.533375 139.249577 
z
M 192.933375 139.249569 
L 192.933375 138.096 
L 192.933375 136.416 
L 192.933375 134.736 
L 192.933375 133.056 
L 192.933375 131.376 
L 192.933375 129.696 
L 192.933375 128.016 
L 192.933375 126.336 
L 192.933375 124.656 
L 192.933375 122.976 
L 192.933375 122.638025 
L 192.497827 122.976 
L 191.242466 124.179074 
L 190.758103 124.656 
L 189.551557 126.203317 
L 189.449712 126.336 
L 188.525039 128.016 
L 187.976137 129.696 
L 187.860648 130.747328 
L 187.790467 131.376 
L 187.860648 131.979926 
L 187.983726 133.056 
L 188.588134 134.736 
L 189.551557 136.229887 
L 189.672762 136.416 
L 191.242466 138.01364 
L 191.325474 138.096 
z
M 25.548014 49.056 
L 27.224284 48.806758 
L 28.915193 48.536493 
L 30.606102 48.245255 
L 32.297011 47.930727 
L 33.98792 47.590249 
L 34.990087 47.376 
L 35.67883 47.232526 
L 37.369739 46.860951 
L 39.060648 46.455469 
L 40.751557 46.011608 
L 41.869302 45.696 
L 42.442466 45.536557 
L 44.133375 45.038093 
L 45.824284 44.486458 
L 47.141737 44.016 
L 47.515193 43.883223 
L 49.206102 43.245993 
L 50.897011 42.530627 
L 51.32871 42.336 
L 52.58792 41.763688 
L 54.27883 40.906801 
L 54.739114 40.656 
L 55.969739 39.972581 
L 57.567995 38.976 
L 57.660648 38.916681 
L 59.351557 37.757972 
L 59.963136 37.296 
L 61.042466 36.446847 
L 62.0056 35.616 
L 62.733375 34.955817 
L 63.76812 33.936 
L 64.424284 33.248585 
L 65.303474 32.256 
L 66.115193 31.269721 
L 66.648934 30.576 
L 67.806102 28.933348 
L 67.830866 28.896 
L 68.893907 27.216 
L 69.497011 26.156858 
L 69.833301 25.536 
L 70.679372 23.856 
L 71.18792 22.741822 
L 71.43582 22.176 
L 72.126513 20.496 
L 71.18792 20.496 
L 69.497011 20.496 
L 67.806102 20.496 
L 66.115193 20.496 
L 64.776949 20.496 
L 64.424284 21.032471 
L 63.638312 22.176 
L 62.733375 23.401561 
L 62.380964 23.856 
L 61.042466 25.478894 
L 60.992768 25.536 
L 59.461099 27.216 
L 59.351557 27.33049 
L 57.756579 28.896 
L 57.660648 28.98615 
L 55.969739 30.478975 
L 55.852524 30.576 
L 54.27883 31.8383 
L 53.717064 32.256 
L 52.58792 33.074509 
L 51.297061 33.936 
L 50.897011 34.197771 
L 49.206102 35.237516 
L 48.543659 35.616 
L 47.515193 36.197107 
L 45.824284 37.077053 
L 45.378278 37.296 
L 44.133375 37.904975 
L 42.442466 38.665609 
L 41.706993 38.976 
L 40.751557 39.380588 
L 39.060648 40.050135 
L 37.386662 40.656 
L 37.369739 40.662186 
L 35.67883 41.26102 
L 33.98792 41.811354 
L 32.297011 42.318476 
L 32.236729 42.336 
L 30.606102 42.8191 
L 28.915193 43.283812 
L 27.224284 43.715057 
L 25.970088 44.016 
L 25.533375 44.12353 
L 25.533375 45.696 
L 25.533375 47.376 
L 25.533375 49.056 
L 25.533375 49.058258 
z
M 192.933375 49.058257 
L 192.933375 49.056 
L 192.933375 47.376 
L 192.933375 45.696 
L 192.933375 44.123527 
L 192.496675 44.016 
L 191.242466 43.715054 
L 189.551557 43.283808 
L 187.860648 42.819097 
L 186.230035 42.336 
L 186.169739 42.318472 
L 184.47883 41.81135 
L 182.78792 41.261015 
L 181.097011 40.66218 
L 181.080102 40.656 
L 179.406102 40.05013 
L 177.715193 39.380583 
L 176.759772 38.976 
L 176.024284 38.665603 
L 174.333375 37.90497 
L 173.088486 37.296 
L 172.642466 37.077045 
L 170.951557 36.197101 
L 169.923103 35.616 
L 169.260648 35.237508 
L 167.569739 34.197763 
L 167.169702 33.936 
L 165.87883 33.074499 
L 164.749703 32.256 
L 164.18792 31.838286 
L 162.614246 30.576 
L 162.497011 30.478958 
L 160.806102 28.986132 
L 160.710191 28.896 
L 159.115193 27.330466 
L 159.005674 27.216 
L 157.474002 25.536 
L 157.424284 25.478871 
L 156.085806 23.856 
L 155.733375 23.401536 
L 154.828457 22.176 
L 154.042466 21.032442 
L 153.68982 20.496 
L 152.351557 20.496 
L 150.660648 20.496 
L 148.969739 20.496 
L 147.27883 20.496 
L 146.340256 20.496 
L 147.03095 22.176 
L 147.27883 22.741777 
L 147.787398 23.856 
L 148.633469 25.536 
L 148.969739 26.156822 
L 149.572862 27.216 
L 150.635905 28.896 
L 150.660648 28.933317 
L 151.817836 30.576 
L 152.351557 31.269696 
L 153.163295 32.256 
L 154.042466 33.248565 
L 154.69865 33.936 
L 155.733375 34.955799 
L 156.46117 35.616 
L 157.424284 36.44683 
L 158.503634 37.296 
L 159.115193 37.757957 
L 160.806102 38.916668 
L 160.898776 38.976 
L 162.497011 39.97257 
L 163.727655 40.656 
L 164.18792 40.906791 
L 165.87883 41.763682 
L 167.138051 42.336 
L 167.569739 42.530622 
L 169.260648 43.245987 
L 170.951557 43.883219 
L 171.325027 44.016 
L 172.642466 44.486453 
L 174.333375 45.03809 
L 176.024284 45.536553 
L 176.597462 45.696 
L 177.715193 46.011605 
L 179.406102 46.455466 
L 181.097011 46.860948 
L 182.78792 47.232523 
L 183.476678 47.376 
L 184.47883 47.590246 
L 186.169739 47.930724 
L 187.860648 48.245252 
L 189.551557 48.536491 
L 191.242466 48.806756 
L 192.918745 49.056 
z
" clip-path="url(#pe299a9a600)" style="fill: #e03143"/>
    <path d="M 25.970088 44.016 
L 27.224284 43.715057 
L 28.915193 43.283812 
L 30.606102 42.8191 
L 32.236729 42.336 
L 32.297011 42.318476 
L 33.98792 41.811354 
L 35.67883 41.26102 
L 37.369739 40.662186 
L 37.386662 40.656 
L 39.060648 40.050135 
L 40.751557 39.380588 
L 41.706993 38.976 
L 42.442466 38.665609 
L 44.133375 37.904975 
L 45.378278 37.296 
L 45.824284 37.077053 
L 47.515193 36.197107 
L 48.543659 35.616 
L 49.206102 35.237516 
L 50.897011 34.197771 
L 51.297061 33.936 
L 52.58792 33.074509 
L 53.717064 32.256 
L 54.27883 31.8383 
L 55.852524 30.576 
L 55.969739 30.478975 
L 57.660648 28.98615 
L 57.756579 28.896 
L 59.351557 27.33049 
L 59.461099 27.216 
L 60.992768 25.536 
L 61.042466 25.478894 
L 62.380964 23.856 
L 62.733375 23.401561 
L 63.638312 22.176 
L 64.424284 21.032471 
L 64.776949 20.496 
L 64.424284 20.496 
L 62.733375 20.496 
L 61.042466 20.496 
L 59.351557 20.496 
L 58.485449 20.496 
L 57.660648 21.442072 
L 56.988334 22.176 
L 55.969739 23.240707 
L 55.348652 23.856 
L 54.27883 24.877066 
L 53.547175 25.536 
L 52.58792 26.373025 
L 51.559324 27.216 
L 50.897011 27.744676 
L 49.353575 28.896 
L 49.206102 29.00368 
L 47.515193 30.180031 
L 46.906105 30.576 
L 45.824284 31.26967 
L 44.158036 32.256 
L 44.133375 32.270461 
L 42.442466 33.225569 
L 41.071378 33.936 
L 40.751557 34.101217 
L 39.060648 34.936586 
L 37.564756 35.616 
L 37.369739 35.704831 
L 35.67883 36.446814 
L 33.98792 37.128704 
L 33.554478 37.296 
L 32.297011 37.786215 
L 30.606102 38.403391 
L 28.915193 38.974866 
L 28.911744 38.976 
L 27.224284 39.539962 
L 25.533375 40.065516 
L 25.533375 40.656 
L 25.533375 42.336 
L 25.533375 44.016 
L 25.533375 44.12353 
z
M 192.933375 44.123527 
L 192.933375 44.016 
L 192.933375 42.336 
L 192.933375 40.656 
L 192.933375 40.065512 
L 191.242466 39.539958 
L 189.555018 38.976 
L 189.551557 38.974862 
L 187.860648 38.403386 
L 186.169739 37.78621 
L 184.912285 37.296 
L 184.47883 37.128699 
L 182.78792 36.446808 
L 181.097011 35.704825 
L 180.902008 35.616 
L 179.406102 34.93658 
L 177.715193 34.101211 
L 177.395384 33.936 
L 176.024284 33.225562 
L 174.333375 32.270453 
L 174.308727 32.256 
L 172.642466 31.269661 
L 171.560657 30.576 
L 170.951557 30.180023 
L 169.260648 29.003671 
L 169.113188 28.896 
L 167.569739 27.744667 
L 166.907439 27.216 
L 165.87883 26.373014 
L 164.919592 25.536 
L 164.18792 24.877048 
L 163.118117 23.856 
L 162.497011 23.240687 
L 161.478435 22.176 
L 160.806102 21.44205 
L 159.981321 20.496 
L 159.115193 20.496 
L 157.424284 20.496 
L 155.733375 20.496 
L 154.042466 20.496 
L 153.68982 20.496 
L 154.042466 21.032442 
L 154.828457 22.176 
L 155.733375 23.401536 
L 156.085806 23.856 
L 157.424284 25.478871 
L 157.474002 25.536 
L 159.005674 27.216 
L 159.115193 27.330466 
L 160.710191 28.896 
L 160.806102 28.986132 
L 162.497011 30.478958 
L 162.614246 30.576 
L 164.18792 31.838286 
L 164.749703 32.256 
L 165.87883 33.074499 
L 167.169702 33.936 
L 167.569739 34.197763 
L 169.260648 35.237508 
L 169.923103 35.616 
L 170.951557 36.197101 
L 172.642466 37.077045 
L 173.088486 37.296 
L 174.333375 37.90497 
L 176.024284 38.665603 
L 176.759772 38.976 
L 177.715193 39.380583 
L 179.406102 40.05013 
L 181.080102 40.656 
L 181.097011 40.66218 
L 182.78792 41.261015 
L 184.47883 41.81135 
L 186.169739 42.318472 
L 186.230035 42.336 
L 187.860648 42.819097 
L 189.551557 43.283808 
L 191.242466 43.715054 
L 192.496675 44.016 
z
" clip-path="url(#pe299a9a600)" style="fill: #eb463e"/>
    <path d="M 27.224284 39.539962 
L 28.911744 38.976 
L 28.915193 38.974866 
L 30.606102 38.403391 
L 32.297011 37.786215 
L 33.554478 37.296 
L 33.98792 37.128704 
L 35.67883 36.446814 
L 37.369739 35.704831 
L 37.564756 35.616 
L 39.060648 34.936586 
L 40.751557 34.101217 
L 41.071378 33.936 
L 42.442466 33.225569 
L 44.133375 32.270461 
L 44.158036 32.256 
L 45.824284 31.26967 
L 46.906105 30.576 
L 47.515193 30.180031 
L 49.206102 29.00368 
L 49.353575 28.896 
L 50.897011 27.744676 
L 51.559324 27.216 
L 52.58792 26.373025 
L 53.547175 25.536 
L 54.27883 24.877066 
L 55.348652 23.856 
L 55.969739 23.240707 
L 56.988334 22.176 
L 57.660648 21.442072 
L 58.485449 20.496 
L 57.660648 20.496 
L 55.969739 20.496 
L 54.27883 20.496 
L 52.887385 20.496 
L 52.58792 20.788495 
L 51.090896 22.176 
L 50.897011 22.350332 
L 49.206102 23.79221 
L 49.127562 23.856 
L 47.515193 25.136468 
L 46.980239 25.536 
L 45.824284 26.383697 
L 44.612008 27.216 
L 44.133375 27.539959 
L 42.442466 28.623813 
L 41.994503 28.896 
L 40.751557 29.645099 
L 39.083848 30.576 
L 39.060648 30.588892 
L 37.369739 31.497998 
L 35.838958 32.256 
L 35.67883 32.335361 
L 33.98792 33.1446 
L 32.297011 33.890297 
L 32.189943 33.936 
L 30.606102 34.617051 
L 28.915193 35.292484 
L 28.062405 35.616 
L 27.224284 35.937777 
L 25.533375 36.556189 
L 25.533375 37.296 
L 25.533375 38.976 
L 25.533375 40.065516 
z
M 191.242466 39.539958 
L 192.933375 40.065512 
L 192.933375 38.976 
L 192.933375 37.296 
L 192.933375 36.556185 
L 191.242466 35.937772 
L 190.404358 35.616 
L 189.551557 35.292479 
L 187.860648 34.617045 
L 186.276821 33.936 
L 186.169739 33.890291 
L 184.47883 33.144593 
L 182.78792 32.335353 
L 182.627807 32.256 
L 181.097011 31.49799 
L 179.406102 30.588884 
L 179.382916 30.576 
L 177.715193 29.645091 
L 176.472261 28.896 
L 176.024284 28.623804 
L 174.333375 27.539951 
L 173.854755 27.216 
L 172.642466 26.383687 
L 171.486525 25.536 
L 170.951557 25.136458 
L 169.339201 23.856 
L 169.260648 23.7922 
L 167.569739 22.350322 
L 167.375866 22.176 
L 165.87883 20.788481 
L 165.579381 20.496 
L 164.18792 20.496 
L 162.497011 20.496 
L 160.806102 20.496 
L 159.981321 20.496 
L 160.806102 21.44205 
L 161.478435 22.176 
L 162.497011 23.240687 
L 163.118117 23.856 
L 164.18792 24.877048 
L 164.919592 25.536 
L 165.87883 26.373014 
L 166.907439 27.216 
L 167.569739 27.744667 
L 169.113188 28.896 
L 169.260648 29.003671 
L 170.951557 30.180023 
L 171.560657 30.576 
L 172.642466 31.269661 
L 174.308727 32.256 
L 174.333375 32.270453 
L 176.024284 33.225562 
L 177.395384 33.936 
L 177.715193 34.101211 
L 179.406102 34.93658 
L 180.902008 35.616 
L 181.097011 35.704825 
L 182.78792 36.446808 
L 184.47883 37.128699 
L 184.912285 37.296 
L 186.169739 37.78621 
L 187.860648 38.403386 
L 189.551557 38.974862 
L 189.555018 38.976 
z
" clip-path="url(#pe299a9a600)" style="fill: #f05c42"/>
    <path d="M 27.224284 35.937777 
L 28.062405 35.616 
L 28.915193 35.292484 
L 30.606102 34.617051 
L 32.189943 33.936 
L 32.297011 33.890297 
L 33.98792 33.1446 
L 35.67883 32.335361 
L 35.838958 32.256 
L 37.369739 31.497998 
L 39.060648 30.588892 
L 39.083848 30.576 
L 40.751557 29.645099 
L 41.994503 28.896 
L 42.442466 28.623813 
L 44.133375 27.539959 
L 44.612008 27.216 
L 45.824284 26.383697 
L 46.980239 25.536 
L 47.515193 25.136468 
L 49.127562 23.856 
L 49.206102 23.79221 
L 50.897011 22.350332 
L 51.090896 22.176 
L 52.58792 20.788495 
L 52.887385 20.496 
L 52.58792 20.496 
L 50.897011 20.496 
L 49.206102 20.496 
L 47.799609 20.496 
L 47.515193 20.739013 
L 45.824284 22.111152 
L 45.740765 22.176 
L 44.133375 23.401512 
L 43.500777 23.856 
L 42.442466 24.605328 
L 41.041871 25.536 
L 40.751557 25.726789 
L 39.060648 26.790601 
L 38.343835 27.216 
L 37.369739 27.790798 
L 35.67883 28.727596 
L 35.361921 28.896 
L 33.98792 29.625566 
L 32.297011 30.461326 
L 32.056347 30.576 
L 30.606102 31.269658 
L 28.915193 32.023995 
L 28.372337 32.256 
L 27.224284 32.750676 
L 25.533375 33.438713 
L 25.533375 33.936 
L 25.533375 35.616 
L 25.533375 36.556189 
z
M 191.242466 35.937772 
L 192.933375 36.556185 
L 192.933375 35.616 
L 192.933375 33.936 
L 192.933375 33.438709 
L 191.242466 32.75067 
L 190.094426 32.256 
L 189.551557 32.023989 
L 187.860648 31.269652 
L 186.410416 30.576 
L 186.169739 30.46132 
L 184.47883 29.625558 
L 183.104843 28.896 
L 182.78792 28.727588 
L 181.097011 27.790791 
L 180.122929 27.216 
L 179.406102 26.790593 
L 177.715193 25.72678 
L 177.424893 25.536 
L 176.024284 24.605318 
L 174.965985 23.856 
L 174.333375 23.401504 
L 172.725999 22.176 
L 172.642466 22.11114 
L 170.951557 20.739001 
L 170.667155 20.496 
L 169.260648 20.496 
L 167.569739 20.496 
L 165.87883 20.496 
L 165.579381 20.496 
L 165.87883 20.788481 
L 167.375866 22.176 
L 167.569739 22.350322 
L 169.260648 23.7922 
L 169.339201 23.856 
L 170.951557 25.136458 
L 171.486525 25.536 
L 172.642466 26.383687 
L 173.854755 27.216 
L 174.333375 27.539951 
L 176.024284 28.623804 
L 176.472261 28.896 
L 177.715193 29.645091 
L 179.382916 30.576 
L 179.406102 30.588884 
L 181.097011 31.49799 
L 182.627807 32.256 
L 182.78792 32.335353 
L 184.47883 33.144593 
L 186.169739 33.890291 
L 186.276821 33.936 
L 187.860648 34.617045 
L 189.551557 35.292479 
L 190.404358 35.616 
z
" clip-path="url(#pe299a9a600)" style="fill: #f3734e"/>
    <path d="M 27.224284 32.750676 
L 28.372337 32.256 
L 28.915193 32.023995 
L 30.606102 31.269658 
L 32.056347 30.576 
L 32.297011 30.461326 
L 33.98792 29.625566 
L 35.361921 28.896 
L 35.67883 28.727596 
L 37.369739 27.790798 
L 38.343835 27.216 
L 39.060648 26.790601 
L 40.751557 25.726789 
L 41.041871 25.536 
L 42.442466 24.605328 
L 43.500777 23.856 
L 44.133375 23.401512 
L 45.740765 22.176 
L 45.824284 22.111152 
L 47.515193 20.739013 
L 47.799609 20.496 
L 47.515193 20.496 
L 45.824284 20.496 
L 44.133375 20.496 
L 43.104354 20.496 
L 42.442466 21.000213 
L 40.80852 22.176 
L 40.751557 22.216436 
L 39.060648 23.374892 
L 38.315488 23.856 
L 37.369739 24.46149 
L 35.67883 25.478849 
L 35.580486 25.536 
L 33.98792 26.458091 
L 32.583873 27.216 
L 32.297011 27.370734 
L 30.606102 28.250169 
L 29.278706 28.896 
L 28.915193 29.073496 
L 27.224284 29.869591 
L 25.614238 30.576 
L 25.533375 30.611752 
L 25.533375 32.256 
L 25.533375 33.438713 
z
M 191.242466 32.75067 
L 192.933375 33.438709 
L 192.933375 32.256 
L 192.933375 30.611745 
L 192.852527 30.576 
L 191.242466 29.869585 
L 189.551557 29.073489 
L 189.188058 28.896 
L 187.860648 28.250161 
L 186.169739 27.370727 
L 185.88289 27.216 
L 184.47883 26.458083 
L 182.886276 25.536 
L 182.78792 25.478842 
L 181.097011 24.461481 
L 180.151276 23.856 
L 179.406102 23.374883 
L 177.715193 22.216426 
L 177.658244 22.176 
L 176.024284 21.000203 
L 175.362409 20.496 
L 174.333375 20.496 
L 172.642466 20.496 
L 170.951557 20.496 
L 170.667155 20.496 
L 170.951557 20.739001 
L 172.642466 22.11114 
L 172.725999 22.176 
L 174.333375 23.401504 
L 174.965985 23.856 
L 176.024284 24.605318 
L 177.424893 25.536 
L 177.715193 25.72678 
L 179.406102 26.790593 
L 180.122929 27.216 
L 181.097011 27.790791 
L 182.78792 28.727588 
L 183.104843 28.896 
L 184.47883 29.625558 
L 186.169739 30.46132 
L 186.410416 30.576 
L 187.860648 31.269652 
L 189.551557 32.023989 
L 190.094426 32.256 
z
" clip-path="url(#pe299a9a600)" style="fill: #f58860"/>
    <path d="M 25.614238 30.576 
L 27.224284 29.869591 
L 28.915193 29.073496 
L 29.278706 28.896 
L 30.606102 28.250169 
L 32.297011 27.370734 
L 32.583873 27.216 
L 33.98792 26.458091 
L 35.580486 25.536 
L 35.67883 25.478849 
L 37.369739 24.46149 
L 38.315488 23.856 
L 39.060648 23.374892 
L 40.751557 22.216436 
L 40.80852 22.176 
L 42.442466 21.000213 
L 43.104354 20.496 
L 42.442466 20.496 
L 40.751557 20.496 
L 39.060648 20.496 
L 38.717516 20.496 
L 37.369739 21.424369 
L 36.212526 22.176 
L 35.67883 22.519913 
L 33.98792 23.559704 
L 33.483389 23.856 
L 32.297011 24.550311 
L 30.606102 25.478845 
L 30.498684 25.536 
L 28.915193 26.379109 
L 27.226859 27.216 
L 27.224284 27.217281 
L 25.533375 28.037101 
L 25.533375 28.896 
L 25.533375 30.576 
L 25.533375 30.611752 
z
M 192.933375 30.611745 
L 192.933375 30.576 
L 192.933375 28.896 
L 192.933375 28.037095 
L 191.242466 27.217275 
L 191.239903 27.216 
L 189.551557 26.379103 
L 187.968079 25.536 
L 187.860648 25.478838 
L 186.169739 24.550304 
L 184.983375 23.856 
L 184.47883 23.559696 
L 182.78792 22.519904 
L 182.254239 22.176 
L 181.097011 21.424359 
L 179.749249 20.496 
L 179.406102 20.496 
L 177.715193 20.496 
L 176.024284 20.496 
L 175.362409 20.496 
L 176.024284 21.000203 
L 177.658244 22.176 
L 177.715193 22.216426 
L 179.406102 23.374883 
L 180.151276 23.856 
L 181.097011 24.461481 
L 182.78792 25.478842 
L 182.886276 25.536 
L 184.47883 26.458083 
L 185.88289 27.216 
L 186.169739 27.370727 
L 187.860648 28.250161 
L 189.188058 28.896 
L 189.551557 29.073489 
L 191.242466 29.869585 
L 192.852527 30.576 
z
" clip-path="url(#pe299a9a600)" style="fill: #f69b71"/>
    <path d="M 27.224284 27.217281 
L 27.226859 27.216 
L 28.915193 26.379109 
L 30.498684 25.536 
L 30.606102 25.478845 
L 32.297011 24.550311 
L 33.483389 23.856 
L 33.98792 23.559704 
L 35.67883 22.519913 
L 36.212526 22.176 
L 37.369739 21.424369 
L 38.717516 20.496 
L 37.369739 20.496 
L 35.67883 20.496 
L 34.590804 20.496 
L 33.98792 20.886731 
L 32.297011 21.931862 
L 31.885178 22.176 
L 30.606102 22.931773 
L 28.938747 23.856 
L 28.915193 23.869048 
L 27.224284 24.78089 
L 25.726192 25.536 
L 25.533375 25.633498 
L 25.533375 27.216 
L 25.533375 28.037101 
z
M 191.242466 27.217275 
L 192.933375 28.037095 
L 192.933375 27.216 
L 192.933375 25.633491 
L 192.740571 25.536 
L 191.242466 24.780884 
L 189.551557 23.869041 
L 189.528015 23.856 
L 187.860648 22.931766 
L 186.581585 22.176 
L 186.169739 21.931853 
L 184.47883 20.886722 
L 183.87596 20.496 
L 182.78792 20.496 
L 181.097011 20.496 
L 179.749249 20.496 
L 181.097011 21.424359 
L 182.254239 22.176 
L 182.78792 22.519904 
L 184.47883 23.559696 
L 184.983375 23.856 
L 186.169739 24.550304 
L 187.860648 25.478838 
L 187.968079 25.536 
L 189.551557 26.379103 
L 191.239903 27.216 
z
" clip-path="url(#pe299a9a600)" style="fill: #f6ae87"/>
    <path d="M 25.726192 25.536 
L 27.224284 24.78089 
L 28.915193 23.869048 
L 28.938747 23.856 
L 30.606102 22.931773 
L 31.885178 22.176 
L 32.297011 21.931862 
L 33.98792 20.886731 
L 34.590804 20.496 
L 33.98792 20.496 
L 32.297011 20.496 
L 30.675899 20.496 
L 30.606102 20.538737 
L 28.915193 21.544472 
L 27.788654 22.176 
L 27.224284 22.492186 
L 25.533375 23.401502 
L 25.533375 23.856 
L 25.533375 25.536 
L 25.533375 25.633498 
z
M 192.933375 25.633491 
L 192.933375 25.536 
L 192.933375 23.856 
L 192.933375 23.401496 
L 191.242466 22.492178 
L 190.67811 22.176 
L 189.551557 21.544464 
L 187.860648 20.538728 
L 187.790866 20.496 
L 186.169739 20.496 
L 184.47883 20.496 
L 183.87596 20.496 
L 184.47883 20.886722 
L 186.169739 21.931853 
L 186.581585 22.176 
L 187.860648 22.931766 
L 189.528015 23.856 
L 189.551557 23.869041 
L 191.242466 24.780884 
L 192.740571 25.536 
z
" clip-path="url(#pe299a9a600)" style="fill: #f6bf9d"/>
    <path d="M 27.224284 22.492186 
L 27.788654 22.176 
L 28.915193 21.544472 
L 30.606102 20.538737 
L 30.675899 20.496 
L 30.606102 20.496 
L 28.915193 20.496 
L 27.224284 20.496 
L 26.952001 20.496 
L 25.533375 21.298945 
L 25.533375 22.176 
L 25.533375 23.401502 
z
M 191.242466 22.492178 
L 192.933375 23.401496 
L 192.933375 22.176 
L 192.933375 21.298938 
L 191.51476 20.496 
L 191.242466 20.496 
L 189.551557 20.496 
L 187.860648 20.496 
L 187.790866 20.496 
L 187.860648 20.538728 
L 189.551557 21.544464 
L 190.67811 22.176 
z
" clip-path="url(#pe299a9a600)" style="fill: #f8d1b8"/>
    <path d="M 26.952001 20.496 
L 25.533375 20.496 
L 25.533375 21.298945 
z
M 192.933375 21.298938 
L 192.933375 20.496 
L 191.51476 20.496 
z
" clip-path="url(#pe299a9a600)" style="fill: #f9e3d2"/>
   </g>
   <g id="patch_3">
    <path d="M 25.533375 186.816 
L 25.533375 20.496 
" style="fill: none; stroke: #262626; stroke-linejoin: miter; stroke-linecap: square"/>
   </g>
   <g id="patch_4">
    <path d="M 192.933375 186.816 
L 192.933375 20.496 
" style="fill: none; stroke: #262626; stroke-linejoin: miter; stroke-linecap: square"/>
   </g>
   <g id="patch_5">
    <path d="M 25.533375 186.816 
L 192.933375 186.816 
" style="fill: none; stroke: #262626; stroke-linejoin: miter; stroke-linecap: square"/>
   </g>
   <g id="patch_6">
    <path d="M 25.533375 20.496 
L 192.933375 20.496 
" style="fill: none; stroke: #262626; stroke-linejoin: miter; stroke-linecap: square"/>
   </g>
   <g id="text_15">
    <!-- $\psi_{14} = \phi_{12}\otimes \phi_{23}$ -->
    <g style="fill: #262626" transform="translate(74.721375 14.496) scale(0.096 -0.096)">
     <defs>
      <path id="DejaVuSans-Oblique-3c8" d="M 1591 -78 
Q 891 38 616 341 
Q 278 713 425 1472 
L 819 3500 
L 1400 3500 
L 1009 1494 
Q 900 922 1119 684 
Q 1313 478 1691 434 
L 2284 3500 
L 2856 3500 
L 2263 438 
Q 2681 481 2928 688 
Q 3247 950 3353 1497 
L 3741 3500 
L 4322 3500 
L 3928 1475 
Q 3775 688 3300 344 
Q 2872 34 2163 -75 
L 1919 -1331 
L 1347 -1331 
L 1591 -78 
z
" transform="scale(0.015625)"/>
      <path id="DejaVuSans-31" d="M 794 531 
L 1825 531 
L 1825 4091 
L 703 3866 
L 703 4441 
L 1819 4666 
L 2450 4666 
L 2450 531 
L 3481 531 
L 3481 0 
L 794 0 
L 794 531 
z
" transform="scale(0.015625)"/>
      <path id="DejaVuSans-34" d="M 2419 4116 
L 825 1625 
L 2419 1625 
L 2419 4116 
z
M 2253 4666 
L 3047 4666 
L 3047 1625 
L 3713 1625 
L 3713 1100 
L 3047 1100 
L 3047 0 
L 2419 0 
L 2419 1100 
L 313 1100 
L 313 1709 
L 2253 4666 
z
" transform="scale(0.015625)"/>
      <path id="DejaVuSans-3d" d="M 678 2906 
L 4684 2906 
L 4684 2381 
L 678 2381 
L 678 2906 
z
M 678 1631 
L 4684 1631 
L 4684 1100 
L 678 1100 
L 678 1631 
z
" transform="scale(0.015625)"/>
      <path id="DejaVuSans-Oblique-3d5" d="M 2991 4863 
L 2738 3572 
Q 3363 3572 3684 3094 
Q 4016 2606 3850 1747 
Q 3681 888 3159 400 
Q 2653 -78 2028 -78 
L 1784 -1331 
L 1213 -1331 
L 1456 -78 
Q 834 -78 509 400 
Q 178 888 347 1747 
Q 513 2606 1034 3094 
Q 1544 3572 2166 3572 
L 2419 4863 
L 2991 4863 
z
M 2128 434 
Q 2481 434 2784 756 
Q 3116 1116 3244 1747 
Q 3369 2372 3169 2738 
Q 2991 3059 2638 3059 
L 2128 434 
z
M 1556 434 
L 2066 3059 
Q 1716 3059 1413 2738 
Q 1072 2372 953 1747 
Q 834 1116 1028 756 
Q 1203 434 1556 434 
z
" transform="scale(0.015625)"/>
      <path id="DejaVuSans-32" d="M 1228 531 
L 3431 531 
L 3431 0 
L 469 0 
L 469 531 
Q 828 903 1448 1529 
Q 2069 2156 2228 2338 
Q 2531 2678 2651 2914 
Q 2772 3150 2772 3378 
Q 2772 3750 2511 3984 
Q 2250 4219 1831 4219 
Q 1534 4219 1204 4116 
Q 875 4013 500 3803 
L 500 4441 
Q 881 4594 1212 4672 
Q 1544 4750 1819 4750 
Q 2544 4750 2975 4387 
Q 3406 4025 3406 3419 
Q 3406 3131 3298 2873 
Q 3191 2616 2906 2266 
Q 2828 2175 2409 1742 
Q 1991 1309 1228 531 
z
" transform="scale(0.015625)"/>
      <path id="DejaVuSans-2297" d="M 3306 3522 
Q 3016 3644 2681 3644 
Q 2347 3644 2056 3522 
Q 1769 3400 1531 3163 
Q 1291 2922 1172 2634 
Q 1053 2347 1053 2006 
Q 1053 1675 1172 1387 
Q 1291 1100 1531 859 
Q 1769 622 2056 500 
Q 2347 378 2681 378 
Q 3016 378 3306 500 
Q 3594 622 3831 859 
Q 4072 1100 4190 1387 
Q 4309 1675 4309 2006 
Q 4309 2347 4190 2634 
Q 4072 2922 3831 3163 
Q 3594 3400 3306 3522 
z
M 1878 3956 
Q 2250 4113 2681 4113 
Q 3113 4113 3484 3956 
Q 3856 3800 4163 3494 
Q 4472 3184 4625 2813 
Q 4778 2444 4778 2006 
Q 4778 1578 4625 1206 
Q 4472 838 4163 528 
Q 3856 222 3484 65 
Q 3113 -91 2681 -91 
Q 2250 -91 1878 65 
Q 1506 222 1200 528 
Q 891 838 738 1206 
Q 584 1578 584 2006 
Q 584 2444 738 2813 
Q 891 3184 1200 3494 
Q 1506 3800 1878 3956 
z
M 3847 2794 
L 3056 2006 
L 3844 1219 
L 3469 844 
L 2681 1631 
L 1894 841 
L 1516 1219 
L 2306 2006 
L 1519 2794 
L 1894 3169 
L 2681 2381 
L 3469 3172 
L 3847 2794 
z
" transform="scale(0.015625)"/>
      <path id="DejaVuSans-33" d="M 2597 2516 
Q 3050 2419 3304 2112 
Q 3559 1806 3559 1356 
Q 3559 666 3084 287 
Q 2609 -91 1734 -91 
Q 1441 -91 1130 -33 
Q 819 25 488 141 
L 488 750 
Q 750 597 1062 519 
Q 1375 441 1716 441 
Q 2309 441 2620 675 
Q 2931 909 2931 1356 
Q 2931 1769 2642 2001 
Q 2353 2234 1838 2234 
L 1294 2234 
L 1294 2753 
L 1863 2753 
Q 2328 2753 2575 2939 
Q 2822 3125 2822 3475 
Q 2822 3834 2567 4026 
Q 2313 4219 1838 4219 
Q 1578 4219 1281 4162 
Q 984 4106 628 3988 
L 628 4550 
Q 988 4650 1302 4700 
Q 1616 4750 1894 4750 
Q 2613 4750 3031 4423 
Q 3450 4097 3450 3541 
Q 3450 3153 3228 2886 
Q 3006 2619 2597 2516 
z
" transform="scale(0.015625)"/>
     </defs>
     <use xlink:href="#DejaVuSans-Oblique-3c8" transform="translate(0 0.015625)"/>
     <use xlink:href="#DejaVuSans-31" transform="translate(65.966797 -16.390625) scale(0.7)"/>
     <use xlink:href="#DejaVuSans-34" transform="translate(110.50293 -16.390625) scale(0.7)"/>
     <use xlink:href="#DejaVuSans-3d" transform="translate(177.255859 0.015625)"/>
     <use xlink:href="#DejaVuSans-Oblique-3d5" transform="translate(280.527344 0.015625)"/>
     <use xlink:href="#DejaVuSans-31" transform="translate(346.494141 -16.390625) scale(0.7)"/>
     <use xlink:href="#DejaVuSans-32" transform="translate(391.030273 -16.390625) scale(0.7)"/>
     <use xlink:href="#DejaVuSans-2297" transform="translate(457.783203 0.015625)"/>
     <use xlink:href="#DejaVuSans-Oblique-3d5" transform="translate(561.054688 0.015625)"/>
     <use xlink:href="#DejaVuSans-32" transform="translate(627.021484 -16.390625) scale(0.7)"/>
     <use xlink:href="#DejaVuSans-33" transform="translate(671.557617 -16.390625) scale(0.7)"/>
    </g>
   </g>
  </g>
 </g>
 <defs>
  <clipPath id="pe299a9a600">
   <rect x="25.533375" y="20.496" width="167.4" height="166.32"/>
  </clipPath>
 </defs>
</svg>