<?xml version="1.0" encoding="utf-8" standalone="no"?>
<!DOCTYPE svg PUBLIC "-//W3C//DTD SVG 1.1//EN"
  "http://www.w3.org/Graphics/SVG/1.1/DTD/svg11.dtd">
<svg xmlns:xlink="http://www.w3.org/1999/xlink" width="520.972625pt" height="388.7615pt" viewBox="0 0 520.972625 388.7615" xmlns="http://www.w3.org/2000/svg" version="1.1">
 <metadata>
  <rdf:RDF xmlns:dc="http://purl.org/dc/elements/1.1/" xmlns:cc="http://creativecommons.org/ns#" xmlns:rdf="http://www.w3.org/1999/02/22-rdf-syntax-ns#">
   <cc:Work>
    <dc:type rdf:resource="http://purl.org/dc/dcmitype/StillImage"/>
    <dc:date>2024-12-18T19:45:46.760781</dc:date>
    <dc:format>image/svg+xml</dc:format>
    <dc:creator>
     <cc:Agent>
      <dc:title>Matplotlib v3.8.0, https://matplotlib.org/</dc:title>
     </cc:Agent>
    </dc:creator>
   </cc:Work>
  </rdf:RDF>
 </metadata>
 <defs>
  <style type="text/css">*{stroke-linejoin: round; stroke-linecap: butt}</style>
 </defs>
 <g id="figure_1">
  <g id="patch_1">
   <path d="M 0 388.7615 
L 520.972625 388.7615 
L 520.972625 0 
L 0 0 
z
" style="fill: #ffffff"/>
  </g>
  <g id="axes_1">
   <g id="patch_2">
    <path d="M 67.372625 339.84 
L 513.772625 339.84 
L 513.772625 7.2 
L 67.372625 7.2 
z
" style="fill: #ffffff"/>
   </g>
   <g id="matplotlib.axis_1">
    <g id="xtick_1">
     <g id="line2d_1">
      <defs>
       <path id="m4e5158b16b" d="M 0 0 
L 0 4.8 
" style="stroke: #262626"/>
      </defs>
      <g>
       <use xlink:href="#m4e5158b16b" x="87.663534" y="339.84" style="fill: #262626; stroke: #262626"/>
      </g>
     </g>
     <g id="text_1">
      <!-- 0.0 -->
      <g style="fill: #262626" transform="translate(80.666159 354.826625) scale(0.088 -0.088)">
       <defs>
        <path id="DejaVuSans-30" d="M 2034 4250 
Q 1547 4250 1301 3770 
Q 1056 3291 1056 2328 
Q 1056 1369 1301 889 
Q 1547 409 2034 409 
Q 2525 409 2770 889 
Q 3016 1369 3016 2328 
Q 3016 3291 2770 3770 
Q 2525 4250 2034 4250 
z
M 2034 4750 
Q 2819 4750 3233 4129 
Q 3647 3509 3647 2328 
Q 3647 1150 3233 529 
Q 2819 -91 2034 -91 
Q 1250 -91 836 529 
Q 422 1150 422 2328 
Q 422 3509 836 4129 
Q 1250 4750 2034 4750 
z
" transform="scale(0.015625)"/>
        <path id="DejaVuSans-2e" d="M 684 794 
L 1344 794 
L 1344 0 
L 684 0 
L 684 794 
z
" transform="scale(0.015625)"/>
       </defs>
       <use xlink:href="#DejaVuSans-30"/>
       <use xlink:href="#DejaVuSans-2e" x="63.623047"/>
       <use xlink:href="#DejaVuSans-30" x="95.410156"/>
      </g>
     </g>
    </g>
    <g id="xtick_2">
     <g id="line2d_2">
      <g>
       <use xlink:href="#m4e5158b16b" x="168.82717" y="339.84" style="fill: #262626; stroke: #262626"/>
      </g>
     </g>
     <g id="text_2">
      <!-- 0.2 -->
      <g style="fill: #262626" transform="translate(161.829795 354.826625) scale(0.088 -0.088)">
       <defs>
        <path id="DejaVuSans-32" d="M 1228 531 
L 3431 531 
L 3431 0 
L 469 0 
L 469 531 
Q 828 903 1448 1529 
Q 2069 2156 2228 2338 
Q 2531 2678 2651 2914 
Q 2772 3150 2772 3378 
Q 2772 3750 2511 3984 
Q 2250 4219 1831 4219 
Q 1534 4219 1204 4116 
Q 875 4013 500 3803 
L 500 4441 
Q 881 4594 1212 4672 
Q 1544 4750 1819 4750 
Q 2544 4750 2975 4387 
Q 3406 4025 3406 3419 
Q 3406 3131 3298 2873 
Q 3191 2616 2906 2266 
Q 2828 2175 2409 1742 
Q 1991 1309 1228 531 
z
" transform="scale(0.015625)"/>
       </defs>
       <use xlink:href="#DejaVuSans-30"/>
       <use xlink:href="#DejaVuSans-2e" x="63.623047"/>
       <use xlink:href="#DejaVuSans-32" x="95.410156"/>
      </g>
     </g>
    </g>
    <g id="xtick_3">
     <g id="line2d_3">
      <g>
       <use xlink:href="#m4e5158b16b" x="249.990807" y="339.84" style="fill: #262626; stroke: #262626"/>
      </g>
     </g>
     <g id="text_3">
      <!-- 0.4 -->
      <g style="fill: #262626" transform="translate(242.993432 354.826625) scale(0.088 -0.088)">
       <defs>
        <path id="DejaVuSans-34" d="M 2419 4116 
L 825 1625 
L 2419 1625 
L 2419 4116 
z
M 2253 4666 
L 3047 4666 
L 3047 1625 
L 3713 1625 
L 3713 1100 
L 3047 1100 
L 3047 0 
L 2419 0 
L 2419 1100 
L 313 1100 
L 313 1709 
L 2253 4666 
z
" transform="scale(0.015625)"/>
       </defs>
       <use xlink:href="#DejaVuSans-30"/>
       <use xlink:href="#DejaVuSans-2e" x="63.623047"/>
       <use xlink:href="#DejaVuSans-34" x="95.410156"/>
      </g>
     </g>
    </g>
    <g id="xtick_4">
     <g id="line2d_4">
      <g>
       <use xlink:href="#m4e5158b16b" x="331.154443" y="339.84" style="fill: #262626; stroke: #262626"/>
      </g>
     </g>
     <g id="text_4">
      <!-- 0.6 -->
      <g style="fill: #262626" transform="translate(324.157068 354.826625) scale(0.088 -0.088)">
       <defs>
        <path id="DejaVuSans-36" d="M 2113 2584 
Q 1688 2584 1439 2293 
Q 1191 2003 1191 1497 
Q 1191 994 1439 701 
Q 1688 409 2113 409 
Q 2538 409 2786 701 
Q 3034 994 3034 1497 
Q 3034 2003 2786 2293 
Q 2538 2584 2113 2584 
z
M 3366 4563 
L 3366 3988 
Q 3128 4100 2886 4159 
Q 2644 4219 2406 4219 
Q 1781 4219 1451 3797 
Q 1122 3375 1075 2522 
Q 1259 2794 1537 2939 
Q 1816 3084 2150 3084 
Q 2853 3084 3261 2657 
Q 3669 2231 3669 1497 
Q 3669 778 3244 343 
Q 2819 -91 2113 -91 
Q 1303 -91 875 529 
Q 447 1150 447 2328 
Q 447 3434 972 4092 
Q 1497 4750 2381 4750 
Q 2619 4750 2861 4703 
Q 3103 4656 3366 4563 
z
" transform="scale(0.015625)"/>
       </defs>
       <use xlink:href="#DejaVuSans-30"/>
       <use xlink:href="#DejaVuSans-2e" x="63.623047"/>
       <use xlink:href="#DejaVuSans-36" x="95.410156"/>
      </g>
     </g>
    </g>
    <g id="xtick_5">
     <g id="line2d_5">
      <g>
       <use xlink:href="#m4e5158b16b" x="412.31808" y="339.84" style="fill: #262626; stroke: #262626"/>
      </g>
     </g>
     <g id="text_5">
      <!-- 0.8 -->
      <g style="fill: #262626" transform="translate(405.320705 354.826625) scale(0.088 -0.088)">
       <defs>
        <path id="DejaVuSans-38" d="M 2034 2216 
Q 1584 2216 1326 1975 
Q 1069 1734 1069 1313 
Q 1069 891 1326 650 
Q 1584 409 2034 409 
Q 2484 409 2743 651 
Q 3003 894 3003 1313 
Q 3003 1734 2745 1975 
Q 2488 2216 2034 2216 
z
M 1403 2484 
Q 997 2584 770 2862 
Q 544 3141 544 3541 
Q 544 4100 942 4425 
Q 1341 4750 2034 4750 
Q 2731 4750 3128 4425 
Q 3525 4100 3525 3541 
Q 3525 3141 3298 2862 
Q 3072 2584 2669 2484 
Q 3125 2378 3379 2068 
Q 3634 1759 3634 1313 
Q 3634 634 3220 271 
Q 2806 -91 2034 -91 
Q 1263 -91 848 271 
Q 434 634 434 1313 
Q 434 1759 690 2068 
Q 947 2378 1403 2484 
z
M 1172 3481 
Q 1172 3119 1398 2916 
Q 1625 2713 2034 2713 
Q 2441 2713 2670 2916 
Q 2900 3119 2900 3481 
Q 2900 3844 2670 4047 
Q 2441 4250 2034 4250 
Q 1625 4250 1398 4047 
Q 1172 3844 1172 3481 
z
" transform="scale(0.015625)"/>
       </defs>
       <use xlink:href="#DejaVuSans-30"/>
       <use xlink:href="#DejaVuSans-2e" x="63.623047"/>
       <use xlink:href="#DejaVuSans-38" x="95.410156"/>
      </g>
     </g>
    </g>
    <g id="xtick_6">
     <g id="line2d_6">
      <g>
       <use xlink:href="#m4e5158b16b" x="493.481716" y="339.84" style="fill: #262626; stroke: #262626"/>
      </g>
     </g>
     <g id="text_6">
      <!-- 1.0 -->
      <g style="fill: #262626" transform="translate(486.484341 354.826625) scale(0.088 -0.088)">
       <defs>
        <path id="DejaVuSans-31" d="M 794 531 
L 1825 531 
L 1825 4091 
L 703 3866 
L 703 4441 
L 1819 4666 
L 2450 4666 
L 2450 531 
L 3481 531 
L 3481 0 
L 794 0 
L 794 531 
z
" transform="scale(0.015625)"/>
       </defs>
       <use xlink:href="#DejaVuSans-31"/>
       <use xlink:href="#DejaVuSans-2e" x="63.623047"/>
       <use xlink:href="#DejaVuSans-30" x="95.410156"/>
      </g>
     </g>
    </g>
    <g id="text_7">
     <!-- x -->
     <g style="fill: #262626" transform="translate(284.180375 377.069375) scale(0.216 -0.216)">
      <defs>
       <path id="DejaVuSans-78" d="M 3513 3500 
L 2247 1797 
L 3578 0 
L 2900 0 
L 1881 1375 
L 863 0 
L 184 0 
L 1544 1831 
L 300 3500 
L 978 3500 
L 1906 2253 
L 2834 3500 
L 3513 3500 
z
" transform="scale(0.015625)"/>
      </defs>
      <use xlink:href="#DejaVuSans-78"/>
     </g>
    </g>
   </g>
   <g id="matplotlib.axis_2">
    <g id="ytick_1">
     <g id="line2d_7">
      <defs>
       <path id="m452b6147f9" d="M 0 0 
L -4.8 0 
" style="stroke: #000000"/>
      </defs>
      <g>
       <use xlink:href="#m452b6147f9" x="67.372625" y="324.72" style="stroke: #000000"/>
      </g>
     </g>
     <g id="text_8">
      <!-- −1.00 -->
      <g style="fill: #262626" transform="translate(32.10475 328.063313) scale(0.088 -0.088)">
       <defs>
        <path id="DejaVuSans-2212" d="M 678 2272 
L 4684 2272 
L 4684 1741 
L 678 1741 
L 678 2272 
z
" transform="scale(0.015625)"/>
       </defs>
       <use xlink:href="#DejaVuSans-2212"/>
       <use xlink:href="#DejaVuSans-31" x="83.789062"/>
       <use xlink:href="#DejaVuSans-2e" x="147.412109"/>
       <use xlink:href="#DejaVuSans-30" x="179.199219"/>
       <use xlink:href="#DejaVuSans-30" x="242.822266"/>
      </g>
     </g>
    </g>
    <g id="ytick_2">
     <g id="line2d_8">
      <g>
       <use xlink:href="#m452b6147f9" x="67.372625" y="286.910482" style="stroke: #000000"/>
      </g>
     </g>
     <g id="text_9">
      <!-- −0.75 -->
      <g style="fill: #262626" transform="translate(32.10475 290.253795) scale(0.088 -0.088)">
       <defs>
        <path id="DejaVuSans-37" d="M 525 4666 
L 3525 4666 
L 3525 4397 
L 1831 0 
L 1172 0 
L 2766 4134 
L 525 4134 
L 525 4666 
z
" transform="scale(0.015625)"/>
        <path id="DejaVuSans-35" d="M 691 4666 
L 3169 4666 
L 3169 4134 
L 1269 4134 
L 1269 2991 
Q 1406 3038 1543 3061 
Q 1681 3084 1819 3084 
Q 2600 3084 3056 2656 
Q 3513 2228 3513 1497 
Q 3513 744 3044 326 
Q 2575 -91 1722 -91 
Q 1428 -91 1123 -41 
Q 819 9 494 109 
L 494 744 
Q 775 591 1075 516 
Q 1375 441 1709 441 
Q 2250 441 2565 725 
Q 2881 1009 2881 1497 
Q 2881 1984 2565 2268 
Q 2250 2553 1709 2553 
Q 1456 2553 1204 2497 
Q 953 2441 691 2322 
L 691 4666 
z
" transform="scale(0.015625)"/>
       </defs>
       <use xlink:href="#DejaVuSans-2212"/>
       <use xlink:href="#DejaVuSans-30" x="83.789062"/>
       <use xlink:href="#DejaVuSans-2e" x="147.412109"/>
       <use xlink:href="#DejaVuSans-37" x="179.199219"/>
       <use xlink:href="#DejaVuSans-35" x="242.822266"/>
      </g>
     </g>
    </g>
    <g id="ytick_3">
     <g id="line2d_9">
      <g>
       <use xlink:href="#m452b6147f9" x="67.372625" y="249.100965" style="stroke: #000000"/>
      </g>
     </g>
     <g id="text_10">
      <!-- −0.50 -->
      <g style="fill: #262626" transform="translate(32.10475 252.444277) scale(0.088 -0.088)">
       <use xlink:href="#DejaVuSans-2212"/>
       <use xlink:href="#DejaVuSans-30" x="83.789062"/>
       <use xlink:href="#DejaVuSans-2e" x="147.412109"/>
       <use xlink:href="#DejaVuSans-35" x="179.199219"/>
       <use xlink:href="#DejaVuSans-30" x="242.822266"/>
      </g>
     </g>
    </g>
    <g id="ytick_4">
     <g id="line2d_10">
      <g>
       <use xlink:href="#m452b6147f9" x="67.372625" y="211.291447" style="stroke: #000000"/>
      </g>
     </g>
     <g id="text_11">
      <!-- −0.25 -->
      <g style="fill: #262626" transform="translate(32.10475 214.634759) scale(0.088 -0.088)">
       <use xlink:href="#DejaVuSans-2212"/>
       <use xlink:href="#DejaVuSans-30" x="83.789062"/>
       <use xlink:href="#DejaVuSans-2e" x="147.412109"/>
       <use xlink:href="#DejaVuSans-32" x="179.199219"/>
       <use xlink:href="#DejaVuSans-35" x="242.822266"/>
      </g>
     </g>
    </g>
    <g id="ytick_5">
     <g id="line2d_11">
      <g>
       <use xlink:href="#m452b6147f9" x="67.372625" y="173.481929" style="stroke: #000000"/>
      </g>
     </g>
     <g id="text_12">
      <!-- 0.00 -->
      <g style="fill: #262626" transform="translate(39.478875 176.825242) scale(0.088 -0.088)">
       <use xlink:href="#DejaVuSans-30"/>
       <use xlink:href="#DejaVuSans-2e" x="63.623047"/>
       <use xlink:href="#DejaVuSans-30" x="95.410156"/>
       <use xlink:href="#DejaVuSans-30" x="159.033203"/>
      </g>
     </g>
    </g>
    <g id="ytick_6">
     <g id="line2d_12">
      <g>
       <use xlink:href="#m452b6147f9" x="67.372625" y="135.672411" style="stroke: #000000"/>
      </g>
     </g>
     <g id="text_13">
      <!-- 0.25 -->
      <g style="fill: #262626" transform="translate(39.478875 139.015724) scale(0.088 -0.088)">
       <use xlink:href="#DejaVuSans-30"/>
       <use xlink:href="#DejaVuSans-2e" x="63.623047"/>
       <use xlink:href="#DejaVuSans-32" x="95.410156"/>
       <use xlink:href="#DejaVuSans-35" x="159.033203"/>
      </g>
     </g>
    </g>
    <g id="ytick_7">
     <g id="line2d_13">
      <g>
       <use xlink:href="#m452b6147f9" x="67.372625" y="97.862894" style="stroke: #000000"/>
      </g>
     </g>
     <g id="text_14">
      <!-- 0.50 -->
      <g style="fill: #262626" transform="translate(39.478875 101.206206) scale(0.088 -0.088)">
       <use xlink:href="#DejaVuSans-30"/>
       <use xlink:href="#DejaVuSans-2e" x="63.623047"/>
       <use xlink:href="#DejaVuSans-35" x="95.410156"/>
       <use xlink:href="#DejaVuSans-30" x="159.033203"/>
      </g>
     </g>
    </g>
    <g id="ytick_8">
     <g id="line2d_14">
      <g>
       <use xlink:href="#m452b6147f9" x="67.372625" y="60.053376" style="stroke: #000000"/>
      </g>
     </g>
     <g id="text_15">
      <!-- 0.75 -->
      <g style="fill: #262626" transform="translate(39.478875 63.396688) scale(0.088 -0.088)">
       <use xlink:href="#DejaVuSans-30"/>
       <use xlink:href="#DejaVuSans-2e" x="63.623047"/>
       <use xlink:href="#DejaVuSans-37" x="95.410156"/>
       <use xlink:href="#DejaVuSans-35" x="159.033203"/>
      </g>
     </g>
    </g>
    <g id="ytick_9">
     <g id="line2d_15">
      <g>
       <use xlink:href="#m452b6147f9" x="67.372625" y="22.243858" style="stroke: #000000"/>
      </g>
     </g>
     <g id="text_16">
      <!-- 1.00 -->
      <g style="fill: #262626" transform="translate(39.478875 25.587171) scale(0.088 -0.088)">
       <use xlink:href="#DejaVuSans-31"/>
       <use xlink:href="#DejaVuSans-2e" x="63.623047"/>
       <use xlink:href="#DejaVuSans-30" x="95.410156"/>
       <use xlink:href="#DejaVuSans-30" x="159.033203"/>
      </g>
     </g>
    </g>
    <g id="text_17">
     <!-- u -->
     <g style="fill: #262626" transform="translate(23.612625 180.3645) rotate(-90) scale(0.216 -0.216)">
      <defs>
       <path id="DejaVuSans-75" d="M 544 1381 
L 544 3500 
L 1119 3500 
L 1119 1403 
Q 1119 906 1312 657 
Q 1506 409 1894 409 
Q 2359 409 2629 706 
Q 2900 1003 2900 1516 
L 2900 3500 
L 3475 3500 
L 3475 0 
L 2900 0 
L 2900 538 
Q 2691 219 2414 64 
Q 2138 -91 1772 -91 
Q 1169 -91 856 284 
Q 544 659 544 1381 
z
M 1991 3584 
L 1991 3584 
z
" transform="scale(0.015625)"/>
      </defs>
      <use xlink:href="#DejaVuSans-75"/>
     </g>
    </g>
   </g>
   <g id="line2d_16">
    <path d="M 87.663534 324.72 
L 91.762708 324.415509 
L 95.861881 323.503261 
L 99.961055 321.986931 
L 104.060228 319.872623 
L 108.159402 317.168852 
L 112.258575 313.886504 
L 116.357749 310.038797 
L 120.456923 305.641223 
L 124.556096 300.711491 
L 128.65527 295.269449 
L 132.754443 289.337013 
L 136.853617 282.938069 
L 140.95279 276.098384 
L 145.051964 268.845498 
L 149.151137 261.208617 
L 153.250311 253.218492 
L 157.349485 244.907295 
L 161.448658 236.308494 
L 165.547832 227.456713 
L 169.647005 218.387594 
L 173.746179 209.137656 
L 177.845352 199.744144 
L 181.944526 190.244885 
L 186.043699 180.678126 
L 190.142873 171.082391 
L 194.242046 161.496318 
L 198.34122 151.958507 
L 202.440394 142.507364 
L 206.539567 133.180943 
L 210.638741 124.016801 
L 214.737914 115.051837 
L 218.837088 106.322151 
L 222.936261 97.862894 
L 227.035435 89.708127 
L 231.134608 81.890688 
L 235.233782 74.442055 
L 239.332956 67.39222 
L 243.432129 60.769571 
L 247.531303 54.600775 
L 251.630476 48.910672 
L 255.72965 43.722173 
L 259.828823 39.05617 
L 263.927997 34.931453 
L 268.02717 31.36463 
L 272.126344 28.370063 
L 276.225518 25.95981 
L 280.324691 24.143576 
L 284.423865 22.928676 
L 288.523038 22.32 
L 292.622212 22.32 
L 296.721385 22.928676 
L 300.820559 24.143576 
L 304.919732 25.95981 
L 309.018906 28.370063 
L 313.11808 31.36463 
L 317.217253 34.931453 
L 321.316427 39.05617 
L 325.4156 43.722173 
L 329.514774 48.910672 
L 333.613947 54.600775 
L 337.713121 60.769571 
L 341.812294 67.39222 
L 345.911468 74.442055 
L 350.010642 81.890688 
L 354.109815 89.708127 
L 358.208989 97.862894 
L 362.308162 106.322151 
L 366.407336 115.051837 
L 370.506509 124.016801 
L 374.605683 133.180943 
L 378.704856 142.507364 
L 382.80403 151.958507 
L 386.903204 161.496318 
L 391.002377 171.082391 
L 395.101551 180.678126 
L 399.200724 190.244885 
L 403.299898 199.744144 
L 407.399071 209.137656 
L 411.498245 218.387594 
L 415.597418 227.456713 
L 419.696592 236.308494 
L 423.795765 244.907295 
L 427.894939 253.218492 
L 431.994113 261.208617 
L 436.093286 268.845498 
L 440.19246 276.098384 
L 444.291633 282.938069 
L 448.390807 289.337013 
L 452.48998 295.269449 
L 456.589154 300.711491 
L 460.688327 305.641223 
L 464.787501 310.038797 
L 468.886675 313.886504 
L 472.985848 317.168852 
L 477.085022 319.872623 
L 481.184195 321.986931 
L 485.283369 323.503261 
L 489.382542 324.415509 
L 493.481716 324.72 
" clip-path="url(#pc8853c9275)" style="fill: none; stroke-dasharray: 5.55,2.4; stroke-dashoffset: 0; stroke: #000000; stroke-width: 1.5"/>
   </g>
   <g id="line2d_17">
    <path d="M 89.948961 174.315452 
L 90.143121 174.388192 
L 92.2433 175.173866 
L 96.542086 176.773352 
L 99.114066 177.722815 
L 99.439531 177.842476 
L 104.862948 179.817076 
L 107.256153 180.674788 
L 107.386514 180.721234 
L 107.825363 180.877375 
L 108.519198 181.123539 
L 112.220354 182.421139 
L 118.689864 184.616897 
L 119.405021 184.853216 
L 119.766129 184.972018 
L 120.742696 185.291507 
L 130.114203 188.21055 
L 131.577785 188.640014 
L 134.70603 189.531545 
L 144.066169 191.96559 
L 151.767065 193.677938 
L 151.778177 193.680206 
L 176.320336 197.122583 
L 177.602778 197.211902 
L 177.711032 197.219015 
L 182.875967 197.480817 
L 187.307292 197.583647 
L 188.14234 197.59038 
L 192.130869 197.567158 
L 193.553267 197.536732 
L 198.26281 197.353126 
L 213.833286 195.85481 
L 221.695107 194.597942 
L 224.824609 194.009256 
L 230.797367 192.752792 
L 233.575443 192.111341 
L 241.044907 190.21859 
L 243.778077 189.468452 
L 244.339174 189.310853 
L 245.908936 188.863608 
L 248.901685 187.985881 
L 249.54937 187.791743 
L 253.745731 186.499784 
L 255.494668 185.944716 
L 256.295517 185.687459 
L 256.309278 185.683022 
L 264.041437 183.107995 
L 265.397043 182.641193 
L 266.249926 182.345413 
L 286.480694 174.991993 
L 287.26506 174.699112 
L 287.96399 174.437977 
L 288.828885 174.114679 
L 294.423226 172.023241 
L 298.62506 170.458667 
L 299.36277 170.185107 
L 300.459677 169.779155 
L 304.931831 168.136357 
L 316.535532 164.012714 
L 316.874355 163.896268 
L 319.117065 163.132313 
L 324.219425 161.442251 
L 331.29811 159.224264 
L 338.504344 157.142319 
L 355.729695 153.032328 
L 357.288972 152.728015 
L 359.049337 152.398993 
L 371.972257 150.476782 
L 373.629217 150.295449 
L 377.845841 149.903008 
L 380.735704 149.691928 
L 386.978978 149.398728 
L 391.163047 149.327847 
L 396.090232 149.374148 
L 406.861191 149.961743 
L 414.695191 150.800649 
L 417.802723 151.226671 
L 420.111822 151.576696 
L 420.619626 151.657449 
L 420.942472 151.709492 
L 421.872058 151.862382 
L 423.5997 152.158421 
L 426.247786 152.641774 
L 427.737376 152.929144 
L 433.340326 154.106768 
L 439.55018 155.581876 
L 445.925011 157.267668 
L 446.880556 157.53431 
L 448.129767 157.888114 
L 449.74287 158.353517 
L 450.270607 158.507819 
L 451.053877 158.738656 
L 453.255604 159.398893 
L 463.378127 162.629463 
L 464.830011 163.116118 
L 465.752953 163.428157 
L 475.224069 166.735312 
L 475.888469 166.973529 
L 484.795202 170.225309 
L 489.395487 171.9369 
" clip-path="url(#pc8853c9275)" style="fill: none; stroke: #1f77b4; stroke-width: 1.5; stroke-linecap: round"/>
    <defs>
     <path id="m58189f1d5a" d="M 0 2.4 
C 0.636487 2.4 1.246992 2.147121 1.697056 1.697056 
C 2.147121 1.246992 2.4 0.636487 2.4 0 
C 2.4 -0.636487 2.147121 -1.246992 1.697056 -1.697056 
C 1.246992 -2.147121 0.636487 -2.4 0 -2.4 
C -0.636487 -2.4 -1.246992 -2.147121 -1.697056 -1.697056 
C -2.147121 -1.246992 -2.4 -0.636487 -2.4 0 
C -2.4 0.636487 -2.147121 1.246992 -1.697056 1.697056 
C -1.246992 2.147121 -0.636487 2.4 0 2.4 
z
" style="stroke: #1f77b4"/>
    </defs>
    <g clip-path="url(#pc8853c9275)">
     <use xlink:href="#m58189f1d5a" x="89.948961" y="174.315452" style="fill: #1f77b4; stroke: #1f77b4"/>
     <use xlink:href="#m58189f1d5a" x="90.143121" y="174.388192" style="fill: #1f77b4; stroke: #1f77b4"/>
     <use xlink:href="#m58189f1d5a" x="92.2433" y="175.173866" style="fill: #1f77b4; stroke: #1f77b4"/>
     <use xlink:href="#m58189f1d5a" x="96.542086" y="176.773352" style="fill: #1f77b4; stroke: #1f77b4"/>
     <use xlink:href="#m58189f1d5a" x="99.114066" y="177.722815" style="fill: #1f77b4; stroke: #1f77b4"/>
     <use xlink:href="#m58189f1d5a" x="99.439531" y="177.842476" style="fill: #1f77b4; stroke: #1f77b4"/>
     <use xlink:href="#m58189f1d5a" x="104.862948" y="179.817076" style="fill: #1f77b4; stroke: #1f77b4"/>
     <use xlink:href="#m58189f1d5a" x="107.256153" y="180.674788" style="fill: #1f77b4; stroke: #1f77b4"/>
     <use xlink:href="#m58189f1d5a" x="107.386514" y="180.721234" style="fill: #1f77b4; stroke: #1f77b4"/>
     <use xlink:href="#m58189f1d5a" x="107.825363" y="180.877375" style="fill: #1f77b4; stroke: #1f77b4"/>
     <use xlink:href="#m58189f1d5a" x="108.519198" y="181.123539" style="fill: #1f77b4; stroke: #1f77b4"/>
     <use xlink:href="#m58189f1d5a" x="112.220354" y="182.421139" style="fill: #1f77b4; stroke: #1f77b4"/>
     <use xlink:href="#m58189f1d5a" x="118.689864" y="184.616897" style="fill: #1f77b4; stroke: #1f77b4"/>
     <use xlink:href="#m58189f1d5a" x="119.405021" y="184.853216" style="fill: #1f77b4; stroke: #1f77b4"/>
     <use xlink:href="#m58189f1d5a" x="119.766129" y="184.972018" style="fill: #1f77b4; stroke: #1f77b4"/>
     <use xlink:href="#m58189f1d5a" x="120.742696" y="185.291507" style="fill: #1f77b4; stroke: #1f77b4"/>
     <use xlink:href="#m58189f1d5a" x="130.114203" y="188.21055" style="fill: #1f77b4; stroke: #1f77b4"/>
     <use xlink:href="#m58189f1d5a" x="131.577785" y="188.640014" style="fill: #1f77b4; stroke: #1f77b4"/>
     <use xlink:href="#m58189f1d5a" x="134.70603" y="189.531545" style="fill: #1f77b4; stroke: #1f77b4"/>
     <use xlink:href="#m58189f1d5a" x="144.066169" y="191.96559" style="fill: #1f77b4; stroke: #1f77b4"/>
     <use xlink:href="#m58189f1d5a" x="151.767065" y="193.677938" style="fill: #1f77b4; stroke: #1f77b4"/>
     <use xlink:href="#m58189f1d5a" x="151.778177" y="193.680206" style="fill: #1f77b4; stroke: #1f77b4"/>
     <use xlink:href="#m58189f1d5a" x="176.320336" y="197.122583" style="fill: #1f77b4; stroke: #1f77b4"/>
     <use xlink:href="#m58189f1d5a" x="177.602778" y="197.211902" style="fill: #1f77b4; stroke: #1f77b4"/>
     <use xlink:href="#m58189f1d5a" x="177.711032" y="197.219015" style="fill: #1f77b4; stroke: #1f77b4"/>
     <use xlink:href="#m58189f1d5a" x="182.875967" y="197.480817" style="fill: #1f77b4; stroke: #1f77b4"/>
     <use xlink:href="#m58189f1d5a" x="187.307292" y="197.583647" style="fill: #1f77b4; stroke: #1f77b4"/>
     <use xlink:href="#m58189f1d5a" x="188.14234" y="197.59038" style="fill: #1f77b4; stroke: #1f77b4"/>
     <use xlink:href="#m58189f1d5a" x="192.130869" y="197.567158" style="fill: #1f77b4; stroke: #1f77b4"/>
     <use xlink:href="#m58189f1d5a" x="193.553267" y="197.536732" style="fill: #1f77b4; stroke: #1f77b4"/>
     <use xlink:href="#m58189f1d5a" x="198.26281" y="197.353126" style="fill: #1f77b4; stroke: #1f77b4"/>
     <use xlink:href="#m58189f1d5a" x="213.833286" y="195.85481" style="fill: #1f77b4; stroke: #1f77b4"/>
     <use xlink:href="#m58189f1d5a" x="221.695107" y="194.597942" style="fill: #1f77b4; stroke: #1f77b4"/>
     <use xlink:href="#m58189f1d5a" x="224.824609" y="194.009256" style="fill: #1f77b4; stroke: #1f77b4"/>
     <use xlink:href="#m58189f1d5a" x="230.797367" y="192.752792" style="fill: #1f77b4; stroke: #1f77b4"/>
     <use xlink:href="#m58189f1d5a" x="233.575443" y="192.111341" style="fill: #1f77b4; stroke: #1f77b4"/>
     <use xlink:href="#m58189f1d5a" x="241.044907" y="190.21859" style="fill: #1f77b4; stroke: #1f77b4"/>
     <use xlink:href="#m58189f1d5a" x="243.778077" y="189.468452" style="fill: #1f77b4; stroke: #1f77b4"/>
     <use xlink:href="#m58189f1d5a" x="244.339174" y="189.310853" style="fill: #1f77b4; stroke: #1f77b4"/>
     <use xlink:href="#m58189f1d5a" x="245.908936" y="188.863608" style="fill: #1f77b4; stroke: #1f77b4"/>
     <use xlink:href="#m58189f1d5a" x="248.901685" y="187.985881" style="fill: #1f77b4; stroke: #1f77b4"/>
     <use xlink:href="#m58189f1d5a" x="249.54937" y="187.791743" style="fill: #1f77b4; stroke: #1f77b4"/>
     <use xlink:href="#m58189f1d5a" x="253.745731" y="186.499784" style="fill: #1f77b4; stroke: #1f77b4"/>
     <use xlink:href="#m58189f1d5a" x="255.494668" y="185.944716" style="fill: #1f77b4; stroke: #1f77b4"/>
     <use xlink:href="#m58189f1d5a" x="256.295517" y="185.687459" style="fill: #1f77b4; stroke: #1f77b4"/>
     <use xlink:href="#m58189f1d5a" x="256.309278" y="185.683022" style="fill: #1f77b4; stroke: #1f77b4"/>
     <use xlink:href="#m58189f1d5a" x="264.041437" y="183.107995" style="fill: #1f77b4; stroke: #1f77b4"/>
     <use xlink:href="#m58189f1d5a" x="265.397043" y="182.641193" style="fill: #1f77b4; stroke: #1f77b4"/>
     <use xlink:href="#m58189f1d5a" x="266.249926" y="182.345413" style="fill: #1f77b4; stroke: #1f77b4"/>
     <use xlink:href="#m58189f1d5a" x="286.480694" y="174.991993" style="fill: #1f77b4; stroke: #1f77b4"/>
     <use xlink:href="#m58189f1d5a" x="287.26506" y="174.699112" style="fill: #1f77b4; stroke: #1f77b4"/>
     <use xlink:href="#m58189f1d5a" x="287.96399" y="174.437977" style="fill: #1f77b4; stroke: #1f77b4"/>
     <use xlink:href="#m58189f1d5a" x="288.828885" y="174.114679" style="fill: #1f77b4; stroke: #1f77b4"/>
     <use xlink:href="#m58189f1d5a" x="294.423226" y="172.023241" style="fill: #1f77b4; stroke: #1f77b4"/>
     <use xlink:href="#m58189f1d5a" x="298.62506" y="170.458667" style="fill: #1f77b4; stroke: #1f77b4"/>
     <use xlink:href="#m58189f1d5a" x="299.36277" y="170.185107" style="fill: #1f77b4; stroke: #1f77b4"/>
     <use xlink:href="#m58189f1d5a" x="300.459677" y="169.779155" style="fill: #1f77b4; stroke: #1f77b4"/>
     <use xlink:href="#m58189f1d5a" x="304.931831" y="168.136357" style="fill: #1f77b4; stroke: #1f77b4"/>
     <use xlink:href="#m58189f1d5a" x="316.535532" y="164.012714" style="fill: #1f77b4; stroke: #1f77b4"/>
     <use xlink:href="#m58189f1d5a" x="316.874355" y="163.896268" style="fill: #1f77b4; stroke: #1f77b4"/>
     <use xlink:href="#m58189f1d5a" x="319.117065" y="163.132313" style="fill: #1f77b4; stroke: #1f77b4"/>
     <use xlink:href="#m58189f1d5a" x="324.219425" y="161.442251" style="fill: #1f77b4; stroke: #1f77b4"/>
     <use xlink:href="#m58189f1d5a" x="331.29811" y="159.224264" style="fill: #1f77b4; stroke: #1f77b4"/>
     <use xlink:href="#m58189f1d5a" x="338.504344" y="157.142319" style="fill: #1f77b4; stroke: #1f77b4"/>
     <use xlink:href="#m58189f1d5a" x="355.729695" y="153.032328" style="fill: #1f77b4; stroke: #1f77b4"/>
     <use xlink:href="#m58189f1d5a" x="357.288972" y="152.728015" style="fill: #1f77b4; stroke: #1f77b4"/>
     <use xlink:href="#m58189f1d5a" x="359.049337" y="152.398993" style="fill: #1f77b4; stroke: #1f77b4"/>
     <use xlink:href="#m58189f1d5a" x="371.972257" y="150.476782" style="fill: #1f77b4; stroke: #1f77b4"/>
     <use xlink:href="#m58189f1d5a" x="373.629217" y="150.295449" style="fill: #1f77b4; stroke: #1f77b4"/>
     <use xlink:href="#m58189f1d5a" x="377.845841" y="149.903008" style="fill: #1f77b4; stroke: #1f77b4"/>
     <use xlink:href="#m58189f1d5a" x="380.735704" y="149.691928" style="fill: #1f77b4; stroke: #1f77b4"/>
     <use xlink:href="#m58189f1d5a" x="386.978978" y="149.398728" style="fill: #1f77b4; stroke: #1f77b4"/>
     <use xlink:href="#m58189f1d5a" x="391.163047" y="149.327847" style="fill: #1f77b4; stroke: #1f77b4"/>
     <use xlink:href="#m58189f1d5a" x="396.090232" y="149.374148" style="fill: #1f77b4; stroke: #1f77b4"/>
     <use xlink:href="#m58189f1d5a" x="406.861191" y="149.961743" style="fill: #1f77b4; stroke: #1f77b4"/>
     <use xlink:href="#m58189f1d5a" x="414.695191" y="150.800649" style="fill: #1f77b4; stroke: #1f77b4"/>
     <use xlink:href="#m58189f1d5a" x="417.802723" y="151.226671" style="fill: #1f77b4; stroke: #1f77b4"/>
     <use xlink:href="#m58189f1d5a" x="420.111822" y="151.576696" style="fill: #1f77b4; stroke: #1f77b4"/>
     <use xlink:href="#m58189f1d5a" x="420.619626" y="151.657449" style="fill: #1f77b4; stroke: #1f77b4"/>
     <use xlink:href="#m58189f1d5a" x="420.942472" y="151.709492" style="fill: #1f77b4; stroke: #1f77b4"/>
     <use xlink:href="#m58189f1d5a" x="421.872058" y="151.862382" style="fill: #1f77b4; stroke: #1f77b4"/>
     <use xlink:href="#m58189f1d5a" x="423.5997" y="152.158421" style="fill: #1f77b4; stroke: #1f77b4"/>
     <use xlink:href="#m58189f1d5a" x="426.247786" y="152.641774" style="fill: #1f77b4; stroke: #1f77b4"/>
     <use xlink:href="#m58189f1d5a" x="427.737376" y="152.929144" style="fill: #1f77b4; stroke: #1f77b4"/>
     <use xlink:href="#m58189f1d5a" x="433.340326" y="154.106768" style="fill: #1f77b4; stroke: #1f77b4"/>
     <use xlink:href="#m58189f1d5a" x="439.55018" y="155.581876" style="fill: #1f77b4; stroke: #1f77b4"/>
     <use xlink:href="#m58189f1d5a" x="445.925011" y="157.267668" style="fill: #1f77b4; stroke: #1f77b4"/>
     <use xlink:href="#m58189f1d5a" x="446.880556" y="157.53431" style="fill: #1f77b4; stroke: #1f77b4"/>
     <use xlink:href="#m58189f1d5a" x="448.129767" y="157.888114" style="fill: #1f77b4; stroke: #1f77b4"/>
     <use xlink:href="#m58189f1d5a" x="449.74287" y="158.353517" style="fill: #1f77b4; stroke: #1f77b4"/>
     <use xlink:href="#m58189f1d5a" x="450.270607" y="158.507819" style="fill: #1f77b4; stroke: #1f77b4"/>
     <use xlink:href="#m58189f1d5a" x="451.053877" y="158.738656" style="fill: #1f77b4; stroke: #1f77b4"/>
     <use xlink:href="#m58189f1d5a" x="453.255604" y="159.398893" style="fill: #1f77b4; stroke: #1f77b4"/>
     <use xlink:href="#m58189f1d5a" x="463.378127" y="162.629463" style="fill: #1f77b4; stroke: #1f77b4"/>
     <use xlink:href="#m58189f1d5a" x="464.830011" y="163.116118" style="fill: #1f77b4; stroke: #1f77b4"/>
     <use xlink:href="#m58189f1d5a" x="465.752953" y="163.428157" style="fill: #1f77b4; stroke: #1f77b4"/>
     <use xlink:href="#m58189f1d5a" x="475.224069" y="166.735312" style="fill: #1f77b4; stroke: #1f77b4"/>
     <use xlink:href="#m58189f1d5a" x="475.888469" y="166.973529" style="fill: #1f77b4; stroke: #1f77b4"/>
     <use xlink:href="#m58189f1d5a" x="484.795202" y="170.225309" style="fill: #1f77b4; stroke: #1f77b4"/>
     <use xlink:href="#m58189f1d5a" x="489.395487" y="171.9369" style="fill: #1f77b4; stroke: #1f77b4"/>
    </g>
   </g>
   <g id="patch_3">
    <path d="M 67.372625 339.84 
L 67.372625 7.2 
" style="fill: none; stroke: #262626; stroke-linejoin: miter; stroke-linecap: square"/>
   </g>
   <g id="patch_4">
    <path d="M 513.772625 339.84 
L 513.772625 7.2 
" style="fill: none; stroke: #262626; stroke-linejoin: miter; stroke-linecap: square"/>
   </g>
   <g id="patch_5">
    <path d="M 67.372625 339.84 
L 513.772625 339.84 
" style="fill: none; stroke: #262626; stroke-linejoin: miter; stroke-linecap: square"/>
   </g>
   <g id="patch_6">
    <path d="M 67.372625 7.2 
L 513.772625 7.2 
" style="fill: none; stroke: #262626; stroke-linejoin: miter; stroke-linecap: square"/>
   </g>
   <g id="legend_1">
    <g id="patch_7">
     <path d="M 375.788625 335.44 
L 507.612625 335.44 
Q 509.372625 335.44 509.372625 333.68 
L 509.372625 305.01125 
Q 509.372625 303.25125 507.612625 303.25125 
L 375.788625 303.25125 
Q 374.028625 303.25125 374.028625 305.01125 
L 374.028625 333.68 
Q 374.028625 335.44 375.788625 335.44 
z
" style="fill: #ffffff; opacity: 0.8; stroke: #cccccc; stroke-width: 0.8; stroke-linejoin: miter"/>
    </g>
    <g id="line2d_18">
     <path d="M 377.548625 310.377875 
L 386.348625 310.377875 
L 395.148625 310.377875 
" style="fill: none; stroke-dasharray: 5.55,2.4; stroke-dashoffset: 0; stroke: #000000; stroke-width: 1.5"/>
    </g>
    <g id="text_18">
     <!-- $u(x)=ds/dx$ -->
     <g style="fill: #262626" transform="translate(402.188625 313.457875) scale(0.088 -0.088)">
      <defs>
       <path id="DejaVuSans-Oblique-75" d="M 428 1388 
L 838 3500 
L 1416 3500 
L 1006 1409 
Q 975 1256 961 1147 
Q 947 1038 947 966 
Q 947 700 1109 554 
Q 1272 409 1569 409 
Q 2031 409 2368 721 
Q 2706 1034 2809 1563 
L 3194 3500 
L 3769 3500 
L 3091 0 
L 2516 0 
L 2631 550 
Q 2388 244 2052 76 
Q 1716 -91 1338 -91 
Q 878 -91 622 161 
Q 366 413 366 863 
Q 366 956 381 1097 
Q 397 1238 428 1388 
z
" transform="scale(0.015625)"/>
       <path id="DejaVuSans-28" d="M 1984 4856 
Q 1566 4138 1362 3434 
Q 1159 2731 1159 2009 
Q 1159 1288 1364 580 
Q 1569 -128 1984 -844 
L 1484 -844 
Q 1016 -109 783 600 
Q 550 1309 550 2009 
Q 550 2706 781 3412 
Q 1013 4119 1484 4856 
L 1984 4856 
z
" transform="scale(0.015625)"/>
       <path id="DejaVuSans-Oblique-78" d="M 3841 3500 
L 2234 1784 
L 3219 0 
L 2559 0 
L 1819 1388 
L 531 0 
L -166 0 
L 1556 1844 
L 641 3500 
L 1300 3500 
L 1972 2234 
L 3144 3500 
L 3841 3500 
z
" transform="scale(0.015625)"/>
       <path id="DejaVuSans-29" d="M 513 4856 
L 1013 4856 
Q 1481 4119 1714 3412 
Q 1947 2706 1947 2009 
Q 1947 1309 1714 600 
Q 1481 -109 1013 -844 
L 513 -844 
Q 928 -128 1133 580 
Q 1338 1288 1338 2009 
Q 1338 2731 1133 3434 
Q 928 4138 513 4856 
z
" transform="scale(0.015625)"/>
       <path id="DejaVuSans-3d" d="M 678 2906 
L 4684 2906 
L 4684 2381 
L 678 2381 
L 678 2906 
z
M 678 1631 
L 4684 1631 
L 4684 1100 
L 678 1100 
L 678 1631 
z
" transform="scale(0.015625)"/>
       <path id="DejaVuSans-Oblique-64" d="M 2675 525 
Q 2444 222 2128 65 
Q 1813 -91 1428 -91 
Q 903 -91 598 267 
Q 294 625 294 1247 
Q 294 1766 478 2236 
Q 663 2706 1013 3078 
Q 1244 3325 1534 3454 
Q 1825 3584 2144 3584 
Q 2481 3584 2739 3421 
Q 2997 3259 3138 2956 
L 3513 4863 
L 4091 4863 
L 3144 0 
L 2566 0 
L 2675 525 
z
M 891 1350 
Q 891 897 1095 644 
Q 1300 391 1663 391 
Q 1931 391 2161 520 
Q 2391 650 2566 903 
Q 2750 1166 2856 1509 
Q 2963 1853 2963 2188 
Q 2963 2622 2758 2865 
Q 2553 3109 2194 3109 
Q 1922 3109 1687 2981 
Q 1453 2853 1288 2613 
Q 1106 2353 998 2009 
Q 891 1666 891 1350 
z
" transform="scale(0.015625)"/>
       <path id="DejaVuSans-Oblique-73" d="M 3200 3397 
L 3091 2853 
Q 2863 2978 2609 3040 
Q 2356 3103 2088 3103 
Q 1634 3103 1373 2948 
Q 1113 2794 1113 2528 
Q 1113 2219 1719 2053 
Q 1766 2041 1788 2034 
L 1972 1978 
Q 2547 1819 2739 1644 
Q 2931 1469 2931 1166 
Q 2931 609 2489 259 
Q 2047 -91 1331 -91 
Q 1053 -91 747 -37 
Q 441 16 72 128 
L 184 722 
Q 500 559 806 475 
Q 1113 391 1394 391 
Q 1816 391 2080 572 
Q 2344 753 2344 1031 
Q 2344 1331 1650 1516 
L 1591 1531 
L 1394 1581 
Q 956 1697 753 1886 
Q 550 2075 550 2369 
Q 550 2928 970 3256 
Q 1391 3584 2113 3584 
Q 2397 3584 2667 3537 
Q 2938 3491 3200 3397 
z
" transform="scale(0.015625)"/>
       <path id="DejaVuSans-2f" d="M 1625 4666 
L 2156 4666 
L 531 -594 
L 0 -594 
L 1625 4666 
z
" transform="scale(0.015625)"/>
      </defs>
      <use xlink:href="#DejaVuSans-Oblique-75" transform="translate(0 0.015625)"/>
      <use xlink:href="#DejaVuSans-28" transform="translate(63.378906 0.015625)"/>
      <use xlink:href="#DejaVuSans-Oblique-78" transform="translate(102.392578 0.015625)"/>
      <use xlink:href="#DejaVuSans-29" transform="translate(161.572266 0.015625)"/>
      <use xlink:href="#DejaVuSans-3d" transform="translate(220.068359 0.015625)"/>
      <use xlink:href="#DejaVuSans-Oblique-64" transform="translate(323.339844 0.015625)"/>
      <use xlink:href="#DejaVuSans-Oblique-73" transform="translate(386.816406 0.015625)"/>
      <use xlink:href="#DejaVuSans-2f" transform="translate(438.916016 0.015625)"/>
      <use xlink:href="#DejaVuSans-Oblique-64" transform="translate(472.607422 0.015625)"/>
      <use xlink:href="#DejaVuSans-Oblique-78" transform="translate(536.083984 0.015625)"/>
     </g>
    </g>
    <g id="line2d_19">
     <path d="M 377.548625 326.112 
L 386.348625 326.112 
L 395.148625 326.112 
" style="fill: none; stroke: #1f77b4; stroke-width: 1.5; stroke-linecap: round"/>
     <g>
      <use xlink:href="#m58189f1d5a" x="386.348625" y="326.112" style="fill: #1f77b4; stroke: #1f77b4"/>
     </g>
    </g>
    <g id="text_19">
     <!-- $s(x)=s(0)+\int u(t)dt|_{t=y}$ -->
     <g style="fill: #262626" transform="translate(402.188625 329.192) scale(0.088 -0.088)">
      <defs>
       <path id="DejaVuSans-2b" d="M 2944 4013 
L 2944 2272 
L 4684 2272 
L 4684 1741 
L 2944 1741 
L 2944 0 
L 2419 0 
L 2419 1741 
L 678 1741 
L 678 2272 
L 2419 2272 
L 2419 4013 
L 2944 4013 
z
" transform="scale(0.015625)"/>
       <path id="DejaVuSansDisplay-222b" d="M 2134 5525 
Q 2172 6263 2528 6556 
Q 2884 6850 3218 6850 
Q 3553 6850 3833 6575 
Q 4113 6300 4200 5678 
L 3544 5613 
Q 3469 6188 3219 6188 
Q 2906 6188 2869 5413 
L 2581 -597 
Q 2547 -1334 2187 -1628 
Q 1828 -1922 1497 -1922 
Q 1163 -1922 883 -1647 
Q 603 -1372 516 -750 
L 1172 -684 
Q 1247 -1259 1497 -1259 
Q 1809 -1259 1847 -488 
L 2134 5525 
z
" transform="scale(0.015625)"/>
       <path id="DejaVuSans-Oblique-74" d="M 2706 3500 
L 2619 3053 
L 1472 3053 
L 1100 1153 
Q 1081 1047 1072 975 
Q 1063 903 1063 863 
Q 1063 663 1183 572 
Q 1303 481 1569 481 
L 2150 481 
L 2053 0 
L 1503 0 
Q 991 0 739 200 
Q 488 400 488 806 
Q 488 878 497 964 
Q 506 1050 525 1153 
L 897 3053 
L 409 3053 
L 500 3500 
L 978 3500 
L 1172 4494 
L 1747 4494 
L 1556 3500 
L 2706 3500 
z
" transform="scale(0.015625)"/>
       <path id="DejaVuSans-7c" d="M 1344 4891 
L 1344 -1509 
L 813 -1509 
L 813 4891 
L 1344 4891 
z
" transform="scale(0.015625)"/>
       <path id="DejaVuSans-Oblique-79" d="M 1588 -325 
Q 1188 -997 936 -1164 
Q 684 -1331 294 -1331 
L -159 -1331 
L -63 -850 
L 269 -850 
Q 509 -850 678 -719 
Q 847 -588 1056 -206 
L 1234 128 
L 459 3500 
L 1069 3500 
L 1650 819 
L 3256 3500 
L 3859 3500 
L 1588 -325 
z
" transform="scale(0.015625)"/>
      </defs>
      <use xlink:href="#DejaVuSans-Oblique-73" transform="translate(0 0.96875)"/>
      <use xlink:href="#DejaVuSans-28" transform="translate(52.099609 0.96875)"/>
      <use xlink:href="#DejaVuSans-Oblique-78" transform="translate(91.113281 0.96875)"/>
      <use xlink:href="#DejaVuSans-29" transform="translate(150.292969 0.96875)"/>
      <use xlink:href="#DejaVuSans-3d" transform="translate(208.789062 0.96875)"/>
      <use xlink:href="#DejaVuSans-Oblique-73" transform="translate(312.060547 0.96875)"/>
      <use xlink:href="#DejaVuSans-28" transform="translate(364.160156 0.96875)"/>
      <use xlink:href="#DejaVuSans-30" transform="translate(403.173828 0.96875)"/>
      <use xlink:href="#DejaVuSans-29" transform="translate(466.796875 0.96875)"/>
      <use xlink:href="#DejaVuSans-2b" transform="translate(525.292969 0.96875)"/>
      <use xlink:href="#DejaVuSansDisplay-222b" transform="translate(628.564453 0.96875)"/>
      <use xlink:href="#DejaVuSans-Oblique-75" transform="translate(702.197266 0.96875)"/>
      <use xlink:href="#DejaVuSans-28" transform="translate(765.576172 0.96875)"/>
      <use xlink:href="#DejaVuSans-Oblique-74" transform="translate(804.589844 0.96875)"/>
      <use xlink:href="#DejaVuSans-29" transform="translate(843.798828 0.96875)"/>
      <use xlink:href="#DejaVuSans-Oblique-64" transform="translate(882.8125 0.96875)"/>
      <use xlink:href="#DejaVuSans-Oblique-74" transform="translate(946.289062 0.96875)"/>
      <use xlink:href="#DejaVuSans-7c" transform="translate(985.498047 0.96875)"/>
      <use xlink:href="#DejaVuSans-Oblique-74" transform="translate(1020.146484 -15.4375) scale(0.7)"/>
      <use xlink:href="#DejaVuSans-3d" transform="translate(1061.230469 -15.4375) scale(0.7)"/>
      <use xlink:href="#DejaVuSans-Oblique-79" transform="translate(1133.520508 -15.4375) scale(0.7)"/>
     </g>
    </g>
   </g>
  </g>
 </g>
 <defs>
  <clipPath id="pc8853c9275">
   <rect x="67.372625" y="7.2" width="446.4" height="332.64"/>
  </clipPath>
 </defs>
</svg>