<?xml version="1.0" encoding="utf-8" standalone="no"?>
<!DOCTYPE svg PUBLIC "-//W3C//DTD SVG 1.1//EN"
  "http://www.w3.org/Graphics/SVG/1.1/DTD/svg11.dtd">
<svg xmlns:xlink="http://www.w3.org/1999/xlink" width="202.580187pt" height="210.363875pt" viewBox="0 0 202.580187 210.363875" xmlns="http://www.w3.org/2000/svg" version="1.1">
 <metadata>
  <rdf:RDF xmlns:dc="http://purl.org/dc/elements/1.1/" xmlns:cc="http://creativecommons.org/ns#" xmlns:rdf="http://www.w3.org/1999/02/22-rdf-syntax-ns#">
   <cc:Work>
    <dc:type rdf:resource="http://purl.org/dc/dcmitype/StillImage"/>
    <dc:date>2024-01-22T16:18:25.554955</dc:date>
    <dc:format>image/svg+xml</dc:format>
    <dc:creator>
     <cc:Agent>
      <dc:title>Matplotlib v3.8.0, https://matplotlib.org/</dc:title>
     </cc:Agent>
    </dc:creator>
   </cc:Work>
  </rdf:RDF>
 </metadata>
 <defs>
  <style type="text/css">*{stroke-linejoin: round; stroke-linecap: butt}</style>
 </defs>
 <g id="figure_1">
  <g id="patch_1">
   <path d="M 0 210.363875 
L 202.580187 210.363875 
L 202.580187 0 
L 0 0 
z
" style="fill: #ffffff"/>
  </g>
  <g id="axes_1">
   <g id="patch_2">
    <path d="M 25.533375 186.816 
L 192.933375 186.816 
L 192.933375 20.496 
L 25.533375 20.496 
z
" style="fill: #ffffff"/>
   </g>
   <g id="matplotlib.axis_1">
    <g id="xtick_1">
     <g id="line2d_1">
      <defs>
       <path id="me6529f6fef" d="M 0 0 
L 0 4.8 
" style="stroke: #262626"/>
      </defs>
      <g>
       <use xlink:href="#me6529f6fef" x="25.533375" y="186.816" style="fill: #262626; stroke: #262626"/>
      </g>
     </g>
     <g id="text_1">
      <!-- −3 -->
      <g style="fill: #262626" transform="translate(20.516688 201.414875) scale(0.088 -0.088)">
       <defs>
        <path id="ArialMT-2212" d="M 3381 1997 
L 356 1997 
L 356 2522 
L 3381 2522 
L 3381 1997 
z
" transform="scale(0.015625)"/>
        <path id="ArialMT-33" d="M 269 1209 
L 831 1284 
Q 928 806 1161 595 
Q 1394 384 1728 384 
Q 2125 384 2398 659 
Q 2672 934 2672 1341 
Q 2672 1728 2419 1979 
Q 2166 2231 1775 2231 
Q 1616 2231 1378 2169 
L 1441 2663 
Q 1497 2656 1531 2656 
Q 1891 2656 2178 2843 
Q 2466 3031 2466 3422 
Q 2466 3731 2256 3934 
Q 2047 4138 1716 4138 
Q 1388 4138 1169 3931 
Q 950 3725 888 3313 
L 325 3413 
Q 428 3978 793 4289 
Q 1159 4600 1703 4600 
Q 2078 4600 2393 4439 
Q 2709 4278 2876 4000 
Q 3044 3722 3044 3409 
Q 3044 3113 2884 2869 
Q 2725 2625 2413 2481 
Q 2819 2388 3044 2092 
Q 3269 1797 3269 1353 
Q 3269 753 2831 336 
Q 2394 -81 1725 -81 
Q 1122 -81 723 278 
Q 325 638 269 1209 
z
" transform="scale(0.015625)"/>
       </defs>
       <use xlink:href="#ArialMT-2212"/>
       <use xlink:href="#ArialMT-33" x="58.398438"/>
      </g>
     </g>
    </g>
    <g id="xtick_2">
     <g id="line2d_2">
      <g>
       <use xlink:href="#me6529f6fef" x="53.433375" y="186.816" style="fill: #262626; stroke: #262626"/>
      </g>
     </g>
     <g id="text_2">
      <!-- −2 -->
      <g style="fill: #262626" transform="translate(48.416688 201.414875) scale(0.088 -0.088)">
       <defs>
        <path id="ArialMT-32" d="M 3222 541 
L 3222 0 
L 194 0 
Q 188 203 259 391 
Q 375 700 629 1000 
Q 884 1300 1366 1694 
Q 2113 2306 2375 2664 
Q 2638 3022 2638 3341 
Q 2638 3675 2398 3904 
Q 2159 4134 1775 4134 
Q 1369 4134 1125 3890 
Q 881 3647 878 3216 
L 300 3275 
Q 359 3922 746 4261 
Q 1134 4600 1788 4600 
Q 2447 4600 2831 4234 
Q 3216 3869 3216 3328 
Q 3216 3053 3103 2787 
Q 2991 2522 2730 2228 
Q 2469 1934 1863 1422 
Q 1356 997 1212 845 
Q 1069 694 975 541 
L 3222 541 
z
" transform="scale(0.015625)"/>
       </defs>
       <use xlink:href="#ArialMT-2212"/>
       <use xlink:href="#ArialMT-32" x="58.398438"/>
      </g>
     </g>
    </g>
    <g id="xtick_3">
     <g id="line2d_3">
      <g>
       <use xlink:href="#me6529f6fef" x="81.333375" y="186.816" style="fill: #262626; stroke: #262626"/>
      </g>
     </g>
     <g id="text_3">
      <!-- −1 -->
      <g style="fill: #262626" transform="translate(76.316688 201.414875) scale(0.088 -0.088)">
       <defs>
        <path id="ArialMT-31" d="M 2384 0 
L 1822 0 
L 1822 3584 
Q 1619 3391 1289 3197 
Q 959 3003 697 2906 
L 697 3450 
Q 1169 3672 1522 3987 
Q 1875 4303 2022 4600 
L 2384 4600 
L 2384 0 
z
" transform="scale(0.015625)"/>
       </defs>
       <use xlink:href="#ArialMT-2212"/>
       <use xlink:href="#ArialMT-31" x="58.398438"/>
      </g>
     </g>
    </g>
    <g id="xtick_4">
     <g id="line2d_4">
      <g>
       <use xlink:href="#me6529f6fef" x="109.233375" y="186.816" style="fill: #262626; stroke: #262626"/>
      </g>
     </g>
     <g id="text_4">
      <!-- 0 -->
      <g style="fill: #262626" transform="translate(106.786563 201.414875) scale(0.088 -0.088)">
       <defs>
        <path id="ArialMT-30" d="M 266 2259 
Q 266 3072 433 3567 
Q 600 4063 929 4331 
Q 1259 4600 1759 4600 
Q 2128 4600 2406 4451 
Q 2684 4303 2865 4023 
Q 3047 3744 3150 3342 
Q 3253 2941 3253 2259 
Q 3253 1453 3087 958 
Q 2922 463 2592 192 
Q 2263 -78 1759 -78 
Q 1097 -78 719 397 
Q 266 969 266 2259 
z
M 844 2259 
Q 844 1131 1108 757 
Q 1372 384 1759 384 
Q 2147 384 2411 759 
Q 2675 1134 2675 2259 
Q 2675 3391 2411 3762 
Q 2147 4134 1753 4134 
Q 1366 4134 1134 3806 
Q 844 3388 844 2259 
z
" transform="scale(0.015625)"/>
       </defs>
       <use xlink:href="#ArialMT-30"/>
      </g>
     </g>
    </g>
    <g id="xtick_5">
     <g id="line2d_5">
      <g>
       <use xlink:href="#me6529f6fef" x="137.133375" y="186.816" style="fill: #262626; stroke: #262626"/>
      </g>
     </g>
     <g id="text_5">
      <!-- 1 -->
      <g style="fill: #262626" transform="translate(134.686563 201.414875) scale(0.088 -0.088)">
       <use xlink:href="#ArialMT-31"/>
      </g>
     </g>
    </g>
    <g id="xtick_6">
     <g id="line2d_6">
      <g>
       <use xlink:href="#me6529f6fef" x="165.033375" y="186.816" style="fill: #262626; stroke: #262626"/>
      </g>
     </g>
     <g id="text_6">
      <!-- 2 -->
      <g style="fill: #262626" transform="translate(162.586563 201.414875) scale(0.088 -0.088)">
       <use xlink:href="#ArialMT-32"/>
      </g>
     </g>
    </g>
    <g id="xtick_7">
     <g id="line2d_7">
      <g>
       <use xlink:href="#me6529f6fef" x="192.933375" y="186.816" style="fill: #262626; stroke: #262626"/>
      </g>
     </g>
     <g id="text_7">
      <!-- 3 -->
      <g style="fill: #262626" transform="translate(190.486563 201.414875) scale(0.088 -0.088)">
       <use xlink:href="#ArialMT-33"/>
      </g>
     </g>
    </g>
   </g>
   <g id="matplotlib.axis_2">
    <g id="ytick_1">
     <g id="line2d_8">
      <defs>
       <path id="ma2daedf7b0" d="M 0 0 
L -4.8 0 
" style="stroke: #262626"/>
      </defs>
      <g>
       <use xlink:href="#ma2daedf7b0" x="25.533375" y="186.816" style="fill: #262626; stroke: #262626"/>
      </g>
     </g>
     <g id="text_8">
      <!-- −3 -->
      <g style="fill: #262626" transform="translate(7.2 189.965438) scale(0.088 -0.088)">
       <use xlink:href="#ArialMT-2212"/>
       <use xlink:href="#ArialMT-33" x="58.398438"/>
      </g>
     </g>
    </g>
    <g id="ytick_2">
     <g id="line2d_9">
      <g>
       <use xlink:href="#ma2daedf7b0" x="25.533375" y="159.096" style="fill: #262626; stroke: #262626"/>
      </g>
     </g>
     <g id="text_9">
      <!-- −2 -->
      <g style="fill: #262626" transform="translate(7.2 162.245437) scale(0.088 -0.088)">
       <use xlink:href="#ArialMT-2212"/>
       <use xlink:href="#ArialMT-32" x="58.398438"/>
      </g>
     </g>
    </g>
    <g id="ytick_3">
     <g id="line2d_10">
      <g>
       <use xlink:href="#ma2daedf7b0" x="25.533375" y="131.376" style="fill: #262626; stroke: #262626"/>
      </g>
     </g>
     <g id="text_10">
      <!-- −1 -->
      <g style="fill: #262626" transform="translate(7.2 134.525438) scale(0.088 -0.088)">
       <use xlink:href="#ArialMT-2212"/>
       <use xlink:href="#ArialMT-31" x="58.398438"/>
      </g>
     </g>
    </g>
    <g id="ytick_4">
     <g id="line2d_11">
      <g>
       <use xlink:href="#ma2daedf7b0" x="25.533375" y="103.656" style="fill: #262626; stroke: #262626"/>
      </g>
     </g>
     <g id="text_11">
      <!-- 0 -->
      <g style="fill: #262626" transform="translate(12.33975 106.805437) scale(0.088 -0.088)">
       <use xlink:href="#ArialMT-30"/>
      </g>
     </g>
    </g>
    <g id="ytick_5">
     <g id="line2d_12">
      <g>
       <use xlink:href="#ma2daedf7b0" x="25.533375" y="75.936" style="fill: #262626; stroke: #262626"/>
      </g>
     </g>
     <g id="text_12">
      <!-- 1 -->
      <g style="fill: #262626" transform="translate(12.33975 79.085437) scale(0.088 -0.088)">
       <use xlink:href="#ArialMT-31"/>
      </g>
     </g>
    </g>
    <g id="ytick_6">
     <g id="line2d_13">
      <g>
       <use xlink:href="#ma2daedf7b0" x="25.533375" y="48.216" style="fill: #262626; stroke: #262626"/>
      </g>
     </g>
     <g id="text_13">
      <!-- 2 -->
      <g style="fill: #262626" transform="translate(12.33975 51.365437) scale(0.088 -0.088)">
       <use xlink:href="#ArialMT-32"/>
      </g>
     </g>
    </g>
    <g id="ytick_7">
     <g id="line2d_14">
      <g>
       <use xlink:href="#ma2daedf7b0" x="25.533375" y="20.496" style="fill: #262626; stroke: #262626"/>
      </g>
     </g>
     <g id="text_14">
      <!-- 3 -->
      <g style="fill: #262626" transform="translate(12.33975 23.645437) scale(0.088 -0.088)">
       <use xlink:href="#ArialMT-33"/>
      </g>
     </g>
    </g>
   </g>
   <g id="QuadContourSet_1">
    <path d="M 27.224284 186.816 
L 28.915193 186.816 
L 30.320341 186.816 
L 28.915193 186.162794 
L 27.224284 185.406423 
L 26.60233 185.136 
L 25.533375 184.671126 
L 25.533375 185.136 
L 25.533375 186.816 
z
M 26.602304 22.176 
L 27.224284 21.905566 
L 28.915193 21.149193 
L 30.320317 20.496 
L 28.915193 20.496 
L 27.224284 20.496 
L 25.533375 20.496 
L 25.533375 22.176 
L 25.533375 22.640862 
z
" clip-path="url(#p9a65a01d12)" style="fill: #0b0920"/>
    <path d="M 27.224284 185.406423 
L 28.915193 186.162794 
L 30.320341 186.816 
L 30.606102 186.816 
L 32.297011 186.816 
L 33.98792 186.816 
L 35.67883 186.816 
L 37.369739 186.816 
L 39.060648 186.816 
L 40.184474 186.816 
L 39.060648 186.218039 
L 37.369739 185.353589 
L 36.93121 185.136 
L 35.67883 184.516232 
L 33.98792 183.712181 
L 33.432725 183.456 
L 32.297011 182.932568 
L 30.606102 182.181272 
L 29.662743 181.776 
L 28.915193 181.454774 
L 27.224284 180.749786 
L 25.591286 180.096 
L 25.533375 180.072778 
L 25.533375 180.096 
L 25.533375 181.776 
L 25.533375 183.456 
L 25.533375 184.671126 
L 26.60233 185.136 
z
M 25.591252 27.216 
L 27.224284 26.562201 
L 28.915193 25.857214 
L 29.662714 25.536 
L 30.606102 25.130714 
L 32.297011 24.37942 
L 33.432699 23.856 
L 33.98792 23.599807 
L 35.67883 22.795756 
L 36.931186 22.176 
L 37.369739 21.958399 
L 39.060648 21.093947 
L 40.184449 20.496 
L 39.060648 20.496 
L 37.369739 20.496 
L 35.67883 20.496 
L 33.98792 20.496 
L 32.297011 20.496 
L 30.606102 20.496 
L 30.320317 20.496 
L 28.915193 21.149193 
L 27.224284 21.905566 
L 26.602304 22.176 
L 25.533375 22.640862 
L 25.533375 23.856 
L 25.533375 25.536 
L 25.533375 27.216 
L 25.533375 27.239208 
z
" clip-path="url(#p9a65a01d12)" style="fill: #20122e"/>
    <path d="M 37.369739 185.353589 
L 39.060648 186.218039 
L 40.184474 186.816 
L 40.751557 186.816 
L 42.442466 186.816 
L 44.133375 186.816 
L 45.824284 186.816 
L 47.515193 186.816 
L 49.206102 186.816 
L 50.048601 186.816 
L 49.206102 186.291961 
L 47.515193 185.28338 
L 47.260097 185.136 
L 45.824284 184.311771 
L 44.261384 183.456 
L 44.133375 183.386276 
L 42.442466 182.490349 
L 41.029977 181.776 
L 40.751557 181.635683 
L 39.060648 180.807422 
L 37.540151 180.096 
L 37.369739 180.016412 
L 35.67883 179.246682 
L 33.98792 178.511549 
L 33.762418 178.416 
L 32.297011 177.794929 
L 30.606102 177.107054 
L 29.662763 176.736 
L 28.915193 176.441448 
L 27.224284 175.795016 
L 25.533375 175.174704 
L 25.533375 176.736 
L 25.533375 178.416 
L 25.533375 180.072778 
L 25.591286 180.096 
L 27.224284 180.749786 
L 28.915193 181.454774 
L 29.662743 181.776 
L 30.606102 182.181272 
L 32.297011 182.932568 
L 33.432725 183.456 
L 33.98792 183.712181 
L 35.67883 184.516232 
L 36.93121 185.136 
z
M 27.224284 31.516969 
L 28.915193 30.870538 
L 29.662725 30.576 
L 30.606102 30.204932 
L 32.297011 29.517056 
L 33.762382 28.896 
L 33.98792 28.800436 
L 35.67883 28.065303 
L 37.369739 27.295574 
L 37.540122 27.216 
L 39.060648 26.504565 
L 40.751557 25.676303 
L 41.02995 25.536 
L 42.442466 24.821639 
L 44.133375 23.925713 
L 44.261363 23.856 
L 45.824284 23.000215 
L 47.260073 22.176 
L 47.515193 22.028606 
L 49.206102 21.020027 
L 50.048582 20.496 
L 49.206102 20.496 
L 47.515193 20.496 
L 45.824284 20.496 
L 44.133375 20.496 
L 42.442466 20.496 
L 40.751557 20.496 
L 40.184449 20.496 
L 39.060648 21.093947 
L 37.369739 21.958399 
L 36.931186 22.176 
L 35.67883 22.795756 
L 33.98792 23.599807 
L 33.432699 23.856 
L 32.297011 24.37942 
L 30.606102 25.130714 
L 29.662714 25.536 
L 28.915193 25.857214 
L 27.224284 26.562201 
L 25.591252 27.216 
L 25.533375 27.239208 
L 25.533375 28.896 
L 25.533375 30.576 
L 25.533375 32.137282 
z
" clip-path="url(#p9a65a01d12)" style="fill: #34193d"/>
    <path d="M 47.515193 185.28338 
L 49.206102 186.291961 
L 50.048601 186.816 
L 50.897011 186.816 
L 52.58792 186.816 
L 54.27883 186.816 
L 55.969739 186.816 
L 57.660648 186.816 
L 59.351557 186.816 
L 59.912733 186.816 
L 59.351557 186.395953 
L 57.660648 185.185553 
L 57.588976 185.136 
L 55.969739 184.029423 
L 55.090058 183.456 
L 54.27883 182.932565 
L 52.58792 181.889726 
L 52.397206 181.776 
L 50.897011 180.888451 
L 49.48903 180.096 
L 49.206102 179.937808 
L 47.515193 179.022618 
L 46.340911 178.416 
L 45.824284 178.15033 
L 44.133375 177.310291 
L 42.924533 176.736 
L 42.442466 176.50759 
L 40.751557 175.731835 
L 39.207081 175.056 
L 39.060648 174.991978 
L 37.369739 174.271603 
L 35.67883 173.584342 
L 35.150401 173.376 
L 33.98792 172.917046 
L 32.297011 172.274224 
L 30.709759 171.696 
L 30.606102 171.658127 
L 28.915193 171.054124 
L 27.224284 170.475027 
L 25.832523 170.016 
L 25.533375 169.916851 
L 25.533375 170.016 
L 25.533375 171.696 
L 25.533375 173.376 
L 25.533375 175.056 
L 25.533375 175.174704 
L 27.224284 175.795016 
L 28.915193 176.441448 
L 29.662763 176.736 
L 30.606102 177.107054 
L 32.297011 177.794929 
L 33.762418 178.416 
L 33.98792 178.511549 
L 35.67883 179.246682 
L 37.369739 180.016412 
L 37.540151 180.096 
L 39.060648 180.807422 
L 40.751557 181.635683 
L 41.029977 181.776 
L 42.442466 182.490349 
L 44.133375 183.386276 
L 44.261384 183.456 
L 45.824284 184.311771 
L 47.260097 185.136 
z
M 25.832483 37.296 
L 27.224284 36.83696 
L 28.915193 36.257863 
L 30.606102 35.65386 
L 30.709722 35.616 
L 32.297011 35.037764 
L 33.98792 34.394942 
L 35.150368 33.936 
L 35.67883 33.727645 
L 37.369739 33.040384 
L 39.060648 32.320007 
L 39.207048 32.256 
L 40.751557 31.58015 
L 42.442466 30.804396 
L 42.924501 30.576 
L 44.133375 30.001694 
L 45.824284 29.161654 
L 46.340883 28.896 
L 47.515193 28.289369 
L 49.206102 27.374177 
L 49.489002 27.216 
L 50.897011 26.423536 
L 52.397185 25.536 
L 52.58792 25.422261 
L 54.27883 24.379421 
L 55.090037 23.856 
L 55.969739 23.282565 
L 57.588961 22.176 
L 57.660648 22.126436 
L 59.351557 20.916033 
L 59.912714 20.496 
L 59.351557 20.496 
L 57.660648 20.496 
L 55.969739 20.496 
L 54.27883 20.496 
L 52.58792 20.496 
L 50.897011 20.496 
L 50.048582 20.496 
L 49.206102 21.020027 
L 47.515193 22.028606 
L 47.260073 22.176 
L 45.824284 23.000215 
L 44.261363 23.856 
L 44.133375 23.925713 
L 42.442466 24.821639 
L 41.02995 25.536 
L 40.751557 25.676303 
L 39.060648 26.504565 
L 37.540122 27.216 
L 37.369739 27.295574 
L 35.67883 28.065303 
L 33.98792 28.800436 
L 33.762382 28.896 
L 32.297011 29.517056 
L 30.606102 30.204932 
L 29.662725 30.576 
L 28.915193 30.870538 
L 27.224284 31.516969 
L 25.533375 32.137282 
L 25.533375 32.256 
L 25.533375 33.936 
L 25.533375 35.616 
L 25.533375 37.296 
L 25.533375 37.395136 
z
" clip-path="url(#p9a65a01d12)" style="fill: #491d49"/>
    <path d="M 57.660648 185.185553 
L 59.351557 186.395953 
L 59.912733 186.816 
L 61.042466 186.816 
L 62.733375 186.816 
L 64.424284 186.816 
L 66.115193 186.816 
L 67.806102 186.816 
L 69.497011 186.816 
L 69.77686 186.816 
L 69.497011 186.553047 
L 67.91786 185.136 
L 67.806102 185.037804 
L 66.115193 183.614207 
L 65.918719 183.456 
L 64.424284 182.273409 
L 63.764446 181.776 
L 62.733375 181.010722 
L 61.4379 180.096 
L 61.042466 179.820598 
L 59.351557 178.692218 
L 58.919404 178.416 
L 57.660648 177.620139 
L 56.186306 176.736 
L 55.969739 176.607327 
L 54.27883 175.63755 
L 53.212338 175.056 
L 52.58792 174.717807 
L 50.897011 173.83833 
L 49.966997 173.376 
L 49.206102 172.999434 
L 47.515193 172.195852 
L 46.414484 171.696 
L 45.824284 171.428605 
L 44.133375 170.68937 
L 42.512697 170.016 
L 42.442466 169.98683 
L 40.751557 169.302575 
L 39.060648 168.651298 
L 38.21168 168.336 
L 37.369739 168.022633 
L 35.67883 167.414948 
L 33.98792 166.834579 
L 33.451879 166.656 
L 32.297011 166.269551 
L 30.606102 165.72421 
L 28.915193 165.201828 
L 28.161475 164.976 
L 27.224284 164.69335 
L 25.533375 164.199394 
L 25.533375 164.976 
L 25.533375 166.656 
L 25.533375 168.336 
L 25.533375 169.916851 
L 25.832523 170.016 
L 27.224284 170.475027 
L 28.915193 171.054124 
L 30.606102 171.658127 
L 30.709759 171.696 
L 32.297011 172.274224 
L 33.98792 172.917046 
L 35.150401 173.376 
L 35.67883 173.584342 
L 37.369739 174.271603 
L 39.060648 174.991978 
L 39.207081 175.056 
L 40.751557 175.731835 
L 42.442466 176.50759 
L 42.924533 176.736 
L 44.133375 177.310291 
L 45.824284 178.15033 
L 46.340911 178.416 
L 47.515193 179.022618 
L 49.206102 179.937808 
L 49.48903 180.096 
L 50.897011 180.888451 
L 52.397206 181.776 
L 52.58792 181.889726 
L 54.27883 182.932565 
L 55.090058 183.456 
L 55.969739 184.029423 
L 57.588976 185.136 
z
M 27.224284 42.618638 
L 28.161433 42.336 
L 28.915193 42.110159 
L 30.606102 41.587777 
L 32.297011 41.042435 
L 33.451834 40.656 
L 33.98792 40.477407 
L 35.67883 39.897038 
L 37.369739 39.289355 
L 38.211648 38.976 
L 39.060648 38.660691 
L 40.751557 38.009412 
L 42.442466 37.325157 
L 42.512665 37.296 
L 44.133375 36.622616 
L 45.824284 35.883381 
L 46.414454 35.616 
L 47.515193 35.116135 
L 49.206102 34.312552 
L 49.966968 33.936 
L 50.897011 33.473656 
L 52.58792 32.594179 
L 53.212311 32.256 
L 54.27883 31.674436 
L 55.969739 30.704658 
L 56.186281 30.576 
L 57.660648 29.691847 
L 58.919382 28.896 
L 59.351557 28.619769 
L 61.042466 27.491386 
L 61.437878 27.216 
L 62.733375 26.301265 
L 63.76443 25.536 
L 64.424284 25.038579 
L 65.918704 23.856 
L 66.115193 23.697781 
L 67.806102 22.274183 
L 67.917845 22.176 
L 69.497011 20.75894 
L 69.776847 20.496 
L 69.497011 20.496 
L 67.806102 20.496 
L 66.115193 20.496 
L 64.424284 20.496 
L 62.733375 20.496 
L 61.042466 20.496 
L 59.912714 20.496 
L 59.351557 20.916033 
L 57.660648 22.126436 
L 57.588961 22.176 
L 55.969739 23.282565 
L 55.090037 23.856 
L 54.27883 24.379421 
L 52.58792 25.422261 
L 52.397185 25.536 
L 50.897011 26.423536 
L 49.489002 27.216 
L 49.206102 27.374177 
L 47.515193 28.289369 
L 46.340883 28.896 
L 45.824284 29.161654 
L 44.133375 30.001694 
L 42.924501 30.576 
L 42.442466 30.804396 
L 40.751557 31.58015 
L 39.207048 32.256 
L 39.060648 32.320007 
L 37.369739 33.040384 
L 35.67883 33.727645 
L 35.150368 33.936 
L 33.98792 34.394942 
L 32.297011 35.037764 
L 30.709722 35.616 
L 30.606102 35.65386 
L 28.915193 36.257863 
L 27.224284 36.83696 
L 25.832483 37.296 
L 25.533375 37.395136 
L 25.533375 38.976 
L 25.533375 40.656 
L 25.533375 42.336 
L 25.533375 43.112592 
z
" clip-path="url(#p9a65a01d12)" style="fill: #611f53"/>
    <path d="M 69.497011 186.553047 
L 69.77686 186.816 
L 71.18792 186.816 
L 72.87883 186.816 
L 74.569739 186.816 
L 76.260648 186.816 
L 77.951557 186.816 
L 79.640991 186.816 
L 78.246736 185.136 
L 77.951557 184.792524 
L 76.747386 183.456 
L 76.260648 182.932564 
L 75.131679 181.776 
L 74.569739 181.216499 
L 73.386768 180.096 
L 72.87883 179.627069 
L 71.497897 178.416 
L 71.18792 178.150331 
L 69.497011 176.77409 
L 69.448072 176.736 
L 67.806102 175.481691 
L 67.217602 175.056 
L 66.115193 174.2716 
L 64.783593 173.376 
L 64.424284 173.137786 
L 62.733375 172.066182 
L 62.119209 171.696 
L 61.042466 171.054121 
L 59.351557 170.10205 
L 59.192865 170.016 
L 57.660648 169.191803 
L 55.969739 168.337286 
L 55.96711 168.336 
L 54.27883 167.51428 
L 52.58792 166.740379 
L 52.397247 166.656 
L 50.897011 165.993919 
L 49.206102 165.287359 
L 48.429452 164.976 
L 47.515193 164.609613 
L 45.824284 163.959825 
L 44.133375 163.343796 
L 43.998405 163.296 
L 42.442466 162.743612 
L 40.751557 162.171771 
L 39.060648 161.627489 
L 39.024056 161.616 
L 37.369739 161.093902 
L 35.67883 160.584521 
L 33.98792 160.098036 
L 33.407329 159.936 
L 32.297011 159.62375 
L 30.606102 159.165165 
L 28.915193 158.725889 
L 27.224284 158.304726 
L 27.024048 158.256 
L 25.533375 157.889476 
L 25.533375 158.256 
L 25.533375 159.936 
L 25.533375 161.616 
L 25.533375 163.296 
L 25.533375 164.199394 
L 27.224284 164.69335 
L 28.161475 164.976 
L 28.915193 165.201828 
L 30.606102 165.72421 
L 32.297011 166.269551 
L 33.451879 166.656 
L 33.98792 166.834579 
L 35.67883 167.414948 
L 37.369739 168.022633 
L 38.21168 168.336 
L 39.060648 168.651298 
L 40.751557 169.302575 
L 42.442466 169.98683 
L 42.512697 170.016 
L 44.133375 170.68937 
L 45.824284 171.428605 
L 46.414484 171.696 
L 47.515193 172.195852 
L 49.206102 172.999434 
L 49.966997 173.376 
L 50.897011 173.83833 
L 52.58792 174.717807 
L 53.212338 175.056 
L 54.27883 175.63755 
L 55.969739 176.607327 
L 56.186306 176.736 
L 57.660648 177.620139 
L 58.919404 178.416 
L 59.351557 178.692218 
L 61.042466 179.820598 
L 61.4379 180.096 
L 62.733375 181.010722 
L 63.764446 181.776 
L 64.424284 182.273409 
L 65.918719 183.456 
L 66.115193 183.614207 
L 67.806102 185.037804 
L 67.91786 185.136 
z
M 27.023969 49.056 
L 27.224284 49.007255 
L 28.915193 48.586094 
L 30.606102 48.146819 
L 32.297011 47.688235 
L 33.40728 47.376 
L 33.98792 47.213951 
L 35.67883 46.727466 
L 37.369739 46.218087 
L 39.024022 45.696 
L 39.060648 45.684501 
L 40.751557 45.140217 
L 42.442466 44.568376 
L 43.998368 44.016 
L 44.133375 43.968191 
L 45.824284 43.352162 
L 47.515193 42.702375 
L 48.429423 42.336 
L 49.206102 42.024629 
L 50.897011 41.318068 
L 52.397216 40.656 
L 52.58792 40.571607 
L 54.27883 39.797708 
L 55.967084 38.976 
L 55.969739 38.974701 
L 57.660648 38.120184 
L 59.19284 37.296 
L 59.351557 37.209937 
L 61.042466 36.257865 
L 62.119187 35.616 
L 62.733375 35.245804 
L 64.424284 34.174202 
L 64.783576 33.936 
L 66.115193 33.040387 
L 67.217582 32.256 
L 67.806102 31.830294 
L 69.448053 30.576 
L 69.497011 30.537895 
L 71.18792 29.161654 
L 71.49788 28.896 
L 72.87883 27.684918 
L 73.386754 27.216 
L 74.569739 26.095487 
L 75.131666 25.536 
L 76.260648 24.379422 
L 76.747373 23.856 
L 77.951557 22.519464 
L 78.246726 22.176 
L 79.64098 20.496 
L 77.951557 20.496 
L 76.260648 20.496 
L 74.569739 20.496 
L 72.87883 20.496 
L 71.18792 20.496 
L 69.776847 20.496 
L 69.497011 20.75894 
L 67.917845 22.176 
L 67.806102 22.274183 
L 66.115193 23.697781 
L 65.918704 23.856 
L 64.424284 25.038579 
L 63.76443 25.536 
L 62.733375 26.301265 
L 61.437878 27.216 
L 61.042466 27.491386 
L 59.351557 28.619769 
L 58.919382 28.896 
L 57.660648 29.691847 
L 56.186281 30.576 
L 55.969739 30.704658 
L 54.27883 31.674436 
L 53.212311 32.256 
L 52.58792 32.594179 
L 50.897011 33.473656 
L 49.966968 33.936 
L 49.206102 34.312552 
L 47.515193 35.116135 
L 46.414454 35.616 
L 45.824284 35.883381 
L 44.133375 36.622616 
L 42.512665 37.296 
L 42.442466 37.325157 
L 40.751557 38.009412 
L 39.060648 38.660691 
L 38.211648 38.976 
L 37.369739 39.289355 
L 35.67883 39.897038 
L 33.98792 40.477407 
L 33.451834 40.656 
L 32.297011 41.042435 
L 30.606102 41.587777 
L 28.915193 42.110159 
L 28.161433 42.336 
L 27.224284 42.618638 
L 25.533375 43.112592 
L 25.533375 44.016 
L 25.533375 45.696 
L 25.533375 47.376 
L 25.533375 49.056 
L 25.533375 49.422505 
z
" clip-path="url(#p9a65a01d12)" style="fill: #781f59"/>
    <path d="M 79.642466 186.816 
L 81.333375 186.816 
L 83.024284 186.816 
L 84.715193 186.816 
L 86.406102 186.816 
L 88.097011 186.816 
L 89.505118 186.816 
L 88.575615 185.136 
L 88.097011 184.311772 
L 87.576047 183.456 
L 86.498912 181.776 
L 86.406102 181.635679 
L 85.335638 180.096 
L 84.715193 179.24668 
L 84.07639 178.416 
L 83.024284 177.107052 
L 82.70984 176.736 
L 81.333375 175.1747 
L 81.22286 175.056 
L 79.642466 173.417434 
L 79.600188 173.376 
L 77.951557 171.810347 
L 77.823932 171.696 
L 76.260648 170.333963 
L 75.873037 170.016 
L 74.569739 168.972964 
L 73.722532 168.336 
L 72.87883 167.715254 
L 71.34263 166.656 
L 71.18792 166.55131 
L 69.497011 165.460239 
L 68.697429 164.976 
L 67.806102 164.443848 
L 66.115193 163.494781 
L 65.743402 163.296 
L 64.424284 162.597952 
L 62.733375 161.761085 
L 62.427163 161.616 
L 61.042466 160.964319 
L 59.351557 160.217595 
L 58.682681 159.936 
L 57.660648 159.507223 
L 55.969739 158.833963 
L 54.427158 158.256 
L 54.27883 158.200452 
L 52.58792 157.587782 
L 50.897011 157.010629 
L 49.555505 156.576 
L 49.206102 156.462438 
L 47.515193 155.931037 
L 45.824284 155.427976 
L 44.133375 154.95105 
L 43.932377 154.896 
L 42.442466 154.485011 
L 40.751557 154.040246 
L 39.060648 153.616914 
L 37.380446 153.216 
L 37.369739 153.213419 
L 35.67883 152.815281 
L 33.98792 152.435041 
L 32.297011 152.071513 
L 30.606102 151.723621 
L 29.662958 151.536 
L 28.915193 151.385177 
L 27.224284 151.054266 
L 25.533375 150.736724 
L 25.533375 151.536 
L 25.533375 153.216 
L 25.533375 154.896 
L 25.533375 156.576 
L 25.533375 157.889476 
L 27.024048 158.256 
L 27.224284 158.304726 
L 28.915193 158.725889 
L 30.606102 159.165165 
L 32.297011 159.62375 
L 33.407329 159.936 
L 33.98792 160.098036 
L 35.67883 160.584521 
L 37.369739 161.093902 
L 39.024056 161.616 
L 39.060648 161.627489 
L 40.751557 162.171771 
L 42.442466 162.743612 
L 43.998405 163.296 
L 44.133375 163.343796 
L 45.824284 163.959825 
L 47.515193 164.609613 
L 48.429452 164.976 
L 49.206102 165.287359 
L 50.897011 165.993919 
L 52.397247 166.656 
L 52.58792 166.740379 
L 54.27883 167.51428 
L 55.96711 168.336 
L 55.969739 168.337286 
L 57.660648 169.191803 
L 59.192865 170.016 
L 59.351557 170.10205 
L 61.042466 171.054121 
L 62.119209 171.696 
L 62.733375 172.066182 
L 64.424284 173.137786 
L 64.783593 173.376 
L 66.115193 174.2716 
L 67.217602 175.056 
L 67.806102 175.481691 
L 69.448072 176.736 
L 69.497011 176.77409 
L 71.18792 178.150331 
L 71.497897 178.416 
L 72.87883 179.627069 
L 73.386768 180.096 
L 74.569739 181.216499 
L 75.131679 181.776 
L 76.260648 182.932564 
L 76.747386 183.456 
L 77.951557 184.792524 
L 78.246736 185.136 
L 79.640991 186.816 
z
M 27.224284 56.257714 
L 28.915193 55.926803 
L 29.662861 55.776 
L 30.606102 55.588359 
L 32.297011 55.240466 
L 33.98792 54.876939 
L 35.67883 54.496697 
L 37.369739 54.09856 
L 37.38036 54.096 
L 39.060648 53.695066 
L 40.751557 53.271734 
L 42.442466 52.826967 
L 43.932306 52.416 
L 44.133375 52.360931 
L 45.824284 51.884004 
L 47.515193 51.380943 
L 49.206102 50.849541 
L 49.555443 50.736 
L 50.897011 50.301353 
L 52.58792 49.724199 
L 54.27883 49.111528 
L 54.427106 49.056 
L 55.969739 48.478019 
L 57.660648 47.804761 
L 58.682646 47.376 
L 59.351557 47.094391 
L 61.042466 46.347668 
L 62.427139 45.696 
L 62.733375 45.550904 
L 64.424284 44.714036 
L 65.743376 44.016 
L 66.115193 43.817205 
L 67.806102 42.868138 
L 68.697408 42.336 
L 69.497011 41.851748 
L 71.18792 40.760675 
L 71.342607 40.656 
L 72.87883 39.596733 
L 73.722516 38.976 
L 74.569739 38.339024 
L 75.873021 37.296 
L 76.260648 36.978024 
L 77.823918 35.616 
L 77.951557 35.50164 
L 79.600174 33.936 
L 79.642466 33.894553 
L 81.222847 32.256 
L 81.333375 32.137285 
L 82.709828 30.576 
L 83.024284 30.204935 
L 84.076379 28.896 
L 84.715193 28.065306 
L 85.335627 27.216 
L 86.406102 25.676308 
L 86.498903 25.536 
L 87.576039 23.856 
L 88.097011 23.000215 
L 88.575608 22.176 
L 89.505112 20.496 
L 88.097011 20.496 
L 86.406102 20.496 
L 84.715193 20.496 
L 83.024284 20.496 
L 81.333375 20.496 
L 79.642466 20.496 
L 79.64098 20.496 
L 78.246726 22.176 
L 77.951557 22.519464 
L 76.747373 23.856 
L 76.260648 24.379422 
L 75.131666 25.536 
L 74.569739 26.095487 
L 73.386754 27.216 
L 72.87883 27.684918 
L 71.49788 28.896 
L 71.18792 29.161654 
L 69.497011 30.537895 
L 69.448053 30.576 
L 67.806102 31.830294 
L 67.217582 32.256 
L 66.115193 33.040387 
L 64.783576 33.936 
L 64.424284 34.174202 
L 62.733375 35.245804 
L 62.119187 35.616 
L 61.042466 36.257865 
L 59.351557 37.209937 
L 59.19284 37.296 
L 57.660648 38.120184 
L 55.969739 38.974701 
L 55.967084 38.976 
L 54.27883 39.797708 
L 52.58792 40.571607 
L 52.397216 40.656 
L 50.897011 41.318068 
L 49.206102 42.024629 
L 48.429423 42.336 
L 47.515193 42.702375 
L 45.824284 43.352162 
L 44.133375 43.968191 
L 43.998368 44.016 
L 42.442466 44.568376 
L 40.751557 45.140217 
L 39.060648 45.684501 
L 39.024022 45.696 
L 37.369739 46.218087 
L 35.67883 46.727466 
L 33.98792 47.213951 
L 33.40728 47.376 
L 32.297011 47.688235 
L 30.606102 48.146819 
L 28.915193 48.586094 
L 27.224284 49.007255 
L 27.023969 49.056 
L 25.533375 49.422505 
L 25.533375 50.736 
L 25.533375 52.416 
L 25.533375 54.096 
L 25.533375 55.776 
L 25.533375 56.575256 
z
" clip-path="url(#p9a65a01d12)" style="fill: #901d5b"/>
    <path d="M 89.78792 186.816 
L 91.47883 186.816 
L 93.169739 186.816 
L 94.860648 186.816 
L 96.551557 186.816 
L 98.242466 186.816 
L 99.369248 186.816 
L 98.904497 185.136 
L 98.404712 183.456 
L 98.242466 182.932563 
L 97.866144 181.776 
L 97.284507 180.096 
L 96.654884 178.416 
L 96.551557 178.150327 
L 95.971608 176.736 
L 95.228117 175.056 
L 94.860648 174.271597 
L 94.416782 173.376 
L 93.528654 171.696 
L 93.169739 171.05412 
L 92.553206 170.016 
L 91.47883 168.337286 
L 91.477953 168.336 
L 90.288001 166.656 
L 89.78792 165.993916 
L 88.965401 164.976 
L 88.097011 163.959826 
L 87.488388 163.296 
L 86.406102 162.171769 
L 85.83027 161.616 
L 84.715193 160.584519 
L 83.958028 159.936 
L 83.024284 159.165164 
L 81.830267 158.256 
L 81.333375 157.889474 
L 79.642466 156.734415 
L 79.394443 156.576 
L 77.951557 155.676106 
L 76.582882 154.896 
L 76.260648 154.715946 
L 74.569739 153.825997 
L 73.306918 153.216 
L 72.87883 153.012033 
L 71.18792 152.251256 
L 69.497011 151.555225 
L 69.44817 151.536 
L 67.806102 150.893873 
L 66.115193 150.28376 
L 64.844932 149.856 
L 64.424284 149.714643 
L 62.733375 149.172227 
L 61.042466 148.667872 
L 59.351557 148.197712 
L 59.2706 148.176 
L 57.660648 147.74232 
L 55.969739 147.315062 
L 54.27883 146.914095 
L 52.58792 146.537068 
L 52.397431 146.496 
L 50.897011 146.169332 
L 49.206102 145.820761 
L 47.515193 145.491291 
L 45.824284 145.179394 
L 44.133375 144.883699 
L 43.733479 144.816 
L 42.442466 144.5941 
L 40.751557 144.31612 
L 39.060648 144.051538 
L 37.369739 143.799408 
L 35.67883 143.558867 
L 33.98792 143.329139 
L 32.50499 143.136 
L 32.297011 143.108356 
L 30.606102 142.889034 
L 28.915193 142.678945 
L 27.224284 142.477521 
L 25.533375 142.284234 
L 25.533375 143.136 
L 25.533375 144.816 
L 25.533375 146.496 
L 25.533375 148.176 
L 25.533375 149.856 
L 25.533375 150.736724 
L 27.224284 151.054266 
L 28.915193 151.385177 
L 29.662958 151.536 
L 30.606102 151.723621 
L 32.297011 152.071513 
L 33.98792 152.435041 
L 35.67883 152.815281 
L 37.369739 153.213419 
L 37.380446 153.216 
L 39.060648 153.616914 
L 40.751557 154.040246 
L 42.442466 154.485011 
L 43.932377 154.896 
L 44.133375 154.95105 
L 45.824284 155.427976 
L 47.515193 155.931037 
L 49.206102 156.462438 
L 49.555505 156.576 
L 50.897011 157.010629 
L 52.58792 157.587782 
L 54.27883 158.200452 
L 54.427158 158.256 
L 55.969739 158.833963 
L 57.660648 159.507223 
L 58.682681 159.936 
L 59.351557 160.217595 
L 61.042466 160.964319 
L 62.427163 161.616 
L 62.733375 161.761085 
L 64.424284 162.597952 
L 65.743402 163.296 
L 66.115193 163.494781 
L 67.806102 164.443848 
L 68.697429 164.976 
L 69.497011 165.460239 
L 71.18792 166.55131 
L 71.34263 166.656 
L 72.87883 167.715254 
L 73.722532 168.336 
L 74.569739 168.972964 
L 75.873037 170.016 
L 76.260648 170.333963 
L 77.823932 171.696 
L 77.951557 171.810347 
L 79.600188 173.376 
L 79.642466 173.417434 
L 81.22286 175.056 
L 81.333375 175.1747 
L 82.70984 176.736 
L 83.024284 177.107052 
L 84.07639 178.416 
L 84.715193 179.24668 
L 85.335638 180.096 
L 86.406102 181.635679 
L 86.498912 181.776 
L 87.576047 183.456 
L 88.097011 184.311772 
L 88.575615 185.136 
L 89.505118 186.816 
z
M 192.933375 110.232905 
L 192.933375 109.536 
L 192.933375 107.856 
L 192.933375 106.176 
L 192.933375 104.496 
L 192.933375 102.816 
L 192.933375 101.136 
L 192.933375 99.456 
L 192.933375 97.776 
L 192.933375 97.07908 
L 191.865015 97.776 
L 191.242466 98.328637 
L 190.001134 99.456 
L 189.551557 100.081342 
L 188.804565 101.136 
L 188.219486 102.816 
L 188.219486 104.496 
L 188.804575 106.176 
L 189.551557 107.230645 
L 190.001146 107.856 
L 191.242466 108.983348 
L 191.865031 109.536 
z
M 27.224284 64.83446 
L 28.915193 64.633035 
L 30.606102 64.422947 
L 32.297011 64.203623 
L 32.504835 64.176 
L 33.98792 63.982842 
L 35.67883 63.753113 
L 37.369739 63.512573 
L 39.060648 63.260443 
L 40.751557 62.99586 
L 42.442466 62.71788 
L 43.733362 62.496 
L 44.133375 62.428281 
L 45.824284 62.132587 
L 47.515193 61.820689 
L 49.206102 61.491219 
L 50.897011 61.142648 
L 52.397342 60.816 
L 52.58792 60.774913 
L 54.27883 60.397885 
L 55.969739 59.996919 
L 57.660648 59.569661 
L 59.270528 59.136 
L 59.351557 59.114269 
L 61.042466 58.64411 
L 62.733375 58.139755 
L 64.424284 57.597337 
L 64.844874 57.456 
L 66.115193 57.02822 
L 67.806102 56.418107 
L 69.448118 55.776 
L 69.497011 55.756754 
L 71.18792 55.060724 
L 72.87883 54.299944 
L 73.306872 54.096 
L 74.569739 53.485982 
L 76.260648 52.596032 
L 76.582844 52.416 
L 77.951557 51.635874 
L 79.394413 50.736 
L 79.642466 50.577566 
L 81.333375 49.422506 
L 81.830241 49.056 
L 83.024284 48.146821 
L 83.958012 47.376 
L 84.715193 46.727468 
L 85.830258 45.696 
L 86.406102 45.140219 
L 87.488376 44.016 
L 88.097011 43.352162 
L 88.965391 42.336 
L 89.78792 41.31807 
L 90.28799 40.656 
L 91.477945 38.976 
L 91.47883 38.974701 
L 92.553197 37.296 
L 93.169739 36.257866 
L 93.528646 35.616 
L 94.416775 33.936 
L 94.860648 33.04039 
L 95.228111 32.256 
L 95.971602 30.576 
L 96.551557 29.161658 
L 96.654878 28.896 
L 97.284502 27.216 
L 97.86614 25.536 
L 98.242466 24.379425 
L 98.404709 23.856 
L 98.904493 22.176 
L 99.369245 20.496 
L 98.242466 20.496 
L 96.551557 20.496 
L 94.860648 20.496 
L 93.169739 20.496 
L 91.47883 20.496 
L 89.78792 20.496 
L 89.505112 20.496 
L 88.575608 22.176 
L 88.097011 23.000215 
L 87.576039 23.856 
L 86.498903 25.536 
L 86.406102 25.676308 
L 85.335627 27.216 
L 84.715193 28.065306 
L 84.076379 28.896 
L 83.024284 30.204935 
L 82.709828 30.576 
L 81.333375 32.137285 
L 81.222847 32.256 
L 79.642466 33.894553 
L 79.600174 33.936 
L 77.951557 35.50164 
L 77.823918 35.616 
L 76.260648 36.978024 
L 75.873021 37.296 
L 74.569739 38.339024 
L 73.722516 38.976 
L 72.87883 39.596733 
L 71.342607 40.656 
L 71.18792 40.760675 
L 69.497011 41.851748 
L 68.697408 42.336 
L 67.806102 42.868138 
L 66.115193 43.817205 
L 65.743376 44.016 
L 64.424284 44.714036 
L 62.733375 45.550904 
L 62.427139 45.696 
L 61.042466 46.347668 
L 59.351557 47.094391 
L 58.682646 47.376 
L 57.660648 47.804761 
L 55.969739 48.478019 
L 54.427106 49.056 
L 54.27883 49.111528 
L 52.58792 49.724199 
L 50.897011 50.301353 
L 49.555443 50.736 
L 49.206102 50.849541 
L 47.515193 51.380943 
L 45.824284 51.884004 
L 44.133375 52.360931 
L 43.932306 52.416 
L 42.442466 52.826967 
L 40.751557 53.271734 
L 39.060648 53.695066 
L 37.38036 54.096 
L 37.369739 54.09856 
L 35.67883 54.496697 
L 33.98792 54.876939 
L 32.297011 55.240466 
L 30.606102 55.588359 
L 29.662861 55.776 
L 28.915193 55.926803 
L 27.224284 56.257714 
L 25.533375 56.575256 
L 25.533375 57.456 
L 25.533375 59.136 
L 25.533375 60.816 
L 25.533375 62.496 
L 25.533375 64.176 
L 25.533375 65.027746 
z
" clip-path="url(#p9a65a01d12)" style="fill: #a8185a"/>
    <path d="M 99.933375 186.816 
L 101.624284 186.816 
L 103.315193 186.816 
L 105.006102 186.816 
L 106.697011 186.816 
L 108.38792 186.816 
L 109.233377 186.816 
L 109.233377 185.136 
L 109.233377 183.456 
L 109.233377 181.776 
L 109.233377 180.096 
L 109.233377 178.416 
L 109.233377 176.736 
L 109.233377 175.056 
L 109.233377 173.376 
L 109.233377 171.696 
L 109.233377 170.016 
L 109.233377 168.336 
L 109.233377 166.656 
L 109.233377 164.976 
L 109.233377 163.296 
L 109.233377 161.616 
L 109.233377 159.936 
L 109.233377 158.256 
L 109.233377 156.576 
L 109.233377 154.896 
L 109.233377 153.216 
L 109.233377 151.536 
L 109.233377 149.856 
L 109.233377 148.176 
L 109.233377 146.496 
L 109.233377 144.816 
L 109.233377 143.136 
L 109.233377 141.456 
L 109.233377 139.776 
L 109.233377 138.096 
L 109.233377 136.416 
L 109.233377 134.736 
L 109.233377 133.056 
L 109.233377 131.376 
L 108.38792 131.375904 
L 106.697011 131.375904 
L 105.006102 131.375904 
L 103.315193 131.375904 
L 101.624284 131.375904 
L 99.933375 131.375904 
L 98.242466 131.375904 
L 96.551557 131.375904 
L 94.860648 131.375904 
L 93.169739 131.375904 
L 91.47883 131.375904 
L 89.78792 131.375904 
L 88.097011 131.375904 
L 86.406102 131.375904 
L 84.715193 131.375904 
L 83.024284 131.375904 
L 81.333375 131.375904 
L 79.642466 131.375904 
L 77.951557 131.375904 
L 76.260648 131.375904 
L 74.569739 131.375904 
L 72.87883 131.375904 
L 71.18792 131.375904 
L 69.497011 131.375904 
L 67.806102 131.375904 
L 66.115193 131.375904 
L 64.424284 131.375904 
L 62.733375 131.375904 
L 61.042466 131.375904 
L 59.351557 131.375904 
L 57.660648 131.375904 
L 55.969739 131.375904 
L 54.27883 131.375904 
L 52.58792 131.375904 
L 50.897011 131.375904 
L 49.206102 131.375904 
L 47.515193 131.375904 
L 45.824284 131.375904 
L 44.133375 131.375904 
L 42.442466 131.375904 
L 40.751557 131.375904 
L 39.060648 131.375904 
L 37.369739 131.375904 
L 35.67883 131.375904 
L 33.98792 131.375904 
L 32.297011 131.375904 
L 30.606102 131.375904 
L 28.915193 131.375904 
L 27.224284 131.375904 
L 25.533375 131.375904 
L 25.533375 131.376 
L 25.533375 133.056 
L 25.533375 134.736 
L 25.533375 136.416 
L 25.533375 138.096 
L 25.533375 139.776 
L 25.533375 141.456 
L 25.533375 142.284234 
L 27.224284 142.477521 
L 28.915193 142.678945 
L 30.606102 142.889034 
L 32.297011 143.108356 
L 32.50499 143.136 
L 33.98792 143.329139 
L 35.67883 143.558867 
L 37.369739 143.799408 
L 39.060648 144.051538 
L 40.751557 144.31612 
L 42.442466 144.5941 
L 43.733479 144.816 
L 44.133375 144.883699 
L 45.824284 145.179394 
L 47.515193 145.491291 
L 49.206102 145.820761 
L 50.897011 146.169332 
L 52.397431 146.496 
L 52.58792 146.537068 
L 54.27883 146.914095 
L 55.969739 147.315062 
L 57.660648 147.74232 
L 59.2706 148.176 
L 59.351557 148.197712 
L 61.042466 148.667872 
L 62.733375 149.172227 
L 64.424284 149.714643 
L 64.844932 149.856 
L 66.115193 150.28376 
L 67.806102 150.893873 
L 69.44817 151.536 
L 69.497011 151.555225 
L 71.18792 152.251256 
L 72.87883 153.012033 
L 73.306918 153.216 
L 74.569739 153.825997 
L 76.260648 154.715946 
L 76.582882 154.896 
L 77.951557 155.676106 
L 79.394443 156.576 
L 79.642466 156.734415 
L 81.333375 157.889474 
L 81.830267 158.256 
L 83.024284 159.165164 
L 83.958028 159.936 
L 84.715193 160.584519 
L 85.83027 161.616 
L 86.406102 162.171769 
L 87.488388 163.296 
L 88.097011 163.959826 
L 88.965401 164.976 
L 89.78792 165.993916 
L 90.288001 166.656 
L 91.477953 168.336 
L 91.47883 168.337286 
L 92.553206 170.016 
L 93.169739 171.05412 
L 93.528654 171.696 
L 94.416782 173.376 
L 94.860648 174.271597 
L 95.228117 175.056 
L 95.971608 176.736 
L 96.551557 178.150327 
L 96.654884 178.416 
L 97.284507 180.096 
L 97.866144 181.776 
L 98.242466 182.932563 
L 98.404712 183.456 
L 98.904497 185.136 
L 99.369248 186.816 
z
M 110.07883 131.375904 
L 111.769739 131.375904 
L 113.460648 131.375904 
L 115.151557 131.375904 
L 116.842466 131.375904 
L 118.533375 131.375904 
L 120.224284 131.375904 
L 121.915193 131.375904 
L 123.606102 131.375904 
L 125.297011 131.375904 
L 126.98792 131.375904 
L 128.67883 131.375904 
L 130.369739 131.375904 
L 132.060648 131.375904 
L 133.751557 131.375904 
L 135.442466 131.375904 
L 137.133375 131.375904 
L 138.824284 131.375904 
L 140.515193 131.375904 
L 142.206102 131.375904 
L 143.897011 131.375904 
L 145.58792 131.375904 
L 147.27883 131.375904 
L 148.969739 131.375904 
L 150.660648 131.375904 
L 152.351557 131.375904 
L 154.042466 131.375904 
L 155.733375 131.375904 
L 157.424284 131.375904 
L 159.115193 131.375904 
L 160.806102 131.375904 
L 162.497011 131.375904 
L 164.18792 131.375904 
L 165.87883 131.375904 
L 167.569739 131.375904 
L 169.260648 131.375904 
L 170.951557 131.375904 
L 172.642466 131.375904 
L 174.333375 131.375904 
L 176.024284 131.375904 
L 177.715193 131.375904 
L 179.406102 131.375904 
L 181.097011 131.375904 
L 182.78792 131.375904 
L 184.47883 131.375904 
L 186.169739 131.375904 
L 187.860648 131.375904 
L 189.551557 131.375904 
L 191.242466 131.375904 
L 192.933375 131.375904 
L 192.933375 129.696 
L 192.933375 128.016 
L 192.933375 126.336 
L 192.933375 124.656 
L 192.933375 122.976 
L 192.933375 121.296 
L 192.933375 119.616 
L 192.933375 117.936 
L 192.933375 116.256 
L 192.933375 114.576 
L 192.933375 112.896 
L 192.933375 111.216 
L 192.933375 110.232905 
L 191.865031 109.536 
L 191.242466 108.983348 
L 190.001146 107.856 
L 189.551557 107.230645 
L 188.804575 106.176 
L 188.219486 104.496 
L 188.219486 102.816 
L 188.804565 101.136 
L 189.551557 100.081342 
L 190.001134 99.456 
L 191.242466 98.328637 
L 191.865015 97.776 
L 192.933375 97.07908 
L 192.933375 96.096 
L 192.933375 94.416 
L 192.933375 92.736 
L 192.933375 91.056 
L 192.933375 89.376 
L 192.933375 87.696 
L 192.933375 86.016 
L 192.933375 84.336 
L 192.933375 82.656 
L 192.933375 80.976 
L 192.933375 79.296 
L 192.933375 77.616 
L 192.933375 75.936077 
L 191.242466 75.936077 
L 189.551557 75.936077 
L 187.860648 75.936077 
L 186.169739 75.936077 
L 184.47883 75.936077 
L 182.78792 75.936077 
L 181.097011 75.936077 
L 179.406102 75.936077 
L 177.715193 75.936077 
L 176.024284 75.936077 
L 174.333375 75.936077 
L 172.642466 75.936077 
L 170.951557 75.936077 
L 169.260648 75.936077 
L 167.569739 75.936077 
L 165.87883 75.936077 
L 164.18792 75.936077 
L 162.497011 75.936077 
L 160.806102 75.936077 
L 159.115193 75.936077 
L 157.424284 75.936077 
L 155.733375 75.936077 
L 154.042466 75.936077 
L 152.351557 75.936077 
L 150.660648 75.936077 
L 148.969739 75.936077 
L 147.27883 75.936077 
L 145.58792 75.936077 
L 143.897011 75.936077 
L 142.206102 75.936077 
L 140.515193 75.936077 
L 138.824284 75.936077 
L 137.133375 75.936077 
L 135.442466 75.936077 
L 133.751557 75.936077 
L 132.060648 75.936077 
L 130.369739 75.936077 
L 128.67883 75.936077 
L 126.98792 75.936077 
L 125.297011 75.936077 
L 123.606102 75.936077 
L 121.915193 75.936077 
L 120.224284 75.936077 
L 118.533375 75.936077 
L 116.842466 75.936077 
L 115.151557 75.936077 
L 113.460648 75.936077 
L 111.769739 75.936077 
L 110.07883 75.936077 
L 109.233377 77.616 
L 109.233377 79.296 
L 109.233377 80.976 
L 109.233377 82.656 
L 109.233377 84.336 
L 109.233377 86.016 
L 109.233377 87.696 
L 109.233377 89.376 
L 109.233377 91.056 
L 109.233377 92.736 
L 109.233377 94.416 
L 109.233377 96.096 
L 109.233377 97.776 
L 109.233377 99.456 
L 109.233377 101.136 
L 109.233377 102.816 
L 109.233377 104.496 
L 109.233377 106.176 
L 109.233377 107.856 
L 109.233377 109.536 
L 109.233377 111.216 
L 109.233377 112.896 
L 109.233377 114.576 
L 109.233377 116.256 
L 109.233377 117.936 
L 109.233377 119.616 
L 109.233377 121.296 
L 109.233377 122.976 
L 109.233377 124.656 
L 109.233377 126.336 
L 109.233377 128.016 
L 109.233377 129.696 
z
M 27.224284 75.936077 
L 28.915193 75.936077 
L 30.606102 75.936077 
L 32.297011 75.936077 
L 33.98792 75.936077 
L 35.67883 75.936077 
L 37.369739 75.936077 
L 39.060648 75.936077 
L 40.751557 75.936077 
L 42.442466 75.936077 
L 44.133375 75.936077 
L 45.824284 75.936077 
L 47.515193 75.936077 
L 49.206102 75.936077 
L 50.897011 75.936077 
L 52.58792 75.936077 
L 54.27883 75.936077 
L 55.969739 75.936077 
L 57.660648 75.936077 
L 59.351557 75.936077 
L 61.042466 75.936077 
L 62.733375 75.936077 
L 64.424284 75.936077 
L 66.115193 75.936077 
L 67.806102 75.936077 
L 69.497011 75.936077 
L 71.18792 75.936077 
L 72.87883 75.936077 
L 74.569739 75.936077 
L 76.260648 75.936077 
L 77.951557 75.936077 
L 79.642466 75.936077 
L 81.333375 75.936077 
L 83.024284 75.936077 
L 84.715193 75.936077 
L 86.406102 75.936077 
L 88.097011 75.936077 
L 89.78792 75.936077 
L 91.47883 75.936077 
L 93.169739 75.936077 
L 94.860648 75.936077 
L 96.551557 75.936077 
L 98.242466 75.936077 
L 99.933375 75.936077 
L 101.624284 75.936077 
L 103.315193 75.936077 
L 105.006102 75.936077 
L 106.697011 75.936077 
L 108.38792 75.936077 
L 109.233377 75.936 
L 109.233377 74.256 
L 109.233377 72.576 
L 109.233377 70.896 
L 109.233377 69.216 
L 109.233377 67.536 
L 109.233377 65.856 
L 109.233377 64.176 
L 109.233377 62.496 
L 109.233377 60.816 
L 109.233377 59.136 
L 109.233377 57.456 
L 109.233377 55.776 
L 109.233377 54.096 
L 109.233377 52.416 
L 109.233377 50.736 
L 109.233377 49.056 
L 109.233377 47.376 
L 109.233377 45.696 
L 109.233377 44.016 
L 109.233377 42.336 
L 109.233377 40.656 
L 109.233377 38.976 
L 109.233377 37.296 
L 109.233377 35.616 
L 109.233377 33.936 
L 109.233377 32.256 
L 109.233377 30.576 
L 109.233377 28.896 
L 109.233377 27.216 
L 109.233377 25.536 
L 109.233377 23.856 
L 109.233377 22.176 
L 109.233377 20.496 
L 108.38792 20.496 
L 106.697011 20.496 
L 105.006102 20.496 
L 103.315193 20.496 
L 101.624284 20.496 
L 99.933375 20.496 
L 99.369245 20.496 
L 98.904493 22.176 
L 98.404709 23.856 
L 98.242466 24.379425 
L 97.86614 25.536 
L 97.284502 27.216 
L 96.654878 28.896 
L 96.551557 29.161658 
L 95.971602 30.576 
L 95.228111 32.256 
L 94.860648 33.04039 
L 94.416775 33.936 
L 93.528646 35.616 
L 93.169739 36.257866 
L 92.553197 37.296 
L 91.47883 38.974701 
L 91.477945 38.976 
L 90.28799 40.656 
L 89.78792 41.31807 
L 88.965391 42.336 
L 88.097011 43.352162 
L 87.488376 44.016 
L 86.406102 45.140219 
L 85.830258 45.696 
L 84.715193 46.727468 
L 83.958012 47.376 
L 83.024284 48.146821 
L 81.830241 49.056 
L 81.333375 49.422506 
L 79.642466 50.577566 
L 79.394413 50.736 
L 77.951557 51.635874 
L 76.582844 52.416 
L 76.260648 52.596032 
L 74.569739 53.485982 
L 73.306872 54.096 
L 72.87883 54.299944 
L 71.18792 55.060724 
L 69.497011 55.756754 
L 69.448118 55.776 
L 67.806102 56.418107 
L 66.115193 57.02822 
L 64.844874 57.456 
L 64.424284 57.597337 
L 62.733375 58.139755 
L 61.042466 58.64411 
L 59.351557 59.114269 
L 59.270528 59.136 
L 57.660648 59.569661 
L 55.969739 59.996919 
L 54.27883 60.397885 
L 52.58792 60.774913 
L 52.397342 60.816 
L 50.897011 61.142648 
L 49.206102 61.491219 
L 47.515193 61.820689 
L 45.824284 62.132587 
L 44.133375 62.428281 
L 43.733362 62.496 
L 42.442466 62.71788 
L 40.751557 62.99586 
L 39.060648 63.260443 
L 37.369739 63.512573 
L 35.67883 63.753113 
L 33.98792 63.982842 
L 32.504835 64.176 
L 32.297011 64.203623 
L 30.606102 64.422947 
L 28.915193 64.633035 
L 27.224284 64.83446 
L 25.533375 65.027746 
L 25.533375 65.856 
L 25.533375 67.536 
L 25.533375 69.216 
L 25.533375 70.896 
L 25.533375 72.576 
L 25.533375 74.256 
L 25.533375 75.936 
L 25.533375 75.936077 
z
" clip-path="url(#p9a65a01d12)" style="fill: #bf1654"/>
    <path d="M 110.07883 186.816 
L 111.769739 186.816 
L 113.460648 186.816 
L 115.151557 186.816 
L 116.842466 186.816 
L 118.533375 186.816 
L 119.097505 186.816 
L 119.562257 185.136 
L 120.06204 183.456 
L 120.224284 182.932571 
L 120.60061 181.776 
L 121.182247 180.096 
L 121.81187 178.416 
L 121.915193 178.150338 
L 122.495145 176.736 
L 123.238636 175.056 
L 123.606102 174.271604 
L 124.049972 173.376 
L 124.9381 171.696 
L 125.297011 171.054126 
L 125.913547 170.016 
L 126.98792 168.337291 
L 126.9888 168.336 
L 128.178751 166.656 
L 128.67883 165.993919 
L 129.501352 164.976 
L 130.369739 163.959829 
L 130.978365 163.296 
L 132.060648 162.171773 
L 132.636483 161.616 
L 133.751557 160.584522 
L 134.508725 159.936 
L 135.442466 159.165167 
L 136.636488 158.256 
L 137.133375 157.889479 
L 138.824284 156.734419 
L 139.072314 156.576 
L 140.515193 155.67611 
L 141.883875 154.896 
L 142.206102 154.715951 
L 143.897011 153.826001 
L 145.15984 153.216 
L 145.58792 153.012037 
L 147.27883 152.251259 
L 148.969739 151.555228 
L 149.018587 151.536 
L 150.660648 150.893875 
L 152.351557 150.283763 
L 153.621823 149.856 
L 154.042466 149.714645 
L 155.733375 149.172228 
L 157.424284 148.667873 
L 159.115193 148.197714 
L 159.196159 148.176 
L 160.806102 147.742322 
L 162.497011 147.315063 
L 164.18792 146.914096 
L 165.87883 146.537068 
L 166.069319 146.496 
L 167.569739 146.169332 
L 169.260648 145.820761 
L 170.951557 145.491291 
L 172.642466 145.179394 
L 174.333375 144.883699 
L 174.733271 144.816 
L 176.024284 144.5941 
L 177.715193 144.31612 
L 179.406102 144.051538 
L 181.097011 143.799408 
L 182.78792 143.558867 
L 184.47883 143.329139 
L 185.96176 143.136 
L 186.169739 143.108356 
L 187.860648 142.889034 
L 189.551557 142.678945 
L 191.242466 142.477521 
L 192.933375 142.284234 
L 192.933375 141.456 
L 192.933375 139.776 
L 192.933375 138.096 
L 192.933375 136.416 
L 192.933375 134.736 
L 192.933375 133.056 
L 192.933375 131.376 
L 192.933375 131.375904 
L 191.242466 131.375904 
L 189.551557 131.375904 
L 187.860648 131.375904 
L 186.169739 131.375904 
L 184.47883 131.375904 
L 182.78792 131.375904 
L 181.097011 131.375904 
L 179.406102 131.375904 
L 177.715193 131.375904 
L 176.024284 131.375904 
L 174.333375 131.375904 
L 172.642466 131.375904 
L 170.951557 131.375904 
L 169.260648 131.375904 
L 167.569739 131.375904 
L 165.87883 131.375904 
L 164.18792 131.375904 
L 162.497011 131.375904 
L 160.806102 131.375904 
L 159.115193 131.375904 
L 157.424284 131.375904 
L 155.733375 131.375904 
L 154.042466 131.375904 
L 152.351557 131.375904 
L 150.660648 131.375904 
L 148.969739 131.375904 
L 147.27883 131.375904 
L 145.58792 131.375904 
L 143.897011 131.375904 
L 142.206102 131.375904 
L 140.515193 131.375904 
L 138.824284 131.375904 
L 137.133375 131.375904 
L 135.442466 131.375904 
L 133.751557 131.375904 
L 132.060648 131.375904 
L 130.369739 131.375904 
L 128.67883 131.375904 
L 126.98792 131.375904 
L 125.297011 131.375904 
L 123.606102 131.375904 
L 121.915193 131.375904 
L 120.224284 131.375904 
L 118.533375 131.375904 
L 116.842466 131.375904 
L 115.151557 131.375904 
L 113.460648 131.375904 
L 111.769739 131.375904 
L 110.07883 131.375904 
L 109.233377 129.696 
L 109.233377 128.016 
L 109.233377 126.336 
L 109.233377 124.656 
L 109.233377 122.976 
L 109.233377 121.296 
L 109.233377 119.616 
L 109.233377 117.936 
L 109.233377 116.256 
L 109.233377 114.576 
L 109.233377 112.896 
L 109.233377 111.216 
L 109.233377 109.536 
L 109.233377 107.856 
L 109.233377 106.176 
L 109.233377 104.496 
L 109.233377 102.816 
L 109.233377 101.136 
L 109.233377 99.456 
L 109.233377 97.776 
L 109.233377 96.096 
L 109.233377 94.416 
L 109.233377 92.736 
L 109.233377 91.056 
L 109.233377 89.376 
L 109.233377 87.696 
L 109.233377 86.016 
L 109.233377 84.336 
L 109.233377 82.656 
L 109.233377 80.976 
L 109.233377 79.296 
L 109.233377 77.616 
L 110.07883 75.936077 
L 111.769739 75.936077 
L 113.460648 75.936077 
L 115.151557 75.936077 
L 116.842466 75.936077 
L 118.533375 75.936077 
L 120.224284 75.936077 
L 121.915193 75.936077 
L 123.606102 75.936077 
L 125.297011 75.936077 
L 126.98792 75.936077 
L 128.67883 75.936077 
L 130.369739 75.936077 
L 132.060648 75.936077 
L 133.751557 75.936077 
L 135.442466 75.936077 
L 137.133375 75.936077 
L 138.824284 75.936077 
L 140.515193 75.936077 
L 142.206102 75.936077 
L 143.897011 75.936077 
L 145.58792 75.936077 
L 147.27883 75.936077 
L 148.969739 75.936077 
L 150.660648 75.936077 
L 152.351557 75.936077 
L 154.042466 75.936077 
L 155.733375 75.936077 
L 157.424284 75.936077 
L 159.115193 75.936077 
L 160.806102 75.936077 
L 162.497011 75.936077 
L 164.18792 75.936077 
L 165.87883 75.936077 
L 167.569739 75.936077 
L 169.260648 75.936077 
L 170.951557 75.936077 
L 172.642466 75.936077 
L 174.333375 75.936077 
L 176.024284 75.936077 
L 177.715193 75.936077 
L 179.406102 75.936077 
L 181.097011 75.936077 
L 182.78792 75.936077 
L 184.47883 75.936077 
L 186.169739 75.936077 
L 187.860648 75.936077 
L 189.551557 75.936077 
L 191.242466 75.936077 
L 192.933375 75.936077 
L 192.933375 75.936 
L 192.933375 74.256 
L 192.933375 72.576 
L 192.933375 70.896 
L 192.933375 69.216 
L 192.933375 67.536 
L 192.933375 65.856 
L 192.933375 65.027746 
L 191.242466 64.83446 
L 189.551557 64.633035 
L 187.860648 64.422947 
L 186.169739 64.203623 
L 185.961915 64.176 
L 184.47883 63.982842 
L 182.78792 63.753113 
L 181.097011 63.512573 
L 179.406102 63.260443 
L 177.715193 62.99586 
L 176.024284 62.71788 
L 174.733388 62.496 
L 174.333375 62.428281 
L 172.642466 62.132587 
L 170.951557 61.820689 
L 169.260648 61.491219 
L 167.569739 61.142648 
L 166.069408 60.816 
L 165.87883 60.774913 
L 164.18792 60.397885 
L 162.497011 59.996918 
L 160.806102 59.569659 
L 159.196228 59.136 
L 159.115193 59.114267 
L 157.424284 58.644107 
L 155.733375 58.139752 
L 154.042466 57.597334 
L 153.621886 57.456 
L 152.351557 57.028217 
L 150.660648 56.418105 
L 149.018639 55.776 
L 148.969739 55.756751 
L 147.27883 55.06072 
L 145.58792 54.299942 
L 145.159883 54.096 
L 143.897011 53.485979 
L 142.206102 52.596028 
L 141.883913 52.416 
L 140.515193 51.63587 
L 139.072344 50.736 
L 138.824284 50.577561 
L 137.133375 49.422502 
L 136.636514 49.056 
L 135.442466 48.146818 
L 134.508741 47.376 
L 133.751557 46.727464 
L 132.636495 45.696 
L 132.060648 45.140216 
L 130.978377 44.016 
L 130.369739 43.352157 
L 129.501363 42.336 
L 128.67883 41.318066 
L 128.178762 40.656 
L 126.988808 38.976 
L 126.98792 38.974697 
L 125.913556 37.296 
L 125.297011 36.25786 
L 124.938107 35.616 
L 124.049978 33.936 
L 123.606102 33.040383 
L 123.238643 32.256 
L 122.495152 30.576 
L 121.915193 29.16165 
L 121.811875 28.896 
L 121.182251 27.216 
L 120.600614 25.536 
L 120.224284 24.379413 
L 120.062045 23.856 
L 119.56226 22.176 
L 119.097509 20.496 
L 118.533375 20.496 
L 116.842466 20.496 
L 115.151557 20.496 
L 113.460648 20.496 
L 111.769739 20.496 
L 110.07883 20.496 
L 109.233377 20.496 
L 109.233377 22.176 
L 109.233377 23.856 
L 109.233377 25.536 
L 109.233377 27.216 
L 109.233377 28.896 
L 109.233377 30.576 
L 109.233377 32.256 
L 109.233377 33.936 
L 109.233377 35.616 
L 109.233377 37.296 
L 109.233377 38.976 
L 109.233377 40.656 
L 109.233377 42.336 
L 109.233377 44.016 
L 109.233377 45.696 
L 109.233377 47.376 
L 109.233377 49.056 
L 109.233377 50.736 
L 109.233377 52.416 
L 109.233377 54.096 
L 109.233377 55.776 
L 109.233377 57.456 
L 109.233377 59.136 
L 109.233377 60.816 
L 109.233377 62.496 
L 109.233377 64.176 
L 109.233377 65.856 
L 109.233377 67.536 
L 109.233377 69.216 
L 109.233377 70.896 
L 109.233377 72.576 
L 109.233377 74.256 
L 109.233377 75.936 
L 108.38792 75.936077 
L 106.697011 75.936077 
L 105.006102 75.936077 
L 103.315193 75.936077 
L 101.624284 75.936077 
L 99.933375 75.936077 
L 98.242466 75.936077 
L 96.551557 75.936077 
L 94.860648 75.936077 
L 93.169739 75.936077 
L 91.47883 75.936077 
L 89.78792 75.936077 
L 88.097011 75.936077 
L 86.406102 75.936077 
L 84.715193 75.936077 
L 83.024284 75.936077 
L 81.333375 75.936077 
L 79.642466 75.936077 
L 77.951557 75.936077 
L 76.260648 75.936077 
L 74.569739 75.936077 
L 72.87883 75.936077 
L 71.18792 75.936077 
L 69.497011 75.936077 
L 67.806102 75.936077 
L 66.115193 75.936077 
L 64.424284 75.936077 
L 62.733375 75.936077 
L 61.042466 75.936077 
L 59.351557 75.936077 
L 57.660648 75.936077 
L 55.969739 75.936077 
L 54.27883 75.936077 
L 52.58792 75.936077 
L 50.897011 75.936077 
L 49.206102 75.936077 
L 47.515193 75.936077 
L 45.824284 75.936077 
L 44.133375 75.936077 
L 42.442466 75.936077 
L 40.751557 75.936077 
L 39.060648 75.936077 
L 37.369739 75.936077 
L 35.67883 75.936077 
L 33.98792 75.936077 
L 32.297011 75.936077 
L 30.606102 75.936077 
L 28.915193 75.936077 
L 27.224284 75.936077 
L 25.533375 75.936077 
L 25.533375 77.616 
L 25.533375 79.296 
L 25.533375 80.976 
L 25.533375 82.656 
L 25.533375 84.336 
L 25.533375 86.016 
L 25.533375 87.696 
L 25.533375 89.376 
L 25.533375 91.056 
L 25.533375 92.736 
L 25.533375 94.416 
L 25.533375 96.096 
L 25.533375 97.07908 
L 26.601735 97.776 
L 27.224284 98.328637 
L 28.465616 99.456 
L 28.915193 100.081342 
L 29.662185 101.136 
L 30.247264 102.816 
L 30.247264 104.496 
L 29.662175 106.176 
L 28.915193 107.230645 
L 28.465604 107.856 
L 27.224284 108.983348 
L 26.601719 109.536 
L 25.533375 110.232905 
L 25.533375 111.216 
L 25.533375 112.896 
L 25.533375 114.576 
L 25.533375 116.256 
L 25.533375 117.936 
L 25.533375 119.616 
L 25.533375 121.296 
L 25.533375 122.976 
L 25.533375 124.656 
L 25.533375 126.336 
L 25.533375 128.016 
L 25.533375 129.696 
L 25.533375 131.375904 
L 27.224284 131.375904 
L 28.915193 131.375904 
L 30.606102 131.375904 
L 32.297011 131.375904 
L 33.98792 131.375904 
L 35.67883 131.375904 
L 37.369739 131.375904 
L 39.060648 131.375904 
L 40.751557 131.375904 
L 42.442466 131.375904 
L 44.133375 131.375904 
L 45.824284 131.375904 
L 47.515193 131.375904 
L 49.206102 131.375904 
L 50.897011 131.375904 
L 52.58792 131.375904 
L 54.27883 131.375904 
L 55.969739 131.375904 
L 57.660648 131.375904 
L 59.351557 131.375904 
L 61.042466 131.375904 
L 62.733375 131.375904 
L 64.424284 131.375904 
L 66.115193 131.375904 
L 67.806102 131.375904 
L 69.497011 131.375904 
L 71.18792 131.375904 
L 72.87883 131.375904 
L 74.569739 131.375904 
L 76.260648 131.375904 
L 77.951557 131.375904 
L 79.642466 131.375904 
L 81.333375 131.375904 
L 83.024284 131.375904 
L 84.715193 131.375904 
L 86.406102 131.375904 
L 88.097011 131.375904 
L 89.78792 131.375904 
L 91.47883 131.375904 
L 93.169739 131.375904 
L 94.860648 131.375904 
L 96.551557 131.375904 
L 98.242466 131.375904 
L 99.933375 131.375904 
L 101.624284 131.375904 
L 103.315193 131.375904 
L 105.006102 131.375904 
L 106.697011 131.375904 
L 108.38792 131.375904 
L 109.233377 131.376 
L 109.233377 133.056 
L 109.233377 134.736 
L 109.233377 136.416 
L 109.233377 138.096 
L 109.233377 139.776 
L 109.233377 141.456 
L 109.233377 143.136 
L 109.233377 144.816 
L 109.233377 146.496 
L 109.233377 148.176 
L 109.233377 149.856 
L 109.233377 151.536 
L 109.233377 153.216 
L 109.233377 154.896 
L 109.233377 156.576 
L 109.233377 158.256 
L 109.233377 159.936 
L 109.233377 161.616 
L 109.233377 163.296 
L 109.233377 164.976 
L 109.233377 166.656 
L 109.233377 168.336 
L 109.233377 170.016 
L 109.233377 171.696 
L 109.233377 173.376 
L 109.233377 175.056 
L 109.233377 176.736 
L 109.233377 178.416 
L 109.233377 180.096 
L 109.233377 181.776 
L 109.233377 183.456 
L 109.233377 185.136 
L 109.233377 186.816 
z
" clip-path="url(#p9a65a01d12)" style="fill: #d5224a"/>
    <path d="M 120.224284 186.816 
L 121.915193 186.816 
L 123.606102 186.816 
L 125.297011 186.816 
L 126.98792 186.816 
L 128.67883 186.816 
L 128.961636 186.816 
L 129.891138 185.136 
L 130.369739 184.311776 
L 130.890706 183.456 
L 131.967841 181.776 
L 132.060648 181.635683 
L 133.131115 180.096 
L 133.751557 179.246685 
L 134.390364 178.416 
L 135.442466 177.107056 
L 135.756914 176.736 
L 137.133375 175.174707 
L 137.243896 175.056 
L 138.824284 173.41744 
L 138.866569 173.376 
L 140.515193 171.810353 
L 140.642825 171.696 
L 142.206102 170.333968 
L 142.593719 170.016 
L 143.897011 168.972968 
L 144.744226 168.336 
L 145.58792 167.71526 
L 147.124129 166.656 
L 147.27883 166.551316 
L 148.969739 165.460243 
L 149.769328 164.976 
L 150.660648 164.443853 
L 152.351557 163.494785 
L 152.723356 163.296 
L 154.042466 162.597956 
L 155.733375 161.761088 
L 156.039593 161.616 
L 157.424284 160.964321 
L 159.115193 160.217599 
L 159.784077 159.936 
L 160.806102 159.507225 
L 162.497011 158.833966 
L 164.039599 158.256 
L 164.18792 158.200455 
L 165.87883 157.587782 
L 167.569739 157.010629 
L 168.911245 156.576 
L 169.260648 156.462438 
L 170.951557 155.931037 
L 172.642466 155.427976 
L 174.333375 154.95105 
L 174.534373 154.896 
L 176.024284 154.485011 
L 177.715193 154.040246 
L 179.406102 153.616914 
L 181.086304 153.216 
L 181.097011 153.213419 
L 182.78792 152.815281 
L 184.47883 152.435041 
L 186.169739 152.071513 
L 187.860648 151.723621 
L 188.803792 151.536 
L 189.551557 151.385177 
L 191.242466 151.054266 
L 192.933375 150.736724 
L 192.933375 149.856 
L 192.933375 148.176 
L 192.933375 146.496 
L 192.933375 144.816 
L 192.933375 143.136 
L 192.933375 142.284234 
L 191.242466 142.477521 
L 189.551557 142.678945 
L 187.860648 142.889034 
L 186.169739 143.108356 
L 185.96176 143.136 
L 184.47883 143.329139 
L 182.78792 143.558867 
L 181.097011 143.799408 
L 179.406102 144.051538 
L 177.715193 144.31612 
L 176.024284 144.5941 
L 174.733271 144.816 
L 174.333375 144.883699 
L 172.642466 145.179394 
L 170.951557 145.491291 
L 169.260648 145.820761 
L 167.569739 146.169332 
L 166.069319 146.496 
L 165.87883 146.537068 
L 164.18792 146.914096 
L 162.497011 147.315063 
L 160.806102 147.742322 
L 159.196159 148.176 
L 159.115193 148.197714 
L 157.424284 148.667873 
L 155.733375 149.172228 
L 154.042466 149.714645 
L 153.621823 149.856 
L 152.351557 150.283763 
L 150.660648 150.893875 
L 149.018587 151.536 
L 148.969739 151.555228 
L 147.27883 152.251259 
L 145.58792 153.012037 
L 145.15984 153.216 
L 143.897011 153.826001 
L 142.206102 154.715951 
L 141.883875 154.896 
L 140.515193 155.67611 
L 139.072314 156.576 
L 138.824284 156.734419 
L 137.133375 157.889479 
L 136.636488 158.256 
L 135.442466 159.165167 
L 134.508725 159.936 
L 133.751557 160.584522 
L 132.636483 161.616 
L 132.060648 162.171773 
L 130.978365 163.296 
L 130.369739 163.959829 
L 129.501352 164.976 
L 128.67883 165.993919 
L 128.178751 166.656 
L 126.9888 168.336 
L 126.98792 168.337291 
L 125.913547 170.016 
L 125.297011 171.054126 
L 124.9381 171.696 
L 124.049972 173.376 
L 123.606102 174.271604 
L 123.238636 175.056 
L 122.495145 176.736 
L 121.915193 178.150338 
L 121.81187 178.416 
L 121.182247 180.096 
L 120.60061 181.776 
L 120.224284 182.932571 
L 120.06204 183.456 
L 119.562257 185.136 
L 119.097505 186.816 
z
M 26.601719 109.536 
L 27.224284 108.983348 
L 28.465604 107.856 
L 28.915193 107.230645 
L 29.662175 106.176 
L 30.247264 104.496 
L 30.247264 102.816 
L 29.662185 101.136 
L 28.915193 100.081342 
L 28.465616 99.456 
L 27.224284 98.328637 
L 26.601735 97.776 
L 25.533375 97.07908 
L 25.533375 97.776 
L 25.533375 99.456 
L 25.533375 101.136 
L 25.533375 102.816 
L 25.533375 104.496 
L 25.533375 106.176 
L 25.533375 107.856 
L 25.533375 109.536 
L 25.533375 110.232905 
z
M 186.169739 64.203623 
L 187.860648 64.422947 
L 189.551557 64.633035 
L 191.242466 64.83446 
L 192.933375 65.027746 
L 192.933375 64.176 
L 192.933375 62.496 
L 192.933375 60.816 
L 192.933375 59.136 
L 192.933375 57.456 
L 192.933375 56.575256 
L 191.242466 56.257714 
L 189.551557 55.926803 
L 188.803889 55.776 
L 187.860648 55.588359 
L 186.169739 55.240466 
L 184.47883 54.876939 
L 182.78792 54.496697 
L 181.097011 54.09856 
L 181.08639 54.096 
L 179.406102 53.695066 
L 177.715193 53.271734 
L 176.024284 52.826967 
L 174.534444 52.416 
L 174.333375 52.360931 
L 172.642466 51.884004 
L 170.951557 51.380943 
L 169.260648 50.849541 
L 168.911307 50.736 
L 167.569739 50.301353 
L 165.87883 49.724199 
L 164.18792 49.111526 
L 164.039651 49.056 
L 162.497011 48.478017 
L 160.806102 47.804758 
L 159.78411 47.376 
L 159.115193 47.094389 
L 157.424284 46.347665 
L 156.039618 45.696 
L 155.733375 45.5509 
L 154.042466 44.714033 
L 152.723379 44.016 
L 152.351557 43.817202 
L 150.660648 42.868135 
L 149.769348 42.336 
L 148.969739 41.851743 
L 147.27883 40.760669 
L 147.124152 40.656 
L 145.58792 39.596727 
L 144.744242 38.976 
L 143.897011 38.339019 
L 142.593736 37.296 
L 142.206102 36.978019 
L 140.642838 35.616 
L 140.515193 35.501635 
L 138.866581 33.936 
L 138.824284 33.894547 
L 137.24391 32.256 
L 137.133375 32.137278 
L 135.756927 30.576 
L 135.442466 30.20493 
L 134.390375 28.896 
L 133.751557 28.065301 
L 133.131126 27.216 
L 132.060648 25.6763 
L 131.967852 25.536 
L 130.890713 23.856 
L 130.369739 23.000211 
L 129.891145 22.176 
L 128.961642 20.496 
L 128.67883 20.496 
L 126.98792 20.496 
L 125.297011 20.496 
L 123.606102 20.496 
L 121.915193 20.496 
L 120.224284 20.496 
L 119.097509 20.496 
L 119.56226 22.176 
L 120.062045 23.856 
L 120.224284 24.379413 
L 120.600614 25.536 
L 121.182251 27.216 
L 121.811875 28.896 
L 121.915193 29.16165 
L 122.495152 30.576 
L 123.238643 32.256 
L 123.606102 33.040383 
L 124.049978 33.936 
L 124.938107 35.616 
L 125.297011 36.25786 
L 125.913556 37.296 
L 126.98792 38.974697 
L 126.988808 38.976 
L 128.178762 40.656 
L 128.67883 41.318066 
L 129.501363 42.336 
L 130.369739 43.352157 
L 130.978377 44.016 
L 132.060648 45.140216 
L 132.636495 45.696 
L 133.751557 46.727464 
L 134.508741 47.376 
L 135.442466 48.146818 
L 136.636514 49.056 
L 137.133375 49.422502 
L 138.824284 50.577561 
L 139.072344 50.736 
L 140.515193 51.63587 
L 141.883913 52.416 
L 142.206102 52.596028 
L 143.897011 53.485979 
L 145.159883 54.096 
L 145.58792 54.299942 
L 147.27883 55.06072 
L 148.969739 55.756751 
L 149.018639 55.776 
L 150.660648 56.418105 
L 152.351557 57.028217 
L 153.621886 57.456 
L 154.042466 57.597334 
L 155.733375 58.139752 
L 157.424284 58.644107 
L 159.115193 59.114267 
L 159.196228 59.136 
L 160.806102 59.569659 
L 162.497011 59.996918 
L 164.18792 60.397885 
L 165.87883 60.774913 
L 166.069408 60.816 
L 167.569739 61.142648 
L 169.260648 61.491219 
L 170.951557 61.820689 
L 172.642466 62.132587 
L 174.333375 62.428281 
L 174.733388 62.496 
L 176.024284 62.71788 
L 177.715193 62.99586 
L 179.406102 63.260443 
L 181.097011 63.512573 
L 182.78792 63.753113 
L 184.47883 63.982842 
L 185.961915 64.176 
z
" clip-path="url(#p9a65a01d12)" style="fill: #e43841"/>
    <path d="M 130.369739 186.816 
L 132.060648 186.816 
L 133.751557 186.816 
L 135.442466 186.816 
L 137.133375 186.816 
L 138.824284 186.816 
L 138.825766 186.816 
L 140.220019 185.136 
L 140.515193 184.792531 
L 141.719372 183.456 
L 142.206102 182.932573 
L 143.335079 181.776 
L 143.897011 181.216507 
L 145.079988 180.096 
L 145.58792 179.627074 
L 146.968861 178.416 
L 147.27883 178.150338 
L 148.969739 176.774095 
L 149.018684 176.736 
L 150.660648 175.481696 
L 151.249155 175.056 
L 152.351557 174.271604 
L 153.683164 173.376 
L 154.042466 173.137791 
L 155.733375 172.066187 
L 156.347548 171.696 
L 157.424284 171.054125 
L 159.115193 170.102052 
L 159.27389 170.016 
L 160.806102 169.191807 
L 162.497011 168.33729 
L 162.499649 168.336 
L 164.18792 167.514283 
L 165.87883 166.740379 
L 166.069503 166.656 
L 167.569739 165.993919 
L 169.260648 165.287359 
L 170.037298 164.976 
L 170.951557 164.609613 
L 172.642466 163.959825 
L 174.333375 163.343796 
L 174.468345 163.296 
L 176.024284 162.743612 
L 177.715193 162.171771 
L 179.406102 161.627489 
L 179.442694 161.616 
L 181.097011 161.093902 
L 182.78792 160.584521 
L 184.47883 160.098036 
L 185.059421 159.936 
L 186.169739 159.62375 
L 187.860648 159.165165 
L 189.551557 158.725889 
L 191.242466 158.304726 
L 191.442702 158.256 
L 192.933375 157.889476 
L 192.933375 156.576 
L 192.933375 154.896 
L 192.933375 153.216 
L 192.933375 151.536 
L 192.933375 150.736724 
L 191.242466 151.054266 
L 189.551557 151.385177 
L 188.803792 151.536 
L 187.860648 151.723621 
L 186.169739 152.071513 
L 184.47883 152.435041 
L 182.78792 152.815281 
L 181.097011 153.213419 
L 181.086304 153.216 
L 179.406102 153.616914 
L 177.715193 154.040246 
L 176.024284 154.485011 
L 174.534373 154.896 
L 174.333375 154.95105 
L 172.642466 155.427976 
L 170.951557 155.931037 
L 169.260648 156.462438 
L 168.911245 156.576 
L 167.569739 157.010629 
L 165.87883 157.587782 
L 164.18792 158.200455 
L 164.039599 158.256 
L 162.497011 158.833966 
L 160.806102 159.507225 
L 159.784077 159.936 
L 159.115193 160.217599 
L 157.424284 160.964321 
L 156.039593 161.616 
L 155.733375 161.761088 
L 154.042466 162.597956 
L 152.723356 163.296 
L 152.351557 163.494785 
L 150.660648 164.443853 
L 149.769328 164.976 
L 148.969739 165.460243 
L 147.27883 166.551316 
L 147.124129 166.656 
L 145.58792 167.71526 
L 144.744226 168.336 
L 143.897011 168.972968 
L 142.593719 170.016 
L 142.206102 170.333968 
L 140.642825 171.696 
L 140.515193 171.810353 
L 138.866569 173.376 
L 138.824284 173.41744 
L 137.243896 175.056 
L 137.133375 175.174707 
L 135.756914 176.736 
L 135.442466 177.107056 
L 134.390364 178.416 
L 133.751557 179.246685 
L 133.131115 180.096 
L 132.060648 181.635683 
L 131.967841 181.776 
L 130.890706 183.456 
L 130.369739 184.311776 
L 129.891138 185.136 
L 128.961636 186.816 
z
M 189.551557 55.926803 
L 191.242466 56.257714 
L 192.933375 56.575256 
L 192.933375 55.776 
L 192.933375 54.096 
L 192.933375 52.416 
L 192.933375 50.736 
L 192.933375 49.422505 
L 191.442781 49.056 
L 191.242466 49.007255 
L 189.551557 48.586094 
L 187.860648 48.146819 
L 186.169739 47.688235 
L 185.05947 47.376 
L 184.47883 47.213951 
L 182.78792 46.727466 
L 181.097011 46.218087 
L 179.442728 45.696 
L 179.406102 45.684501 
L 177.715193 45.140217 
L 176.024284 44.568376 
L 174.468382 44.016 
L 174.333375 43.968191 
L 172.642466 43.352162 
L 170.951557 42.702375 
L 170.037327 42.336 
L 169.260648 42.024629 
L 167.569739 41.318068 
L 166.069534 40.656 
L 165.87883 40.571607 
L 164.18792 39.797704 
L 162.49967 38.976 
L 162.497011 38.974699 
L 160.806102 38.120181 
L 159.273917 37.296 
L 159.115193 37.209933 
L 157.424284 36.257862 
L 156.347571 35.616 
L 155.733375 35.2458 
L 154.042466 34.174197 
L 153.683181 33.936 
L 152.351557 33.040383 
L 151.249175 32.256 
L 150.660648 31.83029 
L 149.018703 30.576 
L 148.969739 30.53789 
L 147.27883 29.161649 
L 146.968876 28.896 
L 145.58792 27.684911 
L 145.080004 27.216 
L 143.897011 26.095479 
L 143.335091 25.536 
L 142.206102 24.379414 
L 141.719384 23.856 
L 140.515193 22.519456 
L 140.220031 22.176 
L 138.825775 20.496 
L 138.824284 20.496 
L 137.133375 20.496 
L 135.442466 20.496 
L 133.751557 20.496 
L 132.060648 20.496 
L 130.369739 20.496 
L 128.961642 20.496 
L 129.891145 22.176 
L 130.369739 23.000211 
L 130.890713 23.856 
L 131.967852 25.536 
L 132.060648 25.6763 
L 133.131126 27.216 
L 133.751557 28.065301 
L 134.390375 28.896 
L 135.442466 30.20493 
L 135.756927 30.576 
L 137.133375 32.137278 
L 137.24391 32.256 
L 138.824284 33.894547 
L 138.866581 33.936 
L 140.515193 35.501635 
L 140.642838 35.616 
L 142.206102 36.978019 
L 142.593736 37.296 
L 143.897011 38.339019 
L 144.744242 38.976 
L 145.58792 39.596727 
L 147.124152 40.656 
L 147.27883 40.760669 
L 148.969739 41.851743 
L 149.769348 42.336 
L 150.660648 42.868135 
L 152.351557 43.817202 
L 152.723379 44.016 
L 154.042466 44.714033 
L 155.733375 45.5509 
L 156.039618 45.696 
L 157.424284 46.347665 
L 159.115193 47.094389 
L 159.78411 47.376 
L 160.806102 47.804758 
L 162.497011 48.478017 
L 164.039651 49.056 
L 164.18792 49.111526 
L 165.87883 49.724199 
L 167.569739 50.301353 
L 168.911307 50.736 
L 169.260648 50.849541 
L 170.951557 51.380943 
L 172.642466 51.884004 
L 174.333375 52.360931 
L 174.534444 52.416 
L 176.024284 52.826967 
L 177.715193 53.271734 
L 179.406102 53.695066 
L 181.08639 54.096 
L 181.097011 54.09856 
L 182.78792 54.496697 
L 184.47883 54.876939 
L 186.169739 55.240466 
L 187.860648 55.588359 
L 188.803889 55.776 
z
" clip-path="url(#p9a65a01d12)" style="fill: #ee523f"/>
    <path d="M 140.515193 186.816 
L 142.206102 186.816 
L 143.897011 186.816 
L 145.58792 186.816 
L 147.27883 186.816 
L 148.689894 186.816 
L 148.969739 186.553052 
L 150.5489 185.136 
L 150.660648 185.037813 
L 152.351557 183.614211 
L 152.548036 183.456 
L 154.042466 182.273413 
L 154.702309 181.776 
L 155.733375 181.010726 
L 157.028856 180.096 
L 157.424284 179.820602 
L 159.115193 178.692224 
L 159.547356 178.416 
L 160.806102 177.620144 
L 162.28045 176.736 
L 162.497011 176.607331 
L 164.18792 175.637553 
L 165.254415 175.056 
L 165.87883 174.717807 
L 167.569739 173.83833 
L 168.499753 173.376 
L 169.260648 172.999434 
L 170.951557 172.195852 
L 172.052266 171.696 
L 172.642466 171.428605 
L 174.333375 170.68937 
L 175.954053 170.016 
L 176.024284 169.98683 
L 177.715193 169.302575 
L 179.406102 168.651298 
L 180.25507 168.336 
L 181.097011 168.022633 
L 182.78792 167.414948 
L 184.47883 166.834579 
L 185.014871 166.656 
L 186.169739 166.269551 
L 187.860648 165.72421 
L 189.551557 165.201828 
L 190.305275 164.976 
L 191.242466 164.69335 
L 192.933375 164.199394 
L 192.933375 163.296 
L 192.933375 161.616 
L 192.933375 159.936 
L 192.933375 158.256 
L 192.933375 157.889476 
L 191.442702 158.256 
L 191.242466 158.304726 
L 189.551557 158.725889 
L 187.860648 159.165165 
L 186.169739 159.62375 
L 185.059421 159.936 
L 184.47883 160.098036 
L 182.78792 160.584521 
L 181.097011 161.093902 
L 179.442694 161.616 
L 179.406102 161.627489 
L 177.715193 162.171771 
L 176.024284 162.743612 
L 174.468345 163.296 
L 174.333375 163.343796 
L 172.642466 163.959825 
L 170.951557 164.609613 
L 170.037298 164.976 
L 169.260648 165.287359 
L 167.569739 165.993919 
L 166.069503 166.656 
L 165.87883 166.740379 
L 164.18792 167.514283 
L 162.499649 168.336 
L 162.497011 168.33729 
L 160.806102 169.191807 
L 159.27389 170.016 
L 159.115193 170.102052 
L 157.424284 171.054125 
L 156.347548 171.696 
L 155.733375 172.066187 
L 154.042466 173.137791 
L 153.683164 173.376 
L 152.351557 174.271604 
L 151.249155 175.056 
L 150.660648 175.481696 
L 149.018684 176.736 
L 148.969739 176.774095 
L 147.27883 178.150338 
L 146.968861 178.416 
L 145.58792 179.627074 
L 145.079988 180.096 
L 143.897011 181.216507 
L 143.335079 181.776 
L 142.206102 182.932573 
L 141.719372 183.456 
L 140.515193 184.792531 
L 140.220019 185.136 
L 138.825766 186.816 
z
M 192.933375 49.422505 
L 192.933375 49.056 
L 192.933375 47.376 
L 192.933375 45.696 
L 192.933375 44.016 
L 192.933375 43.112592 
L 191.242466 42.618638 
L 190.305317 42.336 
L 189.551557 42.110159 
L 187.860648 41.587777 
L 186.169739 41.042435 
L 185.014916 40.656 
L 184.47883 40.477407 
L 182.78792 39.897038 
L 181.097011 39.289355 
L 180.255102 38.976 
L 179.406102 38.660691 
L 177.715193 38.009412 
L 176.024284 37.325157 
L 175.954085 37.296 
L 174.333375 36.622616 
L 172.642466 35.883381 
L 172.052296 35.616 
L 170.951557 35.116135 
L 169.260648 34.312552 
L 168.499782 33.936 
L 167.569739 33.473656 
L 165.87883 32.594179 
L 165.254441 32.256 
L 164.18792 31.674432 
L 162.497011 30.704654 
L 162.280475 30.576 
L 160.806102 29.691842 
L 159.547376 28.896 
L 159.115193 28.619763 
L 157.424284 27.491382 
L 157.028878 27.216 
L 155.733375 26.301259 
L 154.70233 25.536 
L 154.042466 25.038572 
L 152.548054 23.856 
L 152.351557 23.697775 
L 150.660648 22.274174 
L 150.548915 22.176 
L 148.969739 20.758935 
L 148.689909 20.496 
L 147.27883 20.496 
L 145.58792 20.496 
L 143.897011 20.496 
L 142.206102 20.496 
L 140.515193 20.496 
L 138.825775 20.496 
L 140.220031 22.176 
L 140.515193 22.519456 
L 141.719384 23.856 
L 142.206102 24.379414 
L 143.335091 25.536 
L 143.897011 26.095479 
L 145.080004 27.216 
L 145.58792 27.684911 
L 146.968876 28.896 
L 147.27883 29.161649 
L 148.969739 30.53789 
L 149.018703 30.576 
L 150.660648 31.83029 
L 151.249175 32.256 
L 152.351557 33.040383 
L 153.683181 33.936 
L 154.042466 34.174197 
L 155.733375 35.2458 
L 156.347571 35.616 
L 157.424284 36.257862 
L 159.115193 37.209933 
L 159.273917 37.296 
L 160.806102 38.120181 
L 162.497011 38.974699 
L 162.49967 38.976 
L 164.18792 39.797704 
L 165.87883 40.571607 
L 166.069534 40.656 
L 167.569739 41.318068 
L 169.260648 42.024629 
L 170.037327 42.336 
L 170.951557 42.702375 
L 172.642466 43.352162 
L 174.333375 43.968191 
L 174.468382 44.016 
L 176.024284 44.568376 
L 177.715193 45.140217 
L 179.406102 45.684501 
L 179.442728 45.696 
L 181.097011 46.218087 
L 182.78792 46.727466 
L 184.47883 47.213951 
L 185.05947 47.376 
L 186.169739 47.688235 
L 187.860648 48.146819 
L 189.551557 48.586094 
L 191.242466 49.007255 
L 191.442781 49.056 
z
" clip-path="url(#p9a65a01d12)" style="fill: #f26d4b"/>
    <path d="M 148.969739 186.816 
L 150.660648 186.816 
L 152.351557 186.816 
L 154.042466 186.816 
L 155.733375 186.816 
L 157.424284 186.816 
L 158.554026 186.816 
L 159.115193 186.39596 
L 160.806102 185.185557 
L 160.877779 185.136 
L 162.497011 184.029426 
L 163.3767 183.456 
L 164.18792 182.932571 
L 165.87883 181.889726 
L 166.069544 181.776 
L 167.569739 180.888451 
L 168.97772 180.096 
L 169.260648 179.937808 
L 170.951557 179.022618 
L 172.125839 178.416 
L 172.642466 178.15033 
L 174.333375 177.310291 
L 175.542217 176.736 
L 176.024284 176.50759 
L 177.715193 175.731835 
L 179.259669 175.056 
L 179.406102 174.991978 
L 181.097011 174.271603 
L 182.78792 173.584342 
L 183.316349 173.376 
L 184.47883 172.917046 
L 186.169739 172.274224 
L 187.756991 171.696 
L 187.860648 171.658127 
L 189.551557 171.054124 
L 191.242466 170.475027 
L 192.634227 170.016 
L 192.933375 169.916851 
L 192.933375 168.336 
L 192.933375 166.656 
L 192.933375 164.976 
L 192.933375 164.199394 
L 191.242466 164.69335 
L 190.305275 164.976 
L 189.551557 165.201828 
L 187.860648 165.72421 
L 186.169739 166.269551 
L 185.014871 166.656 
L 184.47883 166.834579 
L 182.78792 167.414948 
L 181.097011 168.022633 
L 180.25507 168.336 
L 179.406102 168.651298 
L 177.715193 169.302575 
L 176.024284 169.98683 
L 175.954053 170.016 
L 174.333375 170.68937 
L 172.642466 171.428605 
L 172.052266 171.696 
L 170.951557 172.195852 
L 169.260648 172.999434 
L 168.499753 173.376 
L 167.569739 173.83833 
L 165.87883 174.717807 
L 165.254415 175.056 
L 164.18792 175.637553 
L 162.497011 176.607331 
L 162.28045 176.736 
L 160.806102 177.620144 
L 159.547356 178.416 
L 159.115193 178.692224 
L 157.424284 179.820602 
L 157.028856 180.096 
L 155.733375 181.010726 
L 154.702309 181.776 
L 154.042466 182.273413 
L 152.548036 183.456 
L 152.351557 183.614211 
L 150.660648 185.037813 
L 150.5489 185.136 
L 148.969739 186.553052 
L 148.689894 186.816 
z
M 191.242466 42.618638 
L 192.933375 43.112592 
L 192.933375 42.336 
L 192.933375 40.656 
L 192.933375 38.976 
L 192.933375 37.395136 
L 192.634267 37.296 
L 191.242466 36.83696 
L 189.551557 36.257863 
L 187.860648 35.65386 
L 187.757028 35.616 
L 186.169739 35.037764 
L 184.47883 34.394942 
L 183.316382 33.936 
L 182.78792 33.727645 
L 181.097011 33.040384 
L 179.406102 32.320007 
L 179.259702 32.256 
L 177.715193 31.58015 
L 176.024284 30.804396 
L 175.542249 30.576 
L 174.333375 30.001694 
L 172.642466 29.161654 
L 172.125867 28.896 
L 170.951557 28.289369 
L 169.260648 27.374177 
L 168.977748 27.216 
L 167.569739 26.423536 
L 166.069565 25.536 
L 165.87883 25.422261 
L 164.18792 24.379418 
L 163.376718 23.856 
L 162.497011 23.28256 
L 160.877798 22.176 
L 160.806102 22.12643 
L 159.115193 20.916029 
L 158.55404 20.496 
L 157.424284 20.496 
L 155.733375 20.496 
L 154.042466 20.496 
L 152.351557 20.496 
L 150.660648 20.496 
L 148.969739 20.496 
L 148.689909 20.496 
L 148.969739 20.758935 
L 150.548915 22.176 
L 150.660648 22.274174 
L 152.351557 23.697775 
L 152.548054 23.856 
L 154.042466 25.038572 
L 154.70233 25.536 
L 155.733375 26.301259 
L 157.028878 27.216 
L 157.424284 27.491382 
L 159.115193 28.619763 
L 159.547376 28.896 
L 160.806102 29.691842 
L 162.280475 30.576 
L 162.497011 30.704654 
L 164.18792 31.674432 
L 165.254441 32.256 
L 165.87883 32.594179 
L 167.569739 33.473656 
L 168.499782 33.936 
L 169.260648 34.312552 
L 170.951557 35.116135 
L 172.052296 35.616 
L 172.642466 35.883381 
L 174.333375 36.622616 
L 175.954085 37.296 
L 176.024284 37.325157 
L 177.715193 38.009412 
L 179.406102 38.660691 
L 180.255102 38.976 
L 181.097011 39.289355 
L 182.78792 39.897038 
L 184.47883 40.477407 
L 185.014916 40.656 
L 186.169739 41.042435 
L 187.860648 41.587777 
L 189.551557 42.110159 
L 190.305317 42.336 
z
" clip-path="url(#p9a65a01d12)" style="fill: #f58860"/>
    <path d="M 159.115193 186.816 
L 160.806102 186.816 
L 162.497011 186.816 
L 164.18792 186.816 
L 165.87883 186.816 
L 167.569739 186.816 
L 168.418149 186.816 
L 169.260648 186.291961 
L 170.951557 185.28338 
L 171.206653 185.136 
L 172.642466 184.311771 
L 174.205366 183.456 
L 174.333375 183.386276 
L 176.024284 182.490349 
L 177.436773 181.776 
L 177.715193 181.635683 
L 179.406102 180.807422 
L 180.926599 180.096 
L 181.097011 180.016412 
L 182.78792 179.246682 
L 184.47883 178.511549 
L 184.704332 178.416 
L 186.169739 177.794929 
L 187.860648 177.107054 
L 188.803987 176.736 
L 189.551557 176.441448 
L 191.242466 175.795016 
L 192.933375 175.174704 
L 192.933375 175.056 
L 192.933375 173.376 
L 192.933375 171.696 
L 192.933375 170.016 
L 192.933375 169.916851 
L 192.634227 170.016 
L 191.242466 170.475027 
L 189.551557 171.054124 
L 187.860648 171.658127 
L 187.756991 171.696 
L 186.169739 172.274224 
L 184.47883 172.917046 
L 183.316349 173.376 
L 182.78792 173.584342 
L 181.097011 174.271603 
L 179.406102 174.991978 
L 179.259669 175.056 
L 177.715193 175.731835 
L 176.024284 176.50759 
L 175.542217 176.736 
L 174.333375 177.310291 
L 172.642466 178.15033 
L 172.125839 178.416 
L 170.951557 179.022618 
L 169.260648 179.937808 
L 168.97772 180.096 
L 167.569739 180.888451 
L 166.069544 181.776 
L 165.87883 181.889726 
L 164.18792 182.932571 
L 163.3767 183.456 
L 162.497011 184.029426 
L 160.877779 185.136 
L 160.806102 185.185557 
L 159.115193 186.39596 
L 158.554026 186.816 
z
M 192.933375 37.395136 
L 192.933375 37.296 
L 192.933375 35.616 
L 192.933375 33.936 
L 192.933375 32.256 
L 192.933375 32.137282 
L 191.242466 31.516969 
L 189.551557 30.870538 
L 188.804025 30.576 
L 187.860648 30.204932 
L 186.169739 29.517056 
L 184.704368 28.896 
L 184.47883 28.800436 
L 182.78792 28.065303 
L 181.097011 27.295574 
L 180.926628 27.216 
L 179.406102 26.504565 
L 177.715193 25.676303 
L 177.4368 25.536 
L 176.024284 24.821639 
L 174.333375 23.925713 
L 174.205387 23.856 
L 172.642466 23.000215 
L 171.206677 22.176 
L 170.951557 22.028606 
L 169.260648 21.020027 
L 168.418168 20.496 
L 167.569739 20.496 
L 165.87883 20.496 
L 164.18792 20.496 
L 162.497011 20.496 
L 160.806102 20.496 
L 159.115193 20.496 
L 158.55404 20.496 
L 159.115193 20.916029 
L 160.806102 22.12643 
L 160.877798 22.176 
L 162.497011 23.28256 
L 163.376718 23.856 
L 164.18792 24.379418 
L 165.87883 25.422261 
L 166.069565 25.536 
L 167.569739 26.423536 
L 168.977748 27.216 
L 169.260648 27.374177 
L 170.951557 28.289369 
L 172.125867 28.896 
L 172.642466 29.161654 
L 174.333375 30.001694 
L 175.542249 30.576 
L 176.024284 30.804396 
L 177.715193 31.58015 
L 179.259702 32.256 
L 179.406102 32.320007 
L 181.097011 33.040384 
L 182.78792 33.727645 
L 183.316382 33.936 
L 184.47883 34.394942 
L 186.169739 35.037764 
L 187.757028 35.616 
L 187.860648 35.65386 
L 189.551557 36.257863 
L 191.242466 36.83696 
L 192.634267 37.296 
z
" clip-path="url(#p9a65a01d12)" style="fill: #f6a077"/>
    <path d="M 169.260648 186.816 
L 170.951557 186.816 
L 172.642466 186.816 
L 174.333375 186.816 
L 176.024284 186.816 
L 177.715193 186.816 
L 178.282276 186.816 
L 179.406102 186.218039 
L 181.097011 185.353589 
L 181.53554 185.136 
L 182.78792 184.516232 
L 184.47883 183.712181 
L 185.034025 183.456 
L 186.169739 182.932568 
L 187.860648 182.181272 
L 188.804007 181.776 
L 189.551557 181.454774 
L 191.242466 180.749786 
L 192.875464 180.096 
L 192.933375 180.072778 
L 192.933375 178.416 
L 192.933375 176.736 
L 192.933375 175.174704 
L 191.242466 175.795016 
L 189.551557 176.441448 
L 188.803987 176.736 
L 187.860648 177.107054 
L 186.169739 177.794929 
L 184.704332 178.416 
L 184.47883 178.511549 
L 182.78792 179.246682 
L 181.097011 180.016412 
L 180.926599 180.096 
L 179.406102 180.807422 
L 177.715193 181.635683 
L 177.436773 181.776 
L 176.024284 182.490349 
L 174.333375 183.386276 
L 174.205366 183.456 
L 172.642466 184.311771 
L 171.206653 185.136 
L 170.951557 185.28338 
L 169.260648 186.291961 
L 168.418149 186.816 
z
M 189.551557 30.870538 
L 191.242466 31.516969 
L 192.933375 32.137282 
L 192.933375 30.576 
L 192.933375 28.896 
L 192.933375 27.239208 
L 192.875498 27.216 
L 191.242466 26.562201 
L 189.551557 25.857214 
L 188.804036 25.536 
L 187.860648 25.130714 
L 186.169739 24.37942 
L 185.034051 23.856 
L 184.47883 23.599807 
L 182.78792 22.795756 
L 181.535564 22.176 
L 181.097011 21.958399 
L 179.406102 21.093947 
L 178.282301 20.496 
L 177.715193 20.496 
L 176.024284 20.496 
L 174.333375 20.496 
L 172.642466 20.496 
L 170.951557 20.496 
L 169.260648 20.496 
L 168.418168 20.496 
L 169.260648 21.020027 
L 170.951557 22.028606 
L 171.206677 22.176 
L 172.642466 23.000215 
L 174.205387 23.856 
L 174.333375 23.925713 
L 176.024284 24.821639 
L 177.4368 25.536 
L 177.715193 25.676303 
L 179.406102 26.504565 
L 180.926628 27.216 
L 181.097011 27.295574 
L 182.78792 28.065303 
L 184.47883 28.800436 
L 184.704368 28.896 
L 186.169739 29.517056 
L 187.860648 30.204932 
L 188.804025 30.576 
z
" clip-path="url(#p9a65a01d12)" style="fill: #f6b691"/>
    <path d="M 179.406102 186.816 
L 181.097011 186.816 
L 182.78792 186.816 
L 184.47883 186.816 
L 186.169739 186.816 
L 187.860648 186.816 
L 188.146409 186.816 
L 189.551557 186.162794 
L 191.242466 185.406423 
L 191.86442 185.136 
L 192.933375 184.671126 
L 192.933375 183.456 
L 192.933375 181.776 
L 192.933375 180.096 
L 192.933375 180.072778 
L 192.875464 180.096 
L 191.242466 180.749786 
L 189.551557 181.454774 
L 188.804007 181.776 
L 187.860648 182.181272 
L 186.169739 182.932568 
L 185.034025 183.456 
L 184.47883 183.712181 
L 182.78792 184.516232 
L 181.53554 185.136 
L 181.097011 185.353589 
L 179.406102 186.218039 
L 178.282276 186.816 
z
M 192.933375 27.239208 
L 192.933375 27.216 
L 192.933375 25.536 
L 192.933375 23.856 
L 192.933375 22.640862 
L 191.864446 22.176 
L 191.242466 21.905566 
L 189.551557 21.149193 
L 188.146433 20.496 
L 187.860648 20.496 
L 186.169739 20.496 
L 184.47883 20.496 
L 182.78792 20.496 
L 181.097011 20.496 
L 179.406102 20.496 
L 178.282301 20.496 
L 179.406102 21.093947 
L 181.097011 21.958399 
L 181.535564 22.176 
L 182.78792 22.795756 
L 184.47883 23.599807 
L 185.034051 23.856 
L 186.169739 24.37942 
L 187.860648 25.130714 
L 188.804036 25.536 
L 189.551557 25.857214 
L 191.242466 26.562201 
L 192.875498 27.216 
z
" clip-path="url(#p9a65a01d12)" style="fill: #f7ccaf"/>
    <path d="M 189.551557 186.816 
L 191.242466 186.816 
L 192.933375 186.816 
L 192.933375 185.136 
L 192.933375 184.671126 
L 191.86442 185.136 
L 191.242466 185.406423 
L 189.551557 186.162794 
L 188.146409 186.816 
z
M 192.933375 22.640862 
L 192.933375 22.176 
L 192.933375 20.496 
L 191.242466 20.496 
L 189.551557 20.496 
L 188.146433 20.496 
L 189.551557 21.149193 
L 191.242466 21.905566 
L 191.864446 22.176 
z
" clip-path="url(#p9a65a01d12)" style="fill: #f9e0cd"/>
   </g>
   <g id="patch_3">
    <path d="M 25.533375 186.816 
L 25.533375 20.496 
" style="fill: none; stroke: #262626; stroke-linejoin: miter; stroke-linecap: square"/>
   </g>
   <g id="patch_4">
    <path d="M 192.933375 186.816 
L 192.933375 20.496 
" style="fill: none; stroke: #262626; stroke-linejoin: miter; stroke-linecap: square"/>
   </g>
   <g id="patch_5">
    <path d="M 25.533375 186.816 
L 192.933375 186.816 
" style="fill: none; stroke: #262626; stroke-linejoin: miter; stroke-linecap: square"/>
   </g>
   <g id="patch_6">
    <path d="M 25.533375 20.496 
L 192.933375 20.496 
" style="fill: none; stroke: #262626; stroke-linejoin: miter; stroke-linecap: square"/>
   </g>
   <g id="text_15">
    <!-- $\psi_{8} = \phi_{11}\otimes \phi_{22}$ -->
    <g style="fill: #262626" transform="translate(76.833375 14.496) scale(0.096 -0.096)">
     <defs>
      <path id="DejaVuSans-Oblique-3c8" d="M 1591 -78 
Q 891 38 616 341 
Q 278 713 425 1472 
L 819 3500 
L 1400 3500 
L 1009 1494 
Q 900 922 1119 684 
Q 1313 478 1691 434 
L 2284 3500 
L 2856 3500 
L 2263 438 
Q 2681 481 2928 688 
Q 3247 950 3353 1497 
L 3741 3500 
L 4322 3500 
L 3928 1475 
Q 3775 688 3300 344 
Q 2872 34 2163 -75 
L 1919 -1331 
L 1347 -1331 
L 1591 -78 
z
" transform="scale(0.015625)"/>
      <path id="DejaVuSans-38" d="M 2034 2216 
Q 1584 2216 1326 1975 
Q 1069 1734 1069 1313 
Q 1069 891 1326 650 
Q 1584 409 2034 409 
Q 2484 409 2743 651 
Q 3003 894 3003 1313 
Q 3003 1734 2745 1975 
Q 2488 2216 2034 2216 
z
M 1403 2484 
Q 997 2584 770 2862 
Q 544 3141 544 3541 
Q 544 4100 942 4425 
Q 1341 4750 2034 4750 
Q 2731 4750 3128 4425 
Q 3525 4100 3525 3541 
Q 3525 3141 3298 2862 
Q 3072 2584 2669 2484 
Q 3125 2378 3379 2068 
Q 3634 1759 3634 1313 
Q 3634 634 3220 271 
Q 2806 -91 2034 -91 
Q 1263 -91 848 271 
Q 434 634 434 1313 
Q 434 1759 690 2068 
Q 947 2378 1403 2484 
z
M 1172 3481 
Q 1172 3119 1398 2916 
Q 1625 2713 2034 2713 
Q 2441 2713 2670 2916 
Q 2900 3119 2900 3481 
Q 2900 3844 2670 4047 
Q 2441 4250 2034 4250 
Q 1625 4250 1398 4047 
Q 1172 3844 1172 3481 
z
" transform="scale(0.015625)"/>
      <path id="DejaVuSans-3d" d="M 678 2906 
L 4684 2906 
L 4684 2381 
L 678 2381 
L 678 2906 
z
M 678 1631 
L 4684 1631 
L 4684 1100 
L 678 1100 
L 678 1631 
z
" transform="scale(0.015625)"/>
      <path id="DejaVuSans-Oblique-3d5" d="M 2991 4863 
L 2738 3572 
Q 3363 3572 3684 3094 
Q 4016 2606 3850 1747 
Q 3681 888 3159 400 
Q 2653 -78 2028 -78 
L 1784 -1331 
L 1213 -1331 
L 1456 -78 
Q 834 -78 509 400 
Q 178 888 347 1747 
Q 513 2606 1034 3094 
Q 1544 3572 2166 3572 
L 2419 4863 
L 2991 4863 
z
M 2128 434 
Q 2481 434 2784 756 
Q 3116 1116 3244 1747 
Q 3369 2372 3169 2738 
Q 2991 3059 2638 3059 
L 2128 434 
z
M 1556 434 
L 2066 3059 
Q 1716 3059 1413 2738 
Q 1072 2372 953 1747 
Q 834 1116 1028 756 
Q 1203 434 1556 434 
z
" transform="scale(0.015625)"/>
      <path id="DejaVuSans-31" d="M 794 531 
L 1825 531 
L 1825 4091 
L 703 3866 
L 703 4441 
L 1819 4666 
L 2450 4666 
L 2450 531 
L 3481 531 
L 3481 0 
L 794 0 
L 794 531 
z
" transform="scale(0.015625)"/>
      <path id="DejaVuSans-2297" d="M 3306 3522 
Q 3016 3644 2681 3644 
Q 2347 3644 2056 3522 
Q 1769 3400 1531 3163 
Q 1291 2922 1172 2634 
Q 1053 2347 1053 2006 
Q 1053 1675 1172 1387 
Q 1291 1100 1531 859 
Q 1769 622 2056 500 
Q 2347 378 2681 378 
Q 3016 378 3306 500 
Q 3594 622 3831 859 
Q 4072 1100 4190 1387 
Q 4309 1675 4309 2006 
Q 4309 2347 4190 2634 
Q 4072 2922 3831 3163 
Q 3594 3400 3306 3522 
z
M 1878 3956 
Q 2250 4113 2681 4113 
Q 3113 4113 3484 3956 
Q 3856 3800 4163 3494 
Q 4472 3184 4625 2813 
Q 4778 2444 4778 2006 
Q 4778 1578 4625 1206 
Q 4472 838 4163 528 
Q 3856 222 3484 65 
Q 3113 -91 2681 -91 
Q 2250 -91 1878 65 
Q 1506 222 1200 528 
Q 891 838 738 1206 
Q 584 1578 584 2006 
Q 584 2444 738 2813 
Q 891 3184 1200 3494 
Q 1506 3800 1878 3956 
z
M 3847 2794 
L 3056 2006 
L 3844 1219 
L 3469 844 
L 2681 1631 
L 1894 841 
L 1516 1219 
L 2306 2006 
L 1519 2794 
L 1894 3169 
L 2681 2381 
L 3469 3172 
L 3847 2794 
z
" transform="scale(0.015625)"/>
      <path id="DejaVuSans-32" d="M 1228 531 
L 3431 531 
L 3431 0 
L 469 0 
L 469 531 
Q 828 903 1448 1529 
Q 2069 2156 2228 2338 
Q 2531 2678 2651 2914 
Q 2772 3150 2772 3378 
Q 2772 3750 2511 3984 
Q 2250 4219 1831 4219 
Q 1534 4219 1204 4116 
Q 875 4013 500 3803 
L 500 4441 
Q 881 4594 1212 4672 
Q 1544 4750 1819 4750 
Q 2544 4750 2975 4387 
Q 3406 4025 3406 3419 
Q 3406 3131 3298 2873 
Q 3191 2616 2906 2266 
Q 2828 2175 2409 1742 
Q 1991 1309 1228 531 
z
" transform="scale(0.015625)"/>
     </defs>
     <use xlink:href="#DejaVuSans-Oblique-3c8" transform="translate(0 0.015625)"/>
     <use xlink:href="#DejaVuSans-38" transform="translate(65.966797 -16.390625) scale(0.7)"/>
     <use xlink:href="#DejaVuSans-3d" transform="translate(132.719727 0.015625)"/>
     <use xlink:href="#DejaVuSans-Oblique-3d5" transform="translate(235.991211 0.015625)"/>
     <use xlink:href="#DejaVuSans-31" transform="translate(301.958008 -16.390625) scale(0.7)"/>
     <use xlink:href="#DejaVuSans-31" transform="translate(346.494141 -16.390625) scale(0.7)"/>
     <use xlink:href="#DejaVuSans-2297" transform="translate(413.24707 0.015625)"/>
     <use xlink:href="#DejaVuSans-Oblique-3d5" transform="translate(516.518555 0.015625)"/>
     <use xlink:href="#DejaVuSans-32" transform="translate(582.485352 -16.390625) scale(0.7)"/>
     <use xlink:href="#DejaVuSans-32" transform="translate(627.021484 -16.390625) scale(0.7)"/>
    </g>
   </g>
  </g>
 </g>
 <defs>
  <clipPath id="p9a65a01d12">
   <rect x="25.533375" y="20.496" width="167.4" height="166.32"/>
  </clipPath>
 </defs>
</svg>