<?xml version="1.0" encoding="utf-8" standalone="no"?>
<!DOCTYPE svg PUBLIC "-//W3C//DTD SVG 1.1//EN"
  "http://www.w3.org/Graphics/SVG/1.1/DTD/svg11.dtd">
<svg xmlns:xlink="http://www.w3.org/1999/xlink" width="387.76375pt" height="376.167375pt" viewBox="0 0 387.76375 376.167375" xmlns="http://www.w3.org/2000/svg" version="1.1">
 <metadata>
  <rdf:RDF xmlns:dc="http://purl.org/dc/elements/1.1/" xmlns:cc="http://creativecommons.org/ns#" xmlns:rdf="http://www.w3.org/1999/02/22-rdf-syntax-ns#">
   <cc:Work>
    <dc:type rdf:resource="http://purl.org/dc/dcmitype/StillImage"/>
    <dc:date>2025-01-01T21:31:38.627746</dc:date>
    <dc:format>image/svg+xml</dc:format>
    <dc:creator>
     <cc:Agent>
      <dc:title>Matplotlib v3.9.0, https://matplotlib.org/</dc:title>
     </cc:Agent>
    </dc:creator>
   </cc:Work>
  </rdf:RDF>
 </metadata>
 <defs>
  <style type="text/css">*{stroke-linejoin: round; stroke-linecap: butt}</style>
 </defs>
 <g id="figure_1">
  <g id="patch_1">
   <path d="M 0 376.167375 
L 387.76375 376.167375 
L 387.76375 0 
L 0 0 
z
" style="fill: #ffffff"/>
  </g>
  <g id="axes_1">
   <g id="patch_2">
    <path d="M 45.76375 339.84 
L 380.56375 339.84 
L 380.56375 7.2 
L 45.76375 7.2 
z
" style="fill: #ffffff"/>
   </g>
   <g id="matplotlib.axis_1">
    <g id="xtick_1">
     <g id="line2d_1">
      <defs>
       <path id="m89b5478174" d="M 0 0 
L 0 4.8 
" style="stroke: #262626"/>
      </defs>
      <g>
       <use xlink:href="#m89b5478174" x="53.343055" y="339.84" style="fill: #262626; stroke: #262626"/>
      </g>
     </g>
     <g id="text_1">
      <!-- −1.5 -->
      <g style="fill: #262626" transform="translate(44.65718 354.438875) scale(0.088 -0.088)">
       <defs>
        <path id="ArialMT-2212" d="M 3381 1997 
L 356 1997 
L 356 2522 
L 3381 2522 
L 3381 1997 
z
" transform="scale(0.015625)"/>
        <path id="ArialMT-31" d="M 2384 0 
L 1822 0 
L 1822 3584 
Q 1619 3391 1289 3197 
Q 959 3003 697 2906 
L 697 3450 
Q 1169 3672 1522 3987 
Q 1875 4303 2022 4600 
L 2384 4600 
L 2384 0 
z
" transform="scale(0.015625)"/>
        <path id="ArialMT-2e" d="M 581 0 
L 581 641 
L 1222 641 
L 1222 0 
L 581 0 
z
" transform="scale(0.015625)"/>
        <path id="ArialMT-35" d="M 266 1200 
L 856 1250 
Q 922 819 1161 601 
Q 1400 384 1738 384 
Q 2144 384 2425 690 
Q 2706 997 2706 1503 
Q 2706 1984 2436 2262 
Q 2166 2541 1728 2541 
Q 1456 2541 1237 2417 
Q 1019 2294 894 2097 
L 366 2166 
L 809 4519 
L 3088 4519 
L 3088 3981 
L 1259 3981 
L 1013 2750 
Q 1425 3038 1878 3038 
Q 2478 3038 2890 2622 
Q 3303 2206 3303 1553 
Q 3303 931 2941 478 
Q 2500 -78 1738 -78 
Q 1113 -78 717 272 
Q 322 622 266 1200 
z
" transform="scale(0.015625)"/>
       </defs>
       <use xlink:href="#ArialMT-2212"/>
       <use xlink:href="#ArialMT-31" x="58.398438"/>
       <use xlink:href="#ArialMT-2e" x="114.013672"/>
       <use xlink:href="#ArialMT-35" x="141.796875"/>
      </g>
     </g>
    </g>
    <g id="xtick_2">
     <g id="line2d_2">
      <g>
       <use xlink:href="#m89b5478174" x="110.442646" y="339.84" style="fill: #262626; stroke: #262626"/>
      </g>
     </g>
     <g id="text_2">
      <!-- −1.0 -->
      <g style="fill: #262626" transform="translate(101.756771 354.438875) scale(0.088 -0.088)">
       <defs>
        <path id="ArialMT-30" d="M 266 2259 
Q 266 3072 433 3567 
Q 600 4063 929 4331 
Q 1259 4600 1759 4600 
Q 2128 4600 2406 4451 
Q 2684 4303 2865 4023 
Q 3047 3744 3150 3342 
Q 3253 2941 3253 2259 
Q 3253 1453 3087 958 
Q 2922 463 2592 192 
Q 2263 -78 1759 -78 
Q 1097 -78 719 397 
Q 266 969 266 2259 
z
M 844 2259 
Q 844 1131 1108 757 
Q 1372 384 1759 384 
Q 2147 384 2411 759 
Q 2675 1134 2675 2259 
Q 2675 3391 2411 3762 
Q 2147 4134 1753 4134 
Q 1366 4134 1134 3806 
Q 844 3388 844 2259 
z
" transform="scale(0.015625)"/>
       </defs>
       <use xlink:href="#ArialMT-2212"/>
       <use xlink:href="#ArialMT-31" x="58.398438"/>
       <use xlink:href="#ArialMT-2e" x="114.013672"/>
       <use xlink:href="#ArialMT-30" x="141.796875"/>
      </g>
     </g>
    </g>
    <g id="xtick_3">
     <g id="line2d_3">
      <g>
       <use xlink:href="#m89b5478174" x="167.542237" y="339.84" style="fill: #262626; stroke: #262626"/>
      </g>
     </g>
     <g id="text_3">
      <!-- −0.5 -->
      <g style="fill: #262626" transform="translate(158.856362 354.438875) scale(0.088 -0.088)">
       <use xlink:href="#ArialMT-2212"/>
       <use xlink:href="#ArialMT-30" x="58.398438"/>
       <use xlink:href="#ArialMT-2e" x="114.013672"/>
       <use xlink:href="#ArialMT-35" x="141.796875"/>
      </g>
     </g>
    </g>
    <g id="xtick_4">
     <g id="line2d_4">
      <g>
       <use xlink:href="#m89b5478174" x="224.641828" y="339.84" style="fill: #262626; stroke: #262626"/>
      </g>
     </g>
     <g id="text_4">
      <!-- 0.0 -->
      <g style="fill: #262626" transform="translate(218.525828 354.438875) scale(0.088 -0.088)">
       <use xlink:href="#ArialMT-30"/>
       <use xlink:href="#ArialMT-2e" x="55.615234"/>
       <use xlink:href="#ArialMT-30" x="83.398438"/>
      </g>
     </g>
    </g>
    <g id="xtick_5">
     <g id="line2d_5">
      <g>
       <use xlink:href="#m89b5478174" x="281.741419" y="339.84" style="fill: #262626; stroke: #262626"/>
      </g>
     </g>
     <g id="text_5">
      <!-- 0.5 -->
      <g style="fill: #262626" transform="translate(275.625419 354.438875) scale(0.088 -0.088)">
       <use xlink:href="#ArialMT-30"/>
       <use xlink:href="#ArialMT-2e" x="55.615234"/>
       <use xlink:href="#ArialMT-35" x="83.398438"/>
      </g>
     </g>
    </g>
    <g id="xtick_6">
     <g id="line2d_6">
      <g>
       <use xlink:href="#m89b5478174" x="338.84101" y="339.84" style="fill: #262626; stroke: #262626"/>
      </g>
     </g>
     <g id="text_6">
      <!-- 1.0 -->
      <g style="fill: #262626" transform="translate(332.72501 354.438875) scale(0.088 -0.088)">
       <use xlink:href="#ArialMT-31"/>
       <use xlink:href="#ArialMT-2e" x="55.615234"/>
       <use xlink:href="#ArialMT-30" x="83.398438"/>
      </g>
     </g>
    </g>
    <g id="text_7">
     <!-- Position -->
     <g style="fill: #262626" transform="translate(196.08775 367.059375) scale(0.096 -0.096)">
      <defs>
       <path id="ArialMT-50" d="M 494 0 
L 494 4581 
L 2222 4581 
Q 2678 4581 2919 4538 
Q 3256 4481 3484 4323 
Q 3713 4166 3852 3881 
Q 3991 3597 3991 3256 
Q 3991 2672 3619 2267 
Q 3247 1863 2275 1863 
L 1100 1863 
L 1100 0 
L 494 0 
z
M 1100 2403 
L 2284 2403 
Q 2872 2403 3119 2622 
Q 3366 2841 3366 3238 
Q 3366 3525 3220 3729 
Q 3075 3934 2838 4000 
Q 2684 4041 2272 4041 
L 1100 4041 
L 1100 2403 
z
" transform="scale(0.015625)"/>
       <path id="ArialMT-6f" d="M 213 1659 
Q 213 2581 725 3025 
Q 1153 3394 1769 3394 
Q 2453 3394 2887 2945 
Q 3322 2497 3322 1706 
Q 3322 1066 3130 698 
Q 2938 331 2570 128 
Q 2203 -75 1769 -75 
Q 1072 -75 642 372 
Q 213 819 213 1659 
z
M 791 1659 
Q 791 1022 1069 705 
Q 1347 388 1769 388 
Q 2188 388 2466 706 
Q 2744 1025 2744 1678 
Q 2744 2294 2464 2611 
Q 2184 2928 1769 2928 
Q 1347 2928 1069 2612 
Q 791 2297 791 1659 
z
" transform="scale(0.015625)"/>
       <path id="ArialMT-73" d="M 197 991 
L 753 1078 
Q 800 744 1014 566 
Q 1228 388 1613 388 
Q 2000 388 2187 545 
Q 2375 703 2375 916 
Q 2375 1106 2209 1216 
Q 2094 1291 1634 1406 
Q 1016 1563 777 1677 
Q 538 1791 414 1992 
Q 291 2194 291 2438 
Q 291 2659 392 2848 
Q 494 3038 669 3163 
Q 800 3259 1026 3326 
Q 1253 3394 1513 3394 
Q 1903 3394 2198 3281 
Q 2494 3169 2634 2976 
Q 2775 2784 2828 2463 
L 2278 2388 
Q 2241 2644 2061 2787 
Q 1881 2931 1553 2931 
Q 1166 2931 1000 2803 
Q 834 2675 834 2503 
Q 834 2394 903 2306 
Q 972 2216 1119 2156 
Q 1203 2125 1616 2013 
Q 2213 1853 2448 1751 
Q 2684 1650 2818 1456 
Q 2953 1263 2953 975 
Q 2953 694 2789 445 
Q 2625 197 2315 61 
Q 2006 -75 1616 -75 
Q 969 -75 630 194 
Q 291 463 197 991 
z
" transform="scale(0.015625)"/>
       <path id="ArialMT-69" d="M 425 3934 
L 425 4581 
L 988 4581 
L 988 3934 
L 425 3934 
z
M 425 0 
L 425 3319 
L 988 3319 
L 988 0 
L 425 0 
z
" transform="scale(0.015625)"/>
       <path id="ArialMT-74" d="M 1650 503 
L 1731 6 
Q 1494 -44 1306 -44 
Q 1000 -44 831 53 
Q 663 150 594 308 
Q 525 466 525 972 
L 525 2881 
L 113 2881 
L 113 3319 
L 525 3319 
L 525 4141 
L 1084 4478 
L 1084 3319 
L 1650 3319 
L 1650 2881 
L 1084 2881 
L 1084 941 
Q 1084 700 1114 631 
Q 1144 563 1211 522 
Q 1278 481 1403 481 
Q 1497 481 1650 503 
z
" transform="scale(0.015625)"/>
       <path id="ArialMT-6e" d="M 422 0 
L 422 3319 
L 928 3319 
L 928 2847 
Q 1294 3394 1984 3394 
Q 2284 3394 2536 3286 
Q 2788 3178 2913 3003 
Q 3038 2828 3088 2588 
Q 3119 2431 3119 2041 
L 3119 0 
L 2556 0 
L 2556 2019 
Q 2556 2363 2490 2533 
Q 2425 2703 2258 2804 
Q 2091 2906 1866 2906 
Q 1506 2906 1245 2678 
Q 984 2450 984 1813 
L 984 0 
L 422 0 
z
" transform="scale(0.015625)"/>
      </defs>
      <use xlink:href="#ArialMT-50"/>
      <use xlink:href="#ArialMT-6f" x="66.699219"/>
      <use xlink:href="#ArialMT-73" x="122.314453"/>
      <use xlink:href="#ArialMT-69" x="172.314453"/>
      <use xlink:href="#ArialMT-74" x="194.53125"/>
      <use xlink:href="#ArialMT-69" x="222.314453"/>
      <use xlink:href="#ArialMT-6f" x="244.53125"/>
      <use xlink:href="#ArialMT-6e" x="300.146484"/>
     </g>
    </g>
   </g>
   <g id="matplotlib.axis_2">
    <g id="ytick_1">
     <g id="line2d_7">
      <defs>
       <path id="mdc8c6ba6be" d="M 0 0 
L -4.8 0 
" style="stroke: #262626"/>
      </defs>
      <g>
       <use xlink:href="#mdc8c6ba6be" x="45.76375" y="319.610802" style="fill: #262626; stroke: #262626"/>
      </g>
     </g>
     <g id="text_8">
      <!-- −0.6 -->
      <g style="fill: #262626" transform="translate(20.092 322.76024) scale(0.088 -0.088)">
       <defs>
        <path id="ArialMT-36" d="M 3184 3459 
L 2625 3416 
Q 2550 3747 2413 3897 
Q 2184 4138 1850 4138 
Q 1581 4138 1378 3988 
Q 1113 3794 959 3422 
Q 806 3050 800 2363 
Q 1003 2672 1297 2822 
Q 1591 2972 1913 2972 
Q 2475 2972 2870 2558 
Q 3266 2144 3266 1488 
Q 3266 1056 3080 686 
Q 2894 316 2569 119 
Q 2244 -78 1831 -78 
Q 1128 -78 684 439 
Q 241 956 241 2144 
Q 241 3472 731 4075 
Q 1159 4600 1884 4600 
Q 2425 4600 2770 4297 
Q 3116 3994 3184 3459 
z
M 888 1484 
Q 888 1194 1011 928 
Q 1134 663 1356 523 
Q 1578 384 1822 384 
Q 2178 384 2434 671 
Q 2691 959 2691 1453 
Q 2691 1928 2437 2201 
Q 2184 2475 1800 2475 
Q 1419 2475 1153 2201 
Q 888 1928 888 1484 
z
" transform="scale(0.015625)"/>
       </defs>
       <use xlink:href="#ArialMT-2212"/>
       <use xlink:href="#ArialMT-30" x="58.398438"/>
       <use xlink:href="#ArialMT-2e" x="114.013672"/>
       <use xlink:href="#ArialMT-36" x="141.796875"/>
      </g>
     </g>
    </g>
    <g id="ytick_2">
     <g id="line2d_8">
      <g>
       <use xlink:href="#mdc8c6ba6be" x="45.76375" y="275.54902" style="fill: #262626; stroke: #262626"/>
      </g>
     </g>
     <g id="text_9">
      <!-- −0.4 -->
      <g style="fill: #262626" transform="translate(20.092 278.698457) scale(0.088 -0.088)">
       <defs>
        <path id="ArialMT-34" d="M 2069 0 
L 2069 1097 
L 81 1097 
L 81 1613 
L 2172 4581 
L 2631 4581 
L 2631 1613 
L 3250 1613 
L 3250 1097 
L 2631 1097 
L 2631 0 
L 2069 0 
z
M 2069 1613 
L 2069 3678 
L 634 1613 
L 2069 1613 
z
" transform="scale(0.015625)"/>
       </defs>
       <use xlink:href="#ArialMT-2212"/>
       <use xlink:href="#ArialMT-30" x="58.398438"/>
       <use xlink:href="#ArialMT-2e" x="114.013672"/>
       <use xlink:href="#ArialMT-34" x="141.796875"/>
      </g>
     </g>
    </g>
    <g id="ytick_3">
     <g id="line2d_9">
      <g>
       <use xlink:href="#mdc8c6ba6be" x="45.76375" y="231.487237" style="fill: #262626; stroke: #262626"/>
      </g>
     </g>
     <g id="text_10">
      <!-- −0.2 -->
      <g style="fill: #262626" transform="translate(20.092 234.636675) scale(0.088 -0.088)">
       <defs>
        <path id="ArialMT-32" d="M 3222 541 
L 3222 0 
L 194 0 
Q 188 203 259 391 
Q 375 700 629 1000 
Q 884 1300 1366 1694 
Q 2113 2306 2375 2664 
Q 2638 3022 2638 3341 
Q 2638 3675 2398 3904 
Q 2159 4134 1775 4134 
Q 1369 4134 1125 3890 
Q 881 3647 878 3216 
L 300 3275 
Q 359 3922 746 4261 
Q 1134 4600 1788 4600 
Q 2447 4600 2831 4234 
Q 3216 3869 3216 3328 
Q 3216 3053 3103 2787 
Q 2991 2522 2730 2228 
Q 2469 1934 1863 1422 
Q 1356 997 1212 845 
Q 1069 694 975 541 
L 3222 541 
z
" transform="scale(0.015625)"/>
       </defs>
       <use xlink:href="#ArialMT-2212"/>
       <use xlink:href="#ArialMT-30" x="58.398438"/>
       <use xlink:href="#ArialMT-2e" x="114.013672"/>
       <use xlink:href="#ArialMT-32" x="141.796875"/>
      </g>
     </g>
    </g>
    <g id="ytick_4">
     <g id="line2d_10">
      <g>
       <use xlink:href="#mdc8c6ba6be" x="45.76375" y="187.425455" style="fill: #262626; stroke: #262626"/>
      </g>
     </g>
     <g id="text_11">
      <!-- 0.0 -->
      <g style="fill: #262626" transform="translate(25.23175 190.574892) scale(0.088 -0.088)">
       <use xlink:href="#ArialMT-30"/>
       <use xlink:href="#ArialMT-2e" x="55.615234"/>
       <use xlink:href="#ArialMT-30" x="83.398438"/>
      </g>
     </g>
    </g>
    <g id="ytick_5">
     <g id="line2d_11">
      <g>
       <use xlink:href="#mdc8c6ba6be" x="45.76375" y="143.363672" style="fill: #262626; stroke: #262626"/>
      </g>
     </g>
     <g id="text_12">
      <!-- 0.2 -->
      <g style="fill: #262626" transform="translate(25.23175 146.51311) scale(0.088 -0.088)">
       <use xlink:href="#ArialMT-30"/>
       <use xlink:href="#ArialMT-2e" x="55.615234"/>
       <use xlink:href="#ArialMT-32" x="83.398438"/>
      </g>
     </g>
    </g>
    <g id="ytick_6">
     <g id="line2d_12">
      <g>
       <use xlink:href="#mdc8c6ba6be" x="45.76375" y="99.301889" style="fill: #262626; stroke: #262626"/>
      </g>
     </g>
     <g id="text_13">
      <!-- 0.4 -->
      <g style="fill: #262626" transform="translate(25.23175 102.451327) scale(0.088 -0.088)">
       <use xlink:href="#ArialMT-30"/>
       <use xlink:href="#ArialMT-2e" x="55.615234"/>
       <use xlink:href="#ArialMT-34" x="83.398438"/>
      </g>
     </g>
    </g>
    <g id="ytick_7">
     <g id="line2d_13">
      <g>
       <use xlink:href="#mdc8c6ba6be" x="45.76375" y="55.240107" style="fill: #262626; stroke: #262626"/>
      </g>
     </g>
     <g id="text_14">
      <!-- 0.6 -->
      <g style="fill: #262626" transform="translate(25.23175 58.389544) scale(0.088 -0.088)">
       <use xlink:href="#ArialMT-30"/>
       <use xlink:href="#ArialMT-2e" x="55.615234"/>
       <use xlink:href="#ArialMT-36" x="83.398438"/>
      </g>
     </g>
    </g>
    <g id="ytick_8">
     <g id="line2d_14">
      <g>
       <use xlink:href="#mdc8c6ba6be" x="45.76375" y="11.178324" style="fill: #262626; stroke: #262626"/>
      </g>
     </g>
     <g id="text_15">
      <!-- 0.8 -->
      <g style="fill: #262626" transform="translate(25.23175 14.327762) scale(0.088 -0.088)">
       <defs>
        <path id="ArialMT-38" d="M 1131 2484 
Q 781 2613 612 2850 
Q 444 3088 444 3419 
Q 444 3919 803 4259 
Q 1163 4600 1759 4600 
Q 2359 4600 2725 4251 
Q 3091 3903 3091 3403 
Q 3091 3084 2923 2848 
Q 2756 2613 2416 2484 
Q 2838 2347 3058 2040 
Q 3278 1734 3278 1309 
Q 3278 722 2862 322 
Q 2447 -78 1769 -78 
Q 1091 -78 675 323 
Q 259 725 259 1325 
Q 259 1772 486 2073 
Q 713 2375 1131 2484 
z
M 1019 3438 
Q 1019 3113 1228 2906 
Q 1438 2700 1772 2700 
Q 2097 2700 2305 2904 
Q 2513 3109 2513 3406 
Q 2513 3716 2298 3927 
Q 2084 4138 1766 4138 
Q 1444 4138 1231 3931 
Q 1019 3725 1019 3438 
z
M 838 1322 
Q 838 1081 952 856 
Q 1066 631 1291 507 
Q 1516 384 1775 384 
Q 2178 384 2440 643 
Q 2703 903 2703 1303 
Q 2703 1709 2433 1975 
Q 2163 2241 1756 2241 
Q 1359 2241 1098 1978 
Q 838 1716 838 1322 
z
" transform="scale(0.015625)"/>
       </defs>
       <use xlink:href="#ArialMT-30"/>
       <use xlink:href="#ArialMT-2e" x="55.615234"/>
       <use xlink:href="#ArialMT-38" x="83.398438"/>
      </g>
     </g>
    </g>
    <g id="text_16">
     <!-- Velocity -->
     <g style="fill: #262626" transform="translate(14.0715 190.06275) rotate(-90) scale(0.096 -0.096)">
      <defs>
       <path id="ArialMT-56" d="M 1803 0 
L 28 4581 
L 684 4581 
L 1875 1253 
Q 2019 853 2116 503 
Q 2222 878 2363 1253 
L 3600 4581 
L 4219 4581 
L 2425 0 
L 1803 0 
z
" transform="scale(0.015625)"/>
       <path id="ArialMT-65" d="M 2694 1069 
L 3275 997 
Q 3138 488 2766 206 
Q 2394 -75 1816 -75 
Q 1088 -75 661 373 
Q 234 822 234 1631 
Q 234 2469 665 2931 
Q 1097 3394 1784 3394 
Q 2450 3394 2872 2941 
Q 3294 2488 3294 1666 
Q 3294 1616 3291 1516 
L 816 1516 
Q 847 969 1125 678 
Q 1403 388 1819 388 
Q 2128 388 2347 550 
Q 2566 713 2694 1069 
z
M 847 1978 
L 2700 1978 
Q 2663 2397 2488 2606 
Q 2219 2931 1791 2931 
Q 1403 2931 1139 2672 
Q 875 2413 847 1978 
z
" transform="scale(0.015625)"/>
       <path id="ArialMT-6c" d="M 409 0 
L 409 4581 
L 972 4581 
L 972 0 
L 409 0 
z
" transform="scale(0.015625)"/>
       <path id="ArialMT-63" d="M 2588 1216 
L 3141 1144 
Q 3050 572 2676 248 
Q 2303 -75 1759 -75 
Q 1078 -75 664 370 
Q 250 816 250 1647 
Q 250 2184 428 2587 
Q 606 2991 970 3192 
Q 1334 3394 1763 3394 
Q 2303 3394 2647 3120 
Q 2991 2847 3088 2344 
L 2541 2259 
Q 2463 2594 2264 2762 
Q 2066 2931 1784 2931 
Q 1359 2931 1093 2626 
Q 828 2322 828 1663 
Q 828 994 1084 691 
Q 1341 388 1753 388 
Q 2084 388 2306 591 
Q 2528 794 2588 1216 
z
" transform="scale(0.015625)"/>
       <path id="ArialMT-79" d="M 397 -1278 
L 334 -750 
Q 519 -800 656 -800 
Q 844 -800 956 -737 
Q 1069 -675 1141 -563 
Q 1194 -478 1313 -144 
Q 1328 -97 1363 -6 
L 103 3319 
L 709 3319 
L 1400 1397 
Q 1534 1031 1641 628 
Q 1738 1016 1872 1384 
L 2581 3319 
L 3144 3319 
L 1881 -56 
Q 1678 -603 1566 -809 
Q 1416 -1088 1222 -1217 
Q 1028 -1347 759 -1347 
Q 597 -1347 397 -1278 
z
" transform="scale(0.015625)"/>
      </defs>
      <use xlink:href="#ArialMT-56"/>
      <use xlink:href="#ArialMT-65" x="61.199219"/>
      <use xlink:href="#ArialMT-6c" x="116.814453"/>
      <use xlink:href="#ArialMT-6f" x="139.03125"/>
      <use xlink:href="#ArialMT-63" x="194.646484"/>
      <use xlink:href="#ArialMT-69" x="244.646484"/>
      <use xlink:href="#ArialMT-74" x="266.863281"/>
      <use xlink:href="#ArialMT-79" x="294.646484"/>
     </g>
    </g>
   </g>
   <g id="line2d_15">
    <path d="M 338.84101 187.425455 
L 340.140666 174.341215 
L 339.488065 167.049302 
L 338.509331 161.785711 
L 342.021352 149.103655 
L 344.112898 140.289518 
L 345.895623 137.016303 
L 344.881513 141.624852 
L 348.114249 138.213575 
L 348.972854 142.277206 
L 354.397149 139.241387 
L 357.415822 145.38993 
L 359.77705 153.488305 
L 360.808346 166.47746 
L 363.767952 176.111292 
L 360.946226 198.259184 
L 359.237324 214.369521 
L 353.145741 237.205681 
L 354.419992 241.160539 
L 353.387741 250.682578 
L 347.518008 267.997076 
L 342.301629 279.828117 
L 337.750337 286.987442 
L 325.286871 301.585613 
L 318.739178 305.666071 
L 311.060492 309.703096 
L 304.750771 309.646816 
L 300.16403 305.568544 
L 293.235073 305.565299 
L 287.076775 303.345455 
L 280.450297 301.686355 
L 272.395186 302.447413 
L 266.125071 299.517188 
L 259.226546 297.772689 
L 255.479335 290.083725 
L 253.752751 278.847131 
L 247.588741 276.517847 
L 244.253566 268.904607 
L 240.782938 261.748564 
L 236.781235 255.811428 
L 231.342091 252.890643 
L 228.62371 244.883025 
L 225.801224 237.456941 
L 221.227268 233.65942 
L 218.807792 226.065638 
L 214.561244 222.478848 
L 212.363008 215.360898 
L 207.438262 214.09653 
L 205.869873 206.906993 
L 204.047139 200.998036 
L 203.159504 194.058932 
L 202.841022 187.037299 
L 206.203308 168.486663 
L 205.98657 164.561054 
L 209.14088 155.266342 
L 209.66115 152.285263 
L 211.156565 148.478455 
L 212.275912 146.466076 
L 214.762773 142.953866 
L 217.296651 140.372728 
L 224.528309 134.135486 
L 226.264303 135.989335 
L 229.601434 135.546271 
L 235.577707 130.731362 
L 237.313073 134.858587 
L 238.11068 141.147443 
L 238.63506 148.190809 
L 237.804435 157.976277 
L 241.076087 159.819134 
L 241.082736 168.104433 
L 243.416714 171.652995 
L 243.664632 178.992232 
L 243.360472 186.999625 
L 244.768482 197.584246 
L 245.651927 201.59977 
L 243.474398 210.81148 
L 236.024356 234.144374 
L 233.02972 240.89901 
L 230.81988 245.144376 
L 227.522871 250.444915 
L 223.066331 256.913561 
L 219.05243 261.493871 
L 213.543883 268.0381 
L 210.031735 269.589274 
L 205.158654 272.957808 
L 200.676859 274.745793 
L 199.193925 270.073496 
L 196.94659 266.42039 
L 193.864956 263.95712 
L 188.486551 265.38773 
L 187.304974 258.218876 
L 183.408422 256.320748 
L 182.830079 247.766294 
L 180.615819 242.600818 
L 177.527829 239.297705 
L 170.685607 243.242544 
L 163.83235 246.789524 
L 158.606759 246.780036 
L 159.031182 236.069895 
L 154.876754 235.322763 
L 150.359773 235.411686 
L 148.908909 229.738211 
L 145.516391 228.773528 
L 142.004911 228.64346 
L 139.271362 227.274624 
L 136.196455 227.492549 
L 135.504007 219.996017 
L 134.682435 219.524947 
L 129.531265 227.577166 
L 130.128017 226.298707 
L 122.015997 243.595647 
L 117.789016 252.209317 
L 114.415238 257.684579 
L 107.003421 268.379782 
L 105.208355 268.448149 
L 103.148144 268.68616 
L 99.80727 270.94339 
L 96.886765 270.931628 
L 89.85119 276.953727 
L 85.148975 274.933693 
L 80.663499 269.434263 
L 79.415132 255.776784 
L 74.83101 248.62671 
L 70.348765 238.279744 
L 65.444352 225.594281 
L 63.696123 204.255462 
L 61.443619 184.610146 
L 60.981932 160.943972 
L 62.431983 135.308471 
L 63.821274 112.897637 
L 70.984109 84.451053 
L 78.911002 63.07532 
L 87.734225 47.334334 
L 95.640955 40.112686 
L 107.413034 30.416198 
L 115.263051 32.255605 
L 125.577668 30.733937 
L 132.968946 36.31514 
L 139.028493 44.141107 
L 144.796797 51.32668 
L 153.136314 52.586587 
L 159.174138 57.621319 
L 163.65917 64.268459 
L 170.672554 64.524433 
L 173.624008 71.844883 
L 176.950467 77.181165 
L 181.156404 79.755058 
L 188.316514 76.04295 
L 189.549323 83.554797 
L 194.877077 82.401435 
L 198.879555 83.856293 
L 202.902269 85.10403 
L 211.35655 77.91373 
L 215.509104 79.228358 
L 222.666294 74.918652 
L 227.77706 74.85899 
L 231.377227 77.868081 
L 235.227207 80.579211 
L 243.654315 74.806799 
L 248.892573 75.639738 
L 251.897058 81.098425 
L 261.675851 73.639025 
L 266.301133 76.796882 
L 270.349997 81.332429 
L 277.413887 80.097863 
L 286.983662 75.031466 
L 292.197145 79.200329 
L 296.853007 84.831526 
L 305.194059 98.098387 
L 312.011132 99.641005 
L 315.736486 107.671087 
L 321.485724 111.968952 
L 321.385323 127.228464 
L 321.814265 139.474455 
L 323.118912 147.833325 
L 327.431692 149.68272 
L 330.216478 154.963825 
L 330.569708 163.222662 
L 330.675017 170.842501 
L 333.121661 172.068299 
L 331.135713 180.966062 
L 333.260516 179.24871 
L 333.93692 179.598784 
L 335.818521 177.247229 
L 333.352322 181.973836 
L 332.445533 181.18468 
L 334.685884 173.323315 
L 339.080623 162.084088 
L 339.080623 162.084088 
" clip-path="url(#p431a49b12f)" style="fill: none; stroke: #1f77b4; stroke-width: 1.2; stroke-linecap: round"/>
   </g>
   <g id="line2d_16">
    <path d="M 222.750282 189.282078 
L 333.694783 142.531197 
L 332.535885 174.76242 
L 336.261808 128.053801 
L 334.614121 160.408069 
L 335.576147 152.251747 
L 340.142989 131.592781 
L 347.471503 110.61208 
L 353.391927 106.090069 
L 356.671735 111.787075 
L 360.854533 118.641994 
L 362.358712 131.189591 
L 361.355901 147.030492 
L 363.090765 159.837579 
L 362.83687 174.104642 
L 365.345568 190.788541 
L 364.588653 208.099546 
L 362.467758 225.429642 
L 359.261235 242.223446 
L 355.875995 258.240925 
L 351.528232 273.281277 
L 347.054288 285.419047 
L 343.739128 292.706111 
L 340.228356 298.059959 
L 334.836281 305.579009 
L 327.321986 314.272272 
L 311.67374 323.403246 
L 303.575313 324.45117 
L 295.234376 324.72 
L 289.164929 320.519573 
L 282.605909 316.469719 
L 279.095287 306.665446 
L 274.111285 300.098252 
L 269.819354 292.04158 
L 264.072362 287.550851 
L 258.595861 282.501616 
L 252.421696 279.226718 
L 248.474304 271.08308 
L 242.588317 267.899135 
L 237.456407 263.355237 
L 234.016895 255.296989 
L 229.687866 250.019604 
L 225.611516 243.791422 
L 224.719622 231.461974 
L 222.208664 223.700676 
L 216.740374 223.502205 
L 215.470419 213.772757 
L 212.426655 208.751572 
L 207.4798 208.290327 
L 206.686685 199.802911 
L 205.124284 193.985781 
L 206.172811 183.025466 
L 203.396974 182.980674 
L 203.385684 176.597038 
L 205.073384 168.024671 
L 207.533776 158.792405 
L 213.027443 144.361634 
L 212.729394 144.954022 
L 213.281183 144.228927 
L 217.65463 136.339561 
L 218.678275 137.182751 
L 221.187112 135.774272 
L 224.951746 132.093741 
L 226.818069 134.244597 
L 228.208286 137.736501 
L 230.084027 140.762577 
L 231.589908 145.167788 
L 231.207416 153.990117 
L 234.730756 154.402048 
L 241.049184 149.621674 
L 241.793446 156.983571 
L 244.070031 161.081406 
L 243.910988 170.014492 
L 242.339493 181.593943 
L 239.78362 194.633951 
L 239.243539 202.38711 
L 241.084703 204.635182 
L 243.851754 204.289855 
L 240.757055 215.855064 
L 237.77469 225.924994 
L 234.083448 236.671296 
L 231.302142 244.025043 
L 231.609368 242.886221 
L 227.404226 251.470142 
L 227.194318 250.285062 
L 227.691892 246.185601 
L 223.630255 252.367961 
L 220.025759 255.71286 
L 212.815227 265.889394 
L 207.98742 269.606423 
L 206.204766 265.651159 
L 201.680414 267.472815 
L 195.888406 270.916181 
L 195.532519 262.048086 
L 191.142373 261.956834 
L 185.90494 262.83615 
L 183.83017 256.499805 
L 182.617679 248.847027 
L 178.596619 247.275254 
L 178.282015 238.202489 
L 175.706175 234.256941 
L 172.974543 230.540515 
L 169.970324 227.722309 
L 164.994867 228.883315 
L 164.081486 222.727854 
L 158.979246 224.581661 
L 155.938071 223.233772 
L 153.885696 221.073681 
L 148.507935 224.430661 
L 147.071118 221.520112 
L 146.412739 219.070615 
L 145.146337 218.519001 
L 142.557713 221.074151 
L 139.177506 224.872364 
L 135.930297 229.035673 
L 133.309466 232.942621 
L 132.427045 234.776023 
L 128.488451 241.467428 
L 124.080579 251.086911 
L 120.947933 257.429776 
L 118.474428 263.275784 
L 113.022579 271.466857 
L 110.354266 275.909453 
L 105.072589 282.166674 
L 101.298647 285.364997 
L 97.494502 287.922295 
L 94.027161 288.355857 
L 92.400114 287.876406 
L 88.25665 287.272238 
L 84.433814 284.494214 
L 79.61164 279.181284 
L 77.640705 271.279518 
L 74.164032 260.242298 
L 70.008686 246.326415 
L 66.662471 228.697119 
L 64.18325 208.322523 
L 64.040918 183.32992 
L 62.846196 161.716642 
L 65.623916 134.209249 
L 67.710573 111.301347 
L 71.053599 89.857574 
L 77.059184 69.290163 
L 81.841914 54.290376 
L 89.715836 40.891461 
L 99.022033 31.064333 
L 105.576095 28.49193 
L 115.805694 23.495671 
L 123.711417 25.289014 
L 134.726182 22.32 
L 143.920484 24.810507 
L 151.499469 29.680468 
L 162.661845 27.767188 
L 170.919952 30.604131 
L 179.838443 31.230736 
L 186.890827 34.618364 
L 191.025847 41.785567 
L 195.176661 48.611855 
L 200.384447 51.345852 
L 203.492215 57.756627 
L 207.873586 61.651564 
L 209.741597 71.182225 
L 214.934987 71.119557 
L 220.615241 70.017638 
L 226.098746 69.328365 
L 230.519603 72.418157 
L 236.121362 71.582697 
L 241.558242 71.782779 
L 246.722931 73.156029 
L 250.567346 77.679162 
L 257.347086 74.460126 
L 259.689407 83.258336 
L 266.010505 81.258355 
L 271.131324 83.280111 
L 275.356933 87.973117 
L 279.051852 93.503187 
L 284.792251 94.23836 
L 293.465451 90.428305 
L 298.895343 93.815633 
L 302.694416 100.39679 
L 307.771032 104.441059 
L 315.887847 116.941383 
L 322.243562 120.231359 
L 326.43827 127.249812 
L 327.272745 137.644467 
L 326.884941 148.211274 
L 330.347067 153.306627 
L 331.459708 160.781675 
L 332.65048 166.896588 
L 333.15758 172.438529 
L 333.967045 176.242626 
L 335.309722 178.386106 
L 336.230692 180.242423 
L 336.423553 181.597963 
L 336.141807 181.538013 
L 336.278345 180.136443 
L 337.178958 177.122494 
L 337.110023 173.732401 
L 336.607579 170.031819 
L 336.607579 170.031819 
" clip-path="url(#p431a49b12f)" style="fill: none; stroke: #ff7f0e; stroke-width: 1.2; stroke-linecap: round"/>
   </g>
   <g id="line2d_17">
    <path d="M 331.923083 198.58688 
L 331.598216 179.787982 
L 332.039024 168.932392 
L 333.175739 153.839993 
L 334.442384 143.374718 
L 336.54923 134.677629 
L 339.411296 126.079014 
L 342.544253 120.828839 
L 345.906064 119.967661 
L 349.180643 121.757878 
L 352.413227 125.514357 
L 355.241291 132.395881 
L 357.399627 140.310295 
L 359.443024 149.740252 
L 361.139469 162.256079 
L 362.266209 175.704738 
L 362.978397 191.344037 
L 362.500731 208.035161 
L 361.145017 225.318688 
L 359.102512 241.31772 
L 356.210416 255.501583 
L 352.750979 268.93879 
L 348.639557 281.083545 
L 344.190737 292.911381 
L 338.883691 302.646939 
L 332.859091 311.580669 
L 326.109707 317.345767 
L 319.113647 320.88271 
L 312.109866 321.498182 
L 305.246305 320.47263 
L 298.518909 317.604474 
L 291.97395 313.696934 
L 285.705185 310.115653 
L 279.521221 305.902649 
L 273.525919 302.338716 
L 267.551056 297.380359 
L 261.775197 293.302979 
L 250.438779 283.861488 
L 245.284614 279.013091 
L 240.227203 273.818032 
L 226.868686 256.611908 
L 219.877994 243.336251 
L 216.622627 237.646877 
L 213.589215 231.041114 
L 211.179239 223.638021 
L 208.934216 217.188486 
L 207.194858 209.102761 
L 206.046818 201.510306 
L 205.275099 193.558486 
L 205.003743 185.57862 
L 204.925856 178.193477 
L 205.750193 170.087581 
L 206.878801 163.286014 
L 208.362143 156.869373 
L 209.890429 151.806282 
L 213.315321 143.914532 
L 217.835265 139.310265 
L 220.096849 138.255577 
L 222.548878 138.422851 
L 224.757271 138.885757 
L 227.178802 139.977109 
L 229.503611 141.7315 
L 231.819503 144.295576 
L 234.029715 147.153451 
L 236.369761 151.150556 
L 238.529626 155.703375 
L 239.880889 161.20954 
L 241.118243 167.653965 
L 241.874936 174.600938 
L 242.284213 181.117097 
L 242.783666 194.836108 
L 242.560742 201.623817 
L 241.994554 208.754638 
L 240.815501 215.830686 
L 239.254229 222.532061 
L 237.572618 228.185891 
L 233.765436 238.017575 
L 231.329086 242.782329 
L 228.706751 247.445773 
L 225.650258 251.625704 
L 218.472602 259.789769 
L 214.519091 261.674524 
L 207.088153 262.981377 
L 203.2221 263.244293 
L 195.782546 261.240398 
L 191.928712 259.706322 
L 188.159444 257.593289 
L 184.732956 254.379783 
L 177.969235 248.622285 
L 174.803187 246.33012 
L 171.50952 243.746611 
L 168.334472 241.039044 
L 165.059164 238.757572 
L 159.139577 233.133953 
L 156.309267 230.9528 
L 153.874251 228.551869 
L 151.362816 226.455986 
L 149.029001 224.215561 
L 147.156143 221.848077 
L 143.47964 221.333814 
L 141.573429 222.377099 
L 139.639587 223.918546 
L 137.829838 225.842763 
L 134.118032 232.388194 
L 129.659598 240.657188 
L 127.355577 245.667278 
L 124.596843 250.917826 
L 121.858896 256.714348 
L 115.68788 267.778476 
L 111.986367 272.606814 
L 108.318913 275.693931 
L 104.415713 280.068264 
L 100.383325 283.937552 
L 96.136133 285.655771 
L 91.373111 285.627446 
L 86.784793 283.810438 
L 82.295098 279.199591 
L 78.284763 272.51928 
L 74.030916 262.353897 
L 69.9939 247.600459 
L 66.813636 229.669586 
L 64.57842 209.324598 
L 63.621811 184.790662 
L 63.603878 159.98657 
L 65.248595 134.331466 
L 68.003039 109.819385 
L 72.169762 87.365827 
L 77.520768 66.800042 
L 83.746493 50.478458 
L 91.125648 37.887493 
L 99.129593 29.296813 
L 107.350777 24.782712 
L 116.093168 23.067538 
L 124.628776 23.82476 
L 133.312422 27.386799 
L 141.489909 32.131403 
L 149.350099 37.564514 
L 156.850293 42.951365 
L 163.897628 49.09604 
L 170.307295 54.954184 
L 176.586357 61.92747 
L 181.86459 66.955949 
L 187.312592 73.402569 
L 192.566362 74.496888 
L 197.634297 75.380564 
L 202.947361 76.678536 
L 208.215132 76.904859 
L 213.517646 76.785964 
L 218.794116 76.802123 
L 223.845959 78.045191 
L 228.95836 79.123941 
L 234.134623 79.116564 
L 239.267413 79.558365 
L 244.501442 80.164063 
L 249.627541 81.205944 
L 255.021974 81.022071 
L 265.704148 81.822379 
L 276.591921 83.632064 
L 282.200818 85.260173 
L 287.815762 87.304669 
L 293.298676 90.692498 
L 298.355797 94.377816 
L 307.709855 104.000733 
L 311.914691 110.50989 
L 315.978097 117.080378 
L 319.861514 124.19942 
L 322.789655 132.856256 
L 325.191919 140.996845 
L 329.588219 154.8081 
L 331.164842 161.307324 
L 334.811809 179.264603 
L 335.313207 182.878327 
L 335.415761 182.640539 
L 335.685316 181.46639 
L 335.891593 178.614295 
L 336.791411 170.270697 
L 336.791411 170.270697 
" clip-path="url(#p431a49b12f)" style="fill: none; stroke: #2ca02c; stroke-width: 1.2; stroke-linecap: round"/>
   </g>
   <g id="patch_3">
    <path d="M 45.76375 319.610802 
L 45.76375 11.178324 
" style="fill: none; stroke: #262626; stroke-linejoin: miter; stroke-linecap: square"/>
   </g>
   <g id="patch_4">
    <path d="M 53.343055 339.84 
L 338.84101 339.84 
" style="fill: none; stroke: #262626; stroke-linejoin: miter; stroke-linecap: square"/>
   </g>
   <g id="legend_1">
    <g id="line2d_18">
     <path d="M 278.54975 18.338875 
L 287.34975 18.338875 
L 296.14975 18.338875 
" style="fill: none; stroke: #1f77b4; stroke-width: 1.2; stroke-linecap: round"/>
    </g>
    <g id="text_17">
     <!-- True -->
     <g style="fill: #262626" transform="translate(303.18975 21.418875) scale(0.088 -0.088)">
      <defs>
       <path id="ArialMT-54" d="M 1659 0 
L 1659 4041 
L 150 4041 
L 150 4581 
L 3781 4581 
L 3781 4041 
L 2266 4041 
L 2266 0 
L 1659 0 
z
" transform="scale(0.015625)"/>
       <path id="ArialMT-72" d="M 416 0 
L 416 3319 
L 922 3319 
L 922 2816 
Q 1116 3169 1280 3281 
Q 1444 3394 1641 3394 
Q 1925 3394 2219 3213 
L 2025 2691 
Q 1819 2813 1613 2813 
Q 1428 2813 1281 2702 
Q 1134 2591 1072 2394 
Q 978 2094 978 1738 
L 978 0 
L 416 0 
z
" transform="scale(0.015625)"/>
       <path id="ArialMT-75" d="M 2597 0 
L 2597 488 
Q 2209 -75 1544 -75 
Q 1250 -75 995 37 
Q 741 150 617 320 
Q 494 491 444 738 
Q 409 903 409 1263 
L 409 3319 
L 972 3319 
L 972 1478 
Q 972 1038 1006 884 
Q 1059 663 1231 536 
Q 1403 409 1656 409 
Q 1909 409 2131 539 
Q 2353 669 2445 892 
Q 2538 1116 2538 1541 
L 2538 3319 
L 3100 3319 
L 3100 0 
L 2597 0 
z
" transform="scale(0.015625)"/>
      </defs>
      <use xlink:href="#ArialMT-54"/>
      <use xlink:href="#ArialMT-72" x="57.333984"/>
      <use xlink:href="#ArialMT-75" x="90.634766"/>
      <use xlink:href="#ArialMT-65" x="146.25"/>
     </g>
    </g>
    <g id="line2d_19">
     <path d="M 278.54975 30.78675 
L 287.34975 30.78675 
L 296.14975 30.78675 
" style="fill: none; stroke: #ff7f0e; stroke-width: 1.2; stroke-linecap: round"/>
    </g>
    <g id="text_18">
     <!-- Filter median -->
     <g style="fill: #262626" transform="translate(303.18975 33.86675) scale(0.088 -0.088)">
      <defs>
       <path id="ArialMT-46" d="M 525 0 
L 525 4581 
L 3616 4581 
L 3616 4041 
L 1131 4041 
L 1131 2622 
L 3281 2622 
L 3281 2081 
L 1131 2081 
L 1131 0 
L 525 0 
z
" transform="scale(0.015625)"/>
       <path id="ArialMT-20" transform="scale(0.015625)"/>
       <path id="ArialMT-6d" d="M 422 0 
L 422 3319 
L 925 3319 
L 925 2853 
Q 1081 3097 1340 3245 
Q 1600 3394 1931 3394 
Q 2300 3394 2536 3241 
Q 2772 3088 2869 2813 
Q 3263 3394 3894 3394 
Q 4388 3394 4653 3120 
Q 4919 2847 4919 2278 
L 4919 0 
L 4359 0 
L 4359 2091 
Q 4359 2428 4304 2576 
Q 4250 2725 4106 2815 
Q 3963 2906 3769 2906 
Q 3419 2906 3187 2673 
Q 2956 2441 2956 1928 
L 2956 0 
L 2394 0 
L 2394 2156 
Q 2394 2531 2256 2718 
Q 2119 2906 1806 2906 
Q 1569 2906 1367 2781 
Q 1166 2656 1075 2415 
Q 984 2175 984 1722 
L 984 0 
L 422 0 
z
" transform="scale(0.015625)"/>
       <path id="ArialMT-64" d="M 2575 0 
L 2575 419 
Q 2259 -75 1647 -75 
Q 1250 -75 917 144 
Q 584 363 401 755 
Q 219 1147 219 1656 
Q 219 2153 384 2558 
Q 550 2963 881 3178 
Q 1213 3394 1622 3394 
Q 1922 3394 2156 3267 
Q 2391 3141 2538 2938 
L 2538 4581 
L 3097 4581 
L 3097 0 
L 2575 0 
z
M 797 1656 
Q 797 1019 1065 703 
Q 1334 388 1700 388 
Q 2069 388 2326 689 
Q 2584 991 2584 1609 
Q 2584 2291 2321 2609 
Q 2059 2928 1675 2928 
Q 1300 2928 1048 2622 
Q 797 2316 797 1656 
z
" transform="scale(0.015625)"/>
       <path id="ArialMT-61" d="M 2588 409 
Q 2275 144 1986 34 
Q 1697 -75 1366 -75 
Q 819 -75 525 192 
Q 231 459 231 875 
Q 231 1119 342 1320 
Q 453 1522 633 1644 
Q 813 1766 1038 1828 
Q 1203 1872 1538 1913 
Q 2219 1994 2541 2106 
Q 2544 2222 2544 2253 
Q 2544 2597 2384 2738 
Q 2169 2928 1744 2928 
Q 1347 2928 1158 2789 
Q 969 2650 878 2297 
L 328 2372 
Q 403 2725 575 2942 
Q 747 3159 1072 3276 
Q 1397 3394 1825 3394 
Q 2250 3394 2515 3294 
Q 2781 3194 2906 3042 
Q 3031 2891 3081 2659 
Q 3109 2516 3109 2141 
L 3109 1391 
Q 3109 606 3145 398 
Q 3181 191 3288 0 
L 2700 0 
Q 2613 175 2588 409 
z
M 2541 1666 
Q 2234 1541 1622 1453 
Q 1275 1403 1131 1340 
Q 988 1278 909 1158 
Q 831 1038 831 891 
Q 831 666 1001 516 
Q 1172 366 1500 366 
Q 1825 366 2078 508 
Q 2331 650 2450 897 
Q 2541 1088 2541 1459 
L 2541 1666 
z
" transform="scale(0.015625)"/>
      </defs>
      <use xlink:href="#ArialMT-46"/>
      <use xlink:href="#ArialMT-69" x="61.083984"/>
      <use xlink:href="#ArialMT-6c" x="83.300781"/>
      <use xlink:href="#ArialMT-74" x="105.517578"/>
      <use xlink:href="#ArialMT-65" x="133.300781"/>
      <use xlink:href="#ArialMT-72" x="188.916016"/>
      <use xlink:href="#ArialMT-20" x="222.216797"/>
      <use xlink:href="#ArialMT-6d" x="250"/>
      <use xlink:href="#ArialMT-65" x="333.300781"/>
      <use xlink:href="#ArialMT-64" x="388.916016"/>
      <use xlink:href="#ArialMT-69" x="444.53125"/>
      <use xlink:href="#ArialMT-61" x="466.748047"/>
      <use xlink:href="#ArialMT-6e" x="522.363281"/>
     </g>
    </g>
    <g id="line2d_20">
     <path d="M 278.54975 43.234625 
L 287.34975 43.234625 
L 296.14975 43.234625 
" style="fill: none; stroke: #2ca02c; stroke-width: 1.2; stroke-linecap: round"/>
    </g>
    <g id="text_19">
     <!-- Smoother median -->
     <g style="fill: #262626" transform="translate(303.18975 46.314625) scale(0.088 -0.088)">
      <defs>
       <path id="ArialMT-53" d="M 288 1472 
L 859 1522 
Q 900 1178 1048 958 
Q 1197 738 1509 602 
Q 1822 466 2213 466 
Q 2559 466 2825 569 
Q 3091 672 3220 851 
Q 3350 1031 3350 1244 
Q 3350 1459 3225 1620 
Q 3100 1781 2813 1891 
Q 2628 1963 1997 2114 
Q 1366 2266 1113 2400 
Q 784 2572 623 2826 
Q 463 3081 463 3397 
Q 463 3744 659 4045 
Q 856 4347 1234 4503 
Q 1613 4659 2075 4659 
Q 2584 4659 2973 4495 
Q 3363 4331 3572 4012 
Q 3781 3694 3797 3291 
L 3216 3247 
Q 3169 3681 2898 3903 
Q 2628 4125 2100 4125 
Q 1550 4125 1298 3923 
Q 1047 3722 1047 3438 
Q 1047 3191 1225 3031 
Q 1400 2872 2139 2705 
Q 2878 2538 3153 2413 
Q 3553 2228 3743 1945 
Q 3934 1663 3934 1294 
Q 3934 928 3725 604 
Q 3516 281 3123 101 
Q 2731 -78 2241 -78 
Q 1619 -78 1198 103 
Q 778 284 539 648 
Q 300 1013 288 1472 
z
" transform="scale(0.015625)"/>
       <path id="ArialMT-68" d="M 422 0 
L 422 4581 
L 984 4581 
L 984 2938 
Q 1378 3394 1978 3394 
Q 2347 3394 2619 3248 
Q 2891 3103 3008 2847 
Q 3125 2591 3125 2103 
L 3125 0 
L 2563 0 
L 2563 2103 
Q 2563 2525 2380 2717 
Q 2197 2909 1863 2909 
Q 1613 2909 1392 2779 
Q 1172 2650 1078 2428 
Q 984 2206 984 1816 
L 984 0 
L 422 0 
z
" transform="scale(0.015625)"/>
      </defs>
      <use xlink:href="#ArialMT-53"/>
      <use xlink:href="#ArialMT-6d" x="66.699219"/>
      <use xlink:href="#ArialMT-6f" x="150"/>
      <use xlink:href="#ArialMT-6f" x="205.615234"/>
      <use xlink:href="#ArialMT-74" x="261.230469"/>
      <use xlink:href="#ArialMT-68" x="289.013672"/>
      <use xlink:href="#ArialMT-65" x="344.628906"/>
      <use xlink:href="#ArialMT-72" x="400.244141"/>
      <use xlink:href="#ArialMT-20" x="433.544922"/>
      <use xlink:href="#ArialMT-6d" x="461.328125"/>
      <use xlink:href="#ArialMT-65" x="544.628906"/>
      <use xlink:href="#ArialMT-64" x="600.244141"/>
      <use xlink:href="#ArialMT-69" x="655.859375"/>
      <use xlink:href="#ArialMT-61" x="678.076172"/>
      <use xlink:href="#ArialMT-6e" x="733.691406"/>
     </g>
    </g>
   </g>
  </g>
 </g>
 <defs>
  <clipPath id="p431a49b12f">
   <rect x="45.76375" y="7.2" width="334.8" height="332.64"/>
  </clipPath>
 </defs>
</svg>