<?xml version="1.0" encoding="utf-8" standalone="no"?>
<!DOCTYPE svg PUBLIC "-//W3C//DTD SVG 1.1//EN"
  "http://www.w3.org/Graphics/SVG/1.1/DTD/svg11.dtd">
<svg xmlns:xlink="http://www.w3.org/1999/xlink" width="377.46135pt" height="300.009312pt" viewBox="0 0 377.46135 300.009312" xmlns="http://www.w3.org/2000/svg" version="1.1">
 <metadata>
  <rdf:RDF xmlns:dc="http://purl.org/dc/elements/1.1/" xmlns:cc="http://creativecommons.org/ns#" xmlns:rdf="http://www.w3.org/1999/02/22-rdf-syntax-ns#">
   <cc:Work>
    <dc:type rdf:resource="http://purl.org/dc/dcmitype/StillImage"/>
    <dc:date>2024-10-23T11:17:15.082772</dc:date>
    <dc:format>image/svg+xml</dc:format>
    <dc:creator>
     <cc:Agent>
      <dc:title>Matplotlib v3.9.2, https://matplotlib.org/</dc:title>
     </cc:Agent>
    </dc:creator>
   </cc:Work>
  </rdf:RDF>
 </metadata>
 <defs>
  <style type="text/css">*{stroke-linejoin: round; stroke-linecap: butt}</style>
 </defs>
 <g id="figure_1">
  <g id="patch_1">
   <path d="M 0 300.009312 
L 377.46135 300.009312 
L 377.46135 0 
L 0 0 
z
" style="fill: #ffffff"/>
  </g>
  <g id="axes_1">
   <g id="patch_2">
    <path d="M 27.732 276.461437 
L 313.428 276.461437 
L 313.428 10.349437 
L 27.732 10.349437 
z
" style="fill: #ffffff"/>
   </g>
   <g id="matplotlib.axis_1">
    <g id="xtick_1">
     <g id="line2d_1">
      <defs>
       <path id="me7e8f5e5b8" d="M 0 0 
L 0 4.8 
" style="stroke: #262626"/>
      </defs>
      <g>
       <use xlink:href="#me7e8f5e5b8" x="27.732" y="276.461437" style="fill: #262626; stroke: #262626"/>
      </g>
     </g>
     <g id="text_1">
      <!-- 0.0 -->
      <g style="fill: #262626" transform="translate(21.616 291.060312) scale(0.088 -0.088)">
       <defs>
        <path id="ArialMT-30" d="M 266 2259 
Q 266 3072 433 3567 
Q 600 4063 929 4331 
Q 1259 4600 1759 4600 
Q 2128 4600 2406 4451 
Q 2684 4303 2865 4023 
Q 3047 3744 3150 3342 
Q 3253 2941 3253 2259 
Q 3253 1453 3087 958 
Q 2922 463 2592 192 
Q 2263 -78 1759 -78 
Q 1097 -78 719 397 
Q 266 969 266 2259 
z
M 844 2259 
Q 844 1131 1108 757 
Q 1372 384 1759 384 
Q 2147 384 2411 759 
Q 2675 1134 2675 2259 
Q 2675 3391 2411 3762 
Q 2147 4134 1753 4134 
Q 1366 4134 1134 3806 
Q 844 3388 844 2259 
z
" transform="scale(0.015625)"/>
        <path id="ArialMT-2e" d="M 581 0 
L 581 641 
L 1222 641 
L 1222 0 
L 581 0 
z
" transform="scale(0.015625)"/>
       </defs>
       <use xlink:href="#ArialMT-30"/>
       <use xlink:href="#ArialMT-2e" x="55.615234"/>
       <use xlink:href="#ArialMT-30" x="83.398438"/>
      </g>
     </g>
    </g>
    <g id="xtick_2">
     <g id="line2d_2">
      <g>
       <use xlink:href="#me7e8f5e5b8" x="84.8712" y="276.461437" style="fill: #262626; stroke: #262626"/>
      </g>
     </g>
     <g id="text_2">
      <!-- 0.2 -->
      <g style="fill: #262626" transform="translate(78.7552 291.060312) scale(0.088 -0.088)">
       <defs>
        <path id="ArialMT-32" d="M 3222 541 
L 3222 0 
L 194 0 
Q 188 203 259 391 
Q 375 700 629 1000 
Q 884 1300 1366 1694 
Q 2113 2306 2375 2664 
Q 2638 3022 2638 3341 
Q 2638 3675 2398 3904 
Q 2159 4134 1775 4134 
Q 1369 4134 1125 3890 
Q 881 3647 878 3216 
L 300 3275 
Q 359 3922 746 4261 
Q 1134 4600 1788 4600 
Q 2447 4600 2831 4234 
Q 3216 3869 3216 3328 
Q 3216 3053 3103 2787 
Q 2991 2522 2730 2228 
Q 2469 1934 1863 1422 
Q 1356 997 1212 845 
Q 1069 694 975 541 
L 3222 541 
z
" transform="scale(0.015625)"/>
       </defs>
       <use xlink:href="#ArialMT-30"/>
       <use xlink:href="#ArialMT-2e" x="55.615234"/>
       <use xlink:href="#ArialMT-32" x="83.398438"/>
      </g>
     </g>
    </g>
    <g id="xtick_3">
     <g id="line2d_3">
      <g>
       <use xlink:href="#me7e8f5e5b8" x="142.0104" y="276.461437" style="fill: #262626; stroke: #262626"/>
      </g>
     </g>
     <g id="text_3">
      <!-- 0.4 -->
      <g style="fill: #262626" transform="translate(135.8944 291.060312) scale(0.088 -0.088)">
       <defs>
        <path id="ArialMT-34" d="M 2069 0 
L 2069 1097 
L 81 1097 
L 81 1613 
L 2172 4581 
L 2631 4581 
L 2631 1613 
L 3250 1613 
L 3250 1097 
L 2631 1097 
L 2631 0 
L 2069 0 
z
M 2069 1613 
L 2069 3678 
L 634 1613 
L 2069 1613 
z
" transform="scale(0.015625)"/>
       </defs>
       <use xlink:href="#ArialMT-30"/>
       <use xlink:href="#ArialMT-2e" x="55.615234"/>
       <use xlink:href="#ArialMT-34" x="83.398438"/>
      </g>
     </g>
    </g>
    <g id="xtick_4">
     <g id="line2d_4">
      <g>
       <use xlink:href="#me7e8f5e5b8" x="199.1496" y="276.461437" style="fill: #262626; stroke: #262626"/>
      </g>
     </g>
     <g id="text_4">
      <!-- 0.6 -->
      <g style="fill: #262626" transform="translate(193.0336 291.060312) scale(0.088 -0.088)">
       <defs>
        <path id="ArialMT-36" d="M 3184 3459 
L 2625 3416 
Q 2550 3747 2413 3897 
Q 2184 4138 1850 4138 
Q 1581 4138 1378 3988 
Q 1113 3794 959 3422 
Q 806 3050 800 2363 
Q 1003 2672 1297 2822 
Q 1591 2972 1913 2972 
Q 2475 2972 2870 2558 
Q 3266 2144 3266 1488 
Q 3266 1056 3080 686 
Q 2894 316 2569 119 
Q 2244 -78 1831 -78 
Q 1128 -78 684 439 
Q 241 956 241 2144 
Q 241 3472 731 4075 
Q 1159 4600 1884 4600 
Q 2425 4600 2770 4297 
Q 3116 3994 3184 3459 
z
M 888 1484 
Q 888 1194 1011 928 
Q 1134 663 1356 523 
Q 1578 384 1822 384 
Q 2178 384 2434 671 
Q 2691 959 2691 1453 
Q 2691 1928 2437 2201 
Q 2184 2475 1800 2475 
Q 1419 2475 1153 2201 
Q 888 1928 888 1484 
z
" transform="scale(0.015625)"/>
       </defs>
       <use xlink:href="#ArialMT-30"/>
       <use xlink:href="#ArialMT-2e" x="55.615234"/>
       <use xlink:href="#ArialMT-36" x="83.398438"/>
      </g>
     </g>
    </g>
    <g id="xtick_5">
     <g id="line2d_5">
      <g>
       <use xlink:href="#me7e8f5e5b8" x="256.2888" y="276.461437" style="fill: #262626; stroke: #262626"/>
      </g>
     </g>
     <g id="text_5">
      <!-- 0.8 -->
      <g style="fill: #262626" transform="translate(250.1728 291.060312) scale(0.088 -0.088)">
       <defs>
        <path id="ArialMT-38" d="M 1131 2484 
Q 781 2613 612 2850 
Q 444 3088 444 3419 
Q 444 3919 803 4259 
Q 1163 4600 1759 4600 
Q 2359 4600 2725 4251 
Q 3091 3903 3091 3403 
Q 3091 3084 2923 2848 
Q 2756 2613 2416 2484 
Q 2838 2347 3058 2040 
Q 3278 1734 3278 1309 
Q 3278 722 2862 322 
Q 2447 -78 1769 -78 
Q 1091 -78 675 323 
Q 259 725 259 1325 
Q 259 1772 486 2073 
Q 713 2375 1131 2484 
z
M 1019 3438 
Q 1019 3113 1228 2906 
Q 1438 2700 1772 2700 
Q 2097 2700 2305 2904 
Q 2513 3109 2513 3406 
Q 2513 3716 2298 3927 
Q 2084 4138 1766 4138 
Q 1444 4138 1231 3931 
Q 1019 3725 1019 3438 
z
M 838 1322 
Q 838 1081 952 856 
Q 1066 631 1291 507 
Q 1516 384 1775 384 
Q 2178 384 2440 643 
Q 2703 903 2703 1303 
Q 2703 1709 2433 1975 
Q 2163 2241 1756 2241 
Q 1359 2241 1098 1978 
Q 838 1716 838 1322 
z
" transform="scale(0.015625)"/>
       </defs>
       <use xlink:href="#ArialMT-30"/>
       <use xlink:href="#ArialMT-2e" x="55.615234"/>
       <use xlink:href="#ArialMT-38" x="83.398438"/>
      </g>
     </g>
    </g>
    <g id="xtick_6">
     <g id="line2d_6">
      <g>
       <use xlink:href="#me7e8f5e5b8" x="313.428" y="276.461437" style="fill: #262626; stroke: #262626"/>
      </g>
     </g>
     <g id="text_6">
      <!-- 1.0 -->
      <g style="fill: #262626" transform="translate(307.312 291.060312) scale(0.088 -0.088)">
       <defs>
        <path id="ArialMT-31" d="M 2384 0 
L 1822 0 
L 1822 3584 
Q 1619 3391 1289 3197 
Q 959 3003 697 2906 
L 697 3450 
Q 1169 3672 1522 3987 
Q 1875 4303 2022 4600 
L 2384 4600 
L 2384 0 
z
" transform="scale(0.015625)"/>
       </defs>
       <use xlink:href="#ArialMT-31"/>
       <use xlink:href="#ArialMT-2e" x="55.615234"/>
       <use xlink:href="#ArialMT-30" x="83.398438"/>
      </g>
     </g>
    </g>
   </g>
   <g id="matplotlib.axis_2">
    <g id="ytick_1">
     <g id="line2d_7">
      <defs>
       <path id="m01e4bdafce" d="M 0 0 
L -4.8 0 
" style="stroke: #262626"/>
      </defs>
      <g>
       <use xlink:href="#m01e4bdafce" x="27.732" y="276.461437" style="fill: #262626; stroke: #262626"/>
      </g>
     </g>
     <g id="text_7">
      <!-- 0.0 -->
      <g style="fill: #262626" transform="translate(7.2 279.610875) scale(0.088 -0.088)">
       <use xlink:href="#ArialMT-30"/>
       <use xlink:href="#ArialMT-2e" x="55.615234"/>
       <use xlink:href="#ArialMT-30" x="83.398438"/>
      </g>
     </g>
    </g>
    <g id="ytick_2">
     <g id="line2d_8">
      <g>
       <use xlink:href="#m01e4bdafce" x="27.732" y="223.239037" style="fill: #262626; stroke: #262626"/>
      </g>
     </g>
     <g id="text_8">
      <!-- 0.2 -->
      <g style="fill: #262626" transform="translate(7.2 226.388475) scale(0.088 -0.088)">
       <use xlink:href="#ArialMT-30"/>
       <use xlink:href="#ArialMT-2e" x="55.615234"/>
       <use xlink:href="#ArialMT-32" x="83.398438"/>
      </g>
     </g>
    </g>
    <g id="ytick_3">
     <g id="line2d_9">
      <g>
       <use xlink:href="#m01e4bdafce" x="27.732" y="170.016637" style="fill: #262626; stroke: #262626"/>
      </g>
     </g>
     <g id="text_9">
      <!-- 0.4 -->
      <g style="fill: #262626" transform="translate(7.2 173.166075) scale(0.088 -0.088)">
       <use xlink:href="#ArialMT-30"/>
       <use xlink:href="#ArialMT-2e" x="55.615234"/>
       <use xlink:href="#ArialMT-34" x="83.398438"/>
      </g>
     </g>
    </g>
    <g id="ytick_4">
     <g id="line2d_10">
      <g>
       <use xlink:href="#m01e4bdafce" x="27.732" y="116.794237" style="fill: #262626; stroke: #262626"/>
      </g>
     </g>
     <g id="text_10">
      <!-- 0.6 -->
      <g style="fill: #262626" transform="translate(7.2 119.943675) scale(0.088 -0.088)">
       <use xlink:href="#ArialMT-30"/>
       <use xlink:href="#ArialMT-2e" x="55.615234"/>
       <use xlink:href="#ArialMT-36" x="83.398438"/>
      </g>
     </g>
    </g>
    <g id="ytick_5">
     <g id="line2d_11">
      <g>
       <use xlink:href="#m01e4bdafce" x="27.732" y="63.571837" style="fill: #262626; stroke: #262626"/>
      </g>
     </g>
     <g id="text_11">
      <!-- 0.8 -->
      <g style="fill: #262626" transform="translate(7.2 66.721275) scale(0.088 -0.088)">
       <use xlink:href="#ArialMT-30"/>
       <use xlink:href="#ArialMT-2e" x="55.615234"/>
       <use xlink:href="#ArialMT-38" x="83.398438"/>
      </g>
     </g>
    </g>
    <g id="ytick_6">
     <g id="line2d_12">
      <g>
       <use xlink:href="#m01e4bdafce" x="27.732" y="10.349437" style="fill: #262626; stroke: #262626"/>
      </g>
     </g>
     <g id="text_12">
      <!-- 1.0 -->
      <g style="fill: #262626" transform="translate(7.2 13.498875) scale(0.088 -0.088)">
       <use xlink:href="#ArialMT-31"/>
       <use xlink:href="#ArialMT-2e" x="55.615234"/>
       <use xlink:href="#ArialMT-30" x="83.398438"/>
      </g>
     </g>
    </g>
   </g>
   <g id="QuadContourSet_1">
    <path d="M 248.916 254.658335 
L 258.132 256.243691 
L 267.348 255.506934 
L 276.564 252.337565 
L 279.157158 250.708663 
L 285.78 244.539806 
L 287.528777 242.124405 
L 290.93139 233.540147 
L 291.722368 224.955889 
L 290.02034 216.371631 
L 285.78 208.130632 
L 285.523068 207.787373 
L 276.564 200.610686 
L 273.282023 199.203115 
L 267.348 197.362001 
L 258.132 196.688737 
L 248.916 198.137468 
L 246.222637 199.203115 
L 239.7 202.806336 
L 234.352393 207.787373 
L 230.484 213.862893 
L 229.339929 216.371631 
L 227.784581 224.955889 
L 228.507392 233.540147 
L 230.484 239.067402 
L 231.995159 242.124405 
L 239.7 250.469343 
L 240.06852 250.708663 
z
M 73.812 89.448874 
L 83.028 90.122138 
L 92.244 88.673407 
L 94.937363 87.60776 
L 101.46 84.004539 
L 106.807607 79.023502 
L 110.676 72.947982 
L 111.820071 70.439244 
L 113.375419 61.854986 
L 112.652608 53.270728 
L 110.676 47.743473 
L 109.164841 44.68647 
L 101.46 36.341532 
L 101.09148 36.102212 
L 92.244 32.15254 
L 83.028 30.567184 
L 73.812 31.303941 
L 64.596 34.47331 
L 62.002842 36.102212 
L 55.38 42.271069 
L 53.631223 44.68647 
L 50.22861 53.270728 
L 49.437632 61.854986 
L 51.13966 70.439244 
L 55.38 78.680243 
L 55.636932 79.023502 
L 64.596 86.200189 
L 67.877977 87.60776 
z
" clip-path="url(#p9a48cfcf97)" style="fill: #180f29"/>
    <path d="M 230.484 272.588226 
L 239.7 276.035249 
L 241.640136 276.461437 
L 248.916 276.461437 
L 258.132 276.461437 
L 267.348 276.461437 
L 276.564 276.461437 
L 278.010933 276.461437 
L 285.78 274.013611 
L 294.996 269.31358 
L 297.003137 267.877179 
L 304.212 261.162472 
L 305.75411 259.292921 
L 310.80003 250.708663 
L 313.428 243.472154 
L 313.428 242.124405 
L 313.428 233.540147 
L 313.428 224.955889 
L 313.428 216.371631 
L 313.428 209.594516 
L 312.970447 207.787373 
L 309.269747 199.203115 
L 304.212 191.787657 
L 303.199858 190.618857 
L 294.996 183.861503 
L 291.791273 182.034599 
L 285.78 179.347858 
L 276.564 176.738343 
L 267.348 175.375172 
L 258.132 175.058287 
L 248.916 175.740162 
L 239.7 177.513002 
L 230.484 180.641549 
L 227.721614 182.034599 
L 221.268 186.240846 
L 216.567798 190.618857 
L 212.052 196.630086 
L 210.556432 199.203115 
L 207.197645 207.787373 
L 205.294336 216.371631 
L 204.56228 224.955889 
L 204.902486 233.540147 
L 206.365976 242.124405 
L 209.167534 250.708663 
L 212.052 256.307874 
L 214.013351 259.292921 
L 221.268 266.934418 
L 222.522816 267.877179 
z
M 240.06852 250.708663 
L 239.7 250.469343 
L 231.995159 242.124405 
L 230.484 239.067402 
L 228.507392 233.540147 
L 227.784581 224.955889 
L 229.339929 216.371631 
L 230.484 213.862893 
L 234.352393 207.787373 
L 239.7 202.806336 
L 246.222637 199.203115 
L 248.916 198.137468 
L 258.132 196.688737 
L 267.348 197.362001 
L 273.282023 199.203115 
L 276.564 200.610686 
L 285.523068 207.787373 
L 285.78 208.130632 
L 290.02034 216.371631 
L 291.722368 224.955889 
L 290.93139 233.540147 
L 287.528777 242.124405 
L 285.78 244.539806 
L 279.157158 250.708663 
L 276.564 252.337565 
L 267.348 255.506934 
L 258.132 256.243691 
L 248.916 254.658335 
z
M 55.38 107.463017 
L 64.596 110.072532 
L 73.812 111.435703 
L 83.028 111.752588 
L 92.244 111.070713 
L 101.46 109.297873 
L 110.676 106.169326 
L 113.438386 104.776276 
L 119.892 100.570029 
L 124.592202 96.192018 
L 129.108 90.180789 
L 130.603568 87.60776 
L 133.962355 79.023502 
L 135.865664 70.439244 
L 136.59772 61.854986 
L 136.257514 53.270728 
L 134.794024 44.68647 
L 131.992466 36.102212 
L 129.108 30.503001 
L 127.146649 27.517954 
L 119.892 19.876457 
L 118.637184 18.933696 
L 110.676 14.222649 
L 101.46 10.775626 
L 99.519864 10.349437 
L 92.244 10.349437 
L 83.028 10.349437 
L 73.812 10.349437 
L 64.596 10.349437 
L 63.149067 10.349437 
L 55.38 12.797264 
L 46.164 17.497295 
L 44.156863 18.933696 
L 36.948 25.648403 
L 35.40589 27.517954 
L 30.35997 36.102212 
L 27.732 43.338721 
L 27.732 44.68647 
L 27.732 53.270728 
L 27.732 61.854986 
L 27.732 70.439244 
L 27.732 77.216359 
L 28.189553 79.023502 
L 31.890253 87.60776 
L 36.948 95.023218 
L 37.960142 96.192018 
L 46.164 102.949372 
L 49.368727 104.776276 
z
M 67.877977 87.60776 
L 64.596 86.200189 
L 55.636932 79.023502 
L 55.38 78.680243 
L 51.13966 70.439244 
L 49.437632 61.854986 
L 50.22861 53.270728 
L 53.631223 44.68647 
L 55.38 42.271069 
L 62.002842 36.102212 
L 64.596 34.47331 
L 73.812 31.303941 
L 83.028 30.567184 
L 92.244 32.15254 
L 101.09148 36.102212 
L 101.46 36.341532 
L 109.164841 44.68647 
L 110.676 47.743473 
L 112.652608 53.270728 
L 113.375419 61.854986 
L 111.820071 70.439244 
L 110.676 72.947982 
L 106.807607 79.023502 
L 101.46 84.004539 
L 94.937363 87.60776 
L 92.244 88.673407 
L 83.028 90.122138 
L 73.812 89.448874 
z
" clip-path="url(#p9a48cfcf97)" style="fill: #481c48"/>
    <path d="M 202.836 276.461437 
L 212.052 276.461437 
L 221.268 276.461437 
L 230.484 276.461437 
L 239.7 276.461437 
L 241.640136 276.461437 
L 239.7 276.035249 
L 230.484 272.588226 
L 222.522816 267.877179 
L 221.268 266.934418 
L 214.013351 259.292921 
L 212.052 256.307874 
L 209.167534 250.708663 
L 206.365976 242.124405 
L 204.902486 233.540147 
L 204.56228 224.955889 
L 205.294336 216.371631 
L 207.197645 207.787373 
L 210.556432 199.203115 
L 212.052 196.630086 
L 216.567798 190.618857 
L 221.268 186.240846 
L 227.721614 182.034599 
L 230.484 180.641549 
L 239.7 177.513002 
L 248.916 175.740162 
L 258.132 175.058287 
L 267.348 175.375172 
L 276.564 176.738343 
L 285.78 179.347858 
L 291.791273 182.034599 
L 294.996 183.861503 
L 303.199858 190.618857 
L 304.212 191.787657 
L 309.269747 199.203115 
L 312.970447 207.787373 
L 313.428 209.594516 
L 313.428 207.787373 
L 313.428 199.203115 
L 313.428 190.618857 
L 313.428 182.034599 
L 313.428 173.450341 
L 313.428 169.603341 
L 304.212 164.920451 
L 304.066027 164.866083 
L 294.996 162.115084 
L 285.78 160.322122 
L 276.564 159.22531 
L 267.348 158.652353 
L 258.132 158.519163 
L 248.916 158.805763 
L 239.7 159.550909 
L 230.484 160.865876 
L 221.268 162.979472 
L 215.767542 164.866083 
L 212.052 166.461317 
L 202.836 172.521298 
L 201.838586 173.450341 
L 195.332632 182.034599 
L 193.62 185.495447 
L 191.594548 190.618857 
L 189.325405 199.203115 
L 187.913667 207.787373 
L 187.113682 216.371631 
L 186.805991 224.955889 
L 186.948983 233.540147 
L 187.564106 242.124405 
L 188.741635 250.708663 
L 190.666547 259.292921 
L 193.62 267.741213 
L 193.678369 267.877179 
L 198.705887 276.461437 
z
M 285.78 276.461437 
L 294.996 276.461437 
L 304.212 276.461437 
L 313.428 276.461437 
L 313.428 267.877179 
L 313.428 259.292921 
L 313.428 250.708663 
L 313.428 243.472154 
L 310.80003 250.708663 
L 305.75411 259.292921 
L 304.212 261.162472 
L 297.003137 267.877179 
L 294.996 269.31358 
L 285.78 274.013611 
L 278.010933 276.461437 
z
M 46.164 124.695791 
L 55.38 126.488753 
L 64.596 127.585565 
L 73.812 128.158522 
L 83.028 128.291712 
L 92.244 128.005112 
L 101.46 127.259966 
L 110.676 125.944999 
L 119.892 123.831403 
L 125.392458 121.944792 
L 129.108 120.349558 
L 138.324 114.289577 
L 139.321414 113.360534 
L 145.827368 104.776276 
L 147.54 101.315428 
L 149.565452 96.192018 
L 151.834595 87.60776 
L 153.246333 79.023502 
L 154.046318 70.439244 
L 154.354009 61.854986 
L 154.211017 53.270728 
L 153.595894 44.68647 
L 152.418365 36.102212 
L 150.493453 27.517954 
L 147.54 19.069662 
L 147.481631 18.933696 
L 142.454113 10.349437 
L 138.324 10.349437 
L 129.108 10.349437 
L 119.892 10.349437 
L 110.676 10.349437 
L 101.46 10.349437 
L 99.519864 10.349437 
L 101.46 10.775626 
L 110.676 14.222649 
L 118.637184 18.933696 
L 119.892 19.876457 
L 127.146649 27.517954 
L 129.108 30.503001 
L 131.992466 36.102212 
L 134.794024 44.68647 
L 136.257514 53.270728 
L 136.59772 61.854986 
L 135.865664 70.439244 
L 133.962355 79.023502 
L 130.603568 87.60776 
L 129.108 90.180789 
L 124.592202 96.192018 
L 119.892 100.570029 
L 113.438386 104.776276 
L 110.676 106.169326 
L 101.46 109.297873 
L 92.244 111.070713 
L 83.028 111.752588 
L 73.812 111.435703 
L 64.596 110.072532 
L 55.38 107.463017 
L 49.368727 104.776276 
L 46.164 102.949372 
L 37.960142 96.192018 
L 36.948 95.023218 
L 31.890253 87.60776 
L 28.189553 79.023502 
L 27.732 77.216359 
L 27.732 79.023502 
L 27.732 87.60776 
L 27.732 96.192018 
L 27.732 104.776276 
L 27.732 113.360534 
L 27.732 117.207534 
L 36.948 121.890424 
L 37.093973 121.944792 
z
M 30.35997 36.102212 
L 35.40589 27.517954 
L 36.948 25.648403 
L 44.156863 18.933696 
L 46.164 17.497295 
L 55.38 12.797264 
L 63.149067 10.349437 
L 55.38 10.349437 
L 46.164 10.349437 
L 36.948 10.349437 
L 27.732 10.349437 
L 27.732 18.933696 
L 27.732 27.517954 
L 27.732 36.102212 
L 27.732 43.338721 
z
" clip-path="url(#p9a48cfcf97)" style="fill: #7b1f59"/>
    <path d="M 175.188 276.461437 
L 184.404 276.461437 
L 193.62 276.461437 
L 198.705887 276.461437 
L 193.678369 267.877179 
L 193.62 267.741213 
L 190.666547 259.292921 
L 188.741635 250.708663 
L 187.564106 242.124405 
L 186.948983 233.540147 
L 186.805991 224.955889 
L 187.113682 216.371631 
L 187.913667 207.787373 
L 189.325405 199.203115 
L 191.594548 190.618857 
L 193.62 185.495447 
L 195.332632 182.034599 
L 201.838586 173.450341 
L 202.836 172.521298 
L 212.052 166.461317 
L 215.767542 164.866083 
L 221.268 162.979472 
L 230.484 160.865876 
L 239.7 159.550909 
L 248.916 158.805763 
L 258.132 158.519163 
L 267.348 158.652353 
L 276.564 159.22531 
L 285.78 160.322122 
L 294.996 162.115084 
L 304.066027 164.866083 
L 304.212 164.920451 
L 313.428 169.603341 
L 313.428 164.866083 
L 313.428 156.281825 
L 313.428 147.697567 
L 313.428 143.405437 
L 304.212 143.405437 
L 294.996 143.405437 
L 285.78 143.405437 
L 276.564 143.405437 
L 267.348 143.405437 
L 258.132 143.405437 
L 248.916 143.405437 
L 239.7 143.405437 
L 230.484 143.405437 
L 221.268 143.405437 
L 212.052 143.405437 
L 202.836 143.405437 
L 193.62 143.405437 
L 184.404 143.405437 
L 175.188 143.405437 
L 170.58 139.113308 
L 170.58 130.52905 
L 170.58 121.944792 
L 170.58 113.360534 
L 170.58 104.776276 
L 170.58 96.192018 
L 170.58 87.60776 
L 170.58 79.023502 
L 170.58 70.439244 
L 170.58 61.854986 
L 170.58 53.270728 
L 170.58 44.68647 
L 170.58 36.102212 
L 170.58 27.517954 
L 170.58 18.933696 
L 170.58 10.349437 
L 165.972 10.349437 
L 156.756 10.349437 
L 147.54 10.349437 
L 142.454113 10.349437 
L 147.481631 18.933696 
L 147.54 19.069662 
L 150.493453 27.517954 
L 152.418365 36.102212 
L 153.595894 44.68647 
L 154.211017 53.270728 
L 154.354009 61.854986 
L 154.046318 70.439244 
L 153.246333 79.023502 
L 151.834595 87.60776 
L 149.565452 96.192018 
L 147.54 101.315428 
L 145.827368 104.776276 
L 139.321414 113.360534 
L 138.324 114.289577 
L 129.108 120.349558 
L 125.392458 121.944792 
L 119.892 123.831403 
L 110.676 125.944999 
L 101.46 127.259966 
L 92.244 128.005112 
L 83.028 128.291712 
L 73.812 128.158522 
L 64.596 127.585565 
L 55.38 126.488753 
L 46.164 124.695791 
L 37.093973 121.944792 
L 36.948 121.890424 
L 27.732 117.207534 
L 27.732 121.944792 
L 27.732 130.52905 
L 27.732 139.113308 
L 27.732 143.405437 
L 36.948 143.405437 
L 46.164 143.405437 
L 55.38 143.405437 
L 64.596 143.405437 
L 73.812 143.405437 
L 83.028 143.405437 
L 92.244 143.405437 
L 101.46 143.405437 
L 110.676 143.405437 
L 119.892 143.405437 
L 129.108 143.405437 
L 138.324 143.405438 
L 147.54 143.405438 
L 156.756 143.405438 
L 165.972 143.405438 
L 170.58 147.697567 
L 170.58 156.281825 
L 170.58 164.866083 
L 170.58 173.450341 
L 170.58 182.034599 
L 170.58 190.618857 
L 170.58 199.203115 
L 170.58 207.787373 
L 170.58 216.371631 
L 170.58 224.955889 
L 170.58 233.540147 
L 170.58 242.124405 
L 170.58 250.708663 
L 170.58 259.292921 
L 170.58 267.877179 
L 170.58 276.461437 
z
" clip-path="url(#p9a48cfcf97)" style="fill: #b21758"/>
    <path d="M 147.54 276.461437 
L 156.756 276.461437 
L 165.972 276.461437 
L 170.58 276.461437 
L 170.58 267.877179 
L 170.58 259.292921 
L 170.58 250.708663 
L 170.58 242.124405 
L 170.58 233.540147 
L 170.58 224.955889 
L 170.58 216.371631 
L 170.58 207.787373 
L 170.58 199.203115 
L 170.58 190.618857 
L 170.58 182.034599 
L 170.58 173.450341 
L 170.58 164.866083 
L 170.58 156.281825 
L 170.58 147.697567 
L 165.972 143.405438 
L 156.756 143.405438 
L 147.54 143.405438 
L 138.324 143.405438 
L 129.108 143.405437 
L 119.892 143.405437 
L 110.676 143.405437 
L 101.46 143.405437 
L 92.244 143.405437 
L 83.028 143.405437 
L 73.812 143.405437 
L 64.596 143.405437 
L 55.38 143.405437 
L 46.164 143.405437 
L 36.948 143.405437 
L 27.732 143.405437 
L 27.732 147.697567 
L 27.732 156.281825 
L 27.732 164.866083 
L 27.732 169.603341 
L 36.948 164.920451 
L 37.093973 164.866083 
L 46.164 162.115084 
L 55.38 160.322122 
L 64.596 159.22531 
L 73.812 158.652353 
L 83.028 158.519163 
L 92.244 158.805763 
L 101.46 159.550909 
L 110.676 160.865876 
L 119.892 162.979472 
L 125.392458 164.866083 
L 129.108 166.461317 
L 138.324 172.521298 
L 139.321414 173.450341 
L 145.827368 182.034599 
L 147.54 185.495447 
L 149.565452 190.618857 
L 151.834595 199.203115 
L 153.246333 207.787373 
L 154.046318 216.371631 
L 154.354009 224.955889 
L 154.211017 233.540147 
L 153.595894 242.124405 
L 152.418365 250.708663 
L 150.493453 259.292921 
L 147.54 267.741213 
L 147.481631 267.877179 
L 142.454113 276.461437 
z
M 175.188 143.405437 
L 184.404 143.405437 
L 193.62 143.405437 
L 202.836 143.405437 
L 212.052 143.405437 
L 221.268 143.405437 
L 230.484 143.405437 
L 239.7 143.405437 
L 248.916 143.405437 
L 258.132 143.405437 
L 267.348 143.405437 
L 276.564 143.405437 
L 285.78 143.405437 
L 294.996 143.405437 
L 304.212 143.405437 
L 313.428 143.405437 
L 313.428 139.113308 
L 313.428 130.52905 
L 313.428 121.944792 
L 313.428 117.207534 
L 304.212 121.890424 
L 304.066027 121.944792 
L 294.996 124.695791 
L 285.78 126.488753 
L 276.564 127.585565 
L 267.348 128.158522 
L 258.132 128.291712 
L 248.916 128.005112 
L 239.7 127.259966 
L 230.484 125.944999 
L 221.268 123.831403 
L 215.767542 121.944792 
L 212.052 120.349558 
L 202.836 114.289577 
L 201.838586 113.360534 
L 195.332632 104.776276 
L 193.62 101.315428 
L 191.594548 96.192018 
L 189.325405 87.60776 
L 187.913667 79.023502 
L 187.113682 70.439244 
L 186.805991 61.854986 
L 186.948983 53.270728 
L 187.564106 44.68647 
L 188.741635 36.102212 
L 190.666547 27.517954 
L 193.62 19.069662 
L 193.678369 18.933696 
L 198.705887 10.349437 
L 193.62 10.349437 
L 184.404 10.349437 
L 175.188 10.349437 
L 170.58 10.349437 
L 170.58 18.933696 
L 170.58 27.517954 
L 170.58 36.102212 
L 170.58 44.68647 
L 170.58 53.270728 
L 170.58 61.854986 
L 170.58 70.439244 
L 170.58 79.023502 
L 170.58 87.60776 
L 170.58 96.192018 
L 170.58 104.776276 
L 170.58 113.360534 
L 170.58 121.944792 
L 170.58 130.52905 
L 170.58 139.113308 
z
" clip-path="url(#p9a48cfcf97)" style="fill: #df2f44"/>
    <path d="M 36.948 276.461437 
L 46.164 276.461437 
L 55.38 276.461437 
L 63.149067 276.461437 
L 55.38 274.013611 
L 46.164 269.31358 
L 44.156863 267.877179 
L 36.948 261.162472 
L 35.40589 259.292921 
L 30.35997 250.708663 
L 27.732 243.472154 
L 27.732 250.708663 
L 27.732 259.292921 
L 27.732 267.877179 
L 27.732 276.461437 
z
M 101.46 276.461437 
L 110.676 276.461437 
L 119.892 276.461437 
L 129.108 276.461437 
L 138.324 276.461437 
L 142.454113 276.461437 
L 147.481631 267.877179 
L 147.54 267.741213 
L 150.493453 259.292921 
L 152.418365 250.708663 
L 153.595894 242.124405 
L 154.211017 233.540147 
L 154.354009 224.955889 
L 154.046318 216.371631 
L 153.246333 207.787373 
L 151.834595 199.203115 
L 149.565452 190.618857 
L 147.54 185.495447 
L 145.827368 182.034599 
L 139.321414 173.450341 
L 138.324 172.521298 
L 129.108 166.461317 
L 125.392458 164.866083 
L 119.892 162.979472 
L 110.676 160.865876 
L 101.46 159.550909 
L 92.244 158.805763 
L 83.028 158.519163 
L 73.812 158.652353 
L 64.596 159.22531 
L 55.38 160.322122 
L 46.164 162.115084 
L 37.093973 164.866083 
L 36.948 164.920451 
L 27.732 169.603341 
L 27.732 173.450341 
L 27.732 182.034599 
L 27.732 190.618857 
L 27.732 199.203115 
L 27.732 207.787373 
L 27.732 209.594516 
L 28.189553 207.787373 
L 31.890253 199.203115 
L 36.948 191.787657 
L 37.960142 190.618857 
L 46.164 183.861503 
L 49.368727 182.034599 
L 55.38 179.347858 
L 64.596 176.738343 
L 73.812 175.375172 
L 83.028 175.058287 
L 92.244 175.740162 
L 101.46 177.513002 
L 110.676 180.641549 
L 113.438386 182.034599 
L 119.892 186.240846 
L 124.592202 190.618857 
L 129.108 196.630086 
L 130.603568 199.203115 
L 133.962355 207.787373 
L 135.865664 216.371631 
L 136.59772 224.955889 
L 136.257514 233.540147 
L 134.794024 242.124405 
L 131.992466 250.708663 
L 129.108 256.307874 
L 127.146649 259.292921 
L 119.892 266.934418 
L 118.637184 267.877179 
L 110.676 272.588226 
L 101.46 276.035249 
L 99.519864 276.461437 
z
M 221.268 123.831403 
L 230.484 125.944999 
L 239.7 127.259966 
L 248.916 128.005112 
L 258.132 128.291712 
L 267.348 128.158522 
L 276.564 127.585565 
L 285.78 126.488753 
L 294.996 124.695791 
L 304.066027 121.944792 
L 304.212 121.890424 
L 313.428 117.207534 
L 313.428 113.360534 
L 313.428 104.776276 
L 313.428 96.192018 
L 313.428 87.60776 
L 313.428 79.023502 
L 313.428 77.216359 
L 312.970447 79.023502 
L 309.269747 87.60776 
L 304.212 95.023218 
L 303.199858 96.192018 
L 294.996 102.949372 
L 291.791273 104.776276 
L 285.78 107.463017 
L 276.564 110.072532 
L 267.348 111.435703 
L 258.132 111.752588 
L 248.916 111.070713 
L 239.7 109.297873 
L 230.484 106.169326 
L 227.721614 104.776276 
L 221.268 100.570029 
L 216.567798 96.192018 
L 212.052 90.180789 
L 210.556432 87.60776 
L 207.197645 79.023502 
L 205.294336 70.439244 
L 204.56228 61.854986 
L 204.902486 53.270728 
L 206.365976 44.68647 
L 209.167534 36.102212 
L 212.052 30.503001 
L 214.013351 27.517954 
L 221.268 19.876457 
L 222.522816 18.933696 
L 230.484 14.222649 
L 239.7 10.775626 
L 241.640136 10.349437 
L 239.7 10.349437 
L 230.484 10.349437 
L 221.268 10.349437 
L 212.052 10.349437 
L 202.836 10.349437 
L 198.705887 10.349437 
L 193.678369 18.933696 
L 193.62 19.069662 
L 190.666547 27.517954 
L 188.741635 36.102212 
L 187.564106 44.68647 
L 186.948983 53.270728 
L 186.805991 61.854986 
L 187.113682 70.439244 
L 187.913667 79.023502 
L 189.325405 87.60776 
L 191.594548 96.192018 
L 193.62 101.315428 
L 195.332632 104.776276 
L 201.838586 113.360534 
L 202.836 114.289577 
L 212.052 120.349558 
L 215.767542 121.944792 
z
M 313.428 43.338721 
L 313.428 36.102212 
L 313.428 27.517954 
L 313.428 18.933696 
L 313.428 10.349437 
L 304.212 10.349437 
L 294.996 10.349437 
L 285.78 10.349437 
L 278.010933 10.349437 
L 285.78 12.797264 
L 294.996 17.497295 
L 297.003137 18.933696 
L 304.212 25.648403 
L 305.75411 27.517954 
L 310.80003 36.102212 
z
" clip-path="url(#p9a48cfcf97)" style="fill: #f26b49"/>
    <path d="M 46.164 269.31358 
L 55.38 274.013611 
L 63.149067 276.461437 
L 64.596 276.461437 
L 73.812 276.461437 
L 83.028 276.461437 
L 92.244 276.461437 
L 99.519864 276.461437 
L 101.46 276.035249 
L 110.676 272.588226 
L 118.637184 267.877179 
L 119.892 266.934418 
L 127.146649 259.292921 
L 129.108 256.307874 
L 131.992466 250.708663 
L 134.794024 242.124405 
L 136.257514 233.540147 
L 136.59772 224.955889 
L 135.865664 216.371631 
L 133.962355 207.787373 
L 130.603568 199.203115 
L 129.108 196.630086 
L 124.592202 190.618857 
L 119.892 186.240846 
L 113.438386 182.034599 
L 110.676 180.641549 
L 101.46 177.513002 
L 92.244 175.740162 
L 83.028 175.058287 
L 73.812 175.375172 
L 64.596 176.738343 
L 55.38 179.347858 
L 49.368727 182.034599 
L 46.164 183.861503 
L 37.960142 190.618857 
L 36.948 191.787657 
L 31.890253 199.203115 
L 28.189553 207.787373 
L 27.732 209.594516 
L 27.732 216.371631 
L 27.732 224.955889 
L 27.732 233.540147 
L 27.732 242.124405 
L 27.732 243.472154 
L 30.35997 250.708663 
L 35.40589 259.292921 
L 36.948 261.162472 
L 44.156863 267.877179 
z
M 62.002842 250.708663 
L 55.38 244.539806 
L 53.631223 242.124405 
L 50.22861 233.540147 
L 49.437632 224.955889 
L 51.13966 216.371631 
L 55.38 208.130632 
L 55.636932 207.787373 
L 64.596 200.610686 
L 67.877977 199.203115 
L 73.812 197.362001 
L 83.028 196.688737 
L 92.244 198.137468 
L 94.937363 199.203115 
L 101.46 202.806336 
L 106.807607 207.787373 
L 110.676 213.862893 
L 111.820071 216.371631 
L 113.375419 224.955889 
L 112.652608 233.540147 
L 110.676 239.067402 
L 109.164841 242.124405 
L 101.46 250.469343 
L 101.09148 250.708663 
L 92.244 254.658335 
L 83.028 256.243691 
L 73.812 255.506934 
L 64.596 252.337565 
z
M 230.484 106.169326 
L 239.7 109.297873 
L 248.916 111.070713 
L 258.132 111.752588 
L 267.348 111.435703 
L 276.564 110.072532 
L 285.78 107.463017 
L 291.791273 104.776276 
L 294.996 102.949372 
L 303.199858 96.192018 
L 304.212 95.023218 
L 309.269747 87.60776 
L 312.970447 79.023502 
L 313.428 77.216359 
L 313.428 70.439244 
L 313.428 61.854986 
L 313.428 53.270728 
L 313.428 44.68647 
L 313.428 43.338721 
L 310.80003 36.102212 
L 305.75411 27.517954 
L 304.212 25.648403 
L 297.003137 18.933696 
L 294.996 17.497295 
L 285.78 12.797264 
L 278.010933 10.349437 
L 276.564 10.349437 
L 267.348 10.349437 
L 258.132 10.349437 
L 248.916 10.349437 
L 241.640136 10.349437 
L 239.7 10.775626 
L 230.484 14.222649 
L 222.522816 18.933696 
L 221.268 19.876457 
L 214.013351 27.517954 
L 212.052 30.503001 
L 209.167534 36.102212 
L 206.365976 44.68647 
L 204.902486 53.270728 
L 204.56228 61.854986 
L 205.294336 70.439244 
L 207.197645 79.023502 
L 210.556432 87.60776 
L 212.052 90.180789 
L 216.567798 96.192018 
L 221.268 100.570029 
L 227.721614 104.776276 
z
M 246.222637 87.60776 
L 239.7 84.004539 
L 234.352393 79.023502 
L 230.484 72.947982 
L 229.339929 70.439244 
L 227.784581 61.854986 
L 228.507392 53.270728 
L 230.484 47.743473 
L 231.995159 44.68647 
L 239.7 36.341532 
L 240.06852 36.102212 
L 248.916 32.15254 
L 258.132 30.567184 
L 267.348 31.303941 
L 276.564 34.47331 
L 279.157158 36.102212 
L 285.78 42.271069 
L 287.528777 44.68647 
L 290.93139 53.270728 
L 291.722368 61.854986 
L 290.02034 70.439244 
L 285.78 78.680243 
L 285.523068 79.023502 
L 276.564 86.200189 
L 273.282023 87.60776 
L 267.348 89.448874 
L 258.132 90.122138 
L 248.916 88.673407 
z
" clip-path="url(#p9a48cfcf97)" style="fill: #f6a37a"/>
    <path d="M 64.596 252.337565 
L 73.812 255.506934 
L 83.028 256.243691 
L 92.244 254.658335 
L 101.09148 250.708663 
L 101.46 250.469343 
L 109.164841 242.124405 
L 110.676 239.067402 
L 112.652608 233.540147 
L 113.375419 224.955889 
L 111.820071 216.371631 
L 110.676 213.862893 
L 106.807607 207.787373 
L 101.46 202.806336 
L 94.937363 199.203115 
L 92.244 198.137468 
L 83.028 196.688737 
L 73.812 197.362001 
L 67.877977 199.203115 
L 64.596 200.610686 
L 55.636932 207.787373 
L 55.38 208.130632 
L 51.13966 216.371631 
L 49.437632 224.955889 
L 50.22861 233.540147 
L 53.631223 242.124405 
L 55.38 244.539806 
L 62.002842 250.708663 
z
M 248.916 88.673407 
L 258.132 90.122138 
L 267.348 89.448874 
L 273.282023 87.60776 
L 276.564 86.200189 
L 285.523068 79.023502 
L 285.78 78.680243 
L 290.02034 70.439244 
L 291.722368 61.854986 
L 290.93139 53.270728 
L 287.528777 44.68647 
L 285.78 42.271069 
L 279.157158 36.102212 
L 276.564 34.47331 
L 267.348 31.303941 
L 258.132 30.567184 
L 248.916 32.15254 
L 240.06852 36.102212 
L 239.7 36.341532 
L 231.995159 44.68647 
L 230.484 47.743473 
L 228.507392 53.270728 
L 227.784581 61.854986 
L 229.339929 70.439244 
L 230.484 72.947982 
L 234.352393 79.023502 
L 239.7 84.004539 
L 246.222637 87.60776 
z
" clip-path="url(#p9a48cfcf97)" style="fill: #f8d4bc"/>
   </g>
   <g id="patch_3">
    <path d="M 27.732 276.461437 
L 27.732 10.349437 
" style="fill: none; stroke: #262626; stroke-linejoin: miter; stroke-linecap: square"/>
   </g>
   <g id="patch_4">
    <path d="M 27.732 276.461437 
L 313.428 276.461437 
" style="fill: none; stroke: #262626; stroke-linejoin: miter; stroke-linecap: square"/>
   </g>
  </g>
  <g id="axes_2">
   <g id="patch_5">
    <path d="M 331.284 276.461437 
L 344.5896 276.461437 
L 344.5896 10.349437 
L 331.284 10.349437 
z
" style="fill: #ffffff"/>
   </g>
   <g id="matplotlib.axis_3"/>
   <g id="matplotlib.axis_4">
    <g id="ytick_7">
     <g id="line2d_13">
      <defs>
       <path id="m2db06b77fe" d="M 0 0 
L 4.8 0 
" style="stroke: #262626"/>
      </defs>
      <g>
       <use xlink:href="#m2db06b77fe" x="344.5896" y="276.461437" style="fill: #262626; stroke: #262626"/>
      </g>
     </g>
     <g id="text_13">
      <!-- −2.0 -->
      <g style="fill: #262626" transform="translate(352.8896 279.610875) scale(0.088 -0.088)">
       <defs>
        <path id="ArialMT-2212" d="M 3381 1997 
L 356 1997 
L 356 2522 
L 3381 2522 
L 3381 1997 
z
" transform="scale(0.015625)"/>
       </defs>
       <use xlink:href="#ArialMT-2212"/>
       <use xlink:href="#ArialMT-32" x="58.398438"/>
       <use xlink:href="#ArialMT-2e" x="114.013672"/>
       <use xlink:href="#ArialMT-30" x="141.796875"/>
      </g>
     </g>
    </g>
    <g id="ytick_8">
     <g id="line2d_14">
      <g>
       <use xlink:href="#m2db06b77fe" x="344.5896" y="243.197437" style="fill: #262626; stroke: #262626"/>
      </g>
     </g>
     <g id="text_14">
      <!-- −1.5 -->
      <g style="fill: #262626" transform="translate(352.8896 246.346875) scale(0.088 -0.088)">
       <defs>
        <path id="ArialMT-35" d="M 266 1200 
L 856 1250 
Q 922 819 1161 601 
Q 1400 384 1738 384 
Q 2144 384 2425 690 
Q 2706 997 2706 1503 
Q 2706 1984 2436 2262 
Q 2166 2541 1728 2541 
Q 1456 2541 1237 2417 
Q 1019 2294 894 2097 
L 366 2166 
L 809 4519 
L 3088 4519 
L 3088 3981 
L 1259 3981 
L 1013 2750 
Q 1425 3038 1878 3038 
Q 2478 3038 2890 2622 
Q 3303 2206 3303 1553 
Q 3303 931 2941 478 
Q 2500 -78 1738 -78 
Q 1113 -78 717 272 
Q 322 622 266 1200 
z
" transform="scale(0.015625)"/>
       </defs>
       <use xlink:href="#ArialMT-2212"/>
       <use xlink:href="#ArialMT-31" x="58.398438"/>
       <use xlink:href="#ArialMT-2e" x="114.013672"/>
       <use xlink:href="#ArialMT-35" x="141.796875"/>
      </g>
     </g>
    </g>
    <g id="ytick_9">
     <g id="line2d_15">
      <g>
       <use xlink:href="#m2db06b77fe" x="344.5896" y="209.933437" style="fill: #262626; stroke: #262626"/>
      </g>
     </g>
     <g id="text_15">
      <!-- −1.0 -->
      <g style="fill: #262626" transform="translate(352.8896 213.082875) scale(0.088 -0.088)">
       <use xlink:href="#ArialMT-2212"/>
       <use xlink:href="#ArialMT-31" x="58.398438"/>
       <use xlink:href="#ArialMT-2e" x="114.013672"/>
       <use xlink:href="#ArialMT-30" x="141.796875"/>
      </g>
     </g>
    </g>
    <g id="ytick_10">
     <g id="line2d_16">
      <g>
       <use xlink:href="#m2db06b77fe" x="344.5896" y="176.669437" style="fill: #262626; stroke: #262626"/>
      </g>
     </g>
     <g id="text_16">
      <!-- −0.5 -->
      <g style="fill: #262626" transform="translate(352.8896 179.818875) scale(0.088 -0.088)">
       <use xlink:href="#ArialMT-2212"/>
       <use xlink:href="#ArialMT-30" x="58.398438"/>
       <use xlink:href="#ArialMT-2e" x="114.013672"/>
       <use xlink:href="#ArialMT-35" x="141.796875"/>
      </g>
     </g>
    </g>
    <g id="ytick_11">
     <g id="line2d_17">
      <g>
       <use xlink:href="#m2db06b77fe" x="344.5896" y="143.405437" style="fill: #262626; stroke: #262626"/>
      </g>
     </g>
     <g id="text_17">
      <!-- 0.0 -->
      <g style="fill: #262626" transform="translate(352.8896 146.554875) scale(0.088 -0.088)">
       <use xlink:href="#ArialMT-30"/>
       <use xlink:href="#ArialMT-2e" x="55.615234"/>
       <use xlink:href="#ArialMT-30" x="83.398438"/>
      </g>
     </g>
    </g>
    <g id="ytick_12">
     <g id="line2d_18">
      <g>
       <use xlink:href="#m2db06b77fe" x="344.5896" y="110.141437" style="fill: #262626; stroke: #262626"/>
      </g>
     </g>
     <g id="text_18">
      <!-- 0.5 -->
      <g style="fill: #262626" transform="translate(352.8896 113.290875) scale(0.088 -0.088)">
       <use xlink:href="#ArialMT-30"/>
       <use xlink:href="#ArialMT-2e" x="55.615234"/>
       <use xlink:href="#ArialMT-35" x="83.398438"/>
      </g>
     </g>
    </g>
    <g id="ytick_13">
     <g id="line2d_19">
      <g>
       <use xlink:href="#m2db06b77fe" x="344.5896" y="76.877437" style="fill: #262626; stroke: #262626"/>
      </g>
     </g>
     <g id="text_19">
      <!-- 1.0 -->
      <g style="fill: #262626" transform="translate(352.8896 80.026875) scale(0.088 -0.088)">
       <use xlink:href="#ArialMT-31"/>
       <use xlink:href="#ArialMT-2e" x="55.615234"/>
       <use xlink:href="#ArialMT-30" x="83.398438"/>
      </g>
     </g>
    </g>
    <g id="ytick_14">
     <g id="line2d_20">
      <g>
       <use xlink:href="#m2db06b77fe" x="344.5896" y="43.613437" style="fill: #262626; stroke: #262626"/>
      </g>
     </g>
     <g id="text_20">
      <!-- 1.5 -->
      <g style="fill: #262626" transform="translate(352.8896 46.762875) scale(0.088 -0.088)">
       <use xlink:href="#ArialMT-31"/>
       <use xlink:href="#ArialMT-2e" x="55.615234"/>
       <use xlink:href="#ArialMT-35" x="83.398438"/>
      </g>
     </g>
    </g>
    <g id="ytick_15">
     <g id="line2d_21">
      <g>
       <use xlink:href="#m2db06b77fe" x="344.5896" y="10.349437" style="fill: #262626; stroke: #262626"/>
      </g>
     </g>
     <g id="text_21">
      <!-- 2.0 -->
      <g style="fill: #262626" transform="translate(352.8896 13.498875) scale(0.088 -0.088)">
       <use xlink:href="#ArialMT-32"/>
       <use xlink:href="#ArialMT-2e" x="55.615234"/>
       <use xlink:href="#ArialMT-30" x="83.398438"/>
      </g>
     </g>
    </g>
   </g>
   <g id="QuadMesh_1">
    <path d="M 331.284 276.461437 
L 344.5896 276.461437 
L 344.5896 243.197437 
L 331.284 243.197437 
L 331.284 276.461437 
" clip-path="url(#pdd97d30a39)" style="fill: #180f29"/>
    <path d="M 331.284 243.197437 
L 344.5896 243.197437 
L 344.5896 209.933437 
L 331.284 209.933437 
L 331.284 243.197437 
" clip-path="url(#pdd97d30a39)" style="fill: #481c48"/>
    <path d="M 331.284 209.933437 
L 344.5896 209.933437 
L 344.5896 176.669437 
L 331.284 176.669437 
L 331.284 209.933437 
" clip-path="url(#pdd97d30a39)" style="fill: #7b1f59"/>
    <path d="M 331.284 176.669437 
L 344.5896 176.669437 
L 344.5896 143.405437 
L 331.284 143.405437 
L 331.284 176.669437 
" clip-path="url(#pdd97d30a39)" style="fill: #b21758"/>
    <path d="M 331.284 143.405437 
L 344.5896 143.405437 
L 344.5896 110.141437 
L 331.284 110.141437 
L 331.284 143.405437 
" clip-path="url(#pdd97d30a39)" style="fill: #df2f44"/>
    <path d="M 331.284 110.141437 
L 344.5896 110.141437 
L 344.5896 76.877437 
L 331.284 76.877437 
L 331.284 110.141437 
" clip-path="url(#pdd97d30a39)" style="fill: #f26b49"/>
    <path d="M 331.284 76.877437 
L 344.5896 76.877437 
L 344.5896 43.613437 
L 331.284 43.613437 
L 331.284 76.877437 
" clip-path="url(#pdd97d30a39)" style="fill: #f6a37a"/>
    <path d="M 331.284 43.613437 
L 344.5896 43.613437 
L 344.5896 10.349437 
L 331.284 10.349437 
L 331.284 43.613437 
" clip-path="url(#pdd97d30a39)" style="fill: #f8d4bc"/>
   </g>
   <g id="LineCollection_1"/>
   <g id="patch_6">
    <path d="M 331.284 276.461437 
L 331.284 10.349437 
" style="fill: none; stroke: #262626; stroke-linejoin: miter; stroke-linecap: square"/>
   </g>
   <g id="patch_7">
    <path d="M 331.284 276.461437 
L 344.5896 276.461437 
" style="fill: none; stroke: #262626; stroke-linejoin: miter; stroke-linecap: square"/>
   </g>
   <g id="patch_8">
    <path d="M 331.284 276.461437 
L 337.9368 276.461437 
L 344.5896 276.461437 
L 344.5896 10.349437 
L 337.9368 10.349437 
L 331.284 10.349437 
L 331.284 276.461437 
z
" style="fill: none; stroke: #262626; stroke-linejoin: miter; stroke-linecap: square"/>
   </g>
  </g>
 </g>
 <defs>
  <clipPath id="p9a48cfcf97">
   <rect x="27.732" y="10.349437" width="285.696" height="266.112"/>
  </clipPath>
  <clipPath id="pdd97d30a39">
   <rect x="331.284" y="10.349437" width="13.3056" height="266.112"/>
  </clipPath>
 </defs>
</svg>