<?xml version="1.0" encoding="utf-8" standalone="no"?>
<!DOCTYPE svg PUBLIC "-//W3C//DTD SVG 1.1//EN"
  "http://www.w3.org/Graphics/SVG/1.1/DTD/svg11.dtd">
<svg xmlns:xlink="http://www.w3.org/1999/xlink" width="212.912875pt" height="167.278875pt" viewBox="0 0 212.912875 167.278875" xmlns="http://www.w3.org/2000/svg" version="1.1">
 <metadata>
  <rdf:RDF xmlns:dc="http://purl.org/dc/elements/1.1/" xmlns:cc="http://creativecommons.org/ns#" xmlns:rdf="http://www.w3.org/1999/02/22-rdf-syntax-ns#">
   <cc:Work>
    <dc:type rdf:resource="http://purl.org/dc/dcmitype/StillImage"/>
    <dc:date>2025-02-27T12:25:13.140568</dc:date>
    <dc:format>image/svg+xml</dc:format>
    <dc:creator>
     <cc:Agent>
      <dc:title>Matplotlib v3.9.2, https://matplotlib.org/</dc:title>
     </cc:Agent>
    </dc:creator>
   </cc:Work>
  </rdf:RDF>
 </metadata>
 <defs>
  <style type="text/css">*{stroke-linejoin: round; stroke-linecap: butt}</style>
 </defs>
 <g id="figure_1">
  <g id="patch_1">
   <path d="M 0 167.278875 
L 212.912875 167.278875 
L 212.912875 0 
L 0 0 
z
" style="fill: #ffffff"/>
  </g>
  <g id="axes_1">
   <g id="patch_2">
    <path d="M 38.312875 130.9515 
L 205.712875 130.9515 
L 205.712875 20.0715 
L 38.312875 20.0715 
z
" style="fill: #ffffff"/>
   </g>
   <g id="matplotlib.axis_1">
    <g id="xtick_1">
     <g id="line2d_1">
      <defs>
       <path id="m671c0c780b" d="M 0 0 
L 0 4.8 
" style="stroke: #262626"/>
      </defs>
      <g>
       <use xlink:href="#m671c0c780b" x="45.921966" y="130.9515" style="fill: #262626; stroke: #262626"/>
      </g>
     </g>
     <g id="text_1">
      <!-- 0.0 -->
      <g style="fill: #262626" transform="translate(39.805966 145.550375) scale(0.088 -0.088)">
       <defs>
        <path id="ArialMT-30" d="M 266 2259 
Q 266 3072 433 3567 
Q 600 4063 929 4331 
Q 1259 4600 1759 4600 
Q 2128 4600 2406 4451 
Q 2684 4303 2865 4023 
Q 3047 3744 3150 3342 
Q 3253 2941 3253 2259 
Q 3253 1453 3087 958 
Q 2922 463 2592 192 
Q 2263 -78 1759 -78 
Q 1097 -78 719 397 
Q 266 969 266 2259 
z
M 844 2259 
Q 844 1131 1108 757 
Q 1372 384 1759 384 
Q 2147 384 2411 759 
Q 2675 1134 2675 2259 
Q 2675 3391 2411 3762 
Q 2147 4134 1753 4134 
Q 1366 4134 1134 3806 
Q 844 3388 844 2259 
z
" transform="scale(0.015625)"/>
        <path id="ArialMT-2e" d="M 581 0 
L 581 641 
L 1222 641 
L 1222 0 
L 581 0 
z
" transform="scale(0.015625)"/>
       </defs>
       <use xlink:href="#ArialMT-30"/>
       <use xlink:href="#ArialMT-2e" x="55.615234"/>
       <use xlink:href="#ArialMT-30" x="83.398438"/>
      </g>
     </g>
    </g>
    <g id="xtick_2">
     <g id="line2d_2">
      <g>
       <use xlink:href="#m671c0c780b" x="76.35833" y="130.9515" style="fill: #262626; stroke: #262626"/>
      </g>
     </g>
     <g id="text_2">
      <!-- 0.2 -->
      <g style="fill: #262626" transform="translate(70.24233 145.550375) scale(0.088 -0.088)">
       <defs>
        <path id="ArialMT-32" d="M 3222 541 
L 3222 0 
L 194 0 
Q 188 203 259 391 
Q 375 700 629 1000 
Q 884 1300 1366 1694 
Q 2113 2306 2375 2664 
Q 2638 3022 2638 3341 
Q 2638 3675 2398 3904 
Q 2159 4134 1775 4134 
Q 1369 4134 1125 3890 
Q 881 3647 878 3216 
L 300 3275 
Q 359 3922 746 4261 
Q 1134 4600 1788 4600 
Q 2447 4600 2831 4234 
Q 3216 3869 3216 3328 
Q 3216 3053 3103 2787 
Q 2991 2522 2730 2228 
Q 2469 1934 1863 1422 
Q 1356 997 1212 845 
Q 1069 694 975 541 
L 3222 541 
z
" transform="scale(0.015625)"/>
       </defs>
       <use xlink:href="#ArialMT-30"/>
       <use xlink:href="#ArialMT-2e" x="55.615234"/>
       <use xlink:href="#ArialMT-32" x="83.398438"/>
      </g>
     </g>
    </g>
    <g id="xtick_3">
     <g id="line2d_3">
      <g>
       <use xlink:href="#m671c0c780b" x="106.794693" y="130.9515" style="fill: #262626; stroke: #262626"/>
      </g>
     </g>
     <g id="text_3">
      <!-- 0.4 -->
      <g style="fill: #262626" transform="translate(100.678693 145.550375) scale(0.088 -0.088)">
       <defs>
        <path id="ArialMT-34" d="M 2069 0 
L 2069 1097 
L 81 1097 
L 81 1613 
L 2172 4581 
L 2631 4581 
L 2631 1613 
L 3250 1613 
L 3250 1097 
L 2631 1097 
L 2631 0 
L 2069 0 
z
M 2069 1613 
L 2069 3678 
L 634 1613 
L 2069 1613 
z
" transform="scale(0.015625)"/>
       </defs>
       <use xlink:href="#ArialMT-30"/>
       <use xlink:href="#ArialMT-2e" x="55.615234"/>
       <use xlink:href="#ArialMT-34" x="83.398438"/>
      </g>
     </g>
    </g>
    <g id="xtick_4">
     <g id="line2d_4">
      <g>
       <use xlink:href="#m671c0c780b" x="137.231057" y="130.9515" style="fill: #262626; stroke: #262626"/>
      </g>
     </g>
     <g id="text_4">
      <!-- 0.6 -->
      <g style="fill: #262626" transform="translate(131.115057 145.550375) scale(0.088 -0.088)">
       <defs>
        <path id="ArialMT-36" d="M 3184 3459 
L 2625 3416 
Q 2550 3747 2413 3897 
Q 2184 4138 1850 4138 
Q 1581 4138 1378 3988 
Q 1113 3794 959 3422 
Q 806 3050 800 2363 
Q 1003 2672 1297 2822 
Q 1591 2972 1913 2972 
Q 2475 2972 2870 2558 
Q 3266 2144 3266 1488 
Q 3266 1056 3080 686 
Q 2894 316 2569 119 
Q 2244 -78 1831 -78 
Q 1128 -78 684 439 
Q 241 956 241 2144 
Q 241 3472 731 4075 
Q 1159 4600 1884 4600 
Q 2425 4600 2770 4297 
Q 3116 3994 3184 3459 
z
M 888 1484 
Q 888 1194 1011 928 
Q 1134 663 1356 523 
Q 1578 384 1822 384 
Q 2178 384 2434 671 
Q 2691 959 2691 1453 
Q 2691 1928 2437 2201 
Q 2184 2475 1800 2475 
Q 1419 2475 1153 2201 
Q 888 1928 888 1484 
z
" transform="scale(0.015625)"/>
       </defs>
       <use xlink:href="#ArialMT-30"/>
       <use xlink:href="#ArialMT-2e" x="55.615234"/>
       <use xlink:href="#ArialMT-36" x="83.398438"/>
      </g>
     </g>
    </g>
    <g id="xtick_5">
     <g id="line2d_5">
      <g>
       <use xlink:href="#m671c0c780b" x="167.66742" y="130.9515" style="fill: #262626; stroke: #262626"/>
      </g>
     </g>
     <g id="text_5">
      <!-- 0.8 -->
      <g style="fill: #262626" transform="translate(161.55142 145.550375) scale(0.088 -0.088)">
       <defs>
        <path id="ArialMT-38" d="M 1131 2484 
Q 781 2613 612 2850 
Q 444 3088 444 3419 
Q 444 3919 803 4259 
Q 1163 4600 1759 4600 
Q 2359 4600 2725 4251 
Q 3091 3903 3091 3403 
Q 3091 3084 2923 2848 
Q 2756 2613 2416 2484 
Q 2838 2347 3058 2040 
Q 3278 1734 3278 1309 
Q 3278 722 2862 322 
Q 2447 -78 1769 -78 
Q 1091 -78 675 323 
Q 259 725 259 1325 
Q 259 1772 486 2073 
Q 713 2375 1131 2484 
z
M 1019 3438 
Q 1019 3113 1228 2906 
Q 1438 2700 1772 2700 
Q 2097 2700 2305 2904 
Q 2513 3109 2513 3406 
Q 2513 3716 2298 3927 
Q 2084 4138 1766 4138 
Q 1444 4138 1231 3931 
Q 1019 3725 1019 3438 
z
M 838 1322 
Q 838 1081 952 856 
Q 1066 631 1291 507 
Q 1516 384 1775 384 
Q 2178 384 2440 643 
Q 2703 903 2703 1303 
Q 2703 1709 2433 1975 
Q 2163 2241 1756 2241 
Q 1359 2241 1098 1978 
Q 838 1716 838 1322 
z
" transform="scale(0.015625)"/>
       </defs>
       <use xlink:href="#ArialMT-30"/>
       <use xlink:href="#ArialMT-2e" x="55.615234"/>
       <use xlink:href="#ArialMT-38" x="83.398438"/>
      </g>
     </g>
    </g>
    <g id="xtick_6">
     <g id="line2d_6">
      <g>
       <use xlink:href="#m671c0c780b" x="198.103784" y="130.9515" style="fill: #262626; stroke: #262626"/>
      </g>
     </g>
     <g id="text_6">
      <!-- 1.0 -->
      <g style="fill: #262626" transform="translate(191.987784 145.550375) scale(0.088 -0.088)">
       <defs>
        <path id="ArialMT-31" d="M 2384 0 
L 1822 0 
L 1822 3584 
Q 1619 3391 1289 3197 
Q 959 3003 697 2906 
L 697 3450 
Q 1169 3672 1522 3987 
Q 1875 4303 2022 4600 
L 2384 4600 
L 2384 0 
z
" transform="scale(0.015625)"/>
       </defs>
       <use xlink:href="#ArialMT-31"/>
       <use xlink:href="#ArialMT-2e" x="55.615234"/>
       <use xlink:href="#ArialMT-30" x="83.398438"/>
      </g>
     </g>
    </g>
    <g id="text_7">
     <!-- $x$ -->
     <g style="fill: #262626" transform="translate(119.132875 158.170875) scale(0.096 -0.096)">
      <defs>
       <path id="DejaVuSans-Oblique-78" d="M 3841 3500 
L 2234 1784 
L 3219 0 
L 2559 0 
L 1819 1388 
L 531 0 
L -166 0 
L 1556 1844 
L 641 3500 
L 1300 3500 
L 1972 2234 
L 3144 3500 
L 3841 3500 
z
" transform="scale(0.015625)"/>
      </defs>
      <use xlink:href="#DejaVuSans-Oblique-78" transform="translate(0 0.3125)"/>
     </g>
    </g>
   </g>
   <g id="matplotlib.axis_2">
    <g id="ytick_1">
     <g id="line2d_7">
      <defs>
       <path id="mf8b60a57fe" d="M 0 0 
L -4.8 0 
" style="stroke: #262626"/>
      </defs>
      <g>
       <use xlink:href="#mf8b60a57fe" x="38.312875" y="130.9515" style="fill: #262626; stroke: #262626"/>
      </g>
     </g>
     <g id="text_8">
      <!-- −2 -->
      <g style="fill: #262626" transform="translate(19.9795 134.100937) scale(0.088 -0.088)">
       <defs>
        <path id="ArialMT-2212" d="M 3381 1997 
L 356 1997 
L 356 2522 
L 3381 2522 
L 3381 1997 
z
" transform="scale(0.015625)"/>
       </defs>
       <use xlink:href="#ArialMT-2212"/>
       <use xlink:href="#ArialMT-32" x="58.398438"/>
      </g>
     </g>
    </g>
    <g id="ytick_2">
     <g id="line2d_8">
      <g>
       <use xlink:href="#mf8b60a57fe" x="38.312875" y="112.4715" style="fill: #262626; stroke: #262626"/>
      </g>
     </g>
     <g id="text_9">
      <!-- −1 -->
      <g style="fill: #262626" transform="translate(19.9795 115.620937) scale(0.088 -0.088)">
       <use xlink:href="#ArialMT-2212"/>
       <use xlink:href="#ArialMT-31" x="58.398438"/>
      </g>
     </g>
    </g>
    <g id="ytick_3">
     <g id="line2d_9">
      <g>
       <use xlink:href="#mf8b60a57fe" x="38.312875" y="93.9915" style="fill: #262626; stroke: #262626"/>
      </g>
     </g>
     <g id="text_10">
      <!-- 0 -->
      <g style="fill: #262626" transform="translate(25.11925 97.140938) scale(0.088 -0.088)">
       <use xlink:href="#ArialMT-30"/>
      </g>
     </g>
    </g>
    <g id="ytick_4">
     <g id="line2d_10">
      <g>
       <use xlink:href="#mf8b60a57fe" x="38.312875" y="75.5115" style="fill: #262626; stroke: #262626"/>
      </g>
     </g>
     <g id="text_11">
      <!-- 1 -->
      <g style="fill: #262626" transform="translate(25.11925 78.660938) scale(0.088 -0.088)">
       <use xlink:href="#ArialMT-31"/>
      </g>
     </g>
    </g>
    <g id="ytick_5">
     <g id="line2d_11">
      <g>
       <use xlink:href="#mf8b60a57fe" x="38.312875" y="57.0315" style="fill: #262626; stroke: #262626"/>
      </g>
     </g>
     <g id="text_12">
      <!-- 2 -->
      <g style="fill: #262626" transform="translate(25.11925 60.180937) scale(0.088 -0.088)">
       <use xlink:href="#ArialMT-32"/>
      </g>
     </g>
    </g>
    <g id="ytick_6">
     <g id="line2d_12">
      <g>
       <use xlink:href="#mf8b60a57fe" x="38.312875" y="38.5515" style="fill: #262626; stroke: #262626"/>
      </g>
     </g>
     <g id="text_13">
      <!-- 3 -->
      <g style="fill: #262626" transform="translate(25.11925 41.700938) scale(0.088 -0.088)">
       <defs>
        <path id="ArialMT-33" d="M 269 1209 
L 831 1284 
Q 928 806 1161 595 
Q 1394 384 1728 384 
Q 2125 384 2398 659 
Q 2672 934 2672 1341 
Q 2672 1728 2419 1979 
Q 2166 2231 1775 2231 
Q 1616 2231 1378 2169 
L 1441 2663 
Q 1497 2656 1531 2656 
Q 1891 2656 2178 2843 
Q 2466 3031 2466 3422 
Q 2466 3731 2256 3934 
Q 2047 4138 1716 4138 
Q 1388 4138 1169 3931 
Q 950 3725 888 3313 
L 325 3413 
Q 428 3978 793 4289 
Q 1159 4600 1703 4600 
Q 2078 4600 2393 4439 
Q 2709 4278 2876 4000 
Q 3044 3722 3044 3409 
Q 3044 3113 2884 2869 
Q 2725 2625 2413 2481 
Q 2819 2388 3044 2092 
Q 3269 1797 3269 1353 
Q 3269 753 2831 336 
Q 2394 -81 1725 -81 
Q 1122 -81 723 278 
Q 325 638 269 1209 
z
" transform="scale(0.015625)"/>
       </defs>
       <use xlink:href="#ArialMT-33"/>
      </g>
     </g>
    </g>
    <g id="ytick_7">
     <g id="line2d_13">
      <g>
       <use xlink:href="#mf8b60a57fe" x="38.312875" y="20.0715" style="fill: #262626; stroke: #262626"/>
      </g>
     </g>
     <g id="text_14">
      <!-- 4 -->
      <g style="fill: #262626" transform="translate(25.11925 23.220937) scale(0.088 -0.088)">
       <use xlink:href="#ArialMT-34"/>
      </g>
     </g>
    </g>
    <g id="text_15">
     <!-- $y$ -->
     <g style="fill: #262626" transform="translate(13.9635 78.3915) rotate(-90) scale(0.096 -0.096)">
      <defs>
       <path id="DejaVuSans-Oblique-79" d="M 1588 -325 
Q 1188 -997 936 -1164 
Q 684 -1331 294 -1331 
L -159 -1331 
L -63 -850 
L 269 -850 
Q 509 -850 678 -719 
Q 847 -588 1056 -206 
L 1234 128 
L 459 3500 
L 1069 3500 
L 1650 819 
L 3256 3500 
L 3859 3500 
L 1588 -325 
z
" transform="scale(0.015625)"/>
      </defs>
      <use xlink:href="#DejaVuSans-Oblique-79" transform="translate(0 0.3125)"/>
     </g>
    </g>
   </g>
   <g id="PolyCollection_1">
    <defs>
     <path id="ma58dd29188" d="M 45.921966 -77.117319 
L 45.921966 -69.732372 
L 47.459156 -67.655355 
L 48.996346 -63.833426 
L 50.533536 -59.83838 
L 52.070726 -55.973009 
L 53.607916 -52.348857 
L 55.145106 -49.034835 
L 56.682296 -46.084715 
L 58.219487 -43.544098 
L 59.756677 -41.452365 
L 61.293867 -39.843074 
L 62.831057 -38.74379 
L 64.368247 -38.175728 
L 65.905437 -38.153315 
L 67.442627 -38.683772 
L 68.979817 -39.766728 
L 70.517007 -41.393904 
L 72.054197 -43.548878 
L 73.591387 -46.206936 
L 75.128577 -49.335027 
L 76.665768 -52.891798 
L 78.202958 -56.827698 
L 79.740148 -61.085051 
L 81.277338 -65.59794 
L 82.814528 -70.291399 
L 84.351718 -75.078569 
L 85.888908 -79.851409 
L 87.426098 -84.447782 
L 88.963288 -88.517171 
L 90.500478 -91.113314 
L 92.037668 -91.527405 
L 93.574858 -90.98974 
L 95.112049 -90.352832 
L 96.649239 -89.866954 
L 98.186429 -89.612575 
L 99.723619 -89.615977 
L 101.260809 -89.878296 
L 102.797999 -90.384602 
L 104.335189 -91.10743 
L 105.872379 -92.008412 
L 107.409569 -93.038924 
L 108.946759 -94.139514 
L 110.483949 -95.236583 
L 112.021139 -96.231288 
L 113.55833 -96.964069 
L 115.09552 -97.108665 
L 116.63271 -96.055875 
L 118.1699 -93.550813 
L 119.70709 -90.194193 
L 121.24428 -86.516227 
L 122.78147 -82.782184 
L 124.31866 -79.146425 
L 125.85585 -75.719887 
L 127.39304 -72.591185 
L 128.93023 -69.83302 
L 130.46742 -67.503789 
L 132.004611 -65.647507 
L 133.541801 -64.293047 
L 135.078991 -63.452935 
L 136.616181 -63.121347 
L 138.153371 -63.269966 
L 139.690561 -63.837589 
L 141.227751 -64.700364 
L 142.764941 -65.586085 
L 144.302131 -65.953994 
L 145.839321 -65.441351 
L 147.376511 -64.497377 
L 148.913701 -63.63036 
L 150.450892 -63.080351 
L 151.988082 -62.953597 
L 153.525272 -63.29922 
L 155.062462 -64.135478 
L 156.599652 -65.459129 
L 158.136842 -67.249286 
L 159.674032 -69.469332 
L 161.211222 -72.067974 
L 162.748412 -74.979557 
L 164.285602 -78.122874 
L 165.822792 -81.395962 
L 167.359982 -84.658726 
L 168.897173 -87.676294 
L 170.434363 -89.967726 
L 171.971553 -90.847994 
L 173.508743 -90.383061 
L 175.045933 -89.208694 
L 176.583123 -87.704975 
L 178.120313 -86.055481 
L 179.657503 -84.3727 
L 181.194693 -82.741615 
L 182.731883 -81.233218 
L 184.269073 -79.908577 
L 185.806263 -78.819686 
L 187.343454 -78.009083 
L 188.880644 -77.508814 
L 190.417834 -77.338582 
L 191.955024 -77.501905 
L 193.492214 -77.975872 
L 195.029404 -78.676155 
L 196.566594 -79.302544 
L 198.103784 -78.718072 
L 198.103784 -86.138593 
L 198.103784 -86.138593 
L 196.566594 -88.565269 
L 195.029404 -92.244705 
L 193.492214 -95.995096 
L 191.955024 -99.467862 
L 190.417834 -102.527655 
L 188.880644 -105.098921 
L 187.343454 -107.132066 
L 185.806263 -108.594473 
L 184.269073 -109.467979 
L 182.731883 -109.748393 
L 181.194693 -109.445821 
L 179.657503 -108.585595 
L 178.120313 -107.210367 
L 176.583123 -105.385273 
L 175.045933 -103.212388 
L 173.508743 -100.875048 
L 171.971553 -98.763763 
L 170.434363 -97.535635 
L 168.897173 -97.288822 
L 167.359982 -97.381017 
L 165.822792 -97.383897 
L 164.285602 -97.124184 
L 162.748412 -96.531166 
L 161.211222 -95.57862 
L 159.674032 -94.265792 
L 158.136842 -92.610383 
L 156.599652 -90.645425 
L 155.062462 -88.417594 
L 153.525272 -85.986254 
L 151.988082 -83.423405 
L 150.450892 -80.815672 
L 148.913701 -78.271965 
L 147.376511 -75.948242 
L 145.839321 -74.122933 
L 144.302131 -73.330421 
L 142.764941 -74.033089 
L 141.227751 -75.86812 
L 139.690561 -78.281465 
L 138.153371 -80.974792 
L 136.616181 -83.785984 
L 135.078991 -86.604433 
L 133.541801 -89.342554 
L 132.004611 -91.926895 
L 130.46742 -94.295689 
L 128.93023 -96.398679 
L 127.39304 -98.197817 
L 125.85585 -99.668443 
L 124.31866 -100.801113 
L 122.78147 -101.60503 
L 121.24428 -102.116155 
L 119.70709 -102.419829 
L 118.1699 -102.719577 
L 116.63271 -103.492227 
L 115.09552 -105.294293 
L 113.55833 -107.836436 
L 112.021139 -110.48504 
L 110.483949 -112.899491 
L 108.946759 -114.915723 
L 107.409569 -116.439769 
L 105.872379 -117.411646 
L 104.335189 -117.793416 
L 102.797999 -117.564899 
L 101.260809 -116.722036 
L 99.723619 -115.27639 
L 98.186429 -113.255608 
L 96.649239 -110.705792 
L 95.112049 -107.699446 
L 93.574858 -104.363451 
L 92.037668 -100.993704 
L 90.500478 -98.486688 
L 88.963288 -98.11425 
L 87.426098 -99.206111 
L 85.888908 -100.851015 
L 84.351718 -102.729576 
L 82.814528 -104.706696 
L 81.277338 -106.697171 
L 79.740148 -108.632793 
L 78.202958 -110.453164 
L 76.665768 -112.103046 
L 75.128577 -113.531817 
L 73.591387 -114.693655 
L 72.054197 -115.547982 
L 70.517007 -116.059926 
L 68.979817 -116.200754 
L 67.442627 -115.948201 
L 65.905437 -115.286702 
L 64.368247 -114.207501 
L 62.831057 -112.708666 
L 61.293867 -110.794996 
L 59.756677 -108.477859 
L 58.219487 -105.774983 
L 56.682296 -102.71028 
L 55.145106 -99.31383 
L 53.607916 -95.622398 
L 52.070726 -91.681464 
L 50.533536 -87.55226 
L 48.996346 -83.339288 
L 47.459156 -79.338956 
L 45.921966 -77.117319 
z
" style="stroke: #ffffff; stroke-opacity: 0.2; stroke-width: 0.8"/>
    </defs>
    <g clip-path="url(#pbcbf64a02f)">
     <use xlink:href="#ma58dd29188" x="0" y="167.278875" style="fill: #1f77b4; fill-opacity: 0.2; stroke: #ffffff; stroke-opacity: 0.2; stroke-width: 0.8"/>
    </g>
   </g>
   <g id="PathCollection_1">
    <defs>
     <path id="mc5af0438bc" d="M 0 2.4 
C 0.636487 2.4 1.246992 2.147121 1.697056 1.697056 
C 2.147121 1.246992 2.4 0.636487 2.4 0 
C 2.4 -0.636487 2.147121 -1.246992 1.697056 -1.697056 
C 1.246992 -2.147121 0.636487 -2.4 0 -2.4 
C -0.636487 -2.4 -1.246992 -2.147121 -1.697056 -1.697056 
C -2.147121 -1.246992 -2.4 -0.636487 -2.4 0 
C -2.4 0.636487 -2.147121 1.246992 -1.697056 1.697056 
C -1.246992 2.147121 -0.636487 2.4 0 2.4 
z
" style="stroke: #ff7f0e; stroke-width: 0.8"/>
    </defs>
    <g clip-path="url(#pbcbf64a02f)">
     <use xlink:href="#mc5af0438bc" x="90.393377" y="72.584426" style="fill: #ff7f0e; stroke: #ff7f0e; stroke-width: 0.8"/>
     <use xlink:href="#mc5af0438bc" x="197.974647" y="84.756626" style="fill: #ff7f0e; stroke: #ff7f0e; stroke-width: 0.8"/>
     <use xlink:href="#mc5af0438bc" x="144.205343" y="97.762372" style="fill: #ff7f0e; stroke: #ff7f0e; stroke-width: 0.8"/>
     <use xlink:href="#mc5af0438bc" x="45.949617" y="93.853156" style="fill: #ff7f0e; stroke: #ff7f0e; stroke-width: 0.8"/>
     <use xlink:href="#mc5af0438bc" x="171.033959" y="72.964727" style="fill: #ff7f0e; stroke: #ff7f0e; stroke-width: 0.8"/>
     <use xlink:href="#mc5af0438bc" x="116.302669" y="67.058179" style="fill: #ff7f0e; stroke: #ff7f0e; stroke-width: 0.8"/>
    </g>
   </g>
   <g id="line2d_14">
    <path d="M 45.921966 93.854029 
L 47.459156 93.78172 
L 48.996346 93.692518 
L 50.533536 93.583555 
L 52.070726 93.451639 
L 53.607916 93.293248 
L 55.145106 93.104543 
L 56.682296 92.881378 
L 58.219487 92.619335 
L 59.756677 92.313763 
L 61.293867 91.95984 
L 62.831057 91.552647 
L 64.368247 91.087261 
L 65.905437 90.558867 
L 67.442627 89.962888 
L 68.979817 89.295134 
L 70.517007 88.55196 
L 72.054197 87.730445 
L 73.591387 86.828579 
L 75.128577 85.845453 
L 76.665768 84.781453 
L 78.202958 83.638444 
L 79.740148 82.419953 
L 81.277338 81.131319 
L 82.814528 79.779827 
L 84.351718 78.374802 
L 85.888908 76.927663 
L 87.426098 75.451928 
L 88.963288 73.963164 
L 90.500478 72.478874 
L 92.037668 71.01832 
L 93.574858 69.60228 
L 95.112049 68.252736 
L 96.649239 66.992502 
L 98.186429 65.844783 
L 99.723619 64.832691 
L 101.260809 63.978709 
L 102.797999 63.304124 
L 104.335189 62.828452 
L 105.872379 62.568846 
L 107.409569 62.539528 
L 108.946759 62.751257 
L 110.483949 63.210838 
L 112.021139 63.920711 
L 113.55833 64.878622 
L 115.09552 66.077396 
L 116.63271 67.504824 
L 118.1699 69.14368 
L 119.70709 70.971864 
L 121.24428 72.962684 
L 122.78147 75.085268 
L 124.31866 77.305106 
L 125.85585 79.58471 
L 127.39304 81.884374 
L 128.93023 84.163026 
L 130.46742 86.379136 
L 132.004611 88.491674 
L 133.541801 90.461075 
L 135.078991 92.250191 
L 136.616181 93.825209 
L 138.153371 95.156496 
L 139.690561 96.219348 
L 141.227751 96.994633 
L 142.764941 97.469288 
L 144.302131 97.636668 
L 145.839321 97.496733 
L 147.376511 97.056066 
L 148.913701 96.327712 
L 150.450892 95.330864 
L 151.988082 94.090374 
L 153.525272 92.636138 
L 155.062462 91.002339 
L 156.599652 89.226598 
L 158.136842 87.34904 
L 159.674032 85.411313 
L 161.211222 83.455578 
L 162.748412 81.523513 
L 164.285602 79.655346 
L 165.822792 77.888946 
L 167.359982 76.259004 
L 168.897173 74.796317 
L 170.434363 73.527195 
L 171.971553 72.472996 
L 173.508743 71.64982 
L 175.045933 71.068334 
L 176.583123 70.733751 
L 178.120313 70.645951 
L 179.657503 70.799727 
L 181.194693 71.185157 
L 182.731883 71.788069 
L 184.269073 72.590597 
L 185.806263 73.571796 
L 187.343454 74.7083 
L 188.880644 75.975008 
L 190.417834 77.345756 
L 191.955024 78.793991 
L 193.492214 80.293391 
L 195.029404 81.818445 
L 196.566594 83.344968 
L 198.103784 84.850542 
" clip-path="url(#pbcbf64a02f)" style="fill: none; stroke: #1f77b4; stroke-width: 1.2; stroke-linecap: round"/>
   </g>
   <g id="line2d_15">
    <path d="M 45.921966 95.859732 
L 47.459156 98.880322 
L 48.996346 101.780347 
L 50.533536 104.51708 
L 52.070726 107.046783 
L 53.607916 109.31823 
L 55.145106 111.279783 
L 56.682296 112.884425 
L 58.219487 114.090678 
L 59.756677 114.859687 
L 61.293867 115.152903 
L 62.831057 114.9561 
L 64.368247 114.272611 
L 65.905437 113.102284 
L 67.442627 111.467842 
L 68.979817 109.408508 
L 70.517007 106.982069 
L 72.054197 104.229797 
L 73.591387 101.249052 
L 75.128577 98.107717 
L 76.665768 94.885266 
L 78.202958 91.675457 
L 79.740148 88.551456 
L 81.277338 85.582973 
L 82.814528 82.839012 
L 84.351718 80.365635 
L 85.888908 78.19547 
L 87.426098 76.346012 
L 88.963288 74.827679 
L 90.500478 73.615403 
L 92.037668 72.682057 
L 93.574858 71.996248 
L 95.112049 71.500468 
L 96.649239 71.136947 
L 98.186429 70.846634 
L 99.723619 70.584993 
L 101.260809 70.28959 
L 102.797999 69.911759 
L 104.335189 69.433796 
L 105.872379 68.821673 
L 107.409569 68.069707 
L 108.946759 67.195145 
L 110.483949 66.218281 
L 112.021139 65.157762 
L 113.55833 64.086158 
L 115.09552 63.038468 
L 116.63271 62.087469 
L 118.1699 61.285258 
L 119.70709 60.706206 
L 121.24428 60.413518 
L 122.78147 60.447489 
L 124.31866 60.861308 
L 125.85585 61.682126 
L 127.39304 62.927188 
L 128.93023 64.6122 
L 130.46742 66.706644 
L 132.004611 69.190345 
L 133.541801 72.012782 
L 135.078991 75.121669 
L 136.616181 78.420189 
L 138.153371 81.845486 
L 139.690561 85.300672 
L 141.227751 88.678733 
L 142.764941 91.886437 
L 144.302131 94.824861 
L 145.839321 97.397169 
L 147.376511 99.546549 
L 148.913701 101.181664 
L 150.450892 102.270847 
L 151.988082 102.770646 
L 153.525272 102.677062 
L 155.062462 101.99834 
L 156.599652 100.761468 
L 158.136842 99.01903 
L 159.674032 96.82745 
L 161.211222 94.286991 
L 162.748412 91.456698 
L 164.285602 88.450288 
L 165.822792 85.364372 
L 167.359982 82.29129 
L 168.897173 79.332206 
L 170.434363 76.563057 
L 171.971553 74.069446 
L 173.508743 71.907529 
L 175.045933 70.12289 
L 176.583123 68.768308 
L 178.120313 67.85388 
L 179.657503 67.381417 
L 181.194693 67.359273 
L 182.731883 67.764838 
L 184.269073 68.568292 
L 185.806263 69.744243 
L 187.343454 71.2546 
L 188.880644 73.049779 
L 190.417834 75.096816 
L 191.955024 77.335999 
L 193.492214 79.716474 
L 195.029404 82.214281 
L 196.566594 84.77473 
L 198.103784 87.352322 
" clip-path="url(#pbcbf64a02f)" style="fill: none; stroke: #d62728; stroke-opacity: 0.5; stroke-width: 0.5; stroke-linecap: round"/>
   </g>
   <g id="line2d_16">
    <path d="M 45.921966 91.535897 
L 47.459156 93.327799 
L 48.996346 94.998329 
L 50.533536 96.503209 
L 52.070726 97.786054 
L 53.607916 98.809654 
L 55.145106 99.541816 
L 56.682296 99.946252 
L 58.219487 100.025176 
L 59.756677 99.76456 
L 61.293867 99.172819 
L 62.831057 98.268792 
L 64.368247 97.092763 
L 65.905437 95.66219 
L 67.442627 94.023994 
L 68.979817 92.235478 
L 70.517007 90.333668 
L 72.054197 88.374894 
L 73.591387 86.410261 
L 75.128577 84.474232 
L 76.665768 82.623512 
L 78.202958 80.883667 
L 79.740148 79.275963 
L 81.277338 77.832627 
L 82.814528 76.558856 
L 84.351718 75.456097 
L 85.888908 74.519593 
L 87.426098 73.736059 
L 88.963288 73.096506 
L 90.500478 72.571288 
L 92.037668 72.141335 
L 93.574858 71.773256 
L 95.112049 71.447498 
L 96.649239 71.147753 
L 98.186429 70.849049 
L 99.723619 70.543911 
L 101.260809 70.221104 
L 102.797999 69.882494 
L 104.335189 69.545824 
L 105.872379 69.210799 
L 107.409569 68.908467 
L 108.946759 68.660521 
L 110.483949 68.49335 
L 112.021139 68.441461 
L 113.55833 68.53394 
L 115.09552 68.800673 
L 116.63271 69.259749 
L 118.1699 69.936382 
L 119.70709 70.838235 
L 121.24428 71.963344 
L 122.78147 73.317449 
L 124.31866 74.88061 
L 125.85585 76.63246 
L 127.39304 78.54008 
L 128.93023 80.570471 
L 130.46742 82.686494 
L 132.004611 84.83541 
L 133.541801 86.975306 
L 135.078991 89.057019 
L 136.616181 91.032979 
L 138.153371 92.86876 
L 139.690561 94.512429 
L 141.227751 95.928052 
L 142.764941 97.090692 
L 144.302131 97.97766 
L 145.839321 98.565757 
L 147.376511 98.850397 
L 148.913701 98.80907 
L 150.450892 98.453328 
L 151.988082 97.787353 
L 153.525272 96.828853 
L 155.062462 95.600169 
L 156.599652 94.119301 
L 158.136842 92.413534 
L 159.674032 90.53156 
L 161.211222 88.5121 
L 162.748412 86.401203 
L 164.285602 84.236316 
L 165.822792 82.075003 
L 167.359982 79.970788 
L 168.897173 77.980072 
L 170.434363 76.141911 
L 171.971553 74.491543 
L 173.508743 73.088735 
L 175.045933 71.944596 
L 176.583123 71.09813 
L 178.120313 70.554856 
L 179.657503 70.324318 
L 181.194693 70.400418 
L 182.731883 70.783704 
L 184.269073 71.436557 
L 185.806263 72.346286 
L 187.343454 73.475687 
L 188.880644 74.807349 
L 190.417834 76.282333 
L 191.955024 77.887066 
L 193.492214 79.588387 
L 195.029404 81.357277 
L 196.566594 83.166858 
L 198.103784 85.006143 
" clip-path="url(#pbcbf64a02f)" style="fill: none; stroke: #d62728; stroke-opacity: 0.5; stroke-width: 0.5; stroke-linecap: round"/>
   </g>
   <g id="line2d_17">
    <path d="M 45.921966 96.373265 
L 47.459156 96.35777 
L 48.996346 96.332846 
L 50.533536 96.296237 
L 52.070726 96.273126 
L 53.607916 96.274258 
L 55.145106 96.296159 
L 56.682296 96.339304 
L 58.219487 96.403867 
L 59.756677 96.479006 
L 61.293867 96.549328 
L 62.831057 96.590411 
L 64.368247 96.590967 
L 65.905437 96.527201 
L 67.442627 96.361496 
L 68.979817 96.080355 
L 70.517007 95.654277 
L 72.054197 95.075238 
L 73.591387 94.310389 
L 75.128577 93.34923 
L 76.665768 92.193744 
L 78.202958 90.82344 
L 79.740148 89.264271 
L 81.277338 87.496081 
L 82.814528 85.549579 
L 84.351718 83.440053 
L 85.888908 81.198307 
L 87.426098 78.85113 
L 88.963288 76.43126 
L 90.500478 73.982189 
L 92.037668 71.549756 
L 93.574858 69.171467 
L 95.112049 66.904198 
L 96.649239 64.790843 
L 98.186429 62.879325 
L 99.723619 61.223967 
L 101.260809 59.868154 
L 102.797999 58.848055 
L 104.335189 58.20387 
L 105.872379 57.954579 
L 107.409569 58.121611 
L 108.946759 58.716851 
L 110.483949 59.734767 
L 112.021139 61.168939 
L 113.55833 62.983216 
L 115.09552 65.14688 
L 116.63271 67.621594 
L 118.1699 70.346024 
L 119.70709 73.253316 
L 121.24428 76.277569 
L 122.78147 79.35305 
L 124.31866 82.391804 
L 125.85585 85.328734 
L 127.39304 88.089573 
L 128.93023 90.61527 
L 130.46742 92.832 
L 132.004611 94.700456 
L 133.541801 96.183285 
L 135.078991 97.240899 
L 136.616181 97.86489 
L 138.153371 98.045963 
L 139.690561 97.785667 
L 141.227751 97.113485 
L 142.764941 96.058507 
L 144.302131 94.64976 
L 145.839321 92.947898 
L 147.376511 91.006672 
L 148.913701 88.876037 
L 150.450892 86.63183 
L 151.988082 84.329886 
L 153.525272 82.046804 
L 155.062462 79.839923 
L 156.599652 77.776732 
L 158.136842 75.89709 
L 159.674032 74.247749 
L 161.211222 72.875477 
L 162.748412 71.800559 
L 164.285602 71.041258 
L 165.822792 70.60309 
L 167.359982 70.483022 
L 168.897173 70.656267 
L 170.434363 71.102707 
L 171.971553 71.800996 
L 173.508743 72.694197 
L 175.045933 73.754839 
L 176.583123 74.934761 
L 178.120313 76.180311 
L 179.657503 77.454347 
L 181.194693 78.710906 
L 182.731883 79.913735 
L 184.269073 81.030998 
L 185.806263 82.026019 
L 187.343454 82.890091 
L 188.880644 83.599946 
L 190.417834 84.147104 
L 191.955024 84.520104 
L 193.492214 84.736233 
L 195.029404 84.776406 
L 196.566594 84.672613 
L 198.103784 84.417896 
" clip-path="url(#pbcbf64a02f)" style="fill: none; stroke: #d62728; stroke-opacity: 0.5; stroke-width: 0.5; stroke-linecap: round"/>
   </g>
   <g id="line2d_18">
    <path d="M 45.921966 94.653708 
L 47.459156 94.984659 
L 48.996346 95.232144 
L 50.533536 95.373061 
L 52.070726 95.411928 
L 53.607916 95.352628 
L 55.145106 95.190016 
L 56.682296 94.959006 
L 58.219487 94.673904 
L 59.756677 94.345093 
L 61.293867 94.001689 
L 62.831057 93.651709 
L 64.368247 93.305218 
L 65.905437 92.971415 
L 67.442627 92.636343 
L 68.979817 92.291547 
L 70.517007 91.922015 
L 72.054197 91.504392 
L 73.591387 91.018643 
L 75.128577 90.414215 
L 76.665768 89.671691 
L 78.202958 88.773415 
L 79.740148 87.676731 
L 81.277338 86.37043 
L 82.814528 84.851327 
L 84.351718 83.121159 
L 85.888908 81.180663 
L 87.426098 79.058362 
L 88.963288 76.792689 
L 90.500478 74.420721 
L 92.037668 72.004907 
L 93.574858 69.598577 
L 95.112049 67.275468 
L 96.649239 65.100756 
L 98.186429 63.136885 
L 99.723619 61.463618 
L 101.260809 60.120257 
L 102.797999 59.168809 
L 104.335189 58.641802 
L 105.872379 58.560854 
L 107.409569 58.949668 
L 108.946759 59.784099 
L 110.483949 61.051074 
L 112.021139 62.727946 
L 113.55833 64.764684 
L 115.09552 67.098351 
L 116.63271 69.67272 
L 118.1699 72.424043 
L 119.70709 75.28192 
L 121.24428 78.173322 
L 122.78147 81.03219 
L 124.31866 83.80442 
L 125.85585 86.429889 
L 127.39304 88.862042 
L 128.93023 91.071111 
L 130.46742 93.017261 
L 132.004611 94.686318 
L 133.541801 96.05794 
L 135.078991 97.138536 
L 136.616181 97.924607 
L 138.153371 98.420958 
L 139.690561 98.641817 
L 141.227751 98.599306 
L 142.764941 98.315311 
L 144.302131 97.803762 
L 145.839321 97.08343 
L 147.376511 96.180028 
L 148.913701 95.102423 
L 150.450892 93.875118 
L 151.988082 92.516301 
L 153.525272 91.04199 
L 155.062462 89.462891 
L 156.599652 87.816485 
L 158.136842 86.10266 
L 159.674032 84.351998 
L 161.211222 82.589277 
L 162.748412 80.831313 
L 164.285602 79.103444 
L 165.822792 77.427685 
L 167.359982 75.842537 
L 168.897173 74.367837 
L 170.434363 73.032118 
L 171.971553 71.855425 
L 173.508743 70.879549 
L 175.045933 70.11611 
L 176.583123 69.583991 
L 178.120313 69.307797 
L 179.657503 69.290762 
L 181.194693 69.549907 
L 182.731883 70.070033 
L 184.269073 70.854956 
L 185.806263 71.890154 
L 187.343454 73.148984 
L 188.880644 74.610451 
L 190.417834 76.236009 
L 191.955024 77.990309 
L 193.492214 79.831089 
L 195.029404 81.708446 
L 196.566594 83.570128 
L 198.103784 85.373287 
" clip-path="url(#pbcbf64a02f)" style="fill: none; stroke: #d62728; stroke-opacity: 0.5; stroke-width: 0.5; stroke-linecap: round"/>
   </g>
   <g id="line2d_19">
    <path d="M 45.921966 93.199309 
L 47.459156 92.283041 
L 48.996346 91.426416 
L 50.533536 90.66233 
L 52.070726 90.013827 
L 53.607916 89.517357 
L 55.145106 89.159098 
L 56.682296 88.934601 
L 58.219487 88.836496 
L 59.756677 88.84278 
L 61.293867 88.917352 
L 62.831057 89.032982 
L 64.368247 89.145469 
L 65.905437 89.22117 
L 67.442627 89.227839 
L 68.979817 89.124284 
L 70.517007 88.887221 
L 72.054197 88.493103 
L 73.591387 87.919322 
L 75.128577 87.160816 
L 76.665768 86.214445 
L 78.202958 85.065536 
L 79.740148 83.744542 
L 81.277338 82.248958 
L 82.814528 80.608012 
L 84.351718 78.83535 
L 85.888908 76.961107 
L 87.426098 75.016428 
L 88.963288 73.029409 
L 90.500478 71.035045 
L 92.037668 69.065462 
L 93.574858 67.151047 
L 95.112049 65.341154 
L 96.649239 63.65864 
L 98.186429 62.144059 
L 99.723619 60.831138 
L 101.260809 59.751409 
L 102.797999 58.9389 
L 104.335189 58.420651 
L 105.872379 58.205381 
L 107.409569 58.33013 
L 108.946759 58.788321 
L 110.483949 59.599358 
L 112.021139 60.75234 
L 113.55833 62.234375 
L 115.09552 64.02549 
L 116.63271 66.104343 
L 118.1699 68.427426 
L 119.70709 70.951218 
L 121.24428 73.630401 
L 122.78147 76.411173 
L 124.31866 79.231337 
L 125.85585 82.025463 
L 127.39304 84.734502 
L 128.93023 87.300947 
L 130.46742 89.664444 
L 132.004611 91.776944 
L 133.541801 93.581467 
L 135.078991 95.050961 
L 136.616181 96.147552 
L 138.153371 96.859221 
L 139.690561 97.175195 
L 141.227751 97.093119 
L 142.764941 96.647676 
L 144.302131 95.8392 
L 145.839321 94.719973 
L 147.376511 93.321823 
L 148.913701 91.71788 
L 150.450892 89.942646 
L 151.988082 88.062883 
L 153.525272 86.145791 
L 155.062462 84.25003 
L 156.599652 82.432409 
L 158.136842 80.739808 
L 159.674032 79.232109 
L 161.211222 77.922115 
L 162.748412 76.845913 
L 164.285602 76.025678 
L 165.822792 75.467607 
L 167.359982 75.157463 
L 168.897173 75.081849 
L 170.434363 75.224564 
L 171.971553 75.548277 
L 173.508743 76.0294 
L 175.045933 76.614549 
L 176.583123 77.289359 
L 178.120313 78.003282 
L 179.657503 78.724501 
L 181.194693 79.413824 
L 182.731883 80.068186 
L 184.269073 80.64629 
L 185.806263 81.154262 
L 187.343454 81.585673 
L 188.880644 81.945322 
L 190.417834 82.234532 
L 191.955024 82.486198 
L 193.492214 82.72157 
L 195.029404 82.969114 
L 196.566594 83.277848 
L 198.103784 83.660977 
" clip-path="url(#pbcbf64a02f)" style="fill: none; stroke: #d62728; stroke-opacity: 0.5; stroke-width: 0.5; stroke-linecap: round"/>
   </g>
   <g id="line2d_20">
    <path d="M 66.867399 130.9515 
L 66.867399 20.0715 
" clip-path="url(#pbcbf64a02f)" style="fill: none; stroke-dasharray: 4.44,1.92; stroke-dashoffset: 0; stroke: #ff0000; stroke-width: 1.2"/>
   </g>
   <g id="patch_3">
    <path d="M 38.312875 130.9515 
L 38.312875 20.0715 
" style="fill: none; stroke: #262626; stroke-linejoin: miter; stroke-linecap: square"/>
   </g>
   <g id="patch_4">
    <path d="M 45.921966 130.9515 
L 198.103784 130.9515 
" style="fill: none; stroke: #262626; stroke-linejoin: miter; stroke-linecap: square"/>
   </g>
   <g id="text_16">
    <!-- $N=6$ -->
    <g style="fill: #262626" transform="translate(109.436875 14.0715) scale(0.096 -0.096)">
     <defs>
      <path id="DejaVuSans-Oblique-4e" d="M 1081 4666 
L 1931 4666 
L 3219 666 
L 4000 4666 
L 4616 4666 
L 3706 0 
L 2853 0 
L 1569 4025 
L 788 0 
L 172 0 
L 1081 4666 
z
" transform="scale(0.015625)"/>
      <path id="DejaVuSans-3d" d="M 678 2906 
L 4684 2906 
L 4684 2381 
L 678 2381 
L 678 2906 
z
M 678 1631 
L 4684 1631 
L 4684 1100 
L 678 1100 
L 678 1631 
z
" transform="scale(0.015625)"/>
      <path id="DejaVuSans-36" d="M 2113 2584 
Q 1688 2584 1439 2293 
Q 1191 2003 1191 1497 
Q 1191 994 1439 701 
Q 1688 409 2113 409 
Q 2538 409 2786 701 
Q 3034 994 3034 1497 
Q 3034 2003 2786 2293 
Q 2538 2584 2113 2584 
z
M 3366 4563 
L 3366 3988 
Q 3128 4100 2886 4159 
Q 2644 4219 2406 4219 
Q 1781 4219 1451 3797 
Q 1122 3375 1075 2522 
Q 1259 2794 1537 2939 
Q 1816 3084 2150 3084 
Q 2853 3084 3261 2657 
Q 3669 2231 3669 1497 
Q 3669 778 3244 343 
Q 2819 -91 2113 -91 
Q 1303 -91 875 529 
Q 447 1150 447 2328 
Q 447 3434 972 4092 
Q 1497 4750 2381 4750 
Q 2619 4750 2861 4703 
Q 3103 4656 3366 4563 
z
" transform="scale(0.015625)"/>
     </defs>
     <use xlink:href="#DejaVuSans-Oblique-4e" transform="translate(0 0.78125)"/>
     <use xlink:href="#DejaVuSans-3d" transform="translate(94.287109 0.78125)"/>
     <use xlink:href="#DejaVuSans-36" transform="translate(197.558594 0.78125)"/>
    </g>
   </g>
  </g>
 </g>
 <defs>
  <clipPath id="pbcbf64a02f">
   <rect x="38.312875" y="20.0715" width="167.4" height="110.88"/>
  </clipPath>
 </defs>
</svg>