<?xml version="1.0" encoding="utf-8" standalone="no"?>
<!DOCTYPE svg PUBLIC "-//W3C//DTD SVG 1.1//EN"
  "http://www.w3.org/Graphics/SVG/1.1/DTD/svg11.dtd">
<svg xmlns:xlink="http://www.w3.org/1999/xlink" width="405.061pt" height="322.627875pt" viewBox="0 0 405.061 322.627875" xmlns="http://www.w3.org/2000/svg" version="1.1">
 <metadata>
  <rdf:RDF xmlns:dc="http://purl.org/dc/elements/1.1/" xmlns:cc="http://creativecommons.org/ns#" xmlns:rdf="http://www.w3.org/1999/02/22-rdf-syntax-ns#">
   <cc:Work>
    <dc:type rdf:resource="http://purl.org/dc/dcmitype/StillImage"/>
    <dc:date>2024-09-27T20:18:25.931776</dc:date>
    <dc:format>image/svg+xml</dc:format>
    <dc:creator>
     <cc:Agent>
      <dc:title>Matplotlib v3.9.0, https://matplotlib.org/</dc:title>
     </cc:Agent>
    </dc:creator>
   </cc:Work>
  </rdf:RDF>
 </metadata>
 <defs>
  <style type="text/css">*{stroke-linejoin: round; stroke-linecap: butt}</style>
 </defs>
 <g id="figure_1">
  <g id="patch_1">
   <path d="M 0 322.627875 
L 405.061 322.627875 
L 405.061 0 
L 0 0 
z
" style="fill: #ffffff"/>
  </g>
  <g id="axes_1">
   <g id="patch_2">
    <path d="M 40.741 286.3005 
L 397.861 286.3005 
L 397.861 20.1885 
L 40.741 20.1885 
z
" style="fill: #ffffff"/>
   </g>
   <g id="matplotlib.axis_1">
    <g id="xtick_1">
     <g id="line2d_1">
      <defs>
       <path id="m736aea38df" d="M 0 0 
L 0 4.8 
" style="stroke: #262626"/>
      </defs>
      <g>
       <use xlink:href="#m736aea38df" x="56.648422" y="286.3005" style="fill: #262626; stroke: #262626"/>
      </g>
     </g>
     <g id="text_1">
      <!-- 0 -->
      <g style="fill: #262626" transform="translate(54.20161 300.899375) scale(0.088 -0.088)">
       <defs>
        <path id="ArialMT-30" d="M 266 2259 
Q 266 3072 433 3567 
Q 600 4063 929 4331 
Q 1259 4600 1759 4600 
Q 2128 4600 2406 4451 
Q 2684 4303 2865 4023 
Q 3047 3744 3150 3342 
Q 3253 2941 3253 2259 
Q 3253 1453 3087 958 
Q 2922 463 2592 192 
Q 2263 -78 1759 -78 
Q 1097 -78 719 397 
Q 266 969 266 2259 
z
M 844 2259 
Q 844 1131 1108 757 
Q 1372 384 1759 384 
Q 2147 384 2411 759 
Q 2675 1134 2675 2259 
Q 2675 3391 2411 3762 
Q 2147 4134 1753 4134 
Q 1366 4134 1134 3806 
Q 844 3388 844 2259 
z
" transform="scale(0.015625)"/>
       </defs>
       <use xlink:href="#ArialMT-30"/>
      </g>
     </g>
    </g>
    <g id="xtick_2">
     <g id="line2d_2">
      <g>
       <use xlink:href="#m736aea38df" x="121.644392" y="286.3005" style="fill: #262626; stroke: #262626"/>
      </g>
     </g>
     <g id="text_2">
      <!-- 10 -->
      <g style="fill: #262626" transform="translate(116.750767 300.899375) scale(0.088 -0.088)">
       <defs>
        <path id="ArialMT-31" d="M 2384 0 
L 1822 0 
L 1822 3584 
Q 1619 3391 1289 3197 
Q 959 3003 697 2906 
L 697 3450 
Q 1169 3672 1522 3987 
Q 1875 4303 2022 4600 
L 2384 4600 
L 2384 0 
z
" transform="scale(0.015625)"/>
       </defs>
       <use xlink:href="#ArialMT-31"/>
       <use xlink:href="#ArialMT-30" x="55.615234"/>
      </g>
     </g>
    </g>
    <g id="xtick_3">
     <g id="line2d_3">
      <g>
       <use xlink:href="#m736aea38df" x="186.640362" y="286.3005" style="fill: #262626; stroke: #262626"/>
      </g>
     </g>
     <g id="text_3">
      <!-- 20 -->
      <g style="fill: #262626" transform="translate(181.746737 300.899375) scale(0.088 -0.088)">
       <defs>
        <path id="ArialMT-32" d="M 3222 541 
L 3222 0 
L 194 0 
Q 188 203 259 391 
Q 375 700 629 1000 
Q 884 1300 1366 1694 
Q 2113 2306 2375 2664 
Q 2638 3022 2638 3341 
Q 2638 3675 2398 3904 
Q 2159 4134 1775 4134 
Q 1369 4134 1125 3890 
Q 881 3647 878 3216 
L 300 3275 
Q 359 3922 746 4261 
Q 1134 4600 1788 4600 
Q 2447 4600 2831 4234 
Q 3216 3869 3216 3328 
Q 3216 3053 3103 2787 
Q 2991 2522 2730 2228 
Q 2469 1934 1863 1422 
Q 1356 997 1212 845 
Q 1069 694 975 541 
L 3222 541 
z
" transform="scale(0.015625)"/>
       </defs>
       <use xlink:href="#ArialMT-32"/>
       <use xlink:href="#ArialMT-30" x="55.615234"/>
      </g>
     </g>
    </g>
    <g id="xtick_4">
     <g id="line2d_4">
      <g>
       <use xlink:href="#m736aea38df" x="251.636332" y="286.3005" style="fill: #262626; stroke: #262626"/>
      </g>
     </g>
     <g id="text_4">
      <!-- 30 -->
      <g style="fill: #262626" transform="translate(246.742707 300.899375) scale(0.088 -0.088)">
       <defs>
        <path id="ArialMT-33" d="M 269 1209 
L 831 1284 
Q 928 806 1161 595 
Q 1394 384 1728 384 
Q 2125 384 2398 659 
Q 2672 934 2672 1341 
Q 2672 1728 2419 1979 
Q 2166 2231 1775 2231 
Q 1616 2231 1378 2169 
L 1441 2663 
Q 1497 2656 1531 2656 
Q 1891 2656 2178 2843 
Q 2466 3031 2466 3422 
Q 2466 3731 2256 3934 
Q 2047 4138 1716 4138 
Q 1388 4138 1169 3931 
Q 950 3725 888 3313 
L 325 3413 
Q 428 3978 793 4289 
Q 1159 4600 1703 4600 
Q 2078 4600 2393 4439 
Q 2709 4278 2876 4000 
Q 3044 3722 3044 3409 
Q 3044 3113 2884 2869 
Q 2725 2625 2413 2481 
Q 2819 2388 3044 2092 
Q 3269 1797 3269 1353 
Q 3269 753 2831 336 
Q 2394 -81 1725 -81 
Q 1122 -81 723 278 
Q 325 638 269 1209 
z
" transform="scale(0.015625)"/>
       </defs>
       <use xlink:href="#ArialMT-33"/>
       <use xlink:href="#ArialMT-30" x="55.615234"/>
      </g>
     </g>
    </g>
    <g id="xtick_5">
     <g id="line2d_5">
      <g>
       <use xlink:href="#m736aea38df" x="316.632303" y="286.3005" style="fill: #262626; stroke: #262626"/>
      </g>
     </g>
     <g id="text_5">
      <!-- 40 -->
      <g style="fill: #262626" transform="translate(311.738678 300.899375) scale(0.088 -0.088)">
       <defs>
        <path id="ArialMT-34" d="M 2069 0 
L 2069 1097 
L 81 1097 
L 81 1613 
L 2172 4581 
L 2631 4581 
L 2631 1613 
L 3250 1613 
L 3250 1097 
L 2631 1097 
L 2631 0 
L 2069 0 
z
M 2069 1613 
L 2069 3678 
L 634 1613 
L 2069 1613 
z
" transform="scale(0.015625)"/>
       </defs>
       <use xlink:href="#ArialMT-34"/>
       <use xlink:href="#ArialMT-30" x="55.615234"/>
      </g>
     </g>
    </g>
    <g id="xtick_6">
     <g id="line2d_6">
      <g>
       <use xlink:href="#m736aea38df" x="381.628273" y="286.3005" style="fill: #262626; stroke: #262626"/>
      </g>
     </g>
     <g id="text_6">
      <!-- 50 -->
      <g style="fill: #262626" transform="translate(376.734648 300.899375) scale(0.088 -0.088)">
       <defs>
        <path id="ArialMT-35" d="M 266 1200 
L 856 1250 
Q 922 819 1161 601 
Q 1400 384 1738 384 
Q 2144 384 2425 690 
Q 2706 997 2706 1503 
Q 2706 1984 2436 2262 
Q 2166 2541 1728 2541 
Q 1456 2541 1237 2417 
Q 1019 2294 894 2097 
L 366 2166 
L 809 4519 
L 3088 4519 
L 3088 3981 
L 1259 3981 
L 1013 2750 
Q 1425 3038 1878 3038 
Q 2478 3038 2890 2622 
Q 3303 2206 3303 1553 
Q 3303 931 2941 478 
Q 2500 -78 1738 -78 
Q 1113 -78 717 272 
Q 322 622 266 1200 
z
" transform="scale(0.015625)"/>
       </defs>
       <use xlink:href="#ArialMT-35"/>
       <use xlink:href="#ArialMT-30" x="55.615234"/>
      </g>
     </g>
    </g>
    <g id="text_7">
     <!-- t -->
     <g style="fill: #262626" transform="translate(217.9675 313.519875) scale(0.096 -0.096)">
      <defs>
       <path id="ArialMT-74" d="M 1650 503 
L 1731 6 
Q 1494 -44 1306 -44 
Q 1000 -44 831 53 
Q 663 150 594 308 
Q 525 466 525 972 
L 525 2881 
L 113 2881 
L 113 3319 
L 525 3319 
L 525 4141 
L 1084 4478 
L 1084 3319 
L 1650 3319 
L 1650 2881 
L 1084 2881 
L 1084 941 
Q 1084 700 1114 631 
Q 1144 563 1211 522 
Q 1278 481 1403 481 
Q 1497 481 1650 503 
z
" transform="scale(0.015625)"/>
      </defs>
      <use xlink:href="#ArialMT-74"/>
     </g>
    </g>
   </g>
   <g id="matplotlib.axis_2">
    <g id="ytick_1">
     <g id="line2d_7">
      <defs>
       <path id="m182271379b" d="M 0 0 
L -4.8 0 
" style="stroke: #262626"/>
      </defs>
      <g>
       <use xlink:href="#m182271379b" x="40.741" y="274.2045" style="fill: #262626; stroke: #262626"/>
      </g>
     </g>
     <g id="text_8">
      <!-- 0.0 -->
      <g style="fill: #262626" transform="translate(20.209 277.353938) scale(0.088 -0.088)">
       <defs>
        <path id="ArialMT-2e" d="M 581 0 
L 581 641 
L 1222 641 
L 1222 0 
L 581 0 
z
" transform="scale(0.015625)"/>
       </defs>
       <use xlink:href="#ArialMT-30"/>
       <use xlink:href="#ArialMT-2e" x="55.615234"/>
       <use xlink:href="#ArialMT-30" x="83.398438"/>
      </g>
     </g>
    </g>
    <g id="ytick_2">
     <g id="line2d_8">
      <g>
       <use xlink:href="#m182271379b" x="40.741" y="225.821538" style="fill: #262626; stroke: #262626"/>
      </g>
     </g>
     <g id="text_9">
      <!-- 0.2 -->
      <g style="fill: #262626" transform="translate(20.209 228.970976) scale(0.088 -0.088)">
       <use xlink:href="#ArialMT-30"/>
       <use xlink:href="#ArialMT-2e" x="55.615234"/>
       <use xlink:href="#ArialMT-32" x="83.398438"/>
      </g>
     </g>
    </g>
    <g id="ytick_3">
     <g id="line2d_9">
      <g>
       <use xlink:href="#m182271379b" x="40.741" y="177.438576" style="fill: #262626; stroke: #262626"/>
      </g>
     </g>
     <g id="text_10">
      <!-- 0.4 -->
      <g style="fill: #262626" transform="translate(20.209 180.588014) scale(0.088 -0.088)">
       <use xlink:href="#ArialMT-30"/>
       <use xlink:href="#ArialMT-2e" x="55.615234"/>
       <use xlink:href="#ArialMT-34" x="83.398438"/>
      </g>
     </g>
    </g>
    <g id="ytick_4">
     <g id="line2d_10">
      <g>
       <use xlink:href="#m182271379b" x="40.741" y="129.055615" style="fill: #262626; stroke: #262626"/>
      </g>
     </g>
     <g id="text_11">
      <!-- 0.6 -->
      <g style="fill: #262626" transform="translate(20.209 132.205052) scale(0.088 -0.088)">
       <defs>
        <path id="ArialMT-36" d="M 3184 3459 
L 2625 3416 
Q 2550 3747 2413 3897 
Q 2184 4138 1850 4138 
Q 1581 4138 1378 3988 
Q 1113 3794 959 3422 
Q 806 3050 800 2363 
Q 1003 2672 1297 2822 
Q 1591 2972 1913 2972 
Q 2475 2972 2870 2558 
Q 3266 2144 3266 1488 
Q 3266 1056 3080 686 
Q 2894 316 2569 119 
Q 2244 -78 1831 -78 
Q 1128 -78 684 439 
Q 241 956 241 2144 
Q 241 3472 731 4075 
Q 1159 4600 1884 4600 
Q 2425 4600 2770 4297 
Q 3116 3994 3184 3459 
z
M 888 1484 
Q 888 1194 1011 928 
Q 1134 663 1356 523 
Q 1578 384 1822 384 
Q 2178 384 2434 671 
Q 2691 959 2691 1453 
Q 2691 1928 2437 2201 
Q 2184 2475 1800 2475 
Q 1419 2475 1153 2201 
Q 888 1928 888 1484 
z
" transform="scale(0.015625)"/>
       </defs>
       <use xlink:href="#ArialMT-30"/>
       <use xlink:href="#ArialMT-2e" x="55.615234"/>
       <use xlink:href="#ArialMT-36" x="83.398438"/>
      </g>
     </g>
    </g>
    <g id="ytick_5">
     <g id="line2d_11">
      <g>
       <use xlink:href="#m182271379b" x="40.741" y="80.672653" style="fill: #262626; stroke: #262626"/>
      </g>
     </g>
     <g id="text_12">
      <!-- 0.8 -->
      <g style="fill: #262626" transform="translate(20.209 83.82209) scale(0.088 -0.088)">
       <defs>
        <path id="ArialMT-38" d="M 1131 2484 
Q 781 2613 612 2850 
Q 444 3088 444 3419 
Q 444 3919 803 4259 
Q 1163 4600 1759 4600 
Q 2359 4600 2725 4251 
Q 3091 3903 3091 3403 
Q 3091 3084 2923 2848 
Q 2756 2613 2416 2484 
Q 2838 2347 3058 2040 
Q 3278 1734 3278 1309 
Q 3278 722 2862 322 
Q 2447 -78 1769 -78 
Q 1091 -78 675 323 
Q 259 725 259 1325 
Q 259 1772 486 2073 
Q 713 2375 1131 2484 
z
M 1019 3438 
Q 1019 3113 1228 2906 
Q 1438 2700 1772 2700 
Q 2097 2700 2305 2904 
Q 2513 3109 2513 3406 
Q 2513 3716 2298 3927 
Q 2084 4138 1766 4138 
Q 1444 4138 1231 3931 
Q 1019 3725 1019 3438 
z
M 838 1322 
Q 838 1081 952 856 
Q 1066 631 1291 507 
Q 1516 384 1775 384 
Q 2178 384 2440 643 
Q 2703 903 2703 1303 
Q 2703 1709 2433 1975 
Q 2163 2241 1756 2241 
Q 1359 2241 1098 1978 
Q 838 1716 838 1322 
z
" transform="scale(0.015625)"/>
       </defs>
       <use xlink:href="#ArialMT-30"/>
       <use xlink:href="#ArialMT-2e" x="55.615234"/>
       <use xlink:href="#ArialMT-38" x="83.398438"/>
      </g>
     </g>
    </g>
    <g id="ytick_6">
     <g id="line2d_12">
      <g>
       <use xlink:href="#m182271379b" x="40.741" y="32.289691" style="fill: #262626; stroke: #262626"/>
      </g>
     </g>
     <g id="text_13">
      <!-- 1.0 -->
      <g style="fill: #262626" transform="translate(20.209 35.439128) scale(0.088 -0.088)">
       <use xlink:href="#ArialMT-31"/>
       <use xlink:href="#ArialMT-2e" x="55.615234"/>
       <use xlink:href="#ArialMT-30" x="83.398438"/>
      </g>
     </g>
    </g>
    <g id="text_14">
     <!-- Sensitivity Indices for v(t) -->
     <g style="fill: #262626" transform="translate(14.1885 206.5905) rotate(-90) scale(0.096 -0.096)">
      <defs>
       <path id="ArialMT-53" d="M 288 1472 
L 859 1522 
Q 900 1178 1048 958 
Q 1197 738 1509 602 
Q 1822 466 2213 466 
Q 2559 466 2825 569 
Q 3091 672 3220 851 
Q 3350 1031 3350 1244 
Q 3350 1459 3225 1620 
Q 3100 1781 2813 1891 
Q 2628 1963 1997 2114 
Q 1366 2266 1113 2400 
Q 784 2572 623 2826 
Q 463 3081 463 3397 
Q 463 3744 659 4045 
Q 856 4347 1234 4503 
Q 1613 4659 2075 4659 
Q 2584 4659 2973 4495 
Q 3363 4331 3572 4012 
Q 3781 3694 3797 3291 
L 3216 3247 
Q 3169 3681 2898 3903 
Q 2628 4125 2100 4125 
Q 1550 4125 1298 3923 
Q 1047 3722 1047 3438 
Q 1047 3191 1225 3031 
Q 1400 2872 2139 2705 
Q 2878 2538 3153 2413 
Q 3553 2228 3743 1945 
Q 3934 1663 3934 1294 
Q 3934 928 3725 604 
Q 3516 281 3123 101 
Q 2731 -78 2241 -78 
Q 1619 -78 1198 103 
Q 778 284 539 648 
Q 300 1013 288 1472 
z
" transform="scale(0.015625)"/>
       <path id="ArialMT-65" d="M 2694 1069 
L 3275 997 
Q 3138 488 2766 206 
Q 2394 -75 1816 -75 
Q 1088 -75 661 373 
Q 234 822 234 1631 
Q 234 2469 665 2931 
Q 1097 3394 1784 3394 
Q 2450 3394 2872 2941 
Q 3294 2488 3294 1666 
Q 3294 1616 3291 1516 
L 816 1516 
Q 847 969 1125 678 
Q 1403 388 1819 388 
Q 2128 388 2347 550 
Q 2566 713 2694 1069 
z
M 847 1978 
L 2700 1978 
Q 2663 2397 2488 2606 
Q 2219 2931 1791 2931 
Q 1403 2931 1139 2672 
Q 875 2413 847 1978 
z
" transform="scale(0.015625)"/>
       <path id="ArialMT-6e" d="M 422 0 
L 422 3319 
L 928 3319 
L 928 2847 
Q 1294 3394 1984 3394 
Q 2284 3394 2536 3286 
Q 2788 3178 2913 3003 
Q 3038 2828 3088 2588 
Q 3119 2431 3119 2041 
L 3119 0 
L 2556 0 
L 2556 2019 
Q 2556 2363 2490 2533 
Q 2425 2703 2258 2804 
Q 2091 2906 1866 2906 
Q 1506 2906 1245 2678 
Q 984 2450 984 1813 
L 984 0 
L 422 0 
z
" transform="scale(0.015625)"/>
       <path id="ArialMT-73" d="M 197 991 
L 753 1078 
Q 800 744 1014 566 
Q 1228 388 1613 388 
Q 2000 388 2187 545 
Q 2375 703 2375 916 
Q 2375 1106 2209 1216 
Q 2094 1291 1634 1406 
Q 1016 1563 777 1677 
Q 538 1791 414 1992 
Q 291 2194 291 2438 
Q 291 2659 392 2848 
Q 494 3038 669 3163 
Q 800 3259 1026 3326 
Q 1253 3394 1513 3394 
Q 1903 3394 2198 3281 
Q 2494 3169 2634 2976 
Q 2775 2784 2828 2463 
L 2278 2388 
Q 2241 2644 2061 2787 
Q 1881 2931 1553 2931 
Q 1166 2931 1000 2803 
Q 834 2675 834 2503 
Q 834 2394 903 2306 
Q 972 2216 1119 2156 
Q 1203 2125 1616 2013 
Q 2213 1853 2448 1751 
Q 2684 1650 2818 1456 
Q 2953 1263 2953 975 
Q 2953 694 2789 445 
Q 2625 197 2315 61 
Q 2006 -75 1616 -75 
Q 969 -75 630 194 
Q 291 463 197 991 
z
" transform="scale(0.015625)"/>
       <path id="ArialMT-69" d="M 425 3934 
L 425 4581 
L 988 4581 
L 988 3934 
L 425 3934 
z
M 425 0 
L 425 3319 
L 988 3319 
L 988 0 
L 425 0 
z
" transform="scale(0.015625)"/>
       <path id="ArialMT-76" d="M 1344 0 
L 81 3319 
L 675 3319 
L 1388 1331 
Q 1503 1009 1600 663 
Q 1675 925 1809 1294 
L 2547 3319 
L 3125 3319 
L 1869 0 
L 1344 0 
z
" transform="scale(0.015625)"/>
       <path id="ArialMT-79" d="M 397 -1278 
L 334 -750 
Q 519 -800 656 -800 
Q 844 -800 956 -737 
Q 1069 -675 1141 -563 
Q 1194 -478 1313 -144 
Q 1328 -97 1363 -6 
L 103 3319 
L 709 3319 
L 1400 1397 
Q 1534 1031 1641 628 
Q 1738 1016 1872 1384 
L 2581 3319 
L 3144 3319 
L 1881 -56 
Q 1678 -603 1566 -809 
Q 1416 -1088 1222 -1217 
Q 1028 -1347 759 -1347 
Q 597 -1347 397 -1278 
z
" transform="scale(0.015625)"/>
       <path id="ArialMT-20" transform="scale(0.015625)"/>
       <path id="ArialMT-49" d="M 597 0 
L 597 4581 
L 1203 4581 
L 1203 0 
L 597 0 
z
" transform="scale(0.015625)"/>
       <path id="ArialMT-64" d="M 2575 0 
L 2575 419 
Q 2259 -75 1647 -75 
Q 1250 -75 917 144 
Q 584 363 401 755 
Q 219 1147 219 1656 
Q 219 2153 384 2558 
Q 550 2963 881 3178 
Q 1213 3394 1622 3394 
Q 1922 3394 2156 3267 
Q 2391 3141 2538 2938 
L 2538 4581 
L 3097 4581 
L 3097 0 
L 2575 0 
z
M 797 1656 
Q 797 1019 1065 703 
Q 1334 388 1700 388 
Q 2069 388 2326 689 
Q 2584 991 2584 1609 
Q 2584 2291 2321 2609 
Q 2059 2928 1675 2928 
Q 1300 2928 1048 2622 
Q 797 2316 797 1656 
z
" transform="scale(0.015625)"/>
       <path id="ArialMT-63" d="M 2588 1216 
L 3141 1144 
Q 3050 572 2676 248 
Q 2303 -75 1759 -75 
Q 1078 -75 664 370 
Q 250 816 250 1647 
Q 250 2184 428 2587 
Q 606 2991 970 3192 
Q 1334 3394 1763 3394 
Q 2303 3394 2647 3120 
Q 2991 2847 3088 2344 
L 2541 2259 
Q 2463 2594 2264 2762 
Q 2066 2931 1784 2931 
Q 1359 2931 1093 2626 
Q 828 2322 828 1663 
Q 828 994 1084 691 
Q 1341 388 1753 388 
Q 2084 388 2306 591 
Q 2528 794 2588 1216 
z
" transform="scale(0.015625)"/>
       <path id="ArialMT-66" d="M 556 0 
L 556 2881 
L 59 2881 
L 59 3319 
L 556 3319 
L 556 3672 
Q 556 4006 616 4169 
Q 697 4388 901 4523 
Q 1106 4659 1475 4659 
Q 1713 4659 2000 4603 
L 1916 4113 
Q 1741 4144 1584 4144 
Q 1328 4144 1222 4034 
Q 1116 3925 1116 3625 
L 1116 3319 
L 1763 3319 
L 1763 2881 
L 1116 2881 
L 1116 0 
L 556 0 
z
" transform="scale(0.015625)"/>
       <path id="ArialMT-6f" d="M 213 1659 
Q 213 2581 725 3025 
Q 1153 3394 1769 3394 
Q 2453 3394 2887 2945 
Q 3322 2497 3322 1706 
Q 3322 1066 3130 698 
Q 2938 331 2570 128 
Q 2203 -75 1769 -75 
Q 1072 -75 642 372 
Q 213 819 213 1659 
z
M 791 1659 
Q 791 1022 1069 705 
Q 1347 388 1769 388 
Q 2188 388 2466 706 
Q 2744 1025 2744 1678 
Q 2744 2294 2464 2611 
Q 2184 2928 1769 2928 
Q 1347 2928 1069 2612 
Q 791 2297 791 1659 
z
" transform="scale(0.015625)"/>
       <path id="ArialMT-72" d="M 416 0 
L 416 3319 
L 922 3319 
L 922 2816 
Q 1116 3169 1280 3281 
Q 1444 3394 1641 3394 
Q 1925 3394 2219 3213 
L 2025 2691 
Q 1819 2813 1613 2813 
Q 1428 2813 1281 2702 
Q 1134 2591 1072 2394 
Q 978 2094 978 1738 
L 978 0 
L 416 0 
z
" transform="scale(0.015625)"/>
       <path id="ArialMT-28" d="M 1497 -1347 
Q 1031 -759 709 28 
Q 388 816 388 1659 
Q 388 2403 628 3084 
Q 909 3875 1497 4659 
L 1900 4659 
Q 1522 4009 1400 3731 
Q 1209 3300 1100 2831 
Q 966 2247 966 1656 
Q 966 153 1900 -1347 
L 1497 -1347 
z
" transform="scale(0.015625)"/>
       <path id="ArialMT-29" d="M 791 -1347 
L 388 -1347 
Q 1322 153 1322 1656 
Q 1322 2244 1188 2822 
Q 1081 3291 891 3722 
Q 769 4003 388 4659 
L 791 4659 
Q 1378 3875 1659 3084 
Q 1900 2403 1900 1659 
Q 1900 816 1576 28 
Q 1253 -759 791 -1347 
z
" transform="scale(0.015625)"/>
      </defs>
      <use xlink:href="#ArialMT-53"/>
      <use xlink:href="#ArialMT-65" x="66.699219"/>
      <use xlink:href="#ArialMT-6e" x="122.314453"/>
      <use xlink:href="#ArialMT-73" x="177.929688"/>
      <use xlink:href="#ArialMT-69" x="227.929688"/>
      <use xlink:href="#ArialMT-74" x="250.146484"/>
      <use xlink:href="#ArialMT-69" x="277.929688"/>
      <use xlink:href="#ArialMT-76" x="300.146484"/>
      <use xlink:href="#ArialMT-69" x="350.146484"/>
      <use xlink:href="#ArialMT-74" x="372.363281"/>
      <use xlink:href="#ArialMT-79" x="400.146484"/>
      <use xlink:href="#ArialMT-20" x="450.146484"/>
      <use xlink:href="#ArialMT-49" x="477.929688"/>
      <use xlink:href="#ArialMT-6e" x="505.712891"/>
      <use xlink:href="#ArialMT-64" x="561.328125"/>
      <use xlink:href="#ArialMT-69" x="616.943359"/>
      <use xlink:href="#ArialMT-63" x="639.160156"/>
      <use xlink:href="#ArialMT-65" x="689.160156"/>
      <use xlink:href="#ArialMT-73" x="744.775391"/>
      <use xlink:href="#ArialMT-20" x="794.775391"/>
      <use xlink:href="#ArialMT-66" x="822.558594"/>
      <use xlink:href="#ArialMT-6f" x="850.341797"/>
      <use xlink:href="#ArialMT-72" x="905.957031"/>
      <use xlink:href="#ArialMT-20" x="939.257812"/>
      <use xlink:href="#ArialMT-76" x="967.041016"/>
      <use xlink:href="#ArialMT-28" x="1017.041016"/>
      <use xlink:href="#ArialMT-74" x="1050.341797"/>
      <use xlink:href="#ArialMT-29" x="1078.125"/>
     </g>
    </g>
   </g>
   <g id="line2d_13">
    <path d="M 56.973727 274.204458 
L 58.925558 274.098744 
L 59.576169 273.907537 
L 60.226779 273.519983 
L 60.877389 272.819586 
L 61.528 271.652241 
L 62.17861 269.825034 
L 62.82922 267.116018 
L 63.47983 263.307043 
L 64.130441 258.260195 
L 65.106356 248.645562 
L 66.407577 235.803978 
L 67.058187 232.090575 
L 67.383492 231.34731 
L 67.708797 231.380416 
L 68.034103 232.139604 
L 68.359408 233.527503 
L 69.010018 237.675603 
L 71.61246 257.220876 
L 72.588375 262.528261 
L 73.564289 266.663081 
L 74.540206 269.954568 
L 75.516121 272.588572 
L 76.166732 273.829965 
L 76.492037 274.155972 
L 76.817342 274.148678 
L 77.142647 273.638099 
L 77.467952 272.380916 
L 77.793257 270.055345 
L 78.118562 266.294047 
L 78.769172 253.591594 
L 79.745088 230.47293 
L 80.070393 226.357277 
L 80.395698 224.814083 
L 80.721003 225.313353 
L 81.046308 227.153555 
L 82.022225 235.673596 
L 83.323444 246.856247 
L 84.624664 256.206873 
L 85.925887 264.268443 
L 86.901801 269.340142 
L 87.552411 271.92258 
L 88.203024 273.580731 
L 88.528327 274.0163 
L 88.853633 274.193617 
L 89.178937 274.136816 
L 89.504243 273.882141 
L 90.154853 272.929058 
L 90.805463 271.492517 
L 91.456073 269.289849 
L 91.78138 267.600371 
L 92.106683 265.173442 
L 92.43199 261.505827 
L 92.757293 255.682167 
L 93.0826 245.973532 
L 93.407906 229.123242 
L 93.733209 199.968813 
L 94.383819 126.305758 
L 94.709126 141.820564 
L 95.359736 208.529967 
L 95.685042 227.822359 
L 96.335652 248.326782 
L 96.986262 258.094399 
L 97.636872 263.59389 
L 98.287482 267.121833 
L 98.938092 269.610842 
L 99.588702 271.473799 
L 100.239312 272.878866 
L 100.889922 273.834185 
L 101.215228 274.104785 
L 101.540535 274.196975 
L 101.865838 274.06911 
L 102.191145 273.675164 
L 102.516448 272.974373 
L 103.167058 270.613967 
L 104.793584 263.178747 
L 105.444194 261.611771 
L 106.420111 259.930877 
L 106.745417 259.121342 
L 107.070721 257.992776 
L 107.396027 256.402544 
L 107.721331 254.168732 
L 108.046637 251.055433 
L 108.697247 241.154877 
L 109.34786 228.452978 
L 109.673163 226.743324 
L 109.998467 231.908673 
L 110.974383 258.377285 
L 111.624996 266.871278 
L 112.275603 270.750003 
L 112.926216 272.616601 
L 113.576823 273.555119 
L 114.227436 274.014148 
L 114.878043 274.188099 
L 115.528656 274.160511 
L 116.179263 273.959533 
L 116.829876 273.580533 
L 117.480489 272.996681 
L 118.131096 272.168069 
L 118.781709 271.058042 
L 119.757625 268.879252 
L 121.384148 264.946489 
L 122.034761 263.835329 
L 122.685368 263.118461 
L 123.335981 262.713281 
L 125.613117 261.757993 
L 126.263724 261.094053 
L 126.914337 260.004346 
L 127.564944 258.286144 
L 128.215557 255.763863 
L 128.866164 253.034274 
L 129.191474 252.649457 
L 129.516777 254.108461 
L 130.16739 262.780039 
L 130.817997 270.351592 
L 131.1433 272.239669 
L 131.46861 273.283884 
L 131.793913 273.818373 
L 132.119217 274.061079 
L 132.76983 274.132673 
L 134.07105 273.828657 
L 136.022882 273.43472 
L 137.974709 273.285947 
L 140.251845 273.332142 
L 142.854291 273.592443 
L 147.083254 274.162484 
L 147.733867 274.003671 
L 148.384474 273.594278 
L 149.035087 272.882562 
L 151.312223 269.865288 
L 151.96283 269.489832 
L 152.613443 269.392554 
L 153.264056 269.549543 
L 153.914663 269.967733 
L 154.565276 270.704923 
L 155.215883 271.805739 
L 156.191799 273.543488 
L 156.842412 274.086999 
L 157.493019 274.169802 
L 162.697905 273.685217 
L 166.276261 273.729068 
L 167.902784 273.941456 
L 169.529307 274.191889 
L 170.179927 274.048679 
L 170.830533 273.588937 
L 171.155843 273.181883 
L 171.48114 272.583519 
L 171.80645 271.6657 
L 172.131747 270.153625 
L 172.457057 267.407583 
L 172.782366 261.758929 
L 173.107664 248.434362 
L 173.432973 218.300531 
L 173.758283 205.380594 
L 174.08358 236.380568 
L 174.40889 254.891239 
L 174.734199 262.97391 
L 175.059496 266.906081 
L 175.384806 269.070476 
L 176.035413 271.241448 
L 176.68602 272.266952 
L 177.336639 272.84507 
L 178.312555 273.352407 
L 179.613769 273.745327 
L 181.565602 274.09817 
L 182.866828 274.188422 
L 183.517435 274.112529 
L 184.168042 273.84016 
L 184.818648 273.200637 
L 185.469268 271.997491 
L 186.445184 269.244181 
L 187.4211 266.726348 
L 189.047624 263.44199 
L 189.372921 262.281993 
L 189.698231 260.682065 
L 190.348837 255.6427 
L 190.999457 250.218538 
L 191.324754 251.103941 
L 192.62598 268.495466 
L 192.951277 270.429334 
L 193.601896 272.465004 
L 194.252503 273.359878 
L 194.90311 273.789285 
L 195.879026 274.074218 
L 197.180252 274.189003 
L 199.132085 274.132026 
L 200.758609 273.903119 
L 202.059822 273.499693 
L 203.035739 272.951075 
L 204.011655 272.058966 
L 204.987572 270.738388 
L 206.939404 267.716528 
L 207.590011 267.088757 
L 208.24063 266.716718 
L 209.541844 266.145747 
L 209.867154 265.850484 
L 210.192451 265.387504 
L 210.517761 264.661721 
L 210.84307 263.530635 
L 211.168367 261.805592 
L 211.818987 257.426449 
L 212.144284 259.321728 
L 212.794903 270.151145 
L 213.1202 272.46486 
L 213.44551 273.460958 
L 213.770807 273.887686 
L 214.421426 274.147031 
L 215.72264 274.167279 
L 221.252829 274.112171 
L 229.385458 274.094271 
L 230.361374 273.767911 
L 232.313207 272.82614 
L 232.963814 272.734158 
L 233.614421 272.801948 
L 234.26504 273.070365 
L 235.891563 274.094457 
L 236.867479 274.181827 
L 245.000108 274.141236 
L 249.554381 274.140673 
L 250.204988 273.95029 
L 250.855594 273.499968 
L 251.506214 272.63929 
L 251.831511 271.958209 
L 252.15682 270.969116 
L 252.48213 269.408137 
L 252.807427 266.676282 
L 253.132737 261.371663 
L 253.783344 240.496686 
L 254.108653 248.92965 
L 254.433963 260.883921 
L 254.75926 266.975403 
L 255.08457 269.880818 
L 255.409867 271.393138 
L 255.735177 272.256326 
L 256.385783 273.135732 
L 257.036403 273.545673 
L 258.012319 273.842853 
L 259.638842 274.050966 
L 262.891889 274.189262 
L 265.169019 274.127883 
L 266.144935 273.920805 
L 266.795555 273.597383 
L 267.446174 272.999673 
L 268.096768 272.026223 
L 270.69922 266.833418 
L 271.349815 265.02194 
L 272.000434 261.962061 
L 272.651053 258.652826 
L 272.97635 259.269411 
L 274.277564 270.936789 
L 274.602886 272.123814 
L 274.928183 272.851038 
L 275.578802 273.596099 
L 276.229397 273.915382 
L 277.205313 274.10689 
L 279.157146 274.193942 
L 283.386109 274.115311 
L 285.663264 273.917666 
L 286.964478 273.649169 
L 287.940394 273.289839 
L 288.916311 272.727098 
L 291.84406 270.471176 
L 292.494654 269.732216 
L 293.145274 268.521781 
L 293.470571 268.367135 
L 293.795893 269.574702 
L 294.446487 272.909339 
L 294.771784 273.598122 
L 295.097106 273.916042 
L 295.747701 274.134763 
L 297.374236 274.199651 
L 329.904751 274.140141 
L 330.880668 273.923789 
L 331.531287 273.532666 
L 332.181881 272.742233 
L 332.507203 272.109679 
L 332.832501 271.226905 
L 333.157798 269.942981 
L 333.48312 267.964645 
L 333.808417 264.809669 
L 334.133714 260.321349 
L 334.459036 257.37866 
L 334.784333 260.616968 
L 335.109631 265.956839 
L 335.434953 269.450628 
L 335.76025 271.345342 
L 336.085547 272.38305 
L 336.410844 272.982599 
L 337.061464 273.584654 
L 337.712083 273.852398 
L 339.013296 274.065839 
L 341.615748 274.175851 
L 346.820628 274.163075 
L 348.447139 273.995122 
L 349.423055 273.676815 
L 350.073674 273.252233 
L 350.724294 272.55814 
L 351.374888 271.543496 
L 352.025507 270.208859 
L 352.676102 268.447016 
L 353.326721 265.821243 
L 353.97734 262.653544 
L 354.302637 262.66493 
L 354.627935 264.88199 
L 355.278554 270.365714 
L 355.603851 271.884288 
L 355.929173 272.777835 
L 356.579767 273.620507 
L 357.230387 273.942407 
L 358.206303 274.116656 
L 360.483433 274.195254 
L 367.640145 274.136432 
L 370.242598 273.960428 
L 371.869108 273.632303 
L 373.170347 273.101008 
L 373.820941 272.642938 
L 374.796858 271.754728 
L 375.12218 272.053147 
L 375.772774 273.384255 
L 376.098096 273.755365 
L 376.748691 274.059018 
L 378.049904 274.181438 
L 381.628273 274.202325 
L 381.628273 274.202325 
" clip-path="url(#pbe6f2fd033)" style="fill: none; stroke: #1f77b4; stroke-width: 1.2; stroke-linecap: round"/>
   </g>
   <g id="line2d_14">
    <path d="M 56.973727 274.2045 
L 63.805136 274.129723 
L 64.781051 273.917732 
L 65.431662 273.599017 
L 66.082271 273.070227 
L 67.058187 271.888259 
L 68.359408 270.195188 
L 69.010018 269.655427 
L 69.660628 269.443824 
L 70.311238 269.55971 
L 70.96185 269.949615 
L 71.937765 270.865386 
L 73.889596 272.823809 
L 74.865511 273.491106 
L 75.841426 273.915066 
L 77.142647 274.197099 
L 77.793257 274.14145 
L 78.118562 273.982609 
L 78.443867 273.666375 
L 78.769172 273.130868 
L 79.419783 271.317135 
L 80.721003 267.022439 
L 81.371615 265.554077 
L 82.34753 263.967326 
L 83.323444 262.851822 
L 83.974054 262.398486 
L 84.624664 262.276163 
L 84.949971 262.376555 
L 85.275277 262.606918 
L 85.925887 263.520617 
L 86.576497 265.104402 
L 87.552411 268.571633 
L 88.528327 272.198567 
L 89.178937 273.739644 
L 89.504243 274.102942 
L 89.829547 274.199848 
L 90.154853 274.067321 
L 90.805463 273.2924 
L 91.456073 271.968061 
L 91.78138 271.01346 
L 92.106683 269.695964 
L 92.43199 267.74256 
L 92.757293 264.635424 
L 93.0826 259.361745 
L 93.407906 249.929648 
L 93.733209 232.92125 
L 94.383819 184.122919 
L 94.709126 188.797069 
L 95.359736 225.752819 
L 95.685042 237.33412 
L 96.335652 250.043564 
L 96.986262 256.30047 
L 97.636872 259.966915 
L 98.287482 262.501582 
L 99.588702 266.442349 
L 102.191145 273.890206 
L 102.516448 274.178408 
L 102.841755 273.966708 
L 103.167058 273.131649 
L 103.492365 271.623184 
L 104.142974 266.975643 
L 105.118891 259.411847 
L 105.769501 255.8217 
L 106.745417 251.39844 
L 107.396027 246.903413 
L 107.721331 243.394349 
L 108.046637 238.516941 
L 108.37194 231.758976 
L 109.02255 211.525154 
L 109.34786 200.811164 
L 109.673163 196.300326 
L 109.998467 202.690561 
L 110.974383 243.607043 
L 111.624996 258.008276 
L 112.275603 265.075854 
L 112.926216 268.827909 
L 113.576823 271.018723 
L 114.227436 272.399826 
L 114.878043 273.306265 
L 115.528656 273.882561 
L 116.179263 274.16797 
L 116.829876 274.124721 
L 117.155179 273.947905 
L 117.480489 273.64081 
L 118.131096 272.525636 
L 118.781709 270.521719 
L 119.432315 267.3702 
L 120.082928 262.962682 
L 121.384148 251.730329 
L 122.360065 244.032957 
L 123.010672 240.290447 
L 123.661285 237.692106 
L 124.311891 235.947987 
L 126.263724 231.953455 
L 126.914337 229.756676 
L 127.564944 226.516379 
L 128.540861 220.319726 
L 128.866164 219.545056 
L 129.191474 221.640194 
L 129.516777 228.520936 
L 130.492693 263.124951 
L 130.817997 269.288309 
L 131.1433 272.386925 
L 131.46861 273.641408 
L 131.793913 273.919712 
L 132.119217 273.725065 
L 134.396353 270.971854 
L 135.372269 270.40651 
L 136.348186 270.173501 
L 137.324102 270.184869 
L 138.625322 270.473058 
L 139.926542 270.985142 
L 141.553065 271.848715 
L 145.456731 274.116171 
L 146.107338 274.137032 
L 146.432647 274.005443 
L 146.757951 273.737988 
L 147.083254 273.296689 
L 147.408558 272.63997 
L 148.059171 270.525871 
L 148.709784 267.236194 
L 150.66161 255.416642 
L 151.312223 253.145115 
L 151.96283 251.891805 
L 152.613443 251.320125 
L 153.264056 251.153969 
L 153.58936 251.195947 
L 153.914663 251.354748 
L 154.239966 251.702158 
L 154.565276 252.35801 
L 154.890579 253.483591 
L 155.215883 255.238081 
L 155.866496 260.67515 
L 156.842412 269.246846 
L 157.493019 272.330003 
L 157.818323 273.159003 
L 158.143632 273.674158 
L 158.794239 274.128046 
L 159.444852 274.182354 
L 160.420768 273.967146 
L 162.047298 273.338661 
L 163.673821 272.512846 
L 165.300344 271.410568 
L 167.577475 269.703489 
L 167.902784 269.642314 
L 168.228094 269.711317 
L 168.553391 269.940629 
L 169.20401 270.911704 
L 170.505224 273.593735 
L 170.830533 273.985526 
L 171.155843 274.152296 
L 171.48114 274.048315 
L 171.80645 273.583725 
L 172.131747 272.536027 
L 172.457057 270.324714 
L 172.782366 265.31336 
L 173.107664 252.47046 
L 173.432973 220.481211 
L 173.758283 200.502361 
L 174.40889 249.481453 
L 174.734199 258.657276 
L 175.059496 263.323598 
L 175.384806 265.984751 
L 176.035413 268.760687 
L 176.68602 270.131418 
L 177.336639 270.933107 
L 178.312555 271.672196 
L 179.613769 272.315954 
L 182.541518 273.660429 
L 183.517435 274.090651 
L 183.842732 274.133662 
L 184.168042 274.05273 
L 184.493351 273.771357 
L 184.818648 273.188112 
L 185.143958 272.184303 
L 185.469268 270.648256 
L 186.119874 265.829566 
L 187.746398 250.989737 
L 189.047624 241.570386 
L 189.698231 233.525957 
L 190.348837 219.534761 
L 190.674147 210.968203 
L 190.999457 205.441696 
L 191.324754 208.882517 
L 192.62598 258.732479 
L 192.951277 264.028255 
L 193.276587 267.373285 
L 193.927194 270.946312 
L 194.577813 272.573607 
L 195.22842 273.382804 
L 195.879026 273.809828 
L 196.854943 274.108129 
L 198.156169 274.192876 
L 199.457383 274.037302 
L 200.433299 273.721016 
L 201.083906 273.356442 
L 201.734525 272.797961 
L 202.385132 271.946539 
L 203.035739 270.656303 
L 203.686358 268.730923 
L 204.336965 265.951528 
L 204.987572 262.172084 
L 206.288798 252.417192 
L 207.264714 245.812067 
L 207.915321 243.007336 
L 208.565928 241.593579 
L 209.216534 241.123281 
L 209.867154 240.802273 
L 210.192451 240.360972 
L 210.517761 239.498384 
L 210.84307 238.009759 
L 211.493677 233.437318 
L 211.818987 234.388278 
L 212.144284 245.176656 
L 212.469593 260.851658 
L 212.794903 269.688837 
L 213.1202 272.664533 
L 213.44551 273.350321 
L 213.770807 273.33777 
L 215.072033 272.747399 
L 216.04795 272.676765 
L 217.674473 272.876777 
L 225.481792 274.108244 
L 226.783018 274.154606 
L 227.433625 274.015086 
L 228.084244 273.59988 
L 228.409541 273.211532 
L 228.734851 272.641636 
L 229.385458 270.72743 
L 230.036064 267.482527 
L 231.987897 255.346089 
L 232.638517 253.122472 
L 233.289123 251.732307 
L 233.614421 251.369461 
L 233.93973 251.407828 
L 234.26504 252.134829 
L 234.590337 253.887166 
L 235.240956 260.537781 
L 235.891563 267.577641 
L 236.54217 271.581323 
L 236.867479 272.623232 
L 237.192789 273.275304 
L 237.843396 273.916992 
L 238.494003 274.136553 
L 239.469919 274.18506 
L 241.747062 274.000354 
L 245.000108 273.540712 
L 247.277238 272.993183 
L 248.578464 272.752489 
L 249.229071 272.863114 
L 249.87969 273.26563 
L 250.855594 274.025436 
L 251.180904 274.03619 
L 251.506214 273.773008 
L 251.831511 273.131729 
L 252.15682 271.942047 
L 252.48213 269.834007 
L 252.807427 265.911523 
L 253.132737 257.931656 
L 253.783344 222.271375 
L 254.108653 232.349862 
L 254.433963 250.715054 
L 254.75926 260.709105 
L 255.08457 265.68925 
L 255.409867 268.374235 
L 255.735177 269.953619 
L 256.385783 271.622449 
L 257.036403 272.437635 
L 257.687009 272.89977 
L 258.662926 273.300629 
L 260.289449 273.657946 
L 263.867805 274.103763 
L 265.169019 274.132029 
L 265.819638 273.954493 
L 266.144935 273.745432 
L 266.470257 273.401556 
L 266.795555 272.862643 
L 267.120852 272.05173 
L 267.446174 270.880141 
L 268.096768 267.145366 
L 268.747387 261.537573 
L 271.349815 235.880948 
L 272.000434 224.613507 
L 272.325731 218.015332 
L 272.651053 214.146811 
L 272.97635 218.195739 
L 273.952267 256.649379 
L 274.277564 263.60524 
L 274.602886 267.7354 
L 274.928183 270.18136 
L 275.25348 271.656511 
L 275.578802 272.5675 
L 276.229397 273.513947 
L 276.880016 273.917101 
L 277.855933 274.139254 
L 279.482443 274.187146 
L 282.410193 274.003282 
L 284.362026 273.679142 
L 285.663264 273.228904 
L 286.639156 272.623116 
L 287.289775 271.999762 
L 287.940394 271.120437 
L 288.590989 269.921315 
L 289.566905 267.565655 
L 290.542821 265.27588 
L 290.868143 264.779984 
L 291.193441 264.492975 
L 291.518738 264.424025 
L 291.84406 264.555646 
L 292.494654 265.307776 
L 292.819976 265.959794 
L 293.145274 267.028722 
L 294.12119 272.824694 
L 294.446487 273.27742 
L 295.422404 273.265105 
L 296.723617 273.428725 
L 299.651367 273.851838 
L 303.229735 274.094926 
L 307.458698 274.189361 
L 308.759912 274.073502 
L 309.735828 273.740632 
L 310.386447 273.225488 
L 311.037042 272.265888 
L 311.687661 270.663271 
L 312.663577 267.115637 
L 314.290113 260.82043 
L 314.61541 260.474509 
L 314.940708 261.502171 
L 316.241946 271.878505 
L 316.567243 272.924573 
L 316.89254 273.510521 
L 317.54316 274.011085 
L 318.193779 274.157212 
L 319.82029 274.182248 
L 329.904751 274.02563 
L 330.880668 274.083309 
L 331.205965 274.021787 
L 331.531287 273.843682 
L 331.856584 273.471573 
L 332.181881 272.805559 
L 332.507203 271.716876 
L 332.832501 270.017069 
L 333.157798 267.373758 
L 333.48312 263.145711 
L 333.808417 256.227523 
L 334.459036 238.515878 
L 334.784333 244.366485 
L 335.434953 263.21018 
L 335.76025 267.447115 
L 336.085547 269.807724 
L 336.410844 271.190214 
L 337.061464 272.600032 
L 337.712083 273.239814 
L 338.362677 273.573484 
L 339.338594 273.83413 
L 341.290426 274.051605 
L 345.194092 274.186889 
L 347.145925 274.107065 
L 348.121842 273.847599 
L 348.772461 273.414003 
L 349.423055 272.529386 
L 350.073674 270.820811 
L 350.724294 267.8118 
L 351.374888 263.190512 
L 352.025507 257.038595 
L 352.676102 249.24446 
L 353.326721 238.570202 
L 353.97734 227.392749 
L 354.302637 228.994648 
L 355.603851 266.73801 
L 355.929173 269.898655 
L 356.25447 271.670608 
L 356.579767 272.683839 
L 356.905089 273.27757 
L 357.555684 273.850659 
L 358.206303 274.068823 
L 359.507517 274.182962 
L 363.411182 274.144291 
L 368.290765 273.928037 
L 370.242598 273.646303 
L 373.170347 273.040739 
L 373.820941 273.170048 
L 375.12218 273.692295 
L 376.423393 273.709523 
L 379.351143 274.046506 
L 381.628273 274.143489 
L 381.628273 274.143489 
" clip-path="url(#pbe6f2fd033)" style="fill: none; stroke: #ff7f0e; stroke-width: 1.2; stroke-linecap: round"/>
   </g>
   <g id="line2d_15">
    <path d="M 56.973727 32.291738 
L 57.949643 32.36904 
L 58.600253 32.62912 
L 58.925558 32.899466 
L 59.250863 33.314669 
L 59.576169 33.924314 
L 59.901474 34.786946 
L 60.552084 37.565895 
L 61.202694 42.360972 
L 61.853305 50.097748 
L 62.503915 61.907544 
L 63.154525 79.041617 
L 63.805136 102.616075 
L 64.781051 150.632338 
L 66.407577 242.300948 
L 67.058187 265.929277 
L 67.383492 272.085507 
L 67.708797 274.197278 
L 68.034103 272.456748 
L 68.359408 267.313211 
L 69.010018 249.345599 
L 70.636543 188.102963 
L 71.61246 155.059256 
L 72.588375 128.522198 
L 73.564289 107.526333 
L 76.817342 48.144344 
L 77.467952 39.4037 
L 77.793257 39.064516 
L 78.118562 44.033677 
L 78.443867 56.857895 
L 78.769172 79.635358 
L 79.419783 151.77466 
L 80.070393 225.325177 
L 80.395698 249.919867 
L 80.721003 265.058563 
L 81.046308 272.417894 
L 81.371615 274.151618 
L 81.69692 272.133867 
L 82.34753 261.919419 
L 83.648751 233.156637 
L 86.901801 159.462238 
L 87.552411 148.896189 
L 87.877717 145.241155 
L 88.203024 143.001226 
L 88.528327 142.379194 
L 88.853633 143.492 
L 89.178937 146.334768 
L 89.829547 156.481455 
L 93.0826 223.168227 
L 93.407906 232.620663 
L 94.383819 273.770515 
L 94.709126 266.489094 
L 95.359736 242.558642 
L 95.685042 236.586871 
L 96.010346 233.180068 
L 96.335652 231.227955 
L 96.660956 230.112276 
L 96.986262 229.49868 
L 97.311566 229.203442 
L 97.636872 229.123538 
L 97.962176 229.201477 
L 98.612789 229.725682 
L 99.263398 230.712164 
L 99.914008 232.268801 
L 100.564618 234.653102 
L 101.215228 238.278173 
L 101.865838 243.653228 
L 102.516448 251.074425 
L 103.817671 268.026254 
L 104.468281 272.984103 
L 104.793584 273.995374 
L 105.118891 274.166401 
L 105.444194 273.682482 
L 105.769501 272.708875 
L 106.420111 269.618834 
L 107.070721 264.683234 
L 107.396027 261.012091 
L 107.721331 255.966989 
L 108.046637 248.814623 
L 108.37194 238.474992 
L 108.697247 223.580743 
L 109.673163 160.861063 
L 109.998467 158.023752 
L 110.32377 171.077647 
L 111.299687 222.588335 
L 111.9503 241.481783 
L 112.600907 252.413488 
L 113.25152 259.247589 
L 113.902133 263.884089 
L 114.552739 267.250538 
L 115.528656 270.86479 
L 116.179263 272.576797 
L 116.829876 273.737801 
L 117.155179 274.067887 
L 117.480489 274.186591 
L 117.805792 274.045351 
L 118.131096 273.582484 
L 118.456399 272.723595 
L 118.781709 271.384036 
L 119.432315 266.910578 
L 120.082928 259.587267 
L 120.733535 249.37591 
L 123.661285 197.537807 
L 124.637201 186.467655 
L 126.589028 166.964225 
L 127.239641 158.40566 
L 128.540861 138.491073 
L 128.866164 138.103743 
L 129.191474 145.745079 
L 129.516777 165.736852 
L 130.492693 253.047558 
L 130.817997 266.30593 
L 131.1433 271.873034 
L 131.46861 273.095692 
L 131.793913 272.20205 
L 134.07105 260.200568 
L 134.721663 258.372461 
L 135.372269 257.218039 
L 136.022882 256.614824 
L 136.673489 256.464308 
L 137.324102 256.690009 
L 137.974709 257.232935 
L 138.625322 258.047513 
L 139.601239 259.703361 
L 140.577155 261.802429 
L 141.878375 265.166727 
L 144.806118 273.243424 
L 145.131421 273.740996 
L 145.456731 273.972518 
L 145.782034 273.831424 
L 146.107338 273.178644 
L 146.432647 271.836303 
L 146.757951 269.583527 
L 147.083254 266.157138 
L 147.408558 261.262588 
L 148.059171 245.918405 
L 148.709784 222.127363 
L 151.312223 108.339651 
L 151.96283 92.349514 
L 152.938747 74.89245 
L 153.914663 61.654875 
L 154.239966 59.32298 
L 154.565276 59.701226 
L 154.890579 64.602659 
L 155.215883 76.050734 
L 155.541193 95.333851 
L 157.167716 228.883039 
L 157.818323 254.826511 
L 158.468936 267.011007 
L 158.794239 270.168274 
L 159.119549 272.144708 
L 159.444852 273.308653 
L 159.770155 273.911699 
L 160.095459 274.124016 
L 160.420768 274.060075 
L 160.746072 273.796402 
L 161.396679 272.854194 
L 162.047298 271.516629 
L 163.023202 268.880551 
L 163.999118 265.317072 
L 164.649738 262.176053 
L 165.300344 258.117199 
L 165.950951 252.748155 
L 166.601571 245.565763 
L 167.252177 236.092154 
L 169.20401 201.697688 
L 169.529307 199.087473 
L 169.854617 198.608545 
L 170.179927 200.310513 
L 170.505224 203.907726 
L 171.48114 220.215093 
L 172.131747 230.214509 
L 173.107664 241.011168 
L 173.432973 250.553904 
L 173.758283 268.166374 
L 174.08358 270.288412 
L 174.40889 267.34517 
L 174.734199 265.583646 
L 175.059496 264.773306 
L 175.384806 264.460666 
L 175.710103 264.401639 
L 176.360722 264.612153 
L 178.312555 265.754193 
L 180.589685 267.203309 
L 181.565602 268.067952 
L 182.216209 268.849224 
L 182.866828 269.877223 
L 183.842732 271.949445 
L 184.493351 273.406689 
L 184.818648 273.8939 
L 185.143958 273.97585 
L 185.469268 273.404603 
L 185.794565 271.933437 
L 186.119874 269.403029 
L 186.770481 261.423418 
L 188.722314 231.196697 
L 189.372921 217.275077 
L 190.02354 194.084196 
L 190.999457 143.076249 
L 191.324754 145.39955 
L 191.975361 197.786633 
L 192.62598 239.700707 
L 192.951277 250.856828 
L 193.601896 262.866958 
L 194.252503 268.334845 
L 194.90311 271.075019 
L 195.553729 272.556775 
L 196.204336 273.395627 
L 196.854943 273.871317 
L 197.50555 274.117346 
L 198.481466 274.1802 
L 199.132085 274.038522 
L 199.782692 273.729298 
L 200.433299 273.201592 
L 201.083906 272.365227 
L 201.734525 271.074 
L 202.385132 269.102082 
L 203.035739 266.119289 
L 203.686358 261.688121 
L 204.336965 255.337926 
L 204.987572 246.799773 
L 207.264714 212.536743 
L 207.590011 209.973513 
L 207.915321 208.454994 
L 208.24063 207.963824 
L 208.565928 208.419904 
L 208.891237 209.699382 
L 209.541844 214.13087 
L 210.517761 223.508997 
L 211.168367 231.776228 
L 211.493677 238.233124 
L 212.469593 266.024523 
L 212.794903 264.973876 
L 213.1202 263.022958 
L 213.44551 261.872117 
L 213.770807 261.465307 
L 214.096117 261.531707 
L 214.746723 262.359842 
L 217.674473 267.288949 
L 218.975699 268.912598 
L 220.602222 270.534278 
L 222.554055 272.131372 
L 224.505888 273.497593 
L 225.481792 273.9522 
L 226.132411 273.967409 
L 226.457708 273.799644 
L 226.783018 273.442975 
L 227.108328 272.813943 
L 227.433625 271.794125 
L 227.758934 270.217112 
L 228.084244 267.85345 
L 228.409541 264.395674 
L 228.734851 259.44987 
L 229.06016 252.549499 
L 229.710767 231.053125 
L 230.361374 198.396142 
L 231.6626 124.842305 
L 232.313207 98.502827 
L 232.963814 79.038863 
L 233.614421 65.051732 
L 233.93973 62.195438 
L 234.26504 65.446416 
L 234.590337 78.342024 
L 234.915647 102.818738 
L 236.216873 226.848909 
L 236.867479 254.531625 
L 237.192789 261.736694 
L 237.518086 266.380539 
L 237.843396 269.362168 
L 238.168693 271.269941 
L 238.494003 272.481917 
L 238.819312 273.239493 
L 239.14461 273.697461 
L 239.795229 274.079308 
L 240.445836 274.077827 
L 241.421752 273.747743 
L 242.722966 272.991029 
L 243.698882 272.201092 
L 244.674799 271.11581 
L 245.325418 270.1305 
L 245.976025 268.819874 
L 246.626631 267.025274 
L 247.277238 264.511923 
L 247.927857 260.965647 
L 248.578464 256.086349 
L 250.204988 241.707178 
L 250.530297 240.681923 
L 250.855594 241.053593 
L 251.180904 242.808718 
L 251.831511 249.167901 
L 253.458046 267.453202 
L 253.783344 269.93469 
L 254.433963 267.683724 
L 254.75926 267.756484 
L 256.711093 270.262997 
L 257.687009 271.009756 
L 258.988223 271.689571 
L 260.940056 272.388518 
L 264.193115 273.492291 
L 265.494341 273.984764 
L 266.144935 273.968103 
L 266.470257 273.742114 
L 266.795555 273.2488 
L 267.120852 272.351488 
L 267.446174 270.878595 
L 267.771471 268.643372 
L 268.42209 261.344159 
L 269.397982 244.563223 
L 271.024518 213.337076 
L 271.675137 194.668623 
L 272.651053 159.985678 
L 272.97635 166.72227 
L 273.952267 239.923694 
L 274.277564 253.461818 
L 274.602886 261.54517 
L 274.928183 266.352614 
L 275.25348 269.260524 
L 275.578802 271.058982 
L 275.9041 272.194799 
L 276.554719 273.399409 
L 277.205313 273.911588 
L 277.855933 274.119778 
L 278.831849 274.184019 
L 280.45836 274.030128 
L 282.410193 273.614373 
L 283.711431 273.150337 
L 284.687348 272.630743 
L 285.663264 271.874 
L 286.639156 270.760287 
L 287.615072 269.170857 
L 289.241608 266.015113 
L 289.566905 265.655697 
L 289.892227 265.563499 
L 290.217524 265.820852 
L 290.542821 266.481944 
L 291.193441 268.954106 
L 292.169357 273.199043 
L 292.494654 273.19679 
L 292.819976 270.758144 
L 293.145274 263.451408 
L 293.795893 235.594661 
L 294.12119 234.01699 
L 295.097106 254.206146 
L 295.747701 261.606639 
L 296.39832 265.699157 
L 297.048939 268.159204 
L 297.699534 269.747942 
L 298.350153 270.833156 
L 299.326069 271.914955 
L 300.301986 272.618436 
L 301.603199 273.234107 
L 303.229735 273.724584 
L 305.181568 274.078213 
L 306.482782 274.13021 
L 307.133401 274.021636 
L 307.783995 273.715644 
L 308.434614 273.028239 
L 308.759912 272.4379 
L 309.085234 271.591972 
L 309.410531 270.387394 
L 309.735828 268.681449 
L 310.06115 266.280911 
L 310.386447 262.93421 
L 310.711745 258.330606 
L 311.362364 243.969523 
L 312.012958 221.122399 
L 312.988875 173.498646 
L 314.290113 101.028646 
L 314.61541 91.831604 
L 314.940708 100.360963 
L 315.26603 131.332119 
L 315.916624 210.628089 
L 316.241946 236.107089 
L 316.567243 251.726104 
L 316.89254 260.919013 
L 317.217862 266.299609 
L 317.54316 269.474613 
L 317.868457 271.370709 
L 318.193779 272.514574 
L 318.519076 273.208039 
L 319.16967 273.876487 
L 319.82029 274.09414 
L 320.796206 274.114195 
L 322.748039 273.867243 
L 325.025169 273.399163 
L 326.651705 272.827838 
L 327.627621 272.286796 
L 328.603538 271.497669 
L 329.579454 270.382548 
L 330.880668 268.755935 
L 331.205965 268.569363 
L 331.531287 268.60815 
L 331.856584 268.933991 
L 332.181881 269.564805 
L 333.48312 273.318911 
L 333.808417 273.440107 
L 334.133714 271.980001 
L 334.784333 266.10014 
L 335.109631 266.712894 
L 335.76025 269.473567 
L 336.410844 271.12016 
L 337.061464 272.034803 
L 337.712083 272.589163 
L 338.687999 273.091286 
L 339.989213 273.473532 
L 341.941046 273.792355 
L 345.519389 274.116101 
L 347.145925 274.143722 
L 347.796544 274.032203 
L 348.447139 273.709172 
L 348.772461 273.400253 
L 349.097758 272.933596 
L 349.423055 272.244563 
L 349.748377 271.250276 
L 350.073674 269.852185 
L 350.724294 265.434961 
L 351.374888 258.428707 
L 352.025507 248.934 
L 352.676102 236.916679 
L 353.326721 220.791012 
L 353.97734 204.58905 
L 354.302637 207.542594 
L 355.278554 255.80715 
L 355.603851 263.977996 
L 355.929173 268.49224 
L 356.25447 270.973456 
L 356.579767 272.358232 
L 356.905089 273.145357 
L 357.555684 273.862153 
L 358.206303 274.099328 
L 359.18222 274.171755 
L 362.435266 274.04036 
L 370.242598 273.722559 
L 372.19443 274.054176 
L 372.519728 273.871769 
L 372.845025 273.371582 
L 373.170347 272.305731 
L 373.495644 270.265667 
L 373.820941 266.566536 
L 374.146263 260.113894 
L 375.12218 229.302899 
L 375.447477 234.330082 
L 376.098096 253.726705 
L 376.748691 263.954046 
L 377.39931 268.532308 
L 378.049904 270.790508 
L 378.700523 272.021437 
L 379.351143 272.747734 
L 380.327059 273.368486 
L 381.302976 273.709305 
L 381.628273 273.78784 
L 381.628273 273.78784 
" clip-path="url(#pbe6f2fd033)" style="fill: none; stroke: #2ca02c; stroke-width: 1.2; stroke-linecap: round"/>
   </g>
   <g id="line2d_16">
    <path d="M 56.973727 274.202986 
L 59.576169 274.080079 
L 62.503915 273.706062 
L 64.781051 273.434573 
L 66.082271 273.524702 
L 69.985933 274.20015 
L 71.61246 274.019508 
L 73.889596 273.501932 
L 75.841426 272.84938 
L 77.467952 272.044163 
L 78.118562 271.741806 
L 78.769172 271.716941 
L 79.094478 271.901268 
L 79.745088 272.636184 
L 80.721003 273.733166 
L 81.371615 274.080757 
L 82.022225 274.197749 
L 82.998141 274.148675 
L 84.624664 273.788504 
L 85.925887 273.30927 
L 87.227107 272.62613 
L 89.178937 271.485284 
L 90.154853 271.215338 
L 91.456073 271.200416 
L 92.43199 271.147441 
L 93.733209 270.906889 
L 94.058516 271.377687 
L 94.709126 273.748977 
L 95.034429 274.174724 
L 95.359736 274.153925 
L 96.986262 273.504063 
L 98.938092 273.105036 
L 102.841755 272.51227 
L 103.817671 272.652282 
L 105.118891 273.172796 
L 107.070721 273.88794 
L 108.37194 274.196849 
L 108.697247 274.170863 
L 109.02255 274.005281 
L 109.34786 273.615665 
L 110.32377 272.00032 
L 110.64908 271.895926 
L 111.299687 272.083212 
L 112.926216 272.683746 
L 114.878043 273.107041 
L 121.384148 274.195552 
L 122.360065 274.051127 
L 123.335981 273.711267 
L 124.311891 273.162424 
L 125.287808 272.299614 
L 125.938421 271.414634 
L 126.589028 270.077089 
L 127.239641 267.922262 
L 127.890254 264.223466 
L 128.540861 257.70038 
L 129.516777 243.996105 
L 129.84208 243.256436 
L 130.16739 246.386944 
L 131.1433 261.267159 
L 131.793913 266.909197 
L 132.444526 269.927875 
L 133.095133 271.607707 
L 133.745746 272.596675 
L 134.396353 273.207015 
L 135.372269 273.735774 
L 136.673489 274.068423 
L 138.300019 274.197825 
L 140.577155 274.119927 
L 142.854291 273.840394 
L 144.806118 273.405461 
L 146.757951 272.717278 
L 148.059171 272.263163 
L 148.709784 272.195933 
L 149.36039 272.328701 
L 150.336307 272.863291 
L 151.96283 273.829431 
L 152.938747 274.130508 
L 153.914663 274.193708 
L 154.890579 273.997176 
L 156.191799 273.556147 
L 157.167716 273.560944 
L 160.746072 273.997877 
L 165.625654 274.202789 
L 166.926868 274.138129 
L 167.577475 273.980225 
L 168.228094 273.632044 
L 168.878701 272.996785 
L 169.854617 271.522111 
L 171.80645 268.082732 
L 172.131747 266.990951 
L 172.457057 265.18116 
L 172.782366 261.824972 
L 173.107664 254.961016 
L 173.432973 242.884823 
L 173.758283 245.363183 
L 174.08358 262.415621 
L 174.40889 269.767849 
L 174.734199 272.32846 
L 175.059496 273.335116 
L 175.384806 273.780611 
L 176.035413 274.102922 
L 177.011329 274.199232 
L 179.939079 274.13707 
L 182.866828 273.916148 
L 184.493351 273.55912 
L 186.445184 272.971623 
L 187.095791 273.007102 
L 188.397005 273.396059 
L 190.674147 274.103466 
L 191.324754 274.134961 
L 192.62598 273.876361 
L 194.90311 273.91169 
L 204.987572 274.113308 
L 205.638178 273.92321 
L 206.288798 273.554093 
L 206.939404 272.96393 
L 207.590011 272.137452 
L 208.24063 271.059724 
L 208.891237 269.653808 
L 209.541844 267.668539 
L 210.192451 264.404919 
L 210.517761 261.766063 
L 210.84307 257.831978 
L 211.168367 251.702125 
L 211.818987 230.455876 
L 212.144284 226.787212 
L 213.1202 262.638595 
L 213.44551 267.43275 
L 213.770807 270.047396 
L 214.096117 271.544026 
L 214.421426 272.444061 
L 215.072033 273.376837 
L 215.72264 273.792432 
L 216.698556 274.055458 
L 218.32508 274.183502 
L 222.228745 274.183191 
L 226.783018 274.011673 
L 231.011981 273.766066 
L 233.289123 274.186217 
L 234.26504 274.119962 
L 235.891563 273.909347 
L 241.747062 274.173059 
L 247.602548 274.138536 
L 248.578464 273.937717 
L 249.229071 273.598686 
L 249.87969 272.959271 
L 250.530297 271.967212 
L 251.831511 269.380927 
L 252.15682 268.519958 
L 252.48213 267.321505 
L 252.807427 265.413068 
L 253.132737 262.069261 
L 253.458046 256.55484 
L 253.783344 253.687677 
L 254.433963 269.148829 
L 254.75926 272.07196 
L 255.08457 273.226961 
L 255.409867 273.725997 
L 256.060486 274.078141 
L 257.036403 274.189146 
L 260.614759 274.180345 
L 266.144935 274.003668 
L 269.072685 273.828121 
L 272.651053 274.105621 
L 273.62697 273.886315 
L 286.964478 274.176339 
L 288.265691 274.01203 
L 288.916311 273.776698 
L 289.566905 273.333929 
L 290.217524 272.581359 
L 290.868143 271.426658 
L 291.518738 269.748427 
L 292.169357 267.143187 
L 292.494654 265.153618 
L 293.470571 256.000852 
L 293.795893 257.532755 
L 294.446487 267.920077 
L 294.771784 270.753846 
L 295.097106 272.2586 
L 295.422404 273.065513 
L 296.073023 273.775149 
L 296.723617 274.028299 
L 298.024856 274.172765 
L 301.928521 274.20165 
L 313.964791 274.063625 
L 315.26603 273.69518 
L 316.241946 273.909859 
L 317.54316 274.104945 
L 320.470909 274.18862 
L 328.603538 274.16265 
L 329.904751 274.032946 
L 330.880668 273.726719 
L 331.531287 273.312144 
L 332.181881 272.674607 
L 332.832501 271.781824 
L 333.48312 270.3697 
L 334.133714 268.014514 
L 334.459036 267.927218 
L 335.109631 272.136914 
L 335.434953 273.250434 
L 335.76025 273.753603 
L 336.410844 274.093369 
L 337.386761 274.189514 
L 342.266343 274.188714 
L 353.326721 274.097158 
L 354.953257 273.711562 
L 356.25447 274.018925 
L 358.206303 274.141593 
L 364.712396 274.199073 
L 370.567895 274.126222 
L 371.869108 273.89707 
L 372.519728 273.628045 
L 373.170347 273.163221 
L 373.820941 272.357161 
L 374.796858 270.496587 
L 375.12218 270.766823 
L 375.772774 272.804974 
L 376.098096 273.428846 
L 376.748691 273.95698 
L 377.724607 274.151929 
L 380.001737 274.203139 
L 381.628273 274.20408 
L 381.628273 274.20408 
" clip-path="url(#pbe6f2fd033)" style="fill: none; stroke: #d62728; stroke-width: 1.2; stroke-linecap: round"/>
   </g>
   <g id="line2d_17">
    <path d="M 56.973727 274.204331 
L 58.274948 274.095303 
L 58.925558 273.773939 
L 59.576169 272.989488 
L 59.901474 272.318662 
L 60.552084 270.13557 
L 61.202694 266.333784 
L 61.853305 260.161492 
L 62.503915 250.695831 
L 63.154525 236.913568 
L 63.805136 217.897156 
L 64.781051 179.058534 
L 66.407577 104.687558 
L 67.058187 85.448391 
L 67.383492 80.401582 
L 67.708797 78.621007 
L 68.034103 79.946324 
L 68.359408 84.008658 
L 69.010018 98.27803 
L 72.26307 186.453927 
L 73.238984 203.793677 
L 76.817342 260.266898 
L 77.467952 271.073478 
L 77.793257 273.95533 
L 78.118562 273.029547 
L 78.443867 266.065797 
L 78.769172 250.971745 
L 79.419783 196.6037 
L 80.070393 135.228517 
L 80.721003 97.856167 
L 81.046308 89.244704 
L 81.371615 85.477806 
L 81.69692 85.098133 
L 82.022225 86.974827 
L 82.672835 94.567281 
L 83.974054 115.476038 
L 86.251191 152.913535 
L 86.901801 161.416738 
L 87.552411 167.357813 
L 87.877717 168.97212 
L 88.203024 169.475676 
L 88.528327 168.750438 
L 88.853633 166.73687 
L 89.178937 163.460442 
L 89.829547 153.727033 
L 91.456073 125.268437 
L 91.78138 121.545258 
L 92.106683 119.263845 
L 92.43199 118.993484 
L 92.757293 121.765598 
L 93.0826 129.593836 
L 93.407906 146.432444 
L 93.733209 178.943901 
L 94.383819 271.202326 
L 94.709126 257.029523 
L 95.359736 177.326465 
L 96.010346 136.526725 
L 96.660956 117.46787 
L 97.311566 106.796157 
L 97.962176 99.695125 
L 98.938092 91.700778 
L 100.564618 78.933227 
L 101.540535 69.246435 
L 102.841755 55.324754 
L 103.167058 52.973335 
L 103.492365 51.663304 
L 103.817671 51.557063 
L 104.142974 52.61656 
L 104.793584 57.196098 
L 106.094807 69.261359 
L 106.745417 77.314826 
L 107.070721 83.032648 
L 107.396027 90.736346 
L 107.721331 101.402335 
L 108.046637 116.419764 
L 108.37194 137.667446 
L 109.02255 205.372656 
L 109.34786 246.013808 
L 109.673163 271.31568 
L 109.998467 263.181138 
L 111.299687 118.510324 
L 111.9503 83.767236 
L 112.600907 64.954619 
L 113.25152 53.847373 
L 113.902133 46.71185 
L 114.552739 41.822471 
L 115.203352 38.358593 
L 115.853959 35.959187 
L 116.504572 34.552359 
L 116.829876 34.264998 
L 117.155179 34.309481 
L 117.480489 34.74787 
L 117.805792 35.660219 
L 118.131096 37.144593 
L 118.456399 39.31433 
L 119.107012 46.200933 
L 119.757625 57.185053 
L 120.408232 72.492078 
L 123.335981 151.713277 
L 124.311891 167.652571 
L 126.263724 194.5759 
L 126.914337 207.248384 
L 127.564944 224.526761 
L 128.866164 264.757522 
L 129.191474 260.087235 
L 129.516777 235.238556 
L 130.817997 64.298976 
L 131.1433 49.645042 
L 131.46861 43.088697 
L 131.793913 40.985289 
L 132.119217 41.151875 
L 132.76983 44.053229 
L 133.745746 49.059476 
L 134.396353 51.586838 
L 135.046966 53.35197 
L 135.697573 54.430054 
L 136.348186 54.916877 
L 136.673489 54.96658 
L 137.324102 54.726658 
L 137.974709 54.088448 
L 138.625322 53.105762 
L 139.601239 51.078618 
L 140.577155 48.487508 
L 141.878375 44.321514 
L 144.806118 34.326611 
L 145.131421 33.698812 
L 145.456731 33.388928 
L 145.782034 33.522695 
L 146.107338 34.263614 
L 146.432647 35.820561 
L 146.757951 38.45203 
L 147.083254 42.464978 
L 147.408558 48.201344 
L 148.059171 66.167465 
L 148.709784 93.938371 
L 150.98692 212.973964 
L 151.637527 233.633932 
L 152.28814 248.278463 
L 153.264056 264.282887 
L 153.914663 271.949068 
L 154.239966 273.638202 
L 154.565276 272.246574 
L 154.890579 265.793794 
L 155.215883 252.10297 
L 155.541193 229.851403 
L 157.167716 81.307991 
L 157.818323 53.188471 
L 158.468936 40.193327 
L 158.794239 36.891608 
L 159.119549 34.867203 
L 159.444852 33.717989 
L 159.770155 33.170808 
L 160.095459 33.04164 
L 160.420768 33.207476 
L 161.071382 34.124655 
L 161.721988 35.55441 
L 162.697905 38.398578 
L 163.673821 42.139392 
L 164.324428 45.324819 
L 164.975035 49.316889 
L 165.625654 54.448064 
L 166.276261 61.16191 
L 166.926868 69.946663 
L 167.902784 87.310391 
L 168.878701 105.545763 
L 169.20401 109.789088 
L 169.529307 112.236726 
L 169.854617 112.589781 
L 170.179927 110.864129 
L 170.830533 102.865975 
L 171.48114 93.51717 
L 171.80645 90.282212 
L 172.131747 89.229031 
L 172.457057 92.02038 
L 172.782366 102.524556 
L 173.107664 131.000188 
L 173.432973 193.06583 
L 173.758283 203.468898 
L 174.08358 126.028721 
L 174.40889 84.999952 
L 174.734199 67.800848 
L 175.059496 59.483899 
L 175.384806 54.823354 
L 176.035413 49.896268 
L 176.68602 47.318035 
L 177.336639 45.687651 
L 178.312555 44.027275 
L 179.613769 42.374656 
L 181.240292 40.28088 
L 182.216209 38.63824 
L 184.168042 34.759665 
L 184.493351 34.687338 
L 184.818648 35.258945 
L 185.143958 36.815445 
L 185.469268 39.724586 
L 185.794565 44.274565 
L 186.445184 58.242561 
L 189.372921 137.632494 
L 190.02354 175.057748 
L 190.999457 255.660663 
L 191.324754 248.924158 
L 192.62598 87.992119 
L 192.951277 69.699229 
L 193.276587 57.946101 
L 193.927194 45.102648 
L 194.577813 39.062094 
L 195.22842 35.959158 
L 195.879026 34.264306 
L 196.529633 33.316226 
L 197.180252 32.808539 
L 197.830859 32.596244 
L 198.481466 32.617988 
L 199.132085 32.864255 
L 199.782692 33.367804 
L 200.433299 34.207335 
L 201.083906 35.521664 
L 201.734525 37.535802 
L 202.385132 40.597758 
L 203.035739 45.217987 
L 203.686358 52.077021 
L 204.336965 61.918848 
L 204.987572 75.202882 
L 207.590011 135.508221 
L 207.915321 138.956036 
L 208.24063 141.035724 
L 208.565928 141.900821 
L 208.891237 141.787702 
L 209.216534 140.995898 
L 209.867154 138.824316 
L 210.192451 138.304777 
L 210.517761 138.865469 
L 210.84307 141.147892 
L 211.493677 151.435678 
L 211.818987 150.728442 
L 212.144284 126.587351 
L 212.469593 87.69837 
L 212.794903 63.27358 
L 213.1202 53.203813 
L 213.44551 49.31784 
L 213.770807 47.629303 
L 214.421426 45.997881 
L 216.373259 42.487155 
L 217.999782 39.981681 
L 219.626306 37.934754 
L 221.578139 35.872412 
L 224.180578 33.430599 
L 225.156495 32.694396 
L 225.807101 32.424612 
L 226.132411 32.426328 
L 226.457708 32.575942 
L 226.783018 32.939797 
L 227.108328 33.612383 
L 227.433625 34.72787 
L 227.758934 36.47469 
L 228.084244 39.112648 
L 228.409541 42.989853 
L 228.734851 48.552149 
L 229.06016 56.327295 
L 229.710767 80.583611 
L 230.361374 117.441266 
L 231.6626 200.154338 
L 232.313207 229.425596 
L 232.963814 250.693647 
L 233.614421 265.552089 
L 233.93973 268.275376 
L 234.26504 264.167293 
L 234.590337 249.355676 
L 234.915647 221.779534 
L 236.216873 84.089622 
L 236.867479 53.671342 
L 237.192789 45.791167 
L 237.518086 40.728353 
L 237.843396 37.489733 
L 238.168693 35.427088 
L 238.494003 34.124944 
L 238.819312 33.318821 
L 239.14461 32.839454 
L 239.469919 32.577802 
L 240.120526 32.449687 
L 240.771145 32.614484 
L 241.747062 33.134543 
L 243.048275 34.147481 
L 244.024192 35.172689 
L 245.000108 36.56233 
L 245.650715 37.812753 
L 246.301322 39.466467 
L 246.951941 41.718652 
L 247.602548 44.847095 
L 248.253155 49.184736 
L 248.903774 54.925961 
L 250.204988 67.179653 
L 250.530297 68.70172 
L 250.855594 69.053506 
L 251.180904 68.322825 
L 251.831511 65.414578 
L 252.15682 64.657943 
L 252.48213 65.707635 
L 252.807427 70.425829 
L 253.132737 82.787045 
L 253.783344 137.031932 
L 254.108653 111.710957 
L 254.433963 77.145082 
L 254.75926 59.278497 
L 255.08457 50.482151 
L 255.409867 45.697052 
L 255.735177 42.818653 
L 256.385783 39.636859 
L 257.036403 37.961256 
L 257.687009 36.936509 
L 258.662926 35.967954 
L 259.96414 35.15008 
L 262.891889 33.799227 
L 265.169019 32.808914 
L 265.494341 32.815085 
L 265.819638 32.959897 
L 266.144935 33.327718 
L 266.470257 34.042105 
L 266.795555 35.276768 
L 267.120852 37.26064 
L 267.446174 40.269215 
L 267.771471 44.584146 
L 268.42209 57.810012 
L 269.397982 86.096305 
L 271.024518 135.692586 
L 271.675137 165.75652 
L 272.651053 222.226553 
L 272.97635 210.871126 
L 273.952267 89.482939 
L 274.277564 67.036224 
L 274.602886 53.619029 
L 274.928183 45.625677 
L 275.25348 40.779253 
L 275.578802 37.77235 
L 275.9041 35.86539 
L 276.554719 33.826062 
L 277.205313 32.941873 
L 277.855933 32.567233 
L 278.506527 32.436594 
L 279.482443 32.460083 
L 281.108979 32.776211 
L 282.735515 33.353975 
L 283.711431 33.886075 
L 284.687348 34.658571 
L 285.337942 35.381754 
L 285.988561 36.3524 
L 286.639156 37.668603 
L 287.289775 39.45225 
L 287.940394 41.822457 
L 288.916311 46.495648 
L 289.892227 51.388675 
L 290.217524 52.568111 
L 290.542821 53.313615 
L 290.868143 53.565577 
L 291.193441 53.361862 
L 291.84406 52.407265 
L 292.169357 52.49701 
L 292.494654 53.990282 
L 292.819976 58.320252 
L 293.145274 67.46886 
L 293.470571 81.088357 
L 293.795893 89.153704 
L 294.12119 82.744422 
L 294.771784 60.734581 
L 295.422404 49.021164 
L 296.073023 43.214101 
L 296.723617 39.954703 
L 297.374236 37.930039 
L 298.024856 36.576677 
L 298.67545 35.621344 
L 299.651367 34.630829 
L 300.627283 33.954249 
L 301.928521 33.323825 
L 303.555032 32.773558 
L 305.506865 32.344599 
L 306.482782 32.2845 
L 307.133401 32.38108 
L 307.783995 32.697583 
L 308.434614 33.4353 
L 308.759912 34.074995 
L 309.085234 34.994367 
L 309.410531 36.305595 
L 309.735828 38.163659 
L 310.06115 40.778561 
L 310.386447 44.422881 
L 310.711745 49.43354 
L 311.362364 65.045244 
L 312.012958 89.829938 
L 312.988875 141.267615 
L 314.290113 218.748176 
L 314.61541 228.343813 
L 314.940708 218.872834 
L 315.26603 185.382347 
L 315.916624 100.198443 
L 316.241946 72.922161 
L 316.567243 56.228927 
L 316.89254 46.418058 
L 317.217862 40.683149 
L 317.54316 37.30296 
L 317.868457 35.286515 
L 318.193779 34.071347 
L 318.519076 33.335865 
L 319.16967 32.629899 
L 319.82029 32.405405 
L 320.796206 32.399681 
L 322.748039 32.711295 
L 325.025169 33.265816 
L 326.651705 33.874741 
L 327.627621 34.418491 
L 328.603538 35.195169 
L 329.579454 36.317203 
L 330.55537 37.843768 
L 331.856584 40.342869 
L 332.181881 41.211499 
L 332.507203 42.468597 
L 332.832501 44.494747 
L 333.157798 47.957716 
L 333.48312 54.071678 
L 333.808417 64.879581 
L 334.459036 95.063533 
L 334.784333 86.053408 
L 335.434953 53.798304 
L 335.76025 46.168533 
L 336.085547 41.784866 
L 336.410844 39.135156 
L 337.061464 36.311435 
L 337.712083 34.949148 
L 338.362677 34.19815 
L 339.338594 33.576291 
L 340.639832 33.143599 
L 342.591665 32.787285 
L 345.844711 32.426328 
L 346.820628 32.459939 
L 347.471222 32.640252 
L 348.121842 33.112554 
L 348.447139 33.546184 
L 348.772461 34.188446 
L 349.097758 35.125192 
L 349.423055 36.469744 
L 349.748377 38.366192 
L 350.398972 44.500327 
L 351.049591 54.790838 
L 351.70021 69.619231 
L 352.350804 88.687242 
L 353.001424 113.730892 
L 353.97734 160.715407 
L 354.302637 156.312022 
L 355.603851 52.474444 
L 355.929173 43.826415 
L 356.25447 38.997928 
L 356.579767 36.253498 
L 356.905089 34.659119 
L 357.230387 33.715365 
L 357.555684 33.149381 
L 358.206303 32.604074 
L 358.856922 32.418772 
L 360.158136 32.39201 
L 365.688313 32.803535 
L 369.266681 33.214152 
L 371.218514 33.604366 
L 371.869108 33.880134 
L 372.19443 34.147005 
L 372.519728 34.602581 
L 372.845025 35.394083 
L 373.170347 36.769866 
L 373.495644 39.144471 
L 373.820941 43.22219 
L 374.146263 50.113739 
L 375.12218 80.959434 
L 375.447477 74.787305 
L 376.098096 53.846219 
L 376.423393 47.365099 
L 377.074013 40.276814 
L 377.724607 36.971159 
L 378.375226 35.246228 
L 379.025821 34.257817 
L 379.67644 33.648604 
L 380.652356 33.102965 
L 381.628273 32.786319 
L 381.628273 32.786319 
" clip-path="url(#pbe6f2fd033)" style="fill: none; stroke: #9467bd; stroke-width: 1.2; stroke-linecap: round"/>
   </g>
   <g id="patch_3">
    <path d="M 40.741 274.2045 
L 40.741 32.289691 
" style="fill: none; stroke: #262626; stroke-linejoin: miter; stroke-linecap: square"/>
   </g>
   <g id="patch_4">
    <path d="M 56.648422 286.3005 
L 381.628273 286.3005 
" style="fill: none; stroke: #262626; stroke-linejoin: miter; stroke-linecap: square"/>
   </g>
   <g id="text_15">
    <!-- Total Sobol Indices for v(t) -->
    <g style="fill: #262626" transform="translate(163.816 14.1885) scale(0.096 -0.096)">
     <defs>
      <path id="ArialMT-54" d="M 1659 0 
L 1659 4041 
L 150 4041 
L 150 4581 
L 3781 4581 
L 3781 4041 
L 2266 4041 
L 2266 0 
L 1659 0 
z
" transform="scale(0.015625)"/>
      <path id="ArialMT-61" d="M 2588 409 
Q 2275 144 1986 34 
Q 1697 -75 1366 -75 
Q 819 -75 525 192 
Q 231 459 231 875 
Q 231 1119 342 1320 
Q 453 1522 633 1644 
Q 813 1766 1038 1828 
Q 1203 1872 1538 1913 
Q 2219 1994 2541 2106 
Q 2544 2222 2544 2253 
Q 2544 2597 2384 2738 
Q 2169 2928 1744 2928 
Q 1347 2928 1158 2789 
Q 969 2650 878 2297 
L 328 2372 
Q 403 2725 575 2942 
Q 747 3159 1072 3276 
Q 1397 3394 1825 3394 
Q 2250 3394 2515 3294 
Q 2781 3194 2906 3042 
Q 3031 2891 3081 2659 
Q 3109 2516 3109 2141 
L 3109 1391 
Q 3109 606 3145 398 
Q 3181 191 3288 0 
L 2700 0 
Q 2613 175 2588 409 
z
M 2541 1666 
Q 2234 1541 1622 1453 
Q 1275 1403 1131 1340 
Q 988 1278 909 1158 
Q 831 1038 831 891 
Q 831 666 1001 516 
Q 1172 366 1500 366 
Q 1825 366 2078 508 
Q 2331 650 2450 897 
Q 2541 1088 2541 1459 
L 2541 1666 
z
" transform="scale(0.015625)"/>
      <path id="ArialMT-6c" d="M 409 0 
L 409 4581 
L 972 4581 
L 972 0 
L 409 0 
z
" transform="scale(0.015625)"/>
      <path id="ArialMT-62" d="M 941 0 
L 419 0 
L 419 4581 
L 981 4581 
L 981 2947 
Q 1338 3394 1891 3394 
Q 2197 3394 2470 3270 
Q 2744 3147 2920 2923 
Q 3097 2700 3197 2384 
Q 3297 2069 3297 1709 
Q 3297 856 2875 390 
Q 2453 -75 1863 -75 
Q 1275 -75 941 416 
L 941 0 
z
M 934 1684 
Q 934 1088 1097 822 
Q 1363 388 1816 388 
Q 2184 388 2453 708 
Q 2722 1028 2722 1663 
Q 2722 2313 2464 2622 
Q 2206 2931 1841 2931 
Q 1472 2931 1203 2611 
Q 934 2291 934 1684 
z
" transform="scale(0.015625)"/>
     </defs>
     <use xlink:href="#ArialMT-54"/>
     <use xlink:href="#ArialMT-6f" x="49.958984"/>
     <use xlink:href="#ArialMT-74" x="105.574219"/>
     <use xlink:href="#ArialMT-61" x="133.357422"/>
     <use xlink:href="#ArialMT-6c" x="188.972656"/>
     <use xlink:href="#ArialMT-20" x="211.189453"/>
     <use xlink:href="#ArialMT-53" x="238.972656"/>
     <use xlink:href="#ArialMT-6f" x="305.671875"/>
     <use xlink:href="#ArialMT-62" x="361.287109"/>
     <use xlink:href="#ArialMT-6f" x="416.902344"/>
     <use xlink:href="#ArialMT-6c" x="472.517578"/>
     <use xlink:href="#ArialMT-20" x="494.734375"/>
     <use xlink:href="#ArialMT-49" x="522.517578"/>
     <use xlink:href="#ArialMT-6e" x="550.300781"/>
     <use xlink:href="#ArialMT-64" x="605.916016"/>
     <use xlink:href="#ArialMT-69" x="661.53125"/>
     <use xlink:href="#ArialMT-63" x="683.748047"/>
     <use xlink:href="#ArialMT-65" x="733.748047"/>
     <use xlink:href="#ArialMT-73" x="789.363281"/>
     <use xlink:href="#ArialMT-20" x="839.363281"/>
     <use xlink:href="#ArialMT-66" x="867.146484"/>
     <use xlink:href="#ArialMT-6f" x="894.929688"/>
     <use xlink:href="#ArialMT-72" x="950.544922"/>
     <use xlink:href="#ArialMT-20" x="983.845703"/>
     <use xlink:href="#ArialMT-76" x="1011.628906"/>
     <use xlink:href="#ArialMT-28" x="1061.628906"/>
     <use xlink:href="#ArialMT-74" x="1094.929688"/>
     <use xlink:href="#ArialMT-29" x="1122.712891"/>
    </g>
   </g>
   <g id="legend_1">
    <g id="line2d_18">
     <path d="M 335.959875 127.440562 
L 344.759875 127.440562 
L 353.559875 127.440562 
" style="fill: none; stroke: #1f77b4; stroke-width: 1.2; stroke-linecap: round"/>
    </g>
    <g id="text_16">
     <!-- alpha -->
     <g style="fill: #262626" transform="translate(360.599875 130.520562) scale(0.088 -0.088)">
      <defs>
       <path id="ArialMT-70" d="M 422 -1272 
L 422 3319 
L 934 3319 
L 934 2888 
Q 1116 3141 1344 3267 
Q 1572 3394 1897 3394 
Q 2322 3394 2647 3175 
Q 2972 2956 3137 2557 
Q 3303 2159 3303 1684 
Q 3303 1175 3120 767 
Q 2938 359 2589 142 
Q 2241 -75 1856 -75 
Q 1575 -75 1351 44 
Q 1128 163 984 344 
L 984 -1272 
L 422 -1272 
z
M 931 1641 
Q 931 1000 1190 694 
Q 1450 388 1819 388 
Q 2194 388 2461 705 
Q 2728 1022 2728 1688 
Q 2728 2322 2467 2637 
Q 2206 2953 1844 2953 
Q 1484 2953 1207 2617 
Q 931 2281 931 1641 
z
" transform="scale(0.015625)"/>
       <path id="ArialMT-68" d="M 422 0 
L 422 4581 
L 984 4581 
L 984 2938 
Q 1378 3394 1978 3394 
Q 2347 3394 2619 3248 
Q 2891 3103 3008 2847 
Q 3125 2591 3125 2103 
L 3125 0 
L 2563 0 
L 2563 2103 
Q 2563 2525 2380 2717 
Q 2197 2909 1863 2909 
Q 1613 2909 1392 2779 
Q 1172 2650 1078 2428 
Q 984 2206 984 1816 
L 984 0 
L 422 0 
z
" transform="scale(0.015625)"/>
      </defs>
      <use xlink:href="#ArialMT-61"/>
      <use xlink:href="#ArialMT-6c" x="55.615234"/>
      <use xlink:href="#ArialMT-70" x="77.832031"/>
      <use xlink:href="#ArialMT-68" x="133.447266"/>
      <use xlink:href="#ArialMT-61" x="189.0625"/>
     </g>
    </g>
    <g id="line2d_19">
     <path d="M 335.959875 139.888437 
L 344.759875 139.888437 
L 353.559875 139.888437 
" style="fill: none; stroke: #ff7f0e; stroke-width: 1.2; stroke-linecap: round"/>
    </g>
    <g id="text_17">
     <!-- beta -->
     <g style="fill: #262626" transform="translate(360.599875 142.968437) scale(0.088 -0.088)">
      <use xlink:href="#ArialMT-62"/>
      <use xlink:href="#ArialMT-65" x="55.615234"/>
      <use xlink:href="#ArialMT-74" x="111.230469"/>
      <use xlink:href="#ArialMT-61" x="139.013672"/>
     </g>
    </g>
    <g id="line2d_20">
     <path d="M 335.959875 152.336312 
L 344.759875 152.336312 
L 353.559875 152.336312 
" style="fill: none; stroke: #2ca02c; stroke-width: 1.2; stroke-linecap: round"/>
    </g>
    <g id="text_18">
     <!-- gamma -->
     <g style="fill: #262626" transform="translate(360.599875 155.416312) scale(0.088 -0.088)">
      <defs>
       <path id="ArialMT-67" d="M 319 -275 
L 866 -356 
Q 900 -609 1056 -725 
Q 1266 -881 1628 -881 
Q 2019 -881 2231 -725 
Q 2444 -569 2519 -288 
Q 2563 -116 2559 434 
Q 2191 0 1641 0 
Q 956 0 581 494 
Q 206 988 206 1678 
Q 206 2153 378 2554 
Q 550 2956 876 3175 
Q 1203 3394 1644 3394 
Q 2231 3394 2613 2919 
L 2613 3319 
L 3131 3319 
L 3131 450 
Q 3131 -325 2973 -648 
Q 2816 -972 2473 -1159 
Q 2131 -1347 1631 -1347 
Q 1038 -1347 672 -1080 
Q 306 -813 319 -275 
z
M 784 1719 
Q 784 1066 1043 766 
Q 1303 466 1694 466 
Q 2081 466 2343 764 
Q 2606 1063 2606 1700 
Q 2606 2309 2336 2618 
Q 2066 2928 1684 2928 
Q 1309 2928 1046 2623 
Q 784 2319 784 1719 
z
" transform="scale(0.015625)"/>
       <path id="ArialMT-6d" d="M 422 0 
L 422 3319 
L 925 3319 
L 925 2853 
Q 1081 3097 1340 3245 
Q 1600 3394 1931 3394 
Q 2300 3394 2536 3241 
Q 2772 3088 2869 2813 
Q 3263 3394 3894 3394 
Q 4388 3394 4653 3120 
Q 4919 2847 4919 2278 
L 4919 0 
L 4359 0 
L 4359 2091 
Q 4359 2428 4304 2576 
Q 4250 2725 4106 2815 
Q 3963 2906 3769 2906 
Q 3419 2906 3187 2673 
Q 2956 2441 2956 1928 
L 2956 0 
L 2394 0 
L 2394 2156 
Q 2394 2531 2256 2718 
Q 2119 2906 1806 2906 
Q 1569 2906 1367 2781 
Q 1166 2656 1075 2415 
Q 984 2175 984 1722 
L 984 0 
L 422 0 
z
" transform="scale(0.015625)"/>
      </defs>
      <use xlink:href="#ArialMT-67"/>
      <use xlink:href="#ArialMT-61" x="55.615234"/>
      <use xlink:href="#ArialMT-6d" x="111.230469"/>
      <use xlink:href="#ArialMT-6d" x="194.53125"/>
      <use xlink:href="#ArialMT-61" x="277.832031"/>
     </g>
    </g>
    <g id="line2d_21">
     <path d="M 335.959875 164.887312 
L 344.759875 164.887312 
L 353.559875 164.887312 
" style="fill: none; stroke: #d62728; stroke-width: 1.2; stroke-linecap: round"/>
    </g>
    <g id="text_19">
     <!-- delta -->
     <g style="fill: #262626" transform="translate(360.599875 167.967312) scale(0.088 -0.088)">
      <use xlink:href="#ArialMT-64"/>
      <use xlink:href="#ArialMT-65" x="55.615234"/>
      <use xlink:href="#ArialMT-6c" x="111.230469"/>
      <use xlink:href="#ArialMT-74" x="133.447266"/>
      <use xlink:href="#ArialMT-61" x="161.230469"/>
     </g>
    </g>
    <g id="line2d_22">
     <path d="M 335.959875 177.335187 
L 344.759875 177.335187 
L 353.559875 177.335187 
" style="fill: none; stroke: #9467bd; stroke-width: 1.2; stroke-linecap: round"/>
    </g>
    <g id="text_20">
     <!-- omega -->
     <g style="fill: #262626" transform="translate(360.599875 180.415187) scale(0.088 -0.088)">
      <use xlink:href="#ArialMT-6f"/>
      <use xlink:href="#ArialMT-6d" x="55.615234"/>
      <use xlink:href="#ArialMT-65" x="138.916016"/>
      <use xlink:href="#ArialMT-67" x="194.53125"/>
      <use xlink:href="#ArialMT-61" x="250.146484"/>
     </g>
    </g>
   </g>
  </g>
 </g>
 <defs>
  <clipPath id="pbe6f2fd033">
   <rect x="40.741" y="20.1885" width="357.12" height="266.112"/>
  </clipPath>
 </defs>
</svg>