<?xml version="1.0" encoding="utf-8" standalone="no"?>
<!DOCTYPE svg PUBLIC "-//W3C//DTD SVG 1.1//EN"
  "http://www.w3.org/Graphics/SVG/1.1/DTD/svg11.dtd">
<svg xmlns:xlink="http://www.w3.org/1999/xlink" width="713.664pt" height="215.712pt" viewBox="0 0 713.664 215.712" xmlns="http://www.w3.org/2000/svg" version="1.1">
 <metadata>
  <rdf:RDF xmlns:dc="http://purl.org/dc/elements/1.1/" xmlns:cc="http://creativecommons.org/ns#" xmlns:rdf="http://www.w3.org/1999/02/22-rdf-syntax-ns#">
   <cc:Work>
    <dc:type rdf:resource="http://purl.org/dc/dcmitype/StillImage"/>
    <dc:date>2024-10-08T16:46:13.558584</dc:date>
    <dc:format>image/svg+xml</dc:format>
    <dc:creator>
     <cc:Agent>
      <dc:title>Matplotlib v3.9.2, https://matplotlib.org/</dc:title>
     </cc:Agent>
    </dc:creator>
   </cc:Work>
  </rdf:RDF>
 </metadata>
 <defs>
  <style type="text/css">*{stroke-linejoin: round; stroke-linecap: butt}</style>
 </defs>
 <g id="figure_1">
  <g id="patch_1">
   <path d="M 0 215.712 
L 713.664 215.712 
L 713.664 0 
L 0 0 
z
" style="fill: #ffffff"/>
  </g>
  <g id="axes_1">
   <g id="patch_2">
    <path d="M 7.2 192.164125 
L 174.24 192.164125 
L 174.24 51.1485 
L 7.2 51.1485 
z
" style="fill: #ffffff"/>
   </g>
   <g id="matplotlib.axis_1">
    <g id="xtick_1">
     <g id="line2d_1">
      <defs>
       <path id="m574faf692b" d="M 0 0 
L 0 4.8 
" style="stroke: #262626"/>
      </defs>
      <g>
       <use xlink:href="#m574faf692b" x="19.62945" y="192.164125" style="fill: #262626; stroke: #262626"/>
      </g>
     </g>
     <g id="text_1">
      <!-- −10 -->
      <g style="fill: #262626" transform="translate(12.16595 206.763) scale(0.088 -0.088)">
       <defs>
        <path id="ArialMT-2212" d="M 3381 1997 
L 356 1997 
L 356 2522 
L 3381 2522 
L 3381 1997 
z
" transform="scale(0.015625)"/>
        <path id="ArialMT-31" d="M 2384 0 
L 1822 0 
L 1822 3584 
Q 1619 3391 1289 3197 
Q 959 3003 697 2906 
L 697 3450 
Q 1169 3672 1522 3987 
Q 1875 4303 2022 4600 
L 2384 4600 
L 2384 0 
z
" transform="scale(0.015625)"/>
        <path id="ArialMT-30" d="M 266 2259 
Q 266 3072 433 3567 
Q 600 4063 929 4331 
Q 1259 4600 1759 4600 
Q 2128 4600 2406 4451 
Q 2684 4303 2865 4023 
Q 3047 3744 3150 3342 
Q 3253 2941 3253 2259 
Q 3253 1453 3087 958 
Q 2922 463 2592 192 
Q 2263 -78 1759 -78 
Q 1097 -78 719 397 
Q 266 969 266 2259 
z
M 844 2259 
Q 844 1131 1108 757 
Q 1372 384 1759 384 
Q 2147 384 2411 759 
Q 2675 1134 2675 2259 
Q 2675 3391 2411 3762 
Q 2147 4134 1753 4134 
Q 1366 4134 1134 3806 
Q 844 3388 844 2259 
z
" transform="scale(0.015625)"/>
       </defs>
       <use xlink:href="#ArialMT-2212"/>
       <use xlink:href="#ArialMT-31" x="58.398438"/>
       <use xlink:href="#ArialMT-30" x="114.013672"/>
      </g>
     </g>
    </g>
    <g id="xtick_2">
     <g id="line2d_2">
      <g>
       <use xlink:href="#m574faf692b" x="99.972967" y="192.164125" style="fill: #262626; stroke: #262626"/>
      </g>
     </g>
     <g id="text_2">
      <!-- 0 -->
      <g style="fill: #262626" transform="translate(97.526155 206.763) scale(0.088 -0.088)">
       <use xlink:href="#ArialMT-30"/>
      </g>
     </g>
    </g>
   </g>
   <g id="matplotlib.axis_2"/>
   <g id="patch_3">
    <path d="M 14.792727 192.164125 
L 22.385455 192.164125 
L 22.385455 190.688294 
L 14.792727 190.688294 
z
" clip-path="url(#p1d53eb3cb7)" style="fill: #1f77b4; stroke: #ffffff; stroke-width: 0.8; stroke-linejoin: miter"/>
   </g>
   <g id="patch_4">
    <path d="M 22.385455 192.164125 
L 29.978182 192.164125 
L 29.978182 189.212464 
L 22.385455 189.212464 
z
" clip-path="url(#p1d53eb3cb7)" style="fill: #1f77b4; stroke: #ffffff; stroke-width: 0.8; stroke-linejoin: miter"/>
   </g>
   <g id="patch_5">
    <path d="M 29.978182 192.164125 
L 37.570909 192.164125 
L 37.570909 190.688294 
L 29.978182 190.688294 
z
" clip-path="url(#p1d53eb3cb7)" style="fill: #1f77b4; stroke: #ffffff; stroke-width: 0.8; stroke-linejoin: miter"/>
   </g>
   <g id="patch_6">
    <path d="M 37.570909 192.164125 
L 45.163636 192.164125 
L 45.163636 189.212464 
L 37.570909 189.212464 
z
" clip-path="url(#p1d53eb3cb7)" style="fill: #1f77b4; stroke: #ffffff; stroke-width: 0.8; stroke-linejoin: miter"/>
   </g>
   <g id="patch_7">
    <path d="M 45.163636 192.164125 
L 52.756364 192.164125 
L 52.756364 183.309141 
L 45.163636 183.309141 
z
" clip-path="url(#p1d53eb3cb7)" style="fill: #1f77b4; stroke: #ffffff; stroke-width: 0.8; stroke-linejoin: miter"/>
   </g>
   <g id="patch_8">
    <path d="M 52.756364 192.164125 
L 60.349091 192.164125 
L 60.349091 172.978326 
L 52.756364 172.978326 
z
" clip-path="url(#p1d53eb3cb7)" style="fill: #1f77b4; stroke: #ffffff; stroke-width: 0.8; stroke-linejoin: miter"/>
   </g>
   <g id="patch_9">
    <path d="M 60.349091 192.164125 
L 67.941818 192.164125 
L 67.941818 170.026664 
L 60.349091 170.026664 
z
" clip-path="url(#p1d53eb3cb7)" style="fill: #1f77b4; stroke: #ffffff; stroke-width: 0.8; stroke-linejoin: miter"/>
   </g>
   <g id="patch_10">
    <path d="M 67.941818 192.164125 
L 75.534545 192.164125 
L 75.534545 174.454156 
L 67.941818 174.454156 
z
" clip-path="url(#p1d53eb3cb7)" style="fill: #1f77b4; stroke: #ffffff; stroke-width: 0.8; stroke-linejoin: miter"/>
   </g>
   <g id="patch_11">
    <path d="M 75.534545 192.164125 
L 83.127273 192.164125 
L 83.127273 153.792526 
L 75.534545 153.792526 
z
" clip-path="url(#p1d53eb3cb7)" style="fill: #1f77b4; stroke: #ffffff; stroke-width: 0.8; stroke-linejoin: miter"/>
   </g>
   <g id="patch_12">
    <path d="M 83.127273 192.164125 
L 90.72 192.164125 
L 90.72 84.428483 
L 83.127273 84.428483 
z
" clip-path="url(#p1d53eb3cb7)" style="fill: #1f77b4; stroke: #ffffff; stroke-width: 0.8; stroke-linejoin: miter"/>
   </g>
   <g id="patch_13">
    <path d="M 90.72 192.164125 
L 98.312727 192.164125 
L 98.312727 57.86353 
L 90.72 57.86353 
z
" clip-path="url(#p1d53eb3cb7)" style="fill: #1f77b4; stroke: #ffffff; stroke-width: 0.8; stroke-linejoin: miter"/>
   </g>
   <g id="patch_14">
    <path d="M 98.312727 192.164125 
L 105.905455 192.164125 
L 105.905455 69.670175 
L 98.312727 69.670175 
z
" clip-path="url(#p1d53eb3cb7)" style="fill: #1f77b4; stroke: #ffffff; stroke-width: 0.8; stroke-linejoin: miter"/>
   </g>
   <g id="patch_15">
    <path d="M 105.905455 192.164125 
L 113.498182 192.164125 
L 113.498182 102.138451 
L 105.905455 102.138451 
z
" clip-path="url(#p1d53eb3cb7)" style="fill: #1f77b4; stroke: #ffffff; stroke-width: 0.8; stroke-linejoin: miter"/>
   </g>
   <g id="patch_16">
    <path d="M 113.498182 192.164125 
L 121.090909 192.164125 
L 121.090909 122.800081 
L 113.498182 122.800081 
z
" clip-path="url(#p1d53eb3cb7)" style="fill: #1f77b4; stroke: #ffffff; stroke-width: 0.8; stroke-linejoin: miter"/>
   </g>
   <g id="patch_17">
    <path d="M 121.090909 192.164125 
L 128.683636 192.164125 
L 128.683636 156.744188 
L 121.090909 156.744188 
z
" clip-path="url(#p1d53eb3cb7)" style="fill: #1f77b4; stroke: #ffffff; stroke-width: 0.8; stroke-linejoin: miter"/>
   </g>
   <g id="patch_18">
    <path d="M 128.683636 192.164125 
L 136.276364 192.164125 
L 136.276364 170.026664 
L 128.683636 170.026664 
z
" clip-path="url(#p1d53eb3cb7)" style="fill: #1f77b4; stroke: #ffffff; stroke-width: 0.8; stroke-linejoin: miter"/>
   </g>
   <g id="patch_19">
    <path d="M 136.276364 192.164125 
L 143.869091 192.164125 
L 143.869091 175.929987 
L 136.276364 175.929987 
z
" clip-path="url(#p1d53eb3cb7)" style="fill: #1f77b4; stroke: #ffffff; stroke-width: 0.8; stroke-linejoin: miter"/>
   </g>
   <g id="patch_20">
    <path d="M 143.869091 192.164125 
L 151.461818 192.164125 
L 151.461818 177.405818 
L 143.869091 177.405818 
z
" clip-path="url(#p1d53eb3cb7)" style="fill: #1f77b4; stroke: #ffffff; stroke-width: 0.8; stroke-linejoin: miter"/>
   </g>
   <g id="patch_21">
    <path d="M 151.461818 192.164125 
L 159.054545 192.164125 
L 159.054545 187.736633 
L 151.461818 187.736633 
z
" clip-path="url(#p1d53eb3cb7)" style="fill: #1f77b4; stroke: #ffffff; stroke-width: 0.8; stroke-linejoin: miter"/>
   </g>
   <g id="patch_22">
    <path d="M 159.054545 192.164125 
L 166.647273 192.164125 
L 166.647273 186.260802 
L 159.054545 186.260802 
z
" clip-path="url(#p1d53eb3cb7)" style="fill: #1f77b4; stroke: #ffffff; stroke-width: 0.8; stroke-linejoin: miter"/>
   </g>
   <g id="patch_23">
    <path d="M 19.62945 192.164125 
L 99.972967 192.164125 
" style="fill: none; stroke: #262626; stroke-linejoin: miter; stroke-linecap: square"/>
   </g>
   <g id="text_3">
    <!-- needle_displacement_m -->
    <g style="fill: #262626" transform="translate(38.69025 45.1485) scale(0.096 -0.096)">
     <defs>
      <path id="ArialMT-6e" d="M 422 0 
L 422 3319 
L 928 3319 
L 928 2847 
Q 1294 3394 1984 3394 
Q 2284 3394 2536 3286 
Q 2788 3178 2913 3003 
Q 3038 2828 3088 2588 
Q 3119 2431 3119 2041 
L 3119 0 
L 2556 0 
L 2556 2019 
Q 2556 2363 2490 2533 
Q 2425 2703 2258 2804 
Q 2091 2906 1866 2906 
Q 1506 2906 1245 2678 
Q 984 2450 984 1813 
L 984 0 
L 422 0 
z
" transform="scale(0.015625)"/>
      <path id="ArialMT-65" d="M 2694 1069 
L 3275 997 
Q 3138 488 2766 206 
Q 2394 -75 1816 -75 
Q 1088 -75 661 373 
Q 234 822 234 1631 
Q 234 2469 665 2931 
Q 1097 3394 1784 3394 
Q 2450 3394 2872 2941 
Q 3294 2488 3294 1666 
Q 3294 1616 3291 1516 
L 816 1516 
Q 847 969 1125 678 
Q 1403 388 1819 388 
Q 2128 388 2347 550 
Q 2566 713 2694 1069 
z
M 847 1978 
L 2700 1978 
Q 2663 2397 2488 2606 
Q 2219 2931 1791 2931 
Q 1403 2931 1139 2672 
Q 875 2413 847 1978 
z
" transform="scale(0.015625)"/>
      <path id="ArialMT-64" d="M 2575 0 
L 2575 419 
Q 2259 -75 1647 -75 
Q 1250 -75 917 144 
Q 584 363 401 755 
Q 219 1147 219 1656 
Q 219 2153 384 2558 
Q 550 2963 881 3178 
Q 1213 3394 1622 3394 
Q 1922 3394 2156 3267 
Q 2391 3141 2538 2938 
L 2538 4581 
L 3097 4581 
L 3097 0 
L 2575 0 
z
M 797 1656 
Q 797 1019 1065 703 
Q 1334 388 1700 388 
Q 2069 388 2326 689 
Q 2584 991 2584 1609 
Q 2584 2291 2321 2609 
Q 2059 2928 1675 2928 
Q 1300 2928 1048 2622 
Q 797 2316 797 1656 
z
" transform="scale(0.015625)"/>
      <path id="ArialMT-6c" d="M 409 0 
L 409 4581 
L 972 4581 
L 972 0 
L 409 0 
z
" transform="scale(0.015625)"/>
      <path id="ArialMT-5f" d="M -97 -1272 
L -97 -866 
L 3631 -866 
L 3631 -1272 
L -97 -1272 
z
" transform="scale(0.015625)"/>
      <path id="ArialMT-69" d="M 425 3934 
L 425 4581 
L 988 4581 
L 988 3934 
L 425 3934 
z
M 425 0 
L 425 3319 
L 988 3319 
L 988 0 
L 425 0 
z
" transform="scale(0.015625)"/>
      <path id="ArialMT-73" d="M 197 991 
L 753 1078 
Q 800 744 1014 566 
Q 1228 388 1613 388 
Q 2000 388 2187 545 
Q 2375 703 2375 916 
Q 2375 1106 2209 1216 
Q 2094 1291 1634 1406 
Q 1016 1563 777 1677 
Q 538 1791 414 1992 
Q 291 2194 291 2438 
Q 291 2659 392 2848 
Q 494 3038 669 3163 
Q 800 3259 1026 3326 
Q 1253 3394 1513 3394 
Q 1903 3394 2198 3281 
Q 2494 3169 2634 2976 
Q 2775 2784 2828 2463 
L 2278 2388 
Q 2241 2644 2061 2787 
Q 1881 2931 1553 2931 
Q 1166 2931 1000 2803 
Q 834 2675 834 2503 
Q 834 2394 903 2306 
Q 972 2216 1119 2156 
Q 1203 2125 1616 2013 
Q 2213 1853 2448 1751 
Q 2684 1650 2818 1456 
Q 2953 1263 2953 975 
Q 2953 694 2789 445 
Q 2625 197 2315 61 
Q 2006 -75 1616 -75 
Q 969 -75 630 194 
Q 291 463 197 991 
z
" transform="scale(0.015625)"/>
      <path id="ArialMT-70" d="M 422 -1272 
L 422 3319 
L 934 3319 
L 934 2888 
Q 1116 3141 1344 3267 
Q 1572 3394 1897 3394 
Q 2322 3394 2647 3175 
Q 2972 2956 3137 2557 
Q 3303 2159 3303 1684 
Q 3303 1175 3120 767 
Q 2938 359 2589 142 
Q 2241 -75 1856 -75 
Q 1575 -75 1351 44 
Q 1128 163 984 344 
L 984 -1272 
L 422 -1272 
z
M 931 1641 
Q 931 1000 1190 694 
Q 1450 388 1819 388 
Q 2194 388 2461 705 
Q 2728 1022 2728 1688 
Q 2728 2322 2467 2637 
Q 2206 2953 1844 2953 
Q 1484 2953 1207 2617 
Q 931 2281 931 1641 
z
" transform="scale(0.015625)"/>
      <path id="ArialMT-61" d="M 2588 409 
Q 2275 144 1986 34 
Q 1697 -75 1366 -75 
Q 819 -75 525 192 
Q 231 459 231 875 
Q 231 1119 342 1320 
Q 453 1522 633 1644 
Q 813 1766 1038 1828 
Q 1203 1872 1538 1913 
Q 2219 1994 2541 2106 
Q 2544 2222 2544 2253 
Q 2544 2597 2384 2738 
Q 2169 2928 1744 2928 
Q 1347 2928 1158 2789 
Q 969 2650 878 2297 
L 328 2372 
Q 403 2725 575 2942 
Q 747 3159 1072 3276 
Q 1397 3394 1825 3394 
Q 2250 3394 2515 3294 
Q 2781 3194 2906 3042 
Q 3031 2891 3081 2659 
Q 3109 2516 3109 2141 
L 3109 1391 
Q 3109 606 3145 398 
Q 3181 191 3288 0 
L 2700 0 
Q 2613 175 2588 409 
z
M 2541 1666 
Q 2234 1541 1622 1453 
Q 1275 1403 1131 1340 
Q 988 1278 909 1158 
Q 831 1038 831 891 
Q 831 666 1001 516 
Q 1172 366 1500 366 
Q 1825 366 2078 508 
Q 2331 650 2450 897 
Q 2541 1088 2541 1459 
L 2541 1666 
z
" transform="scale(0.015625)"/>
      <path id="ArialMT-63" d="M 2588 1216 
L 3141 1144 
Q 3050 572 2676 248 
Q 2303 -75 1759 -75 
Q 1078 -75 664 370 
Q 250 816 250 1647 
Q 250 2184 428 2587 
Q 606 2991 970 3192 
Q 1334 3394 1763 3394 
Q 2303 3394 2647 3120 
Q 2991 2847 3088 2344 
L 2541 2259 
Q 2463 2594 2264 2762 
Q 2066 2931 1784 2931 
Q 1359 2931 1093 2626 
Q 828 2322 828 1663 
Q 828 994 1084 691 
Q 1341 388 1753 388 
Q 2084 388 2306 591 
Q 2528 794 2588 1216 
z
" transform="scale(0.015625)"/>
      <path id="ArialMT-6d" d="M 422 0 
L 422 3319 
L 925 3319 
L 925 2853 
Q 1081 3097 1340 3245 
Q 1600 3394 1931 3394 
Q 2300 3394 2536 3241 
Q 2772 3088 2869 2813 
Q 3263 3394 3894 3394 
Q 4388 3394 4653 3120 
Q 4919 2847 4919 2278 
L 4919 0 
L 4359 0 
L 4359 2091 
Q 4359 2428 4304 2576 
Q 4250 2725 4106 2815 
Q 3963 2906 3769 2906 
Q 3419 2906 3187 2673 
Q 2956 2441 2956 1928 
L 2956 0 
L 2394 0 
L 2394 2156 
Q 2394 2531 2256 2718 
Q 2119 2906 1806 2906 
Q 1569 2906 1367 2781 
Q 1166 2656 1075 2415 
Q 984 2175 984 1722 
L 984 0 
L 422 0 
z
" transform="scale(0.015625)"/>
      <path id="ArialMT-74" d="M 1650 503 
L 1731 6 
Q 1494 -44 1306 -44 
Q 1000 -44 831 53 
Q 663 150 594 308 
Q 525 466 525 972 
L 525 2881 
L 113 2881 
L 113 3319 
L 525 3319 
L 525 4141 
L 1084 4478 
L 1084 3319 
L 1650 3319 
L 1650 2881 
L 1084 2881 
L 1084 941 
Q 1084 700 1114 631 
Q 1144 563 1211 522 
Q 1278 481 1403 481 
Q 1497 481 1650 503 
z
" transform="scale(0.015625)"/>
     </defs>
     <use xlink:href="#ArialMT-6e"/>
     <use xlink:href="#ArialMT-65" x="55.615234"/>
     <use xlink:href="#ArialMT-65" x="111.230469"/>
     <use xlink:href="#ArialMT-64" x="166.845703"/>
     <use xlink:href="#ArialMT-6c" x="222.460938"/>
     <use xlink:href="#ArialMT-65" x="244.677734"/>
     <use xlink:href="#ArialMT-5f" x="300.292969"/>
     <use xlink:href="#ArialMT-64" x="355.908203"/>
     <use xlink:href="#ArialMT-69" x="411.523438"/>
     <use xlink:href="#ArialMT-73" x="433.740234"/>
     <use xlink:href="#ArialMT-70" x="483.740234"/>
     <use xlink:href="#ArialMT-6c" x="539.355469"/>
     <use xlink:href="#ArialMT-61" x="561.572266"/>
     <use xlink:href="#ArialMT-63" x="617.1875"/>
     <use xlink:href="#ArialMT-65" x="667.1875"/>
     <use xlink:href="#ArialMT-6d" x="722.802734"/>
     <use xlink:href="#ArialMT-65" x="806.103516"/>
     <use xlink:href="#ArialMT-6e" x="861.71875"/>
     <use xlink:href="#ArialMT-74" x="917.333984"/>
     <use xlink:href="#ArialMT-5f" x="945.117188"/>
     <use xlink:href="#ArialMT-6d" x="1000.732422"/>
    </g>
   </g>
  </g>
  <g id="axes_2">
   <g id="patch_24">
    <path d="M 184.608 192.164125 
L 351.648 192.164125 
L 351.648 51.1485 
L 184.608 51.1485 
z
" style="fill: #ffffff"/>
   </g>
   <g id="matplotlib.axis_3">
    <g id="xtick_3">
     <g id="line2d_3">
      <g>
       <use xlink:href="#m574faf692b" x="216.372442" y="192.164125" style="fill: #262626; stroke: #262626"/>
      </g>
     </g>
     <g id="text_4">
      <!-- −50 -->
      <g style="fill: #262626" transform="translate(208.908942 206.763) scale(0.088 -0.088)">
       <defs>
        <path id="ArialMT-35" d="M 266 1200 
L 856 1250 
Q 922 819 1161 601 
Q 1400 384 1738 384 
Q 2144 384 2425 690 
Q 2706 997 2706 1503 
Q 2706 1984 2436 2262 
Q 2166 2541 1728 2541 
Q 1456 2541 1237 2417 
Q 1019 2294 894 2097 
L 366 2166 
L 809 4519 
L 3088 4519 
L 3088 3981 
L 1259 3981 
L 1013 2750 
Q 1425 3038 1878 3038 
Q 2478 3038 2890 2622 
Q 3303 2206 3303 1553 
Q 3303 931 2941 478 
Q 2500 -78 1738 -78 
Q 1113 -78 717 272 
Q 322 622 266 1200 
z
" transform="scale(0.015625)"/>
       </defs>
       <use xlink:href="#ArialMT-2212"/>
       <use xlink:href="#ArialMT-35" x="58.398438"/>
       <use xlink:href="#ArialMT-30" x="114.013672"/>
      </g>
     </g>
    </g>
    <g id="xtick_4">
     <g id="line2d_4">
      <g>
       <use xlink:href="#m574faf692b" x="284.977063" y="192.164125" style="fill: #262626; stroke: #262626"/>
      </g>
     </g>
     <g id="text_5">
      <!-- 0 -->
      <g style="fill: #262626" transform="translate(282.530251 206.763) scale(0.088 -0.088)">
       <use xlink:href="#ArialMT-30"/>
      </g>
     </g>
    </g>
   </g>
   <g id="matplotlib.axis_4"/>
   <g id="patch_25">
    <path d="M 192.200727 192.164125 
L 199.793455 192.164125 
L 199.793455 191.668551 
L 192.200727 191.668551 
z
" clip-path="url(#pf648661b7a)" style="fill: #1f77b4; stroke: #ffffff; stroke-width: 0.8; stroke-linejoin: miter"/>
   </g>
   <g id="patch_26">
    <path d="M 199.793455 192.164125 
L 207.386182 192.164125 
L 207.386182 192.164125 
L 199.793455 192.164125 
z
" clip-path="url(#pf648661b7a)" style="fill: #1f77b4; stroke: #ffffff; stroke-width: 0.8; stroke-linejoin: miter"/>
   </g>
   <g id="patch_27">
    <path d="M 207.386182 192.164125 
L 214.978909 192.164125 
L 214.978909 192.164125 
L 207.386182 192.164125 
z
" clip-path="url(#pf648661b7a)" style="fill: #1f77b4; stroke: #ffffff; stroke-width: 0.8; stroke-linejoin: miter"/>
   </g>
   <g id="patch_28">
    <path d="M 214.978909 192.164125 
L 222.571636 192.164125 
L 222.571636 192.164125 
L 214.978909 192.164125 
z
" clip-path="url(#pf648661b7a)" style="fill: #1f77b4; stroke: #ffffff; stroke-width: 0.8; stroke-linejoin: miter"/>
   </g>
   <g id="patch_29">
    <path d="M 222.571636 192.164125 
L 230.164364 192.164125 
L 230.164364 192.164125 
L 222.571636 192.164125 
z
" clip-path="url(#pf648661b7a)" style="fill: #1f77b4; stroke: #ffffff; stroke-width: 0.8; stroke-linejoin: miter"/>
   </g>
   <g id="patch_30">
    <path d="M 230.164364 192.164125 
L 237.757091 192.164125 
L 237.757091 192.164125 
L 230.164364 192.164125 
z
" clip-path="url(#pf648661b7a)" style="fill: #1f77b4; stroke: #ffffff; stroke-width: 0.8; stroke-linejoin: miter"/>
   </g>
   <g id="patch_31">
    <path d="M 237.757091 192.164125 
L 245.349818 192.164125 
L 245.349818 191.172977 
L 237.757091 191.172977 
z
" clip-path="url(#pf648661b7a)" style="fill: #1f77b4; stroke: #ffffff; stroke-width: 0.8; stroke-linejoin: miter"/>
   </g>
   <g id="patch_32">
    <path d="M 245.349818 192.164125 
L 252.942545 192.164125 
L 252.942545 191.668551 
L 245.349818 191.668551 
z
" clip-path="url(#pf648661b7a)" style="fill: #1f77b4; stroke: #ffffff; stroke-width: 0.8; stroke-linejoin: miter"/>
   </g>
   <g id="patch_33">
    <path d="M 252.942545 192.164125 
L 260.535273 192.164125 
L 260.535273 190.181828 
L 252.942545 190.181828 
z
" clip-path="url(#pf648661b7a)" style="fill: #1f77b4; stroke: #ffffff; stroke-width: 0.8; stroke-linejoin: miter"/>
   </g>
   <g id="patch_34">
    <path d="M 260.535273 192.164125 
L 268.128 192.164125 
L 268.128 191.172977 
L 260.535273 191.172977 
z
" clip-path="url(#pf648661b7a)" style="fill: #1f77b4; stroke: #ffffff; stroke-width: 0.8; stroke-linejoin: miter"/>
   </g>
   <g id="patch_35">
    <path d="M 268.128 192.164125 
L 275.720727 192.164125 
L 275.720727 187.208383 
L 268.128 187.208383 
z
" clip-path="url(#pf648661b7a)" style="fill: #1f77b4; stroke: #ffffff; stroke-width: 0.8; stroke-linejoin: miter"/>
   </g>
   <g id="patch_36">
    <path d="M 275.720727 192.164125 
L 283.313455 192.164125 
L 283.313455 113.367835 
L 275.720727 113.367835 
z
" clip-path="url(#pf648661b7a)" style="fill: #1f77b4; stroke: #ffffff; stroke-width: 0.8; stroke-linejoin: miter"/>
   </g>
   <g id="patch_37">
    <path d="M 283.313455 192.164125 
L 290.906182 192.164125 
L 290.906182 57.86353 
L 283.313455 57.86353 
z
" clip-path="url(#pf648661b7a)" style="fill: #1f77b4; stroke: #ffffff; stroke-width: 0.8; stroke-linejoin: miter"/>
   </g>
   <g id="patch_38">
    <path d="M 290.906182 192.164125 
L 298.498909 192.164125 
L 298.498909 176.305752 
L 290.906182 176.305752 
z
" clip-path="url(#pf648661b7a)" style="fill: #1f77b4; stroke: #ffffff; stroke-width: 0.8; stroke-linejoin: miter"/>
   </g>
   <g id="patch_39">
    <path d="M 298.498909 192.164125 
L 306.091636 192.164125 
L 306.091636 187.208383 
L 298.498909 187.208383 
z
" clip-path="url(#pf648661b7a)" style="fill: #1f77b4; stroke: #ffffff; stroke-width: 0.8; stroke-linejoin: miter"/>
   </g>
   <g id="patch_40">
    <path d="M 306.091636 192.164125 
L 313.684364 192.164125 
L 313.684364 190.181828 
L 306.091636 190.181828 
z
" clip-path="url(#pf648661b7a)" style="fill: #1f77b4; stroke: #ffffff; stroke-width: 0.8; stroke-linejoin: miter"/>
   </g>
   <g id="patch_41">
    <path d="M 313.684364 192.164125 
L 321.277091 192.164125 
L 321.277091 191.668551 
L 313.684364 191.668551 
z
" clip-path="url(#pf648661b7a)" style="fill: #1f77b4; stroke: #ffffff; stroke-width: 0.8; stroke-linejoin: miter"/>
   </g>
   <g id="patch_42">
    <path d="M 321.277091 192.164125 
L 328.869818 192.164125 
L 328.869818 191.668551 
L 321.277091 191.668551 
z
" clip-path="url(#pf648661b7a)" style="fill: #1f77b4; stroke: #ffffff; stroke-width: 0.8; stroke-linejoin: miter"/>
   </g>
   <g id="patch_43">
    <path d="M 328.869818 192.164125 
L 336.462545 192.164125 
L 336.462545 192.164125 
L 328.869818 192.164125 
z
" clip-path="url(#pf648661b7a)" style="fill: #1f77b4; stroke: #ffffff; stroke-width: 0.8; stroke-linejoin: miter"/>
   </g>
   <g id="patch_44">
    <path d="M 336.462545 192.164125 
L 344.055273 192.164125 
L 344.055273 191.172977 
L 336.462545 191.172977 
z
" clip-path="url(#pf648661b7a)" style="fill: #1f77b4; stroke: #ffffff; stroke-width: 0.8; stroke-linejoin: miter"/>
   </g>
   <g id="patch_45">
    <path d="M 216.372442 192.164125 
L 284.977063 192.164125 
" style="fill: none; stroke: #262626; stroke-linejoin: miter; stroke-linecap: square"/>
   </g>
   <g id="text_6">
    <!-- injection_time_s -->
    <g style="fill: #262626" transform="translate(233.712 45.1485) scale(0.096 -0.096)">
     <defs>
      <path id="ArialMT-6a" d="M 419 3928 
L 419 4581 
L 981 4581 
L 981 3928 
L 419 3928 
z
M -294 -1288 
L -188 -809 
Q -19 -853 78 -853 
Q 250 -853 334 -739 
Q 419 -625 419 -169 
L 419 3319 
L 981 3319 
L 981 -181 
Q 981 -794 822 -1034 
Q 619 -1347 147 -1347 
Q -81 -1347 -294 -1288 
z
" transform="scale(0.015625)"/>
      <path id="ArialMT-6f" d="M 213 1659 
Q 213 2581 725 3025 
Q 1153 3394 1769 3394 
Q 2453 3394 2887 2945 
Q 3322 2497 3322 1706 
Q 3322 1066 3130 698 
Q 2938 331 2570 128 
Q 2203 -75 1769 -75 
Q 1072 -75 642 372 
Q 213 819 213 1659 
z
M 791 1659 
Q 791 1022 1069 705 
Q 1347 388 1769 388 
Q 2188 388 2466 706 
Q 2744 1025 2744 1678 
Q 2744 2294 2464 2611 
Q 2184 2928 1769 2928 
Q 1347 2928 1069 2612 
Q 791 2297 791 1659 
z
" transform="scale(0.015625)"/>
     </defs>
     <use xlink:href="#ArialMT-69"/>
     <use xlink:href="#ArialMT-6e" x="22.216797"/>
     <use xlink:href="#ArialMT-6a" x="77.832031"/>
     <use xlink:href="#ArialMT-65" x="100.048828"/>
     <use xlink:href="#ArialMT-63" x="155.664062"/>
     <use xlink:href="#ArialMT-74" x="205.664062"/>
     <use xlink:href="#ArialMT-69" x="233.447266"/>
     <use xlink:href="#ArialMT-6f" x="255.664062"/>
     <use xlink:href="#ArialMT-6e" x="311.279297"/>
     <use xlink:href="#ArialMT-5f" x="366.894531"/>
     <use xlink:href="#ArialMT-74" x="422.509766"/>
     <use xlink:href="#ArialMT-69" x="450.292969"/>
     <use xlink:href="#ArialMT-6d" x="472.509766"/>
     <use xlink:href="#ArialMT-65" x="555.810547"/>
     <use xlink:href="#ArialMT-5f" x="611.425781"/>
     <use xlink:href="#ArialMT-73" x="667.041016"/>
    </g>
   </g>
  </g>
  <g id="axes_3">
   <g id="patch_46">
    <path d="M 362.016 192.164125 
L 529.056 192.164125 
L 529.056 51.1485 
L 362.016 51.1485 
z
" style="fill: #ffffff"/>
   </g>
   <g id="matplotlib.axis_5">
    <g id="xtick_5">
     <g id="line2d_5">
      <g>
       <use xlink:href="#m574faf692b" x="414.606881" y="192.164125" style="fill: #262626; stroke: #262626"/>
      </g>
     </g>
     <g id="text_7">
      <!-- 0 -->
      <g style="fill: #262626" transform="translate(412.160068 206.763) scale(0.088 -0.088)">
       <use xlink:href="#ArialMT-30"/>
      </g>
     </g>
    </g>
    <g id="xtick_6">
     <g id="line2d_6">
      <g>
       <use xlink:href="#m574faf692b" x="495.876217" y="192.164125" style="fill: #262626; stroke: #262626"/>
      </g>
     </g>
     <g id="text_8">
      <!-- 20 -->
      <g style="fill: #262626" transform="translate(490.982592 206.763) scale(0.088 -0.088)">
       <defs>
        <path id="ArialMT-32" d="M 3222 541 
L 3222 0 
L 194 0 
Q 188 203 259 391 
Q 375 700 629 1000 
Q 884 1300 1366 1694 
Q 2113 2306 2375 2664 
Q 2638 3022 2638 3341 
Q 2638 3675 2398 3904 
Q 2159 4134 1775 4134 
Q 1369 4134 1125 3890 
Q 881 3647 878 3216 
L 300 3275 
Q 359 3922 746 4261 
Q 1134 4600 1788 4600 
Q 2447 4600 2831 4234 
Q 3216 3869 3216 3328 
Q 3216 3053 3103 2787 
Q 2991 2522 2730 2228 
Q 2469 1934 1863 1422 
Q 1356 997 1212 845 
Q 1069 694 975 541 
L 3222 541 
z
" transform="scale(0.015625)"/>
       </defs>
       <use xlink:href="#ArialMT-32"/>
       <use xlink:href="#ArialMT-30" x="55.615234"/>
      </g>
     </g>
    </g>
   </g>
   <g id="matplotlib.axis_6"/>
   <g id="patch_47">
    <path d="M 369.608727 192.164125 
L 377.201455 192.164125 
L 377.201455 191.308707 
L 369.608727 191.308707 
z
" clip-path="url(#p009d84ea2b)" style="fill: #1f77b4; stroke: #ffffff; stroke-width: 0.8; stroke-linejoin: miter"/>
   </g>
   <g id="patch_48">
    <path d="M 377.201455 192.164125 
L 384.794182 192.164125 
L 384.794182 188.742454 
L 377.201455 188.742454 
z
" clip-path="url(#p009d84ea2b)" style="fill: #1f77b4; stroke: #ffffff; stroke-width: 0.8; stroke-linejoin: miter"/>
   </g>
   <g id="patch_49">
    <path d="M 384.794182 192.164125 
L 392.386909 192.164125 
L 392.386909 181.899111 
L 384.794182 181.899111 
z
" clip-path="url(#p009d84ea2b)" style="fill: #1f77b4; stroke: #ffffff; stroke-width: 0.8; stroke-linejoin: miter"/>
   </g>
   <g id="patch_50">
    <path d="M 392.386909 192.164125 
L 399.979636 192.164125 
L 399.979636 175.911187 
L 392.386909 175.911187 
z
" clip-path="url(#p009d84ea2b)" style="fill: #1f77b4; stroke: #ffffff; stroke-width: 0.8; stroke-linejoin: miter"/>
   </g>
   <g id="patch_51">
    <path d="M 399.979636 192.164125 
L 407.572364 192.164125 
L 407.572364 142.549892 
L 399.979636 142.549892 
z
" clip-path="url(#p009d84ea2b)" style="fill: #1f77b4; stroke: #ffffff; stroke-width: 0.8; stroke-linejoin: miter"/>
   </g>
   <g id="patch_52">
    <path d="M 407.572364 192.164125 
L 415.165091 192.164125 
L 415.165091 57.86353 
L 407.572364 57.86353 
z
" clip-path="url(#p009d84ea2b)" style="fill: #1f77b4; stroke: #ffffff; stroke-width: 0.8; stroke-linejoin: miter"/>
   </g>
   <g id="patch_53">
    <path d="M 415.165091 192.164125 
L 422.757818 192.164125 
L 422.757818 72.405632 
L 415.165091 72.405632 
z
" clip-path="url(#p009d84ea2b)" style="fill: #1f77b4; stroke: #ffffff; stroke-width: 0.8; stroke-linejoin: miter"/>
   </g>
   <g id="patch_54">
    <path d="M 422.757818 192.164125 
L 430.350545 192.164125 
L 430.350545 128.863207 
L 422.757818 128.863207 
z
" clip-path="url(#p009d84ea2b)" style="fill: #1f77b4; stroke: #ffffff; stroke-width: 0.8; stroke-linejoin: miter"/>
   </g>
   <g id="patch_55">
    <path d="M 430.350545 192.164125 
L 437.943273 192.164125 
L 437.943273 175.055769 
L 430.350545 175.055769 
z
" clip-path="url(#p009d84ea2b)" style="fill: #1f77b4; stroke: #ffffff; stroke-width: 0.8; stroke-linejoin: miter"/>
   </g>
   <g id="patch_56">
    <path d="M 437.943273 192.164125 
L 445.536 192.164125 
L 445.536 185.320783 
L 437.943273 185.320783 
z
" clip-path="url(#p009d84ea2b)" style="fill: #1f77b4; stroke: #ffffff; stroke-width: 0.8; stroke-linejoin: miter"/>
   </g>
   <g id="patch_57">
    <path d="M 445.536 192.164125 
L 453.128727 192.164125 
L 453.128727 189.597872 
L 445.536 189.597872 
z
" clip-path="url(#p009d84ea2b)" style="fill: #1f77b4; stroke: #ffffff; stroke-width: 0.8; stroke-linejoin: miter"/>
   </g>
   <g id="patch_58">
    <path d="M 453.128727 192.164125 
L 460.721455 192.164125 
L 460.721455 191.308707 
L 453.128727 191.308707 
z
" clip-path="url(#p009d84ea2b)" style="fill: #1f77b4; stroke: #ffffff; stroke-width: 0.8; stroke-linejoin: miter"/>
   </g>
   <g id="patch_59">
    <path d="M 460.721455 192.164125 
L 468.314182 192.164125 
L 468.314182 192.164125 
L 460.721455 192.164125 
z
" clip-path="url(#p009d84ea2b)" style="fill: #1f77b4; stroke: #ffffff; stroke-width: 0.8; stroke-linejoin: miter"/>
   </g>
   <g id="patch_60">
    <path d="M 468.314182 192.164125 
L 475.906909 192.164125 
L 475.906909 192.164125 
L 468.314182 192.164125 
z
" clip-path="url(#p009d84ea2b)" style="fill: #1f77b4; stroke: #ffffff; stroke-width: 0.8; stroke-linejoin: miter"/>
   </g>
   <g id="patch_61">
    <path d="M 475.906909 192.164125 
L 483.499636 192.164125 
L 483.499636 192.164125 
L 475.906909 192.164125 
z
" clip-path="url(#p009d84ea2b)" style="fill: #1f77b4; stroke: #ffffff; stroke-width: 0.8; stroke-linejoin: miter"/>
   </g>
   <g id="patch_62">
    <path d="M 483.499636 192.164125 
L 491.092364 192.164125 
L 491.092364 190.453289 
L 483.499636 190.453289 
z
" clip-path="url(#p009d84ea2b)" style="fill: #1f77b4; stroke: #ffffff; stroke-width: 0.8; stroke-linejoin: miter"/>
   </g>
   <g id="patch_63">
    <path d="M 491.092364 192.164125 
L 498.685091 192.164125 
L 498.685091 192.164125 
L 491.092364 192.164125 
z
" clip-path="url(#p009d84ea2b)" style="fill: #1f77b4; stroke: #ffffff; stroke-width: 0.8; stroke-linejoin: miter"/>
   </g>
   <g id="patch_64">
    <path d="M 498.685091 192.164125 
L 506.277818 192.164125 
L 506.277818 192.164125 
L 498.685091 192.164125 
z
" clip-path="url(#p009d84ea2b)" style="fill: #1f77b4; stroke: #ffffff; stroke-width: 0.8; stroke-linejoin: miter"/>
   </g>
   <g id="patch_65">
    <path d="M 506.277818 192.164125 
L 513.870545 192.164125 
L 513.870545 192.164125 
L 506.277818 192.164125 
z
" clip-path="url(#p009d84ea2b)" style="fill: #1f77b4; stroke: #ffffff; stroke-width: 0.8; stroke-linejoin: miter"/>
   </g>
   <g id="patch_66">
    <path d="M 513.870545 192.164125 
L 521.463273 192.164125 
L 521.463273 191.308707 
L 513.870545 191.308707 
z
" clip-path="url(#p009d84ea2b)" style="fill: #1f77b4; stroke: #ffffff; stroke-width: 0.8; stroke-linejoin: miter"/>
   </g>
   <g id="patch_67">
    <path d="M 414.606881 192.164125 
L 495.876217 192.164125 
" style="fill: none; stroke: #262626; stroke-linejoin: miter; stroke-linecap: square"/>
   </g>
   <g id="text_9">
    <!-- max_acceleration_m_per_s2 -->
    <g style="fill: #262626" transform="translate(383.907 45.1485) scale(0.096 -0.096)">
     <defs>
      <path id="ArialMT-78" d="M 47 0 
L 1259 1725 
L 138 3319 
L 841 3319 
L 1350 2541 
Q 1494 2319 1581 2169 
Q 1719 2375 1834 2534 
L 2394 3319 
L 3066 3319 
L 1919 1756 
L 3153 0 
L 2463 0 
L 1781 1031 
L 1600 1309 
L 728 0 
L 47 0 
z
" transform="scale(0.015625)"/>
      <path id="ArialMT-72" d="M 416 0 
L 416 3319 
L 922 3319 
L 922 2816 
Q 1116 3169 1280 3281 
Q 1444 3394 1641 3394 
Q 1925 3394 2219 3213 
L 2025 2691 
Q 1819 2813 1613 2813 
Q 1428 2813 1281 2702 
Q 1134 2591 1072 2394 
Q 978 2094 978 1738 
L 978 0 
L 416 0 
z
" transform="scale(0.015625)"/>
     </defs>
     <use xlink:href="#ArialMT-6d"/>
     <use xlink:href="#ArialMT-61" x="83.300781"/>
     <use xlink:href="#ArialMT-78" x="138.916016"/>
     <use xlink:href="#ArialMT-5f" x="188.916016"/>
     <use xlink:href="#ArialMT-61" x="244.53125"/>
     <use xlink:href="#ArialMT-63" x="300.146484"/>
     <use xlink:href="#ArialMT-63" x="350.146484"/>
     <use xlink:href="#ArialMT-65" x="400.146484"/>
     <use xlink:href="#ArialMT-6c" x="455.761719"/>
     <use xlink:href="#ArialMT-65" x="477.978516"/>
     <use xlink:href="#ArialMT-72" x="533.59375"/>
     <use xlink:href="#ArialMT-61" x="566.894531"/>
     <use xlink:href="#ArialMT-74" x="622.509766"/>
     <use xlink:href="#ArialMT-69" x="650.292969"/>
     <use xlink:href="#ArialMT-6f" x="672.509766"/>
     <use xlink:href="#ArialMT-6e" x="728.125"/>
     <use xlink:href="#ArialMT-5f" x="783.740234"/>
     <use xlink:href="#ArialMT-6d" x="839.355469"/>
     <use xlink:href="#ArialMT-5f" x="922.65625"/>
     <use xlink:href="#ArialMT-70" x="978.271484"/>
     <use xlink:href="#ArialMT-65" x="1033.886719"/>
     <use xlink:href="#ArialMT-72" x="1089.501953"/>
     <use xlink:href="#ArialMT-5f" x="1122.802734"/>
     <use xlink:href="#ArialMT-73" x="1178.417969"/>
     <use xlink:href="#ArialMT-32" x="1228.417969"/>
    </g>
   </g>
  </g>
  <g id="axes_4">
   <g id="patch_68">
    <path d="M 539.424 192.164125 
L 706.464 192.164125 
L 706.464 51.1485 
L 539.424 51.1485 
z
" style="fill: #ffffff"/>
   </g>
   <g id="matplotlib.axis_7">
    <g id="xtick_7">
     <g id="line2d_7">
      <g>
       <use xlink:href="#m574faf692b" x="562.786189" y="192.164125" style="fill: #262626; stroke: #262626"/>
      </g>
     </g>
     <g id="text_10">
      <!-- −10 -->
      <g style="fill: #262626" transform="translate(555.322689 206.763) scale(0.088 -0.088)">
       <use xlink:href="#ArialMT-2212"/>
       <use xlink:href="#ArialMT-31" x="58.398438"/>
       <use xlink:href="#ArialMT-30" x="114.013672"/>
      </g>
     </g>
    </g>
    <g id="xtick_8">
     <g id="line2d_8">
      <g>
       <use xlink:href="#m574faf692b" x="617.2325" y="192.164125" style="fill: #262626; stroke: #262626"/>
      </g>
     </g>
     <g id="text_11">
      <!-- 0 -->
      <g style="fill: #262626" transform="translate(614.785687 206.763) scale(0.088 -0.088)">
       <use xlink:href="#ArialMT-30"/>
      </g>
     </g>
    </g>
    <g id="xtick_9">
     <g id="line2d_9">
      <g>
       <use xlink:href="#m574faf692b" x="671.678811" y="192.164125" style="fill: #262626; stroke: #262626"/>
      </g>
     </g>
     <g id="text_12">
      <!-- 10 -->
      <g style="fill: #262626" transform="translate(666.785186 206.763) scale(0.088 -0.088)">
       <use xlink:href="#ArialMT-31"/>
       <use xlink:href="#ArialMT-30" x="55.615234"/>
      </g>
     </g>
    </g>
   </g>
   <g id="matplotlib.axis_8"/>
   <g id="patch_69">
    <path d="M 547.016727 192.164125 
L 554.609455 192.164125 
L 554.609455 185.187471 
L 547.016727 185.187471 
z
" clip-path="url(#p21a5e09780)" style="fill: #1f77b4; stroke: #ffffff; stroke-width: 0.8; stroke-linejoin: miter"/>
   </g>
   <g id="patch_70">
    <path d="M 554.609455 192.164125 
L 562.202182 192.164125 
L 562.202182 186.931634 
L 554.609455 186.931634 
z
" clip-path="url(#p21a5e09780)" style="fill: #1f77b4; stroke: #ffffff; stroke-width: 0.8; stroke-linejoin: miter"/>
   </g>
   <g id="patch_71">
    <path d="M 562.202182 192.164125 
L 569.794909 192.164125 
L 569.794909 190.419961 
L 562.202182 190.419961 
z
" clip-path="url(#p21a5e09780)" style="fill: #1f77b4; stroke: #ffffff; stroke-width: 0.8; stroke-linejoin: miter"/>
   </g>
   <g id="patch_72">
    <path d="M 569.794909 192.164125 
L 577.387636 192.164125 
L 577.387636 186.931634 
L 569.794909 186.931634 
z
" clip-path="url(#p21a5e09780)" style="fill: #1f77b4; stroke: #ffffff; stroke-width: 0.8; stroke-linejoin: miter"/>
   </g>
   <g id="patch_73">
    <path d="M 577.387636 192.164125 
L 584.980364 192.164125 
L 584.980364 166.001671 
L 577.387636 166.001671 
z
" clip-path="url(#p21a5e09780)" style="fill: #1f77b4; stroke: #ffffff; stroke-width: 0.8; stroke-linejoin: miter"/>
   </g>
   <g id="patch_74">
    <path d="M 584.980364 192.164125 
L 592.573091 192.164125 
L 592.573091 152.048363 
L 584.980364 152.048363 
z
" clip-path="url(#p21a5e09780)" style="fill: #1f77b4; stroke: #ffffff; stroke-width: 0.8; stroke-linejoin: miter"/>
   </g>
   <g id="patch_75">
    <path d="M 592.573091 192.164125 
L 600.165818 192.164125 
L 600.165818 129.374236 
L 592.573091 129.374236 
z
" clip-path="url(#p21a5e09780)" style="fill: #1f77b4; stroke: #ffffff; stroke-width: 0.8; stroke-linejoin: miter"/>
   </g>
   <g id="patch_76">
    <path d="M 600.165818 192.164125 
L 607.758545 192.164125 
L 607.758545 64.840184 
L 600.165818 64.840184 
z
" clip-path="url(#p21a5e09780)" style="fill: #1f77b4; stroke: #ffffff; stroke-width: 0.8; stroke-linejoin: miter"/>
   </g>
   <g id="patch_77">
    <path d="M 607.758545 192.164125 
L 615.351273 192.164125 
L 615.351273 68.328511 
L 607.758545 68.328511 
z
" clip-path="url(#p21a5e09780)" style="fill: #1f77b4; stroke: #ffffff; stroke-width: 0.8; stroke-linejoin: miter"/>
   </g>
   <g id="patch_78">
    <path d="M 615.351273 192.164125 
L 622.944 192.164125 
L 622.944 57.86353 
L 615.351273 57.86353 
z
" clip-path="url(#p21a5e09780)" style="fill: #1f77b4; stroke: #ffffff; stroke-width: 0.8; stroke-linejoin: miter"/>
   </g>
   <g id="patch_79">
    <path d="M 622.944 192.164125 
L 630.536727 192.164125 
L 630.536727 61.351857 
L 622.944 61.351857 
z
" clip-path="url(#p21a5e09780)" style="fill: #1f77b4; stroke: #ffffff; stroke-width: 0.8; stroke-linejoin: miter"/>
   </g>
   <g id="patch_80">
    <path d="M 630.536727 192.164125 
L 638.129455 192.164125 
L 638.129455 110.188437 
L 630.536727 110.188437 
z
" clip-path="url(#p21a5e09780)" style="fill: #1f77b4; stroke: #ffffff; stroke-width: 0.8; stroke-linejoin: miter"/>
   </g>
   <g id="patch_81">
    <path d="M 638.129455 192.164125 
L 645.722182 192.164125 
L 645.722182 138.095054 
L 638.129455 138.095054 
z
" clip-path="url(#p21a5e09780)" style="fill: #1f77b4; stroke: #ffffff; stroke-width: 0.8; stroke-linejoin: miter"/>
   </g>
   <g id="patch_82">
    <path d="M 645.722182 192.164125 
L 653.314909 192.164125 
L 653.314909 160.769181 
L 645.722182 160.769181 
z
" clip-path="url(#p21a5e09780)" style="fill: #1f77b4; stroke: #ffffff; stroke-width: 0.8; stroke-linejoin: miter"/>
   </g>
   <g id="patch_83">
    <path d="M 653.314909 192.164125 
L 660.907636 192.164125 
L 660.907636 176.466653 
L 653.314909 176.466653 
z
" clip-path="url(#p21a5e09780)" style="fill: #1f77b4; stroke: #ffffff; stroke-width: 0.8; stroke-linejoin: miter"/>
   </g>
   <g id="patch_84">
    <path d="M 660.907636 192.164125 
L 668.500364 192.164125 
L 668.500364 178.210816 
L 660.907636 178.210816 
z
" clip-path="url(#p21a5e09780)" style="fill: #1f77b4; stroke: #ffffff; stroke-width: 0.8; stroke-linejoin: miter"/>
   </g>
   <g id="patch_85">
    <path d="M 668.500364 192.164125 
L 676.093091 192.164125 
L 676.093091 186.931634 
L 668.500364 186.931634 
z
" clip-path="url(#p21a5e09780)" style="fill: #1f77b4; stroke: #ffffff; stroke-width: 0.8; stroke-linejoin: miter"/>
   </g>
   <g id="patch_86">
    <path d="M 676.093091 192.164125 
L 683.685818 192.164125 
L 683.685818 190.419961 
L 676.093091 190.419961 
z
" clip-path="url(#p21a5e09780)" style="fill: #1f77b4; stroke: #ffffff; stroke-width: 0.8; stroke-linejoin: miter"/>
   </g>
   <g id="patch_87">
    <path d="M 683.685818 192.164125 
L 691.278545 192.164125 
L 691.278545 192.164125 
L 683.685818 192.164125 
z
" clip-path="url(#p21a5e09780)" style="fill: #1f77b4; stroke: #ffffff; stroke-width: 0.8; stroke-linejoin: miter"/>
   </g>
   <g id="patch_88">
    <path d="M 691.278545 192.164125 
L 698.871273 192.164125 
L 698.871273 188.675798 
L 691.278545 188.675798 
z
" clip-path="url(#p21a5e09780)" style="fill: #1f77b4; stroke: #ffffff; stroke-width: 0.8; stroke-linejoin: miter"/>
   </g>
   <g id="patch_89">
    <path d="M 562.786189 192.164125 
L 671.678811 192.164125 
" style="fill: none; stroke: #262626; stroke-linejoin: miter; stroke-linecap: square"/>
   </g>
   <g id="text_13">
    <!-- max_deceleration_m_per_s2 -->
    <g style="fill: #262626" transform="translate(561.04575 45.1485) scale(0.096 -0.096)">
     <use xlink:href="#ArialMT-6d"/>
     <use xlink:href="#ArialMT-61" x="83.300781"/>
     <use xlink:href="#ArialMT-78" x="138.916016"/>
     <use xlink:href="#ArialMT-5f" x="188.916016"/>
     <use xlink:href="#ArialMT-64" x="244.53125"/>
     <use xlink:href="#ArialMT-65" x="300.146484"/>
     <use xlink:href="#ArialMT-63" x="355.761719"/>
     <use xlink:href="#ArialMT-65" x="405.761719"/>
     <use xlink:href="#ArialMT-6c" x="461.376953"/>
     <use xlink:href="#ArialMT-65" x="483.59375"/>
     <use xlink:href="#ArialMT-72" x="539.208984"/>
     <use xlink:href="#ArialMT-61" x="572.509766"/>
     <use xlink:href="#ArialMT-74" x="628.125"/>
     <use xlink:href="#ArialMT-69" x="655.908203"/>
     <use xlink:href="#ArialMT-6f" x="678.125"/>
     <use xlink:href="#ArialMT-6e" x="733.740234"/>
     <use xlink:href="#ArialMT-5f" x="789.355469"/>
     <use xlink:href="#ArialMT-6d" x="844.970703"/>
     <use xlink:href="#ArialMT-5f" x="928.271484"/>
     <use xlink:href="#ArialMT-70" x="983.886719"/>
     <use xlink:href="#ArialMT-65" x="1039.501953"/>
     <use xlink:href="#ArialMT-72" x="1095.117188"/>
     <use xlink:href="#ArialMT-5f" x="1128.417969"/>
     <use xlink:href="#ArialMT-73" x="1184.033203"/>
     <use xlink:href="#ArialMT-32" x="1234.033203"/>
    </g>
   </g>
  </g>
  <g id="text_14">
   <!-- Standardized errors -->
   <g style="fill: #262626" transform="translate(286.5795 18.6525) scale(0.16 -0.16)">
    <defs>
     <path id="ArialMT-53" d="M 288 1472 
L 859 1522 
Q 900 1178 1048 958 
Q 1197 738 1509 602 
Q 1822 466 2213 466 
Q 2559 466 2825 569 
Q 3091 672 3220 851 
Q 3350 1031 3350 1244 
Q 3350 1459 3225 1620 
Q 3100 1781 2813 1891 
Q 2628 1963 1997 2114 
Q 1366 2266 1113 2400 
Q 784 2572 623 2826 
Q 463 3081 463 3397 
Q 463 3744 659 4045 
Q 856 4347 1234 4503 
Q 1613 4659 2075 4659 
Q 2584 4659 2973 4495 
Q 3363 4331 3572 4012 
Q 3781 3694 3797 3291 
L 3216 3247 
Q 3169 3681 2898 3903 
Q 2628 4125 2100 4125 
Q 1550 4125 1298 3923 
Q 1047 3722 1047 3438 
Q 1047 3191 1225 3031 
Q 1400 2872 2139 2705 
Q 2878 2538 3153 2413 
Q 3553 2228 3743 1945 
Q 3934 1663 3934 1294 
Q 3934 928 3725 604 
Q 3516 281 3123 101 
Q 2731 -78 2241 -78 
Q 1619 -78 1198 103 
Q 778 284 539 648 
Q 300 1013 288 1472 
z
" transform="scale(0.015625)"/>
     <path id="ArialMT-7a" d="M 125 0 
L 125 456 
L 2238 2881 
Q 1878 2863 1603 2863 
L 250 2863 
L 250 3319 
L 2963 3319 
L 2963 2947 
L 1166 841 
L 819 456 
Q 1197 484 1528 484 
L 3063 484 
L 3063 0 
L 125 0 
z
" transform="scale(0.015625)"/>
     <path id="ArialMT-20" transform="scale(0.015625)"/>
    </defs>
    <use xlink:href="#ArialMT-53"/>
    <use xlink:href="#ArialMT-74" x="66.699219"/>
    <use xlink:href="#ArialMT-61" x="94.482422"/>
    <use xlink:href="#ArialMT-6e" x="150.097656"/>
    <use xlink:href="#ArialMT-64" x="205.712891"/>
    <use xlink:href="#ArialMT-61" x="261.328125"/>
    <use xlink:href="#ArialMT-72" x="316.943359"/>
    <use xlink:href="#ArialMT-64" x="350.244141"/>
    <use xlink:href="#ArialMT-69" x="405.859375"/>
    <use xlink:href="#ArialMT-7a" x="428.076172"/>
    <use xlink:href="#ArialMT-65" x="478.076172"/>
    <use xlink:href="#ArialMT-64" x="533.691406"/>
    <use xlink:href="#ArialMT-20" x="589.306641"/>
    <use xlink:href="#ArialMT-65" x="617.089844"/>
    <use xlink:href="#ArialMT-72" x="672.705078"/>
    <use xlink:href="#ArialMT-72" x="706.005859"/>
    <use xlink:href="#ArialMT-6f" x="739.306641"/>
    <use xlink:href="#ArialMT-72" x="794.921875"/>
    <use xlink:href="#ArialMT-73" x="828.222656"/>
   </g>
  </g>
 </g>
 <defs>
  <clipPath id="p1d53eb3cb7">
   <rect x="7.2" y="51.1485" width="167.04" height="141.015625"/>
  </clipPath>
  <clipPath id="pf648661b7a">
   <rect x="184.608" y="51.1485" width="167.04" height="141.015625"/>
  </clipPath>
  <clipPath id="p009d84ea2b">
   <rect x="362.016" y="51.1485" width="167.04" height="141.015625"/>
  </clipPath>
  <clipPath id="p21a5e09780">
   <rect x="539.424" y="51.1485" width="167.04" height="141.015625"/>
  </clipPath>
 </defs>
</svg>