<?xml version="1.0" encoding="utf-8" standalone="no"?>
<!DOCTYPE svg PUBLIC "-//W3C//DTD SVG 1.1//EN"
  "http://www.w3.org/Graphics/SVG/1.1/DTD/svg11.dtd">
<svg xmlns:xlink="http://www.w3.org/1999/xlink" width="414.864875pt" height="322.539375pt" viewBox="0 0 414.864875 322.539375" xmlns="http://www.w3.org/2000/svg" version="1.1">
 <metadata>
  <rdf:RDF xmlns:dc="http://purl.org/dc/elements/1.1/" xmlns:cc="http://creativecommons.org/ns#" xmlns:rdf="http://www.w3.org/1999/02/22-rdf-syntax-ns#">
   <cc:Work>
    <dc:type rdf:resource="http://purl.org/dc/dcmitype/StillImage"/>
    <dc:date>2024-12-17T15:09:36.041123</dc:date>
    <dc:format>image/svg+xml</dc:format>
    <dc:creator>
     <cc:Agent>
      <dc:title>Matplotlib v3.9.0, https://matplotlib.org/</dc:title>
     </cc:Agent>
    </dc:creator>
   </cc:Work>
  </rdf:RDF>
 </metadata>
 <defs>
  <style type="text/css">*{stroke-linejoin: round; stroke-linecap: butt}</style>
 </defs>
 <g id="figure_1">
  <g id="patch_1">
   <path d="M 0 322.539375 
L 414.864875 322.539375 
L 414.864875 0 
L 0 0 
z
" style="fill: #ffffff"/>
  </g>
  <g id="axes_1">
   <g id="patch_2">
    <path d="M 50.544875 286.212 
L 407.664875 286.212 
L 407.664875 20.1 
L 50.544875 20.1 
z
" style="fill: #ffffff"/>
   </g>
   <g id="matplotlib.axis_1">
    <g id="xtick_1">
     <g id="line2d_1">
      <defs>
       <path id="me476e36020" d="M 0 0 
L 0 4.8 
" style="stroke: #262626"/>
      </defs>
      <g>
       <use xlink:href="#me476e36020" x="66.777602" y="286.212" style="fill: #262626; stroke: #262626"/>
      </g>
     </g>
     <g id="text_1">
      <!-- 0.0 -->
      <g style="fill: #262626" transform="translate(60.661602 300.810875) scale(0.088 -0.088)">
       <defs>
        <path id="ArialMT-30" d="M 266 2259 
Q 266 3072 433 3567 
Q 600 4063 929 4331 
Q 1259 4600 1759 4600 
Q 2128 4600 2406 4451 
Q 2684 4303 2865 4023 
Q 3047 3744 3150 3342 
Q 3253 2941 3253 2259 
Q 3253 1453 3087 958 
Q 2922 463 2592 192 
Q 2263 -78 1759 -78 
Q 1097 -78 719 397 
Q 266 969 266 2259 
z
M 844 2259 
Q 844 1131 1108 757 
Q 1372 384 1759 384 
Q 2147 384 2411 759 
Q 2675 1134 2675 2259 
Q 2675 3391 2411 3762 
Q 2147 4134 1753 4134 
Q 1366 4134 1134 3806 
Q 844 3388 844 2259 
z
" transform="scale(0.015625)"/>
        <path id="ArialMT-2e" d="M 581 0 
L 581 641 
L 1222 641 
L 1222 0 
L 581 0 
z
" transform="scale(0.015625)"/>
       </defs>
       <use xlink:href="#ArialMT-30"/>
       <use xlink:href="#ArialMT-2e" x="55.615234"/>
       <use xlink:href="#ArialMT-30" x="83.398438"/>
      </g>
     </g>
    </g>
    <g id="xtick_2">
     <g id="line2d_2">
      <g>
       <use xlink:href="#me476e36020" x="131.708511" y="286.212" style="fill: #262626; stroke: #262626"/>
      </g>
     </g>
     <g id="text_2">
      <!-- 0.2 -->
      <g style="fill: #262626" transform="translate(125.592511 300.810875) scale(0.088 -0.088)">
       <defs>
        <path id="ArialMT-32" d="M 3222 541 
L 3222 0 
L 194 0 
Q 188 203 259 391 
Q 375 700 629 1000 
Q 884 1300 1366 1694 
Q 2113 2306 2375 2664 
Q 2638 3022 2638 3341 
Q 2638 3675 2398 3904 
Q 2159 4134 1775 4134 
Q 1369 4134 1125 3890 
Q 881 3647 878 3216 
L 300 3275 
Q 359 3922 746 4261 
Q 1134 4600 1788 4600 
Q 2447 4600 2831 4234 
Q 3216 3869 3216 3328 
Q 3216 3053 3103 2787 
Q 2991 2522 2730 2228 
Q 2469 1934 1863 1422 
Q 1356 997 1212 845 
Q 1069 694 975 541 
L 3222 541 
z
" transform="scale(0.015625)"/>
       </defs>
       <use xlink:href="#ArialMT-30"/>
       <use xlink:href="#ArialMT-2e" x="55.615234"/>
       <use xlink:href="#ArialMT-32" x="83.398438"/>
      </g>
     </g>
    </g>
    <g id="xtick_3">
     <g id="line2d_3">
      <g>
       <use xlink:href="#me476e36020" x="196.63942" y="286.212" style="fill: #262626; stroke: #262626"/>
      </g>
     </g>
     <g id="text_3">
      <!-- 0.4 -->
      <g style="fill: #262626" transform="translate(190.52342 300.810875) scale(0.088 -0.088)">
       <defs>
        <path id="ArialMT-34" d="M 2069 0 
L 2069 1097 
L 81 1097 
L 81 1613 
L 2172 4581 
L 2631 4581 
L 2631 1613 
L 3250 1613 
L 3250 1097 
L 2631 1097 
L 2631 0 
L 2069 0 
z
M 2069 1613 
L 2069 3678 
L 634 1613 
L 2069 1613 
z
" transform="scale(0.015625)"/>
       </defs>
       <use xlink:href="#ArialMT-30"/>
       <use xlink:href="#ArialMT-2e" x="55.615234"/>
       <use xlink:href="#ArialMT-34" x="83.398438"/>
      </g>
     </g>
    </g>
    <g id="xtick_4">
     <g id="line2d_4">
      <g>
       <use xlink:href="#me476e36020" x="261.57033" y="286.212" style="fill: #262626; stroke: #262626"/>
      </g>
     </g>
     <g id="text_4">
      <!-- 0.6 -->
      <g style="fill: #262626" transform="translate(255.45433 300.810875) scale(0.088 -0.088)">
       <defs>
        <path id="ArialMT-36" d="M 3184 3459 
L 2625 3416 
Q 2550 3747 2413 3897 
Q 2184 4138 1850 4138 
Q 1581 4138 1378 3988 
Q 1113 3794 959 3422 
Q 806 3050 800 2363 
Q 1003 2672 1297 2822 
Q 1591 2972 1913 2972 
Q 2475 2972 2870 2558 
Q 3266 2144 3266 1488 
Q 3266 1056 3080 686 
Q 2894 316 2569 119 
Q 2244 -78 1831 -78 
Q 1128 -78 684 439 
Q 241 956 241 2144 
Q 241 3472 731 4075 
Q 1159 4600 1884 4600 
Q 2425 4600 2770 4297 
Q 3116 3994 3184 3459 
z
M 888 1484 
Q 888 1194 1011 928 
Q 1134 663 1356 523 
Q 1578 384 1822 384 
Q 2178 384 2434 671 
Q 2691 959 2691 1453 
Q 2691 1928 2437 2201 
Q 2184 2475 1800 2475 
Q 1419 2475 1153 2201 
Q 888 1928 888 1484 
z
" transform="scale(0.015625)"/>
       </defs>
       <use xlink:href="#ArialMT-30"/>
       <use xlink:href="#ArialMT-2e" x="55.615234"/>
       <use xlink:href="#ArialMT-36" x="83.398438"/>
      </g>
     </g>
    </g>
    <g id="xtick_5">
     <g id="line2d_5">
      <g>
       <use xlink:href="#me476e36020" x="326.501239" y="286.212" style="fill: #262626; stroke: #262626"/>
      </g>
     </g>
     <g id="text_5">
      <!-- 0.8 -->
      <g style="fill: #262626" transform="translate(320.385239 300.810875) scale(0.088 -0.088)">
       <defs>
        <path id="ArialMT-38" d="M 1131 2484 
Q 781 2613 612 2850 
Q 444 3088 444 3419 
Q 444 3919 803 4259 
Q 1163 4600 1759 4600 
Q 2359 4600 2725 4251 
Q 3091 3903 3091 3403 
Q 3091 3084 2923 2848 
Q 2756 2613 2416 2484 
Q 2838 2347 3058 2040 
Q 3278 1734 3278 1309 
Q 3278 722 2862 322 
Q 2447 -78 1769 -78 
Q 1091 -78 675 323 
Q 259 725 259 1325 
Q 259 1772 486 2073 
Q 713 2375 1131 2484 
z
M 1019 3438 
Q 1019 3113 1228 2906 
Q 1438 2700 1772 2700 
Q 2097 2700 2305 2904 
Q 2513 3109 2513 3406 
Q 2513 3716 2298 3927 
Q 2084 4138 1766 4138 
Q 1444 4138 1231 3931 
Q 1019 3725 1019 3438 
z
M 838 1322 
Q 838 1081 952 856 
Q 1066 631 1291 507 
Q 1516 384 1775 384 
Q 2178 384 2440 643 
Q 2703 903 2703 1303 
Q 2703 1709 2433 1975 
Q 2163 2241 1756 2241 
Q 1359 2241 1098 1978 
Q 838 1716 838 1322 
z
" transform="scale(0.015625)"/>
       </defs>
       <use xlink:href="#ArialMT-30"/>
       <use xlink:href="#ArialMT-2e" x="55.615234"/>
       <use xlink:href="#ArialMT-38" x="83.398438"/>
      </g>
     </g>
    </g>
    <g id="xtick_6">
     <g id="line2d_6">
      <g>
       <use xlink:href="#me476e36020" x="391.432148" y="286.212" style="fill: #262626; stroke: #262626"/>
      </g>
     </g>
     <g id="text_6">
      <!-- 1.0 -->
      <g style="fill: #262626" transform="translate(385.316148 300.810875) scale(0.088 -0.088)">
       <defs>
        <path id="ArialMT-31" d="M 2384 0 
L 1822 0 
L 1822 3584 
Q 1619 3391 1289 3197 
Q 959 3003 697 2906 
L 697 3450 
Q 1169 3672 1522 3987 
Q 1875 4303 2022 4600 
L 2384 4600 
L 2384 0 
z
" transform="scale(0.015625)"/>
       </defs>
       <use xlink:href="#ArialMT-31"/>
       <use xlink:href="#ArialMT-2e" x="55.615234"/>
       <use xlink:href="#ArialMT-30" x="83.398438"/>
      </g>
     </g>
    </g>
    <g id="text_7">
     <!-- Time -->
     <g style="fill: #262626" transform="translate(218.619125 313.431375) scale(0.096 -0.096)">
      <defs>
       <path id="ArialMT-54" d="M 1659 0 
L 1659 4041 
L 150 4041 
L 150 4581 
L 3781 4581 
L 3781 4041 
L 2266 4041 
L 2266 0 
L 1659 0 
z
" transform="scale(0.015625)"/>
       <path id="ArialMT-69" d="M 425 3934 
L 425 4581 
L 988 4581 
L 988 3934 
L 425 3934 
z
M 425 0 
L 425 3319 
L 988 3319 
L 988 0 
L 425 0 
z
" transform="scale(0.015625)"/>
       <path id="ArialMT-6d" d="M 422 0 
L 422 3319 
L 925 3319 
L 925 2853 
Q 1081 3097 1340 3245 
Q 1600 3394 1931 3394 
Q 2300 3394 2536 3241 
Q 2772 3088 2869 2813 
Q 3263 3394 3894 3394 
Q 4388 3394 4653 3120 
Q 4919 2847 4919 2278 
L 4919 0 
L 4359 0 
L 4359 2091 
Q 4359 2428 4304 2576 
Q 4250 2725 4106 2815 
Q 3963 2906 3769 2906 
Q 3419 2906 3187 2673 
Q 2956 2441 2956 1928 
L 2956 0 
L 2394 0 
L 2394 2156 
Q 2394 2531 2256 2718 
Q 2119 2906 1806 2906 
Q 1569 2906 1367 2781 
Q 1166 2656 1075 2415 
Q 984 2175 984 1722 
L 984 0 
L 422 0 
z
" transform="scale(0.015625)"/>
       <path id="ArialMT-65" d="M 2694 1069 
L 3275 997 
Q 3138 488 2766 206 
Q 2394 -75 1816 -75 
Q 1088 -75 661 373 
Q 234 822 234 1631 
Q 234 2469 665 2931 
Q 1097 3394 1784 3394 
Q 2450 3394 2872 2941 
Q 3294 2488 3294 1666 
Q 3294 1616 3291 1516 
L 816 1516 
Q 847 969 1125 678 
Q 1403 388 1819 388 
Q 2128 388 2347 550 
Q 2566 713 2694 1069 
z
M 847 1978 
L 2700 1978 
Q 2663 2397 2488 2606 
Q 2219 2931 1791 2931 
Q 1403 2931 1139 2672 
Q 875 2413 847 1978 
z
" transform="scale(0.015625)"/>
      </defs>
      <use xlink:href="#ArialMT-54"/>
      <use xlink:href="#ArialMT-69" x="57.333984"/>
      <use xlink:href="#ArialMT-6d" x="79.550781"/>
      <use xlink:href="#ArialMT-65" x="162.851562"/>
     </g>
    </g>
   </g>
   <g id="matplotlib.axis_2">
    <g id="ytick_1">
     <g id="line2d_7">
      <defs>
       <path id="me19835113c" d="M 0 0 
L -4.8 0 
" style="stroke: #262626"/>
      </defs>
      <g>
       <use xlink:href="#me19835113c" x="50.544875" y="283.891305" style="fill: #262626; stroke: #262626"/>
      </g>
     </g>
     <g id="text_8">
      <!-- −0.05 -->
      <g style="fill: #262626" transform="translate(19.9795 287.040743) scale(0.088 -0.088)">
       <defs>
        <path id="ArialMT-2212" d="M 3381 1997 
L 356 1997 
L 356 2522 
L 3381 2522 
L 3381 1997 
z
" transform="scale(0.015625)"/>
        <path id="ArialMT-35" d="M 266 1200 
L 856 1250 
Q 922 819 1161 601 
Q 1400 384 1738 384 
Q 2144 384 2425 690 
Q 2706 997 2706 1503 
Q 2706 1984 2436 2262 
Q 2166 2541 1728 2541 
Q 1456 2541 1237 2417 
Q 1019 2294 894 2097 
L 366 2166 
L 809 4519 
L 3088 4519 
L 3088 3981 
L 1259 3981 
L 1013 2750 
Q 1425 3038 1878 3038 
Q 2478 3038 2890 2622 
Q 3303 2206 3303 1553 
Q 3303 931 2941 478 
Q 2500 -78 1738 -78 
Q 1113 -78 717 272 
Q 322 622 266 1200 
z
" transform="scale(0.015625)"/>
       </defs>
       <use xlink:href="#ArialMT-2212"/>
       <use xlink:href="#ArialMT-30" x="58.398438"/>
       <use xlink:href="#ArialMT-2e" x="114.013672"/>
       <use xlink:href="#ArialMT-30" x="141.796875"/>
       <use xlink:href="#ArialMT-35" x="197.412109"/>
      </g>
     </g>
    </g>
    <g id="ytick_2">
     <g id="line2d_8">
      <g>
       <use xlink:href="#me19835113c" x="50.544875" y="243.577887" style="fill: #262626; stroke: #262626"/>
      </g>
     </g>
     <g id="text_9">
      <!-- 0.00 -->
      <g style="fill: #262626" transform="translate(25.11925 246.727324) scale(0.088 -0.088)">
       <use xlink:href="#ArialMT-30"/>
       <use xlink:href="#ArialMT-2e" x="55.615234"/>
       <use xlink:href="#ArialMT-30" x="83.398438"/>
       <use xlink:href="#ArialMT-30" x="139.013672"/>
      </g>
     </g>
    </g>
    <g id="ytick_3">
     <g id="line2d_9">
      <g>
       <use xlink:href="#me19835113c" x="50.544875" y="203.264468" style="fill: #262626; stroke: #262626"/>
      </g>
     </g>
     <g id="text_10">
      <!-- 0.05 -->
      <g style="fill: #262626" transform="translate(25.11925 206.413905) scale(0.088 -0.088)">
       <use xlink:href="#ArialMT-30"/>
       <use xlink:href="#ArialMT-2e" x="55.615234"/>
       <use xlink:href="#ArialMT-30" x="83.398438"/>
       <use xlink:href="#ArialMT-35" x="139.013672"/>
      </g>
     </g>
    </g>
    <g id="ytick_4">
     <g id="line2d_10">
      <g>
       <use xlink:href="#me19835113c" x="50.544875" y="162.951049" style="fill: #262626; stroke: #262626"/>
      </g>
     </g>
     <g id="text_11">
      <!-- 0.10 -->
      <g style="fill: #262626" transform="translate(25.11925 166.100487) scale(0.088 -0.088)">
       <use xlink:href="#ArialMT-30"/>
       <use xlink:href="#ArialMT-2e" x="55.615234"/>
       <use xlink:href="#ArialMT-31" x="83.398438"/>
       <use xlink:href="#ArialMT-30" x="139.013672"/>
      </g>
     </g>
    </g>
    <g id="ytick_5">
     <g id="line2d_11">
      <g>
       <use xlink:href="#me19835113c" x="50.544875" y="122.637631" style="fill: #262626; stroke: #262626"/>
      </g>
     </g>
     <g id="text_12">
      <!-- 0.15 -->
      <g style="fill: #262626" transform="translate(25.11925 125.787068) scale(0.088 -0.088)">
       <use xlink:href="#ArialMT-30"/>
       <use xlink:href="#ArialMT-2e" x="55.615234"/>
       <use xlink:href="#ArialMT-31" x="83.398438"/>
       <use xlink:href="#ArialMT-35" x="139.013672"/>
      </g>
     </g>
    </g>
    <g id="ytick_6">
     <g id="line2d_12">
      <g>
       <use xlink:href="#me19835113c" x="50.544875" y="82.324212" style="fill: #262626; stroke: #262626"/>
      </g>
     </g>
     <g id="text_13">
      <!-- 0.20 -->
      <g style="fill: #262626" transform="translate(25.11925 85.47365) scale(0.088 -0.088)">
       <use xlink:href="#ArialMT-30"/>
       <use xlink:href="#ArialMT-2e" x="55.615234"/>
       <use xlink:href="#ArialMT-32" x="83.398438"/>
       <use xlink:href="#ArialMT-30" x="139.013672"/>
      </g>
     </g>
    </g>
    <g id="ytick_7">
     <g id="line2d_13">
      <g>
       <use xlink:href="#me19835113c" x="50.544875" y="42.010793" style="fill: #262626; stroke: #262626"/>
      </g>
     </g>
     <g id="text_14">
      <!-- 0.25 -->
      <g style="fill: #262626" transform="translate(25.11925 45.160231) scale(0.088 -0.088)">
       <use xlink:href="#ArialMT-30"/>
       <use xlink:href="#ArialMT-2e" x="55.615234"/>
       <use xlink:href="#ArialMT-32" x="83.398438"/>
       <use xlink:href="#ArialMT-35" x="139.013672"/>
      </g>
     </g>
    </g>
    <g id="text_15">
     <!-- Value -->
     <g style="fill: #262626" transform="translate(14.0715 165.078) rotate(-90) scale(0.096 -0.096)">
      <defs>
       <path id="ArialMT-56" d="M 1803 0 
L 28 4581 
L 684 4581 
L 1875 1253 
Q 2019 853 2116 503 
Q 2222 878 2363 1253 
L 3600 4581 
L 4219 4581 
L 2425 0 
L 1803 0 
z
" transform="scale(0.015625)"/>
       <path id="ArialMT-61" d="M 2588 409 
Q 2275 144 1986 34 
Q 1697 -75 1366 -75 
Q 819 -75 525 192 
Q 231 459 231 875 
Q 231 1119 342 1320 
Q 453 1522 633 1644 
Q 813 1766 1038 1828 
Q 1203 1872 1538 1913 
Q 2219 1994 2541 2106 
Q 2544 2222 2544 2253 
Q 2544 2597 2384 2738 
Q 2169 2928 1744 2928 
Q 1347 2928 1158 2789 
Q 969 2650 878 2297 
L 328 2372 
Q 403 2725 575 2942 
Q 747 3159 1072 3276 
Q 1397 3394 1825 3394 
Q 2250 3394 2515 3294 
Q 2781 3194 2906 3042 
Q 3031 2891 3081 2659 
Q 3109 2516 3109 2141 
L 3109 1391 
Q 3109 606 3145 398 
Q 3181 191 3288 0 
L 2700 0 
Q 2613 175 2588 409 
z
M 2541 1666 
Q 2234 1541 1622 1453 
Q 1275 1403 1131 1340 
Q 988 1278 909 1158 
Q 831 1038 831 891 
Q 831 666 1001 516 
Q 1172 366 1500 366 
Q 1825 366 2078 508 
Q 2331 650 2450 897 
Q 2541 1088 2541 1459 
L 2541 1666 
z
" transform="scale(0.015625)"/>
       <path id="ArialMT-6c" d="M 409 0 
L 409 4581 
L 972 4581 
L 972 0 
L 409 0 
z
" transform="scale(0.015625)"/>
       <path id="ArialMT-75" d="M 2597 0 
L 2597 488 
Q 2209 -75 1544 -75 
Q 1250 -75 995 37 
Q 741 150 617 320 
Q 494 491 444 738 
Q 409 903 409 1263 
L 409 3319 
L 972 3319 
L 972 1478 
Q 972 1038 1006 884 
Q 1059 663 1231 536 
Q 1403 409 1656 409 
Q 1909 409 2131 539 
Q 2353 669 2445 892 
Q 2538 1116 2538 1541 
L 2538 3319 
L 3100 3319 
L 3100 0 
L 2597 0 
z
" transform="scale(0.015625)"/>
      </defs>
      <use xlink:href="#ArialMT-56"/>
      <use xlink:href="#ArialMT-61" x="59.324219"/>
      <use xlink:href="#ArialMT-6c" x="114.939453"/>
      <use xlink:href="#ArialMT-75" x="137.15625"/>
      <use xlink:href="#ArialMT-65" x="192.771484"/>
     </g>
    </g>
   </g>
   <g id="line2d_14">
    <path d="M 66.777602 244.436313 
L 67.102582 243.772241 
L 67.427561 243.673562 
L 67.752541 242.443779 
L 68.07752 242.804312 
L 68.4025 243.755294 
L 68.727479 245.324992 
L 69.377438 244.811432 
L 69.702418 243.981588 
L 70.027398 243.526745 
L 70.352377 243.588079 
L 70.677357 243.970561 
L 71.002336 244.082223 
L 71.327316 243.587278 
L 71.977275 243.976469 
L 72.627234 243.034635 
L 72.952213 243.884629 
L 73.277193 242.777047 
L 73.602172 243.645915 
L 73.927152 244.979179 
L 74.252131 244.267952 
L 74.90209 244.935714 
L 75.22707 244.767732 
L 75.552049 244.796985 
L 75.877029 245.883124 
L 76.202008 244.652592 
L 76.526988 245.906466 
L 76.851968 245.924203 
L 77.176947 246.437488 
L 77.501927 247.385713 
L 77.826906 247.95972 
L 78.151886 249.053764 
L 78.476865 249.335558 
L 78.801845 249.974689 
L 79.126824 250.980739 
L 79.451804 250.851545 
L 79.776783 251.986612 
L 80.101763 251.893362 
L 80.426742 251.372022 
L 80.751722 253.922817 
L 81.076701 253.153015 
L 81.401681 254.397234 
L 81.72666 254.466236 
L 82.376619 253.652836 
L 83.026579 255.293158 
L 83.676538 257.896386 
L 84.651476 256.404128 
L 85.301435 256.916586 
L 85.626415 256.720674 
L 85.951394 254.94493 
L 86.276374 255.119987 
L 86.601353 255.117449 
L 87.251312 254.261343 
L 87.576292 252.857924 
L 87.901271 254.243486 
L 88.226251 253.440359 
L 89.201189 256.970546 
L 89.851149 257.615858 
L 90.176128 258.639953 
L 90.501108 257.850723 
L 90.826087 258.702969 
L 91.151067 258.796331 
L 91.476046 259.355701 
L 91.801026 259.134027 
L 92.126005 259.908249 
L 92.450985 259.322931 
L 92.775964 259.604172 
L 93.100944 260.754049 
L 93.425923 259.906873 
L 93.750903 259.945632 
L 94.075882 259.831779 
L 94.400862 260.562344 
L 94.725841 260.182953 
L 95.050821 260.037108 
L 95.3758 258.558758 
L 96.02576 258.326587 
L 96.350739 259.324921 
L 96.675719 259.734238 
L 97.000698 260.625554 
L 97.325678 260.156937 
L 97.650657 261.10135 
L 97.975637 260.371571 
L 98.300616 259.920164 
L 98.625596 260.002455 
L 98.950575 259.907015 
L 99.600534 257.006384 
L 100.250493 256.096081 
L 100.575473 256.426997 
L 100.900452 256.517012 
L 101.225432 257.449325 
L 101.550411 257.392713 
L 101.875391 256.877768 
L 102.20037 257.580472 
L 102.52535 257.653494 
L 102.85033 258.772131 
L 103.175309 257.832696 
L 103.500289 257.555624 
L 103.825268 256.326457 
L 104.475227 256.319741 
L 104.800207 255.531094 
L 105.125186 255.195013 
L 105.450166 255.795897 
L 105.775145 255.60441 
L 106.425104 253.710434 
L 106.750084 254.275787 
L 107.075063 254.216414 
L 107.400043 253.195402 
L 107.725022 254.159549 
L 108.050002 254.118811 
L 108.699961 252.728546 
L 109.024941 253.837984 
L 109.34992 253.867823 
L 109.6749 252.367698 
L 109.999879 253.394159 
L 110.324859 252.83724 
L 110.649838 253.887255 
L 110.974818 255.807512 
L 111.299797 255.382878 
L 111.624777 255.977043 
L 111.949756 256.307203 
L 112.274736 257.297964 
L 112.599715 256.955592 
L 112.924695 257.567506 
L 113.249674 257.642925 
L 113.574654 258.359458 
L 113.899633 258.340212 
L 114.224613 258.907925 
L 114.874572 257.394492 
L 115.199551 258.743749 
L 115.524531 259.212252 
L 115.849511 259.252103 
L 116.17449 260.036098 
L 116.49947 259.835142 
L 117.149429 260.688166 
L 117.474408 261.336855 
L 117.799388 259.359366 
L 118.124367 258.211081 
L 118.449347 258.090985 
L 119.099306 259.898272 
L 119.424285 258.657689 
L 119.749265 258.425551 
L 120.399224 261.181564 
L 120.724203 260.29988 
L 121.049183 260.302881 
L 122.024122 259.589158 
L 122.349101 258.707426 
L 122.674081 258.155986 
L 122.99906 256.107942 
L 123.649019 257.798442 
L 124.298978 258.961253 
L 124.623958 258.775622 
L 124.948937 259.201896 
L 125.273917 258.346703 
L 125.598896 258.120233 
L 125.923876 258.033155 
L 126.248855 258.267345 
L 126.573835 258.042149 
L 126.898814 258.045603 
L 127.223794 260.291309 
L 127.548773 260.703843 
L 127.873753 259.828895 
L 128.198732 259.401536 
L 128.523712 259.190835 
L 128.848692 258.775719 
L 129.173671 258.157194 
L 129.498651 258.291265 
L 129.82363 258.582879 
L 130.473589 258.182362 
L 130.798569 259.042763 
L 131.123548 258.832194 
L 131.448528 259.777701 
L 132.098487 258.413783 
L 132.423466 258.024318 
L 132.748446 258.704135 
L 133.073425 259.07335 
L 133.398405 257.643522 
L 133.723384 258.235626 
L 134.048364 258.230182 
L 134.373343 257.891341 
L 134.698323 256.736699 
L 135.348282 258.772103 
L 135.673262 258.909281 
L 136.6482 256.605621 
L 136.97318 257.671923 
L 137.298159 257.369301 
L 137.623139 257.580043 
L 137.948118 257.964812 
L 138.273098 257.880696 
L 138.598077 257.539216 
L 138.923057 256.273802 
L 139.248036 257.814403 
L 139.573016 258.563366 
L 139.897995 258.101981 
L 140.222975 259.256048 
L 140.547954 259.515798 
L 140.872934 259.496749 
L 141.197913 259.806549 
L 141.522893 258.645586 
L 141.847873 259.324913 
L 142.172852 258.917939 
L 142.497832 258.156142 
L 142.822811 258.621913 
L 143.147791 257.171743 
L 143.47277 257.453924 
L 143.79775 258.15615 
L 144.122729 258.003149 
L 144.447709 258.573134 
L 144.772688 259.371798 
L 145.097668 259.469549 
L 145.422647 260.6114 
L 145.747627 261.179025 
L 146.072606 260.964075 
L 146.397586 260.276321 
L 146.722565 260.344709 
L 147.047545 259.670281 
L 147.697504 257.593541 
L 148.022484 256.872017 
L 148.672443 256.588394 
L 148.997422 257.40299 
L 149.322402 257.261912 
L 149.647381 257.612107 
L 150.29734 257.466866 
L 150.62232 256.821145 
L 150.947299 254.881609 
L 151.272279 256.071072 
L 151.597258 256.712031 
L 151.922238 257.025338 
L 152.247217 256.631659 
L 152.572197 257.43985 
L 152.897176 257.748335 
L 153.222156 260.521046 
L 153.547135 261.253669 
L 153.872115 262.493426 
L 154.522074 263.758215 
L 154.847054 262.851476 
L 155.172033 265.033001 
L 155.497013 264.825851 
L 155.821992 264.053297 
L 156.146972 262.077956 
L 156.471951 261.598191 
L 156.796931 261.422651 
L 157.12191 260.839927 
L 157.44689 261.912627 
L 157.771869 262.36869 
L 158.096849 262.01661 
L 158.746808 260.872774 
L 159.071787 262.506976 
L 159.396767 262.592013 
L 159.721746 261.975913 
L 160.046726 262.40114 
L 160.371705 262.34671 
L 160.696685 262.67769 
L 161.346644 260.768199 
L 161.671624 261.035042 
L 161.996603 261.075378 
L 162.646562 262.317657 
L 162.971542 260.548723 
L 163.296521 261.080755 
L 163.621501 261.969488 
L 163.94648 262.247998 
L 164.27146 264.11575 
L 164.596439 264.157971 
L 165.246398 266.112249 
L 165.571378 265.933607 
L 166.221337 264.852492 
L 166.871296 263.465926 
L 167.196275 263.311028 
L 167.521255 265.416808 
L 167.846235 265.119632 
L 168.171214 265.179681 
L 168.496194 263.981318 
L 169.471132 268.844161 
L 169.796112 268.200266 
L 170.446071 268.351329 
L 170.77105 269.035629 
L 171.09603 268.867075 
L 171.421009 270.818667 
L 171.745989 271.531754 
L 172.070968 271.51028 
L 172.395948 271.698698 
L 172.720927 271.560439 
L 173.045907 271.715569 
L 173.370886 272.961927 
L 173.695866 270.810489 
L 174.020846 269.805872 
L 174.345825 269.50217 
L 174.670805 269.962862 
L 174.995784 270.99006 
L 175.320764 271.593744 
L 175.645743 273.370979 
L 176.295702 274.116 
L 176.620682 273.577869 
L 176.945661 273.409101 
L 177.270641 272.947307 
L 177.59562 273.012034 
L 177.9206 272.721091 
L 178.245579 271.432559 
L 178.570559 271.687741 
L 178.895538 271.709613 
L 179.220518 271.981462 
L 179.545497 271.906361 
L 179.870477 272.234469 
L 180.195456 271.547776 
L 180.845416 269.786889 
L 181.170395 268.939673 
L 181.495375 270.285571 
L 181.820354 270.617924 
L 182.145334 269.137512 
L 182.470313 269.095996 
L 182.795293 269.790283 
L 183.120272 268.520913 
L 183.445252 267.778796 
L 183.770231 267.463834 
L 184.095211 269.004375 
L 184.42019 267.930282 
L 185.070149 267.380088 
L 185.395129 267.382998 
L 185.720108 267.587956 
L 187.020027 263.472139 
L 187.345006 264.092838 
L 187.669986 264.313018 
L 187.994965 263.507499 
L 188.319945 264.563016 
L 188.644924 264.222516 
L 188.969904 264.29079 
L 189.294883 262.307074 
L 189.619863 261.879754 
L 189.944842 262.270069 
L 190.269822 263.266943 
L 190.594801 263.774035 
L 190.919781 263.576504 
L 191.24476 263.006765 
L 191.56974 261.494438 
L 191.894719 260.535975 
L 192.219699 260.844438 
L 192.544678 259.887725 
L 192.869658 259.911439 
L 193.194637 259.337114 
L 193.519617 259.039676 
L 193.844597 259.117659 
L 194.169576 259.010682 
L 194.494556 257.770702 
L 194.819535 260.223519 
L 195.144515 260.739829 
L 195.794474 259.737561 
L 196.119453 260.830172 
L 196.444433 260.747905 
L 196.769412 260.007024 
L 197.094392 259.786513 
L 197.419371 261.047773 
L 197.744351 261.167333 
L 198.06933 261.904733 
L 198.719289 262.292959 
L 199.044269 262.180082 
L 199.694228 263.551688 
L 200.344187 262.814249 
L 200.669167 263.439709 
L 200.994146 263.617388 
L 201.319126 262.903158 
L 201.644105 262.942883 
L 201.969085 261.954188 
L 202.294064 262.27141 
L 202.619044 263.546725 
L 202.944023 261.922594 
L 203.918962 261.594185 
L 204.243941 260.461365 
L 204.568921 260.616299 
L 204.8939 258.963962 
L 205.21888 259.068219 
L 205.543859 259.368021 
L 205.868839 260.236359 
L 206.193818 258.784697 
L 206.518798 258.982362 
L 207.168757 259.878796 
L 207.493737 260.260073 
L 207.818716 259.03408 
L 208.143696 259.318798 
L 208.468675 258.861372 
L 208.793655 258.053732 
L 209.118634 257.774972 
L 209.443614 258.924732 
L 209.768593 258.029324 
L 210.093573 258.365379 
L 210.418552 257.367453 
L 210.743532 257.033523 
L 211.068511 258.121086 
L 211.393491 258.231454 
L 211.71847 258.05197 
L 212.04345 259.597669 
L 212.368429 259.656553 
L 212.693409 261.261534 
L 213.018389 261.33642 
L 213.343368 260.775347 
L 213.668348 261.677904 
L 213.993327 261.018695 
L 214.318307 262.282911 
L 215.293245 262.753281 
L 215.618225 262.906601 
L 216.268184 263.772576 
L 216.593163 264.939941 
L 216.918143 265.157344 
L 217.243122 263.730247 
L 217.893081 265.869078 
L 218.218061 266.028735 
L 218.54304 266.443311 
L 218.86802 267.224303 
L 219.192999 266.711236 
L 219.517979 266.878786 
L 219.842959 267.399794 
L 220.167938 268.792799 
L 220.492918 267.538319 
L 221.142877 268.612349 
L 221.467856 267.346175 
L 222.442795 265.537525 
L 222.767774 264.233433 
L 223.092754 263.473059 
L 223.742713 261.368808 
L 224.067692 261.339815 
L 224.392672 260.710397 
L 224.717651 259.744054 
L 225.042631 259.805997 
L 225.36761 259.187723 
L 225.69259 259.026456 
L 226.01757 258.290878 
L 226.342549 258.570018 
L 226.667529 257.910236 
L 226.992508 257.996138 
L 227.317488 258.216034 
L 227.642467 258.755753 
L 227.967447 258.978409 
L 228.292426 257.658388 
L 228.617406 257.503006 
L 229.267365 258.538989 
L 229.917324 256.56525 
L 230.242303 256.760203 
L 230.892262 256.731814 
L 231.217242 256.470596 
L 231.542221 257.283399 
L 231.867201 257.252815 
L 232.19218 256.750647 
L 232.51716 256.868325 
L 232.84214 257.59479 
L 233.817078 254.560957 
L 234.142058 254.103335 
L 234.467037 254.343159 
L 234.792017 253.269884 
L 235.116996 253.752528 
L 235.441976 253.572392 
L 235.766955 253.171267 
L 236.091935 253.18253 
L 236.416914 254.093267 
L 237.066873 252.179978 
L 237.391853 252.279559 
L 237.716832 251.971726 
L 238.041812 253.485436 
L 238.366791 254.122251 
L 239.016751 257.030593 
L 239.34173 257.215689 
L 239.66671 258.020841 
L 239.991689 258.327307 
L 240.316669 258.262993 
L 240.641648 258.339144 
L 240.966628 259.156352 
L 241.291607 259.590673 
L 241.616587 260.472341 
L 242.266546 261.022773 
L 242.591525 260.671083 
L 242.916505 260.970115 
L 243.241484 260.80815 
L 243.566464 262.066283 
L 243.891443 260.97609 
L 244.216423 261.320721 
L 244.541402 260.754028 
L 244.866382 260.775101 
L 245.191361 261.945034 
L 245.516341 262.275391 
L 245.841321 261.600145 
L 246.49128 264.10728 
L 246.816259 263.29671 
L 247.141239 263.776711 
L 247.466218 264.483987 
L 247.791198 264.809454 
L 248.116177 263.818559 
L 248.766136 262.913676 
L 249.416095 265.044305 
L 249.741075 265.546193 
L 250.066054 265.392429 
L 250.391034 264.975573 
L 250.716013 263.706136 
L 251.040993 264.462351 
L 251.365972 265.673965 
L 251.690952 265.122553 
L 252.015932 264.06246 
L 252.340911 264.045874 
L 252.99087 265.121926 
L 253.31585 263.163213 
L 253.640829 264.027668 
L 253.965809 263.763744 
L 254.290788 264.038594 
L 254.615768 264.77752 
L 255.265727 263.437905 
L 255.590706 263.795207 
L 255.915686 264.372665 
L 256.240665 264.573453 
L 256.565645 265.226288 
L 256.890624 265.356799 
L 257.215604 265.36606 
L 257.540583 266.436791 
L 257.865563 266.309208 
L 258.190542 266.647645 
L 258.515522 267.776355 
L 258.840502 268.118414 
L 259.165481 267.63045 
L 259.490461 267.683166 
L 259.81544 266.125481 
L 260.14042 265.803025 
L 260.465399 266.115357 
L 260.790379 265.146117 
L 261.115358 265.478993 
L 261.440338 265.172297 
L 261.765317 265.98723 
L 262.415276 266.117359 
L 262.740256 266.037391 
L 263.065235 266.586115 
L 264.365153 265.835665 
L 264.690133 264.691425 
L 265.015113 263.992146 
L 265.340092 266.059843 
L 265.665072 265.497486 
L 265.990051 266.632847 
L 266.315031 266.231859 
L 267.289969 268.877278 
L 267.614949 268.575228 
L 267.939928 267.162808 
L 268.264908 266.864581 
L 268.589887 266.822603 
L 268.914867 267.948235 
L 269.239846 266.801491 
L 269.564826 266.599475 
L 269.889805 265.972722 
L 270.214785 265.790754 
L 270.864744 267.34099 
L 271.189723 267.002672 
L 271.514703 266.330633 
L 271.839683 264.458158 
L 272.489642 266.930847 
L 272.814621 266.475404 
L 273.46458 268.107357 
L 273.78956 267.718779 
L 274.114539 268.588948 
L 274.764498 267.8082 
L 275.089478 266.929497 
L 275.414457 267.772931 
L 275.739437 268.105864 
L 276.389396 266.066628 
L 276.714375 265.654957 
L 277.039355 266.324126 
L 277.364334 266.737214 
L 277.689314 266.57363 
L 278.014294 267.734792 
L 278.339273 267.887367 
L 278.664253 269.385563 
L 278.989232 269.32171 
L 279.314212 268.672513 
L 279.639191 269.006155 
L 279.964171 269.157153 
L 280.28915 268.025012 
L 280.61413 268.499256 
L 281.264089 267.505141 
L 281.589068 267.900329 
L 281.914048 269.56305 
L 282.239027 272.06053 
L 282.888986 271.360061 
L 283.213966 270.172163 
L 283.538945 270.832809 
L 283.863925 270.528027 
L 284.188904 271.505897 
L 284.513884 270.028738 
L 284.838864 269.562242 
L 285.163843 270.32979 
L 285.488823 272.370373 
L 285.813802 272.068065 
L 287.11372 267.227184 
L 287.4387 266.939766 
L 287.763679 267.688384 
L 288.088659 266.874121 
L 288.413638 267.682418 
L 288.738618 267.639095 
L 289.063597 268.439903 
L 289.388577 268.479883 
L 289.713556 268.293865 
L 290.038536 268.96158 
L 290.363515 268.551597 
L 290.688495 267.680727 
L 291.013475 268.725262 
L 291.338454 268.503202 
L 291.663434 268.650576 
L 292.313393 267.358771 
L 292.638372 267.051846 
L 292.963352 267.054158 
L 293.288331 267.628886 
L 293.613311 266.887878 
L 293.93829 266.75731 
L 294.26327 265.416159 
L 294.588249 265.605793 
L 294.913229 265.965724 
L 295.238208 265.796038 
L 295.563188 265.91073 
L 295.888167 266.967156 
L 296.213147 265.907858 
L 296.863106 266.555492 
L 297.188085 265.194024 
L 297.513065 265.090531 
L 297.838045 265.761847 
L 298.163024 264.751813 
L 298.488004 265.10473 
L 298.812983 266.323832 
L 299.137963 266.959524 
L 299.462942 267.068001 
L 299.787922 266.659751 
L 300.112901 266.997739 
L 300.437881 267.543249 
L 300.76286 267.276965 
L 301.412819 269.47163 
L 301.737799 269.59452 
L 302.062778 268.591858 
L 302.387758 270.000502 
L 302.712737 270.323372 
L 303.362696 269.488406 
L 303.687676 269.471662 
L 304.012656 269.572975 
L 304.987594 268.81457 
L 305.312574 267.734697 
L 305.637553 267.570086 
L 305.962533 267.683865 
L 306.287512 266.551222 
L 306.612492 266.55293 
L 306.937471 265.161052 
L 307.262451 265.397819 
L 307.58743 266.790052 
L 307.91241 266.007466 
L 308.237389 265.601109 
L 308.562369 266.40526 
L 308.887348 265.592545 
L 309.537307 266.19653 
L 309.862287 267.112329 
L 310.187266 267.656404 
L 310.512246 266.605471 
L 310.837226 267.822312 
L 311.162205 267.209962 
L 311.812164 270.167885 
L 312.137144 270.37866 
L 312.462123 270.822455 
L 312.787103 270.478363 
L 313.112082 271.646376 
L 313.437062 271.20581 
L 313.762041 270.116692 
L 314.087021 269.966336 
L 314.412 270.442277 
L 314.73698 270.370004 
L 315.386939 269.715227 
L 315.711918 272.250059 
L 316.036898 272.577714 
L 316.361877 272.504602 
L 316.686857 270.797423 
L 317.336816 270.705829 
L 317.661796 270.228203 
L 317.986775 271.948226 
L 318.311755 271.42228 
L 318.636734 272.242999 
L 318.961714 273.656728 
L 319.286693 273.562373 
L 319.611673 273.782852 
L 319.936652 273.629313 
L 320.261632 273.881422 
L 320.586611 272.300919 
L 320.911591 272.016428 
L 321.56155 273.088378 
L 321.886529 272.858905 
L 322.536488 271.514119 
L 322.861468 271.496204 
L 323.186447 270.885005 
L 323.511427 271.006812 
L 323.836407 270.627062 
L 324.161386 270.862653 
L 324.486366 269.840191 
L 325.136325 270.130937 
L 325.786284 269.572616 
L 326.111263 269.463195 
L 326.436243 269.22439 
L 326.761222 268.192755 
L 327.086202 267.563582 
L 327.411181 267.876405 
L 327.736161 266.356127 
L 328.06114 265.467745 
L 328.38612 265.129792 
L 328.711099 264.076123 
L 329.036079 263.540934 
L 329.361058 264.049588 
L 329.686038 263.224943 
L 330.011018 262.084761 
L 330.335997 261.630138 
L 330.660977 260.862266 
L 330.985956 261.455511 
L 331.310936 261.103763 
L 331.635915 260.257569 
L 331.960895 259.901504 
L 332.285874 259.75158 
L 332.610854 258.916814 
L 332.935833 258.667139 
L 333.260813 257.689094 
L 333.585792 258.510421 
L 333.910772 257.967305 
L 334.560731 260.27272 
L 334.88571 259.879362 
L 336.185628 261.676209 
L 336.510608 261.194182 
L 336.835588 262.125542 
L 337.160567 261.177157 
L 337.485547 260.732359 
L 338.135506 262.871086 
L 338.460485 262.471864 
L 338.785465 261.636357 
L 339.110444 261.501095 
L 339.435424 262.347619 
L 339.760403 261.325483 
L 340.085383 261.041264 
L 340.410362 261.749484 
L 340.735342 260.98212 
L 341.060321 261.002576 
L 341.71028 258.377989 
L 342.03526 258.129539 
L 342.360239 258.284654 
L 342.685219 258.047966 
L 343.010199 258.101278 
L 343.335178 257.815851 
L 343.660158 256.955883 
L 344.310117 258.596196 
L 344.960076 257.530963 
L 345.285055 257.399854 
L 345.935014 258.598331 
L 346.584973 257.264 
L 346.909953 256.972219 
L 347.234932 256.510383 
L 347.559912 257.005003 
L 348.209871 257.254227 
L 348.85983 257.075859 
L 349.184809 258.00584 
L 349.834769 256.183935 
L 350.159748 255.837948 
L 350.484728 254.806387 
L 350.809707 255.457307 
L 351.134687 255.809967 
L 351.459666 255.227024 
L 351.784646 255.393687 
L 352.434605 257.110739 
L 352.759584 257.21684 
L 353.084564 257.552012 
L 353.409543 258.351356 
L 353.734523 256.554593 
L 354.059502 256.249211 
L 354.709461 255.046795 
L 355.034441 255.270368 
L 355.35942 255.299164 
L 355.6844 256.11355 
L 356.00938 255.866851 
L 356.334359 254.885633 
L 356.659339 255.022942 
L 356.984318 255.034651 
L 357.309298 255.623733 
L 358.284236 254.676939 
L 358.609216 253.39489 
L 358.934195 253.932368 
L 359.584154 252.477107 
L 359.909134 252.156462 
L 360.559093 253.013731 
L 360.884072 253.545616 
L 361.534031 253.245435 
L 361.859011 252.631471 
L 362.18399 252.83667 
L 362.50897 252.507127 
L 362.83395 252.618888 
L 363.158929 251.945976 
L 363.483909 251.748524 
L 363.808888 251.897289 
L 364.133868 252.402386 
L 364.458847 252.319939 
L 364.783827 251.648518 
L 365.108806 251.529068 
L 365.433786 250.865672 
L 365.758765 250.919332 
L 366.408724 249.431778 
L 367.058683 250.043169 
L 367.708642 249.117098 
L 368.033622 249.733848 
L 368.358601 249.577477 
L 368.683581 249.124568 
L 369.008561 248.386689 
L 369.33354 249.503957 
L 369.65852 249.459524 
L 369.983499 248.892169 
L 370.308479 247.640595 
L 370.958438 249.835472 
L 371.283417 249.035533 
L 371.608397 249.632057 
L 372.258356 249.345653 
L 372.583335 249.06562 
L 372.908315 249.653137 
L 373.233294 251.482422 
L 373.883253 250.523852 
L 374.208233 251.282183 
L 374.533212 250.071659 
L 374.858192 249.912182 
L 375.833131 252.850993 
L 376.15811 252.204921 
L 376.48309 254.064897 
L 376.808069 254.812584 
L 377.133049 253.245393 
L 377.458028 252.520929 
L 377.783008 253.723663 
L 378.107987 254.390887 
L 378.432967 254.598809 
L 378.757946 253.86732 
L 379.082926 254.711471 
L 379.407905 254.886244 
L 379.732885 254.135667 
L 380.057864 253.792904 
L 380.382844 253.244702 
L 381.032803 250.832068 
L 381.357782 251.259379 
L 381.682762 252.135791 
L 382.98268 248.748859 
L 383.30766 248.017898 
L 383.632639 245.49482 
L 384.282598 246.960102 
L 384.607578 246.711265 
L 384.932557 245.387723 
L 385.257537 245.275502 
L 385.582516 244.753439 
L 385.907496 244.909505 
L 386.232475 245.497735 
L 386.557455 245.608945 
L 386.882434 246.200654 
L 387.207414 247.475208 
L 387.532393 246.817054 
L 387.857373 246.493657 
L 388.182352 247.585217 
L 388.507332 247.128765 
L 388.832312 247.754823 
L 389.157291 248.891213 
L 389.482271 248.462209 
L 389.80725 247.744005 
L 390.13223 247.530677 
L 390.457209 246.579655 
L 390.782189 244.747841 
L 391.107168 244.318851 
L 391.432148 243.577887 
L 391.432148 243.577887 
" clip-path="url(#p9bf0850a85)" style="fill: none; stroke: #1f77b4; stroke-width: 1.2; stroke-linecap: round"/>
   </g>
   <g id="line2d_15">
    <path d="M 66.777602 243.577887 
L 391.432148 243.577887 
L 391.432148 243.577887 
" clip-path="url(#p9bf0850a85)" style="fill: none; stroke-dasharray: 4.44,1.92; stroke-dashoffset: 0; stroke: #1f77b4; stroke-width: 1.2"/>
   </g>
   <g id="line2d_16">
    <path d="M 66.777602 242.725003 
L 68.4025 239.05559 
L 70.027398 235.697177 
L 70.677357 233.847181 
L 71.002336 232.663973 
L 71.652295 231.58402 
L 71.977275 230.932883 
L 72.302254 229.930223 
L 72.627234 229.586733 
L 73.277193 228.376598 
L 74.90209 224.552247 
L 75.22707 223.639494 
L 75.877029 222.598264 
L 76.526988 220.951281 
L 77.176947 218.992792 
L 77.501927 218.394896 
L 78.801845 215.172896 
L 79.126824 214.773827 
L 79.776783 213.635225 
L 80.101763 213.347566 
L 81.076701 210.480138 
L 81.401681 210.012558 
L 81.72666 209.224897 
L 82.05164 208.899448 
L 82.376619 208.185242 
L 82.701599 207.743967 
L 83.676538 205.807089 
L 84.326497 202.78087 
L 84.651476 201.925277 
L 84.976456 201.837534 
L 86.276374 198.190332 
L 86.601353 197.982372 
L 86.926333 197.989984 
L 87.251312 197.636285 
L 87.576292 197.510881 
L 87.901271 197.024885 
L 88.55123 194.536362 
L 88.87621 193.872078 
L 89.201189 193.829128 
L 89.526169 192.915497 
L 89.851149 192.545222 
L 90.176128 191.096645 
L 90.501108 190.278822 
L 91.151067 189.705779 
L 91.476046 189.535875 
L 91.801026 189.035965 
L 92.450985 187.003005 
L 92.775964 186.98481 
L 93.100944 186.482438 
L 94.075882 183.503283 
L 94.400862 182.712034 
L 94.725841 182.415838 
L 95.050821 181.54545 
L 95.3758 181.020833 
L 95.70078 180.167043 
L 96.02576 179.866395 
L 96.350739 179.162298 
L 97.000698 178.5043 
L 97.650657 177.182032 
L 97.975637 175.289567 
L 98.300616 175.146312 
L 98.625596 174.293012 
L 98.950575 173.910422 
L 99.275555 173.940094 
L 99.600534 173.458537 
L 100.900452 170.116009 
L 101.225432 169.929687 
L 101.550411 169.274752 
L 101.875391 169.153835 
L 102.20037 168.461459 
L 102.52535 167.468781 
L 102.85033 167.386318 
L 103.175309 166.502652 
L 103.500289 166.491131 
L 103.825268 165.963255 
L 105.775145 158.988371 
L 106.750084 157.326002 
L 107.075063 156.272231 
L 107.400043 154.406628 
L 107.725022 153.647956 
L 108.374981 153.506394 
L 108.699961 152.878671 
L 109.024941 153.201553 
L 109.34992 152.899198 
L 109.6749 152.125267 
L 109.999879 152.176089 
L 110.324859 152.444131 
L 110.649838 151.765506 
L 110.974818 150.214501 
L 111.299797 150.418436 
L 111.624777 149.829772 
L 111.949756 149.636896 
L 112.599715 148.819735 
L 112.924695 148.372148 
L 113.249674 148.15325 
L 113.574654 147.23015 
L 113.899633 147.443543 
L 114.874572 144.80797 
L 115.199551 144.917536 
L 115.524531 144.509344 
L 115.849511 144.598819 
L 116.17449 144.326631 
L 116.49947 144.236242 
L 116.824449 143.123001 
L 117.149429 143.191388 
L 117.474408 142.195005 
L 117.799388 141.740068 
L 118.124367 141.047869 
L 118.449347 141.247495 
L 118.774326 140.181719 
L 119.099306 140.354941 
L 119.424285 138.961343 
L 119.749265 139.080509 
L 120.074244 139.732758 
L 120.399224 139.313695 
L 121.049183 138.017849 
L 121.374162 137.740273 
L 121.699142 136.475617 
L 122.024122 135.974806 
L 122.349101 135.053389 
L 122.674081 134.495104 
L 122.99906 133.031085 
L 123.973999 130.363553 
L 124.623958 129.754392 
L 124.948937 128.913663 
L 125.273917 128.650545 
L 125.923876 125.529125 
L 126.573835 124.318635 
L 126.898814 123.841556 
L 127.223794 123.744349 
L 127.548773 123.76702 
L 127.873753 122.494932 
L 128.198732 120.528278 
L 128.523712 119.775782 
L 128.848692 119.448038 
L 129.173671 118.141013 
L 129.498651 118.241132 
L 130.14861 117.096193 
L 130.473589 116.050258 
L 130.798569 115.855472 
L 132.423466 110.181554 
L 132.748446 110.283713 
L 133.073425 110.813665 
L 133.398405 110.39564 
L 133.723384 110.594763 
L 134.048364 111.684486 
L 134.373343 110.859266 
L 134.698323 111.450636 
L 135.023303 110.614407 
L 135.348282 110.237682 
L 135.673262 109.672945 
L 135.998241 110.245084 
L 136.323221 109.485407 
L 136.6482 109.299671 
L 136.97318 108.983702 
L 137.623139 107.822556 
L 137.948118 107.623405 
L 138.273098 107.976014 
L 138.598077 106.221533 
L 138.923057 105.658381 
L 139.248036 104.230965 
L 139.897995 102.82026 
L 140.222975 102.593604 
L 140.547954 101.916336 
L 141.522893 97.903495 
L 141.847873 97.1315 
L 142.172852 96.857112 
L 142.497832 96.179125 
L 142.822811 96.077939 
L 143.147791 95.078543 
L 143.47277 94.840318 
L 144.447709 92.361852 
L 144.772688 92.500986 
L 145.097668 91.799132 
L 145.422647 91.477571 
L 146.072606 90.273704 
L 146.397586 90.434892 
L 146.722565 90.09881 
L 147.372524 88.720554 
L 147.697504 88.715937 
L 148.022484 87.746942 
L 148.347463 88.244831 
L 148.672443 87.912378 
L 148.997422 86.716421 
L 149.322402 86.124662 
L 149.647381 86.571203 
L 149.972361 86.243858 
L 150.29734 85.391595 
L 150.947299 84.556632 
L 151.272279 85.278717 
L 151.597258 84.547056 
L 151.922238 84.21477 
L 152.572197 81.994966 
L 152.897176 81.60722 
L 153.222156 81.84425 
L 153.547135 82.729891 
L 153.872115 83.031808 
L 154.197094 82.106804 
L 154.522074 82.11638 
L 154.847054 80.705028 
L 155.172033 80.914748 
L 155.821992 77.470681 
L 156.146972 77.059525 
L 156.471951 77.39912 
L 157.12191 76.079726 
L 157.44689 74.272315 
L 157.771869 74.809336 
L 158.096849 73.42792 
L 158.421828 73.942759 
L 158.746808 73.435162 
L 159.071787 71.832051 
L 159.396767 71.357426 
L 159.721746 71.098222 
L 160.046726 70.984206 
L 161.021665 69.227845 
L 161.346644 68.263004 
L 161.671624 68.409142 
L 161.996603 68.841351 
L 162.321583 66.959745 
L 162.646562 66.517215 
L 163.296521 66.268526 
L 163.621501 66.780507 
L 164.27146 66.677155 
L 164.596439 67.364521 
L 165.571378 64.629455 
L 165.896357 64.641413 
L 166.221337 63.40609 
L 166.546316 62.996383 
L 166.871296 63.746975 
L 167.521255 62.554749 
L 168.496194 59.23988 
L 168.821173 59.360524 
L 169.146153 59.259074 
L 169.471132 58.901753 
L 169.796112 58.069769 
L 170.121091 58.802256 
L 170.446071 58.980852 
L 171.09603 58.119891 
L 171.745989 54.900167 
L 172.070968 54.603657 
L 172.395948 53.145484 
L 172.720927 52.592267 
L 173.045907 52.58468 
L 173.370886 52.041423 
L 174.345825 47.559455 
L 174.670805 47.552527 
L 174.995784 48.608201 
L 175.320764 48.802565 
L 175.645743 47.702507 
L 175.970723 46.089124 
L 176.295702 45.346851 
L 176.620682 45.321663 
L 176.945661 44.95923 
L 177.270641 45.945047 
L 177.59562 46.383193 
L 177.9206 45.816924 
L 178.245579 45.679885 
L 178.570559 46.196069 
L 178.895538 44.175071 
L 179.220518 44.982885 
L 179.545497 43.813514 
L 180.845416 42.128944 
L 181.170395 42.67171 
L 181.495375 41.678507 
L 182.145334 41.2822 
L 182.470313 40.923909 
L 182.795293 38.594757 
L 183.120272 37.803432 
L 183.445252 38.934583 
L 183.770231 38.821794 
L 184.095211 39.345286 
L 184.42019 38.048714 
L 184.74517 37.542688 
L 185.070149 36.183381 
L 185.395129 35.994992 
L 185.720108 36.147203 
L 186.045088 37.221611 
L 186.370067 36.638857 
L 187.345006 38.114181 
L 187.669986 37.709154 
L 187.994965 39.646129 
L 188.319945 39.708992 
L 188.969904 42.056439 
L 189.619863 42.467489 
L 189.944842 41.582818 
L 190.269822 40.201269 
L 190.594801 40.206912 
L 190.919781 40.333406 
L 191.24476 42.269142 
L 191.56974 40.547611 
L 192.544678 42.832647 
L 192.869658 43.212246 
L 193.194637 43.150619 
L 193.519617 42.081216 
L 193.844597 42.854885 
L 194.169576 42.389557 
L 194.494556 41.446662 
L 194.819535 41.937455 
L 195.469494 40.894936 
L 195.794474 41.100928 
L 196.119453 40.947278 
L 196.769412 42.146634 
L 197.094392 42.211166 
L 197.419371 40.633013 
L 197.744351 40.638161 
L 198.06933 41.810042 
L 198.719289 41.491971 
L 199.044269 40.990739 
L 199.369248 41.019293 
L 199.694228 40.448843 
L 200.019208 39.121679 
L 200.344187 40.691089 
L 200.669167 40.08986 
L 200.994146 40.334951 
L 201.319126 39.18623 
L 201.644105 38.988282 
L 201.969085 40.046755 
L 202.294064 39.804246 
L 202.944023 38.477892 
L 203.269003 38.302089 
L 203.593982 39.278583 
L 203.918962 38.919289 
L 204.243941 38.78997 
L 204.568921 39.057022 
L 204.8939 39.654669 
L 205.543859 41.486977 
L 205.868839 41.096818 
L 206.518798 39.780117 
L 206.843778 40.657382 
L 207.168757 40.498173 
L 207.493737 39.734518 
L 207.818716 39.66311 
L 208.143696 38.911937 
L 208.468675 39.389071 
L 208.793655 38.249569 
L 209.118634 39.042597 
L 209.443614 37.925138 
L 209.768593 37.660313 
L 210.093573 37.602188 
L 210.418552 38.065075 
L 210.743532 39.440626 
L 211.068511 39.545728 
L 211.393491 38.087769 
L 211.71847 37.964248 
L 212.04345 37.209486 
L 213.018389 34.128184 
L 213.343368 36.132956 
L 213.668348 36.014273 
L 213.993327 35.040927 
L 214.318307 35.049438 
L 214.643286 35.815912 
L 214.968266 34.033722 
L 215.293245 36.494279 
L 215.943204 37.0232 
L 216.268184 37.05704 
L 216.593163 36.840058 
L 216.918143 37.474704 
L 217.243122 37.747795 
L 217.568102 38.507077 
L 217.893081 38.396233 
L 218.54304 37.208127 
L 218.86802 36.442089 
L 219.842959 36.124213 
L 220.167938 36.752796 
L 220.492918 36.909589 
L 220.817897 36.349941 
L 221.142877 37.092127 
L 221.467856 37.438131 
L 221.792836 37.225397 
L 222.117815 37.482667 
L 222.442795 36.75612 
L 222.767774 36.751526 
L 223.092754 37.117487 
L 223.417733 36.867083 
L 223.742713 36.776124 
L 224.067692 36.239966 
L 224.392672 36.200136 
L 224.717651 35.992129 
L 225.042631 34.616784 
L 226.01757 36.103513 
L 226.342549 35.845263 
L 226.992508 36.534834 
L 227.317488 36.699068 
L 227.642467 35.042664 
L 227.967447 35.434452 
L 228.617406 33.87612 
L 228.942385 33.468284 
L 229.267365 34.406905 
L 229.592344 34.79742 
L 230.242303 32.420465 
L 230.567283 32.196 
L 231.217242 34.830035 
L 231.542221 33.664453 
L 231.867201 35.422698 
L 232.19218 34.000802 
L 232.51716 34.087334 
L 232.84214 34.022824 
L 233.492099 33.177016 
L 234.142058 34.526329 
L 234.467037 34.145431 
L 234.792017 32.490858 
L 235.116996 33.465299 
L 235.441976 33.354557 
L 235.766955 33.406726 
L 236.091935 33.23742 
L 236.416914 33.325694 
L 236.741894 32.489325 
L 237.066873 33.210293 
L 237.391853 32.831251 
L 238.041812 34.455575 
L 238.366791 34.586465 
L 238.691771 35.190158 
L 239.016751 34.828982 
L 239.34173 35.304086 
L 239.66671 34.976497 
L 239.991689 35.63177 
L 240.316669 35.20653 
L 240.641648 35.967395 
L 240.966628 36.261579 
L 241.291607 37.04149 
L 241.616587 36.356132 
L 241.941566 36.377509 
L 242.266546 37.576434 
L 242.591525 36.827629 
L 242.916505 38.910023 
L 243.241484 39.318333 
L 243.566464 39.443627 
L 243.891443 39.722949 
L 244.216423 41.338745 
L 244.541402 39.99171 
L 244.866382 39.69448 
L 245.191361 38.280587 
L 245.516341 39.952802 
L 245.841321 39.996755 
L 246.1663 39.841628 
L 246.816259 42.249306 
L 247.141239 44.34867 
L 247.466218 45.607101 
L 247.791198 45.303433 
L 248.116177 46.103676 
L 248.441157 45.901388 
L 248.766136 46.617505 
L 249.091116 45.459775 
L 249.416095 45.340892 
L 249.741075 44.078282 
L 250.066054 43.318524 
L 250.391034 44.268091 
L 250.716013 44.636013 
L 251.040993 45.435774 
L 251.365972 45.363409 
L 251.690952 45.779075 
L 252.015932 46.470334 
L 252.340911 46.628508 
L 252.665891 48.106022 
L 252.99087 47.140511 
L 253.31585 47.261075 
L 253.640829 47.09389 
L 254.290788 48.824367 
L 254.615768 48.948732 
L 254.940747 48.619172 
L 255.265727 49.914979 
L 255.590706 50.108948 
L 255.915686 49.656969 
L 256.240665 50.835548 
L 256.565645 50.770192 
L 256.890624 51.43603 
L 257.215604 50.70264 
L 257.540583 50.706036 
L 257.865563 50.309528 
L 258.190542 51.428681 
L 258.515522 53.093721 
L 258.840502 52.644299 
L 259.165481 51.915352 
L 259.490461 51.912726 
L 260.14042 50.109294 
L 260.465399 50.117218 
L 260.790379 49.723579 
L 261.115358 50.272432 
L 261.440338 51.701525 
L 261.765317 52.381492 
L 262.090297 54.109515 
L 262.415276 53.773773 
L 262.740256 53.715782 
L 263.390215 52.377 
L 263.715194 51.646925 
L 264.040174 51.945914 
L 264.365153 51.006437 
L 264.690133 51.7691 
L 265.015113 52.078368 
L 265.340092 51.960371 
L 265.665072 52.222235 
L 265.990051 51.593068 
L 266.315031 52.289233 
L 266.64001 52.307794 
L 266.96499 53.018352 
L 267.289969 53.087986 
L 267.614949 53.285744 
L 267.939928 53.15141 
L 268.264908 54.273062 
L 268.589887 54.127681 
L 268.914867 53.719592 
L 269.239846 54.517805 
L 269.564826 54.430842 
L 269.889805 53.903944 
L 270.214785 54.532159 
L 270.539764 55.608091 
L 270.864744 55.016735 
L 271.189723 55.692494 
L 271.514703 55.538905 
L 271.839683 56.353459 
L 272.164662 55.788468 
L 272.489642 56.191544 
L 272.814621 57.079821 
L 273.139601 56.203279 
L 273.78956 59.749116 
L 274.439519 56.894727 
L 274.764498 58.676263 
L 275.089478 57.921135 
L 275.414457 59.344857 
L 275.739437 58.716629 
L 276.064416 59.008603 
L 276.714375 58.017549 
L 277.364334 60.691895 
L 277.689314 60.241759 
L 278.014294 60.319539 
L 278.339273 60.667103 
L 278.664253 60.574931 
L 278.989232 60.679442 
L 279.314212 60.124995 
L 279.639191 60.964343 
L 279.964171 60.625583 
L 280.28915 60.595314 
L 280.61413 60.857424 
L 280.939109 60.737861 
L 281.264089 61.483005 
L 281.589068 61.585466 
L 281.914048 61.921257 
L 282.564007 63.432097 
L 282.888986 63.259853 
L 283.538945 64.57972 
L 283.863925 64.455736 
L 284.188904 64.877003 
L 284.513884 64.813598 
L 284.838864 64.993243 
L 285.163843 65.420082 
L 285.488823 65.562696 
L 285.813802 64.738871 
L 286.138782 64.946475 
L 286.788741 65.881792 
L 287.11372 66.639948 
L 287.4387 66.694683 
L 288.088659 66.282752 
L 288.413638 68.612204 
L 288.738618 69.087604 
L 289.063597 70.51436 
L 289.388577 70.058722 
L 289.713556 70.165728 
L 290.038536 69.875542 
L 290.363515 70.654638 
L 290.688495 71.132157 
L 291.013475 71.281343 
L 291.338454 71.081829 
L 291.663434 71.768005 
L 291.988413 73.110794 
L 292.313393 73.330304 
L 292.638372 72.547035 
L 293.288331 74.815422 
L 293.93829 78.515094 
L 294.588249 77.35623 
L 294.913229 77.560875 
L 295.238208 77.555656 
L 295.563188 77.18554 
L 295.888167 79.143497 
L 296.213147 78.846896 
L 296.538126 79.597824 
L 297.188085 77.614195 
L 297.513065 77.27304 
L 297.838045 79.298992 
L 298.812983 78.933187 
L 299.137963 78.338234 
L 299.462942 76.797675 
L 299.787922 76.424629 
L 300.112901 76.812417 
L 300.437881 77.653326 
L 300.76286 77.648544 
L 301.08784 78.906304 
L 301.412819 79.291405 
L 301.737799 79.192365 
L 302.062778 79.937864 
L 302.387758 80.361755 
L 303.362696 82.818136 
L 303.687676 83.037352 
L 304.337635 85.604892 
L 304.662615 86.227533 
L 304.987594 87.443803 
L 305.312574 87.692213 
L 305.637553 87.79914 
L 305.962533 88.823133 
L 306.287512 88.948121 
L 306.612492 89.631279 
L 306.937471 89.725256 
L 307.262451 88.984124 
L 307.58743 89.237801 
L 307.91241 90.338694 
L 308.237389 90.320222 
L 308.562369 90.756392 
L 308.887348 91.611965 
L 309.537307 94.134654 
L 309.862287 94.94023 
L 310.187266 95.425537 
L 310.512246 94.508498 
L 310.837226 95.088601 
L 311.162205 93.989938 
L 311.487185 93.906565 
L 311.812164 93.363318 
L 312.137144 93.579179 
L 312.462123 94.186291 
L 312.787103 93.23369 
L 313.112082 92.909187 
L 313.437062 93.063282 
L 314.087021 96.139705 
L 314.412 96.274869 
L 315.386939 98.283027 
L 315.711918 97.907328 
L 316.036898 98.079868 
L 316.361877 98.983213 
L 316.686857 97.875295 
L 317.011837 97.456875 
L 317.336816 99.06142 
L 317.661796 98.913757 
L 317.986775 99.529062 
L 318.636734 100.244656 
L 318.961714 99.770412 
L 319.611673 102.185715 
L 319.936652 102.960781 
L 320.261632 102.597089 
L 320.911591 103.245071 
L 321.23657 103.788715 
L 321.886529 106.115376 
L 322.211509 106.803101 
L 322.536488 107.879204 
L 322.861468 107.963142 
L 323.186447 108.308226 
L 323.511427 108.831184 
L 323.836407 109.716213 
L 324.161386 109.794491 
L 324.811345 109.446356 
L 325.136325 110.43814 
L 325.786284 111.082654 
L 326.111263 111.165837 
L 326.436243 109.765492 
L 326.761222 110.75226 
L 327.086202 110.31814 
L 327.411181 111.397444 
L 327.736161 111.765998 
L 328.711099 114.241266 
L 329.361058 115.553579 
L 330.011018 118.105112 
L 330.335997 118.138835 
L 330.660977 120.177929 
L 331.310936 122.319651 
L 331.635915 122.523199 
L 331.960895 123.220288 
L 332.610854 125.631133 
L 332.935833 125.47532 
L 333.260813 127.064519 
L 333.585792 127.857107 
L 333.910772 127.688994 
L 335.860649 132.275917 
L 336.185628 132.162347 
L 336.510608 132.299312 
L 336.835588 132.565957 
L 338.135506 135.545516 
L 338.460485 136.12957 
L 338.785465 137.316043 
L 339.110444 137.937599 
L 339.435424 138.024739 
L 339.760403 138.639791 
L 340.085383 140.054379 
L 340.735342 141.067994 
L 341.060321 142.108494 
L 341.71028 142.799509 
L 342.03526 143.902002 
L 343.010199 145.752958 
L 344.310117 150.834138 
L 345.285055 152.067704 
L 345.610035 151.635665 
L 345.935014 152.213091 
L 346.259994 152.465473 
L 346.909953 154.276983 
L 347.559912 155.190091 
L 347.884891 155.912583 
L 348.209871 155.713238 
L 348.53485 156.446027 
L 348.85983 155.618526 
L 349.184809 155.700022 
L 350.809707 159.821491 
L 351.134687 159.533212 
L 351.784646 160.700386 
L 352.434605 162.163984 
L 352.759584 162.482627 
L 353.084564 163.212773 
L 353.409543 163.428284 
L 353.734523 164.328403 
L 354.059502 164.189693 
L 354.384482 164.278937 
L 354.709461 165.477087 
L 355.35942 166.112415 
L 355.6844 166.112913 
L 356.00938 166.605635 
L 356.334359 166.533908 
L 356.984318 168.851925 
L 357.634277 169.520598 
L 357.959257 169.540463 
L 358.284236 170.0626 
L 359.259175 173.150834 
L 359.909134 174.533303 
L 360.559093 176.720497 
L 360.884072 176.804858 
L 361.209052 177.984433 
L 361.534031 178.528966 
L 361.859011 180.102607 
L 362.50897 180.526074 
L 362.83395 181.157636 
L 363.483909 181.50735 
L 363.808888 182.019456 
L 364.133868 182.237787 
L 364.458847 183.088842 
L 365.108806 185.542927 
L 365.758765 186.431833 
L 366.408724 188.493663 
L 366.733704 188.970421 
L 367.383663 190.436278 
L 368.033622 191.51328 
L 368.358601 191.200249 
L 370.308479 196.022276 
L 370.958438 197.098032 
L 371.608397 197.865142 
L 372.258356 199.111243 
L 372.908315 199.882758 
L 373.233294 200.649306 
L 373.883253 201.116726 
L 374.858192 203.770553 
L 375.183171 204.2019 
L 375.833131 205.673005 
L 376.808069 207.260839 
L 377.133049 208.261726 
L 377.458028 208.468107 
L 378.107987 210.302995 
L 378.757946 211.610492 
L 381.032803 217.363767 
L 381.682762 219.164153 
L 382.007742 219.683326 
L 382.657701 221.994704 
L 383.632639 224.273107 
L 384.282598 225.630819 
L 384.932557 227.554299 
L 385.907496 229.892357 
L 386.232475 230.456427 
L 388.182352 235.878846 
L 390.782189 242.00516 
L 391.432148 243.577887 
L 391.432148 243.577887 
" clip-path="url(#p9bf0850a85)" style="fill: none; stroke: #ff7f0e; stroke-width: 1.2; stroke-linecap: round"/>
   </g>
   <g id="line2d_17">
    <path d="M 66.777602 243.577887 
L 72.952213 228.535099 
L 79.126824 214.075603 
L 85.301435 200.199399 
L 91.151067 187.591572 
L 97.000698 175.507253 
L 102.85033 163.946442 
L 108.374981 153.50859 
L 113.899633 143.537694 
L 119.424285 134.033754 
L 124.623958 125.515432 
L 129.82363 117.410747 
L 135.023303 109.719697 
L 140.222975 102.442284 
L 145.097668 95.995375 
L 149.972361 89.912014 
L 154.847054 84.1922 
L 159.396767 79.181707 
L 163.94648 74.487905 
L 168.496194 70.110793 
L 173.045907 66.050372 
L 177.270641 62.563547 
L 181.495375 59.349787 
L 185.720108 56.409092 
L 189.944842 53.741461 
L 194.169576 51.346895 
L 198.06933 49.378891 
L 201.969085 47.643558 
L 205.868839 46.140895 
L 209.768593 44.870902 
L 213.668348 43.83358 
L 217.568102 43.028928 
L 221.467856 42.456947 
L 225.36761 42.117636 
L 229.267365 42.010995 
L 233.167119 42.137025 
L 237.066873 42.495725 
L 240.966628 43.087096 
L 244.866382 43.911137 
L 248.766136 44.967848 
L 252.665891 46.25723 
L 256.565645 47.779282 
L 260.465399 49.534005 
L 264.365153 51.521398 
L 268.589887 53.936969 
L 272.814621 56.625605 
L 277.039355 59.587305 
L 281.264089 62.82207 
L 285.488823 66.329899 
L 289.713556 70.110793 
L 294.26327 74.487905 
L 298.812983 79.181707 
L 303.362696 84.1922 
L 307.91241 89.519383 
L 312.787103 95.578508 
L 317.661796 102.00118 
L 322.536488 108.7874 
L 327.736161 116.426745 
L 332.935833 124.479726 
L 338.135506 132.946343 
L 343.335178 141.826597 
L 348.85983 151.715089 
L 354.384482 162.070537 
L 359.909134 172.892942 
L 365.758765 184.860926 
L 371.608397 197.352418 
L 377.458028 210.367419 
L 383.30766 223.905928 
L 389.482271 238.764518 
L 391.432148 243.577887 
L 391.432148 243.577887 
" clip-path="url(#p9bf0850a85)" style="fill: none; stroke-dasharray: 4.44,1.92; stroke-dashoffset: 0; stroke: #ff7f0e; stroke-width: 1.2"/>
   </g>
   <g id="patch_3">
    <path d="M 50.544875 283.891305 
L 50.544875 42.010793 
" style="fill: none; stroke: #262626; stroke-linejoin: miter; stroke-linecap: square"/>
   </g>
   <g id="patch_4">
    <path d="M 66.777602 286.212 
L 391.432148 286.212 
" style="fill: none; stroke: #262626; stroke-linejoin: miter; stroke-linecap: square"/>
   </g>
   <g id="text_16">
    <!-- 1D Brownian bridge sample statistics -->
    <g style="fill: #262626" transform="translate(150.408125 14.1) scale(0.096 -0.096)">
     <defs>
      <path id="ArialMT-44" d="M 494 0 
L 494 4581 
L 2072 4581 
Q 2606 4581 2888 4516 
Q 3281 4425 3559 4188 
Q 3922 3881 4101 3404 
Q 4281 2928 4281 2316 
Q 4281 1794 4159 1391 
Q 4038 988 3847 723 
Q 3656 459 3429 307 
Q 3203 156 2883 78 
Q 2563 0 2147 0 
L 494 0 
z
M 1100 541 
L 2078 541 
Q 2531 541 2789 625 
Q 3047 709 3200 863 
Q 3416 1078 3536 1442 
Q 3656 1806 3656 2325 
Q 3656 3044 3420 3430 
Q 3184 3816 2847 3947 
Q 2603 4041 2063 4041 
L 1100 4041 
L 1100 541 
z
" transform="scale(0.015625)"/>
      <path id="ArialMT-20" transform="scale(0.015625)"/>
      <path id="ArialMT-42" d="M 469 0 
L 469 4581 
L 2188 4581 
Q 2713 4581 3030 4442 
Q 3347 4303 3526 4014 
Q 3706 3725 3706 3409 
Q 3706 3116 3547 2856 
Q 3388 2597 3066 2438 
Q 3481 2316 3704 2022 
Q 3928 1728 3928 1328 
Q 3928 1006 3792 729 
Q 3656 453 3456 303 
Q 3256 153 2954 76 
Q 2653 0 2216 0 
L 469 0 
z
M 1075 2656 
L 2066 2656 
Q 2469 2656 2644 2709 
Q 2875 2778 2992 2937 
Q 3109 3097 3109 3338 
Q 3109 3566 3000 3739 
Q 2891 3913 2687 3977 
Q 2484 4041 1991 4041 
L 1075 4041 
L 1075 2656 
z
M 1075 541 
L 2216 541 
Q 2509 541 2628 563 
Q 2838 600 2978 687 
Q 3119 775 3209 942 
Q 3300 1109 3300 1328 
Q 3300 1584 3169 1773 
Q 3038 1963 2805 2039 
Q 2572 2116 2134 2116 
L 1075 2116 
L 1075 541 
z
" transform="scale(0.015625)"/>
      <path id="ArialMT-72" d="M 416 0 
L 416 3319 
L 922 3319 
L 922 2816 
Q 1116 3169 1280 3281 
Q 1444 3394 1641 3394 
Q 1925 3394 2219 3213 
L 2025 2691 
Q 1819 2813 1613 2813 
Q 1428 2813 1281 2702 
Q 1134 2591 1072 2394 
Q 978 2094 978 1738 
L 978 0 
L 416 0 
z
" transform="scale(0.015625)"/>
      <path id="ArialMT-6f" d="M 213 1659 
Q 213 2581 725 3025 
Q 1153 3394 1769 3394 
Q 2453 3394 2887 2945 
Q 3322 2497 3322 1706 
Q 3322 1066 3130 698 
Q 2938 331 2570 128 
Q 2203 -75 1769 -75 
Q 1072 -75 642 372 
Q 213 819 213 1659 
z
M 791 1659 
Q 791 1022 1069 705 
Q 1347 388 1769 388 
Q 2188 388 2466 706 
Q 2744 1025 2744 1678 
Q 2744 2294 2464 2611 
Q 2184 2928 1769 2928 
Q 1347 2928 1069 2612 
Q 791 2297 791 1659 
z
" transform="scale(0.015625)"/>
      <path id="ArialMT-77" d="M 1034 0 
L 19 3319 
L 600 3319 
L 1128 1403 
L 1325 691 
Q 1338 744 1497 1375 
L 2025 3319 
L 2603 3319 
L 3100 1394 
L 3266 759 
L 3456 1400 
L 4025 3319 
L 4572 3319 
L 3534 0 
L 2950 0 
L 2422 1988 
L 2294 2553 
L 1622 0 
L 1034 0 
z
" transform="scale(0.015625)"/>
      <path id="ArialMT-6e" d="M 422 0 
L 422 3319 
L 928 3319 
L 928 2847 
Q 1294 3394 1984 3394 
Q 2284 3394 2536 3286 
Q 2788 3178 2913 3003 
Q 3038 2828 3088 2588 
Q 3119 2431 3119 2041 
L 3119 0 
L 2556 0 
L 2556 2019 
Q 2556 2363 2490 2533 
Q 2425 2703 2258 2804 
Q 2091 2906 1866 2906 
Q 1506 2906 1245 2678 
Q 984 2450 984 1813 
L 984 0 
L 422 0 
z
" transform="scale(0.015625)"/>
      <path id="ArialMT-62" d="M 941 0 
L 419 0 
L 419 4581 
L 981 4581 
L 981 2947 
Q 1338 3394 1891 3394 
Q 2197 3394 2470 3270 
Q 2744 3147 2920 2923 
Q 3097 2700 3197 2384 
Q 3297 2069 3297 1709 
Q 3297 856 2875 390 
Q 2453 -75 1863 -75 
Q 1275 -75 941 416 
L 941 0 
z
M 934 1684 
Q 934 1088 1097 822 
Q 1363 388 1816 388 
Q 2184 388 2453 708 
Q 2722 1028 2722 1663 
Q 2722 2313 2464 2622 
Q 2206 2931 1841 2931 
Q 1472 2931 1203 2611 
Q 934 2291 934 1684 
z
" transform="scale(0.015625)"/>
      <path id="ArialMT-64" d="M 2575 0 
L 2575 419 
Q 2259 -75 1647 -75 
Q 1250 -75 917 144 
Q 584 363 401 755 
Q 219 1147 219 1656 
Q 219 2153 384 2558 
Q 550 2963 881 3178 
Q 1213 3394 1622 3394 
Q 1922 3394 2156 3267 
Q 2391 3141 2538 2938 
L 2538 4581 
L 3097 4581 
L 3097 0 
L 2575 0 
z
M 797 1656 
Q 797 1019 1065 703 
Q 1334 388 1700 388 
Q 2069 388 2326 689 
Q 2584 991 2584 1609 
Q 2584 2291 2321 2609 
Q 2059 2928 1675 2928 
Q 1300 2928 1048 2622 
Q 797 2316 797 1656 
z
" transform="scale(0.015625)"/>
      <path id="ArialMT-67" d="M 319 -275 
L 866 -356 
Q 900 -609 1056 -725 
Q 1266 -881 1628 -881 
Q 2019 -881 2231 -725 
Q 2444 -569 2519 -288 
Q 2563 -116 2559 434 
Q 2191 0 1641 0 
Q 956 0 581 494 
Q 206 988 206 1678 
Q 206 2153 378 2554 
Q 550 2956 876 3175 
Q 1203 3394 1644 3394 
Q 2231 3394 2613 2919 
L 2613 3319 
L 3131 3319 
L 3131 450 
Q 3131 -325 2973 -648 
Q 2816 -972 2473 -1159 
Q 2131 -1347 1631 -1347 
Q 1038 -1347 672 -1080 
Q 306 -813 319 -275 
z
M 784 1719 
Q 784 1066 1043 766 
Q 1303 466 1694 466 
Q 2081 466 2343 764 
Q 2606 1063 2606 1700 
Q 2606 2309 2336 2618 
Q 2066 2928 1684 2928 
Q 1309 2928 1046 2623 
Q 784 2319 784 1719 
z
" transform="scale(0.015625)"/>
      <path id="ArialMT-73" d="M 197 991 
L 753 1078 
Q 800 744 1014 566 
Q 1228 388 1613 388 
Q 2000 388 2187 545 
Q 2375 703 2375 916 
Q 2375 1106 2209 1216 
Q 2094 1291 1634 1406 
Q 1016 1563 777 1677 
Q 538 1791 414 1992 
Q 291 2194 291 2438 
Q 291 2659 392 2848 
Q 494 3038 669 3163 
Q 800 3259 1026 3326 
Q 1253 3394 1513 3394 
Q 1903 3394 2198 3281 
Q 2494 3169 2634 2976 
Q 2775 2784 2828 2463 
L 2278 2388 
Q 2241 2644 2061 2787 
Q 1881 2931 1553 2931 
Q 1166 2931 1000 2803 
Q 834 2675 834 2503 
Q 834 2394 903 2306 
Q 972 2216 1119 2156 
Q 1203 2125 1616 2013 
Q 2213 1853 2448 1751 
Q 2684 1650 2818 1456 
Q 2953 1263 2953 975 
Q 2953 694 2789 445 
Q 2625 197 2315 61 
Q 2006 -75 1616 -75 
Q 969 -75 630 194 
Q 291 463 197 991 
z
" transform="scale(0.015625)"/>
      <path id="ArialMT-70" d="M 422 -1272 
L 422 3319 
L 934 3319 
L 934 2888 
Q 1116 3141 1344 3267 
Q 1572 3394 1897 3394 
Q 2322 3394 2647 3175 
Q 2972 2956 3137 2557 
Q 3303 2159 3303 1684 
Q 3303 1175 3120 767 
Q 2938 359 2589 142 
Q 2241 -75 1856 -75 
Q 1575 -75 1351 44 
Q 1128 163 984 344 
L 984 -1272 
L 422 -1272 
z
M 931 1641 
Q 931 1000 1190 694 
Q 1450 388 1819 388 
Q 2194 388 2461 705 
Q 2728 1022 2728 1688 
Q 2728 2322 2467 2637 
Q 2206 2953 1844 2953 
Q 1484 2953 1207 2617 
Q 931 2281 931 1641 
z
" transform="scale(0.015625)"/>
      <path id="ArialMT-74" d="M 1650 503 
L 1731 6 
Q 1494 -44 1306 -44 
Q 1000 -44 831 53 
Q 663 150 594 308 
Q 525 466 525 972 
L 525 2881 
L 113 2881 
L 113 3319 
L 525 3319 
L 525 4141 
L 1084 4478 
L 1084 3319 
L 1650 3319 
L 1650 2881 
L 1084 2881 
L 1084 941 
Q 1084 700 1114 631 
Q 1144 563 1211 522 
Q 1278 481 1403 481 
Q 1497 481 1650 503 
z
" transform="scale(0.015625)"/>
      <path id="ArialMT-63" d="M 2588 1216 
L 3141 1144 
Q 3050 572 2676 248 
Q 2303 -75 1759 -75 
Q 1078 -75 664 370 
Q 250 816 250 1647 
Q 250 2184 428 2587 
Q 606 2991 970 3192 
Q 1334 3394 1763 3394 
Q 2303 3394 2647 3120 
Q 2991 2847 3088 2344 
L 2541 2259 
Q 2463 2594 2264 2762 
Q 2066 2931 1784 2931 
Q 1359 2931 1093 2626 
Q 828 2322 828 1663 
Q 828 994 1084 691 
Q 1341 388 1753 388 
Q 2084 388 2306 591 
Q 2528 794 2588 1216 
z
" transform="scale(0.015625)"/>
     </defs>
     <use xlink:href="#ArialMT-31"/>
     <use xlink:href="#ArialMT-44" x="55.615234"/>
     <use xlink:href="#ArialMT-20" x="127.832031"/>
     <use xlink:href="#ArialMT-42" x="155.615234"/>
     <use xlink:href="#ArialMT-72" x="222.314453"/>
     <use xlink:href="#ArialMT-6f" x="255.615234"/>
     <use xlink:href="#ArialMT-77" x="311.230469"/>
     <use xlink:href="#ArialMT-6e" x="383.447266"/>
     <use xlink:href="#ArialMT-69" x="439.0625"/>
     <use xlink:href="#ArialMT-61" x="461.279297"/>
     <use xlink:href="#ArialMT-6e" x="516.894531"/>
     <use xlink:href="#ArialMT-20" x="572.509766"/>
     <use xlink:href="#ArialMT-62" x="600.292969"/>
     <use xlink:href="#ArialMT-72" x="655.908203"/>
     <use xlink:href="#ArialMT-69" x="689.208984"/>
     <use xlink:href="#ArialMT-64" x="711.425781"/>
     <use xlink:href="#ArialMT-67" x="767.041016"/>
     <use xlink:href="#ArialMT-65" x="822.65625"/>
     <use xlink:href="#ArialMT-20" x="878.271484"/>
     <use xlink:href="#ArialMT-73" x="906.054688"/>
     <use xlink:href="#ArialMT-61" x="956.054688"/>
     <use xlink:href="#ArialMT-6d" x="1011.669922"/>
     <use xlink:href="#ArialMT-70" x="1094.970703"/>
     <use xlink:href="#ArialMT-6c" x="1150.585938"/>
     <use xlink:href="#ArialMT-65" x="1172.802734"/>
     <use xlink:href="#ArialMT-20" x="1228.417969"/>
     <use xlink:href="#ArialMT-73" x="1256.201172"/>
     <use xlink:href="#ArialMT-74" x="1306.201172"/>
     <use xlink:href="#ArialMT-61" x="1333.984375"/>
     <use xlink:href="#ArialMT-74" x="1389.599609"/>
     <use xlink:href="#ArialMT-69" x="1417.382812"/>
     <use xlink:href="#ArialMT-73" x="1439.599609"/>
     <use xlink:href="#ArialMT-74" x="1489.599609"/>
     <use xlink:href="#ArialMT-69" x="1517.382812"/>
     <use xlink:href="#ArialMT-63" x="1539.599609"/>
     <use xlink:href="#ArialMT-73" x="1589.599609"/>
    </g>
   </g>
   <g id="legend_1">
    <g id="patch_5">
     <path d="M 319.878 76.9315 
L 401.504875 76.9315 
Q 403.264875 76.9315 403.264875 75.1715 
L 403.264875 26.26 
Q 403.264875 24.5 401.504875 24.5 
L 319.878 24.5 
Q 318.118 24.5 318.118 26.26 
L 318.118 75.1715 
Q 318.118 76.9315 319.878 76.9315 
z
" style="fill: #ffffff; opacity: 0.8; stroke: #cccccc; stroke-width: 0.8; stroke-linejoin: miter"/>
    </g>
    <g id="line2d_18">
     <path d="M 321.638 31.238875 
L 330.438 31.238875 
L 339.238 31.238875 
" style="fill: none; stroke: #1f77b4; stroke-width: 1.2; stroke-linecap: round"/>
    </g>
    <g id="text_17">
     <!-- Mean -->
     <g style="fill: #262626" transform="translate(346.278 34.318875) scale(0.088 -0.088)">
      <defs>
       <path id="ArialMT-4d" d="M 475 0 
L 475 4581 
L 1388 4581 
L 2472 1338 
Q 2622 884 2691 659 
Q 2769 909 2934 1394 
L 4031 4581 
L 4847 4581 
L 4847 0 
L 4263 0 
L 4263 3834 
L 2931 0 
L 2384 0 
L 1059 3900 
L 1059 0 
L 475 0 
z
" transform="scale(0.015625)"/>
      </defs>
      <use xlink:href="#ArialMT-4d"/>
      <use xlink:href="#ArialMT-65" x="83.300781"/>
      <use xlink:href="#ArialMT-61" x="138.916016"/>
      <use xlink:href="#ArialMT-6e" x="194.53125"/>
     </g>
    </g>
    <g id="line2d_19">
     <path d="M 321.638 43.68675 
L 330.438 43.68675 
L 339.238 43.68675 
" style="fill: none; stroke-dasharray: 4.44,1.92; stroke-dashoffset: 0; stroke: #1f77b4; stroke-width: 1.2"/>
    </g>
    <g id="text_18">
     <!-- True mean -->
     <g style="fill: #262626" transform="translate(346.278 46.76675) scale(0.088 -0.088)">
      <use xlink:href="#ArialMT-54"/>
      <use xlink:href="#ArialMT-72" x="57.333984"/>
      <use xlink:href="#ArialMT-75" x="90.634766"/>
      <use xlink:href="#ArialMT-65" x="146.25"/>
      <use xlink:href="#ArialMT-20" x="201.865234"/>
      <use xlink:href="#ArialMT-6d" x="229.648438"/>
      <use xlink:href="#ArialMT-65" x="312.949219"/>
      <use xlink:href="#ArialMT-61" x="368.564453"/>
      <use xlink:href="#ArialMT-6e" x="424.179688"/>
     </g>
    </g>
    <g id="line2d_20">
     <path d="M 321.638 56.134625 
L 330.438 56.134625 
L 339.238 56.134625 
" style="fill: none; stroke: #ff7f0e; stroke-width: 1.2; stroke-linecap: round"/>
    </g>
    <g id="text_19">
     <!-- Variance -->
     <g style="fill: #262626" transform="translate(346.278 59.214625) scale(0.088 -0.088)">
      <use xlink:href="#ArialMT-56"/>
      <use xlink:href="#ArialMT-61" x="59.324219"/>
      <use xlink:href="#ArialMT-72" x="114.939453"/>
      <use xlink:href="#ArialMT-69" x="148.240234"/>
      <use xlink:href="#ArialMT-61" x="170.457031"/>
      <use xlink:href="#ArialMT-6e" x="226.072266"/>
      <use xlink:href="#ArialMT-63" x="281.6875"/>
      <use xlink:href="#ArialMT-65" x="331.6875"/>
     </g>
    </g>
    <g id="line2d_21">
     <path d="M 321.638 68.5825 
L 330.438 68.5825 
L 339.238 68.5825 
" style="fill: none; stroke-dasharray: 4.44,1.92; stroke-dashoffset: 0; stroke: #ff7f0e; stroke-width: 1.2"/>
    </g>
    <g id="text_20">
     <!-- True variance -->
     <g style="fill: #262626" transform="translate(346.278 71.6625) scale(0.088 -0.088)">
      <defs>
       <path id="ArialMT-76" d="M 1344 0 
L 81 3319 
L 675 3319 
L 1388 1331 
Q 1503 1009 1600 663 
Q 1675 925 1809 1294 
L 2547 3319 
L 3125 3319 
L 1869 0 
L 1344 0 
z
" transform="scale(0.015625)"/>
      </defs>
      <use xlink:href="#ArialMT-54"/>
      <use xlink:href="#ArialMT-72" x="57.333984"/>
      <use xlink:href="#ArialMT-75" x="90.634766"/>
      <use xlink:href="#ArialMT-65" x="146.25"/>
      <use xlink:href="#ArialMT-20" x="201.865234"/>
      <use xlink:href="#ArialMT-76" x="229.648438"/>
      <use xlink:href="#ArialMT-61" x="279.648438"/>
      <use xlink:href="#ArialMT-72" x="335.263672"/>
      <use xlink:href="#ArialMT-69" x="368.564453"/>
      <use xlink:href="#ArialMT-61" x="390.78125"/>
      <use xlink:href="#ArialMT-6e" x="446.396484"/>
      <use xlink:href="#ArialMT-63" x="502.011719"/>
      <use xlink:href="#ArialMT-65" x="552.011719"/>
     </g>
    </g>
   </g>
  </g>
 </g>
 <defs>
  <clipPath id="p9bf0850a85">
   <rect x="50.544875" y="20.1" width="357.12" height="266.112"/>
  </clipPath>
 </defs>
</svg>