<?xml version="1.0" encoding="utf-8" standalone="no"?>
<!DOCTYPE svg PUBLIC "-//W3C//DTD SVG 1.1//EN"
  "http://www.w3.org/Graphics/SVG/1.1/DTD/svg11.dtd">
<svg xmlns:xlink="http://www.w3.org/1999/xlink" width="405.061pt" height="322.633875pt" viewBox="0 0 405.061 322.633875" xmlns="http://www.w3.org/2000/svg" version="1.1">
 <metadata>
  <rdf:RDF xmlns:dc="http://purl.org/dc/elements/1.1/" xmlns:cc="http://creativecommons.org/ns#" xmlns:rdf="http://www.w3.org/1999/02/22-rdf-syntax-ns#">
   <cc:Work>
    <dc:type rdf:resource="http://purl.org/dc/dcmitype/StillImage"/>
    <dc:date>2024-09-27T20:17:28.227807</dc:date>
    <dc:format>image/svg+xml</dc:format>
    <dc:creator>
     <cc:Agent>
      <dc:title>Matplotlib v3.9.0, https://matplotlib.org/</dc:title>
     </cc:Agent>
    </dc:creator>
   </cc:Work>
  </rdf:RDF>
 </metadata>
 <defs>
  <style type="text/css">*{stroke-linejoin: round; stroke-linecap: butt}</style>
 </defs>
 <g id="figure_1">
  <g id="patch_1">
   <path d="M 0 322.633875 
L 405.061 322.633875 
L 405.061 0 
L 0 0 
z
" style="fill: #ffffff"/>
  </g>
  <g id="axes_1">
   <g id="patch_2">
    <path d="M 40.741 286.3065 
L 397.861 286.3065 
L 397.861 20.1945 
L 40.741 20.1945 
z
" style="fill: #ffffff"/>
   </g>
   <g id="matplotlib.axis_1">
    <g id="xtick_1">
     <g id="line2d_1">
      <defs>
       <path id="m6ba20c89f9" d="M 0 0 
L 0 4.8 
" style="stroke: #262626"/>
      </defs>
      <g>
       <use xlink:href="#m6ba20c89f9" x="56.648422" y="286.3065" style="fill: #262626; stroke: #262626"/>
      </g>
     </g>
     <g id="text_1">
      <!-- 0 -->
      <g style="fill: #262626" transform="translate(54.20161 300.905375) scale(0.088 -0.088)">
       <defs>
        <path id="ArialMT-30" d="M 266 2259 
Q 266 3072 433 3567 
Q 600 4063 929 4331 
Q 1259 4600 1759 4600 
Q 2128 4600 2406 4451 
Q 2684 4303 2865 4023 
Q 3047 3744 3150 3342 
Q 3253 2941 3253 2259 
Q 3253 1453 3087 958 
Q 2922 463 2592 192 
Q 2263 -78 1759 -78 
Q 1097 -78 719 397 
Q 266 969 266 2259 
z
M 844 2259 
Q 844 1131 1108 757 
Q 1372 384 1759 384 
Q 2147 384 2411 759 
Q 2675 1134 2675 2259 
Q 2675 3391 2411 3762 
Q 2147 4134 1753 4134 
Q 1366 4134 1134 3806 
Q 844 3388 844 2259 
z
" transform="scale(0.015625)"/>
       </defs>
       <use xlink:href="#ArialMT-30"/>
      </g>
     </g>
    </g>
    <g id="xtick_2">
     <g id="line2d_2">
      <g>
       <use xlink:href="#m6ba20c89f9" x="121.644392" y="286.3065" style="fill: #262626; stroke: #262626"/>
      </g>
     </g>
     <g id="text_2">
      <!-- 10 -->
      <g style="fill: #262626" transform="translate(116.750767 300.905375) scale(0.088 -0.088)">
       <defs>
        <path id="ArialMT-31" d="M 2384 0 
L 1822 0 
L 1822 3584 
Q 1619 3391 1289 3197 
Q 959 3003 697 2906 
L 697 3450 
Q 1169 3672 1522 3987 
Q 1875 4303 2022 4600 
L 2384 4600 
L 2384 0 
z
" transform="scale(0.015625)"/>
       </defs>
       <use xlink:href="#ArialMT-31"/>
       <use xlink:href="#ArialMT-30" x="55.615234"/>
      </g>
     </g>
    </g>
    <g id="xtick_3">
     <g id="line2d_3">
      <g>
       <use xlink:href="#m6ba20c89f9" x="186.640362" y="286.3065" style="fill: #262626; stroke: #262626"/>
      </g>
     </g>
     <g id="text_3">
      <!-- 20 -->
      <g style="fill: #262626" transform="translate(181.746737 300.905375) scale(0.088 -0.088)">
       <defs>
        <path id="ArialMT-32" d="M 3222 541 
L 3222 0 
L 194 0 
Q 188 203 259 391 
Q 375 700 629 1000 
Q 884 1300 1366 1694 
Q 2113 2306 2375 2664 
Q 2638 3022 2638 3341 
Q 2638 3675 2398 3904 
Q 2159 4134 1775 4134 
Q 1369 4134 1125 3890 
Q 881 3647 878 3216 
L 300 3275 
Q 359 3922 746 4261 
Q 1134 4600 1788 4600 
Q 2447 4600 2831 4234 
Q 3216 3869 3216 3328 
Q 3216 3053 3103 2787 
Q 2991 2522 2730 2228 
Q 2469 1934 1863 1422 
Q 1356 997 1212 845 
Q 1069 694 975 541 
L 3222 541 
z
" transform="scale(0.015625)"/>
       </defs>
       <use xlink:href="#ArialMT-32"/>
       <use xlink:href="#ArialMT-30" x="55.615234"/>
      </g>
     </g>
    </g>
    <g id="xtick_4">
     <g id="line2d_4">
      <g>
       <use xlink:href="#m6ba20c89f9" x="251.636332" y="286.3065" style="fill: #262626; stroke: #262626"/>
      </g>
     </g>
     <g id="text_4">
      <!-- 30 -->
      <g style="fill: #262626" transform="translate(246.742707 300.905375) scale(0.088 -0.088)">
       <defs>
        <path id="ArialMT-33" d="M 269 1209 
L 831 1284 
Q 928 806 1161 595 
Q 1394 384 1728 384 
Q 2125 384 2398 659 
Q 2672 934 2672 1341 
Q 2672 1728 2419 1979 
Q 2166 2231 1775 2231 
Q 1616 2231 1378 2169 
L 1441 2663 
Q 1497 2656 1531 2656 
Q 1891 2656 2178 2843 
Q 2466 3031 2466 3422 
Q 2466 3731 2256 3934 
Q 2047 4138 1716 4138 
Q 1388 4138 1169 3931 
Q 950 3725 888 3313 
L 325 3413 
Q 428 3978 793 4289 
Q 1159 4600 1703 4600 
Q 2078 4600 2393 4439 
Q 2709 4278 2876 4000 
Q 3044 3722 3044 3409 
Q 3044 3113 2884 2869 
Q 2725 2625 2413 2481 
Q 2819 2388 3044 2092 
Q 3269 1797 3269 1353 
Q 3269 753 2831 336 
Q 2394 -81 1725 -81 
Q 1122 -81 723 278 
Q 325 638 269 1209 
z
" transform="scale(0.015625)"/>
       </defs>
       <use xlink:href="#ArialMT-33"/>
       <use xlink:href="#ArialMT-30" x="55.615234"/>
      </g>
     </g>
    </g>
    <g id="xtick_5">
     <g id="line2d_5">
      <g>
       <use xlink:href="#m6ba20c89f9" x="316.632303" y="286.3065" style="fill: #262626; stroke: #262626"/>
      </g>
     </g>
     <g id="text_5">
      <!-- 40 -->
      <g style="fill: #262626" transform="translate(311.738678 300.905375) scale(0.088 -0.088)">
       <defs>
        <path id="ArialMT-34" d="M 2069 0 
L 2069 1097 
L 81 1097 
L 81 1613 
L 2172 4581 
L 2631 4581 
L 2631 1613 
L 3250 1613 
L 3250 1097 
L 2631 1097 
L 2631 0 
L 2069 0 
z
M 2069 1613 
L 2069 3678 
L 634 1613 
L 2069 1613 
z
" transform="scale(0.015625)"/>
       </defs>
       <use xlink:href="#ArialMT-34"/>
       <use xlink:href="#ArialMT-30" x="55.615234"/>
      </g>
     </g>
    </g>
    <g id="xtick_6">
     <g id="line2d_6">
      <g>
       <use xlink:href="#m6ba20c89f9" x="381.628273" y="286.3065" style="fill: #262626; stroke: #262626"/>
      </g>
     </g>
     <g id="text_6">
      <!-- 50 -->
      <g style="fill: #262626" transform="translate(376.734648 300.905375) scale(0.088 -0.088)">
       <defs>
        <path id="ArialMT-35" d="M 266 1200 
L 856 1250 
Q 922 819 1161 601 
Q 1400 384 1738 384 
Q 2144 384 2425 690 
Q 2706 997 2706 1503 
Q 2706 1984 2436 2262 
Q 2166 2541 1728 2541 
Q 1456 2541 1237 2417 
Q 1019 2294 894 2097 
L 366 2166 
L 809 4519 
L 3088 4519 
L 3088 3981 
L 1259 3981 
L 1013 2750 
Q 1425 3038 1878 3038 
Q 2478 3038 2890 2622 
Q 3303 2206 3303 1553 
Q 3303 931 2941 478 
Q 2500 -78 1738 -78 
Q 1113 -78 717 272 
Q 322 622 266 1200 
z
" transform="scale(0.015625)"/>
       </defs>
       <use xlink:href="#ArialMT-35"/>
       <use xlink:href="#ArialMT-30" x="55.615234"/>
      </g>
     </g>
    </g>
    <g id="text_7">
     <!-- t -->
     <g style="fill: #262626" transform="translate(217.9675 313.525875) scale(0.096 -0.096)">
      <defs>
       <path id="ArialMT-74" d="M 1650 503 
L 1731 6 
Q 1494 -44 1306 -44 
Q 1000 -44 831 53 
Q 663 150 594 308 
Q 525 466 525 972 
L 525 2881 
L 113 2881 
L 113 3319 
L 525 3319 
L 525 4141 
L 1084 4478 
L 1084 3319 
L 1650 3319 
L 1650 2881 
L 1084 2881 
L 1084 941 
Q 1084 700 1114 631 
Q 1144 563 1211 522 
Q 1278 481 1403 481 
Q 1497 481 1650 503 
z
" transform="scale(0.015625)"/>
      </defs>
      <use xlink:href="#ArialMT-74"/>
     </g>
    </g>
   </g>
   <g id="matplotlib.axis_2">
    <g id="ytick_1">
     <g id="line2d_7">
      <defs>
       <path id="m908770197d" d="M 0 0 
L -4.8 0 
" style="stroke: #262626"/>
      </defs>
      <g>
       <use xlink:href="#m908770197d" x="40.741" y="271.326792" style="fill: #262626; stroke: #262626"/>
      </g>
     </g>
     <g id="text_8">
      <!-- 0.0 -->
      <g style="fill: #262626" transform="translate(20.209 274.476229) scale(0.088 -0.088)">
       <defs>
        <path id="ArialMT-2e" d="M 581 0 
L 581 641 
L 1222 641 
L 1222 0 
L 581 0 
z
" transform="scale(0.015625)"/>
       </defs>
       <use xlink:href="#ArialMT-30"/>
       <use xlink:href="#ArialMT-2e" x="55.615234"/>
       <use xlink:href="#ArialMT-30" x="83.398438"/>
      </g>
     </g>
    </g>
    <g id="ytick_2">
     <g id="line2d_8">
      <g>
       <use xlink:href="#m908770197d" x="40.741" y="223.680643" style="fill: #262626; stroke: #262626"/>
      </g>
     </g>
     <g id="text_9">
      <!-- 0.2 -->
      <g style="fill: #262626" transform="translate(20.209 226.83008) scale(0.088 -0.088)">
       <use xlink:href="#ArialMT-30"/>
       <use xlink:href="#ArialMT-2e" x="55.615234"/>
       <use xlink:href="#ArialMT-32" x="83.398438"/>
      </g>
     </g>
    </g>
    <g id="ytick_3">
     <g id="line2d_9">
      <g>
       <use xlink:href="#m908770197d" x="40.741" y="176.034494" style="fill: #262626; stroke: #262626"/>
      </g>
     </g>
     <g id="text_10">
      <!-- 0.4 -->
      <g style="fill: #262626" transform="translate(20.209 179.183931) scale(0.088 -0.088)">
       <use xlink:href="#ArialMT-30"/>
       <use xlink:href="#ArialMT-2e" x="55.615234"/>
       <use xlink:href="#ArialMT-34" x="83.398438"/>
      </g>
     </g>
    </g>
    <g id="ytick_4">
     <g id="line2d_10">
      <g>
       <use xlink:href="#m908770197d" x="40.741" y="128.388345" style="fill: #262626; stroke: #262626"/>
      </g>
     </g>
     <g id="text_11">
      <!-- 0.6 -->
      <g style="fill: #262626" transform="translate(20.209 131.537782) scale(0.088 -0.088)">
       <defs>
        <path id="ArialMT-36" d="M 3184 3459 
L 2625 3416 
Q 2550 3747 2413 3897 
Q 2184 4138 1850 4138 
Q 1581 4138 1378 3988 
Q 1113 3794 959 3422 
Q 806 3050 800 2363 
Q 1003 2672 1297 2822 
Q 1591 2972 1913 2972 
Q 2475 2972 2870 2558 
Q 3266 2144 3266 1488 
Q 3266 1056 3080 686 
Q 2894 316 2569 119 
Q 2244 -78 1831 -78 
Q 1128 -78 684 439 
Q 241 956 241 2144 
Q 241 3472 731 4075 
Q 1159 4600 1884 4600 
Q 2425 4600 2770 4297 
Q 3116 3994 3184 3459 
z
M 888 1484 
Q 888 1194 1011 928 
Q 1134 663 1356 523 
Q 1578 384 1822 384 
Q 2178 384 2434 671 
Q 2691 959 2691 1453 
Q 2691 1928 2437 2201 
Q 2184 2475 1800 2475 
Q 1419 2475 1153 2201 
Q 888 1928 888 1484 
z
" transform="scale(0.015625)"/>
       </defs>
       <use xlink:href="#ArialMT-30"/>
       <use xlink:href="#ArialMT-2e" x="55.615234"/>
       <use xlink:href="#ArialMT-36" x="83.398438"/>
      </g>
     </g>
    </g>
    <g id="ytick_5">
     <g id="line2d_11">
      <g>
       <use xlink:href="#m908770197d" x="40.741" y="80.742196" style="fill: #262626; stroke: #262626"/>
      </g>
     </g>
     <g id="text_12">
      <!-- 0.8 -->
      <g style="fill: #262626" transform="translate(20.209 83.891633) scale(0.088 -0.088)">
       <defs>
        <path id="ArialMT-38" d="M 1131 2484 
Q 781 2613 612 2850 
Q 444 3088 444 3419 
Q 444 3919 803 4259 
Q 1163 4600 1759 4600 
Q 2359 4600 2725 4251 
Q 3091 3903 3091 3403 
Q 3091 3084 2923 2848 
Q 2756 2613 2416 2484 
Q 2838 2347 3058 2040 
Q 3278 1734 3278 1309 
Q 3278 722 2862 322 
Q 2447 -78 1769 -78 
Q 1091 -78 675 323 
Q 259 725 259 1325 
Q 259 1772 486 2073 
Q 713 2375 1131 2484 
z
M 1019 3438 
Q 1019 3113 1228 2906 
Q 1438 2700 1772 2700 
Q 2097 2700 2305 2904 
Q 2513 3109 2513 3406 
Q 2513 3716 2298 3927 
Q 2084 4138 1766 4138 
Q 1444 4138 1231 3931 
Q 1019 3725 1019 3438 
z
M 838 1322 
Q 838 1081 952 856 
Q 1066 631 1291 507 
Q 1516 384 1775 384 
Q 2178 384 2440 643 
Q 2703 903 2703 1303 
Q 2703 1709 2433 1975 
Q 2163 2241 1756 2241 
Q 1359 2241 1098 1978 
Q 838 1716 838 1322 
z
" transform="scale(0.015625)"/>
       </defs>
       <use xlink:href="#ArialMT-30"/>
       <use xlink:href="#ArialMT-2e" x="55.615234"/>
       <use xlink:href="#ArialMT-38" x="83.398438"/>
      </g>
     </g>
    </g>
    <g id="ytick_6">
     <g id="line2d_12">
      <g>
       <use xlink:href="#m908770197d" x="40.741" y="33.096047" style="fill: #262626; stroke: #262626"/>
      </g>
     </g>
     <g id="text_13">
      <!-- 1.0 -->
      <g style="fill: #262626" transform="translate(20.209 36.245484) scale(0.088 -0.088)">
       <use xlink:href="#ArialMT-31"/>
       <use xlink:href="#ArialMT-2e" x="55.615234"/>
       <use xlink:href="#ArialMT-30" x="83.398438"/>
      </g>
     </g>
    </g>
    <g id="text_14">
     <!-- Sensitivity indices for x(t) -->
     <g style="fill: #262626" transform="translate(14.1885 206.3295) rotate(-90) scale(0.096 -0.096)">
      <defs>
       <path id="ArialMT-53" d="M 288 1472 
L 859 1522 
Q 900 1178 1048 958 
Q 1197 738 1509 602 
Q 1822 466 2213 466 
Q 2559 466 2825 569 
Q 3091 672 3220 851 
Q 3350 1031 3350 1244 
Q 3350 1459 3225 1620 
Q 3100 1781 2813 1891 
Q 2628 1963 1997 2114 
Q 1366 2266 1113 2400 
Q 784 2572 623 2826 
Q 463 3081 463 3397 
Q 463 3744 659 4045 
Q 856 4347 1234 4503 
Q 1613 4659 2075 4659 
Q 2584 4659 2973 4495 
Q 3363 4331 3572 4012 
Q 3781 3694 3797 3291 
L 3216 3247 
Q 3169 3681 2898 3903 
Q 2628 4125 2100 4125 
Q 1550 4125 1298 3923 
Q 1047 3722 1047 3438 
Q 1047 3191 1225 3031 
Q 1400 2872 2139 2705 
Q 2878 2538 3153 2413 
Q 3553 2228 3743 1945 
Q 3934 1663 3934 1294 
Q 3934 928 3725 604 
Q 3516 281 3123 101 
Q 2731 -78 2241 -78 
Q 1619 -78 1198 103 
Q 778 284 539 648 
Q 300 1013 288 1472 
z
" transform="scale(0.015625)"/>
       <path id="ArialMT-65" d="M 2694 1069 
L 3275 997 
Q 3138 488 2766 206 
Q 2394 -75 1816 -75 
Q 1088 -75 661 373 
Q 234 822 234 1631 
Q 234 2469 665 2931 
Q 1097 3394 1784 3394 
Q 2450 3394 2872 2941 
Q 3294 2488 3294 1666 
Q 3294 1616 3291 1516 
L 816 1516 
Q 847 969 1125 678 
Q 1403 388 1819 388 
Q 2128 388 2347 550 
Q 2566 713 2694 1069 
z
M 847 1978 
L 2700 1978 
Q 2663 2397 2488 2606 
Q 2219 2931 1791 2931 
Q 1403 2931 1139 2672 
Q 875 2413 847 1978 
z
" transform="scale(0.015625)"/>
       <path id="ArialMT-6e" d="M 422 0 
L 422 3319 
L 928 3319 
L 928 2847 
Q 1294 3394 1984 3394 
Q 2284 3394 2536 3286 
Q 2788 3178 2913 3003 
Q 3038 2828 3088 2588 
Q 3119 2431 3119 2041 
L 3119 0 
L 2556 0 
L 2556 2019 
Q 2556 2363 2490 2533 
Q 2425 2703 2258 2804 
Q 2091 2906 1866 2906 
Q 1506 2906 1245 2678 
Q 984 2450 984 1813 
L 984 0 
L 422 0 
z
" transform="scale(0.015625)"/>
       <path id="ArialMT-73" d="M 197 991 
L 753 1078 
Q 800 744 1014 566 
Q 1228 388 1613 388 
Q 2000 388 2187 545 
Q 2375 703 2375 916 
Q 2375 1106 2209 1216 
Q 2094 1291 1634 1406 
Q 1016 1563 777 1677 
Q 538 1791 414 1992 
Q 291 2194 291 2438 
Q 291 2659 392 2848 
Q 494 3038 669 3163 
Q 800 3259 1026 3326 
Q 1253 3394 1513 3394 
Q 1903 3394 2198 3281 
Q 2494 3169 2634 2976 
Q 2775 2784 2828 2463 
L 2278 2388 
Q 2241 2644 2061 2787 
Q 1881 2931 1553 2931 
Q 1166 2931 1000 2803 
Q 834 2675 834 2503 
Q 834 2394 903 2306 
Q 972 2216 1119 2156 
Q 1203 2125 1616 2013 
Q 2213 1853 2448 1751 
Q 2684 1650 2818 1456 
Q 2953 1263 2953 975 
Q 2953 694 2789 445 
Q 2625 197 2315 61 
Q 2006 -75 1616 -75 
Q 969 -75 630 194 
Q 291 463 197 991 
z
" transform="scale(0.015625)"/>
       <path id="ArialMT-69" d="M 425 3934 
L 425 4581 
L 988 4581 
L 988 3934 
L 425 3934 
z
M 425 0 
L 425 3319 
L 988 3319 
L 988 0 
L 425 0 
z
" transform="scale(0.015625)"/>
       <path id="ArialMT-76" d="M 1344 0 
L 81 3319 
L 675 3319 
L 1388 1331 
Q 1503 1009 1600 663 
Q 1675 925 1809 1294 
L 2547 3319 
L 3125 3319 
L 1869 0 
L 1344 0 
z
" transform="scale(0.015625)"/>
       <path id="ArialMT-79" d="M 397 -1278 
L 334 -750 
Q 519 -800 656 -800 
Q 844 -800 956 -737 
Q 1069 -675 1141 -563 
Q 1194 -478 1313 -144 
Q 1328 -97 1363 -6 
L 103 3319 
L 709 3319 
L 1400 1397 
Q 1534 1031 1641 628 
Q 1738 1016 1872 1384 
L 2581 3319 
L 3144 3319 
L 1881 -56 
Q 1678 -603 1566 -809 
Q 1416 -1088 1222 -1217 
Q 1028 -1347 759 -1347 
Q 597 -1347 397 -1278 
z
" transform="scale(0.015625)"/>
       <path id="ArialMT-20" transform="scale(0.015625)"/>
       <path id="ArialMT-64" d="M 2575 0 
L 2575 419 
Q 2259 -75 1647 -75 
Q 1250 -75 917 144 
Q 584 363 401 755 
Q 219 1147 219 1656 
Q 219 2153 384 2558 
Q 550 2963 881 3178 
Q 1213 3394 1622 3394 
Q 1922 3394 2156 3267 
Q 2391 3141 2538 2938 
L 2538 4581 
L 3097 4581 
L 3097 0 
L 2575 0 
z
M 797 1656 
Q 797 1019 1065 703 
Q 1334 388 1700 388 
Q 2069 388 2326 689 
Q 2584 991 2584 1609 
Q 2584 2291 2321 2609 
Q 2059 2928 1675 2928 
Q 1300 2928 1048 2622 
Q 797 2316 797 1656 
z
" transform="scale(0.015625)"/>
       <path id="ArialMT-63" d="M 2588 1216 
L 3141 1144 
Q 3050 572 2676 248 
Q 2303 -75 1759 -75 
Q 1078 -75 664 370 
Q 250 816 250 1647 
Q 250 2184 428 2587 
Q 606 2991 970 3192 
Q 1334 3394 1763 3394 
Q 2303 3394 2647 3120 
Q 2991 2847 3088 2344 
L 2541 2259 
Q 2463 2594 2264 2762 
Q 2066 2931 1784 2931 
Q 1359 2931 1093 2626 
Q 828 2322 828 1663 
Q 828 994 1084 691 
Q 1341 388 1753 388 
Q 2084 388 2306 591 
Q 2528 794 2588 1216 
z
" transform="scale(0.015625)"/>
       <path id="ArialMT-66" d="M 556 0 
L 556 2881 
L 59 2881 
L 59 3319 
L 556 3319 
L 556 3672 
Q 556 4006 616 4169 
Q 697 4388 901 4523 
Q 1106 4659 1475 4659 
Q 1713 4659 2000 4603 
L 1916 4113 
Q 1741 4144 1584 4144 
Q 1328 4144 1222 4034 
Q 1116 3925 1116 3625 
L 1116 3319 
L 1763 3319 
L 1763 2881 
L 1116 2881 
L 1116 0 
L 556 0 
z
" transform="scale(0.015625)"/>
       <path id="ArialMT-6f" d="M 213 1659 
Q 213 2581 725 3025 
Q 1153 3394 1769 3394 
Q 2453 3394 2887 2945 
Q 3322 2497 3322 1706 
Q 3322 1066 3130 698 
Q 2938 331 2570 128 
Q 2203 -75 1769 -75 
Q 1072 -75 642 372 
Q 213 819 213 1659 
z
M 791 1659 
Q 791 1022 1069 705 
Q 1347 388 1769 388 
Q 2188 388 2466 706 
Q 2744 1025 2744 1678 
Q 2744 2294 2464 2611 
Q 2184 2928 1769 2928 
Q 1347 2928 1069 2612 
Q 791 2297 791 1659 
z
" transform="scale(0.015625)"/>
       <path id="ArialMT-72" d="M 416 0 
L 416 3319 
L 922 3319 
L 922 2816 
Q 1116 3169 1280 3281 
Q 1444 3394 1641 3394 
Q 1925 3394 2219 3213 
L 2025 2691 
Q 1819 2813 1613 2813 
Q 1428 2813 1281 2702 
Q 1134 2591 1072 2394 
Q 978 2094 978 1738 
L 978 0 
L 416 0 
z
" transform="scale(0.015625)"/>
       <path id="ArialMT-78" d="M 47 0 
L 1259 1725 
L 138 3319 
L 841 3319 
L 1350 2541 
Q 1494 2319 1581 2169 
Q 1719 2375 1834 2534 
L 2394 3319 
L 3066 3319 
L 1919 1756 
L 3153 0 
L 2463 0 
L 1781 1031 
L 1600 1309 
L 728 0 
L 47 0 
z
" transform="scale(0.015625)"/>
       <path id="ArialMT-28" d="M 1497 -1347 
Q 1031 -759 709 28 
Q 388 816 388 1659 
Q 388 2403 628 3084 
Q 909 3875 1497 4659 
L 1900 4659 
Q 1522 4009 1400 3731 
Q 1209 3300 1100 2831 
Q 966 2247 966 1656 
Q 966 153 1900 -1347 
L 1497 -1347 
z
" transform="scale(0.015625)"/>
       <path id="ArialMT-29" d="M 791 -1347 
L 388 -1347 
Q 1322 153 1322 1656 
Q 1322 2244 1188 2822 
Q 1081 3291 891 3722 
Q 769 4003 388 4659 
L 791 4659 
Q 1378 3875 1659 3084 
Q 1900 2403 1900 1659 
Q 1900 816 1576 28 
Q 1253 -759 791 -1347 
z
" transform="scale(0.015625)"/>
      </defs>
      <use xlink:href="#ArialMT-53"/>
      <use xlink:href="#ArialMT-65" x="66.699219"/>
      <use xlink:href="#ArialMT-6e" x="122.314453"/>
      <use xlink:href="#ArialMT-73" x="177.929688"/>
      <use xlink:href="#ArialMT-69" x="227.929688"/>
      <use xlink:href="#ArialMT-74" x="250.146484"/>
      <use xlink:href="#ArialMT-69" x="277.929688"/>
      <use xlink:href="#ArialMT-76" x="300.146484"/>
      <use xlink:href="#ArialMT-69" x="350.146484"/>
      <use xlink:href="#ArialMT-74" x="372.363281"/>
      <use xlink:href="#ArialMT-79" x="400.146484"/>
      <use xlink:href="#ArialMT-20" x="450.146484"/>
      <use xlink:href="#ArialMT-69" x="477.929688"/>
      <use xlink:href="#ArialMT-6e" x="500.146484"/>
      <use xlink:href="#ArialMT-64" x="555.761719"/>
      <use xlink:href="#ArialMT-69" x="611.376953"/>
      <use xlink:href="#ArialMT-63" x="633.59375"/>
      <use xlink:href="#ArialMT-65" x="683.59375"/>
      <use xlink:href="#ArialMT-73" x="739.208984"/>
      <use xlink:href="#ArialMT-20" x="789.208984"/>
      <use xlink:href="#ArialMT-66" x="816.992188"/>
      <use xlink:href="#ArialMT-6f" x="844.775391"/>
      <use xlink:href="#ArialMT-72" x="900.390625"/>
      <use xlink:href="#ArialMT-20" x="933.691406"/>
      <use xlink:href="#ArialMT-78" x="961.474609"/>
      <use xlink:href="#ArialMT-28" x="1011.474609"/>
      <use xlink:href="#ArialMT-74" x="1044.775391"/>
      <use xlink:href="#ArialMT-29" x="1072.558594"/>
     </g>
    </g>
   </g>
   <g id="line2d_13">
    <path d="M 56.973727 271.328147 
L 59.901474 271.219711 
L 61.202694 270.90691 
L 62.17861 270.394951 
L 62.82922 269.850932 
L 63.47983 269.091499 
L 64.130441 268.064135 
L 64.781051 266.71475 
L 65.431662 264.988494 
L 66.407577 261.59303 
L 67.383492 257.166854 
L 68.684713 249.88799 
L 70.636543 238.606386 
L 71.287155 235.748211 
L 71.937765 233.728278 
L 72.588375 232.656324 
L 72.91368 232.4795 
L 73.238984 232.531698 
L 73.564289 232.798616 
L 74.214901 233.903835 
L 74.865511 235.636201 
L 75.841426 239.071105 
L 77.142647 244.607068 
L 78.769172 252.484201 
L 80.395698 261.551485 
L 81.69692 269.274403 
L 82.022225 270.688567 
L 82.34753 271.323897 
L 82.672835 270.539883 
L 82.998141 267.473366 
L 83.323444 261.38352 
L 84.299361 234.607947 
L 84.624664 229.804838 
L 84.949971 228.112377 
L 85.275277 228.550837 
L 85.925887 232.341078 
L 87.552411 243.450832 
L 88.528327 248.75804 
L 89.829547 254.527248 
L 91.13077 259.235682 
L 92.43199 263.141767 
L 93.733209 266.409391 
L 95.034429 269.155359 
L 96.010346 270.782247 
L 96.335652 271.145708 
L 96.660956 271.315973 
L 96.986262 271.136074 
L 97.311566 270.280244 
L 97.636872 268.028243 
L 97.962176 262.669874 
L 98.287482 249.959315 
L 98.612789 220.88366 
L 98.938092 175.739281 
L 99.263398 166.331603 
L 99.914008 219.063154 
L 100.239312 234.146813 
L 100.564618 243.453871 
L 101.215228 253.739076 
L 101.865838 259.133605 
L 102.516448 262.447235 
L 103.167058 264.710892 
L 103.817671 266.371147 
L 104.793584 268.176002 
L 105.769501 269.445143 
L 106.745417 270.33327 
L 107.721331 270.918187 
L 108.697247 271.241861 
L 109.673163 271.314057 
L 110.32377 271.203972 
L 110.974383 270.925376 
L 111.624996 270.394375 
L 112.275603 269.428738 
L 112.600907 268.667254 
L 112.926216 267.600566 
L 113.25152 266.064041 
L 113.576823 263.772289 
L 113.902133 260.215548 
L 114.227436 254.479839 
L 114.552739 245.102932 
L 115.203352 217.474926 
L 115.528656 218.405902 
L 116.179263 246.015395 
L 116.504572 254.888571 
L 116.829876 260.328829 
L 117.155179 263.725466 
L 117.805792 267.418235 
L 118.456399 269.205469 
L 119.107012 270.16629 
L 119.757625 270.714993 
L 120.733535 271.137342 
L 121.709452 271.299825 
L 123.010672 271.299262 
L 124.962504 271.054608 
L 129.191474 270.206673 
L 134.396353 269.027961 
L 135.697573 268.507321 
L 136.673489 267.837738 
L 137.324102 267.074218 
L 137.974709 265.720141 
L 138.300019 264.592765 
L 138.625322 262.894581 
L 138.950626 260.234945 
L 139.601239 251.681013 
L 139.926542 252.77733 
L 140.577155 266.162023 
L 140.902458 268.954822 
L 141.227762 270.218301 
L 141.553065 270.80733 
L 142.203678 271.228373 
L 143.179595 271.327687 
L 161.071382 271.288078 
L 161.721988 271.309168 
L 162.047298 271.048901 
L 162.697905 269.417345 
L 163.023202 269.550916 
L 163.673821 270.033188 
L 164.649738 270.335006 
L 166.276261 270.500441 
L 174.40889 271.050524 
L 177.661936 271.305113 
L 178.312555 271.063318 
L 178.637853 270.639656 
L 178.963162 269.540264 
L 179.288472 266.165871 
L 179.613769 253.112117 
L 179.939079 230.104805 
L 180.264376 251.053339 
L 180.589685 261.798789 
L 180.914995 265.723038 
L 181.240292 267.528194 
L 181.565602 268.518083 
L 182.216209 269.542453 
L 182.866828 270.061412 
L 183.842732 270.494771 
L 185.469268 270.881522 
L 187.746398 271.17101 
L 190.674147 271.320172 
L 193.276587 271.235519 
L 194.577813 271.03116 
L 195.553729 270.65499 
L 196.204336 270.10017 
L 196.529633 269.603647 
L 196.854943 268.804184 
L 197.180252 267.414602 
L 197.50555 264.776096 
L 197.830859 259.473688 
L 198.156169 251.061171 
L 198.481466 250.426344 
L 199.132085 264.882715 
L 199.457383 267.678829 
L 199.782692 269.094494 
L 200.108002 269.877872 
L 200.758609 270.644734 
L 201.409215 270.981126 
L 202.385132 271.201416 
L 204.011655 271.312686 
L 207.590011 271.277102 
L 218.975699 270.86246 
L 219.951615 270.612861 
L 220.602222 270.185542 
L 220.927532 269.765966 
L 221.578139 268.690205 
L 221.903436 269.284095 
L 222.228745 270.262299 
L 222.554055 270.826722 
L 223.204662 271.209167 
L 224.180578 271.3146 
L 229.06016 271.327111 
L 241.421752 271.283293 
L 241.747062 271.207079 
L 242.072359 270.990776 
L 242.722966 269.79308 
L 243.698882 270.772631 
L 244.349501 270.980404 
L 245.976025 271.126646 
L 251.506214 271.227732 
L 258.988223 271.262967 
L 259.638842 271.098863 
L 259.96414 270.889837 
L 260.289449 270.442943 
L 260.614759 269.380556 
L 261.265366 264.093756 
L 262.241282 269.538286 
L 262.566592 270.126214 
L 263.217198 270.666215 
L 264.193115 270.975261 
L 265.819638 271.166075 
L 269.397982 271.301138 
L 274.928183 271.295735 
L 277.855933 271.122392 
L 278.831849 270.911809 
L 279.482443 270.579449 
L 279.807765 270.264304 
L 280.133063 269.740429 
L 280.45836 268.85773 
L 280.783682 267.595916 
L 281.108979 266.908633 
L 281.434276 267.895773 
L 281.759598 269.247031 
L 282.084896 270.106494 
L 282.410193 270.582112 
L 283.060812 271.010729 
L 284.036728 271.22081 
L 285.988561 271.314332 
L 293.470571 271.299024 
L 301.277902 271.15922 
L 302.253819 270.958485 
L 303.229735 270.60909 
L 304.530949 271.220802 
L 305.832162 271.30962 
L 312.988875 271.326078 
L 322.422742 271.214651 
L 323.073336 270.914385 
L 323.398658 270.621926 
L 323.723955 270.518139 
L 324.699872 271.017372 
L 325.675788 271.176753 
L 328.278216 271.266368 
L 339.663916 271.306879 
L 341.290426 271.151819 
L 341.941046 270.850467 
L 342.266343 270.504517 
L 342.916962 269.581584 
L 343.242259 269.799837 
L 343.892879 270.614871 
L 344.543473 270.969871 
L 345.519389 271.161612 
L 347.796544 271.281629 
L 354.627935 271.32391 
L 360.80873 271.194025 
L 361.784647 271.04419 
L 362.435266 270.796806 
L 363.411182 270.307162 
L 365.363015 271.20774 
L 367.314848 271.309289 
L 376.098096 271.322214 
L 381.628273 271.290606 
L 381.628273 271.290606 
" clip-path="url(#pa65787ac1a)" style="fill: none; stroke: #1f77b4; stroke-width: 1.2; stroke-linecap: round"/>
   </g>
   <g id="line2d_14">
    <path d="M 56.973727 271.326792 
L 66.407577 271.219025 
L 67.708797 270.98227 
L 68.684713 270.625666 
L 69.985933 269.860726 
L 72.588375 268.082031 
L 73.564289 267.761014 
L 74.540206 267.720279 
L 75.841426 267.982773 
L 78.118562 268.776086 
L 79.419783 269.362256 
L 80.395698 270.000212 
L 82.022225 271.331302 
L 82.34753 271.239759 
L 82.672835 270.613997 
L 82.998141 269.061177 
L 83.323444 266.189704 
L 84.624664 249.693418 
L 84.949971 247.998642 
L 85.275277 247.324959 
L 85.600581 247.290761 
L 85.925887 247.620663 
L 86.576497 248.787284 
L 87.877717 251.805869 
L 89.829547 257.036878 
L 91.78138 262.162268 
L 93.0826 264.995456 
L 94.709126 267.961324 
L 96.660956 271.151815 
L 96.986262 271.365732 
L 97.311566 271.06976 
L 97.636872 269.563929 
L 97.962176 265.069409 
L 98.287482 252.849485 
L 98.612789 221.738114 
L 98.938092 167.268226 
L 99.263398 146.685892 
L 100.239312 216.812476 
L 100.889922 235.366272 
L 101.540535 244.675943 
L 102.191145 250.370534 
L 102.841755 254.402287 
L 103.817671 258.929111 
L 104.793584 262.455666 
L 105.769501 265.290011 
L 106.745417 267.512885 
L 107.721331 269.170397 
L 108.697247 270.328232 
L 109.673163 271.051361 
L 110.32377 271.299152 
L 110.974383 271.323563 
L 111.624996 271.022337 
L 111.9503 270.681076 
L 112.275603 270.142783 
L 112.600907 269.314618 
L 112.926216 268.04236 
L 113.25152 266.060972 
L 113.576823 262.895738 
L 113.902133 257.665239 
L 114.227436 248.708627 
L 114.552739 233.132868 
L 115.203352 180.240239 
L 115.528656 175.293696 
L 116.504572 234.828084 
L 116.829876 245.242334 
L 117.480489 256.708473 
L 118.131096 262.409012 
L 118.781709 265.659049 
L 119.432315 267.69963 
L 120.082928 269.059669 
L 120.733535 269.990644 
L 121.384148 270.623142 
L 122.034761 271.030938 
L 123.010672 271.317891 
L 123.986588 271.304944 
L 124.962504 271.072607 
L 126.589028 270.388507 
L 130.492693 268.546583 
L 132.119217 268.027209 
L 133.745746 267.714669 
L 135.372269 267.606776 
L 136.998793 267.711215 
L 137.974709 267.933778 
L 138.625322 268.276686 
L 138.950626 268.614577 
L 139.275929 269.199405 
L 139.601239 270.085245 
L 139.926542 270.626588 
L 140.902458 269.136637 
L 141.553065 268.889803 
L 142.528982 268.957299 
L 144.480815 269.453987 
L 150.011004 271.01943 
L 151.96283 271.287359 
L 153.914663 271.316265 
L 155.866496 271.13394 
L 157.818323 270.766518 
L 159.444852 270.247369 
L 160.420768 269.692462 
L 161.071382 269.019918 
L 161.396679 268.469401 
L 162.047298 266.669577 
L 162.372595 266.858876 
L 162.697905 269.356775 
L 163.023202 270.840083 
L 163.348512 271.157249 
L 163.999118 270.981309 
L 165.950951 270.211709 
L 167.902784 269.733445 
L 169.529307 269.558675 
L 171.155843 269.60084 
L 173.107664 269.879335 
L 175.384806 270.408219 
L 177.336639 271.090313 
L 178.312555 271.421293 
L 178.637853 271.307033 
L 178.963162 270.568774 
L 179.288472 267.352073 
L 179.613769 251.872638 
L 179.939079 216.589602 
L 180.264376 239.726821 
L 180.589685 254.485533 
L 180.914995 260.345042 
L 181.240292 263.201483 
L 181.565602 264.843254 
L 182.216209 266.642965 
L 182.866828 267.631201 
L 183.842732 268.550539 
L 185.143958 269.379122 
L 187.095791 270.303041 
L 188.722314 270.865163 
L 190.348837 271.213979 
L 191.975361 271.341733 
L 193.276587 271.268965 
L 194.252503 271.057693 
L 194.90311 270.775489 
L 195.553729 270.262609 
L 195.879026 269.84514 
L 196.204336 269.23582 
L 196.529633 268.304052 
L 196.854943 266.790825 
L 197.180252 264.139277 
L 197.50555 259.064206 
L 197.830859 248.773598 
L 198.156169 232.220654 
L 198.481466 230.512236 
L 199.132085 258.524801 
L 199.457383 264.04426 
L 199.782692 266.86181 
L 200.108002 268.433419 
L 200.758609 269.988598 
L 201.409215 270.68057 
L 202.059822 271.029731 
L 203.035739 271.270203 
L 204.336965 271.349094 
L 206.288798 271.230647 
L 214.421426 270.432777 
L 217.674473 270.521267 
L 220.276912 270.763688 
L 221.578139 270.950085 
L 222.228745 270.686336 
L 223.204662 270.710737 
L 229.710767 271.224599 
L 233.614421 271.329958 
L 237.843396 271.197508 
L 240.771145 270.91799 
L 241.421752 270.744494 
L 242.072359 270.332207 
L 242.397668 270.015742 
L 242.722966 270.24416 
L 243.048275 270.851467 
L 243.373585 271.080849 
L 244.024192 271.120841 
L 250.204988 270.816828 
L 253.458046 270.926048 
L 258.012319 271.311305 
L 259.313533 271.398677 
L 259.96414 271.199873 
L 260.289449 270.74858 
L 260.614759 269.429811 
L 260.940056 265.664408 
L 261.265366 260.353442 
L 261.590675 262.175361 
L 261.915972 265.542426 
L 262.241282 267.447699 
L 262.566592 268.495555 
L 263.217198 269.537217 
L 263.867805 270.04061 
L 264.843722 270.451943 
L 266.470257 270.828578 
L 269.072685 271.175734 
L 272.000434 271.33981 
L 274.928183 271.270571 
L 277.205313 271.005562 
L 278.18123 270.732957 
L 278.831849 270.391608 
L 279.482443 269.721569 
L 279.807765 269.112005 
L 280.133063 268.13216 
L 281.108979 263.585449 
L 282.084896 269.624522 
L 282.410193 270.398001 
L 282.735515 270.812127 
L 283.386109 271.17955 
L 284.362026 271.337825 
L 286.313858 271.345044 
L 297.374236 271.123208 
L 317.54316 271.303182 
L 323.398658 271.205314 
L 324.049253 271.059037 
L 330.880668 271.161216 
L 341.290426 271.244518 
L 341.615748 271.116758 
L 341.941046 270.860799 
L 342.266343 270.349785 
L 342.916962 268.630964 
L 343.242259 268.733543 
L 343.892879 269.92545 
L 344.543473 270.541672 
L 345.194092 270.827503 
L 346.495306 271.080573 
L 349.097758 271.266099 
L 353.652018 271.341217 
L 358.856922 271.199909 
L 361.134052 270.951642 
L 362.109969 270.621307 
L 363.085885 270.01473 
L 363.411182 270.09176 
L 364.387099 271.077341 
L 365.037718 271.292632 
L 366.338932 271.364825 
L 381.628273 271.295682 
L 381.628273 271.295682 
" clip-path="url(#pa65787ac1a)" style="fill: none; stroke: #ff7f0e; stroke-width: 1.2; stroke-linecap: round"/>
   </g>
   <g id="line2d_15">
    <path d="M 56.973727 33.129955 
L 58.274948 33.166321 
L 59.250863 33.37906 
L 59.901474 33.725986 
L 60.552084 34.353512 
L 61.202694 35.39385 
L 61.853305 37.011844 
L 62.503915 39.407639 
L 63.154525 42.814677 
L 63.805136 47.502879 
L 64.455746 53.770182 
L 65.106356 61.932189 
L 65.756966 72.300794 
L 66.732882 92.562273 
L 67.708797 118.815752 
L 69.010018 161.773313 
L 70.96185 228.54717 
L 71.937765 253.199968 
L 72.588375 263.979882 
L 73.238984 269.927758 
L 73.564289 271.171153 
L 73.889596 271.352966 
L 74.214901 270.561648 
L 74.540206 268.893079 
L 75.190816 263.31105 
L 75.841426 255.327315 
L 76.817342 240.043555 
L 78.118562 214.864716 
L 79.094478 192.061356 
L 80.070393 164.099395 
L 81.046308 127.716226 
L 82.022225 80.185808 
L 82.672835 49.841875 
L 82.998141 43.802263 
L 83.323444 52.044398 
L 83.648751 79.437656 
L 84.949971 241.612099 
L 85.275277 258.942613 
L 85.600581 267.82177 
L 85.925887 271.20161 
L 86.251191 271.229873 
L 86.576497 269.307603 
L 87.227107 262.759986 
L 88.853633 244.647572 
L 89.829547 236.160328 
L 90.805463 229.946238 
L 91.456073 226.968718 
L 92.106683 224.788947 
L 92.757293 223.26554 
L 93.407906 222.251276 
L 94.058516 221.60735 
L 95.034429 221.0757 
L 96.335652 220.746268 
L 96.986262 220.760113 
L 97.311566 220.963729 
L 97.636872 221.571975 
L 97.962176 223.225337 
L 98.287482 227.699259 
L 98.612789 239.407087 
L 98.938092 261.02503 
L 99.263398 271.247361 
L 100.239312 247.694693 
L 100.564618 244.023173 
L 100.889922 241.779518 
L 101.215228 240.422256 
L 101.540535 239.647821 
L 101.865838 239.281541 
L 102.191145 239.218707 
L 102.516448 239.394073 
L 103.167058 240.302117 
L 103.817671 241.794288 
L 104.793584 244.852715 
L 106.094807 249.897903 
L 108.697247 260.283283 
L 109.998467 264.626828 
L 111.299687 268.23498 
L 112.275603 270.305372 
L 112.600907 270.759543 
L 112.926216 270.980345 
L 113.25152 270.804326 
L 113.576823 269.91396 
L 113.902133 267.669901 
L 114.227436 262.751673 
L 114.552739 252.538193 
L 114.878043 233.267368 
L 115.203352 207.15597 
L 115.528656 194.399997 
L 115.853959 204.170754 
L 116.504572 233.023307 
L 117.155179 248.517143 
L 117.805792 256.61049 
L 118.456399 261.430074 
L 119.107012 264.616844 
L 119.757625 266.869188 
L 120.408232 268.512982 
L 121.058845 269.710791 
L 121.709452 270.548115 
L 122.360065 271.073376 
L 123.010672 271.318612 
L 123.661285 271.310972 
L 124.311891 271.078779 
L 125.287808 270.381199 
L 126.263724 269.377688 
L 130.16739 264.941119 
L 131.1433 264.273648 
L 132.119217 263.942386 
L 132.76983 263.93934 
L 133.420437 264.133303 
L 134.07105 264.547262 
L 134.721663 265.210079 
L 135.372269 266.159575 
L 136.022882 267.445275 
L 136.673489 269.124086 
L 138.300019 274.2105 
L 138.625322 273.766327 
L 138.950626 269.874341 
L 139.275929 256.444156 
L 139.926542 177.564001 
L 140.251845 169.499823 
L 141.227762 217.076508 
L 141.878375 232.33625 
L 142.528982 240.94032 
L 143.179595 246.537196 
L 143.830201 250.596354 
L 144.806118 255.159883 
L 145.782034 258.718101 
L 147.083254 262.581276 
L 148.384474 265.751932 
L 149.685694 268.298339 
L 150.66161 269.760985 
L 151.637527 270.790888 
L 152.28814 271.216993 
L 152.938747 271.425142 
L 153.58936 271.411241 
L 154.239966 271.173779 
L 154.890579 270.711198 
L 155.541193 270.01773 
L 156.191799 269.077181 
L 156.842412 267.853534 
L 157.493019 266.275603 
L 158.143632 264.207947 
L 158.794239 261.3896 
L 159.444852 257.285769 
L 160.095459 250.674128 
L 160.420768 245.568365 
L 160.746072 238.247295 
L 161.071382 227.064602 
L 161.396679 208.643391 
L 161.721988 175.988599 
L 162.372595 73.904574 
L 163.348512 247.061223 
L 163.673821 261.275942 
L 163.999118 267.460752 
L 164.324428 270.246481 
L 164.649738 271.457744 
L 164.975035 271.881774 
L 165.300344 271.888449 
L 165.950951 271.309266 
L 167.252177 269.414112 
L 169.20401 266.589167 
L 170.505224 265.121743 
L 171.48114 264.317066 
L 172.457057 263.76848 
L 173.432973 263.442878 
L 174.734199 263.261467 
L 176.68602 263.26033 
L 178.963162 263.381988 
L 179.288472 263.699876 
L 179.613769 265.462448 
L 179.939079 270.345552 
L 180.589685 266.292428 
L 180.914995 265.593138 
L 181.240292 265.290141 
L 181.890911 265.119005 
L 182.866828 265.271765 
L 183.842732 265.65966 
L 185.143958 266.428521 
L 186.770481 267.674111 
L 189.698231 269.965699 
L 190.999457 270.692516 
L 192.30067 271.146246 
L 193.276587 271.290169 
L 194.252503 271.225279 
L 194.90311 271.006623 
L 195.553729 270.53027 
L 195.879026 270.119154 
L 196.204336 269.505387 
L 196.529633 268.553315 
L 196.854943 266.993044 
L 197.180252 264.243099 
L 197.50555 258.95814 
L 197.830859 248.204482 
L 198.156169 230.824181 
L 198.481466 228.866524 
L 199.132085 258.111503 
L 199.457383 263.902349 
L 199.782692 266.859339 
L 200.108002 268.505259 
L 200.433299 269.491927 
L 201.083906 270.528789 
L 201.734525 270.992733 
L 202.385132 271.194682 
L 203.361048 271.243082 
L 204.662262 271.037315 
L 206.288798 270.520813 
L 210.517761 268.997646 
L 211.818987 268.819026 
L 213.1202 268.877468 
L 214.421426 269.186882 
L 215.72264 269.750228 
L 217.023866 270.580915 
L 218.32508 271.717268 
L 219.951615 273.27501 
L 220.276912 273.186693 
L 220.602222 272.314019 
L 220.927532 269.360498 
L 221.252829 261.234822 
L 221.578139 245.556741 
L 221.903436 235.499494 
L 222.228745 240.192059 
L 222.879352 253.389999 
L 223.529971 259.827036 
L 224.180578 263.162161 
L 224.831185 265.184618 
L 225.481792 266.562984 
L 226.457708 268.003868 
L 227.433625 269.031251 
L 228.734851 270.033088 
L 230.036064 270.747093 
L 231.33729 271.219568 
L 232.638517 271.456576 
L 233.93973 271.456463 
L 235.240956 271.218504 
L 236.54217 270.725483 
L 237.518086 270.141974 
L 238.494003 269.268468 
L 239.14461 268.407913 
L 239.795229 267.131604 
L 240.445836 265.021096 
L 240.771145 263.346603 
L 241.096442 260.878688 
L 241.421752 256.962035 
L 241.747062 250.16352 
L 242.072359 237.41741 
L 242.397668 216.968445 
L 242.722966 217.64999 
L 243.048275 247.188206 
L 243.373585 262.917399 
L 243.698882 268.709581 
L 244.024192 270.917476 
L 244.349501 271.785431 
L 244.674799 272.096387 
L 245.000108 272.154236 
L 245.650715 271.964145 
L 250.204988 269.852416 
L 251.831511 269.469589 
L 253.458046 269.307876 
L 256.385783 269.311631 
L 258.988223 269.240521 
L 259.96414 269.051082 
L 260.940056 268.766275 
L 261.590675 270.352094 
L 261.915972 270.39841 
L 262.891889 270.15905 
L 264.193115 270.112569 
L 266.144935 270.311047 
L 272.97635 271.329595 
L 275.25348 271.281537 
L 277.530611 271.022069 
L 278.831849 270.655165 
L 279.482443 270.231474 
L 279.807765 269.848965 
L 280.133063 269.229841 
L 280.45836 268.210526 
L 280.783682 266.79057 
L 281.108979 266.07785 
L 282.084896 269.755041 
L 282.410193 270.269137 
L 283.060812 270.708683 
L 284.036728 270.886592 
L 285.988561 270.870009 
L 293.145274 270.573564 
L 295.422404 270.833252 
L 297.699534 271.320801 
L 301.277902 272.18837 
L 301.603199 272.063279 
L 301.928521 271.690868 
L 302.253819 270.78546 
L 302.579116 268.766683 
L 303.229735 260.780827 
L 303.555032 260.032865 
L 304.530949 266.053119 
L 305.181568 268.098683 
L 305.832162 269.201338 
L 306.482782 269.870837 
L 307.458698 270.485953 
L 308.759912 270.955441 
L 310.386447 271.267879 
L 312.33828 271.419333 
L 314.61541 271.386385 
L 316.89254 271.155951 
L 318.844373 270.732706 
L 320.145587 270.189169 
L 320.796206 269.73477 
L 321.446825 269.015342 
L 322.09742 267.722099 
L 322.422742 266.64012 
L 323.398658 262.30969 
L 324.374575 271.307182 
L 324.699872 272.023589 
L 325.025169 272.228708 
L 325.675788 272.167643 
L 329.254132 271.209592 
L 331.531287 270.92853 
L 334.133714 270.855084 
L 339.338594 270.794696 
L 340.965129 270.57171 
L 342.591665 270.190981 
L 343.567581 271.487726 
L 344.218176 271.50623 
L 346.495306 271.299867 
L 349.748377 271.304662 
L 355.929173 271.32224 
L 359.832839 271.378277 
L 361.784647 271.627481 
L 362.760563 271.734213 
L 363.085885 271.553675 
L 363.73648 270.753738 
L 364.061802 270.554768 
L 364.712396 270.557908 
L 367.314848 270.903708 
L 370.893192 271.064381 
L 376.748691 271.31022 
L 381.628273 271.69647 
L 381.628273 271.69647 
" clip-path="url(#pa65787ac1a)" style="fill: none; stroke: #2ca02c; stroke-width: 1.2; stroke-linecap: round"/>
   </g>
   <g id="line2d_16">
    <path d="M 56.973727 271.331701 
L 64.130441 270.994824 
L 68.359408 270.772689 
L 70.636543 270.918111 
L 74.865511 271.323108 
L 77.142647 271.232793 
L 79.094478 270.939582 
L 80.395698 270.572535 
L 81.371615 270.123443 
L 82.34753 269.444001 
L 82.998141 268.982269 
L 83.323444 268.899512 
L 83.648751 269.02641 
L 84.299361 269.864419 
L 84.949971 270.723043 
L 85.600581 271.160653 
L 86.251191 271.30955 
L 87.552411 271.266843 
L 90.805463 270.77142 
L 97.636872 269.629496 
L 98.287482 269.396016 
L 98.612789 269.475428 
L 99.588702 271.324657 
L 101.540535 270.560032 
L 103.492365 270.281512 
L 106.094807 270.173332 
L 108.697247 270.299483 
L 111.624996 270.6691 
L 113.25152 271.054725 
L 114.227436 271.332855 
L 114.552739 271.282222 
L 114.878043 270.881114 
L 115.528656 268.674462 
L 115.853959 268.221652 
L 116.179263 268.350452 
L 117.155179 269.123611 
L 118.131096 269.575063 
L 119.757625 269.988619 
L 123.335981 270.561873 
L 128.215557 271.161248 
L 131.46861 271.324033 
L 134.07105 271.229504 
L 135.697573 270.954177 
L 136.673489 270.568078 
L 137.324102 270.073096 
L 137.649406 269.678223 
L 137.974709 269.106398 
L 138.300019 268.23693 
L 138.625322 266.837378 
L 138.950626 264.455013 
L 139.275929 260.346121 
L 139.601239 254.59312 
L 139.926542 252.580723 
L 140.577155 263.687025 
L 140.902458 266.956475 
L 141.227762 268.706505 
L 141.553065 269.682882 
L 142.203678 270.619864 
L 142.854291 271.008845 
L 143.830201 271.239436 
L 145.456731 271.323426 
L 149.685694 271.211834 
L 154.890579 271.155252 
L 161.721988 271.250607 
L 162.047298 271.049954 
L 162.372595 270.609378 
L 162.697905 270.43553 
L 163.673821 270.945382 
L 164.975035 271.144417 
L 168.228094 271.285294 
L 173.758283 271.30712 
L 177.661936 271.134151 
L 178.637853 270.905297 
L 178.963162 270.697888 
L 179.288472 270.234271 
L 179.939079 268.106915 
L 180.264376 270.410056 
L 180.589685 271.099031 
L 181.240292 271.317612 
L 183.192125 271.300331 
L 192.30067 271.153413 
L 196.529633 271.278186 
L 198.156169 271.352334 
L 198.481466 271.005998 
L 198.806776 270.837181 
L 213.1202 271.322994 
L 218.650389 271.237504 
L 219.951615 271.081053 
L 220.602222 270.835832 
L 220.927532 270.577302 
L 221.578139 269.74712 
L 221.903436 269.955465 
L 222.554055 270.898844 
L 223.204662 271.192679 
L 224.505888 271.309027 
L 229.385458 271.305269 
L 242.072359 271.200479 
L 242.722966 270.816795 
L 243.698882 271.172571 
L 245.325418 271.281727 
L 252.15682 271.325727 
L 259.638842 271.21956 
L 260.614759 271.082877 
L 260.940056 270.993119 
L 261.265366 271.048516 
L 261.915972 271.335918 
L 263.867805 271.326546 
L 274.277564 271.276865 
L 280.133063 271.395122 
L 281.108979 271.382568 
L 281.759598 271.240372 
L 284.036728 271.254844 
L 296.39832 271.323797 
L 302.253819 271.223789 
L 303.229735 271.11571 
L 304.856246 271.305729 
L 310.386447 271.319486 
L 323.073336 271.233115 
L 323.723955 271.167557 
L 325.350491 271.305027 
L 332.181881 271.325594 
L 342.591665 271.387893 
L 343.242259 271.439992 
L 345.519389 271.329979 
L 355.929173 271.312244 
L 381.628273 271.321227 
L 381.628273 271.321227 
" clip-path="url(#pa65787ac1a)" style="fill: none; stroke: #d62728; stroke-width: 1.2; stroke-linecap: round"/>
   </g>
   <g id="line2d_17">
    <path d="M 56.973727 271.341296 
L 59.576169 271.044002 
L 60.226779 270.686583 
L 60.877389 270.05808 
L 61.528 269.03704 
L 62.17861 267.477379 
L 62.82922 265.202094 
L 63.47983 262.006325 
L 64.130441 257.657383 
L 64.781051 251.903564 
L 65.431662 244.484234 
L 66.082271 235.155738 
L 67.058187 217.187759 
L 68.034103 194.374097 
L 69.660628 148.687177 
L 70.96185 112.864093 
L 71.937765 92.131839 
L 72.588375 82.702016 
L 73.238984 77.048336 
L 73.564289 75.580262 
L 73.889596 74.949655 
L 74.214901 75.089905 
L 74.540206 75.929048 
L 74.865511 77.393246 
L 75.516121 81.917115 
L 76.166732 88.167336 
L 77.142647 100.046572 
L 78.118562 114.55256 
L 79.094478 132.108437 
L 80.070393 154.279131 
L 80.721003 173.128908 
L 81.371615 196.834699 
L 82.34753 242.771205 
L 82.998141 269.148387 
L 83.323444 270.084272 
L 83.648751 255.841233 
L 84.299361 190.315991 
L 84.949971 130.655911 
L 85.275277 113.252071 
L 85.600581 102.558606 
L 85.925887 96.522458 
L 86.251191 93.507871 
L 86.576497 92.375704 
L 86.901801 92.376456 
L 87.227107 93.025764 
L 89.504243 99.58957 
L 89.829547 99.986252 
L 90.154853 100.197287 
L 90.480157 100.22901 
L 90.805463 100.092054 
L 91.456073 99.367999 
L 92.106683 98.150392 
L 93.0826 95.675917 
L 94.709126 90.64414 
L 96.335652 85.651909 
L 96.660956 85.035147 
L 96.986262 84.906385 
L 97.311566 85.787814 
L 97.636872 88.858448 
L 97.962176 96.976365 
L 98.287482 117.392052 
L 98.612789 166.036924 
L 98.938092 244.735404 
L 99.263398 265.26135 
L 99.914008 177.09542 
L 100.239312 150.50986 
L 100.889922 122.219865 
L 101.540535 107.618924 
L 102.191145 98.108773 
L 103.167058 87.532583 
L 104.793584 73.119489 
L 106.420111 60.441494 
L 107.721331 51.849437 
L 108.697247 46.529094 
L 109.673163 42.21237 
L 110.64908 38.957723 
L 111.299687 37.530416 
L 111.624996 37.135963 
L 111.9503 37.045781 
L 112.275603 37.381546 
L 112.600907 38.34336 
L 112.926216 40.269601 
L 113.25152 43.753018 
L 113.576823 49.874506 
L 113.902133 60.683314 
L 114.227436 80.13395 
L 114.552739 115.382247 
L 115.203352 244.021064 
L 115.528656 263.069812 
L 116.829876 102.964176 
L 117.480489 74.086898 
L 118.131096 59.193472 
L 118.781709 50.41202 
L 119.432315 44.722557 
L 120.082928 40.816742 
L 120.733535 38.067063 
L 121.384148 36.147681 
L 122.034761 34.877025 
L 122.685368 34.143996 
L 123.335981 33.870993 
L 123.986588 33.994047 
L 124.637201 34.453179 
L 125.287808 35.188082 
L 126.263724 36.674219 
L 127.890254 39.684873 
L 129.84208 43.232161 
L 131.1433 45.12631 
L 132.119217 46.183318 
L 133.095133 46.888133 
L 134.07105 47.225758 
L 134.721663 47.250707 
L 135.697573 47.031919 
L 136.673489 46.715437 
L 136.998793 46.708521 
L 137.324102 46.866223 
L 137.649406 47.348386 
L 137.974709 48.465615 
L 138.300019 50.857576 
L 138.625322 55.925165 
L 138.950626 66.887586 
L 139.275929 90.767337 
L 139.926542 175.073161 
L 140.251845 162.105259 
L 140.902458 105.458928 
L 141.227762 90.038042 
L 141.878375 73.13234 
L 142.528982 64.368381 
L 143.179595 58.904225 
L 143.830201 55.003337 
L 144.806118 50.597084 
L 146.107338 46.023984 
L 147.408558 42.220094 
L 148.709784 38.981308 
L 150.011004 36.357282 
L 150.98692 34.881498 
L 151.637527 34.169569 
L 152.28814 33.693653 
L 152.938747 33.463434 
L 153.58936 33.482916 
L 154.239966 33.75146 
L 154.890579 34.266922 
L 155.541193 35.030111 
L 156.191799 36.051351 
L 156.842412 37.360417 
L 157.493019 39.022033 
L 158.143632 41.165329 
L 158.794239 44.045375 
L 159.444852 48.193394 
L 160.095459 54.836236 
L 160.420768 59.962568 
L 160.746072 67.325631 
L 161.071382 78.612457 
L 161.396679 97.310397 
L 161.721988 130.739632 
L 162.372595 239.167113 
L 163.348512 63.214134 
L 163.673821 47.940512 
L 163.999118 41.111754 
L 164.324428 37.910668 
L 164.649738 36.416566 
L 164.975035 35.791497 
L 165.300344 35.637232 
L 165.625654 35.750403 
L 166.276261 36.384446 
L 167.577475 38.197658 
L 169.20401 40.413642 
L 170.179927 41.468861 
L 171.155843 42.230275 
L 172.131747 42.67153 
L 173.107664 42.802522 
L 174.08358 42.6553 
L 175.059496 42.264397 
L 176.035413 41.649836 
L 177.336639 40.49901 
L 177.987246 39.88337 
L 178.312555 39.714607 
L 178.637853 39.941617 
L 178.963162 41.472468 
L 179.288472 48.073463 
L 179.613769 79.310754 
L 179.939079 148.675718 
L 180.264376 101.289468 
L 180.589685 71.786695 
L 180.914995 60.103542 
L 181.240292 54.379376 
L 181.565602 51.052282 
L 182.216209 47.310033 
L 182.866828 45.148163 
L 183.842732 42.979165 
L 185.143958 40.795244 
L 187.095791 37.984648 
L 188.722314 35.978265 
L 190.02354 34.720473 
L 190.999457 34.029717 
L 191.975361 33.577088 
L 192.951277 33.393728 
L 193.601896 33.459728 
L 194.252503 33.740427 
L 194.90311 34.360214 
L 195.22842 34.874227 
L 195.553729 35.602031 
L 195.879026 36.649511 
L 196.204336 38.20054 
L 196.529633 40.593736 
L 196.854943 44.50046 
L 197.180252 51.363581 
L 197.50555 64.510847 
L 197.830859 91.163606 
L 198.156169 133.986171 
L 198.481466 138.287432 
L 199.132085 65.716852 
L 199.457383 51.456532 
L 199.782692 44.194926 
L 200.108002 40.16059 
L 200.433299 37.743609 
L 201.083906 35.194259 
L 201.734525 34.026352 
L 202.385132 33.472196 
L 203.035739 33.240713 
L 204.011655 33.235203 
L 204.987572 33.478344 
L 206.288798 34.03534 
L 211.168367 36.4486 
L 212.469593 36.75456 
L 213.770807 36.854725 
L 215.397343 36.742775 
L 218.650389 36.385099 
L 219.300996 36.671748 
L 219.626306 37.042501 
L 219.951615 37.73215 
L 220.276912 39.032029 
L 220.602222 41.576395 
L 220.927532 46.773471 
L 221.252829 57.156574 
L 221.578139 71.768292 
L 221.903436 74.71945 
L 222.554055 54.72315 
L 222.879352 48.798711 
L 223.204662 45.189882 
L 223.855269 41.289122 
L 224.505888 39.280296 
L 225.156495 38.037514 
L 226.132411 36.798679 
L 227.433625 35.651048 
L 229.06016 34.582524 
L 230.686684 33.80789 
L 231.987897 33.428177 
L 233.289123 33.297597 
L 234.590337 33.428191 
L 235.891563 33.81347 
L 237.192789 34.463318 
L 238.168693 35.182559 
L 238.819312 35.845697 
L 239.469919 36.773915 
L 240.120526 38.216529 
L 240.445836 39.304209 
L 240.771145 40.838496 
L 241.096442 43.144932 
L 241.421752 46.901239 
L 241.747062 53.643308 
L 242.072359 66.880741 
L 242.397668 89.976643 
L 242.722966 94.236682 
L 243.048275 64.827584 
L 243.373585 47.253362 
L 243.698882 40.128882 
L 244.024192 37.068458 
L 244.349501 35.628953 
L 244.674799 34.91109 
L 245.000108 34.547933 
L 245.650715 34.306582 
L 246.626631 34.400484 
L 248.903774 35.052831 
L 250.855594 35.53153 
L 252.48213 35.701911 
L 254.108653 35.61305 
L 255.735177 35.273976 
L 257.3617 34.703718 
L 259.638842 33.805788 
L 259.96414 34.004157 
L 260.289449 34.850699 
L 260.614759 37.689523 
L 260.940056 46.431117 
L 261.265366 59.752924 
L 261.590675 56.345233 
L 261.915972 48.459794 
L 262.241282 43.821546 
L 262.566592 41.204648 
L 263.217198 38.524136 
L 263.867805 37.176191 
L 264.518412 36.343068 
L 265.494341 35.511749 
L 266.795555 34.745209 
L 268.42209 34.036092 
L 270.373898 33.439125 
L 272.000434 33.170978 
L 273.62697 33.129629 
L 275.25348 33.333706 
L 276.554719 33.739064 
L 277.530611 34.300575 
L 278.18123 34.918104 
L 278.831849 35.934118 
L 279.157146 36.719757 
L 279.482443 37.833578 
L 279.807765 39.486433 
L 280.133063 42.038637 
L 280.783682 50.679839 
L 281.108979 51.474864 
L 281.759598 39.027897 
L 282.084896 35.646405 
L 282.410193 34.027331 
L 282.735515 33.253904 
L 283.060812 32.885182 
L 283.711431 32.663014 
L 284.687348 32.761616 
L 291.193441 34.056824 
L 293.470571 34.136328 
L 299.651367 34.163549 
L 300.627283 34.518952 
L 301.277902 35.103893 
L 301.603199 35.645496 
L 301.928521 36.518108 
L 302.253819 37.974126 
L 302.579116 40.380372 
L 302.904413 43.682333 
L 303.229735 45.631577 
L 303.555032 43.746827 
L 304.205652 38.096286 
L 304.530949 36.613998 
L 305.181568 35.118987 
L 305.832162 34.447769 
L 306.808079 33.959911 
L 308.109317 33.630309 
L 310.386447 33.317079 
L 312.988875 33.192633 
L 315.26603 33.305463 
L 317.868457 33.649038 
L 319.82029 34.082 
L 320.796206 34.481578 
L 321.446825 34.970785 
L 321.772123 35.368844 
L 322.09742 35.965571 
L 322.422742 36.915073 
L 322.748039 38.496816 
L 323.398658 43.583006 
L 323.723955 42.655328 
L 324.374575 36.685025 
L 324.699872 35.363207 
L 325.025169 34.672834 
L 325.675788 34.076576 
L 326.326408 33.867287 
L 327.627621 33.769338 
L 335.76025 33.672297 
L 340.965129 33.128195 
L 341.290426 33.235814 
L 341.615748 33.490627 
L 341.941046 34.052635 
L 342.266343 35.244171 
L 342.916962 39.5885 
L 343.242259 39.525425 
L 343.892879 36.699139 
L 344.543473 35.150042 
L 345.194092 34.410679 
L 345.844711 34.001672 
L 346.820628 33.650998 
L 348.447139 33.347097 
L 351.049591 33.125724 
L 353.97734 33.088975 
L 356.905089 33.28334 
L 358.856922 33.61557 
L 360.158136 34.045564 
L 361.134052 34.636894 
L 361.784647 35.309859 
L 362.760563 36.867817 
L 363.085885 36.948201 
L 363.411182 36.027225 
L 364.061802 33.21051 
L 364.387099 32.583609 
L 364.712396 32.343181 
L 365.363015 32.321512 
L 370.242598 33.239974 
L 372.845025 33.375581 
L 380.652356 33.566978 
L 381.628273 33.774719 
L 381.628273 33.774719 
" clip-path="url(#pa65787ac1a)" style="fill: none; stroke: #9467bd; stroke-width: 1.2; stroke-linecap: round"/>
   </g>
   <g id="patch_3">
    <path d="M 40.741 271.326792 
L 40.741 33.096047 
" style="fill: none; stroke: #262626; stroke-linejoin: miter; stroke-linecap: square"/>
   </g>
   <g id="patch_4">
    <path d="M 56.648422 286.3065 
L 381.628273 286.3065 
" style="fill: none; stroke: #262626; stroke-linejoin: miter; stroke-linecap: square"/>
   </g>
   <g id="text_15">
    <!-- First Order Indices for x(t) -->
    <g style="fill: #262626" transform="translate(164.62975 14.1945) scale(0.096 -0.096)">
     <defs>
      <path id="ArialMT-46" d="M 525 0 
L 525 4581 
L 3616 4581 
L 3616 4041 
L 1131 4041 
L 1131 2622 
L 3281 2622 
L 3281 2081 
L 1131 2081 
L 1131 0 
L 525 0 
z
" transform="scale(0.015625)"/>
      <path id="ArialMT-4f" d="M 309 2231 
Q 309 3372 921 4017 
Q 1534 4663 2503 4663 
Q 3138 4663 3647 4359 
Q 4156 4056 4423 3514 
Q 4691 2972 4691 2284 
Q 4691 1588 4409 1038 
Q 4128 488 3612 205 
Q 3097 -78 2500 -78 
Q 1853 -78 1343 234 
Q 834 547 571 1087 
Q 309 1628 309 2231 
z
M 934 2222 
Q 934 1394 1379 917 
Q 1825 441 2497 441 
Q 3181 441 3623 922 
Q 4066 1403 4066 2288 
Q 4066 2847 3877 3264 
Q 3688 3681 3323 3911 
Q 2959 4141 2506 4141 
Q 1863 4141 1398 3698 
Q 934 3256 934 2222 
z
" transform="scale(0.015625)"/>
      <path id="ArialMT-49" d="M 597 0 
L 597 4581 
L 1203 4581 
L 1203 0 
L 597 0 
z
" transform="scale(0.015625)"/>
     </defs>
     <use xlink:href="#ArialMT-46"/>
     <use xlink:href="#ArialMT-69" x="61.083984"/>
     <use xlink:href="#ArialMT-72" x="83.300781"/>
     <use xlink:href="#ArialMT-73" x="116.601562"/>
     <use xlink:href="#ArialMT-74" x="166.601562"/>
     <use xlink:href="#ArialMT-20" x="194.384766"/>
     <use xlink:href="#ArialMT-4f" x="222.167969"/>
     <use xlink:href="#ArialMT-72" x="299.951172"/>
     <use xlink:href="#ArialMT-64" x="333.251953"/>
     <use xlink:href="#ArialMT-65" x="388.867188"/>
     <use xlink:href="#ArialMT-72" x="444.482422"/>
     <use xlink:href="#ArialMT-20" x="477.783203"/>
     <use xlink:href="#ArialMT-49" x="505.566406"/>
     <use xlink:href="#ArialMT-6e" x="533.349609"/>
     <use xlink:href="#ArialMT-64" x="588.964844"/>
     <use xlink:href="#ArialMT-69" x="644.580078"/>
     <use xlink:href="#ArialMT-63" x="666.796875"/>
     <use xlink:href="#ArialMT-65" x="716.796875"/>
     <use xlink:href="#ArialMT-73" x="772.412109"/>
     <use xlink:href="#ArialMT-20" x="822.412109"/>
     <use xlink:href="#ArialMT-66" x="850.195312"/>
     <use xlink:href="#ArialMT-6f" x="877.978516"/>
     <use xlink:href="#ArialMT-72" x="933.59375"/>
     <use xlink:href="#ArialMT-20" x="966.894531"/>
     <use xlink:href="#ArialMT-78" x="994.677734"/>
     <use xlink:href="#ArialMT-28" x="1044.677734"/>
     <use xlink:href="#ArialMT-74" x="1077.978516"/>
     <use xlink:href="#ArialMT-29" x="1105.761719"/>
    </g>
   </g>
   <g id="legend_1">
    <g id="line2d_18">
     <path d="M 335.959875 127.446562 
L 344.759875 127.446562 
L 353.559875 127.446562 
" style="fill: none; stroke: #1f77b4; stroke-width: 1.2; stroke-linecap: round"/>
    </g>
    <g id="text_16">
     <!-- alpha -->
     <g style="fill: #262626" transform="translate(360.599875 130.526562) scale(0.088 -0.088)">
      <defs>
       <path id="ArialMT-61" d="M 2588 409 
Q 2275 144 1986 34 
Q 1697 -75 1366 -75 
Q 819 -75 525 192 
Q 231 459 231 875 
Q 231 1119 342 1320 
Q 453 1522 633 1644 
Q 813 1766 1038 1828 
Q 1203 1872 1538 1913 
Q 2219 1994 2541 2106 
Q 2544 2222 2544 2253 
Q 2544 2597 2384 2738 
Q 2169 2928 1744 2928 
Q 1347 2928 1158 2789 
Q 969 2650 878 2297 
L 328 2372 
Q 403 2725 575 2942 
Q 747 3159 1072 3276 
Q 1397 3394 1825 3394 
Q 2250 3394 2515 3294 
Q 2781 3194 2906 3042 
Q 3031 2891 3081 2659 
Q 3109 2516 3109 2141 
L 3109 1391 
Q 3109 606 3145 398 
Q 3181 191 3288 0 
L 2700 0 
Q 2613 175 2588 409 
z
M 2541 1666 
Q 2234 1541 1622 1453 
Q 1275 1403 1131 1340 
Q 988 1278 909 1158 
Q 831 1038 831 891 
Q 831 666 1001 516 
Q 1172 366 1500 366 
Q 1825 366 2078 508 
Q 2331 650 2450 897 
Q 2541 1088 2541 1459 
L 2541 1666 
z
" transform="scale(0.015625)"/>
       <path id="ArialMT-6c" d="M 409 0 
L 409 4581 
L 972 4581 
L 972 0 
L 409 0 
z
" transform="scale(0.015625)"/>
       <path id="ArialMT-70" d="M 422 -1272 
L 422 3319 
L 934 3319 
L 934 2888 
Q 1116 3141 1344 3267 
Q 1572 3394 1897 3394 
Q 2322 3394 2647 3175 
Q 2972 2956 3137 2557 
Q 3303 2159 3303 1684 
Q 3303 1175 3120 767 
Q 2938 359 2589 142 
Q 2241 -75 1856 -75 
Q 1575 -75 1351 44 
Q 1128 163 984 344 
L 984 -1272 
L 422 -1272 
z
M 931 1641 
Q 931 1000 1190 694 
Q 1450 388 1819 388 
Q 2194 388 2461 705 
Q 2728 1022 2728 1688 
Q 2728 2322 2467 2637 
Q 2206 2953 1844 2953 
Q 1484 2953 1207 2617 
Q 931 2281 931 1641 
z
" transform="scale(0.015625)"/>
       <path id="ArialMT-68" d="M 422 0 
L 422 4581 
L 984 4581 
L 984 2938 
Q 1378 3394 1978 3394 
Q 2347 3394 2619 3248 
Q 2891 3103 3008 2847 
Q 3125 2591 3125 2103 
L 3125 0 
L 2563 0 
L 2563 2103 
Q 2563 2525 2380 2717 
Q 2197 2909 1863 2909 
Q 1613 2909 1392 2779 
Q 1172 2650 1078 2428 
Q 984 2206 984 1816 
L 984 0 
L 422 0 
z
" transform="scale(0.015625)"/>
      </defs>
      <use xlink:href="#ArialMT-61"/>
      <use xlink:href="#ArialMT-6c" x="55.615234"/>
      <use xlink:href="#ArialMT-70" x="77.832031"/>
      <use xlink:href="#ArialMT-68" x="133.447266"/>
      <use xlink:href="#ArialMT-61" x="189.0625"/>
     </g>
    </g>
    <g id="line2d_19">
     <path d="M 335.959875 139.894437 
L 344.759875 139.894437 
L 353.559875 139.894437 
" style="fill: none; stroke: #ff7f0e; stroke-width: 1.2; stroke-linecap: round"/>
    </g>
    <g id="text_17">
     <!-- beta -->
     <g style="fill: #262626" transform="translate(360.599875 142.974437) scale(0.088 -0.088)">
      <defs>
       <path id="ArialMT-62" d="M 941 0 
L 419 0 
L 419 4581 
L 981 4581 
L 981 2947 
Q 1338 3394 1891 3394 
Q 2197 3394 2470 3270 
Q 2744 3147 2920 2923 
Q 3097 2700 3197 2384 
Q 3297 2069 3297 1709 
Q 3297 856 2875 390 
Q 2453 -75 1863 -75 
Q 1275 -75 941 416 
L 941 0 
z
M 934 1684 
Q 934 1088 1097 822 
Q 1363 388 1816 388 
Q 2184 388 2453 708 
Q 2722 1028 2722 1663 
Q 2722 2313 2464 2622 
Q 2206 2931 1841 2931 
Q 1472 2931 1203 2611 
Q 934 2291 934 1684 
z
" transform="scale(0.015625)"/>
      </defs>
      <use xlink:href="#ArialMT-62"/>
      <use xlink:href="#ArialMT-65" x="55.615234"/>
      <use xlink:href="#ArialMT-74" x="111.230469"/>
      <use xlink:href="#ArialMT-61" x="139.013672"/>
     </g>
    </g>
    <g id="line2d_20">
     <path d="M 335.959875 152.342312 
L 344.759875 152.342312 
L 353.559875 152.342312 
" style="fill: none; stroke: #2ca02c; stroke-width: 1.2; stroke-linecap: round"/>
    </g>
    <g id="text_18">
     <!-- gamma -->
     <g style="fill: #262626" transform="translate(360.599875 155.422312) scale(0.088 -0.088)">
      <defs>
       <path id="ArialMT-67" d="M 319 -275 
L 866 -356 
Q 900 -609 1056 -725 
Q 1266 -881 1628 -881 
Q 2019 -881 2231 -725 
Q 2444 -569 2519 -288 
Q 2563 -116 2559 434 
Q 2191 0 1641 0 
Q 956 0 581 494 
Q 206 988 206 1678 
Q 206 2153 378 2554 
Q 550 2956 876 3175 
Q 1203 3394 1644 3394 
Q 2231 3394 2613 2919 
L 2613 3319 
L 3131 3319 
L 3131 450 
Q 3131 -325 2973 -648 
Q 2816 -972 2473 -1159 
Q 2131 -1347 1631 -1347 
Q 1038 -1347 672 -1080 
Q 306 -813 319 -275 
z
M 784 1719 
Q 784 1066 1043 766 
Q 1303 466 1694 466 
Q 2081 466 2343 764 
Q 2606 1063 2606 1700 
Q 2606 2309 2336 2618 
Q 2066 2928 1684 2928 
Q 1309 2928 1046 2623 
Q 784 2319 784 1719 
z
" transform="scale(0.015625)"/>
       <path id="ArialMT-6d" d="M 422 0 
L 422 3319 
L 925 3319 
L 925 2853 
Q 1081 3097 1340 3245 
Q 1600 3394 1931 3394 
Q 2300 3394 2536 3241 
Q 2772 3088 2869 2813 
Q 3263 3394 3894 3394 
Q 4388 3394 4653 3120 
Q 4919 2847 4919 2278 
L 4919 0 
L 4359 0 
L 4359 2091 
Q 4359 2428 4304 2576 
Q 4250 2725 4106 2815 
Q 3963 2906 3769 2906 
Q 3419 2906 3187 2673 
Q 2956 2441 2956 1928 
L 2956 0 
L 2394 0 
L 2394 2156 
Q 2394 2531 2256 2718 
Q 2119 2906 1806 2906 
Q 1569 2906 1367 2781 
Q 1166 2656 1075 2415 
Q 984 2175 984 1722 
L 984 0 
L 422 0 
z
" transform="scale(0.015625)"/>
      </defs>
      <use xlink:href="#ArialMT-67"/>
      <use xlink:href="#ArialMT-61" x="55.615234"/>
      <use xlink:href="#ArialMT-6d" x="111.230469"/>
      <use xlink:href="#ArialMT-6d" x="194.53125"/>
      <use xlink:href="#ArialMT-61" x="277.832031"/>
     </g>
    </g>
    <g id="line2d_21">
     <path d="M 335.959875 164.893312 
L 344.759875 164.893312 
L 353.559875 164.893312 
" style="fill: none; stroke: #d62728; stroke-width: 1.2; stroke-linecap: round"/>
    </g>
    <g id="text_19">
     <!-- delta -->
     <g style="fill: #262626" transform="translate(360.599875 167.973312) scale(0.088 -0.088)">
      <use xlink:href="#ArialMT-64"/>
      <use xlink:href="#ArialMT-65" x="55.615234"/>
      <use xlink:href="#ArialMT-6c" x="111.230469"/>
      <use xlink:href="#ArialMT-74" x="133.447266"/>
      <use xlink:href="#ArialMT-61" x="161.230469"/>
     </g>
    </g>
    <g id="line2d_22">
     <path d="M 335.959875 177.341187 
L 344.759875 177.341187 
L 353.559875 177.341187 
" style="fill: none; stroke: #9467bd; stroke-width: 1.2; stroke-linecap: round"/>
    </g>
    <g id="text_20">
     <!-- omega -->
     <g style="fill: #262626" transform="translate(360.599875 180.421187) scale(0.088 -0.088)">
      <use xlink:href="#ArialMT-6f"/>
      <use xlink:href="#ArialMT-6d" x="55.615234"/>
      <use xlink:href="#ArialMT-65" x="138.916016"/>
      <use xlink:href="#ArialMT-67" x="194.53125"/>
      <use xlink:href="#ArialMT-61" x="250.146484"/>
     </g>
    </g>
   </g>
  </g>
 </g>
 <defs>
  <clipPath id="pa65787ac1a">
   <rect x="40.741" y="20.1945" width="357.12" height="266.112"/>
  </clipPath>
 </defs>
</svg>