<?xml version="1.0" encoding="utf-8" standalone="no"?>
<!DOCTYPE svg PUBLIC "-//W3C//DTD SVG 1.1//EN"
  "http://www.w3.org/Graphics/SVG/1.1/DTD/svg11.dtd">
<svg xmlns:xlink="http://www.w3.org/1999/xlink" width="212.912875pt" height="167.278875pt" viewBox="0 0 212.912875 167.278875" xmlns="http://www.w3.org/2000/svg" version="1.1">
 <metadata>
  <rdf:RDF xmlns:dc="http://purl.org/dc/elements/1.1/" xmlns:cc="http://creativecommons.org/ns#" xmlns:rdf="http://www.w3.org/1999/02/22-rdf-syntax-ns#">
   <cc:Work>
    <dc:type rdf:resource="http://purl.org/dc/dcmitype/StillImage"/>
    <dc:date>2024-10-17T14:55:41.590200</dc:date>
    <dc:format>image/svg+xml</dc:format>
    <dc:creator>
     <cc:Agent>
      <dc:title>Matplotlib v3.9.2, https://matplotlib.org/</dc:title>
     </cc:Agent>
    </dc:creator>
   </cc:Work>
  </rdf:RDF>
 </metadata>
 <defs>
  <style type="text/css">*{stroke-linejoin: round; stroke-linecap: butt}</style>
 </defs>
 <g id="figure_1">
  <g id="patch_1">
   <path d="M 0 167.278875 
L 212.912875 167.278875 
L 212.912875 0 
L 0 0 
z
" style="fill: #ffffff"/>
  </g>
  <g id="axes_1">
   <g id="patch_2">
    <path d="M 38.312875 130.9515 
L 205.712875 130.9515 
L 205.712875 20.0715 
L 38.312875 20.0715 
z
" style="fill: #ffffff"/>
   </g>
   <g id="matplotlib.axis_1">
    <g id="xtick_1">
     <g id="line2d_1">
      <defs>
       <path id="m7c1784e4ba" d="M 0 0 
L 0 4.8 
" style="stroke: #262626"/>
      </defs>
      <g>
       <use xlink:href="#m7c1784e4ba" x="45.921966" y="130.9515" style="fill: #262626; stroke: #262626"/>
      </g>
     </g>
     <g id="text_1">
      <!-- 0.0 -->
      <g style="fill: #262626" transform="translate(39.805966 145.550375) scale(0.088 -0.088)">
       <defs>
        <path id="ArialMT-30" d="M 266 2259 
Q 266 3072 433 3567 
Q 600 4063 929 4331 
Q 1259 4600 1759 4600 
Q 2128 4600 2406 4451 
Q 2684 4303 2865 4023 
Q 3047 3744 3150 3342 
Q 3253 2941 3253 2259 
Q 3253 1453 3087 958 
Q 2922 463 2592 192 
Q 2263 -78 1759 -78 
Q 1097 -78 719 397 
Q 266 969 266 2259 
z
M 844 2259 
Q 844 1131 1108 757 
Q 1372 384 1759 384 
Q 2147 384 2411 759 
Q 2675 1134 2675 2259 
Q 2675 3391 2411 3762 
Q 2147 4134 1753 4134 
Q 1366 4134 1134 3806 
Q 844 3388 844 2259 
z
" transform="scale(0.015625)"/>
        <path id="ArialMT-2e" d="M 581 0 
L 581 641 
L 1222 641 
L 1222 0 
L 581 0 
z
" transform="scale(0.015625)"/>
       </defs>
       <use xlink:href="#ArialMT-30"/>
       <use xlink:href="#ArialMT-2e" x="55.615234"/>
       <use xlink:href="#ArialMT-30" x="83.398438"/>
      </g>
     </g>
    </g>
    <g id="xtick_2">
     <g id="line2d_2">
      <g>
       <use xlink:href="#m7c1784e4ba" x="76.35833" y="130.9515" style="fill: #262626; stroke: #262626"/>
      </g>
     </g>
     <g id="text_2">
      <!-- 0.2 -->
      <g style="fill: #262626" transform="translate(70.24233 145.550375) scale(0.088 -0.088)">
       <defs>
        <path id="ArialMT-32" d="M 3222 541 
L 3222 0 
L 194 0 
Q 188 203 259 391 
Q 375 700 629 1000 
Q 884 1300 1366 1694 
Q 2113 2306 2375 2664 
Q 2638 3022 2638 3341 
Q 2638 3675 2398 3904 
Q 2159 4134 1775 4134 
Q 1369 4134 1125 3890 
Q 881 3647 878 3216 
L 300 3275 
Q 359 3922 746 4261 
Q 1134 4600 1788 4600 
Q 2447 4600 2831 4234 
Q 3216 3869 3216 3328 
Q 3216 3053 3103 2787 
Q 2991 2522 2730 2228 
Q 2469 1934 1863 1422 
Q 1356 997 1212 845 
Q 1069 694 975 541 
L 3222 541 
z
" transform="scale(0.015625)"/>
       </defs>
       <use xlink:href="#ArialMT-30"/>
       <use xlink:href="#ArialMT-2e" x="55.615234"/>
       <use xlink:href="#ArialMT-32" x="83.398438"/>
      </g>
     </g>
    </g>
    <g id="xtick_3">
     <g id="line2d_3">
      <g>
       <use xlink:href="#m7c1784e4ba" x="106.794693" y="130.9515" style="fill: #262626; stroke: #262626"/>
      </g>
     </g>
     <g id="text_3">
      <!-- 0.4 -->
      <g style="fill: #262626" transform="translate(100.678693 145.550375) scale(0.088 -0.088)">
       <defs>
        <path id="ArialMT-34" d="M 2069 0 
L 2069 1097 
L 81 1097 
L 81 1613 
L 2172 4581 
L 2631 4581 
L 2631 1613 
L 3250 1613 
L 3250 1097 
L 2631 1097 
L 2631 0 
L 2069 0 
z
M 2069 1613 
L 2069 3678 
L 634 1613 
L 2069 1613 
z
" transform="scale(0.015625)"/>
       </defs>
       <use xlink:href="#ArialMT-30"/>
       <use xlink:href="#ArialMT-2e" x="55.615234"/>
       <use xlink:href="#ArialMT-34" x="83.398438"/>
      </g>
     </g>
    </g>
    <g id="xtick_4">
     <g id="line2d_4">
      <g>
       <use xlink:href="#m7c1784e4ba" x="137.231057" y="130.9515" style="fill: #262626; stroke: #262626"/>
      </g>
     </g>
     <g id="text_4">
      <!-- 0.6 -->
      <g style="fill: #262626" transform="translate(131.115057 145.550375) scale(0.088 -0.088)">
       <defs>
        <path id="ArialMT-36" d="M 3184 3459 
L 2625 3416 
Q 2550 3747 2413 3897 
Q 2184 4138 1850 4138 
Q 1581 4138 1378 3988 
Q 1113 3794 959 3422 
Q 806 3050 800 2363 
Q 1003 2672 1297 2822 
Q 1591 2972 1913 2972 
Q 2475 2972 2870 2558 
Q 3266 2144 3266 1488 
Q 3266 1056 3080 686 
Q 2894 316 2569 119 
Q 2244 -78 1831 -78 
Q 1128 -78 684 439 
Q 241 956 241 2144 
Q 241 3472 731 4075 
Q 1159 4600 1884 4600 
Q 2425 4600 2770 4297 
Q 3116 3994 3184 3459 
z
M 888 1484 
Q 888 1194 1011 928 
Q 1134 663 1356 523 
Q 1578 384 1822 384 
Q 2178 384 2434 671 
Q 2691 959 2691 1453 
Q 2691 1928 2437 2201 
Q 2184 2475 1800 2475 
Q 1419 2475 1153 2201 
Q 888 1928 888 1484 
z
" transform="scale(0.015625)"/>
       </defs>
       <use xlink:href="#ArialMT-30"/>
       <use xlink:href="#ArialMT-2e" x="55.615234"/>
       <use xlink:href="#ArialMT-36" x="83.398438"/>
      </g>
     </g>
    </g>
    <g id="xtick_5">
     <g id="line2d_5">
      <g>
       <use xlink:href="#m7c1784e4ba" x="167.66742" y="130.9515" style="fill: #262626; stroke: #262626"/>
      </g>
     </g>
     <g id="text_5">
      <!-- 0.8 -->
      <g style="fill: #262626" transform="translate(161.55142 145.550375) scale(0.088 -0.088)">
       <defs>
        <path id="ArialMT-38" d="M 1131 2484 
Q 781 2613 612 2850 
Q 444 3088 444 3419 
Q 444 3919 803 4259 
Q 1163 4600 1759 4600 
Q 2359 4600 2725 4251 
Q 3091 3903 3091 3403 
Q 3091 3084 2923 2848 
Q 2756 2613 2416 2484 
Q 2838 2347 3058 2040 
Q 3278 1734 3278 1309 
Q 3278 722 2862 322 
Q 2447 -78 1769 -78 
Q 1091 -78 675 323 
Q 259 725 259 1325 
Q 259 1772 486 2073 
Q 713 2375 1131 2484 
z
M 1019 3438 
Q 1019 3113 1228 2906 
Q 1438 2700 1772 2700 
Q 2097 2700 2305 2904 
Q 2513 3109 2513 3406 
Q 2513 3716 2298 3927 
Q 2084 4138 1766 4138 
Q 1444 4138 1231 3931 
Q 1019 3725 1019 3438 
z
M 838 1322 
Q 838 1081 952 856 
Q 1066 631 1291 507 
Q 1516 384 1775 384 
Q 2178 384 2440 643 
Q 2703 903 2703 1303 
Q 2703 1709 2433 1975 
Q 2163 2241 1756 2241 
Q 1359 2241 1098 1978 
Q 838 1716 838 1322 
z
" transform="scale(0.015625)"/>
       </defs>
       <use xlink:href="#ArialMT-30"/>
       <use xlink:href="#ArialMT-2e" x="55.615234"/>
       <use xlink:href="#ArialMT-38" x="83.398438"/>
      </g>
     </g>
    </g>
    <g id="xtick_6">
     <g id="line2d_6">
      <g>
       <use xlink:href="#m7c1784e4ba" x="198.103784" y="130.9515" style="fill: #262626; stroke: #262626"/>
      </g>
     </g>
     <g id="text_6">
      <!-- 1.0 -->
      <g style="fill: #262626" transform="translate(191.987784 145.550375) scale(0.088 -0.088)">
       <defs>
        <path id="ArialMT-31" d="M 2384 0 
L 1822 0 
L 1822 3584 
Q 1619 3391 1289 3197 
Q 959 3003 697 2906 
L 697 3450 
Q 1169 3672 1522 3987 
Q 1875 4303 2022 4600 
L 2384 4600 
L 2384 0 
z
" transform="scale(0.015625)"/>
       </defs>
       <use xlink:href="#ArialMT-31"/>
       <use xlink:href="#ArialMT-2e" x="55.615234"/>
       <use xlink:href="#ArialMT-30" x="83.398438"/>
      </g>
     </g>
    </g>
    <g id="text_7">
     <!-- $x$ -->
     <g style="fill: #262626" transform="translate(119.132875 158.170875) scale(0.096 -0.096)">
      <defs>
       <path id="DejaVuSans-Oblique-78" d="M 3841 3500 
L 2234 1784 
L 3219 0 
L 2559 0 
L 1819 1388 
L 531 0 
L -166 0 
L 1556 1844 
L 641 3500 
L 1300 3500 
L 1972 2234 
L 3144 3500 
L 3841 3500 
z
" transform="scale(0.015625)"/>
      </defs>
      <use xlink:href="#DejaVuSans-Oblique-78" transform="translate(0 0.3125)"/>
     </g>
    </g>
   </g>
   <g id="matplotlib.axis_2">
    <g id="ytick_1">
     <g id="line2d_7">
      <defs>
       <path id="mf5fb23fd7a" d="M 0 0 
L -4.8 0 
" style="stroke: #262626"/>
      </defs>
      <g>
       <use xlink:href="#mf5fb23fd7a" x="38.312875" y="122.222595" style="fill: #262626; stroke: #262626"/>
      </g>
     </g>
     <g id="text_8">
      <!-- −1 -->
      <g style="fill: #262626" transform="translate(19.9795 125.372032) scale(0.088 -0.088)">
       <defs>
        <path id="ArialMT-2212" d="M 3381 1997 
L 356 1997 
L 356 2522 
L 3381 2522 
L 3381 1997 
z
" transform="scale(0.015625)"/>
       </defs>
       <use xlink:href="#ArialMT-2212"/>
       <use xlink:href="#ArialMT-31" x="58.398438"/>
      </g>
     </g>
    </g>
    <g id="ytick_2">
     <g id="line2d_8">
      <g>
       <use xlink:href="#mf5fb23fd7a" x="38.312875" y="85.642282" style="fill: #262626; stroke: #262626"/>
      </g>
     </g>
     <g id="text_9">
      <!-- 0 -->
      <g style="fill: #262626" transform="translate(25.11925 88.79172) scale(0.088 -0.088)">
       <use xlink:href="#ArialMT-30"/>
      </g>
     </g>
    </g>
    <g id="ytick_3">
     <g id="line2d_9">
      <g>
       <use xlink:href="#mf5fb23fd7a" x="38.312875" y="49.061969" style="fill: #262626; stroke: #262626"/>
      </g>
     </g>
     <g id="text_10">
      <!-- 1 -->
      <g style="fill: #262626" transform="translate(25.11925 52.211407) scale(0.088 -0.088)">
       <use xlink:href="#ArialMT-31"/>
      </g>
     </g>
    </g>
    <g id="text_11">
     <!-- $y$ -->
     <g style="fill: #262626" transform="translate(13.9635 78.3915) rotate(-90) scale(0.096 -0.096)">
      <defs>
       <path id="DejaVuSans-Oblique-79" d="M 1588 -325 
Q 1188 -997 936 -1164 
Q 684 -1331 294 -1331 
L -159 -1331 
L -63 -850 
L 269 -850 
Q 509 -850 678 -719 
Q 847 -588 1056 -206 
L 1234 128 
L 459 3500 
L 1069 3500 
L 1650 819 
L 3256 3500 
L 3859 3500 
L 1588 -325 
z
" transform="scale(0.015625)"/>
      </defs>
      <use xlink:href="#DejaVuSans-Oblique-79" transform="translate(0 0.3125)"/>
     </g>
    </g>
   </g>
   <g id="PolyCollection_1">
    <defs>
     <path id="mf4d594c153" d="M 45.921966 -87.056196 
L 45.921966 -76.722632 
L 47.459156 -78.465016 
L 48.996346 -79.70028 
L 50.533536 -80.725704 
L 52.070726 -81.732112 
L 53.607916 -82.816424 
L 55.145106 -84.025067 
L 56.682296 -85.37878 
L 58.219487 -86.884274 
L 59.756677 -88.539723 
L 61.293867 -90.337492 
L 62.831057 -92.265593 
L 64.368247 -94.308542 
L 65.905437 -96.447911 
L 67.442627 -98.662731 
L 68.979817 -100.929808 
L 70.517007 -103.224002 
L 72.054197 -105.518469 
L 73.591387 -107.784858 
L 75.128577 -109.993466 
L 76.665768 -112.113271 
L 78.202958 -114.1118 
L 79.740148 -115.954642 
L 81.277338 -117.604321 
L 82.814528 -119.017914 
L 84.351718 -120.14218 
L 85.888908 -120.904001 
L 87.426098 -121.193656 
L 88.963288 -120.847599 
L 90.500478 -119.676597 
L 92.037668 -117.597123 
L 93.574858 -114.723694 
L 95.112049 -111.259009 
L 96.649239 -107.373603 
L 98.186429 -103.186805 
L 99.723619 -98.784623 
L 101.260809 -94.235263 
L 102.797999 -89.597824 
L 104.335189 -84.926661 
L 105.872379 -80.27348 
L 107.409569 -75.68826 
L 108.946759 -71.219556 
L 110.483949 -66.914469 
L 112.021139 -62.81842 
L 113.55833 -58.974816 
L 115.09552 -55.424657 
L 116.63271 -52.2061 
L 118.1699 -49.35402 
L 119.70709 -46.899565 
L 121.24428 -44.869718 
L 122.78147 -43.286881 
L 124.31866 -42.16847 
L 125.85585 -41.526533 
L 127.39304 -41.367375 
L 128.93023 -41.691174 
L 130.46742 -42.491572 
L 132.004611 -43.755182 
L 133.541801 -45.460954 
L 135.078991 -47.579333 
L 136.616181 -50.07114 
L 138.153371 -52.886373 
L 139.690561 -55.963778 
L 141.227751 -59.233559 
L 142.764941 -62.62719 
L 144.302131 -66.095331 
L 145.839321 -69.623245 
L 147.376511 -73.227305 
L 148.913701 -76.93425 
L 150.450892 -80.761839 
L 151.988082 -84.71099 
L 153.525272 -88.766254 
L 155.062462 -92.899167 
L 156.599652 -97.07167 
L 158.136842 -101.23882 
L 159.674032 -105.350799 
L 161.211222 -109.354386 
L 162.748412 -113.194075 
L 164.285602 -116.81297 
L 165.822792 -120.153626 
L 167.359982 -123.159087 
L 168.897173 -125.774457 
L 170.434363 -127.949471 
L 171.971553 -129.642279 
L 173.508743 -130.823923 
L 175.045933 -131.481949 
L 176.583123 -131.621286 
L 178.120313 -131.261877 
L 179.657503 -130.434314 
L 181.194693 -129.175453 
L 182.731883 -127.525102 
L 184.269073 -125.523904 
L 185.806263 -123.211945 
L 187.343454 -120.627596 
L 188.880644 -117.806144 
L 190.417834 -114.777872 
L 191.955024 -111.565218 
L 193.492214 -108.178758 
L 195.029404 -104.612358 
L 196.566594 -100.839963 
L 198.103784 -96.820426 
L 198.103784 -107.1352 
L 198.103784 -107.1352 
L 196.566594 -111.078888 
L 195.029404 -115.105901 
L 193.492214 -119.095488 
L 191.955024 -122.942057 
L 190.417834 -126.561081 
L 188.880644 -129.886991 
L 187.343454 -132.869434 
L 185.806263 -135.470344 
L 184.269073 -137.662167 
L 182.731883 -139.426938 
L 181.194693 -140.755853 
L 179.657503 -141.648953 
L 178.120313 -142.11448 
L 176.583123 -142.167375 
L 175.045933 -141.826464 
L 173.508743 -141.11041 
L 171.971553 -140.033557 
L 170.434363 -138.60359 
L 168.897173 -136.822296 
L 167.359982 -134.6889 
L 165.822792 -132.204104 
L 164.285602 -129.373284 
L 162.748412 -126.20833 
L 161.211222 -122.728365 
L 159.674032 -118.959799 
L 158.136842 -114.936092 
L 156.599652 -110.69749 
L 155.062462 -106.290911 
L 153.525272 -101.770141 
L 151.988082 -97.196543 
L 150.450892 -92.640464 
L 148.913701 -88.183364 
L 147.376511 -83.919914 
L 145.839321 -79.957273 
L 144.302131 -76.406094 
L 142.764941 -73.360155 
L 141.227751 -70.87467 
L 139.690561 -68.961982 
L 138.153371 -67.606297 
L 136.616181 -66.78104 
L 135.078991 -66.458252 
L 133.541801 -66.611035 
L 132.004611 -67.212992 
L 130.46742 -68.237042 
L 128.93023 -69.654463 
L 127.39304 -71.434332 
L 125.85585 -73.543303 
L 124.31866 -75.945648 
L 122.78147 -78.603469 
L 121.24428 -81.477051 
L 119.70709 -84.52528 
L 118.1699 -87.706132 
L 116.63271 -90.977191 
L 115.09552 -94.296179 
L 113.55833 -97.621506 
L 112.021139 -100.912802 
L 110.483949 -104.131459 
L 108.946759 -107.241159 
L 107.409569 -110.208408 
L 105.872379 -113.003086 
L 104.335189 -115.599068 
L 102.797999 -117.97496 
L 101.260809 -120.115111 
L 99.723619 -122.011175 
L 98.186429 -123.664749 
L 96.649239 -125.092218 
L 95.112049 -126.333825 
L 93.574858 -127.469497 
L 92.037668 -128.636935 
L 90.500478 -130.012702 
L 88.963288 -131.691923 
L 87.426098 -133.578381 
L 85.888908 -135.476741 
L 84.351718 -137.223767 
L 82.814528 -138.716199 
L 81.277338 -139.893228 
L 79.740148 -140.719403 
L 78.202958 -141.17466 
L 76.665768 -141.249003 
L 75.128577 -140.939636 
L 73.591387 -140.249328 
L 72.054197 -139.185405 
L 70.517007 -137.759066 
L 68.979817 -135.984892 
L 67.442627 -133.880446 
L 65.905437 -131.465948 
L 64.368247 -128.764 
L 62.831057 -125.799365 
L 61.293867 -122.598816 
L 59.756677 -119.191094 
L 58.219487 -115.607056 
L 56.682296 -111.880154 
L 55.145106 -108.047561 
L 53.607916 -104.152608 
L 52.070726 -100.250021 
L 50.533536 -96.417379 
L 48.996346 -92.77975 
L 47.459156 -89.552987 
L 45.921966 -87.056196 
z
" style="stroke: #ffffff; stroke-opacity: 0.2; stroke-width: 0.8"/>
    </defs>
    <g clip-path="url(#pbb982d714a)">
     <use xlink:href="#mf4d594c153" x="0" y="167.278875" style="fill: #1f77b4; fill-opacity: 0.2; stroke: #ffffff; stroke-opacity: 0.2; stroke-width: 0.8"/>
    </g>
   </g>
   <g id="PathCollection_1">
    <defs>
     <path id="mc505484d34" d="M 0 2.4 
C 0.636487 2.4 1.246992 2.147121 1.697056 1.697056 
C 2.147121 1.246992 2.4 0.636487 2.4 0 
C 2.4 -0.636487 2.147121 -1.246992 1.697056 -1.697056 
C 1.246992 -2.147121 0.636487 -2.4 0 -2.4 
C -0.636487 -2.4 -1.246992 -2.147121 -1.697056 -1.697056 
C -2.147121 -1.246992 -2.4 -0.636487 -2.4 0 
C -2.4 0.636487 -2.147121 1.246992 -1.697056 1.697056 
C -1.246992 2.147121 -0.636487 2.4 0 2.4 
z
" style="stroke: #ff7f0e; stroke-width: 0.8"/>
    </defs>
    <g clip-path="url(#pbb982d714a)">
     <use xlink:href="#mc505484d34" x="90.393377" y="41.931754" style="fill: #ff7f0e; stroke: #ff7f0e; stroke-width: 0.8"/>
     <use xlink:href="#mc505484d34" x="198.100355" y="65.889097" style="fill: #ff7f0e; stroke: #ff7f0e; stroke-width: 0.8"/>
     <use xlink:href="#mc505484d34" x="144.246864" y="96.925255" style="fill: #ff7f0e; stroke: #ff7f0e; stroke-width: 0.8"/>
     <use xlink:href="#mc505484d34" x="45.92197" y="85.530474" style="fill: #ff7f0e; stroke: #ff7f0e; stroke-width: 0.8"/>
     <use xlink:href="#mc505484d34" x="173.312337" y="30.251834" style="fill: #ff7f0e; stroke: #ff7f0e; stroke-width: 0.8"/>
    </g>
   </g>
   <g id="line2d_10">
    <path d="M 45.921966 85.389461 
L 47.459156 83.269874 
L 48.996346 81.03886 
L 50.533536 78.707333 
L 52.070726 76.287808 
L 53.607916 73.794359 
L 55.145106 71.242561 
L 56.682296 68.649408 
L 58.219487 66.03321 
L 59.756677 63.413466 
L 61.293867 60.810721 
L 62.831057 58.246396 
L 64.368247 55.742604 
L 65.905437 53.321945 
L 67.442627 51.007287 
L 68.979817 48.821525 
L 70.517007 46.787341 
L 72.054197 44.926938 
L 73.591387 43.261782 
L 75.128577 41.812324 
L 76.665768 40.597738 
L 78.202958 39.635645 
L 79.740148 38.941853 
L 81.277338 38.5301 
L 82.814528 38.411819 
L 84.351718 38.595902 
L 85.888908 39.088504 
L 87.426098 39.892857 
L 88.963288 41.009114 
L 90.500478 42.434225 
L 92.037668 44.161846 
L 93.574858 46.18228 
L 95.112049 48.482458 
L 96.649239 51.045965 
L 98.186429 53.853098 
L 99.723619 56.880976 
L 101.260809 60.103688 
L 102.797999 63.492483 
L 104.335189 67.01601 
L 105.872379 70.640592 
L 107.409569 74.330541 
L 108.946759 78.048517 
L 110.483949 81.755911 
L 112.021139 85.413264 
L 113.55833 88.980714 
L 115.09552 92.418457 
L 116.63271 95.68723 
L 118.1699 98.748799 
L 119.70709 101.566453 
L 121.24428 104.10549 
L 122.78147 106.3337 
L 124.31866 108.221816 
L 125.85585 109.743957 
L 127.39304 110.878022 
L 128.93023 111.606056 
L 130.46742 111.914568 
L 132.004611 111.794788 
L 133.541801 111.24288 
L 135.078991 110.260082 
L 136.616181 108.852785 
L 138.153371 107.03254 
L 139.690561 104.815995 
L 141.227751 102.224761 
L 142.764941 99.285202 
L 144.302131 96.028162 
L 145.839321 92.488616 
L 147.376511 88.705265 
L 148.913701 84.720068 
L 150.450892 80.577723 
L 151.988082 76.325108 
L 153.525272 72.010677 
L 155.062462 67.683836 
L 156.599652 63.394295 
L 158.136842 59.191419 
L 159.674032 55.123576 
L 161.211222 51.237499 
L 162.748412 47.577672 
L 164.285602 44.185748 
L 165.822792 41.10001 
L 167.359982 38.354882 
L 168.897173 35.980499 
L 170.434363 34.002345 
L 171.971553 32.440957 
L 173.508743 31.311708 
L 175.045933 30.624669 
L 176.583123 30.384544 
L 178.120313 30.590696 
L 179.657503 31.237241 
L 181.194693 32.313222 
L 182.731883 33.802855 
L 184.269073 35.68584 
L 185.806263 37.93773 
L 187.343454 40.53036 
L 188.880644 43.432308 
L 190.417834 46.609399 
L 191.955024 50.025238 
L 193.492214 53.641752 
L 195.029404 57.419746 
L 196.566594 61.319449 
L 198.103784 65.301062 
" clip-path="url(#pbb982d714a)" style="fill: none; stroke: #1f77b4; stroke-width: 1.2; stroke-linecap: round"/>
   </g>
   <g id="line2d_11">
    <path d="M 115.386014 130.9515 
L 115.386014 20.0715 
" clip-path="url(#pbb982d714a)" style="fill: none; stroke-dasharray: 4.44,1.92; stroke-dashoffset: 0; stroke: #ff0000; stroke-width: 1.2"/>
   </g>
   <g id="patch_3">
    <path d="M 38.312875 122.222595 
L 38.312875 49.061969 
" style="fill: none; stroke: #262626; stroke-linejoin: miter; stroke-linecap: square"/>
   </g>
   <g id="patch_4">
    <path d="M 45.921966 130.9515 
L 198.103784 130.9515 
" style="fill: none; stroke: #262626; stroke-linejoin: miter; stroke-linecap: square"/>
   </g>
   <g id="text_12">
    <!-- $N=5$ -->
    <g style="fill: #262626" transform="translate(109.436875 14.0715) scale(0.096 -0.096)">
     <defs>
      <path id="DejaVuSans-Oblique-4e" d="M 1081 4666 
L 1931 4666 
L 3219 666 
L 4000 4666 
L 4616 4666 
L 3706 0 
L 2853 0 
L 1569 4025 
L 788 0 
L 172 0 
L 1081 4666 
z
" transform="scale(0.015625)"/>
      <path id="DejaVuSans-3d" d="M 678 2906 
L 4684 2906 
L 4684 2381 
L 678 2381 
L 678 2906 
z
M 678 1631 
L 4684 1631 
L 4684 1100 
L 678 1100 
L 678 1631 
z
" transform="scale(0.015625)"/>
      <path id="DejaVuSans-35" d="M 691 4666 
L 3169 4666 
L 3169 4134 
L 1269 4134 
L 1269 2991 
Q 1406 3038 1543 3061 
Q 1681 3084 1819 3084 
Q 2600 3084 3056 2656 
Q 3513 2228 3513 1497 
Q 3513 744 3044 326 
Q 2575 -91 1722 -91 
Q 1428 -91 1123 -41 
Q 819 9 494 109 
L 494 744 
Q 775 591 1075 516 
Q 1375 441 1709 441 
Q 2250 441 2565 725 
Q 2881 1009 2881 1497 
Q 2881 1984 2565 2268 
Q 2250 2553 1709 2553 
Q 1456 2553 1204 2497 
Q 953 2441 691 2322 
L 691 4666 
z
" transform="scale(0.015625)"/>
     </defs>
     <use xlink:href="#DejaVuSans-Oblique-4e" transform="translate(0 0.09375)"/>
     <use xlink:href="#DejaVuSans-3d" transform="translate(94.287109 0.09375)"/>
     <use xlink:href="#DejaVuSans-35" transform="translate(197.558594 0.09375)"/>
    </g>
   </g>
  </g>
 </g>
 <defs>
  <clipPath id="pbb982d714a">
   <rect x="38.312875" y="20.0715" width="167.4" height="110.88"/>
  </clipPath>
 </defs>
</svg>