<?xml version="1.0" encoding="utf-8" standalone="no"?>
<!DOCTYPE svg PUBLIC "-//W3C//DTD SVG 1.1//EN"
  "http://www.w3.org/Graphics/SVG/1.1/DTD/svg11.dtd">
<svg xmlns:xlink="http://www.w3.org/1999/xlink" width="448.344875pt" height="222.841875pt" viewBox="0 0 448.344875 222.841875" xmlns="http://www.w3.org/2000/svg" version="1.1">
 <metadata>
  <rdf:RDF xmlns:dc="http://purl.org/dc/elements/1.1/" xmlns:cc="http://creativecommons.org/ns#" xmlns:rdf="http://www.w3.org/1999/02/22-rdf-syntax-ns#">
   <cc:Work>
    <dc:type rdf:resource="http://purl.org/dc/dcmitype/StillImage"/>
    <dc:date>2025-03-20T14:42:07.725672</dc:date>
    <dc:format>image/svg+xml</dc:format>
    <dc:creator>
     <cc:Agent>
      <dc:title>Matplotlib v3.9.2, https://matplotlib.org/</dc:title>
     </cc:Agent>
    </dc:creator>
   </cc:Work>
  </rdf:RDF>
 </metadata>
 <defs>
  <style type="text/css">*{stroke-linejoin: round; stroke-linecap: butt}</style>
 </defs>
 <g id="figure_1">
  <g id="patch_1">
   <path d="M 0 222.841875 
L 448.344875 222.841875 
L 448.344875 0 
L 0 0 
z
" style="fill: #ffffff"/>
  </g>
  <g id="axes_1">
   <g id="patch_2">
    <path d="M 50.544875 186.5145 
L 441.144875 186.5145 
L 441.144875 20.1945 
L 50.544875 20.1945 
z
" style="fill: #ffffff"/>
   </g>
   <g id="line2d_1">
    <path d="M 50.544875 115.206798 
L 441.144875 115.206798 
" clip-path="url(#p987997e019)" style="fill: none; stroke-dasharray: 3.7,1.6; stroke-dashoffset: 0; stroke: #000000"/>
   </g>
   <g id="matplotlib.axis_1">
    <g id="xtick_1">
     <g id="line2d_2">
      <defs>
       <path id="mba5b06b406" d="M 0 0 
L 0 4.8 
" style="stroke: #262626"/>
      </defs>
      <g>
       <use xlink:href="#mba5b06b406" x="68.29942" y="186.5145" style="fill: #262626; stroke: #262626"/>
      </g>
     </g>
     <g id="text_1">
      <!-- 0 -->
      <g style="fill: #262626" transform="translate(65.852608 201.113375) scale(0.088 -0.088)">
       <defs>
        <path id="ArialMT-30" d="M 266 2259 
Q 266 3072 433 3567 
Q 600 4063 929 4331 
Q 1259 4600 1759 4600 
Q 2128 4600 2406 4451 
Q 2684 4303 2865 4023 
Q 3047 3744 3150 3342 
Q 3253 2941 3253 2259 
Q 3253 1453 3087 958 
Q 2922 463 2592 192 
Q 2263 -78 1759 -78 
Q 1097 -78 719 397 
Q 266 969 266 2259 
z
M 844 2259 
Q 844 1131 1108 757 
Q 1372 384 1759 384 
Q 2147 384 2411 759 
Q 2675 1134 2675 2259 
Q 2675 3391 2411 3762 
Q 2147 4134 1753 4134 
Q 1366 4134 1134 3806 
Q 844 3388 844 2259 
z
" transform="scale(0.015625)"/>
       </defs>
       <use xlink:href="#ArialMT-30"/>
      </g>
     </g>
    </g>
    <g id="xtick_2">
     <g id="line2d_3">
      <g>
       <use xlink:href="#mba5b06b406" x="139.317602" y="186.5145" style="fill: #262626; stroke: #262626"/>
      </g>
     </g>
     <g id="text_2">
      <!-- 2 -->
      <g style="fill: #262626" transform="translate(136.87079 201.113375) scale(0.088 -0.088)">
       <defs>
        <path id="ArialMT-32" d="M 3222 541 
L 3222 0 
L 194 0 
Q 188 203 259 391 
Q 375 700 629 1000 
Q 884 1300 1366 1694 
Q 2113 2306 2375 2664 
Q 2638 3022 2638 3341 
Q 2638 3675 2398 3904 
Q 2159 4134 1775 4134 
Q 1369 4134 1125 3890 
Q 881 3647 878 3216 
L 300 3275 
Q 359 3922 746 4261 
Q 1134 4600 1788 4600 
Q 2447 4600 2831 4234 
Q 3216 3869 3216 3328 
Q 3216 3053 3103 2787 
Q 2991 2522 2730 2228 
Q 2469 1934 1863 1422 
Q 1356 997 1212 845 
Q 1069 694 975 541 
L 3222 541 
z
" transform="scale(0.015625)"/>
       </defs>
       <use xlink:href="#ArialMT-32"/>
      </g>
     </g>
    </g>
    <g id="xtick_3">
     <g id="line2d_4">
      <g>
       <use xlink:href="#mba5b06b406" x="210.335784" y="186.5145" style="fill: #262626; stroke: #262626"/>
      </g>
     </g>
     <g id="text_3">
      <!-- 4 -->
      <g style="fill: #262626" transform="translate(207.888972 201.113375) scale(0.088 -0.088)">
       <defs>
        <path id="ArialMT-34" d="M 2069 0 
L 2069 1097 
L 81 1097 
L 81 1613 
L 2172 4581 
L 2631 4581 
L 2631 1613 
L 3250 1613 
L 3250 1097 
L 2631 1097 
L 2631 0 
L 2069 0 
z
M 2069 1613 
L 2069 3678 
L 634 1613 
L 2069 1613 
z
" transform="scale(0.015625)"/>
       </defs>
       <use xlink:href="#ArialMT-34"/>
      </g>
     </g>
    </g>
    <g id="xtick_4">
     <g id="line2d_5">
      <g>
       <use xlink:href="#mba5b06b406" x="281.353966" y="186.5145" style="fill: #262626; stroke: #262626"/>
      </g>
     </g>
     <g id="text_4">
      <!-- 6 -->
      <g style="fill: #262626" transform="translate(278.907153 201.113375) scale(0.088 -0.088)">
       <defs>
        <path id="ArialMT-36" d="M 3184 3459 
L 2625 3416 
Q 2550 3747 2413 3897 
Q 2184 4138 1850 4138 
Q 1581 4138 1378 3988 
Q 1113 3794 959 3422 
Q 806 3050 800 2363 
Q 1003 2672 1297 2822 
Q 1591 2972 1913 2972 
Q 2475 2972 2870 2558 
Q 3266 2144 3266 1488 
Q 3266 1056 3080 686 
Q 2894 316 2569 119 
Q 2244 -78 1831 -78 
Q 1128 -78 684 439 
Q 241 956 241 2144 
Q 241 3472 731 4075 
Q 1159 4600 1884 4600 
Q 2425 4600 2770 4297 
Q 3116 3994 3184 3459 
z
M 888 1484 
Q 888 1194 1011 928 
Q 1134 663 1356 523 
Q 1578 384 1822 384 
Q 2178 384 2434 671 
Q 2691 959 2691 1453 
Q 2691 1928 2437 2201 
Q 2184 2475 1800 2475 
Q 1419 2475 1153 2201 
Q 888 1928 888 1484 
z
" transform="scale(0.015625)"/>
       </defs>
       <use xlink:href="#ArialMT-36"/>
      </g>
     </g>
    </g>
    <g id="xtick_5">
     <g id="line2d_6">
      <g>
       <use xlink:href="#mba5b06b406" x="352.372148" y="186.5145" style="fill: #262626; stroke: #262626"/>
      </g>
     </g>
     <g id="text_5">
      <!-- 8 -->
      <g style="fill: #262626" transform="translate(349.925335 201.113375) scale(0.088 -0.088)">
       <defs>
        <path id="ArialMT-38" d="M 1131 2484 
Q 781 2613 612 2850 
Q 444 3088 444 3419 
Q 444 3919 803 4259 
Q 1163 4600 1759 4600 
Q 2359 4600 2725 4251 
Q 3091 3903 3091 3403 
Q 3091 3084 2923 2848 
Q 2756 2613 2416 2484 
Q 2838 2347 3058 2040 
Q 3278 1734 3278 1309 
Q 3278 722 2862 322 
Q 2447 -78 1769 -78 
Q 1091 -78 675 323 
Q 259 725 259 1325 
Q 259 1772 486 2073 
Q 713 2375 1131 2484 
z
M 1019 3438 
Q 1019 3113 1228 2906 
Q 1438 2700 1772 2700 
Q 2097 2700 2305 2904 
Q 2513 3109 2513 3406 
Q 2513 3716 2298 3927 
Q 2084 4138 1766 4138 
Q 1444 4138 1231 3931 
Q 1019 3725 1019 3438 
z
M 838 1322 
Q 838 1081 952 856 
Q 1066 631 1291 507 
Q 1516 384 1775 384 
Q 2178 384 2440 643 
Q 2703 903 2703 1303 
Q 2703 1709 2433 1975 
Q 2163 2241 1756 2241 
Q 1359 2241 1098 1978 
Q 838 1716 838 1322 
z
" transform="scale(0.015625)"/>
       </defs>
       <use xlink:href="#ArialMT-38"/>
      </g>
     </g>
    </g>
    <g id="xtick_6">
     <g id="line2d_7">
      <g>
       <use xlink:href="#mba5b06b406" x="423.39033" y="186.5145" style="fill: #262626; stroke: #262626"/>
      </g>
     </g>
     <g id="text_6">
      <!-- 10 -->
      <g style="fill: #262626" transform="translate(418.496705 201.113375) scale(0.088 -0.088)">
       <defs>
        <path id="ArialMT-31" d="M 2384 0 
L 1822 0 
L 1822 3584 
Q 1619 3391 1289 3197 
Q 959 3003 697 2906 
L 697 3450 
Q 1169 3672 1522 3987 
Q 1875 4303 2022 4600 
L 2384 4600 
L 2384 0 
z
" transform="scale(0.015625)"/>
       </defs>
       <use xlink:href="#ArialMT-31"/>
       <use xlink:href="#ArialMT-30" x="55.615234"/>
      </g>
     </g>
    </g>
    <g id="text_7">
     <!-- Time -->
     <g style="fill: #262626" transform="translate(235.359125 213.733875) scale(0.096 -0.096)">
      <defs>
       <path id="ArialMT-54" d="M 1659 0 
L 1659 4041 
L 150 4041 
L 150 4581 
L 3781 4581 
L 3781 4041 
L 2266 4041 
L 2266 0 
L 1659 0 
z
" transform="scale(0.015625)"/>
       <path id="ArialMT-69" d="M 425 3934 
L 425 4581 
L 988 4581 
L 988 3934 
L 425 3934 
z
M 425 0 
L 425 3319 
L 988 3319 
L 988 0 
L 425 0 
z
" transform="scale(0.015625)"/>
       <path id="ArialMT-6d" d="M 422 0 
L 422 3319 
L 925 3319 
L 925 2853 
Q 1081 3097 1340 3245 
Q 1600 3394 1931 3394 
Q 2300 3394 2536 3241 
Q 2772 3088 2869 2813 
Q 3263 3394 3894 3394 
Q 4388 3394 4653 3120 
Q 4919 2847 4919 2278 
L 4919 0 
L 4359 0 
L 4359 2091 
Q 4359 2428 4304 2576 
Q 4250 2725 4106 2815 
Q 3963 2906 3769 2906 
Q 3419 2906 3187 2673 
Q 2956 2441 2956 1928 
L 2956 0 
L 2394 0 
L 2394 2156 
Q 2394 2531 2256 2718 
Q 2119 2906 1806 2906 
Q 1569 2906 1367 2781 
Q 1166 2656 1075 2415 
Q 984 2175 984 1722 
L 984 0 
L 422 0 
z
" transform="scale(0.015625)"/>
       <path id="ArialMT-65" d="M 2694 1069 
L 3275 997 
Q 3138 488 2766 206 
Q 2394 -75 1816 -75 
Q 1088 -75 661 373 
Q 234 822 234 1631 
Q 234 2469 665 2931 
Q 1097 3394 1784 3394 
Q 2450 3394 2872 2941 
Q 3294 2488 3294 1666 
Q 3294 1616 3291 1516 
L 816 1516 
Q 847 969 1125 678 
Q 1403 388 1819 388 
Q 2128 388 2347 550 
Q 2566 713 2694 1069 
z
M 847 1978 
L 2700 1978 
Q 2663 2397 2488 2606 
Q 2219 2931 1791 2931 
Q 1403 2931 1139 2672 
Q 875 2413 847 1978 
z
" transform="scale(0.015625)"/>
      </defs>
      <use xlink:href="#ArialMT-54"/>
      <use xlink:href="#ArialMT-69" x="57.333984"/>
      <use xlink:href="#ArialMT-6d" x="79.550781"/>
      <use xlink:href="#ArialMT-65" x="162.851562"/>
     </g>
    </g>
   </g>
   <g id="matplotlib.axis_2">
    <g id="ytick_1">
     <g id="line2d_8">
      <defs>
       <path id="mde7d4404bb" d="M 0 0 
L -4.8 0 
" style="stroke: #262626"/>
      </defs>
      <g>
       <use xlink:href="#mde7d4404bb" x="50.544875" y="180.796021" style="fill: #262626; stroke: #262626"/>
      </g>
     </g>
     <g id="text_8">
      <!-- −0.75 -->
      <g style="fill: #262626" transform="translate(19.9795 183.945459) scale(0.088 -0.088)">
       <defs>
        <path id="ArialMT-2212" d="M 3381 1997 
L 356 1997 
L 356 2522 
L 3381 2522 
L 3381 1997 
z
" transform="scale(0.015625)"/>
        <path id="ArialMT-2e" d="M 581 0 
L 581 641 
L 1222 641 
L 1222 0 
L 581 0 
z
" transform="scale(0.015625)"/>
        <path id="ArialMT-37" d="M 303 3981 
L 303 4522 
L 3269 4522 
L 3269 4084 
Q 2831 3619 2401 2847 
Q 1972 2075 1738 1259 
Q 1569 684 1522 0 
L 944 0 
Q 953 541 1156 1306 
Q 1359 2072 1739 2783 
Q 2119 3494 2547 3981 
L 303 3981 
z
" transform="scale(0.015625)"/>
        <path id="ArialMT-35" d="M 266 1200 
L 856 1250 
Q 922 819 1161 601 
Q 1400 384 1738 384 
Q 2144 384 2425 690 
Q 2706 997 2706 1503 
Q 2706 1984 2436 2262 
Q 2166 2541 1728 2541 
Q 1456 2541 1237 2417 
Q 1019 2294 894 2097 
L 366 2166 
L 809 4519 
L 3088 4519 
L 3088 3981 
L 1259 3981 
L 1013 2750 
Q 1425 3038 1878 3038 
Q 2478 3038 2890 2622 
Q 3303 2206 3303 1553 
Q 3303 931 2941 478 
Q 2500 -78 1738 -78 
Q 1113 -78 717 272 
Q 322 622 266 1200 
z
" transform="scale(0.015625)"/>
       </defs>
       <use xlink:href="#ArialMT-2212"/>
       <use xlink:href="#ArialMT-30" x="58.398438"/>
       <use xlink:href="#ArialMT-2e" x="114.013672"/>
       <use xlink:href="#ArialMT-37" x="141.796875"/>
       <use xlink:href="#ArialMT-35" x="197.412109"/>
      </g>
     </g>
    </g>
    <g id="ytick_2">
     <g id="line2d_9">
      <g>
       <use xlink:href="#mde7d4404bb" x="50.544875" y="158.932947" style="fill: #262626; stroke: #262626"/>
      </g>
     </g>
     <g id="text_9">
      <!-- −0.50 -->
      <g style="fill: #262626" transform="translate(19.9795 162.082384) scale(0.088 -0.088)">
       <use xlink:href="#ArialMT-2212"/>
       <use xlink:href="#ArialMT-30" x="58.398438"/>
       <use xlink:href="#ArialMT-2e" x="114.013672"/>
       <use xlink:href="#ArialMT-35" x="141.796875"/>
       <use xlink:href="#ArialMT-30" x="197.412109"/>
      </g>
     </g>
    </g>
    <g id="ytick_3">
     <g id="line2d_10">
      <g>
       <use xlink:href="#mde7d4404bb" x="50.544875" y="137.069872" style="fill: #262626; stroke: #262626"/>
      </g>
     </g>
     <g id="text_10">
      <!-- −0.25 -->
      <g style="fill: #262626" transform="translate(19.9795 140.21931) scale(0.088 -0.088)">
       <use xlink:href="#ArialMT-2212"/>
       <use xlink:href="#ArialMT-30" x="58.398438"/>
       <use xlink:href="#ArialMT-2e" x="114.013672"/>
       <use xlink:href="#ArialMT-32" x="141.796875"/>
       <use xlink:href="#ArialMT-35" x="197.412109"/>
      </g>
     </g>
    </g>
    <g id="ytick_4">
     <g id="line2d_11">
      <g>
       <use xlink:href="#mde7d4404bb" x="50.544875" y="115.206798" style="fill: #262626; stroke: #262626"/>
      </g>
     </g>
     <g id="text_11">
      <!-- 0.00 -->
      <g style="fill: #262626" transform="translate(25.11925 118.356235) scale(0.088 -0.088)">
       <use xlink:href="#ArialMT-30"/>
       <use xlink:href="#ArialMT-2e" x="55.615234"/>
       <use xlink:href="#ArialMT-30" x="83.398438"/>
       <use xlink:href="#ArialMT-30" x="139.013672"/>
      </g>
     </g>
    </g>
    <g id="ytick_5">
     <g id="line2d_12">
      <g>
       <use xlink:href="#mde7d4404bb" x="50.544875" y="93.343723" style="fill: #262626; stroke: #262626"/>
      </g>
     </g>
     <g id="text_12">
      <!-- 0.25 -->
      <g style="fill: #262626" transform="translate(25.11925 96.493161) scale(0.088 -0.088)">
       <use xlink:href="#ArialMT-30"/>
       <use xlink:href="#ArialMT-2e" x="55.615234"/>
       <use xlink:href="#ArialMT-32" x="83.398438"/>
       <use xlink:href="#ArialMT-35" x="139.013672"/>
      </g>
     </g>
    </g>
    <g id="ytick_6">
     <g id="line2d_13">
      <g>
       <use xlink:href="#mde7d4404bb" x="50.544875" y="71.480649" style="fill: #262626; stroke: #262626"/>
      </g>
     </g>
     <g id="text_13">
      <!-- 0.50 -->
      <g style="fill: #262626" transform="translate(25.11925 74.630086) scale(0.088 -0.088)">
       <use xlink:href="#ArialMT-30"/>
       <use xlink:href="#ArialMT-2e" x="55.615234"/>
       <use xlink:href="#ArialMT-35" x="83.398438"/>
       <use xlink:href="#ArialMT-30" x="139.013672"/>
      </g>
     </g>
    </g>
    <g id="ytick_7">
     <g id="line2d_14">
      <g>
       <use xlink:href="#mde7d4404bb" x="50.544875" y="49.617574" style="fill: #262626; stroke: #262626"/>
      </g>
     </g>
     <g id="text_14">
      <!-- 0.75 -->
      <g style="fill: #262626" transform="translate(25.11925 52.767012) scale(0.088 -0.088)">
       <use xlink:href="#ArialMT-30"/>
       <use xlink:href="#ArialMT-2e" x="55.615234"/>
       <use xlink:href="#ArialMT-37" x="83.398438"/>
       <use xlink:href="#ArialMT-35" x="139.013672"/>
      </g>
     </g>
    </g>
    <g id="ytick_8">
     <g id="line2d_15">
      <g>
       <use xlink:href="#mde7d4404bb" x="50.544875" y="27.7545" style="fill: #262626; stroke: #262626"/>
      </g>
     </g>
     <g id="text_15">
      <!-- 1.00 -->
      <g style="fill: #262626" transform="translate(25.11925 30.903937) scale(0.088 -0.088)">
       <use xlink:href="#ArialMT-31"/>
       <use xlink:href="#ArialMT-2e" x="55.615234"/>
       <use xlink:href="#ArialMT-30" x="83.398438"/>
       <use xlink:href="#ArialMT-30" x="139.013672"/>
      </g>
     </g>
    </g>
    <g id="text_16">
     <!-- Displacement -->
     <g style="fill: #262626" transform="translate(14.0715 132.432) rotate(-90) scale(0.096 -0.096)">
      <defs>
       <path id="ArialMT-44" d="M 494 0 
L 494 4581 
L 2072 4581 
Q 2606 4581 2888 4516 
Q 3281 4425 3559 4188 
Q 3922 3881 4101 3404 
Q 4281 2928 4281 2316 
Q 4281 1794 4159 1391 
Q 4038 988 3847 723 
Q 3656 459 3429 307 
Q 3203 156 2883 78 
Q 2563 0 2147 0 
L 494 0 
z
M 1100 541 
L 2078 541 
Q 2531 541 2789 625 
Q 3047 709 3200 863 
Q 3416 1078 3536 1442 
Q 3656 1806 3656 2325 
Q 3656 3044 3420 3430 
Q 3184 3816 2847 3947 
Q 2603 4041 2063 4041 
L 1100 4041 
L 1100 541 
z
" transform="scale(0.015625)"/>
       <path id="ArialMT-73" d="M 197 991 
L 753 1078 
Q 800 744 1014 566 
Q 1228 388 1613 388 
Q 2000 388 2187 545 
Q 2375 703 2375 916 
Q 2375 1106 2209 1216 
Q 2094 1291 1634 1406 
Q 1016 1563 777 1677 
Q 538 1791 414 1992 
Q 291 2194 291 2438 
Q 291 2659 392 2848 
Q 494 3038 669 3163 
Q 800 3259 1026 3326 
Q 1253 3394 1513 3394 
Q 1903 3394 2198 3281 
Q 2494 3169 2634 2976 
Q 2775 2784 2828 2463 
L 2278 2388 
Q 2241 2644 2061 2787 
Q 1881 2931 1553 2931 
Q 1166 2931 1000 2803 
Q 834 2675 834 2503 
Q 834 2394 903 2306 
Q 972 2216 1119 2156 
Q 1203 2125 1616 2013 
Q 2213 1853 2448 1751 
Q 2684 1650 2818 1456 
Q 2953 1263 2953 975 
Q 2953 694 2789 445 
Q 2625 197 2315 61 
Q 2006 -75 1616 -75 
Q 969 -75 630 194 
Q 291 463 197 991 
z
" transform="scale(0.015625)"/>
       <path id="ArialMT-70" d="M 422 -1272 
L 422 3319 
L 934 3319 
L 934 2888 
Q 1116 3141 1344 3267 
Q 1572 3394 1897 3394 
Q 2322 3394 2647 3175 
Q 2972 2956 3137 2557 
Q 3303 2159 3303 1684 
Q 3303 1175 3120 767 
Q 2938 359 2589 142 
Q 2241 -75 1856 -75 
Q 1575 -75 1351 44 
Q 1128 163 984 344 
L 984 -1272 
L 422 -1272 
z
M 931 1641 
Q 931 1000 1190 694 
Q 1450 388 1819 388 
Q 2194 388 2461 705 
Q 2728 1022 2728 1688 
Q 2728 2322 2467 2637 
Q 2206 2953 1844 2953 
Q 1484 2953 1207 2617 
Q 931 2281 931 1641 
z
" transform="scale(0.015625)"/>
       <path id="ArialMT-6c" d="M 409 0 
L 409 4581 
L 972 4581 
L 972 0 
L 409 0 
z
" transform="scale(0.015625)"/>
       <path id="ArialMT-61" d="M 2588 409 
Q 2275 144 1986 34 
Q 1697 -75 1366 -75 
Q 819 -75 525 192 
Q 231 459 231 875 
Q 231 1119 342 1320 
Q 453 1522 633 1644 
Q 813 1766 1038 1828 
Q 1203 1872 1538 1913 
Q 2219 1994 2541 2106 
Q 2544 2222 2544 2253 
Q 2544 2597 2384 2738 
Q 2169 2928 1744 2928 
Q 1347 2928 1158 2789 
Q 969 2650 878 2297 
L 328 2372 
Q 403 2725 575 2942 
Q 747 3159 1072 3276 
Q 1397 3394 1825 3394 
Q 2250 3394 2515 3294 
Q 2781 3194 2906 3042 
Q 3031 2891 3081 2659 
Q 3109 2516 3109 2141 
L 3109 1391 
Q 3109 606 3145 398 
Q 3181 191 3288 0 
L 2700 0 
Q 2613 175 2588 409 
z
M 2541 1666 
Q 2234 1541 1622 1453 
Q 1275 1403 1131 1340 
Q 988 1278 909 1158 
Q 831 1038 831 891 
Q 831 666 1001 516 
Q 1172 366 1500 366 
Q 1825 366 2078 508 
Q 2331 650 2450 897 
Q 2541 1088 2541 1459 
L 2541 1666 
z
" transform="scale(0.015625)"/>
       <path id="ArialMT-63" d="M 2588 1216 
L 3141 1144 
Q 3050 572 2676 248 
Q 2303 -75 1759 -75 
Q 1078 -75 664 370 
Q 250 816 250 1647 
Q 250 2184 428 2587 
Q 606 2991 970 3192 
Q 1334 3394 1763 3394 
Q 2303 3394 2647 3120 
Q 2991 2847 3088 2344 
L 2541 2259 
Q 2463 2594 2264 2762 
Q 2066 2931 1784 2931 
Q 1359 2931 1093 2626 
Q 828 2322 828 1663 
Q 828 994 1084 691 
Q 1341 388 1753 388 
Q 2084 388 2306 591 
Q 2528 794 2588 1216 
z
" transform="scale(0.015625)"/>
       <path id="ArialMT-6e" d="M 422 0 
L 422 3319 
L 928 3319 
L 928 2847 
Q 1294 3394 1984 3394 
Q 2284 3394 2536 3286 
Q 2788 3178 2913 3003 
Q 3038 2828 3088 2588 
Q 3119 2431 3119 2041 
L 3119 0 
L 2556 0 
L 2556 2019 
Q 2556 2363 2490 2533 
Q 2425 2703 2258 2804 
Q 2091 2906 1866 2906 
Q 1506 2906 1245 2678 
Q 984 2450 984 1813 
L 984 0 
L 422 0 
z
" transform="scale(0.015625)"/>
       <path id="ArialMT-74" d="M 1650 503 
L 1731 6 
Q 1494 -44 1306 -44 
Q 1000 -44 831 53 
Q 663 150 594 308 
Q 525 466 525 972 
L 525 2881 
L 113 2881 
L 113 3319 
L 525 3319 
L 525 4141 
L 1084 4478 
L 1084 3319 
L 1650 3319 
L 1650 2881 
L 1084 2881 
L 1084 941 
Q 1084 700 1114 631 
Q 1144 563 1211 522 
Q 1278 481 1403 481 
Q 1497 481 1650 503 
z
" transform="scale(0.015625)"/>
      </defs>
      <use xlink:href="#ArialMT-44"/>
      <use xlink:href="#ArialMT-69" x="72.216797"/>
      <use xlink:href="#ArialMT-73" x="94.433594"/>
      <use xlink:href="#ArialMT-70" x="144.433594"/>
      <use xlink:href="#ArialMT-6c" x="200.048828"/>
      <use xlink:href="#ArialMT-61" x="222.265625"/>
      <use xlink:href="#ArialMT-63" x="277.880859"/>
      <use xlink:href="#ArialMT-65" x="327.880859"/>
      <use xlink:href="#ArialMT-6d" x="383.496094"/>
      <use xlink:href="#ArialMT-65" x="466.796875"/>
      <use xlink:href="#ArialMT-6e" x="522.412109"/>
      <use xlink:href="#ArialMT-74" x="578.027344"/>
     </g>
    </g>
   </g>
   <g id="line2d_16">
    <path d="M 68.29942 27.7545 
L 69.011025 27.911867 
L 69.722631 28.380891 
L 70.434236 29.156165 
L 71.145841 30.231241 
L 71.857446 31.598676 
L 73.280656 35.176082 
L 74.703866 39.810371 
L 76.127076 45.410308 
L 77.550286 51.873048 
L 79.685101 62.936109 
L 81.819916 75.272755 
L 85.377941 97.468336 
L 90.359176 128.512128 
L 92.493991 140.638033 
L 94.628806 151.523992 
L 96.052017 157.940447 
L 97.475227 163.594709 
L 98.898437 168.424216 
L 100.321647 172.379655 
L 101.744857 175.425358 
L 102.456462 176.599694 
L 103.168067 177.539487 
L 103.879672 178.244167 
L 104.591277 178.714012 
L 105.302882 178.950141 
L 106.014487 178.9545 
L 106.726092 178.729843 
L 107.437697 178.279714 
L 108.149302 177.608425 
L 108.860907 176.721031 
L 110.284117 174.321691 
L 111.707327 171.135905 
L 113.130537 167.227814 
L 114.553747 162.670343 
L 116.688562 154.79428 
L 118.823377 145.935854 
L 122.381403 129.854793 
L 127.362638 107.105118 
L 129.497453 98.131351 
L 131.632268 90.019606 
L 133.767083 82.997814 
L 135.190293 79.015472 
L 136.613503 75.644137 
L 138.036713 72.917394 
L 139.459923 70.858832 
L 140.171528 70.08473 
L 140.883133 69.481945 
L 141.594738 69.050597 
L 142.306343 68.790183 
L 143.017948 68.699598 
L 143.729553 68.777136 
L 144.441158 69.020509 
L 145.152764 69.426862 
L 145.864369 69.992786 
L 147.287579 71.58708 
L 148.710789 73.765862 
L 150.133999 76.484158 
L 151.557209 79.690363 
L 153.692024 85.287734 
L 155.826839 91.640128 
L 158.673259 100.886989 
L 165.077704 122.200121 
L 167.212519 128.655675 
L 169.347334 134.453981 
L 171.48215 139.43357 
L 172.90536 142.233015 
L 174.32857 144.580328 
L 175.75178 146.452761 
L 177.17499 147.834882 
L 178.5982 148.718621 
L 179.309805 148.973076 
L 180.02141 149.10321 
L 180.733015 149.110043 
L 181.44462 148.995023 
L 182.156225 148.760021 
L 183.579435 147.939574 
L 185.002645 146.671587 
L 186.425855 144.984786 
L 187.849065 142.91319 
L 189.272275 140.495499 
L 191.40709 136.314411 
L 193.541905 131.608889 
L 197.099931 123.061244 
L 202.081166 110.959157 
L 204.927586 104.684827 
L 207.062401 100.544909 
L 209.197216 97.018847 
L 210.620426 95.054954 
L 212.043636 93.425254 
L 213.466846 92.145059 
L 214.890056 91.224331 
L 216.313266 90.667665 
L 217.736476 90.474354 
L 219.159686 90.638521 
L 220.582896 91.14933 
L 222.006107 91.991257 
L 223.429317 93.14442 
L 224.852527 94.584971 
L 226.275737 96.285528 
L 228.410552 99.256569 
L 230.545367 102.630582 
L 233.391787 107.544868 
L 240.507837 120.060315 
L 242.642652 123.39148 
L 244.777467 126.343829 
L 246.912283 128.836711 
L 248.335493 130.211419 
L 249.758703 131.339375 
L 251.181913 132.210348 
L 252.605123 132.818016 
L 254.028333 133.159967 
L 255.451543 133.237635 
L 256.874753 133.056191 
L 258.297963 132.624382 
L 259.721173 131.954316 
L 261.144383 131.061217 
L 262.567593 129.963126 
L 264.702408 127.977155 
L 266.837223 125.654634 
L 269.683643 122.183706 
L 278.934509 110.437296 
L 281.069324 108.136383 
L 283.204139 106.14228 
L 285.338954 104.507656 
L 286.762164 103.637624 
L 288.185374 102.953335 
L 289.608584 102.46014 
L 291.031794 102.160535 
L 292.455004 102.054194 
L 293.878214 102.138043 
L 295.301424 102.406365 
L 296.724635 102.850951 
L 298.85945 103.824698 
L 300.994265 105.126623 
L 303.12908 106.703614 
L 305.9755 109.129731 
L 310.24513 113.145587 
L 315.226365 117.76512 
L 318.072785 120.087707 
L 320.2076 121.583569 
L 322.342416 122.823247 
L 324.477231 123.776314 
L 326.612046 124.422559 
L 328.746861 124.752258 
L 330.881676 124.766123 
L 333.016491 124.4749 
L 335.151306 123.898678 
L 337.286121 123.065916 
L 339.420936 122.012237 
L 342.267356 120.335884 
L 345.825381 117.959371 
L 352.941432 113.125115 
L 355.787852 111.460829 
L 358.634272 110.085184 
L 360.769087 109.282057 
L 362.903902 108.696169 
L 365.038717 108.338491 
L 367.173532 108.212336 
L 369.308347 108.31352 
L 371.443162 108.630765 
L 373.577978 109.146307 
L 376.424398 110.100921 
L 379.270818 111.297612 
L 383.540448 113.372942 
L 390.656498 116.880222 
L 394.214523 118.337477 
L 397.060944 119.250046 
L 399.907364 119.89257 
L 402.753784 120.241624 
L 404.888599 120.306664 
L 407.735019 120.13844 
L 410.581439 119.701002 
L 413.427859 119.031573 
L 416.985884 117.943263 
L 422.678725 115.888574 
L 423.39033 115.624824 
L 423.39033 115.624824 
" clip-path="url(#p987997e019)" style="fill: none; stroke: #1f77b4; stroke-width: 2; stroke-linecap: round"/>
   </g>
   <g id="line2d_17">
    <path d="M 68.29942 27.7545 
L 69.011025 27.906352 
L 69.722631 28.33822 
L 70.434236 29.016911 
L 71.145841 29.912151 
L 72.569051 32.244433 
L 73.992261 35.143033 
L 76.127076 40.214539 
L 78.973496 47.709162 
L 84.666336 62.92806 
L 87.512756 69.954219 
L 90.359176 76.365265 
L 93.205596 82.103139 
L 95.340412 85.9603 
L 97.475227 89.445945 
L 99.610042 92.577646 
L 101.744857 95.377294 
L 103.879672 97.869195 
L 106.014487 100.078676 
L 108.149302 102.031084 
L 110.284117 103.751095 
L 113.130537 105.723403 
L 115.976957 107.37595 
L 118.823377 108.755321 
L 121.669798 109.902795 
L 125.227823 111.065583 
L 128.785848 111.982111 
L 133.055478 112.825911 
L 138.036713 113.542106 
L 143.729553 114.105887 
L 150.845604 114.554122 
L 160.096469 114.878795 
L 172.90536 115.081913 
L 195.676721 115.184992 
L 276.088089 115.206759 
L 423.39033 115.206798 
L 423.39033 115.206798 
" clip-path="url(#p987997e019)" style="fill: none; stroke: #ff7f0e; stroke-width: 2; stroke-linecap: round"/>
   </g>
   <g id="line2d_18">
    <path d="M 68.29942 27.7545 
L 69.722631 28.081049 
L 100.321647 38.652612 
L 113.842142 42.912803 
L 127.362638 46.935917 
L 141.594738 50.929144 
L 155.826839 54.688804 
L 170.770545 58.400007 
L 185.71425 61.883624 
L 201.369561 65.304224 
L 217.736476 68.645923 
L 234.103392 71.763847 
L 251.181913 74.794948 
L 268.972038 77.72768 
L 287.473769 80.552171 
L 306.687105 83.260223 
L 326.612046 85.845272 
L 347.248592 88.302345 
L 369.308347 90.701942 
L 392.079708 92.95468 
L 416.274279 95.121743 
L 423.39033 95.71799 
L 423.39033 95.71799 
" clip-path="url(#p987997e019)" style="fill: none; stroke: #2ca02c; stroke-width: 2; stroke-linecap: round"/>
   </g>
   <g id="patch_3">
    <path d="M 50.544875 180.796021 
L 50.544875 27.7545 
" style="fill: none; stroke: #262626; stroke-linejoin: miter; stroke-linecap: square"/>
   </g>
   <g id="patch_4">
    <path d="M 68.29942 186.5145 
L 423.39033 186.5145 
" style="fill: none; stroke: #262626; stroke-linejoin: miter; stroke-linecap: square"/>
   </g>
   <g id="text_17">
    <!-- Damped Harmonic Oscillator -->
    <g style="fill: #262626" transform="translate(184.495625 14.1945) scale(0.096 -0.096)">
     <defs>
      <path id="ArialMT-64" d="M 2575 0 
L 2575 419 
Q 2259 -75 1647 -75 
Q 1250 -75 917 144 
Q 584 363 401 755 
Q 219 1147 219 1656 
Q 219 2153 384 2558 
Q 550 2963 881 3178 
Q 1213 3394 1622 3394 
Q 1922 3394 2156 3267 
Q 2391 3141 2538 2938 
L 2538 4581 
L 3097 4581 
L 3097 0 
L 2575 0 
z
M 797 1656 
Q 797 1019 1065 703 
Q 1334 388 1700 388 
Q 2069 388 2326 689 
Q 2584 991 2584 1609 
Q 2584 2291 2321 2609 
Q 2059 2928 1675 2928 
Q 1300 2928 1048 2622 
Q 797 2316 797 1656 
z
" transform="scale(0.015625)"/>
      <path id="ArialMT-20" transform="scale(0.015625)"/>
      <path id="ArialMT-48" d="M 513 0 
L 513 4581 
L 1119 4581 
L 1119 2700 
L 3500 2700 
L 3500 4581 
L 4106 4581 
L 4106 0 
L 3500 0 
L 3500 2159 
L 1119 2159 
L 1119 0 
L 513 0 
z
" transform="scale(0.015625)"/>
      <path id="ArialMT-72" d="M 416 0 
L 416 3319 
L 922 3319 
L 922 2816 
Q 1116 3169 1280 3281 
Q 1444 3394 1641 3394 
Q 1925 3394 2219 3213 
L 2025 2691 
Q 1819 2813 1613 2813 
Q 1428 2813 1281 2702 
Q 1134 2591 1072 2394 
Q 978 2094 978 1738 
L 978 0 
L 416 0 
z
" transform="scale(0.015625)"/>
      <path id="ArialMT-6f" d="M 213 1659 
Q 213 2581 725 3025 
Q 1153 3394 1769 3394 
Q 2453 3394 2887 2945 
Q 3322 2497 3322 1706 
Q 3322 1066 3130 698 
Q 2938 331 2570 128 
Q 2203 -75 1769 -75 
Q 1072 -75 642 372 
Q 213 819 213 1659 
z
M 791 1659 
Q 791 1022 1069 705 
Q 1347 388 1769 388 
Q 2188 388 2466 706 
Q 2744 1025 2744 1678 
Q 2744 2294 2464 2611 
Q 2184 2928 1769 2928 
Q 1347 2928 1069 2612 
Q 791 2297 791 1659 
z
" transform="scale(0.015625)"/>
      <path id="ArialMT-4f" d="M 309 2231 
Q 309 3372 921 4017 
Q 1534 4663 2503 4663 
Q 3138 4663 3647 4359 
Q 4156 4056 4423 3514 
Q 4691 2972 4691 2284 
Q 4691 1588 4409 1038 
Q 4128 488 3612 205 
Q 3097 -78 2500 -78 
Q 1853 -78 1343 234 
Q 834 547 571 1087 
Q 309 1628 309 2231 
z
M 934 2222 
Q 934 1394 1379 917 
Q 1825 441 2497 441 
Q 3181 441 3623 922 
Q 4066 1403 4066 2288 
Q 4066 2847 3877 3264 
Q 3688 3681 3323 3911 
Q 2959 4141 2506 4141 
Q 1863 4141 1398 3698 
Q 934 3256 934 2222 
z
" transform="scale(0.015625)"/>
     </defs>
     <use xlink:href="#ArialMT-44"/>
     <use xlink:href="#ArialMT-61" x="72.216797"/>
     <use xlink:href="#ArialMT-6d" x="127.832031"/>
     <use xlink:href="#ArialMT-70" x="211.132812"/>
     <use xlink:href="#ArialMT-65" x="266.748047"/>
     <use xlink:href="#ArialMT-64" x="322.363281"/>
     <use xlink:href="#ArialMT-20" x="377.978516"/>
     <use xlink:href="#ArialMT-48" x="405.761719"/>
     <use xlink:href="#ArialMT-61" x="477.978516"/>
     <use xlink:href="#ArialMT-72" x="533.59375"/>
     <use xlink:href="#ArialMT-6d" x="566.894531"/>
     <use xlink:href="#ArialMT-6f" x="650.195312"/>
     <use xlink:href="#ArialMT-6e" x="705.810547"/>
     <use xlink:href="#ArialMT-69" x="761.425781"/>
     <use xlink:href="#ArialMT-63" x="783.642578"/>
     <use xlink:href="#ArialMT-20" x="833.642578"/>
     <use xlink:href="#ArialMT-4f" x="861.425781"/>
     <use xlink:href="#ArialMT-73" x="939.208984"/>
     <use xlink:href="#ArialMT-63" x="989.208984"/>
     <use xlink:href="#ArialMT-69" x="1039.208984"/>
     <use xlink:href="#ArialMT-6c" x="1061.425781"/>
     <use xlink:href="#ArialMT-6c" x="1083.642578"/>
     <use xlink:href="#ArialMT-61" x="1105.859375"/>
     <use xlink:href="#ArialMT-74" x="1161.474609"/>
     <use xlink:href="#ArialMT-6f" x="1189.257812"/>
     <use xlink:href="#ArialMT-72" x="1244.873047"/>
    </g>
   </g>
   <g id="legend_1">
    <g id="patch_5">
     <path d="M 341.292375 64.68125 
L 434.984875 64.68125 
Q 436.744875 64.68125 436.744875 62.92125 
L 436.744875 26.3545 
Q 436.744875 24.5945 434.984875 24.5945 
L 341.292375 24.5945 
Q 339.532375 24.5945 339.532375 26.3545 
L 339.532375 62.92125 
Q 339.532375 64.68125 341.292375 64.68125 
z
" style="fill: #ffffff; opacity: 0.8; stroke: #cccccc; stroke-width: 0.8; stroke-linejoin: miter"/>
    </g>
    <g id="line2d_19">
     <path d="M 343.052375 31.333375 
L 351.852375 31.333375 
L 360.652375 31.333375 
" style="fill: none; stroke: #1f77b4; stroke-width: 2; stroke-linecap: round"/>
    </g>
    <g id="text_18">
     <!-- underdamped -->
     <g style="fill: #262626" transform="translate(367.692375 34.413375) scale(0.088 -0.088)">
      <defs>
       <path id="ArialMT-75" d="M 2597 0 
L 2597 488 
Q 2209 -75 1544 -75 
Q 1250 -75 995 37 
Q 741 150 617 320 
Q 494 491 444 738 
Q 409 903 409 1263 
L 409 3319 
L 972 3319 
L 972 1478 
Q 972 1038 1006 884 
Q 1059 663 1231 536 
Q 1403 409 1656 409 
Q 1909 409 2131 539 
Q 2353 669 2445 892 
Q 2538 1116 2538 1541 
L 2538 3319 
L 3100 3319 
L 3100 0 
L 2597 0 
z
" transform="scale(0.015625)"/>
      </defs>
      <use xlink:href="#ArialMT-75"/>
      <use xlink:href="#ArialMT-6e" x="55.615234"/>
      <use xlink:href="#ArialMT-64" x="111.230469"/>
      <use xlink:href="#ArialMT-65" x="166.845703"/>
      <use xlink:href="#ArialMT-72" x="222.460938"/>
      <use xlink:href="#ArialMT-64" x="255.761719"/>
      <use xlink:href="#ArialMT-61" x="311.376953"/>
      <use xlink:href="#ArialMT-6d" x="366.992188"/>
      <use xlink:href="#ArialMT-70" x="450.292969"/>
      <use xlink:href="#ArialMT-65" x="505.908203"/>
      <use xlink:href="#ArialMT-64" x="561.523438"/>
     </g>
    </g>
    <g id="line2d_20">
     <path d="M 343.052375 43.78125 
L 351.852375 43.78125 
L 360.652375 43.78125 
" style="fill: none; stroke: #ff7f0e; stroke-width: 2; stroke-linecap: round"/>
    </g>
    <g id="text_19">
     <!-- critically damped -->
     <g style="fill: #262626" transform="translate(367.692375 46.86125) scale(0.088 -0.088)">
      <defs>
       <path id="ArialMT-79" d="M 397 -1278 
L 334 -750 
Q 519 -800 656 -800 
Q 844 -800 956 -737 
Q 1069 -675 1141 -563 
Q 1194 -478 1313 -144 
Q 1328 -97 1363 -6 
L 103 3319 
L 709 3319 
L 1400 1397 
Q 1534 1031 1641 628 
Q 1738 1016 1872 1384 
L 2581 3319 
L 3144 3319 
L 1881 -56 
Q 1678 -603 1566 -809 
Q 1416 -1088 1222 -1217 
Q 1028 -1347 759 -1347 
Q 597 -1347 397 -1278 
z
" transform="scale(0.015625)"/>
      </defs>
      <use xlink:href="#ArialMT-63"/>
      <use xlink:href="#ArialMT-72" x="50"/>
      <use xlink:href="#ArialMT-69" x="83.300781"/>
      <use xlink:href="#ArialMT-74" x="105.517578"/>
      <use xlink:href="#ArialMT-69" x="133.300781"/>
      <use xlink:href="#ArialMT-63" x="155.517578"/>
      <use xlink:href="#ArialMT-61" x="205.517578"/>
      <use xlink:href="#ArialMT-6c" x="261.132812"/>
      <use xlink:href="#ArialMT-6c" x="283.349609"/>
      <use xlink:href="#ArialMT-79" x="305.566406"/>
      <use xlink:href="#ArialMT-20" x="355.566406"/>
      <use xlink:href="#ArialMT-64" x="383.349609"/>
      <use xlink:href="#ArialMT-61" x="438.964844"/>
      <use xlink:href="#ArialMT-6d" x="494.580078"/>
      <use xlink:href="#ArialMT-70" x="577.880859"/>
      <use xlink:href="#ArialMT-65" x="633.496094"/>
      <use xlink:href="#ArialMT-64" x="689.111328"/>
     </g>
    </g>
    <g id="line2d_21">
     <path d="M 343.052375 56.33225 
L 351.852375 56.33225 
L 360.652375 56.33225 
" style="fill: none; stroke: #2ca02c; stroke-width: 2; stroke-linecap: round"/>
    </g>
    <g id="text_20">
     <!-- overdamped -->
     <g style="fill: #262626" transform="translate(367.692375 59.41225) scale(0.088 -0.088)">
      <defs>
       <path id="ArialMT-76" d="M 1344 0 
L 81 3319 
L 675 3319 
L 1388 1331 
Q 1503 1009 1600 663 
Q 1675 925 1809 1294 
L 2547 3319 
L 3125 3319 
L 1869 0 
L 1344 0 
z
" transform="scale(0.015625)"/>
      </defs>
      <use xlink:href="#ArialMT-6f"/>
      <use xlink:href="#ArialMT-76" x="55.615234"/>
      <use xlink:href="#ArialMT-65" x="105.615234"/>
      <use xlink:href="#ArialMT-72" x="161.230469"/>
      <use xlink:href="#ArialMT-64" x="194.53125"/>
      <use xlink:href="#ArialMT-61" x="250.146484"/>
      <use xlink:href="#ArialMT-6d" x="305.761719"/>
      <use xlink:href="#ArialMT-70" x="389.0625"/>
      <use xlink:href="#ArialMT-65" x="444.677734"/>
      <use xlink:href="#ArialMT-64" x="500.292969"/>
     </g>
    </g>
   </g>
  </g>
 </g>
 <defs>
  <clipPath id="p987997e019">
   <rect x="50.544875" y="20.1945" width="390.6" height="166.32"/>
  </clipPath>
 </defs>
</svg>