<?xml version="1.0" encoding="utf-8" standalone="no"?>
<!DOCTYPE svg PUBLIC "-//W3C//DTD SVG 1.1//EN"
  "http://www.w3.org/Graphics/SVG/1.1/DTD/svg11.dtd">
<svg xmlns:xlink="http://www.w3.org/1999/xlink" width="293.460784pt" height="285.121619pt" viewBox="0 0 293.460784 285.121619" xmlns="http://www.w3.org/2000/svg" version="1.1">
 <metadata>
  <rdf:RDF xmlns:dc="http://purl.org/dc/elements/1.1/" xmlns:cc="http://creativecommons.org/ns#" xmlns:rdf="http://www.w3.org/1999/02/22-rdf-syntax-ns#">
   <cc:Work>
    <dc:type rdf:resource="http://purl.org/dc/dcmitype/StillImage"/>
    <dc:date>2024-03-21T13:28:45.953522</dc:date>
    <dc:format>image/svg+xml</dc:format>
    <dc:creator>
     <cc:Agent>
      <dc:title>Matplotlib v3.8.0, https://matplotlib.org/</dc:title>
     </cc:Agent>
    </dc:creator>
   </cc:Work>
  </rdf:RDF>
 </metadata>
 <defs>
  <style type="text/css">*{stroke-linejoin: round; stroke-linecap: butt}</style>
 </defs>
 <g id="figure_1">
  <g id="patch_1">
   <path d="M 0 285.121619 
L 293.460784 285.121619 
L 293.460784 0 
L 0 0 
z
" style="fill: #ffffff"/>
  </g>
  <g id="patch_2">
   <path d="M 7.2 273.312 
L 273.312 273.312 
L 273.312 7.2 
L 7.2 7.2 
z
" style="fill: #ffffff"/>
  </g>
  <g id="pane3d_1">
   <g id="patch_3">
    <path d="M 27.293291 207.697309 
L 115.172164 134.035495 
L 113.950564 27.801991 
L 21.866234 95.000941 
" style="fill: none; opacity: 0.5; stroke: #f2f2f2; stroke-width: 0.8; stroke-linejoin: miter"/>
   </g>
  </g>
  <g id="pane3d_2">
   <g id="patch_4">
    <path d="M 115.172164 134.035495 
L 256.186401 175.022766 
L 261.218702 65.130171 
L 113.950564 27.801991 
" style="fill: none; opacity: 0.5; stroke: #e6e6e6; stroke-width: 0.8; stroke-linejoin: miter"/>
   </g>
  </g>
  <g id="pane3d_3">
   <g id="patch_5">
    <path d="M 27.293291 207.697309 
L 176.775269 256.518123 
L 256.186401 175.022766 
L 115.172164 134.035495 
" style="fill: none; opacity: 0.5; stroke: #ececec; stroke-width: 0.8; stroke-linejoin: miter"/>
   </g>
  </g>
  <g id="grid3d_1">
   <g id="Line3DCollection_1">
    <path d="M 43.457901 212.976671 
L 130.481242 138.485239 
L 129.908528 31.84687 
" style="fill: none; stroke: #cccccc; stroke-width: 0.8"/>
    <path d="M 60.4295 218.519595 
L 146.538847 143.152551 
L 146.654601 36.091511 
" style="fill: none; stroke: #cccccc; stroke-width: 0.8"/>
    <path d="M 77.609855 224.130699 
L 162.777559 147.872504 
L 163.597731 40.386101 
" style="fill: none; stroke: #cccccc; stroke-width: 0.8"/>
    <path d="M 95.002844 229.811249 
L 179.200458 152.645992 
L 180.741417 44.731525 
" style="fill: none; stroke: #cccccc; stroke-width: 0.8"/>
    <path d="M 112.612438 235.562542 
L 195.810697 157.473933 
L 198.08924 49.128693 
" style="fill: none; stroke: #cccccc; stroke-width: 0.8"/>
    <path d="M 130.442708 241.385908 
L 212.611499 162.357263 
L 215.644868 53.578533 
" style="fill: none; stroke: #cccccc; stroke-width: 0.8"/>
    <path d="M 148.497829 247.282711 
L 229.606163 167.29694 
L 233.412059 58.081998 
" style="fill: none; stroke: #cccccc; stroke-width: 0.8"/>
    <path d="M 166.782081 253.254347 
L 246.798063 172.293947 
L 251.394659 62.640062 
" style="fill: none; stroke: #cccccc; stroke-width: 0.8"/>
   </g>
  </g>
  <g id="grid3d_2">
   <g id="Line3DCollection_2">
    <path d="M 30.305261 88.842523 
L 35.319176 200.969853 
L 184.056953 249.045324 
" style="fill: none; stroke: #cccccc; stroke-width: 0.8"/>
    <path d="M 42.754989 79.757279 
L 47.169601 191.036592 
L 194.797795 238.022577 
" style="fill: none; stroke: #cccccc; stroke-width: 0.8"/>
    <path d="M 54.919 70.880538 
L 58.759808 181.321451 
L 205.290406 227.254577 
" style="fill: none; stroke: #cccccc; stroke-width: 0.8"/>
    <path d="M 66.807017 62.205204 
L 70.098275 171.817323 
L 215.543291 216.732595 
" style="fill: none; stroke: #cccccc; stroke-width: 0.8"/>
    <path d="M 78.428329 53.7245 
L 81.193115 162.517408 
L 225.564574 206.448293 
" style="fill: none; stroke: #cccccc; stroke-width: 0.8"/>
    <path d="M 89.791811 45.431948 
L 92.052097 153.415194 
L 235.362014 196.393709 
" style="fill: none; stroke: #cccccc; stroke-width: 0.8"/>
    <path d="M 100.90595 37.321356 
L 102.682663 144.504442 
L 244.943029 186.561231 
" style="fill: none; stroke: #cccccc; stroke-width: 0.8"/>
    <path d="M 111.778862 29.3868 
L 113.091946 135.779175 
L 254.314711 176.94358 
" style="fill: none; stroke: #cccccc; stroke-width: 0.8"/>
   </g>
  </g>
  <g id="grid3d_3">
   <g id="Line3DCollection_3">
    <path d="M 256.282826 172.917087 
L 115.148709 131.995709 
L 27.189474 205.541474 
" style="fill: none; stroke: #cccccc; stroke-width: 0.8"/>
    <path d="M 257.216882 152.519687 
L 114.921593 112.245158 
L 26.183464 184.651019 
" style="fill: none; stroke: #cccccc; stroke-width: 0.8"/>
    <path d="M 258.166588 131.780532 
L 114.690855 92.179562 
L 25.159952 163.397144 
" style="fill: none; stroke: #cccccc; stroke-width: 0.8"/>
    <path d="M 259.132341 110.690959 
L 114.456406 71.791322 
L 24.118479 141.770281 
" style="fill: none; stroke: #cccccc; stroke-width: 0.8"/>
    <path d="M 260.11455 89.242012 
L 114.218157 51.072593 
L 23.058567 119.760526 
" style="fill: none; stroke: #cccccc; stroke-width: 0.8"/>
    <path d="M 261.113641 67.424426 
L 113.976015 30.015274 
L 21.979723 97.357618 
" style="fill: none; stroke: #cccccc; stroke-width: 0.8"/>
   </g>
  </g>
  <g id="axis3d_1">
   <g id="line2d_1">
    <path d="M 27.293291 207.697309 
L 176.775269 256.518123 
" style="fill: none; stroke: #262626; stroke-linecap: round"/>
   </g>
   <g id="xtick_1">
    <g id="line2d_2">
     <path d="M 44.215854 212.327868 
L 41.938736 214.277067 
" style="fill: none; stroke: #262626; stroke-linecap: round"/>
    </g>
    <g id="text_1">
     <!-- −1.5 -->
     <g style="fill: #262626" transform="translate(27.250074 235.035405) scale(0.088 -0.088)">
      <defs>
       <path id="ArialMT-2212" d="M 3381 1997 
L 356 1997 
L 356 2522 
L 3381 2522 
L 3381 1997 
z
" transform="scale(0.015625)"/>
       <path id="ArialMT-31" d="M 2384 0 
L 1822 0 
L 1822 3584 
Q 1619 3391 1289 3197 
Q 959 3003 697 2906 
L 697 3450 
Q 1169 3672 1522 3987 
Q 1875 4303 2022 4600 
L 2384 4600 
L 2384 0 
z
" transform="scale(0.015625)"/>
       <path id="ArialMT-2e" d="M 581 0 
L 581 641 
L 1222 641 
L 1222 0 
L 581 0 
z
" transform="scale(0.015625)"/>
       <path id="ArialMT-35" d="M 266 1200 
L 856 1250 
Q 922 819 1161 601 
Q 1400 384 1738 384 
Q 2144 384 2425 690 
Q 2706 997 2706 1503 
Q 2706 1984 2436 2262 
Q 2166 2541 1728 2541 
Q 1456 2541 1237 2417 
Q 1019 2294 894 2097 
L 366 2166 
L 809 4519 
L 3088 4519 
L 3088 3981 
L 1259 3981 
L 1013 2750 
Q 1425 3038 1878 3038 
Q 2478 3038 2890 2622 
Q 3303 2206 3303 1553 
Q 3303 931 2941 478 
Q 2500 -78 1738 -78 
Q 1113 -78 717 272 
Q 322 622 266 1200 
z
" transform="scale(0.015625)"/>
      </defs>
      <use xlink:href="#ArialMT-2212"/>
      <use xlink:href="#ArialMT-31" x="58.398438"/>
      <use xlink:href="#ArialMT-2e" x="114.013672"/>
      <use xlink:href="#ArialMT-35" x="141.796875"/>
     </g>
    </g>
   </g>
   <g id="xtick_2">
    <g id="line2d_3">
     <path d="M 61.179865 217.862839 
L 58.925522 219.835949 
" style="fill: none; stroke: #262626; stroke-linecap: round"/>
    </g>
    <g id="text_2">
     <!-- −1.0 -->
     <g style="fill: #262626" transform="translate(44.23916 240.695808) scale(0.088 -0.088)">
      <defs>
       <path id="ArialMT-30" d="M 266 2259 
Q 266 3072 433 3567 
Q 600 4063 929 4331 
Q 1259 4600 1759 4600 
Q 2128 4600 2406 4451 
Q 2684 4303 2865 4023 
Q 3047 3744 3150 3342 
Q 3253 2941 3253 2259 
Q 3253 1453 3087 958 
Q 2922 463 2592 192 
Q 2263 -78 1759 -78 
Q 1097 -78 719 397 
Q 266 969 266 2259 
z
M 844 2259 
Q 844 1131 1108 757 
Q 1372 384 1759 384 
Q 2147 384 2411 759 
Q 2675 1134 2675 2259 
Q 2675 3391 2411 3762 
Q 2147 4134 1753 4134 
Q 1366 4134 1134 3806 
Q 844 3388 844 2259 
z
" transform="scale(0.015625)"/>
      </defs>
      <use xlink:href="#ArialMT-2212"/>
      <use xlink:href="#ArialMT-31" x="58.398438"/>
      <use xlink:href="#ArialMT-2e" x="114.013672"/>
      <use xlink:href="#ArialMT-30" x="141.796875"/>
     </g>
    </g>
   </g>
   <g id="xtick_3">
    <g id="line2d_4">
     <path d="M 78.352389 223.465843 
L 76.121555 225.463306 
" style="fill: none; stroke: #262626; stroke-linecap: round"/>
    </g>
    <g id="text_3">
     <!-- −0.5 -->
     <g style="fill: #262626" transform="translate(61.438006 246.4261) scale(0.088 -0.088)">
      <use xlink:href="#ArialMT-2212"/>
      <use xlink:href="#ArialMT-30" x="58.398438"/>
      <use xlink:href="#ArialMT-2e" x="114.013672"/>
      <use xlink:href="#ArialMT-35" x="141.796875"/>
     </g>
    </g>
   </g>
   <g id="xtick_4">
    <g id="line2d_5">
     <path d="M 95.737294 229.138142 
L 93.530726 231.160412 
" style="fill: none; stroke: #262626; stroke-linecap: round"/>
    </g>
    <g id="text_4">
     <!-- 0.0 -->
     <g style="fill: #262626" transform="translate(81.420398 252.227581) scale(0.088 -0.088)">
      <use xlink:href="#ArialMT-30"/>
      <use xlink:href="#ArialMT-2e" x="55.615234"/>
      <use xlink:href="#ArialMT-30" x="83.398438"/>
     </g>
    </g>
   </g>
   <g id="xtick_5">
    <g id="line2d_6">
     <path d="M 113.338544 234.88103 
L 111.157023 236.928572 
" style="fill: none; stroke: #262626; stroke-linecap: round"/>
    </g>
    <g id="text_5">
     <!-- 0.5 -->
     <g style="fill: #262626" transform="translate(99.050591 258.101588) scale(0.088 -0.088)">
      <use xlink:href="#ArialMT-30"/>
      <use xlink:href="#ArialMT-2e" x="55.615234"/>
      <use xlink:href="#ArialMT-35" x="83.398438"/>
     </g>
    </g>
   </g>
   <g id="xtick_6">
    <g id="line2d_7">
     <path d="M 131.160204 240.695832 
L 129.004532 242.769123 
" style="fill: none; stroke: #262626; stroke-linecap: round"/>
    </g>
    <g id="text_6">
     <!-- 1.0 -->
     <g style="fill: #262626" transform="translate(116.902568 264.049488) scale(0.088 -0.088)">
      <use xlink:href="#ArialMT-31"/>
      <use xlink:href="#ArialMT-2e" x="55.615234"/>
      <use xlink:href="#ArialMT-30" x="83.398438"/>
     </g>
    </g>
   </g>
   <g id="xtick_7">
    <g id="line2d_8">
     <path d="M 149.206439 246.583908 
L 147.077444 248.683437 
" style="fill: none; stroke: #262626; stroke-linecap: round"/>
    </g>
    <g id="text_7">
     <!-- 1.5 -->
     <g style="fill: #262626" transform="translate(134.98054 270.072685) scale(0.088 -0.088)">
      <use xlink:href="#ArialMT-31"/>
      <use xlink:href="#ArialMT-2e" x="55.615234"/>
      <use xlink:href="#ArialMT-35" x="83.398438"/>
     </g>
    </g>
   </g>
   <g id="xtick_8">
    <g id="line2d_9">
     <path d="M 167.481522 252.546651 
L 165.380057 254.67292 
" style="fill: none; stroke: #262626; stroke-linecap: round"/>
    </g>
    <g id="text_8">
     <!-- 2.0 -->
     <g style="fill: #262626" transform="translate(153.288827 276.172619) scale(0.088 -0.088)">
      <defs>
       <path id="ArialMT-32" d="M 3222 541 
L 3222 0 
L 194 0 
Q 188 203 259 391 
Q 375 700 629 1000 
Q 884 1300 1366 1694 
Q 2113 2306 2375 2664 
Q 2638 3022 2638 3341 
Q 2638 3675 2398 3904 
Q 2159 4134 1775 4134 
Q 1369 4134 1125 3890 
Q 881 3647 878 3216 
L 300 3275 
Q 359 3922 746 4261 
Q 1134 4600 1788 4600 
Q 2447 4600 2831 4234 
Q 3216 3869 3216 3328 
Q 3216 3053 3103 2787 
Q 2991 2522 2730 2228 
Q 2469 1934 1863 1422 
Q 1356 997 1212 845 
Q 1069 694 975 541 
L 3222 541 
z
" transform="scale(0.015625)"/>
      </defs>
      <use xlink:href="#ArialMT-32"/>
      <use xlink:href="#ArialMT-2e" x="55.615234"/>
      <use xlink:href="#ArialMT-30" x="83.398438"/>
     </g>
    </g>
   </g>
  </g>
  <g id="axis3d_2">
   <g id="line2d_10">
    <path d="M 256.186401 175.022766 
L 176.775269 256.518123 
" style="fill: none; stroke: #262626; stroke-linecap: round"/>
   </g>
   <g id="xtick_9">
    <g id="line2d_11">
     <path d="M 182.803658 248.64023 
L 186.566777 249.856557 
" style="fill: none; stroke: #262626; stroke-linecap: round"/>
    </g>
    <g id="text_9">
     <!-- −1.5 -->
     <g style="fill: #262626" transform="translate(188.22776 268.740321) scale(0.088 -0.088)">
      <use xlink:href="#ArialMT-2212"/>
      <use xlink:href="#ArialMT-31" x="58.398438"/>
      <use xlink:href="#ArialMT-2e" x="114.013672"/>
      <use xlink:href="#ArialMT-35" x="141.796875"/>
     </g>
    </g>
   </g>
   <g id="xtick_10">
    <g id="line2d_12">
     <path d="M 193.554586 237.626898 
L 197.287386 238.814945 
" style="fill: none; stroke: #262626; stroke-linecap: round"/>
    </g>
    <g id="text_10">
     <!-- −1.0 -->
     <g style="fill: #262626" transform="translate(198.824555 257.554363) scale(0.088 -0.088)">
      <use xlink:href="#ArialMT-2212"/>
      <use xlink:href="#ArialMT-31" x="58.398438"/>
      <use xlink:href="#ArialMT-2e" x="114.013672"/>
      <use xlink:href="#ArialMT-30" x="141.796875"/>
     </g>
    </g>
   </g>
   <g id="xtick_11">
    <g id="line2d_13">
     <path d="M 204.057152 226.867988 
L 207.760023 228.028731 
" style="fill: none; stroke: #262626; stroke-linecap: round"/>
    </g>
    <g id="text_11">
     <!-- −0.5 -->
     <g style="fill: #262626" transform="translate(209.176304 246.627074) scale(0.088 -0.088)">
      <use xlink:href="#ArialMT-2212"/>
      <use xlink:href="#ArialMT-30" x="58.398438"/>
      <use xlink:href="#ArialMT-2e" x="114.013672"/>
      <use xlink:href="#ArialMT-35" x="141.796875"/>
     </g>
    </g>
   </g>
   <g id="xtick_12">
    <g id="line2d_14">
     <path d="M 214.319866 216.354785 
L 217.993192 217.489155 
" style="fill: none; stroke: #262626; stroke-linecap: round"/>
    </g>
    <g id="text_12">
     <!-- 0.0 -->
     <g style="fill: #262626" transform="translate(221.861284 235.949586) scale(0.088 -0.088)">
      <use xlink:href="#ArialMT-30"/>
      <use xlink:href="#ArialMT-2e" x="55.615234"/>
      <use xlink:href="#ArialMT-30" x="83.398438"/>
     </g>
    </g>
   </g>
   <g id="xtick_13">
    <g id="line2d_15">
     <path d="M 224.35085 206.078968 
L 227.995014 207.187853 
" style="fill: none; stroke: #262626; stroke-linecap: round"/>
    </g>
    <g id="text_13">
     <!-- 0.5 -->
     <g style="fill: #262626" transform="translate(231.747769 225.51343) scale(0.088 -0.088)">
      <use xlink:href="#ArialMT-30"/>
      <use xlink:href="#ArialMT-2e" x="55.615234"/>
      <use xlink:href="#ArialMT-35" x="83.398438"/>
     </g>
    </g>
   </g>
   <g id="xtick_14">
    <g id="line2d_16">
     <path d="M 234.157866 196.032586 
L 237.773246 197.116836 
" style="fill: none; stroke: #262626; stroke-linecap: round"/>
    </g>
    <g id="text_14">
     <!-- 1.0 -->
     <g style="fill: #262626" transform="translate(241.413298 215.310514) scale(0.088 -0.088)">
      <use xlink:href="#ArialMT-31"/>
      <use xlink:href="#ArialMT-2e" x="55.615234"/>
      <use xlink:href="#ArialMT-30" x="83.398438"/>
     </g>
    </g>
   </g>
   <g id="xtick_15">
    <g id="line2d_17">
     <path d="M 243.748331 186.20804 
L 247.335304 187.268465 
" style="fill: none; stroke: #262626; stroke-linecap: round"/>
    </g>
    <g id="text_15">
     <!-- 1.5 -->
     <g style="fill: #262626" transform="translate(250.865196 205.333107) scale(0.088 -0.088)">
      <use xlink:href="#ArialMT-31"/>
      <use xlink:href="#ArialMT-2e" x="55.615234"/>
      <use xlink:href="#ArialMT-35" x="83.398438"/>
     </g>
    </g>
   </g>
   <g id="xtick_16">
    <g id="line2d_18">
     <path d="M 253.129341 176.598061 
L 256.688278 177.63544 
" style="fill: none; stroke: #262626; stroke-linecap: round"/>
    </g>
    <g id="text_16">
     <!-- 2.0 -->
     <g style="fill: #262626" transform="translate(260.110469 195.573813) scale(0.088 -0.088)">
      <use xlink:href="#ArialMT-32"/>
      <use xlink:href="#ArialMT-2e" x="55.615234"/>
      <use xlink:href="#ArialMT-30" x="83.398438"/>
     </g>
    </g>
   </g>
  </g>
  <g id="axis3d_3">
   <g id="line2d_19">
    <path d="M 256.186401 175.022766 
L 261.218702 65.130171 
" style="fill: none; stroke: #262626; stroke-linecap: round"/>
   </g>
   <g id="xtick_17">
    <g id="line2d_20">
     <path d="M 255.098274 172.57363 
L 258.654749 173.604818 
" style="fill: none; stroke: #262626; stroke-linecap: round"/>
    </g>
    <g id="text_17">
     <!-- 0.0 -->
     <g style="fill: #262626" transform="translate(268.430793 176.615054) scale(0.088 -0.088)">
      <use xlink:href="#ArialMT-30"/>
      <use xlink:href="#ArialMT-2e" x="55.615234"/>
      <use xlink:href="#ArialMT-30" x="83.398438"/>
     </g>
    </g>
   </g>
   <g id="xtick_18">
    <g id="line2d_21">
     <path d="M 256.02212 152.181528 
L 259.609273 153.196817 
" style="fill: none; stroke: #262626; stroke-linecap: round"/>
    </g>
    <g id="text_18">
     <!-- 0.2 -->
     <g style="fill: #262626" transform="translate(269.513298 156.257827) scale(0.088 -0.088)">
      <use xlink:href="#ArialMT-30"/>
      <use xlink:href="#ArialMT-2e" x="55.615234"/>
      <use xlink:href="#ArialMT-32" x="83.398438"/>
     </g>
    </g>
   </g>
   <g id="xtick_19">
    <g id="line2d_22">
     <path d="M 256.961438 131.447897 
L 260.579804 132.446607 
" style="fill: none; stroke: #262626; stroke-linecap: round"/>
    </g>
    <g id="text_19">
     <!-- 0.4 -->
     <g style="fill: #262626" transform="translate(270.613885 135.560558) scale(0.088 -0.088)">
      <defs>
       <path id="ArialMT-34" d="M 2069 0 
L 2069 1097 
L 81 1097 
L 81 1613 
L 2172 4581 
L 2631 4581 
L 2631 1613 
L 3250 1613 
L 3250 1097 
L 2631 1097 
L 2631 0 
L 2069 0 
z
M 2069 1613 
L 2069 3678 
L 634 1613 
L 2069 1613 
z
" transform="scale(0.015625)"/>
      </defs>
      <use xlink:href="#ArialMT-30"/>
      <use xlink:href="#ArialMT-2e" x="55.615234"/>
      <use xlink:href="#ArialMT-34" x="83.398438"/>
     </g>
    </g>
   </g>
   <g id="xtick_20">
    <g id="line2d_23">
     <path d="M 257.916622 110.364083 
L 261.566746 111.345508 
" style="fill: none; stroke: #262626; stroke-linecap: round"/>
    </g>
    <g id="text_20">
     <!-- 0.6 -->
     <g style="fill: #262626" transform="translate(271.73301 114.514655) scale(0.088 -0.088)">
      <defs>
       <path id="ArialMT-36" d="M 3184 3459 
L 2625 3416 
Q 2550 3747 2413 3897 
Q 2184 4138 1850 4138 
Q 1581 4138 1378 3988 
Q 1113 3794 959 3422 
Q 806 3050 800 2363 
Q 1003 2672 1297 2822 
Q 1591 2972 1913 2972 
Q 2475 2972 2870 2558 
Q 3266 2144 3266 1488 
Q 3266 1056 3080 686 
Q 2894 316 2569 119 
Q 2244 -78 1831 -78 
Q 1128 -78 684 439 
Q 241 956 241 2144 
Q 241 3472 731 4075 
Q 1159 4600 1884 4600 
Q 2425 4600 2770 4297 
Q 3116 3994 3184 3459 
z
M 888 1484 
Q 888 1194 1011 928 
Q 1134 663 1356 523 
Q 1578 384 1822 384 
Q 2178 384 2434 671 
Q 2691 959 2691 1453 
Q 2691 1928 2437 2201 
Q 2184 2475 1800 2475 
Q 1419 2475 1153 2201 
Q 888 1928 888 1484 
z
" transform="scale(0.015625)"/>
      </defs>
      <use xlink:href="#ArialMT-30"/>
      <use xlink:href="#ArialMT-2e" x="55.615234"/>
      <use xlink:href="#ArialMT-36" x="83.398438"/>
     </g>
    </g>
   </g>
   <g id="xtick_21">
    <g id="line2d_24">
     <path d="M 258.888075 88.921141 
L 262.57052 89.884543 
" style="fill: none; stroke: #262626; stroke-linecap: round"/>
    </g>
    <g id="text_21">
     <!-- 0.8 -->
     <g style="fill: #262626" transform="translate(272.871147 93.111235) scale(0.088 -0.088)">
      <defs>
       <path id="ArialMT-38" d="M 1131 2484 
Q 781 2613 612 2850 
Q 444 3088 444 3419 
Q 444 3919 803 4259 
Q 1163 4600 1759 4600 
Q 2359 4600 2725 4251 
Q 3091 3903 3091 3403 
Q 3091 3084 2923 2848 
Q 2756 2613 2416 2484 
Q 2838 2347 3058 2040 
Q 3278 1734 3278 1309 
Q 3278 722 2862 322 
Q 2447 -78 1769 -78 
Q 1091 -78 675 323 
Q 259 725 259 1325 
Q 259 1772 486 2073 
Q 713 2375 1131 2484 
z
M 1019 3438 
Q 1019 3113 1228 2906 
Q 1438 2700 1772 2700 
Q 2097 2700 2305 2904 
Q 2513 3109 2513 3406 
Q 2513 3716 2298 3927 
Q 2084 4138 1766 4138 
Q 1444 4138 1231 3931 
Q 1019 3725 1019 3438 
z
M 838 1322 
Q 838 1081 952 856 
Q 1066 631 1291 507 
Q 1516 384 1775 384 
Q 2178 384 2440 643 
Q 2703 903 2703 1303 
Q 2703 1709 2433 1975 
Q 2163 2241 1756 2241 
Q 1359 2241 1098 1978 
Q 838 1716 838 1322 
z
" transform="scale(0.015625)"/>
      </defs>
      <use xlink:href="#ArialMT-30"/>
      <use xlink:href="#ArialMT-2e" x="55.615234"/>
      <use xlink:href="#ArialMT-38" x="83.398438"/>
     </g>
    </g>
   </g>
   <g id="xtick_22">
    <g id="line2d_25">
     <path d="M 259.876217 67.109816 
L 263.591561 68.054427 
" style="fill: none; stroke: #262626; stroke-linecap: round"/>
    </g>
    <g id="text_22">
     <!-- 1.0 -->
     <g style="fill: #262626" transform="translate(274.028784 71.341109) scale(0.088 -0.088)">
      <use xlink:href="#ArialMT-31"/>
      <use xlink:href="#ArialMT-2e" x="55.615234"/>
      <use xlink:href="#ArialMT-30" x="83.398438"/>
     </g>
    </g>
   </g>
  </g>
  <g id="axes_1">
   <g id="line2d_26">
    <path d="M 208.685116 102.900449 
L 210.502317 101.783582 
L 212.109463 100.630979 
L 213.505081 99.448266 
L 214.688317 98.24103 
L 215.658921 97.014805 
L 216.417226 95.775056 
L 216.964129 94.527164 
L 217.301065 93.276412 
L 217.429987 92.027975 
L 217.353341 90.78691 
L 217.074041 89.55814 
L 216.595445 88.346454 
L 215.921331 87.156492 
L 215.05587 85.992742 
L 214.003606 84.859532 
L 212.769429 83.761029 
L 211.358549 82.701229 
L 209.77648 81.683958 
L 208.029011 80.712866 
L 206.122186 79.79143 
L 201.855811 78.110531 
L 197.030063 76.665491 
L 191.700502 75.477669 
L 185.924985 74.565565 
L 179.763183 73.944847 
L 173.276131 73.628386 
L 166.525837 73.626299 
L 159.574923 73.945994 
L 152.486299 74.592208 
L 145.322865 75.567047 
L 138.147227 76.870022 
L 131.021422 78.49807 
L 124.006649 80.445583 
L 117.162984 82.704426 
L 110.549097 85.263952 
L 104.221938 88.111021 
L 98.236411 91.230026 
L 92.645013 94.602918 
L 90.012767 96.378276 
L 87.497455 98.209254 
L 85.104787 100.092935 
L 82.840247 102.026255 
L 80.709078 104.006017 
L 78.716266 106.028886 
L 76.866526 108.091398 
L 75.16429 110.189965 
L 73.613687 112.320875 
L 72.218532 114.480303 
L 70.982308 116.664317 
L 69.908152 118.868879 
L 68.998842 121.089861 
L 68.256779 123.323048 
L 67.683978 125.564149 
L 67.282049 127.808803 
L 67.05219 130.052596 
L 66.99517 132.291065 
L 67.111321 134.519715 
L 67.400531 136.734028 
L 67.862228 138.929476 
L 68.49538 141.101537 
L 69.298486 143.245704 
L 70.269574 145.357506 
L 71.406196 147.432516 
L 72.705429 149.46637 
L 74.163879 151.454781 
L 75.77768 153.393556 
L 77.542504 155.278607 
L 79.453564 157.105971 
L 81.505631 158.871824 
L 83.693039 160.572497 
L 86.009705 162.204485 
L 88.449143 163.764471 
L 91.004481 165.249329 
L 93.668489 166.656148 
L 96.433593 167.982234 
L 99.291907 169.225128 
L 105.255209 171.452731 
L 111.490063 173.324317 
L 117.924977 174.829532 
L 124.486337 175.962475 
L 131.099507 176.721784 
L 137.689938 177.110626 
L 144.184265 177.136612 
L 150.511371 176.811623 
L 156.603375 176.151554 
L 162.396545 175.175999 
L 167.832091 173.907876 
L 172.856838 172.373004 
L 177.423773 170.599646 
L 181.49245 168.618046 
L 185.029263 166.459938 
L 188.007584 164.158083 
L 189.280904 162.963653 
L 190.407782 161.745802 
L 191.386844 160.508712 
L 192.217133 159.256547 
L 192.898107 157.993442 
L 193.429627 156.723493 
L 193.811946 155.450743 
L 194.0457 154.179175 
L 194.131894 152.912703 
L 194.071893 151.655158 
L 193.867403 150.41029 
L 193.520463 149.181749 
L 193.033429 147.973087 
L 192.408959 146.78775 
L 191.649998 145.629068 
L 190.759766 144.500255 
L 189.741742 143.404404 
L 187.337438 141.32332 
L 184.469547 139.407974 
L 181.173759 137.678366 
L 177.488556 136.152278 
L 173.454793 134.845236 
L 169.115303 133.770478 
L 164.514517 132.938955 
L 159.698111 132.359324 
L 154.712668 132.037967 
L 149.605361 131.979006 
L 144.423649 132.184325 
L 139.214983 132.653594 
L 134.026521 133.384306 
L 128.904848 134.371803 
L 123.895694 135.609315 
L 119.043655 137.088 
L 114.39191 138.796992 
L 109.98192 140.723453 
L 105.853142 142.852638 
L 102.042711 145.167968 
L 98.585138 147.65112 
L 95.511986 150.282132 
L 92.851557 153.039521 
L 90.628573 155.900433 
L 88.863869 158.840802 
L 88.158748 160.332978 
L 87.5741 161.835543 
L 87.11131 163.345235 
L 86.771469 164.858758 
L 86.555365 166.372785 
L 86.463481 167.883973 
L 86.495988 169.388964 
L 86.652741 170.884399 
L 86.933273 172.366924 
L 87.336793 173.833202 
L 87.862187 175.279921 
L 88.508014 176.703804 
L 89.272507 178.10162 
L 90.153576 179.470191 
L 92.255468 182.107228 
L 94.790608 184.59098 
L 97.731017 186.899031 
L 101.04409 189.010792 
L 104.692939 190.907784 
L 108.636815 192.573912 
L 112.831608 193.995691 
L 117.230402 195.162448 
L 121.784094 196.066467 
L 126.442048 196.703103 
L 131.152781 197.070827 
L 135.864656 197.171234 
L 140.526583 197.008994 
L 145.08869 196.591747 
L 149.502974 195.929959 
L 153.723897 195.036735 
L 157.70893 193.927581 
L 161.419036 192.620159 
L 164.819069 191.13399 
L 167.878105 189.490164 
L 170.569695 187.711025 
L 172.872031 185.819857 
L 174.768044 183.840575 
L 176.245426 181.797423 
L 177.296589 179.714686 
L 177.918562 177.616414 
L 178.112834 175.526182 
L 177.885165 173.46685 
L 177.245343 171.460368 
L 176.206931 169.527592 
L 174.786981 167.688127 
L 173.005736 165.960196 
L 170.886329 164.360531 
L 168.454471 162.904277 
L 165.738141 161.604925 
L 162.767284 160.474256 
L 159.573509 159.522298 
L 156.189792 158.757305 
L 152.650197 158.185733 
L 148.989593 157.812244 
L 145.243383 157.639701 
L 141.447243 157.669186 
L 137.636864 157.900013 
L 133.847693 158.329756 
L 130.114693 158.95428 
L 126.472086 159.76778 
L 122.953114 160.762828 
L 119.589793 161.930423 
L 116.412672 163.260056 
L 113.450589 164.739782 
L 110.730431 166.3563 
L 108.276904 168.095046 
L 106.112297 169.940301 
L 104.256262 171.875307 
L 102.725601 173.882399 
L 101.534072 175.943151 
L 100.692208 178.038536 
L 100.20716 180.149097 
L 100.082572 182.255134 
L 100.31848 184.336897 
L 100.911255 186.374794 
L 101.85358 188.349603 
L 103.134473 190.242685 
L 104.739363 192.036204 
L 106.650203 193.713335 
L 108.845644 195.25848 
L 111.301252 196.657452 
L 113.989775 197.897667 
L 116.881458 198.968296 
L 119.944392 199.86041 
L 123.144907 200.567092 
L 126.447986 201.08352 
L 129.81771 201.407023 
L 133.217704 201.537104 
L 136.611599 201.475424 
L 139.963485 201.22577 
L 143.238351 200.793972 
L 146.402508 200.187807 
L 149.423978 199.416871 
L 152.272859 198.492422 
L 154.921636 197.427216 
L 157.345464 196.235313 
L 159.52239 194.931886 
L 161.433538 193.533006 
L 163.06324 192.055441 
L 164.39912 190.516438 
L 165.432131 188.933523 
L 166.156554 187.324296 
L 166.56995 185.706246 
L 166.673083 184.096564 
L 166.469807 182.511982 
L 165.966926 180.968618 
L 165.174033 179.481837 
L 164.103329 178.066127 
L 162.769425 176.734993 
L 161.189137 175.500862 
L 159.381269 174.375002 
L 157.366392 173.367457 
L 155.16662 172.486993 
L 152.805385 171.741057 
L 150.30721 171.135744 
L 147.697488 170.675777 
L 145.002258 170.364497 
L 142.247987 170.203859 
L 139.461354 170.194437 
L 136.669036 170.335439 
L 133.897499 170.624726 
L 131.172789 171.058841 
L 128.520332 171.633046 
L 125.964731 172.341363 
L 123.52957 173.176626 
L 121.237222 174.13054 
L 119.108663 175.193746 
L 117.16329 176.3559 
L 115.418746 177.605753 
L 113.890757 178.931247 
L 112.59298 180.319613 
L 111.536857 181.757488 
L 110.731493 183.231025 
L 110.183547 184.72603 
L 109.897143 186.228086 
L 109.873806 187.722704 
L 110.112418 189.19546 
L 110.609211 190.632147 
L 111.357775 192.018929 
L 112.349109 193.342487 
L 113.571701 194.590169 
L 115.011631 195.750133 
L 116.652719 196.811486 
L 118.476696 197.764406 
L 120.463407 198.600261 
L 122.591036 199.311709 
L 124.836366 199.892781 
L 127.175045 200.338952 
L 130.802831 200.749045 
L 134.496861 200.845305 
L 138.169747 200.631585 
L 141.736008 200.119204 
L 145.114287 199.326514 
L 148.229382 198.278263 
L 151.014039 197.00479 
L 152.657921 196.047806 
L 154.114471 195.017509 
L 155.371349 193.925784 
L 156.418509 192.784944 
L 157.248257 191.607591 
L 157.855268 190.406469 
L 158.236584 189.194333 
L 158.391583 187.983809 
L 158.321924 186.787272 
L 158.031466 185.616732 
L 157.526177 184.483716 
L 156.814019 183.399177 
L 155.90482 182.373401 
L 154.810135 181.415924 
L 153.543098 180.535467 
L 152.118264 179.739874 
L 149.720042 178.720464 
L 147.060415 177.926536 
L 144.201415 177.372169 
L 141.207997 177.066167 
L 138.146731 177.01202 
L 135.084508 177.207936 
L 132.087268 177.646961 
L 129.218759 178.317173 
L 126.539335 179.201956 
L 124.104811 180.280346 
L 121.965377 181.527457 
L 120.164596 182.914975 
L 119.170346 183.902697 
L 118.351451 184.929203 
L 117.714834 185.984331 
L 117.265614 187.057669 
L 117.007051 188.13865 
L 116.940502 189.216656 
L 117.0654 190.281129 
L 117.379255 191.321671 
L 117.877667 192.328157 
L 118.554369 193.29084 
L 119.401283 194.200452 
L 120.408608 195.048308 
L 122.194956 196.186984 
L 124.271423 197.145137 
L 126.5868 197.903477 
L 129.08471 198.447616 
L 131.705054 198.768407 
L 134.385563 198.862127 
L 137.063394 198.730505 
L 139.676736 198.38061 
L 142.166348 197.824573 
L 144.477 197.079186 
L 146.558765 196.165376 
L 148.368118 195.107589 
L 149.868833 193.933091 
L 151.03265 192.671234 
L 151.839703 191.352688 
L 152.173617 190.457587 
L 152.34257 189.560416 
L 152.347024 188.670284 
L 152.189071 187.796084 
L 151.872379 186.946407 
L 151.402122 186.129466 
L 150.423597 184.982274 
L 149.142464 183.950042 
L 147.592415 183.053706 
L 145.812201 182.310823 
L 143.844696 181.735307 
L 141.735928 181.337237 
L 139.534079 181.122742 
L 137.288486 181.093959 
L 135.048632 181.24906 
L 132.863164 181.582352 
L 130.778936 182.084439 
L 128.840087 182.742444 
L 127.087175 183.540304 
L 125.556364 184.459107 
L 124.278705 185.4775 
L 123.279489 186.572142 
L 122.57772 187.718196 
L 122.185706 188.889872 
L 122.108785 190.060991 
L 122.345201 191.205563 
L 122.886143 192.298385 
L 123.715943 193.315612 
L 124.81245 194.235314 
L 126.147564 195.037991 
L 127.687925 195.707032 
L 129.395738 196.229093 
L 131.229724 196.594408 
L 133.146154 196.796992 
L 135.751659 196.810903 
L 138.316561 196.53798 
L 140.737783 195.995728 
L 142.401961 195.428912 
L 143.896073 194.741688 
L 145.189071 193.951946 
L 146.255162 193.079583 
L 147.074284 192.145977 
L 147.632426 191.173452 
L 147.921786 190.184737 
L 147.940779 189.202433 
L 147.693899 188.248508 
L 147.191445 187.343832 
L 146.449142 186.507738 
L 145.48765 185.757658 
L 144.331993 185.108788 
L 143.010921 184.573829 
L 141.047465 184.05461 
L 138.928087 183.771099 
L 136.738269 183.729722 
L 134.564391 183.927565 
L 132.490565 184.352661 
L 130.595604 184.984586 
L 128.9502 185.795325 
L 127.61439 186.750398 
L 126.844645 187.537756 
L 126.290534 188.366009 
L 125.961775 189.216323 
L 125.862988 190.06955 
L 125.993609 190.90665 
L 126.347921 191.709119 
L 126.915203 192.459412 
L 127.680004 193.141337 
L 128.622519 193.740428 
L 130.114265 194.389235 
L 131.814659 194.846095 
L 133.651389 195.09634 
L 135.547834 195.134018 
L 137.426382 194.961999 
L 139.211739 194.591681 
L 140.834053 194.042318 
L 142.231722 193.340019 
L 143.353742 192.516469 
L 144.161511 191.607458 
L 144.545544 190.892612 
L 144.733147 190.167783 
L 144.723523 189.44943 
L 144.520296 188.753539 
L 144.131326 188.095285 
L 143.344719 187.300236 
L 142.287124 186.626185 
L 141.005927 186.096998 
L 139.556029 185.730369 
L 137.997585 185.537323 
L 136.393625 185.521967 
L 134.421247 185.747727 
L 132.595989 186.226221 
L 131.314623 186.768068 
L 130.243952 187.426015 
L 129.422317 188.172271 
L 128.877756 188.976018 
L 128.627016 189.804625 
L 128.675006 190.624952 
L 129.014704 191.40466 
L 129.62755 192.113499 
L 130.48431 192.724513 
L 131.546381 193.2151 
L 132.76749 193.567894 
L 134.438065 193.798203 
L 136.167501 193.787079 
L 137.846435 193.541341 
L 139.371493 193.082434 
L 140.65179 192.444642 
L 141.450058 191.835269 
L 142.017202 191.165993 
L 142.335766 190.464801 
L 142.398616 189.760266 
L 142.208922 189.080395 
L 141.779741 188.451538 
L 141.133219 187.897406 
L 140.299478 187.438224 
L 139.050475 187.021789 
L 137.648995 186.799444 
L 136.184343 186.779903 
L 134.747363 186.959425 
L 133.425036 187.322348 
L 132.295427 187.842277 
L 131.423216 188.48387 
L 130.856062 189.205114 
L 130.641526 189.808581 
L 130.645266 190.409345 
L 130.863238 190.983656 
L 131.282938 191.509198 
L 132.059551 192.067348 
L 133.064375 192.48615 
L 134.229652 192.7429 
L 135.732063 192.820935 
L 137.218044 192.649362 
L 138.555744 192.251074 
L 139.473929 191.776158 
L 140.157114 191.205893 
L 140.569289 190.578129 
L 140.692263 189.933192 
L 140.581928 189.431975 
L 140.19676 188.855831 
L 139.566525 188.367146 
L 138.736278 187.993599 
L 137.555348 187.724755 
L 136.277187 187.667639 
L 135.016671 187.821018 
L 133.883793 188.165385 
L 132.97435 188.665133 
L 132.362052 189.272033 
L 132.112714 189.819092 
L 132.11193 190.366995 
L 132.354049 190.881946 
L 132.818514 191.332906 
L 133.620809 191.752844 
L 134.614961 192.009362 
L 135.707091 192.0844 
L 136.971802 191.94175 
L 138.081879 191.57685 
L 138.812381 191.125893 
L 139.276408 190.593286 
L 139.435115 190.12286 
L 139.381245 189.659811 
L 139.123683 189.232453 
L 138.576268 188.802121 
L 137.822791 188.494597 
L 136.78059 188.321363 
L 135.687218 188.360128 
L 134.674445 188.59905 
L 133.860091 189.002993 
L 133.334629 189.51838 
L 133.155677 189.999604 
L 133.237536 190.471469 
L 133.565648 190.892524 
L 134.104005 191.226929 
L 134.925396 191.471909 
L 135.98808 191.53272 
L 137.018576 191.360552 
L 137.857466 190.991548 
L 138.336415 190.558145 
L 138.516713 190.148334 
L 138.47377 189.742402 
L 138.218264 189.376044 
L 137.691149 189.039714 
L 136.876484 188.819025 
L 135.965826 188.79816 
L 135.006302 189.006609 
L 134.354749 189.358064 
L 133.991384 189.803742 
L 133.946912 190.213925 
L 134.155551 190.590977 
L 134.583899 190.890842 
L 135.266279 191.096874 
L 136.141585 191.124682 
L 136.960303 190.941573 
L 137.564562 190.592837 
L 137.832385 190.204613 
L 137.830858 189.85615 
L 137.616574 189.543422 
L 137.154604 189.27562 
L 136.456897 189.132219 
L 135.631204 189.190683 
L 134.945807 189.452811 
L 134.580347 189.803656 
L 134.50931 190.146133 
L 134.680383 190.460974 
L 135.116313 190.722988 
L 135.787217 190.846057 
L 136.553451 190.755566 
L 137.133312 190.467647 
L 137.356119 190.149686 
L 137.331469 189.861156 
L 137.068987 189.587924 
L 136.561695 189.406681 
L 135.896684 189.39667 
L 135.268203 189.600178 
L 134.954355 189.914845 
L 134.944341 190.194308 
L 135.15086 190.434125 
L 135.622056 190.60891 
L 136.242108 190.606329 
L 136.793162 190.393478 
L 137.006739 190.113275 
L 136.951469 189.854552 
L 136.646976 189.641709 
L 136.097546 189.559852 
L 135.53001 189.694938 
L 135.245837 189.961543 
L 135.268227 190.207608 
L 135.514641 190.396297 
L 136.016988 190.476011 
L 136.527818 190.343137 
L 136.750538 190.089479 
L 136.6741 189.868057 
L 136.359931 189.715833 
L 135.85042 189.726076 
L 135.496711 189.927202 
L 135.465549 190.141502 
L 135.667963 190.307654 
L 136.092529 190.357077 
L 136.299477 190.310175 
L 136.299477 190.310175 
" clip-path="url(#p2e71a50863)" style="fill: none; stroke: #1f77b4; stroke-width: 1.2; stroke-linecap: round"/>
   </g>
   <g id="line2d_27">
    <path d="M 208.685116 102.900449 
L 210.501722 101.783414 
L 212.108329 100.630666 
L 213.503477 99.447844 
L 214.686325 98.240546 
L 215.656633 97.014311 
L 216.414739 95.774603 
L 216.961539 94.526799 
L 217.298464 93.276175 
L 217.427459 92.027893 
L 217.350954 90.786997 
L 217.071848 89.558399 
L 216.593479 88.346872 
L 215.919603 87.157046 
L 215.054373 85.9934 
L 214.002312 84.860258 
L 212.768293 83.761781 
L 211.357513 82.701969 
L 209.775476 81.68465 
L 208.027966 80.713485 
L 206.121028 79.791958 
L 201.854229 78.110873 
L 197.027873 76.665713 
L 191.697645 75.477911 
L 185.921539 74.566003 
L 179.759338 73.945646 
L 173.27214 73.629658 
L 166.521957 73.628073 
L 159.571358 73.948211 
L 152.48316 74.594737 
L 145.320163 75.569719 
L 138.144886 76.872668 
L 131.019322 78.500566 
L 124.004677 80.447876 
L 117.161082 82.706542 
L 110.547297 85.265991 
L 104.220369 88.113129 
L 98.235281 91.232364 
L 92.644573 94.605625 
L 90.012763 96.381204 
L 87.49794 98.21242 
L 85.105805 100.096344 
L 82.84183 102.029906 
L 80.711243 104.0099 
L 78.719014 106.032983 
L 76.869845 108.095687 
L 75.168151 110.194417 
L 73.618048 112.325459 
L 72.223339 114.484986 
L 70.9875 116.669064 
L 69.913661 118.873658 
L 69.004598 121.094639 
L 68.262714 123.327796 
L 67.690028 125.568838 
L 67.288156 127.813409 
L 67.058306 130.057095 
L 67.001258 132.295435 
L 67.117356 134.523935 
L 67.4065 136.738076 
L 67.868129 138.93333 
L 68.501221 141.105172 
L 69.304284 143.249095 
L 70.275349 145.360625 
L 71.411973 147.435332 
L 72.711233 149.468853 
L 74.16973 151.456899 
L 75.783595 153.395276 
L 77.548491 155.2799 
L 79.459625 157.106812 
L 81.511757 158.872191 
L 83.699212 160.572375 
L 86.015898 162.203869 
L 88.455322 163.763363 
L 91.010609 165.247744 
L 93.674524 166.654108 
L 96.439495 167.979775 
L 99.297638 169.222294 
L 105.260513 171.449317 
L 111.494894 173.320585 
L 117.929386 174.825756 
L 124.490477 175.958899 
L 131.103603 176.71858 
L 137.694242 177.107869 
L 144.189003 177.134269 
L 150.516689 176.809561 
L 156.609306 176.149571 
L 162.402992 175.173864 
L 167.838844 173.905372 
L 172.863619 172.369967 
L 177.430292 170.595997 
L 181.498469 168.613793 
L 185.03465 166.455174 
L 188.012348 164.152956 
L 189.285406 162.95841 
L 190.41208 161.740485 
L 191.391008 160.503362 
L 192.221247 159.251199 
L 192.902261 157.988126 
L 193.433917 156.71823 
L 193.816467 155.445547 
L 194.050542 154.174051 
L 194.137141 152.907646 
L 194.077616 151.650156 
L 193.873658 150.405324 
L 193.527291 149.176794 
L 193.04085 147.968113 
L 192.416974 146.782724 
L 191.65859 145.623956 
L 190.7689 144.495024 
L 189.751365 143.399019 
L 187.34783 141.31754 
L 184.480366 139.401703 
L 181.184636 137.67154 
L 177.499143 136.144858 
L 173.464804 134.837193 
L 169.124532 133.761783 
L 164.522837 132.929565 
L 159.705461 132.34918 
L 154.719019 132.026993 
L 149.610675 131.967118 
L 144.427843 132.17145 
L 139.217896 132.639689 
L 134.027893 133.369375 
L 128.904316 134.355909 
L 123.892805 135.592586 
L 119.037889 137.070626 
L 114.38271 138.779214 
L 109.968742 140.705545 
L 105.835491 142.834887 
L 102.020188 145.150659 
L 98.557472 147.634519 
L 95.479069 150.266479 
L 92.813457 153.025032 
L 90.585547 155.887303 
L 88.816358 158.829218 
L 88.109214 160.322236 
L 87.522715 161.82569 
L 87.058262 163.33632 
L 86.716961 164.850832 
L 86.499613 166.365903 
L 86.40671 167.87819 
L 86.438431 169.384338 
L 86.594631 170.880989 
L 86.874846 172.364792 
L 87.278284 173.83241 
L 87.803826 175.280531 
L 88.450022 176.705878 
L 89.215098 178.105216 
L 90.09695 179.475366 
L 92.200964 182.115713 
L 94.738867 184.602941 
L 97.682568 186.914573 
L 100.999356 189.029948 
L 104.652256 190.930507 
L 108.60046 192.600065 
L 112.799824 194.025051 
L 117.203424 195.194702 
L 121.762159 196.101223 
L 126.425401 196.739898 
L 131.14167 197.109144 
L 135.859315 197.21052 
L 140.527209 197.048681 
L 145.095426 196.631274 
L 149.515883 195.968798 
L 153.742954 195.074403 
L 157.73402 193.963666 
L 161.449951 192.654316 
L 164.855528 191.165953 
L 167.919767 189.519733 
L 170.616173 187.738058 
L 172.922907 185.844253 
L 174.822876 183.862257 
L 176.303751 181.816321 
L 177.357917 179.730723 
L 177.98237 177.629505 
L 178.17856 175.536223 
L 177.952201 173.473733 
L 177.313039 171.463981 
L 176.274598 169.527835 
L 174.85391 167.684924 
L 173.071218 165.953505 
L 170.949679 164.35035 
L 168.515051 162.890652 
L 165.795384 161.58795 
L 162.820708 160.454068 
L 159.622721 159.499077 
L 156.234493 158.731266 
L 152.690166 158.157125 
L 149.024674 157.781342 
L 145.273466 157.606807 
L 141.472246 157.634622 
L 137.656709 157.864122 
L 133.862302 158.292898 
L 130.123973 158.916827 
L 126.475935 159.73011 
L 122.951426 160.725317 
L 119.582472 161.893439 
L 116.399645 163.223949 
L 113.431827 164.704875 
L 110.705969 166.322885 
L 108.246853 168.063381 
L 106.076856 169.910609 
L 104.215727 171.847778 
L 102.680362 173.857196 
L 101.484608 175.920416 
L 100.639075 178.018396 
L 100.150974 180.131671 
L 100.023985 182.240535 
L 100.258164 184.325237 
L 100.849873 186.366181 
L 101.791773 188.344136 
L 103.072841 190.240451 
L 104.678456 192.03727 
L 106.590517 193.71774 
L 108.787622 195.266227 
L 111.24529 196.668502 
L 113.936232 197.911932 
L 116.830666 198.985639 
L 119.89667 199.880646 
L 123.100565 200.589986 
L 126.407334 201.108797 
L 129.781056 201.434373 
L 133.185351 201.56619 
L 136.58384 201.505898 
L 139.940593 201.257276 
L 143.220567 200.826164 
L 146.390033 200.220352 
L 149.416965 199.449459 
L 152.271404 198.52477 
L 154.925777 197.459068 
L 157.355178 196.266441 
L 159.537596 194.962084 
L 161.454096 193.562088 
L 163.088953 192.083231 
L 164.429739 190.542766 
L 165.467354 188.958221 
L 166.19603 187.347195 
L 166.613282 185.727171 
L 166.719833 184.115342 
L 166.519497 182.528441 
L 166.019052 180.982594 
L 165.228071 179.49318 
L 164.158746 178.074707 
L 162.825694 176.740706 
L 161.245747 175.503636 
L 159.437737 174.374799 
L 157.422271 173.364275 
L 155.221507 172.480867 
L 152.858922 171.732058 
L 150.359084 171.123976 
L 147.747427 170.661376 
L 145.050024 170.347627 
L 142.293368 170.184706 
L 139.504158 170.173208 
L 136.70908 170.312355 
L 133.934607 170.600017 
L 131.206786 171.032745 
L 128.551045 171.6058 
L 125.991988 172.3132 
L 123.553206 173.147771 
L 121.257085 174.101206 
L 119.124619 175.164133 
L 117.175228 176.326192 
L 115.426586 177.576119 
L 113.894455 178.901842 
L 112.592527 180.290583 
L 111.532284 181.728967 
L 110.722865 183.203148 
L 110.170963 184.698928 
L 109.880729 186.201894 
L 109.853709 187.69756 
L 110.088803 189.171508 
L 110.582253 190.609538 
L 111.327656 191.997816 
L 112.316017 193.323024 
L 113.535826 194.572508 
L 114.973171 195.734418 
L 116.61188 196.797851 
L 118.433699 197.752969 
L 120.41849 198.591122 
L 122.544463 199.304946 
L 124.788427 199.888451 
L 127.126061 200.337086 
L 130.752951 200.750885 
L 134.446974 200.850798 
L 138.120819 200.640615 
L 141.689047 200.131607 
L 145.070303 199.342084 
L 148.189344 198.29676 
L 150.978838 197.02594 
L 152.626387 196.070553 
L 154.086913 195.041702 
L 155.348033 193.951254 
L 156.399657 192.811508 
L 157.234039 191.635048 
L 157.845808 190.434603 
L 158.231954 189.22291 
L 158.391808 188.012584 
L 158.32698 186.815989 
L 158.041287 185.645128 
L 157.540656 184.511528 
L 156.833015 183.426143 
L 155.92816 182.399268 
L 154.837624 181.440451 
L 153.574519 180.55843 
L 152.153385 179.761065 
L 149.760251 178.738657 
L 147.105127 177.941394 
L 144.25001 177.383431 
L 141.259815 177.073653 
L 138.20106 177.015621 
L 135.140577 177.207608 
L 132.144241 177.642715 
L 129.275738 178.309068 
L 126.595372 179.19009 
L 124.158923 180.264854 
L 122.016571 181.508511 
L 120.211893 182.892785 
L 119.214519 183.878485 
L 118.392096 184.903099 
L 117.751567 185.956484 
L 117.298077 187.028245 
L 117.034908 188.107837 
L 116.963448 189.184663 
L 117.08316 190.248185 
L 117.391587 191.288025 
L 117.884367 192.294078 
L 118.555271 193.256611 
L 119.396267 194.166369 
L 120.397601 195.014677 
L 122.174939 196.154614 
L 124.242539 197.114726 
L 126.549401 197.875701 
L 129.039367 198.423112 
L 131.652558 198.747753 
L 134.326911 198.845827 
L 136.999774 198.718982 
L 139.609488 198.374194 
L 142.096929 197.823492 
L 144.406941 197.083561 
L 146.48962 196.175216 
L 148.301424 195.122784 
L 149.806066 193.95341 
L 150.975185 192.696324 
L 151.788784 191.382082 
L 152.127677 190.489536 
L 152.302042 189.594634 
L 152.312286 188.70646 
L 152.160446 187.833887 
L 151.850133 186.985488 
L 151.386462 186.169461 
L 150.418083 185.022944 
L 149.147247 183.990544 
L 147.607461 183.093207 
L 145.837297 182.348523 
L 143.879452 181.770451 
L 141.779783 181.369129 
L 139.586305 181.150755 
L 137.348187 181.117541 
L 135.114756 181.267742 
L 132.934512 181.595751 
L 130.854179 182.092261 
L 128.917783 182.744489 
L 127.165796 183.53647 
L 125.634329 184.449395 
L 124.354405 185.46202 
L 123.351327 186.551115 
L 122.644142 187.691961 
L 122.245234 188.858886 
L 122.160053 190.025825 
L 122.386985 191.166901 
L 122.917395 192.257007 
L 123.735819 193.272385 
L 124.820341 194.19117 
L 126.143118 194.993906 
L 127.671065 195.663999 
L 129.36668 196.1881 
L 131.188977 196.556412 
L 133.094515 196.762892 
L 135.687209 196.78326 
L 138.241777 196.518008 
L 140.655607 195.984346 
L 142.834225 195.210166 
L 144.263654 194.493707 
L 145.484707 193.681124 
L 146.47342 192.792703 
L 147.21164 191.850043 
L 147.687294 190.875513 
L 147.8945 189.891721 
L 147.833533 188.920993 
L 147.510647 187.984882 
L 146.937769 187.103712 
L 146.132082 186.296169 
L 145.115519 185.578942 
L 143.914163 184.966414 
L 142.07645 184.332638 
L 140.04066 183.926124 
L 137.890041 183.758137 
L 135.710382 183.830609 
L 133.586826 184.136282 
L 131.600786 184.659139 
L 129.827021 185.37514 
L 128.330968 186.253207 
L 127.42402 186.996109 
L 126.72155 187.792286 
L 126.236622 188.623497 
L 125.977359 189.470904 
L 125.946786 190.315484 
L 126.142779 191.138457 
L 126.55814 191.921708 
L 127.180775 192.648195 
L 127.994003 193.302336 
L 129.338202 194.038492 
L 130.924464 194.595167 
L 132.684594 194.953456 
L 134.544465 195.102885 
L 136.427236 195.041719 
L 138.25665 194.776877 
L 139.960241 194.323456 
L 141.472297 193.703902 
L 142.736439 192.94688 
L 143.707697 192.085907 
L 144.354032 191.157831 
L 144.614069 190.440922 
L 144.678346 189.724354 
L 144.548835 189.024185 
L 144.231783 188.35579 
L 143.737478 187.733541 
L 142.827361 186.998038 
L 141.669572 186.394245 
L 140.314847 185.94302 
L 138.820332 185.658844 
L 137.247274 185.549436 
L 135.266382 185.659065 
L 133.381943 186.02941 
L 132.019727 186.494723 
L 130.842204 187.088058 
L 129.892207 187.783935 
L 129.203039 188.553278 
L 128.797294 189.36458 
L 128.686079 190.185146 
L 128.868693 190.982395 
L 129.332762 191.725154 
L 130.054848 192.384891 
L 131.001523 192.936847 
L 132.130845 193.361005 
L 133.724821 193.689941 
L 135.423538 193.781911 
L 137.118505 193.637177 
L 138.704201 193.270923 
L 140.08479 192.711869 
L 141.179991 192.000032 
L 141.809515 191.352884 
L 142.197342 190.666099 
L 142.333463 189.967852 
L 142.218102 189.286086 
L 141.861403 188.647403 
L 141.282754 188.076069 
L 140.509771 187.593132 
L 139.323428 187.139405 
L 137.966765 186.873626 
L 136.526854 186.807237 
L 135.093523 186.939358 
L 133.753979 187.257153 
L 132.587719 187.736865 
L 131.661968 188.345458 
L 131.027893 189.042765 
L 130.753028 189.634492 
L 130.693015 190.230517 
L 130.846348 190.807181 
L 131.203068 191.341982 
L 131.907018 191.920691 
L 132.849958 192.368661 
L 133.967751 192.661231 
L 135.435853 192.787708 
L 136.914462 192.666312 
L 138.27166 192.315443 
L 139.390557 191.773491 
L 140.073788 191.214654 
L 140.491137 190.597715 
L 140.624017 189.962335 
L 140.524569 189.46746 
L 140.155964 188.897227 
L 139.544584 188.411908 
L 138.734315 188.039013 
L 137.577126 187.767372 
L 136.320517 187.703851 
L 135.077526 187.847813 
L 133.95666 188.180599 
L 133.052714 188.667624 
L 132.438962 189.261776 
L 132.183208 189.799 
L 132.171708 190.338426 
L 132.399496 190.846775 
L 132.846927 191.293407 
L 133.62674 191.711499 
L 134.598119 191.969939 
L 135.85057 192.046206 
L 137.083224 191.880204 
L 138.148625 191.50049 
L 138.835317 191.044812 
L 139.254813 190.515073 
L 139.378805 190.052478 
L 139.29468 189.601549 
L 139.013104 189.189713 
L 138.446963 188.780986 
L 137.68699 188.496374 
L 136.652879 188.348732 
L 135.582905 188.408953 
L 134.605481 188.662727 
L 133.833731 189.073318 
L 133.352694 189.586593 
L 133.209083 190.059403 
L 133.320426 190.517708 
L 133.669635 190.921427 
L 134.326399 191.278344 
L 135.166973 191.476098 
L 136.214851 191.484776 
L 137.195323 191.270266 
L 137.958365 190.875007 
L 138.360002 190.434621 
L 138.473646 190.031028 
L 138.369993 189.641639 
L 138.064937 189.300335 
L 137.499435 189.00062 
L 136.670961 188.82571 
L 135.670382 188.864182 
L 134.78798 189.132618 
L 134.238802 189.514701 
L 134.004817 189.907778 
L 134.023179 190.304811 
L 134.283231 190.658195 
L 134.824887 190.956732 
L 135.630655 191.109589 
L 136.482581 191.04913 
L 137.211776 190.796737 
L 137.681111 190.410491 
L 137.814022 190.020524 
L 137.70065 189.694356 
L 137.336925 189.390102 
L 136.711091 189.18678 
L 135.903683 189.169945 
L 135.17089 189.365302 
L 134.684172 189.715843 
L 134.545141 190.047207 
L 134.6451 190.366643 
L 134.959282 190.624993 
L 135.563865 190.806015 
L 136.322441 190.786643 
L 136.961292 190.557296 
L 137.287069 190.231097 
L 137.31333 189.912636 
L 137.091856 189.636074 
L 136.622683 189.44054 
L 135.980715 189.406532 
L 135.348748 189.582296 
L 135.007693 189.877954 
L 134.973271 190.17959 
L 135.165687 190.414628 
L 135.616517 190.589045 
L 136.265807 190.584066 
L 136.788105 190.369469 
L 136.979751 190.095694 
L 136.91224 189.847189 
L 136.60601 189.647089 
L 136.069893 189.577261 
L 135.528008 189.716664 
L 135.26727 189.977995 
L 135.301841 190.214487 
L 135.580476 190.403423 
L 136.076078 190.458025 
L 136.550203 190.309695 
L 136.729858 190.058598 
L 136.625752 189.850928 
L 136.27197 189.714698 
L 135.785693 189.759114 
L 135.491384 189.972412 
L 135.509098 190.176052 
L 135.763736 190.325116 
L 136.207709 190.325384 
L 136.279418 190.304385 
L 136.279418 190.304385 
" clip-path="url(#p2e71a50863)" style="fill: none; stroke-dasharray: 4.44,1.92; stroke-dashoffset: 0; stroke: #000000; stroke-width: 1.2"/>
   </g>
  </g>
 </g>
 <defs>
  <clipPath id="p2e71a50863">
   <rect x="7.2" y="7.2" width="266.112" height="266.112"/>
  </clipPath>
 </defs>
</svg>