<?xml version="1.0" encoding="utf-8" standalone="no"?>
<!DOCTYPE svg PUBLIC "-//W3C//DTD SVG 1.1//EN"
  "http://www.w3.org/Graphics/SVG/1.1/DTD/svg11.dtd">
<svg xmlns:xlink="http://www.w3.org/1999/xlink" width="453.036375pt" height="327.286875pt" viewBox="0 0 453.036375 327.286875" xmlns="http://www.w3.org/2000/svg" version="1.1">
 <metadata>
  <rdf:RDF xmlns:dc="http://purl.org/dc/elements/1.1/" xmlns:cc="http://creativecommons.org/ns#" xmlns:rdf="http://www.w3.org/1999/02/22-rdf-syntax-ns#">
   <cc:Work>
    <dc:type rdf:resource="http://purl.org/dc/dcmitype/StillImage"/>
    <dc:date>2025-02-28T23:35:05.930491</dc:date>
    <dc:format>image/svg+xml</dc:format>
    <dc:creator>
     <cc:Agent>
      <dc:title>Matplotlib v3.9.2, https://matplotlib.org/</dc:title>
     </cc:Agent>
    </dc:creator>
   </cc:Work>
  </rdf:RDF>
 </metadata>
 <defs>
  <style type="text/css">*{stroke-linejoin: round; stroke-linecap: butt}</style>
 </defs>
 <g id="figure_1">
  <g id="patch_1">
   <path d="M 0 327.286875 
L 453.036375 327.286875 
L 453.036375 0 
L 0 0 
z
" style="fill: #ffffff"/>
  </g>
  <g id="axes_1">
   <g id="patch_2">
    <path d="M 48.212625 290.9595 
L 405.332625 290.9595 
L 405.332625 24.8475 
L 48.212625 24.8475 
z
" style="fill: #ffffff"/>
   </g>
   <g id="matplotlib.axis_1">
    <g id="xtick_1">
     <g id="line2d_1">
      <defs>
       <path id="m02febe23f4" d="M 0 0 
L 0 4.8 
" style="stroke: #262626"/>
      </defs>
      <g>
       <use xlink:href="#m02febe23f4" x="64.445352" y="290.9595" style="fill: #262626; stroke: #262626"/>
      </g>
     </g>
     <g id="text_1">
      <!-- 0 -->
      <g style="fill: #262626" transform="translate(61.99854 305.558375) scale(0.088 -0.088)">
       <defs>
        <path id="ArialMT-30" d="M 266 2259 
Q 266 3072 433 3567 
Q 600 4063 929 4331 
Q 1259 4600 1759 4600 
Q 2128 4600 2406 4451 
Q 2684 4303 2865 4023 
Q 3047 3744 3150 3342 
Q 3253 2941 3253 2259 
Q 3253 1453 3087 958 
Q 2922 463 2592 192 
Q 2263 -78 1759 -78 
Q 1097 -78 719 397 
Q 266 969 266 2259 
z
M 844 2259 
Q 844 1131 1108 757 
Q 1372 384 1759 384 
Q 2147 384 2411 759 
Q 2675 1134 2675 2259 
Q 2675 3391 2411 3762 
Q 2147 4134 1753 4134 
Q 1366 4134 1134 3806 
Q 844 3388 844 2259 
z
" transform="scale(0.015625)"/>
       </defs>
       <use xlink:href="#ArialMT-30"/>
      </g>
     </g>
    </g>
    <g id="xtick_2">
     <g id="line2d_2">
      <g>
       <use xlink:href="#m02febe23f4" x="129.441257" y="290.9595" style="fill: #262626; stroke: #262626"/>
      </g>
     </g>
     <g id="text_2">
      <!-- 200 -->
      <g style="fill: #262626" transform="translate(122.10082 305.558375) scale(0.088 -0.088)">
       <defs>
        <path id="ArialMT-32" d="M 3222 541 
L 3222 0 
L 194 0 
Q 188 203 259 391 
Q 375 700 629 1000 
Q 884 1300 1366 1694 
Q 2113 2306 2375 2664 
Q 2638 3022 2638 3341 
Q 2638 3675 2398 3904 
Q 2159 4134 1775 4134 
Q 1369 4134 1125 3890 
Q 881 3647 878 3216 
L 300 3275 
Q 359 3922 746 4261 
Q 1134 4600 1788 4600 
Q 2447 4600 2831 4234 
Q 3216 3869 3216 3328 
Q 3216 3053 3103 2787 
Q 2991 2522 2730 2228 
Q 2469 1934 1863 1422 
Q 1356 997 1212 845 
Q 1069 694 975 541 
L 3222 541 
z
" transform="scale(0.015625)"/>
       </defs>
       <use xlink:href="#ArialMT-32"/>
       <use xlink:href="#ArialMT-30" x="55.615234"/>
       <use xlink:href="#ArialMT-30" x="111.230469"/>
      </g>
     </g>
    </g>
    <g id="xtick_3">
     <g id="line2d_3">
      <g>
       <use xlink:href="#m02febe23f4" x="194.437162" y="290.9595" style="fill: #262626; stroke: #262626"/>
      </g>
     </g>
     <g id="text_3">
      <!-- 400 -->
      <g style="fill: #262626" transform="translate(187.096725 305.558375) scale(0.088 -0.088)">
       <defs>
        <path id="ArialMT-34" d="M 2069 0 
L 2069 1097 
L 81 1097 
L 81 1613 
L 2172 4581 
L 2631 4581 
L 2631 1613 
L 3250 1613 
L 3250 1097 
L 2631 1097 
L 2631 0 
L 2069 0 
z
M 2069 1613 
L 2069 3678 
L 634 1613 
L 2069 1613 
z
" transform="scale(0.015625)"/>
       </defs>
       <use xlink:href="#ArialMT-34"/>
       <use xlink:href="#ArialMT-30" x="55.615234"/>
       <use xlink:href="#ArialMT-30" x="111.230469"/>
      </g>
     </g>
    </g>
    <g id="xtick_4">
     <g id="line2d_4">
      <g>
       <use xlink:href="#m02febe23f4" x="259.433067" y="290.9595" style="fill: #262626; stroke: #262626"/>
      </g>
     </g>
     <g id="text_4">
      <!-- 600 -->
      <g style="fill: #262626" transform="translate(252.09263 305.558375) scale(0.088 -0.088)">
       <defs>
        <path id="ArialMT-36" d="M 3184 3459 
L 2625 3416 
Q 2550 3747 2413 3897 
Q 2184 4138 1850 4138 
Q 1581 4138 1378 3988 
Q 1113 3794 959 3422 
Q 806 3050 800 2363 
Q 1003 2672 1297 2822 
Q 1591 2972 1913 2972 
Q 2475 2972 2870 2558 
Q 3266 2144 3266 1488 
Q 3266 1056 3080 686 
Q 2894 316 2569 119 
Q 2244 -78 1831 -78 
Q 1128 -78 684 439 
Q 241 956 241 2144 
Q 241 3472 731 4075 
Q 1159 4600 1884 4600 
Q 2425 4600 2770 4297 
Q 3116 3994 3184 3459 
z
M 888 1484 
Q 888 1194 1011 928 
Q 1134 663 1356 523 
Q 1578 384 1822 384 
Q 2178 384 2434 671 
Q 2691 959 2691 1453 
Q 2691 1928 2437 2201 
Q 2184 2475 1800 2475 
Q 1419 2475 1153 2201 
Q 888 1928 888 1484 
z
" transform="scale(0.015625)"/>
       </defs>
       <use xlink:href="#ArialMT-36"/>
       <use xlink:href="#ArialMT-30" x="55.615234"/>
       <use xlink:href="#ArialMT-30" x="111.230469"/>
      </g>
     </g>
    </g>
    <g id="xtick_5">
     <g id="line2d_5">
      <g>
       <use xlink:href="#m02febe23f4" x="324.428972" y="290.9595" style="fill: #262626; stroke: #262626"/>
      </g>
     </g>
     <g id="text_5">
      <!-- 800 -->
      <g style="fill: #262626" transform="translate(317.088535 305.558375) scale(0.088 -0.088)">
       <defs>
        <path id="ArialMT-38" d="M 1131 2484 
Q 781 2613 612 2850 
Q 444 3088 444 3419 
Q 444 3919 803 4259 
Q 1163 4600 1759 4600 
Q 2359 4600 2725 4251 
Q 3091 3903 3091 3403 
Q 3091 3084 2923 2848 
Q 2756 2613 2416 2484 
Q 2838 2347 3058 2040 
Q 3278 1734 3278 1309 
Q 3278 722 2862 322 
Q 2447 -78 1769 -78 
Q 1091 -78 675 323 
Q 259 725 259 1325 
Q 259 1772 486 2073 
Q 713 2375 1131 2484 
z
M 1019 3438 
Q 1019 3113 1228 2906 
Q 1438 2700 1772 2700 
Q 2097 2700 2305 2904 
Q 2513 3109 2513 3406 
Q 2513 3716 2298 3927 
Q 2084 4138 1766 4138 
Q 1444 4138 1231 3931 
Q 1019 3725 1019 3438 
z
M 838 1322 
Q 838 1081 952 856 
Q 1066 631 1291 507 
Q 1516 384 1775 384 
Q 2178 384 2440 643 
Q 2703 903 2703 1303 
Q 2703 1709 2433 1975 
Q 2163 2241 1756 2241 
Q 1359 2241 1098 1978 
Q 838 1716 838 1322 
z
" transform="scale(0.015625)"/>
       </defs>
       <use xlink:href="#ArialMT-38"/>
       <use xlink:href="#ArialMT-30" x="55.615234"/>
       <use xlink:href="#ArialMT-30" x="111.230469"/>
      </g>
     </g>
    </g>
    <g id="xtick_6">
     <g id="line2d_6">
      <g>
       <use xlink:href="#m02febe23f4" x="389.424877" y="290.9595" style="fill: #262626; stroke: #262626"/>
      </g>
     </g>
     <g id="text_6">
      <!-- 1000 -->
      <g style="fill: #262626" transform="translate(379.637627 305.558375) scale(0.088 -0.088)">
       <defs>
        <path id="ArialMT-31" d="M 2384 0 
L 1822 0 
L 1822 3584 
Q 1619 3391 1289 3197 
Q 959 3003 697 2906 
L 697 3450 
Q 1169 3672 1522 3987 
Q 1875 4303 2022 4600 
L 2384 4600 
L 2384 0 
z
" transform="scale(0.015625)"/>
       </defs>
       <use xlink:href="#ArialMT-31"/>
       <use xlink:href="#ArialMT-30" x="55.615234"/>
       <use xlink:href="#ArialMT-30" x="111.230469"/>
       <use xlink:href="#ArialMT-30" x="166.845703"/>
      </g>
     </g>
    </g>
    <g id="text_7">
     <!-- Iteration -->
     <g style="fill: #262626" transform="translate(209.430375 318.178875) scale(0.096 -0.096)">
      <defs>
       <path id="ArialMT-49" d="M 597 0 
L 597 4581 
L 1203 4581 
L 1203 0 
L 597 0 
z
" transform="scale(0.015625)"/>
       <path id="ArialMT-74" d="M 1650 503 
L 1731 6 
Q 1494 -44 1306 -44 
Q 1000 -44 831 53 
Q 663 150 594 308 
Q 525 466 525 972 
L 525 2881 
L 113 2881 
L 113 3319 
L 525 3319 
L 525 4141 
L 1084 4478 
L 1084 3319 
L 1650 3319 
L 1650 2881 
L 1084 2881 
L 1084 941 
Q 1084 700 1114 631 
Q 1144 563 1211 522 
Q 1278 481 1403 481 
Q 1497 481 1650 503 
z
" transform="scale(0.015625)"/>
       <path id="ArialMT-65" d="M 2694 1069 
L 3275 997 
Q 3138 488 2766 206 
Q 2394 -75 1816 -75 
Q 1088 -75 661 373 
Q 234 822 234 1631 
Q 234 2469 665 2931 
Q 1097 3394 1784 3394 
Q 2450 3394 2872 2941 
Q 3294 2488 3294 1666 
Q 3294 1616 3291 1516 
L 816 1516 
Q 847 969 1125 678 
Q 1403 388 1819 388 
Q 2128 388 2347 550 
Q 2566 713 2694 1069 
z
M 847 1978 
L 2700 1978 
Q 2663 2397 2488 2606 
Q 2219 2931 1791 2931 
Q 1403 2931 1139 2672 
Q 875 2413 847 1978 
z
" transform="scale(0.015625)"/>
       <path id="ArialMT-72" d="M 416 0 
L 416 3319 
L 922 3319 
L 922 2816 
Q 1116 3169 1280 3281 
Q 1444 3394 1641 3394 
Q 1925 3394 2219 3213 
L 2025 2691 
Q 1819 2813 1613 2813 
Q 1428 2813 1281 2702 
Q 1134 2591 1072 2394 
Q 978 2094 978 1738 
L 978 0 
L 416 0 
z
" transform="scale(0.015625)"/>
       <path id="ArialMT-61" d="M 2588 409 
Q 2275 144 1986 34 
Q 1697 -75 1366 -75 
Q 819 -75 525 192 
Q 231 459 231 875 
Q 231 1119 342 1320 
Q 453 1522 633 1644 
Q 813 1766 1038 1828 
Q 1203 1872 1538 1913 
Q 2219 1994 2541 2106 
Q 2544 2222 2544 2253 
Q 2544 2597 2384 2738 
Q 2169 2928 1744 2928 
Q 1347 2928 1158 2789 
Q 969 2650 878 2297 
L 328 2372 
Q 403 2725 575 2942 
Q 747 3159 1072 3276 
Q 1397 3394 1825 3394 
Q 2250 3394 2515 3294 
Q 2781 3194 2906 3042 
Q 3031 2891 3081 2659 
Q 3109 2516 3109 2141 
L 3109 1391 
Q 3109 606 3145 398 
Q 3181 191 3288 0 
L 2700 0 
Q 2613 175 2588 409 
z
M 2541 1666 
Q 2234 1541 1622 1453 
Q 1275 1403 1131 1340 
Q 988 1278 909 1158 
Q 831 1038 831 891 
Q 831 666 1001 516 
Q 1172 366 1500 366 
Q 1825 366 2078 508 
Q 2331 650 2450 897 
Q 2541 1088 2541 1459 
L 2541 1666 
z
" transform="scale(0.015625)"/>
       <path id="ArialMT-69" d="M 425 3934 
L 425 4581 
L 988 4581 
L 988 3934 
L 425 3934 
z
M 425 0 
L 425 3319 
L 988 3319 
L 988 0 
L 425 0 
z
" transform="scale(0.015625)"/>
       <path id="ArialMT-6f" d="M 213 1659 
Q 213 2581 725 3025 
Q 1153 3394 1769 3394 
Q 2453 3394 2887 2945 
Q 3322 2497 3322 1706 
Q 3322 1066 3130 698 
Q 2938 331 2570 128 
Q 2203 -75 1769 -75 
Q 1072 -75 642 372 
Q 213 819 213 1659 
z
M 791 1659 
Q 791 1022 1069 705 
Q 1347 388 1769 388 
Q 2188 388 2466 706 
Q 2744 1025 2744 1678 
Q 2744 2294 2464 2611 
Q 2184 2928 1769 2928 
Q 1347 2928 1069 2612 
Q 791 2297 791 1659 
z
" transform="scale(0.015625)"/>
       <path id="ArialMT-6e" d="M 422 0 
L 422 3319 
L 928 3319 
L 928 2847 
Q 1294 3394 1984 3394 
Q 2284 3394 2536 3286 
Q 2788 3178 2913 3003 
Q 3038 2828 3088 2588 
Q 3119 2431 3119 2041 
L 3119 0 
L 2556 0 
L 2556 2019 
Q 2556 2363 2490 2533 
Q 2425 2703 2258 2804 
Q 2091 2906 1866 2906 
Q 1506 2906 1245 2678 
Q 984 2450 984 1813 
L 984 0 
L 422 0 
z
" transform="scale(0.015625)"/>
      </defs>
      <use xlink:href="#ArialMT-49"/>
      <use xlink:href="#ArialMT-74" x="27.783203"/>
      <use xlink:href="#ArialMT-65" x="55.566406"/>
      <use xlink:href="#ArialMT-72" x="111.181641"/>
      <use xlink:href="#ArialMT-61" x="144.482422"/>
      <use xlink:href="#ArialMT-74" x="200.097656"/>
      <use xlink:href="#ArialMT-69" x="227.880859"/>
      <use xlink:href="#ArialMT-6f" x="250.097656"/>
      <use xlink:href="#ArialMT-6e" x="305.712891"/>
     </g>
    </g>
   </g>
   <g id="matplotlib.axis_2">
    <g id="ytick_1">
     <g id="line2d_7">
      <defs>
       <path id="m2d6776bdb5" d="M 0 0 
L -4.8 0 
" style="stroke: #262626"/>
      </defs>
      <g>
       <use xlink:href="#m2d6776bdb5" x="48.212625" y="279.201409" style="fill: #262626; stroke: #262626"/>
      </g>
     </g>
     <g id="text_8">
      <!-- −200 -->
      <g style="fill: #262626" transform="translate(20.092 282.350846) scale(0.088 -0.088)">
       <defs>
        <path id="ArialMT-2212" d="M 3381 1997 
L 356 1997 
L 356 2522 
L 3381 2522 
L 3381 1997 
z
" transform="scale(0.015625)"/>
       </defs>
       <use xlink:href="#ArialMT-2212"/>
       <use xlink:href="#ArialMT-32" x="58.398438"/>
       <use xlink:href="#ArialMT-30" x="114.013672"/>
       <use xlink:href="#ArialMT-30" x="169.628906"/>
      </g>
     </g>
    </g>
    <g id="ytick_2">
     <g id="line2d_8">
      <g>
       <use xlink:href="#m2d6776bdb5" x="48.212625" y="241.700156" style="fill: #262626; stroke: #262626"/>
      </g>
     </g>
     <g id="text_9">
      <!-- −150 -->
      <g style="fill: #262626" transform="translate(20.092 244.849593) scale(0.088 -0.088)">
       <defs>
        <path id="ArialMT-35" d="M 266 1200 
L 856 1250 
Q 922 819 1161 601 
Q 1400 384 1738 384 
Q 2144 384 2425 690 
Q 2706 997 2706 1503 
Q 2706 1984 2436 2262 
Q 2166 2541 1728 2541 
Q 1456 2541 1237 2417 
Q 1019 2294 894 2097 
L 366 2166 
L 809 4519 
L 3088 4519 
L 3088 3981 
L 1259 3981 
L 1013 2750 
Q 1425 3038 1878 3038 
Q 2478 3038 2890 2622 
Q 3303 2206 3303 1553 
Q 3303 931 2941 478 
Q 2500 -78 1738 -78 
Q 1113 -78 717 272 
Q 322 622 266 1200 
z
" transform="scale(0.015625)"/>
       </defs>
       <use xlink:href="#ArialMT-2212"/>
       <use xlink:href="#ArialMT-31" x="58.398438"/>
       <use xlink:href="#ArialMT-35" x="114.013672"/>
       <use xlink:href="#ArialMT-30" x="169.628906"/>
      </g>
     </g>
    </g>
    <g id="ytick_3">
     <g id="line2d_9">
      <g>
       <use xlink:href="#m2d6776bdb5" x="48.212625" y="204.198903" style="fill: #262626; stroke: #262626"/>
      </g>
     </g>
     <g id="text_10">
      <!-- −100 -->
      <g style="fill: #262626" transform="translate(20.092 207.34834) scale(0.088 -0.088)">
       <use xlink:href="#ArialMT-2212"/>
       <use xlink:href="#ArialMT-31" x="58.398438"/>
       <use xlink:href="#ArialMT-30" x="114.013672"/>
       <use xlink:href="#ArialMT-30" x="169.628906"/>
      </g>
     </g>
    </g>
    <g id="ytick_4">
     <g id="line2d_10">
      <g>
       <use xlink:href="#m2d6776bdb5" x="48.212625" y="166.69765" style="fill: #262626; stroke: #262626"/>
      </g>
     </g>
     <g id="text_11">
      <!-- −50 -->
      <g style="fill: #262626" transform="translate(24.985625 169.847087) scale(0.088 -0.088)">
       <use xlink:href="#ArialMT-2212"/>
       <use xlink:href="#ArialMT-35" x="58.398438"/>
       <use xlink:href="#ArialMT-30" x="114.013672"/>
      </g>
     </g>
    </g>
    <g id="ytick_5">
     <g id="line2d_11">
      <g>
       <use xlink:href="#m2d6776bdb5" x="48.212625" y="129.196396" style="fill: #262626; stroke: #262626"/>
      </g>
     </g>
     <g id="text_12">
      <!-- 0 -->
      <g style="fill: #262626" transform="translate(35.019 132.345834) scale(0.088 -0.088)">
       <use xlink:href="#ArialMT-30"/>
      </g>
     </g>
    </g>
    <g id="ytick_6">
     <g id="line2d_12">
      <g>
       <use xlink:href="#m2d6776bdb5" x="48.212625" y="91.695143" style="fill: #262626; stroke: #262626"/>
      </g>
     </g>
     <g id="text_13">
      <!-- 50 -->
      <g style="fill: #262626" transform="translate(30.125375 94.844581) scale(0.088 -0.088)">
       <use xlink:href="#ArialMT-35"/>
       <use xlink:href="#ArialMT-30" x="55.615234"/>
      </g>
     </g>
    </g>
    <g id="ytick_7">
     <g id="line2d_13">
      <g>
       <use xlink:href="#m2d6776bdb5" x="48.212625" y="54.19389" style="fill: #262626; stroke: #262626"/>
      </g>
     </g>
     <g id="text_14">
      <!-- 100 -->
      <g style="fill: #262626" transform="translate(25.23175 57.343328) scale(0.088 -0.088)">
       <use xlink:href="#ArialMT-31"/>
       <use xlink:href="#ArialMT-30" x="55.615234"/>
       <use xlink:href="#ArialMT-30" x="111.230469"/>
      </g>
     </g>
    </g>
    <g id="text_15">
     <!-- Negative marginal log likelihood -->
     <g style="fill: #262626" transform="translate(14.0715 225.67125) rotate(-90) scale(0.096 -0.096)">
      <defs>
       <path id="ArialMT-4e" d="M 488 0 
L 488 4581 
L 1109 4581 
L 3516 984 
L 3516 4581 
L 4097 4581 
L 4097 0 
L 3475 0 
L 1069 3600 
L 1069 0 
L 488 0 
z
" transform="scale(0.015625)"/>
       <path id="ArialMT-67" d="M 319 -275 
L 866 -356 
Q 900 -609 1056 -725 
Q 1266 -881 1628 -881 
Q 2019 -881 2231 -725 
Q 2444 -569 2519 -288 
Q 2563 -116 2559 434 
Q 2191 0 1641 0 
Q 956 0 581 494 
Q 206 988 206 1678 
Q 206 2153 378 2554 
Q 550 2956 876 3175 
Q 1203 3394 1644 3394 
Q 2231 3394 2613 2919 
L 2613 3319 
L 3131 3319 
L 3131 450 
Q 3131 -325 2973 -648 
Q 2816 -972 2473 -1159 
Q 2131 -1347 1631 -1347 
Q 1038 -1347 672 -1080 
Q 306 -813 319 -275 
z
M 784 1719 
Q 784 1066 1043 766 
Q 1303 466 1694 466 
Q 2081 466 2343 764 
Q 2606 1063 2606 1700 
Q 2606 2309 2336 2618 
Q 2066 2928 1684 2928 
Q 1309 2928 1046 2623 
Q 784 2319 784 1719 
z
" transform="scale(0.015625)"/>
       <path id="ArialMT-76" d="M 1344 0 
L 81 3319 
L 675 3319 
L 1388 1331 
Q 1503 1009 1600 663 
Q 1675 925 1809 1294 
L 2547 3319 
L 3125 3319 
L 1869 0 
L 1344 0 
z
" transform="scale(0.015625)"/>
       <path id="ArialMT-20" transform="scale(0.015625)"/>
       <path id="ArialMT-6d" d="M 422 0 
L 422 3319 
L 925 3319 
L 925 2853 
Q 1081 3097 1340 3245 
Q 1600 3394 1931 3394 
Q 2300 3394 2536 3241 
Q 2772 3088 2869 2813 
Q 3263 3394 3894 3394 
Q 4388 3394 4653 3120 
Q 4919 2847 4919 2278 
L 4919 0 
L 4359 0 
L 4359 2091 
Q 4359 2428 4304 2576 
Q 4250 2725 4106 2815 
Q 3963 2906 3769 2906 
Q 3419 2906 3187 2673 
Q 2956 2441 2956 1928 
L 2956 0 
L 2394 0 
L 2394 2156 
Q 2394 2531 2256 2718 
Q 2119 2906 1806 2906 
Q 1569 2906 1367 2781 
Q 1166 2656 1075 2415 
Q 984 2175 984 1722 
L 984 0 
L 422 0 
z
" transform="scale(0.015625)"/>
       <path id="ArialMT-6c" d="M 409 0 
L 409 4581 
L 972 4581 
L 972 0 
L 409 0 
z
" transform="scale(0.015625)"/>
       <path id="ArialMT-6b" d="M 425 0 
L 425 4581 
L 988 4581 
L 988 1969 
L 2319 3319 
L 3047 3319 
L 1778 2088 
L 3175 0 
L 2481 0 
L 1384 1697 
L 988 1316 
L 988 0 
L 425 0 
z
" transform="scale(0.015625)"/>
       <path id="ArialMT-68" d="M 422 0 
L 422 4581 
L 984 4581 
L 984 2938 
Q 1378 3394 1978 3394 
Q 2347 3394 2619 3248 
Q 2891 3103 3008 2847 
Q 3125 2591 3125 2103 
L 3125 0 
L 2563 0 
L 2563 2103 
Q 2563 2525 2380 2717 
Q 2197 2909 1863 2909 
Q 1613 2909 1392 2779 
Q 1172 2650 1078 2428 
Q 984 2206 984 1816 
L 984 0 
L 422 0 
z
" transform="scale(0.015625)"/>
       <path id="ArialMT-64" d="M 2575 0 
L 2575 419 
Q 2259 -75 1647 -75 
Q 1250 -75 917 144 
Q 584 363 401 755 
Q 219 1147 219 1656 
Q 219 2153 384 2558 
Q 550 2963 881 3178 
Q 1213 3394 1622 3394 
Q 1922 3394 2156 3267 
Q 2391 3141 2538 2938 
L 2538 4581 
L 3097 4581 
L 3097 0 
L 2575 0 
z
M 797 1656 
Q 797 1019 1065 703 
Q 1334 388 1700 388 
Q 2069 388 2326 689 
Q 2584 991 2584 1609 
Q 2584 2291 2321 2609 
Q 2059 2928 1675 2928 
Q 1300 2928 1048 2622 
Q 797 2316 797 1656 
z
" transform="scale(0.015625)"/>
      </defs>
      <use xlink:href="#ArialMT-4e"/>
      <use xlink:href="#ArialMT-65" x="72.216797"/>
      <use xlink:href="#ArialMT-67" x="127.832031"/>
      <use xlink:href="#ArialMT-61" x="183.447266"/>
      <use xlink:href="#ArialMT-74" x="239.0625"/>
      <use xlink:href="#ArialMT-69" x="266.845703"/>
      <use xlink:href="#ArialMT-76" x="289.0625"/>
      <use xlink:href="#ArialMT-65" x="339.0625"/>
      <use xlink:href="#ArialMT-20" x="394.677734"/>
      <use xlink:href="#ArialMT-6d" x="422.460938"/>
      <use xlink:href="#ArialMT-61" x="505.761719"/>
      <use xlink:href="#ArialMT-72" x="561.376953"/>
      <use xlink:href="#ArialMT-67" x="594.677734"/>
      <use xlink:href="#ArialMT-69" x="650.292969"/>
      <use xlink:href="#ArialMT-6e" x="672.509766"/>
      <use xlink:href="#ArialMT-61" x="728.125"/>
      <use xlink:href="#ArialMT-6c" x="783.740234"/>
      <use xlink:href="#ArialMT-20" x="805.957031"/>
      <use xlink:href="#ArialMT-6c" x="833.740234"/>
      <use xlink:href="#ArialMT-6f" x="855.957031"/>
      <use xlink:href="#ArialMT-67" x="911.572266"/>
      <use xlink:href="#ArialMT-20" x="967.1875"/>
      <use xlink:href="#ArialMT-6c" x="994.970703"/>
      <use xlink:href="#ArialMT-69" x="1017.1875"/>
      <use xlink:href="#ArialMT-6b" x="1039.404297"/>
      <use xlink:href="#ArialMT-65" x="1089.404297"/>
      <use xlink:href="#ArialMT-6c" x="1145.019531"/>
      <use xlink:href="#ArialMT-69" x="1167.236328"/>
      <use xlink:href="#ArialMT-68" x="1189.453125"/>
      <use xlink:href="#ArialMT-6f" x="1245.068359"/>
      <use xlink:href="#ArialMT-6f" x="1300.683594"/>
      <use xlink:href="#ArialMT-64" x="1356.298828"/>
     </g>
    </g>
   </g>
   <g id="line2d_14">
    <path d="M 64.445352 48.14376 
L 64.770332 53.182042 
L 65.095311 49.707696 
L 65.420291 48.287386 
L 66.07025 42.526142 
L 66.395229 36.9435 
L 66.720209 50.243776 
L 67.045188 51.614453 
L 67.370168 46.407759 
L 67.695148 57.374179 
L 68.020127 41.579815 
L 68.345107 48.014947 
L 68.670086 37.960479 
L 68.995066 46.145317 
L 69.320045 37.865501 
L 69.645025 55.967575 
L 69.970004 50.592801 
L 70.294984 41.063797 
L 70.619963 46.92098 
L 70.944943 42.683271 
L 71.269922 51.80064 
L 71.594902 44.480827 
L 71.919881 48.846379 
L 72.244861 50.928543 
L 72.56984 48.220609 
L 72.89482 55.119399 
L 73.219799 41.194901 
L 73.544779 44.081786 
L 73.869758 48.472136 
L 74.194738 37.275924 
L 74.519718 55.643283 
L 74.844697 45.6053 
L 75.169677 55.409323 
L 75.494656 53.271276 
L 75.819636 59.372661 
L 76.469595 44.344363 
L 76.794574 57.449119 
L 77.119554 43.052463 
L 77.769513 54.597014 
L 78.094492 47.645815 
L 78.744451 60.67729 
L 79.71939 45.905395 
L 80.044369 58.318664 
L 80.369349 55.746963 
L 80.694329 42.491222 
L 81.019308 51.850247 
L 81.344288 49.887087 
L 81.669267 60.099338 
L 81.994247 59.551955 
L 82.319226 54.781526 
L 82.644206 47.868963 
L 82.969185 51.676171 
L 83.294165 53.213967 
L 83.619144 52.447388 
L 83.944124 65.291691 
L 84.594083 47.226292 
L 84.919062 59.542987 
L 85.244042 65.788881 
L 85.569021 54.433108 
L 85.894001 58.089869 
L 86.21898 64.169015 
L 86.54396 51.449817 
L 86.868939 56.511144 
L 87.193919 54.819586 
L 87.843878 46.13057 
L 88.168858 50.665063 
L 88.493837 58.623768 
L 88.818817 49.551801 
L 89.143796 86.519966 
L 89.468776 52.912893 
L 89.793755 64.365554 
L 90.118735 70.445528 
L 90.768694 57.356769 
L 91.093673 51.756857 
L 91.418653 59.557779 
L 91.743632 41.882643 
L 92.068612 78.126272 
L 92.393591 49.186807 
L 93.04355 51.62583 
L 93.36853 66.837334 
L 93.69351 55.957338 
L 94.018489 60.602103 
L 94.343469 59.983915 
L 94.668448 56.776272 
L 94.993428 64.668666 
L 95.318407 55.402076 
L 95.643387 61.735195 
L 95.968366 61.696566 
L 96.293346 51.440576 
L 96.618325 51.870572 
L 96.943305 50.021863 
L 97.268284 66.846439 
L 97.593264 63.589379 
L 97.918243 47.48762 
L 98.243223 65.87689 
L 98.568202 77.841109 
L 98.893182 62.170729 
L 99.543141 84.683396 
L 99.86812 60.450008 
L 100.1931 82.310954 
L 100.51808 83.4839 
L 100.843059 79.182892 
L 101.168039 83.571297 
L 101.493018 78.087441 
L 101.817998 86.237444 
L 102.142977 85.271756 
L 102.467957 86.94554 
L 102.792936 78.649263 
L 103.117916 77.953417 
L 104.092854 94.364619 
L 104.742813 95.467142 
L 105.067793 88.742003 
L 105.392772 100.643696 
L 105.717752 97.26105 
L 106.042731 96.102227 
L 106.367711 91.76925 
L 106.692691 92.313586 
L 107.01767 95.028869 
L 107.34265 86.503351 
L 107.667629 107.609157 
L 107.992609 107.768904 
L 108.317588 92.446192 
L 108.642568 92.632844 
L 108.967547 96.756312 
L 109.617506 118.739759 
L 109.942486 95.268094 
L 110.592445 122.710497 
L 110.917424 94.367853 
L 111.242404 110.994105 
L 111.567383 108.085858 
L 111.892363 107.579708 
L 112.217342 122.6977 
L 112.542322 114.452791 
L 112.867301 98.487447 
L 113.192281 114.49359 
L 113.517261 113.184339 
L 113.84224 124.355756 
L 114.16722 102.913506 
L 114.492199 106.835377 
L 114.817179 124.366567 
L 115.142158 117.299104 
L 115.467138 102.834173 
L 115.792117 107.581433 
L 116.117097 118.11927 
L 116.442076 114.952423 
L 116.767056 114.511724 
L 117.092035 110.004091 
L 117.417015 112.819393 
L 117.741994 120.958092 
L 118.066974 110.904196 
L 118.391953 120.578489 
L 118.716933 124.647102 
L 119.041912 126.571569 
L 119.366892 110.437656 
L 119.691872 124.364638 
L 120.016851 123.829104 
L 120.341831 119.732273 
L 120.66681 120.722409 
L 120.99179 128.70488 
L 121.641749 134.029108 
L 121.966728 138.812154 
L 122.291708 125.612684 
L 122.616687 139.28157 
L 122.941667 115.44439 
L 123.266646 128.387891 
L 123.591626 124.916312 
L 124.241585 138.233278 
L 124.566564 127.971164 
L 124.891544 124.892384 
L 125.216523 138.481351 
L 125.541503 127.320124 
L 126.191462 145.492271 
L 126.516442 133.258976 
L 126.841421 148.725421 
L 127.166401 144.271453 
L 127.49138 146.035972 
L 127.81636 142.166474 
L 128.141339 132.308752 
L 128.466319 157.000403 
L 128.791298 129.343217 
L 129.116278 151.348059 
L 129.441257 134.379458 
L 129.766237 127.711965 
L 130.091216 145.432993 
L 130.416196 112.679429 
L 130.741175 149.963356 
L 131.066155 137.448361 
L 131.391134 129.855897 
L 131.716114 151.588764 
L 132.041093 130.63975 
L 132.366073 130.323114 
L 132.691053 136.482877 
L 133.016032 136.125987 
L 133.341012 128.782165 
L 133.665991 151.830243 
L 133.990971 150.26634 
L 134.31595 141.631969 
L 134.64093 136.850604 
L 134.965909 127.815465 
L 135.290889 146.989568 
L 135.615868 145.603902 
L 135.940848 154.366597 
L 136.265827 145.498838 
L 136.590807 145.051047 
L 136.915786 125.741849 
L 137.240766 138.022348 
L 137.565745 128.312802 
L 138.215704 141.429512 
L 138.540684 131.982012 
L 138.865663 139.866651 
L 139.190643 159.947305 
L 139.515623 143.49818 
L 139.840602 147.926716 
L 140.165582 149.128261 
L 140.490561 153.737877 
L 140.815541 152.860862 
L 141.14052 146.585688 
L 141.4655 150.193032 
L 141.790479 144.916698 
L 142.115459 146.473624 
L 142.440438 166.593649 
L 142.765418 176.283112 
L 143.090397 138.266591 
L 143.415377 148.493955 
L 143.740356 137.584773 
L 144.065336 140.834615 
L 144.390315 151.669666 
L 144.715295 156.433115 
L 145.040274 144.324432 
L 145.365254 147.518081 
L 145.690234 146.231644 
L 146.015213 139.901052 
L 146.340193 167.034389 
L 146.665172 163.114574 
L 146.990152 140.379667 
L 147.315131 137.471264 
L 147.640111 164.293914 
L 147.96509 149.974857 
L 148.29007 146.12593 
L 148.615049 149.028836 
L 148.940029 135.612139 
L 149.265008 161.165861 
L 149.589988 160.09676 
L 149.914967 141.746447 
L 150.239947 157.831658 
L 150.564926 141.641011 
L 150.889906 176.764368 
L 151.214885 156.287549 
L 151.539865 149.226547 
L 151.864844 160.562219 
L 152.189824 155.775039 
L 152.514804 157.911656 
L 152.839783 155.737497 
L 153.489742 164.143328 
L 153.814722 148.776278 
L 154.464681 156.572622 
L 154.78966 159.158717 
L 155.11464 159.906554 
L 155.439619 149.203051 
L 155.764599 158.100458 
L 156.089578 162.398067 
L 156.414558 169.411961 
L 156.739537 138.935354 
L 157.064517 161.972143 
L 157.389496 154.006771 
L 157.714476 152.467916 
L 158.039455 176.219776 
L 158.364435 153.575874 
L 158.689415 160.879153 
L 159.014394 152.681917 
L 159.339374 169.600024 
L 159.989333 157.507149 
L 160.314312 171.654648 
L 160.639292 179.866036 
L 161.289251 166.580789 
L 161.93921 156.50678 
L 162.264189 162.50061 
L 162.589169 151.580673 
L 162.914148 161.912923 
L 163.239128 156.550111 
L 163.564107 154.155161 
L 163.889087 163.756641 
L 164.214066 159.643003 
L 164.539046 177.238226 
L 164.864025 145.798978 
L 165.189005 157.985021 
L 165.513985 163.412814 
L 165.838964 155.621209 
L 166.163944 175.430763 
L 166.488923 172.45566 
L 166.813903 164.933497 
L 167.138882 176.29622 
L 167.463862 167.991219 
L 167.788841 154.693022 
L 168.113821 153.639702 
L 168.4388 163.150029 
L 168.76378 183.003945 
L 169.088759 156.624816 
L 169.413739 163.808846 
L 169.738718 180.346204 
L 170.063698 148.97289 
L 170.388677 144.423829 
L 171.038636 182.506325 
L 171.688596 168.813823 
L 172.013575 178.655649 
L 172.338555 159.184788 
L 172.663534 166.245794 
L 172.988514 160.06797 
L 173.313493 156.641225 
L 173.638473 165.136718 
L 173.963452 166.61606 
L 174.288432 174.417521 
L 174.613411 173.750745 
L 174.938391 157.144852 
L 175.26337 171.778707 
L 175.58835 179.993402 
L 175.913329 164.864799 
L 176.238309 164.867899 
L 176.563288 167.572554 
L 176.888268 178.395012 
L 177.213247 179.785873 
L 177.538227 177.569734 
L 177.863206 168.980216 
L 178.513166 174.649296 
L 178.838145 169.763599 
L 179.163125 159.31347 
L 179.488104 182.828856 
L 179.813084 164.524292 
L 180.138063 181.203592 
L 180.463043 172.135585 
L 181.113002 165.657159 
L 181.437981 162.286195 
L 181.762961 164.260234 
L 182.08794 192.940721 
L 182.737899 164.34128 
L 183.062879 173.473672 
L 183.387858 163.47325 
L 183.712838 170.010249 
L 184.037817 163.664023 
L 184.362797 190.08429 
L 184.687777 176.964168 
L 185.012756 155.296228 
L 185.337736 189.171261 
L 185.662715 175.07948 
L 185.987695 189.373297 
L 186.312674 185.010219 
L 186.637654 163.831378 
L 186.962633 171.956647 
L 187.287613 168.528477 
L 187.612592 192.034392 
L 188.262551 171.062987 
L 188.587531 179.262859 
L 188.91251 167.363457 
L 189.23749 183.579328 
L 189.562469 181.613434 
L 189.887449 171.915483 
L 190.212428 187.788727 
L 190.537408 177.607298 
L 190.862387 187.581467 
L 191.187367 157.706153 
L 191.512347 167.091844 
L 191.837326 182.247292 
L 192.487285 167.180433 
L 192.812265 179.203473 
L 193.137244 174.840611 
L 193.462224 193.077124 
L 193.787203 177.741215 
L 194.112183 180.958018 
L 194.437162 199.565842 
L 194.762142 169.699123 
L 195.087121 182.38379 
L 195.412101 169.418692 
L 195.73708 180.467234 
L 196.06206 165.125748 
L 196.387039 161.138668 
L 196.712019 169.963189 
L 197.036998 187.634201 
L 197.361978 187.298356 
L 197.686958 186.529055 
L 198.011937 172.591056 
L 198.336917 176.749825 
L 198.661896 182.762267 
L 198.986876 182.54455 
L 199.311855 177.333521 
L 199.636835 177.689732 
L 199.961814 183.874104 
L 200.286794 184.35292 
L 200.611773 193.948487 
L 200.936753 179.909838 
L 201.261732 176.211855 
L 201.586712 183.548687 
L 201.911691 155.058263 
L 202.236671 185.617096 
L 202.56165 182.851692 
L 202.88663 194.864947 
L 203.211609 192.648296 
L 203.536589 188.847243 
L 203.861568 173.721501 
L 204.511528 188.627808 
L 204.836507 176.538802 
L 205.161487 191.420409 
L 205.486466 192.017595 
L 205.811446 158.995335 
L 206.136425 203.679839 
L 206.461405 190.813892 
L 206.786384 195.472721 
L 207.111364 193.789086 
L 207.436343 199.31444 
L 207.761323 177.626704 
L 208.411282 196.766732 
L 208.736261 187.877339 
L 209.061241 202.35487 
L 209.38622 174.283302 
L 209.7112 189.287508 
L 210.036179 172.51518 
L 210.361159 198.081808 
L 210.686139 186.009919 
L 211.011118 193.761203 
L 211.336098 196.621533 
L 211.661077 196.639012 
L 211.986057 183.841586 
L 212.311036 179.72678 
L 212.636016 198.715582 
L 212.960995 190.679063 
L 213.285975 177.669793 
L 213.935934 194.0849 
L 214.260913 178.994342 
L 214.585893 203.409617 
L 214.910872 188.618712 
L 215.235852 186.475726 
L 215.560831 182.394826 
L 215.885811 171.740511 
L 216.21079 177.876484 
L 216.53577 179.957568 
L 216.860749 186.372127 
L 217.185729 177.433182 
L 217.510709 187.324903 
L 217.835688 171.787189 
L 218.160668 183.419054 
L 218.485647 179.443752 
L 219.135606 200.490791 
L 219.460586 195.898371 
L 219.785565 170.524868 
L 220.110545 184.632799 
L 220.435524 184.680684 
L 220.760504 181.920235 
L 221.085483 193.157828 
L 221.410463 198.956624 
L 221.735442 176.753371 
L 222.060422 188.027809 
L 222.385401 183.347122 
L 222.710381 186.035396 
L 223.03536 186.707639 
L 223.36034 197.153501 
L 223.68532 186.776702 
L 224.010299 195.408669 
L 224.335279 181.812522 
L 224.660258 197.388763 
L 224.985238 181.096975 
L 225.310217 194.9047 
L 225.635197 193.405536 
L 225.960176 207.354454 
L 226.285156 184.721989 
L 226.610135 194.623294 
L 226.935115 197.290066 
L 227.260094 192.670137 
L 227.585074 177.318962 
L 227.910053 194.863221 
L 228.235033 200.50693 
L 228.560012 173.021738 
L 228.884992 218.80385 
L 229.209971 200.96732 
L 229.534951 194.663482 
L 229.85993 206.685535 
L 230.18491 184.316598 
L 230.50989 188.550653 
L 230.834869 181.840213 
L 231.159849 189.373348 
L 231.484828 188.55897 
L 231.809808 208.99409 
L 232.134787 176.295137 
L 232.459767 196.393968 
L 232.784746 183.187527 
L 233.434705 206.927677 
L 233.759685 205.065762 
L 234.084664 208.249159 
L 234.409644 184.727936 
L 234.734623 196.864165 
L 235.059603 194.56688 
L 235.384582 199.290679 
L 235.709562 182.869975 
L 236.034541 191.465447 
L 236.359521 205.001351 
L 236.684501 169.429401 
L 237.00948 202.909903 
L 237.659439 190.183922 
L 237.984419 177.094076 
L 238.309398 187.16243 
L 238.634378 191.617608 
L 238.959357 207.02111 
L 239.284337 201.615134 
L 239.609316 212.25523 
L 239.934296 201.246252 
L 240.259275 184.803183 
L 240.584255 197.471017 
L 240.909234 223.76024 
L 241.234214 197.556827 
L 241.559193 188.756454 
L 241.884173 212.849987 
L 242.209152 180.249263 
L 242.534132 212.019711 
L 243.184091 197.236604 
L 243.509071 202.431192 
L 243.83405 202.667109 
L 244.15903 196.365515 
L 244.484009 197.526559 
L 244.808989 188.449136 
L 245.133968 200.771262 
L 245.458948 218.077763 
L 245.783927 188.909249 
L 246.108907 211.974865 
L 246.758866 193.211628 
L 247.083845 195.01315 
L 247.408825 213.419838 
L 248.058784 195.700239 
L 248.383763 207.374487 
L 248.708743 200.67348 
L 249.033722 216.531247 
L 249.358702 192.669988 
L 249.683682 202.909074 
L 250.008661 195.231611 
L 250.333641 200.52005 
L 250.65862 203.625228 
L 250.9836 228.334166 
L 251.308579 209.348052 
L 251.633559 214.808537 
L 251.958538 205.817603 
L 252.283518 218.734467 
L 252.608497 204.702434 
L 253.258456 193.639136 
L 253.583436 209.167251 
L 253.908415 216.283163 
L 254.233395 206.69975 
L 254.558374 211.191085 
L 254.883354 192.395005 
L 255.208333 226.137553 
L 255.533313 216.425543 
L 255.858292 216.081856 
L 256.183272 213.056701 
L 256.508252 182.453921 
L 257.158211 215.346222 
L 257.48319 193.437071 
L 257.80817 211.061153 
L 258.133149 213.892736 
L 258.458129 208.727241 
L 258.783108 198.728508 
L 259.108088 206.73863 
L 259.758047 232.862607 
L 260.083026 230.449951 
L 260.408006 207.569007 
L 260.732985 207.270505 
L 261.057965 213.879916 
L 261.382944 201.377169 
L 261.707924 223.785673 
L 262.032903 188.830364 
L 262.357883 215.757668 
L 263.007842 197.09036 
L 263.332822 198.985102 
L 263.657801 200.186218 
L 263.982781 208.615564 
L 264.30776 204.118466 
L 264.63274 214.162056 
L 265.282699 203.145533 
L 265.607678 216.05618 
L 265.932658 196.494782 
L 266.582617 221.021671 
L 267.232576 188.921146 
L 267.557555 216.11414 
L 267.882535 200.704183 
L 268.207514 231.924761 
L 268.532494 203.495542 
L 268.857473 193.590228 
L 269.182453 218.711775 
L 269.507433 194.849148 
L 269.832412 219.294749 
L 270.157392 210.629164 
L 270.482371 198.350608 
L 270.807351 210.960688 
L 271.13233 185.526625 
L 271.45731 195.087324 
L 271.782289 200.641217 
L 272.107269 197.114611 
L 272.432248 202.102637 
L 272.757228 214.650609 
L 273.082207 243.548648 
L 273.407187 206.290254 
L 273.732166 190.69179 
L 274.057146 208.25687 
L 274.382125 177.464983 
L 274.707105 209.178635 
L 275.032084 208.107122 
L 275.357064 218.238545 
L 275.682044 209.496624 
L 276.007023 191.737967 
L 276.332003 212.644612 
L 276.656982 205.034829 
L 276.981962 214.263486 
L 277.306941 213.46781 
L 277.631921 224.091308 
L 277.9569 199.577624 
L 278.28188 202.730932 
L 278.606859 208.556917 
L 278.931839 181.668157 
L 279.256818 212.062707 
L 279.906777 198.851631 
L 280.231757 219.360935 
L 280.556736 218.544468 
L 280.881716 196.257782 
L 281.206695 214.521514 
L 281.531675 201.098765 
L 281.856654 222.431418 
L 282.181634 204.765488 
L 282.506614 237.275183 
L 282.831593 204.94398 
L 283.156573 224.487968 
L 283.481552 201.088586 
L 283.806532 216.574525 
L 284.131511 198.58907 
L 284.456491 195.404951 
L 284.78147 231.597353 
L 285.10645 192.223628 
L 285.431429 190.342567 
L 285.756409 211.917425 
L 286.081388 219.842553 
L 286.406368 204.855907 
L 286.731347 211.731153 
L 287.056327 203.670246 
L 287.381306 206.260535 
L 287.706286 226.668946 
L 288.031265 209.809387 
L 288.356245 198.780186 
L 288.681225 212.04114 
L 289.006204 208.907355 
L 289.331184 225.155075 
L 289.656163 217.787656 
L 289.981143 231.646445 
L 290.306122 211.632564 
L 290.631102 222.782807 
L 290.956081 206.796888 
L 291.281061 206.556835 
L 291.60604 228.118509 
L 291.93102 207.272074 
L 292.255999 204.250677 
L 292.905958 235.286218 
L 293.230938 200.704766 
L 293.555917 220.417517 
L 293.880897 214.015625 
L 294.530856 193.538517 
L 294.855835 219.838943 
L 295.180815 223.109911 
L 295.505795 212.028455 
L 296.155754 200.924427 
L 296.480733 207.352427 
L 296.805713 229.215905 
L 297.130692 221.2917 
L 297.455672 217.20909 
L 297.780651 217.015174 
L 298.105631 203.329434 
L 298.43061 209.793725 
L 298.75559 224.566761 
L 299.080569 228.159202 
L 299.405549 202.943529 
L 299.730528 219.694195 
L 300.055508 225.214497 
L 300.380487 222.69904 
L 300.705467 225.001305 
L 301.030446 234.027722 
L 301.355426 211.213916 
L 301.680406 225.003284 
L 302.005385 205.921757 
L 302.330365 213.63595 
L 302.655344 209.682492 
L 302.980324 235.707381 
L 303.305303 227.041906 
L 303.630283 228.119399 
L 303.955262 222.971596 
L 304.280242 213.561531 
L 304.605221 197.377677 
L 304.930201 235.532683 
L 305.25518 220.092073 
L 305.58016 221.867431 
L 305.905139 236.647884 
L 306.230119 231.958757 
L 306.555098 230.48368 
L 306.880078 224.301338 
L 307.205057 211.25968 
L 307.530037 209.114791 
L 307.855016 223.294716 
L 308.179996 227.638029 
L 308.829955 203.474779 
L 309.154935 205.814888 
L 309.479914 227.693133 
L 309.804894 233.234043 
L 310.129873 222.684649 
L 310.454853 224.154537 
L 310.779832 230.532867 
L 311.104812 218.758887 
L 311.429791 213.26804 
L 311.754771 214.009263 
L 312.07975 243.333842 
L 312.40473 214.614195 
L 312.729709 228.404761 
L 313.054689 218.599527 
L 313.379668 217.152083 
L 313.704648 229.84155 
L 314.029627 207.566423 
L 314.354607 210.60904 
L 314.679587 237.084483 
L 315.004566 230.672151 
L 315.329546 199.395983 
L 315.654525 222.42751 
L 316.304484 239.256248 
L 316.629464 215.575997 
L 316.954443 211.527474 
L 317.279423 191.104082 
L 317.604402 219.4099 
L 317.929382 208.799704 
L 318.254361 220.252159 
L 318.579341 223.514724 
L 318.90432 225.65306 
L 319.2293 224.134137 
L 319.554279 204.040458 
L 320.204238 231.275116 
L 320.529218 211.786096 
L 320.854197 223.84632 
L 321.179177 225.621527 
L 321.504157 224.749558 
L 321.829136 207.699807 
L 322.154116 237.269916 
L 322.479095 222.192964 
L 322.804075 230.054097 
L 323.129054 225.040788 
L 323.454034 237.899791 
L 323.779013 213.839385 
L 324.103993 223.239736 
L 324.428972 240.46639 
L 324.753952 214.758326 
L 325.078931 242.499323 
L 325.403911 225.036991 
L 325.72889 226.993979 
L 326.05387 207.210623 
L 326.378849 236.653308 
L 326.703829 210.163955 
L 327.028808 231.55229 
L 327.353788 223.69898 
L 327.678768 231.890023 
L 328.003747 229.221282 
L 328.328727 219.681245 
L 328.653706 223.615683 
L 328.978686 205.4413 
L 329.303665 205.534416 
L 329.628645 236.952053 
L 329.953624 235.268058 
L 330.278604 219.853451 
L 330.603583 240.713113 
L 330.928563 229.407214 
L 331.253542 255.863306 
L 331.578522 230.99621 
L 331.903501 222.673159 
L 332.228481 242.068717 
L 332.55346 232.615355 
L 332.87844 245.091794 
L 333.203419 226.911453 
L 333.528399 215.679953 
L 333.853378 239.565639 
L 334.178358 202.233848 
L 334.503338 249.78057 
L 334.828317 226.895546 
L 335.153297 238.05762 
L 335.478276 239.221762 
L 335.803256 226.905991 
L 336.128235 230.61951 
L 336.453215 257.291856 
L 336.778194 215.181802 
L 337.103174 247.669602 
L 337.428153 225.465418 
L 337.753133 221.145225 
L 338.078112 203.770318 
L 338.728071 249.411652 
L 339.053051 258.445478 
L 339.37803 208.52965 
L 339.70301 220.344171 
L 340.352969 252.530011 
L 340.677949 248.454735 
L 341.002928 254.371904 
L 341.652887 211.905897 
L 341.977867 241.121774 
L 342.302846 258.005209 
L 342.627826 224.051309 
L 342.952805 237.569194 
L 343.602764 250.007714 
L 343.927744 240.248966 
L 344.252723 238.084698 
L 344.577703 221.50215 
L 344.902682 226.632434 
L 345.552641 194.800611 
L 345.877621 229.203121 
L 346.2026 191.667015 
L 346.52758 232.651551 
L 346.852559 227.974001 
L 347.177539 233.17874 
L 347.502519 236.028992 
L 348.152478 202.845657 
L 348.477457 223.471014 
L 348.802437 225.900186 
L 349.127416 229.608904 
L 349.452396 246.187853 
L 349.777375 242.576908 
L 350.102355 226.115523 
L 350.427334 223.169854 
L 350.752314 246.138164 
L 351.077293 217.882524 
L 351.402273 204.167344 
L 351.727252 244.059098 
L 352.702191 218.646897 
L 353.02717 226.286681 
L 353.35215 215.664029 
L 353.67713 217.393003 
L 354.002109 246.154659 
L 354.327089 205.460843 
L 354.977048 252.118946 
L 355.302027 249.694329 
L 355.627007 251.125644 
L 355.951986 246.47197 
L 356.276966 213.550113 
L 356.601945 260.183486 
L 356.926925 224.927315 
L 357.251904 237.14354 
L 357.576884 228.064339 
L 357.901863 229.564438 
L 358.226843 222.176111 
L 358.876802 250.170182 
L 359.201781 201.735475 
L 359.526761 223.824422 
L 359.85174 254.941852 
L 360.17672 227.153141 
L 360.5017 242.939067 
L 360.826679 247.735499 
L 361.151659 247.030364 
L 361.476638 227.381414 
L 361.801618 228.074476 
L 362.126597 231.724134 
L 362.451577 237.384241 
L 362.776556 230.823232 
L 363.101536 232.425834 
L 363.426515 213.792175 
L 363.751495 237.846643 
L 364.076474 220.494942 
L 364.401454 231.702751 
L 364.726433 236.290496 
L 365.376392 211.561447 
L 366.026351 238.286412 
L 366.351331 231.562908 
L 366.676311 222.339766 
L 367.32627 236.791176 
L 367.651249 260.220155 
L 368.301208 215.216376 
L 368.626188 219.505259 
L 368.951167 262.642796 
L 369.276147 235.74102 
L 369.601126 232.344978 
L 369.926106 240.705482 
L 370.251085 244.060805 
L 370.576065 209.152604 
L 370.901044 229.381022 
L 371.226024 242.684816 
L 371.551003 234.583906 
L 371.875983 220.066208 
L 372.200962 230.388047 
L 372.525942 234.456085 
L 372.850921 219.314288 
L 373.175901 238.79228 
L 373.82586 251.987088 
L 374.15084 220.803163 
L 374.475819 232.129775 
L 374.800799 211.260579 
L 375.125778 240.799201 
L 375.450758 234.22209 
L 375.775737 239.934158 
L 376.100717 243.292128 
L 376.425696 245.384836 
L 376.750676 244.676033 
L 377.075655 244.648626 
L 377.725614 223.711316 
L 378.050594 248.472854 
L 378.375573 239.34007 
L 378.700553 221.956044 
L 379.025532 245.976562 
L 379.350512 250.759911 
L 379.675492 217.391287 
L 380.000471 235.352092 
L 380.325451 220.146074 
L 380.65043 278.8635 
L 380.97541 241.36992 
L 381.300389 265.136592 
L 381.625369 225.224327 
L 381.950348 239.387119 
L 382.275328 230.506401 
L 382.600307 217.939226 
L 382.925287 244.384326 
L 383.250266 248.074771 
L 383.575246 225.520314 
L 384.225205 256.096988 
L 384.550184 253.635336 
L 384.875164 230.978526 
L 385.200143 254.045905 
L 385.525123 239.992735 
L 385.850102 236.984376 
L 386.500062 253.755273 
L 386.825041 265.162294 
L 387.150021 222.409842 
L 387.79998 244.032419 
L 388.124959 216.329817 
L 388.449939 255.804966 
L 388.774918 265.477813 
L 389.099898 225.874185 
L 389.099898 225.874185 
" clip-path="url(#p4388bd7c84)" style="fill: none; stroke: #1f77b4; stroke-width: 1.2; stroke-linecap: round"/>
   </g>
   <g id="patch_3">
    <path d="M 48.212625 279.201409 
L 48.212625 54.19389 
" style="fill: none; stroke: #262626; stroke-linejoin: miter; stroke-linecap: square"/>
   </g>
   <g id="patch_4">
    <path d="M 64.445352 290.9595 
L 389.424877 290.9595 
" style="fill: none; stroke: #262626; stroke-linejoin: miter; stroke-linecap: square"/>
   </g>
   <g id="text_16">
    <!-- Convergence of loss for optimizating the GP hyperparameters -->
    <g style="fill: #262626" transform="translate(7.708875 18.8475) scale(0.16 -0.16)">
     <defs>
      <path id="ArialMT-43" d="M 3763 1606 
L 4369 1453 
Q 4178 706 3683 314 
Q 3188 -78 2472 -78 
Q 1731 -78 1267 223 
Q 803 525 561 1097 
Q 319 1669 319 2325 
Q 319 3041 592 3573 
Q 866 4106 1370 4382 
Q 1875 4659 2481 4659 
Q 3169 4659 3637 4309 
Q 4106 3959 4291 3325 
L 3694 3184 
Q 3534 3684 3231 3912 
Q 2928 4141 2469 4141 
Q 1941 4141 1586 3887 
Q 1231 3634 1087 3207 
Q 944 2781 944 2328 
Q 944 1744 1114 1308 
Q 1284 872 1643 656 
Q 2003 441 2422 441 
Q 2931 441 3284 734 
Q 3638 1028 3763 1606 
z
" transform="scale(0.015625)"/>
      <path id="ArialMT-63" d="M 2588 1216 
L 3141 1144 
Q 3050 572 2676 248 
Q 2303 -75 1759 -75 
Q 1078 -75 664 370 
Q 250 816 250 1647 
Q 250 2184 428 2587 
Q 606 2991 970 3192 
Q 1334 3394 1763 3394 
Q 2303 3394 2647 3120 
Q 2991 2847 3088 2344 
L 2541 2259 
Q 2463 2594 2264 2762 
Q 2066 2931 1784 2931 
Q 1359 2931 1093 2626 
Q 828 2322 828 1663 
Q 828 994 1084 691 
Q 1341 388 1753 388 
Q 2084 388 2306 591 
Q 2528 794 2588 1216 
z
" transform="scale(0.015625)"/>
      <path id="ArialMT-66" d="M 556 0 
L 556 2881 
L 59 2881 
L 59 3319 
L 556 3319 
L 556 3672 
Q 556 4006 616 4169 
Q 697 4388 901 4523 
Q 1106 4659 1475 4659 
Q 1713 4659 2000 4603 
L 1916 4113 
Q 1741 4144 1584 4144 
Q 1328 4144 1222 4034 
Q 1116 3925 1116 3625 
L 1116 3319 
L 1763 3319 
L 1763 2881 
L 1116 2881 
L 1116 0 
L 556 0 
z
" transform="scale(0.015625)"/>
      <path id="ArialMT-73" d="M 197 991 
L 753 1078 
Q 800 744 1014 566 
Q 1228 388 1613 388 
Q 2000 388 2187 545 
Q 2375 703 2375 916 
Q 2375 1106 2209 1216 
Q 2094 1291 1634 1406 
Q 1016 1563 777 1677 
Q 538 1791 414 1992 
Q 291 2194 291 2438 
Q 291 2659 392 2848 
Q 494 3038 669 3163 
Q 800 3259 1026 3326 
Q 1253 3394 1513 3394 
Q 1903 3394 2198 3281 
Q 2494 3169 2634 2976 
Q 2775 2784 2828 2463 
L 2278 2388 
Q 2241 2644 2061 2787 
Q 1881 2931 1553 2931 
Q 1166 2931 1000 2803 
Q 834 2675 834 2503 
Q 834 2394 903 2306 
Q 972 2216 1119 2156 
Q 1203 2125 1616 2013 
Q 2213 1853 2448 1751 
Q 2684 1650 2818 1456 
Q 2953 1263 2953 975 
Q 2953 694 2789 445 
Q 2625 197 2315 61 
Q 2006 -75 1616 -75 
Q 969 -75 630 194 
Q 291 463 197 991 
z
" transform="scale(0.015625)"/>
      <path id="ArialMT-70" d="M 422 -1272 
L 422 3319 
L 934 3319 
L 934 2888 
Q 1116 3141 1344 3267 
Q 1572 3394 1897 3394 
Q 2322 3394 2647 3175 
Q 2972 2956 3137 2557 
Q 3303 2159 3303 1684 
Q 3303 1175 3120 767 
Q 2938 359 2589 142 
Q 2241 -75 1856 -75 
Q 1575 -75 1351 44 
Q 1128 163 984 344 
L 984 -1272 
L 422 -1272 
z
M 931 1641 
Q 931 1000 1190 694 
Q 1450 388 1819 388 
Q 2194 388 2461 705 
Q 2728 1022 2728 1688 
Q 2728 2322 2467 2637 
Q 2206 2953 1844 2953 
Q 1484 2953 1207 2617 
Q 931 2281 931 1641 
z
" transform="scale(0.015625)"/>
      <path id="ArialMT-7a" d="M 125 0 
L 125 456 
L 2238 2881 
Q 1878 2863 1603 2863 
L 250 2863 
L 250 3319 
L 2963 3319 
L 2963 2947 
L 1166 841 
L 819 456 
Q 1197 484 1528 484 
L 3063 484 
L 3063 0 
L 125 0 
z
" transform="scale(0.015625)"/>
      <path id="ArialMT-47" d="M 2638 1797 
L 2638 2334 
L 4578 2338 
L 4578 638 
Q 4131 281 3656 101 
Q 3181 -78 2681 -78 
Q 2006 -78 1454 211 
Q 903 500 622 1047 
Q 341 1594 341 2269 
Q 341 2938 620 3517 
Q 900 4097 1425 4378 
Q 1950 4659 2634 4659 
Q 3131 4659 3532 4498 
Q 3934 4338 4162 4050 
Q 4391 3763 4509 3300 
L 3963 3150 
Q 3859 3500 3706 3700 
Q 3553 3900 3268 4020 
Q 2984 4141 2638 4141 
Q 2222 4141 1919 4014 
Q 1616 3888 1430 3681 
Q 1244 3475 1141 3228 
Q 966 2803 966 2306 
Q 966 1694 1177 1281 
Q 1388 869 1791 669 
Q 2194 469 2647 469 
Q 3041 469 3416 620 
Q 3791 772 3984 944 
L 3984 1797 
L 2638 1797 
z
" transform="scale(0.015625)"/>
      <path id="ArialMT-50" d="M 494 0 
L 494 4581 
L 2222 4581 
Q 2678 4581 2919 4538 
Q 3256 4481 3484 4323 
Q 3713 4166 3852 3881 
Q 3991 3597 3991 3256 
Q 3991 2672 3619 2267 
Q 3247 1863 2275 1863 
L 1100 1863 
L 1100 0 
L 494 0 
z
M 1100 2403 
L 2284 2403 
Q 2872 2403 3119 2622 
Q 3366 2841 3366 3238 
Q 3366 3525 3220 3729 
Q 3075 3934 2838 4000 
Q 2684 4041 2272 4041 
L 1100 4041 
L 1100 2403 
z
" transform="scale(0.015625)"/>
      <path id="ArialMT-79" d="M 397 -1278 
L 334 -750 
Q 519 -800 656 -800 
Q 844 -800 956 -737 
Q 1069 -675 1141 -563 
Q 1194 -478 1313 -144 
Q 1328 -97 1363 -6 
L 103 3319 
L 709 3319 
L 1400 1397 
Q 1534 1031 1641 628 
Q 1738 1016 1872 1384 
L 2581 3319 
L 3144 3319 
L 1881 -56 
Q 1678 -603 1566 -809 
Q 1416 -1088 1222 -1217 
Q 1028 -1347 759 -1347 
Q 597 -1347 397 -1278 
z
" transform="scale(0.015625)"/>
     </defs>
     <use xlink:href="#ArialMT-43"/>
     <use xlink:href="#ArialMT-6f" x="72.216797"/>
     <use xlink:href="#ArialMT-6e" x="127.832031"/>
     <use xlink:href="#ArialMT-76" x="183.447266"/>
     <use xlink:href="#ArialMT-65" x="233.447266"/>
     <use xlink:href="#ArialMT-72" x="289.0625"/>
     <use xlink:href="#ArialMT-67" x="322.363281"/>
     <use xlink:href="#ArialMT-65" x="377.978516"/>
     <use xlink:href="#ArialMT-6e" x="433.59375"/>
     <use xlink:href="#ArialMT-63" x="489.208984"/>
     <use xlink:href="#ArialMT-65" x="539.208984"/>
     <use xlink:href="#ArialMT-20" x="594.824219"/>
     <use xlink:href="#ArialMT-6f" x="622.607422"/>
     <use xlink:href="#ArialMT-66" x="678.222656"/>
     <use xlink:href="#ArialMT-20" x="706.005859"/>
     <use xlink:href="#ArialMT-6c" x="733.789062"/>
     <use xlink:href="#ArialMT-6f" x="756.005859"/>
     <use xlink:href="#ArialMT-73" x="811.621094"/>
     <use xlink:href="#ArialMT-73" x="861.621094"/>
     <use xlink:href="#ArialMT-20" x="911.621094"/>
     <use xlink:href="#ArialMT-66" x="939.404297"/>
     <use xlink:href="#ArialMT-6f" x="967.1875"/>
     <use xlink:href="#ArialMT-72" x="1022.802734"/>
     <use xlink:href="#ArialMT-20" x="1056.103516"/>
     <use xlink:href="#ArialMT-6f" x="1083.886719"/>
     <use xlink:href="#ArialMT-70" x="1139.501953"/>
     <use xlink:href="#ArialMT-74" x="1195.117188"/>
     <use xlink:href="#ArialMT-69" x="1222.900391"/>
     <use xlink:href="#ArialMT-6d" x="1245.117188"/>
     <use xlink:href="#ArialMT-69" x="1328.417969"/>
     <use xlink:href="#ArialMT-7a" x="1350.634766"/>
     <use xlink:href="#ArialMT-61" x="1400.634766"/>
     <use xlink:href="#ArialMT-74" x="1456.25"/>
     <use xlink:href="#ArialMT-69" x="1484.033203"/>
     <use xlink:href="#ArialMT-6e" x="1506.25"/>
     <use xlink:href="#ArialMT-67" x="1561.865234"/>
     <use xlink:href="#ArialMT-20" x="1617.480469"/>
     <use xlink:href="#ArialMT-74" x="1645.263672"/>
     <use xlink:href="#ArialMT-68" x="1673.046875"/>
     <use xlink:href="#ArialMT-65" x="1728.662109"/>
     <use xlink:href="#ArialMT-20" x="1784.277344"/>
     <use xlink:href="#ArialMT-47" x="1812.060547"/>
     <use xlink:href="#ArialMT-50" x="1889.84375"/>
     <use xlink:href="#ArialMT-20" x="1954.792969"/>
     <use xlink:href="#ArialMT-68" x="1982.576172"/>
     <use xlink:href="#ArialMT-79" x="2038.191406"/>
     <use xlink:href="#ArialMT-70" x="2088.191406"/>
     <use xlink:href="#ArialMT-65" x="2143.806641"/>
     <use xlink:href="#ArialMT-72" x="2199.421875"/>
     <use xlink:href="#ArialMT-70" x="2232.722656"/>
     <use xlink:href="#ArialMT-61" x="2288.337891"/>
     <use xlink:href="#ArialMT-72" x="2343.953125"/>
     <use xlink:href="#ArialMT-61" x="2377.253906"/>
     <use xlink:href="#ArialMT-6d" x="2432.869141"/>
     <use xlink:href="#ArialMT-65" x="2516.169922"/>
     <use xlink:href="#ArialMT-74" x="2571.785156"/>
     <use xlink:href="#ArialMT-65" x="2599.568359"/>
     <use xlink:href="#ArialMT-72" x="2655.183594"/>
     <use xlink:href="#ArialMT-73" x="2688.484375"/>
    </g>
   </g>
  </g>
 </g>
 <defs>
  <clipPath id="p4388bd7c84">
   <rect x="48.212625" y="24.8475" width="357.12" height="266.112"/>
  </clipPath>
 </defs>
</svg>