<?xml version="1.0" encoding="utf-8" standalone="no"?>
<!DOCTYPE svg PUBLIC "-//W3C//DTD SVG 1.1//EN"
  "http://www.w3.org/Graphics/SVG/1.1/DTD/svg11.dtd">
<svg xmlns:xlink="http://www.w3.org/1999/xlink" width="389.994725pt" height="327.799375pt" viewBox="0 0 389.994725 327.799375" xmlns="http://www.w3.org/2000/svg" version="1.1">
 <metadata>
  <rdf:RDF xmlns:dc="http://purl.org/dc/elements/1.1/" xmlns:cc="http://creativecommons.org/ns#" xmlns:rdf="http://www.w3.org/1999/02/22-rdf-syntax-ns#">
   <cc:Work>
    <dc:type rdf:resource="http://purl.org/dc/dcmitype/StillImage"/>
    <dc:date>2025-03-14T03:23:43.354860</dc:date>
    <dc:format>image/svg+xml</dc:format>
    <dc:creator>
     <cc:Agent>
      <dc:title>Matplotlib v3.9.2, https://matplotlib.org/</dc:title>
     </cc:Agent>
    </dc:creator>
   </cc:Work>
  </rdf:RDF>
 </metadata>
 <defs>
  <style type="text/css">*{stroke-linejoin: round; stroke-linecap: butt}</style>
 </defs>
 <g id="figure_1">
  <g id="patch_1">
   <path d="M 0 327.799375 
L 389.994725 327.799375 
L 389.994725 0 
L 0 0 
z
" style="fill: #ffffff"/>
  </g>
  <g id="axes_1">
   <g id="patch_2">
    <path d="M 40.5115 291.472 
L 326.2075 291.472 
L 326.2075 25.36 
L 40.5115 25.36 
z
" style="fill: #ffffff"/>
   </g>
   <g id="matplotlib.axis_1">
    <g id="xtick_1">
     <g id="line2d_1">
      <defs>
       <path id="med7375723f" d="M 0 0 
L 0 4.8 
" style="stroke: #262626"/>
      </defs>
      <g>
       <use xlink:href="#med7375723f" x="40.5115" y="291.472" style="fill: #262626; stroke: #262626"/>
      </g>
     </g>
     <g id="text_1">
      <!-- 0.0 -->
      <g style="fill: #262626" transform="translate(34.3955 306.070875) scale(0.088 -0.088)">
       <defs>
        <path id="ArialMT-30" d="M 266 2259 
Q 266 3072 433 3567 
Q 600 4063 929 4331 
Q 1259 4600 1759 4600 
Q 2128 4600 2406 4451 
Q 2684 4303 2865 4023 
Q 3047 3744 3150 3342 
Q 3253 2941 3253 2259 
Q 3253 1453 3087 958 
Q 2922 463 2592 192 
Q 2263 -78 1759 -78 
Q 1097 -78 719 397 
Q 266 969 266 2259 
z
M 844 2259 
Q 844 1131 1108 757 
Q 1372 384 1759 384 
Q 2147 384 2411 759 
Q 2675 1134 2675 2259 
Q 2675 3391 2411 3762 
Q 2147 4134 1753 4134 
Q 1366 4134 1134 3806 
Q 844 3388 844 2259 
z
" transform="scale(0.015625)"/>
        <path id="ArialMT-2e" d="M 581 0 
L 581 641 
L 1222 641 
L 1222 0 
L 581 0 
z
" transform="scale(0.015625)"/>
       </defs>
       <use xlink:href="#ArialMT-30"/>
       <use xlink:href="#ArialMT-2e" x="55.615234"/>
       <use xlink:href="#ArialMT-30" x="83.398438"/>
      </g>
     </g>
    </g>
    <g id="xtick_2">
     <g id="line2d_2">
      <g>
       <use xlink:href="#med7375723f" x="97.6507" y="291.472" style="fill: #262626; stroke: #262626"/>
      </g>
     </g>
     <g id="text_2">
      <!-- 0.2 -->
      <g style="fill: #262626" transform="translate(91.5347 306.070875) scale(0.088 -0.088)">
       <defs>
        <path id="ArialMT-32" d="M 3222 541 
L 3222 0 
L 194 0 
Q 188 203 259 391 
Q 375 700 629 1000 
Q 884 1300 1366 1694 
Q 2113 2306 2375 2664 
Q 2638 3022 2638 3341 
Q 2638 3675 2398 3904 
Q 2159 4134 1775 4134 
Q 1369 4134 1125 3890 
Q 881 3647 878 3216 
L 300 3275 
Q 359 3922 746 4261 
Q 1134 4600 1788 4600 
Q 2447 4600 2831 4234 
Q 3216 3869 3216 3328 
Q 3216 3053 3103 2787 
Q 2991 2522 2730 2228 
Q 2469 1934 1863 1422 
Q 1356 997 1212 845 
Q 1069 694 975 541 
L 3222 541 
z
" transform="scale(0.015625)"/>
       </defs>
       <use xlink:href="#ArialMT-30"/>
       <use xlink:href="#ArialMT-2e" x="55.615234"/>
       <use xlink:href="#ArialMT-32" x="83.398438"/>
      </g>
     </g>
    </g>
    <g id="xtick_3">
     <g id="line2d_3">
      <g>
       <use xlink:href="#med7375723f" x="154.7899" y="291.472" style="fill: #262626; stroke: #262626"/>
      </g>
     </g>
     <g id="text_3">
      <!-- 0.4 -->
      <g style="fill: #262626" transform="translate(148.6739 306.070875) scale(0.088 -0.088)">
       <defs>
        <path id="ArialMT-34" d="M 2069 0 
L 2069 1097 
L 81 1097 
L 81 1613 
L 2172 4581 
L 2631 4581 
L 2631 1613 
L 3250 1613 
L 3250 1097 
L 2631 1097 
L 2631 0 
L 2069 0 
z
M 2069 1613 
L 2069 3678 
L 634 1613 
L 2069 1613 
z
" transform="scale(0.015625)"/>
       </defs>
       <use xlink:href="#ArialMT-30"/>
       <use xlink:href="#ArialMT-2e" x="55.615234"/>
       <use xlink:href="#ArialMT-34" x="83.398438"/>
      </g>
     </g>
    </g>
    <g id="xtick_4">
     <g id="line2d_4">
      <g>
       <use xlink:href="#med7375723f" x="211.9291" y="291.472" style="fill: #262626; stroke: #262626"/>
      </g>
     </g>
     <g id="text_4">
      <!-- 0.6 -->
      <g style="fill: #262626" transform="translate(205.8131 306.070875) scale(0.088 -0.088)">
       <defs>
        <path id="ArialMT-36" d="M 3184 3459 
L 2625 3416 
Q 2550 3747 2413 3897 
Q 2184 4138 1850 4138 
Q 1581 4138 1378 3988 
Q 1113 3794 959 3422 
Q 806 3050 800 2363 
Q 1003 2672 1297 2822 
Q 1591 2972 1913 2972 
Q 2475 2972 2870 2558 
Q 3266 2144 3266 1488 
Q 3266 1056 3080 686 
Q 2894 316 2569 119 
Q 2244 -78 1831 -78 
Q 1128 -78 684 439 
Q 241 956 241 2144 
Q 241 3472 731 4075 
Q 1159 4600 1884 4600 
Q 2425 4600 2770 4297 
Q 3116 3994 3184 3459 
z
M 888 1484 
Q 888 1194 1011 928 
Q 1134 663 1356 523 
Q 1578 384 1822 384 
Q 2178 384 2434 671 
Q 2691 959 2691 1453 
Q 2691 1928 2437 2201 
Q 2184 2475 1800 2475 
Q 1419 2475 1153 2201 
Q 888 1928 888 1484 
z
" transform="scale(0.015625)"/>
       </defs>
       <use xlink:href="#ArialMT-30"/>
       <use xlink:href="#ArialMT-2e" x="55.615234"/>
       <use xlink:href="#ArialMT-36" x="83.398438"/>
      </g>
     </g>
    </g>
    <g id="xtick_5">
     <g id="line2d_5">
      <g>
       <use xlink:href="#med7375723f" x="269.0683" y="291.472" style="fill: #262626; stroke: #262626"/>
      </g>
     </g>
     <g id="text_5">
      <!-- 0.8 -->
      <g style="fill: #262626" transform="translate(262.9523 306.070875) scale(0.088 -0.088)">
       <defs>
        <path id="ArialMT-38" d="M 1131 2484 
Q 781 2613 612 2850 
Q 444 3088 444 3419 
Q 444 3919 803 4259 
Q 1163 4600 1759 4600 
Q 2359 4600 2725 4251 
Q 3091 3903 3091 3403 
Q 3091 3084 2923 2848 
Q 2756 2613 2416 2484 
Q 2838 2347 3058 2040 
Q 3278 1734 3278 1309 
Q 3278 722 2862 322 
Q 2447 -78 1769 -78 
Q 1091 -78 675 323 
Q 259 725 259 1325 
Q 259 1772 486 2073 
Q 713 2375 1131 2484 
z
M 1019 3438 
Q 1019 3113 1228 2906 
Q 1438 2700 1772 2700 
Q 2097 2700 2305 2904 
Q 2513 3109 2513 3406 
Q 2513 3716 2298 3927 
Q 2084 4138 1766 4138 
Q 1444 4138 1231 3931 
Q 1019 3725 1019 3438 
z
M 838 1322 
Q 838 1081 952 856 
Q 1066 631 1291 507 
Q 1516 384 1775 384 
Q 2178 384 2440 643 
Q 2703 903 2703 1303 
Q 2703 1709 2433 1975 
Q 2163 2241 1756 2241 
Q 1359 2241 1098 1978 
Q 838 1716 838 1322 
z
" transform="scale(0.015625)"/>
       </defs>
       <use xlink:href="#ArialMT-30"/>
       <use xlink:href="#ArialMT-2e" x="55.615234"/>
       <use xlink:href="#ArialMT-38" x="83.398438"/>
      </g>
     </g>
    </g>
    <g id="xtick_6">
     <g id="line2d_6">
      <g>
       <use xlink:href="#med7375723f" x="326.2075" y="291.472" style="fill: #262626; stroke: #262626"/>
      </g>
     </g>
     <g id="text_6">
      <!-- 1.0 -->
      <g style="fill: #262626" transform="translate(320.0915 306.070875) scale(0.088 -0.088)">
       <defs>
        <path id="ArialMT-31" d="M 2384 0 
L 1822 0 
L 1822 3584 
Q 1619 3391 1289 3197 
Q 959 3003 697 2906 
L 697 3450 
Q 1169 3672 1522 3987 
Q 1875 4303 2022 4600 
L 2384 4600 
L 2384 0 
z
" transform="scale(0.015625)"/>
       </defs>
       <use xlink:href="#ArialMT-31"/>
       <use xlink:href="#ArialMT-2e" x="55.615234"/>
       <use xlink:href="#ArialMT-30" x="83.398438"/>
      </g>
     </g>
    </g>
    <g id="text_7">
     <!-- $x_1$ -->
     <g style="fill: #262626" transform="translate(178.2235 318.691375) scale(0.096 -0.096)">
      <defs>
       <path id="DejaVuSans-Oblique-78" d="M 3841 3500 
L 2234 1784 
L 3219 0 
L 2559 0 
L 1819 1388 
L 531 0 
L -166 0 
L 1556 1844 
L 641 3500 
L 1300 3500 
L 1972 2234 
L 3144 3500 
L 3841 3500 
z
" transform="scale(0.015625)"/>
       <path id="DejaVuSans-31" d="M 794 531 
L 1825 531 
L 1825 4091 
L 703 3866 
L 703 4441 
L 1819 4666 
L 2450 4666 
L 2450 531 
L 3481 531 
L 3481 0 
L 794 0 
L 794 531 
z
" transform="scale(0.015625)"/>
      </defs>
      <use xlink:href="#DejaVuSans-Oblique-78" transform="translate(0 0.3125)"/>
      <use xlink:href="#DejaVuSans-31" transform="translate(59.179688 -16.09375) scale(0.7)"/>
     </g>
    </g>
   </g>
   <g id="matplotlib.axis_2">
    <g id="ytick_1">
     <g id="line2d_7">
      <defs>
       <path id="me3d1ab09c9" d="M 0 0 
L -4.8 0 
" style="stroke: #262626"/>
      </defs>
      <g>
       <use xlink:href="#me3d1ab09c9" x="40.5115" y="291.472" style="fill: #262626; stroke: #262626"/>
      </g>
     </g>
     <g id="text_8">
      <!-- 0.0 -->
      <g style="fill: #262626" transform="translate(19.9795 294.621437) scale(0.088 -0.088)">
       <use xlink:href="#ArialMT-30"/>
       <use xlink:href="#ArialMT-2e" x="55.615234"/>
       <use xlink:href="#ArialMT-30" x="83.398438"/>
      </g>
     </g>
    </g>
    <g id="ytick_2">
     <g id="line2d_8">
      <g>
       <use xlink:href="#me3d1ab09c9" x="40.5115" y="238.2496" style="fill: #262626; stroke: #262626"/>
      </g>
     </g>
     <g id="text_9">
      <!-- 0.2 -->
      <g style="fill: #262626" transform="translate(19.9795 241.399037) scale(0.088 -0.088)">
       <use xlink:href="#ArialMT-30"/>
       <use xlink:href="#ArialMT-2e" x="55.615234"/>
       <use xlink:href="#ArialMT-32" x="83.398438"/>
      </g>
     </g>
    </g>
    <g id="ytick_3">
     <g id="line2d_9">
      <g>
       <use xlink:href="#me3d1ab09c9" x="40.5115" y="185.0272" style="fill: #262626; stroke: #262626"/>
      </g>
     </g>
     <g id="text_10">
      <!-- 0.4 -->
      <g style="fill: #262626" transform="translate(19.9795 188.176637) scale(0.088 -0.088)">
       <use xlink:href="#ArialMT-30"/>
       <use xlink:href="#ArialMT-2e" x="55.615234"/>
       <use xlink:href="#ArialMT-34" x="83.398438"/>
      </g>
     </g>
    </g>
    <g id="ytick_4">
     <g id="line2d_10">
      <g>
       <use xlink:href="#me3d1ab09c9" x="40.5115" y="131.8048" style="fill: #262626; stroke: #262626"/>
      </g>
     </g>
     <g id="text_11">
      <!-- 0.6 -->
      <g style="fill: #262626" transform="translate(19.9795 134.954237) scale(0.088 -0.088)">
       <use xlink:href="#ArialMT-30"/>
       <use xlink:href="#ArialMT-2e" x="55.615234"/>
       <use xlink:href="#ArialMT-36" x="83.398438"/>
      </g>
     </g>
    </g>
    <g id="ytick_5">
     <g id="line2d_11">
      <g>
       <use xlink:href="#me3d1ab09c9" x="40.5115" y="78.5824" style="fill: #262626; stroke: #262626"/>
      </g>
     </g>
     <g id="text_12">
      <!-- 0.8 -->
      <g style="fill: #262626" transform="translate(19.9795 81.731837) scale(0.088 -0.088)">
       <use xlink:href="#ArialMT-30"/>
       <use xlink:href="#ArialMT-2e" x="55.615234"/>
       <use xlink:href="#ArialMT-38" x="83.398438"/>
      </g>
     </g>
    </g>
    <g id="ytick_6">
     <g id="line2d_12">
      <g>
       <use xlink:href="#me3d1ab09c9" x="40.5115" y="25.36" style="fill: #262626; stroke: #262626"/>
      </g>
     </g>
     <g id="text_13">
      <!-- 1.0 -->
      <g style="fill: #262626" transform="translate(19.9795 28.509437) scale(0.088 -0.088)">
       <use xlink:href="#ArialMT-31"/>
       <use xlink:href="#ArialMT-2e" x="55.615234"/>
       <use xlink:href="#ArialMT-30" x="83.398438"/>
      </g>
     </g>
    </g>
    <g id="text_14">
     <!-- $x_2$ -->
     <g style="fill: #262626" transform="translate(14.0715 163.552) rotate(-90) scale(0.096 -0.096)">
      <defs>
       <path id="DejaVuSans-32" d="M 1228 531 
L 3431 531 
L 3431 0 
L 469 0 
L 469 531 
Q 828 903 1448 1529 
Q 2069 2156 2228 2338 
Q 2531 2678 2651 2914 
Q 2772 3150 2772 3378 
Q 2772 3750 2511 3984 
Q 2250 4219 1831 4219 
Q 1534 4219 1204 4116 
Q 875 4013 500 3803 
L 500 4441 
Q 881 4594 1212 4672 
Q 1544 4750 1819 4750 
Q 2544 4750 2975 4387 
Q 3406 4025 3406 3419 
Q 3406 3131 3298 2873 
Q 3191 2616 2906 2266 
Q 2828 2175 2409 1742 
Q 1991 1309 1228 531 
z
" transform="scale(0.015625)"/>
      </defs>
      <use xlink:href="#DejaVuSans-Oblique-78" transform="translate(0 0.3125)"/>
      <use xlink:href="#DejaVuSans-32" transform="translate(59.179688 -16.09375) scale(0.7)"/>
     </g>
    </g>
   </g>
   <g id="QuadContourSet_1">
    <path d="M 49.7275 291.472 
L 58.032733 291.472 
L 49.7275 285.234843 
L 47.207669 282.887742 
L 40.5115 275.151819 
L 40.5115 282.887742 
L 40.5115 291.472 
z
M 316.9915 291.472 
L 326.2075 291.472 
L 326.2075 282.887742 
L 326.2075 275.151819 
L 319.511331 282.887742 
L 316.9915 285.234843 
L 308.686267 291.472 
z
M 47.207669 33.944258 
L 49.7275 31.597157 
L 58.032733 25.36 
L 49.7275 25.36 
L 40.5115 25.36 
L 40.5115 33.944258 
L 40.5115 41.680181 
z
M 326.2075 41.680181 
L 326.2075 33.944258 
L 326.2075 25.36 
L 316.9915 25.36 
L 308.686267 25.36 
L 316.9915 31.597157 
L 319.511331 33.944258 
z
" clip-path="url(#pf905e5c9d9)" style="fill: #180f29"/>
    <path d="M 49.7275 285.234843 
L 58.032733 291.472 
L 58.9435 291.472 
L 68.1595 291.472 
L 77.3755 291.472 
L 86.5915 291.472 
L 95.8075 291.472 
L 105.0235 291.472 
L 114.2395 291.472 
L 123.4555 291.472 
L 132.476078 291.472 
L 123.4555 289.901111 
L 114.2395 287.874468 
L 105.0235 285.324146 
L 97.926852 282.887742 
L 95.8075 282.101712 
L 86.5915 277.981117 
L 80.045617 274.303484 
L 77.3755 272.591354 
L 68.642371 265.719226 
L 68.1595 265.269454 
L 60.781631 257.134968 
L 58.9435 254.647883 
L 54.995219 248.55071 
L 50.571377 239.966452 
L 49.7275 237.992378 
L 47.111793 231.382194 
L 44.373785 222.797935 
L 42.197995 214.213677 
L 40.5115 205.811445 
L 40.5115 214.213677 
L 40.5115 222.797935 
L 40.5115 231.382194 
L 40.5115 239.966452 
L 40.5115 248.55071 
L 40.5115 257.134968 
L 40.5115 265.719226 
L 40.5115 274.303484 
L 40.5115 275.151819 
L 47.207669 282.887742 
z
M 243.2635 291.472 
L 252.4795 291.472 
L 261.6955 291.472 
L 270.9115 291.472 
L 280.1275 291.472 
L 289.3435 291.472 
L 298.5595 291.472 
L 307.7755 291.472 
L 308.686267 291.472 
L 316.9915 285.234843 
L 319.511331 282.887742 
L 326.2075 275.151819 
L 326.2075 274.303484 
L 326.2075 265.719226 
L 326.2075 257.134968 
L 326.2075 248.55071 
L 326.2075 239.966452 
L 326.2075 231.382194 
L 326.2075 222.797935 
L 326.2075 214.213677 
L 326.2075 205.811445 
L 324.521005 214.213677 
L 322.345215 222.797935 
L 319.607207 231.382194 
L 316.9915 237.992378 
L 316.147623 239.966452 
L 311.723781 248.55071 
L 307.7755 254.647883 
L 305.937369 257.134968 
L 298.5595 265.269454 
L 298.076629 265.719226 
L 289.3435 272.591354 
L 286.673383 274.303484 
L 280.1275 277.981117 
L 270.9115 282.101712 
L 268.792148 282.887742 
L 261.6955 285.324146 
L 252.4795 287.874468 
L 243.2635 289.901111 
L 234.242922 291.472 
z
M 42.197995 102.618323 
L 44.373785 94.034065 
L 47.111793 85.449806 
L 49.7275 78.839622 
L 50.571377 76.865548 
L 54.995219 68.28129 
L 58.9435 62.184117 
L 60.781631 59.697032 
L 68.1595 51.562546 
L 68.642371 51.112774 
L 77.3755 44.240646 
L 80.045617 42.528516 
L 86.5915 38.850883 
L 95.8075 34.730288 
L 97.926852 33.944258 
L 105.0235 31.507854 
L 114.2395 28.957532 
L 123.4555 26.930889 
L 132.476078 25.36 
L 123.4555 25.36 
L 114.2395 25.36 
L 105.0235 25.36 
L 95.8075 25.36 
L 86.5915 25.36 
L 77.3755 25.36 
L 68.1595 25.36 
L 58.9435 25.36 
L 58.032733 25.36 
L 49.7275 31.597157 
L 47.207669 33.944258 
L 40.5115 41.680181 
L 40.5115 42.528516 
L 40.5115 51.112774 
L 40.5115 59.697032 
L 40.5115 68.28129 
L 40.5115 76.865548 
L 40.5115 85.449806 
L 40.5115 94.034065 
L 40.5115 102.618323 
L 40.5115 111.020555 
z
M 326.2075 111.020555 
L 326.2075 102.618323 
L 326.2075 94.034065 
L 326.2075 85.449806 
L 326.2075 76.865548 
L 326.2075 68.28129 
L 326.2075 59.697032 
L 326.2075 51.112774 
L 326.2075 42.528516 
L 326.2075 41.680181 
L 319.511331 33.944258 
L 316.9915 31.597157 
L 308.686267 25.36 
L 307.7755 25.36 
L 298.5595 25.36 
L 289.3435 25.36 
L 280.1275 25.36 
L 270.9115 25.36 
L 261.6955 25.36 
L 252.4795 25.36 
L 243.2635 25.36 
L 234.242922 25.36 
L 243.2635 26.930889 
L 252.4795 28.957532 
L 261.6955 31.507854 
L 268.792148 33.944258 
L 270.9115 34.730288 
L 280.1275 38.850883 
L 286.673383 42.528516 
L 289.3435 44.240646 
L 298.076629 51.112774 
L 298.5595 51.562546 
L 305.937369 59.697032 
L 307.7755 62.184117 
L 311.723781 68.28129 
L 316.147623 76.865548 
L 316.9915 78.839622 
L 319.607207 85.449806 
L 322.345215 94.034065 
L 324.521005 102.618323 
z
" clip-path="url(#pf905e5c9d9)" style="fill: #481c48"/>
    <path d="M 105.0235 285.324146 
L 114.2395 287.874468 
L 123.4555 289.901111 
L 132.476078 291.472 
L 132.6715 291.472 
L 141.8875 291.472 
L 151.1035 291.472 
L 160.3195 291.472 
L 169.5355 291.472 
L 178.7515 291.472 
L 187.9675 291.472 
L 197.1835 291.472 
L 206.3995 291.472 
L 215.6155 291.472 
L 224.8315 291.472 
L 234.0475 291.472 
L 234.242922 291.472 
L 243.2635 289.901111 
L 252.4795 287.874468 
L 261.6955 285.324146 
L 268.792148 282.887742 
L 270.9115 282.101712 
L 280.1275 277.981117 
L 286.673383 274.303484 
L 289.3435 272.591354 
L 298.076629 265.719226 
L 298.5595 265.269454 
L 305.937369 257.134968 
L 307.7755 254.647883 
L 311.723781 248.55071 
L 316.147623 239.966452 
L 316.9915 237.992378 
L 319.607207 231.382194 
L 322.345215 222.797935 
L 324.521005 214.213677 
L 326.2075 205.811445 
L 326.2075 205.629419 
L 326.2075 197.045161 
L 326.2075 188.460903 
L 326.2075 179.876645 
L 326.2075 171.292387 
L 326.2075 162.708129 
L 326.2075 154.123871 
L 326.2075 145.539613 
L 326.2075 136.955355 
L 326.2075 128.371097 
L 326.2075 119.786839 
L 326.2075 111.202581 
L 326.2075 111.020555 
L 324.521005 102.618323 
L 322.345215 94.034065 
L 319.607207 85.449806 
L 316.9915 78.839622 
L 316.147623 76.865548 
L 311.723781 68.28129 
L 307.7755 62.184117 
L 305.937369 59.697032 
L 298.5595 51.562546 
L 298.076629 51.112774 
L 289.3435 44.240646 
L 286.673383 42.528516 
L 280.1275 38.850883 
L 270.9115 34.730288 
L 268.792148 33.944258 
L 261.6955 31.507854 
L 252.4795 28.957532 
L 243.2635 26.930889 
L 234.242922 25.36 
L 234.0475 25.36 
L 224.8315 25.36 
L 215.6155 25.36 
L 206.3995 25.36 
L 197.1835 25.36 
L 187.9675 25.36 
L 178.7515 25.36 
L 169.5355 25.36 
L 160.3195 25.36 
L 151.1035 25.36 
L 141.8875 25.36 
L 132.6715 25.36 
L 132.476078 25.36 
L 123.4555 26.930889 
L 114.2395 28.957532 
L 105.0235 31.507854 
L 97.926852 33.944258 
L 95.8075 34.730288 
L 86.5915 38.850883 
L 80.045617 42.528516 
L 77.3755 44.240646 
L 68.642371 51.112774 
L 68.1595 51.562546 
L 60.781631 59.697032 
L 58.9435 62.184117 
L 54.995219 68.28129 
L 50.571377 76.865548 
L 49.7275 78.839622 
L 47.111793 85.449806 
L 44.373785 94.034065 
L 42.197995 102.618323 
L 40.5115 111.020555 
L 40.5115 111.202581 
L 40.5115 119.786839 
L 40.5115 128.371097 
L 40.5115 136.955355 
L 40.5115 145.539613 
L 40.5115 154.123871 
L 40.5115 162.708129 
L 40.5115 171.292387 
L 40.5115 179.876645 
L 40.5115 188.460903 
L 40.5115 197.045161 
L 40.5115 205.629419 
L 40.5115 205.811445 
L 42.197995 214.213677 
L 44.373785 222.797935 
L 47.111793 231.382194 
L 49.7275 237.992378 
L 50.571377 239.966452 
L 54.995219 248.55071 
L 58.9435 254.647883 
L 60.781631 257.134968 
L 68.1595 265.269454 
L 68.642371 265.719226 
L 77.3755 272.591354 
L 80.045617 274.303484 
L 86.5915 277.981117 
L 95.8075 282.101712 
L 97.926852 282.887742 
z
M 138.090442 274.303484 
L 132.6715 273.142904 
L 123.4555 270.649616 
L 114.2395 267.498364 
L 109.96408 265.719226 
L 105.0235 263.423219 
L 95.8075 258.16732 
L 94.281142 257.134968 
L 86.5915 251.111362 
L 83.842401 248.55071 
L 77.3755 241.388181 
L 76.267174 239.966452 
L 70.624477 231.382194 
L 68.1595 226.780282 
L 66.249429 222.797935 
L 62.866267 214.213677 
L 60.189491 205.629419 
L 58.9435 200.581937 
L 58.126326 197.045161 
L 56.588856 188.460903 
L 55.48059 179.876645 
L 54.762102 171.292387 
L 54.408814 162.708129 
L 54.408814 154.123871 
L 54.762102 145.539613 
L 55.48059 136.955355 
L 56.588856 128.371097 
L 58.126326 119.786839 
L 58.9435 116.250063 
L 60.189491 111.202581 
L 62.866267 102.618323 
L 66.249429 94.034065 
L 68.1595 90.051718 
L 70.624477 85.449806 
L 76.267174 76.865548 
L 77.3755 75.443819 
L 83.842401 68.28129 
L 86.5915 65.720638 
L 94.281142 59.697032 
L 95.8075 58.66468 
L 105.0235 53.408781 
L 109.96408 51.112774 
L 114.2395 49.333636 
L 123.4555 46.182384 
L 132.6715 43.689096 
L 138.090442 42.528516 
L 141.8875 41.767358 
L 151.1035 40.335279 
L 160.3195 39.302983 
L 169.5355 38.633746 
L 178.7515 38.304676 
L 187.9675 38.304676 
L 197.1835 38.633746 
L 206.3995 39.302983 
L 215.6155 40.335279 
L 224.8315 41.767358 
L 228.628558 42.528516 
L 234.0475 43.689096 
L 243.2635 46.182384 
L 252.4795 49.333636 
L 256.75492 51.112774 
L 261.6955 53.408781 
L 270.9115 58.66468 
L 272.437858 59.697032 
L 280.1275 65.720638 
L 282.876599 68.28129 
L 289.3435 75.443819 
L 290.451826 76.865548 
L 296.094523 85.449806 
L 298.5595 90.051718 
L 300.469571 94.034065 
L 303.852733 102.618323 
L 306.529509 111.202581 
L 307.7755 116.250063 
L 308.592674 119.786839 
L 310.130144 128.371097 
L 311.23841 136.955355 
L 311.956898 145.539613 
L 312.310186 154.123871 
L 312.310186 162.708129 
L 311.956898 171.292387 
L 311.23841 179.876645 
L 310.130144 188.460903 
L 308.592674 197.045161 
L 307.7755 200.581937 
L 306.529509 205.629419 
L 303.852733 214.213677 
L 300.469571 222.797935 
L 298.5595 226.780282 
L 296.094523 231.382194 
L 290.451826 239.966452 
L 289.3435 241.388181 
L 282.876599 248.55071 
L 280.1275 251.111362 
L 272.437858 257.134968 
L 270.9115 258.16732 
L 261.6955 263.423219 
L 256.75492 265.719226 
L 252.4795 267.498364 
L 243.2635 270.649616 
L 234.0475 273.142904 
L 228.628558 274.303484 
L 224.8315 275.064642 
L 215.6155 276.496721 
L 206.3995 277.529017 
L 197.1835 278.198254 
L 187.9675 278.527324 
L 178.7515 278.527324 
L 169.5355 278.198254 
L 160.3195 277.529017 
L 151.1035 276.496721 
L 141.8875 275.064642 
z
" clip-path="url(#pf905e5c9d9)" style="fill: #7b1f59"/>
    <path d="M 141.8875 275.064642 
L 151.1035 276.496721 
L 160.3195 277.529017 
L 169.5355 278.198254 
L 178.7515 278.527324 
L 187.9675 278.527324 
L 197.1835 278.198254 
L 206.3995 277.529017 
L 215.6155 276.496721 
L 224.8315 275.064642 
L 228.628558 274.303484 
L 234.0475 273.142904 
L 243.2635 270.649616 
L 252.4795 267.498364 
L 256.75492 265.719226 
L 261.6955 263.423219 
L 270.9115 258.16732 
L 272.437858 257.134968 
L 280.1275 251.111362 
L 282.876599 248.55071 
L 289.3435 241.388181 
L 290.451826 239.966452 
L 296.094523 231.382194 
L 298.5595 226.780282 
L 300.469571 222.797935 
L 303.852733 214.213677 
L 306.529509 205.629419 
L 307.7755 200.581937 
L 308.592674 197.045161 
L 310.130144 188.460903 
L 311.23841 179.876645 
L 311.956898 171.292387 
L 312.310186 162.708129 
L 312.310186 154.123871 
L 311.956898 145.539613 
L 311.23841 136.955355 
L 310.130144 128.371097 
L 308.592674 119.786839 
L 307.7755 116.250063 
L 306.529509 111.202581 
L 303.852733 102.618323 
L 300.469571 94.034065 
L 298.5595 90.051718 
L 296.094523 85.449806 
L 290.451826 76.865548 
L 289.3435 75.443819 
L 282.876599 68.28129 
L 280.1275 65.720638 
L 272.437858 59.697032 
L 270.9115 58.66468 
L 261.6955 53.408781 
L 256.75492 51.112774 
L 252.4795 49.333636 
L 243.2635 46.182384 
L 234.0475 43.689096 
L 228.628558 42.528516 
L 224.8315 41.767358 
L 215.6155 40.335279 
L 206.3995 39.302983 
L 197.1835 38.633746 
L 187.9675 38.304676 
L 178.7515 38.304676 
L 169.5355 38.633746 
L 160.3195 39.302983 
L 151.1035 40.335279 
L 141.8875 41.767358 
L 138.090442 42.528516 
L 132.6715 43.689096 
L 123.4555 46.182384 
L 114.2395 49.333636 
L 109.96408 51.112774 
L 105.0235 53.408781 
L 95.8075 58.66468 
L 94.281142 59.697032 
L 86.5915 65.720638 
L 83.842401 68.28129 
L 77.3755 75.443819 
L 76.267174 76.865548 
L 70.624477 85.449806 
L 68.1595 90.051718 
L 66.249429 94.034065 
L 62.866267 102.618323 
L 60.189491 111.202581 
L 58.9435 116.250063 
L 58.126326 119.786839 
L 56.588856 128.371097 
L 55.48059 136.955355 
L 54.762102 145.539613 
L 54.408814 154.123871 
L 54.408814 162.708129 
L 54.762102 171.292387 
L 55.48059 179.876645 
L 56.588856 188.460903 
L 58.126326 197.045161 
L 58.9435 200.581937 
L 60.189491 205.629419 
L 62.866267 214.213677 
L 66.249429 222.797935 
L 68.1595 226.780282 
L 70.624477 231.382194 
L 76.267174 239.966452 
L 77.3755 241.388181 
L 83.842401 248.55071 
L 86.5915 251.111362 
L 94.281142 257.134968 
L 95.8075 258.16732 
L 105.0235 263.423219 
L 109.96408 265.719226 
L 114.2395 267.498364 
L 123.4555 270.649616 
L 132.6715 273.142904 
L 138.090442 274.303484 
z
M 145.372188 257.134968 
L 141.8875 256.288977 
L 132.6715 253.3918 
L 123.4555 249.67976 
L 121.149347 248.55071 
L 114.2395 244.720925 
L 107.230702 239.966452 
L 105.0235 238.234162 
L 97.667274 231.382194 
L 95.8075 229.326291 
L 90.703131 222.797935 
L 86.5915 216.361747 
L 85.379359 214.213677 
L 81.394139 205.629419 
L 78.28375 197.045161 
L 77.3755 193.799343 
L 76.008427 188.460903 
L 74.407264 179.876645 
L 73.369232 171.292387 
L 72.85882 162.708129 
L 72.85882 154.123871 
L 73.369232 145.539613 
L 74.407264 136.955355 
L 76.008427 128.371097 
L 77.3755 123.032657 
L 78.28375 119.786839 
L 81.394139 111.202581 
L 85.379359 102.618323 
L 86.5915 100.470253 
L 90.703131 94.034065 
L 95.8075 87.505709 
L 97.667274 85.449806 
L 105.0235 78.597838 
L 107.230702 76.865548 
L 114.2395 72.111075 
L 121.149347 68.28129 
L 123.4555 67.15224 
L 132.6715 63.4402 
L 141.8875 60.543023 
L 145.372188 59.697032 
L 151.1035 58.42367 
L 160.3195 56.932264 
L 169.5355 55.965388 
L 178.7515 55.489964 
L 187.9675 55.489964 
L 197.1835 55.965388 
L 206.3995 56.932264 
L 215.6155 58.42367 
L 221.346812 59.697032 
L 224.8315 60.543023 
L 234.0475 63.4402 
L 243.2635 67.15224 
L 245.569653 68.28129 
L 252.4795 72.111075 
L 259.488298 76.865548 
L 261.6955 78.597838 
L 269.051726 85.449806 
L 270.9115 87.505709 
L 276.015869 94.034065 
L 280.1275 100.470253 
L 281.339641 102.618323 
L 285.324861 111.202581 
L 288.43525 119.786839 
L 289.3435 123.032657 
L 290.710573 128.371097 
L 292.311736 136.955355 
L 293.349768 145.539613 
L 293.86018 154.123871 
L 293.86018 162.708129 
L 293.349768 171.292387 
L 292.311736 179.876645 
L 290.710573 188.460903 
L 289.3435 193.799343 
L 288.43525 197.045161 
L 285.324861 205.629419 
L 281.339641 214.213677 
L 280.1275 216.361747 
L 276.015869 222.797935 
L 270.9115 229.326291 
L 269.051726 231.382194 
L 261.6955 238.234162 
L 259.488298 239.966452 
L 252.4795 244.720925 
L 245.569653 248.55071 
L 243.2635 249.67976 
L 234.0475 253.3918 
L 224.8315 256.288977 
L 221.346812 257.134968 
L 215.6155 258.40833 
L 206.3995 259.899736 
L 197.1835 260.866612 
L 187.9675 261.342036 
L 178.7515 261.342036 
L 169.5355 260.866612 
L 160.3195 259.899736 
L 151.1035 258.40833 
z
" clip-path="url(#pf905e5c9d9)" style="fill: #b21758"/>
    <path d="M 151.1035 258.40833 
L 160.3195 259.899736 
L 169.5355 260.866612 
L 178.7515 261.342036 
L 187.9675 261.342036 
L 197.1835 260.866612 
L 206.3995 259.899736 
L 215.6155 258.40833 
L 221.346812 257.134968 
L 224.8315 256.288977 
L 234.0475 253.3918 
L 243.2635 249.67976 
L 245.569653 248.55071 
L 252.4795 244.720925 
L 259.488298 239.966452 
L 261.6955 238.234162 
L 269.051726 231.382194 
L 270.9115 229.326291 
L 276.015869 222.797935 
L 280.1275 216.361747 
L 281.339641 214.213677 
L 285.324861 205.629419 
L 288.43525 197.045161 
L 289.3435 193.799343 
L 290.710573 188.460903 
L 292.311736 179.876645 
L 293.349768 171.292387 
L 293.86018 162.708129 
L 293.86018 154.123871 
L 293.349768 145.539613 
L 292.311736 136.955355 
L 290.710573 128.371097 
L 289.3435 123.032657 
L 288.43525 119.786839 
L 285.324861 111.202581 
L 281.339641 102.618323 
L 280.1275 100.470253 
L 276.015869 94.034065 
L 270.9115 87.505709 
L 269.051726 85.449806 
L 261.6955 78.597838 
L 259.488298 76.865548 
L 252.4795 72.111075 
L 245.569653 68.28129 
L 243.2635 67.15224 
L 234.0475 63.4402 
L 224.8315 60.543023 
L 221.346812 59.697032 
L 215.6155 58.42367 
L 206.3995 56.932264 
L 197.1835 55.965388 
L 187.9675 55.489964 
L 178.7515 55.489964 
L 169.5355 55.965388 
L 160.3195 56.932264 
L 151.1035 58.42367 
L 145.372188 59.697032 
L 141.8875 60.543023 
L 132.6715 63.4402 
L 123.4555 67.15224 
L 121.149347 68.28129 
L 114.2395 72.111075 
L 107.230702 76.865548 
L 105.0235 78.597838 
L 97.667274 85.449806 
L 95.8075 87.505709 
L 90.703131 94.034065 
L 86.5915 100.470253 
L 85.379359 102.618323 
L 81.394139 111.202581 
L 78.28375 119.786839 
L 77.3755 123.032657 
L 76.008427 128.371097 
L 74.407264 136.955355 
L 73.369232 145.539613 
L 72.85882 154.123871 
L 72.85882 162.708129 
L 73.369232 171.292387 
L 74.407264 179.876645 
L 76.008427 188.460903 
L 77.3755 193.799343 
L 78.28375 197.045161 
L 81.394139 205.629419 
L 85.379359 214.213677 
L 86.5915 216.361747 
L 90.703131 222.797935 
L 95.8075 229.326291 
L 97.667274 231.382194 
L 105.0235 238.234162 
L 107.230702 239.966452 
L 114.2395 244.720925 
L 121.149347 248.55071 
L 123.4555 249.67976 
L 132.6715 253.3918 
L 141.8875 256.288977 
L 145.372188 257.134968 
z
M 160.22496 239.966452 
L 151.1035 237.671446 
L 141.8875 234.4553 
L 135.137214 231.382194 
L 132.6715 230.09935 
L 123.4555 224.109942 
L 121.788732 222.797935 
L 114.2395 215.766191 
L 112.830939 214.213677 
L 106.400752 205.629419 
L 105.0235 203.332726 
L 101.724234 197.045161 
L 98.271402 188.460903 
L 95.8075 179.964705 
L 95.784495 179.876645 
L 94.301339 171.292387 
L 93.572054 162.708129 
L 93.572054 154.123871 
L 94.301339 145.539613 
L 95.784495 136.955355 
L 95.8075 136.867295 
L 98.271402 128.371097 
L 101.724234 119.786839 
L 105.0235 113.499274 
L 106.400752 111.202581 
L 112.830939 102.618323 
L 114.2395 101.065809 
L 121.788732 94.034065 
L 123.4555 92.722058 
L 132.6715 86.73265 
L 135.137214 85.449806 
L 141.8875 82.3767 
L 151.1035 79.160554 
L 160.22496 76.865548 
L 160.3195 76.84412 
L 169.5355 75.462632 
L 178.7515 74.783339 
L 187.9675 74.783339 
L 197.1835 75.462632 
L 206.3995 76.84412 
L 206.49404 76.865548 
L 215.6155 79.160554 
L 224.8315 82.3767 
L 231.581786 85.449806 
L 234.0475 86.73265 
L 243.2635 92.722058 
L 244.930268 94.034065 
L 252.4795 101.065809 
L 253.888061 102.618323 
L 260.318248 111.202581 
L 261.6955 113.499274 
L 264.994766 119.786839 
L 268.447598 128.371097 
L 270.9115 136.867295 
L 270.934505 136.955355 
L 272.417661 145.539613 
L 273.146946 154.123871 
L 273.146946 162.708129 
L 272.417661 171.292387 
L 270.934505 179.876645 
L 270.9115 179.964705 
L 268.447598 188.460903 
L 264.994766 197.045161 
L 261.6955 203.332726 
L 260.318248 205.629419 
L 253.888061 214.213677 
L 252.4795 215.766191 
L 244.930268 222.797935 
L 243.2635 224.109942 
L 234.0475 230.09935 
L 231.581786 231.382194 
L 224.8315 234.4553 
L 215.6155 237.671446 
L 206.49404 239.966452 
L 206.3995 239.98788 
L 197.1835 241.369368 
L 187.9675 242.048661 
L 178.7515 242.048661 
L 169.5355 241.369368 
L 160.3195 239.98788 
z
" clip-path="url(#pf905e5c9d9)" style="fill: #df2f44"/>
    <path d="M 160.3195 239.98788 
L 169.5355 241.369368 
L 178.7515 242.048661 
L 187.9675 242.048661 
L 197.1835 241.369368 
L 206.3995 239.98788 
L 206.49404 239.966452 
L 215.6155 237.671446 
L 224.8315 234.4553 
L 231.581786 231.382194 
L 234.0475 230.09935 
L 243.2635 224.109942 
L 244.930268 222.797935 
L 252.4795 215.766191 
L 253.888061 214.213677 
L 260.318248 205.629419 
L 261.6955 203.332726 
L 264.994766 197.045161 
L 268.447598 188.460903 
L 270.9115 179.964705 
L 270.934505 179.876645 
L 272.417661 171.292387 
L 273.146946 162.708129 
L 273.146946 154.123871 
L 272.417661 145.539613 
L 270.934505 136.955355 
L 270.9115 136.867295 
L 268.447598 128.371097 
L 264.994766 119.786839 
L 261.6955 113.499274 
L 260.318248 111.202581 
L 253.888061 102.618323 
L 252.4795 101.065809 
L 244.930268 94.034065 
L 243.2635 92.722058 
L 234.0475 86.73265 
L 231.581786 85.449806 
L 224.8315 82.3767 
L 215.6155 79.160554 
L 206.49404 76.865548 
L 206.3995 76.84412 
L 197.1835 75.462632 
L 187.9675 74.783339 
L 178.7515 74.783339 
L 169.5355 75.462632 
L 160.3195 76.84412 
L 160.22496 76.865548 
L 151.1035 79.160554 
L 141.8875 82.3767 
L 135.137214 85.449806 
L 132.6715 86.73265 
L 123.4555 92.722058 
L 121.788732 94.034065 
L 114.2395 101.065809 
L 112.830939 102.618323 
L 106.400752 111.202581 
L 105.0235 113.499274 
L 101.724234 119.786839 
L 98.271402 128.371097 
L 95.8075 136.867295 
L 95.784495 136.955355 
L 94.301339 145.539613 
L 93.572054 154.123871 
L 93.572054 162.708129 
L 94.301339 171.292387 
L 95.784495 179.876645 
L 95.8075 179.964705 
L 98.271402 188.460903 
L 101.724234 197.045161 
L 105.0235 203.332726 
L 106.400752 205.629419 
L 112.830939 214.213677 
L 114.2395 215.766191 
L 121.788732 222.797935 
L 123.4555 224.109942 
L 132.6715 230.09935 
L 135.137214 231.382194 
L 141.8875 234.4553 
L 151.1035 237.671446 
L 160.22496 239.966452 
z
M 158.589619 214.213677 
L 151.1035 210.979411 
L 142.136967 205.629419 
L 141.8875 205.448093 
L 132.86617 197.045161 
L 132.6715 196.812795 
L 126.927786 188.460903 
L 123.4555 181.487945 
L 122.771542 179.876645 
L 120.370231 171.292387 
L 119.18948 162.708129 
L 119.18948 154.123871 
L 120.370231 145.539613 
L 122.771542 136.955355 
L 123.4555 135.344055 
L 126.927786 128.371097 
L 132.6715 120.019205 
L 132.86617 119.786839 
L 141.8875 111.383907 
L 142.136967 111.202581 
L 151.1035 105.852589 
L 158.589619 102.618323 
L 160.3195 101.981249 
L 169.5355 99.744544 
L 178.7515 98.644732 
L 187.9675 98.644732 
L 197.1835 99.744544 
L 206.3995 101.981249 
L 208.129381 102.618323 
L 215.6155 105.852589 
L 224.582033 111.202581 
L 224.8315 111.383907 
L 233.85283 119.786839 
L 234.0475 120.019205 
L 239.791214 128.371097 
L 243.2635 135.344055 
L 243.947458 136.955355 
L 246.348769 145.539613 
L 247.52952 154.123871 
L 247.52952 162.708129 
L 246.348769 171.292387 
L 243.947458 179.876645 
L 243.2635 181.487945 
L 239.791214 188.460903 
L 234.0475 196.812795 
L 233.85283 197.045161 
L 224.8315 205.448093 
L 224.582033 205.629419 
L 215.6155 210.979411 
L 208.129381 214.213677 
L 206.3995 214.850751 
L 197.1835 217.087456 
L 187.9675 218.187268 
L 178.7515 218.187268 
L 169.5355 217.087456 
L 160.3195 214.850751 
z
" clip-path="url(#pf905e5c9d9)" style="fill: #f26b49"/>
    <path d="M 160.3195 214.850751 
L 169.5355 217.087456 
L 178.7515 218.187268 
L 187.9675 218.187268 
L 197.1835 217.087456 
L 206.3995 214.850751 
L 208.129381 214.213677 
L 215.6155 210.979411 
L 224.582033 205.629419 
L 224.8315 205.448093 
L 233.85283 197.045161 
L 234.0475 196.812795 
L 239.791214 188.460903 
L 243.2635 181.487945 
L 243.947458 179.876645 
L 246.348769 171.292387 
L 247.52952 162.708129 
L 247.52952 154.123871 
L 246.348769 145.539613 
L 243.947458 136.955355 
L 243.2635 135.344055 
L 239.791214 128.371097 
L 234.0475 120.019205 
L 233.85283 119.786839 
L 224.8315 111.383907 
L 224.582033 111.202581 
L 215.6155 105.852589 
L 208.129381 102.618323 
L 206.3995 101.981249 
L 197.1835 99.744544 
L 187.9675 98.644732 
L 178.7515 98.644732 
L 169.5355 99.744544 
L 160.3195 101.981249 
L 158.589619 102.618323 
L 151.1035 105.852589 
L 142.136967 111.202581 
L 141.8875 111.383907 
L 132.86617 119.786839 
L 132.6715 120.019205 
L 126.927786 128.371097 
L 123.4555 135.344055 
L 122.771542 136.955355 
L 120.370231 145.539613 
L 119.18948 154.123871 
L 119.18948 162.708129 
L 120.370231 171.292387 
L 122.771542 179.876645 
L 123.4555 181.487945 
L 126.927786 188.460903 
L 132.6715 196.812795 
L 132.86617 197.045161 
L 141.8875 205.448093 
L 142.136967 205.629419 
L 151.1035 210.979411 
L 158.589619 214.213677 
z
M 168.614004 171.292387 
L 164.027891 162.708129 
L 164.027891 154.123871 
L 168.614004 145.539613 
L 169.5355 144.681284 
L 178.7515 140.409541 
L 187.9675 140.409541 
L 197.1835 144.681284 
L 198.104996 145.539613 
L 202.691109 154.123871 
L 202.691109 162.708129 
L 198.104996 171.292387 
L 197.1835 172.150716 
L 187.9675 176.422459 
L 178.7515 176.422459 
L 169.5355 172.150716 
z
" clip-path="url(#pf905e5c9d9)" style="fill: #f6a37a"/>
    <path d="M 169.5355 172.150716 
L 178.7515 176.422459 
L 187.9675 176.422459 
L 197.1835 172.150716 
L 198.104996 171.292387 
L 202.691109 162.708129 
L 202.691109 154.123871 
L 198.104996 145.539613 
L 197.1835 144.681284 
L 187.9675 140.409541 
L 178.7515 140.409541 
L 169.5355 144.681284 
L 168.614004 145.539613 
L 164.027891 154.123871 
L 164.027891 162.708129 
L 168.614004 171.292387 
z
" clip-path="url(#pf905e5c9d9)" style="fill: #f8d4bc"/>
   </g>
   <g id="patch_3">
    <path d="M 40.5115 291.472 
L 40.5115 25.36 
" style="fill: none; stroke: #262626; stroke-linejoin: miter; stroke-linecap: square"/>
   </g>
   <g id="patch_4">
    <path d="M 40.5115 291.472 
L 326.2075 291.472 
" style="fill: none; stroke: #262626; stroke-linejoin: miter; stroke-linecap: square"/>
   </g>
   <g id="text_15">
    <!-- $\phi_0$ -->
    <g style="fill: #262626" transform="translate(174.2395 19.36) scale(0.16 -0.16)">
     <defs>
      <path id="DejaVuSans-Oblique-3d5" d="M 2991 4863 
L 2738 3572 
Q 3363 3572 3684 3094 
Q 4016 2606 3850 1747 
Q 3681 888 3159 400 
Q 2653 -78 2028 -78 
L 1784 -1331 
L 1213 -1331 
L 1456 -78 
Q 834 -78 509 400 
Q 178 888 347 1747 
Q 513 2606 1034 3094 
Q 1544 3572 2166 3572 
L 2419 4863 
L 2991 4863 
z
M 2128 434 
Q 2481 434 2784 756 
Q 3116 1116 3244 1747 
Q 3369 2372 3169 2738 
Q 2991 3059 2638 3059 
L 2128 434 
z
M 1556 434 
L 2066 3059 
Q 1716 3059 1413 2738 
Q 1072 2372 953 1747 
Q 834 1116 1028 756 
Q 1203 434 1556 434 
z
" transform="scale(0.015625)"/>
      <path id="DejaVuSans-30" d="M 2034 4250 
Q 1547 4250 1301 3770 
Q 1056 3291 1056 2328 
Q 1056 1369 1301 889 
Q 1547 409 2034 409 
Q 2525 409 2770 889 
Q 3016 1369 3016 2328 
Q 3016 3291 2770 3770 
Q 2525 4250 2034 4250 
z
M 2034 4750 
Q 2819 4750 3233 4129 
Q 3647 3509 3647 2328 
Q 3647 1150 3233 529 
Q 2819 -91 2034 -91 
Q 1250 -91 836 529 
Q 422 1150 422 2328 
Q 422 3509 836 4129 
Q 1250 4750 2034 4750 
z
" transform="scale(0.015625)"/>
     </defs>
     <use xlink:href="#DejaVuSans-Oblique-3d5" transform="translate(0 0.015625)"/>
     <use xlink:href="#DejaVuSans-30" transform="translate(65.966797 -16.390625) scale(0.7)"/>
    </g>
   </g>
  </g>
  <g id="axes_2">
   <g id="patch_5">
    <path d="M 344.0635 291.472 
L 357.3691 291.472 
L 357.3691 25.36 
L 344.0635 25.36 
z
" style="fill: #ffffff"/>
   </g>
   <g id="matplotlib.axis_3"/>
   <g id="matplotlib.axis_4">
    <g id="ytick_7">
     <g id="line2d_13">
      <defs>
       <path id="mebfbc0c05f" d="M 0 0 
L 4.8 0 
" style="stroke: #262626"/>
      </defs>
      <g>
       <use xlink:href="#mebfbc0c05f" x="357.3691" y="291.472" style="fill: #262626; stroke: #262626"/>
      </g>
     </g>
     <g id="text_16">
      <!-- 0.00 -->
      <g style="fill: #262626" transform="translate(365.6691 294.621437) scale(0.088 -0.088)">
       <use xlink:href="#ArialMT-30"/>
       <use xlink:href="#ArialMT-2e" x="55.615234"/>
       <use xlink:href="#ArialMT-30" x="83.398438"/>
       <use xlink:href="#ArialMT-30" x="139.013672"/>
      </g>
     </g>
    </g>
    <g id="ytick_8">
     <g id="line2d_14">
      <g>
       <use xlink:href="#mebfbc0c05f" x="357.3691" y="258.208" style="fill: #262626; stroke: #262626"/>
      </g>
     </g>
     <g id="text_17">
      <!-- 0.25 -->
      <g style="fill: #262626" transform="translate(365.6691 261.357437) scale(0.088 -0.088)">
       <defs>
        <path id="ArialMT-35" d="M 266 1200 
L 856 1250 
Q 922 819 1161 601 
Q 1400 384 1738 384 
Q 2144 384 2425 690 
Q 2706 997 2706 1503 
Q 2706 1984 2436 2262 
Q 2166 2541 1728 2541 
Q 1456 2541 1237 2417 
Q 1019 2294 894 2097 
L 366 2166 
L 809 4519 
L 3088 4519 
L 3088 3981 
L 1259 3981 
L 1013 2750 
Q 1425 3038 1878 3038 
Q 2478 3038 2890 2622 
Q 3303 2206 3303 1553 
Q 3303 931 2941 478 
Q 2500 -78 1738 -78 
Q 1113 -78 717 272 
Q 322 622 266 1200 
z
" transform="scale(0.015625)"/>
       </defs>
       <use xlink:href="#ArialMT-30"/>
       <use xlink:href="#ArialMT-2e" x="55.615234"/>
       <use xlink:href="#ArialMT-32" x="83.398438"/>
       <use xlink:href="#ArialMT-35" x="139.013672"/>
      </g>
     </g>
    </g>
    <g id="ytick_9">
     <g id="line2d_15">
      <g>
       <use xlink:href="#mebfbc0c05f" x="357.3691" y="224.944" style="fill: #262626; stroke: #262626"/>
      </g>
     </g>
     <g id="text_18">
      <!-- 0.50 -->
      <g style="fill: #262626" transform="translate(365.6691 228.093437) scale(0.088 -0.088)">
       <use xlink:href="#ArialMT-30"/>
       <use xlink:href="#ArialMT-2e" x="55.615234"/>
       <use xlink:href="#ArialMT-35" x="83.398438"/>
       <use xlink:href="#ArialMT-30" x="139.013672"/>
      </g>
     </g>
    </g>
    <g id="ytick_10">
     <g id="line2d_16">
      <g>
       <use xlink:href="#mebfbc0c05f" x="357.3691" y="191.68" style="fill: #262626; stroke: #262626"/>
      </g>
     </g>
     <g id="text_19">
      <!-- 0.75 -->
      <g style="fill: #262626" transform="translate(365.6691 194.829437) scale(0.088 -0.088)">
       <defs>
        <path id="ArialMT-37" d="M 303 3981 
L 303 4522 
L 3269 4522 
L 3269 4084 
Q 2831 3619 2401 2847 
Q 1972 2075 1738 1259 
Q 1569 684 1522 0 
L 944 0 
Q 953 541 1156 1306 
Q 1359 2072 1739 2783 
Q 2119 3494 2547 3981 
L 303 3981 
z
" transform="scale(0.015625)"/>
       </defs>
       <use xlink:href="#ArialMT-30"/>
       <use xlink:href="#ArialMT-2e" x="55.615234"/>
       <use xlink:href="#ArialMT-37" x="83.398438"/>
       <use xlink:href="#ArialMT-35" x="139.013672"/>
      </g>
     </g>
    </g>
    <g id="ytick_11">
     <g id="line2d_17">
      <g>
       <use xlink:href="#mebfbc0c05f" x="357.3691" y="158.416" style="fill: #262626; stroke: #262626"/>
      </g>
     </g>
     <g id="text_20">
      <!-- 1.00 -->
      <g style="fill: #262626" transform="translate(365.6691 161.565437) scale(0.088 -0.088)">
       <use xlink:href="#ArialMT-31"/>
       <use xlink:href="#ArialMT-2e" x="55.615234"/>
       <use xlink:href="#ArialMT-30" x="83.398438"/>
       <use xlink:href="#ArialMT-30" x="139.013672"/>
      </g>
     </g>
    </g>
    <g id="ytick_12">
     <g id="line2d_18">
      <g>
       <use xlink:href="#mebfbc0c05f" x="357.3691" y="125.152" style="fill: #262626; stroke: #262626"/>
      </g>
     </g>
     <g id="text_21">
      <!-- 1.25 -->
      <g style="fill: #262626" transform="translate(365.6691 128.301437) scale(0.088 -0.088)">
       <use xlink:href="#ArialMT-31"/>
       <use xlink:href="#ArialMT-2e" x="55.615234"/>
       <use xlink:href="#ArialMT-32" x="83.398438"/>
       <use xlink:href="#ArialMT-35" x="139.013672"/>
      </g>
     </g>
    </g>
    <g id="ytick_13">
     <g id="line2d_19">
      <g>
       <use xlink:href="#mebfbc0c05f" x="357.3691" y="91.888" style="fill: #262626; stroke: #262626"/>
      </g>
     </g>
     <g id="text_22">
      <!-- 1.50 -->
      <g style="fill: #262626" transform="translate(365.6691 95.037437) scale(0.088 -0.088)">
       <use xlink:href="#ArialMT-31"/>
       <use xlink:href="#ArialMT-2e" x="55.615234"/>
       <use xlink:href="#ArialMT-35" x="83.398438"/>
       <use xlink:href="#ArialMT-30" x="139.013672"/>
      </g>
     </g>
    </g>
    <g id="ytick_14">
     <g id="line2d_20">
      <g>
       <use xlink:href="#mebfbc0c05f" x="357.3691" y="58.624" style="fill: #262626; stroke: #262626"/>
      </g>
     </g>
     <g id="text_23">
      <!-- 1.75 -->
      <g style="fill: #262626" transform="translate(365.6691 61.773437) scale(0.088 -0.088)">
       <use xlink:href="#ArialMT-31"/>
       <use xlink:href="#ArialMT-2e" x="55.615234"/>
       <use xlink:href="#ArialMT-37" x="83.398438"/>
       <use xlink:href="#ArialMT-35" x="139.013672"/>
      </g>
     </g>
    </g>
    <g id="ytick_15">
     <g id="line2d_21">
      <g>
       <use xlink:href="#mebfbc0c05f" x="357.3691" y="25.36" style="fill: #262626; stroke: #262626"/>
      </g>
     </g>
     <g id="text_24">
      <!-- 2.00 -->
      <g style="fill: #262626" transform="translate(365.6691 28.509437) scale(0.088 -0.088)">
       <use xlink:href="#ArialMT-32"/>
       <use xlink:href="#ArialMT-2e" x="55.615234"/>
       <use xlink:href="#ArialMT-30" x="83.398438"/>
       <use xlink:href="#ArialMT-30" x="139.013672"/>
      </g>
     </g>
    </g>
   </g>
   <g id="QuadMesh_1">
    <path d="M 344.0635 291.472 
L 357.3691 291.472 
L 357.3691 258.208 
L 344.0635 258.208 
L 344.0635 291.472 
" clip-path="url(#p1b72eb65f3)" style="fill: #180f29"/>
    <path d="M 344.0635 258.208 
L 357.3691 258.208 
L 357.3691 224.944 
L 344.0635 224.944 
L 344.0635 258.208 
" clip-path="url(#p1b72eb65f3)" style="fill: #481c48"/>
    <path d="M 344.0635 224.944 
L 357.3691 224.944 
L 357.3691 191.68 
L 344.0635 191.68 
L 344.0635 224.944 
" clip-path="url(#p1b72eb65f3)" style="fill: #7b1f59"/>
    <path d="M 344.0635 191.68 
L 357.3691 191.68 
L 357.3691 158.416 
L 344.0635 158.416 
L 344.0635 191.68 
" clip-path="url(#p1b72eb65f3)" style="fill: #b21758"/>
    <path d="M 344.0635 158.416 
L 357.3691 158.416 
L 357.3691 125.152 
L 344.0635 125.152 
L 344.0635 158.416 
" clip-path="url(#p1b72eb65f3)" style="fill: #df2f44"/>
    <path d="M 344.0635 125.152 
L 357.3691 125.152 
L 357.3691 91.888 
L 344.0635 91.888 
L 344.0635 125.152 
" clip-path="url(#p1b72eb65f3)" style="fill: #f26b49"/>
    <path d="M 344.0635 91.888 
L 357.3691 91.888 
L 357.3691 58.624 
L 344.0635 58.624 
L 344.0635 91.888 
" clip-path="url(#p1b72eb65f3)" style="fill: #f6a37a"/>
    <path d="M 344.0635 58.624 
L 357.3691 58.624 
L 357.3691 25.36 
L 344.0635 25.36 
L 344.0635 58.624 
" clip-path="url(#p1b72eb65f3)" style="fill: #f8d4bc"/>
   </g>
   <g id="LineCollection_1"/>
   <g id="patch_6">
    <path d="M 344.0635 291.472 
L 344.0635 25.36 
" style="fill: none; stroke: #262626; stroke-linejoin: miter; stroke-linecap: square"/>
   </g>
   <g id="patch_7">
    <path d="M 344.0635 291.472 
L 357.3691 291.472 
" style="fill: none; stroke: #262626; stroke-linejoin: miter; stroke-linecap: square"/>
   </g>
   <g id="patch_8">
    <path d="M 344.0635 291.472 
L 350.7163 291.472 
L 357.3691 291.472 
L 357.3691 25.36 
L 350.7163 25.36 
L 344.0635 25.36 
L 344.0635 291.472 
z
" style="fill: none; stroke: #262626; stroke-linejoin: miter; stroke-linecap: square"/>
   </g>
  </g>
 </g>
 <defs>
  <clipPath id="pf905e5c9d9">
   <rect x="40.5115" y="25.36" width="285.696" height="266.112"/>
  </clipPath>
  <clipPath id="p1b72eb65f3">
   <rect x="344.0635" y="25.36" width="13.3056" height="266.112"/>
  </clipPath>
 </defs>
</svg>