<?xml version="1.0" encoding="utf-8" standalone="no"?>
<!DOCTYPE svg PUBLIC "-//W3C//DTD SVG 1.1//EN"
  "http://www.w3.org/Graphics/SVG/1.1/DTD/svg11.dtd">
<svg xmlns:xlink="http://www.w3.org/1999/xlink" width="218.481375pt" height="210.363875pt" viewBox="0 0 218.481375 210.363875" xmlns="http://www.w3.org/2000/svg" version="1.1">
 <metadata>
  <rdf:RDF xmlns:dc="http://purl.org/dc/elements/1.1/" xmlns:cc="http://creativecommons.org/ns#" xmlns:rdf="http://www.w3.org/1999/02/22-rdf-syntax-ns#">
   <cc:Work>
    <dc:type rdf:resource="http://purl.org/dc/dcmitype/StillImage"/>
    <dc:date>2024-01-22T16:18:21.342675</dc:date>
    <dc:format>image/svg+xml</dc:format>
    <dc:creator>
     <cc:Agent>
      <dc:title>Matplotlib v3.8.0, https://matplotlib.org/</dc:title>
     </cc:Agent>
    </dc:creator>
   </cc:Work>
  </rdf:RDF>
 </metadata>
 <defs>
  <style type="text/css">*{stroke-linejoin: round; stroke-linecap: butt}</style>
 </defs>
 <g id="figure_1">
  <g id="patch_1">
   <path d="M 0 210.363875 
L 218.481375 210.363875 
L 218.481375 0 
L 0 0 
z
" style="fill: #ffffff"/>
  </g>
  <g id="axes_1">
   <g id="patch_2">
    <path d="M 37.765375 186.816 
L 205.165375 186.816 
L 205.165375 20.496 
L 37.765375 20.496 
z
" style="fill: #ffffff"/>
   </g>
   <g id="matplotlib.axis_1">
    <g id="xtick_1">
     <g id="line2d_1">
      <defs>
       <path id="m6cff597b4f" d="M 0 0 
L 0 4.8 
" style="stroke: #262626"/>
      </defs>
      <g>
       <use xlink:href="#m6cff597b4f" x="37.765375" y="186.816" style="fill: #262626; stroke: #262626"/>
      </g>
     </g>
     <g id="text_1">
      <!-- −1.0 -->
      <g style="fill: #262626" transform="translate(29.0795 201.414875) scale(0.088 -0.088)">
       <defs>
        <path id="ArialMT-2212" d="M 3381 1997 
L 356 1997 
L 356 2522 
L 3381 2522 
L 3381 1997 
z
" transform="scale(0.015625)"/>
        <path id="ArialMT-31" d="M 2384 0 
L 1822 0 
L 1822 3584 
Q 1619 3391 1289 3197 
Q 959 3003 697 2906 
L 697 3450 
Q 1169 3672 1522 3987 
Q 1875 4303 2022 4600 
L 2384 4600 
L 2384 0 
z
" transform="scale(0.015625)"/>
        <path id="ArialMT-2e" d="M 581 0 
L 581 641 
L 1222 641 
L 1222 0 
L 581 0 
z
" transform="scale(0.015625)"/>
        <path id="ArialMT-30" d="M 266 2259 
Q 266 3072 433 3567 
Q 600 4063 929 4331 
Q 1259 4600 1759 4600 
Q 2128 4600 2406 4451 
Q 2684 4303 2865 4023 
Q 3047 3744 3150 3342 
Q 3253 2941 3253 2259 
Q 3253 1453 3087 958 
Q 2922 463 2592 192 
Q 2263 -78 1759 -78 
Q 1097 -78 719 397 
Q 266 969 266 2259 
z
M 844 2259 
Q 844 1131 1108 757 
Q 1372 384 1759 384 
Q 2147 384 2411 759 
Q 2675 1134 2675 2259 
Q 2675 3391 2411 3762 
Q 2147 4134 1753 4134 
Q 1366 4134 1134 3806 
Q 844 3388 844 2259 
z
" transform="scale(0.015625)"/>
       </defs>
       <use xlink:href="#ArialMT-2212"/>
       <use xlink:href="#ArialMT-31" x="58.398438"/>
       <use xlink:href="#ArialMT-2e" x="114.013672"/>
       <use xlink:href="#ArialMT-30" x="141.796875"/>
      </g>
     </g>
    </g>
    <g id="xtick_2">
     <g id="line2d_2">
      <g>
       <use xlink:href="#m6cff597b4f" x="79.615375" y="186.816" style="fill: #262626; stroke: #262626"/>
      </g>
     </g>
     <g id="text_2">
      <!-- −0.5 -->
      <g style="fill: #262626" transform="translate(70.9295 201.414875) scale(0.088 -0.088)">
       <defs>
        <path id="ArialMT-35" d="M 266 1200 
L 856 1250 
Q 922 819 1161 601 
Q 1400 384 1738 384 
Q 2144 384 2425 690 
Q 2706 997 2706 1503 
Q 2706 1984 2436 2262 
Q 2166 2541 1728 2541 
Q 1456 2541 1237 2417 
Q 1019 2294 894 2097 
L 366 2166 
L 809 4519 
L 3088 4519 
L 3088 3981 
L 1259 3981 
L 1013 2750 
Q 1425 3038 1878 3038 
Q 2478 3038 2890 2622 
Q 3303 2206 3303 1553 
Q 3303 931 2941 478 
Q 2500 -78 1738 -78 
Q 1113 -78 717 272 
Q 322 622 266 1200 
z
" transform="scale(0.015625)"/>
       </defs>
       <use xlink:href="#ArialMT-2212"/>
       <use xlink:href="#ArialMT-30" x="58.398438"/>
       <use xlink:href="#ArialMT-2e" x="114.013672"/>
       <use xlink:href="#ArialMT-35" x="141.796875"/>
      </g>
     </g>
    </g>
    <g id="xtick_3">
     <g id="line2d_3">
      <g>
       <use xlink:href="#m6cff597b4f" x="121.465375" y="186.816" style="fill: #262626; stroke: #262626"/>
      </g>
     </g>
     <g id="text_3">
      <!-- 0.0 -->
      <g style="fill: #262626" transform="translate(115.349375 201.414875) scale(0.088 -0.088)">
       <use xlink:href="#ArialMT-30"/>
       <use xlink:href="#ArialMT-2e" x="55.615234"/>
       <use xlink:href="#ArialMT-30" x="83.398438"/>
      </g>
     </g>
    </g>
    <g id="xtick_4">
     <g id="line2d_4">
      <g>
       <use xlink:href="#m6cff597b4f" x="163.315375" y="186.816" style="fill: #262626; stroke: #262626"/>
      </g>
     </g>
     <g id="text_4">
      <!-- 0.5 -->
      <g style="fill: #262626" transform="translate(157.199375 201.414875) scale(0.088 -0.088)">
       <use xlink:href="#ArialMT-30"/>
       <use xlink:href="#ArialMT-2e" x="55.615234"/>
       <use xlink:href="#ArialMT-35" x="83.398438"/>
      </g>
     </g>
    </g>
    <g id="xtick_5">
     <g id="line2d_5">
      <g>
       <use xlink:href="#m6cff597b4f" x="205.165375" y="186.816" style="fill: #262626; stroke: #262626"/>
      </g>
     </g>
     <g id="text_5">
      <!-- 1.0 -->
      <g style="fill: #262626" transform="translate(199.049375 201.414875) scale(0.088 -0.088)">
       <use xlink:href="#ArialMT-31"/>
       <use xlink:href="#ArialMT-2e" x="55.615234"/>
       <use xlink:href="#ArialMT-30" x="83.398438"/>
      </g>
     </g>
    </g>
   </g>
   <g id="matplotlib.axis_2">
    <g id="ytick_1">
     <g id="line2d_6">
      <defs>
       <path id="meae9380c40" d="M 0 0 
L -4.8 0 
" style="stroke: #262626"/>
      </defs>
      <g>
       <use xlink:href="#meae9380c40" x="37.765375" y="186.816" style="fill: #262626; stroke: #262626"/>
      </g>
     </g>
     <g id="text_6">
      <!-- −1.00 -->
      <g style="fill: #262626" transform="translate(7.2 189.965438) scale(0.088 -0.088)">
       <use xlink:href="#ArialMT-2212"/>
       <use xlink:href="#ArialMT-31" x="58.398438"/>
       <use xlink:href="#ArialMT-2e" x="114.013672"/>
       <use xlink:href="#ArialMT-30" x="141.796875"/>
       <use xlink:href="#ArialMT-30" x="197.412109"/>
      </g>
     </g>
    </g>
    <g id="ytick_2">
     <g id="line2d_7">
      <g>
       <use xlink:href="#meae9380c40" x="37.765375" y="166.026" style="fill: #262626; stroke: #262626"/>
      </g>
     </g>
     <g id="text_7">
      <!-- −0.75 -->
      <g style="fill: #262626" transform="translate(7.2 169.175437) scale(0.088 -0.088)">
       <defs>
        <path id="ArialMT-37" d="M 303 3981 
L 303 4522 
L 3269 4522 
L 3269 4084 
Q 2831 3619 2401 2847 
Q 1972 2075 1738 1259 
Q 1569 684 1522 0 
L 944 0 
Q 953 541 1156 1306 
Q 1359 2072 1739 2783 
Q 2119 3494 2547 3981 
L 303 3981 
z
" transform="scale(0.015625)"/>
       </defs>
       <use xlink:href="#ArialMT-2212"/>
       <use xlink:href="#ArialMT-30" x="58.398438"/>
       <use xlink:href="#ArialMT-2e" x="114.013672"/>
       <use xlink:href="#ArialMT-37" x="141.796875"/>
       <use xlink:href="#ArialMT-35" x="197.412109"/>
      </g>
     </g>
    </g>
    <g id="ytick_3">
     <g id="line2d_8">
      <g>
       <use xlink:href="#meae9380c40" x="37.765375" y="145.236" style="fill: #262626; stroke: #262626"/>
      </g>
     </g>
     <g id="text_8">
      <!-- −0.50 -->
      <g style="fill: #262626" transform="translate(7.2 148.385437) scale(0.088 -0.088)">
       <use xlink:href="#ArialMT-2212"/>
       <use xlink:href="#ArialMT-30" x="58.398438"/>
       <use xlink:href="#ArialMT-2e" x="114.013672"/>
       <use xlink:href="#ArialMT-35" x="141.796875"/>
       <use xlink:href="#ArialMT-30" x="197.412109"/>
      </g>
     </g>
    </g>
    <g id="ytick_4">
     <g id="line2d_9">
      <g>
       <use xlink:href="#meae9380c40" x="37.765375" y="124.446" style="fill: #262626; stroke: #262626"/>
      </g>
     </g>
     <g id="text_9">
      <!-- −0.25 -->
      <g style="fill: #262626" transform="translate(7.2 127.595438) scale(0.088 -0.088)">
       <defs>
        <path id="ArialMT-32" d="M 3222 541 
L 3222 0 
L 194 0 
Q 188 203 259 391 
Q 375 700 629 1000 
Q 884 1300 1366 1694 
Q 2113 2306 2375 2664 
Q 2638 3022 2638 3341 
Q 2638 3675 2398 3904 
Q 2159 4134 1775 4134 
Q 1369 4134 1125 3890 
Q 881 3647 878 3216 
L 300 3275 
Q 359 3922 746 4261 
Q 1134 4600 1788 4600 
Q 2447 4600 2831 4234 
Q 3216 3869 3216 3328 
Q 3216 3053 3103 2787 
Q 2991 2522 2730 2228 
Q 2469 1934 1863 1422 
Q 1356 997 1212 845 
Q 1069 694 975 541 
L 3222 541 
z
" transform="scale(0.015625)"/>
       </defs>
       <use xlink:href="#ArialMT-2212"/>
       <use xlink:href="#ArialMT-30" x="58.398438"/>
       <use xlink:href="#ArialMT-2e" x="114.013672"/>
       <use xlink:href="#ArialMT-32" x="141.796875"/>
       <use xlink:href="#ArialMT-35" x="197.412109"/>
      </g>
     </g>
    </g>
    <g id="ytick_5">
     <g id="line2d_10">
      <g>
       <use xlink:href="#meae9380c40" x="37.765375" y="103.656" style="fill: #262626; stroke: #262626"/>
      </g>
     </g>
     <g id="text_10">
      <!-- 0.00 -->
      <g style="fill: #262626" transform="translate(12.33975 106.805437) scale(0.088 -0.088)">
       <use xlink:href="#ArialMT-30"/>
       <use xlink:href="#ArialMT-2e" x="55.615234"/>
       <use xlink:href="#ArialMT-30" x="83.398438"/>
       <use xlink:href="#ArialMT-30" x="139.013672"/>
      </g>
     </g>
    </g>
    <g id="ytick_6">
     <g id="line2d_11">
      <g>
       <use xlink:href="#meae9380c40" x="37.765375" y="82.866" style="fill: #262626; stroke: #262626"/>
      </g>
     </g>
     <g id="text_11">
      <!-- 0.25 -->
      <g style="fill: #262626" transform="translate(12.33975 86.015437) scale(0.088 -0.088)">
       <use xlink:href="#ArialMT-30"/>
       <use xlink:href="#ArialMT-2e" x="55.615234"/>
       <use xlink:href="#ArialMT-32" x="83.398438"/>
       <use xlink:href="#ArialMT-35" x="139.013672"/>
      </g>
     </g>
    </g>
    <g id="ytick_7">
     <g id="line2d_12">
      <g>
       <use xlink:href="#meae9380c40" x="37.765375" y="62.076" style="fill: #262626; stroke: #262626"/>
      </g>
     </g>
     <g id="text_12">
      <!-- 0.50 -->
      <g style="fill: #262626" transform="translate(12.33975 65.225437) scale(0.088 -0.088)">
       <use xlink:href="#ArialMT-30"/>
       <use xlink:href="#ArialMT-2e" x="55.615234"/>
       <use xlink:href="#ArialMT-35" x="83.398438"/>
       <use xlink:href="#ArialMT-30" x="139.013672"/>
      </g>
     </g>
    </g>
    <g id="ytick_8">
     <g id="line2d_13">
      <g>
       <use xlink:href="#meae9380c40" x="37.765375" y="41.286" style="fill: #262626; stroke: #262626"/>
      </g>
     </g>
     <g id="text_13">
      <!-- 0.75 -->
      <g style="fill: #262626" transform="translate(12.33975 44.435438) scale(0.088 -0.088)">
       <use xlink:href="#ArialMT-30"/>
       <use xlink:href="#ArialMT-2e" x="55.615234"/>
       <use xlink:href="#ArialMT-37" x="83.398438"/>
       <use xlink:href="#ArialMT-35" x="139.013672"/>
      </g>
     </g>
    </g>
    <g id="ytick_9">
     <g id="line2d_14">
      <g>
       <use xlink:href="#meae9380c40" x="37.765375" y="20.496" style="fill: #262626; stroke: #262626"/>
      </g>
     </g>
     <g id="text_14">
      <!-- 1.00 -->
      <g style="fill: #262626" transform="translate(12.33975 23.645437) scale(0.088 -0.088)">
       <use xlink:href="#ArialMT-31"/>
       <use xlink:href="#ArialMT-2e" x="55.615234"/>
       <use xlink:href="#ArialMT-30" x="83.398438"/>
       <use xlink:href="#ArialMT-30" x="139.013672"/>
      </g>
     </g>
    </g>
   </g>
   <g id="QuadContourSet_1">
    <path d="M 39.456284 186.816 
L 41.147193 186.816 
L 42.838102 186.816 
L 44.147521 186.816 
L 44.147521 185.136 
L 44.147521 183.456 
L 44.147521 181.776 
L 44.147521 180.096 
L 44.147521 178.416 
L 44.147521 176.736 
L 44.147521 175.056 
L 44.147521 173.376 
L 44.147521 171.696 
L 44.147521 170.016 
L 44.147521 168.336 
L 44.147521 166.656 
L 44.147521 164.976 
L 44.147521 163.296 
L 44.147521 161.616 
L 44.147521 159.936 
L 44.147521 158.256 
L 44.147521 156.576 
L 44.147521 154.896 
L 44.147521 153.216 
L 44.147521 151.536 
L 44.147521 149.856 
L 44.147521 148.176 
L 44.147521 146.496 
L 44.147521 144.816 
L 44.147521 143.136 
L 44.147521 141.456 
L 44.147521 139.776 
L 44.147521 138.096 
L 44.147521 136.416 
L 44.147521 134.736 
L 44.147521 133.056 
L 44.147521 131.376 
L 44.147521 129.696 
L 44.147521 128.016 
L 44.147521 126.336 
L 44.147521 124.656 
L 44.147521 122.976 
L 44.147521 121.296 
L 44.147521 119.616 
L 44.147521 117.936 
L 44.147521 116.256 
L 44.147521 114.576 
L 44.147521 112.896 
L 44.147521 111.216 
L 44.147521 109.536 
L 44.147521 107.856 
L 44.147521 106.176 
L 44.147521 104.496 
L 44.147521 102.816 
L 44.147521 101.136 
L 44.147521 99.456 
L 44.147521 97.776 
L 44.147521 96.096 
L 44.147521 94.416 
L 44.147521 92.736 
L 44.147521 91.056 
L 44.147521 89.376 
L 44.147521 87.696 
L 44.147521 86.016 
L 44.147521 84.336 
L 44.147521 82.656 
L 44.147521 80.976 
L 44.147521 79.296 
L 44.147521 77.616 
L 44.147521 75.936 
L 44.147521 74.256 
L 44.147521 72.576 
L 44.147521 70.896 
L 44.147521 69.216 
L 44.147521 67.536 
L 44.147521 65.856 
L 44.147521 64.176 
L 44.147521 62.496 
L 44.147521 60.816 
L 44.147521 59.136 
L 44.147521 57.456 
L 44.147521 55.776 
L 44.147521 54.096 
L 44.147521 52.416 
L 44.147521 50.736 
L 44.147521 49.056 
L 44.147521 47.376 
L 44.147521 45.696 
L 44.147521 44.016 
L 44.147521 42.336 
L 44.147521 40.656 
L 44.147521 38.976 
L 44.147521 37.296 
L 44.147521 35.616 
L 44.147521 33.936 
L 44.147521 32.256 
L 44.147521 30.576 
L 44.147521 28.896 
L 44.147521 27.216 
L 44.147521 25.536 
L 44.147521 23.856 
L 44.147521 22.176 
L 44.147521 20.496 
L 42.838102 20.496 
L 41.147193 20.496 
L 39.456284 20.496 
L 37.765375 20.496 
L 37.765375 22.176 
L 37.765375 23.856 
L 37.765375 25.536 
L 37.765375 27.216 
L 37.765375 28.896 
L 37.765375 30.576 
L 37.765375 32.256 
L 37.765375 33.936 
L 37.765375 35.616 
L 37.765375 37.296 
L 37.765375 38.976 
L 37.765375 40.656 
L 37.765375 42.336 
L 37.765375 44.016 
L 37.765375 45.696 
L 37.765375 47.376 
L 37.765375 49.056 
L 37.765375 50.736 
L 37.765375 52.416 
L 37.765375 54.096 
L 37.765375 55.776 
L 37.765375 57.456 
L 37.765375 59.136 
L 37.765375 60.816 
L 37.765375 62.496 
L 37.765375 64.176 
L 37.765375 65.856 
L 37.765375 67.536 
L 37.765375 69.216 
L 37.765375 70.896 
L 37.765375 72.576 
L 37.765375 74.256 
L 37.765375 75.936 
L 37.765375 77.616 
L 37.765375 79.296 
L 37.765375 80.976 
L 37.765375 82.656 
L 37.765375 84.336 
L 37.765375 86.016 
L 37.765375 87.696 
L 37.765375 89.376 
L 37.765375 91.056 
L 37.765375 92.736 
L 37.765375 94.416 
L 37.765375 96.096 
L 37.765375 97.776 
L 37.765375 99.456 
L 37.765375 101.136 
L 37.765375 102.816 
L 37.765375 104.496 
L 37.765375 106.176 
L 37.765375 107.856 
L 37.765375 109.536 
L 37.765375 111.216 
L 37.765375 112.896 
L 37.765375 114.576 
L 37.765375 116.256 
L 37.765375 117.936 
L 37.765375 119.616 
L 37.765375 121.296 
L 37.765375 122.976 
L 37.765375 124.656 
L 37.765375 126.336 
L 37.765375 128.016 
L 37.765375 129.696 
L 37.765375 131.376 
L 37.765375 133.056 
L 37.765375 134.736 
L 37.765375 136.416 
L 37.765375 138.096 
L 37.765375 139.776 
L 37.765375 141.456 
L 37.765375 143.136 
L 37.765375 144.816 
L 37.765375 146.496 
L 37.765375 148.176 
L 37.765375 149.856 
L 37.765375 151.536 
L 37.765375 153.216 
L 37.765375 154.896 
L 37.765375 156.576 
L 37.765375 158.256 
L 37.765375 159.936 
L 37.765375 161.616 
L 37.765375 163.296 
L 37.765375 164.976 
L 37.765375 166.656 
L 37.765375 168.336 
L 37.765375 170.016 
L 37.765375 171.696 
L 37.765375 173.376 
L 37.765375 175.056 
L 37.765375 176.736 
L 37.765375 178.416 
L 37.765375 180.096 
L 37.765375 181.776 
L 37.765375 183.456 
L 37.765375 185.136 
L 37.765375 186.816 
z
" clip-path="url(#pe712962e74)" style="fill: #0b0920"/>
    <path d="M 44.529011 186.816 
L 46.21992 186.816 
L 47.91083 186.816 
L 49.601739 186.816 
L 51.292648 186.816 
L 52.983557 186.816 
L 53.812255 186.816 
L 53.812255 185.136 
L 53.812255 183.456 
L 53.812255 181.776 
L 53.812255 180.096 
L 53.812255 178.416 
L 53.812255 176.736 
L 53.812255 175.056 
L 53.812255 173.376 
L 53.812255 171.696 
L 53.812255 170.016 
L 53.812255 168.336 
L 53.812255 166.656 
L 53.812255 164.976 
L 53.812255 163.296 
L 53.812255 161.616 
L 53.812255 159.936 
L 53.812255 158.256 
L 53.812255 156.576 
L 53.812255 154.896 
L 53.812255 153.216 
L 53.812255 151.536 
L 53.812255 149.856 
L 53.812255 148.176 
L 53.812255 146.496 
L 53.812255 144.816 
L 53.812255 143.136 
L 53.812255 141.456 
L 53.812255 139.776 
L 53.812255 138.096 
L 53.812255 136.416 
L 53.812255 134.736 
L 53.812255 133.056 
L 53.812255 131.376 
L 53.812255 129.696 
L 53.812255 128.016 
L 53.812255 126.336 
L 53.812255 124.656 
L 53.812255 122.976 
L 53.812255 121.296 
L 53.812255 119.616 
L 53.812255 117.936 
L 53.812255 116.256 
L 53.812255 114.576 
L 53.812255 112.896 
L 53.812255 111.216 
L 53.812255 109.536 
L 53.812255 107.856 
L 53.812255 106.176 
L 53.812255 104.496 
L 53.812255 102.816 
L 53.812255 101.136 
L 53.812255 99.456 
L 53.812255 97.776 
L 53.812255 96.096 
L 53.812255 94.416 
L 53.812255 92.736 
L 53.812255 91.056 
L 53.812255 89.376 
L 53.812255 87.696 
L 53.812255 86.016 
L 53.812255 84.336 
L 53.812255 82.656 
L 53.812255 80.976 
L 53.812255 79.296 
L 53.812255 77.616 
L 53.812255 75.936 
L 53.812255 74.256 
L 53.812255 72.576 
L 53.812255 70.896 
L 53.812255 69.216 
L 53.812255 67.536 
L 53.812255 65.856 
L 53.812255 64.176 
L 53.812255 62.496 
L 53.812255 60.816 
L 53.812255 59.136 
L 53.812255 57.456 
L 53.812255 55.776 
L 53.812255 54.096 
L 53.812255 52.416 
L 53.812255 50.736 
L 53.812255 49.056 
L 53.812255 47.376 
L 53.812255 45.696 
L 53.812255 44.016 
L 53.812255 42.336 
L 53.812255 40.656 
L 53.812255 38.976 
L 53.812255 37.296 
L 53.812255 35.616 
L 53.812255 33.936 
L 53.812255 32.256 
L 53.812255 30.576 
L 53.812255 28.896 
L 53.812255 27.216 
L 53.812255 25.536 
L 53.812255 23.856 
L 53.812255 22.176 
L 53.812255 20.496 
L 52.983557 20.496 
L 51.292648 20.496 
L 49.601739 20.496 
L 47.91083 20.496 
L 46.21992 20.496 
L 44.529011 20.496 
L 44.147521 20.496 
L 44.147521 22.176 
L 44.147521 23.856 
L 44.147521 25.536 
L 44.147521 27.216 
L 44.147521 28.896 
L 44.147521 30.576 
L 44.147521 32.256 
L 44.147521 33.936 
L 44.147521 35.616 
L 44.147521 37.296 
L 44.147521 38.976 
L 44.147521 40.656 
L 44.147521 42.336 
L 44.147521 44.016 
L 44.147521 45.696 
L 44.147521 47.376 
L 44.147521 49.056 
L 44.147521 50.736 
L 44.147521 52.416 
L 44.147521 54.096 
L 44.147521 55.776 
L 44.147521 57.456 
L 44.147521 59.136 
L 44.147521 60.816 
L 44.147521 62.496 
L 44.147521 64.176 
L 44.147521 65.856 
L 44.147521 67.536 
L 44.147521 69.216 
L 44.147521 70.896 
L 44.147521 72.576 
L 44.147521 74.256 
L 44.147521 75.936 
L 44.147521 77.616 
L 44.147521 79.296 
L 44.147521 80.976 
L 44.147521 82.656 
L 44.147521 84.336 
L 44.147521 86.016 
L 44.147521 87.696 
L 44.147521 89.376 
L 44.147521 91.056 
L 44.147521 92.736 
L 44.147521 94.416 
L 44.147521 96.096 
L 44.147521 97.776 
L 44.147521 99.456 
L 44.147521 101.136 
L 44.147521 102.816 
L 44.147521 104.496 
L 44.147521 106.176 
L 44.147521 107.856 
L 44.147521 109.536 
L 44.147521 111.216 
L 44.147521 112.896 
L 44.147521 114.576 
L 44.147521 116.256 
L 44.147521 117.936 
L 44.147521 119.616 
L 44.147521 121.296 
L 44.147521 122.976 
L 44.147521 124.656 
L 44.147521 126.336 
L 44.147521 128.016 
L 44.147521 129.696 
L 44.147521 131.376 
L 44.147521 133.056 
L 44.147521 134.736 
L 44.147521 136.416 
L 44.147521 138.096 
L 44.147521 139.776 
L 44.147521 141.456 
L 44.147521 143.136 
L 44.147521 144.816 
L 44.147521 146.496 
L 44.147521 148.176 
L 44.147521 149.856 
L 44.147521 151.536 
L 44.147521 153.216 
L 44.147521 154.896 
L 44.147521 156.576 
L 44.147521 158.256 
L 44.147521 159.936 
L 44.147521 161.616 
L 44.147521 163.296 
L 44.147521 164.976 
L 44.147521 166.656 
L 44.147521 168.336 
L 44.147521 170.016 
L 44.147521 171.696 
L 44.147521 173.376 
L 44.147521 175.056 
L 44.147521 176.736 
L 44.147521 178.416 
L 44.147521 180.096 
L 44.147521 181.776 
L 44.147521 183.456 
L 44.147521 185.136 
L 44.147521 186.816 
z
" clip-path="url(#pe712962e74)" style="fill: #20122e"/>
    <path d="M 54.674466 186.816 
L 56.365375 186.816 
L 58.056284 186.816 
L 59.747193 186.816 
L 61.438102 186.816 
L 63.129011 186.816 
L 63.476985 186.816 
L 63.476985 185.136 
L 63.476985 183.456 
L 63.476985 181.776 
L 63.476985 180.096 
L 63.476985 178.416 
L 63.476985 176.736 
L 63.476985 175.056 
L 63.476985 173.376 
L 63.476985 171.696 
L 63.476985 170.016 
L 63.476985 168.336 
L 63.476985 166.656 
L 63.476985 164.976 
L 63.476985 163.296 
L 63.476985 161.616 
L 63.476985 159.936 
L 63.476985 158.256 
L 63.476985 156.576 
L 63.476985 154.896 
L 63.476985 153.216 
L 63.476985 151.536 
L 63.476985 149.856 
L 63.476985 148.176 
L 63.476985 146.496 
L 63.476985 144.816 
L 63.476985 143.136 
L 63.476985 141.456 
L 63.476985 139.776 
L 63.476985 138.096 
L 63.476985 136.416 
L 63.476985 134.736 
L 63.476985 133.056 
L 63.476985 131.376 
L 63.476985 129.696 
L 63.476985 128.016 
L 63.476985 126.336 
L 63.476985 124.656 
L 63.476985 122.976 
L 63.476985 121.296 
L 63.476985 119.616 
L 63.476985 117.936 
L 63.476985 116.256 
L 63.476985 114.576 
L 63.476985 112.896 
L 63.476985 111.216 
L 63.476985 109.536 
L 63.476985 107.856 
L 63.476985 106.176 
L 63.476985 104.496 
L 63.476985 102.816 
L 63.476985 101.136 
L 63.476985 99.456 
L 63.476985 97.776 
L 63.476985 96.096 
L 63.476985 94.416 
L 63.476985 92.736 
L 63.476985 91.056 
L 63.476985 89.376 
L 63.476985 87.696 
L 63.476985 86.016 
L 63.476985 84.336 
L 63.476985 82.656 
L 63.476985 80.976 
L 63.476985 79.296 
L 63.476985 77.616 
L 63.476985 75.936 
L 63.476985 74.256 
L 63.476985 72.576 
L 63.476985 70.896 
L 63.476985 69.216 
L 63.476985 67.536 
L 63.476985 65.856 
L 63.476985 64.176 
L 63.476985 62.496 
L 63.476985 60.816 
L 63.476985 59.136 
L 63.476985 57.456 
L 63.476985 55.776 
L 63.476985 54.096 
L 63.476985 52.416 
L 63.476985 50.736 
L 63.476985 49.056 
L 63.476985 47.376 
L 63.476985 45.696 
L 63.476985 44.016 
L 63.476985 42.336 
L 63.476985 40.656 
L 63.476985 38.976 
L 63.476985 37.296 
L 63.476985 35.616 
L 63.476985 33.936 
L 63.476985 32.256 
L 63.476985 30.576 
L 63.476985 28.896 
L 63.476985 27.216 
L 63.476985 25.536 
L 63.476985 23.856 
L 63.476985 22.176 
L 63.476985 20.496 
L 63.129011 20.496 
L 61.438102 20.496 
L 59.747193 20.496 
L 58.056284 20.496 
L 56.365375 20.496 
L 54.674466 20.496 
L 53.812255 20.496 
L 53.812255 22.176 
L 53.812255 23.856 
L 53.812255 25.536 
L 53.812255 27.216 
L 53.812255 28.896 
L 53.812255 30.576 
L 53.812255 32.256 
L 53.812255 33.936 
L 53.812255 35.616 
L 53.812255 37.296 
L 53.812255 38.976 
L 53.812255 40.656 
L 53.812255 42.336 
L 53.812255 44.016 
L 53.812255 45.696 
L 53.812255 47.376 
L 53.812255 49.056 
L 53.812255 50.736 
L 53.812255 52.416 
L 53.812255 54.096 
L 53.812255 55.776 
L 53.812255 57.456 
L 53.812255 59.136 
L 53.812255 60.816 
L 53.812255 62.496 
L 53.812255 64.176 
L 53.812255 65.856 
L 53.812255 67.536 
L 53.812255 69.216 
L 53.812255 70.896 
L 53.812255 72.576 
L 53.812255 74.256 
L 53.812255 75.936 
L 53.812255 77.616 
L 53.812255 79.296 
L 53.812255 80.976 
L 53.812255 82.656 
L 53.812255 84.336 
L 53.812255 86.016 
L 53.812255 87.696 
L 53.812255 89.376 
L 53.812255 91.056 
L 53.812255 92.736 
L 53.812255 94.416 
L 53.812255 96.096 
L 53.812255 97.776 
L 53.812255 99.456 
L 53.812255 101.136 
L 53.812255 102.816 
L 53.812255 104.496 
L 53.812255 106.176 
L 53.812255 107.856 
L 53.812255 109.536 
L 53.812255 111.216 
L 53.812255 112.896 
L 53.812255 114.576 
L 53.812255 116.256 
L 53.812255 117.936 
L 53.812255 119.616 
L 53.812255 121.296 
L 53.812255 122.976 
L 53.812255 124.656 
L 53.812255 126.336 
L 53.812255 128.016 
L 53.812255 129.696 
L 53.812255 131.376 
L 53.812255 133.056 
L 53.812255 134.736 
L 53.812255 136.416 
L 53.812255 138.096 
L 53.812255 139.776 
L 53.812255 141.456 
L 53.812255 143.136 
L 53.812255 144.816 
L 53.812255 146.496 
L 53.812255 148.176 
L 53.812255 149.856 
L 53.812255 151.536 
L 53.812255 153.216 
L 53.812255 154.896 
L 53.812255 156.576 
L 53.812255 158.256 
L 53.812255 159.936 
L 53.812255 161.616 
L 53.812255 163.296 
L 53.812255 164.976 
L 53.812255 166.656 
L 53.812255 168.336 
L 53.812255 170.016 
L 53.812255 171.696 
L 53.812255 173.376 
L 53.812255 175.056 
L 53.812255 176.736 
L 53.812255 178.416 
L 53.812255 180.096 
L 53.812255 181.776 
L 53.812255 183.456 
L 53.812255 185.136 
L 53.812255 186.816 
z
" clip-path="url(#pe712962e74)" style="fill: #34193d"/>
    <path d="M 64.81992 186.816 
L 66.51083 186.816 
L 68.201739 186.816 
L 69.892648 186.816 
L 71.583557 186.816 
L 73.141718 186.816 
L 73.141718 185.136 
L 73.141718 183.456 
L 73.141718 181.776 
L 73.141718 180.096 
L 73.141718 178.416 
L 73.141718 176.736 
L 73.141718 175.056 
L 73.141718 173.376 
L 73.141718 171.696 
L 73.141718 170.016 
L 73.141718 168.336 
L 73.141718 166.656 
L 73.141718 164.976 
L 73.141718 163.296 
L 73.141718 161.616 
L 73.141718 159.936 
L 73.141718 158.256 
L 73.141718 156.576 
L 73.141718 154.896 
L 73.141718 153.216 
L 73.141718 151.536 
L 73.141718 149.856 
L 73.141718 148.176 
L 73.141718 146.496 
L 73.141718 144.816 
L 73.141718 143.136 
L 73.141718 141.456 
L 73.141718 139.776 
L 73.141718 138.096 
L 73.141718 136.416 
L 73.141718 134.736 
L 73.141718 133.056 
L 73.141718 131.376 
L 73.141718 129.696 
L 73.141718 128.016 
L 73.141718 126.336 
L 73.141718 124.656 
L 73.141718 122.976 
L 73.141718 121.296 
L 73.141718 119.616 
L 73.141718 117.936 
L 73.141718 116.256 
L 73.141718 114.576 
L 73.141718 112.896 
L 73.141718 111.216 
L 73.141718 109.536 
L 73.141718 107.856 
L 73.141718 106.176 
L 73.141718 104.496 
L 73.141718 102.816 
L 73.141718 101.136 
L 73.141718 99.456 
L 73.141718 97.776 
L 73.141718 96.096 
L 73.141718 94.416 
L 73.141718 92.736 
L 73.141718 91.056 
L 73.141718 89.376 
L 73.141718 87.696 
L 73.141718 86.016 
L 73.141718 84.336 
L 73.141718 82.656 
L 73.141718 80.976 
L 73.141718 79.296 
L 73.141718 77.616 
L 73.141718 75.936 
L 73.141718 74.256 
L 73.141718 72.576 
L 73.141718 70.896 
L 73.141718 69.216 
L 73.141718 67.536 
L 73.141718 65.856 
L 73.141718 64.176 
L 73.141718 62.496 
L 73.141718 60.816 
L 73.141718 59.136 
L 73.141718 57.456 
L 73.141718 55.776 
L 73.141718 54.096 
L 73.141718 52.416 
L 73.141718 50.736 
L 73.141718 49.056 
L 73.141718 47.376 
L 73.141718 45.696 
L 73.141718 44.016 
L 73.141718 42.336 
L 73.141718 40.656 
L 73.141718 38.976 
L 73.141718 37.296 
L 73.141718 35.616 
L 73.141718 33.936 
L 73.141718 32.256 
L 73.141718 30.576 
L 73.141718 28.896 
L 73.141718 27.216 
L 73.141718 25.536 
L 73.141718 23.856 
L 73.141718 22.176 
L 73.141718 20.496 
L 71.583557 20.496 
L 69.892648 20.496 
L 68.201739 20.496 
L 66.51083 20.496 
L 64.81992 20.496 
L 63.476985 20.496 
L 63.476985 22.176 
L 63.476985 23.856 
L 63.476985 25.536 
L 63.476985 27.216 
L 63.476985 28.896 
L 63.476985 30.576 
L 63.476985 32.256 
L 63.476985 33.936 
L 63.476985 35.616 
L 63.476985 37.296 
L 63.476985 38.976 
L 63.476985 40.656 
L 63.476985 42.336 
L 63.476985 44.016 
L 63.476985 45.696 
L 63.476985 47.376 
L 63.476985 49.056 
L 63.476985 50.736 
L 63.476985 52.416 
L 63.476985 54.096 
L 63.476985 55.776 
L 63.476985 57.456 
L 63.476985 59.136 
L 63.476985 60.816 
L 63.476985 62.496 
L 63.476985 64.176 
L 63.476985 65.856 
L 63.476985 67.536 
L 63.476985 69.216 
L 63.476985 70.896 
L 63.476985 72.576 
L 63.476985 74.256 
L 63.476985 75.936 
L 63.476985 77.616 
L 63.476985 79.296 
L 63.476985 80.976 
L 63.476985 82.656 
L 63.476985 84.336 
L 63.476985 86.016 
L 63.476985 87.696 
L 63.476985 89.376 
L 63.476985 91.056 
L 63.476985 92.736 
L 63.476985 94.416 
L 63.476985 96.096 
L 63.476985 97.776 
L 63.476985 99.456 
L 63.476985 101.136 
L 63.476985 102.816 
L 63.476985 104.496 
L 63.476985 106.176 
L 63.476985 107.856 
L 63.476985 109.536 
L 63.476985 111.216 
L 63.476985 112.896 
L 63.476985 114.576 
L 63.476985 116.256 
L 63.476985 117.936 
L 63.476985 119.616 
L 63.476985 121.296 
L 63.476985 122.976 
L 63.476985 124.656 
L 63.476985 126.336 
L 63.476985 128.016 
L 63.476985 129.696 
L 63.476985 131.376 
L 63.476985 133.056 
L 63.476985 134.736 
L 63.476985 136.416 
L 63.476985 138.096 
L 63.476985 139.776 
L 63.476985 141.456 
L 63.476985 143.136 
L 63.476985 144.816 
L 63.476985 146.496 
L 63.476985 148.176 
L 63.476985 149.856 
L 63.476985 151.536 
L 63.476985 153.216 
L 63.476985 154.896 
L 63.476985 156.576 
L 63.476985 158.256 
L 63.476985 159.936 
L 63.476985 161.616 
L 63.476985 163.296 
L 63.476985 164.976 
L 63.476985 166.656 
L 63.476985 168.336 
L 63.476985 170.016 
L 63.476985 171.696 
L 63.476985 173.376 
L 63.476985 175.056 
L 63.476985 176.736 
L 63.476985 178.416 
L 63.476985 180.096 
L 63.476985 181.776 
L 63.476985 183.456 
L 63.476985 185.136 
L 63.476985 186.816 
z
" clip-path="url(#pe712962e74)" style="fill: #491d49"/>
    <path d="M 73.274466 186.816 
L 74.965375 186.816 
L 76.656284 186.816 
L 78.347193 186.816 
L 80.038102 186.816 
L 81.729011 186.816 
L 82.806451 186.816 
L 82.806451 185.136 
L 82.806451 183.456 
L 82.806451 181.776 
L 82.806451 180.096 
L 82.806451 178.416 
L 82.806451 176.736 
L 82.806451 175.056 
L 82.806451 173.376 
L 82.806451 171.696 
L 82.806451 170.016 
L 82.806451 168.336 
L 82.806451 166.656 
L 82.806451 164.976 
L 82.806451 163.296 
L 82.806451 161.616 
L 82.806451 159.936 
L 82.806451 158.256 
L 82.806451 156.576 
L 82.806451 154.896 
L 82.806451 153.216 
L 82.806451 151.536 
L 82.806451 149.856 
L 82.806451 148.176 
L 82.806451 146.496 
L 82.806451 144.816 
L 82.806451 143.136 
L 82.806451 141.456 
L 82.806451 139.776 
L 82.806451 138.096 
L 82.806451 136.416 
L 82.806451 134.736 
L 82.806451 133.056 
L 82.806451 131.376 
L 82.806451 129.696 
L 82.806451 128.016 
L 82.806451 126.336 
L 82.806451 124.656 
L 82.806451 122.976 
L 82.806451 121.296 
L 82.806451 119.616 
L 82.806451 117.936 
L 82.806451 116.256 
L 82.806451 114.576 
L 82.806451 112.896 
L 82.806451 111.216 
L 82.806451 109.536 
L 82.806451 107.856 
L 82.806451 106.176 
L 82.806451 104.496 
L 82.806451 102.816 
L 82.806451 101.136 
L 82.806451 99.456 
L 82.806451 97.776 
L 82.806451 96.096 
L 82.806451 94.416 
L 82.806451 92.736 
L 82.806451 91.056 
L 82.806451 89.376 
L 82.806451 87.696 
L 82.806451 86.016 
L 82.806451 84.336 
L 82.806451 82.656 
L 82.806451 80.976 
L 82.806451 79.296 
L 82.806451 77.616 
L 82.806451 75.936 
L 82.806451 74.256 
L 82.806451 72.576 
L 82.806451 70.896 
L 82.806451 69.216 
L 82.806451 67.536 
L 82.806451 65.856 
L 82.806451 64.176 
L 82.806451 62.496 
L 82.806451 60.816 
L 82.806451 59.136 
L 82.806451 57.456 
L 82.806451 55.776 
L 82.806451 54.096 
L 82.806451 52.416 
L 82.806451 50.736 
L 82.806451 49.056 
L 82.806451 47.376 
L 82.806451 45.696 
L 82.806451 44.016 
L 82.806451 42.336 
L 82.806451 40.656 
L 82.806451 38.976 
L 82.806451 37.296 
L 82.806451 35.616 
L 82.806451 33.936 
L 82.806451 32.256 
L 82.806451 30.576 
L 82.806451 28.896 
L 82.806451 27.216 
L 82.806451 25.536 
L 82.806451 23.856 
L 82.806451 22.176 
L 82.806451 20.496 
L 81.729011 20.496 
L 80.038102 20.496 
L 78.347193 20.496 
L 76.656284 20.496 
L 74.965375 20.496 
L 73.274466 20.496 
L 73.141718 20.496 
L 73.141718 22.176 
L 73.141718 23.856 
L 73.141718 25.536 
L 73.141718 27.216 
L 73.141718 28.896 
L 73.141718 30.576 
L 73.141718 32.256 
L 73.141718 33.936 
L 73.141718 35.616 
L 73.141718 37.296 
L 73.141718 38.976 
L 73.141718 40.656 
L 73.141718 42.336 
L 73.141718 44.016 
L 73.141718 45.696 
L 73.141718 47.376 
L 73.141718 49.056 
L 73.141718 50.736 
L 73.141718 52.416 
L 73.141718 54.096 
L 73.141718 55.776 
L 73.141718 57.456 
L 73.141718 59.136 
L 73.141718 60.816 
L 73.141718 62.496 
L 73.141718 64.176 
L 73.141718 65.856 
L 73.141718 67.536 
L 73.141718 69.216 
L 73.141718 70.896 
L 73.141718 72.576 
L 73.141718 74.256 
L 73.141718 75.936 
L 73.141718 77.616 
L 73.141718 79.296 
L 73.141718 80.976 
L 73.141718 82.656 
L 73.141718 84.336 
L 73.141718 86.016 
L 73.141718 87.696 
L 73.141718 89.376 
L 73.141718 91.056 
L 73.141718 92.736 
L 73.141718 94.416 
L 73.141718 96.096 
L 73.141718 97.776 
L 73.141718 99.456 
L 73.141718 101.136 
L 73.141718 102.816 
L 73.141718 104.496 
L 73.141718 106.176 
L 73.141718 107.856 
L 73.141718 109.536 
L 73.141718 111.216 
L 73.141718 112.896 
L 73.141718 114.576 
L 73.141718 116.256 
L 73.141718 117.936 
L 73.141718 119.616 
L 73.141718 121.296 
L 73.141718 122.976 
L 73.141718 124.656 
L 73.141718 126.336 
L 73.141718 128.016 
L 73.141718 129.696 
L 73.141718 131.376 
L 73.141718 133.056 
L 73.141718 134.736 
L 73.141718 136.416 
L 73.141718 138.096 
L 73.141718 139.776 
L 73.141718 141.456 
L 73.141718 143.136 
L 73.141718 144.816 
L 73.141718 146.496 
L 73.141718 148.176 
L 73.141718 149.856 
L 73.141718 151.536 
L 73.141718 153.216 
L 73.141718 154.896 
L 73.141718 156.576 
L 73.141718 158.256 
L 73.141718 159.936 
L 73.141718 161.616 
L 73.141718 163.296 
L 73.141718 164.976 
L 73.141718 166.656 
L 73.141718 168.336 
L 73.141718 170.016 
L 73.141718 171.696 
L 73.141718 173.376 
L 73.141718 175.056 
L 73.141718 176.736 
L 73.141718 178.416 
L 73.141718 180.096 
L 73.141718 181.776 
L 73.141718 183.456 
L 73.141718 185.136 
L 73.141718 186.816 
z
" clip-path="url(#pe712962e74)" style="fill: #611f53"/>
    <path d="M 83.41992 186.816 
L 85.11083 186.816 
L 86.801739 186.816 
L 88.492648 186.816 
L 90.183557 186.816 
L 91.874466 186.816 
L 92.471182 186.816 
L 92.471182 185.136 
L 92.471182 183.456 
L 92.471182 181.776 
L 92.471182 180.096 
L 92.471182 178.416 
L 92.471182 176.736 
L 92.471182 175.056 
L 92.471182 173.376 
L 92.471182 171.696 
L 92.471182 170.016 
L 92.471182 168.336 
L 92.471182 166.656 
L 92.471182 164.976 
L 92.471182 163.296 
L 92.471182 161.616 
L 92.471182 159.936 
L 92.471182 158.256 
L 92.471182 156.576 
L 92.471182 154.896 
L 92.471182 153.216 
L 92.471182 151.536 
L 92.471182 149.856 
L 92.471182 148.176 
L 92.471182 146.496 
L 92.471182 144.816 
L 92.471182 143.136 
L 92.471182 141.456 
L 92.471182 139.776 
L 92.471182 138.096 
L 92.471182 136.416 
L 92.471182 134.736 
L 92.471182 133.056 
L 92.471182 131.376 
L 92.471182 129.696 
L 92.471182 128.016 
L 92.471182 126.336 
L 92.471182 124.656 
L 92.471182 122.976 
L 92.471182 121.296 
L 92.471182 119.616 
L 92.471182 117.936 
L 92.471182 116.256 
L 92.471182 114.576 
L 92.471182 112.896 
L 92.471182 111.216 
L 92.471182 109.536 
L 92.471182 107.856 
L 92.471182 106.176 
L 92.471182 104.496 
L 92.471182 102.816 
L 92.471182 101.136 
L 92.471182 99.456 
L 92.471182 97.776 
L 92.471182 96.096 
L 92.471182 94.416 
L 92.471182 92.736 
L 92.471182 91.056 
L 92.471182 89.376 
L 92.471182 87.696 
L 92.471182 86.016 
L 92.471182 84.336 
L 92.471182 82.656 
L 92.471182 80.976 
L 92.471182 79.296 
L 92.471182 77.616 
L 92.471182 75.936 
L 92.471182 74.256 
L 92.471182 72.576 
L 92.471182 70.896 
L 92.471182 69.216 
L 92.471182 67.536 
L 92.471182 65.856 
L 92.471182 64.176 
L 92.471182 62.496 
L 92.471182 60.816 
L 92.471182 59.136 
L 92.471182 57.456 
L 92.471182 55.776 
L 92.471182 54.096 
L 92.471182 52.416 
L 92.471182 50.736 
L 92.471182 49.056 
L 92.471182 47.376 
L 92.471182 45.696 
L 92.471182 44.016 
L 92.471182 42.336 
L 92.471182 40.656 
L 92.471182 38.976 
L 92.471182 37.296 
L 92.471182 35.616 
L 92.471182 33.936 
L 92.471182 32.256 
L 92.471182 30.576 
L 92.471182 28.896 
L 92.471182 27.216 
L 92.471182 25.536 
L 92.471182 23.856 
L 92.471182 22.176 
L 92.471182 20.496 
L 91.874466 20.496 
L 90.183557 20.496 
L 88.492648 20.496 
L 86.801739 20.496 
L 85.11083 20.496 
L 83.41992 20.496 
L 82.806451 20.496 
L 82.806451 22.176 
L 82.806451 23.856 
L 82.806451 25.536 
L 82.806451 27.216 
L 82.806451 28.896 
L 82.806451 30.576 
L 82.806451 32.256 
L 82.806451 33.936 
L 82.806451 35.616 
L 82.806451 37.296 
L 82.806451 38.976 
L 82.806451 40.656 
L 82.806451 42.336 
L 82.806451 44.016 
L 82.806451 45.696 
L 82.806451 47.376 
L 82.806451 49.056 
L 82.806451 50.736 
L 82.806451 52.416 
L 82.806451 54.096 
L 82.806451 55.776 
L 82.806451 57.456 
L 82.806451 59.136 
L 82.806451 60.816 
L 82.806451 62.496 
L 82.806451 64.176 
L 82.806451 65.856 
L 82.806451 67.536 
L 82.806451 69.216 
L 82.806451 70.896 
L 82.806451 72.576 
L 82.806451 74.256 
L 82.806451 75.936 
L 82.806451 77.616 
L 82.806451 79.296 
L 82.806451 80.976 
L 82.806451 82.656 
L 82.806451 84.336 
L 82.806451 86.016 
L 82.806451 87.696 
L 82.806451 89.376 
L 82.806451 91.056 
L 82.806451 92.736 
L 82.806451 94.416 
L 82.806451 96.096 
L 82.806451 97.776 
L 82.806451 99.456 
L 82.806451 101.136 
L 82.806451 102.816 
L 82.806451 104.496 
L 82.806451 106.176 
L 82.806451 107.856 
L 82.806451 109.536 
L 82.806451 111.216 
L 82.806451 112.896 
L 82.806451 114.576 
L 82.806451 116.256 
L 82.806451 117.936 
L 82.806451 119.616 
L 82.806451 121.296 
L 82.806451 122.976 
L 82.806451 124.656 
L 82.806451 126.336 
L 82.806451 128.016 
L 82.806451 129.696 
L 82.806451 131.376 
L 82.806451 133.056 
L 82.806451 134.736 
L 82.806451 136.416 
L 82.806451 138.096 
L 82.806451 139.776 
L 82.806451 141.456 
L 82.806451 143.136 
L 82.806451 144.816 
L 82.806451 146.496 
L 82.806451 148.176 
L 82.806451 149.856 
L 82.806451 151.536 
L 82.806451 153.216 
L 82.806451 154.896 
L 82.806451 156.576 
L 82.806451 158.256 
L 82.806451 159.936 
L 82.806451 161.616 
L 82.806451 163.296 
L 82.806451 164.976 
L 82.806451 166.656 
L 82.806451 168.336 
L 82.806451 170.016 
L 82.806451 171.696 
L 82.806451 173.376 
L 82.806451 175.056 
L 82.806451 176.736 
L 82.806451 178.416 
L 82.806451 180.096 
L 82.806451 181.776 
L 82.806451 183.456 
L 82.806451 185.136 
L 82.806451 186.816 
z
" clip-path="url(#pe712962e74)" style="fill: #781f59"/>
    <path d="M 93.565375 186.816 
L 95.256284 186.816 
L 96.947193 186.816 
L 98.638102 186.816 
L 100.329011 186.816 
L 102.01992 186.816 
L 102.135914 186.816 
L 102.135914 185.136 
L 102.135914 183.456 
L 102.135914 181.776 
L 102.135914 180.096 
L 102.135914 178.416 
L 102.135914 176.736 
L 102.135914 175.056 
L 102.135914 173.376 
L 102.135914 171.696 
L 102.135914 170.016 
L 102.135914 168.336 
L 102.135914 166.656 
L 102.135914 164.976 
L 102.135914 163.296 
L 102.135914 161.616 
L 102.135914 159.936 
L 102.135914 158.256 
L 102.135914 156.576 
L 102.135914 154.896 
L 102.135914 153.216 
L 102.135914 151.536 
L 102.135914 149.856 
L 102.135914 148.176 
L 102.135914 146.496 
L 102.135914 144.816 
L 102.135914 143.136 
L 102.135914 141.456 
L 102.135914 139.776 
L 102.135914 138.096 
L 102.135914 136.416 
L 102.135914 134.736 
L 102.135914 133.056 
L 102.135914 131.376 
L 102.135914 129.696 
L 102.135914 128.016 
L 102.135914 126.336 
L 102.135914 124.656 
L 102.135914 122.976 
L 102.135914 121.296 
L 102.135914 119.616 
L 102.135914 117.936 
L 102.135914 116.256 
L 102.135914 114.576 
L 102.135914 112.896 
L 102.135914 111.216 
L 102.135914 109.536 
L 102.135914 107.856 
L 102.135914 106.176 
L 102.135914 104.496 
L 102.135914 102.816 
L 102.135914 101.136 
L 102.135914 99.456 
L 102.135914 97.776 
L 102.135914 96.096 
L 102.135914 94.416 
L 102.135914 92.736 
L 102.135914 91.056 
L 102.135914 89.376 
L 102.135914 87.696 
L 102.135914 86.016 
L 102.135914 84.336 
L 102.135914 82.656 
L 102.135914 80.976 
L 102.135914 79.296 
L 102.135914 77.616 
L 102.135914 75.936 
L 102.135914 74.256 
L 102.135914 72.576 
L 102.135914 70.896 
L 102.135914 69.216 
L 102.135914 67.536 
L 102.135914 65.856 
L 102.135914 64.176 
L 102.135914 62.496 
L 102.135914 60.816 
L 102.135914 59.136 
L 102.135914 57.456 
L 102.135914 55.776 
L 102.135914 54.096 
L 102.135914 52.416 
L 102.135914 50.736 
L 102.135914 49.056 
L 102.135914 47.376 
L 102.135914 45.696 
L 102.135914 44.016 
L 102.135914 42.336 
L 102.135914 40.656 
L 102.135914 38.976 
L 102.135914 37.296 
L 102.135914 35.616 
L 102.135914 33.936 
L 102.135914 32.256 
L 102.135914 30.576 
L 102.135914 28.896 
L 102.135914 27.216 
L 102.135914 25.536 
L 102.135914 23.856 
L 102.135914 22.176 
L 102.135914 20.496 
L 102.01992 20.496 
L 100.329011 20.496 
L 98.638102 20.496 
L 96.947193 20.496 
L 95.256284 20.496 
L 93.565375 20.496 
L 92.471182 20.496 
L 92.471182 22.176 
L 92.471182 23.856 
L 92.471182 25.536 
L 92.471182 27.216 
L 92.471182 28.896 
L 92.471182 30.576 
L 92.471182 32.256 
L 92.471182 33.936 
L 92.471182 35.616 
L 92.471182 37.296 
L 92.471182 38.976 
L 92.471182 40.656 
L 92.471182 42.336 
L 92.471182 44.016 
L 92.471182 45.696 
L 92.471182 47.376 
L 92.471182 49.056 
L 92.471182 50.736 
L 92.471182 52.416 
L 92.471182 54.096 
L 92.471182 55.776 
L 92.471182 57.456 
L 92.471182 59.136 
L 92.471182 60.816 
L 92.471182 62.496 
L 92.471182 64.176 
L 92.471182 65.856 
L 92.471182 67.536 
L 92.471182 69.216 
L 92.471182 70.896 
L 92.471182 72.576 
L 92.471182 74.256 
L 92.471182 75.936 
L 92.471182 77.616 
L 92.471182 79.296 
L 92.471182 80.976 
L 92.471182 82.656 
L 92.471182 84.336 
L 92.471182 86.016 
L 92.471182 87.696 
L 92.471182 89.376 
L 92.471182 91.056 
L 92.471182 92.736 
L 92.471182 94.416 
L 92.471182 96.096 
L 92.471182 97.776 
L 92.471182 99.456 
L 92.471182 101.136 
L 92.471182 102.816 
L 92.471182 104.496 
L 92.471182 106.176 
L 92.471182 107.856 
L 92.471182 109.536 
L 92.471182 111.216 
L 92.471182 112.896 
L 92.471182 114.576 
L 92.471182 116.256 
L 92.471182 117.936 
L 92.471182 119.616 
L 92.471182 121.296 
L 92.471182 122.976 
L 92.471182 124.656 
L 92.471182 126.336 
L 92.471182 128.016 
L 92.471182 129.696 
L 92.471182 131.376 
L 92.471182 133.056 
L 92.471182 134.736 
L 92.471182 136.416 
L 92.471182 138.096 
L 92.471182 139.776 
L 92.471182 141.456 
L 92.471182 143.136 
L 92.471182 144.816 
L 92.471182 146.496 
L 92.471182 148.176 
L 92.471182 149.856 
L 92.471182 151.536 
L 92.471182 153.216 
L 92.471182 154.896 
L 92.471182 156.576 
L 92.471182 158.256 
L 92.471182 159.936 
L 92.471182 161.616 
L 92.471182 163.296 
L 92.471182 164.976 
L 92.471182 166.656 
L 92.471182 168.336 
L 92.471182 170.016 
L 92.471182 171.696 
L 92.471182 173.376 
L 92.471182 175.056 
L 92.471182 176.736 
L 92.471182 178.416 
L 92.471182 180.096 
L 92.471182 181.776 
L 92.471182 183.456 
L 92.471182 185.136 
L 92.471182 186.816 
z
" clip-path="url(#pe712962e74)" style="fill: #901d5b"/>
    <path d="M 103.71083 186.816 
L 105.401739 186.816 
L 107.092648 186.816 
L 108.783557 186.816 
L 110.474466 186.816 
L 111.800645 186.816 
L 111.800645 185.136 
L 111.800645 183.456 
L 111.800645 181.776 
L 111.800645 180.096 
L 111.800645 178.416 
L 111.800645 176.736 
L 111.800645 175.056 
L 111.800645 173.376 
L 111.800645 171.696 
L 111.800645 170.016 
L 111.800645 168.336 
L 111.800645 166.656 
L 111.800645 164.976 
L 111.800645 163.296 
L 111.800645 161.616 
L 111.800645 159.936 
L 111.800645 158.256 
L 111.800645 156.576 
L 111.800645 154.896 
L 111.800645 153.216 
L 111.800645 151.536 
L 111.800645 149.856 
L 111.800645 148.176 
L 111.800645 146.496 
L 111.800645 144.816 
L 111.800645 143.136 
L 111.800645 141.456 
L 111.800645 139.776 
L 111.800645 138.096 
L 111.800645 136.416 
L 111.800645 134.736 
L 111.800645 133.056 
L 111.800645 131.376 
L 111.800645 129.696 
L 111.800645 128.016 
L 111.800645 126.336 
L 111.800645 124.656 
L 111.800645 122.976 
L 111.800645 121.296 
L 111.800645 119.616 
L 111.800645 117.936 
L 111.800645 116.256 
L 111.800645 114.576 
L 111.800645 112.896 
L 111.800645 111.216 
L 111.800645 109.536 
L 111.800645 107.856 
L 111.800645 106.176 
L 111.800645 104.496 
L 111.800645 102.816 
L 111.800645 101.136 
L 111.800645 99.456 
L 111.800645 97.776 
L 111.800645 96.096 
L 111.800645 94.416 
L 111.800645 92.736 
L 111.800645 91.056 
L 111.800645 89.376 
L 111.800645 87.696 
L 111.800645 86.016 
L 111.800645 84.336 
L 111.800645 82.656 
L 111.800645 80.976 
L 111.800645 79.296 
L 111.800645 77.616 
L 111.800645 75.936 
L 111.800645 74.256 
L 111.800645 72.576 
L 111.800645 70.896 
L 111.800645 69.216 
L 111.800645 67.536 
L 111.800645 65.856 
L 111.800645 64.176 
L 111.800645 62.496 
L 111.800645 60.816 
L 111.800645 59.136 
L 111.800645 57.456 
L 111.800645 55.776 
L 111.800645 54.096 
L 111.800645 52.416 
L 111.800645 50.736 
L 111.800645 49.056 
L 111.800645 47.376 
L 111.800645 45.696 
L 111.800645 44.016 
L 111.800645 42.336 
L 111.800645 40.656 
L 111.800645 38.976 
L 111.800645 37.296 
L 111.800645 35.616 
L 111.800645 33.936 
L 111.800645 32.256 
L 111.800645 30.576 
L 111.800645 28.896 
L 111.800645 27.216 
L 111.800645 25.536 
L 111.800645 23.856 
L 111.800645 22.176 
L 111.800645 20.496 
L 110.474466 20.496 
L 108.783557 20.496 
L 107.092648 20.496 
L 105.401739 20.496 
L 103.71083 20.496 
L 102.135914 20.496 
L 102.135914 22.176 
L 102.135914 23.856 
L 102.135914 25.536 
L 102.135914 27.216 
L 102.135914 28.896 
L 102.135914 30.576 
L 102.135914 32.256 
L 102.135914 33.936 
L 102.135914 35.616 
L 102.135914 37.296 
L 102.135914 38.976 
L 102.135914 40.656 
L 102.135914 42.336 
L 102.135914 44.016 
L 102.135914 45.696 
L 102.135914 47.376 
L 102.135914 49.056 
L 102.135914 50.736 
L 102.135914 52.416 
L 102.135914 54.096 
L 102.135914 55.776 
L 102.135914 57.456 
L 102.135914 59.136 
L 102.135914 60.816 
L 102.135914 62.496 
L 102.135914 64.176 
L 102.135914 65.856 
L 102.135914 67.536 
L 102.135914 69.216 
L 102.135914 70.896 
L 102.135914 72.576 
L 102.135914 74.256 
L 102.135914 75.936 
L 102.135914 77.616 
L 102.135914 79.296 
L 102.135914 80.976 
L 102.135914 82.656 
L 102.135914 84.336 
L 102.135914 86.016 
L 102.135914 87.696 
L 102.135914 89.376 
L 102.135914 91.056 
L 102.135914 92.736 
L 102.135914 94.416 
L 102.135914 96.096 
L 102.135914 97.776 
L 102.135914 99.456 
L 102.135914 101.136 
L 102.135914 102.816 
L 102.135914 104.496 
L 102.135914 106.176 
L 102.135914 107.856 
L 102.135914 109.536 
L 102.135914 111.216 
L 102.135914 112.896 
L 102.135914 114.576 
L 102.135914 116.256 
L 102.135914 117.936 
L 102.135914 119.616 
L 102.135914 121.296 
L 102.135914 122.976 
L 102.135914 124.656 
L 102.135914 126.336 
L 102.135914 128.016 
L 102.135914 129.696 
L 102.135914 131.376 
L 102.135914 133.056 
L 102.135914 134.736 
L 102.135914 136.416 
L 102.135914 138.096 
L 102.135914 139.776 
L 102.135914 141.456 
L 102.135914 143.136 
L 102.135914 144.816 
L 102.135914 146.496 
L 102.135914 148.176 
L 102.135914 149.856 
L 102.135914 151.536 
L 102.135914 153.216 
L 102.135914 154.896 
L 102.135914 156.576 
L 102.135914 158.256 
L 102.135914 159.936 
L 102.135914 161.616 
L 102.135914 163.296 
L 102.135914 164.976 
L 102.135914 166.656 
L 102.135914 168.336 
L 102.135914 170.016 
L 102.135914 171.696 
L 102.135914 173.376 
L 102.135914 175.056 
L 102.135914 176.736 
L 102.135914 178.416 
L 102.135914 180.096 
L 102.135914 181.776 
L 102.135914 183.456 
L 102.135914 185.136 
L 102.135914 186.816 
z
" clip-path="url(#pe712962e74)" style="fill: #a8185a"/>
    <path d="M 112.165375 186.816 
L 113.856284 186.816 
L 115.547193 186.816 
L 117.238102 186.816 
L 118.929011 186.816 
L 120.61992 186.816 
L 121.465376 186.816 
L 121.465376 185.136 
L 121.465376 183.456 
L 121.465376 181.776 
L 121.465376 180.096 
L 121.465376 178.416 
L 121.465376 176.736 
L 121.465376 175.056 
L 121.465376 173.376 
L 121.465376 171.696 
L 121.465376 170.016 
L 121.465376 168.336 
L 121.465376 166.656 
L 121.465376 164.976 
L 121.465376 163.296 
L 121.465376 161.616 
L 121.465376 159.936 
L 121.465376 158.256 
L 121.465376 156.576 
L 121.465376 154.896 
L 121.465376 153.216 
L 121.465376 151.536 
L 121.465376 149.856 
L 121.465376 148.176 
L 121.465376 146.496 
L 121.465376 144.816 
L 121.465376 143.136 
L 121.465376 141.456 
L 121.465376 139.776 
L 121.465376 138.096 
L 121.465376 136.416 
L 121.465376 134.736 
L 121.465376 133.056 
L 121.465376 131.376 
L 121.465376 129.696 
L 121.465376 128.016 
L 121.465376 126.336 
L 121.465376 124.656 
L 121.465376 122.976 
L 121.465376 121.296 
L 121.465376 119.616 
L 121.465376 117.936 
L 121.465376 116.256 
L 121.465376 114.576 
L 121.465376 112.896 
L 121.465376 111.216 
L 121.465376 109.536 
L 121.465376 107.856 
L 121.465376 106.176 
L 121.465376 104.496 
L 121.465376 102.816 
L 121.465376 101.136 
L 121.465376 99.456 
L 121.465376 97.776 
L 121.465376 96.096 
L 121.465376 94.416 
L 121.465376 92.736 
L 121.465376 91.056 
L 121.465376 89.376 
L 121.465376 87.696 
L 121.465376 86.016 
L 121.465376 84.336 
L 121.465376 82.656 
L 121.465376 80.976 
L 121.465376 79.296 
L 121.465376 77.616 
L 121.465376 75.936 
L 121.465376 74.256 
L 121.465376 72.576 
L 121.465376 70.896 
L 121.465376 69.216 
L 121.465376 67.536 
L 121.465376 65.856 
L 121.465376 64.176 
L 121.465376 62.496 
L 121.465376 60.816 
L 121.465376 59.136 
L 121.465376 57.456 
L 121.465376 55.776 
L 121.465376 54.096 
L 121.465376 52.416 
L 121.465376 50.736 
L 121.465376 49.056 
L 121.465376 47.376 
L 121.465376 45.696 
L 121.465376 44.016 
L 121.465376 42.336 
L 121.465376 40.656 
L 121.465376 38.976 
L 121.465376 37.296 
L 121.465376 35.616 
L 121.465376 33.936 
L 121.465376 32.256 
L 121.465376 30.576 
L 121.465376 28.896 
L 121.465376 27.216 
L 121.465376 25.536 
L 121.465376 23.856 
L 121.465376 22.176 
L 121.465376 20.496 
L 120.61992 20.496 
L 118.929011 20.496 
L 117.238102 20.496 
L 115.547193 20.496 
L 113.856284 20.496 
L 112.165375 20.496 
L 111.800645 20.496 
L 111.800645 22.176 
L 111.800645 23.856 
L 111.800645 25.536 
L 111.800645 27.216 
L 111.800645 28.896 
L 111.800645 30.576 
L 111.800645 32.256 
L 111.800645 33.936 
L 111.800645 35.616 
L 111.800645 37.296 
L 111.800645 38.976 
L 111.800645 40.656 
L 111.800645 42.336 
L 111.800645 44.016 
L 111.800645 45.696 
L 111.800645 47.376 
L 111.800645 49.056 
L 111.800645 50.736 
L 111.800645 52.416 
L 111.800645 54.096 
L 111.800645 55.776 
L 111.800645 57.456 
L 111.800645 59.136 
L 111.800645 60.816 
L 111.800645 62.496 
L 111.800645 64.176 
L 111.800645 65.856 
L 111.800645 67.536 
L 111.800645 69.216 
L 111.800645 70.896 
L 111.800645 72.576 
L 111.800645 74.256 
L 111.800645 75.936 
L 111.800645 77.616 
L 111.800645 79.296 
L 111.800645 80.976 
L 111.800645 82.656 
L 111.800645 84.336 
L 111.800645 86.016 
L 111.800645 87.696 
L 111.800645 89.376 
L 111.800645 91.056 
L 111.800645 92.736 
L 111.800645 94.416 
L 111.800645 96.096 
L 111.800645 97.776 
L 111.800645 99.456 
L 111.800645 101.136 
L 111.800645 102.816 
L 111.800645 104.496 
L 111.800645 106.176 
L 111.800645 107.856 
L 111.800645 109.536 
L 111.800645 111.216 
L 111.800645 112.896 
L 111.800645 114.576 
L 111.800645 116.256 
L 111.800645 117.936 
L 111.800645 119.616 
L 111.800645 121.296 
L 111.800645 122.976 
L 111.800645 124.656 
L 111.800645 126.336 
L 111.800645 128.016 
L 111.800645 129.696 
L 111.800645 131.376 
L 111.800645 133.056 
L 111.800645 134.736 
L 111.800645 136.416 
L 111.800645 138.096 
L 111.800645 139.776 
L 111.800645 141.456 
L 111.800645 143.136 
L 111.800645 144.816 
L 111.800645 146.496 
L 111.800645 148.176 
L 111.800645 149.856 
L 111.800645 151.536 
L 111.800645 153.216 
L 111.800645 154.896 
L 111.800645 156.576 
L 111.800645 158.256 
L 111.800645 159.936 
L 111.800645 161.616 
L 111.800645 163.296 
L 111.800645 164.976 
L 111.800645 166.656 
L 111.800645 168.336 
L 111.800645 170.016 
L 111.800645 171.696 
L 111.800645 173.376 
L 111.800645 175.056 
L 111.800645 176.736 
L 111.800645 178.416 
L 111.800645 180.096 
L 111.800645 181.776 
L 111.800645 183.456 
L 111.800645 185.136 
L 111.800645 186.816 
z
" clip-path="url(#pe712962e74)" style="fill: #bf1654"/>
    <path d="M 122.31083 186.816 
L 124.001739 186.816 
L 125.692648 186.816 
L 127.383557 186.816 
L 129.074466 186.816 
L 130.765375 186.816 
L 131.130107 186.816 
L 131.130107 185.136 
L 131.130107 183.456 
L 131.130107 181.776 
L 131.130107 180.096 
L 131.130107 178.416 
L 131.130107 176.736 
L 131.130107 175.056 
L 131.130107 173.376 
L 131.130107 171.696 
L 131.130107 170.016 
L 131.130107 168.336 
L 131.130107 166.656 
L 131.130107 164.976 
L 131.130107 163.296 
L 131.130107 161.616 
L 131.130107 159.936 
L 131.130107 158.256 
L 131.130107 156.576 
L 131.130107 154.896 
L 131.130107 153.216 
L 131.130107 151.536 
L 131.130107 149.856 
L 131.130107 148.176 
L 131.130107 146.496 
L 131.130107 144.816 
L 131.130107 143.136 
L 131.130107 141.456 
L 131.130107 139.776 
L 131.130107 138.096 
L 131.130107 136.416 
L 131.130107 134.736 
L 131.130107 133.056 
L 131.130107 131.376 
L 131.130107 129.696 
L 131.130107 128.016 
L 131.130107 126.336 
L 131.130107 124.656 
L 131.130107 122.976 
L 131.130107 121.296 
L 131.130107 119.616 
L 131.130107 117.936 
L 131.130107 116.256 
L 131.130107 114.576 
L 131.130107 112.896 
L 131.130107 111.216 
L 131.130107 109.536 
L 131.130107 107.856 
L 131.130107 106.176 
L 131.130107 104.496 
L 131.130107 102.816 
L 131.130107 101.136 
L 131.130107 99.456 
L 131.130107 97.776 
L 131.130107 96.096 
L 131.130107 94.416 
L 131.130107 92.736 
L 131.130107 91.056 
L 131.130107 89.376 
L 131.130107 87.696 
L 131.130107 86.016 
L 131.130107 84.336 
L 131.130107 82.656 
L 131.130107 80.976 
L 131.130107 79.296 
L 131.130107 77.616 
L 131.130107 75.936 
L 131.130107 74.256 
L 131.130107 72.576 
L 131.130107 70.896 
L 131.130107 69.216 
L 131.130107 67.536 
L 131.130107 65.856 
L 131.130107 64.176 
L 131.130107 62.496 
L 131.130107 60.816 
L 131.130107 59.136 
L 131.130107 57.456 
L 131.130107 55.776 
L 131.130107 54.096 
L 131.130107 52.416 
L 131.130107 50.736 
L 131.130107 49.056 
L 131.130107 47.376 
L 131.130107 45.696 
L 131.130107 44.016 
L 131.130107 42.336 
L 131.130107 40.656 
L 131.130107 38.976 
L 131.130107 37.296 
L 131.130107 35.616 
L 131.130107 33.936 
L 131.130107 32.256 
L 131.130107 30.576 
L 131.130107 28.896 
L 131.130107 27.216 
L 131.130107 25.536 
L 131.130107 23.856 
L 131.130107 22.176 
L 131.130107 20.496 
L 130.765375 20.496 
L 129.074466 20.496 
L 127.383557 20.496 
L 125.692648 20.496 
L 124.001739 20.496 
L 122.31083 20.496 
L 121.465376 20.496 
L 121.465376 22.176 
L 121.465376 23.856 
L 121.465376 25.536 
L 121.465376 27.216 
L 121.465376 28.896 
L 121.465376 30.576 
L 121.465376 32.256 
L 121.465376 33.936 
L 121.465376 35.616 
L 121.465376 37.296 
L 121.465376 38.976 
L 121.465376 40.656 
L 121.465376 42.336 
L 121.465376 44.016 
L 121.465376 45.696 
L 121.465376 47.376 
L 121.465376 49.056 
L 121.465376 50.736 
L 121.465376 52.416 
L 121.465376 54.096 
L 121.465376 55.776 
L 121.465376 57.456 
L 121.465376 59.136 
L 121.465376 60.816 
L 121.465376 62.496 
L 121.465376 64.176 
L 121.465376 65.856 
L 121.465376 67.536 
L 121.465376 69.216 
L 121.465376 70.896 
L 121.465376 72.576 
L 121.465376 74.256 
L 121.465376 75.936 
L 121.465376 77.616 
L 121.465376 79.296 
L 121.465376 80.976 
L 121.465376 82.656 
L 121.465376 84.336 
L 121.465376 86.016 
L 121.465376 87.696 
L 121.465376 89.376 
L 121.465376 91.056 
L 121.465376 92.736 
L 121.465376 94.416 
L 121.465376 96.096 
L 121.465376 97.776 
L 121.465376 99.456 
L 121.465376 101.136 
L 121.465376 102.816 
L 121.465376 104.496 
L 121.465376 106.176 
L 121.465376 107.856 
L 121.465376 109.536 
L 121.465376 111.216 
L 121.465376 112.896 
L 121.465376 114.576 
L 121.465376 116.256 
L 121.465376 117.936 
L 121.465376 119.616 
L 121.465376 121.296 
L 121.465376 122.976 
L 121.465376 124.656 
L 121.465376 126.336 
L 121.465376 128.016 
L 121.465376 129.696 
L 121.465376 131.376 
L 121.465376 133.056 
L 121.465376 134.736 
L 121.465376 136.416 
L 121.465376 138.096 
L 121.465376 139.776 
L 121.465376 141.456 
L 121.465376 143.136 
L 121.465376 144.816 
L 121.465376 146.496 
L 121.465376 148.176 
L 121.465376 149.856 
L 121.465376 151.536 
L 121.465376 153.216 
L 121.465376 154.896 
L 121.465376 156.576 
L 121.465376 158.256 
L 121.465376 159.936 
L 121.465376 161.616 
L 121.465376 163.296 
L 121.465376 164.976 
L 121.465376 166.656 
L 121.465376 168.336 
L 121.465376 170.016 
L 121.465376 171.696 
L 121.465376 173.376 
L 121.465376 175.056 
L 121.465376 176.736 
L 121.465376 178.416 
L 121.465376 180.096 
L 121.465376 181.776 
L 121.465376 183.456 
L 121.465376 185.136 
L 121.465376 186.816 
z
" clip-path="url(#pe712962e74)" style="fill: #d5224a"/>
    <path d="M 132.456284 186.816 
L 134.147193 186.816 
L 135.838102 186.816 
L 137.529011 186.816 
L 139.21992 186.816 
L 140.794839 186.816 
L 140.794839 185.136 
L 140.794839 183.456 
L 140.794839 181.776 
L 140.794839 180.096 
L 140.794839 178.416 
L 140.794839 176.736 
L 140.794839 175.056 
L 140.794839 173.376 
L 140.794839 171.696 
L 140.794839 170.016 
L 140.794839 168.336 
L 140.794839 166.656 
L 140.794839 164.976 
L 140.794839 163.296 
L 140.794839 161.616 
L 140.794839 159.936 
L 140.794839 158.256 
L 140.794839 156.576 
L 140.794839 154.896 
L 140.794839 153.216 
L 140.794839 151.536 
L 140.794839 149.856 
L 140.794839 148.176 
L 140.794839 146.496 
L 140.794839 144.816 
L 140.794839 143.136 
L 140.794839 141.456 
L 140.794839 139.776 
L 140.794839 138.096 
L 140.794839 136.416 
L 140.794839 134.736 
L 140.794839 133.056 
L 140.794839 131.376 
L 140.794839 129.696 
L 140.794839 128.016 
L 140.794839 126.336 
L 140.794839 124.656 
L 140.794839 122.976 
L 140.794839 121.296 
L 140.794839 119.616 
L 140.794839 117.936 
L 140.794839 116.256 
L 140.794839 114.576 
L 140.794839 112.896 
L 140.794839 111.216 
L 140.794839 109.536 
L 140.794839 107.856 
L 140.794839 106.176 
L 140.794839 104.496 
L 140.794839 102.816 
L 140.794839 101.136 
L 140.794839 99.456 
L 140.794839 97.776 
L 140.794839 96.096 
L 140.794839 94.416 
L 140.794839 92.736 
L 140.794839 91.056 
L 140.794839 89.376 
L 140.794839 87.696 
L 140.794839 86.016 
L 140.794839 84.336 
L 140.794839 82.656 
L 140.794839 80.976 
L 140.794839 79.296 
L 140.794839 77.616 
L 140.794839 75.936 
L 140.794839 74.256 
L 140.794839 72.576 
L 140.794839 70.896 
L 140.794839 69.216 
L 140.794839 67.536 
L 140.794839 65.856 
L 140.794839 64.176 
L 140.794839 62.496 
L 140.794839 60.816 
L 140.794839 59.136 
L 140.794839 57.456 
L 140.794839 55.776 
L 140.794839 54.096 
L 140.794839 52.416 
L 140.794839 50.736 
L 140.794839 49.056 
L 140.794839 47.376 
L 140.794839 45.696 
L 140.794839 44.016 
L 140.794839 42.336 
L 140.794839 40.656 
L 140.794839 38.976 
L 140.794839 37.296 
L 140.794839 35.616 
L 140.794839 33.936 
L 140.794839 32.256 
L 140.794839 30.576 
L 140.794839 28.896 
L 140.794839 27.216 
L 140.794839 25.536 
L 140.794839 23.856 
L 140.794839 22.176 
L 140.794839 20.496 
L 139.21992 20.496 
L 137.529011 20.496 
L 135.838102 20.496 
L 134.147193 20.496 
L 132.456284 20.496 
L 131.130107 20.496 
L 131.130107 22.176 
L 131.130107 23.856 
L 131.130107 25.536 
L 131.130107 27.216 
L 131.130107 28.896 
L 131.130107 30.576 
L 131.130107 32.256 
L 131.130107 33.936 
L 131.130107 35.616 
L 131.130107 37.296 
L 131.130107 38.976 
L 131.130107 40.656 
L 131.130107 42.336 
L 131.130107 44.016 
L 131.130107 45.696 
L 131.130107 47.376 
L 131.130107 49.056 
L 131.130107 50.736 
L 131.130107 52.416 
L 131.130107 54.096 
L 131.130107 55.776 
L 131.130107 57.456 
L 131.130107 59.136 
L 131.130107 60.816 
L 131.130107 62.496 
L 131.130107 64.176 
L 131.130107 65.856 
L 131.130107 67.536 
L 131.130107 69.216 
L 131.130107 70.896 
L 131.130107 72.576 
L 131.130107 74.256 
L 131.130107 75.936 
L 131.130107 77.616 
L 131.130107 79.296 
L 131.130107 80.976 
L 131.130107 82.656 
L 131.130107 84.336 
L 131.130107 86.016 
L 131.130107 87.696 
L 131.130107 89.376 
L 131.130107 91.056 
L 131.130107 92.736 
L 131.130107 94.416 
L 131.130107 96.096 
L 131.130107 97.776 
L 131.130107 99.456 
L 131.130107 101.136 
L 131.130107 102.816 
L 131.130107 104.496 
L 131.130107 106.176 
L 131.130107 107.856 
L 131.130107 109.536 
L 131.130107 111.216 
L 131.130107 112.896 
L 131.130107 114.576 
L 131.130107 116.256 
L 131.130107 117.936 
L 131.130107 119.616 
L 131.130107 121.296 
L 131.130107 122.976 
L 131.130107 124.656 
L 131.130107 126.336 
L 131.130107 128.016 
L 131.130107 129.696 
L 131.130107 131.376 
L 131.130107 133.056 
L 131.130107 134.736 
L 131.130107 136.416 
L 131.130107 138.096 
L 131.130107 139.776 
L 131.130107 141.456 
L 131.130107 143.136 
L 131.130107 144.816 
L 131.130107 146.496 
L 131.130107 148.176 
L 131.130107 149.856 
L 131.130107 151.536 
L 131.130107 153.216 
L 131.130107 154.896 
L 131.130107 156.576 
L 131.130107 158.256 
L 131.130107 159.936 
L 131.130107 161.616 
L 131.130107 163.296 
L 131.130107 164.976 
L 131.130107 166.656 
L 131.130107 168.336 
L 131.130107 170.016 
L 131.130107 171.696 
L 131.130107 173.376 
L 131.130107 175.056 
L 131.130107 176.736 
L 131.130107 178.416 
L 131.130107 180.096 
L 131.130107 181.776 
L 131.130107 183.456 
L 131.130107 185.136 
L 131.130107 186.816 
z
" clip-path="url(#pe712962e74)" style="fill: #e43841"/>
    <path d="M 140.91083 186.816 
L 142.601739 186.816 
L 144.292648 186.816 
L 145.983557 186.816 
L 147.674466 186.816 
L 149.365375 186.816 
L 150.459568 186.816 
L 150.459568 185.136 
L 150.459568 183.456 
L 150.459568 181.776 
L 150.459568 180.096 
L 150.459568 178.416 
L 150.459568 176.736 
L 150.459568 175.056 
L 150.459568 173.376 
L 150.459568 171.696 
L 150.459568 170.016 
L 150.459568 168.336 
L 150.459568 166.656 
L 150.459568 164.976 
L 150.459568 163.296 
L 150.459568 161.616 
L 150.459568 159.936 
L 150.459568 158.256 
L 150.459568 156.576 
L 150.459568 154.896 
L 150.459568 153.216 
L 150.459568 151.536 
L 150.459568 149.856 
L 150.459568 148.176 
L 150.459568 146.496 
L 150.459568 144.816 
L 150.459568 143.136 
L 150.459568 141.456 
L 150.459568 139.776 
L 150.459568 138.096 
L 150.459568 136.416 
L 150.459568 134.736 
L 150.459568 133.056 
L 150.459568 131.376 
L 150.459568 129.696 
L 150.459568 128.016 
L 150.459568 126.336 
L 150.459568 124.656 
L 150.459568 122.976 
L 150.459568 121.296 
L 150.459568 119.616 
L 150.459568 117.936 
L 150.459568 116.256 
L 150.459568 114.576 
L 150.459568 112.896 
L 150.459568 111.216 
L 150.459568 109.536 
L 150.459568 107.856 
L 150.459568 106.176 
L 150.459568 104.496 
L 150.459568 102.816 
L 150.459568 101.136 
L 150.459568 99.456 
L 150.459568 97.776 
L 150.459568 96.096 
L 150.459568 94.416 
L 150.459568 92.736 
L 150.459568 91.056 
L 150.459568 89.376 
L 150.459568 87.696 
L 150.459568 86.016 
L 150.459568 84.336 
L 150.459568 82.656 
L 150.459568 80.976 
L 150.459568 79.296 
L 150.459568 77.616 
L 150.459568 75.936 
L 150.459568 74.256 
L 150.459568 72.576 
L 150.459568 70.896 
L 150.459568 69.216 
L 150.459568 67.536 
L 150.459568 65.856 
L 150.459568 64.176 
L 150.459568 62.496 
L 150.459568 60.816 
L 150.459568 59.136 
L 150.459568 57.456 
L 150.459568 55.776 
L 150.459568 54.096 
L 150.459568 52.416 
L 150.459568 50.736 
L 150.459568 49.056 
L 150.459568 47.376 
L 150.459568 45.696 
L 150.459568 44.016 
L 150.459568 42.336 
L 150.459568 40.656 
L 150.459568 38.976 
L 150.459568 37.296 
L 150.459568 35.616 
L 150.459568 33.936 
L 150.459568 32.256 
L 150.459568 30.576 
L 150.459568 28.896 
L 150.459568 27.216 
L 150.459568 25.536 
L 150.459568 23.856 
L 150.459568 22.176 
L 150.459568 20.496 
L 149.365375 20.496 
L 147.674466 20.496 
L 145.983557 20.496 
L 144.292648 20.496 
L 142.601739 20.496 
L 140.91083 20.496 
L 140.794839 20.496 
L 140.794839 22.176 
L 140.794839 23.856 
L 140.794839 25.536 
L 140.794839 27.216 
L 140.794839 28.896 
L 140.794839 30.576 
L 140.794839 32.256 
L 140.794839 33.936 
L 140.794839 35.616 
L 140.794839 37.296 
L 140.794839 38.976 
L 140.794839 40.656 
L 140.794839 42.336 
L 140.794839 44.016 
L 140.794839 45.696 
L 140.794839 47.376 
L 140.794839 49.056 
L 140.794839 50.736 
L 140.794839 52.416 
L 140.794839 54.096 
L 140.794839 55.776 
L 140.794839 57.456 
L 140.794839 59.136 
L 140.794839 60.816 
L 140.794839 62.496 
L 140.794839 64.176 
L 140.794839 65.856 
L 140.794839 67.536 
L 140.794839 69.216 
L 140.794839 70.896 
L 140.794839 72.576 
L 140.794839 74.256 
L 140.794839 75.936 
L 140.794839 77.616 
L 140.794839 79.296 
L 140.794839 80.976 
L 140.794839 82.656 
L 140.794839 84.336 
L 140.794839 86.016 
L 140.794839 87.696 
L 140.794839 89.376 
L 140.794839 91.056 
L 140.794839 92.736 
L 140.794839 94.416 
L 140.794839 96.096 
L 140.794839 97.776 
L 140.794839 99.456 
L 140.794839 101.136 
L 140.794839 102.816 
L 140.794839 104.496 
L 140.794839 106.176 
L 140.794839 107.856 
L 140.794839 109.536 
L 140.794839 111.216 
L 140.794839 112.896 
L 140.794839 114.576 
L 140.794839 116.256 
L 140.794839 117.936 
L 140.794839 119.616 
L 140.794839 121.296 
L 140.794839 122.976 
L 140.794839 124.656 
L 140.794839 126.336 
L 140.794839 128.016 
L 140.794839 129.696 
L 140.794839 131.376 
L 140.794839 133.056 
L 140.794839 134.736 
L 140.794839 136.416 
L 140.794839 138.096 
L 140.794839 139.776 
L 140.794839 141.456 
L 140.794839 143.136 
L 140.794839 144.816 
L 140.794839 146.496 
L 140.794839 148.176 
L 140.794839 149.856 
L 140.794839 151.536 
L 140.794839 153.216 
L 140.794839 154.896 
L 140.794839 156.576 
L 140.794839 158.256 
L 140.794839 159.936 
L 140.794839 161.616 
L 140.794839 163.296 
L 140.794839 164.976 
L 140.794839 166.656 
L 140.794839 168.336 
L 140.794839 170.016 
L 140.794839 171.696 
L 140.794839 173.376 
L 140.794839 175.056 
L 140.794839 176.736 
L 140.794839 178.416 
L 140.794839 180.096 
L 140.794839 181.776 
L 140.794839 183.456 
L 140.794839 185.136 
L 140.794839 186.816 
z
" clip-path="url(#pe712962e74)" style="fill: #ee523f"/>
    <path d="M 151.056284 186.816 
L 152.747193 186.816 
L 154.438102 186.816 
L 156.129011 186.816 
L 157.81992 186.816 
L 159.51083 186.816 
L 160.124299 186.816 
L 160.124299 185.136 
L 160.124299 183.456 
L 160.124299 181.776 
L 160.124299 180.096 
L 160.124299 178.416 
L 160.124299 176.736 
L 160.124299 175.056 
L 160.124299 173.376 
L 160.124299 171.696 
L 160.124299 170.016 
L 160.124299 168.336 
L 160.124299 166.656 
L 160.124299 164.976 
L 160.124299 163.296 
L 160.124299 161.616 
L 160.124299 159.936 
L 160.124299 158.256 
L 160.124299 156.576 
L 160.124299 154.896 
L 160.124299 153.216 
L 160.124299 151.536 
L 160.124299 149.856 
L 160.124299 148.176 
L 160.124299 146.496 
L 160.124299 144.816 
L 160.124299 143.136 
L 160.124299 141.456 
L 160.124299 139.776 
L 160.124299 138.096 
L 160.124299 136.416 
L 160.124299 134.736 
L 160.124299 133.056 
L 160.124299 131.376 
L 160.124299 129.696 
L 160.124299 128.016 
L 160.124299 126.336 
L 160.124299 124.656 
L 160.124299 122.976 
L 160.124299 121.296 
L 160.124299 119.616 
L 160.124299 117.936 
L 160.124299 116.256 
L 160.124299 114.576 
L 160.124299 112.896 
L 160.124299 111.216 
L 160.124299 109.536 
L 160.124299 107.856 
L 160.124299 106.176 
L 160.124299 104.496 
L 160.124299 102.816 
L 160.124299 101.136 
L 160.124299 99.456 
L 160.124299 97.776 
L 160.124299 96.096 
L 160.124299 94.416 
L 160.124299 92.736 
L 160.124299 91.056 
L 160.124299 89.376 
L 160.124299 87.696 
L 160.124299 86.016 
L 160.124299 84.336 
L 160.124299 82.656 
L 160.124299 80.976 
L 160.124299 79.296 
L 160.124299 77.616 
L 160.124299 75.936 
L 160.124299 74.256 
L 160.124299 72.576 
L 160.124299 70.896 
L 160.124299 69.216 
L 160.124299 67.536 
L 160.124299 65.856 
L 160.124299 64.176 
L 160.124299 62.496 
L 160.124299 60.816 
L 160.124299 59.136 
L 160.124299 57.456 
L 160.124299 55.776 
L 160.124299 54.096 
L 160.124299 52.416 
L 160.124299 50.736 
L 160.124299 49.056 
L 160.124299 47.376 
L 160.124299 45.696 
L 160.124299 44.016 
L 160.124299 42.336 
L 160.124299 40.656 
L 160.124299 38.976 
L 160.124299 37.296 
L 160.124299 35.616 
L 160.124299 33.936 
L 160.124299 32.256 
L 160.124299 30.576 
L 160.124299 28.896 
L 160.124299 27.216 
L 160.124299 25.536 
L 160.124299 23.856 
L 160.124299 22.176 
L 160.124299 20.496 
L 159.51083 20.496 
L 157.81992 20.496 
L 156.129011 20.496 
L 154.438102 20.496 
L 152.747193 20.496 
L 151.056284 20.496 
L 150.459568 20.496 
L 150.459568 22.176 
L 150.459568 23.856 
L 150.459568 25.536 
L 150.459568 27.216 
L 150.459568 28.896 
L 150.459568 30.576 
L 150.459568 32.256 
L 150.459568 33.936 
L 150.459568 35.616 
L 150.459568 37.296 
L 150.459568 38.976 
L 150.459568 40.656 
L 150.459568 42.336 
L 150.459568 44.016 
L 150.459568 45.696 
L 150.459568 47.376 
L 150.459568 49.056 
L 150.459568 50.736 
L 150.459568 52.416 
L 150.459568 54.096 
L 150.459568 55.776 
L 150.459568 57.456 
L 150.459568 59.136 
L 150.459568 60.816 
L 150.459568 62.496 
L 150.459568 64.176 
L 150.459568 65.856 
L 150.459568 67.536 
L 150.459568 69.216 
L 150.459568 70.896 
L 150.459568 72.576 
L 150.459568 74.256 
L 150.459568 75.936 
L 150.459568 77.616 
L 150.459568 79.296 
L 150.459568 80.976 
L 150.459568 82.656 
L 150.459568 84.336 
L 150.459568 86.016 
L 150.459568 87.696 
L 150.459568 89.376 
L 150.459568 91.056 
L 150.459568 92.736 
L 150.459568 94.416 
L 150.459568 96.096 
L 150.459568 97.776 
L 150.459568 99.456 
L 150.459568 101.136 
L 150.459568 102.816 
L 150.459568 104.496 
L 150.459568 106.176 
L 150.459568 107.856 
L 150.459568 109.536 
L 150.459568 111.216 
L 150.459568 112.896 
L 150.459568 114.576 
L 150.459568 116.256 
L 150.459568 117.936 
L 150.459568 119.616 
L 150.459568 121.296 
L 150.459568 122.976 
L 150.459568 124.656 
L 150.459568 126.336 
L 150.459568 128.016 
L 150.459568 129.696 
L 150.459568 131.376 
L 150.459568 133.056 
L 150.459568 134.736 
L 150.459568 136.416 
L 150.459568 138.096 
L 150.459568 139.776 
L 150.459568 141.456 
L 150.459568 143.136 
L 150.459568 144.816 
L 150.459568 146.496 
L 150.459568 148.176 
L 150.459568 149.856 
L 150.459568 151.536 
L 150.459568 153.216 
L 150.459568 154.896 
L 150.459568 156.576 
L 150.459568 158.256 
L 150.459568 159.936 
L 150.459568 161.616 
L 150.459568 163.296 
L 150.459568 164.976 
L 150.459568 166.656 
L 150.459568 168.336 
L 150.459568 170.016 
L 150.459568 171.696 
L 150.459568 173.376 
L 150.459568 175.056 
L 150.459568 176.736 
L 150.459568 178.416 
L 150.459568 180.096 
L 150.459568 181.776 
L 150.459568 183.456 
L 150.459568 185.136 
L 150.459568 186.816 
z
" clip-path="url(#pe712962e74)" style="fill: #f26d4b"/>
    <path d="M 161.201739 186.816 
L 162.892648 186.816 
L 164.583557 186.816 
L 166.274466 186.816 
L 167.965375 186.816 
L 169.656284 186.816 
L 169.789032 186.816 
L 169.789032 185.136 
L 169.789032 183.456 
L 169.789032 181.776 
L 169.789032 180.096 
L 169.789032 178.416 
L 169.789032 176.736 
L 169.789032 175.056 
L 169.789032 173.376 
L 169.789032 171.696 
L 169.789032 170.016 
L 169.789032 168.336 
L 169.789032 166.656 
L 169.789032 164.976 
L 169.789032 163.296 
L 169.789032 161.616 
L 169.789032 159.936 
L 169.789032 158.256 
L 169.789032 156.576 
L 169.789032 154.896 
L 169.789032 153.216 
L 169.789032 151.536 
L 169.789032 149.856 
L 169.789032 148.176 
L 169.789032 146.496 
L 169.789032 144.816 
L 169.789032 143.136 
L 169.789032 141.456 
L 169.789032 139.776 
L 169.789032 138.096 
L 169.789032 136.416 
L 169.789032 134.736 
L 169.789032 133.056 
L 169.789032 131.376 
L 169.789032 129.696 
L 169.789032 128.016 
L 169.789032 126.336 
L 169.789032 124.656 
L 169.789032 122.976 
L 169.789032 121.296 
L 169.789032 119.616 
L 169.789032 117.936 
L 169.789032 116.256 
L 169.789032 114.576 
L 169.789032 112.896 
L 169.789032 111.216 
L 169.789032 109.536 
L 169.789032 107.856 
L 169.789032 106.176 
L 169.789032 104.496 
L 169.789032 102.816 
L 169.789032 101.136 
L 169.789032 99.456 
L 169.789032 97.776 
L 169.789032 96.096 
L 169.789032 94.416 
L 169.789032 92.736 
L 169.789032 91.056 
L 169.789032 89.376 
L 169.789032 87.696 
L 169.789032 86.016 
L 169.789032 84.336 
L 169.789032 82.656 
L 169.789032 80.976 
L 169.789032 79.296 
L 169.789032 77.616 
L 169.789032 75.936 
L 169.789032 74.256 
L 169.789032 72.576 
L 169.789032 70.896 
L 169.789032 69.216 
L 169.789032 67.536 
L 169.789032 65.856 
L 169.789032 64.176 
L 169.789032 62.496 
L 169.789032 60.816 
L 169.789032 59.136 
L 169.789032 57.456 
L 169.789032 55.776 
L 169.789032 54.096 
L 169.789032 52.416 
L 169.789032 50.736 
L 169.789032 49.056 
L 169.789032 47.376 
L 169.789032 45.696 
L 169.789032 44.016 
L 169.789032 42.336 
L 169.789032 40.656 
L 169.789032 38.976 
L 169.789032 37.296 
L 169.789032 35.616 
L 169.789032 33.936 
L 169.789032 32.256 
L 169.789032 30.576 
L 169.789032 28.896 
L 169.789032 27.216 
L 169.789032 25.536 
L 169.789032 23.856 
L 169.789032 22.176 
L 169.789032 20.496 
L 169.656284 20.496 
L 167.965375 20.496 
L 166.274466 20.496 
L 164.583557 20.496 
L 162.892648 20.496 
L 161.201739 20.496 
L 160.124299 20.496 
L 160.124299 22.176 
L 160.124299 23.856 
L 160.124299 25.536 
L 160.124299 27.216 
L 160.124299 28.896 
L 160.124299 30.576 
L 160.124299 32.256 
L 160.124299 33.936 
L 160.124299 35.616 
L 160.124299 37.296 
L 160.124299 38.976 
L 160.124299 40.656 
L 160.124299 42.336 
L 160.124299 44.016 
L 160.124299 45.696 
L 160.124299 47.376 
L 160.124299 49.056 
L 160.124299 50.736 
L 160.124299 52.416 
L 160.124299 54.096 
L 160.124299 55.776 
L 160.124299 57.456 
L 160.124299 59.136 
L 160.124299 60.816 
L 160.124299 62.496 
L 160.124299 64.176 
L 160.124299 65.856 
L 160.124299 67.536 
L 160.124299 69.216 
L 160.124299 70.896 
L 160.124299 72.576 
L 160.124299 74.256 
L 160.124299 75.936 
L 160.124299 77.616 
L 160.124299 79.296 
L 160.124299 80.976 
L 160.124299 82.656 
L 160.124299 84.336 
L 160.124299 86.016 
L 160.124299 87.696 
L 160.124299 89.376 
L 160.124299 91.056 
L 160.124299 92.736 
L 160.124299 94.416 
L 160.124299 96.096 
L 160.124299 97.776 
L 160.124299 99.456 
L 160.124299 101.136 
L 160.124299 102.816 
L 160.124299 104.496 
L 160.124299 106.176 
L 160.124299 107.856 
L 160.124299 109.536 
L 160.124299 111.216 
L 160.124299 112.896 
L 160.124299 114.576 
L 160.124299 116.256 
L 160.124299 117.936 
L 160.124299 119.616 
L 160.124299 121.296 
L 160.124299 122.976 
L 160.124299 124.656 
L 160.124299 126.336 
L 160.124299 128.016 
L 160.124299 129.696 
L 160.124299 131.376 
L 160.124299 133.056 
L 160.124299 134.736 
L 160.124299 136.416 
L 160.124299 138.096 
L 160.124299 139.776 
L 160.124299 141.456 
L 160.124299 143.136 
L 160.124299 144.816 
L 160.124299 146.496 
L 160.124299 148.176 
L 160.124299 149.856 
L 160.124299 151.536 
L 160.124299 153.216 
L 160.124299 154.896 
L 160.124299 156.576 
L 160.124299 158.256 
L 160.124299 159.936 
L 160.124299 161.616 
L 160.124299 163.296 
L 160.124299 164.976 
L 160.124299 166.656 
L 160.124299 168.336 
L 160.124299 170.016 
L 160.124299 171.696 
L 160.124299 173.376 
L 160.124299 175.056 
L 160.124299 176.736 
L 160.124299 178.416 
L 160.124299 180.096 
L 160.124299 181.776 
L 160.124299 183.456 
L 160.124299 185.136 
L 160.124299 186.816 
z
" clip-path="url(#pe712962e74)" style="fill: #f58860"/>
    <path d="M 171.347193 186.816 
L 173.038102 186.816 
L 174.729011 186.816 
L 176.41992 186.816 
L 178.11083 186.816 
L 179.453765 186.816 
L 179.453765 185.136 
L 179.453765 183.456 
L 179.453765 181.776 
L 179.453765 180.096 
L 179.453765 178.416 
L 179.453765 176.736 
L 179.453765 175.056 
L 179.453765 173.376 
L 179.453765 171.696 
L 179.453765 170.016 
L 179.453765 168.336 
L 179.453765 166.656 
L 179.453765 164.976 
L 179.453765 163.296 
L 179.453765 161.616 
L 179.453765 159.936 
L 179.453765 158.256 
L 179.453765 156.576 
L 179.453765 154.896 
L 179.453765 153.216 
L 179.453765 151.536 
L 179.453765 149.856 
L 179.453765 148.176 
L 179.453765 146.496 
L 179.453765 144.816 
L 179.453765 143.136 
L 179.453765 141.456 
L 179.453765 139.776 
L 179.453765 138.096 
L 179.453765 136.416 
L 179.453765 134.736 
L 179.453765 133.056 
L 179.453765 131.376 
L 179.453765 129.696 
L 179.453765 128.016 
L 179.453765 126.336 
L 179.453765 124.656 
L 179.453765 122.976 
L 179.453765 121.296 
L 179.453765 119.616 
L 179.453765 117.936 
L 179.453765 116.256 
L 179.453765 114.576 
L 179.453765 112.896 
L 179.453765 111.216 
L 179.453765 109.536 
L 179.453765 107.856 
L 179.453765 106.176 
L 179.453765 104.496 
L 179.453765 102.816 
L 179.453765 101.136 
L 179.453765 99.456 
L 179.453765 97.776 
L 179.453765 96.096 
L 179.453765 94.416 
L 179.453765 92.736 
L 179.453765 91.056 
L 179.453765 89.376 
L 179.453765 87.696 
L 179.453765 86.016 
L 179.453765 84.336 
L 179.453765 82.656 
L 179.453765 80.976 
L 179.453765 79.296 
L 179.453765 77.616 
L 179.453765 75.936 
L 179.453765 74.256 
L 179.453765 72.576 
L 179.453765 70.896 
L 179.453765 69.216 
L 179.453765 67.536 
L 179.453765 65.856 
L 179.453765 64.176 
L 179.453765 62.496 
L 179.453765 60.816 
L 179.453765 59.136 
L 179.453765 57.456 
L 179.453765 55.776 
L 179.453765 54.096 
L 179.453765 52.416 
L 179.453765 50.736 
L 179.453765 49.056 
L 179.453765 47.376 
L 179.453765 45.696 
L 179.453765 44.016 
L 179.453765 42.336 
L 179.453765 40.656 
L 179.453765 38.976 
L 179.453765 37.296 
L 179.453765 35.616 
L 179.453765 33.936 
L 179.453765 32.256 
L 179.453765 30.576 
L 179.453765 28.896 
L 179.453765 27.216 
L 179.453765 25.536 
L 179.453765 23.856 
L 179.453765 22.176 
L 179.453765 20.496 
L 178.11083 20.496 
L 176.41992 20.496 
L 174.729011 20.496 
L 173.038102 20.496 
L 171.347193 20.496 
L 169.789032 20.496 
L 169.789032 22.176 
L 169.789032 23.856 
L 169.789032 25.536 
L 169.789032 27.216 
L 169.789032 28.896 
L 169.789032 30.576 
L 169.789032 32.256 
L 169.789032 33.936 
L 169.789032 35.616 
L 169.789032 37.296 
L 169.789032 38.976 
L 169.789032 40.656 
L 169.789032 42.336 
L 169.789032 44.016 
L 169.789032 45.696 
L 169.789032 47.376 
L 169.789032 49.056 
L 169.789032 50.736 
L 169.789032 52.416 
L 169.789032 54.096 
L 169.789032 55.776 
L 169.789032 57.456 
L 169.789032 59.136 
L 169.789032 60.816 
L 169.789032 62.496 
L 169.789032 64.176 
L 169.789032 65.856 
L 169.789032 67.536 
L 169.789032 69.216 
L 169.789032 70.896 
L 169.789032 72.576 
L 169.789032 74.256 
L 169.789032 75.936 
L 169.789032 77.616 
L 169.789032 79.296 
L 169.789032 80.976 
L 169.789032 82.656 
L 169.789032 84.336 
L 169.789032 86.016 
L 169.789032 87.696 
L 169.789032 89.376 
L 169.789032 91.056 
L 169.789032 92.736 
L 169.789032 94.416 
L 169.789032 96.096 
L 169.789032 97.776 
L 169.789032 99.456 
L 169.789032 101.136 
L 169.789032 102.816 
L 169.789032 104.496 
L 169.789032 106.176 
L 169.789032 107.856 
L 169.789032 109.536 
L 169.789032 111.216 
L 169.789032 112.896 
L 169.789032 114.576 
L 169.789032 116.256 
L 169.789032 117.936 
L 169.789032 119.616 
L 169.789032 121.296 
L 169.789032 122.976 
L 169.789032 124.656 
L 169.789032 126.336 
L 169.789032 128.016 
L 169.789032 129.696 
L 169.789032 131.376 
L 169.789032 133.056 
L 169.789032 134.736 
L 169.789032 136.416 
L 169.789032 138.096 
L 169.789032 139.776 
L 169.789032 141.456 
L 169.789032 143.136 
L 169.789032 144.816 
L 169.789032 146.496 
L 169.789032 148.176 
L 169.789032 149.856 
L 169.789032 151.536 
L 169.789032 153.216 
L 169.789032 154.896 
L 169.789032 156.576 
L 169.789032 158.256 
L 169.789032 159.936 
L 169.789032 161.616 
L 169.789032 163.296 
L 169.789032 164.976 
L 169.789032 166.656 
L 169.789032 168.336 
L 169.789032 170.016 
L 169.789032 171.696 
L 169.789032 173.376 
L 169.789032 175.056 
L 169.789032 176.736 
L 169.789032 178.416 
L 169.789032 180.096 
L 169.789032 181.776 
L 169.789032 183.456 
L 169.789032 185.136 
L 169.789032 186.816 
z
" clip-path="url(#pe712962e74)" style="fill: #f6a077"/>
    <path d="M 179.801739 186.816 
L 181.492648 186.816 
L 183.183557 186.816 
L 184.874466 186.816 
L 186.565375 186.816 
L 188.256284 186.816 
L 189.118495 186.816 
L 189.118495 185.136 
L 189.118495 183.456 
L 189.118495 181.776 
L 189.118495 180.096 
L 189.118495 178.416 
L 189.118495 176.736 
L 189.118495 175.056 
L 189.118495 173.376 
L 189.118495 171.696 
L 189.118495 170.016 
L 189.118495 168.336 
L 189.118495 166.656 
L 189.118495 164.976 
L 189.118495 163.296 
L 189.118495 161.616 
L 189.118495 159.936 
L 189.118495 158.256 
L 189.118495 156.576 
L 189.118495 154.896 
L 189.118495 153.216 
L 189.118495 151.536 
L 189.118495 149.856 
L 189.118495 148.176 
L 189.118495 146.496 
L 189.118495 144.816 
L 189.118495 143.136 
L 189.118495 141.456 
L 189.118495 139.776 
L 189.118495 138.096 
L 189.118495 136.416 
L 189.118495 134.736 
L 189.118495 133.056 
L 189.118495 131.376 
L 189.118495 129.696 
L 189.118495 128.016 
L 189.118495 126.336 
L 189.118495 124.656 
L 189.118495 122.976 
L 189.118495 121.296 
L 189.118495 119.616 
L 189.118495 117.936 
L 189.118495 116.256 
L 189.118495 114.576 
L 189.118495 112.896 
L 189.118495 111.216 
L 189.118495 109.536 
L 189.118495 107.856 
L 189.118495 106.176 
L 189.118495 104.496 
L 189.118495 102.816 
L 189.118495 101.136 
L 189.118495 99.456 
L 189.118495 97.776 
L 189.118495 96.096 
L 189.118495 94.416 
L 189.118495 92.736 
L 189.118495 91.056 
L 189.118495 89.376 
L 189.118495 87.696 
L 189.118495 86.016 
L 189.118495 84.336 
L 189.118495 82.656 
L 189.118495 80.976 
L 189.118495 79.296 
L 189.118495 77.616 
L 189.118495 75.936 
L 189.118495 74.256 
L 189.118495 72.576 
L 189.118495 70.896 
L 189.118495 69.216 
L 189.118495 67.536 
L 189.118495 65.856 
L 189.118495 64.176 
L 189.118495 62.496 
L 189.118495 60.816 
L 189.118495 59.136 
L 189.118495 57.456 
L 189.118495 55.776 
L 189.118495 54.096 
L 189.118495 52.416 
L 189.118495 50.736 
L 189.118495 49.056 
L 189.118495 47.376 
L 189.118495 45.696 
L 189.118495 44.016 
L 189.118495 42.336 
L 189.118495 40.656 
L 189.118495 38.976 
L 189.118495 37.296 
L 189.118495 35.616 
L 189.118495 33.936 
L 189.118495 32.256 
L 189.118495 30.576 
L 189.118495 28.896 
L 189.118495 27.216 
L 189.118495 25.536 
L 189.118495 23.856 
L 189.118495 22.176 
L 189.118495 20.496 
L 188.256284 20.496 
L 186.565375 20.496 
L 184.874466 20.496 
L 183.183557 20.496 
L 181.492648 20.496 
L 179.801739 20.496 
L 179.453765 20.496 
L 179.453765 22.176 
L 179.453765 23.856 
L 179.453765 25.536 
L 179.453765 27.216 
L 179.453765 28.896 
L 179.453765 30.576 
L 179.453765 32.256 
L 179.453765 33.936 
L 179.453765 35.616 
L 179.453765 37.296 
L 179.453765 38.976 
L 179.453765 40.656 
L 179.453765 42.336 
L 179.453765 44.016 
L 179.453765 45.696 
L 179.453765 47.376 
L 179.453765 49.056 
L 179.453765 50.736 
L 179.453765 52.416 
L 179.453765 54.096 
L 179.453765 55.776 
L 179.453765 57.456 
L 179.453765 59.136 
L 179.453765 60.816 
L 179.453765 62.496 
L 179.453765 64.176 
L 179.453765 65.856 
L 179.453765 67.536 
L 179.453765 69.216 
L 179.453765 70.896 
L 179.453765 72.576 
L 179.453765 74.256 
L 179.453765 75.936 
L 179.453765 77.616 
L 179.453765 79.296 
L 179.453765 80.976 
L 179.453765 82.656 
L 179.453765 84.336 
L 179.453765 86.016 
L 179.453765 87.696 
L 179.453765 89.376 
L 179.453765 91.056 
L 179.453765 92.736 
L 179.453765 94.416 
L 179.453765 96.096 
L 179.453765 97.776 
L 179.453765 99.456 
L 179.453765 101.136 
L 179.453765 102.816 
L 179.453765 104.496 
L 179.453765 106.176 
L 179.453765 107.856 
L 179.453765 109.536 
L 179.453765 111.216 
L 179.453765 112.896 
L 179.453765 114.576 
L 179.453765 116.256 
L 179.453765 117.936 
L 179.453765 119.616 
L 179.453765 121.296 
L 179.453765 122.976 
L 179.453765 124.656 
L 179.453765 126.336 
L 179.453765 128.016 
L 179.453765 129.696 
L 179.453765 131.376 
L 179.453765 133.056 
L 179.453765 134.736 
L 179.453765 136.416 
L 179.453765 138.096 
L 179.453765 139.776 
L 179.453765 141.456 
L 179.453765 143.136 
L 179.453765 144.816 
L 179.453765 146.496 
L 179.453765 148.176 
L 179.453765 149.856 
L 179.453765 151.536 
L 179.453765 153.216 
L 179.453765 154.896 
L 179.453765 156.576 
L 179.453765 158.256 
L 179.453765 159.936 
L 179.453765 161.616 
L 179.453765 163.296 
L 179.453765 164.976 
L 179.453765 166.656 
L 179.453765 168.336 
L 179.453765 170.016 
L 179.453765 171.696 
L 179.453765 173.376 
L 179.453765 175.056 
L 179.453765 176.736 
L 179.453765 178.416 
L 179.453765 180.096 
L 179.453765 181.776 
L 179.453765 183.456 
L 179.453765 185.136 
L 179.453765 186.816 
z
" clip-path="url(#pe712962e74)" style="fill: #f6b691"/>
    <path d="M 189.947193 186.816 
L 191.638102 186.816 
L 193.329011 186.816 
L 195.01992 186.816 
L 196.71083 186.816 
L 198.401739 186.816 
L 198.783229 186.816 
L 198.783229 185.136 
L 198.783229 183.456 
L 198.783229 181.776 
L 198.783229 180.096 
L 198.783229 178.416 
L 198.783229 176.736 
L 198.783229 175.056 
L 198.783229 173.376 
L 198.783229 171.696 
L 198.783229 170.016 
L 198.783229 168.336 
L 198.783229 166.656 
L 198.783229 164.976 
L 198.783229 163.296 
L 198.783229 161.616 
L 198.783229 159.936 
L 198.783229 158.256 
L 198.783229 156.576 
L 198.783229 154.896 
L 198.783229 153.216 
L 198.783229 151.536 
L 198.783229 149.856 
L 198.783229 148.176 
L 198.783229 146.496 
L 198.783229 144.816 
L 198.783229 143.136 
L 198.783229 141.456 
L 198.783229 139.776 
L 198.783229 138.096 
L 198.783229 136.416 
L 198.783229 134.736 
L 198.783229 133.056 
L 198.783229 131.376 
L 198.783229 129.696 
L 198.783229 128.016 
L 198.783229 126.336 
L 198.783229 124.656 
L 198.783229 122.976 
L 198.783229 121.296 
L 198.783229 119.616 
L 198.783229 117.936 
L 198.783229 116.256 
L 198.783229 114.576 
L 198.783229 112.896 
L 198.783229 111.216 
L 198.783229 109.536 
L 198.783229 107.856 
L 198.783229 106.176 
L 198.783229 104.496 
L 198.783229 102.816 
L 198.783229 101.136 
L 198.783229 99.456 
L 198.783229 97.776 
L 198.783229 96.096 
L 198.783229 94.416 
L 198.783229 92.736 
L 198.783229 91.056 
L 198.783229 89.376 
L 198.783229 87.696 
L 198.783229 86.016 
L 198.783229 84.336 
L 198.783229 82.656 
L 198.783229 80.976 
L 198.783229 79.296 
L 198.783229 77.616 
L 198.783229 75.936 
L 198.783229 74.256 
L 198.783229 72.576 
L 198.783229 70.896 
L 198.783229 69.216 
L 198.783229 67.536 
L 198.783229 65.856 
L 198.783229 64.176 
L 198.783229 62.496 
L 198.783229 60.816 
L 198.783229 59.136 
L 198.783229 57.456 
L 198.783229 55.776 
L 198.783229 54.096 
L 198.783229 52.416 
L 198.783229 50.736 
L 198.783229 49.056 
L 198.783229 47.376 
L 198.783229 45.696 
L 198.783229 44.016 
L 198.783229 42.336 
L 198.783229 40.656 
L 198.783229 38.976 
L 198.783229 37.296 
L 198.783229 35.616 
L 198.783229 33.936 
L 198.783229 32.256 
L 198.783229 30.576 
L 198.783229 28.896 
L 198.783229 27.216 
L 198.783229 25.536 
L 198.783229 23.856 
L 198.783229 22.176 
L 198.783229 20.496 
L 198.401739 20.496 
L 196.71083 20.496 
L 195.01992 20.496 
L 193.329011 20.496 
L 191.638102 20.496 
L 189.947193 20.496 
L 189.118495 20.496 
L 189.118495 22.176 
L 189.118495 23.856 
L 189.118495 25.536 
L 189.118495 27.216 
L 189.118495 28.896 
L 189.118495 30.576 
L 189.118495 32.256 
L 189.118495 33.936 
L 189.118495 35.616 
L 189.118495 37.296 
L 189.118495 38.976 
L 189.118495 40.656 
L 189.118495 42.336 
L 189.118495 44.016 
L 189.118495 45.696 
L 189.118495 47.376 
L 189.118495 49.056 
L 189.118495 50.736 
L 189.118495 52.416 
L 189.118495 54.096 
L 189.118495 55.776 
L 189.118495 57.456 
L 189.118495 59.136 
L 189.118495 60.816 
L 189.118495 62.496 
L 189.118495 64.176 
L 189.118495 65.856 
L 189.118495 67.536 
L 189.118495 69.216 
L 189.118495 70.896 
L 189.118495 72.576 
L 189.118495 74.256 
L 189.118495 75.936 
L 189.118495 77.616 
L 189.118495 79.296 
L 189.118495 80.976 
L 189.118495 82.656 
L 189.118495 84.336 
L 189.118495 86.016 
L 189.118495 87.696 
L 189.118495 89.376 
L 189.118495 91.056 
L 189.118495 92.736 
L 189.118495 94.416 
L 189.118495 96.096 
L 189.118495 97.776 
L 189.118495 99.456 
L 189.118495 101.136 
L 189.118495 102.816 
L 189.118495 104.496 
L 189.118495 106.176 
L 189.118495 107.856 
L 189.118495 109.536 
L 189.118495 111.216 
L 189.118495 112.896 
L 189.118495 114.576 
L 189.118495 116.256 
L 189.118495 117.936 
L 189.118495 119.616 
L 189.118495 121.296 
L 189.118495 122.976 
L 189.118495 124.656 
L 189.118495 126.336 
L 189.118495 128.016 
L 189.118495 129.696 
L 189.118495 131.376 
L 189.118495 133.056 
L 189.118495 134.736 
L 189.118495 136.416 
L 189.118495 138.096 
L 189.118495 139.776 
L 189.118495 141.456 
L 189.118495 143.136 
L 189.118495 144.816 
L 189.118495 146.496 
L 189.118495 148.176 
L 189.118495 149.856 
L 189.118495 151.536 
L 189.118495 153.216 
L 189.118495 154.896 
L 189.118495 156.576 
L 189.118495 158.256 
L 189.118495 159.936 
L 189.118495 161.616 
L 189.118495 163.296 
L 189.118495 164.976 
L 189.118495 166.656 
L 189.118495 168.336 
L 189.118495 170.016 
L 189.118495 171.696 
L 189.118495 173.376 
L 189.118495 175.056 
L 189.118495 176.736 
L 189.118495 178.416 
L 189.118495 180.096 
L 189.118495 181.776 
L 189.118495 183.456 
L 189.118495 185.136 
L 189.118495 186.816 
z
" clip-path="url(#pe712962e74)" style="fill: #f7ccaf"/>
    <path d="M 200.092648 186.816 
L 201.783557 186.816 
L 203.474466 186.816 
L 205.165375 186.816 
L 205.165375 185.136 
L 205.165375 183.456 
L 205.165375 181.776 
L 205.165375 180.096 
L 205.165375 178.416 
L 205.165375 176.736 
L 205.165375 175.056 
L 205.165375 173.376 
L 205.165375 171.696 
L 205.165375 170.016 
L 205.165375 168.336 
L 205.165375 166.656 
L 205.165375 164.976 
L 205.165375 163.296 
L 205.165375 161.616 
L 205.165375 159.936 
L 205.165375 158.256 
L 205.165375 156.576 
L 205.165375 154.896 
L 205.165375 153.216 
L 205.165375 151.536 
L 205.165375 149.856 
L 205.165375 148.176 
L 205.165375 146.496 
L 205.165375 144.816 
L 205.165375 143.136 
L 205.165375 141.456 
L 205.165375 139.776 
L 205.165375 138.096 
L 205.165375 136.416 
L 205.165375 134.736 
L 205.165375 133.056 
L 205.165375 131.376 
L 205.165375 129.696 
L 205.165375 128.016 
L 205.165375 126.336 
L 205.165375 124.656 
L 205.165375 122.976 
L 205.165375 121.296 
L 205.165375 119.616 
L 205.165375 117.936 
L 205.165375 116.256 
L 205.165375 114.576 
L 205.165375 112.896 
L 205.165375 111.216 
L 205.165375 109.536 
L 205.165375 107.856 
L 205.165375 106.176 
L 205.165375 104.496 
L 205.165375 102.816 
L 205.165375 101.136 
L 205.165375 99.456 
L 205.165375 97.776 
L 205.165375 96.096 
L 205.165375 94.416 
L 205.165375 92.736 
L 205.165375 91.056 
L 205.165375 89.376 
L 205.165375 87.696 
L 205.165375 86.016 
L 205.165375 84.336 
L 205.165375 82.656 
L 205.165375 80.976 
L 205.165375 79.296 
L 205.165375 77.616 
L 205.165375 75.936 
L 205.165375 74.256 
L 205.165375 72.576 
L 205.165375 70.896 
L 205.165375 69.216 
L 205.165375 67.536 
L 205.165375 65.856 
L 205.165375 64.176 
L 205.165375 62.496 
L 205.165375 60.816 
L 205.165375 59.136 
L 205.165375 57.456 
L 205.165375 55.776 
L 205.165375 54.096 
L 205.165375 52.416 
L 205.165375 50.736 
L 205.165375 49.056 
L 205.165375 47.376 
L 205.165375 45.696 
L 205.165375 44.016 
L 205.165375 42.336 
L 205.165375 40.656 
L 205.165375 38.976 
L 205.165375 37.296 
L 205.165375 35.616 
L 205.165375 33.936 
L 205.165375 32.256 
L 205.165375 30.576 
L 205.165375 28.896 
L 205.165375 27.216 
L 205.165375 25.536 
L 205.165375 23.856 
L 205.165375 22.176 
L 205.165375 20.496 
L 203.474466 20.496 
L 201.783557 20.496 
L 200.092648 20.496 
L 198.783229 20.496 
L 198.783229 22.176 
L 198.783229 23.856 
L 198.783229 25.536 
L 198.783229 27.216 
L 198.783229 28.896 
L 198.783229 30.576 
L 198.783229 32.256 
L 198.783229 33.936 
L 198.783229 35.616 
L 198.783229 37.296 
L 198.783229 38.976 
L 198.783229 40.656 
L 198.783229 42.336 
L 198.783229 44.016 
L 198.783229 45.696 
L 198.783229 47.376 
L 198.783229 49.056 
L 198.783229 50.736 
L 198.783229 52.416 
L 198.783229 54.096 
L 198.783229 55.776 
L 198.783229 57.456 
L 198.783229 59.136 
L 198.783229 60.816 
L 198.783229 62.496 
L 198.783229 64.176 
L 198.783229 65.856 
L 198.783229 67.536 
L 198.783229 69.216 
L 198.783229 70.896 
L 198.783229 72.576 
L 198.783229 74.256 
L 198.783229 75.936 
L 198.783229 77.616 
L 198.783229 79.296 
L 198.783229 80.976 
L 198.783229 82.656 
L 198.783229 84.336 
L 198.783229 86.016 
L 198.783229 87.696 
L 198.783229 89.376 
L 198.783229 91.056 
L 198.783229 92.736 
L 198.783229 94.416 
L 198.783229 96.096 
L 198.783229 97.776 
L 198.783229 99.456 
L 198.783229 101.136 
L 198.783229 102.816 
L 198.783229 104.496 
L 198.783229 106.176 
L 198.783229 107.856 
L 198.783229 109.536 
L 198.783229 111.216 
L 198.783229 112.896 
L 198.783229 114.576 
L 198.783229 116.256 
L 198.783229 117.936 
L 198.783229 119.616 
L 198.783229 121.296 
L 198.783229 122.976 
L 198.783229 124.656 
L 198.783229 126.336 
L 198.783229 128.016 
L 198.783229 129.696 
L 198.783229 131.376 
L 198.783229 133.056 
L 198.783229 134.736 
L 198.783229 136.416 
L 198.783229 138.096 
L 198.783229 139.776 
L 198.783229 141.456 
L 198.783229 143.136 
L 198.783229 144.816 
L 198.783229 146.496 
L 198.783229 148.176 
L 198.783229 149.856 
L 198.783229 151.536 
L 198.783229 153.216 
L 198.783229 154.896 
L 198.783229 156.576 
L 198.783229 158.256 
L 198.783229 159.936 
L 198.783229 161.616 
L 198.783229 163.296 
L 198.783229 164.976 
L 198.783229 166.656 
L 198.783229 168.336 
L 198.783229 170.016 
L 198.783229 171.696 
L 198.783229 173.376 
L 198.783229 175.056 
L 198.783229 176.736 
L 198.783229 178.416 
L 198.783229 180.096 
L 198.783229 181.776 
L 198.783229 183.456 
L 198.783229 185.136 
L 198.783229 186.816 
z
" clip-path="url(#pe712962e74)" style="fill: #f9e0cd"/>
   </g>
   <g id="patch_3">
    <path d="M 37.765375 186.816 
L 37.765375 20.496 
" style="fill: none; stroke: #262626; stroke-linejoin: miter; stroke-linecap: square"/>
   </g>
   <g id="patch_4">
    <path d="M 205.165375 186.816 
L 205.165375 20.496 
" style="fill: none; stroke: #262626; stroke-linejoin: miter; stroke-linecap: square"/>
   </g>
   <g id="patch_5">
    <path d="M 37.765375 186.816 
L 205.165375 186.816 
" style="fill: none; stroke: #262626; stroke-linejoin: miter; stroke-linecap: square"/>
   </g>
   <g id="patch_6">
    <path d="M 37.765375 20.496 
L 205.165375 20.496 
" style="fill: none; stroke: #262626; stroke-linejoin: miter; stroke-linecap: square"/>
   </g>
   <g id="text_15">
    <!-- $\psi_{1} = \phi_{11}\otimes \phi_{20}$ -->
    <g style="fill: #262626" transform="translate(89.065375 14.496) scale(0.096 -0.096)">
     <defs>
      <path id="DejaVuSans-Oblique-3c8" d="M 1591 -78 
Q 891 38 616 341 
Q 278 713 425 1472 
L 819 3500 
L 1400 3500 
L 1009 1494 
Q 900 922 1119 684 
Q 1313 478 1691 434 
L 2284 3500 
L 2856 3500 
L 2263 438 
Q 2681 481 2928 688 
Q 3247 950 3353 1497 
L 3741 3500 
L 4322 3500 
L 3928 1475 
Q 3775 688 3300 344 
Q 2872 34 2163 -75 
L 1919 -1331 
L 1347 -1331 
L 1591 -78 
z
" transform="scale(0.015625)"/>
      <path id="DejaVuSans-31" d="M 794 531 
L 1825 531 
L 1825 4091 
L 703 3866 
L 703 4441 
L 1819 4666 
L 2450 4666 
L 2450 531 
L 3481 531 
L 3481 0 
L 794 0 
L 794 531 
z
" transform="scale(0.015625)"/>
      <path id="DejaVuSans-3d" d="M 678 2906 
L 4684 2906 
L 4684 2381 
L 678 2381 
L 678 2906 
z
M 678 1631 
L 4684 1631 
L 4684 1100 
L 678 1100 
L 678 1631 
z
" transform="scale(0.015625)"/>
      <path id="DejaVuSans-Oblique-3d5" d="M 2991 4863 
L 2738 3572 
Q 3363 3572 3684 3094 
Q 4016 2606 3850 1747 
Q 3681 888 3159 400 
Q 2653 -78 2028 -78 
L 1784 -1331 
L 1213 -1331 
L 1456 -78 
Q 834 -78 509 400 
Q 178 888 347 1747 
Q 513 2606 1034 3094 
Q 1544 3572 2166 3572 
L 2419 4863 
L 2991 4863 
z
M 2128 434 
Q 2481 434 2784 756 
Q 3116 1116 3244 1747 
Q 3369 2372 3169 2738 
Q 2991 3059 2638 3059 
L 2128 434 
z
M 1556 434 
L 2066 3059 
Q 1716 3059 1413 2738 
Q 1072 2372 953 1747 
Q 834 1116 1028 756 
Q 1203 434 1556 434 
z
" transform="scale(0.015625)"/>
      <path id="DejaVuSans-2297" d="M 3306 3522 
Q 3016 3644 2681 3644 
Q 2347 3644 2056 3522 
Q 1769 3400 1531 3163 
Q 1291 2922 1172 2634 
Q 1053 2347 1053 2006 
Q 1053 1675 1172 1387 
Q 1291 1100 1531 859 
Q 1769 622 2056 500 
Q 2347 378 2681 378 
Q 3016 378 3306 500 
Q 3594 622 3831 859 
Q 4072 1100 4190 1387 
Q 4309 1675 4309 2006 
Q 4309 2347 4190 2634 
Q 4072 2922 3831 3163 
Q 3594 3400 3306 3522 
z
M 1878 3956 
Q 2250 4113 2681 4113 
Q 3113 4113 3484 3956 
Q 3856 3800 4163 3494 
Q 4472 3184 4625 2813 
Q 4778 2444 4778 2006 
Q 4778 1578 4625 1206 
Q 4472 838 4163 528 
Q 3856 222 3484 65 
Q 3113 -91 2681 -91 
Q 2250 -91 1878 65 
Q 1506 222 1200 528 
Q 891 838 738 1206 
Q 584 1578 584 2006 
Q 584 2444 738 2813 
Q 891 3184 1200 3494 
Q 1506 3800 1878 3956 
z
M 3847 2794 
L 3056 2006 
L 3844 1219 
L 3469 844 
L 2681 1631 
L 1894 841 
L 1516 1219 
L 2306 2006 
L 1519 2794 
L 1894 3169 
L 2681 2381 
L 3469 3172 
L 3847 2794 
z
" transform="scale(0.015625)"/>
      <path id="DejaVuSans-32" d="M 1228 531 
L 3431 531 
L 3431 0 
L 469 0 
L 469 531 
Q 828 903 1448 1529 
Q 2069 2156 2228 2338 
Q 2531 2678 2651 2914 
Q 2772 3150 2772 3378 
Q 2772 3750 2511 3984 
Q 2250 4219 1831 4219 
Q 1534 4219 1204 4116 
Q 875 4013 500 3803 
L 500 4441 
Q 881 4594 1212 4672 
Q 1544 4750 1819 4750 
Q 2544 4750 2975 4387 
Q 3406 4025 3406 3419 
Q 3406 3131 3298 2873 
Q 3191 2616 2906 2266 
Q 2828 2175 2409 1742 
Q 1991 1309 1228 531 
z
" transform="scale(0.015625)"/>
      <path id="DejaVuSans-30" d="M 2034 4250 
Q 1547 4250 1301 3770 
Q 1056 3291 1056 2328 
Q 1056 1369 1301 889 
Q 1547 409 2034 409 
Q 2525 409 2770 889 
Q 3016 1369 3016 2328 
Q 3016 3291 2770 3770 
Q 2525 4250 2034 4250 
z
M 2034 4750 
Q 2819 4750 3233 4129 
Q 3647 3509 3647 2328 
Q 3647 1150 3233 529 
Q 2819 -91 2034 -91 
Q 1250 -91 836 529 
Q 422 1150 422 2328 
Q 422 3509 836 4129 
Q 1250 4750 2034 4750 
z
" transform="scale(0.015625)"/>
     </defs>
     <use xlink:href="#DejaVuSans-Oblique-3c8" transform="translate(0 0.015625)"/>
     <use xlink:href="#DejaVuSans-31" transform="translate(65.966797 -16.390625) scale(0.7)"/>
     <use xlink:href="#DejaVuSans-3d" transform="translate(132.719727 0.015625)"/>
     <use xlink:href="#DejaVuSans-Oblique-3d5" transform="translate(235.991211 0.015625)"/>
     <use xlink:href="#DejaVuSans-31" transform="translate(301.958008 -16.390625) scale(0.7)"/>
     <use xlink:href="#DejaVuSans-31" transform="translate(346.494141 -16.390625) scale(0.7)"/>
     <use xlink:href="#DejaVuSans-2297" transform="translate(413.24707 0.015625)"/>
     <use xlink:href="#DejaVuSans-Oblique-3d5" transform="translate(516.518555 0.015625)"/>
     <use xlink:href="#DejaVuSans-32" transform="translate(582.485352 -16.390625) scale(0.7)"/>
     <use xlink:href="#DejaVuSans-30" transform="translate(627.021484 -16.390625) scale(0.7)"/>
    </g>
   </g>
  </g>
 </g>
 <defs>
  <clipPath id="pe712962e74">
   <rect x="37.765375" y="20.496" width="167.4" height="166.32"/>
  </clipPath>
 </defs>
</svg>