<?xml version="1.0" encoding="utf-8" standalone="no"?>
<!DOCTYPE svg PUBLIC "-//W3C//DTD SVG 1.1//EN"
  "http://www.w3.org/Graphics/SVG/1.1/DTD/svg11.dtd">
<svg xmlns:xlink="http://www.w3.org/1999/xlink" width="377.46135pt" height="300.009312pt" viewBox="0 0 377.46135 300.009312" xmlns="http://www.w3.org/2000/svg" version="1.1">
 <metadata>
  <rdf:RDF xmlns:dc="http://purl.org/dc/elements/1.1/" xmlns:cc="http://creativecommons.org/ns#" xmlns:rdf="http://www.w3.org/1999/02/22-rdf-syntax-ns#">
   <cc:Work>
    <dc:type rdf:resource="http://purl.org/dc/dcmitype/StillImage"/>
    <dc:date>2024-10-22T07:04:39.938794</dc:date>
    <dc:format>image/svg+xml</dc:format>
    <dc:creator>
     <cc:Agent>
      <dc:title>Matplotlib v3.9.2, https://matplotlib.org/</dc:title>
     </cc:Agent>
    </dc:creator>
   </cc:Work>
  </rdf:RDF>
 </metadata>
 <defs>
  <style type="text/css">*{stroke-linejoin: round; stroke-linecap: butt}</style>
 </defs>
 <g id="figure_1">
  <g id="patch_1">
   <path d="M 0 300.009312 
L 377.46135 300.009312 
L 377.46135 0 
L 0 0 
z
" style="fill: #ffffff"/>
  </g>
  <g id="axes_1">
   <g id="patch_2">
    <path d="M 27.732 276.461437 
L 313.428 276.461437 
L 313.428 10.349437 
L 27.732 10.349437 
z
" style="fill: #ffffff"/>
   </g>
   <g id="matplotlib.axis_1">
    <g id="xtick_1">
     <g id="line2d_1">
      <defs>
       <path id="me7c1d5255c" d="M 0 0 
L 0 4.8 
" style="stroke: #262626"/>
      </defs>
      <g>
       <use xlink:href="#me7c1d5255c" x="27.732" y="276.461437" style="fill: #262626; stroke: #262626"/>
      </g>
     </g>
     <g id="text_1">
      <!-- 0.0 -->
      <g style="fill: #262626" transform="translate(21.616 291.060312) scale(0.088 -0.088)">
       <defs>
        <path id="ArialMT-30" d="M 266 2259 
Q 266 3072 433 3567 
Q 600 4063 929 4331 
Q 1259 4600 1759 4600 
Q 2128 4600 2406 4451 
Q 2684 4303 2865 4023 
Q 3047 3744 3150 3342 
Q 3253 2941 3253 2259 
Q 3253 1453 3087 958 
Q 2922 463 2592 192 
Q 2263 -78 1759 -78 
Q 1097 -78 719 397 
Q 266 969 266 2259 
z
M 844 2259 
Q 844 1131 1108 757 
Q 1372 384 1759 384 
Q 2147 384 2411 759 
Q 2675 1134 2675 2259 
Q 2675 3391 2411 3762 
Q 2147 4134 1753 4134 
Q 1366 4134 1134 3806 
Q 844 3388 844 2259 
z
" transform="scale(0.015625)"/>
        <path id="ArialMT-2e" d="M 581 0 
L 581 641 
L 1222 641 
L 1222 0 
L 581 0 
z
" transform="scale(0.015625)"/>
       </defs>
       <use xlink:href="#ArialMT-30"/>
       <use xlink:href="#ArialMT-2e" x="55.615234"/>
       <use xlink:href="#ArialMT-30" x="83.398438"/>
      </g>
     </g>
    </g>
    <g id="xtick_2">
     <g id="line2d_2">
      <g>
       <use xlink:href="#me7c1d5255c" x="84.8712" y="276.461437" style="fill: #262626; stroke: #262626"/>
      </g>
     </g>
     <g id="text_2">
      <!-- 0.2 -->
      <g style="fill: #262626" transform="translate(78.7552 291.060312) scale(0.088 -0.088)">
       <defs>
        <path id="ArialMT-32" d="M 3222 541 
L 3222 0 
L 194 0 
Q 188 203 259 391 
Q 375 700 629 1000 
Q 884 1300 1366 1694 
Q 2113 2306 2375 2664 
Q 2638 3022 2638 3341 
Q 2638 3675 2398 3904 
Q 2159 4134 1775 4134 
Q 1369 4134 1125 3890 
Q 881 3647 878 3216 
L 300 3275 
Q 359 3922 746 4261 
Q 1134 4600 1788 4600 
Q 2447 4600 2831 4234 
Q 3216 3869 3216 3328 
Q 3216 3053 3103 2787 
Q 2991 2522 2730 2228 
Q 2469 1934 1863 1422 
Q 1356 997 1212 845 
Q 1069 694 975 541 
L 3222 541 
z
" transform="scale(0.015625)"/>
       </defs>
       <use xlink:href="#ArialMT-30"/>
       <use xlink:href="#ArialMT-2e" x="55.615234"/>
       <use xlink:href="#ArialMT-32" x="83.398438"/>
      </g>
     </g>
    </g>
    <g id="xtick_3">
     <g id="line2d_3">
      <g>
       <use xlink:href="#me7c1d5255c" x="142.0104" y="276.461437" style="fill: #262626; stroke: #262626"/>
      </g>
     </g>
     <g id="text_3">
      <!-- 0.4 -->
      <g style="fill: #262626" transform="translate(135.8944 291.060312) scale(0.088 -0.088)">
       <defs>
        <path id="ArialMT-34" d="M 2069 0 
L 2069 1097 
L 81 1097 
L 81 1613 
L 2172 4581 
L 2631 4581 
L 2631 1613 
L 3250 1613 
L 3250 1097 
L 2631 1097 
L 2631 0 
L 2069 0 
z
M 2069 1613 
L 2069 3678 
L 634 1613 
L 2069 1613 
z
" transform="scale(0.015625)"/>
       </defs>
       <use xlink:href="#ArialMT-30"/>
       <use xlink:href="#ArialMT-2e" x="55.615234"/>
       <use xlink:href="#ArialMT-34" x="83.398438"/>
      </g>
     </g>
    </g>
    <g id="xtick_4">
     <g id="line2d_4">
      <g>
       <use xlink:href="#me7c1d5255c" x="199.1496" y="276.461437" style="fill: #262626; stroke: #262626"/>
      </g>
     </g>
     <g id="text_4">
      <!-- 0.6 -->
      <g style="fill: #262626" transform="translate(193.0336 291.060312) scale(0.088 -0.088)">
       <defs>
        <path id="ArialMT-36" d="M 3184 3459 
L 2625 3416 
Q 2550 3747 2413 3897 
Q 2184 4138 1850 4138 
Q 1581 4138 1378 3988 
Q 1113 3794 959 3422 
Q 806 3050 800 2363 
Q 1003 2672 1297 2822 
Q 1591 2972 1913 2972 
Q 2475 2972 2870 2558 
Q 3266 2144 3266 1488 
Q 3266 1056 3080 686 
Q 2894 316 2569 119 
Q 2244 -78 1831 -78 
Q 1128 -78 684 439 
Q 241 956 241 2144 
Q 241 3472 731 4075 
Q 1159 4600 1884 4600 
Q 2425 4600 2770 4297 
Q 3116 3994 3184 3459 
z
M 888 1484 
Q 888 1194 1011 928 
Q 1134 663 1356 523 
Q 1578 384 1822 384 
Q 2178 384 2434 671 
Q 2691 959 2691 1453 
Q 2691 1928 2437 2201 
Q 2184 2475 1800 2475 
Q 1419 2475 1153 2201 
Q 888 1928 888 1484 
z
" transform="scale(0.015625)"/>
       </defs>
       <use xlink:href="#ArialMT-30"/>
       <use xlink:href="#ArialMT-2e" x="55.615234"/>
       <use xlink:href="#ArialMT-36" x="83.398438"/>
      </g>
     </g>
    </g>
    <g id="xtick_5">
     <g id="line2d_5">
      <g>
       <use xlink:href="#me7c1d5255c" x="256.2888" y="276.461437" style="fill: #262626; stroke: #262626"/>
      </g>
     </g>
     <g id="text_5">
      <!-- 0.8 -->
      <g style="fill: #262626" transform="translate(250.1728 291.060312) scale(0.088 -0.088)">
       <defs>
        <path id="ArialMT-38" d="M 1131 2484 
Q 781 2613 612 2850 
Q 444 3088 444 3419 
Q 444 3919 803 4259 
Q 1163 4600 1759 4600 
Q 2359 4600 2725 4251 
Q 3091 3903 3091 3403 
Q 3091 3084 2923 2848 
Q 2756 2613 2416 2484 
Q 2838 2347 3058 2040 
Q 3278 1734 3278 1309 
Q 3278 722 2862 322 
Q 2447 -78 1769 -78 
Q 1091 -78 675 323 
Q 259 725 259 1325 
Q 259 1772 486 2073 
Q 713 2375 1131 2484 
z
M 1019 3438 
Q 1019 3113 1228 2906 
Q 1438 2700 1772 2700 
Q 2097 2700 2305 2904 
Q 2513 3109 2513 3406 
Q 2513 3716 2298 3927 
Q 2084 4138 1766 4138 
Q 1444 4138 1231 3931 
Q 1019 3725 1019 3438 
z
M 838 1322 
Q 838 1081 952 856 
Q 1066 631 1291 507 
Q 1516 384 1775 384 
Q 2178 384 2440 643 
Q 2703 903 2703 1303 
Q 2703 1709 2433 1975 
Q 2163 2241 1756 2241 
Q 1359 2241 1098 1978 
Q 838 1716 838 1322 
z
" transform="scale(0.015625)"/>
       </defs>
       <use xlink:href="#ArialMT-30"/>
       <use xlink:href="#ArialMT-2e" x="55.615234"/>
       <use xlink:href="#ArialMT-38" x="83.398438"/>
      </g>
     </g>
    </g>
    <g id="xtick_6">
     <g id="line2d_6">
      <g>
       <use xlink:href="#me7c1d5255c" x="313.428" y="276.461437" style="fill: #262626; stroke: #262626"/>
      </g>
     </g>
     <g id="text_6">
      <!-- 1.0 -->
      <g style="fill: #262626" transform="translate(307.312 291.060312) scale(0.088 -0.088)">
       <defs>
        <path id="ArialMT-31" d="M 2384 0 
L 1822 0 
L 1822 3584 
Q 1619 3391 1289 3197 
Q 959 3003 697 2906 
L 697 3450 
Q 1169 3672 1522 3987 
Q 1875 4303 2022 4600 
L 2384 4600 
L 2384 0 
z
" transform="scale(0.015625)"/>
       </defs>
       <use xlink:href="#ArialMT-31"/>
       <use xlink:href="#ArialMT-2e" x="55.615234"/>
       <use xlink:href="#ArialMT-30" x="83.398438"/>
      </g>
     </g>
    </g>
   </g>
   <g id="matplotlib.axis_2">
    <g id="ytick_1">
     <g id="line2d_7">
      <defs>
       <path id="m030ed566cc" d="M 0 0 
L -4.8 0 
" style="stroke: #262626"/>
      </defs>
      <g>
       <use xlink:href="#m030ed566cc" x="27.732" y="276.461437" style="fill: #262626; stroke: #262626"/>
      </g>
     </g>
     <g id="text_7">
      <!-- 0.0 -->
      <g style="fill: #262626" transform="translate(7.2 279.610875) scale(0.088 -0.088)">
       <use xlink:href="#ArialMT-30"/>
       <use xlink:href="#ArialMT-2e" x="55.615234"/>
       <use xlink:href="#ArialMT-30" x="83.398438"/>
      </g>
     </g>
    </g>
    <g id="ytick_2">
     <g id="line2d_8">
      <g>
       <use xlink:href="#m030ed566cc" x="27.732" y="223.239037" style="fill: #262626; stroke: #262626"/>
      </g>
     </g>
     <g id="text_8">
      <!-- 0.2 -->
      <g style="fill: #262626" transform="translate(7.2 226.388475) scale(0.088 -0.088)">
       <use xlink:href="#ArialMT-30"/>
       <use xlink:href="#ArialMT-2e" x="55.615234"/>
       <use xlink:href="#ArialMT-32" x="83.398438"/>
      </g>
     </g>
    </g>
    <g id="ytick_3">
     <g id="line2d_9">
      <g>
       <use xlink:href="#m030ed566cc" x="27.732" y="170.016637" style="fill: #262626; stroke: #262626"/>
      </g>
     </g>
     <g id="text_9">
      <!-- 0.4 -->
      <g style="fill: #262626" transform="translate(7.2 173.166075) scale(0.088 -0.088)">
       <use xlink:href="#ArialMT-30"/>
       <use xlink:href="#ArialMT-2e" x="55.615234"/>
       <use xlink:href="#ArialMT-34" x="83.398438"/>
      </g>
     </g>
    </g>
    <g id="ytick_4">
     <g id="line2d_10">
      <g>
       <use xlink:href="#m030ed566cc" x="27.732" y="116.794237" style="fill: #262626; stroke: #262626"/>
      </g>
     </g>
     <g id="text_10">
      <!-- 0.6 -->
      <g style="fill: #262626" transform="translate(7.2 119.943675) scale(0.088 -0.088)">
       <use xlink:href="#ArialMT-30"/>
       <use xlink:href="#ArialMT-2e" x="55.615234"/>
       <use xlink:href="#ArialMT-36" x="83.398438"/>
      </g>
     </g>
    </g>
    <g id="ytick_5">
     <g id="line2d_11">
      <g>
       <use xlink:href="#m030ed566cc" x="27.732" y="63.571837" style="fill: #262626; stroke: #262626"/>
      </g>
     </g>
     <g id="text_11">
      <!-- 0.8 -->
      <g style="fill: #262626" transform="translate(7.2 66.721275) scale(0.088 -0.088)">
       <use xlink:href="#ArialMT-30"/>
       <use xlink:href="#ArialMT-2e" x="55.615234"/>
       <use xlink:href="#ArialMT-38" x="83.398438"/>
      </g>
     </g>
    </g>
    <g id="ytick_6">
     <g id="line2d_12">
      <g>
       <use xlink:href="#m030ed566cc" x="27.732" y="10.349437" style="fill: #262626; stroke: #262626"/>
      </g>
     </g>
     <g id="text_12">
      <!-- 1.0 -->
      <g style="fill: #262626" transform="translate(7.2 13.498875) scale(0.088 -0.088)">
       <use xlink:href="#ArialMT-31"/>
       <use xlink:href="#ArialMT-2e" x="55.615234"/>
       <use xlink:href="#ArialMT-30" x="83.398438"/>
      </g>
     </g>
    </g>
   </g>
   <g id="QuadContourSet_1">
    <path d="M 73.812 124.723904 
L 83.028 127.21814 
L 92.244 127.136973 
L 101.46 125.086735 
L 109.482869 121.944792 
L 110.676 121.447743 
L 119.892 116.078762 
L 123.72516 113.360534 
L 129.108 109.15424 
L 133.978607 104.776276 
L 138.324 100.289345 
L 141.918573 96.192018 
L 147.54 88.441368 
L 148.10742 87.60776 
L 152.333296 79.023502 
L 154.859254 70.439244 
L 155.191035 61.854986 
L 152.6475 53.270728 
L 147.54 46.274687 
L 145.999399 44.68647 
L 138.324 39.721666 
L 129.996508 36.102212 
L 129.108 35.812602 
L 119.892 33.905512 
L 110.676 33.115826 
L 101.46 33.393007 
L 92.244 34.766461 
L 87.429609 36.102212 
L 83.028 37.586126 
L 73.812 42.337084 
L 70.543927 44.68647 
L 64.596 50.299901 
L 62.18304 53.270728 
L 57.220587 61.854986 
L 55.38 66.812495 
L 54.266455 70.439244 
L 52.909736 79.023502 
L 52.749831 87.60776 
L 53.765743 96.192018 
L 55.38 102.394008 
L 56.179748 104.776276 
L 60.809658 113.360534 
L 64.596 118.202043 
L 69.251498 121.944792 
z
" clip-path="url(#pb5d369981c)" style="fill: #180f29"/>
    <path d="M 73.812 157.396709 
L 83.028 156.892016 
L 85.683422 156.281825 
L 92.244 154.852401 
L 101.46 151.550943 
L 109.570481 147.697567 
L 110.676 147.182879 
L 119.892 141.81739 
L 123.897079 139.113308 
L 129.108 135.569097 
L 135.73181 130.52905 
L 138.324 128.493022 
L 145.992022 121.944792 
L 147.54 120.545291 
L 155.043264 113.360534 
L 156.756 111.576761 
L 163.074844 104.776276 
L 165.972 101.283036 
L 170.156569 96.192018 
L 175.188 89.100331 
L 176.262533 87.60776 
L 181.247396 79.023502 
L 184.404 71.846413 
L 185.050349 70.439244 
L 187.424044 61.854986 
L 188.115571 53.270728 
L 186.706543 44.68647 
L 184.404 39.702372 
L 182.487508 36.102212 
L 175.188 28.382933 
L 174.189739 27.517954 
L 165.972 22.433589 
L 158.580837 18.933696 
L 156.756 18.229603 
L 147.54 15.375133 
L 138.324 13.294652 
L 129.108 11.872676 
L 119.892 11.038026 
L 110.676 10.755808 
L 101.46 11.024782 
L 92.244 11.879905 
L 83.028 13.400679 
L 73.812 15.728611 
L 65.022503 18.933696 
L 64.596 19.11157 
L 55.38 24.232791 
L 50.975535 27.517954 
L 46.164 32.023871 
L 42.685115 36.102212 
L 37.241368 44.68647 
L 36.948 45.306714 
L 33.646135 53.270728 
L 31.192358 61.854986 
L 29.610382 70.439244 
L 28.751038 79.023502 
L 28.532364 87.60776 
L 28.921287 96.192018 
L 29.925243 104.776276 
L 31.590334 113.360534 
L 34.005527 121.944792 
L 36.948 129.639329 
L 37.35627 130.52905 
L 42.348157 139.113308 
L 46.164 144.200499 
L 49.862821 147.697567 
L 55.38 151.986483 
L 64.596 155.991232 
L 66.332261 156.281825 
z
M 69.251498 121.944792 
L 64.596 118.202043 
L 60.809658 113.360534 
L 56.179748 104.776276 
L 55.38 102.394008 
L 53.765743 96.192018 
L 52.749831 87.60776 
L 52.909736 79.023502 
L 54.266455 70.439244 
L 55.38 66.812495 
L 57.220587 61.854986 
L 62.18304 53.270728 
L 64.596 50.299901 
L 70.543927 44.68647 
L 73.812 42.337084 
L 83.028 37.586126 
L 87.429609 36.102212 
L 92.244 34.766461 
L 101.46 33.393007 
L 110.676 33.115826 
L 119.892 33.905512 
L 129.108 35.812602 
L 129.996508 36.102212 
L 138.324 39.721666 
L 145.999399 44.68647 
L 147.54 46.274687 
L 152.6475 53.270728 
L 155.191035 61.854986 
L 154.859254 70.439244 
L 152.333296 79.023502 
L 148.10742 87.60776 
L 147.54 88.441368 
L 141.918573 96.192018 
L 138.324 100.289345 
L 133.978607 104.776276 
L 129.108 109.15424 
L 123.72516 113.360534 
L 119.892 116.078762 
L 110.676 121.447743 
L 109.482869 121.944792 
L 101.46 125.086735 
L 92.244 127.136973 
L 83.028 127.21814 
L 73.812 124.723904 
z
" clip-path="url(#pb5d369981c)" style="fill: #481c48"/>
    <path d="M 46.164 186.776694 
L 55.38 189.040133 
L 64.596 189.22232 
L 73.812 187.784412 
L 83.028 184.995067 
L 89.781531 182.034599 
L 92.244 181.069095 
L 101.46 176.310213 
L 106.016383 173.450341 
L 110.676 170.750162 
L 119.3764 164.866083 
L 119.892 164.536547 
L 129.108 157.820063 
L 131.023824 156.281825 
L 138.324 150.606515 
L 141.802405 147.697567 
L 147.54 142.952861 
L 151.950392 139.113308 
L 156.756 134.888863 
L 161.565989 130.52905 
L 165.972 126.410507 
L 170.700695 121.944792 
L 175.188 117.479246 
L 179.36849 113.360534 
L 184.404 108.013674 
L 187.546994 104.776276 
L 193.62 97.871297 
L 195.174524 96.192018 
L 202.173984 87.60776 
L 202.836 86.648692 
L 208.517121 79.023502 
L 212.052 73.247583 
L 213.952092 70.439244 
L 218.388293 61.854986 
L 221.268 53.881073 
L 221.520308 53.270728 
L 223.265509 44.68647 
L 223.112849 36.102212 
L 221.268 29.683195 
L 220.60356 27.517954 
L 215.088479 18.933696 
L 212.052 15.987328 
L 205.174247 10.349437 
L 202.836 10.349437 
L 193.62 10.349437 
L 184.404 10.349437 
L 175.188 10.349437 
L 165.972 10.349437 
L 156.756 10.349437 
L 147.54 10.349437 
L 138.324 10.349437 
L 129.108 10.349437 
L 119.892 10.349437 
L 110.676 10.349437 
L 101.46 10.349437 
L 92.244 10.349437 
L 83.028 10.349437 
L 73.812 10.349437 
L 64.596 10.349437 
L 55.38 10.349437 
L 46.164 10.349437 
L 36.948 10.349437 
L 30.896763 10.349437 
L 27.732 13.304008 
L 27.732 18.933696 
L 27.732 27.517954 
L 27.732 36.102212 
L 27.732 44.68647 
L 27.732 53.270728 
L 27.732 61.854986 
L 27.732 70.439244 
L 27.732 79.023502 
L 27.732 87.60776 
L 27.732 96.192018 
L 27.732 104.776276 
L 27.732 113.360534 
L 27.732 121.944792 
L 27.732 130.52905 
L 27.732 139.113308 
L 27.732 147.697567 
L 27.732 156.281825 
L 27.732 164.866083 
L 27.732 172.591763 
L 28.466816 173.450341 
L 36.948 181.654331 
L 37.558288 182.034599 
z
M 66.332261 156.281825 
L 64.596 155.991232 
L 55.38 151.986483 
L 49.862821 147.697567 
L 46.164 144.200499 
L 42.348157 139.113308 
L 37.35627 130.52905 
L 36.948 129.639329 
L 34.005527 121.944792 
L 31.590334 113.360534 
L 29.925243 104.776276 
L 28.921287 96.192018 
L 28.532364 87.60776 
L 28.751038 79.023502 
L 29.610382 70.439244 
L 31.192358 61.854986 
L 33.646135 53.270728 
L 36.948 45.306714 
L 37.241368 44.68647 
L 42.685115 36.102212 
L 46.164 32.023871 
L 50.975535 27.517954 
L 55.38 24.232791 
L 64.596 19.11157 
L 65.022503 18.933696 
L 73.812 15.728611 
L 83.028 13.400679 
L 92.244 11.879905 
L 101.46 11.024782 
L 110.676 10.755808 
L 119.892 11.038026 
L 129.108 11.872676 
L 138.324 13.294652 
L 147.54 15.375133 
L 156.756 18.229603 
L 158.580837 18.933696 
L 165.972 22.433589 
L 174.189739 27.517954 
L 175.188 28.382933 
L 182.487508 36.102212 
L 184.404 39.702372 
L 186.706543 44.68647 
L 188.115571 53.270728 
L 187.424044 61.854986 
L 185.050349 70.439244 
L 184.404 71.846413 
L 181.247396 79.023502 
L 176.262533 87.60776 
L 175.188 89.100331 
L 170.156569 96.192018 
L 165.972 101.283036 
L 163.074844 104.776276 
L 156.756 111.576761 
L 155.043264 113.360534 
L 147.54 120.545291 
L 145.992022 121.944792 
L 138.324 128.493022 
L 135.73181 130.52905 
L 129.108 135.569097 
L 123.897079 139.113308 
L 119.892 141.81739 
L 110.676 147.182879 
L 109.570481 147.697567 
L 101.46 151.550943 
L 92.244 154.852401 
L 85.683422 156.281825 
L 83.028 156.892016 
L 73.812 157.396709 
z
" clip-path="url(#pb5d369981c)" style="fill: #7b1f59"/>
    <path d="M 28.673791 267.877179 
L 36.948 262.07084 
L 39.34407 259.292921 
L 46.164 254.544946 
L 49.743425 250.708663 
L 55.38 246.737579 
L 59.908427 242.124405 
L 64.596 238.753584 
L 69.889368 233.540147 
L 73.812 230.653777 
L 79.73315 224.955889 
L 83.028 222.475651 
L 89.476828 216.371631 
L 92.244 214.242765 
L 99.146896 207.787373 
L 101.46 205.970366 
L 108.761773 199.203115 
L 110.676 197.669023 
L 118.33474 190.618857 
L 119.892 189.346454 
L 127.875666 182.034599 
L 129.108 181.008415 
L 137.391935 173.450341 
L 138.324 172.659474 
L 146.889334 164.866083 
L 147.54 164.303554 
L 156.372675 156.281825 
L 156.756 155.944132 
L 165.845998 147.697567 
L 165.972 147.584413 
L 175.188 139.226462 
L 175.314002 139.113308 
L 184.404 130.866743 
L 184.787325 130.52905 
L 193.62 122.507321 
L 194.270666 121.944792 
L 202.836 114.151401 
L 203.768065 113.360534 
L 212.052 105.80246 
L 213.284334 104.776276 
L 221.268 97.464421 
L 222.82526 96.192018 
L 230.484 89.141852 
L 232.398227 87.60776 
L 239.7 80.840509 
L 242.013104 79.023502 
L 248.916 72.56811 
L 251.683172 70.439244 
L 258.132 64.335224 
L 261.42685 61.854986 
L 267.348 56.157098 
L 271.270632 53.270728 
L 276.564 48.057291 
L 281.251573 44.68647 
L 285.78 40.073296 
L 291.416575 36.102212 
L 294.996 32.265929 
L 301.81593 27.517954 
L 304.212 24.740035 
L 312.486209 18.933696 
L 313.428 17.697159 
L 313.428 10.349437 
L 304.212 10.349437 
L 294.996 10.349437 
L 285.78 10.349437 
L 276.564 10.349437 
L 267.348 10.349437 
L 258.132 10.349437 
L 248.916 10.349437 
L 239.7 10.349437 
L 230.484 10.349437 
L 221.268 10.349437 
L 212.052 10.349437 
L 205.174247 10.349437 
L 212.052 15.987328 
L 215.088479 18.933696 
L 220.60356 27.517954 
L 221.268 29.683195 
L 223.112849 36.102212 
L 223.265509 44.68647 
L 221.520308 53.270728 
L 221.268 53.881073 
L 218.388293 61.854986 
L 213.952092 70.439244 
L 212.052 73.247583 
L 208.517121 79.023502 
L 202.836 86.648692 
L 202.173984 87.60776 
L 195.174524 96.192018 
L 193.62 97.871297 
L 187.546994 104.776276 
L 184.404 108.013674 
L 179.36849 113.360534 
L 175.188 117.479246 
L 170.700695 121.944792 
L 165.972 126.410507 
L 161.565989 130.52905 
L 156.756 134.888863 
L 151.950392 139.113308 
L 147.54 142.952861 
L 141.802405 147.697567 
L 138.324 150.606515 
L 131.023824 156.281825 
L 129.108 157.820063 
L 119.892 164.536547 
L 119.3764 164.866083 
L 110.676 170.750162 
L 106.016383 173.450341 
L 101.46 176.310213 
L 92.244 181.069095 
L 89.781531 182.034599 
L 83.028 184.995067 
L 73.812 187.784412 
L 64.596 189.22232 
L 55.38 189.040133 
L 46.164 186.776694 
L 37.558288 182.034599 
L 36.948 181.654331 
L 28.466816 173.450341 
L 27.732 172.591763 
L 27.732 173.450341 
L 27.732 182.034599 
L 27.732 190.618857 
L 27.732 199.203115 
L 27.732 207.787373 
L 27.732 216.371631 
L 27.732 224.955889 
L 27.732 233.540147 
L 27.732 242.124405 
L 27.732 250.708663 
L 27.732 259.292921 
L 27.732 267.877179 
L 27.732 269.113716 
z
M 30.896763 10.349437 
L 27.732 10.349437 
L 27.732 13.304008 
z
" clip-path="url(#pb5d369981c)" style="fill: #b21758"/>
    <path d="M 36.948 276.461437 
L 46.164 276.461437 
L 55.38 276.461437 
L 64.596 276.461437 
L 73.812 276.461437 
L 83.028 276.461437 
L 92.244 276.461437 
L 101.46 276.461437 
L 110.676 276.461437 
L 119.892 276.461437 
L 129.108 276.461437 
L 135.985753 276.461437 
L 129.108 270.823547 
L 126.071521 267.877179 
L 120.55644 259.292921 
L 119.892 257.12768 
L 118.047151 250.708663 
L 117.894491 242.124405 
L 119.639692 233.540147 
L 119.892 232.929802 
L 122.771707 224.955889 
L 127.207908 216.371631 
L 129.108 213.563292 
L 132.642879 207.787373 
L 138.324 200.162183 
L 138.986016 199.203115 
L 145.985476 190.618857 
L 147.54 188.939578 
L 153.613006 182.034599 
L 156.756 178.797201 
L 161.79151 173.450341 
L 165.972 169.331629 
L 170.459305 164.866083 
L 175.188 160.400368 
L 179.594011 156.281825 
L 184.404 151.922012 
L 189.209608 147.697567 
L 193.62 143.858014 
L 199.357595 139.113308 
L 202.836 136.20436 
L 210.136176 130.52905 
L 212.052 128.990812 
L 221.268 122.274328 
L 221.7836 121.944792 
L 230.484 116.060713 
L 235.143617 113.360534 
L 239.7 110.500662 
L 248.916 105.74178 
L 251.378469 104.776276 
L 258.132 101.815808 
L 267.348 99.026463 
L 276.564 97.588555 
L 285.78 97.770742 
L 294.996 100.034181 
L 303.601712 104.776276 
L 304.212 105.156544 
L 312.693184 113.360534 
L 313.428 114.219112 
L 313.428 113.360534 
L 313.428 104.776276 
L 313.428 96.192018 
L 313.428 87.60776 
L 313.428 79.023502 
L 313.428 70.439244 
L 313.428 61.854986 
L 313.428 53.270728 
L 313.428 44.68647 
L 313.428 36.102212 
L 313.428 27.517954 
L 313.428 18.933696 
L 313.428 17.697159 
L 312.486209 18.933696 
L 304.212 24.740035 
L 301.81593 27.517954 
L 294.996 32.265929 
L 291.416575 36.102212 
L 285.78 40.073296 
L 281.251573 44.68647 
L 276.564 48.057291 
L 271.270632 53.270728 
L 267.348 56.157098 
L 261.42685 61.854986 
L 258.132 64.335224 
L 251.683172 70.439244 
L 248.916 72.56811 
L 242.013104 79.023502 
L 239.7 80.840509 
L 232.398227 87.60776 
L 230.484 89.141852 
L 222.82526 96.192018 
L 221.268 97.464421 
L 213.284334 104.776276 
L 212.052 105.80246 
L 203.768065 113.360534 
L 202.836 114.151401 
L 194.270666 121.944792 
L 193.62 122.507321 
L 184.787325 130.52905 
L 184.404 130.866743 
L 175.314002 139.113308 
L 175.188 139.226462 
L 165.972 147.584413 
L 165.845998 147.697567 
L 156.756 155.944132 
L 156.372675 156.281825 
L 147.54 164.303554 
L 146.889334 164.866083 
L 138.324 172.659474 
L 137.391935 173.450341 
L 129.108 181.008415 
L 127.875666 182.034599 
L 119.892 189.346454 
L 118.33474 190.618857 
L 110.676 197.669023 
L 108.761773 199.203115 
L 101.46 205.970366 
L 99.146896 207.787373 
L 92.244 214.242765 
L 89.476828 216.371631 
L 83.028 222.475651 
L 79.73315 224.955889 
L 73.812 230.653777 
L 69.889368 233.540147 
L 64.596 238.753584 
L 59.908427 242.124405 
L 55.38 246.737579 
L 49.743425 250.708663 
L 46.164 254.544946 
L 39.34407 259.292921 
L 36.948 262.07084 
L 28.673791 267.877179 
L 27.732 269.113716 
L 27.732 276.461437 
z
M 313.428 276.461437 
L 313.428 273.506867 
L 310.263237 276.461437 
z
" clip-path="url(#pb5d369981c)" style="fill: #df2f44"/>
    <path d="M 129.108 270.823547 
L 135.985753 276.461437 
L 138.324 276.461437 
L 147.54 276.461437 
L 156.756 276.461437 
L 165.972 276.461437 
L 175.188 276.461437 
L 184.404 276.461437 
L 193.62 276.461437 
L 202.836 276.461437 
L 212.052 276.461437 
L 221.268 276.461437 
L 230.484 276.461437 
L 239.7 276.461437 
L 248.916 276.461437 
L 258.132 276.461437 
L 267.348 276.461437 
L 276.564 276.461437 
L 285.78 276.461437 
L 294.996 276.461437 
L 304.212 276.461437 
L 310.263237 276.461437 
L 313.428 273.506867 
L 313.428 267.877179 
L 313.428 259.292921 
L 313.428 250.708663 
L 313.428 242.124405 
L 313.428 233.540147 
L 313.428 224.955889 
L 313.428 216.371631 
L 313.428 207.787373 
L 313.428 199.203115 
L 313.428 190.618857 
L 313.428 182.034599 
L 313.428 173.450341 
L 313.428 164.866083 
L 313.428 156.281825 
L 313.428 147.697567 
L 313.428 139.113308 
L 313.428 130.52905 
L 313.428 121.944792 
L 313.428 114.219112 
L 312.693184 113.360534 
L 304.212 105.156544 
L 303.601712 104.776276 
L 294.996 100.034181 
L 285.78 97.770742 
L 276.564 97.588555 
L 267.348 99.026463 
L 258.132 101.815808 
L 251.378469 104.776276 
L 248.916 105.74178 
L 239.7 110.500662 
L 235.143617 113.360534 
L 230.484 116.060713 
L 221.7836 121.944792 
L 221.268 122.274328 
L 212.052 128.990812 
L 210.136176 130.52905 
L 202.836 136.20436 
L 199.357595 139.113308 
L 193.62 143.858014 
L 189.209608 147.697567 
L 184.404 151.922012 
L 179.594011 156.281825 
L 175.188 160.400368 
L 170.459305 164.866083 
L 165.972 169.331629 
L 161.79151 173.450341 
L 156.756 178.797201 
L 153.613006 182.034599 
L 147.54 188.939578 
L 145.985476 190.618857 
L 138.986016 199.203115 
L 138.324 200.162183 
L 132.642879 207.787373 
L 129.108 213.563292 
L 127.207908 216.371631 
L 122.771707 224.955889 
L 119.892 232.929802 
L 119.639692 233.540147 
L 117.894491 242.124405 
L 118.047151 250.708663 
L 119.892 257.12768 
L 120.55644 259.292921 
L 126.071521 267.877179 
z
M 182.579163 267.877179 
L 175.188 264.377286 
L 166.970261 259.292921 
L 165.972 258.427942 
L 158.672492 250.708663 
L 156.756 247.108503 
L 154.453457 242.124405 
L 153.044429 233.540147 
L 153.735956 224.955889 
L 156.109651 216.371631 
L 156.756 214.964462 
L 159.912604 207.787373 
L 164.897467 199.203115 
L 165.972 197.710544 
L 171.003431 190.618857 
L 175.188 185.527839 
L 178.085156 182.034599 
L 184.404 175.234114 
L 186.116736 173.450341 
L 193.62 166.265584 
L 195.167978 164.866083 
L 202.836 158.317853 
L 205.42819 156.281825 
L 212.052 151.241778 
L 217.262921 147.697567 
L 221.268 144.993485 
L 230.484 139.627996 
L 231.589519 139.113308 
L 239.7 135.259932 
L 248.916 131.958474 
L 255.476578 130.52905 
L 258.132 129.918859 
L 267.348 129.414166 
L 274.827739 130.52905 
L 276.564 130.819643 
L 285.78 134.824392 
L 291.297179 139.113308 
L 294.996 142.610376 
L 298.811843 147.697567 
L 303.80373 156.281825 
L 304.212 157.171546 
L 307.154473 164.866083 
L 309.569666 173.450341 
L 311.234757 182.034599 
L 312.238713 190.618857 
L 312.627636 199.203115 
L 312.408962 207.787373 
L 311.549618 216.371631 
L 309.967642 224.955889 
L 307.513865 233.540147 
L 304.212 241.504161 
L 303.918632 242.124405 
L 298.474885 250.708663 
L 294.996 254.787004 
L 290.184465 259.292921 
L 285.78 262.578084 
L 276.564 267.699305 
L 276.137497 267.877179 
L 267.348 271.082264 
L 258.132 273.410196 
L 248.916 274.93097 
L 239.7 275.786093 
L 230.484 276.055067 
L 221.268 275.772849 
L 212.052 274.938199 
L 202.836 273.516223 
L 193.62 271.435742 
L 184.404 268.581272 
z
" clip-path="url(#pb5d369981c)" style="fill: #f26b49"/>
    <path d="M 184.404 268.581272 
L 193.62 271.435742 
L 202.836 273.516223 
L 212.052 274.938199 
L 221.268 275.772849 
L 230.484 276.055067 
L 239.7 275.786093 
L 248.916 274.93097 
L 258.132 273.410196 
L 267.348 271.082264 
L 276.137497 267.877179 
L 276.564 267.699305 
L 285.78 262.578084 
L 290.184465 259.292921 
L 294.996 254.787004 
L 298.474885 250.708663 
L 303.918632 242.124405 
L 304.212 241.504161 
L 307.513865 233.540147 
L 309.967642 224.955889 
L 311.549618 216.371631 
L 312.408962 207.787373 
L 312.627636 199.203115 
L 312.238713 190.618857 
L 311.234757 182.034599 
L 309.569666 173.450341 
L 307.154473 164.866083 
L 304.212 157.171546 
L 303.80373 156.281825 
L 298.811843 147.697567 
L 294.996 142.610376 
L 291.297179 139.113308 
L 285.78 134.824392 
L 276.564 130.819643 
L 274.827739 130.52905 
L 267.348 129.414166 
L 258.132 129.918859 
L 255.476578 130.52905 
L 248.916 131.958474 
L 239.7 135.259932 
L 231.589519 139.113308 
L 230.484 139.627996 
L 221.268 144.993485 
L 217.262921 147.697567 
L 212.052 151.241778 
L 205.42819 156.281825 
L 202.836 158.317853 
L 195.167978 164.866083 
L 193.62 166.265584 
L 186.116736 173.450341 
L 184.404 175.234114 
L 178.085156 182.034599 
L 175.188 185.527839 
L 171.003431 190.618857 
L 165.972 197.710544 
L 164.897467 199.203115 
L 159.912604 207.787373 
L 156.756 214.964462 
L 156.109651 216.371631 
L 153.735956 224.955889 
L 153.044429 233.540147 
L 154.453457 242.124405 
L 156.756 247.108503 
L 158.672492 250.708663 
L 165.972 258.427942 
L 166.970261 259.292921 
L 175.188 264.377286 
L 182.579163 267.877179 
z
M 211.163492 250.708663 
L 202.836 247.089209 
L 195.160601 242.124405 
L 193.62 240.536188 
L 188.5125 233.540147 
L 185.968965 224.955889 
L 186.300746 216.371631 
L 188.826704 207.787373 
L 193.05258 199.203115 
L 193.62 198.369507 
L 199.241427 190.618857 
L 202.836 186.52153 
L 207.181393 182.034599 
L 212.052 177.656635 
L 217.43484 173.450341 
L 221.268 170.732113 
L 230.484 165.363132 
L 231.677131 164.866083 
L 239.7 161.72414 
L 248.916 159.673902 
L 258.132 159.592735 
L 267.348 162.086971 
L 271.908502 164.866083 
L 276.564 168.608832 
L 280.350342 173.450341 
L 284.980252 182.034599 
L 285.78 184.416867 
L 287.394257 190.618857 
L 288.410169 199.203115 
L 288.250264 207.787373 
L 286.893545 216.371631 
L 285.78 219.99838 
L 283.939413 224.955889 
L 278.97696 233.540147 
L 276.564 236.510974 
L 270.616073 242.124405 
L 267.348 244.473791 
L 258.132 249.224749 
L 253.730391 250.708663 
L 248.916 252.044414 
L 239.7 253.417868 
L 230.484 253.695049 
L 221.268 252.905363 
L 212.052 250.998273 
z
" clip-path="url(#pb5d369981c)" style="fill: #f6a37a"/>
    <path d="M 212.052 250.998273 
L 221.268 252.905363 
L 230.484 253.695049 
L 239.7 253.417868 
L 248.916 252.044414 
L 253.730391 250.708663 
L 258.132 249.224749 
L 267.348 244.473791 
L 270.616073 242.124405 
L 276.564 236.510974 
L 278.97696 233.540147 
L 283.939413 224.955889 
L 285.78 219.99838 
L 286.893545 216.371631 
L 288.250264 207.787373 
L 288.410169 199.203115 
L 287.394257 190.618857 
L 285.78 184.416867 
L 284.980252 182.034599 
L 280.350342 173.450341 
L 276.564 168.608832 
L 271.908502 164.866083 
L 267.348 162.086971 
L 258.132 159.592735 
L 248.916 159.673902 
L 239.7 161.72414 
L 231.677131 164.866083 
L 230.484 165.363132 
L 221.268 170.732113 
L 217.43484 173.450341 
L 212.052 177.656635 
L 207.181393 182.034599 
L 202.836 186.52153 
L 199.241427 190.618857 
L 193.62 198.369507 
L 193.05258 199.203115 
L 188.826704 207.787373 
L 186.300746 216.371631 
L 185.968965 224.955889 
L 188.5125 233.540147 
L 193.62 240.536188 
L 195.160601 242.124405 
L 202.836 247.089209 
L 211.163492 250.708663 
z
" clip-path="url(#pb5d369981c)" style="fill: #f8d4bc"/>
   </g>
   <g id="patch_3">
    <path d="M 27.732 276.461437 
L 27.732 10.349437 
" style="fill: none; stroke: #262626; stroke-linejoin: miter; stroke-linecap: square"/>
   </g>
   <g id="patch_4">
    <path d="M 313.428 276.461437 
L 313.428 10.349437 
" style="fill: none; stroke: #262626; stroke-linejoin: miter; stroke-linecap: square"/>
   </g>
   <g id="patch_5">
    <path d="M 27.732 276.461437 
L 313.428 276.461437 
" style="fill: none; stroke: #262626; stroke-linejoin: miter; stroke-linecap: square"/>
   </g>
   <g id="patch_6">
    <path d="M 27.732 10.349437 
L 313.428 10.349437 
" style="fill: none; stroke: #262626; stroke-linejoin: miter; stroke-linecap: square"/>
   </g>
  </g>
  <g id="axes_2">
   <g id="patch_7">
    <path d="M 331.284 276.461437 
L 344.5896 276.461437 
L 344.5896 10.349437 
L 331.284 10.349437 
z
" style="fill: #ffffff"/>
   </g>
   <g id="matplotlib.axis_3"/>
   <g id="matplotlib.axis_4">
    <g id="ytick_7">
     <g id="line2d_13">
      <defs>
       <path id="mc05a46beb4" d="M 0 0 
L 4.8 0 
" style="stroke: #262626"/>
      </defs>
      <g>
       <use xlink:href="#mc05a46beb4" x="344.5896" y="276.461437" style="fill: #262626; stroke: #262626"/>
      </g>
     </g>
     <g id="text_13">
      <!-- −2.0 -->
      <g style="fill: #262626" transform="translate(352.8896 279.610875) scale(0.088 -0.088)">
       <defs>
        <path id="ArialMT-2212" d="M 3381 1997 
L 356 1997 
L 356 2522 
L 3381 2522 
L 3381 1997 
z
" transform="scale(0.015625)"/>
       </defs>
       <use xlink:href="#ArialMT-2212"/>
       <use xlink:href="#ArialMT-32" x="58.398438"/>
       <use xlink:href="#ArialMT-2e" x="114.013672"/>
       <use xlink:href="#ArialMT-30" x="141.796875"/>
      </g>
     </g>
    </g>
    <g id="ytick_8">
     <g id="line2d_14">
      <g>
       <use xlink:href="#mc05a46beb4" x="344.5896" y="243.197437" style="fill: #262626; stroke: #262626"/>
      </g>
     </g>
     <g id="text_14">
      <!-- −1.5 -->
      <g style="fill: #262626" transform="translate(352.8896 246.346875) scale(0.088 -0.088)">
       <defs>
        <path id="ArialMT-35" d="M 266 1200 
L 856 1250 
Q 922 819 1161 601 
Q 1400 384 1738 384 
Q 2144 384 2425 690 
Q 2706 997 2706 1503 
Q 2706 1984 2436 2262 
Q 2166 2541 1728 2541 
Q 1456 2541 1237 2417 
Q 1019 2294 894 2097 
L 366 2166 
L 809 4519 
L 3088 4519 
L 3088 3981 
L 1259 3981 
L 1013 2750 
Q 1425 3038 1878 3038 
Q 2478 3038 2890 2622 
Q 3303 2206 3303 1553 
Q 3303 931 2941 478 
Q 2500 -78 1738 -78 
Q 1113 -78 717 272 
Q 322 622 266 1200 
z
" transform="scale(0.015625)"/>
       </defs>
       <use xlink:href="#ArialMT-2212"/>
       <use xlink:href="#ArialMT-31" x="58.398438"/>
       <use xlink:href="#ArialMT-2e" x="114.013672"/>
       <use xlink:href="#ArialMT-35" x="141.796875"/>
      </g>
     </g>
    </g>
    <g id="ytick_9">
     <g id="line2d_15">
      <g>
       <use xlink:href="#mc05a46beb4" x="344.5896" y="209.933437" style="fill: #262626; stroke: #262626"/>
      </g>
     </g>
     <g id="text_15">
      <!-- −1.0 -->
      <g style="fill: #262626" transform="translate(352.8896 213.082875) scale(0.088 -0.088)">
       <use xlink:href="#ArialMT-2212"/>
       <use xlink:href="#ArialMT-31" x="58.398438"/>
       <use xlink:href="#ArialMT-2e" x="114.013672"/>
       <use xlink:href="#ArialMT-30" x="141.796875"/>
      </g>
     </g>
    </g>
    <g id="ytick_10">
     <g id="line2d_16">
      <g>
       <use xlink:href="#mc05a46beb4" x="344.5896" y="176.669437" style="fill: #262626; stroke: #262626"/>
      </g>
     </g>
     <g id="text_16">
      <!-- −0.5 -->
      <g style="fill: #262626" transform="translate(352.8896 179.818875) scale(0.088 -0.088)">
       <use xlink:href="#ArialMT-2212"/>
       <use xlink:href="#ArialMT-30" x="58.398438"/>
       <use xlink:href="#ArialMT-2e" x="114.013672"/>
       <use xlink:href="#ArialMT-35" x="141.796875"/>
      </g>
     </g>
    </g>
    <g id="ytick_11">
     <g id="line2d_17">
      <g>
       <use xlink:href="#mc05a46beb4" x="344.5896" y="143.405437" style="fill: #262626; stroke: #262626"/>
      </g>
     </g>
     <g id="text_17">
      <!-- 0.0 -->
      <g style="fill: #262626" transform="translate(352.8896 146.554875) scale(0.088 -0.088)">
       <use xlink:href="#ArialMT-30"/>
       <use xlink:href="#ArialMT-2e" x="55.615234"/>
       <use xlink:href="#ArialMT-30" x="83.398438"/>
      </g>
     </g>
    </g>
    <g id="ytick_12">
     <g id="line2d_18">
      <g>
       <use xlink:href="#mc05a46beb4" x="344.5896" y="110.141437" style="fill: #262626; stroke: #262626"/>
      </g>
     </g>
     <g id="text_18">
      <!-- 0.5 -->
      <g style="fill: #262626" transform="translate(352.8896 113.290875) scale(0.088 -0.088)">
       <use xlink:href="#ArialMT-30"/>
       <use xlink:href="#ArialMT-2e" x="55.615234"/>
       <use xlink:href="#ArialMT-35" x="83.398438"/>
      </g>
     </g>
    </g>
    <g id="ytick_13">
     <g id="line2d_19">
      <g>
       <use xlink:href="#mc05a46beb4" x="344.5896" y="76.877437" style="fill: #262626; stroke: #262626"/>
      </g>
     </g>
     <g id="text_19">
      <!-- 1.0 -->
      <g style="fill: #262626" transform="translate(352.8896 80.026875) scale(0.088 -0.088)">
       <use xlink:href="#ArialMT-31"/>
       <use xlink:href="#ArialMT-2e" x="55.615234"/>
       <use xlink:href="#ArialMT-30" x="83.398438"/>
      </g>
     </g>
    </g>
    <g id="ytick_14">
     <g id="line2d_20">
      <g>
       <use xlink:href="#mc05a46beb4" x="344.5896" y="43.613437" style="fill: #262626; stroke: #262626"/>
      </g>
     </g>
     <g id="text_20">
      <!-- 1.5 -->
      <g style="fill: #262626" transform="translate(352.8896 46.762875) scale(0.088 -0.088)">
       <use xlink:href="#ArialMT-31"/>
       <use xlink:href="#ArialMT-2e" x="55.615234"/>
       <use xlink:href="#ArialMT-35" x="83.398438"/>
      </g>
     </g>
    </g>
    <g id="ytick_15">
     <g id="line2d_21">
      <g>
       <use xlink:href="#mc05a46beb4" x="344.5896" y="10.349437" style="fill: #262626; stroke: #262626"/>
      </g>
     </g>
     <g id="text_21">
      <!-- 2.0 -->
      <g style="fill: #262626" transform="translate(352.8896 13.498875) scale(0.088 -0.088)">
       <use xlink:href="#ArialMT-32"/>
       <use xlink:href="#ArialMT-2e" x="55.615234"/>
       <use xlink:href="#ArialMT-30" x="83.398438"/>
      </g>
     </g>
    </g>
   </g>
   <g id="QuadMesh_1">
    <path d="M 331.284 276.461437 
L 344.5896 276.461437 
L 344.5896 243.197437 
L 331.284 243.197437 
L 331.284 276.461437 
" clip-path="url(#p18cb3aae3a)" style="fill: #180f29"/>
    <path d="M 331.284 243.197437 
L 344.5896 243.197437 
L 344.5896 209.933437 
L 331.284 209.933437 
L 331.284 243.197437 
" clip-path="url(#p18cb3aae3a)" style="fill: #481c48"/>
    <path d="M 331.284 209.933437 
L 344.5896 209.933437 
L 344.5896 176.669437 
L 331.284 176.669437 
L 331.284 209.933437 
" clip-path="url(#p18cb3aae3a)" style="fill: #7b1f59"/>
    <path d="M 331.284 176.669437 
L 344.5896 176.669437 
L 344.5896 143.405437 
L 331.284 143.405437 
L 331.284 176.669437 
" clip-path="url(#p18cb3aae3a)" style="fill: #b21758"/>
    <path d="M 331.284 143.405437 
L 344.5896 143.405437 
L 344.5896 110.141437 
L 331.284 110.141437 
L 331.284 143.405437 
" clip-path="url(#p18cb3aae3a)" style="fill: #df2f44"/>
    <path d="M 331.284 110.141437 
L 344.5896 110.141437 
L 344.5896 76.877437 
L 331.284 76.877437 
L 331.284 110.141437 
" clip-path="url(#p18cb3aae3a)" style="fill: #f26b49"/>
    <path d="M 331.284 76.877437 
L 344.5896 76.877437 
L 344.5896 43.613437 
L 331.284 43.613437 
L 331.284 76.877437 
" clip-path="url(#p18cb3aae3a)" style="fill: #f6a37a"/>
    <path d="M 331.284 43.613437 
L 344.5896 43.613437 
L 344.5896 10.349437 
L 331.284 10.349437 
L 331.284 43.613437 
" clip-path="url(#p18cb3aae3a)" style="fill: #f8d4bc"/>
   </g>
   <g id="LineCollection_1"/>
   <g id="patch_8">
    <path d="M 331.284 276.461437 
L 337.9368 276.461437 
L 344.5896 276.461437 
L 344.5896 10.349437 
L 337.9368 10.349437 
L 331.284 10.349437 
L 331.284 276.461437 
z
" style="fill: none; stroke: #262626; stroke-linejoin: miter; stroke-linecap: square"/>
   </g>
  </g>
 </g>
 <defs>
  <clipPath id="pb5d369981c">
   <rect x="27.732" y="10.349437" width="285.696" height="266.112"/>
  </clipPath>
  <clipPath id="p18cb3aae3a">
   <rect x="331.284" y="10.349437" width="13.3056" height="266.112"/>
  </clipPath>
 </defs>
</svg>