<?xml version="1.0" encoding="utf-8" standalone="no"?>
<!DOCTYPE svg PUBLIC "-//W3C//DTD SVG 1.1//EN"
  "http://www.w3.org/Graphics/SVG/1.1/DTD/svg11.dtd">
<svg xmlns:xlink="http://www.w3.org/1999/xlink" width="212.912875pt" height="167.278875pt" viewBox="0 0 212.912875 167.278875" xmlns="http://www.w3.org/2000/svg" version="1.1">
 <metadata>
  <rdf:RDF xmlns:dc="http://purl.org/dc/elements/1.1/" xmlns:cc="http://creativecommons.org/ns#" xmlns:rdf="http://www.w3.org/1999/02/22-rdf-syntax-ns#">
   <cc:Work>
    <dc:type rdf:resource="http://purl.org/dc/dcmitype/StillImage"/>
    <dc:date>2025-02-27T12:25:13.055712</dc:date>
    <dc:format>image/svg+xml</dc:format>
    <dc:creator>
     <cc:Agent>
      <dc:title>Matplotlib v3.9.2, https://matplotlib.org/</dc:title>
     </cc:Agent>
    </dc:creator>
   </cc:Work>
  </rdf:RDF>
 </metadata>
 <defs>
  <style type="text/css">*{stroke-linejoin: round; stroke-linecap: butt}</style>
 </defs>
 <g id="figure_1">
  <g id="patch_1">
   <path d="M 0 167.278875 
L 212.912875 167.278875 
L 212.912875 0 
L 0 0 
z
" style="fill: #ffffff"/>
  </g>
  <g id="axes_1">
   <g id="patch_2">
    <path d="M 38.312875 130.9515 
L 205.712875 130.9515 
L 205.712875 20.0715 
L 38.312875 20.0715 
z
" style="fill: #ffffff"/>
   </g>
   <g id="matplotlib.axis_1">
    <g id="xtick_1">
     <g id="line2d_1">
      <defs>
       <path id="m87596c7c87" d="M 0 0 
L 0 4.8 
" style="stroke: #262626"/>
      </defs>
      <g>
       <use xlink:href="#m87596c7c87" x="45.921966" y="130.9515" style="fill: #262626; stroke: #262626"/>
      </g>
     </g>
     <g id="text_1">
      <!-- 0.0 -->
      <g style="fill: #262626" transform="translate(39.805966 145.550375) scale(0.088 -0.088)">
       <defs>
        <path id="ArialMT-30" d="M 266 2259 
Q 266 3072 433 3567 
Q 600 4063 929 4331 
Q 1259 4600 1759 4600 
Q 2128 4600 2406 4451 
Q 2684 4303 2865 4023 
Q 3047 3744 3150 3342 
Q 3253 2941 3253 2259 
Q 3253 1453 3087 958 
Q 2922 463 2592 192 
Q 2263 -78 1759 -78 
Q 1097 -78 719 397 
Q 266 969 266 2259 
z
M 844 2259 
Q 844 1131 1108 757 
Q 1372 384 1759 384 
Q 2147 384 2411 759 
Q 2675 1134 2675 2259 
Q 2675 3391 2411 3762 
Q 2147 4134 1753 4134 
Q 1366 4134 1134 3806 
Q 844 3388 844 2259 
z
" transform="scale(0.015625)"/>
        <path id="ArialMT-2e" d="M 581 0 
L 581 641 
L 1222 641 
L 1222 0 
L 581 0 
z
" transform="scale(0.015625)"/>
       </defs>
       <use xlink:href="#ArialMT-30"/>
       <use xlink:href="#ArialMT-2e" x="55.615234"/>
       <use xlink:href="#ArialMT-30" x="83.398438"/>
      </g>
     </g>
    </g>
    <g id="xtick_2">
     <g id="line2d_2">
      <g>
       <use xlink:href="#m87596c7c87" x="76.35833" y="130.9515" style="fill: #262626; stroke: #262626"/>
      </g>
     </g>
     <g id="text_2">
      <!-- 0.2 -->
      <g style="fill: #262626" transform="translate(70.24233 145.550375) scale(0.088 -0.088)">
       <defs>
        <path id="ArialMT-32" d="M 3222 541 
L 3222 0 
L 194 0 
Q 188 203 259 391 
Q 375 700 629 1000 
Q 884 1300 1366 1694 
Q 2113 2306 2375 2664 
Q 2638 3022 2638 3341 
Q 2638 3675 2398 3904 
Q 2159 4134 1775 4134 
Q 1369 4134 1125 3890 
Q 881 3647 878 3216 
L 300 3275 
Q 359 3922 746 4261 
Q 1134 4600 1788 4600 
Q 2447 4600 2831 4234 
Q 3216 3869 3216 3328 
Q 3216 3053 3103 2787 
Q 2991 2522 2730 2228 
Q 2469 1934 1863 1422 
Q 1356 997 1212 845 
Q 1069 694 975 541 
L 3222 541 
z
" transform="scale(0.015625)"/>
       </defs>
       <use xlink:href="#ArialMT-30"/>
       <use xlink:href="#ArialMT-2e" x="55.615234"/>
       <use xlink:href="#ArialMT-32" x="83.398438"/>
      </g>
     </g>
    </g>
    <g id="xtick_3">
     <g id="line2d_3">
      <g>
       <use xlink:href="#m87596c7c87" x="106.794693" y="130.9515" style="fill: #262626; stroke: #262626"/>
      </g>
     </g>
     <g id="text_3">
      <!-- 0.4 -->
      <g style="fill: #262626" transform="translate(100.678693 145.550375) scale(0.088 -0.088)">
       <defs>
        <path id="ArialMT-34" d="M 2069 0 
L 2069 1097 
L 81 1097 
L 81 1613 
L 2172 4581 
L 2631 4581 
L 2631 1613 
L 3250 1613 
L 3250 1097 
L 2631 1097 
L 2631 0 
L 2069 0 
z
M 2069 1613 
L 2069 3678 
L 634 1613 
L 2069 1613 
z
" transform="scale(0.015625)"/>
       </defs>
       <use xlink:href="#ArialMT-30"/>
       <use xlink:href="#ArialMT-2e" x="55.615234"/>
       <use xlink:href="#ArialMT-34" x="83.398438"/>
      </g>
     </g>
    </g>
    <g id="xtick_4">
     <g id="line2d_4">
      <g>
       <use xlink:href="#m87596c7c87" x="137.231057" y="130.9515" style="fill: #262626; stroke: #262626"/>
      </g>
     </g>
     <g id="text_4">
      <!-- 0.6 -->
      <g style="fill: #262626" transform="translate(131.115057 145.550375) scale(0.088 -0.088)">
       <defs>
        <path id="ArialMT-36" d="M 3184 3459 
L 2625 3416 
Q 2550 3747 2413 3897 
Q 2184 4138 1850 4138 
Q 1581 4138 1378 3988 
Q 1113 3794 959 3422 
Q 806 3050 800 2363 
Q 1003 2672 1297 2822 
Q 1591 2972 1913 2972 
Q 2475 2972 2870 2558 
Q 3266 2144 3266 1488 
Q 3266 1056 3080 686 
Q 2894 316 2569 119 
Q 2244 -78 1831 -78 
Q 1128 -78 684 439 
Q 241 956 241 2144 
Q 241 3472 731 4075 
Q 1159 4600 1884 4600 
Q 2425 4600 2770 4297 
Q 3116 3994 3184 3459 
z
M 888 1484 
Q 888 1194 1011 928 
Q 1134 663 1356 523 
Q 1578 384 1822 384 
Q 2178 384 2434 671 
Q 2691 959 2691 1453 
Q 2691 1928 2437 2201 
Q 2184 2475 1800 2475 
Q 1419 2475 1153 2201 
Q 888 1928 888 1484 
z
" transform="scale(0.015625)"/>
       </defs>
       <use xlink:href="#ArialMT-30"/>
       <use xlink:href="#ArialMT-2e" x="55.615234"/>
       <use xlink:href="#ArialMT-36" x="83.398438"/>
      </g>
     </g>
    </g>
    <g id="xtick_5">
     <g id="line2d_5">
      <g>
       <use xlink:href="#m87596c7c87" x="167.66742" y="130.9515" style="fill: #262626; stroke: #262626"/>
      </g>
     </g>
     <g id="text_5">
      <!-- 0.8 -->
      <g style="fill: #262626" transform="translate(161.55142 145.550375) scale(0.088 -0.088)">
       <defs>
        <path id="ArialMT-38" d="M 1131 2484 
Q 781 2613 612 2850 
Q 444 3088 444 3419 
Q 444 3919 803 4259 
Q 1163 4600 1759 4600 
Q 2359 4600 2725 4251 
Q 3091 3903 3091 3403 
Q 3091 3084 2923 2848 
Q 2756 2613 2416 2484 
Q 2838 2347 3058 2040 
Q 3278 1734 3278 1309 
Q 3278 722 2862 322 
Q 2447 -78 1769 -78 
Q 1091 -78 675 323 
Q 259 725 259 1325 
Q 259 1772 486 2073 
Q 713 2375 1131 2484 
z
M 1019 3438 
Q 1019 3113 1228 2906 
Q 1438 2700 1772 2700 
Q 2097 2700 2305 2904 
Q 2513 3109 2513 3406 
Q 2513 3716 2298 3927 
Q 2084 4138 1766 4138 
Q 1444 4138 1231 3931 
Q 1019 3725 1019 3438 
z
M 838 1322 
Q 838 1081 952 856 
Q 1066 631 1291 507 
Q 1516 384 1775 384 
Q 2178 384 2440 643 
Q 2703 903 2703 1303 
Q 2703 1709 2433 1975 
Q 2163 2241 1756 2241 
Q 1359 2241 1098 1978 
Q 838 1716 838 1322 
z
" transform="scale(0.015625)"/>
       </defs>
       <use xlink:href="#ArialMT-30"/>
       <use xlink:href="#ArialMT-2e" x="55.615234"/>
       <use xlink:href="#ArialMT-38" x="83.398438"/>
      </g>
     </g>
    </g>
    <g id="xtick_6">
     <g id="line2d_6">
      <g>
       <use xlink:href="#m87596c7c87" x="198.103784" y="130.9515" style="fill: #262626; stroke: #262626"/>
      </g>
     </g>
     <g id="text_6">
      <!-- 1.0 -->
      <g style="fill: #262626" transform="translate(191.987784 145.550375) scale(0.088 -0.088)">
       <defs>
        <path id="ArialMT-31" d="M 2384 0 
L 1822 0 
L 1822 3584 
Q 1619 3391 1289 3197 
Q 959 3003 697 2906 
L 697 3450 
Q 1169 3672 1522 3987 
Q 1875 4303 2022 4600 
L 2384 4600 
L 2384 0 
z
" transform="scale(0.015625)"/>
       </defs>
       <use xlink:href="#ArialMT-31"/>
       <use xlink:href="#ArialMT-2e" x="55.615234"/>
       <use xlink:href="#ArialMT-30" x="83.398438"/>
      </g>
     </g>
    </g>
    <g id="text_7">
     <!-- $x$ -->
     <g style="fill: #262626" transform="translate(119.132875 158.170875) scale(0.096 -0.096)">
      <defs>
       <path id="DejaVuSans-Oblique-78" d="M 3841 3500 
L 2234 1784 
L 3219 0 
L 2559 0 
L 1819 1388 
L 531 0 
L -166 0 
L 1556 1844 
L 641 3500 
L 1300 3500 
L 1972 2234 
L 3144 3500 
L 3841 3500 
z
" transform="scale(0.015625)"/>
      </defs>
      <use xlink:href="#DejaVuSans-Oblique-78" transform="translate(0 0.3125)"/>
     </g>
    </g>
   </g>
   <g id="matplotlib.axis_2">
    <g id="ytick_1">
     <g id="line2d_7">
      <defs>
       <path id="md33f4e4805" d="M 0 0 
L -4.8 0 
" style="stroke: #262626"/>
      </defs>
      <g>
       <use xlink:href="#md33f4e4805" x="38.312875" y="130.9515" style="fill: #262626; stroke: #262626"/>
      </g>
     </g>
     <g id="text_8">
      <!-- −2 -->
      <g style="fill: #262626" transform="translate(19.9795 134.100937) scale(0.088 -0.088)">
       <defs>
        <path id="ArialMT-2212" d="M 3381 1997 
L 356 1997 
L 356 2522 
L 3381 2522 
L 3381 1997 
z
" transform="scale(0.015625)"/>
       </defs>
       <use xlink:href="#ArialMT-2212"/>
       <use xlink:href="#ArialMT-32" x="58.398438"/>
      </g>
     </g>
    </g>
    <g id="ytick_2">
     <g id="line2d_8">
      <g>
       <use xlink:href="#md33f4e4805" x="38.312875" y="112.4715" style="fill: #262626; stroke: #262626"/>
      </g>
     </g>
     <g id="text_9">
      <!-- −1 -->
      <g style="fill: #262626" transform="translate(19.9795 115.620937) scale(0.088 -0.088)">
       <use xlink:href="#ArialMT-2212"/>
       <use xlink:href="#ArialMT-31" x="58.398438"/>
      </g>
     </g>
    </g>
    <g id="ytick_3">
     <g id="line2d_9">
      <g>
       <use xlink:href="#md33f4e4805" x="38.312875" y="93.9915" style="fill: #262626; stroke: #262626"/>
      </g>
     </g>
     <g id="text_10">
      <!-- 0 -->
      <g style="fill: #262626" transform="translate(25.11925 97.140938) scale(0.088 -0.088)">
       <use xlink:href="#ArialMT-30"/>
      </g>
     </g>
    </g>
    <g id="ytick_4">
     <g id="line2d_10">
      <g>
       <use xlink:href="#md33f4e4805" x="38.312875" y="75.5115" style="fill: #262626; stroke: #262626"/>
      </g>
     </g>
     <g id="text_11">
      <!-- 1 -->
      <g style="fill: #262626" transform="translate(25.11925 78.660938) scale(0.088 -0.088)">
       <use xlink:href="#ArialMT-31"/>
      </g>
     </g>
    </g>
    <g id="ytick_5">
     <g id="line2d_11">
      <g>
       <use xlink:href="#md33f4e4805" x="38.312875" y="57.0315" style="fill: #262626; stroke: #262626"/>
      </g>
     </g>
     <g id="text_12">
      <!-- 2 -->
      <g style="fill: #262626" transform="translate(25.11925 60.180937) scale(0.088 -0.088)">
       <use xlink:href="#ArialMT-32"/>
      </g>
     </g>
    </g>
    <g id="ytick_6">
     <g id="line2d_12">
      <g>
       <use xlink:href="#md33f4e4805" x="38.312875" y="38.5515" style="fill: #262626; stroke: #262626"/>
      </g>
     </g>
     <g id="text_13">
      <!-- 3 -->
      <g style="fill: #262626" transform="translate(25.11925 41.700938) scale(0.088 -0.088)">
       <defs>
        <path id="ArialMT-33" d="M 269 1209 
L 831 1284 
Q 928 806 1161 595 
Q 1394 384 1728 384 
Q 2125 384 2398 659 
Q 2672 934 2672 1341 
Q 2672 1728 2419 1979 
Q 2166 2231 1775 2231 
Q 1616 2231 1378 2169 
L 1441 2663 
Q 1497 2656 1531 2656 
Q 1891 2656 2178 2843 
Q 2466 3031 2466 3422 
Q 2466 3731 2256 3934 
Q 2047 4138 1716 4138 
Q 1388 4138 1169 3931 
Q 950 3725 888 3313 
L 325 3413 
Q 428 3978 793 4289 
Q 1159 4600 1703 4600 
Q 2078 4600 2393 4439 
Q 2709 4278 2876 4000 
Q 3044 3722 3044 3409 
Q 3044 3113 2884 2869 
Q 2725 2625 2413 2481 
Q 2819 2388 3044 2092 
Q 3269 1797 3269 1353 
Q 3269 753 2831 336 
Q 2394 -81 1725 -81 
Q 1122 -81 723 278 
Q 325 638 269 1209 
z
" transform="scale(0.015625)"/>
       </defs>
       <use xlink:href="#ArialMT-33"/>
      </g>
     </g>
    </g>
    <g id="ytick_7">
     <g id="line2d_13">
      <g>
       <use xlink:href="#md33f4e4805" x="38.312875" y="20.0715" style="fill: #262626; stroke: #262626"/>
      </g>
     </g>
     <g id="text_14">
      <!-- 4 -->
      <g style="fill: #262626" transform="translate(25.11925 23.220937) scale(0.088 -0.088)">
       <use xlink:href="#ArialMT-34"/>
      </g>
     </g>
    </g>
    <g id="text_15">
     <!-- $y$ -->
     <g style="fill: #262626" transform="translate(13.9635 78.3915) rotate(-90) scale(0.096 -0.096)">
      <defs>
       <path id="DejaVuSans-Oblique-79" d="M 1588 -325 
Q 1188 -997 936 -1164 
Q 684 -1331 294 -1331 
L -159 -1331 
L -63 -850 
L 269 -850 
Q 509 -850 678 -719 
Q 847 -588 1056 -206 
L 1234 128 
L 459 3500 
L 1069 3500 
L 1650 819 
L 3256 3500 
L 3859 3500 
L 1588 -325 
z
" transform="scale(0.015625)"/>
      </defs>
      <use xlink:href="#DejaVuSans-Oblique-79" transform="translate(0 0.3125)"/>
     </g>
    </g>
   </g>
   <g id="PolyCollection_1">
    <defs>
     <path id="m20fe5757df" d="M 45.921966 -149.624576 
L 45.921966 -3.457509 
L 47.459156 -4.152966 
L 48.996346 -4.952263 
L 50.533536 -5.867839 
L 52.070726 -6.912846 
L 53.607916 -8.100985 
L 55.145106 -9.446295 
L 56.682296 -10.962895 
L 58.219487 -12.664672 
L 59.756677 -14.56493 
L 61.293867 -16.676011 
L 62.831057 -19.008881 
L 64.368247 -21.572711 
L 65.905437 -24.374459 
L 67.442627 -27.418462 
L 68.979817 -30.706061 
L 70.517007 -34.235268 
L 72.054197 -38.00048 
L 73.591387 -41.992264 
L 75.128577 -46.197192 
L 76.665768 -50.597746 
L 78.202958 -55.172251 
L 79.740148 -59.894779 
L 81.277338 -64.73491 
L 82.814528 -69.656968 
L 84.351718 -74.617732 
L 85.888908 -79.558999 
L 87.426098 -84.378446 
L 88.963288 -88.765247 
L 90.500478 -90.928932 
L 92.037668 -88.109235 
L 93.574858 -83.560019 
L 95.112049 -78.689006 
L 96.649239 -73.752605 
L 98.186429 -68.846363 
L 99.723619 -64.030252 
L 101.260809 -59.352355 
L 102.797999 -54.855138 
L 104.335189 -50.577413 
L 105.872379 -46.554961 
L 107.409569 -42.820698 
L 108.946759 -39.404659 
L 110.483949 -36.333932 
L 112.021139 -33.632577 
L 113.55833 -31.321555 
L 115.09552 -29.418652 
L 116.63271 -27.93842 
L 118.1699 -26.892113 
L 119.70709 -26.28762 
L 121.24428 -26.129398 
L 122.78147 -26.418393 
L 124.31866 -27.151961 
L 125.85585 -28.323789 
L 127.39304 -29.923814 
L 128.93023 -31.938154 
L 130.46742 -34.349024 
L 132.004611 -37.134656 
L 133.541801 -40.269127 
L 135.078991 -43.722008 
L 136.616181 -47.45747 
L 138.153371 -51.431835 
L 139.690561 -55.585987 
L 141.227751 -59.8162 
L 142.764941 -63.811738 
L 144.302131 -65.819339 
L 145.839321 -63.09566 
L 147.376511 -58.789518 
L 148.913701 -54.312231 
L 150.450892 -49.921124 
L 151.988082 -45.708207 
L 153.525272 -41.727562 
L 155.062462 -38.019616 
L 156.599652 -34.6177 
L 158.136842 -31.55024 
L 159.674032 -28.841588 
L 161.211222 -26.512381 
L 162.748412 -24.579718 
L 164.285602 -23.057281 
L 165.822792 -21.955425 
L 167.359982 -21.281275 
L 168.897173 -21.0388 
L 170.434363 -21.228899 
L 171.971553 -21.849461 
L 173.508743 -22.895417 
L 175.045933 -24.358773 
L 176.583123 -26.228627 
L 178.120313 -28.491178 
L 179.657503 -31.129714 
L 181.194693 -34.124613 
L 182.731883 -37.453327 
L 184.269073 -41.090373 
L 185.806263 -45.007301 
L 187.343454 -49.172588 
L 188.880644 -53.55134 
L 190.417834 -58.104446 
L 191.955024 -62.786157 
L 193.492214 -67.536427 
L 195.029404 -72.251058 
L 196.566594 -76.612714 
L 198.103784 -78.788276 
L 198.103784 -86.217498 
L 198.103784 -86.217498 
L 196.566594 -88.238082 
L 195.029404 -92.342801 
L 193.492214 -96.698929 
L 191.955024 -100.990702 
L 190.417834 -105.116643 
L 188.880644 -109.020531 
L 187.343454 -112.661472 
L 185.806263 -116.006166 
L 184.269073 -119.026394 
L 182.731883 -121.698065 
L 181.194693 -124.000819 
L 179.657503 -125.917805 
L 178.120313 -127.435547 
L 176.583123 -128.543824 
L 175.045933 -129.235559 
L 173.508743 -129.506722 
L 171.971553 -129.356241 
L 170.434363 -128.785925 
L 168.897173 -127.800421 
L 167.359982 -126.407187 
L 165.822792 -124.616495 
L 164.285602 -122.441451 
L 162.748412 -119.898041 
L 161.211222 -117.005184 
L 159.674032 -113.784797 
L 158.136842 -110.261865 
L 156.599652 -106.464544 
L 155.062462 -102.424315 
L 153.525272 -98.176328 
L 151.988082 -93.760208 
L 150.450892 -89.222226 
L 148.913701 -84.621831 
L 147.376511 -80.055892 
L 145.839321 -75.78606 
L 144.302131 -73.227404 
L 142.764941 -75.531874 
L 141.227751 -79.958606 
L 139.690561 -84.756105 
L 138.153371 -89.61464 
L 136.616181 -94.430669 
L 135.078991 -99.144379 
L 133.541801 -103.710449 
L 132.004611 -108.090394 
L 130.46742 -112.250052 
L 128.93023 -116.158632 
L 127.39304 -119.788293 
L 125.85585 -123.113933 
L 124.31866 -126.113061 
L 122.78147 -128.765691 
L 121.24428 -131.054263 
L 119.70709 -132.963575 
L 118.1699 -134.480739 
L 116.63271 -135.595167 
L 115.09552 -136.298588 
L 113.55833 -136.585104 
L 112.021139 -136.451281 
L 110.483949 -135.896275 
L 108.946759 -134.921989 
L 107.409569 -133.533252 
L 105.872379 -131.73801 
L 104.335189 -129.547541 
L 102.797999 -126.976682 
L 101.260809 -124.044131 
L 99.723619 -120.772905 
L 98.186429 -117.191258 
L 96.649239 -113.334921 
L 95.112049 -109.253611 
L 93.574858 -105.034927 
L 92.037668 -100.929806 
L 90.500478 -98.343087 
L 88.963288 -100.528408 
L 87.426098 -104.727937 
L 85.888908 -109.156261 
L 84.351718 -113.510125 
L 82.814528 -117.697129 
L 81.277338 -121.671156 
L 79.740148 -125.402969 
L 78.202958 -128.8725 
L 76.665768 -132.066246 
L 75.128577 -134.976175 
L 73.591387 -137.599142 
L 72.054197 -139.936454 
L 70.517007 -141.993467 
L 68.979817 -143.779173 
L 67.442627 -145.305741 
L 65.905437 -146.588038 
L 64.368247 -147.643114 
L 62.831057 -148.489682 
L 61.293867 -149.14759 
L 59.756677 -149.637311 
L 58.219487 -149.979463 
L 56.682296 -150.19436 
L 55.145106 -150.30162 
L 53.607916 -150.319829 
L 52.070726 -150.266266 
L 50.533536 -150.156703 
L 48.996346 -150.005259 
L 47.459156 -149.824331 
L 45.921966 -149.624576 
z
" style="stroke: #ffffff; stroke-opacity: 0.2; stroke-width: 0.8"/>
    </defs>
    <g clip-path="url(#p2562e9b598)">
     <use xlink:href="#m20fe5757df" x="0" y="167.278875" style="fill: #1f77b4; fill-opacity: 0.2; stroke: #ffffff; stroke-opacity: 0.2; stroke-width: 0.8"/>
    </g>
   </g>
   <g id="PathCollection_1">
    <defs>
     <path id="mb0f9abd1bc" d="M 0 2.4 
C 0.636487 2.4 1.246992 2.147121 1.697056 1.697056 
C 2.147121 1.246992 2.4 0.636487 2.4 0 
C 2.4 -0.636487 2.147121 -1.246992 1.697056 -1.697056 
C 1.246992 -2.147121 0.636487 -2.4 0 -2.4 
C -0.636487 -2.4 -1.246992 -2.147121 -1.697056 -1.697056 
C -2.147121 -1.246992 -2.4 -0.636487 -2.4 0 
C -2.4 0.636487 -2.147121 1.246992 -1.697056 1.697056 
C -1.246992 2.147121 -0.636487 2.4 0 2.4 
z
" style="stroke: #ff7f0e; stroke-width: 0.8"/>
    </defs>
    <g clip-path="url(#p2562e9b598)">
     <use xlink:href="#mb0f9abd1bc" x="90.393377" y="72.584426" style="fill: #ff7f0e; stroke: #ff7f0e; stroke-width: 0.8"/>
     <use xlink:href="#mb0f9abd1bc" x="197.974647" y="84.756626" style="fill: #ff7f0e; stroke: #ff7f0e; stroke-width: 0.8"/>
     <use xlink:href="#mb0f9abd1bc" x="144.205343" y="97.762372" style="fill: #ff7f0e; stroke: #ff7f0e; stroke-width: 0.8"/>
    </g>
   </g>
   <g id="line2d_14">
    <path d="M 45.921966 90.737833 
L 47.459156 90.290227 
L 48.996346 89.800114 
L 50.533536 89.266604 
L 52.070726 88.689319 
L 53.607916 88.068468 
L 55.145106 87.404917 
L 56.682296 86.700247 
L 58.219487 85.956808 
L 59.756677 85.177754 
L 61.293867 84.367075 
L 62.831057 83.529594 
L 64.368247 82.670963 
L 65.905437 81.797627 
L 67.442627 80.916774 
L 68.979817 80.036258 
L 70.517007 79.164508 
L 72.054197 78.310408 
L 73.591387 77.483172 
L 75.128577 76.692192 
L 76.665768 75.946879 
L 78.202958 75.2565 
L 79.740148 74.630001 
L 81.277338 74.075842 
L 82.814528 73.601826 
L 84.351718 73.214947 
L 85.888908 72.921245 
L 87.426098 72.725684 
L 88.963288 72.632048 
L 90.500478 72.642865 
L 92.037668 72.759355 
L 93.574858 72.981402 
L 95.112049 73.307567 
L 96.649239 73.735112 
L 98.186429 74.260064 
L 99.723619 74.877297 
L 101.260809 75.580632 
L 102.797999 76.362965 
L 104.335189 77.216398 
L 105.872379 78.132389 
L 107.409569 79.1019 
L 108.946759 80.115551 
L 110.483949 81.163772 
L 112.021139 82.236946 
L 113.55833 83.325545 
L 115.09552 84.420255 
L 116.63271 85.512082 
L 118.1699 86.592449 
L 119.70709 87.653278 
L 121.24428 88.687044 
L 122.78147 89.686833 
L 124.31866 90.646364 
L 125.85585 91.560014 
L 127.39304 92.422821 
L 128.93023 93.230482 
L 130.46742 93.979337 
L 132.004611 94.66635 
L 133.541801 95.289087 
L 135.078991 95.845681 
L 136.616181 96.334806 
L 138.153371 96.755638 
L 139.690561 97.107829 
L 141.227751 97.391472 
L 142.764941 97.607069 
L 144.302131 97.755504 
L 145.839321 97.838015 
L 147.376511 97.85617 
L 148.913701 97.811844 
L 150.450892 97.7072 
L 151.988082 97.544667 
L 153.525272 97.32693 
L 155.062462 97.05691 
L 156.599652 96.737753 
L 158.136842 96.372823 
L 159.674032 95.965682 
L 161.211222 95.520092 
L 162.748412 95.039995 
L 164.285602 94.529509 
L 165.822792 93.992915 
L 167.359982 93.434644 
L 168.897173 92.859265 
L 170.434363 92.271463 
L 171.971553 91.676024 
L 173.508743 91.077805 
L 175.045933 90.481709 
L 176.583123 89.892649 
L 178.120313 89.315512 
L 179.657503 88.755115 
L 181.194693 88.216159 
L 182.731883 87.703179 
L 184.269073 87.220492 
L 185.806263 86.772142 
L 187.343454 86.361845 
L 188.880644 85.99294 
L 190.417834 85.66833 
L 191.955024 85.390446 
L 193.492214 85.161197 
L 195.029404 84.981945 
L 196.566594 84.853477 
L 198.103784 84.775988 
" clip-path="url(#p2562e9b598)" style="fill: none; stroke: #1f77b4; stroke-width: 1.2; stroke-linecap: round"/>
   </g>
   <g id="line2d_15">
    <path d="M 45.921966 103.610489 
L 47.459156 103.860487 
L 48.996346 104.116597 
L 50.533536 104.35115 
L 52.070726 104.505896 
L 53.607916 104.562691 
L 55.145106 104.481644 
L 56.682296 104.245953 
L 58.219487 103.837525 
L 59.756677 103.249619 
L 61.293867 102.480219 
L 62.831057 101.554041 
L 64.368247 100.463258 
L 65.905437 99.244252 
L 67.442627 97.911941 
L 68.979817 96.483685 
L 70.517007 95.002895 
L 72.054197 93.464629 
L 73.591387 91.906118 
L 75.128577 90.337087 
L 76.665768 88.750155 
L 78.202958 87.149013 
L 79.740148 85.538097 
L 81.277338 83.908659 
L 82.814528 82.230546 
L 84.351718 80.499571 
L 85.888908 78.701534 
L 87.426098 76.81654 
L 88.963288 74.838317 
L 90.500478 72.758862 
L 92.037668 70.579748 
L 93.574858 68.320812 
L 95.112049 65.995971 
L 96.649239 63.63693 
L 98.186429 61.273088 
L 99.723619 58.961791 
L 101.260809 56.728003 
L 102.797999 54.649274 
L 104.335189 52.760712 
L 105.872379 51.124912 
L 107.409569 49.789765 
L 108.946759 48.798487 
L 110.483949 48.187771 
L 112.021139 47.993416 
L 113.55833 48.22428 
L 115.09552 48.903402 
L 116.63271 50.022193 
L 118.1699 51.568267 
L 119.70709 53.520184 
L 121.24428 55.847812 
L 122.78147 58.50601 
L 124.31866 61.441669 
L 125.85585 64.606037 
L 127.39304 67.934038 
L 128.93023 71.350158 
L 130.46742 74.801648 
L 132.004611 78.204114 
L 133.541801 81.500839 
L 135.078991 84.632332 
L 136.616181 87.536772 
L 138.153371 90.174599 
L 139.690561 92.512557 
L 141.227751 94.525579 
L 142.764941 96.199258 
L 144.302131 97.536114 
L 145.839321 98.549532 
L 147.376511 99.279361 
L 148.913701 99.743109 
L 150.450892 100.007422 
L 151.988082 100.119698 
L 153.525272 100.135619 
L 155.062462 100.105353 
L 156.599652 100.099284 
L 158.136842 100.157902 
L 159.674032 100.330925 
L 161.211222 100.647581 
L 162.748412 101.137174 
L 164.285602 101.795545 
L 165.822792 102.627959 
L 167.359982 103.604052 
L 168.897173 104.707208 
L 170.434363 105.88195 
L 171.971553 107.088449 
L 173.508743 108.265068 
L 175.045933 109.353235 
L 176.583123 110.281122 
L 178.120313 110.997507 
L 179.657503 111.442392 
L 181.194693 111.556379 
L 182.731883 111.302092 
L 184.269073 110.633144 
L 185.806263 109.521877 
L 187.343454 107.969284 
L 188.880644 105.946784 
L 190.417834 103.479764 
L 191.955024 100.569499 
L 193.492214 97.247302 
L 195.029404 93.547643 
L 196.566594 89.516846 
L 198.103784 85.190558 
" clip-path="url(#p2562e9b598)" style="fill: none; stroke: #d62728; stroke-opacity: 0.5; stroke-width: 0.5; stroke-linecap: round"/>
   </g>
   <g id="line2d_16">
    <path d="M 45.921966 52.621453 
L 47.459156 54.501194 
L 48.996346 56.528963 
L 50.533536 58.631137 
L 52.070726 60.759494 
L 53.607916 62.836054 
L 55.145106 64.794281 
L 56.682296 66.586411 
L 58.219487 68.146993 
L 59.756677 69.440891 
L 61.293867 70.436103 
L 62.831057 71.111384 
L 64.368247 71.459283 
L 65.905437 71.495153 
L 67.442627 71.24291 
L 68.979817 70.730148 
L 70.517007 70.033091 
L 72.054197 69.184579 
L 73.591387 68.261813 
L 75.128577 67.334999 
L 76.665768 66.485237 
L 78.202958 65.776598 
L 79.740148 65.284224 
L 81.277338 65.062244 
L 82.814528 65.173238 
L 84.351718 65.65476 
L 85.888908 66.537288 
L 87.426098 67.841091 
L 88.963288 69.5595 
L 90.500478 71.695882 
L 92.037668 74.21676 
L 93.574858 77.096809 
L 95.112049 80.285887 
L 96.649239 83.735264 
L 98.186429 87.395147 
L 99.723619 91.190593 
L 101.260809 95.060062 
L 102.797999 98.942052 
L 104.335189 102.775458 
L 105.872379 106.493869 
L 107.409569 110.035536 
L 108.946759 113.359386 
L 110.483949 116.401264 
L 112.021139 119.128053 
L 113.55833 121.501956 
L 115.09552 123.49437 
L 116.63271 125.088926 
L 118.1699 126.260067 
L 119.70709 127.019532 
L 121.24428 127.352006 
L 122.78147 127.265848 
L 124.31866 126.782661 
L 125.85585 125.914931 
L 127.39304 124.696312 
L 128.93023 123.142472 
L 130.46742 121.298364 
L 132.004611 119.199834 
L 133.541801 116.882122 
L 135.078991 114.385548 
L 136.616181 111.747476 
L 138.153371 109.013585 
L 139.690561 106.211533 
L 141.227751 103.388525 
L 142.764941 100.568147 
L 144.302131 97.795748 
L 145.839321 95.096388 
L 147.376511 92.50061 
L 148.913701 90.024951 
L 150.450892 87.708003 
L 151.988082 85.56441 
L 153.525272 83.61603 
L 155.062462 81.874322 
L 156.599652 80.362666 
L 158.136842 79.093494 
L 159.674032 78.061185 
L 161.211222 77.283295 
L 162.748412 76.75348 
L 164.285602 76.463378 
L 165.822792 76.405093 
L 167.359982 76.554916 
L 168.897173 76.898395 
L 170.434363 77.394782 
L 171.971553 78.017994 
L 173.508743 78.732515 
L 175.045933 79.49491 
L 176.583123 80.277438 
L 178.120313 81.030451 
L 179.657503 81.739582 
L 181.194693 82.367214 
L 182.731883 82.899942 
L 184.269073 83.317093 
L 185.806263 83.620601 
L 187.343454 83.813872 
L 188.880644 83.902708 
L 190.417834 83.907012 
L 191.955024 83.850392 
L 193.492214 83.752465 
L 195.029404 83.637508 
L 196.566594 83.517256 
L 198.103784 83.436936 
" clip-path="url(#p2562e9b598)" style="fill: none; stroke: #d62728; stroke-opacity: 0.5; stroke-width: 0.5; stroke-linecap: round"/>
   </g>
   <g id="line2d_17">
    <path d="M 45.921966 59.714012 
L 47.459156 57.033019 
L 48.996346 54.383788 
L 50.533536 51.82208 
L 52.070726 49.393886 
L 53.607916 47.169493 
L 55.145106 45.176079 
L 56.682296 43.48727 
L 58.219487 42.136114 
L 59.756677 41.150918 
L 61.293867 40.560878 
L 62.831057 40.381163 
L 64.368247 40.594865 
L 65.905437 41.202541 
L 67.442627 42.170849 
L 68.979817 43.468156 
L 70.517007 45.046202 
L 72.054197 46.85524 
L 73.591387 48.841612 
L 75.128577 50.950418 
L 76.665768 53.130458 
L 78.202958 55.320389 
L 79.740148 57.497043 
L 81.277338 59.613718 
L 82.814528 61.647454 
L 84.351718 63.588456 
L 85.888908 65.431086 
L 87.426098 67.177002 
L 88.963288 68.833657 
L 90.500478 70.419138 
L 92.037668 71.959424 
L 93.574858 73.472402 
L 95.112049 74.980402 
L 96.649239 76.506327 
L 98.186429 78.054061 
L 99.723619 79.650891 
L 101.260809 81.291099 
L 102.797999 82.97252 
L 104.335189 84.702247 
L 105.872379 86.444372 
L 107.409569 88.193423 
L 108.946759 89.92887 
L 110.483949 91.620213 
L 112.021139 93.24763 
L 113.55833 94.784766 
L 115.09552 96.199473 
L 116.63271 97.481757 
L 118.1699 98.603948 
L 119.70709 99.563449 
L 121.24428 100.34027 
L 122.78147 100.934645 
L 124.31866 101.346251 
L 125.85585 101.580675 
L 127.39304 101.645156 
L 128.93023 101.562097 
L 130.46742 101.346116 
L 132.004611 101.011844 
L 133.541801 100.596401 
L 135.078991 100.118775 
L 136.616181 99.617101 
L 138.153371 99.109011 
L 139.690561 98.641665 
L 141.227751 98.219874 
L 142.764941 97.878518 
L 144.302131 97.636896 
L 145.839321 97.506788 
L 147.376511 97.493661 
L 148.913701 97.596896 
L 150.450892 97.813025 
L 151.988082 98.124587 
L 153.525272 98.503727 
L 155.062462 98.921725 
L 156.599652 99.334972 
L 158.136842 99.721055 
L 159.674032 100.017924 
L 161.211222 100.200625 
L 162.748412 100.215649 
L 164.285602 100.041183 
L 165.822792 99.64844 
L 167.359982 99.025303 
L 168.897173 98.157133 
L 170.434363 97.069522 
L 171.971553 95.770327 
L 173.508743 94.296254 
L 175.045933 92.702257 
L 176.583123 91.02614 
L 178.120313 89.332379 
L 179.657503 87.690858 
L 181.194693 86.152504 
L 182.731883 84.783085 
L 184.269073 83.633464 
L 185.806263 82.74657 
L 187.343454 82.156018 
L 188.880644 81.875257 
L 190.417834 81.916027 
L 191.955024 82.267922 
L 193.492214 82.911925 
L 195.029404 83.825811 
L 196.566594 84.965318 
L 198.103784 86.298722 
" clip-path="url(#p2562e9b598)" style="fill: none; stroke: #d62728; stroke-opacity: 0.5; stroke-width: 0.5; stroke-linecap: round"/>
   </g>
   <g id="line2d_18">
    <path d="M 45.921966 54.185115 
L 47.459156 54.448846 
L 48.996346 54.603552 
L 50.533536 54.655443 
L 52.070726 54.607789 
L 53.607916 54.481647 
L 55.145106 54.297832 
L 56.682296 54.087434 
L 58.219487 53.884438 
L 59.756677 53.730971 
L 61.293867 53.637459 
L 62.831057 53.655579 
L 64.368247 53.799381 
L 65.905437 54.092144 
L 67.442627 54.55151 
L 68.979817 55.185059 
L 70.517007 55.984753 
L 72.054197 56.954053 
L 73.591387 58.059544 
L 75.128577 59.308888 
L 76.665768 60.639625 
L 78.202958 62.036389 
L 79.740148 63.466896 
L 81.277338 64.886572 
L 82.814528 66.259336 
L 84.351718 67.555848 
L 85.888908 68.736637 
L 87.426098 69.770346 
L 88.963288 70.642901 
L 90.500478 71.329781 
L 92.037668 71.823982 
L 93.574858 72.116555 
L 95.112049 72.202918 
L 96.649239 72.096672 
L 98.186429 71.813427 
L 99.723619 71.350612 
L 101.260809 70.741857 
L 102.797999 70.002398 
L 104.335189 69.162585 
L 105.872379 68.249424 
L 107.409569 67.282824 
L 108.946759 66.288883 
L 110.483949 65.310179 
L 112.021139 64.362368 
L 113.55833 63.47867 
L 115.09552 62.698639 
L 116.63271 62.04458 
L 118.1699 61.554179 
L 119.70709 61.261307 
L 121.24428 61.177393 
L 122.78147 61.352496 
L 124.31866 61.813195 
L 125.85585 62.571518 
L 127.39304 63.654118 
L 128.93023 65.072201 
L 130.46742 66.837763 
L 132.004611 68.936223 
L 133.541801 71.358211 
L 135.078991 74.094261 
L 136.616181 77.0953 
L 138.153371 80.337326 
L 139.690561 83.752982 
L 141.227751 87.301482 
L 142.764941 90.904403 
L 144.302131 94.508533 
L 145.839321 98.031895 
L 147.376511 101.420553 
L 148.913701 104.596589 
L 150.450892 107.509444 
L 151.988082 110.102511 
L 153.525272 112.3271 
L 155.062462 114.150882 
L 156.599652 115.558249 
L 158.136842 116.521034 
L 159.674032 117.046771 
L 161.211222 117.134269 
L 162.748412 116.811839 
L 164.285602 116.104491 
L 165.822792 115.028139 
L 167.359982 113.64939 
L 168.897173 111.991388 
L 170.434363 110.11946 
L 171.971553 108.070184 
L 173.508743 105.901243 
L 175.045933 103.658672 
L 176.583123 101.386418 
L 178.120313 99.149052 
L 179.657503 96.966604 
L 181.194693 94.87816 
L 182.731883 92.924553 
L 184.269073 91.118266 
L 185.806263 89.476219 
L 187.343454 88.011983 
L 188.880644 86.719526 
L 190.417834 85.593375 
L 191.955024 84.635246 
L 193.492214 83.809902 
L 195.029404 83.119842 
L 196.566594 82.531884 
L 198.103784 82.031085 
" clip-path="url(#p2562e9b598)" style="fill: none; stroke: #d62728; stroke-opacity: 0.5; stroke-width: 0.5; stroke-linecap: round"/>
   </g>
   <g id="line2d_19">
    <path d="M 45.921966 117.104563 
L 47.459156 113.674739 
L 48.996346 110.042233 
L 50.533536 106.259139 
L 52.070726 102.348181 
L 53.607916 98.350467 
L 55.145106 94.32512 
L 56.682296 90.310905 
L 58.219487 86.346897 
L 59.756677 82.48588 
L 61.293867 78.784599 
L 62.831057 75.268419 
L 64.368247 72.000072 
L 65.905437 69.005667 
L 67.442627 66.325106 
L 68.979817 64.001375 
L 70.517007 62.04904 
L 72.054197 60.496544 
L 73.591387 59.362181 
L 75.128577 58.654647 
L 76.665768 58.371142 
L 78.202958 58.510192 
L 79.740148 59.064366 
L 81.277338 60.012825 
L 82.814528 61.328869 
L 84.351718 62.99482 
L 85.888908 64.975514 
L 87.426098 67.237765 
L 88.963288 69.74299 
L 90.500478 72.455631 
L 92.037668 75.340597 
L 93.574858 78.357187 
L 95.112049 81.472838 
L 96.649239 84.648422 
L 98.186429 87.861926 
L 99.723619 91.073643 
L 101.260809 94.258971 
L 102.797999 97.391028 
L 104.335189 100.447827 
L 105.872379 103.407741 
L 107.409569 106.242825 
L 108.946759 108.941132 
L 110.483949 111.469196 
L 112.021139 113.821804 
L 113.55833 115.96324 
L 115.09552 117.877414 
L 116.63271 119.546672 
L 118.1699 120.946752 
L 119.70709 122.055005 
L 121.24428 122.850098 
L 122.78147 123.32051 
L 124.31866 123.444523 
L 125.85585 123.213717 
L 127.39304 122.617634 
L 128.93023 121.662753 
L 130.46742 120.34291 
L 132.004611 118.687237 
L 133.541801 116.698248 
L 135.078991 114.406832 
L 136.616181 111.841752 
L 138.153371 109.031828 
L 139.690561 106.02856 
L 141.227751 102.871845 
L 142.764941 99.605257 
L 144.302131 96.274034 
L 145.839321 92.917229 
L 147.376511 89.585873 
L 148.913701 86.310698 
L 150.450892 83.127634 
L 151.988082 80.053656 
L 153.525272 77.119786 
L 155.062462 74.334992 
L 156.599652 71.714415 
L 158.136842 69.254154 
L 159.674032 66.962198 
L 161.211222 64.829097 
L 162.748412 62.860872 
L 164.285602 61.046487 
L 165.822792 59.388613 
L 167.359982 57.892625 
L 168.897173 56.559047 
L 170.434363 55.408557 
L 171.971553 54.442746 
L 173.508743 53.701125 
L 175.045933 53.188953 
L 176.583123 52.955705 
L 178.120313 53.014479 
L 179.657503 53.396036 
L 181.194693 54.129936 
L 182.731883 55.233989 
L 184.269073 56.731569 
L 185.806263 58.604118 
L 187.343454 60.865002 
L 188.880644 63.489177 
L 190.417834 66.441782 
L 191.955024 69.68381 
L 193.492214 73.159106 
L 195.029404 76.798792 
L 196.566594 80.529514 
L 198.103784 84.268615 
" clip-path="url(#p2562e9b598)" style="fill: none; stroke: #d62728; stroke-opacity: 0.5; stroke-width: 0.5; stroke-linecap: round"/>
   </g>
   <g id="line2d_20">
    <path d="M 45.949617 130.9515 
L 45.949617 20.0715 
" clip-path="url(#p2562e9b598)" style="fill: none; stroke-dasharray: 4.44,1.92; stroke-dashoffset: 0; stroke: #ff0000; stroke-width: 1.2"/>
   </g>
   <g id="patch_3">
    <path d="M 38.312875 130.9515 
L 38.312875 20.0715 
" style="fill: none; stroke: #262626; stroke-linejoin: miter; stroke-linecap: square"/>
   </g>
   <g id="patch_4">
    <path d="M 45.921966 130.9515 
L 198.103784 130.9515 
" style="fill: none; stroke: #262626; stroke-linejoin: miter; stroke-linecap: square"/>
   </g>
   <g id="text_16">
    <!-- $N=3$ -->
    <g style="fill: #262626" transform="translate(109.436875 14.0715) scale(0.096 -0.096)">
     <defs>
      <path id="DejaVuSans-Oblique-4e" d="M 1081 4666 
L 1931 4666 
L 3219 666 
L 4000 4666 
L 4616 4666 
L 3706 0 
L 2853 0 
L 1569 4025 
L 788 0 
L 172 0 
L 1081 4666 
z
" transform="scale(0.015625)"/>
      <path id="DejaVuSans-3d" d="M 678 2906 
L 4684 2906 
L 4684 2381 
L 678 2381 
L 678 2906 
z
M 678 1631 
L 4684 1631 
L 4684 1100 
L 678 1100 
L 678 1631 
z
" transform="scale(0.015625)"/>
      <path id="DejaVuSans-33" d="M 2597 2516 
Q 3050 2419 3304 2112 
Q 3559 1806 3559 1356 
Q 3559 666 3084 287 
Q 2609 -91 1734 -91 
Q 1441 -91 1130 -33 
Q 819 25 488 141 
L 488 750 
Q 750 597 1062 519 
Q 1375 441 1716 441 
Q 2309 441 2620 675 
Q 2931 909 2931 1356 
Q 2931 1769 2642 2001 
Q 2353 2234 1838 2234 
L 1294 2234 
L 1294 2753 
L 1863 2753 
Q 2328 2753 2575 2939 
Q 2822 3125 2822 3475 
Q 2822 3834 2567 4026 
Q 2313 4219 1838 4219 
Q 1578 4219 1281 4162 
Q 984 4106 628 3988 
L 628 4550 
Q 988 4650 1302 4700 
Q 1616 4750 1894 4750 
Q 2613 4750 3031 4423 
Q 3450 4097 3450 3541 
Q 3450 3153 3228 2886 
Q 3006 2619 2597 2516 
z
" transform="scale(0.015625)"/>
     </defs>
     <use xlink:href="#DejaVuSans-Oblique-4e" transform="translate(0 0.78125)"/>
     <use xlink:href="#DejaVuSans-3d" transform="translate(94.287109 0.78125)"/>
     <use xlink:href="#DejaVuSans-33" transform="translate(197.558594 0.78125)"/>
    </g>
   </g>
  </g>
 </g>
 <defs>
  <clipPath id="p2562e9b598">
   <rect x="38.312875" y="20.0715" width="167.4" height="110.88"/>
  </clipPath>
 </defs>
</svg>