<?xml version="1.0" encoding="utf-8" standalone="no"?>
<!DOCTYPE svg PUBLIC "-//W3C//DTD SVG 1.1//EN"
  "http://www.w3.org/Graphics/SVG/1.1/DTD/svg11.dtd">
<svg xmlns:xlink="http://www.w3.org/1999/xlink" width="713.664pt" height="137.664pt" viewBox="0 0 713.664 137.664" xmlns="http://www.w3.org/2000/svg" version="1.1">
 <metadata>
  <rdf:RDF xmlns:dc="http://purl.org/dc/elements/1.1/" xmlns:cc="http://creativecommons.org/ns#" xmlns:rdf="http://www.w3.org/1999/02/22-rdf-syntax-ns#">
   <cc:Work>
    <dc:type rdf:resource="http://purl.org/dc/dcmitype/StillImage"/>
    <dc:date>2024-10-08T15:44:02.572690</dc:date>
    <dc:format>image/svg+xml</dc:format>
    <dc:creator>
     <cc:Agent>
      <dc:title>Matplotlib v3.9.2, https://matplotlib.org/</dc:title>
     </cc:Agent>
    </dc:creator>
   </cc:Work>
  </rdf:RDF>
 </metadata>
 <defs>
  <style type="text/css">*{stroke-linejoin: round; stroke-linecap: butt}</style>
 </defs>
 <g id="figure_1">
  <g id="patch_1">
   <path d="M 0 137.664 
L 713.664 137.664 
L 713.664 0 
L 0 0 
z
" style="fill: #ffffff"/>
  </g>
  <g id="axes_1">
   <g id="patch_2">
    <path d="M 7.2 114.116125 
L 174.24 114.116125 
L 174.24 20.1 
L 7.2 20.1 
z
" style="fill: #ffffff"/>
   </g>
   <g id="matplotlib.axis_1">
    <g id="xtick_1">
     <g id="line2d_1">
      <defs>
       <path id="m400a9c61b9" d="M 0 0 
L 0 4.8 
" style="stroke: #262626"/>
      </defs>
      <g>
       <use xlink:href="#m400a9c61b9" x="30.72199" y="114.116125" style="fill: #262626; stroke: #262626"/>
      </g>
     </g>
     <g id="text_1">
      <!-- 0.004 -->
      <g style="fill: #262626" transform="translate(19.712365 128.715) scale(0.088 -0.088)">
       <defs>
        <path id="ArialMT-30" d="M 266 2259 
Q 266 3072 433 3567 
Q 600 4063 929 4331 
Q 1259 4600 1759 4600 
Q 2128 4600 2406 4451 
Q 2684 4303 2865 4023 
Q 3047 3744 3150 3342 
Q 3253 2941 3253 2259 
Q 3253 1453 3087 958 
Q 2922 463 2592 192 
Q 2263 -78 1759 -78 
Q 1097 -78 719 397 
Q 266 969 266 2259 
z
M 844 2259 
Q 844 1131 1108 757 
Q 1372 384 1759 384 
Q 2147 384 2411 759 
Q 2675 1134 2675 2259 
Q 2675 3391 2411 3762 
Q 2147 4134 1753 4134 
Q 1366 4134 1134 3806 
Q 844 3388 844 2259 
z
" transform="scale(0.015625)"/>
        <path id="ArialMT-2e" d="M 581 0 
L 581 641 
L 1222 641 
L 1222 0 
L 581 0 
z
" transform="scale(0.015625)"/>
        <path id="ArialMT-34" d="M 2069 0 
L 2069 1097 
L 81 1097 
L 81 1613 
L 2172 4581 
L 2631 4581 
L 2631 1613 
L 3250 1613 
L 3250 1097 
L 2631 1097 
L 2631 0 
L 2069 0 
z
M 2069 1613 
L 2069 3678 
L 634 1613 
L 2069 1613 
z
" transform="scale(0.015625)"/>
       </defs>
       <use xlink:href="#ArialMT-30"/>
       <use xlink:href="#ArialMT-2e" x="55.615234"/>
       <use xlink:href="#ArialMT-30" x="83.398438"/>
       <use xlink:href="#ArialMT-30" x="139.013672"/>
       <use xlink:href="#ArialMT-34" x="194.628906"/>
      </g>
     </g>
    </g>
    <g id="xtick_2">
     <g id="line2d_2">
      <g>
       <use xlink:href="#m400a9c61b9" x="80.224103" y="114.116125" style="fill: #262626; stroke: #262626"/>
      </g>
     </g>
     <g id="text_2">
      <!-- 0.006 -->
      <g style="fill: #262626" transform="translate(69.214478 128.715) scale(0.088 -0.088)">
       <defs>
        <path id="ArialMT-36" d="M 3184 3459 
L 2625 3416 
Q 2550 3747 2413 3897 
Q 2184 4138 1850 4138 
Q 1581 4138 1378 3988 
Q 1113 3794 959 3422 
Q 806 3050 800 2363 
Q 1003 2672 1297 2822 
Q 1591 2972 1913 2972 
Q 2475 2972 2870 2558 
Q 3266 2144 3266 1488 
Q 3266 1056 3080 686 
Q 2894 316 2569 119 
Q 2244 -78 1831 -78 
Q 1128 -78 684 439 
Q 241 956 241 2144 
Q 241 3472 731 4075 
Q 1159 4600 1884 4600 
Q 2425 4600 2770 4297 
Q 3116 3994 3184 3459 
z
M 888 1484 
Q 888 1194 1011 928 
Q 1134 663 1356 523 
Q 1578 384 1822 384 
Q 2178 384 2434 671 
Q 2691 959 2691 1453 
Q 2691 1928 2437 2201 
Q 2184 2475 1800 2475 
Q 1419 2475 1153 2201 
Q 888 1928 888 1484 
z
" transform="scale(0.015625)"/>
       </defs>
       <use xlink:href="#ArialMT-30"/>
       <use xlink:href="#ArialMT-2e" x="55.615234"/>
       <use xlink:href="#ArialMT-30" x="83.398438"/>
       <use xlink:href="#ArialMT-30" x="139.013672"/>
       <use xlink:href="#ArialMT-36" x="194.628906"/>
      </g>
     </g>
    </g>
    <g id="xtick_3">
     <g id="line2d_3">
      <g>
       <use xlink:href="#m400a9c61b9" x="129.726215" y="114.116125" style="fill: #262626; stroke: #262626"/>
      </g>
     </g>
     <g id="text_3">
      <!-- 0.008 -->
      <g style="fill: #262626" transform="translate(118.71659 128.715) scale(0.088 -0.088)">
       <defs>
        <path id="ArialMT-38" d="M 1131 2484 
Q 781 2613 612 2850 
Q 444 3088 444 3419 
Q 444 3919 803 4259 
Q 1163 4600 1759 4600 
Q 2359 4600 2725 4251 
Q 3091 3903 3091 3403 
Q 3091 3084 2923 2848 
Q 2756 2613 2416 2484 
Q 2838 2347 3058 2040 
Q 3278 1734 3278 1309 
Q 3278 722 2862 322 
Q 2447 -78 1769 -78 
Q 1091 -78 675 323 
Q 259 725 259 1325 
Q 259 1772 486 2073 
Q 713 2375 1131 2484 
z
M 1019 3438 
Q 1019 3113 1228 2906 
Q 1438 2700 1772 2700 
Q 2097 2700 2305 2904 
Q 2513 3109 2513 3406 
Q 2513 3716 2298 3927 
Q 2084 4138 1766 4138 
Q 1444 4138 1231 3931 
Q 1019 3725 1019 3438 
z
M 838 1322 
Q 838 1081 952 856 
Q 1066 631 1291 507 
Q 1516 384 1775 384 
Q 2178 384 2440 643 
Q 2703 903 2703 1303 
Q 2703 1709 2433 1975 
Q 2163 2241 1756 2241 
Q 1359 2241 1098 1978 
Q 838 1716 838 1322 
z
" transform="scale(0.015625)"/>
       </defs>
       <use xlink:href="#ArialMT-30"/>
       <use xlink:href="#ArialMT-2e" x="55.615234"/>
       <use xlink:href="#ArialMT-30" x="83.398438"/>
       <use xlink:href="#ArialMT-30" x="139.013672"/>
       <use xlink:href="#ArialMT-38" x="194.628906"/>
      </g>
     </g>
    </g>
   </g>
   <g id="matplotlib.axis_2"/>
   <g id="patch_3">
    <path d="M 14.792727 114.116125 
L 24.283636 114.116125 
L 24.283636 112.922269 
L 14.792727 112.922269 
z
" clip-path="url(#p42342c155f)" style="fill: #1f77b4; stroke: #ffffff; stroke-width: 0.8; stroke-linejoin: miter"/>
   </g>
   <g id="patch_4">
    <path d="M 24.283636 114.116125 
L 33.774545 114.116125 
L 33.774545 105.162208 
L 24.283636 105.162208 
z
" clip-path="url(#p42342c155f)" style="fill: #1f77b4; stroke: #ffffff; stroke-width: 0.8; stroke-linejoin: miter"/>
   </g>
   <g id="patch_5">
    <path d="M 33.774545 114.116125 
L 43.265455 114.116125 
L 43.265455 104.565281 
L 33.774545 104.565281 
z
" clip-path="url(#p42342c155f)" style="fill: #1f77b4; stroke: #ffffff; stroke-width: 0.8; stroke-linejoin: miter"/>
   </g>
   <g id="patch_6">
    <path d="M 43.265455 114.116125 
L 52.756364 114.116125 
L 52.756364 94.417508 
L 43.265455 94.417508 
z
" clip-path="url(#p42342c155f)" style="fill: #1f77b4; stroke: #ffffff; stroke-width: 0.8; stroke-linejoin: miter"/>
   </g>
   <g id="patch_7">
    <path d="M 52.756364 114.116125 
L 62.247273 114.116125 
L 62.247273 81.285097 
L 52.756364 81.285097 
z
" clip-path="url(#p42342c155f)" style="fill: #1f77b4; stroke: #ffffff; stroke-width: 0.8; stroke-linejoin: miter"/>
   </g>
   <g id="patch_8">
    <path d="M 62.247273 114.116125 
L 71.738182 114.116125 
L 71.738182 69.346542 
L 62.247273 69.346542 
z
" clip-path="url(#p42342c155f)" style="fill: #1f77b4; stroke: #ffffff; stroke-width: 0.8; stroke-linejoin: miter"/>
   </g>
   <g id="patch_9">
    <path d="M 71.738182 114.116125 
L 81.229091 114.116125 
L 81.229091 47.260214 
L 71.738182 47.260214 
z
" clip-path="url(#p42342c155f)" style="fill: #1f77b4; stroke: #ffffff; stroke-width: 0.8; stroke-linejoin: miter"/>
   </g>
   <g id="patch_10">
    <path d="M 81.229091 114.116125 
L 90.72 114.116125 
L 90.72 46.066358 
L 81.229091 46.066358 
z
" clip-path="url(#p42342c155f)" style="fill: #1f77b4; stroke: #ffffff; stroke-width: 0.8; stroke-linejoin: miter"/>
   </g>
   <g id="patch_11">
    <path d="M 90.72 114.116125 
L 100.210909 114.116125 
L 100.210909 24.576958 
L 90.72 24.576958 
z
" clip-path="url(#p42342c155f)" style="fill: #1f77b4; stroke: #ffffff; stroke-width: 0.8; stroke-linejoin: miter"/>
   </g>
   <g id="patch_12">
    <path d="M 100.210909 114.116125 
L 109.701818 114.116125 
L 109.701818 30.546236 
L 100.210909 30.546236 
z
" clip-path="url(#p42342c155f)" style="fill: #1f77b4; stroke: #ffffff; stroke-width: 0.8; stroke-linejoin: miter"/>
   </g>
   <g id="patch_13">
    <path d="M 109.701818 114.116125 
L 119.192727 114.116125 
L 119.192727 55.617203 
L 109.701818 55.617203 
z
" clip-path="url(#p42342c155f)" style="fill: #1f77b4; stroke: #ffffff; stroke-width: 0.8; stroke-linejoin: miter"/>
   </g>
   <g id="patch_14">
    <path d="M 119.192727 114.116125 
L 128.683636 114.116125 
L 128.683636 63.377264 
L 119.192727 63.377264 
z
" clip-path="url(#p42342c155f)" style="fill: #1f77b4; stroke: #ffffff; stroke-width: 0.8; stroke-linejoin: miter"/>
   </g>
   <g id="patch_15">
    <path d="M 128.683636 114.116125 
L 138.174545 114.116125 
L 138.174545 87.851303 
L 128.683636 87.851303 
z
" clip-path="url(#p42342c155f)" style="fill: #1f77b4; stroke: #ffffff; stroke-width: 0.8; stroke-linejoin: miter"/>
   </g>
   <g id="patch_16">
    <path d="M 138.174545 114.116125 
L 147.665455 114.116125 
L 147.665455 89.045158 
L 138.174545 89.045158 
z
" clip-path="url(#p42342c155f)" style="fill: #1f77b4; stroke: #ffffff; stroke-width: 0.8; stroke-linejoin: miter"/>
   </g>
   <g id="patch_17">
    <path d="M 147.665455 114.116125 
L 157.156364 114.116125 
L 157.156364 108.146847 
L 147.665455 108.146847 
z
" clip-path="url(#p42342c155f)" style="fill: #1f77b4; stroke: #ffffff; stroke-width: 0.8; stroke-linejoin: miter"/>
   </g>
   <g id="patch_18">
    <path d="M 157.156364 114.116125 
L 166.647273 114.116125 
L 166.647273 108.743775 
L 157.156364 108.743775 
z
" clip-path="url(#p42342c155f)" style="fill: #1f77b4; stroke: #ffffff; stroke-width: 0.8; stroke-linejoin: miter"/>
   </g>
   <g id="patch_19">
    <path d="M 30.72199 114.116125 
L 129.726215 114.116125 
" style="fill: none; stroke: #262626; stroke-linejoin: miter; stroke-linecap: square"/>
   </g>
   <g id="text_4">
    <!-- needle_displacement_m -->
    <g style="fill: #262626" transform="translate(38.69025 14.1) scale(0.096 -0.096)">
     <defs>
      <path id="ArialMT-6e" d="M 422 0 
L 422 3319 
L 928 3319 
L 928 2847 
Q 1294 3394 1984 3394 
Q 2284 3394 2536 3286 
Q 2788 3178 2913 3003 
Q 3038 2828 3088 2588 
Q 3119 2431 3119 2041 
L 3119 0 
L 2556 0 
L 2556 2019 
Q 2556 2363 2490 2533 
Q 2425 2703 2258 2804 
Q 2091 2906 1866 2906 
Q 1506 2906 1245 2678 
Q 984 2450 984 1813 
L 984 0 
L 422 0 
z
" transform="scale(0.015625)"/>
      <path id="ArialMT-65" d="M 2694 1069 
L 3275 997 
Q 3138 488 2766 206 
Q 2394 -75 1816 -75 
Q 1088 -75 661 373 
Q 234 822 234 1631 
Q 234 2469 665 2931 
Q 1097 3394 1784 3394 
Q 2450 3394 2872 2941 
Q 3294 2488 3294 1666 
Q 3294 1616 3291 1516 
L 816 1516 
Q 847 969 1125 678 
Q 1403 388 1819 388 
Q 2128 388 2347 550 
Q 2566 713 2694 1069 
z
M 847 1978 
L 2700 1978 
Q 2663 2397 2488 2606 
Q 2219 2931 1791 2931 
Q 1403 2931 1139 2672 
Q 875 2413 847 1978 
z
" transform="scale(0.015625)"/>
      <path id="ArialMT-64" d="M 2575 0 
L 2575 419 
Q 2259 -75 1647 -75 
Q 1250 -75 917 144 
Q 584 363 401 755 
Q 219 1147 219 1656 
Q 219 2153 384 2558 
Q 550 2963 881 3178 
Q 1213 3394 1622 3394 
Q 1922 3394 2156 3267 
Q 2391 3141 2538 2938 
L 2538 4581 
L 3097 4581 
L 3097 0 
L 2575 0 
z
M 797 1656 
Q 797 1019 1065 703 
Q 1334 388 1700 388 
Q 2069 388 2326 689 
Q 2584 991 2584 1609 
Q 2584 2291 2321 2609 
Q 2059 2928 1675 2928 
Q 1300 2928 1048 2622 
Q 797 2316 797 1656 
z
" transform="scale(0.015625)"/>
      <path id="ArialMT-6c" d="M 409 0 
L 409 4581 
L 972 4581 
L 972 0 
L 409 0 
z
" transform="scale(0.015625)"/>
      <path id="ArialMT-5f" d="M -97 -1272 
L -97 -866 
L 3631 -866 
L 3631 -1272 
L -97 -1272 
z
" transform="scale(0.015625)"/>
      <path id="ArialMT-69" d="M 425 3934 
L 425 4581 
L 988 4581 
L 988 3934 
L 425 3934 
z
M 425 0 
L 425 3319 
L 988 3319 
L 988 0 
L 425 0 
z
" transform="scale(0.015625)"/>
      <path id="ArialMT-73" d="M 197 991 
L 753 1078 
Q 800 744 1014 566 
Q 1228 388 1613 388 
Q 2000 388 2187 545 
Q 2375 703 2375 916 
Q 2375 1106 2209 1216 
Q 2094 1291 1634 1406 
Q 1016 1563 777 1677 
Q 538 1791 414 1992 
Q 291 2194 291 2438 
Q 291 2659 392 2848 
Q 494 3038 669 3163 
Q 800 3259 1026 3326 
Q 1253 3394 1513 3394 
Q 1903 3394 2198 3281 
Q 2494 3169 2634 2976 
Q 2775 2784 2828 2463 
L 2278 2388 
Q 2241 2644 2061 2787 
Q 1881 2931 1553 2931 
Q 1166 2931 1000 2803 
Q 834 2675 834 2503 
Q 834 2394 903 2306 
Q 972 2216 1119 2156 
Q 1203 2125 1616 2013 
Q 2213 1853 2448 1751 
Q 2684 1650 2818 1456 
Q 2953 1263 2953 975 
Q 2953 694 2789 445 
Q 2625 197 2315 61 
Q 2006 -75 1616 -75 
Q 969 -75 630 194 
Q 291 463 197 991 
z
" transform="scale(0.015625)"/>
      <path id="ArialMT-70" d="M 422 -1272 
L 422 3319 
L 934 3319 
L 934 2888 
Q 1116 3141 1344 3267 
Q 1572 3394 1897 3394 
Q 2322 3394 2647 3175 
Q 2972 2956 3137 2557 
Q 3303 2159 3303 1684 
Q 3303 1175 3120 767 
Q 2938 359 2589 142 
Q 2241 -75 1856 -75 
Q 1575 -75 1351 44 
Q 1128 163 984 344 
L 984 -1272 
L 422 -1272 
z
M 931 1641 
Q 931 1000 1190 694 
Q 1450 388 1819 388 
Q 2194 388 2461 705 
Q 2728 1022 2728 1688 
Q 2728 2322 2467 2637 
Q 2206 2953 1844 2953 
Q 1484 2953 1207 2617 
Q 931 2281 931 1641 
z
" transform="scale(0.015625)"/>
      <path id="ArialMT-61" d="M 2588 409 
Q 2275 144 1986 34 
Q 1697 -75 1366 -75 
Q 819 -75 525 192 
Q 231 459 231 875 
Q 231 1119 342 1320 
Q 453 1522 633 1644 
Q 813 1766 1038 1828 
Q 1203 1872 1538 1913 
Q 2219 1994 2541 2106 
Q 2544 2222 2544 2253 
Q 2544 2597 2384 2738 
Q 2169 2928 1744 2928 
Q 1347 2928 1158 2789 
Q 969 2650 878 2297 
L 328 2372 
Q 403 2725 575 2942 
Q 747 3159 1072 3276 
Q 1397 3394 1825 3394 
Q 2250 3394 2515 3294 
Q 2781 3194 2906 3042 
Q 3031 2891 3081 2659 
Q 3109 2516 3109 2141 
L 3109 1391 
Q 3109 606 3145 398 
Q 3181 191 3288 0 
L 2700 0 
Q 2613 175 2588 409 
z
M 2541 1666 
Q 2234 1541 1622 1453 
Q 1275 1403 1131 1340 
Q 988 1278 909 1158 
Q 831 1038 831 891 
Q 831 666 1001 516 
Q 1172 366 1500 366 
Q 1825 366 2078 508 
Q 2331 650 2450 897 
Q 2541 1088 2541 1459 
L 2541 1666 
z
" transform="scale(0.015625)"/>
      <path id="ArialMT-63" d="M 2588 1216 
L 3141 1144 
Q 3050 572 2676 248 
Q 2303 -75 1759 -75 
Q 1078 -75 664 370 
Q 250 816 250 1647 
Q 250 2184 428 2587 
Q 606 2991 970 3192 
Q 1334 3394 1763 3394 
Q 2303 3394 2647 3120 
Q 2991 2847 3088 2344 
L 2541 2259 
Q 2463 2594 2264 2762 
Q 2066 2931 1784 2931 
Q 1359 2931 1093 2626 
Q 828 2322 828 1663 
Q 828 994 1084 691 
Q 1341 388 1753 388 
Q 2084 388 2306 591 
Q 2528 794 2588 1216 
z
" transform="scale(0.015625)"/>
      <path id="ArialMT-6d" d="M 422 0 
L 422 3319 
L 925 3319 
L 925 2853 
Q 1081 3097 1340 3245 
Q 1600 3394 1931 3394 
Q 2300 3394 2536 3241 
Q 2772 3088 2869 2813 
Q 3263 3394 3894 3394 
Q 4388 3394 4653 3120 
Q 4919 2847 4919 2278 
L 4919 0 
L 4359 0 
L 4359 2091 
Q 4359 2428 4304 2576 
Q 4250 2725 4106 2815 
Q 3963 2906 3769 2906 
Q 3419 2906 3187 2673 
Q 2956 2441 2956 1928 
L 2956 0 
L 2394 0 
L 2394 2156 
Q 2394 2531 2256 2718 
Q 2119 2906 1806 2906 
Q 1569 2906 1367 2781 
Q 1166 2656 1075 2415 
Q 984 2175 984 1722 
L 984 0 
L 422 0 
z
" transform="scale(0.015625)"/>
      <path id="ArialMT-74" d="M 1650 503 
L 1731 6 
Q 1494 -44 1306 -44 
Q 1000 -44 831 53 
Q 663 150 594 308 
Q 525 466 525 972 
L 525 2881 
L 113 2881 
L 113 3319 
L 525 3319 
L 525 4141 
L 1084 4478 
L 1084 3319 
L 1650 3319 
L 1650 2881 
L 1084 2881 
L 1084 941 
Q 1084 700 1114 631 
Q 1144 563 1211 522 
Q 1278 481 1403 481 
Q 1497 481 1650 503 
z
" transform="scale(0.015625)"/>
     </defs>
     <use xlink:href="#ArialMT-6e"/>
     <use xlink:href="#ArialMT-65" x="55.615234"/>
     <use xlink:href="#ArialMT-65" x="111.230469"/>
     <use xlink:href="#ArialMT-64" x="166.845703"/>
     <use xlink:href="#ArialMT-6c" x="222.460938"/>
     <use xlink:href="#ArialMT-65" x="244.677734"/>
     <use xlink:href="#ArialMT-5f" x="300.292969"/>
     <use xlink:href="#ArialMT-64" x="355.908203"/>
     <use xlink:href="#ArialMT-69" x="411.523438"/>
     <use xlink:href="#ArialMT-73" x="433.740234"/>
     <use xlink:href="#ArialMT-70" x="483.740234"/>
     <use xlink:href="#ArialMT-6c" x="539.355469"/>
     <use xlink:href="#ArialMT-61" x="561.572266"/>
     <use xlink:href="#ArialMT-63" x="617.1875"/>
     <use xlink:href="#ArialMT-65" x="667.1875"/>
     <use xlink:href="#ArialMT-6d" x="722.802734"/>
     <use xlink:href="#ArialMT-65" x="806.103516"/>
     <use xlink:href="#ArialMT-6e" x="861.71875"/>
     <use xlink:href="#ArialMT-74" x="917.333984"/>
     <use xlink:href="#ArialMT-5f" x="945.117188"/>
     <use xlink:href="#ArialMT-6d" x="1000.732422"/>
    </g>
   </g>
  </g>
  <g id="axes_2">
   <g id="patch_20">
    <path d="M 184.608 114.116125 
L 351.648 114.116125 
L 351.648 20.1 
L 184.608 20.1 
z
" style="fill: #ffffff"/>
   </g>
   <g id="matplotlib.axis_3">
    <g id="xtick_4">
     <g id="line2d_4">
      <g>
       <use xlink:href="#m400a9c61b9" x="229.653311" y="114.116125" style="fill: #262626; stroke: #262626"/>
      </g>
     </g>
     <g id="text_5">
      <!-- 9 -->
      <g style="fill: #262626" transform="translate(227.206498 128.715) scale(0.088 -0.088)">
       <defs>
        <path id="ArialMT-39" d="M 350 1059 
L 891 1109 
Q 959 728 1153 556 
Q 1347 384 1650 384 
Q 1909 384 2104 503 
Q 2300 622 2425 820 
Q 2550 1019 2634 1356 
Q 2719 1694 2719 2044 
Q 2719 2081 2716 2156 
Q 2547 1888 2255 1720 
Q 1963 1553 1622 1553 
Q 1053 1553 659 1965 
Q 266 2378 266 3053 
Q 266 3750 677 4175 
Q 1088 4600 1706 4600 
Q 2153 4600 2523 4359 
Q 2894 4119 3086 3673 
Q 3278 3228 3278 2384 
Q 3278 1506 3087 986 
Q 2897 466 2520 194 
Q 2144 -78 1638 -78 
Q 1100 -78 759 220 
Q 419 519 350 1059 
z
M 2653 3081 
Q 2653 3566 2395 3850 
Q 2138 4134 1775 4134 
Q 1400 4134 1122 3828 
Q 844 3522 844 3034 
Q 844 2597 1108 2323 
Q 1372 2050 1759 2050 
Q 2150 2050 2401 2323 
Q 2653 2597 2653 3081 
z
" transform="scale(0.015625)"/>
       </defs>
       <use xlink:href="#ArialMT-39"/>
      </g>
     </g>
    </g>
    <g id="xtick_5">
     <g id="line2d_5">
      <g>
       <use xlink:href="#m400a9c61b9" x="293.568212" y="114.116125" style="fill: #262626; stroke: #262626"/>
      </g>
     </g>
     <g id="text_6">
      <!-- 10 -->
      <g style="fill: #262626" transform="translate(288.674587 128.715) scale(0.088 -0.088)">
       <defs>
        <path id="ArialMT-31" d="M 2384 0 
L 1822 0 
L 1822 3584 
Q 1619 3391 1289 3197 
Q 959 3003 697 2906 
L 697 3450 
Q 1169 3672 1522 3987 
Q 1875 4303 2022 4600 
L 2384 4600 
L 2384 0 
z
" transform="scale(0.015625)"/>
       </defs>
       <use xlink:href="#ArialMT-31"/>
       <use xlink:href="#ArialMT-30" x="55.615234"/>
      </g>
     </g>
    </g>
   </g>
   <g id="matplotlib.axis_4"/>
   <g id="patch_21">
    <path d="M 192.200727 114.116125 
L 201.691636 114.116125 
L 201.691636 112.250726 
L 192.200727 112.250726 
z
" clip-path="url(#pdbffaee9b9)" style="fill: #1f77b4; stroke: #ffffff; stroke-width: 0.8; stroke-linejoin: miter"/>
   </g>
   <g id="patch_22">
    <path d="M 201.691636 114.116125 
L 211.182545 114.116125 
L 211.182545 104.789128 
L 201.691636 104.789128 
z
" clip-path="url(#pdbffaee9b9)" style="fill: #1f77b4; stroke: #ffffff; stroke-width: 0.8; stroke-linejoin: miter"/>
   </g>
   <g id="patch_23">
    <path d="M 211.182545 114.116125 
L 220.673455 114.116125 
L 220.673455 98.571131 
L 211.182545 98.571131 
z
" clip-path="url(#pdbffaee9b9)" style="fill: #1f77b4; stroke: #ffffff; stroke-width: 0.8; stroke-linejoin: miter"/>
   </g>
   <g id="patch_24">
    <path d="M 220.673455 114.116125 
L 230.164364 114.116125 
L 230.164364 89.244134 
L 220.673455 89.244134 
z
" clip-path="url(#pdbffaee9b9)" style="fill: #1f77b4; stroke: #ffffff; stroke-width: 0.8; stroke-linejoin: miter"/>
   </g>
   <g id="patch_25">
    <path d="M 230.164364 114.116125 
L 239.655273 114.116125 
L 239.655273 71.211941 
L 230.164364 71.211941 
z
" clip-path="url(#pdbffaee9b9)" style="fill: #1f77b4; stroke: #ffffff; stroke-width: 0.8; stroke-linejoin: miter"/>
   </g>
   <g id="patch_26">
    <path d="M 239.655273 114.116125 
L 249.146182 114.116125 
L 249.146182 62.506744 
L 239.655273 62.506744 
z
" clip-path="url(#pdbffaee9b9)" style="fill: #1f77b4; stroke: #ffffff; stroke-width: 0.8; stroke-linejoin: miter"/>
   </g>
   <g id="patch_27">
    <path d="M 249.146182 114.116125 
L 258.637091 114.116125 
L 258.637091 30.173156 
L 249.146182 30.173156 
z
" clip-path="url(#pdbffaee9b9)" style="fill: #1f77b4; stroke: #ffffff; stroke-width: 0.8; stroke-linejoin: miter"/>
   </g>
   <g id="patch_28">
    <path d="M 258.637091 114.116125 
L 268.128 114.116125 
L 268.128 33.903955 
L 258.637091 33.903955 
z
" clip-path="url(#pdbffaee9b9)" style="fill: #1f77b4; stroke: #ffffff; stroke-width: 0.8; stroke-linejoin: miter"/>
   </g>
   <g id="patch_29">
    <path d="M 268.128 114.116125 
L 277.618909 114.116125 
L 277.618909 24.576958 
L 268.128 24.576958 
z
" clip-path="url(#pdbffaee9b9)" style="fill: #1f77b4; stroke: #ffffff; stroke-width: 0.8; stroke-linejoin: miter"/>
   </g>
   <g id="patch_30">
    <path d="M 277.618909 114.116125 
L 287.109818 114.116125 
L 287.109818 38.256553 
L 277.618909 38.256553 
z
" clip-path="url(#pdbffaee9b9)" style="fill: #1f77b4; stroke: #ffffff; stroke-width: 0.8; stroke-linejoin: miter"/>
   </g>
   <g id="patch_31">
    <path d="M 287.109818 114.116125 
L 296.600727 114.116125 
L 296.600727 57.532346 
L 287.109818 57.532346 
z
" clip-path="url(#pdbffaee9b9)" style="fill: #1f77b4; stroke: #ffffff; stroke-width: 0.8; stroke-linejoin: miter"/>
   </g>
   <g id="patch_32">
    <path d="M 296.600727 114.116125 
L 306.091636 114.116125 
L 306.091636 78.673538 
L 296.600727 78.673538 
z
" clip-path="url(#pdbffaee9b9)" style="fill: #1f77b4; stroke: #ffffff; stroke-width: 0.8; stroke-linejoin: miter"/>
   </g>
   <g id="patch_33">
    <path d="M 306.091636 114.116125 
L 315.582545 114.116125 
L 315.582545 88.000535 
L 306.091636 88.000535 
z
" clip-path="url(#pdbffaee9b9)" style="fill: #1f77b4; stroke: #ffffff; stroke-width: 0.8; stroke-linejoin: miter"/>
   </g>
   <g id="patch_34">
    <path d="M 315.582545 114.116125 
L 325.073455 114.116125 
L 325.073455 97.327531 
L 315.582545 97.327531 
z
" clip-path="url(#pdbffaee9b9)" style="fill: #1f77b4; stroke: #ffffff; stroke-width: 0.8; stroke-linejoin: miter"/>
   </g>
   <g id="patch_35">
    <path d="M 325.073455 114.116125 
L 334.564364 114.116125 
L 334.564364 107.276328 
L 325.073455 107.276328 
z
" clip-path="url(#pdbffaee9b9)" style="fill: #1f77b4; stroke: #ffffff; stroke-width: 0.8; stroke-linejoin: miter"/>
   </g>
   <g id="patch_36">
    <path d="M 334.564364 114.116125 
L 344.055273 114.116125 
L 344.055273 109.763527 
L 334.564364 109.763527 
z
" clip-path="url(#pdbffaee9b9)" style="fill: #1f77b4; stroke: #ffffff; stroke-width: 0.8; stroke-linejoin: miter"/>
   </g>
   <g id="patch_37">
    <path d="M 229.653311 114.116125 
L 293.568212 114.116125 
" style="fill: none; stroke: #262626; stroke-linejoin: miter; stroke-linecap: square"/>
   </g>
   <g id="text_7">
    <!-- injection_time_s -->
    <g style="fill: #262626" transform="translate(233.712 14.1) scale(0.096 -0.096)">
     <defs>
      <path id="ArialMT-6a" d="M 419 3928 
L 419 4581 
L 981 4581 
L 981 3928 
L 419 3928 
z
M -294 -1288 
L -188 -809 
Q -19 -853 78 -853 
Q 250 -853 334 -739 
Q 419 -625 419 -169 
L 419 3319 
L 981 3319 
L 981 -181 
Q 981 -794 822 -1034 
Q 619 -1347 147 -1347 
Q -81 -1347 -294 -1288 
z
" transform="scale(0.015625)"/>
      <path id="ArialMT-6f" d="M 213 1659 
Q 213 2581 725 3025 
Q 1153 3394 1769 3394 
Q 2453 3394 2887 2945 
Q 3322 2497 3322 1706 
Q 3322 1066 3130 698 
Q 2938 331 2570 128 
Q 2203 -75 1769 -75 
Q 1072 -75 642 372 
Q 213 819 213 1659 
z
M 791 1659 
Q 791 1022 1069 705 
Q 1347 388 1769 388 
Q 2188 388 2466 706 
Q 2744 1025 2744 1678 
Q 2744 2294 2464 2611 
Q 2184 2928 1769 2928 
Q 1347 2928 1069 2612 
Q 791 2297 791 1659 
z
" transform="scale(0.015625)"/>
     </defs>
     <use xlink:href="#ArialMT-69"/>
     <use xlink:href="#ArialMT-6e" x="22.216797"/>
     <use xlink:href="#ArialMT-6a" x="77.832031"/>
     <use xlink:href="#ArialMT-65" x="100.048828"/>
     <use xlink:href="#ArialMT-63" x="155.664062"/>
     <use xlink:href="#ArialMT-74" x="205.664062"/>
     <use xlink:href="#ArialMT-69" x="233.447266"/>
     <use xlink:href="#ArialMT-6f" x="255.664062"/>
     <use xlink:href="#ArialMT-6e" x="311.279297"/>
     <use xlink:href="#ArialMT-5f" x="366.894531"/>
     <use xlink:href="#ArialMT-74" x="422.509766"/>
     <use xlink:href="#ArialMT-69" x="450.292969"/>
     <use xlink:href="#ArialMT-6d" x="472.509766"/>
     <use xlink:href="#ArialMT-65" x="555.810547"/>
     <use xlink:href="#ArialMT-5f" x="611.425781"/>
     <use xlink:href="#ArialMT-73" x="667.041016"/>
    </g>
   </g>
  </g>
  <g id="axes_3">
   <g id="patch_38">
    <path d="M 362.016 114.116125 
L 529.056 114.116125 
L 529.056 20.1 
L 362.016 20.1 
z
" style="fill: #ffffff"/>
   </g>
   <g id="matplotlib.axis_5">
    <g id="xtick_6">
     <g id="line2d_6">
      <g>
       <use xlink:href="#m400a9c61b9" x="417.073015" y="114.116125" style="fill: #262626; stroke: #262626"/>
      </g>
     </g>
     <g id="text_8">
      <!-- 40000 -->
      <g style="fill: #262626" transform="translate(404.838952 128.715) scale(0.088 -0.088)">
       <use xlink:href="#ArialMT-34"/>
       <use xlink:href="#ArialMT-30" x="55.615234"/>
       <use xlink:href="#ArialMT-30" x="111.230469"/>
       <use xlink:href="#ArialMT-30" x="166.845703"/>
       <use xlink:href="#ArialMT-30" x="222.460938"/>
      </g>
     </g>
    </g>
    <g id="xtick_7">
     <g id="line2d_7">
      <g>
       <use xlink:href="#m400a9c61b9" x="498.029241" y="114.116125" style="fill: #262626; stroke: #262626"/>
      </g>
     </g>
     <g id="text_9">
      <!-- 50000 -->
      <g style="fill: #262626" transform="translate(485.795178 128.715) scale(0.088 -0.088)">
       <defs>
        <path id="ArialMT-35" d="M 266 1200 
L 856 1250 
Q 922 819 1161 601 
Q 1400 384 1738 384 
Q 2144 384 2425 690 
Q 2706 997 2706 1503 
Q 2706 1984 2436 2262 
Q 2166 2541 1728 2541 
Q 1456 2541 1237 2417 
Q 1019 2294 894 2097 
L 366 2166 
L 809 4519 
L 3088 4519 
L 3088 3981 
L 1259 3981 
L 1013 2750 
Q 1425 3038 1878 3038 
Q 2478 3038 2890 2622 
Q 3303 2206 3303 1553 
Q 3303 931 2941 478 
Q 2500 -78 1738 -78 
Q 1113 -78 717 272 
Q 322 622 266 1200 
z
" transform="scale(0.015625)"/>
       </defs>
       <use xlink:href="#ArialMT-35"/>
       <use xlink:href="#ArialMT-30" x="55.615234"/>
       <use xlink:href="#ArialMT-30" x="111.230469"/>
       <use xlink:href="#ArialMT-30" x="166.845703"/>
       <use xlink:href="#ArialMT-30" x="222.460938"/>
      </g>
     </g>
    </g>
   </g>
   <g id="matplotlib.axis_6"/>
   <g id="patch_39">
    <path d="M 369.608727 114.116125 
L 379.099636 114.116125 
L 379.099636 111.679685 
L 369.608727 111.679685 
z
" clip-path="url(#p4c1e1afd3d)" style="fill: #1f77b4; stroke: #ffffff; stroke-width: 0.8; stroke-linejoin: miter"/>
   </g>
   <g id="patch_40">
    <path d="M 379.099636 114.116125 
L 388.590545 114.116125 
L 388.590545 104.979475 
L 379.099636 104.979475 
z
" clip-path="url(#p4c1e1afd3d)" style="fill: #1f77b4; stroke: #ffffff; stroke-width: 0.8; stroke-linejoin: miter"/>
   </g>
   <g id="patch_41">
    <path d="M 388.590545 114.116125 
L 398.081455 114.116125 
L 398.081455 92.797276 
L 388.590545 92.797276 
z
" clip-path="url(#p4c1e1afd3d)" style="fill: #1f77b4; stroke: #ffffff; stroke-width: 0.8; stroke-linejoin: miter"/>
   </g>
   <g id="patch_42">
    <path d="M 398.081455 114.116125 
L 407.572364 114.116125 
L 407.572364 87.924396 
L 398.081455 87.924396 
z
" clip-path="url(#p4c1e1afd3d)" style="fill: #1f77b4; stroke: #ffffff; stroke-width: 0.8; stroke-linejoin: miter"/>
   </g>
   <g id="patch_43">
    <path d="M 407.572364 114.116125 
L 417.063273 114.116125 
L 417.063273 61.123557 
L 407.572364 61.123557 
z
" clip-path="url(#p4c1e1afd3d)" style="fill: #1f77b4; stroke: #ffffff; stroke-width: 0.8; stroke-linejoin: miter"/>
   </g>
   <g id="patch_44">
    <path d="M 417.063273 114.116125 
L 426.554182 114.116125 
L 426.554182 52.596017 
L 417.063273 52.596017 
z
" clip-path="url(#p4c1e1afd3d)" style="fill: #1f77b4; stroke: #ffffff; stroke-width: 0.8; stroke-linejoin: miter"/>
   </g>
   <g id="patch_45">
    <path d="M 426.554182 114.116125 
L 436.045091 114.116125 
L 436.045091 41.022928 
L 426.554182 41.022928 
z
" clip-path="url(#p4c1e1afd3d)" style="fill: #1f77b4; stroke: #ffffff; stroke-width: 0.8; stroke-linejoin: miter"/>
   </g>
   <g id="patch_46">
    <path d="M 436.045091 114.116125 
L 445.536 114.116125 
L 445.536 24.576958 
L 436.045091 24.576958 
z
" clip-path="url(#p4c1e1afd3d)" style="fill: #1f77b4; stroke: #ffffff; stroke-width: 0.8; stroke-linejoin: miter"/>
   </g>
   <g id="patch_47">
    <path d="M 445.536 114.116125 
L 455.026909 114.116125 
L 455.026909 30.058948 
L 445.536 30.058948 
z
" clip-path="url(#p4c1e1afd3d)" style="fill: #1f77b4; stroke: #ffffff; stroke-width: 0.8; stroke-linejoin: miter"/>
   </g>
   <g id="patch_48">
    <path d="M 455.026909 114.116125 
L 464.517818 114.116125 
L 464.517818 50.768687 
L 455.026909 50.768687 
z
" clip-path="url(#p4c1e1afd3d)" style="fill: #1f77b4; stroke: #ffffff; stroke-width: 0.8; stroke-linejoin: miter"/>
   </g>
   <g id="patch_49">
    <path d="M 464.517818 114.116125 
L 474.008727 114.116125 
L 474.008727 64.778217 
L 464.517818 64.778217 
z
" clip-path="url(#p4c1e1afd3d)" style="fill: #1f77b4; stroke: #ffffff; stroke-width: 0.8; stroke-linejoin: miter"/>
   </g>
   <g id="patch_50">
    <path d="M 474.008727 114.116125 
L 483.499636 114.116125 
L 483.499636 85.487956 
L 474.008727 85.487956 
z
" clip-path="url(#p4c1e1afd3d)" style="fill: #1f77b4; stroke: #ffffff; stroke-width: 0.8; stroke-linejoin: miter"/>
   </g>
   <g id="patch_51">
    <path d="M 483.499636 114.116125 
L 492.990545 114.116125 
L 492.990545 89.142616 
L 483.499636 89.142616 
z
" clip-path="url(#p4c1e1afd3d)" style="fill: #1f77b4; stroke: #ffffff; stroke-width: 0.8; stroke-linejoin: miter"/>
   </g>
   <g id="patch_52">
    <path d="M 492.990545 114.116125 
L 502.481455 114.116125 
L 502.481455 101.324815 
L 492.990545 101.324815 
z
" clip-path="url(#p4c1e1afd3d)" style="fill: #1f77b4; stroke: #ffffff; stroke-width: 0.8; stroke-linejoin: miter"/>
   </g>
   <g id="patch_53">
    <path d="M 502.481455 114.116125 
L 511.972364 114.116125 
L 511.972364 108.634135 
L 502.481455 108.634135 
z
" clip-path="url(#p4c1e1afd3d)" style="fill: #1f77b4; stroke: #ffffff; stroke-width: 0.8; stroke-linejoin: miter"/>
   </g>
   <g id="patch_54">
    <path d="M 511.972364 114.116125 
L 521.463273 114.116125 
L 521.463273 109.852355 
L 511.972364 109.852355 
z
" clip-path="url(#p4c1e1afd3d)" style="fill: #1f77b4; stroke: #ffffff; stroke-width: 0.8; stroke-linejoin: miter"/>
   </g>
   <g id="patch_55">
    <path d="M 417.073015 114.116125 
L 498.029241 114.116125 
" style="fill: none; stroke: #262626; stroke-linejoin: miter; stroke-linecap: square"/>
   </g>
   <g id="text_10">
    <!-- max_acceleration_m_per_s2 -->
    <g style="fill: #262626" transform="translate(383.907 14.1) scale(0.096 -0.096)">
     <defs>
      <path id="ArialMT-78" d="M 47 0 
L 1259 1725 
L 138 3319 
L 841 3319 
L 1350 2541 
Q 1494 2319 1581 2169 
Q 1719 2375 1834 2534 
L 2394 3319 
L 3066 3319 
L 1919 1756 
L 3153 0 
L 2463 0 
L 1781 1031 
L 1600 1309 
L 728 0 
L 47 0 
z
" transform="scale(0.015625)"/>
      <path id="ArialMT-72" d="M 416 0 
L 416 3319 
L 922 3319 
L 922 2816 
Q 1116 3169 1280 3281 
Q 1444 3394 1641 3394 
Q 1925 3394 2219 3213 
L 2025 2691 
Q 1819 2813 1613 2813 
Q 1428 2813 1281 2702 
Q 1134 2591 1072 2394 
Q 978 2094 978 1738 
L 978 0 
L 416 0 
z
" transform="scale(0.015625)"/>
      <path id="ArialMT-32" d="M 3222 541 
L 3222 0 
L 194 0 
Q 188 203 259 391 
Q 375 700 629 1000 
Q 884 1300 1366 1694 
Q 2113 2306 2375 2664 
Q 2638 3022 2638 3341 
Q 2638 3675 2398 3904 
Q 2159 4134 1775 4134 
Q 1369 4134 1125 3890 
Q 881 3647 878 3216 
L 300 3275 
Q 359 3922 746 4261 
Q 1134 4600 1788 4600 
Q 2447 4600 2831 4234 
Q 3216 3869 3216 3328 
Q 3216 3053 3103 2787 
Q 2991 2522 2730 2228 
Q 2469 1934 1863 1422 
Q 1356 997 1212 845 
Q 1069 694 975 541 
L 3222 541 
z
" transform="scale(0.015625)"/>
     </defs>
     <use xlink:href="#ArialMT-6d"/>
     <use xlink:href="#ArialMT-61" x="83.300781"/>
     <use xlink:href="#ArialMT-78" x="138.916016"/>
     <use xlink:href="#ArialMT-5f" x="188.916016"/>
     <use xlink:href="#ArialMT-61" x="244.53125"/>
     <use xlink:href="#ArialMT-63" x="300.146484"/>
     <use xlink:href="#ArialMT-63" x="350.146484"/>
     <use xlink:href="#ArialMT-65" x="400.146484"/>
     <use xlink:href="#ArialMT-6c" x="455.761719"/>
     <use xlink:href="#ArialMT-65" x="477.978516"/>
     <use xlink:href="#ArialMT-72" x="533.59375"/>
     <use xlink:href="#ArialMT-61" x="566.894531"/>
     <use xlink:href="#ArialMT-74" x="622.509766"/>
     <use xlink:href="#ArialMT-69" x="650.292969"/>
     <use xlink:href="#ArialMT-6f" x="672.509766"/>
     <use xlink:href="#ArialMT-6e" x="728.125"/>
     <use xlink:href="#ArialMT-5f" x="783.740234"/>
     <use xlink:href="#ArialMT-6d" x="839.355469"/>
     <use xlink:href="#ArialMT-5f" x="922.65625"/>
     <use xlink:href="#ArialMT-70" x="978.271484"/>
     <use xlink:href="#ArialMT-65" x="1033.886719"/>
     <use xlink:href="#ArialMT-72" x="1089.501953"/>
     <use xlink:href="#ArialMT-5f" x="1122.802734"/>
     <use xlink:href="#ArialMT-73" x="1178.417969"/>
     <use xlink:href="#ArialMT-32" x="1228.417969"/>
    </g>
   </g>
  </g>
  <g id="axes_4">
   <g id="patch_56">
    <path d="M 539.424 114.116125 
L 706.464 114.116125 
L 706.464 20.1 
L 539.424 20.1 
z
" style="fill: #ffffff"/>
   </g>
   <g id="matplotlib.axis_7">
    <g id="xtick_8">
     <g id="line2d_8">
      <g>
       <use xlink:href="#m400a9c61b9" x="565.60279" y="114.116125" style="fill: #262626; stroke: #262626"/>
      </g>
     </g>
     <g id="text_11">
      <!-- 39000 -->
      <g style="fill: #262626" transform="translate(553.368728 128.715) scale(0.088 -0.088)">
       <defs>
        <path id="ArialMT-33" d="M 269 1209 
L 831 1284 
Q 928 806 1161 595 
Q 1394 384 1728 384 
Q 2125 384 2398 659 
Q 2672 934 2672 1341 
Q 2672 1728 2419 1979 
Q 2166 2231 1775 2231 
Q 1616 2231 1378 2169 
L 1441 2663 
Q 1497 2656 1531 2656 
Q 1891 2656 2178 2843 
Q 2466 3031 2466 3422 
Q 2466 3731 2256 3934 
Q 2047 4138 1716 4138 
Q 1388 4138 1169 3931 
Q 950 3725 888 3313 
L 325 3413 
Q 428 3978 793 4289 
Q 1159 4600 1703 4600 
Q 2078 4600 2393 4439 
Q 2709 4278 2876 4000 
Q 3044 3722 3044 3409 
Q 3044 3113 2884 2869 
Q 2725 2625 2413 2481 
Q 2819 2388 3044 2092 
Q 3269 1797 3269 1353 
Q 3269 753 2831 336 
Q 2394 -81 1725 -81 
Q 1122 -81 723 278 
Q 325 638 269 1209 
z
" transform="scale(0.015625)"/>
       </defs>
       <use xlink:href="#ArialMT-33"/>
       <use xlink:href="#ArialMT-39" x="55.615234"/>
       <use xlink:href="#ArialMT-30" x="111.230469"/>
       <use xlink:href="#ArialMT-30" x="166.845703"/>
       <use xlink:href="#ArialMT-30" x="222.460938"/>
      </g>
     </g>
    </g>
    <g id="xtick_9">
     <g id="line2d_9">
      <g>
       <use xlink:href="#m400a9c61b9" x="627.975544" y="114.116125" style="fill: #262626; stroke: #262626"/>
      </g>
     </g>
     <g id="text_12">
      <!-- 39500 -->
      <g style="fill: #262626" transform="translate(615.741482 128.715) scale(0.088 -0.088)">
       <use xlink:href="#ArialMT-33"/>
       <use xlink:href="#ArialMT-39" x="55.615234"/>
       <use xlink:href="#ArialMT-35" x="111.230469"/>
       <use xlink:href="#ArialMT-30" x="166.845703"/>
       <use xlink:href="#ArialMT-30" x="222.460938"/>
      </g>
     </g>
    </g>
    <g id="xtick_10">
     <g id="line2d_10">
      <g>
       <use xlink:href="#m400a9c61b9" x="690.348298" y="114.116125" style="fill: #262626; stroke: #262626"/>
      </g>
     </g>
     <g id="text_13">
      <!-- 40000 -->
      <g style="fill: #262626" transform="translate(678.114236 128.715) scale(0.088 -0.088)">
       <use xlink:href="#ArialMT-34"/>
       <use xlink:href="#ArialMT-30" x="55.615234"/>
       <use xlink:href="#ArialMT-30" x="111.230469"/>
       <use xlink:href="#ArialMT-30" x="166.845703"/>
       <use xlink:href="#ArialMT-30" x="222.460938"/>
      </g>
     </g>
    </g>
   </g>
   <g id="matplotlib.axis_8"/>
   <g id="patch_57">
    <path d="M 547.016727 114.116125 
L 556.507636 114.116125 
L 556.507636 112.922269 
L 547.016727 112.922269 
z
" clip-path="url(#pcc67417924)" style="fill: #1f77b4; stroke: #ffffff; stroke-width: 0.8; stroke-linejoin: miter"/>
   </g>
   <g id="patch_58">
    <path d="M 556.507636 114.116125 
L 565.998545 114.116125 
L 565.998545 105.162208 
L 556.507636 105.162208 
z
" clip-path="url(#pcc67417924)" style="fill: #1f77b4; stroke: #ffffff; stroke-width: 0.8; stroke-linejoin: miter"/>
   </g>
   <g id="patch_59">
    <path d="M 565.998545 114.116125 
L 575.489455 114.116125 
L 575.489455 104.565281 
L 565.998545 104.565281 
z
" clip-path="url(#pcc67417924)" style="fill: #1f77b4; stroke: #ffffff; stroke-width: 0.8; stroke-linejoin: miter"/>
   </g>
   <g id="patch_60">
    <path d="M 575.489455 114.116125 
L 584.980364 114.116125 
L 584.980364 94.417508 
L 575.489455 94.417508 
z
" clip-path="url(#pcc67417924)" style="fill: #1f77b4; stroke: #ffffff; stroke-width: 0.8; stroke-linejoin: miter"/>
   </g>
   <g id="patch_61">
    <path d="M 584.980364 114.116125 
L 594.471273 114.116125 
L 594.471273 81.285097 
L 584.980364 81.285097 
z
" clip-path="url(#pcc67417924)" style="fill: #1f77b4; stroke: #ffffff; stroke-width: 0.8; stroke-linejoin: miter"/>
   </g>
   <g id="patch_62">
    <path d="M 594.471273 114.116125 
L 603.962182 114.116125 
L 603.962182 69.346542 
L 594.471273 69.346542 
z
" clip-path="url(#pcc67417924)" style="fill: #1f77b4; stroke: #ffffff; stroke-width: 0.8; stroke-linejoin: miter"/>
   </g>
   <g id="patch_63">
    <path d="M 603.962182 114.116125 
L 613.453091 114.116125 
L 613.453091 47.260214 
L 603.962182 47.260214 
z
" clip-path="url(#pcc67417924)" style="fill: #1f77b4; stroke: #ffffff; stroke-width: 0.8; stroke-linejoin: miter"/>
   </g>
   <g id="patch_64">
    <path d="M 613.453091 114.116125 
L 622.944 114.116125 
L 622.944 46.066358 
L 613.453091 46.066358 
z
" clip-path="url(#pcc67417924)" style="fill: #1f77b4; stroke: #ffffff; stroke-width: 0.8; stroke-linejoin: miter"/>
   </g>
   <g id="patch_65">
    <path d="M 622.944 114.116125 
L 632.434909 114.116125 
L 632.434909 24.576958 
L 622.944 24.576958 
z
" clip-path="url(#pcc67417924)" style="fill: #1f77b4; stroke: #ffffff; stroke-width: 0.8; stroke-linejoin: miter"/>
   </g>
   <g id="patch_66">
    <path d="M 632.434909 114.116125 
L 641.925818 114.116125 
L 641.925818 30.546236 
L 632.434909 30.546236 
z
" clip-path="url(#pcc67417924)" style="fill: #1f77b4; stroke: #ffffff; stroke-width: 0.8; stroke-linejoin: miter"/>
   </g>
   <g id="patch_67">
    <path d="M 641.925818 114.116125 
L 651.416727 114.116125 
L 651.416727 55.617203 
L 641.925818 55.617203 
z
" clip-path="url(#pcc67417924)" style="fill: #1f77b4; stroke: #ffffff; stroke-width: 0.8; stroke-linejoin: miter"/>
   </g>
   <g id="patch_68">
    <path d="M 651.416727 114.116125 
L 660.907636 114.116125 
L 660.907636 63.377264 
L 651.416727 63.377264 
z
" clip-path="url(#pcc67417924)" style="fill: #1f77b4; stroke: #ffffff; stroke-width: 0.8; stroke-linejoin: miter"/>
   </g>
   <g id="patch_69">
    <path d="M 660.907636 114.116125 
L 670.398545 114.116125 
L 670.398545 87.851303 
L 660.907636 87.851303 
z
" clip-path="url(#pcc67417924)" style="fill: #1f77b4; stroke: #ffffff; stroke-width: 0.8; stroke-linejoin: miter"/>
   </g>
   <g id="patch_70">
    <path d="M 670.398545 114.116125 
L 679.889455 114.116125 
L 679.889455 89.045158 
L 670.398545 89.045158 
z
" clip-path="url(#pcc67417924)" style="fill: #1f77b4; stroke: #ffffff; stroke-width: 0.8; stroke-linejoin: miter"/>
   </g>
   <g id="patch_71">
    <path d="M 679.889455 114.116125 
L 689.380364 114.116125 
L 689.380364 108.146847 
L 679.889455 108.146847 
z
" clip-path="url(#pcc67417924)" style="fill: #1f77b4; stroke: #ffffff; stroke-width: 0.8; stroke-linejoin: miter"/>
   </g>
   <g id="patch_72">
    <path d="M 689.380364 114.116125 
L 698.871273 114.116125 
L 698.871273 108.743775 
L 689.380364 108.743775 
z
" clip-path="url(#pcc67417924)" style="fill: #1f77b4; stroke: #ffffff; stroke-width: 0.8; stroke-linejoin: miter"/>
   </g>
   <g id="patch_73">
    <path d="M 565.60279 114.116125 
L 690.348298 114.116125 
" style="fill: none; stroke: #262626; stroke-linejoin: miter; stroke-linecap: square"/>
   </g>
   <g id="text_14">
    <!-- max_deceleration_m_per_s2 -->
    <g style="fill: #262626" transform="translate(561.04575 14.1) scale(0.096 -0.096)">
     <use xlink:href="#ArialMT-6d"/>
     <use xlink:href="#ArialMT-61" x="83.300781"/>
     <use xlink:href="#ArialMT-78" x="138.916016"/>
     <use xlink:href="#ArialMT-5f" x="188.916016"/>
     <use xlink:href="#ArialMT-64" x="244.53125"/>
     <use xlink:href="#ArialMT-65" x="300.146484"/>
     <use xlink:href="#ArialMT-63" x="355.761719"/>
     <use xlink:href="#ArialMT-65" x="405.761719"/>
     <use xlink:href="#ArialMT-6c" x="461.376953"/>
     <use xlink:href="#ArialMT-65" x="483.59375"/>
     <use xlink:href="#ArialMT-72" x="539.208984"/>
     <use xlink:href="#ArialMT-61" x="572.509766"/>
     <use xlink:href="#ArialMT-74" x="628.125"/>
     <use xlink:href="#ArialMT-69" x="655.908203"/>
     <use xlink:href="#ArialMT-6f" x="678.125"/>
     <use xlink:href="#ArialMT-6e" x="733.740234"/>
     <use xlink:href="#ArialMT-5f" x="789.355469"/>
     <use xlink:href="#ArialMT-6d" x="844.970703"/>
     <use xlink:href="#ArialMT-5f" x="928.271484"/>
     <use xlink:href="#ArialMT-70" x="983.886719"/>
     <use xlink:href="#ArialMT-65" x="1039.501953"/>
     <use xlink:href="#ArialMT-72" x="1095.117188"/>
     <use xlink:href="#ArialMT-5f" x="1128.417969"/>
     <use xlink:href="#ArialMT-73" x="1184.033203"/>
     <use xlink:href="#ArialMT-32" x="1234.033203"/>
    </g>
   </g>
  </g>
 </g>
 <defs>
  <clipPath id="p42342c155f">
   <rect x="7.2" y="20.1" width="167.04" height="94.016125"/>
  </clipPath>
  <clipPath id="pdbffaee9b9">
   <rect x="184.608" y="20.1" width="167.04" height="94.016125"/>
  </clipPath>
  <clipPath id="p4c1e1afd3d">
   <rect x="362.016" y="20.1" width="167.04" height="94.016125"/>
  </clipPath>
  <clipPath id="pcc67417924">
   <rect x="539.424" y="20.1" width="167.04" height="94.016125"/>
  </clipPath>
 </defs>
</svg>