<?xml version="1.0" encoding="utf-8" standalone="no"?>
<!DOCTYPE svg PUBLIC "-//W3C//DTD SVG 1.1//EN"
  "http://www.w3.org/Graphics/SVG/1.1/DTD/svg11.dtd">
<svg xmlns:xlink="http://www.w3.org/1999/xlink" width="713.664pt" height="281.664pt" viewBox="0 0 713.664 281.664" xmlns="http://www.w3.org/2000/svg" version="1.1">
 <metadata>
  <rdf:RDF xmlns:dc="http://purl.org/dc/elements/1.1/" xmlns:cc="http://creativecommons.org/ns#" xmlns:rdf="http://www.w3.org/1999/02/22-rdf-syntax-ns#">
   <cc:Work>
    <dc:type rdf:resource="http://purl.org/dc/dcmitype/StillImage"/>
    <dc:date>2025-03-14T11:30:38.729259</dc:date>
    <dc:format>image/svg+xml</dc:format>
    <dc:creator>
     <cc:Agent>
      <dc:title>Matplotlib v3.9.2, https://matplotlib.org/</dc:title>
     </cc:Agent>
    </dc:creator>
   </cc:Work>
  </rdf:RDF>
 </metadata>
 <defs>
  <style type="text/css">*{stroke-linejoin: round; stroke-linecap: butt}</style>
 </defs>
 <g id="figure_1">
  <g id="patch_1">
   <path d="M -0 281.664 
L 713.664 281.664 
L 713.664 0 
L -0 0 
z
" style="fill: #ffffff"/>
  </g>
  <g id="axes_1">
   <g id="patch_2">
    <path d="M 55.23175 243.14175 
L 357.587062 243.14175 
L 357.587062 38.568 
L 55.23175 38.568 
z
" style="fill: #ffffff"/>
   </g>
   <g id="matplotlib.axis_1">
    <g id="xtick_1">
     <g id="line2d_1">
      <defs>
       <path id="mffe7935da4" d="M 0 0 
L 0 4.8 
" style="stroke: #262626"/>
      </defs>
      <g>
       <use xlink:href="#mffe7935da4" x="68.975173" y="243.14175" style="fill: #262626; stroke: #262626"/>
      </g>
     </g>
     <g id="text_1">
      <!-- 0.0 -->
      <g style="fill: #262626" transform="translate(62.859173 257.740625) scale(0.088 -0.088)">
       <defs>
        <path id="ArialMT-30" d="M 266 2259 
Q 266 3072 433 3567 
Q 600 4063 929 4331 
Q 1259 4600 1759 4600 
Q 2128 4600 2406 4451 
Q 2684 4303 2865 4023 
Q 3047 3744 3150 3342 
Q 3253 2941 3253 2259 
Q 3253 1453 3087 958 
Q 2922 463 2592 192 
Q 2263 -78 1759 -78 
Q 1097 -78 719 397 
Q 266 969 266 2259 
z
M 844 2259 
Q 844 1131 1108 757 
Q 1372 384 1759 384 
Q 2147 384 2411 759 
Q 2675 1134 2675 2259 
Q 2675 3391 2411 3762 
Q 2147 4134 1753 4134 
Q 1366 4134 1134 3806 
Q 844 3388 844 2259 
z
" transform="scale(0.015625)"/>
        <path id="ArialMT-2e" d="M 581 0 
L 581 641 
L 1222 641 
L 1222 0 
L 581 0 
z
" transform="scale(0.015625)"/>
       </defs>
       <use xlink:href="#ArialMT-30"/>
       <use xlink:href="#ArialMT-2e" x="55.615234"/>
       <use xlink:href="#ArialMT-30" x="83.398438"/>
      </g>
     </g>
    </g>
    <g id="xtick_2">
     <g id="line2d_2">
      <g>
       <use xlink:href="#mffe7935da4" x="123.948866" y="243.14175" style="fill: #262626; stroke: #262626"/>
      </g>
     </g>
     <g id="text_2">
      <!-- 0.2 -->
      <g style="fill: #262626" transform="translate(117.832866 257.740625) scale(0.088 -0.088)">
       <defs>
        <path id="ArialMT-32" d="M 3222 541 
L 3222 0 
L 194 0 
Q 188 203 259 391 
Q 375 700 629 1000 
Q 884 1300 1366 1694 
Q 2113 2306 2375 2664 
Q 2638 3022 2638 3341 
Q 2638 3675 2398 3904 
Q 2159 4134 1775 4134 
Q 1369 4134 1125 3890 
Q 881 3647 878 3216 
L 300 3275 
Q 359 3922 746 4261 
Q 1134 4600 1788 4600 
Q 2447 4600 2831 4234 
Q 3216 3869 3216 3328 
Q 3216 3053 3103 2787 
Q 2991 2522 2730 2228 
Q 2469 1934 1863 1422 
Q 1356 997 1212 845 
Q 1069 694 975 541 
L 3222 541 
z
" transform="scale(0.015625)"/>
       </defs>
       <use xlink:href="#ArialMT-30"/>
       <use xlink:href="#ArialMT-2e" x="55.615234"/>
       <use xlink:href="#ArialMT-32" x="83.398438"/>
      </g>
     </g>
    </g>
    <g id="xtick_3">
     <g id="line2d_3">
      <g>
       <use xlink:href="#mffe7935da4" x="178.92256" y="243.14175" style="fill: #262626; stroke: #262626"/>
      </g>
     </g>
     <g id="text_3">
      <!-- 0.4 -->
      <g style="fill: #262626" transform="translate(172.80656 257.740625) scale(0.088 -0.088)">
       <defs>
        <path id="ArialMT-34" d="M 2069 0 
L 2069 1097 
L 81 1097 
L 81 1613 
L 2172 4581 
L 2631 4581 
L 2631 1613 
L 3250 1613 
L 3250 1097 
L 2631 1097 
L 2631 0 
L 2069 0 
z
M 2069 1613 
L 2069 3678 
L 634 1613 
L 2069 1613 
z
" transform="scale(0.015625)"/>
       </defs>
       <use xlink:href="#ArialMT-30"/>
       <use xlink:href="#ArialMT-2e" x="55.615234"/>
       <use xlink:href="#ArialMT-34" x="83.398438"/>
      </g>
     </g>
    </g>
    <g id="xtick_4">
     <g id="line2d_4">
      <g>
       <use xlink:href="#mffe7935da4" x="233.896253" y="243.14175" style="fill: #262626; stroke: #262626"/>
      </g>
     </g>
     <g id="text_4">
      <!-- 0.6 -->
      <g style="fill: #262626" transform="translate(227.780253 257.740625) scale(0.088 -0.088)">
       <defs>
        <path id="ArialMT-36" d="M 3184 3459 
L 2625 3416 
Q 2550 3747 2413 3897 
Q 2184 4138 1850 4138 
Q 1581 4138 1378 3988 
Q 1113 3794 959 3422 
Q 806 3050 800 2363 
Q 1003 2672 1297 2822 
Q 1591 2972 1913 2972 
Q 2475 2972 2870 2558 
Q 3266 2144 3266 1488 
Q 3266 1056 3080 686 
Q 2894 316 2569 119 
Q 2244 -78 1831 -78 
Q 1128 -78 684 439 
Q 241 956 241 2144 
Q 241 3472 731 4075 
Q 1159 4600 1884 4600 
Q 2425 4600 2770 4297 
Q 3116 3994 3184 3459 
z
M 888 1484 
Q 888 1194 1011 928 
Q 1134 663 1356 523 
Q 1578 384 1822 384 
Q 2178 384 2434 671 
Q 2691 959 2691 1453 
Q 2691 1928 2437 2201 
Q 2184 2475 1800 2475 
Q 1419 2475 1153 2201 
Q 888 1928 888 1484 
z
" transform="scale(0.015625)"/>
       </defs>
       <use xlink:href="#ArialMT-30"/>
       <use xlink:href="#ArialMT-2e" x="55.615234"/>
       <use xlink:href="#ArialMT-36" x="83.398438"/>
      </g>
     </g>
    </g>
    <g id="xtick_5">
     <g id="line2d_5">
      <g>
       <use xlink:href="#mffe7935da4" x="288.869946" y="243.14175" style="fill: #262626; stroke: #262626"/>
      </g>
     </g>
     <g id="text_5">
      <!-- 0.8 -->
      <g style="fill: #262626" transform="translate(282.753946 257.740625) scale(0.088 -0.088)">
       <defs>
        <path id="ArialMT-38" d="M 1131 2484 
Q 781 2613 612 2850 
Q 444 3088 444 3419 
Q 444 3919 803 4259 
Q 1163 4600 1759 4600 
Q 2359 4600 2725 4251 
Q 3091 3903 3091 3403 
Q 3091 3084 2923 2848 
Q 2756 2613 2416 2484 
Q 2838 2347 3058 2040 
Q 3278 1734 3278 1309 
Q 3278 722 2862 322 
Q 2447 -78 1769 -78 
Q 1091 -78 675 323 
Q 259 725 259 1325 
Q 259 1772 486 2073 
Q 713 2375 1131 2484 
z
M 1019 3438 
Q 1019 3113 1228 2906 
Q 1438 2700 1772 2700 
Q 2097 2700 2305 2904 
Q 2513 3109 2513 3406 
Q 2513 3716 2298 3927 
Q 2084 4138 1766 4138 
Q 1444 4138 1231 3931 
Q 1019 3725 1019 3438 
z
M 838 1322 
Q 838 1081 952 856 
Q 1066 631 1291 507 
Q 1516 384 1775 384 
Q 2178 384 2440 643 
Q 2703 903 2703 1303 
Q 2703 1709 2433 1975 
Q 2163 2241 1756 2241 
Q 1359 2241 1098 1978 
Q 838 1716 838 1322 
z
" transform="scale(0.015625)"/>
       </defs>
       <use xlink:href="#ArialMT-30"/>
       <use xlink:href="#ArialMT-2e" x="55.615234"/>
       <use xlink:href="#ArialMT-38" x="83.398438"/>
      </g>
     </g>
    </g>
    <g id="xtick_6">
     <g id="line2d_6">
      <g>
       <use xlink:href="#mffe7935da4" x="343.843639" y="243.14175" style="fill: #262626; stroke: #262626"/>
      </g>
     </g>
     <g id="text_6">
      <!-- 1.0 -->
      <g style="fill: #262626" transform="translate(337.727639 257.740625) scale(0.088 -0.088)">
       <defs>
        <path id="ArialMT-31" d="M 2384 0 
L 1822 0 
L 1822 3584 
Q 1619 3391 1289 3197 
Q 959 3003 697 2906 
L 697 3450 
Q 1169 3672 1522 3987 
Q 1875 4303 2022 4600 
L 2384 4600 
L 2384 0 
z
" transform="scale(0.015625)"/>
       </defs>
       <use xlink:href="#ArialMT-31"/>
       <use xlink:href="#ArialMT-2e" x="55.615234"/>
       <use xlink:href="#ArialMT-30" x="83.398438"/>
      </g>
     </g>
    </g>
    <g id="text_7">
     <!-- $x$ -->
     <g style="fill: #262626" transform="translate(202.809406 272.079) scale(0.12 -0.12)">
      <defs>
       <path id="DejaVuSans-Oblique-78" d="M 3841 3500 
L 2234 1784 
L 3219 0 
L 2559 0 
L 1819 1388 
L 531 0 
L -166 0 
L 1556 1844 
L 641 3500 
L 1300 3500 
L 1972 2234 
L 3144 3500 
L 3841 3500 
z
" transform="scale(0.015625)"/>
      </defs>
      <use xlink:href="#DejaVuSans-Oblique-78" transform="translate(0 0.3125)"/>
     </g>
    </g>
   </g>
   <g id="matplotlib.axis_2">
    <g id="ytick_1">
     <g id="line2d_7">
      <defs>
       <path id="m93a7a98022" d="M 0 0 
L -4.8 0 
" style="stroke: #262626"/>
      </defs>
      <g>
       <use xlink:href="#m93a7a98022" x="55.23175" y="229.5656" style="fill: #262626; stroke: #262626"/>
      </g>
     </g>
     <g id="text_8">
      <!-- −1.5 -->
      <g style="fill: #262626" transform="translate(29.56 232.715037) scale(0.088 -0.088)">
       <defs>
        <path id="ArialMT-2212" d="M 3381 1997 
L 356 1997 
L 356 2522 
L 3381 2522 
L 3381 1997 
z
" transform="scale(0.015625)"/>
        <path id="ArialMT-35" d="M 266 1200 
L 856 1250 
Q 922 819 1161 601 
Q 1400 384 1738 384 
Q 2144 384 2425 690 
Q 2706 997 2706 1503 
Q 2706 1984 2436 2262 
Q 2166 2541 1728 2541 
Q 1456 2541 1237 2417 
Q 1019 2294 894 2097 
L 366 2166 
L 809 4519 
L 3088 4519 
L 3088 3981 
L 1259 3981 
L 1013 2750 
Q 1425 3038 1878 3038 
Q 2478 3038 2890 2622 
Q 3303 2206 3303 1553 
Q 3303 931 2941 478 
Q 2500 -78 1738 -78 
Q 1113 -78 717 272 
Q 322 622 266 1200 
z
" transform="scale(0.015625)"/>
       </defs>
       <use xlink:href="#ArialMT-2212"/>
       <use xlink:href="#ArialMT-31" x="58.398438"/>
       <use xlink:href="#ArialMT-2e" x="114.013672"/>
       <use xlink:href="#ArialMT-35" x="141.796875"/>
      </g>
     </g>
    </g>
    <g id="ytick_2">
     <g id="line2d_8">
      <g>
       <use xlink:href="#m93a7a98022" x="55.23175" y="202.155257" style="fill: #262626; stroke: #262626"/>
      </g>
     </g>
     <g id="text_9">
      <!-- −1.0 -->
      <g style="fill: #262626" transform="translate(29.56 205.304694) scale(0.088 -0.088)">
       <use xlink:href="#ArialMT-2212"/>
       <use xlink:href="#ArialMT-31" x="58.398438"/>
       <use xlink:href="#ArialMT-2e" x="114.013672"/>
       <use xlink:href="#ArialMT-30" x="141.796875"/>
      </g>
     </g>
    </g>
    <g id="ytick_3">
     <g id="line2d_9">
      <g>
       <use xlink:href="#m93a7a98022" x="55.23175" y="174.744914" style="fill: #262626; stroke: #262626"/>
      </g>
     </g>
     <g id="text_10">
      <!-- −0.5 -->
      <g style="fill: #262626" transform="translate(29.56 177.894351) scale(0.088 -0.088)">
       <use xlink:href="#ArialMT-2212"/>
       <use xlink:href="#ArialMT-30" x="58.398438"/>
       <use xlink:href="#ArialMT-2e" x="114.013672"/>
       <use xlink:href="#ArialMT-35" x="141.796875"/>
      </g>
     </g>
    </g>
    <g id="ytick_4">
     <g id="line2d_10">
      <g>
       <use xlink:href="#m93a7a98022" x="55.23175" y="147.334571" style="fill: #262626; stroke: #262626"/>
      </g>
     </g>
     <g id="text_11">
      <!-- 0.0 -->
      <g style="fill: #262626" transform="translate(34.69975 150.484009) scale(0.088 -0.088)">
       <use xlink:href="#ArialMT-30"/>
       <use xlink:href="#ArialMT-2e" x="55.615234"/>
       <use xlink:href="#ArialMT-30" x="83.398438"/>
      </g>
     </g>
    </g>
    <g id="ytick_5">
     <g id="line2d_11">
      <g>
       <use xlink:href="#m93a7a98022" x="55.23175" y="119.924228" style="fill: #262626; stroke: #262626"/>
      </g>
     </g>
     <g id="text_12">
      <!-- 0.5 -->
      <g style="fill: #262626" transform="translate(34.69975 123.073666) scale(0.088 -0.088)">
       <use xlink:href="#ArialMT-30"/>
       <use xlink:href="#ArialMT-2e" x="55.615234"/>
       <use xlink:href="#ArialMT-35" x="83.398438"/>
      </g>
     </g>
    </g>
    <g id="ytick_6">
     <g id="line2d_12">
      <g>
       <use xlink:href="#m93a7a98022" x="55.23175" y="92.513885" style="fill: #262626; stroke: #262626"/>
      </g>
     </g>
     <g id="text_13">
      <!-- 1.0 -->
      <g style="fill: #262626" transform="translate(34.69975 95.663323) scale(0.088 -0.088)">
       <use xlink:href="#ArialMT-31"/>
       <use xlink:href="#ArialMT-2e" x="55.615234"/>
       <use xlink:href="#ArialMT-30" x="83.398438"/>
      </g>
     </g>
    </g>
    <g id="ytick_7">
     <g id="line2d_13">
      <g>
       <use xlink:href="#m93a7a98022" x="55.23175" y="65.103542" style="fill: #262626; stroke: #262626"/>
      </g>
     </g>
     <g id="text_14">
      <!-- 1.5 -->
      <g style="fill: #262626" transform="translate(34.69975 68.25298) scale(0.088 -0.088)">
       <use xlink:href="#ArialMT-31"/>
       <use xlink:href="#ArialMT-2e" x="55.615234"/>
       <use xlink:href="#ArialMT-35" x="83.398438"/>
      </g>
     </g>
    </g>
    <g id="text_15">
     <!-- $\phi^\text{KLE}_i$ -->
     <g style="fill: #262626" transform="translate(7.2 137.494875) scale(0.12 -0.12)">
      <defs>
       <path id="DejaVuSans-Oblique-3d5" d="M 2991 4863 
L 2738 3572 
Q 3363 3572 3684 3094 
Q 4016 2606 3850 1747 
Q 3681 888 3159 400 
Q 2653 -78 2028 -78 
L 1784 -1331 
L 1213 -1331 
L 1456 -78 
Q 834 -78 509 400 
Q 178 888 347 1747 
Q 513 2606 1034 3094 
Q 1544 3572 2166 3572 
L 2419 4863 
L 2991 4863 
z
M 2128 434 
Q 2481 434 2784 756 
Q 3116 1116 3244 1747 
Q 3369 2372 3169 2738 
Q 2991 3059 2638 3059 
L 2128 434 
z
M 1556 434 
L 2066 3059 
Q 1716 3059 1413 2738 
Q 1072 2372 953 1747 
Q 834 1116 1028 756 
Q 1203 434 1556 434 
z
" transform="scale(0.015625)"/>
       <path id="DejaVuSans-4b" d="M 628 4666 
L 1259 4666 
L 1259 2694 
L 3353 4666 
L 4166 4666 
L 1850 2491 
L 4331 0 
L 3500 0 
L 1259 2247 
L 1259 0 
L 628 0 
L 628 4666 
z
" transform="scale(0.015625)"/>
       <path id="DejaVuSans-4c" d="M 628 4666 
L 1259 4666 
L 1259 531 
L 3531 531 
L 3531 0 
L 628 0 
L 628 4666 
z
" transform="scale(0.015625)"/>
       <path id="DejaVuSans-45" d="M 628 4666 
L 3578 4666 
L 3578 4134 
L 1259 4134 
L 1259 2753 
L 3481 2753 
L 3481 2222 
L 1259 2222 
L 1259 531 
L 3634 531 
L 3634 0 
L 628 0 
L 628 4666 
z
" transform="scale(0.015625)"/>
       <path id="DejaVuSans-Oblique-69" d="M 1172 4863 
L 1747 4863 
L 1606 4134 
L 1031 4134 
L 1172 4863 
z
M 909 3500 
L 1484 3500 
L 800 0 
L 225 0 
L 909 3500 
z
" transform="scale(0.015625)"/>
      </defs>
      <use xlink:href="#DejaVuSans-Oblique-3d5" transform="translate(0 0.620313)"/>
      <use xlink:href="#DejaVuSans-4b" transform="translate(73.414505 38.965625) scale(0.7)"/>
      <use xlink:href="#DejaVuSans-4c" transform="translate(119.317826 38.965625) scale(0.7)"/>
      <use xlink:href="#DejaVuSans-45" transform="translate(158.316849 38.965625) scale(0.7)"/>
      <use xlink:href="#DejaVuSans-Oblique-69" transform="translate(65.966797 -26.723437) scale(0.7)"/>
     </g>
    </g>
   </g>
   <g id="line2d_14">
    <path d="M 68.975173 161.987679 
L 74.472543 165.096269 
L 81.069386 169.112458 
L 89.865177 174.770839 
L 109.655706 187.600222 
L 117.90176 192.622326 
L 125.04834 196.722662 
L 132.19492 200.557022 
L 138.791764 203.841504 
L 145.388607 206.866769 
L 151.435713 209.401388 
L 157.482819 211.698461 
L 163.529926 213.749519 
L 169.027295 215.394107 
L 174.524664 216.823779 
L 180.022034 218.03399 
L 185.519403 219.020888 
L 191.016772 219.781335 
L 196.514141 220.312916 
L 202.011511 220.613947 
L 207.50888 220.683474 
L 213.006249 220.521278 
L 218.503619 220.127872 
L 224.000988 219.504502 
L 229.498357 218.653143 
L 234.995727 217.576503 
L 240.493096 216.278006 
L 245.990465 214.761785 
L 251.487835 213.03265 
L 257.534941 210.891196 
L 263.582047 208.506728 
L 269.629153 205.88795 
L 276.225997 202.774823 
L 282.82284 199.406958 
L 289.419683 195.799122 
L 296.566263 191.641229 
L 304.26258 186.910261 
L 314.157845 180.542614 
L 332.848901 168.425638 
L 339.445744 164.454937 
L 343.843639 161.987679 
L 343.843639 161.987679 
" clip-path="url(#p80031bd2ab)" style="fill: none; stroke: #1f77b4; stroke-width: 1.2; stroke-linecap: round"/>
   </g>
   <g id="line2d_15">
    <path d="M 68.975173 176.587265 
L 75.02228 182.842164 
L 89.865177 198.391589 
L 94.812809 203.15929 
L 98.660968 206.586163 
L 102.509126 209.713587 
L 105.807548 212.124529 
L 109.105969 214.263403 
L 112.404391 216.112201 
L 115.153076 217.420721 
L 117.90176 218.511003 
L 120.650445 219.377812 
L 123.39913 220.017215 
L 126.147814 220.426467 
L 128.896499 220.603898 
L 131.645184 220.548824 
L 134.393868 220.261456 
L 137.142553 219.742841 
L 139.891237 218.994805 
L 142.639922 218.019914 
L 145.388607 216.821437 
L 148.137291 215.403329 
L 150.885976 213.770204 
L 154.184398 211.534087 
L 157.482819 209.006248 
L 160.781241 206.198254 
L 164.079662 203.122902 
L 167.927821 199.215802 
L 171.77598 194.988029 
L 176.173875 189.797219 
L 180.57177 184.263618 
L 185.519403 177.684265 
L 191.016772 170.013232 
L 198.163352 159.628224 
L 211.906776 139.117186 
L 220.702566 126.227606 
L 226.749673 117.736319 
L 232.247042 110.405524 
L 237.194674 104.203439 
L 241.59257 99.058482 
L 245.440728 94.874965 
L 249.288887 91.015694 
L 253.137045 87.504527 
L 256.435467 84.788556 
L 259.733889 82.356735 
L 263.03231 80.220209 
L 266.330732 78.388836 
L 269.079416 77.101995 
L 271.828101 76.037238 
L 274.576786 75.198112 
L 277.32547 74.587468 
L 280.074155 74.207431 
L 282.82284 74.059365 
L 285.571524 74.143825 
L 288.320209 74.460492 
L 291.068894 75.008101 
L 293.817578 75.78435 
L 296.566263 76.785796 
L 299.314948 78.007738 
L 302.063632 79.444095 
L 305.362054 81.439957 
L 308.660476 83.717344 
L 311.958897 86.25641 
L 315.807056 89.517622 
L 320.204951 93.584254 
L 325.152584 98.499396 
L 331.749427 105.402472 
L 343.293902 117.526664 
L 343.843639 118.081877 
L 343.843639 118.081877 
" clip-path="url(#p80031bd2ab)" style="fill: none; stroke: #ff7f0e; stroke-width: 1.2; stroke-linecap: round"/>
   </g>
   <g id="line2d_16">
    <path d="M 68.975173 103.590591 
L 76.121753 94.347861 
L 79.969912 89.689903 
L 83.268334 86.009297 
L 86.017018 83.225409 
L 88.765703 80.747146 
L 90.964651 79.012566 
L 93.163598 77.519473 
L 95.362546 76.285216 
L 97.561494 75.325055 
L 99.760441 74.652037 
L 101.959389 74.276926 
L 103.6086 74.196254 
L 105.257811 74.290639 
L 106.907022 74.562038 
L 108.556232 75.011681 
L 110.205443 75.640083 
L 112.404391 76.75561 
L 114.603339 78.186232 
L 116.802286 79.927605 
L 119.001234 81.973442 
L 121.200182 84.315626 
L 123.39913 86.944326 
L 126.147814 90.615561 
L 128.896499 94.690975 
L 131.645184 99.141773 
L 134.943605 104.933408 
L 138.242027 111.160176 
L 142.090185 118.888878 
L 147.037818 129.392645 
L 153.634661 143.996181 
L 164.079662 167.157283 
L 169.027295 177.564554 
L 172.875453 185.191561 
L 176.173875 191.314628 
L 179.472297 196.989151 
L 182.220981 201.333406 
L 184.969666 205.295158 
L 187.718351 208.846354 
L 189.917298 211.374708 
L 192.116246 213.612691 
L 194.315194 215.550156 
L 196.514141 217.178318 
L 198.713089 218.489797 
L 200.912037 219.478645 
L 202.561248 220.005801 
L 204.210459 220.347581 
L 205.859669 220.503112 
L 207.50888 220.471997 
L 209.158091 220.254316 
L 210.807302 219.850623 
L 212.456512 219.26195 
L 214.105723 218.489797 
L 216.304671 217.178318 
L 218.503619 215.550156 
L 220.702566 213.612691 
L 222.901514 211.374708 
L 225.100462 208.846354 
L 227.849147 205.295158 
L 230.597831 201.333406 
L 233.346516 196.989151 
L 236.644937 191.314628 
L 239.943359 185.191561 
L 243.791518 177.564554 
L 248.189413 168.340574 
L 254.236519 155.071087 
L 267.979943 124.658689 
L 272.377838 115.521571 
L 276.225997 107.996314 
L 279.524418 101.979357 
L 282.82284 96.427962 
L 285.571524 92.198769 
L 288.320209 88.362607 
L 291.068894 84.94636 
L 293.267841 82.531561 
L 295.466789 80.410807 
L 297.665737 78.592656 
L 299.864685 77.083861 
L 302.063632 75.889263 
L 304.26258 75.011681 
L 305.911791 74.562038 
L 307.561002 74.290639 
L 309.210212 74.196254 
L 310.859423 74.276926 
L 312.508634 74.529962 
L 314.707582 75.129421 
L 316.90653 76.018931 
L 319.105477 77.18601 
L 321.304425 78.615941 
L 323.503373 80.291885 
L 326.252057 82.703924 
L 329.000742 85.430183 
L 332.299164 89.053863 
L 336.147322 93.663186 
L 341.094955 99.984288 
L 343.843639 103.590591 
L 343.843639 103.590591 
" clip-path="url(#p80031bd2ab)" style="fill: none; stroke: #2ca02c; stroke-width: 1.2; stroke-linecap: round"/>
   </g>
   <g id="line2d_17">
    <path d="M 68.975173 205.404681 
L 72.273595 209.771997 
L 75.02228 213.041233 
L 77.221227 215.355076 
L 79.420175 217.35695 
L 81.619123 219.008591 
L 83.268334 219.996069 
L 84.917544 220.752906 
L 86.566755 221.266693 
L 88.215966 221.5264 
L 89.865177 221.522485 
L 91.514387 221.24699 
L 93.163598 220.69362 
L 94.812809 219.857808 
L 96.46202 218.736762 
L 98.111231 217.32949 
L 99.760441 215.636817 
L 101.409652 213.661377 
L 103.058863 211.4076 
L 105.257811 207.980534 
L 107.456759 204.089211 
L 109.655706 199.758146 
L 112.404391 193.771052 
L 115.153076 187.210002 
L 118.451497 178.6875 
L 122.299656 168.0375 
L 127.247288 153.623939 
L 137.142553 124.585966 
L 140.990711 114.024849 
L 144.289133 105.612255 
L 147.037818 99.170496 
L 149.786502 93.332823 
L 151.98545 89.147354 
L 154.184398 85.429499 
L 156.383345 82.209209 
L 158.032556 80.13627 
L 159.681767 78.367264 
L 161.330978 76.910193 
L 162.980189 75.771646 
L 164.629399 74.956767 
L 166.27861 74.469233 
L 167.927821 74.311241 
L 169.577032 74.483498 
L 171.226243 74.985214 
L 172.875453 75.814112 
L 174.524664 76.966435 
L 176.173875 78.436965 
L 177.823086 80.219045 
L 179.472297 82.304611 
L 181.121507 84.684228 
L 183.320455 88.295671 
L 185.519403 92.381557 
L 187.718351 96.909044 
L 190.467035 103.133658 
L 193.21572 109.913049 
L 196.514141 118.660384 
L 200.3623 129.508669 
L 206.409406 147.334571 
L 213.555986 168.316603 
L 217.404145 178.990117 
L 220.702566 187.529121 
L 223.451251 194.096445 
L 226.199936 200.076847 
L 228.398884 204.387867 
L 230.597831 208.240405 
L 232.796779 211.603493 
L 234.44599 213.788191 
L 236.095201 215.672398 
L 237.744411 217.247588 
L 239.393622 218.506631 
L 241.042833 219.443827 
L 242.692044 220.054931 
L 244.341255 220.337168 
L 245.990465 220.289255 
L 247.639676 219.911398 
L 249.288887 219.205298 
L 250.938098 218.17414 
L 252.587309 216.822583 
L 254.236519 215.156735 
L 255.88573 213.184132 
L 257.534941 210.913701 
L 259.733889 207.441132 
L 261.932836 203.485482 
L 264.131784 199.078633 
L 266.880469 192.990044 
L 269.629153 186.329007 
L 272.927575 177.698957 
L 276.775734 166.952076 
L 282.273103 150.840981 
L 290.519157 126.631642 
L 294.367315 115.981642 
L 297.665737 107.459141 
L 300.414422 100.89809 
L 303.163106 94.910996 
L 305.362054 90.579931 
L 307.561002 86.688608 
L 309.759949 83.261542 
L 311.958897 80.318103 
L 313.608108 78.436515 
L 315.257319 76.838772 
L 316.90653 75.526907 
L 318.55574 74.501138 
L 320.204951 73.759873 
L 321.854162 73.299721 
L 323.503373 73.115536 
L 325.152584 73.200459 
L 326.801794 73.545996 
L 328.451005 74.142095 
L 330.100216 74.977256 
L 331.749427 76.038637 
L 333.948374 77.781277 
L 336.147322 79.864827 
L 338.34627 82.250413 
L 341.094955 85.594708 
L 343.843639 89.264461 
L 343.843639 89.264461 
" clip-path="url(#p80031bd2ab)" style="fill: none; stroke: #d62728; stroke-width: 1.2; stroke-linecap: round"/>
   </g>
   <g id="line2d_18">
    <path d="M 68.975173 75.162372 
L 71.174121 72.919388 
L 72.823332 71.543416 
L 74.472543 70.456648 
L 76.121753 69.681468 
L 77.770964 69.238407 
L 78.870438 69.13672 
L 79.969912 69.195719 
L 81.069386 69.41975 
L 82.16886 69.812608 
L 83.268334 70.377512 
L 84.367807 71.117079 
L 86.017018 72.558095 
L 87.666229 74.400382 
L 89.31544 76.644491 
L 90.964651 79.287478 
L 92.613861 82.322852 
L 94.263072 85.740572 
L 96.46202 90.868348 
L 98.660968 96.609688 
L 100.859915 102.912542 
L 103.6086 111.485787 
L 106.907022 122.605411 
L 111.304917 138.383749 
L 120.650445 172.330008 
L 123.948866 183.367459 
L 126.697551 191.813518 
L 128.896499 197.958202 
L 131.095447 203.474492 
L 133.294394 208.292763 
L 134.943605 211.411372 
L 136.592816 214.080615 
L 138.242027 216.281422 
L 139.891237 217.998034 
L 140.990711 218.867215 
L 142.090185 219.512864 
L 143.189659 219.932901 
L 144.289133 220.125957 
L 145.388607 220.091381 
L 146.488081 219.829238 
L 147.587555 219.340312 
L 148.687028 218.626101 
L 149.786502 217.688812 
L 150.885976 216.531356 
L 152.535187 214.390429 
L 154.184398 211.777416 
L 155.833609 208.710681 
L 157.482819 205.211791 
L 159.681767 199.917337 
L 161.880715 193.964939 
L 164.079662 187.429069 
L 166.828347 178.563926 
L 170.126769 167.136402 
L 175.074401 149.056087 
L 181.671244 124.979184 
L 184.969666 113.71599 
L 187.718351 105.03902 
L 189.917298 98.684578 
L 192.116246 92.938583 
L 194.315194 87.872895 
L 195.964405 84.558532 
L 197.613615 81.685992 
L 199.262826 79.275491 
L 200.912037 77.343992 
L 202.011511 76.329293 
L 203.110985 75.536771 
L 204.210459 74.968906 
L 205.309932 74.627475 
L 206.409406 74.513546 
L 207.50888 74.627475 
L 208.608354 74.968906 
L 209.707828 75.536771 
L 210.807302 76.329293 
L 211.906776 77.343992 
L 213.555986 79.275491 
L 215.205197 81.685992 
L 216.854408 84.558532 
L 218.503619 87.872895 
L 220.15283 91.605756 
L 222.351777 97.188093 
L 224.550725 103.397593 
L 227.29941 111.922441 
L 230.597831 123.04954 
L 234.995727 138.890317 
L 244.341255 172.940317 
L 247.639676 183.967631 
L 250.388361 192.382594 
L 252.587309 198.488145 
L 254.786256 203.953631 
L 256.985204 208.710681 
L 258.634415 211.777416 
L 260.283626 214.390429 
L 261.932836 216.531356 
L 263.582047 218.185175 
L 264.681521 219.011246 
L 265.780995 219.613046 
L 266.880469 219.988724 
L 267.979943 220.137136 
L 269.079416 220.057859 
L 270.17889 219.751186 
L 271.278364 219.218128 
L 272.377838 218.460408 
L 273.477312 217.480461 
L 274.576786 216.281422 
L 276.225997 214.080615 
L 277.875207 211.411372 
L 279.524418 208.292763 
L 281.173629 204.747035 
L 283.372577 199.399046 
L 285.571524 193.404493 
L 288.320209 185.117783 
L 291.068894 176.101682 
L 294.917052 162.590174 
L 308.110739 115.102887 
L 310.859423 106.255592 
L 313.608108 98.135012 
L 315.807056 92.248021 
L 318.006003 86.962534 
L 320.204951 82.322852 
L 321.854162 79.287478 
L 323.503373 76.644491 
L 325.152584 74.400382 
L 326.801794 72.558095 
L 328.451005 71.117079 
L 330.100216 70.073376 
L 331.19969 69.594861 
L 332.299164 69.286856 
L 333.398637 69.14585 
L 334.498111 69.167769 
L 335.597585 69.34801 
L 337.246796 69.903932 
L 338.896007 70.785354 
L 340.545218 71.971092 
L 342.194428 73.438217 
L 343.843639 75.162372 
L 343.843639 75.162372 
" clip-path="url(#p80031bd2ab)" style="fill: none; stroke: #9467bd; stroke-width: 1.2; stroke-linecap: round"/>
   </g>
   <g id="line2d_19">
    <path d="M 68.975173 233.325212 
L 70.074647 233.683835 
L 71.174121 233.8417 
L 72.273595 233.791202 
L 73.373069 233.525487 
L 74.472543 233.038515 
L 75.572016 232.325125 
L 76.67149 231.381091 
L 77.770964 230.203175 
L 78.870438 228.789175 
L 80.519649 226.223368 
L 82.16886 223.125055 
L 83.81807 219.501036 
L 85.467281 215.3641 
L 87.666229 209.083738 
L 89.865177 201.986933 
L 92.064124 194.153346 
L 94.812809 183.474682 
L 98.111231 169.660292 
L 103.6086 145.402651 
L 108.556232 123.934811 
L 111.304917 112.841507 
L 114.053602 102.718091 
L 116.252549 95.501514 
L 117.90176 90.687375 
L 119.550971 86.439483 
L 121.200182 82.800204 
L 122.849393 79.806086 
L 123.948866 78.183659 
L 125.04834 76.868923 
L 126.147814 75.867881 
L 127.247288 75.185153 
L 128.346762 74.823947 
L 129.446236 74.786044 
L 130.54571 75.07178 
L 131.645184 75.680043 
L 132.744657 76.608277 
L 133.844131 77.852485 
L 134.943605 79.407249 
L 136.043079 81.265751 
L 137.69229 84.604732 
L 139.341501 88.575156 
L 140.990711 93.137369 
L 143.189659 100.06112 
L 145.388607 107.831664 
L 148.137291 118.522974 
L 151.435713 132.389597 
L 162.430452 179.697423 
L 165.179136 190.070188 
L 167.378084 197.520824 
L 169.577032 204.072353 
L 171.226243 208.324615 
L 172.875453 211.961745 
L 174.524664 214.947029 
L 175.624138 216.559921 
L 176.723612 217.862329 
L 177.823086 218.84841 
L 178.92256 219.513734 
L 180.022034 219.855317 
L 181.121507 219.871624 
L 182.220981 219.562579 
L 183.320455 218.929568 
L 184.419929 217.975429 
L 185.519403 216.704441 
L 186.618877 215.122305 
L 187.718351 213.236117 
L 189.367561 209.855608 
L 191.016772 205.84443 
L 192.665983 201.243045 
L 194.864931 194.270792 
L 197.063878 186.457387 
L 199.812563 175.722319 
L 203.110985 161.819941 
L 213.555986 116.726284 
L 216.304671 106.186969 
L 218.503619 98.571272 
L 220.702566 91.829471 
L 222.351777 87.41995 
L 224.000988 83.614805 
L 225.650199 80.452422 
L 226.749673 78.717287 
L 227.849147 77.289924 
L 228.94862 76.176736 
L 230.048094 75.382716 
L 231.147568 74.911424 
L 232.247042 74.764973 
L 233.346516 74.944018 
L 234.44599 75.447755 
L 235.545464 76.273921 
L 236.644937 77.418808 
L 237.744411 78.877277 
L 238.843885 80.642781 
L 240.493096 83.849027 
L 242.142307 87.695595 
L 243.791518 92.143659 
L 245.440728 97.148318 
L 247.639676 104.598954 
L 249.838624 112.815081 
L 252.587309 123.936155 
L 256.435467 140.530469 
L 263.582047 171.62615 
L 266.330732 182.677493 
L 268.52968 190.820257 
L 270.728627 198.183848 
L 272.927575 204.636867 
L 274.576786 208.809267 
L 276.225997 212.362745 
L 277.875207 215.261893 
L 278.974681 216.816657 
L 280.074155 218.060865 
L 281.173629 218.989099 
L 282.273103 219.597362 
L 283.372577 219.883098 
L 284.472051 219.845195 
L 285.571524 219.48399 
L 286.670998 218.801261 
L 287.770472 217.800219 
L 288.869946 216.485483 
L 289.96942 214.863056 
L 291.068894 212.940291 
L 292.718105 209.512305 
L 294.367315 205.462854 
L 296.016526 200.832418 
L 298.215474 193.834921 
L 300.414422 186.009204 
L 303.163106 175.26963 
L 306.461528 161.35805 
L 318.55574 108.989097 
L 321.304425 98.49335 
L 323.503373 90.835516 
L 325.70232 83.936059 
L 327.901268 77.870111 
L 329.550479 73.902353 
L 331.19969 70.452446 
L 332.848901 67.531172 
L 334.498111 65.143361 
L 335.597585 63.847612 
L 336.697059 62.786978 
L 337.796533 61.958733 
L 338.896007 61.35914 
L 339.995481 60.983498 
L 341.094955 60.826199 
L 342.194428 60.880788 
L 343.293902 61.140027 
L 343.843639 61.34393 
L 343.843639 61.34393 
" clip-path="url(#p80031bd2ab)" style="fill: none; stroke: #8c564b; stroke-width: 1.2; stroke-linecap: round"/>
   </g>
   <g id="line2d_20">
    <path d="M 68.975173 47.866807 
L 70.074647 48.941701 
L 71.174121 50.320808 
L 72.273595 52.007666 
L 73.373069 54.004193 
L 75.02228 57.579614 
L 76.67149 61.845164 
L 78.320701 66.784908 
L 79.969912 72.373484 
L 82.16886 80.772624 
L 84.367807 90.153778 
L 87.116492 103.050269 
L 90.414914 119.806814 
L 101.409652 176.986991 
L 103.6086 186.959381 
L 105.807548 195.924278 
L 107.456759 201.868377 
L 109.105969 207.061446 
L 110.75518 211.438305 
L 111.854654 213.874975 
L 112.954128 215.910247 
L 114.053602 217.532548 
L 115.153076 218.732622 
L 116.252549 219.503611 
L 117.352023 219.841115 
L 118.451497 219.743236 
L 119.550971 219.210611 
L 120.650445 218.246423 
L 121.749919 216.856399 
L 122.849393 215.048786 
L 123.948866 212.83432 
L 125.04834 210.226167 
L 126.697551 205.610373 
L 128.346762 200.206185 
L 129.995973 194.086259 
L 132.19492 184.956768 
L 134.943605 172.298838 
L 138.242027 155.914537 
L 145.388607 120.041225 
L 148.137291 107.608095 
L 150.336239 98.721441 
L 151.98545 92.818184 
L 153.634661 87.658277 
L 155.283872 83.312231 
L 156.383345 80.896837 
L 157.482819 78.884505 
L 158.582293 77.287484 
L 159.681767 76.115501 
L 160.781241 75.375703 
L 161.880715 75.072611 
L 162.980189 75.208095 
L 164.079662 75.78136 
L 165.179136 76.788951 
L 166.27861 78.224775 
L 167.378084 80.080136 
L 168.477558 82.343788 
L 169.577032 85.002006 
L 171.226243 89.69324 
L 172.875453 95.171425 
L 174.524664 101.361803 
L 176.723612 110.576205 
L 179.472297 123.319582 
L 183.320455 142.572638 
L 189.367561 172.979736 
L 192.116246 185.577773 
L 194.315194 194.635342 
L 195.964405 200.686827 
L 197.613615 206.009938 
L 199.262826 210.531994 
L 200.3623 213.070702 
L 201.461774 215.210286 
L 202.561248 216.937756 
L 203.660722 218.24262 
L 204.760195 219.116957 
L 205.859669 219.555456 
L 206.959143 219.555456 
L 208.058617 219.116957 
L 209.158091 218.24262 
L 210.257565 216.937756 
L 211.357039 215.210286 
L 212.456512 213.070702 
L 213.555986 210.531994 
L 215.205197 206.009938 
L 216.854408 200.686827 
L 218.503619 194.635342 
L 220.702566 185.577773 
L 222.901514 175.592886 
L 226.199936 159.411255 
L 234.44599 118.085152 
L 237.194674 105.843028 
L 239.393622 97.159734 
L 241.042833 91.435343 
L 242.692044 86.47413 
L 244.341255 82.343788 
L 245.440728 80.080136 
L 246.540202 78.224775 
L 247.639676 76.788951 
L 248.73915 75.78136 
L 249.838624 75.208095 
L 250.938098 75.072611 
L 252.037572 75.375703 
L 253.137045 76.115501 
L 254.236519 77.287484 
L 255.335993 78.884505 
L 256.435467 80.896837 
L 257.534941 83.312231 
L 259.184152 87.658277 
L 260.833362 92.818184 
L 262.482573 98.721441 
L 264.681521 107.608095 
L 266.880469 117.456418 
L 269.629153 130.753924 
L 280.074155 182.523764 
L 282.273103 191.901219 
L 284.472051 200.206185 
L 286.121261 205.610373 
L 287.770472 210.226167 
L 289.419683 213.991643 
L 290.519157 216.004178 
L 291.618631 217.604184 
L 292.718105 218.782164 
L 293.817578 219.531127 
L 294.917052 219.846618 
L 296.016526 219.726726 
L 297.116 219.172085 
L 298.215474 218.185849 
L 299.314948 216.773653 
L 300.414422 214.943563 
L 301.513895 212.706003 
L 302.613369 210.073673 
L 304.26258 205.418086 
L 305.911791 199.966978 
L 307.561002 193.78856 
L 309.759949 184.552655 
L 311.958897 174.361202 
L 314.707582 160.610566 
L 319.655214 134.388962 
L 324.602847 108.507507 
L 327.351531 95.170922 
L 329.550479 85.348355 
L 331.749427 76.442842 
L 333.948374 68.5772 
L 335.597585 63.417892 
L 337.246796 58.925378 
L 338.896007 55.118718 
L 340.545218 52.007666 
L 341.644691 50.320808 
L 342.744165 48.941701 
L 343.843639 47.866807 
L 343.843639 47.866807 
" clip-path="url(#p80031bd2ab)" style="fill: none; stroke: #e377c2; stroke-width: 1.2; stroke-linecap: round"/>
   </g>
   <g id="patch_3">
    <path d="M 55.23175 229.5656 
L 55.23175 65.103542 
" style="fill: none; stroke: #262626; stroke-linejoin: miter; stroke-linecap: square"/>
   </g>
   <g id="patch_4">
    <path d="M 68.975173 243.14175 
L 343.843639 243.14175 
" style="fill: none; stroke: #262626; stroke-linejoin: miter; stroke-linecap: square"/>
   </g>
   <g id="text_16">
    <!-- Karhunen-Loeve eigenfunctions -->
    <g style="fill: #262626" transform="translate(107.566125 17.391563) scale(0.14 -0.14)">
     <defs>
      <path id="ArialMT-4b" d="M 469 0 
L 469 4581 
L 1075 4581 
L 1075 2309 
L 3350 4581 
L 4172 4581 
L 2250 2725 
L 4256 0 
L 3456 0 
L 1825 2319 
L 1075 1588 
L 1075 0 
L 469 0 
z
" transform="scale(0.015625)"/>
      <path id="ArialMT-61" d="M 2588 409 
Q 2275 144 1986 34 
Q 1697 -75 1366 -75 
Q 819 -75 525 192 
Q 231 459 231 875 
Q 231 1119 342 1320 
Q 453 1522 633 1644 
Q 813 1766 1038 1828 
Q 1203 1872 1538 1913 
Q 2219 1994 2541 2106 
Q 2544 2222 2544 2253 
Q 2544 2597 2384 2738 
Q 2169 2928 1744 2928 
Q 1347 2928 1158 2789 
Q 969 2650 878 2297 
L 328 2372 
Q 403 2725 575 2942 
Q 747 3159 1072 3276 
Q 1397 3394 1825 3394 
Q 2250 3394 2515 3294 
Q 2781 3194 2906 3042 
Q 3031 2891 3081 2659 
Q 3109 2516 3109 2141 
L 3109 1391 
Q 3109 606 3145 398 
Q 3181 191 3288 0 
L 2700 0 
Q 2613 175 2588 409 
z
M 2541 1666 
Q 2234 1541 1622 1453 
Q 1275 1403 1131 1340 
Q 988 1278 909 1158 
Q 831 1038 831 891 
Q 831 666 1001 516 
Q 1172 366 1500 366 
Q 1825 366 2078 508 
Q 2331 650 2450 897 
Q 2541 1088 2541 1459 
L 2541 1666 
z
" transform="scale(0.015625)"/>
      <path id="ArialMT-72" d="M 416 0 
L 416 3319 
L 922 3319 
L 922 2816 
Q 1116 3169 1280 3281 
Q 1444 3394 1641 3394 
Q 1925 3394 2219 3213 
L 2025 2691 
Q 1819 2813 1613 2813 
Q 1428 2813 1281 2702 
Q 1134 2591 1072 2394 
Q 978 2094 978 1738 
L 978 0 
L 416 0 
z
" transform="scale(0.015625)"/>
      <path id="ArialMT-68" d="M 422 0 
L 422 4581 
L 984 4581 
L 984 2938 
Q 1378 3394 1978 3394 
Q 2347 3394 2619 3248 
Q 2891 3103 3008 2847 
Q 3125 2591 3125 2103 
L 3125 0 
L 2563 0 
L 2563 2103 
Q 2563 2525 2380 2717 
Q 2197 2909 1863 2909 
Q 1613 2909 1392 2779 
Q 1172 2650 1078 2428 
Q 984 2206 984 1816 
L 984 0 
L 422 0 
z
" transform="scale(0.015625)"/>
      <path id="ArialMT-75" d="M 2597 0 
L 2597 488 
Q 2209 -75 1544 -75 
Q 1250 -75 995 37 
Q 741 150 617 320 
Q 494 491 444 738 
Q 409 903 409 1263 
L 409 3319 
L 972 3319 
L 972 1478 
Q 972 1038 1006 884 
Q 1059 663 1231 536 
Q 1403 409 1656 409 
Q 1909 409 2131 539 
Q 2353 669 2445 892 
Q 2538 1116 2538 1541 
L 2538 3319 
L 3100 3319 
L 3100 0 
L 2597 0 
z
" transform="scale(0.015625)"/>
      <path id="ArialMT-6e" d="M 422 0 
L 422 3319 
L 928 3319 
L 928 2847 
Q 1294 3394 1984 3394 
Q 2284 3394 2536 3286 
Q 2788 3178 2913 3003 
Q 3038 2828 3088 2588 
Q 3119 2431 3119 2041 
L 3119 0 
L 2556 0 
L 2556 2019 
Q 2556 2363 2490 2533 
Q 2425 2703 2258 2804 
Q 2091 2906 1866 2906 
Q 1506 2906 1245 2678 
Q 984 2450 984 1813 
L 984 0 
L 422 0 
z
" transform="scale(0.015625)"/>
      <path id="ArialMT-65" d="M 2694 1069 
L 3275 997 
Q 3138 488 2766 206 
Q 2394 -75 1816 -75 
Q 1088 -75 661 373 
Q 234 822 234 1631 
Q 234 2469 665 2931 
Q 1097 3394 1784 3394 
Q 2450 3394 2872 2941 
Q 3294 2488 3294 1666 
Q 3294 1616 3291 1516 
L 816 1516 
Q 847 969 1125 678 
Q 1403 388 1819 388 
Q 2128 388 2347 550 
Q 2566 713 2694 1069 
z
M 847 1978 
L 2700 1978 
Q 2663 2397 2488 2606 
Q 2219 2931 1791 2931 
Q 1403 2931 1139 2672 
Q 875 2413 847 1978 
z
" transform="scale(0.015625)"/>
      <path id="ArialMT-2d" d="M 203 1375 
L 203 1941 
L 1931 1941 
L 1931 1375 
L 203 1375 
z
" transform="scale(0.015625)"/>
      <path id="ArialMT-4c" d="M 469 0 
L 469 4581 
L 1075 4581 
L 1075 541 
L 3331 541 
L 3331 0 
L 469 0 
z
" transform="scale(0.015625)"/>
      <path id="ArialMT-6f" d="M 213 1659 
Q 213 2581 725 3025 
Q 1153 3394 1769 3394 
Q 2453 3394 2887 2945 
Q 3322 2497 3322 1706 
Q 3322 1066 3130 698 
Q 2938 331 2570 128 
Q 2203 -75 1769 -75 
Q 1072 -75 642 372 
Q 213 819 213 1659 
z
M 791 1659 
Q 791 1022 1069 705 
Q 1347 388 1769 388 
Q 2188 388 2466 706 
Q 2744 1025 2744 1678 
Q 2744 2294 2464 2611 
Q 2184 2928 1769 2928 
Q 1347 2928 1069 2612 
Q 791 2297 791 1659 
z
" transform="scale(0.015625)"/>
      <path id="ArialMT-76" d="M 1344 0 
L 81 3319 
L 675 3319 
L 1388 1331 
Q 1503 1009 1600 663 
Q 1675 925 1809 1294 
L 2547 3319 
L 3125 3319 
L 1869 0 
L 1344 0 
z
" transform="scale(0.015625)"/>
      <path id="ArialMT-20" transform="scale(0.015625)"/>
      <path id="ArialMT-69" d="M 425 3934 
L 425 4581 
L 988 4581 
L 988 3934 
L 425 3934 
z
M 425 0 
L 425 3319 
L 988 3319 
L 988 0 
L 425 0 
z
" transform="scale(0.015625)"/>
      <path id="ArialMT-67" d="M 319 -275 
L 866 -356 
Q 900 -609 1056 -725 
Q 1266 -881 1628 -881 
Q 2019 -881 2231 -725 
Q 2444 -569 2519 -288 
Q 2563 -116 2559 434 
Q 2191 0 1641 0 
Q 956 0 581 494 
Q 206 988 206 1678 
Q 206 2153 378 2554 
Q 550 2956 876 3175 
Q 1203 3394 1644 3394 
Q 2231 3394 2613 2919 
L 2613 3319 
L 3131 3319 
L 3131 450 
Q 3131 -325 2973 -648 
Q 2816 -972 2473 -1159 
Q 2131 -1347 1631 -1347 
Q 1038 -1347 672 -1080 
Q 306 -813 319 -275 
z
M 784 1719 
Q 784 1066 1043 766 
Q 1303 466 1694 466 
Q 2081 466 2343 764 
Q 2606 1063 2606 1700 
Q 2606 2309 2336 2618 
Q 2066 2928 1684 2928 
Q 1309 2928 1046 2623 
Q 784 2319 784 1719 
z
" transform="scale(0.015625)"/>
      <path id="ArialMT-66" d="M 556 0 
L 556 2881 
L 59 2881 
L 59 3319 
L 556 3319 
L 556 3672 
Q 556 4006 616 4169 
Q 697 4388 901 4523 
Q 1106 4659 1475 4659 
Q 1713 4659 2000 4603 
L 1916 4113 
Q 1741 4144 1584 4144 
Q 1328 4144 1222 4034 
Q 1116 3925 1116 3625 
L 1116 3319 
L 1763 3319 
L 1763 2881 
L 1116 2881 
L 1116 0 
L 556 0 
z
" transform="scale(0.015625)"/>
      <path id="ArialMT-63" d="M 2588 1216 
L 3141 1144 
Q 3050 572 2676 248 
Q 2303 -75 1759 -75 
Q 1078 -75 664 370 
Q 250 816 250 1647 
Q 250 2184 428 2587 
Q 606 2991 970 3192 
Q 1334 3394 1763 3394 
Q 2303 3394 2647 3120 
Q 2991 2847 3088 2344 
L 2541 2259 
Q 2463 2594 2264 2762 
Q 2066 2931 1784 2931 
Q 1359 2931 1093 2626 
Q 828 2322 828 1663 
Q 828 994 1084 691 
Q 1341 388 1753 388 
Q 2084 388 2306 591 
Q 2528 794 2588 1216 
z
" transform="scale(0.015625)"/>
      <path id="ArialMT-74" d="M 1650 503 
L 1731 6 
Q 1494 -44 1306 -44 
Q 1000 -44 831 53 
Q 663 150 594 308 
Q 525 466 525 972 
L 525 2881 
L 113 2881 
L 113 3319 
L 525 3319 
L 525 4141 
L 1084 4478 
L 1084 3319 
L 1650 3319 
L 1650 2881 
L 1084 2881 
L 1084 941 
Q 1084 700 1114 631 
Q 1144 563 1211 522 
Q 1278 481 1403 481 
Q 1497 481 1650 503 
z
" transform="scale(0.015625)"/>
      <path id="ArialMT-73" d="M 197 991 
L 753 1078 
Q 800 744 1014 566 
Q 1228 388 1613 388 
Q 2000 388 2187 545 
Q 2375 703 2375 916 
Q 2375 1106 2209 1216 
Q 2094 1291 1634 1406 
Q 1016 1563 777 1677 
Q 538 1791 414 1992 
Q 291 2194 291 2438 
Q 291 2659 392 2848 
Q 494 3038 669 3163 
Q 800 3259 1026 3326 
Q 1253 3394 1513 3394 
Q 1903 3394 2198 3281 
Q 2494 3169 2634 2976 
Q 2775 2784 2828 2463 
L 2278 2388 
Q 2241 2644 2061 2787 
Q 1881 2931 1553 2931 
Q 1166 2931 1000 2803 
Q 834 2675 834 2503 
Q 834 2394 903 2306 
Q 972 2216 1119 2156 
Q 1203 2125 1616 2013 
Q 2213 1853 2448 1751 
Q 2684 1650 2818 1456 
Q 2953 1263 2953 975 
Q 2953 694 2789 445 
Q 2625 197 2315 61 
Q 2006 -75 1616 -75 
Q 969 -75 630 194 
Q 291 463 197 991 
z
" transform="scale(0.015625)"/>
     </defs>
     <use xlink:href="#ArialMT-4b"/>
     <use xlink:href="#ArialMT-61" x="66.699219"/>
     <use xlink:href="#ArialMT-72" x="122.314453"/>
     <use xlink:href="#ArialMT-68" x="155.615234"/>
     <use xlink:href="#ArialMT-75" x="211.230469"/>
     <use xlink:href="#ArialMT-6e" x="266.845703"/>
     <use xlink:href="#ArialMT-65" x="322.460938"/>
     <use xlink:href="#ArialMT-6e" x="378.076172"/>
     <use xlink:href="#ArialMT-2d" x="433.691406"/>
     <use xlink:href="#ArialMT-4c" x="466.992188"/>
     <use xlink:href="#ArialMT-6f" x="522.607422"/>
     <use xlink:href="#ArialMT-65" x="578.222656"/>
     <use xlink:href="#ArialMT-76" x="633.837891"/>
     <use xlink:href="#ArialMT-65" x="683.837891"/>
     <use xlink:href="#ArialMT-20" x="739.453125"/>
     <use xlink:href="#ArialMT-65" x="767.236328"/>
     <use xlink:href="#ArialMT-69" x="822.851562"/>
     <use xlink:href="#ArialMT-67" x="845.068359"/>
     <use xlink:href="#ArialMT-65" x="900.683594"/>
     <use xlink:href="#ArialMT-6e" x="956.298828"/>
     <use xlink:href="#ArialMT-66" x="1011.914062"/>
     <use xlink:href="#ArialMT-75" x="1039.697266"/>
     <use xlink:href="#ArialMT-6e" x="1095.3125"/>
     <use xlink:href="#ArialMT-63" x="1150.927734"/>
     <use xlink:href="#ArialMT-74" x="1200.927734"/>
     <use xlink:href="#ArialMT-69" x="1228.710938"/>
     <use xlink:href="#ArialMT-6f" x="1250.927734"/>
     <use xlink:href="#ArialMT-6e" x="1306.542969"/>
     <use xlink:href="#ArialMT-73" x="1362.158203"/>
    </g>
    <!-- of the conductivity field (input) -->
    <g style="fill: #262626" transform="translate(113.812531 32.568) scale(0.14 -0.14)">
     <defs>
      <path id="ArialMT-64" d="M 2575 0 
L 2575 419 
Q 2259 -75 1647 -75 
Q 1250 -75 917 144 
Q 584 363 401 755 
Q 219 1147 219 1656 
Q 219 2153 384 2558 
Q 550 2963 881 3178 
Q 1213 3394 1622 3394 
Q 1922 3394 2156 3267 
Q 2391 3141 2538 2938 
L 2538 4581 
L 3097 4581 
L 3097 0 
L 2575 0 
z
M 797 1656 
Q 797 1019 1065 703 
Q 1334 388 1700 388 
Q 2069 388 2326 689 
Q 2584 991 2584 1609 
Q 2584 2291 2321 2609 
Q 2059 2928 1675 2928 
Q 1300 2928 1048 2622 
Q 797 2316 797 1656 
z
" transform="scale(0.015625)"/>
      <path id="ArialMT-79" d="M 397 -1278 
L 334 -750 
Q 519 -800 656 -800 
Q 844 -800 956 -737 
Q 1069 -675 1141 -563 
Q 1194 -478 1313 -144 
Q 1328 -97 1363 -6 
L 103 3319 
L 709 3319 
L 1400 1397 
Q 1534 1031 1641 628 
Q 1738 1016 1872 1384 
L 2581 3319 
L 3144 3319 
L 1881 -56 
Q 1678 -603 1566 -809 
Q 1416 -1088 1222 -1217 
Q 1028 -1347 759 -1347 
Q 597 -1347 397 -1278 
z
" transform="scale(0.015625)"/>
      <path id="ArialMT-6c" d="M 409 0 
L 409 4581 
L 972 4581 
L 972 0 
L 409 0 
z
" transform="scale(0.015625)"/>
      <path id="ArialMT-28" d="M 1497 -1347 
Q 1031 -759 709 28 
Q 388 816 388 1659 
Q 388 2403 628 3084 
Q 909 3875 1497 4659 
L 1900 4659 
Q 1522 4009 1400 3731 
Q 1209 3300 1100 2831 
Q 966 2247 966 1656 
Q 966 153 1900 -1347 
L 1497 -1347 
z
" transform="scale(0.015625)"/>
      <path id="ArialMT-70" d="M 422 -1272 
L 422 3319 
L 934 3319 
L 934 2888 
Q 1116 3141 1344 3267 
Q 1572 3394 1897 3394 
Q 2322 3394 2647 3175 
Q 2972 2956 3137 2557 
Q 3303 2159 3303 1684 
Q 3303 1175 3120 767 
Q 2938 359 2589 142 
Q 2241 -75 1856 -75 
Q 1575 -75 1351 44 
Q 1128 163 984 344 
L 984 -1272 
L 422 -1272 
z
M 931 1641 
Q 931 1000 1190 694 
Q 1450 388 1819 388 
Q 2194 388 2461 705 
Q 2728 1022 2728 1688 
Q 2728 2322 2467 2637 
Q 2206 2953 1844 2953 
Q 1484 2953 1207 2617 
Q 931 2281 931 1641 
z
" transform="scale(0.015625)"/>
      <path id="ArialMT-29" d="M 791 -1347 
L 388 -1347 
Q 1322 153 1322 1656 
Q 1322 2244 1188 2822 
Q 1081 3291 891 3722 
Q 769 4003 388 4659 
L 791 4659 
Q 1378 3875 1659 3084 
Q 1900 2403 1900 1659 
Q 1900 816 1576 28 
Q 1253 -759 791 -1347 
z
" transform="scale(0.015625)"/>
     </defs>
     <use xlink:href="#ArialMT-6f"/>
     <use xlink:href="#ArialMT-66" x="55.615234"/>
     <use xlink:href="#ArialMT-20" x="83.398438"/>
     <use xlink:href="#ArialMT-74" x="111.181641"/>
     <use xlink:href="#ArialMT-68" x="138.964844"/>
     <use xlink:href="#ArialMT-65" x="194.580078"/>
     <use xlink:href="#ArialMT-20" x="250.195312"/>
     <use xlink:href="#ArialMT-63" x="277.978516"/>
     <use xlink:href="#ArialMT-6f" x="327.978516"/>
     <use xlink:href="#ArialMT-6e" x="383.59375"/>
     <use xlink:href="#ArialMT-64" x="439.208984"/>
     <use xlink:href="#ArialMT-75" x="494.824219"/>
     <use xlink:href="#ArialMT-63" x="550.439453"/>
     <use xlink:href="#ArialMT-74" x="600.439453"/>
     <use xlink:href="#ArialMT-69" x="628.222656"/>
     <use xlink:href="#ArialMT-76" x="650.439453"/>
     <use xlink:href="#ArialMT-69" x="700.439453"/>
     <use xlink:href="#ArialMT-74" x="722.65625"/>
     <use xlink:href="#ArialMT-79" x="750.439453"/>
     <use xlink:href="#ArialMT-20" x="800.439453"/>
     <use xlink:href="#ArialMT-66" x="828.222656"/>
     <use xlink:href="#ArialMT-69" x="856.005859"/>
     <use xlink:href="#ArialMT-65" x="878.222656"/>
     <use xlink:href="#ArialMT-6c" x="933.837891"/>
     <use xlink:href="#ArialMT-64" x="956.054688"/>
     <use xlink:href="#ArialMT-20" x="1011.669922"/>
     <use xlink:href="#ArialMT-28" x="1039.453125"/>
     <use xlink:href="#ArialMT-69" x="1072.753906"/>
     <use xlink:href="#ArialMT-6e" x="1094.970703"/>
     <use xlink:href="#ArialMT-70" x="1150.585938"/>
     <use xlink:href="#ArialMT-75" x="1206.201172"/>
     <use xlink:href="#ArialMT-74" x="1261.816406"/>
     <use xlink:href="#ArialMT-29" x="1289.599609"/>
    </g>
   </g>
  </g>
  <g id="axes_2">
   <g id="patch_5">
    <path d="M 404.108688 243.14175 
L 706.464 243.14175 
L 706.464 38.568 
L 404.108688 38.568 
z
" style="fill: #ffffff"/>
   </g>
   <g id="matplotlib.axis_3">
    <g id="xtick_7">
     <g id="line2d_21">
      <g>
       <use xlink:href="#mffe7935da4" x="417.852111" y="243.14175" style="fill: #262626; stroke: #262626"/>
      </g>
     </g>
     <g id="text_17">
      <!-- 0.0 -->
      <g style="fill: #262626" transform="translate(411.736111 257.740625) scale(0.088 -0.088)">
       <use xlink:href="#ArialMT-30"/>
       <use xlink:href="#ArialMT-2e" x="55.615234"/>
       <use xlink:href="#ArialMT-30" x="83.398438"/>
      </g>
     </g>
    </g>
    <g id="xtick_8">
     <g id="line2d_22">
      <g>
       <use xlink:href="#mffe7935da4" x="472.825804" y="243.14175" style="fill: #262626; stroke: #262626"/>
      </g>
     </g>
     <g id="text_18">
      <!-- 0.2 -->
      <g style="fill: #262626" transform="translate(466.709804 257.740625) scale(0.088 -0.088)">
       <use xlink:href="#ArialMT-30"/>
       <use xlink:href="#ArialMT-2e" x="55.615234"/>
       <use xlink:href="#ArialMT-32" x="83.398438"/>
      </g>
     </g>
    </g>
    <g id="xtick_9">
     <g id="line2d_23">
      <g>
       <use xlink:href="#mffe7935da4" x="527.799497" y="243.14175" style="fill: #262626; stroke: #262626"/>
      </g>
     </g>
     <g id="text_19">
      <!-- 0.4 -->
      <g style="fill: #262626" transform="translate(521.683497 257.740625) scale(0.088 -0.088)">
       <use xlink:href="#ArialMT-30"/>
       <use xlink:href="#ArialMT-2e" x="55.615234"/>
       <use xlink:href="#ArialMT-34" x="83.398438"/>
      </g>
     </g>
    </g>
    <g id="xtick_10">
     <g id="line2d_24">
      <g>
       <use xlink:href="#mffe7935da4" x="582.77319" y="243.14175" style="fill: #262626; stroke: #262626"/>
      </g>
     </g>
     <g id="text_20">
      <!-- 0.6 -->
      <g style="fill: #262626" transform="translate(576.65719 257.740625) scale(0.088 -0.088)">
       <use xlink:href="#ArialMT-30"/>
       <use xlink:href="#ArialMT-2e" x="55.615234"/>
       <use xlink:href="#ArialMT-36" x="83.398438"/>
      </g>
     </g>
    </g>
    <g id="xtick_11">
     <g id="line2d_25">
      <g>
       <use xlink:href="#mffe7935da4" x="637.746884" y="243.14175" style="fill: #262626; stroke: #262626"/>
      </g>
     </g>
     <g id="text_21">
      <!-- 0.8 -->
      <g style="fill: #262626" transform="translate(631.630884 257.740625) scale(0.088 -0.088)">
       <use xlink:href="#ArialMT-30"/>
       <use xlink:href="#ArialMT-2e" x="55.615234"/>
       <use xlink:href="#ArialMT-38" x="83.398438"/>
      </g>
     </g>
    </g>
    <g id="xtick_12">
     <g id="line2d_26">
      <g>
       <use xlink:href="#mffe7935da4" x="692.720577" y="243.14175" style="fill: #262626; stroke: #262626"/>
      </g>
     </g>
     <g id="text_22">
      <!-- 1.0 -->
      <g style="fill: #262626" transform="translate(686.604577 257.740625) scale(0.088 -0.088)">
       <use xlink:href="#ArialMT-31"/>
       <use xlink:href="#ArialMT-2e" x="55.615234"/>
       <use xlink:href="#ArialMT-30" x="83.398438"/>
      </g>
     </g>
    </g>
    <g id="text_23">
     <!-- $x$ -->
     <g style="fill: #262626" transform="translate(551.686344 272.079) scale(0.12 -0.12)">
      <use xlink:href="#DejaVuSans-Oblique-78" transform="translate(0 0.3125)"/>
     </g>
    </g>
   </g>
   <g id="matplotlib.axis_4">
    <g id="ytick_8">
     <g id="line2d_27">
      <g>
       <use xlink:href="#m93a7a98022" x="404.108688" y="138.746614" style="fill: #262626; stroke: #262626"/>
      </g>
     </g>
     <g id="text_24">
      <!-- 0 -->
      <g style="fill: #262626" transform="translate(390.915063 141.896052) scale(0.088 -0.088)">
       <use xlink:href="#ArialMT-30"/>
      </g>
     </g>
    </g>
    <g id="text_25">
     <!-- $\phi^\text{PCA}_i$ -->
     <g style="fill: #262626" transform="translate(367.955063 137.494875) scale(0.12 -0.12)">
      <defs>
       <path id="DejaVuSans-50" d="M 1259 4147 
L 1259 2394 
L 2053 2394 
Q 2494 2394 2734 2622 
Q 2975 2850 2975 3272 
Q 2975 3691 2734 3919 
Q 2494 4147 2053 4147 
L 1259 4147 
z
M 628 4666 
L 2053 4666 
Q 2838 4666 3239 4311 
Q 3641 3956 3641 3272 
Q 3641 2581 3239 2228 
Q 2838 1875 2053 1875 
L 1259 1875 
L 1259 0 
L 628 0 
L 628 4666 
z
" transform="scale(0.015625)"/>
       <path id="DejaVuSans-43" d="M 4122 4306 
L 4122 3641 
Q 3803 3938 3442 4084 
Q 3081 4231 2675 4231 
Q 1875 4231 1450 3742 
Q 1025 3253 1025 2328 
Q 1025 1406 1450 917 
Q 1875 428 2675 428 
Q 3081 428 3442 575 
Q 3803 722 4122 1019 
L 4122 359 
Q 3791 134 3420 21 
Q 3050 -91 2638 -91 
Q 1578 -91 968 557 
Q 359 1206 359 2328 
Q 359 3453 968 4101 
Q 1578 4750 2638 4750 
Q 3056 4750 3426 4639 
Q 3797 4528 4122 4306 
z
" transform="scale(0.015625)"/>
       <path id="DejaVuSans-41" d="M 2188 4044 
L 1331 1722 
L 3047 1722 
L 2188 4044 
z
M 1831 4666 
L 2547 4666 
L 4325 0 
L 3669 0 
L 3244 1197 
L 1141 1197 
L 716 0 
L 50 0 
L 1831 4666 
z
" transform="scale(0.015625)"/>
      </defs>
      <use xlink:href="#DejaVuSans-Oblique-3d5" transform="translate(0 0.70625)"/>
      <use xlink:href="#DejaVuSans-50" transform="translate(73.414505 40.046875) scale(0.7)"/>
      <use xlink:href="#DejaVuSans-43" transform="translate(115.626419 40.046875) scale(0.7)"/>
      <use xlink:href="#DejaVuSans-41" transform="translate(164.503372 40.046875) scale(0.7)"/>
      <use xlink:href="#DejaVuSans-Oblique-69" transform="translate(65.966797 -26.6375) scale(0.7)"/>
     </g>
    </g>
   </g>
   <g id="line2d_28">
    <path d="M 417.852111 138.746614 
L 421.150532 140.627091 
L 424.448954 142.775358 
L 427.747376 145.192411 
L 431.045797 147.868697 
L 434.893956 151.29115 
L 439.291851 155.537907 
L 444.78922 161.213388 
L 454.684485 171.868333 
L 462.380802 180.012542 
L 467.878172 185.5423 
L 472.825804 190.235688 
L 477.773436 194.617001 
L 482.171332 198.225592 
L 486.569227 201.551887 
L 490.967123 204.592314 
L 495.365018 207.353249 
L 499.762914 209.850873 
L 504.160809 212.109332 
L 509.108441 214.400282 
L 514.605811 216.685078 
L 520.652917 218.939461 
L 527.24976 221.140717 
L 533.846603 223.090739 
L 539.89371 224.636008 
L 544.841342 225.691505 
L 549.788974 226.514167 
L 554.18687 227.007804 
L 558.035028 227.222395 
L 561.883187 227.203194 
L 565.181609 226.977625 
L 568.48003 226.538749 
L 571.778452 225.867694 
L 575.076873 224.946433 
L 578.375295 223.758477 
L 581.673716 222.289807 
L 584.972138 220.530043 
L 588.27056 218.473804 
L 591.568981 216.122135 
L 594.867403 213.483776 
L 598.165824 210.576038 
L 602.013983 206.878534 
L 606.411878 202.319698 
L 611.909248 196.273681 
L 627.301882 179.134089 
L 632.249514 174.087427 
L 636.64741 169.931711 
L 640.495568 166.57338 
L 644.343727 163.475902 
L 648.741622 160.239118 
L 653.139518 157.29341 
L 658.08715 154.275253 
L 663.034782 151.512362 
L 668.532152 148.681641 
L 674.579258 145.81114 
L 680.626364 143.182648 
L 686.123734 141.019838 
L 691.621103 139.099488 
L 692.720577 138.746614 
L 692.720577 138.746614 
" clip-path="url(#p258278017f)" style="fill: none; stroke: #1f77b4; stroke-width: 1.2; stroke-linecap: round"/>
   </g>
   <g id="line2d_29">
    <path d="M 417.852111 138.746614 
L 421.700269 132.407512 
L 426.098165 124.713757 
L 432.145271 113.61874 
L 442.040536 95.407614 
L 446.438431 87.81189 
L 450.28659 81.623165 
L 453.585011 76.734164 
L 456.883433 72.27941 
L 459.632118 68.926991 
L 462.380802 65.9217 
L 465.129487 63.278965 
L 467.328435 61.434155 
L 469.527382 59.833934 
L 471.72633 58.481356 
L 473.925278 57.377766 
L 476.124226 56.522772 
L 478.323173 55.914341 
L 480.522121 55.549039 
L 482.721069 55.422383 
L 484.920016 55.529287 
L 487.118964 55.864547 
L 489.317912 56.423295 
L 491.51686 57.201384 
L 493.715807 58.195636 
L 495.914755 59.403942 
L 498.113703 60.825178 
L 500.862388 62.900612 
L 503.611072 65.308033 
L 506.359757 68.046534 
L 509.108441 71.11271 
L 511.857126 74.499065 
L 515.155548 78.966975 
L 518.453969 83.844394 
L 522.302128 89.99349 
L 526.150286 96.557928 
L 531.097919 105.468304 
L 537.145025 116.847638 
L 546.490553 134.981091 
L 562.982661 167.037089 
L 568.48003 177.207011 
L 572.877926 184.910922 
L 576.726084 191.232816 
L 580.024506 196.284446 
L 583.322927 200.961394 
L 586.621349 205.240201 
L 589.91977 209.105999 
L 592.668455 212.005103 
L 595.41714 214.606129 
L 598.165824 216.903295 
L 600.914509 218.888443 
L 603.663194 220.550582 
L 605.862141 221.638829 
L 608.061089 222.504554 
L 610.260037 223.140777 
L 612.458985 223.541608 
L 614.657932 223.702974 
L 616.85688 223.623216 
L 619.055828 223.303472 
L 621.254776 222.747814 
L 623.453723 221.963142 
L 625.652671 220.958862 
L 627.851619 219.746427 
L 630.600303 217.95799 
L 633.348988 215.891792 
L 636.64741 213.084849 
L 639.945831 209.964376 
L 643.79399 205.983471 
L 647.642148 201.689079 
L 652.040044 196.451132 
L 656.987676 190.185495 
L 661.935309 183.55557 
L 667.432678 175.79352 
L 674.029521 166.035159 
L 687.223207 146.330951 
L 691.621103 140.21214 
L 692.720577 138.746614 
L 692.720577 138.746614 
" clip-path="url(#p258278017f)" style="fill: none; stroke: #ff7f0e; stroke-width: 1.2; stroke-linecap: round"/>
   </g>
   <g id="line2d_30">
    <path d="M 417.852111 138.746614 
L 421.150532 132.762077 
L 424.998691 125.323857 
L 429.946323 115.213026 
L 444.239484 85.500175 
L 447.537905 79.259943 
L 450.28659 74.437484 
L 453.035274 70.039287 
L 455.234222 66.876975 
L 457.43317 64.072663 
L 459.632118 61.663483 
L 461.281328 60.137352 
L 462.930539 58.867668 
L 464.57975 57.867655 
L 466.228961 57.149391 
L 467.878172 56.72361 
L 469.527382 56.599497 
L 471.176593 56.784501 
L 472.825804 57.284171 
L 474.475015 58.102019 
L 476.124226 59.23941 
L 477.773436 60.695494 
L 479.422647 62.467172 
L 481.071858 64.549102 
L 482.721069 66.933748 
L 484.920016 70.567199 
L 487.118964 74.693128 
L 489.317912 79.27764 
L 492.066597 85.593916 
L 494.815281 92.482554 
L 498.113703 101.37804 
L 501.961861 112.420973 
L 507.459231 128.958888 
L 517.904232 160.545606 
L 522.302128 173.026055 
L 525.600549 181.770847 
L 528.898971 189.84053 
L 531.647656 195.959543 
L 533.846603 200.410255 
L 536.045551 204.432237 
L 538.244499 207.997625 
L 540.443447 211.081796 
L 542.092657 213.066256 
L 543.741868 214.76046 
L 545.391079 216.158032 
L 547.04029 217.253869 
L 548.689501 218.044216 
L 550.338711 218.526736 
L 551.987922 218.700588 
L 553.637133 218.5665 
L 555.286344 218.126821 
L 556.935555 217.385545 
L 558.584765 216.348305 
L 560.233976 215.022302 
L 561.883187 213.416194 
L 563.532398 211.539914 
L 565.731345 208.63703 
L 567.930293 205.301436 
L 570.129241 201.562217 
L 572.877926 196.364409 
L 575.62661 190.633799 
L 578.375295 184.417274 
L 581.673716 176.371815 
L 584.972138 167.741912 
L 588.820297 157.006124 
L 593.218192 143.977547 
L 598.715561 126.876762 
L 608.061089 97.680402 
L 611.359511 88.088808 
L 614.108195 80.654476 
L 616.85688 73.85473 
L 619.055828 68.938109 
L 621.254776 64.529057 
L 623.453723 60.655579 
L 625.652671 57.335334 
L 627.301882 55.213423 
L 628.951093 53.407724 
L 630.600303 51.916189 
L 632.249514 50.734777 
L 633.898725 49.857798 
L 635.547936 49.278225 
L 637.197147 48.988004 
L 638.846357 48.978319 
L 640.495568 49.239839 
L 642.144779 49.762931 
L 643.79399 50.537832 
L 645.443201 51.554797 
L 647.092411 52.804203 
L 649.291359 54.815389 
L 651.490307 57.201355 
L 653.689255 59.941056 
L 655.888202 63.013897 
L 658.636887 67.292076 
L 661.385572 72.017241 
L 664.683993 78.214438 
L 667.982415 84.904087 
L 671.830573 93.195553 
L 677.87768 106.84237 
L 685.02426 122.92772 
L 688.872418 131.117797 
L 692.17084 137.69648 
L 692.720577 138.746614 
L 692.720577 138.746614 
" clip-path="url(#p258278017f)" style="fill: none; stroke: #2ca02c; stroke-width: 1.2; stroke-linecap: round"/>
   </g>
   <g id="line2d_31">
    <path d="M 417.852111 138.746614 
L 422.250006 128.255149 
L 434.893956 97.618318 
L 438.192377 90.46902 
L 440.941062 85.085756 
L 443.14001 81.240923 
L 445.338957 77.867719 
L 446.988168 75.678323 
L 448.637379 73.802634 
L 450.28659 72.258214 
L 451.935801 71.060589 
L 453.585011 70.22317 
L 454.684485 69.870644 
L 455.783959 69.686024 
L 456.883433 69.671635 
L 457.982907 69.829338 
L 459.082381 70.160525 
L 460.181855 70.666108 
L 461.281328 71.346502 
L 462.930539 72.694549 
L 464.57975 74.433182 
L 466.228961 76.55734 
L 467.878172 79.059319 
L 469.527382 81.928795 
L 471.72633 86.303808 
L 473.925278 91.271767 
L 476.124226 96.788465 
L 478.87291 104.378785 
L 481.621595 112.637897 
L 484.920016 123.26251 
L 489.317912 138.271778 
L 500.862388 178.188651 
L 504.160809 188.566439 
L 506.909494 196.497099 
L 509.108441 202.265429 
L 511.307389 207.446122 
L 513.506337 211.976694 
L 515.155548 214.914808 
L 516.804759 217.436437 
L 518.453969 219.524495 
L 520.10318 221.164742 
L 521.202654 222.003705 
L 522.302128 222.635816 
L 523.401602 223.058917 
L 524.501076 223.271374 
L 525.600549 223.272064 
L 526.700023 223.060361 
L 527.799497 222.636122 
L 528.898971 221.999675 
L 529.998445 221.151806 
L 531.097919 220.093747 
L 532.74713 218.116323 
L 534.39634 215.677272 
L 536.045551 212.786162 
L 537.694762 209.454656 
L 539.343973 205.696506 
L 541.54292 200.049642 
L 543.741868 193.716084 
L 545.940816 186.74607 
L 548.689501 177.226632 
L 551.438185 166.931481 
L 554.736607 153.763142 
L 559.684239 132.97271 
L 566.830819 102.930402 
L 570.129241 90.023228 
L 572.877926 80.136492 
L 575.076873 72.954586 
L 577.275821 66.532865 
L 578.925032 62.273365 
L 580.574243 58.532238 
L 582.223453 55.34282 
L 583.872664 52.73478 
L 584.972138 51.331951 
L 586.071612 50.205618 
L 587.171086 49.361479 
L 588.27056 48.804291 
L 589.370034 48.537812 
L 590.469507 48.564741 
L 591.568981 48.886656 
L 592.668455 49.50395 
L 593.767929 50.415772 
L 594.867403 51.619971 
L 595.966877 53.113051 
L 597.066351 54.890137 
L 598.715561 58.074173 
L 600.364772 61.855732 
L 602.013983 66.200894 
L 604.212931 72.800582 
L 606.411878 80.218767 
L 609.160563 90.451 
L 612.458985 103.788211 
L 617.406617 124.999071 
L 624.553197 155.617854 
L 628.401356 171.024754 
L 631.699777 183.208497 
L 634.448462 192.47505 
L 636.64741 199.229669 
L 638.846357 205.34584 
L 641.045305 210.780605 
L 643.244253 215.496721 
L 644.893464 218.543084 
L 646.542674 221.156352 
L 648.191885 223.327325 
L 649.841096 225.048647 
L 650.94057 225.943582 
L 652.040044 226.634985 
L 653.139518 227.122015 
L 654.238991 227.40419 
L 655.338465 227.481385 
L 656.437939 227.353845 
L 657.537413 227.022187 
L 658.636887 226.487427 
L 659.736361 225.75099 
L 660.835835 224.814737 
L 662.485045 223.04092 
L 664.134256 220.832819 
L 665.783467 218.203123 
L 667.432678 215.167497 
L 669.081889 211.744785 
L 671.280836 206.617854 
L 673.479784 200.904522 
L 676.228469 193.049296 
L 679.52689 182.79179 
L 683.924786 168.215084 
L 692.720577 138.746614 
L 692.720577 138.746614 
" clip-path="url(#p258278017f)" style="fill: none; stroke: #d62728; stroke-width: 1.2; stroke-linecap: round"/>
   </g>
   <g id="line2d_32">
    <path d="M 417.852111 138.746614 
L 427.747376 179.275042 
L 431.045797 191.595114 
L 433.794482 200.902687 
L 435.99343 207.547229 
L 437.64264 211.985562 
L 439.291851 215.905052 
L 440.941062 219.263217 
L 442.590273 222.022087 
L 443.689747 223.511981 
L 444.78922 224.712551 
L 445.888694 225.61672 
L 446.988168 226.218686 
L 448.087642 226.51396 
L 449.187116 226.499402 
L 450.28659 226.173235 
L 451.386064 225.535057 
L 452.485538 224.585835 
L 453.585011 223.327888 
L 454.684485 221.764864 
L 455.783959 219.901711 
L 457.43317 216.558133 
L 459.082381 212.579475 
L 460.731591 207.997437 
L 462.380802 202.849007 
L 464.57975 195.1763 
L 466.778698 186.682509 
L 469.527382 175.098647 
L 472.825804 160.127312 
L 478.323173 133.846923 
L 483.270806 110.458477 
L 486.569227 95.895625 
L 489.317912 84.812787 
L 491.51686 76.834291 
L 493.715807 69.789308 
L 495.365018 65.192941 
L 497.014229 61.239278 
L 498.66344 57.971667 
L 499.762914 56.193425 
L 500.862388 54.746911 
L 501.961861 53.640588 
L 503.061335 52.881488 
L 504.160809 52.475114 
L 505.260283 52.425353 
L 506.359757 52.734391 
L 507.459231 53.402662 
L 508.558705 54.428793 
L 509.658178 55.809584 
L 510.757652 57.540001 
L 511.857126 59.613194 
L 513.506337 63.346334 
L 515.155548 67.794582 
L 516.804759 72.913544 
L 518.453969 78.651553 
L 520.652917 87.164171 
L 522.851865 96.521992 
L 525.600549 109.157379 
L 529.448708 127.991709 
L 537.694762 168.75222 
L 540.443447 181.242912 
L 543.192131 192.645494 
L 545.391079 200.779412 
L 547.04029 206.206818 
L 548.689501 210.993162 
L 550.338711 215.085538 
L 551.987922 218.436523 
L 553.087396 220.238121 
L 554.18687 221.681554 
L 555.286344 222.758116 
L 556.385818 223.460827 
L 557.485291 223.784542 
L 558.584765 223.726034 
L 559.684239 223.284067 
L 560.783713 222.459445 
L 561.883187 221.255037 
L 562.982661 219.675784 
L 564.082135 217.728675 
L 565.181609 215.422707 
L 566.830819 211.315342 
L 568.48003 206.470284 
L 570.129241 200.940862 
L 572.328189 192.610283 
L 574.527136 183.335378 
L 577.275821 170.68927 
L 581.12398 151.704307 
L 588.820297 113.334775 
L 591.568981 100.80606 
L 593.767929 91.635785 
L 595.966877 83.404175 
L 597.616088 77.935861 
L 599.265298 73.133137 
L 600.914509 69.042776 
L 602.56372 65.70345 
L 603.663194 63.909694 
L 604.762668 62.470001 
L 605.862141 61.389277 
L 606.961615 60.670607 
L 608.061089 60.315236 
L 609.160563 60.322582 
L 610.260037 60.69025 
L 611.359511 61.414066 
L 612.458985 62.488122 
L 613.558459 63.904833 
L 614.657932 65.655008 
L 615.757406 67.727931 
L 617.406617 71.415517 
L 619.055828 75.755095 
L 620.705039 80.694184 
L 622.903986 88.112105 
L 625.102934 96.34542 
L 627.851619 107.543821 
L 631.699777 124.341155 
L 640.495568 163.275078 
L 643.244253 174.431535 
L 645.992937 184.652654 
L 648.191885 192.007497 
L 650.390833 198.524431 
L 652.040044 202.810749 
L 653.689255 206.547122 
L 655.338465 209.707389 
L 656.987676 212.270003 
L 658.08715 213.637881 
L 659.186624 214.728777 
L 660.286098 215.539887 
L 661.385572 216.069408 
L 662.485045 216.316557 
L 663.584519 216.281594 
L 664.683993 215.96584 
L 665.783467 215.371687 
L 666.882941 214.50262 
L 667.982415 213.363216 
L 669.081889 211.959151 
L 670.731099 209.371903 
L 672.38031 206.231968 
L 674.029521 202.571882 
L 675.678732 198.429033 
L 677.87768 192.227008 
L 680.076627 185.35045 
L 682.825312 175.986018 
L 686.123734 163.938481 
L 692.720577 138.746614 
L 692.720577 138.746614 
" clip-path="url(#p258278017f)" style="fill: none; stroke: #9467bd; stroke-width: 1.2; stroke-linecap: round"/>
   </g>
   <g id="line2d_33">
    <path d="M 417.852111 138.746614 
L 423.899217 168.771314 
L 427.197639 183.924889 
L 429.396586 193.125716 
L 431.595534 201.375369 
L 433.244745 206.823612 
L 434.893956 211.554246 
L 436.543166 215.497986 
L 437.64264 217.659238 
L 438.742114 219.427252 
L 439.841588 220.788106 
L 440.941062 221.730112 
L 442.040536 222.24398 
L 443.14001 222.322966 
L 444.239484 221.962989 
L 445.338957 221.16273 
L 446.438431 219.923699 
L 447.537905 218.250274 
L 448.637379 216.149708 
L 449.736853 213.632112 
L 451.386064 209.102779 
L 453.035274 203.719777 
L 454.684485 197.550949 
L 456.883433 188.242518 
L 459.082381 177.896294 
L 461.831065 163.875566 
L 466.778698 137.163831 
L 470.626856 116.761636 
L 473.375541 103.266193 
L 475.574489 93.484484 
L 477.773436 84.8404 
L 479.422647 79.217936 
L 481.071858 74.408753 
L 482.721069 70.468741 
L 483.820543 68.347106 
L 484.920016 66.641413 
L 486.01949 65.359008 
L 487.118964 64.504652 
L 488.218438 64.080501 
L 489.317912 64.086115 
L 490.417386 64.518476 
L 491.51686 65.372034 
L 492.616334 66.638771 
L 493.715807 68.308287 
L 494.815281 70.367896 
L 495.914755 72.802751 
L 497.563966 77.121181 
L 499.213177 82.180762 
L 500.862388 87.908454 
L 503.061335 96.445468 
L 505.81002 108.272772 
L 509.108441 123.596844 
L 517.354495 162.540554 
L 520.10318 174.277792 
L 522.302128 182.787609 
L 524.501076 190.337855 
L 526.150286 195.2841 
L 527.799497 199.557343 
L 529.448708 203.112175 
L 530.548182 205.063806 
L 531.647656 206.669567 
L 532.74713 207.92147 
L 533.846603 208.81302 
L 534.946077 209.339221 
L 536.045551 209.496578 
L 537.145025 209.283102 
L 538.244499 208.698301 
L 539.343973 207.743187 
L 540.443447 206.42027 
L 541.54292 204.733559 
L 542.642394 202.688567 
L 543.741868 200.292319 
L 545.391079 196.058452 
L 547.04029 191.089183 
L 548.689501 185.427783 
L 550.888448 176.892613 
L 553.087396 167.364173 
L 555.836081 154.321049 
L 559.684239 134.670342 
L 566.281082 100.742123 
L 569.029767 87.986741 
L 571.228715 78.928504 
L 572.877926 72.981788 
L 574.527136 67.879297 
L 575.62661 64.994807 
L 576.726084 62.554695 
L 577.825558 60.582559 
L 578.925032 59.099395 
L 580.024506 58.123413 
L 580.574243 57.830499 
L 581.12398 57.669858 
L 581.673716 57.642904 
L 582.223453 57.750848 
L 582.77319 57.994692 
L 583.322927 58.375222 
L 584.422401 59.548389 
L 585.521875 61.272196 
L 586.621349 63.544797 
L 587.720823 66.360528 
L 588.820297 69.7098 
L 590.469507 75.703201 
L 592.118718 82.802156 
L 593.767929 90.922218 
L 595.966877 103.151889 
L 598.165824 116.699951 
L 601.464246 138.677853 
L 607.511352 179.634033 
L 609.7103 193.202563 
L 611.909248 205.350875 
L 613.558459 213.293303 
L 615.207669 220.076414 
L 616.307143 223.896615 
L 617.406617 227.12268 
L 618.506091 229.732974 
L 619.605565 231.711638 
L 620.705039 233.048608 
L 621.254776 233.474884 
L 621.804512 233.739552 
L 622.354249 233.842943 
L 622.903986 233.785725 
L 623.453723 233.568892 
L 624.00346 233.193759 
L 624.553197 232.66195 
L 625.652671 231.136281 
L 626.752145 229.010644 
L 627.851619 226.30801 
L 628.951093 223.055155 
L 630.600303 217.210987 
L 632.249514 210.311099 
L 633.898725 202.48088 
L 636.097673 190.82567 
L 638.846357 174.772116 
L 642.694516 150.705718 
L 648.191885 116.255788 
L 650.94057 100.265988 
L 653.139518 88.526145 
L 655.338465 77.960727 
L 656.987676 70.923919 
L 658.636887 64.726862 
L 660.286098 59.430844 
L 661.935309 55.08749 
L 663.034782 52.742107 
L 664.134256 50.848494 
L 665.23373 49.414177 
L 666.333204 48.444444 
L 667.432678 47.942272 
L 667.982415 47.866807 
L 668.532152 47.908273 
L 669.081889 48.06637 
L 670.181362 48.730478 
L 671.280836 49.85364 
L 672.38031 51.427898 
L 673.479784 53.442849 
L 674.579258 55.885689 
L 675.678732 58.741289 
L 677.327943 63.760097 
L 678.977153 69.60095 
L 680.626364 76.187496 
L 682.825312 85.983563 
L 685.573997 99.554984 
L 688.872418 117.207725 
L 692.720577 138.746614 
L 692.720577 138.746614 
" clip-path="url(#p258278017f)" style="fill: none; stroke: #8c564b; stroke-width: 1.2; stroke-linecap: round"/>
   </g>
   <g id="patch_6">
    <path d="M 404.108688 138.746614 
L 404.108688 138.746614 
" style="fill: none; stroke: #262626; stroke-linejoin: miter; stroke-linecap: square"/>
   </g>
   <g id="patch_7">
    <path d="M 417.852111 243.14175 
L 692.720577 243.14175 
" style="fill: none; stroke: #262626; stroke-linejoin: miter; stroke-linecap: square"/>
   </g>
   <g id="text_26">
    <!-- Principal components -->
    <g style="fill: #262626" transform="translate(488.366344 17.555625) scale(0.14 -0.14)">
     <defs>
      <path id="ArialMT-50" d="M 494 0 
L 494 4581 
L 2222 4581 
Q 2678 4581 2919 4538 
Q 3256 4481 3484 4323 
Q 3713 4166 3852 3881 
Q 3991 3597 3991 3256 
Q 3991 2672 3619 2267 
Q 3247 1863 2275 1863 
L 1100 1863 
L 1100 0 
L 494 0 
z
M 1100 2403 
L 2284 2403 
Q 2872 2403 3119 2622 
Q 3366 2841 3366 3238 
Q 3366 3525 3220 3729 
Q 3075 3934 2838 4000 
Q 2684 4041 2272 4041 
L 1100 4041 
L 1100 2403 
z
" transform="scale(0.015625)"/>
      <path id="ArialMT-6d" d="M 422 0 
L 422 3319 
L 925 3319 
L 925 2853 
Q 1081 3097 1340 3245 
Q 1600 3394 1931 3394 
Q 2300 3394 2536 3241 
Q 2772 3088 2869 2813 
Q 3263 3394 3894 3394 
Q 4388 3394 4653 3120 
Q 4919 2847 4919 2278 
L 4919 0 
L 4359 0 
L 4359 2091 
Q 4359 2428 4304 2576 
Q 4250 2725 4106 2815 
Q 3963 2906 3769 2906 
Q 3419 2906 3187 2673 
Q 2956 2441 2956 1928 
L 2956 0 
L 2394 0 
L 2394 2156 
Q 2394 2531 2256 2718 
Q 2119 2906 1806 2906 
Q 1569 2906 1367 2781 
Q 1166 2656 1075 2415 
Q 984 2175 984 1722 
L 984 0 
L 422 0 
z
" transform="scale(0.015625)"/>
     </defs>
     <use xlink:href="#ArialMT-50"/>
     <use xlink:href="#ArialMT-72" x="66.699219"/>
     <use xlink:href="#ArialMT-69" x="100"/>
     <use xlink:href="#ArialMT-6e" x="122.216797"/>
     <use xlink:href="#ArialMT-63" x="177.832031"/>
     <use xlink:href="#ArialMT-69" x="227.832031"/>
     <use xlink:href="#ArialMT-70" x="250.048828"/>
     <use xlink:href="#ArialMT-61" x="305.664062"/>
     <use xlink:href="#ArialMT-6c" x="361.279297"/>
     <use xlink:href="#ArialMT-20" x="383.496094"/>
     <use xlink:href="#ArialMT-63" x="411.279297"/>
     <use xlink:href="#ArialMT-6f" x="461.279297"/>
     <use xlink:href="#ArialMT-6d" x="516.894531"/>
     <use xlink:href="#ArialMT-70" x="600.195312"/>
     <use xlink:href="#ArialMT-6f" x="655.810547"/>
     <use xlink:href="#ArialMT-6e" x="711.425781"/>
     <use xlink:href="#ArialMT-65" x="767.041016"/>
     <use xlink:href="#ArialMT-6e" x="822.65625"/>
     <use xlink:href="#ArialMT-74" x="878.271484"/>
     <use xlink:href="#ArialMT-73" x="906.054688"/>
    </g>
    <!-- of the temperature field (output) -->
    <g style="fill: #262626" transform="translate(457.240406 32.568) scale(0.14 -0.14)">
     <use xlink:href="#ArialMT-6f"/>
     <use xlink:href="#ArialMT-66" x="55.615234"/>
     <use xlink:href="#ArialMT-20" x="83.398438"/>
     <use xlink:href="#ArialMT-74" x="111.181641"/>
     <use xlink:href="#ArialMT-68" x="138.964844"/>
     <use xlink:href="#ArialMT-65" x="194.580078"/>
     <use xlink:href="#ArialMT-20" x="250.195312"/>
     <use xlink:href="#ArialMT-74" x="277.978516"/>
     <use xlink:href="#ArialMT-65" x="305.761719"/>
     <use xlink:href="#ArialMT-6d" x="361.376953"/>
     <use xlink:href="#ArialMT-70" x="444.677734"/>
     <use xlink:href="#ArialMT-65" x="500.292969"/>
     <use xlink:href="#ArialMT-72" x="555.908203"/>
     <use xlink:href="#ArialMT-61" x="589.208984"/>
     <use xlink:href="#ArialMT-74" x="644.824219"/>
     <use xlink:href="#ArialMT-75" x="672.607422"/>
     <use xlink:href="#ArialMT-72" x="728.222656"/>
     <use xlink:href="#ArialMT-65" x="761.523438"/>
     <use xlink:href="#ArialMT-20" x="817.138672"/>
     <use xlink:href="#ArialMT-66" x="844.921875"/>
     <use xlink:href="#ArialMT-69" x="872.705078"/>
     <use xlink:href="#ArialMT-65" x="894.921875"/>
     <use xlink:href="#ArialMT-6c" x="950.537109"/>
     <use xlink:href="#ArialMT-64" x="972.753906"/>
     <use xlink:href="#ArialMT-20" x="1028.369141"/>
     <use xlink:href="#ArialMT-28" x="1056.152344"/>
     <use xlink:href="#ArialMT-6f" x="1089.453125"/>
     <use xlink:href="#ArialMT-75" x="1145.068359"/>
     <use xlink:href="#ArialMT-74" x="1200.683594"/>
     <use xlink:href="#ArialMT-70" x="1228.466797"/>
     <use xlink:href="#ArialMT-75" x="1284.082031"/>
     <use xlink:href="#ArialMT-74" x="1339.697266"/>
     <use xlink:href="#ArialMT-29" x="1367.480469"/>
    </g>
   </g>
  </g>
 </g>
 <defs>
  <clipPath id="p80031bd2ab">
   <rect x="55.23175" y="38.568" width="302.355312" height="204.57375"/>
  </clipPath>
  <clipPath id="p258278017f">
   <rect x="404.108688" y="38.568" width="302.355312" height="204.57375"/>
  </clipPath>
 </defs>
</svg>