<?xml version="1.0" encoding="utf-8" standalone="no"?>
<!DOCTYPE svg PUBLIC "-//W3C//DTD SVG 1.1//EN"
  "http://www.w3.org/Graphics/SVG/1.1/DTD/svg11.dtd">
<svg xmlns:xlink="http://www.w3.org/1999/xlink" width="410.20075pt" height="322.510875pt" viewBox="0 0 410.20075 322.510875" xmlns="http://www.w3.org/2000/svg" version="1.1">
 <metadata>
  <rdf:RDF xmlns:dc="http://purl.org/dc/elements/1.1/" xmlns:cc="http://creativecommons.org/ns#" xmlns:rdf="http://www.w3.org/1999/02/22-rdf-syntax-ns#">
   <cc:Work>
    <dc:type rdf:resource="http://purl.org/dc/dcmitype/StillImage"/>
    <dc:date>2025-01-08T13:30:04.589732</dc:date>
    <dc:format>image/svg+xml</dc:format>
    <dc:creator>
     <cc:Agent>
      <dc:title>Matplotlib v3.9.0, https://matplotlib.org/</dc:title>
     </cc:Agent>
    </dc:creator>
   </cc:Work>
  </rdf:RDF>
 </metadata>
 <defs>
  <style type="text/css">*{stroke-linejoin: round; stroke-linecap: butt}</style>
 </defs>
 <g id="figure_1">
  <g id="patch_1">
   <path d="M 0 322.510875 
L 410.20075 322.510875 
L 410.20075 0 
L 0 0 
z
" style="fill: #ffffff"/>
  </g>
  <g id="axes_1">
   <g id="patch_2">
    <path d="M 45.88075 286.1835 
L 403.00075 286.1835 
L 403.00075 20.0715 
L 45.88075 20.0715 
z
" style="fill: #ffffff"/>
   </g>
   <g id="matplotlib.axis_1">
    <g id="xtick_1">
     <g id="line2d_1">
      <defs>
       <path id="m070d8b4116" d="M 0 0 
L 0 4.8 
" style="stroke: #262626"/>
      </defs>
      <g>
       <use xlink:href="#m070d8b4116" x="62.113477" y="286.1835" style="fill: #262626; stroke: #262626"/>
      </g>
     </g>
     <g id="text_1">
      <!-- 0 -->
      <g style="fill: #262626" transform="translate(59.666665 300.782375) scale(0.088 -0.088)">
       <defs>
        <path id="ArialMT-30" d="M 266 2259 
Q 266 3072 433 3567 
Q 600 4063 929 4331 
Q 1259 4600 1759 4600 
Q 2128 4600 2406 4451 
Q 2684 4303 2865 4023 
Q 3047 3744 3150 3342 
Q 3253 2941 3253 2259 
Q 3253 1453 3087 958 
Q 2922 463 2592 192 
Q 2263 -78 1759 -78 
Q 1097 -78 719 397 
Q 266 969 266 2259 
z
M 844 2259 
Q 844 1131 1108 757 
Q 1372 384 1759 384 
Q 2147 384 2411 759 
Q 2675 1134 2675 2259 
Q 2675 3391 2411 3762 
Q 2147 4134 1753 4134 
Q 1366 4134 1134 3806 
Q 844 3388 844 2259 
z
" transform="scale(0.015625)"/>
       </defs>
       <use xlink:href="#ArialMT-30"/>
      </g>
     </g>
    </g>
    <g id="xtick_2">
     <g id="line2d_2">
      <g>
       <use xlink:href="#m070d8b4116" x="127.044386" y="286.1835" style="fill: #262626; stroke: #262626"/>
      </g>
     </g>
     <g id="text_2">
      <!-- 10 -->
      <g style="fill: #262626" transform="translate(122.150761 300.782375) scale(0.088 -0.088)">
       <defs>
        <path id="ArialMT-31" d="M 2384 0 
L 1822 0 
L 1822 3584 
Q 1619 3391 1289 3197 
Q 959 3003 697 2906 
L 697 3450 
Q 1169 3672 1522 3987 
Q 1875 4303 2022 4600 
L 2384 4600 
L 2384 0 
z
" transform="scale(0.015625)"/>
       </defs>
       <use xlink:href="#ArialMT-31"/>
       <use xlink:href="#ArialMT-30" x="55.615234"/>
      </g>
     </g>
    </g>
    <g id="xtick_3">
     <g id="line2d_3">
      <g>
       <use xlink:href="#m070d8b4116" x="191.975295" y="286.1835" style="fill: #262626; stroke: #262626"/>
      </g>
     </g>
     <g id="text_3">
      <!-- 20 -->
      <g style="fill: #262626" transform="translate(187.08167 300.782375) scale(0.088 -0.088)">
       <defs>
        <path id="ArialMT-32" d="M 3222 541 
L 3222 0 
L 194 0 
Q 188 203 259 391 
Q 375 700 629 1000 
Q 884 1300 1366 1694 
Q 2113 2306 2375 2664 
Q 2638 3022 2638 3341 
Q 2638 3675 2398 3904 
Q 2159 4134 1775 4134 
Q 1369 4134 1125 3890 
Q 881 3647 878 3216 
L 300 3275 
Q 359 3922 746 4261 
Q 1134 4600 1788 4600 
Q 2447 4600 2831 4234 
Q 3216 3869 3216 3328 
Q 3216 3053 3103 2787 
Q 2991 2522 2730 2228 
Q 2469 1934 1863 1422 
Q 1356 997 1212 845 
Q 1069 694 975 541 
L 3222 541 
z
" transform="scale(0.015625)"/>
       </defs>
       <use xlink:href="#ArialMT-32"/>
       <use xlink:href="#ArialMT-30" x="55.615234"/>
      </g>
     </g>
    </g>
    <g id="xtick_4">
     <g id="line2d_4">
      <g>
       <use xlink:href="#m070d8b4116" x="256.906205" y="286.1835" style="fill: #262626; stroke: #262626"/>
      </g>
     </g>
     <g id="text_4">
      <!-- 30 -->
      <g style="fill: #262626" transform="translate(252.01258 300.782375) scale(0.088 -0.088)">
       <defs>
        <path id="ArialMT-33" d="M 269 1209 
L 831 1284 
Q 928 806 1161 595 
Q 1394 384 1728 384 
Q 2125 384 2398 659 
Q 2672 934 2672 1341 
Q 2672 1728 2419 1979 
Q 2166 2231 1775 2231 
Q 1616 2231 1378 2169 
L 1441 2663 
Q 1497 2656 1531 2656 
Q 1891 2656 2178 2843 
Q 2466 3031 2466 3422 
Q 2466 3731 2256 3934 
Q 2047 4138 1716 4138 
Q 1388 4138 1169 3931 
Q 950 3725 888 3313 
L 325 3413 
Q 428 3978 793 4289 
Q 1159 4600 1703 4600 
Q 2078 4600 2393 4439 
Q 2709 4278 2876 4000 
Q 3044 3722 3044 3409 
Q 3044 3113 2884 2869 
Q 2725 2625 2413 2481 
Q 2819 2388 3044 2092 
Q 3269 1797 3269 1353 
Q 3269 753 2831 336 
Q 2394 -81 1725 -81 
Q 1122 -81 723 278 
Q 325 638 269 1209 
z
" transform="scale(0.015625)"/>
       </defs>
       <use xlink:href="#ArialMT-33"/>
       <use xlink:href="#ArialMT-30" x="55.615234"/>
      </g>
     </g>
    </g>
    <g id="xtick_5">
     <g id="line2d_5">
      <g>
       <use xlink:href="#m070d8b4116" x="321.837114" y="286.1835" style="fill: #262626; stroke: #262626"/>
      </g>
     </g>
     <g id="text_5">
      <!-- 40 -->
      <g style="fill: #262626" transform="translate(316.943489 300.782375) scale(0.088 -0.088)">
       <defs>
        <path id="ArialMT-34" d="M 2069 0 
L 2069 1097 
L 81 1097 
L 81 1613 
L 2172 4581 
L 2631 4581 
L 2631 1613 
L 3250 1613 
L 3250 1097 
L 2631 1097 
L 2631 0 
L 2069 0 
z
M 2069 1613 
L 2069 3678 
L 634 1613 
L 2069 1613 
z
" transform="scale(0.015625)"/>
       </defs>
       <use xlink:href="#ArialMT-34"/>
       <use xlink:href="#ArialMT-30" x="55.615234"/>
      </g>
     </g>
    </g>
    <g id="xtick_6">
     <g id="line2d_6">
      <g>
       <use xlink:href="#m070d8b4116" x="386.768023" y="286.1835" style="fill: #262626; stroke: #262626"/>
      </g>
     </g>
     <g id="text_6">
      <!-- 50 -->
      <g style="fill: #262626" transform="translate(381.874398 300.782375) scale(0.088 -0.088)">
       <defs>
        <path id="ArialMT-35" d="M 266 1200 
L 856 1250 
Q 922 819 1161 601 
Q 1400 384 1738 384 
Q 2144 384 2425 690 
Q 2706 997 2706 1503 
Q 2706 1984 2436 2262 
Q 2166 2541 1728 2541 
Q 1456 2541 1237 2417 
Q 1019 2294 894 2097 
L 366 2166 
L 809 4519 
L 3088 4519 
L 3088 3981 
L 1259 3981 
L 1013 2750 
Q 1425 3038 1878 3038 
Q 2478 3038 2890 2622 
Q 3303 2206 3303 1553 
Q 3303 931 2941 478 
Q 2500 -78 1738 -78 
Q 1113 -78 717 272 
Q 322 622 266 1200 
z
" transform="scale(0.015625)"/>
       </defs>
       <use xlink:href="#ArialMT-35"/>
       <use xlink:href="#ArialMT-30" x="55.615234"/>
      </g>
     </g>
    </g>
    <g id="text_7">
     <!-- t -->
     <g style="fill: #262626" transform="translate(223.10725 313.402875) scale(0.096 -0.096)">
      <defs>
       <path id="ArialMT-74" d="M 1650 503 
L 1731 6 
Q 1494 -44 1306 -44 
Q 1000 -44 831 53 
Q 663 150 594 308 
Q 525 466 525 972 
L 525 2881 
L 113 2881 
L 113 3319 
L 525 3319 
L 525 4141 
L 1084 4478 
L 1084 3319 
L 1650 3319 
L 1650 2881 
L 1084 2881 
L 1084 941 
Q 1084 700 1114 631 
Q 1144 563 1211 522 
Q 1278 481 1403 481 
Q 1497 481 1650 503 
z
" transform="scale(0.015625)"/>
      </defs>
      <use xlink:href="#ArialMT-74"/>
     </g>
    </g>
   </g>
   <g id="matplotlib.axis_2">
    <g id="ytick_1">
     <g id="line2d_7">
      <defs>
       <path id="m0a1dfb1200" d="M 0 0 
L -4.8 0 
" style="stroke: #262626"/>
      </defs>
      <g>
       <use xlink:href="#m0a1dfb1200" x="45.88075" y="284.568159" style="fill: #262626; stroke: #262626"/>
      </g>
     </g>
     <g id="text_8">
      <!-- −0.8 -->
      <g style="fill: #262626" transform="translate(20.209 287.717597) scale(0.088 -0.088)">
       <defs>
        <path id="ArialMT-2212" d="M 3381 1997 
L 356 1997 
L 356 2522 
L 3381 2522 
L 3381 1997 
z
" transform="scale(0.015625)"/>
        <path id="ArialMT-2e" d="M 581 0 
L 581 641 
L 1222 641 
L 1222 0 
L 581 0 
z
" transform="scale(0.015625)"/>
        <path id="ArialMT-38" d="M 1131 2484 
Q 781 2613 612 2850 
Q 444 3088 444 3419 
Q 444 3919 803 4259 
Q 1163 4600 1759 4600 
Q 2359 4600 2725 4251 
Q 3091 3903 3091 3403 
Q 3091 3084 2923 2848 
Q 2756 2613 2416 2484 
Q 2838 2347 3058 2040 
Q 3278 1734 3278 1309 
Q 3278 722 2862 322 
Q 2447 -78 1769 -78 
Q 1091 -78 675 323 
Q 259 725 259 1325 
Q 259 1772 486 2073 
Q 713 2375 1131 2484 
z
M 1019 3438 
Q 1019 3113 1228 2906 
Q 1438 2700 1772 2700 
Q 2097 2700 2305 2904 
Q 2513 3109 2513 3406 
Q 2513 3716 2298 3927 
Q 2084 4138 1766 4138 
Q 1444 4138 1231 3931 
Q 1019 3725 1019 3438 
z
M 838 1322 
Q 838 1081 952 856 
Q 1066 631 1291 507 
Q 1516 384 1775 384 
Q 2178 384 2440 643 
Q 2703 903 2703 1303 
Q 2703 1709 2433 1975 
Q 2163 2241 1756 2241 
Q 1359 2241 1098 1978 
Q 838 1716 838 1322 
z
" transform="scale(0.015625)"/>
       </defs>
       <use xlink:href="#ArialMT-2212"/>
       <use xlink:href="#ArialMT-30" x="58.398438"/>
       <use xlink:href="#ArialMT-2e" x="114.013672"/>
       <use xlink:href="#ArialMT-38" x="141.796875"/>
      </g>
     </g>
    </g>
    <g id="ytick_2">
     <g id="line2d_8">
      <g>
       <use xlink:href="#m0a1dfb1200" x="45.88075" y="252.53283" style="fill: #262626; stroke: #262626"/>
      </g>
     </g>
     <g id="text_9">
      <!-- −0.6 -->
      <g style="fill: #262626" transform="translate(20.209 255.682267) scale(0.088 -0.088)">
       <defs>
        <path id="ArialMT-36" d="M 3184 3459 
L 2625 3416 
Q 2550 3747 2413 3897 
Q 2184 4138 1850 4138 
Q 1581 4138 1378 3988 
Q 1113 3794 959 3422 
Q 806 3050 800 2363 
Q 1003 2672 1297 2822 
Q 1591 2972 1913 2972 
Q 2475 2972 2870 2558 
Q 3266 2144 3266 1488 
Q 3266 1056 3080 686 
Q 2894 316 2569 119 
Q 2244 -78 1831 -78 
Q 1128 -78 684 439 
Q 241 956 241 2144 
Q 241 3472 731 4075 
Q 1159 4600 1884 4600 
Q 2425 4600 2770 4297 
Q 3116 3994 3184 3459 
z
M 888 1484 
Q 888 1194 1011 928 
Q 1134 663 1356 523 
Q 1578 384 1822 384 
Q 2178 384 2434 671 
Q 2691 959 2691 1453 
Q 2691 1928 2437 2201 
Q 2184 2475 1800 2475 
Q 1419 2475 1153 2201 
Q 888 1928 888 1484 
z
" transform="scale(0.015625)"/>
       </defs>
       <use xlink:href="#ArialMT-2212"/>
       <use xlink:href="#ArialMT-30" x="58.398438"/>
       <use xlink:href="#ArialMT-2e" x="114.013672"/>
       <use xlink:href="#ArialMT-36" x="141.796875"/>
      </g>
     </g>
    </g>
    <g id="ytick_3">
     <g id="line2d_9">
      <g>
       <use xlink:href="#m0a1dfb1200" x="45.88075" y="220.4975" style="fill: #262626; stroke: #262626"/>
      </g>
     </g>
     <g id="text_10">
      <!-- −0.4 -->
      <g style="fill: #262626" transform="translate(20.209 223.646938) scale(0.088 -0.088)">
       <use xlink:href="#ArialMT-2212"/>
       <use xlink:href="#ArialMT-30" x="58.398438"/>
       <use xlink:href="#ArialMT-2e" x="114.013672"/>
       <use xlink:href="#ArialMT-34" x="141.796875"/>
      </g>
     </g>
    </g>
    <g id="ytick_4">
     <g id="line2d_10">
      <g>
       <use xlink:href="#m0a1dfb1200" x="45.88075" y="188.462171" style="fill: #262626; stroke: #262626"/>
      </g>
     </g>
     <g id="text_11">
      <!-- −0.2 -->
      <g style="fill: #262626" transform="translate(20.209 191.611608) scale(0.088 -0.088)">
       <use xlink:href="#ArialMT-2212"/>
       <use xlink:href="#ArialMT-30" x="58.398438"/>
       <use xlink:href="#ArialMT-2e" x="114.013672"/>
       <use xlink:href="#ArialMT-32" x="141.796875"/>
      </g>
     </g>
    </g>
    <g id="ytick_5">
     <g id="line2d_11">
      <g>
       <use xlink:href="#m0a1dfb1200" x="45.88075" y="156.426842" style="fill: #262626; stroke: #262626"/>
      </g>
     </g>
     <g id="text_12">
      <!-- 0.0 -->
      <g style="fill: #262626" transform="translate(25.34875 159.576279) scale(0.088 -0.088)">
       <use xlink:href="#ArialMT-30"/>
       <use xlink:href="#ArialMT-2e" x="55.615234"/>
       <use xlink:href="#ArialMT-30" x="83.398438"/>
      </g>
     </g>
    </g>
    <g id="ytick_6">
     <g id="line2d_12">
      <g>
       <use xlink:href="#m0a1dfb1200" x="45.88075" y="124.391512" style="fill: #262626; stroke: #262626"/>
      </g>
     </g>
     <g id="text_13">
      <!-- 0.2 -->
      <g style="fill: #262626" transform="translate(25.34875 127.54095) scale(0.088 -0.088)">
       <use xlink:href="#ArialMT-30"/>
       <use xlink:href="#ArialMT-2e" x="55.615234"/>
       <use xlink:href="#ArialMT-32" x="83.398438"/>
      </g>
     </g>
    </g>
    <g id="ytick_7">
     <g id="line2d_13">
      <g>
       <use xlink:href="#m0a1dfb1200" x="45.88075" y="92.356183" style="fill: #262626; stroke: #262626"/>
      </g>
     </g>
     <g id="text_14">
      <!-- 0.4 -->
      <g style="fill: #262626" transform="translate(25.34875 95.50562) scale(0.088 -0.088)">
       <use xlink:href="#ArialMT-30"/>
       <use xlink:href="#ArialMT-2e" x="55.615234"/>
       <use xlink:href="#ArialMT-34" x="83.398438"/>
      </g>
     </g>
    </g>
    <g id="ytick_8">
     <g id="line2d_14">
      <g>
       <use xlink:href="#m0a1dfb1200" x="45.88075" y="60.320853" style="fill: #262626; stroke: #262626"/>
      </g>
     </g>
     <g id="text_15">
      <!-- 0.6 -->
      <g style="fill: #262626" transform="translate(25.34875 63.470291) scale(0.088 -0.088)">
       <use xlink:href="#ArialMT-30"/>
       <use xlink:href="#ArialMT-2e" x="55.615234"/>
       <use xlink:href="#ArialMT-36" x="83.398438"/>
      </g>
     </g>
    </g>
    <g id="ytick_9">
     <g id="line2d_15">
      <g>
       <use xlink:href="#m0a1dfb1200" x="45.88075" y="28.285524" style="fill: #262626; stroke: #262626"/>
      </g>
     </g>
     <g id="text_16">
      <!-- 0.8 -->
      <g style="fill: #262626" transform="translate(25.34875 31.434961) scale(0.088 -0.088)">
       <use xlink:href="#ArialMT-30"/>
       <use xlink:href="#ArialMT-2e" x="55.615234"/>
       <use xlink:href="#ArialMT-38" x="83.398438"/>
      </g>
     </g>
    </g>
    <g id="text_17">
     <!-- x(t), v(t) -->
     <g style="fill: #262626" transform="translate(14.1885 169.6545) rotate(-90) scale(0.096 -0.096)">
      <defs>
       <path id="ArialMT-78" d="M 47 0 
L 1259 1725 
L 138 3319 
L 841 3319 
L 1350 2541 
Q 1494 2319 1581 2169 
Q 1719 2375 1834 2534 
L 2394 3319 
L 3066 3319 
L 1919 1756 
L 3153 0 
L 2463 0 
L 1781 1031 
L 1600 1309 
L 728 0 
L 47 0 
z
" transform="scale(0.015625)"/>
       <path id="ArialMT-28" d="M 1497 -1347 
Q 1031 -759 709 28 
Q 388 816 388 1659 
Q 388 2403 628 3084 
Q 909 3875 1497 4659 
L 1900 4659 
Q 1522 4009 1400 3731 
Q 1209 3300 1100 2831 
Q 966 2247 966 1656 
Q 966 153 1900 -1347 
L 1497 -1347 
z
" transform="scale(0.015625)"/>
       <path id="ArialMT-29" d="M 791 -1347 
L 388 -1347 
Q 1322 153 1322 1656 
Q 1322 2244 1188 2822 
Q 1081 3291 891 3722 
Q 769 4003 388 4659 
L 791 4659 
Q 1378 3875 1659 3084 
Q 1900 2403 1900 1659 
Q 1900 816 1576 28 
Q 1253 -759 791 -1347 
z
" transform="scale(0.015625)"/>
       <path id="ArialMT-2c" d="M 569 0 
L 569 641 
L 1209 641 
L 1209 0 
Q 1209 -353 1084 -570 
Q 959 -788 688 -906 
L 531 -666 
Q 709 -588 793 -436 
Q 878 -284 888 0 
L 569 0 
z
" transform="scale(0.015625)"/>
       <path id="ArialMT-20" transform="scale(0.015625)"/>
       <path id="ArialMT-76" d="M 1344 0 
L 81 3319 
L 675 3319 
L 1388 1331 
Q 1503 1009 1600 663 
Q 1675 925 1809 1294 
L 2547 3319 
L 3125 3319 
L 1869 0 
L 1344 0 
z
" transform="scale(0.015625)"/>
      </defs>
      <use xlink:href="#ArialMT-78"/>
      <use xlink:href="#ArialMT-28" x="50"/>
      <use xlink:href="#ArialMT-74" x="83.300781"/>
      <use xlink:href="#ArialMT-29" x="111.083984"/>
      <use xlink:href="#ArialMT-2c" x="144.384766"/>
      <use xlink:href="#ArialMT-20" x="172.167969"/>
      <use xlink:href="#ArialMT-76" x="199.951172"/>
      <use xlink:href="#ArialMT-28" x="249.951172"/>
      <use xlink:href="#ArialMT-74" x="283.251953"/>
      <use xlink:href="#ArialMT-29" x="311.035156"/>
     </g>
    </g>
   </g>
   <g id="line2d_16">
    <path d="M 62.113477 156.426842 
L 62.764088 156.130812 
L 63.414698 155.252589 
L 64.065308 153.81562 
L 64.715918 151.854531 
L 66.017139 146.5514 
L 67.31836 139.824191 
L 71.222021 117.985387 
L 71.872632 115.195686 
L 72.523242 112.941556 
L 73.173853 111.322697 
L 73.824463 110.426256 
L 74.475073 110.322892 
L 75.125684 111.063761 
L 75.776294 112.678968 
L 76.426905 115.177542 
L 77.077515 118.549063 
L 77.728124 122.766552 
L 79.029345 133.571114 
L 80.330565 147.181539 
L 81.631786 163.111515 
L 83.583617 189.99712 
L 85.535449 217.365323 
L 86.836669 232.943955 
L 87.48728 239.029477 
L 88.13789 243.561997 
L 88.788499 246.280774 
L 89.439111 247.007598 
L 90.08972 245.670942 
L 90.740332 242.313768 
L 91.390941 237.08234 
L 92.041553 230.199162 
L 93.34277 212.537711 
L 94.643991 191.351739 
L 97.246433 143.739865 
L 100.499486 83.422078 
L 101.800707 64.518871 
L 102.451316 57.739763 
L 103.101928 53.285675 
L 103.752537 51.436778 
L 104.403146 52.304893 
L 105.053758 55.81046 
L 105.704366 61.69791 
L 106.354978 69.584014 
L 107.656199 89.569152 
L 114.162303 201.094074 
L 115.463521 218.789265 
L 116.764745 232.586076 
L 117.415351 237.533048 
L 118.065963 240.95056 
L 118.716574 242.729322 
L 119.367186 242.833769 
L 120.017792 241.311132 
L 120.668404 238.288285 
L 121.319016 233.957489 
L 122.620234 222.333833 
L 124.572063 201.166409 
L 126.523899 180.053531 
L 127.825117 167.448566 
L 129.126341 156.436647 
L 130.427559 147.1047 
L 131.728782 139.40464 
L 133.03 133.205293 
L 134.331224 128.318951 
L 135.632442 124.518941 
L 136.93366 121.556788 
L 138.234883 119.183479 
L 140.186713 116.248407 
L 143.439767 111.941718 
L 145.391596 109.735549 
L 146.692814 108.723467 
L 147.343426 108.443965 
L 147.994038 108.360112 
L 148.64465 108.505755 
L 149.295256 108.913772 
L 149.945868 109.614924 
L 150.596479 110.636959 
L 151.247091 112.003871 
L 151.897697 113.735407 
L 152.548309 115.846987 
L 153.849533 121.250526 
L 155.150751 128.25794 
L 156.451968 136.865363 
L 157.753192 147.03505 
L 159.05441 158.692773 
L 161.006246 178.620469 
L 164.909905 221.010777 
L 166.211129 231.875067 
L 166.861741 235.797697 
L 167.512341 238.457825 
L 168.162953 239.714723 
L 168.813565 239.488243 
L 169.464176 237.767557 
L 170.114788 234.61046 
L 170.7654 230.133267 
L 171.416012 224.493947 
L 172.717224 210.450563 
L 174.66906 184.955265 
L 177.271495 147.171579 
L 180.524555 99.393581 
L 181.825779 82.970741 
L 182.476378 76.190841 
L 183.12699 70.720664 
L 183.777602 66.80382 
L 184.428214 64.627748 
L 185.078826 64.296114 
L 185.729438 65.812211 
L 186.38005 69.077884 
L 187.03065 73.908088 
L 188.331873 87.253494 
L 190.283709 112.522202 
L 194.187369 165.168728 
L 196.139205 188.979013 
L 197.440416 203.212103 
L 198.74164 215.451467 
L 200.042864 224.875207 
L 200.693476 228.264217 
L 201.344088 230.654209 
L 201.994687 231.990861 
L 202.645299 232.256323 
L 203.295911 231.472664 
L 203.946523 229.701253 
L 204.597135 227.037497 
L 205.247747 223.602365 
L 206.548971 214.967655 
L 208.500794 199.613483 
L 211.753842 173.870253 
L 213.705678 160.055753 
L 216.308125 143.407982 
L 220.211785 120.357276 
L 222.163608 109.711237 
L 223.464832 103.432865 
L 224.766056 98.281983 
L 225.416668 96.273532 
L 226.06728 94.717389 
L 226.717879 93.662091 
L 227.368491 93.146705 
L 228.019103 93.198504 
L 228.669715 93.831445 
L 229.320327 95.045543 
L 229.970939 96.827704 
L 230.621551 99.153333 
L 231.922763 105.294707 
L 233.223987 113.148112 
L 234.52521 122.389706 
L 236.477034 138.314299 
L 238.42887 156.291795 
L 241.031305 182.882495 
L 244.284365 216.586466 
L 245.585589 227.484935 
L 246.236188 231.72359 
L 246.8868 234.928843 
L 247.537412 236.961634 
L 248.188024 237.725597 
L 248.838636 237.177612 
L 249.489248 235.332244 
L 250.13986 232.258619 
L 250.79046 228.071009 
L 252.091684 216.948017 
L 253.392907 203.213908 
L 255.344743 180.003007 
L 261.850838 99.391648 
L 263.152062 86.431842 
L 263.802674 81.203359 
L 264.453286 77.050195 
L 265.103898 74.128725 
L 265.754497 72.554094 
L 266.405109 72.385059 
L 267.055721 73.616046 
L 267.706333 76.177169 
L 268.356945 79.942957 
L 269.007557 84.747564 
L 270.308781 96.717318 
L 272.260617 117.912811 
L 276.164264 161.375776 
L 278.766712 187.955875 
L 280.718547 205.590825 
L 282.019771 215.421623 
L 283.32097 222.936806 
L 283.971582 225.613197 
L 284.622194 227.476462 
L 285.272806 228.482773 
L 285.923418 228.614817 
L 286.57403 227.884159 
L 287.224642 226.33078 
L 287.875254 224.019605 
L 288.525866 221.034979 
L 289.82709 213.437485 
L 291.128314 204.334772 
L 294.381349 179.054079 
L 302.839279 112.898155 
L 304.791115 99.39212 
L 306.092339 92.305968 
L 306.742951 89.614711 
L 307.393563 87.60534 
L 308.044175 86.346207 
L 308.694787 85.884969 
L 309.345399 86.244758 
L 309.996011 87.422471 
L 310.646623 89.389663 
L 311.297235 92.095909 
L 311.947822 95.473777 
L 313.249046 103.929165 
L 314.55027 114.115599 
L 316.502106 131.481698 
L 319.104553 156.9586 
L 324.960036 216.880632 
L 326.26126 227.11052 
L 326.911872 231.02039 
L 327.562484 233.931124 
L 328.213096 235.726928 
L 328.863708 236.3319 
L 329.51432 235.718507 
L 330.164932 233.910507 
L 330.815544 230.979389 
L 331.466156 227.035569 
L 332.767355 216.668835 
L 334.068579 203.975431 
L 336.671026 175.351196 
L 342.526509 109.525428 
L 343.827733 96.830124 
L 345.128957 86.461691 
L 345.779569 82.505736 
L 346.430181 79.545552 
L 347.080793 77.683695 
L 347.731405 76.984372 
L 348.382017 77.465602 
L 349.032629 79.096687 
L 349.683241 81.801548 
L 350.333853 85.467257 
L 351.635052 95.117554 
L 352.936276 106.874427 
L 356.189335 139.488299 
L 360.093007 177.855734 
L 362.69543 201.386598 
L 363.996654 211.665444 
L 365.297878 220.130819 
L 365.94849 223.449551 
L 366.599102 226.040643 
L 367.249714 227.831811 
L 367.900326 228.772218 
L 368.550938 228.837564 
L 369.20155 228.032738 
L 369.852162 226.391486 
L 370.502774 223.973119 
L 371.153361 220.857209 
L 372.454585 212.907854 
L 373.755809 203.312349 
L 376.358256 181.680703 
L 381.563127 135.775097 
L 384.816187 107.316394 
L 386.117411 97.373054 
L 386.768023 93.075974 
L 386.768023 93.075974 
" clip-path="url(#p8e0b71d6bf)" style="fill: none; stroke: #1f77b4; stroke-width: 1.2; stroke-linecap: round"/>
   </g>
   <g id="line2d_17">
    <path d="M 62.113477 156.426842 
L 64.065308 139.403869 
L 65.366529 129.863812 
L 66.017139 125.947789 
L 66.667749 122.727324 
L 67.31836 120.291221 
L 67.96897 118.723635 
L 68.619581 118.103079 
L 69.270191 118.499787 
L 69.920801 119.971332 
L 70.571411 122.556471 
L 71.222021 126.267732 
L 71.872632 131.083904 
L 73.173853 143.743113 
L 74.475073 159.540083 
L 78.378734 210.428681 
L 79.679955 224.443384 
L 80.981176 236.036622 
L 81.631786 240.793269 
L 82.282397 244.711622 
L 82.933007 247.601219 
L 83.583617 249.189646 
L 84.234228 249.121202 
L 84.884838 246.973753 
L 85.535449 242.300001 
L 86.186059 234.69747 
L 86.836669 223.903118 
L 87.48728 209.897003 
L 88.788499 173.833944 
L 91.390941 95.558408 
L 92.041553 80.351656 
L 92.692161 67.858545 
L 93.34277 57.982656 
L 93.993382 50.399658 
L 94.643991 44.671629 
L 95.294603 40.353331 
L 95.945212 37.077576 
L 96.595824 34.617034 
L 97.246433 32.92625 
L 97.897045 32.1675 
L 98.547654 32.72022 
L 99.198266 35.167702 
L 99.848874 40.247175 
L 100.499486 48.74861 
L 101.150095 61.352604 
L 101.800707 78.421666 
L 103.101928 124.635168 
L 105.053758 203.849651 
L 105.704366 225.868935 
L 106.354978 243.638795 
L 107.005587 256.866216 
L 107.656199 265.824135 
L 108.306808 271.152564 
L 108.95742 273.646884 
L 109.608029 274.0875 
L 110.258641 273.130367 
L 110.90925 271.252619 
L 111.559862 268.737457 
L 112.21047 265.682721 
L 112.861082 262.022851 
L 113.511691 257.559673 
L 114.162303 252.001977 
L 114.812909 245.016629 
L 115.463521 236.291325 
L 116.114133 225.608543 
L 117.415351 198.400612 
L 120.668404 119.368322 
L 121.319016 107.439344 
L 121.969628 97.997173 
L 122.620234 91.112778 
L 123.270846 86.65741 
L 123.921458 84.364786 
L 124.572063 83.895184 
L 125.222675 84.889551 
L 125.873287 87.007609 
L 126.523899 89.949763 
L 127.825117 97.355401 
L 132.379388 125.531384 
L 133.680612 132.091594 
L 134.98183 137.516918 
L 136.283054 141.698014 
L 136.93366 143.31618 
L 137.584271 144.631417 
L 138.234883 145.662727 
L 138.885495 146.437147 
L 139.536101 146.98938 
L 140.186713 147.36112 
L 141.487937 147.758913 
L 142.789155 148.061824 
L 143.439767 148.321542 
L 144.090379 148.728644 
L 144.740984 149.33519 
L 145.391596 150.187494 
L 146.042208 151.324154 
L 146.692814 152.774449 
L 147.343426 154.557072 
L 148.64465 159.136346 
L 149.945868 164.982333 
L 151.247091 171.858853 
L 153.849533 187.378578 
L 157.753192 210.968006 
L 159.705022 221.367186 
L 161.006246 226.705119 
L 161.656852 228.473789 
L 162.307464 229.357451 
L 162.958076 229.092314 
L 163.608688 227.389233 
L 164.259293 223.959213 
L 164.909905 218.55149 
L 165.560517 211.001851 
L 166.211129 201.284151 
L 167.512341 176.161146 
L 170.7654 105.657814 
L 171.416012 94.937573 
L 172.066624 86.053144 
L 172.717224 78.944035 
L 173.367836 73.41965 
L 174.018448 69.216243 
L 174.66906 66.04991 
L 175.319672 63.660963 
L 175.970284 61.847 
L 176.620896 60.485864 
L 177.271495 59.550776 
L 177.922107 59.11901 
L 178.572719 59.375001 
L 179.223331 60.605005 
L 179.873943 63.180439 
L 180.524555 67.524123 
L 181.175167 74.055154 
L 181.825779 83.112203 
L 182.476378 94.862603 
L 183.777602 125.773262 
L 186.38005 197.193412 
L 187.03065 211.659243 
L 187.681262 223.483616 
L 188.331873 232.536817 
L 188.982485 238.957195 
L 189.633097 243.06847 
L 190.283709 245.289547 
L 190.934321 246.057702 
L 191.584933 245.772811 
L 192.235533 244.764333 
L 192.886145 243.275684 
L 194.187369 239.392178 
L 195.488593 234.402626 
L 196.139205 231.292927 
L 196.789816 227.579143 
L 197.440416 223.093228 
L 198.091028 217.676774 
L 199.392252 203.631257 
L 200.693476 185.3812 
L 203.946523 134.112148 
L 205.247747 118.74092 
L 205.898359 113.106113 
L 206.548971 108.870561 
L 207.19957 105.950757 
L 207.850182 104.203683 
L 208.500794 103.451219 
L 209.151406 103.501075 
L 209.802018 104.163207 
L 210.45263 105.261292 
L 211.753842 108.164989 
L 213.705678 112.662179 
L 215.006902 115.010866 
L 216.308125 116.647063 
L 217.609337 117.691759 
L 219.561173 118.937193 
L 220.211785 119.534251 
L 220.862397 120.356484 
L 221.512996 121.489215 
L 222.163608 123.015289 
L 222.81422 125.009561 
L 223.464832 127.532987 
L 224.115444 130.626372 
L 225.416668 138.552457 
L 226.717879 148.533027 
L 231.272151 187.141614 
L 232.573375 195.684215 
L 233.874598 202.596629 
L 235.175822 208.213828 
L 237.127646 215.197906 
L 239.079482 221.235945 
L 240.380706 224.404727 
L 241.031305 225.432973 
L 241.681917 225.866176 
L 242.332529 225.489861 
L 242.983141 224.063131 
L 243.633753 221.336401 
L 244.284365 217.078174 
L 244.934977 211.110079 
L 245.585589 203.3465 
L 246.8868 182.764794 
L 250.79046 109.539238 
L 251.441072 100.653062 
L 252.091684 93.383363 
L 252.742295 87.663048 
L 253.392907 83.325264 
L 254.043519 80.145321 
L 254.694131 77.879863 
L 255.344743 76.298658 
L 255.995343 75.208064 
L 256.645955 74.466489 
L 257.296567 73.994004 
L 257.947179 73.7775 
L 258.597791 73.872572 
L 259.248403 74.40256 
L 259.899015 75.553474 
L 260.549614 77.563576 
L 261.200226 80.704796 
L 261.850838 85.254138 
L 262.50145 91.4547 
L 263.152062 99.468298 
L 263.802674 109.326868 
L 265.103898 133.842533 
L 267.706333 188.246129 
L 269.007557 208.944238 
L 269.658169 216.470514 
L 270.308781 222.112551 
L 270.959393 226.038829 
L 271.610005 228.498106 
L 272.260617 229.773999 
L 272.911204 230.148218 
L 273.561816 229.874698 
L 274.212428 229.164233 
L 275.513652 227.021009 
L 276.814876 224.384315 
L 278.1161 221.17595 
L 278.766712 219.168597 
L 279.417324 216.738845 
L 280.067935 213.755223 
L 280.718547 210.088559 
L 281.369159 205.627716 
L 282.670358 194.071051 
L 283.971582 179.172518 
L 287.875254 129.847856 
L 289.176478 118.345145 
L 289.82709 114.114477 
L 290.477702 110.857459 
L 291.128314 108.481243 
L 291.778926 106.861615 
L 292.429513 105.858416 
L 293.080125 105.328461 
L 293.730737 105.135745 
L 294.381349 105.158396 
L 296.983797 105.660434 
L 298.285021 105.558331 
L 300.236856 105.251467 
L 300.887468 105.373372 
L 301.53808 105.773899 
L 302.188667 106.575397 
L 302.839279 107.908215 
L 303.489891 109.90233 
L 304.140503 112.676758 
L 304.791115 116.326809 
L 305.441727 120.910065 
L 306.742951 132.842573 
L 308.044175 147.782328 
L 310.646623 179.847088 
L 311.947822 193.237514 
L 313.249046 203.454379 
L 313.899658 207.373458 
L 314.55027 210.594732 
L 315.200882 213.224533 
L 316.502106 217.175132 
L 317.803329 220.074839 
L 319.104553 222.457996 
L 320.405777 224.361273 
L 321.056389 224.980967 
L 321.707001 225.218155 
L 322.357588 224.903615 
L 323.0082 223.836034 
L 323.658812 221.793787 
L 324.309424 218.553557 
L 324.960036 213.916371 
L 325.610648 207.739768 
L 326.26126 199.97194 
L 327.562484 180.075485 
L 331.466156 112.453844 
L 332.116743 104.444957 
L 332.767355 97.938691 
L 333.417967 92.871935 
L 334.068579 89.093998 
L 334.719191 86.402121 
L 335.369803 84.57431 
L 336.020415 83.3961 
L 336.671026 82.680079 
L 337.321638 82.27864 
L 337.97225 82.091637 
L 338.622862 82.070199 
L 339.273474 82.217991 
L 339.924086 82.590707 
L 340.574698 83.293696 
L 341.22531 84.477061 
L 341.875897 86.326955 
L 342.526509 89.052353 
L 343.177121 92.864669 
L 343.827733 97.951685 
L 344.478345 104.445897 
L 345.128957 112.391848 
L 346.430181 132.222905 
L 349.683241 188.428851 
L 350.984465 204.835168 
L 351.635052 210.799096 
L 352.285664 215.311805 
L 352.936276 218.516342 
L 353.586888 220.608021 
L 354.2375 221.804122 
L 354.888112 222.319584 
L 355.538723 222.349476 
L 356.189335 222.057989 
L 357.490559 220.981047 
L 358.791783 219.638748 
L 360.093007 217.982082 
L 360.743619 216.874861 
L 361.394206 215.441266 
L 362.044818 213.551932 
L 362.69543 211.069179 
L 363.346042 207.858894 
L 363.996654 203.805414 
L 364.647266 198.828125 
L 365.94849 186.05164 
L 367.249714 170.121181 
L 369.852162 136.051836 
L 371.153361 122.148237 
L 371.803973 116.595073 
L 372.454585 112.0271 
L 373.105197 108.402898 
L 373.755809 105.63269 
L 374.40642 103.594849 
L 375.057032 102.151869 
L 375.707644 101.164037 
L 376.358256 100.500277 
L 377.65948 99.707352 
L 380.912515 98.300352 
L 381.563127 98.171206 
L 382.213739 98.254157 
L 382.864351 98.670409 
L 383.514963 99.561546 
L 384.165575 101.082522 
L 384.816187 103.39121 
L 385.466799 106.634118 
L 386.117411 110.928886 
L 386.768023 116.344858 
L 386.768023 116.344858 
" clip-path="url(#p8e0b71d6bf)" style="fill: none; stroke: #ff7f0e; stroke-width: 1.2; stroke-linecap: round"/>
   </g>
   <g id="patch_3">
    <path d="M 45.88075 284.568159 
L 45.88075 28.285524 
" style="fill: none; stroke: #262626; stroke-linejoin: miter; stroke-linecap: square"/>
   </g>
   <g id="patch_4">
    <path d="M 62.113477 286.1835 
L 386.768023 286.1835 
" style="fill: none; stroke: #262626; stroke-linejoin: miter; stroke-linecap: square"/>
   </g>
   <g id="text_18">
    <!-- Solution -->
    <g style="fill: #262626" transform="translate(207.0955 14.0715) scale(0.096 -0.096)">
     <defs>
      <path id="ArialMT-53" d="M 288 1472 
L 859 1522 
Q 900 1178 1048 958 
Q 1197 738 1509 602 
Q 1822 466 2213 466 
Q 2559 466 2825 569 
Q 3091 672 3220 851 
Q 3350 1031 3350 1244 
Q 3350 1459 3225 1620 
Q 3100 1781 2813 1891 
Q 2628 1963 1997 2114 
Q 1366 2266 1113 2400 
Q 784 2572 623 2826 
Q 463 3081 463 3397 
Q 463 3744 659 4045 
Q 856 4347 1234 4503 
Q 1613 4659 2075 4659 
Q 2584 4659 2973 4495 
Q 3363 4331 3572 4012 
Q 3781 3694 3797 3291 
L 3216 3247 
Q 3169 3681 2898 3903 
Q 2628 4125 2100 4125 
Q 1550 4125 1298 3923 
Q 1047 3722 1047 3438 
Q 1047 3191 1225 3031 
Q 1400 2872 2139 2705 
Q 2878 2538 3153 2413 
Q 3553 2228 3743 1945 
Q 3934 1663 3934 1294 
Q 3934 928 3725 604 
Q 3516 281 3123 101 
Q 2731 -78 2241 -78 
Q 1619 -78 1198 103 
Q 778 284 539 648 
Q 300 1013 288 1472 
z
" transform="scale(0.015625)"/>
      <path id="ArialMT-6f" d="M 213 1659 
Q 213 2581 725 3025 
Q 1153 3394 1769 3394 
Q 2453 3394 2887 2945 
Q 3322 2497 3322 1706 
Q 3322 1066 3130 698 
Q 2938 331 2570 128 
Q 2203 -75 1769 -75 
Q 1072 -75 642 372 
Q 213 819 213 1659 
z
M 791 1659 
Q 791 1022 1069 705 
Q 1347 388 1769 388 
Q 2188 388 2466 706 
Q 2744 1025 2744 1678 
Q 2744 2294 2464 2611 
Q 2184 2928 1769 2928 
Q 1347 2928 1069 2612 
Q 791 2297 791 1659 
z
" transform="scale(0.015625)"/>
      <path id="ArialMT-6c" d="M 409 0 
L 409 4581 
L 972 4581 
L 972 0 
L 409 0 
z
" transform="scale(0.015625)"/>
      <path id="ArialMT-75" d="M 2597 0 
L 2597 488 
Q 2209 -75 1544 -75 
Q 1250 -75 995 37 
Q 741 150 617 320 
Q 494 491 444 738 
Q 409 903 409 1263 
L 409 3319 
L 972 3319 
L 972 1478 
Q 972 1038 1006 884 
Q 1059 663 1231 536 
Q 1403 409 1656 409 
Q 1909 409 2131 539 
Q 2353 669 2445 892 
Q 2538 1116 2538 1541 
L 2538 3319 
L 3100 3319 
L 3100 0 
L 2597 0 
z
" transform="scale(0.015625)"/>
      <path id="ArialMT-69" d="M 425 3934 
L 425 4581 
L 988 4581 
L 988 3934 
L 425 3934 
z
M 425 0 
L 425 3319 
L 988 3319 
L 988 0 
L 425 0 
z
" transform="scale(0.015625)"/>
      <path id="ArialMT-6e" d="M 422 0 
L 422 3319 
L 928 3319 
L 928 2847 
Q 1294 3394 1984 3394 
Q 2284 3394 2536 3286 
Q 2788 3178 2913 3003 
Q 3038 2828 3088 2588 
Q 3119 2431 3119 2041 
L 3119 0 
L 2556 0 
L 2556 2019 
Q 2556 2363 2490 2533 
Q 2425 2703 2258 2804 
Q 2091 2906 1866 2906 
Q 1506 2906 1245 2678 
Q 984 2450 984 1813 
L 984 0 
L 422 0 
z
" transform="scale(0.015625)"/>
     </defs>
     <use xlink:href="#ArialMT-53"/>
     <use xlink:href="#ArialMT-6f" x="66.699219"/>
     <use xlink:href="#ArialMT-6c" x="122.314453"/>
     <use xlink:href="#ArialMT-75" x="144.53125"/>
     <use xlink:href="#ArialMT-74" x="200.146484"/>
     <use xlink:href="#ArialMT-69" x="227.929688"/>
     <use xlink:href="#ArialMT-6f" x="250.146484"/>
     <use xlink:href="#ArialMT-6e" x="305.761719"/>
    </g>
   </g>
   <g id="legend_1">
    <g id="line2d_18">
     <path d="M 366.04075 31.210375 
L 374.84075 31.210375 
L 383.64075 31.210375 
" style="fill: none; stroke: #1f77b4; stroke-width: 1.2; stroke-linecap: round"/>
    </g>
    <g id="text_19">
     <!-- x -->
     <g style="fill: #262626" transform="translate(390.68075 34.290375) scale(0.088 -0.088)">
      <use xlink:href="#ArialMT-78"/>
     </g>
    </g>
    <g id="line2d_19">
     <path d="M 366.04075 43.65825 
L 374.84075 43.65825 
L 383.64075 43.65825 
" style="fill: none; stroke: #ff7f0e; stroke-width: 1.2; stroke-linecap: round"/>
    </g>
    <g id="text_20">
     <!-- v -->
     <g style="fill: #262626" transform="translate(390.68075 46.73825) scale(0.088 -0.088)">
      <use xlink:href="#ArialMT-76"/>
     </g>
    </g>
   </g>
  </g>
 </g>
 <defs>
  <clipPath id="p8e0b71d6bf">
   <rect x="45.88075" y="20.0715" width="357.12" height="266.112"/>
  </clipPath>
 </defs>
</svg>