<?xml version="1.0" encoding="utf-8" standalone="no"?>
<!DOCTYPE svg PUBLIC "-//W3C//DTD SVG 1.1//EN"
  "http://www.w3.org/Graphics/SVG/1.1/DTD/svg11.dtd">
<svg xmlns:xlink="http://www.w3.org/1999/xlink" width="377.46135pt" height="300.009312pt" viewBox="0 0 377.46135 300.009312" xmlns="http://www.w3.org/2000/svg" version="1.1">
 <metadata>
  <rdf:RDF xmlns:dc="http://purl.org/dc/elements/1.1/" xmlns:cc="http://creativecommons.org/ns#" xmlns:rdf="http://www.w3.org/1999/02/22-rdf-syntax-ns#">
   <cc:Work>
    <dc:type rdf:resource="http://purl.org/dc/dcmitype/StillImage"/>
    <dc:date>2024-10-22T07:04:39.901372</dc:date>
    <dc:format>image/svg+xml</dc:format>
    <dc:creator>
     <cc:Agent>
      <dc:title>Matplotlib v3.9.2, https://matplotlib.org/</dc:title>
     </cc:Agent>
    </dc:creator>
   </cc:Work>
  </rdf:RDF>
 </metadata>
 <defs>
  <style type="text/css">*{stroke-linejoin: round; stroke-linecap: butt}</style>
 </defs>
 <g id="figure_1">
  <g id="patch_1">
   <path d="M 0 300.009312 
L 377.46135 300.009312 
L 377.46135 0 
L 0 0 
z
" style="fill: #ffffff"/>
  </g>
  <g id="axes_1">
   <g id="patch_2">
    <path d="M 27.732 276.461437 
L 313.428 276.461437 
L 313.428 10.349437 
L 27.732 10.349437 
z
" style="fill: #ffffff"/>
   </g>
   <g id="matplotlib.axis_1">
    <g id="xtick_1">
     <g id="line2d_1">
      <defs>
       <path id="mf50a1e355f" d="M 0 0 
L 0 4.8 
" style="stroke: #262626"/>
      </defs>
      <g>
       <use xlink:href="#mf50a1e355f" x="27.732" y="276.461437" style="fill: #262626; stroke: #262626"/>
      </g>
     </g>
     <g id="text_1">
      <!-- 0.0 -->
      <g style="fill: #262626" transform="translate(21.616 291.060312) scale(0.088 -0.088)">
       <defs>
        <path id="ArialMT-30" d="M 266 2259 
Q 266 3072 433 3567 
Q 600 4063 929 4331 
Q 1259 4600 1759 4600 
Q 2128 4600 2406 4451 
Q 2684 4303 2865 4023 
Q 3047 3744 3150 3342 
Q 3253 2941 3253 2259 
Q 3253 1453 3087 958 
Q 2922 463 2592 192 
Q 2263 -78 1759 -78 
Q 1097 -78 719 397 
Q 266 969 266 2259 
z
M 844 2259 
Q 844 1131 1108 757 
Q 1372 384 1759 384 
Q 2147 384 2411 759 
Q 2675 1134 2675 2259 
Q 2675 3391 2411 3762 
Q 2147 4134 1753 4134 
Q 1366 4134 1134 3806 
Q 844 3388 844 2259 
z
" transform="scale(0.015625)"/>
        <path id="ArialMT-2e" d="M 581 0 
L 581 641 
L 1222 641 
L 1222 0 
L 581 0 
z
" transform="scale(0.015625)"/>
       </defs>
       <use xlink:href="#ArialMT-30"/>
       <use xlink:href="#ArialMT-2e" x="55.615234"/>
       <use xlink:href="#ArialMT-30" x="83.398438"/>
      </g>
     </g>
    </g>
    <g id="xtick_2">
     <g id="line2d_2">
      <g>
       <use xlink:href="#mf50a1e355f" x="84.8712" y="276.461437" style="fill: #262626; stroke: #262626"/>
      </g>
     </g>
     <g id="text_2">
      <!-- 0.2 -->
      <g style="fill: #262626" transform="translate(78.7552 291.060312) scale(0.088 -0.088)">
       <defs>
        <path id="ArialMT-32" d="M 3222 541 
L 3222 0 
L 194 0 
Q 188 203 259 391 
Q 375 700 629 1000 
Q 884 1300 1366 1694 
Q 2113 2306 2375 2664 
Q 2638 3022 2638 3341 
Q 2638 3675 2398 3904 
Q 2159 4134 1775 4134 
Q 1369 4134 1125 3890 
Q 881 3647 878 3216 
L 300 3275 
Q 359 3922 746 4261 
Q 1134 4600 1788 4600 
Q 2447 4600 2831 4234 
Q 3216 3869 3216 3328 
Q 3216 3053 3103 2787 
Q 2991 2522 2730 2228 
Q 2469 1934 1863 1422 
Q 1356 997 1212 845 
Q 1069 694 975 541 
L 3222 541 
z
" transform="scale(0.015625)"/>
       </defs>
       <use xlink:href="#ArialMT-30"/>
       <use xlink:href="#ArialMT-2e" x="55.615234"/>
       <use xlink:href="#ArialMT-32" x="83.398438"/>
      </g>
     </g>
    </g>
    <g id="xtick_3">
     <g id="line2d_3">
      <g>
       <use xlink:href="#mf50a1e355f" x="142.0104" y="276.461437" style="fill: #262626; stroke: #262626"/>
      </g>
     </g>
     <g id="text_3">
      <!-- 0.4 -->
      <g style="fill: #262626" transform="translate(135.8944 291.060312) scale(0.088 -0.088)">
       <defs>
        <path id="ArialMT-34" d="M 2069 0 
L 2069 1097 
L 81 1097 
L 81 1613 
L 2172 4581 
L 2631 4581 
L 2631 1613 
L 3250 1613 
L 3250 1097 
L 2631 1097 
L 2631 0 
L 2069 0 
z
M 2069 1613 
L 2069 3678 
L 634 1613 
L 2069 1613 
z
" transform="scale(0.015625)"/>
       </defs>
       <use xlink:href="#ArialMT-30"/>
       <use xlink:href="#ArialMT-2e" x="55.615234"/>
       <use xlink:href="#ArialMT-34" x="83.398438"/>
      </g>
     </g>
    </g>
    <g id="xtick_4">
     <g id="line2d_4">
      <g>
       <use xlink:href="#mf50a1e355f" x="199.1496" y="276.461437" style="fill: #262626; stroke: #262626"/>
      </g>
     </g>
     <g id="text_4">
      <!-- 0.6 -->
      <g style="fill: #262626" transform="translate(193.0336 291.060312) scale(0.088 -0.088)">
       <defs>
        <path id="ArialMT-36" d="M 3184 3459 
L 2625 3416 
Q 2550 3747 2413 3897 
Q 2184 4138 1850 4138 
Q 1581 4138 1378 3988 
Q 1113 3794 959 3422 
Q 806 3050 800 2363 
Q 1003 2672 1297 2822 
Q 1591 2972 1913 2972 
Q 2475 2972 2870 2558 
Q 3266 2144 3266 1488 
Q 3266 1056 3080 686 
Q 2894 316 2569 119 
Q 2244 -78 1831 -78 
Q 1128 -78 684 439 
Q 241 956 241 2144 
Q 241 3472 731 4075 
Q 1159 4600 1884 4600 
Q 2425 4600 2770 4297 
Q 3116 3994 3184 3459 
z
M 888 1484 
Q 888 1194 1011 928 
Q 1134 663 1356 523 
Q 1578 384 1822 384 
Q 2178 384 2434 671 
Q 2691 959 2691 1453 
Q 2691 1928 2437 2201 
Q 2184 2475 1800 2475 
Q 1419 2475 1153 2201 
Q 888 1928 888 1484 
z
" transform="scale(0.015625)"/>
       </defs>
       <use xlink:href="#ArialMT-30"/>
       <use xlink:href="#ArialMT-2e" x="55.615234"/>
       <use xlink:href="#ArialMT-36" x="83.398438"/>
      </g>
     </g>
    </g>
    <g id="xtick_5">
     <g id="line2d_5">
      <g>
       <use xlink:href="#mf50a1e355f" x="256.2888" y="276.461437" style="fill: #262626; stroke: #262626"/>
      </g>
     </g>
     <g id="text_5">
      <!-- 0.8 -->
      <g style="fill: #262626" transform="translate(250.1728 291.060312) scale(0.088 -0.088)">
       <defs>
        <path id="ArialMT-38" d="M 1131 2484 
Q 781 2613 612 2850 
Q 444 3088 444 3419 
Q 444 3919 803 4259 
Q 1163 4600 1759 4600 
Q 2359 4600 2725 4251 
Q 3091 3903 3091 3403 
Q 3091 3084 2923 2848 
Q 2756 2613 2416 2484 
Q 2838 2347 3058 2040 
Q 3278 1734 3278 1309 
Q 3278 722 2862 322 
Q 2447 -78 1769 -78 
Q 1091 -78 675 323 
Q 259 725 259 1325 
Q 259 1772 486 2073 
Q 713 2375 1131 2484 
z
M 1019 3438 
Q 1019 3113 1228 2906 
Q 1438 2700 1772 2700 
Q 2097 2700 2305 2904 
Q 2513 3109 2513 3406 
Q 2513 3716 2298 3927 
Q 2084 4138 1766 4138 
Q 1444 4138 1231 3931 
Q 1019 3725 1019 3438 
z
M 838 1322 
Q 838 1081 952 856 
Q 1066 631 1291 507 
Q 1516 384 1775 384 
Q 2178 384 2440 643 
Q 2703 903 2703 1303 
Q 2703 1709 2433 1975 
Q 2163 2241 1756 2241 
Q 1359 2241 1098 1978 
Q 838 1716 838 1322 
z
" transform="scale(0.015625)"/>
       </defs>
       <use xlink:href="#ArialMT-30"/>
       <use xlink:href="#ArialMT-2e" x="55.615234"/>
       <use xlink:href="#ArialMT-38" x="83.398438"/>
      </g>
     </g>
    </g>
    <g id="xtick_6">
     <g id="line2d_6">
      <g>
       <use xlink:href="#mf50a1e355f" x="313.428" y="276.461437" style="fill: #262626; stroke: #262626"/>
      </g>
     </g>
     <g id="text_6">
      <!-- 1.0 -->
      <g style="fill: #262626" transform="translate(307.312 291.060312) scale(0.088 -0.088)">
       <defs>
        <path id="ArialMT-31" d="M 2384 0 
L 1822 0 
L 1822 3584 
Q 1619 3391 1289 3197 
Q 959 3003 697 2906 
L 697 3450 
Q 1169 3672 1522 3987 
Q 1875 4303 2022 4600 
L 2384 4600 
L 2384 0 
z
" transform="scale(0.015625)"/>
       </defs>
       <use xlink:href="#ArialMT-31"/>
       <use xlink:href="#ArialMT-2e" x="55.615234"/>
       <use xlink:href="#ArialMT-30" x="83.398438"/>
      </g>
     </g>
    </g>
   </g>
   <g id="matplotlib.axis_2">
    <g id="ytick_1">
     <g id="line2d_7">
      <defs>
       <path id="m356ef2f37d" d="M 0 0 
L -4.8 0 
" style="stroke: #262626"/>
      </defs>
      <g>
       <use xlink:href="#m356ef2f37d" x="27.732" y="276.461437" style="fill: #262626; stroke: #262626"/>
      </g>
     </g>
     <g id="text_7">
      <!-- 0.0 -->
      <g style="fill: #262626" transform="translate(7.2 279.610875) scale(0.088 -0.088)">
       <use xlink:href="#ArialMT-30"/>
       <use xlink:href="#ArialMT-2e" x="55.615234"/>
       <use xlink:href="#ArialMT-30" x="83.398438"/>
      </g>
     </g>
    </g>
    <g id="ytick_2">
     <g id="line2d_8">
      <g>
       <use xlink:href="#m356ef2f37d" x="27.732" y="223.239037" style="fill: #262626; stroke: #262626"/>
      </g>
     </g>
     <g id="text_8">
      <!-- 0.2 -->
      <g style="fill: #262626" transform="translate(7.2 226.388475) scale(0.088 -0.088)">
       <use xlink:href="#ArialMT-30"/>
       <use xlink:href="#ArialMT-2e" x="55.615234"/>
       <use xlink:href="#ArialMT-32" x="83.398438"/>
      </g>
     </g>
    </g>
    <g id="ytick_3">
     <g id="line2d_9">
      <g>
       <use xlink:href="#m356ef2f37d" x="27.732" y="170.016637" style="fill: #262626; stroke: #262626"/>
      </g>
     </g>
     <g id="text_9">
      <!-- 0.4 -->
      <g style="fill: #262626" transform="translate(7.2 173.166075) scale(0.088 -0.088)">
       <use xlink:href="#ArialMT-30"/>
       <use xlink:href="#ArialMT-2e" x="55.615234"/>
       <use xlink:href="#ArialMT-34" x="83.398438"/>
      </g>
     </g>
    </g>
    <g id="ytick_4">
     <g id="line2d_10">
      <g>
       <use xlink:href="#m356ef2f37d" x="27.732" y="116.794237" style="fill: #262626; stroke: #262626"/>
      </g>
     </g>
     <g id="text_10">
      <!-- 0.6 -->
      <g style="fill: #262626" transform="translate(7.2 119.943675) scale(0.088 -0.088)">
       <use xlink:href="#ArialMT-30"/>
       <use xlink:href="#ArialMT-2e" x="55.615234"/>
       <use xlink:href="#ArialMT-36" x="83.398438"/>
      </g>
     </g>
    </g>
    <g id="ytick_5">
     <g id="line2d_11">
      <g>
       <use xlink:href="#m356ef2f37d" x="27.732" y="63.571837" style="fill: #262626; stroke: #262626"/>
      </g>
     </g>
     <g id="text_11">
      <!-- 0.8 -->
      <g style="fill: #262626" transform="translate(7.2 66.721275) scale(0.088 -0.088)">
       <use xlink:href="#ArialMT-30"/>
       <use xlink:href="#ArialMT-2e" x="55.615234"/>
       <use xlink:href="#ArialMT-38" x="83.398438"/>
      </g>
     </g>
    </g>
    <g id="ytick_6">
     <g id="line2d_12">
      <g>
       <use xlink:href="#m356ef2f37d" x="27.732" y="10.349437" style="fill: #262626; stroke: #262626"/>
      </g>
     </g>
     <g id="text_12">
      <!-- 1.0 -->
      <g style="fill: #262626" transform="translate(7.2 13.498875) scale(0.088 -0.088)">
       <use xlink:href="#ArialMT-31"/>
       <use xlink:href="#ArialMT-2e" x="55.615234"/>
       <use xlink:href="#ArialMT-30" x="83.398438"/>
      </g>
     </g>
    </g>
   </g>
   <g id="QuadContourSet_1">
    <path d="M 92.244 251.745876 
L 101.46 253.009595 
L 110.676 253.158538 
L 119.892 252.212266 
L 126.550413 250.708663 
L 129.108 249.963737 
L 138.324 245.651199 
L 143.521811 242.124405 
L 147.54 237.788034 
L 150.523635 233.540147 
L 153.20143 224.955889 
L 153.114289 216.371631 
L 150.913168 207.787373 
L 147.54 200.314458 
L 147.006371 199.203115 
L 141.242271 190.618857 
L 138.324 187.048454 
L 133.808151 182.034599 
L 129.108 177.497864 
L 124.290862 173.450341 
L 119.892 170.10217 
L 111.570956 164.866083 
L 110.676 164.337558 
L 101.46 160.401359 
L 92.244 158.048552 
L 83.028 157.739513 
L 73.812 160.108694 
L 66.301099 164.866083 
L 64.596 166.301078 
L 59.265821 173.450341 
L 55.38 181.206996 
L 55.069078 182.034599 
L 53.021638 190.618857 
L 52.173837 199.203115 
L 52.471416 207.787373 
L 53.945947 216.371631 
L 55.38 220.856003 
L 56.97312 224.955889 
L 62.073715 233.540147 
L 64.596 236.584199 
L 70.622541 242.124405 
L 73.812 244.371961 
L 83.028 248.994246 
L 88.350348 250.708663 
z
" clip-path="url(#pdda438811e)" style="fill: #180f29"/>
    <path d="M 73.812 270.952707 
L 83.028 273.238281 
L 92.244 274.711815 
L 101.46 275.512253 
L 110.676 275.715937 
L 119.892 275.353675 
L 129.108 274.418537 
L 138.324 272.867586 
L 147.54 270.617951 
L 155.800801 267.877179 
L 156.756 267.496895 
L 165.972 262.847194 
L 171.433573 259.292921 
L 175.188 255.847648 
L 179.792551 250.708663 
L 184.092022 242.124405 
L 184.404 240.507162 
L 185.600932 233.540147 
L 185.059097 224.955889 
L 184.404 222.482492 
L 182.86938 216.371631 
L 179.324958 207.787373 
L 175.188 200.232853 
L 174.635435 199.203115 
L 168.875083 190.618857 
L 165.972 186.88832 
L 162.166959 182.034599 
L 156.756 175.86484 
L 154.570134 173.450341 
L 147.54 166.307949 
L 146.037505 164.866083 
L 138.324 157.877156 
L 136.408953 156.281825 
L 129.108 150.396127 
L 125.357681 147.697567 
L 119.892 143.799843 
L 112.278414 139.113308 
L 110.676 138.112433 
L 101.46 133.469274 
L 93.754727 130.52905 
L 92.244 129.927007 
L 83.028 127.716026 
L 73.812 127.071902 
L 64.596 128.384343 
L 59.245107 130.52905 
L 55.38 132.31417 
L 47.092636 139.113308 
L 46.164 140.04314 
L 40.705461 147.697567 
L 36.948 154.582077 
L 36.192091 156.281825 
L 33.127552 164.866083 
L 30.893962 173.450341 
L 29.367338 182.034599 
L 28.471264 190.618857 
L 28.168276 199.203115 
L 28.457045 207.787373 
L 29.375099 216.371631 
L 31.007791 224.955889 
L 33.507043 233.540147 
L 36.948 241.727138 
L 37.138965 242.124405 
L 42.637072 250.708663 
L 46.164 254.811209 
L 51.001522 259.292921 
L 55.38 262.533334 
L 64.596 267.603921 
L 65.26189 267.877179 
z
M 88.350348 250.708663 
L 83.028 248.994246 
L 73.812 244.371961 
L 70.622541 242.124405 
L 64.596 236.584199 
L 62.073715 233.540147 
L 56.97312 224.955889 
L 55.38 220.856003 
L 53.945947 216.371631 
L 52.471416 207.787373 
L 52.173837 199.203115 
L 53.021638 190.618857 
L 55.069078 182.034599 
L 55.38 181.206996 
L 59.265821 173.450341 
L 64.596 166.301078 
L 66.301099 164.866083 
L 73.812 160.108694 
L 83.028 157.739513 
L 92.244 158.048552 
L 101.46 160.401359 
L 110.676 164.337558 
L 111.570956 164.866083 
L 119.892 170.10217 
L 124.290862 173.450341 
L 129.108 177.497864 
L 133.808151 182.034599 
L 138.324 187.048454 
L 141.242271 190.618857 
L 147.006371 199.203115 
L 147.54 200.314458 
L 150.913168 207.787373 
L 153.114289 216.371631 
L 153.20143 224.955889 
L 150.523635 233.540147 
L 147.54 237.788034 
L 143.521811 242.124405 
L 138.324 245.651199 
L 129.108 249.963737 
L 126.550413 250.708663 
L 119.892 252.212266 
L 110.676 253.158538 
L 101.46 253.009595 
L 92.244 251.745876 
z
" clip-path="url(#pdda438811e)" style="fill: #481c48"/>
    <path d="M 36.948 276.461437 
L 46.164 276.461437 
L 55.38 276.461437 
L 64.596 276.461437 
L 73.812 276.461437 
L 83.028 276.461437 
L 92.244 276.461437 
L 101.46 276.461437 
L 110.676 276.461437 
L 119.892 276.461437 
L 129.108 276.461437 
L 138.324 276.461437 
L 147.54 276.461437 
L 156.756 276.461437 
L 165.972 276.461437 
L 175.188 276.461437 
L 184.404 276.461437 
L 193.62 276.461437 
L 201.914237 276.461437 
L 202.836 275.776992 
L 211.643747 267.877179 
L 212.052 267.308726 
L 217.143081 259.292921 
L 219.573093 250.708663 
L 219.768688 242.124405 
L 218.22496 233.540147 
L 215.230339 224.955889 
L 212.052 218.665301 
L 211.015441 216.371631 
L 205.906339 207.787373 
L 202.836 203.543323 
L 199.937107 199.203115 
L 193.62 191.099114 
L 193.266212 190.618857 
L 186.055443 182.034599 
L 184.404 180.250102 
L 178.311027 173.450341 
L 175.188 170.210375 
L 170.094117 164.866083 
L 165.972 160.758016 
L 161.436664 156.281825 
L 156.756 151.801552 
L 152.33436 147.697567 
L 147.54 143.293016 
L 142.74582 139.113308 
L 138.324 135.219384 
L 132.583648 130.52905 
L 129.108 127.601504 
L 121.694862 121.944792 
L 119.892 120.496829 
L 110.676 113.97717 
L 109.646351 113.360534 
L 101.46 108.068845 
L 95.259013 104.776276 
L 92.244 103.006433 
L 83.028 98.874326 
L 74.467262 96.192018 
L 73.812 95.957005 
L 64.596 94.331435 
L 55.38 94.47363 
L 48.488588 96.192018 
L 46.164 96.810912 
L 36.948 101.947943 
L 33.784801 104.776276 
L 27.732 111.182571 
L 27.732 113.360534 
L 27.732 121.944792 
L 27.732 130.52905 
L 27.732 139.113308 
L 27.732 147.697567 
L 27.732 156.281825 
L 27.732 164.866083 
L 27.732 173.450341 
L 27.732 182.034599 
L 27.732 190.618857 
L 27.732 199.203115 
L 27.732 207.787373 
L 27.732 216.371631 
L 27.732 224.955889 
L 27.732 233.540147 
L 27.732 242.124405 
L 27.732 250.708663 
L 27.732 259.292921 
L 27.732 267.877179 
L 27.732 273.513614 
L 30.904007 276.461437 
z
M 65.26189 267.877179 
L 64.596 267.603921 
L 55.38 262.533334 
L 51.001522 259.292921 
L 46.164 254.811209 
L 42.637072 250.708663 
L 37.138965 242.124405 
L 36.948 241.727138 
L 33.507043 233.540147 
L 31.007791 224.955889 
L 29.375099 216.371631 
L 28.457045 207.787373 
L 28.168276 199.203115 
L 28.471264 190.618857 
L 29.367338 182.034599 
L 30.893962 173.450341 
L 33.127552 164.866083 
L 36.192091 156.281825 
L 36.948 154.582077 
L 40.705461 147.697567 
L 46.164 140.04314 
L 47.092636 139.113308 
L 55.38 132.31417 
L 59.245107 130.52905 
L 64.596 128.384343 
L 73.812 127.071902 
L 83.028 127.716026 
L 92.244 129.927007 
L 93.754727 130.52905 
L 101.46 133.469274 
L 110.676 138.112433 
L 112.278414 139.113308 
L 119.892 143.799843 
L 125.357681 147.697567 
L 129.108 150.396127 
L 136.408953 156.281825 
L 138.324 157.877156 
L 146.037505 164.866083 
L 147.54 166.307949 
L 154.570134 173.450341 
L 156.756 175.86484 
L 162.166959 182.034599 
L 165.972 186.88832 
L 168.875083 190.618857 
L 174.635435 199.203115 
L 175.188 200.232853 
L 179.324958 207.787373 
L 182.86938 216.371631 
L 184.404 222.482492 
L 185.059097 224.955889 
L 185.600932 233.540147 
L 184.404 240.507162 
L 184.092022 242.124405 
L 179.792551 250.708663 
L 175.188 255.847648 
L 171.433573 259.292921 
L 165.972 262.847194 
L 156.756 267.496895 
L 155.800801 267.877179 
L 147.54 270.617951 
L 138.324 272.867586 
L 129.108 274.418537 
L 119.892 275.353675 
L 110.676 275.715937 
L 101.46 275.512253 
L 92.244 274.711815 
L 83.028 273.238281 
L 73.812 270.952707 
z
" clip-path="url(#pdda438811e)" style="fill: #7b1f59"/>
    <path d="M 27.732 273.513614 
L 27.732 276.461437 
L 30.904007 276.461437 
z
M 202.836 276.461437 
L 212.052 276.461437 
L 221.268 276.461437 
L 230.484 276.461437 
L 239.7 276.461437 
L 248.916 276.461437 
L 258.132 276.461437 
L 267.348 276.461437 
L 276.564 276.461437 
L 285.78 276.461437 
L 294.996 276.461437 
L 304.212 276.461437 
L 305.539537 276.461437 
L 304.212 275.584205 
L 297.978354 267.877179 
L 294.996 265.645356 
L 289.898607 259.292921 
L 285.78 255.95886 
L 281.516671 250.708663 
L 276.564 246.490652 
L 272.945109 242.124405 
L 267.348 237.193889 
L 264.249213 233.540147 
L 258.132 228.024882 
L 255.469233 224.955889 
L 248.916 218.949118 
L 246.630464 216.371631 
L 239.7 209.941917 
L 237.749273 207.787373 
L 230.484 200.986125 
L 228.83701 199.203115 
L 221.268 192.069369 
L 219.901957 190.618857 
L 212.052 183.182458 
L 210.950297 182.034599 
L 202.836 174.318514 
L 201.986931 173.450341 
L 193.62 165.472147 
L 193.016073 164.866083 
L 184.404 156.638873 
L 184.041455 156.281825 
L 175.188 147.814932 
L 175.066519 147.697567 
L 166.093481 139.113308 
L 165.972 138.995943 
L 157.118545 130.52905 
L 156.756 130.172002 
L 148.143927 121.944792 
L 147.54 121.338728 
L 139.173069 113.360534 
L 138.324 112.492361 
L 130.209703 104.776276 
L 129.108 103.628417 
L 121.258043 96.192018 
L 119.892 94.741506 
L 112.32299 87.60776 
L 110.676 85.82475 
L 103.410727 79.023502 
L 101.46 76.868958 
L 94.529536 70.439244 
L 92.244 67.861757 
L 85.690767 61.854986 
L 83.028 58.785993 
L 76.910787 53.270728 
L 73.812 49.616986 
L 68.214891 44.68647 
L 64.596 40.320223 
L 59.643329 36.102212 
L 55.38 30.852015 
L 51.261393 27.517954 
L 46.164 21.165519 
L 43.181646 18.933696 
L 36.948 11.22667 
L 35.620463 10.349437 
L 27.732 10.349437 
L 27.732 18.933696 
L 27.732 27.517954 
L 27.732 36.102212 
L 27.732 44.68647 
L 27.732 53.270728 
L 27.732 61.854986 
L 27.732 70.439244 
L 27.732 79.023502 
L 27.732 87.60776 
L 27.732 96.192018 
L 27.732 104.776276 
L 27.732 111.182571 
L 33.784801 104.776276 
L 36.948 101.947943 
L 46.164 96.810912 
L 48.488588 96.192018 
L 55.38 94.47363 
L 64.596 94.331435 
L 73.812 95.957005 
L 74.467262 96.192018 
L 83.028 98.874326 
L 92.244 103.006433 
L 95.259013 104.776276 
L 101.46 108.068845 
L 109.646351 113.360534 
L 110.676 113.97717 
L 119.892 120.496829 
L 121.694862 121.944792 
L 129.108 127.601504 
L 132.583648 130.52905 
L 138.324 135.219384 
L 142.74582 139.113308 
L 147.54 143.293016 
L 152.33436 147.697567 
L 156.756 151.801552 
L 161.436664 156.281825 
L 165.972 160.758016 
L 170.094117 164.866083 
L 175.188 170.210375 
L 178.311027 173.450341 
L 184.404 180.250102 
L 186.055443 182.034599 
L 193.266212 190.618857 
L 193.62 191.099114 
L 199.937107 199.203115 
L 202.836 203.543323 
L 205.906339 207.787373 
L 211.015441 216.371631 
L 212.052 218.665301 
L 215.230339 224.955889 
L 218.22496 233.540147 
L 219.768688 242.124405 
L 219.573093 250.708663 
L 217.143081 259.292921 
L 212.052 267.308726 
L 211.643747 267.877179 
L 202.836 275.776992 
L 201.914237 276.461437 
z
" clip-path="url(#pdda438811e)" style="fill: #b21758"/>
    <path d="M 304.212 275.584205 
L 305.539537 276.461437 
L 313.428 276.461437 
L 313.428 267.877179 
L 313.428 259.292921 
L 313.428 250.708663 
L 313.428 242.124405 
L 313.428 233.540147 
L 313.428 224.955889 
L 313.428 216.371631 
L 313.428 207.787373 
L 313.428 199.203115 
L 313.428 190.618857 
L 313.428 182.034599 
L 313.428 175.628304 
L 307.375199 182.034599 
L 304.212 184.862932 
L 294.996 189.999963 
L 292.671412 190.618857 
L 285.78 192.337245 
L 276.564 192.47944 
L 267.348 190.85387 
L 266.692738 190.618857 
L 258.132 187.936549 
L 248.916 183.804442 
L 245.900987 182.034599 
L 239.7 178.74203 
L 231.513649 173.450341 
L 230.484 172.833705 
L 221.268 166.314046 
L 219.465138 164.866083 
L 212.052 159.209371 
L 208.576352 156.281825 
L 202.836 151.591491 
L 198.41418 147.697567 
L 193.62 143.517859 
L 188.82564 139.113308 
L 184.404 135.009323 
L 179.723336 130.52905 
L 175.188 126.052859 
L 171.065883 121.944792 
L 165.972 116.6005 
L 162.848973 113.360534 
L 156.756 106.560773 
L 155.104557 104.776276 
L 147.893788 96.192018 
L 147.54 95.711761 
L 141.222893 87.60776 
L 138.324 83.267552 
L 135.253661 79.023502 
L 130.144559 70.439244 
L 129.108 68.145574 
L 125.929661 61.854986 
L 122.93504 53.270728 
L 121.391312 44.68647 
L 121.586907 36.102212 
L 124.016919 27.517954 
L 129.108 19.502149 
L 129.516253 18.933696 
L 138.324 11.033883 
L 139.245763 10.349437 
L 138.324 10.349437 
L 129.108 10.349437 
L 119.892 10.349437 
L 110.676 10.349437 
L 101.46 10.349437 
L 92.244 10.349437 
L 83.028 10.349437 
L 73.812 10.349437 
L 64.596 10.349437 
L 55.38 10.349437 
L 46.164 10.349437 
L 36.948 10.349437 
L 35.620463 10.349437 
L 36.948 11.22667 
L 43.181646 18.933696 
L 46.164 21.165519 
L 51.261393 27.517954 
L 55.38 30.852015 
L 59.643329 36.102212 
L 64.596 40.320223 
L 68.214891 44.68647 
L 73.812 49.616986 
L 76.910787 53.270728 
L 83.028 58.785993 
L 85.690767 61.854986 
L 92.244 67.861757 
L 94.529536 70.439244 
L 101.46 76.868958 
L 103.410727 79.023502 
L 110.676 85.82475 
L 112.32299 87.60776 
L 119.892 94.741506 
L 121.258043 96.192018 
L 129.108 103.628417 
L 130.209703 104.776276 
L 138.324 112.492361 
L 139.173069 113.360534 
L 147.54 121.338728 
L 148.143927 121.944792 
L 156.756 130.172002 
L 157.118545 130.52905 
L 165.972 138.995943 
L 166.093481 139.113308 
L 175.066519 147.697567 
L 175.188 147.814932 
L 184.041455 156.281825 
L 184.404 156.638873 
L 193.016073 164.866083 
L 193.62 165.472147 
L 201.986931 173.450341 
L 202.836 174.318514 
L 210.950297 182.034599 
L 212.052 183.182458 
L 219.901957 190.618857 
L 221.268 192.069369 
L 228.83701 199.203115 
L 230.484 200.986125 
L 237.749273 207.787373 
L 239.7 209.941917 
L 246.630464 216.371631 
L 248.916 218.949118 
L 255.469233 224.955889 
L 258.132 228.024882 
L 264.249213 233.540147 
L 267.348 237.193889 
L 272.945109 242.124405 
L 276.564 246.490652 
L 281.516671 250.708663 
L 285.78 255.95886 
L 289.898607 259.292921 
L 294.996 265.645356 
L 297.978354 267.877179 
z
M 313.428 13.297261 
L 313.428 10.349437 
L 310.255993 10.349437 
z
" clip-path="url(#pdda438811e)" style="fill: #df2f44"/>
    <path d="M 267.348 190.85387 
L 276.564 192.47944 
L 285.78 192.337245 
L 292.671412 190.618857 
L 294.996 189.999963 
L 304.212 184.862932 
L 307.375199 182.034599 
L 313.428 175.628304 
L 313.428 173.450341 
L 313.428 164.866083 
L 313.428 156.281825 
L 313.428 147.697567 
L 313.428 139.113308 
L 313.428 130.52905 
L 313.428 121.944792 
L 313.428 113.360534 
L 313.428 104.776276 
L 313.428 96.192018 
L 313.428 87.60776 
L 313.428 79.023502 
L 313.428 70.439244 
L 313.428 61.854986 
L 313.428 53.270728 
L 313.428 44.68647 
L 313.428 36.102212 
L 313.428 27.517954 
L 313.428 18.933696 
L 313.428 13.297261 
L 310.255993 10.349437 
L 304.212 10.349437 
L 294.996 10.349437 
L 285.78 10.349437 
L 276.564 10.349437 
L 267.348 10.349437 
L 258.132 10.349437 
L 248.916 10.349437 
L 239.7 10.349437 
L 230.484 10.349437 
L 221.268 10.349437 
L 212.052 10.349437 
L 202.836 10.349437 
L 193.62 10.349437 
L 184.404 10.349437 
L 175.188 10.349437 
L 165.972 10.349437 
L 156.756 10.349437 
L 147.54 10.349437 
L 139.245763 10.349437 
L 138.324 11.033883 
L 129.516253 18.933696 
L 129.108 19.502149 
L 124.016919 27.517954 
L 121.586907 36.102212 
L 121.391312 44.68647 
L 122.93504 53.270728 
L 125.929661 61.854986 
L 129.108 68.145574 
L 130.144559 70.439244 
L 135.253661 79.023502 
L 138.324 83.267552 
L 141.222893 87.60776 
L 147.54 95.711761 
L 147.893788 96.192018 
L 155.104557 104.776276 
L 156.756 106.560773 
L 162.848973 113.360534 
L 165.972 116.6005 
L 171.065883 121.944792 
L 175.188 126.052859 
L 179.723336 130.52905 
L 184.404 135.009323 
L 188.82564 139.113308 
L 193.62 143.517859 
L 198.41418 147.697567 
L 202.836 151.591491 
L 208.576352 156.281825 
L 212.052 159.209371 
L 219.465138 164.866083 
L 221.268 166.314046 
L 230.484 172.833705 
L 231.513649 173.450341 
L 239.7 178.74203 
L 245.900987 182.034599 
L 248.916 183.804442 
L 258.132 187.936549 
L 266.692738 190.618857 
z
M 247.405273 156.281825 
L 239.7 153.341601 
L 230.484 148.698442 
L 228.881586 147.697567 
L 221.268 143.011032 
L 215.802319 139.113308 
L 212.052 136.414748 
L 204.751047 130.52905 
L 202.836 128.933719 
L 195.122495 121.944792 
L 193.62 120.502926 
L 186.589866 113.360534 
L 184.404 110.946035 
L 178.993041 104.776276 
L 175.188 99.922555 
L 172.284917 96.192018 
L 166.524565 87.60776 
L 165.972 86.578022 
L 161.835042 79.023502 
L 158.29062 70.439244 
L 156.756 64.328383 
L 156.100903 61.854986 
L 155.559068 53.270728 
L 156.756 46.303713 
L 157.067978 44.68647 
L 161.367449 36.102212 
L 165.972 30.963227 
L 169.726427 27.517954 
L 175.188 23.963681 
L 184.404 19.31398 
L 185.359199 18.933696 
L 193.62 16.192924 
L 202.836 13.943289 
L 212.052 12.392338 
L 221.268 11.4572 
L 230.484 11.094938 
L 239.7 11.298622 
L 248.916 12.09906 
L 258.132 13.572594 
L 267.348 15.858168 
L 275.89811 18.933696 
L 276.564 19.206954 
L 285.78 24.277541 
L 290.158478 27.517954 
L 294.996 31.999666 
L 298.522928 36.102212 
L 304.021035 44.68647 
L 304.212 45.083737 
L 307.652957 53.270728 
L 310.152209 61.854986 
L 311.784901 70.439244 
L 312.702955 79.023502 
L 312.991724 87.60776 
L 312.688736 96.192018 
L 311.792662 104.776276 
L 310.266038 113.360534 
L 308.032448 121.944792 
L 304.967909 130.52905 
L 304.212 132.228798 
L 300.454539 139.113308 
L 294.996 146.767735 
L 294.067364 147.697567 
L 285.78 154.496705 
L 281.914893 156.281825 
L 276.564 158.426532 
L 267.348 159.738973 
L 258.132 159.094849 
L 248.916 156.883868 
z
" clip-path="url(#pdda438811e)" style="fill: #f26b49"/>
    <path d="M 248.916 156.883868 
L 258.132 159.094849 
L 267.348 159.738973 
L 276.564 158.426532 
L 281.914893 156.281825 
L 285.78 154.496705 
L 294.067364 147.697567 
L 294.996 146.767735 
L 300.454539 139.113308 
L 304.212 132.228798 
L 304.967909 130.52905 
L 308.032448 121.944792 
L 310.266038 113.360534 
L 311.792662 104.776276 
L 312.688736 96.192018 
L 312.991724 87.60776 
L 312.702955 79.023502 
L 311.784901 70.439244 
L 310.152209 61.854986 
L 307.652957 53.270728 
L 304.212 45.083737 
L 304.021035 44.68647 
L 298.522928 36.102212 
L 294.996 31.999666 
L 290.158478 27.517954 
L 285.78 24.277541 
L 276.564 19.206954 
L 275.89811 18.933696 
L 267.348 15.858168 
L 258.132 13.572594 
L 248.916 12.09906 
L 239.7 11.298622 
L 230.484 11.094938 
L 221.268 11.4572 
L 212.052 12.392338 
L 202.836 13.943289 
L 193.62 16.192924 
L 185.359199 18.933696 
L 184.404 19.31398 
L 175.188 23.963681 
L 169.726427 27.517954 
L 165.972 30.963227 
L 161.367449 36.102212 
L 157.067978 44.68647 
L 156.756 46.303713 
L 155.559068 53.270728 
L 156.100903 61.854986 
L 156.756 64.328383 
L 158.29062 70.439244 
L 161.835042 79.023502 
L 165.972 86.578022 
L 166.524565 87.60776 
L 172.284917 96.192018 
L 175.188 99.922555 
L 178.993041 104.776276 
L 184.404 110.946035 
L 186.589866 113.360534 
L 193.62 120.502926 
L 195.122495 121.944792 
L 202.836 128.933719 
L 204.751047 130.52905 
L 212.052 136.414748 
L 215.802319 139.113308 
L 221.268 143.011032 
L 228.881586 147.697567 
L 230.484 148.698442 
L 239.7 153.341601 
L 247.405273 156.281825 
z
M 229.589044 121.944792 
L 221.268 116.708705 
L 216.869138 113.360534 
L 212.052 109.313011 
L 207.351849 104.776276 
L 202.836 99.762421 
L 199.917729 96.192018 
L 194.153629 87.60776 
L 193.62 86.496417 
L 190.246832 79.023502 
L 188.045711 70.439244 
L 187.95857 61.854986 
L 190.636365 53.270728 
L 193.62 49.022841 
L 197.638189 44.68647 
L 202.836 41.159676 
L 212.052 36.847138 
L 214.609587 36.102212 
L 221.268 34.598609 
L 230.484 33.652337 
L 239.7 33.80128 
L 248.916 35.064999 
L 252.809652 36.102212 
L 258.132 37.816629 
L 267.348 42.438914 
L 270.537459 44.68647 
L 276.564 50.226676 
L 279.086285 53.270728 
L 284.18688 61.854986 
L 285.78 65.954872 
L 287.214053 70.439244 
L 288.688584 79.023502 
L 288.986163 87.60776 
L 288.138362 96.192018 
L 286.090922 104.776276 
L 285.78 105.603879 
L 281.894179 113.360534 
L 276.564 120.509797 
L 274.858901 121.944792 
L 267.348 126.702181 
L 258.132 129.071362 
L 248.916 128.762323 
L 239.7 126.409516 
L 230.484 122.473317 
z
" clip-path="url(#pdda438811e)" style="fill: #f6a37a"/>
    <path d="M 230.484 122.473317 
L 239.7 126.409516 
L 248.916 128.762323 
L 258.132 129.071362 
L 267.348 126.702181 
L 274.858901 121.944792 
L 276.564 120.509797 
L 281.894179 113.360534 
L 285.78 105.603879 
L 286.090922 104.776276 
L 288.138362 96.192018 
L 288.986163 87.60776 
L 288.688584 79.023502 
L 287.214053 70.439244 
L 285.78 65.954872 
L 284.18688 61.854986 
L 279.086285 53.270728 
L 276.564 50.226676 
L 270.537459 44.68647 
L 267.348 42.438914 
L 258.132 37.816629 
L 252.809652 36.102212 
L 248.916 35.064999 
L 239.7 33.80128 
L 230.484 33.652337 
L 221.268 34.598609 
L 214.609587 36.102212 
L 212.052 36.847138 
L 202.836 41.159676 
L 197.638189 44.68647 
L 193.62 49.022841 
L 190.636365 53.270728 
L 187.95857 61.854986 
L 188.045711 70.439244 
L 190.246832 79.023502 
L 193.62 86.496417 
L 194.153629 87.60776 
L 199.917729 96.192018 
L 202.836 99.762421 
L 207.351849 104.776276 
L 212.052 109.313011 
L 216.869138 113.360534 
L 221.268 116.708705 
L 229.589044 121.944792 
z
" clip-path="url(#pdda438811e)" style="fill: #f8d4bc"/>
   </g>
   <g id="patch_3">
    <path d="M 27.732 276.461437 
L 27.732 10.349437 
" style="fill: none; stroke: #262626; stroke-linejoin: miter; stroke-linecap: square"/>
   </g>
   <g id="patch_4">
    <path d="M 313.428 276.461437 
L 313.428 10.349437 
" style="fill: none; stroke: #262626; stroke-linejoin: miter; stroke-linecap: square"/>
   </g>
   <g id="patch_5">
    <path d="M 27.732 276.461437 
L 313.428 276.461437 
" style="fill: none; stroke: #262626; stroke-linejoin: miter; stroke-linecap: square"/>
   </g>
   <g id="patch_6">
    <path d="M 27.732 10.349437 
L 313.428 10.349437 
" style="fill: none; stroke: #262626; stroke-linejoin: miter; stroke-linecap: square"/>
   </g>
  </g>
  <g id="axes_2">
   <g id="patch_7">
    <path d="M 331.284 276.461437 
L 344.5896 276.461437 
L 344.5896 10.349437 
L 331.284 10.349437 
z
" style="fill: #ffffff"/>
   </g>
   <g id="matplotlib.axis_3"/>
   <g id="matplotlib.axis_4">
    <g id="ytick_7">
     <g id="line2d_13">
      <defs>
       <path id="m6ac2103527" d="M 0 0 
L 4.8 0 
" style="stroke: #262626"/>
      </defs>
      <g>
       <use xlink:href="#m6ac2103527" x="344.5896" y="276.461437" style="fill: #262626; stroke: #262626"/>
      </g>
     </g>
     <g id="text_13">
      <!-- −2.0 -->
      <g style="fill: #262626" transform="translate(352.8896 279.610875) scale(0.088 -0.088)">
       <defs>
        <path id="ArialMT-2212" d="M 3381 1997 
L 356 1997 
L 356 2522 
L 3381 2522 
L 3381 1997 
z
" transform="scale(0.015625)"/>
       </defs>
       <use xlink:href="#ArialMT-2212"/>
       <use xlink:href="#ArialMT-32" x="58.398438"/>
       <use xlink:href="#ArialMT-2e" x="114.013672"/>
       <use xlink:href="#ArialMT-30" x="141.796875"/>
      </g>
     </g>
    </g>
    <g id="ytick_8">
     <g id="line2d_14">
      <g>
       <use xlink:href="#m6ac2103527" x="344.5896" y="243.197437" style="fill: #262626; stroke: #262626"/>
      </g>
     </g>
     <g id="text_14">
      <!-- −1.5 -->
      <g style="fill: #262626" transform="translate(352.8896 246.346875) scale(0.088 -0.088)">
       <defs>
        <path id="ArialMT-35" d="M 266 1200 
L 856 1250 
Q 922 819 1161 601 
Q 1400 384 1738 384 
Q 2144 384 2425 690 
Q 2706 997 2706 1503 
Q 2706 1984 2436 2262 
Q 2166 2541 1728 2541 
Q 1456 2541 1237 2417 
Q 1019 2294 894 2097 
L 366 2166 
L 809 4519 
L 3088 4519 
L 3088 3981 
L 1259 3981 
L 1013 2750 
Q 1425 3038 1878 3038 
Q 2478 3038 2890 2622 
Q 3303 2206 3303 1553 
Q 3303 931 2941 478 
Q 2500 -78 1738 -78 
Q 1113 -78 717 272 
Q 322 622 266 1200 
z
" transform="scale(0.015625)"/>
       </defs>
       <use xlink:href="#ArialMT-2212"/>
       <use xlink:href="#ArialMT-31" x="58.398438"/>
       <use xlink:href="#ArialMT-2e" x="114.013672"/>
       <use xlink:href="#ArialMT-35" x="141.796875"/>
      </g>
     </g>
    </g>
    <g id="ytick_9">
     <g id="line2d_15">
      <g>
       <use xlink:href="#m6ac2103527" x="344.5896" y="209.933437" style="fill: #262626; stroke: #262626"/>
      </g>
     </g>
     <g id="text_15">
      <!-- −1.0 -->
      <g style="fill: #262626" transform="translate(352.8896 213.082875) scale(0.088 -0.088)">
       <use xlink:href="#ArialMT-2212"/>
       <use xlink:href="#ArialMT-31" x="58.398438"/>
       <use xlink:href="#ArialMT-2e" x="114.013672"/>
       <use xlink:href="#ArialMT-30" x="141.796875"/>
      </g>
     </g>
    </g>
    <g id="ytick_10">
     <g id="line2d_16">
      <g>
       <use xlink:href="#m6ac2103527" x="344.5896" y="176.669437" style="fill: #262626; stroke: #262626"/>
      </g>
     </g>
     <g id="text_16">
      <!-- −0.5 -->
      <g style="fill: #262626" transform="translate(352.8896 179.818875) scale(0.088 -0.088)">
       <use xlink:href="#ArialMT-2212"/>
       <use xlink:href="#ArialMT-30" x="58.398438"/>
       <use xlink:href="#ArialMT-2e" x="114.013672"/>
       <use xlink:href="#ArialMT-35" x="141.796875"/>
      </g>
     </g>
    </g>
    <g id="ytick_11">
     <g id="line2d_17">
      <g>
       <use xlink:href="#m6ac2103527" x="344.5896" y="143.405437" style="fill: #262626; stroke: #262626"/>
      </g>
     </g>
     <g id="text_17">
      <!-- 0.0 -->
      <g style="fill: #262626" transform="translate(352.8896 146.554875) scale(0.088 -0.088)">
       <use xlink:href="#ArialMT-30"/>
       <use xlink:href="#ArialMT-2e" x="55.615234"/>
       <use xlink:href="#ArialMT-30" x="83.398438"/>
      </g>
     </g>
    </g>
    <g id="ytick_12">
     <g id="line2d_18">
      <g>
       <use xlink:href="#m6ac2103527" x="344.5896" y="110.141437" style="fill: #262626; stroke: #262626"/>
      </g>
     </g>
     <g id="text_18">
      <!-- 0.5 -->
      <g style="fill: #262626" transform="translate(352.8896 113.290875) scale(0.088 -0.088)">
       <use xlink:href="#ArialMT-30"/>
       <use xlink:href="#ArialMT-2e" x="55.615234"/>
       <use xlink:href="#ArialMT-35" x="83.398438"/>
      </g>
     </g>
    </g>
    <g id="ytick_13">
     <g id="line2d_19">
      <g>
       <use xlink:href="#m6ac2103527" x="344.5896" y="76.877437" style="fill: #262626; stroke: #262626"/>
      </g>
     </g>
     <g id="text_19">
      <!-- 1.0 -->
      <g style="fill: #262626" transform="translate(352.8896 80.026875) scale(0.088 -0.088)">
       <use xlink:href="#ArialMT-31"/>
       <use xlink:href="#ArialMT-2e" x="55.615234"/>
       <use xlink:href="#ArialMT-30" x="83.398438"/>
      </g>
     </g>
    </g>
    <g id="ytick_14">
     <g id="line2d_20">
      <g>
       <use xlink:href="#m6ac2103527" x="344.5896" y="43.613437" style="fill: #262626; stroke: #262626"/>
      </g>
     </g>
     <g id="text_20">
      <!-- 1.5 -->
      <g style="fill: #262626" transform="translate(352.8896 46.762875) scale(0.088 -0.088)">
       <use xlink:href="#ArialMT-31"/>
       <use xlink:href="#ArialMT-2e" x="55.615234"/>
       <use xlink:href="#ArialMT-35" x="83.398438"/>
      </g>
     </g>
    </g>
    <g id="ytick_15">
     <g id="line2d_21">
      <g>
       <use xlink:href="#m6ac2103527" x="344.5896" y="10.349437" style="fill: #262626; stroke: #262626"/>
      </g>
     </g>
     <g id="text_21">
      <!-- 2.0 -->
      <g style="fill: #262626" transform="translate(352.8896 13.498875) scale(0.088 -0.088)">
       <use xlink:href="#ArialMT-32"/>
       <use xlink:href="#ArialMT-2e" x="55.615234"/>
       <use xlink:href="#ArialMT-30" x="83.398438"/>
      </g>
     </g>
    </g>
   </g>
   <g id="QuadMesh_1">
    <path d="M 331.284 276.461437 
L 344.5896 276.461437 
L 344.5896 243.197437 
L 331.284 243.197437 
L 331.284 276.461437 
" clip-path="url(#pe9cbcd61ec)" style="fill: #180f29"/>
    <path d="M 331.284 243.197437 
L 344.5896 243.197437 
L 344.5896 209.933437 
L 331.284 209.933437 
L 331.284 243.197437 
" clip-path="url(#pe9cbcd61ec)" style="fill: #481c48"/>
    <path d="M 331.284 209.933437 
L 344.5896 209.933437 
L 344.5896 176.669437 
L 331.284 176.669437 
L 331.284 209.933437 
" clip-path="url(#pe9cbcd61ec)" style="fill: #7b1f59"/>
    <path d="M 331.284 176.669437 
L 344.5896 176.669437 
L 344.5896 143.405437 
L 331.284 143.405437 
L 331.284 176.669437 
" clip-path="url(#pe9cbcd61ec)" style="fill: #b21758"/>
    <path d="M 331.284 143.405437 
L 344.5896 143.405437 
L 344.5896 110.141437 
L 331.284 110.141437 
L 331.284 143.405437 
" clip-path="url(#pe9cbcd61ec)" style="fill: #df2f44"/>
    <path d="M 331.284 110.141437 
L 344.5896 110.141437 
L 344.5896 76.877437 
L 331.284 76.877437 
L 331.284 110.141437 
" clip-path="url(#pe9cbcd61ec)" style="fill: #f26b49"/>
    <path d="M 331.284 76.877437 
L 344.5896 76.877437 
L 344.5896 43.613437 
L 331.284 43.613437 
L 331.284 76.877437 
" clip-path="url(#pe9cbcd61ec)" style="fill: #f6a37a"/>
    <path d="M 331.284 43.613437 
L 344.5896 43.613437 
L 344.5896 10.349437 
L 331.284 10.349437 
L 331.284 43.613437 
" clip-path="url(#pe9cbcd61ec)" style="fill: #f8d4bc"/>
   </g>
   <g id="LineCollection_1"/>
   <g id="patch_8">
    <path d="M 331.284 276.461437 
L 337.9368 276.461437 
L 344.5896 276.461437 
L 344.5896 10.349437 
L 337.9368 10.349437 
L 331.284 10.349437 
L 331.284 276.461437 
z
" style="fill: none; stroke: #262626; stroke-linejoin: miter; stroke-linecap: square"/>
   </g>
  </g>
 </g>
 <defs>
  <clipPath id="pdda438811e">
   <rect x="27.732" y="10.349437" width="285.696" height="266.112"/>
  </clipPath>
  <clipPath id="pe9cbcd61ec">
   <rect x="331.284" y="10.349437" width="13.3056" height="266.112"/>
  </clipPath>
 </defs>
</svg>