<?xml version="1.0" encoding="utf-8" standalone="no"?>
<!DOCTYPE svg PUBLIC "-//W3C//DTD SVG 1.1//EN"
  "http://www.w3.org/Graphics/SVG/1.1/DTD/svg11.dtd">
<svg xmlns:xlink="http://www.w3.org/1999/xlink" width="220.25125pt" height="167.278875pt" viewBox="0 0 220.25125 167.278875" xmlns="http://www.w3.org/2000/svg" version="1.1">
 <metadata>
  <rdf:RDF xmlns:dc="http://purl.org/dc/elements/1.1/" xmlns:cc="http://creativecommons.org/ns#" xmlns:rdf="http://www.w3.org/1999/02/22-rdf-syntax-ns#">
   <cc:Work>
    <dc:type rdf:resource="http://purl.org/dc/dcmitype/StillImage"/>
    <dc:date>2024-10-17T14:55:41.645571</dc:date>
    <dc:format>image/svg+xml</dc:format>
    <dc:creator>
     <cc:Agent>
      <dc:title>Matplotlib v3.9.2, https://matplotlib.org/</dc:title>
     </cc:Agent>
    </dc:creator>
   </cc:Work>
  </rdf:RDF>
 </metadata>
 <defs>
  <style type="text/css">*{stroke-linejoin: round; stroke-linecap: butt}</style>
 </defs>
 <g id="figure_1">
  <g id="patch_1">
   <path d="M 0 167.278875 
L 220.25125 167.278875 
L 220.25125 0 
L 0 0 
z
" style="fill: #ffffff"/>
  </g>
  <g id="axes_1">
   <g id="patch_2">
    <path d="M 45.65125 130.9515 
L 213.05125 130.9515 
L 213.05125 20.0715 
L 45.65125 20.0715 
z
" style="fill: #ffffff"/>
   </g>
   <g id="matplotlib.axis_1">
    <g id="xtick_1">
     <g id="line2d_1">
      <defs>
       <path id="m70abba361f" d="M 0 0 
L 0 4.8 
" style="stroke: #262626"/>
      </defs>
      <g>
       <use xlink:href="#m70abba361f" x="53.260341" y="130.9515" style="fill: #262626; stroke: #262626"/>
      </g>
     </g>
     <g id="text_1">
      <!-- 0.0 -->
      <g style="fill: #262626" transform="translate(47.144341 145.550375) scale(0.088 -0.088)">
       <defs>
        <path id="ArialMT-30" d="M 266 2259 
Q 266 3072 433 3567 
Q 600 4063 929 4331 
Q 1259 4600 1759 4600 
Q 2128 4600 2406 4451 
Q 2684 4303 2865 4023 
Q 3047 3744 3150 3342 
Q 3253 2941 3253 2259 
Q 3253 1453 3087 958 
Q 2922 463 2592 192 
Q 2263 -78 1759 -78 
Q 1097 -78 719 397 
Q 266 969 266 2259 
z
M 844 2259 
Q 844 1131 1108 757 
Q 1372 384 1759 384 
Q 2147 384 2411 759 
Q 2675 1134 2675 2259 
Q 2675 3391 2411 3762 
Q 2147 4134 1753 4134 
Q 1366 4134 1134 3806 
Q 844 3388 844 2259 
z
" transform="scale(0.015625)"/>
        <path id="ArialMT-2e" d="M 581 0 
L 581 641 
L 1222 641 
L 1222 0 
L 581 0 
z
" transform="scale(0.015625)"/>
       </defs>
       <use xlink:href="#ArialMT-30"/>
       <use xlink:href="#ArialMT-2e" x="55.615234"/>
       <use xlink:href="#ArialMT-30" x="83.398438"/>
      </g>
     </g>
    </g>
    <g id="xtick_2">
     <g id="line2d_2">
      <g>
       <use xlink:href="#m70abba361f" x="83.696705" y="130.9515" style="fill: #262626; stroke: #262626"/>
      </g>
     </g>
     <g id="text_2">
      <!-- 0.2 -->
      <g style="fill: #262626" transform="translate(77.580705 145.550375) scale(0.088 -0.088)">
       <defs>
        <path id="ArialMT-32" d="M 3222 541 
L 3222 0 
L 194 0 
Q 188 203 259 391 
Q 375 700 629 1000 
Q 884 1300 1366 1694 
Q 2113 2306 2375 2664 
Q 2638 3022 2638 3341 
Q 2638 3675 2398 3904 
Q 2159 4134 1775 4134 
Q 1369 4134 1125 3890 
Q 881 3647 878 3216 
L 300 3275 
Q 359 3922 746 4261 
Q 1134 4600 1788 4600 
Q 2447 4600 2831 4234 
Q 3216 3869 3216 3328 
Q 3216 3053 3103 2787 
Q 2991 2522 2730 2228 
Q 2469 1934 1863 1422 
Q 1356 997 1212 845 
Q 1069 694 975 541 
L 3222 541 
z
" transform="scale(0.015625)"/>
       </defs>
       <use xlink:href="#ArialMT-30"/>
       <use xlink:href="#ArialMT-2e" x="55.615234"/>
       <use xlink:href="#ArialMT-32" x="83.398438"/>
      </g>
     </g>
    </g>
    <g id="xtick_3">
     <g id="line2d_3">
      <g>
       <use xlink:href="#m70abba361f" x="114.133068" y="130.9515" style="fill: #262626; stroke: #262626"/>
      </g>
     </g>
     <g id="text_3">
      <!-- 0.4 -->
      <g style="fill: #262626" transform="translate(108.017068 145.550375) scale(0.088 -0.088)">
       <defs>
        <path id="ArialMT-34" d="M 2069 0 
L 2069 1097 
L 81 1097 
L 81 1613 
L 2172 4581 
L 2631 4581 
L 2631 1613 
L 3250 1613 
L 3250 1097 
L 2631 1097 
L 2631 0 
L 2069 0 
z
M 2069 1613 
L 2069 3678 
L 634 1613 
L 2069 1613 
z
" transform="scale(0.015625)"/>
       </defs>
       <use xlink:href="#ArialMT-30"/>
       <use xlink:href="#ArialMT-2e" x="55.615234"/>
       <use xlink:href="#ArialMT-34" x="83.398438"/>
      </g>
     </g>
    </g>
    <g id="xtick_4">
     <g id="line2d_4">
      <g>
       <use xlink:href="#m70abba361f" x="144.569432" y="130.9515" style="fill: #262626; stroke: #262626"/>
      </g>
     </g>
     <g id="text_4">
      <!-- 0.6 -->
      <g style="fill: #262626" transform="translate(138.453432 145.550375) scale(0.088 -0.088)">
       <defs>
        <path id="ArialMT-36" d="M 3184 3459 
L 2625 3416 
Q 2550 3747 2413 3897 
Q 2184 4138 1850 4138 
Q 1581 4138 1378 3988 
Q 1113 3794 959 3422 
Q 806 3050 800 2363 
Q 1003 2672 1297 2822 
Q 1591 2972 1913 2972 
Q 2475 2972 2870 2558 
Q 3266 2144 3266 1488 
Q 3266 1056 3080 686 
Q 2894 316 2569 119 
Q 2244 -78 1831 -78 
Q 1128 -78 684 439 
Q 241 956 241 2144 
Q 241 3472 731 4075 
Q 1159 4600 1884 4600 
Q 2425 4600 2770 4297 
Q 3116 3994 3184 3459 
z
M 888 1484 
Q 888 1194 1011 928 
Q 1134 663 1356 523 
Q 1578 384 1822 384 
Q 2178 384 2434 671 
Q 2691 959 2691 1453 
Q 2691 1928 2437 2201 
Q 2184 2475 1800 2475 
Q 1419 2475 1153 2201 
Q 888 1928 888 1484 
z
" transform="scale(0.015625)"/>
       </defs>
       <use xlink:href="#ArialMT-30"/>
       <use xlink:href="#ArialMT-2e" x="55.615234"/>
       <use xlink:href="#ArialMT-36" x="83.398438"/>
      </g>
     </g>
    </g>
    <g id="xtick_5">
     <g id="line2d_5">
      <g>
       <use xlink:href="#m70abba361f" x="175.005795" y="130.9515" style="fill: #262626; stroke: #262626"/>
      </g>
     </g>
     <g id="text_5">
      <!-- 0.8 -->
      <g style="fill: #262626" transform="translate(168.889795 145.550375) scale(0.088 -0.088)">
       <defs>
        <path id="ArialMT-38" d="M 1131 2484 
Q 781 2613 612 2850 
Q 444 3088 444 3419 
Q 444 3919 803 4259 
Q 1163 4600 1759 4600 
Q 2359 4600 2725 4251 
Q 3091 3903 3091 3403 
Q 3091 3084 2923 2848 
Q 2756 2613 2416 2484 
Q 2838 2347 3058 2040 
Q 3278 1734 3278 1309 
Q 3278 722 2862 322 
Q 2447 -78 1769 -78 
Q 1091 -78 675 323 
Q 259 725 259 1325 
Q 259 1772 486 2073 
Q 713 2375 1131 2484 
z
M 1019 3438 
Q 1019 3113 1228 2906 
Q 1438 2700 1772 2700 
Q 2097 2700 2305 2904 
Q 2513 3109 2513 3406 
Q 2513 3716 2298 3927 
Q 2084 4138 1766 4138 
Q 1444 4138 1231 3931 
Q 1019 3725 1019 3438 
z
M 838 1322 
Q 838 1081 952 856 
Q 1066 631 1291 507 
Q 1516 384 1775 384 
Q 2178 384 2440 643 
Q 2703 903 2703 1303 
Q 2703 1709 2433 1975 
Q 2163 2241 1756 2241 
Q 1359 2241 1098 1978 
Q 838 1716 838 1322 
z
" transform="scale(0.015625)"/>
       </defs>
       <use xlink:href="#ArialMT-30"/>
       <use xlink:href="#ArialMT-2e" x="55.615234"/>
       <use xlink:href="#ArialMT-38" x="83.398438"/>
      </g>
     </g>
    </g>
    <g id="xtick_6">
     <g id="line2d_6">
      <g>
       <use xlink:href="#m70abba361f" x="205.442159" y="130.9515" style="fill: #262626; stroke: #262626"/>
      </g>
     </g>
     <g id="text_6">
      <!-- 1.0 -->
      <g style="fill: #262626" transform="translate(199.326159 145.550375) scale(0.088 -0.088)">
       <defs>
        <path id="ArialMT-31" d="M 2384 0 
L 1822 0 
L 1822 3584 
Q 1619 3391 1289 3197 
Q 959 3003 697 2906 
L 697 3450 
Q 1169 3672 1522 3987 
Q 1875 4303 2022 4600 
L 2384 4600 
L 2384 0 
z
" transform="scale(0.015625)"/>
       </defs>
       <use xlink:href="#ArialMT-31"/>
       <use xlink:href="#ArialMT-2e" x="55.615234"/>
       <use xlink:href="#ArialMT-30" x="83.398438"/>
      </g>
     </g>
    </g>
    <g id="text_7">
     <!-- $x$ -->
     <g style="fill: #262626" transform="translate(126.47125 158.170875) scale(0.096 -0.096)">
      <defs>
       <path id="DejaVuSans-Oblique-78" d="M 3841 3500 
L 2234 1784 
L 3219 0 
L 2559 0 
L 1819 1388 
L 531 0 
L -166 0 
L 1556 1844 
L 641 3500 
L 1300 3500 
L 1972 2234 
L 3144 3500 
L 3841 3500 
z
" transform="scale(0.015625)"/>
      </defs>
      <use xlink:href="#DejaVuSans-Oblique-78" transform="translate(0 0.3125)"/>
     </g>
    </g>
   </g>
   <g id="matplotlib.axis_2">
    <g id="ytick_1">
     <g id="line2d_7">
      <defs>
       <path id="m9340b43abd" d="M 0 0 
L -4.8 0 
" style="stroke: #262626"/>
      </defs>
      <g>
       <use xlink:href="#m9340b43abd" x="45.65125" y="129.217129" style="fill: #262626; stroke: #262626"/>
      </g>
     </g>
     <g id="text_8">
      <!-- −0.5 -->
      <g style="fill: #262626" transform="translate(19.9795 132.366566) scale(0.088 -0.088)">
       <defs>
        <path id="ArialMT-2212" d="M 3381 1997 
L 356 1997 
L 356 2522 
L 3381 2522 
L 3381 1997 
z
" transform="scale(0.015625)"/>
        <path id="ArialMT-35" d="M 266 1200 
L 856 1250 
Q 922 819 1161 601 
Q 1400 384 1738 384 
Q 2144 384 2425 690 
Q 2706 997 2706 1503 
Q 2706 1984 2436 2262 
Q 2166 2541 1728 2541 
Q 1456 2541 1237 2417 
Q 1019 2294 894 2097 
L 366 2166 
L 809 4519 
L 3088 4519 
L 3088 3981 
L 1259 3981 
L 1013 2750 
Q 1425 3038 1878 3038 
Q 2478 3038 2890 2622 
Q 3303 2206 3303 1553 
Q 3303 931 2941 478 
Q 2500 -78 1738 -78 
Q 1113 -78 717 272 
Q 322 622 266 1200 
z
" transform="scale(0.015625)"/>
       </defs>
       <use xlink:href="#ArialMT-2212"/>
       <use xlink:href="#ArialMT-30" x="58.398438"/>
       <use xlink:href="#ArialMT-2e" x="114.013672"/>
       <use xlink:href="#ArialMT-35" x="141.796875"/>
      </g>
     </g>
    </g>
    <g id="ytick_2">
     <g id="line2d_8">
      <g>
       <use xlink:href="#m9340b43abd" x="45.65125" y="106.584383" style="fill: #262626; stroke: #262626"/>
      </g>
     </g>
     <g id="text_9">
      <!-- 0.0 -->
      <g style="fill: #262626" transform="translate(25.11925 109.73382) scale(0.088 -0.088)">
       <use xlink:href="#ArialMT-30"/>
       <use xlink:href="#ArialMT-2e" x="55.615234"/>
       <use xlink:href="#ArialMT-30" x="83.398438"/>
      </g>
     </g>
    </g>
    <g id="ytick_3">
     <g id="line2d_9">
      <g>
       <use xlink:href="#m9340b43abd" x="45.65125" y="83.951637" style="fill: #262626; stroke: #262626"/>
      </g>
     </g>
     <g id="text_10">
      <!-- 0.5 -->
      <g style="fill: #262626" transform="translate(25.11925 87.101075) scale(0.088 -0.088)">
       <use xlink:href="#ArialMT-30"/>
       <use xlink:href="#ArialMT-2e" x="55.615234"/>
       <use xlink:href="#ArialMT-35" x="83.398438"/>
      </g>
     </g>
    </g>
    <g id="ytick_4">
     <g id="line2d_10">
      <g>
       <use xlink:href="#m9340b43abd" x="45.65125" y="61.318891" style="fill: #262626; stroke: #262626"/>
      </g>
     </g>
     <g id="text_11">
      <!-- 1.0 -->
      <g style="fill: #262626" transform="translate(25.11925 64.468329) scale(0.088 -0.088)">
       <use xlink:href="#ArialMT-31"/>
       <use xlink:href="#ArialMT-2e" x="55.615234"/>
       <use xlink:href="#ArialMT-30" x="83.398438"/>
      </g>
     </g>
    </g>
    <g id="ytick_5">
     <g id="line2d_11">
      <g>
       <use xlink:href="#m9340b43abd" x="45.65125" y="38.686145" style="fill: #262626; stroke: #262626"/>
      </g>
     </g>
     <g id="text_12">
      <!-- 1.5 -->
      <g style="fill: #262626" transform="translate(25.11925 41.835583) scale(0.088 -0.088)">
       <use xlink:href="#ArialMT-31"/>
       <use xlink:href="#ArialMT-2e" x="55.615234"/>
       <use xlink:href="#ArialMT-35" x="83.398438"/>
      </g>
     </g>
    </g>
    <g id="text_13">
     <!-- $y$ -->
     <g style="fill: #262626" transform="translate(13.9635 78.3915) rotate(-90) scale(0.096 -0.096)">
      <defs>
       <path id="DejaVuSans-Oblique-79" d="M 1588 -325 
Q 1188 -997 936 -1164 
Q 684 -1331 294 -1331 
L -159 -1331 
L -63 -850 
L 269 -850 
Q 509 -850 678 -719 
Q 847 -588 1056 -206 
L 1234 128 
L 459 3500 
L 1069 3500 
L 1650 819 
L 3256 3500 
L 3859 3500 
L 1588 -325 
z
" transform="scale(0.015625)"/>
      </defs>
      <use xlink:href="#DejaVuSans-Oblique-79" transform="translate(0 0.3125)"/>
     </g>
    </g>
   </g>
   <g id="PolyCollection_1">
    <defs>
     <path id="mceef4ce775" d="M 53.260341 -67.396274 
L 53.260341 -54.64165 
L 54.797531 -55.227622 
L 56.334721 -55.649976 
L 57.871911 -56.030164 
L 59.409101 -56.458896 
L 60.946291 -56.992464 
L 62.483481 -57.65994 
L 64.020671 -58.471192 
L 65.557862 -59.422984 
L 67.095052 -60.503435 
L 68.632242 -61.695792 
L 70.169432 -62.982357 
L 71.706622 -64.348973 
L 73.243812 -65.789644 
L 74.781002 -67.309923 
L 76.318192 -68.927504 
L 77.855382 -70.669458 
L 79.392572 -72.567188 
L 80.929762 -74.650934 
L 82.466952 -76.945195 
L 84.004143 -79.465524 
L 85.541333 -82.216545 
L 87.078523 -85.19083 
L 88.615713 -88.368429 
L 90.152903 -91.71696 
L 91.690093 -95.192368 
L 93.227283 -98.740629 
L 94.764473 -102.30068 
L 96.301663 -105.808654 
L 97.838853 -109.202854 
L 99.376043 -112.428117 
L 100.913233 -115.438026 
L 102.450424 -118.194317 
L 103.987614 -120.664241 
L 105.524804 -122.817422 
L 107.061994 -124.623413 
L 108.599184 -126.050361 
L 110.136374 -127.06465 
L 111.673564 -127.631174 
L 113.210754 -127.713945 
L 114.747944 -127.276873 
L 116.285134 -126.284781 
L 117.822324 -124.704935 
L 119.359514 -122.509731 
L 120.896705 -119.681302 
L 122.433895 -116.218238 
L 123.971085 -112.142975 
L 125.508275 -107.506605 
L 127.045465 -102.388271 
L 128.582655 -96.889431 
L 130.119845 -91.125959 
L 131.657035 -85.220954 
L 133.194225 -79.299339 
L 134.731415 -73.483991 
L 136.268605 -67.892764 
L 137.805795 -62.635885 
L 139.342986 -57.813453 
L 140.880176 -53.512908 
L 142.417366 -49.806437 
L 143.954556 -46.748377 
L 145.491746 -44.372854 
L 147.028936 -42.69232 
L 148.566126 -41.698427 
L 150.103316 -41.367375 
L 151.640506 -41.670863 
L 153.177696 -42.589166 
L 154.714886 -44.117958 
L 156.252076 -46.263513 
L 157.789267 -49.030638 
L 159.326457 -52.411719 
L 160.863647 -56.380951 
L 162.400837 -60.89302 
L 163.938027 -65.884202 
L 165.475217 -71.274427 
L 167.012407 -76.969563 
L 168.549597 -82.863616 
L 170.086787 -88.840703 
L 171.623977 -94.7767 
L 173.161167 -100.540506 
L 174.698357 -105.995047 
L 176.235548 -110.998683 
L 177.772738 -115.408876 
L 179.309928 -119.091412 
L 180.847118 -121.937477 
L 182.384308 -123.883526 
L 183.921498 -124.920416 
L 185.458688 -125.084228 
L 186.995878 -124.437693 
L 188.533068 -123.055111 
L 190.070258 -121.014697 
L 191.607448 -118.395783 
L 193.144638 -115.277714 
L 194.681829 -111.738655 
L 196.219019 -107.853443 
L 197.756209 -103.689825 
L 199.293399 -99.302027 
L 200.830589 -94.719704 
L 202.367779 -89.92972 
L 203.904969 -84.852928 
L 205.442159 -79.342908 
L 205.442159 -92.118049 
L 205.442159 -92.118049 
L 203.904969 -97.824533 
L 202.367779 -103.843271 
L 200.830589 -109.868621 
L 199.293399 -115.65987 
L 197.756209 -121.04303 
L 196.219019 -125.890804 
L 194.681829 -130.107645 
L 193.144638 -133.621979 
L 191.607448 -136.382971 
L 190.070258 -138.359811 
L 188.533068 -139.542364 
L 186.995878 -139.942475 
L 185.458688 -139.594961 
L 183.921498 -138.556465 
L 182.384308 -136.898946 
L 180.847118 -134.695172 
L 179.309928 -132.000151 
L 177.772738 -128.841341 
L 176.235548 -125.226562 
L 174.698357 -121.162048 
L 173.161167 -116.667138 
L 171.623977 -111.780591 
L 170.086787 -106.560869 
L 168.549597 -101.083778 
L 167.012407 -95.439378 
L 165.475217 -89.72895 
L 163.938027 -84.06221 
L 162.400837 -78.554844 
L 160.863647 -73.326361 
L 159.326457 -68.498219 
L 157.789267 -64.192035 
L 156.252076 -60.527215 
L 154.714886 -57.616651 
L 153.177696 -55.558506 
L 151.640506 -54.423432 
L 150.103316 -54.241321 
L 148.566126 -54.996002 
L 147.028936 -56.632251 
L 145.491746 -59.069734 
L 143.954556 -62.215469 
L 142.417366 -65.971308 
L 140.880176 -70.237483 
L 139.342986 -74.91431 
L 137.805795 -79.903381 
L 136.268605 -85.108828 
L 134.731415 -90.438801 
L 133.194225 -95.807106 
L 131.657035 -101.134872 
L 130.119845 -106.352024 
L 128.582655 -111.398172 
L 127.045465 -116.222326 
L 125.508275 -120.780717 
L 123.971085 -125.032387 
L 122.433895 -128.933582 
L 120.896705 -132.433786 
L 119.359514 -135.47633 
L 117.822324 -138.003844 
L 116.285134 -139.965744 
L 114.747944 -141.324504 
L 113.210754 -142.059317 
L 111.673564 -142.167375 
L 110.136374 -141.663597 
L 108.599184 -140.579496 
L 107.061994 -138.961563 
L 105.524804 -136.869271 
L 103.987614 -134.372642 
L 102.450424 -131.549141 
L 100.913233 -128.479631 
L 99.376043 -125.243317 
L 97.838853 -121.912156 
L 96.301663 -118.546002 
L 94.764473 -115.190038 
L 93.227283 -111.875322 
L 91.690093 -108.621807 
L 90.152903 -105.442299 
L 88.615713 -102.346011 
L 87.078523 -99.341148 
L 85.541333 -96.436575 
L 84.004143 -93.642832 
L 82.466952 -90.972739 
L 80.929762 -88.441655 
L 79.392572 -86.067288 
L 77.855382 -83.868762 
L 76.318192 -81.864572 
L 74.781002 -80.06922 
L 73.243812 -78.488945 
L 71.706622 -77.11788 
L 70.169432 -75.936432 
L 68.632242 -74.912923 
L 67.095052 -74.007931 
L 65.557862 -73.179715 
L 64.020671 -72.389373 
L 62.483481 -71.605291 
L 60.946291 -70.80728 
L 59.409101 -69.99126 
L 57.871911 -69.175435 
L 56.334721 -68.408266 
L 54.797531 -67.775508 
L 53.260341 -67.396274 
z
" style="stroke: #ffffff; stroke-opacity: 0.2; stroke-width: 0.8"/>
    </defs>
    <g clip-path="url(#p5fc1503dd0)">
     <use xlink:href="#mceef4ce775" x="0" y="167.278875" style="fill: #1f77b4; fill-opacity: 0.2; stroke: #ffffff; stroke-opacity: 0.2; stroke-width: 0.8"/>
    </g>
   </g>
   <g id="PathCollection_1">
    <defs>
     <path id="m7b60b942c5" d="M 0 2.4 
C 0.636487 2.4 1.246992 2.147121 1.697056 1.697056 
C 2.147121 1.246992 2.4 0.636487 2.4 0 
C 2.4 -0.636487 2.147121 -1.246992 1.697056 -1.697056 
C 1.246992 -2.147121 0.636487 -2.4 0 -2.4 
C -0.636487 -2.4 -1.246992 -2.147121 -1.697056 -1.697056 
C -2.147121 -1.246992 -2.4 -0.636487 -2.4 0 
C -2.4 0.636487 -2.147121 1.246992 -1.697056 1.697056 
C -1.246992 2.147121 -0.636487 2.4 0 2.4 
z
" style="stroke: #ff7f0e; stroke-width: 0.8"/>
    </defs>
    <g clip-path="url(#p5fc1503dd0)">
     <use xlink:href="#m7b60b942c5" x="97.731752" y="52.495765" style="fill: #ff7f0e; stroke: #ff7f0e; stroke-width: 0.8"/>
     <use xlink:href="#m7b60b942c5" x="205.43873" y="82.141245" style="fill: #ff7f0e; stroke: #ff7f0e; stroke-width: 0.8"/>
     <use xlink:href="#m7b60b942c5" x="151.585239" y="120.546246" style="fill: #ff7f0e; stroke: #ff7f0e; stroke-width: 0.8"/>
     <use xlink:href="#m7b60b942c5" x="53.260345" y="106.446028" style="fill: #ff7f0e; stroke: #ff7f0e; stroke-width: 0.8"/>
     <use xlink:href="#m7b60b942c5" x="180.650712" y="38.042709" style="fill: #ff7f0e; stroke: #ff7f0e; stroke-width: 0.8"/>
     <use xlink:href="#m7b60b942c5" x="122.724389" y="44.308981" style="fill: #ff7f0e; stroke: #ff7f0e; stroke-width: 0.8"/>
     <use xlink:href="#m7b60b942c5" x="73.286246" y="94.805552" style="fill: #ff7f0e; stroke: #ff7f0e; stroke-width: 0.8"/>
    </g>
   </g>
   <g id="line2d_12">
    <path d="M 53.260341 106.259913 
L 54.797531 105.77731 
L 56.334721 105.249754 
L 57.871911 104.676076 
L 59.409101 104.053797 
L 60.946291 103.379003 
L 62.483481 102.64626 
L 64.020671 101.848593 
L 65.557862 100.977526 
L 67.095052 100.023192 
L 68.632242 98.974517 
L 70.169432 97.819481 
L 71.706622 96.545448 
L 73.243812 95.13958 
L 74.781002 93.589304 
L 76.318192 91.882837 
L 77.855382 90.009765 
L 79.392572 87.961637 
L 80.929762 85.73258 
L 82.466952 83.319908 
L 84.004143 80.724697 
L 85.541333 77.952315 
L 87.078523 75.012886 
L 88.615713 71.921655 
L 90.152903 68.699245 
L 91.690093 65.371787 
L 93.227283 61.9709 
L 94.764473 58.533516 
L 96.301663 55.101547 
L 97.838853 51.72137 
L 99.376043 48.443158 
L 100.913233 45.320046 
L 102.450424 42.407146 
L 103.987614 39.760433 
L 105.524804 37.435528 
L 107.061994 35.486387 
L 108.599184 33.963946 
L 110.136374 32.914752 
L 111.673564 32.3796 
L 113.210754 32.392244 
L 114.747944 32.978187 
L 116.285134 34.153613 
L 117.822324 35.924486 
L 119.359514 38.285845 
L 120.896705 41.221331 
L 122.433895 44.702965 
L 123.971085 48.691194 
L 125.508275 53.135214 
L 127.045465 57.973577 
L 128.582655 63.135074 
L 130.119845 68.539884 
L 131.657035 74.100962 
L 133.194225 79.725653 
L 134.731415 85.317479 
L 136.268605 90.778079 
L 137.805795 96.009242 
L 139.342986 100.914993 
L 140.880176 105.403679 
L 142.417366 109.390002 
L 143.954556 112.796952 
L 145.491746 115.557581 
L 147.028936 117.616589 
L 148.566126 118.931661 
L 150.103316 119.474527 
L 151.640506 119.231727 
L 153.177696 118.205039 
L 154.714886 116.411571 
L 156.252076 113.883511 
L 157.789267 110.667538 
L 159.326457 106.823906 
L 160.863647 102.425219 
L 162.400837 97.554943 
L 163.938027 92.305669 
L 165.475217 86.777186 
L 167.012407 81.074404 
L 168.549597 75.305178 
L 170.086787 69.578089 
L 171.623977 64.00023 
L 173.161167 58.675053 
L 174.698357 53.700328 
L 176.235548 49.166253 
L 177.772738 45.153766 
L 179.309928 41.733093 
L 180.847118 38.962551 
L 182.384308 36.887639 
L 183.921498 35.540434 
L 185.458688 34.939281 
L 186.995878 35.088791 
L 188.533068 35.980138 
L 190.070258 37.591621 
L 191.607448 39.889498 
L 193.144638 42.829029 
L 194.681829 46.355725 
L 196.219019 50.406751 
L 197.756209 54.912447 
L 199.293399 59.797926 
L 200.830589 64.984713 
L 202.367779 70.392379 
L 203.904969 75.940144 
L 205.442159 81.548396 
" clip-path="url(#p5fc1503dd0)" style="fill: none; stroke: #1f77b4; stroke-width: 1.2; stroke-linecap: round"/>
   </g>
   <g id="line2d_13">
    <path d="M 166.332785 130.9515 
L 166.332785 20.0715 
" clip-path="url(#p5fc1503dd0)" style="fill: none; stroke-dasharray: 4.44,1.92; stroke-dashoffset: 0; stroke: #ff0000; stroke-width: 1.2"/>
   </g>
   <g id="patch_3">
    <path d="M 45.65125 129.217129 
L 45.65125 38.686145 
" style="fill: none; stroke: #262626; stroke-linejoin: miter; stroke-linecap: square"/>
   </g>
   <g id="patch_4">
    <path d="M 53.260341 130.9515 
L 205.442159 130.9515 
" style="fill: none; stroke: #262626; stroke-linejoin: miter; stroke-linecap: square"/>
   </g>
   <g id="text_14">
    <!-- $N=7$ -->
    <g style="fill: #262626" transform="translate(116.77525 14.0715) scale(0.096 -0.096)">
     <defs>
      <path id="DejaVuSans-Oblique-4e" d="M 1081 4666 
L 1931 4666 
L 3219 666 
L 4000 4666 
L 4616 4666 
L 3706 0 
L 2853 0 
L 1569 4025 
L 788 0 
L 172 0 
L 1081 4666 
z
" transform="scale(0.015625)"/>
      <path id="DejaVuSans-3d" d="M 678 2906 
L 4684 2906 
L 4684 2381 
L 678 2381 
L 678 2906 
z
M 678 1631 
L 4684 1631 
L 4684 1100 
L 678 1100 
L 678 1631 
z
" transform="scale(0.015625)"/>
      <path id="DejaVuSans-37" d="M 525 4666 
L 3525 4666 
L 3525 4397 
L 1831 0 
L 1172 0 
L 2766 4134 
L 525 4134 
L 525 4666 
z
" transform="scale(0.015625)"/>
     </defs>
     <use xlink:href="#DejaVuSans-Oblique-4e" transform="translate(0 0.09375)"/>
     <use xlink:href="#DejaVuSans-3d" transform="translate(94.287109 0.09375)"/>
     <use xlink:href="#DejaVuSans-37" transform="translate(197.558594 0.09375)"/>
    </g>
   </g>
  </g>
 </g>
 <defs>
  <clipPath id="p5fc1503dd0">
   <rect x="45.65125" y="20.0715" width="167.4" height="110.88"/>
  </clipPath>
 </defs>
</svg>