<?xml version="1.0" encoding="utf-8" standalone="no"?>
<!DOCTYPE svg PUBLIC "-//W3C//DTD SVG 1.1//EN"
  "http://www.w3.org/Graphics/SVG/1.1/DTD/svg11.dtd">
<svg xmlns:xlink="http://www.w3.org/1999/xlink" width="212.912875pt" height="167.278875pt" viewBox="0 0 212.912875 167.278875" xmlns="http://www.w3.org/2000/svg" version="1.1">
 <metadata>
  <rdf:RDF xmlns:dc="http://purl.org/dc/elements/1.1/" xmlns:cc="http://creativecommons.org/ns#" xmlns:rdf="http://www.w3.org/1999/02/22-rdf-syntax-ns#">
   <cc:Work>
    <dc:type rdf:resource="http://purl.org/dc/dcmitype/StillImage"/>
    <dc:date>2025-02-27T12:25:13.170292</dc:date>
    <dc:format>image/svg+xml</dc:format>
    <dc:creator>
     <cc:Agent>
      <dc:title>Matplotlib v3.9.2, https://matplotlib.org/</dc:title>
     </cc:Agent>
    </dc:creator>
   </cc:Work>
  </rdf:RDF>
 </metadata>
 <defs>
  <style type="text/css">*{stroke-linejoin: round; stroke-linecap: butt}</style>
 </defs>
 <g id="figure_1">
  <g id="patch_1">
   <path d="M 0 167.278875 
L 212.912875 167.278875 
L 212.912875 0 
L 0 0 
z
" style="fill: #ffffff"/>
  </g>
  <g id="axes_1">
   <g id="patch_2">
    <path d="M 38.312875 130.9515 
L 205.712875 130.9515 
L 205.712875 20.0715 
L 38.312875 20.0715 
z
" style="fill: #ffffff"/>
   </g>
   <g id="matplotlib.axis_1">
    <g id="xtick_1">
     <g id="line2d_1">
      <defs>
       <path id="m5bab4c987a" d="M 0 0 
L 0 4.8 
" style="stroke: #262626"/>
      </defs>
      <g>
       <use xlink:href="#m5bab4c987a" x="45.921966" y="130.9515" style="fill: #262626; stroke: #262626"/>
      </g>
     </g>
     <g id="text_1">
      <!-- 0.0 -->
      <g style="fill: #262626" transform="translate(39.805966 145.550375) scale(0.088 -0.088)">
       <defs>
        <path id="ArialMT-30" d="M 266 2259 
Q 266 3072 433 3567 
Q 600 4063 929 4331 
Q 1259 4600 1759 4600 
Q 2128 4600 2406 4451 
Q 2684 4303 2865 4023 
Q 3047 3744 3150 3342 
Q 3253 2941 3253 2259 
Q 3253 1453 3087 958 
Q 2922 463 2592 192 
Q 2263 -78 1759 -78 
Q 1097 -78 719 397 
Q 266 969 266 2259 
z
M 844 2259 
Q 844 1131 1108 757 
Q 1372 384 1759 384 
Q 2147 384 2411 759 
Q 2675 1134 2675 2259 
Q 2675 3391 2411 3762 
Q 2147 4134 1753 4134 
Q 1366 4134 1134 3806 
Q 844 3388 844 2259 
z
" transform="scale(0.015625)"/>
        <path id="ArialMT-2e" d="M 581 0 
L 581 641 
L 1222 641 
L 1222 0 
L 581 0 
z
" transform="scale(0.015625)"/>
       </defs>
       <use xlink:href="#ArialMT-30"/>
       <use xlink:href="#ArialMT-2e" x="55.615234"/>
       <use xlink:href="#ArialMT-30" x="83.398438"/>
      </g>
     </g>
    </g>
    <g id="xtick_2">
     <g id="line2d_2">
      <g>
       <use xlink:href="#m5bab4c987a" x="76.35833" y="130.9515" style="fill: #262626; stroke: #262626"/>
      </g>
     </g>
     <g id="text_2">
      <!-- 0.2 -->
      <g style="fill: #262626" transform="translate(70.24233 145.550375) scale(0.088 -0.088)">
       <defs>
        <path id="ArialMT-32" d="M 3222 541 
L 3222 0 
L 194 0 
Q 188 203 259 391 
Q 375 700 629 1000 
Q 884 1300 1366 1694 
Q 2113 2306 2375 2664 
Q 2638 3022 2638 3341 
Q 2638 3675 2398 3904 
Q 2159 4134 1775 4134 
Q 1369 4134 1125 3890 
Q 881 3647 878 3216 
L 300 3275 
Q 359 3922 746 4261 
Q 1134 4600 1788 4600 
Q 2447 4600 2831 4234 
Q 3216 3869 3216 3328 
Q 3216 3053 3103 2787 
Q 2991 2522 2730 2228 
Q 2469 1934 1863 1422 
Q 1356 997 1212 845 
Q 1069 694 975 541 
L 3222 541 
z
" transform="scale(0.015625)"/>
       </defs>
       <use xlink:href="#ArialMT-30"/>
       <use xlink:href="#ArialMT-2e" x="55.615234"/>
       <use xlink:href="#ArialMT-32" x="83.398438"/>
      </g>
     </g>
    </g>
    <g id="xtick_3">
     <g id="line2d_3">
      <g>
       <use xlink:href="#m5bab4c987a" x="106.794693" y="130.9515" style="fill: #262626; stroke: #262626"/>
      </g>
     </g>
     <g id="text_3">
      <!-- 0.4 -->
      <g style="fill: #262626" transform="translate(100.678693 145.550375) scale(0.088 -0.088)">
       <defs>
        <path id="ArialMT-34" d="M 2069 0 
L 2069 1097 
L 81 1097 
L 81 1613 
L 2172 4581 
L 2631 4581 
L 2631 1613 
L 3250 1613 
L 3250 1097 
L 2631 1097 
L 2631 0 
L 2069 0 
z
M 2069 1613 
L 2069 3678 
L 634 1613 
L 2069 1613 
z
" transform="scale(0.015625)"/>
       </defs>
       <use xlink:href="#ArialMT-30"/>
       <use xlink:href="#ArialMT-2e" x="55.615234"/>
       <use xlink:href="#ArialMT-34" x="83.398438"/>
      </g>
     </g>
    </g>
    <g id="xtick_4">
     <g id="line2d_4">
      <g>
       <use xlink:href="#m5bab4c987a" x="137.231057" y="130.9515" style="fill: #262626; stroke: #262626"/>
      </g>
     </g>
     <g id="text_4">
      <!-- 0.6 -->
      <g style="fill: #262626" transform="translate(131.115057 145.550375) scale(0.088 -0.088)">
       <defs>
        <path id="ArialMT-36" d="M 3184 3459 
L 2625 3416 
Q 2550 3747 2413 3897 
Q 2184 4138 1850 4138 
Q 1581 4138 1378 3988 
Q 1113 3794 959 3422 
Q 806 3050 800 2363 
Q 1003 2672 1297 2822 
Q 1591 2972 1913 2972 
Q 2475 2972 2870 2558 
Q 3266 2144 3266 1488 
Q 3266 1056 3080 686 
Q 2894 316 2569 119 
Q 2244 -78 1831 -78 
Q 1128 -78 684 439 
Q 241 956 241 2144 
Q 241 3472 731 4075 
Q 1159 4600 1884 4600 
Q 2425 4600 2770 4297 
Q 3116 3994 3184 3459 
z
M 888 1484 
Q 888 1194 1011 928 
Q 1134 663 1356 523 
Q 1578 384 1822 384 
Q 2178 384 2434 671 
Q 2691 959 2691 1453 
Q 2691 1928 2437 2201 
Q 2184 2475 1800 2475 
Q 1419 2475 1153 2201 
Q 888 1928 888 1484 
z
" transform="scale(0.015625)"/>
       </defs>
       <use xlink:href="#ArialMT-30"/>
       <use xlink:href="#ArialMT-2e" x="55.615234"/>
       <use xlink:href="#ArialMT-36" x="83.398438"/>
      </g>
     </g>
    </g>
    <g id="xtick_5">
     <g id="line2d_5">
      <g>
       <use xlink:href="#m5bab4c987a" x="167.66742" y="130.9515" style="fill: #262626; stroke: #262626"/>
      </g>
     </g>
     <g id="text_5">
      <!-- 0.8 -->
      <g style="fill: #262626" transform="translate(161.55142 145.550375) scale(0.088 -0.088)">
       <defs>
        <path id="ArialMT-38" d="M 1131 2484 
Q 781 2613 612 2850 
Q 444 3088 444 3419 
Q 444 3919 803 4259 
Q 1163 4600 1759 4600 
Q 2359 4600 2725 4251 
Q 3091 3903 3091 3403 
Q 3091 3084 2923 2848 
Q 2756 2613 2416 2484 
Q 2838 2347 3058 2040 
Q 3278 1734 3278 1309 
Q 3278 722 2862 322 
Q 2447 -78 1769 -78 
Q 1091 -78 675 323 
Q 259 725 259 1325 
Q 259 1772 486 2073 
Q 713 2375 1131 2484 
z
M 1019 3438 
Q 1019 3113 1228 2906 
Q 1438 2700 1772 2700 
Q 2097 2700 2305 2904 
Q 2513 3109 2513 3406 
Q 2513 3716 2298 3927 
Q 2084 4138 1766 4138 
Q 1444 4138 1231 3931 
Q 1019 3725 1019 3438 
z
M 838 1322 
Q 838 1081 952 856 
Q 1066 631 1291 507 
Q 1516 384 1775 384 
Q 2178 384 2440 643 
Q 2703 903 2703 1303 
Q 2703 1709 2433 1975 
Q 2163 2241 1756 2241 
Q 1359 2241 1098 1978 
Q 838 1716 838 1322 
z
" transform="scale(0.015625)"/>
       </defs>
       <use xlink:href="#ArialMT-30"/>
       <use xlink:href="#ArialMT-2e" x="55.615234"/>
       <use xlink:href="#ArialMT-38" x="83.398438"/>
      </g>
     </g>
    </g>
    <g id="xtick_6">
     <g id="line2d_6">
      <g>
       <use xlink:href="#m5bab4c987a" x="198.103784" y="130.9515" style="fill: #262626; stroke: #262626"/>
      </g>
     </g>
     <g id="text_6">
      <!-- 1.0 -->
      <g style="fill: #262626" transform="translate(191.987784 145.550375) scale(0.088 -0.088)">
       <defs>
        <path id="ArialMT-31" d="M 2384 0 
L 1822 0 
L 1822 3584 
Q 1619 3391 1289 3197 
Q 959 3003 697 2906 
L 697 3450 
Q 1169 3672 1522 3987 
Q 1875 4303 2022 4600 
L 2384 4600 
L 2384 0 
z
" transform="scale(0.015625)"/>
       </defs>
       <use xlink:href="#ArialMT-31"/>
       <use xlink:href="#ArialMT-2e" x="55.615234"/>
       <use xlink:href="#ArialMT-30" x="83.398438"/>
      </g>
     </g>
    </g>
    <g id="text_7">
     <!-- $x$ -->
     <g style="fill: #262626" transform="translate(119.132875 158.170875) scale(0.096 -0.096)">
      <defs>
       <path id="DejaVuSans-Oblique-78" d="M 3841 3500 
L 2234 1784 
L 3219 0 
L 2559 0 
L 1819 1388 
L 531 0 
L -166 0 
L 1556 1844 
L 641 3500 
L 1300 3500 
L 1972 2234 
L 3144 3500 
L 3841 3500 
z
" transform="scale(0.015625)"/>
      </defs>
      <use xlink:href="#DejaVuSans-Oblique-78" transform="translate(0 0.3125)"/>
     </g>
    </g>
   </g>
   <g id="matplotlib.axis_2">
    <g id="ytick_1">
     <g id="line2d_7">
      <defs>
       <path id="m11f9c09fe3" d="M 0 0 
L -4.8 0 
" style="stroke: #262626"/>
      </defs>
      <g>
       <use xlink:href="#m11f9c09fe3" x="38.312875" y="130.9515" style="fill: #262626; stroke: #262626"/>
      </g>
     </g>
     <g id="text_8">
      <!-- −2 -->
      <g style="fill: #262626" transform="translate(19.9795 134.100937) scale(0.088 -0.088)">
       <defs>
        <path id="ArialMT-2212" d="M 3381 1997 
L 356 1997 
L 356 2522 
L 3381 2522 
L 3381 1997 
z
" transform="scale(0.015625)"/>
       </defs>
       <use xlink:href="#ArialMT-2212"/>
       <use xlink:href="#ArialMT-32" x="58.398438"/>
      </g>
     </g>
    </g>
    <g id="ytick_2">
     <g id="line2d_8">
      <g>
       <use xlink:href="#m11f9c09fe3" x="38.312875" y="112.4715" style="fill: #262626; stroke: #262626"/>
      </g>
     </g>
     <g id="text_9">
      <!-- −1 -->
      <g style="fill: #262626" transform="translate(19.9795 115.620937) scale(0.088 -0.088)">
       <use xlink:href="#ArialMT-2212"/>
       <use xlink:href="#ArialMT-31" x="58.398438"/>
      </g>
     </g>
    </g>
    <g id="ytick_3">
     <g id="line2d_9">
      <g>
       <use xlink:href="#m11f9c09fe3" x="38.312875" y="93.9915" style="fill: #262626; stroke: #262626"/>
      </g>
     </g>
     <g id="text_10">
      <!-- 0 -->
      <g style="fill: #262626" transform="translate(25.11925 97.140938) scale(0.088 -0.088)">
       <use xlink:href="#ArialMT-30"/>
      </g>
     </g>
    </g>
    <g id="ytick_4">
     <g id="line2d_10">
      <g>
       <use xlink:href="#m11f9c09fe3" x="38.312875" y="75.5115" style="fill: #262626; stroke: #262626"/>
      </g>
     </g>
     <g id="text_11">
      <!-- 1 -->
      <g style="fill: #262626" transform="translate(25.11925 78.660938) scale(0.088 -0.088)">
       <use xlink:href="#ArialMT-31"/>
      </g>
     </g>
    </g>
    <g id="ytick_5">
     <g id="line2d_11">
      <g>
       <use xlink:href="#m11f9c09fe3" x="38.312875" y="57.0315" style="fill: #262626; stroke: #262626"/>
      </g>
     </g>
     <g id="text_12">
      <!-- 2 -->
      <g style="fill: #262626" transform="translate(25.11925 60.180937) scale(0.088 -0.088)">
       <use xlink:href="#ArialMT-32"/>
      </g>
     </g>
    </g>
    <g id="ytick_6">
     <g id="line2d_12">
      <g>
       <use xlink:href="#m11f9c09fe3" x="38.312875" y="38.5515" style="fill: #262626; stroke: #262626"/>
      </g>
     </g>
     <g id="text_13">
      <!-- 3 -->
      <g style="fill: #262626" transform="translate(25.11925 41.700938) scale(0.088 -0.088)">
       <defs>
        <path id="ArialMT-33" d="M 269 1209 
L 831 1284 
Q 928 806 1161 595 
Q 1394 384 1728 384 
Q 2125 384 2398 659 
Q 2672 934 2672 1341 
Q 2672 1728 2419 1979 
Q 2166 2231 1775 2231 
Q 1616 2231 1378 2169 
L 1441 2663 
Q 1497 2656 1531 2656 
Q 1891 2656 2178 2843 
Q 2466 3031 2466 3422 
Q 2466 3731 2256 3934 
Q 2047 4138 1716 4138 
Q 1388 4138 1169 3931 
Q 950 3725 888 3313 
L 325 3413 
Q 428 3978 793 4289 
Q 1159 4600 1703 4600 
Q 2078 4600 2393 4439 
Q 2709 4278 2876 4000 
Q 3044 3722 3044 3409 
Q 3044 3113 2884 2869 
Q 2725 2625 2413 2481 
Q 2819 2388 3044 2092 
Q 3269 1797 3269 1353 
Q 3269 753 2831 336 
Q 2394 -81 1725 -81 
Q 1122 -81 723 278 
Q 325 638 269 1209 
z
" transform="scale(0.015625)"/>
       </defs>
       <use xlink:href="#ArialMT-33"/>
      </g>
     </g>
    </g>
    <g id="ytick_7">
     <g id="line2d_13">
      <g>
       <use xlink:href="#m11f9c09fe3" x="38.312875" y="20.0715" style="fill: #262626; stroke: #262626"/>
      </g>
     </g>
     <g id="text_14">
      <!-- 4 -->
      <g style="fill: #262626" transform="translate(25.11925 23.220937) scale(0.088 -0.088)">
       <use xlink:href="#ArialMT-34"/>
      </g>
     </g>
    </g>
    <g id="text_15">
     <!-- $y$ -->
     <g style="fill: #262626" transform="translate(13.9635 78.3915) rotate(-90) scale(0.096 -0.096)">
      <defs>
       <path id="DejaVuSans-Oblique-79" d="M 1588 -325 
Q 1188 -997 936 -1164 
Q 684 -1331 294 -1331 
L -159 -1331 
L -63 -850 
L 269 -850 
Q 509 -850 678 -719 
Q 847 -588 1056 -206 
L 1234 128 
L 459 3500 
L 1069 3500 
L 1650 819 
L 3256 3500 
L 3859 3500 
L 1588 -325 
z
" transform="scale(0.015625)"/>
      </defs>
      <use xlink:href="#DejaVuSans-Oblique-79" transform="translate(0 0.3125)"/>
     </g>
    </g>
   </g>
   <g id="PolyCollection_1">
    <defs>
     <path id="m22fe317590" d="M 45.921966 -77.120639 
L 45.921966 -69.739963 
L 47.459156 -69.541669 
L 48.996346 -68.65176 
L 50.533536 -67.766604 
L 52.070726 -67.142056 
L 53.607916 -66.863083 
L 55.145106 -66.952845 
L 56.682296 -67.404562 
L 58.219487 -68.191363 
L 59.756677 -69.268532 
L 61.293867 -70.57087 
L 62.831057 -72.003079 
L 64.368247 -73.417693 
L 65.905437 -74.587297 
L 67.442627 -75.263452 
L 68.979817 -75.417896 
L 70.517007 -75.285718 
L 72.054197 -75.116046 
L 73.591387 -75.071765 
L 75.128577 -75.252152 
L 76.665768 -75.718679 
L 78.202958 -76.50742 
L 79.740148 -77.633965 
L 81.277338 -79.094803 
L 82.814528 -80.866557 
L 84.351718 -82.902593 
L 85.888908 -85.124242 
L 87.426098 -87.399739 
L 88.963288 -89.504146 
L 90.500478 -91.11608 
L 92.037668 -92.044235 
L 93.574858 -92.446183 
L 95.112049 -92.585778 
L 96.649239 -92.639305 
L 98.186429 -92.70575 
L 99.723619 -92.841554 
L 101.260809 -93.078412 
L 102.797999 -93.430812 
L 104.335189 -93.899166 
L 105.872379 -94.471068 
L 107.409569 -95.121506 
L 108.946759 -95.811829 
L 110.483949 -96.486045 
L 112.021139 -97.059996 
L 113.55833 -97.390959 
L 115.09552 -97.205059 
L 116.63271 -96.064676 
L 118.1699 -93.784528 
L 119.70709 -90.733144 
L 121.24428 -87.316102 
L 122.78147 -83.777894 
L 124.31866 -80.274145 
L 125.85585 -76.920986 
L 127.39304 -73.813321 
L 128.93023 -71.030712 
L 130.46742 -68.638763 
L 132.004611 -66.688816 
L 133.541801 -65.216977 
L 135.078991 -64.24268 
L 136.616181 -63.766478 
L 138.153371 -63.765727 
L 139.690561 -64.184122 
L 141.227751 -64.902711 
L 142.764941 -65.660337 
L 144.302131 -65.954655 
L 145.839321 -65.452517 
L 147.376511 -64.549475 
L 148.913701 -63.717961 
L 150.450892 -63.19236 
L 151.988082 -63.079662 
L 153.525272 -63.430566 
L 155.062462 -64.264951 
L 156.599652 -65.581122 
L 158.136842 -67.359642 
L 159.674032 -69.565214 
L 161.211222 -72.147716 
L 162.748412 -75.042488 
L 164.285602 -78.169118 
L 165.822792 -81.426222 
L 167.359982 -84.674122 
L 168.897173 -87.678766 
L 170.434363 -89.964201 
L 171.971553 -90.858097 
L 173.508743 -90.420579 
L 175.045933 -89.272495 
L 176.583123 -87.790016 
L 178.120313 -86.156364 
L 179.657503 -84.484221 
L 181.194693 -82.858894 
L 182.731883 -81.351776 
L 184.269073 -80.024399 
L 185.806263 -78.929268 
L 187.343454 -78.109463 
L 188.880644 -77.597581 
L 190.417834 -77.413874 
L 191.955024 -77.56238 
L 193.492214 -78.020661 
L 195.029404 -78.704794 
L 196.566594 -79.315067 
L 198.103784 -78.717744 
L 198.103784 -86.138248 
L 198.103784 -86.138248 
L 196.566594 -88.569633 
L 195.029404 -92.250361 
L 193.492214 -96.001426 
L 191.955024 -99.474289 
L 190.417834 -102.533542 
L 188.880644 -105.103641 
L 187.343454 -107.135066 
L 185.806263 -108.595332 
L 184.269073 -109.466464 
L 182.731883 -109.744512 
L 181.194693 -109.439867 
L 179.657503 -108.578199 
L 178.120313 -107.202537 
L 176.583123 -105.378436 
L 175.045933 -103.208383 
L 173.508743 -100.875705 
L 171.971553 -98.767476 
L 170.434363 -97.526476 
L 168.897173 -97.245742 
L 167.359982 -97.296482 
L 165.822792 -97.25626 
L 164.285602 -96.953584 
L 162.748412 -96.319157 
L 161.211222 -95.328342 
L 159.674032 -93.982159 
L 158.136842 -92.30022 
L 156.599652 -90.317549 
L 155.062462 -88.08283 
L 153.525272 -85.657396 
L 151.988082 -83.115116 
L 150.450892 -80.544331 
L 148.913701 -78.05538 
L 147.376511 -75.804542 
L 145.839321 -74.0639 
L 144.302131 -73.331024 
L 142.764941 -74.013411 
L 141.227751 -75.77638 
L 139.690561 -78.102631 
L 138.153371 -80.703044 
L 136.616181 -83.418443 
L 135.078991 -86.141099 
L 133.541801 -88.787073 
L 132.004611 -91.287338 
L 130.46742 -93.585222 
L 128.93023 -95.636096 
L 127.39304 -97.407928 
L 125.85585 -98.882304 
L 124.31866 -100.056093 
L 122.78147 -100.944711 
L 121.24428 -101.589738 
L 119.70709 -102.078743 
L 118.1699 -102.595978 
L 116.63271 -103.495678 
L 115.09552 -105.104725 
L 113.55833 -107.206401 
L 112.021139 -109.342093 
L 110.483949 -111.22732 
L 108.946759 -112.718825 
L 107.409569 -113.741421 
L 105.872379 -114.256817 
L 104.335189 -114.251836 
L 102.797999 -113.733611 
L 101.260809 -112.727355 
L 99.723619 -111.275303 
L 98.186429 -109.436689 
L 96.649239 -107.289614 
L 95.112049 -104.937371 
L 93.574858 -102.525119 
L 92.037668 -100.273624 
L 90.500478 -98.48865 
L 88.963288 -97.366372 
L 87.426098 -96.750208 
L 85.888908 -96.349213 
L 84.351718 -95.964343 
L 82.814528 -95.485084 
L 81.277338 -94.849421 
L 79.740148 -94.022947 
L 78.202958 -92.990355 
L 76.665768 -91.752422 
L 75.128577 -90.325674 
L 73.591387 -88.744256 
L 72.054197 -87.06535 
L 70.517007 -85.382096 
L 68.979817 -83.849903 
L 67.442627 -82.709558 
L 65.905437 -82.187381 
L 64.368247 -82.246301 
L 62.831057 -82.629358 
L 61.293867 -83.101172 
L 59.756677 -83.507072 
L 58.219487 -83.745456 
L 56.682296 -83.7458 
L 55.145106 -83.459068 
L 53.607916 -82.855053 
L 52.070726 -81.924556 
L 50.533536 -80.689134 
L 48.996346 -79.232848 
L 47.459156 -77.811208 
L 45.921966 -77.120639 
z
" style="stroke: #ffffff; stroke-opacity: 0.2; stroke-width: 0.8"/>
    </defs>
    <g clip-path="url(#p9e4973fa0a)">
     <use xlink:href="#m22fe317590" x="0" y="167.278875" style="fill: #1f77b4; fill-opacity: 0.2; stroke: #ffffff; stroke-opacity: 0.2; stroke-width: 0.8"/>
    </g>
   </g>
   <g id="PathCollection_1">
    <defs>
     <path id="mf6c2ede120" d="M 0 2.4 
C 0.636487 2.4 1.246992 2.147121 1.697056 1.697056 
C 2.147121 1.246992 2.4 0.636487 2.4 0 
C 2.4 -0.636487 2.147121 -1.246992 1.697056 -1.697056 
C 1.246992 -2.147121 0.636487 -2.4 0 -2.4 
C -0.636487 -2.4 -1.246992 -2.147121 -1.697056 -1.697056 
C -2.147121 -1.246992 -2.4 -0.636487 -2.4 0 
C -2.4 0.636487 -2.147121 1.246992 -1.697056 1.697056 
C -1.246992 2.147121 -0.636487 2.4 0 2.4 
z
" style="stroke: #ff7f0e; stroke-width: 0.8"/>
    </defs>
    <g clip-path="url(#p9e4973fa0a)">
     <use xlink:href="#mf6c2ede120" x="90.393377" y="72.584426" style="fill: #ff7f0e; stroke: #ff7f0e; stroke-width: 0.8"/>
     <use xlink:href="#mf6c2ede120" x="197.974647" y="84.756626" style="fill: #ff7f0e; stroke: #ff7f0e; stroke-width: 0.8"/>
     <use xlink:href="#mf6c2ede120" x="144.205343" y="97.762372" style="fill: #ff7f0e; stroke: #ff7f0e; stroke-width: 0.8"/>
     <use xlink:href="#mf6c2ede120" x="45.949617" y="93.853156" style="fill: #ff7f0e; stroke: #ff7f0e; stroke-width: 0.8"/>
     <use xlink:href="#mf6c2ede120" x="171.033959" y="72.964727" style="fill: #ff7f0e; stroke: #ff7f0e; stroke-width: 0.8"/>
     <use xlink:href="#mf6c2ede120" x="116.302669" y="67.058179" style="fill: #ff7f0e; stroke: #ff7f0e; stroke-width: 0.8"/>
     <use xlink:href="#mf6c2ede120" x="66.867399" y="88.506712" style="fill: #ff7f0e; stroke: #ff7f0e; stroke-width: 0.8"/>
    </g>
   </g>
   <g id="line2d_14">
    <path d="M 45.921966 93.848574 
L 47.459156 93.602437 
L 48.996346 93.336571 
L 50.533536 93.051006 
L 52.070726 92.745569 
L 53.607916 92.419807 
L 55.145106 92.072919 
L 56.682296 91.703694 
L 58.219487 91.310466 
L 59.756677 90.891073 
L 61.293867 90.442854 
L 62.831057 89.962656 
L 64.368247 89.446878 
L 65.905437 88.891536 
L 67.442627 88.29237 
L 68.979817 87.644975 
L 70.517007 86.944968 
L 72.054197 86.188177 
L 73.591387 85.370864 
L 75.128577 84.489962 
L 76.665768 83.543325 
L 78.202958 82.529988 
L 79.740148 81.450419 
L 81.277338 80.306763 
L 82.814528 79.103055 
L 84.351718 77.845407 
L 85.888908 76.542147 
L 87.426098 75.203901 
L 88.963288 73.843616 
L 90.500478 72.47651 
L 92.037668 71.119945 
L 93.574858 69.793224 
L 95.112049 68.517301 
L 96.649239 67.314416 
L 98.186429 66.207655 
L 99.723619 65.220446 
L 101.260809 64.375991 
L 102.797999 63.696663 
L 104.335189 63.203374 
L 105.872379 62.914933 
L 107.409569 62.847412 
L 108.946759 63.013548 
L 110.483949 63.422192 
L 112.021139 64.077831 
L 113.55833 64.980195 
L 115.09552 66.123983 
L 116.63271 67.498698 
L 118.1699 69.088622 
L 119.70709 70.872932 
L 121.24428 72.825955 
L 122.78147 74.917573 
L 124.31866 77.113756 
L 125.85585 79.37723 
L 127.39304 81.66825 
L 128.93023 83.945471 
L 130.46742 86.166883 
L 132.004611 88.290798 
L 133.541801 90.27685 
L 135.078991 92.086986 
L 136.616181 93.686414 
L 138.153371 95.04449 
L 139.690561 96.135499 
L 141.227751 96.93933 
L 142.764941 97.442001 
L 144.302131 97.636036 
L 145.839321 97.520666 
L 147.376511 97.101866 
L 148.913701 96.392205 
L 150.450892 95.410529 
L 151.988082 94.181486 
L 153.525272 92.734894 
L 155.062462 91.104985 
L 156.599652 89.32954 
L 158.136842 87.448944 
L 159.674032 85.505189 
L 161.211222 83.540846 
L 162.748412 81.598052 
L 164.285602 79.717524 
L 165.822792 77.937634 
L 167.359982 76.293573 
L 168.897173 74.816621 
L 170.434363 73.533536 
L 171.971553 72.466089 
L 173.508743 71.630733 
L 175.045933 71.038436 
L 176.583123 70.694649 
L 178.120313 70.599424 
L 179.657503 70.747665 
L 181.194693 71.129495 
L 182.731883 71.730731 
L 184.269073 72.533443 
L 185.806263 73.516575 
L 187.343454 74.656611 
L 188.880644 75.928264 
L 190.417834 77.305167 
L 191.955024 78.76054 
L 193.492214 80.267832 
L 195.029404 81.801297 
L 196.566594 83.336525 
L 198.103784 84.850879 
" clip-path="url(#p9e4973fa0a)" style="fill: none; stroke: #1f77b4; stroke-width: 1.2; stroke-linecap: round"/>
   </g>
   <g id="line2d_15">
    <path d="M 45.921966 95.390776 
L 47.459156 94.492338 
L 48.996346 93.683538 
L 50.533536 92.977361 
L 52.070726 92.380888 
L 53.607916 91.889743 
L 55.145106 91.497843 
L 56.682296 91.195827 
L 58.219487 90.958891 
L 59.756677 90.784066 
L 61.293867 90.633557 
L 62.831057 90.500499 
L 64.368247 90.351098 
L 65.905437 90.159701 
L 67.442627 89.920291 
L 68.979817 89.592163 
L 70.517007 89.167061 
L 72.054197 88.63325 
L 73.591387 87.975295 
L 75.128577 87.184423 
L 76.665768 86.246237 
L 78.202958 85.157741 
L 79.740148 83.921038 
L 81.277338 82.529055 
L 82.814528 80.99851 
L 84.351718 79.324776 
L 85.888908 77.527055 
L 87.426098 75.62479 
L 88.963288 73.632554 
L 90.500478 71.591036 
L 92.037668 69.525568 
L 93.574858 67.476109 
L 95.112049 65.491881 
L 96.649239 63.624539 
L 98.186429 61.921101 
L 99.723619 60.435708 
L 101.260809 59.219145 
L 102.797999 58.317404 
L 104.335189 57.779516 
L 105.872379 57.638822 
L 107.409569 57.914698 
L 108.946759 58.630508 
L 110.483949 59.784664 
L 112.021139 61.363959 
L 113.55833 63.349009 
L 115.09552 65.702905 
L 116.63271 68.375023 
L 118.1699 71.310708 
L 119.70709 74.42433 
L 121.24428 77.659928 
L 122.78147 80.932132 
L 124.31866 84.169885 
L 125.85585 87.270559 
L 127.39304 90.178315 
L 128.93023 92.819115 
L 130.46742 95.124289 
L 132.004611 97.054348 
L 133.541801 98.553825 
L 135.078991 99.607811 
L 136.616181 100.194592 
L 138.153371 100.312968 
L 139.690561 99.98541 
L 141.227751 99.226199 
L 142.764941 98.078312 
L 144.302131 96.58114 
L 145.839321 94.796019 
L 147.376511 92.786966 
L 148.913701 90.617648 
L 150.450892 88.362998 
L 151.988082 86.073311 
L 153.525272 83.840204 
L 155.062462 81.712281 
L 156.599652 79.738984 
L 158.136842 77.958277 
L 159.674032 76.417416 
L 161.211222 75.119764 
L 162.748412 74.087738 
L 164.285602 73.311921 
L 165.822792 72.784711 
L 167.359982 72.47796 
L 168.897173 72.375977 
L 170.434363 72.439824 
L 171.971553 72.637173 
L 173.508743 72.935768 
L 175.045933 73.303503 
L 176.583123 73.724837 
L 178.120313 74.175199 
L 179.657503 74.639718 
L 181.194693 75.119318 
L 182.731883 75.623827 
L 184.269073 76.1455 
L 185.806263 76.7184 
L 187.343454 77.345356 
L 188.880644 78.06757 
L 190.417834 78.893639 
L 191.955024 79.840284 
L 193.492214 80.929697 
L 195.029404 82.179121 
L 196.566594 83.581267 
L 198.103784 85.153591 
" clip-path="url(#p9e4973fa0a)" style="fill: none; stroke: #d62728; stroke-opacity: 0.5; stroke-width: 0.5; stroke-linecap: round"/>
   </g>
   <g id="line2d_16">
    <path d="M 45.921966 96.006586 
L 47.459156 97.312834 
L 48.996346 98.29059 
L 50.533536 98.922818 
L 52.070726 99.235119 
L 53.607916 99.231943 
L 55.145106 98.924604 
L 56.682296 98.343603 
L 58.219487 97.495031 
L 59.756677 96.422595 
L 61.293867 95.151679 
L 62.831057 93.703177 
L 64.368247 92.123866 
L 65.905437 90.425146 
L 67.442627 88.665826 
L 68.979817 86.864129 
L 70.517007 85.06557 
L 72.054197 83.300864 
L 73.591387 81.598586 
L 75.128577 79.996997 
L 76.665768 78.521237 
L 78.202958 77.195198 
L 79.740148 76.032269 
L 81.277338 75.052709 
L 82.814528 74.248091 
L 84.351718 73.621678 
L 85.888908 73.160158 
L 87.426098 72.840841 
L 88.963288 72.643909 
L 90.500478 72.522234 
L 92.037668 72.464553 
L 93.574858 72.420142 
L 95.112049 72.363382 
L 96.649239 72.262514 
L 98.186429 72.093295 
L 99.723619 71.845014 
L 101.260809 71.507717 
L 102.797999 71.096251 
L 104.335189 70.616889 
L 105.872379 70.103936 
L 107.409569 69.58547 
L 108.946759 69.122889 
L 110.483949 68.738745 
L 112.021139 68.494406 
L 113.55833 68.45505 
L 115.09552 68.644356 
L 116.63271 69.104545 
L 118.1699 69.864626 
L 119.70709 70.937106 
L 121.24428 72.327039 
L 122.78147 74.011018 
L 124.31866 75.974209 
L 125.85585 78.160324 
L 127.39304 80.517844 
L 128.93023 82.985213 
L 130.46742 85.487921 
L 132.004611 87.954303 
L 133.541801 90.297991 
L 135.078991 92.446944 
L 136.616181 94.335107 
L 138.153371 95.895843 
L 139.690561 97.082814 
L 141.227751 97.857654 
L 142.764941 98.199598 
L 144.302131 98.108084 
L 145.839321 97.574087 
L 147.376511 96.647776 
L 148.913701 95.345307 
L 150.450892 93.725876 
L 151.988082 91.859759 
L 153.525272 89.806612 
L 155.062462 87.64172 
L 156.599652 85.437472 
L 158.136842 83.283493 
L 159.674032 81.23281 
L 161.211222 79.361451 
L 162.748412 77.719965 
L 164.285602 76.346996 
L 165.822792 75.294186 
L 167.359982 74.561768 
L 168.897173 74.16509 
L 170.434363 74.09954 
L 171.971553 74.337157 
L 173.508743 74.854189 
L 175.045933 75.610726 
L 176.583123 76.554571 
L 178.120313 77.637695 
L 179.657503 78.813228 
L 181.194693 80.012493 
L 182.731883 81.198062 
L 184.269073 82.310157 
L 185.806263 83.321203 
L 187.343454 84.192272 
L 188.880644 84.89735 
L 190.417834 85.429989 
L 191.955024 85.786268 
L 193.492214 85.969106 
L 195.029404 86.000559 
L 196.566594 85.8943 
L 198.103784 85.688567 
" clip-path="url(#p9e4973fa0a)" style="fill: none; stroke: #d62728; stroke-opacity: 0.5; stroke-width: 0.5; stroke-linecap: round"/>
   </g>
   <g id="line2d_17">
    <path d="M 45.921966 90.334955 
L 47.459156 88.712519 
L 48.996346 87.315871 
L 50.533536 86.177213 
L 52.070726 85.313624 
L 53.607916 84.737545 
L 55.145106 84.438516 
L 56.682296 84.399034 
L 58.219487 84.604825 
L 59.756677 85.002239 
L 61.293867 85.553908 
L 62.831057 86.204114 
L 64.368247 86.900565 
L 65.905437 87.571547 
L 67.442627 88.157541 
L 68.979817 88.615529 
L 70.517007 88.875263 
L 72.054197 88.906444 
L 73.591387 88.672219 
L 75.128577 88.141986 
L 76.665768 87.312056 
L 78.202958 86.181402 
L 79.740148 84.752228 
L 81.277338 83.069532 
L 82.814528 81.148545 
L 84.351718 79.041878 
L 85.888908 76.793098 
L 87.426098 74.460324 
L 88.963288 72.09612 
L 90.500478 69.765896 
L 92.037668 67.513975 
L 93.574858 65.407351 
L 95.112049 63.498429 
L 96.649239 61.821971 
L 98.186429 60.418392 
L 99.723619 59.333173 
L 101.260809 58.580502 
L 102.797999 58.184046 
L 104.335189 58.144706 
L 105.872379 58.482676 
L 107.409569 59.178103 
L 108.946759 60.218065 
L 110.483949 61.591379 
L 112.021139 63.261757 
L 113.55833 65.200076 
L 115.09552 67.359749 
L 116.63271 69.708226 
L 118.1699 72.197421 
L 119.70709 74.780789 
L 121.24428 77.401351 
L 122.78147 80.012669 
L 124.31866 82.57263 
L 125.85585 85.036443 
L 127.39304 87.351417 
L 128.93023 89.501705 
L 130.46742 91.435017 
L 132.004611 93.140745 
L 133.541801 94.579199 
L 135.078991 95.757135 
L 136.616181 96.649113 
L 138.153371 97.268295 
L 139.690561 97.599359 
L 141.227751 97.66374 
L 142.764941 97.459733 
L 144.302131 97.008025 
L 145.839321 96.322009 
L 147.376511 95.431762 
L 148.913701 94.355764 
L 150.450892 93.115984 
L 151.988082 91.744787 
L 153.525272 90.259888 
L 155.062462 88.696277 
L 156.599652 87.078661 
L 158.136842 85.438725 
L 159.674032 83.802956 
L 161.211222 82.192131 
L 162.748412 80.632166 
L 164.285602 79.1476 
L 165.822792 77.758021 
L 167.359982 76.481799 
L 168.897173 75.350255 
L 170.434363 74.354732 
L 171.971553 73.520952 
L 173.508743 72.850732 
L 175.045933 72.3516 
L 176.583123 72.028756 
L 178.120313 71.892449 
L 179.657503 71.925337 
L 181.194693 72.137256 
L 182.731883 72.527827 
L 184.269073 73.094832 
L 185.806263 73.837666 
L 187.343454 74.749821 
L 188.880644 75.839276 
L 190.417834 77.095517 
L 191.955024 78.533958 
L 193.492214 80.133343 
L 195.029404 81.914706 
L 196.566594 83.858909 
L 198.103784 85.976778 
" clip-path="url(#p9e4973fa0a)" style="fill: none; stroke: #d62728; stroke-opacity: 0.5; stroke-width: 0.5; stroke-linecap: round"/>
   </g>
   <g id="line2d_18">
    <path d="M 45.921966 94.603935 
L 47.459156 94.011502 
L 48.996346 93.512257 
L 50.533536 93.100925 
L 52.070726 92.757893 
L 53.607916 92.455811 
L 55.145106 92.161509 
L 56.682296 91.844674 
L 58.219487 91.496215 
L 59.756677 91.060125 
L 61.293867 90.527093 
L 62.831057 89.880641 
L 64.368247 89.088757 
L 65.905437 88.159487 
L 67.442627 87.096789 
L 68.979817 85.893948 
L 70.517007 84.582754 
L 72.054197 83.184864 
L 73.591387 81.739883 
L 75.128577 80.27095 
L 76.665768 78.827095 
L 78.202958 77.442349 
L 79.740148 76.142053 
L 81.277338 74.974097 
L 82.814528 73.953593 
L 84.351718 73.087915 
L 85.888908 72.383733 
L 87.426098 71.837541 
L 88.963288 71.437098 
L 90.500478 71.152462 
L 92.037668 70.960612 
L 93.574858 70.819702 
L 95.112049 70.714662 
L 96.649239 70.594711 
L 98.186429 70.446873 
L 99.723619 70.249697 
L 101.260809 69.998533 
L 102.797999 69.693313 
L 104.335189 69.354065 
L 105.872379 69.001598 
L 107.409569 68.680292 
L 108.946759 68.438261 
L 110.483949 68.328081 
L 112.021139 68.390417 
L 113.55833 68.696389 
L 115.09552 69.280956 
L 116.63271 70.192418 
L 118.1699 71.439902 
L 119.70709 73.036637 
L 121.24428 74.96497 
L 122.78147 77.2032 
L 124.31866 79.699048 
L 125.85585 82.378837 
L 127.39304 85.15353 
L 128.93023 87.938279 
L 130.46742 90.624709 
L 132.004611 93.10248 
L 133.541801 95.281243 
L 135.078991 97.049209 
L 136.616181 98.338562 
L 138.153371 99.084257 
L 139.690561 99.2351 
L 141.227751 98.780891 
L 142.764941 97.721255 
L 144.302131 96.09315 
L 145.839321 93.95008 
L 147.376511 91.37395 
L 148.913701 88.461209 
L 150.450892 85.319935 
L 151.988082 82.055328 
L 153.525272 78.817925 
L 155.062462 75.713594 
L 156.599652 72.865146 
L 158.136842 70.381721 
L 159.674032 68.3399 
L 161.211222 66.829361 
L 162.748412 65.896975 
L 164.285602 65.578278 
L 165.822792 65.872108 
L 167.359982 66.77684 
L 168.897173 68.24428 
L 170.434363 70.235697 
L 171.971553 72.670756 
L 173.508743 75.454083 
L 175.045933 78.490132 
L 176.583123 81.670101 
L 178.120313 84.883499 
L 179.657503 88.006872 
L 181.194693 90.917942 
L 182.731883 93.512494 
L 184.269073 95.671008 
L 185.806263 97.304635 
L 187.343454 98.330683 
L 188.880644 98.672356 
L 190.417834 98.278066 
L 191.955024 97.105309 
L 193.492214 95.14322 
L 195.029404 92.386793 
L 196.566594 88.850564 
L 198.103784 84.570487 
" clip-path="url(#p9e4973fa0a)" style="fill: none; stroke: #d62728; stroke-opacity: 0.5; stroke-width: 0.5; stroke-linecap: round"/>
   </g>
   <g id="line2d_19">
    <path d="M 45.921966 92.964066 
L 47.459156 93.292216 
L 48.996346 93.52943 
L 50.533536 93.68256 
L 52.070726 93.759487 
L 53.607916 93.762993 
L 55.145106 93.690138 
L 56.682296 93.537584 
L 58.219487 93.291504 
L 59.756677 92.963682 
L 61.293867 92.537702 
L 62.831057 92.008164 
L 64.368247 91.377039 
L 65.905437 90.648094 
L 67.442627 89.818686 
L 68.979817 88.898981 
L 70.517007 87.894147 
L 72.054197 86.816346 
L 73.591387 85.684991 
L 75.128577 84.494385 
L 76.665768 83.270499 
L 78.202958 82.024773 
L 79.740148 80.751789 
L 81.277338 79.457483 
L 82.814528 78.150649 
L 84.351718 76.831751 
L 85.888908 75.499174 
L 87.426098 74.143977 
L 88.963288 72.779697 
L 90.500478 71.399945 
L 92.037668 70.008565 
L 93.574858 68.616432 
L 95.112049 67.23938 
L 96.649239 65.901256 
L 98.186429 64.615603 
L 99.723619 63.432457 
L 101.260809 62.36732 
L 102.797999 61.482818 
L 104.335189 60.805947 
L 105.872379 60.380827 
L 107.409569 60.244457 
L 108.946759 60.430106 
L 110.483949 60.950416 
L 112.021139 61.826355 
L 113.55833 63.069458 
L 115.09552 64.645132 
L 116.63271 66.539205 
L 118.1699 68.720261 
L 119.70709 71.129766 
L 121.24428 73.717949 
L 122.78147 76.421089 
L 124.31866 79.168586 
L 125.85585 81.896154 
L 127.39304 84.540561 
L 128.93023 87.041888 
L 130.46742 89.354515 
L 132.004611 91.421891 
L 133.541801 93.233376 
L 135.078991 94.763939 
L 136.616181 96.001935 
L 138.153371 96.956465 
L 139.690561 97.633704 
L 141.227751 98.044358 
L 142.764941 98.214887 
L 144.302131 98.162834 
L 145.839321 97.905585 
L 147.376511 97.449365 
L 148.913701 96.824511 
L 150.450892 96.027009 
L 151.988082 95.064688 
L 153.525272 93.94782 
L 155.062462 92.659564 
L 156.599652 91.210023 
L 158.136842 89.595158 
L 159.674032 87.82223 
L 161.211222 85.90045 
L 162.748412 83.847213 
L 164.285602 81.688989 
L 165.822792 79.452869 
L 167.359982 77.19014 
L 168.897173 74.937071 
L 170.434363 72.751233 
L 171.971553 70.702252 
L 173.508743 68.837913 
L 175.045933 67.210995 
L 176.583123 65.896394 
L 178.120313 64.924004 
L 179.657503 64.341247 
L 181.194693 64.186025 
L 182.731883 64.466853 
L 184.269073 65.182741 
L 185.806263 66.340283 
L 187.343454 67.908138 
L 188.880644 69.85496 
L 190.417834 72.132607 
L 191.955024 74.696691 
L 193.492214 77.487378 
L 195.029404 80.421594 
L 196.566594 83.454514 
L 198.103784 86.512737 
" clip-path="url(#p9e4973fa0a)" style="fill: none; stroke: #d62728; stroke-opacity: 0.5; stroke-width: 0.5; stroke-linecap: round"/>
   </g>
   <g id="line2d_20">
    <path d="M 185.424043 130.9515 
L 185.424043 20.0715 
" clip-path="url(#p9e4973fa0a)" style="fill: none; stroke-dasharray: 4.44,1.92; stroke-dashoffset: 0; stroke: #ff0000; stroke-width: 1.2"/>
   </g>
   <g id="patch_3">
    <path d="M 38.312875 130.9515 
L 38.312875 20.0715 
" style="fill: none; stroke: #262626; stroke-linejoin: miter; stroke-linecap: square"/>
   </g>
   <g id="patch_4">
    <path d="M 45.921966 130.9515 
L 198.103784 130.9515 
" style="fill: none; stroke: #262626; stroke-linejoin: miter; stroke-linecap: square"/>
   </g>
   <g id="text_16">
    <!-- $N=7$ -->
    <g style="fill: #262626" transform="translate(109.436875 14.0715) scale(0.096 -0.096)">
     <defs>
      <path id="DejaVuSans-Oblique-4e" d="M 1081 4666 
L 1931 4666 
L 3219 666 
L 4000 4666 
L 4616 4666 
L 3706 0 
L 2853 0 
L 1569 4025 
L 788 0 
L 172 0 
L 1081 4666 
z
" transform="scale(0.015625)"/>
      <path id="DejaVuSans-3d" d="M 678 2906 
L 4684 2906 
L 4684 2381 
L 678 2381 
L 678 2906 
z
M 678 1631 
L 4684 1631 
L 4684 1100 
L 678 1100 
L 678 1631 
z
" transform="scale(0.015625)"/>
      <path id="DejaVuSans-37" d="M 525 4666 
L 3525 4666 
L 3525 4397 
L 1831 0 
L 1172 0 
L 2766 4134 
L 525 4134 
L 525 4666 
z
" transform="scale(0.015625)"/>
     </defs>
     <use xlink:href="#DejaVuSans-Oblique-4e" transform="translate(0 0.09375)"/>
     <use xlink:href="#DejaVuSans-3d" transform="translate(94.287109 0.09375)"/>
     <use xlink:href="#DejaVuSans-37" transform="translate(197.558594 0.09375)"/>
    </g>
   </g>
  </g>
 </g>
 <defs>
  <clipPath id="p9e4973fa0a">
   <rect x="38.312875" y="20.0715" width="167.4" height="110.88"/>
  </clipPath>
 </defs>
</svg>