<?xml version="1.0" encoding="utf-8" standalone="no"?>
<!DOCTYPE svg PUBLIC "-//W3C//DTD SVG 1.1//EN"
  "http://www.w3.org/Graphics/SVG/1.1/DTD/svg11.dtd">
<svg xmlns:xlink="http://www.w3.org/1999/xlink" width="377.46135pt" height="300.009312pt" viewBox="0 0 377.46135 300.009312" xmlns="http://www.w3.org/2000/svg" version="1.1">
 <metadata>
  <rdf:RDF xmlns:dc="http://purl.org/dc/elements/1.1/" xmlns:cc="http://creativecommons.org/ns#" xmlns:rdf="http://www.w3.org/1999/02/22-rdf-syntax-ns#">
   <cc:Work>
    <dc:type rdf:resource="http://purl.org/dc/dcmitype/StillImage"/>
    <dc:date>2024-10-23T11:17:15.041132</dc:date>
    <dc:format>image/svg+xml</dc:format>
    <dc:creator>
     <cc:Agent>
      <dc:title>Matplotlib v3.9.2, https://matplotlib.org/</dc:title>
     </cc:Agent>
    </dc:creator>
   </cc:Work>
  </rdf:RDF>
 </metadata>
 <defs>
  <style type="text/css">*{stroke-linejoin: round; stroke-linecap: butt}</style>
 </defs>
 <g id="figure_1">
  <g id="patch_1">
   <path d="M 0 300.009312 
L 377.46135 300.009312 
L 377.46135 0 
L 0 0 
z
" style="fill: #ffffff"/>
  </g>
  <g id="axes_1">
   <g id="patch_2">
    <path d="M 27.732 276.461437 
L 313.428 276.461437 
L 313.428 10.349437 
L 27.732 10.349437 
z
" style="fill: #ffffff"/>
   </g>
   <g id="matplotlib.axis_1">
    <g id="xtick_1">
     <g id="line2d_1">
      <defs>
       <path id="maf1c634a31" d="M 0 0 
L 0 4.8 
" style="stroke: #262626"/>
      </defs>
      <g>
       <use xlink:href="#maf1c634a31" x="27.732" y="276.461437" style="fill: #262626; stroke: #262626"/>
      </g>
     </g>
     <g id="text_1">
      <!-- 0.0 -->
      <g style="fill: #262626" transform="translate(21.616 291.060312) scale(0.088 -0.088)">
       <defs>
        <path id="ArialMT-30" d="M 266 2259 
Q 266 3072 433 3567 
Q 600 4063 929 4331 
Q 1259 4600 1759 4600 
Q 2128 4600 2406 4451 
Q 2684 4303 2865 4023 
Q 3047 3744 3150 3342 
Q 3253 2941 3253 2259 
Q 3253 1453 3087 958 
Q 2922 463 2592 192 
Q 2263 -78 1759 -78 
Q 1097 -78 719 397 
Q 266 969 266 2259 
z
M 844 2259 
Q 844 1131 1108 757 
Q 1372 384 1759 384 
Q 2147 384 2411 759 
Q 2675 1134 2675 2259 
Q 2675 3391 2411 3762 
Q 2147 4134 1753 4134 
Q 1366 4134 1134 3806 
Q 844 3388 844 2259 
z
" transform="scale(0.015625)"/>
        <path id="ArialMT-2e" d="M 581 0 
L 581 641 
L 1222 641 
L 1222 0 
L 581 0 
z
" transform="scale(0.015625)"/>
       </defs>
       <use xlink:href="#ArialMT-30"/>
       <use xlink:href="#ArialMT-2e" x="55.615234"/>
       <use xlink:href="#ArialMT-30" x="83.398438"/>
      </g>
     </g>
    </g>
    <g id="xtick_2">
     <g id="line2d_2">
      <g>
       <use xlink:href="#maf1c634a31" x="84.8712" y="276.461437" style="fill: #262626; stroke: #262626"/>
      </g>
     </g>
     <g id="text_2">
      <!-- 0.2 -->
      <g style="fill: #262626" transform="translate(78.7552 291.060312) scale(0.088 -0.088)">
       <defs>
        <path id="ArialMT-32" d="M 3222 541 
L 3222 0 
L 194 0 
Q 188 203 259 391 
Q 375 700 629 1000 
Q 884 1300 1366 1694 
Q 2113 2306 2375 2664 
Q 2638 3022 2638 3341 
Q 2638 3675 2398 3904 
Q 2159 4134 1775 4134 
Q 1369 4134 1125 3890 
Q 881 3647 878 3216 
L 300 3275 
Q 359 3922 746 4261 
Q 1134 4600 1788 4600 
Q 2447 4600 2831 4234 
Q 3216 3869 3216 3328 
Q 3216 3053 3103 2787 
Q 2991 2522 2730 2228 
Q 2469 1934 1863 1422 
Q 1356 997 1212 845 
Q 1069 694 975 541 
L 3222 541 
z
" transform="scale(0.015625)"/>
       </defs>
       <use xlink:href="#ArialMT-30"/>
       <use xlink:href="#ArialMT-2e" x="55.615234"/>
       <use xlink:href="#ArialMT-32" x="83.398438"/>
      </g>
     </g>
    </g>
    <g id="xtick_3">
     <g id="line2d_3">
      <g>
       <use xlink:href="#maf1c634a31" x="142.0104" y="276.461437" style="fill: #262626; stroke: #262626"/>
      </g>
     </g>
     <g id="text_3">
      <!-- 0.4 -->
      <g style="fill: #262626" transform="translate(135.8944 291.060312) scale(0.088 -0.088)">
       <defs>
        <path id="ArialMT-34" d="M 2069 0 
L 2069 1097 
L 81 1097 
L 81 1613 
L 2172 4581 
L 2631 4581 
L 2631 1613 
L 3250 1613 
L 3250 1097 
L 2631 1097 
L 2631 0 
L 2069 0 
z
M 2069 1613 
L 2069 3678 
L 634 1613 
L 2069 1613 
z
" transform="scale(0.015625)"/>
       </defs>
       <use xlink:href="#ArialMT-30"/>
       <use xlink:href="#ArialMT-2e" x="55.615234"/>
       <use xlink:href="#ArialMT-34" x="83.398438"/>
      </g>
     </g>
    </g>
    <g id="xtick_4">
     <g id="line2d_4">
      <g>
       <use xlink:href="#maf1c634a31" x="199.1496" y="276.461437" style="fill: #262626; stroke: #262626"/>
      </g>
     </g>
     <g id="text_4">
      <!-- 0.6 -->
      <g style="fill: #262626" transform="translate(193.0336 291.060312) scale(0.088 -0.088)">
       <defs>
        <path id="ArialMT-36" d="M 3184 3459 
L 2625 3416 
Q 2550 3747 2413 3897 
Q 2184 4138 1850 4138 
Q 1581 4138 1378 3988 
Q 1113 3794 959 3422 
Q 806 3050 800 2363 
Q 1003 2672 1297 2822 
Q 1591 2972 1913 2972 
Q 2475 2972 2870 2558 
Q 3266 2144 3266 1488 
Q 3266 1056 3080 686 
Q 2894 316 2569 119 
Q 2244 -78 1831 -78 
Q 1128 -78 684 439 
Q 241 956 241 2144 
Q 241 3472 731 4075 
Q 1159 4600 1884 4600 
Q 2425 4600 2770 4297 
Q 3116 3994 3184 3459 
z
M 888 1484 
Q 888 1194 1011 928 
Q 1134 663 1356 523 
Q 1578 384 1822 384 
Q 2178 384 2434 671 
Q 2691 959 2691 1453 
Q 2691 1928 2437 2201 
Q 2184 2475 1800 2475 
Q 1419 2475 1153 2201 
Q 888 1928 888 1484 
z
" transform="scale(0.015625)"/>
       </defs>
       <use xlink:href="#ArialMT-30"/>
       <use xlink:href="#ArialMT-2e" x="55.615234"/>
       <use xlink:href="#ArialMT-36" x="83.398438"/>
      </g>
     </g>
    </g>
    <g id="xtick_5">
     <g id="line2d_5">
      <g>
       <use xlink:href="#maf1c634a31" x="256.2888" y="276.461437" style="fill: #262626; stroke: #262626"/>
      </g>
     </g>
     <g id="text_5">
      <!-- 0.8 -->
      <g style="fill: #262626" transform="translate(250.1728 291.060312) scale(0.088 -0.088)">
       <defs>
        <path id="ArialMT-38" d="M 1131 2484 
Q 781 2613 612 2850 
Q 444 3088 444 3419 
Q 444 3919 803 4259 
Q 1163 4600 1759 4600 
Q 2359 4600 2725 4251 
Q 3091 3903 3091 3403 
Q 3091 3084 2923 2848 
Q 2756 2613 2416 2484 
Q 2838 2347 3058 2040 
Q 3278 1734 3278 1309 
Q 3278 722 2862 322 
Q 2447 -78 1769 -78 
Q 1091 -78 675 323 
Q 259 725 259 1325 
Q 259 1772 486 2073 
Q 713 2375 1131 2484 
z
M 1019 3438 
Q 1019 3113 1228 2906 
Q 1438 2700 1772 2700 
Q 2097 2700 2305 2904 
Q 2513 3109 2513 3406 
Q 2513 3716 2298 3927 
Q 2084 4138 1766 4138 
Q 1444 4138 1231 3931 
Q 1019 3725 1019 3438 
z
M 838 1322 
Q 838 1081 952 856 
Q 1066 631 1291 507 
Q 1516 384 1775 384 
Q 2178 384 2440 643 
Q 2703 903 2703 1303 
Q 2703 1709 2433 1975 
Q 2163 2241 1756 2241 
Q 1359 2241 1098 1978 
Q 838 1716 838 1322 
z
" transform="scale(0.015625)"/>
       </defs>
       <use xlink:href="#ArialMT-30"/>
       <use xlink:href="#ArialMT-2e" x="55.615234"/>
       <use xlink:href="#ArialMT-38" x="83.398438"/>
      </g>
     </g>
    </g>
    <g id="xtick_6">
     <g id="line2d_6">
      <g>
       <use xlink:href="#maf1c634a31" x="313.428" y="276.461437" style="fill: #262626; stroke: #262626"/>
      </g>
     </g>
     <g id="text_6">
      <!-- 1.0 -->
      <g style="fill: #262626" transform="translate(307.312 291.060312) scale(0.088 -0.088)">
       <defs>
        <path id="ArialMT-31" d="M 2384 0 
L 1822 0 
L 1822 3584 
Q 1619 3391 1289 3197 
Q 959 3003 697 2906 
L 697 3450 
Q 1169 3672 1522 3987 
Q 1875 4303 2022 4600 
L 2384 4600 
L 2384 0 
z
" transform="scale(0.015625)"/>
       </defs>
       <use xlink:href="#ArialMT-31"/>
       <use xlink:href="#ArialMT-2e" x="55.615234"/>
       <use xlink:href="#ArialMT-30" x="83.398438"/>
      </g>
     </g>
    </g>
   </g>
   <g id="matplotlib.axis_2">
    <g id="ytick_1">
     <g id="line2d_7">
      <defs>
       <path id="maf24bc3308" d="M 0 0 
L -4.8 0 
" style="stroke: #262626"/>
      </defs>
      <g>
       <use xlink:href="#maf24bc3308" x="27.732" y="276.461437" style="fill: #262626; stroke: #262626"/>
      </g>
     </g>
     <g id="text_7">
      <!-- 0.0 -->
      <g style="fill: #262626" transform="translate(7.2 279.610875) scale(0.088 -0.088)">
       <use xlink:href="#ArialMT-30"/>
       <use xlink:href="#ArialMT-2e" x="55.615234"/>
       <use xlink:href="#ArialMT-30" x="83.398438"/>
      </g>
     </g>
    </g>
    <g id="ytick_2">
     <g id="line2d_8">
      <g>
       <use xlink:href="#maf24bc3308" x="27.732" y="223.239037" style="fill: #262626; stroke: #262626"/>
      </g>
     </g>
     <g id="text_8">
      <!-- 0.2 -->
      <g style="fill: #262626" transform="translate(7.2 226.388475) scale(0.088 -0.088)">
       <use xlink:href="#ArialMT-30"/>
       <use xlink:href="#ArialMT-2e" x="55.615234"/>
       <use xlink:href="#ArialMT-32" x="83.398438"/>
      </g>
     </g>
    </g>
    <g id="ytick_3">
     <g id="line2d_9">
      <g>
       <use xlink:href="#maf24bc3308" x="27.732" y="170.016637" style="fill: #262626; stroke: #262626"/>
      </g>
     </g>
     <g id="text_9">
      <!-- 0.4 -->
      <g style="fill: #262626" transform="translate(7.2 173.166075) scale(0.088 -0.088)">
       <use xlink:href="#ArialMT-30"/>
       <use xlink:href="#ArialMT-2e" x="55.615234"/>
       <use xlink:href="#ArialMT-34" x="83.398438"/>
      </g>
     </g>
    </g>
    <g id="ytick_4">
     <g id="line2d_10">
      <g>
       <use xlink:href="#maf24bc3308" x="27.732" y="116.794237" style="fill: #262626; stroke: #262626"/>
      </g>
     </g>
     <g id="text_10">
      <!-- 0.6 -->
      <g style="fill: #262626" transform="translate(7.2 119.943675) scale(0.088 -0.088)">
       <use xlink:href="#ArialMT-30"/>
       <use xlink:href="#ArialMT-2e" x="55.615234"/>
       <use xlink:href="#ArialMT-36" x="83.398438"/>
      </g>
     </g>
    </g>
    <g id="ytick_5">
     <g id="line2d_11">
      <g>
       <use xlink:href="#maf24bc3308" x="27.732" y="63.571837" style="fill: #262626; stroke: #262626"/>
      </g>
     </g>
     <g id="text_11">
      <!-- 0.8 -->
      <g style="fill: #262626" transform="translate(7.2 66.721275) scale(0.088 -0.088)">
       <use xlink:href="#ArialMT-30"/>
       <use xlink:href="#ArialMT-2e" x="55.615234"/>
       <use xlink:href="#ArialMT-38" x="83.398438"/>
      </g>
     </g>
    </g>
    <g id="ytick_6">
     <g id="line2d_12">
      <g>
       <use xlink:href="#maf24bc3308" x="27.732" y="10.349437" style="fill: #262626; stroke: #262626"/>
      </g>
     </g>
     <g id="text_12">
      <!-- 1.0 -->
      <g style="fill: #262626" transform="translate(7.2 13.498875) scale(0.088 -0.088)">
       <use xlink:href="#ArialMT-31"/>
       <use xlink:href="#ArialMT-2e" x="55.615234"/>
       <use xlink:href="#ArialMT-30" x="83.398438"/>
      </g>
     </g>
    </g>
   </g>
   <g id="QuadContourSet_1">
    <path d="M 83.028 132.237205 
L 92.244 131.587982 
L 95.799129 130.52905 
L 101.46 128.783641 
L 110.676 124.170128 
L 114.016148 121.944792 
L 119.892 117.756566 
L 124.995065 113.360534 
L 129.108 109.435798 
L 133.367484 104.776276 
L 138.324 98.52357 
L 140.006015 96.192018 
L 144.961626 87.60776 
L 147.54 81.410538 
L 148.477697 79.023502 
L 150.150858 70.439244 
L 149.837301 61.854986 
L 147.54 54.934865 
L 146.834333 53.270728 
L 139.377346 44.68647 
L 138.324 43.912321 
L 129.108 38.973487 
L 120.431874 36.102212 
L 119.892 35.963397 
L 110.676 34.730356 
L 101.46 34.648276 
L 92.244 35.718009 
L 90.688872 36.102212 
L 83.028 38.371615 
L 73.812 42.777315 
L 71.005458 44.68647 
L 64.596 50.313649 
L 62.059322 53.270728 
L 56.706185 61.854986 
L 55.38 65.017172 
L 53.524608 70.439244 
L 51.844632 79.023502 
L 51.311539 87.60776 
L 51.876584 96.192018 
L 53.570275 104.776276 
L 55.38 110.175442 
L 56.804764 113.360534 
L 62.491972 121.944792 
L 64.596 124.293914 
L 73.812 130.309393 
L 74.677707 130.52905 
z
" clip-path="url(#p28851b0e05)" style="fill: #180f29"/>
    <path d="M 55.38 158.958796 
L 64.596 162.812487 
L 73.812 163.979284 
L 83.028 163.088924 
L 92.244 160.542865 
L 101.46 156.606581 
L 102.020611 156.281825 
L 110.676 151.432655 
L 116.158145 147.697567 
L 119.892 145.180476 
L 127.622445 139.113308 
L 129.108 137.933274 
L 137.408288 130.52905 
L 138.324 129.68323 
L 146.022071 121.944792 
L 147.54 120.327352 
L 153.720003 113.360534 
L 156.756 109.642111 
L 160.611316 104.776276 
L 165.972 97.228191 
L 166.704419 96.192018 
L 171.847378 87.60776 
L 175.188 80.804157 
L 176.083751 79.023502 
L 179.182629 70.439244 
L 181.012942 61.854986 
L 181.285931 53.270728 
L 179.575727 44.68647 
L 175.225616 36.102212 
L 175.188 36.056021 
L 166.77966 27.517954 
L 165.972 26.943821 
L 156.756 21.572182 
L 150.730382 18.933696 
L 147.54 17.775713 
L 138.324 15.200678 
L 129.108 13.404896 
L 119.892 12.281484 
L 110.676 11.77131 
L 101.46 11.85623 
L 92.244 12.559059 
L 83.028 13.950243 
L 73.812 16.164153 
L 65.92215 18.933696 
L 64.596 19.462434 
L 55.38 24.45281 
L 51.181141 27.517954 
L 46.164 32.079164 
L 42.658036 36.102212 
L 37.055154 44.68647 
L 36.948 44.903265 
L 33.347862 53.270728 
L 30.765839 61.854986 
L 29.043419 70.439244 
L 28.023897 79.023502 
L 27.732 85.16348 
L 27.732 87.60776 
L 27.732 93.845255 
L 27.775942 96.192018 
L 28.49461 104.776276 
L 29.796532 113.360534 
L 31.739276 121.944792 
L 34.419231 130.52905 
L 36.948 136.753893 
L 38.116295 139.113308 
L 43.454709 147.697567 
L 46.164 151.210112 
L 51.822223 156.281825 
z
M 74.677707 130.52905 
L 73.812 130.309393 
L 64.596 124.293914 
L 62.491972 121.944792 
L 56.804764 113.360534 
L 55.38 110.175442 
L 53.570275 104.776276 
L 51.876584 96.192018 
L 51.311539 87.60776 
L 51.844632 79.023502 
L 53.524608 70.439244 
L 55.38 65.017172 
L 56.706185 61.854986 
L 62.059322 53.270728 
L 64.596 50.313649 
L 71.005458 44.68647 
L 73.812 42.777315 
L 83.028 38.371615 
L 90.688872 36.102212 
L 92.244 35.718009 
L 101.46 34.648276 
L 110.676 34.730356 
L 119.892 35.963397 
L 120.431874 36.102212 
L 129.108 38.973487 
L 138.324 43.912321 
L 139.377346 44.68647 
L 146.834333 53.270728 
L 147.54 54.934865 
L 149.837301 61.854986 
L 150.150858 70.439244 
L 148.477697 79.023502 
L 147.54 81.410538 
L 144.961626 87.60776 
L 140.006015 96.192018 
L 138.324 98.52357 
L 133.367484 104.776276 
L 129.108 109.435798 
L 124.995065 113.360534 
L 119.892 117.756566 
L 114.016148 121.944792 
L 110.676 124.170128 
L 101.46 128.783641 
L 95.799129 130.52905 
L 92.244 131.587982 
L 83.028 132.237205 
z
" clip-path="url(#p28851b0e05)" style="fill: #481c48"/>
    <path d="M 46.164 195.967951 
L 55.38 198.3096 
L 64.596 198.389249 
L 73.812 196.667811 
L 83.028 193.394047 
L 88.371563 190.618857 
L 92.244 188.828967 
L 101.46 183.230726 
L 103.053585 182.034599 
L 110.676 176.794446 
L 114.80399 173.450341 
L 119.892 169.594281 
L 125.358456 164.866083 
L 129.108 161.770024 
L 135.099116 156.281825 
L 138.324 153.406063 
L 144.245303 147.697567 
L 147.54 144.545837 
L 152.920861 139.113308 
L 156.756 135.197471 
L 161.188357 130.52905 
L 165.972 125.335552 
L 169.067697 121.944792 
L 175.188 114.900275 
L 176.543495 113.360534 
L 183.575768 104.776276 
L 184.404 103.659752 
L 190.156409 96.192018 
L 193.62 91.132044 
L 196.184471 87.60776 
L 201.553023 79.023502 
L 202.836 76.506912 
L 206.224817 70.439244 
L 209.951414 61.854986 
L 212.052 54.844262 
L 212.588101 53.270728 
L 213.962879 44.68647 
L 213.646064 36.102212 
L 212.052 30.384223 
L 211.184661 27.517954 
L 205.887718 18.933696 
L 202.836 15.827503 
L 196.372289 10.349437 
L 193.62 10.349437 
L 184.404 10.349437 
L 175.188 10.349437 
L 165.972 10.349437 
L 156.756 10.349437 
L 147.54 10.349437 
L 138.324 10.349437 
L 129.108 10.349437 
L 119.892 10.349437 
L 110.676 10.349437 
L 101.46 10.349437 
L 92.244 10.349437 
L 83.028 10.349437 
L 73.812 10.349437 
L 64.596 10.349437 
L 55.38 10.349437 
L 46.164 10.349437 
L 36.948 10.349437 
L 30.995945 10.349437 
L 27.732 13.3585 
L 27.732 18.933696 
L 27.732 27.517954 
L 27.732 36.102212 
L 27.732 44.68647 
L 27.732 53.270728 
L 27.732 61.854986 
L 27.732 70.439244 
L 27.732 79.023502 
L 27.732 85.16348 
L 28.023897 79.023502 
L 29.043419 70.439244 
L 30.765839 61.854986 
L 33.347862 53.270728 
L 36.948 44.903265 
L 37.055154 44.68647 
L 42.658036 36.102212 
L 46.164 32.079164 
L 51.181141 27.517954 
L 55.38 24.45281 
L 64.596 19.462434 
L 65.92215 18.933696 
L 73.812 16.164153 
L 83.028 13.950243 
L 92.244 12.559059 
L 101.46 11.85623 
L 110.676 11.77131 
L 119.892 12.281484 
L 129.108 13.404896 
L 138.324 15.200678 
L 147.54 17.775713 
L 150.730382 18.933696 
L 156.756 21.572182 
L 165.972 26.943821 
L 166.77966 27.517954 
L 175.188 36.056021 
L 175.225616 36.102212 
L 179.575727 44.68647 
L 181.285931 53.270728 
L 181.012942 61.854986 
L 179.182629 70.439244 
L 176.083751 79.023502 
L 175.188 80.804157 
L 171.847378 87.60776 
L 166.704419 96.192018 
L 165.972 97.228191 
L 160.611316 104.776276 
L 156.756 109.642111 
L 153.720003 113.360534 
L 147.54 120.327352 
L 146.022071 121.944792 
L 138.324 129.68323 
L 137.408288 130.52905 
L 129.108 137.933274 
L 127.622445 139.113308 
L 119.892 145.180476 
L 116.158145 147.697567 
L 110.676 151.432655 
L 102.020611 156.281825 
L 101.46 156.606581 
L 92.244 160.542865 
L 83.028 163.088924 
L 73.812 163.979284 
L 64.596 162.812487 
L 55.38 158.958796 
L 51.822223 156.281825 
L 46.164 151.210112 
L 43.454709 147.697567 
L 38.116295 139.113308 
L 36.948 136.753893 
L 34.419231 130.52905 
L 31.739276 121.944792 
L 29.796532 113.360534 
L 28.49461 104.776276 
L 27.775942 96.192018 
L 27.732 93.845255 
L 27.732 96.192018 
L 27.732 104.776276 
L 27.732 113.360534 
L 27.732 121.944792 
L 27.732 130.52905 
L 27.732 139.113308 
L 27.732 147.697567 
L 27.732 156.281825 
L 27.732 164.866083 
L 27.732 173.450341 
L 27.732 181.041647 
L 28.553435 182.034599 
L 36.948 190.549382 
L 37.054066 190.618857 
z
" clip-path="url(#p28851b0e05)" style="fill: #7b1f59"/>
    <path d="M 36.948 276.461437 
L 46.164 276.461437 
L 55.38 276.461437 
L 56.38777 276.461437 
L 61.377975 267.877179 
L 64.596 264.087225 
L 67.230635 259.292921 
L 73.812 250.737482 
L 73.827583 250.708663 
L 80.321916 242.124405 
L 83.028 239.377917 
L 87.379117 233.540147 
L 92.244 228.370104 
L 94.792018 224.955889 
L 101.46 217.669669 
L 102.439612 216.371631 
L 110.182054 207.787373 
L 110.676 207.316769 
L 117.954988 199.203115 
L 119.892 197.300357 
L 125.876846 190.618857 
L 129.108 187.370873 
L 133.903327 182.034599 
L 138.324 177.514022 
L 142.002097 173.450341 
L 147.54 167.716728 
L 150.147503 164.866083 
L 156.756 157.966584 
L 158.318129 156.281825 
L 165.972 148.252309 
L 166.494987 147.697567 
L 174.665013 139.113308 
L 175.188 138.558566 
L 182.841871 130.52905 
L 184.404 128.844291 
L 191.012497 121.944792 
L 193.62 119.094147 
L 199.157903 113.360534 
L 202.836 109.296853 
L 207.256673 104.776276 
L 212.052 99.440002 
L 215.283154 96.192018 
L 221.268 89.510518 
L 223.205012 87.60776 
L 230.484 79.494106 
L 230.977946 79.023502 
L 238.720388 70.439244 
L 239.7 69.141206 
L 246.367982 61.854986 
L 248.916 58.440771 
L 253.780883 53.270728 
L 258.132 47.432958 
L 260.838084 44.68647 
L 267.332417 36.102212 
L 267.348 36.073393 
L 273.929365 27.517954 
L 276.564 22.72365 
L 279.782025 18.933696 
L 284.77223 10.349437 
L 276.564 10.349437 
L 267.348 10.349437 
L 258.132 10.349437 
L 248.916 10.349437 
L 239.7 10.349437 
L 230.484 10.349437 
L 221.268 10.349437 
L 212.052 10.349437 
L 202.836 10.349437 
L 196.372289 10.349437 
L 202.836 15.827503 
L 205.887718 18.933696 
L 211.184661 27.517954 
L 212.052 30.384223 
L 213.646064 36.102212 
L 213.962879 44.68647 
L 212.588101 53.270728 
L 212.052 54.844262 
L 209.951414 61.854986 
L 206.224817 70.439244 
L 202.836 76.506912 
L 201.553023 79.023502 
L 196.184471 87.60776 
L 193.62 91.132044 
L 190.156409 96.192018 
L 184.404 103.659752 
L 183.575768 104.776276 
L 176.543495 113.360534 
L 175.188 114.900275 
L 169.067697 121.944792 
L 165.972 125.335552 
L 161.188357 130.52905 
L 156.756 135.197471 
L 152.920861 139.113308 
L 147.54 144.545837 
L 144.245303 147.697567 
L 138.324 153.406063 
L 135.099116 156.281825 
L 129.108 161.770024 
L 125.358456 164.866083 
L 119.892 169.594281 
L 114.80399 173.450341 
L 110.676 176.794446 
L 103.053585 182.034599 
L 101.46 183.230726 
L 92.244 188.828967 
L 88.371563 190.618857 
L 83.028 193.394047 
L 73.812 196.667811 
L 64.596 198.389249 
L 55.38 198.3096 
L 46.164 195.967951 
L 37.054066 190.618857 
L 36.948 190.549382 
L 28.553435 182.034599 
L 27.732 181.041647 
L 27.732 182.034599 
L 27.732 190.618857 
L 27.732 199.203115 
L 27.732 207.787373 
L 27.732 216.371631 
L 27.732 224.955889 
L 27.732 233.540147 
L 27.732 242.124405 
L 27.732 250.708663 
L 27.732 259.292921 
L 27.732 267.877179 
L 27.732 276.461437 
z
M 30.995945 10.349437 
L 27.732 10.349437 
L 27.732 13.3585 
z
" clip-path="url(#p28851b0e05)" style="fill: #b21758"/>
    <path d="M 64.596 276.461437 
L 73.812 276.461437 
L 83.028 276.461437 
L 92.244 276.461437 
L 101.46 276.461437 
L 110.676 276.461437 
L 119.892 276.461437 
L 129.108 276.461437 
L 138.324 276.461437 
L 144.787711 276.461437 
L 138.324 270.983372 
L 135.272282 267.877179 
L 129.975339 259.292921 
L 129.108 256.426652 
L 127.513936 250.708663 
L 127.197121 242.124405 
L 128.571899 233.540147 
L 129.108 231.966613 
L 131.208586 224.955889 
L 134.935183 216.371631 
L 138.324 210.303963 
L 139.606977 207.787373 
L 144.975529 199.203115 
L 147.54 195.678831 
L 151.003591 190.618857 
L 156.756 183.151123 
L 157.584232 182.034599 
L 164.616505 173.450341 
L 165.972 171.9106 
L 172.092303 164.866083 
L 175.188 161.475323 
L 179.971643 156.281825 
L 184.404 151.613404 
L 188.239139 147.697567 
L 193.62 142.265038 
L 196.914697 139.113308 
L 202.836 133.404812 
L 206.060884 130.52905 
L 212.052 125.040851 
L 215.801544 121.944792 
L 221.268 117.216594 
L 226.35601 113.360534 
L 230.484 110.016429 
L 238.106415 104.776276 
L 239.7 103.580149 
L 248.916 97.981908 
L 252.788437 96.192018 
L 258.132 93.416828 
L 267.348 90.143064 
L 276.564 88.421626 
L 285.78 88.501275 
L 294.996 90.842924 
L 304.105934 96.192018 
L 304.212 96.261493 
L 312.606565 104.776276 
L 313.428 105.769228 
L 313.428 104.776276 
L 313.428 96.192018 
L 313.428 87.60776 
L 313.428 79.023502 
L 313.428 70.439244 
L 313.428 61.854986 
L 313.428 53.270728 
L 313.428 44.68647 
L 313.428 36.102212 
L 313.428 27.517954 
L 313.428 18.933696 
L 313.428 10.349437 
L 304.212 10.349437 
L 294.996 10.349437 
L 285.78 10.349437 
L 284.77223 10.349437 
L 279.782025 18.933696 
L 276.564 22.72365 
L 273.929365 27.517954 
L 267.348 36.073393 
L 267.332417 36.102212 
L 260.838084 44.68647 
L 258.132 47.432958 
L 253.780883 53.270728 
L 248.916 58.440771 
L 246.367982 61.854986 
L 239.7 69.141206 
L 238.720388 70.439244 
L 230.977946 79.023502 
L 230.484 79.494106 
L 223.205012 87.60776 
L 221.268 89.510518 
L 215.283154 96.192018 
L 212.052 99.440002 
L 207.256673 104.776276 
L 202.836 109.296853 
L 199.157903 113.360534 
L 193.62 119.094147 
L 191.012497 121.944792 
L 184.404 128.844291 
L 182.841871 130.52905 
L 175.188 138.558566 
L 174.665013 139.113308 
L 166.494987 147.697567 
L 165.972 148.252309 
L 158.318129 156.281825 
L 156.756 157.966584 
L 150.147503 164.866083 
L 147.54 167.716728 
L 142.002097 173.450341 
L 138.324 177.514022 
L 133.903327 182.034599 
L 129.108 187.370873 
L 125.876846 190.618857 
L 119.892 197.300357 
L 117.954988 199.203115 
L 110.676 207.316769 
L 110.182054 207.787373 
L 102.439612 216.371631 
L 101.46 217.669669 
L 94.792018 224.955889 
L 92.244 228.370104 
L 87.379117 233.540147 
L 83.028 239.377917 
L 80.321916 242.124405 
L 73.827583 250.708663 
L 73.812 250.737482 
L 67.230635 259.292921 
L 64.596 264.087225 
L 61.377975 267.877179 
L 56.38777 276.461437 
z
M 313.428 276.461437 
L 313.428 273.452375 
L 310.164055 276.461437 
z
" clip-path="url(#p28851b0e05)" style="fill: #df2f44"/>
    <path d="M 138.324 270.983372 
L 144.787711 276.461437 
L 147.54 276.461437 
L 156.756 276.461437 
L 165.972 276.461437 
L 175.188 276.461437 
L 184.404 276.461437 
L 193.62 276.461437 
L 202.836 276.461437 
L 212.052 276.461437 
L 221.268 276.461437 
L 230.484 276.461437 
L 239.7 276.461437 
L 248.916 276.461437 
L 258.132 276.461437 
L 267.348 276.461437 
L 276.564 276.461437 
L 285.78 276.461437 
L 294.996 276.461437 
L 304.212 276.461437 
L 310.164055 276.461437 
L 313.428 273.452375 
L 313.428 267.877179 
L 313.428 259.292921 
L 313.428 250.708663 
L 313.428 242.124405 
L 313.428 233.540147 
L 313.428 224.955889 
L 313.428 216.371631 
L 313.428 207.787373 
L 313.428 201.647395 
L 313.136103 207.787373 
L 312.116581 216.371631 
L 310.394161 224.955889 
L 307.812138 233.540147 
L 304.212 241.90761 
L 304.104846 242.124405 
L 298.501964 250.708663 
L 294.996 254.731711 
L 289.978859 259.292921 
L 285.78 262.358065 
L 276.564 267.348441 
L 275.23785 267.877179 
L 267.348 270.646722 
L 258.132 272.860632 
L 248.916 274.251816 
L 239.7 274.954645 
L 230.484 275.039565 
L 221.268 274.529391 
L 212.052 273.405979 
L 202.836 271.610197 
L 193.62 269.035162 
L 190.429618 267.877179 
L 184.404 265.238693 
L 175.188 259.867054 
L 174.38034 259.292921 
L 165.972 250.754854 
L 165.934384 250.708663 
L 161.584273 242.124405 
L 159.874069 233.540147 
L 160.147058 224.955889 
L 161.977371 216.371631 
L 165.076249 207.787373 
L 165.972 206.006718 
L 169.312622 199.203115 
L 174.455581 190.618857 
L 175.188 189.582684 
L 180.548684 182.034599 
L 184.404 177.168764 
L 187.439997 173.450341 
L 193.62 166.483523 
L 195.137929 164.866083 
L 202.836 157.127645 
L 203.751712 156.281825 
L 212.052 148.877601 
L 213.537555 147.697567 
L 221.268 141.630399 
L 225.001855 139.113308 
L 230.484 135.37822 
L 239.139389 130.52905 
L 239.7 130.204294 
L 248.916 126.26801 
L 258.132 123.721951 
L 267.348 122.831591 
L 276.564 123.998388 
L 285.78 127.852079 
L 289.337777 130.52905 
L 294.996 135.600763 
L 297.705291 139.113308 
L 303.043705 147.697567 
L 304.212 150.056982 
L 306.740769 156.281825 
L 309.420724 164.866083 
L 311.363468 173.450341 
L 312.66539 182.034599 
L 313.384058 190.618857 
L 313.428 192.96562 
L 313.428 190.618857 
L 313.428 182.034599 
L 313.428 173.450341 
L 313.428 164.866083 
L 313.428 156.281825 
L 313.428 147.697567 
L 313.428 139.113308 
L 313.428 130.52905 
L 313.428 121.944792 
L 313.428 113.360534 
L 313.428 105.769228 
L 312.606565 104.776276 
L 304.212 96.261493 
L 304.105934 96.192018 
L 294.996 90.842924 
L 285.78 88.501275 
L 276.564 88.421626 
L 267.348 90.143064 
L 258.132 93.416828 
L 252.788437 96.192018 
L 248.916 97.981908 
L 239.7 103.580149 
L 238.106415 104.776276 
L 230.484 110.016429 
L 226.35601 113.360534 
L 221.268 117.216594 
L 215.801544 121.944792 
L 212.052 125.040851 
L 206.060884 130.52905 
L 202.836 133.404812 
L 196.914697 139.113308 
L 193.62 142.265038 
L 188.239139 147.697567 
L 184.404 151.613404 
L 179.971643 156.281825 
L 175.188 161.475323 
L 172.092303 164.866083 
L 165.972 171.9106 
L 164.616505 173.450341 
L 157.584232 182.034599 
L 156.756 183.151123 
L 151.003591 190.618857 
L 147.54 195.678831 
L 144.975529 199.203115 
L 139.606977 207.787373 
L 138.324 210.303963 
L 134.935183 216.371631 
L 131.208586 224.955889 
L 129.108 231.966613 
L 128.571899 233.540147 
L 127.197121 242.124405 
L 127.513936 250.708663 
L 129.108 256.426652 
L 129.975339 259.292921 
L 135.272282 267.877179 
z
" clip-path="url(#p28851b0e05)" style="fill: #f26b49"/>
    <path d="M 193.62 269.035162 
L 202.836 271.610197 
L 212.052 273.405979 
L 221.268 274.529391 
L 230.484 275.039565 
L 239.7 274.954645 
L 248.916 274.251816 
L 258.132 272.860632 
L 267.348 270.646722 
L 275.23785 267.877179 
L 276.564 267.348441 
L 285.78 262.358065 
L 289.978859 259.292921 
L 294.996 254.731711 
L 298.501964 250.708663 
L 304.104846 242.124405 
L 304.212 241.90761 
L 307.812138 233.540147 
L 310.394161 224.955889 
L 312.116581 216.371631 
L 313.136103 207.787373 
L 313.428 201.647395 
L 313.428 199.203115 
L 313.428 192.96562 
L 313.384058 190.618857 
L 312.66539 182.034599 
L 311.363468 173.450341 
L 309.420724 164.866083 
L 306.740769 156.281825 
L 304.212 150.056982 
L 303.043705 147.697567 
L 297.705291 139.113308 
L 294.996 135.600763 
L 289.337777 130.52905 
L 285.78 127.852079 
L 276.564 123.998388 
L 267.348 122.831591 
L 258.132 123.721951 
L 248.916 126.26801 
L 239.7 130.204294 
L 239.139389 130.52905 
L 230.484 135.37822 
L 225.001855 139.113308 
L 221.268 141.630399 
L 213.537555 147.697567 
L 212.052 148.877601 
L 203.751712 156.281825 
L 202.836 157.127645 
L 195.137929 164.866083 
L 193.62 166.483523 
L 187.439997 173.450341 
L 184.404 177.168764 
L 180.548684 182.034599 
L 175.188 189.582684 
L 174.455581 190.618857 
L 169.312622 199.203115 
L 165.972 206.006718 
L 165.076249 207.787373 
L 161.977371 216.371631 
L 160.147058 224.955889 
L 159.874069 233.540147 
L 161.584273 242.124405 
L 165.934384 250.708663 
L 165.972 250.754854 
L 174.38034 259.292921 
L 175.188 259.867054 
L 184.404 265.238693 
L 190.429618 267.877179 
z
M 220.728126 250.708663 
L 212.052 247.837388 
L 202.836 242.898554 
L 201.782654 242.124405 
L 194.325667 233.540147 
L 193.62 231.87601 
L 191.322699 224.955889 
L 191.009142 216.371631 
L 192.682303 207.787373 
L 193.62 205.400337 
L 196.198374 199.203115 
L 201.153985 190.618857 
L 202.836 188.287305 
L 207.792516 182.034599 
L 212.052 177.375077 
L 216.164935 173.450341 
L 221.268 169.054309 
L 227.143852 164.866083 
L 230.484 162.640747 
L 239.7 158.027234 
L 245.360871 156.281825 
L 248.916 155.222893 
L 258.132 154.57367 
L 266.482293 156.281825 
L 267.348 156.501482 
L 276.564 162.516961 
L 278.668028 164.866083 
L 284.355236 173.450341 
L 285.78 176.635433 
L 287.589725 182.034599 
L 289.283416 190.618857 
L 289.848461 199.203115 
L 289.315368 207.787373 
L 287.635392 216.371631 
L 285.78 221.793703 
L 284.453815 224.955889 
L 279.100678 233.540147 
L 276.564 236.497226 
L 270.154542 242.124405 
L 267.348 244.03356 
L 258.132 248.43926 
L 250.471128 250.708663 
L 248.916 251.092866 
L 239.7 252.162599 
L 230.484 252.080519 
L 221.268 250.847478 
z
" clip-path="url(#p28851b0e05)" style="fill: #f6a37a"/>
    <path d="M 221.268 250.847478 
L 230.484 252.080519 
L 239.7 252.162599 
L 248.916 251.092866 
L 250.471128 250.708663 
L 258.132 248.43926 
L 267.348 244.03356 
L 270.154542 242.124405 
L 276.564 236.497226 
L 279.100678 233.540147 
L 284.453815 224.955889 
L 285.78 221.793703 
L 287.635392 216.371631 
L 289.315368 207.787373 
L 289.848461 199.203115 
L 289.283416 190.618857 
L 287.589725 182.034599 
L 285.78 176.635433 
L 284.355236 173.450341 
L 278.668028 164.866083 
L 276.564 162.516961 
L 267.348 156.501482 
L 266.482293 156.281825 
L 258.132 154.57367 
L 248.916 155.222893 
L 245.360871 156.281825 
L 239.7 158.027234 
L 230.484 162.640747 
L 227.143852 164.866083 
L 221.268 169.054309 
L 216.164935 173.450341 
L 212.052 177.375077 
L 207.792516 182.034599 
L 202.836 188.287305 
L 201.153985 190.618857 
L 196.198374 199.203115 
L 193.62 205.400337 
L 192.682303 207.787373 
L 191.009142 216.371631 
L 191.322699 224.955889 
L 193.62 231.87601 
L 194.325667 233.540147 
L 201.782654 242.124405 
L 202.836 242.898554 
L 212.052 247.837388 
L 220.728126 250.708663 
z
" clip-path="url(#p28851b0e05)" style="fill: #f8d4bc"/>
   </g>
   <g id="patch_3">
    <path d="M 27.732 276.461437 
L 27.732 10.349437 
" style="fill: none; stroke: #262626; stroke-linejoin: miter; stroke-linecap: square"/>
   </g>
   <g id="patch_4">
    <path d="M 27.732 276.461437 
L 313.428 276.461437 
" style="fill: none; stroke: #262626; stroke-linejoin: miter; stroke-linecap: square"/>
   </g>
  </g>
  <g id="axes_2">
   <g id="patch_5">
    <path d="M 331.284 276.461437 
L 344.5896 276.461437 
L 344.5896 10.349437 
L 331.284 10.349437 
z
" style="fill: #ffffff"/>
   </g>
   <g id="matplotlib.axis_3"/>
   <g id="matplotlib.axis_4">
    <g id="ytick_7">
     <g id="line2d_13">
      <defs>
       <path id="m1bed7788c6" d="M 0 0 
L 4.8 0 
" style="stroke: #262626"/>
      </defs>
      <g>
       <use xlink:href="#m1bed7788c6" x="344.5896" y="276.461437" style="fill: #262626; stroke: #262626"/>
      </g>
     </g>
     <g id="text_13">
      <!-- −2.0 -->
      <g style="fill: #262626" transform="translate(352.8896 279.610875) scale(0.088 -0.088)">
       <defs>
        <path id="ArialMT-2212" d="M 3381 1997 
L 356 1997 
L 356 2522 
L 3381 2522 
L 3381 1997 
z
" transform="scale(0.015625)"/>
       </defs>
       <use xlink:href="#ArialMT-2212"/>
       <use xlink:href="#ArialMT-32" x="58.398438"/>
       <use xlink:href="#ArialMT-2e" x="114.013672"/>
       <use xlink:href="#ArialMT-30" x="141.796875"/>
      </g>
     </g>
    </g>
    <g id="ytick_8">
     <g id="line2d_14">
      <g>
       <use xlink:href="#m1bed7788c6" x="344.5896" y="243.197437" style="fill: #262626; stroke: #262626"/>
      </g>
     </g>
     <g id="text_14">
      <!-- −1.5 -->
      <g style="fill: #262626" transform="translate(352.8896 246.346875) scale(0.088 -0.088)">
       <defs>
        <path id="ArialMT-35" d="M 266 1200 
L 856 1250 
Q 922 819 1161 601 
Q 1400 384 1738 384 
Q 2144 384 2425 690 
Q 2706 997 2706 1503 
Q 2706 1984 2436 2262 
Q 2166 2541 1728 2541 
Q 1456 2541 1237 2417 
Q 1019 2294 894 2097 
L 366 2166 
L 809 4519 
L 3088 4519 
L 3088 3981 
L 1259 3981 
L 1013 2750 
Q 1425 3038 1878 3038 
Q 2478 3038 2890 2622 
Q 3303 2206 3303 1553 
Q 3303 931 2941 478 
Q 2500 -78 1738 -78 
Q 1113 -78 717 272 
Q 322 622 266 1200 
z
" transform="scale(0.015625)"/>
       </defs>
       <use xlink:href="#ArialMT-2212"/>
       <use xlink:href="#ArialMT-31" x="58.398438"/>
       <use xlink:href="#ArialMT-2e" x="114.013672"/>
       <use xlink:href="#ArialMT-35" x="141.796875"/>
      </g>
     </g>
    </g>
    <g id="ytick_9">
     <g id="line2d_15">
      <g>
       <use xlink:href="#m1bed7788c6" x="344.5896" y="209.933437" style="fill: #262626; stroke: #262626"/>
      </g>
     </g>
     <g id="text_15">
      <!-- −1.0 -->
      <g style="fill: #262626" transform="translate(352.8896 213.082875) scale(0.088 -0.088)">
       <use xlink:href="#ArialMT-2212"/>
       <use xlink:href="#ArialMT-31" x="58.398438"/>
       <use xlink:href="#ArialMT-2e" x="114.013672"/>
       <use xlink:href="#ArialMT-30" x="141.796875"/>
      </g>
     </g>
    </g>
    <g id="ytick_10">
     <g id="line2d_16">
      <g>
       <use xlink:href="#m1bed7788c6" x="344.5896" y="176.669437" style="fill: #262626; stroke: #262626"/>
      </g>
     </g>
     <g id="text_16">
      <!-- −0.5 -->
      <g style="fill: #262626" transform="translate(352.8896 179.818875) scale(0.088 -0.088)">
       <use xlink:href="#ArialMT-2212"/>
       <use xlink:href="#ArialMT-30" x="58.398438"/>
       <use xlink:href="#ArialMT-2e" x="114.013672"/>
       <use xlink:href="#ArialMT-35" x="141.796875"/>
      </g>
     </g>
    </g>
    <g id="ytick_11">
     <g id="line2d_17">
      <g>
       <use xlink:href="#m1bed7788c6" x="344.5896" y="143.405437" style="fill: #262626; stroke: #262626"/>
      </g>
     </g>
     <g id="text_17">
      <!-- 0.0 -->
      <g style="fill: #262626" transform="translate(352.8896 146.554875) scale(0.088 -0.088)">
       <use xlink:href="#ArialMT-30"/>
       <use xlink:href="#ArialMT-2e" x="55.615234"/>
       <use xlink:href="#ArialMT-30" x="83.398438"/>
      </g>
     </g>
    </g>
    <g id="ytick_12">
     <g id="line2d_18">
      <g>
       <use xlink:href="#m1bed7788c6" x="344.5896" y="110.141437" style="fill: #262626; stroke: #262626"/>
      </g>
     </g>
     <g id="text_18">
      <!-- 0.5 -->
      <g style="fill: #262626" transform="translate(352.8896 113.290875) scale(0.088 -0.088)">
       <use xlink:href="#ArialMT-30"/>
       <use xlink:href="#ArialMT-2e" x="55.615234"/>
       <use xlink:href="#ArialMT-35" x="83.398438"/>
      </g>
     </g>
    </g>
    <g id="ytick_13">
     <g id="line2d_19">
      <g>
       <use xlink:href="#m1bed7788c6" x="344.5896" y="76.877437" style="fill: #262626; stroke: #262626"/>
      </g>
     </g>
     <g id="text_19">
      <!-- 1.0 -->
      <g style="fill: #262626" transform="translate(352.8896 80.026875) scale(0.088 -0.088)">
       <use xlink:href="#ArialMT-31"/>
       <use xlink:href="#ArialMT-2e" x="55.615234"/>
       <use xlink:href="#ArialMT-30" x="83.398438"/>
      </g>
     </g>
    </g>
    <g id="ytick_14">
     <g id="line2d_20">
      <g>
       <use xlink:href="#m1bed7788c6" x="344.5896" y="43.613437" style="fill: #262626; stroke: #262626"/>
      </g>
     </g>
     <g id="text_20">
      <!-- 1.5 -->
      <g style="fill: #262626" transform="translate(352.8896 46.762875) scale(0.088 -0.088)">
       <use xlink:href="#ArialMT-31"/>
       <use xlink:href="#ArialMT-2e" x="55.615234"/>
       <use xlink:href="#ArialMT-35" x="83.398438"/>
      </g>
     </g>
    </g>
    <g id="ytick_15">
     <g id="line2d_21">
      <g>
       <use xlink:href="#m1bed7788c6" x="344.5896" y="10.349437" style="fill: #262626; stroke: #262626"/>
      </g>
     </g>
     <g id="text_21">
      <!-- 2.0 -->
      <g style="fill: #262626" transform="translate(352.8896 13.498875) scale(0.088 -0.088)">
       <use xlink:href="#ArialMT-32"/>
       <use xlink:href="#ArialMT-2e" x="55.615234"/>
       <use xlink:href="#ArialMT-30" x="83.398438"/>
      </g>
     </g>
    </g>
   </g>
   <g id="QuadMesh_1">
    <path d="M 331.284 276.461437 
L 344.5896 276.461437 
L 344.5896 243.197437 
L 331.284 243.197437 
L 331.284 276.461437 
" clip-path="url(#p95804fb707)" style="fill: #180f29"/>
    <path d="M 331.284 243.197437 
L 344.5896 243.197437 
L 344.5896 209.933437 
L 331.284 209.933437 
L 331.284 243.197437 
" clip-path="url(#p95804fb707)" style="fill: #481c48"/>
    <path d="M 331.284 209.933437 
L 344.5896 209.933437 
L 344.5896 176.669437 
L 331.284 176.669437 
L 331.284 209.933437 
" clip-path="url(#p95804fb707)" style="fill: #7b1f59"/>
    <path d="M 331.284 176.669437 
L 344.5896 176.669437 
L 344.5896 143.405437 
L 331.284 143.405437 
L 331.284 176.669437 
" clip-path="url(#p95804fb707)" style="fill: #b21758"/>
    <path d="M 331.284 143.405437 
L 344.5896 143.405437 
L 344.5896 110.141437 
L 331.284 110.141437 
L 331.284 143.405437 
" clip-path="url(#p95804fb707)" style="fill: #df2f44"/>
    <path d="M 331.284 110.141437 
L 344.5896 110.141437 
L 344.5896 76.877437 
L 331.284 76.877437 
L 331.284 110.141437 
" clip-path="url(#p95804fb707)" style="fill: #f26b49"/>
    <path d="M 331.284 76.877437 
L 344.5896 76.877437 
L 344.5896 43.613437 
L 331.284 43.613437 
L 331.284 76.877437 
" clip-path="url(#p95804fb707)" style="fill: #f6a37a"/>
    <path d="M 331.284 43.613437 
L 344.5896 43.613437 
L 344.5896 10.349437 
L 331.284 10.349437 
L 331.284 43.613437 
" clip-path="url(#p95804fb707)" style="fill: #f8d4bc"/>
   </g>
   <g id="LineCollection_1"/>
   <g id="patch_6">
    <path d="M 331.284 276.461437 
L 331.284 10.349437 
" style="fill: none; stroke: #262626; stroke-linejoin: miter; stroke-linecap: square"/>
   </g>
   <g id="patch_7">
    <path d="M 331.284 276.461437 
L 344.5896 276.461437 
" style="fill: none; stroke: #262626; stroke-linejoin: miter; stroke-linecap: square"/>
   </g>
   <g id="patch_8">
    <path d="M 331.284 276.461437 
L 337.9368 276.461437 
L 344.5896 276.461437 
L 344.5896 10.349437 
L 337.9368 10.349437 
L 331.284 10.349437 
L 331.284 276.461437 
z
" style="fill: none; stroke: #262626; stroke-linejoin: miter; stroke-linecap: square"/>
   </g>
  </g>
 </g>
 <defs>
  <clipPath id="p28851b0e05">
   <rect x="27.732" y="10.349437" width="285.696" height="266.112"/>
  </clipPath>
  <clipPath id="p95804fb707">
   <rect x="331.284" y="10.349437" width="13.3056" height="266.112"/>
  </clipPath>
 </defs>
</svg>