<?xml version="1.0" encoding="utf-8" standalone="no"?>
<!DOCTYPE svg PUBLIC "-//W3C//DTD SVG 1.1//EN"
  "http://www.w3.org/Graphics/SVG/1.1/DTD/svg11.dtd">
<svg xmlns:xlink="http://www.w3.org/1999/xlink" width="414.84825pt" height="322.744875pt" viewBox="0 0 414.84825 322.744875" xmlns="http://www.w3.org/2000/svg" version="1.1">
 <metadata>
  <rdf:RDF xmlns:dc="http://purl.org/dc/elements/1.1/" xmlns:cc="http://creativecommons.org/ns#" xmlns:rdf="http://www.w3.org/1999/02/22-rdf-syntax-ns#">
   <cc:Work>
    <dc:type rdf:resource="http://purl.org/dc/dcmitype/StillImage"/>
    <dc:date>2024-09-26T19:15:06.485693</dc:date>
    <dc:format>image/svg+xml</dc:format>
    <dc:creator>
     <cc:Agent>
      <dc:title>Matplotlib v3.9.0, https://matplotlib.org/</dc:title>
     </cc:Agent>
    </dc:creator>
   </cc:Work>
  </rdf:RDF>
 </metadata>
 <defs>
  <style type="text/css">*{stroke-linejoin: round; stroke-linecap: butt}</style>
 </defs>
 <g id="figure_1">
  <g id="patch_1">
   <path d="M 0 322.744875 
L 414.84825 322.744875 
L 414.84825 0 
L 0 0 
z
" style="fill: #ffffff"/>
  </g>
  <g id="axes_1">
   <g id="patch_2">
    <path d="M 50.52825 286.3005 
L 407.64825 286.3005 
L 407.64825 20.1885 
L 50.52825 20.1885 
z
" style="fill: #ffffff"/>
   </g>
   <g id="matplotlib.axis_1">
    <g id="xtick_1">
     <g id="line2d_1">
      <path d="M 66.760977 286.3005 
L 66.760977 20.1885 
" clip-path="url(#p5aa62ae6a5)" style="fill: none; stroke: #cccccc; stroke-width: 0.8; stroke-linecap: round"/>
     </g>
     <g id="line2d_2">
      <defs>
       <path id="ma9d7581968" d="M 0 0 
L 0 4.8 
" style="stroke: #262626"/>
      </defs>
      <g>
       <use xlink:href="#ma9d7581968" x="66.760977" y="286.3005" style="fill: #262626; stroke: #262626"/>
      </g>
     </g>
     <g id="text_1">
      <!-- 0 -->
      <g style="fill: #262626" transform="translate(64.314165 300.899375) scale(0.088 -0.088)">
       <defs>
        <path id="ArialMT-30" d="M 266 2259 
Q 266 3072 433 3567 
Q 600 4063 929 4331 
Q 1259 4600 1759 4600 
Q 2128 4600 2406 4451 
Q 2684 4303 2865 4023 
Q 3047 3744 3150 3342 
Q 3253 2941 3253 2259 
Q 3253 1453 3087 958 
Q 2922 463 2592 192 
Q 2263 -78 1759 -78 
Q 1097 -78 719 397 
Q 266 969 266 2259 
z
M 844 2259 
Q 844 1131 1108 757 
Q 1372 384 1759 384 
Q 2147 384 2411 759 
Q 2675 1134 2675 2259 
Q 2675 3391 2411 3762 
Q 2147 4134 1753 4134 
Q 1366 4134 1134 3806 
Q 844 3388 844 2259 
z
" transform="scale(0.015625)"/>
       </defs>
       <use xlink:href="#ArialMT-30"/>
      </g>
     </g>
    </g>
    <g id="xtick_2">
     <g id="line2d_3">
      <path d="M 131.691886 286.3005 
L 131.691886 20.1885 
" clip-path="url(#p5aa62ae6a5)" style="fill: none; stroke: #cccccc; stroke-width: 0.8; stroke-linecap: round"/>
     </g>
     <g id="line2d_4">
      <g>
       <use xlink:href="#ma9d7581968" x="131.691886" y="286.3005" style="fill: #262626; stroke: #262626"/>
      </g>
     </g>
     <g id="text_2">
      <!-- 10 -->
      <g style="fill: #262626" transform="translate(126.798261 300.899375) scale(0.088 -0.088)">
       <defs>
        <path id="ArialMT-31" d="M 2384 0 
L 1822 0 
L 1822 3584 
Q 1619 3391 1289 3197 
Q 959 3003 697 2906 
L 697 3450 
Q 1169 3672 1522 3987 
Q 1875 4303 2022 4600 
L 2384 4600 
L 2384 0 
z
" transform="scale(0.015625)"/>
       </defs>
       <use xlink:href="#ArialMT-31"/>
       <use xlink:href="#ArialMT-30" x="55.615234"/>
      </g>
     </g>
    </g>
    <g id="xtick_3">
     <g id="line2d_5">
      <path d="M 196.622795 286.3005 
L 196.622795 20.1885 
" clip-path="url(#p5aa62ae6a5)" style="fill: none; stroke: #cccccc; stroke-width: 0.8; stroke-linecap: round"/>
     </g>
     <g id="line2d_6">
      <g>
       <use xlink:href="#ma9d7581968" x="196.622795" y="286.3005" style="fill: #262626; stroke: #262626"/>
      </g>
     </g>
     <g id="text_3">
      <!-- 20 -->
      <g style="fill: #262626" transform="translate(191.72917 300.899375) scale(0.088 -0.088)">
       <defs>
        <path id="ArialMT-32" d="M 3222 541 
L 3222 0 
L 194 0 
Q 188 203 259 391 
Q 375 700 629 1000 
Q 884 1300 1366 1694 
Q 2113 2306 2375 2664 
Q 2638 3022 2638 3341 
Q 2638 3675 2398 3904 
Q 2159 4134 1775 4134 
Q 1369 4134 1125 3890 
Q 881 3647 878 3216 
L 300 3275 
Q 359 3922 746 4261 
Q 1134 4600 1788 4600 
Q 2447 4600 2831 4234 
Q 3216 3869 3216 3328 
Q 3216 3053 3103 2787 
Q 2991 2522 2730 2228 
Q 2469 1934 1863 1422 
Q 1356 997 1212 845 
Q 1069 694 975 541 
L 3222 541 
z
" transform="scale(0.015625)"/>
       </defs>
       <use xlink:href="#ArialMT-32"/>
       <use xlink:href="#ArialMT-30" x="55.615234"/>
      </g>
     </g>
    </g>
    <g id="xtick_4">
     <g id="line2d_7">
      <path d="M 261.553705 286.3005 
L 261.553705 20.1885 
" clip-path="url(#p5aa62ae6a5)" style="fill: none; stroke: #cccccc; stroke-width: 0.8; stroke-linecap: round"/>
     </g>
     <g id="line2d_8">
      <g>
       <use xlink:href="#ma9d7581968" x="261.553705" y="286.3005" style="fill: #262626; stroke: #262626"/>
      </g>
     </g>
     <g id="text_4">
      <!-- 30 -->
      <g style="fill: #262626" transform="translate(256.66008 300.899375) scale(0.088 -0.088)">
       <defs>
        <path id="ArialMT-33" d="M 269 1209 
L 831 1284 
Q 928 806 1161 595 
Q 1394 384 1728 384 
Q 2125 384 2398 659 
Q 2672 934 2672 1341 
Q 2672 1728 2419 1979 
Q 2166 2231 1775 2231 
Q 1616 2231 1378 2169 
L 1441 2663 
Q 1497 2656 1531 2656 
Q 1891 2656 2178 2843 
Q 2466 3031 2466 3422 
Q 2466 3731 2256 3934 
Q 2047 4138 1716 4138 
Q 1388 4138 1169 3931 
Q 950 3725 888 3313 
L 325 3413 
Q 428 3978 793 4289 
Q 1159 4600 1703 4600 
Q 2078 4600 2393 4439 
Q 2709 4278 2876 4000 
Q 3044 3722 3044 3409 
Q 3044 3113 2884 2869 
Q 2725 2625 2413 2481 
Q 2819 2388 3044 2092 
Q 3269 1797 3269 1353 
Q 3269 753 2831 336 
Q 2394 -81 1725 -81 
Q 1122 -81 723 278 
Q 325 638 269 1209 
z
" transform="scale(0.015625)"/>
       </defs>
       <use xlink:href="#ArialMT-33"/>
       <use xlink:href="#ArialMT-30" x="55.615234"/>
      </g>
     </g>
    </g>
    <g id="xtick_5">
     <g id="line2d_9">
      <path d="M 326.484614 286.3005 
L 326.484614 20.1885 
" clip-path="url(#p5aa62ae6a5)" style="fill: none; stroke: #cccccc; stroke-width: 0.8; stroke-linecap: round"/>
     </g>
     <g id="line2d_10">
      <g>
       <use xlink:href="#ma9d7581968" x="326.484614" y="286.3005" style="fill: #262626; stroke: #262626"/>
      </g>
     </g>
     <g id="text_5">
      <!-- 40 -->
      <g style="fill: #262626" transform="translate(321.590989 300.899375) scale(0.088 -0.088)">
       <defs>
        <path id="ArialMT-34" d="M 2069 0 
L 2069 1097 
L 81 1097 
L 81 1613 
L 2172 4581 
L 2631 4581 
L 2631 1613 
L 3250 1613 
L 3250 1097 
L 2631 1097 
L 2631 0 
L 2069 0 
z
M 2069 1613 
L 2069 3678 
L 634 1613 
L 2069 1613 
z
" transform="scale(0.015625)"/>
       </defs>
       <use xlink:href="#ArialMT-34"/>
       <use xlink:href="#ArialMT-30" x="55.615234"/>
      </g>
     </g>
    </g>
    <g id="xtick_6">
     <g id="line2d_11">
      <path d="M 391.415523 286.3005 
L 391.415523 20.1885 
" clip-path="url(#p5aa62ae6a5)" style="fill: none; stroke: #cccccc; stroke-width: 0.8; stroke-linecap: round"/>
     </g>
     <g id="line2d_12">
      <g>
       <use xlink:href="#ma9d7581968" x="391.415523" y="286.3005" style="fill: #262626; stroke: #262626"/>
      </g>
     </g>
     <g id="text_6">
      <!-- 50 -->
      <g style="fill: #262626" transform="translate(386.521898 300.899375) scale(0.088 -0.088)">
       <defs>
        <path id="ArialMT-35" d="M 266 1200 
L 856 1250 
Q 922 819 1161 601 
Q 1400 384 1738 384 
Q 2144 384 2425 690 
Q 2706 997 2706 1503 
Q 2706 1984 2436 2262 
Q 2166 2541 1728 2541 
Q 1456 2541 1237 2417 
Q 1019 2294 894 2097 
L 366 2166 
L 809 4519 
L 3088 4519 
L 3088 3981 
L 1259 3981 
L 1013 2750 
Q 1425 3038 1878 3038 
Q 2478 3038 2890 2622 
Q 3303 2206 3303 1553 
Q 3303 931 2941 478 
Q 2500 -78 1738 -78 
Q 1113 -78 717 272 
Q 322 622 266 1200 
z
" transform="scale(0.015625)"/>
       </defs>
       <use xlink:href="#ArialMT-35"/>
       <use xlink:href="#ArialMT-30" x="55.615234"/>
      </g>
     </g>
    </g>
    <g id="text_7">
     <!-- Additional Samples -->
     <g style="fill: #262626" transform="translate(187.9995 313.636875) scale(0.096 -0.096)">
      <defs>
       <path id="ArialMT-41" d="M -9 0 
L 1750 4581 
L 2403 4581 
L 4278 0 
L 3588 0 
L 3053 1388 
L 1138 1388 
L 634 0 
L -9 0 
z
M 1313 1881 
L 2866 1881 
L 2388 3150 
Q 2169 3728 2063 4100 
Q 1975 3659 1816 3225 
L 1313 1881 
z
" transform="scale(0.015625)"/>
       <path id="ArialMT-64" d="M 2575 0 
L 2575 419 
Q 2259 -75 1647 -75 
Q 1250 -75 917 144 
Q 584 363 401 755 
Q 219 1147 219 1656 
Q 219 2153 384 2558 
Q 550 2963 881 3178 
Q 1213 3394 1622 3394 
Q 1922 3394 2156 3267 
Q 2391 3141 2538 2938 
L 2538 4581 
L 3097 4581 
L 3097 0 
L 2575 0 
z
M 797 1656 
Q 797 1019 1065 703 
Q 1334 388 1700 388 
Q 2069 388 2326 689 
Q 2584 991 2584 1609 
Q 2584 2291 2321 2609 
Q 2059 2928 1675 2928 
Q 1300 2928 1048 2622 
Q 797 2316 797 1656 
z
" transform="scale(0.015625)"/>
       <path id="ArialMT-69" d="M 425 3934 
L 425 4581 
L 988 4581 
L 988 3934 
L 425 3934 
z
M 425 0 
L 425 3319 
L 988 3319 
L 988 0 
L 425 0 
z
" transform="scale(0.015625)"/>
       <path id="ArialMT-74" d="M 1650 503 
L 1731 6 
Q 1494 -44 1306 -44 
Q 1000 -44 831 53 
Q 663 150 594 308 
Q 525 466 525 972 
L 525 2881 
L 113 2881 
L 113 3319 
L 525 3319 
L 525 4141 
L 1084 4478 
L 1084 3319 
L 1650 3319 
L 1650 2881 
L 1084 2881 
L 1084 941 
Q 1084 700 1114 631 
Q 1144 563 1211 522 
Q 1278 481 1403 481 
Q 1497 481 1650 503 
z
" transform="scale(0.015625)"/>
       <path id="ArialMT-6f" d="M 213 1659 
Q 213 2581 725 3025 
Q 1153 3394 1769 3394 
Q 2453 3394 2887 2945 
Q 3322 2497 3322 1706 
Q 3322 1066 3130 698 
Q 2938 331 2570 128 
Q 2203 -75 1769 -75 
Q 1072 -75 642 372 
Q 213 819 213 1659 
z
M 791 1659 
Q 791 1022 1069 705 
Q 1347 388 1769 388 
Q 2188 388 2466 706 
Q 2744 1025 2744 1678 
Q 2744 2294 2464 2611 
Q 2184 2928 1769 2928 
Q 1347 2928 1069 2612 
Q 791 2297 791 1659 
z
" transform="scale(0.015625)"/>
       <path id="ArialMT-6e" d="M 422 0 
L 422 3319 
L 928 3319 
L 928 2847 
Q 1294 3394 1984 3394 
Q 2284 3394 2536 3286 
Q 2788 3178 2913 3003 
Q 3038 2828 3088 2588 
Q 3119 2431 3119 2041 
L 3119 0 
L 2556 0 
L 2556 2019 
Q 2556 2363 2490 2533 
Q 2425 2703 2258 2804 
Q 2091 2906 1866 2906 
Q 1506 2906 1245 2678 
Q 984 2450 984 1813 
L 984 0 
L 422 0 
z
" transform="scale(0.015625)"/>
       <path id="ArialMT-61" d="M 2588 409 
Q 2275 144 1986 34 
Q 1697 -75 1366 -75 
Q 819 -75 525 192 
Q 231 459 231 875 
Q 231 1119 342 1320 
Q 453 1522 633 1644 
Q 813 1766 1038 1828 
Q 1203 1872 1538 1913 
Q 2219 1994 2541 2106 
Q 2544 2222 2544 2253 
Q 2544 2597 2384 2738 
Q 2169 2928 1744 2928 
Q 1347 2928 1158 2789 
Q 969 2650 878 2297 
L 328 2372 
Q 403 2725 575 2942 
Q 747 3159 1072 3276 
Q 1397 3394 1825 3394 
Q 2250 3394 2515 3294 
Q 2781 3194 2906 3042 
Q 3031 2891 3081 2659 
Q 3109 2516 3109 2141 
L 3109 1391 
Q 3109 606 3145 398 
Q 3181 191 3288 0 
L 2700 0 
Q 2613 175 2588 409 
z
M 2541 1666 
Q 2234 1541 1622 1453 
Q 1275 1403 1131 1340 
Q 988 1278 909 1158 
Q 831 1038 831 891 
Q 831 666 1001 516 
Q 1172 366 1500 366 
Q 1825 366 2078 508 
Q 2331 650 2450 897 
Q 2541 1088 2541 1459 
L 2541 1666 
z
" transform="scale(0.015625)"/>
       <path id="ArialMT-6c" d="M 409 0 
L 409 4581 
L 972 4581 
L 972 0 
L 409 0 
z
" transform="scale(0.015625)"/>
       <path id="ArialMT-20" transform="scale(0.015625)"/>
       <path id="ArialMT-53" d="M 288 1472 
L 859 1522 
Q 900 1178 1048 958 
Q 1197 738 1509 602 
Q 1822 466 2213 466 
Q 2559 466 2825 569 
Q 3091 672 3220 851 
Q 3350 1031 3350 1244 
Q 3350 1459 3225 1620 
Q 3100 1781 2813 1891 
Q 2628 1963 1997 2114 
Q 1366 2266 1113 2400 
Q 784 2572 623 2826 
Q 463 3081 463 3397 
Q 463 3744 659 4045 
Q 856 4347 1234 4503 
Q 1613 4659 2075 4659 
Q 2584 4659 2973 4495 
Q 3363 4331 3572 4012 
Q 3781 3694 3797 3291 
L 3216 3247 
Q 3169 3681 2898 3903 
Q 2628 4125 2100 4125 
Q 1550 4125 1298 3923 
Q 1047 3722 1047 3438 
Q 1047 3191 1225 3031 
Q 1400 2872 2139 2705 
Q 2878 2538 3153 2413 
Q 3553 2228 3743 1945 
Q 3934 1663 3934 1294 
Q 3934 928 3725 604 
Q 3516 281 3123 101 
Q 2731 -78 2241 -78 
Q 1619 -78 1198 103 
Q 778 284 539 648 
Q 300 1013 288 1472 
z
" transform="scale(0.015625)"/>
       <path id="ArialMT-6d" d="M 422 0 
L 422 3319 
L 925 3319 
L 925 2853 
Q 1081 3097 1340 3245 
Q 1600 3394 1931 3394 
Q 2300 3394 2536 3241 
Q 2772 3088 2869 2813 
Q 3263 3394 3894 3394 
Q 4388 3394 4653 3120 
Q 4919 2847 4919 2278 
L 4919 0 
L 4359 0 
L 4359 2091 
Q 4359 2428 4304 2576 
Q 4250 2725 4106 2815 
Q 3963 2906 3769 2906 
Q 3419 2906 3187 2673 
Q 2956 2441 2956 1928 
L 2956 0 
L 2394 0 
L 2394 2156 
Q 2394 2531 2256 2718 
Q 2119 2906 1806 2906 
Q 1569 2906 1367 2781 
Q 1166 2656 1075 2415 
Q 984 2175 984 1722 
L 984 0 
L 422 0 
z
" transform="scale(0.015625)"/>
       <path id="ArialMT-70" d="M 422 -1272 
L 422 3319 
L 934 3319 
L 934 2888 
Q 1116 3141 1344 3267 
Q 1572 3394 1897 3394 
Q 2322 3394 2647 3175 
Q 2972 2956 3137 2557 
Q 3303 2159 3303 1684 
Q 3303 1175 3120 767 
Q 2938 359 2589 142 
Q 2241 -75 1856 -75 
Q 1575 -75 1351 44 
Q 1128 163 984 344 
L 984 -1272 
L 422 -1272 
z
M 931 1641 
Q 931 1000 1190 694 
Q 1450 388 1819 388 
Q 2194 388 2461 705 
Q 2728 1022 2728 1688 
Q 2728 2322 2467 2637 
Q 2206 2953 1844 2953 
Q 1484 2953 1207 2617 
Q 931 2281 931 1641 
z
" transform="scale(0.015625)"/>
       <path id="ArialMT-65" d="M 2694 1069 
L 3275 997 
Q 3138 488 2766 206 
Q 2394 -75 1816 -75 
Q 1088 -75 661 373 
Q 234 822 234 1631 
Q 234 2469 665 2931 
Q 1097 3394 1784 3394 
Q 2450 3394 2872 2941 
Q 3294 2488 3294 1666 
Q 3294 1616 3291 1516 
L 816 1516 
Q 847 969 1125 678 
Q 1403 388 1819 388 
Q 2128 388 2347 550 
Q 2566 713 2694 1069 
z
M 847 1978 
L 2700 1978 
Q 2663 2397 2488 2606 
Q 2219 2931 1791 2931 
Q 1403 2931 1139 2672 
Q 875 2413 847 1978 
z
" transform="scale(0.015625)"/>
       <path id="ArialMT-73" d="M 197 991 
L 753 1078 
Q 800 744 1014 566 
Q 1228 388 1613 388 
Q 2000 388 2187 545 
Q 2375 703 2375 916 
Q 2375 1106 2209 1216 
Q 2094 1291 1634 1406 
Q 1016 1563 777 1677 
Q 538 1791 414 1992 
Q 291 2194 291 2438 
Q 291 2659 392 2848 
Q 494 3038 669 3163 
Q 800 3259 1026 3326 
Q 1253 3394 1513 3394 
Q 1903 3394 2198 3281 
Q 2494 3169 2634 2976 
Q 2775 2784 2828 2463 
L 2278 2388 
Q 2241 2644 2061 2787 
Q 1881 2931 1553 2931 
Q 1166 2931 1000 2803 
Q 834 2675 834 2503 
Q 834 2394 903 2306 
Q 972 2216 1119 2156 
Q 1203 2125 1616 2013 
Q 2213 1853 2448 1751 
Q 2684 1650 2818 1456 
Q 2953 1263 2953 975 
Q 2953 694 2789 445 
Q 2625 197 2315 61 
Q 2006 -75 1616 -75 
Q 969 -75 630 194 
Q 291 463 197 991 
z
" transform="scale(0.015625)"/>
      </defs>
      <use xlink:href="#ArialMT-41"/>
      <use xlink:href="#ArialMT-64" x="66.699219"/>
      <use xlink:href="#ArialMT-64" x="122.314453"/>
      <use xlink:href="#ArialMT-69" x="177.929688"/>
      <use xlink:href="#ArialMT-74" x="200.146484"/>
      <use xlink:href="#ArialMT-69" x="227.929688"/>
      <use xlink:href="#ArialMT-6f" x="250.146484"/>
      <use xlink:href="#ArialMT-6e" x="305.761719"/>
      <use xlink:href="#ArialMT-61" x="361.376953"/>
      <use xlink:href="#ArialMT-6c" x="416.992188"/>
      <use xlink:href="#ArialMT-20" x="439.208984"/>
      <use xlink:href="#ArialMT-53" x="466.992188"/>
      <use xlink:href="#ArialMT-61" x="533.691406"/>
      <use xlink:href="#ArialMT-6d" x="589.306641"/>
      <use xlink:href="#ArialMT-70" x="672.607422"/>
      <use xlink:href="#ArialMT-6c" x="728.222656"/>
      <use xlink:href="#ArialMT-65" x="750.439453"/>
      <use xlink:href="#ArialMT-73" x="806.054688"/>
     </g>
    </g>
   </g>
   <g id="matplotlib.axis_2">
    <g id="ytick_1">
     <g id="line2d_13">
      <path d="M 50.52825 256.53571 
L 407.64825 256.53571 
" clip-path="url(#p5aa62ae6a5)" style="fill: none; stroke: #cccccc; stroke-width: 0.8; stroke-linecap: round"/>
     </g>
     <g id="line2d_14">
      <defs>
       <path id="mbd7359bdbd" d="M 0 0 
L -4.8 0 
" style="stroke: #262626"/>
      </defs>
      <g>
       <use xlink:href="#mbd7359bdbd" x="50.52825" y="256.53571" style="fill: #262626; stroke: #262626"/>
      </g>
     </g>
     <g id="text_8">
      <!-- 0.001 -->
      <g style="fill: #262626" transform="translate(20.209 259.685148) scale(0.088 -0.088)">
       <defs>
        <path id="ArialMT-2e" d="M 581 0 
L 581 641 
L 1222 641 
L 1222 0 
L 581 0 
z
" transform="scale(0.015625)"/>
       </defs>
       <use xlink:href="#ArialMT-30"/>
       <use xlink:href="#ArialMT-2e" x="55.615234"/>
       <use xlink:href="#ArialMT-30" x="83.398438"/>
       <use xlink:href="#ArialMT-30" x="139.013672"/>
       <use xlink:href="#ArialMT-31" x="194.628906"/>
      </g>
     </g>
    </g>
    <g id="ytick_2">
     <g id="line2d_15">
      <path d="M 50.52825 208.929915 
L 407.64825 208.929915 
" clip-path="url(#p5aa62ae6a5)" style="fill: none; stroke: #cccccc; stroke-width: 0.8; stroke-linecap: round"/>
     </g>
     <g id="line2d_16">
      <g>
       <use xlink:href="#mbd7359bdbd" x="50.52825" y="208.929915" style="fill: #262626; stroke: #262626"/>
      </g>
     </g>
     <g id="text_9">
      <!-- 0.002 -->
      <g style="fill: #262626" transform="translate(20.209 212.079352) scale(0.088 -0.088)">
       <use xlink:href="#ArialMT-30"/>
       <use xlink:href="#ArialMT-2e" x="55.615234"/>
       <use xlink:href="#ArialMT-30" x="83.398438"/>
       <use xlink:href="#ArialMT-30" x="139.013672"/>
       <use xlink:href="#ArialMT-32" x="194.628906"/>
      </g>
     </g>
    </g>
    <g id="ytick_3">
     <g id="line2d_17">
      <path d="M 50.52825 161.32412 
L 407.64825 161.32412 
" clip-path="url(#p5aa62ae6a5)" style="fill: none; stroke: #cccccc; stroke-width: 0.8; stroke-linecap: round"/>
     </g>
     <g id="line2d_18">
      <g>
       <use xlink:href="#mbd7359bdbd" x="50.52825" y="161.32412" style="fill: #262626; stroke: #262626"/>
      </g>
     </g>
     <g id="text_10">
      <!-- 0.003 -->
      <g style="fill: #262626" transform="translate(20.209 164.473557) scale(0.088 -0.088)">
       <use xlink:href="#ArialMT-30"/>
       <use xlink:href="#ArialMT-2e" x="55.615234"/>
       <use xlink:href="#ArialMT-30" x="83.398438"/>
       <use xlink:href="#ArialMT-30" x="139.013672"/>
       <use xlink:href="#ArialMT-33" x="194.628906"/>
      </g>
     </g>
    </g>
    <g id="ytick_4">
     <g id="line2d_19">
      <path d="M 50.52825 113.718324 
L 407.64825 113.718324 
" clip-path="url(#p5aa62ae6a5)" style="fill: none; stroke: #cccccc; stroke-width: 0.8; stroke-linecap: round"/>
     </g>
     <g id="line2d_20">
      <g>
       <use xlink:href="#mbd7359bdbd" x="50.52825" y="113.718324" style="fill: #262626; stroke: #262626"/>
      </g>
     </g>
     <g id="text_11">
      <!-- 0.004 -->
      <g style="fill: #262626" transform="translate(20.209 116.867762) scale(0.088 -0.088)">
       <use xlink:href="#ArialMT-30"/>
       <use xlink:href="#ArialMT-2e" x="55.615234"/>
       <use xlink:href="#ArialMT-30" x="83.398438"/>
       <use xlink:href="#ArialMT-30" x="139.013672"/>
       <use xlink:href="#ArialMT-34" x="194.628906"/>
      </g>
     </g>
    </g>
    <g id="ytick_5">
     <g id="line2d_21">
      <path d="M 50.52825 66.112529 
L 407.64825 66.112529 
" clip-path="url(#p5aa62ae6a5)" style="fill: none; stroke: #cccccc; stroke-width: 0.8; stroke-linecap: round"/>
     </g>
     <g id="line2d_22">
      <g>
       <use xlink:href="#mbd7359bdbd" x="50.52825" y="66.112529" style="fill: #262626; stroke: #262626"/>
      </g>
     </g>
     <g id="text_12">
      <!-- 0.005 -->
      <g style="fill: #262626" transform="translate(20.209 69.261966) scale(0.088 -0.088)">
       <use xlink:href="#ArialMT-30"/>
       <use xlink:href="#ArialMT-2e" x="55.615234"/>
       <use xlink:href="#ArialMT-30" x="83.398438"/>
       <use xlink:href="#ArialMT-30" x="139.013672"/>
       <use xlink:href="#ArialMT-35" x="194.628906"/>
      </g>
     </g>
    </g>
    <g id="text_13">
     <!-- L2-Star Discrepancy -->
     <g style="fill: #262626" transform="translate(14.1885 196.72575) rotate(-90) scale(0.096 -0.096)">
      <defs>
       <path id="ArialMT-4c" d="M 469 0 
L 469 4581 
L 1075 4581 
L 1075 541 
L 3331 541 
L 3331 0 
L 469 0 
z
" transform="scale(0.015625)"/>
       <path id="ArialMT-2d" d="M 203 1375 
L 203 1941 
L 1931 1941 
L 1931 1375 
L 203 1375 
z
" transform="scale(0.015625)"/>
       <path id="ArialMT-72" d="M 416 0 
L 416 3319 
L 922 3319 
L 922 2816 
Q 1116 3169 1280 3281 
Q 1444 3394 1641 3394 
Q 1925 3394 2219 3213 
L 2025 2691 
Q 1819 2813 1613 2813 
Q 1428 2813 1281 2702 
Q 1134 2591 1072 2394 
Q 978 2094 978 1738 
L 978 0 
L 416 0 
z
" transform="scale(0.015625)"/>
       <path id="ArialMT-44" d="M 494 0 
L 494 4581 
L 2072 4581 
Q 2606 4581 2888 4516 
Q 3281 4425 3559 4188 
Q 3922 3881 4101 3404 
Q 4281 2928 4281 2316 
Q 4281 1794 4159 1391 
Q 4038 988 3847 723 
Q 3656 459 3429 307 
Q 3203 156 2883 78 
Q 2563 0 2147 0 
L 494 0 
z
M 1100 541 
L 2078 541 
Q 2531 541 2789 625 
Q 3047 709 3200 863 
Q 3416 1078 3536 1442 
Q 3656 1806 3656 2325 
Q 3656 3044 3420 3430 
Q 3184 3816 2847 3947 
Q 2603 4041 2063 4041 
L 1100 4041 
L 1100 541 
z
" transform="scale(0.015625)"/>
       <path id="ArialMT-63" d="M 2588 1216 
L 3141 1144 
Q 3050 572 2676 248 
Q 2303 -75 1759 -75 
Q 1078 -75 664 370 
Q 250 816 250 1647 
Q 250 2184 428 2587 
Q 606 2991 970 3192 
Q 1334 3394 1763 3394 
Q 2303 3394 2647 3120 
Q 2991 2847 3088 2344 
L 2541 2259 
Q 2463 2594 2264 2762 
Q 2066 2931 1784 2931 
Q 1359 2931 1093 2626 
Q 828 2322 828 1663 
Q 828 994 1084 691 
Q 1341 388 1753 388 
Q 2084 388 2306 591 
Q 2528 794 2588 1216 
z
" transform="scale(0.015625)"/>
       <path id="ArialMT-79" d="M 397 -1278 
L 334 -750 
Q 519 -800 656 -800 
Q 844 -800 956 -737 
Q 1069 -675 1141 -563 
Q 1194 -478 1313 -144 
Q 1328 -97 1363 -6 
L 103 3319 
L 709 3319 
L 1400 1397 
Q 1534 1031 1641 628 
Q 1738 1016 1872 1384 
L 2581 3319 
L 3144 3319 
L 1881 -56 
Q 1678 -603 1566 -809 
Q 1416 -1088 1222 -1217 
Q 1028 -1347 759 -1347 
Q 597 -1347 397 -1278 
z
" transform="scale(0.015625)"/>
      </defs>
      <use xlink:href="#ArialMT-4c"/>
      <use xlink:href="#ArialMT-32" x="55.615234"/>
      <use xlink:href="#ArialMT-2d" x="111.230469"/>
      <use xlink:href="#ArialMT-53" x="144.53125"/>
      <use xlink:href="#ArialMT-74" x="211.230469"/>
      <use xlink:href="#ArialMT-61" x="239.013672"/>
      <use xlink:href="#ArialMT-72" x="294.628906"/>
      <use xlink:href="#ArialMT-20" x="327.929688"/>
      <use xlink:href="#ArialMT-44" x="355.712891"/>
      <use xlink:href="#ArialMT-69" x="427.929688"/>
      <use xlink:href="#ArialMT-73" x="450.146484"/>
      <use xlink:href="#ArialMT-63" x="500.146484"/>
      <use xlink:href="#ArialMT-72" x="550.146484"/>
      <use xlink:href="#ArialMT-65" x="583.447266"/>
      <use xlink:href="#ArialMT-70" x="639.0625"/>
      <use xlink:href="#ArialMT-61" x="694.677734"/>
      <use xlink:href="#ArialMT-6e" x="750.292969"/>
      <use xlink:href="#ArialMT-63" x="805.908203"/>
      <use xlink:href="#ArialMT-79" x="855.908203"/>
     </g>
    </g>
   </g>
   <g id="line2d_23">
    <path d="M 66.760977 131.628914 
L 73.254068 130.087692 
L 79.747159 80.648559 
L 86.24025 97.339967 
L 92.733341 160.352428 
L 99.226432 148.1978 
L 105.719523 32.2845 
L 112.212614 174.645429 
L 118.705705 151.65569 
L 125.198795 173.580479 
L 131.691886 170.130367 
L 138.184977 145.076081 
L 144.678068 153.345128 
L 151.171159 151.346971 
L 157.66425 200.324953 
L 164.157341 189.062369 
L 170.650432 135.434637 
L 177.143523 198.77694 
L 183.636614 212.977202 
L 190.129705 203.897972 
L 196.622795 182.27462 
L 203.115886 203.82124 
L 209.608977 206.74869 
L 216.102068 192.851987 
L 229.08825 218.349132 
L 235.581341 180.015876 
L 242.074432 187.473479 
L 248.567523 164.490769 
L 255.060614 163.32449 
L 261.553705 242.607806 
L 268.046795 231.224605 
L 274.539886 231.802477 
L 281.032977 190.909698 
L 287.526068 210.738129 
L 294.019159 249.02215 
L 300.51225 249.953988 
L 307.005341 221.038932 
L 313.498432 236.13863 
L 319.991523 245.558344 
L 326.484614 238.194399 
L 332.977705 248.139832 
L 339.470795 239.319604 
L 345.963886 239.884515 
L 352.456977 256.069597 
L 358.950068 239.60363 
L 365.443159 191.252072 
L 371.93625 221.099797 
L 378.429341 259.675698 
L 391.415523 245.210884 
" clip-path="url(#p5aa62ae6a5)" style="fill: none; stroke: #0000ff; stroke-width: 1.2; stroke-linecap: round"/>
   </g>
   <g id="line2d_24">
    <path d="M 66.760977 177.98887 
L 73.254068 112.019352 
L 79.747159 86.036356 
L 86.24025 133.018877 
L 92.733341 186.926754 
L 99.226432 186.261723 
L 105.719523 182.241648 
L 112.212614 180.493089 
L 118.705705 187.05951 
L 125.198795 208.74547 
L 131.691886 204.26684 
L 138.184977 217.583842 
L 144.678068 212.178069 
L 151.171159 190.899715 
L 157.66425 212.730916 
L 164.157341 198.579897 
L 170.650432 198.749139 
L 177.143523 226.838963 
L 183.636614 226.777006 
L 190.129705 232.873604 
L 196.622795 215.526319 
L 203.115886 194.678416 
L 209.608977 232.121145 
L 216.102068 240.613112 
L 229.08825 245.562202 
L 235.581341 247.471815 
L 242.074432 249.067437 
L 248.567523 235.307553 
L 255.060614 236.489834 
L 261.553705 258.435909 
L 268.046795 251.011649 
L 274.539886 248.289814 
L 281.032977 249.639207 
L 287.526068 255.128405 
L 294.019159 245.434528 
L 300.51225 257.284518 
L 307.005341 249.686596 
L 313.498432 264.089089 
L 319.991523 250.703318 
L 326.484614 259.433082 
L 332.977705 258.977561 
L 339.470795 271.385838 
L 345.963886 267.40334 
L 352.456977 265.897062 
L 358.950068 263.092777 
L 365.443159 259.800262 
L 371.93625 269.536216 
L 378.429341 274.2045 
L 391.415523 270.440968 
" clip-path="url(#p5aa62ae6a5)" style="fill: none; stroke: #008000; stroke-width: 1.2; stroke-linecap: round"/>
   </g>
   <g id="patch_3">
    <path d="M 50.52825 256.53571 
L 50.52825 66.112529 
" style="fill: none; stroke: #262626; stroke-linejoin: miter; stroke-linecap: square"/>
   </g>
   <g id="patch_4">
    <path d="M 66.760977 286.3005 
L 391.415523 286.3005 
" style="fill: none; stroke: #262626; stroke-linejoin: miter; stroke-linecap: square"/>
   </g>
   <g id="text_14">
    <!-- Discrepancy Measures with Additional Samples -->
    <g style="fill: #262626" transform="translate(128.2455 14.1885) scale(0.096 -0.096)">
     <defs>
      <path id="ArialMT-4d" d="M 475 0 
L 475 4581 
L 1388 4581 
L 2472 1338 
Q 2622 884 2691 659 
Q 2769 909 2934 1394 
L 4031 4581 
L 4847 4581 
L 4847 0 
L 4263 0 
L 4263 3834 
L 2931 0 
L 2384 0 
L 1059 3900 
L 1059 0 
L 475 0 
z
" transform="scale(0.015625)"/>
      <path id="ArialMT-75" d="M 2597 0 
L 2597 488 
Q 2209 -75 1544 -75 
Q 1250 -75 995 37 
Q 741 150 617 320 
Q 494 491 444 738 
Q 409 903 409 1263 
L 409 3319 
L 972 3319 
L 972 1478 
Q 972 1038 1006 884 
Q 1059 663 1231 536 
Q 1403 409 1656 409 
Q 1909 409 2131 539 
Q 2353 669 2445 892 
Q 2538 1116 2538 1541 
L 2538 3319 
L 3100 3319 
L 3100 0 
L 2597 0 
z
" transform="scale(0.015625)"/>
      <path id="ArialMT-77" d="M 1034 0 
L 19 3319 
L 600 3319 
L 1128 1403 
L 1325 691 
Q 1338 744 1497 1375 
L 2025 3319 
L 2603 3319 
L 3100 1394 
L 3266 759 
L 3456 1400 
L 4025 3319 
L 4572 3319 
L 3534 0 
L 2950 0 
L 2422 1988 
L 2294 2553 
L 1622 0 
L 1034 0 
z
" transform="scale(0.015625)"/>
      <path id="ArialMT-68" d="M 422 0 
L 422 4581 
L 984 4581 
L 984 2938 
Q 1378 3394 1978 3394 
Q 2347 3394 2619 3248 
Q 2891 3103 3008 2847 
Q 3125 2591 3125 2103 
L 3125 0 
L 2563 0 
L 2563 2103 
Q 2563 2525 2380 2717 
Q 2197 2909 1863 2909 
Q 1613 2909 1392 2779 
Q 1172 2650 1078 2428 
Q 984 2206 984 1816 
L 984 0 
L 422 0 
z
" transform="scale(0.015625)"/>
     </defs>
     <use xlink:href="#ArialMT-44"/>
     <use xlink:href="#ArialMT-69" x="72.216797"/>
     <use xlink:href="#ArialMT-73" x="94.433594"/>
     <use xlink:href="#ArialMT-63" x="144.433594"/>
     <use xlink:href="#ArialMT-72" x="194.433594"/>
     <use xlink:href="#ArialMT-65" x="227.734375"/>
     <use xlink:href="#ArialMT-70" x="283.349609"/>
     <use xlink:href="#ArialMT-61" x="338.964844"/>
     <use xlink:href="#ArialMT-6e" x="394.580078"/>
     <use xlink:href="#ArialMT-63" x="450.195312"/>
     <use xlink:href="#ArialMT-79" x="500.195312"/>
     <use xlink:href="#ArialMT-20" x="550.195312"/>
     <use xlink:href="#ArialMT-4d" x="577.978516"/>
     <use xlink:href="#ArialMT-65" x="661.279297"/>
     <use xlink:href="#ArialMT-61" x="716.894531"/>
     <use xlink:href="#ArialMT-73" x="772.509766"/>
     <use xlink:href="#ArialMT-75" x="822.509766"/>
     <use xlink:href="#ArialMT-72" x="878.125"/>
     <use xlink:href="#ArialMT-65" x="911.425781"/>
     <use xlink:href="#ArialMT-73" x="967.041016"/>
     <use xlink:href="#ArialMT-20" x="1017.041016"/>
     <use xlink:href="#ArialMT-77" x="1044.824219"/>
     <use xlink:href="#ArialMT-69" x="1117.041016"/>
     <use xlink:href="#ArialMT-74" x="1139.257812"/>
     <use xlink:href="#ArialMT-68" x="1167.041016"/>
     <use xlink:href="#ArialMT-20" x="1222.65625"/>
     <use xlink:href="#ArialMT-41" x="1244.939453"/>
     <use xlink:href="#ArialMT-64" x="1311.638672"/>
     <use xlink:href="#ArialMT-64" x="1367.253906"/>
     <use xlink:href="#ArialMT-69" x="1422.869141"/>
     <use xlink:href="#ArialMT-74" x="1445.085938"/>
     <use xlink:href="#ArialMT-69" x="1472.869141"/>
     <use xlink:href="#ArialMT-6f" x="1495.085938"/>
     <use xlink:href="#ArialMT-6e" x="1550.701172"/>
     <use xlink:href="#ArialMT-61" x="1606.316406"/>
     <use xlink:href="#ArialMT-6c" x="1661.931641"/>
     <use xlink:href="#ArialMT-20" x="1684.148438"/>
     <use xlink:href="#ArialMT-53" x="1711.931641"/>
     <use xlink:href="#ArialMT-61" x="1778.630859"/>
     <use xlink:href="#ArialMT-6d" x="1834.246094"/>
     <use xlink:href="#ArialMT-70" x="1917.546875"/>
     <use xlink:href="#ArialMT-6c" x="1973.162109"/>
     <use xlink:href="#ArialMT-65" x="1995.378906"/>
     <use xlink:href="#ArialMT-73" x="2050.994141"/>
    </g>
   </g>
   <g id="legend_1">
    <g id="patch_5">
     <path d="M 269.616125 52.545 
L 401.48825 52.545 
Q 403.24825 52.545 403.24825 50.785 
L 403.24825 26.3485 
Q 403.24825 24.5885 401.48825 24.5885 
L 269.616125 24.5885 
Q 267.856125 24.5885 267.856125 26.3485 
L 267.856125 50.785 
Q 267.856125 52.545 269.616125 52.545 
z
" style="fill: #ffffff; opacity: 0.8; stroke: #cccccc; stroke-width: 0.8; stroke-linejoin: miter"/>
    </g>
    <g id="line2d_25">
     <path d="M 271.376125 31.434625 
L 280.176125 31.434625 
L 288.976125 31.434625 
" style="fill: none; stroke: #0000ff; stroke-width: 1.2; stroke-linecap: round"/>
    </g>
    <g id="text_15">
     <!-- Latin Hypercube Sampling -->
     <g style="fill: #262626" transform="translate(296.016125 34.514625) scale(0.088 -0.088)">
      <defs>
       <path id="ArialMT-48" d="M 513 0 
L 513 4581 
L 1119 4581 
L 1119 2700 
L 3500 2700 
L 3500 4581 
L 4106 4581 
L 4106 0 
L 3500 0 
L 3500 2159 
L 1119 2159 
L 1119 0 
L 513 0 
z
" transform="scale(0.015625)"/>
       <path id="ArialMT-62" d="M 941 0 
L 419 0 
L 419 4581 
L 981 4581 
L 981 2947 
Q 1338 3394 1891 3394 
Q 2197 3394 2470 3270 
Q 2744 3147 2920 2923 
Q 3097 2700 3197 2384 
Q 3297 2069 3297 1709 
Q 3297 856 2875 390 
Q 2453 -75 1863 -75 
Q 1275 -75 941 416 
L 941 0 
z
M 934 1684 
Q 934 1088 1097 822 
Q 1363 388 1816 388 
Q 2184 388 2453 708 
Q 2722 1028 2722 1663 
Q 2722 2313 2464 2622 
Q 2206 2931 1841 2931 
Q 1472 2931 1203 2611 
Q 934 2291 934 1684 
z
" transform="scale(0.015625)"/>
       <path id="ArialMT-67" d="M 319 -275 
L 866 -356 
Q 900 -609 1056 -725 
Q 1266 -881 1628 -881 
Q 2019 -881 2231 -725 
Q 2444 -569 2519 -288 
Q 2563 -116 2559 434 
Q 2191 0 1641 0 
Q 956 0 581 494 
Q 206 988 206 1678 
Q 206 2153 378 2554 
Q 550 2956 876 3175 
Q 1203 3394 1644 3394 
Q 2231 3394 2613 2919 
L 2613 3319 
L 3131 3319 
L 3131 450 
Q 3131 -325 2973 -648 
Q 2816 -972 2473 -1159 
Q 2131 -1347 1631 -1347 
Q 1038 -1347 672 -1080 
Q 306 -813 319 -275 
z
M 784 1719 
Q 784 1066 1043 766 
Q 1303 466 1694 466 
Q 2081 466 2343 764 
Q 2606 1063 2606 1700 
Q 2606 2309 2336 2618 
Q 2066 2928 1684 2928 
Q 1309 2928 1046 2623 
Q 784 2319 784 1719 
z
" transform="scale(0.015625)"/>
      </defs>
      <use xlink:href="#ArialMT-4c"/>
      <use xlink:href="#ArialMT-61" x="55.615234"/>
      <use xlink:href="#ArialMT-74" x="111.230469"/>
      <use xlink:href="#ArialMT-69" x="139.013672"/>
      <use xlink:href="#ArialMT-6e" x="161.230469"/>
      <use xlink:href="#ArialMT-20" x="216.845703"/>
      <use xlink:href="#ArialMT-48" x="244.628906"/>
      <use xlink:href="#ArialMT-79" x="316.845703"/>
      <use xlink:href="#ArialMT-70" x="366.845703"/>
      <use xlink:href="#ArialMT-65" x="422.460938"/>
      <use xlink:href="#ArialMT-72" x="478.076172"/>
      <use xlink:href="#ArialMT-63" x="511.376953"/>
      <use xlink:href="#ArialMT-75" x="561.376953"/>
      <use xlink:href="#ArialMT-62" x="616.992188"/>
      <use xlink:href="#ArialMT-65" x="672.607422"/>
      <use xlink:href="#ArialMT-20" x="728.222656"/>
      <use xlink:href="#ArialMT-53" x="756.005859"/>
      <use xlink:href="#ArialMT-61" x="822.705078"/>
      <use xlink:href="#ArialMT-6d" x="878.320312"/>
      <use xlink:href="#ArialMT-70" x="961.621094"/>
      <use xlink:href="#ArialMT-6c" x="1017.236328"/>
      <use xlink:href="#ArialMT-69" x="1039.453125"/>
      <use xlink:href="#ArialMT-6e" x="1061.669922"/>
      <use xlink:href="#ArialMT-67" x="1117.285156"/>
     </g>
    </g>
    <g id="line2d_26">
     <path d="M 271.376125 44.092875 
L 280.176125 44.092875 
L 288.976125 44.092875 
" style="fill: none; stroke: #008000; stroke-width: 1.2; stroke-linecap: round"/>
    </g>
    <g id="text_16">
     <!-- Sobol Sequence Sampling -->
     <g style="fill: #262626" transform="translate(296.016125 47.172875) scale(0.088 -0.088)">
      <defs>
       <path id="ArialMT-71" d="M 2538 -1272 
L 2538 353 
Q 2406 169 2170 47 
Q 1934 -75 1669 -75 
Q 1078 -75 651 397 
Q 225 869 225 1691 
Q 225 2191 398 2587 
Q 572 2984 901 3189 
Q 1231 3394 1625 3394 
Q 2241 3394 2594 2875 
L 2594 3319 
L 3100 3319 
L 3100 -1272 
L 2538 -1272 
z
M 803 1669 
Q 803 1028 1072 708 
Q 1341 388 1716 388 
Q 2075 388 2334 692 
Q 2594 997 2594 1619 
Q 2594 2281 2320 2615 
Q 2047 2950 1678 2950 
Q 1313 2950 1058 2639 
Q 803 2328 803 1669 
z
" transform="scale(0.015625)"/>
      </defs>
      <use xlink:href="#ArialMT-53"/>
      <use xlink:href="#ArialMT-6f" x="66.699219"/>
      <use xlink:href="#ArialMT-62" x="122.314453"/>
      <use xlink:href="#ArialMT-6f" x="177.929688"/>
      <use xlink:href="#ArialMT-6c" x="233.544922"/>
      <use xlink:href="#ArialMT-20" x="255.761719"/>
      <use xlink:href="#ArialMT-53" x="283.544922"/>
      <use xlink:href="#ArialMT-65" x="350.244141"/>
      <use xlink:href="#ArialMT-71" x="405.859375"/>
      <use xlink:href="#ArialMT-75" x="461.474609"/>
      <use xlink:href="#ArialMT-65" x="517.089844"/>
      <use xlink:href="#ArialMT-6e" x="572.705078"/>
      <use xlink:href="#ArialMT-63" x="628.320312"/>
      <use xlink:href="#ArialMT-65" x="678.320312"/>
      <use xlink:href="#ArialMT-20" x="733.935547"/>
      <use xlink:href="#ArialMT-53" x="761.71875"/>
      <use xlink:href="#ArialMT-61" x="828.417969"/>
      <use xlink:href="#ArialMT-6d" x="884.033203"/>
      <use xlink:href="#ArialMT-70" x="967.333984"/>
      <use xlink:href="#ArialMT-6c" x="1022.949219"/>
      <use xlink:href="#ArialMT-69" x="1045.166016"/>
      <use xlink:href="#ArialMT-6e" x="1067.382812"/>
      <use xlink:href="#ArialMT-67" x="1122.998047"/>
     </g>
    </g>
   </g>
  </g>
 </g>
 <defs>
  <clipPath id="p5aa62ae6a5">
   <rect x="50.52825" y="20.1885" width="357.12" height="266.112"/>
  </clipPath>
 </defs>
</svg>