<?xml version="1.0" encoding="utf-8" standalone="no"?>
<!DOCTYPE svg PUBLIC "-//W3C//DTD SVG 1.1//EN"
  "http://www.w3.org/Graphics/SVG/1.1/DTD/svg11.dtd">
<svg xmlns:xlink="http://www.w3.org/1999/xlink" width="409.97125pt" height="309.639375pt" viewBox="0 0 409.97125 309.639375" xmlns="http://www.w3.org/2000/svg" version="1.1">
 <metadata>
  <rdf:RDF xmlns:dc="http://purl.org/dc/elements/1.1/" xmlns:cc="http://creativecommons.org/ns#" xmlns:rdf="http://www.w3.org/1999/02/22-rdf-syntax-ns#">
   <cc:Work>
    <dc:type rdf:resource="http://purl.org/dc/dcmitype/StillImage"/>
    <dc:date>2023-12-08T17:33:44.473925</dc:date>
    <dc:format>image/svg+xml</dc:format>
    <dc:creator>
     <cc:Agent>
      <dc:title>Matplotlib v3.8.0, https://matplotlib.org/</dc:title>
     </cc:Agent>
    </dc:creator>
   </cc:Work>
  </rdf:RDF>
 </metadata>
 <defs>
  <style type="text/css">*{stroke-linejoin: round; stroke-linecap: butt}</style>
 </defs>
 <g id="figure_1">
  <g id="patch_1">
   <path d="M 0 309.639375 
L 409.97125 309.639375 
L 409.97125 0 
L 0 0 
z
" style="fill: #ffffff"/>
  </g>
  <g id="axes_1">
   <g id="patch_2">
    <path d="M 45.65125 273.312 
L 402.77125 273.312 
L 402.77125 7.2 
L 45.65125 7.2 
z
" style="fill: #ffffff"/>
   </g>
   <g id="matplotlib.axis_1">
    <g id="xtick_1">
     <g id="line2d_1">
      <defs>
       <path id="mec3b8a4d58" d="M 0 0 
L 0 4.8 
" style="stroke: #262626"/>
      </defs>
      <g>
       <use xlink:href="#mec3b8a4d58" x="52.739465" y="273.312" style="fill: #262626; stroke: #262626"/>
      </g>
     </g>
     <g id="text_1">
      <!-- −0.6 -->
      <g style="fill: #262626" transform="translate(44.05359 287.910875) scale(0.088 -0.088)">
       <defs>
        <path id="ArialMT-2212" d="M 3381 1997 
L 356 1997 
L 356 2522 
L 3381 2522 
L 3381 1997 
z
" transform="scale(0.015625)"/>
        <path id="ArialMT-30" d="M 266 2259 
Q 266 3072 433 3567 
Q 600 4063 929 4331 
Q 1259 4600 1759 4600 
Q 2128 4600 2406 4451 
Q 2684 4303 2865 4023 
Q 3047 3744 3150 3342 
Q 3253 2941 3253 2259 
Q 3253 1453 3087 958 
Q 2922 463 2592 192 
Q 2263 -78 1759 -78 
Q 1097 -78 719 397 
Q 266 969 266 2259 
z
M 844 2259 
Q 844 1131 1108 757 
Q 1372 384 1759 384 
Q 2147 384 2411 759 
Q 2675 1134 2675 2259 
Q 2675 3391 2411 3762 
Q 2147 4134 1753 4134 
Q 1366 4134 1134 3806 
Q 844 3388 844 2259 
z
" transform="scale(0.015625)"/>
        <path id="ArialMT-2e" d="M 581 0 
L 581 641 
L 1222 641 
L 1222 0 
L 581 0 
z
" transform="scale(0.015625)"/>
        <path id="ArialMT-36" d="M 3184 3459 
L 2625 3416 
Q 2550 3747 2413 3897 
Q 2184 4138 1850 4138 
Q 1581 4138 1378 3988 
Q 1113 3794 959 3422 
Q 806 3050 800 2363 
Q 1003 2672 1297 2822 
Q 1591 2972 1913 2972 
Q 2475 2972 2870 2558 
Q 3266 2144 3266 1488 
Q 3266 1056 3080 686 
Q 2894 316 2569 119 
Q 2244 -78 1831 -78 
Q 1128 -78 684 439 
Q 241 956 241 2144 
Q 241 3472 731 4075 
Q 1159 4600 1884 4600 
Q 2425 4600 2770 4297 
Q 3116 3994 3184 3459 
z
M 888 1484 
Q 888 1194 1011 928 
Q 1134 663 1356 523 
Q 1578 384 1822 384 
Q 2178 384 2434 671 
Q 2691 959 2691 1453 
Q 2691 1928 2437 2201 
Q 2184 2475 1800 2475 
Q 1419 2475 1153 2201 
Q 888 1928 888 1484 
z
" transform="scale(0.015625)"/>
       </defs>
       <use xlink:href="#ArialMT-2212"/>
       <use xlink:href="#ArialMT-30" x="58.398438"/>
       <use xlink:href="#ArialMT-2e" x="114.013672"/>
       <use xlink:href="#ArialMT-36" x="141.796875"/>
      </g>
     </g>
    </g>
    <g id="xtick_2">
     <g id="line2d_2">
      <g>
       <use xlink:href="#mec3b8a4d58" x="105.903359" y="273.312" style="fill: #262626; stroke: #262626"/>
      </g>
     </g>
     <g id="text_2">
      <!-- −0.4 -->
      <g style="fill: #262626" transform="translate(97.217484 287.910875) scale(0.088 -0.088)">
       <defs>
        <path id="ArialMT-34" d="M 2069 0 
L 2069 1097 
L 81 1097 
L 81 1613 
L 2172 4581 
L 2631 4581 
L 2631 1613 
L 3250 1613 
L 3250 1097 
L 2631 1097 
L 2631 0 
L 2069 0 
z
M 2069 1613 
L 2069 3678 
L 634 1613 
L 2069 1613 
z
" transform="scale(0.015625)"/>
       </defs>
       <use xlink:href="#ArialMT-2212"/>
       <use xlink:href="#ArialMT-30" x="58.398438"/>
       <use xlink:href="#ArialMT-2e" x="114.013672"/>
       <use xlink:href="#ArialMT-34" x="141.796875"/>
      </g>
     </g>
    </g>
    <g id="xtick_3">
     <g id="line2d_3">
      <g>
       <use xlink:href="#mec3b8a4d58" x="159.067254" y="273.312" style="fill: #262626; stroke: #262626"/>
      </g>
     </g>
     <g id="text_3">
      <!-- −0.2 -->
      <g style="fill: #262626" transform="translate(150.381379 287.910875) scale(0.088 -0.088)">
       <defs>
        <path id="ArialMT-32" d="M 3222 541 
L 3222 0 
L 194 0 
Q 188 203 259 391 
Q 375 700 629 1000 
Q 884 1300 1366 1694 
Q 2113 2306 2375 2664 
Q 2638 3022 2638 3341 
Q 2638 3675 2398 3904 
Q 2159 4134 1775 4134 
Q 1369 4134 1125 3890 
Q 881 3647 878 3216 
L 300 3275 
Q 359 3922 746 4261 
Q 1134 4600 1788 4600 
Q 2447 4600 2831 4234 
Q 3216 3869 3216 3328 
Q 3216 3053 3103 2787 
Q 2991 2522 2730 2228 
Q 2469 1934 1863 1422 
Q 1356 997 1212 845 
Q 1069 694 975 541 
L 3222 541 
z
" transform="scale(0.015625)"/>
       </defs>
       <use xlink:href="#ArialMT-2212"/>
       <use xlink:href="#ArialMT-30" x="58.398438"/>
       <use xlink:href="#ArialMT-2e" x="114.013672"/>
       <use xlink:href="#ArialMT-32" x="141.796875"/>
      </g>
     </g>
    </g>
    <g id="xtick_4">
     <g id="line2d_4">
      <g>
       <use xlink:href="#mec3b8a4d58" x="212.231149" y="273.312" style="fill: #262626; stroke: #262626"/>
      </g>
     </g>
     <g id="text_4">
      <!-- 0.0 -->
      <g style="fill: #262626" transform="translate(206.115149 287.910875) scale(0.088 -0.088)">
       <use xlink:href="#ArialMT-30"/>
       <use xlink:href="#ArialMT-2e" x="55.615234"/>
       <use xlink:href="#ArialMT-30" x="83.398438"/>
      </g>
     </g>
    </g>
    <g id="xtick_5">
     <g id="line2d_5">
      <g>
       <use xlink:href="#mec3b8a4d58" x="265.395043" y="273.312" style="fill: #262626; stroke: #262626"/>
      </g>
     </g>
     <g id="text_5">
      <!-- 0.2 -->
      <g style="fill: #262626" transform="translate(259.279043 287.910875) scale(0.088 -0.088)">
       <use xlink:href="#ArialMT-30"/>
       <use xlink:href="#ArialMT-2e" x="55.615234"/>
       <use xlink:href="#ArialMT-32" x="83.398438"/>
      </g>
     </g>
    </g>
    <g id="xtick_6">
     <g id="line2d_6">
      <g>
       <use xlink:href="#mec3b8a4d58" x="318.558938" y="273.312" style="fill: #262626; stroke: #262626"/>
      </g>
     </g>
     <g id="text_6">
      <!-- 0.4 -->
      <g style="fill: #262626" transform="translate(312.442938 287.910875) scale(0.088 -0.088)">
       <use xlink:href="#ArialMT-30"/>
       <use xlink:href="#ArialMT-2e" x="55.615234"/>
       <use xlink:href="#ArialMT-34" x="83.398438"/>
      </g>
     </g>
    </g>
    <g id="xtick_7">
     <g id="line2d_7">
      <g>
       <use xlink:href="#mec3b8a4d58" x="371.722833" y="273.312" style="fill: #262626; stroke: #262626"/>
      </g>
     </g>
     <g id="text_7">
      <!-- 0.6 -->
      <g style="fill: #262626" transform="translate(365.606833 287.910875) scale(0.088 -0.088)">
       <use xlink:href="#ArialMT-30"/>
       <use xlink:href="#ArialMT-2e" x="55.615234"/>
       <use xlink:href="#ArialMT-36" x="83.398438"/>
      </g>
     </g>
    </g>
    <g id="text_8">
     <!-- x -->
     <g style="fill: #262626" transform="translate(221.81125 300.531375) scale(0.096 -0.096)">
      <defs>
       <path id="ArialMT-78" d="M 47 0 
L 1259 1725 
L 138 3319 
L 841 3319 
L 1350 2541 
Q 1494 2319 1581 2169 
Q 1719 2375 1834 2534 
L 2394 3319 
L 3066 3319 
L 1919 1756 
L 3153 0 
L 2463 0 
L 1781 1031 
L 1600 1309 
L 728 0 
L 47 0 
z
" transform="scale(0.015625)"/>
      </defs>
      <use xlink:href="#ArialMT-78"/>
     </g>
    </g>
   </g>
   <g id="matplotlib.axis_2">
    <g id="ytick_1">
     <g id="line2d_8">
      <defs>
       <path id="m8c75c71af6" d="M 0 0 
L -4.8 0 
" style="stroke: #262626"/>
      </defs>
      <g>
       <use xlink:href="#m8c75c71af6" x="45.65125" y="271.661378" style="fill: #262626; stroke: #262626"/>
      </g>
     </g>
     <g id="text_9">
      <!-- −0.8 -->
      <g style="fill: #262626" transform="translate(19.9795 274.810816) scale(0.088 -0.088)">
       <defs>
        <path id="ArialMT-38" d="M 1131 2484 
Q 781 2613 612 2850 
Q 444 3088 444 3419 
Q 444 3919 803 4259 
Q 1163 4600 1759 4600 
Q 2359 4600 2725 4251 
Q 3091 3903 3091 3403 
Q 3091 3084 2923 2848 
Q 2756 2613 2416 2484 
Q 2838 2347 3058 2040 
Q 3278 1734 3278 1309 
Q 3278 722 2862 322 
Q 2447 -78 1769 -78 
Q 1091 -78 675 323 
Q 259 725 259 1325 
Q 259 1772 486 2073 
Q 713 2375 1131 2484 
z
M 1019 3438 
Q 1019 3113 1228 2906 
Q 1438 2700 1772 2700 
Q 2097 2700 2305 2904 
Q 2513 3109 2513 3406 
Q 2513 3716 2298 3927 
Q 2084 4138 1766 4138 
Q 1444 4138 1231 3931 
Q 1019 3725 1019 3438 
z
M 838 1322 
Q 838 1081 952 856 
Q 1066 631 1291 507 
Q 1516 384 1775 384 
Q 2178 384 2440 643 
Q 2703 903 2703 1303 
Q 2703 1709 2433 1975 
Q 2163 2241 1756 2241 
Q 1359 2241 1098 1978 
Q 838 1716 838 1322 
z
" transform="scale(0.015625)"/>
       </defs>
       <use xlink:href="#ArialMT-2212"/>
       <use xlink:href="#ArialMT-30" x="58.398438"/>
       <use xlink:href="#ArialMT-2e" x="114.013672"/>
       <use xlink:href="#ArialMT-38" x="141.796875"/>
      </g>
     </g>
    </g>
    <g id="ytick_2">
     <g id="line2d_9">
      <g>
       <use xlink:href="#m8c75c71af6" x="45.65125" y="239.632092" style="fill: #262626; stroke: #262626"/>
      </g>
     </g>
     <g id="text_10">
      <!-- −0.6 -->
      <g style="fill: #262626" transform="translate(19.9795 242.781529) scale(0.088 -0.088)">
       <use xlink:href="#ArialMT-2212"/>
       <use xlink:href="#ArialMT-30" x="58.398438"/>
       <use xlink:href="#ArialMT-2e" x="114.013672"/>
       <use xlink:href="#ArialMT-36" x="141.796875"/>
      </g>
     </g>
    </g>
    <g id="ytick_3">
     <g id="line2d_10">
      <g>
       <use xlink:href="#m8c75c71af6" x="45.65125" y="207.602806" style="fill: #262626; stroke: #262626"/>
      </g>
     </g>
     <g id="text_11">
      <!-- −0.4 -->
      <g style="fill: #262626" transform="translate(19.9795 210.752243) scale(0.088 -0.088)">
       <use xlink:href="#ArialMT-2212"/>
       <use xlink:href="#ArialMT-30" x="58.398438"/>
       <use xlink:href="#ArialMT-2e" x="114.013672"/>
       <use xlink:href="#ArialMT-34" x="141.796875"/>
      </g>
     </g>
    </g>
    <g id="ytick_4">
     <g id="line2d_11">
      <g>
       <use xlink:href="#m8c75c71af6" x="45.65125" y="175.57352" style="fill: #262626; stroke: #262626"/>
      </g>
     </g>
     <g id="text_12">
      <!-- −0.2 -->
      <g style="fill: #262626" transform="translate(19.9795 178.722957) scale(0.088 -0.088)">
       <use xlink:href="#ArialMT-2212"/>
       <use xlink:href="#ArialMT-30" x="58.398438"/>
       <use xlink:href="#ArialMT-2e" x="114.013672"/>
       <use xlink:href="#ArialMT-32" x="141.796875"/>
      </g>
     </g>
    </g>
    <g id="ytick_5">
     <g id="line2d_12">
      <g>
       <use xlink:href="#m8c75c71af6" x="45.65125" y="143.544233" style="fill: #262626; stroke: #262626"/>
      </g>
     </g>
     <g id="text_13">
      <!-- 0.0 -->
      <g style="fill: #262626" transform="translate(25.11925 146.693671) scale(0.088 -0.088)">
       <use xlink:href="#ArialMT-30"/>
       <use xlink:href="#ArialMT-2e" x="55.615234"/>
       <use xlink:href="#ArialMT-30" x="83.398438"/>
      </g>
     </g>
    </g>
    <g id="ytick_6">
     <g id="line2d_13">
      <g>
       <use xlink:href="#m8c75c71af6" x="45.65125" y="111.514947" style="fill: #262626; stroke: #262626"/>
      </g>
     </g>
     <g id="text_14">
      <!-- 0.2 -->
      <g style="fill: #262626" transform="translate(25.11925 114.664385) scale(0.088 -0.088)">
       <use xlink:href="#ArialMT-30"/>
       <use xlink:href="#ArialMT-2e" x="55.615234"/>
       <use xlink:href="#ArialMT-32" x="83.398438"/>
      </g>
     </g>
    </g>
    <g id="ytick_7">
     <g id="line2d_14">
      <g>
       <use xlink:href="#m8c75c71af6" x="45.65125" y="79.485661" style="fill: #262626; stroke: #262626"/>
      </g>
     </g>
     <g id="text_15">
      <!-- 0.4 -->
      <g style="fill: #262626" transform="translate(25.11925 82.635099) scale(0.088 -0.088)">
       <use xlink:href="#ArialMT-30"/>
       <use xlink:href="#ArialMT-2e" x="55.615234"/>
       <use xlink:href="#ArialMT-34" x="83.398438"/>
      </g>
     </g>
    </g>
    <g id="ytick_8">
     <g id="line2d_15">
      <g>
       <use xlink:href="#m8c75c71af6" x="45.65125" y="47.456375" style="fill: #262626; stroke: #262626"/>
      </g>
     </g>
     <g id="text_16">
      <!-- 0.6 -->
      <g style="fill: #262626" transform="translate(25.11925 50.605812) scale(0.088 -0.088)">
       <use xlink:href="#ArialMT-30"/>
       <use xlink:href="#ArialMT-2e" x="55.615234"/>
       <use xlink:href="#ArialMT-36" x="83.398438"/>
      </g>
     </g>
    </g>
    <g id="ytick_9">
     <g id="line2d_16">
      <g>
       <use xlink:href="#m8c75c71af6" x="45.65125" y="15.427089" style="fill: #262626; stroke: #262626"/>
      </g>
     </g>
     <g id="text_17">
      <!-- 0.8 -->
      <g style="fill: #262626" transform="translate(25.11925 18.576526) scale(0.088 -0.088)">
       <use xlink:href="#ArialMT-30"/>
       <use xlink:href="#ArialMT-2e" x="55.615234"/>
       <use xlink:href="#ArialMT-38" x="83.398438"/>
      </g>
     </g>
    </g>
    <g id="text_18">
     <!-- v -->
     <g style="fill: #262626" transform="translate(14.0715 142.656) rotate(-90) scale(0.096 -0.096)">
      <defs>
       <path id="ArialMT-76" d="M 1344 0 
L 81 3319 
L 675 3319 
L 1388 1331 
Q 1503 1009 1600 663 
Q 1675 925 1809 1294 
L 2547 3319 
L 3125 3319 
L 1869 0 
L 1344 0 
z
" transform="scale(0.015625)"/>
      </defs>
      <use xlink:href="#ArialMT-76"/>
     </g>
    </g>
   </g>
   <g id="line2d_17">
    <path d="M 212.231149 143.544233 
L 212.353956 140.589912 
L 212.720953 137.6651 
L 213.329077 134.784329 
L 214.17408 131.961913 
L 215.250531 129.211901 
L 216.551839 126.54806 
L 218.070296 123.98382 
L 219.797087 121.532277 
L 221.722316 119.206196 
L 223.835044 117.01799 
L 226.123332 114.979738 
L 228.574224 113.103215 
L 231.173824 111.3999 
L 233.907275 109.880972 
L 236.758819 108.557349 
L 239.711786 107.439677 
L 242.74865 106.538287 
L 245.85104 105.863171 
L 248.999753 105.423927 
L 252.174831 105.229657 
L 255.355576 105.288846 
L 258.520621 105.609197 
L 261.647976 106.197492 
L 264.715155 107.05934 
L 267.699268 108.198984 
L 270.577114 109.619049 
L 273.32538 111.320284 
L 275.920739 113.301358 
L 278.340121 115.558609 
L 280.560799 118.085901 
L 282.560701 120.874427 
L 284.318609 123.912692 
L 285.814353 127.186476 
L 287.029055 130.678904 
L 287.94535 134.370635 
L 288.547575 138.240047 
L 288.821947 142.263627 
L 288.75667 146.41636 
L 288.342125 150.672129 
L 287.570836 155.004326 
L 286.437588 159.386277 
L 284.939333 163.791827 
L 283.075166 168.19584 
L 280.846174 172.574636 
L 278.255434 176.906323 
L 275.30766 181.171199 
L 272.009122 185.351927 
L 268.367472 189.433561 
L 264.39146 193.403613 
L 260.09078 197.251865 
L 255.47592 200.970169 
L 250.557919 204.552088 
L 245.34834 207.992529 
L 239.859122 211.287091 
L 234.102546 214.431723 
L 228.091233 217.421908 
L 221.838233 220.252121 
L 215.357116 222.915093 
L 208.662151 225.401144 
L 201.768497 227.697536 
L 194.692633 229.787804 
L 187.452453 231.651165 
L 180.067846 233.262107 
L 172.560995 234.589901 
L 164.956876 235.598533 
L 157.283674 236.246623 
L 149.573218 236.48776 
L 145.715051 236.440004 
L 141.861368 236.271154 
L 138.017302 235.974338 
L 134.188359 235.542558 
L 130.380252 234.968751 
L 126.599063 234.245815 
L 122.851092 233.366754 
L 119.142968 232.324713 
L 115.481632 231.112992 
L 111.874237 229.725281 
L 108.32819 228.155671 
L 104.851184 226.398694 
L 101.451109 224.449604 
L 98.135982 222.304307 
L 94.914081 219.959586 
L 91.793702 217.413064 
L 88.783264 214.663511 
L 85.891174 211.710748 
L 83.125875 208.555855 
L 80.495743 205.201161 
L 78.008984 201.65037 
L 75.673583 197.908565 
L 73.497415 193.982288 
L 71.487974 189.879463 
L 69.652343 185.609473 
L 67.997271 181.183105 
L 66.529032 176.612444 
L 65.253315 171.910892 
L 64.175252 167.092918 
L 63.299344 162.174063 
L 62.629504 157.170772 
L 62.168838 152.10022 
L 61.919769 146.98009 
L 61.883977 141.828478 
L 62.062413 136.663647 
L 62.455235 131.503867 
L 63.061873 126.367137 
L 63.880933 121.271032 
L 64.910481 116.232581 
L 66.147713 111.268036 
L 67.589254 106.392699 
L 69.231208 101.620687 
L 71.068788 96.965251 
L 73.097051 92.43802 
L 75.310421 88.04936 
L 77.702956 83.808222 
L 80.268397 79.722078 
L 83.000137 75.796937 
L 85.891435 72.037334 
L 88.935312 68.446409 
L 92.124756 65.025899 
L 95.452645 61.776229 
L 98.91193 58.696622 
L 102.495559 55.785196 
L 106.196632 53.038935 
L 110.008344 50.453955 
L 113.924128 48.025587 
L 117.937567 45.748429 
L 122.042529 43.616476 
L 126.233081 41.623286 
L 130.503606 39.762063 
L 134.848812 38.025761 
L 139.263613 36.407164 
L 143.743295 34.899046 
L 152.879872 32.185651 
L 162.22651 29.830286 
L 171.755656 27.782287 
L 181.443613 25.997885 
L 191.270051 24.441858 
L 201.217214 23.089027 
L 211.268695 21.925548 
L 221.409027 20.949753 
L 231.622247 20.172809 
L 241.890923 19.61942 
L 252.194984 19.327872 
L 262.510642 19.350085 
L 272.809228 19.750928 
L 277.941563 20.116987 
L 283.056185 20.607433 
L 288.147647 21.233502 
L 293.210083 22.006895 
L 298.237178 22.939745 
L 303.222001 24.044433 
L 308.157177 25.333577 
L 313.034792 26.819693 
L 317.846384 28.515226 
L 322.583057 30.43231 
L 327.235321 32.582494 
L 331.793297 34.976622 
L 336.246639 37.624603 
L 340.584604 40.535294 
L 344.79615 43.716026 
L 348.87001 47.17267 
L 352.794493 50.909073 
L 356.557967 54.927306 
L 360.148789 59.227102 
L 363.555313 63.805763 
L 366.766036 68.658151 
L 369.769756 73.776476 
L 372.555619 79.150251 
L 375.113297 84.766282 
L 377.433075 90.608687 
L 379.505892 96.658912 
L 381.32354 102.896028 
L 382.878763 109.296775 
L 384.165334 115.835809 
L 385.177992 122.485953 
L 385.912745 129.218689 
L 386.366773 136.004361 
L 386.538523 142.812521 
L 386.42763 149.61236 
L 386.035172 156.37328 
L 385.363352 163.065181 
L 384.415654 169.658729 
L 383.196722 176.125862 
L 381.71237 182.440198 
L 379.969474 188.577218 
L 377.975877 194.514544 
L 375.740278 200.232171 
L 373.272152 205.712655 
L 370.581653 210.94124 
L 367.679542 215.905801 
L 364.576987 220.596975 
L 361.285428 225.008062 
L 357.816637 229.134941 
L 354.182354 232.976067 
L 350.394606 236.532023 
L 346.465101 239.80569 
L 342.405461 242.801832 
L 338.227077 245.527006 
L 333.941065 247.989318 
L 329.558095 250.198073 
L 325.088505 252.163705 
L 320.542182 253.897535 
L 315.928474 255.411523 
L 311.256247 256.718088 
L 306.533873 257.829897 
L 301.769171 258.759798 
L 296.969391 259.520572 
L 292.141328 260.12479 
L 287.291227 260.584768 
L 282.424815 260.912425 
L 272.663585 261.216 
L 262.894322 261.119868 
L 253.147019 260.697805 
L 243.446102 260.012058 
L 233.811314 259.112608 
L 224.258741 258.037291 
L 214.8018 256.811968 
L 200.821204 254.721328 
L 191.653551 253.160777 
L 182.621386 251.455279 
L 173.737496 249.585321 
L 165.016624 247.523919 
L 156.475982 245.237893 
L 148.135788 242.689338 
L 140.019534 239.837199 
L 132.154154 236.639113 
L 128.324879 234.897189 
L 124.570166 233.053433 
L 120.894047 231.102931 
L 117.30134 229.041424 
L 113.796456 226.86477 
L 110.38453 224.569638 
L 107.070282 222.152878 
L 103.859044 219.612308 
L 100.755784 216.9461 
L 97.765944 214.153615 
L 94.894554 211.234591 
L 92.147056 208.190044 
L 89.528466 205.021497 
L 87.044036 201.731932 
L 84.69855 198.32479 
L 82.496937 194.805022 
L 80.44364 191.178077 
L 78.543119 187.450933 
L 76.799162 183.631003 
L 75.215705 179.727151 
L 73.795807 175.748548 
L 72.542556 171.705824 
L 71.458219 167.609714 
L 70.544872 163.472208 
L 69.803939 159.305177 
L 69.236405 155.121595 
L 68.842663 150.934124 
L 68.622653 146.756247 
L 68.575659 142.600843 
L 68.700479 138.481248 
L 68.995353 134.410601 
L 69.458031 130.40129 
L 70.085647 126.46584 
L 70.874951 122.615666 
L 71.822094 118.862139 
L 72.922925 115.21538 
L 74.172721 111.6852 
L 75.566604 108.280025 
L 77.099027 105.007916 
L 78.764493 101.87545 
L 80.556933 98.888749 
L 82.470351 96.052446 
L 84.498242 93.37065 
L 86.6343 90.846079 
L 88.871777 88.480916 
L 91.204215 86.276055 
L 93.624754 84.23184 
L 96.126937 82.347497 
L 98.703968 80.621819 
L 101.349493 79.052568 
L 104.056857 77.637165 
L 106.819945 76.37219 
L 109.63238 75.253943 
L 112.488393 74.278119 
L 115.381933 73.440165 
L 118.307581 72.735103 
L 121.259729 72.157793 
L 124.233416 71.702822 
L 127.223407 71.364731 
L 133.234134 71.016603 
L 139.256998 71.068287 
L 145.260389 71.475125 
L 151.216744 72.193956 
L 157.101891 73.183826 
L 162.894928 74.40651 
L 168.578 75.826795 
L 174.136062 77.412608 
L 179.556584 79.135122 
L 187.407539 81.919502 
L 194.900168 84.879138 
L 202.016463 87.952044 
L 208.745724 91.08767 
L 215.082646 94.244491 
L 222.921594 98.428996 
L 230.071952 102.526957 
L 236.552573 106.487058 
L 243.752491 111.180025 
L 250.013342 115.524968 
L 257.351554 120.920825 
L 269.719474 130.17888 
L 272.313708 131.838559 
L 274.609744 133.059339 
L 276.693292 133.896802 
L 278.636552 134.424551 
L 280.859753 134.775677 
L 286.139482 135.460866 
L 287.449668 135.87803 
L 288.674526 136.496986 
L 289.514912 137.121386 
L 290.267988 137.901638 
L 290.91346 138.851371 
L 291.429518 139.981063 
L 291.79329 141.297692 
L 291.981216 142.804678 
L 291.969634 144.50166 
L 291.734999 146.384707 
L 291.254623 148.446313 
L 290.506893 150.675929 
L 289.471689 153.06012 
L 288.130686 155.58334 
L 286.467644 158.228306 
L 284.468558 160.976772 
L 282.12163 163.810252 
L 279.417474 166.710419 
L 276.348814 169.659965 
L 272.910606 172.642774 
L 269.09952 175.644536 
L 264.914093 178.652581 
L 260.354133 181.656209 
L 255.420882 184.646135 
L 250.116456 187.61439 
L 244.444051 190.553393 
L 238.4079 193.455249 
L 232.013017 196.310858 
L 225.266026 199.108368 
L 218.17492 201.832044 
L 210.750337 204.460514 
L 203.005648 206.965279 
L 194.958694 209.308687 
L 186.632258 211.442511 
L 180.940478 212.719246 
L 175.148391 213.85499 
L 169.268663 214.825745 
L 163.316103 215.604794 
L 157.30782 216.16267 
L 151.263492 216.467485 
L 145.205529 216.48513 
L 139.159256 216.17989 
L 133.15302 215.515057 
L 127.218155 214.45393 
L 124.288094 213.763511 
L 121.389127 212.96078 
L 118.525754 212.041623 
L 115.703156 211.002245 
L 112.926141 209.839 
L 110.200168 208.548753 
L 107.53037 207.128573 
L 104.922332 205.576136 
L 102.381457 203.889442 
L 99.913497 202.06725 
L 97.523933 200.108653 
L 95.218612 198.013656 
L 93.003001 195.78265 
L 90.882913 193.417072 
L 88.863696 190.918741 
L 86.950928 188.290534 
L 85.149909 185.536011 
L 83.465921 182.659763 
L 81.903671 179.66652 
L 80.467992 176.562433 
L 79.163415 173.354243 
L 77.994122 170.049632 
L 76.963845 166.656222 
L 76.076118 163.183033 
L 75.334092 159.63946 
L 74.740525 156.035639 
L 74.297604 152.381289 
L 74.007293 148.687342 
L 73.870971 144.964759 
L 73.889556 141.224865 
L 74.063651 137.478211 
L 74.393207 133.736187 
L 74.87783 130.009804 
L 75.516632 126.310074 
L 76.308376 122.646844 
L 77.251257 119.030428 
L 78.343135 115.470375 
L 79.58135 111.975893 
L 80.963302 108.554808 
L 82.485608 105.215031 
L 84.14476 101.963507 
L 85.936836 98.806634 
L 87.858057 95.749272 
L 89.904058 92.796276 
L 92.07045 89.951362 
L 94.35248 87.217716 
L 96.745823 84.597079 
L 99.245606 82.091015 
L 101.847037 79.700209 
L 104.545338 77.424616 
L 107.33552 75.26366 
L 110.213263 73.215698 
L 113.173744 71.278994 
L 116.212361 69.451184 
L 119.324399 67.72952 
L 122.506039 66.110474 
L 125.752791 64.590611 
L 132.425524 61.832834 
L 139.312856 59.42245 
L 146.386832 57.324298 
L 153.623597 55.502354 
L 161.001094 53.921853 
L 168.501247 52.54993 
L 176.107394 51.357157 
L 183.806345 50.317865 
L 195.502441 49.002737 
L 207.346565 47.940097 
L 219.308085 47.112667 
L 231.357397 46.535462 
L 243.460679 46.257097 
L 251.539432 46.276837 
L 259.60813 46.497824 
L 267.649113 46.958603 
L 275.640088 47.703122 
L 283.556082 48.78008 
L 291.366751 50.24132 
L 295.222375 51.132953 
L 299.038595 52.140916 
L 302.810404 53.271988 
L 306.53232 54.532639 
L 310.199368 55.929475 
L 313.805503 57.468454 
L 317.344689 59.155291 
L 320.810414 60.995095 
L 324.196761 62.992838 
L 327.496812 65.152357 
L 330.703795 67.476933 
L 333.810819 69.968997 
L 336.810617 72.629855 
L 339.696639 75.460397 
L 342.46166 78.459804 
L 345.098653 81.626356 
L 347.600567 84.956843 
L 349.961097 88.447569 
L 352.173405 92.092832 
L 354.23136 95.885887 
L 356.12872 99.818363 
L 357.860176 103.881648 
L 359.420437 108.064965 
L 360.80475 112.356702 
L 362.008725 116.743822 
L 363.028878 121.213406 
L 363.862007 125.750682 
L 364.505625 130.340463 
L 364.957862 134.966665 
L 365.217578 139.613923 
L 365.284155 144.26551 
L 365.157815 148.905005 
L 364.83946 153.51571 
L 364.330484 158.082313 
L 363.633123 162.588853 
L 362.750133 167.020267 
L 361.685094 171.361925 
L 360.441794 175.601073 
L 359.024811 179.724903 
L 357.439231 183.722009 
L 355.690663 187.581859 
L 353.784684 191.296025 
L 351.727663 194.856429 
L 349.526161 198.256578 
L 347.186894 201.491247 
L 344.71704 204.556269 
L 342.123294 207.449382 
L 339.413038 210.168858 
L 336.593482 212.71433 
L 333.672072 215.086289 
L 330.655534 217.286797 
L 327.551133 219.318302 
L 324.365864 221.184222 
L 321.106746 222.888609 
L 317.77987 224.436546 
L 314.391892 225.833277 
L 310.948951 227.08466 
L 307.457241 228.196793 
L 303.921882 229.176378 
L 300.348464 230.03002 
L 296.742107 230.764611 
L 289.449753 231.904254 
L 282.079216 232.650519 
L 274.661455 233.056832 
L 267.22202 233.173697 
L 259.783568 233.047534 
L 252.36393 232.720001 
L 241.303007 231.929168 
L 230.358468 230.865277 
L 219.559323 229.599624 
L 205.424931 227.670847 
L 195.045652 226.06233 
L 184.875806 224.304074 
L 174.935808 222.364921 
L 165.250736 220.19744 
L 158.951536 218.596531 
L 152.791035 216.847677 
L 146.782835 214.930125 
L 140.941374 212.822466 
L 135.283724 210.504157 
L 129.827832 207.955612 
L 124.593884 205.159772 
L 119.6027 202.102219 
L 114.876792 198.772936 
L 110.438653 195.166122 
L 106.311715 191.282051 
L 102.518445 187.126449 
L 99.081216 182.712225 
L 97.502575 180.413742 
L 96.020537 178.05833 
L 94.637404 175.649457 
L 93.35542 173.191169 
L 92.176376 170.687341 
L 91.102139 168.142762 
L 90.134304 165.562399 
L 89.274327 162.951707 
L 87.88195 157.660786 
L 86.931456 152.317422 
L 86.425103 146.970841 
L 86.361069 141.671986 
L 86.733278 136.471505 
L 87.531582 131.417702 
L 88.741768 126.556534 
L 90.346227 121.92886 
L 91.289781 119.71428 
L 92.323892 117.570961 
L 93.445454 115.50262 
L 95.937941 111.603111 
L 98.740663 108.035487 
L 101.825243 104.813308 
L 105.162901 101.943128 
L 108.724086 99.425763 
L 112.479972 97.256049 
L 116.401729 95.424225 
L 120.462201 93.916021 
L 124.634921 92.713979 
L 128.895598 91.7978 
L 133.221229 91.145358 
L 137.590708 90.733261 
L 141.985443 90.537402 
L 146.388143 90.533646 
L 150.784173 90.698081 
L 157.337314 91.209651 
L 163.810276 91.973809 
L 172.27041 93.269826 
L 182.515364 95.142552 
L 212.660493 100.928869 
L 221.361723 102.280069 
L 229.811816 103.3493 
L 238.067371 104.160054 
L 247.784497 104.875201 
L 268.301061 106.270651 
L 274.438141 106.94317 
L 278.956879 107.611634 
L 283.381488 108.460601 
L 287.687416 109.524969 
L 291.845535 110.837299 
L 294.519508 111.86443 
L 297.102916 113.022177 
L 299.584558 114.316655 
L 301.95278 115.75259 
L 304.195857 117.333279 
L 306.301543 119.060076 
L 308.257843 120.932668 
L 310.052644 122.948553 
L 311.674293 125.103443 
L 313.111406 127.390699 
L 314.353439 129.802018 
L 315.390418 132.326767 
L 316.213486 134.952962 
L 316.814729 137.666601 
L 317.18754 140.452746 
L 317.326571 143.294982 
L 317.227855 146.176598 
L 316.888839 149.080033 
L 316.308399 151.988169 
L 315.486908 154.883745 
L 314.42606 157.750641 
L 313.128913 160.573276 
L 311.599667 163.337795 
L 309.843803 166.031428 
L 307.867508 168.643592 
L 305.67811 171.165116 
L 303.283247 173.589188 
L 300.691441 175.910568 
L 297.911147 178.126385 
L 294.95141 180.235225 
L 291.82089 182.237834 
L 288.528539 184.136192 
L 285.082619 185.934053 
L 279.64395 188.452993 
L 273.903756 190.776995 
L 267.885214 192.929566 
L 261.60793 194.936009 
L 255.088501 196.821526 
L 246.042314 199.187801 
L 236.614244 201.427197 
L 224.319525 204.093004 
L 211.485561 206.61959 
L 200.852006 208.506701 
L 189.919427 210.206988 
L 181.546546 211.299963 
L 173.050283 212.174142 
L 164.462553 212.759318 
L 158.706369 212.948729 
L 152.941985 212.946166 
L 147.187025 212.722721 
L 141.460608 212.247957 
L 135.785347 211.49073 
L 130.185552 210.419627 
L 124.689004 209.004153 
L 119.325072 207.215332 
L 116.702893 206.172661 
L 114.1261 205.027214 
L 111.599255 203.776452 
L 109.126367 202.41795 
L 106.712142 200.949895 
L 104.361183 199.370788 
L 102.078281 197.679736 
L 99.867747 195.875938 
L 97.734438 193.959508 
L 95.683034 191.930966 
L 93.718289 189.791592 
L 91.844514 187.542784 
L 90.066325 185.187005 
L 88.388113 182.727237 
L 86.814249 180.167273 
L 85.348562 177.510943 
L 83.995058 174.763298 
L 82.757453 171.929797 
L 81.639234 169.016712 
L 80.643434 166.030204 
L 79.773008 162.97759 
L 79.030578 159.866483 
L 78.418426 156.70512 
L 77.938414 153.501364 
L 77.59211 150.264126 
L 77.38075 147.002289 
L 77.305174 143.725152 
L 77.365809 140.441317 
L 77.562799 137.160182 
L 77.895794 133.890813 
L 78.36405 130.642387 
L 78.966663 127.423104 
L 79.702161 124.241655 
L 80.568832 121.106114 
L 81.564569 118.024168 
L 82.686963 115.003253 
L 83.933472 112.049603 
L 85.301101 109.169617 
L 86.786705 106.368876 
L 88.386687 103.652547 
L 90.097791 101.024538 
L 91.916073 98.488775 
L 93.837682 96.048322 
L 95.858428 93.705778 
L 97.974515 91.462578 
L 100.181674 89.320073 
L 102.475658 87.278888 
L 104.852119 85.339191 
L 107.307174 83.500189 
L 109.836538 81.761033 
L 112.436036 80.120281 
L 115.101453 78.576172 
L 120.615223 75.767919 
L 126.347087 73.314652 
L 132.26904 71.190254 
L 138.35448 69.366239 
L 144.580171 67.812217 
L 150.924527 66.497677 
L 157.369362 65.392402 
L 163.898302 64.467737 
L 173.819343 63.361856 
L 183.860644 62.5249 
L 193.992734 61.89549 
L 207.604348 61.308768 
L 221.292281 60.97462 
L 231.5829 60.901931 
L 241.870951 61.019187 
L 252.129735 61.383089 
L 258.935819 61.799682 
L 265.700189 62.38649 
L 272.407988 63.173715 
L 279.04075 64.193806 
L 285.578174 65.481146 
L 291.996173 67.070682 
L 298.268668 68.997459 
L 304.365777 71.294672 
L 307.338855 72.591978 
L 310.255915 73.993067 
L 313.112602 75.501051 
L 315.904201 77.118555 
L 318.626538 78.848156 
L 321.274701 80.691602 
L 323.84396 82.650232 
L 326.329294 84.724668 
L 328.726281 86.915401 
L 331.029906 89.221807 
L 333.235386 91.642767 
L 335.337863 94.176212 
L 337.333004 96.819973 
L 339.21616 99.570544 
L 340.98298 102.4239 
L 342.629156 105.374994 
L 344.150979 108.418737 
L 345.544608 111.548688 
L 346.806668 114.757911 
L 347.93391 118.03884 
L 348.923563 121.383052 
L 349.773249 124.782371 
L 350.48083 128.227325 
L 351.044625 131.708331 
L 351.463242 135.215212 
L 351.73595 138.738351 
L 351.862227 142.267154 
L 351.842058 145.791225 
L 351.675869 149.299934 
L 351.36447 152.78357 
L 350.90919 156.231792 
L 350.311615 159.634816 
L 349.573915 162.982974 
L 348.69845 166.267824 
L 347.688042 169.480615 
L 346.545906 172.613443 
L 345.275576 175.658775 
L 343.88064 178.610481 
L 342.365217 181.462393 
L 340.733531 184.209315 
L 338.990215 186.846581 
L 337.139588 189.370861 
L 335.186576 191.778988 
L 333.136012 194.068694 
L 330.993069 196.238298 
L 328.762365 198.287286 
L 326.449107 200.215338 
L 324.058299 202.022897 
L 321.59514 203.710865 
L 319.064144 205.2811 
L 316.470389 206.735539 
L 313.818582 208.076711 
L 311.113404 209.307604 
L 308.359364 210.431469 
L 302.722414 212.372593 
L 296.939936 213.932089 
L 291.042629 215.144058 
L 285.057862 216.044335 
L 279.010519 216.668799 
L 272.921079 217.052966 
L 266.808549 217.230479 
L 260.688752 217.23317 
L 251.524305 216.972178 
L 242.407846 216.46844 
L 230.371662 215.537513 
L 215.570383 214.116517 
L 201.083978 212.51871 
L 186.94551 210.752951 
L 175.913846 209.161663 
L 167.823414 207.81085 
L 159.912638 206.275242 
L 152.206911 204.502982 
L 147.199831 203.162864 
L 142.310016 201.676415 
L 137.550599 200.027597 
L 132.935045 198.200651 
L 128.47905 196.181751 
L 124.199106 193.958653 
L 120.112887 191.521952 
L 116.23779 188.864465 
L 112.592679 185.983202 
L 109.196081 182.87875 
L 106.066615 179.556387 
L 103.221542 176.02499 
L 100.677895 172.298946 
L 98.451073 168.396834 
L 96.554949 164.342037 
L 95.000804 160.160933 
L 93.798041 155.884351 
L 92.953187 151.545555 
L 92.470006 147.180172 
L 92.349155 142.823914 
L 92.588353 138.513672 
L 93.182332 134.285186 
L 94.122812 130.172521 
L 95.398783 126.207519 
L 96.996991 122.417829 
L 98.901726 118.828262 
L 101.095513 115.458947 
L 103.559148 112.325842 
L 106.272984 109.439454 
L 109.21595 106.806567 
L 112.366948 104.42921 
L 115.70455 102.305622 
L 119.208396 100.429765 
L 122.857992 98.792989 
L 126.633999 97.383595 
L 130.517754 96.18791 
L 134.492756 95.190127 
L 138.542953 94.37366 
L 142.654055 93.720821 
L 148.906816 93.00935 
L 155.231212 92.56559 
L 161.597251 92.331592 
L 170.111386 92.253281 
L 182.872269 92.414061 
L 206.128111 92.775848 
L 220.881446 92.741236 
L 256.900148 92.439662 
L 265.366117 92.743188 
L 271.667111 93.201247 
L 277.895928 93.916394 
L 281.990972 94.56329 
L 286.02565 95.365253 
L 289.987073 96.338366 
L 293.860046 97.497578 
L 297.628567 98.85681 
L 301.275216 100.428137 
L 304.782484 102.222004 
L 308.131288 104.24593 
L 311.302313 106.504636 
L 314.275747 108.999317 
L 317.032529 111.728111 
L 319.553203 114.684654 
L 321.819254 117.858748 
L 323.813175 121.236071 
L 325.518751 124.798032 
L 326.921735 128.523095 
L 328.009526 132.385503 
L 328.771864 136.356907 
L 329.200937 140.406321 
L 329.291661 144.502214 
L 329.041475 148.611257 
L 328.450713 152.700594 
L 327.522392 156.737823 
L 326.261964 160.693202 
L 324.677486 164.538333 
L 322.779191 168.24819 
L 320.579392 171.800778 
L 318.091579 175.178896 
L 315.33101 178.368339 
L 312.313775 181.359443 
L 309.056891 184.146167 
L 305.576914 186.727114 
L 301.891123 189.103626 
L 298.016327 191.280686 
L 293.969085 193.265609 
L 289.764361 195.06883 
L 285.41704 196.701836 
L 280.940748 198.178009 
L 276.348259 199.511259 
L 269.264749 201.275734 
L 261.976839 202.801439 
L 254.511681 204.135586 
L 244.317096 205.689899 
L 233.880853 207.062543 
L 220.532046 208.607086 
L 206.879097 209.996854 
L 192.956334 211.187336 
L 181.659843 211.905853 
L 173.122429 212.235186 
L 164.55923 212.315158 
L 158.85278 212.193162 
L 153.163287 211.902306 
L 147.505863 211.416046 
L 141.898316 210.706932 
L 136.359449 209.746514 
L 130.911733 208.506748 
L 125.579521 206.960172 
L 120.389762 205.081409 
L 115.370201 202.847215 
L 110.55159 200.238671 
L 108.227525 198.789349 
L 105.965657 197.241546 
L 103.770103 195.594466 
L 101.645342 193.847945 
L 99.594801 192.001526 
L 97.623006 190.056031 
L 95.734028 188.012517 
L 93.931883 185.872594 
L 92.220557 183.638396 
L 90.603915 181.312615 
L 89.085672 178.898523 
L 87.669624 176.400294 
L 86.358772 173.821485 
L 85.156571 171.167362 
L 84.066023 168.443304 
L 83.089949 165.655179 
L 82.230836 162.809295 
L 81.490965 159.912385 
L 80.872309 156.971528 
L 80.376516 153.994118 
L 80.005036 150.988294 
L 79.758756 147.961006 
L 79.63846 144.920716 
L 79.644536 141.875513 
L 79.776977 138.833516 
L 80.035536 135.802803 
L 80.419525 132.791316 
L 80.928033 129.806832 
L 81.559633 126.85738 
L 82.312971 123.949307 
L 83.186035 121.089997 
L 84.17671 118.285981 
L 85.282523 115.543412 
L 86.500838 112.867908 
L 87.828746 110.264621 
L 89.263181 107.738169 
L 90.800571 105.29307 
L 92.437993 102.932082 
L 94.17162 100.658551 
L 95.997784 98.474934 
L 97.912731 96.38313 
L 99.912562 94.384441 
L 101.993436 92.479667 
L 104.151439 90.669144 
L 106.382308 88.952987 
L 108.68282 87.330019 
L 113.476453 84.359769 
L 118.501814 81.745975 
L 123.730002 79.470454 
L 129.133458 77.511342 
L 134.687725 75.843204 
L 140.369339 74.439409 
L 146.157512 73.271945 
L 152.033323 72.313174 
L 157.981494 71.535571 
L 167.008581 70.653131 
L 176.127468 70.041834 
L 185.309623 69.63471 
L 197.613004 69.320912 
L 213.038357 69.191247 
L 228.464442 69.31698 
L 240.767144 69.652174 
L 249.944793 70.100878 
L 259.052304 70.782248 
L 265.06948 71.400513 
L 271.028908 72.177352 
L 276.915937 73.138003 
L 282.715094 74.309013 
L 288.407363 75.717108 
L 293.971945 77.388792 
L 299.385881 79.349408 
L 304.623838 81.62196 
L 309.659798 84.226953 
L 314.465092 87.180179 
L 316.772092 88.790986 
L 319.010313 90.492405 
L 321.175691 92.284562 
L 323.265113 94.167931 
L 325.274435 96.141701 
L 327.199965 98.204835 
L 329.038005 100.355816 
L 330.784949 102.592626 
L 332.437304 104.912676 
L 333.991639 107.312892 
L 335.444517 109.789254 
L 336.793284 112.338413 
L 338.034786 114.955347 
L 339.166306 117.634942 
L 340.185389 120.371643 
L 341.089761 123.159457 
L 341.877441 125.992001 
L 342.546703 128.862535 
L 343.096049 131.763613 
L 343.524488 134.68882 
L 343.831127 137.630253 
L 344.015441 140.580317 
L 344.077225 143.531308 
L 344.016613 146.475498 
L 343.834042 149.405218 
L 343.530248 152.31291 
L 343.106324 155.191142 
L 342.563743 158.032268 
L 341.90398 160.830207 
L 341.129078 163.577894 
L 340.241248 166.269072 
L 339.242976 168.897845 
L 338.136932 171.458792 
L 336.926073 173.946931 
L 335.613486 176.357776 
L 334.20273 178.686976 
L 332.69679 180.931806 
L 331.099446 183.088958 
L 329.414405 185.156016 
L 327.645461 187.13104 
L 325.79645 189.012711 
L 323.871276 190.800133 
L 321.873837 192.492899 
L 319.808403 194.090806 
L 315.487653 197.005735 
L 310.940149 199.553354 
L 306.195887 201.74802 
L 301.283804 203.608418 
L 296.22994 205.157305 
L 291.059558 206.419512 
L 285.795356 207.421672 
L 280.457773 208.191137 
L 275.065432 208.755341 
L 269.633433 209.14115 
L 261.441286 209.441097 
L 253.229432 209.476821 
L 242.296414 209.232586 
L 228.718218 208.639354 
L 209.952847 207.560334 
L 188.921246 206.130112 
L 176.039252 205.026952 
L 165.918489 203.905225 
L 158.463665 202.852393 
L 151.154405 201.558672 
L 146.37906 200.534161 
L 141.69453 199.359619 
L 137.11434 198.018132 
L 132.653037 196.493229 
L 128.326828 194.769956 
L 124.152128 192.834474 
L 120.147332 190.675737 
L 116.331358 188.285179 
L 112.723963 185.657878 
L 109.344366 182.791906 
L 106.212587 179.690219 
L 103.347899 176.359907 
L 100.769022 172.813084 
L 98.492917 169.065606 
L 96.535627 165.138783 
L 94.91096 161.057853 
L 93.630656 156.852273 
L 92.703564 152.553662 
L 92.136053 148.197092 
L 91.931466 143.818933 
L 92.089986 139.456496 
L 92.608871 135.145863 
L 93.4823 130.922836 
L 94.701589 126.820786 
L 96.255393 122.870089 
L 98.129874 119.097922 
L 100.309528 115.526379 
L 102.776759 112.174081 
L 105.512777 109.054618 
L 108.497572 106.177193 
L 111.711328 103.545743 
L 115.133355 101.160714 
L 118.743317 99.018281 
L 122.521028 97.111401 
L 126.44795 95.429465 
L 130.505634 93.960031 
L 134.677006 92.688354 
L 138.945963 91.598601 
L 143.298798 90.673439 
L 149.956744 89.556376 
L 156.735908 88.711635 
L 163.606644 88.082168 
L 172.869899 87.487442 
L 184.561517 86.98778 
L 215.346787 86.033266 
L 239.369851 85.380065 
L 249.038761 85.296308 
L 258.702816 85.453341 
L 265.918825 85.804409 
L 273.074778 86.42223 
L 277.794451 87.014235 
L 282.458166 87.773368 
L 287.051229 88.719448 
L 291.557284 89.87183 
L 295.958127 91.248831 
L 300.235021 92.867604 
L 304.366958 94.742883 
L 308.332104 96.88682 
L 312.107462 99.308048 
L 315.670343 102.011879 
L 317.364415 103.469811 
L 317.364415 103.469811 
" clip-path="url(#pa1da4c8b7a)" style="fill: none; stroke: #1f77b4; stroke-linecap: round"/>
   </g>
   <g id="patch_3">
    <path d="M 45.65125 271.661378 
L 45.65125 15.427089 
" style="fill: none; stroke: #262626; stroke-linejoin: miter; stroke-linecap: square"/>
   </g>
   <g id="patch_4">
    <path d="M 52.739465 273.312 
L 371.722833 273.312 
" style="fill: none; stroke: #262626; stroke-linejoin: miter; stroke-linecap: square"/>
   </g>
  </g>
 </g>
 <defs>
  <clipPath id="pa1da4c8b7a">
   <rect x="45.65125" y="7.2" width="357.12" height="266.112"/>
  </clipPath>
 </defs>
</svg>