<?xml version="1.0" encoding="utf-8" standalone="no"?>
<!DOCTYPE svg PUBLIC "-//W3C//DTD SVG 1.1//EN"
  "http://www.w3.org/Graphics/SVG/1.1/DTD/svg11.dtd">
<svg xmlns:xlink="http://www.w3.org/1999/xlink" width="281.146937pt" height="224.8125pt" viewBox="0 0 281.146937 224.8125" xmlns="http://www.w3.org/2000/svg" version="1.1">
 <metadata>
  <rdf:RDF xmlns:dc="http://purl.org/dc/elements/1.1/" xmlns:cc="http://creativecommons.org/ns#" xmlns:rdf="http://www.w3.org/1999/02/22-rdf-syntax-ns#">
   <cc:Work>
    <dc:type rdf:resource="http://purl.org/dc/dcmitype/StillImage"/>
    <dc:date>2024-10-09T18:02:58.456995</dc:date>
    <dc:format>image/svg+xml</dc:format>
    <dc:creator>
     <cc:Agent>
      <dc:title>Matplotlib v3.9.2, https://matplotlib.org/</dc:title>
     </cc:Agent>
    </dc:creator>
   </cc:Work>
  </rdf:RDF>
 </metadata>
 <defs>
  <style type="text/css">*{stroke-linejoin: round; stroke-linecap: butt}</style>
 </defs>
 <g id="figure_1">
  <g id="patch_1">
   <path d="M 0 224.8125 
L 281.146937 224.8125 
L 281.146937 0 
L 0 0 
z
" style="fill: #ffffff"/>
  </g>
  <g id="axes_1">
   <g id="patch_2">
    <path d="M 40.741 188.255625 
L 263.941 188.255625 
L 263.941 21.935625 
L 40.741 21.935625 
z
" style="fill: #ffffff"/>
   </g>
   <g id="matplotlib.axis_1">
    <g id="xtick_1">
     <g id="line2d_1">
      <defs>
       <path id="m7c63d60e9c" d="M 0 0 
L 0 4.8 
" style="stroke: #262626"/>
      </defs>
      <g>
       <use xlink:href="#m7c63d60e9c" x="61.188013" y="188.255625" style="fill: #262626; stroke: #262626"/>
      </g>
     </g>
     <g id="text_1">
      <!-- 0.5 -->
      <g style="fill: #262626" transform="translate(55.072013 202.8545) scale(0.088 -0.088)">
       <defs>
        <path id="ArialMT-30" d="M 266 2259 
Q 266 3072 433 3567 
Q 600 4063 929 4331 
Q 1259 4600 1759 4600 
Q 2128 4600 2406 4451 
Q 2684 4303 2865 4023 
Q 3047 3744 3150 3342 
Q 3253 2941 3253 2259 
Q 3253 1453 3087 958 
Q 2922 463 2592 192 
Q 2263 -78 1759 -78 
Q 1097 -78 719 397 
Q 266 969 266 2259 
z
M 844 2259 
Q 844 1131 1108 757 
Q 1372 384 1759 384 
Q 2147 384 2411 759 
Q 2675 1134 2675 2259 
Q 2675 3391 2411 3762 
Q 2147 4134 1753 4134 
Q 1366 4134 1134 3806 
Q 844 3388 844 2259 
z
" transform="scale(0.015625)"/>
        <path id="ArialMT-2e" d="M 581 0 
L 581 641 
L 1222 641 
L 1222 0 
L 581 0 
z
" transform="scale(0.015625)"/>
        <path id="ArialMT-35" d="M 266 1200 
L 856 1250 
Q 922 819 1161 601 
Q 1400 384 1738 384 
Q 2144 384 2425 690 
Q 2706 997 2706 1503 
Q 2706 1984 2436 2262 
Q 2166 2541 1728 2541 
Q 1456 2541 1237 2417 
Q 1019 2294 894 2097 
L 366 2166 
L 809 4519 
L 3088 4519 
L 3088 3981 
L 1259 3981 
L 1013 2750 
Q 1425 3038 1878 3038 
Q 2478 3038 2890 2622 
Q 3303 2206 3303 1553 
Q 3303 931 2941 478 
Q 2500 -78 1738 -78 
Q 1113 -78 717 272 
Q 322 622 266 1200 
z
" transform="scale(0.015625)"/>
       </defs>
       <use xlink:href="#ArialMT-30"/>
       <use xlink:href="#ArialMT-2e" x="55.615234"/>
       <use xlink:href="#ArialMT-35" x="83.398438"/>
      </g>
     </g>
    </g>
    <g id="xtick_2">
     <g id="line2d_2">
      <g>
       <use xlink:href="#m7c63d60e9c" x="99.59625" y="188.255625" style="fill: #262626; stroke: #262626"/>
      </g>
     </g>
     <g id="text_2">
      <!-- 1.0 -->
      <g style="fill: #262626" transform="translate(93.48025 202.8545) scale(0.088 -0.088)">
       <defs>
        <path id="ArialMT-31" d="M 2384 0 
L 1822 0 
L 1822 3584 
Q 1619 3391 1289 3197 
Q 959 3003 697 2906 
L 697 3450 
Q 1169 3672 1522 3987 
Q 1875 4303 2022 4600 
L 2384 4600 
L 2384 0 
z
" transform="scale(0.015625)"/>
       </defs>
       <use xlink:href="#ArialMT-31"/>
       <use xlink:href="#ArialMT-2e" x="55.615234"/>
       <use xlink:href="#ArialMT-30" x="83.398438"/>
      </g>
     </g>
    </g>
    <g id="xtick_3">
     <g id="line2d_3">
      <g>
       <use xlink:href="#m7c63d60e9c" x="138.004488" y="188.255625" style="fill: #262626; stroke: #262626"/>
      </g>
     </g>
     <g id="text_3">
      <!-- 1.5 -->
      <g style="fill: #262626" transform="translate(131.888488 202.8545) scale(0.088 -0.088)">
       <use xlink:href="#ArialMT-31"/>
       <use xlink:href="#ArialMT-2e" x="55.615234"/>
       <use xlink:href="#ArialMT-35" x="83.398438"/>
      </g>
     </g>
    </g>
    <g id="xtick_4">
     <g id="line2d_4">
      <g>
       <use xlink:href="#m7c63d60e9c" x="176.412725" y="188.255625" style="fill: #262626; stroke: #262626"/>
      </g>
     </g>
     <g id="text_4">
      <!-- 2.0 -->
      <g style="fill: #262626" transform="translate(170.296725 202.8545) scale(0.088 -0.088)">
       <defs>
        <path id="ArialMT-32" d="M 3222 541 
L 3222 0 
L 194 0 
Q 188 203 259 391 
Q 375 700 629 1000 
Q 884 1300 1366 1694 
Q 2113 2306 2375 2664 
Q 2638 3022 2638 3341 
Q 2638 3675 2398 3904 
Q 2159 4134 1775 4134 
Q 1369 4134 1125 3890 
Q 881 3647 878 3216 
L 300 3275 
Q 359 3922 746 4261 
Q 1134 4600 1788 4600 
Q 2447 4600 2831 4234 
Q 3216 3869 3216 3328 
Q 3216 3053 3103 2787 
Q 2991 2522 2730 2228 
Q 2469 1934 1863 1422 
Q 1356 997 1212 845 
Q 1069 694 975 541 
L 3222 541 
z
" transform="scale(0.015625)"/>
       </defs>
       <use xlink:href="#ArialMT-32"/>
       <use xlink:href="#ArialMT-2e" x="55.615234"/>
       <use xlink:href="#ArialMT-30" x="83.398438"/>
      </g>
     </g>
    </g>
    <g id="xtick_5">
     <g id="line2d_5">
      <g>
       <use xlink:href="#m7c63d60e9c" x="214.820962" y="188.255625" style="fill: #262626; stroke: #262626"/>
      </g>
     </g>
     <g id="text_5">
      <!-- 2.5 -->
      <g style="fill: #262626" transform="translate(208.704962 202.8545) scale(0.088 -0.088)">
       <use xlink:href="#ArialMT-32"/>
       <use xlink:href="#ArialMT-2e" x="55.615234"/>
       <use xlink:href="#ArialMT-35" x="83.398438"/>
      </g>
     </g>
    </g>
    <g id="xtick_6">
     <g id="line2d_6">
      <g>
       <use xlink:href="#m7c63d60e9c" x="253.2292" y="188.255625" style="fill: #262626; stroke: #262626"/>
      </g>
     </g>
     <g id="text_6">
      <!-- 3.0 -->
      <g style="fill: #262626" transform="translate(247.1132 202.8545) scale(0.088 -0.088)">
       <defs>
        <path id="ArialMT-33" d="M 269 1209 
L 831 1284 
Q 928 806 1161 595 
Q 1394 384 1728 384 
Q 2125 384 2398 659 
Q 2672 934 2672 1341 
Q 2672 1728 2419 1979 
Q 2166 2231 1775 2231 
Q 1616 2231 1378 2169 
L 1441 2663 
Q 1497 2656 1531 2656 
Q 1891 2656 2178 2843 
Q 2466 3031 2466 3422 
Q 2466 3731 2256 3934 
Q 2047 4138 1716 4138 
Q 1388 4138 1169 3931 
Q 950 3725 888 3313 
L 325 3413 
Q 428 3978 793 4289 
Q 1159 4600 1703 4600 
Q 2078 4600 2393 4439 
Q 2709 4278 2876 4000 
Q 3044 3722 3044 3409 
Q 3044 3113 2884 2869 
Q 2725 2625 2413 2481 
Q 2819 2388 3044 2092 
Q 3269 1797 3269 1353 
Q 3269 753 2831 336 
Q 2394 -81 1725 -81 
Q 1122 -81 723 278 
Q 325 638 269 1209 
z
" transform="scale(0.015625)"/>
       </defs>
       <use xlink:href="#ArialMT-33"/>
       <use xlink:href="#ArialMT-2e" x="55.615234"/>
       <use xlink:href="#ArialMT-30" x="83.398438"/>
      </g>
     </g>
    </g>
    <g id="text_7">
     <!-- Model (low-fidelity) -->
     <g style="fill: #262626" transform="translate(112.333 215.592) scale(0.096 -0.096)">
      <defs>
       <path id="ArialMT-4d" d="M 475 0 
L 475 4581 
L 1388 4581 
L 2472 1338 
Q 2622 884 2691 659 
Q 2769 909 2934 1394 
L 4031 4581 
L 4847 4581 
L 4847 0 
L 4263 0 
L 4263 3834 
L 2931 0 
L 2384 0 
L 1059 3900 
L 1059 0 
L 475 0 
z
" transform="scale(0.015625)"/>
       <path id="ArialMT-6f" d="M 213 1659 
Q 213 2581 725 3025 
Q 1153 3394 1769 3394 
Q 2453 3394 2887 2945 
Q 3322 2497 3322 1706 
Q 3322 1066 3130 698 
Q 2938 331 2570 128 
Q 2203 -75 1769 -75 
Q 1072 -75 642 372 
Q 213 819 213 1659 
z
M 791 1659 
Q 791 1022 1069 705 
Q 1347 388 1769 388 
Q 2188 388 2466 706 
Q 2744 1025 2744 1678 
Q 2744 2294 2464 2611 
Q 2184 2928 1769 2928 
Q 1347 2928 1069 2612 
Q 791 2297 791 1659 
z
" transform="scale(0.015625)"/>
       <path id="ArialMT-64" d="M 2575 0 
L 2575 419 
Q 2259 -75 1647 -75 
Q 1250 -75 917 144 
Q 584 363 401 755 
Q 219 1147 219 1656 
Q 219 2153 384 2558 
Q 550 2963 881 3178 
Q 1213 3394 1622 3394 
Q 1922 3394 2156 3267 
Q 2391 3141 2538 2938 
L 2538 4581 
L 3097 4581 
L 3097 0 
L 2575 0 
z
M 797 1656 
Q 797 1019 1065 703 
Q 1334 388 1700 388 
Q 2069 388 2326 689 
Q 2584 991 2584 1609 
Q 2584 2291 2321 2609 
Q 2059 2928 1675 2928 
Q 1300 2928 1048 2622 
Q 797 2316 797 1656 
z
" transform="scale(0.015625)"/>
       <path id="ArialMT-65" d="M 2694 1069 
L 3275 997 
Q 3138 488 2766 206 
Q 2394 -75 1816 -75 
Q 1088 -75 661 373 
Q 234 822 234 1631 
Q 234 2469 665 2931 
Q 1097 3394 1784 3394 
Q 2450 3394 2872 2941 
Q 3294 2488 3294 1666 
Q 3294 1616 3291 1516 
L 816 1516 
Q 847 969 1125 678 
Q 1403 388 1819 388 
Q 2128 388 2347 550 
Q 2566 713 2694 1069 
z
M 847 1978 
L 2700 1978 
Q 2663 2397 2488 2606 
Q 2219 2931 1791 2931 
Q 1403 2931 1139 2672 
Q 875 2413 847 1978 
z
" transform="scale(0.015625)"/>
       <path id="ArialMT-6c" d="M 409 0 
L 409 4581 
L 972 4581 
L 972 0 
L 409 0 
z
" transform="scale(0.015625)"/>
       <path id="ArialMT-20" transform="scale(0.015625)"/>
       <path id="ArialMT-28" d="M 1497 -1347 
Q 1031 -759 709 28 
Q 388 816 388 1659 
Q 388 2403 628 3084 
Q 909 3875 1497 4659 
L 1900 4659 
Q 1522 4009 1400 3731 
Q 1209 3300 1100 2831 
Q 966 2247 966 1656 
Q 966 153 1900 -1347 
L 1497 -1347 
z
" transform="scale(0.015625)"/>
       <path id="ArialMT-77" d="M 1034 0 
L 19 3319 
L 600 3319 
L 1128 1403 
L 1325 691 
Q 1338 744 1497 1375 
L 2025 3319 
L 2603 3319 
L 3100 1394 
L 3266 759 
L 3456 1400 
L 4025 3319 
L 4572 3319 
L 3534 0 
L 2950 0 
L 2422 1988 
L 2294 2553 
L 1622 0 
L 1034 0 
z
" transform="scale(0.015625)"/>
       <path id="ArialMT-2d" d="M 203 1375 
L 203 1941 
L 1931 1941 
L 1931 1375 
L 203 1375 
z
" transform="scale(0.015625)"/>
       <path id="ArialMT-66" d="M 556 0 
L 556 2881 
L 59 2881 
L 59 3319 
L 556 3319 
L 556 3672 
Q 556 4006 616 4169 
Q 697 4388 901 4523 
Q 1106 4659 1475 4659 
Q 1713 4659 2000 4603 
L 1916 4113 
Q 1741 4144 1584 4144 
Q 1328 4144 1222 4034 
Q 1116 3925 1116 3625 
L 1116 3319 
L 1763 3319 
L 1763 2881 
L 1116 2881 
L 1116 0 
L 556 0 
z
" transform="scale(0.015625)"/>
       <path id="ArialMT-69" d="M 425 3934 
L 425 4581 
L 988 4581 
L 988 3934 
L 425 3934 
z
M 425 0 
L 425 3319 
L 988 3319 
L 988 0 
L 425 0 
z
" transform="scale(0.015625)"/>
       <path id="ArialMT-74" d="M 1650 503 
L 1731 6 
Q 1494 -44 1306 -44 
Q 1000 -44 831 53 
Q 663 150 594 308 
Q 525 466 525 972 
L 525 2881 
L 113 2881 
L 113 3319 
L 525 3319 
L 525 4141 
L 1084 4478 
L 1084 3319 
L 1650 3319 
L 1650 2881 
L 1084 2881 
L 1084 941 
Q 1084 700 1114 631 
Q 1144 563 1211 522 
Q 1278 481 1403 481 
Q 1497 481 1650 503 
z
" transform="scale(0.015625)"/>
       <path id="ArialMT-79" d="M 397 -1278 
L 334 -750 
Q 519 -800 656 -800 
Q 844 -800 956 -737 
Q 1069 -675 1141 -563 
Q 1194 -478 1313 -144 
Q 1328 -97 1363 -6 
L 103 3319 
L 709 3319 
L 1400 1397 
Q 1534 1031 1641 628 
Q 1738 1016 1872 1384 
L 2581 3319 
L 3144 3319 
L 1881 -56 
Q 1678 -603 1566 -809 
Q 1416 -1088 1222 -1217 
Q 1028 -1347 759 -1347 
Q 597 -1347 397 -1278 
z
" transform="scale(0.015625)"/>
       <path id="ArialMT-29" d="M 791 -1347 
L 388 -1347 
Q 1322 153 1322 1656 
Q 1322 2244 1188 2822 
Q 1081 3291 891 3722 
Q 769 4003 388 4659 
L 791 4659 
Q 1378 3875 1659 3084 
Q 1900 2403 1900 1659 
Q 1900 816 1576 28 
Q 1253 -759 791 -1347 
z
" transform="scale(0.015625)"/>
      </defs>
      <use xlink:href="#ArialMT-4d"/>
      <use xlink:href="#ArialMT-6f" x="83.300781"/>
      <use xlink:href="#ArialMT-64" x="138.916016"/>
      <use xlink:href="#ArialMT-65" x="194.53125"/>
      <use xlink:href="#ArialMT-6c" x="250.146484"/>
      <use xlink:href="#ArialMT-20" x="272.363281"/>
      <use xlink:href="#ArialMT-28" x="300.146484"/>
      <use xlink:href="#ArialMT-6c" x="333.447266"/>
      <use xlink:href="#ArialMT-6f" x="355.664062"/>
      <use xlink:href="#ArialMT-77" x="411.279297"/>
      <use xlink:href="#ArialMT-2d" x="483.496094"/>
      <use xlink:href="#ArialMT-66" x="516.796875"/>
      <use xlink:href="#ArialMT-69" x="544.580078"/>
      <use xlink:href="#ArialMT-64" x="566.796875"/>
      <use xlink:href="#ArialMT-65" x="622.412109"/>
      <use xlink:href="#ArialMT-6c" x="678.027344"/>
      <use xlink:href="#ArialMT-69" x="700.244141"/>
      <use xlink:href="#ArialMT-74" x="722.460938"/>
      <use xlink:href="#ArialMT-79" x="750.244141"/>
      <use xlink:href="#ArialMT-29" x="800.244141"/>
     </g>
    </g>
   </g>
   <g id="matplotlib.axis_2">
    <g id="ytick_1">
     <g id="line2d_7">
      <defs>
       <path id="m53e6cd5b7f" d="M 0 0 
L -4.8 0 
" style="stroke: #262626"/>
      </defs>
      <g>
       <use xlink:href="#m53e6cd5b7f" x="40.741" y="172.373593" style="fill: #262626; stroke: #262626"/>
      </g>
     </g>
     <g id="text_8">
      <!-- 0.5 -->
      <g style="fill: #262626" transform="translate(20.209 175.52303) scale(0.088 -0.088)">
       <use xlink:href="#ArialMT-30"/>
       <use xlink:href="#ArialMT-2e" x="55.615234"/>
       <use xlink:href="#ArialMT-35" x="83.398438"/>
      </g>
     </g>
    </g>
    <g id="ytick_2">
     <g id="line2d_8">
      <g>
       <use xlink:href="#m53e6cd5b7f" x="40.741" y="143.921101" style="fill: #262626; stroke: #262626"/>
      </g>
     </g>
     <g id="text_9">
      <!-- 1.0 -->
      <g style="fill: #262626" transform="translate(20.209 147.070539) scale(0.088 -0.088)">
       <use xlink:href="#ArialMT-31"/>
       <use xlink:href="#ArialMT-2e" x="55.615234"/>
       <use xlink:href="#ArialMT-30" x="83.398438"/>
      </g>
     </g>
    </g>
    <g id="ytick_3">
     <g id="line2d_9">
      <g>
       <use xlink:href="#m53e6cd5b7f" x="40.741" y="115.46861" style="fill: #262626; stroke: #262626"/>
      </g>
     </g>
     <g id="text_10">
      <!-- 1.5 -->
      <g style="fill: #262626" transform="translate(20.209 118.618047) scale(0.088 -0.088)">
       <use xlink:href="#ArialMT-31"/>
       <use xlink:href="#ArialMT-2e" x="55.615234"/>
       <use xlink:href="#ArialMT-35" x="83.398438"/>
      </g>
     </g>
    </g>
    <g id="ytick_4">
     <g id="line2d_10">
      <g>
       <use xlink:href="#m53e6cd5b7f" x="40.741" y="87.016118" style="fill: #262626; stroke: #262626"/>
      </g>
     </g>
     <g id="text_11">
      <!-- 2.0 -->
      <g style="fill: #262626" transform="translate(20.209 90.165556) scale(0.088 -0.088)">
       <use xlink:href="#ArialMT-32"/>
       <use xlink:href="#ArialMT-2e" x="55.615234"/>
       <use xlink:href="#ArialMT-30" x="83.398438"/>
      </g>
     </g>
    </g>
    <g id="ytick_5">
     <g id="line2d_11">
      <g>
       <use xlink:href="#m53e6cd5b7f" x="40.741" y="58.563627" style="fill: #262626; stroke: #262626"/>
      </g>
     </g>
     <g id="text_12">
      <!-- 2.5 -->
      <g style="fill: #262626" transform="translate(20.209 61.713064) scale(0.088 -0.088)">
       <use xlink:href="#ArialMT-32"/>
       <use xlink:href="#ArialMT-2e" x="55.615234"/>
       <use xlink:href="#ArialMT-35" x="83.398438"/>
      </g>
     </g>
    </g>
    <g id="ytick_6">
     <g id="line2d_12">
      <g>
       <use xlink:href="#m53e6cd5b7f" x="40.741" y="30.111135" style="fill: #262626; stroke: #262626"/>
      </g>
     </g>
     <g id="text_13">
      <!-- 3.0 -->
      <g style="fill: #262626" transform="translate(20.209 33.260572) scale(0.088 -0.088)">
       <use xlink:href="#ArialMT-33"/>
       <use xlink:href="#ArialMT-2e" x="55.615234"/>
       <use xlink:href="#ArialMT-30" x="83.398438"/>
      </g>
     </g>
    </g>
    <g id="text_14">
     <!-- Surrogate (low-fidelity) -->
     <g style="fill: #262626" transform="translate(14.1885 153.109125) rotate(-90) scale(0.096 -0.096)">
      <defs>
       <path id="ArialMT-53" d="M 288 1472 
L 859 1522 
Q 900 1178 1048 958 
Q 1197 738 1509 602 
Q 1822 466 2213 466 
Q 2559 466 2825 569 
Q 3091 672 3220 851 
Q 3350 1031 3350 1244 
Q 3350 1459 3225 1620 
Q 3100 1781 2813 1891 
Q 2628 1963 1997 2114 
Q 1366 2266 1113 2400 
Q 784 2572 623 2826 
Q 463 3081 463 3397 
Q 463 3744 659 4045 
Q 856 4347 1234 4503 
Q 1613 4659 2075 4659 
Q 2584 4659 2973 4495 
Q 3363 4331 3572 4012 
Q 3781 3694 3797 3291 
L 3216 3247 
Q 3169 3681 2898 3903 
Q 2628 4125 2100 4125 
Q 1550 4125 1298 3923 
Q 1047 3722 1047 3438 
Q 1047 3191 1225 3031 
Q 1400 2872 2139 2705 
Q 2878 2538 3153 2413 
Q 3553 2228 3743 1945 
Q 3934 1663 3934 1294 
Q 3934 928 3725 604 
Q 3516 281 3123 101 
Q 2731 -78 2241 -78 
Q 1619 -78 1198 103 
Q 778 284 539 648 
Q 300 1013 288 1472 
z
" transform="scale(0.015625)"/>
       <path id="ArialMT-75" d="M 2597 0 
L 2597 488 
Q 2209 -75 1544 -75 
Q 1250 -75 995 37 
Q 741 150 617 320 
Q 494 491 444 738 
Q 409 903 409 1263 
L 409 3319 
L 972 3319 
L 972 1478 
Q 972 1038 1006 884 
Q 1059 663 1231 536 
Q 1403 409 1656 409 
Q 1909 409 2131 539 
Q 2353 669 2445 892 
Q 2538 1116 2538 1541 
L 2538 3319 
L 3100 3319 
L 3100 0 
L 2597 0 
z
" transform="scale(0.015625)"/>
       <path id="ArialMT-72" d="M 416 0 
L 416 3319 
L 922 3319 
L 922 2816 
Q 1116 3169 1280 3281 
Q 1444 3394 1641 3394 
Q 1925 3394 2219 3213 
L 2025 2691 
Q 1819 2813 1613 2813 
Q 1428 2813 1281 2702 
Q 1134 2591 1072 2394 
Q 978 2094 978 1738 
L 978 0 
L 416 0 
z
" transform="scale(0.015625)"/>
       <path id="ArialMT-67" d="M 319 -275 
L 866 -356 
Q 900 -609 1056 -725 
Q 1266 -881 1628 -881 
Q 2019 -881 2231 -725 
Q 2444 -569 2519 -288 
Q 2563 -116 2559 434 
Q 2191 0 1641 0 
Q 956 0 581 494 
Q 206 988 206 1678 
Q 206 2153 378 2554 
Q 550 2956 876 3175 
Q 1203 3394 1644 3394 
Q 2231 3394 2613 2919 
L 2613 3319 
L 3131 3319 
L 3131 450 
Q 3131 -325 2973 -648 
Q 2816 -972 2473 -1159 
Q 2131 -1347 1631 -1347 
Q 1038 -1347 672 -1080 
Q 306 -813 319 -275 
z
M 784 1719 
Q 784 1066 1043 766 
Q 1303 466 1694 466 
Q 2081 466 2343 764 
Q 2606 1063 2606 1700 
Q 2606 2309 2336 2618 
Q 2066 2928 1684 2928 
Q 1309 2928 1046 2623 
Q 784 2319 784 1719 
z
" transform="scale(0.015625)"/>
       <path id="ArialMT-61" d="M 2588 409 
Q 2275 144 1986 34 
Q 1697 -75 1366 -75 
Q 819 -75 525 192 
Q 231 459 231 875 
Q 231 1119 342 1320 
Q 453 1522 633 1644 
Q 813 1766 1038 1828 
Q 1203 1872 1538 1913 
Q 2219 1994 2541 2106 
Q 2544 2222 2544 2253 
Q 2544 2597 2384 2738 
Q 2169 2928 1744 2928 
Q 1347 2928 1158 2789 
Q 969 2650 878 2297 
L 328 2372 
Q 403 2725 575 2942 
Q 747 3159 1072 3276 
Q 1397 3394 1825 3394 
Q 2250 3394 2515 3294 
Q 2781 3194 2906 3042 
Q 3031 2891 3081 2659 
Q 3109 2516 3109 2141 
L 3109 1391 
Q 3109 606 3145 398 
Q 3181 191 3288 0 
L 2700 0 
Q 2613 175 2588 409 
z
M 2541 1666 
Q 2234 1541 1622 1453 
Q 1275 1403 1131 1340 
Q 988 1278 909 1158 
Q 831 1038 831 891 
Q 831 666 1001 516 
Q 1172 366 1500 366 
Q 1825 366 2078 508 
Q 2331 650 2450 897 
Q 2541 1088 2541 1459 
L 2541 1666 
z
" transform="scale(0.015625)"/>
      </defs>
      <use xlink:href="#ArialMT-53"/>
      <use xlink:href="#ArialMT-75" x="66.699219"/>
      <use xlink:href="#ArialMT-72" x="122.314453"/>
      <use xlink:href="#ArialMT-72" x="155.615234"/>
      <use xlink:href="#ArialMT-6f" x="188.916016"/>
      <use xlink:href="#ArialMT-67" x="244.53125"/>
      <use xlink:href="#ArialMT-61" x="300.146484"/>
      <use xlink:href="#ArialMT-74" x="355.761719"/>
      <use xlink:href="#ArialMT-65" x="383.544922"/>
      <use xlink:href="#ArialMT-20" x="439.160156"/>
      <use xlink:href="#ArialMT-28" x="466.943359"/>
      <use xlink:href="#ArialMT-6c" x="500.244141"/>
      <use xlink:href="#ArialMT-6f" x="522.460938"/>
      <use xlink:href="#ArialMT-77" x="578.076172"/>
      <use xlink:href="#ArialMT-2d" x="650.292969"/>
      <use xlink:href="#ArialMT-66" x="683.59375"/>
      <use xlink:href="#ArialMT-69" x="711.376953"/>
      <use xlink:href="#ArialMT-64" x="733.59375"/>
      <use xlink:href="#ArialMT-65" x="789.208984"/>
      <use xlink:href="#ArialMT-6c" x="844.824219"/>
      <use xlink:href="#ArialMT-69" x="867.041016"/>
      <use xlink:href="#ArialMT-74" x="889.257812"/>
      <use xlink:href="#ArialMT-79" x="917.041016"/>
      <use xlink:href="#ArialMT-29" x="967.041016"/>
     </g>
    </g>
   </g>
   <g id="LineCollection_1">
    <path d="M 112.800661 134.318034 
L 112.800661 133.965986 
" clip-path="url(#p7ef61c70ca)" style="fill: none; stroke: #1f77b4; stroke-width: 1.2"/>
    <path d="M 116.999826 131.641694 
L 116.999826 130.217497 
" clip-path="url(#p7ef61c70ca)" style="fill: none; stroke: #1f77b4; stroke-width: 1.2"/>
    <path d="M 228.625378 48.504423 
L 228.625378 48.108163 
" clip-path="url(#p7ef61c70ca)" style="fill: none; stroke: #1f77b4; stroke-width: 1.2"/>
    <path d="M 100.493974 143.431644 
L 100.493974 142.849346 
" clip-path="url(#p7ef61c70ca)" style="fill: none; stroke: #1f77b4; stroke-width: 1.2"/>
    <path d="M 70.883299 165.662134 
L 70.883299 164.723491 
" clip-path="url(#p7ef61c70ca)" style="fill: none; stroke: #1f77b4; stroke-width: 1.2"/>
    <path d="M 89.226501 151.734734 
L 89.226501 151.432564 
" clip-path="url(#p7ef61c70ca)" style="fill: none; stroke: #1f77b4; stroke-width: 1.2"/>
    <path d="M 119.042313 129.660522 
L 119.042313 129.369392 
" clip-path="url(#p7ef61c70ca)" style="fill: none; stroke: #1f77b4; stroke-width: 1.2"/>
    <path d="M 111.874197 135.424733 
L 111.874197 134.28386 
" clip-path="url(#p7ef61c70ca)" style="fill: none; stroke: #1f77b4; stroke-width: 1.2"/>
    <path d="M 162.75267 97.276454 
L 162.75267 96.96599 
" clip-path="url(#p7ef61c70ca)" style="fill: none; stroke: #1f77b4; stroke-width: 1.2"/>
    <path d="M 238.830833 40.917318 
L 238.830833 40.601977 
" clip-path="url(#p7ef61c70ca)" style="fill: none; stroke: #1f77b4; stroke-width: 1.2"/>
    <path d="M 232.101426 45.987003 
L 232.101426 45.629779 
" clip-path="url(#p7ef61c70ca)" style="fill: none; stroke: #1f77b4; stroke-width: 1.2"/>
    <path d="M 163.606091 96.841835 
L 163.606091 96.182082 
" clip-path="url(#p7ef61c70ca)" style="fill: none; stroke: #1f77b4; stroke-width: 1.2"/>
    <path d="M 125.645607 124.771232 
L 125.645607 124.436501 
" clip-path="url(#p7ef61c70ca)" style="fill: none; stroke: #1f77b4; stroke-width: 1.2"/>
    <path d="M 88.234603 152.829271 
L 88.234603 151.911125 
" clip-path="url(#p7ef61c70ca)" style="fill: none; stroke: #1f77b4; stroke-width: 1.2"/>
    <path d="M 253.492366 30.214595 
L 253.492366 29.657832 
" clip-path="url(#p7ef61c70ca)" style="fill: none; stroke: #1f77b4; stroke-width: 1.2"/>
    <path d="M 51.287844 180.393279 
L 51.287844 179.170471 
" clip-path="url(#p7ef61c70ca)" style="fill: none; stroke: #1f77b4; stroke-width: 1.2"/>
    <path d="M 77.783852 160.604022 
L 77.783852 159.579273 
" clip-path="url(#p7ef61c70ca)" style="fill: none; stroke: #1f77b4; stroke-width: 1.2"/>
    <path d="M 202.7746 67.695672 
L 202.7746 67.137569 
" clip-path="url(#p7ef61c70ca)" style="fill: none; stroke: #1f77b4; stroke-width: 1.2"/>
    <path d="M 229.866981 47.619908 
L 229.866981 47.288431 
" clip-path="url(#p7ef61c70ca)" style="fill: none; stroke: #1f77b4; stroke-width: 1.2"/>
    <path d="M 218.320952 56.142391 
L 218.320952 55.804941 
" clip-path="url(#p7ef61c70ca)" style="fill: none; stroke: #1f77b4; stroke-width: 1.2"/>
    <path d="M 250.755076 32.165892 
L 250.755076 31.812418 
" clip-path="url(#p7ef61c70ca)" style="fill: none; stroke: #1f77b4; stroke-width: 1.2"/>
    <path d="M 251.232901 31.904362 
L 251.232901 31.317958 
" clip-path="url(#p7ef61c70ca)" style="fill: none; stroke: #1f77b4; stroke-width: 1.2"/>
    <path d="M 253.795545 29.855791 
L 253.795545 29.517786 
" clip-path="url(#p7ef61c70ca)" style="fill: none; stroke: #1f77b4; stroke-width: 1.2"/>
    <path d="M 125.285653 125.546252 
L 125.285653 124.534319 
" clip-path="url(#p7ef61c70ca)" style="fill: none; stroke: #1f77b4; stroke-width: 1.2"/>
    <path d="M 101.65525 142.541344 
L 101.65525 142.25926 
" clip-path="url(#p7ef61c70ca)" style="fill: none; stroke: #1f77b4; stroke-width: 1.2"/>
    <path d="M 168.558202 93.010657 
L 168.558202 92.691299 
" clip-path="url(#p7ef61c70ca)" style="fill: none; stroke: #1f77b4; stroke-width: 1.2"/>
    <path d="M 127.384583 123.961816 
L 127.384583 122.453362 
" clip-path="url(#p7ef61c70ca)" style="fill: none; stroke: #1f77b4; stroke-width: 1.2"/>
    <path d="M 136.475343 116.848827 
L 136.475343 116.440307 
" clip-path="url(#p7ef61c70ca)" style="fill: none; stroke: #1f77b4; stroke-width: 1.2"/>
    <path d="M 244.485565 36.758196 
L 244.485565 36.441478 
" clip-path="url(#p7ef61c70ca)" style="fill: none; stroke: #1f77b4; stroke-width: 1.2"/>
    <path d="M 199.16694 70.555878 
L 199.16694 69.981082 
" clip-path="url(#p7ef61c70ca)" style="fill: none; stroke: #1f77b4; stroke-width: 1.2"/>
    <path d="M 111.090743 135.576481 
L 111.090743 135.093337 
" clip-path="url(#p7ef61c70ca)" style="fill: none; stroke: #1f77b4; stroke-width: 1.2"/>
    <path d="M 145.177104 110.310776 
L 145.177104 110.020746 
" clip-path="url(#p7ef61c70ca)" style="fill: none; stroke: #1f77b4; stroke-width: 1.2"/>
    <path d="M 50.886455 180.695625 
L 50.886455 179.504766 
" clip-path="url(#p7ef61c70ca)" style="fill: none; stroke: #1f77b4; stroke-width: 1.2"/>
    <path d="M 112.951322 134.29236 
L 112.951322 133.829062 
" clip-path="url(#p7ef61c70ca)" style="fill: none; stroke: #1f77b4; stroke-width: 1.2"/>
    <path d="M 94.031222 148.40739 
L 94.031222 147.595112 
" clip-path="url(#p7ef61c70ca)" style="fill: none; stroke: #1f77b4; stroke-width: 1.2"/>
    <path d="M 150.197562 106.607322 
L 150.197562 106.211242 
" clip-path="url(#p7ef61c70ca)" style="fill: none; stroke: #1f77b4; stroke-width: 1.2"/>
    <path d="M 229.826284 48.238686 
L 229.826284 46.868131 
" clip-path="url(#p7ef61c70ca)" style="fill: none; stroke: #1f77b4; stroke-width: 1.2"/>
    <path d="M 171.647281 90.739338 
L 171.647281 90.357913 
" clip-path="url(#p7ef61c70ca)" style="fill: none; stroke: #1f77b4; stroke-width: 1.2"/>
    <path d="M 171.980103 90.506779 
L 171.980103 90.166536 
" clip-path="url(#p7ef61c70ca)" style="fill: none; stroke: #1f77b4; stroke-width: 1.2"/>
    <path d="M 143.860484 111.285991 
L 143.860484 110.997688 
" clip-path="url(#p7ef61c70ca)" style="fill: none; stroke: #1f77b4; stroke-width: 1.2"/>
    <path d="M 242.225571 38.402347 
L 242.225571 38.082542 
" clip-path="url(#p7ef61c70ca)" style="fill: none; stroke: #1f77b4; stroke-width: 1.2"/>
    <path d="M 129.301367 122.067786 
L 129.301367 121.75191 
" clip-path="url(#p7ef61c70ca)" style="fill: none; stroke: #1f77b4; stroke-width: 1.2"/>
    <path d="M 114.07934 133.547636 
L 114.07934 132.949102 
" clip-path="url(#p7ef61c70ca)" style="fill: none; stroke: #1f77b4; stroke-width: 1.2"/>
    <path d="M 209.026943 63.022274 
L 209.026943 62.717317 
" clip-path="url(#p7ef61c70ca)" style="fill: none; stroke: #1f77b4; stroke-width: 1.2"/>
    <path d="M 173.914789 89.12716 
L 173.914789 88.694813 
" clip-path="url(#p7ef61c70ca)" style="fill: none; stroke: #1f77b4; stroke-width: 1.2"/>
    <path d="M 251.808928 31.431829 
L 251.808928 30.63924 
" clip-path="url(#p7ef61c70ca)" style="fill: none; stroke: #1f77b4; stroke-width: 1.2"/>
    <path d="M 181.144001 83.782956 
L 181.144001 83.302181 
" clip-path="url(#p7ef61c70ca)" style="fill: none; stroke: #1f77b4; stroke-width: 1.2"/>
    <path d="M 248.896022 33.51076 
L 248.896022 33.1464 
" clip-path="url(#p7ef61c70ca)" style="fill: none; stroke: #1f77b4; stroke-width: 1.2"/>
    <path d="M 89.630683 151.567697 
L 89.630683 151.031927 
" clip-path="url(#p7ef61c70ca)" style="fill: none; stroke: #1f77b4; stroke-width: 1.2"/>
    <path d="M 248.799001 33.83935 
L 248.799001 32.254675 
" clip-path="url(#p7ef61c70ca)" style="fill: none; stroke: #1f77b4; stroke-width: 1.2"/>
    <path d="M 128.154676 123.090769 
L 128.154676 122.617102 
" clip-path="url(#p7ef61c70ca)" style="fill: none; stroke: #1f77b4; stroke-width: 1.2"/>
    <path d="M 202.025772 68.24976 
L 202.025772 67.883859 
" clip-path="url(#p7ef61c70ca)" style="fill: none; stroke: #1f77b4; stroke-width: 1.2"/>
    <path d="M 230.665044 47.221256 
L 230.665044 46.549001 
" clip-path="url(#p7ef61c70ca)" style="fill: none; stroke: #1f77b4; stroke-width: 1.2"/>
    <path d="M 74.62992 162.872013 
L 74.62992 161.965552 
" clip-path="url(#p7ef61c70ca)" style="fill: none; stroke: #1f77b4; stroke-width: 1.2"/>
    <path d="M 246.222972 35.7336 
L 246.222972 34.168786 
" clip-path="url(#p7ef61c70ca)" style="fill: none; stroke: #1f77b4; stroke-width: 1.2"/>
    <path d="M 159.672022 103.977476 
L 159.672022 91.924434 
" clip-path="url(#p7ef61c70ca)" style="fill: none; stroke: #1f77b4; stroke-width: 1.2"/>
    <path d="M 251.47903 31.619188 
L 251.47903 31.231748 
" clip-path="url(#p7ef61c70ca)" style="fill: none; stroke: #1f77b4; stroke-width: 1.2"/>
    <path d="M 225.691259 50.703255 
L 225.691259 50.284508 
" clip-path="url(#p7ef61c70ca)" style="fill: none; stroke: #1f77b4; stroke-width: 1.2"/>
    <path d="M 67.550886 167.820944 
L 67.550886 167.515753 
" clip-path="url(#p7ef61c70ca)" style="fill: none; stroke: #1f77b4; stroke-width: 1.2"/>
    <path d="M 134.750032 118.086795 
L 134.750032 117.70591 
" clip-path="url(#p7ef61c70ca)" style="fill: none; stroke: #1f77b4; stroke-width: 1.2"/>
    <path d="M 52.395171 179.437899 
L 52.395171 178.401706 
" clip-path="url(#p7ef61c70ca)" style="fill: none; stroke: #1f77b4; stroke-width: 1.2"/>
    <path d="M 157.342748 101.299359 
L 157.342748 100.925498 
" clip-path="url(#p7ef61c70ca)" style="fill: none; stroke: #1f77b4; stroke-width: 1.2"/>
    <path d="M 153.019116 104.556309 
L 153.019116 104.072335 
" clip-path="url(#p7ef61c70ca)" style="fill: none; stroke: #1f77b4; stroke-width: 1.2"/>
    <path d="M 127.546559 123.360784 
L 127.546559 123.022038 
" clip-path="url(#p7ef61c70ca)" style="fill: none; stroke: #1f77b4; stroke-width: 1.2"/>
    <path d="M 249.020909 33.421985 
L 249.020909 33.087764 
" clip-path="url(#p7ef61c70ca)" style="fill: none; stroke: #1f77b4; stroke-width: 1.2"/>
    <path d="M 252.473147 30.896051 
L 252.473147 30.487007 
" clip-path="url(#p7ef61c70ca)" style="fill: none; stroke: #1f77b4; stroke-width: 1.2"/>
    <path d="M 190.81486 79.11355 
L 190.81486 73.038899 
" clip-path="url(#p7ef61c70ca)" style="fill: none; stroke: #1f77b4; stroke-width: 1.2"/>
    <path d="M 245.613214 36.336975 
L 245.613214 34.336918 
" clip-path="url(#p7ef61c70ca)" style="fill: none; stroke: #1f77b4; stroke-width: 1.2"/>
    <path d="M 56.461095 176.886683 
L 56.461095 174.953474 
" clip-path="url(#p7ef61c70ca)" style="fill: none; stroke: #1f77b4; stroke-width: 1.2"/>
    <path d="M 57.322746 176.238212 
L 57.322746 174.325671 
" clip-path="url(#p7ef61c70ca)" style="fill: none; stroke: #1f77b4; stroke-width: 1.2"/>
    <path d="M 115.511718 132.859152 
L 115.511718 130.488565 
" clip-path="url(#p7ef61c70ca)" style="fill: none; stroke: #1f77b4; stroke-width: 1.2"/>
    <path d="M 147.418378 108.672232 
L 147.418378 108.349644 
" clip-path="url(#p7ef61c70ca)" style="fill: none; stroke: #1f77b4; stroke-width: 1.2"/>
    <path d="M 153.865405 104.567292 
L 153.865405 103.527999 
" clip-path="url(#p7ef61c70ca)" style="fill: none; stroke: #1f77b4; stroke-width: 1.2"/>
    <path d="M 233.506012 45.008712 
L 233.506012 44.468624 
" clip-path="url(#p7ef61c70ca)" style="fill: none; stroke: #1f77b4; stroke-width: 1.2"/>
    <path d="M 251.826864 31.856845 
L 251.826864 29.495625 
" clip-path="url(#p7ef61c70ca)" style="fill: none; stroke: #1f77b4; stroke-width: 1.2"/>
    <path d="M 109.233997 136.919174 
L 109.233997 136.620286 
" clip-path="url(#p7ef61c70ca)" style="fill: none; stroke: #1f77b4; stroke-width: 1.2"/>
    <path d="M 251.667243 31.411327 
L 251.667243 31.11412 
" clip-path="url(#p7ef61c70ca)" style="fill: none; stroke: #1f77b4; stroke-width: 1.2"/>
    <path d="M 111.144316 135.520698 
L 111.144316 135.192598 
" clip-path="url(#p7ef61c70ca)" style="fill: none; stroke: #1f77b4; stroke-width: 1.2"/>
    <path d="M 142.571619 112.238341 
L 142.571619 111.945144 
" clip-path="url(#p7ef61c70ca)" style="fill: none; stroke: #1f77b4; stroke-width: 1.2"/>
    <path d="M 113.994208 133.868355 
L 113.994208 132.697208 
" clip-path="url(#p7ef61c70ca)" style="fill: none; stroke: #1f77b4; stroke-width: 1.2"/>
    <path d="M 222.213778 53.211645 
L 222.213778 52.826311 
" clip-path="url(#p7ef61c70ca)" style="fill: none; stroke: #1f77b4; stroke-width: 1.2"/>
    <path d="M 119.146127 130.005169 
L 119.146127 128.962253 
" clip-path="url(#p7ef61c70ca)" style="fill: none; stroke: #1f77b4; stroke-width: 1.2"/>
    <path d="M 136.556973 116.752922 
L 136.556973 116.37724 
" clip-path="url(#p7ef61c70ca)" style="fill: none; stroke: #1f77b4; stroke-width: 1.2"/>
    <path d="M 107.79739 138.409012 
L 107.79739 137.260113 
" clip-path="url(#p7ef61c70ca)" style="fill: none; stroke: #1f77b4; stroke-width: 1.2"/>
    <path d="M 177.906376 86.106533 
L 177.906376 85.679613 
" clip-path="url(#p7ef61c70ca)" style="fill: none; stroke: #1f77b4; stroke-width: 1.2"/>
    <path d="M 165.581547 95.217795 
L 165.581547 94.803206 
" clip-path="url(#p7ef61c70ca)" style="fill: none; stroke: #1f77b4; stroke-width: 1.2"/>
    <path d="M 108.665682 137.819966 
L 108.665682 136.594119 
" clip-path="url(#p7ef61c70ca)" style="fill: none; stroke: #1f77b4; stroke-width: 1.2"/>
    <path d="M 162.830418 97.811716 
L 162.830418 96.930629 
" clip-path="url(#p7ef61c70ca)" style="fill: none; stroke: #1f77b4; stroke-width: 1.2"/>
    <path d="M 104.128535 140.842325 
L 104.128535 140.353916 
" clip-path="url(#p7ef61c70ca)" style="fill: none; stroke: #1f77b4; stroke-width: 1.2"/>
    <path d="M 145.515762 111.558503 
L 145.515762 109.656464 
" clip-path="url(#p7ef61c70ca)" style="fill: none; stroke: #1f77b4; stroke-width: 1.2"/>
    <path d="M 99.977937 143.828209 
L 99.977937 143.482058 
" clip-path="url(#p7ef61c70ca)" style="fill: none; stroke: #1f77b4; stroke-width: 1.2"/>
    <path d="M 126.114681 125.45862 
L 126.114681 122.517562 
" clip-path="url(#p7ef61c70ca)" style="fill: none; stroke: #1f77b4; stroke-width: 1.2"/>
    <path d="M 99.270852 144.623882 
L 99.270852 143.668849 
" clip-path="url(#p7ef61c70ca)" style="fill: none; stroke: #1f77b4; stroke-width: 1.2"/>
    <path d="M 109.787199 136.655558 
L 109.787199 135.987317 
" clip-path="url(#p7ef61c70ca)" style="fill: none; stroke: #1f77b4; stroke-width: 1.2"/>
    <path d="M 105.698999 140.660333 
L 105.698999 137.773521 
" clip-path="url(#p7ef61c70ca)" style="fill: none; stroke: #1f77b4; stroke-width: 1.2"/>
    <path d="M 151.898241 106.096804 
L 151.898241 104.982178 
" clip-path="url(#p7ef61c70ca)" style="fill: none; stroke: #1f77b4; stroke-width: 1.2"/>
    <path d="M 109.030409 137.669454 
L 109.030409 136.224278 
" clip-path="url(#p7ef61c70ca)" style="fill: none; stroke: #1f77b4; stroke-width: 1.2"/>
    <path d="M 101.466193 142.683581 
L 101.466193 142.398282 
" clip-path="url(#p7ef61c70ca)" style="fill: none; stroke: #1f77b4; stroke-width: 1.2"/>
    <path d="M 237.886784 41.910872 
L 237.886784 40.374216 
" clip-path="url(#p7ef61c70ca)" style="fill: none; stroke: #1f77b4; stroke-width: 1.2"/>
    <path d="M 246.291794 35.481315 
L 246.291794 35.100201 
" clip-path="url(#p7ef61c70ca)" style="fill: none; stroke: #1f77b4; stroke-width: 1.2"/>
   </g>
   <g id="line2d_13">
    <path d="M 112.800661 134.139388 
L 116.999826 131.028683 
L 228.625378 48.337435 
L 100.493974 143.256075 
L 70.883299 165.191408 
L 89.226501 151.602922 
L 119.042313 129.515626 
L 111.874197 134.825704 
L 162.75267 97.135369 
L 238.830833 40.777321 
L 232.101426 45.762408 
L 163.606091 96.503162 
L 125.645607 124.623962 
L 88.234603 152.337712 
L 253.492366 29.916184 
L 51.287844 179.707553 
L 77.783852 160.079538 
L 202.7746 67.487468 
L 229.866981 47.417666 
L 218.320952 55.970864 
L 250.755076 31.943945 
L 251.232901 31.589976 
L 253.795545 29.691591 
L 125.285653 124.890613 
L 101.65525 142.395812 
L 168.558202 92.834681 
L 127.384583 123.335744 
L 136.475343 116.601387 
L 244.485565 36.588344 
L 199.16694 70.159991 
L 111.090743 135.40608 
L 145.177104 110.155197 
L 50.886455 180.004899 
L 112.951322 134.027779 
L 94.031222 148.043626 
L 150.197562 106.436085 
L 229.826284 47.447814 
L 171.647281 90.546318 
L 171.980103 90.299766 
L 143.860484 111.130538 
L 242.225571 38.262528 
L 129.301367 121.915806 
L 114.07934 133.192153 
L 209.026943 62.855786 
L 173.914789 88.866567 
L 251.808928 31.16326 
L 181.144001 83.51123 
L 248.896022 33.321116 
L 89.630683 151.303508 
L 248.799001 33.392988 
L 128.154676 122.765266 
L 202.025772 68.042194 
L 230.665044 46.826467 
L 74.62992 162.415944 
L 246.222972 35.301288 
L 159.672022 99.417487 
L 251.47903 31.407645 
L 225.691259 50.511004 
L 67.550886 167.660031 
L 134.750032 117.879482 
L 52.395171 178.887255 
L 157.342748 101.142993 
L 153.019116 104.345902 
L 127.546559 123.215753 
L 249.020909 33.228601 
L 252.473147 30.671212 
L 190.81486 76.347141 
L 245.613214 35.752992 
L 56.461095 175.875253 
L 57.322746 175.23695 
L 115.511718 132.13106 
L 147.418378 108.494881 
L 153.865405 103.718979 
L 233.506012 44.721903 
L 251.826864 31.149973 
L 109.233997 136.781542 
L 251.667243 31.268219 
L 111.144316 135.366394 
L 142.571619 112.085318 
L 113.994208 133.255218 
L 222.213778 53.087092 
L 119.146127 129.438721 
L 136.556973 116.540916 
L 107.79739 137.845768 
L 177.906376 85.909634 
L 165.581547 95.039762 
L 108.665682 137.202545 
L 162.830418 97.077774 
L 104.128535 140.563624 
L 145.515762 109.904322 
L 99.977937 143.638351 
L 126.114681 124.276477 
L 99.270852 144.162153 
L 109.787199 136.371734 
L 105.698999 139.400238 
L 151.898241 105.176237 
L 109.030409 136.932358 
L 101.466193 142.535864 
L 237.886784 41.476665 
L 246.291794 35.250305 
" clip-path="url(#p7ef61c70ca)" style="fill: none; stroke-dasharray: 4.44,1.92; stroke-dashoffset: 0; stroke: #000000; stroke-width: 1.2"/>
   </g>
   <g id="line2d_14">
    <defs>
     <path id="m0fe7810b8b" d="M 0 2.4 
C 0.636487 2.4 1.246992 2.147121 1.697056 1.697056 
C 2.147121 1.246992 2.4 0.636487 2.4 0 
C 2.4 -0.636487 2.147121 -1.246992 1.697056 -1.697056 
C 1.246992 -2.147121 0.636487 -2.4 0 -2.4 
C -0.636487 -2.4 -1.246992 -2.147121 -1.697056 -1.697056 
C -2.147121 -1.246992 -2.4 -0.636487 -2.4 0 
C -2.4 0.636487 -2.147121 1.246992 -1.697056 1.697056 
C -1.246992 2.147121 -0.636487 2.4 0 2.4 
z
" style="stroke: #1f77b4"/>
    </defs>
    <g clip-path="url(#p7ef61c70ca)">
     <use xlink:href="#m0fe7810b8b" x="112.800661" y="134.14201" style="fill: #1f77b4; stroke: #1f77b4"/>
     <use xlink:href="#m0fe7810b8b" x="116.999826" y="130.929596" style="fill: #1f77b4; stroke: #1f77b4"/>
     <use xlink:href="#m0fe7810b8b" x="228.625378" y="48.306293" style="fill: #1f77b4; stroke: #1f77b4"/>
     <use xlink:href="#m0fe7810b8b" x="100.493974" y="143.140495" style="fill: #1f77b4; stroke: #1f77b4"/>
     <use xlink:href="#m0fe7810b8b" x="70.883299" y="165.192813" style="fill: #1f77b4; stroke: #1f77b4"/>
     <use xlink:href="#m0fe7810b8b" x="89.226501" y="151.583649" style="fill: #1f77b4; stroke: #1f77b4"/>
     <use xlink:href="#m0fe7810b8b" x="119.042313" y="129.514957" style="fill: #1f77b4; stroke: #1f77b4"/>
     <use xlink:href="#m0fe7810b8b" x="111.874197" y="134.854297" style="fill: #1f77b4; stroke: #1f77b4"/>
     <use xlink:href="#m0fe7810b8b" x="162.75267" y="97.121222" style="fill: #1f77b4; stroke: #1f77b4"/>
     <use xlink:href="#m0fe7810b8b" x="238.830833" y="40.759648" style="fill: #1f77b4; stroke: #1f77b4"/>
     <use xlink:href="#m0fe7810b8b" x="232.101426" y="45.808391" style="fill: #1f77b4; stroke: #1f77b4"/>
     <use xlink:href="#m0fe7810b8b" x="163.606091" y="96.511959" style="fill: #1f77b4; stroke: #1f77b4"/>
     <use xlink:href="#m0fe7810b8b" x="125.645607" y="124.603867" style="fill: #1f77b4; stroke: #1f77b4"/>
     <use xlink:href="#m0fe7810b8b" x="88.234603" y="152.370198" style="fill: #1f77b4; stroke: #1f77b4"/>
     <use xlink:href="#m0fe7810b8b" x="253.492366" y="29.936213" style="fill: #1f77b4; stroke: #1f77b4"/>
     <use xlink:href="#m0fe7810b8b" x="51.287844" y="179.781875" style="fill: #1f77b4; stroke: #1f77b4"/>
     <use xlink:href="#m0fe7810b8b" x="77.783852" y="160.091648" style="fill: #1f77b4; stroke: #1f77b4"/>
     <use xlink:href="#m0fe7810b8b" x="202.7746" y="67.416621" style="fill: #1f77b4; stroke: #1f77b4"/>
     <use xlink:href="#m0fe7810b8b" x="229.866981" y="47.45417" style="fill: #1f77b4; stroke: #1f77b4"/>
     <use xlink:href="#m0fe7810b8b" x="218.320952" y="55.973666" style="fill: #1f77b4; stroke: #1f77b4"/>
     <use xlink:href="#m0fe7810b8b" x="250.755076" y="31.989155" style="fill: #1f77b4; stroke: #1f77b4"/>
     <use xlink:href="#m0fe7810b8b" x="251.232901" y="31.61116" style="fill: #1f77b4; stroke: #1f77b4"/>
     <use xlink:href="#m0fe7810b8b" x="253.795545" y="29.686789" style="fill: #1f77b4; stroke: #1f77b4"/>
     <use xlink:href="#m0fe7810b8b" x="125.285653" y="125.040285" style="fill: #1f77b4; stroke: #1f77b4"/>
     <use xlink:href="#m0fe7810b8b" x="101.65525" y="142.400302" style="fill: #1f77b4; stroke: #1f77b4"/>
     <use xlink:href="#m0fe7810b8b" x="168.558202" y="92.850978" style="fill: #1f77b4; stroke: #1f77b4"/>
     <use xlink:href="#m0fe7810b8b" x="127.384583" y="123.207589" style="fill: #1f77b4; stroke: #1f77b4"/>
     <use xlink:href="#m0fe7810b8b" x="136.475343" y="116.644567" style="fill: #1f77b4; stroke: #1f77b4"/>
     <use xlink:href="#m0fe7810b8b" x="244.485565" y="36.599837" style="fill: #1f77b4; stroke: #1f77b4"/>
     <use xlink:href="#m0fe7810b8b" x="199.16694" y="70.26848" style="fill: #1f77b4; stroke: #1f77b4"/>
     <use xlink:href="#m0fe7810b8b" x="111.090743" y="135.334909" style="fill: #1f77b4; stroke: #1f77b4"/>
     <use xlink:href="#m0fe7810b8b" x="145.177104" y="110.165761" style="fill: #1f77b4; stroke: #1f77b4"/>
     <use xlink:href="#m0fe7810b8b" x="50.886455" y="180.100196" style="fill: #1f77b4; stroke: #1f77b4"/>
     <use xlink:href="#m0fe7810b8b" x="112.951322" y="134.060711" style="fill: #1f77b4; stroke: #1f77b4"/>
     <use xlink:href="#m0fe7810b8b" x="94.031222" y="148.001251" style="fill: #1f77b4; stroke: #1f77b4"/>
     <use xlink:href="#m0fe7810b8b" x="150.197562" y="106.409282" style="fill: #1f77b4; stroke: #1f77b4"/>
     <use xlink:href="#m0fe7810b8b" x="229.826284" y="47.553408" style="fill: #1f77b4; stroke: #1f77b4"/>
     <use xlink:href="#m0fe7810b8b" x="171.647281" y="90.548626" style="fill: #1f77b4; stroke: #1f77b4"/>
     <use xlink:href="#m0fe7810b8b" x="171.980103" y="90.336658" style="fill: #1f77b4; stroke: #1f77b4"/>
     <use xlink:href="#m0fe7810b8b" x="143.860484" y="111.141839" style="fill: #1f77b4; stroke: #1f77b4"/>
     <use xlink:href="#m0fe7810b8b" x="242.225571" y="38.242444" style="fill: #1f77b4; stroke: #1f77b4"/>
     <use xlink:href="#m0fe7810b8b" x="129.301367" y="121.909848" style="fill: #1f77b4; stroke: #1f77b4"/>
     <use xlink:href="#m0fe7810b8b" x="114.07934" y="133.248369" style="fill: #1f77b4; stroke: #1f77b4"/>
     <use xlink:href="#m0fe7810b8b" x="209.026943" y="62.869796" style="fill: #1f77b4; stroke: #1f77b4"/>
     <use xlink:href="#m0fe7810b8b" x="173.914789" y="88.910987" style="fill: #1f77b4; stroke: #1f77b4"/>
     <use xlink:href="#m0fe7810b8b" x="251.808928" y="31.035535" style="fill: #1f77b4; stroke: #1f77b4"/>
     <use xlink:href="#m0fe7810b8b" x="181.144001" y="83.542568" style="fill: #1f77b4; stroke: #1f77b4"/>
     <use xlink:href="#m0fe7810b8b" x="248.896022" y="33.32858" style="fill: #1f77b4; stroke: #1f77b4"/>
     <use xlink:href="#m0fe7810b8b" x="89.630683" y="151.299812" style="fill: #1f77b4; stroke: #1f77b4"/>
     <use xlink:href="#m0fe7810b8b" x="248.799001" y="33.047012" style="fill: #1f77b4; stroke: #1f77b4"/>
     <use xlink:href="#m0fe7810b8b" x="128.154676" y="122.853936" style="fill: #1f77b4; stroke: #1f77b4"/>
     <use xlink:href="#m0fe7810b8b" x="202.025772" y="68.066809" style="fill: #1f77b4; stroke: #1f77b4"/>
     <use xlink:href="#m0fe7810b8b" x="230.665044" y="46.885128" style="fill: #1f77b4; stroke: #1f77b4"/>
     <use xlink:href="#m0fe7810b8b" x="74.62992" y="162.418782" style="fill: #1f77b4; stroke: #1f77b4"/>
     <use xlink:href="#m0fe7810b8b" x="246.222972" y="34.951193" style="fill: #1f77b4; stroke: #1f77b4"/>
     <use xlink:href="#m0fe7810b8b" x="159.672022" y="97.950955" style="fill: #1f77b4; stroke: #1f77b4"/>
     <use xlink:href="#m0fe7810b8b" x="251.47903" y="31.425468" style="fill: #1f77b4; stroke: #1f77b4"/>
     <use xlink:href="#m0fe7810b8b" x="225.691259" y="50.493882" style="fill: #1f77b4; stroke: #1f77b4"/>
     <use xlink:href="#m0fe7810b8b" x="67.550886" y="167.668348" style="fill: #1f77b4; stroke: #1f77b4"/>
     <use xlink:href="#m0fe7810b8b" x="134.750032" y="117.896353" style="fill: #1f77b4; stroke: #1f77b4"/>
     <use xlink:href="#m0fe7810b8b" x="52.395171" y="178.919802" style="fill: #1f77b4; stroke: #1f77b4"/>
     <use xlink:href="#m0fe7810b8b" x="157.342748" y="101.112429" style="fill: #1f77b4; stroke: #1f77b4"/>
     <use xlink:href="#m0fe7810b8b" x="153.019116" y="104.314322" style="fill: #1f77b4; stroke: #1f77b4"/>
     <use xlink:href="#m0fe7810b8b" x="127.546559" y="123.191411" style="fill: #1f77b4; stroke: #1f77b4"/>
     <use xlink:href="#m0fe7810b8b" x="249.020909" y="33.254874" style="fill: #1f77b4; stroke: #1f77b4"/>
     <use xlink:href="#m0fe7810b8b" x="252.473147" y="30.691529" style="fill: #1f77b4; stroke: #1f77b4"/>
     <use xlink:href="#m0fe7810b8b" x="190.81486" y="76.076224" style="fill: #1f77b4; stroke: #1f77b4"/>
     <use xlink:href="#m0fe7810b8b" x="245.613214" y="35.336946" style="fill: #1f77b4; stroke: #1f77b4"/>
     <use xlink:href="#m0fe7810b8b" x="56.461095" y="175.920079" style="fill: #1f77b4; stroke: #1f77b4"/>
     <use xlink:href="#m0fe7810b8b" x="57.322746" y="175.281941" style="fill: #1f77b4; stroke: #1f77b4"/>
     <use xlink:href="#m0fe7810b8b" x="115.511718" y="131.673858" style="fill: #1f77b4; stroke: #1f77b4"/>
     <use xlink:href="#m0fe7810b8b" x="147.418378" y="108.510938" style="fill: #1f77b4; stroke: #1f77b4"/>
     <use xlink:href="#m0fe7810b8b" x="153.865405" y="104.047646" style="fill: #1f77b4; stroke: #1f77b4"/>
     <use xlink:href="#m0fe7810b8b" x="233.506012" y="44.738668" style="fill: #1f77b4; stroke: #1f77b4"/>
     <use xlink:href="#m0fe7810b8b" x="251.826864" y="30.676235" style="fill: #1f77b4; stroke: #1f77b4"/>
     <use xlink:href="#m0fe7810b8b" x="109.233997" y="136.76973" style="fill: #1f77b4; stroke: #1f77b4"/>
     <use xlink:href="#m0fe7810b8b" x="251.667243" y="31.262724" style="fill: #1f77b4; stroke: #1f77b4"/>
     <use xlink:href="#m0fe7810b8b" x="111.144316" y="135.356648" style="fill: #1f77b4; stroke: #1f77b4"/>
     <use xlink:href="#m0fe7810b8b" x="142.571619" y="112.091742" style="fill: #1f77b4; stroke: #1f77b4"/>
     <use xlink:href="#m0fe7810b8b" x="113.994208" y="133.282782" style="fill: #1f77b4; stroke: #1f77b4"/>
     <use xlink:href="#m0fe7810b8b" x="222.213778" y="53.018978" style="fill: #1f77b4; stroke: #1f77b4"/>
     <use xlink:href="#m0fe7810b8b" x="119.146127" y="129.483711" style="fill: #1f77b4; stroke: #1f77b4"/>
     <use xlink:href="#m0fe7810b8b" x="136.556973" y="116.565081" style="fill: #1f77b4; stroke: #1f77b4"/>
     <use xlink:href="#m0fe7810b8b" x="107.79739" y="137.834562" style="fill: #1f77b4; stroke: #1f77b4"/>
     <use xlink:href="#m0fe7810b8b" x="177.906376" y="85.893073" style="fill: #1f77b4; stroke: #1f77b4"/>
     <use xlink:href="#m0fe7810b8b" x="165.581547" y="95.010501" style="fill: #1f77b4; stroke: #1f77b4"/>
     <use xlink:href="#m0fe7810b8b" x="108.665682" y="137.207042" style="fill: #1f77b4; stroke: #1f77b4"/>
     <use xlink:href="#m0fe7810b8b" x="162.830418" y="97.371172" style="fill: #1f77b4; stroke: #1f77b4"/>
     <use xlink:href="#m0fe7810b8b" x="104.128535" y="140.59812" style="fill: #1f77b4; stroke: #1f77b4"/>
     <use xlink:href="#m0fe7810b8b" x="145.515762" y="110.607483" style="fill: #1f77b4; stroke: #1f77b4"/>
     <use xlink:href="#m0fe7810b8b" x="99.977937" y="143.655134" style="fill: #1f77b4; stroke: #1f77b4"/>
     <use xlink:href="#m0fe7810b8b" x="126.114681" y="123.988091" style="fill: #1f77b4; stroke: #1f77b4"/>
     <use xlink:href="#m0fe7810b8b" x="99.270852" y="144.146366" style="fill: #1f77b4; stroke: #1f77b4"/>
     <use xlink:href="#m0fe7810b8b" x="109.787199" y="136.321438" style="fill: #1f77b4; stroke: #1f77b4"/>
     <use xlink:href="#m0fe7810b8b" x="105.698999" y="139.216927" style="fill: #1f77b4; stroke: #1f77b4"/>
     <use xlink:href="#m0fe7810b8b" x="151.898241" y="105.539491" style="fill: #1f77b4; stroke: #1f77b4"/>
     <use xlink:href="#m0fe7810b8b" x="109.030409" y="136.946866" style="fill: #1f77b4; stroke: #1f77b4"/>
     <use xlink:href="#m0fe7810b8b" x="101.466193" y="142.540931" style="fill: #1f77b4; stroke: #1f77b4"/>
     <use xlink:href="#m0fe7810b8b" x="237.886784" y="41.142544" style="fill: #1f77b4; stroke: #1f77b4"/>
     <use xlink:href="#m0fe7810b8b" x="246.291794" y="35.290758" style="fill: #1f77b4; stroke: #1f77b4"/>
    </g>
   </g>
   <g id="patch_3">
    <path d="M 40.741 172.373593 
L 40.741 30.111135 
" style="fill: none; stroke: #262626; stroke-linejoin: miter; stroke-linecap: square"/>
   </g>
   <g id="patch_4">
    <path d="M 61.188013 188.255625 
L 253.2292 188.255625 
" style="fill: none; stroke: #262626; stroke-linejoin: miter; stroke-linecap: square"/>
   </g>
   <g id="text_15">
    <!-- Low-fidelity GP predictions vs low-fidelity data -->
    <g style="fill: #262626" transform="translate(30.735062 15.935625) scale(0.12 -0.12)">
     <defs>
      <path id="ArialMT-4c" d="M 469 0 
L 469 4581 
L 1075 4581 
L 1075 541 
L 3331 541 
L 3331 0 
L 469 0 
z
" transform="scale(0.015625)"/>
      <path id="ArialMT-47" d="M 2638 1797 
L 2638 2334 
L 4578 2338 
L 4578 638 
Q 4131 281 3656 101 
Q 3181 -78 2681 -78 
Q 2006 -78 1454 211 
Q 903 500 622 1047 
Q 341 1594 341 2269 
Q 341 2938 620 3517 
Q 900 4097 1425 4378 
Q 1950 4659 2634 4659 
Q 3131 4659 3532 4498 
Q 3934 4338 4162 4050 
Q 4391 3763 4509 3300 
L 3963 3150 
Q 3859 3500 3706 3700 
Q 3553 3900 3268 4020 
Q 2984 4141 2638 4141 
Q 2222 4141 1919 4014 
Q 1616 3888 1430 3681 
Q 1244 3475 1141 3228 
Q 966 2803 966 2306 
Q 966 1694 1177 1281 
Q 1388 869 1791 669 
Q 2194 469 2647 469 
Q 3041 469 3416 620 
Q 3791 772 3984 944 
L 3984 1797 
L 2638 1797 
z
" transform="scale(0.015625)"/>
      <path id="ArialMT-50" d="M 494 0 
L 494 4581 
L 2222 4581 
Q 2678 4581 2919 4538 
Q 3256 4481 3484 4323 
Q 3713 4166 3852 3881 
Q 3991 3597 3991 3256 
Q 3991 2672 3619 2267 
Q 3247 1863 2275 1863 
L 1100 1863 
L 1100 0 
L 494 0 
z
M 1100 2403 
L 2284 2403 
Q 2872 2403 3119 2622 
Q 3366 2841 3366 3238 
Q 3366 3525 3220 3729 
Q 3075 3934 2838 4000 
Q 2684 4041 2272 4041 
L 1100 4041 
L 1100 2403 
z
" transform="scale(0.015625)"/>
      <path id="ArialMT-70" d="M 422 -1272 
L 422 3319 
L 934 3319 
L 934 2888 
Q 1116 3141 1344 3267 
Q 1572 3394 1897 3394 
Q 2322 3394 2647 3175 
Q 2972 2956 3137 2557 
Q 3303 2159 3303 1684 
Q 3303 1175 3120 767 
Q 2938 359 2589 142 
Q 2241 -75 1856 -75 
Q 1575 -75 1351 44 
Q 1128 163 984 344 
L 984 -1272 
L 422 -1272 
z
M 931 1641 
Q 931 1000 1190 694 
Q 1450 388 1819 388 
Q 2194 388 2461 705 
Q 2728 1022 2728 1688 
Q 2728 2322 2467 2637 
Q 2206 2953 1844 2953 
Q 1484 2953 1207 2617 
Q 931 2281 931 1641 
z
" transform="scale(0.015625)"/>
      <path id="ArialMT-63" d="M 2588 1216 
L 3141 1144 
Q 3050 572 2676 248 
Q 2303 -75 1759 -75 
Q 1078 -75 664 370 
Q 250 816 250 1647 
Q 250 2184 428 2587 
Q 606 2991 970 3192 
Q 1334 3394 1763 3394 
Q 2303 3394 2647 3120 
Q 2991 2847 3088 2344 
L 2541 2259 
Q 2463 2594 2264 2762 
Q 2066 2931 1784 2931 
Q 1359 2931 1093 2626 
Q 828 2322 828 1663 
Q 828 994 1084 691 
Q 1341 388 1753 388 
Q 2084 388 2306 591 
Q 2528 794 2588 1216 
z
" transform="scale(0.015625)"/>
      <path id="ArialMT-6e" d="M 422 0 
L 422 3319 
L 928 3319 
L 928 2847 
Q 1294 3394 1984 3394 
Q 2284 3394 2536 3286 
Q 2788 3178 2913 3003 
Q 3038 2828 3088 2588 
Q 3119 2431 3119 2041 
L 3119 0 
L 2556 0 
L 2556 2019 
Q 2556 2363 2490 2533 
Q 2425 2703 2258 2804 
Q 2091 2906 1866 2906 
Q 1506 2906 1245 2678 
Q 984 2450 984 1813 
L 984 0 
L 422 0 
z
" transform="scale(0.015625)"/>
      <path id="ArialMT-73" d="M 197 991 
L 753 1078 
Q 800 744 1014 566 
Q 1228 388 1613 388 
Q 2000 388 2187 545 
Q 2375 703 2375 916 
Q 2375 1106 2209 1216 
Q 2094 1291 1634 1406 
Q 1016 1563 777 1677 
Q 538 1791 414 1992 
Q 291 2194 291 2438 
Q 291 2659 392 2848 
Q 494 3038 669 3163 
Q 800 3259 1026 3326 
Q 1253 3394 1513 3394 
Q 1903 3394 2198 3281 
Q 2494 3169 2634 2976 
Q 2775 2784 2828 2463 
L 2278 2388 
Q 2241 2644 2061 2787 
Q 1881 2931 1553 2931 
Q 1166 2931 1000 2803 
Q 834 2675 834 2503 
Q 834 2394 903 2306 
Q 972 2216 1119 2156 
Q 1203 2125 1616 2013 
Q 2213 1853 2448 1751 
Q 2684 1650 2818 1456 
Q 2953 1263 2953 975 
Q 2953 694 2789 445 
Q 2625 197 2315 61 
Q 2006 -75 1616 -75 
Q 969 -75 630 194 
Q 291 463 197 991 
z
" transform="scale(0.015625)"/>
      <path id="ArialMT-76" d="M 1344 0 
L 81 3319 
L 675 3319 
L 1388 1331 
Q 1503 1009 1600 663 
Q 1675 925 1809 1294 
L 2547 3319 
L 3125 3319 
L 1869 0 
L 1344 0 
z
" transform="scale(0.015625)"/>
     </defs>
     <use xlink:href="#ArialMT-4c"/>
     <use xlink:href="#ArialMT-6f" x="55.615234"/>
     <use xlink:href="#ArialMT-77" x="111.230469"/>
     <use xlink:href="#ArialMT-2d" x="183.447266"/>
     <use xlink:href="#ArialMT-66" x="216.748047"/>
     <use xlink:href="#ArialMT-69" x="244.53125"/>
     <use xlink:href="#ArialMT-64" x="266.748047"/>
     <use xlink:href="#ArialMT-65" x="322.363281"/>
     <use xlink:href="#ArialMT-6c" x="377.978516"/>
     <use xlink:href="#ArialMT-69" x="400.195312"/>
     <use xlink:href="#ArialMT-74" x="422.412109"/>
     <use xlink:href="#ArialMT-79" x="450.195312"/>
     <use xlink:href="#ArialMT-20" x="500.195312"/>
     <use xlink:href="#ArialMT-47" x="527.978516"/>
     <use xlink:href="#ArialMT-50" x="605.761719"/>
     <use xlink:href="#ArialMT-20" x="670.710938"/>
     <use xlink:href="#ArialMT-70" x="698.494141"/>
     <use xlink:href="#ArialMT-72" x="754.109375"/>
     <use xlink:href="#ArialMT-65" x="787.410156"/>
     <use xlink:href="#ArialMT-64" x="843.025391"/>
     <use xlink:href="#ArialMT-69" x="898.640625"/>
     <use xlink:href="#ArialMT-63" x="920.857422"/>
     <use xlink:href="#ArialMT-74" x="970.857422"/>
     <use xlink:href="#ArialMT-69" x="998.640625"/>
     <use xlink:href="#ArialMT-6f" x="1020.857422"/>
     <use xlink:href="#ArialMT-6e" x="1076.472656"/>
     <use xlink:href="#ArialMT-73" x="1132.087891"/>
     <use xlink:href="#ArialMT-20" x="1182.087891"/>
     <use xlink:href="#ArialMT-76" x="1209.871094"/>
     <use xlink:href="#ArialMT-73" x="1259.871094"/>
     <use xlink:href="#ArialMT-20" x="1309.871094"/>
     <use xlink:href="#ArialMT-6c" x="1337.654297"/>
     <use xlink:href="#ArialMT-6f" x="1359.871094"/>
     <use xlink:href="#ArialMT-77" x="1415.486328"/>
     <use xlink:href="#ArialMT-2d" x="1487.703125"/>
     <use xlink:href="#ArialMT-66" x="1521.003906"/>
     <use xlink:href="#ArialMT-69" x="1548.787109"/>
     <use xlink:href="#ArialMT-64" x="1571.003906"/>
     <use xlink:href="#ArialMT-65" x="1626.619141"/>
     <use xlink:href="#ArialMT-6c" x="1682.234375"/>
     <use xlink:href="#ArialMT-69" x="1704.451172"/>
     <use xlink:href="#ArialMT-74" x="1726.667969"/>
     <use xlink:href="#ArialMT-79" x="1754.451172"/>
     <use xlink:href="#ArialMT-20" x="1804.451172"/>
     <use xlink:href="#ArialMT-64" x="1832.234375"/>
     <use xlink:href="#ArialMT-61" x="1887.849609"/>
     <use xlink:href="#ArialMT-74" x="1943.464844"/>
     <use xlink:href="#ArialMT-61" x="1971.248047"/>
    </g>
   </g>
  </g>
 </g>
 <defs>
  <clipPath id="p7ef61c70ca">
   <rect x="40.741" y="21.935625" width="223.2" height="166.32"/>
  </clipPath>
 </defs>
</svg>