<?xml version="1.0" encoding="utf-8" standalone="no"?>
<!DOCTYPE svg PUBLIC "-//W3C//DTD SVG 1.1//EN"
  "http://www.w3.org/Graphics/SVG/1.1/DTD/svg11.dtd">
<svg xmlns:xlink="http://www.w3.org/1999/xlink" width="215.1115pt" height="167.278875pt" viewBox="0 0 215.1115 167.278875" xmlns="http://www.w3.org/2000/svg" version="1.1">
 <metadata>
  <rdf:RDF xmlns:dc="http://purl.org/dc/elements/1.1/" xmlns:cc="http://creativecommons.org/ns#" xmlns:rdf="http://www.w3.org/1999/02/22-rdf-syntax-ns#">
   <cc:Work>
    <dc:type rdf:resource="http://purl.org/dc/dcmitype/StillImage"/>
    <dc:date>2024-10-17T14:55:41.505500</dc:date>
    <dc:format>image/svg+xml</dc:format>
    <dc:creator>
     <cc:Agent>
      <dc:title>Matplotlib v3.9.2, https://matplotlib.org/</dc:title>
     </cc:Agent>
    </dc:creator>
   </cc:Work>
  </rdf:RDF>
 </metadata>
 <defs>
  <style type="text/css">*{stroke-linejoin: round; stroke-linecap: butt}</style>
 </defs>
 <g id="figure_1">
  <g id="patch_1">
   <path d="M 0 167.278875 
L 215.1115 167.278875 
L 215.1115 0 
L 0 0 
z
" style="fill: #ffffff"/>
  </g>
  <g id="axes_1">
   <g id="patch_2">
    <path d="M 40.5115 130.9515 
L 207.9115 130.9515 
L 207.9115 20.0715 
L 40.5115 20.0715 
z
" style="fill: #ffffff"/>
   </g>
   <g id="matplotlib.axis_1">
    <g id="xtick_1">
     <g id="line2d_1">
      <defs>
       <path id="m51136d56fe" d="M 0 0 
L 0 4.8 
" style="stroke: #262626"/>
      </defs>
      <g>
       <use xlink:href="#m51136d56fe" x="48.120591" y="130.9515" style="fill: #262626; stroke: #262626"/>
      </g>
     </g>
     <g id="text_1">
      <!-- 0.0 -->
      <g style="fill: #262626" transform="translate(42.004591 145.550375) scale(0.088 -0.088)">
       <defs>
        <path id="ArialMT-30" d="M 266 2259 
Q 266 3072 433 3567 
Q 600 4063 929 4331 
Q 1259 4600 1759 4600 
Q 2128 4600 2406 4451 
Q 2684 4303 2865 4023 
Q 3047 3744 3150 3342 
Q 3253 2941 3253 2259 
Q 3253 1453 3087 958 
Q 2922 463 2592 192 
Q 2263 -78 1759 -78 
Q 1097 -78 719 397 
Q 266 969 266 2259 
z
M 844 2259 
Q 844 1131 1108 757 
Q 1372 384 1759 384 
Q 2147 384 2411 759 
Q 2675 1134 2675 2259 
Q 2675 3391 2411 3762 
Q 2147 4134 1753 4134 
Q 1366 4134 1134 3806 
Q 844 3388 844 2259 
z
" transform="scale(0.015625)"/>
        <path id="ArialMT-2e" d="M 581 0 
L 581 641 
L 1222 641 
L 1222 0 
L 581 0 
z
" transform="scale(0.015625)"/>
       </defs>
       <use xlink:href="#ArialMT-30"/>
       <use xlink:href="#ArialMT-2e" x="55.615234"/>
       <use xlink:href="#ArialMT-30" x="83.398438"/>
      </g>
     </g>
    </g>
    <g id="xtick_2">
     <g id="line2d_2">
      <g>
       <use xlink:href="#m51136d56fe" x="78.556955" y="130.9515" style="fill: #262626; stroke: #262626"/>
      </g>
     </g>
     <g id="text_2">
      <!-- 0.2 -->
      <g style="fill: #262626" transform="translate(72.440955 145.550375) scale(0.088 -0.088)">
       <defs>
        <path id="ArialMT-32" d="M 3222 541 
L 3222 0 
L 194 0 
Q 188 203 259 391 
Q 375 700 629 1000 
Q 884 1300 1366 1694 
Q 2113 2306 2375 2664 
Q 2638 3022 2638 3341 
Q 2638 3675 2398 3904 
Q 2159 4134 1775 4134 
Q 1369 4134 1125 3890 
Q 881 3647 878 3216 
L 300 3275 
Q 359 3922 746 4261 
Q 1134 4600 1788 4600 
Q 2447 4600 2831 4234 
Q 3216 3869 3216 3328 
Q 3216 3053 3103 2787 
Q 2991 2522 2730 2228 
Q 2469 1934 1863 1422 
Q 1356 997 1212 845 
Q 1069 694 975 541 
L 3222 541 
z
" transform="scale(0.015625)"/>
       </defs>
       <use xlink:href="#ArialMT-30"/>
       <use xlink:href="#ArialMT-2e" x="55.615234"/>
       <use xlink:href="#ArialMT-32" x="83.398438"/>
      </g>
     </g>
    </g>
    <g id="xtick_3">
     <g id="line2d_3">
      <g>
       <use xlink:href="#m51136d56fe" x="108.993318" y="130.9515" style="fill: #262626; stroke: #262626"/>
      </g>
     </g>
     <g id="text_3">
      <!-- 0.4 -->
      <g style="fill: #262626" transform="translate(102.877318 145.550375) scale(0.088 -0.088)">
       <defs>
        <path id="ArialMT-34" d="M 2069 0 
L 2069 1097 
L 81 1097 
L 81 1613 
L 2172 4581 
L 2631 4581 
L 2631 1613 
L 3250 1613 
L 3250 1097 
L 2631 1097 
L 2631 0 
L 2069 0 
z
M 2069 1613 
L 2069 3678 
L 634 1613 
L 2069 1613 
z
" transform="scale(0.015625)"/>
       </defs>
       <use xlink:href="#ArialMT-30"/>
       <use xlink:href="#ArialMT-2e" x="55.615234"/>
       <use xlink:href="#ArialMT-34" x="83.398438"/>
      </g>
     </g>
    </g>
    <g id="xtick_4">
     <g id="line2d_4">
      <g>
       <use xlink:href="#m51136d56fe" x="139.429682" y="130.9515" style="fill: #262626; stroke: #262626"/>
      </g>
     </g>
     <g id="text_4">
      <!-- 0.6 -->
      <g style="fill: #262626" transform="translate(133.313682 145.550375) scale(0.088 -0.088)">
       <defs>
        <path id="ArialMT-36" d="M 3184 3459 
L 2625 3416 
Q 2550 3747 2413 3897 
Q 2184 4138 1850 4138 
Q 1581 4138 1378 3988 
Q 1113 3794 959 3422 
Q 806 3050 800 2363 
Q 1003 2672 1297 2822 
Q 1591 2972 1913 2972 
Q 2475 2972 2870 2558 
Q 3266 2144 3266 1488 
Q 3266 1056 3080 686 
Q 2894 316 2569 119 
Q 2244 -78 1831 -78 
Q 1128 -78 684 439 
Q 241 956 241 2144 
Q 241 3472 731 4075 
Q 1159 4600 1884 4600 
Q 2425 4600 2770 4297 
Q 3116 3994 3184 3459 
z
M 888 1484 
Q 888 1194 1011 928 
Q 1134 663 1356 523 
Q 1578 384 1822 384 
Q 2178 384 2434 671 
Q 2691 959 2691 1453 
Q 2691 1928 2437 2201 
Q 2184 2475 1800 2475 
Q 1419 2475 1153 2201 
Q 888 1928 888 1484 
z
" transform="scale(0.015625)"/>
       </defs>
       <use xlink:href="#ArialMT-30"/>
       <use xlink:href="#ArialMT-2e" x="55.615234"/>
       <use xlink:href="#ArialMT-36" x="83.398438"/>
      </g>
     </g>
    </g>
    <g id="xtick_5">
     <g id="line2d_5">
      <g>
       <use xlink:href="#m51136d56fe" x="169.866045" y="130.9515" style="fill: #262626; stroke: #262626"/>
      </g>
     </g>
     <g id="text_5">
      <!-- 0.8 -->
      <g style="fill: #262626" transform="translate(163.750045 145.550375) scale(0.088 -0.088)">
       <defs>
        <path id="ArialMT-38" d="M 1131 2484 
Q 781 2613 612 2850 
Q 444 3088 444 3419 
Q 444 3919 803 4259 
Q 1163 4600 1759 4600 
Q 2359 4600 2725 4251 
Q 3091 3903 3091 3403 
Q 3091 3084 2923 2848 
Q 2756 2613 2416 2484 
Q 2838 2347 3058 2040 
Q 3278 1734 3278 1309 
Q 3278 722 2862 322 
Q 2447 -78 1769 -78 
Q 1091 -78 675 323 
Q 259 725 259 1325 
Q 259 1772 486 2073 
Q 713 2375 1131 2484 
z
M 1019 3438 
Q 1019 3113 1228 2906 
Q 1438 2700 1772 2700 
Q 2097 2700 2305 2904 
Q 2513 3109 2513 3406 
Q 2513 3716 2298 3927 
Q 2084 4138 1766 4138 
Q 1444 4138 1231 3931 
Q 1019 3725 1019 3438 
z
M 838 1322 
Q 838 1081 952 856 
Q 1066 631 1291 507 
Q 1516 384 1775 384 
Q 2178 384 2440 643 
Q 2703 903 2703 1303 
Q 2703 1709 2433 1975 
Q 2163 2241 1756 2241 
Q 1359 2241 1098 1978 
Q 838 1716 838 1322 
z
" transform="scale(0.015625)"/>
       </defs>
       <use xlink:href="#ArialMT-30"/>
       <use xlink:href="#ArialMT-2e" x="55.615234"/>
       <use xlink:href="#ArialMT-38" x="83.398438"/>
      </g>
     </g>
    </g>
    <g id="xtick_6">
     <g id="line2d_6">
      <g>
       <use xlink:href="#m51136d56fe" x="200.302409" y="130.9515" style="fill: #262626; stroke: #262626"/>
      </g>
     </g>
     <g id="text_6">
      <!-- 1.0 -->
      <g style="fill: #262626" transform="translate(194.186409 145.550375) scale(0.088 -0.088)">
       <defs>
        <path id="ArialMT-31" d="M 2384 0 
L 1822 0 
L 1822 3584 
Q 1619 3391 1289 3197 
Q 959 3003 697 2906 
L 697 3450 
Q 1169 3672 1522 3987 
Q 1875 4303 2022 4600 
L 2384 4600 
L 2384 0 
z
" transform="scale(0.015625)"/>
       </defs>
       <use xlink:href="#ArialMT-31"/>
       <use xlink:href="#ArialMT-2e" x="55.615234"/>
       <use xlink:href="#ArialMT-30" x="83.398438"/>
      </g>
     </g>
    </g>
    <g id="text_7">
     <!-- $x$ -->
     <g style="fill: #262626" transform="translate(121.3315 158.170875) scale(0.096 -0.096)">
      <defs>
       <path id="DejaVuSans-Oblique-78" d="M 3841 3500 
L 2234 1784 
L 3219 0 
L 2559 0 
L 1819 1388 
L 531 0 
L -166 0 
L 1556 1844 
L 641 3500 
L 1300 3500 
L 1972 2234 
L 3144 3500 
L 3841 3500 
z
" transform="scale(0.015625)"/>
      </defs>
      <use xlink:href="#DejaVuSans-Oblique-78" transform="translate(0 0.3125)"/>
     </g>
    </g>
   </g>
   <g id="matplotlib.axis_2">
    <g id="ytick_1">
     <g id="line2d_7">
      <defs>
       <path id="m11ccc59d5a" d="M 0 0 
L -4.8 0 
" style="stroke: #262626"/>
      </defs>
      <g>
       <use xlink:href="#m11ccc59d5a" x="40.5115" y="122.324019" style="fill: #262626; stroke: #262626"/>
      </g>
     </g>
     <g id="text_8">
      <!-- 0.4 -->
      <g style="fill: #262626" transform="translate(19.9795 125.473457) scale(0.088 -0.088)">
       <use xlink:href="#ArialMT-30"/>
       <use xlink:href="#ArialMT-2e" x="55.615234"/>
       <use xlink:href="#ArialMT-34" x="83.398438"/>
      </g>
     </g>
    </g>
    <g id="ytick_2">
     <g id="line2d_8">
      <g>
       <use xlink:href="#m11ccc59d5a" x="40.5115" y="102.424845" style="fill: #262626; stroke: #262626"/>
      </g>
     </g>
     <g id="text_9">
      <!-- 0.6 -->
      <g style="fill: #262626" transform="translate(19.9795 105.574282) scale(0.088 -0.088)">
       <use xlink:href="#ArialMT-30"/>
       <use xlink:href="#ArialMT-2e" x="55.615234"/>
       <use xlink:href="#ArialMT-36" x="83.398438"/>
      </g>
     </g>
    </g>
    <g id="ytick_3">
     <g id="line2d_9">
      <g>
       <use xlink:href="#m11ccc59d5a" x="40.5115" y="82.525671" style="fill: #262626; stroke: #262626"/>
      </g>
     </g>
     <g id="text_10">
      <!-- 0.8 -->
      <g style="fill: #262626" transform="translate(19.9795 85.675108) scale(0.088 -0.088)">
       <use xlink:href="#ArialMT-30"/>
       <use xlink:href="#ArialMT-2e" x="55.615234"/>
       <use xlink:href="#ArialMT-38" x="83.398438"/>
      </g>
     </g>
    </g>
    <g id="ytick_4">
     <g id="line2d_10">
      <g>
       <use xlink:href="#m11ccc59d5a" x="40.5115" y="62.626497" style="fill: #262626; stroke: #262626"/>
      </g>
     </g>
     <g id="text_11">
      <!-- 1.0 -->
      <g style="fill: #262626" transform="translate(19.9795 65.775934) scale(0.088 -0.088)">
       <use xlink:href="#ArialMT-31"/>
       <use xlink:href="#ArialMT-2e" x="55.615234"/>
       <use xlink:href="#ArialMT-30" x="83.398438"/>
      </g>
     </g>
    </g>
    <g id="ytick_5">
     <g id="line2d_11">
      <g>
       <use xlink:href="#m11ccc59d5a" x="40.5115" y="42.727323" style="fill: #262626; stroke: #262626"/>
      </g>
     </g>
     <g id="text_12">
      <!-- 1.2 -->
      <g style="fill: #262626" transform="translate(19.9795 45.87676) scale(0.088 -0.088)">
       <use xlink:href="#ArialMT-31"/>
       <use xlink:href="#ArialMT-2e" x="55.615234"/>
       <use xlink:href="#ArialMT-32" x="83.398438"/>
      </g>
     </g>
    </g>
    <g id="ytick_6">
     <g id="line2d_12">
      <g>
       <use xlink:href="#m11ccc59d5a" x="40.5115" y="22.828148" style="fill: #262626; stroke: #262626"/>
      </g>
     </g>
     <g id="text_13">
      <!-- 1.4 -->
      <g style="fill: #262626" transform="translate(19.9795 25.977586) scale(0.088 -0.088)">
       <use xlink:href="#ArialMT-31"/>
       <use xlink:href="#ArialMT-2e" x="55.615234"/>
       <use xlink:href="#ArialMT-34" x="83.398438"/>
      </g>
     </g>
    </g>
    <g id="text_14">
     <!-- $y$ -->
     <g style="fill: #262626" transform="translate(13.9635 78.3915) rotate(-90) scale(0.096 -0.096)">
      <defs>
       <path id="DejaVuSans-Oblique-79" d="M 1588 -325 
Q 1188 -997 936 -1164 
Q 684 -1331 294 -1331 
L -159 -1331 
L -63 -850 
L 269 -850 
Q 509 -850 678 -719 
Q 847 -588 1056 -206 
L 1234 128 
L 459 3500 
L 1069 3500 
L 1650 819 
L 3256 3500 
L 3859 3500 
L 1588 -325 
z
" transform="scale(0.015625)"/>
      </defs>
      <use xlink:href="#DejaVuSans-Oblique-79" transform="translate(0 0.3125)"/>
     </g>
    </g>
   </g>
   <g id="PolyCollection_1">
    <defs>
     <path id="m30b07a66fc" d="M 48.120591 -138.318041 
L 48.120591 -64.293904 
L 49.657781 -65.388356 
L 51.194971 -66.555333 
L 52.732161 -67.795919 
L 54.269351 -69.110692 
L 55.806541 -70.499656 
L 57.343731 -71.962179 
L 58.880921 -73.496922 
L 60.418112 -75.101774 
L 61.955302 -76.773785 
L 63.492492 -78.509103 
L 65.029682 -80.302903 
L 66.566872 -82.149325 
L 68.104062 -84.041391 
L 69.641252 -85.970929 
L 71.178442 -87.928465 
L 72.715632 -89.903103 
L 74.252822 -91.882367 
L 75.790012 -93.851985 
L 77.327202 -95.795623 
L 78.864393 -97.694528 
L 80.401583 -99.527089 
L 81.938773 -101.268319 
L 83.475963 -102.889339 
L 85.013153 -104.357018 
L 86.550343 -105.634113 
L 88.087533 -106.680462 
L 89.624723 -107.455849 
L 91.161913 -107.924885 
L 92.699103 -108.063166 
L 94.236293 -107.862601 
L 95.773483 -107.333352 
L 97.310674 -106.501298 
L 98.847864 -105.40242 
L 100.385054 -104.076717 
L 101.922244 -102.56359 
L 103.459434 -100.899237 
L 104.996624 -99.115642 
L 106.533814 -97.240526 
L 108.071004 -95.297741 
L 109.608194 -93.30779 
L 111.145384 -91.288331 
L 112.682574 -89.254606 
L 114.219764 -87.21978 
L 115.756955 -85.195201 
L 117.294145 -83.190608 
L 118.831335 -81.214285 
L 120.368525 -79.273188 
L 121.905715 -77.37305 
L 123.442905 -75.518471 
L 124.980095 -73.71301 
L 126.517285 -71.95926 
L 128.054475 -70.258943 
L 129.591665 -68.612985 
L 131.128855 -67.021615 
L 132.666045 -65.484456 
L 134.203236 -64.000619 
L 135.740426 -62.568807 
L 137.277616 -61.187412 
L 138.814806 -59.85462 
L 140.351996 -58.568508 
L 141.889186 -57.327143 
L 143.426376 -56.128675 
L 144.963566 -54.971428 
L 146.500756 -53.853974 
L 148.037946 -52.775213 
L 149.575136 -51.734428 
L 151.112326 -50.731341 
L 152.649517 -49.766152 
L 154.186707 -48.839561 
L 155.723897 -47.952789 
L 157.261087 -47.107568 
L 158.798277 -46.306135 
L 160.335467 -45.551199 
L 161.872657 -44.845901 
L 163.409847 -44.193752 
L 164.947037 -43.598573 
L 166.484227 -43.064401 
L 168.021417 -42.5954 
L 169.558607 -42.195747 
L 171.095798 -41.869512 
L 172.632988 -41.620517 
L 174.170178 -41.452186 
L 175.707368 -41.367375 
L 177.244558 -41.368183 
L 178.781748 -41.455735 
L 180.318938 -41.629936 
L 181.856128 -41.889183 
L 183.393318 -42.230029 
L 184.930508 -42.646771 
L 186.467698 -43.130971 
L 188.004888 -43.670883 
L 189.542079 -44.25081 
L 191.079269 -44.850458 
L 192.616459 -45.444441 
L 194.153649 -46.002272 
L 195.690839 -46.489362 
L 197.228029 -46.869688 
L 198.765219 -47.110476 
L 200.302409 -47.188279 
L 200.302409 -74.8653 
L 200.302409 -74.8653 
L 198.765219 -75.041627 
L 197.228029 -75.547946 
L 195.690839 -76.359343 
L 194.153649 -77.440353 
L 192.616459 -78.751089 
L 191.079269 -80.251994 
L 189.542079 -81.906592 
L 188.004888 -83.682587 
L 186.467698 -85.551961 
L 184.930508 -87.490602 
L 183.393318 -89.477782 
L 181.856128 -91.495654 
L 180.318938 -93.528815 
L 178.781748 -95.563962 
L 177.244558 -97.589621 
L 175.707368 -99.595944 
L 174.170178 -101.574547 
L 172.632988 -103.518382 
L 171.095798 -105.421632 
L 169.558607 -107.279617 
L 168.021417 -109.088708 
L 166.484227 -110.846243 
L 164.947037 -112.550442 
L 163.409847 -114.200325 
L 161.872657 -115.795613 
L 160.335467 -117.336647 
L 158.798277 -118.824278 
L 157.261087 -120.259781 
L 155.723897 -121.644742 
L 154.186707 -122.980965 
L 152.649517 -124.270369 
L 151.112326 -125.514888 
L 149.575136 -126.716382 
L 148.037946 -127.876542 
L 146.500756 -128.996816 
L 144.963566 -130.078331 
L 143.426376 -131.121832 
L 141.889186 -132.12763 
L 140.351996 -133.095562 
L 138.814806 -134.024962 
L 137.277616 -134.91465 
L 135.740426 -135.762927 
L 134.203236 -136.567593 
L 132.666045 -137.325972 
L 131.128855 -138.034953 
L 129.591665 -138.691048 
L 128.054475 -139.290456 
L 126.517285 -139.829153 
L 124.980095 -140.30298 
L 123.442905 -140.707757 
L 121.905715 -141.039402 
L 120.368525 -141.294072 
L 118.831335 -141.468306 
L 117.294145 -141.559202 
L 115.756955 -141.564601 
L 114.219764 -141.483299 
L 112.682574 -141.315295 
L 111.145384 -141.062072 
L 109.608194 -140.726933 
L 108.071004 -140.315402 
L 106.533814 -139.835703 
L 104.996624 -139.299325 
L 103.459434 -138.721656 
L 101.922244 -138.122642 
L 100.385054 -137.527292 
L 98.847864 -136.965746 
L 97.310674 -136.472362 
L 95.773483 -136.083194 
L 94.236293 -135.831443 
L 92.699103 -135.741432 
L 91.161913 -135.823021 
L 89.624723 -136.069092 
L 88.087533 -136.457482 
L 86.550343 -136.956295 
L 85.013153 -137.530024 
L 83.475963 -138.144373 
L 81.938773 -138.769058 
L 80.401583 -139.378907 
L 78.864393 -139.953909 
L 77.327202 -140.478745 
L 75.790012 -140.942153 
L 74.252822 -141.336284 
L 72.715632 -141.656136 
L 71.178442 -141.899072 
L 69.641252 -142.064409 
L 68.104062 -142.153085 
L 66.566872 -142.167375 
L 65.029682 -142.110641 
L 63.492492 -141.987127 
L 61.955302 -141.801766 
L 60.418112 -141.560019 
L 58.880921 -141.267718 
L 57.343731 -140.930936 
L 55.806541 -140.555863 
L 54.269351 -140.148693 
L 52.732161 -139.715532 
L 51.194971 -139.262306 
L 49.657781 -138.794689 
L 48.120591 -138.318041 
z
" style="stroke: #ffffff; stroke-opacity: 0.2; stroke-width: 0.8"/>
    </defs>
    <g clip-path="url(#pd1c9b51b04)">
     <use xlink:href="#m30b07a66fc" x="0" y="167.278875" style="fill: #1f77b4; fill-opacity: 0.2; stroke: #ffffff; stroke-opacity: 0.2; stroke-width: 0.8"/>
    </g>
   </g>
   <g id="PathCollection_1">
    <defs>
     <path id="m74e7dd7653" d="M 0 2.4 
C 0.636487 2.4 1.246992 2.147121 1.697056 1.697056 
C 2.147121 1.246992 2.4 0.636487 2.4 0 
C 2.4 -0.636487 2.147121 -1.246992 1.697056 -1.697056 
C 1.246992 -2.147121 0.636487 -2.4 0 -2.4 
C -0.636487 -2.4 -1.246992 -2.147121 -1.697056 -1.697056 
C -2.147121 -1.246992 -2.4 -0.636487 -2.4 0 
C -2.4 0.636487 -2.147121 1.246992 -1.697056 1.697056 
C -1.246992 2.147121 -0.636487 2.4 0 2.4 
z
" style="stroke: #ff7f0e; stroke-width: 0.8"/>
    </defs>
    <g clip-path="url(#pd1c9b51b04)">
     <use xlink:href="#m74e7dd7653" x="92.592002" y="43.232814" style="fill: #ff7f0e; stroke: #ff7f0e; stroke-width: 0.8"/>
     <use xlink:href="#m74e7dd7653" x="200.29898" y="108.395098" style="fill: #ff7f0e; stroke: #ff7f0e; stroke-width: 0.8"/>
    </g>
   </g>
   <g id="line2d_13">
    <path d="M 48.120591 65.972902 
L 49.657781 65.187353 
L 51.194971 64.370055 
L 52.732161 63.523149 
L 54.269351 62.649183 
L 55.806541 61.751116 
L 57.343731 60.832317 
L 58.880921 59.896555 
L 60.418112 58.947979 
L 61.955302 57.991099 
L 63.492492 57.03076 
L 65.029682 56.072103 
L 66.566872 55.120525 
L 68.104062 54.181637 
L 69.641252 53.261206 
L 71.178442 52.365107 
L 72.715632 51.499255 
L 74.252822 50.66955 
L 75.790012 49.881806 
L 77.327202 49.141691 
L 78.864393 48.454657 
L 80.401583 47.825877 
L 81.938773 47.260187 
L 83.475963 46.762019 
L 85.013153 46.335354 
L 86.550343 45.983671 
L 88.087533 45.709903 
L 89.624723 45.516404 
L 91.161913 45.404922 
L 92.699103 45.376576 
L 94.236293 45.431853 
L 95.773483 45.570602 
L 97.310674 45.792045 
L 98.847864 46.094792 
L 100.385054 46.476871 
L 101.922244 46.935759 
L 103.459434 47.468429 
L 104.996624 48.071392 
L 106.533814 48.74076 
L 108.071004 49.472303 
L 109.608194 50.261514 
L 111.145384 51.103673 
L 112.682574 51.993924 
L 114.219764 52.927336 
L 115.756955 53.898974 
L 117.294145 54.90397 
L 118.831335 55.93758 
L 120.368525 56.995245 
L 121.905715 58.072649 
L 123.442905 59.165761 
L 124.980095 60.27088 
L 126.517285 61.384668 
L 128.054475 62.504176 
L 129.591665 63.626859 
L 131.128855 64.750591 
L 132.666045 65.873661 
L 134.203236 66.994769 
L 135.740426 68.113008 
L 137.277616 69.227844 
L 138.814806 70.339084 
L 140.351996 71.44684 
L 141.889186 72.551488 
L 143.426376 73.653621 
L 144.963566 74.753995 
L 146.500756 75.85348 
L 148.037946 76.952997 
L 149.575136 78.05347 
L 151.112326 79.15576 
L 152.649517 80.260615 
L 154.186707 81.368612 
L 155.723897 82.48011 
L 157.261087 83.595201 
L 158.798277 84.713668 
L 160.335467 85.834952 
L 161.872657 86.958118 
L 163.409847 88.081837 
L 164.947037 89.204367 
L 166.484227 90.323553 
L 168.021417 91.436821 
L 169.558607 92.541193 
L 171.095798 93.633303 
L 172.632988 94.709426 
L 174.170178 95.765509 
L 175.707368 96.797216 
L 177.244558 97.799973 
L 178.781748 98.769027 
L 180.318938 99.6995 
L 181.856128 100.586456 
L 183.393318 101.42497 
L 184.930508 102.210189 
L 186.467698 102.937409 
L 188.004888 103.60214 
L 189.542079 104.200174 
L 191.079269 104.727649 
L 192.616459 105.18111 
L 194.153649 105.557562 
L 195.690839 105.854522 
L 197.228029 106.070058 
L 198.765219 106.202824 
L 200.302409 106.252085 
" clip-path="url(#pd1c9b51b04)" style="fill: none; stroke: #1f77b4; stroke-width: 1.2; stroke-linecap: round"/>
   </g>
   <g id="line2d_14">
    <path d="M 146.445489 130.9515 
L 146.445489 20.0715 
" clip-path="url(#pd1c9b51b04)" style="fill: none; stroke-dasharray: 4.44,1.92; stroke-dashoffset: 0; stroke: #ff0000; stroke-width: 1.2"/>
   </g>
   <g id="patch_3">
    <path d="M 40.5115 122.324019 
L 40.5115 22.828148 
" style="fill: none; stroke: #262626; stroke-linejoin: miter; stroke-linecap: square"/>
   </g>
   <g id="patch_4">
    <path d="M 48.120591 130.9515 
L 200.302409 130.9515 
" style="fill: none; stroke: #262626; stroke-linejoin: miter; stroke-linecap: square"/>
   </g>
   <g id="text_15">
    <!-- $N=2$ -->
    <g style="fill: #262626" transform="translate(111.6355 14.0715) scale(0.096 -0.096)">
     <defs>
      <path id="DejaVuSans-Oblique-4e" d="M 1081 4666 
L 1931 4666 
L 3219 666 
L 4000 4666 
L 4616 4666 
L 3706 0 
L 2853 0 
L 1569 4025 
L 788 0 
L 172 0 
L 1081 4666 
z
" transform="scale(0.015625)"/>
      <path id="DejaVuSans-3d" d="M 678 2906 
L 4684 2906 
L 4684 2381 
L 678 2381 
L 678 2906 
z
M 678 1631 
L 4684 1631 
L 4684 1100 
L 678 1100 
L 678 1631 
z
" transform="scale(0.015625)"/>
      <path id="DejaVuSans-32" d="M 1228 531 
L 3431 531 
L 3431 0 
L 469 0 
L 469 531 
Q 828 903 1448 1529 
Q 2069 2156 2228 2338 
Q 2531 2678 2651 2914 
Q 2772 3150 2772 3378 
Q 2772 3750 2511 3984 
Q 2250 4219 1831 4219 
Q 1534 4219 1204 4116 
Q 875 4013 500 3803 
L 500 4441 
Q 881 4594 1212 4672 
Q 1544 4750 1819 4750 
Q 2544 4750 2975 4387 
Q 3406 4025 3406 3419 
Q 3406 3131 3298 2873 
Q 3191 2616 2906 2266 
Q 2828 2175 2409 1742 
Q 1991 1309 1228 531 
z
" transform="scale(0.015625)"/>
     </defs>
     <use xlink:href="#DejaVuSans-Oblique-4e" transform="translate(0 0.78125)"/>
     <use xlink:href="#DejaVuSans-3d" transform="translate(94.287109 0.78125)"/>
     <use xlink:href="#DejaVuSans-32" transform="translate(197.558594 0.78125)"/>
    </g>
   </g>
   <g id="legend_1">
    <g id="patch_5">
     <path d="M 147.8075 39.559375 
L 201.7515 39.559375 
Q 203.5115 39.559375 203.5115 37.799375 
L 203.5115 26.2315 
Q 203.5115 24.4715 201.7515 24.4715 
L 147.8075 24.4715 
Q 146.0475 24.4715 146.0475 26.2315 
L 146.0475 37.799375 
Q 146.0475 39.559375 147.8075 39.559375 
z
" style="fill: #ffffff; opacity: 0.8; stroke: #cccccc; stroke-width: 0.8; stroke-linejoin: miter"/>
    </g>
    <g id="line2d_15">
     <path d="M 149.5675 31.210375 
L 158.3675 31.210375 
L 167.1675 31.210375 
" style="fill: none; stroke-dasharray: 4.44,1.92; stroke-dashoffset: 0; stroke: #ff0000; stroke-width: 1.2"/>
    </g>
    <g id="text_16">
     <!-- Next $x$ -->
     <g style="fill: #262626" transform="translate(174.2075 34.290375) scale(0.088 -0.088)">
      <defs>
       <path id="ArialMT-4e" d="M 488 0 
L 488 4581 
L 1109 4581 
L 3516 984 
L 3516 4581 
L 4097 4581 
L 4097 0 
L 3475 0 
L 1069 3600 
L 1069 0 
L 488 0 
z
" transform="scale(0.015625)"/>
       <path id="ArialMT-65" d="M 2694 1069 
L 3275 997 
Q 3138 488 2766 206 
Q 2394 -75 1816 -75 
Q 1088 -75 661 373 
Q 234 822 234 1631 
Q 234 2469 665 2931 
Q 1097 3394 1784 3394 
Q 2450 3394 2872 2941 
Q 3294 2488 3294 1666 
Q 3294 1616 3291 1516 
L 816 1516 
Q 847 969 1125 678 
Q 1403 388 1819 388 
Q 2128 388 2347 550 
Q 2566 713 2694 1069 
z
M 847 1978 
L 2700 1978 
Q 2663 2397 2488 2606 
Q 2219 2931 1791 2931 
Q 1403 2931 1139 2672 
Q 875 2413 847 1978 
z
" transform="scale(0.015625)"/>
       <path id="ArialMT-78" d="M 47 0 
L 1259 1725 
L 138 3319 
L 841 3319 
L 1350 2541 
Q 1494 2319 1581 2169 
Q 1719 2375 1834 2534 
L 2394 3319 
L 3066 3319 
L 1919 1756 
L 3153 0 
L 2463 0 
L 1781 1031 
L 1600 1309 
L 728 0 
L 47 0 
z
" transform="scale(0.015625)"/>
       <path id="ArialMT-74" d="M 1650 503 
L 1731 6 
Q 1494 -44 1306 -44 
Q 1000 -44 831 53 
Q 663 150 594 308 
Q 525 466 525 972 
L 525 2881 
L 113 2881 
L 113 3319 
L 525 3319 
L 525 4141 
L 1084 4478 
L 1084 3319 
L 1650 3319 
L 1650 2881 
L 1084 2881 
L 1084 941 
Q 1084 700 1114 631 
Q 1144 563 1211 522 
Q 1278 481 1403 481 
Q 1497 481 1650 503 
z
" transform="scale(0.015625)"/>
       <path id="ArialMT-20" transform="scale(0.015625)"/>
      </defs>
      <use xlink:href="#ArialMT-4e" transform="translate(0 0.421875)"/>
      <use xlink:href="#ArialMT-65" transform="translate(72.216797 0.421875)"/>
      <use xlink:href="#ArialMT-78" transform="translate(127.832031 0.421875)"/>
      <use xlink:href="#ArialMT-74" transform="translate(177.832031 0.421875)"/>
      <use xlink:href="#ArialMT-20" transform="translate(205.615234 0.421875)"/>
      <use xlink:href="#DejaVuSans-Oblique-78" transform="translate(233.398438 0.421875)"/>
     </g>
    </g>
   </g>
  </g>
 </g>
 <defs>
  <clipPath id="pd1c9b51b04">
   <rect x="40.5115" y="20.0715" width="167.4" height="110.88"/>
  </clipPath>
 </defs>
</svg>