<?xml version="1.0" encoding="utf-8" standalone="no"?>
<!DOCTYPE svg PUBLIC "-//W3C//DTD SVG 1.1//EN"
  "http://www.w3.org/Graphics/SVG/1.1/DTD/svg11.dtd">
<svg xmlns:xlink="http://www.w3.org/1999/xlink" width="202.580187pt" height="210.363875pt" viewBox="0 0 202.580187 210.363875" xmlns="http://www.w3.org/2000/svg" version="1.1">
 <metadata>
  <rdf:RDF xmlns:dc="http://purl.org/dc/elements/1.1/" xmlns:cc="http://creativecommons.org/ns#" xmlns:rdf="http://www.w3.org/1999/02/22-rdf-syntax-ns#">
   <cc:Work>
    <dc:type rdf:resource="http://purl.org/dc/dcmitype/StillImage"/>
    <dc:date>2024-01-22T16:18:25.503506</dc:date>
    <dc:format>image/svg+xml</dc:format>
    <dc:creator>
     <cc:Agent>
      <dc:title>Matplotlib v3.8.0, https://matplotlib.org/</dc:title>
     </cc:Agent>
    </dc:creator>
   </cc:Work>
  </rdf:RDF>
 </metadata>
 <defs>
  <style type="text/css">*{stroke-linejoin: round; stroke-linecap: butt}</style>
 </defs>
 <g id="figure_1">
  <g id="patch_1">
   <path d="M 0 210.363875 
L 202.580187 210.363875 
L 202.580187 0 
L 0 0 
z
" style="fill: #ffffff"/>
  </g>
  <g id="axes_1">
   <g id="patch_2">
    <path d="M 25.533375 186.816 
L 192.933375 186.816 
L 192.933375 20.496 
L 25.533375 20.496 
z
" style="fill: #ffffff"/>
   </g>
   <g id="matplotlib.axis_1">
    <g id="xtick_1">
     <g id="line2d_1">
      <defs>
       <path id="m7e281a85e7" d="M 0 0 
L 0 4.8 
" style="stroke: #262626"/>
      </defs>
      <g>
       <use xlink:href="#m7e281a85e7" x="25.533375" y="186.816" style="fill: #262626; stroke: #262626"/>
      </g>
     </g>
     <g id="text_1">
      <!-- −3 -->
      <g style="fill: #262626" transform="translate(20.516688 201.414875) scale(0.088 -0.088)">
       <defs>
        <path id="ArialMT-2212" d="M 3381 1997 
L 356 1997 
L 356 2522 
L 3381 2522 
L 3381 1997 
z
" transform="scale(0.015625)"/>
        <path id="ArialMT-33" d="M 269 1209 
L 831 1284 
Q 928 806 1161 595 
Q 1394 384 1728 384 
Q 2125 384 2398 659 
Q 2672 934 2672 1341 
Q 2672 1728 2419 1979 
Q 2166 2231 1775 2231 
Q 1616 2231 1378 2169 
L 1441 2663 
Q 1497 2656 1531 2656 
Q 1891 2656 2178 2843 
Q 2466 3031 2466 3422 
Q 2466 3731 2256 3934 
Q 2047 4138 1716 4138 
Q 1388 4138 1169 3931 
Q 950 3725 888 3313 
L 325 3413 
Q 428 3978 793 4289 
Q 1159 4600 1703 4600 
Q 2078 4600 2393 4439 
Q 2709 4278 2876 4000 
Q 3044 3722 3044 3409 
Q 3044 3113 2884 2869 
Q 2725 2625 2413 2481 
Q 2819 2388 3044 2092 
Q 3269 1797 3269 1353 
Q 3269 753 2831 336 
Q 2394 -81 1725 -81 
Q 1122 -81 723 278 
Q 325 638 269 1209 
z
" transform="scale(0.015625)"/>
       </defs>
       <use xlink:href="#ArialMT-2212"/>
       <use xlink:href="#ArialMT-33" x="58.398438"/>
      </g>
     </g>
    </g>
    <g id="xtick_2">
     <g id="line2d_2">
      <g>
       <use xlink:href="#m7e281a85e7" x="53.433375" y="186.816" style="fill: #262626; stroke: #262626"/>
      </g>
     </g>
     <g id="text_2">
      <!-- −2 -->
      <g style="fill: #262626" transform="translate(48.416688 201.414875) scale(0.088 -0.088)">
       <defs>
        <path id="ArialMT-32" d="M 3222 541 
L 3222 0 
L 194 0 
Q 188 203 259 391 
Q 375 700 629 1000 
Q 884 1300 1366 1694 
Q 2113 2306 2375 2664 
Q 2638 3022 2638 3341 
Q 2638 3675 2398 3904 
Q 2159 4134 1775 4134 
Q 1369 4134 1125 3890 
Q 881 3647 878 3216 
L 300 3275 
Q 359 3922 746 4261 
Q 1134 4600 1788 4600 
Q 2447 4600 2831 4234 
Q 3216 3869 3216 3328 
Q 3216 3053 3103 2787 
Q 2991 2522 2730 2228 
Q 2469 1934 1863 1422 
Q 1356 997 1212 845 
Q 1069 694 975 541 
L 3222 541 
z
" transform="scale(0.015625)"/>
       </defs>
       <use xlink:href="#ArialMT-2212"/>
       <use xlink:href="#ArialMT-32" x="58.398438"/>
      </g>
     </g>
    </g>
    <g id="xtick_3">
     <g id="line2d_3">
      <g>
       <use xlink:href="#m7e281a85e7" x="81.333375" y="186.816" style="fill: #262626; stroke: #262626"/>
      </g>
     </g>
     <g id="text_3">
      <!-- −1 -->
      <g style="fill: #262626" transform="translate(76.316688 201.414875) scale(0.088 -0.088)">
       <defs>
        <path id="ArialMT-31" d="M 2384 0 
L 1822 0 
L 1822 3584 
Q 1619 3391 1289 3197 
Q 959 3003 697 2906 
L 697 3450 
Q 1169 3672 1522 3987 
Q 1875 4303 2022 4600 
L 2384 4600 
L 2384 0 
z
" transform="scale(0.015625)"/>
       </defs>
       <use xlink:href="#ArialMT-2212"/>
       <use xlink:href="#ArialMT-31" x="58.398438"/>
      </g>
     </g>
    </g>
    <g id="xtick_4">
     <g id="line2d_4">
      <g>
       <use xlink:href="#m7e281a85e7" x="109.233375" y="186.816" style="fill: #262626; stroke: #262626"/>
      </g>
     </g>
     <g id="text_4">
      <!-- 0 -->
      <g style="fill: #262626" transform="translate(106.786563 201.414875) scale(0.088 -0.088)">
       <defs>
        <path id="ArialMT-30" d="M 266 2259 
Q 266 3072 433 3567 
Q 600 4063 929 4331 
Q 1259 4600 1759 4600 
Q 2128 4600 2406 4451 
Q 2684 4303 2865 4023 
Q 3047 3744 3150 3342 
Q 3253 2941 3253 2259 
Q 3253 1453 3087 958 
Q 2922 463 2592 192 
Q 2263 -78 1759 -78 
Q 1097 -78 719 397 
Q 266 969 266 2259 
z
M 844 2259 
Q 844 1131 1108 757 
Q 1372 384 1759 384 
Q 2147 384 2411 759 
Q 2675 1134 2675 2259 
Q 2675 3391 2411 3762 
Q 2147 4134 1753 4134 
Q 1366 4134 1134 3806 
Q 844 3388 844 2259 
z
" transform="scale(0.015625)"/>
       </defs>
       <use xlink:href="#ArialMT-30"/>
      </g>
     </g>
    </g>
    <g id="xtick_5">
     <g id="line2d_5">
      <g>
       <use xlink:href="#m7e281a85e7" x="137.133375" y="186.816" style="fill: #262626; stroke: #262626"/>
      </g>
     </g>
     <g id="text_5">
      <!-- 1 -->
      <g style="fill: #262626" transform="translate(134.686563 201.414875) scale(0.088 -0.088)">
       <use xlink:href="#ArialMT-31"/>
      </g>
     </g>
    </g>
    <g id="xtick_6">
     <g id="line2d_6">
      <g>
       <use xlink:href="#m7e281a85e7" x="165.033375" y="186.816" style="fill: #262626; stroke: #262626"/>
      </g>
     </g>
     <g id="text_6">
      <!-- 2 -->
      <g style="fill: #262626" transform="translate(162.586563 201.414875) scale(0.088 -0.088)">
       <use xlink:href="#ArialMT-32"/>
      </g>
     </g>
    </g>
    <g id="xtick_7">
     <g id="line2d_7">
      <g>
       <use xlink:href="#m7e281a85e7" x="192.933375" y="186.816" style="fill: #262626; stroke: #262626"/>
      </g>
     </g>
     <g id="text_7">
      <!-- 3 -->
      <g style="fill: #262626" transform="translate(190.486563 201.414875) scale(0.088 -0.088)">
       <use xlink:href="#ArialMT-33"/>
      </g>
     </g>
    </g>
   </g>
   <g id="matplotlib.axis_2">
    <g id="ytick_1">
     <g id="line2d_8">
      <defs>
       <path id="ma058889d2a" d="M 0 0 
L -4.8 0 
" style="stroke: #262626"/>
      </defs>
      <g>
       <use xlink:href="#ma058889d2a" x="25.533375" y="186.816" style="fill: #262626; stroke: #262626"/>
      </g>
     </g>
     <g id="text_8">
      <!-- −3 -->
      <g style="fill: #262626" transform="translate(7.2 189.965438) scale(0.088 -0.088)">
       <use xlink:href="#ArialMT-2212"/>
       <use xlink:href="#ArialMT-33" x="58.398438"/>
      </g>
     </g>
    </g>
    <g id="ytick_2">
     <g id="line2d_9">
      <g>
       <use xlink:href="#ma058889d2a" x="25.533375" y="159.096" style="fill: #262626; stroke: #262626"/>
      </g>
     </g>
     <g id="text_9">
      <!-- −2 -->
      <g style="fill: #262626" transform="translate(7.2 162.245437) scale(0.088 -0.088)">
       <use xlink:href="#ArialMT-2212"/>
       <use xlink:href="#ArialMT-32" x="58.398438"/>
      </g>
     </g>
    </g>
    <g id="ytick_3">
     <g id="line2d_10">
      <g>
       <use xlink:href="#ma058889d2a" x="25.533375" y="131.376" style="fill: #262626; stroke: #262626"/>
      </g>
     </g>
     <g id="text_10">
      <!-- −1 -->
      <g style="fill: #262626" transform="translate(7.2 134.525438) scale(0.088 -0.088)">
       <use xlink:href="#ArialMT-2212"/>
       <use xlink:href="#ArialMT-31" x="58.398438"/>
      </g>
     </g>
    </g>
    <g id="ytick_4">
     <g id="line2d_11">
      <g>
       <use xlink:href="#ma058889d2a" x="25.533375" y="103.656" style="fill: #262626; stroke: #262626"/>
      </g>
     </g>
     <g id="text_11">
      <!-- 0 -->
      <g style="fill: #262626" transform="translate(12.33975 106.805437) scale(0.088 -0.088)">
       <use xlink:href="#ArialMT-30"/>
      </g>
     </g>
    </g>
    <g id="ytick_5">
     <g id="line2d_12">
      <g>
       <use xlink:href="#ma058889d2a" x="25.533375" y="75.936" style="fill: #262626; stroke: #262626"/>
      </g>
     </g>
     <g id="text_12">
      <!-- 1 -->
      <g style="fill: #262626" transform="translate(12.33975 79.085437) scale(0.088 -0.088)">
       <use xlink:href="#ArialMT-31"/>
      </g>
     </g>
    </g>
    <g id="ytick_6">
     <g id="line2d_13">
      <g>
       <use xlink:href="#ma058889d2a" x="25.533375" y="48.216" style="fill: #262626; stroke: #262626"/>
      </g>
     </g>
     <g id="text_13">
      <!-- 2 -->
      <g style="fill: #262626" transform="translate(12.33975 51.365437) scale(0.088 -0.088)">
       <use xlink:href="#ArialMT-32"/>
      </g>
     </g>
    </g>
    <g id="ytick_7">
     <g id="line2d_14">
      <g>
       <use xlink:href="#ma058889d2a" x="25.533375" y="20.496" style="fill: #262626; stroke: #262626"/>
      </g>
     </g>
     <g id="text_14">
      <!-- 3 -->
      <g style="fill: #262626" transform="translate(12.33975 23.645437) scale(0.088 -0.088)">
       <use xlink:href="#ArialMT-33"/>
      </g>
     </g>
    </g>
   </g>
   <g id="QuadContourSet_1">
    <path d="M 27.224284 186.816 
L 27.692177 186.816 
L 27.224284 185.753941 
L 26.952105 185.136 
L 26.190823 183.456 
L 25.533375 182.059918 
L 25.533375 183.456 
L 25.533375 185.136 
L 25.533375 186.816 
z
M 191.242466 186.816 
L 192.933375 186.816 
L 192.933375 185.136 
L 192.933375 183.456 
L 192.933375 182.059942 
L 192.27594 183.456 
L 191.514656 185.136 
L 191.242466 185.753968 
L 190.774586 186.816 
z
" clip-path="url(#pcab75945fe)" style="fill: #0b0920"/>
    <path d="M 27.224284 185.753941 
L 27.692177 186.816 
L 28.915193 186.816 
L 30.606102 186.816 
L 32.297011 186.816 
L 32.320384 186.816 
L 32.297011 186.758462 
L 31.63898 185.136 
L 30.929414 183.456 
L 30.606102 182.713273 
L 30.198199 181.776 
L 29.442024 180.096 
L 28.915193 178.967614 
L 28.657349 178.416 
L 27.848077 176.736 
L 27.224284 175.491699 
L 27.005282 175.056 
L 26.135219 173.376 
L 25.533375 172.259424 
L 25.533375 173.376 
L 25.533375 175.056 
L 25.533375 176.736 
L 25.533375 178.416 
L 25.533375 180.096 
L 25.533375 181.776 
L 25.533375 182.059918 
L 26.190823 183.456 
L 26.952105 185.136 
z
M 186.169739 186.816 
L 187.860648 186.816 
L 189.551557 186.816 
L 190.774586 186.816 
L 191.242466 185.753968 
L 191.514656 185.136 
L 192.27594 183.456 
L 192.933375 182.059942 
L 192.933375 181.776 
L 192.933375 180.096 
L 192.933375 178.416 
L 192.933375 176.736 
L 192.933375 175.056 
L 192.933375 173.376 
L 192.933375 172.259449 
L 192.331545 173.376 
L 191.46148 175.056 
L 191.242466 175.491724 
L 190.618685 176.736 
L 189.809413 178.416 
L 189.551557 178.967639 
L 189.024738 180.096 
L 188.268565 181.776 
L 187.860648 182.713302 
L 187.537348 183.456 
L 186.827784 185.136 
L 186.169739 186.758496 
L 186.14638 186.816 
z
" clip-path="url(#pcab75945fe)" style="fill: #20122e"/>
    <path d="M 32.297011 186.758462 
L 32.320384 186.816 
L 33.98792 186.816 
L 35.67883 186.816 
L 37.250264 186.816 
L 36.625924 185.136 
L 35.975295 183.456 
L 35.67883 182.713253 
L 35.305367 181.776 
L 34.613024 180.096 
L 33.98792 178.640048 
L 33.891751 178.416 
L 33.151844 176.736 
L 32.377116 175.056 
L 32.297011 174.886687 
L 31.58097 173.376 
L 30.74733 171.696 
L 30.606102 171.419376 
L 29.887115 170.016 
L 28.98537 168.336 
L 28.915193 168.208817 
L 28.053865 166.656 
L 27.224284 165.22945 
L 27.075948 164.976 
L 26.060817 163.296 
L 25.533375 162.458937 
L 25.533375 163.296 
L 25.533375 164.976 
L 25.533375 166.656 
L 25.533375 168.336 
L 25.533375 170.016 
L 25.533375 171.696 
L 25.533375 172.259424 
L 26.135219 173.376 
L 27.005282 175.056 
L 27.224284 175.491699 
L 27.848077 176.736 
L 28.657349 178.416 
L 28.915193 178.967614 
L 29.442024 180.096 
L 30.198199 181.776 
L 30.606102 182.713273 
L 30.929414 183.456 
L 31.63898 185.136 
z
M 182.78792 186.816 
L 184.47883 186.816 
L 186.14638 186.816 
L 186.169739 186.758496 
L 186.827784 185.136 
L 187.537348 183.456 
L 187.860648 182.713302 
L 188.268565 181.776 
L 189.024738 180.096 
L 189.551557 178.967639 
L 189.809413 178.416 
L 190.618685 176.736 
L 191.242466 175.491724 
L 191.46148 175.056 
L 192.331545 173.376 
L 192.933375 172.259449 
L 192.933375 171.696 
L 192.933375 170.016 
L 192.933375 168.336 
L 192.933375 166.656 
L 192.933375 164.976 
L 192.933375 163.296 
L 192.933375 162.458956 
L 192.405945 163.296 
L 191.390817 164.976 
L 191.242466 165.229474 
L 190.412899 166.656 
L 189.551557 168.208837 
L 189.481392 168.336 
L 188.579648 170.016 
L 187.860648 171.419403 
L 187.719433 171.696 
L 186.885794 173.376 
L 186.169739 174.886716 
L 186.089647 175.056 
L 185.31492 176.736 
L 184.575014 178.416 
L 184.47883 178.640084 
L 183.853741 180.096 
L 183.161398 181.776 
L 182.78792 182.713291 
L 182.49147 183.456 
L 181.840841 185.136 
L 181.2165 186.816 
z
" clip-path="url(#pcab75945fe)" style="fill: #34193d"/>
    <path d="M 37.369739 186.816 
L 39.060648 186.816 
L 40.751557 186.816 
L 42.442466 186.816 
L 42.542259 186.816 
L 42.442466 186.518782 
L 41.980459 185.136 
L 41.397601 183.456 
L 40.789676 181.776 
L 40.751557 181.673012 
L 40.169578 180.096 
L 39.522582 178.416 
L 39.060648 177.261019 
L 38.850953 176.736 
L 38.159229 175.056 
L 37.434176 173.376 
L 37.369739 173.230511 
L 36.689515 171.696 
L 35.908723 170.016 
L 35.67883 169.537043 
L 35.100809 168.336 
L 34.255315 166.656 
L 33.98792 166.142706 
L 33.377364 164.976 
L 32.456231 163.296 
L 32.297011 163.014898 
L 31.499414 161.616 
L 30.606102 160.125484 
L 30.491638 159.936 
L 29.442027 158.256 
L 28.915193 157.450005 
L 28.338047 156.576 
L 27.224284 154.967209 
L 27.174409 154.896 
L 25.956149 153.216 
L 25.533375 152.658444 
L 25.533375 153.216 
L 25.533375 154.896 
L 25.533375 156.576 
L 25.533375 158.256 
L 25.533375 159.936 
L 25.533375 161.616 
L 25.533375 162.458937 
L 26.060817 163.296 
L 27.075948 164.976 
L 27.224284 165.22945 
L 28.053865 166.656 
L 28.915193 168.208817 
L 28.98537 168.336 
L 29.887115 170.016 
L 30.606102 171.419376 
L 30.74733 171.696 
L 31.58097 173.376 
L 32.297011 174.886687 
L 32.377116 175.056 
L 33.151844 176.736 
L 33.891751 178.416 
L 33.98792 178.640048 
L 34.613024 180.096 
L 35.305367 181.776 
L 35.67883 182.713253 
L 35.975295 183.456 
L 36.625924 185.136 
L 37.250264 186.816 
z
M 176.024284 186.816 
L 177.715193 186.816 
L 179.406102 186.816 
L 181.097011 186.816 
L 181.2165 186.816 
L 181.840841 185.136 
L 182.49147 183.456 
L 182.78792 182.713291 
L 183.161398 181.776 
L 183.853741 180.096 
L 184.47883 178.640084 
L 184.575014 178.416 
L 185.31492 176.736 
L 186.089647 175.056 
L 186.169739 174.886716 
L 186.885794 173.376 
L 187.719433 171.696 
L 187.860648 171.419403 
L 188.579648 170.016 
L 189.481392 168.336 
L 189.551557 168.208837 
L 190.412899 166.656 
L 191.242466 165.229474 
L 191.390817 164.976 
L 192.405945 163.296 
L 192.933375 162.458956 
L 192.933375 161.616 
L 192.933375 159.936 
L 192.933375 158.256 
L 192.933375 156.576 
L 192.933375 154.896 
L 192.933375 153.216 
L 192.933375 152.658463 
L 192.510614 153.216 
L 191.292351 154.896 
L 191.242466 154.967224 
L 190.128716 156.576 
L 189.551557 157.450026 
L 189.024737 158.256 
L 187.975125 159.936 
L 187.860648 160.125505 
L 186.967349 161.616 
L 186.169739 163.014925 
L 186.010535 163.296 
L 185.0894 164.976 
L 184.47883 166.142734 
L 184.21145 166.656 
L 183.365956 168.336 
L 182.78792 169.537074 
L 182.558041 170.016 
L 181.77725 171.696 
L 181.097011 173.230544 
L 181.032588 173.376 
L 180.307534 175.056 
L 179.615811 176.736 
L 179.406102 177.261052 
L 178.94418 178.416 
L 178.297184 180.096 
L 177.715193 181.673048 
L 177.677088 181.776 
L 177.069162 183.456 
L 176.486304 185.136 
L 176.024284 186.518821 
L 175.924504 186.816 
z
" clip-path="url(#pcab75945fe)" style="fill: #491d49"/>
    <path d="M 42.442466 186.518782 
L 42.542259 186.816 
L 44.133375 186.816 
L 45.824284 186.816 
L 47.515193 186.816 
L 48.296842 186.816 
L 47.799679 185.136 
L 47.515193 184.204856 
L 47.287899 183.456 
L 46.762125 181.776 
L 46.213242 180.096 
L 45.824284 178.948583 
L 45.644546 178.416 
L 45.060408 176.736 
L 44.448777 175.056 
L 44.133375 174.219491 
L 43.81603 173.376 
L 43.160523 171.696 
L 42.471826 170.016 
L 42.442466 169.946222 
L 41.764723 168.336 
L 41.020688 166.656 
L 40.751557 166.069608 
L 40.248459 164.976 
L 39.439659 163.296 
L 39.060648 162.540015 
L 38.595315 161.616 
L 37.710128 159.936 
L 37.369739 159.315611 
L 36.784413 158.256 
L 35.808338 156.576 
L 35.67883 156.36083 
L 34.78895 154.896 
L 33.98792 153.645365 
L 33.709909 153.216 
L 32.574201 151.536 
L 32.297011 151.143117 
L 31.376349 149.856 
L 30.606102 148.831581 
L 30.105464 148.176 
L 28.915193 146.691206 
L 28.755959 146.496 
L 27.323117 144.816 
L 27.224284 144.704964 
L 25.798035 143.136 
L 25.533375 142.857957 
L 25.533375 143.136 
L 25.533375 144.816 
L 25.533375 146.496 
L 25.533375 148.176 
L 25.533375 149.856 
L 25.533375 151.536 
L 25.533375 152.658444 
L 25.956149 153.216 
L 27.174409 154.896 
L 27.224284 154.967209 
L 28.338047 156.576 
L 28.915193 157.450005 
L 29.442027 158.256 
L 30.491638 159.936 
L 30.606102 160.125484 
L 31.499414 161.616 
L 32.297011 163.014898 
L 32.456231 163.296 
L 33.377364 164.976 
L 33.98792 166.142706 
L 34.255315 166.656 
L 35.100809 168.336 
L 35.67883 169.537043 
L 35.908723 170.016 
L 36.689515 171.696 
L 37.369739 173.230511 
L 37.434176 173.376 
L 38.159229 175.056 
L 38.850953 176.736 
L 39.060648 177.261019 
L 39.522582 178.416 
L 40.169578 180.096 
L 40.751557 181.673012 
L 40.789676 181.776 
L 41.397601 183.456 
L 41.980459 185.136 
z
M 170.951557 186.816 
L 172.642466 186.816 
L 174.333375 186.816 
L 175.924504 186.816 
L 176.024284 186.518821 
L 176.486304 185.136 
L 177.069162 183.456 
L 177.677088 181.776 
L 177.715193 181.673048 
L 178.297184 180.096 
L 178.94418 178.416 
L 179.406102 177.261052 
L 179.615811 176.736 
L 180.307534 175.056 
L 181.032588 173.376 
L 181.097011 173.230544 
L 181.77725 171.696 
L 182.558041 170.016 
L 182.78792 169.537074 
L 183.365956 168.336 
L 184.21145 166.656 
L 184.47883 166.142734 
L 185.0894 164.976 
L 186.010535 163.296 
L 186.169739 163.014925 
L 186.967349 161.616 
L 187.860648 160.125505 
L 187.975125 159.936 
L 189.024737 158.256 
L 189.551557 157.450026 
L 190.128716 156.576 
L 191.242466 154.967224 
L 191.292351 154.896 
L 192.510614 153.216 
L 192.933375 152.658463 
L 192.933375 151.536 
L 192.933375 149.856 
L 192.933375 148.176 
L 192.933375 146.496 
L 192.933375 144.816 
L 192.933375 143.136 
L 192.933375 142.85797 
L 192.668728 143.136 
L 191.242466 144.704978 
L 191.143646 144.816 
L 189.710804 146.496 
L 189.551557 146.691222 
L 188.361299 148.176 
L 187.860648 148.831597 
L 187.090414 149.856 
L 186.169739 151.143139 
L 185.892564 151.536 
L 184.756854 153.216 
L 184.47883 153.645386 
L 183.677815 154.896 
L 182.78792 156.360854 
L 182.658427 156.576 
L 181.682352 158.256 
L 181.097011 159.315638 
L 180.756636 159.936 
L 179.871449 161.616 
L 179.406102 162.540043 
L 179.027105 163.296 
L 178.218304 164.976 
L 177.715193 166.069638 
L 177.446076 166.656 
L 176.70204 168.336 
L 176.024284 169.946254 
L 175.994937 170.016 
L 175.30624 171.696 
L 174.650731 173.376 
L 174.333375 174.219522 
L 174.017986 175.056 
L 173.406356 176.736 
L 172.822219 178.416 
L 172.642466 178.948628 
L 172.253522 180.096 
L 171.704638 181.776 
L 171.178865 183.456 
L 170.951557 184.204897 
L 170.667083 185.136 
L 170.169922 186.816 
z
" clip-path="url(#pcab75945fe)" style="fill: #611f53"/>
    <path d="M 49.206102 186.816 
L 50.897011 186.816 
L 52.58792 186.816 
L 54.27883 186.816 
L 54.647734 186.816 
L 54.27883 185.334945 
L 54.229787 185.136 
L 53.805889 183.456 
L 53.363761 181.776 
L 52.902198 180.096 
L 52.58792 178.992846 
L 52.424832 178.416 
L 51.935188 176.736 
L 51.422499 175.056 
L 50.897011 173.412356 
L 50.885448 173.376 
L 50.337631 171.696 
L 49.762077 170.016 
L 49.206102 168.4701 
L 49.157996 168.336 
L 48.537966 166.656 
L 47.883959 164.976 
L 47.515193 164.06764 
L 47.201813 163.296 
L 46.490664 161.616 
L 45.824284 160.125443 
L 45.739357 159.936 
L 44.960431 158.256 
L 44.133375 156.578612 
L 44.13208 156.576 
L 43.272015 154.896 
L 42.442466 153.373668 
L 42.355857 153.216 
L 41.397604 151.536 
L 40.751557 150.466203 
L 40.378971 149.856 
L 39.300409 148.176 
L 39.060648 147.819009 
L 38.159233 146.496 
L 37.369739 145.400704 
L 36.941283 144.816 
L 35.67883 143.184623 
L 35.640492 143.136 
L 34.255315 141.456 
L 33.98792 141.148023 
L 32.768987 139.776 
L 32.297011 139.271338 
L 31.169236 138.096 
L 30.606102 137.537685 
L 29.442028 136.416 
L 28.915193 135.932402 
L 27.56999 134.736 
L 27.224284 134.442725 
L 25.533375 133.057465 
L 25.533375 134.736 
L 25.533375 136.416 
L 25.533375 138.096 
L 25.533375 139.776 
L 25.533375 141.456 
L 25.533375 142.857957 
L 25.798035 143.136 
L 27.224284 144.704964 
L 27.323117 144.816 
L 28.755959 146.496 
L 28.915193 146.691206 
L 30.105464 148.176 
L 30.606102 148.831581 
L 31.376349 149.856 
L 32.297011 151.143117 
L 32.574201 151.536 
L 33.709909 153.216 
L 33.98792 153.645365 
L 34.78895 154.896 
L 35.67883 156.36083 
L 35.808338 156.576 
L 36.784413 158.256 
L 37.369739 159.315611 
L 37.710128 159.936 
L 38.595315 161.616 
L 39.060648 162.540015 
L 39.439659 163.296 
L 40.248459 164.976 
L 40.751557 166.069608 
L 41.020688 166.656 
L 41.764723 168.336 
L 42.442466 169.946222 
L 42.471826 170.016 
L 43.160523 171.696 
L 43.81603 173.376 
L 44.133375 174.219491 
L 44.448777 175.056 
L 45.060408 176.736 
L 45.644546 178.416 
L 45.824284 178.948583 
L 46.213242 180.096 
L 46.762125 181.776 
L 47.287899 183.456 
L 47.515193 184.204856 
L 47.799679 185.136 
L 48.296842 186.816 
z
M 164.18792 186.816 
L 165.87883 186.816 
L 167.569739 186.816 
L 169.260648 186.816 
L 170.169922 186.816 
L 170.667083 185.136 
L 170.951557 184.204897 
L 171.178865 183.456 
L 171.704638 181.776 
L 172.253522 180.096 
L 172.642466 178.948628 
L 172.822219 178.416 
L 173.406356 176.736 
L 174.017986 175.056 
L 174.333375 174.219522 
L 174.650731 173.376 
L 175.30624 171.696 
L 175.994937 170.016 
L 176.024284 169.946254 
L 176.70204 168.336 
L 177.446076 166.656 
L 177.715193 166.069638 
L 178.218304 164.976 
L 179.027105 163.296 
L 179.406102 162.540043 
L 179.871449 161.616 
L 180.756636 159.936 
L 181.097011 159.315638 
L 181.682352 158.256 
L 182.658427 156.576 
L 182.78792 156.360854 
L 183.677815 154.896 
L 184.47883 153.645386 
L 184.756854 153.216 
L 185.892564 151.536 
L 186.169739 151.143139 
L 187.090414 149.856 
L 187.860648 148.831597 
L 188.361299 148.176 
L 189.551557 146.691222 
L 189.710804 146.496 
L 191.143646 144.816 
L 191.242466 144.704978 
L 192.668728 143.136 
L 192.933375 142.85797 
L 192.933375 141.456 
L 192.933375 139.776 
L 192.933375 138.096 
L 192.933375 136.416 
L 192.933375 134.736 
L 192.933375 133.057477 
L 191.242466 134.442735 
L 190.896772 134.736 
L 189.551557 135.932415 
L 189.024736 136.416 
L 187.860648 137.537698 
L 187.297527 138.096 
L 186.169739 139.271352 
L 185.697776 139.776 
L 184.47883 141.14804 
L 184.21145 141.456 
L 182.826273 143.136 
L 182.78792 143.184642 
L 181.525481 144.816 
L 181.097011 145.400724 
L 180.307531 146.496 
L 179.406102 147.819026 
L 179.166353 148.176 
L 178.087793 149.856 
L 177.715193 150.466226 
L 177.06916 151.536 
L 176.110906 153.216 
L 176.024284 153.373692 
L 175.194748 154.896 
L 174.334682 156.576 
L 174.333375 156.578637 
L 173.506331 158.256 
L 172.727407 159.936 
L 172.642466 160.125475 
L 171.976099 161.616 
L 171.264949 163.296 
L 170.951557 164.067669 
L 170.582802 164.976 
L 169.928797 166.656 
L 169.308767 168.336 
L 169.260648 168.470136 
L 168.704685 170.016 
L 168.12913 171.696 
L 167.581313 173.376 
L 167.569739 173.412389 
L 167.044262 175.056 
L 166.531575 176.736 
L 166.041931 178.416 
L 165.87883 178.992894 
L 165.564567 180.096 
L 165.103005 181.776 
L 164.660878 183.456 
L 164.236982 185.136 
L 164.18792 185.335022 
L 163.819036 186.816 
z
" clip-path="url(#pcab75945fe)" style="fill: #781f59"/>
    <path d="M 54.27883 185.334945 
L 54.647734 186.816 
L 55.969739 186.816 
L 57.660648 186.816 
L 59.351557 186.816 
L 61.042466 186.816 
L 61.846932 186.816 
L 61.527328 185.136 
L 61.194268 183.456 
L 61.042466 182.713059 
L 60.853627 181.776 
L 60.503475 180.096 
L 60.137587 178.416 
L 59.754878 176.736 
L 59.354154 175.056 
L 59.351557 175.045362 
L 58.94804 173.376 
L 58.521959 171.696 
L 58.074305 170.016 
L 57.660648 168.535701 
L 57.60524 168.336 
L 57.125218 166.656 
L 56.61889 164.976 
L 56.084038 163.296 
L 55.969739 162.948851 
L 55.532288 161.616 
L 54.951386 159.936 
L 54.334738 158.256 
L 54.27883 158.108629 
L 53.697113 156.576 
L 53.019482 154.896 
L 52.58792 153.880561 
L 52.304497 153.216 
L 51.552924 151.536 
L 50.897011 150.160237 
L 50.750984 149.856 
L 49.908683 148.176 
L 49.206102 146.865393 
L 49.00603 146.496 
L 48.050801 144.816 
L 47.515193 143.930423 
L 47.02781 143.136 
L 45.929654 141.456 
L 45.824284 141.302289 
L 44.758152 139.776 
L 44.133375 138.937741 
L 43.492275 138.096 
L 42.442466 136.80111 
L 42.122438 136.416 
L 40.751557 134.862801 
L 40.636468 134.736 
L 39.060648 133.098005 
L 39.018945 133.056 
L 37.369739 131.485802 
L 37.250268 131.376 
L 35.67883 130.008416 
L 35.305368 129.696 
L 33.98792 128.650682 
L 33.151847 128.016 
L 32.297011 127.399558 
L 30.747334 126.336 
L 30.606102 126.243789 
L 28.915193 125.173603 
L 28.053864 124.656 
L 27.224284 124.180484 
L 25.533375 123.256978 
L 25.533375 124.656 
L 25.533375 126.336 
L 25.533375 128.016 
L 25.533375 129.696 
L 25.533375 131.376 
L 25.533375 133.056 
L 25.533375 133.057465 
L 27.224284 134.442725 
L 27.56999 134.736 
L 28.915193 135.932402 
L 29.442028 136.416 
L 30.606102 137.537685 
L 31.169236 138.096 
L 32.297011 139.271338 
L 32.768987 139.776 
L 33.98792 141.148023 
L 34.255315 141.456 
L 35.640492 143.136 
L 35.67883 143.184623 
L 36.941283 144.816 
L 37.369739 145.400704 
L 38.159233 146.496 
L 39.060648 147.819009 
L 39.300409 148.176 
L 40.378971 149.856 
L 40.751557 150.466203 
L 41.397604 151.536 
L 42.355857 153.216 
L 42.442466 153.373668 
L 43.272015 154.896 
L 44.13208 156.576 
L 44.133375 156.578612 
L 44.960431 158.256 
L 45.739357 159.936 
L 45.824284 160.125443 
L 46.490664 161.616 
L 47.201813 163.296 
L 47.515193 164.06764 
L 47.883959 164.976 
L 48.537966 166.656 
L 49.157996 168.336 
L 49.206102 168.4701 
L 49.762077 170.016 
L 50.337631 171.696 
L 50.885448 173.376 
L 50.897011 173.412356 
L 51.422499 175.056 
L 51.935188 176.736 
L 52.424832 178.416 
L 52.58792 178.992846 
L 52.902198 180.096 
L 53.363761 181.776 
L 53.805889 183.456 
L 54.229787 185.136 
z
M 157.424284 186.816 
L 159.115193 186.816 
L 160.806102 186.816 
L 162.497011 186.816 
L 163.819036 186.816 
L 164.18792 185.335022 
L 164.236982 185.136 
L 164.660878 183.456 
L 165.103005 181.776 
L 165.564567 180.096 
L 165.87883 178.992894 
L 166.041931 178.416 
L 166.531575 176.736 
L 167.044262 175.056 
L 167.569739 173.412389 
L 167.581313 173.376 
L 168.12913 171.696 
L 168.704685 170.016 
L 169.260648 168.470136 
L 169.308767 168.336 
L 169.928797 166.656 
L 170.582802 164.976 
L 170.951557 164.067669 
L 171.264949 163.296 
L 171.976099 161.616 
L 172.642466 160.125475 
L 172.727407 159.936 
L 173.506331 158.256 
L 174.333375 156.578637 
L 174.334682 156.576 
L 175.194748 154.896 
L 176.024284 153.373692 
L 176.110906 153.216 
L 177.06916 151.536 
L 177.715193 150.466226 
L 178.087793 149.856 
L 179.166353 148.176 
L 179.406102 147.819026 
L 180.307531 146.496 
L 181.097011 145.400724 
L 181.525481 144.816 
L 182.78792 143.184642 
L 182.826273 143.136 
L 184.21145 141.456 
L 184.47883 141.14804 
L 185.697776 139.776 
L 186.169739 139.271352 
L 187.297527 138.096 
L 187.860648 137.537698 
L 189.024736 136.416 
L 189.551557 135.932415 
L 190.896772 134.736 
L 191.242466 134.442735 
L 192.933375 133.057477 
L 192.933375 133.056 
L 192.933375 131.376 
L 192.933375 129.696 
L 192.933375 128.016 
L 192.933375 126.336 
L 192.933375 124.656 
L 192.933375 123.256984 
L 191.242466 124.180491 
L 190.412899 124.656 
L 189.551557 125.173611 
L 187.860648 126.243798 
L 187.719428 126.336 
L 186.169739 127.399569 
L 185.314918 128.016 
L 184.47883 128.650693 
L 183.161395 129.696 
L 182.78792 130.008427 
L 181.216497 131.376 
L 181.097011 131.485815 
L 179.447819 133.056 
L 179.406102 133.098019 
L 177.830296 134.736 
L 177.715193 134.862816 
L 176.344325 136.416 
L 176.024284 136.801126 
L 174.974487 138.096 
L 174.333375 138.937757 
L 173.708612 139.776 
L 172.642466 141.302311 
L 172.537111 141.456 
L 171.438953 143.136 
L 170.951557 143.930445 
L 170.415963 144.816 
L 169.460733 146.496 
L 169.260648 146.865418 
L 168.558079 148.176 
L 167.715777 149.856 
L 167.569739 150.16026 
L 166.913839 151.536 
L 166.162267 153.216 
L 165.87883 153.880595 
L 165.447284 154.896 
L 164.769654 156.576 
L 164.18792 158.108681 
L 164.132032 158.256 
L 163.515383 159.936 
L 162.934481 161.616 
L 162.497011 162.948913 
L 162.382733 163.296 
L 161.84788 164.976 
L 161.341553 166.656 
L 160.861529 168.336 
L 160.806102 168.535772 
L 160.392466 170.016 
L 159.944812 171.696 
L 159.518731 173.376 
L 159.115193 175.045447 
L 159.112616 175.056 
L 158.711894 176.736 
L 158.329183 178.416 
L 157.963295 180.096 
L 157.613144 181.776 
L 157.424284 182.713155 
L 157.272501 183.456 
L 156.939442 185.136 
L 156.619838 186.816 
z
" clip-path="url(#pcab75945fe)" style="fill: #901d5b"/>
    <path d="M 62.733375 186.816 
L 64.424284 186.816 
L 66.115193 186.816 
L 67.806102 186.816 
L 69.497011 186.816 
L 70.354308 186.816 
L 70.159767 185.136 
L 69.957034 183.456 
L 69.745581 181.776 
L 69.524835 180.096 
L 69.497011 179.889364 
L 69.302618 178.416 
L 69.071398 176.736 
L 68.829296 175.056 
L 68.575529 173.376 
L 68.309228 171.696 
L 68.029443 170.016 
L 67.806102 168.733316 
L 67.737964 168.336 
L 67.440349 166.656 
L 67.126426 164.976 
L 66.794817 163.296 
L 66.443983 161.616 
L 66.115193 160.125261 
L 66.073858 159.936 
L 65.694383 158.256 
L 65.290813 156.576 
L 64.86078 154.896 
L 64.424284 153.296435 
L 64.402431 153.216 
L 63.929218 151.536 
L 63.421588 149.856 
L 62.87565 148.176 
L 62.733375 147.758065 
L 62.302837 146.496 
L 61.688762 144.816 
L 61.042466 143.184526 
L 61.023116 143.136 
L 60.322565 141.456 
L 59.556848 139.776 
L 59.351557 139.350674 
L 58.737599 138.096 
L 57.841871 136.416 
L 57.660648 136.095844 
L 56.875476 134.736 
L 55.969739 133.302423 
L 55.810295 133.056 
L 54.647735 131.376 
L 54.27883 130.882314 
L 53.363762 129.696 
L 52.58792 128.76828 
L 51.93519 128.016 
L 50.897011 126.908117 
L 50.337634 126.336 
L 49.206102 125.260697 
L 48.537966 124.656 
L 47.515193 123.793213 
L 46.490668 122.976 
L 45.824284 122.479145 
L 44.133375 121.296871 
L 44.13208 121.296 
L 42.442466 120.228555 
L 41.397604 119.616 
L 40.751557 119.2594 
L 39.060648 118.377002 
L 38.159235 117.936 
L 37.369739 117.570901 
L 35.67883 116.832207 
L 34.255319 116.256 
L 33.98792 116.153339 
L 32.297011 115.527778 
L 30.606102 114.949894 
L 29.44203 114.576 
L 28.915193 114.4148 
L 27.224284 113.91824 
L 25.533375 113.456488 
L 25.533375 114.576 
L 25.533375 116.256 
L 25.533375 117.936 
L 25.533375 119.616 
L 25.533375 121.296 
L 25.533375 122.976 
L 25.533375 123.256978 
L 27.224284 124.180484 
L 28.053864 124.656 
L 28.915193 125.173603 
L 30.606102 126.243789 
L 30.747334 126.336 
L 32.297011 127.399558 
L 33.151847 128.016 
L 33.98792 128.650682 
L 35.305368 129.696 
L 35.67883 130.008416 
L 37.250268 131.376 
L 37.369739 131.485802 
L 39.018945 133.056 
L 39.060648 133.098005 
L 40.636468 134.736 
L 40.751557 134.862801 
L 42.122438 136.416 
L 42.442466 136.80111 
L 43.492275 138.096 
L 44.133375 138.937741 
L 44.758152 139.776 
L 45.824284 141.302289 
L 45.929654 141.456 
L 47.02781 143.136 
L 47.515193 143.930423 
L 48.050801 144.816 
L 49.00603 146.496 
L 49.206102 146.865393 
L 49.908683 148.176 
L 50.750984 149.856 
L 50.897011 150.160237 
L 51.552924 151.536 
L 52.304497 153.216 
L 52.58792 153.880561 
L 53.019482 154.896 
L 53.697113 156.576 
L 54.27883 158.108629 
L 54.334738 158.256 
L 54.951386 159.936 
L 55.532288 161.616 
L 55.969739 162.948851 
L 56.084038 163.296 
L 56.61889 164.976 
L 57.125218 166.656 
L 57.60524 168.336 
L 57.660648 168.535701 
L 58.074305 170.016 
L 58.521959 171.696 
L 58.94804 173.376 
L 59.351557 175.045362 
L 59.354154 175.056 
L 59.754878 176.736 
L 60.137587 178.416 
L 60.503475 180.096 
L 60.853627 181.776 
L 61.042466 182.713059 
L 61.194268 183.456 
L 61.527328 185.136 
L 61.846932 186.816 
z
M 148.969739 186.816 
L 150.660648 186.816 
L 152.351557 186.816 
L 154.042466 186.816 
L 155.733375 186.816 
L 156.619838 186.816 
L 156.939442 185.136 
L 157.272501 183.456 
L 157.424284 182.713155 
L 157.613144 181.776 
L 157.963295 180.096 
L 158.329183 178.416 
L 158.711894 176.736 
L 159.112616 175.056 
L 159.115193 175.045447 
L 159.518731 173.376 
L 159.944812 171.696 
L 160.392466 170.016 
L 160.806102 168.535772 
L 160.861529 168.336 
L 161.341553 166.656 
L 161.84788 164.976 
L 162.382733 163.296 
L 162.497011 162.948913 
L 162.934481 161.616 
L 163.515383 159.936 
L 164.132032 158.256 
L 164.18792 158.108681 
L 164.769654 156.576 
L 165.447284 154.896 
L 165.87883 153.880595 
L 166.162267 153.216 
L 166.913839 151.536 
L 167.569739 150.16026 
L 167.715777 149.856 
L 168.558079 148.176 
L 169.260648 146.865418 
L 169.460733 146.496 
L 170.415963 144.816 
L 170.951557 143.930445 
L 171.438953 143.136 
L 172.537111 141.456 
L 172.642466 141.302311 
L 173.708612 139.776 
L 174.333375 138.937757 
L 174.974487 138.096 
L 176.024284 136.801126 
L 176.344325 136.416 
L 177.715193 134.862816 
L 177.830296 134.736 
L 179.406102 133.098019 
L 179.447819 133.056 
L 181.097011 131.485815 
L 181.216497 131.376 
L 182.78792 130.008427 
L 183.161395 129.696 
L 184.47883 128.650693 
L 185.314918 128.016 
L 186.169739 127.399569 
L 187.719428 126.336 
L 187.860648 126.243798 
L 189.551557 125.173611 
L 190.412899 124.656 
L 191.242466 124.180491 
L 192.933375 123.256984 
L 192.933375 122.976 
L 192.933375 121.296 
L 192.933375 119.616 
L 192.933375 117.936 
L 192.933375 116.256 
L 192.933375 114.576 
L 192.933375 113.456491 
L 191.242466 113.918244 
L 189.551557 114.414804 
L 189.024733 114.576 
L 187.860648 114.949898 
L 186.169739 115.527783 
L 184.47883 116.153345 
L 184.211446 116.256 
L 182.78792 116.832213 
L 181.097011 117.570908 
L 180.307528 117.936 
L 179.406102 118.377009 
L 177.715193 119.259408 
L 177.069159 119.616 
L 176.024284 120.228564 
L 174.334682 121.296 
L 174.333375 121.296879 
L 172.642466 122.479156 
L 171.976097 122.976 
L 170.951557 123.793223 
L 169.928796 124.656 
L 169.260648 125.260709 
L 168.129129 126.336 
L 167.569739 126.908129 
L 166.531573 128.016 
L 165.87883 128.768296 
L 165.103004 129.696 
L 164.18792 130.882339 
L 163.819034 131.376 
L 162.656474 133.056 
L 162.497011 133.302453 
L 161.591294 134.736 
L 160.806102 136.095882 
L 160.624901 136.416 
L 159.729172 138.096 
L 159.115193 139.350719 
L 158.909924 139.776 
L 158.144205 141.456 
L 157.443655 143.136 
L 157.424284 143.184578 
L 156.778008 144.816 
L 156.163933 146.496 
L 155.733375 147.758123 
L 155.59112 148.176 
L 155.04518 149.856 
L 154.53755 151.536 
L 154.064338 153.216 
L 154.042466 153.296506 
L 153.605989 154.896 
L 153.175956 156.576 
L 152.772386 158.256 
L 152.392911 159.936 
L 152.351557 160.125349 
L 152.022788 161.616 
L 151.671953 163.296 
L 151.340344 164.976 
L 151.02642 166.656 
L 150.728806 168.336 
L 150.660648 168.733433 
L 150.437327 170.016 
L 150.157542 171.696 
L 149.891241 173.376 
L 149.637474 175.056 
L 149.395372 176.736 
L 149.164151 178.416 
L 148.969739 179.889517 
L 148.941936 180.096 
L 148.721188 181.776 
L 148.509736 183.456 
L 148.307003 185.136 
L 148.112462 186.816 
z
M 106.697011 24.598163 
L 108.38792 25.179477 
L 110.07883 25.179477 
L 111.769739 24.598172 
L 112.831245 23.856 
L 113.460648 23.409324 
L 114.595331 22.176 
L 115.151557 21.557468 
L 115.853002 20.496 
L 115.151557 20.496 
L 113.460648 20.496 
L 111.769739 20.496 
L 110.07883 20.496 
L 108.38792 20.496 
L 106.697011 20.496 
L 105.006102 20.496 
L 103.315193 20.496 
L 102.613763 20.496 
L 103.315193 21.557451 
L 103.871434 22.176 
L 105.006102 23.409312 
L 105.635518 23.856 
z
" clip-path="url(#pcab75945fe)" style="fill: #a8185a"/>
    <path d="M 71.18792 186.816 
L 72.87883 186.816 
L 74.569739 186.816 
L 76.260648 186.816 
L 77.951557 186.816 
L 79.642466 186.816 
L 81.333375 186.816 
L 81.333472 186.816 
L 81.333472 185.136 
L 81.333472 183.456 
L 81.333472 181.776 
L 81.333472 180.096 
L 81.333472 178.416 
L 81.333472 176.736 
L 81.333472 175.056 
L 81.333472 173.376 
L 81.333472 171.696 
L 81.333472 170.016 
L 81.333472 168.336 
L 81.333472 166.656 
L 81.333472 164.976 
L 81.333472 163.296 
L 81.333472 161.616 
L 81.333472 159.936 
L 81.333472 158.256 
L 81.333472 156.576 
L 81.333472 154.896 
L 81.333472 153.216 
L 81.333472 151.536 
L 81.333472 149.856 
L 81.333472 148.176 
L 81.333472 146.496 
L 81.333472 144.816 
L 81.333472 143.136 
L 81.333472 141.456 
L 81.333472 139.776 
L 81.333472 138.096 
L 81.333472 136.416 
L 81.333472 134.736 
L 81.333472 133.056 
L 81.333472 131.376 
L 81.333472 129.696 
L 81.333472 128.016 
L 81.333472 126.336 
L 81.333472 124.656 
L 81.333472 122.976 
L 81.333472 121.296 
L 81.333472 119.616 
L 81.333472 117.936 
L 81.333472 116.256 
L 81.333472 114.576 
L 81.333472 112.896 
L 81.333472 111.216 
L 81.333472 109.536 
L 81.333472 107.856 
L 81.333472 106.176 
L 81.333472 104.496 
L 81.333375 103.655998 
L 79.642466 103.655998 
L 77.951557 103.655998 
L 76.260648 103.655998 
L 74.569739 103.655998 
L 72.87883 103.655998 
L 71.18792 103.655998 
L 69.497011 103.655998 
L 67.806102 103.655998 
L 66.115193 103.655998 
L 64.424284 103.655998 
L 62.733375 103.655998 
L 61.042466 103.655998 
L 59.351557 103.655998 
L 57.660648 103.655998 
L 55.969739 103.655998 
L 54.27883 103.655998 
L 52.58792 103.655998 
L 50.897011 103.655998 
L 49.206102 103.655998 
L 47.515193 103.655998 
L 45.824284 103.655998 
L 44.133375 103.655998 
L 42.442466 103.655998 
L 40.751557 103.655998 
L 39.060648 103.655998 
L 37.369739 103.655998 
L 35.67883 103.655998 
L 33.98792 103.655998 
L 32.297011 103.655998 
L 30.606102 103.655998 
L 28.915193 103.655998 
L 27.224284 103.655998 
L 25.533375 103.655998 
L 25.533375 104.496 
L 25.533375 106.176 
L 25.533375 107.856 
L 25.533375 109.536 
L 25.533375 111.216 
L 25.533375 112.896 
L 25.533375 113.456488 
L 27.224284 113.91824 
L 28.915193 114.4148 
L 29.44203 114.576 
L 30.606102 114.949894 
L 32.297011 115.527778 
L 33.98792 116.153339 
L 34.255319 116.256 
L 35.67883 116.832207 
L 37.369739 117.570901 
L 38.159235 117.936 
L 39.060648 118.377002 
L 40.751557 119.2594 
L 41.397604 119.616 
L 42.442466 120.228555 
L 44.13208 121.296 
L 44.133375 121.296871 
L 45.824284 122.479145 
L 46.490668 122.976 
L 47.515193 123.793213 
L 48.537966 124.656 
L 49.206102 125.260697 
L 50.337634 126.336 
L 50.897011 126.908117 
L 51.93519 128.016 
L 52.58792 128.76828 
L 53.363762 129.696 
L 54.27883 130.882314 
L 54.647735 131.376 
L 55.810295 133.056 
L 55.969739 133.302423 
L 56.875476 134.736 
L 57.660648 136.095844 
L 57.841871 136.416 
L 58.737599 138.096 
L 59.351557 139.350674 
L 59.556848 139.776 
L 60.322565 141.456 
L 61.023116 143.136 
L 61.042466 143.184526 
L 61.688762 144.816 
L 62.302837 146.496 
L 62.733375 147.758065 
L 62.87565 148.176 
L 63.421588 149.856 
L 63.929218 151.536 
L 64.402431 153.216 
L 64.424284 153.296435 
L 64.86078 154.896 
L 65.290813 156.576 
L 65.694383 158.256 
L 66.073858 159.936 
L 66.115193 160.125261 
L 66.443983 161.616 
L 66.794817 163.296 
L 67.126426 164.976 
L 67.440349 166.656 
L 67.737964 168.336 
L 67.806102 168.733316 
L 68.029443 170.016 
L 68.309228 171.696 
L 68.575529 173.376 
L 68.829296 175.056 
L 69.071398 176.736 
L 69.302618 178.416 
L 69.497011 179.889364 
L 69.524835 180.096 
L 69.745581 181.776 
L 69.957034 183.456 
L 70.159767 185.136 
L 70.354308 186.816 
z
M 137.133375 186.816 
L 138.824284 186.816 
L 140.515193 186.816 
L 142.206102 186.816 
L 143.897011 186.816 
L 145.58792 186.816 
L 147.27883 186.816 
L 148.112462 186.816 
L 148.307003 185.136 
L 148.509736 183.456 
L 148.721188 181.776 
L 148.941936 180.096 
L 148.969739 179.889517 
L 149.164151 178.416 
L 149.395372 176.736 
L 149.637474 175.056 
L 149.891241 173.376 
L 150.157542 171.696 
L 150.437327 170.016 
L 150.660648 168.733433 
L 150.728806 168.336 
L 151.02642 166.656 
L 151.340344 164.976 
L 151.671953 163.296 
L 152.022788 161.616 
L 152.351557 160.125349 
L 152.392911 159.936 
L 152.772386 158.256 
L 153.175956 156.576 
L 153.605989 154.896 
L 154.042466 153.296506 
L 154.064338 153.216 
L 154.53755 151.536 
L 155.04518 149.856 
L 155.59112 148.176 
L 155.733375 147.758123 
L 156.163933 146.496 
L 156.778008 144.816 
L 157.424284 143.184578 
L 157.443655 143.136 
L 158.144205 141.456 
L 158.909924 139.776 
L 159.115193 139.350719 
L 159.729172 138.096 
L 160.624901 136.416 
L 160.806102 136.095882 
L 161.591294 134.736 
L 162.497011 133.302453 
L 162.656474 133.056 
L 163.819034 131.376 
L 164.18792 130.882339 
L 165.103004 129.696 
L 165.87883 128.768296 
L 166.531573 128.016 
L 167.569739 126.908129 
L 168.129129 126.336 
L 169.260648 125.260709 
L 169.928796 124.656 
L 170.951557 123.793223 
L 171.976097 122.976 
L 172.642466 122.479156 
L 174.333375 121.296879 
L 174.334682 121.296 
L 176.024284 120.228564 
L 177.069159 119.616 
L 177.715193 119.259408 
L 179.406102 118.377009 
L 180.307528 117.936 
L 181.097011 117.570908 
L 182.78792 116.832213 
L 184.211446 116.256 
L 184.47883 116.153345 
L 186.169739 115.527783 
L 187.860648 114.949898 
L 189.024733 114.576 
L 189.551557 114.414804 
L 191.242466 113.918244 
L 192.933375 113.456491 
L 192.933375 112.896 
L 192.933375 111.216 
L 192.933375 109.536 
L 192.933375 107.856 
L 192.933375 106.176 
L 192.933375 104.496 
L 192.933375 103.655998 
L 191.242466 103.655998 
L 189.551557 103.655998 
L 187.860648 103.655998 
L 186.169739 103.655998 
L 184.47883 103.655998 
L 182.78792 103.655998 
L 181.097011 103.655998 
L 179.406102 103.655998 
L 177.715193 103.655998 
L 176.024284 103.655998 
L 174.333375 103.655998 
L 172.642466 103.655998 
L 170.951557 103.655998 
L 169.260648 103.655998 
L 167.569739 103.655998 
L 165.87883 103.655998 
L 164.18792 103.655998 
L 162.497011 103.655998 
L 160.806102 103.655998 
L 159.115193 103.655998 
L 157.424284 103.655998 
L 155.733375 103.655998 
L 154.042466 103.655998 
L 152.351557 103.655998 
L 150.660648 103.655998 
L 148.969739 103.655998 
L 147.27883 103.655998 
L 145.58792 103.655998 
L 143.897011 103.655998 
L 142.206102 103.655998 
L 140.515193 103.655998 
L 138.824284 103.655998 
L 137.133375 103.655998 
L 137.133298 104.496 
L 137.133298 106.176 
L 137.133298 107.856 
L 137.133298 109.536 
L 137.133298 111.216 
L 137.133298 112.896 
L 137.133298 114.576 
L 137.133298 116.256 
L 137.133298 117.936 
L 137.133298 119.616 
L 137.133298 121.296 
L 137.133298 122.976 
L 137.133298 124.656 
L 137.133298 126.336 
L 137.133298 128.016 
L 137.133298 129.696 
L 137.133298 131.376 
L 137.133298 133.056 
L 137.133298 134.736 
L 137.133298 136.416 
L 137.133298 138.096 
L 137.133298 139.776 
L 137.133298 141.456 
L 137.133298 143.136 
L 137.133298 144.816 
L 137.133298 146.496 
L 137.133298 148.176 
L 137.133298 149.856 
L 137.133298 151.536 
L 137.133298 153.216 
L 137.133298 154.896 
L 137.133298 156.576 
L 137.133298 158.256 
L 137.133298 159.936 
L 137.133298 161.616 
L 137.133298 163.296 
L 137.133298 164.976 
L 137.133298 166.656 
L 137.133298 168.336 
L 137.133298 170.016 
L 137.133298 171.696 
L 137.133298 173.376 
L 137.133298 175.056 
L 137.133298 176.736 
L 137.133298 178.416 
L 137.133298 180.096 
L 137.133298 181.776 
L 137.133298 183.456 
L 137.133298 185.136 
L 137.133298 186.816 
z
M 83.024284 103.655998 
L 84.715193 103.655998 
L 86.406102 103.655998 
L 88.097011 103.655998 
L 89.78792 103.655998 
L 91.47883 103.655998 
L 93.169739 103.655998 
L 94.860648 103.655998 
L 96.551557 103.655998 
L 98.242466 103.655998 
L 99.933375 103.655998 
L 101.624284 103.655998 
L 103.315193 103.655998 
L 105.006102 103.655998 
L 106.697011 103.655998 
L 108.38792 103.655998 
L 110.07883 103.655998 
L 111.769739 103.655998 
L 113.460648 103.655998 
L 115.151557 103.655998 
L 116.842466 103.655998 
L 118.533375 103.655998 
L 120.224284 103.655998 
L 121.915193 103.655998 
L 123.606102 103.655998 
L 125.297011 103.655998 
L 126.98792 103.655998 
L 128.67883 103.655998 
L 130.369739 103.655998 
L 132.060648 103.655998 
L 133.751557 103.655998 
L 135.442466 103.655998 
L 137.133298 102.816 
L 137.133298 101.136 
L 137.133298 99.456 
L 137.133298 97.776 
L 137.133298 96.096 
L 137.133298 94.416 
L 137.133298 92.736 
L 137.133298 91.056 
L 137.133298 89.376 
L 137.133298 87.696 
L 137.133298 86.016 
L 137.133298 84.336 
L 137.133298 82.656 
L 137.133298 80.976 
L 137.133298 79.296 
L 137.133298 77.616 
L 137.133298 75.936 
L 137.133298 74.256 
L 137.133298 72.576 
L 137.133298 70.896 
L 137.133298 69.216 
L 137.133298 67.536 
L 137.133298 65.856 
L 137.133298 64.176 
L 137.133298 62.496 
L 137.133298 60.816 
L 137.133298 59.136 
L 137.133298 57.456 
L 137.133298 55.776 
L 137.133298 54.096 
L 137.133298 52.416 
L 137.133298 50.736 
L 137.133298 49.056 
L 137.133298 47.376 
L 137.133298 45.696 
L 137.133298 44.016 
L 137.133298 42.336 
L 137.133298 40.656 
L 137.133298 38.976 
L 137.133298 37.296 
L 137.133298 35.616 
L 137.133298 33.936 
L 137.133298 32.256 
L 137.133298 30.576 
L 137.133298 28.896 
L 137.133298 27.216 
L 137.133298 25.536 
L 137.133298 23.856 
L 137.133298 22.176 
L 137.133298 20.496 
L 135.442466 20.496 
L 133.751557 20.496 
L 132.060648 20.496 
L 130.369739 20.496 
L 128.67883 20.496 
L 126.98792 20.496 
L 125.297011 20.496 
L 123.606102 20.496 
L 121.915193 20.496 
L 120.224284 20.496 
L 118.533375 20.496 
L 116.842466 20.496 
L 115.853002 20.496 
L 115.151557 21.557468 
L 114.595331 22.176 
L 113.460648 23.409324 
L 112.831245 23.856 
L 111.769739 24.598172 
L 110.07883 25.179477 
L 108.38792 25.179477 
L 106.697011 24.598163 
L 105.635518 23.856 
L 105.006102 23.409312 
L 103.871434 22.176 
L 103.315193 21.557451 
L 102.613763 20.496 
L 101.624284 20.496 
L 99.933375 20.496 
L 98.242466 20.496 
L 96.551557 20.496 
L 94.860648 20.496 
L 93.169739 20.496 
L 91.47883 20.496 
L 89.78792 20.496 
L 88.097011 20.496 
L 86.406102 20.496 
L 84.715193 20.496 
L 83.024284 20.496 
L 81.333472 20.496 
L 81.333472 22.176 
L 81.333472 23.856 
L 81.333472 25.536 
L 81.333472 27.216 
L 81.333472 28.896 
L 81.333472 30.576 
L 81.333472 32.256 
L 81.333472 33.936 
L 81.333472 35.616 
L 81.333472 37.296 
L 81.333472 38.976 
L 81.333472 40.656 
L 81.333472 42.336 
L 81.333472 44.016 
L 81.333472 45.696 
L 81.333472 47.376 
L 81.333472 49.056 
L 81.333472 50.736 
L 81.333472 52.416 
L 81.333472 54.096 
L 81.333472 55.776 
L 81.333472 57.456 
L 81.333472 59.136 
L 81.333472 60.816 
L 81.333472 62.496 
L 81.333472 64.176 
L 81.333472 65.856 
L 81.333472 67.536 
L 81.333472 69.216 
L 81.333472 70.896 
L 81.333472 72.576 
L 81.333472 74.256 
L 81.333472 75.936 
L 81.333472 77.616 
L 81.333472 79.296 
L 81.333472 80.976 
L 81.333472 82.656 
L 81.333472 84.336 
L 81.333472 86.016 
L 81.333472 87.696 
L 81.333472 89.376 
L 81.333472 91.056 
L 81.333472 92.736 
L 81.333472 94.416 
L 81.333472 96.096 
L 81.333472 97.776 
L 81.333472 99.456 
L 81.333472 101.136 
L 81.333472 102.816 
z
" clip-path="url(#pcab75945fe)" style="fill: #bf1654"/>
    <path d="M 83.024284 186.816 
L 84.715193 186.816 
L 86.406102 186.816 
L 88.097011 186.816 
L 89.78792 186.816 
L 91.47883 186.816 
L 93.169739 186.816 
L 94.860648 186.816 
L 96.551557 186.816 
L 98.242466 186.816 
L 99.933375 186.816 
L 101.624284 186.816 
L 102.613763 186.816 
L 103.315193 185.754549 
L 103.871434 185.136 
L 105.006102 183.902688 
L 105.635518 183.456 
L 106.697011 182.713837 
L 108.38792 182.132523 
L 110.07883 182.132523 
L 111.769739 182.713828 
L 112.831245 183.456 
L 113.460648 183.902676 
L 114.595331 185.136 
L 115.151557 185.754532 
L 115.853002 186.816 
L 116.842466 186.816 
L 118.533375 186.816 
L 120.224284 186.816 
L 121.915193 186.816 
L 123.606102 186.816 
L 125.297011 186.816 
L 126.98792 186.816 
L 128.67883 186.816 
L 130.369739 186.816 
L 132.060648 186.816 
L 133.751557 186.816 
L 135.442466 186.816 
L 137.133298 186.816 
L 137.133298 185.136 
L 137.133298 183.456 
L 137.133298 181.776 
L 137.133298 180.096 
L 137.133298 178.416 
L 137.133298 176.736 
L 137.133298 175.056 
L 137.133298 173.376 
L 137.133298 171.696 
L 137.133298 170.016 
L 137.133298 168.336 
L 137.133298 166.656 
L 137.133298 164.976 
L 137.133298 163.296 
L 137.133298 161.616 
L 137.133298 159.936 
L 137.133298 158.256 
L 137.133298 156.576 
L 137.133298 154.896 
L 137.133298 153.216 
L 137.133298 151.536 
L 137.133298 149.856 
L 137.133298 148.176 
L 137.133298 146.496 
L 137.133298 144.816 
L 137.133298 143.136 
L 137.133298 141.456 
L 137.133298 139.776 
L 137.133298 138.096 
L 137.133298 136.416 
L 137.133298 134.736 
L 137.133298 133.056 
L 137.133298 131.376 
L 137.133298 129.696 
L 137.133298 128.016 
L 137.133298 126.336 
L 137.133298 124.656 
L 137.133298 122.976 
L 137.133298 121.296 
L 137.133298 119.616 
L 137.133298 117.936 
L 137.133298 116.256 
L 137.133298 114.576 
L 137.133298 112.896 
L 137.133298 111.216 
L 137.133298 109.536 
L 137.133298 107.856 
L 137.133298 106.176 
L 137.133298 104.496 
L 137.133375 103.655998 
L 138.824284 103.655998 
L 140.515193 103.655998 
L 142.206102 103.655998 
L 143.897011 103.655998 
L 145.58792 103.655998 
L 147.27883 103.655998 
L 148.969739 103.655998 
L 150.660648 103.655998 
L 152.351557 103.655998 
L 154.042466 103.655998 
L 155.733375 103.655998 
L 157.424284 103.655998 
L 159.115193 103.655998 
L 160.806102 103.655998 
L 162.497011 103.655998 
L 164.18792 103.655998 
L 165.87883 103.655998 
L 167.569739 103.655998 
L 169.260648 103.655998 
L 170.951557 103.655998 
L 172.642466 103.655998 
L 174.333375 103.655998 
L 176.024284 103.655998 
L 177.715193 103.655998 
L 179.406102 103.655998 
L 181.097011 103.655998 
L 182.78792 103.655998 
L 184.47883 103.655998 
L 186.169739 103.655998 
L 187.860648 103.655998 
L 189.551557 103.655998 
L 191.242466 103.655998 
L 192.933375 103.655998 
L 192.933375 102.816 
L 192.933375 101.136 
L 192.933375 99.456 
L 192.933375 97.776 
L 192.933375 96.096 
L 192.933375 94.416 
L 192.933375 93.855506 
L 191.242466 93.393753 
L 189.551557 92.897192 
L 189.024745 92.736 
L 187.860648 92.362098 
L 186.169739 91.784214 
L 184.47883 91.158652 
L 184.211454 91.056 
L 182.78792 90.479783 
L 181.097011 89.741089 
L 180.307535 89.376 
L 179.406102 88.934988 
L 177.715193 88.052589 
L 177.069165 87.696 
L 176.024284 87.083433 
L 174.334687 86.016 
L 174.333375 86.015118 
L 172.642466 84.832841 
L 171.976101 84.336 
L 170.951557 83.518773 
L 169.928801 82.656 
L 169.260648 82.051288 
L 168.129132 80.976 
L 167.569739 80.403868 
L 166.531576 79.296 
L 165.87883 78.543701 
L 165.103006 77.616 
L 164.18792 76.429655 
L 163.819039 75.936 
L 162.656479 74.256 
L 162.497011 74.00954 
L 161.591298 72.576 
L 160.806102 71.21611 
L 160.624905 70.896 
L 159.729176 69.216 
L 159.115193 67.961276 
L 158.909927 67.536 
L 158.144208 65.856 
L 157.443658 64.176 
L 157.424284 64.127415 
L 156.77801 62.496 
L 156.163936 60.816 
L 155.733375 59.553867 
L 155.591123 59.136 
L 155.045183 57.456 
L 154.537553 55.776 
L 154.06434 54.096 
L 154.042466 54.015488 
L 153.605991 52.416 
L 153.175958 50.736 
L 152.772387 49.056 
L 152.392911 47.376 
L 152.351557 47.186651 
L 152.022788 45.696 
L 151.671953 44.016 
L 151.340344 42.336 
L 151.02642 40.656 
L 150.728806 38.976 
L 150.660648 38.578567 
L 150.437327 37.296 
L 150.157542 35.616 
L 149.891241 33.936 
L 149.637474 32.256 
L 149.395372 30.576 
L 149.164151 28.896 
L 148.969739 27.422483 
L 148.941936 27.216 
L 148.721188 25.536 
L 148.509736 23.856 
L 148.307003 22.176 
L 148.112462 20.496 
L 147.27883 20.496 
L 145.58792 20.496 
L 143.897011 20.496 
L 142.206102 20.496 
L 140.515193 20.496 
L 138.824284 20.496 
L 137.133375 20.496 
L 137.133298 20.496 
L 137.133298 22.176 
L 137.133298 23.856 
L 137.133298 25.536 
L 137.133298 27.216 
L 137.133298 28.896 
L 137.133298 30.576 
L 137.133298 32.256 
L 137.133298 33.936 
L 137.133298 35.616 
L 137.133298 37.296 
L 137.133298 38.976 
L 137.133298 40.656 
L 137.133298 42.336 
L 137.133298 44.016 
L 137.133298 45.696 
L 137.133298 47.376 
L 137.133298 49.056 
L 137.133298 50.736 
L 137.133298 52.416 
L 137.133298 54.096 
L 137.133298 55.776 
L 137.133298 57.456 
L 137.133298 59.136 
L 137.133298 60.816 
L 137.133298 62.496 
L 137.133298 64.176 
L 137.133298 65.856 
L 137.133298 67.536 
L 137.133298 69.216 
L 137.133298 70.896 
L 137.133298 72.576 
L 137.133298 74.256 
L 137.133298 75.936 
L 137.133298 77.616 
L 137.133298 79.296 
L 137.133298 80.976 
L 137.133298 82.656 
L 137.133298 84.336 
L 137.133298 86.016 
L 137.133298 87.696 
L 137.133298 89.376 
L 137.133298 91.056 
L 137.133298 92.736 
L 137.133298 94.416 
L 137.133298 96.096 
L 137.133298 97.776 
L 137.133298 99.456 
L 137.133298 101.136 
L 137.133298 102.816 
L 135.442466 103.655998 
L 133.751557 103.655998 
L 132.060648 103.655998 
L 130.369739 103.655998 
L 128.67883 103.655998 
L 126.98792 103.655998 
L 125.297011 103.655998 
L 123.606102 103.655998 
L 121.915193 103.655998 
L 120.224284 103.655998 
L 118.533375 103.655998 
L 116.842466 103.655998 
L 115.151557 103.655998 
L 113.460648 103.655998 
L 111.769739 103.655998 
L 110.07883 103.655998 
L 108.38792 103.655998 
L 106.697011 103.655998 
L 105.006102 103.655998 
L 103.315193 103.655998 
L 101.624284 103.655998 
L 99.933375 103.655998 
L 98.242466 103.655998 
L 96.551557 103.655998 
L 94.860648 103.655998 
L 93.169739 103.655998 
L 91.47883 103.655998 
L 89.78792 103.655998 
L 88.097011 103.655998 
L 86.406102 103.655998 
L 84.715193 103.655998 
L 83.024284 103.655998 
L 81.333472 102.816 
L 81.333472 101.136 
L 81.333472 99.456 
L 81.333472 97.776 
L 81.333472 96.096 
L 81.333472 94.416 
L 81.333472 92.736 
L 81.333472 91.056 
L 81.333472 89.376 
L 81.333472 87.696 
L 81.333472 86.016 
L 81.333472 84.336 
L 81.333472 82.656 
L 81.333472 80.976 
L 81.333472 79.296 
L 81.333472 77.616 
L 81.333472 75.936 
L 81.333472 74.256 
L 81.333472 72.576 
L 81.333472 70.896 
L 81.333472 69.216 
L 81.333472 67.536 
L 81.333472 65.856 
L 81.333472 64.176 
L 81.333472 62.496 
L 81.333472 60.816 
L 81.333472 59.136 
L 81.333472 57.456 
L 81.333472 55.776 
L 81.333472 54.096 
L 81.333472 52.416 
L 81.333472 50.736 
L 81.333472 49.056 
L 81.333472 47.376 
L 81.333472 45.696 
L 81.333472 44.016 
L 81.333472 42.336 
L 81.333472 40.656 
L 81.333472 38.976 
L 81.333472 37.296 
L 81.333472 35.616 
L 81.333472 33.936 
L 81.333472 32.256 
L 81.333472 30.576 
L 81.333472 28.896 
L 81.333472 27.216 
L 81.333472 25.536 
L 81.333472 23.856 
L 81.333472 22.176 
L 81.333472 20.496 
L 81.333375 20.496 
L 79.642466 20.496 
L 77.951557 20.496 
L 76.260648 20.496 
L 74.569739 20.496 
L 72.87883 20.496 
L 71.18792 20.496 
L 70.354308 20.496 
L 70.159767 22.176 
L 69.957034 23.856 
L 69.745581 25.536 
L 69.524835 27.216 
L 69.497011 27.422636 
L 69.302618 28.896 
L 69.071398 30.576 
L 68.829296 32.256 
L 68.575529 33.936 
L 68.309228 35.616 
L 68.029443 37.296 
L 67.806102 38.578684 
L 67.737964 38.976 
L 67.440349 40.656 
L 67.126426 42.336 
L 66.794817 44.016 
L 66.443983 45.696 
L 66.115193 47.186739 
L 66.073858 47.376 
L 65.694382 49.056 
L 65.290811 50.736 
L 64.860778 52.416 
L 64.424284 54.015556 
L 64.402429 54.096 
L 63.929217 55.776 
L 63.421587 57.456 
L 62.875648 59.136 
L 62.733375 59.553929 
L 62.302834 60.816 
L 61.68876 62.496 
L 61.042466 64.127467 
L 61.023113 64.176 
L 60.322562 65.856 
L 59.556844 67.536 
L 59.351557 67.961318 
L 58.737595 69.216 
L 57.841866 70.896 
L 57.660648 71.216148 
L 56.875472 72.576 
L 55.969739 74.00957 
L 55.810291 74.256 
L 54.647731 75.936 
L 54.27883 76.429681 
L 53.363759 77.616 
L 52.58792 78.543717 
L 51.935187 79.296 
L 50.897011 80.40388 
L 50.33763 80.976 
L 49.206102 82.0513 
L 48.537962 82.656 
L 47.515193 83.518784 
L 46.490664 84.336 
L 45.824284 84.832852 
L 44.133375 86.015126 
L 44.132076 86.016 
L 42.442466 87.083442 
L 41.397598 87.696 
L 40.751557 88.052596 
L 39.060648 88.934994 
L 38.159228 89.376 
L 37.369739 89.741095 
L 35.67883 90.47979 
L 34.255308 91.056 
L 33.98792 91.158656 
L 32.297011 91.784218 
L 30.606102 92.362102 
L 29.442021 92.736 
L 28.915193 92.897197 
L 27.224284 93.393756 
L 25.533375 93.855509 
L 25.533375 94.416 
L 25.533375 96.096 
L 25.533375 97.776 
L 25.533375 99.456 
L 25.533375 101.136 
L 25.533375 102.816 
L 25.533375 103.655998 
L 27.224284 103.655998 
L 28.915193 103.655998 
L 30.606102 103.655998 
L 32.297011 103.655998 
L 33.98792 103.655998 
L 35.67883 103.655998 
L 37.369739 103.655998 
L 39.060648 103.655998 
L 40.751557 103.655998 
L 42.442466 103.655998 
L 44.133375 103.655998 
L 45.824284 103.655998 
L 47.515193 103.655998 
L 49.206102 103.655998 
L 50.897011 103.655998 
L 52.58792 103.655998 
L 54.27883 103.655998 
L 55.969739 103.655998 
L 57.660648 103.655998 
L 59.351557 103.655998 
L 61.042466 103.655998 
L 62.733375 103.655998 
L 64.424284 103.655998 
L 66.115193 103.655998 
L 67.806102 103.655998 
L 69.497011 103.655998 
L 71.18792 103.655998 
L 72.87883 103.655998 
L 74.569739 103.655998 
L 76.260648 103.655998 
L 77.951557 103.655998 
L 79.642466 103.655998 
L 81.333375 103.655998 
L 81.333472 104.496 
L 81.333472 106.176 
L 81.333472 107.856 
L 81.333472 109.536 
L 81.333472 111.216 
L 81.333472 112.896 
L 81.333472 114.576 
L 81.333472 116.256 
L 81.333472 117.936 
L 81.333472 119.616 
L 81.333472 121.296 
L 81.333472 122.976 
L 81.333472 124.656 
L 81.333472 126.336 
L 81.333472 128.016 
L 81.333472 129.696 
L 81.333472 131.376 
L 81.333472 133.056 
L 81.333472 134.736 
L 81.333472 136.416 
L 81.333472 138.096 
L 81.333472 139.776 
L 81.333472 141.456 
L 81.333472 143.136 
L 81.333472 144.816 
L 81.333472 146.496 
L 81.333472 148.176 
L 81.333472 149.856 
L 81.333472 151.536 
L 81.333472 153.216 
L 81.333472 154.896 
L 81.333472 156.576 
L 81.333472 158.256 
L 81.333472 159.936 
L 81.333472 161.616 
L 81.333472 163.296 
L 81.333472 164.976 
L 81.333472 166.656 
L 81.333472 168.336 
L 81.333472 170.016 
L 81.333472 171.696 
L 81.333472 173.376 
L 81.333472 175.056 
L 81.333472 176.736 
L 81.333472 178.416 
L 81.333472 180.096 
L 81.333472 181.776 
L 81.333472 183.456 
L 81.333472 185.136 
L 81.333472 186.816 
z
" clip-path="url(#pcab75945fe)" style="fill: #d5224a"/>
    <path d="M 103.315193 186.816 
L 105.006102 186.816 
L 106.697011 186.816 
L 108.38792 186.816 
L 110.07883 186.816 
L 111.769739 186.816 
L 113.460648 186.816 
L 115.151557 186.816 
L 115.853002 186.816 
L 115.151557 185.754532 
L 114.595331 185.136 
L 113.460648 183.902676 
L 112.831245 183.456 
L 111.769739 182.713828 
L 110.07883 182.132523 
L 108.38792 182.132523 
L 106.697011 182.713837 
L 105.635518 183.456 
L 105.006102 183.902688 
L 103.871434 185.136 
L 103.315193 185.754549 
L 102.613763 186.816 
z
M 27.224284 93.393756 
L 28.915193 92.897197 
L 29.442021 92.736 
L 30.606102 92.362102 
L 32.297011 91.784218 
L 33.98792 91.158656 
L 34.255308 91.056 
L 35.67883 90.47979 
L 37.369739 89.741095 
L 38.159228 89.376 
L 39.060648 88.934994 
L 40.751557 88.052596 
L 41.397598 87.696 
L 42.442466 87.083442 
L 44.132076 86.016 
L 44.133375 86.015126 
L 45.824284 84.832852 
L 46.490664 84.336 
L 47.515193 83.518784 
L 48.537962 82.656 
L 49.206102 82.0513 
L 50.33763 80.976 
L 50.897011 80.40388 
L 51.935187 79.296 
L 52.58792 78.543717 
L 53.363759 77.616 
L 54.27883 76.429681 
L 54.647731 75.936 
L 55.810291 74.256 
L 55.969739 74.00957 
L 56.875472 72.576 
L 57.660648 71.216148 
L 57.841866 70.896 
L 58.737595 69.216 
L 59.351557 67.961318 
L 59.556844 67.536 
L 60.322562 65.856 
L 61.023113 64.176 
L 61.042466 64.127467 
L 61.68876 62.496 
L 62.302834 60.816 
L 62.733375 59.553929 
L 62.875648 59.136 
L 63.421587 57.456 
L 63.929217 55.776 
L 64.402429 54.096 
L 64.424284 54.015556 
L 64.860778 52.416 
L 65.290811 50.736 
L 65.694382 49.056 
L 66.073858 47.376 
L 66.115193 47.186739 
L 66.443983 45.696 
L 66.794817 44.016 
L 67.126426 42.336 
L 67.440349 40.656 
L 67.737964 38.976 
L 67.806102 38.578684 
L 68.029443 37.296 
L 68.309228 35.616 
L 68.575529 33.936 
L 68.829296 32.256 
L 69.071398 30.576 
L 69.302618 28.896 
L 69.497011 27.422636 
L 69.524835 27.216 
L 69.745581 25.536 
L 69.957034 23.856 
L 70.159767 22.176 
L 70.354308 20.496 
L 69.497011 20.496 
L 67.806102 20.496 
L 66.115193 20.496 
L 64.424284 20.496 
L 62.733375 20.496 
L 61.846932 20.496 
L 61.527328 22.176 
L 61.194268 23.856 
L 61.042466 24.598941 
L 60.853627 25.536 
L 60.503475 27.216 
L 60.137587 28.896 
L 59.754878 30.576 
L 59.354154 32.256 
L 59.351557 32.266638 
L 58.94804 33.936 
L 58.521959 35.616 
L 58.074305 37.296 
L 57.660648 38.776299 
L 57.60524 38.976 
L 57.125218 40.656 
L 56.61889 42.336 
L 56.084038 44.016 
L 55.969739 44.363149 
L 55.532288 45.696 
L 54.951386 47.376 
L 54.334735 49.056 
L 54.27883 49.203365 
L 53.697111 50.736 
L 53.019479 52.416 
L 52.58792 53.431431 
L 52.304493 54.096 
L 51.552922 55.776 
L 50.897011 57.151758 
L 50.750981 57.456 
L 49.908679 59.136 
L 49.206102 60.446599 
L 49.006026 60.816 
L 48.050796 62.496 
L 47.515193 63.381569 
L 47.027806 64.176 
L 45.929648 65.856 
L 45.824284 66.009702 
L 44.758146 67.536 
L 44.133375 68.374251 
L 43.492271 69.216 
L 42.442466 70.510884 
L 42.122433 70.896 
L 40.751557 72.449192 
L 40.636461 72.576 
L 39.060648 74.213988 
L 39.018938 74.256 
L 37.369739 75.826192 
L 37.25026 75.936 
L 35.67883 77.30358 
L 35.305365 77.616 
L 33.98792 78.661314 
L 33.151842 79.296 
L 32.297011 79.912439 
L 30.74733 80.976 
L 30.606102 81.068208 
L 28.915193 82.138394 
L 28.05386 82.656 
L 27.224284 83.131513 
L 25.533375 84.055018 
L 25.533375 84.336 
L 25.533375 86.016 
L 25.533375 87.696 
L 25.533375 89.376 
L 25.533375 91.056 
L 25.533375 92.736 
L 25.533375 93.855509 
z
M 189.551557 92.897192 
L 191.242466 93.393753 
L 192.933375 93.855506 
L 192.933375 92.736 
L 192.933375 91.056 
L 192.933375 89.376 
L 192.933375 87.696 
L 192.933375 86.016 
L 192.933375 84.336 
L 192.933375 84.055012 
L 191.242466 83.131506 
L 190.412903 82.656 
L 189.551557 82.138387 
L 187.860648 81.068197 
L 187.719436 80.976 
L 186.169739 79.912428 
L 185.314923 79.296 
L 184.47883 78.661303 
L 183.1614 77.616 
L 182.78792 77.303568 
L 181.216504 75.936 
L 181.097011 75.826178 
L 179.447824 74.256 
L 179.406102 74.213976 
L 177.830301 72.576 
L 177.715193 72.449178 
L 176.34433 70.896 
L 176.024284 70.510867 
L 174.974493 69.216 
L 174.333375 68.374236 
L 173.708617 67.536 
L 172.642466 66.00968 
L 172.537117 65.856 
L 171.438958 64.176 
L 170.951557 63.381549 
L 170.415966 62.496 
L 169.460736 60.816 
L 169.260648 60.446577 
L 168.558082 59.136 
L 167.715781 57.456 
L 167.569739 57.151732 
L 166.913842 55.776 
L 166.16227 54.096 
L 165.87883 53.431399 
L 165.447287 52.416 
L 164.769657 50.736 
L 164.18792 49.203313 
L 164.132034 49.056 
L 163.515383 47.376 
L 162.934481 45.696 
L 162.497011 44.363087 
L 162.382733 44.016 
L 161.84788 42.336 
L 161.341553 40.656 
L 160.861529 38.976 
L 160.806102 38.776228 
L 160.392466 37.296 
L 159.944812 35.616 
L 159.518731 33.936 
L 159.115193 32.266553 
L 159.112616 32.256 
L 158.711894 30.576 
L 158.329183 28.896 
L 157.963295 27.216 
L 157.613144 25.536 
L 157.424284 24.598845 
L 157.272501 23.856 
L 156.939442 22.176 
L 156.619838 20.496 
L 155.733375 20.496 
L 154.042466 20.496 
L 152.351557 20.496 
L 150.660648 20.496 
L 148.969739 20.496 
L 148.112462 20.496 
L 148.307003 22.176 
L 148.509736 23.856 
L 148.721188 25.536 
L 148.941936 27.216 
L 148.969739 27.422483 
L 149.164151 28.896 
L 149.395372 30.576 
L 149.637474 32.256 
L 149.891241 33.936 
L 150.157542 35.616 
L 150.437327 37.296 
L 150.660648 38.578567 
L 150.728806 38.976 
L 151.02642 40.656 
L 151.340344 42.336 
L 151.671953 44.016 
L 152.022788 45.696 
L 152.351557 47.186651 
L 152.392911 47.376 
L 152.772387 49.056 
L 153.175958 50.736 
L 153.605991 52.416 
L 154.042466 54.015488 
L 154.06434 54.096 
L 154.537553 55.776 
L 155.045183 57.456 
L 155.591123 59.136 
L 155.733375 59.553867 
L 156.163936 60.816 
L 156.77801 62.496 
L 157.424284 64.127415 
L 157.443658 64.176 
L 158.144208 65.856 
L 158.909927 67.536 
L 159.115193 67.961276 
L 159.729176 69.216 
L 160.624905 70.896 
L 160.806102 71.21611 
L 161.591298 72.576 
L 162.497011 74.00954 
L 162.656479 74.256 
L 163.819039 75.936 
L 164.18792 76.429655 
L 165.103006 77.616 
L 165.87883 78.543701 
L 166.531576 79.296 
L 167.569739 80.403868 
L 168.129132 80.976 
L 169.260648 82.051288 
L 169.928801 82.656 
L 170.951557 83.518773 
L 171.976101 84.336 
L 172.642466 84.832841 
L 174.333375 86.015118 
L 174.334687 86.016 
L 176.024284 87.083433 
L 177.069165 87.696 
L 177.715193 88.052589 
L 179.406102 88.934988 
L 180.307535 89.376 
L 181.097011 89.741089 
L 182.78792 90.479783 
L 184.211454 91.056 
L 184.47883 91.158652 
L 186.169739 91.784214 
L 187.860648 92.362098 
L 189.024745 92.736 
z
" clip-path="url(#pcab75945fe)" style="fill: #e43841"/>
    <path d="M 27.224284 83.131513 
L 28.05386 82.656 
L 28.915193 82.138394 
L 30.606102 81.068208 
L 30.74733 80.976 
L 32.297011 79.912439 
L 33.151842 79.296 
L 33.98792 78.661314 
L 35.305365 77.616 
L 35.67883 77.30358 
L 37.25026 75.936 
L 37.369739 75.826192 
L 39.018938 74.256 
L 39.060648 74.213988 
L 40.636461 72.576 
L 40.751557 72.449192 
L 42.122433 70.896 
L 42.442466 70.510884 
L 43.492271 69.216 
L 44.133375 68.374251 
L 44.758146 67.536 
L 45.824284 66.009702 
L 45.929648 65.856 
L 47.027806 64.176 
L 47.515193 63.381569 
L 48.050796 62.496 
L 49.006026 60.816 
L 49.206102 60.446599 
L 49.908679 59.136 
L 50.750981 57.456 
L 50.897011 57.151758 
L 51.552922 55.776 
L 52.304493 54.096 
L 52.58792 53.431431 
L 53.019479 52.416 
L 53.697111 50.736 
L 54.27883 49.203365 
L 54.334735 49.056 
L 54.951386 47.376 
L 55.532288 45.696 
L 55.969739 44.363149 
L 56.084038 44.016 
L 56.61889 42.336 
L 57.125218 40.656 
L 57.60524 38.976 
L 57.660648 38.776299 
L 58.074305 37.296 
L 58.521959 35.616 
L 58.94804 33.936 
L 59.351557 32.266638 
L 59.354154 32.256 
L 59.754878 30.576 
L 60.137587 28.896 
L 60.503475 27.216 
L 60.853627 25.536 
L 61.042466 24.598941 
L 61.194268 23.856 
L 61.527328 22.176 
L 61.846932 20.496 
L 61.042466 20.496 
L 59.351557 20.496 
L 57.660648 20.496 
L 55.969739 20.496 
L 54.647734 20.496 
L 54.27883 21.977055 
L 54.229787 22.176 
L 53.805889 23.856 
L 53.363761 25.536 
L 52.902198 27.216 
L 52.58792 28.319154 
L 52.424832 28.896 
L 51.935188 30.576 
L 51.422499 32.256 
L 50.897011 33.899644 
L 50.885448 33.936 
L 50.337631 35.616 
L 49.762077 37.296 
L 49.206102 38.8419 
L 49.157996 38.976 
L 48.537966 40.656 
L 47.883959 42.336 
L 47.515193 43.24436 
L 47.201813 44.016 
L 46.490664 45.696 
L 45.824284 47.186557 
L 45.739357 47.376 
L 44.960428 49.056 
L 44.133375 50.73338 
L 44.132076 50.736 
L 43.272011 52.416 
L 42.442466 53.938327 
L 42.355855 54.096 
L 41.3976 55.776 
L 40.751557 56.845789 
L 40.378966 57.456 
L 39.300404 59.136 
L 39.060648 59.492984 
L 38.159228 60.816 
L 37.369739 61.91129 
L 36.941278 62.496 
L 35.67883 64.12737 
L 35.640487 64.176 
L 34.255308 65.856 
L 33.98792 66.163969 
L 32.768982 67.536 
L 32.297011 68.040655 
L 31.169228 69.216 
L 30.606102 69.774307 
L 29.442019 70.896 
L 28.915193 71.37959 
L 27.569984 72.576 
L 27.224284 72.86927 
L 25.533375 74.254528 
L 25.533375 74.256 
L 25.533375 75.936 
L 25.533375 77.616 
L 25.533375 79.296 
L 25.533375 80.976 
L 25.533375 82.656 
L 25.533375 84.055018 
z
M 191.242466 83.131506 
L 192.933375 84.055012 
L 192.933375 82.656 
L 192.933375 80.976 
L 192.933375 79.296 
L 192.933375 77.616 
L 192.933375 75.936 
L 192.933375 74.256 
L 192.933375 74.254519 
L 191.242466 72.869258 
L 190.89678 72.576 
L 189.551557 71.379578 
L 189.024744 70.896 
L 187.860648 69.774295 
L 187.297536 69.216 
L 186.169739 68.040639 
L 185.697783 67.536 
L 184.47883 66.163954 
L 184.211455 65.856 
L 182.826278 64.176 
L 182.78792 64.127352 
L 181.525486 62.496 
L 181.097011 61.91127 
L 180.307535 60.816 
L 179.406102 59.492967 
L 179.166358 59.136 
L 178.087797 57.456 
L 177.715193 56.845767 
L 177.069163 55.776 
L 176.11091 54.096 
L 176.024284 53.9383 
L 175.194752 52.416 
L 174.334684 50.736 
L 174.333375 50.733359 
L 173.506336 49.056 
L 172.727407 47.376 
L 172.642466 47.186525 
L 171.976099 45.696 
L 171.264949 44.016 
L 170.951557 43.244331 
L 170.582802 42.336 
L 169.928797 40.656 
L 169.308767 38.976 
L 169.260648 38.841864 
L 168.704685 37.296 
L 168.12913 35.616 
L 167.581313 33.936 
L 167.569739 33.899611 
L 167.044262 32.256 
L 166.531575 30.576 
L 166.041931 28.896 
L 165.87883 28.319106 
L 165.564567 27.216 
L 165.103005 25.536 
L 164.660878 23.856 
L 164.236982 22.176 
L 164.18792 21.976978 
L 163.819036 20.496 
L 162.497011 20.496 
L 160.806102 20.496 
L 159.115193 20.496 
L 157.424284 20.496 
L 156.619838 20.496 
L 156.939442 22.176 
L 157.272501 23.856 
L 157.424284 24.598845 
L 157.613144 25.536 
L 157.963295 27.216 
L 158.329183 28.896 
L 158.711894 30.576 
L 159.112616 32.256 
L 159.115193 32.266553 
L 159.518731 33.936 
L 159.944812 35.616 
L 160.392466 37.296 
L 160.806102 38.776228 
L 160.861529 38.976 
L 161.341553 40.656 
L 161.84788 42.336 
L 162.382733 44.016 
L 162.497011 44.363087 
L 162.934481 45.696 
L 163.515383 47.376 
L 164.132034 49.056 
L 164.18792 49.203313 
L 164.769657 50.736 
L 165.447287 52.416 
L 165.87883 53.431399 
L 166.16227 54.096 
L 166.913842 55.776 
L 167.569739 57.151732 
L 167.715781 57.456 
L 168.558082 59.136 
L 169.260648 60.446577 
L 169.460736 60.816 
L 170.415966 62.496 
L 170.951557 63.381549 
L 171.438958 64.176 
L 172.537117 65.856 
L 172.642466 66.00968 
L 173.708617 67.536 
L 174.333375 68.374236 
L 174.974493 69.216 
L 176.024284 70.510867 
L 176.34433 70.896 
L 177.715193 72.449178 
L 177.830301 72.576 
L 179.406102 74.213976 
L 179.447824 74.256 
L 181.097011 75.826178 
L 181.216504 75.936 
L 182.78792 77.303568 
L 183.1614 77.616 
L 184.47883 78.661303 
L 185.314923 79.296 
L 186.169739 79.912428 
L 187.719436 80.976 
L 187.860648 81.068197 
L 189.551557 82.138387 
L 190.412903 82.656 
z
" clip-path="url(#pcab75945fe)" style="fill: #ee523f"/>
    <path d="M 27.224284 72.86927 
L 27.569984 72.576 
L 28.915193 71.37959 
L 29.442019 70.896 
L 30.606102 69.774307 
L 31.169228 69.216 
L 32.297011 68.040655 
L 32.768982 67.536 
L 33.98792 66.163969 
L 34.255308 65.856 
L 35.640487 64.176 
L 35.67883 64.12737 
L 36.941278 62.496 
L 37.369739 61.91129 
L 38.159228 60.816 
L 39.060648 59.492984 
L 39.300404 59.136 
L 40.378966 57.456 
L 40.751557 56.845789 
L 41.3976 55.776 
L 42.355855 54.096 
L 42.442466 53.938327 
L 43.272011 52.416 
L 44.132076 50.736 
L 44.133375 50.73338 
L 44.960428 49.056 
L 45.739357 47.376 
L 45.824284 47.186557 
L 46.490664 45.696 
L 47.201813 44.016 
L 47.515193 43.24436 
L 47.883959 42.336 
L 48.537966 40.656 
L 49.157996 38.976 
L 49.206102 38.8419 
L 49.762077 37.296 
L 50.337631 35.616 
L 50.885448 33.936 
L 50.897011 33.899644 
L 51.422499 32.256 
L 51.935188 30.576 
L 52.424832 28.896 
L 52.58792 28.319154 
L 52.902198 27.216 
L 53.363761 25.536 
L 53.805889 23.856 
L 54.229787 22.176 
L 54.27883 21.977055 
L 54.647734 20.496 
L 54.27883 20.496 
L 52.58792 20.496 
L 50.897011 20.496 
L 49.206102 20.496 
L 48.296842 20.496 
L 47.799679 22.176 
L 47.515193 23.107144 
L 47.287899 23.856 
L 46.762125 25.536 
L 46.213242 27.216 
L 45.824284 28.363417 
L 45.644546 28.896 
L 45.060408 30.576 
L 44.448777 32.256 
L 44.133375 33.092509 
L 43.81603 33.936 
L 43.160523 35.616 
L 42.471826 37.296 
L 42.442466 37.365778 
L 41.764723 38.976 
L 41.020688 40.656 
L 40.751557 41.242392 
L 40.248459 42.336 
L 39.439659 44.016 
L 39.060648 44.771985 
L 38.595315 45.696 
L 37.710128 47.376 
L 37.369739 47.996386 
L 36.784409 49.056 
L 35.808334 50.736 
L 35.67883 50.951164 
L 34.788944 52.416 
L 33.98792 53.666625 
L 33.709903 54.096 
L 32.574197 55.776 
L 32.297011 56.168877 
L 31.376345 57.456 
L 30.606102 58.480413 
L 30.105459 59.136 
L 28.915193 60.620789 
L 28.755955 60.816 
L 27.323109 62.496 
L 27.224284 62.607027 
L 25.798031 64.176 
L 25.533375 64.454039 
L 25.533375 65.856 
L 25.533375 67.536 
L 25.533375 69.216 
L 25.533375 70.896 
L 25.533375 72.576 
L 25.533375 74.254528 
z
M 191.242466 72.869258 
L 192.933375 74.254519 
L 192.933375 72.576 
L 192.933375 70.896 
L 192.933375 69.216 
L 192.933375 67.536 
L 192.933375 65.856 
L 192.933375 64.454025 
L 192.668733 64.176 
L 191.242466 62.607012 
L 191.143654 62.496 
L 189.71081 60.816 
L 189.551557 60.62077 
L 188.361306 59.136 
L 187.860648 58.480394 
L 187.09042 57.456 
L 186.169739 56.168855 
L 185.892568 55.776 
L 184.75686 54.096 
L 184.47883 53.666605 
L 183.677819 52.416 
L 182.78792 50.951139 
L 182.658431 50.736 
L 181.682356 49.056 
L 181.097011 47.99636 
L 180.756636 47.376 
L 179.871449 45.696 
L 179.406102 44.771957 
L 179.027105 44.016 
L 178.218304 42.336 
L 177.715193 41.242362 
L 177.446076 40.656 
L 176.70204 38.976 
L 176.024284 37.365746 
L 175.994937 37.296 
L 175.30624 35.616 
L 174.650731 33.936 
L 174.333375 33.092478 
L 174.017986 32.256 
L 173.406356 30.576 
L 172.822219 28.896 
L 172.642466 28.363372 
L 172.253522 27.216 
L 171.704638 25.536 
L 171.178865 23.856 
L 170.951557 23.107103 
L 170.667083 22.176 
L 170.169922 20.496 
L 169.260648 20.496 
L 167.569739 20.496 
L 165.87883 20.496 
L 164.18792 20.496 
L 163.819036 20.496 
L 164.18792 21.976978 
L 164.236982 22.176 
L 164.660878 23.856 
L 165.103005 25.536 
L 165.564567 27.216 
L 165.87883 28.319106 
L 166.041931 28.896 
L 166.531575 30.576 
L 167.044262 32.256 
L 167.569739 33.899611 
L 167.581313 33.936 
L 168.12913 35.616 
L 168.704685 37.296 
L 169.260648 38.841864 
L 169.308767 38.976 
L 169.928797 40.656 
L 170.582802 42.336 
L 170.951557 43.244331 
L 171.264949 44.016 
L 171.976099 45.696 
L 172.642466 47.186525 
L 172.727407 47.376 
L 173.506336 49.056 
L 174.333375 50.733359 
L 174.334684 50.736 
L 175.194752 52.416 
L 176.024284 53.9383 
L 176.11091 54.096 
L 177.069163 55.776 
L 177.715193 56.845767 
L 178.087797 57.456 
L 179.166358 59.136 
L 179.406102 59.492967 
L 180.307535 60.816 
L 181.097011 61.91127 
L 181.525486 62.496 
L 182.78792 64.127352 
L 182.826278 64.176 
L 184.211455 65.856 
L 184.47883 66.163954 
L 185.697783 67.536 
L 186.169739 68.040639 
L 187.297536 69.216 
L 187.860648 69.774295 
L 189.024744 70.896 
L 189.551557 71.379578 
L 190.89678 72.576 
z
" clip-path="url(#pcab75945fe)" style="fill: #f26d4b"/>
    <path d="M 25.798031 64.176 
L 27.224284 62.607027 
L 27.323109 62.496 
L 28.755955 60.816 
L 28.915193 60.620789 
L 30.105459 59.136 
L 30.606102 58.480413 
L 31.376345 57.456 
L 32.297011 56.168877 
L 32.574197 55.776 
L 33.709903 54.096 
L 33.98792 53.666625 
L 34.788944 52.416 
L 35.67883 50.951164 
L 35.808334 50.736 
L 36.784409 49.056 
L 37.369739 47.996386 
L 37.710128 47.376 
L 38.595315 45.696 
L 39.060648 44.771985 
L 39.439659 44.016 
L 40.248459 42.336 
L 40.751557 41.242392 
L 41.020688 40.656 
L 41.764723 38.976 
L 42.442466 37.365778 
L 42.471826 37.296 
L 43.160523 35.616 
L 43.81603 33.936 
L 44.133375 33.092509 
L 44.448777 32.256 
L 45.060408 30.576 
L 45.644546 28.896 
L 45.824284 28.363417 
L 46.213242 27.216 
L 46.762125 25.536 
L 47.287899 23.856 
L 47.515193 23.107144 
L 47.799679 22.176 
L 48.296842 20.496 
L 47.515193 20.496 
L 45.824284 20.496 
L 44.133375 20.496 
L 42.542259 20.496 
L 42.442466 20.793218 
L 41.980459 22.176 
L 41.397601 23.856 
L 40.789676 25.536 
L 40.751557 25.638988 
L 40.169578 27.216 
L 39.522582 28.896 
L 39.060648 30.050981 
L 38.850953 30.576 
L 38.159229 32.256 
L 37.434176 33.936 
L 37.369739 34.081489 
L 36.689515 35.616 
L 35.908723 37.296 
L 35.67883 37.774957 
L 35.100809 38.976 
L 34.255315 40.656 
L 33.98792 41.169294 
L 33.377364 42.336 
L 32.456231 44.016 
L 32.297011 44.297102 
L 31.499414 45.696 
L 30.606102 47.186516 
L 30.491638 47.376 
L 29.442021 49.056 
L 28.915193 49.861987 
L 28.338043 50.736 
L 27.224284 52.344786 
L 27.174406 52.416 
L 25.956143 54.096 
L 25.533375 54.653547 
L 25.533375 55.776 
L 25.533375 57.456 
L 25.533375 59.136 
L 25.533375 60.816 
L 25.533375 62.496 
L 25.533375 64.176 
L 25.533375 64.454039 
z
M 192.933375 64.454025 
L 192.933375 64.176 
L 192.933375 62.496 
L 192.933375 60.816 
L 192.933375 59.136 
L 192.933375 57.456 
L 192.933375 55.776 
L 192.933375 54.653533 
L 192.510618 54.096 
L 191.292358 52.416 
L 191.242466 52.344766 
L 190.12872 50.736 
L 189.551557 49.861969 
L 189.02474 49.056 
L 187.975125 47.376 
L 187.860648 47.186495 
L 186.967349 45.696 
L 186.169739 44.297075 
L 186.010535 44.016 
L 185.0894 42.336 
L 184.47883 41.169266 
L 184.21145 40.656 
L 183.365956 38.976 
L 182.78792 37.774926 
L 182.558041 37.296 
L 181.77725 35.616 
L 181.097011 34.081456 
L 181.032588 33.936 
L 180.307534 32.256 
L 179.615811 30.576 
L 179.406102 30.050948 
L 178.94418 28.896 
L 178.297184 27.216 
L 177.715193 25.638952 
L 177.677088 25.536 
L 177.069162 23.856 
L 176.486304 22.176 
L 176.024284 20.793179 
L 175.924504 20.496 
L 174.333375 20.496 
L 172.642466 20.496 
L 170.951557 20.496 
L 170.169922 20.496 
L 170.667083 22.176 
L 170.951557 23.107103 
L 171.178865 23.856 
L 171.704638 25.536 
L 172.253522 27.216 
L 172.642466 28.363372 
L 172.822219 28.896 
L 173.406356 30.576 
L 174.017986 32.256 
L 174.333375 33.092478 
L 174.650731 33.936 
L 175.30624 35.616 
L 175.994937 37.296 
L 176.024284 37.365746 
L 176.70204 38.976 
L 177.446076 40.656 
L 177.715193 41.242362 
L 178.218304 42.336 
L 179.027105 44.016 
L 179.406102 44.771957 
L 179.871449 45.696 
L 180.756636 47.376 
L 181.097011 47.99636 
L 181.682356 49.056 
L 182.658431 50.736 
L 182.78792 50.951139 
L 183.677819 52.416 
L 184.47883 53.666605 
L 184.75686 54.096 
L 185.892568 55.776 
L 186.169739 56.168855 
L 187.09042 57.456 
L 187.860648 58.480394 
L 188.361306 59.136 
L 189.551557 60.62077 
L 189.71081 60.816 
L 191.143654 62.496 
L 191.242466 62.607012 
L 192.668733 64.176 
z
" clip-path="url(#pcab75945fe)" style="fill: #f58860"/>
    <path d="M 25.956143 54.096 
L 27.174406 52.416 
L 27.224284 52.344786 
L 28.338043 50.736 
L 28.915193 49.861987 
L 29.442021 49.056 
L 30.491638 47.376 
L 30.606102 47.186516 
L 31.499414 45.696 
L 32.297011 44.297102 
L 32.456231 44.016 
L 33.377364 42.336 
L 33.98792 41.169294 
L 34.255315 40.656 
L 35.100809 38.976 
L 35.67883 37.774957 
L 35.908723 37.296 
L 36.689515 35.616 
L 37.369739 34.081489 
L 37.434176 33.936 
L 38.159229 32.256 
L 38.850953 30.576 
L 39.060648 30.050981 
L 39.522582 28.896 
L 40.169578 27.216 
L 40.751557 25.638988 
L 40.789676 25.536 
L 41.397601 23.856 
L 41.980459 22.176 
L 42.442466 20.793218 
L 42.542259 20.496 
L 42.442466 20.496 
L 40.751557 20.496 
L 39.060648 20.496 
L 37.369739 20.496 
L 37.250264 20.496 
L 36.625924 22.176 
L 35.975295 23.856 
L 35.67883 24.598747 
L 35.305367 25.536 
L 34.613024 27.216 
L 33.98792 28.671952 
L 33.891751 28.896 
L 33.151844 30.576 
L 32.377116 32.256 
L 32.297011 32.425313 
L 31.58097 33.936 
L 30.74733 35.616 
L 30.606102 35.892624 
L 29.887115 37.296 
L 28.98537 38.976 
L 28.915193 39.103183 
L 28.053865 40.656 
L 27.224284 42.08255 
L 27.075948 42.336 
L 26.060817 44.016 
L 25.533375 44.853063 
L 25.533375 45.696 
L 25.533375 47.376 
L 25.533375 49.056 
L 25.533375 50.736 
L 25.533375 52.416 
L 25.533375 54.096 
L 25.533375 54.653547 
z
M 192.933375 54.653533 
L 192.933375 54.096 
L 192.933375 52.416 
L 192.933375 50.736 
L 192.933375 49.056 
L 192.933375 47.376 
L 192.933375 45.696 
L 192.933375 44.853044 
L 192.405945 44.016 
L 191.390817 42.336 
L 191.242466 42.082526 
L 190.412899 40.656 
L 189.551557 39.103163 
L 189.481392 38.976 
L 188.579648 37.296 
L 187.860648 35.892597 
L 187.719433 35.616 
L 186.885794 33.936 
L 186.169739 32.425284 
L 186.089647 32.256 
L 185.31492 30.576 
L 184.575014 28.896 
L 184.47883 28.671916 
L 183.853741 27.216 
L 183.161398 25.536 
L 182.78792 24.598709 
L 182.49147 23.856 
L 181.840841 22.176 
L 181.2165 20.496 
L 181.097011 20.496 
L 179.406102 20.496 
L 177.715193 20.496 
L 176.024284 20.496 
L 175.924504 20.496 
L 176.024284 20.793179 
L 176.486304 22.176 
L 177.069162 23.856 
L 177.677088 25.536 
L 177.715193 25.638952 
L 178.297184 27.216 
L 178.94418 28.896 
L 179.406102 30.050948 
L 179.615811 30.576 
L 180.307534 32.256 
L 181.032588 33.936 
L 181.097011 34.081456 
L 181.77725 35.616 
L 182.558041 37.296 
L 182.78792 37.774926 
L 183.365956 38.976 
L 184.21145 40.656 
L 184.47883 41.169266 
L 185.0894 42.336 
L 186.010535 44.016 
L 186.169739 44.297075 
L 186.967349 45.696 
L 187.860648 47.186495 
L 187.975125 47.376 
L 189.02474 49.056 
L 189.551557 49.861969 
L 190.12872 50.736 
L 191.242466 52.344766 
L 191.292358 52.416 
L 192.510618 54.096 
z
" clip-path="url(#pcab75945fe)" style="fill: #f6a077"/>
    <path d="M 26.060817 44.016 
L 27.075948 42.336 
L 27.224284 42.08255 
L 28.053865 40.656 
L 28.915193 39.103183 
L 28.98537 38.976 
L 29.887115 37.296 
L 30.606102 35.892624 
L 30.74733 35.616 
L 31.58097 33.936 
L 32.297011 32.425313 
L 32.377116 32.256 
L 33.151844 30.576 
L 33.891751 28.896 
L 33.98792 28.671952 
L 34.613024 27.216 
L 35.305367 25.536 
L 35.67883 24.598747 
L 35.975295 23.856 
L 36.625924 22.176 
L 37.250264 20.496 
L 35.67883 20.496 
L 33.98792 20.496 
L 32.320384 20.496 
L 32.297011 20.553538 
L 31.63898 22.176 
L 30.929414 23.856 
L 30.606102 24.598727 
L 30.198199 25.536 
L 29.442024 27.216 
L 28.915193 28.344386 
L 28.657349 28.896 
L 27.848077 30.576 
L 27.224284 31.820301 
L 27.005282 32.256 
L 26.135219 33.936 
L 25.533375 35.052576 
L 25.533375 35.616 
L 25.533375 37.296 
L 25.533375 38.976 
L 25.533375 40.656 
L 25.533375 42.336 
L 25.533375 44.016 
L 25.533375 44.853063 
z
M 192.933375 44.853044 
L 192.933375 44.016 
L 192.933375 42.336 
L 192.933375 40.656 
L 192.933375 38.976 
L 192.933375 37.296 
L 192.933375 35.616 
L 192.933375 35.052551 
L 192.331545 33.936 
L 191.46148 32.256 
L 191.242466 31.820276 
L 190.618685 30.576 
L 189.809413 28.896 
L 189.551557 28.344361 
L 189.024738 27.216 
L 188.268565 25.536 
L 187.860648 24.598698 
L 187.537348 23.856 
L 186.827784 22.176 
L 186.169739 20.553504 
L 186.14638 20.496 
L 184.47883 20.496 
L 182.78792 20.496 
L 181.2165 20.496 
L 181.840841 22.176 
L 182.49147 23.856 
L 182.78792 24.598709 
L 183.161398 25.536 
L 183.853741 27.216 
L 184.47883 28.671916 
L 184.575014 28.896 
L 185.31492 30.576 
L 186.089647 32.256 
L 186.169739 32.425284 
L 186.885794 33.936 
L 187.719433 35.616 
L 187.860648 35.892597 
L 188.579648 37.296 
L 189.481392 38.976 
L 189.551557 39.103163 
L 190.412899 40.656 
L 191.242466 42.082526 
L 191.390817 42.336 
L 192.405945 44.016 
z
" clip-path="url(#pcab75945fe)" style="fill: #f6b691"/>
    <path d="M 26.135219 33.936 
L 27.005282 32.256 
L 27.224284 31.820301 
L 27.848077 30.576 
L 28.657349 28.896 
L 28.915193 28.344386 
L 29.442024 27.216 
L 30.198199 25.536 
L 30.606102 24.598727 
L 30.929414 23.856 
L 31.63898 22.176 
L 32.297011 20.553538 
L 32.320384 20.496 
L 32.297011 20.496 
L 30.606102 20.496 
L 28.915193 20.496 
L 27.692177 20.496 
L 27.224284 21.558059 
L 26.952105 22.176 
L 26.190823 23.856 
L 25.533375 25.252082 
L 25.533375 25.536 
L 25.533375 27.216 
L 25.533375 28.896 
L 25.533375 30.576 
L 25.533375 32.256 
L 25.533375 33.936 
L 25.533375 35.052576 
z
M 192.933375 35.052551 
L 192.933375 33.936 
L 192.933375 32.256 
L 192.933375 30.576 
L 192.933375 28.896 
L 192.933375 27.216 
L 192.933375 25.536 
L 192.933375 25.252058 
L 192.27594 23.856 
L 191.514656 22.176 
L 191.242466 21.558032 
L 190.774586 20.496 
L 189.551557 20.496 
L 187.860648 20.496 
L 186.169739 20.496 
L 186.14638 20.496 
L 186.169739 20.553504 
L 186.827784 22.176 
L 187.537348 23.856 
L 187.860648 24.598698 
L 188.268565 25.536 
L 189.024738 27.216 
L 189.551557 28.344361 
L 189.809413 28.896 
L 190.618685 30.576 
L 191.242466 31.820276 
L 191.46148 32.256 
L 192.331545 33.936 
z
" clip-path="url(#pcab75945fe)" style="fill: #f7ccaf"/>
    <path d="M 26.190823 23.856 
L 26.952105 22.176 
L 27.224284 21.558059 
L 27.692177 20.496 
L 27.224284 20.496 
L 25.533375 20.496 
L 25.533375 22.176 
L 25.533375 23.856 
L 25.533375 25.252082 
z
M 192.933375 25.252058 
L 192.933375 23.856 
L 192.933375 22.176 
L 192.933375 20.496 
L 191.242466 20.496 
L 190.774586 20.496 
L 191.242466 21.558032 
L 191.514656 22.176 
L 192.27594 23.856 
z
" clip-path="url(#pcab75945fe)" style="fill: #f9e0cd"/>
   </g>
   <g id="patch_3">
    <path d="M 25.533375 186.816 
L 25.533375 20.496 
" style="fill: none; stroke: #262626; stroke-linejoin: miter; stroke-linecap: square"/>
   </g>
   <g id="patch_4">
    <path d="M 192.933375 186.816 
L 192.933375 20.496 
" style="fill: none; stroke: #262626; stroke-linejoin: miter; stroke-linecap: square"/>
   </g>
   <g id="patch_5">
    <path d="M 25.533375 186.816 
L 192.933375 186.816 
" style="fill: none; stroke: #262626; stroke-linejoin: miter; stroke-linecap: square"/>
   </g>
   <g id="patch_6">
    <path d="M 25.533375 20.496 
L 192.933375 20.496 
" style="fill: none; stroke: #262626; stroke-linejoin: miter; stroke-linecap: square"/>
   </g>
   <g id="text_15">
    <!-- $\psi_{7} = \phi_{12}\otimes \phi_{21}$ -->
    <g style="fill: #262626" transform="translate(76.833375 14.496) scale(0.096 -0.096)">
     <defs>
      <path id="DejaVuSans-Oblique-3c8" d="M 1591 -78 
Q 891 38 616 341 
Q 278 713 425 1472 
L 819 3500 
L 1400 3500 
L 1009 1494 
Q 900 922 1119 684 
Q 1313 478 1691 434 
L 2284 3500 
L 2856 3500 
L 2263 438 
Q 2681 481 2928 688 
Q 3247 950 3353 1497 
L 3741 3500 
L 4322 3500 
L 3928 1475 
Q 3775 688 3300 344 
Q 2872 34 2163 -75 
L 1919 -1331 
L 1347 -1331 
L 1591 -78 
z
" transform="scale(0.015625)"/>
      <path id="DejaVuSans-37" d="M 525 4666 
L 3525 4666 
L 3525 4397 
L 1831 0 
L 1172 0 
L 2766 4134 
L 525 4134 
L 525 4666 
z
" transform="scale(0.015625)"/>
      <path id="DejaVuSans-3d" d="M 678 2906 
L 4684 2906 
L 4684 2381 
L 678 2381 
L 678 2906 
z
M 678 1631 
L 4684 1631 
L 4684 1100 
L 678 1100 
L 678 1631 
z
" transform="scale(0.015625)"/>
      <path id="DejaVuSans-Oblique-3d5" d="M 2991 4863 
L 2738 3572 
Q 3363 3572 3684 3094 
Q 4016 2606 3850 1747 
Q 3681 888 3159 400 
Q 2653 -78 2028 -78 
L 1784 -1331 
L 1213 -1331 
L 1456 -78 
Q 834 -78 509 400 
Q 178 888 347 1747 
Q 513 2606 1034 3094 
Q 1544 3572 2166 3572 
L 2419 4863 
L 2991 4863 
z
M 2128 434 
Q 2481 434 2784 756 
Q 3116 1116 3244 1747 
Q 3369 2372 3169 2738 
Q 2991 3059 2638 3059 
L 2128 434 
z
M 1556 434 
L 2066 3059 
Q 1716 3059 1413 2738 
Q 1072 2372 953 1747 
Q 834 1116 1028 756 
Q 1203 434 1556 434 
z
" transform="scale(0.015625)"/>
      <path id="DejaVuSans-31" d="M 794 531 
L 1825 531 
L 1825 4091 
L 703 3866 
L 703 4441 
L 1819 4666 
L 2450 4666 
L 2450 531 
L 3481 531 
L 3481 0 
L 794 0 
L 794 531 
z
" transform="scale(0.015625)"/>
      <path id="DejaVuSans-32" d="M 1228 531 
L 3431 531 
L 3431 0 
L 469 0 
L 469 531 
Q 828 903 1448 1529 
Q 2069 2156 2228 2338 
Q 2531 2678 2651 2914 
Q 2772 3150 2772 3378 
Q 2772 3750 2511 3984 
Q 2250 4219 1831 4219 
Q 1534 4219 1204 4116 
Q 875 4013 500 3803 
L 500 4441 
Q 881 4594 1212 4672 
Q 1544 4750 1819 4750 
Q 2544 4750 2975 4387 
Q 3406 4025 3406 3419 
Q 3406 3131 3298 2873 
Q 3191 2616 2906 2266 
Q 2828 2175 2409 1742 
Q 1991 1309 1228 531 
z
" transform="scale(0.015625)"/>
      <path id="DejaVuSans-2297" d="M 3306 3522 
Q 3016 3644 2681 3644 
Q 2347 3644 2056 3522 
Q 1769 3400 1531 3163 
Q 1291 2922 1172 2634 
Q 1053 2347 1053 2006 
Q 1053 1675 1172 1387 
Q 1291 1100 1531 859 
Q 1769 622 2056 500 
Q 2347 378 2681 378 
Q 3016 378 3306 500 
Q 3594 622 3831 859 
Q 4072 1100 4190 1387 
Q 4309 1675 4309 2006 
Q 4309 2347 4190 2634 
Q 4072 2922 3831 3163 
Q 3594 3400 3306 3522 
z
M 1878 3956 
Q 2250 4113 2681 4113 
Q 3113 4113 3484 3956 
Q 3856 3800 4163 3494 
Q 4472 3184 4625 2813 
Q 4778 2444 4778 2006 
Q 4778 1578 4625 1206 
Q 4472 838 4163 528 
Q 3856 222 3484 65 
Q 3113 -91 2681 -91 
Q 2250 -91 1878 65 
Q 1506 222 1200 528 
Q 891 838 738 1206 
Q 584 1578 584 2006 
Q 584 2444 738 2813 
Q 891 3184 1200 3494 
Q 1506 3800 1878 3956 
z
M 3847 2794 
L 3056 2006 
L 3844 1219 
L 3469 844 
L 2681 1631 
L 1894 841 
L 1516 1219 
L 2306 2006 
L 1519 2794 
L 1894 3169 
L 2681 2381 
L 3469 3172 
L 3847 2794 
z
" transform="scale(0.015625)"/>
     </defs>
     <use xlink:href="#DejaVuSans-Oblique-3c8" transform="translate(0 0.015625)"/>
     <use xlink:href="#DejaVuSans-37" transform="translate(65.966797 -16.390625) scale(0.7)"/>
     <use xlink:href="#DejaVuSans-3d" transform="translate(132.719727 0.015625)"/>
     <use xlink:href="#DejaVuSans-Oblique-3d5" transform="translate(235.991211 0.015625)"/>
     <use xlink:href="#DejaVuSans-31" transform="translate(301.958008 -16.390625) scale(0.7)"/>
     <use xlink:href="#DejaVuSans-32" transform="translate(346.494141 -16.390625) scale(0.7)"/>
     <use xlink:href="#DejaVuSans-2297" transform="translate(413.24707 0.015625)"/>
     <use xlink:href="#DejaVuSans-Oblique-3d5" transform="translate(516.518555 0.015625)"/>
     <use xlink:href="#DejaVuSans-32" transform="translate(582.485352 -16.390625) scale(0.7)"/>
     <use xlink:href="#DejaVuSans-31" transform="translate(627.021484 -16.390625) scale(0.7)"/>
    </g>
   </g>
  </g>
 </g>
 <defs>
  <clipPath id="pcab75945fe">
   <rect x="25.533375" y="20.496" width="167.4" height="166.32"/>
  </clipPath>
 </defs>
</svg>