<?xml version="1.0" encoding="UTF-8" standalone="no"?>
<!DOCTYPE svg PUBLIC "-//W3C//DTD SVG 1.1//EN"
 "http://www.w3.org/Graphics/SVG/1.1/DTD/svg11.dtd">
<!-- Generated by graphviz version 9.0.0 (20230911.1827)
 -->
<!-- Pages: 1 -->
<svg width="386pt" height="67pt"
 viewBox="0.00 0.00 386.00 67.00" xmlns="http://www.w3.org/2000/svg" xmlns:xlink="http://www.w3.org/1999/xlink">
<g id="graph0" class="graph" transform="scale(1 1) rotate(0) translate(4 63)">
<polygon fill="white" stroke="none" points="-4,4 -4,-63 382,-63 382,4 -4,4"/>
<!-- x -->
<g id="node1" class="node">
<title>x</title>
<ellipse fill="none" stroke="black" cx="27" cy="-18" rx="27" ry="18"/>
<text text-anchor="middle" x="27" y="-12.95" font-family="Times,serif" font-size="14.00">x</text>
</g>
<!-- sqr -->
<g id="node4" class="node">
<title>sqr</title>
<polygon fill="none" stroke="black" points="126,-59 90,-59 90,-23 126,-23 126,-59"/>
<text text-anchor="middle" x="108" y="-35.95" font-family="Times,serif" font-size="14.00">sqr</text>
</g>
<!-- x&#45;&gt;sqr -->
<g id="edge1" class="edge">
<title>x&#45;&gt;sqr</title>
<path fill="none" stroke="black" d="M52.13,-25.03C60.59,-27.49 70.16,-30.27 78.91,-32.82"/>
<polygon fill="black" stroke="black" points="77.75,-36.13 88.33,-35.56 79.7,-29.41 77.75,-36.13"/>
</g>
<!-- add -->
<g id="node5" class="node">
<title>add</title>
<polygon fill="none" stroke="black" points="288,-36 252,-36 252,0 288,0 288,-36"/>
<text text-anchor="middle" x="270" y="-12.95" font-family="Times,serif" font-size="14.00">add</text>
</g>
<!-- x&#45;&gt;add -->
<g id="edge4" class="edge">
<title>x&#45;&gt;add</title>
<path fill="none" stroke="black" d="M54.23,-15.93C65.26,-15.16 78.25,-14.38 90,-14 145.97,-12.2 160.04,-11.89 216,-14 223.96,-14.3 232.58,-14.85 240.51,-15.45"/>
<polygon fill="black" stroke="black" points="240.07,-18.93 250.32,-16.25 240.64,-11.95 240.07,-18.93"/>
</g>
<!-- a -->
<g id="node2" class="node">
<title>a</title>
<ellipse fill="none" stroke="black" cx="189" cy="-41" rx="27" ry="18"/>
<text text-anchor="middle" x="189" y="-35.95" font-family="Times,serif" font-size="14.00">a</text>
</g>
<!-- a&#45;&gt;add -->
<g id="edge3" class="edge">
<title>a&#45;&gt;add</title>
<path fill="none" stroke="black" d="M214.13,-33.97C222.59,-31.51 232.16,-28.73 240.91,-26.18"/>
<polygon fill="black" stroke="black" points="241.7,-29.59 250.33,-23.44 239.75,-22.87 241.7,-29.59"/>
</g>
<!-- b -->
<g id="node3" class="node">
<title>b</title>
<ellipse fill="none" stroke="black" cx="351" cy="-18" rx="27" ry="18"/>
<text text-anchor="middle" x="351" y="-12.95" font-family="Times,serif" font-size="14.00">b</text>
</g>
<!-- sqr&#45;&gt;a -->
<g id="edge2" class="edge">
<title>sqr&#45;&gt;a</title>
<path fill="none" stroke="black" d="M126.14,-41C133.26,-41 141.81,-41 150.26,-41"/>
<polygon fill="black" stroke="black" points="150.05,-44.5 160.05,-41 150.05,-37.5 150.05,-44.5"/>
</g>
<!-- add&#45;&gt;b -->
<g id="edge5" class="edge">
<title>add&#45;&gt;b</title>
<path fill="none" stroke="black" d="M288.14,-18C295.26,-18 303.81,-18 312.26,-18"/>
<polygon fill="black" stroke="black" points="312.05,-21.5 322.05,-18 312.05,-14.5 312.05,-21.5"/>
</g>
</g>
</svg>