<?xml version="1.0" encoding="utf-8" standalone="no"?>
<!DOCTYPE svg PUBLIC "-//W3C//DTD SVG 1.1//EN"
  "http://www.w3.org/Graphics/SVG/1.1/DTD/svg11.dtd">
<svg xmlns:xlink="http://www.w3.org/1999/xlink" width="407.756pt" height="322.510875pt" viewBox="0 0 407.756 322.510875" xmlns="http://www.w3.org/2000/svg" version="1.1">
 <metadata>
  <rdf:RDF xmlns:dc="http://purl.org/dc/elements/1.1/" xmlns:cc="http://creativecommons.org/ns#" xmlns:rdf="http://www.w3.org/1999/02/22-rdf-syntax-ns#">
   <cc:Work>
    <dc:type rdf:resource="http://purl.org/dc/dcmitype/StillImage"/>
    <dc:date>2023-12-09T00:32:44.704399</dc:date>
    <dc:format>image/svg+xml</dc:format>
    <dc:creator>
     <cc:Agent>
      <dc:title>Matplotlib v3.8.0, https://matplotlib.org/</dc:title>
     </cc:Agent>
    </dc:creator>
   </cc:Work>
  </rdf:RDF>
 </metadata>
 <defs>
  <style type="text/css">*{stroke-linejoin: round; stroke-linecap: butt}</style>
 </defs>
 <g id="figure_1">
  <g id="patch_1">
   <path d="M 0 322.510875 
L 407.756 322.510875 
L 407.756 0 
L 0 0 
z
" style="fill: #ffffff"/>
  </g>
  <g id="axes_1">
   <g id="patch_2">
    <path d="M 43.436 286.1835 
L 400.556 286.1835 
L 400.556 20.0715 
L 43.436 20.0715 
z
" style="fill: #ffffff"/>
   </g>
   <g id="matplotlib.axis_1">
    <g id="xtick_1">
     <g id="line2d_1">
      <defs>
       <path id="m4c14c9c755" d="M 0 0 
L 0 4.8 
" style="stroke: #262626"/>
      </defs>
      <g>
       <use xlink:href="#m4c14c9c755" x="59.668727" y="286.1835" style="fill: #262626; stroke: #262626"/>
      </g>
     </g>
     <g id="text_1">
      <!-- 0 -->
      <g style="fill: #262626" transform="translate(57.221915 300.782375) scale(0.088 -0.088)">
       <defs>
        <path id="ArialMT-30" d="M 266 2259 
Q 266 3072 433 3567 
Q 600 4063 929 4331 
Q 1259 4600 1759 4600 
Q 2128 4600 2406 4451 
Q 2684 4303 2865 4023 
Q 3047 3744 3150 3342 
Q 3253 2941 3253 2259 
Q 3253 1453 3087 958 
Q 2922 463 2592 192 
Q 2263 -78 1759 -78 
Q 1097 -78 719 397 
Q 266 969 266 2259 
z
M 844 2259 
Q 844 1131 1108 757 
Q 1372 384 1759 384 
Q 2147 384 2411 759 
Q 2675 1134 2675 2259 
Q 2675 3391 2411 3762 
Q 2147 4134 1753 4134 
Q 1366 4134 1134 3806 
Q 844 3388 844 2259 
z
" transform="scale(0.015625)"/>
       </defs>
       <use xlink:href="#ArialMT-30"/>
      </g>
     </g>
    </g>
    <g id="xtick_2">
     <g id="line2d_2">
      <g>
       <use xlink:href="#m4c14c9c755" x="124.658132" y="286.1835" style="fill: #262626; stroke: #262626"/>
      </g>
     </g>
     <g id="text_2">
      <!-- 2 -->
      <g style="fill: #262626" transform="translate(122.211319 300.782375) scale(0.088 -0.088)">
       <defs>
        <path id="ArialMT-32" d="M 3222 541 
L 3222 0 
L 194 0 
Q 188 203 259 391 
Q 375 700 629 1000 
Q 884 1300 1366 1694 
Q 2113 2306 2375 2664 
Q 2638 3022 2638 3341 
Q 2638 3675 2398 3904 
Q 2159 4134 1775 4134 
Q 1369 4134 1125 3890 
Q 881 3647 878 3216 
L 300 3275 
Q 359 3922 746 4261 
Q 1134 4600 1788 4600 
Q 2447 4600 2831 4234 
Q 3216 3869 3216 3328 
Q 3216 3053 3103 2787 
Q 2991 2522 2730 2228 
Q 2469 1934 1863 1422 
Q 1356 997 1212 845 
Q 1069 694 975 541 
L 3222 541 
z
" transform="scale(0.015625)"/>
       </defs>
       <use xlink:href="#ArialMT-32"/>
      </g>
     </g>
    </g>
    <g id="xtick_3">
     <g id="line2d_3">
      <g>
       <use xlink:href="#m4c14c9c755" x="189.647536" y="286.1835" style="fill: #262626; stroke: #262626"/>
      </g>
     </g>
     <g id="text_3">
      <!-- 4 -->
      <g style="fill: #262626" transform="translate(187.200724 300.782375) scale(0.088 -0.088)">
       <defs>
        <path id="ArialMT-34" d="M 2069 0 
L 2069 1097 
L 81 1097 
L 81 1613 
L 2172 4581 
L 2631 4581 
L 2631 1613 
L 3250 1613 
L 3250 1097 
L 2631 1097 
L 2631 0 
L 2069 0 
z
M 2069 1613 
L 2069 3678 
L 634 1613 
L 2069 1613 
z
" transform="scale(0.015625)"/>
       </defs>
       <use xlink:href="#ArialMT-34"/>
      </g>
     </g>
    </g>
    <g id="xtick_4">
     <g id="line2d_4">
      <g>
       <use xlink:href="#m4c14c9c755" x="254.636941" y="286.1835" style="fill: #262626; stroke: #262626"/>
      </g>
     </g>
     <g id="text_4">
      <!-- 6 -->
      <g style="fill: #262626" transform="translate(252.190129 300.782375) scale(0.088 -0.088)">
       <defs>
        <path id="ArialMT-36" d="M 3184 3459 
L 2625 3416 
Q 2550 3747 2413 3897 
Q 2184 4138 1850 4138 
Q 1581 4138 1378 3988 
Q 1113 3794 959 3422 
Q 806 3050 800 2363 
Q 1003 2672 1297 2822 
Q 1591 2972 1913 2972 
Q 2475 2972 2870 2558 
Q 3266 2144 3266 1488 
Q 3266 1056 3080 686 
Q 2894 316 2569 119 
Q 2244 -78 1831 -78 
Q 1128 -78 684 439 
Q 241 956 241 2144 
Q 241 3472 731 4075 
Q 1159 4600 1884 4600 
Q 2425 4600 2770 4297 
Q 3116 3994 3184 3459 
z
M 888 1484 
Q 888 1194 1011 928 
Q 1134 663 1356 523 
Q 1578 384 1822 384 
Q 2178 384 2434 671 
Q 2691 959 2691 1453 
Q 2691 1928 2437 2201 
Q 2184 2475 1800 2475 
Q 1419 2475 1153 2201 
Q 888 1928 888 1484 
z
" transform="scale(0.015625)"/>
       </defs>
       <use xlink:href="#ArialMT-36"/>
      </g>
     </g>
    </g>
    <g id="xtick_5">
     <g id="line2d_5">
      <g>
       <use xlink:href="#m4c14c9c755" x="319.626346" y="286.1835" style="fill: #262626; stroke: #262626"/>
      </g>
     </g>
     <g id="text_5">
      <!-- 8 -->
      <g style="fill: #262626" transform="translate(317.179533 300.782375) scale(0.088 -0.088)">
       <defs>
        <path id="ArialMT-38" d="M 1131 2484 
Q 781 2613 612 2850 
Q 444 3088 444 3419 
Q 444 3919 803 4259 
Q 1163 4600 1759 4600 
Q 2359 4600 2725 4251 
Q 3091 3903 3091 3403 
Q 3091 3084 2923 2848 
Q 2756 2613 2416 2484 
Q 2838 2347 3058 2040 
Q 3278 1734 3278 1309 
Q 3278 722 2862 322 
Q 2447 -78 1769 -78 
Q 1091 -78 675 323 
Q 259 725 259 1325 
Q 259 1772 486 2073 
Q 713 2375 1131 2484 
z
M 1019 3438 
Q 1019 3113 1228 2906 
Q 1438 2700 1772 2700 
Q 2097 2700 2305 2904 
Q 2513 3109 2513 3406 
Q 2513 3716 2298 3927 
Q 2084 4138 1766 4138 
Q 1444 4138 1231 3931 
Q 1019 3725 1019 3438 
z
M 838 1322 
Q 838 1081 952 856 
Q 1066 631 1291 507 
Q 1516 384 1775 384 
Q 2178 384 2440 643 
Q 2703 903 2703 1303 
Q 2703 1709 2433 1975 
Q 2163 2241 1756 2241 
Q 1359 2241 1098 1978 
Q 838 1716 838 1322 
z
" transform="scale(0.015625)"/>
       </defs>
       <use xlink:href="#ArialMT-38"/>
      </g>
     </g>
    </g>
    <g id="xtick_6">
     <g id="line2d_6">
      <g>
       <use xlink:href="#m4c14c9c755" x="384.61575" y="286.1835" style="fill: #262626; stroke: #262626"/>
      </g>
     </g>
     <g id="text_6">
      <!-- 10 -->
      <g style="fill: #262626" transform="translate(379.722125 300.782375) scale(0.088 -0.088)">
       <defs>
        <path id="ArialMT-31" d="M 2384 0 
L 1822 0 
L 1822 3584 
Q 1619 3391 1289 3197 
Q 959 3003 697 2906 
L 697 3450 
Q 1169 3672 1522 3987 
Q 1875 4303 2022 4600 
L 2384 4600 
L 2384 0 
z
" transform="scale(0.015625)"/>
       </defs>
       <use xlink:href="#ArialMT-31"/>
       <use xlink:href="#ArialMT-30" x="55.615234"/>
      </g>
     </g>
    </g>
    <g id="text_7">
     <!-- t -->
     <g style="fill: #262626" transform="translate(220.6625 313.402875) scale(0.096 -0.096)">
      <defs>
       <path id="ArialMT-74" d="M 1650 503 
L 1731 6 
Q 1494 -44 1306 -44 
Q 1000 -44 831 53 
Q 663 150 594 308 
Q 525 466 525 972 
L 525 2881 
L 113 2881 
L 113 3319 
L 525 3319 
L 525 4141 
L 1084 4478 
L 1084 3319 
L 1650 3319 
L 1650 2881 
L 1084 2881 
L 1084 941 
Q 1084 700 1114 631 
Q 1144 563 1211 522 
Q 1278 481 1403 481 
Q 1497 481 1650 503 
z
" transform="scale(0.015625)"/>
      </defs>
      <use xlink:href="#ArialMT-74"/>
     </g>
    </g>
   </g>
   <g id="matplotlib.axis_2">
    <g id="ytick_1">
     <g id="line2d_7">
      <defs>
       <path id="m6810b792ea" d="M 0 0 
L -4.8 0 
" style="stroke: #262626"/>
      </defs>
      <g>
       <use xlink:href="#m6810b792ea" x="43.436" y="263.036616" style="fill: #262626; stroke: #262626"/>
      </g>
     </g>
     <g id="text_8">
      <!-- −20 -->
      <g style="fill: #262626" transform="translate(20.209 266.186053) scale(0.088 -0.088)">
       <defs>
        <path id="ArialMT-2212" d="M 3381 1997 
L 356 1997 
L 356 2522 
L 3381 2522 
L 3381 1997 
z
" transform="scale(0.015625)"/>
       </defs>
       <use xlink:href="#ArialMT-2212"/>
       <use xlink:href="#ArialMT-32" x="58.398438"/>
       <use xlink:href="#ArialMT-30" x="114.013672"/>
      </g>
     </g>
    </g>
    <g id="ytick_2">
     <g id="line2d_8">
      <g>
       <use xlink:href="#m6810b792ea" x="43.436" y="226.942474" style="fill: #262626; stroke: #262626"/>
      </g>
     </g>
     <g id="text_9">
      <!-- −10 -->
      <g style="fill: #262626" transform="translate(20.209 230.091911) scale(0.088 -0.088)">
       <use xlink:href="#ArialMT-2212"/>
       <use xlink:href="#ArialMT-31" x="58.398438"/>
       <use xlink:href="#ArialMT-30" x="114.013672"/>
      </g>
     </g>
    </g>
    <g id="ytick_3">
     <g id="line2d_9">
      <g>
       <use xlink:href="#m6810b792ea" x="43.436" y="190.848332" style="fill: #262626; stroke: #262626"/>
      </g>
     </g>
     <g id="text_10">
      <!-- 0 -->
      <g style="fill: #262626" transform="translate(30.242375 193.997769) scale(0.088 -0.088)">
       <use xlink:href="#ArialMT-30"/>
      </g>
     </g>
    </g>
    <g id="ytick_4">
     <g id="line2d_10">
      <g>
       <use xlink:href="#m6810b792ea" x="43.436" y="154.75419" style="fill: #262626; stroke: #262626"/>
      </g>
     </g>
     <g id="text_11">
      <!-- 10 -->
      <g style="fill: #262626" transform="translate(25.34875 157.903627) scale(0.088 -0.088)">
       <use xlink:href="#ArialMT-31"/>
       <use xlink:href="#ArialMT-30" x="55.615234"/>
      </g>
     </g>
    </g>
    <g id="ytick_5">
     <g id="line2d_11">
      <g>
       <use xlink:href="#m6810b792ea" x="43.436" y="118.660048" style="fill: #262626; stroke: #262626"/>
      </g>
     </g>
     <g id="text_12">
      <!-- 20 -->
      <g style="fill: #262626" transform="translate(25.34875 121.809486) scale(0.088 -0.088)">
       <use xlink:href="#ArialMT-32"/>
       <use xlink:href="#ArialMT-30" x="55.615234"/>
      </g>
     </g>
    </g>
    <g id="ytick_6">
     <g id="line2d_12">
      <g>
       <use xlink:href="#m6810b792ea" x="43.436" y="82.565906" style="fill: #262626; stroke: #262626"/>
      </g>
     </g>
     <g id="text_13">
      <!-- 30 -->
      <g style="fill: #262626" transform="translate(25.34875 85.715344) scale(0.088 -0.088)">
       <defs>
        <path id="ArialMT-33" d="M 269 1209 
L 831 1284 
Q 928 806 1161 595 
Q 1394 384 1728 384 
Q 2125 384 2398 659 
Q 2672 934 2672 1341 
Q 2672 1728 2419 1979 
Q 2166 2231 1775 2231 
Q 1616 2231 1378 2169 
L 1441 2663 
Q 1497 2656 1531 2656 
Q 1891 2656 2178 2843 
Q 2466 3031 2466 3422 
Q 2466 3731 2256 3934 
Q 2047 4138 1716 4138 
Q 1388 4138 1169 3931 
Q 950 3725 888 3313 
L 325 3413 
Q 428 3978 793 4289 
Q 1159 4600 1703 4600 
Q 2078 4600 2393 4439 
Q 2709 4278 2876 4000 
Q 3044 3722 3044 3409 
Q 3044 3113 2884 2869 
Q 2725 2625 2413 2481 
Q 2819 2388 3044 2092 
Q 3269 1797 3269 1353 
Q 3269 753 2831 336 
Q 2394 -81 1725 -81 
Q 1122 -81 723 278 
Q 325 638 269 1209 
z
" transform="scale(0.015625)"/>
       </defs>
       <use xlink:href="#ArialMT-33"/>
       <use xlink:href="#ArialMT-30" x="55.615234"/>
      </g>
     </g>
    </g>
    <g id="ytick_7">
     <g id="line2d_13">
      <g>
       <use xlink:href="#m6810b792ea" x="43.436" y="46.471764" style="fill: #262626; stroke: #262626"/>
      </g>
     </g>
     <g id="text_14">
      <!-- 40 -->
      <g style="fill: #262626" transform="translate(25.34875 49.621202) scale(0.088 -0.088)">
       <use xlink:href="#ArialMT-34"/>
       <use xlink:href="#ArialMT-30" x="55.615234"/>
      </g>
     </g>
    </g>
    <g id="text_15">
     <!-- u(t) -->
     <g style="fill: #262626" transform="translate(14.1885 160.32675) rotate(-90) scale(0.096 -0.096)">
      <defs>
       <path id="ArialMT-75" d="M 2597 0 
L 2597 488 
Q 2209 -75 1544 -75 
Q 1250 -75 995 37 
Q 741 150 617 320 
Q 494 491 444 738 
Q 409 903 409 1263 
L 409 3319 
L 972 3319 
L 972 1478 
Q 972 1038 1006 884 
Q 1059 663 1231 536 
Q 1403 409 1656 409 
Q 1909 409 2131 539 
Q 2353 669 2445 892 
Q 2538 1116 2538 1541 
L 2538 3319 
L 3100 3319 
L 3100 0 
L 2597 0 
z
" transform="scale(0.015625)"/>
       <path id="ArialMT-28" d="M 1497 -1347 
Q 1031 -759 709 28 
Q 388 816 388 1659 
Q 388 2403 628 3084 
Q 909 3875 1497 4659 
L 1900 4659 
Q 1522 4009 1400 3731 
Q 1209 3300 1100 2831 
Q 966 2247 966 1656 
Q 966 153 1900 -1347 
L 1497 -1347 
z
" transform="scale(0.015625)"/>
       <path id="ArialMT-29" d="M 791 -1347 
L 388 -1347 
Q 1322 153 1322 1656 
Q 1322 2244 1188 2822 
Q 1081 3291 891 3722 
Q 769 4003 388 4659 
L 791 4659 
Q 1378 3875 1659 3084 
Q 1900 2403 1900 1659 
Q 1900 816 1576 28 
Q 1253 -759 791 -1347 
z
" transform="scale(0.015625)"/>
      </defs>
      <use xlink:href="#ArialMT-75"/>
      <use xlink:href="#ArialMT-28" x="55.615234"/>
      <use xlink:href="#ArialMT-74" x="88.916016"/>
      <use xlink:href="#ArialMT-29" x="116.699219"/>
     </g>
    </g>
   </g>
   <g id="line2d_14">
    <path d="M 59.668727 187.238918 
L 60.318686 187.107328 
L 60.968645 186.652233 
L 61.618604 185.821949 
L 62.268563 184.616565 
L 63.243502 182.205436 
L 63.893461 180.07814 
L 64.54342 177.363634 
L 65.193379 173.940345 
L 66.168318 167.219965 
L 67.143256 158.449983 
L 68.118195 147.174123 
L 69.743092 127.275827 
L 70.068072 125.187227 
L 70.393051 123.830241 
L 70.718031 122.969325 
L 71.043011 122.478934 
L 71.36799 122.343614 
L 71.692969 122.657901 
L 72.017949 123.626387 
L 72.342928 125.563701 
L 72.992888 133.321782 
L 75.592724 170.499496 
L 76.567663 179.508547 
L 77.542602 186.038491 
L 78.517539 190.703611 
L 79.492478 194.056843 
L 80.467416 196.636191 
L 81.767335 199.385721 
L 83.067254 202.151892 
L 84.36717 205.434411 
L 85.342109 208.449107 
L 86.317048 212.141052 
L 87.291987 216.601243 
L 88.591904 223.71649 
L 90.866761 236.833672 
L 91.51672 239.540013 
L 92.16668 241.154477 
L 92.491657 241.390622 
L 92.816639 241.208905 
L 93.141617 240.666905 
L 93.791576 238.682488 
L 94.441535 235.698687 
L 95.091494 231.817446 
L 96.716391 219.630668 
L 98.016309 210.948451 
L 98.99125 205.94619 
L 99.966187 202.234531 
L 100.941128 199.652766 
L 101.591083 198.464479 
L 102.241043 197.631509 
L 102.891002 197.088584 
L 103.540961 196.807421 
L 104.19092 196.759248 
L 104.84088 196.909671 
L 105.815821 197.442387 
L 106.790758 198.368943 
L 107.765695 199.734126 
L 108.740635 201.58938 
L 109.715572 204.040305 
L 110.690513 207.234494 
L 111.66545 211.321237 
L 112.640387 216.404764 
L 113.615328 222.593095 
L 116.540143 242.801545 
L 117.190102 245.248667 
L 117.51508 245.854592 
L 117.840061 245.989767 
L 118.165039 245.616239 
L 118.490021 244.651902 
L 119.13998 241.197731 
L 120.114917 233.779637 
L 121.414836 221.960318 
L 122.714754 210.286453 
L 123.689691 203.499064 
L 124.664632 198.469986 
L 125.639573 194.818832 
L 126.614506 192.278545 
L 127.589447 190.528415 
L 128.564388 189.217969 
L 129.864306 187.859227 
L 131.81418 185.941081 
L 133.114099 184.291712 
L 134.08904 182.700194 
L 135.063973 180.638564 
L 136.038913 177.968269 
L 137.013854 174.517996 
L 137.988787 170.098501 
L 138.963728 164.557585 
L 139.938669 157.777104 
L 142.538506 138.036041 
L 143.188462 134.994071 
L 143.513439 134.123902 
L 143.838425 133.769376 
L 144.163403 133.988648 
L 144.48838 134.916343 
L 145.138343 138.568006 
L 146.113276 146.401093 
L 147.413195 158.924064 
L 148.713114 171.846951 
L 149.688054 179.314792 
L 150.662995 184.831324 
L 151.637928 188.893644 
L 152.612869 191.771399 
L 153.58781 193.836394 
L 154.887729 196.008866 
L 157.487566 200.054753 
L 158.462499 202.045331 
L 159.43744 204.499042 
L 160.412381 207.580993 
L 161.387314 211.445153 
L 162.362255 216.22786 
L 163.662173 224.018368 
L 166.26201 240.497728 
L 166.911966 242.981358 
L 167.236951 243.567521 
L 167.561929 243.655256 
L 167.886907 243.327317 
L 168.211884 242.647884 
L 168.861847 240.398424 
L 169.511803 237.049237 
L 170.161766 232.445789 
L 172.761603 211.021023 
L 173.736536 205.14476 
L 174.711477 200.733296 
L 175.686418 197.583775 
L 176.336373 196.066742 
L 177.311314 194.46802 
L 177.96127 193.747752 
L 178.611233 193.257154 
L 179.586166 192.843703 
L 180.561107 192.661594 
L 181.536047 192.677298 
L 182.835966 192.975355 
L 184.135885 193.53205 
L 185.110818 194.161063 
L 186.085759 195.021459 
L 187.060699 196.175072 
L 188.03564 197.718523 
L 189.010573 199.780756 
L 189.985506 202.532752 
L 190.960447 206.186432 
L 191.935388 211.010588 
L 192.910329 217.230828 
L 193.88527 224.852132 
L 195.510166 240.071425 
L 196.485107 247.970894 
L 197.135062 250.637991 
L 197.460048 251.227558 
L 197.785018 251.361818 
L 198.110003 251.03836 
L 198.434989 250.228471 
L 198.759959 248.877206 
L 199.084944 246.903094 
L 199.7349 240.881307 
L 201.359796 221.341647 
L 202.334737 210.677691 
L 203.309678 202.51414 
L 204.284618 196.425417 
L 205.259544 191.994838 
L 206.234485 188.832222 
L 207.209425 186.472632 
L 208.509352 184.077567 
L 210.134248 181.207568 
L 211.434159 178.49013 
L 212.4091 175.956517 
L 213.384041 172.802402 
L 214.358981 168.907443 
L 215.333922 164.193413 
L 216.633833 156.740566 
L 218.908685 143.29853 
L 219.558656 140.889117 
L 219.883626 140.147535 
L 220.208611 139.731912 
L 220.533596 139.652694 
L 220.858566 139.918208 
L 221.183552 140.534807 
L 221.508522 141.50669 
L 222.158493 144.523366 
L 223.133418 151.14133 
L 225.733255 170.481368 
L 226.708196 175.780889 
L 227.683137 179.755953 
L 228.333092 181.727639 
L 228.983063 183.221481 
L 229.633019 184.327052 
L 230.282974 185.093182 
L 230.932929 185.568476 
L 231.582885 185.808127 
L 232.232856 185.869064 
L 232.882811 185.765002 
L 233.532767 185.494481 
L 234.507707 184.782302 
L 235.482648 183.71563 
L 236.457589 182.241106 
L 237.43253 180.257511 
L 238.407455 177.643305 
L 239.382396 174.252973 
L 240.357337 169.889017 
L 241.332278 164.414537 
L 242.632189 155.46052 
L 244.907056 138.621746 
L 245.557011 135.950543 
L 245.881997 135.294576 
L 246.206967 135.049518 
L 246.531952 135.200235 
L 246.856938 135.744895 
L 247.181908 136.694834 
L 247.831863 139.922456 
L 248.481834 145.084787 
L 251.731626 174.956391 
L 252.706567 180.805758 
L 253.681493 185.115869 
L 254.656433 188.156207 
L 255.631374 190.278196 
L 256.606315 191.761416 
L 257.906226 193.164078 
L 261.156034 196.428044 
L 262.130975 197.796435 
L 263.1059 199.528928 
L 264.080841 201.760521 
L 265.055782 204.664016 
L 266.030723 208.423908 
L 267.005664 213.234196 
L 267.980604 219.21397 
L 269.280515 228.889564 
L 270.905412 241.764883 
L 271.555367 245.437413 
L 272.205338 247.476703 
L 272.530308 247.836514 
L 272.855293 247.731409 
L 273.180263 247.142727 
L 273.505249 246.051816 
L 274.155204 242.289857 
L 274.805175 236.714617 
L 278.054967 205.74658 
L 279.029908 199.7529 
L 280.004834 195.354241 
L 280.979775 192.258996 
L 281.954715 190.057861 
L 282.929656 188.482749 
L 284.879538 186.042196 
L 286.504434 183.940485 
L 287.479375 182.355786 
L 288.4543 180.356551 
L 289.429241 177.82189 
L 290.404182 174.580721 
L 291.379123 170.467261 
L 292.354064 165.305182 
L 293.653975 156.784861 
L 295.928842 140.547994 
L 296.578797 137.277024 
L 296.903783 136.226832 
L 297.228753 135.806855 
L 297.553738 136.005773 
L 297.878708 136.675034 
L 298.528679 139.01182 
L 299.178634 142.353658 
L 299.82859 146.817001 
L 300.803531 156.045551 
L 302.103441 168.186094 
L 303.078382 175.388399 
L 304.053323 180.938926 
L 305.028264 185.003585 
L 306.003205 187.868085 
L 306.978146 189.847663 
L 307.953087 191.249705 
L 308.928012 192.244994 
L 313.152745 195.936114 
L 314.127686 197.22282 
L 315.102627 198.871976 
L 316.077568 201.014993 
L 317.052509 203.821736 
L 318.02745 207.483341 
L 319.00239 212.209576 
L 319.977331 218.151936 
L 320.952257 225.306559 
L 323.552109 245.711034 
L 324.202049 248.285632 
L 324.527035 248.877261 
L 324.85202 248.965024 
L 325.177005 248.525237 
L 325.50196 247.539372 
L 325.826945 245.993612 
L 326.476916 241.263061 
L 327.451842 231.52166 
L 329.401723 211.085181 
L 330.37668 203.416009 
L 331.351605 197.622781 
L 332.32653 193.421468 
L 333.301487 190.453349 
L 334.276412 188.302171 
L 335.251368 186.691129 
L 338.176176 182.266908 
L 339.151101 180.405751 
L 340.126057 178.066268 
L 341.100983 175.126249 
L 342.075939 171.431346 
L 343.050864 166.846725 
L 344.025821 161.287975 
L 345.650717 150.331686 
L 346.950628 141.976854 
L 347.600568 139.026622 
L 347.925553 138.041566 
L 348.250539 137.442264 
L 348.575524 137.267827 
L 348.900509 137.553829 
L 349.225464 138.375649 
L 349.875435 141.393799 
L 350.85036 148.056061 
L 352.150302 158.981435 
L 353.450213 169.93431 
L 354.425138 176.412221 
L 355.400095 181.255749 
L 356.37502 184.764081 
L 357.349976 187.170386 
L 358.324902 188.75893 
L 359.299858 189.831254 
L 360.274783 190.54556 
L 361.574694 191.127462 
L 366.774368 193.096649 
L 368.074279 193.997883 
L 369.049235 194.939796 
L 370.024161 196.197235 
L 370.999117 197.882036 
L 371.974043 200.149156 
L 372.948968 203.194064 
L 373.923924 207.271854 
L 374.89885 212.6583 
L 375.873806 219.522645 
L 376.848731 228.107034 
L 379.123598 249.536767 
L 379.773538 252.909289 
L 380.098524 253.65719 
L 380.423509 253.710049 
L 380.748495 253.041394 
L 381.07348 251.645283 
L 381.72342 246.762246 
L 382.698376 235.700798 
L 384.323273 214.879643 
L 384.323273 214.879643 
" clip-path="url(#pfa86b20ff6)" style="fill: none; stroke: #1f77b4; stroke-width: 0.5; stroke-linecap: round"/>
   </g>
   <g id="line2d_15">
    <path d="M 59.668727 187.238918 
L 60.968645 183.203274 
L 61.943584 179.602591 
L 62.593543 176.591424 
L 63.243502 172.762731 
L 63.893461 168.01564 
L 64.8684 158.706654 
L 65.843338 146.229375 
L 66.818276 130.469822 
L 68.768153 96.407249 
L 69.093133 93.209667 
L 69.418113 91.939721 
L 69.743092 93.05041 
L 70.068072 96.482558 
L 70.718031 109.455611 
L 71.692969 139.367682 
L 72.667908 170.798379 
L 73.642847 194.172786 
L 74.292805 203.016925 
L 74.617785 205.130422 
L 74.942765 205.941181 
L 75.267744 205.821283 
L 75.592724 205.298694 
L 75.917703 205.057363 
L 76.242683 205.125769 
L 76.892642 204.865551 
L 78.517539 203.712955 
L 79.167498 203.565654 
L 79.817457 203.696504 
L 80.467416 204.14109 
L 81.117376 204.943423 
L 81.767335 206.117328 
L 82.742274 208.539434 
L 83.717211 211.828764 
L 84.69215 216.141552 
L 85.667089 221.533567 
L 86.967007 230.341411 
L 89.566842 249.23923 
L 90.216802 251.919792 
L 90.541781 252.50125 
L 90.866761 252.488823 
L 91.191741 251.83698 
L 91.51672 250.51655 
L 92.16668 245.835222 
L 92.816639 238.909123 
L 94.116557 221.699582 
L 95.416476 205.413619 
L 96.066431 199.636413 
L 96.716391 195.604512 
L 97.36635 193.145318 
L 98.016309 191.935543 
L 98.666269 191.501265 
L 99.316228 191.494863 
L 99.966187 191.844914 
L 100.941128 192.751798 
L 102.566024 194.693868 
L 104.19092 196.975287 
L 105.490839 199.220186 
L 106.46578 201.34791 
L 107.440717 204.000829 
L 108.415654 207.370929 
L 109.390595 211.676614 
L 110.365532 217.157495 
L 111.340473 223.998686 
L 112.640387 235.275324 
L 114.915247 256.278127 
L 115.565206 259.649513 
L 115.890184 260.276194 
L 116.215165 260.033222 
L 116.540143 258.849558 
L 116.865121 256.695529 
L 117.51508 249.564325 
L 118.490021 233.438298 
L 120.114917 205.537758 
L 120.764876 196.427562 
L 121.414836 190.035358 
L 122.064795 186.523874 
L 122.714754 184.705472 
L 123.039732 184.237173 
L 123.364713 183.978133 
L 124.014673 183.890229 
L 124.664632 184.140527 
L 126.939491 185.400498 
L 127.914424 185.531567 
L 128.564388 185.443978 
L 129.214343 185.194331 
L 129.864306 184.762572 
L 130.839239 183.76038 
L 131.81418 182.334934 
L 132.789121 180.371936 
L 133.764054 177.723418 
L 134.738995 174.234855 
L 135.713936 169.683304 
L 136.688877 163.786699 
L 137.66381 156.341573 
L 138.638751 147.305698 
L 141.238588 121.306574 
L 141.563565 119.36402 
L 141.888543 118.215763 
L 142.213529 118.018731 
L 142.538506 118.879275 
L 142.863484 120.853077 
L 143.188462 123.945183 
L 143.838425 133.251627 
L 147.088217 191.008494 
L 147.73818 196.421813 
L 148.388136 199.244957 
L 148.713114 200.03337 
L 149.038091 200.527268 
L 149.363077 200.800524 
L 150.013032 200.913193 
L 150.662995 200.692996 
L 152.287892 199.89879 
L 152.937847 199.815537 
L 153.58781 199.948606 
L 154.237766 200.295507 
L 154.887729 200.871952 
L 155.537684 201.714672 
L 156.187647 202.848566 
L 157.16258 205.119421 
L 158.137521 208.138534 
L 159.112462 212.100344 
L 160.087395 217.165371 
L 161.062336 223.438339 
L 162.362255 233.731178 
L 164.637114 252.798877 
L 165.287069 255.946946 
L 165.612047 256.628557 
L 165.937033 256.60619 
L 166.26201 255.814689 
L 166.586988 254.202147 
L 167.236951 248.479989 
L 167.886907 240.246213 
L 170.811721 198.41695 
L 171.461684 193.264221 
L 172.11164 190.171136 
L 172.436618 189.275017 
L 172.761603 188.709896 
L 173.411558 188.152298 
L 173.736536 188.017893 
L 174.386499 188.092549 
L 175.036455 188.462426 
L 176.986336 190.065271 
L 178.611233 191.2553 
L 182.835966 194.00929 
L 183.810907 194.940604 
L 184.78584 196.136753 
L 185.760781 197.699666 
L 186.735722 199.772072 
L 187.710655 202.53188 
L 188.685596 206.218463 
L 189.660537 211.126708 
L 190.635477 217.583934 
L 191.610418 226.011667 
L 192.585344 236.548382 
L 195.185181 267.901932 
L 195.510166 270.148323 
L 195.835152 271.375056 
L 196.160122 271.317736 
L 196.485107 269.668768 
L 196.810077 266.507343 
L 197.460048 256.645101 
L 198.434989 236.243255 
L 200.384855 193.262278 
L 201.03481 184.925045 
L 201.359796 182.415321 
L 201.684781 180.870231 
L 202.009751 180.069433 
L 202.984692 179.024672 
L 203.309678 178.879608 
L 203.959633 178.976931 
L 205.909515 179.914792 
L 206.55947 179.939926 
L 207.209425 179.724058 
L 207.859381 179.222296 
L 208.509352 178.417223 
L 209.159307 177.318971 
L 210.134248 175.103024 
L 211.109189 172.058493 
L 212.084114 168.067856 
L 213.059055 163.05263 
L 214.033996 156.894299 
L 215.333922 147.089734 
L 217.283788 132.196921 
L 217.933759 129.059667 
L 218.258729 128.191798 
L 218.583715 127.904835 
L 218.908685 128.28694 
L 219.23367 129.418648 
L 219.558656 131.279208 
L 220.208611 136.924295 
L 221.183552 149.015978 
L 223.133418 175.815039 
L 223.783389 182.106794 
L 224.433344 186.448391 
L 225.0833 189.073701 
L 225.733255 190.533109 
L 226.058241 190.929648 
L 226.383226 191.146076 
L 226.708196 191.215826 
L 227.358151 191.030195 
L 228.008122 190.564778 
L 229.308033 189.257129 
L 231.582885 186.587591 
L 232.882811 184.778697 
L 234.182722 182.532131 
L 235.157663 180.37525 
L 236.132604 177.617306 
L 237.107545 174.073015 
L 238.082485 169.511678 
L 239.057426 163.690941 
L 240.032367 156.36338 
L 241.332278 144.248372 
L 243.28216 124.812536 
L 243.932115 120.670881 
L 244.2571 119.597134 
L 244.58207 119.377032 
L 244.907056 120.160884 
L 245.232026 122.083163 
L 245.881997 128.919776 
L 246.531952 138.699275 
L 248.156848 168.611462 
L 249.131789 184.160149 
L 249.781745 190.962792 
L 250.4317 194.815632 
L 250.756685 195.855658 
L 251.406641 197.032915 
L 251.731626 197.426284 
L 252.056596 197.629559 
L 252.706567 197.628601 
L 253.356523 197.310446 
L 255.306404 196.16855 
L 256.28133 195.940039 
L 256.931301 195.991823 
L 257.906226 196.368424 
L 258.881167 197.079858 
L 259.856108 198.210817 
L 260.831049 199.830589 
L 261.805989 202.003082 
L 262.78093 204.898278 
L 263.755871 208.725162 
L 264.730796 213.70339 
L 265.705737 220.096326 
L 266.680678 228.148141 
L 267.980604 241.251671 
L 269.605501 258.124423 
L 270.255456 262.603338 
L 270.580442 263.787966 
L 270.905412 264.03374 
L 271.230397 263.115298 
L 271.555367 261.037582 
L 272.205338 253.906551 
L 272.855293 243.66613 
L 274.155204 218.114949 
L 275.130145 200.364036 
L 275.7801 192.057973 
L 276.430071 186.905771 
L 277.080027 184.289433 
L 277.729982 182.967767 
L 278.054967 182.649822 
L 278.379937 182.515119 
L 279.029908 182.618405 
L 280.329819 183.387862 
L 281.30476 183.854455 
L 281.954715 183.991333 
L 282.604671 183.936189 
L 283.254642 183.673582 
L 283.904597 183.216105 
L 284.554552 182.570071 
L 285.204508 181.697689 
L 286.179449 179.897089 
L 287.15439 177.434079 
L 288.12933 174.194275 
L 289.104271 169.950777 
L 290.079212 164.495353 
L 291.054138 157.669184 
L 292.029078 149.365269 
L 294.628916 125.016742 
L 295.278871 121.710593 
L 295.603856 121.14815 
L 295.928842 121.440944 
L 296.253812 122.661709 
L 296.578797 124.864803 
L 297.228753 132.144854 
L 298.203693 147.515087 
L 300.153575 180.469048 
L 300.803531 187.928249 
L 301.453486 192.842522 
L 302.103441 195.532365 
L 302.428427 196.216982 
L 302.753412 196.587783 
L 303.403368 196.867632 
L 304.053323 196.863805 
L 304.703279 196.564958 
L 306.65316 195.409241 
L 307.628101 195.1147 
L 308.278056 195.085798 
L 309.252997 195.323931 
L 310.227938 195.863051 
L 311.202879 196.721862 
L 312.17782 197.985908 
L 313.152745 199.723741 
L 314.127686 202.035851 
L 315.102627 205.116267 
L 316.077568 209.185743 
L 317.052509 214.485779 
L 318.02745 221.336384 
L 319.00239 229.947798 
L 320.302286 243.890393 
L 321.602228 258.239461 
L 322.252167 263.554433 
L 322.577153 265.204544 
L 322.902138 265.922795 
L 323.227124 265.44123 
L 323.552109 263.729511 
L 323.877064 260.892163 
L 324.527035 252.296555 
L 325.50196 234.031297 
L 327.126856 200.86758 
L 327.776827 191.762585 
L 328.426798 185.972637 
L 329.076738 182.9492 
L 329.726709 181.486498 
L 330.051694 181.141316 
L 330.37668 180.992216 
L 331.02662 181.087075 
L 333.626472 182.274936 
L 334.276412 182.214786 
L 334.926383 181.91372 
L 335.576323 181.368215 
L 336.226294 180.596947 
L 336.876265 179.572366 
L 337.85119 177.470525 
L 338.826146 174.59569 
L 339.801072 170.851303 
L 340.775997 166.030425 
L 341.750954 159.960733 
L 342.725879 152.603149 
L 344.350775 138.19388 
L 345.325731 129.977855 
L 345.975671 125.960911 
L 346.300657 124.707542 
L 346.625642 124.131792 
L 346.950628 124.329629 
L 347.275613 125.362559 
L 347.600568 127.257404 
L 348.250539 133.56959 
L 348.900509 142.791641 
L 351.175346 178.317072 
L 351.825317 185.844597 
L 352.475287 190.624531 
L 353.125227 193.378438 
L 353.775198 194.770179 
L 354.100184 195.103105 
L 354.425138 195.260497 
L 355.075109 195.210674 
L 355.72508 194.878547 
L 358.649887 192.934838 
L 359.949798 192.484286 
L 360.924754 192.374554 
L 362.224665 192.464831 
L 363.524576 192.784049 
L 364.824487 193.394275 
L 365.799443 194.06046 
L 366.774368 194.970396 
L 367.749325 196.207339 
L 368.72425 197.873085 
L 369.699175 200.11617 
L 370.674132 203.147817 
L 371.649057 207.234597 
L 372.624013 212.698596 
L 373.598939 219.985811 
L 374.573895 229.443546 
L 375.548821 241.140085 
L 377.823688 270.57064 
L 378.148642 272.960308 
L 378.473628 274.0875 
L 378.798613 273.75775 
L 379.123598 271.931227 
L 379.448584 268.62103 
L 380.098524 257.867318 
L 381.07348 233.979705 
L 382.373391 200.869155 
L 383.023362 188.893073 
L 383.673302 180.782207 
L 384.323273 176.332719 
L 384.323273 176.332719 
" clip-path="url(#pfa86b20ff6)" style="fill: none; stroke: #ff7f0e; stroke-width: 0.5; stroke-linecap: round"/>
   </g>
   <g id="line2d_16">
    <path d="M 59.668727 187.238918 
L 60.968645 187.316869 
L 61.943584 187.243994 
L 62.593543 187.042755 
L 63.243502 186.56493 
L 63.893461 185.707961 
L 64.54342 184.303965 
L 65.193379 182.018481 
L 65.843338 178.349898 
L 66.493297 172.705241 
L 67.143256 164.244237 
L 67.793215 151.393843 
L 68.443175 133.268067 
L 69.418113 96.300789 
L 70.393051 53.653541 
L 71.043011 36.156782 
L 71.36799 32.593067 
L 71.692969 32.1675 
L 72.017949 34.017507 
L 72.667908 38.598476 
L 72.992888 39.847143 
L 73.317867 42.324457 
L 73.967826 50.531006 
L 76.242683 86.802442 
L 77.542602 98.648318 
L 78.842518 108.245049 
L 80.142437 116.173812 
L 81.442355 122.785263 
L 82.742274 128.109261 
L 83.717211 131.13087 
L 84.36717 132.578847 
L 85.017129 133.473704 
L 85.342109 133.680339 
L 85.667089 133.706015 
L 85.992068 133.536369 
L 86.317048 133.146777 
L 86.642028 132.506726 
L 87.291987 130.36195 
L 87.941946 126.89293 
L 88.591904 121.918543 
L 89.241863 115.301447 
L 90.216802 102.426035 
L 92.816639 64.36384 
L 93.466598 59.259696 
L 93.791576 57.742262 
L 94.116557 56.913957 
L 94.441535 56.760118 
L 94.766517 57.254597 
L 95.091494 58.359876 
L 95.741454 62.153131 
L 96.716391 70.115104 
L 99.316228 92.64549 
L 100.941128 104.74708 
L 102.566024 115.223763 
L 104.19092 124.273466 
L 105.815821 131.981019 
L 107.115735 137.133099 
L 108.090676 140.3141 
L 109.065613 142.757012 
L 109.715572 143.866745 
L 110.365532 144.439852 
L 110.690513 144.479168 
L 111.015491 144.323677 
L 111.340473 143.947478 
L 111.66545 143.321964 
L 112.315409 141.219093 
L 112.965369 137.651839 
L 113.615328 132.251776 
L 114.265287 124.755733 
L 114.915247 115.005878 
L 115.890184 96.572578 
L 117.51508 64.244794 
L 118.165039 54.841873 
L 118.814998 49.349297 
L 119.13998 48.140146 
L 119.464958 47.968119 
L 119.789939 48.787019 
L 120.114917 50.506208 
L 120.764876 56.061212 
L 124.014673 89.479266 
L 125.639573 102.700468 
L 127.264469 113.850103 
L 128.889365 123.392929 
L 130.514262 131.590411 
L 132.139158 138.536424 
L 133.439076 143.145193 
L 134.414017 145.944323 
L 135.388958 148.022399 
L 136.038913 148.882424 
L 136.363891 149.110883 
L 136.688877 149.178801 
L 137.013854 149.062992 
L 137.338832 148.737435 
L 137.66381 148.173278 
L 137.988787 147.348088 
L 138.638751 144.720598 
L 139.288706 140.417018 
L 139.938669 134.051599 
L 140.588625 125.310142 
L 141.238588 113.966752 
L 142.538506 85.472876 
L 143.838425 57.971333 
L 144.48838 48.982234 
L 144.813358 46.147977 
L 145.138343 44.495773 
L 145.463321 44.040948 
L 145.788299 44.741519 
L 146.113276 46.498435 
L 146.76324 52.499603 
L 149.688054 85.11581 
L 150.987973 96.525289 
L 152.287892 106.272128 
L 153.912788 116.603674 
L 155.212706 123.636472 
L 156.512625 129.635094 
L 157.812543 134.513635 
L 158.787477 137.28605 
L 159.43744 138.596852 
L 160.087395 139.368071 
L 160.412381 139.51452 
L 160.737358 139.480607 
L 161.062336 139.24134 
L 161.387314 138.765992 
L 161.712299 138.023377 
L 162.362255 135.609489 
L 163.012218 131.741207 
L 163.662173 126.153041 
L 164.312129 118.667201 
L 165.287069 103.792983 
L 167.561929 63.877938 
L 168.211884 56.837636 
L 168.861847 52.949087 
L 169.186825 52.207622 
L 169.511803 52.25814 
L 169.83678 53.080056 
L 170.161766 54.642349 
L 170.811721 59.462841 
L 172.11164 72.072439 
L 173.736536 87.479903 
L 175.361432 100.746328 
L 176.986336 112.11267 
L 178.611233 121.947038 
L 180.236129 130.528869 
L 181.861025 138.01292 
L 183.485921 144.526041 
L 185.110818 150.135449 
L 186.410736 153.970118 
L 187.710655 157.140107 
L 188.685596 158.955326 
L 189.335559 159.792181 
L 189.985506 160.227073 
L 190.310492 160.25344 
L 190.635477 160.124458 
L 190.960447 159.812353 
L 191.285433 159.283379 
L 191.610418 158.497854 
L 192.260374 155.968869 
L 192.910329 151.78936 
L 193.560284 145.561085 
L 194.210255 136.48267 
L 194.860211 123.987302 
L 195.835152 99.277938 
L 197.135062 63.098113 
L 197.785018 49.832321 
L 198.434989 41.847836 
L 198.759959 39.880175 
L 199.084944 39.131233 
L 199.409914 39.406995 
L 199.7349 40.668674 
L 200.059885 42.942471 
L 200.70984 49.995605 
L 203.309678 84.414481 
L 204.609588 96.105602 
L 205.909515 105.87644 
L 207.209425 114.142855 
L 208.509352 121.211094 
L 209.809263 127.124907 
L 210.784203 130.730273 
L 211.759144 133.477508 
L 212.4091 134.727958 
L 213.059055 135.412327 
L 213.384041 135.499838 
L 213.709026 135.390031 
L 214.033996 135.060375 
L 214.358981 134.486803 
L 215.008937 132.504317 
L 215.658892 129.220143 
L 216.308848 124.444922 
L 216.958818 117.929103 
L 217.933759 104.827738 
L 220.533596 64.874801 
L 221.183552 58.801841 
L 221.508522 56.82647 
L 221.833507 55.63431 
L 222.158493 55.271529 
L 222.483463 55.665951 
L 222.808448 56.694867 
L 223.458404 60.380905 
L 224.108359 65.700985 
L 227.033182 92.154638 
L 228.658078 104.462664 
L 230.282974 115.089214 
L 231.90787 124.302112 
L 233.532767 132.217588 
L 234.832693 137.638539 
L 236.132604 142.155927 
L 237.107545 144.831389 
L 237.7575 146.178224 
L 238.407455 147.078423 
L 238.732441 147.327528 
L 239.057426 147.418464 
L 239.382396 147.327742 
L 239.707382 147.028321 
L 240.032367 146.489561 
L 240.357337 145.677307 
L 241.007292 143.077547 
L 241.657263 138.884032 
L 242.307219 132.798832 
L 242.957174 124.347859 
L 243.60713 113.321373 
L 244.58207 92.849468 
L 245.881997 65.291721 
L 246.531952 55.251013 
L 247.181908 48.845675 
L 247.506893 47.142058 
L 247.831863 46.466904 
L 248.156848 46.814525 
L 248.481834 48.09095 
L 249.131789 52.835108 
L 250.10673 63.468894 
L 251.406641 78.606454 
L 252.706567 90.896739 
L 254.331463 103.937969 
L 255.95636 114.900912 
L 257.581256 124.312439 
L 259.206152 132.403639 
L 260.831049 139.260396 
L 262.130975 143.813139 
L 263.1059 146.584587 
L 264.080841 148.635243 
L 264.730796 149.479165 
L 265.055782 149.703373 
L 265.380767 149.770393 
L 265.705737 149.656462 
L 266.030723 149.333735 
L 266.355708 148.770415 
L 266.680678 147.930726 
L 267.330634 145.258783 
L 267.980604 140.985271 
L 268.63056 134.711659 
L 269.280515 125.887826 
L 269.930471 114.383094 
L 270.905412 92.968499 
L 272.205338 64.240182 
L 272.855293 53.723776 
L 273.505249 47.150788 
L 273.830234 45.495335 
L 274.155204 44.947487 
L 274.480189 45.401252 
L 274.805175 46.752566 
L 275.45513 51.863167 
L 276.430071 63.703225 
L 277.405012 75.997145 
L 278.704923 88.827099 
L 280.004834 99.802895 
L 281.30476 109.209727 
L 282.929656 119.307513 
L 284.554552 127.902838 
L 285.854479 133.764698 
L 287.15439 138.673751 
L 288.12933 141.62632 
L 288.779286 143.164786 
L 289.429241 144.269431 
L 290.079212 144.830735 
L 290.404182 144.865522 
L 290.729168 144.712419 
L 291.054138 144.34232 
L 291.379123 143.719573 
L 292.029078 141.568057 
L 292.679049 137.950089 
L 293.329005 132.539944 
L 293.97896 125.027977 
L 294.628916 115.258075 
L 295.603856 96.631722 
L 297.228753 63.468357 
L 297.878708 54.551612 
L 298.528679 49.405914 
L 298.853649 48.250049 
L 299.178634 48.00831 
L 299.503604 48.637986 
L 299.82859 50.080463 
L 300.478545 55.050897 
L 301.778471 68.883759 
L 303.403368 85.29214 
L 304.703279 96.592942 
L 306.328175 108.67202 
L 307.953087 118.973736 
L 309.577983 127.878633 
L 311.202879 135.563804 
L 312.827775 142.102346 
L 314.127686 146.470522 
L 315.102627 149.15567 
L 316.077568 151.178523 
L 316.727523 152.044166 
L 317.052509 152.293429 
L 317.377479 152.396799 
L 317.702464 152.331573 
L 318.02745 152.070633 
L 318.352419 151.582573 
L 318.677405 150.831521 
L 319.32736 148.375508 
L 319.977331 144.363589 
L 320.627271 138.365942 
L 321.277242 129.764094 
L 321.927213 118.331338 
L 322.902138 96.461705 
L 324.202049 65.623508 
L 324.85202 53.907906 
L 325.50196 46.311661 
L 325.826945 44.229167 
L 326.151931 43.304577 
L 326.476916 43.415967 
L 326.801902 44.494424 
L 327.126856 46.514613 
L 327.776827 53.043568 
L 330.051694 81.81996 
L 331.351605 93.910686 
L 332.651516 104.141947 
L 334.276412 114.880031 
L 335.901308 123.903037 
L 337.20125 129.986233 
L 338.501161 134.994601 
L 339.476086 137.916903 
L 340.126057 139.373765 
L 340.775997 140.337927 
L 341.100983 140.59803 
L 341.425968 140.685782 
L 341.750954 140.580124 
L 342.075939 140.257768 
L 342.400893 139.693349 
L 343.050864 137.742652 
L 343.700835 134.400225 
L 344.350775 129.351043 
L 345.000746 122.380074 
L 345.650717 113.373646 
L 346.625642 96.49729 
L 348.250539 66.756338 
L 348.900509 57.914881 
L 349.550449 52.594319 
L 349.875435 51.326252 
L 350.20042 50.98411 
L 350.525406 51.525074 
L 350.85036 52.87322 
L 351.500331 57.524301 
L 352.800242 70.22436 
L 354.750124 89.020393 
L 356.37502 102.175009 
L 357.999916 113.411593 
L 359.624812 123.119198 
L 361.249709 131.580209 
L 362.874605 138.97049 
L 364.499501 145.420567 
L 366.124428 151.032636 
L 367.749325 155.867138 
L 369.049235 159.167521 
L 370.349146 161.885135 
L 371.324072 163.407115 
L 371.974043 164.07575 
L 372.624013 164.363112 
L 372.948968 164.323923 
L 373.273953 164.13136 
L 373.598939 163.755095 
L 373.923924 163.159395 
L 374.573895 161.139802 
L 375.223835 157.712201 
L 375.873806 152.355324 
L 376.523746 144.243374 
L 377.173717 132.813392 
L 377.823688 117.814684 
L 378.798613 89.216661 
L 379.773538 61.018126 
L 380.423509 47.16066 
L 381.07348 38.773781 
L 381.398466 36.640068 
L 381.72342 35.591035 
L 382.048406 35.713426 
L 382.373391 37.206765 
L 382.698376 40.128372 
L 383.348316 49.774891 
L 384.323273 68.222951 
L 384.323273 68.222951 
" clip-path="url(#pfa86b20ff6)" style="fill: none; stroke: #2ca02c; stroke-width: 0.5; stroke-linecap: round"/>
   </g>
   <g id="patch_3">
    <path d="M 43.436 263.036616 
L 43.436 46.471764 
" style="fill: none; stroke: #262626; stroke-linejoin: miter; stroke-linecap: square"/>
   </g>
   <g id="patch_4">
    <path d="M 59.668727 286.1835 
L 384.61575 286.1835 
" style="fill: none; stroke: #262626; stroke-linejoin: miter; stroke-linecap: square"/>
   </g>
   <g id="text_16">
    <!-- Lorenz system -->
    <g style="fill: #262626" transform="translate(190.78625 14.0715) scale(0.096 -0.096)">
     <defs>
      <path id="ArialMT-4c" d="M 469 0 
L 469 4581 
L 1075 4581 
L 1075 541 
L 3331 541 
L 3331 0 
L 469 0 
z
" transform="scale(0.015625)"/>
      <path id="ArialMT-6f" d="M 213 1659 
Q 213 2581 725 3025 
Q 1153 3394 1769 3394 
Q 2453 3394 2887 2945 
Q 3322 2497 3322 1706 
Q 3322 1066 3130 698 
Q 2938 331 2570 128 
Q 2203 -75 1769 -75 
Q 1072 -75 642 372 
Q 213 819 213 1659 
z
M 791 1659 
Q 791 1022 1069 705 
Q 1347 388 1769 388 
Q 2188 388 2466 706 
Q 2744 1025 2744 1678 
Q 2744 2294 2464 2611 
Q 2184 2928 1769 2928 
Q 1347 2928 1069 2612 
Q 791 2297 791 1659 
z
" transform="scale(0.015625)"/>
      <path id="ArialMT-72" d="M 416 0 
L 416 3319 
L 922 3319 
L 922 2816 
Q 1116 3169 1280 3281 
Q 1444 3394 1641 3394 
Q 1925 3394 2219 3213 
L 2025 2691 
Q 1819 2813 1613 2813 
Q 1428 2813 1281 2702 
Q 1134 2591 1072 2394 
Q 978 2094 978 1738 
L 978 0 
L 416 0 
z
" transform="scale(0.015625)"/>
      <path id="ArialMT-65" d="M 2694 1069 
L 3275 997 
Q 3138 488 2766 206 
Q 2394 -75 1816 -75 
Q 1088 -75 661 373 
Q 234 822 234 1631 
Q 234 2469 665 2931 
Q 1097 3394 1784 3394 
Q 2450 3394 2872 2941 
Q 3294 2488 3294 1666 
Q 3294 1616 3291 1516 
L 816 1516 
Q 847 969 1125 678 
Q 1403 388 1819 388 
Q 2128 388 2347 550 
Q 2566 713 2694 1069 
z
M 847 1978 
L 2700 1978 
Q 2663 2397 2488 2606 
Q 2219 2931 1791 2931 
Q 1403 2931 1139 2672 
Q 875 2413 847 1978 
z
" transform="scale(0.015625)"/>
      <path id="ArialMT-6e" d="M 422 0 
L 422 3319 
L 928 3319 
L 928 2847 
Q 1294 3394 1984 3394 
Q 2284 3394 2536 3286 
Q 2788 3178 2913 3003 
Q 3038 2828 3088 2588 
Q 3119 2431 3119 2041 
L 3119 0 
L 2556 0 
L 2556 2019 
Q 2556 2363 2490 2533 
Q 2425 2703 2258 2804 
Q 2091 2906 1866 2906 
Q 1506 2906 1245 2678 
Q 984 2450 984 1813 
L 984 0 
L 422 0 
z
" transform="scale(0.015625)"/>
      <path id="ArialMT-7a" d="M 125 0 
L 125 456 
L 2238 2881 
Q 1878 2863 1603 2863 
L 250 2863 
L 250 3319 
L 2963 3319 
L 2963 2947 
L 1166 841 
L 819 456 
Q 1197 484 1528 484 
L 3063 484 
L 3063 0 
L 125 0 
z
" transform="scale(0.015625)"/>
      <path id="ArialMT-20" transform="scale(0.015625)"/>
      <path id="ArialMT-73" d="M 197 991 
L 753 1078 
Q 800 744 1014 566 
Q 1228 388 1613 388 
Q 2000 388 2187 545 
Q 2375 703 2375 916 
Q 2375 1106 2209 1216 
Q 2094 1291 1634 1406 
Q 1016 1563 777 1677 
Q 538 1791 414 1992 
Q 291 2194 291 2438 
Q 291 2659 392 2848 
Q 494 3038 669 3163 
Q 800 3259 1026 3326 
Q 1253 3394 1513 3394 
Q 1903 3394 2198 3281 
Q 2494 3169 2634 2976 
Q 2775 2784 2828 2463 
L 2278 2388 
Q 2241 2644 2061 2787 
Q 1881 2931 1553 2931 
Q 1166 2931 1000 2803 
Q 834 2675 834 2503 
Q 834 2394 903 2306 
Q 972 2216 1119 2156 
Q 1203 2125 1616 2013 
Q 2213 1853 2448 1751 
Q 2684 1650 2818 1456 
Q 2953 1263 2953 975 
Q 2953 694 2789 445 
Q 2625 197 2315 61 
Q 2006 -75 1616 -75 
Q 969 -75 630 194 
Q 291 463 197 991 
z
" transform="scale(0.015625)"/>
      <path id="ArialMT-79" d="M 397 -1278 
L 334 -750 
Q 519 -800 656 -800 
Q 844 -800 956 -737 
Q 1069 -675 1141 -563 
Q 1194 -478 1313 -144 
Q 1328 -97 1363 -6 
L 103 3319 
L 709 3319 
L 1400 1397 
Q 1534 1031 1641 628 
Q 1738 1016 1872 1384 
L 2581 3319 
L 3144 3319 
L 1881 -56 
Q 1678 -603 1566 -809 
Q 1416 -1088 1222 -1217 
Q 1028 -1347 759 -1347 
Q 597 -1347 397 -1278 
z
" transform="scale(0.015625)"/>
      <path id="ArialMT-6d" d="M 422 0 
L 422 3319 
L 925 3319 
L 925 2853 
Q 1081 3097 1340 3245 
Q 1600 3394 1931 3394 
Q 2300 3394 2536 3241 
Q 2772 3088 2869 2813 
Q 3263 3394 3894 3394 
Q 4388 3394 4653 3120 
Q 4919 2847 4919 2278 
L 4919 0 
L 4359 0 
L 4359 2091 
Q 4359 2428 4304 2576 
Q 4250 2725 4106 2815 
Q 3963 2906 3769 2906 
Q 3419 2906 3187 2673 
Q 2956 2441 2956 1928 
L 2956 0 
L 2394 0 
L 2394 2156 
Q 2394 2531 2256 2718 
Q 2119 2906 1806 2906 
Q 1569 2906 1367 2781 
Q 1166 2656 1075 2415 
Q 984 2175 984 1722 
L 984 0 
L 422 0 
z
" transform="scale(0.015625)"/>
     </defs>
     <use xlink:href="#ArialMT-4c"/>
     <use xlink:href="#ArialMT-6f" x="55.615234"/>
     <use xlink:href="#ArialMT-72" x="111.230469"/>
     <use xlink:href="#ArialMT-65" x="144.53125"/>
     <use xlink:href="#ArialMT-6e" x="200.146484"/>
     <use xlink:href="#ArialMT-7a" x="255.761719"/>
     <use xlink:href="#ArialMT-20" x="305.761719"/>
     <use xlink:href="#ArialMT-73" x="333.544922"/>
     <use xlink:href="#ArialMT-79" x="383.544922"/>
     <use xlink:href="#ArialMT-73" x="433.544922"/>
     <use xlink:href="#ArialMT-74" x="483.544922"/>
     <use xlink:href="#ArialMT-65" x="511.328125"/>
     <use xlink:href="#ArialMT-6d" x="566.943359"/>
    </g>
   </g>
   <g id="legend_1">
    <g id="line2d_17">
     <path d="M 51.356 248.435625 
L 60.156 248.435625 
L 68.956 248.435625 
" style="fill: none; stroke: #1f77b4; stroke-width: 0.5; stroke-linecap: round"/>
    </g>
    <g id="text_17">
     <!-- x -->
     <g style="fill: #262626" transform="translate(75.996 251.515625) scale(0.088 -0.088)">
      <defs>
       <path id="ArialMT-78" d="M 47 0 
L 1259 1725 
L 138 3319 
L 841 3319 
L 1350 2541 
Q 1494 2319 1581 2169 
Q 1719 2375 1834 2534 
L 2394 3319 
L 3066 3319 
L 1919 1756 
L 3153 0 
L 2463 0 
L 1781 1031 
L 1600 1309 
L 728 0 
L 47 0 
z
" transform="scale(0.015625)"/>
      </defs>
      <use xlink:href="#ArialMT-78"/>
     </g>
    </g>
    <g id="line2d_18">
     <path d="M 51.356 260.8835 
L 60.156 260.8835 
L 68.956 260.8835 
" style="fill: none; stroke: #ff7f0e; stroke-width: 0.5; stroke-linecap: round"/>
    </g>
    <g id="text_18">
     <!-- y -->
     <g style="fill: #262626" transform="translate(75.996 263.9635) scale(0.088 -0.088)">
      <use xlink:href="#ArialMT-79"/>
     </g>
    </g>
    <g id="line2d_19">
     <path d="M 51.356 273.4345 
L 60.156 273.4345 
L 68.956 273.4345 
" style="fill: none; stroke: #2ca02c; stroke-width: 0.5; stroke-linecap: round"/>
    </g>
    <g id="text_19">
     <!-- z -->
     <g style="fill: #262626" transform="translate(75.996 276.5145) scale(0.088 -0.088)">
      <use xlink:href="#ArialMT-7a"/>
     </g>
    </g>
   </g>
  </g>
 </g>
 <defs>
  <clipPath id="pfa86b20ff6">
   <rect x="43.436" y="20.0715" width="357.12" height="266.112"/>
  </clipPath>
 </defs>
</svg>